<svg xmlns="http://www.w3.org/2000/svg" width="106.667" height="104" viewBox="0 0 80 78" fill="#10244c" fill-rule="evenodd"><path d="m1.801 35.521 2.633.028c.039.001.065.029.064.073l-.013 1.121c0 .042-.026.071-.066.07l-2.705-.029a.63.63 0 0 0-.699.673c-.005.425.245.679.685.683l2.704.031c.039 0 .065.029.064.072l-.013 1.121c0 .043-.027.071-.065.071l-2.634-.029C.61 39.394.012 38.643 0 37.52v-.072c.013-1.186.63-1.94 1.801-1.927m2.726 5.828c.038-.006.068.019.075.061l.161 1.043c.008.051-.004.102-.045.13L2.48 44.42l.005.027 2.462-.38c.039-.006.068.019.075.062l.153.992c.006.043-.014.075-.053.081l-4.22.653c-.038.005-.068-.02-.075-.062l-.16-1.044c-.007-.048.004-.101.045-.13l2.233-1.82-.007-.042-2.455.379c-.038.005-.068-.018-.074-.061l-.153-.994c-.007-.041.014-.074.053-.08zm1.105 5.803c.036-.011.069.01.081.052l.311 1.078c.013.041-.004.076-.042.087l-4.098 1.185c-.037.011-.07-.01-.082-.052l-.311-1.077c-.012-.042.004-.076.041-.087zm-2.505 6.045c-.02-.047-.014-.081.022-.111l3.303-3.121c.03-.029.071-.016.091.031l.465 1.084c.019.046.013.079-.023.112l-2.094 1.849.008.02 2.771-.277c.048-.005.077.014.096.061l.463 1.076c.02.046-.001.079-.043.081l-4.535.254c-.048.005-.077-.014-.097-.061zm5.869 2.245c.033-.02.07-.01.093.027l1.693 2.716c.023.037.016.075-.017.096l-.708.44c-.033.021-.07.01-.092-.027l-1.04-1.665q-.022-.037-.056-.016l-.566.351q-.033.02-.011.058l.853 1.367c.024.036.016.075-.017.095l-.693.432c-.032.019-.069.009-.092-.027l-.852-1.367q-.024-.038-.056-.017l-.598.372q-.033.021-.011.058l1.039 1.666c.022.036.017.075-.016.096l-.708.441c-.033.02-.071.01-.094-.027l-1.693-2.715c-.023-.037-.016-.075.017-.096zm3.467 7.141c.215-.185.214-.468-.02-.74l-.439-.514q-.03-.032-.057-.007l-.648.557q-.03.026-.001.057l.439.514c.233.272.511.318.727.132zm-2.209 1.985c-.042-.049-.041-.078-.021-.124l.657-1.54-.303-.355q-.028-.032-.057-.007l-1.108.953c-.03.026-.069.021-.097-.013l-.729-.851c-.027-.033-.026-.071.002-.097l3.237-2.783c.03-.026.068-.02.096.013l1.294 1.511c.729.852.698 1.721.071 2.261a1.3 1.3 0 0 1-1.457.191l-.685 1.773c-.016.042-.06.051-.092.013zm2.795 2.141c-.011-.043.012-.082.061-.084l.938-.103a.07.07 0 0 1 .08.06 2.1 2.1 0 0 0 .662 1.141c.346.293.635.317.794.131.122-.143.098-.326-.232-.681l-.175-.192c-.717-.787-.878-1.485-.345-2.11s1.431-.583 2.275.133c.515.437.874.988 1.016 1.499.01.042-.005.072-.052.082l-.868.19q-.066.007-.089-.051c-.129-.381-.328-.711-.624-.963-.274-.232-.512-.231-.65-.068-.125.148-.086.344.237.686l.176.191c.728.797.867 1.476.326 2.112-.529.62-1.44.628-2.437-.219-.608-.516-1.024-1.269-1.093-1.752zm6.95.69c.022-.033.06-.038.097-.014l.936.617c.037.023.046.06.025.093l-2.34 3.572c-.022.033-.06.039-.096.016l-.937-.616c-.036-.025-.045-.062-.024-.094zm1.835 6.12-.02-.01c-.013-.006-.016-.015-.024-.033-.003-.009-.007-.018-.001-.029l.008-.018 1.456-2.943q.01-.027-.015-.051l-.007-.004-1.076-.532-.02-.01a.04.04 0 0 1-.02-.024l-.003-.009a.06.06 0 0 1 .007-.047l.389-.788a.066.066 0 0 1 .074-.036l.02.01 3.365 1.665c.019.01.028.022.035.041s.006.038 0 .05l-.39.788a.07.07 0 0 1-.042.036.06.06 0 0 1-.038-.004l-.012-.007-1.077-.533q-.016-.01-.028-.007l-.027.023-1.455 2.943-.009.018c-.015.015-.025.016-.049.019-.009.003-.022-.004-.035-.01zm6.801.967-.003-1.445-.02-.007-.878 1.155zm-.254-2.87c.026-.031.061-.048.109-.031l1.113.365a.09.09 0 0 1 .069.09l.241 4.573c.002.042-.027.06-.068.046l-1.127-.369c-.047-.016-.067-.049-.068-.091l-.007-.717-1.51-.495-.43.574a.09.09 0 0 1-.108.033l-1.121-.367c-.04-.014-.053-.045-.028-.077zm3.646 4.984c-.031-.031-.031-.077.009-.103l.747-.575a.07.07 0 0 1 .101.008 2.07 2.07 0 0 0 1.157.628c.448.072.707-.058.746-.3.029-.186-.086-.329-.552-.46l-.25-.073c-1.021-.299-1.521-.811-1.392-1.622s.918-1.242 2.01-1.07c.666.105 1.261.39 1.646.752q.048.046-.001.099l-.643.612q-.051.04-.103.003c-.307-.258-.65-.438-1.033-.499-.354-.055-.557.07-.59.281-.03.192.106.338.559.462l.25.073c1.036.302 1.508.808 1.375 1.633-.129.805-.903 1.284-2.193 1.08-.788-.123-1.534-.55-1.845-.927zm11.988-.524-.572-1.326-.022.001-.352 1.408zm-1.367-2.536c.012-.04.037-.068.088-.072l1.168-.103c.05-.004.08.019.1.057l2.025 4.107c.018.038-.002.065-.045.07l-1.181.103a.09.09 0 0 1-.098-.057l-.291-.656-1.582.139-.168.696c-.012.04-.037.07-.088.073L41.402 78h-.015c-.033-.002-.05-.025-.041-.059zm4.578-.588c-.01-.037.012-.07.053-.08l1.088-.272c.043-.01.076.009.086.046l.797 3.184q.008.038.053.027l2.008-.501c.041-.01.074.009.084.046l.214.853c.011.038-.012.069-.053.08l-3.208.799c-.042.011-.075-.007-.085-.045zm7.52 1.32.531-.222c.365-.152.484-.39.359-.689-.117-.281-.375-.376-.74-.224l-.53.222q-.04.015-.024.052l.35.843q.016.034.055.018zm-.209-1.833c.352-.146.478-.361.361-.642-.119-.287-.353-.344-.711-.194l-.471.196q-.04.017-.026.053l.319.764q.016.036.054.019zm-2.334-.871c-.015-.035.002-.072.042-.087l1.837-.766c1.008-.421 1.654-.178 1.923.467a.99.99 0 0 1-.186 1.101l.004.012c.379-.024.82.192 1.016.663.332.795-.135 1.431-1.084 1.827l-1.816.758c-.04.016-.076.003-.092-.032zm6.455-.023-1.383-2.239c-.019-.033-.01-.071.028-.092l.952-.589c.038-.022.075-.016.097.018l1.42 2.3c.23.373.596.445.943.229.361-.223.441-.568.211-.943l-1.421-2.299c-.02-.033-.008-.069.027-.093l.953-.588c.037-.022.076-.015.096.018l1.383 2.239c.615.995.275 1.92-.715 2.53-1.008.622-1.975.505-2.59-.49zm6.301-6.055c-.186-.215-.467-.211-.738.024l-.512.441q-.032.029-.006.057l.557.646q.026.03.059.001l.51-.441c.272-.235.316-.513.131-.727zm1.986 2.202c-.049.042-.078.041-.123.022l-1.539-.652-.353.306q-.032.028-.007.058l.954 1.105c.025.03.02.067-.012.096l-.848.734c-.033.027-.072.027-.097-.002l-2.786-3.228c-.025-.029-.021-.068.012-.097l1.506-1.3c.846-.732 1.713-.705 2.254-.079.359.416.434.941.194 1.454l1.773.681c.041.014.051.059.014.092zm.924-3.915c-.461-.388-.641-.576-.824-.882-.383-.66-.202-1.438.357-2.104.578-.687 1.254-.906 1.859-.753a.07.07 0 0 1 .057.095l-.328.944c-.014.046-.051.07-.09.065-.289-.028-.504.045-.721.305-.213.252-.242.509-.109.734.082.143.221.279.621.617s.57.451.715.508c.248.088.501.008.727-.262.205-.241.271-.513.148-.72a.8.8 0 0 0-.187-.216q-.032-.025-.059.007l-.342.407c-.027.033-.066.038-.096.014l-.561-.472c-.029-.024-.031-.063-.004-.097l1.125-1.336c.028-.033.066-.038.096-.013l.258.217c.322.271.556.506.698.758.394.669.251 1.451-.321 2.134-.561.665-1.296.975-2.012.711-.331-.129-.547-.273-1.008-.662zm1.959-5.885c-.033-.02-.039-.059-.018-.095l1.668-2.729c.024-.037.059-.048.094-.028l.711.434c.032.02.039.059.018.095l-1.024 1.674q-.023.037.01.057l.568.347q.033.02.055-.017l.84-1.374c.023-.036.061-.047.093-.027l.696.425c.031.02.039.057.016.094l-.839 1.373q-.02.038.011.059l.602.367q.032.02.055-.017l1.023-1.674c.023-.037.061-.048.092-.028l.713.435c.033.021.039.058.018.095l-1.668 2.728c-.023.037-.061.049-.094.028zm2.59-4.496c-.035-.015-.049-.052-.031-.092l.404-.975c.019-.047.057-.086.107-.089l2.865-.409.012-.027-2.301-.952c-.037-.015-.05-.052-.033-.091l.385-.93c.017-.04.052-.058.087-.042l3.945 1.633c.036.014.049.051.033.091l-.406.977c-.019.046-.057.085-.106.088l-2.855.399-.016.04 2.295.95c.035.015.049.051.031.09l-.385.93c-.018.04-.052.057-.088.042zm5.707-4.354c-.033.028-.079.024-.102-.018l-.514-.789c-.025-.036-.016-.078.016-.099a2.1 2.1 0 0 0 .719-1.105c.105-.441-.002-.71-.24-.768-.184-.044-.334.059-.504.514l-.092.244c-.379.996-.928 1.454-1.727 1.262s-1.166-1.013-.908-2.089c.158-.656.488-1.228.881-1.583a.06.06 0 0 1 .098.008l.558.689q.037.056-.004.103c-.283.287-.488.614-.578.991-.084.35.025.56.233.61.187.046.344-.079.504-.521l.092-.244c.383-1.01.925-1.441 1.736-1.245.791.191 1.209 1.001.902 2.272-.185.775-.669 1.486-1.07 1.768m-2.514-6.551c-.037-.004-.06-.035-.055-.078l.127-1.114c.006-.043.035-.068.072-.064l4.244.481c.038.004.061.036.055.078l-.126 1.115c-.005.043-.034.068-.073.063zm4.106-3.101c-.025.037-.07.044-.103.009l-.694-.639c-.031-.028-.033-.07-.006-.099.228-.297.43-.76.426-1.248-.006-.453-.176-.688-.422-.686-.188.002-.309.139-.361.622l-.029.259c-.125 1.059-.545 1.637-1.367 1.646s-1.379-.696-1.391-1.802c-.008-.674.174-1.31.467-1.751q.038-.056.096-.016l.713.53c.031.028.039.066.02.101-.203.348-.322.715-.318 1.102.004.36.16.538.374.536.195-.003.316-.162.362-.63l.029-.258c.125-1.072.545-1.623 1.379-1.633.734-.008 1.294.543 1.41 1.605v.789c-.073.651-.32 1.257-.584 1.563zM5.954 26.98c-.014.041-.045.054-.087.055l-4.532.16c-.064.009-.086-.029-.07-.076l.082-.238c.02-.061.04-.077.096-.081l3.972-.139.005-.014-3.069-2.502c-.041-.037-.047-.062-.028-.116l.083-.244c.016-.047.056-.065.105-.026L6 26.648c.032.025.048.061.033.101zm-2.622-5.156c-.035-.017-.047-.053-.028-.092l.111-.242c.017-.039.053-.055.088-.037l3.88 1.78c.035.016.046.053.029.093l-.111.24c-.017.039-.053.054-.088.039zm1.314-2.625c-.034-.019-.043-.057-.022-.094l.128-.232c.02-.037.057-.051.091-.032l3.73 2.062c.034.019.043.057.022.095l-.128.232c-.02.037-.057.05-.091.031zm4.585-.219c-.038.01-.074-.008-.078-.046l-.061-.252a.067.067 0 0 1 .053-.084 2.54 2.54 0 0 0 1.174-.887c.448-.642.433-1.238-.012-1.549-.355-.249-.772-.207-1.371.468l-.149.168c-.637.719-1.236.851-1.762.485-.625-.438-.666-1.201-.131-1.964.309-.441.728-.779 1.101-.93.037-.018.072-.002.083.04l.081.234c.011.041-.01.07-.047.089a2.4 2.4 0 0 0-.944.785c-.4.569-.348 1.104.071 1.397.366.256.786.163 1.342-.463l.149-.167c.664-.745 1.254-.866 1.79-.492.609.426.707 1.211.056 2.14-.367.523-.935.905-1.345 1.029zm2.359-9.082c-.026-.03-.022-.068.009-.097l.197-.18c.037-.034.077-.054.133-.034l4.231 1.024.016-.014-2.433-2.668c-.026-.027-.023-.066.009-.095l.197-.18c.032-.029.07-.029.097 0l2.873 3.148c.026.028.022.067-.009.096l-.207.189a.14.14 0 0 1-.134.035l-4.219-1.043-.021.02 2.438 2.671c.026.029.023.068-.009.096l-.196.18c-.031.029-.07.029-.096.001zm7.4-4.646c-.421-.302-.893-.296-1.393.041-.506.341-.689.776-.567 1.279.044.18.155.448.552 1.038s.605.793.756.901c.419.302.893.296 1.398-.045s.684-.772.562-1.273c-.044-.181-.155-.449-.554-1.038s-.604-.794-.755-.902zm-.921 3.565c-.201-.145-.408-.349-.831-.976s-.535-.895-.593-1.136c-.165-.669.096-1.257.757-1.702.656-.44 1.3-.461 1.858-.057.202.145.408.348.831.975s.535.895.594 1.136c.165.668-.096 1.258-.751 1.698-.662.444-1.305.465-1.864.062zm5.979-2.525c-.039.02-.071.006-.1-.024l-3.317-3.091c-.051-.04-.04-.081.005-.102l.226-.111c.059-.029.084-.027.125.01l2.907 2.71.012-.006-.398-3.94c-.003-.055.011-.076.062-.102l.232-.113c.045-.022.086-.006.092.056l.422 4.509c.005.041-.009.077-.048.096zM25.88.787c-.013-.036.005-.07.045-.086l.249-.092c.041-.015.077 0 .09.036l1.478 3.997c.014.037-.004.07-.045.086l-.249.092c-.041.014-.076.001-.089-.036zm3.624 2.828c-.034-.018-.05-.054-.029-.086l.12-.231a.07.07 0 0 1 .096-.031 2.53 2.53 0 0 0 1.468.098c.759-.192 1.139-.655 1.005-1.182-.106-.42-.448-.66-1.343-.541l-.223.029c-.953.127-1.492-.164-1.649-.785-.186-.74.282-1.346 1.188-1.574.237-.059.477-.088.704-.09h.047a2.2 2.2 0 0 1 .69.108c.04.01.057.045.037.084l-.09.229c-.02.038-.055.047-.094.037a2.4 2.4 0 0 0-1.228-.024c-.676.171-.987.609-.862 1.105.109.433.486.638 1.318.528l.222-.03c.989-.129 1.515.165 1.676.799.181.722-.259 1.379-1.359 1.657-.62.156-1.299.074-1.693-.1zm29.308 47.291c-1.094-.49-2.234-.899-4.096-2.029-5.222-3.185-6.814-7.928-3.875-16.199 1.699-4.789 2.518-8.828 2.096-13.185l-.178-.115c-.273 5.472-2.291 8.874-5.906 14.633-7.656 12.201.117 21.143 3.811 23.924a22.25 22.25 0 0 0 8.148-7.028zM43.306 33.564c5.904-6.949 7.822-10.153 8.223-14.934-.065-.035-.127-.074-.19-.109-1.367 5.72-4.799 8.752-13.837 14.772-9.737 6.483-9.299 17.629-6.819 24.566a22 22 0 0 0 10.062 2.43 22 22 0 0 0 2.287-.119c-7.029-10.665-6.539-18.586.273-26.607zm-3.609-5.127c6.521-2.829 9.613-7.126 10.508-10.492l-.174-.08c-2.84 5.938-8.506 6.928-18.193 8.226-5.743.77-10.211 4.061-12.906 8.134a22.3 22.3 0 0 0-.334 3.827 22.2 22.2 0 0 0 4.922 13.97c-.273-16.628 8.363-20.197 16.177-23.586z"/></svg>