<svg xmlns="http://www.w3.org/2000/svg" width="1000" height="1000"><path fill="rgba(255,255,255,0)" d="M0 0h1000v1000H0z"/><g fill-rule="evenodd"><path d="m820.423 32.139.064 281.494H174.455V32.14z" fill="#1d5a98"/><path d="m592.808 112.842 23.451.013 9.834-16.578 9.653 16.578 23.464-.013-11.416 19.654 11.416 19.655-23.464-.013-9.653 16.578-9.834-16.578-23.451.013 11.416-19.655zm-207.96-32.706 14.66 19.77 24.97-1.312-7.053 23.194 16.552 18.458-23.335 8.958-4.35 23.993-21.445-11.598-22.254 11.327-4.067-23.452-22.807-9.756 16.295-18.187-6.783-22.936 24.957 1.056zm136.074-42.32 14.661 19.783 24.97-1.326-7.066 23.207 16.565 18.445-23.348 8.971-4.338 23.98-21.444-11.597-22.254 11.339-4.067-23.465-22.796-9.756 16.283-18.187-6.783-22.936 24.957 1.056zM567.517 177.3l11.558 16.488 19.796 5.715-12.73 15.806.477 19.693-19.1-6.64-19.565 6.86.477-19.912-12.253-15.806 19.564-5.946zm-47.354 67.368-17.402-17.093v-25.51h-26.553l-18.625-18.174-18.676 18.174h-25.665l-.039 24.919-18.084 17.556 18.084 17.814.039 24.919h25.665l18.676 18.174 18.625-18.174h26.553v-25.498z" fill="#fff"/><path d="M851.97.72H142.856v323.815c0 254.387 117.282 432.975 348.527 530.784l6.088 2.613 6.166-2.613c231.18-97.873 348.399-276.435 348.399-530.784zm-31.547 31.42.064 281.494H174.455V32.14zM497.47 823.5c-212.697-92.363-321.433-258.556-322.939-494.1H820.45c-1.494 235.542-110.18 401.66-322.98 494.1"/><path d="M497.47 823.5c-212.696-92.363-321.432-258.556-322.938-494.1H820.45c-1.494 235.542-110.18 401.66-322.98 494.1" fill="#fff"/><path d="M174.532 329.4c1.506 235.543 110.216 401.647 322.874 494.023V329.4z" fill="#997f57"/><path d="M926.958 677.218c-82.853 18.097-151.006 48.718-193.506 86.932l.54 1.004-2.149-.502 29.939 66.84c-59.62 29.514-143.36 51.614-256.163 51.614h-3.81c-113.473 0-197.573-22.345-257.335-52.193l27.674-64.253 1.441-2.51c-42.616-38.214-110.627-68.835-193.686-86.932l.103 106.007c39.63 13.348 65.257 23.181 87.01 42.912l-9.899 19.834-20.04 39.142.528-.052-3.862 7.363c69.621 62.245 209.03 106.586 368.066 106.586h3.81c158.96 0 298.187-44.341 367.756-106.586l-33.246-66.467c21.752-19.564 47.366-29.514 86.829-42.733z" fill="#cc2131"/><path d="m188.587 881.921-.694 1.352c-2.523 4.672-2.819 7.285.142 8.92 2.24 1.183 4.517.23 6.01-2.394 2.008-3.746.052-6.166-2.059-10.336-2.522-4.646-4.402-8.148-4.8-11.289a17.1 17.1 0 0 1 2.11-9.499c4.312-7.941 11.816-10.026 19.758-5.65 8.803 4.672 10.992 11.815 6.526 20.13-.232.477-.631.927-.811 1.403l-9.602-5.096c.085-.208.223-.39.4-.528 2.084-4.004 1.905-6.693-.438-7.993-1.867-1.03-4.016-.322-5.367 2.11-1.79 3.347.206 6.012 2.831 10.684 2.292 4.092 4.3 7.414 4.595 11.03.18 2.717-.502 5.754-2.227 8.92-4.955 9.126-12.498 11.533-21.224 6.835-9.177-4.904-11.212-12.189-6.243-21.367q.656-1.287 1.532-2.458zm55.681-10.914-12.02 29.913c-2.601 6.539-3.837 10.077-.053 11.584 3.694 1.48 5.072-1.764 7.581-7.84q.087-.33.257-.63l12.022-29.913 11.199 4.556-10.813 26.798-1.53 3.668c-1.92 4.827-3.643 8.829-6.771 11.339-4.106 3.424-9.126 3.54-15.767.85-6.281-2.51-9.564-5.78-10.272-10.993-.592-4.594 1.545-10.258 4.75-18.122l10.4-25.691zm31.702 56.26 3.823-12.717c.257.052.54.078.837.18 5.084 1.635 6.912 4.093 5.624 8.315q-2.007 6.667-9.318 4.505a4 4 0 0 1-.966-.283m-14.12 5.265 13.644 4.092c6.024 1.815 10.4 2.742 14.467.373 3.514-1.905 6.358-5.405 7.697-9.924 1.686-5.405.528-9.91-3.204-13.4 4.633-2.033 7.182-4.697 8.546-8.919 1.378-4.75.618-8.894-2.24-12.022-2.703-2.87-6.513-4.092-11.738-5.65l-12.343-3.797zm20.479-26.554 3.385-11.108c.399.077.785.231 1.196.27 4.054 1.184 5.612 3.848 4.557 7.26-1.249 4.016-3.926 5.174-8.405 3.9-.231-.117-.386-.27-.733-.322m89.57 32.461c-.103.953-.308 1.712-.373 2.613-2.278 12.266-8.624 17.222-19.937 15.265-6.603-1.21-10.722-4.196-12.858-9.202-1.764-4.3-.889-10.864.81-20.465 1.803-9.551 3.27-15.961 6.488-19.36 3.642-3.874 8.777-5.2 15.162-4.015 11.03 2.033 15.471 9.202 13.154 21.418l-.026.502-11.507-2.111c1.107-6.565.477-9.577-3.18-10.155-4.827-.953-5.881 3.822-7.864 15.06-.194.256-.207.655-.219.823-2.15 11.867-3.153 17.119 1.841 17.955 3.913.734 5.29-1.815 6.449-8.096a39 39 0 0 1 .438-2.291zm29-6.166 1.53-12.498c.542.155 1.044.078 1.469.18 4.916.529 6.64 2.369 6.075 6.81-.54 4.723-2.665 6.28-7.542 5.702-.438-.065-.979-.168-1.532-.194m-15.29 28.381 11.802 1.455 2.407-20.517 2.42.207c4.542.605 5.43 3.037 4.736 8.868-.194 1.377-.502 3.012-.76 5.226a23.1 23.1 0 0 0 .04 7.195l14.042 1.634c-2.935-2.947-1.943-7.337-1.339-13.926.502-5.96.837-9.358-4.517-12.499 4.737-2.033 7.143-5.676 7.852-11.532.54-4.698-.373-8.418-3.051-11.134-2.831-2.768-7.272-3.642-14.068-4.479l-13.502-1.583zm64.265-45.294-1.88 32.127c-.424 7.117-.488 10.735 3.733 11.056 3.887.257 4.145-3.294 4.57-9.86.05-.206.05-.501.064-.733l1.88-32.075 11.983.631-1.7 28.935a39 39 0 0 1-.244 3.874c-.27 5.252-.707 9.55-2.792 12.949-2.78 4.595-7.53 6.332-14.737 5.882-6.732-.4-10.774-2.51-13.167-7.17-2.06-4.273-1.777-10.284-1.352-18.701l1.647-27.673zm68.012 33.234q.051 1.39.038 2.612c-.038 12.447-5.354 18.51-16.797 18.51-6.667-.026-11.352-2.24-14.287-6.758-2.51-3.848-2.805-10.502-2.805-20.182 0-9.73.373-16.347 2.947-20.259q4.35-6.731 14.146-6.615c11.237 0 16.835 6.28 16.797 18.702v.476l-11.648-.026c-.065-6.615-1.21-9.5-4.968-9.5-4.943 0-5.033 4.904-5.162 16.219v1.03c-.013 11.944-.039 17.298 5.033 17.324 4.016 0 4.891-2.844 4.903-9.202v-2.343zm14.441-31.882 27.943-1.455.476 9.975-15.922.811.515 9.5 14.661-.824.554 10.297-14.75.785.592 11.263 16.012-.876.515 10.451-27.982 1.455zm73.983 45.68-7.015-50.829 11.932-1.686 5.573 40.674 14.351-2.008 1.416 10.323zm42.488-58.77 6.32 31.599c1.455 6.99 2.24 10.58 6.422 9.756 3.875-.785 3.244-4.325 1.919-10.709q-.026-.399-.103-.707l-6.346-31.522 11.738-2.432 5.792 28.406q.321 1.93.746 3.797c.992 5.174 1.75 9.306.58 13.219-1.596 5.174-5.651 7.993-12.768 9.5-6.526 1.312-11.095.32-14.52-3.54-3.114-3.592-4.427-9.448-6.165-17.802l-5.47-27.17zm33.568-6.964 16.218-4.878 10.631 19.757c.335.656 1.956 4.403 4.994 10.992l-1.738-12.214-1.828-22.1 15.91-4.776 14.763 49.271-10.902 3.193-10.362-38.382 3.527 40.454-8.752 2.639-19.113-35.744 12.317 37.79-10.888 3.295zm56.942-18.212 25.743-10.902 3.939 9.254-14.79 6.204 3.669 8.701 13.605-5.779 4.054 9.5-13.554 5.804 4.274 10.336 14.699-6.242 4.093 9.653-25.743 10.864zm37.198-16.231 10.825-6.332 24.584 22.344a347 347 0 0 1-12.846-19.809l-4.08-6.964 9.242-5.457 25.883 44.496-10.838 6.281-25.163-23.232a219 219 0 0 1 13.232 20.092l4.428 7.517-9.409 5.405z" fill="#fff"/><path d="M718.032 478.487v-29.23h-6.114v-33.929H282.16v33.929h-5.406v29.23h5.406v96.96h-5.406v29.28h5.406v59.054h178.782a39.17 39.17 0 0 0 71.68 0h179.296v-59.053h6.114v-29.282h-6.114v-96.96z" fill="#cc2131"/><path d="M691.144 386.677h-20.31v-25.46h-27.236V336.21l-12.447 4.62c-17.041 6.333-31.715 11.83-66.312 11.83-41.06 0-59.71 9.589-68.205 16.629-8.302-7.04-26.875-16.63-67.844-16.63-34.585 0-49.284-5.521-66.3-11.828l-12.459-4.66v25.06h-27.184v25.46h-27.274v264.464l177.765-.103q.193.155.785.45c.643 12.19 9.975 21.997 21.765 21.997 11.34 0 20.569-9.228 21.765-21.019q1.288-.694 2.742-1.429l177.688.103V386.677z"/><path d="m491.344 612.579-.142-.155c-15.549-17.299-32.101-23.182-47.7-23.182l-16.27 1.532c-17.505 1.88-41.6 4.35-53.171 4.35h-24.044V375.208h-13.232v235.067h37.276c10.864 0 35.448-2.535 51.793-4.247l17.66-1.66c14.828 0 31.522-2.266 47.83 9.447zm152.241-237.371v219.93h-23.94c-11.65 0-35.654-2.458-53.3-4.35l-16.218-1.532c-15.613 0-32.242 5.882-47.624 23.182l-.694.759v1.132c16.282-12.266 33.375-9.95 48.319-9.95l17.66 1.66c16.333 1.713 40.994 4.248 51.857 4.248h37.173V375.221zm-200.07 200.096-17.66 1.609c-16.347 1.66-40.931 4.17-51.794 4.17h-10.052V356.339c15.497 5.612 32.23 10.362 64.78 10.362 51.897 0 61.435 15.96 61.539 16.192l1.017 1.634V590.66c-16.308-12.769-33.028-15.356-47.83-15.356m186.04 5.779h-9.924c-10.863 0-35.525-2.51-51.857-4.17l-17.66-1.609c-14.905 0-31.998 2.665-48.32 15.858v-206.48l.98-1.752c.115-.154 10.038-16.23 62.051-16.23 32.513 0 49.27-4.75 64.73-10.362z" fill="#fff"/><path d="M432.74 430.979c-22.215.27-40.21-1.21-53.698-4.351v7.169c13.811 3.038 31.804 4.479 53.763 4.17l13.025.296c12.28.681 21.971 2.432 29.553 5.122v-7.31c-7.826-2.562-17.376-4.145-29.167-4.88zm.682 27.955c-23.503.708-42.526-.077-54.38-1.905v7.117c15.56 2.318 37.777 2.318 54.638 1.867 0-.026 11.688 0 11.688 0 12.949.656 22.267 2.317 29.939 5.38v-7.44c-7.865-2.818-17.286-4.3-29.681-5.007h-12.202zm.811 28.201c-18.818.876-41.523 1.61-55.192.374v7.04c14.236 1.21 36.722.399 55.436-.477l10.297-.154c9.526.398 20.44 1.351 30.467 5.65v-7.542c-10.194-3.874-20.76-4.801-30.247-5.058zm.631 29.308-6.075.425c-15.832 1.08-37.03 2.664-49.734 2.317v7.04c13.219.27 34.379-1.235 50.172-2.343l6.203-.476 8.881-.348c9.989.155 20.646 1.158 30.646 5.805l.052-7.62c-10.362-4.092-21.096-5.006-30.633-5.252zm8.946 28.664-17.299 1.61c-14.325 1.428-35.151 3.693-47.47 4.17v6.989c12.588-.528 33.62-2.69 48.14-4.145l16.629-1.634c9.344 0 20.31.85 31.045 6.037l.052-7.646c-11.224-4.672-22.306-5.38-31.097-5.38m-11.906-142.085c-18.264 0-30.916-1.57-40.75-3.72V381.31a59.3 59.3 0 0 1-12.035-3.346v25.42c11.803 3.566 26.785 6.603 52.772 6.603 17.583 0 32.216 1.828 43.71 5.496v-7.246c-11.776-3.373-26.321-5.213-43.697-5.213m130.193 7.902c26.168 0 41.175-3.063 52.978-6.628v-7.376c-11.558 3.694-26.27 6.925-52.978 6.925-11.3 0-21.328.863-30.325 2.253v-20.44c-2.574.412-4.71.927-6.873 1.532a65 65 0 0 0-5.612 1.763v27.133c11.352-3.373 25.64-5.162 42.81-5.162m-.708 20.929-13.54.296c-11.352.58-20.76 2.24-28.548 4.569v7.362c7.62-2.639 17.015-4.299 28.96-5.058l13.038-.207c21.894.322 39.952-1.132 53.79-4.221v-7.259c-13.515 3.282-31.522 4.879-53.7 4.518m-.72 28.033h-12.253c-12.022.502-21.34 2.085-29.128 4.75v7.44c7.671-2.948 16.848-4.595 29.54-5.252h11.674c16.772.528 39.051.45 54.574-1.88v-6.937c-11.88 1.802-30.929 2.38-54.406 1.88m-.72 28.174-10.94-.257c-9.23.296-19.733 1.352-29.72 4.955v7.517c9.808-4.119 20.62-5.097 30.08-5.432l10.232.155c18.702.85 41.149 1.686 55.475.528v-7.04c-13.746 1.21-36.323.36-55.128-.425m5.432 29.746-6.166-.477-9.577-.347c-9.357.155-19.976.978-30.35 5.123v7.568c10.207-4.57 21.108-5.51 30.582-5.78l8.803.426 6.166.476c15.986 1.03 37.108 2.613 50.236 2.343v-7.015c-12.73.218-33.722-1.158-49.695-2.317m2.201 29.758-17.248-1.609c-8.855 0-19.86.733-31.045 5.406v7.568c10.76-5.123 21.778-5.934 31.045-5.934l16.436 1.557c14.596 1.48 35.614 3.694 48.306 4.196v-7.066c-12.356-.399-33.22-2.548-47.495-4.118"/><path d="m443.514 618.436-16.27 1.583c-17.504 1.815-41.599 4.247-53.17 4.247h-51.228V400.655h-13.335v236.457h64.563c10.864 0 35.447-2.587 51.793-4.273l17.66-1.557c11.571 0 24.661-3.476 37.571.605l.4-1.03c-12.588-9.705-25.64-12.421-37.984-12.421m227.32-217.781v223.611h-51.19c-11.648 0-35.653-2.432-53.3-4.247l-16.217-1.583c-12.95 0-26.567 2.947-39.553 13.772l.064.322c13.502-5.149 27.21-1.261 39.476-1.261l17.66 1.557c16.333 1.686 40.995 4.273 51.857 4.273h64.473V400.642z" fill="#fff"/></g></svg>