<svg width="35vw" viewBox="0 0 805 804" fill="none" xmlns="http://www.w3.org/2000/svg"><path fill-rule="evenodd" clip-rule="evenodd" d="M0 388.683c.803-8.164 1.668-16.317 2.397-24.481C17.495 195.449 142.082 51.029 306.799 11.478c210.874-50.656 421.909 71.925 482.275 280.106 51.385 177.177-27.18 368.682-188.685 459.976a399 399 0 0 1-158.316 50.372C239.476 822.151 52.805 686.082 9.884 486.56c-4.534-21.084-5.856-42.873-8.648-64.329-.359-2.742-.767-5.484-1.162-8.226zm798.551 13.279c0-217.531-177.726-395.537-395.359-395.82C184.756 5.87 6.882 183.404 6.808 401.788c0 217.79 177.429 395.684 395.037 395.906 218.263.198 396.632-177.708 396.706-395.733" fill="#113575"/><path fill-rule="evenodd" clip-rule="evenodd" d="M446.571 423.181c1.421 2.78 2.853 5.571 4.707 9.166l-7.697 1.037c-2.41 8.77-1.656 9.882 6.708 9.659q33.766-1.099 67.496-2.309c2.174-.062 4.336 0 6.733 0-.581 3.532-1.087 6.497-1.692 10.116h15.035c-.605 3.557-1.136 6.608-1.816 10.586h14.666c-1.31 10.733-3.114 20.739-3.608 30.818-.617 12.636-.086 25.321-.222 37.982a23.2 23.2 0 0 1-1.397 5.559l-2.47-.482v-6.3c0-14.661-.173-29.336.111-43.997.074-3.83 1.816-7.585 2.371-11.438.225-2.914.25-5.84.075-8.758h-12.837c-.222-3.409-.432-6.349-.655-9.98h-11.935c-.457-3.706-.84-6.843-1.235-10.475l-80.072 2.693v3.322c23.14 2.384 46.504 2.212 68.915 4.089.309 3.397-.445 7.683 1.05 8.708 2.237 1.544 6.055.815 9.316 1.062-2.224 7.078-2.224 7.078 10.39 10.203-5.707 14.711-3.706 30.127-4.262 45.344-.185 5.151 1.236 8.313 6.092 10.191 2.939 1.136 5.608 2.964 9.698 5.188H438.034V379.986c0-1.605.42-3.396-.149-4.78-.569-1.383-2.298-3.174-3.2-3.014a5.55 5.55 0 0 0-3.817 3.125c-.655 2.224 0 4.793-.26 7.177-.358 3.631 1.828 8.078-3.336 10.351-.617.272-.444 2.619-.469 4.014v11.71h-47.901c0-2.643.136-5.385 0-8.115-.21-3.521.358-6.596-3.076-10.03-2.471-2.396-1.149-8.758-1.05-13.34.086-4.855-1.94-6.077-6.807-4.435v162.38H265.941a23.8 23.8 0 0 1 4.534-2.718c8.71-2.89 12.256-8.523 10.725-17.737-.692-4.113.197-8.461-.186-12.649-.84-9.152-2.039-18.268-3.175-28.125l10.588-.964c-.345-2.729-.655-5.249-1.063-8.535l10.898-1.013c-.482-2.791-.914-5.348-1.507-8.831l69.78-3.768-.074-3.359c-26.514-1.754-53.126-1.705-80.307-3.027-.26 3.459-.482 6.559-.754 10.154h-12.355c-.309 3.545-.568 6.633-.877 10.252h-13.096c1.087 8.362 2.47 16.057 2.965 23.74.506 8.017.222 16.058.086 24.111-.148 7.671.63 15.44-.506 23.012h-2.656a55 55 0 0 1-.631-5.842c0-13.476.47-26.965-.198-40.404-.444-9.128-2.47-18.157-3.941-27.681h15.012l-2.188-11.116c3.077.148 6.005.494 8.897.383a37 37 0 0 0 6.041-1.236c-.519-2.174-1.05-4.347-1.544-6.521-.111-.569-.074-1.162-.173-2.706l81.542 2.669v-9.746c-1.778-.247-3.706-.531-5.621-.791-2.113-4.854-.395-8.263 3.151-11.734 3.15-3.076 8.451-5.237 7.066-12.068l-105.301-5.62c47.381-82.944 94.244-164.936 141.699-247.991 47.258 82.906 94.022 164.936 141.39 248.065l-106.091 5.694c1.062 3.273 1.853 5.732 2.643 8.177a7323 7323 0 0 1-2.755 16.552c12.281-3.175 13.208-4.521 8.612-10.475m-79.715-141.566a13.5 13.5 0 0 0-.951 2.816c-.111 16.243-.297 32.498-.087 48.741 0 1.804 2.015 4.274 3.707 5.275 8.352 4.768 16.976 9.029 25.402 13.686a14.31 14.31 0 0 0 14.826 0c8.278-4.496 16.556-8.98 24.982-13.205 3.299-1.642 4.608-3.705 4.534-7.411-.235-10.623 0-21.258 0-31.893v-18.528c-8.723 5.744-16.136 10.759-23.685 15.564-15.876 10.079-10.081 10.19-25.735.111-7.561-4.842-14.999-9.869-22.993-15.156m-.284 134.056c-3.162 2.977-5.584 4.62-7.079 6.88a15.5 15.5 0 0 0-2.471 7.412c0 .679 3.336 1.63 5.189 2.334 1.236.47 2.545.754 4.311 1.235z" fill="#113575"/><path fill-rule="evenodd" clip-rule="evenodd" d="M619.429 535.474a75 75 0 0 0 5.201-7.312c79.504-143.851-1.569-327.773-161.454-366.274-140.229-33.881-279.594 53.966-308.466 195.162-11.787 57.597-4.943 113.07 24.821 164.738.902 1.569 1.902 3.088 2.915 4.571a16 16 0 0 0 2.039 1.865v-128.14l75.266 3.903-48.777 85.34c-3.645-1.074-6.276-2.47-8.772-2.297-1.235.086-3.237 3.397-3.015 4.941 1.755 13.315-2.236 24.901-10.032 35.4-2.582 3.496-2.051 6.177.556 9.499 25.945 33.351 59.921 50.495 102.039 52.348 33.05 1.458 64.444-6.707 95.912-15.218 24.179-6.546 48.456-12.932 72.981-17.959 19.694-4.027 39.634-3.558 58.389 5.459a56.8 56.8 0 0 1 10.774 7.065c-29.825-17.021-60.712-11.882-91.426-4.446-30.394 7.411-60.355 16.576-90.81 23.716-33.271 7.781-66.877 9.436-99.902-1.742-37.423-12.673-62.491-39.181-79.763-73.643a222.97 222.97 0 0 1-23.092-119.147c7.771-99.804 56.586-173.731 146.048-217.704 150.656-74.05 331.682 15.6 364.472 180.611 19.767 99.705-11.824 183.699-88.252 250.745-1.335 1.236-2.842 2.174-4.547 3.471a11.5 11.5 0 0 1-1.124-1.581c-.531-1.05-.951-2.174-1.161-2.655 10.835-10.784 21.954-20.727 31.691-31.869 9.216-10.536 17.025-22.32 25.34-33.646 1.087-1.483 1.457-3.496 2.161-5.25zm-402.772-99.767v-16.811h-17.26v16.811zm-7.907 23.766c-3.966 1.729-8.983 2.618-9.23 4.273-.975 6.176-.395 12.562-.395 18.973h9.625z" fill="#113575"/><path fill-rule="evenodd" clip-rule="evenodd" d="M619.428 535.462c-2.816-5.472-5.214-11.216-8.55-16.329a30.04 30.04 0 0 1-5.09-19.85c.346-3.706.062-7.51.062-12.352l-12.046 1.902-48.369-84.846 74.252-3.878c.124 2.124.321 4.039.321 5.941v122.878c0 2.198-.395 4.385-.605 6.571zM605.554 418.81h-16.853v16.811h16.853zm-.075 43.627c-9.414-1.569-9.513-1.495-9.525 7.411v6.584c0 8.362 1.075 9.091 9.525 6.608zM120.634 264.914c.395-3.557.902-8.078 1.446-12.599.791-6.571 3.595-8.893 10.378-7.992-.815 6.041-1.235 12.18-2.546 18.121-1.556 6.855.891 11.882 5.116 16.971 9.884 11.908 11.415 11.957 19.767-1.161 3.213-5.089 6.178-10.375 9.44-15.39.865-1.31 2.705-1.952 4.114-2.903.791 1.458 2.063 2.853 2.323 4.41 1.148 7.275.098 13.97-5.646 19.343-4.115 3.841-7.932 7.992-11.972 11.895-3.003 2.903-3.707 5.892-2.941 10.24 3.064 16.996-2.038 32.115-12.429 45.48-1.717 2.186-4.868 3.434-7.574 4.619-5.325 2.335-8.29 6.041-8.377 12.007 0 2.334-1.013 4.656-1.556 6.978h-2.62a46.5 46.5 0 0 1-1.074-7.3c.173-13.253.555-26.507.803-39.761a41 41 0 0 0-.63-5.027c-3.707 1.482-7.327 2.298-10.242 4.163-4.856 3.125-9.724 3.211-14.122.185-8.043-5.558-15.74-11.66-23.4-17.762-1.088-.852-1.137-3.014-1.656-4.57 1.557-.124 3.212-.63 4.658-.285 5.844 1.409 8.08-.444 8.389-6.484.395-7.844-2.533-13.291-9.588-17.17-9.488-5.212-18.68-11.018-27.774-16.897-1.73-1.124-2.47-3.78-3.706-5.731 2.767-.569 5.584-1.73 8.302-1.52 1.952.148 3.806 2.075 5.647 3.298 5.856 3.891 11.601 7.955 17.544 11.722 5.942 3.768 8.475 2.384 9.155-4.718a74 74 0 0 1 2.915-15.922c.73-2.186 4.312-5.151 6.178-4.941a25.4 25.4 0 0 1 12.157 4.941c2.138 1.742.47 4.62-3.261 4.842-9.885.581-11.243 2.347-11.565 12.352-.296 8.832 2.854 15.625 10.403 20.307 4.943 3.063 9.884 6.176 14.826 9.165 3.176 1.89 5.634.889 6.177-2.73 1.138-7.547 4.375-15.465-3.705-21.653-1.237-.939-2.052-4.78-1.533-5.163 2.076-1.396 4.707-2.038 8.179-3.36m4.213 89.28c10.601-7.411 14.826-17.379 18.348-27.668 1.778-5.25 3.705-11.117-1.694-16.515-2.346 2.718-4.003 6.003-6.621 7.226-2.311 1.087-5.709-.136-10.033-.432zm-13.38-35.178c4.942.556 6.425-1.84 5.781-6.102-.197-1.322-.37-3.261-1.235-3.792-7.141-4.397-14.319-8.77-21.794-12.55-1.445-.728-4.435.828-6.276 2.001-.704.445-.84 3.261-.148 4.2 6.103 8.115 14.356 13.007 23.672 16.243m16.679-34.03-2.336.655c-.173 5.805-.741 11.635-.395 17.416.222 3.57 3.114 4.558 6.178 2.718 3.954-2.36 6.437-5.88 3.991-10.45-1.977-3.743-4.917-6.917-7.438-10.339M295.284 63.875c.42 4.508.815 9.017 1.297 13.513.84 7.806 4.139 9.462 10.724 5.286 3.559-2.248 7.017-4.68 10.415-7.164 7.302-5.373 9.204-12.438 5.758-20.875-1.656-4.076-4.51-3.841-7.092-1.432-3.781 3.532-7.129 7.51-10.638 11.265-4.942-3.558-4.868-6.646-1.235-9.882 3.286-2.964 6.449-6.09 9.97-8.733 5.993-4.508 8.822-10.166 7.882-17.713a24.3 24.3 0 0 1 0-7.2c.272-1.656 1.558-3.126 2.385-4.682 1.643 1.235 4.09 2.075 4.732 3.705.828 2.038.346 4.67.136 7.029-.371 3.99.618 5.645 5.078 4.385 7.82-2.224 10.947-.272 11.502 7.806.346 5.114-.84 10.339-1.235 15.502-.321 3.977-1.001 8.251 6.288 7.411l-.593 1.952c-2.718.963-5.497 1.754-8.117 2.94-2.618 1.185-5.275 2.853-7.895 4.298 2.163 1.791 4.349 3.545 6.475 5.36 4.633 3.953 10.353 7.202 13.59 12.069 5.436 8.201 2.286 16.984-6.362 21.826-5.351 3.001-9.379 6.929-9.551 13.513s2.829 9.882 9.477 9.178a74.7 74.7 0 0 0 13.466-3.014c10.18-3.027 20.287-6.325 30.43-9.474 1.445-.445 2.953-.68 4.806-1.1.865 6.967-2.532 11.117-7.648 13.427a88.4 88.4 0 0 1-18.816 5.941 542 542 0 0 1-38.041 5.818c-5.196.408-10.42.13-15.543-.828-6.289-.926-11.119.47-14.146 6.362-.371.716-.742 1.853-1.236 1.964-2.235.469-4.534.617-6.819.864.074-1.902-.544-4.261.346-5.62 5.115-7.843 5.152-7.757-3.262-11.265a26.2 26.2 0 0 1-7.413-4.805c-1.1-1-1.927-3.607-1.359-4.706s2.953-1.593 4.633-1.877c1.087-.186 2.323.741 3.472.704 2.384-.074 6.708-.111 6.819-.754.594-3.495 1.632-9.041-.173-10.462-9.525-7.411-9.451-16.7-7.733-27.175.852-5.25-.421-10.82 0-16.193.185-2.656 1.939-5.188 2.989-7.77zm22.732 19.911a13.3 13.3 0 0 0-3.113.976c-3.533 1.902-7.042 3.83-10.403 6.015-6.375 4.15-8.648 9.759-3.496 14.922 6.499 6.571 7.784 12.821 5.585 21.134-.421 1.594 1.902 4.867 3.705 5.83 1.805.964 5.82 1.063 7.006-.21 8.723-9.264 12.824-15.156 7.932-27.829-2.484-6.596-4.621-13.34-7.216-20.838m18.398 24.989c15.22-7.103 16.284-15.811 3.446-25.742a14.4 14.4 0 0 0-4.015-2.57c-1.792-.592-4.238-1.37-5.535-.605-1.075.655-1.618 3.595-1.235 5.176 2.26 8.016 4.867 15.872 7.339 23.741m4.163-60.241c-.346-2.026-.767-4.756-1.322-7.473-.705-3.41-3.522-3.879-5.214-1.915-1.964 2.273-3.707 5.793-3.484 8.646.234 3.15 2.644 6.176 4.497 9.054a9 9 0 0 0 4.806-2.31c.927-1.16.495-3.409.717-5.953zm-12.911 90.021c2.397-2.569 4.646-4.014 5.177-5.929.321-1.124-2.101-3.014-3.299-4.558-2.138 1.767-4.275 3.545-6.425 5.299zM69.188 492.92c7.697-1.804 15.518-3.187 22.98-5.682 2.026-.667 2.953-4.644 4.448-7.201 3.521 11.524 7.178 23.468 10.798 35.4-5.795-4.002-8.142-3.705-20.04 3.002.84 2.285 1.68 4.681 2.607 7.041.927 2.359 1.829 4.385 3.126 7.411 5.646-4.299 15.036-2.088 16.197-12.426 6.845 13.34 13.59 26.507 21.461 41.873-7.215-8.535-11.885-2.755-16.877 0a345 345 0 0 0-16.16 9.363c-5.56 3.446-6.87 8.387-3.99 13.896 3.026 5.768 8.425 8.177 14.096 5.299 8.12-4 15.963-8.539 23.474-13.587 2.126-1.458 2.224-5.855 3.101-8.449 7.278 9.882 15.16 20.442 23.031 31.065-5.759-4.941-9.353-.272-13.282 2.915-6.091 4.941-12.071 10.018-18.335 14.736-3.707 2.767-5.757 5.596-2.471 10.351l-1.594.494-14.27-17.638c5.276 3.359 8.772 1.099 12.565-2.187 6.523-5.657 13.331-11.005 20.114-16.354 3.014-2.384 5.202-4.941 2.113-8.461-2.744-3.174-5.523-6.485-10.637-3.187-6.08 3.903-12.454 7.337-18.756 10.87-8.648 4.941-14.999 3.471-20.62-4.78a37 37 0 0 1-4.053-8.029c-2.73-7.51-1.05-12.228 5.758-16.305 6.807-4.076 13.516-7.917 20.286-11.759 3.324-1.865 5.808-3.94 3.423-8.041-2.199-3.767-4.337-7.016-9.884-4.397-8.154 3.829-16.605 7.127-25.08 10.227-4.399 1.606-7.068 3.706-5.35 9.19l-1.767.087a3473 3473 0 0 0-8.883-21.678c9.995 8.226 15.864-1.174 24.104-2.013l-6.177-15.354c-6.326 5.052-17.149 2.186-19.286 13.921l-8.229-20.406c4.275 4.842 8.5 3.026 13.035 1.075a556 556 0 0 1 24.005-9.672c4.312-1.63 5.177-4.064 3.991-8.399-1.235-4.719-4.3-4.78-7.87-3.978-11.725 2.656-23.474 5.411-35.026 8.116-3.101-3.558-1.78-6.176.815-9.054a372 372 0 0 0 25.13-30.51c-9.439 2.15-18.99 3.941-28.219 6.781-1.902.569-2.606 5.028-4.2 8.425l-3.806-16.577c3.114 6.707 8.056 4.941 13.023 3.632 7.573-1.927 15.171-3.867 22.844-5.312 4.942-.938 8.438-2.47 7.536-9.017 5.857 9.734 5.51 14.823-1.062 22.234a6723 6723 0 0 1-18.953 21.641c.285.469.544.938.816 1.408m124.117-283.824c2.138-.84 4.535-1.322 6.351-2.619 1.606-1.161 3.422-3.15 3.57-4.941.124-1.408-1.902-3.854-3.397-4.261-1.125-.297-3.163 1.704-4.373 3.063-1.928 2.186-3.497 4.681-5.487 7.411-3.929-4.941-3.063-8.967.112-13.044 2.162-2.766 3.496-5.694-1.927-7.942a70 70 0 0 1-2.916 6.806c-.902 1.643-2.199 4.027-3.547 4.187-1.346.161-3.583-1.519-4.744-2.952a78 78 0 0 1-5.213-8.214 17.3 17.3 0 0 1-3.312 2.384c-1.519.556-3.928 1.544-4.633.902-1.408-1.235-3.051-3.891-2.607-5.373 1.101-3.706 2.472-8.029 5.215-10.561 5.559-5.2 10.155-10.709 12.651-17.96.408-1.235 1.705-2.125 2.767-3.397 7.66 5.262-2.705 13.859 4.571 19.529a25.7 25.7 0 0 1 3.126-4.595 34 34 0 0 1 5.016-3.385c.755 2.582 1.903 5.126 2.101 7.745.087 1.235-2.2 2.532-2.471 3.965-.309 1.729-.186 4.311.877 5.25.878.778 4.151.345 5.041-.68a29.7 29.7 0 0 0 6.041-9.56c.569-1.73-1.099-4.842-2.643-6.51-2.78-2.977-6.178-5.336-9.415-7.942.16-.642.321-1.235.469-1.902 3.596-.247 7.315 0 10.737-.877 2.694-.692 7.302-3.237 7.129-4.2-.865-4.496-3.101-8.733-4.83-13.068-2.472 1.939-5.178 3.594-7.13 5.916-1.025 1.235-.642 3.706-.951 5.929-7.61-6.991-20.941-47.629-17.297-53.966 4.386 9.808 8.549 19.109 13.257 29.645 3.706-4.471 6.177-7.831 9.081-10.684 1.408-1.371 3.707-1.791 5.671-2.644.679 1.977 2.162 4.064 1.903 5.905-1.026 7.065 1.062 12.104 6.856 16.625 2.472 1.915 2.99 6.658 3.707 10.252 1.235 5.88 3.052 7.412 9.019 6.399 5.128-.927 10.205-2.236 15.37-2.928 7.067-.938 11.823 2.224 13.479 8.239 1.037 3.817 0 5.744-4.201 5.83-7.413.173-14.825.321-22.239.853-6.598.481-8.216 2.841-7.302 9.535.472 2.356.781 4.741.927 7.14 0 1.408-.717 3.829-1.532 4.027a6.3 6.3 0 0 1-4.707-1.236c-2.941-2.396-5.473-5.286-8.303-7.818-.617-.556-1.829-.433-2.002-.47-1.618 4.793-3.532 9.091-4.398 13.587a10.3 10.3 0 0 0 1.891 7.078c1.704 2.359 4.682 3.706 6.646 5.991 1.236 1.359 1.496 3.483 2.2 5.262-1.977.333-4.262 1.445-5.894.815-4.201-1.606-7.289-2.866-6.041 3.878.173.952-1.544 3.237-2.323 3.2a84 84 0 0 1-9.97-1.396zm-15.394-33.252-2.051-.062c-1.235 2.224-3.225 4.41-3.36 6.707-.112 1.816 2.1 3.706 3.286 5.658 1.742-2.211 4.176-4.2 4.942-6.695.469-1.433-1.766-3.706-2.817-5.608m251.56 359.518c-.63 0-1.779.198-2.929.198h-50.185c.705-3.212 1.853-6.053 1.903-8.918.197-12.846.086-25.717.086-38.563v-6.954h48.679v31.905c0 5.015-.222 10.067.099 15.057.148 2.236 1.383 4.36 2.347 7.275M697.87 338.696c-6.363 3.187-10.279 2.137-13.776-2.397-6.178-8.028-7.141-8.065-15.629-2.544-6.288 4.101-10.131 2.878-12.442-4.472-2.902-9.251-2.47-18.528.161-27.866.581-2.001 1.236-4.595.482-6.25-3.039-6.398-.803-7.411 4.597-10.165 4.051 5.941 8.165 12.006 12.354 18.046 1.816 2.643 3.607 5.299 5.585 7.806 2.754 3.484 5.683 4.484 9.735 1.347 2.064-1.594 5.164-1.964 7.883-2.532 4.077-.84 4.435-2.928 2.323-5.954-2.471-3.595-5.128-7.103-7.648-10.586 3.361-3.94 6.412-3.829 9.402-.407a38 38 0 0 1 4.472 5.632c5.671 9.882 15.024 13.513 25.402 15.218 2.249.37 5.77-.42 6.981-1.989 1.21-1.569.766-5.126-.309-7.102a100.8 100.8 0 0 0-28.145-33.277c-5.213-3.952-10.513-4.52-16.135-.877a80 80 0 0 1-10.292 6.176 13.4 13.4 0 0 1-7.672 1.038c-1.99-.408-4.646-2.335-5.078-4.076-.333-1.322 1.939-4.101 3.707-5.04 6.337-3.397 12.898-6.398 19.458-9.363 4.769-2.174 9.402-1.371 13.727 1.384a105.23 105.23 0 0 1 36.755 38.995c2.781 5.138 5.141 11.03.42 16.28-4.941 5.472-11.427 4.941-17.902 3.261a3.7 3.7 0 0 1-1.68-.618c-10.119-9.955-20.287-3.928-30.369-.061-6.115 2.346-6.597 4.261-3.051 9.881 2.063 3.385 4.226 6.633 6.684 10.512m-40.141-28.966c1.062 3.866 1.482 7.56 3.1 10.635.903 1.68 4.943 3.706 5.573 3.162 2.001-1.618 4.3-4.508 4.139-6.719-.235-3.15-2.187-6.423-4.126-9.128-1.336-1.828-3.917-2.767-5.919-4.113a947 947 0 0 0-2.767 6.163M439.157 714.788h16.173c-6.35 2.73-6.042 7.177-5.646 11.834.58 6.991 1.099 14.019 1.235 20.998.136 6.818-2.952 11.389-9.587 12.723a46 46 0 0 1-16.062.407c-6.103-.976-8.648-5.842-8.945-11.932-.383-7.819-.926-15.625-1.494-23.469-.223-3.1-.755-6.744-4.857-6.064-3.545.568-8.265.259-8.5 6.287-.42 10.029-1.643 20.01-1.877 30.04 0 2.47 2.372 5.052 3.929 8.14l-21.485-1.384c10.674-5.373 5.411-14.612 8.475-22.431-5.98-.445-10.848-.828-15.617-1.235-3.793 13.031-2.953 18.738 3.015 23.246l-21.275-1.358c5.25-2.273 5.559-6.374 5.757-10.944.346-7.819 1.235-15.613 1.816-23.469.359-4.644 1.47-9.696-6.795-10.129.494-.531 1.001-1.037 1.495-1.556l21.979 1.495c-6.449 4.817-6.474 4.94-6.177 20.109 4.756.457 9.612.901 15.246 1.42-.519-7.325 4.942-14.501-4.423-20.862h43.983c-6.819 2.211-5.003 8.078-4.447 13.661.654 6.596.864 13.229 1.605 19.763.742 6.534 4.115 9.227 10.404 9.19s10.959-3.347 10.959-9.499a234 234 0 0 0-1.866-28.78c-.272-1.927-4.003-3.57-7.018-6.201m175.626-547.737c-10.131-4.718-17.148-11.351-13.256-24.704a23 23 0 0 1 3.941 2.372c1.322 1.235 2.075 3.211 3.533 4.051 5.325 3.051 10.613 7.004 16.383 8.042 2.706.481 6.894-4.546 9.637-7.733 5.028-5.805 11.119-11.117 10.872-20.072 0-1.383 3.459-4.323 4.114-4.002 2.298 1.087 4.943 2.965 5.783 5.176a9.97 9.97 0 0 1-.878 7.411 146 146 0 0 1-9.76 15.057 89 89 0 0 1-7.265 7.967c10.897 7.053 15.234 6.497 16.494-2.878 1.545 1.68 2.656 2.816 3.706 4.027a83 83 0 0 1 6.178 7.757 14.4 14.4 0 0 1 2.607 6.645c.197 4.212-2.026 5.472-6.264 4.2-9.786-2.928-19.608-5.744-29.541-8.017-2.471-.556-5.634.643-8.08 1.853-7.882 3.866-15.333 8.795-23.475 12.043-7.82 3.125-13.948 1.396-16.716-3.508-1.235-2.174-1.173-5.089-1.704-7.67 2.94-.358 6.177-1.742 8.722-.865 8.834 3.224 19.287.655 24.969-7.152m-102.311-38.759 24.339 7.411c-3.707 7.3-8.006 13.39-14.455 17.774-3.879 2.644-8.253 2.878-11.774-.123-4.362-3.706-7.932-8.375-12.108-12.352a9.8 9.8 0 0 0-5.621-2.853c-5.252-.223-10.305-.383-15.136 3.471-4.089 3.273-9.611-.309-14.244-8.239a20 20 0 0 1 3.706-1.137c6.511-.605 10.304-5.397 9.254-11.895-.161-.988-1.013-2.186-.667-2.853a15.9 15.9 0 0 1 3.842-5.447c.445-.371 3.088 1.606 4.411 2.828a9.1 9.1 0 0 1 1.581 3.2c1.075 2.47 1.544 6.336 3.299 7.04 3.151 1.235 7.524 1.742 10.575.531 5.425-2.161 6.178-8.028 6.87-14.069-2.002.939-4.312 1.507-5.955 2.866-4.114 3.459-6.178.371-8.29-2.31-2.36-3.063-1.323-5.743 1.828-7.51 6.635-3.705 13.208-7.62 20.114-10.783 4.732-2.174 8.649.284 11.193 4.496 2.546 4.212-.494 6.423-3.705 8.647-9.132 6.176-11.454 16.613-15.333 25.939-1.334 3.15 4.238 10.005 7.759 10.054a7.3 7.3 0 0 0 5.127-2.211c.63-.741-.185-3.372-1.075-4.619a72 72 0 0 0-5.98-6.646zm124.464 530.256c-2.879-8.066-5.413-16.256-8.872-24.05-.927-2.075-4.744-2.841-7.301-4.261 4.658-5.262 10.402-11.673 16.061-18.145 5.659-6.473 11.329-12.97 17.445-19.998l11.96 9.77-.507 1.149c-1.235-.099-2.471-.222-3.632-.309-3.163-.234-6.882-1.593-9.378-.42a29.2 29.2 0 0 0-10.093 8.548c-.532.692 3.286 5.052 5.423 7.411a55 55 0 0 0 5.931 5.064c5.424-4.137 3.929-8.967 3.31-14.538l13.06 11.376c-5.412.297-10.489-.802-14.011 5.398 4.04 3.471 7.87 7.276 12.256 10.277 1.236.865 4.683.284 6.092-.902 5.053-4.175 6.35-11.623 3.706-18.219-.704-1.803-1.532-3.582-2.298-5.373l1.346-1.235 12.43 11.463c-9.353 10.758-18.372 21.146-27.403 31.509 3.472-7.411-2.607-10.005-6.487-13.476-5.856-5.212-11.737-10.388-17.779-15.353-1.544-1.235-3.706-1.729-5.645-2.545-1.064 2.471-2.892 4.941-2.966 7.412s1.458 5.348 2.396 7.991c3.448 9.61 7.043 19.171 10.33 28.855.58 1.729-.099 3.878-.21 5.842-2.089-.284-4.547 0-6.178-.976-9.884-5.842-19.372-12.154-29.207-17.972-2.668-1.581-5.967-2.1-9.797-3.372l15.703-13.155 2.1.185c-6.918 5.991-2.359 8.227 1.742 10.771 6.461 4.002 12.837 8.128 19.261 12.179.383-.321.791-.617 1.212-.901M520.342 64.851l14.986 6.04c-2.644 1.236-4.324 1.791-5.597 2.804-1.272 1.013-2.718 2.78-2.409 3.447 2.656 5.867-1.804 6.546-5.374 7.41-4.028.952-8.179 1.236-12.281 1.903-.235-.568-.494-1.136-.741-1.692a39 39 0 0 0 4.67-3.632c1.778-1.865 3.249-4.014 4.843-6.052-3.213-1.643-6.783-5.09-9.575-4.546-5.337 1.038-11.948 1.087-14.468 8.387-.704 2.075-4.683 4.237-7.079 4.126-1.829-.087-4.584-3.434-5.066-5.72-2.211-10.461-7.413-10.325-15.369-5.916a7 7 0 0 1-1.595.828c-3.211.753-6.572 5.509-9.587-.284-3.262-6.287-1.853-10.45 3.225-13.773 7.636-4.94 14.825-10.709 22.239-16.057 2.755-1.99 5.485-6.423 9.068-2.878a9.176 9.176 0 0 1 1.063 12.191 50.7 50.7 0 0 1-8.216 7.819c-3.064 2.618-2.743 4.632.741 6.3 2.892 1.37 5.794 2.754 8.772 3.903 4.361 1.692 7.179.481 8.71-4.299a8.5 8.5 0 0 1 4.498-4.447 204 204 0 0 1 19.521-7.226c2.223-.679 4.941.235 7.413.408a34 34 0 0 1-4.238 5.657c-2.002 1.767-4.498 2.965-8.154 5.3m-40.969 566.03c2.632 5.559 6.474 10.882 7.573 16.725 1.385 7.325-4.435 13.587-12.194 15.465-8.896 2.235-17.976-.754-21.337-7.016a12.6 12.6 0 0 1 3.509-16.144c1.668-1.347 3.497-2.471 6.092-4.262a80 80 0 0 1-6.586-5.83c-4.398-4.854-4.942-10.944-1.643-16.058 5.35-8.312 21.473-9.819 28.329-2.631 4.331 4.44 4.24 11.548-.2 15.878a11 11 0 0 1-.269.254c-1.581 1.507-3.373 2.742-5.065 4.101zm-13.591 6.658a18.45 18.45 0 0 0-2.841 18.75c.877 2.36 4.831 4.706 7.561 4.941 4.126.371 6.178-3.1 6.338-7.176.21-7.869-4.88-12.105-11.156-16.515zm7.018-7.757 3.448-1.013c.21-4.755 1.037-9.597.481-14.267-.556-4.669-3.706-7.262-8.648-5.62-4.633 1.544-6.326 5.596-4.226 9.623s5.807 7.547 8.846 11.277zm239.291-58.773c5.3 3.916 6.177 7.251 3.261 12.241s-6.881 6.509-12.096 4.076c-2.161-1.013-4.126-2.47-6.276-3.533-4.102-2.025-7.685-1.679-10.304 2.471 7.759 8.906 14.666 11.314 21.362 7.868a1817 1817 0 0 0-12.206 18.726c1.346-6.102-2.052-8.82-6.413-11.438-6.535-3.904-12.923-8.091-19.175-12.463-4.152-2.891-8.005-5.299-12.479.123l-.902-1.445c5.66-8.115 10.935-16.539 17.112-24.235 4.349-5.422 10.119-5.817 15.024-2.47 4.682 3.137 5.621 7.572 3.015 14.464-.395 1.075-.865 2.125-1.928 4.694 6.091-5.102 11.552-4.867 17.297-2.989 1.73.568 3.78.21 5.684.271a358 358 0 0 0-.976-6.361m-28.59 14.452 2.409-.148c.37-3.706 2.175-8.128.729-10.858-1.557-2.939-5.955-5.15-9.501-5.953-1.915-.433-5.238 2.309-6.733 4.459-.618.864 1.433 4.471 3.088 5.879 3.015 2.582 6.635 4.447 10.008 6.621m-322.86 77.695c10.7-3.706 18.372-9.882 20.719-22.011a12.7 12.7 0 0 0-2.322 0c-9.625 2.273-16.062-.383-18.978-7.856-3.632-9.474.26-20.937 8.538-25.099 7.684-3.879 16.654-1.421 21.707 5.941 7.03 10.252 4.942 27.705-4.559 37.97-6.771 7.337-15.345 10.647-25.105 11.055m21.967-35.314.791-.161c-1.236-5.237-2.064-10.586-3.706-15.65-.507-1.544-3.176-2.989-5.042-3.273-1.062-.161-3.619 2.112-3.594 3.248a178 178 0 0 0 1.704 22.975c.21 1.421 4.337 2.89 6.722 3.026.963 0 2.396-3.372 3.075-5.385.445-1.433.05-3.175.05-4.78m57.451-20.506c-2.854 10.129-2.854 10.129-11.65 10.129-3.213 0-6.437.173-9.649 0-3.929-.272-5.498 1.581-5.436 5.756 3.582.716 7.288 1.235 10.859 2.174 12.75 3.508 19.015 13.451 15.469 24.259s-17.618 17.231-28.8 12.908c-3.039-1.235-6.659-2.68-4.67-6.818s5.374-2.471 8.303-.84c2.47 1.346 4.67 3.619 7.252 4.138 2.841.593 6.931.741 8.772-.865a11.83 11.83 0 0 0 3.225-8.869c-.569-6.237-5.375-9.881-10.897-11.672-5.275-1.767-10.861-2.471-16.889-3.866 2.73-7.782 5.473-15.885 8.512-23.877a4.76 4.76 0 0 1 3.46-2.47c7.19-.21 14.393-.087 22.139-.087" fill="#113575"/><path fill-rule="evenodd" clip-rule="evenodd" d="M134.669 142.125c6.079 7.041 6.993 15.341 7.178 23.333.186 7.732 2.471 12.97 9.007 17.564 3.83 2.681 5.3 8.647 8.228 12.772a13.84 13.84 0 0 0 5.313 4.064c1.693.828 4.497.148 5.597 1.235 8.797 9.215 17.297 18.689 25.352 28.768-5.165 2.026-9.069 1.235-12.107-2.655-4.065-5.225-8.18-10.438-12.108-15.774-2.472-3.31-4.806-4.385-8.476-1.643-3.966 2.977-6.709 1.347-8.179-3.026a20.3 20.3 0 0 1-1.087-4.039c-.915-8.56-4.943-13.946-13.9-15.786-2.038-.432-4.794-3.891-4.942-6.065-.58-12.204-.457-24.444-.543-36.673a10.3 10.3 0 0 1 .667-2.075m395.718 549.48c9.377-8.523 13.59-9.165 22.967-4.361q12.491 6.449 25.019 12.884l1.348-.927c-3.818-7.263-7.315-14.736-11.688-21.653-.976-1.532-5.053-1.124-8.958-1.828l14.023-7.411c-4.497 6.275 0 10.833 2.298 15.588 4.522 9.128 9.217 18.182 14.826 29.262-4.213-.309-7.327.309-9.637-.815-11.7-5.658-23.203-11.747-35.83-16.923 1.743 3.595 3.46 7.226 5.226 10.796 1.582 3.249 3.485 6.361 4.832 9.684 2.199 5.423 5.016 9.239 12.021 5.719l.112 1.643-14.679 7.559c4.399-4.656 2.669-8.745.198-13.216a357 357 0 0 1-10.415-20.332c-2.236-4.632-4.337-8.856-11.663-5.669m-234.09 56.164c-1.643-2.05-3.979-3.841-4.794-6.176-3.632-10.388-6.82-20.998-10.206-31.423a12.35 12.35 0 0 0-3.434-5.657c-2.99 9.152-6.338 18.206-8.648 27.52-.458 1.84 3.125 4.681 5.374 7.806l-16.21-5.435c6.858.408 8.081-4.261 9.513-9.004a512 512 0 0 1 7.241-22.234c1.63-4.694 2.94-9.054-5.239-11.512 12.355-.16 16.865 2.915 19.768 12.019 2.582 7.991 5.14 16.057 7.759 23.987.469 1.433 1.149 2.792 2.261 5.46 2.841-8.647 5.695-15.91 7.413-23.469.531-2.335-2.014-5.386-3.459-8.819l14.121 4.545c-6.177 1.174-7.747 5.571-9.229 10.512-3.114 10.326-6.647 20.541-10.007 30.781-.767.346-1.496.704-2.224 1.099m47.269-32.511c-10.55-4.731-15.727-3.027-24.313 6.756 1.124-4.755 2.26-9.523 3.483-14.674l33.173 7.078c-3.026 8.757-10.328 13.192-15.517 19.269-5.19 6.077-10.799 11.648-16.383 17.639 9.995 4.422 15.406 2.371 25.81-8.536-1.112 4.818-2.027 9.709-3.534 14.39-.272.877-3.04 1.643-4.423 1.384-10.007-1.964-19.954-4.224-32.123-6.843a5287 5287 0 0 1 16.901-18.528c5.388-5.867 11.194-11.858 16.926-17.935m378.149-149.299-13.454-6.336c.136-.618.259-1.236.383-1.841 2.879 0 5.769.136 8.648 0 6.969-.358 12.355-4.36 12.837-10.351a9.95 9.95 0 0 0-2.977-7.609c-1.496-1.235-5.449-.778-7.413.408-3.546 2.149-6.376 5.447-9.564 8.177-8.178 7.053-14.64 7.288-20.533.852-5.165-5.657-4.225-15.403 1.791-21.85 2.138-2.273 3.583-5.176 5.955-8.647l11.676 5.484c0 .495-.124.964-.186 1.446-2.581.123-5.176.16-7.771.37-6.177.494-11.045 4.422-11.205 9.734a8.96 8.96 0 0 0 2.705 6.62c1.372 1.062 4.793.791 6.536-.222a45 45 0 0 0 8.204-6.942c8.487-8.14 15.319-9.437 21.608-3.977s6.177 15.02 0 23.469c-2.31 3.223-4.361 6.719-7.24 11.215m-14.814-79.657c2.867-14.612 5.511-28.125 8.315-42.404l15.184 2.767c-5.818 4.039-14.158 3.829-15.406 13.587 10.539 2.038 20.941 3.804 31.233 6.114 5.226 1.235 9.649 1.853 10.934-5.768l1.471 1.235-4.67 24.111-1.558.309c1.237-6.93-2.68-8.548-8.006-9.45-10.439-1.717-20.806-3.829-31.393-5.83-2.533 9.215 4.658 12.463 9.883 16.799l-.827 1.433zM146.443 112.246a69 69 0 0 1 4.424 5.657c2.903 4.558 5.411 9.387 8.537 13.785 1.112 1.581 4.053 3.483 5.251 2.989a7.68 7.68 0 0 0 4.04-5.312c.556-5.113.185-10.338.185-15.773a15.47 15.47 0 0 1 8.118 14.946c-.667 8.127-.84 16.304-1.235 24.457a13.37 13.37 0 0 1-2.2 7.189c-1.828-3.607-3.645-7.214-6.066-11.982-3.04 3.113-5.61 5.707-8.142 8.338-4.275 4.471-7.327 3.989-9.983-1.631-2.582-5.422-2.557-9.597-.309-12.685l7.895 2.693c-.667-2.965-.828-6.176-2.1-8.844-2.471-5.052-5.672-9.709-8.154-14.749-1.237-2.47-1.471-5.385-2.163-8.103zM89.487 423.591a47.5 47.5 0 0 1-4.942 3.533C74.179 432.83 63.69 438.24 53.41 444.145c-3.063 1.754-5.596 4.471-8.957 7.201-.667-7.028-1.371-14.563-1.977-20.998 2.471 1.445 5.424 4.397 7.08 3.816 4.09-1.445 10.168-2.68 7.882-9.597-1.235-3.879 1.928-9.561-5.09-11.265s-8.401-1.235-10.625 5.966a7223 7223 0 0 0-1.594-15.366c6.264 2.73 12.355 5.768 18.631 8.029 9.958 3.557 20.102 6.608 30.146 9.881.235.581.408 1.174.581 1.779m-13.763-3.063-15.778-4.941c.334 4.57.606 8.165.94 12.797zm177.442 257.376c0 1.915.099 3.817 0 5.707-.631 10.61-1.52 21.208-1.891 31.819-.185 4.94.605 9.782.976 14.921l-19.014-9.622c3.348-.754 7.413 1.037 7.932-4.361.506-4.879 1.371-9.881-5.115-11.512-3.385-.827-5.795-5.533-10.205-2.47-6.66 4.644-6.994 7.177-1.878 13.587a2025 2025 0 0 0-14.023-7.164c5.424-3.631 10.798-6.781 15.666-10.573 7.252-5.707 14.134-11.871 21.201-17.8 1.457-1.235 3.027-2.334 4.559-3.495zm-10.342 11.747a39 39 0 0 1-1.433-.889l-11.119 9.622 11.391 5.756c.494-5.509.803-9.993 1.161-14.489m241.799 16.958q10.502-3.446 21.004-6.867c-5.51 3.779-4.448 8.189-2.682 13.056 2.472 6.966 4.559 14.106 7.043 21.085 2.249 6.336 6.462 8.547 12.614 7.04 6.154-1.507 9.884-6.176 8.253-12.562a209 209 0 0 0-8.463-26.235c-.877-2.211-4.756-3.212-7.932-5.201l14.147-4.57c-4.597 4.434-3.583 8.733-1.804 13.587 2.471 6.757 4.46 13.699 6.487 20.616 1.692 5.768-.26 10.783-5.289 13.389a47.6 47.6 0 0 1-15.764 5.065c-5.635.704-9.946-2.471-11.812-8.227-2.286-7.04-4.608-14.081-6.906-21.122-1.421-4.31-1.927-9.548-9.884-7.065.334-.692.679-1.371.988-1.989m267.795-454.195c1.148 4.484 2.249 7.312 2.57 10.215 1.075 9.684 6.461 16.132 14.714 20.616a31 31 0 0 1 4.102 2.532 7.41 7.41 0 0 1-1.235 12.747c-8.142 4.15-24.908-2.47-27.799-11.03a15.2 15.2 0 0 1 0-3.842 71 71 0 0 0 8.142 3.064c1.822.228 3.664.228 5.486 0-.618-1.754-.767-4.003-1.965-5.164a106 106 0 0 0-9.365-7.522c-5.894-4.558-6.178-7.102-1.557-12.883zm-34.78 160.577c.309-3.953.679-8.832 1.063-13.686 9.612 10.87 20.15 18.899 34.804 19.763 6.103.346 6.103.26 10.093-5.175q-.964 11.697-1.914 23.37c-2.953-7.202-8.525-10.969-17.976-8.437-9.786 2.644-19.954 5.534-28.652 13.896.618-7.72 1.236-14.489 1.73-21.245 1.878 6.658 5.869 4.941 9.883 3.112 3.707-1.667 7.574-3.26 12.714-5.471-5.535-3.335-9.748-6.411-14.406-8.375-1.593-.716-4.374 1.247-7.339 2.248M317.522 614.564l18.929-8.646v19.763c0 9.215.074 18.417 0 27.631 0 4.447 1.025 7.918 6.103 8.857h-22.066c1.235-2.273 4.151-5.114 4.312-8.128.605-10.573.173-21.208.321-31.818.086-5.238-1.655-8.165-7.599-7.659m-127.885 20.331 17.754 14.822c-7.289-3.187-9.625 2.73-12.899 6.534-4.349 4.941-8.5 10.178-12.849 15.181-3.904 4.484-8.537 6.485-14.479 3.977-7.154-3.026-12.948-9.881-12.775-15.39.185-5.744 5.398-10.265 9.303-7.634 1.914 1.322 3.632 5.101 3.15 7.275-.705 3.163-3.879 4.398-7.203 2.162-.778-.519-1.582-1.025-2.36-1.532l-1.606 1.421c2.261 2.618 4.09 5.929 6.895 7.67 3.594 2.248 6.794 0 9.327-3.038 5.103-6.176 10.168-12.463 15.555-18.429 3.57-3.916 5.992-7.56.593-12.352zM469.155 98.412c-4.138 5.101-7.932 9.152-10.885 13.747-1.074 1.655-.555 6.559 0 6.67 2.997.528 6.059.574 9.07.136.803-.074 1.482-1.544 2.804-1.915-1.112 5.336-3.707 10.117-9.069 11.624a56 56 0 0 1-15.975 1.494c-1.482 0-4.089-3.038-4.052-4.619.061-2.014 2.051-4.2 3.706-5.843.816-.815 3.027-.16 3.954-.939a10.3 10.3 0 0 0 3.546-4.94c.235-1.038-1.618-2.928-2.941-3.842-3.052-2.112-8.414-2.236-6.93-8.016 1.593-6.176 6.646-3.483 10.526-3.706 3.583-.272 7.166-.79 10.749-.79 1.86.114 3.704.429 5.497.939M211.133 652.176l19.423 13.587c-3.448.198-6.4-.395-8.402.704-2.001 1.1-3.262 3.953-4.769 6.09-4.287 6.065-8.376 12.278-12.849 18.231-2.928 3.867-5.04 7.412.531 11.426l-1.556.963-18.891-13.204c6.462 2.125 8.982-1.976 11.75-6.089 4.46-6.683 9.179-13.192 13.775-19.764 3.88-5.558 3.88-5.57.988-11.944m364.015 13.391a5680 5680 0 0 0 18.36-12.809c-3.645 5.138-1.088 8.77 1.767 12.648 4.657 6.287 9.192 12.661 13.442 19.22 2.656 4.125 5.288 7.411 11.292 5.904-6.115 4.311-12.231 8.585-18.346 12.883 4.941-6.349-.198-10.326-3.114-14.625-4.065-5.966-8.401-11.746-12.355-17.774-2.632-4.002-5.189-7.411-11.12-3.273.062-.729.062-1.458.074-2.174m123.129-156.279q3.633-10.622 7.278-21.245c-.087 7.028 5.053 8.041 9.957 9.585 7.241 2.285 14.444 4.731 21.548 7.411 4.436 1.68 8.513 3.31 10.921-3.841.396.58.779 1.161 1.237 1.729a2709 2709 0 0 0-7.315 21.492c.358-7.201-4.942-8.152-9.773-9.733-7.412-2.396-14.739-5.101-22.103-7.658-6.325-2.162-6.338-2.137-11.75 2.26m-65.802-300.463c-.075 12.599-6.647 18.108-14.888 15.045-4.213-1.582-6.276-4.385-4.447-8.894 3.001-7.411 5.263-14.699 1.852-22.653-.358-.828 1.149-3.298 2.274-3.706 4.09-1.556 10.143 1.149 11.428 5.262 1.78 5.682 2.953 11.561 3.781 14.946m112.269 36.005c-6.053.593-8.784 3.705-10.588 8.77-.642 1.84-5.622 3.767-7.808 3.075a17.3 17.3 0 0 1-9.352-6.917c-1.051-1.815.914-6.633 2.939-8.745 4.189-4.373 20.127-2.05 24.809 3.817m-330.52 188.801v8.548h16.062v1.643c-5.46 2.161-12.219-1.619-17.544 2.878-4.077-3.471-15.926-3.397-18.372-.914-6.992-.779-12.738-1.396-18.532-2.051V442.5h15.814v-8.622l-9.402 2.088-5.72-2.471c4.101-5.583 11.725 3.039 16.345-3.051 3.88 3.348 6.425 3.323 9.822-.296 3.336 3.483 6.709 4.36 9.539.766 2.285.716 4.719 2.347 5.967 1.692 4.225-2.186 7.796-.173 11.577.741l-6.314 2.755zm-19.768 8.202h16.927v-8.486l-8.068 2.755-8.908-2.471zm-194.491 71.616h8.093v19.837c-7.611 1.865-8.043 1.556-8.081-5.879-.024-4.558-.012-9.129-.012-13.958m397.521.852h7.512v19.763h-7.512zm-204.153-54.162c3.298 4.162 15.666 4.224 19.175-.112 4.941 5.954 12.132 1.149 18.915 4.027-7.19 1.137-13.59 3.706-19.335 2.619a44 44 0 0 0-18.273 0c-5.746 1.149-12.281-1.52-19.114-2.606 6.067-3.002 13.245 1.679 18.632-3.928M213.654 183.664l9.229 5.398c-1.235 1.371-2.47 4.002-3.533 3.89-4.089-.432-6.795-2.865-7.092-7.139zm215.063 290.373H377.32v-.396h51.397zm169.708 24.381 5.795 10.191h-6.869v-9.882zm-390.491 9.475h-6.647l6.647-11.858zM372.032 414.5v12.352h-1.358V414.5z" fill="#113575"/></svg>