<svg data-name="Layer 1" xmlns="http://www.w3.org/2000/svg" viewBox="0 0 531.3 58"><path d="M36.3 7.2c0 4-3.2 7.2-7.2 7.2s-7.2-3.2-7.2-7.2S25.1 0 29.1 0s7.2 3.2 7.2 7.2m0 21.8c0 3.9-3.2 7.2-7.2 7.2S21.9 33 21.9 29s3.2-7.2 7.2-7.2 7.2 3.2 7.2 7.2m-21.9 0c0 3.9-3.2 7.2-7.2 7.2S0 33 0 29s3.2-7.2 7.2-7.2 7.2 3.2 7.2 7.2" style="stroke-width:0;fill:#6cace4"/><path d="M58.1 29c0 3.9-3.2 7.2-7.2 7.2S43.7 33 43.7 29s3.2-7.2 7.2-7.2 7.2 3.2 7.2 7.2M36.3 50.8c0 3.9-3.2 7.2-7.2 7.2s-7.2-3.2-7.2-7.2 3.2-7.2 7.2-7.2 7.2 3.3 7.2 7.2m42.9-29.6-2.2 7h4.5zM84 36.1l-1.5-4.8H76l-1.6 4.8h-3.9l7-19.4h3.3l7 19.4zm16.5 0L94 26.9v9.2h-3.7V16.8H94v9l6.1-9h4.3l-6.7 9.4 7 9.9zm6.8 0V16.8h11.8v3.1H111v4.8h6.6v3.1H111V33h8.5v3.1zm21.9-16.2h-2.4v5.3h2.4c2.3 0 3.4-.8 3.4-2.8 0-1.8-1-2.5-3.4-2.5m3.9 16.2-4.4-7.7h-1.8v7.7h-3.7V16.8h6.5c2.8 0 4.1.4 5.3 1.4 1.1 1 1.6 2.4 1.6 4.2s-.4 2.7-1.1 3.6-1.4 1.3-3 1.8l4.8 8.3zM151 21.4c-2.1-.9-3.7-1.4-5-1.4s-2.8.7-2.8 1.8.5 1.3 1.8 2.1c3 1.6 4.9 2.8 5.8 3.7.8.8 1.3 2.1 1.3 3.5 0 3.5-2.5 5.5-6.8 5.5h-1.7c-1.4-.2-2-.4-4-1.3l-1.3-.6 1.6-3.4c1.4.8 2 1.1 2.8 1.3 1 .4 2 .6 2.8.6 1.7 0 2.8-.8 2.8-1.9s-.4-1.4-1.7-2.1l-3-1.7c-3.4-2-4.5-3.3-4.5-5.4s.3-2 .8-2.7c.3-.5.8-1 1.4-1.4 1.4-1 2.6-1.3 4.9-1.3s2.4.1 3.6.5c.9.3 1.5.5 2.8 1.1l-1.6 3.2Zm18.6 14.7v-8.3h-9.9v8.3H156V16.8h3.7v7.7h9.9v-7.7h3.7v19.4h-3.7Zm22-1c-1.4 1-3.1 1.4-5.5 1.4s-4-.4-5.5-1.4c-2-1.4-2.6-3-2.6-6.5V16.8h3.7v12c0 2.9 1.5 4.3 4.6 4.3s4.3-1.5 4.3-4.3v-12h3.7v11.8c0 3.5-.6 5.1-2.7 6.5m18.2-13.7c-2.1-.9-3.7-1.4-5-1.4s-2.8.7-2.8 1.8.5 1.3 1.8 2.1c3 1.6 4.9 2.8 5.8 3.7.8.8 1.3 2.1 1.3 3.5 0 3.5-2.5 5.5-6.8 5.5h-1.7c-1.4-.2-2-.4-4.1-1.3l-1.3-.6 1.6-3.4c1.4.8 2 1.1 2.8 1.3 1 .4 2 .6 2.8.6 1.7 0 2.8-.8 2.8-1.9s-.4-1.4-1.7-2.1l-3-1.7c-3.4-2-4.5-3.3-4.5-5.4s.3-2 .8-2.7c.3-.5.8-1 1.4-1.4 1.4-1 2.6-1.3 4.9-1.3s2.4.1 3.6.5c.9.3 1.5.5 2.8 1.1l-1.5 3.2Zm25.4 13.7c-1.4 1-3.1 1.4-5.5 1.4s-4-.4-5.5-1.4c-2-1.4-2.6-3-2.6-6.5V16.8h3.7v12c0 2.9 1.5 4.3 4.6 4.3s4.3-1.5 4.3-4.3v-12h3.7v11.8c0 3.5-.7 5.1-2.7 6.5m20.3 1.2-8.3-12.5-.6-1.2c-.1-.2-.2-.4-.3-.7v14.2h-3.5V16.8h4.3l7.8 12.3c.6.9.8 1.5 1 2.1V16.8h3.5v19.5zm9.3-19.5h3.7v19.4h-3.7zm16.1 19.9h-2.6l-7.2-19.9h4l4.4 13.1c.1.3.2.6.2.9 0-.3 0-.5.2-.9l4.2-13.1h3.9zm9.9-.6V16.8h11.8v3.1h-8.1v4.8h6.6v3.1h-6.6V33h8.5v3.1zm21.9-16.2h-2.4v5.3h2.4c2.3 0 3.4-.8 3.4-2.8s-1-2.5-3.4-2.5m3.9 16.2-4.4-7.7h-1.8v7.7h-3.7V16.8h6.5c2.8 0 4.1.4 5.3 1.4 1.1 1 1.6 2.4 1.6 4.2s-.4 2.7-1.1 3.6-1.4 1.3-3 1.8l4.8 8.3zm17.9-14.7c-2.1-.9-3.7-1.4-5-1.4s-2.8.7-2.8 1.8.5 1.3 1.8 2.1c3 1.6 4.9 2.8 5.8 3.7.8.8 1.3 2.1 1.3 3.5 0 3.5-2.5 5.5-6.8 5.5h-1.7c-1.4-.2-2-.4-4-1.3l-1.3-.6 1.6-3.4c1.4.8 2 1.1 2.8 1.3 1 .4 2 .6 2.8.6 1.7 0 2.8-.8 2.8-1.9s-.4-1.4-1.7-2.1l-3-1.7c-3.4-2-4.5-3.3-4.5-5.4s.3-2 .8-2.7c.3-.5.8-1 1.4-1.4 1.4-1 2.6-1.3 4.9-1.3s2.4.1 3.6.5c.9.3 1.5.5 2.8 1.1l-1.6 3.2Zm4.8-4.6h3.7v19.4h-3.7zm16 3.1v16.2h-3.7V19.9h-5.8v-3.1h15.3v3.1zm8.8 16.2V16.8h11.8v3.1h-8.1v4.8h6.6v3.1h-6.6V33h8.5v3.1zM387 19.9v16.2h-3.7V19.9h-5.8v-3.1h15.3v3.1zm19.4 1.5c-2.1-.9-3.7-1.4-5-1.4s-2.8.7-2.8 1.8.5 1.3 1.8 2.1c3 1.6 4.9 2.8 5.8 3.7.8.8 1.3 2.1 1.3 3.5 0 3.5-2.5 5.5-6.8 5.5H399c-1.4-.2-2-.4-4-1.3l-1.3-.6 1.6-3.4c1.4.8 2 1.1 2.8 1.3 1 .4 2 .6 2.8.6 1.7 0 2.8-.8 2.8-1.9s-.4-1.4-1.7-2.1l-3-1.7c-3.4-2-4.5-3.3-4.5-5.4s.3-2 .8-2.7c.3-.5.8-1 1.4-1.4 1.4-1 2.6-1.3 4.9-1.3s2.4.1 3.6.5c.9.3 1.5.5 2.8 1.1l-1.6 3.2Zm15.7 0c-2.1-.9-3.7-1.4-5-1.4s-2.8.7-2.8 1.8.5 1.3 1.8 2.1c3 1.6 4.9 2.8 5.8 3.7.8.8 1.3 2.1 1.3 3.5 0 3.5-2.5 5.5-6.8 5.5h-1.7c-1.4-.2-2-.4-4-1.3l-1.3-.6 1.6-3.4c1.4.8 2 1.1 2.8 1.3 1 .4 2 .6 2.8.6 1.7 0 2.8-.8 2.8-1.9s-.4-1.4-1.7-2.1l-3-1.7c-3.4-2-4.5-3.3-4.5-5.4s.3-2 .8-2.7c.3-.5.8-1 1.4-1.4 1.4-1 2.6-1.3 4.9-1.3s2.4.1 3.6.5c.9.3 1.5.5 2.8 1.1l-1.6 3.2Zm11.9 6.4v8.3h-3.7v-8.3l-5.9-11.1h4l3.9 7.6 4.1-7.6h4zm19.1 8.3-6.5-9.2v9.2H443V16.8h3.7v9l6.1-9h4.3l-6.7 9.4 7 9.9zm6.8 0V16.8h11.8v3.1h-8.1v4.8h6.6v3.1h-6.6V33h8.5v3.1zm29.5 0v-8.3h-9.9v8.3h-3.7V16.8h3.7v7.7h9.9v-7.7h3.7v19.4h-3.7Zm22-1c-1.4 1-3.1 1.4-5.5 1.4s-4-.4-5.5-1.4c-2-1.4-2.6-3-2.6-6.5V16.8h3.7v12c0 2.9 1.5 4.3 4.6 4.3s4.3-1.5 4.3-4.3v-12h3.7v11.8c0 3.5-.6 5.1-2.7 6.5m18.2-13.7c-2.1-.9-3.7-1.4-5-1.4s-2.8.7-2.8 1.8.5 1.3 1.9 2.1c3 1.6 4.9 2.8 5.8 3.7.8.8 1.3 2.1 1.3 3.5 0 3.5-2.5 5.5-6.8 5.5h-1.7c-1.4-.2-2-.4-4-1.3l-1.3-.6 1.6-3.4c1.4.8 2 1.1 2.8 1.3 1 .4 2 .6 2.8.6 1.7 0 2.8-.8 2.8-1.9s-.4-1.4-1.7-2.1l-3-1.7c-3.4-2-4.5-3.3-4.5-5.4s.3-2 .8-2.7c.3-.5.8-1 1.4-1.4 1.4-1 2.6-1.3 4.9-1.3s2.4.1 3.6.5c.9.3 1.5.5 2.8 1.1l-1.7 3.2Z" style="fill:#fff;stroke-width:0"/></svg>