<svg xmlns="http://www.w3.org/2000/svg" width="1000" height="1000"><path fill="rgba(255,255,255,0)" d="M0 0h1000v1000H0z"/><path d="M266.676 360.996h-38.643c1.984-12.269 8.781-18.572 19.735-18.572 10.943 0 18.411 7.457 18.907 18.572m25.705 12.108c0-30.357-17.082-49.426-44.451-49.426-27.03 0-45.279 19.069-45.279 47.266 0 29.528 17.912 48.434 46.11 48.434 22.395 0 37.815-10.618 43.459-30.184h-26.374c-2.654 7.133-8.3 10.781-16.587 10.781-12.605 0-20.395-7.63-21.064-20.902h64.026c.161-2.657.161-4.978.161-5.969m-177.718 43.619h24.874v-44.45c0-19.403 5.483-28.695 16.921-28.695 10.449 0 14.43 5.808 14.43 20.57v52.576h24.874v-55.23c0-13.934-1.986-21.067-7.295-27.195-5.31-6.141-14.428-10.123-23.387-10.123-9.615 0-19.068 4.813-25.543 12.938v-45.121h-24.874v124.729M54.287 291.996H.8v21.898h40.468v102.818H67.47V313.894h40.309v-21.898H54.287m921.469 222.3c0 14.428-7.288 24.043-18.073 24.043-10.779 0-17.741-9.776-17.741-24.874 0-14.764 7.296-24.874 17.916-24.874 10.942 0 17.898 9.949 17.898 25.705m24.058 28.359v-71.643h-22.39v11.277c-6.8-9.454-14.431-13.436-25.21-13.436-22.22 0-37.815 18.572-37.815 44.774 0 26.535 14.589 44.128 36.487 44.128 11.613 0 18.909-3.659 25.543-12.606v9.455c0 16.412-5.473 23.545-17.916 23.545-8.956 0-15.084-4.479-15.592-11.438h-24.713c1.662 18.238 16.587 29.017 39.972 29.017 21.731 0 35.166-8.784 39.809-26.202 1.659-6.475 1.824-8.957 1.824-26.872M848.96 471.006h-23.72v90.388h24.887v-46.768c0-18.077 5.298-26.538 16.749-26.538 5.307 0 9.787 2.495 12.269 6.463 1.661 2.99 2.159 5.98 2.159 13.773v53.071h24.874v-51.248c0-16.09-.992-21.897-4.641-27.702-5.472-8.623-14.765-13.422-26.203-13.422-11.115 0-20.569 4.799-26.374 13.26v-11.276m-62.525-10.455h24.875V436.67h-24.875v23.882zm0 100.849h24.875v-90.392h-24.875V561.4zm-65.769-.002h24.874v-39.971c0-22.22 6.639-30.854 23.559-30.854 2.655 0 4.305.172 6.959.831v-21.562c-2.32-.831-3.808-.992-6.625-.992-11.288 0-20.244 4.975-25.046 13.931V471.01h-23.721v90.389m-36.306 0h23.72V471.01h-24.887v46.769c0 9.789-.818 14.764-3.313 18.746-2.987 4.974-7.964 7.789-13.436 7.789-5.307 0-9.787-2.318-12.269-6.464-1.661-2.986-2.159-5.977-2.159-13.769v-53.072h-24.874v51.248c0 16.09.995 21.895 4.641 27.703 5.472 8.622 14.926 13.422 26.203 13.422 10.954 0 20.408-4.8 26.374-13.261v11.277m-104.004 0h26.203V458.565h40.305v-21.897H539.887v21.897h40.469v102.833M445.55 471.006h-23.72v90.388h24.888v-46.768c0-18.077 5.297-26.538 16.748-26.538 5.308 0 9.787 2.495 12.269 6.463 1.661 2.99 2.159 5.98 2.159 13.773v53.071h24.874v-51.248c0-16.09-.992-21.897-4.641-27.702-5.471-8.623-14.764-13.422-26.202-13.422-11.116 0-20.57 4.799-26.374 13.26v-11.276m-59.488 49.255c0 16.252-7.296 25.543-20.072 25.543-7.954 0-13.598-4.476-13.598-10.607 0-6.972 6.141-10.456 21.723-12.938l8.634-1.329c.323-.172 1.49-.333 3.313-.669m23.384 1.661.161-12.605c0-16.746-1.984-23.879-8.781-30.518-6.639-6.797-17.085-10.446-30.184-10.446-24.218 0-39.477 11.613-40.642 31.015h25.543c.496-8.957 5.644-13.436 15.593-13.436 10.285 0 14.764 5.471 14.926 18.238-10.944.669-25.705 2.828-33.831 4.985-17.256 4.143-25.718 13.102-25.718 26.86 0 16.091 13.435 27.367 32.851 27.367 14.589 0 23.707-4.802 30.345-15.917v3.649c0 3.484.162 5.31.831 10.284h21.4c-1.825-7.63-2.495-16.587-2.495-31.014v-8.462M292.62 561.399h24.874v-124.73H292.62zm-50.333-53.235h-33.013l16.587-51.757 16.426 51.757zm44.612 53.236L243.44 436.67h-34.327L165.829 561.4h26.697l9.951-30.854h46.944l10.112 30.854H286.9zm314.535 88.912H562.79c1.984-12.269 8.782-18.572 19.736-18.572 10.943 0 18.41 7.457 18.907 18.572m25.705 12.108c0-30.357-17.082-49.426-44.451-49.426-27.033 0-45.28 19.069-45.28 47.269 0 29.526 17.913 48.431 46.111 48.431 22.395 0 37.815-10.618 43.459-30.184h-26.374c-2.657 7.136-8.3 10.782-16.587 10.782-12.606 0-20.395-7.631-21.064-20.903h64.026c.161-2.657.161-4.977.161-5.969m-95.141-46.771h-14.59v-21.895h-24.887v21.895H479.26v18.746h13.261v41.461c0 11.946.994 17.082 4.479 22.217 4.641 6.972 11.452 9.962 22.554 9.962 5.149 0 7.803-.334 12.444-1.5v-18.572c-2.99.334-3.982.495-5.136.495-6.811 0-9.455-3.807-9.455-13.597v-40.466h14.59v-18.746m-84.899 90.392h23.721v-90.389h-24.888v46.769c0 9.79-.818 14.764-3.312 18.746-2.99 4.975-7.964 7.789-13.436 7.789-5.307 0-9.787-2.318-12.269-6.461-1.661-2.989-2.159-5.979-2.159-13.772v-53.072h-24.874V666.9c0 16.09.992 21.895 4.641 27.703 5.471 8.622 14.926 13.422 26.202 13.422 10.955 0 20.406-4.8 26.374-13.261v11.277m-68.144-90.392h-14.589v-21.895h-24.888v21.895h-13.261v18.746h13.261v41.461c0 11.946.995 17.082 4.479 22.217 4.641 6.972 11.452 9.962 22.554 9.962 5.149 0 7.803-.334 12.444-1.5v-18.572c-2.99.334-3.982.495-5.136.495-6.811 0-9.454-3.807-9.454-13.597v-40.466h14.589v-18.746m-73.823-34.337h-12.444v23.879h24.888v-23.879H305.13zm0 34.327h-12.444v90.403h24.888v-90.403H305.13zm-22.289.01h-14.589v-21.895h-24.888v21.895h-13.26v18.746h13.26v41.461c0 11.946.995 17.082 4.48 22.217 4.641 6.972 11.452 9.962 22.554 9.962 5.148 0 7.803-.334 12.443-1.5v-18.572c-2.989.334-3.981.495-5.136.495-6.811 0-9.454-3.807-9.454-13.597v-40.466h14.589v-18.746m-57.016 28.858c.161-19.738-13.934-31.51-38.149-31.51-23.384 0-38.31 11.277-38.31 28.695 0 6.625 2.816 13.26 7.792 17.74 5.644 5.146 11.611 7.467 28.198 10.954 12.268 2.643 16.748 5.63 16.748 11.277 0 5.297-5.472 8.784-13.759 8.784-10.456 0-15.929-4.978-15.756-14.592H147.21c.336 21.066 15.097 32.841 40.966 32.841 24.551 0 39.81-11.279 39.81-29.354 0-13.772-8.126-22.069-26.041-26.71l-17.916-4.638c-6.797-1.826-9.787-4.318-9.787-8.3 0-5.472 4.652-8.784 12.444-8.784 10.11 0 14.267 3.81 14.762 13.597h24.379m-142.47-28.858H59.636v90.388h24.888v-46.768c0-18.077 5.298-26.535 16.749-26.535 5.307 0 9.787 2.492 12.268 6.463 1.662 2.987 2.159 5.978 2.159 13.77v53.071h24.875V654.79c0-16.09-.992-21.894-4.641-27.702-5.472-8.623-14.765-13.422-26.203-13.422-11.115 0-20.57 4.799-26.374 13.261V615.65m-46.764-34.339h-12.43v124.73h24.86v-124.73h-12.43" fill-rule="evenodd"/></svg>