<svg xmlns="http://www.w3.org/2000/svg" width="1000" height="1000"><path fill="rgba(255,255,255,0)" d="M0 0h1000v1000H0z"/><g vector-effect="non-scaling-stroke" transform="matrix(5.2396 0 0 5.2396 499.999 499.9994)" fill-rule="evenodd"><path d="M-97-96H95.8V96.8H-97V-96z"/><path d="M-24.8 77.3h-10.5l-3.2-7.7h-17.4l-2.9 7.7h-10.3l15.7-39h11.3l17.3 39zm-22.8-29.7l-5.7 15.2h12l-6.3-15.2zm60.8-9.3h8.5v39H12V53L1.4 65.2H-.1L-10.6 53v24.3h-9.7v-39h8.5L.7 52.8l12.5-14.5zm33.1 0c14.2 0 21.6 8.9 21.6 19.6 0 11.2-7.1 19.4-22.7 19.4H29.1v-39h17.2zm-7.5 31.9h6.3c9.8 0 12.7-6.6 12.7-12.4 0-6.7-3.6-12.4-12.8-12.4h-6.2v24.8zM19.5-50.6h-42.4L-49-76.5l94.8-.1v94.7L19.5-8.4v-42.2zm-42.1 43l-.2-38.2L-49.7-19v37.8h38.9L15.5-7.6h-38.1z" fill="#fff"/></g></svg>