<svg xmlns="http://www.w3.org/2000/svg" xml:space="preserve" width="256.65" height="57.94" viewBox="0 0 256.65 57.94"><defs><clipPath clipPathUnits="userSpaceOnUse" id="a"><path d="M28.347 17.008h538.582v102.667H28.347z"/></clipPath></defs><path style="fill:#006bb6;fill-opacity:1;fill-rule:nonzero;stroke:none" d="m0 0-.607-.404h93.056V0z" transform="matrix(1.25 0 0 -1.25 136.089 50.795)"/><path style="fill:#006bb6;fill-opacity:1;fill-rule:nonzero;stroke:none" d="M0 0v-.404h93.056L92.45 0z" transform="matrix(1.25 0 0 -1.25 5.134 50.921)"/><g clip-path="url(#a)" transform="matrix(1.25 0 0 -1.25 -243.475 90.816)"><path style="fill:#006bb6;fill-opacity:1;fill-rule:nonzero;stroke:none" d="M0 0v-2.631c0-.654-.087-1.715.639-1.991v-.043h-2.761v.043c.727.276.64 1.337.64 1.991v5.494c0 .654.101 1.715-.64 1.991v.044H.639v-.044C-.087 4.578 0 3.517 0 2.848V1.046h5.247v1.802c0 .669.102 1.73-.64 2.006v.044h2.776v-.044c-.741-.276-.654-1.337-.654-1.991v-5.494c0-.654-.087-1.715.654-1.991v-.043H4.607v.043c.742.276.64 1.337.64 1.991V0z" transform="translate(323.637 55.732)"/><path style="fill:#006bb6;fill-opacity:1;fill-rule:nonzero;stroke:none" d="M0 0c-.857 0-1.628.421-2.34.872C-3.052.393-3.866.015-4.738 0l2.398 2.224zm-6.031-5.116c0-2.035 1.438-4.128 3.72-4.128 2.21 0 3.619 1.614 3.619 3.779 0 2.122-1.351 4.171-3.648 4.171-2.253 0-3.691-1.627-3.691-3.822m8.996-.058c0-2.965-2.456-5.116-5.349-5.116-2.877 0-5.304 2.064-5.304 5.043 0 2.762 2.398 5.073 5.449 5 3.053.014 5.204-2.311 5.204-4.927" transform="translate(340.248 61.124)"/><path style="fill:#006bb6;fill-opacity:1;fill-rule:nonzero;stroke:none" d="M0 0c1.889 0 3.328-.915 3.328-2.543 0-1.672-1.555-2.733-3.197-2.733-.364 0-.727.044-1.062.203C.32-5 1.671-4.229 1.671-2.834c0 1.279-.901 1.788-2.064 1.788-.348 0-.683-.029-1.017-.087v-6.555c0-.815-.014-1.396.756-1.832v-.043h-2.892v.043c.741.262.654 1.337.654 1.991v5.48c0 .654.087 1.715-.64 2.006V0z" transform="translate(348.47 60.63)"/><path style="fill:#006bb6;fill-opacity:1;fill-rule:nonzero;stroke:none" d="M0 0c0 .669.101 1.73-.639 2.006v.043h2.76v-.043C1.395 1.73 1.483.654 1.483 0v-5.48c0-.654-.088-1.715.638-1.991v-.043h-2.76v.043C.087-7.209 0-6.134 0-5.48z" transform="translate(353.743 58.58)"/><path style="fill:#006bb6;fill-opacity:1;fill-rule:nonzero;stroke:none" d="M0 0c0-.829-.015-1.396.756-1.846v-.043h-2.878v.043c.727.276.64 1.337.64 1.991v6.482h-1.279c-.626 0-1.28-.159-1.73-.581h-.043l.508 1.73h.043c.175-.073.364-.073.553-.102h5.785c.246 0 .479.014.668.102h.044l-.466-1.73h-.043c-.189.509-.771.581-1.25.581H0z" transform="translate(361.064 52.956)"/><path style="fill:#006bb6;fill-opacity:1;fill-rule:nonzero;stroke:none" d="m0 0-1.439-3.663h2.863zm-1.817-4.738-.756-2.05c-.305-.814-.407-1.235.29-1.497v-.043h-2.674v.043c.843.422 1.09 1.236 1.41 2.064L-1.119-.16c.203.523.479 1.133-.219 1.352v.043H.959l3.023-7.456c.334-.828.596-1.642 1.424-2.064v-.043H2.427v.043c.712.32.596.48.203 1.497l-.784 2.05z" transform="translate(369.508 59.395)"/><path style="fill:#006bb6;fill-opacity:1;fill-rule:nonzero;stroke:none" d="M0 0c-.64-.843-1.831-1.192-2.849-1.192-.959 0-1.976.305-2.63 1.018-.771.843-.742 1.817-.742 2.863V6.57c0 .654.102 1.715-.639 1.991v.043h2.761v-.043c-.726-.276-.639-1.337-.639-1.991V2.689c0-1.933.813-2.834 2.311-2.834.814 0 1.642.334 2.122 1.017.32.436.305.8.305 1.322V6.57c0 .654.087 1.715-.64 1.991v.043h2.762l.015-.043c-.742-.276-.655-1.337-.655-2.006v-5.48c0-.654-.087-1.715.655-1.991v-.043H0z" transform="translate(382.878 52.026)"/><path style="fill:#006bb6;fill-opacity:1;fill-rule:nonzero;stroke:none" d="M0 0c-.349-.465-.785-1.09.102-1.439v-.043h-2.82v.043l4.027 5.058-2.108 3.052c-.378.552-.785 1.134-1.396 1.41h1.686c.451 0 .582-.116.728-.349l2.106-3.037 1.44 1.947c.363.494.857 1.279-.132 1.395v.044h2.66L2.995 3.779 5.319.32c.466-.698.916-1.497 1.745-1.802H5.393c-.596 0-.844.377-.945.508L2.021 2.674z" transform="translate(388.588 52.55)"/><path style="fill:#006bb6;fill-opacity:1;fill-rule:nonzero;stroke:none" d="M0 0a5 5 0 0 1 1.061-.102c2.166 0 4.099 1.134 4.099 3.648 0 2.544-1.425 3.823-3.852 3.823A5.8 5.8 0 0 1 0 7.209zm-1.482 6.424c0 .669.101 1.73-.64 1.947v.044h3.561c3.314 0 5.378-1.802 5.378-4.694 0-2.864-2.195-4.869-5.451-4.869h-3.488v.043c.727.494.64 1.192.64 2.05z" transform="translate(323.882 38.085)"/><path style="fill:#006bb6;fill-opacity:1;fill-rule:nonzero;stroke:none" d="m0 0 1.845-.174c.96-.088 1.963.218 2.689.858h.044l-.654-1.905h-6.061v.044c.742.261.654 1.337.654 1.991v5.479c0 .669.088 1.73-.654 2.006v.044h4.651c.247 0 .495-.029.683.072h.044v-1.7h-.044c-.45.523-1.046.581-1.715.581-.509 0-1.017-.014-1.482-.101V4.491h1.729c.233 0 .465 0 .64.088h.043V3.038h-.043c-.233.421-.843.407-1.294.407H0z" transform="translate(335.61 38.157)"/><path style="fill:#006bb6;fill-opacity:1;fill-rule:nonzero;stroke:none" d="M0 0c1.889 0 3.328-.916 3.328-2.543 0-1.672-1.555-2.733-3.197-2.733-.363 0-.727.044-1.061.203C.32-5 1.671-4.229 1.671-2.834c0 1.279-.901 1.787-2.064 1.787-.348 0-.682-.028-1.016-.086v-6.556c0-.814-.016-1.395.755-1.831v-.044h-2.893v.044c.742.262.654 1.337.654 1.991v5.479c0 .655.088 1.716-.638 2.006V0z" transform="translate(355.5 46.5)"/><path style="fill:#006bb6;fill-opacity:1;fill-rule:nonzero;stroke:none" d="m0 0-1.438-3.663h2.863zm-1.816-4.738-.756-2.05c-.305-.813-.407-1.235.291-1.497v-.043h-2.675v.043c.843.422 1.09 1.236 1.41 2.064L-1.119-.16c.204.523.48 1.134-.218 1.352v.043H.96l3.023-7.456c.334-.828.596-1.642 1.424-2.064v-.043h-2.98v.043c.713.32.597.48.204 1.497l-.785 2.05z" transform="translate(365.64 45.265)"/><path style="fill:#006bb6;fill-opacity:1;fill-rule:nonzero;stroke:none" d="M0 0c1.947 0 3.008-1.018 3.008-2.34 0-1.279-1.119-2.282-2.311-2.558L2.79-7.529c.611-.756 1.526-1.511 2.355-2.035H3.807c-.77 0-1.249.189-1.685.727L.348-6.642-.989-4.593c1.163.174 2.515.713 2.515 2.079 0 1.046-.901 1.657-1.875 1.613a8 8 0 0 1-.989-.117v-6.511c0-.668-.087-1.729.654-1.991v-.044H-3.46v.044c.742.262.64 1.337.64 1.991v5.479c0 .669.102 1.73-.64 2.006V0z" transform="translate(376.846 46.5)"/><path style="fill:#006bb6;fill-opacity:1;fill-rule:nonzero;stroke:none" d="M0 0c0 .669.101 1.73-.64 2.006v.044h2.762v-.044C1.395 1.73 1.482.654 1.482 0v-5.479c0-.654-.087-1.715.64-1.992v-.043H-.64v.043c.727.262.64 1.338.64 1.992z" transform="translate(383.586 44.45)"/><path style="fill:#006bb6;fill-opacity:1;fill-rule:nonzero;stroke:none" d="M0 0c-.567.581-1.469.916-2.282.916-.828 0-1.875-.32-1.875-1.323 0-1.991 5-1.962 5-4.651 0-1.555-1.628-3.008-3.895-3.008-.887 0-1.773.131-2.602.436l-.421 1.817c.857-.742 2.049-1.207 3.182-1.207.829 0 2.078.494 2.078 1.512 0 2.267-4.999 1.86-4.999 4.941 0 1.832 1.875 2.529 3.649 2.529.726 0 1.467-.102 2.165-.319z" transform="translate(394.148 44.77)"/><path style="fill:#006bb6;fill-opacity:1;fill-rule:nonzero;stroke:none" d="m0 0-1.367-3.663h2.72zm-1.726-4.738-.717-2.05c-.291-.814-.387-1.235.276-1.497v-.043h-2.541v.043c.801.422 1.036 1.236 1.34 2.064L-1.063-.16C-.87.363-.607.973-1.27 1.192v.043H.911l2.872-7.456c.318-.828.566-1.642 1.353-2.064v-.043h-2.83v.043c.677.32.566.48.193 1.497l-.746 2.05z" transform="translate(203.488 58.89)"/><path style="fill:#006bb6;fill-opacity:1;fill-rule:nonzero;stroke:none" d="M0 0c-.539.581-1.395.916-2.168.916-.787 0-1.781-.32-1.781-1.323 0-1.991 4.75-1.962 4.75-4.651 0-1.555-1.547-3.008-3.7-3.008-.843 0-1.685.13-2.472.435l-.4 1.817c.814-.741 1.946-1.206 3.024-1.206.787 0 1.974.494 1.974 1.511 0 2.268-4.749 1.861-4.749 4.942 0 1.832 1.78 2.529 3.464 2.529.691 0 1.395-.102 2.058-.32z" transform="translate(214.492 58.396)"/><path style="fill:#006bb6;fill-opacity:1;fill-rule:nonzero;stroke:none" d="M0 0c-.539.581-1.395.916-2.167.916-.787 0-1.781-.32-1.781-1.323 0-1.991 4.749-1.962 4.749-4.651 0-1.555-1.547-3.008-3.7-3.008-.842 0-1.685.13-2.472.435l-.4 1.817c.814-.741 1.947-1.206 3.024-1.206.787 0 1.974.494 1.974 1.511 0 2.268-4.75 1.861-4.75 4.942 0 1.832 1.782 2.529 3.466 2.529A6.6 6.6 0 0 0 0 1.642z" transform="translate(221.6 58.396)"/><path style="fill:#006bb6;fill-opacity:1;fill-rule:nonzero;stroke:none" d="M0 0c0 .669.097 1.73-.608 2.006v.043h2.624v-.043C1.325 1.73 1.408.654 1.408 0v-5.48c0-.654-.083-1.715.608-1.991v-.043H-.608v.043C.083-7.209 0-6.134 0-5.48z" transform="translate(223.916 58.076)"/><path style="fill:#006bb6;fill-opacity:1;fill-rule:nonzero;stroke:none" d="M0 0c-.538.581-1.394.916-2.167.916-.787 0-1.781-.32-1.781-1.323 0-1.991 4.749-1.962 4.749-4.651 0-1.555-1.547-3.008-3.7-3.008-.842 0-1.685.13-2.472.435l-.4 1.817c.815-.741 1.947-1.206 3.024-1.206.787 0 1.974.494 1.974 1.511 0 2.268-4.749 1.861-4.749 4.942 0 1.832 1.781 2.529 3.465 2.529A6.6 6.6 0 0 0 0 1.642z" transform="translate(232.225 58.396)"/><path style="fill:#006bb6;fill-opacity:1;fill-rule:nonzero;stroke:none" d="M0 0c0-.829-.014-1.396.718-1.846v-.043h-2.734v.043c.691.276.608 1.337.608 1.991v6.482h-1.215c-.594 0-1.215-.159-1.643-.581h-.042l.484 1.73h.041c.166-.073.345-.073.524-.102h5.496c.234 0 .455.014.635.102h.041l-.442-1.73H2.43c-.179.509-.732.581-1.188.581H0z" transform="translate(237.22 52.452)"/><path style="fill:#006bb6;fill-opacity:1;fill-rule:nonzero;stroke:none" d="m0 0-1.367-3.663h2.72zm-1.726-4.738-.718-2.05c-.29-.814-.387-1.235.276-1.497v-.043h-2.54v.043c.8.422 1.036 1.236 1.339 2.064L-1.063-.16C-.87.363-.608.973-1.27 1.192v.043H.911l2.872-7.456c.317-.828.566-1.642 1.353-2.064v-.043H2.305v.043c.677.32.567.48.194 1.497l-.746 2.05z" transform="translate(244.482 58.89)"/><path style="fill:#006bb6;fill-opacity:1;fill-rule:nonzero;stroke:none" d="M0 0c0-.814-.014-1.396.718-1.846v-.043h-2.443v.043c.731.45.731 1.032.731 1.846v5.799c0 .814 0 1.395-.718 1.831v.044H.304v-.015a.9.9 0 0 1 .207-.363l.193-.291L5.757.291v5.508c0 .814.014 1.395-.717 1.831v.044h2.429V7.63c-.718-.436-.718-1.017-.718-1.831v-8.154c-.98.349-1.408.829-2.015 1.657L0 5.624z" transform="translate(251.758 52.452)"/><path style="fill:#006bb6;fill-opacity:1;fill-rule:nonzero;stroke:none" d="M0 0c-.759.509-1.643.829-2.555.829-1.905 0-3.23-1.468-3.23-3.576 0-2.136 1.38-4.04 3.507-4.04 1.036 0 2.071.392 2.941.916h.041L0-7.558c-.649-.319-1.367-.435-2.085-.435-3.258 0-5.274 1.918-5.274 5.028 0 3.009 2.016 5 4.846 5 .842 0 1.698-.16 2.513-.363z" transform="translate(267.083 58.323)"/><path style="fill:#006bb6;fill-opacity:1;fill-rule:nonzero;stroke:none" d="m0 0 1.754-.174a3.33 3.33 0 0 1 2.554.857h.041l-.621-1.904h-5.757v.044c.704.261.621 1.337.621 1.991v5.479c0 .669.083 1.73-.621 2.006v.043h4.417c.235 0 .47-.029.65.073h.041v-1.7h-.041c-.428.523-.995.581-1.63.581-.483 0-.966-.015-1.408-.101V4.491h1.643c.221 0 .442 0 .608.087h.041v-1.54h-.041c-.221.421-.801.407-1.23.407H0z" transform="translate(270.27 51.783)"/><path style="fill:#006bb6;fill-opacity:1;fill-rule:nonzero;stroke:none" d="M0 0c1.889 0 3.328-.916 3.328-2.543 0-1.672-1.555-2.733-3.197-2.733-.364 0-.727.044-1.061.203C.32-5 1.672-4.229 1.672-2.834c0 1.279-.902 1.788-2.064 1.788a6 6 0 0 1-1.018-.087v-6.555c0-.815-.014-1.396.756-1.832v-.044h-2.892v.044c.741.262.654 1.337.654 1.991v5.48c0 .654.087 1.715-.64 2.006V0z" transform="translate(202.796 46.298)"/><path style="fill:#006bb6;fill-opacity:1;fill-rule:nonzero;stroke:none" d="M0 0c-.64-.843-1.831-1.192-2.849-1.192-.959 0-1.977.305-2.631 1.018-.77.843-.741 1.817-.741 2.863V6.57c0 .653.102 1.714-.64 1.991v.043h2.762v-.043c-.727-.277-.639-1.338-.639-1.991V2.689c0-1.934.814-2.834 2.31-2.834.815 0 1.643.334 2.122 1.017.32.436.306.799.306 1.323V6.57c0 .653.087 1.714-.64 1.991v.043h2.762l.014-.043c-.741-.277-.654-1.338-.654-2.006v-5.48c0-.654-.087-1.715.654-1.991v-.043H0z" transform="translate(214.827 37.694)"/><path style="fill:#006bb6;fill-opacity:1;fill-rule:nonzero;stroke:none" d="M0 0c.945 0 2.296.32 2.296 1.511 0 1.003-.929 1.527-1.802 1.44l-.974-.103V0zm.785-4.665c1.192-.117 2.398.436 2.398 1.816 0 1.41-1.366 2.021-2.645 1.948L-.48-.96v-3.589zm-2.747 6.482c0 .653.102 1.715-.64 1.991v.043H.843c1.919 0 3.038-.813 3.038-2.107 0-.974-.625-1.526-1.453-1.889 1.308-.276 2.369-1.149 2.369-2.573 0-1.119-.771-2.079-1.745-2.543-1.017-.495-2.165-.451-3.255-.451h-2.399v.044c.727.276.64 1.337.64 2.005z" transform="translate(222.121 42.447)"/><path style="fill:#006bb6;fill-opacity:1;fill-rule:nonzero;stroke:none" d="M0 0c.989-.058 1.846.276 2.573.887h.043L1.86-1.047h-5.973v.044c.741.262.654 1.337.654 1.991v5.48c0 .668.087 1.729-.654 2.005v.044h2.776v-.044c-.741-.276-.64-1.351-.64-2.005V.131z" transform="translate(233.571 37.781)"/><path style="fill:#006bb6;fill-opacity:1;fill-rule:nonzero;stroke:none" d="M0 0c0 .668.101 1.729-.64 2.006v.043h2.762v-.043C1.395 1.729 1.482.654 1.482 0v-5.48c0-.654-.087-1.715.64-1.991v-.043H-.64v.043C.087-7.209 0-6.134 0-5.48z" transform="translate(239.018 44.25)"/><path style="fill:#006bb6;fill-opacity:1;fill-rule:nonzero;stroke:none" d="M0 0c0 2.021-1.25 4.172-3.692 4.172-2.325 0-3.648-1.802-3.648-3.707 0-2.369 1.526-4.229 3.721-4.229C-1.439-3.764 0-2.136 0 0m3.822-6.453a2.72 2.72 0 0 0-1.846-.741c-1.438 0-3.517 1.642-4.635 2.529a5.4 5.4 0 0 0-1.193-.146c-2.834 0-5.145 2.137-5.145 5.015 0 2.979 2.529 5.014 5.392 5.014S1.657 3.256 1.657.291c0-1.715-.989-3.561-2.588-4.302 1.207-1.09 2.849-2.442 4.55-2.442z" transform="translate(252.313 41.313)"/><path style="fill:#006bb6;fill-opacity:1;fill-rule:nonzero;stroke:none" d="M0 0c-.64-.843-1.831-1.192-2.849-1.192-.959 0-1.977.305-2.631 1.018-.77.843-.741 1.817-.741 2.863V6.57c0 .653.102 1.714-.639 1.991v.043h2.761v-.043c-.727-.277-.64-1.338-.64-1.991V2.689c0-1.934.814-2.834 2.312-2.834.814 0 1.642.334 2.121 1.017.321.436.306.799.306 1.323V6.57c0 .653.087 1.714-.64 1.991v.043h2.762l.014-.043c-.741-.277-.654-1.338-.654-2.006v-5.48c0-.654-.087-1.715.654-1.991v-.043H0z" transform="translate(263.064 37.694)"/><path style="fill:#006bb6;fill-opacity:1;fill-rule:nonzero;stroke:none" d="m0 0 1.846-.174c.959-.088 1.962.217 2.689.857h.043l-.654-1.904h-6.06v.044c.741.261.653 1.337.653 1.991v5.479c0 .669.088 1.73-.653 2.006v.043h4.65c.248 0 .495-.029.683.073h.044v-1.7h-.044c-.45.523-1.046.581-1.714.581-.509 0-1.018-.015-1.483-.102V4.491h1.73c.233 0 .465 0 .639.087h.044v-1.54h-.044c-.232.421-.843.407-1.293.407H0z" transform="translate(269.937 37.956)"/><path style="fill:#006bb6;fill-opacity:1;fill-rule:nonzero;stroke:none" d="M0 0c-.552 0-.999.383-.999.857 0 .473.447.856.999.856s1-.383 1-.856C1 .383.552 0 0 0m8.09 1.474c3.647-.178 6.558-3.612 6.558-7.834 0-4.335-3.067-7.85-6.851-7.85S.946-10.695.946-6.36c0 4.239 2.935 7.685 6.602 7.836-8.068 5.628-17.036.583-17.64-9.299C-9.79-21.751 4.34-24.174 7.772-30.229c3.835 6.257 17.157 8.983 17.864 22.204C25.132 3.672 14.048 6.201 8.09 1.474" transform="translate(289.823 60.53)"/><path style="fill:#006bb6;fill-opacity:1;fill-rule:nonzero;stroke:none" d="m0 0 .016.011c-.098.005-.194.018-.294.018-.083 0-.165-.012-.248-.015L-.505 0z" transform="translate(297.897 61.992)"/><path style="fill:#006bb6;fill-opacity:1;fill-rule:nonzero;stroke:none" d="M0 0c-3.432-5.349-2.624-9.487 2.22-15.341C1.009-16.855.706-17.864.807-19.277c1.615.202 2.221 1.312 2.422 3.028 1.717-1.514 4.34-2.12 6.056-2.019-.368 3.043-2.693 5.335-6.459 3.634C-.101-10.698-3.129-6.661.505-.404z" transform="translate(293.154 68.653)"/></g></svg>