<svg xmlns="http://www.w3.org/2000/svg" height="227.97" width="228" viewBox="0 0 227.997 227.97"><style><![CDATA[.B{fill:#a30046}.C{fill:#fff}]]></style><path d="M113.787 1.757c-.158 0-.278.125-.278.277 0 5.363-3.068 7.447-4.267 8.063-1.238-.501-4.493-2.306-4.958-7.666a.28.28 0 0 0-.3-.252c-.142.012-.255.135-.255.277v.025l.052 1.129c0 4.547-2.535 6.605-3.592 7.273-1.283-.392-4.68-1.906-5.618-7.206-.022-.148-.165-.249-.315-.221a.28.28 0 0 0-.233.272v.047a12.11 12.11 0 0 1 .195 2.117c0 3.866-2.055 5.859-2.985 6.564-1.305-.277-4.83-1.485-6.225-6.689-.037-.146-.187-.232-.338-.192-.12.031-.202.143-.202.265 0 .024 0 .047.007.072.293 1.099.42 2.091.42 2.984 0 3.346-1.673 5.211-2.445 5.907-1.328-.162-4.943-1.057-6.786-6.118-.05-.145-.115-.236-.259-.183a.25.25 0 0 0-.094.018c-.114.041-.184.146-.184.258 0 .033.009.066.019.095.51 1.409.709 2.661.709 3.754 0 2.803-1.287 4.556-1.951 5.279-1.331-.046-5.014-.62-7.292-5.506-.068-.135-.113-.221-.252-.157a.28.28 0 0 0-.115.024c-.1.047-.161.15-.161.252 0 .04.009.079.023.115.789 1.687 1.073 3.177 1.073 4.444 0 2.357-.975 3.956-1.519 4.667-1.329.069-5.05-.181-7.747-4.85-.076-.132-.106-.213-.237-.136-.046 0-.097.009-.14.037a.27.27 0 0 0-.137.237c0 .047.009.096.035.141 1.115 1.93 1.483 3.638 1.483 5.061 0 1.972-.709 3.377-1.138 4.05-1.32.185-5.048.256-8.139-4.156-.087-.124-.101-.206-.226-.116-.055 0-.109.015-.157.049-.078.055-.12.139-.12.226a.28.28 0 0 0 .052.16c1.496 2.136 1.948 4.061 1.948 5.613 0 1.636-.497 2.825-.819 3.438-1.302.3-5.002.687-8.458-3.432-.101-.119-.096-.2-.212-.1-.063 0-.127.02-.178.064-.068.055-.098.132-.098.211 0 .062.02.128.063.181 1.933 2.302 2.462 4.448 2.462 6.107 0 1.301-.319 2.263-.548 2.808-1.274.414-4.925 1.12-8.726-2.682-.107-.106-.089-.188-.198-.079-.071 0-.14.027-.194.079s-.082.127-.082.198.029.14.082.195c2.428 2.427 3.014 4.81 3.014 6.546 0 .973-.179 1.705-.327 2.167-1.23.522-4.807 1.552-8.927-1.909-.122-.097-.084-.182-.181-.065a.28.28 0 0 0-.214.1c-.044.052-.063.114-.063.178 0 .08.034.156.098.211 2.986 2.506 3.604 5.158 3.604 6.926 0 .67-.082 1.161-.164 1.52-1.178.626-4.653 1.965-9.065-1.122-.125-.085-.071-.175-.158-.05-.087 0-.176.041-.229.118-.032.049-.049.104-.049.158 0 .086.042.173.118.225 3.614 2.531 4.22 5.518 4.22 7.238 0 .355-.027.644-.058.877-1.117.727-4.466 2.365-9.13-.329-.131-.076-.061-.169-.139-.037-.095 0-.187.05-.237.139-.027.043-.038.089-.038.137 0 .097.048.189.14.242 4.322 2.497 4.862 5.908 4.862 7.453 0 .112-.009.178-.014.27-1.053.821-4.244 2.741-9.118.467-.141-.065-.055-.165-.116-.026-.107 0-.208.061-.255.16-.017.037-.025.077-.025.117 0 .104.061.204.158.252 4.848 2.26 5.455 5.911 5.509 7.267-.974.909-3.985 3.104-9.045 1.262-.146-.052-.044-.159-.097-.015-.112 0-.219.069-.259.181-.01.032-.015.062-.015.094 0 .114.07.219.182.261 5.038 1.832 5.948 5.424 6.116 6.766-.896.99-3.703 3.435-8.897 2.04-.149-.037-.034-.157-.073-.008a.28.28 0 0 0-.267.203c-.007.022-.01.052-.01.075 0 .12.082.233.204.27 5.184 1.387 6.402 4.89 6.684 6.202-.809 1.073-3.39 3.743-8.685 2.813-.029-.007-.041-.022-.053-.03 0 .008.004.008.001.023-.131 0-.249.097-.27.225-.005.015-.004.037-.004.052 0 .127.092.247.229.27 5.28.93 6.799 4.313 7.198 5.602-.707 1.125-3.048 4.02-8.411 3.555-.016 0-.017-.007-.027-.015-.14.015-.259.128-.271.263-.002.015-.003.022-.003.03 0 .143.111.263.256.278 5.345.465 7.152 3.705 7.658 4.95-.61 1.193-2.691 4.275-8.067 4.275-.156 0-.281.12-.281.278 0 .15.126.278.281.278 5.359 0 7.442 3.06 8.061 4.26-.502 1.245-2.307 4.493-7.666 4.965-.143.015-.255.135-.255.278 0 .007.006.015.006.022a.28.28 0 0 0 .296.255c5.342-.472 7.685 2.4 8.404 3.54-.39 1.275-1.899 4.68-7.2 5.618-.136.023-.233.135-.233.27 0 .015.004.03.004.045.029.15.172.255.321.225 5.286-.93 7.871 1.732 8.683 2.805-.281 1.313-1.495 4.822-6.686 6.218a.27.27 0 0 0-.207.262c0 .03.003.052.01.075.041.142.192.233.343.195 5.176-1.387 7.981 1.035 8.888 2.032-.164 1.328-1.063 4.935-6.121 6.78-.112.038-.179.142-.179.255 0 .03.003.06.016.097.051.143.211.218.352.165 5.047-1.837 8.055.338 9.04 1.252-.051 1.35-.646 5.018-5.508 7.283-.102.052-.161.15-.161.255 0 .037.01.075.029.113.063.142.229.202.368.135 4.864-2.273 8.047-.368 9.109.458l.014.285c0 1.545-.54 4.958-4.862 7.455a.27.27 0 0 0-.14.24c0 .045.012.09.039.135.076.135.245.18.377.105 4.652-2.685 7.993-1.065 9.121-.338a6.86 6.86 0 0 1 .059.893c0 1.725-.607 4.702-4.223 7.237-.073.045-.116.135-.116.225a.31.31 0 0 0 .047.157c.088.127.264.157.39.067 4.393-3.075 7.858-1.755 9.051-1.132a6.63 6.63 0 0 1 .169 1.538c0 1.77-.617 4.425-3.604 6.922-.065.06-.101.143-.101.218 0 .06.026.127.066.172.1.12.275.135.391.037 4.112-3.45 7.681-2.437 8.921-1.912a7.01 7.01 0 0 1 .332 2.183c0 1.732-.587 4.118-3.016 6.54a.3.3 0 0 0-.082.203c0 .067.029.142.082.195.106.105.283.105.391 0 3.791-3.795 7.43-3.105 8.716-2.685.23.54.554 1.507.554 2.82 0 1.657-.529 3.803-2.462 6.105-.044.052-.063.12-.063.18a.26.26 0 0 0 .096.21c.119.097.293.082.395-.03 3.445-4.11 7.131-3.735 8.446-3.435.323.608.824 1.8.824 3.442 0 1.553-.45 3.48-1.947 5.618-.036.053-.051.105-.051.157 0 .09.038.173.116.225a.28.28 0 0 0 .387-.06c3.081-4.402 6.792-4.35 8.124-4.162.428.667 1.147 2.077 1.147 4.065 0 1.417-.368 3.127-1.483 5.063-.027.045-.037.09-.037.135 0 .097.049.188.14.24a.28.28 0 0 0 .376-.098c2.69-4.665 6.4-4.92 7.736-4.853.544.705 1.523 2.31 1.523 4.673 0 1.268-.279 2.76-1.068 4.448-.017.037-.028.075-.028.12a.28.28 0 0 0 .161.247c.141.067.304.007.369-.135 2.274-4.875 5.942-5.46 7.28-5.505.659.705 1.962 2.46 1.962 5.295 0 1.088-.199 2.34-.711 3.75-.01.03-.016.06-.016.098 0 .112.068.218.184.255.143.052.301-.022.355-.157 1.83-5.048 5.43-5.955 6.765-6.12.772.683 2.452 2.55 2.452 5.91 0 .893-.12 1.89-.412 2.985-.008.03-.015.045-.015.075a.27.27 0 0 0 .21.263c.15.037.3-.045.337-.195 1.395-5.19 4.905-6.405 6.218-6.683.922.698 2.992 2.692 2.992 6.57 0 .653-.052 1.365-.187 2.115 0 .022-.008.038-.008.053 0 .135.097.247.233.27.15.03.292-.075.315-.225.938-5.28 4.312-6.802 5.603-7.2 1.05.66 3.608 2.715 3.608 7.282l-.052 1.132v.022c0 .143.112.263.255.278.15.015.285-.098.3-.255.465-5.347 3.705-7.155 4.95-7.657 1.192.607 4.275 2.685 4.275 8.07 0 .15.127.27.278.27a.27.27 0 0 0 .278-.27v-.007c0-5.363 3.068-7.448 4.268-8.062 1.245.51 4.493 2.317 4.965 7.673.007.15.142.262.292.247s.255-.135.255-.278v-.022c-.038-.39-.045-.772-.045-1.132 0-4.545 2.535-6.608 3.592-7.275 1.275.397 4.68 1.905 5.61 7.207.03.15.173.248.323.225a.28.28 0 0 0 .232-.27c0-.022 0-.037-.007-.052-.135-.757-.195-1.463-.195-2.115 0-3.87 2.07-5.865 2.993-6.57 1.305.278 4.83 1.493 6.218 6.69.045.15.195.24.345.195.12-.03.203-.142.203-.262 0-.022 0-.053-.007-.075-.292-1.095-.412-2.093-.412-2.985 0-3.345 1.665-5.212 2.438-5.91 1.327.165 4.942 1.065 6.787 6.12.045.142.21.218.352.165.113-.038.18-.142.18-.255 0-.037 0-.067-.015-.097-.518-1.41-.713-2.663-.713-3.757 0-2.805 1.29-4.553 1.958-5.28 1.328.045 5.01.623 7.29 5.505.067.142.232.202.368.135.105-.045.165-.15.165-.255 0-.037-.015-.075-.023-.112-.788-1.687-1.072-3.173-1.072-4.448 0-2.355.967-3.945 1.515-4.665 1.32-.067 5.048.18 7.748 4.853a.28.28 0 0 0 .375.097c.09-.053.143-.142.143-.24 0-.045-.015-.09-.037-.135-1.118-1.935-1.485-3.645-1.485-5.062 0-1.98.713-3.382 1.14-4.058 1.32-.18 5.047-.255 8.137 4.162.083.12.263.15.382.067.083-.052.12-.142.12-.232 0-.052-.015-.105-.045-.157-1.5-2.13-1.958-4.058-1.958-5.61a7.43 7.43 0 0 1 .825-3.442c1.305-.292 5.002-.683 8.46 3.435.097.12.27.135.39.03.067-.053.097-.127.097-.202 0-.067-.015-.127-.06-.18-1.935-2.31-2.468-4.455-2.468-6.112 0-1.305.323-2.265.548-2.812 1.282-.412 4.927-1.118 8.73 2.685.113.105.285.105.39 0 .053-.052.083-.127.083-.195 0-.075-.03-.142-.083-.195-2.43-2.43-3.015-4.815-3.015-6.547a6.93 6.93 0 0 1 .33-2.167c1.23-.525 4.808-1.552 8.933 1.905.12.097.292.083.39-.03.045-.052.06-.113.06-.18 0-.075-.03-.157-.098-.21-2.985-2.513-3.6-5.16-3.6-6.93 0-.675.083-1.163.165-1.523 1.177-.623 4.657-1.965 9.067 1.125.12.083.293.06.382-.075.038-.045.053-.097.053-.157 0-.083-.045-.172-.12-.225-3.615-2.528-4.223-5.512-4.223-7.238 0-.352.022-.645.06-.877 1.118-.727 4.462-2.37 9.127.33.135.075.3.03.382-.105.022-.045.038-.09.038-.135 0-.097-.053-.195-.142-.24-4.327-2.498-4.86-5.91-4.86-7.455 0-.112.007-.18.015-.278 1.058-.825 4.245-2.73 9.112-.458.143.068.308 0 .368-.135.022-.038.03-.083.03-.12 0-.105-.06-.203-.165-.248-4.853-2.265-5.452-5.925-5.505-7.275.983-.915 3.99-3.105 9.053-1.26.142.052.3-.023.353-.165.015-.03.015-.067.015-.097 0-.113-.067-.218-.18-.255-5.04-1.837-5.947-5.43-6.12-6.773.892-.99 3.705-3.435 8.902-2.04.15.038.3-.045.338-.195.007-.023.007-.045.007-.075 0-.12-.083-.232-.202-.262-5.183-1.388-6.405-4.898-6.683-6.21.803-1.072 3.39-3.743 8.685-2.812a.27.27 0 0 0 .322-.225v-.045c0-.127-.09-.248-.225-.27-5.28-.93-6.802-4.312-7.2-5.602.712-1.14 3.053-4.028 8.407-3.555.157.015.285-.105.3-.255v-.022c0-.143-.105-.263-.248-.278-5.347-.465-7.155-3.705-7.665-4.95.608-1.193 2.692-4.283 8.07-4.283a.27.27 0 0 0 .278-.27c0-.157-.12-.285-.278-.285-5.362 0-7.447-3.06-8.062-4.26.502-1.238 2.31-4.493 7.665-4.965.142-.015.255-.135.255-.278v-.023c-.015-.15-.135-.255-.278-.255h-.022c-5.347.472-7.687-2.408-8.407-3.547.39-1.275 1.905-4.672 7.208-5.61a.28.28 0 0 0 .225-.27c0-.015-.007-.03-.007-.052-.022-.128-.135-.225-.27-.225h-.045c-5.288.93-7.868-1.725-8.685-2.797.278-1.312 1.493-4.823 6.683-6.225a.27.27 0 0 0 .21-.263c0-.022 0-.045-.015-.067a.27.27 0 0 0-.263-.21c-.03 0-.053.008-.075.008-5.183 1.395-7.987-1.028-8.888-2.025.157-1.327 1.058-4.942 6.112-6.783.12-.043.188-.149.188-.261 0-.033-.007-.065-.015-.095-.045-.112-.15-.184-.263-.184-.038 0-.06.008-.097.017-5.04 1.839-8.048-.337-9.037-1.253.052-1.346.645-5.016 5.505-7.283.105-.047.165-.146.165-.251 0-.04-.015-.079-.03-.117-.045-.102-.143-.158-.248-.158-.045 0-.083.008-.12.024-4.868 2.27-8.048.366-9.113-.459l-.015-.283c0-1.546.54-4.954 4.868-7.453.09-.053.135-.146.135-.242 0-.045-.007-.091-.037-.136-.045-.09-.143-.139-.24-.139-.045-.002-.09.01-.135.035-4.657 2.69-7.995 1.064-9.12.335a5.71 5.71 0 0 1-.06-.889c0-1.724.607-4.709 4.215-7.238.083-.055.128-.14.128-.227 0-.055-.022-.111-.052-.16-.053-.078-.143-.117-.225-.117-.06-.001-.112.014-.165.048-4.395 3.078-7.86 1.76-9.053 1.131-.082-.359-.165-.85-.165-1.534 0-1.768.615-4.421 3.6-6.927.067-.055.097-.136.097-.215 0-.063-.022-.125-.06-.177-.053-.065-.135-.1-.218-.1a.26.26 0 0 0-.173.063c-4.11 3.451-7.68 2.442-8.925 1.919-.15-.46-.33-1.201-.33-2.185 0-1.735.585-4.117 3.015-6.547.053-.055.083-.123.083-.196a.29.29 0 0 0-.083-.197.3.3 0 0 0-.202-.08c-.067 0-.143.028-.187.08-3.795 3.793-7.44 3.101-8.722 2.689-.233-.544-.555-1.514-.555-2.825 0-1.658.532-3.804 2.468-6.108.037-.052.067-.115.067-.178 0-.079-.038-.159-.105-.214-.053-.041-.113-.064-.18-.064-.083-.001-.157.035-.21.1-3.45 4.109-7.132 3.737-8.453 3.438-.322-.61-.825-1.805-.825-3.452 0-1.552.45-3.477 1.95-5.615.03-.047.053-.103.053-.16 0-.088-.045-.172-.12-.227-.045-.032-.105-.05-.157-.05-.09.001-.173.043-.225.121-3.083 4.403-6.802 4.344-8.13 4.159-.428-.668-1.148-2.08-1.148-4.065 0-1.422.375-3.13 1.485-5.062a.3.3 0 0 0 .038-.137c0-.098-.045-.191-.142-.242-.038-.024-.09-.036-.135-.036-.097 0-.187.049-.24.137-2.685 4.659-6.398 4.922-7.74 4.853-.54-.708-1.523-2.312-1.523-4.677 0-1.271.285-2.757 1.073-4.443.015-.038.022-.08.022-.118a.28.28 0 0 0-.157-.25c-.037-.017-.083-.028-.12-.028-.105-.002-.203.058-.248.16-2.273 4.867-5.932 5.457-7.282 5.508-.653-.709-1.965-2.459-1.965-5.291 0-1.097.203-2.348.713-3.756.015-.031.015-.063.015-.094 0-.114-.067-.221-.18-.261a.28.28 0 0 0-.097-.018c-.112 0-.218.07-.255.182-1.838 5.043-5.437 5.953-6.773 6.122-.772-.686-2.46-2.552-2.46-5.92 0-.893.127-1.885.42-2.984.007-.023.007-.047.007-.072 0-.123-.083-.234-.203-.267-.15-.039-.3.047-.345.196-1.387 5.187-4.89 6.404-6.21 6.687-.915-.695-3-2.69-3-6.576a12.07 12.07 0 0 1 .195-2.115v-.05c0-.131-.09-.248-.225-.271-.15-.027-.292.075-.323.224-.93 5.285-4.312 6.804-5.602 7.201-1.05-.661-3.608-2.719-3.608-7.285l.052-1.126v-.025c0-.144-.113-.263-.255-.275-.15-.015-.285.099-.3.252-.472 5.403-3.773 7.193-4.995 7.68-1.222-.643-4.215-2.738-4.215-8.039a.28.28 0 0 0-.278-.277z" class="B"/><path d="M118.721 10.862l8.475.739 8.88 1.563 8.745 2.339 8.453 3.072 8.227 3.836 7.83 4.517 7.35 5.147 6.96 5.833 6.368 6.369 5.828 6.947 5.167 7.376 4.515 7.815 3.817 8.181 3.09 8.474 2.34 8.76 1.567 8.88.788 9.007v9.015l-.78 8.97-1.575 8.917-2.333 8.722-3.105 8.512-3.802 8.16-4.507 7.808-5.175 7.395-5.827 6.938-6.382 6.382-6.915 5.805-7.365 5.153-7.815 4.515-8.182 3.817-8.498 3.097-8.737 2.34-8.865 1.567-9.007.78-9 .007-9.038-.787-8.895-1.567-8.7-2.34-8.483-3.082-8.198-3.825-7.769-4.478-7.425-5.205-6.936-5.82-6.381-6.382-5.789-6.9-5.178-7.395-4.526-7.837-3.803-8.153-3.077-8.453-2.353-8.775-1.563-8.865-.79-9.022v-8.978l.79-9.037 1.557-8.843 2.362-8.805 3.071-8.432 3.83-8.213 4.478-7.756 5.2-7.427 5.774-6.884 6.412-6.412 6.926-5.811 7.365-5.156 7.827-4.52 8.159-3.808 8.477-3.086 8.798-2.356 8.835-1.558 9-.786h9.51z" class="C"/><path d="M113.719 13.964c-55.282 0-100.26 44.98-100.26 100.26-.001 55.29 44.977 100.268 100.26 100.268 55.29 0 100.267-44.978 100.267-100.268 0-55.281-44.977-100.26-100.267-100.26z" class="B"/><path d="M113.719 15.628c54.375 0 98.61 44.234 98.61 98.595 0 54.375-44.235 98.61-98.61 98.61-54.364 0-98.602-44.235-98.602-98.61.003-54.363 44.239-98.595 98.602-98.595z" class="C"/><path d="M113.719 45.812c-37.72 0-68.415 30.692-68.415 68.412 0 37.732 30.694 68.423 68.415 68.423 37.733 0 68.422-30.69 68.422-68.423 0-37.72-30.69-68.412-68.422-68.412z" class="B"/><path d="M113.719 47.474c36.818 0 66.758 29.948 66.758 66.751 0 36.81-29.94 66.758-66.757 66.758-36.802 0-66.751-29.948-66.751-66.757 0-36.802 29.948-66.751 66.751-66.751z" class="C"/><path d="M113.719 50.372c-35.205 0-63.853 28.647-63.853 63.852 0 35.213 28.649 63.863 63.854 63.863 35.213 0 63.863-28.65 63.863-63.863 0-35.205-28.65-63.852-63.863-63.852z" class="B"/><path d="M113.719 50.834c34.958 0 63.398 28.441 63.398 63.391 0 34.958-28.44 63.398-63.398 63.398-34.95 0-63.391-28.44-63.391-63.398 0-34.95 28.441-63.391 63.391-63.391z" class="C"/><path d="M113.719 54.216c-33.09 0-60.007 26.926-60.007 60.008 0 33.098 26.924 60.015 60.007 60.015 33.098 0 60.023-26.917 60.023-60.015 0-33.082-26.925-60.008-60.023-60.008z" class="B"/><path d="M113.719 55.295c32.498 0 58.943 26.44 58.943 58.93 0 32.505-26.445 58.935-58.943 58.935s-58.93-26.43-58.93-58.935c0-32.49 26.433-58.93 58.93-58.93z" class="C"/><path d="M113.726 70.18c24.285 0 44.04 19.76 44.04 44.045 0 24.292-19.755 44.055-44.04 44.055-24.292 0-44.05-19.762-44.05-44.055 0-24.285 19.758-44.044 44.051-44.044z" class="B"/><path d="M80.884 88.802v29.272c.008.248.547 24.555 26.76 30.067 3.427.728 5.483 6.218 5.498 6.27l.683 1.852.683-1.852c.015-.053 2.07-5.543 5.505-6.27 26.205-5.512 26.753-29.82 26.753-30.06v-29.28h-65.88z" class="C"/><path d="M82.332 90.249h62.985v20.018c-.787-.562-2.16-1.65-2.738-2.392-.72-.915-1.328-.308-1.732.308-.12.172-.608.72-1.245 1.41l-4.163 4.403s-.615 0-1.02-.51c-.225-.278-2.43 1.672-4.403 3.518l-3.142 3.007-.06.022c0 .06.015.097.09.12l2.828.833c1.567.6 3.188.69 4.252 2.078.285.36.285.9.42 1.328.105.315.195.615.48.795 1.042.66 1.29.225 2.392.735 0 0 2.235.983.773 1.86l-1.282.855-5.978-6.465h-3.337l3.915 6.66h5.16c-2.047 1.635-1.778 2.73-1.597 3.51.255 1.11.765 2.663 1.208 3.945l-2.392-.075-1.463.615c0 .007 2.385.427 1.035 2.197 1.387-.578 2.542-.578 2.542-.578l.788-.675.052.157c-1.342 1.373-2.827 2.602-4.447 3.697l.217-2.295-.922.27-.037 2.505.03-.015-2.137 1.23c.323-.585.555-4.065.555-4.065s-1.5 1.2-3.083.99c0 0 .915.945.105 1.942-.817.998-.66.945.3 1.275.975.33.48-.6 1.328-.075.165.097.262.15.337.172-2.76 1.395-5.835 2.453-9.232 3.172-2.94.615-4.92 3.735-5.888 5.655-.967-1.92-2.948-5.04-5.888-5.655-.045-.015-.09-.023-.135-.038.547.015 1.072-.022 1.56-.135.817-.195 1.852 1.748 2.67 1.44.105-.105.203 0 .413-.105.817-.405-.352-.15.157-.87.203-.3.308-.607.608-1.012-.81-.413-1.627-.203-2.542-.308v-.308c-.922-.307-2.04-.203-2.963-.51.105-.818 1.02-1.222 1.02-2.145-.607 0-1.32.105-1.935-.097v-.308c-1.433-.382-2.692.308-4.02.39-.007-.127 0-.262 0-.39-.135.03-.375-.037-.375-.105.105-.45.623-.623.968-.937.067-.105.203-.135.24-.27-.27-.023-.547.007-.825.023v.09c-.12.54-2.032.855-4.215.39-1.095-.233-2.055-.623-2.715-1.02l-.172.3c-.142.345.067.728.412.803.487.097.975 0 1.455.03.352.038.45.382.66.623l.45-.127c.045.023.345.27.278.405-.105.105-.382.142-.307.315.135.24.547.277.623.555.022.127-.023.255-.053.39a29.61 29.61 0 0 1-6.3-4.058c.285.038.547-.045.75-.157.135-.075.21-.203.278-.3.203-.315.953-.105.953-.578.233-.172.51-.248.742-.413-.068-.442-.608-1.087-.645-1.125-.375-.442-.398-.412-.638-.922-.135.097-1.17.03-1.102-.278-.068.172-2.205 1.627-2.31 1.898 0 .007.052.075.068.105-2.1-2.138-3.87-4.613-5.288-7.433.593.06 1.02-.067.953-.998.412 0 .72-.203 1.02-.405.105-.21-.278-.33-.203-.517.21-.51.915-.097 1.02-.405.51-.713-1.02-.308-1.53-.615v-.203c-.713-.097-1.53.307-2.138-.203-.105-.097.097-.608-.112-.818-.143-.045-.405.12-.623.345-1.68-4.815-1.755-8.61-1.755-8.655v-11.933l3.51-.127.075-.353c-.015.15-.03.285-.075.353.48.36.727.315.727.315.915.713 1.567.03 2.07 1.05.69 1.365 1.83 1.02 3.105 1.403.457.142.907 1.177 1.35 2.363.015-.278.015-.555-.097-.818-.383-1.147-1.312-2.078-2.31-2.842-.383-.39-1.073-.158-1.613-.465-.307-.308-.457-.847-.847-.922a4.71 4.71 0 0 1-1.845-.615c.233 0 .532.075.532 0 .54-.922 1.388-1.155 2.003-2.002.233-.232.698-.382.93-.15.765.615 1.23 1.537 2.07 1.995.233.158.54 0 .772.083.69.458 1.463.69 2.235.458.307-.075.69-.69.922-.458.922.772 1.687 1.688 2.31 2.767.075.157.3.233.472.315.218.225.292.615.525.915.998 1.005 1.995 1.845 2.767 2.925 2.153.54 4.388.772 6.615.847.623 0 1.237.232 1.778.54 1.23.615 1.845 1.845 3 2.767.458.39.69 1.155 1.147 1.155 1.005.158 1.778.773 2.618 1.08.54.232.847.84 1.23 1.305.233.307-.15.54-.15.847.075.15.308.382.233.465-.922.615-2.002.615-2.925 1.147-.382.233-.233.772-.54 1.005a1.51 1.51 0 0 0-.307.922c-.075.075-.158.233-.158.233-.84.54-1.763.69-2.385 1.38-.615.54-1.148 1.237-1.845 1.695-.308.232-.84.232-1.305.157-.15 0-.158-.157-.158-.233-.233-.772-.307-1.62-.765-2.235-.308-.54-.847-.84-1.388-1.072-.615-.233-1.155-.54-1.687-.93-.158-.15-.233-.382-.233-.533-.157-.847-.623-1.462-.847-2.235-.233-.54-.465-.998-1.005-1.387-.308-.15-.458-.458-.69-.615-.233-.225-.54-.458-.773-.615-.142 0-.225.007-.465.157 1.245.713 1.125 1.913 1.073 2.985l1.282 1.177s.802.593.54 1.215c-.03.09-.112.233-.225.413l2.295 1.83s2.483.555 2.542 2.685c.023.788.84.75.893 1.073l10.32-9.03s-2.752-2.858-3.158-2.955c-.382-.097-1.312-.375-1.853-.578-.51-.203-3.66-3.398-4.882-3.803-1.222-.412-3.262-.307-4.282-.51-1.012-.21-2.648-.308-3.36-1.125l-6.218-6.825s-1.328 1.013-1.935.915c-.615-.105-2.76-2.655-3.367-2.752-.615-.105-.713-.51-1.222-.105-.51.413-2.76 2.25-3.27 2.04-.008 0-.023.007-.03.007-.068-.015-1.8-.525-2.55-1.005-.615-.398-.87-.608-1.177-.698V90.249z" class="B"/><path d="M84.102 92.049v9.09h17.468l3.87 3.472c.052.015.105.023.158.045.48.24 1.02.397 1.47.675l-4.192-4.192h1.425l4.552 5.25c.023-.165.045-.337.142-.472l.03-.03-3.69-4.748h1.118l3.007 4.455c.158-.06.323-.083.502-.06l-2.632-4.395h.983l2.453 4.83a2.05 2.05 0 0 0 .405.255.33.33 0 0 1 .03-.27l-2.13-4.815h.847l1.65 4.515.165-.067c.068-.023.142-.03.217-.045l-1.335-4.403h.802l.998 4.373c.143.007.278.03.413.06l-.765-4.433h.735l.488 4.627c.03.015.06.022.083.045.105.083.203.15.308.218l-.248-4.89h.743l-.09 5.235a1.14 1.14 0 0 1 .112.255c.053.262 0 .487 0 .75.053 0 .097.007.15.015l.45-6.255h.735l-.487 3.48c.142-.015.292 0 .443 0l.675-3.48h.788l-.608 2.28.15-.113a1.38 1.38 0 0 1 .48-.195l.645-1.972h.825l-.795 1.988a.27.27 0 0 1 .083.015c.142.06.315.127.39.262l1.057-2.265h.93l-1.087 1.965c.015 0 .015-.007.022-.007.217-.03.405.03.578.15l1.313-2.108h1.058l-2.047 2.843c.03.06.067.113.135.142.285.127.533-.203.735-.368.127-.12 0-.375.083-.533.217-.232.495-.375.788-.502l1.275-1.583h1.297l-1.17 1.267a1.57 1.57 0 0 1 .158.038 3.61 3.61 0 0 1 .578.263l1.62-1.568h1.613l-2.528 2.153c.165.24.21.502.225.78l3.855-2.932h14.858v-9.09H84.102z" class="C"/><path d="M84.934 92.882v7.424h57.682v-7.424H84.934z" class="B"/><path d="M136.66 94.427c-1.343 0-2.123.391-2.123 1.343 0 .877.719 1.102 1.462 1.214l1.058.166c.465.067.728.158.728.488 0 .375-.368.532-.916.532-.502 0-1.087-.097-1.102-.69h-1.312c.015 1.343 1.372 1.471 2.414 1.471 1.688 0 2.228-.637 2.228-1.44 0-.78-.592-1.072-1.38-1.2l-1.455-.233c-.3-.045-.495-.173-.495-.406 0-.293.314-.502.801-.502.465 0 .999.06 1.074.615h1.289c-.083-1.207-1.387-1.358-2.272-1.358zm-48.128.113v4.291h2.776c1.343 0 2.002-.847 2.002-2.137s-.638-2.153-2.108-2.153h-2.67zm6.526 0v4.291h1.162v-4.291h-1.162zm21.953 0v4.291h2.774c1.342 0 2.002-.847 2.002-2.137s-.638-2.153-2.108-2.153h-2.669zm-19.185.008v.817h1.589v3.466h1.163v-3.466h1.589v-.817h-4.342zm6.855 0l-1.884 4.283h1.252l.353-.885h1.964l.353.885h1.252l-1.882-4.283h-1.409zm3.921 0v.817h1.591v3.466h1.162v-3.466h1.591v-.817h-4.343zm14.573 0v4.283h4.021v-.817h-2.865v-.983h2.7v-.779h-2.7v-.886h2.842v-.817h-3.998zm5.58 0v2.745c0 .487.052 1.666 2.25 1.666 2.19 0 2.25-1.178 2.25-1.666v-2.745h-1.169v2.461c0 .42-.016 1.125-1.081 1.125-1.072 0-1.087-.705-1.087-1.125v-2.461h-1.163zm-39.059.81h1.185c.892 0 1.23.496 1.23 1.291 0 .907-.345 1.365-1.118 1.365h-1.298v-2.656zm28.477 0h1.185c.892 0 1.23.496 1.23 1.291 0 .907-.353 1.365-1.125 1.365h-1.291v-2.656zm-12.787.113l.675 1.702h-1.351l.675-1.702zm-4.942 6.18c-.232.083-.577.757-.577.757l3.727 2.618c.233-.135.473-.247.721-.337l-3.87-3.038zm-2.678.877c-.24.113-.524.899-.524.899l5.241 2.776c.052-.18.136-.352.271-.51.03-.045.074-.068.104-.105l-5.092-3.06zm30.854.053l-3.584 2.37c.285.158.622.224.959.277l3.105-1.822c.015-.248-.48-.825-.48-.825zm2.61 1.05l-12.832 6.419c.045.083.083.172.12.255l13.132-5.707c.045-.263-.42-.967-.42-.967zm-32.932 1.657c-.202.127-.375.877-.375.877l4.327 1.651c.022-.015.045-.03.06-.045.038-.218.045-.45.053-.675l-4.065-1.808zm16.635.067l-.286 2.063c.097.007.188.023.286.038l.404-2.101h-.404zm.877 0l-.577 2.175.188.038c.03.007.059.022.089.029l.728-2.243h-.428zm.938 0l-.945 2.348.262.113 1.14-2.461h-.457zm1.027 0l-1.433 2.596c.09.045.165.097.248.142l1.704-2.738h-.519zm1.17 0l-2.099 2.911.231.171 2.476-3.082h-.608zm1.403 0l-3.031 3.286.202.195 3.57-3.48h-.741zm1.739 0l-4.356 3.713c.068.067.12.142.18.217l5.152-3.93h-.976zm2.341 0l-6.33 4.185c.052.075.097.158.149.24l7.529-4.425h-1.349zm-16.882.45c.03.21-.06.466.075.601.278.217.6.653.983.488.007 0 .014 0 .022-.007l-1.08-1.081zm28.972 2.093c-.105.007-.209.053-.284.12l-3.683 3.277c-.15.135-.42.173-.608.091l-4.125-2.026c-.187-.09-.481-.083-.661.015l-1.034.563c-.172.097-.473.113-.653.023l-1.32-.608a.89.89 0 0 0-.667.007l-.87.435c-.18.09-.495.135-.69.105l-.757-.127c-.195-.037-.496.03-.661.142l-2.101 1.471c-.165.113-.434.113-.599 0l-1.185-.855c-.165-.113-.413-.09-.548.06l-1.289 1.402a.46.46 0 0 1-.555.083l-1.831-1.156a.55.55 0 0 0-.592.038l-.81.659c-.158.127-.435.157-.615.067l-1.988-.952c-.18-.09-.495-.157-.697-.157h-1.56a1.55 1.55 0 0 1-.683-.187l-1.919-1.11-1.771.226c.48.517 1.612 1.455 1.822 1.695.712.818 2.491.247 3.511.45l3.33.757c.84.217 2.692 1.388 4.072 2.483.007 0 .023-.016.038-.016.547-.345 1.177-.967 1.792-.69.532.262.998.6 1.463.93.765.038 1.515.105 2.197-.322.413-.405.824-.817 1.229-1.02.615-.412 1.133-1.336 1.846-1.028.412.202-.202.414-.51.826v.299c-.203.202-.511.309-.721.519-.3.51.616.307.413.825 0 .3-.51.203-.825.3-.315.135-.353.561-.173.606.33.142.944.473 1.522.803.03-.045.083-.082.12-.127l.322.113c.203 0 .413-.105.615 0 .202.202.405.202.615.202 0 .105.105.209.202.209.203.308-.308.818 0 .923.51.203.923.413 1.336.721.105.203-.105.615 0 .615.307.203 1.124.104.921-.413-.203-.51-.72-.72-1.44-.923-.405-.105-.202-.922-.404-1.027-.577-.33-1.358-.398-2.115-.473.3-.277.765-.532 1.05-.817.098-.21-.105-.615 0-.817.203-.413.817-.412 1.125-.825v-.308c-.203-.412-.818-.509-.923-1.027 1.028.412 2.153.306 3.286.306 0 .067-.001.158.022.233l2.37-1.102 2.452.794c.84-.81 1.05-1.289 1.433-.907.465.465 1.522.555 1.522.555s1.762-1.837 3.255-3.877l-1.709-.998a.54.54 0 0 0-.308-.053zm-32.378.645l5.295 2.017.113-.27-3.945-1.748h-1.463zm2.752 0l2.791 1.471a2.09 2.09 0 0 1 .135-.255l-2.039-1.216h-.886zm1.726 0l1.373.952.166-.231-.93-.721h-.608zm1.192 0l.548.488.195-.209-.286-.278h-.457zm.908 0l.059.06c.023-.015.046-.045.069-.06h-.127zm-21.698.442c.037 1.14 1.012 1.868 1.529 2.798.068.142.136.382.031.45-.173.21-.421.316-.661.526a.44.44 0 0 1-.277 0c-.24-.278-.345-.593-.555-.901-.03-.038-.099-.074-.136-.037-.21.172-.554.382-.412.584.135.21.375.352.308.592-.03.105-.105.211-.067.278.345.383.45.862.863 1.14.18.105.315-.03.45-.067.345-.075.734-.105 1.042.105.037.413-.135.9.067 1.245.21.412.555.728.938.938.652.308.863 1.072 1.208 1.657l.209.555c.142.345.203.728.248 1.11.067.277-.487.968-.457 1.245l.173 1.904c.023.232-.136.623-.331 1.036-.69-3.15-2.16-6.803-5.055-6.803-3.292 0-3.171 4.725-2.609 8.063h7.042c-.203.45-.3.787-.053.787.105-.037.316.031.316.136.067.765-.068 1.492-.278 2.257-.278.968-1.905 1.034-2.355 1.972-.037.068-1.836.413-1.799.48.172.315 2.286.344 2.114.659-.172.345 2.145.593 1.8.795-.525.412-1.905 1.597-1.56 1.942.592-.038 3.39 1.245 3.983 1.207.105 0 .21-.037.315-.067.165-.038.345.068.48.031.3-.045.353.382.495.57l-.286.202c.067.097.104.173.149.286.09.097.511.022.406.262-.023.06-.224.188-.337.248l.945 1.387c.045.09-.473.968-.855 1.598.6.24 1.38.457 2.257.659l.12-.577c.022-.075.098-.12.173-.105h.015l.765-3.562-1.44-6.539c-.045-.203-.202-.427-.344-.502-.15-.075-.294-.3-.331-.502l-1.537 1.979a1.04 1.04 0 0 0-.278.615l-.075 3.135a.42.42 0 0 1-.382.398l-1.072.082c-.203.015-.375-.134-.39-.337l-.248-4.014c-.015-.203.068-.501.18-.674l.794-1.17c-.015-.053-.015-.113-.015-.166-.255-1.29-.705-2.474-.735-3.727-.023-1.028.391-2.01.338-3.045 0-.3 0-.66.142-1.012a1 1 0 0 1 .457-.473l1.245-.562-.022.083-.127.089.097.06-.022.12.105-.067 1.68 1.072c-.082.06-.136.143-.136.248 0 .173.143.315.308.315.173 0 .315-.142.315-.315 0-.12-.074-.217-.171-.27l1.44-1.411-.495-.322 1.56.226a1.03 1.03 0 0 1 .623.217l.308.277c.053-.255.104-.509-.144-.907-.292-.48-1.973-.63-2.618-.877l-.224.63-.338.344c-.127.128.211-.006.338-.059.015.03.037.052.029.089-.007.015-.014.037-.037.067l.051.022-.621 1.576-1.163-1.666-.038.029c.045-.315.218-.705.06-.952-.172-.27-.292-.69-.337-.983l.217.031.009-.098c-1.125-.112-1.644-.337-1.644-.51 0-.262 1.141-.555 2.769-.555s2.767.293 2.767.555c0 .165-.495.39-1.567.502l.007.098c.202-.023.623-.075.998-.173l1.169.563c-.052-.067-.119-.173-.217-.173-.083-.54.232-1.154 0-1.537-.698-1.005-1.462-1.929-2.002-3.083-.232-.382-.69-.539-.998-.847-.233-.3-.772-.383-1.154-.151-.315.15-.466.616-.773.848-.457.15-.765-.232-1.08-.39-.24-.12-.623-.136-.93-.031.33.907.66 1.71.983 2.063.293.33.9.713 1.627 1.11.127-.292.45-.344 1.125-.344.96 0 1.177.127 1.192.757-1.358-.345-2.385 0-2.385 0l-.053.209c-.517.06-.982.149-1.26.277-.12-.36-.143-.944-.346-1.049-.765-.375-1.559-.136-1.972-.826-.345-.555-.247-1.289-.69-1.731-.037-.037-.114-.037-.144-.075-.172-.382-.488-.788-.308-1.208.165-.45.48-.9.308-1.387-.105-.345-.308-.689-.623-.899-.45-.345-1.004-.098-1.522-.24-.21-.067-.352-.346-.592-.413zm18.725 4.216l-.209 4.245c-.172-.09-.346-.166-.526-.218a.79.79 0 0 1-.082.067c.21.052.406.15.601.262l-.053 1.014c-.127.105-.241.202-.278.284-.233-.105-.615-.179-1.95-1.034.007-.038.142-.105.315-.18-.292-.142-.69-.367-1.298-.757.007-.053.406-.211.646-.331-.315-.06-.638-.044-.983.098-.007.105-.84.45-.855.548a17.74 17.74 0 0 0 1.26.734c-.075.045-.135.09-.135.113.555.36 1.126.668 1.726.968l-.022.255c.765.495 1.551.884 2.436 1.289.037-.083.128-.186.233-.299-.66-.308-1.245-.608-1.83-.983.007-.06.487-.248.719-.36l-.037.75h.757l-.015.248h.779l-.173.248.413.195c.052-.127.21-.277.375-.442h.06v-.053l.577-.555a3.33 3.33 0 0 0-.63-.375l-.27-5.474h-.735l-.007-.255h-.81zm.293.308h.217l.105 2.52-.12 2.483-.053.847h-.442l.293-5.849zm.743.255h.224l.293 5.849h-.81c.007-.045.03-.608.045-.81l.142-2.64-.007-.149.113-2.25zm-11.377 3.104c-.323.007-.637.061-.945.218-.195.075-.315.232-.233.464.037-.038.075-.119.113-.157.075 0 .233.074.308.037.352-.27.734-.457 1.154-.344.195.038.233.232.428.344.112.082.224.038.344.038.038-.15-.044-.27-.149-.382 0-.038-.083-.083-.045-.151-.322-.045-.652-.082-.974-.067zm.322.803l.157.082c-.038.015 0 .106 0 .151h.151c.038-.075-.076-.196-.151-.158-.045-.075-.082-.075-.157-.075zm-.382.045c-.083 0-.121 0-.158.075l.158-.075zm-.158.075c-.075-.03-.187.083-.149.158h.149c0-.038.037-.136 0-.158zm.555.555c-.09-.015-.195 0-.293.015-.09.03-.119.12-.217.188.03.03.06.06.075.06l.015.038c.203.06.413.007.623.007-.06-.022-.097-.083-.149-.105h.127c-.015-.128-.09-.18-.18-.202zm22.74 2.272l-1.485 1.26h.952l1.334-1.222-.801-.038zm1.229.038l-1.38 1.185h1.088l1.034-1.185h-.743zm1.132 0l-.998 1.185h.99l.833-1.17-.826-.015zm-22.22 1.192l-.548 4.545a.64.64 0 0 1 .083.195l.472 4.072.091-.413c.015-.075.089-.128.164-.113l.188.038c.083.015.135.098.12.173l-.39 1.784.683 5.76c.023.203-.12.376-.322.384l-1.028.06a.46.46 0 0 1-.45-.338l-.06-.3-.539 2.536.007.007c.075.015.126.09.111.173l-.127.57c1.852.367 3.368.465 3.683.06a2.89 2.89 0 0 1-.719-.023c-.172-.038-.316-.486-.278-.486.075-.067.076-.21.144-.248.307-.068.99-.608 1.245-.728-.023-.06-.015-.097 0-.127-1.23-.855-1.433-2.978-1.433-2.978l1.147-.248.24 1.148c.007.023.03.075.045.067l.51-.105c.015-.007.015-.06.015-.075l-.248-1.147 1.08-.233s.841 2.272-.231 3.517c.09.03.18.068.262.113.135.105.21.345.308.315.383-.18.592-.593.907-.87-.143-.383-.592-.45-.727-.825 0-.075-.038-.18 0-.248.277-.308.517-.622.652-1.005.075-.278.001-.585.038-.863.037-.21.269-.42.171-.555-.172-.277-1.837-.623-2.01-.93-.068-.105-.038-.285 0-.45.135-.487-.068-.9-.105-1.395 0-.24-.209-.451-.209-.721.525-.172 2.326.001 2.843-.209v-.135l-.766-1.358a.67.67 0 0 1 0-.344c.03-.045.053-.105.098-.127.428.075.953.029 1.365.097.27.068.344-.18.479-.39 0-.03.143-.031.211-.031.067-.038.104-.134.104-.209 0-.69-1.769-.825-2.114-1.455-.45-.795-.518-.931-1.245-1.523-.975-.765-.788-1.11-1.276-1.815-.442.622-1.034 1.358-1.462 1.651.03.33.007.667-.233.839l.067-.037-.255.224 1.98 8.947-.457.098-1.942-8.752c-.667.353-.427-.547-.562-.757.105-.165.217-.256.322-.346l-.045-.195c-.15.052-.292.037-.375-.187.12-.097.623-.75.743-.668a1.45 1.45 0 0 0 .308.091c.015-.03.839-1.53 1.147-1.882l-.12-.195-1.68-1.343-.075-.082zm21.899.188l-3.164 6.404h9.698l-2.512-6.404h-4.021zm-3.877.322l-6.69 6.36h5.137l.264-.368h-4.591l6.308-5.993h-.428zm4.132.091h3.48l2.19 5.58h-8.422l2.752-5.58zm-27.652.352c.022.532.046.938-.412 2.25.12.42.142.578.067 1.276-.015.157.007.3.037.45l.113.599c.022.15.075.293.127.428.008.015.008.023.008.038l1.11-1.644-1.05-3.397zm6.248 2.558a.77.77 0 0 1 .278.105c-.06-.075-.151-.128-.278-.105zm-.262.413l-.022.022.007.015c0-.007.007-.022.015-.037zm-6 2.37c-.232.105-.608.059-.608.359-.045.382-.158.96.262 1.132l-.164-.089c1.23.833 1.02.427 1.313.127-.233-.345-.728-.674-.855-1.087-.023-.037.525.63.69.127-.105-.083-.532-.637-.637-.57zm23.198.787l-3.781 6.308 1.509.098c1.02 0 2.646.307 2.744.817.105.51.451 1.492 1.269 1.597l2.542.3s-1.627.817-1.529 1.635c.068.517 1.62.42 2.82.457.697-.765 1.807-1.815 2.587-1.748 1.035.083 1.561.098 3.286-.33l-.127-1.238s-.638.743-1.605.743c-.465 0-.592-.435-.457-.817.127-.382.044-1.222-.031-1.327s.105-.51.105-.51c-1.073-.202-1.5-.968-1.5-.968s1.35-.382 1.68-.255.855-.345 1.373-.382c.667-.052.892.202.892.202s.383-.33.668-.33c.278 0 .022.51-.18.817 0 0 .511 1.298 1.223 1.478.307.075 1.319.089 2.399.097l-3.593-6.532-12.292-.113zm-6.397.12l-1.704 1.77.204.188 1.702-1.762-.202-.195zm.981.007l-2.092 2.19.202.195 2.093-2.197-.204-.187zm.961 0l-2.692 3.007.051.038c-.345.083-5.001 1.192-4.116 2.077.51.51 1.957.735 3.27.832l.592.038.661.029-.022-.171 4.417-5.67-.217-.173-4.23 5.438-.105-1.05 3.593-4.207-.209-.18-3.413 4.005-.082-.839.015.015 2.7-3.007-.209-.18zm2.909.007l-4.342 6.053.224.166 4.343-6.053-.226-.166zm1.822.36h11.693l1.389 2.603h-14.468l1.387-2.603zm-17.744.99l-2.139 9.644.158.038 2.137-9.646-.157-.037zm-5.956 5.55c.052.188.187.323.142.555.232 0 .412.411.502.231.142-.232-.412-.464-.135-.787h-.51zm16.282 1.14c-1.312-.015-2.58.308-3.863.308-.413 0-.202.345-.135.488.068.203.413.135.623.135v.209c1.59.135 3.113-.21 4.778.135.143.067.142.211.209.278.068.277-.068.555.067.697.345.413 1.11.068 1.38.548.142.21.075.487.075.697 1.042-.345 2.146-.555 2.978-1.387v-.278c-1.11-.622-2.423-.487-3.601-.832-.067 0 .068-.548-.067-.623-.42-.412-1.11-.135-1.74-.202-.068 0-.067-.144-.135-.144l-.57-.029zm-9.719 1.26c.203.405.405.81.757 1.065.157.157 0 .307.053.464-.405.097-.916.203-1.223.045-.3-.15-.509-.51-.712-.863-.045 0-.203.001-.248-.051-.052-.15-.052-.406 0-.406.398-.15.862 0 1.267-.053.105 0 .105-.202.105-.202zm24.39 3.067l-3.24 1.62-.029.855v.044l3.57.42-.3-2.94zm-12.353 1.2c-.817.105-1.327.615-2.137.817h-.615c.615.3 1.327.001 1.942.098l-.412-.098c.817.097 1.635.001 2.445-.104v-.308c-.405-.097-.916.209-1.223-.204v-.202z" class="C"/><path d="M115.24 20.385l-16.214 1.124.308 7.546.81-.059c.232-4.451.953-6.651 5.723-6.981l1.049 15.166c.15 2.167-.239 2.411-3.277 2.622l.067.974 9.584-.664-.067-.976c-3.03.208-3.449.019-3.599-2.146l-1.05-15.164c4.762-.33 5.715 2.052 6.623 6.124l.839-.059-.795-7.507zm3.863.013l-.149.967c2.678.422 2.984 1.077 2.789 2.335l-2.159 13.672c-.255 1.581-.961 1.747-3.346 1.368l-.157.965L133 42.377l1.62-7.491-.832-.133c-1.958 5.462-3 6.288-8.707 5.385-2.76-.435-3.031-1.001-2.783-2.555l1.028-6.514c3.435.543 4.657 1.478 4.417 5.092l.668.108 1.433-9.061-.697-.11c-.75 3.535-2.505 3.505-5.67 3.006l.945-5.98c.232-1.448.585-1.805 3.705-1.312 5.25.83 5.603 1.683 5.933 6.955l.75.12.945-6.857-16.649-2.631zm-32.325 3.694l-1.395.431-.668 17.24c-.052 1.21-.209 3.02-2.669 3.775l.284.936 7.11-2.186-.286-.933c-1.012.311-2.693.656-3.12-.719-.083-.259-.119-.759-.104-1.358l.015-2.73 6.637-2.041 1.291 1.79c.697.977 1.282 1.678 1.402 2.068.293.932-.908 1.385-2.67 1.926l.286.936 8.692-2.673-.293-.933c-1.837.568-2.624.695-4.087-1.296L86.778 24.092zm-.412 3.732l5.354 7.526-5.736 1.764.33-9.274.053-.016zm64.611.025l-.48.85c1.935 1.097 2.467 1.706 1.635 3.17l-5.212 9.214c-2.243 3.971-.255 7.403 2.834 9.154 3.517 1.991 7.065 1.905 9.24-1.945l4.44-7.843c1.267-2.245 2.347-3.101 4.567-1.846l.48-.85-6.187-3.502-.48.851c2.077 1.175 1.92 2.613.502 5.117l-4.289 7.585c-1.448 2.552-4.073 3.559-7.103 1.849-3.022-1.711-3.315-4.281-1.762-7.021l4.988-8.809c1.2-2.126 1.492-2.209 4.005-.791l.472-.851-7.649-4.33zM73.66 29.329l-14.046 8.19 3.615 6.628.703-.41c-1.759-4.096-2.089-6.386 2.035-8.792l7.658 13.128c1.095 1.874.855 2.267-1.772 3.798l.494.847 8.298-4.843-.495-.845c-2.625 1.532-3.083 1.55-4.179-.325l-7.66-13.129c4.126-2.406 6.037-.693 8.657 2.558l.728-.425-4.037-6.379zM55.711 39.951l-.547.488c.25.608.686 1.714.139 2.199-.872.776-3.142.469-4.969 2.093-2.456 2.181-2.786 5.162-.785 7.414 5.52 6.208 12.861-4.166 16.431-.148 1.768 1.987.942 4.286-.948 5.962-2.8 2.488-7.256 1.44-10.148-.712l-.527.469c1.01 1.134 2.138 2.201 3.148 3.337 1.392 1.562 1.928 2.248 2.355 2.813l.568-.504c-.34-.712-.636-1.905.073-2.534.789-.703 2.847-.066 5.159-2.12 2.477-2.2 3.611-5.461 1.248-8.118-5.753-6.473-12.634 4.583-16.6.12-1.462-1.644-1.032-3.733.488-5.086 2.885-2.562 6.731-1.336 9.524.617l.547-.487c-.847-.953-1.795-1.814-2.644-2.768s-1.613-2.017-2.513-3.032zm116.175.374l-.69.699c.953.93 2.145 2.431.93 3.672l-7.605 7.786c-1.703 1.749-3.435 3.245-5.632 1.105l-.683.699 5.483 5.348.674-.699c-1.59-1.556-1.544-3.151.384-5.13l7.551-7.729h.076l-2.858 20.013.51.492 11.168-11.433c1.748-1.789 3.173-1.268 4.373-.091l.681-.697-5.121-5.008-.683.697c1.268 1.462 1.395 2.884.067 4.244l-7.755 7.941h-.076l2.663-18.533-3.457-3.375zm16.567 17.502l-.81.549c1.44 2.109 1.53 2.711.202 3.612l-11.437 7.807c-1.32.906-1.853.61-3.293-1.499l-.81.552 5.071 7.421.809-.549c-1.485-2.177-1.566-2.777-.246-3.681l11.436-7.807c1.32-.904 1.853-.61 3.308 1.52l.81-.552-5.039-7.374zm-75.008.237l-6.87.396.031.398c1.103-.065 1.283.169 1.313.688l.33 5.64c.038.651-.239.779-1.222.836l.029.398 6.976-.403-.009-3.127-.337.019c-.315 2.347-.652 2.765-3.007 2.902-1.14.064-1.297-.137-1.334-.776l-.151-2.688c1.41-.082 1.98.184 2.197 1.648l.278-.016-.211-3.735-.292.016c.007 1.474-.698 1.615-1.995 1.69l-.151-2.464c-.03-.597.083-.771 1.365-.845 2.167-.124 2.386.184 2.971 2.257l.308-.018-.218-2.817zm9.166.583c-1.087-.014-1.906.617-2.093 1.676-.585 3.334 4.591 3.059 4.208 5.218-.187 1.069-1.133 1.384-2.153 1.206-1.5-.266-2.287-1.957-2.332-3.426l-.286-.051c-.113.61-.165 1.241-.27 1.853-.15.84-.233 1.182-.3 1.463l.3.056c.142-.291.45-.686.825-.62.427.073.743.894 1.988 1.113 1.335.237 2.663-.225 2.911-1.655.615-3.478-4.658-2.881-4.238-5.278.158-.885.937-1.277 1.755-1.132 1.545.274 2.129 1.815 2.212 3.204l.293.053c.09-.513.127-1.035.217-1.55s.241-1.026.338-1.573l-.3-.05c-.135.234-.375.653-.668.604-.465-.085-.945-.889-1.928-1.062a2.96 2.96 0 0 0-.479-.047zm-18.757.211l-3.473.883.091.384c.967-.243 1.208-.19 1.373.444l.615 2.414-3.398.858-.615-2.414c-.157-.634.03-.795.998-1.042L99.347 60l-3.48.883.098.384c1.013-.256 1.252-.203 1.409.432l1.396 5.474c.158.635-.03.797-1.043 1.053l.105.385 3.472-.883-.097-.385c-.968.246-1.208.192-1.365-.439l-.639-2.524 3.391-.86.637 2.524c.165.631-.03.793-.99 1.04l.098.384 3.479-.882-.097-.387c-1.012.258-1.253.205-1.418-.429l-1.387-5.476c-.165-.634.029-.797 1.034-1.05l-.097-.387zm24.938 1.232l-1.088 2.883.315.11c.803-1.637 1.417-2.349 3.262-1.717l-2.017 5.867c-.285.838-.472.867-1.649.464l-.127.378 3.705 1.273.135-.379c-1.17-.402-1.305-.541-1.012-1.378l2.01-5.864c1.845.632 1.822 1.681 1.515 3.355l.331.111.892-2.947-6.27-2.155zm-35.385 1.737l-6.031 2.763 1.201 2.837.306-.139c-.555-1.734-.6-2.678 1.17-3.491l2.588 5.64c.367.806.255.957-.87 1.474l.164.36 3.563-1.632-.164-.363c-1.133.517-1.32.506-1.687-.3l-2.581-5.637c1.77-.813 2.476-.038 3.413 1.386l.315-.144-1.387-2.754zm47.241 2.938l-5.25 4.692c-.367.328-.945.796-1.868.286l-.187.349 2.656 1.468.195-.349c-.382-.209-.96-.604-.675-1.119.052-.097.188-.25.368-.416l.803-.77 2.483 1.371-.158.888c-.09.481-.127.851-.209.998-.195.348-.667.127-1.32-.24l-.195.352 3.246 1.793.188-.349c-.682-.38-.944-.574-.772-1.569l1.223-7.091-.526-.292zm-.712 1.217l.022.012-.69 3.703-2.145-1.184 2.813-2.531zm-107.137.283l-.738 1.267 11.198 13.132c.782.922 1.893 2.356.596 4.583l.845.494 3.74-6.426-.841-.495c-.534.915-1.534 2.309-2.777 1.589-.233-.142-.602-.48-1.001-.93l-1.841-2.017 3.498-6.001 2.164.442c1.178.243 2.081.362 2.43.568.845.493.274 1.638-.656 3.231l.845.492 4.582-7.858-.847-.494c-.969 1.666-1.462 2.29-3.891 1.821l-17.307-3.399zm161.865.062l-.892.407c.938 2.048.907 2.364-.81 4.043l-12.644 12.479.344.765 14.399-1.036c2.543-.18 5.475-1.012 6.945 1.748l.894-.412-2.985-6.517-.885.412c.457 1.395.869 2.491-.713 3.218-.345.158-.795.277-1.635.33l-12.255.952-.022-.053 9.464-9.074c.6-.574 1.006-.998 1.523-1.235.592-.271.982.056 2.039 2.379l.885-.407-3.652-7.999zm-112.943 1.72l-5.385 4.22.24.313c1.02-.8 1.087-.791 1.717.012l3.18 4.061c.517.664.502.82-.473 1.578l.248.315 2.896-2.27-.248-.312c-.758.595-1.005.706-1.5.069l-1.651-2.099c1.222-.956 1.68-1.05 2.685.23l.226-.177-2.416-3.086-.224.177c.96 1.23.584 1.681-.519 2.542l-1.469-1.872c-.495-.638-.502-.743.683-1.671 1.605-1.264 2.242-.729 3.75.495l.188-.149-1.928-2.373zm64.515.354l-2.002 2.345.262.207c1.305-1.269 2.13-1.728 3.645-.505l-3.885 4.833c-.555.69-.742.655-1.709-.122l-.248.309 3.051 2.455.248-.306c-.96-.78-1.034-.951-.479-1.642l3.885-4.834c1.522 1.221 1.147 2.2.284 3.669l.271.218 1.844-2.47-5.167-4.157zm-111.217.889l9.038 1.906-3.022 5.184-6.044-7.043.028-.047zm118.26 4.992l-.3.264c.735.83.661 1.116.271 1.462l-4.238 3.731c-.487.435-.758.3-1.411-.435l-.299.262 4.627 5.243 2.459-1.928-.226-.262c-2.04 1.207-2.587 1.191-4.147-.579-.75-.855-.69-1.102-.202-1.522l2.017-1.786c.938 1.065 1.08 1.68.06 2.752l.188.211 2.805-2.483-.187-.209c-1.162.915-1.703.442-2.565-.533l1.852-1.635c.45-.395.654-.414 1.509.548 1.433 1.628 1.319 1.995.051 3.735l.204.231 2.084-1.904-4.553-5.164zm-78.975 1.204c-.871-.011-1.722.28-2.376 1.002-1.493 1.653-.634 4.105.794 5.395 1.433 1.29 3.96 1.905 5.452.255 1.492-1.657.637-4.109-.795-5.399-.81-.727-1.956-1.239-3.075-1.252zm-.803.645c1-.03 2.095.765 3 1.582 1.313 1.185 2.619 2.783 1.381 4.156-1.245 1.373-2.964.231-4.28-.954-1.316-1.193-2.617-2.789-1.377-4.162.388-.426.822-.609 1.276-.623zm-47.235 3.442l-1.91 6.899.943.262c.67-1.815 1.847-2.616 3.681-2.106l10.7 2.955.038.067L22.2 94.274l-1.285 4.649.94.262c.354-1.283 1.098-3.045 2.769-2.58l10.493 2.903c2.353.645 4.5 1.44 3.684 4.395l.942.262 2.036-7.38-.939-.262c-.592 2.145-2.01 2.88-4.679 2.145l-10.412-2.88-.035-.067 18.905-7.162.189-.683-15.41-4.26c-2.404-.66-2.639-2.168-2.19-3.788l-.942-.255zm177.21 6.705l-.952.195c.54 2.662.038 3.18-1.214 3.428l-13.567 2.767c-1.567.323-1.972-.292-2.452-2.662l-.961.195 3.42 16.784 7.582-1.094-.166-.833c-5.805.075-6.937-.607-8.092-6.27-.555-2.745-.12-3.195 1.425-3.51l6.457-1.312c.697 3.405.248 4.883-3.224 5.925l.135.659 8.984-1.83-.135-.69c-3.57.532-4.163-1.117-4.8-4.26l5.933-1.207c1.44-.292 1.898-.075 2.521 3.007 1.065 5.22.39 5.85-4.44 7.995l.149.741 6.757-1.507-3.36-16.522zm-42.816.524a5.06 5.06 0 0 0-2.168.541c-1.718.877-3.181 3.03-2.161 5.01 1.012 1.98 3.616 2.041 5.326 1.163 1.717-.885 3.179-3.03 2.167-5.01-.637-1.238-1.897-1.726-3.164-1.704zm-90.54.196l-.142.262c1.578 1.418 1.991 2.16 1.34 3.375l-.456.847c-.388.727-.592.624-1.488.144l-4.457-2.407c-.651-.352-.705-.532-.12-1.627l-.352-.187-1.764 3.278.352.195c.459-.855.637-1.074 1.553-.579l4.125 2.221c1.216.66 1.187.743.646 1.748l.352.188 3.129-5.812-2.719-1.649zm91.433.674c.795-.06 1.493.189 1.913 1.014.848 1.642-.826 2.857-2.401 3.659-1.575.818-3.532 1.47-4.38-.173-.84-1.65.826-2.857 2.408-3.667.788-.405 1.672-.773 2.459-.833zm4.673 6.451l-.382.119c.382 1.237.352 1.298-.623 1.598l-4.928 1.529c-.802.255-.938.181-1.305-.989l-.382.111 1.094 3.519.375-.12c-.285-.922-.299-1.2.473-1.433l2.55-.795c.465 1.477.382 1.943-1.17 2.423l.082.277 3.743-1.162-.082-.271c-1.485.457-1.777-.052-2.19-1.387l2.272-.705c.772-.24.87-.217 1.32 1.223.607 1.958-.112 2.355-1.792 3.33l.067.231 2.902-.959-2.024-6.539zm-97.388 1.192c-.24.75-.384 1.035-1.392 1.065l-7.2.142-.185.57 5.606 4.26c.391.308.96.781.634 1.786l.379.12.938-2.889-.379-.135c-.13.413-.412 1.057-.971.877-.102-.038-.283-.142-.479-.284l-.908-.645.873-2.692.901-.016c.49 0 .863-.036 1.022.016.379.127.248.629.019 1.349l.378.12 1.143-3.524-.379-.127zm-3.669 2.197l-.754 2.332-3.02-2.288.004-.022 3.77-.022zm-34.972 6.27c-4.723-.112-10.384 2.805-10.507 8.257s5.397 8.618 10.121 8.731c4.718.105 10.377-2.806 10.503-8.266.126-5.452-5.398-8.617-10.116-8.722zm28.286.202l-.882 6.825.398.053c.14-1.103.403-1.229.923-1.169l5.605.727c.646.082.718.368.595 1.351l.397.053.892-6.937-3.076-.579-.042.346c2.248.735 2.6 1.148 2.298 3.488-.145 1.14-.375 1.244-1.014 1.169l-2.672-.344c.182-1.41.551-1.92 2.03-1.868l.034-.27-3.715-.48-.034.286c1.45.27 1.459.982 1.289 2.279l-2.448-.315c-.595-.083-.744-.218-.582-1.5.279-2.145.623-2.31 2.771-2.498l.038-.308-2.807-.308zm-28.361 2.993c4.342.105 9.32.975 9.218 5.505-.107 4.537-5.117 5.182-9.458 5.084-4.342-.105-9.319-.975-9.212-5.505.103-4.537 5.113-5.182 9.453-5.084zm131.82.51l-.398.023.158 3.029.397-.022c-.023-.427.008-1.126.601-1.156.105-.015.308.023.548.091l1.08.27.149 2.834-.839.331c-.45.18-.788.344-.961.352-.39.022-.456-.495-.494-1.245l-.398.023.202 3.705.398-.022c-.045-.788-.023-1.11.914-1.493l6.668-2.723-.029-.592-6.766-1.973c-.472-.135-1.177-.383-1.229-1.433zm-19.38 1.156c-1.29 0-2.243.952-2.903 2.024-.007.007-.014.023-.029.031-.255.352-3 2.857-4.05 3.39-.51.3-1.433.097-2.055.51-.3.307-.509.818-.712 1.23-.502.495-1.192.607-1.702 1.087-.21-.015-.405.038-.502.3-.067-.038-.21.023-.255.045-.413.307-.624.719-.826 1.229-.21.21-.51.307-.817.517 0 .105-.209.203-.104.308h.306s1.471-.254 2.206-.217c.06.03 2.257.683 2.767.938.667.412 2.618 1.379 2.925 1.589.562.457.817 1.178 1.44 1.485a32.87 32.87 0 0 0 2.048.817c.953.51 1.792 1.62 1.942 2.76-.037.382.195 2.311.27 2.528.007.03.022.045.029.067 2.677-5.97 2.776-11.168 2.776-11.213v-7.236c-.3-.248-.586-.338-1.463-.773 0-.015-.007-.014-.007-.029-.053-.202-.157-.36-.262-.51-.255-.368-.667-.622-1.02-.877zm45.501.231l-.45 8.783.976.045c.12-2.272.24-3 2.707-2.873l6.075.308-.089 1.515c-.173 3.42-1.185 4.184-4.942 4.289-5.062.15-5.521 1.642-5.588 3-.098 1.845.991 2.933 4.966 3.3l.045-.81c-2.362-.233-2.768-.743-2.738-1.312.113-2.22 6.119-.532 8.399-5.789h.053c.15 3.487 1.793 6.428 4.478 6.563 4.117.21 5.002-3.766 5.159-6.833l.464-9.187-.974-.051c-.127 2.58-.315 3.059-2.108 2.969l-12.683-.652c-2.715-.135-2.909-.563-2.774-3.218l-.976-.045zm-23.173 1.014l3.637 1.042.007.023-3.51 1.38-.135-2.445zm-101.273 3.248c-3.531.135-1.838 5.167-4.274 5.257-.898.03-1.443-.646-1.477-1.478-.053-1.568 1.331-2.459 2.672-2.834l-.012-.3c-.52.023-1.038.098-1.56.113-.52.023-1.056-.015-1.605.007l.01.3c.257.075.718.224.728.524.014.472-.67 1.11-.631 2.108.046 1.342.898 2.219 2.13 2.174 3.387-.127 2.026-5.129 4.222-5.212 1.085-.038 1.594.818 1.633 1.846.054 1.53-1.434 2.662-2.864 3.015l.01.284c.621-.023 1.251-.105 1.871-.127.853-.03 1.207-.015 1.499-.007l-.015-.315c-.313-.075-.763-.285-.778-.675-.014-.427.719-.914.672-2.174-.046-1.35-.778-2.557-2.231-2.505zm134.723 2.054l6.18.315c1.358.068 1.777.442 1.635 3.127-.15 2.933-.743 4.395-3.937 4.23-3.802-.195-4.171-1.979-3.976-5.774l.098-1.898zm-36.427 1.583l-.464 3.555.397.051c.12-.922.195-1.214 1.192-1.087l2.468.322-.083.615c-.18 1.38-.622 1.657-2.152 1.582-2.062-.097-2.303.495-2.37 1.043-.097.75.308 1.23 1.92 1.507l.037-.33c-.953-.172-1.102-.39-1.072-.623.12-.9 2.505-.023 3.608-2.093l.022.009c-.052 1.417.525 2.67 1.613 2.813 1.665.21 2.152-1.38 2.317-2.618l.48-3.728-.391-.053c-.143 1.05-.232 1.237-.952 1.14l-5.145-.659c-1.103-.15-1.162-.323-1.027-1.403l-.398-.044zm3.983 2.895l2.505.322c.547.075.712.24.57 1.327-.158 1.185-.443 1.763-1.74 1.598-1.537-.202-1.635-.945-1.433-2.483l.098-.765zm-36.704.022c-.577.007-1.156.06-1.718.188l.204.105c1.283 0 2.468.307 3.75.51.562.052.959.495 1.484.825.795.495 1.726.225 2.153.668.51.51.367 1.643.57 2.101.112.27.766.697 1.538.772.645.06 1.327.082 1.844.457.69.502.728 1.815.413 2.055-1.163.877-2.31 1.643-3.18 2.776-.345.825.037 2.865 1.229 4.252.195.225.053.614-.202.921-.21.255.06 1.336.315 1.538.023.023.09-.022.173-.082a29.85 29.85 0 0 0 4.094-6.076c-.135-.232-.232-.434-.277-.712 0-.622.105-1.231 0-1.853-.15-.667-.795-2.204-1.793-2.917-.81-.585-2.961-2.131-3.179-2.416-.863-1.102-1.786-1.83-2.881-2.257-.345-.135-2.205-.72-2.812-.765a18.82 18.82 0 0 0-1.724-.091zm-89.377 2.108l-7.488 1.036.148.743c5.753.42 6.839.727 7.781 5.52l.866 4.395-19.855-8.399-.696.135 2.689 13.664 7.02-1.162-.13-.668c-2.419.09-6.236.068-6.945-3.524l-1.033-5.243 19.7 8.453.851-.166-2.908-14.782zm88.177.675l3.546 6.045h4.704l-5.588-6.045h-2.662zm-66.379 2.099l-2.952.901 1.708 6.412 2.999-.697-.085-.33c-1.801.255-2.742.135-3.24-1.748l5.996-1.589c.857-.233.983-.099 1.307 1.109l.384-.104-1.009-3.795-.384.105c.32 1.2.277 1.379-.58 1.611l-5.998 1.591c-.497-1.883.382-2.452 1.945-3.127l-.089-.338zm98.888 1.134l-1.014 3.524.391.113c.292-1.035.457-1.223 1.087-1.043l5.43 1.553c.63.18.675.427.39 1.44l.375.105 1.012-3.502-.39-.113c-.285 1.005-.45 1.185-1.08 1.005l-5.43-1.553c-.63-.18-.675-.42-.39-1.425l-.382-.104zm25.551 2.991l-.217.728c.667.42 1.544 1.275 1.274 2.19-.3 1.012-2.392 1.552-3.27 4.515-.952 3.172-.195 6.54 3.209 7.56 8.295 2.475 8.326-10.552 14.048-8.842 2.108.63 2.842 2.632 2.257 4.582-1.095 3.69-5.018 4.673-8.416 4.485l-.209.705c1.222.36 2.49.599 3.705.959 1.222.368 2.438.862 3.735 1.252l.209-.705c-.532-.382-1.484-1.088-1.274-1.793.33-1.118 2.423-2.055 3.12-4.395.938-3.142-.353-5.857-3.24-6.712-7.958-2.37-8.738 10.304-13.89 8.774-2.542-.757-3.052-3.15-2.332-5.565 1.072-3.593 5.414-5.04 8.999-4.74l.204-.674c-1.455-.435-2.97-.743-4.433-1.178-2.002-.6-2.82-.901-3.48-1.148zm-26.947 1.891l-2.481 5.625 2.752 1.402.119-.277c-1.822-1.485-2.115-1.846-1.312-3.668l.735-1.673 4.68 7.455.27.113 2.288-5.197-2.618-1.252-.113.248c.833.54 2.107 1.44 1.5 2.805l-.877 2.002-4.613-7.44-.33-.142zm-90.788.104l-.357.166c.325.712.423 1.021-.302 1.726l-5.181 4.994.249.541 7.006-.675c.493-.045 1.234-.083 1.676.877l.359-.171-1.273-2.752-.36.164c.18.39.414 1.05-.12 1.298-.1.052-.3.09-.543.12l-1.103.142-1.189-2.572.65-.615c.359-.338.611-.615.759-.683.365-.165.611.293.927.976l.363-.173-1.56-3.36zm-1.561 4.269l1.028 2.219-3.769.375-.006-.015 2.747-2.58zm-23.563 2.046l-.908.36c.959 2.453.904 3.06-.587 3.637l-12.891 5.048c-1.491.585-1.944.179-2.886-2.228l-.905.36 3.25 8.31.911-.353c-.931-2.377-.877-2.977.617-3.562l12.892-5.046c1.491-.577 1.941-.173 2.871 2.205l.913-.36-3.277-8.37zm113.123 2.146c-.998.045-1.95.45-2.565 1.38-1.222 1.86 0 4.154 1.605 5.212 1.612 1.065 4.2 1.283 5.43-.577 1.222-1.86 0-4.148-1.613-5.213-.803-.532-1.853-.846-2.858-.801zm-83.648.366l-2.644 1.673.198.278c2.152-.99 2.69-.922 4.059.998.662.93.57 1.169.05 1.544l-2.196 1.56c-.82-1.155-.898-1.778.224-2.745l-.161-.224-3.048 2.175.166.231c1.247-.787 1.739-.27 2.496.795l-2.016 1.433c-.483.345-.69.345-1.436-.705-1.261-1.762-1.113-2.116.331-3.713l-.177-.255-2.273 1.68 3.992 5.61.325-.233c-.644-.907-.542-1.178-.117-1.485l4.603-3.27c.529-.382.784-.226 1.359.584l.322-.239-4.056-5.694zm82.853.391c.93-.038 2.01.525 2.933 1.14 1.477.967 3.015 2.354 1.995 3.899-1.012 1.545-2.888.683-4.373-.292-1.478-.975-3.008-2.363-1.995-3.908.382-.577.885-.817 1.44-.839zm26.767 2.49l-3.914 8.084.877.428c1.148-2.37 1.635-2.745 3.075-2.048l12.45 6.037c1.44.697 1.447 1.306.322 3.631l.885.419 3.894-8.032-.877-.428c-1.118 2.295-1.598 2.662-3.038 1.964l-12.45-6.029c-1.448-.697-1.447-1.305-.337-3.608l-.886-.419zm-31.056 2.241l-2.161 2.243.286.278c.63-.652 1.274-.638 2.092.142l3.173 3.06v.029l-8.168-1.109-.202.209 4.695 4.522c.735.705.525 1.291.053 1.786l.286.277 2.024-2.106-.286-.271c-.592.517-1.169.571-1.731.038l-3.262-3.142v-.031l7.575 1.036 1.365-1.425-.286-.27c-.375.39-.99.877-1.5.382l-3.195-3.075c-.72-.697-1.336-1.395-.466-2.303l-.292-.271zm-73.176 2.041c-.42-.023-.938.262-1.673.959l.233.233c.705-.66.967-.653 1.14-.488.652.63-1.478 2.025-.473 4.132l-.015.023c-1.11-.892-2.456-1.17-3.215-.382-1.171 1.208-.181 2.549.719 3.412l2.691 2.61.286-.286c-.758-.735-.856-.915-.346-1.44L81 151.723c.765-.795.952-.743 1.724.015l.278-.293-2.572-2.49-.278.286c.667.652.856.878.158 1.605l-1.726 1.784-.442-.435c-1.013-.968-.968-1.485.008-2.67 1.313-1.597.967-2.137.57-2.527-.203-.195-.412-.307-.667-.315zm-31.191 1.387c-.935 0-2.172.451-3.889 1.471l.447.683c2.038-1.2 2.667-1.028 2.978-.548 1.214 1.868-4.639 4.02-3.391 9.623l-.042.029c-2.169-2.738-5.228-4.148-7.481-2.685-3.454 2.25-1.833 5.993-.16 8.558l5.017 7.718.82-.541c-1.406-2.16-1.535-2.655-.037-3.63l10.648-6.937c2.224-1.447 2.665-1.253 4.04.839l-.085.091c1.423 1.297 1.93 1.913.954 4.185l-6.979 16.2 1.083.99 15.195-8.175c1.071-.562 2.706-1.35 4.607.39l.661-.719-5.486-5.019-.665.721c.781.712 1.937 1.988.965 3.045-.181.203-.592.494-1.116.787l-2.36 1.373-5.127-4.687.889-2.017c.49-1.102.796-1.957 1.072-2.265.658-.72 1.656.082 3.016 1.327l.658-.719-6.419-5.881.045-.022-4.797-7.373-.816.533c1.243 1.912 1.573 2.564-.495 3.914l-5.101 3.315-.825-1.274c-1.865-2.865-1.492-4.08 1.485-6.368 4.006-3.097 3.496-4.582 2.758-5.722-.504-.772-1.135-1.216-2.07-1.216zm97.928 3.127l-2.483 1.748.233.33c.352-.248.96-.599 1.298-.119.067.098.142.285.209.517l.344 1.065-2.317 1.627-.727-.533c-.397-.285-.713-.486-.81-.614-.225-.33.179-.653.794-1.096l-.224-.322-3.038 2.137.226.33c.645-.457.937-.607 1.755-.022l5.851 4.207.486-.352-1.926-6.773c-.127-.472-.301-1.193.561-1.8l-.231-.33zm-68.594.176c.476.039.95.411 1.56 1.002l.555.541-1.748 1.815c-.388.398-.615.427-1.402-.338-.862-.825-1.157-1.402-.246-2.339.403-.42.747-.63 1.077-.675.069-.008.136-.01.204-.005zm8.602 1.122l-1.477 2.212c-.345.517-.803.285-1.23.007l-.224.331 2.782 1.859.226-.33c-.893-.6-1.028-.719-.406-1.649.66-.99 1.658-1.057 2.55-.457 1.642 1.095.525 2.977-.382 4.327s-2.213 3.105-3.863 2.002c-1.29-.87-.967-2.469-.69-3.706l-.262-.171-1.68 2.594.255.166c.24-.18.622-.353.899-.166.262.172.331.99 1.261 1.613 1.59 1.065 3.967.187 5.167-1.605s1.111-4.327-.479-5.385c-1.088-.735-1.837-.367-2.19-.599-.337-.225-.151-.518.022-.848l-.278-.195zm91.883.885l-5.603 7.808.795.57c1.778-2.467 2.19-2.677 3.952-1.409l12.353 8.857c-2.783 3.885-5.227 3.097-8.948 1.207l-.488.683 6.292 4.178 9.473-13.214-6.007-4.575-.473.659c3.277 3.023 4.515 4.973 1.733 8.858l-12.353-8.858c-1.762-1.268-1.703-1.725.067-4.192l-.794-.57zm-32.122 1.913l1.05 3.637-.023.015-3.029-2.235 2.002-1.417zm-104.978 2.94c1.572-.09 2.655 1.169 4.078 3.359l1.037 1.591-5.187 3.375c-1.136.742-1.694.683-3.158-1.567-1.601-2.46-1.981-3.998.705-5.738.994-.645 1.811-.975 2.525-1.02zm93.615.524l.211 2.625-2.394 1.11 2.565.615.308 2.618 1.38-2.25 2.588.51-1.711-2.002 1.283-2.295-2.437 1.005-1.793-1.935zm-36.944.555l-1.793 1.935-2.437-1.012 1.282 2.303-1.709 2.002 2.587-.511 1.381 2.25.306-2.616 2.565-.615-2.392-1.11.211-2.625zm27.659 1.56c-.158.007-.33.03-.502.06-1.32.277-2.115 1.47-1.89 2.543.12.585.427 1.034 1.08.899.39-.083.623-.473.548-.848-.09-.435-.45-.682-.885-.592-.052.015-.136.06-.196.082-.06.007-.105-.007-.12-.082-.097-.487.458-1.402 1.305-1.582.863-.18 1.523.111 1.771 1.296.277 1.327-.99 2.273-1.928 4.178-.337.697-.781 1.531-.713 1.838l.098.494 4.77-.981-.315-2.288-.33.06c-.022 1.222-.082 1.289-1.2 1.522l-2.288.473c.427-2.167 3.465-3.675 3.113-5.377-.24-1.14-1.162-1.755-2.317-1.695zm-19.5.142c-.63.607-1.538.511-2.295.353l-.089.435c1.2.248 1.402.457 1.267 1.132l-.892 4.402c-.157.735-.525.773-1.62.548l-.082.397 3.765.766.082-.391c-.983-.202-1.304-.381-1.154-1.116l1.327-6.466-.308-.06zm13.245.75l-.315.023c-.442.75-1.343.9-2.123.952l.037.442c1.222-.09 1.478.06 1.523.75l.308 4.485c.053.75-.301.892-1.411.967l.023.397 3.839-.262-.031-.397c-.99.067-1.357-.022-1.402-.772l-.45-6.586zm-7.365.031c-1.448-.105-2.475.899-2.572 2.279-.09 1.313.735 2.497 1.882 2.58.682.045 1.424-.442 1.649-1.08h.023c0 .21 0 .33-.015.51-.098 1.35-.435 3.435-2.055 3.315-.105 0-.675-.105-.668-.255.015-.165.532-.262.57-.772.03-.435-.255-.691-.683-.721-.375-.03-.727.278-.757.661-.06.833.645 1.365 1.425 1.418 2.055.143 3.247-2.033 3.39-4.05.112-1.537-.48-3.765-2.19-3.885zm-.157.315c1.125.09 1.342 1.155 1.274 2.07-.067.983-.57 2.167-1.553 2.092-1.162-.083-1.087-1.312-1.027-2.152.053-.75.255-2.077 1.305-2.01zm56.849 3.674l-7.343 6.653.653.719c2.377-2.145 2.669-2.264 4.364-.397l3.315 3.668 1.733 7.252c.472 1.988.795 3.967-1.192 5.76l.653.727 5.354-4.837-.652-.728c-.69.615-1.748 1.388-2.461.608-.157-.18-.465-.562-.577-1.012l-1.8-7.411 7.125 2.416c1.035.345 1.613.487 1.913.825.353.382.067.713-1.605 2.228l.653.719 6.584-5.947-.661-.727c-1.905 1.725-2.947 1.312-5.137.63l-8.152-2.581-3.082-3.404c-1.687-1.875-1.456-2.228.974-4.425l-.659-.735zm-110.07 7.381l4.422 4.049-8.159 4.411-.038-.031 3.775-8.429zm84.795 8.811c-.292.097-2.032 1.59-3.779 2.168-1.02.33-3.697.676-4.904.721l-.48.149 2.325 8.731c.06.277-.36 1.072-.113 1.822.12.375.585.607.99.472.592-.187.622-.974.457-1.484-.075-.24-.209-.466-.292-.713.247-.525 1.5-1.5 2.498-1.83 2.895-.945 4.425 1.162 5.243 3.659.967 2.955 1.237 5.753-2.175 6.877-1.635.532-3.631.068-4.396-1.267.143-.015.308-.037.473-.097 1.125-.368 1.785-1.269 1.395-2.446-.278-.862-1.297-1.326-2.159-1.049-1.365.45-1.605 1.897-1.2 3.135.705 2.145 3.314 3.578 6.426 2.558 3.9-1.282 5.678-5.168 4.598-8.476-1.058-3.217-4.507-5.122-7.649-4.087-1.5.495-2.483 1.05-3.3 2.363l-1.507-5.692c.84-.067 1.642-.15 2.474-.42 3.84-1.267 5.362-4.5 5.197-5.01-.023-.083-.068-.098-.12-.083zm-48.809 2.363c-1.755 1.373-4.035.907-5.925.33l-.33 1.081c2.992.922 3.465 1.508 2.947 3.18l-3.382 10.957c-.562 1.838-1.508 1.845-4.238 1.005l-.3.967 9.367 2.889.3-.968c-2.43-.75-3.21-1.29-2.64-3.12l4.957-16.094-.757-.226zm62.789.93c-.487-.03-.99.075-1.455.33-1.23.705-1.65 2.25-.952 3.48a2.53 2.53 0 0 0 3.472.952c1.245-.705 1.672-2.249.959-3.472-.442-.78-1.207-1.231-2.024-1.291zm-83.175.223a2.57 2.57 0 0 0-.369.003c-.814.067-1.578.524-2.011 1.296-.692 1.23-.261 2.776.973 3.473 1.248.697 2.788.262 3.47-.976a2.53 2.53 0 0 0-.974-3.472c-.346-.197-.718-.301-1.088-.325zm49.769 1.367a9.64 9.64 0 0 0-.479.031c-3.712.39-5.918 2.693-5.596 5.752.27 2.558 2.168 3.923 4.418 4.74-.99.877-4.447 3.135-4.192 5.58.27 2.67 2.475 4.74 6.637 4.313 5.452-.57 6.3-3.893 6.007-6.683-.21-2.048-2.332-3.9-4.724-4.733 1.583-1.155 3.449-2.886 3.224-5.046-.27-2.64-2.888-4.006-5.295-3.954zm-17.376.045c-3 .12-5.048 1.83-5.333 4.507-.277 2.557 1.305 4.29 3.322 5.558-1.14.645-4.995 2.137-5.257 4.582-.285 2.67 1.441 5.153 5.596 5.596 5.452.585 6.975-2.491 7.267-5.281.225-2.048-1.47-4.304-3.63-5.609 1.785-.81 3.975-2.107 4.207-4.267.292-2.812-2.309-4.771-4.837-5.033a9.02 9.02 0 0 0-1.334-.053zm.142.817a6.97 6.97 0 0 1 .795.045c2.108.225 3.929 1.522 3.674 3.907-.225 2.107-1.755 3.114-3.45 4.074-1.297-.907-5.077-2.73-4.822-5.07.225-2.13 1.958-2.941 3.803-2.956zm17.318.016c1.807.06 3.412 1.004 3.63 3.097.218 2.107-1.073 3.405-2.528 4.695-1.455-.622-5.534-1.612-5.774-3.945-.255-2.445 1.777-3.592 3.892-3.817.263-.023.526-.037.781-.029zm-18.698 9.741c1.898 1.365 5.414 2.76 5.106 5.625-.277 2.64-2.812 3.48-5.145 3.233-2.558-.27-4.275-1.68-3.99-4.373.247-2.362 2.093-3.413 4.028-4.485zm17.813.24c2.145.945 5.871 1.582 6.171 4.447.27 2.64-2.033 3.99-4.365 4.23-2.55.27-4.537-.75-4.815-3.45-.247-2.355 1.344-3.773 3.009-5.228z" class="B"/></svg>