<svg xmlns="http://www.w3.org/2000/svg" width="1000" height="1000"><path fill="#f5f5f5" d="M0 0h1000v1000H0z"/><path vector-effect="non-scaling-stroke" transform="matrix(3.7731 0 0 3.7731 .753187 -444.375349)" d="M217.272 203.582c-10.547 0-20.341 3.465-28.327 9.342-7.986-5.876-17.78-9.342-28.327-9.342s-20.341 3.465-28.327 9.342c-7.986-5.876-17.629-9.342-28.327-9.342-10.547 0-20.341 3.465-28.327 9.342-7.835-5.876-17.629-9.342-28.327-9.342C21.245 203.582 0 224.526 0 250.291S21.245 297 47.312 297c10.547 0 20.341-3.466 28.327-9.342 7.986 5.876 17.78 9.342 28.327 9.342s20.341-3.466 28.327-9.342c7.835 5.876 17.629 9.342 28.327 9.342 10.547 0 20.341-3.466 28.327-9.342 7.835 5.876 17.629 9.342 28.327 9.342 26.067 0 47.312-20.944 47.312-46.709s-21.245-46.709-47.312-46.709zm-28.327 70.817c-5.726-6.479-9.191-14.917-9.191-24.108s3.465-17.629 9.191-24.108c5.726 6.479 9.191 14.917 9.191 24.108s-3.465 17.629-9.191 24.108zm-56.653 0c-5.726-6.479-9.191-14.917-9.191-24.108s3.466-17.629 9.191-24.108c5.726 6.479 9.191 14.917 9.191 24.108s-3.465 17.629-9.191 24.108zm-56.653 0c-5.726-6.479-9.191-14.917-9.191-24.108s3.465-17.629 9.191-24.108c5.726 6.479 9.191 14.917 9.191 24.108.151 9.191-3.465 17.629-9.191 24.108zM9.794 250.291c0-20.341 16.875-36.915 37.518-36.915 7.684 0 14.917 2.26 20.944 6.328-7.232 8.136-11.602 18.834-11.602 30.587s4.37 22.45 11.602 30.587c-6.027 3.918-13.109 6.328-20.944 6.328-20.642 0-37.518-16.574-37.518-36.915zm73.228 30.587c7.232-8.136 11.602-18.834 11.602-30.587s-4.37-22.45-11.602-30.587c6.027-3.918 13.109-6.328 20.944-6.328s14.917 2.26 20.944 6.328c-7.232 8.136-11.753 18.834-11.753 30.587s4.37 22.45 11.753 30.587c-6.027 3.918-13.109 6.328-20.944 6.328-7.684 0-14.917-2.411-20.944-6.328zm56.653 0c7.232-8.136 11.753-18.834 11.753-30.587s-4.37-22.45-11.753-30.587c6.027-3.918 13.109-6.328 20.944-6.328s14.917 2.26 20.944 6.328c-7.232 8.136-11.753 18.834-11.753 30.587s4.37 22.45 11.753 30.587c-6.027 3.918-13.109 6.328-20.944 6.328s-14.917-2.411-20.944-6.328zm77.597 6.328c-7.684 0-14.917-2.26-20.944-6.328 7.232-8.136 11.753-18.834 11.753-30.587s-4.37-22.45-11.753-30.587c6.027-3.918 13.109-6.328 20.944-6.328 20.642 0 37.518 16.574 37.518 36.915s-16.876 36.915-37.518 36.915z"/></svg>