<svg xmlns="http://www.w3.org/2000/svg" width="809" height="808" fill="#00417c" fill-rule="evenodd"><path d="M404.054.066C180.899.066 0 180.913 0 403.962s180.899 403.896 404.054 403.896 404.053-180.847 404.053-403.896S627.246.066 404.054.066m1.246 800.356c-219.02 0-396.501-177.413-396.501-396.347S186.28 7.729 405.3 7.729s396.501 177.412 396.501 396.346-177.445 396.347-396.464 396.347zm268.582-602.578a5.23 5.23 0 0 0 2.246-3.133 4.57 4.57 0 0 0-1.114-3.492 4.66 4.66 0 0 0-3.152-1.887 4.8 4.8 0 0 0-3.777 1.151 7 7 0 0 0-2.285 2.812 18.6 18.6 0 0 0-1.132 4.379 20.7 20.7 0 0 0 6.098 1.491 5.33 5.33 0 0 0 3.116-1.321m-22.979 16.194 3.058 1.208c0-1.623.227-4.208.586-7.794l.888-7.361a14.1 14.1 0 0 0-4.57-.397 6.25 6.25 0 0 0-3.379 1.322 5.37 5.37 0 0 0-2.304 4.473 9.23 9.23 0 0 0 2.19 5.662 8.7 8.7 0 0 0 3.531 2.887M193.322 659.435l15.048-8.077-9.912-8.229zm95.992-573.192c-4.577-2.847-10.598-1.445-13.445 3.131a9.7 9.7 0 0 0-1.018 2.21c-.755 2.944-.133 6.908 1.888 11.965a21.6 21.6 0 0 0 6.476 9.758 8.63 8.63 0 0 0 8.704.811 8.51 8.51 0 0 0 5.834-6.341c.585-2.907 0-6.814-1.888-11.683s-4.04-8.097-6.551-9.852zM114.399 235.855a7.24 7.24 0 0 0-5.456-1.075 6.76 6.76 0 0 0-3.966 3.491l-2.17 3.775 12.272 6.87 2.341-4.133a5.96 5.96 0 0 0 .605-5.002 7.36 7.36 0 0 0-3.626-3.926m607.138 244.037a21.44 21.44 0 0 0-11.705-.623c-5.03 1.998-7.487 7.693-5.488 12.721a10 10 0 0 0 1.258 2.245 22.8 22.8 0 0 0 10.554 5.417c4.966 1.416 8.874 1.642 11.782.68a9.78 9.78 0 0 0 5.476-12.697 9.8 9.8 0 0 0-1.153-2.1c-1.944-2.303-5.494-4.19-10.724-5.643m-34.892 87.592a21.7 21.7 0 0 0-11.064-3.945 8.65 8.65 0 0 0-7.44 4.587 8.44 8.44 0 0 0-.868 8.568c1.265 2.68 4.154 5.436 8.572 8.21s8.043 4.096 11.103 4.021a9.76 9.76 0 0 0 8.843-10.596 9.8 9.8 0 0 0-.517-2.371c-1.171-2.793-4.06-5.605-8.629-8.474m-282.12-422.902c-142.873 0-259.142 116.187-259.142 258.985s116.269 258.965 259.142 258.965 259.066-116.168 259.066-259.003-116.212-258.947-259.066-258.947m.396 509.589c-138.688 0-251.117-112.385-251.117-251.02s112.429-251.019 251.117-251.019 251.117 112.385 251.117 251.019c.033 138.635-112.372 251.044-251.06 251.076h-.057zm22.904 73.116V714l-11.292 13.287zm-48.977-18.59a4.9 4.9 0 0 0-3.872 1.755 7.75 7.75 0 0 0-1.509 5.228 8.15 8.15 0 0 0 1.566 5.398 4.99 4.99 0 0 0 3.984 1.887 5.39 5.39 0 0 0 4.117-1.887 7.44 7.44 0 0 0 1.642-5.153 7.93 7.93 0 0 0-1.737-5.36 5.4 5.4 0 0 0-4.191-1.868m25.205-691.06c-213.355 0-386.475 173.052-386.475 386.324S190.698 790.38 404.053 790.38s386.532-172.996 386.532-386.419S617.579 17.637 404.053 17.637m349.488 363.562-19.693.925.604 13.023 19.674-.925.51 10.475-47.373 2.17-.491-10.474 19.844-.906-.585-13.004-19.844.868-.491-10.437 47.391-2.171zm-4.437-39.408a32 32 0 0 1 .471 6.681 18.8 18.8 0 0 1-1.322 6.625l-12.725.906-.529-2.737 4.739-.906c.506-1.043.9-2.138 1.171-3.265a12.4 12.4 0 0 0-.207-5.115 11.91 11.91 0 0 0-5.816-8.134 15.77 15.77 0 0 0-11.555-1.548 19.12 19.12 0 0 0-10.592 5.115 10.76 10.76 0 0 0-2.417 10.022 31.4 31.4 0 0 0 1.887 5.907 26.2 26.2 0 0 0 3.117 5.361l-8.497 1.642a18.8 18.8 0 0 1-3.399-5.474 33 33 0 0 1-2.039-6.285q-2.114-10.872 3.077-17.873c5.191-7.001 8.888-7.733 16.276-9.192a25.28 25.28 0 0 1 17.994 2.737q8.157 4.663 10.29 15.533zm-8.875-36.936-7.779 2.643-5.4-15.873-11.932 4.058 5.664 16.495-4.985 1.699-5.664-16.496-12.423 4.228 5.664 16.835-7.76 2.662-9.101-26.763 44.861-15.288 8.78 25.8zm-28.076-67.945 14.331 29.575-7.345 3.473-4.89-10.078-35.269 17.08-4.588-9.437 35.288-16.986-4.871-10.097 7.382-3.567zm-55.547-42.881a13 13 0 0 1 2.058-5.662 16.2 16.2 0 0 1 3.776-4.058 10.22 10.22 0 0 1 9.214-1.887 15.57 15.57 0 0 1 8.27 5.662 13.03 13.03 0 0 1 3.134 8.663 9.27 9.27 0 0 1-3.946 7.191 10.9 10.9 0 0 1-5.967 2.095 25.9 25.9 0 0 1-9.988-2.208 103 103 0 0 0-1.208 12.702c1.551.004 3.1-.136 4.626-.415a18.5 18.5 0 0 0 5.4-2.058l5.041 6.644a48 48 0 0 1-7.552 2.963 23.4 23.4 0 0 1-7.968.755l-.51 17.439-7.552-9.852.094-8.21a20.9 20.9 0 0 1-8.082-3.246 24.6 24.6 0 0 1-5.909-5.436 20 20 0 0 1-4.116-10.795 10.91 10.91 0 0 1 4.644-10.041 10.12 10.12 0 0 1 7.194-2.416 43.2 43.2 0 0 1 9.347 2.133zm-11.443-44.277-5.4 6.172-12.631-11.023-8.308 9.437 13.217 11.475-3.493 3.964-13.122-11.475-8.629 9.87 13.406 11.721-5.401 6.153-21.278-18.591 31.172-35.69 20.543 17.949zm-61.741-38.804q9.027-2.548 18.315 3.548a31 31 0 0 1 5.098 4.36 18.1 18.1 0 0 1 3.776 5.549l-8.307 9.663L600 132.52l2.625-4.02a13.7 13.7 0 0 0-1.492-3.114 12.5 12.5 0 0 0-3.776-3.454 11.86 11.86 0 0 0-9.856-1.548 15.92 15.92 0 0 0-9.252 7.154 19.5 19.5 0 0 0-3.776 11.173 10.76 10.76 0 0 0 5.476 8.7 29.7 29.7 0 0 0 5.664 2.775 26.7 26.7 0 0 0 6.004 1.548l-4.776 7.19a19.1 19.1 0 0 1-6.269-1.415 30 30 0 0 1-5.948-2.944c-6.137-4.077-9.648-8.965-10.592-14.722s.699-11.796 4.853-18.062a25.32 25.32 0 0 1 14.537-10.833m-44.37-30.198 8.176 33.67 11.329-24.535 9.1 4.209-19.844 42.899-4.172-1.887-8.081-33.841-11.499 24.819-9.1-4.209 19.881-42.993 4.191 1.887zm-45.994-15.458 26.075 7.851-2.36 7.87-16.049-4.851-3.644 12.041 16.672 5.058-1.51 5.039-16.691-5.039-3.776 12.551 16.992 5.134-2.379 7.851-27.075-8.172 13.689-45.297.056-.038zm-27.736-5.889 10.252 1.887-8.968 46.505-10.29-1.888zm-54.019 18.043a25.32 25.32 0 0 1 7.421-16.571q6.703-6.587 17.748-5.662a30 30 0 0 1 6.571 1.321 18.4 18.4 0 0 1 6.023 3.02l-2.512 12.513-2.85-.283.377-4.832a16.7 16.7 0 0 0-2.832-2.001 12.5 12.5 0 0 0-4.985-1.151 11.78 11.78 0 0 0-9.441 3.397 15.66 15.66 0 0 0-4.626 10.72 19.2 19.2 0 0 0 2.096 11.607 10.78 10.78 0 0 0 9.158 4.907 29 29 0 0 0 6.212-.302 24.6 24.6 0 0 0 5.929-1.585l-.643 8.606a19.4 19.4 0 0 1-6.192 1.888c-2.2.332-4.428.42-6.647.264-7.326-.566-12.801-3.114-16.388-7.719s-5.023-10.588-4.419-18.138zm-38.479-18.723a16.37 16.37 0 0 1 10.573-4.473 28.8 28.8 0 0 1 8.95.529 18.2 18.2 0 0 1 5.117 2.17l-.831 11.324-2.757.151-.264-4.435a27 27 0 0 0-2.927-1.208 11.6 11.6 0 0 0-4.89-.529 8.4 8.4 0 0 0-5.494 1.887 4.45 4.45 0 0 0-1.662 3.51 5.1 5.1 0 0 0 1.454 3.473 16.4 16.4 0 0 0 6.344 2.661 33.8 33.8 0 0 1 10.763 4.681 11.19 11.19 0 0 1 4.606 9.041 12.94 12.94 0 0 1-3.946 10.588 17.8 17.8 0 0 1-11.857 4.661 32.3 32.3 0 0 1-9.44-.547 35.5 35.5 0 0 1-6.59-2.246l-.566-9.229a28.3 28.3 0 0 0 6.324 2.755 20.9 20.9 0 0 0 7.76 1.057 11.03 11.03 0 0 0 6.515-2.001 4.96 4.96 0 0 0 1.888-4.265 4.25 4.25 0 0 0-2.511-3.775 41 41 0 0 0-7.364-2.567 23.8 23.8 0 0 1-9.44-4.624 11.33 11.33 0 0 1-3.776-8.248 12.57 12.57 0 0 1 4.002-10.456l.019.113zm-35.176 1.321 1.889 7.984-14.387 3.378 2.851 12.249 15.105-3.529 1.227 5.152-15.049 3.492 4.909 20.761-10.195 2.397-10.876-46.183 24.545-5.662-.019-.038zm-72.408 28.86a19.73 19.73 0 0 1 12.273-11.683c6.401-2.472 12.084-2.491 16.993 0s8.817 7.399 11.743 14.891a25.96 25.96 0 0 1 1.039 18.402c-4.778 11.187-17.725 16.383-28.917 11.606l-.217-.094q-7.702-3.906-11.8-14.438c-2.718-7.04-3.077-13.211-1.095-18.628zm-63.213 28.179 20.769 8.587v-22.252l9.837-1.548-.397 29.424 10.763 16.477-8.762 5.662-10.799-16.476-27.095-11.325zm-14.784 11.701 5.343 6.21-8.477 7.323 25.64 29.631-7.892 6.851-25.754-29.631-8.459 7.342-5.381-6.229 24.886-21.497zm-34.666 31.595 34.477 32.5-7.175 7.55-34.495-32.388 7.212-7.549zm-27.754 31.764a29 29 0 0 1 6.23-6.474 17.8 17.8 0 0 1 4.985-2.529l8.156 8.022-1.7 2.208-3.549-2.68c-.973.417-1.92.896-2.832 1.434a12.8 12.8 0 0 0-3.606 3.379 8.55 8.55 0 0 0-2.115 5.36 4.38 4.38 0 0 0 1.586 3.548 4.9 4.9 0 0 0 3.569 1.151 15.95 15.95 0 0 0 6.06-3.038 34.5 34.5 0 0 1 10.574-5.096 11.12 11.12 0 0 1 9.874 2.378 13 13 0 0 1 5.495 9.871 17.8 17.8 0 0 1-4.191 12.041 33.2 33.2 0 0 1-6.571 6.87 33.8 33.8 0 0 1-6.042 3.548l-7.25-5.586a30.3 30.3 0 0 0 6.249-3.039 21.3 21.3 0 0 0 5.816-5.247 10.8 10.8 0 0 0 2.738-6.266 4.99 4.99 0 0 0-2.002-4.228 4.19 4.19 0 0 0-4.418-.528 42.7 42.7 0 0 0-6.741 3.945 24 24 0 0 1-9.723 4.227 11.16 11.16 0 0 1-8.686-2.51 12.63 12.63 0 0 1-5.324-9.852 16.1 16.1 0 0 1 3.437-10.928zm-26.642 41.371a17.87 17.87 0 0 1 8.988-8.701 12.24 12.24 0 0 1 10.686 1.076 12.86 12.86 0 0 1 5.664 5.492 10.27 10.27 0 0 1 .831 6.738l26.434-1.321-5.665 10.173-23.45.812-2.059 3.68 17.503 9.814-5.098 9.116-41.386-23.082zm-14.633 28.782 7.552 3.001-6.136 15.59 11.725 4.605 6.382-16.212 4.928 1.887-6.42 16.231 12.216 4.775 6.647-16.552 7.552 3.001-10.346 26.291-44.012-17.269 9.988-25.348zM66.14 308.687l6.155-7.927 38.461 29.273-1.057 4.435-47.656 8.361-1.624-10.116 31.739-5.247-25.886-18.779zm-8.836 46.957 47.014 5.851-1.285 10.381-47.051-5.851zm-3.455 60.151 27.34-21.403-27.113-.17V384.2l47.391.264v4.606l-27.528 21.383 27.358.17v10.041l-47.391-.283v-4.586zm4.682 45.485 32.343-4.737a7.55 7.55 0 0 0 4.89-2.397 6.64 6.64 0 0 0 1.095-5.549 6.76 6.76 0 0 0-2.87-5.171 10.22 10.22 0 0 0-6.873-.755l-30.663 4.473-1.303-9.078 32.098-4.681a15.35 15.35 0 0 1 11.687 2.548c3.324 2.378 5.363 6.455 6.231 12.268s0 10.097-2.322 13.117a15.9 15.9 0 0 1-10.687 5.662l-32.098 4.7zm10.63 45.184 45.106-14.59 3.211 10.003L72.39 516.41zm18.636 47.92 29.757-13.514a7.68 7.68 0 0 0 4.059-3.661 6.77 6.77 0 0 0-.472-5.662 6.96 6.96 0 0 0-4.211-4.209 10.27 10.27 0 0 0-6.815 1.208l-28.322 12.796-3.776-8.323 29.606-13.419a15.56 15.56 0 0 1 11.97-.774c3.776 1.359 6.929 4.699 9.44 10.059s2.814 9.664 1.398 13.212a15.9 15.9 0 0 1-8.705 8.342l-29.567 13.438zm25.49 44.693 16.558-10.664-7.042-10.966-16.578 10.683-5.664-8.795 39.821-25.687 5.664 8.814-16.692 10.758 7.062 10.965 16.672-10.777 5.665 8.796-39.802 25.687zm37.762 47.297 6.023-34.105-20.297 17.968-6.665-7.55 35.496-31.405 3.059 3.435-6.212 34.255 20.486-18.137 6.646 7.549-35.458 31.444zm30.512 28.424-2.511-2.095 14.594-49.94 8.799 7.304-2.53 8.172 12.707 10.551 7.269-4.247 7.987 6.644zm162.508 69.398h-11.763v-27.99a35.5 35.5 0 0 1-5.664 3.53 40.6 40.6 0 0 1-6.74 2.548v-9.437a28.6 28.6 0 0 0 9.27-4.681 18.86 18.86 0 0 0 5.192-6.681h9.63v42.768zm48.128-4.567a17 17 0 0 1-13.216 5.284 22.2 22.2 0 0 1-7.911-1.132 12.5 12.5 0 0 1-4.834-3.416 15.5 15.5 0 0 1-2.965-5.662l11.65-1.454a6 6 0 0 0 1.567 3.435 3.78 3.78 0 0 0 2.663 1.019 4.87 4.87 0 0 0 4.379-2.831 26.4 26.4 0 0 0 1.738-8.87 14 14 0 0 1-4.324 3.152 12.1 12.1 0 0 1-5.098 1.038 12.78 12.78 0 0 1-9.553-4.039 13.98 13.98 0 0 1-3.89-10.154 15.1 15.1 0 0 1 1.888-7.55 12.95 12.95 0 0 1 5.456-5.209 18.8 18.8 0 0 1 8.704-1.774 20.1 20.1 0 0 1 10.139 2.171 15.23 15.23 0 0 1 6.118 6.87 29.05 29.05 0 0 1 2.285 12.475c0 7.549-1.624 13.212-4.796 16.684zm51.073-3.303h-5.23v7.87h-10.176v-7.87h-21.356V726.7l21.318-25.328h10.214v25.857h5.268v9.04zm42.01.887a13.37 13.37 0 0 1-5.664 5.662 20.4 20.4 0 0 1-9.441 1.887 27.4 27.4 0 0 1-7.137-.774 14.2 14.2 0 0 1-5.041-2.359 13.2 13.2 0 0 1-3.361-3.548 17.8 17.8 0 0 1-2.171-4.888l11.782-1.322a7.32 7.32 0 0 0 2.021 4.304 5.3 5.3 0 0 0 3.775 1.491 5.02 5.02 0 0 0 4.041-1.888 8.22 8.22 0 0 0 1.604-5.53 8 8 0 0 0-1.604-5.511 5.47 5.47 0 0 0-4.267-1.736 6.7 6.7 0 0 0-3.266.83 9.5 9.5 0 0 0-2.606 2.171l-9.95-1.435 3.775-22.648h27.793v9.305h-18.88l-1.02 6.304a18.7 18.7 0 0 1 3.776-1.378 15.2 15.2 0 0 1 3.776-.453 14.16 14.16 0 0 1 10.252 3.775 12.9 12.9 0 0 1 3.966 9.644 16.3 16.3 0 0 1-2.058 7.832zm-81.188-66.832c-146.932 0-266.467-119.508-266.467-266.42S257.16 137.654 404.054 137.654 670.54 257.143 670.54 403.961s-119.535 266.42-266.486 266.42zm237.297-7.681-21.657-5.832 2.624 22.101-9.553 2.774-3.192-29.235-12.782-14.986 7.987-6.813 12.764 15.099 28.321 7.813-4.512 9.211zm24.828-25.971a26.7 26.7 0 0 1-5.325 4.53 17.7 17.7 0 0 1-5.777 2.812l-7.836-8.738 1.888-2.114 3.021 2.661a10.5 10.5 0 0 0 3.568-1.359 16 16 0 0 0 3.947-3.378 10.63 10.63 0 0 0 2.455-9.852 18 18 0 0 0-5.834-9.437 19.76 19.76 0 0 0-10.63-5.285 10.78 10.78 0 0 0-9.441 4.304 19.5 19.5 0 0 0-1.888 2.491 12.3 12.3 0 0 0-.944 1.887l9.44 8.191 5.116-5.945 4.023 3.454-10.8 12.438-17.352-15.005c.192-2.6.938-5.13 2.19-7.417a34 34 0 0 1 4.021-6.342c5.098-5.869 10.575-8.681 16.484-8.493a25.68 25.68 0 0 1 16.351 6.757 26.43 26.43 0 0 1 8.931 15.892 20.85 20.85 0 0 1-5.532 17.967zm35.571-47.693q-5.437 8.739-13.518 10.21c-8.081 1.471-11.498-.622-18.334-4.812a25.9 25.9 0 0 1-11.895-14.08c-2.94-11.76 4.215-23.677 15.98-26.618l.372-.088q8.515-1.51 18.106 4.454c6.401 3.945 10.423 8.701 12.084 14.212a19.79 19.79 0 0 1-2.795 16.722m24.376-47.618-35.874-15.609-7.42 16.986-7.553-3.284 11.613-26.649 43.426 18.873-4.154 9.588zm16.068-45.297q-2.72 9.965-10.026 13.683c-7.306 3.718-11.196 2.675-18.975.585a25.9 25.9 0 0 1-15.426-10.097 21.95 21.95 0 0 1 7.788-30.051l.255-.147q7.74-3.887 18.617-.906c10.877 2.981 12.474 5.411 15.671 10.267a19.76 19.76 0 0 1 2.115 16.836zm11.442-68.587-29.247 18.534 27.038 2.963-1.077 9.984-47.202-5.02.491-4.586 29.473-18.534-27.207-2.888 1.075-9.984 47.203 5.039zM300.02 576.582l-.586-1.566s0-1.699-2.983-1.34a16.6 16.6 0 0 1-2.775-.585s-2.568-1.303-6.382 1.113c0 0-3.776.698-2.926-2.038 0 0-.775-3.114 6.608-4.436l5.89-.32a3.546 3.546 0 0 0 .888-4.832s-.585-1.699-4.418-.981c0 0-3.247.905-3.606-.397a8.57 8.57 0 0 0 0-4.473s-.264-2.397-3.437-.925c0 0-3.04-.377-3.285 5.247 0 0-.623 3.02-3.398 2.435 0 0-2.776 0-3.002-.51 0 0-2.058-3.076-4.041-.547a4.15 4.15 0 0 0 0 2.378s-4.135 3.058-2.153 6.7c0 0 1.643 3.058 4.022.698a17 17 0 0 0 2.002-2.661l2.491.416a2.49 2.49 0 0 1-.396 3.491l-2.417 3.039s-8.609 1.113-9.628 2.038c0 0-2.153.113-2.493-1.019a2.1 2.1 0 0 0-2.951.281 2 2 0 0 0-.165.229s-2.794 2.189-.566 4.284c0 0 3.305 3.152 10.101-.17 0 0 4.173-1.661 4.532 1.283a4.23 4.23 0 0 0 2.606 4.813 4.42 4.42 0 0 1-4.079 2.378s-6.419 0-7.402 3.775c0 0-.528 1.887 2.7 1.585a17.4 17.4 0 0 0 12.707-3.51s2.511-2.189 3.777-.151c0 0 4.173 6.719 6.948 7.323a4.21 4.21 0 0 0 4.033-4.379 4.3 4.3 0 0 0-.257-1.283 12.12 12.12 0 0 0-6.268-6.474s-2.756-2.378 0-3.473c0 0 1.51.51 3.285-3.151 0 0 .887-2.454 2.908-1.756l3.606.51s2.303-.51.51-3.171zm-14.916 5.983a2.87 2.87 0 0 1-4.154 1.416c-1.888-2.227 1.133-4.247 1.133-4.247a1.72 1.72 0 0 1 2.364-.562c.229.141.421.334.563.562a1.89 1.89 0 0 1 .256 2.657 2 2 0 0 1-.162.174m69.216 13.91-8.213-3.133s-6.382-3.152-4.078-6.587c0 0 3.115-3.775 0-5.662 0 0-4.664-2.114-.567-4.322l2.775-1.189s1.775-1.472-1.302-2.208a2.53 2.53 0 0 1-1.888-1.51s-.774-2.869-3.059-.736a2.64 2.64 0 0 0-.094 2.812s-2.285 3.265-1.492 5.077c0 0 .454 2.51-1.189 2.812 0 0-3.606 1.887-4.626-.415 0 0-.774-1.378 1.019-2.963 0 0 3.776-2.492.454-3.511 0 0-1.549-.642.226-1.793a4.55 4.55 0 0 0 1.983-3.774s-1.039-1.661-3.022 1.207l-2.719 1.888s-4.021 1.094-3.775-2.68c0 0-.548-3.605 1.699-3.775l3.663.887s2.096.642 4.002-2.34a3.78 3.78 0 0 1 3.154-1.208 3.51 3.51 0 0 0 4.583-1.91q.2-.49.25-1.016a2.13 2.13 0 0 0-1.078-2.817 2 2 0 0 0-.3-.108s-1.889-1.453-3.776 2.51c0 0-2.341.906-2.946 0v-2.774s.491-2.265-2.284-1.756c0 0-1.115-.113-1.7 3.964 0 0-1 3.945-3.776 2.472a2.89 2.89 0 0 0-3.531-1.151s-2.058.604-1.888 5.36a8.7 8.7 0 0 0 1.096 4.152s1.302 1.793-1.058 3.115c0 0-3.965 1.793-3.625 4.435 0 0-1 3.246 1.472 2.888l1.266-.321a5.34 5.34 0 0 0-.887 2.699s-3.985 2.208-3.947 4.284c0 0-4.249 2.491-2.228 5.662 0 0 1.888 2.605 2.794-.906 0 0 1.19-2.529 1.756-1.887 0 0 1.889 1.642-.283 4.209 0 0-1.888 4.246 1.284 5.831 0 0 2.794.888 1.737-6.473 0 0-.226-4.454 2.341-6.228a2.72 2.72 0 0 1 3.838-.238 2.7 2.7 0 0 1 .694.955s.736 3.038-2.19 2.736c0 0-3.097-1.189-2.606 1.888 0 0-.849 3.907 2.077 4.246 0 0 .85-.151 1.076-1.434 0 0 1.379-1 1.888 1.359 0 0 2.172 2.435 2.889-1.623 0 0-.755-2.51 1.756-1.888 0 0 3.776 2.529 4.872-.321 0 0 2.321-2.849 5.211.831l3.643 5.058a5.21 5.21 0 0 0 5.872 0s2.04-.906 2.643-.34c0 0 2.625-.811.359-2.265zm-29.398-11.853c-4.493-.283-2.492-3.133-2.492-3.133 2.304-2.887 4.89.151 4.89.151a2.435 2.435 0 0 1-1.826 2.92 2.4 2.4 0 0 1-.572.062m2.531-7.908c-.925 1.982-3.777.812-3.777.812-1.888-1.208 0-3.209 0-3.209 4.022-1.642 3.777 2.397 3.777 2.397m7.174 10.532c.114 3.359-2.171 2.718-2.171 2.718-2.096-1.057-.812-3.775-.812-3.775.51-1.888 1.888-1.057 1.888-1.057a1.886 1.886 0 0 1 1.039 2.189zm4.947-2.095c-.359.981-1.624.34-1.624.34-1.435-.944 0-1.888 0-1.888 2.002-.151 1.624 1.548 1.624 1.548m30.721-9.986-4.059 1.528s-1.681.699.264 2.095a3.056 3.056 0 0 1 .623 4.02l-4.532 9.06s-1.321 3.775 2.851 3.359c0 0 7.364-3.491 8.592-5.662a4.38 4.38 0 0 0 2.794-3.171s1.662-2.151.378-2.793l-3.587.189s-.851-.925.358-2.359c0 0 2.228-4.719.17-5.813a2.53 2.53 0 0 1-1.435-2.397l1.001-3.775 2.794-4.247s2.172-2.604-1.888-3.453l-7.194 2s-2.568 1.114 1.888 5.115a3.4 3.4 0 0 1 1.095 3.133zm26.545 11.721h-6.004s-1.434-1.887 2.625-3.076a3.3 3.3 0 0 0 .919-4.579 3.3 3.3 0 0 0-.655-.725s-2.341-.679-.359-2.416a2.207 2.207 0 0 0 .35-3.102 2.2 2.2 0 0 0-1.274-.786s.641-1.623 5.664-5.907c0 0 6.003-2.529 1.888-5.171 0 0-2.889-3.322-10.082-.869 0 0-4.476 1.888-5.155 3.417 0 0-1.511.736-1.133-1.076 0 0-.435-.906-1.34-.151 0 0-.34 1.604-1.077 1.585l-.189 6.53s-1.076 7.55 3.228 6.606c0 0 3.381 1.17 1.719 2.435 0 0-4.758.755-1.604 3.945 0 0 1.604 2.453-4.287 4.963a3.286 3.286 0 0 0-1.122 4.507 3 3 0 0 0 .254.363 5.21 5.21 0 0 0 6.381.906s8.364-2.303 11.178-1.321c0 0 3.323 2.623 4.286-.453 0 0 1.775-4.889-4.154-5.663zm-3.927-23.856c2.096-1 1.738 1.246 1.738 1.246a2.606 2.606 0 0 1-2.871 2.132c-1.887-1.377 1.133-3.378 1.133-3.378m-7.25 10.173c-1.888.396-.68-2.529-.68-2.529 1.889-1.302 2.361.226 2.361.226a2.34 2.34 0 0 1-1.681 2.303m.283-5.474c-1.775-.32.529-3.246.529-3.246 2.095-.83 2.058 1.378 2.058 1.378a1.89 1.89 0 0 1-1.768 2.001 1.9 1.9 0 0 1-.819-.133m43.162 10.001-1.774 4.813s-.51.831-4.381 1.189c0 0-10.346 1.152-10.422 4.983 0 0-.547 3.397 5.362 2.284 0 0 12.971-2.907 19.07-2.699a9.45 9.45 0 0 1 5.231 1.359s6.23 2.774 7.911 0a3.34 3.34 0 0 0-.97-4.624l-.088-.057s-.887-2.133-2.662-2.397a50.3 50.3 0 0 0-9.441 0h-1.642l-.113-5.662s0-2.812 3.775-4.228c0 0 4.966-1.189 6.081-4.68 0 0 .434-2.492-2.663-2.831 0 0-.472-1.68-3.776-.831 0 0-10.272 2.038-13.708 2.435 0 0-4.059.623-.982 3.774a15.9 15.9 0 0 1 4.758 2.813 3.77 3.77 0 0 1 .434 4.359m50.961-12.757-.226 8.795s-.642.944-2.908.736c-1.148.17-2.279.442-3.38.812 0 0-6.174-.567-5.325 2.189 0 0-.245 2.095 4.23 2.548l4.211 1.227s1.453.66-.34 3.152a14.54 14.54 0 0 1-7.741 6.813s-4.305-.151-4.947 2.737c0 0 .189 2.717 6.966.925a17.37 17.37 0 0 0 11.801-7.418l2.059-3.303s4.21.982 10.214 7.833l3.229 3.869s3.775 3.076 5.664-2.718c0 0 1.114-3.548-6.702-8.663 0 0-4.891-3.435-8.856-3.51 0 0-3.285-.755-.68-2.643l8.176-3.642s5.928-.359 6.23-4.303a9.6 9.6 0 0 0-2.643-3.36s-1.34-.528-4.323.83l-4.419 2.058s-2.077 1.189-1.982-2.076l.925-5.663s0-2.774-3.588-3.076c0 0-5.928-1.642-5.664 2.944zm68.085 3.399a27.7 27.7 0 0 0-7.308 0 28 28 0 0 0 .378-4.945c.019-1.472.36-2.921 1.001-4.246a10.6 10.6 0 0 0 2.095-4.756s.699-1.888-3.511-.793a14.3 14.3 0 0 1-3.323 1.887s-2.134 1.151.434 2.095c0 0 2.304.906-.264 2.963 0 0-3.777 1.303-3.777-1.038l.624-3.397s.623-2.907-1.53-3.209c0 0-2.228-.32-2.077 3.266 0 0 .189 2.208-1.434 2.076 0 0-1.53.736 0 1.887l.698 4.379s.83 1.302-1.151.849l-.36-4.077a5.6 5.6 0 0 0-1.038-2.113s0-2.341-1.794-1.586l.283 6.889s-1.189.68-1.378-.396l-.963-3.775s-1.001-2.152-2.435-1.302c.196 2.5.561 4.984 1.095 7.436l1.321 5.662a2.2 2.2 0 0 0 1.19 1.283s1.189.755-.378 1.265c0 0-.925 2.321-2.964 1.585l-.397-3.567a1 1 0 0 0-1.755-.113l-1.681 5.096s-1.038 3.907 1.888 3.661a3.29 3.29 0 0 0 1.889-2s2.737-3.152 4.587-3.19l8.101-3.359 5.494-2.152 1.095-.226a1.42 1.42 0 0 1-.982 1.434s-1.379 1.472 1.888 1.717c0 0 7.099.906 8.044-1.396a2.34 2.34 0 0 0-.381-3.288 2.33 2.33 0 0 0-1.149-.487zm-21.071 4.907c-1.342-1.623-.794-5.247-.794-5.247 1.039-1.057.907.774.907.774-.006.999.166 1.99.509 2.926.491 1.887-.622 1.547-.622 1.547m9.818-6.587c1.227 3.209 0 2.85 0 2.85l-2.134-1.887a2.47 2.47 0 0 1-.343-3.48c.152-.185.332-.35.532-.484a4.7 4.7 0 0 1 1.264-1.189c2.134 0 .643 1.416.643 1.416-2.341.755.038 2.774.038 2.774m-9.65 11.737s-.529 2.642 2.228 1.887l2.341-1.661a20 20 0 0 1 1.888 2.699s.34 1.34-1.359 1.699l-5.286 1.68s-1.776.962.509 1.793c1.429.619 2.976.915 4.532.868 0 0 2.587-1.189 2.453.17 0 0 1.19 5.567-1.887 7.549a18.3 18.3 0 0 1-7.005 1.623s-2.681.585.623 1.586l6.231 1.094s3.549 1.095 4.625-3.774a17.24 17.24 0 0 0 .133-9.23s-.51-1.793 1.699-2.076c0 0 3.494-.283 3.777-2.284 0 0 .453-1.66-2.493-1.547l-3.89.679a2.3 2.3 0 0 1-.264-2.925s2.455-.793 2.511-2.793c0 0 0-1.605-1.662-.718l-3.964 1.038a16.7 16.7 0 0 0-5.74 2.643"/><path d="m557.216 251.971-.888-.887c-6.023-5.869-43.426-39.936-73.277-10.097-23.978 23.951-7.137 51.204-7.137 51.204s-8.76 9.437 2.756 21.384l.359.377-136.547 128.775c-3.776 3.775.547 8.267.547 8.267l-4.852 4.869-5.023-5.039-10.554 10.532 5.041 5.02-16.105 16.024-4.966-4.964-1.057-1.057-6.08 6.077-3.625-3.623 6.08-6.078-14.538-14.532-7.213 7.19 7.949 7.965-6.628 6.606-7.967-7.927-5.381 5.398 7.948 7.965-6.626 6.624-7.969-7.946-8.307 8.305 14.557 14.532 6.117-6.115 3.607 3.624-6.118 6.115 6.024 6.021-8.724 8.701a7.55 7.55 0 0 0-.77 10.648q.357.413.77.77c4.702 4.7 8.403 2.152 9.837.736l30.21-30.198 29.87-29.82 4.871 4.851 10.555-10.551-5.306-5.473 4.814-4.813s4.306 4.133 8.101.321l132.733-132.568c12.065 12.06 21.77 3.114 21.77 3.114s27.245 16.873 51.224-7.078c30.078-30.047-4.645-67.756-10.158-73.381zM272.49 531.566l-2.643-2.662 11.574-11.55 2.643 2.642zm62.647-62.585-20.769 20.761-2.643 2.642-2.644-2.642-4.456-4.455 2.644-2.623 4.456 4.435 20.769-20.761-4.57-4.586 2.644-2.605 3.021-2.982 2.644 2.624-3.022 3.02 1.888 1.887 2.644 2.642-2.625 2.643zm16.049-24.329a3 3 0 0 0 .491 4.983l-3.172 2.416s-5.174-4.794-1.397-8.701q.36-.377.755-.717l133.602-125.604 2.549 2.718zm137.19-198.418c-20.864 20.761-3.474 46.939-3.474 46.939s-9.441 6.7-1.077 15.702l-3.172 2.756c-7.986-8.852-4.022-15.778-1.132-18.874l.056-.151c-.982-1.679-16.408-27.574 5.57-49.562 10.422-10.38 22.884-13.815 37.044-10.192l-1.113 4.341a32.35 32.35 0 0 0-32.759 9.022zm35.062 61.094a19.37 19.37 0 0 1-5.419-16.986 19.45 19.45 0 0 1-22.348-16.024c-1.745-10.594 5.432-20.595 16.03-22.339a19.45 19.45 0 0 1 22.348 16.024 19.5 19.5 0 0 1 0 6.315c10.598-1.74 20.601 5.435 22.344 16.031s-5.441 20.593-16.038 22.333a19.44 19.44 0 0 1-16.917-5.449zm35.874 1.887-3.456-2.019c7.082-7.688 6.965-19.553-.264-27.103l3.266-2.17a23.55 23.55 0 0 1 .341 31.273z"/><path d="m420.537 402.754-4.155 4.114 116.402 113.374-2.624 2.662-116.459-113.412-6.324 6.228L527.29 536.813l17.162-17.628zm-24.244-10.114-67.877-66.058 2.625-2.68 67.971 66.171 3.871-3.775-63.214-59.49 3.228-3.321-20.448-26.858-6.532-8.625c30.908-31.689 49.807-54.337 93.045-80.081l6.76-6.964 1.774-3.775c-33.816 9.569-83.68 32.822-126.012 76.193l-9.326-4.511-11.952 12.268 4.758 9.229c-42.162 43.278-64.196 93.576-72.9 127.586l4.06-2.019 6.363-6.512c24.545-43.843 46.787-63.358 77.676-95.085l8.798 6.36 27.397 19.686 3.228-3.266 60.646 61.245 6.061-5.869zm-133.319-78.854-2.851-2.378 12.537-15.005 2.889 2.397zm24.017-36.408-7.552-4.227 2.189-2.246 8.252 3.661zm101.674-68.492 1.473 3.454c-55.945 23.686-84.964 56.432-85.266 56.772l-2.777-2.51c7.553-8.116 35.969-36.276 86.589-57.716zm-84.776 77.382 2.983-2.284 27.491 35.86-2.983 2.284z"/></svg>