<svg xmlns="http://www.w3.org/2000/svg" xmlns:xlink="http://www.w3.org/1999/xlink" width="1000" height="1000"><path fill="rgba(255,255,255,0)" d="M0 0h1000v1000H0z"/><g vector-effect="non-scaling-stroke" transform="matrix(1.8196 0 0 1.8196 500.1171 500.0011)"><path d="M-274.85-180.087h549.7v360.175h-549.7z" fill="#fff"/><g fill="#f26a36"><path d="M-274.85-180.087v281.145l310.316.002c19.425-17.286 19.002-46.95 11.971-71.971 0 0 9.457 7.786 16.141 11.807 4.574 2.751 12.131 6.32 12.131 6.32-3.478 17.399-4.293 32.735-3.631 53.844h7.168c-2.045-24.181-.136-54.194 11.572-70.871 11.572-16.488 31.797-25.646 34.043-47.488 2.268-22.043-19.418-54.384-33.99-70.221 4.574 41.005-58.635 78.695-.953 105.893 0 0-4.406 5.907-6.668 10.02-2.463 4.476-5.242 11.996-5.242 11.996-96.229-49.213 25.662-101.253 3.711-144.086 30.404 16.715 66.619 51.871 67.59 88.437.732 27.593-29.607 39.715-39.34 61.611-7.34 16.515-7.535 38.275.619 54.703l-27.693.006H274.85v-281.147zM128.984 33.288l16.287 8.719c-14.046 19.683-16.716 45.263 7.193 59.049h-32.178c-13.97-18.679-12.087-53.168 8.697-67.768zm-366.26 122.246V155h-6.147c-.482 0-.421-.405-.24-.537 1.084-.936 1.567-1.942 2.289-3.548.845-1.942.965-5.425.965-10.31 0-6.361-.602-9.575-2.111-11.249-1.686-1.874-3.855-2.276-6.626-2.276h-8.076c-1.204 0-2.046-.469-2.648-1.806h-.486l-1.926 2.942c-.24.337-.602 1.075-.602 1.541s0 .939.363 1.473c.783 1.204 2.227 1.609 3.311 1.609h8.316c1.988 0 3.195.068 4.098.803 1.505 1.204 1.686 4.15 1.686 9.708 0 5.691-.12 8.568-1.146 9.909-.965 1.337-2.35 1.742-3.975 1.742h-11.148c-.903 0-1.204.265-1.447 1.068l-1.143 3.684v.67h23.922c.903 0 1.204-.269 1.625-1.473zm19.342-.267l-2.289-20.154c-.301-2.609-.903-4.283-2.111-5.687-1.686-2.01-5.966-3.551-7.652-3.551-.783 0-1.023.469-1.447 1.34l-1.806 3.949c1.447 0 5.121.67 6.629 2.01 1.204 1.068 1.625 2.344 1.868 4.15l.78 5.691c.605 4.419-.541 5.759-1.865 7.096-1.929 1.874-5.001 3.551-7.834 4.622l-.12.201-1.266 4.483c-.062.269-.181.602-.181.871 0 .337-.062.67.181.67.602 0 1.505-.269 2.289-.534 2.049-.738 5.302-2.48 6.568-4.218.482-.67 1.385-2.544 2.227-5.225.123-.401.304-.67.664-.67.243 0 .424 0 .482.469l1.868 10.041h.605c.903-1.003 1.865-2.408 2.227-3.412.243-.67.301-1.204.181-2.143m16.28 3.415v-23.433c0-3.548-1.686-5.956-4.519-7.497-1.567-.871-3.917-1.541-5.124-1.541-.722 0-1.143.534-1.625 1.541l-1.868 3.884c2.23-.068 4.762.534 6.267 1.738 1.266 1.003 2.35 2.143 2.35 4.619v16.871h-5.183c-1.023 0-1.508-.068-1.868.136-.24.133-.421.133-.602.602l-2.049 5.089.243.201c.783-.537 1.865-.469 3.192-.469h9.4c.965 0 1.385-.67 1.385-1.742m30.264-3.146V155h-6.147c-.479 0-.421-.405-.24-.537 1.084-.936 1.567-1.942 2.289-3.548.845-1.942.965-5.425.965-10.31 0-6.361-.602-9.575-2.107-11.249-1.69-1.874-3.859-2.276-6.629-2.276h-8.073c-1.207 0-2.049-.469-2.651-1.806h-.482l-1.929 2.942c-.24.337-.602 1.075-.602 1.541s0 .939.363 1.473c.783 1.204 2.227 1.609 3.311 1.609h8.316c1.988 0 3.195.068 4.098.803 1.505 1.204 1.686 4.15 1.686 9.708 0 5.691-.12 8.568-1.143 9.909-.965 1.337-2.35 1.742-3.978 1.742h-11.15c-.903 0-1.204.265-1.444 1.068l-1.146 3.684v.67h23.922c.903 0 1.204-.269 1.628-1.473zm20.998 12.118V134.31c0-2.408-.965-4.419-3.315-6.426-.903-.806-3.794-2.01-4.94-2.01-.783 0-1.266.469-1.69 1.405l-1.745 3.551c2.408.534 7.17 1.606 7.17 6.293v37.022h.482c2.23-1.136 4.037-2.946 4.037-6.494"/><use xlink:href="#B"/><use xlink:href="#C"/><use xlink:href="#D"/><path d="M-77.949 155.065v-18.81c0-3.017-.544-4.956-2.771-7.099-1.207-1.136-4.7-3.078-5.726-3.214-.783-.133-1.385.136-1.806 1.071L-90 130.765c.783.265 3.373 1.405 4.639 2.208 1.385.871 2.713 2.677 2.713 4.82v23.164h.722c2.531-1.806 3.978-2.81 3.978-5.891m21.804.201l-2.289-20.154c-.301-2.609-.903-4.283-2.111-5.687-1.686-2.01-5.966-3.551-7.652-3.551-.783 0-1.023.469-1.447 1.34l-1.806 3.949c1.447 0 5.121.67 6.629 2.01 1.204 1.068 1.625 2.344 1.868 4.15l.78 5.691c.605 4.419-.541 5.759-1.865 7.096-1.929 1.874-5.001 3.551-7.834 4.622l-.123.201-1.262 4.483c-.062.269-.181.602-.181.871 0 .337-.062.67.181.67.602 0 1.505-.269 2.289-.534 2.049-.738 5.302-2.48 6.568-4.218.482-.67 1.385-2.544 2.227-5.225.123-.401.304-.67.664-.67.243 0 .424 0 .482.469l1.868 10.041h.605c.903-1.003 1.865-2.408 2.227-3.412.243-.67.301-1.204.181-2.143m14.201-13.189v-.534h-9.475c-.333 0-.566.333-.667.936l-.537 3.616v.537h9.439c.369 0 .605-.405.738-1.272zM.121 155.534V155h-6.147c-.482 0-.421-.405-.24-.537 1.084-.936 1.567-1.942 2.289-3.548.845-1.942.965-5.425.965-10.31 0-6.361-.602-9.575-2.111-11.249-1.686-1.874-3.855-2.276-6.626-2.276h-8.076c-1.204 0-2.046-.469-2.648-1.806h-.486l-1.926 2.942c-.24.337-.602 1.075-.602 1.541s0 .939.363 1.473c.783 1.204 2.227 1.609 3.311 1.609h8.316c1.988 0 3.192.068 4.098.803 1.505 1.204 1.686 4.15 1.686 9.708 0 5.691-.12 8.568-1.146 9.909-.965 1.337-2.35 1.742-3.975 1.742h-11.148c-.903 0-1.204.265-1.447 1.068l-1.143 3.684v.67H-2.65c.903 0 1.204-.269 1.625-1.473zm46.228-.602v-17.943c0-6.895-2.832-9.841-8.193-9.841H25.14c-2.23 0-3.376-.201-4.399-2.01h-.421l-2.23 3.214c-.243.333-.363.735-.363 1.204s.301.939.482 1.139c1.385 1.742 3.315 2.075 4.7 2.075h.602c.363 0 .482 0 .181.469-1.266 2.007-1.748 4.286-1.748 6.561v12.252c0 2.476-1.262 3.078-2.47 3.078-.903 0-2.049-.201-2.952-.871l-1.084 4.218c-.181.602-.058 1.071.482 1.408.783.534 2.408.735 3.072.735h.243c1.806 0 4.095-.803 5.422-2.476 1.385-1.81 2.049-4.017 2.049-7.701v-14.797c0-2.276.482-3.01 1.748-3.01h8.737c3.616 0 4.457 2.007 4.457 5.623v22.494h.424c2.59-1.204 4.276-3.078 4.276-5.823m34.66-13.656c0-8.436-4.58-14.395-10.728-14.395-2.768 0-4.334 1.007-5.118 1.81-.363.398-.783 1.204-1.026 2.007l-1.385 4.551.664.269c1.023-1.405 3.192-3.078 4.94-3.078 4.82 0 7.652 4.286 7.652 11.245 0 3.616-.602 6.16-1.868 8.235-1.447 2.279-4.457 3.551-7.533 3.551h-.058c-4.7 0-8.135-3.214-8.135-9.442v-12.654c0-1.337-.062-2.276-.725-3.613-.541-1.071-1.505-2.279-2.531-3.014-.66-.537-1.143-.602-1.505-.602-.541 0-.965.265-1.567 1.136l-1.988 2.881c.842.534 1.505 1.071 2.111 1.742.903 1.003 1.444 1.939 1.444 4.082v9.909c0 9.841 5.364 14.997 11.87 14.997h.602c3.133 0 7.351-1.139 10.184-4.82 3.616-4.687 4.7-9.374 4.7-14.797"/><use xlink:href="#C" x="214.699"/><path d="M129.335 141.675c0-11.048-5.665-14.596-11.627-14.596h-11.569c-1.447 0-2.531-.265-3.496-2.075h-.421l-2.23 3.214c-.24.337-.421.735-.421 1.204s.24 1.007.421 1.204c1.385 1.742 3.014 2.211 4.758 2.211.424 0 .424.333.181.602-1.625 1.806-3.435 4.823-3.435 11.718 0 9.773 5.063 15.732 13.317 15.732 5.121 0 8.015-2.075 10.002-4.487 3.253-3.949 4.519-8.5 4.519-14.729m-4.881 1.742c0 4.755-.722 7.766-2.47 9.773-1.324 1.476-3.917 2.279-6.808 2.279-5.966 0-8.918-3.884-8.918-11.517 0-3.881.602-9.239 1.444-10.378.544-.667.783-.8 1.69-.8h7.772c4.82 0 7.29 2.609 7.29 10.643"/><use xlink:href="#D" x="247.015"/><path d="M183.588 155.534V155h-6.147c-.482 0-.421-.405-.24-.537 1.084-.936 1.567-1.942 2.289-3.548.845-1.942.965-5.425.965-10.31 0-6.361-.602-9.575-2.111-11.249-1.686-1.874-3.855-2.276-6.626-2.276h-8.073c-1.207 0-2.049-.469-2.651-1.806h-.482l-1.929 2.942c-.24.337-.602 1.075-.602 1.541s0 .939.363 1.473c.783 1.204 2.227 1.609 3.311 1.609h8.316c1.988 0 3.195.068 4.098.803 1.505 1.204 1.686 4.15 1.686 9.708 0 5.691-.12 8.568-1.143 9.909-.968 1.337-2.353 1.742-3.978 1.742h-11.148c-.903 0-1.204.265-1.447 1.068l-1.143 3.684v.67h23.922c.903 0 1.204-.269 1.625-1.473z"/><use xlink:href="#C" x="316.734"/><path d="M213.247 158.681v-23.433c0-3.548-1.686-5.956-4.519-7.497-1.567-.871-3.917-1.541-5.121-1.541-.725 0-1.146.534-1.628 1.541l-1.868 3.884c2.23-.068 4.762.534 6.267 1.738 1.266 1.003 2.35 2.143 2.35 4.619v16.871h-5.183c-1.023 0-1.505-.068-1.868.136-.24.133-.421.133-.602.602l-2.049 5.089.243.201c.783-.537 1.868-.469 3.192-.469h9.4c.965 0 1.385-.67 1.385-1.742"/><use xlink:href="#B" x="363.288"/><path d="M261.596 157.008c0-.738-.363-1.541-.903-2.412-1.389-2.276-4.762-6.762-6.267-8.504-.301-.333-.062-.466.062-.667.359-.537 1.023-1.609 1.382-2.143 2.35-3.684 4.522-7.966 4.522-10.31 0-2.075-1.567-4.687-3.739-6.16-.421-.269-1.204-.602-1.686-.602s-1.143.401-1.748 1.337l-1.745 2.612c1.745.67 3.674 3.078 3.674 4.687 0 1.473-1.505 5.357-2.713 7.766-.359.67-.421.537-.783.133-3.554-4.017-8.556-9.507-11.99-13.123-1.204-1.269-2.107-2.81-2.528-3.613h-.482l-1.991 3.214c-.178.265-.421 1.003-.421 1.405 0 .602.421 1.405.903 1.942.906 1.003 2.412 2.476 3.435 3.616.906 1.003 1.026 1.674.363 3.347l-1.988 4.684c-2.23 5.225-3.435 8.636-3.435 10.514 0 .735.058 2.476.965 3.748 1.204 1.606 2.289 2.143 3.794 2.143 1.084 0 1.628-.803 2.111-1.674l1.385-2.544h-.062c-2.59-.602-3.192-2.01-3.192-3.816 0-1.674 2.107-8.303 3.311-11.381.181-.469.363-.738.544-.738.243 0 .421-.068.783.401 1.266 1.408 3.192 3.684 5.121 5.959 3.616 4.286 7.591 9.507 10.304 14.062h.363c.66-.469 1.806-1.742 2.35-2.748.181-.398.301-.735.301-1.136m-291.527 10.645V134.31c0-2.408-.965-4.419-3.315-6.426-.903-.806-3.794-2.01-4.94-2.01-.783 0-1.266.469-1.69 1.405l-1.745 3.551c2.408.534 7.17 1.606 7.17 6.293v37.022h.482c2.227-1.136 4.037-2.946 4.037-6.494"/></g></g><defs ><path id="B" d="M-134.299 155.064v-18.81c0-3.017-.541-4.956-2.771-7.099-1.207-1.136-4.7-3.078-5.726-3.214-.783-.133-1.385.136-1.806 1.071l-1.748 3.752c.783.265 3.373 1.405 4.642 2.208 1.385.871 2.709 2.677 2.709 4.82v23.164h.722c2.531-1.806 3.978-2.81 3.978-5.891"/><path id="C" d="M-118.925 134.578c0-1.204-.725-2.745-2.111-4.354-1.567-1.806-5.001-4.215-6.568-4.215-.783 0-1.444.936-1.988 1.942l-1.567 2.745v.333c1.084.466 3.554 1.606 4.58 2.276 1.748 1.139 2.59 2.745 2.59 4.218 0 1.272-.482 2.946-1.023 4.953-.363 1.275-2.049 5.425-2.593 6.497l.062.469c1.084.065 2.771-1.272 3.014-1.674 1.143-1.473 2.771-4.286 3.917-6.898.722-1.674 1.686-4.082 1.686-6.293"/><path id="D" d="M-93.619 154.396v-16.671c0-8.167-3.192-10.647-8.798-10.647h-8.073c-1.204 0-1.686-.466-2.289-1.806h-.424l-1.988 2.946c-.24.337-.602 1.136-.602 1.609 0 .466 0 .936.363 1.47.961 1.272 1.926 1.541 2.771 1.541h8.857c3.978 0 5.545 1.34 5.545 6.561v21.358l.541.065c2.531-1.538 4.098-3.214 4.098-6.426"/></defs></svg>