<svg xmlns="http://www.w3.org/2000/svg" xml:space="preserve" width="172.973" height="56.711" viewBox="0 0 172.973 56.711"><g clip-path="url(#clipPath4080)" transform="translate(-1997.5 -96.12)scale(1.25)"><g clip-path="url(#clipPath4084)"><g clip-path="url(#clipPath4088)"><g clip-path="url(#clipPath4092)"><path d="M1607.788 102.39c0-1.348.805-.919.805-1.241 0-.131-.07-.156-.208-.156-.574.025-.93.049-1.309.049-.322 0-.631-.024-.965-.049-.149 0-.345-.058-.345.131 0 .43 1.413.061 1.413 1.434v2.363c0 2.017-.298 3.903-2.585 3.903-2.056 0-2.516-1.516-2.516-3.343v-2.59c0-1.957.966-1.324.966-1.73 0-.072-.023-.168-.127-.168-.218 0-1.034.049-1.62.049-.574 0-1.436-.049-1.585-.049-.092 0-.24.037-.24.192 0 .453 1.194.07 1.194 1.097v3.892c0 2.316 1.148 3.354 3.296 3.354 3.171 0 3.826-2.017 3.826-4.44m9.348 2.733c0 1.217-1.104 1.003-1.104 1.48 0 .203.23.143.356.143.31 0 .62-.048.989-.048.402 0 .793.048 1.355.048.15 0 .437.013.437-.155 0-.56-1.47.251-1.47-2.04v-4.058c0-.108.022-.192.091-.192.057 0 .126.06.206.156l5.527 6.206c.08.096.137.167.298.167.138 0 .138-.096.138-.359v-6.695c0-1.253.976-.967.976-1.325 0-.036 0-.155-.217-.155-.104 0-.507.048-1.23.048-.792 0-1.126-.048-1.31-.048-.15 0-.184.12-.184.204 0 .394 1.402.178 1.402 1.264v3.975c0 .298-.023.44-.092.44s-.206-.142-.355-.309l-4.62-5.263c-.205-.228-.067-.311-.435-.311-.609 0-.908.048-1.207.048-.218 0-.424-.048-.643-.048-.137 0-.195.095-.195.204 0 .572 1.287-.204 1.287 2.088m17.974-1.016c0-1.133.862-.703.862-1.11 0-.142-.058-.166-.402-.166-.655 0-1.069.048-1.483.048-.402 0-.85-.048-1.297-.048-.104 0-.39-.036-.39.167 0 .417 1.297.083 1.297 1.17v5.73c0 1.133-.827.822-.827 1.24 0 .06.023.143.126.143.299 0 .793-.048 1.287-.048.896 0 1.321.048 1.746.048.265 0 .367-.048.367-.179 0-.382-1.286.167-1.286-1.3m16.256-5.885c.31-.704.78-.645.78-.92 0-.202-.16-.166-.401-.166-.322 0-.643.048-.965.048-.333 0-.655-.048-.988-.048-.138 0-.471-.036-.471.191 0 .418 1.16-.024 1.16 1.098 0 .19-.022.609-.367 1.409l-1.575 3.629c-.034.082-.08.25-.149.25s-.126-.168-.16-.25l-1.494-3.844c-.287-.729-.437-1.29-.437-1.647 0-.501.69-.323.69-.645 0-.203-.058-.191-.425-.191-.184 0-.517.048-1.253.048-.39 0-.781-.048-1.16-.048-.172 0-.529-.095-.529.191 0 .083.15.155.184.166.472.12.633.252.828.718l2.86 6.946c.207.502.321.62.437.62.126 0 .183-.072.31-.382m13.638-6.863c0-.823.047-.835 1.436-.835 2.218 0 1.322 1.397 1.861 1.397.264 0 .207-.394.195-.549l-.046-1.183a.225.225 0 0 0-.23-.227c-1.01 0-1.803.049-2.619.049-1.758 0-2.585-.049-3.056-.049-.16 0-.252.096-.252.205 0 .476 1.298.094 1.298 1.169v5.586c0 1.456-.873.812-.873 1.36 0 .071.07.131.219.131.631 0 1.114-.048 1.47-.048.575 0 1.263.048 3.01.048.941 0 1.62-.979 1.62-1.91 0-.226-.082-.262-.127-.262-.436 0-.275 1.564-3.125 1.564-.827 0-.781-.43-.781-1.17v-1.528c0-.692-.046-.835.483-.835h.85c1.195 0 .873 1.265 1.24 1.265.276 0 .207-.43.196-.585l-.08-2.125c-.011-.322-.139-.298-.219-.298-.23 0-.264 1.098-1.252 1.098h-.724c-.494 0-.494-.084-.494-.597" style="fill:#00674c;fill-opacity:1;fill-rule:nonzero;stroke:none"/><path d="M1674.308 107.75c0 1.503-.93 1.11-.93 1.491 0 .24.241.203.367.203.574 0 1.148-.048 1.77-.048.48 0 .792.048.987.048.264 0 .356-.071.356-.179 0-.429-1.139.06-1.139-1.218v-2.064c0-.418-.069-.502.541-.502.575 0 .781.108 1.045.633l.966 1.887c.357.691.724 1.443 1.63 1.443.46 0 1.218-.262 1.218-.632 0-.095-.069-.167-.172-.167-.113 0-.23.072-.344.072-.09 0-.31 0-.415-.191-.827-1.504-1.803-3.236-1.803-3.307 0-.12.334-.227.667-.501.333-.287.667-.728.667-1.492 0-.55-.23-2.232-2.747-2.232-.77 0-1.55.048-2.32.048-.724 0-.816-.049-1.344-.049-.138 0-.252.06-.252.18 0 .43 1.252-.012 1.252 1.325zm1.411-5.527c0-.716.358-.716.783-.716 1.159 0 1.804.883 1.804 2.053 0 .705-.07 1.373-1.817 1.373-.342 0-.77 0-.77-.299" style="fill:#00674c;fill-opacity:1;fill-rule:evenodd;stroke:none"/><path d="M1689.055 108.633c.057.286.046.382.333.454.667.154 1.253.441 1.954.441 1.504 0 2.562-1.062 2.562-2.625 0-1.517-.758-2.03-1.988-2.591-1.54-.704-2.172-.86-2.172-1.658 0-.8.516-1.254 1.274-1.254 1.976 0 2.15 2.22 2.415 2.22.25 0 .285-.143.263-.406l-.125-1.6c-.025-.274.01-.453-.161-.453-.15 0-.438.19-.588.19-.344 0-.825-.465-1.769-.465-1.343 0-2.263 1.003-2.263 2.375 0 1.254.68 1.72 1.668 2.173 1.847.848 2.572 1.003 2.572 2.017 0 .955-.69 1.528-1.586 1.528-1.276 0-1.987-1.086-2.356-2.232-.045-.154-.069-.263-.252-.263-.286 0-.173.347-.138.514m15.514-4.728c0-1.133.862-.703.862-1.11 0-.142-.058-.166-.403-.166-.655 0-1.069.048-1.482.048-.402 0-.85-.048-1.297-.048-.104 0-.39-.036-.39.167 0 .417 1.296.083 1.296 1.17v5.73c0 1.133-.827.822-.827 1.24 0 .06.023.143.126.143.299 0 .793-.048 1.287-.048.897 0 1.323.048 1.747.048.264 0 .368-.048.368-.179 0-.382-1.287.167-1.287-1.3m11.752-.084c0 1.42-1.3.848-1.3 1.313 0 .263.196.25.403.25.46 0 .84-.048 1.61-.048s1.148.048 1.608.048c.333 0 .563.037.563-.25 0-.334-1.47.012-1.47-1.456v-5.396c0-.572.114-.632.585-.632h.976c1.322-.048.953 1.277 1.413 1.277.3 0 .173-.465.148-.609l-.125-1.098c-.011-.12-.011-.286-.184-.286-1.07 0-1.837.048-3.515.048s-2.447-.048-3.515-.048c-.174 0-.174.167-.184.286l-.184 1.576c-.023.155-.092.418.15.418.516 0 .172-1.564 1.47-1.564h.965c.47 0 .586.06.586.632m14.746 3.271c.139.263.186.359.186.753v1.551c0 1.515-1.253.859-1.253 1.396 0 .108.125.131.31.131.322 0 .656-.048 1.688-.048 1.436 0 1.62.048 1.712.048.196 0 .367-.012.367-.143 0-.609-1.412.216-1.412-1.288v-1.779c0-.43.034-.513.149-.753l1.505-2.959c.679-1.313 1.195-1.075 1.195-1.398 0-.082-.056-.13-.207-.13-.32 0-.448.048-1.322.048-.596 0-.837-.048-.986-.048-.138 0-.22.06-.22.18 0 .369 1.114.106 1.114.895 0 .083.012.249-.205.656l-1.045 1.97c-.138.26-.22.357-.289.357-.09 0-.172-.156-.356-.55l-1.032-2.22c-.138-.297-.163-.44-.163-.548 0-.405.633-.31.633-.585 0-.072-.034-.167-.196-.155-.7.048-1.194.048-1.677.048-.574 0-.85-.048-1.056-.048-.264 0-.403 0-.403.143 0 .382.702.084 1.15.943" style="fill:#00674c;fill-opacity:1;fill-rule:nonzero;stroke:none"/><path d="M1603.29 87.466c0-1.27.046-1.88 1.408-1.88 4.203 0 4.874 2.197 4.874 3.662 0 2.368-1.179 3.955-3.442 3.955-2.24 0-2.84-.684-2.84-3.002zm-2.842 3.808c0 2.369-1.987 1.709-1.987 2.515 0 .342.232.39.762.39.486 0 1.087-.097 1.64-.097 1.156 0 2.31.098 5.753.098 3.764 0 5.889-2.1 5.889-5.322 0-2.198-.878-3.516-3.695-4.272v-.05c1.64-.56 2.518-1.903 2.518-3.441 0-.586-.024-4.2-5.683-4.2-1.94 0-3.903.098-5.867.098-1.062 0-1.224-.097-1.386-.097-.115 0-.392-.025-.392.366 0 1.196 2.449-.147 2.449 3.222zm2.841-11.01c0-1.391.047-2.319 1.616-2.319 2.056 0 3.766 1.563 3.766 3.809 0 1.806-.67 2.734-2.425 2.734h-1.386c-1.34-.098-1.57-.196-1.57-1.392" style="fill:#00674c;fill-opacity:1;fill-rule:evenodd;stroke:none"/><path d="M1617.82 82.422c0-1.855 1.386-1.152 1.386-1.816 0-.234-.092-.273-.646-.273-1.054 0-1.72.078-2.384.078-.647 0-1.367-.078-2.088-.078-.167 0-.628-.059-.628.273 0 .684 2.088.137 2.088 1.914v9.375c0 1.855-1.331 1.348-1.331 2.03 0 .098.037.235.204.235.48 0 1.275-.078 2.069-.078 1.441 0 2.125.078 2.808.078.425 0 .592-.078.592-.293 0-.624-2.07.274-2.07-2.129m4.296-.234c0 1.992-1.775 1.64-1.775 2.421 0 .333.37.235.574.235.498 0 .997-.078 1.588-.078.647 0 1.275.078 2.18.078.241 0 .703.02.703-.254 0-.918-2.365.41-2.365-3.34v-6.64c0-.176.037-.312.148-.312.092 0 .203.097.332.254l8.888 10.155c.129.157.222.275.48.275.222 0 .222-.157.222-.587V82.754c0-2.05 1.57-1.582 1.57-2.167 0-.059 0-.254-.35-.254-.167 0-.813.078-1.978.078-1.274 0-1.81-.078-2.105-.078-.242 0-.297.195-.297.331 0 .645 2.255.294 2.255 2.07v6.504c0 .488-.038.723-.148.723s-.333-.235-.573-.508l-7.428-8.613c-.332-.37-.11-.507-.702-.507-.979 0-1.46.078-1.94.078-.351 0-.684-.078-1.035-.078-.222 0-.314.156-.314.331 0 .938 2.07-.331 2.07 3.419m25.593-2.461c0-.313 0-.742-.277-.742-.296 0-.333.547-.74.547-.498 0-2.05-1.27-4.619-1.27-4.656 0-6.56 4.316-6.56 7.597 0 1.543.832 6.544 6.247 6.544 2.013 0 4.064-.9 5.82-1.915.166-.098.184-.196.184-.508 0-.274-.055-.82-.055-1.62 0-2.5 1.275-1.446 1.275-2.286 0-.195-.11-.273-.203-.273-.666 0-1.313.078-1.995.078-.87 0-1.72-.078-2.588-.078-.314 0-.905-.157-.905.41 0 .742 2.199-.586 2.199 2.46 0 1.134-.055 2.774-3.382 2.774-2.993 0-4.286-3.554-4.286-6.23 0-4.941 2.439-6.133 4.157-6.133 4.86 0 4.86 4.258 5.266 4.258.351 0 .462-.098.462-.352m14.776-2.499c0-1.915 1.329-1.075 1.329-1.817 0-.176-.073-.234-.387-.234-.795 0-1.478.078-2.44.078-1.145 0-1.625-.078-2.383-.078-.259 0-.425-.04-.425.312 0 .566 2.032-.136 2.032 2.012v2.754c0 .43-.11.878-.646.878h-5.488c-.389 0-.462-.254-.462-.781v-3.105c0-1.739 1.423-1.172 1.423-1.778 0-.194-.167-.292-.425-.292-.536 0-1.275.078-2.384.078-.96 0-1.515-.078-2.07-.078-.35 0-.905.02-.905.312 0 .743 2.088-.117 2.088 2.012v8.71c0 2.422-1.57 1.719-1.57 2.5 0 .254.184.293.406.293.924 0 1.7-.078 2.477-.078 1.329 0 1.94.078 2.697.078.592 0 .554-.156.554-.273 0-.703-2.29 0-2.29-2.422v-3.066c0-.86.054-1.055.904-1.055h4.934c.813 0 .757.215.757 1.035v3.516c0 1.894-1.349 1.366-1.349 2.05 0 .137.112.215.37.215.943 0 1.663-.078 2.328-.078.758 0 1.847.078 2.458.078.24 0 .388.02.388-.235 0-.761-1.921-.039-1.921-2.519" style="fill:#00674c;fill-opacity:1;fill-rule:nonzero;stroke:none"/><path d="M1672.537 89.356c.481 0 .574.195 1.184 1.719.204.526.333.878.333 1.308 0 1.19-1.313.976-1.313 1.543 0 .273.24.234.573.234.537 0 1.22-.078 2.032-.078 1.22 0 1.72.078 2.384.078.499 0 .666.039.666-.293 0-.645-1 .117-1.59-1.27l-4.989-11.952c-.24-.586-.277-.625-.443-.625-.24 0-.334.37-.463.684l-5.007 11.815c-.462 1.094-1.404.977-1.404 1.426 0 .254.296.215.554.215.537 0 1.072-.078 1.626-.078.591 0 1.146.078 1.738.078.387 0 .96.138.96-.273 0-.528-1.995-.215-1.995-1.621 0-.469.258-1.153.388-1.544.425-1.288.812-1.366 1.126-1.366zm-3.085-1.055c-.331 0-.59.02-.59-.176 0-.273.11-.487.201-.722l1.424-3.457c.093-.215.166-.235.203-.235.093 0 .036 0 .147.157l1.518 3.535c.09.235.201.449.201.722 0 .195-.26.176-.59.176" style="fill:#00674c;fill-opacity:1;fill-rule:evenodd;stroke:none"/><path d="M1681.252 85.372c0-.137 0-.489.13-.489.075 0 .147.215.203.332l3.586 8.418c.092.214.183.547.462.547.295 0 .369-.294.48-.547l3.492-7.715c.277-.644.498-1.035.573-1.035.11 0 .129.293.149.88l.275 5.917c.11 2.167-1.33 1.523-1.33 2.187 0 .352.461.293.85.293.425 0 .869-.078 2.07-.078.535 0 1.053.078 1.589.078.647 0 .887 0 .887-.332 0-.723-1.701.137-1.792-2.422l-.315-8.652c-.075-2.245 1.736-1.484 1.736-2.187 0-.156-.037-.234-.535-.234-.517 0-.868.078-1.2.078-.277 0-.63-.078-1.072-.078-.352 0-.407.254-.462.39l-4.287 9.453c-.019.058-.184.41-.295.41-.112 0-.168-.137-.24-.312l-4.067-9.375c-.257-.586-.442-.566-.646-.566-.61 0-1.293.078-1.72.078-.59 0-.868-.078-1.106-.078-.13 0-.223.156-.223.273 0 .86 1.978-.058 1.866 3.164l-.258 7.85c-.073 2.052-1.59 1.564-1.59 2.266 0 .118.075.274.352.274.278 0 .924-.078 1.83-.078.85 0 1.238.078 1.902.078.517 0 .444-.235.444-.313 0-.8-2.033.333-1.922-3.007m18.987.761c0 2.324-2.089 1.387-2.089 2.149 0 .43.315.41.647.41.739 0 1.35-.078 2.588-.078s1.847.078 2.586.078c.535 0 .905.059.905-.41 0-.547-2.365.02-2.365-2.382V82.54c0-.938.185-1.036.943-1.036h1.57c2.126-.078 1.535 2.09 2.274 2.09.48 0 .276-.761.238-.995l-.201-1.797c-.02-.196-.02-.47-.296-.47-1.719 0-2.957.079-5.654.079s-3.936-.078-5.655-.078c-.278 0-.278.273-.295.469l-.295 2.577c-.04.254-.15.684.238.684.833 0 .279-2.559 2.367-2.559h1.552c.757 0 .942.098.942 1.036" style="fill:#00674c;fill-opacity:1;fill-rule:nonzero;stroke:none"/><path d="M1710.295 86.582c0-2.832.924-5.527 4.047-5.585 2.383-.04 4.637 2.226 4.637 6.542 0 3.243-1.035 5.86-4.212 5.918-3.308.059-4.472-4.023-4.472-6.875m-2.272 1.114c0 3.964 2.495 6.602 6.206 6.602 5.897 0 7.023-4.786 7.023-7.52 0-4.14-2.753-6.66-6.355-6.62-4.418.038-6.874 3.26-6.874 7.538" style="fill:#00674c;fill-opacity:1;fill-rule:evenodd;stroke:none"/><path d="M1723.831 91.504c0 1.992-1.772 1.64-1.772 2.421 0 .333.37.235.572.235.498 0 .998-.078 1.59-.078.646 0 1.273.078 2.18.078.24 0 .702.02.702-.254 0-.918-2.365.41-2.365-3.34v-6.64c0-.176.037-.312.147-.312.092 0 .204.097.334.254l8.886 10.155c.13.157.223.275.482.275.221 0 .221-.157.221-.587V82.754c0-2.05 1.57-1.582 1.57-2.167 0-.059 0-.254-.35-.254-.166 0-.813.078-1.978.078-1.275 0-1.81-.078-2.106-.078-.24 0-.296.195-.296.331 0 .645 2.256.294 2.256 2.07v6.504c0 .488-.038.723-.15.723-.11 0-.331-.235-.572-.508l-7.428-8.613c-.333-.37-.11-.507-.702-.507-.981 0-1.46.078-1.94.078-.351 0-.684-.078-1.035-.078-.222 0-.314.156-.314.331 0 .938 2.068-.331 2.068 3.419m-116.258 35.173c-.071-.487-.352-.786-.791-.786-.585 0-.743.385-.743.667 0 .309.196.504.602.655l.52.196c.656.244.96.628.96 1.127 0 .666-.532 1.149-1.323 1.149-.748 0-1.279-.396-1.344-1.22h.52c.043.45.271.765.851.765.45 0 .775-.288.775-.65 0-.32-.266-.526-.64-.673l-.525-.205c-.612-.239-.916-.597-.916-1.128 0-.71.59-1.138 1.268-1.138.683 0 1.214.407 1.274 1.241m2.888-.688h-1.03v-.488h2.58v.488h-1.03v3.63h-.52m4.634-3.435-.78 2.021h1.56zm.96 2.477h-1.919l-.374.959h-.569l1.674-4.119h.456l1.674 4.119h-.569m2.781-3.631h-1.03v-.488h2.58v.488h-1.03v3.63h-.52m3.539-4.118h2.13v.488h-1.61v1.306h1.61v.488h-1.61v1.35h1.61v.487h-2.13m7.126-4.119h.52v2.471c0 .672.374 1.225 1.095 1.225.72 0 1.094-.553 1.094-1.225v-2.47h.52v2.622c0 .889-.672 1.561-1.625 1.561-.932 0-1.604-.672-1.604-1.561m8.182-2.623h.52v4.119h-.487l-2.211-3.187h-.011v3.187h-.52v-4.119h.487l2.212 3.187h.01m2.764-3.187h.52v4.119h-.52m5.413-4.119h.553l-1.523 4.119h-.433l-1.523-4.119h.553l1.181 3.29h.011m3.723-3.29h2.13v.488h-1.61v1.306h1.61v.488h-1.61v1.35h1.61v.487h-2.13m4.796-2.076c.07.005.146.005.455.005.797 0 1.073-.347 1.073-.796 0-.482-.33-.797-.873-.797h-.655zm0 .32v1.756h-.52v-4.119h1.186c.791 0 1.382.456 1.382 1.246 0 .738-.58 1.193-1.252 1.23l1.604 1.643h-.731m4.617-2.943c-.071-.487-.353-.786-.791-.786-.586 0-.743.385-.743.667 0 .309.195.504.602.655l.52.196c.655.244.96.628.96 1.127 0 .666-.532 1.149-1.323 1.149-.748 0-1.279-.396-1.344-1.22h.52c.044.45.271.765.851.765.45 0 .775-.288.775-.65 0-.32-.266-.526-.64-.673l-.525-.205c-.613-.239-.916-.597-.916-1.128 0-.71.59-1.138 1.268-1.138.683 0 1.214.407 1.274 1.241m2.135-1.176h.52v4.119h-.52m3.517-3.631h-1.03v-.488h2.58v.488h-1.03v3.63h-.52m5.879-4.118h.607l-1.393 2.477v1.642h-.52v-1.642l-1.393-2.477h.607l1.046 1.93m8.497 1.766c.84 0 1.63-.66 1.63-1.637 0-.975-.79-1.636-1.63-1.636s-1.632.661-1.632 1.636c0 .976.792 1.637 1.632 1.637m0-3.76a2.127 2.127 0 0 1 2.184 2.123 2.13 2.13 0 0 1-2.184 2.125 2.13 2.13 0 0 1-2.184-2.125c0-1.019.786-2.124 2.184-2.124m4.329.065h2.13v.488h-1.61v1.306h1.61v.488h-1.61v1.837h-.52m9.836-4.119h.52v4.119h-.487l-2.211-3.187h-.011v3.187h-.52v-4.119h.488l2.21 3.187h.012m2.785-3.187h2.13v.488h-1.61v1.306h1.61v.488h-1.61v1.35h1.61v.487h-2.13m8.734-4.119h.554l-1.269 4.119h-.4l-.992-3.263h-.01l-.992 3.263h-.401l-1.268-4.119h.552l.922 3.127h.01l.937-3.127h.489l.937 3.138h.01m8.455-3.138h.607l-1.393 2.477v1.642h-.52v-1.642l-1.393-2.477h.607l1.046 1.93m5.464 1.766c.839 0 1.63-.66 1.63-1.637 0-.975-.791-1.636-1.63-1.636-.84 0-1.632.661-1.632 1.636 0 .976.792 1.637 1.632 1.637m0-3.76a2.13 2.13 0 0 1 2.184 2.123 2.13 2.13 0 0 1-2.184 2.125 2.127 2.127 0 0 1-2.184-2.125c0-1.019.785-2.124 2.184-2.124m4.849 2.108c.071.005.147.005.456.005.796 0 1.072-.347 1.072-.796 0-.482-.33-.797-.872-.797h-.656zm0 .32v1.756h-.52v-4.119h1.187c.79 0 1.382.456 1.382 1.246 0 .738-.58 1.193-1.252 1.23l1.604 1.643h-.732m4.888-4.119h.667l-1.848 2.01 1.89 2.109h-.747l-1.642-1.88v1.88h-.52v-4.119h.52v1.886" style="fill:#00674c;fill-opacity:1;fill-rule:nonzero;stroke:none"/></g></g></g></g></svg>