<svg xmlns="http://www.w3.org/2000/svg" viewBox="0 0 597.333 220" width="521" height="192"><defs><clipPath id="a"><path d="M0 165h448V0H0z"/></clipPath></defs><g fill="#5c2c81"><path d="M163.78 161.819h421.688v4.193H163.78z"/><g clip-path="url(#a)" transform="matrix(1.33333 0 0 -1.33333 0 220)"><path d="M124.47 148.409c0 2.376-1.223 2.409-2.543 2.409h-.395v.991l5.252-.128 4.952.128v-.991h-.394c-1.324 0-2.644-.033-2.644-2.409v-11.396c0-4.196 1.552-7.095 6.275-7.095 4.359 0 6.276 2.768 6.276 7.228v11.263c0 2.376-1.253 2.409-2.377 2.409h-.659v.991l3.997-.128 3.83.128v-.991h-.694c-.89 0-2.109-.033-2.109-2.409v-10.536c0-7.465-3.97-9.613-8.89-9.613-6.34 0-9.877 2.308-9.877 8.221zm56.785-13.146.062.065v12.391c0 2.7-1.884 3.1-2.869 3.1h-.73v.991l4.626-.13 4.065.13v-.991h-.499c-1.385 0-2.94-.264-2.94-4.195v-15.028c0-1.157.035-2.32.202-3.335h-1.252l-17.022 18.957V133.61c0-2.872.566-3.866 3.106-3.866h.566v-.988l-4.266.128c-1.486 0-3.003-.128-4.492-.128v.988h.466c2.278 0 2.976 1.555 2.976 4.193v13.912c0 1.846-1.525 2.97-3.009 2.97h-.433v.991l3.801-.13 2.943.13zm19.455-5.52h.46c1.196 0 2.445.175 2.445 1.884v17.313c0 1.715-1.249 1.881-2.445 1.881h-.46v.988l4.89-.128 5.186.128v-.988h-.466c-1.183 0-2.442-.166-2.442-1.881v-17.313c0-1.709 1.259-1.884 2.442-1.884h.466v-.988l-5.219.128c-1.623 0-3.569-.128-4.857-.128zm34.124 21.077h-.763c-1.222 0-1.709-.499-1.709-.926 0-.16.125-.623.291-1.056l5.647-14.696h.068l5.249 13.74c.397 1.024.433 1.621.433 1.852 0 .953-.991 1.086-2.116 1.086h-.56v.991l3.836-.131 3.035.131v-.991h-.329c-.597 0-1.226-.098-1.754-1.157-.261-.463-5.085-12.649-7.233-18.132-.43-1.092-.962-2.181-1.353-3.273h-1.223l-8.388 20.681c-.632 1.552-1.329 1.881-2.78 1.881h-.329v.991c1.685 0 3.394-.131 5.088-.131 1.615 0 3.929.131 4.89.131zm25.663-21.077h.46c1.193 0 2.448.175 2.448 1.884v17.313c0 1.715-1.255 1.881-2.448 1.881h-.46v.988l8.228-.128 8.459.128c-.068-1.421-.036-3.59.065-5.05l-.991-.264c-.163 2.143-.557 3.863-4.029 3.863h-4.593v-8.652h3.925c1.982 0 2.418 1.122 2.614 2.902h.994l-.101-3.866.101-3.765-.994-.199c-.196 1.982-.296 3.273-2.581 3.273h-3.958v-7.694c0-2.154 1.917-2.154 4.029-2.154 3.97 0 5.715.267 6.706 4.032l.926-.228-1.125-5.252-8.889.128c-2.967 0-6.896-.128-8.786-.128zm40.203 10.904h1.623c3.302 0 5.086 1.25 5.086 5.154 0 2.937-1.887 4.822-4.825 4.822-.991 0-1.424-.101-1.884-.134zm-4.234 7.661c0 2.415-1.32 2.513-2.341 2.513h-.596v.991l5.124-.13 5.317.13c4.16 0 7.86-1.124 7.86-5.812 0-2.973-1.977-4.792-4.59-5.813l5.649-8.462c.926-1.383 1.587-1.774 3.207-1.982v-.988l-3.24.128c-1.026 0-2.08-.128-3.106-.128-2.546 3.332-4.724 6.898-6.869 10.705H300.7v-7.07c0-2.546 1.187-2.647 2.709-2.647h.596v-.988c-1.884 0-3.797.128-5.687.128-1.579 0-3.134-.128-4.789-.128v.988h.596c1.22 0 2.341.567 2.341 1.789zm44.762-1.385c-.229 2.148-1.614 4.198-3.893 4.198-2.611 0-4.062-1.557-4.062-4.162 0-5.487 9.904-3.834 9.904-11.762 0-4.557-3.765-6.937-7.993-6.937-1.849 0-3.635.659-5.251 1.484l-.561 5.02.922.199c.398-2.807 1.988-5.252 5.122-5.252 2.251 0 4.062 1.418 4.062 3.765 0 5.843-9.712 4.027-9.712 11.993 0 4.293 3.038 6.839 7.302 6.839.929 0 3.73-.364 4.756-.498 0-1.546.131-3.134.33-4.721zm17.812-17.18h.454c1.195 0 2.45.175 2.45 1.884v17.313c0 1.715-1.255 1.881-2.45 1.881h-.454v.988l4.884-.128 5.189.128v-.988h-.466c-1.184 0-2.442-.166-2.442-1.881v-17.313c0-1.709 1.258-1.884 2.442-1.884h.466v-.988l-5.222.128c-1.617 0-3.566-.128-4.851-.128zm28.404 20.42c-2.48 0-2.579-.6-3.071-3.009h-.988l.392 2.81c.136.923.199 1.848.199 2.807h.795c.264-.994 1.089-.959 1.979-.959h17.046c.893 0 1.717.036 1.783 1.024l.795-.133-.362-2.677c-.068-.884-.068-1.783-.068-2.673l-.991-.362c-.066 1.228-.229 3.172-2.448 3.172h-5.409v-17.58c0-2.543 1.151-2.84 2.739-2.84h.629v-.988l-5.389.128c-1.985 0-4.293-.128-5.584-.128v.988h.626c1.819 0 2.748.175 2.748 2.777v17.643zm32.04-20.42h.463c1.187 0 2.442.175 2.442 1.884v17.313c0 1.715-1.255 1.881-2.442 1.881h-.463v.988l8.222-.128 8.459.128a53.35 53.35 0 0 1 .068-5.05l-.994-.264c-.166 2.143-.561 3.863-4.026 3.863h-4.599v-8.652h3.934c1.985 0 2.413 1.122 2.608 2.902h.995l-.096-3.866.096-3.765-.995-.199c-.195 1.982-.296 3.273-2.575 3.273h-3.967v-7.694c0-2.154 1.923-2.154 4.035-2.154 3.964 0 5.712.267 6.706 4.032l.925-.228-1.124-5.252-8.883.128c-2.979 0-6.902-.128-8.789-.128zm-280.992-68.19c0-5.465 1.015-6.628 7.017-6.628 6.631 0 11.536 5.376 11.536 12.319 0 8.652-5.765 12.631-13.559 12.631h-4.994zm0 21.123h3.821c6.629 0 11.536 2.807 11.536 10.135 0 8.967-5.379 10.913-10.678 10.913h-4.679zm-16.835-28.217h1.088c2.808 0 5.771.391 5.771 4.442v40.847c0 4.053-2.963 4.445-5.771 4.445h-1.088v2.332c3.427 0 7.794-.305 12.156-.305 4.445 0 8.886.305 12.473.305 13.1 0 18.011-5.451 18.011-12.236 0-7.949-7.329-11.379-14.186-12.628v-.154c8.495.231 17.381-4.525 17.381-13.957 0-8.415-8.26-15.432-18.396-15.432-3.901 0-8.809.311-13.643.311s-10.443-.311-13.796-.311zm48.484.001h1.098c2.806 0 5.771.392 5.771 4.441v40.848c0 4.053-2.965 4.445-5.771 4.445h-1.098v2.332c3.044 0 7.723-.309 11.539-.309 3.901 0 8.575.309 12.242.309v-2.332h-1.092c-2.807 0-5.765-.392-5.765-4.445V58.901c0-4.049 2.958-4.441 5.765-4.441h1.092v-2.341c-3.741 0-8.418.308-12.314.308-3.821 0-8.423-.308-11.467-.308zm56.953 40.533c-.546 5.068-3.822 9.901-9.201 9.901-6.156 0-9.59-3.661-9.59-9.824 0-12.942 23.39-9.04 23.39-27.754 0-10.759-8.892-16.366-18.865-16.366-4.367 0-8.575 1.558-12.399 3.51l-1.323 11.845 2.183.462c.941-6.619 4.674-12.393 12.085-12.393 5.3 0 9.584 3.355 9.584 8.898 0 13.791-22.912 9.507-22.912 28.288 0 10.139 7.169 16.138 17.221 16.138 2.187 0 8.812-.854 11.227-1.172 0-3.658.315-7.403.781-11.141zm22.833-36.092c0-4.213 2.854-4.442 5.293-4.442h1.29v-2.341c-2.984 0-7.325.309-10.986.309-3.463 0-7.534-.309-10.243-.309v2.341h.95c2.439 0 5.017.392 5.017 4.442v40.848c0 4.053-2.578 4.444-5.017 4.444h-.95v2.333c2.709 0 6.78-.309 10.243-.309 3.661 0 8.002.309 10.986.309v-2.333h-1.29c-2.439 0-5.293-.234-5.293-4.444V82.676h24.626v17.073c0 4.21-2.851 4.444-5.29 4.444h-1.294v2.333c2.988 0 7.326-.309 10.991-.309 3.456 0 7.53.309 10.245.309v-2.333h-.956c-2.442 0-5.014-.391-5.014-4.444V58.901c0-4.05 2.572-4.442 5.014-4.442h.956v-2.341c-2.715 0-6.789.309-10.245.309-3.665 0-8.003-.309-10.991-.309v2.341h1.294c2.439 0 5.29.229 5.29 4.442v19.405h-24.626zm67.669-4.528c13.61 0 16.001 13.331 16.001 24.718s-5.551 25.179-17.191 25.179c-12.281 0-15.936-12.156-15.936-22.609 0-13.957 5.762-27.288 17.126-27.288m-1.051 53.327c14.948 0 26.87-10.29 26.87-26.89 0-17.934-11.577-29.858-26.523-29.858-14.873 0-26.24 11.221-26.24 27.988 0 16.209 11.298 28.76 25.893 28.76m44.871-46.776c0-6.311 3.424-6.465 7.403-6.465h1.24v-2.341c-3.97 0-7.86.311-11.839.311-4.287 0-8.494-.311-12.942-.311v2.341h1.249c2.332 0 4.908.074 4.908 6.311v37.263c0 5.223-1.478 6.16-5.222 6.16h-.935v2.332c2.807 0 6.937-.306 10.913-.306 4.05 0 7.88.306 11.379.306 10.607 0 18.318-3.507 18.318-14.886 0-9.12-6.468-14.965-15.04-15.823-2.415-.151-9.067-.151-10.859-.151v2.338h6.254c6.317 0 9.204 5.608 9.204 13.325 0 7.486-3.741 12.396-11.776 12.396h-2.255zm73.588 34.069c-.549 5.068-3.825 9.901-9.204 9.901-6.162 0-9.587-3.661-9.587-9.824 0-12.942 23.39-9.04 23.39-27.754 0-10.759-8.881-16.366-18.865-16.366-4.367 0-8.575 1.558-12.39 3.51l-1.332 11.845 2.186.462c.932-6.619 4.679-12.393 12.082-12.393 5.303 0 9.593 3.355 9.593 8.898 0 13.791-22.924 9.507-22.924 28.288 0 10.139 7.172 16.138 17.233 16.138 2.178 0 8.806-.854 11.221-1.172 0-3.658.309-7.403.778-11.141zM124.47 26.849c0 2.379-1.223 2.412-2.543 2.412h-.395v.988l5.252-.128 4.952.128v-.988h-.394c-1.324 0-2.644-.033-2.644-2.412V15.455c0-4.201 1.552-7.106 6.275-7.106 4.359 0 6.276 2.771 6.276 7.231v11.269c0 2.379-1.253 2.412-2.377 2.412h-.659v.988l3.997-.128 3.83.128v-.988h-.694c-.89 0-2.109-.033-2.109-2.412V16.31c0-7.468-3.97-9.613-8.89-9.613-6.34 0-9.877 2.308-9.877 8.221zM181.255 13.7l.062.062v12.394c0 2.703-1.884 3.107-2.869 3.107h-.73v.987l4.626-.13 4.065.13v-.987h-.499c-1.385 0-2.94-.271-2.94-4.199V10.038c0-1.159.035-2.32.202-3.34h-1.252l-17.022 18.959v-13.61c0-2.875.566-3.857 3.106-3.857h.566v-.994l-4.266.13c-1.486 0-3.003-.13-4.492-.13v.994h.466c2.278 0 2.976 1.543 2.976 4.19v13.903c0 1.855-1.525 2.98-3.009 2.98h-.433v.987l3.801-.13 2.943.13zm18.797-5.511h.46c1.186 0 2.445.16 2.445 1.878V27.38c0 1.712-1.259 1.887-2.445 1.887h-.46v.988l4.884-.133 5.189.133v-.988h-.463c-1.193 0-2.447-.175-2.447-1.887V10.067c0-1.718 1.254-1.878 2.447-1.878h.463v-.994l-5.219.131c-1.617 0-3.569-.131-4.854-.131zm33.46 21.074h-.759c-1.223 0-1.719-.496-1.719-.926 0-.163.128-.626.294-1.059l5.656-14.696h.059l5.255 13.738c.394 1.026.424 1.617.424 1.854 0 .956-.988 1.089-2.107 1.089h-.558v.988l3.828-.131 3.038.131v-.988h-.326c-.6 0-1.223-.101-1.756-1.16-.265-.463-5.086-12.646-7.234-18.135-.436-1.089-.953-2.181-1.356-3.269h-1.223l-8.391 20.68c-.62 1.549-1.323 1.884-2.777 1.884h-.323v.988c1.685 0 3.4-.131 5.085-.131 1.618 0 3.929.131 4.89.131zm26.322-21.074h.472c1.184 0 2.436.16 2.436 1.878V27.38c0 1.712-1.252 1.887-2.436 1.887h-.472v.988l8.225-.133 8.462.133a53.48 53.48 0 0 1 .065-5.059l-.991-.267c-.166 2.152-.561 3.872-4.035 3.872h-4.59v-8.657h3.931c1.982 0 2.418 1.118 2.608 2.91h.992l-.09-3.872.09-3.759-.992-.205c-.19 1.982-.294 3.276-2.566 3.276h-3.973v-7.697c0-2.151 1.92-2.151 4.038-2.151 3.958 0 5.709.267 6.705 4.035l.923-.228-1.124-5.258-8.886.131c-2.974 0-6.908-.131-8.792-.131zM300.7 19.081h1.623c3.302 0 5.086 1.258 5.086 5.157 0 2.94-1.887 4.819-4.825 4.819-.991 0-1.424-.096-1.884-.131zm-4.234 7.664c0 2.412-1.32 2.519-2.341 2.519h-.596v.988l5.124-.13 5.317.13c4.16 0 7.86-1.122 7.86-5.813 0-2.976-1.977-4.791-4.59-5.815l5.649-8.459c.926-1.389 1.587-1.783 3.207-1.976v-.994l-3.24.131c-1.026 0-2.08-.131-3.106-.131-2.546 3.338-4.724 6.898-6.869 10.699H300.7v-7.07c0-2.546 1.187-2.635 2.709-2.635h.596v-.994c-1.884 0-3.797.131-5.687.131-1.579 0-3.134-.131-4.789-.131v.994h.596c1.22 0 2.341.56 2.341 1.78zm44.104-1.382c-.231 2.145-1.614 4.195-3.896 4.195-2.614 0-4.064-1.558-4.064-4.16 0-5.486 9.91-3.833 9.91-11.761 0-4.561-3.766-6.94-7.991-6.94-1.854 0-3.635.659-5.254 1.492l-.567 5.011.928.203c.392-2.808 1.979-5.255 5.122-5.255 2.24 0 4.062 1.424 4.062 3.768 0 5.842-9.715 4.035-9.715 11.996 0 4.29 3.042 6.833 7.305 6.833.923 0 3.727-.362 4.753-.498 0-1.546.134-3.134.333-4.718zm17.142-17.174h.462c1.196 0 2.446.16 2.446 1.878V27.38c0 1.712-1.25 1.887-2.446 1.887h-.462v.988l4.893-.133 5.183.133v-.988h-.466c-1.184 0-2.442-.175-2.442-1.887V10.067c0-1.718 1.258-1.878 2.442-1.878h.466v-.994l-5.222.131c-1.62 0-3.561-.131-4.854-.131zm27.75 20.41c-2.478 0-2.579-.599-3.068-3.008h-.994l.397 2.809a18.65 18.65 0 0 1 .199 2.813h.793c.26-.997 1.086-.961 1.982-.961h17.043c.892 0 1.723.033 1.786 1.02l.795-.13-.368-2.676c-.068-.888-.068-1.781-.068-2.671l-.995-.365c-.062 1.223-.231 3.169-2.436 3.169h-5.423V11.025c0-2.546 1.16-2.837 2.747-2.837h.626v-.993l-5.388.13c-1.982 0-4.293-.13-5.587-.13v.993h.635c1.819 0 2.739.161 2.739 2.772v17.639zm39.276-10.634-6.614 9.046c-.988 1.389-1.611 2.252-3.159 2.252h-.336v.989l5.184-.131 4.886.131v-.989h-.427c-.887 0-1.718-.234-1.718-.759 0-.365.404-.795.594-1.092l4.993-7.008 4.092 5.913c.599.961 1.029 1.52 1.029 2.148 0 .695-1.421.798-1.884.798h-.599v.989l3.768-.131 3.139.131v-.989c-1.118 0-2.041-.798-2.572-1.522l-6.148-8.69v-7.896c0-2.806.994-2.966 2.736-2.966h.638v-.995l-5.386.131c-1.661 0-3.64-.131-5.584-.131v.995h.62c1.962 0 2.748.522 2.748 2.699zm8.287 138.033.074.303c-.113.504-1.134 1.922-1.564 2.002l-5.735-3.729.439-.914zm-41.409-64.844.923-2.608c5.524 1.637 11.414 5.631 11.414 12.307 0 5.872-4.679 9.373-8.281 9.373h-.062c-1.846 0-3.917-1.385-3.917-3.584 0-1.552.692-2.371 1.08-2.448 2.982-.57 5.134-2.522 5.134-5.542 0-3.181-2.297-5.537-6.291-7.498m-268.78 28.127h316.266v-3.139H122.836zm-19.315-57.827-6.697 5.537c1.78 6.504 3.181 15.998 2.638 23.38-1.902-1.78-4.213-2.904-6.29-3.486-.804 2.481-4.306 8.109-6.068 9.554 1.543-8.317 2.246-21.826-3.919-34.326-.25-.492-.087-.849.433-1.205l5.008-3.548-3.16 4.138 8.462 4.778c1.614.91 2.864-.202 2.169-1.692-1-2.157-6.026-8.847-6.133-8.975-8.201-9.221-20.131-15.037-33.439-15.037s-25.244 5.816-33.436 15.037c-.115.128-5.139 6.818-6.138 8.975-.698 1.49.557 2.602 2.169 1.692l8.462-4.778-3.158-4.138 5.003 3.548c.519.356.682.713.436 1.205-6.165 12.5-5.462 26.009-3.925 34.326-1.76-1.445-5.261-7.073-6.065-9.554-2.08.582-4.391 1.706-6.29 3.486-.546-7.382.86-16.876 2.638-23.38l-6.697-5.537c-.932-.786-1.582-2.029-.73-3.498 9.45-16.28 27.303-27.671 47.731-27.671 20.423 0 38.279 11.391 47.725 27.671.849 1.469.203 2.712-.729 3.498m-68.605 40.775c6.839 2.092 14.093 3.21 21.609 3.21s14.782-1.13 21.618-3.213a2.562 2.562 0 0 1 3.196 1.703c.412 1.329-.341 2.741-1.656 3.178-7.329 2.246-15.091 3.454-23.158 3.454s-15.823-1.208-23.149-3.448c-1.32-.407-2.059-1.855-1.656-3.178a2.573 2.573 0 0 1 3.196-1.706m-3.106-4.758c6.397 2.32 13.221 3.738 20.312 4.166V85.143a5.657 5.657 0 0 0-.86-.057c-.697-.009-1.487.116-1.747.217l-1.956.691-2.359-5.352H31.101a52.813 52.813 0 0 0-.395 6.314c-.009 3.008.795 8.53 1.104 10.515m23.719-14.23.976-8.29h.053l.977 8.29c.706.267 1.501.107 2.257-.145 1.054-.359 3.261-.342 4.498.098l4.905-11.166c-.558-.952-4.367-1.872-6.249-.801-2.151 1.229-4.688.691-6.411-1.73-1.73 2.421-4.264 2.959-6.415 1.73-1.884-1.071-5.7-.151-6.252.801l4.901 11.166c1.241-.44 3.448-.457 4.496-.098.762.252 1.558.412 2.264.145m5.412 18.396c7.088-.428 13.909-1.846 20.312-4.166.306-1.985 1.11-7.507 1.104-10.515 0-2.14-.149-4.243-.401-6.314H67.863l-2.353 5.352-1.958-.691c-.267-.101-1.056-.226-1.751-.217a6.115 6.115 0 0 0-.86.054zm17.79-33.792c-3.507-8.839-9.631-16.34-17.79-20.606v22.362c.279-.038.572-.136.89-.32 1.124-.623 2.264-.766 3.341-.775 1.145.007 2.243.193 3.219.502.486.16.94.347 1.386.605.445.27.905.567 1.352 1.273l.556.938h8.423a51.055 51.055 0 0 0-1.377-3.979M52.122 47.239c-8.162 4.266-14.286 11.767-17.793 20.606a51.902 51.902 0 0 0-1.377 3.979h8.43l.552-.935c.441-.715.907-1.006 1.347-1.273 1.308-.724 2.872-1.086 4.613-1.11 1.071.009 2.211.152 3.338.775.315.187.612.282.89.32zM29.558 99.328l-.119-.724c-.053-.335-1.246-7.59-1.252-11.648 0-7.071 1.341-13.839 3.804-20.037 4.376-11.05 12.714-20.316 24.14-24.125l.404-.137.397.137c11.426 3.809 19.761 13.075 24.143 24.125 2.457 6.198 3.801 12.966 3.801 20.037-.009 4.058-1.202 11.31-1.252 11.648l-.122.724-.685.249a74.901 74.901 0 0 1-26.282 4.733 74.915 74.915 0 0 1-26.292-4.733zm45.987 21.1c.59.107 2.05.24 2.759-.985l2.498-4.581c-.587.193-1.346.243-1.946-.083-.789-.431-1.769-1.104-2.739-1.854 1.324.501 2.712.789 4.012.519.902-.19 1.828-1.009 2.205-1.855l3.397-7.462c4.424-1.741 9.548-4.121 13.049-6.282-2.451 10.095-6.361 16.578-8.326 19.72-2.7 4.359-12.049 5.356-15.028 3.676l-2.629-1.495c.965.252 2.047.557 2.748.682"/><path d="M46.775 116.667c-.783.982-.264 2.649.466 3.071.795-.288 1.59-1.84.994-2.941 2.077 1.917 3.065-1.495 1.317-2.109-.041 1.291-1.647 1.371-1.54.142l.143-1.629-.68-.053-.145 1.62c-.104 1.228-1.671.872-1.484-.401-1.836.291-1.453 3.831.929 2.3m6.703 2.75 1.204.25.887-.885-.284 1.92 1.249.842 1.246-.842-.282-1.92.887.885 1.202-.25.089-1.305-1.605-1.407.237-.51-1.623.27.05-1.282h-.406l.048 1.282-1.618-.27.238.51-1.608 1.407zm1.195 4.866c-1.8.457-1.115 3.944 1.128 2.214-.694 1.047-.036 2.658.736 3.017.757-.359 1.424-1.97.727-3.017 2.24 1.73 2.925-1.757 1.127-2.214.072 1.285-1.522 1.505-1.522.27v-1.635h-.677v1.635c0 1.235-1.587 1.015-1.519-.27m-1.195 10.792 1.204.249.887-.885-.284 1.926 1.249.834 1.246-.834-.282-1.926.887.885 1.202-.249.089-1.297-1.605-1.409.237-.514-1.623.264.05-1.276h-.406l.048 1.276-1.618-.264.238.514-1.608 1.409zm11.349-18.278c-.603 1.101.193 2.653.991 2.941.733-.422 1.246-2.089.463-3.071 2.385 1.531 2.765-2.009.934-2.3.178 1.273-1.379 1.629-1.492.401l-.143-1.62-.679.053.14 1.629c.115 1.229-1.49 1.149-1.532-.142-1.75.614-.762 4.026 1.318 2.109m-22.156-6.332a78.786 78.786 0 0 0 13.854 1.22 78.93 78.93 0 0 0 13.865-1.22l3.813 17.337c.439 2.371-8.91 9.1-11.272 10.925-1.926 1.489-5.163 4.557-6.397 5.99-1.232-1.433-4.474-4.501-6.403-5.99-2.359-1.825-11.705-8.554-11.275-10.925zm-11.942 1.122c.371.846 1.303 1.667 2.208 1.854 1.296.273 2.685-.017 4.008-.519-.97.751-1.952 1.428-2.738 1.854-.594.33-1.363.28-1.95.087.448.958 2.133 3.955 2.504 4.578.709 1.228 2.163 1.095 2.754.985.7-.122 1.78-.427 2.75-.682l-2.623 1.498c-2.985 1.676-12.328.679-15.037-3.676-1.961-3.146-5.872-9.625-8.323-19.723 3.502 2.163 8.62 4.54 13.052 6.282 1.107 2.735 2.888 6.329 3.395 7.462"/></g></g></svg>