<svg xmlns="http://www.w3.org/2000/svg" width="1000" height="1000"><path fill="rgba(255,255,255,0)" d="M0 0h1000v1000H0z"/><path d="M998.087 500.002c0 275.085-223 498.085-498.085 498.085S1.917 775.087 1.917 500.002s223-498.085 498.085-498.085 498.085 223 498.085 498.085" fill="#e5c4ab"/><path d="M988.125 500.002c0 269.535-218.446 488.123-488.123 488.123-269.535 0-488.123-218.588-488.123-488.123S230.467 11.879 500.002 11.879s488.123 218.588 488.123 488.123" fill="#a84027"/><path d="m37.495 491.89.284-18.927 50.093.854-.284 18.927c-.143 11.527-4.697 17.504-13.378 17.931-5.265-.284-8.823-3.273-10.673-9.108h-.284c-2.135 6.974-6.547 10.674-13.235 10.816-8.254-.854-12.381-7.685-12.523-20.493zm8.538-7.969-.142 8.396c-.427 5.977 1.708 8.823 6.404 8.823 4.696.285 6.973-2.561 6.973-8.538l.142-8.396-13.377-.285zm21.631.427-.142 8.396c-.142 4.554 1.708 6.831 5.55 7.116 3.985-.143 5.977-2.42 6.12-6.973l.142-8.397-11.67-.142zm-29.743 42.266 49.951-4.696 3.131 33.443-8.396.711-2.135-22.627-11.527 1.138 1.992 21.062-8.396.854-1.992-21.062-13.235 1.281 2.135 23.481-8.397.712-3.13-34.297zm57.21 52.797-49.24 8.966-1.993-10.674 49.24-8.965 1.992 10.673zm7.541 31.735 2.704 10.246-32.446 8.681c-10.674 2.562-17.647-1.423-20.778-11.811-2.988-10.247.997-17.078 11.67-20.493l2.846 10.53c-5.977 1.566-8.396 4.27-7.4 8.113.996 3.557 4.412 4.553 10.389 3.415h.853l32.162-8.68zm10.674 33.158L66.24 661.24l-3.7-10.246 47.105-16.935 3.7 10.246zM91.43 718.306l-6.546-13.947 29.316-35.435-.427-.142-37.428 17.788-4.27-9.107 45.255-21.49 6.831 14.374-27.608 34.012.427.142 35.435-16.792 4.27 9.108-45.255 21.489zm41.84 32.446-5.266-8.111 6.973-4.554 11.1 17.077-21.062 13.662c-2.846-2.42-5.408-5.266-7.4-8.397a101.08 101.08 0 0 1-6.689-9.25c-7.684-13.235-4.838-24.477 8.54-33.585 13.803-8.539 25.473-6.689 34.865 5.408 8.396 13.092 8.112 22.485-.996 28.32l-6.262-9.535c4.696-2.989 5.266-7.4 1.566-12.95-5.408-7.685-13.093-8.254-23.055-1.85-9.961 6.546-12.523 13.661-7.542 21.63 1.423 2.278 3.415 4.84 5.835 7.543.142.142.284.285.569.285l8.823-5.693zm64.323 29.743L160.45 814.08l-7.257-7.97 37.142-33.584 7.258 7.969zm7.827 76.847-11.384-10.388 13.661-43.974h-.427l-27.892 30.597-7.4-6.689 33.727-37 11.812 10.815-12.666 41.981h.427l26.47-29.03 7.4 6.688-33.728 37zm64.04 2.42-8.396-5.977c2.561-4.412 1.85-7.97-2.277-10.816-4.554-2.704-7.97-2.561-10.39.57-2.418 2.846-1.28 6.546 3.416 11.1.143.284.427.711.57 1.138 8.396 8.823 10.53 15.796 6.546 21.204-6.404 8.396-15.227 8.681-26.897.996-10.673-7.684-12.665-15.938-6.12-24.62l8.824 6.262c-3.415 4.839-2.988 8.966 1.566 12.381 5.407 3.558 9.392 3.7 11.954.427 1.85-2.704.711-6.404-3.7-11.242-.427-.57-.854-1.139-1.281-1.566-7.827-8.396-9.677-15.37-5.55-20.777 6.261-7.97 15.085-8.396 26.612-1.423 8.538 6.689 10.246 14.231 5.123 22.343zm10.815-.143 3.985-7.4 35.578 19.497-3.985 7.4L302.76 872l-20.065 36.574-9.535-5.265 20.066-36.574-12.95-7.116zm58.632 20.208L318.7 925.651l-9.962-4.411 20.208-45.824 9.962 4.411zm5.835 11.954 2.704-7.969 38.423 13.093-2.704 7.969-14.088-4.839-13.52 39.42-10.246-3.557 13.52-39.42-14.09-4.697zm80.832 14.09 10.673 2.276-6.404 30.739c-3.13 12.096-11.527 16.935-25.189 14.373-13.946-3.273-19.78-11.1-17.504-23.338l6.404-30.74 10.673 2.278-5.55 26.754c-2.988 10.815-.427 16.792 7.543 17.93 7.542 2.136 12.096-2.276 13.946-13.376l5.408-26.897zm17.646 11.669.712-8.397 40.558 3.416-.711 8.396-14.8-1.28-3.558 41.554-10.816-.996 3.558-41.555-14.943-1.138zm50.236 45.254-1.139-50.093 33.585-.712.143 8.397-22.77.569.285 11.67 21.062-.428.142 8.397-21.062.427.285 13.235 23.623-.57.142 8.397-34.296.711zm101.467-9.392c-15.512 2.846-25.047-3.843-28.747-20.066-3.13-16.65 2.989-26.897 18.216-30.597 15.085-2.561 24.62 4.412 28.746 20.92 2.704 16.366-3.273 26.327-18.215 29.743zm-8.966-42.978c-8.538 1.708-11.385 8.681-8.68 20.635 2.276 12.096 7.684 17.077 16.223 15.227 8.111-1.708 10.958-8.396 8.538-20.35-2.561-11.954-7.97-17.22-16.08-15.512zm57.493 29.458-9.961 3.416-15.939-47.532 30.597-10.246 2.704 7.97-20.493 6.83 3.842 11.243 19.212-6.404 2.704 7.969-19.212 6.404 6.546 20.35zm37.001-59.058-3.985-7.4 35.863-19.212 3.984 7.4-13.092 6.973 19.638 36.716-9.534 5.123-19.64-36.716-13.234 7.116zm66.743 10.673-28.32-41.27 27.751-18.927 4.696 6.973-18.784 12.808 6.546 9.677 17.362-11.954 4.696 6.973-17.362 11.954 7.542 10.958 19.497-13.377 4.696 6.973-28.32 19.212zm49.524-81.26-8.538 7.4c-4.127-4.268-8.681-4.553-13.52-.71-4.269 4.126-2.704 10.957 4.839 20.065 8.112 8.823 14.373 11.243 19.07 7.543 4.553-4.127 4.98-8.681 1.138-13.52l8.538-7.4c6.689 8.823 4.981 17.646-4.98 26.47-10.531 8.538-21.347 6.688-32.447-5.55-10.816-13.093-11.385-24.193-1.423-33.586 10.388-8.538 19.496-8.68 27.323-.711zm39.563 7.543-7.116 7.827-37.143-33.727 7.116-7.827 14.658 13.235 12.807-14.09-14.657-13.234 7.257-7.97 37.143 33.728-7.115 7.827-16.224-14.8-12.95 14.231 16.224 14.8zm56.639-72.578-8.823 12.666-45.397-7.827v.427l34.012 23.623-5.693 8.254-41.127-28.604L835 740.648l43.262 6.973v-.427L846.1 724.852l5.692-8.254 41.128 28.604zm19.212-33.727c-7.543 13.804-18.785 17.077-33.728 9.82-14.942-8.113-19.07-19.213-12.38-33.444 7.542-13.377 18.927-16.508 34.296-9.25 14.658 8.112 18.5 19.07 11.812 32.874zm-38.993-20.066c-3.985 7.685-.427 14.231 10.53 19.781 10.816 5.835 18.216 4.839 21.917-2.988 3.842-7.4.284-13.805-10.39-19.355-10.957-5.834-18.215-4.838-22.057 2.562zm66.6-46.535-11.242 30.17-46.962-17.505 3.7-9.962 39.135 14.516 7.543-20.35 7.827 3.13zm10.247-35.009c-4.127 15.227-14.23 20.92-30.454 17.362-16.366-4.411-23.054-14.23-19.781-29.6 4.127-14.8 14.515-20.493 31.166-16.935 16.08 4.411 22.342 14.088 19.07 29.173zm-42.55-10.388c-1.993 8.396 2.846 13.946 14.942 16.792 11.954 3.131 18.785.427 20.635-8.111 1.992-8.112-2.988-13.52-14.658-16.366-12.096-2.989-19.07-.427-20.92 7.685zm35.435-63.328-.996 9.677-8.397-.854 2.135-20.208 25.046 2.704c.712 3.7.854 7.4.427 11.242 0 2.847-.142 6.689-.711 11.385-2.277 15.227-11.527 22.058-27.75 20.777-16.082-2.134-24.051-10.815-23.624-26.185 1.565-15.37 7.827-22.627 18.643-21.488l-1.139 11.242c-5.55-.57-8.68 2.42-9.392 9.108-.57 9.392 4.98 14.658 16.792 15.939s18.358-2.847 19.497-12.097c.284-2.704.284-5.834.142-9.535 0-.142 0-.426-.285-.569l-10.388-1.138zm19.78-39.562-16.223.284-33.585 17.647-.284-12.666 22.77-10.673-23.197-10.104-.143-10.816 34.155 16.224 16.223-.285.285 10.389z" fill="#fff"/><path d="M881.108 500.002c0 210.476-170.63 381.106-381.106 381.106s-381.106-170.63-381.106-381.106 170.63-381.106 381.106-381.106 381.106 170.63 381.106 381.106" fill="#e5c4ab"/><path d="M874.42 500.002c0 206.776-167.642 374.418-374.418 374.418S125.584 706.778 125.584 500.002s167.642-374.418 374.418-374.418S874.42 293.226 874.42 500.002" fill="#005f31"/><g fill="#fff"><path d="M603.461 199.301c-7.257-.285-12.523 1.138-15.938 2.562 8.254-7.97 13.234-14.516 14.23-15.655 3.274-.711 8.966-3.273 12.382-12.096 5.55-14.942 2.988-24.62 2.988-24.62s-12.95 5.55-17.504 17.505c-2.989 7.684-2.135 13.519-1.28 16.65-1.282 1.708-5.124 6.404-12.097 12.665 1.708-3.415 3.13-8.68 3.273-16.365.285-15.939-3.558-21.489-3.558-21.489s-10.673 7.116-10.673 23.481c0 12.381 2.846 18.074 4.27 20.066-4.697 3.842-10.39 7.97-17.078 12.096 2.277-3.558 4.839-9.535 5.692-18.5 1.708-18.073-5.123-23.481-5.123-23.481s-11.1 8.396-11.384 24.762c-.143 11.811 3.13 18.073 4.98 20.777-6.404 3.7-13.52 7.258-20.208 10.104 2.847-3.7 5.977-9.82 5.977-18.927 0-17.504-4.554-22.485-4.554-22.485s-12.096 8.396-12.096 25.046c0 10.958 2.42 16.65 4.127 19.354-10.673 4.412-18.785 7.258-18.785 7.258l.996 6.547s8.397-2.42 20.066-7.258c.854 2.419 4.412 9.82 15.654 14.8 13.662 6.12 24.762.57 24.762.57s-6.262-8.824-17.931-14.659c-6.404-3.13-11.385-3.984-14.8-3.984 5.835-2.704 12.096-5.835 18.358-9.393.142 0 .142-.142.284-.142 1.708 2.846 6.689 9.108 20.208 12.523 14.658 3.842 22.343-.711 22.343-.711s-3.13-9.962-18.5-13.947c-7.97-2.134-13.662-2.42-17.504-1.992 6.404-4.27 12.096-8.966 17.077-13.377 2.42 1.85 9.392 6.546 20.35 6.546 13.662 0 21.489-9.82 21.489-9.82s-7.115-3.842-20.493-4.411"/><path d="M685.717 265.048s-34.013 10.389-71.155 15.939c-44.117 6.546-92.929 5.692-92.929 5.692l-9.392-48.812s-1.423-16.366-12.239-16.366-12.239 16.366-12.239 16.366l-9.392 48.812s-48.812.854-92.929-5.692c-37-5.55-71.155-15.939-71.155-15.939s-.284 24.335 19.355 42.835c17.788 17.078 35.292 17.362 35.292 17.362s-1.423 22.343 19.924 35.436c13.946 8.538 30.454 4.126 30.454 4.126s4.27 19.07 25.474 22.343 29.173-4.98 29.173-4.98l-9.961 45.254h71.724l-9.962-45.255s7.97 8.254 29.174 4.981 25.473-22.342 25.473-22.342 16.508 4.411 30.454-4.127c21.347-13.093 19.924-35.436 19.924-35.436s17.504-.284 35.293-17.361c19.923-18.643 19.639-42.836 19.639-42.836"/></g><path d="M724.994 585.246c-43.404 0-224.992-9.535-224.992-9.535l-224.992 9.535c-56.07 0-79.267-9.962-79.267-9.962s14.374 31.735 38.709 42.408c20.35 8.966 27.323 11.812 94.351 23.624s134.483 16.935 134.483 16.935l-13.235 61.762 49.951 10.816 49.95-10.816-13.234-61.762s67.455-5.123 134.483-16.935 74.001-14.658 94.351-23.624c24.335-10.815 38.709-42.408 38.709-42.408s-23.054 9.962-79.267 9.962" fill="#009148"/><path d="m688.278 506.406-188.276 3.273-188.276-3.273c-71.724-.996-91.932-4.27-91.932-4.27s12.096 18.501 26.47 31.593c16.934 15.512 48.527 30.597 109.863 42.978 61.335 12.239 108.44 16.081 108.44 16.081l-12.239 55.643 47.674 9.393 47.674-9.393-12.239-55.643s47.105-3.842 108.44-16.08 92.929-27.324 109.864-42.979c14.373-13.092 26.47-31.592 26.47-31.592s-20.35 3.273-91.933 4.269" fill="#30b683"/><path d="m665.509 433.259-165.507 2.277-165.507-2.277c-43.404-.997-60.339-2.847-83.535-6.547 0 0 33.015 62.332 111.286 83.963 72.578 20.066 103.317 17.931 103.317 17.931L454.178 582.4l45.824 5.55 45.824-5.55-11.385-53.793s30.739 2.135 103.317-17.93c78.27-21.632 111.286-83.964 111.286-83.964-23.054 3.7-40.13 5.693-83.535 6.547" fill="#96dabf"/><path d="M622.816 358.404c-2.42 2.419-5.408 4.696-8.824 6.83-10.958 6.831-23.196 6.547-29.742 5.693-2.989 6.83-10.674 18.785-28.178 21.63-9.82 1.566-17.077.855-22.485-.568l8.966 40.985h-84.96l8.966-40.985c-5.265 1.423-12.665 2.134-22.485.569-17.646-2.704-25.331-14.658-28.177-21.631-6.546.854-18.785 1.138-29.743-5.693-3.415-2.134-6.404-4.411-8.823-6.83-70.017-5.266-96.629-14.231-96.629-14.231s37.286 86.809 126.372 109.436c35.292 8.965 60.339 6.546 60.339 6.546l-11.385 48.101 43.832 1.423 43.831-1.423-11.385-48.1s25.047 2.418 60.34-6.547c89.086-22.627 126.371-109.436 126.371-109.436s-26.327 8.965-96.201 14.23" fill="#d2f3ea"/><path d="M612.854 831.584c-8.823-3.13-15.512-6.688-18.643-8.823-3.13-2.277-6.261-7.97-9.677-7.97s-5.265-4.41-7.542-6.26c-2.277-1.709-5.266-.428-6.689-1.709-1.28-1.28-1.28-6.688-7.115-9.25-5.693-2.704-7.97-1.708-10.674-3.13-2.704-1.281-3.984-5.693-7.542-6.262-3.558-.427-6.689-.427-11.527-1.708s-5.266-7.97-10.673-7.97c-5.266 0-15.512-.426-15.512-.426v-30.597h3.13l-10.673-10.673-10.673 10.673h3.13v30.597l-15.51.427c-5.266 0-5.693 6.688-10.674 7.969-4.839 1.28-7.97 1.28-11.527 1.708s-4.839 4.838-7.543 6.261c-2.704 1.281-4.838.427-10.673 3.131-5.692 2.704-5.692 7.97-7.115 9.25-1.281 1.281-4.412 0-6.689 1.708s-3.985 6.262-7.542 6.262-6.689 5.692-9.677 7.97c-3.131 2.276-9.678 5.691-18.643 8.822-8.823 3.131-37.143 3.985-37.143 3.985H649.57c.569 0-27.75-.854-36.716-3.985" fill="#00a64f"/><path d="M455.174 798.284v29.885h-3.842v-21.062h-7.116v-2.989c4.981.285 7.685-1.707 8.112-5.834h2.846zm18.358 22.77h3.7c.427 3.272 2.135 4.838 5.124 4.838 3.842.142 6.261-3.558 7.115-11.1h-.142c-1.281 2.277-3.416 3.415-6.831 3.415-5.977-.284-9.108-3.558-9.25-9.677.284-6.688 3.557-10.104 9.677-10.246 6.688.142 10.246 4.696 10.388 13.804-.427 10.815-4.127 16.365-10.957 16.65-5.55-.142-8.397-2.704-8.824-7.685m9.535-6.119c3.7-.285 5.55-2.42 5.693-6.83-.143-4.128-2.135-6.262-5.978-6.262-3.7.284-5.55 2.419-5.834 6.688 0 4.27 1.992 6.404 6.12 6.404m41.696 5.977h-4.412v7.258h-3.7v-7.258H503.56v-3.7l13.662-18.927h3.13v19.354h4.412v3.273zm-8.396-16.793-9.393 13.662h9.677v-13.662h-.284zm39.42 9.678c-.285 9.819-3.7 14.8-10.247 14.942-6.688-.142-10.104-5.123-10.246-14.942.284-10.104 3.7-15.37 10.246-15.37 6.404.142 9.82 5.266 10.247 15.37m-3.985 0c0-7.97-2.135-11.954-6.262-11.954s-6.12 3.984-6.12 11.954 1.993 11.954 6.12 11.954c4.127-.143 6.262-4.127 6.262-11.954m-374.56-592.152c-5.266-5.266-10.958-12.097-13.946-15.94-2.989-3.7-5.693-8.965-8.966-9.25-3.273-.142-6.689 5.266-7.97 6.69-.996.996-3.13 1.422-4.269 1.85-.427.142-.711.996-.854.996-.569 4.411 1.993 4.127 4.127 4.553s5.266 5.266 7.685 10.39-3.13 5.691-5.123 10.957 2.42 6.83 4.839 9.392c2.561 2.562 4.696 3.274 4.838 2.704s3.273-4.696 5.55-6.688c2.135-1.993 4.127.427 5.835 3.984s-2.135 10.816-3.273 15.085-2.704 5.266-.854 6.404c1.992 1.139 6.404 2.42 9.392 2.42s3.7-2.135 3.7-4.127 1.139-4.127 1.993-9.82 3.984-13.377 3.984-20.066c0-6.404-1.423-4.269-6.688-9.534zm45.824-17.647c-3.131-3.13-4.27-8.823-9.108-5.55s-10.104 9.82-13.377 7.827-9.535-4.98-9.535-9.25 2.277-7.97 2.988-10.673 2.847-3.985 1.139-7.685-5.835-5.55-8.254-3.842-1.992 8.111-5.265 6.119-3.558-3.558-3.558-5.408-3.131-7.97-6.973-5.692-9.535 6.404-11.812 9.961c0 0-.854 2.277 0 3.558s7.4 9.535 11.242 14.943c3.843 5.55 8.966 13.235 14.231 18.073 5.266 4.981 10.816 9.677 15.228 9.677s14.515-9.25 16.934-11.954c2.847-2.704 9.25-6.973 6.12-10.104zm61.905-103.032c6.119-6.12 14.942-14.231 17.504-15.797s5.692-2.277 4.98-5.55c-.711-3.13-4.269-6.261-8.68-4.269s-13.093 10.104-13.093 10.104-2.561-12.239-10.958-10.246c-8.538 1.992-12.238 9.25-12.238 9.25s-.57 3.13 2.703 3.7c3.416.57 3.416 2.42 3.558 4.127s-.711 3.415 1.423 3.7 1.281-1.423 3.843-.427c0 0 .711 1.708-.143 2.988-.996 1.281-12.38 11.385-16.508 14.658s-5.692 4.839-5.265 7.827c.285 2.704 2.277 7.4 7.685 3.985 5.407-3.7 19.07-17.93 25.189-24.05zm4.554 45.539c-1.993.142-4.839 4.98-6.262 4.412-1.139-.427-2.562-2.135-2.562-2.135-2.419-1.992-3.842 1.708-4.411 6.83-.712 5.124 3.557 10.674 6.688 11.528s3.843-3.416 5.55-5.123c1.85-1.708 2.42-4.554 2.562-8.539.142-4.27.427-7.115-1.565-6.973zm37.854-24.335c-2.42-2.135-5.408-3.13-7.827-2.704-2.42.57-2.846 1.85-5.266 2.704s-4.127-.996-5.834 1.708c0 0 .854 4.127 3.415 6.119s6.262 3.985 7.543 5.55c1.28 1.423 1.707 3.416 2.703 2.989s5.408-4.981 6.12-6.12c.854-1.28 1.565-8.111-.854-10.246zm-24.904 6.546s.996-.569 2.134-2.134.285-3.558.285-7.685c.142-4.27.427-8.539.854-13.377.284-4.839-1.423-8.397-7.685-7.4-6.262.853-6.973 3.984-7.685 5.692-.569 1.708-9.534 11.812-11.954 12.95-2.561.996-4.696.142-4.696.142-6.973 1.281-2.561 10.104.996 13.947s9.535 9.962 11.527 9.535 1.993-2.562 5.408-2.704 3.843 4.269 6.689 7.97c3.13 3.841.996 5.55 0 6.26-.712.428-1.85.997-4.412.57-2.561-.57-1.423 2.704-1.423 2.704s4.27 1.85 6.83 2.561c2.562.854 5.409.712 9.678.854 4.412.143 4.27-2.419 4.554-9.25.285-6.973-3.416-10.104-7.827-14.8-4.27-4.98-3.273-5.835-3.273-5.835zm-10.247-10.104c-1.28 2.135-.711 5.123-2.988 5.977-2.135.712-5.266.143-3.273-2.988 2.134-3.131 3.558-4.839 4.411-5.977.712-1.139-.142-1.85 2.135-1.708 0 0 .996 2.704-.285 4.696zm123.668-33.016c-1.993-.427-1.281-3.13 2.134-5.408s4.697-3.984 4.127-6.261c-.427-2.42-1.423-3.131-3.273-3.843s-3.7-1.28-3.557-4.127 2.419-5.977 3.273-7.542c.996-1.565 2.704-5.408 2.134-9.392s-3.273-7.258-8.68-4.697-7.116 6.262-10.674 8.254c-2.277 1.281-5.55 2.847-8.254 4.839-1.423 1.138-2.561 4.127 1.139 5.977s3.7 3.415 5.55 3.7 3.415-1.139 3.842 1.565c.427 2.562-.427 5.408-3.13 6.831-2.562 1.281-6.12 1.423-6.12 4.27s5.835 3.557 5.977 7.257-.57 4.412-3.13 6.831c-2.562 2.562-5.693 3.7-5.124 8.112s4.554 9.82 8.396 9.25c3.985-.57 4.981-5.123 8.539-7.97s13.804-8.111 13.52-13.376c.142-5.266-4.697-3.985-6.69-4.27zm53.224-.142c-3.843-.996-6.689 1.423-11.243 2.846s-5.408.285-5.55-1.423 5.693-3.842 6.689-5.977.427-4.696-3.416-5.977c-3.842-1.138-3.842.996-6.83 2.277s-1.14-3.842-1.14-3.842 3.986-.143 7.828-2.847 3.13-3.984 4.412-8.396c1.28-4.554 4.98-8.112 6.83-15.512 1.85-7.542.427-7.4-1.85-10.673s-5.977-3.985-11.242-2.42c-5.266 1.709-18.358 9.536-22.058 10.816-3.558 1.281-7.827.143-7.827.143-3.131.996-1.281 6.83-1.139 9.25.285 2.277.285 6.12 1.993 8.254 1.85 2.134.854 3.842.142 6.688s1.138 4.412 3.415 6.404 3.274 2.704 4.697 2.42c1.28-.427 2.561-2.42 4.127.284 1.565 2.562-.143 1.993-3.273 3.273-3.131 1.139-3.274 1.708-3.274 5.266s5.835 1.565 7.116 3.7-3.985 3.558-8.966 5.265c-4.838 1.708-6.546 2.42-4.98 6.689 1.28 3.7 4.127 5.835 7.115 5.408s9.962-4.839 17.789-7.543 9.535-1.707 16.792-1.565 6.12-2.704 6.831-5.977c1.139-3.558.854-5.835-2.988-6.831zm-21.774-39.99c1.708-1.422 3.7-2.418 4.697-1.138 1.138 1.139-.143 4.127-1.139 4.839-1.138.711-2.846 2.135-4.27.285-1.422-1.993.712-3.985.712-3.985zm-12.808 6.974c1.85-1.85 3.274-3.558 4.554-1.28 0 0 .427 1.28-.854 2.988-.711.854-1.565 1.85-2.419 1.992s-3.13-1.85-1.28-3.7zm4.554 12.096c-1.28 1.281-3.415 2.847-4.127.997s0-3.416 1.85-3.843c1.85-.284 2.562-1.423 3.558.57-.142 0-.285 1.138-1.28 2.276zm6.404-4.554c0-.853 1.566-1.992 1.566-1.992 1.992-2.277 4.411-.427 3.842.427-.57.996-1.423 3.558-3.13 3.7s-2.278-1.28-2.278-2.135zm142.31-8.538s7.258.854 12.097.427c4.838-.57 11.527-2.704 14.8-1.423 3.13 1.28 6.12 6.119 4.696 9.961-1.28 3.843-5.123 4.127-6.973 5.124s-2.846 1.85-4.554 2.134-5.265-1.423-6.83.996c-1.566 2.562.426 3.7-.997 6.262s-7.827 10.673-3.7 11.527 10.958.285 14.8 1.708 6.689 3.558 6.973 8.112.143 8.111-5.692 7.969-15.939-7.116-30.881-8.681-21.774-1.708-25.9-.996c-4.27.711-10.39 2.277-11.243-4.127-.854-6.262-.427-10.104 7.4-9.677s14.8 1.138 22.485-.996c7.827-2.277 10.246-10.247 8.823-12.524s-4.412-2.134-6.12-1.85c-1.85.285-2.419-2.419-1.28-4.554.996-2.277-.854-2.988-.854-6.261s-.711-7.97 3.985-7.258c4.411.711 3.13 2.988 8.965 4.127zm114.56 51.658s-3.558 1.281-2.989 5.266 2.42 6.546 5.123 7.4c2.562.854 6.831 1.423 5.266 3.13s-8.966 5.55-14.231 6.262-8.254 1.566-13.377 1.566-5.835 0-5.835 1.565 1.423 2.846 1.566 4.27.569 4.98 11.384 4.98 17.79-1.707 20.92-2.988 5.408-2.846 5.408-2.846 3.13 7.4 3.984 13.804c.854 6.546.712 10.673.712 12.808s-1.423 2.988 2.42 6.546 8.822 8.396 14.8 8.396 7.542-4.98 7.542-4.98-9.962-8.397-13.377-18.5c-3.273-9.963-3.131-11.243-3.558-14.374-.285-3.131-3.558-12.097 1.28-12.524 4.697-.284 7.828.997 14.232 1.993 6.261.854 11.385.142 10.388-4.412s-3.13-6.973-7.684-7.4l-11.385-.57s7.97-6.118 6.261-10.815c-1.707-5.123-3.273-3.273-6.119-5.265-1.565-.996-1.992-3.985-5.265-1.281-3.273 2.846-5.835 7.685-8.254 9.962s-3.131 2.988-6.831.569c-3.558-2.135-7.97-5.123-12.381-2.562zm122.102 85.386s-3.7 3.7-3.7 5.124 2.134 3.13 3.7 3.13c1.708 0 3.558-4.838 6.12-7.4s11.526-13.804 13.376-12.95 4.412 2.562 2.989 4.98-16.366 16.082-17.362 16.936c-.854.854-.57 2.42.712 3.13 1.423.712 7.115 5.408 7.827 6.12s1.992.996 2.561-.142 0-2.704-1.565-2.562-1.993-.854-1.993-.854 3.131-1.565 1.423-2.134c-1.85-.57-2.419 0-4.269-.427s-1.138-2.989 1.139-4.554c2.419-1.566 12.238-13.52 13.804-12.95 1.707.569 1.565 2.419 0 4.126s-3.558 4.839-4.696 5.835c-.997.996-1.424 2.42-.854 2.846.427.427 2.277.997 2.277 1.993 0 .854-2.42 2.419 0 2.704s6.261-.854 4.696-3.131c-1.708-2.277-3.843-2.277-3.843-2.277s-1.138-2.846 2.135-3.843 2.989.57 4.127-.284c.996-.854.142-4.981 2.846-4.839s0 4.981 3.131 4.697 3.842-3.416 6.831-2.135c2.846 1.423 4.696 6.973 1.138 7.4-3.415.427-4.127-.285-5.977 1.423-1.992 1.708-2.419 4.127-4.696 5.408-2.277 1.423-9.108.711-10.673 2.846s0 7.116 2.277 7.116.854-4.697 2.988-5.266 2.135.142 3.558 0c1.566-.142 1.139-2.277 2.846-2.135s3.843.427 5.55-.284 1.85-4.981 4.554-4.839 4.412 1.993 6.831 2.42 4.127.284 4.127 4.127c0 3.7-1.565 5.55-5.55 5.407-4.127-.142-7.685.427-12.096 2.989s-7.258 4.127-3.416 5.55c3.7 1.565 4.412 4.696 4.981 7.685s-3.415 8.68-6.973 8.538c-3.415-.142-6.83-3.842-9.82-6.83-2.988-2.847-4.696-5.124-11.242-5.124-6.688 0-10.958.57-8.965 2.704s4.98 1.139 6.404 4.839c1.565 3.557.996 8.965-.712 9.677-1.85.569-5.123-.143-7.97-2.562s-4.41-4.27-7.684-3.273c-3.273.854-4.98 4.839-10.389 7.542s-9.961.854-14.088-2.703c-4.27-3.558-4.839-4.412-3.558-6.12 1.138-1.85 1.565-2.561 1.565-4.269s-.142-3.7-.142-3.7 4.554 1.85 5.835 3.558 3.415 2.988 6.404 2.561 7.542-2.277 5.265-4.554-9.962-7.542-11.67-9.534c-1.85-1.993-2.276-4.27.855-6.404 3.13-2.277 4.411-3.843 7.115-.854s5.123 5.408 7.258 6.83 2.988 2.135 5.692.712c2.704-1.28 6.262-2.42 3.131-3.842-3.13-1.566-5.408-1.423-6.973-3.558-1.566-2.277 3.558-7.4 8.254-6.12 4.696 1.14 8.823 5.835 10.815 6.974 1.993.996 5.693 1.138 7.258 4.27 1.566 2.988 3.7 5.976 6.262 6.688 2.561.569 5.408.711 2.561-2.277s-13.234-11.243-16.934-14.089-8.397-5.835-13.093-5.692-8.68 1.423-11.527-1.423c-2.846-2.704-.427-4.697 2.562-7.827s3.415-4.697 7.4-4.839c3.842-.57 4.98.142 9.25-.285z" fill="#fff"/><path d="M384.304 839.411c-8.823-3.273-19.496-3.984-19.496-1.28 0 1.707 8.965 1.28 15.227 6.119 6.119 4.696 7.542 11.954 7.542 11.954h10.246c.143 0 .427-11.67-13.519-16.793m22.77 1.281c-1.139 0-1.993.854-1.993 1.992v14.09c0 1.138.854 1.992 1.993 1.992s1.992-.854 1.992-1.993v-14.089c0-.996-.854-1.992-1.992-1.992m13.661 0c-1.138 0-1.992.854-1.992 1.992v14.09c0 1.138.854 1.992 1.992 1.992s1.993-.854 1.993-1.993v-14.089c.142-.996-.854-1.992-1.993-1.992m-6.83-2.704c-.997 0-1.85.854-1.85 1.85v19.924c0 .996.853 1.85 1.85 1.85s1.85-.854 1.85-1.85v-19.924c0-.996-.854-1.85-1.85-1.85m92.928 20.92c1.138 0 1.992-.854 1.992-1.993v-14.088c0-1.139-.854-1.993-1.992-1.993s-1.992.854-1.992 1.993v14.088c-.143.997.853 1.993 1.992 1.993m-13.804 0c1.138 0 1.992-.854 1.992-1.993v-14.088c0-1.139-.854-1.993-1.992-1.993s-1.993.854-1.993 1.993v14.088c0 .997.854 1.993 1.993 1.993m6.83 2.704c.997 0 1.85-.854 1.85-1.85v-19.924c0-.996-.853-1.85-1.85-1.85s-1.85.854-1.85 1.85v19.924c0 .996.855 1.85 1.85 1.85m92.93-20.92c-1.14 0-1.993.854-1.993 1.992v14.09c0 1.138.854 1.992 1.992 1.992s1.992-.854 1.992-1.993v-14.089c0-.996-.853-1.992-1.992-1.992m-6.83-2.704c-.997 0-1.85.854-1.85 1.85v19.924c0 .996.853 1.85 1.85 1.85s1.85-.854 1.85-1.85v-19.924c0-.996-.855-1.85-1.85-1.85m-6.974 2.704c-1.138 0-1.992.854-1.992 1.992v14.09c0 1.138.854 1.992 1.992 1.992s1.992-.854 1.992-1.993v-14.089c.143-.996-.853-1.992-1.992-1.992m-12.38 2.704c-11.386-8.965-23.624-7.827-31.878-6.689-24.478 3.416-25.332 27.893-25.332 27.893l-20.208-.142s1.708-23.339-21.061-26.897c-21.916-3.557-28.89.427-36.716 8.824-3.985 4.269-6.12 14.942-4.27 16.08 1.566 1.14 2.42-1.138 2.42-1.423 1.565-5.407 7.4-20.065 26.47-18.215 23.338 2.277 22.627 27.181 22.627 27.181L512.383 872s.854-34.154 30.312-29.742c24.193 3.557 19.923 25.188 19.923 25.188l12.381-1.28s2.135-14.516-8.396-22.77m39.99-2.277c-6.12 4.412-8.397 9.535-9.678 15.085-.711 3.273.285 4.127 1.28 3.985.57 0 1.282-1.281 1.566-2.277.996-2.847 2.704-7.4 8.824-10.816 8.396-4.554 19.496-2.277 19.496-2.277v-8.68c-6.973.284-15.37.568-21.489 4.98" fill="#00a64f"/></svg>