<svg xmlns="http://www.w3.org/2000/svg" xmlns:xlink="http://www.w3.org/1999/xlink" width="250" height="250"><style>.B{fill:#00498a}.C{fill-opacity:0}.D{stroke:#000}.E{stroke-opacity:0}</style><defs><path d="M145.93 19.45c2.34-1.48 4.81-2.6 7.4-3.46.69-.22 1.3-.66 1.94-1.04.54-.32.93-.1 1.34.26.44.37.39.77.03 1.07-.79.65-1.62 1.26-2.48 1.82-.81.53-.87.63-.23 1.35.45.51.45.85-.07 1.01-.95.28-1.94.47-2.97.58l1.22-.77.44-.66c-.2-1.15.68-1.57 1.34-2.14l.62-.58.1-.41h-.45l-3.05 1.9c-.44.3-.78.72-1.22 1.01-.76.51-1.6.59-2.49.37l-1.47-.31" id="i"/><path d="M210.29 42.95C188.31 20.13 161.2 7.84 129.53 6.72 94.48 5.49 64.3 17.6 39.89 42.8 17.06 66.36 5.95 94.92 6.69 127.74c.72 32.12 12.76 59.65 35.75 82.02 23.73 23.09 52.47 34.36 85.59 33.54 32.5-.8 60.22-13.21 82.65-36.67 21.74-22.73 32.37-50.19 32.81-81.83-.46-31.47-11.23-59.03-33.2-81.85zM250 119.14v11.72a2.07 2.07 0 0 0-.15.25l-.56 7.29a113.31 113.31 0 0 1-.93 6.87c-.48 2.86-.98 5.72-1.64 8.53-1.16 4.85-2.57 9.63-4.31 14.31a141.92 141.92 0 0 1-5.1 11.97 77.2 77.2 0 0 1-2.52 4.76c-1.4 2.46-2.8 4.94-4.31 7.33-2.25 3.57-4.64 7.05-7.34 10.3-2.23 2.65-4.41 5.35-6.75 7.9-2.1 2.28-4.37 4.4-6.63 6.52-1.75 1.63-3.54 3.23-5.41 4.73-2.38 1.92-4.81 3.78-7.29 5.57-4.11 2.97-8.41 5.65-12.9 8-2.85 1.49-5.72 2.94-8.67 4.21-3.27 1.42-6.61 2.71-9.98 3.92-4.11 1.49-8.33 2.65-12.6 3.59-2 .43-4.01.83-6.03 1.19a129.26 129.26 0 0 1-5.23.81c-1.78.24-3.56.49-5.34.65-1.71.15-3.43.19-5.14.29a4.6 4.6 0 0 0-.32.15h-11.71a8.65 8.65 0 0 0-.32-.15l-3.37-.15c-.66-.03-1.32-.07-1.97-.14l-5.33-.66c-1.86-.25-3.74-.45-5.57-.85-3.91-.85-7.81-1.77-11.69-2.74-4.27-1.07-8.43-2.53-12.48-4.23-3.82-1.62-7.56-3.42-11.29-5.24-2.18-1.06-4.3-2.24-6.36-3.51-2.79-1.72-5.54-3.51-8.21-5.4-2.42-1.71-4.76-3.57-7.06-5.45-2.16-1.76-4.29-3.57-6.29-5.51-2.62-2.54-5.12-5.21-7.62-7.86-1.22-1.29-2.4-2.63-3.49-4.03-1.97-2.51-3.93-5.04-5.76-7.64-3.32-4.73-6.28-9.67-8.88-14.83-1.02-2.01-2.01-4.03-2.87-6.11-1.37-3.3-2.69-6.62-3.91-9.98-1.49-4.12-2.65-8.33-3.58-12.61-.44-2-.84-4.01-1.2-6.02-.31-1.74-.57-3.49-.81-5.24-.24-1.78-.49-3.55-.65-5.34-.14-1.7-.19-3.42-.28-5.14-.02-.03-.14-.28-.15-.31v-11.72a8.65 8.65 0 0 1 .15-.32l.14-3.37c.03-.65.07-1.31.14-1.97l.66-5.33c.26-1.86.45-3.73.85-5.57.85-3.91 1.77-7.8 2.75-11.68 1.07-4.28 2.52-8.44 4.23-12.49 1.61-3.81 3.41-7.56 5.23-11.28 1.06-2.18 2.24-4.31 3.51-6.37 1.72-2.79 3.51-5.54 5.4-8.21 1.72-2.42 3.57-4.76 5.45-7.05 1.78-2.18 3.62-4.31 5.55-6.35 2.02-2.12 4.13-4.14 6.26-6.13 1.82-1.7 3.66-3.37 5.6-4.92 2.49-2 5.02-3.94 7.63-5.76 4.73-3.31 9.68-6.28 14.83-8.89 2.01-1.01 4.04-2 6.11-2.86a223.65 223.65 0 0 1 9.85-3.89c2.35-.85 4.76-1.56 7.17-2.22 2.46-.67 4.94-1.27 7.43-1.78 2.82-.56 5.66-1.04 8.5-1.48 2.09-.32 4.2-.58 6.3-.78 1.69-.16 3.39-.19 5.08-.29.03-.01.28-.14.32-.15h11.71a2.07 2.07 0 0 1 .25.15l7.29.56c2.3.23 4.6.54 6.88.92 2.85.49 5.71.98 8.53 1.65a121.95 121.95 0 0 1 14.31 4.31c4.08 1.5 8.06 3.21 11.97 5.09 1.62.78 3.2 1.63 4.75 2.52 2.47 1.4 4.95 2.8 7.34 4.32 3.57 2.25 7.05 4.63 10.29 7.33 2.66 2.23 5.36 4.41 7.91 6.76 2.27 2.1 4.39 4.37 6.51 6.63 1.59 1.69 3.15 3.44 4.6 5.26 2.13 2.66 4.24 5.33 6.21 8.12 2.78 3.92 5.31 8.01 7.53 12.27 1.47 2.83 2.91 5.69 4.18 8.61 1.41 3.25 2.7 6.57 3.9 9.91 1.62 4.51 2.86 9.14 3.86 13.83.35 1.61.66 3.24.94 4.87.3 1.74.57 3.49.81 5.24.24 1.77.48 3.55.64 5.33.16 1.71.19 3.43.29 5.14.01.03.06.13.16.32" id="A"/><path d="m217.43 157.4 7.63 2.76 3.45 1.21c.4.14.53.32.31.72-.16.29-.24.61-.38 1l-11.55-4.15-1.33 3.68-1.6-.58 2.99-8.28.48-1.56.59-.53 6.32-1.37a5.86 5.86 0 0 1 .26-.19l-3.24-2.78-2.05-1.76c-.01-.06-.12-.48-.13-.53.12-.5.29-.98.46-1.52l2.62 2.31 4.19 3.74c.41.35 1.07.43 1.63.58l3.96 1.01-.35 1.61-4.91-1.17c-.53-.11-1.13-.07-1.66.06l-7.17 1.76c.78.13.78.52.58 1.04l-1.1 2.94" id="C"/><path d="M26.46 151.87c.34 1.33 1.05 1.86 2.35 1.78.92-.06 2.04-.99 1.83-1.92l-.69-3.31c-.03-.03-.29-.23-.32-.25l-3.84 1.07.67 2.63zm-6.14 1.9c.34 1.53 1.54 2.61 3.37 1.89.87-.33 1.46-.95 1.34-1.86-.18-1.26-.5-2.51-.8-3.76a10.21 10.21 0 0 1-.42-.28l-4.27 1.15.78 2.86zm6.4.85c-.33.57-.56 1.11-.91 1.57-.6.77-1.43 1.15-2.41 1.27-3.06.37-4.2-1.1-4.88-3.8l-1.04-3.94 13.48-3.64.61 2.21.73 2.98c.36 1.89-.41 3.13-2.26 3.78-1.16.4-2.27.39-3.32-.43" id="D"/><path d="m185.1 217.55-8.07-11.35a.8.8 0 0 1 .08-.16c.94-1 1.83-.96 3.03-.29l8.53 4.35.56.27c.05-.05.07-.08.08-.09-.34-.58-.71-1.12-1.09-1.66l-4.77-6.66c.01-.04.06-.43.07-.48.3-.26.66-.48 1.06-.76l8.15 11.4c-.1.06-.84.6-.93.66-.38.34-.73.35-1.19.11l-9.9-5.02-.7-.32 2.84 4.03 3.24 4.52c.27.37.34.57-.13.8l-.86.65" id="E"/><path d="m33.5 186.69 11.23-8.3c.34.41.69.78.93 1.21l.02.87-4.84 9.84c-.01.06-.13.57-.14.63l8.62-6.34 1 1.28-2.39 1.78-8.43 6.23-.77-.08c-.81-.79-.66-1.47-.19-2.39 1.6-3.11 3.08-6.29 4.62-9.44.02-.05.17-.46.19-.51l-3.78 2.75-4.78 3.56c-.06-.01-.49-.11-.54-.12-.26-.25-.46-.57-.75-.97" id="F"/><path d="m129.01 235.15-1.59.1-.87-13.77c.9-.53 1.99-.25 2.51.63 1.89 3.16 3.79 6.31 5.84 9.45l-.66-10.63 1.57-.21c.07.83.16 1.6.2 2.39l.28 5.54.39 5.25v.67l-.64.21c-.8.17-1.2.01-1.56-.58l-6.05-9.96c0 .8-.03 1.6.01 2.4.05.96.19 1.91.25 2.88.07 1.12.08 2.25.14 3.36.04.75.12 1.49.18 2.27" id="G"/><path d="m208.08 184.38.66-.17 1.56-2.35c1.07-1.5.96-2.36-.47-3.41-.98-.72-2.16-.73-2.84.13-.85 1.07-1.57 2.25-2.38 3.44l3.47 2.36zm4.52-4.41c1.13-.4 2.08-.07 2.99.55l2.41 1.44c.38.19.87.16 1.36.25l-1.2 1.8-2.49-1.48a2.92 2.92 0 0 1-.21-.16c-1.88-1.17-2.58-1.32-3.96.77l-1.61 2.43 2.94 2.02 1.65 1.08.13.63c-.67 1.07-.67 1.09-1.76.36l-10.14-6.86c-.01-.07-.13-.63-.14-.7l3.45-4.86c1.26-1.62 3.24-1.32 4.79-.28 1.06.72 1.56 1.74 1.79 3.01" id="H"/><path d="m48.64 196.22 1.32-1.1 3.53 3.74-3.98 3.65-1.19 1.16-.58.07c-.22-.17-.65-.34-.36-.78.24-.35.45-.73.72-1.18-1.42.08-2.57-.27-3.55-1.16-1.27-1.15-1.95-2.47-1.7-4.27.26-1.84 1.14-3.31 2.42-4.54 1.37-1.31 2.92-2.45 4.81-2.8 2.89-.55 5.38.88 6.07 3.92.39 1.68-.28 3.01-1.26 4.4-.05-.07-.48-.56-.53-.62-.42-.37-.54-.65-.2-1.26 1.47-2.6-.91-4.89-2.85-4.87-1.54.01-2.72.74-3.83 1.64-1.29 1.06-2.46 2.27-2.94 3.95-.24.85-.2 1.67.33 2.44.67.98 1.5 1.77 2.73 1.85 1.07.08 2.03-.41 2.86-1.09.68-.57.66-.58.04-1.21l-1.86-1.94" id="I"/><path d="m143.7 227.71-.32-1.65 5.09-.94.99 5.68c.07.39.23.77.24 1.15l-.31.66c-.31.14-.7.16-.87-.31-.03-.1-.34-.83-.38-.93-.6.57-1.12 1.2-1.77 1.64-1.49 1.05-4.41 1.14-6.03-.49-1.32-1.35-2.01-2.96-2.27-4.77-.24-1.7-.32-3.41.26-5.09 1.27-3.62 5.81-4.52 8.31-1.85.56.6.89 1.41 1.38 2.21l-1.71.25c-.59-1.02-1.2-1.87-2.41-2.22-1.51-.44-3.33.6-3.89 2.01-.67 1.68-.49 3.39-.08 5.1.28 1.15.68 2.26 1.53 3.13.95.97 2.53 1.25 3.84.64 1.25-.59 1.91-1.62 1.95-3.02v-.8c0-1.02 0-1.04-.97-.89l-2.58.49" id="J"/><path d="M101.84 221.83c-.69-2.8-3.76-3.6-5.53-2.02-2.24 1.98-2.94 4.65-2.46 7.56.22 1.38 1.21 2.26 2.55 2.64 1.32.37 2.48.04 3.46-.95 1.52-1.56 2.1-3.47 2.17-5.79-.05-.36-.05-.92-.19-1.44zm1.82 1.51c.11 2.51-.74 4.78-2.38 6.7-1.46 1.69-3.52 2.21-5.81 1.35-2.47-.93-3.37-2.72-3.45-5.13-.09-2.42.6-4.63 2-6.59.91-1.26 2.08-2.13 3.74-2.27 3.82-.33 6.19 2.51 5.9 5.94" id="K"/><path d="M122.85 224.31c-.6-1.09-2.19-2.04-3.32-1.89-1.57.22-2.64 1.11-3.2 2.57-.62 1.6-.85 3.26-.53 4.95.24 1.33.69 2.53 1.99 3.28 1.48.84 3.65.42 4.61-.99.88-1.29 1.21-2.73 1.32-4.27-.11-1.25-.25-2.5-.87-3.65zm-8.91 4.2c.09-1.96.41-3.7 1.33-5.25 1.07-1.83 2.81-2.64 4.86-2.49 2.09.16 3.71 1.18 4.47 3.24 1.17 3.17 1.05 6.26-.83 9.16-.77 1.2-1.92 1.86-3.37 2.03-4.12.49-6.01-2.43-6.3-5.35l-.16-1.34" id="L"/><path d="m206.39 196.69 3.3-3.93.98-1.16c.03-.01.24-.12.27-.13.42.32.81.65 1.19 1.01-.02.04-.15.35-.17.39l-4.85 5.8c-.35.41-.58.4-1 .04l-4.91-4.16-3.76-3.2-1.48-1.24 5.49-6.5 1.3 1.11-4.36 5.17 3.18 2.73 4.08-4.81 1.36 1.16-4.05 4.81 3.43 2.91" id="M"/><path d="m36.73 163.74-1.59.56-2.44-6.33-3.59 1.38-.12.64 2.04 5.38-1.63.65-2.29-5.91-3.55 1.33c-.48.18-.65.4-.44.93l2.25 5.77c-1.51.92-1.6.87-2.19-.73l-2.54-6.61 6.4-2.48 6.1-2.33c.35-.14.59-.17.75.25l2.84 7.5" id="N"/><path d="m24.4 68.9.06-.2c.88-.79 1.68-1.7 2.66-2.32.86-.53 1.86-.16 2.78.19 1.68.63 2.49 1.97 3.06 3.54.77 2.12 2.22 3.75 3.84 5.25.37.34.72.72 1.13 1 .61.41 1.27.76 1.91 1.12l2.58 1.41c.48.28.85 1.18.66 1.62-.24.57-.77.7-1.32.66-.45-.04-.89-.16-1.43-.26l.01.36 1.04 4.64c.14.59.38 1.15.6 1.72.49 1.18.23 1.76-.99 2.12l-1.09.2c-1.23.07-1.86-.59-1.77-1.9.65.04 1.25-.11 1.54-.8.01-.05.13-.44.14-.49l-.11-5.1c0-1.36-.35-2.51-1.43-3.45-.79-.69-1.42-1.54-2.17-2.27l-2.17-1.93-1.97-2.16c-1.17-1.19-2.2-2.58-3.83-3.14-1.09-.38-2.25-.61-3.33.18l-.4.01" id="O"/><path d="m215.84 167.94-.66 1.3c-.83-.03-1.57-.19-2.24-.04-1.21.28-1.73 1.32-2.06 2.41-.2.72.02 1.4.6 1.9.34.28.71.53 1.11.69a1.21 1.21 0 0 0 1.43-.34l2.56-2.69c1.43-1.51 3.17-1.42 4.74-.56 2.21 1.22 2.43 3.21 1.64 5.31-.37.98-.85 1.91-1.69 2.53-1.61 1.16-3.3 1.08-4.99.05 0-.02.02-.1.07-.24l.58-.98 1.03.19c1.72.51 2.75-.45 3.42-1.76.41-.82.85-1.76.27-2.66-.97-1.51-2.19-1.86-3.74-.48a13.44 13.44 0 0 0-1.7 1.84c-1.63 2.21-3.79 2.09-5.67.47-1.96-1.68-1.64-3.66-.49-5.55.73-1.2 1.87-1.9 3.25-1.92.81-.02 1.63.32 2.54.53" id="P"/><path d="m186.62 47.99 2.61 4.25c.45.75 1.13 1.19 1.95 1.46l1.74.6c-.43.6-1.02.32-1.51.38-.57.06-1.16.03-1.71.16-.82.19-1.12.18-1.52-.58a5.63 5.63 0 0 1-.57-1.84c-.16-1.22-.35-2.41-.97-3.49-.25-.44-.58-.62-1.06-.25-1.55 1.19-3.37 1.75-5.24 2.05-1.72.28-3.46.32-5.19.46a2.3 2.3 0 0 1-.03-.26l3.01-.67c.85-.25 1.7-.57 2.48-.99l5.2-2.91a22.34 22.34 0 0 1 .55-.46c.66-.65.54-.59.05-1.36-.52-.83-.81-1.81-1.2-2.73 0-.01.04-.13.05-.14.43.31.81.65 1.25.9.7.4 1.41.89 2.16 1.02.49.08 1.14-.35 1.6-.69 1.33-1.02 2.48-2.24 3.33-3.69.28-.49.46-1.05.68-1.57.73.39 1.17 2.17.56 2.87-.69.8-1.49 1.5-2.22 2.26-.35.35-.67.74-1.12 1.24.42.15.7.31 1 .33.52.05 1.07.07 1.59 0 .56-.07.87.25 1.15.61.01.03.04.19.11.48l-.44.19-3.47-.26c-.74-.07-1.42-.09-2.03.4l-1.26.94-1.53 1.29" id="Q"/><path d="M219.05 71.32c-.52-.01-1.04-.15-1.56-.1l-.75.48.51.92c.57.29 1.22.43 1.85.6l.52-.02c1.01-.24 1.26-1.11 1.54-1.92.24-.66.08-.88-.64-1-.32 1.04-.33 1.06-1.47 1.04zm2.02 1.83c-.25.82-.68 1.08-1.46.83-.77-.24-1.49-.61-2.25-.87-.09 0-.85-.03-.94-.03-.27.39-.46.9-.46 1.37l.95.5 3.63-.13 5.26-.66a17.1 17.1 0 0 0 .57-.34L224.1 72c-.73-.51-1.42-1.16-2.39-1.21l-.64 2.36zm-8.46-2.29 2.49-.29c.05-.03.33-.15.83-.38l-.55-.65c-.38-.26-.43-.54-.14-.85l1.28-1.21c.3-.34.53-.75.74-1.15l1.03-2.03c.02.01.1.01.25.01l.05.89-1.75 3.8-.32 1.04 1.11-.05c.38-.08.79-.2 1.08-.43.5-.38 1.13-.76.85-1.63.36.33.86.45.65 1.11l.62.78 3.72 1.92c.75.44 1.39 1.05 2.05 1.63 1.02.89 1.01.9-.01 1.84-.6.56-1.33.38-2.01.36l-3.94-.23c-.96 0-1.92.21-2.88.33 0 .02-.05.22-.06.24l1.68 1.47 1.55 1.47c.41.45.06 1.15-.55 1.11-1.73-.13-3.33-.48-4.49-2.02-.6-.8-1.32-1.58-2.33-1.96-.05-.05-.4-.47-.44-.53 1.12.45 2.2.92 3.2 1.58.99.65 1.84 1.61 3.24 1.68-.16-.85-.78-1.24-1.25-1.73a42.6 42.6 0 0 1-.75-.64c-.37-.39-.74-.66-1.35-.67-.07-.05-.44-.28-1.09-.7l-.54-.53c-1.52-.84-2.99-1.79-4.81-1.94-.79-.07-1.55-.39-2.34-.56a7.56 7.56 0 0 0-1.42-.18c-.4-.01-.81-.18-.78-.5l.61-.93c.6-.44 1.32-.52 2.19-.34l-1.87.77c0 .03.03.21.04.24l2.49.65 4.76 1.59.77.48.93.18c.44-.28.75-.74.61-1.34l-.2-.62c.03-.59-.31-.62-.76-.62l-2.18-.13-.01-.33" id="R"/><path d="m167.74 211.38 1.44-.83 1.99 3.57 2.79 4.82c.47.76 1.08 1.49 2.08 1.55.51.03 1.09-.03 1.55-.25 1.63-.76 2.3-2.15 1.37-4.1l-2.84-5.24-1.76-3.21c.41-.24.79-.5 1.2-.67a12.56 12.56 0 0 1 .51.27l2.22 4.01 1.73 3.08c.72 1.36 1.18 2.74.9 4.34s-2.28 3.1-3.74 3.42c-2 .44-3.47-.35-4.5-2.02l-2.32-3.95-2.62-4.79" id="S"/><path d="m88.5 216.85-3.61 4.61 3.2 1.26.62-5.79c-.04-.02-.18-.08-.21-.08zm-8.95 8.71 2.9-3.6 3.18-3.93 2.98-3.66c.03-.01.16-.04.4-.1l.12.07c1.55.62 1.56.64 1.22 2.72l-.25 1.95-.42 5.58-.46 4.82c-.5-.21-1.05-.32-1.43-.63-.01-.11-.13-.92-.15-1.03l.35-2.85c-.03-.05-.31-.41-.35-.46l-3.6-1.39c-.05.02-.45.13-.5.14l-1.94 2.4c-.35.52-.67.62-1.18.35-.06-.02-.35-.15-.87-.38" id="T"/><path d="m69.02 40.85.22-.43c.32-.34.62-.7 1-.94.34-.21.77.24.66.69-.05.09-.42.88-.47.97-.35.54-.75 1.05-1.17 1.62l2.07 2.08a6.27 6.27 0 0 1 .98 1.52c.2.44.17 1-.28 1.25l-1-.13c-.39-.13-.75-.35-1.09-.57l-.16-.78c.44-.57.43-.63-.11-1.43l-.21.38-1.18 4.74c-.19.71-.7.9-1.36.58l-1.1-.57 1.15-2.13 1.72-3.65-.11-.86c-.69-.96-.61-.9-.7-1.83-.8.14-1 .52-.56 1.17.47.68.8 1.37.52 2.24-.26.79-.67.96-1.27.38-.37-.36-.69-.79-.97-1.23-.4-.62-.74-1.29-1.11-1.93-.35-.59-.15-.99.53-.95.56.03.83-.22 1.03-.71.44-1.06.8-2.18 1.43-3.12.44-.67 1.25-1.11 1.94-1.59.05.08.48.65.53.72-.75 1.16-.56 2.53-.92 3.77-.02.03-.1.21-.24.52l.23.22" id="U"/><path d="m188.11 197.74 1.42-1.23 10.05 5.91.16-.16-5.52-10.31 1.34-1.33.54 1.05 4.63 9.14 1.23 2.31c.22.38.23.63-.12.96-.87.82-.85.86-1.91.28l-11.17-6.18-.65-.44" id="V"/><path d="M39.81 65.5c.45.37.69 0 .83-.27-.02-.06-.23-.59-.26-.65-.46-.2-.98-.27-1.6-.42.15.78.63 1.01 1.03 1.34zm-.57 6.43.33-1.78c.17-.64-.18-1-.61-1.32-2.01-1.47-3.8-3.18-5.14-5.3-.01-.05-.09-.3-.23-.73l.71-.19 2.4.32.9.61c.37.33.74.51 1.24.27l2.27-.98c.36-.17.59-.15.67.29l.5 3.21c.07.55-.06 1.12-.03 1.67.04.1.29.89.32.99.69.51.89 1.22.98 1.98l.39 4.01c-.02.01-.15.04-.17.04l-1.42-2.6c-.28-.49-.57-.99-.94-1.41-.57-.63-1.23-.47-1.57.32a15.11 15.11 0 0 0-.33.69l-.27-.09" id="W"/><path d="m116.55 33.5-2.42.17c-.53.07-1.02.39-1.55.49-1 .18-1.85-.12-2.69-.75-.83-.61-1.33-1.36-1.66-2.31-.16-.49-.45-.95-.78-1.34-.41-.49-.81-.42-1.14.12l-.57 1.09c-1 1.73-2.44 2.98-4.17 3.93l-1.18.58-.18-.27 1.42-1.2c1.34-1.12 2.54-2.33 2.95-4.13.11-.47.4-.92.66-1.34.24-.41.27-.71-.13-1.03l-1.93-1.58c-.05-.02-.3-.16-.74-.4l.28-.32c1.49-.2 2.11 1.22 3.32 1.88l.47-1.34c.13-.45.2-.91.29-1.37 2.25.71 2.48 1.87.83 4.01 1.24 1.28 2.74 2.23 4.3 3.02 1.5.76 3.12 1.26 4.69 1.87 0 .02-.03.09-.07.22" id="X"/><path d="m147.41 23.77-.21 1.22c.01.01.06.04.14.1l.65-.59c1.03-1.03 2.09-2.02 3.56-2.39.52-.13 1.06-.28 1.6-.31.91-.05 1.23.61.86 1.46-.48 1.12-.88 2.26-1.25 3.42l-1.07 3.88-.12.84-.68.87-.79-.39c-.3-.32-.51-.74-.81-1.19l.53.01c.65.51.88.05 1.02-.44l.82-3.15 1.14-3.47c0-.05.02-.3.05-.76l-.9-.11-.98.35c-.71.23-.98.65-1.03 1.46-.05.76.04 1.25.68 1.72.35.26.57.81.06 1.12-1.25.78-1.58 1.99-1.75 3.32-.07.54-.43.71-.89.62l-.31-.45c.12-.53.26-1.06.47-1.56.24-.55-.07-.87-.43-1.15-.65-.51-.66-.63-.11-1.25.04-.05.23-.34.58-.86l-.02-.77c-1.12.78-1.47 1.76-1.56 2.88l-.16 1.1-.55.6-.44-.57c-.36-.98-.38-1.96.17-2.9l1.5-2.68c.02 0 .09.01.23.02" id="Y"/><path d="m110.32 221.92-1.92 12.07-1.58-.29 1.92-12.1-2.34-.38c-1.45-.16-1.45-.14-1.3-1.91l9.35 1.48c-.06.45-.06.91-.2 1.32-.07.03-.61.21-.68.23l-2.9-.45c-.03 0-.14.01-.35.03" id="Z"/><path d="m41.06 172.12.82 1.49-3.35 1.83-5.21 2.88c-1.14.62-2.33 1.1-3.64.74-1.42-.38-2.07-1.51-2.35-2.82-.29-1.47.42-2.54 1.68-3.28l.51-.3c.84-.54.85-.52 1.33.37.24.45.18.7-.3.9-.09.06-.86.51-.96.57-.92.57-.91 1.39-.46 2.19.5.88 1.24 1.14 2.2.67l4.81-2.54 4.92-2.7" id="a"/><path d="m71.39 216.09-.88 2.07c-.3.68.13 1.1.58 1.44.53.41 1.19.77 1.79.29a6.33 6.33 0 0 0 1.38-1.63l3.38-6.07 1.46-2.56 1.46.81-1.44 2.63-3.02 5.37c-.44.76-.9 1.51-1.46 2.17-1.22 1.43-3.33 1.26-4.66.1-1.52-1.33-1.31-2.72-.54-4.2.64-1.22.7-1.18 1.92-.45l.03.03" id="b"/><path d="m209.72 79.11 1.06.14c.01-.02.1-.15.11-.17l-1.03-.93-3.6 3.9c-.57.57-1.32 1-2.06 1.37-.63.32-1.08.07-1.28-.63-.19-.62-.28-1.27-.41-1.91l-.74-3.57c-.01-.07-.03-.38-.08-.96l.17-.04.3.57c.23.87.33 1.77 1 2.51.42.47.6 1.18.88 1.78.26.54.44.55.93.17l3.13-2.25c.06-.04.32-.27.8-.68l-.25-.68-2.85-1.16c-1.49-.6-1.55-.75-.93-2.22l.15-.5.35.62.49.85c.98.63 1.96 1.27 3.02 1.71.94.37 1.62 1.07 2.45 1.56l1.02.36c.67.08 1.11.37 1.26 1.04.1.44.23.89.27 1.34.03.5-.23.62-.65.4l-1.28-.62a7.95 7.95 0 0 1-.46-.35c-.33-.61-.78-1.03-1.46-1.22l-.31-.43" id="c"/><path d="m186.01 199.44 1.29-1.11 3.59 4.37 3.78 4.47 1.4 1.66c0 .01.03.04.08.1l-.9 1.02-.57-.09-4.22-5.11-3.78-4.46c-.04-.06-.27-.34-.67-.85" id="d"/><path d="m42.92 175.32.91 1.43-11.85 7.41c-.26-.41-.53-.76-.71-1.14.03-.05.23-.46.25-.51l4.96-3.16 6.44-4.03" id="e"/><path d="m76.31 223.88 6.08-12.57 1.47.72-.61 1.43-3.61 7.36-1.52 3.2c-.22.5-.45.65-.93.31l-.88-.45" id="f"/><path d="m226.3 168.55-.7 1.51-3.01-1.29-9.23-4.07c-.45-.19-.55-.34-.35-.74l.49-1.05 12.8 5.64" id="g"/><path d="m25.6 172.66-.75-1.51 12.66-5.96.72 1.52-12.63 5.95" id="h"/><path d="M180.89 180.42c14.87-14.99 22.63-33.26 23-54.36.38-21.2-6.73-39.83-21.2-55.36-14.85-15.92-33.37-24.49-55.13-25.27-22.68-.81-42.4 6.89-58.56 22.8-15.42 15.19-23.42 33.89-23.58 55.58-.17 23.49 8.54 43.41 25.84 59.31 15.84 14.56 34.77 21.19 56.12 20.79 20.91-1.06 38.86-8.7 53.51-23.49zM57.37 174.5l-2.03-2.92-2.55 1.75-1.96-3.1c.03-.05.25-.46.28-.51.69-.43 1.43-.83 2.18-1.26l-1.53-2.68c-.06-.02-.56-.18-.62-.19-.76.38-1.48.82-2.29 1.29l-1.89-3.5c.79-.37 1.53-.75 2.29-1.07.46-.18.47-.4.27-.79-.37-.74-.71-1.5-1.06-2.25a12.83 12.83 0 0 0-.66-.24c-.74.37-1.5.69-2.35 1.07l-1.44-3.36c.03-.05.29-.38.32-.42.78-.33 1.58-.61 2.43-.93l-1.2-3.37-2.91 1.05-1.22-3.76 2.95-.81-.9-3.46c-.84.21-1.67.44-2.51.62-.06-.02-.49-.2-.55-.22-.27-1.03-.49-2.07-.72-3.11 0-.04.02-.34.02-.38l2.24-.41c.44-.07.75-.09.56-.72-.23-.81-.27-1.68-.45-2.51-.05-.04-.46-.33-.51-.37-.76.09-1.5.26-2.26.36-.04-.01-.34-.12-.38-.13l-.47-3.65 3.01-.35-.3-3.55-3.04.24-.21-3.96h3.08v-3.63h-3.01c.03-1.32-.17-2.59.15-3.87l2.96.18.3-3.53-3.05-.33.46-3.88 3.01.5.66-3.54-3.05-.54.83-3.87 2.98.79c.25-.99.44-1.99.76-2.96.16-.48-.03-.58-.39-.68l-2.45-.64 1.16-3.79 2.9 1.03 1.05-2.94-.28-.57c-.75-.32-1.53-.59-2.42-.92l.97-2.47c.01-.03.1-.21.11-.24.44-1 .44-.98 1.41-.51.55.26 1.2.76 1.65.63.41-.11.62-.95.9-1.47.04-.1.42-.84.46-.94.36-.52.16-.76-.35-.97-.7-.28-1.38-.62-2.14-.97l1.76-3.53 2.7 1.49 1.77-3.06-2.65-1.58 1.9-3.01c.06-.01.52-.07.58-.08.7.44 1.37.93 2.11 1.46a29.88 29.88 0 0 0 .92-1.22l.57-.88c.59-.86.59-.86-.29-1.44-.54-.36-1.07-.74-1.62-1.12l2.08-2.82c.07-.01.63-.06.7-.07.62.56 1.27 1.08 1.96 1.65l2.31-2.74-1.91-1.55c-.01-.08-.06-.77-.07-.85.65-.66 1.23-1.37 1.83-2.08.29-.34.53-.48.9-.06.54.61 1.12 1.18 1.66 1.74l2.52-2.55c-.52-.52-1.09-1.12-1.7-1.69 0-.08-.02-.73-.02-.81.74-.66 1.46-1.34 2.18-2.03.08.01.71.13.79.14l1.55 1.88 2.73-2.28-1.96-2.37L73 54.86l1.76 2.49 2.95-2.02-1.46-2.08c-.24-.33-.22-.55.16-.78.84-.51 1.66-1.05 2.48-1.6.06.02.6.17.66.19.4.73.82 1.44 1.26 2.21l3.09-1.77-1.49-2.68 3.46-1.86 1.36 2.76 3.22-1.5-1.29-2.8 3.39-1.43c.05.04.41.37.45.41.31.77.57 1.55.87 2.35l3.03-1.09c.02-.05.16-.43.18-.48-.21-.71-.43-1.42-.71-2.11-.14-.36-.08-.48.29-.6 1.08-.32 2.15-.69 3.29-1.06l.85 2.97 3.44-.94-.79-2.99 3.88-.86.52 3.02 3.55-.64-.52-3.04 3.92-.51c.07.88.15 1.64.17 2.4.01.47.19.66.64.61l3.04-.3-.24-3c.61-.06 1.23-.13 1.86-.16.64-.02 1.28 0 2.01 0v2.88h3.66v-2.92h3.97l-.25 3.1 3.56.36.33-3.07 3.89.47-.52 3.01 3.53.65.58-3.05 3.42.73c.4.09.39.38.29.72-.23.77-.42 1.55-.64 2.36l3.47.91.81-2.98 3.78 1.14-1.02 2.92 3.08 1.1a9.78 9.78 0 0 0 .47-.44c.31-.75.58-1.54.87-2.36l3.67 1.52-1.26 2.78 3.2 1.53 1.35-2.77 3.52 1.76c-.41.73-.77 1.42-1.19 2.08-.3.46-.19.74.25.98l2.53 1.39c.44-.76.87-1.46 1.26-2.19.19-.35.32-.44.7-.18.93.63 1.92 1.2 2.95 1.83l-1.39 2.01c-.31.42-.26.65.2.93.81.49 1.57 1.07 2.37 1.62l1.79-2.5 3.15 2.39-1.96 2.38 2.75 2.28 1.98-2.36 2.88 2.62-2.15 2.05 2.57 2.56 2.11-2.16 2.78 3.06-1.87 1.56a28.82 28.82 0 0 0-.15.82l2.01 2.31c.58-.48 1.15-.94 1.69-1.43.61-.56.6-.57 1.12.09l1.99 2.51-2.48 1.79 2 2.93 2.56-1.77 2.16 3.33-2.66 1.58 1.78 3.07 2.69-1.52 1.86 3.47-2.78 1.37 1.51 3.22 2.8-1.29 1.56 3.62-2.9 1.11 1.21 3.34c.82-.29 1.64-.54 2.44-.86.41-.17.56-.02.67.33l.89 2.8c.1.33.04.51-.36.6-.66.13-1.3.34-1.96.53l-.41.61.83 2.99 2.98-.78.81 3.56-.39.38c-.8.17-1.62.3-2.55.45l.61 3.57 2.51-.47c.06.04.56.35.63.39l.41 3.05c.05.39-.18.48-.53.49-.83.04-1.66.11-2.48.16l.21 3.12c.05.71.54.49.93.45l2.23-.21.2 3.92h-3.04v3.63h2.92v3.97l-3.05-.26-.34 3.61 2.4.16c.49.03.76.08.6.74-.21.82-.23 1.69-.32 2.54-.05.68-.17.75-.87.6-.64-.13-1.29-.22-1.93-.33-.03 0-.29.02-.32.02l-.61 3.45 3.03.59-.81 3.83-2.54-.62c-.05.01-.42.1-.46.11-.33 1.05-.61 2.12-.91 3.22l2.45.63c.3.08.55.18.44.56l-1.07 3.39c-.86-.3-1.65-.61-2.46-.84a23.89 23.89 0 0 0-.57.24c-.4.96-.73 1.95-1.1 2.96.85.3 1.67.57 2.48.89l.31.43c-.43 1.14-.9 2.25-1.37 3.41l-2.8-1.28-1.51 3.23 2.79 1.31-1.78 3.53-2.69-1.5-1.77 3.08 2.65 1.57-2.1 3.36-2.53-1.75-2.05 2.91 2.53 1.79-2.23 2.89c-.06-.01-.56-.07-.63-.08-.64-.49-1.25-1.03-1.91-1.59l-2.29 2.72 2.34 2-2.33 2.6-.74.01-1.59-1.67-2.52 2.51 2.1 1.93-2.8 2.6c-.04 0-.43-.04-.48-.05-.57-.66-1.12-1.34-1.71-2.06l-2.5 2.08c0 .06.02.49.02.55.53.67 1.1 1.31 1.71 2.01l-3.15 2.48-1.35-1.99c-.28-.4-.53-.54-.98-.15-.6.5-1.27.94-1.93 1.36-.02.07-.14.65-.16.73.5.66.96 1.35 1.49 2.11l-3.35 2.16-1.53-2.64-3.1 1.77 1.52 2.69-3.48 1.84-1.33-2.74-2.7 1.19c-.42.18-.57.41-.33.87.38.7.71 1.44 1.1 2.23l-3.67 1.55-1.07-2.88-3.37 1.19 1.05 2.94-3.77 1.19-.81-2.95-3.47.93.79 2.99-3.85.88c-.16-.88-.33-1.69-.44-2.51-.05-.39-.25-.51-.57-.46l-3.1.58.55 3-1.9.28-2 .26-.34-3.02-3.53.28.2 3.09-3.94.2v-3.03h-3.52v3.06l-3.97-.2.17-3-3.52-.35-.35 3.09-3.88-.5.53-3-3.21-.58c-.04.05-.38.39-.42.43-.18.8-.3 1.62-.46 2.51l-1.83-.31c-.57-.12-1.15-.25-1.71-.42-.02-.04-.21-.37-.23-.41.19-.85.43-1.69.67-2.61l-3.46-.92-.8 2.95c-.74-.2-1.47-.38-2.19-.61-1.59-.52-1.58-.53-1.04-2.08.47-1.39.47-1.39-.9-1.88l-1.99-.68-1.08 2.87-2.44-.97c-1.26-.53-1.26-.53-.66-1.74a31.75 31.75 0 0 1 .34-.78l.36-.79-3.22-1.51-1.31 2.78-3.57-1.78 1.54-2.67-3.1-1.79-1.26 2.22a17.06 17.06 0 0 1-.65.24l-2.98-1.91 1.71-2.51-2.9-2.06-1.8 2.51-3.15-2.39c.57-.68 1.09-1.27 1.56-1.89 0-.07.08-.58.09-.64-.79-.73-1.61-1.42-2.42-2.12l-1.99 2.35-3.03-2.72 2.19-1.97-2.48-2.46-2 2.11-2.89-3.07 2.32-1.99-2.31-2.72c-.63.53-1.28 1.06-1.89 1.63-.07 0-.64-.03-.71-.03l-1.93-2.49c.02-.05.14-.48.15-.53.67-.53 1.37-1.01 2.08-1.52" id="B"/><path d="M154.63 35.58 151 37c-.85.39-1.55.31-2.21-.28l-2.75-2.48a11.638 11.638 0 0 0-3.56-2.4c-.96-.42-1.81-1.06-2.7-1.61l-.2-.47c.46.15.79.2 1.08.34l5.69 2.8c.4.21.74.54 1.11.8 1.58 1.09 3.38 1.46 5.24 1.59.64.05 1.28.01 1.92.01 0 .02.01.11.01.28" id="j"/><path d="m102.5 19.37 1.82-2.2c.45-.62.21-1.22-.45-1.75l-1.21-.88-.41-.56.09-.2 3 .44c.87.04 1.23.38 1.29 1.25.04.55.47.67 1.01.52.67-.19 1.26-.42 1.87-.81.45-.29 1.3 0 1.97.07.01.03.04.17.09.42l-.96.76c-1.22.2-2.09 1.05-3.15 1.53-.38.17-.75.38-1.12.58 0-.01-.04-.08-.11-.2l.76-.53.29-.6-.61-.02-2.66 1.79c-.45.27-1.01.37-1.52.55 0-.01 0-.06.01-.16" id="k"/><path d="m31.37 81.92.71-.55c.68-.43 1.25-.91 1.68-1.66.58-.97 1.47-1.63 2.76-1.42.67.11 1.24.6 1.25 1.26v3.94a31.1 31.1 0 0 0-.32.88c-.14-.46-.21-.95-.43-1.36-.33-.61-.75-1.16-1.16-1.71a23.58 23.58 0 0 1-.87-.07c-.47.26-.95.53-1.46.65-.67.16-1.37.17-2.05.25-.01-.02-.04-.09-.11-.21" id="l"/><path d="m104.17 20.65.07 1.3c.42-.2.8-.31 1.11-.52l2.18-1.45c.77-.46 1.55-.29 2.31.1.48.24.65.61.62 1.12-.04.58-.26.69-.85.65-.4-.03-.83.13-1.24.21-.07.01-.62.05-.69.06l.56-1.27c-.65-.54-1.32-.3-1.64.58-.25.69-.57 1.32-1.25 1.7-.02.01-.15.1-.16.11-1.45.3-2.63 1.1-3.77 2.06-.39-.44-.27-.86.01-1.21l1.52-1.69c.41-.5.74-1.06 1.22-1.75" id="m"/><path d="m48.95 77.3-.6-1.84c-.02-.04-.09-.21-.22-.54l-.65-.57-.63.53c-.3.6-.69 1.05-1.43 1.24.01-.04.08-.41.08-.46l.99-1.86-.14-.72c-.18-.46-.28-.84.27-1.16l.65-.82c.48-.82 1.37-.79 2.08-.45.49.23.61 1.47.19 1.89-.52.51-.66 1.01-.36 1.74.27.65.36 1.39.41 2.1-.02.07-.15.4-.38 1l-.26-.08" id="n"/><path d="m63.07 36.37.42-1.14c.39-.94-.05-1.56-1.08-1.59l-2.5-.13c-.03-.01-.15-.06-.38-.16.03-.09.04-.15.04-.16 1.55-.44 2.82-1.7 4.55-1.47a36.67 36.67 0 0 1 .99.28c.77.42.77 1.24.09 2.07l-1.67 2.11a4.26 4.26 0 0 1-.29.26l-.17-.07" id="o"/><path d="M61.76 40c1.81-.72 2.66-2.32 3.58-3.84l1.7-2.98c.09-.03.58-.14 1.46-.34l.03.5-1.54 2.57-2.03 2.71c-.6.83-1.42 1.34-2.37 1.65-.05 0-.31-.01-.78-.02l-.05-.25" id="p"/><path d="m220.71 68.85 3.79-.54c.66-.09 1.11-.43 1.3-1.1l.33-.31-.02 2.63c-.08.89-1.14 1.36-2.01.95l-3.16-1.52c-.01-.01-.09-.05-.23-.11" id="q"/><path d="M72.75 41.14c.79.11 1.46.26 1.87.88l.28 1.15c-.14.53-.69.69-1.21.6l-.8-.4-1.6-.81c-.03-.03-.17-.13-.41-.33l.29-.42c.51-.25 1.05-.45 1.58-.67" id="r"/><path d="m142 23.51.61.35c.7.85 1.28 1.78 1.38 2.91.03.32.16.82-.33.84-.39.01-.8-.25-1.17-.44l-.24-.45-.25-3.21" id="s"/><path d="m213.23 77.72-3-.8a.45.45 0 0 0 .03-.11l1.38-.36c-.75-1.04-2.5-1.02-2.31-2.86.77 1.22 1.84 1.83 2.9 2.45.62.37.87.68 1 1.68" id="t"/><path d="m214.67 65.65-.66 2.75a19.59 19.59 0 0 0-.39.58l-.97.19c-.01-.41-.18-1.03.01-1.18.81-.6 1.19-1.48 1.7-2.28.01-.01.06-.04.15-.11l.16.05" id="u"/><path d="m142.89 28.41.8.58c.23.35.28.81.46 1.21.18.39 0 .63-.35.62l-.64-.44c-.18-.57-.24-1.17-.34-1.77 0-.01.03-.08.07-.2" id="v"/><path d="m211.32 70.4-2.81-.2c0-.02.02-.16.02-.17h2.81c0 .02-.01.15-.02.37" id="w"/><path d="m96.94 133.41 2.65-8.75 4.04-13.43 1.93-6.31c.13-.42.31-.53.73-.53h43.91c.04.01.22.02.56.03l.03.68.01 21.1c0 .44-.14.69-.5.95l-4.56 3.64-5.28 4.91c-.55.55-1.05.73-1.8.73-11.53-.02-23.06-.03-34.6.01-1.31 0-2.44-.23-3.54-.94-1.15-.74-2.37-1.39-3.58-2.09" id="x"/><path d="M92.71 179.11v-14.63h59.76v14.63H92.71" id="y"/><path d="m97.73 161.25.05-4.98c.05-.54.67-1.03 1.05-1.53l4.02-5.18.73-.29 6.45-.01 30.21-.01c.4 0 .69.05.99.43l4.78 5.93.37 1.07.02 4.57H97.73" id="z"/><path d="m147.81 101.94-3.3-8-4.35-10.58-.53-1.2c-.37-.76-.52-1.55-.51-2.41l.02-10.38.12-2.84 7.43-3.08 3.74 8.13 2.38 5.04 5.75 12.29 3.42 7.36c.55 1.16.56 1.14-.4 2.01l-3.63 3.37-.56.28-9.58.01" id="AA"/><path d="M115.47 101.88V58.91h11.19v42.97h-11.19" id="AB"/><path d="M183.23 145.84c1.1.65 2.19.8 3.35.11.33-.2.49-.33.49-.72l-.01-4.59c0-1.59-.01-1.58-1.37-2.37-.47-.27-.86-.42-1.34 0-.08.04-.45.26-1.12.66l-.34.55-.02 6.24c.08.02.33.11.36.12zm1.28-19.68.73.07c.46-.13.89-.35 1.34-.51.36-.12.49-.33.49-.72l.01-4.6c.08-1.12-.15-1.91-1.31-2.27l-.76-.46-1.74 1.01-.38.52-.02 6.25 1.64.71zm-1.05 3.84-2.47-1.05-.31-.48v-12.63a10.4 10.4 0 0 1 .25-.46c.53-.34 1.06-.7 1.64-.95.69-.3 1.04-.72.9-1.5l-.01-.85c-8 1.26-15.38 4.1-22.45 8.01V106.3h26.35v5.32l-1.02.07c0 .64-.03 1.25.01 1.86.03.05.29.39.32.44.74.46 1.51.87 2.25 1.34.03.06.3.48.33.53l-.01 12.58a23.25 23.25 0 0 1-.44.61c-.66.32-1.38.54-2.05.85a25.26 25.26 0 0 1-.39.54c-.05 1.06-.05 2.13-.01 3.19.04.06.33.55.37.61.66.42 1.35.79 2.04 1.17.35.19.52.42.52.87l-.01 12.24c0 .4-.06.63-.51.76-.63.18-1.21.5-1.83.71-.45.15-.61.38-.6.87l.01 11.24v.76h-2.88v-.73l.01-11.25c0-.49-.05-.83-.63-.94-.09-.04-.86-.35-.96-.39-1.21-.52-1.21-.51-1.21-1.79l-.02-11.45c0-.47.17-.71.55-.91.62-.33 1.2-.73 1.83-1.03.04-.08.4-.69.44-.76l-.01-3.61" id="AC"/><path d="m88.22 171.64-1.08 2.58c-.04.04-.42.35-.46.39-3.38.45-6.74.42-9.99-.78-.95-.36-1.87-.84-2.8-1.27-.69-.32-1.37-.69-2.08-.97-.51-.2-.47-.45-.28-.85l2.35-5.14 4.51 1.74 1.33-4.04 1.57-4.99 5.21-16.43 2.46-7.86 3.37-10.58 3.42-10.84 3.12-9.84 3.12 1.34c.87.38.84.4.55 1.31l-4.63 14.84-2.58 8.08-4.95 15.77-2.61 8.42-4.98 15.82c-.15.47-.15.78.45 1.02 1.5.6 2.95 1.31 4.42 1.99.04.01.23.11.56.29" id="AD"/><path d="M137.31 101.91h-7.85V59.04h7.85v42.87" id="AE"/><path d="M114.16 62.1v17.96H85.49l.01-3.55a19.19 19.19 0 0 1 .31-.47l5-3.71c1.82-1.18 3.82-2.03 5.96-2.46.89-.18 1.81-.25 2.72-.35 2.23-.24 4.35-.87 6.42-1.71 2.91-1.2 5.48-2.89 7.67-5.17l.58-.54" id="AF"/><path d="m88.15 128.37-3.34-1.88-3.47-1.98c-.34-.19-.53-.38-.53-.81l.02-18.89c0-.03.02-.33.02-.37h14.74l-7.44 23.93" id="AG"/><path d="M104.71 140.23h35.66v5.87h-35.66v-5.87" id="AH"/><path d="M66.98 104.42h12.15v19.02l-2.27-1.31-8.29-4.9c-1.08-.61-1.62-1.23-1.49-2.53.14-1.43.05-2.88.03-4.33l-.13-5.23v-.72" id="AI"/><path d="M114.15 81.93v6.79h-23.3v-6.79h23.3" id="AJ"/><path d="M114.15 89.39v6.51H90.86v-6.51h23.29" id="AK"/><path d="M114.15 96.86v6.5c-.06.01-.52.04-.58.04h-3.85c-3.72 0-3.72 0-7.09-1.4l-4.85-1.95c-.4-.17-.54-.07-.65.31l-.92 2.66c-.03.04-.32.33-.36.37l-5 .01v-6.54h23.3" id="AL"/><path d="m154.23 104.44.26-.04h4.02v.73l.01 15.75c0 .49-.14.76-.55 1.01l-3.74 2.42v-19.87" id="AM"/><path d="M117.12 188.6c.02-.65-.74-1.33-1.46-1.31-.85.02-1.35.53-1.34 1.37 0 .83.52 1.33 1.36 1.33.81 0 1.42-.6 1.44-1.39zm-3.06 4.08c.05 1.11.5 1.7 1.67 1.78.95.07 1.57-.6 1.57-1.61.01-1.12-.55-1.72-1.6-1.72-.99 0-1.68.62-1.64 1.55zm.02-2.18c-1.06-.97-1.2-2.42-.34-3.42.79-.92 2.6-1.13 3.47-.4 1.06.89 1.37 2.43.14 3.83.85.63 1.23 1.49 1.08 2.55-.1.73-.41 1.38-1.02 1.84-1.04.79-3.15.6-3.96-.35-.94-1.11-.66-2.92.63-4.05" id="AN"/><path d="M135.1 190.6c-1.67-.1-2.01 1.43-1.63 2.75.17.58.54 1 1.22 1.03 1.18.06 1.78-.56 1.78-1.88 0-1.15-.52-1.85-1.37-1.9zm2.34-1.91c-.56.11-.97.11-1.26-.59-.41-.99-1.68-.99-2.31-.1-.47.65-.63 1.37-.65 2.03.65-.16 1.3-.44 1.93-.44 1.1 0 2.01.49 2.38 1.93.35 1.34-.22 3.03-1.29 3.57-1.61.81-3.37.16-3.87-1.57-.56-1.98-.46-3.99.42-5.89.5-1.06 1.75-1.62 2.88-1.34 1.09.27 1.75 1.18 1.77 2.4" id="AO"/><path d="M125.19 187.32c-.91.08-1.58.59-1.56 2.1.02 1.12.54 1.74 1.48 1.78 1.12.05 1.55-.75 1.64-1.91 0-1.16-.65-2.04-1.56-1.97zm-2.53 5.78c.62-.12.96-.09 1.19.64s1.19 1.16 1.99.41c.55-.52.96-1.55.99-2.58-1.01.81-2.08.89-3.18.26-.06-.07-.6-.61-.67-.67-.66-1.23-.58-2.51.01-3.7.42-.88 1.26-1.2 2.24-1.21.99-.01 1.74.42 2.13 1.27 1.05 2.24.89 4.51-.28 6.66-.67 1.23-1.89 1.52-3.17.98-.82-.34-1.28-1.09-1.25-2.06" id="AP"/><path d="M107.09 195.23H106v-6.34h-1.83v-.86c1.17 0 1.9-.59 2.13-1.74h.79v8.94" id="AQ"/></defs><use xlink:href="#A" class="B"/><use xlink:href="#A" class="C D E"/><use xlink:href="#B" class="B"/><use xlink:href="#B" class="C D E"/><use xlink:href="#C" class="B"/><use xlink:href="#C" class="C D E"/><use xlink:href="#D" class="B"/><use xlink:href="#D" class="C D E"/><use xlink:href="#E" class="B"/><use xlink:href="#E" class="C D E"/><use xlink:href="#F" class="B"/><use xlink:href="#F" class="C D E"/><use xlink:href="#G" class="B"/><use xlink:href="#G" class="C D E"/><use xlink:href="#H" class="B"/><use xlink:href="#H" class="C D E"/><use xlink:href="#I" class="B"/><use xlink:href="#I" class="C D E"/><use xlink:href="#J" class="B"/><use xlink:href="#J" class="C D E"/><use xlink:href="#K" class="B"/><use xlink:href="#K" class="C D E"/><use xlink:href="#L" class="B"/><use xlink:href="#L" class="C D E"/><use xlink:href="#M" class="B"/><use xlink:href="#M" class="C D E"/><use xlink:href="#N" class="B"/><use xlink:href="#N" class="C D E"/><use xlink:href="#O" class="B"/><use xlink:href="#O" class="C D E"/><use xlink:href="#P" class="B"/><use xlink:href="#P" class="C D E"/><use xlink:href="#Q" class="B"/><use xlink:href="#Q" class="C D E"/><use xlink:href="#R" class="B"/><use xlink:href="#R" class="C D E"/><use xlink:href="#S" class="B"/><use xlink:href="#S" class="C D E"/><use xlink:href="#T" class="B"/><use xlink:href="#T" class="C D E"/><use xlink:href="#U" class="B"/><use xlink:href="#U" class="C D E"/><use xlink:href="#V" class="B"/><use xlink:href="#V" class="C D E"/><use xlink:href="#W" class="B"/><use xlink:href="#W" class="C D E"/><use xlink:href="#X" class="B"/><use xlink:href="#X" class="C D E"/><use xlink:href="#Y" class="B"/><use xlink:href="#Y" class="C D E"/><use xlink:href="#Z" class="B"/><use xlink:href="#Z" class="C D E"/><use xlink:href="#a" class="B"/><use xlink:href="#a" class="C D E"/><use xlink:href="#b" class="B"/><use xlink:href="#b" class="C D E"/><use xlink:href="#c" class="B"/><use xlink:href="#c" class="C D E"/><use xlink:href="#d" class="B"/><use xlink:href="#d" class="C D E"/><use xlink:href="#e" class="B"/><use xlink:href="#e" class="C D E"/><use xlink:href="#f" class="B"/><use xlink:href="#f" class="C D E"/><use xlink:href="#g" class="B"/><use xlink:href="#g" class="C D E"/><use xlink:href="#h" class="B"/><use xlink:href="#h" class="C D E"/><use xlink:href="#i" class="B"/><use xlink:href="#i" class="C D E"/><use xlink:href="#j" class="B"/><use xlink:href="#j" class="C D E"/><use xlink:href="#k" class="B"/><use xlink:href="#k" class="C D E"/><use xlink:href="#l" class="B"/><use xlink:href="#l" class="C D E"/><use xlink:href="#m" class="B"/><use xlink:href="#m" class="C D E"/><use xlink:href="#n" class="B"/><use xlink:href="#n" class="C D E"/><use xlink:href="#o" class="B"/><use xlink:href="#o" class="C D E"/><use xlink:href="#p" class="B"/><use xlink:href="#p" class="C D E"/><use xlink:href="#q" class="B"/><use xlink:href="#q" class="C D E"/><use xlink:href="#r" class="B"/><use xlink:href="#r" class="C D E"/><use xlink:href="#s" class="B"/><use xlink:href="#s" class="C D E"/><use xlink:href="#t" class="B"/><use xlink:href="#t" class="C D E"/><use xlink:href="#u" class="B"/><use xlink:href="#u" class="C D E"/><use xlink:href="#v" class="B"/><use xlink:href="#v" class="C D E"/><use xlink:href="#w" class="B"/><use xlink:href="#w" class="C D E"/><use xlink:href="#x" class="B"/><use xlink:href="#x" class="C D E"/><use xlink:href="#y" class="B"/><use xlink:href="#y" class="C D E"/><use xlink:href="#z" class="B"/><use xlink:href="#z" class="C D E"/><use xlink:href="#AA" class="B"/><use xlink:href="#AA" class="C D E"/><use xlink:href="#AB" class="B"/><use xlink:href="#AB" class="C D E"/><use xlink:href="#AC" class="B"/><use xlink:href="#AC" class="C D E"/><use xlink:href="#AD" class="B"/><use xlink:href="#AD" class="C D E"/><use xlink:href="#AE" class="B"/><use xlink:href="#AE" class="C D E"/><use xlink:href="#AF" class="B"/><use xlink:href="#AF" class="C D E"/><use xlink:href="#AG" class="B"/><use xlink:href="#AG" class="C D E"/><use xlink:href="#AH" class="B"/><use xlink:href="#AH" class="C D E"/><use xlink:href="#AI" class="B"/><use xlink:href="#AI" class="C D E"/><use xlink:href="#AJ" class="B"/><use xlink:href="#AJ" class="C D E"/><use xlink:href="#AK" class="B"/><use xlink:href="#AK" class="C D E"/><use xlink:href="#AL" class="B"/><use xlink:href="#AL" class="C D E"/><use xlink:href="#AM" class="B"/><use xlink:href="#AM" class="C D E"/><use xlink:href="#AN" class="B"/><use xlink:href="#AN" class="C D E"/><use xlink:href="#AO" class="B"/><use xlink:href="#AO" class="C D E"/><use xlink:href="#AP" class="B"/><use xlink:href="#AP" class="C D E"/><use xlink:href="#AQ" class="B"/><use xlink:href="#AQ" class="C D E"/><use xlink:href="#AR" class="B" href="#A"/><use xlink:href="#AR" class="C D E" href="#A"/><use xlink:href="#AS" class="B" href="#B"/><use xlink:href="#AS" class="C D E" href="#B"/><use xlink:href="#AT" class="B" href="#C"/><use xlink:href="#AT" class="C D E" href="#C"/><use xlink:href="#AU" class="B" href="#D"/><use xlink:href="#AU" class="C D E" href="#D"/><use xlink:href="#AV" class="B" href="#E"/><use xlink:href="#AV" class="C D E" href="#E"/><use xlink:href="#AW" class="B" href="#F"/><use xlink:href="#AW" class="C D E" href="#F"/><use xlink:href="#AX" class="B" href="#G"/><use xlink:href="#AX" class="C D E" href="#G"/><use xlink:href="#AY" class="B" href="#H"/><use xlink:href="#AY" class="C D E" href="#H"/><use xlink:href="#AZ" class="B" href="#I"/><use xlink:href="#AZ" class="C D E" href="#I"/><use xlink:href="#Aa" class="B" href="#J"/><use xlink:href="#Aa" class="C D E" href="#J"/><use xlink:href="#Ab" class="B" href="#K"/><use xlink:href="#Ab" class="C D E" href="#K"/><use xlink:href="#Ac" class="B" href="#L"/><use xlink:href="#Ac" class="C D E" href="#L"/><use xlink:href="#Ad" class="B" href="#M"/><use xlink:href="#Ad" class="C D E" href="#M"/><use xlink:href="#Ae" class="B" href="#N"/><use xlink:href="#Ae" class="C D E" href="#N"/><use xlink:href="#Af" class="B" href="#O"/><use xlink:href="#Af" class="C D E" href="#O"/><use xlink:href="#Ag" class="B" href="#P"/><use xlink:href="#Ag" class="C D E" href="#P"/><use xlink:href="#Ah" class="B" href="#Q"/><use xlink:href="#Ah" class="C D E" href="#Q"/><use xlink:href="#Ai" class="B" href="#R"/><use xlink:href="#Ai" class="C D E" href="#R"/><use xlink:href="#Aj" class="B" href="#S"/><use xlink:href="#Aj" class="C D E" href="#S"/><use xlink:href="#Ak" class="B" href="#T"/><use xlink:href="#Ak" class="C D E" href="#T"/><use xlink:href="#Al" class="B" href="#U"/><use xlink:href="#Al" class="C D E" href="#U"/><use xlink:href="#Am" class="B" href="#V"/><use xlink:href="#Am" class="C D E" href="#V"/><use xlink:href="#An" class="B" href="#W"/><use xlink:href="#An" class="C D E" href="#W"/><use xlink:href="#Ao" class="B" href="#X"/><use xlink:href="#Ao" class="C D E" href="#X"/><use xlink:href="#Ap" class="B" href="#Y"/><use xlink:href="#Ap" class="C D E" href="#Y"/><use xlink:href="#Aq" class="B" href="#Z"/><use xlink:href="#Aq" class="C D E" href="#Z"/><use xlink:href="#Ar" class="B" href="#a"/><use xlink:href="#Ar" class="C D E" href="#a"/><use xlink:href="#As" class="B" href="#b"/><use xlink:href="#As" class="C D E" href="#b"/><use xlink:href="#At" class="B" href="#c"/><use xlink:href="#At" class="C D E" href="#c"/><use xlink:href="#Au" class="B" href="#d"/><use xlink:href="#Au" class="C D E" href="#d"/><use xlink:href="#Av" class="B" href="#e"/><use xlink:href="#Av" class="C D E" href="#e"/><use xlink:href="#Aw" class="B" href="#f"/><use xlink:href="#Aw" class="C D E" href="#f"/><use xlink:href="#Ax" class="B" href="#g"/><use xlink:href="#Ax" class="C D E" href="#g"/><use xlink:href="#Ay" class="B" href="#h"/><use xlink:href="#Ay" class="C D E" href="#h"/><use xlink:href="#Az" class="B" href="#i"/><use xlink:href="#Az" class="C D E" href="#i"/><use xlink:href="#BA" class="B" href="#j"/><use xlink:href="#BA" class="C D E" href="#j"/><use xlink:href="#BB" class="B" href="#k"/><use xlink:href="#BB" class="C D E" href="#k"/><use xlink:href="#BC" class="B" href="#l"/><use xlink:href="#BC" class="C D E" href="#l"/><use xlink:href="#BD" class="B" href="#m"/><use xlink:href="#BD" class="C D E" href="#m"/><use xlink:href="#BE" class="B" href="#n"/><use xlink:href="#BE" class="C D E" href="#n"/><use xlink:href="#BF" class="B" href="#o"/><use xlink:href="#BF" class="C D E" href="#o"/><use xlink:href="#BG" class="B" href="#p"/><use xlink:href="#BG" class="C D E" href="#p"/><use xlink:href="#BH" class="B" href="#q"/><use xlink:href="#BH" class="C D E" href="#q"/><use xlink:href="#BI" class="B" href="#r"/><use xlink:href="#BI" class="C D E" href="#r"/><use xlink:href="#BJ" class="B" href="#s"/><use xlink:href="#BJ" class="C D E" href="#s"/><use xlink:href="#BK" class="B" href="#t"/><use xlink:href="#BK" class="C D E" href="#t"/><use xlink:href="#BL" class="B" href="#u"/><use xlink:href="#BL" class="C D E" href="#u"/><use xlink:href="#BM" class="B" href="#v"/><use xlink:href="#BM" class="C D E" href="#v"/><use xlink:href="#BN" class="B" href="#w"/><use xlink:href="#BN" class="C D E" href="#w"/><use xlink:href="#BO" class="B" href="#x"/><use xlink:href="#BO" class="C D E" href="#x"/><use xlink:href="#BP" class="B" href="#y"/><use xlink:href="#BP" class="C D E" href="#y"/><use xlink:href="#BQ" class="B" href="#z"/><use xlink:href="#BQ" class="C D E" href="#z"/><use xlink:href="#BR" class="B" href="#AA"/><use xlink:href="#BR" class="C D E" href="#AA"/><use xlink:href="#BS" class="B" href="#AB"/><use xlink:href="#BS" class="C D E" href="#AB"/><use xlink:href="#BT" class="B" href="#AC"/><use xlink:href="#BT" class="C D E" href="#AC"/><use xlink:href="#BU" class="B" href="#AD"/><use xlink:href="#BU" class="C D E" href="#AD"/><use xlink:href="#BV" class="B" href="#AE"/><use xlink:href="#BV" class="C D E" href="#AE"/><use xlink:href="#BW" class="B" href="#AF"/><use xlink:href="#BW" class="C D E" href="#AF"/><use xlink:href="#BX" class="B" href="#AG"/><use xlink:href="#BX" class="C D E" href="#AG"/><use xlink:href="#BY" class="B" href="#AH"/><use xlink:href="#BY" class="C D E" href="#AH"/><use xlink:href="#BZ" class="B" href="#AI"/><use xlink:href="#BZ" class="C D E" href="#AI"/><use xlink:href="#Ba" class="B" href="#AJ"/><use xlink:href="#Ba" class="C D E" href="#AJ"/><use xlink:href="#Bb" class="B" href="#AK"/><use xlink:href="#Bb" class="C D E" href="#AK"/><use xlink:href="#Bc" class="B" href="#AL"/><use xlink:href="#Bc" class="C D E" href="#AL"/><use xlink:href="#Bd" class="B" href="#AM"/><use xlink:href="#Bd" class="C D E" href="#AM"/><use xlink:href="#Be" class="B" href="#AN"/><use xlink:href="#Be" class="C D E" href="#AN"/><use xlink:href="#Bf" class="B" href="#AO"/><use xlink:href="#Bf" class="C D E" href="#AO"/><use xlink:href="#Bg" class="B" href="#AP"/><use xlink:href="#Bg" class="C D E" href="#AP"/><use xlink:href="#Bh" class="B" href="#AQ"/><use xlink:href="#Bh" class="C D E" href="#AQ"/><use xlink:href="#Bi" class="B" href="#A"/><use xlink:href="#Bi" class="C D E" href="#A"/><use xlink:href="#Bj" class="B" href="#B"/><use xlink:href="#Bj" class="C D E" href="#B"/><use xlink:href="#Bk" class="B" href="#C"/><use xlink:href="#Bk" class="C D E" href="#C"/><use xlink:href="#Bl" class="B" href="#D"/><use xlink:href="#Bl" class="C D E" href="#D"/><use xlink:href="#Bm" class="B" href="#E"/><use xlink:href="#Bm" class="C D E" href="#E"/><use xlink:href="#Bn" class="B" href="#F"/><use xlink:href="#Bn" class="C D E" href="#F"/><use xlink:href="#Bo" class="B" href="#G"/><use xlink:href="#Bo" class="C D E" href="#G"/><use xlink:href="#Bp" class="B" href="#H"/><use xlink:href="#Bp" class="C D E" href="#H"/><use xlink:href="#Bq" class="B" href="#I"/><use xlink:href="#Bq" class="C D E" href="#I"/><use xlink:href="#Br" class="B" href="#J"/><use xlink:href="#Br" class="C D E" href="#J"/><use xlink:href="#Bs" class="B" href="#K"/><use xlink:href="#Bs" class="C D E" href="#K"/><use xlink:href="#Bt" class="B" href="#L"/><use xlink:href="#Bt" class="C D E" href="#L"/><use xlink:href="#Bu" class="B" href="#M"/><use xlink:href="#Bu" class="C D E" href="#M"/><use xlink:href="#Bv" class="B" href="#N"/><use xlink:href="#Bv" class="C D E" href="#N"/><use xlink:href="#Bw" class="B" href="#O"/><use xlink:href="#Bw" class="C D E" href="#O"/><use xlink:href="#Bx" class="B" href="#P"/><use xlink:href="#Bx" class="C D E" href="#P"/><use xlink:href="#By" class="B" href="#Q"/><use xlink:href="#By" class="C D E" href="#Q"/><use xlink:href="#Bz" class="B" href="#R"/><use xlink:href="#Bz" class="C D E" href="#R"/><use xlink:href="#CA" class="B" href="#S"/><use xlink:href="#CA" class="C D E" href="#S"/><use xlink:href="#CB" class="B" href="#T"/><use xlink:href="#CB" class="C D E" href="#T"/><use xlink:href="#CC" class="B" href="#U"/><use xlink:href="#CC" class="C D E" href="#U"/><use xlink:href="#CD" class="B" href="#V"/><use xlink:href="#CD" class="C D E" href="#V"/><use xlink:href="#CE" class="B" href="#W"/><use xlink:href="#CE" class="C D E" href="#W"/><use xlink:href="#CF" class="B" href="#X"/><use xlink:href="#CF" class="C D E" href="#X"/><use xlink:href="#CG" class="B" href="#Y"/><use xlink:href="#CG" class="C D E" href="#Y"/><use xlink:href="#CH" class="B" href="#Z"/><use xlink:href="#CH" class="C D E" href="#Z"/><use xlink:href="#CI" class="B" href="#a"/><use xlink:href="#CI" class="C D E" href="#a"/><use xlink:href="#CJ" class="B" href="#b"/><use xlink:href="#CJ" class="C D E" href="#b"/><use xlink:href="#CK" class="B" href="#c"/><use xlink:href="#CK" class="C D E" href="#c"/><use xlink:href="#CL" class="B" href="#d"/><use xlink:href="#CL" class="C D E" href="#d"/><use xlink:href="#CM" class="B" href="#e"/><use xlink:href="#CM" class="C D E" href="#e"/><use xlink:href="#CN" class="B" href="#f"/><use xlink:href="#CN" class="C D E" href="#f"/><use xlink:href="#CO" class="B" href="#g"/><use xlink:href="#CO" class="C D E" href="#g"/><use xlink:href="#CP" class="B" href="#h"/><use xlink:href="#CP" class="C D E" href="#h"/><use xlink:href="#CQ" class="B" href="#i"/><use xlink:href="#CQ" class="C D E" href="#i"/><use xlink:href="#CR" class="B" href="#j"/><use xlink:href="#CR" class="C D E" href="#j"/><use xlink:href="#CS" class="B" href="#k"/><use xlink:href="#CS" class="C D E" href="#k"/><use xlink:href="#CT" class="B" href="#l"/><use xlink:href="#CT" class="C D E" href="#l"/><use xlink:href="#CU" class="B" href="#m"/><use xlink:href="#CU" class="C D E" href="#m"/><use xlink:href="#CV" class="B" href="#n"/><use xlink:href="#CV" class="C D E" href="#n"/><use xlink:href="#CW" class="B" href="#o"/><use xlink:href="#CW" class="C D E" href="#o"/><use xlink:href="#CX" class="B" href="#p"/><use xlink:href="#CX" class="C D E" href="#p"/><use xlink:href="#CY" class="B" href="#q"/><use xlink:href="#CY" class="C D E" href="#q"/><use xlink:href="#CZ" class="B" href="#r"/><use xlink:href="#CZ" class="C D E" href="#r"/><use xlink:href="#Ca" class="B" href="#s"/><use xlink:href="#Ca" class="C D E" href="#s"/><use xlink:href="#Cb" class="B" href="#t"/><use xlink:href="#Cb" class="C D E" href="#t"/><use xlink:href="#Cc" class="B" href="#u"/><use xlink:href="#Cc" class="C D E" href="#u"/><use xlink:href="#Cd" class="B" href="#v"/><use xlink:href="#Cd" class="C D E" href="#v"/><use xlink:href="#Ce" class="B" href="#w"/><use xlink:href="#Ce" class="C D E" href="#w"/><use xlink:href="#Cf" class="B" href="#x"/><use xlink:href="#Cf" class="C D E" href="#x"/><use xlink:href="#Cg" class="B" href="#y"/><use xlink:href="#Cg" class="C D E" href="#y"/><use xlink:href="#Ch" class="B" href="#z"/><use xlink:href="#Ch" class="C D E" href="#z"/><use xlink:href="#Ci" class="B" href="#AA"/><use xlink:href="#Ci" class="C D E" href="#AA"/><use xlink:href="#Cj" class="B" href="#AB"/><use xlink:href="#Cj" class="C D E" href="#AB"/><use xlink:href="#Ck" class="B" href="#AC"/><use xlink:href="#Ck" class="C D E" href="#AC"/><use xlink:href="#Cl" class="B" href="#AD"/><use xlink:href="#Cl" class="C D E" href="#AD"/><use xlink:href="#Cm" class="B" href="#AE"/><use xlink:href="#Cm" class="C D E" href="#AE"/><use xlink:href="#Cn" class="B" href="#AF"/><use xlink:href="#Cn" class="C D E" href="#AF"/><use xlink:href="#Co" class="B" href="#AG"/><use xlink:href="#Co" class="C D E" href="#AG"/><use xlink:href="#Cp" class="B" href="#AH"/><use xlink:href="#Cp" class="C D E" href="#AH"/><use xlink:href="#Cq" class="B" href="#AI"/><use xlink:href="#Cq" class="C D E" href="#AI"/><use xlink:href="#Cr" class="B" href="#AJ"/><use xlink:href="#Cr" class="C D E" href="#AJ"/><use xlink:href="#Cs" class="B" href="#AK"/><use xlink:href="#Cs" class="C D E" href="#AK"/><use xlink:href="#Ct" class="B" href="#AL"/><use xlink:href="#Ct" class="C D E" href="#AL"/><use xlink:href="#Cu" class="B" href="#AM"/><use xlink:href="#Cu" class="C D E" href="#AM"/><use xlink:href="#Cv" class="B" href="#AN"/><use xlink:href="#Cv" class="C D E" href="#AN"/><use xlink:href="#Cw" class="B" href="#AO"/><use xlink:href="#Cw" class="C D E" href="#AO"/><use xlink:href="#Cx" class="B" href="#AP"/><use xlink:href="#Cx" class="C D E" href="#AP"/><use xlink:href="#Cy" class="B" href="#AQ"/><use xlink:href="#Cy" class="C D E" href="#AQ"/></svg>