<svg xmlns="http://www.w3.org/2000/svg" width="300" height="300" viewBox="0 0 250 250"><g fill="#004ea2"><path d="M60.474 60.876c-16.998 16.994-26.36 39.602-26.36 63.633 0 49.629 40.383 89.988 89.997 89.988s89.997-40.36 89.997-89.988c0-49.615-40.382-89.988-89.997-89.988-24.045-.001-46.648 9.357-63.637 26.356zm-22.131 63.632c0-22.908 8.923-44.445 25.121-60.642 16.189-16.198 37.725-25.13 60.647-25.13 47.291 0 85.759 38.484 85.759 85.773s-38.469 85.763-85.759 85.763-85.768-38.474-85.768-85.763zM0 125.014c0 68.925 56.071 124.995 125.005 124.995C193.93 250.009 250 193.938 250 125.014 250 56.08 193.929 0 125.005 0 56.071 0 0 56.081 0 125.014m6.34 0C6.34 59.58 59.57 6.349 125.005 6.349c65.424 0 118.646 53.232 118.646 118.665 0 65.424-53.222 118.646-118.646 118.646C59.57 243.66 6.34 190.439 6.34 125.014m27.646 68.807-5.086-7.734c-.851-1.291-1.179-2.484-.992-3.598.182-1.108.748-1.97 1.684-2.587.805-.52 1.638-.735 2.517-.603.594.084 1.212.361 1.848.851-.407-1.118-.463-2.087-.201-2.905s.805-1.516 1.675-2.078a4.33 4.33 0 0 1 2.175-.735 4.45 4.45 0 0 1 2.195.44c.421.224.903.655 1.459 1.296l1.404 1.718 4.683 7.145zm2.499-7.626-1.174-1.788c-.43-.64-.842-1.024-1.217-1.132-.392-.099-.791-.02-1.211.257q-.589.37-.665.987c-.057.379.122.899.548 1.521l1.193 1.829zm5.255-3.452-1.38-2.096c-.464-.716-.927-1.137-1.366-1.263s-.879-.041-1.31.235c-.389.261-.622.608-.665 1.062-.051.455.159 1.03.632 1.759l1.385 2.082zm-19.454-8.376-4.983-12.278 3.162-1.287 3.116 7.692 2.358-.964-2.897-7.125 3.022-1.226 2.901 7.122 2.915-1.179-3.214-7.907 3.36-1.362 5.076 12.493zm-7.057-19.717-1.161-4.82 15.548-3.762 1.165 4.825zm-3.359-19.432-.454-4.94 8.67-.787c1.811-.181 3.21-.139 4.188.095s1.843.813 2.592 1.731c.749.903 1.189 2.124 1.339 3.64.15 1.6.042 2.878-.304 3.795a4.7 4.7 0 0 1-1.717 2.231c-.8.558-1.802.936-3.023 1.138l-1.085-4.646c.706-.075 1.221-.178 1.549-.328a1.74 1.74 0 0 0 .776-.659c.116-.202.159-.478.14-.833-.065-.548-.295-.926-.739-1.146-.429-.225-1.137-.286-2.106-.201zm-.369-12.95.262-4.941 15.965.842-.248 4.95zm.982-13.429.987-4.51 9.943-3.972-8.638-1.914 1.001-4.538 15.618 3.452-.997 4.539-9.872 3.963 8.576 1.881-1.007 4.552zM31.282 82.37l-3.027-1.404 3.196-6.929 6.199 2.858c.295 1.736.369 3.187.224 4.37-.15 1.169-.542 2.466-1.183 3.851-.791 1.731-1.736 2.994-2.831 3.818-1.086.819-2.349 1.254-3.781 1.315-1.441.06-2.915-.263-4.426-.95-1.578-.725-2.812-1.694-3.687-2.872-.861-1.203-1.31-2.569-1.347-4.109-.005-1.202.36-2.634 1.142-4.299.734-1.619 1.432-2.738 2.092-3.411.655-.655 1.413-1.118 2.255-1.347.855-.253 1.811-.285 2.877-.127l-1.221 4.698c-.637-.075-1.193.033-1.675.313-.486.294-.884.782-1.188 1.432-.454.992-.463 1.933-.057 2.821.412.912 1.357 1.699 2.845 2.386 1.567.725 2.821.944 3.771.659s1.666-.959 2.147-2.007a5.3 5.3 0 0 0 .449-1.53c.057-.533.042-1.16-.028-1.918l-1.366-.632zm5.03-27.763 3.13-3.388 10.583 1.568-6.508-5.989 3.158-3.425 11.768 10.826-3.158 3.435-10.523-1.553 6.462 5.951-3.154 3.415zm21.214-10.246c-1.498-2.13-2.064-4.22-1.708-6.247.347-2.031 1.601-3.781 3.729-5.264 2.18-1.525 4.267-2.119 6.265-1.768 2.002.337 3.734 1.568 5.217 3.673 1.071 1.539 1.694 2.971 1.862 4.31a6.76 6.76 0 0 1-.631 3.846c-.59 1.24-1.624 2.358-3.075 3.369q-2.216 1.545-4.159 1.862c-1.305.215-2.616.009-3.921-.575-1.315-.603-2.504-1.665-3.58-3.204zm4.066-2.813c.913 1.319 1.829 2.096 2.728 2.34.893.23 1.769.051 2.611-.538q1.312-.919 1.422-2.264c.084-.893-.389-2.087-1.413-3.561-.861-1.217-1.745-1.947-2.634-2.171-.903-.219-1.777-.028-2.62.561q-1.228.855-1.366 2.251c-.09.922.331 2.045 1.272 3.383zm18.58-2.461-6.246-14.734 7.584-3.214c1.408-.603 2.536-.935 3.378-1.01s1.633.121 2.368.58c.725.458 1.296 1.165 1.698 2.092.337.824.463 1.614.365 2.349a4.33 4.33 0 0 1-.833 2.045c-.281.398-.725.819-1.334 1.254.608-.042 1.085-.023 1.413.052.205.042.566.211 1.053.468.482.248.833.468 1.034.64l4 3.335-5.142 2.181-4.337-3.477c-.561-.454-.992-.702-1.305-.786a2.06 2.06 0 0 0-1.263.136l-.403.169 2.527 5.979zm.852-10.705 1.918-.819c.21-.074.575-.313 1.114-.706.285-.192.463-.44.552-.782a1.43 1.43 0 0 0-.079-.969c-.196-.482-.505-.776-.912-.903s-1.034-.023-1.867.337l-1.993.842zM95.401 16.09l6.401-1.179 4.225 9.119.697-10.022 6.368-1.179 2.911 15.729-3.981.731-2.213-11.996-.865 12.558-3.588.669-5.287-11.435 2.212 12.006-3.986.725zm35.953 10.051-5.619-.23-.898 2.607-5.035-.196 6.634-15.744 5.395.211 5.366 16.231-5.155-.215zm-.893-3.495-1.534-5.826-1.994 5.675zm14.186-8.404 4.815 1.114-2.751 11.754 7.513 1.75-.899 3.832-12.332-2.886zm38.979 14.954 4.278 2.475-4.783 8.244a8.2 8.2 0 0 1-1.716 2.11c-.676.575-1.447.987-2.307 1.217s-1.652.276-2.383.15c-1.011-.169-2.092-.599-3.267-1.273l-2.124-1.413c-.739-.561-1.295-1.128-1.667-1.712-.377-.594-.63-1.268-.781-2.059-.143-.767-.143-1.473.015-2.115.244-1.034.558-1.894.958-2.568l4.783-8.263 4.263 2.471-4.899 8.455c-.427.758-.558 1.465-.385 2.138.179.674.628 1.212 1.376 1.643.739.421 1.431.548 2.086.384.661-.191 1.221-.654 1.667-1.436zm11.49 7.753 3.413 3.102-1.499 10.597 5.957-6.541 3.439 3.13-10.752 11.828-3.453-3.13 1.484-10.523-5.909 6.503-3.429-3.135zm16.733 16.704 3.07 3.897-12.546 9.895-3.08-3.874zm7.215 9.203 2.522 4.521-8.283 8.763 11.776-2.532 2.459 4.37-16.864 2.649-2.611-4.68zm11.051 21.63 4.126 12.582-3.242 1.066-2.593-7.874-2.409.791 2.4 7.299-3.097 1.02-2.415-7.299-2.989.983 2.674 8.094-3.442 1.142-4.21-12.811zm-9.918 22.688 15.879-1.937.986 8.192c.183 1.507.192 2.675.038 3.518a3.8 3.8 0 0 1-1.211 2.106c-.646.581-1.478.926-2.489 1.057-.884.099-1.661.005-2.341-.299a4.25 4.25 0 0 1-1.745-1.347c-.294-.397-.59-.944-.833-1.652-.125.613-.276 1.063-.429 1.357-.109.187-.363.486-.735.884-.385.393-.699.655-.913.8l-4.314 2.928-.679-5.538 4.53-3.201c.59-.421.968-.762 1.128-1.044a2.1 2.1 0 0 0 .225-1.253l-.065-.431-6.433.791zm10.031 3.78.265 2.077c.02.206.147.627.37 1.263.103.318.291.558.59.739.294.164.617.231.953.197.521-.074.89-.271 1.12-.632.256-.355.303-.978.2-1.885l-.267-2.147zm-2.934 15.23-.065 4.706c-.768.043-1.371.211-1.779.496-.682.455-1.075 1.146-1.135 2.096-.067.697.059 1.268.368 1.666.303.412.668.631 1.104.659.412.038.795-.126 1.145-.458.362-.328.741-1.152 1.12-2.457.648-2.124 1.407-3.626 2.295-4.473.861-.87 1.939-1.253 3.179-1.16.823.06 1.579.356 2.278.893.692.529 1.206 1.282 1.543 2.274.352.983.454 2.298.329 3.958-.151 2.045-.655 3.561-1.489 4.571-.838 1.025-2.093 1.558-3.758 1.647l.086-4.665c.716-.079 1.267-.285 1.623-.664.347-.361.556-.907.612-1.601q.068-.856-.276-1.319a1.1 1.1 0 0 0-.851-.495c-.244-.019-.484.074-.712.298-.229.206-.461.755-.71 1.61-.638 2.115-1.225 3.63-1.758 4.519-.548.904-1.191 1.535-1.93 1.914-.733.36-1.539.505-2.4.444a5.03 5.03 0 0 1-2.77-1.052c-.823-.638-1.411-1.474-1.781-2.531-.379-1.053-.505-2.335-.379-3.893.211-2.718.866-4.552 1.988-5.521 1.128-.958 2.501-1.45 4.124-1.463zm8.109 22.51-1.115 4.81-15.589-3.612 1.113-4.824zm-2.869 11.719-5.559 13.953-3.667-1.451 1.859-4.679-11.188-4.464 1.825-4.595 11.191 4.459 1.867-4.688zm-8.192 19.339-2.972 4.613-6.288-.215 2.792 5.638-2.956 4.59-4.455-10.271-5.629-3.622 2.7-4.159 5.625 3.617zm-122.203 38.9-2.414 16.502-5.067-.813 1.894-10.771c-.865.43-1.689.739-2.489.954-.785.203-1.76.356-2.901.44l.754-3.649c1.67-.174 3.003-.534 4.005-1.066a7 7 0 0 0 2.466-2.19l3.753.594zm6.194 13.844 4.945-.149c.094.645.276 1.104.572 1.39.276.271.65.44 1.104.468.791.046 1.436-.299 1.914-1.01.35-.535.655-1.67.884-3.421-.603.52-1.221.913-1.857 1.128-.627.225-1.342.319-2.148.263-1.581-.108-2.877-.739-3.846-1.881-.992-1.133-1.376-2.503-1.217-4.094a5.9 5.9 0 0 1 1.086-2.882 5.1 5.1 0 0 1 2.33-1.82c.945-.384 2.096-.529 3.477-.445 1.632.099 2.948.431 3.921 1.035.983.603 1.768 1.511 2.348 2.76.581 1.235.871 2.869.843 4.877-.047 2.956-.759 5.123-2.162 6.462s-3.359 1.951-5.815 1.806c-1.435-.089-2.568-.323-3.373-.683-.819-.36-1.473-.874-1.965-1.501s-.843-1.393-1.04-2.301zm9.419-6.643c.043-.885-.164-1.601-.589-2.12-.435-.538-.978-.81-1.633-.847a2 2 0 0 0-1.581.575c-.444.435-.697 1.085-.768 1.997-.065.917.094 1.638.496 2.153s.935.79 1.595.833c.665.037 1.249-.168 1.717-.613.465-.458.726-1.114.763-1.978m9.377 2.882c-.028-3.121.542-5.297 1.652-6.555 1.123-1.287 2.812-1.942 5.114-2.064 1.1-.06 2.017.005 2.757.239.729.224 1.337.523 1.824.931.477.384.884.813 1.183 1.273s.567 1.006.796 1.624c.416 1.183.697 2.451.819 3.771.285 2.958-.033 5.174-1.026 6.644-.985 1.469-2.863 2.311-5.595 2.456-1.536.084-2.779-.088-3.729-.495a5.7 5.7 0 0 1-2.358-1.881c-.435-.59-.785-1.419-1.043-2.466-.243-1.029-.378-2.194-.392-3.476zm4.786-.099c.08 2.082.337 3.505.768 4.248.434.754 1.03 1.118 1.797 1.076.49-.029.921-.216 1.268-.557.345-.362.588-.879.724-1.605.112-.707.132-1.802.037-3.275q-.217-3.262-.851-4.342c-.44-.725-1.02-1.071-1.777-1.029s-1.296.445-1.615 1.212c-.312.795-.43 2.212-.35 4.271zm29.415 4.703a178 178 0 0 1-15.018 2.442c.02-1.357.385-2.69 1.097-3.978.701-1.282 2.115-2.886 4.164-4.851 1.24-1.194 1.994-2.092 2.282-2.658.296-.58.394-1.095.31-1.549a1.74 1.74 0 0 0-.777-1.17 2.1 2.1 0 0 0-1.501-.285c-.587.098-1.035.365-1.353.776-.318.435-.474 1.095-.467 2.031l-4.755.271c.033-1.287.244-2.33.64-3.102.379-.772.988-1.399 1.806-1.919.825-.5 1.994-.856 3.522-1.108 1.592-.257 2.845-.299 3.804-.117a4.75 4.75 0 0 1 2.429 1.249 4.4 4.4 0 0 1 1.276 2.335c.202.972.095 1.988-.327 2.99q-.639 1.522-2.789 3.579l-1.726 1.647c-.291.299-.632.701-1.01 1.18l7.64-1.409.751 3.645zm-19.791-129.357-3.4.614c-.899.135-1.076.682-1.039.969l-.015 1.777c-.009.538.108.885.37 1.053a.62.62 0 0 0 .571.052l2.864-.618c.673-.252.819-.693.795-.921l-.02-.974c0-.323-.136-.505-.252-.593a.88.88 0 0 0-.716-.061l-2.087.398c-.136.023-.229.14-.229.299v.954a.32.32 0 0 0 .112.244c.079.056.158.074.257.056l1.379-.35c.154-.043.248-.211.207-.37s-.207-.261-.356-.22l-1.002.253v-.337l1.878-.347c.093-.033.177-.033.201-.014l.008.094.033 1.006s-.021.164-.368.291l-2.896.645c-.051.02-.151-.075-.151-.538v-1.81c0-.103.116-.276.548-.347l3.453-.622c.042-.01.181-.042.276.022s.149.271.149.543v2.457c0 .112-.042.37-.571.533l-3.621.824c-.118 0-.379.008-.59.215-.131.122-.285.337-.266.754v2.971a.81.81 0 0 0 .266.655c.211.188.506.252.879.164l3.602-.819c.267-.008.866-.233.908-.992v-1.937a.8.8 0 0 0-.294-.565c-.234-.192-.566-.244-1.002-.174l-2.527.693a.83.83 0 0 0-.757.87v.917c.009.07.052.368.328.557.205.15.462.168.776.116l1.909-.495c.136-.022.23-.168.219-.304l-.085-.917c0-.084-.052-.168-.117-.234a.47.47 0 0 0-.262-.041l-.861.252c-.149.042-.257.211-.201.369.036.159.21.253.365.211l.505-.145a1.4 1.4 0 0 1 .023.304l-1.632.412c-.284.065-.355-.056-.37-.14v-.861c0-.21.17-.271.263-.295l2.564-.675c.295-.052.422 0 .482.043.065.057.065.102.065.112v1.922c0 .341-.261.384-.383.397l-3.631.851c-.177.023-.304.009-.369-.037-.071-.066-.066-.202-.066-.202v-3.003c0-.093 0-.233.066-.295.074-.061.192-.042.192-.042.028 0 .06 0 .108-.014l3.682-.833c1.149-.397 1.01-1.151 1.01-1.188v-2.391c0-.492-.136-.842-.398-1.029-.352-.253-.741-.126-.784-.118zm-3.551 4.97c-.009 0-.028 0-.042-.008.014-.001.033.008.042.008m10.168-6.494-3.402.608c-.897.14-1.089.697-1.048.973l-.019 1.763c0 .542.116.898.383 1.066a.58.58 0 0 0 .566.052l2.874-.632c.672-.243.808-.678.804-.903l-.038-.983c0-.328-.141-.496-.261-.581-.285-.196-.652-.094-.693-.071l-2.086.384a.295.295 0 0 0-.24.284v.983c0 .094.044.192.103.233.08.061.178.08.252.061l1.391-.36a.28.28 0 0 0 .209-.356c-.042-.159-.209-.263-.356-.219l-1.01.248v-.323l1.895-.361a.4.4 0 0 1 .192-.02 1 1 0 0 0 .019.103l.019 1.001s-.019.182-.365.304l-2.901.627c-.042.015-.152-.079-.145-.528v-1.815c0-.103.112-.271.558-.346l3.442-.622c.044 0 .192-.052.276.013.109.079.16.271.16.557v2.476c0 .102-.051.337-.579.529l-3.622.809a.8.8 0 0 0-.594.211c-.136.112-.276.346-.276.748v2.981c0 .009-.004.389.276.641.202.21.505.252.897.191l3.589-.847a.97.97 0 0 0 .908-.969v-1.956c-.009-.043-.033-.337-.294-.548-.234-.192-.57-.253-1.01-.174l-2.524.678c-.229.005-.754.23-.754.884v.908c.011.071.051.355.329.543.196.15.463.192.777.127l1.894-.483c.151-.042.244-.168.234-.312l-.084-.922c0-.088-.065-.177-.133-.22-.059-.06-.164-.06-.247-.041l-.866.233a.316.316 0 0 0-.211.379c.053.145.211.252.379.205l.505-.14.033.291-1.632.421c-.296.066-.379-.06-.389-.136l.009-.851c0-.229.169-.285.263-.295l2.549-.697c.305-.041.44.023.495.066a.2.2 0 0 1 .074.102v1.918a.387.387 0 0 1-.392.398l-3.646.847c-.158.028-.294.009-.356-.042-.073-.065-.073-.191-.073-.191v-2.999c0-.099.007-.234.073-.3s.192-.051.192-.051c.027 0 .061 0 .103-.009l3.678-.824c1.164-.388 1.019-1.155 1.01-1.189l.009-2.391c0-.495-.136-.851-.412-1.038-.334-.231-.728-.12-.764-.105zm-3.551 4.959h-.044zm10.124-7.066-3.406 1.095c-1.084.313-1.01 1.053-1.01 1.076v1.764c-.019.538.093.874.368 1.034a.56.56 0 0 0 .59-.008l2.886-1.044c.777-.393.768-.908.759-.969l-.023-.992c0-.305-.149-.478-.272-.557-.285-.182-.653-.019-.716 0l-2.097.706a.29.29 0 0 0-.2.285v.955c0 .108.042.201.125.257s.187.061.282.028l1.362-.537c.167-.061.234-.239.178-.399a.3.3 0 0 0-.389-.168l-.97.379v-.309l1.928-.641c.033 0 .192-.042.192-.042l-.023.065.027.997s-.019.206-.407.393l-2.896 1.052a.4.4 0 0 0-.057.02c0-.02-.053-.112-.053-.421v-1.895c0-.019.023-.295.596-.463l3.453-1.11c.086-.041.196-.069.261-.028.053.043.127.191.127.491v2.481c0 .107-.057.378-.608.654l-3.655 1.325a.95.95 0 0 0-.547.271c-.118.126-.257.342-.257.711v3.06a.83.83 0 0 0 .285.614c.219.168.537.187.926.065l3.581-1.352c.265-.038.846-.337.875-1.063v-1.951c-.011-.041-.02-.346-.305-.533q-.367-.268-1.033-.038l-2.528 1.025a.984.984 0 0 0-.712.95v.917a.69.69 0 0 0 .323.528c.211.126.495.14.825.02l1.895-.749a.31.31 0 0 0 .185-.305l-.084-.907a.27.27 0 0 0-.145-.229.29.29 0 0 0-.276-.023l-.861.369a.315.315 0 0 0-.16.389c.076.145.24.233.403.168l.482-.206c.011.14.011.164.033.271l-1.688.659c-.187.066-.271.033-.303.033l-.038-.085.009-.851c0-.271.252-.356.305-.379l2.535-1.034c.329-.103.465-.047.483-.033.046.033.057.065.057.065v1.914c-.02.403-.37.486-.43.509l-3.637 1.348c-.191.066-.318.066-.347.029-.04-.029-.051-.112-.051-.154v-2.99c-.013-.37.187-.435.303-.444.023 0 .063 0 .095-.015l3.688-1.353c1.109-.528.979-1.254.968-1.287l.011-2.396c0-.491-.145-.828-.412-.996-.367-.22-.756-.042-.808-.02zm-11.949 24.916-3.388.614c-.897.144-1.076.702-1.052.978v1.782c-.023.524.103.885.356 1.053.211.136.44.117.58.042l2.878-.622c.673-.243.809-.688.799-.907l-.023-.978c0-.319-.149-.482-.276-.566-.28-.224-.65-.107-.692-.098l-2.087.403a.3.3 0 0 0-.239.295v.959c0 .103.028.187.112.252.075.043.168.075.258.043l1.375-.337c.158-.042.252-.215.201-.361-.02-.177-.201-.271-.36-.229l-.988.248v-.328l1.876-.355a.5.5 0 0 1 .187-.023c0 .023.023.099.023.099l.02 1.001c0 .01-.02.192-.356.305l-2.898.632c-.052.033-.159-.074-.159-.524v-1.815c0-.102.126-.271.571-.341l3.453-.627c.029-.023.178-.042.272.023.084.06.149.276.149.548v2.484c0 .085-.042.328-.594.506l-3.604.824a.86.86 0 0 0-.598.211c-.127.103-.282.347-.263.744v2.986a.86.86 0 0 0 .263.655c.216.187.52.233.897.187l3.589-.842a.977.977 0 0 0 .899-.992v-1.938a.73.73 0 0 0-.276-.561c-.244-.196-.587-.248-1.011-.178l-2.527.678c-.235.02-.772.248-.772.879v.908a.9.9 0 0 0 .328.566c.209.131.485.181.79.116l1.909-.492a.29.29 0 0 0 .212-.318l-.067-.908a.4.4 0 0 0-.139-.23.3.3 0 0 0-.248-.033l-.856.233a.306.306 0 0 0-.207.37.293.293 0 0 0 .367.205l.52-.136a2 2 0 0 0 .019.31l-1.642.421c-.287.047-.356-.075-.379-.15l.009-.865c0-.21.168-.271.262-.281l2.548-.688c.299-.043.442 0 .507.052a.14.14 0 0 1 .065.121v1.895c-.009.356-.272.398-.402.398l-3.622.856c-.175.028-.309.018-.37-.047-.074-.052-.074-.178-.074-.196v-2.99c0-.098.022-.233.074-.299.075-.06.191-.041.191-.041.028 0 .071 0 .095-.01l3.687-.841c1.16-.389 1.011-1.151 1.011-1.189v-2.382c0-.506-.127-.856-.398-1.053-.341-.235-.73-.109-.786-.109zm-3.538 4.973h-.043zm10.169-6.405-3.402.603c-.899.136-1.076.693-1.057.969v1.778c-.011.538.107.884.36 1.053.211.14.442.102.59.051l2.854-.632c.682-.243.819-.669.808-.912l-.033-.969c0-.318-.135-.509-.261-.585-.271-.196-.65-.094-.693-.071l-2.084.399a.3.3 0 0 0-.254.295v.959a.32.32 0 0 0 .118.243c.078.043.169.066.261.043l1.371-.337a.3.3 0 0 0 .219-.37.305.305 0 0 0-.368-.219l-.993.252v-.328l1.878-.355c.098-.033.181-.033.192-.023a1 1 0 0 0 .017.098l.023 1.011s-.023.164-.356.295l-2.89.64c-.059.008-.164-.084-.16-.538v-1.811c0-.108.124-.276.562-.337l3.452-.631c.034 0 .183-.051.267.02.109.065.156.276.156.548v2.48c0 .094-.047.347-.575.51l-3.619.823c-.12 0-.379 0-.612.211-.122.117-.272.337-.249.739v2.99c0 .024-.027.389.249.651.216.192.528.257.911.169l3.589-.828a.97.97 0 0 0 .903-.978v-1.951a.76.76 0 0 0-.289-.557c-.244-.192-.572-.253-1.002-.168l-2.531.673a.87.87 0 0 0-.754.884v.917c0 .07.059.355.327.542q.298.225.777.126l1.905-.492c.135-.019.229-.168.211-.318l-.076-.903a.28.28 0 0 0-.125-.23.3.3 0 0 0-.247-.037l-.866.244a.3.3 0 0 0-.202.379.287.287 0 0 0 .368.191l.507-.151.033.304-1.644.421c-.294.066-.36-.061-.379-.135v-.862c0-.22.189-.276.287-.299l2.537-.669c.294-.057.44.009.495.042a.2.2 0 0 1 .071.117v1.913a.38.38 0 0 1-.389.398l-3.633.847c-.173.028-.316.009-.377-.033-.065-.066-.065-.187-.065-.187v-3.014c0-.084 0-.233.084-.299.067-.06.169-.046.169-.046.042.006.086 0 .103 0l3.686-.833c1.162-.392 1.021-1.16 1.017-1.193l.004-2.391q0-.743-.407-1.039a.84.84 0 0 0-.767-.096zm-3.551 4.95h-.044zm10.128-6.995-3.412 1.09c-1.086.323-1.011 1.052-1.011 1.08v1.774c-.017.534.109.87.356 1.025.225.131.465.065.614-.014l2.863-1.034c.804-.384.781-.917.781-.974l-.031-.983c0-.318-.136-.486-.263-.561-.294-.187-.65-.033-.73 0l-2.092.697a.29.29 0 0 0-.202.286v.964c0 .094.053.188.118.252a.29.29 0 0 0 .282.023l1.383-.538a.32.32 0 0 0 .164-.389.316.316 0 0 0-.396-.173l-.96.384v-.304l1.928-.641c.019-.014.192-.042.192-.042l-.023.057.023 1.007s-.017.187-.403.388l-2.896 1.052c-.033.009-.053.009-.053.009 0-.009-.063-.112-.063-.412v-1.895c0-.042.031-.295.598-.463l3.448-1.119c.08-.02.205-.06.261-.02.061.043.124.191.124.496v2.474c0 .102-.029.378-.6.641l-3.65 1.347a.83.83 0 0 0-.554.257 1 1 0 0 0-.252.703v3.078c0 .102.02.397.276.585.221.192.534.216.937.085l3.579-1.348a1.09 1.09 0 0 0 .866-1.052v-1.956a.68.68 0 0 0-.294-.529c-.244-.177-.59-.192-1.035-.06l-2.526 1.039c-.219.056-.717.341-.717.949v.917a.72.72 0 0 0 .327.523c.221.126.497.126.821.023l1.894-.759a.3.3 0 0 0 .192-.304l-.084-.898c-.015-.108-.053-.191-.136-.233a.26.26 0 0 0-.276-.014l-.861.355a.3.3 0 0 0-.16.399c.053.159.244.22.392.159l.483-.202.023.263-1.68.664c-.202.075-.287.042-.305.033l-.036-.074v-.851c0-.285.261-.37.314-.389l2.549-1.033c.314-.108.44-.043.482-.02.029.02.029.052.029.06v1.919c-.006.398-.356.482-.427.492l-3.625 1.361c-.196.061-.314.042-.347.019s-.051-.108-.042-.149v-3c-.009-.369.167-.421.282-.43.036 0 .074 0 .107-.023l3.688-1.347c1.104-.524.968-1.259.968-1.282v-2.391c0-.496-.127-.833-.403-1.001-.358-.229-.759-.042-.801-.023zm-49.202-17.691c-.276.188-.403.538-.403 1.029v2.447c0-.02-.159.748.983 1.128l3.716.838c.033.014.065.014.094.014 0 0 .117-.014.182.042.075.061.075.21.075.281v3.003c0 .023 0 .15-.066.202-.066.06-.211.074-.393.042l-3.556-.833c-.168-.009-.43-.065-.445-.421v-1.918c0 .01.014-.046.075-.102.051-.033.187-.095.514-.043l2.479.675c.145.022.328.085.328.295v.917c-.014.019-.099.149-.407.084l-1.619-.412.033-.304.505.145a.3.3 0 0 0 .369-.22c.052-.149-.042-.318-.215-.36l-.851-.252a.33.33 0 0 0-.253.051.36.36 0 0 0-.136.225l-.074.917a.27.27 0 0 0 .233.304l1.871.495c.337.075.589.033.805-.116.271-.188.323-.486.337-.505v-.969c0-.637-.552-.865-.813-.885l-2.465-.679c-.455-.056-.786-.019-1.029.174a.78.78 0 0 0-.276.548v1.936c.019.777.631 1.002.949 1.01l3.528.833c.389.075.697.01.904-.177.285-.263.267-.632.267-.674v-2.971c.02-.397-.14-.613-.267-.734a.85.85 0 0 0-.6-.215l-3.645-.824c-.523-.178-.548-.43-.548-.482v-2.507c0-.271.057-.472.159-.543.084-.065.233-.033.233-.033l3.472.632c.444.071.571.244.571.337v1.82c.024.464-.094.548-.094.558l-2.981-.664c-.318-.127-.337-.291-.337-.291l.028-.992c0-.02.014-.116.014-.116a.33.33 0 0 1 .159.009l1.914.369v.328l-.992-.238a.28.28 0 0 0-.365.205c-.046.159.052.319.219.37l1.371.35c.079.006.187 0 .252-.056a.33.33 0 0 0 .112-.244v-.954a.31.31 0 0 0-.244-.31l-2.124-.398c0-.014-.37-.116-.655.071a.72.72 0 0 0-.271.593l-.023.987c-.009.216.126.655.768.885l2.976.655c.071.051.299.071.515-.065.252-.168.369-.523.346-1.053v-1.81c.033-.234-.15-.8-1.053-.935l-3.434-.623a.82.82 0 0 0-.72.121zm4.36 4.843h-.042zm-11.019-6.391c-.262.178-.411.515-.411 1.025v2.442c0-.022-.136.735.983 1.166l3.705 1.044h.103s.117 0 .201.074c.066.074.075.202.075.295v3.003c0 .038-.009.146-.06.187-.065.061-.201.061-.379.015l-3.56-1.025c-.15-.023-.445-.084-.468-.464v-1.918c0 .014.014-.043.065-.084.042-.02.182-.084.52-.009l2.471.799c.117.028.342.085.342.347v.884s-.023.043-.08.067q-.088.062-.313 0l-1.628-.506.019-.295.505.169c.159.051.328-.023.379-.188a.315.315 0 0 0-.178-.384l-.876-.296a.34.34 0 0 0-.252.043.3.3 0 0 0-.15.229l-.075.912a.32.32 0 0 0 .211.314l1.89.574c.333.089.6.057.81-.07.271-.192.313-.464.328-.505v-.95c0-.64-.506-.879-.782-.927l-2.465-.8c-.464-.102-.796-.065-1.039.117a.77.77 0 0 0-.285.538l-.014 1.951c.042.744.636.997.949 1.039l3.528 1.02c.393.098.693.056.912-.136a.83.83 0 0 0 .276-.632v-3.051c0-.369-.145-.585-.262-.697a.78.78 0 0 0-.575-.234c-.042-.008-3.668-1.028-3.668-1.028-.524-.206-.561-.478-.561-.529v-2.503c0-.384.108-.509.15-.529.074-.041.192-.019.233-.013l3.477.832c.449.088.575.271.575.37v1.825c.014.44-.085.548-.085.548l-2.976-.848c-.328-.136-.351-.313-.351-.332l.028-.983c0-.008.014-.108.014-.108a.7.7 0 0 1 .15.033l1.923.478v.323l-.978-.304c-.154-.042-.327.042-.37.201s.033.323.192.378l1.376.422a.28.28 0 0 0 .267-.042.34.34 0 0 0 .126-.253v-.959a.286.286 0 0 0-.244-.285l-2.115-.523a.75.75 0 0 0-.665.06c-.14.088-.276.244-.276.572l-.02.992c-.009.042-.023.588.739.904l2.971.818a.59.59 0 0 0 .534-.051c.253-.155.379-.492.361-1.063v-1.791s.06-.735-1.052-.979l-3.439-.799a.79.79 0 0 0-.734.084zm4.361 5.086h-.028zm-10.93-7.266c-.267.168-.412.505-.412 1.01v2.442c0-.028-.14.697.959 1.212l3.705 1.366c.033.015.06.023.094.023.117.015.319.075.309.412v3.014c0 .042-.023.136-.042.154-.057.038-.174.038-.379-.029l-3.561-1.337c-.116-.033-.468-.117-.486-.52v-1.922c.075-.071.211-.127.557-.023l2.479 1.02c.079.038.342.122.342.403v.908c-.06.019-.145.051-.342-.015l-1.68-.659.033-.271.486.206c.159.065.327-.023.398-.159a.29.29 0 0 0-.168-.389l-.861-.379c-.089-.028-.192-.019-.271.023s-.132.145-.14.229l-.084.907a.31.31 0 0 0 .187.305l1.876.749c.347.121.623.116.842-.02.271-.164.318-.444.327-.478v-.958c0-.623-.495-.908-.767-.969l-2.457-1.015c-.463-.139-.81-.122-1.052.046a.67.67 0 0 0-.304.515v1.947a1.12 1.12 0 0 0 .927 1.094l3.514 1.334c.412.136.72.103.941-.065.252-.191.285-.495.285-.614v-3.061c0-.364-.136-.585-.257-.711a.87.87 0 0 0-.543-.261c-.019-.009-3.677-1.357-3.677-1.357-.557-.252-.589-.537-.589-.603v-2.493c0-.314.075-.464.14-.506.046-.028.164 0 .22.023l3.477 1.115c.599.181.599.444.599.463v1.811c.009.434-.075.529-.075.529l-2.971-1.095c-.347-.188-.37-.379-.37-.393l.033-.997.014-.074c0 .033.126.051.126.051l1.947.641v.309l-.959-.37a.3.3 0 0 0-.389.159c-.051.169.009.337.168.389l1.376.561a.31.31 0 0 0 .276-.043.31.31 0 0 0 .131-.257v-.955a.3.3 0 0 0-.205-.285l-2.124-.706c-.042-.014-.398-.182-.697 0-.126.094-.262.244-.262.58l-.033.987c-.009.043-.009.571.734.94l2.962 1.082c.094.065.337.107.548-.02.267-.15.379-.487.369-1.034v-1.789s.075-.739-1.02-1.053l-3.435-1.095c-.013-.022-.41-.201-.766.02z"/><path d="M105.119 125.341c-.262.188-.389.539-.389 1.01v2.383c0-.033-.159.725.978 1.094l3.705.81c.042.023.08.023.108.023.033-.023.136 0 .191.042.06.065.06.163.06.262v2.905c0 .023 0 .14-.06.201-.056.052-.202.065-.379.028l-3.575-.804c-.154-.015-.426-.066-.44-.403v-1.867c0 .015.014-.037.071-.07.056-.042.202-.107.52-.042l2.485.651c.116 0 .309.041.309.276v.884c0 .024-.088.136-.392.075l-1.624-.403.023-.281.52.145a.32.32 0 0 0 .37-.196.314.314 0 0 0-.206-.384l-.861-.23a.26.26 0 0 0-.252.042.27.27 0 0 0-.126.219l-.085.884c-.009.151.085.271.234.314l1.881.463c.327.085.603.023.791-.112a.72.72 0 0 0 .328-.486v-.935c0-.632-.515-.851-.8-.875l-2.466-.646c-.454-.08-.799-.014-1.029.174a.69.69 0 0 0-.276.523v1.895c.02.748.632.958.945.968l3.532.805c.398.071.702.02.917-.168.281-.252.248-.622.248-.664v-2.878c.023-.378-.126-.588-.248-.711a.8.8 0 0 0-.614-.215l-3.644-.796c-.529-.174-.557-.426-.557-.468l.009-2.433c0-.262.06-.44.15-.52.094-.07.239-.019.239-.019l3.486.603c.435.071.561.23.561.313v1.76c.009.44-.084.538-.084.538l-3.004-.646c-.304-.098-.318-.271-.318-.271l.033-.959c0-.023.014-.112.014-.112a.5.5 0 0 0 .145.02l1.928.356v.317l-1.001-.252a.3.3 0 0 0-.369.212c-.042.168.065.337.225.36l1.366.346a.28.28 0 0 0 .262-.056c.08-.052.108-.145.108-.23v-.944a.3.3 0 0 0-.244-.299l-2.13-.384c-.028-.015-.378-.122-.659.079a.69.69 0 0 0-.253.565l-.023.965c-.019.205.126.64.758.861l2.971.654c.084.042.318.061.52-.079.248-.178.369-.51.355-1.039v-1.745s.06-.739-1.063-.917l-3.439-.6c-.001 0-.385-.13-.736.112zm4.376 4.707h-.038zm-10.818-6.171c-.267.178-.403.528-.403 1.024v2.429c0-.02-.145.739.958 1.16l3.716 1.052c.042.015.08.015.108.015 0 0 .126 0 .191.07.071.065.085.191.085.295v3.003c0 .043-.014.151-.065.178-.052.065-.196.065-.379.023l-3.56-1.034c-.145-.023-.444-.084-.454-.464v-1.914s0-.046.066-.089c.028-.019.164-.085.505 0l2.475.799c.117.023.323.085.323.342v.889c0-.005-.005.038-.06.056-.052.043-.168.043-.31 0l-1.628-.505.014-.295.505.178c.155.056.323-.033.375-.202.051-.145-.019-.312-.188-.378l-.855-.271a.29.29 0 0 0-.262.023.34.34 0 0 0-.136.23l-.084.903a.3.3 0 0 0 .21.318l1.886.585c.337.079.613.057.813-.079a.7.7 0 0 0 .319-.482l.014-.969c0-.637-.524-.89-.796-.931l-2.457-.791c-.463-.116-.8-.071-1.034.117a.74.74 0 0 0-.295.528v1.96a1.02 1.02 0 0 0 .949 1.028l3.518 1.021c.384.098.693.056.912-.136a.84.84 0 0 0 .276-.632v-3.056c0-.355-.136-.581-.262-.693a.88.88 0 0 0-.571-.232 933 933 0 0 1-3.668-1.035c-.534-.196-.557-.464-.557-.524v-2.494c0-.392.094-.495.15-.542s.187-.019.219-.005l3.486.833c.454.079.571.271.571.374v1.811c.009.444-.075.543-.075.543l-2.98-.828c-.337-.14-.351-.328-.351-.332l.023-.979c0-.028.019-.108.019-.108.014 0 .089 0 .136.023l1.942.482v.314l-.978-.291a.287.287 0 0 0-.379.187c-.057.169.028.337.201.375l1.366.426c.098.033.192.022.262-.042a.3.3 0 0 0 .126-.234v-.969c0-.149-.089-.271-.23-.29l-2.124-.529c-.037-.013-.393-.125-.678.067-.112.079-.262.248-.262.561l-.023.997c-.009.051-.019.574.748.903l2.971.824a.57.57 0 0 0 .52-.046c.271-.169.375-.509.365-1.053v-1.811s.075-.739-1.043-.969l-3.43-.809c0 .006-.393-.145-.748.099zm4.356 5.077h-.019zm-10.719-7.285c-.285.164-.421.505-.421.997v2.442c0-.028-.131.706.959 1.226l3.705 1.357c.02.022.06.022.099.022.112.009.313.061.29.421v2.99c.014.065 0 .149-.028.164-.057.037-.169.041-.37-.015l-3.571-1.352c-.116-.02-.454-.112-.477-.515v-1.928c.065-.064.201-.116.552 0l2.471 1.011c.098.023.346.108.346.392v.912c-.06.023-.14.057-.346-.008l-1.661-.674.028-.266.463.201c.174.065.342-.009.407-.16a.32.32 0 0 0-.164-.397l-.851-.356c-.094-.038-.201-.023-.281.019s-.14.136-.14.23l-.085.912c0 .122.06.248.188.299l1.89.748q.497.174.833-.022c.271-.164.323-.44.332-.482v-.955c0-.613-.505-.898-.776-.969l-2.447-1.007c-.472-.153-.828-.149-1.072.023a.78.78 0 0 0-.295.539v1.946c.033.739.618 1.034.927 1.086l3.528 1.339c.393.125.717.102.936-.061.248-.202.276-.506.276-.627v-3.061c0-.362-.136-.586-.262-.697-.201-.21-.421-.267-.538-.267-.019-.005-3.677-1.353-3.677-1.353-.557-.276-.589-.548-.589-.603l.009-2.507c0-.304.051-.449.131-.492.052-.042.178-.014.219.02l3.477 1.113c.589.174.599.449.599.455v1.825c.009.43-.075.529-.085.529l-2.952-1.109c-.356-.182-.37-.379-.37-.389l.023-.992c0-.009.014-.06.014-.075a.5.5 0 0 0 .136.043l1.947.654v.304l-.969-.374c-.145-.066-.337 0-.378.164a.285.285 0 0 0 .159.389l1.371.538c.094.042.196.042.281-.019s.14-.15.14-.244v-.978a.31.31 0 0 0-.211-.286l-2.129-.706c-.033-.014-.389-.178-.683.023-.126.061-.276.23-.276.557l-.028 1.001c0 .028-.023.557.734.936l2.957 1.071a.56.56 0 0 0 .552-.004q.392-.227.37-1.048v-1.802s.056-.711-1.025-1.039l-3.434-1.104c-.014.002-.412-.191-.758.045m5.128-30.356c-1.231-.21-2.358.449-2.541 1.483-.164 1.035.697 2.022 1.918 2.223 1.231.211 2.372-.44 2.541-1.473s-.682-2.022-1.918-2.232zm5.792 2.305c-1.24-.085-2.306.683-2.377 1.718s.875 1.951 2.114 2.044c1.245.084 2.307-.683 2.383-1.731.075-1.028-.875-1.936-2.119-2.031zm6.171 1.76c-1.221-.22-2.357.445-2.541 1.474-.178 1.01.679 2.031 1.908 2.231 1.231.211 2.372-.448 2.541-1.473.178-1.02-.668-2.021-1.908-2.232m42.228-4.065c-1.234.21-2.103 1.198-1.919 2.232.169 1.034 1.305 1.684 2.528 1.488 1.244-.216 2.095-1.203 1.926-2.247-.178-1.024-1.319-1.684-2.535-1.473m-5.521 2.737c-1.246.084-2.189 1.001-2.13 2.044.089 1.03 1.162 1.802 2.4 1.709 1.246-.084 2.181-1.001 2.11-2.045-.066-1.034-1.141-1.811-2.381-1.708zm-6.238 1.539c-1.231.22-2.073 1.221-1.895 2.241.168 1.034 1.304 1.689 2.531 1.478 1.24-.224 2.082-1.216 1.914-2.24-.178-1.025-1.325-1.69-2.55-1.479m13.219 17.545c-1.231.202-2.088 1.203-1.914 2.223s1.305 1.699 2.54 1.484c1.231-.206 2.082-1.198 1.914-2.227-.168-1.01-1.311-1.689-2.54-1.479zm-5.91 2.003c-1.24.094-2.186 1.01-2.124 2.04.086 1.039 1.145 1.802 2.4 1.723 1.244-.099 2.195-1.001 2.115-2.035-.083-1.044-1.147-1.812-2.391-1.727zm-6.443 1.558c-1.221.211-2.068 1.221-1.895 2.232.17 1.034 1.315 1.689 2.537 1.487 1.235-.219 2.096-1.225 1.918-2.246s-1.313-1.684-2.559-1.473zm13.49 17.485c-1.231.188-2.082 1.197-1.916 2.227.171 1.024 1.316 1.688 2.528 1.479 1.236-.202 2.097-1.198 1.928-2.223-.181-1.021-1.314-1.699-2.54-1.484zm-5.718 2.484c-1.246.108-2.177 1.01-2.106 2.054.065 1.044 1.137 1.796 2.377 1.712 1.249-.079 2.195-1.01 2.124-2.035-.08-1.039-1.14-1.816-2.395-1.732zm-6.435 1.558c-1.234.21-2.072 1.211-1.894 2.231.178 1.035 1.315 1.684 2.536 1.474 1.231-.206 2.086-1.221 1.91-2.232-.184-1.029-1.321-1.684-2.552-1.473m-46.437-25.19c-1.231-.215-2.358.463-2.527 1.484-.178 1.025.674 2.035 1.908 2.232s2.368-.464 2.537-1.484-.683-2.026-1.919-2.232zm6.078 2.02c-1.239-.15-2.339.572-2.465 1.609-.112 1.034.791 1.993 2.035 2.129 1.235.136 2.34-.575 2.451-1.615.118-1.028-.79-1.987-2.021-2.123m6.583 1.55c-1.221-.225-2.363.44-2.541 1.465s.679 2.02 1.909 2.24c1.231.202 2.372-.453 2.536-1.473.178-1.03-.669-2.022-1.905-2.232zm-14.21 17.175c-1.24-.21-2.368.464-2.55 1.484-.164 1.025.697 2.026 1.923 2.237 1.231.202 2.363-.463 2.536-1.487s-.683-2.022-1.909-2.233zm6.261 2.04c-1.254-.079-2.316.688-2.396 1.722-.071 1.039.875 1.96 2.114 2.045 1.255.079 2.321-.688 2.396-1.717.074-1.044-.875-1.965-2.115-2.05zm6.476 1.657c-1.245-.211-2.382.453-2.559 1.478-.173 1.015.683 2.03 1.914 2.227 1.225.22 2.371-.44 2.54-1.473.178-1.02-.682-2.008-1.894-2.232zm49.754-39.63c-7.29 3.808-20.194 5.221-20.33 5.246-.252.019-.431.252-.421.492a.487.487 0 0 0 .505.416c.571-.057 12.469-1.391 20.045-5.058l.667 10.176c-1.732.735-11.212 4.464-20.532 5.282-.244.038-.422.235-.422.445v.042c.01.244.22.454.479.42 10.645-1.197 21.021-5.436 21.124-5.479l.296-.126-.8-12.183zm-63.95 0c7.285 3.808 20.283 5.325 20.418 5.348.252.023.43.244.421.482a.476.476 0 0 1-.495.426c-.575-.06-12.577-1.493-20.148-5.16l-.674 10.176c1.75.735 11.215 4.464 20.535 5.282.234.038.426.235.426.445v.042c-.014.244-.234.454-.478.42-10.645-1.197-21.017-5.436-21.125-5.479l-.295-.126.786-12.183zm65.442 21.284c-7.299 3.837-21.588 5.152-21.738 5.152a.46.46 0 0 0-.397.496.45.45 0 0 0 .482.412c.58-.057 13.874-1.291 21.458-4.965l.659 10.186c-1.734.738-11.711 4.781-20.929 5.287a.455.455 0 0 0-.429.448v.039a.455.455 0 0 0 .482.416c10.243-.567 21.425-5.432 21.533-5.474l.294-.136-.799-12.175zm-66.912 0c7.299 3.837 21.584 5.152 21.733 5.152.248.037.44.252.407.496a.466.466 0 0 1-.491.412c-.571-.057-13.872-1.291-21.447-4.965l-.665 10.186c1.731.738 11.725 4.781 20.929 5.287.244.02.421.206.421.448v.039a.436.436 0 0 1-.464.416c-10.261-.567-21.433-5.432-21.537-5.474l-.295-.136.8-12.175zm26.141-12.502 3.762-.126c1.736-.36 1.379-2.502 1.379-2.502-.148-1.742-.898-1.474-1.694-1.797-1.191-.149-3.13.182-3.13.182-1.338-.114-.978-1.155-.978-1.155-.042-1.699-1.338-1.755-1.338-1.755-1.38-.084-1.432 2.551-1.432 2.551l.051 9.471.211 1.788c.094.762 1.076.949 1.609.983.538.051.983-.261.983-.261l2.19-.043c2.232-.233 2.63-.992 2.905-1.708l.033-.116c.211-.777-.033-2.42-.033-2.42-.412-2.059-4.52-1.339-4.52-1.339-1.198.085-1.072-.813-1.072-.813-.046-.895 1.072-.938 1.072-.938zm-.084 3.542h1.488c.534 0 .983.422.983.955 0 .515-.449.95-.983.95h-1.488c-.543 0-.987-.435-.987-.95 0-.533.444-.955.987-.955m-.848-5.539c0-.552.492-.997 1.09-.997h1.657c.6 0 1.095.445 1.095.997 0 .524-.495.978-1.095.978h-1.657c-.599 0-1.09-.454-1.09-.978m9.593-3.225 8.38.085s1.477.094 1.477 1.212c0 0-.219 1.525-1.477 1.567l-2.223.125s-.796-.136-.796.885c0 0-.233.987 1.114 1.123 0 0 3.477.099 3.79 1.572 0 0 1.211 1.741.366 4.066 0 0-1.035 2.62-1.975.033l-.304-1.698-.234-.66s-.444-.899-1.511-.899c0 0-1.245-.229-1.217 1.515l-.206 2.855s-.542 1.708-1.432 1.708c0 0-1.53.183-1.53-2.189l-.131-2.769s.267-1.076-1.343-1.119c0 0-1.604-.229-1.52 2.059l-.136 1.291s-.304 1.263-1.146 1.203c0 0-1.212.276-1.168-1.825l-.043-2.77s.403-1.913 2.181-1.965l1.305-.042s1.791.178 1.834-1.487c0 0-.191-1.104-1.572-1.104l-2.092-.041s-1.034.093-.992-1.432c0 0-.126-1.297 1.871-1.297h.729z"/><path d="m116.948 122.006 4.328.093s1.432-2.769 3.041-2.816c0 0 1.564-.23 2.812 2.816l6.204-.181s2.732-.043 2.963 2.016l.681 3.477s1.096 5.586 2.71 8.665c0 0 1.339 1.296.275 2.274 0 0-1.389 1.347-3.138-1.741 0 0-1.647-1.964-3.518-10.541 0 0-.058-.375-.187-.795-.145-.471-.401-.991-1.203-.941l-4.013.094 1.237 4.323c.211.8.527 1.666.67 2.354.191.715.51 1.391.785 2.078.302.754.702 1.47.952 2.242.164.506.478 1.037.357 1.556-.096.413-.399.863-.804.987-.561.172-1.225-.142-1.686-.506-.467-.368-.638-1.007-.897-1.543-.291-.603-.732-1.87-.732-1.87l-1.616-5.724-.688-2.963c-.07-.5-.382-.913-.967-.92-.649-.008-.904.334-1.042.976l-.582 3.028s-.729 3.953-1.736 6.531c-.277.71-.493 1.14-.861 1.634-.314.422-.652.875-1.124 1.105-.441.215-1.014.397-1.459.191-.437-.203-.727-.738-.783-1.217-.075-.642.254-1.143.643-1.83 0 0 1.208-2.294 1.863-4.89l1.247-5.477-3.766-.165c-.07-.002-.139.02-.207.018-.261.068-.613.343-.919 1.471L114 131.514s-1.261 3.366-1.528 4.354-.183 1.07-.447 1.531c-.207.362-.482.727-.857.911a1.84 1.84 0 0 1-1.276.122c-.396-.113-.828-.368-.983-.749-.221-.545.225-1.567.262-1.745s.72-1.881.72-1.881l2.592-7.758.727-2.802c.092-.507.734-1.165 1.988-1.4.749-.143 1.078-.091 1.749-.092z"/></g><g fill="#004ea2"><path d="M125.627 151.894c-.108.103-.099.31.022.42 3.537 3.118 8.067 5.143 13.12 5.854a.3.3 0 0 0 .337-.248c.014-.177-.093-.318-.248-.35-5.006-.708-9.317-2.62-12.825-5.718-.102-.107-.3-.084-.406.042m-3.908-4.847a.307.307 0 0 0-.131.402c.037.062.603 1.156 1.895 2.677a.32.32 0 0 0 .434.041.3.3 0 0 0 .024-.429c-1.245-1.465-1.811-2.541-1.825-2.565a.295.295 0 0 0-.397-.126m1.709 6.7a.307.307 0 0 0 .018.435c4.609 3.958 9.928 6.308 15.777 6.957a.31.31 0 0 0 .337-.262.28.28 0 0 0-.262-.323c-5.74-.655-10.934-2.952-15.45-6.83-.13-.104-.322-.104-.42.023m-5.765-6.743a.29.29 0 0 0-.102.403c.051.103 1.259 2.19 3.757 4.758a.29.29 0 0 0 .421.014c.127-.117.127-.304.01-.434-2.428-2.503-3.653-4.614-3.663-4.633a.316.316 0 0 0-.423-.108"/><path d="M128.976 157.812c-.293 1.704.114 2.57.136 2.601 1.727 3.878 6.12 4.194 6.308 4.202 1.296.262 1.884-.65 2.002-1.18.018-.64-.135-1.117-.474-1.45-.583-.585-1.421-.553-1.453-.553-.02 0-3.402-.229-3.454-2.34 0-.163-.15-.293-.304-.293a.297.297 0 0 0-.3.31c.067 2.651 3.88 2.918 4.039 2.918.04.019.66 0 1.04.375.22.225.317.552.308.949-.01.042-.252.884-1.329.674-.075 0-4.258-.328-5.835-3.865-.009-.024-.36-.749-.084-2.242.018-.174-.084-.318-.253-.35s-.313.076-.347.244m5.728-5.689c-2.98.581-4.496 2.793-4.562 2.892-.094.121-.06.313.085.407.135.094.317.056.42-.083 0-.024 1.446-2.097 4.183-2.625 2.222-.422 4.67.251 7.28 2.034.06.052 2.056 1.736 3.58 1.55a1.52 1.52 0 0 0 1.156-.678c.118-.103.35-.463.287-.946-.07-.62-.608-1.22-1.545-1.777-.042-.034-1.581-1.161-4.088.632-.044.028-.044.069-.062.112-2.383-1.391-4.648-1.916-6.734-1.518m10.54 1.268c.992.585 1.246 1.053 1.288 1.348.042.312-.127.497-.15.505a1.03 1.03 0 0 1-.754.464c-1.276.145-3.12-1.427-3.14-1.432l-.527-.328c2.044-1.404 3.232-.58 3.284-.557"/><path d="M138.895 152.478c-.126.108-.144.3-.033.426s.295.127.42.023c5.102-4.51 8.807-.487 8.952-.299 2.303 2.7-.365 5.077-.483 5.184-2.442 1.83-5.204-.57-5.328-.674-5.98-4.487-9.625-1.1-9.658-1.061a.307.307 0 0 0-.01.43.293.293 0 0 0 .422 0c.136-.127 3.327-3.055 8.866 1.094.01 0 3.234 2.822 6.092.664.047-.033 3.239-2.877.554-6.036-.047-.05-4.254-4.663-9.794.25"/><path d="M141.263 146.69a1.28 1.28 0 0 0-.874.619c-.342.646-.027 1.488-.01 1.52.458 1.694-.085 2.517-.085 2.54a.29.29 0 0 0 .084.408c.136.097.32.052.423-.084.02-.033.687-1.044.148-3.051-.07-.216-.21-.72-.02-1.048.085-.168.24-.271.468-.328.015-.004.53-.094 1.035.286.604.445.968 1.403 1.067 2.761.019.173.16.294.327.27.155 0 .286-.14.273-.312q-.177-2.365-1.32-3.223c-.735-.535-1.474-.38-1.516-.357m10.42.557c-3.234 1.559-2.537 6.728-2.509 6.962a.297.297 0 0 0 .338.253c.16-.02.278-.183.263-.337-.024-.052-.67-4.975 2.127-6.316.318-.08 1.452-.258 1.854.187.103.14.149.304.149.506 0 .294-.109.621-.211.916-.234.263-1.614 1.97-1.665 5.306 0 .023-.057 2.602-1.549 3.618-.81.523-1.918.523-3.313-.023a.297.297 0 0 0-.383.168.29.29 0 0 0 .155.388c1.596.632 2.899.613 3.887-.052 1.76-1.179 1.802-3.982 1.802-4.084.057-3.322 1.538-4.95 1.553-4.974l.042-.043.02-.051c.365-.918.353-1.614-.044-2.064-.714-.813-2.325-.412-2.516-.36m-12.932 7.963a.307.307 0 0 0-.3.304c0 .104.014 2.93.959 6.144.052.094 2.254 4.202.319 6.031a.307.307 0 0 0-.024.425.307.307 0 0 0 .425.015c2.279-2.157-.056-6.513-.148-6.715-.919-3.055-.928-5.876-.928-5.9a.297.297 0 0 0-.303-.304m2.62 1.84c-.01.097-.212 2.347.969 5.309.032.042 2.22 5.034-1.128 7.5-.135.084-.155.277-.061.42a.31.31 0 0 0 .41.067c3.749-2.761 1.367-8.179 1.34-8.24-1.137-2.778-.932-4.969-.932-5.001a.31.31 0 0 0-.272-.327.297.297 0 0 0-.327.271"/><path d="M142.737 162.276a.33.33 0 0 0-.248.36c.042.168.186.271.368.229.272-.052 1.082-.135 1.442.132a.297.297 0 0 0 .417-.08.295.295 0 0 0-.07-.421c-.653-.45-1.777-.24-1.91-.22m.37 3.318c-.005.159.119.31.288.31l.84.06a.29.29 0 0 0 .318-.276.32.32 0 0 0-.283-.332l-.835-.042c-.167-.024-.313.112-.327.28"/><path d="M158.098 152.965c-2.13.468-3.669 3.182-3.73 3.29l-.009.042-.015.028c-.733 2.75-4.925 3.308-4.967 3.317-4.405.351-5.372 3.5-5.414 3.64-.707 5.104 3.958 6.747 4 6.756 4.005 1.928 4.922 4.352 4.928 4.37 2.264 4.88 5.394 6.597 5.52 6.682l.623.327c.852.576 1.674.81 2.431.66.905-.176 1.367-.842 1.39-.86.346-.614.431-1.16.233-1.643-.36-.907-1.487-1.225-1.529-1.236-3.42-1.112-5.96-6.47-5.987-6.517-1.54-3.055-4.83-4.468-4.976-4.529l-.032-.01-.027-.013c-2.068-.346-2.438-2.46-2.448-2.555-.177-.5-.145-.89.065-1.226.567-.903 2.288-1.118 2.306-1.118 4.79-.164 6.752-3.148 6.832-3.275.846-1.839 1.665-2.24 1.665-2.24.905-.327 1.498-.814 1.736-1.483.352-.885-.113-1.708-.136-1.75l-.027-.052-.057-.041c-.746-.54-1.557-.741-2.375-.564m.125.59c.628-.144 1.242 0 1.83.422.053.084.16.342.16.711a1.6 1.6 0 0 1-.074.482c-.19.497-.652.857-1.41 1.128-.056.019-1.024.463-1.96 2.503 0 0-1.876 2.817-6.364 2.971-.093.014-2.039.244-2.754 1.39-.32.506-.362 1.067-.151 1.708 0-.019.445 2.569 2.928 2.999l-.065-.018c.034.008 3.225 1.398 4.68 4.234.093.22 2.675 5.623 6.338 6.826.019.01.909.271 1.16.871.113.318.048.697-.213 1.095-.02.051-.98 1.404-2.99.022l-.641-.355c-.033-.014-3.078-1.699-5.254-6.363-.023-.083-.979-2.634-5.25-4.698-.206-.06-4.271-1.507-3.64-6.077.023-.076.894-2.85 4.885-3.173.216-.019 4.656-.608 5.48-3.748l-.023.075c.013-.033 1.472-2.612 3.328-3.004"/><path d="M154.565 160.676c-.846 2.507-.87 4.342-.093 5.475a2.55 2.55 0 0 0 1.895 1.047c1.496.094 2.11-1.38 2.212-2.162-.042-.472-.126-1.028-.547-1.15-.421-.112-.8.393-.902.542-.084.145-.362.286-.52.332-.33.047-.59-.019-.726-.177-.312-.355-.187-1.147-.131-1.423.205-.575.528-.968.996-1.175.945-.407 2.166.183 2.19.183 2.761 2.027.958 4.786.878 4.9-1.745 3.045-5.46 1.412-5.62 1.361-3.062-1.41-2.255-6.321-2.24-6.364a.316.316 0 0 0-.257-.346.284.284 0 0 0-.332.243c-.057.23-.899 5.414 2.578 7.014.042.008 4.356 1.917 6.378-1.59.013-.02 2.194-3.343-1.092-5.723-.107-.047-1.507-.735-2.718-.23-.62.268-1.076.783-1.324 1.564-.041.135-.352 1.323.23 1.979.293.337.756.449 1.328.356.16-.042.669-.22.884-.576a.9.9 0 0 1 .25-.243c.023.052.063.155.083.505 0 0-.249 1.68-1.575 1.577a1.89 1.89 0 0 1-1.424-.8c-.664-.945-.608-2.662.17-4.909a.303.303 0 0 0-.178-.387c-.174-.052-.337.027-.393.177m-8.201 13.503c-.023.127-.486 2.864.575 4.193.366.463.856.697 1.446.725.015 0 .97.15 1.516-.473.38-.468.421-1.137.131-2.054-.021-.083-.57-1.375.552-2.072.057-.038.983-.664 2.439.697a.295.295 0 0 0 .43-.014c.103-.117.103-.309-.01-.412-1.853-1.726-3.148-.8-3.204-.757-1.213.757-1.034 2.147-.777 2.78.22.655.211 1.174-.023 1.431-.314.37-.988.276-.988.276-.463-.032-.79-.192-1.042-.496-.884-1.114-.456-3.678-.456-3.696.759-3.013 3.782-2.382 3.898-2.35a.307.307 0 0 0 .38-.223c.032-.156-.084-.314-.235-.356-.043-.001-3.73-.81-4.632 2.801m-6.233-11.551c-.122.04-2.675.86-3.402 3.1-.5 1.554 0 3.37 1.502 5.396l.023.023.041.028c.717.552 2.546 2.222 2.318 3.34-.103.506-.632.884-1.601 1.128-.17.07-1.118.561-1.213 1.338-.057.425.146.833.59 1.202.168.098 2.855 1.46 4.834-.407.06-.08 1.309-1.479 1.179-3.481-.103-1.474-.917-2.868-2.42-4.15-.043-.033-1.595-1.095-1.759-2.508-.075-.655.164-1.273.706-1.885a.297.297 0 0 0 0-.421.304.304 0 0 0-.445.023c-.664.724-.945 1.525-.852 2.358.188 1.675 1.904 2.863 1.98 2.916 1.346 1.14 2.09 2.399 2.18 3.696.127 1.75-.993 3.026-1.015 3.046-1.638 1.54-3.969.364-4.062.313-.201-.178-.328-.375-.328-.575 0-.014 0-.024.01-.042.042-.404.6-.763.823-.861 1.139-.276 1.835-.805 1.98-1.568.019-.098.043-.206.043-.313 0-1.582-2.168-3.304-2.55-3.589q-1.551-2.104-1.55-3.781a3.3 3.3 0 0 1 .159-1.034c.622-1.937 2.97-2.705 2.99-2.719a.32.32 0 0 0 .215-.295c0-.02 0-.05-.015-.083-.048-.154-.217-.247-.36-.195"/><path d="M131.882 165.267a.313.313 0 0 0 .074.42c2.929 2.004 4.885 1.858 4.97 1.858.173-.019.284-.168.27-.341a.303.303 0 0 0-.326-.272c-.005 0-1.849.132-4.568-1.749a.32.32 0 0 0-.42.084m-1.07 2.32c-.085.145-.043.313.102.407s3.738 2.223 7.022 2.564c.16.02.32-.085.329-.257.023-.178-.098-.313-.276-.332-3.14-.314-6.728-2.466-6.77-2.485-.137-.09-.315-.046-.408.103m-4.983-20.924c-.057.09-4.637 8.693-16.736 10.387a.294.294 0 0 0-.244.341c.01.164.168.272.337.253 12.403-1.726 17.124-10.617 17.166-10.706.085-.144.023-.332-.126-.407s-.328-.018-.397.132m4.042-.065c-.065.112-6.962 11.837-21.21 13.428a.297.297 0 0 0-.267.336c.01.155.174.272.328.262 14.575-1.633 21.593-13.606 21.664-13.722a.325.325 0 0 0-.104-.426.316.316 0 0 0-.411.122"/><path d="M118.623 157.05c-.16.023-.268.192-.23.364.238 1.475-.098 2.21-.098 2.218-1.59 3.551-5.76 3.87-5.81 3.87-1.105.22-1.338-.627-1.372-.721 0-.356.104-.673.32-.884.373-.388 1.009-.374 1.009-.374.188-.014 4.01-.276 4.066-2.934a.325.325 0 0 0-.286-.313.31.31 0 0 0-.313.294c-.046 2.106-3.448 2.349-3.467 2.358-.014-.009-.866-.02-1.432.538-.35.338-.504.81-.486 1.39.12.58.716 1.507 2.044 1.244.145-.014 4.538-.327 6.275-4.216.014-.028.421-.87.126-2.577-.02-.168-.178-.272-.346-.257m-12.114-3.926c-.02-.041-.02-.093-.05-.116-2.518-1.787-4.058-.65-4.124-.609-.911.539-1.45 1.137-1.525 1.77-.047.463.173.846.318.968.253.37.646.59 1.114.655 1.553.178 3.532-1.511 3.612-1.582 2.592-1.745 5.048-2.433 7.262-2.007 2.747.525 4.178 2.597 4.188 2.62a.29.29 0 0 0 .411.085c.15-.084.183-.276.089-.42-.065-.085-1.572-2.299-4.566-2.87-2.083-.412-4.347.117-6.729 1.506m-4.18 2.068a1 1 0 0 1-.738-.434.61.61 0 0 1-.182-.534c.046-.285.299-.748 1.268-1.328.074-.052 1.263-.88 3.316.537l-.504.304c-.043.028-1.895 1.6-3.16 1.455"/><path d="M99.266 151.701c-2.7 3.174.49 6.027.534 6.045 2.864 2.152 6.092-.65 6.11-.683 5.525-4.136 8.721-1.202 8.857-1.066a.31.31 0 0 0 .43-.014c.107-.122.107-.309-.01-.412-.042-.047-3.673-3.448-9.657 1.015-.126.14-2.896 2.531-5.361.688-.099-.084-2.747-2.475-.454-5.17.15-.168 3.846-4.202 8.945.304.127.112.314.108.417-.024a.284.284 0 0 0-.019-.416c-5.549-4.921-9.755-.308-9.792-.267"/><path d="M105.161 146.541c-.757.548-1.202 1.643-1.314 3.205a.31.31 0 0 0 .271.332c.17 0 .32-.112.328-.28.108-1.372.463-2.311 1.067-2.761.505-.388 1.02-.286 1.039-.276.234.055.392.15.463.31.177.336.057.864-.01 1.027-.538 2.045.117 3.038.146 3.088a.32.32 0 0 0 .411.075.304.304 0 0 0 .084-.42c0-.024-.523-.833-.06-2.57 0 0 .304-.833-.033-1.478-.159-.319-.464-.54-.875-.632-.033.002-.768-.167-1.517.38m-11.416.548c-.402.444-.412 1.146-.032 2.063l.023.066.029.042c.023 0 1.496 1.646 1.553 4.95 0 .117.042 2.93 1.806 4.108.983.655 2.288.674 3.878.042a.31.31 0 0 0 .169-.393.316.316 0 0 0-.388-.177c-1.394.57-2.508.57-3.318.022-1.497-1.01-1.548-3.58-1.548-3.602-.051-3.327-1.432-5.058-1.661-5.32-.108-.285-.215-.618-.215-.912 0-.192.05-.36.159-.491.398-.44 1.53-.272 1.895-.164 2.747 1.319 2.096 6.233 2.087 6.274-.023.168.094.319.253.351s.328-.094.336-.267c.042-.205.725-5.39-2.466-6.929-.221-.061-1.844-.464-2.56.337m15.146 7.898c0 .028-.01 2.868-.936 5.985-.08.126-2.424 4.487-.15 6.648a.325.325 0 0 0 .435-.014.304.304 0 0 0-.023-.43c-1.928-1.843.262-5.937.285-5.97.992-3.266.997-6.092.997-6.218a.304.304 0 0 0-.608 0m-2.644 1.276c-.159.009-.295.168-.271.323 0 .023.206 2.236-.927 5.03-.038.042-2.414 5.451 1.334 8.202.126.108.318.07.41-.065.109-.127.071-.314-.064-.407-3.346-2.466-1.156-7.45-1.123-7.501 1.188-2.956.978-5.216.968-5.306-.009-.173-.173-.286-.327-.276"/><path d="M103.298 161.985a.29.29 0 0 0-.065.418.29.29 0 0 0 .412.074c.37-.261 1.17-.177 1.455-.116.168.023.313-.06.346-.252.043-.145-.065-.304-.234-.338-.12-.02-1.263-.248-1.914.214m1.222 2.8-.847.065a.297.297 0 0 0-.271.313c.009.169.15.295.318.295l.843-.061a.297.297 0 0 0 .271-.318.3.3 0 0 0-.314-.295"/><path d="m87.475 153.008-.052.041-.042.057c-.004.028-.467.87-.135 1.76.243.65.842 1.16 1.76 1.474-.015 0 .8.398 1.623 2.2.103.168 2.072 3.148 6.887 3.316-.009 0 1.717.211 2.284 1.118.214.337.243.726.075 1.18-.023.14-.403 2.255-2.452 2.611h-.033l-.042.023c-.14.052-3.42 1.474-4.982 4.506-.019.065-2.56 5.414-5.98 6.531-.042.019-1.174.332-1.516 1.222q-.303.736.23 1.632c.01  3.043.476.702 1.379.875.758.155 1.59-.075 2.466-.678l.59-.313c.126-.06 3.25-1.792 5.506-6.644.02-.057.95-2.476 4.974-4.394.019-.01 4.684-1.643 3.986-6.719-.05-.168-1.02-3.327-5.445-3.687-.028 0-4.22-.57-4.946-3.307l-.009-.043-.023-.018c-.057-.132-1.61-2.846-3.716-3.309-.834-.17-1.639.022-2.387.566m2.255.023c1.853.411 3.309 2.966 3.322 3.009l-.037-.071c.832 3.125 5.292 3.729 5.483 3.753 4 .313 4.87 3.092 4.912 3.21.614 4.528-3.452 5.984-3.617 6.026-4.309 2.063-5.268 4.632-5.3 4.734-2.163 4.637-5.217 6.33-5.246 6.345l-.622.332c-2.035 1.39-3.003.042-3.032-.019-.234-.403-.295-.772-.178-1.076.252-.608 1.132-.86 1.146-.885 3.673-1.202 6.247-6.601 6.354-6.82 1.436-2.846 4.641-4.216 4.665-4.235l-.065.019c2.483-.422 2.938-3.033 2.938-3.056q.126-.344.126-.702a1.7 1.7 0 0 0-.276-.94c-.725-1.156-2.662-1.39-2.746-1.4-4.506-.158-6.382-2.98-6.4-3.003-.923-2.008-1.886-2.452-1.933-2.475-.753-.263-1.231-.64-1.409-1.128a1.3 1.3 0 0 1-.098-.482c0-.37.126-.632.169-.692.595-.426 1.195-.58 1.844-.444"/><path d="M93 159.984a.29.29 0 0 0-.19.378c.775 2.266.832 3.958.177 4.918-.548.771-1.38.8-1.423.8-1.334.094-1.59-1.568-1.6-1.652.032-.3.075-.392.094-.435a.74.74 0 0 1 .266.252c.196.35.711.538.82.561.63.104 1.084-.008 1.38-.35.575-.665.271-1.843.243-1.964-.257-.791-.72-1.31-1.337-1.573-1.213-.506-2.616.178-2.667.192-3.336 2.42-1.156 5.736-1.137 5.779 2.011 3.486 6.33 1.58 6.386 1.558 3.476-1.601 2.606-6.784 2.564-6.99a.29.29 0 0 0-.332-.253.297.297 0 0 0-.244.347c0 .051.81 4.96-2.255 6.349-.145.074-3.864 1.698-5.614-1.325-.052-.084-.641-.991-.641-2.147 0-.884.351-1.908 1.568-2.807 0 0 1.202-.543 2.152-.145.454.187.782.59.978 1.192.075.249.2 1.04-.116 1.4-.145.168-.407.223-.776.168-.117-.041-.393-.193-.464-.313-.116-.16-.486-.655-.927-.547-.412.112-.505.668-.543 1.08.131.857.73 2.331 2.237 2.224.028 0 1.146-.024 1.866-1.053q1.193-1.707-.084-5.456a.294.294 0 0 0-.38-.188m3.944 10.868c-.155.042-.248.197-.22.37.042.155.193.263.356.219.126-.022 3.163-.678 3.911 2.358 0 .01.454 2.569-.453 3.687-.252.314-.58.478-1.01.49-.033 0-.706.1-1.029-.27-.225-.262-.234-.79-.014-1.473.262-.59.44-1.98-.8-2.752-.034-.033-1.316-.968-3.173.758a.316.316 0 0 0-.019.427c.127.12.318.12.43.017 1.456-1.37 2.378-.73 2.424-.706 1.128.706.6 2.002.566 2.053q-.433 1.403.136 2.069c.543.626 1.502.481 1.553.481a1.94 1.94 0 0 0 1.409-.716c1.052-1.328.59-4.066.57-4.174-.908-3.637-4.594-2.838-4.637-2.838m10.504-8.543c-.014.032-.014.06-.014.094a.3.3 0 0 0 .21.285c.023.01 2.372.772 3 2.719.098.323.164.66.164 1.02 0 1.127-.53 2.395-1.558 3.79-.37.299-2.541 2.02-2.541 3.592 0 .108.014.202.033.31q.24 1.129 2.045 1.586c.154.09.71.454.767.842v.057c0 .188-.127.387-.388.608-.033.015-2.358 1.18-4.024-.389 0 0-1.119-1.254-.992-3.003q.142-1.972 2.212-3.725c.038-.033 1.77-1.224 1.96-2.91.095-.818-.192-1.62-.865-2.349a.313.313 0 0 0-.43-.028.32.32 0 0 0-.023.432c.547.598.79 1.23.715 1.88-.158 1.418-1.716 2.478-1.726 2.49-1.534 1.304-2.349 2.694-2.442 4.183-.14 2.002 1.105 3.395 1.156 3.452 2.002 1.885 4.678.514 4.79.454.502-.403.707-.8.656-1.22-.094-.79-1.053-1.283-1.17-1.33-1.01-.276-1.548-.645-1.651-1.137-.233-1.118 1.6-2.789 2.326-3.35l.032-.023.023-.042c1.503-2.016 2.007-3.832 1.503-5.39-.725-2.232-3.275-3.056-3.388-3.097a.31.31 0 0 0-.38.199"/><path d="M119.801 164.1c-2.76 1.887-8.596 2.538-8.656 2.55-.159.02-.285.156-.267.324s.173.294.327.276c.253-.023 6.046-.675 8.947-2.654.122-.107.163-.298.07-.424a.307.307 0 0 0-.42-.071m4.687.191c-.051.048-4.73 4.848-14.513 5.158a.297.297 0 0 0-.3.304.3.3 0 0 0 .31.299c10.045-.319 14.743-5.141 14.944-5.339.108-.13.108-.322-.01-.422-.14-.13-.318-.12-.43 0"/><path d="M118.698 160.789c-.16.12-2.963 2.166-2.054 4.805.052.159.234.243.374.177.164-.041.244-.219.192-.373-.758-2.223 1.769-4.066 1.801-4.089 4.118-1.998 10.523 2.76 10.583 2.803.128.102.318.06.426-.066.094-.12.062-.312-.066-.42-.276-.208-6.76-5.013-11.256-2.837m.85 3.396a.316.316 0 0 0-.066.422c.108.135.3.168.427.07 3.031-2.251 8.277 1.96 8.328 2.002a.297.297 0 0 0 .421-.042.29.29 0 0 0-.032-.422c-.244-.186-5.675-4.551-9.078-2.03"/><path d="M127.236 162.276a.274.274 0 0 0 .276.312c1.661.108 1.787.998 1.787 1.026l.01.052.022.042a1.44 1.44 0 0 1 0 1.225c-.65 1.525-3.401 2.57-3.42 2.592-1.23.324-3.055 1.352-3.13 1.395a.304.304 0 0 0-.103.412c.07.15.262.192.408.108.013 0 1.824-1.034 3.012-1.353.15-.056 3.032-1.156 3.78-2.915a2.05 2.05 0 0 0 0-1.693l.02.079c-.005-.057-.155-1.45-2.354-1.553a.275.275 0 0 0-.308.271m4.477.52c-.154.052-.252.205-.2.364.359 1.288.251 2.457-.338 3.467-1.37 2.33-4.866 3.168-4.884 3.168a.307.307 0 0 0-.234.36c.042.169.201.275.36.234s3.767-.884 5.278-3.458c.684-1.16.81-2.484.384-3.934-.038-.16-.206-.244-.366-.201m-6.573-2.007a.316.316 0 0 0-.116.416c.065.145.242.196.392.127.02-.014 2.255-1.1 4.262.042.15.083.342.027.412-.108a.297.297 0 0 0-.113-.412c-2.297-1.296-4.73-.113-4.837-.065"/><path d="M120.138 167.544a.285.285 0 0 0-.108.398c.043.088 1.142 1.89 5.498 2.288 0 0 5.216 1.718 5.69 5.236.019.125.135 1.094-.904 1.342-.15.065-1.128.417-1.717-.997-.043-.107-1.17-3.232-4.614-3.771-.066-.009-5.59-.73-6.27-3.425a.295.295 0 0 0-.369-.21.325.325 0 0 0-.22.36c.782 3.074 6.531 3.842 6.771 3.878 3.092.464 4.103 3.262 4.145 3.387.842 2.013 2.442 1.362 2.46 1.347 1.245-.294 1.414-1.44 1.306-2.001-.514-3.893-5.92-5.666-6.153-5.723-4.085-.393-5.095-1.993-5.105-2.008-.082-.143-.274-.199-.41-.1"/><path d="M119.59 171.02c-.126.067-2.854 1.588-3.191 3.58-.126.76.108 1.483.697 2.148l.019.033.033.01c.042.018.875.58 1.779.294.621-.21 1.095-.739 1.422-1.613-.01.023 1.398-2.405 2.76-3.019.145-.083.22-.256.145-.412-.062-.144-.238-.21-.398-.135-1.53.697-2.981 3.21-3.056 3.317-.276.724-.618 1.136-1.067 1.272-.543.192-1.09-.102-1.217-.168-.369-.43-.561-.861-.561-1.324 0-.108.014-.202.032-.3.286-1.702 2.864-3.148 2.887-3.166a.28.28 0 0 0 .145-.253.4.4 0 0 0-.034-.16c-.076-.136-.259-.2-.395-.103"/></g><g fill="#004ea2"><path d="M88.729 80.378c-.257.528-.071 1.16.449 1.422.332.178 34.25 17.643 70.085.158.52-.229.739-.884.486-1.399s-.899-.725-1.409-.477c-34.862 16.984-67.862.047-68.189-.136a1.06 1.06 0 0 0-1.421.431z"/><path d="m88.449 79.938-.538.252-8.006 110.692 1.675-.856c22.538-11.655 44.426-11.214 58.822-8.773 15.628 2.634 26.077 8.113 26.16 8.155l1.688.908-7.692-109.471-.482-.286c-33.167-18.99-71.249-.823-71.628-.62zm70.089 2.199 7.351 104.595c-3.56-1.642-12.576-5.436-25.051-7.537-14.378-2.448-36.073-2.897-58.56 8.169L89.924 81.58c4.51-2.045 38.6-16.283 68.614.557"/><path d="M124.508 45.642c-13.577-.178-14.448 23.132-14.49 24.124 0 4.044-2.223 10.069-2.237 10.121-.205.548.066 1.16.614 1.356a1.067 1.067 0 0 0 1.362-.617c.094-.267 2.367-6.438 2.367-10.831.01-.178.842-22.272 12.417-22.052l.117.009.117-.023c.084-.019 2.353-.398 4.884 1.595 2.676 2.133 6.003 7.341 6.635 20.04 0 .865.201 8.848 2.835 11.603a1.03 1.03 0 0 0 1.484.042c.42-.398.444-1.063.041-1.473-1.76-1.853-2.231-8.01-2.264-10.237-.539-10.93-3.051-18.215-7.51-21.691-3.012-2.339-5.814-2.058-6.371-1.964zm-2.947 7.608c-4.782 4.865-4.203 25.448-4.127 27.773a1.04 1.04 0 0 0 1.095 1.01 1.053 1.053 0 0 0 1.011-1.086c-.216-6.087.008-22.646 3.523-26.221.486-.491.87-.552 1.118-.543.043 0 .805.075 1.741 1.17 1.67 2.002 4.203 7.921 2.223 25.14-.065.58.361 1.108.927 1.16a1.033 1.033 0 0 0 1.169-.917c1.988-17.429-.478-24.279-2.897-26.95-1.515-1.675-2.99-1.694-3.148-1.694-.96-.022-1.845.379-2.635 1.156zM59.15 111.459l-2.372-.514s-.464-1.749.58-2.087c0 0 5.203.454 6.878 2.601 0 0 .412.749.412 2.013l.108 17.569s0 7.981-1.563 8.151c0 0-1.441.351-1.161-4.97l.759-21.148s.341-1.273-1.778-1.498L59.96 134.75s-.412 3.645-1.96 3.58c0 0-1.155-.057-.748-3.762zm10.466.343s-1.914-.174-1.914 1.801l.744 22.346s.065 2.948-1.328 3.131c0 0-1.441.285-1.212-3.233l-.047-22.608s-.299-2.124 1.965-2.934c0 0 5.076-2.667 5.943-.58 0 0 .178 1.493-2.241 1.684l1.717 24.372s.291 2.434-1.142 2.615c0 0-1.165.399-1.567-3.247zm110.885-1.035s.83-.209 1.504-.822c.273-.248.549-.506.711-.806.25-.46.664-1.155 1.214-1.123.529.03.7.796 1.037 1.205.086.105.157.223.253.32.265.266.677.559.882.703.395.278.683.468 1.674.636 0 0 5.581.983 5.525 2.317 0 0 .249 1.581-3.335.782 0 0-4.614-1.095-5.949-2.175q-.203-.151-.406-.006s-2.931 1.699-5.724 2.13c0 0-2.922.782-3.455-.603 0 0-.176-1.095 2.181-1.651l2.854-.6zm7.017 4.913h-7.433a3.43 3.43 0 0 0-3.417 3.439v.164a3.425 3.425 0 0 0 3.417 3.435h7.433a3.42 3.42 0 0 0 3.415-3.435v-.164c0-1.899-1.524-3.439-3.415-3.439m-.735 5.291h-6.073c-.865 0-1.57-.682-1.57-1.539s.706-1.557 1.57-1.557h6.073c.868 0 1.569.697 1.569 1.557s-.701 1.539-1.569 1.539"/><path d="m182.447 122.174.101 15.61s-.101 1.745 1.227 1.745c0 0 1.013.051 1-1.862l.338-15.614z"/><path d="M178.642 137.847s-.061 1.826-1.095 1.591c0 0-1.082.168-.848-2.611 0 0 .764-14.11 7.38-13.203 0 0 6.069-1.02 7.037 14.158 0 0 .178 1.39-.855 1.558 0 0-1.263.253-1.516-1.942 0 0-.904-12.25-4.922-12.362 0 0-3.287-2.058-5.051 12.085z"/></g></svg>