<svg xmlns="http://www.w3.org/2000/svg" width="1333.333" height="1333.333" viewBox="0 0 1000 1000" fill='#01519A'><path d="M477.5.6C437.6 3.2 403.4 8.5 371 17.1c-70.7 19-134.1 52-192 99.9-17.2 14.2-51.2 48.5-65.3 66C49.2 262.6 12.3 352.3 2.3 454c-2.3 23.8-2.3 68.2 0 92 8.9 90.6 39.7 172.9 91.9 245.7 28.2 39.3 69.2 80.9 108.3 109.8 109.3 80.8 246.4 113.8 380 91.5 74.6-12.5 146.1-42.2 207.7-86.1 40.5-29 81.7-69.5 111.3-109.4 50.4-68 83.2-149 93.9-231.7 5.5-42.4 5.5-89.2 0-131.6-10.7-82.7-43.5-163.7-93.9-231.7-22-29.7-57-66.5-84.5-88.8C737.8 49.5 646.8 12 547 2.5 530.9 1 489.5-.2 477.5.6zm70 15.9c135.9 13.2 259.6 83.1 341.9 193.2 54.2 72.5 86.1 156 94.7 248.3 1.7 17.4 1.7 66.6 0 84-8.6 92.2-40.5 175.8-94.7 248.3C812.1 893.7 699 961.4 571.9 980.4c-26.3 3.9-41.5 5-71.9 5-38.5 0-66.5-2.9-102-10.4-114.4-24.3-216.6-90-287.4-184.7-53.3-71.4-85-153.1-94.3-243.4-2.3-22.6-2.3-71.2 0-93.8 15-145.6 90.4-272.6 211.2-355.3C299.6 48.4 384.2 20.1 476 14.6c13-.8 55.9.4 71.5 1.9zm-115 31.6c-1.1.4-3.5.8-5.3.8-3 .1-11.2 4.5-11.2 6 0 .4 1 1.3 2.2 2.1 2.4 1.7 5.1 4.3 8.5 8.4l2.3 2.7-7.5 3.6c-8.9 4.2-11 3.9-10-1.3.6-3.4.5-3.5-1.7-2.9-1.3.4-3.3 1.3-4.5 2.1-2.4 1.5-7.7 8.8-8.7 12-1.3 4.1 3.7 12.4 7.5 12.4 1 0 3.5-2 5.6-4.4 3.3-3.9 15-11.4 25.8-16.6 1.7-.8 4.7-2.5 6.7-3.7 2.1-1.3 4.6-2.3 5.7-2.3s2.3-.5 2.6-1c.9-1.5 3.2-1.2 3.9.5.9 2.4-3.7 6.8-8.5 7.9-4.3 1.1-4.4 1.3-6.5 7.6-3.1 9.5-8.9 17.6-14.7 20.4-3.2 1.7-2.4 6.2 1.9 10.6 1.9 2 3.4 3.9 3.4 4.3 0 1.8-9.6 6.7-13.2 6.7-6.1 0-9.3 4.3-6.8 9.1 1.5 2.7 7.5 2.5 14.6-.7l7.9-3.4c1.1-.5 4-1.1 6.5-1.4a157.16 157.16 0 0 0 10-1.6c3-.6 7.4-1.3 9.8-1.4 5.3-.3 6.4-1.4 6-5.7-.2-2.8-1-3.7-4.1-5.3-3.7-1.8-4.2-1.8-12-.2-9.8 1.9-10 1.9-9 .3.4-.6.6-2.1.5-3.2-.2-1.4.8-2.5 3-3.5 3.7-1.7 7.7-8.5 6.1-10.1-.7-.7-3.3-.5-7.4.5-3.5.8-6.5 1.3-6.7 1.1-.9-.8 7.4-9.6 10.3-10.9 5-2.4 6.8-5 6-8.5-.6-2.9-.5-3.1 2.4-3.1 1.6 0 3.3-.5 3.6-1 .3-.6 3.2-1 6.3-1 6.2 0 12.2-2.7 12.2-5.5 0-.9-2-3.7-4.4-6.3l-4.4-4.7-4.4 1.3c-4.5 1.4-10.7 2.8-17 3.8l-3.7.7 1.1-3c1-2.6.8-3.5-1-6.4-2.6-4.3-7-6.9-9.7-5.8zm123.1 1c-1.4 1.1-2.6 2.6-2.6 3.3s-.9 2.1-2.1 3.2c-2.2 2-4.9 6.6-4.9 8.4s2.7 1.1 5.9-1.5c2.8-2.4 3.4-2.6 10.3-1.9 8.5.7 10.1-.3 9.6-5.8-.3-2.8-1-3.6-4.8-5.5-5.7-2.8-8.1-2.8-11.4-.2zm32.7 15.4c-.7.8-1.3 2.3-1.3 3.4 0 2.1 4.7 6.6 8 7.6 2.4.8 8.4-2.6 10.7-6.1 1.4-2.3 1.4-2.6-.2-4.4-1.5-1.6-3.1-2-8.9-2-4.8.1-7.5.5-8.3 1.5zm-33.5 5.6c-2.8 1.6-2.1 3.6 1.3 4.3 2.9.6 3.1.8 2.5 3.8-.9 4.4-2.2 5.5-4.6 4-1.1-.6-2.9-1.2-4.1-1.2-1.8 0-2-.5-1.7-5.1.2-3.2-.1-5.3-.8-5.6-1.4-.5-5 8.6-5.8 14.4-1.1 7.7-2.4 9.3-7.2 9.3-2.4 0-4.6-.5-4.9-1-.3-.6-1.4-1-2.4-1-2.2 0-5.4 6.7-4.9 10.1.3 2.1.8 2.4 4.7 2.4 5.6 0 6.3 1.7 2.2 5.2-2.3 2.1-3.1 3.6-3.1 6.2v3.5l3-2.9c1.6-1.6 4.1-4.5 5.5-6.6 1.8-2.5 4.5-4.5 8.4-6.3 3.2-1.4 6.3-2.6 6.9-2.6 1.5 0 1.9 3 .9 7.5-1 5-2.5 6.6-3.8 4.2-1.4-2.4-2.9-2.1-2.9.6 0 3 2.9 12.9 4.1 14.2.6.6 1.7.1 3.1-1.3 2.1-2.1 3.8-9.1 5.5-23 .3-2.8 1.2-4.6 2.4-5.3 2.5-1.3 2.5-4.9-.1-5.6s-2.5-1.7.4-4.5c1.3-1.3 2.9-4.2 3.5-6.5.7-2.3 1.6-4.5 2.1-4.8 1.4-.9 1.2-4.9-.2-6.3-1.5-1.5-7.6-1.5-10-.1zM548 89.5c0 4.2-.2 4.5-2.6 4.5-1.4 0-2.4-.3-2.2-.8.2-.4 1-2.4 1.8-4.5 1.9-5 3-4.7 3 .8zm55.5-11.1c-3.4 1.8-6.1 2.1-18.2 2.4-14.7.4-17.3 1.1-15.9 4.8.5 1.3 2.1 1.5 10.8 1 15-.7 27.9-2.1 31.1-3.4 3-1.3 3.5-3.3 1.1-5.6-2-2-3.9-1.9-8.9.8z"/><path d="M429.6 84.7c-.4.4-2.6.7-4.9.8-4.5 0-5.5 1.3-4.3 6.1.6 2.2 1.1 2.5 4.4 2.2 3.2-.3 3.7-.7 4-3.1.2-1.6 1-3.1 1.8-3.4s1.4-1.1 1.4-1.9c0-1.5-1.2-1.8-2.4-.7zM574.5 93c-.4.6-.3 2.5 0 4.2.6 2.5 0 4.6-3 10.5-2.1 4-4.4 7.3-5.2 7.3s-2.7.7-4.3 1.5c-4.1 2.1-3 4.5 2.2 4.5 4.6 0 7.6-2.7 14-12.5 4.3-6.6 5.3-7.5 8.7-7.5 2 0 2.2.3 1.6 2.2-1.4 4.1-1.7 17.9-.5 20.9 1.5 3.5 7.8 9.4 12.6 11.7l3.6 1.7 2.8-3.2c4.9-5.4 5.2-17.3.5-17.3-.7 0-2.2 1.6-3.4 3.5-2.7 4.6-6.2 4.7-10.3.3-2.8-3-3-3.7-2.5-8.6.6-5.5 3.7-12.8 6.4-14.7.8-.6 1.3-2 1.1-3.1-.5-2.6-5.6-2.3-9.6.6l-3.1 2.3-3.9-2.6c-4-2.8-6.7-3.4-7.7-1.7zM301 96.4c-.6.8-2.6 2-4.5 2.6-2.7.9-3.5 1.8-4.5 5.5-1.4 5.1-.9 7.5 1.8 7.5 1.1 0 2.5.6 3.1 1.4 1.4 1.7-.4 5.9-3.8 9-2.5 2.2-2.7 5.8-.6 7.6 1.3 1.1 2.2.6 5.5-3 2.2-2.4 4.2-5.1 4.5-6.1.7-2 8.3-7.7 13.7-10.3 1.9-.9 4.1-2.8 4.8-4.1.7-1.4 1.7-2.5 2.2-2.5.4 0 .8-.9.8-2 0-2.9-2.3-2.5-7 1.5-2.3 1.9-4.6 3.5-5.1 3.5s-.9-2-.9-4.4c0-2.7-.6-5.1-1.6-6-1.9-2-6.8-2.1-8.4-.2zm397.7 9.3c-1.2 1.2-.7 6.8.8 8.7 2 2.6 1.9 9.6-.1 12.4-1.9 2.7-4.3 2.8-9.4.2-5.4-2.7-8.6-2.6-10.6.6-1.6 2.4-1.6 2.8.6 8.1 2.8 6.9 2.2 8.2-5.1 10.5-6.9 2.1-13.2 2.2-17 .2-5.5-2.8-8.3 2.6-3.3 6.5 6.4 5 26.7 5.2 32.5.3 3-2.4 3.1-2.5 4.8-.6 2.1 2.3 4.6 9.5 6.6 19.2 2.9 14.2 9.1 22 20.8 26.2 7.5 2.8 14.2 3.7 15.2 2.1.4-.7-1.7-3.9-5.2-7.6-3.2-3.6-7.4-8.7-9.3-11.4l-5.6-7.7c-1.2-1.6-2.5-4-2.9-5.4s-1.1-3-1.5-3.5c-.5-.6-1.1-2.8-1.5-5s-1.3-5-2.1-6.2-1.4-3.3-1.4-4.7c0-3.4 3.6-4.4 12.1-3.2 7.5 1.1 12.2.1 12.7-2.5s-3.6-6.6-9.3-9.3c-4.4-2-5.5-3-5.5-4.9 0-2.2.3-2.3 7.7-2.3 5.3.1 7.8-.3 8-1.2.3-.6 1.3-1.2 2.2-1.2 2.5 0 5.1-3.2 5.1-6.1 0-5.1-2.5-6.3-16.1-8.2-5.7-.8-12.2-2.2-14.3-3.1-4-1.7-7.8-2.1-8.9-.9zm-434.1 3c-6.3 2.2-6.6 2.8-6.6 11.2-.1 4.7-.6 8.6-1.5 10.1-2.3 4-1.8 5.5 3.9 11.3 4.6 4.7 5.5 6.1 6.1 10.6.4 2.8 1.1 5.3 1.6 5.7 2.5 1.5-1.2 10.8-4.9 12.1-3.5 1.3-5.2 3.6-5.2 7.3 0 7.2 4.8 7.7 9.2 1 3.8-5.6 4.8-5 8.4 4.4 1.1 2.7 3 5.6 4.3 6.5l2.4 1.5-.7-5.9c-2-18-2-17.2.8-20.5 1.4-1.8 2.6-3.6 2.6-4.1 0-1.6 3-.9 3.7.8.4 1 1.5 2.9 2.5 4.2 2.1 2.8 2.4 7.1.5 7.1-.8 0-2.2-.9-3.2-2-2.1-2.3-3.5-2.6-3.5-.6 0 .8 2.2 3.5 4.9 6.1 2.6 2.5 5.4 5.7 6.2 7.1.8 1.6 2 2.4 3.3 2.2 1.7-.2 2.2-1.1 2.4-5.1.2-3.7-.4-6.4-2.9-11.7-1.8-3.9-3.8-7.5-4.5-8.1-.8-.6-1.4-2.2-1.4-3.5 0-1.2-.4-2.6-1-2.9-.5-.3-1-1.4-1-2.4s-1.1-3.9-2.5-6.5-2.5-5.8-2.5-7.2c0-5.7-6.6-14.1-10.1-13-.8.2-2.6.7-4.1 1-2.8.6-4.8 4.6-4.8 9.7 0 3.5-2.6 3.9-5.8.9-2.9-2.7-1.8-4.7 5.2-9.9 9.5-7 12-12.7 7.6-17.1-2.3-2.3-3.9-2.3-9.4-.3zm12.8 29.7c3.5 4.7 3.4 6.6-.4 6.6-3.3 0-3.8 1.6-1.9 5.2 1.7 3.1-.5 4.5-2.5 1.7-2-2.9-2.3-15.5-.3-16.2 2.1-.9 2.4-.8 5.1 2.7zm37.9-18.4c-1.4.6-2.8 2.7-4 6-1.5 4.4-2.4 5.4-5.5 6.7-3.7 1.5-5.3 3.6-4.1 5.5.3.6 1 6.1 1.5 12.2 1.3 16.7 1.8 19.5 3.8 20.6 4.6 2.4 6.4-9.5 3.5-22.5-2-9.1-1.5-12.5 1.9-12.5 3 0 4.6 1.9 9 10.7 4.3 8.7 6.6 10.1 17.5 11 7.4.5 8.3.4 12.5-2.1 7.7-4.5 7.3-8.1-1.9-17.6-6-6.3-7.6-6.5-5.6-.8 1.8 5 1.4 6.5-2 7.7-5.7 2-9.4 1.4-13.4-2.2-4.5-3.9-6.5-8.2-6.5-14.1 0-5.3-1.5-9.6-3.2-9.5-.7 0-2.3.4-3.5.9zm-8.3 30.7c0 6.8-1.6 6.2-2.6-1-.6-3.9-.4-4.7 1-4.7 1.3 0 1.6 1.1 1.6 5.7zm158.2 9.8c-68.5 8.2-128.9 33.8-180.8 76.5-12.6 10.3-37.4 35.5-47.8 48.5-41.5 51.8-67.3 115-73.7 180.5-1.5 16-1.5 50 0 65.5 7.7 77.6 40.5 148.3 94.5 204.3 54.1 56 125.7 91.5 204.6 101.4 13.9 1.7 64.9 1.7 79 0 77.4-9.5 147.1-43.3 201.4-97.6 84.4-84.5 118.2-206 89.7-322.6-24-97.9-92-181.4-183.5-225-32.4-15.4-62.5-24.6-99.6-30.2-17.6-2.6-66.4-3.4-83.8-1.3zm69.7 16.6c73 7 142.6 40.3 195.6 93.4 51.4 51.4 82.8 115.5 92.7 189.5.8 5.9 1.3 20.7 1.3 39s-.5 33.1-1.3 39c-9.9 73.9-41.3 138-92.7 189.6-43.3 43.3-97 73.2-156.4 86.9-25.1 5.8-60.6 9.1-84.1 8-83-4.1-156.2-35.5-213.9-91.9-53.7-52.6-86.1-117.9-95.7-193.1-2.5-19.4-2.5-57.6 0-77 5.8-45.9 20.2-88.1 43.4-127.3 35.1-59.3 92.9-108.8 156.6-134.2 35.6-14.2 65.4-20.7 107.6-23.4 8.1-.5 34.9.3 46.9 1.5zM456.7 269c-.3.8-2.8 13.2-5.6 27.4-2.8 14.3-5.4 26.2-5.8 26.6s-13.2 2.6-28.3 5c-15.1 2.3-28.1 4.6-28.8 5-.7.3 7.6 2.6 18.5 4.9l29 6.3 9.2 2.1 1 5.1c2.2 11.1 6.2 34.9 5.9 35.1-.2.2-14 6.9-30.8 15-16.8 8-30.9 15.1-31.4 15.6-.6.5.1.9 2 .9 5.3 0 25.8 4.8 35.6 8.3 13.9 5 22.2 10 30.4 18.1 12 12.1 14.8 22 12.1 41.9-4.3 31.2-18.6 82.3-47.7 170.2l-15.7 48.2c.2.1 7.9-11.6 17.2-26l40.6-62.7 59.4-92L677 286.5l4.9-7.7 2.2-3.7-14.3 6.8-39.3 18.9L525 351.5l-46.3 22.2c-9.7 4.8-17.9 8.4-18.1 8.2s1.2-8.5 3.2-18.4l3.7-18 8.5-1.6c4.7-.9 17.4-3.1 28.2-4.9l19.5-3.6c-.1-.2-12.8-2.6-28.2-5.4l-28.3-5.5c-.2-.2-2.5-13.1-5.1-28.6-2.7-15.6-5.1-27.7-5.4-26.9zM692 318.6l-42.2 19.7c-2.3 1.3-6.3 6.6-4.1 5.5 8.6-4.4 79.5-36.9 79.8-36.6s-61.4 92.2-137.1 204.2l-138 203.3c-.3-.2.9-4.4 2.5-9.3l42.1-129c0-.4-.6 0-1.4 1.1-1.5 2.2-14.6 25.5-14.6 26 0 .2 1 .5 2.3.7s2.1.9 1.9 1.8c-.2.8-6 17.9-12.9 38l-20.9 60.9c-4.6 13.4-8.1 24.8-7.8 25.2.3.5.9.9 1.4.9.6 0 73.9-107.6 158.5-232.8l72.1-106.5 59.7-88.3c.4-.7.1-1.6-.6-2.1-.8-.6-13.7 4.8-40.7 17.3zm-268.3 34c-30.5 4.8-64.1 14.9-90.2 27.3-46.7 22.2-78.1 54.5-87.6 90.1-3.2 12-3.2 30 0 41.9 1.2 4.7 2.4 8.8 2.7 9.3.3.4 22.6.8 49.6.8h49.1l-.7-4.3c-5.4-37.4-1.6-64.5 13.4-95.2 14.2-29 38.8-53.3 68.1-67.5 9-4.3 8.8-4.5-4.4-2.4zm234.1 76.2-20 29.7c-.3.5.1 4.8.8 9.5 2.3 15.1 1.2 44.7-2.2 55.2-.5 1.7 2.1 1.8 44.4 1.8h45l1.5-3.8c8.5-21.5 6.7-48.4-4.8-71.2-7.5-14.8-22.4-32.3-37.4-43.9l-7.8-6-19.5 28.7zm-240.3 16.6c-9.3 4.3-16 7.9-16 8.7 0 1 2.9 1.7 11 2.5 13.5 1.4 25.9 3.7 38.8 7.1 5.4 1.4 10 2.3 10.2 2.1 2.4-2.4-10.5-6-34.5-9.8-8-1.2-15.4-2.6-16.4-2.9-1.4-.5 1.5-2.2 11.3-6.6 7.2-3.3 13.1-6.5 13.1-7.2s-.3-1.3-.7-1.3c-.5 0-8 3.3-16.8 7.4zm-164.8 87.3c-1.3 2.5-5.9 22.4-5.3 23.1.4.4 45.1.7 99.3.7h98.5l2.7-9.5 3.5-12.3.6-2.7h-99.4l-99.9.7zM577.3 544c-4.4 6.5-7.8 12.2-7.5 12.5.8.8 159.2.6 159.2-.3 0-.4-1.4-5.8-3-12.1-1.7-6.2-3-11.5-3-11.7s-31-.4-68.8-.4h-68.8l-8.1 12zm-295.6 24 4.2 4H327c22.5 0 41-.3 41-.6 0-.4-.9-2.2-2.1-4l-2.1-3.4h-43.1l-43.2.1 4.2 3.9zm336.4-.4c-1.2 1.9-2.1 3.7-2.1 4 0 .2 16.7.4 37 .4h37.1l4.2-4 4.2-3.9-39.2-.1h-39.1l-2.1 3.6zm-371.7 22.6-4.1 12.4c-.5 1.3 138.7 2.6 170.2 1.5l20-.6 3.2-11.5c1.8-6.3 3.3-11.8 3.3-12.3 0-.4-42.5-.7-94.4-.7h-94.4l-3.8 11.2zm303.8-6c-8.6 11.8-13.4 18.9-13.1 19.2.6.6 95.7 1.1 152.6.8l52.1-.2-5.2-12.3-5.3-12.2-88.6-.3-88.6-.2-3.9 5.2zM361 613.6c12.3 5.4 61 16.8 62.9 14.8.5-.5 1.2-1.9 1.5-3.1.6-1.8-.1-2.6-4.1-4.9-2.6-1.5-6.7-4-9-5.6l-4.2-2.8h-25.3c-23.6.1-25.1.2-21.8 1.6zm212 .7c-6.8 4.6-15.6 9.2-24.5 12.9-4.9 2.1-8.2 3.8-7.3 3.8 4 0 31.4-5.2 43.8-8.4 12.9-3.4 32-9.2 32.9-10.2.2-.2-9-.4-20.5-.4-20.2 0-21.1.1-24.4 2.3zM441.3 758.6c-2.9 1.2-5.3 2.4-5.3 2.6s1.2.4 2.8.3h2.7l.3 18.7.2 18.7-2.7 1.5c-2.7 1.5-2.4 1.5 5.7 1.5 6.6 0 7.9-.2 6-1l-3-1.5c-.3-.3-.7-10.1-1-21.9l-.5-21.3-5.2 2.4zm30.2.7c-6.3 6.3-7 16.3-1.6 21.8 3.8 3.8 7.3 4.5 12.3 2.5 2.3-.9 4.4-1.4 4.6-1.1.2.2-.6 2.5-1.9 5.1-3.2 6.8-8.9 12.1-14.1 13.2-4.2 1-4.3 1-.9 1.1 8.1.2 19.4-9.3 22.7-19.1 3.2-9.9.1-21.8-6.6-25.3-1.6-.8-4.8-1.5-7.1-1.5-3.3 0-4.7.6-7.4 3.3zm11.4-.7c3.3 2.3 5.1 7.4 5.1 14.3 0 5.1-.3 6.2-2.2 7.5-3.4 2.4-8.1 2-10.9-1-1.9-2.1-2.4-3.8-2.7-9.7-.4-6.8-.2-7.4 2.3-10 3.2-3.1 5.1-3.4 8.4-1.1zm66.3-.6c-1.8 1.1-4 3.6-4.8 5.5-2 4.9-1.8 5.1 2 1.1 2.8-3 4-3.6 7.4-3.6 3.3 0 4.5.6 6.6 3.1 5.4 6.4 2.2 15.2-10.5 28.3-4.3 4.6-7.9 8.6-7.9 9 0 .3 5.8.6 12.9.6h12.9l1.5-3.8c.8-2 1.4-3.8 1.2-4s-1.4.4-2.8 1.3c-1.9 1.2-4.4 1.5-10.7 1.3l-8.1-.3 7.5-8.3c8.1-9 11.6-15 11.6-20.1 0-9.6-10.4-15.2-18.8-10.1zm-37.2 7-4 8.4c0 .2 1.9.7 4.3 1 12.3 1.9 19.1 14.4 11.8 21.7-3.4 3.3-7.5 3.8-12.2 1.3-3.4-1.7-5.9-1.3-5.9 1 0 3.9 9.7 4.8 16 1.6 2.1-1.1 4.8-3.4 6-5.1 2.8-3.8 3.7-10.8 2-14.9-1.7-4.2-7.2-8.7-12.2-10.1-2.4-.7-4.4-1.4-4.6-1.5s.4-1.6 1.3-3.3c1.5-3 1.8-3.1 8.4-3.1 6.3 0 6.9-.2 7.9-2.5l1.2-2.5h-16l-4 8zM178.8 194c-4.5 4.4-8.6 8-9.2 8-.6-.1-2-1.5-3.1-3.3-2.8-4.4-5.3-4.5-9.4-.2-1.8 2-4.6 4.2-6.2 5.1-2.4 1.2-2.9 2.1-2.9 5.4 0 2.2.7 4.5 1.6 5.4 1.9 2 1.8 2 5.5 0 3.3-1.7 5.9-.6 5.9 2.4 0 3.2-9.3 20.2-12.1 22.3-3.5 2.5-3.8 6.1-.7 8.3 4.7 3.4 9.8 1.2 9.8-4.1 0-1 1.4-4.5 3-7.7 1.7-3.2 3-6.5 3-7.2s1.5-4.6 3.4-8.6c3.5-7.7 13.5-20.2 18-22.5 1.4-.8 2.6-1.8 2.6-2.3 0-.4 1.1-2.2 2.5-3.8 1.8-2.2 2.1-3.2 1.3-4-2.4-2.4-5-1-13 6.8zm665.2 2.5c-.7.8-2.1 1.5-3.1 1.5-1.3 0-2.8 1.9-4.9 5.9-5 10-12.9 13.9-16 8.1-.6-1.1-2.1-2-3.5-2-1.6 0-4-1.9-7.8-6-6.2-6.9-9.2-7.7-12.6-3.4-2.7 3.4-2.7 5.6 0 8 1.1 1 3.7 4.1 5.7 6.9 2 2.7 4.3 5.5 5.1 6.1 1.3 1 1.3 1.5-.2 3.7-2 3-8 4.3-16 3.4-4.2-.5-5.8-1.4-9.4-4.9-3.8-3.8-4.6-4.1-7-3.2-3.8 1.3-3.8 3-.3 9.2 2.5 4.3 4.1 5.7 8.6 7.9 4.3 2 6.2 2.4 9.2 1.8 2-.4 5-.7 6.6-.6 1.5 0 4.1-.6 5.7-1.4 1.5-.8 3.8-1.5 5-1.5 1.9 0 2.1.4 1.6 4.2-1.6 12.8-2.9 33.7-2.1 35.1 1 1.8 8.5 10.7 12.6 14.9 1.4 1.5 3.4 2.8 4.3 2.8 1.4 0 1.6-.7 1.2-4.3-.3-2.3-.7-8.5-.9-13.7s-1-14-1.7-19.5c-1-7.7-1.1-11-.2-14.2 2.3-8.6 6.3-9.2 15.6-2.2 6.7 5.1 9.2 4.9 11.1-.6 1.9-5.4 1.1-8.3-2.9-9.9-11-4.6-10.8-4.5-9.8-6.5.7-1.2 2.6-2.1 5.5-2.5 5.2-.8 8.8-3.4 10.5-7.4 1.1-2.5.9-3.4-.8-6.3-1.2-1.9-2.1-4.2-2.1-5.1s-1.3-2.6-2.9-3.7c-2.5-1.8-3-1.9-4.1-.6zm-658.5 16.2c-4.5 5.5-7.5 11.1-12.3 23.2-2.5 6.1-2 7.6 4.6 12.8 7.2 5.8 10.8 6.7 13 3.3 1.7-2.8 6.4-2.6 10.1.6 3.7 3.1 4 6.6.9 8.9-3.5 2.4-.7 3.6 7.7 3.3l7-.3.3-5c.3-4.8 0-5.4-4-9.7-2.4-2.6-6.5-6.6-9.3-8.9-2.7-2.3-4.8-4.7-4.6-5.3.9-2.8.2-5.9-1.9-8.1-1.8-1.9-2.1-3.1-1.6-6.2l1.2-9.1.6-5.2h-3.5c-3 0-4.1.7-8.2 5.7zm.5 18.5c0 1.3-.5 4-1.1 6.1-1 3.8-1.1 3.8-3 2.1-2.2-2-1.9-5.6.8-8.7 2.2-2.3 3.3-2.1 3.3.5zm30.9-8.2c-4.5 2.4-10.1 8.7-9.7 10.8.2 1.2 1.6 1.8 4.3 2 2.2.2 4.4.8 5 1.3 1 1 7.5 1.2 9.9.3s3.9-6.6 2.6-10c-2.5-6.6-5.8-7.8-12.1-4.4zM192 273.8c-1.4 1.1-3.7 2.2-5 2.4-3.7.5-3.5 3.2.6 7.8 2.8 3.1 4.3 4 6.3 3.8 2.3-.3 2.6-.7 2.4-4.3 0-2.2-.5-5.7-1-7.8l-.8-3.9-2.5 2zm-77.4 29.5c-1 .7-2 3.3-2.4 6.2-.9 6.3-3 6.9-6.8 2-4-5.3-5.6-5.9-9.7-3.5-5.8 3.4-6.3 9.2-1.3 14.4 2.9 3.2 3.9 3.6 8.3 3.6 4.3 0 5.3.4 8.4 3.6 1.8 2 5.7 4.7 8.4 6 2.8 1.3 5.7 2.8 6.5 3.2 3.3 2 11.7 4.6 14.5 4.5 7.5-.3 9.4-1.3 12.9-7.2 8.8-14.7 9.2-17.3 3.3-20.4-3.7-1.9-3.9-1.9-7.2-.1-3.7 2-4.8 4.1-6.1 11.9-.8 4.2-1.3 5.1-3.3 5.3-4.9.7-8.9-.9-14.1-5.7l-5.3-4.9 1.7-5.5c1.8-5.7 1.4-12.5-.8-13.9-1.7-1.2-5-.9-7 .5zm800.9 11.8c-1 1-4.9 3.7-11.7 8.4-2.1 1.4-5.7 3.2-8 4.1a55.77 55.77 0 0 0-6.1 2.5c-2.9 1.6-3.3.2-.9-2.4 3.2-3.4 2.8-5.6-1.5-7.4-4.7-1.9-13.6-1.2-16.4 1.3-3.1 2.8-1.9 5.6 3.6 9.1 2.8 1.8 5.9 4.2 7 5.3 1.2 1.1 2.5 2 3.1 2 .5 0 1.7 1.2 2.6 2.8 2.6 4.3 9.8 12.2 11.3 12.2.7 0 1.8 1.2 2.4 2.7.6 1.6 2.1 4.2 3.2 6 1.8 2.9 1.9 3.6.7 6.8-1.1 3.3-1 4.4 1.5 11.8 3 8.5 8.1 16.7 10.4 16.7s4.4-2.7 5-6.4-2.4-10.2-5.3-11.9c-.8-.4-1.4-1.8-1.4-3 0-2.2.1-2.3 7.3-1.4 3.9.5 9.5.9 12.2.8 3 0 6.9.8 9.8 2 6.4 2.7 8.7 1.5 8.7-4.5 0-3.9-.5-4.8-4.2-8-7-6.1-6.7-5.9-7.8-3.2-.5 1.4-2.2 3.2-3.9 4-3.4 1.8-4.3 1.1-6.4-4.9-.8-2.2-1.9-4.1-2.5-4.3-1.2-.4-4.2 4.8-4.2 7.3 0 2.6-3.7 1.7-6-1.5-2.5-3.5-4-3.9-4-1 0 2.5-2.5 3.6-4.5 2-2.2-1.8-1.8-4.2 1-6.9 1.9-1.7 3.2-2.2 5.3-1.7 9.1 1.9 8.7 1.9 10-.8 1.5-3.4 5-3.4 7.8.1 1.9 2.4 2.5 2.6 5 1.8 2.5-.9 2.9-1.6 3.2-5.6.4-6.3-1.2-7.6-7.3-5.9-4.1 1.1-4.8 1.1-6.5-.5-1.1-1-2-2.6-2-3.7 0-2.2-1.3-2.3-3-.3-.7.8-2.3 1.5-3.5 1.5-3.4 0-4.8 2.2-2.9 4.8 1.4 2 1.4 2.2-.1 2.2-.9 0-1.9-.9-2.2-2-.6-2.2-3.2-2.7-5-.9-.7.7-2.4.6-5.8-.4l-4.8-1.3 3.4-2.1c1.9-1.1 5.7-2.3 8.4-2.6 2.7-.4 5.4-1.2 5.9-1.7.6-.6 1.9-1 3.1-1 2.9 0 5.3-2 6-5.2 1.1-4.3-2.3-4.5-10.3-.7-3.7 1.8-6.8 3.6-7 4.1-.2.4-2 .8-4.1.8-2 0-4.7.7-6 1.7-2.3 1.5-2.5 1.5-3.7-.2-1.2-1.6-1.1-2.2.5-3.9 1.9-2 4.6-3.1 13.6-5.5 5.4-1.4 12.4-8.4 10.9-10.8-1.3-2.1-2.6-2.5-3.9-1.2zm-52.9 24.4c-2.5 1.9-1.6 6.3 2.8 13.5 4.2 6.7 5.4 10.8 3.5 11.4-.8.3-3.5.7-6.1 1.1-4.4.6-4.9.4-6-1.9-.6-1.4-1.7-2.6-2.5-2.6-.7 0-1.3-.9-1.3-2 0-2.7-2.1-7-3.5-7-2.8 0-10.5 12.5-10.5 16.9 0 3.5 9.1 7.5 17.2 7.4 4.7 0 7.1-.5 8.2-1.6 2-2 8.2-4 10.1-3.3.8.3 3.1 3.9 5 8.1 4 8.4 6.2 9.4 9.2 4.3 1.6-2.5 1.5-2.8-2.5-9.5-4.4-7.3-5.2-10.3-2.7-10.3 2.6 0 10.9 4.7 12.3 6.9.7 1.3 2.3 2.1 3.8 2.1 2.6 0 2.7-.1 2-4.8-.4-2.9-1.2-5.1-2.3-5.7-1-.6-4.2-3.5-7.1-6.5-3.8-3.9-5.4-6.4-5.8-9.2-.8-4.6-2.7-6.6-4.9-4.8-2.6 2.1-1.8 7.3 1.5 10.5 1.7 1.6 3 3.2 3 3.6 0 .7-11.8 2.4-12.5 1.7-.2-.2-1.2-3.5-2.2-7.3-1.7-6.5-4.7-12.5-6.2-12.5-.3 0-1.4.7-2.5 1.5zm-771.8 5.6c-2.7 1.5-6.8 9.2-6.8 12.7 0 4 2 5.9 7.2 6.7 4.7.8 7.8 2.2 9.1 3.9.4.6.5 4.1.1 7.7-.4 5.2-.3 6.8 1 7.8 2.4 2 6.1.5 9.6-3.9 3.6-4.5 5.4-4.9 10.7-1.9 5.5 3 5.9 3.6 7.2 11.6 1.1 6.1 1 7.5-.2 9.5-2 3.1-.6 7.3 2.3 6.5 1.1-.3 3.4 0 5.1.6 2.8 1.1 3.3 1 5-1.2 1-1.3 1.9-3.4 1.9-4.7 0-3-3.3-15.6-5.4-20.6-.9-2.1-1.6-5.2-1.6-7-.1-2.1-1-4.4-2.5-6.1-2.4-2.7-17.9-13.7-19.4-13.7-.4 0-2-1.3-3.6-3-1.5-1.6-4.3-3.6-6-4.5-3.7-1.7-11.1-2-13.7-.4zm796 265.5c-.3 1-.9 2.8-1.4 3.8-.6 1.5-.4 1.8.8 1.4 2-.8 2.7-.2 7.7 6.1 4.8 6.2 4.8 6.2-4.2 8.2-4.3.9-6.4 1-7.6.2-1.5-1-2-.5-3.3 3.7l-1.6 4.9 2.2-1.3c1.1-.8 6.2-2.3 11.1-3.5 8.9-2.2 9.2-2.2 14-.4 3.6 1.3 5.1 2.5 5.5 4.2.4 2 .8 1.6 2.1-2.6 1.6-4.9 1.6-5-.5-4.6-1.2.3-4.3-.4-6.8-1.4-3.8-1.5-5.8-3.3-10.4-9.3-3.1-4.1-6-8.4-6.4-9.4-.7-1.9-.7-1.9-1.2 0zm-764.1 14.7c-.3.8-6.5 3.8-13.7 6.7-10.7 4.2-13.4 4.9-14.6 3.9-1.5-1.2-1.3-.6 4.1 12.9 2 5 6.7 9.2 10.1 9.2 3.2 0 7.4-4.2 7.4-7.4 0-2.5 0-2.5 2.9-.9 2.4 1.4 3.3 1.5 5.8.4 2.9-1.2 5.3-4.6 5.3-7.7 0-1.6-4.3-14.4-5.8-17-.8-1.4-1-1.4-1.5-.1zm4.1 9.9c2.6 6.8-1.5 12.1-8.2 10.4-1.6-.4-3.1-2.1-4.5-5.2-1.2-2.5-2.1-4.8-1.9-4.9 1-1 10.5-4.4 11.8-4.2.8.1 2.1 1.9 2.8 3.9zm-14.7 4c.7 1.7 1.3 4.6 1.3 6.4 0 7-7.2 9.9-11.9 4.8-2.4-2.6-4.2-8-3-9.2.6-.7 10.6-5.1 11.6-5.2.4 0 1.3 1.4 2 3.2zm745.6 40.7c-3.2 6-5.7 11.3-5.7 11.8s1.2 1.5 2.8 2.2c2.2 1 2.5 1 1.5 0-1.7-1.7-1.6-4.4.2-8l1.6-3 12.2 6.5c6.7 3.6 12.4 7.3 12.8 8.3.5 1.5 1 1 2.8-2.4 1.7-3.4 1.8-4.1.6-3.6-1.4.5-21.5-9-25.2-11.9-1.7-1.4 1-6.5 4.3-8 1.8-.8 2.1-1.4 1.2-2-2.6-1.6-3.6-.5-9.1 10.1zm-711.9-.1c-.7 2.5-21.8 15.4-24.5 14.9-2.2-.4-2.2-.4.5 4.2 5.7 10 9.3 15.1 10.5 15 .7-.1 2.3-.5 3.7-.9 2.5-.8 2.5-.8.2-.9-1.3-.1-3.2-.6-4.2-1.1-1.9-1-7-8.8-7-10.7 0-.6 2.5-2.7 5.6-4.8 6.2-4 5.8-4.1 9.3 2.5 1.5 2.7 1.7 4 .9 5.5-1 1.6-.6 1.6 2.8-.5 4.9-3 5.2-3.2 3.4-3-3.1.5-4-.1-6.5-4-1.4-2.2-2.5-4.2-2.5-4.5 0-.8 9.2-6.5 10.6-6.5.6 0 2.4 2.5 4 5.5 2.5 4.7 2.7 5.8 1.6 7.5-1.4 2.3-.5 2.6 2.1.5 1.8-1.3 1.6-1.9-3.8-10.9-3.2-5.3-5.9-9.6-6-9.6s-.5.8-.7 1.8zM825.1 725c-2.5 3.4-2.6 4.1-.7 3.4 1.8-.7 22.9 15 23.6 17.6.4 1.6 1 1.2 3.4-2.2s2.6-3.9 1-3.4c-1.4.4-4.6-1.4-11.4-6.5-5.2-3.8-10.5-8.1-11.6-9.4l-2.2-2.3-2.1 2.8zm-649.4 8.3c-.3.9-5.4 5.2-11.3 9.6-7.9 6-11.3 8-12.7 7.5-1.7-.5-1.6-.1.9 3.1 2.1 2.8 2.9 3.3 3.3 2.2.7-1.9 20.9-17.4 23.3-17.9 1.6-.3 1.6-.6-.5-3.2-1.9-2.4-2.5-2.6-3-1.3zM798 762.4c0 .8-.9 1.7-2 2.1-3.3 1.1-7 6.3-7 10.1 0 7.3 6.2 9.2 17.8 5.3 5.8-2 6.4-2 8.7-.5 3.6 2.4 3.4 6.7-.6 10-3.2 2.8-6.7 3.3-10.2 1.5-1.5-.7-1.2-.1 1.1 2.1l3.3 3.1 4.5-3.7c2.5-2.1 4.9-4.5 5.5-5.5 1.6-3.1 1.1-8.7-1.1-10.9-3-3-6.6-2.9-14.8.1-8.7 3.2-12.2 2.2-12.2-3.2 0-4 4.4-7.2 9.2-6.7l3.7.3-2.6-2.7c-3.1-3.2-3.3-3.3-3.3-1.4zm-593.6 3.2c.9 3-17.7 22.8-20.7 22-1.5-.3-.9.6 1.9 3.5l4 3.9c.1 0-.1-1-.3-2.3-.3-1.6.8-3.4 4.1-6.7l4.6-4.4 5 4.9c2.8 2.7 5 5.4 5 6s-2 3-4.4 5.4c-3.3 3.2-4.9 4.2-6.3 3.7-1.1-.4-.4.7 1.7 2.9 3.1 3.2 3.6 3.4 4 1.7.3-1 4.5-6.3 9.5-11.6 7.4-8 9.4-9.7 11.3-9.3 2.1.4 2 .1-1.4-3.4-4.3-4.4-4.8-4.6-4-2.2.3 1.2-1.1 3.6-3.9 6.8l-4.4 5-5.6-5.5-5.5-5.5 3.2-3.9c1.7-2.1 4.4-4.4 6-5l2.8-1.2-3.6-3.5c-2.9-2.7-3.5-3-3-1.3zm546.5 43.5c-5.7 4.8-6 5.3-4.1 6.3 1.1.6 5.8 5.6 10.6 11.1 6.6 7.6 8.4 10.4 8 12-.5 1.5.2 1.2 3-1.4 3.7-3.6 4.1-4.2 2.9-4-2.1.3-3.2-.4-6.7-4.7-3.3-3.9-3.6-4.8-2.5-6 1.2-1.1 2.8-1 10.7.8l9.3 2.2 2.4-2.5 2.4-2.4-5.7-.1c-8.1 0-14.6-2-13.7-4.2 1.7-4.5 1.6-6.8-.5-9.5-1.7-2.1-3-2.7-6-2.7-3.2 0-5 .9-10.1 5.1zm11.6.4c3.2 3.1 3.2 6.6.1 10.2l-2.5 2.8-3.6-3.5c-5.8-5.5-6.2-7-3.1-9.7 3.5-3 6.1-2.9 9.1.2zm-515 16.7c-7.1 4.5-14.2 8.4-15.7 8.7l-2.7.6 3.3 2.1 3.2 2.2v-2.1c-.1-1.5 1.1-2.8 3.5-4.1l3.7-2 5.1 3.5c2.8 1.8 5.1 3.8 5.1 4.4 0 3.1-2.3 8.4-3.8 8.7-1.2.2-.4 1.3 3.1 3.6 4.4 3.1 4.6 3.1 3.6.9-.9-2.1 1.2-14.3 5.8-32.5.3-1.2.1-2.2-.3-2.1-.5 0-6.7 3.7-13.9 8.1zm9.2-2c-.2.7-1 3.9-1.7 7-.7 3.2-1.6 5.8-1.9 5.8-1.2-.1-7.8-5.5-7.8-6.5s9.4-7.3 11.1-7.4c.4-.1.6.5.3 1.1zm448.6 16.7c-8 5-8.9 5.9-7.3 6.9 2.8 1.7 15.3 23 14.7 25.1-.3 1.3 2 .3 8.6-3.8 4.9-3.1 9.2-6.2 9.5-6.9.2-.7 0-2.7-.6-4.5l-1-3.2-.1 3.7c-.1 3.3-.7 4.2-4.8 7.3-2.7 1.9-5.5 3.4-6.3 3.2-.8-.1-3-2.7-4.8-5.7l-3.3-5.5 2.8-2.3c3.7-3 6.9-3.7 9-2.1 1.1 1 .9 0-.8-2.8-2.2-3.8-2.5-4-2.9-2-.3 1.2-2.4 3.4-4.5 4.9-4.5 3-4.7 2.9-8.9-4.3l-2.6-4.5 5.3-3.2c5.8-3.5 7.6-3.9 9.6-2 1.1 1.1 1.1.9.2-.9-.6-1.2-1.5-2.4-1.9-2.7-.4-.2-4.8 2.1-9.9 5.3zm-403.8 5.5c1.5 2.3 1.4 2.9-4.4 14.4-3.8 7.6-6.7 12.2-7.8 12.4-1.4.3-1.1.8 1.4 2.1 2.9 1.5 3.2 1.5 2.6.1-.5-1.5 8.5-22.2 9.8-22.4.3 0 2 6.9 3.9 15.2 1.8 8.4 3.6 15.9 3.9 16.6.4.7 3.5-4.4 7.4-12.7 4-8.2 7.4-14.1 8.4-14.3s.3-.9-2.1-2c-3.5-1.7-3.6-1.7-2.4.2 1.1 1.7.6 3.3-3.5 11.6-2.6 5.3-5 9.4-5.3 9.1s-2-7.1-3.8-15.2c-2.8-12.9-3.5-14.9-5.7-16.1-3.5-2-4.1-1.7-2.4 1zm362 18.4c-3.4 1.6-3.7 1.9-1.9 2.4 2 .5 2.2 1.5 2.9 12.2.4 6.5.4 12 .1 12.3s-4.4-2.9-9.2-7.2c-6.9-6.3-8.5-8.3-8.1-10.1.4-2.2.3-2.3-2.9-.9-1.9.8-4.2 1.9-5.1 2.4-1.7 1-1.6 1 .2 1.1 1.2 0 7.2 4.9 14.3 11.6 6.7 6.4 12.2 11.2 12.2 10.7.1-.4.1-7.9 0-16.5-.1-9.5.3-16.6 1-17.8 1.3-2.4 1.5-2.4-3.5-.2zM364 877.1c-3.2 1.3-7.8 5.6-9.6 9.1s-1.8 11.1.1 14.8c2.9 5.7 12.4 10.6 18.9 9.8 2.4-.3 3.1-1.1 5-6 1.1-3.1 2.7-6.3 3.3-6.9 1-1 .7-1.6-1.8-2.6-4.1-1.7-5-1.6-4.2.3.3.8-.2 4.2-1.2 7.5-1.8 5.9-1.8 5.9-5.6 5.9-7.3 0-12.8-8.1-11.2-16.4.9-4.7 3.9-10.2 6.9-12.5 5.4-4.3 15.8-1.3 17.1 4.9.5 2.9 2.3 4.2 2.3 1.7 0-.6.3-2.3.7-3.6.4-1.8.3-2.2-.6-1.7-.7.5-2 .1-2.9-.8-4.4-3.9-12.1-5.5-17.2-3.5zm235.2 11.2c-3.8 1.1-4 1.3-2.4 2.4 1.4.8 2.9 4.9 5.2 14.2 2.8 11.2 3 13.4 1.9 14.8-1.2 1.4-1.1 1.5.6 1l4.8-1.3c2.3-.5 2.5-.8 1.3-1.8-1.4-1.1-7.6-23.4-7.6-27.5 0-1 .6-2.2 1.3-2.4 2.1-.9-.7-.5-5.1.6zm-42.7 5.7c-2.2.4-3.2.8-2.2.9 2.5.2 3.4 3.3 4.2 14.2l.7 9.4-11.3-11.2c-11.3-11.1-11.4-11.2-14.9-10.3-1.9.4-2.7.8-1.8.9 3.1.2 4.5 4.3 5.8 16.4 1 9.3 1 12 0 13.2-1.1 1.3-.8 1.5 1.4 1.5 2.4 0 2.6-.3 2-2.2-.8-2.7-3.2-22.2-2.8-22.7.2-.2 5.6 4.6 12.1 10.7s11.9 10.9 12.1 10.7-.4-6.9-1.3-15c-1.3-11.4-1.4-14.9-.5-16 .7-.8 1.1-1.4.9-1.4-.2.1-2.2.5-4.4.9zm-87.7 4.1c.8.9 1.2 5 1.2 13.1 0 6.9.5 12.8 1.2 14.3 3.2 7.2 18.1 7.3 21.9.3.7-1.2 1.4-7.3 1.7-13.6.3-7.9.9-11.8 1.9-12.8 1.3-1.2.9-1.4-2.4-1.4-2.5 0-3.3.3-2.5.9 1.1.6 1.3 3.6 1 13.1-.3 11.9-.4 12.2-3.1 14.6-3.7 3.2-10.5 3.3-13.3.3-1.6-1.7-2-4-2.2-12.5-.2-5.7.1-11.8.7-13.4.9-2.8.8-3-1.4-3a17.71 17.71 0 0 1-4.2-.6c-1.5-.6-1.6-.4-.5.7z"/></svg>