<svg xmlns="http://www.w3.org/2000/svg" width="336" height="336" viewBox="0 0 252 252"><g fill="#039"><path d="m67.793 193.75 10.75-11.148c25.379 19.133 55.219 21.094 79.078 10.035l-4.859-10.883 7-3.125 4.863 10.258c21.855-13.156 37.109-38.09 36.441-70.914l14.719-1.383c4.68 89.113-94.113 125.598-147.992 77.16zm-40.051-64.27.09 2.539h139.961l-16.949-34.254c-.805-1.695-1.605-3.789-1.027-4.234s.98.043 1.605.398c4.73 2.813 9.637 11.063 9.949 11.598l4.594 7.852 8.785-3.926a58.45 58.45 0 0 0-9.145-15.566 54.595 54.595 0 0 0-8.52-8.34.67.67 0 0 1-.234-.48.66.66 0 0 1 .191-.5l2.586-2.453a.577.577 0 0 1 .414-.207.59.59 0 0 1 .434.16 63.31 63.31 0 0 1 11.152 11.105 64.31 64.31 0 0 1 8.293 13.738l10.395-5.309a69.517 69.517 0 0 0-9.055-16.324 67.66 67.66 0 0 0-13.516-13.559c-.148-.113-.242-.285-.258-.469s.043-.371.168-.512c1.16-1.293 1.918-2.496 2.902-3.746a.713.713 0 0 1 .98-.133c4.684 4.102 10.793 9.855 16.145 17.793a92.086 92.086 0 0 1 11.73 24.754l14.762-3.746c-1.246-4.906-11.773-44.734-51.113-62.039-31.488-13.828-69.086-7.762-96.473 15.477 5.129 1.293 31.98 8.34 41.078 31.043 1.563 3.836 6.422 15.969.582 24.707s-20.027 9.504-25.824 9.191-17.797-6.379-27.477-5.578c-12.043 1.785-12.621 7.809-22.656 11.02a30.51 30.51 0 0 1-4.551 0zm125.957 35.723-7.004 3.168 3.168 6.957 6.957-3.121zm-4.73-10.523-7 3.121 3.164 7.004 6.961-3.125zm-4.949-10.973-6.957 3.168 3.121 6.957 6.957-3.121zm-87.821 58.207c1.113-.137 2.094.266 3.301 1.336l2.629 2.32-13.512 15.387-2.633-2.32c-1.203-1.023-1.695-1.918-1.695-3.078s.492-2.184 1.875-3.789 1.918-1.918 3.344-2.051a3.02 3.02 0 0 1 1.473.223 2.92 2.92 0 0 1-.492-1.516c-.043-1.562.848-2.812 1.828-3.883 1.652-1.918 2.676-2.496 3.883-2.629zm-9.234 15.563 1.473 1.25 4.996-5.707-1.43-1.25c-1.336-1.16-2.762-1.027-4.594 1.07s-1.738 3.48-.445 4.637zm6.023-6.824 1.426 1.25 5.484-6.289-1.426-1.246c-1.383-1.207-2.766-1.25-4.949 1.203s-1.965 3.836-.535 5.082zm.621-12.887L38.492 211.59l-4.551-5.039 1.117-1.027 3.477 3.836 5.887-5.352-3.031-3.301 1.113-1.023 3.035 3.301 5.887-5.398-3.523-3.836 1.16-1.027zm-6.598-7.629L30.82 202.715l-.98-1.293 16.145-12.578zm-6.559-7.582c1.07.242 2 .902 2.586 1.828a3.73 3.73 0 0 1 .535 3.391l-1.605-.355a2.274 2.274 0 0 0-.176-2.187c-.758-1.16-2.277-1.473-3.969-.355l-13.426 8.875-.895-1.34 13.426-8.875c1.203-.801 2.41-1.16 3.523-.98zm-1.738-4.684-17.84 10.035-.805-1.383 17.887-10.035zm-5.574-11.285-12.355 11.555 14.586-6.559.668 1.473-18.687 8.43-.672-1.516 12.355-11.508-14.586 6.555-.668-1.469 18.688-8.387zm-2.988-8.875a3.57 3.57 0 0 1-.27 3.121c-.937 1.609-2.406 2.23-8.43 4.105s-7.539 2.273-9.23 1.516a4.192 4.192 0 0 1-1.832-5.441 5.49 5.49 0 0 1 3.258-2.32l.492 1.52c-1.562.535-3.078 1.469-2.5 3.387a2.05 2.05 0 0 0 1.25 1.383c1.203.492 2.363.27 8.07-1.559s6.824-2.32 7.586-3.391a2.2 2.2 0 0 0 .176-1.875c-.445-1.293-1.828-1.961-3.656-1.383l-4.816 1.52.711 2.316-1.336.449-1.25-3.883 6.199-1.918c2.902-.937 4.953.402 5.578 2.453zm-5.219-18.105a3.977 3.977 0 0 1 1.605 2.676 3.875 3.875 0 0 1-.715 3.031 4.73 4.73 0 0 1-3.078 1.695L6.69 149.504l-.223-1.605 16.188-2.543c1.695-.266 2.59-1.516 2.41-2.852s-1.426-2.187-3.168-1.918L5.71 143.129l-.27-1.609 16.06-2.54a4.68 4.68 0 0 1 3.434.625zm.09-11.465L9.32 134.387l15.969-.805.09 1.605-20.473 1.027-.09-1.652 15.699-6.199-15.965.805-.09-1.605 20.473-1.027zm.043-4.949-20.516-.625v-1.605l20.516.625zm.535-8.965-.133 1.605-20.785 2.141.133-1.785 17.707-1.473-17.082-4.859.18-1.785zm.758-5.711-20.16-3.836 1.293-6.691 1.516.313-.98 5.086 7.805 1.473.805-4.371 1.516.266-.848 4.371 7.852 1.52.98-5.086 1.473.266zm4.461-17.75h-9.633l-.762 2.406 8.789 2.723-.492 1.516-19.535-6.156 1.117-3.656c.711-2.273 2.141-3.746 6.687-2.32 3.035.938 4.238 2.188 4.371 3.883h9.945zM11.773 88l-.668 2.184L19 92.637l.668-2.141c.582-1.871-.621-2.898-3.164-3.656s-4.105-.715-4.73 1.16zm23.105-9.367c.355.891.313 1.961-.27 3.258a4.14 4.14 0 0 1-2.273 2.316c-1.203.402-2.23.223-4.281-.711l.668-1.473c1.43.668 2.277.848 3.078.578a2.77 2.77 0 0 0 1.563-3.344c-.402-.891-1.16-1.383-2.59-2.051-2.363-1.07-3.344-1.117-4.68.086l-1.695 1.52c-1.605 1.469-2.945 1.516-5.754.223-1.562-.758-2.676-1.742-3.125-2.945a4.376 4.376 0 0 1 2.453-5.219c1.34-.445 2.5-.176 4.105.582l-.668 1.473c-1.16-.535-2.008-.762-2.855-.492a2.054 2.054 0 0 0-1.426 1.293 2.234 2.234 0 0 0-.137 1.828c.313.805 1.16 1.473 2.32 2.008 2.141.98 2.898.938 4.371-.355l1.648-1.52c1.695-1.516 3.348-1.246 6.023 0 1.961.895 3.078 1.785 3.523 2.945zm3.301-4.148L20.426 64.27l.805-1.426 17.797 10.215zm-10.305-19.09L43.44 66.188l-.937 1.34-15.562-10.84-1.875 2.723-1.25-.895 4.641-6.687 1.246.891zm15.121-2.496 6.512 5.574-1.07 1.25-6.512-5.621-11.238-5.172 1.156-1.34 8.699 4.281-5.531-7.984 1.203-1.383zm20.828-9.012a3.57 3.57 0 0 1-1.559 2.766 3.654 3.654 0 0 1-3.035.848c-1.785-.312-2.898-1.473-6.777-6.422s-4.773-6.289-4.641-8.117a3.745 3.745 0 0 1 1.516-2.766 3.846 3.846 0 0 1 3.035-.848c1.828.313 2.941 1.473 6.824 6.422s4.77 6.289 4.637 8.117zM52.094 30.91a2.146 2.146 0 0 0-1.828.488 2.1 2.1 0 0 0-.891 1.652c0 1.293.625 2.32 4.324 7.047s4.551 5.531 5.801 5.844a2.095 2.095 0 0 0 1.828-.492c.535-.387.879-.988.938-1.648 0-1.297-.625-2.32-4.328-7.051s-4.594-5.527-5.844-5.84zm7.672-5.977 4.191 6.777 3.793-2.363.805 1.293-3.793 2.363 4.996 8.074-1.383.848-10.793-17.437 5.797-3.57.805 1.293zm23.641-.937-2.098.848 3.344 8.43-1.469.578-7.582-19.043 3.609-1.43c2.145-.848 4.238-.711 6.023 3.75s.715 5.887-1.828 6.867zm-3.613-9.187-2.098.801 3.078 7.805 2.098-.844c1.828-.715 1.828-2.32.848-4.82s-2.098-3.656-3.926-2.941zm20.875 12.176A4.2 4.2 0 0 1 95 28.5c-1.516-1.023-2.094-2.543-3.746-8.562s-1.918-7.672-1.07-9.324a3.65 3.65 0 0 1 2.5-1.914 3.56 3.56 0 0 1 3.121.398c1.563.98 2.098 2.543 3.746 8.566s1.918 7.668 1.117 9.32zm-5.711-16.547a2.15 2.15 0 0 0-1.918-.27 2.24 2.24 0 0 0-1.473 1.16c-.488 1.203-.312 2.363 1.25 8.164s2.008 6.91 3.078 7.672a1.96 1.96 0 0 0 1.828.266 2.09 2.09 0 0 0 1.516-1.16c.492-1.203.313-2.363-1.25-8.16s-2.004-6.914-3.031-7.672zm17.484 14.359c-.535.805-1.426 1.34-2.809 1.563s-2.367.043-3.215-.578-1.426-1.742-1.828-3.973l1.605-.266c.27 1.563.582 2.363 1.25 2.898a2.46 2.46 0 0 0 1.918.402c.891-.18 1.426-.492 1.738-.98s.492-1.742.223-3.301c-.398-2.543-.934-3.391-2.676-3.836l-2.23-.535c-2.094-.535-2.852-1.605-3.344-4.641-.312-1.738-.09-3.211.668-4.234a3.76 3.76 0 0 1 2.633-1.52 3.76 3.76 0 0 1 3.078.625c1.113.848 1.516 1.965 1.785 3.703l-1.605.266c-.18-1.246-.492-2.051-1.16-2.629a2.143 2.143 0 0 0-1.875-.445 2.31 2.31 0 0 0-1.605.891c-.492.758-.535 1.785-.355 3.031.402 2.367.848 2.988 2.719 3.438l2.188.578c2.23.535 2.898 2.051 3.391 4.949.355 2.141.223 3.523-.492 4.594zm7.27-18.863 1.473 18.91-1.605.09-1.473-18.914-3.258.27-.133-1.516 8.117-.625.137 1.516zm15.609 17.57c-.621.715-1.605 1.117-3.031 1.117s-2.363-.312-3.078-1.07-1.16-1.965-1.16-4.195h1.605c.047 1.563.18 2.41.805 3.035a2.353 2.353 0 0 0 1.828.668 2.5 2.5 0 0 0 1.875-.668c.621-.715.758-1.605.758-3.258 0-2.539-.402-3.477-2.098-4.191l-2.051-.891c-2.008-.848-2.59-2.008-2.59-5.086-.043-1.785.402-3.168 1.297-4.059a3.868 3.868 0 0 1 2.852-1.113 3.914 3.914 0 0 1 2.945 1.113c.98.98 1.203 2.184 1.203 3.969h-1.648c0-1.293-.133-2.141-.715-2.809a2.325 2.325 0 0 0-1.785-.758 2.13 2.13 0 0 0-1.695.668c-.621.625-.844 1.695-.844 2.945 0 2.363.309 3.031 2.094 3.836l2.098.891c2.141.848 2.543 2.496 2.543 5.441 0 2.141-.312 3.523-1.207 4.414zm18.645 4.773.313-5.707-4.414-1.117-2.363 5.176-1.695-.402 9.23-18.824 1.473.402-.891 20.918zm1.027-17.707-4.418 9.5 3.793.938zm9.32 21.23.355-16.902-5.441 15.031-1.559-.582 7-19.223 1.52.535-.312 16.859 5.441-15.031 1.516.578-7.004 19.27zm11.82 4.105a3.87 3.87 0 0 1-3.121-.227l-3.57-1.781 9.098-18.379 3.57 1.785a3.85 3.85 0 0 1 2.098 2.363c.488 1.742-.047 3.168-2.812 8.742s-3.566 6.824-5.262 7.496zm6.512-15.836a2.363 2.363 0 0 0-1.25-1.426l-2.094-1.027-7.762 15.609 2.094 1.027a2.28 2.28 0 0 0 1.918.133c1.16-.488 1.785-1.469 4.418-6.734s2.988-6.332 2.676-7.582zm15.746 8.832-11.02 15.434-1.293-.937 11.016-15.434-2.676-1.918.895-1.203 6.645 4.727-.891 1.203zm-5.266 19.891 13.738-15.254 5.039 4.551-1.023 1.16-3.836-3.48-5.355 5.887 3.348 2.988-1.027 1.16-3.301-2.988-5.352 5.934 3.836 3.434-1.027 1.16zm8.297 7.895 15.387-13.512 1.07 1.203-14.227 12.531 3.434 3.883-1.16 1.023zm6.957 8.297L225.195 53.3l3.879 5.574-1.25.848-2.988-4.238-6.512 4.551 2.59 3.656-1.297.891-2.539-3.699-6.512 4.547 2.941 4.281-1.246.848zm10.035 15.031a4.054 4.054 0 0 1-2.406-5.039c.621-1.742 2.004-2.586 7.535-5.531s7.047-3.57 8.832-3.121a3.79 3.79 0 0 1 2.453 2.004 3.62 3.62 0 0 1 .313 2.988c-.402 1.16-1.426 2.145-2.766 2.902l-.758-1.43c.891-.488 1.695-1.113 2.008-1.961.223-.59.156-1.25-.18-1.785a1.92 1.92 0 0 0-1.426-1.16c-1.293-.266-2.41.18-7.719 2.988s-6.289 3.48-6.824 4.641a2.134 2.134 0 0 0 .137 1.871 1.99 1.99 0 0 0 1.426 1.16c.848.223 1.828-.09 2.723-.578l.758 1.426c-1.473.758-2.902 1.07-4.105.625zm4.551 10.168a3.71 3.71 0 0 1-2.187-2.273 3.614 3.614 0 0 1 .047-3.121c.848-1.652 2.273-2.41 8.117-4.684s7.402-2.766 9.145-2.098a3.715 3.715 0 0 1 2.184 2.23 3.98 3.98 0 0 1-.043 3.211c-.848 1.652-2.32 2.363-8.164 4.641s-7.359 2.766-9.098 2.094zm15.832-7.449a2.17 2.17 0 0 0 .047-1.914 2.1 2.1 0 0 0-1.34-1.34c-1.203-.355-2.363-.09-7.984 2.141s-6.645 2.766-7.27 3.836a2.19 2.19 0 0 0-.09 1.918 2.334 2.334 0 0 0 1.34 1.34c1.25.355 2.406.086 7.984-2.145s6.645-2.762 7.313-3.836zm-13.336 19.449 15.969-4.195h-11.195l-.27-.934 9.414-5.398-15.613 4.148-.312-1.25 19.805-5.219.355 1.25-10.836 6.246 12.488.133.355 1.25-19.801 5.215zm2.008 11.82 16.324-2.32-11.105-1.293-.133-.937 9.988-4.238-16.012 2.277-.176-1.297 20.293-2.898.18 1.293-11.465 4.953 12.398 1.605.18 1.246-20.293 2.902zm1.563 11.148a3.83 3.83 0 0 1-1.25-2.855 3.93 3.93 0 0 1 1.07-2.898 4.784 4.784 0 0 1 3.258-1.293l16.234-.445v1.605l-16.371.488c-1.738.047-2.766 1.16-2.719 2.5s1.113 2.406 2.898 2.363l16.367-.492v1.605l-16.145.492a4.59 4.59 0 0 1-3.344-1.07zm-1.52 10.973 16.371-4.191-15.969-1.25.137-1.605 20.426 1.605-.09 1.605-16.367 4.191 15.922 1.207-.133 1.605-20.43-1.562zm-.578 4.551 20.25 3.121-.27 1.605-20.246-3.168zm-1.473 11.059a4.07 4.07 0 0 1-.355-2.855 3.88 3.88 0 0 1 1.828-2.539c1.652-.895 3.258-.672 9.367.711s7.625 1.918 8.695 3.438c.621.898.816 2.02.535 3.074a3.61 3.61 0 0 1-1.695 2.5c-1.023.625-2.496.668-4.012.355l.355-1.562c1.027.227 2.051.27 2.813-.133a2.19 2.19 0 0 0 1.07-1.516 2.1 2.1 0 0 0-.359-1.828c-.801-.98-1.918-1.383-7.758-2.723s-7.051-1.516-8.207-.934a2.044 2.044 0 0 0-1.117 1.516 2.15 2.15 0 0 0 .27 1.785c.535.711 1.469 1.113 2.496 1.336l-.355 1.563c-1.605-.359-2.898-1.07-3.57-2.187zm-4.371 11.242 5.664.711 1.652-4.637-4.953-2.898.625-1.785 17.797 11.195-.535 1.516-20.875-2.363zm17.664 2.316-9.055-5.395-1.383 4.012zm-3.836 13.293-17.172-8.074.758-1.605 17.129 8.117 1.516-3.211 1.383.668-3.746 7.941-1.383-.668zm-19.625-3.344 17.93 9.988-.891 1.516-17.887-9.988zm-5.664 10.969a4.24 4.24 0 0 1 .758-3.301 4.157 4.157 0 0 1 2.766-1.961c1.871-.312 3.301.445 8.52 3.926s6.465 4.504 6.867 6.379a4.23 4.23 0 0 1-.715 3.301 4.408 4.408 0 0 1-2.766 1.961c-1.914.313-3.344-.445-8.562-3.926s-6.465-4.504-6.867-6.379zm15.254 8.652a2.49 2.49 0 0 0 1.648-1.156 2.23 2.23 0 0 0 .402-1.965c-.355-1.293-1.25-2.051-6.242-5.395s-6.066-3.883-7.359-3.746a2.31 2.31 0 0 0-1.652 1.156c-.445.551-.609 1.277-.445 1.965.355 1.293 1.25 2.051 6.242 5.395s6.066 3.883 7.406 3.746zm-22.703-.844 16.012 5.707-12.266-10.258 1.117-1.34 15.742 13.113-1.113 1.383-16.012-5.707 12.266 10.211-1.117 1.34-15.742-13.113zm-6.867 8.34c.043-.98.488-2.008 1.559-3.078s2.098-1.562 3.168-1.562 2.23.535 3.836 2.141l-1.25 1.207c-1.113-1.117-1.828-1.605-2.766-1.562a2.73 2.73 0 0 0-1.871.891c-.715.672-.98 1.293-.937 1.875s.535 1.738 1.648 2.898c1.785 1.828 2.723 2.188 4.551 1.426l2.23-.934c2.141-.895 3.391-.492 5.574 1.695 1.207 1.246 1.875 2.586 1.785 3.922a4.29 4.29 0 0 1-1.426 2.945c-.984.938-2.008 1.426-3.035 1.426s-2.453-.668-3.703-1.961l1.25-1.203c.895.891 1.605 1.383 2.543 1.426a2.496 2.496 0 0 0 1.918-.805 2.68 2.68 0 0 0 .848-1.738c0-.937-.535-1.871-1.426-2.766-1.652-1.695-2.41-1.918-4.328-1.113l-2.23.938c-2.23.98-3.656.133-5.754-2.008s-2.23-2.723-2.184-4.059zm0 0"/><path d="M83.496 233.625c-1.473 2.809-2.723 4.281-3.793 4.547h-.355c-.305 0-.602-.09-.848-.266l-1.562-.805a1.985 1.985 0 0 1-1.203-1.113c-.207-.625-.074-1.426.402-2.41l8.027-15.566c.313-.266.535-.309.715-.223s.223.313.223.672h-.047l-3.031 5.887a19.11 19.11 0 0 0 5.664-2.41h.043c.313.047.535.133.582.313s.043.445-.223.805a20.544 20.544 0 0 1-6.734 2.676l-4.195 8.25c-.312.668-.402 1.16-.266 1.516a.97.97 0 0 0 .625.535l1.605.805a.53.53 0 0 0 .535.133c.711-.223 1.695-1.473 2.898-3.789h.043c.27-.18.445-.227.625-.137s.223.27.27.582zm20.559-2.723c.23.543.23 1.152 0 1.695l-.891 3.035c-.133.801-.445 1.293-.891 1.516a1.426 1.426 0 0 1-1.34 0l-3.836-1.07-1.648 6.02a1.785 1.785 0 0 1-.715 1.203 1.39 1.39 0 0 1-.625.137 2.337 2.337 0 0 1-.937-.18 7.735 7.735 0 0 1-1.918-1.473h-.043a1.158 1.158 0 0 1 .043-.891.713.713 0 0 1 .625-.223h.09c1.383 1.426 2.008 1.605 2.273 1.516s.223-.223.223-.492l1.652-5.887-4.105-1.16a1.282 1.282 0 0 1-1.023-.445c-.312-.488-.312-1.25-.047-2.32l.805-2.898c.445-1.16 1.203-1.605 2.23-1.336l9.055 2.496a1.7 1.7 0 0 1 1.023.758zm-1.023.848a.854.854 0 0 0-.625-.402l-8.52-2.406h-.402c-.402 0-.668.223-.801.715l-.758 2.719a1.299 1.299 0 0 0-.047.938c.078.09.195.137.313.133h.047l9.051 2.5a.62.62 0 0 0 .535.086c.227-.086.313-.355.402-.801l.758-2.723a.8.8 0 0 0 .047-.758zm3.613-3.699-6.824-1.875a18.688 18.688 0 0 0-.18-2.766h-.043c-.137-.312-.312-.445-.539-.445s-.355.223-.535.578c.125.754.184 1.516.18 2.277l-6.555-1.832h-.137a.98.98 0 0 0-.309 1.16h.043l14.496 4.016h.09a.665.665 0 0 0 .535-.492.724.724 0 0 0-.223-.668zm-13.473 8.918v-.09c.09-.398.09-.668-.09-.801s-.309-.133-.578 0h-.043a35.818 35.818 0 0 1-4.996 4.234h-.047c-.266.313-.355.535-.266.762a.54.54 0 0 0 .488.355h.09a31.512 31.512 0 0 0 5.441-4.461zm6.781 1.027h-.047a.8.8 0 0 0-.711-.18c-.18.09-.27.355-.312.805h.043c.625 1.738 1.25 3.879 1.875 6.375h.043a.93.93 0 0 0 .492.223h.133c.223-.043.355-.309.402-.758a48.352 48.352 0 0 0-1.918-6.465zm-18.512-21.32c0-.355-.043-.582-.223-.668s-.398-.047-.668.223l-2.273 4.324-4.059-2.094c-.359.086-.535.176-.625.398s-.09.402.043.715l4.059 2.051-2.988 5.844a25.942 25.942 0 0 1-6.512 1.785h-.043c-.312.266-.492.488-.445.668s.133.355.398.492h.047a19.01 19.01 0 0 0 5.754-1.383l-2.453 4.77c0 .402.043.625.223.672h.133a.927.927 0 0 0 .535-.223h.047l9.051-17.621zm87.285 7.848 10.883-5.707a.272.272 0 0 1 .359 0c.355.133.848.891 1.25 3.566h.043c.266.27.492.359.668.313a.576.576 0 0 0 .402-.445c-.535-2.766-1.203-4.324-2.098-4.727a1.026 1.026 0 0 0-1.07.043l-1.426.758a28.79 28.79 0 0 0-.492-4.012c-.266-.27-.488-.402-.711-.312s-.27.176-.359.445a15.43 15.43 0 0 1 .359 4.461l-2.055 1.07a32.562 32.562 0 0 0-3.969-3.211h-.09c-.223.043-.398.133-.445.313a.81.81 0 0 0 .09.758h.043a36.13 36.13 0 0 1 3.348 2.676l-3.078 1.605a19.87 19.87 0 0 0-3.566-2.453h-.09a.537.537 0 0 0-.359.402.85.85 0 0 0 .137.625h.043l2.766 1.918-1.426.758a1.44 1.44 0 0 0-.762.934c-.031.504.094 1 .359 1.43l1.473 2.809h.043a1.14 1.14 0 0 0 .445.18h.18a.88.88 0 0 0 .266-.625l-1.336-2.543c-.402-.625-.09-.891.176-1.027zm16.551.984a1.109 1.109 0 0 0-.582-.402h-.043l-5.801 3.031a4.614 4.614 0 0 0-.848-.535c-.266-.09-.398-.176-.445-.312a.711.711 0 0 1 .27-.578c1.203-1.828 1.828-3.031 1.828-3.613a1.12 1.12 0 0 0-.582-.891c-.355-.18-.934-.09-1.691.313l-6.914 3.613a.97.97 0 0 0 0 .711.67.67 0 0 0 .535.359h.043l6.824-3.57c.223-.09.313-.09.313-.043s.133.398-1.605 2.676c-.445.801-.355 1.473.355 1.961l.848.402-6.645 3.434a.98.98 0 0 0 0 .715c.125.203.34.336.582.355h.043l7.09-3.746c1.605 1.605 2.367 2.898 2.277 3.879a1.88 1.88 0 0 1-.848 1.34c-.805.535-1.828.625-3.035.223h-.133a.804.804 0 0 0-.266.578c0 .18.133.359.355.582a4.95 4.95 0 0 0 1.563.266 4.46 4.46 0 0 0 2.094-.535 2.76 2.76 0 0 0 1.43-2.004c.176-1.297-.625-2.945-2.41-4.863l5.398-2.809a.888.888 0 0 0 0-.535zm-17.664 14.539h-.043c-3.746-.758-7.406-4.371-10.93-10.84l7.227-2.051h.09a.935.935 0 0 0 .176-.715c-.043-.223-.223-.355-.535-.488h-.043l-7.27 2.051-1.203-4.324h-.047c-.223-.27-.445-.402-.625-.359s-.312.27-.355.625l1.203 4.328-6.422 1.828h-.09a.744.744 0 0 0-.176.711.83.83 0 0 0 .535.492h.043l6.469-1.828c1.246 6.469.223 11.461-3.125 14.809h-.043c-.105.289-.09.609.043.891a.73.73 0 0 0 .535.18h.18c3.168-3.125 4.461-7.629 3.879-13.293 3.168 5.309 6.691 8.387 10.484 9.277h.086c.191-.156.32-.379.359-.625a.764.764 0 0 0-.402-.668zm-49.465-7.715-1.113 12.977c0 .758-.18 1.293-.535 1.563a.95.95 0 0 1-.715.223h-.355l-5.176-.445a1.117 1.117 0 0 1-.934-.359c-.312-.309-.449-.844-.359-1.648l1.07-13.023c0-.492.172-.965.492-1.34a1.29 1.29 0 0 1 1.16-.398l2.051.176.313-3.613a.717.717 0 0 1 .535-.355c.223 0 .355.18.492.445l-.312 3.613 2.094.18c1.07.176 1.473.891 1.293 2.008zm-7.668 6.512-.449 5.531a1.21 1.21 0 0 0 .137.891c.129.09.285.137.445.133l1.828.133.535-6.465zm5.574 6.066.445-5.531-2.496-.223-.535 6.465 1.781.133a.613.613 0 0 0 .582 0c.168-.246.25-.547.223-.844zm-4.195-13.738a.76.76 0 0 0-.578.176 1.34 1.34 0 0 0-.223.715l-.492 5.531 2.5.18.578-6.469zm2.813.223-.535 6.465 2.496.227.445-5.531a1.02 1.02 0 0 0-.043-.758.736.736 0 0 0-.578-.223zm31.531 10.035c.27 2.23.047 3.656-.621 4.414a1.65 1.65 0 0 1-1.383.492l-5.176.492h-.355a1.23 1.23 0 0 1-.715-.227c-.402-.266-.625-.848-.715-1.691l-.266-2.902-4.773.449a1.16 1.16 0 0 1-.98-.137c-.387-.266-.609-.801-.668-1.605l-.848-8.785a2.28 2.28 0 0 1 .266-1.43 1.21 1.21 0 0 1 1.027-.578l4.816-.445-.223-2.363c.133-.359.266-.535.445-.535s.355.133.578.445l.227 2.363 4.77-.445a1.57 1.57 0 0 1 1.16.266c.355.406.531.938.492 1.473l.801 8.832c.137 1.25-.355 1.918-1.426 2.008l-4.641.445.227 2.496c.016.379.156.738.398 1.027a.71.71 0 0 0 .535.043l4.773-.445a.845.845 0 0 0 .848-.266c.492-.445.578-1.562.355-3.301.137-.359.313-.535.492-.535s.355.133.535.445zm-10.301-10.617-4.504.402c-.312.047-.672.18-.625 1.027l.313 3.031 5.219-.488zm.488 5.266-5.219.488.359 3.746c.043.449.18.762.355.848s.223.09.445.047l4.508-.445zm5.844-4.906a.93.93 0 0 0-.18-.758.624.624 0 0 0-.578-.137l-4.504.402.355 4.016 5.219-.492zm.715 8.965c.133-.18.133-.445.043-.895l-.312-3.746-5.219.492.449 4.684 4.504-.402a.77.77 0 0 0 .535-.133zm-18.734-12.398-3.031-.27c-.98-.09-1.516.535-1.605 1.738l-1.516 17.977c.133.355.266.535.445.535h.043c.18 0 .359-.133.535-.445l1.473-17.664c.027-.258.117-.5.27-.715a.72.72 0 0 1 .535-.176l2.453.223a.267.267 0 0 1 .266.133 1.12 1.12 0 0 1-.043.848 29.573 29.573 0 0 1-2.008 5.664 2.539 2.539 0 0 0 0 1.828c1.426 2.453 2.051 4.371 1.828 5.621s-.223 1.516-.625 1.875a1.52 1.52 0 0 1-1.203.309 4.01 4.01 0 0 1-1.652-.98h-.043a.72.72 0 0 0-.535.18c-.18.133-.223.402-.223.801h.043c.402.535 1.207.984 2.41 1.297s2.453-.762 2.809-2.68-.266-4.367-1.871-7a.894.894 0 0 1 .086-.937 37.57 37.57 0 0 0 2.188-6.199 2.107 2.107 0 0 0-.09-1.426 1.41 1.41 0 0 0-.937-.535zm0 0"/></g><g fill="none" stroke="#039" stroke-miterlimit="10"><path d="M225.996 126.27c0 54.805-44.43 99.238-99.238 99.238S27.52 181.074 27.52 126.27s44.43-99.242 99.238-99.242 99.238 44.434 99.238 99.242zm0 0" stroke-width=".892"/><path d="M251.11 126c0 69.094-56.016 125.109-125.109 125.109S.891 195.094.891 126 56.906.891 126 .891 251.11 56.906 251.11 126zm0 0" stroke-width="1.784"/></g></svg>