<svg xmlns="http://www.w3.org/2000/svg" width="1000" height="1000"><path fill="rgba(255,255,255,0)" d="M0 0h1000v1000H0z"/><path vector-effect="non-scaling-stroke" d="M908.036 846.91h70.097q-1.764-13.304-11.372-21.559-9.608-8.254-23.333-8.254-13.921 0-23.921 8.449-9.902 8.351-11.47 21.364zm0 14.761q.98 14.373 11.373 23.307 10.49 8.935 26.372 8.935 10.196 0 19.02-4.273 8.823-4.273 16.175-12.625l13.432 10.682q-10.098 11.654-22.157 17.19-11.96 5.535-27.058 5.535-12.451 0-23.235-4.468-10.784-4.467-18.53-12.721-6.764-7.284-10.391-16.8-3.628-9.615-3.628-20.103 0-24.86 15-40.204 15-15.344 39.215-15.344 24.706 0 39.901 16.412 15.294 16.315 15.294 43.118v1.36zm-41.105-33.989q-4.872-5.438-11.136-7.963-6.164-2.622-14.118-2.622-15.411 0-25.353 10.876-9.843 10.78-9.843 27.677 0 16.898 9.743 27.58 9.843 10.683 25.453 10.683 8.45 0 14.914-2.914 6.561-2.913 11.135-8.643l12.23 13.693q-8.352 7.478-17.599 10.974-9.147 3.399-20.68 3.399-11.832 0-21.874-3.885-10.041-3.884-17.399-11.265-7.854-7.769-11.93-17.771-3.978-10.1-3.978-21.85 0-11.751 3.977-21.85 4.077-10.1 11.931-17.87 7.457-7.477 17.4-11.264 9.942-3.885 21.873-3.885 11.334 0 20.481 3.302 9.247 3.302 16.803 10.002zM685.918 907.8V803.404h18.61v11.945q7.028-7.09 14.749-10.488 7.82-3.496 16.729-3.496 18.313 0 28.905 12.236 10.591 12.236 10.591 33.698v60.5h-18.808v-58.655q0-16.412-5.84-23.987-5.741-7.672-18.115-7.672-14.056 0-21.183 8.158-7.028 8.06-7.028 24.278V907.8zm-71.596-14.567q15.739 0 25.877-10.585 10.138-10.586 10.138-27.192 0-16.509-10.138-27.094-10.138-10.682-25.877-10.682-15.739 0-25.877 10.585-10.139 10.585-10.139 27.191 0 16.703 10.139 27.289 10.138 10.488 25.877 10.488zm53.396 14.567h-18.346v-17.092q-6.566 9.225-16.028 13.887-9.366 4.564-21.533 4.564-10.814 0-20.663-4.079-9.752-4.175-17.38-12.042-7.242-7.574-10.91-17.091-3.67-9.517-3.67-20.685 0-24.181 14.387-39.04 14.483-14.857 38.236-14.857 11.973 0 21.919 4.952 9.945 4.856 16.994 14.179v-17.092h16.994zM450.383 773.785V889.93h14.439q31.572 0 47.551-14.664 16.075-14.664 16.075-43.41 0-28.841-16.075-43.408-15.979-14.664-47.551-14.664zm11.455-17.966q42.353 0 64.396 19.423 22.14 19.325 22.14 56.616 0 37.194-22.14 56.616-22.043 19.326-64.396 19.326h-31.187V755.82zM313.406 846.91h68.965q-1.736-13.304-11.188-21.559-9.453-8.254-22.957-8.254-13.696 0-23.535 8.449-9.742 8.351-11.285 21.364zm0 14.761q.964 14.373 11.189 23.307 10.32 8.935 25.946 8.935 10.032 0 18.713-4.273 8.68-4.273 15.915-12.625l13.214 10.682q-9.935 11.654-21.799 17.19-11.767 5.535-26.622 5.535-12.25 0-22.86-4.468-10.61-4.467-18.23-12.721-6.655-7.284-10.224-16.8-3.569-9.615-3.569-20.103 0-24.86 14.758-40.204 14.758-15.344 38.582-15.344 24.307 0 39.258 16.412 15.047 16.315 15.047 43.118v1.36zm-69.673-83.71v25.443h-36.474l-28.054 66.037c-.466 1.1-1.365 3.56-2.696 7.38l-4.691 13.887-4.294-14.276c-1.131-3.69-1.93-6.02-2.397-6.991l-27.654-66.037h-21.264L161.034 907.8l-18.869 43.313h19.269l59.974-132.833 22.325.662v67.202c0 8.74 2.251 14.987 6.753 18.742 4.501 3.69 12.065 5.536 22.692 5.536h11.845v-17.576h-11.07c-3.173 0-5.497-.713-6.973-2.137-1.402-1.424-2.104-3.69-2.104-6.798V818.94h20.147v-15.537h-20.147V777.96zM1.798 907.8V755.82h29.445q17.047 0 26.898 1.553 9.963 1.457 16.494 4.856 11.18 5.826 16.936 14.76 5.867 8.838 5.867 20.006 0 9.225-5.424 16.897-5.313 7.672-15.165 12.528 16.161 4.661 24.463 14.566 8.413 9.809 8.413 24.279 0 17.965-16.161 30.298Q77.513 907.8 53.492 907.8zm22.47-86.527h18.598q15.497 0 23.91-6.313 8.523-6.312 8.523-17.771 0-12.042-8.523-18.16-8.524-6.118-25.46-6.118H24.269zm0 68.658h22.915q19.371 0 29.334-6.507 10.073-6.506 10.073-19.228 0-12.527-9.741-18.937-9.741-6.506-28.78-6.506h-23.8z" fill="#3259b4"/><path d="m187.24 126.37 107.591 31.08v430.367L187.24 618.9z" fill="#3259b4"/><path d="m356.994 346.334 105.2 26.301v231.918l-105.2 21.518z" fill="#3c8cff"/><path d="m536.314 300.907 98.027-26.3v284.518l-98.027-28.692z" fill="#00c8d2"/><path d="m698.897 102.46 107.592 31.081v482.966l-107.592 26.301z" fill="#78e6dd"/></svg>