<svg xmlns="http://www.w3.org/2000/svg" width="1000" height="1000"><path fill="rgba(255,255,255,0)" d="M0 0h1000v1000H0z"/><g fill-rule="evenodd"><path d="m969.76 389.61-20.197 27.841 8.46 4.718 25.931-26.086-14.193-6.473zm-478.648 40.515-2.729 5.966-56.307 127.822h15.598l15.441-36.263h54.591l15.091 36.264h15.793l-54.865-127.823-2.613-5.966zm-292.998 3.354c-41.552 0-67.537 31.036-67.537 67.03s26.185 65.978 67.537 65.978c13.425 0 26.832-4.51 37.746-12.4v-17.119c-10.114 10.112-23.888 16.65-38.214 16.65-31.057 0-51.55-25.64-51.55-53.616s20.124-53.617 51.24-53.617c14.662 0 28.411 6.203 38.525 16.65v-17.118c-11.243-8.394-23.645-12.439-37.746-12.439zm93.858 2.613v127.821h14.272v-62.74h43.361v-13.22h-43.36v-51.86h-14.272zm77.09 0v127.821h14.233V436.091h-14.233zm226.281 0v127.821h14.233v-56.112h19.223l29.012 56.112h16.533l-31.078-58.061c13.232-3.892 26.165-14.075 26.165-34.432 0-25.737-19.283-35.328-40.318-35.328h-33.77zm137.96 0v127.821h14.233V436.091h-14.232zm68.006 0v13.22h30.883v114.602h14.232V449.311h31.195v-13.219h-76.31zm127.822 0v127.821h69.176v-13.22h-54.942V500.51h47.14v-13.22h-47.143v-37.98H996.2v-13.22h-67.07zM609.576 449.31h17.664c14.729 0 27.92 5.872 27.92 22.11 0 16.246-11.306 23.825-27.764 23.825h-17.82v-45.934zM490.76 463.192l21.37 51.198h-43.245l21.875-51.198z"/><path d="M1 500c0-101.823 82.025-184.36 185.93-184.36 45.5 0 87.147 16.48 119.3 43.794v28.385c-29.673-31.484-71.764-51.133-118.442-51.133-91.06 0-162.226 72.86-162.226 162.743s71.2 162.748 162.226 162.748c46.678 0 88.769-19.651 118.441-51.135v29.525c-32.15 27.317-73.798 43.797-119.298 43.797C83.11 684.364 1 601.822 1 500.001zm575.977 102.556a2.947 2.947 0 0 0-2.925 2.925c0 1.555 1.328 2.886 2.925 2.886 1.555 0 2.886-1.331 2.886-2.885 0-1.597-1.331-2.925-2.885-2.925zm8.423 0c-.2 0-.396-.001-.586.039a2.976 2.976 0 0 0-2.34 2.886c0 1.555 1.327 2.886 2.926 2.886 1.553 0 2.886-1.331 2.886-2.885 0-1.597-1.33-2.925-2.885-2.925zm-74.4 7.291a13.09 13.09 0 0 0-2.964.312c-.313.072-.636.177-.936.273l-.857.312-.819.39c-2.65 1.396-4.367 3.871-4.367 7.137 0 2.36.56 3.975 1.755 5.226a6.688 6.688 0 0 0 .546.506 9.159 9.159 0 0 0 1.326.936c.492.281 1.045.53 1.639.78 1.185.502 2.575.968 4.172 1.443l1.755.546c3.723 1.268 5.07 2.406 5.07 4.446 0 2.202-1.155 3.582-3.51 4.134a10.125 10.125 0 0 1-1.286.195l-1.48.078c-2.848 0-5.808-1.385-7.838-3.587l-3.237 3.158a13.907 13.907 0 0 0 9.125 4.797 15.286 15.286 0 0 0 1.632.074c7.727 0 11.153-3.723 11.153-9.163 0-1.687-.333-3.026-1.013-4.133-.136-.222-.307-.42-.468-.624-1.61-2.034-4.463-3.196-8.188-4.329-1.307-.388-2.372-.742-3.237-1.092-.432-.174-.795-.371-1.13-.545-1.681-.87-2.223-1.758-2.223-3.08a3.743 3.743 0 0 1 .079-.742c.049-.242.096-.478.195-.701.591-1.341 2.103-2.301 4.757-2.301 2.607 0 4.591.7 6.318 2.184a12.054 12.054 0 0 1 .741.702l3.198-3.237c-2.676-2.59-5.802-4.094-9.903-4.094zm125.598 0c-5.569 0-9.944 3.198-9.944 8.423 0 5.396 3.048 6.991 9.438 8.89 5.05 1.511 6.824 2.66 6.824 4.992 0 2.202-1.154 3.582-3.51 4.133a10.125 10.125 0 0 1-1.286.195 14.836 14.836 0 0 1-1.48.079c-2.852 0-5.812-1.385-7.838-3.588l-3.237 3.158a13.907 13.907 0 0 0 9.125 4.797c.53.057 1.087.079 1.639.079 7.727 0 11.152-3.724 11.152-9.164 0-1.687-.333-3.026-1.013-4.133-.136-.222-.307-.42-.468-.624-1.612-2.034-4.466-3.195-8.188-4.328-1.306-.388-2.372-.743-3.237-1.092-.431-.175-.794-.372-1.13-.546-1.68-.87-2.222-1.758-2.222-3.08a3.768 3.768 0 0 1 .078-.742c.049-.24.096-.477.195-.7.59-1.342 2.1-2.302 4.758-2.302 2.606 0 4.59.7 6.317 2.184.247.212.503.46.742.702l3.198-3.236c-2.677-2.59-5.805-4.094-9.904-4.094zm-299.823.468v17.508c0 8.334 3.879 13.18 11.348 13.18 7.512 0 11.62-4.6 11.62-13.063v-17.625h-4.561v17.704c0 5.526-2.229 8.461-6.98 8.461-4.534 0-6.902-3.074-6.902-8.773v-17.392h-4.523zm31.313 0v30.22h4.406v-15.674l-.039-6.98 2.262 3.704 12.05 18.952h4.289v-30.222h-4.406v15.598l.079 7.097a149.91 149.91 0 0 0-2.535-4.25l-11.463-18.444h-4.64zm31.78 0v30.22h4.562v-30.22h-4.562zm11.465 0 10.489 30.22h4.796l10.333-30.22h-4.836l-6.2 19.224-.975 3.042a45.038 45.038 0 0 0-.701 2.495c-.259-1.079-1.116-3.728-1.677-5.497l-6.317-19.263h-4.912zm32.325 0v30.22h20.121v-4.406h-15.597v-9.553h8.695v-4.406h-8.695v-7.448h14.934v-4.406h-19.459zm27.296 0v30.22h4.446v-11.97h6.824l6.006 11.97h5.226l-6.2-12.36c4.103-1.037 6.667-4.016 6.667-8.852 0-6.218-4.44-9.008-9.709-9.008h-13.258zm58.685 0v30.22h4.523v-30.22h-4.523zm11.425 0v4.446h8.813v25.774h4.522v-25.774h8.814v-4.445h-22.149zm37.825 0-10.88 30.22h4.718l2.496-7.174h12.088l2.535 7.174h4.835l-10.996-30.22h-4.796zm20.588 0v4.446h8.814v25.774h4.523v-25.774h8.813v-4.445h-22.148zm55.527 0v30.22h4.29V624.55c0-1.813-.075-4.44-.117-5.303l1.95 4.757 7.251 17 7.331-17 1.95-4.757c-.043.863-.077 3.49-.077 5.303v15.988h4.446v-30.222h-4.835l-6.629 16.104-1.13 2.769a62.215 62.215 0 0 0-.897 2.418c-.386-1.251-1.372-3.459-2.105-5.186l-6.746-16.104h-4.68zm35.601 0v30.22h20.121v-4.406h-15.559v-9.553h8.658v-4.406h-8.656v-7.448h14.935v-4.406h-19.497zm27.296 0v30.22h8.267c7.902 0 14.7-4.464 14.7-15.13s-6.583-15.09-14.7-15.09H717.9zm30.26 0v30.22h4.561v-30.22h-4.562zm12.868 0v4.173h11.23l6.083-.078c-.777.778-2.442 2.734-3.393 3.9l-14.779 17.82v4.405h22.967v-4.172h-11.893l-6.083.078c.778-.777 2.442-2.733 3.393-3.899l14.585-17.82v-4.406h-22.11zm30.103 0v30.22h4.523v-30.22h-4.523zm13.336 0v30.22h4.406v-15.674l-.038-6.98 2.262 3.704 12.049 18.952h4.29v-30.222h-4.406v15.598l.078 7.097c-.431-.777-1.76-2.998-2.534-4.25l-11.464-18.444h-4.64zm43.947 0v30.22h12.01a19.279 19.279 0 0 0 1.209-.038c5.856-.37 9.164-3.494 9.164-9.241 0-4.188-2.733-6.41-5.109-7.058 2.203-1.08 3.86-2.978 3.86-6.044 0-5.095-3.427-7.838-8.695-7.838h-12.44zm29.908 0v30.22h20.121v-4.406h-15.598v-9.553h8.696v-4.406h-8.696v-7.448h14.935v-4.406h-19.458zm27.257 0v30.22h4.446v-11.97h6.824l6.006 11.97h5.226l-6.16-12.36c4.103-1.037 6.629-4.016 6.629-8.852 0-6.218-4.44-9.008-9.71-9.008h-13.257zm30.727 0v30.22h19.576v-4.444h-15.051v-25.776h-4.524zm26.633 0v30.22h4.524v-30.22h-4.524zm13.337 0v30.22h4.406v-15.674l-.039-6.98c.475.777 1.49 2.581 2.222 3.704l12.05 18.952h4.324v-30.222h-4.406v15.598l.039 7.097a140.365 140.365 0 0 0-2.496-4.25l-11.503-18.444h-4.601zm-123.571 4.134h8.11c3.023 0 4.212 1.732 4.212 3.978 0 1.986-1.233 3.86-4.211 3.86h-8.111v-7.837zm-377.304.156h8.814c3.065 0 5.108 1.723 5.108 4.874 0 3.282-2.084 4.835-5.108 4.835h-8.812v-9.71zm434.625 0h8.814c3.065 0 5.147 1.723 5.147 4.874 0 3.282-2.123 4.835-5.147 4.835h-8.819v-9.71zm-187.559.117h3.705c7.166 0 10.1 4.338 10.1 10.685s-2.933 10.724-10.1 10.724h-3.705v-21.41zm-141.241.702c.346 1.295 1.53 4.781 2.262 6.941l2.418 6.942h-9.32l2.419-6.902c.777-2.245 1.878-5.685 2.222-6.98zm271.475 10.956h8.19c3.412 0 5.381 1.883 5.381 4.992 0 2.978-1.482 5.03-5.498 5.03h-8.072V626.38z" fill="#878787"/></g></svg>