<svg xmlns="http://www.w3.org/2000/svg" height="237.171" viewBox="0 0 261.83 147.4" width="421.637"><radialGradient id="a" cx="66.4" cy="270.48" fx="41.42" fy="259.2" gradientTransform="matrix(1.67 0 0 -1.67 23.8 523.61)" gradientUnits="userSpaceOnUse" r="119.18"><stop offset="0" stop-color="#e07433"/><stop offset=".09" stop-color="#df6e31"/><stop offset=".22" stop-color="#db5d2c"/><stop offset=".26" stop-color="#da562b"/><stop offset=".37" stop-color="#d33936"/><stop offset=".46" stop-color="#ce1e3b"/><stop offset=".53" stop-color="#cd103c"/><stop offset=".59" stop-color="#c21744"/><stop offset=".74" stop-color="#a72156"/></radialGradient><path d="M251.71 4.22c-.85-3.02-3.89-4.78-7.06-4.06L112.68 34.42c-3.04.79-7.08 3.48-8.97 5.98L78.36 73.85c-1.9 2.5-.94 5.09 2.13 5.76l143.45 31.02c3.07.66 6.22-1.28 7-4.32l22.16-86.53c.78-3.04.72-8-.12-11.03z" fill="#fff"/><path d="M260.78 8.71c-.87-2.94-2.2-5.29-5.41-6.32L247.57.2c1.96.5 3.56 1.97 4.13 4.03l1.27 4.54c.85 3.02.9 7.99.12 11.03l-22.16 86.53c-.03.13-.08.26-.12.38l29.72-81.89c.64-2.11 1.3-3.27 1.3-6.92.02-3.75-1.05-9.19-1.05-9.19" fill="#9f0d43"/><path d="m252.98 8.76-1.27-4.54c-.85-3.02-3.89-4.78-7.06-4.06L112.68 34.42c-3.04.79-7.08 3.48-8.97 5.98L78.36 73.85c-1.9 2.5-.94 5.09 2.13 5.76l28.65 6.2c-1.08-.72-2.08-1.54-2.96-2.47-1.73-1.83-3.02-4.02-3.87-6.56-.85-2.55-1.14-5.35-.88-8.42.27-3.14 1.07-5.98 2.39-8.53s3.02-4.72 5.1-6.51 4.47-3.17 7.14-4.13q4.02-1.44 8.52-1.44 4.17 0 8.07 1.47c3.9 1.47 4.65 2.41 6.16 4.29l-7.01 6.42c-.78-1.22-1.87-2.12-3.27-2.71-1.39-.59-2.85-.89-4.37-.89-1.67 0-3.22.3-4.67.91q-2.16.915-3.81 2.52c-1.65 1.605-1.98 2.33-2.67 3.79-.68 1.46-1.1 3.06-1.25 4.79-.15 1.77-.02 3.4.41 4.87.43 1.48 1.08 2.74 1.97 3.8.89 1.05 2 1.87 3.32 2.46s2.79.89 4.43.89c1.89 0 3.57-.37 5.05-1.11 1.47-.74 2.69-1.7 3.64-2.88l6.07 6.2c-1.92 1.99-4.2 3.57-6.86 4.74-1.91.84-4 1.36-6.26 1.6l48.09 10.4 1.37-6.26q.645.225 1.44.36c.795.135 1.02.14 1.46.14 1.41 0 2.46-.32 3.14-.97s1.3-1.56 1.85-2.74l1.09-2.27-9.19-27.14h10.12l4.62 17.72h.17l7.05-17.72h9.67l-15.18 31.74c-.68 1.44-1.41 2.72-2.2 3.85q-1.17 1.695-2.7 2.88c-1.53 1.185-2.18 1.39-3.49 1.8-.43.13-.89.23-1.37.32l44.46 9.61c3.07.66 6.22-1.28 7-4.32l22.16-86.53c.79-3.03.74-8-.11-11.02M147.54 88.02h-9.12l2.41-27.58h9.12zm3.85-36.38c-.06.7-.26 1.36-.59 1.97s-.75 1.14-1.25 1.58-1.09.79-1.76 1.05-1.36.39-2.06.39q-2.22 0-3.6-1.47c-.91-.98-1.31-2.15-1.19-3.52.06-.66.24-1.3.56-1.91.31-.61.73-1.14 1.25-1.58s1.11-.8 1.76-1.08 1.35-.42 2.09-.42c.7 0 1.37.13 1.99.39.63.26 1.15.61 1.58 1.05.42.44.75.97.97 1.58.23.61.31 1.26.25 1.97m20.08 15.56h-6.51l-.92 10.56c-.11 1.3.05 2.27.5 2.92.44.65 1.31.97 2.61.97.44 0 .92-.04 1.43-.11s.93-.18 1.28-.33l-.47 6.64c-.65.22-1.46.42-2.44.58-.98.17-1.95.25-2.91.25-1.85 0-3.39-.23-4.61-.69s-2.17-1.13-2.86-2c-.68-.87-1.14-1.91-1.37-3.11s-.28-2.54-.15-4.03l1.02-11.66h-4.45l.59-6.76h4.39l.63-7.25h8.95l-.63 7.25h6.51zm67.67 6.03c-.21 2.36-.79 4.51-1.76 6.45s-2.25 3.6-3.85 4.98c-1.61 1.39-3.49 2.47-5.65 3.24-2.16.78-4.52 1.16-7.08 1.16s-4.9-.39-6.9-1.16c-2.01-.77-3.67-1.85-5-3.24-1.32-1.38-2.29-3.04-2.9-4.98s-.81-4.09-.6-6.45l2.14-24.43h9.45l-2.07 23.65c-.09 1.07-.04 2.09.15 3.05s.55 1.82 1.05 2.57c.51.76 1.22 1.36 2.12 1.8s2.03.66 3.36.66 2.49-.22 3.48-.66q1.47-.66 2.46-1.8c.66-.75 1.16-1.61 1.5-2.57s.56-1.97.66-3.05l2.07-23.65h9.51z" fill="url(#a)"/><path d="M11.27 111.51h6.76v-1.17H9.94v-1.88c2.22-.2 4.24-.48 6.15-.87l.26-.05-.65-1.22-.15.03a65 65 0 0 1-13.01 1.32h-.56l.35 1.25h.16l6.19-.33v1.77H.61v1.17h6.73c-.72.76-1.65 1.5-2.77 2.21a19.5 19.5 0 0 1-2.25 1.29 18 18 0 0 1-2.11.9L0 116l.55 1.14.17-.06c1.55-.57 3.18-1.43 4.84-2.55a15.5 15.5 0 0 0 1.89-1.52c.48-.43.89-.83 1.24-1.23v3.54h1.25v-3.54c1.67 1.88 4.24 3.61 7.65 5.14l.13.06 1-1.09-.27-.11c-3.18-1.31-5.6-2.74-7.18-4.27"/><path d="M3.85 124.69H5.1v-1.3h8.53v1.3h1.25v-9.1H3.85zm1.25-5.87v-2.06h8.53v2.06zm8.53 1.17v2.22H5.1v-2.22zm14.1-9.44.16.16.78-1.04-.13-.12c-.94-.88-1.96-1.67-3.11-2.41l-.16-.1-.71.95.18.12c.99.66 1.99 1.48 2.99 2.44m.45 6.16-1.04-.71-.08.27c-.77 2.63-1.86 5.07-3.23 7.27l-.1.16 1.13.79.11-.2 1.82-3.71a39 39 0 0 0 1.35-3.73zm-2.79-3.08 1.49 1.45.16.17.78-1.01-.12-.12c-.99-1.03-2.03-1.92-3.11-2.65l-.16-.11-.71.92.16.12z"/><path d="M37.92 113.92h4.09v-1.17h-4.4v-2.46h3.4v-1.17h-3.4v-2.94h-1.25v2.94h-3.21v-2.94h-1.24v2.94h-2.86v1.17h2.86v2.46h-4v1.17h3.84a14 14 0 0 1-1.14 1.8c-.7.89-1.56 1.71-2.56 2.45l-.19.14.93.9.14-.1c.59-.46 1.07-.87 1.5-1.3.32-.31.64-.64.94-1.01v5.23c0 .4.04.7.13.97.08.25.23.45.45.57.1.14.41.26 1.59.34l4.21.1c.89 0 1.55-.06 2.03-.19.49-.13.8-.37.87-.68.04-.09.08-.27.15-.78v-.06l.16-1.79v-.13l-1.31-.64-.02.3-.17 2.3c-.11.2-.49.43-1.7.43-4.15 0-4.86-.17-4.97-.24a.44.44 0 0 1-.13-.21c-.02-.05-.04-.15-.02-.34v-1.97h5.7v-3.78c.85.85 1.86 1.64 3 2.37l.14.09.97-1.08-.22-.12c-1.9-1.09-3.34-2.28-4.31-3.57m-1.56-3.63v2.46h-3.21v-2.46zm-3.76 8.53v-1.98h4.45v1.98zm-.41-3.16a14 14 0 0 0 .96-1.75h3.31a12.6 12.6 0 0 0 1.33 1.75zm32.52 4.82-.19 1.64-.17.87c-.03.07-.11.23-.21.23-.13 0-.28-.11-.45-.34-.21-.27-.44-.68-.69-1.24q-.255-.45-.42-.96c-.14-.35-.24-.69-.33-1.05h.01c.95-1.36 1.76-3.62 2.4-6.73l.04-.19-1.32-.34-.04.21c-.23 1.19-.5 2.24-.82 3.21-.24.74-.5 1.4-.76 1.96-.14-.57-.25-1.16-.34-1.81-.13-.68-.23-1.43-.31-2.37l-.17-2.52h4.65v-1.17h-1.9l.96-.66-.08-.16c-.24-.46-.52-.91-.8-1.34l-.92-1.24-.12-.14-1.01.7.12.17.88 1.27c.28.44.52.91.72 1.3l.05.1h-2.6l-.07-3.56v-.2h-1.33v.2l.07 3.57h-5.69v5.72l-.17 2.38-.17-1.06-.25.15c-.59.34-1.24.66-1.95.94v-5.11h2.25v-1.17h-2.25v-5.01h-1.25v5.01h-2.39v1.17h2.39v5.6l-1.15.42-1.38.43-.25.06.65 1.22.16-.05c.71-.21 1.53-.52 2.56-.97l2.93-1.35.06-.03s-.01.06-.01.09c-.14.81-.33 1.51-.58 2.08-.27.61-.59 1.17-.96 1.66-.38.49-.79.93-1.28 1.35l-.14.13.8 1 .16-.13a10.2 10.2 0 0 0 1.41-1.45c.43-.57.81-1.17 1.11-1.81.61-1.34.93-3.16.94-5.43v-.9h2.74l-.19 2.86-.23 1.65c-.09.26-.25.57-.56.57-.13 0-.36 0-.69-.08-.31-.06-.63-.16-.99-.3l-.28-.11v1.36l.13.05c.39.14.79.25 1.16.32.31.08.62.11.82.08.32.03.62-.08.83-.3.22-.17.41-.46.6-.88.14-.37.26-1.04.39-2.16l.26-4.03v-.21h-4v-2.6h4.5c.12 2.04.34 3.91.64 5.53l.28 1.45c.09.44.2.86.33 1.23-.96 1.35-2.24 2.58-3.92 3.75l-.17.12.78 1 .16-.1c1.47-.97 2.66-2.01 3.64-3.2.22.66.49 1.25.79 1.75.72 1.26 1.37 1.88 2.01 1.88.42 0 .79-.17 1.08-.52.13-.24.25-.59.37-1.07.12-.47.22-1.07.3-1.82v-.11l-1.15-.93zm16.82-11.72-.09-.16a13 13 0 0 0-.94-1.38l-1.08-1.27-.12-.13-1.1.76.15.17a13.6 13.6 0 0 1 1.64 2.21h-9.01v1.33h8.62v3.15h-6.47v9.26h1.41v-7.93h5.06v9.92h1.41v-9.92h5.3v5.8c0 .4-.09.55-.14.59-.03.02-.08.06-.2.05-.77.03-1.68-.18-2.7-.6l-.3-.12.12 1.38.11.05a7.2 7.2 0 0 0 1.45.41c.43.09.88.14 1.32.14 1.14 0 1.74-.6 1.74-1.74v-7.28h-6.7v-3.15h8.62v-1.33h-8.38zm28.94 12.56a13.8 13.8 0 0 1-2.17-2.48c-.67-.86-1.23-1.82-1.67-2.84a15 15 0 0 1-.95-3.01h6.92v-1.41h-8.61l.52-5.19.02-.22h-1.41v.19l-.18 1.91-.09.95-.29 2.37h-7.15V113h6.92c-.21 1.04-.46 2.02-.75 2.91-.31.93-.65 1.68-.99 2.25-1.27 2.08-3.26 3.87-5.92 5.31l-.25.13 1.08 1 .13-.07c1.49-.82 2.72-1.66 3.77-2.59 1.05-.95 1.91-2 2.54-3.1.74-1.27 1.36-3.24 1.83-5.84h.42c.25 1.25.58 2.37 1.03 3.41.52 1.2 1.1 2.23 1.77 3.13a16.5 16.5 0 0 0 2.3 2.82c.81.79 1.74 1.53 2.85 2.25l.15.1 1.06-1.24-.2-.12c-1.02-.63-1.92-1.3-2.68-2.03m10.02-5.87h14.39v1.99h1.23v-3.16h-1.27l.37-7.18h-4.73v1.17h3.44l-.07 1.22h-3.44v1.19h3.38l-.06 1.14h-3.64v1.17h3.58l-.08 1.29h-3.9l.67-.75-.16-.13-.73-.65-.56-.48c.36-.35.71-.77 1.09-1.3l.09-.13-.42-.47.69-.76-.16-.13-.68-.6-.5-.42.59-.63c.26-.28.49-.58.7-.86l.1-.13-.75-.84-.15.2c-.38.53-.83 1.04-1.37 1.55l-1.83-1.23-.15-.1-.71.84.19.13 1.19.81.42.29-.79.52c-.34.23-.71.42-1.09.57h-.02v-.09h-3.69v-.69a14 14 0 0 0 1.76-.43 15 15 0 0 0 1.82-.72l.2-.09-.68-1.11-.16.07c-1.3.57-2.65.96-4.03 1.15l-.18.02.16 6.6h-1.3v3.16h1.25v-2zm7.65-6.22 1.04.99a9 9 0 0 1-1.17 1.35l-.73-.5-.9-.61-.09-.06.83-.47c.39-.23.72-.46 1.02-.7m-.12 3.81.6.55.72.7h-3.36c.7-.32 1.37-.73 2.04-1.25m-2.68-3.04.41.66.16-.08.23-.11-.61.74.57.39 1.01.7c-.53.4-1.15.76-1.84 1.07l-.21.1.52.81h-3.88l-.02-1.37h3.79v-1.17h-3.81v-1.06h3.68zm11.4 9.75h-8.59v-.07c.98-.29 1.86-.61 2.68-.98.94-.4 1.76-.81 2.51-1.28l.1-.06v-1h-11.43v1.17h8.77a24 24 0 0 1-3.17 1.07c-.02-.02-.03-.05-.05-.09l-.03-.05c-.05-.07-.1-.13-.13-.21l-.08-.2-1.09.5.12.19c.06.09.11.19.17.29l.18.3.19.4h-8.28v1.17h8.63l.09.63.08.85-.07.62c-.03.13-.07.18-.07.18-.06.03-.13.05-.2.06-.09.02-.16.03-.23.03-.6 0-1.26-.15-2.02-.46l-.3-.12.12 1.39.13.04a11 11 0 0 0 1.15.3 7 7 0 0 0 1.14.1c.44 0 .82-.11 1.12-.35.33-.28.48-.86.48-1.8v-.12l-.08-.7-.02-.11-.08-.55h8.27v-1.14z"/><path d="M11.21 139.61c-.16.33-.38.66-.64.98s-.56.61-.88.87c-.32.25-.68.46-1.06.62s-.77.24-1.18.24q-1.035 0-1.92-.36c-.885-.36-1.1-.59-1.53-1.03q-.645-.675-1.02-1.65c-.375-.975-.37-1.39-.37-2.22s.13-1.58.38-2.23.6-1.22 1.03-1.68c.44-.46.96-.81 1.54-1.06.59-.25 1.22-.37 1.9-.37.78 0 1.48.22 2.08.65.6.44 1.16 1.14 1.65 2.09l.05.1 1.06-.7-.05-.09c-.25-.41-.55-.8-.9-1.18s-.75-.71-1.2-1a6.05 6.05 0 0 0-3.3-.95c-.65 0-1.32.08-1.91.23-.6.16-1.16.38-1.65.66-.5.28-.96.62-1.36 1.02s-.74.83-1.02 1.3-.49.99-.64 1.52c-.15.54-.22 1.1-.22 1.67 0 .85.16 1.67.48 2.44.32.76.78 1.44 1.36 2.02.59.57 1.3 1.03 2.11 1.37.82.33 1.74.5 2.74.5.69 0 1.33-.09 1.89-.26s1.08-.4 1.53-.69.85-.63 1.19-1 .64-.77.89-1.18l.05-.09-1.03-.66zm5.14-10.21a1.145 1.145 0 0 0-1.63 0 1.15 1.15 0 0 0-.25 1.27c.06.14.14.26.25.37.1.1.23.19.37.25s.29.09.45.09.31-.03.45-.09.26-.14.37-.25c.11-.1.19-.23.25-.37s.09-.29.09-.45-.03-.31-.09-.45c-.07-.14-.15-.26-.26-.37m-1.82 4.64v9.06h2.03v-9.62h-.63zm9.22 7.4q-.18.21-.42.36c-.15.09-.32.14-.51.14-.13 0-.25-.02-.36-.07s-.2-.11-.28-.19-.14-.18-.19-.28a.8.8 0 0 1-.07-.35v-6.41h2.06v-.99h-2.06v-3.14h-.61l-1.41.55v2.62l-1.53.42-.08.02v.53h1.61v6.41c0 .33.04.63.11.9.08.27.19.51.35.71s.36.36.6.47.53.17.85.17c.61 0 1.14-.13 1.55-.39q.63-.375 1.02-1.05l.05-.09-.62-.41zm6.65-1.25-3.49-6.54h-2.32l4.78 8.92-.6 1.34c-.07.16-.16.34-.27.53-.1.18-.23.36-.36.52-.13.15-.28.28-.44.39-.15.1-.31.15-.49.15-.14 0-.28 0-.4-.04s-.23-.06-.33-.11c-.1-.04-.2-.09-.28-.13-.09-.05-.17-.09-.25-.12l-.09-.04-.81 1.81-.03.07.06.05c.15.11.33.21.55.28.21.07.44.1.66.1.3 0 .61-.05.93-.16s.63-.28.92-.5.58-.5.84-.84.49-.74.69-1.2l4.78-11.02h-1.21zm17.75-1.39c0 .5-.08.97-.25 1.4s-.41.82-.72 1.14c-.31.33-.69.59-1.13.78s-.95.29-1.5.29-1.05-.1-1.5-.29-.83-.45-1.14-.78-.56-.71-.73-1.14c-.17-.44-.26-.91-.26-1.4v-7.88H38.7v7.82c0 .64.11 1.24.34 1.8.22.56.56 1.06 1 1.48s.99.75 1.63.99 1.39.36 2.23.36c.94 0 1.75-.12 2.42-.36s1.23-.57 1.67-.99c.43-.42.76-.91.96-1.46s.3-1.15.3-1.77v-7.88h-1.09v7.89zm10.72-4.47c-.22-.26-.48-.47-.77-.62s-.61-.23-.95-.23c-.63 0-1.27.16-1.88.48q-.825.42-1.59 1.23v-1.71h-.63l-1.42.55v9.08h2.05v-6.9a5.7 5.7 0 0 1 1.26-.91c.22-.11.44-.2.65-.27.44-.13.82-.13 1.13.02.16.07.31.19.43.33s.22.33.29.55.1.48.1.78v6.41h2.04v-6.73c0-.39-.06-.77-.19-1.12-.13-.37-.3-.68-.52-.94m3.43-.29v9.06h2.03v-9.62h-.64zm1.82-4.64a1.145 1.145 0 0 0-1.63 0 1.15 1.15 0 0 0-.25 1.27c.06.14.14.26.25.37.1.1.23.19.37.25s.29.09.45.09.31-.03.45-.09.26-.14.37-.25c.11-.1.19-.23.25-.37s.09-.29.09-.45-.03-.31-.09-.45c-.07-.14-.15-.26-.26-.37m6.69 11.1-3.2-6.85h-2.15l4.43 9.49.03.06h.76l4.19-9.4.07-.15h-1.06zm12.92-1c-.08.28-.22.55-.42.8-.2.26-.45.5-.74.7s-.62.37-.97.5c-.35.12-.73.19-1.11.19a2.7 2.7 0 0 1-1.26-.31c-.38-.21-.72-.5-1-.87s-.5-.83-.66-1.34c-.15-.49-.23-1.02-.23-1.59h6.89v-.1c0-.52-.1-1.03-.31-1.51s-.5-.91-.87-1.27c-.37-.37-.82-.66-1.34-.88-.51-.22-1.09-.33-1.7-.33-.7 0-1.34.13-1.91.4-.57.26-1.06.63-1.47 1.1-.4.47-.72 1.03-.94 1.67s-.33 1.34-.33 2.09c0 .63.12 1.23.37 1.78.24.56.58 1.04.99 1.45.42.41.91.74 1.47.98s1.17.36 1.81.36c.49 0 .97-.09 1.45-.28a5.17 5.17 0 0 0 2.36-1.86c.3-.42.52-.88.66-1.37l.02-.09-.72-.32zm-6.37-2.88c.03-.3.1-.57.21-.83.12-.29.28-.54.47-.75s.41-.37.64-.49c.53-.26 1.14-.21 1.64 0 .28.12.52.29.73.5s.37.46.49.75c.11.26.16.54.18.83l-4.36-.02zm14.79-3.03c-.57-.16-1.18-.15-1.75.03-.3.09-.59.23-.86.4s-.52.38-.74.61c-.15.16-.29.33-.4.51l-.22-1.67h-.37l-1.41.54v9.09h2.04v-6.52c.12-.25.26-.48.42-.67s.34-.35.53-.48c.19-.12.39-.22.6-.28.35-.1.71-.11 1.07-.08.14 0 .27.04.4.08s.26.11.38.18q.18.12.36.3l.11.13.67-1.78-.07-.05c-.23-.15-.49-.27-.76-.34m7.43 4.96a4.7 4.7 0 0 0-.88-.59c-.32-.17-.65-.33-.99-.47l-.98-.42c-.32-.13-.6-.29-.85-.45-.24-.16-.44-.33-.58-.53q-.21-.285-.21-.66c0-.15.04-.29.12-.43s.19-.26.33-.36.32-.19.52-.25q.315-.09.69-.09c.46 0 .91.14 1.32.4.42.27.8.69 1.14 1.24l.06.11.84-.75-.06-.08c-.29-.37-.56-.67-.82-.89-.26-.23-.52-.41-.79-.54-.26-.12-.53-.21-.81-.25-.27-.04-.57-.06-.87-.06-.47 0-.9.07-1.3.2-.39.13-.74.32-1.03.56s-.52.52-.68.85-.25.69-.25 1.07c0 .4.07.76.22 1.07.15.3.34.57.58.8s.51.43.81.6c.29.16.59.32.91.47.31.15.61.29.9.43.29.13.55.28.77.45.22.16.4.34.53.54a1.18 1.18 0 0 1 .08 1.14c-.08.15-.19.29-.33.41s-.32.21-.51.28c-.42.15-.95.13-1.36.02-.21-.06-.43-.16-.63-.29a3 3 0 0 1-.61-.53c-.2-.21-.41-.48-.63-.79l-.07-.1-.91.82.06.08c.28.37.57.67.87.89.29.23.59.41.89.53.3.13.6.21.89.26.29.04.58.06.85.06.6 0 1.14-.07 1.59-.22s.83-.35 1.13-.61.53-.57.68-.92.23-.73.23-1.14-.08-.76-.24-1.06c-.15-.3-.36-.57-.62-.8m4.77-9.15a1.145 1.145 0 0 0-1.63 0 1.15 1.15 0 0 0-.25 1.27c.06.14.14.26.25.37.1.1.23.19.37.25s.29.09.45.09.31-.03.45-.09.26-.14.37-.25c.11-.1.19-.23.25-.37s.09-.29.09-.45-.03-.31-.09-.45c-.07-.14-.15-.26-.26-.37m-1.82 4.64v9.06h2.03v-9.62h-.64zm9.22 7.4q-.18.21-.42.36c-.15.09-.32.14-.51.14-.13 0-.25-.02-.36-.07s-.2-.11-.28-.19-.14-.18-.19-.28a.8.8 0 0 1-.07-.35v-6.41h2.06v-.99h-2.06v-3.14h-.63l-1.41.55v2.62l-1.53.42-.08.02v.53h1.61v6.41c0 .33.04.63.11.9.08.27.19.51.35.71s.36.36.6.47.53.17.85.17c.61 0 1.14-.13 1.55-.39q.63-.375 1.02-1.05l.05-.09-.62-.41zm6.65-1.25-3.49-6.54h-2.32l4.78 8.92-.6 1.34c-.07.16-.16.34-.27.53-.1.18-.23.36-.36.52-.13.15-.28.28-.44.39-.15.1-.31.15-.49.15-.14 0-.28 0-.4-.04s-.23-.06-.33-.11c-.1-.04-.2-.09-.28-.13-.09-.05-.17-.09-.25-.12l-.09-.04-.81 1.81-.03.07.06.05c.15.11.33.21.55.28.21.07.44.1.66.1.3 0 .61-.05.93-.16s.63-.28.92-.5.58-.5.84-.84.49-.74.69-1.2l4.78-11.02h-1.21zm16.78-5.37c-.44-.42-.97-.75-1.57-.99s-1.27-.36-1.98-.36-1.4.13-2 .39c-.61.26-1.14.62-1.58 1.08-.44.45-.79.99-1.04 1.6s-.37 1.27-.37 1.96.13 1.29.37 1.87c.25.58.6 1.09 1.04 1.52s.97.78 1.58 1.03 1.28.38 2 .38 1.39-.14 1.99-.41 1.13-.65 1.57-1.12.79-1.02 1.04-1.65.37-1.3.37-2.01c0-.64-.13-1.26-.37-1.82a4.9 4.9 0 0 0-1.05-1.47m-2.26 7.33c-.28.17-.6.26-.94.26-.48 0-.92-.12-1.29-.37-.38-.25-.71-.59-.97-1.01-.27-.43-.47-.94-.61-1.51-.14-.58-.21-1.21-.21-1.87 0-.45.06-.88.19-1.28s.3-.75.51-1.05c.21-.29.46-.53.73-.7s.55-.25.84-.25c.57 0 1.07.12 1.46.36.4.24.73.57.98.99s.43.92.55 1.49c.11.58.17 1.2.17 1.86q0 .675-.18 1.29c-.12.4-.28.76-.49 1.07-.21.3-.46.54-.74.72m12.37-12.13a3.2 3.2 0 0 0-.72-.59 3.55 3.55 0 0 0-3.23-.2c-.43.2-.81.47-1.12.81a3.85 3.85 0 0 0-1.04 2.65v.96h-1.92v.99h1.92v8.46h2.05v-8.46h2.46v-.99h-2.46v-2.07c0-.22.03-.45.09-.66s.15-.4.26-.56.24-.29.39-.39c.15-.09.31-.14.49-.14.29 0 .54.06.73.18.2.12.36.27.49.46s.24.41.33.65.17.49.23.72l.04.14 1.53-1.1-.03-.08c-.12-.28-.29-.55-.49-.78m12.48 6.36h-5.81v-5.46h-2.22v12.18h2.22v-5.74h5.81v5.74h2.22v-12.18h-2.22zm12.73-1.56c-.44-.42-.97-.75-1.57-.99s-1.27-.36-1.98-.36-1.4.13-2 .39c-.61.26-1.14.62-1.58 1.08-.44.45-.79.99-1.04 1.6s-.37 1.27-.37 1.96.13 1.29.37 1.87c.25.58.6 1.09 1.04 1.52s.97.78 1.58 1.03 1.28.38 2 .38 1.39-.14 1.99-.41 1.13-.65 1.57-1.12.79-1.02 1.04-1.65.37-1.3.37-2.01c0-.64-.13-1.26-.37-1.82a4.9 4.9 0 0 0-1.05-1.47m-2.27 7.33c-.28.17-.6.26-.94.26-.48 0-.92-.12-1.29-.37-.38-.25-.71-.59-.97-1.01-.27-.43-.47-.94-.61-1.51-.14-.58-.21-1.21-.21-1.87 0-.45.06-.88.19-1.28s.3-.75.51-1.05c.21-.29.46-.53.73-.7s.55-.25.84-.25c.57 0 1.07.12 1.46.36.4.24.73.57.98.99s.43.92.55 1.49c.11.58.17 1.2.17 1.86q0 .675-.18 1.29c-.12.4-.28.76-.49 1.07-.2.3-.45.54-.74.72m12.86-7.82c-.22-.26-.48-.47-.77-.62s-.61-.23-.95-.23c-.63 0-1.27.16-1.88.48q-.825.42-1.59 1.23v-1.71h-.63l-1.42.55v9.08h2.05v-6.9a5.7 5.7 0 0 1 1.26-.91c.22-.11.44-.2.65-.27.44-.13.82-.13 1.13.02.16.07.31.19.43.33s.22.33.29.55.1.48.1.78v6.41h2.04v-6.73c0-.39-.06-.77-.19-1.12-.12-.37-.3-.68-.52-.94m9.08-.44q-.285-.12-.63-.21c-.24-.06-.5-.11-.76-.15-.27-.04-.55-.05-.83-.05-.58 0-1.13.09-1.63.27s-.94.42-1.32.73-.68.68-.89 1.09c-.21.42-.32.86-.32 1.33 0 .63.18 1.2.55 1.69.32.43.75.77 1.28 1.04-.18.08-.36.18-.52.29-.23.15-.43.33-.61.52s-.32.39-.42.6a1.4 1.4 0 0 0-.16.63c0 .14.03.28.1.41.07.12.16.24.28.34.11.1.25.19.41.27.1.05.2.1.31.14-.19.15-.37.3-.57.45-.24.2-.47.41-.67.63s-.37.45-.5.69-.2.51-.2.78c0 .31.1.6.3.85.2.24.5.46.89.63.38.17.87.3 1.45.39.57.09 1.25.14 2.02.14.86 0 1.64-.08 2.32-.25s1.27-.41 1.75-.73c.48-.31.85-.7 1.11-1.15s.39-.96.39-1.51c0-.31-.05-.6-.14-.85-.1-.26-.26-.48-.49-.67-.22-.19-.53-.34-.91-.45-.37-.11-.84-.17-1.39-.2l-3.41-.15c-.36-.02-.63-.08-.82-.18-.17-.09-.25-.2-.25-.35 0-.17.05-.35.16-.52.1-.16.23-.31.38-.44a4.6 4.6 0 0 0 1.33.18c.64 0 1.23-.08 1.76-.23.53-.16 1-.38 1.38-.67.39-.29.69-.64.91-1.05s.33-.86.33-1.36c0-.32-.06-.64-.17-.97-.09-.26-.2-.49-.33-.7h1.66v-.98h-2.7a1.7 1.7 0 0 0-.43-.27m-5.08 10.22c.03-.13.09-.27.15-.4.07-.13.15-.26.25-.38.09-.11.19-.21.31-.3.13.02.33.04.59.07.3.03.64.06 1.03.09a39 39 0 0 0 2.62.1c.35 0 .67.02.94.07s.51.12.69.21.32.2.42.34c.09.13.14.29.14.47 0 .17-.08.35-.24.52-.17.18-.42.35-.74.51-.33.16-.74.28-1.21.38-.47.09-1.02.14-1.63.14q-.855 0-1.5-.12c-.645-.12-.79-.2-1.06-.33-.27-.14-.48-.29-.61-.47a.84.84 0 0 1-.19-.52c0-.12 0-.25.04-.38m1.88-9.76q.315-.18.75-.18c.435 0 .58.08.84.23.27.15.51.37.71.64s.37.6.49.98.18.79.18 1.23c0 .3-.05.59-.16.85q-.15.39-.42.69c-.17.19-.38.35-.6.46-.5.24-1.07.21-1.51-.05a1.9 1.9 0 0 1-.63-.6c-.18-.26-.32-.56-.42-.91s-.15-.73-.15-1.14c0-.34.03-.66.1-.96.07-.29.17-.55.31-.76q.195-.3.51-.48m20.7-3.43h-1.63l-6.17 5.19v-5.19h-2.22v12.18h2.22v-5.94l6.49 5.92.03.02h2.87l-7.7-7.03zm10.33 3.9c-.44-.42-.97-.75-1.57-.99s-1.27-.36-1.98-.36-1.39.13-2 .39-1.14.62-1.58 1.08c-.44.45-.79.99-1.04 1.6s-.37 1.27-.37 1.96.12 1.29.37 1.87.6 1.09 1.04 1.52.97.78 1.58 1.03 1.28.38 2 .38 1.38-.14 1.99-.41c.6-.27 1.13-.65 1.57-1.12s.79-1.02 1.04-1.65c.25-.62.37-1.3.37-2.01 0-.65-.13-1.26-.37-1.82a4.9 4.9 0 0 0-1.05-1.47m-2.27 7.33c-.28.17-.6.26-.94.26-.48 0-.92-.12-1.29-.37-.38-.25-.71-.59-.97-1.01-.27-.43-.47-.93-.61-1.51s-.21-1.21-.21-1.87c0-.45.07-.88.19-1.28.13-.4.3-.75.52-1.05.21-.29.46-.53.73-.7s.55-.25.84-.25c.57 0 1.07.12 1.46.36.4.24.73.57.98.99s.44.92.55 1.49c.11.58.17 1.2.17 1.86 0 .45-.06.89-.18 1.29s-.28.76-.49 1.07q-.315.45-.75.72m12.86-7.82c-.22-.26-.48-.47-.77-.62s-.61-.23-.96-.23c-.63 0-1.26.16-1.88.48q-.825.42-1.59 1.23v-1.71h-.63l-1.42.55v9.08h2.05v-6.9c.18-.18.39-.35.6-.5.22-.16.44-.3.66-.41s.44-.2.65-.27c.44-.13.82-.13 1.13.02.16.07.31.18.43.33s.22.33.29.55.1.48.1.78v6.41h2.04v-6.73c0-.39-.06-.77-.19-1.12-.11-.37-.29-.68-.51-.94m12.2-.19h-2.7q-.165-.135-.42-.24-.285-.12-.63-.21c-.24-.06-.5-.11-.76-.15-.27-.04-.55-.05-.83-.05-.58 0-1.13.09-1.63.27s-.95.42-1.32.73c-.38.31-.68.68-.89 1.09-.21.42-.32.86-.32 1.33 0 .63.18 1.2.55 1.69.32.43.75.77 1.28 1.04-.18.08-.36.18-.52.29-.23.15-.43.33-.61.52s-.32.39-.42.6a1.4 1.4 0 0 0-.16.63c0 .14.03.28.1.41.07.12.16.24.27.34s.25.19.41.27c.1.05.2.1.31.14l-.57.45c-.24.2-.47.41-.67.63s-.37.45-.5.69-.2.5-.2.78c0 .31.1.6.3.85.2.24.5.46.89.63.38.17.87.3 1.45.39.57.09 1.25.14 2.02.14.86 0 1.64-.08 2.32-.25s1.27-.41 1.75-.73c.48-.31.85-.7 1.11-1.15s.39-.96.39-1.51c0-.31-.05-.6-.14-.85-.1-.26-.26-.48-.49-.67-.22-.19-.53-.34-.91-.45-.37-.11-.84-.17-1.39-.2l-3.41-.15c-.36-.02-.63-.08-.82-.18-.17-.09-.25-.2-.25-.35 0-.17.06-.35.16-.52.11-.17.23-.31.38-.44a4.6 4.6 0 0 0 1.33.18c.64 0 1.23-.08 1.76-.23.53-.16 1-.38 1.38-.67.39-.29.69-.64.91-1.05s.33-.86.33-1.36c0-.32-.06-.64-.17-.97-.09-.26-.2-.49-.33-.7h1.66zm-8.2 9.97c.03-.13.09-.27.15-.4.07-.13.15-.26.25-.38.09-.11.19-.21.31-.3.13.02.33.04.59.07.3.03.64.06 1.03.09a39 39 0 0 0 2.62.1c.35 0 .67.02.94.07s.51.12.69.21.32.2.42.34c.09.13.14.29.14.47 0 .17-.08.35-.24.52-.17.18-.42.35-.74.51-.33.16-.74.28-1.21.38-.47.09-1.02.14-1.63.14q-.855 0-1.5-.12c-.645-.12-.79-.2-1.06-.33-.27-.14-.48-.29-.61-.47a.84.84 0 0 1-.19-.52c-.01-.12 0-.25.04-.38m1.88-9.76q.315-.18.75-.18c.435 0 .58.08.84.23.27.15.51.37.71.64s.37.6.49.98.18.79.18 1.23c0 .3-.05.59-.16.85q-.15.39-.42.69c-.17.19-.38.35-.6.46-.5.24-1.07.21-1.51-.05a1.9 1.9 0 0 1-.63-.6c-.18-.26-.32-.56-.42-.91s-.15-.73-.15-1.14c0-.34.03-.66.1-.96.07-.29.17-.55.31-.76q.195-.3.51-.48" fill="#a40000"/></svg>