<svg xmlns="http://www.w3.org/2000/svg" height="237" width="246"><path d="m144.45 1.579 31.005 31.097v29.732h69.382v52.072h-17.053v90.48l-31.45 31.084H102.57L71.202 204.96v-29.818H32.828L1.713 144.058V32.668L32.828 1.574h111.62"/><path fill="#fff" d="M36.387 166.56h43.396v34.827l26.321 26.084h86.707l26.392-26.084v-95.493h17.065V70.999h-52.34v121.62h-69.262v-26.06h26.211l26.008-26.051v-34.615h-34.887v25.863h-17.332V70.998H62.474v34.895h17.308v25.863H45.1V44.729H132v26.269h34.886V36.244l-26.008-26.075H36.387L10.285 36.232v104.28l26.102 26.05"/><path fill="#cfb87c" d="M110.36 162.26h28.74l23.486-23.523v-28.553H136.3v25.854h-25.94V75.296H66.763v26.31h17.314v34.432H40.812V40.44H136.3v26.264h26.287V38.009L139.1 14.455H38.17L14.583 38.009v100.73l23.575 23.523H84.08v37.323l23.8 23.602h83.165l23.875-23.614v-97.966h17.047V75.296H188.22v121.59h-77.856v-34.631"/></svg>