<svg xmlns="http://www.w3.org/2000/svg" width="1000" height="1000"><path fill="rgba(255,255,255,0)" d="M0 0h1000v1000H0z"/><path d="M582.411 461.712c-7.703-16.1-27.79-22.476-44.95-14.243s-29.597 30.137-21.945 46.185 32.463 20.19 49.623 11.947c17.17-8.182 24.873-27.842 17.272-43.89m74.761-35.595A117.681 117.681 0 0 0 551.06 359.17c-16.946 0-34.269 3.724-50.531 11.478a116.916 116.916 0 0 0-40.594 31.983l40.808 33.106a63.865 63.865 0 0 1 22.424-17.64 64.783 64.783 0 0 1 27.842-6.325 64.824 64.824 0 0 1 58.713 36.983 64.681 64.681 0 0 1 6.325 27.892 64.875 64.875 0 0 1-36.982 58.662 64.681 64.681 0 0 1-27.311 6.326v52.55a116.253 116.253 0 0 0 49.95-11.477 117.426 117.426 0 0 0 66.894-106.06 118.14 118.14 0 0 0-11.426-50.532" fill="#7b2e3e"/><path d="M444.948 344.183c-7.652-16.048-32.463-20.19-49.623-12.008-17.16 8.234-24.863 27.893-17.211 43.94s27.74 22.425 44.9 14.243 29.596-30.127 21.944-46.175m15.028 58.387a63.865 63.865 0 0 1-22.475 17.64 64.171 64.171 0 0 1-27.893 6.376 65.069 65.069 0 0 1-58.662-36.983 65.018 65.018 0 0 1-6.325-27.892 64.814 64.814 0 0 1 36.982-58.663 64.885 64.885 0 0 1 27.413-6.376l-.05-52.55a116.998 116.998 0 0 0-49.95 11.476 117.426 117.426 0 0 0-66.946 106.113c0 16.945 3.723 34.217 11.477 50.48a117.477 117.477 0 0 0 106 66.946h.05a117.222 117.222 0 0 0 50.532-11.478 117.569 117.569 0 0 0 40.645-31.983z" fill="#706a7f"/><path d="M117.848 671.926c-15.14 0-26.831 13.926-26.831 30.127 0 16.262 11.691 30.126 26.831 30.126 13.018 0 19.762-5.366 25.24-13.385l-2.918-1.969c-4.621 6.213-10.15 11.212-18.282 11.212-10.518 0-17.69-9.508-17.69-26.352h39.482c0-19.71-11.58-29.76-25.822-29.76m-13.66 25.608c0-8.764 1.704-21.414 13.385-21.414 11.957 0 13.66 12.65 13.66 21.414zm92.87-25.607c-8.397 0-14.243 4.621-18.65 12.222h-.265V672.67l-19.13.744v4.142c6.48 0 8.662 1.225 8.662 5.101l-.05 48.032h11.528V697.43c0-9.243 5.846-20.618 14.875-20.618 4.52 0 9.722 2.55 9.722 13.18v40.697h11.477v-36.452c0-17.803-9.508-22.312-18.17-22.312m74.231 42.93c0 9.774-4.142 13.181-8.876 13.181-3.56 0-6.692-1.224-6.692-6.376v-44.104h16.945v-4.142H255.73v-19.027h-4.408c-3.183 14.875-4.621 18.068-15.997 19.027v4.142h8.927v39.748c0 12.059 6.59 14.874 15.14 14.874 12.06 0 15.354-6.804 15.354-17.802v-2.071h-3.458zm52.714-42.93c-10.15 0-14.19 7.6-16.741 17.323h-.215v-16.578l-19.394.744v4.142c6.59 0 8.764 1.225 8.764 5.101v48.032h11.426l.051-16.415c0-23.22 6.06-38.146 14.242-38.146l1.592.214a5.468 5.468 0 0 0-2.55 4.734c0 3.397 2.07 5.734 5.947 5.734 3.775 0 6.478-3.132 6.478-6.428 0-3.662-2.917-8.447-9.62-8.447m73.139 53.173c-2.286 0-3.775-.744-3.775-6.855v-29.495c0-12.916-7.754-16.843-23.649-16.843-11.11 0-20.72 6.274-20.72 13.65 0 3.663 2.918 7.121 7.07 7.121s7.07-3.458 7.07-7.121c0-3.397-1.969-5.846-5.264-6.427 3.662-2.337 7.223-3.03 11.477-3.03 4.622 0 12.59 1.438 12.59 7.55v11.313c-10.417 3.56-36.136 9.192-36.136 23.17 0 9.508 8.56 14.027 17.21 14.027 9.03 0 16.212-2.652 19.61-11.691h.264c.96 6.325 2.714 10.946 9.886 10.946 8.662 0 12.539-6.957 12.539-14.874h-3.398c0 2.918-.846 8.56-4.784 8.56m-15.202-15.62c0 10.365-6.743 17.588-14.395 17.588-5.733 0-8.56-3.927-8.56-9.406 0-10.63 14.396-16.68 22.955-18.813zm102.674-37.564c-15.089 0-26.78 13.926-26.78 30.127 0 16.262 11.691 30.126 26.78 30.126 13.07 0 19.762-5.366 25.24-13.385l-2.917-1.969c-4.622 6.213-10.1 11.212-18.283 11.212-10.467 0-17.69-9.508-17.69-26.352h39.523c0-19.71-11.58-29.76-25.873-29.76m-13.66 25.608c0-8.764 1.754-21.414 13.446-21.414 11.957 0 13.66 12.65 13.66 21.414zm171.946-24.128v4.142c7.335 0 9.508 1.224 9.508 5.101v27.311c-1.06 8.08-5.468 17.323-15.466 17.323-6.478 0-9.141-4.835-9.141-11.691v-42.186h-20.14v4.142c6.48 0 8.662 1.224 8.662 5.101v27.576c0 14.396 7.173 21.945 18.17 21.945 8.397 0 14.243-4.621 18.65-12.17h.265v10.68h10.467v-57.274zm-101.327-9.08c0-9.722 6.957-14.772 16.262-14.772 14.13 0 21.037 13.548 24.23 25.607h3.397v-28.27H581.3c-.367 1.224-1.908 5.58-3.775 5.58-2.918 0-8.763-7.07-19.873-7.07-13.018 0-26.087 8.56-26.087 23.17 0 32.462 48.776 16.261 48.776 43.674 0 9.886-8.927 15.936-19.66 15.936-16.68 0-24.23-9.508-26.943-22.475h-3.663c2.653 15.783 12.273 26.515 31.188 26.515 16.099-.05 29.066-10.304 29.066-27.209 0-29.963-48.776-17.425-48.776-40.696m179.118 7.6c-9.723 0-14.13 5.897-17.16 12.702h-.265v-11.212l-19.762.745v4.142c7.07 0 9.294 1.224 9.294 5.1v72.477h11.478l-.051-33.586h.265c3.663 6.958 7.652 9.886 16.313 9.886 14.66 0 25.607-14.61 25.607-30.77 0-15.2-11.426-29.494-25.72-29.494m-2.55 56.112c-4.04 0-13.925-3.775-13.925-22.312v-3.295c0-15.354 5.631-26.301 14.874-26.301 10.519 0 14.936 10.947 14.936 26.3 0 18.069-4.407 25.608-15.885 25.608m89.595-74.853c2.235-1.326 3.663-3.295 3.663-4.999 0-2.336-1.224-4.04-4.142-4.04-2.286 0-3.775 1.224-5.265 2.816l-17.904 18.17h4.887zm-15.466 18.762c-15.14 0-26.832 13.926-26.832 30.127 0 16.262 11.692 30.126 26.832 30.126 13.018 0 19.761-5.366 25.24-13.385l-2.918-1.969c-4.621 6.213-10.1 11.212-18.333 11.212-10.416 0-17.64-9.508-17.64-26.352h39.483c0-19.71-11.529-29.76-25.822-29.76m-13.66 25.608c0-8.764 1.703-21.414 13.385-21.414 11.956 0 13.66 12.65 13.66 21.414zm55.356-41.451c7.07 0 9.243 1.224 9.243 5.101l-.05 69.497h11.528v-79.485l-20.721.745zm162.968 60.682c-4.305 6.325-9.773 11.212-18.547 11.212-13.069 0-18.65-12.059-18.65-27.31 0-15.467 7.438-24.598 17.538-24.598 13.497 0 6.805 14.772 15.354 14.772 3.51 0 6.59-2.55 6.59-6.11 0-8.132-11.477-12.855-20.832-12.855-16.364 0-31.83 12.701-31.83 30.127s12.803 30.126 29.494 30.126c11.375 0 18.914-5.366 23.913-13.925zm-581.52-60.682c7.07 0 9.244 1.224 9.244 5.101l.05 69.497h11.376l.051-79.485-20.72.745zm487.151 15.844c-15.089 0-26.832 13.926-26.832 30.127 0 16.262 11.743 30.126 26.832 30.126 13.069 0 19.761-5.366 25.24-13.385l-2.918-1.969c-4.621 6.213-10.1 11.212-18.282 11.212-10.467 0-17.69-9.508-17.69-26.352h39.533c0-19.71-11.58-29.76-25.873-29.76m-13.66 25.608c0-8.764 1.754-21.414 13.446-21.414 11.906 0 13.66 12.65 13.66 21.414zM40.425 728.027c-10.631 0-25.24-9.988-25.24-39.268 0-26.464 8.018-39.268 25.607-39.268 15.568 0 21.302 13.284 25.077 26.832h3.346v-28.8h-2.98c-.693 2.234-2.764 4.672-4.998 4.672-2.071 0-10.835-6.856-21.68-6.856-22.21 0-38.574 20.833-38.574 43.41s16.364 43.41 37.248 43.41c20.241 0 30.025-10.304 32.78-26.515h-3.663c-2.765 12.916-10.304 22.373-26.944 22.373" fill="#151515"/></svg>