<svg xmlns="http://www.w3.org/2000/svg" width="1000" height="1000"><path fill="rgba(255,255,255,0)" d="M0 0h1000v1000H0z"/><g vector-effect="non-scaling-stroke" transform="matrix(3.0971 0 0 3.0971 483.355 660.7291)"><path d="M-396.85-561.258V561.234h793.681V-561.258H-396.85z" stroke="#1b1918" fill="none" stroke-width=".288"/><g fill="#0070a9" fill-rule="evenodd"><path d="M5.433-212.671c-88.834 0-160.869 72.025-160.869 160.787 0 88.844 72.036 160.873 160.872 160.873 88.856 0 160.879-72.029 160.879-160.873 0-88.762-72.022-160.787-160.881-160.787zm.011 317.912c-86.775 0-157.129-70.345-157.129-157.125 0-86.691 70.354-157.032 157.129-157.032s157.129 70.34 157.129 157.032c0 86.779-70.352 157.124-157.129 157.124zm-.009-312.526c-85.867 0-155.495 69.582-155.495 155.388 0 85.883 69.628 155.503 155.495 155.503 85.891 0 155.511-69.62 155.511-155.503 0-85.806-69.618-155.388-155.511-155.388zm0 309.888c-85.313 0-154.489-69.172-154.489-154.499 0-85.251 69.176-154.383 154.489-154.383 85.339 0 154.503 69.132 154.503 154.383 0 85.327-69.164 154.499-154.503 154.499zm-53.703-25.534c-1.307-1.597-1.628-2.025-.636-2.483.987-.447 4.485.049 3.527-2.849-.655-1.371-3.076-2.56-4.48-2.641 1.251-1.861 2.937-3.821 1.441-5.861-1.767-2.396-1.927-.844-2.416-.009l-3.123 5.24c-.676.003-3.844.108-4.98.627-1.129.513-1.963.52-2.056-.213-.063-.504-.067-3.461-1.912.053-1.933 3.769.433 6.224 1.453 4.475 1.016-1.763.835-1.968 1.713-2.232.884-.269 5.172-1.399 3.989.456-1.003 2.263-1.511 2.059-2.349 2.253s-2.379.765-.267 2.487l-3.236 5.504c-.42.708-.497 3.424 1.557 2.216.363-.285.684-.86 1.208-1.628 3.083-4.756 3.071-6.439 4.768-5.789 3.457 2.012 7.034 2.725 5.797.396zm-2.985-3.876s-.669.076-.945-.619c-.051-1.696 1.883-1.453 1.883-1.453 1.324.24 2.601 1.619-.937 2.072zm38.391 2.833c.309-1.593-.393-2.997-2.103-.549 0 0-.293.853-1.263.573-.972-.292-4.737-1.84-3.507 1.241.419.887 2.048.991 2.603 1.127s1.709.609.001 2.005c-.707.569-1.792 1.815-2.767 2.748-1.755 1.221-2.533 2.323-1.559 2.789 1.597.343 3.409-.715 6.377-5.365 0 0 1.115-2.107 2.813-1.819 1.653.128 5.267-.171 4.06-1.92-.707-.46-1.929-.277-2.432-.072-.5.191-2.04.169-2.225-.759zm-10.536 9.98c.195-.879-.16-4.86-2.093-1.077-1.94 3.792-1.859 5.128-1.256 6.347s2.195 2.063 2.665-.045c.484-2.108.477-4.343.684-5.224z"/><path d="M-18.699 87.803c.141-.28.599-.364.813-.489.835-.507.773-1.275-1.035-1.316-2.205.285-2.104 1.893-1.168 1.803 0 0 1.2.248.467.847-.744.612-.645 1.319 1.413 1.637 0 0 2.052.733-.32 1.283 0 0-1.2.076-1.817.019-.627-.067-1.645.933-.049 1.287 1.592.343 2.404.227 2.063 1.573-1.5 4.531.612 4.556 1.153 2.324l.683-3.153c.307-.86 1.029-1.192 1.657-.812 1.887 1.029 3.881-.977 1.024-1.74 0 0-2.12-.529-.669-.769 1.885-.143 3.024-1.016 1.221-1.644 0 0-1.611-.493.104-1.737.984-.681-.453-.531-.48-1.139-.093-.424.647-.395 1.152-.451.524-.061 8.64-.929 6.758 3.387-1.691 4.323-2.647 5.86-3.311 6.928-.653.625-1.528 2.101-2.22.539-1.005-1.593-1.907-.288-.981 1.549 1.244 1.6 1.989 2.343 3.709.683 1.737-1.655 5.347-8.398 5.884-11.72.288-1.135-.312-2.672-2.312-3.12-1.591-.2-6.693-.315-8.589.189s-1.716.871-1.359 1.613c-.088 1.129-1.087 2.389-1.987 2.701-.723.265-2.177.856-1.805-.271zm42.766-9.845c-.121-.843-2.677-4.539-3.296-1.953.453 2.611 1.032 6.789 1.153 7.586s.408 1.476-.768 2.109-8.061 2.18-6.912 4.084c1.724 1.472 3.147.392 3.805-.036.669-.411 3.957-2.947 3.573-.671-1.008 2.056-3.012 4.952-3.411 5.649-.391.685-.395 2.733 2.263.839 2.643-2.001 3.499-5.656 3.317-6.861-.176-1.163.3-2.213 1.388-2.477 1.491-.36 7.226-.547 7.224-3.551-.172-1.423-1.128-1.18-2.76-.259s-5.249 2.153-5.473.693c-.289-1.865-.104-5.153-.104-5.153zm5.013 13.308c.9.888 4.595 5.516 6.331 4.935 1.724-.583 1.845-3.049-.86-4.448-2.7-1.411-5.903-3.071-6.124-2.179-.233.903.328 1.375.653 1.692zM-124.611-17.066l.053-3.733c2.056-.049 3.729.395 5.016 1.332s2.213 2.34 2.776 4.208c.696 2.311.477 4.448-.653 6.412s-3.067 3.355-5.805 4.18c-2.896.872-5.371.8-7.425-.212s-3.445-2.739-4.179-5.177c-.64-2.127-.533-4.048.327-5.756.507-1.016 1.396-1.931 2.669-2.745l1.877 3.228c-.84.477-1.423 1.121-1.749 1.932s-.347 1.681-.067 2.615c.388 1.292 1.165 2.197 2.333 2.723s2.789.476 4.863-.148c2.2-.663 3.648-1.531 4.344-2.603s.853-2.241.472-3.508a3.67 3.67 0 0 0-1.616-2.143c-.795-.493-1.875-.696-3.237-.604zm3.981-12.456l-18.049 2.256-1.672-13.384 3.053-.381 1.216 9.737 4.001-.499-1.131-9.06 3.04-.381 1.132 9.061 4.912-.613-1.259-10.084 3.04-.38 1.716 13.728zm-2.015-20.958l-18.158-.82.16-3.567 12.462-6.885-12.126-.548.153-3.405 18.16.82-.168 3.677-12.17 6.786 11.841.533-.153 3.407zm2.62-26.299l-14.78-3.16-1.128 5.28-3.011-.644 3.021-14.136 3.011.643-1.127 5.267 14.78 3.157-.768 3.593zm3.757-15.048l-16.91-6.668 2.833-7.186c.713-1.808 1.383-3.061 2.009-3.76s1.427-1.143 2.395-1.329c.973-.187 1.957-.081 2.957.312 1.268.501 2.169 1.288 2.703 2.36s.613 2.393.243 3.961a8.59 8.59 0 0 1 2.141-1.269c.704-.277 1.873-.565 3.511-.861l4.113-.764-1.609 4.084-4.653 1.017c-1.661.359-2.727.632-3.196.82s-.84.439-1.108.749-.56.859-.868 1.643l-.273.693 7.058 2.783-1.345 3.416zm-8.413-7.264l.996-2.527c.647-1.637.981-2.687 1.004-3.149a1.97 1.97 0 0 0-.339-1.24c-.248-.364-.624-.647-1.133-.847-.568-.224-1.087-.253-1.557-.087s-.86.507-1.171 1.024c-.147.261-.493 1.085-1.04 2.468l-1.051 2.667 4.292 1.691zm25.841-27.298l-2.091 3.407-4.355-.808-3.804 6.201 2.737 3.441-2.039 3.323-11.802-15.56 2.032-3.312 19.32 3.308zm-9.674 2l-7.066-1.393 4.469 5.627 2.597-4.232zm13.505-6.778l-13.629-11.802 2.401-2.773 11.316 9.796 5.973-6.898 2.317 2.005-8.378 9.673zm26.517-32.451l2.912-2.099c.791.929 1.612 1.468 2.464 1.624s1.76-.049 2.724-.612c1.023-.597 1.665-1.261 1.932-1.996s.231-1.389-.107-1.969a1.66 1.66 0 0 0-.88-.759c-.372-.133-.884-.137-1.539-.015-.447.088-1.427.352-2.94.795-1.948.569-3.444.749-4.488.535-1.468-.303-2.567-1.075-3.291-2.32a4.68 4.68 0 0 1-.629-2.64c.048-.964.393-1.876 1.033-2.739s1.568-1.644 2.775-2.348c1.972-1.151 3.709-1.583 5.209-1.301s2.697 1.133 3.589 2.547l-3.091 1.991c-.608-.729-1.237-1.14-1.891-1.232s-1.425.12-2.319.64c-.923.537-1.533 1.148-1.833 1.831-.196.406-.172.885.064 1.269.217.372.56.6 1.027.68.597.103 1.773-.115 3.529-.649s3.117-.825 4.085-.867a5.11 5.11 0 0 1 2.667.583c.813.432 1.507 1.145 2.087 2.139.525.9.767 1.889.725 2.967s-.409 2.076-1.1 2.992-1.721 1.771-3.085 2.565c-1.987 1.16-3.78 1.589-5.381 1.292s-3.015-1.264-4.248-2.903zm18.44-13.621c-.636-1.737-.909-3.292-.823-4.661.07-1.009.317-1.997.731-2.92a7.09 7.09 0 0 1 1.641-2.345c.897-.84 2.041-1.513 3.431-2.021 2.513-.921 4.809-.88 6.89.125s3.629 2.899 4.648 5.676c1.008 2.753 1.049 5.183.124 7.286s-2.644 3.616-5.149 4.535c-2.537.931-4.839.896-6.902-.103s-3.593-2.857-4.589-5.572zm3.508-1.417c.707 1.933 1.691 3.233 2.947 3.903s2.573.753 3.947.249 2.32-1.411 2.837-2.723.413-2.955-.311-4.933c-.717-1.957-1.68-3.257-2.891-3.905s-2.524-.711-3.944-.192-2.384 1.427-2.897 2.72-.407 2.92.312 4.881zm19.798-15.805l3.619-.625 1.677 9.706c.267 1.54.484 2.531.653 2.971a2.94 2.94 0 0 0 1.411 1.576c.659.343 1.493.427 2.507.253 1.025-.179 1.764-.52 2.213-1.032s.673-1.079.673-1.708-.123-1.653-.367-3.072l-1.715-9.913 3.619-.625 1.627 9.413c.372 2.151.537 3.688.496 4.609s-.275 1.735-.693 2.436-1.04 1.311-1.857 1.827-1.935.893-3.352 1.14c-1.712.293-3.044.321-3.996.079s-1.74-.635-2.363-1.176-1.076-1.148-1.359-1.813c-.413-.987-.793-2.48-1.14-4.487l-1.653-9.558zm29.382 14.794l-.133-15.1-5.393.047-.027-3.073 14.442-.127.027 3.075-5.379.047.132 15.1-3.669.032zm15.51.391l2.833-17.973 3.629.573-1.116 7.072 7.112 1.123 1.115-7.074 3.627.573-2.832 17.972-3.628-.573 1.239-7.856-7.11-1.123-1.24 7.857-3.627-.571zm51.603-3.855l3.211 1.781-4.777 8.609c-.759 1.365-1.209 2.275-1.355 2.721a2.95 2.95 0 0 0 .112 2.112c.299.68.897 1.269 1.793 1.767.911.504 1.7.7 2.369.584s1.2-.419 1.596-.908.941-1.364 1.64-2.621l4.877-8.794 3.211 1.78-4.632 8.35c-1.06 1.907-1.895 3.208-2.507 3.9s-1.297 1.18-2.065 1.463-1.629.369-2.588.26-2.069-.517-3.327-1.215c-1.519-.843-2.572-1.657-3.161-2.443s-.957-1.584-1.101-2.397-.12-1.567.077-2.263c.295-1.027.936-2.429 1.923-4.207l4.704-8.48zm10.5 27.397l11.444-14.129 2.776 2.248-1.86 14.12 7.642-9.436 2.651 2.147-11.445 14.129-2.861-2.32 1.767-13.826-7.462 9.214-2.651-2.147zm16.733 14.661l13.182-12.513 2.525 2.661-13.181 12.512-2.527-2.66zm10.349 12l10.802-16.002 2.357 3.208-8.117 11.676 13.48-4.381 2.305 3.139-18.506 5.52-2.32-3.157zm9.18 13.577l16.216-8.204 6.084 12.022-2.744 1.387-4.427-8.746-3.595 1.817 4.119 8.14-2.733 1.383-4.117-8.141-4.413 2.233 4.584 9.057-2.733 1.384-6.24-12.333zm8.946 19.032l17.39-5.331 2.265 7.39c.569 1.859.827 3.256.773 4.196s-.404 1.783-1.047 2.533-1.48 1.284-2.507 1.599c-1.307.4-2.501.347-3.587-.16s-1.973-1.488-2.661-2.947c-.211.895-.504 1.669-.883 2.328-.377.653-1.115 1.609-2.211 2.863l-2.743 3.164-1.287-4.2 3.007-3.699c1.075-1.316 1.739-2.196 1.988-2.633s.384-.867.4-1.279-.099-1.021-.345-1.827l-.219-.712-7.26 2.225-1.076-3.512zm11.112.436l.797 2.599c.515 1.683.909 2.713 1.18 3.089s.617.628 1.037.757.892.116 1.413-.043c.585-.179 1.009-.48 1.275-.903s.356-.933.277-1.533c-.049-.293-.291-1.156-.725-2.58l-.841-2.74-4.413 1.353zm.505 19.482l.805 3.499c-1.16.368-1.977.913-2.451 1.639s-.637 1.64-.493 2.747c.152 1.173.515 2.024 1.089 2.555s1.193.752 1.856.665c.427-.055.773-.228 1.04-.516s.471-.76.611-1.413c.092-.444.228-1.451.409-3.017.228-2.013.645-3.461 1.248-4.34.848-1.237 1.987-1.948 3.413-2.133a4.66 4.66 0 0 1 2.68.445c.867.418 1.573 1.088 2.119 2.013s.909 2.083 1.089 3.467c.293 2.265.02 4.033-.824 5.307s-2.089 2.045-3.739 2.319l-.633-3.62c.907-.276 1.528-.699 1.868-1.264s.443-1.36.308-2.387c-.137-1.056-.461-1.857-.973-2.397-.298-.339-.748-.503-1.195-.435-.427.056-.769.284-1.027.685-.325.509-.581 1.676-.769 3.501s-.449 3.193-.787 4.1a5.11 5.11 0 0 1-1.573 2.232c-.713.58-1.64.944-2.779 1.093a5.37 5.37 0 0 1-3.016-.484c-.977-.457-1.753-1.181-2.328-2.173s-.964-2.275-1.169-3.84c-.293-2.28.003-4.1.899-5.457s2.335-2.288 4.321-2.789zm-3.824 22.494l18.186-.08.016 3.672-18.186.08-.016-3.672zm-.636 15.27l15 1.751.624-5.357 3.055.356-1.673 14.346-3.053-.357.623-5.343-15-1.751.427-3.644zm-3.657 19.92l7.365 2.084 11.95-3.54-1.173 4.143-8.089 2.159 5.78 5.996-1.153 4.069-8.333-9.31-7.342-2.08.997-3.52zM5.436-176.05c-68.612 0-124.249 55.6-124.249 124.165 0 68.625 55.639 124.258 124.25 124.258 68.633 0 124.264-55.632 124.264-124.258 0-68.565-55.631-124.165-124.264-124.165zm0 246.651c-67.634 0-122.477-54.839-122.477-122.485 0-67.586 54.843-122.394 122.477-122.394 67.658 0 122.493 54.808 122.493 122.394 0 67.646-54.835 122.485-122.493 122.485zm53.64 5.141c.827-.36 1.217-1.787-.047-4.496-.335-.717-2.267-2.039-2.171.107.381 1.829.607 1.96.787 2.911 0 0 .588 1.845 1.431 1.48zm-4.664 3.499c-.621 2.681.373 5.08 1.621 4.701 1.257-.371 1.157-2.291.487-4.092-.289-.784-1.48-3.295-2.107-.609z"/><path d="M73.214 67.448c-1.213-.747-2.513.605-2.713 1.071-.192.475-1.899 1.585-1.739-1.181.013-2 2.056-3.987.621-5.235-1.428-1.236-3.445.032-3.649 1.277-.204 1.239.515.796 1.481.704.423-.111.543 1.203.419 2.173-.119.964-.485 1.045-.711-.125-.243-1.16-1.749-.788-2.385-.245-.617.539-1.249-.288-.7-1.46.311-1.387-2.407-3.636-3.124-1.919 0 0-.161 1.159 1.187 1.333.945.343-.669 3.971-1.615 2.707-.325-.436-2.443-3.28-1.672-.089.765 3.184 2.539 7.198 2.667 7.581.14.377.151.84-.173 1.127-.319.3-6.117 3.477-3.192 3.875 1.541-.187 2.507-.987 3.213-1.912.695-.931 6.552-4.524 7.361-5.336.804-.829 3.068-1.907 2.368-.459-.707.527.275 1.911 2.632-.315.781-.699 1.528-2.533-.276-3.572zm-8.874 3.716c.2.993-.733 2.16-1.219 1.808-.489-.376-.993-1.983-1.445-4.107-.244-1.987 2.109-1.485 1.752-.289-.027.325-.477 1.027-.303 1.528.179.511 1.005.064 1.213 1.06zm1.965.747c-1.049 1.047-.88-.543-.673-.975s.121-1.327-.68-1.368c-.792-.031-.416-.988.247-2.252.651-1.271 1.128-.04 1.007.423-.4 1.472-.043 1.512 1.079 1.653.872.16.083 1.467-.977 2.52zm2.972 6.483c-1.225.576-1.496.031-.125-1.769 1.671-2.339.645-3.232-1.443-1.96-.947.445-1.188.567-2.347 1.523-.736.608-1.213.768-2.545 2.451-1.985 2.881 1.879 1.752 2.213.579 1.083-2.313 2.197.047 1.883.759-.157.587-1.825 1.323-3.027 3.885-1.2 2.555 1.955 3.076 5.525 1.555 1.635-.768 2.183-3.272 1.68-4.096s-.819-1.811.177-2.237c3.432-1.173.081-2.387-1.993-.688zm-.561 4.907s-.06.627-1.039.893c-1.992.281-1.643-.843-.043-2.263 1.607-1.425 1.356.809 1.08 1.369zM5.436-172.419c-66.606 0-120.617 53.975-120.617 120.536 0 66.62 54.011 120.625 120.617 120.625 66.629 0 120.633-54.005 120.633-120.625 0-66.561-54.004-120.536-120.633-120.536zM-92.171-36.346c-13.296-13.285 1.191-29.91 1.191-29.91l26.726-26.554 29.861 29.861-6.73 6.729-15.372-15.369-8.728 8.72s-12.285 11.538-1.604 22.199l15.734 15.733 26.713-26.706L-9.76-37.038-51.315 4.505-92.171-36.348zM18.97 45.898c-13.261 13.28-28.698-.72-28.698-.72L-43.692 10.37-2.341-30.598l6.805 6.806-26.706 26.705 16.837 16.784s10.194 12.34 20.853 1.671L39.586-2.772-57.533-99.766l48.619-48.595c13.317-13.322 28.709.623 28.709.623l41.29 41.17L18.75-64.235l-6.653-6.651 27.679-27.679-24.037-24.022s-10.509-11.95-21.206-1.253l-24.49 24.469 97.11 97.079L18.97 45.898zM74.54-8.751L26.007-57.282l6.728-6.726 33.919 33.911 3.907-3.847 8.706-8.706c8.057-8.057-3.445-19.904-3.445-19.904L53.343-85.028 67.932-99.61l33.46 33.434s15.065 15.428 5.023 25.453L74.54-8.751z"/></g></g></svg>