<svg xmlns="http://www.w3.org/2000/svg" xmlns:xlink="http://www.w3.org/1999/xlink" width="1000" height="1000"><path fill="rgba(255,255,255,0)" d="M0 0h1000v1000H0z"/><path d="M292.345 517.805c-7.586 5.277-16.82 8.08-27.87 8.246-12.698.33-24.242-3.958-32.322-11.874-7.421-7.42-11.379-17.15-11.05-28.364.166-11.709 4.453-22.263 12.369-29.849 7.75-7.586 18.47-11.544 30.343-11.379 8.74.165 14.348 1.65 21.933 5.937l3.629 2.144v-15.667l-1.485-.66c-8.575-3.627-14.347-4.287-24.241-4.452-16.986-.165-32.488 5.772-43.372 16.656-9.894 9.73-15.171 22.923-15.171 37.105 0 14.677 5.771 28.2 15.996 37.93 11.049 10.553 26.55 15.995 43.536 15.17h1.32c8.74-.164 14.511-.329 23.252-3.627l.99-.33 8.904-21.933-6.761 4.947zm84.929-39.578c-6.597-6.926-15.667-10.884-25.397-11.05-9.564-.164-18.964 3.629-25.726 10.39s-10.554 15.502-10.554 24.902c0 19.294 15.832 35.29 35.126 35.455 9.73.165 18.8-3.463 25.726-10.224 6.761-6.597 10.554-15.172 10.72-24.572a34.598 34.598 0 0 0-9.895-24.901m-25.891 47.989c-11.544 0-20.779-10.225-20.944-23.253 0-7.09 2.639-13.852 7.256-18.47 3.793-3.792 8.575-5.606 13.853-5.442 11.543.495 20.943 11.05 20.943 23.583v.824c-.495 12.533-9.894 22.758-21.108 22.758m203.993-4.123c-3.957 2.803-11.214 4.782-18.634 5.112-6.432.165-12.534-2.309-17.151-6.926s-7.091-10.884-6.926-17.48c0-13.523 10.06-23.912 23.582-24.077 5.937-.165 12.203 1.814 16.161 4.782l3.958 2.968v-15.501l-1.484-.66c-6.762-2.803-11.544-2.803-18.14-2.968h-.66c-11.05-.33-20.944 3.463-28.2 10.719-6.431 6.431-10.06 15.007-10.06 24.407v.824c.166 9.565 3.794 18.305 10.555 24.737 7.256 6.926 17.316 10.389 28.53 10.06h2.143c6.102-.166 10.884-.33 17.15-2.97l.496-.164.824-.33 2.639-15.831-4.783 3.298zm88.392-43.866c-6.761-7.091-15.666-11.05-25.396-11.214-9.565-.165-18.965 3.628-25.726 10.39s-10.554 15.5-10.554 24.9c0 19.295 15.831 35.291 35.126 35.456 9.73.165 18.8-3.463 25.726-10.224 6.76-6.596 10.554-15.172 10.554-24.572v-.824c.165-8.74-3.298-17.316-9.73-23.912m-25.89 47.989c-11.544 0-20.78-10.225-20.944-23.253 0-7.09 2.638-13.852 7.256-18.47 3.793-3.792 8.575-5.606 13.852-5.442 11.709.66 20.944 10.884 20.944 23.583v.824c-.33 12.533-9.73 22.758-21.109 22.758m345.652 10.719-1.98-3.628c-.824-1.484-1.154-2.309-1.484-3.958-.494-1.65-.66-2.474-.66-4.288v-34.63c0-15.502-8.74-23.088-27.374-23.748-6.926 0-13.688.33-20.614 4.618l-1.154.66v14.346l4.122-3.628c3.628-3.133 9.235-4.617 17.316-4.617 7.586 0 13.358 3.793 13.358 8.905 0 4.453-2.31 5.607-7.421 6.432 0 0-1.155.165-13.358 2.308-13.358 1.98-19.13 7.916-19.624 19.79v1.319c0 5.277 1.814 10.06 5.442 13.852 4.452 4.618 11.379 7.256 18.8 7.256 5.112-.165 10.884-.824 16.49-4.452v3.793l18.14-.33zm-17.646-33.642v12.039c0 7.256-7.75 11.543-15.171 11.708-3.629 0-7.257-1.319-9.565-3.793-1.65-1.814-2.474-3.793-2.474-6.101v-.825c.33-4.947 3.793-8.41 9.565-9.4l12.038-2.309c0 .165 3.463-.66 5.607-1.319M457.75 534.461l-3.463 4.288h24.076l-3.133-3.958c-.824-.99-1.154-1.484-1.32-2.309-.659-2.308-.659-3.463-.659-5.442v-32.982c0-6.761-2.803-13.193-7.916-17.975-5.442-5.277-13.027-8.08-20.943-7.586-6.926.165-12.203 1.98-16.82 5.607v-3.298H410.42l2.31 6.431v-.164c0 .33.164.66.164.824l.495 2.474v50.627c0 .825-.165 1.154-.33 1.814l-.99 2.144-1.154 1.814-1.484 2.144h22.098l-3.133-6.432c-.66-1.979-.66-3.298-.66-5.772v-31.992c0-8.41 5.937-14.512 14.512-14.842 4.947-.165 10.06 1.65 13.193 4.782 2.144 2.144 3.298 4.783 3.298 7.586v40.238c.165.495 0 .825-.99 1.98m260.723-68.274c-5.112-.824-9.4-.164-13.522 2.144-1.814.99-3.134 2.144-4.453 3.298v-2.638h-19.954l2.804 3.463c1.154 1.484 1.814 2.144 2.308 3.628.495 1.32.66 2.309.66 3.793v46.34c0 1.814 0 2.968-.495 4.452-.165.825-.495 1.155-.99 1.98l-2.968 4.617h24.242l-2.474-3.793c-.989-1.65-1.484-2.639-1.978-4.288-.66-2.309-.825-3.463-.825-5.937v-28.2c0-6.266 2.803-12.038 6.926-14.346 3.133-1.814 5.772-1.98 9.4-.825l3.298.99v-14.183l-1.979-.495zm148.914-24.901H851.06v16.82h16.326v-16.82zm-15.501 92.02-2.969 4.123h22.263l-2.639-4.453-.824-1.814c-.33-.825-.33-1.32-.33-2.803v-59.368h-19.294l2.968 2.968c.66.66.99 1.155 1.484 2.144.33.825.33 1.32.33 2.309v53.266l-.165 2.309c-.165.164-.33.494-.824 1.319m-38.424 3.958-3.299-4.783c-.66-.824-.824-1.319-.99-1.979-.824-5.277-.824-8.245-.824-13.852v-83.115h-19.624l3.463 3.958.99 1.32v.164l.33 1.814-.166 30.509c-5.277-3.793-10.719-5.442-17.48-5.113-19.624.66-31.168 13.523-31.498 35.291-.165 11.05 3.958 21.603 11.05 28.365 5.936 5.607 13.522 8.41 22.097 8.08 6.267-.165 11.05-1.649 15.996-4.782v3.628h19.955zM794 494.553v15.172c0 5.277-1.649 9.564-4.782 12.533-2.969 2.803-7.091 4.123-12.039 3.793-4.782-.165-9.07-2.309-12.368-6.267-4.453-5.112-6.596-12.698-5.772-20.119.99-9.235 5.112-20.284 18.305-20.943 4.618-.165 8.905 1.319 12.039 4.287 2.968 2.969 4.617 6.926 4.617 11.544" fill="#980027"/><g fill="#ba9866" transform="translate(508.377 499.995) scale(1.6491)"><path d="M-107.6-65.3v7.9c0 4.6-3.1 6.2-7 6.2-4 0-7-1.9-7-6.2v-7.9h3.5v8c0 2 1.4 3.2 3.5 3.2 1.8 0 3.5-1 3.5-3.5v-7.8h3.5zm33.6 14h-2.9l-7.7-8.9v8.9h-3.5v-14h3.2l7.4 8.6v-8.6h3.5zm19.8-14h3.5v13.9h-3.5zm29.9 14.2h-1.5l-6.7-14.2h3.8l3.6 8 3.5-8h3.8zm34.9-.2H.3v-14h10.1v2.6H3.8v2.9h6.3v2.6H3.8v3.3h6.8zm25.4-14c2.9 0 4.6 1.9 4.6 4 0 1.5-.8 2.7-2.4 3.4 1.4.7 1.9 2.4 3.8 6.5h-3.8c-1.5-3-2-5.7-3.9-5.7h-1v5.7h-3.5v-13.9H36zm-2.8 5.8H35c1 0 1.9-.4 1.9-1.6 0-1-.7-1.6-2-1.6h-1.8v3.2z"/><use xlink:href="#a"/><path d="M89.1-65.3h3.5v13.9h-3.5zm35.9 2.6h-5.1v11.4h-3.5v-11.4h-5v-2.6H125zm28.9 11.4h-10.3v-13.9h10.1v2.6H147v2.9h6.4v2.6H147v3.4h6.8v2.4zm-5.5-15.3h-1.5l1.5-3h3.4l-3.4 3zM30.3 51.9v7.9c0 4.6-3.1 6.2-7 6.2-4 0-7-1.9-7-6.2v-7.9h3.5v8c0 2 1.4 3.2 3.5 3.2 1.8 0 3.5-1 3.5-3.5v-7.8h3.5zm33.6 13.9H61l-7.7-8.9v8.9h-3.5V51.9H53l7.5 8.5v-8.5h3.4zm19.8-13.9h3.5v13.9h-3.5zm30 14.1h-1.6l-6.7-14.1h3.8l3.7 8 3.4-8h3.8zm34.8-.2h-10.3V51.9h10.2v2.6h-6.7v2.9h6.4v2.5h-6.4v3.4h6.8zm25.4-13.9c2.9 0 4.6 1.9 4.6 4 0 1.5-.8 2.7-2.4 3.4 1.4.7 1.9 2.4 3.8 6.5h-3.8c-1.5-3-2-5.7-3.9-5.7h-1v5.7h-3.5V51.9h6.2zm-2.7 5.7h1.8c1 0 1.9-.4 1.9-1.6 0-1-.7-1.6-2-1.6h-1.8v3.2z"/><use xlink:href="#a" x="137.9" y="117.1"/><path d="M227.1 51.9h3.5v13.9h-3.5zm35.8 2.6h-5.1v11.3h-3.4V54.5h-5.1v-2.6h13.6zm22.6 4.8-5.5-7.4h4.2l3 4.4 3-4.4h4.2l-5.5 7.4v6.5h-3.4z"/></g><path d="m102.039 473.28 69.922-32.982-3.134 16.985.99 1.98 26.88-44.362H4.412l27.045 45.186z" fill="#d7c1a0"/><g fill="#fff"><path d="m101.214 473.94-71.076-13.358-.99-4.288 2.31 3.793 70.58 13.193 12.699-5.937z"/><path d="m102.039 473.28-70.582-13.358-2.308-3.793-4.618-21.603c3.463 2.638 40.568 15.501 48.154 17.975-4.948-8.08-12.863-15.831-20.284-23.417 5.277 5.442 14.677 10.719 22.098 15.336a110.68 110.68 0 0 0 8.74 5.113c-.33-8.576-4.453-17.151-7.586-25.397 2.309 6.267 9.235 13.028 14.347 18.965 1.485 1.65 2.969 3.298 4.783 4.947 4.122-8.245 5.607-17.15 5.772-25.56-.165 7.75 1.484 17.48 5.771 25.395 2.144-1.978 3.958-4.122 5.772-6.101 4.783-5.607 11.05-11.874 13.358-17.646-3.133 8.41-6.926 16.986-7.421 25.561 12.038-6.101 21.438-14.017 30.673-20.778-7.42 5.442-12.533 12.863-17.315 19.13-.99 1.319-2.144 2.803-2.969 4.287h.165c7.586-2.474 44.196-13.358 44.196-13.358l-57.718 28.035-13.028 6.267"/></g><path d="M99.07 374.828c-56.564-3.958-88.062 5.937-93.833 7.091v15.832c16.49-3.628 45.845-8.74 87.402-10.06h.165c57.059-1.154 92.184 5.607 102.08 8.08-.166 0-33.148-15.336-95.814-20.943m73.715 155.675c-24.242 29.52-57.883 50.628-71.57 56.73C80.6 577.667 31.291 543.86 9.03 478.061l-1.485-5.607.99 7.256v-.165l2.638 12.368c20.614 70.417 70.912 107.027 89.876 117.087 14.842-7.751 47.824-36.116 71.736-78.498" fill="#980027"/><path d="M27.664 438.978 38.22 501.81s24.901 37.435 60.357 57.389v-83.28l-70.912-36.94zm76.354 34.631v85.424c.66-.495 1.484-.825 2.144-1.32.66-.33 1.154-.66 1.814-1.154v-84.104l-3.958 1.154z" fill="#ba9866"/><path d="M176.743 435.845s-58.213 30.179-75.859 31.828c-19.624-1.98-73.22-28.695-73.22-28.695 34.467 28.695 72.23 37.6 73.715 38.095s28.53-5.607 67.613-33.477c-.33 6.101-2.144 23.912-5.442 44.196l13.193-51.947z" fill="#980027"/><defs><path id="a" d="M69.5-61.6c-2-.9-3.2-1.2-4.4-1.2s-2 .5-2 1.1c0 2.1 7.1 1.5 7.1 6.4 0 2.7-2.2 4.2-5.4 4.2-2.4 0-3.6-.6-5-1.3v-3c2 1.3 3.2 1.8 4.8 1.8 1.3 0 2-.5 2-1.3 0-2.3-7.1-1.5-7.1-6.5 0-2.4 2.1-4 5.3-4 1.6 0 3 .3 4.7 1.1v2.7z"/></defs></svg>