<svg xmlns="http://www.w3.org/2000/svg" height="311.167" width="303.805"><defs><clipPath id="a"><path d="M0 233.375h227.854V0H0z"/></clipPath></defs><g clip-path="url(#a)" transform="matrix(1.33333 0 0 -1.33333 0 311.167)"><g fill="#00569a"><path d="M16.758 66.592c-6.321 17.709-7.484 33.262-7.689 39.13v98.549a71.72 71.72 0 0 1-6.054.957c-.013 0-.371.056-.548.056-1.36 0-2.468-1.1-2.468-2.455v-96.871c.318-8.97 3.799-55.229 41.25-80.466a98.318 98.318 0 0 1 3.45-2.207c-12.32 11.288-21.694 25.797-27.941 43.307m198.919 39.528v105.921a3.224 3.224 0 0 1-2.803 3.202c-.044.006-.46.049-.759.012a82.922 82.922 0 0 1-16.012-3.556c-4.799-1.585-8.025-6.104-8.025-11.251V128.23a76.194 76.194 0 0 0 2.008-17.417c0-41.995-34.163-76.165-76.159-76.165s-76.165 34.17-76.165 76.165c0 5.998.696 11.842 2.014 17.442v72.193c0 5.166-3.344 9.722-8.324 11.344a83.437 83.437 0 0 1-15.608 3.451 6.13 6.13 0 0 1-.429.03 3.235 3.235 0 0 1-3.238-3.232V105.778c.348-9.896 4.184-60.923 45.495-88.759l.883-.584a96.32 96.32 0 0 1 3.412-2.145c.243-.149.485-.285.715-.422l.23-.137 1.486-.845c.037-.019.075-.044.112-.062l.305-.168c.13-.081.266-.156.403-.23a107.686 107.686 0 0 1 4.669-2.387l.578-.274a98.244 98.244 0 0 1 13.439-5.24l1.367-.423A101.586 101.586 0 0 1 113.934 0c10.908 0 21.643 1.722 31.913 5.122l2.007.69.075.025.056.025a48.96 48.96 0 0 1 1.485.541l1.449.553.385.143 1.274.522.094.037 1.491.628 1.542.684 1.741.808c.049.025.105.05.155.074 1.983.945 3.934 1.965 5.855 3.034a104.035 104.035 0 0 1 5.906 3.574c.323.205.633.416.945.621l.944.641c40.567 28.165 44.121 78.583 44.426 88.398M42.884 138.276c11.04 28.463 38.726 48.696 71.043 48.696 32.323 0 60.004-20.239 71.043-48.709v62.185c0 1.536.23 3.028.659 4.432-18.71 17.667-43.941 28.495-71.702 28.495-27.767 0-53.004-10.835-71.714-28.501a14.74 14.74 0 0 0 .671-4.426z"/><path d="M59.058 83.761C62.757 74.35 68.321 66.07 75.22 59.5h-8.224c-7.334 6.713-13.234 14.974-17.163 24.261zm-14.694 26.12h9.64c.107-8.566 1.642-16.746 4.352-24.255h-9.28a69.11 69.11 0 0 0-4.712 24.255M49.076 136h9.286c-2.716-7.509-4.251-15.689-4.358-24.255h-9.64A69.11 69.11 0 0 0 49.076 136m17.926 26.12h8.224c-6.899-6.564-12.463-14.844-16.161-24.255h-9.232a69.753 69.753 0 0 0 17.169 24.255m46.919 18.263c17.051 0 32.697-6.166 44.805-16.398H69.122c12.109 10.232 27.749 16.398 44.799 16.398m64.094-42.518h-9.231c-3.699 9.411-9.262 17.691-16.162 24.255h8.224a69.74 69.74 0 0 0 17.169-24.255m5.47-26.12h-9.642c-.105 8.566-1.64 16.746-4.357 24.255h9.287a69.155 69.155 0 0 0 4.712-24.255m-4.712-26.119h-9.28c2.71 7.509 4.245 15.689 4.35 24.255h9.642a69.155 69.155 0 0 0-4.712-24.255M160.852 59.5h-8.224c6.9 6.57 12.463 14.85 16.156 24.261h9.231A69.79 69.79 0 0 0 160.852 59.5M76.24 83.761a46.485 46.485 0 0 1 3.835-4.656c2.691-7.677 6.34-14.359 10.679-19.605H77.967c-7.21 6.427-13.041 14.732-16.901 24.261zm-8.709 26.12a46.115 46.115 0 0 1 7.434-24.255h-14.62c-2.785 7.484-4.37 15.67-4.475 24.255zM74.965 136a46.06 46.06 0 0 1-7.434-24.255H55.87c.105 8.585 1.69 16.771 4.475 24.255zm5.495 6.931a47.02 47.02 0 0 1-4.22-5.066H61.066c3.86 9.529 9.691 17.834 16.908 24.255h13.352c-4.382-5.091-8.093-11.636-10.866-19.189m32.529 14.279c-11.214-.224-21.464-4.439-29.383-11.295 2.728 6.415 6.172 11.922 10.144 16.205h19.239zm0-92.793V59.5H93.135c-3.929 4.426-7.316 10.07-9.971 16.596 7.982-7.08 18.4-11.449 29.825-11.679m44.867 46.315c-.043-24.199-19.742-43.847-43.929-43.847h-.087c-24.223.043-43.891 19.791-43.847 44.015.049 24.199 19.748 43.848 43.934 43.848h.081c24.224-.05 43.898-19.792 43.848-44.016m-13.607 35.183c-7.92 6.85-18.17 11.071-29.395 11.295v4.91h19.238c3.979-4.283 7.422-9.79 10.157-16.205m7.36-8.05a46.29 46.29 0 0 1-4.221 5.072c-2.778 7.553-6.489 14.092-10.872 19.183h13.358c7.217-6.421 13.048-14.726 16.909-24.255zm8.709-26.12A46.024 46.024 0 0 1 152.883 136h14.62c2.785-7.484 4.37-15.67 4.476-24.255zm-7.435-26.119a46.1 46.1 0 0 1 7.441 24.255h11.655c-.106-8.585-1.691-16.771-4.476-24.255zM134.713 59.5h-19.859v4.923c11.425.224 21.855 4.593 29.837 11.673-2.654-6.526-6.042-12.17-9.978-16.596m13.067 19.605a46.565 46.565 0 0 1 3.829 4.656h15.174c-3.861-9.529-9.692-17.834-16.902-24.261h-12.793c4.345 5.246 7.994 11.928 10.692 19.605m-33.859-37.868c-17.056 0-32.69 6.172-44.805 16.398h89.617c-12.115-10.226-27.755-16.398-44.812-16.398m0-3.108c40.075 0 72.684 32.609 72.684 72.684s-32.609 72.678-72.684 72.678-72.677-32.603-72.677-72.678 32.602-72.684 72.677-72.684"/><path d="M102.225 51.776v-6.725h2.097v8.731h-3.607v-2.006zm5.524-.139a1.25 1.25 0 0 0 .473.447c.205.113.428.168.683.168s.486-.055.678-.161c.199-.112.348-.261.46-.454a1.32 1.32 0 0 0 .174-.665 1.26 1.26 0 0 0-.106-.51c-.062-.161-.155-.298-.273-.416s-.255-.212-.417-.28a1.385 1.385 0 0 0-.516-.093c-.249 0-.478.056-.677.168a1.27 1.27 0 0 0-.479.466 1.265 1.265 0 0 0-.174.665 1.25 1.25 0 0 0 .174.665m-1.393-2.878a2.95 2.95 0 0 1 .914-.622 2.637 2.637 0 0 1 1.039-.217c.26 0 .478.043.64.124l-2.598-2.99h2.536l2.02 2.394.634.789a5.24 5.24 0 0 1 .466.746c.131.255.223.528.292.826a4.95 4.95 0 0 1 .094 1.014 3.02 3.02 0 0 1-.448 1.572 3.207 3.207 0 0 1-1.25 1.132c-.534.286-1.168.423-1.895.423-.709 0-1.312-.137-1.809-.405a2.861 2.861 0 0 1-1.132-1.094 2.984 2.984 0 0 1-.391-1.51c0-.448.081-.858.242-1.225.162-.373.373-.69.646-.957m10.216-2.004a1.48 1.48 0 0 0-.712-.159c-.358 0-.67.089-.936.267s-.439.413-.519.702l-1.656-.779a2.55 2.55 0 0 1 .709-1.038 3.215 3.215 0 0 1 1.112-.639 4.16 4.16 0 0 1 1.35-.217c.637 0 1.21.126 1.715.376a2.93 2.93 0 0 1 1.201 1.066c.294.461.44 1.003.44 1.628 0 .359-.055.689-.163.989a2.56 2.56 0 0 1-.459.797 2.31 2.31 0 0 1-.715.558c-.6.349-1.341.483-2.22.402l.201 1.285h2.78v1.789h-4.572l-.777-4.799c.232.109.48.192.744.251s.543.087.836.087c.467 0 .869-.059 1.204-.177s.591-.289.771-.513.268-.493.268-.807c0-.236-.051-.447-.155-.632s-.252-.331-.447-.437m10.263.095h-3.264c.434.292.819.581 1.154.862a8.88 8.88 0 0 1 .869.831c.244.272.445.542.605.81a3.41 3.41 0 0 1 .356.812c.078.273.117.55.117.829 0 .57-.144 1.079-.43 1.523s-.68.794-1.185 1.051-1.088.383-1.746.383c-.42 0-.811-.056-1.171-.169a3.33 3.33 0 0 1-.983-.495c-.295-.217-.55-.483-.765-.799s-.392-.676-.53-1.082l1.744-.826a4.34 4.34 0 0 0 .442.881c.157.232.33.402.518.514a1.19 1.19 0 0 0 .614.167 1.206 1.206 0 0 0 1.073-.609c.107-.183.159-.385.159-.603 0-.205-.054-.424-.162-.66a3.71 3.71 0 0 0-.508-.774 9.49 9.49 0 0 0-.885-.928l-1.295-1.118-1.744-1.341v-1.058h7.017zm-12.908 30.03v33.934h-7.272l7.272 33.939v-33.939h7.267zm-7.776 41.038-20.271 8.361a.88.88 0 0 0-.497 1.094 67.334 67.334 0 0 0 4.476 9.977 67.032 67.032 0 0 0 7.763 11.213c.063.075-.018.187-.111.15a42.41 42.41 0 0 1-4.849-2.5 41.26 41.26 0 0 1-6.464-4.823 41.2 41.2 0 0 1-8.92-11.562 40.546 40.546 0 0 1-2.736-6.632 41.19 41.19 0 0 1-1.889-12.295c-.006-.423 0-.84.012-1.256a.942.942 0 0 1 .989-.902l6.893.355a.94.94 0 0 1 .889.926 66.47 66.47 0 0 0 .727 8.877.861.861 0 0 0 1.181.665l21.29-8.784 9.293-43.357 7.776 36.314 28.003-11.549a1.756 1.756 0 0 1 2.257.883 40.803 40.803 0 0 1 1.461 3.531 1.76 1.76 0 0 1-.988 2.219l-29.229 12.059-9.28 43.326zm119.235 87.367c-.176 0-.534-.056-.547-.056l-6.054-.957v-98.549c-.205-5.868-1.368-21.421-7.689-39.13-6.247-17.511-15.621-32.019-27.941-43.308a98.35 98.35 0 0 1 3.45 2.208c37.451 25.236 40.932 71.496 41.249 80.466v96.87a2.464 2.464 0 0 1-2.468 2.456"/></g><path d="M19.833 109.756c0 .812.14 1.573.418 2.284a5.98 5.98 0 0 0 1.164 1.88c.497.543 1.073.965 1.728 1.269s1.359.456 2.111.456a4.96 4.96 0 0 0 2.121-.459c.657-.306 1.234-.728 1.73-1.269s.885-1.165 1.165-1.874.417-1.467.417-2.274c0-.659-.09-1.287-.272-1.884s-.421-1.107-.716-1.532l-1.744.911c.225.291.399.644.526 1.06a4.46 4.46 0 0 1 .191 1.308 4.11 4.11 0 0 1-.26 1.48 3.685 3.685 0 0 1-.723 1.185 3.29 3.29 0 0 1-1.085.784c-.414.187-.862.28-1.343.28a3.23 3.23 0 0 1-1.345-.28 3.307 3.307 0 0 1-1.084-.784 3.65 3.65 0 0 1-.723-1.185 4.11 4.11 0 0 1-.259-1.48c0-.455.063-.891.19-1.308s.302-.769.525-1.06l-1.743-.911c-.287.408-.524.909-.711 1.504s-.278 1.227-.278 1.899m.207-6.441 10.422.916.184-2.1-4.301-.378.352-3.999 4.301.378.184-2.093-10.421-.917-.184 2.093 4.326.381-.351 3.999-4.327-.38zm1.465-12.441 10.275 1.962.397-2.071L21.9 88.804zm1.266-6.348 10.013 3.035.611-2.018-5.394-6.469 6.736 2.041.611-2.017-10.012-3.034-.612 2.017 5.394 6.468-6.736-2.041zm9.088-13.27 1.167-2.522 2.598 2.736zm-5.437 1.786 11.306.478.822-1.778-7.685-8.302-.954 2.061 1.781 1.828-1.77 3.826-2.546-.174zm10.52-19.562c-.775 1.099-1.094 2.119-.954 3.062s.736 1.787 1.793 2.533l5.515 3.895 1.217-1.722-5.034-3.555c-.723-.51-1.151-1.003-1.288-1.48s-.004-.999.398-1.57.852-.871 1.347-.901 1.104.21 1.824.719l5.035 3.556 1.216-1.722-5.516-3.896c-1.056-.746-2.051-1.028-2.985-.846s-1.79.825-2.568 1.927m5.258-6.614 7.642 7.146 1.439-1.541-1.98-8.186 5.14 4.807 1.44-1.539-7.642-7.146-1.439 1.54 1.981 8.186-5.142-4.807zm9.289-9.346 6.855 7.902 1.593-1.381-6.856-7.902zm6.515-5.279 2.502 11.111 1.927-1.399-1.946-7.699 6.722 4.232 1.922-1.395-9.789-5.822zm7.65-5.143 5.095 9.138 5.217-2.909-.877-1.572-3.376 1.882-1.226-2.199 3.239-1.806-.876-1.573-3.239 1.806-1.238-2.221 3.376-1.882-.877-1.572zm12.972-.279.829-.345c.405-.168.771-.255 1.098-.258a1.49 1.49 0 0 1 .854.231c.242.158.428.391.556.7.195.467.18.897-.046 1.286s-.641.709-1.245.961l-.828.346zm-4.121-4.41 4.023 9.658 3.376-1.407c.677-.281 1.216-.643 1.618-1.082s.649-.935.742-1.485.012-1.13-.242-1.742c-.203-.484-.472-.884-.81-1.198s-.727-.537-1.165-.666-.92-.159-1.442-.092l1.636-5.209-2.469 1.029-1.341 4.831-.463.193-1.517-3.64zm13.156-5.044c-.479.137-.907.316-1.281.536s-.699.452-.974.701a5.67 5.67 0 0 0-.683.72c-.182.232-.322.43-.419.594l1.506 1.337.38-.538a5.47 5.47 0 0 1 .526-.602 4.3 4.3 0 0 1 .677-.551c.252-.167.536-.295.848-.385.292-.083.563-.112.812-.087a1.23 1.23 0 0 1 .642.248c.18.14.308.342.383.606.069.239.075.459.02.657s-.166.395-.33.589a5.2 5.2 0 0 1-.628.615l-.879.724a6.397 6.397 0 0 0-.678.646 3.5 3.5 0 0 0-.517.738 2.57 2.57 0 0 0-.263.838 2.24 2.24 0 0 0 .08.93 2.79 2.79 0 0 0 .555 1.041c.26.309.577.558.95.75a3.42 3.42 0 0 0 1.239.357c.453.046.93-.002 1.43-.145a4.66 4.66 0 0 0 1.084-.469 5.8 5.8 0 0 0 .941-.685c.28-.252.506-.503.678-.755l-1.288-1.306a3.614 3.614 0 0 1-.495.58 3.94 3.94 0 0 1-.642.497 2.97 2.97 0 0 1-.747.333 1.767 1.767 0 0 1-.797.064 1.22 1.22 0 0 1-.592-.269 1.044 1.044 0 0 1-.327-.517.851.851 0 0 1-.016-.467 1.02 1.02 0 0 1 .221-.4c.108-.125.245-.255.41-.387l.546-.431 1.145-.968c.336-.307.609-.619.821-.937a2.51 2.51 0 0 0 .402-1.015c.056-.359.024-.759-.102-1.198-.184-.642-.499-1.148-.946-1.517s-.986-.594-1.618-.674-1.323-.013-2.074.202m7.216-1.574 1.984 10.271 2.07-.399-1.984-10.272zm7.066-1.168.99 8.592-2.702.311.207 1.802 7.499-.864-.208-1.801-2.709.312-.989-8.592zm10.35-.738.027 4.66-3.864 5.824 2.537-.014 2.394-3.723 2.434 3.695 2.538-.015-3.93-5.779-.028-4.66zm17.776 3.134c.453.078.854.232 1.201.463a2.94 2.94 0 0 1 .862.873c.226.352.38.748.463 1.189a3.97 3.97 0 0 1-.002 1.405 3.983 3.983 0 0 1-.463 1.327 3.29 3.29 0 0 1-.832.967 2.97 2.97 0 0 1-1.102.539 3.08 3.08 0 0 1-1.287.037 3.07 3.07 0 0 1-1.193-.46c-.349-.231-.637-.523-.864-.875s-.379-.747-.46-1.188-.079-.908.005-1.404a3.98 3.98 0 0 1 .461-1.327 3.28 3.28 0 0 1 .828-.968 2.94 2.94 0 0 1 1.106-.538 3.07 3.07 0 0 1 1.277-.04m.339-1.948a5.327 5.327 0 0 0-2.149.057 5.4 5.4 0 0 0-1.895.857 5.48 5.48 0 0 0-1.436 1.512c-.386.6-.643 1.271-.769 2.013s-.108 1.46.057 2.155a5.46 5.46 0 0 0 .855 1.902 5.394 5.394 0 0 0 1.504 1.437 5.31 5.31 0 0 0 2.008.767 5.322 5.322 0 0 0 2.148-.058 5.4 5.4 0 0 0 1.895-.857 5.446 5.446 0 0 0 1.436-1.511 5.34 5.34 0 0 0 .77-2.014c.127-.742.107-1.46-.058-2.155s-.45-1.329-.854-1.901a5.41 5.41 0 0 0-1.504-1.438 5.339 5.339 0 0 0-2.008-.766m13.08 7.912-.516 1.725-3.478-1.04-.722 2.411 3.759 1.124-.516 1.726-5.778-1.729 2.997-10.023 2.021.604-1.246 4.161zm13.315.663a5.172 5.172 0 0 0-2.033-.544 5.09 5.09 0 0 0-2.008.292c-.645.231-1.235.581-1.769 1.053s-.97 1.053-1.31 1.743c-.326.659-.521 1.338-.584 2.035s.005 1.374.207 2.033a5.04 5.04 0 0 0 1.013 1.815c.472.552 1.08 1.011 1.823 1.378.42.207.865.371 1.336.49a6.72 6.72 0 0 0 1.426.205c.48.018.94-.022 1.38-.12l-.182-1.865a3.97 3.97 0 0 1-1.58.107 4.757 4.757 0 0 1-1.545-.449 3.312 3.312 0 0 1-1.101-.836 2.76 2.76 0 0 1-.562-1.102c-.101-.403-.119-.826-.056-1.269s.206-.887.427-1.334c.241-.489.53-.898.867-1.226a3.45 3.45 0 0 1 1.095-.739 2.89 2.89 0 0 1 1.209-.231 2.85 2.85 0 0 1 1.203.304c.311.154.587.352.827.596a2.81 2.81 0 0 1 .563.806 2.31 2.31 0 0 1 .22.907 1.87 1.87 0 0 1-.2.905l-.07.142-2.526-1.247-.705 1.427 4.451 2.198.703-1.421a3.77 3.77 0 0 0 .409-1.747 4.293 4.293 0 0 0-.392-1.713 5.29 5.29 0 0 0-1.03-1.499 5.46 5.46 0 0 0-1.506-1.094m7.44 4.308-5.752 8.739 4.99 3.283.991-1.503-3.229-2.125 1.383-2.103 3.098 2.039.991-1.504-3.099-2.039 1.398-2.124 3.228 2.124.99-1.504zm10.686 10.048c.35.299.613.638.792 1.015a2.95 2.95 0 0 1 .289 1.193c.013.417-.06.836-.215 1.257s-.397.822-.725 1.203a3.97 3.97 0 0 1-1.08.899c-.392.217-.797.35-1.212.401a2.97 2.97 0 0 1-1.222-.106 3.078 3.078 0 0 1-1.123-.63c-.342-.294-.603-.63-.784-1.008s-.278-.777-.29-1.195a3.23 3.23 0 0 1 .216-1.256c.157-.419.4-.819.728-1.201s.687-.682 1.078-.9a3.25 3.25 0 0 1 1.208-.403 2.94 2.94 0 0 1 1.225.107c.401.122.773.33 1.115.624m1.294-1.496c-.568-.489-1.192-.841-1.871-1.056s-1.367-.297-2.066-.242a5.47 5.47 0 0 0-2.009.556c-.641.316-1.206.759-1.697 1.33s-.843 1.197-1.059 1.878-.299 1.37-.248 2.069.235 1.368.55 2.006.757 1.203 1.326 1.692 1.193.841 1.872 1.056a5.4 5.4 0 0 0 2.066.242 5.47 5.47 0 0 0 2.008-.556 5.32 5.32 0 0 0 1.697-1.331 5.322 5.322 0 0 0 1.06-1.877 5.43 5.43 0 0 0 .247-2.07 5.332 5.332 0 0 0-1.876-3.697m8.537 8.351a5.554 5.554 0 0 0-1.04-.92 5.828 5.828 0 0 0-2.002-.873 5.63 5.63 0 0 0-.717-.117l-.547 1.937.65.109c.247.047.504.117.771.21a4.31 4.31 0 0 1 .791.37c.26.155.498.354.715.596.202.226.346.457.432.692s.104.464.056.686-.172.426-.378.609c-.185.167-.38.268-.583.304s-.427.023-.673-.04-.522-.161-.829-.298l-1.034-.475a6.377 6.377 0 0 0-.876-.33 3.53 3.53 0 0 0-.889-.143c-.297-.008-.587.034-.869.127s-.55.252-.802.478a2.8 2.8 0 0 0-.697.953 3.07 3.07 0 0 0-.261 1.181 3.45 3.45 0 0 0 .218 1.272 3.8 3.8 0 0 0 .754 1.224c.261.29.559.548.895.771a5.87 5.87 0 0 0 1.026.549c.349.142.673.235.975.28l.614-1.728c-.24-.034-.486-.099-.737-.192s-.493-.213-.728-.361a2.99 2.99 0 0 1-.625-.528c-.205-.229-.339-.46-.404-.69s-.069-.447-.016-.65a1.04 1.04 0 0 1 .323-.519.857.857 0 0 1 .414-.218 1.02 1.02 0 0 1 .456.025 3.09 3.09 0 0 1 .527.2l.625.305 1.37.608c.423.169.824.279 1.201.331a2.54 2.54 0 0 0 1.09-.08c.348-.105.693-.309 1.033-.614.499-.445.816-.949.954-1.512s.105-1.146-.098-1.75-.564-1.197-1.085-1.779m7.65 9.768a6.17 6.17 0 0 0-1.651-1.632 5.994 5.994 0 0 0-2.032-.875 5.41 5.41 0 0 0-2.142-.05c-.711.127-1.375.406-1.991.837s-1.113.964-1.476 1.592a5.46 5.46 0 0 0-.691 2.031c-.097.727-.058 1.462.12 2.203s.498 1.442.961 2.103c.377.541.811 1.003 1.302 1.387s.979.667 1.465.846l.907-1.746a3.281 3.281 0 0 1-1.039-.568 4.49 4.49 0 0 1-.905-.962 4.14 4.14 0 0 1-.636-1.362 3.67 3.67 0 0 1-.086-1.385 3.3 3.3 0 0 1 .44-1.264c.232-.39.546-.723.94-1a3.26 3.26 0 0 1 1.263-.541 3.297 3.297 0 0 1 1.338.022 3.65 3.65 0 0 1 1.27.556 4.1 4.1 0 0 1 1.062 1.064c.261.374.459.767.594 1.181s.193.805.176 1.171l1.951-.253c.002-.499-.091-1.045-.28-1.638s-.474-1.167-.86-1.717m3.285 5.629-9.12 5.126 1.033 1.838 9.12-5.126zm3.014 5.59-9.543 4.286 2.446 5.449 1.644-.738-1.584-3.526 2.296-1.031 1.519 3.384 1.643-.739-1.52-3.382 2.321-1.042 1.583 3.526 1.642-.738zm3.976 9.314-10.021 3.009.607 2.019 8.071 2.407-6.74 2.023.605 2.02 10.021-3.009-.606-2.019-8.072-2.407 6.74-2.024zm4.427 17.645a6.19 6.19 0 0 0-.766-2.192c-.384-.66-.864-1.22-1.438-1.679s-1.209-.789-1.902-.987a4.98 4.98 0 0 0-2.158-.125 4.96 4.96 0 0 0-2.024.779 5.454 5.454 0 0 0-1.515 1.52 5.99 5.99 0 0 0-.861 2.032 6.146 6.146 0 0 0-.064 2.311c.102.651.289 1.258.56 1.819s.586 1.029.943 1.404l1.583-1.169a3.294 3.294 0 0 1-.683-.966 4.43 4.43 0 0 1-.389-1.264c-.083-.527-.073-1.027.028-1.503s.28-.901.533-1.281a3.29 3.29 0 0 1 .95-.941 3.238 3.238 0 0 1 1.285-.484 3.23 3.23 0 0 1 1.371.07 3.29 3.29 0 0 1 1.193.607c.356.285.655.638.896 1.06s.402.895.484 1.422c.071.45.076.89.014 1.321s-.18.808-.356 1.13l1.863.631c.221-.447.378-.979.471-1.594a6.39 6.39 0 0 0-.018-1.921m.519 6.596-10.454.407.232 5.969 1.799-.07-.15-3.862 2.515-.098.145 3.706 1.8-.07-.145-3.706 2.54-.099.151 3.862 1.799-.071zm.385 12.341c0-.499-.055-.959-.162-1.38s-.242-.797-.405-1.128a5.94 5.94 0 0 0-.504-.856l-.457-.566-1.7 1.08.413.514c.152.199.296.422.434.67s.252.515.342.803a3.02 3.02 0 0 1 .137.921 2.15 2.15 0 0 1-.14.804 1.23 1.23 0 0 1-.415.55c-.184.134-.413.201-.688.201-.25 0-.461-.054-.637-.162s-.334-.268-.476-.478a5.34 5.34 0 0 1-.419-.775l-.453-1.044a6.57 6.57 0 0 0-.433-.829 3.51 3.51 0 0 0-.569-.7 2.506 2.506 0 0 0-.731-.485 2.27 2.27 0 0 0-.917-.179c-.402 0-.786.082-1.154.247a3.06 3.06 0 0 0-.982.706c-.288.306-.517.67-.686 1.093s-.252.895-.252 1.415c0 .391.049.782.151 1.172s.235.755.399 1.093.345.625.539.859l1.611-.879c-.157-.186-.297-.397-.421-.634s-.226-.488-.302-.755a2.94 2.94 0 0 1-.113-.81c0-.308.052-.569.158-.784a1.22 1.22 0 0 1 .421-.495c.175-.115.371-.172.587-.172a.85.85 0 0 1 .453.114c.125.076.232.183.323.322a3.03 3.03 0 0 1 .26.502l.264.644.615 1.366c.203.407.428.757.675 1.047a2.53 2.53 0 0 0 .866.667c.329.154.722.232 1.179.232.668 0 1.24-.164 1.718-.492s.842-.784 1.094-1.37.377-1.268.377-2.049M60.244 200.446c-.719.043-1.735-.597-2.336-1.186-.299-.293-.643-.538-.989-.397-.407.164-.421.887-.782 1.228s-.779.456-1.134.674l-1.352.817c-.661.39-.902.826-1.697.58-.203-.061-.38-.034-.612-.168-.492-.841.197-.956.554-1.862l.497-1.423c.161-.348.399-.568.517-.874l.448-1.202.436-.979c.127-.291.347-.473.357-.716.009-.274-.407-.653-.519-.905l-1.081-2.181c-.143-.331-.216-.855-.509-1.126-.446-.412-1.835.396-1.993-.41l.063-.234c.015-.233-.142-.452-.061-.702.101-.316.885-1.065 1.127-1.207 1.086-.636 2.644-.606 3.906-.342.462.093 1.125.597 1.532.603.3-.266.363-1.033.877-1.149.48-.1.883.323 1.301-.03l.41-.749c.52-.502 1.374-1.295 1.59-2.039l-.049-.573c.062-.287.303-.642.422-.926.254-.589.949-.874 1.318-1.126l.442-.354c.211-.106.473-.104.678-.185.312-.123 1.332-.623 1.615-.529.277.089.886-.086.988.073.136.226.075 1.112-.023 1.373-.081.234-.312.213-.442.414l-.575.77c-.486.44-.854 1.06-1.101 1.596l-.672.751-.479.705c-.161.293-.495.57-.729.883-.267.348-.182.918-.449 1.27-.221.191-.31.552-.41.926-.107.389.181.632.205 1.007l.068.931c-.06.563-.408 1.409-.228 1.906.126.343.914.714.78 1.16-.024.084-.115.106-.202.089a.252.252 0 0 1-.039.018c.046.062.215 1.029.22 1.132l-.05.301.393.349c.2.227.481.716.501.996.107 1.435-1.256 2.933-2.732 3.022m-3.039-11.105c-.068-.175-.028-.337-.231-.486-.454.11-.677.593-.943 1.043l-.69.855c-.444.841-.406 1.61-.228 2.306l.201.06c.401-.203.561-.899.723-1.224.519-1.039 1.524-1.695 1.168-2.554m4.404-5.205s-.81-.66-.534.155c.038.023.024.445.067.471.053-.01.215-.161.268-.171.114-.086.199-.455.199-.455m-2.453 8.983-.208.23c-.652.957-.846 1.616-1.021 2.26.073.015.168 0 .245.018.716-1.028 1.414-2.46.984-2.508m.416 3.318c-.495-.323-1.156.032-1.145.557.01.244.233.381.4.602.223.149.424.221.603.121.433-.262.298-1.035.142-1.28m71.483 2.681-.309.146-.5.504c-.371.265-.427-.021-.612.53.688 1.248.191 2.783.576 4.098.057.194.145.378.205.572.267.851.1 1.696.86 2.31.213.257.497.647.612.983.231.669-.218 1.957-.439 2.33-.07.112-.242.1-.345.188s-.136.24-.278.306l-.315.079-.282.253c-.792.292-1.216-.196-1.641-.404-1.667-.815-2.611-2.332-4.163-3.282-.151-.092-.394-.15-.466.012-.025.057-.015.124-.005.186.133.788.31 1.652.943 2.139.313.241.705.359 1.03.584.552.382.852 1.024 1.266 1.552a4.205 4.205 0 0 0 2.003 1.401c.37.12.766.194 1.08.423s.509.688.298 1.014c-.083.129-.219.221-.289.359-.104.208-.115.553-.348.547-.079-.002-.146-.055-.215-.093-.318-.175-.709-.064-1.071-.08-.49-.021-.934-.278-1.356-.527-.988-.586-2.001-1.192-2.709-2.098-.508-.651-.835-1.427-1.328-2.089-.375-.503-.839-.93-1.3-1.355-.082-.075-.178-.155-.289-.143-.229.025-.225.358-.177.584a3.28 3.28 0 0 1-.845 2.913c-.169.174-.376.394-.29.621.075.2.327.252.539.283 1.551.225 2.99.886 4.412 1.511l4.431 2.028c.213.105.437.22.563.422.167.266.116.614.011.911a2.96 2.96 0 0 1-1.745 1.766c-.497.183-1.196.139-1.382-.356-.144-.379.106-.82-.026-1.204-.059-.171-.188-.308-.316-.436-1.684-1.684-3.853-2.783-5.982-3.853-.442-.221-.904-.448-1.397-.442-.354.005-.695.13-1.043.201a3.384 3.384 0 0 1-2.31-.368c-.208-.117-.422-.29-.438-.527.505.073 1.018.146 1.524.083s1.014-.279 1.322-.687c.481-.64.349-1.535.195-2.321l-1.221-5.049c-.173-.518-.379-1.046-.767-1.43-.211-.21-.476-.375-.622-.634-.212-.374-.127-.838-.035-1.258.065-.303.142-.626.372-.835.123-.111.278-.179.431-.243.352-.149.714-.295 1.096-.308s.79.136.99.461c.078.127.12.273.161.416l.365 1.276c.119.417.245.847.518 1.183.242.299.589.506.81.822.264.376.32.862.555 1.258.092.158.327.301.433.153.065-.09.016-.213-.03-.312a4.897 4.897 0 0 1-.446-2.22.793.793 0 0 1 .074-.364c.066-.119.181-.201.281-.294a1.42 1.42 0 0 0 .444-1.07.724.724 0 0 0 .954-.048c.215.103.007.411-.056.642-.049.177.013.363.078.535.361.964.871 2.96 2.036 3.149.037-.134-.081-.386-.029-.482.049-.087.306-.133.354-.257.18-.45-.309-1.71-.427-1.991l-.29-.299c-.075-.171-.032-.319-.109-.454-1.038-1.847-3.35-3.259-5.451-3.475-.176-.019-.342-.147-.49-.197s-.511-.151-.893-.198c.546-.175 1.248-.167 1.533-.171l1.034.01c.344-.028.89-.085 1.108-.235.26-.171.255-.629.793-.576.513.049 1.423.6 1.812.922.429.355.999.725 1.371 1.136.195.215.296.608.577.719l.105.008c.211-.236.228-.156.489-.323.521-.49.837-.793 1.182-1.42.426-.773 1.007-1.714 1.719-2.261.289-.222 1.274-.554 1.644-.503l.277.121c.139.033.247.008.33.1.667.738-.225 2.011-.719 2.422m-4.639 15.193c.05.042.264.229.526.303s.434.237.573.266c0 0-.282-.31-.65-.468-.322-.137-.533-.436-.613-.509 0 0 .063.321.164.408m-.248-.933c.194.195.414.523.536.601l.253.145c.035.059.137.079.308.154.531.356.931.467.945.466-.435-.346-.655-.654-1.085-.92-.132-.04-.745-.571-.881-.613-.218-.169-.141-.434-.512-.582l-.106-.008c-.013.031-.031.06-.047.093-.103.358.437.509.589.664m1.725-8.869c-.072-.26-.36-.513-.396-.681l.073-.258c.084-.559-.026-.693-.243-1.027-.007-.332.54-1.107-.051-1.328-.052-.019-.75.103-.847.154a.16.16 0 0 0-.098.113c-.097.335.264.446.323.687l-.061.378a.52.52 0 0 0 .419.268c.102.155.302.807.328 1.007.009.061-.201.344-.228.435a1.78 1.78 0 0 0-.057.46c-.008.388.174.802.064 1.184-.083.292-.229.645-.439.862-.222.228-.609.321-.679.674-.049.244.105.436.173.655.063.201.042.449.138.636.118.229.414.318.547.539.055.093.079.205.146.289.111.141.306.174.483.187.097.007.197.01.289-.021.317-.11.368-.828.407-1.113-.106-1.33.07-2.807-.291-4.1m-51.468 8.436c-.675-.91-1.666-1.491-2.331-2.43-1.946-2.749-3.148-5.79-2.442-9.204.115-.559.273-1.16.043-1.682-.444.447-.739 1.017-1.028 1.576l-1.084 2.1c-.115.222-.235.452-.434.602s-.499.198-.693.04c-.179-.147-.206-.419-.141-.641s.203-.416.308-.622c.237-.458.316-.978.41-1.485a20.683 20.683 0 0 1 1.911-5.606c.592-1.16 1.419-2.357 2.684-2.665a2.61 2.61 0 0 1 2.536.812c.136.157.253.332.416.461.172.137.383.212.588.291.94.365 1.821.854 2.641 1.437.9.641 2.336 2.301 3.552 1.348.508-.399.684-1.228 1.315-1.368.537-.118 1.009.364 1.309.824.175.27.341.565.358.887s-.12.635-.253.931l-3.593 7.463c-.855 1.556-1.811 3.131-1.992 4.897-.055.539-.042 1.107-.292 1.587-.285.547-.883.886-1.494.97-.795.11-1.604-.142-2.294-.523m1.518-5.331c-.278.355-.719.616-.417 1.065l.191.017c.265-.277.752-1.129.814-1.47-.073-.101-.158-.105-.266-.102-.143.128-.174.309-.322.49m-5.213-3.165c.273.899.642 1.785 1.097 2.621.2.014.594-.464.532-.701l-.535-.862c-.351-.71-.547-1.493-1.15-2.127l-.129.011c-.157.373.096.751.185 1.058m8.162-4.797c-.093-.353-.337-.552-.393-.666l-.283-.272c-.409-.491-.949-.989-1.515-1.435l-.448-.259c-.411-.327-.741-.804-1.131-1.133-.209-.183-.51-.22-.666-.412-.121-.151-.126-.341-.262-.502-.381-.16-.792.445-1.05.77-.164.212-.372.273-.534.443-.145.15-.13.355-.186.503l-.211.249c-.17.212-.126.407-.16.575-.076.346-.372.691-.178.947.152.166.469.101.644.302.259.288.165.768.486.956.156-.125.129-.358.106-.505-.045-.251-.114-.479-.082-.768l.216-.565.086-.694c.034-.248-.002-.726.333-.788 1.056-.189 1.303.719 1.724 1.389.667 1.065 1.129 2.156.679 3.563l-.712 1.006c-.206.256-.215.649-.439.833l-.015.03-.089-.406c-.194-.258-.679-.227-.921-.306-.262-.084-.482-.307-.607-.459-.182-.228-.128-.555-.24-.806-.23-.521-.462-1.051-.825-1.518-.252-.133-.541-.068-.674.166l.091.247c-.004.226-.168.264-.116.563-.116.131-.356.208-.42.418l.015.349-.149.285c.014.355.588.763.81 1.063.33.458.632.885.871 1.36.216.428.294.894.554 1.316l.182.035c.565-.554.994-1.476 1.524-2.203.425.159.656-.555.945-.844.24-.237 1.156-.936 1.243-1.249s-.017-1.045-.07-1.36c-.069-.412-.471-.812-.254-1.316.01-.005.023-.015.034-.021.147-.002.375.079.466.224l.224.721c.077.16.246.259.342.421.067.11.072.248.174.354.369.358.813-.24.881-.601m-4.424-.004c.029.275.185.594.186.875l-.132.473.264.421.135-.032c.242-.324.055-1.947-.293-2.155-.126.096-.171.285-.16.418m1.637 5.447c.148-.444.483-.81.553-1.168a.408.408 0 0 0-.045-.066l-.084-.063c-.76.439-.963 1.019-1.611 1.832l-.529.547c-.237.303.033.49-.222.762-.196.005-.399-.045-.562.044l-.463.459c-.466.427-.859.592-.792 1.306.015.13-.005.25.075.359l.147.101c.134-.044.251-.13.409-.087.08.181.082.321.197.503l.205.108c.255-.162.216-.623.305-.883l.407-.625c.695-.912 1.639-2.008 2.01-3.129m-2.298 4.78c-.088.044-.122.045-.193.18.043.154.091.19.207.331.187.099.417.237.577.239.246.016.669-.539.756-.86-.036-.063-.059-.094-.165-.148-.395.109-.735.301-1.182.258m6.327-8.727-.054-.087c-.341-.016-.558.301-.838.517-.461.368-1.123.644-1.333 1.465-.071.286.064.561.026.835l-.17.469-.638 1.248-.022.427c-.083.305-.502.167-.518.528-.009.116.049.175.096.273a.503.503 0 0 1 .056.01c.35-.026.287-.545.514-.753.659-.587.897-1.489 1.503-2.316.3-.406.631-1.046.783-1.486.155-.434.469-.718.595-1.13m68.136-5.959-.837 1.716c-.168.331-.266.736-.527 1.038l-.387.343-.878.97-.948.611c-.047.306 1.058 1.482 1.333 1.64.1.062 1.055-.155 1.236-.178l2.167-.13c.245-.017.536-.257.8-.269.292-.01.564.241.838.309.255.059.65-.042.841.187.353.431-.408.965-.715 1.226-.588.491-1.152 1.488-2.251 1.648l-.496-.042-.072.055c-.184.248.479 1.189.667 1.43.17.226.807.996.855 1.421l-.135.338.028.301-.185.225c-.25.379-.187.473-.822.768-.184-.012-.751.012-.881-.071l-.132-.193-.257-.212c-.139-.159-.101-.455-.266-.676l-1.566-2.119-.515-.46c-.17-.193-.22-.375-.405-.475-.429-.229-1.035-.12-1.559-.081l-2.266-.035-.692.116c-.717.078-1.346.757-1.86.24-.606-.618-.193-1.187.278-1.605.221-.201.358-.443.639-.641.805-.566 1.889-.735 2.593-.769.12-.005.207.061.348.03.246-.481-1.152-1.177-1.461-1.405a9.7 9.7 0 0 0-3.958-1.721 14.105 14.105 0 0 0-1.547-.181c-.295-.019-.495.129-.733-.041l-.039-.164c.121-.169.322-.179.518-.325l.574-.49.713-.32c.553-.391 1.185-.286 1.677-.255l.883-.046c.22.026.388.205.592.245.914.177 1.687.65 2.509 1.082.423.221 1.441 1.043 1.838 1.041.196-.247.209-.54.275-.835l.227-.679c.097-.465.132-.906.207-1.378a6.14 6.14 0 0 1 .631-1.733c.172-.294.417-.541.562-.842.29-.583 1.457-1.308 2.082-.975.874.472.747 1.73.479 2.366m20.112-10.849c-.124.302-.127.594-.358.909-.47.629-1.165 1.013-1.805 1.636l-.744.554c-.121.131-.297.375-.515.498-.235.136-.441.053-.672.134-.493.175-1.02.582-.706 1.029a9.41 9.41 0 0 0 1.81.208l.489.106.31-.092.699.396c.334.317.177.615.321.882l.015-.01c.203.07.444-.158.676-.223.414-.115 1.071-.065 1.481-.494.152-.157.115-.415.331-.517.141-.072.273-.025.401-.049.737-.139 1.426-.359 2.122-.339l.298-.042c.283.041 1.222.396 1.248.828.078 1.255-1.528 2.682-3.092 3.415-.597.275-1.181.684-1.789.862l-1.061.174-.699.3-1.652.572-.405.013-.404.2-.681.18c-.188.054-.336-.043-.504-.034l-.595.21c-.351.054-.65-.03-.979-.023-.355.01-.671.185-1.05.272-.358.087-.791.164-1.175.32-.423.17-.79.546-.593.881.434.283 1.023.19 1.513.164l2.036-.067c.442-.006.959.098 1.422-.056.574-.193.76-.874 1.281-1.025.448-.132.696.251.99.249l.399-.108c.585-.18 1.016-.952 1.48-1.058l1.302.048.376.101c.272-.003.453-.166.756-.232.303-.074.719-.064 1.014-.142l.424-.238.567-.207.448-.387c.531-.45 1.082-.641 1.589-.655.173-.006.508-.065.673-.005 1.689.62 2.437 2.734.743 3.915-.269.048-.509.201-.761.215-.484.04-.953-.126-1.419-.204s-.955-.046-1.435-.106c-.245-.028-1.1-.301-1.313.026-.15.226.091.382.098.625.006.254-.37.849-.742 1.01-.556.244-1.055.159-1.575.277l-1.578.366c-.233.047-.828-.053-1.005.242-.238.359.315.829.204 1.204-.12.385-.684.438-.949.569l-.678.526c-.531.242-1.032.082-1.449-.316-.281-.264-.141-.635-.144-.875-.007-.739.018-1.585.218-2.291.077-.269.527-.858.254-1.118-.146-.077-1.744.128-2.039.15l-2.414.115-.516-.112-.653-.058-.186-.107c-.643-.088-1.492-.353-1.81-1.211l-.156-.406c-.018-.266.169-.871.575-1 .281-.094.616-.016.934-.128.484-.174.849-.386 1.299-.512.481-.136 1.078-.143 1.549-.127.434.015.838.169 1.283.156 1.121-.033 1.9-.344 2.948-.692a15.74 15.74 0 0 1 1.902-.501l1.011-.166c.106-.014.345.008.431-.037.123-.064.383-.362.465-.459.198-.225.807-.101.569-.495-.177-.293-.829-.065-1.073-.007-.532.125-1.297.115-1.821.276-.973.298-1.965.552-2.979.663-.696.076-1.374.176-1.605-.614-.09-.313.185-.961.344-1.233.158-.259.379-.302.342-.591-.173-.226-.429-.22-.641-.349l-.494-.449c-.26-.093-.54.102-.835.183l-1.242.253-.753.258c-.876.179-1.975.121-2.718-.495l-.52-.786c-.375-.378-.497-.774-.503-1.166-.007-.187.118-.34.152-.523.071-.381.142-.778.317-1.143.453-.915 2.142-2.18 3.246-2.56 1.268-.432 2.287-.226 3.443-.109.29.029.574-.079.853.025.445.166.975.66 1.225 1.256.14.331.1.759.44.953.351-.098.739-.42.946-.701.172-.236.262-.523.408-.747.224-.354.565-.785.867-1.106.178-.183.391-.175.547-.214.744-.181.774-.32 1.438.084.166.104.289.188.365.417-.117.28-.297.537-.402.812m5.149 12.418c.15-.218-.233-.089-.324-.089s-.191-.026-.343.003-.212.008-.286.015-.262.064-.339.115c0 0 1.145.171 1.292-.044m-4.801 1.471.091-.086c.035-.238-.424-.365-.555-.472-.209-.169-.203-.432-.422-.616-.212-.182-.616-.088-.896.118-.22.901 1.24 1.096 1.782 1.056m-7.522-13.119c-.768-.49-1.855-.455-2.765-.162l-.717.405c-.475.24-1.093.664-1.288 1.074-.407.854-.293 2.12.893 2.565.186.068.563-.09.647-.044.222.116.327.284.569.24.382-.063.48-.383.848-.558.31-.149.626-.155.917-.244l.398-.173c.959-.673 1.137-1.336.94-2.18-.064-.282-.072-.687-.442-.923m-55.589 21.129c-.434-.164-.458-.488-.731-.794-.302-.339-.762-.361-1.072-.671-.083-.084-.144-.191-.243-.256-.126-.085-.287-.088-.439-.086-1.936.018-4.299-.229-5.132 1.884-.177.455-.177 1.115.104 1.314.253.186.515-.059.629-.171.254-.252.347-.71.609-.95s.659-.125.993-.27l.545-.312.1.039c.113.08.099.188.163.295l.279.254c.134.256-.006 1.018.022 1.352.185.189.483.129.766.249l.581.397c.256.253.805 1.027.886 1.375.068.287.057.586.142.889.125.444.391.98.173 1.601-.197.582-.052 1.576-.556 1.864-.441.245-1.256.2-1.863-.113-.178-.09-.439-.438-.701-.345-.032.018-.009-.001-.038.03-.167.169-.024.632-.007.806.033.228-.022.464-.005.726.042.478.289 1.605-.365 1.875-.366.156-.896-.141-1.051-.371-.131-.193-.105-.367-.177-.608s-.246-.454-.281-.742l-.009-1.314c-.116-.785.072-2.383-.223-2.998-.124-.257-.432-.456-.62-.675-.254-.297-.421-.699-.728-.965-.495-.426-.883-.453-1.183-1.043l-.251-1.091c-.265-.696-.824-1.268-1.167-1.914-.111-.208-.274-.606-.456-.749-.064-.038-.112-.021-.176-.018l-.159.168-.113.992c-.018.58-.35 1.202-.254 1.685.056.293.591.569.816.76.266.233.549.747.67 1.08.269.734-.285 1.467-.541 2.134l-.572 2.908a.733.733 0 0 1-.066.221c-.083.151-.257.225-.378.349-.139.142-.199.34-.256.53s-.119.387-.258.529c-.956.963-1.348-1.95-1.41-2.34-.079-.515-.308-.952-.368-1.489l-.124-1.852c-.016-.721.097-1.397-.419-1.906l-.498-.527c-.585-.427-1.296-.487-1.529-1.148.141-.508.887-.766 1.392-.769.482-.003.793.172 1.101-.279.316-.463.17-1.121.111-1.635a6.41 6.41 0 0 1 .162-2.312c.243-.939 1.488-1.62 2.404-1.421.32.069.594.125.757.3.202.221.159 1.102.261 1.438.107.361.367.706.51 1.048.214.52.43.951.801 1.354l.188.058c.241-.169.389-.501.586-.721.493-.551 1.084-1.082 1.792-1.333.986-.351 2.052-.393 3.098-.432l2.119.004c.705.055 1.386.173 2.028.45l1.221.354c.905.399 1.326.993 1.389 1.971.013.171-.021.436-.123.571-.237.311-2.223 1.012-2.856.766m-4.684 5.376c.068.309.371.498.613.689l.218.004c.577-.158.063-1.848-.153-2.011-.274-.041-.342.095-.522.174-.152-.049-.193-.183-.273-.286l-.11.002c-.172.186-.346.707-.088.88.103.058.171-.007.308.005.05.151-.036.353.007.543m-1.126 2.082c.024.549-.056.919.277 1.239l.056-.009c.033-.048.091-1.099.061-1.213s-.142-.308-.257-.373l-.09-.017a.224.224 0 0 1-.048.063c-.067.121-.002.213.001.31m-7.461-1.738c-.059-.295-.007-.68-.115-.943l-.069-.012c-.018.006-.027.01-.043.011-.049.137-.151.786-.121.968l.122.311-.055.494.17.449c.008.138-.079.313-.107.395-.101.271.156.451.268.589a.473.473 0 0 0 .256-.008c.515-.863-.183-1.607-.306-2.254" fill="#fff"/></g></svg>