<svg xmlns="http://www.w3.org/2000/svg" width="252" height="252"><style>.B{fill:#a62023}</style><defs><clipPath id="A"><path d="M0 0h251.969v251.969H0zm0 0"/></clipPath></defs><g class="B"><path d="M48.156 192.629c-.086-.035-.215-.129-.156-.289.102-.273-.449.199-.543.238-.352.145-.105-.207-.105-.207.25-.18.41-.437.555-.34.141.09.297.145.398.227.086.07.254.316.324.398-.148.086-.344.039-.473-.027m2.797.262-1.98-1.5c-.082-.074-.336-.176-.25-.262.73-.746 1.414-1.258 2.207-1.914a3.8 3.8 0 0 0 .758-.855c.484-.711.441-1.629-.289-2.422 0 0-.105-.02-.129-.016-.461.051-.781.418-.887.84-.016.063.094.168.07.305.086.047.262-.051.348.094-.598.781-1.531 1.559-2.441 2.23-.418.305-.855.734-1.227.906l-3.527-1.66c-.289-.121-.68-.195-.941-.039-.203.281-.133.664.266.953 1.043.359 2.176 1.031 3.34 1.664a8.03 8.03 0 0 1-1.531 1.242c-.645-.285-1.324-.398-1.898-.32-.852.383-.988 1.09-.984 1.66.004.152.125.609.152.762.02.09-.027.188-.113.254l-4.078 2.996c-.691.488-1.332 1.191-2.02 1.777-.523.445-.883.875-1.234 1.336-.098.129-.426.328-.273.402.43.207.785.066 1.152-.07 1.52-.551 3.102-2.254 4.629-3.242 1.246-.801 2.469-1.809 3.516-2.281.566.031.957-.066 1.359.023.371-.18.813-.18 1.313-.25.711-.465 1.648-.41 2.414.168.129.098.211.363.344.57.242.367.699.438 1.031.32 1.195-1.059 1.387-2.387.906-3.672m-10.436-2.3c.02-.113.109-.195.203-.293a.461.461 0 0 1-.281-.32c.098-1.285.172-2.434-.5-3.559-.086-.141-.258-.203-.324-.168-.605.324-.531.848-.316 1.238.277.523.547.984.566 1.453.016.484-.031.957-.117 1.527-.145.32-.359.742-.172 1.188.059.141.219.125.328.09.086-.023.375-.234.461-.34.156-.219.109-.543.152-.816m156.062 21.75.109-.043.574-1.281c.188-.426.277-.676.258-.746s-.047-.141-.078-.195l-.289-.352-.043-.375c-.008-.035-.02-.066-.031-.094s-.113-.172-.297-.434l-.371-.605-.035-.051c-.086-.113-.164-.18-.242-.199s-.121.016-.141.094l-.25 1.078a3 3 0 0 0-.07.762l.102.715.027.262.469 1.117c.07.184.145.285.215.309zm-3.867-8.062.438-.035.598-.355.219-.051.09-.062c.063-.035.184-.055.375-.059l.344.004c.039 0 .152.031.332.098l.355.145.465.375.188.156c.027.023.063.063.109.117l.102.137.281.461.188.289.527 1.227.172.313.246.449c.008.02.012.023.012.023l.113.07.324-1.453.273-1.363c.129-.426.188-.687.176-.789a.57.57 0 0 0-.059-.227l-.68-1.117-.477-.773-.457-.5-.109-.168-.277-.277-.273-.266-.469-.262-.336-.25c-.293-.172-.441-.266-.445-.297l-.062-.203.738-.195.344.18c.129.051.281.039.457-.043s.293-.125.348-.137a1.12 1.12 0 0 1 .164-.012l.23.043.129-.004a3.56 3.56 0 0 1 .355.227c.211.148.332.25.355.309l.688 1.16.117.16.168.352c.113.238.199.348.258.336s.133-.105.219-.27l.219-.387.18-.527a1.5 1.5 0 0 1 .391-.508c.172-.141.297-.211.371-.207l.266.125.277.02a1.87 1.87 0 0 1 .258.113 1.53 1.53 0 0 1 .262.152c.043.035.082.098.113.184s.051.191.055.32-.07.313-.223.555l-.258.406-.199.473-.117.18c-.055.102-.09.238-.109.418s-.043.289-.066.328a.41.41 0 0 1-.07.082l-.113.105-.141.164-.305.133c-.105.102-.074.289.086.563l.801 1.371.098.211.227.242.129.156c.02.027.102.074.254.148s.25.109.301.121.164-.023.344-.094l.34-.16a.5.5 0 0 0 .117-.109l.184-.223.176-.125.164-.227.258-.289.109-.145.313-.289.148-.172.219-.117.184-.121h.102l.227-.023.363.066.254-.02.262.145.316.098c.16.059.281.164.367.309.063.121.09.223.074.305a.89.89 0 0 1-.105.254.83.83 0 0 1-.133.172l-1.227.934-.246.293-1.02.617-.957.598-.301-.004-.199.008-.207-.055-.211-.023c-.035 0-.199-.094-.496-.273l-.359-.176a1.08 1.08 0 0 1-.352-.27l-.25-.301a.58.58 0 0 1-.125-.105 1.997 1.997 0 0 1-.18-.195 1.08 1.08 0 0 1-.145-.27l-.555-1.137c-.164-.344-.277-.543-.328-.598a.86.86 0 0 0-.254-.172c-.121-.059-.223.051-.312.336l-.301 1.094-.012.402-.18 1.16c-.035.223-.043.395-.016.523.02.125.121.348.305.668l.578 1.047.176.684.207.578a.4.4 0 0 1-.031.082l-.855-.484c-.086-.023-.145-.008-.172.051-.02.055-.027.215-.012.465l.059 1.02c.012.195-.043.41-.16.641s-.215.387-.281.453-.242.086-.523.066a1.12 1.12 0 0 1-.441-.098l-.328-.211-.32-.184a1 1 0 0 1-.176-.199l-.059-.086c-.027-.047-.051-.086-.051-.109l-.078-.363-.457-1.223-.273-1.113c-.078-.316-.129-.488-.16-.516s-.086-.047-.145-.062l-.457.066a.59.59 0 0 1-.168-.043l-.461-.137a1.959 1.959 0 0 1-.539-.234 1.25 1.25 0 0 1-.316-.312c-.078-.121-.09-.223-.023-.324l.414-.199a.58.58 0 0 0 .141-.125l.75-1.004.598-.492.02-.074c.004-.035-.008-.07-.031-.109s-.059-.086-.105-.141a2.98 2.98 0 0 1-.168-.211l-.187-.234-1.102-.57a.54.54 0 0 1-.187-.137l-.262-.355-.277-.301-.098-.16c.039-.012.059-.023.074-.031m19.655-12.803c.016.023.043.035.074.039l.152-.187c.008-.008.074-.047.199-.109l.371-.289.383-.098a.279.279 0 0 0 .098-.148.48.48 0 0 0-.004-.246l-.062-.262.031-.367-.187-.5c-.07-.262-.148-.418-.246-.469s-.184.055-.262.324l-.18.535-.113.508-.312 1.004c.016.145.031.23.059.266m.262 1.379c.027.008.098-.023.195-.086.105-.062.16-.117.172-.164l.016-.035.203-.203c.082-.086.102-.148.07-.195-.031-.039-.086-.059-.152-.059s-.145.039-.203.125a.72.72 0 0 1-.066.086c-.023.027-.043.063-.07.105-.023.063-.082.117-.168.18-.09.055-.133.094-.129.113l.008.082c.055.031.094.051.125.051m1.586 2.938a2.18 2.18 0 0 0 .324-.078c.082-.02.27-.117.57-.277.289-.164.48-.289.555-.383.117-.133.148-.246.094-.336-.062-.094-.242-.305-.543-.637l-.152-.164-.051-.059c-.148-.152-.242-.109-.277.133l-.211.605-.195.766c-.191.313-.223.457-.113.43m-6.219-5.496-.09-.094a.127.127 0 0 1-.016-.082l.121-.187c.027-.031.039-.074.039-.133a.33.33 0 0 1 .016-.102l.164-.141-.004-.191.121-.145.039-.086.207-.004c.043-.012.063-.043.059-.09l-.035-.098.23-.172.035-.281.082-.156v-.141c0-.031.039-.109.117-.234l.152-.246.051-.082c.004-.008-.031-.074-.094-.184s-.062-.203.016-.262c.102-.066.148-.074.125-.02l-.012.223.109.066a1.07 1.07 0 0 1 .129-.27c.059-.074.074-.125.059-.148l-.184-.113.031-.062.055-.141.113-.074c.016-.008.07-.09.152-.25l.113-.184.059-.156a.275.275 0 0 1 .078-.098c.066-.062.16-.094.289-.102-.039-.105-.051-.176-.039-.223s.074-.145.195-.305l.203-.258c.141-.113.262-.195.348-.234l.398-.027.25-.051c.191-.012.344.035.461.148s.184.207.199.285c.023.102.004.223-.047.371l-.102.289a3.85 3.85 0 0 0-.082.559 3.846 3.846 0 0 0-.016.641l.031.262-.039.254a2.306 2.306 0 0 0-.004.375 2.71 2.71 0 0 1 0 .398c-.012.129 0 .203.039.23s.109.008.211-.043c.008 0 .094-.082.246-.242.16-.16.375-.273.66-.34s.484-.082.609-.047.246.098.371.18a2.03 2.03 0 0 1 .277.207c.063.063.137.211.227.453a.93.93 0 0 1 .066.281l-.02.246.016.273-.039.258.055.348-.055.371.016.313-.156.547a.53.53 0 0 0 .113.328l.262.316.191.188c.102.102.199.137.301.105l.391-.426a2.75 2.75 0 0 1 .316-.258l.176-.098.129-.148.109-.082c.07-.055.16-.129.27-.238a2.67 2.67 0 0 0 .207-.211l.082-.098a.258.258 0 0 0 .055-.043l.195-.117.188-.156c.016-.012.125-.047.328-.113l.465-.16a1.29 1.29 0 0 1 .668.109c.234.098.434.227.602.391s.273.418.32.773l.07.422c.02.105.027.176.023.215s-.023.063-.043.082-.043.043-.07.055a1.02 1.02 0 0 1-.234-.008l-.332-.023-.359-.078-.551.223-.367.07-.137.086c-.09.055-.234.078-.441.078l-.344.008-.227.125-.234.09.246-.191c.09-.07.195-.141.32-.223l.203-.129a.277.277 0 0 0 .086-.137l.063-.223.203-.371a.185.185 0 0 0-.055-.145c-.012-.004-.027-.012-.027-.012l-.23-.059-.187-.055c-.273-.031-.617.145-1.023.535l-.355.352a1.62 1.62 0 0 1-.156.129l-.125.102c-.027.047-.047.094-.055.133s-.008.078.004.105l.305.273 1.059 1.191.52.648.176.473.09.148c.035.09.039.23.016.422s-.094.328-.207.41a.28.28 0 0 1-.191.066l-.309-.023-.254.027-.27-.043-.617.043-.281-.02-.562.105-.34-.039-.355.109-.18-.02-.105.02.031.91c.012.332.07.605.176.82.094.215.148.395.152.527s-.031.227-.105.281c-.035.035-.129.051-.27.051s-.234-.012-.27-.027-.129-.07-.293-.172l-.371-.184a1.846 1.846 0 0 1-.285-.234 1.18 1.18 0 0 1-.254-.289l-.5-.93-.066-.145-.395-.336c-.023-.094.008-.18.09-.262a.36.36 0 0 1 .285-.09l.359.125.383.063c.199.063.313.074.34.043.012-.016.023-.051.047-.105.012-.062.008-.09-.023-.098l-.168-.043a.355.355 0 0 1-.008-.105l.375-.141.605-1.211.008-.102.594-1.211c.035-.078.004-.18-.105-.305l-.141-.148-.242-.246c-.074-.047-.129-.059-.18-.035a2.24 2.24 0 0 0-.242.203c-.121.113-.281.176-.496.191-.207.016-.387.016-.539-.008s-.242-.031-.273-.023l-.105.813c-.012.055-.066.152-.16.297s-.145.223-.168.23c-.09.094-.227.129-.406.113a2.493 2.493 0 0 1-.406-.062c-.09-.02-.199-.09-.32-.207l-.227-.23a.47.47 0 0 1-.082-.109l-.066-.258-.09-.23.164-.691-.094-.234c-.016-.062.012-.215.086-.465.066-.254.063-.437-.02-.539l-.121-.168.164-.363-.105-.246.086-.316-.016-.27.098-.219-.105-.273.066-.324-.078-.285.02-.254-.02-.285.051-.293.027-.387.148-.145s.004-.02.004-.059.004-.102.02-.203-.035-.215-.156-.332-.191.016-.203.406c-.008.039-.008.063-.016.082a.49.49 0 0 1-.086.098l-.082.07-.051.191-.199.113-.008.137-.125.199.02.246-.086.125-.008.148-.109.129-.02.133-.234.215.012.113-.008.156.078.105-.105.145.035.242-.148.191-.027.285-.258 1.059-.035.285-.078.164-.051.324c-.008.047-.051.16-.125.344l-.23.652a1.97 1.97 0 0 1-.348.508c-.043.047-.164.133-.375.254s-.383.156-.516.113a.96.96 0 0 1-.34-.191l-.406-.43c-.148-.145-.23-.25-.262-.316-.027-.074-.027-.301 0-.676.031-.383.066-.629.105-.738l.648-1.691.113-.375.316-1.262.117-.453.023-.348.082-.227.016-.215.012-.145-.051-.273c-.023-.141-.047-.223-.07-.246-.043-.031-.203-.062-.473-.102-.281-.035-.477-.043-.605-.016s-.203.031-.223.004c-.039-.039-.027-.129.035-.258l.586-.488a.53.53 0 0 0 .09-.195 1.28 1.28 0 0 1 .039-.152l.441-.223.184-.168c.047-.039.199-.098.453-.187l.449-.141.492.039c.215.012.344.035.379.066s.082.113.137.25l.133.383a.68.68 0 0 1-.02.148l-.082.285-.066.285c-.012.031-.07.125-.191.277a2.3 2.3 0 0 0-.305.484 1.58 1.58 0 0 0-.141.418l-.016.168-.23.336-.113.301-.082.129-.027.188-.117.238-.059.23-.145.242.004.156v.047l-.234.156a1.04 1.04 0 0 0-.039.176.52.52 0 0 1-.082.207l-.18.172-.238.324-.133.094-.074.219-.434.871c-.145.293-.203.516-.172.668s.055.238.09.262c.086.09.18.082.277-.016a.161.161 0 0 0 .059-.07l.246-.512.152-.109.066-.184.125-.227.012-.176.043-.199.035-.242.211-.129.172-.367.141-.074a.414.414 0 0 0-.027-.102M113.797 200.715v7.488c0 .563.023.918.074 1.078a.68.68 0 0 0 .309.379c.157.098.414.148.758.148h.211v.25h-4.82v-.25h.238c.398 0 .676-.039.84-.133s.277-.215.34-.371c.055-.16.086-.523.086-1.102v-4.75c0-.422-.023-.684-.059-.793a.6.6 0 0 0-.23-.27.663.663 0 0 0-.379-.109c-.23 0-.508.07-.836.215l-.125-.242 3.371-1.539zm8.094 5.09.07-1.332c0-.816-.098-1.582-.285-2.289-.105-.387-.266-.68-.48-.863a.647.647 0 0 0-.437-.145.59.59 0 0 0-.527.289c-.176.266-.266.77-.266 1.516 0 1.25.156 2.109.449 2.582.195.305.453.457.781.457.176 0 .41-.07.695-.215m-3.879 4.445v-.191c.75-.168 1.387-.422 1.906-.754a3.96 3.96 0 0 0 1.234-1.238 4.89 4.89 0 0 0 .641-1.695 4.07 4.07 0 0 1-.715.305 2.45 2.45 0 0 1-.617.082c-.691 0-1.273-.25-1.734-.75s-.691-1.184-.691-2.051a3.73 3.73 0 0 1 .375-1.66 2.79 2.79 0 0 1 1.07-1.168 2.78 2.78 0 0 1 1.445-.414 2.74 2.74 0 0 1 1.52.461c.48.305.859.746 1.141 1.328s.426 1.242.426 1.984c0 .965-.23 1.887-.691 2.766-.461.887-1.148 1.594-2.062 2.125s-1.992.824-3.246.871m9.982-9.349h4.285l-.68 1.746h-3.605l-.344.91c1.551.055 2.746.445 3.582 1.16.695.59 1.035 1.324 1.035 2.203 0 .563-.16 1.113-.477 1.648a3.2 3.2 0 0 1-1.352 1.242 4.24 4.24 0 0 1-1.914.438c-.746 0-1.316-.141-1.723-.422-.277-.195-.414-.422-.414-.676 0-.191.07-.363.215-.512s.32-.223.512-.223a1.38 1.38 0 0 1 .535.109c.18.074.488.262.926.566.273.191.508.32.707.391a1.3 1.3 0 0 0 .473.082c.371 0 .684-.137.945-.406a1.34 1.34 0 0 0 .387-.969c0-.793-.398-1.437-1.187-1.934-.797-.496-1.793-.742-3-.742l-.547.004zm8.238 4.567v-.238c.508-.148.867-.285 1.066-.418.199-.125.367-.32.512-.582s.215-.531.215-.805a1.3 1.3 0 0 0-.406-.961c-.273-.27-.609-.398-1.02-.398-.625 0-1.164.332-1.605.996l-.25-.086c.324-.754.742-1.316 1.246-1.695a2.75 2.75 0 0 1 1.691-.566c.637 0 1.16.191 1.574.578.406.391.617.844.617 1.355 0 .34-.102.668-.289.977-.191.316-.492.59-.902.832.531.258.926.57 1.207.945s.41.848.41 1.418a3.27 3.27 0 0 1-1.031 2.434c-.695.668-1.617 1.004-2.781 1.004-.773 0-1.336-.129-1.695-.387-.254-.184-.383-.414-.383-.699a.69.69 0 0 1 .223-.527.72.72 0 0 1 .508-.223.95.95 0 0 1 .422.098c.074.035.328.234.77.59.438.363.848.539 1.23.539.336 0 .617-.133.859-.395s.355-.598.355-1.004c0-.617-.215-1.187-.648-1.707s-1.062-.875-1.895-1.074m-73.984 7.073c.258-.352.289-.781.387-1.121-.117-.281-.352-.488-.66-.758.383-.762.445-1.633-.035-2.328l.887-.707c.434-.281 1.004-.086 1.344.34.582.297 1.273.23 1.617-.375.344-.617.297-1.309-.172-1.852-.039-.039-.199-.062-.242-.062l-2.168-.074c-1.082.078-2.285-.48-3.422-1.305-.078.352-.152.637-.066.91.063.207.156.492.348.566l2.129.742c-.539.301-1.039.883-1.531 1.355-.266-.18-.406-.383-.574-.555-.066-.066-.238-.156-.277-.043-.211.605-.504 1.281-.492 1.852-.312.25-.641.199-.926.215-.73.043-1.543-.25-2.164.703-.324.5-.457 1.074.207 1.602.508.039 1.223.469 1.941.891.215.125.359.414.531.461.297.074.59-.055.809-.352.273-.375.434-.789.52-1.191.434-.363.949-.422 1.504-.441.09 0-.047.52-.187.715-.074.098-.344.016-.508.133.344.258.613.543.852.781.074.074.266.02.352-.102m-2.906-9.656-.227.219c-.02.023-.102.074-.109.09-.207.379-.531.77-.867 1.105l-4.484 4.242c-.559.457-1.055 1.137-.898 1.645.027.094.227.188.277.234.238-.094.504-.207.688-.402l4.164-4.664c.711-.73 1.293-1.492 1.602-2.273.035-.094-.082-.152-.145-.195m-1.603 9.928c-.008-.008-.121.047-.289-.004-.828-.23-1.82-.848-2.793-1.551-.336-.246-.687-.453-.879-.781-.164.117-.277.359-.176.574.211.445.617.91 1.125 1.344 1.07.918 2.176 1.285 3.301 2.129.082.066.328-.074.32-.152-.051-.531-.258-1.051-.609-1.559"/><path d="M68.75 209.891c.461-.258.969-.113 1.375-.449.324-.258.523-.574.574-.891.215-1.367-.559-2.789-2.129-3.91-1.906-.969-3.789-1.328-5.629-1.707-.348-.07-.727-.215-1.039-.039-.137.078-.086.246-.027.344.066.113.418.422.555.496.145.078.328.129.496.141 1.523.086 3.066-.059 4.672.941.535.332 1.086.699.992 1.215-.137.727-.855 1.418-1.418 2.141l-5.855 7.953c-.375.484-.793.98-1.219 1.211-.086.047-.254.191-.316.023l-.785-2.004c-.109.012-.203-.047-.285-.078-.09.121-.457.484-.461.676-.016.668-.187 1.438-.352 2.207-.148.766-.34 1.582.113 2.258.375.551.965.621 1.371.445.543-.582 1.094-1.023 1.664-1.273l6.449-8.602a3.84 3.84 0 0 1 1.254-1.098m89.621 11.043c.531.457 1.113.879 1.797 1.023.371.07.898.004 1.063-.422.344-.418-.285-.984-.559-1.297-.184-.207-.273-.492-.41-.766.035-.047-.051-.301-.137-.109a1.7 1.7 0 0 1-.59.664c-.156.105-.453.027-.672-.059-.359-.133-.855-.195-1.25.047-.051.031-.051.188.012.25l.746.668m4.192-.343c-.203.355-.637.793-.812 1.125a6.22 6.22 0 0 0 1.383-1.508c.711-.602 1.559-1.258 2.168-1.961.445-.52.813-1.039 1.32-1.426.492-.051.645-.457.578-.723-.184-.754-.738-1.176-1.422-1.414-.617.035-1.574.191-2.387.563a3.61 3.61 0 0 0-.414.273c-.379.336-.66.75-1 1.125-.25.273-.605.488-1.008.488.453.879 1.074 1.5 1.82 1.727.176.051.379-.055.547-.145.25-.129.289-.445.227-.664-.094-.367-.355-.668-.285-1.031-.062-.016-.145-.066-.156-.148-.066-.445.039-.879.43-1.152.191-.352.801-.496 1.117-.27.422.305.246.805.168 1.137-.348 1.508-1.512 2.668-2.273 4.004m6.307 4.43c-.238.09-.5.332-.875.371l-1.418-1.566c-.176-.16.039-.582.348-.824a1.29 1.29 0 0 0 .461-1.156c-.32-.73-.871-1.145-1.508-1.164-.473-.012-.98.086-1.5.285-.051.02-.129.145-.152.184-.687 1.086-1.609 2.109-3.039 2.871.473.57 1.117.711 1.785.473.395-.137.734-.312.91-.633.043-.082.234-.184.223-.121-.051.336-.187.652-.125.98.094.516.445.816.703 1.098.375.406.879.688 1.488.602.133-.02-.023.191-.09.223-.48.215-.855.492-1.102.805-.863 1.113-2.148 2.016-3.172 3-.102.098.102.195.18.215.57.113 1.246 0 1.922-.215.836-.254 1.473-.684 2.133-1.086.582-.363 1.223-.652 1.758-.383.023.012.082.219.102.285.359.961.379 1.824.211 2.582-.16.75-.328 1.621-1.223 2.039-1.273.594-2.508.992-3.746 1.719-.055.027-.055.25-.008.27.938.305 1.961.41 3.133.48.184.109.559.02.863-.082 1.043.117 2.227-.543 2.645-1.242.453-.758.41-1.742.641-2.602.313-1.207-.398-2.941-1.031-4.426a.37.37 0 0 1 .035-.379c.34-.414.875-.543 1.438-.645.09-.02.168-.105.133-.191-.109-.281-.004-.566-.098-.949-.414-.703-1.168-.777-2.023-.816m2.604-7.827c-.406-.48-1.059-.41-1.629-.348-.988.102-2.207.617-3.074 1.152-2.566 1.574-4.469 3.508-6.324 5.379-.578.586-.859 1.313-1.652 1.738-.32-.129-.594-.18-.852-.312-.16-.086-.508-.195-.531-.109l-.602 2.09c-.23.633.316 1.832.988 1.809.371.164.789-.059 1.055-.539-.035-.621-.121-1.41.121-2.113.797-.789 1.594-1.629 2.098-2.562 1.367-1.465 2.742-2.937 4.77-4.121.785-.645 1.652-1.242 2.871-1.645.09-.031.004.172-.027.195-.395.324-.652.586-1.094.867-.062.043-.094.207-.215.309-.504.406-1.031.836-1.219 1.398l.297-.117.262.461c.504-.371 1.203-.652 1.832-.867a2.98 2.98 0 0 0 .602-.293l2.207-1.324c.313-.176.422-.691.117-1.047m-22.212 22.511c-1.301-.602-2.719-1.105-4.098-1.582-.719-.246-1.441-.43-1.969-.871-1.648-1.359-3.004-3.09-4.535-4.59.84-1.145 1.758-2.141 2.871-2.902.215-.145.352-.301.336-.496-.012-.176.016-.406-.215-.488.25-.211.023-.57-.098-.676l-.668-.562c-.117-.098-.641-.227-.789-.301-.363-.195-1.016-.043-1.434-.16-.184-.055-.191-.266-.242-.402-.582-1.605-1.637-2.605-3.434-2.828l-.859.137c-.102.012-.117.164-.051.215.207.164.469.344.613.629.449.891.707 2.184.672 3.496-.02.613.008 1.344-.187 1.883-.113.32-.516.414-.793.66-.457.414-1.043.707-1.77.883-.125.035-.391.188-.289.25a18.11 18.11 0 0 0 1.938 1.059c.242.113.672.156.68.477-.164.598-.523.992-.914 1.367-1.254 1.219-2.777 2.176-4.105 3.48-.039.039-.211.184-.148.352.02.059.117.074.195.074l3.102-.082a3.3 3.3 0 0 1 .266.023c1.641-.422 2.637-1.297 3.602-2.187.309-.277.539-.633.715-1.152.047-.148.078-.449.07-.727a.452.452 0 0 1 .383.063c.867.633 1.648 1.391 2.422 2.133.504.488 1.016 1 1.434 1.57.809 1.102 1.68 2.121 2.859 2.645l2.461.078c.215-.395.477-.77 1.086-.762.207.004.469-.25.652-.461.031-.031.262-.023.324-.031-.004-.07.008-.168-.082-.211m-34.665-8.335c-.531 1.07-.875 2.66-1.422 3.98-.203.496-.527.82-.828 1.316-.102.168-.324-.23-.426-.395a1.028 1.028 0 0 0-.996-.477c-.137-.348-.02-.957.219-1.203.078-.086.398.195.523.109.281-.195.496-.461.629-.871-.227-.336-.477-.684-.605-1.098-.074-.227-.156-.488-.121-.711l.285-1.75c.574-.145 1.211-.176 1.891-.195.535-.016.988.195 1.156.547.094.191-.141.41-.305.746m-3.781 6.152c-.012-.039.047-.066.082-.09.184-.102.387.012.613.039-.043.289-.477.078-.695.051m5.582-7.141c-1.293-.832-3.211-.629-4.555-.449l.301-1.855c.043-.254.156-.484.289-.715.57-.984.188-2.082-.297-2.711-.266-.336-.469-.742-.977-.91-.211-.066-.793-.223-.836-.094-.055.188.109.648.125.793.191 1.645-.133 3.629-.352 5.559l-2.367.703c-.262.082-.629.168-.773.383.113.129.266.172.398.254.211-.168.516-.207.777-.305.617-.227 1.188-.57 1.91-.676l-.27 1.664c-.086.336-.195.656-.371.875-.504.129-.977.27-1.535.254-.031.336.141.594.203.863.082.352.387.746.77.922-.59.328-1.117.496-1.656.645-.117.027-.289-.074-.352-.219l-1.406-3.187c-.16-.309-.527-.523-1.055-.602.254.594.664 1.078.902 1.652.547 1.34 1.188 2.68 1.426 4.258.172.359.914.418 1.25.285.863.133 1.559.02 2.145-.121.59.094.895.477.898.926.227.793.551 1.578 1.344 1.914.441-.023.707-.316.914-.621l1.961-2.891c.422-1.129.875-2.18 1.426-3.086a1.07 1.07 0 0 0 1.074-.059c.332-.207.531-.793.379-1.238-.309-.918-.883-1.691-1.691-2.211m-13.183 3.663c-.812.824-1.547 1.738-2.434 2.367-.113.082-.223-.031-.23-.156-.012-.113.133-.414-.055-.465-.055.379-.359.52-.496.684-.148.652.137 1.086.422 1.418s.738.293 1.063.113c.238-.133.473-.305.605-.578.453-.937.719-2.211 1.219-3.238.02-.035.043-.277-.094-.145M102.121 229.336c.07-.121.094-.598-.125-.277-.012.02-.055.047-.07.059-.105.117-.215.277-.211.426.031.895.313 1.656.801 2.277.094.113-.242.234-.25.453.113-.035.199-.109.34-.207.23.336 1.008.5 1.344.23a.458.458 0 0 0 .168-.254c.027-.148-.059-.363-.145-.547-.402-.848-1.164-1.469-1.852-2.16m3.309-.52c.113-.027.277-.117.273-.195-.035-.469-.121-.867-.316-1.18a8.15 8.15 0 0 0-1.625-1.875c-.035-.031-.164-.074-.148.063.074.777.371 1.426.625 2.074.047.129-.332.199-.262.336.145-.031.289-.102.395-.023.109.086.336.465.441.563.16.16.383.293.617.238m-18.629-3.282c-.32-.195-.684-.387-1.051-.742-.594.254-1.316.266-2 .199l-1.156-.25c-.098-.012-.266.082-.223.219.188.668.324 1.352.746 1.934a.181.181 0 0 1-.008.23c-.422.516-1.09.457-1.687.328-.074.082-.113.199-.031.293.039.043.402.094.152.211-.121.051-.289-.031-.32-.184-.02-.141-.121-.039-.141.004-.062.129-.18.027-.199-.031-.504-1.242-.852-2.562-2.242-3.539.086-.137.328-.176.543-.316 1.172-.812 2.395-1.691 3.918-1.898.637-.461 1.281-1.152 2.121-1.594.609-.117 1.441-.445 1.77-1.465l2.594-.172.996.504c.164.074.539.066.57-.102.164-.863-.129-1.625-.719-2.129-.074-.062-.348 0-.418-.004-1.723-.059-3.359.32-5.164-.195l-1.066-.652c-.109-.062-.187.184-.184.289.055.863.535 1.715 1.566 2.273-.492.516-.957.797-1.41 1.129-2.27 1.664-4.723 2.906-7.187 4.016l-8.391 2.777c.156.191.367-.004.441.055.383.285.793.105 1.09.145.41.055.801-.164 1.18-.27l3.043-.762c1.473-.465 3.008-.777 4.414-1.574.059.328.098.695.301.941a2.19 2.19 0 0 0 .863.629c.406.473.578 1.039.707 1.602.113.488-.078 1.055-.023 1.559.059.523.145 1.129.742 1.391l3.246 1.598c.418.203.848-.109.898-.648l.082-2.102c-.008-.18.363-.406.719-.398.457.008 1.102.047 1.566-.527.094-.121.301-.34.293-.559a3.28 3.28 0 0 0-.941-2.211M62.297 62.297c-16.305 16.305-26.379 38.813-26.383 63.688.004 24.875 10.078 47.383 26.383 63.684s38.813 26.383 63.688 26.383 47.383-10.078 63.684-26.383 26.379-38.809 26.383-63.684c-.004-24.875-10.082-47.383-26.383-63.687s-38.812-26.379-63.684-26.379-47.387 10.078-63.687 26.379m-28.895 63.688c.004-51.133 41.449-92.582 92.582-92.582s92.578 41.449 92.578 92.582-41.445 92.578-92.578 92.582c-51.133-.004-92.578-41.453-92.582-92.582"/></g><g class="B" clip-path="url(#A)"><path d="M39.859 39.863C17.816 61.91 4.188 92.344 4.188 125.984s13.629 64.074 35.672 86.121 52.484 35.668 86.125 35.668 64.07-13.625 86.117-35.668 35.672-52.48 35.672-86.121-13.629-64.074-35.672-86.121-52.48-35.672-86.117-35.676c-33.641.004-64.078 13.629-86.125 35.676M0 125.984C0 56.406 56.402 0 125.984 0s125.984 56.406 125.984 125.984-56.406 125.98-125.984 125.984C56.402 251.965 0 195.566 0 125.984"/></g><g class="B"><path d="m15.297 157.781.004-1.754a.85.85 0 0 0-.543-.574 1.652 1.652 0 0 0-.789-.102l-.199-.617 5.211-1.676.184.57c-.961.895-1.676 1.73-2.148 2.5-.875 1.426-1.098 2.801-.672 4.117.477 1.492 1.461 2.344 2.953 2.559 1.484.219 3.316-.023 5.48-.723 1.598-.512 2.852-1.117 3.762-1.816 1.711-1.309 2.262-2.898 1.664-4.766a6.06 6.06 0 0 0-1.98-2.887c-.555-.445-1.355-.922-2.418-1.43l.332-.84c1.25.559 2.199 1.098 2.848 1.617a7.308 7.308 0 0 1 2.418 3.543c.707 2.199.648 4.25-.184 6.156-.914 2.113-2.594 3.555-5.039 4.34-2.422.777-4.633.625-6.641-.469-1.883-1.031-3.168-2.617-3.859-4.762a8.716 8.716 0 0 1-.383-2.988m12.882-8.634c-.117-.613-.273-1.035-.453-1.273-.305-.395-.789-.543-1.461-.445l-11.215 1.637c-.652.094-1.066.352-1.242.77-.098.254-.137.73-.102 1.426l-.59.086-1.141-7.836.586-.086c.137.672.297 1.129.477 1.375.301.398.789.551 1.453.457l4.805-.703-.801-5.516-4.805.699c-.668.098-1.086.375-1.262.82-.105.277-.129.77-.07 1.477l-.59.086-1.148-7.883.586-.082c.156.668.32 1.121.496 1.348.293.383.773.523 1.43.426l11.219-1.637c.676-.102 1.098-.395 1.277-.891.102-.281.121-.734.055-1.355l.59-.09 1.145 7.883-.582.082c-.125-.656-.281-1.117-.48-1.371-.305-.395-.789-.543-1.453-.445l-5.336.777.805 5.516 5.34-.777c.684-.102 1.117-.402 1.285-.902.098-.293.109-.762.039-1.402l.59-.09 1.141 7.84zm0 0"/><path d="M25.977 132.219c-.027-.664-.117-1.137-.266-1.422-.258-.465-.727-.695-1.422-.68l-11.332.23c-.691.012-1.141.242-1.371.699-.137.277-.215.766-.234 1.465l-.59.016-.168-8.18.594-.012c.047.73.141 1.234.281 1.504.246.449.715.672 1.41.656l11.336-.23c.652-.012 1.086-.203 1.301-.57s.313-.926.297-1.652l.594-.016.168 8.18zm0 0"/><path d="M25.566 124.199c.063-.867-.051-1.441-.332-1.719s-.727-.453-1.32-.512l-11.035-1.07-1.531 1.18c-.156.152-.266.371-.336.656l-.59-.055.48-4.937 10.512-7.059.008-.113-6.84-.668c-.789-.074-1.363.012-1.73.27s-.625.805-.773 1.656l-.594-.055.488-5.004.59.055c.047.738.164 1.246.344 1.512s.621.434 1.332.5l13.727 1.336-.062.648-13.449 9.031-.016.164 9.129.887c.719.07 1.234.023 1.551-.145.512-.266.828-.875.961-1.836l.594.055-.516 5.277zm-1.023-25.578-5.805.809-.051.188 4.703 3.414zm2.543 9.746a1.76 1.76 0 0 0-.391-1.508c-.234-.289-.785-.762-1.664-1.418l-11.078-8.266.164-.633 13.215-1.941c1.484-.223 2.453-.418 2.914-.598s.75-.527.867-1.047l.578.148-1.914 7.332-.574-.148c.16-.75.227-1.25.191-1.504-.035-.262-.25-.437-.641-.543-.176-.047-.465-.059-.852-.031l-.855.094-1.52.219-1.328 5.082 1.59 1.102c.527.352.93.563 1.195.633.324.082.617-.07.875-.469.148-.238.297-.609.438-1.125l.574.152-1.207 4.617zm-5.113-32.262.535.258c-.367.828-.504 1.438-.41 1.82s.539.766 1.348 1.152l7.059 3.41c1.074.512 1.965.789 2.672.816 1.309.059 2.273-.559 2.906-1.863.777-1.617.707-3-.219-4.152-.512-.629-1.359-1.234-2.547-1.809l-6.449-3.105c-.754-.367-1.34-.477-1.762-.336s-.852.598-1.305 1.379l-.531-.258 2.23-4.629.535.258c-.195.734-.25 1.254-.164 1.563s.465.625 1.145.949l6.738 3.254c1.793.863 2.973 1.961 3.527 3.297s.391 2.926-.504 4.777c-1.164 2.422-2.691 3.73-4.57 3.922-1 .105-2.105-.137-3.32-.723l-7.055-3.402c-.793-.383-1.34-.516-1.645-.406s-.68.512-1.117 1.207l-.531-.258zm17.14-.562c.477-.723.66-1.277.551-1.66s-.41-.746-.906-1.09l-9.102-6.328-1.914.285c-.207.059-.414.191-.613.41l-.488-.34 2.832-4.07 12.617-1.027.063-.094-5.641-3.922c-.652-.453-1.199-.656-1.641-.613s-.937.402-1.488 1.066l-.488-.336 2.867-4.129.492.34c-.32.672-.465 1.164-.437 1.484s.332.684.914 1.09l11.328 7.871-.371.531-16.152 1.316-.09.129 7.535 5.234c.59.414 1.063.621 1.422.629.574.023 1.156-.355 1.738-1.129l.484.34-3.023 4.352zm9.192-12.855c.43-.504.688-.914.77-1.227.129-.516-.062-1-.582-1.461l-8.477-7.523c-.52-.457-1.008-.594-1.484-.414-.289.109-.68.418-1.168.922l-.441-.398 5.426-6.117.449.398c-.465.563-.734.992-.816 1.289-.129.5.07.977.59 1.441l8.48 7.52c.488.438.938.594 1.344.465s.855-.465 1.34-1.008l.445.387-5.43 6.125zm.894-22.758.379.426c-.59.594-.953 1.008-1.074 1.242s-.055.496.199.781a1.96 1.96 0 0 0 .246.234c.082.063.184.121.305.18l8.523 4-.023.027-2.977-7.961-.223-.527c-.129-.281-.254-.492-.375-.629-.297-.328-.578-.445-.848-.355s-.723.387-1.363.879l-.379-.426 3.723-3.312.379.43c-.387.426-.594.836-.629 1.227s.078.93.328 1.613l5.152 13.824-.461.41-13.816-6.473c-.559-.262-1.012-.395-1.367-.414s-.75.141-1.187.465l-.379-.426zm16.438 6.57-.328-.5c.555-.383.898-.719 1.055-1.008.23-.437.16-.937-.203-1.504l-6.172-9.504c-.371-.574-.809-.836-1.316-.789-.293.023-.734.203-1.32.539l-.328-.496 11.309-7.348 2.57 3.961-.48.313c-1.07-1.102-2.055-1.695-2.957-1.773s-2.137.395-3.715 1.422c-.602.387-.941.695-1.027.93-.082.227 0 .527.242.898l2.949 4.543c1.125-.711 1.75-1.406 1.875-2.082s-.066-1.637-.582-2.887l.504-.324 4.305 6.633-.5.324c-.867-1.027-1.664-1.629-2.395-1.805s-1.648.094-2.766.824l3.086 4.75c.27.414.559.629.867.641.316.012.805-.199 1.469-.629 1.25-.816 2.113-1.723 2.594-2.723s.586-2.367.332-4.098l.547-.355 1.859 4.598zm16.836-19.645c.43-.645.344-1.641-.262-2.988-.375-.824-.781-1.426-1.227-1.801-.762-.633-1.672-.711-2.719-.238-.566.254-.91.492-1.023.715s-.094.496.055.824l2.449 5.426c1.387-.652 2.293-1.297 2.727-1.937m-4.988 11.156c.711-.359 1.141-.719 1.297-1.074s.059-.926-.297-1.723l-4.258-9.434c-.375-.816-.77-1.285-1.195-1.395-.285-.07-.805.027-1.562.293l-.242-.539 6.863-3.098c1.422-.641 2.641-1.016 3.656-1.113 1.984-.168 3.324.531 4.035 2.098.523 1.164.484 2.277-.105 3.352-.457.805-1.039 1.453-1.738 1.938l7.273 4.023a.992.992 0 0 0 .523.16 1.81 1.81 0 0 0 .531-.125l.23.512-4.449 2.012-7.984-4.418h-.012l1.887 4.176c.34.75.695 1.199 1.063 1.348s.93.063 1.691-.246l.242.543-7.203 3.25zm13.976-11.391.637-.219c.922 1.516 1.91 2.508 2.953 2.98s2.074.535 3.09.184c.984-.336 1.598-.832 1.832-1.484s.254-1.262.055-1.828c-.227-.652-.633-1.113-1.211-1.379-.383-.172-1.082-.324-2.109-.457l-1.66-.223c-1.641-.215-2.867-.57-3.68-1.055s-1.398-1.234-1.754-2.242c-.375-1.066-.344-2.195.094-3.383s1.438-2.055 3.012-2.598a8.08 8.08 0 0 1 2.445-.437l1.406-.074c.242-.082.387-.207.426-.383.043-.168.055-.379.031-.625l.66-.227 1.672 4.766-.621.211c-.676-1.004-1.516-1.777-2.52-2.324-1.012-.551-2.035-.645-3.074-.285-.734.25-1.242.652-1.523 1.203a2.06 2.06 0 0 0-.129 1.688c.246.691.625 1.141 1.145 1.348.512.211 1.57.422 3.168.633l1.922.25c.855.113 1.574.316 2.164.609 1.098.551 1.852 1.41 2.266 2.594.387 1.105.32 2.293-.207 3.574s-1.742 2.25-3.656 2.906a7.63 7.63 0 0 1-1.375.332 7.56 7.56 0 0 1-1.465.082l-.48-.016-.309.027a1.93 1.93 0 0 0-.246.055c-.227.078-.359.199-.395.359s-.051.375-.027.641l-.637.215zm11.945 1.719c.652-.133 1.102-.301 1.359-.496.422-.328.566-.832.441-1.512l-2.078-11.145c-.129-.676-.43-1.086-.914-1.234-.297-.094-.793-.086-1.488.012l-.109-.586 8.043-1.5.109.586c-.715.164-1.191.336-1.437.52-.406.313-.547.813-.418 1.496l2.074 11.145c.121.645.383 1.039.781 1.191s.965.156 1.68.023l.109.586-8.043 1.496zm6.996-16.867 14.055-1.016.359 4.711-.668.043c-.344-1.664-1.059-2.758-2.141-3.277-.609-.285-1.492-.402-2.66-.348l.887 12.293c.063.859.254 1.418.574 1.68s.957.355 1.906.289l.039.59-8.316.602-.043-.594c.91-.066 1.508-.254 1.785-.559.285-.309.387-.887.332-1.738l-.891-12.297c-1.137.113-1.996.355-2.582.727-1.074.691-1.621 1.875-1.645 3.555l-.672.051zm24.321-.493-.051.594c-.809-.02-1.328.004-1.562.063s-.355.207-.379.449c-.008.105.008.227.039.355s.109.359.238.699l2.648 5.844h.027l2.824-3.906a8.62 8.62 0 0 0 .57-.883c.309-.535.477-.93.496-1.203.031-.41-.109-.695-.426-.855-.215-.105-.695-.219-1.441-.328l.047-.59 5.121.391-.043.594a4.75 4.75 0 0 0-.906.172 1.83 1.83 0 0 0-.762.609l-5.016 6.91-.328 4.293c-.074.891.035 1.469.316 1.75s.84.461 1.664.547l-.043.59-8.086-.625.047-.59c.863.043 1.453-.062 1.758-.312s.492-.801.563-1.652l.266-3.43-3.664-8.074c-.238-.535-.559-.918-.953-1.152a2.188 2.188 0 0 0-.816-.27l.047-.594zm23.304 17.071c.648-.984 1.227-2.352 1.73-4.094.691-2.395.852-4.301.488-5.723s-1.156-2.309-2.383-2.66c-1.699-.488-3.156.188-4.371 2.031-.641.98-1.207 2.328-1.707 4.051-.504 1.75-.742 3.211-.719 4.383.051 2.18.922 3.516 2.621 4.004 1.688.488 3.133-.18 4.34-1.992m5.082-9.406c1.113 1.949 1.324 4.102.645 6.465-.687 2.363-2.016 4.074-3.988 5.129-1.937 1.027-4.031 1.215-6.289.563-2.402-.691-4.129-2.059-5.18-4.098-.98-1.914-1.16-3.941-.543-6.078.68-2.359 1.98-4.078 3.895-5.168 1.938-1.105 4.086-1.32 6.438-.641 2.273.656 3.945 1.93 5.023 3.828m-1.257 13.601c.617.262 1.086.375 1.41.348.5-.035.883-.359 1.168-.969l4.758-10.273c.285-.617.281-1.121-.004-1.516-.176-.238-.574-.527-1.187-.863l.25-.539 12.035 5.574-1.984 4.281-.512-.238c.344-1.441.336-2.57-.047-3.391-.375-.816-1.402-1.613-3.074-2.387-.625-.285-1.051-.398-1.289-.336-.23.063-.437.289-.617.676l-2.277 4.914c1.137.551 2.027.668 2.664.352s1.32-.98 2.039-1.988l.535.246-3.316 7.176-.543-.25c.387-1.211.48-2.187.285-2.914s-.863-1.355-2.004-1.883l-2.289 4.941c-.301.66-.305 1.168-.004 1.516.305.355.852.707 1.645 1.059l-.25.543-7.641-3.539zm26.796 5.871c.879.031 1.762-.598 2.645-1.879.609-.879.949-1.691 1.027-2.434s-.301-1.398-1.137-1.977c-.379-.262-.687-.406-.914-.434s-.437.098-.617.363l-3.57 5.168c1.16.777 2.016 1.172 2.566 1.191m-11.441 1.57c.668.395 1.18.555 1.555.48.367-.074.785-.453 1.258-1.137l5.883-8.516c.496-.727.699-1.258.617-1.602-.09-.34-.422-.762-1.008-1.262l.344-.488 6.195 4.273c1.641 1.133 2.707 2.262 3.195 3.391.488 1.121.285 2.332-.609 3.629a4.21 4.21 0 0 1-1.734 1.438c-.719.32-1.582.387-2.586.191a7.163 7.163 0 0 1-2.047-.777c-.617-.348-1.5-.922-2.648-1.715l-2.48 3.598c-.488.703-.687 1.25-.602 1.637s.449.813 1.082 1.289l-.336.488-6.414-4.43zm10.523 7.901.402-.441c.508.441.922.691 1.238.766.48.113.953-.078 1.406-.57l7.656-8.355c.461-.504.605-.992.43-1.469-.09-.277-.375-.664-.848-1.148l.398-.441 9.941 9.113-3.191 3.48-.418-.391c.797-1.309 1.121-2.414.977-3.305-.152-.891-.918-1.973-2.305-3.242-.527-.484-.914-.738-1.16-.758s-.516.129-.812.453l-3.656 3.996c.969.91 1.797 1.34 2.484 1.293s1.566-.477 2.648-1.285l.441.402-5.344 5.828-.437-.398c.777-1.102 1.156-2.016 1.148-2.77s-.508-1.574-1.492-2.477l-3.828 4.18c-.336.367-.473.699-.402 1.004s.395.723.977 1.262c1.098 1.008 2.195 1.617 3.285 1.828s2.434-.023 4.051-.699l.48.438-3.984 2.949zm23.086-.059 8.91 10.91-3.641 3.004-.43-.52c1.172-1.242 1.652-2.453 1.457-3.641-.117-.66-.527-1.453-1.242-2.375l-9.555 7.797c-.664.543-1.012 1.023-1.039 1.434s.258.984.859 1.723l-.461.375-5.273-6.461.461-.375c.574.707 1.07 1.086 1.484 1.141s.945-.191 1.609-.73l9.547-7.793c-.746-.867-1.434-1.434-2.078-1.699-1.18-.48-2.465-.246-3.852.699l-.426-.523zm8.961 24.407c.684.363 1.664.168 2.934-.582.785-.461 1.336-.934 1.66-1.422.543-.824.527-1.734-.055-2.723-.32-.539-.598-.852-.828-.937s-.508-.039-.812.137l-5.129 3.027c.801 1.313 1.543 2.145 2.23 2.5M208.14 68.2c.434.66.84 1.055 1.207 1.168.375.121.93-.047 1.68-.484l8.91-5.266c.777-.457 1.195-.902 1.258-1.336.039-.289-.117-.797-.465-1.52l.516-.301 3.824 6.48c.797 1.348 1.301 2.516 1.508 3.52.383 1.945-.168 3.363-1.652 4.238-1.09.645-2.207.73-3.336.262-.852-.371-1.555-.875-2.113-1.516l-3.207 7.668c-.09.203-.125.383-.102.535a1.91 1.91 0 0 0 .18.52l-.48.281-2.48-4.203 3.52-8.422-.008-.008-3.945 2.332c-.707.418-1.113.82-1.219 1.199s.035.934.426 1.66l-.512.301-4.02-6.809zm15.219 24.077c1.176-.078 2.613-.445 4.305-1.094 2.324-.902 3.941-1.922 4.855-3.07s1.137-2.316.68-3.508c-.641-1.648-2.062-2.402-4.262-2.254-1.172.082-2.59.445-4.262 1.09-1.695.656-3.004 1.352-3.922 2.082-1.707 1.352-2.246 2.852-1.609 4.504.633 1.637 2.039 2.387 4.215 2.25m10.563-1.637c-.879 2.063-2.465 3.535-4.762 4.422s-4.457.859-6.496-.078c-1.984-.914-3.402-2.473-4.25-4.668-.902-2.332-.852-4.531.133-6.605.934-1.934 2.438-3.305 4.52-4.105 2.285-.883 4.438-.891 6.469-.023 2.051.879 3.52 2.457 4.402 4.746.848 2.203.848 4.309-.016 6.313m-11.535 7.26c.152.621.332 1.051.531 1.289.332.402.836.535 1.508.395l11.086-2.355c.668-.137 1.07-.449 1.207-.93.082-.285.074-.758-.023-1.434l.578-.121 1.699 8-.582.125c-.227-.922-.492-1.52-.785-1.777s-.895-.297-1.801-.105l-10.82 2.297c-.504.109-.812.309-.918.609s-.082.832.082 1.602c.285 1.379.836 2.469 1.645 3.273s2.16 1.363 4.063 1.672l.141.668-5.379.172-2.816-13.254zm2.433 14.219.594-.039c.063.668.184 1.137.363 1.41.273.418.742.605 1.41.563l11.309-.723c.684-.047 1.125-.297 1.328-.762.125-.27.191-.742.188-1.422l.59-.039.859 13.457-4.711.305-.031-.57c1.484-.395 2.48-.965 2.988-1.711s.703-2.059.586-3.934c-.047-.715-.145-1.168-.309-1.352s-.461-.262-.902-.234l-5.406.348c.07 1.332.371 2.219.898 2.656s1.461.742 2.801.906l.035.594-7.887.504-.043-.594c1.324-.25 2.238-.652 2.75-1.199.504-.547.723-1.484.637-2.816l-5.656.363c-.492.031-.82.18-.984.445s-.219.793-.172 1.582c.102 1.492.469 2.691 1.105 3.594.637.91 1.777 1.676 3.41 2.305l.039.648-4.918-.633zm16.078 23.676-.59-.051c.047-.906-.039-1.523-.266-1.848-.219-.324-.777-.527-1.668-.605l-7.812-.668c-1.187-.102-2.113-.039-2.785.184-1.242.41-1.926 1.332-2.055 2.777-.152 1.785.406 3.055 1.684 3.797.699.414 1.707.676 3.02.789l7.133.613c.836.07 1.422-.035 1.766-.316s.582-.863.73-1.754l.586.051-.434 5.125-.594-.055c-.078-.754-.215-1.262-.398-1.52-.195-.258-.66-.418-1.414-.484l-7.453-.637c-1.984-.168-3.473-.781-4.469-1.828s-1.406-2.594-1.23-4.645c.23-2.684 1.191-4.445 2.875-5.297.898-.445 2.02-.613 3.363-.5l7.805.672c.875.07 1.438.004 1.684-.207s.449-.723.609-1.523l.594.051zm-15.57 6.648c-.23.859-.23 1.461-.004 1.797s.633.594 1.23.758l10.715 2.965c.613.172 1.055.137 1.332-.105s.543-.727.809-1.453l.574.156-1.574 5.68-11.668 1.547-.055.188 9.215 7.301-1.574 5.688-.574-.156c.156-.781.16-1.344.012-1.684-.141-.34-.652-.629-1.516-.871l-9.98-2.762c-.828-.234-1.414-.242-1.742-.035-.336.207-.629.691-.867 1.445l-.57-.16 2.074-7.484.574.152c-.164.68-.195 1.211-.082 1.605s.504.684 1.184.875l11.023 3.055.047-.168-11.727-9.199.168-.605 14.539-1.98.027-.102-10.195-2.824c-.75-.211-1.344-.223-1.766-.039s-.785.746-1.09 1.691l-.57-.16 1.461-5.273zm-39.738 73.586a1.68 1.68 0 0 0-1.754-1.598 1.68 1.68 0 0 0-1.598 1.758 1.67 1.67 0 0 0 1.754 1.594 1.68 1.68 0 0 0 1.598-1.754m-36-65.199a32.04 32.04 0 0 0 3.48-.93c-1.066.344-2.23.656-3.48.918zm-47.078-55.336.402-.027v-.008l-.402.035m-.168 27.059a5.42 5.42 0 0 0 .094 1.359c.301 4.996 4.445 8.953 9.516 8.953a9.54 9.54 0 0 0 9.539-9.535 10.51 10.51 0 0 0-.012-.496c2.027-19.773 14.164-30.902 29.84-33.016a42.272 42.272 0 0 1 5.629-.383c11.148 0 23.543 5.465 30.242 13.965-3.797-8.328-15.309-22.582-37.602-22.801v-26.34h-18.465v29.93l-1.5.645c-13.934 6.211-26.969 19.148-27.281 37.719"/><path d="M159.867 93.297c-4.551-.23-8.832.496-12.172 2.125 6.336.059 12.406 2.086 17.203 5.84a25.44 25.44 0 0 1 6.598 7.719c7.102 12.816 1.957 29.355-11.453 37.66a29.24 29.24 0 0 1-1.398.828 32.21 32.21 0 0 1-5.578 2.434 31.74 31.74 0 0 1-3.477.93v-.012a31.59 31.59 0 0 1-6.437.66c-2.117 2.527-4.223 4.535-5.937 5.867a47.8 47.8 0 0 1-6.09 4.027v22.926c-.074 2.207-1.082 2.867-3.387 2.867h-2.801c-2.277 0-3.289-.645-3.383-2.793v-21.789a47.29 47.29 0 0 0 4.551-2.125c12.617-6.707 23.656-19.59 23.949-36.672a5.18 5.18 0 0 0-.164-1.621c-.617-4.668-4.609-8.273-9.449-8.273a9.54 9.54 0 0 0-9.535 9.539c0 .055.004.113.004.176-2.117 20.582-14.477 30.355-31.098 31.492a49.89 49.89 0 0 1-3.355.109c-11.152 0-20.18-3.641-25.836-9.102 3.957 5.965 15.48 17.57 32.293 19.309v17.801c0 10.453 10.684 10.297 10.684 10.297h25.309s10.684.156 10.684-10.297v-17.371c11.844-1.445 37.375-12.098 39.855-39.66 1.965-21.836-15.137-32.176-29.578-32.891m-60.068 56.605a32.6 32.6 0 0 1-5.746-2.488c-14.449-8-20.203-25.23-12.852-38.488 4.168-7.531 11.672-12.156 20.02-13.285.426-.059.859-.102 1.285-.145l.406-.031v.004a31.54 31.54 0 0 1 5.582.156c2.77-3.332 6.891-7.437 13.059-11.004V54.262h-18.641v26.305c-20.609.172-40.953 15.207-40.789 39.586.156 22.59 19.418 33.047 37.684 30.98a40.595 40.595 0 0 0 2.895-.437 32.28 32.28 0 0 1-2.902-.793"/></g></svg>