<svg xmlns="http://www.w3.org/2000/svg" viewBox="0 0 1703.76 323.32"><path d="M635.23 266.08a141.6 141.6 0 0 1-45.16 7.16q-33.09 0-59.25-14.09a100.9 100.9 0 0 1-40.92-40.47q-14.76-26.39-14.75-62.6 0-33.56 13.41-59.49a98.7 98.7 0 0 1 38-40.47Q551.15 41.6 582.9 41.6A96.65 96.65 0 0 1 628.97 53q21.45 11.4 37.56 32.86h2.68V22.81a175.5 175.5 0 0 0-44-17 205.2 205.2 0 0 0-48.52-5.82q-45.18 0-84.07 19.68a155.73 155.73 0 0 0-62.42 56.79q-23.48 37.11-23.48 86.3 0 48.75 22.36 85.19a148.3 148.3 0 0 0 61 55.9q38.67 19.45 86.08 19.45 31.74 0 58.8-10.95t50.76-33.77l-8.49-33.54a172.7 172.7 0 0 1-42 21.04M1052.02 8.46a58.6 58.6 0 0 1 6.27 19 76.7 76.7 0 0 1-.24 21q-1.57 11.4-5.58 28l-40.25 156.51h-2.71L949.61 6.26h-75.58l9.84 27.28-52.76 200.79h-2.69L788.18 79.6a196 196 0 0 1-5.81-28.14 82 82 0 0 1 .22-21.91 70.7 70.7 0 0 1 6.92-21.09v-2.2h-94.35v2.2a157 157 0 0 1 11 19.23 163 163 0 0 1 8.71 23.25q4 13.42 8.5 29.07l66.64 237h59.47l61.67-227.55h2.68l59.49 227.62h58.58l66.18-239.7q4-14.29 8-27.05a174 174 0 0 1 8.72-22.58 155 155 0 0 1 11-19.23V6.26h-73.79zm274.04 156.11q26.84-10.73 41.59-30t14.76-44.72q0-25.49-14.31-44.27t-40.47-29.07-61-10.29h-117.21v2.24a54.9 54.9 0 0 1 8.72 16.77 91.8 91.8 0 0 1 3.81 20.12q.87 11 .88 27.06v176.23q0 17-1.11 28.62a97 97 0 0 1-4 20.57 68.7 68.7 0 0 1-8.27 17v2.24h89.45v-2.24a68.4 68.4 0 0 1-8.28-17 96.2 96.2 0 0 1-4-20.57q-1.12-11.61-1.12-28.62v-71.11h23.26l105.03 139.53h77.81v-.89l-116.53-147.81c3.76-1.14 7.44-2.37 10.99-3.79m-100.62-26.38V45.62h33.07q27.26 0 42.92 11.4t15.66 33.32q0 14.75-7.16 25.48t-20.57 16.55q-13.43 5.82-31.75 5.82zM1629.51 6.26v2.2a61.7 61.7 0 0 1 7.83 16.32 112.5 112.5 0 0 1 4.25 21.24 260 260 0 0 1 1.34 28.18v112.73q0 26.83-8.5 46.28t-25.27 30q-16.77 10.51-40.92 10.5-25.48 0-42.48-11.17a65.7 65.7 0 0 1-25-30.86q-8-19.68-8-44.72V73.79a246 246 0 0 1 1.34-28 111.6 111.6 0 0 1 4.25-20.57 69 69 0 0 1 7.83-16.77V6.26h-89.97v2.2a69.5 69.5 0 0 1 7.82 16.77 111.6 111.6 0 0 1 4.26 20.57 246 246 0 0 1 1.34 28v112.23q0 44.28 15.65 74.91t44.94 46.52q29.28 15.86 70.88 15.87 41.13 0 70.21-16.1t44-46.95q15-30.85 15-74.68V74.24a257 257 0 0 1 1.34-28.18 111.7 111.7 0 0 1 4.25-21.24 61.7 61.7 0 0 1 7.82-16.32V6.26zM0 6.15h310.85V317H0z" fill="#003071"/><path d="M209.95 205.89v-.73l80.56-22.9-.17-.86-94.9 11.2-.28-.68 82.35-64.28-.48-.73-90.42 51.19-.52-.52 55.07-96.42-.73-.49-67.79 87.48-.67-.28L186.62 54.1l-.86-.17-30 110.59h-.74l-30-110.59-.86.17 14.65 113.77-.68.28-67.72-87.48-.73.49 55.07 96.42-.52.52-90.4-51.19-.49.73 82.34 64.28-.27.68-94.9-11.2-.17.86 80.59 22.81v.73c-33.08 8.23-60.08 22.42-71.76 27.5l.24.93a507.26 507.26 0 0 1 251.86 0l.23-.93c-11.66-5.06-38.54-19.18-71.55-27.41" fill="#fff"/></svg>