<svg xmlns="http://www.w3.org/2000/svg" width="200" height="200"><circle cx="100" cy="100" r="99.811" fill="#fff"/><path d="m63.255 34.692-.997-1.642-4.282 2.757-1.554-2.669 3.871-2.405-.968-1.642-3.9 2.434-1.261-2.17 4.194-2.639-.968-1.613-5.748 3.578 5.748 9.707zm9.853-12.375c.352.352.704.645 1.144.792.44.176 1.085.264 1.877.235.909 0 1.496 0 1.73.088l.645.264.323.587c.147.44.117.821-.117 1.232-.205.352-.587.645-1.114.821-1.085.323-1.906-.147-2.522-1.496l-1.642.733c.997 2.405 2.551 3.284 4.692 2.61 1.173-.381 1.994-.997 2.346-1.818s.411-1.73.117-2.639c-.205-.645-.499-1.202-.821-1.554-.352-.381-.792-.704-1.261-.85-.469-.176-1.173-.264-2.17-.235-.909.029-1.466 0-1.789-.147-.293-.147-.469-.323-.587-.645a1.1 1.1 0 0 1 .147-.85c.205-.293.557-.499 1.026-.645.469-.176.88-.176 1.202-.029s.616.499.85 1.085l1.73-.674c-.352-1.056-.88-1.76-1.642-2.141-.762-.411-1.613-.44-2.61-.088-.674.205-1.232.528-1.613.88-.352.381-.616.909-.762 1.437a3.5 3.5 0 0 0 .088 1.73c.147.469.411.938.733 1.32m-7.683 10.821.674-.323.968-.469-.968-2.053-.938-2.082-.088-.176.088-.029.293-.117c.293-.147.499-.205.674-.293l.176-.029.674.176c.264.147.792.499 1.584 1.085l2.258 1.672 1.935-.968-1.877-1.525c-.792-.616-1.349-1.026-1.73-1.202a4.5 4.5 0 0 0-1.29-.44c.645-.469.997-1.026 1.144-1.73.147-.674.059-1.408-.293-2.229-.323-.616-.674-1.114-1.144-1.437-.44-.323-.909-.528-1.349-.528h-.029c-.235.029-.587.117-.968.205-.293.088-.645.293-1.026.469l-3.46 1.701 4.428 9.677zm-2.287-9.355 1.29-.587c.293-.176.587-.293.762-.381l.616-.205.352.029.352.147q.308.176.528.704c.176.323.235.645.205.909a1.05 1.05 0 0 1-.323.674c-.117.117-.352.293-.792.499l-.587.293-.381.176-.821.411zm119.208 76.862c-.85-.44-1.935-.674-3.226-.704h-.029c-1.789-.059-3.226.323-4.282 1.202-.938.792-1.408 1.818-1.466 3.196-.059 1.261.381 2.346 1.261 3.138 1.026.909 2.463 1.408 4.282 1.466h.117c1.76.059 3.167-.323 4.194-1.114.997-.821 1.525-1.906 1.554-3.226 0-.85-.176-1.642-.557-2.317s-1.026-1.232-1.848-1.642m-.469 5.689c-.616.469-1.554.674-2.845.616-1.32-.059-2.258-.293-2.903-.792-.616-.528-.88-1.173-.88-1.818 0-.762.381-1.378 1.026-1.818.616-.469 1.554-.674 2.815-.674h.059c1.29.029 2.229.293 2.845.821.616.499.88 1.144.88 1.847-.059.762-.381 1.378-.997 1.818M33.226 63.842c.645.117 1.261.059 1.848-.235s1.085-.85 1.584-1.672c.469-.792.704-1.554.616-2.258a2.83 2.83 0 0 0-.821-1.789c-.469-.499-1.32-1.114-2.61-1.906l-4.956-3.167-.938 1.613 5.191 3.314c.938.587 1.554 1.026 1.76 1.32.264.264.352.528.381.909.029.323-.088.674-.293 1.026-.264.44-.587.704-.968.85-.381.117-.821.088-1.261-.117-.293-.117-.792-.44-1.584-.909l-5.103-3.255-.938 1.613 5.015 3.196c1.378.792 2.405 1.29 3.079 1.466M53.14 41.788 48.651 30.88l-1.525 1.232 3.519 7.947-6.979-5.015-1.496 1.29 9.472 6.716zM40.997 54.721l-5.543-4.751 7.859 1.848 1.202-1.466-8.504-7.273-1.085 1.349 5.689 4.839-8.065-1.935-1.114 1.437 8.504 7.273zm6.862-8.065-7.713-8.152-1.349 1.32 7.742 8.123zm53.138-18.622h-.029l-.968.029c-.323 0-.645-.029-.968-.029h-.029l-6.1.264v4.985c-31.73 2.903-57.038 27.947-60.381 59.531h12.581c3.196-24.721 22.991-44.194 47.801-46.979v.792c-.147 4.311-2.845 7.947-6.628 9.501-16.745 4.868-29.531 19.12-32.287 36.686h12.199c3.372-15.572 17.185-27.243 33.783-27.243 12.493 0 23.431 6.686 29.501 16.628l.205.323c.352.587.704 1.173.997 1.76.352.645.674 1.349.968 2.023l.205.469c.821 1.935 1.496 3.93 1.935 6.041h12.229c-2.757-17.566-15.543-31.818-32.287-36.686-3.783-1.554-6.481-5.191-6.628-9.501v-.791c24.809 2.786 44.604 22.258 47.801 46.979h12.581c-3.343-31.584-28.68-56.628-60.381-59.531V28.3a70 70 0 0 0-6.1-.264m54.076 21.73 1.29-1.349-3.666-3.607 2.111-2.258 3.284 3.255 1.261-1.378-3.284-3.255 1.701-1.818 3.548 3.519 1.32-1.408-4.897-4.809-7.595 8.24zm3.021 2.287c-.264 1.173-.059 2.258.674 3.196.587.792 1.29 1.261 2.141 1.408.821.176 1.818-.029 2.991-.557l-.528-1.877c-.762.381-1.349.528-1.906.469-.499-.088-.909-.293-1.173-.674-.411-.528-.499-1.144-.293-1.877.205-.674.88-1.466 1.994-2.346 1.056-.821 1.965-1.261 2.669-1.29a1.9 1.9 0 0 1 1.701.821c.293.381.381.792.352 1.29-.029.469-.264.968-.645 1.437l1.496 1.114c.645-.762 1.026-1.525 1.085-2.229q.22-1.495-.704-2.727c-.792-1.056-1.73-1.554-2.903-1.613-1.408 0-2.815.557-4.311 1.73-1.437 1.144-2.317 2.405-2.639 3.724m-72.23-26.158L83.49 14.78l-1.789.381 2.375 11.114zM28.123 82.61l-6.891-2.141 7.947-1.466.528-1.818L19.12 73.93l-.469 1.701 7.067 2.199-8.123 1.466-.528 1.76 10.587 3.284zm135.425-20.411 4.223-2.405 1.73 3.196-4.223 2.434.909 1.613 9.619-5.572-.909-1.613-3.783 2.199-1.73-3.255 3.783-2.199-.88-1.613-9.619 5.572zm-32.845-36.041 3.46 1.642.762-1.76-3.431-1.642 1.114-2.434 3.988 1.906.762-1.76-5.63-2.669-4.633 10.323 1.672.792zm15.631 15.367 5.748-7.361 2.111 1.73 1.173-1.496-5.63-4.633-1.202 1.496 2.111 1.701-5.718 7.39zM89.677 15.777l1.026 9.413 1.789-.205-1.026-9.413 2.669-.293-.205-1.906-7.126.821.205 1.906zm10.088 8.68 1.847.059.147-4.78 3.49-6.51-2.082-.059-2.229 4.428-2.023-4.575-2.111-.059 3.138 6.657zm20.616 3.226c.528.176 1.085.264 1.584.205.645-.059 1.232-.264 1.76-.674 1.114-.762 1.935-2.082 2.463-3.871.557-1.848.557-3.343.059-4.575s-1.378-2.023-2.61-2.405c-.557-.176-1.114-.264-1.613-.176l-.762.147c-.704.205-1.408.704-2.023 1.437-.616.704-1.114 1.701-1.496 3.05-.528 1.76-.528 3.314 0 4.604a4.08 4.08 0 0 0 2.639 2.258m-.792-6.364c.352-1.29.88-2.141 1.496-2.639.323-.205.616-.381.938-.44.352-.059.733-.059 1.085.059a2.18 2.18 0 0 1 1.466 1.437c.264.762.205 1.76-.147 3.021-.381 1.29-.88 2.199-1.496 2.669a2.36 2.36 0 0 1-.938.469 2.4 2.4 0 0 1-1.026-.029c-.674-.205-1.173-.674-1.466-1.496-.323-.792-.264-1.789.088-3.05m48.475 50.323 6.745-2.698-5.396 6.188.674 1.76 9.179-3.666 1.114-.469-.645-1.613-.469.176-6.422 2.581 5.543-6.334-.674-1.701L167.449 70zm11.144 6.481c-.88-.176-1.935-.088-3.196.205-1.73.469-3.021 1.202-3.871 2.317a4.1 4.1 0 0 0-.587 3.431c.323 1.29.997 2.229 2.053 2.786 1.232.616 2.698.704 4.487.264.352-.117.704-.205 1.026-.323q1.891-.703 2.815-1.935c.762-1.085.997-2.229.704-3.548a4.43 4.43 0 0 0-1.144-2.141c-.557-.528-1.29-.909-2.229-1.085h-.059zm1.613 3.724c.176.704.029 1.408-.469 2.023a2.9 2.9 0 0 1-1.144.85 6.4 6.4 0 0 1-1.437.499c-1.261.323-2.258.293-2.991-.029-.704-.293-1.173-.821-1.32-1.554-.176-.704-.029-1.378.469-1.994.499-.645 1.408-1.114 2.639-1.408 1.085-.235 1.965-.264 2.669-.088l.293.117c.674.293 1.114.821 1.29 1.584m-7.654 9.267.469 6.54 1.877-.176-.323-4.692 3.959-.293 5.103-.411-.147-1.877-4.956.411zm-10.587 67.331-1.114.323c-.205.059-1.085.85-1.73 1.437-.645.557-1.261-.293-1.437-.499l-.029-.85c0-.147-.059-.645-.029-1.202.029-.499-.674-.44-.674-.44l-.293.029-.44.264-.469.469-.323.587-.352.645.147.117c.411.235.499-.059.821-.117.381-.059.293.059.44.205l.147.938.117.645c.176.235.323.235.792.264.469 0 .381.293.381.293l.029.205-1.232 1.584-.733 1.114-.469.821-.44.733-.176.235c.088.147.235.029.616.059.352 0 .909-.587 1.114-.938s.674-.938.909-1.261c.205-.352.821-.997.997-1.261l.323-.264.352.264.44.997.293.85v.44l-.235.997-.117.499c-.117.293-.293.264-.352.323l-.264-.059-.44-.147-.205-.117v.147c.147.352.499.587.499.587l.674.088c.205 0 .587-.176.968-.792.44-.557.352-.968.352-1.437.029-.411-.088-1.32-.088-1.32-.088-1.085-.792-2.258-.792-2.258l.029-.176c.059-.029.147-.147.616-.587.499-.469.587-.293.674-.381l.616-.499c.176-.147.44-.704.44-1.114.117-.469-.205-.44-.352-.44m-9.883-4.868-.293-.352-.323-.352-.323-.088h-.909c-.059.088-.557.205-.557.499 0 0 0 .44.088.733.117.293.323.645.381.704l.645.645.469.059.469.059.205-.029.323-.293.44-.117.645.059.147-.235-.029-1.114.411-.616.293-.205.147-.381c0-.117.323-1.056.235-1.408l.088-1.026.059-.323-.381-.528-.264-.117-.587-.293h-.352l-.587.147-.44.411-.117.587.44 1.056c-.029.147.235 1.29.088 1.935l.059.44c-.117-.059-.117.264-.469.147m-66.158-26.54v-12.17h-1.906c-.235.762-.762 1.408-1.437 1.935-.704.528-1.408.938-1.994 1.114v2.111c1.144-.352 2.111-.968 2.991-1.76v8.768zm65.806 34.985-.205-.469-.205-.352-.117.088-.411.85c-.029.235-.117 1.437.587 2.405.674 1.026.968.733 1.173.557s.85-.469.733-.997c0 0-.411-.645-.674-.938s-.792-1.085-.88-1.144m-57.947-36.716h-.059c-.352 0-.674-.117-.909-.323s-.381-.587-.44-.997l-2.258.235c.176.968.528 1.73 1.114 2.258.616.499 1.349.762 2.287.762l.235-.029c1.202-.029 2.199-.528 2.991-1.437.792-.997 1.232-2.581 1.232-4.809 0-2.141-.411-3.724-1.173-4.663-.792-.968-1.789-1.437-3.021-1.437-1.144 0-2.053.381-2.786 1.114-.704.762-1.085 1.76-1.085 2.991 0 1.173.323 2.17 1.026 2.874.674.762 1.496 1.114 2.434 1.114l.381-.029c.674-.059 1.29-.411 1.789-.968-.059 1.349-.293 2.287-.645 2.727a1.3 1.3 0 0 1-1.114.616m1.173-4.575c-.323.381-.674.499-1.173.499-.469 0-.821-.176-1.144-.528-.293-.352-.469-.938-.469-1.73 0-.762.147-1.32.44-1.642.293-.352.645-.499 1.085-.499h.117c.411.029.762.235 1.085.616.352.411.499.997.499 1.76-.029.616-.176 1.144-.44 1.525m60.997 34.018c.117-.088.587-.616 1.114-.792s.645.117.645.117l.147.381.088.381-.029.293v.323l-.176.762-.029.499.293-.499.381-.469.557-.645a.75.75 0 0 0 .205-.469c0-.293-.029-.762-.029-.821l-.44-.645-.557-.323c-1.642-.264-3.167 1.73-3.988 2.845-.88 1.085-1.965 4.047-2.023 4.223l-.176.792-.117.323c.293.147.499-.059.85-.616.352-.499.147-.616 1.29-2.698 1.056-2.111 1.877-2.845 1.994-2.962m-49.443-.792v-8.944c18.006-2.434 32.698-15.367 37.654-32.434h-12.727c-4.985 12.933-17.507 22.141-32.199 22.141s-27.214-9.208-32.199-22.141H55.249c4.956 17.067 19.648 30 37.654 32.434v8.944c-22.933-2.581-41.525-19.384-46.774-41.378H33.372c5.924 30.821 33.079 54.135 65.63 54.135h1.994c32.551 0 59.707-23.314 65.63-54.135h-12.757c-5.22 21.965-23.842 38.798-46.745 41.378m67.067-27.801-4.457-1.466-.528 1.789 4.399 1.466 5.103 5.279.147-.469.528-1.613-.499-.469-3.021-2.962 3.05-.44 1.73-.293.674-2.082-2.375.411zm-68.592-11.29-1.613 2.463-3.548 5.22v2.053h4.956v2.434h2.199v-2.434h1.466v-2.053h-1.466v-7.683zm-.235 7.683h-2.757l1.349-2.082 1.408-2.053zm75.982-9.267a6.3 6.3 0 0 0-2.375-1.056l-.616-.147c-1.144-.235-2.229-.235-3.138.029-.938.235-1.672.674-2.229 1.29s-.909 1.349-1.085 2.258c-.117.762-.088 1.496.088 2.346.205.792.499 1.437.88 1.906l4.34.85.704-3.988-1.818-.381-.381 2.111-1.408-.264a4.3 4.3 0 0 1-.469-1.144c-.117-.44-.147-.821-.059-1.173a2.22 2.22 0 0 1 1.232-1.672c.762-.381 1.789-.44 3.138-.205l.821.176c.792.264 1.378.616 1.76 1.085.499.587.674 1.29.557 2.053-.117.528-.323.938-.704 1.261-.352.293-.821.469-1.437.499l.088 1.906c1.085 0 1.935-.235 2.581-.821.704-.528 1.085-1.349 1.32-2.493.147-.88.088-1.73-.205-2.434-.293-.762-.821-1.437-1.584-1.994M26.246 95.689l.235-1.965-2.405-1.056.411-3.695 2.551-.528.264-2.053-6.833 1.437-4.575.968-.235 1.965 4.751 2.229zm-5.777-5.953 2.082-.381-.264 2.493-1.818-.792-2.111-.938zm81.114 12.522v-9.589l13.226-.029 4.721-9.062-10-1.701-7.947 10v-2.933l4.516-9.267-6.07-8.182-6.07 8.182 4.487 9.267v2.933l-7.947-10-9.971 1.701 4.692 9.062 13.226.029v9.589l-5.865-4.604H32.346v.44c0 2.023.059 6.862.235 8.798H92.61l6.686 5.601h2.023l6.188-5.601h60.235c.176-1.935.411-6.774.411-8.798v-.44h-60.616zm12.991 23.05h-.088c-.352 0-.674-.117-.909-.323-.264-.205-.411-.587-.44-.997l-2.258.235c.176.968.557 1.73 1.144 2.258.587.499 1.32.762 2.258.762l.264-.029c1.202-.029 2.199-.528 2.962-1.437.821-.997 1.232-2.581 1.232-4.809 0-2.141-.411-3.724-1.173-4.663-.792-.968-1.789-1.437-3.021-1.437-1.144 0-2.053.381-2.815 1.114-.733.762-1.085 1.76-1.085 2.991 0 1.173.323 2.17 1.026 2.874.704.762 1.525 1.114 2.463 1.114l.411-.029c.704-.059 1.29-.411 1.789-.968-.088 1.349-.293 2.287-.645 2.727-.293.411-.645.616-1.114.616m1.144-4.575c-.323.381-.704.499-1.144.499-.469 0-.821-.176-1.144-.528-.293-.352-.469-.938-.469-1.73 0-.762.147-1.32.44-1.642.293-.352.645-.499 1.085-.499h.117c.381.029.733.235 1.085.616q.528.616.528 1.76c-.029.616-.205 1.144-.499 1.525m-86.188 3.402a3 3 0 0 0-1.29-.88c-.469-.205-1.114-.264-1.818-.235-.323.029-.645.088-.968.147-.469.059-.968.205-1.525.411-.968.352-1.789.733-2.375 1.202-.616.44-1.085.88-1.378 1.378s-.469.997-.528 1.525c-.029.469.088 1.114.381 1.935l1.085 3.226 4.252-1.525 6.188-2.258-1.173-3.314c-.235-.674-.499-1.261-.85-1.613m-4.135 5.191-3.109 1.144-.264-.821c-.264-.704-.352-1.202-.381-1.496a1.53 1.53 0 0 1 .235-.997c.176-.323.469-.645.88-.88.381-.293.997-.587 1.76-.85.352-.088.645-.205.938-.293.352-.088.645-.176.938-.205.469-.029.85-.029 1.114.088a1.36 1.36 0 0 1 .674.44c.205.205.381.616.616 1.202l.469 1.349zm3.109-9.296-.352-1.935-2.581-.293-.645-3.666 2.317-1.29-.352-2.023-5.337 3.021-4.868 2.698.352 1.994 4.487.587zm-6.979-4.106 1.672-.88.44 2.522-2.111-.235-2.17-.264zm31.789 38.387-.235-.528h-.587l-.557-.147-.264.235-.117.176-.792.616-1.085.821c-.352.352-1.085.792-1.085.792-.293.264-.909.499-1.173.44-.293-.059-1.466-.499-1.789-.733s-.821-.411-.997-.499l-.792-.117-.616-.147c-.293 0-.293.059-.293.059v.176l.088.323c-.235.938.235 1.408.557 1.584.352.205.645.205 1.085.44.469.176.147.411-.088.616l-.762.469-.792.323-1.437.323-.499.147-.499.088-.968.323-.381.147-.264.029-1.906-.059c-.117 0-.147 0-.528-.293s-.645-.176-.645-.176c.323.909.88 1.056.88 1.056l.587.117c1.232.411 2.903.557 3.871.381.968-.205 2.405-.674 2.405-.674h.264v.294l-.117.235v.469l-.352 1.789-.293 1.026c-.469 1.232-.411 2.229-.411 2.874-.029.645 1.349 2.229 1.789 2.405.381.235.499-.029.499-.029l.147-.381v-.528l-.147-.733-.088-.381-.176-.528-.352-1.437.029-1.76.235-1.496.176-.352.147-.44v-.411l-.147-.293-.293-.293-.293-.205c.029-.264 2.493-1.026 2.991-1.232s.821.029.821.029.205.323 1.349.968c1.173.616 1.877.059 1.877.059l.147-.293-.147-.499-.411-.528-.381-.469-.352-.176-.117-.117-.352-.323c-.293-.205.352-.44.352-.44.968-.176 2.845-1.76 3.109-2.141.293-.44.147-.792.176-.968m-26.95-56.452-11.056-.352-.029 1.906 11.026.323zm-.205 4.282-1.877.117.264 4.633-9.062.528.088 1.906 10.938-.674zm125.748 55.601-.117-.44s-.205-.411-.499-.411a.56.56 0 0 1-.499-.528l-.147-.352-.352-.323-.205-.44-.44-.293h-.44l-.176.029s-.117 0-.117.381c-.029.352.205 1.584.323 1.73 0 0 .528.997 1.114 1.437l.645.205s.323.088.645-.235c.381-.264.352-.528.264-.762m-5.396 16.481-.88.029-.938.088-1.261.117-.968.147-.616-.029h-.616l-.704-.059-.968-.176-1.877-.616c-.176-.029-.704.059-.968.176l-.088-.176c.059-.293-.235-.645-.235-.821-.029-.235-.117-.381-.176-1.056-.059-.733.792-1.29 1.026-1.437l.762-.587.205-.968-.088-.528-.293-.029-.469.205-.411.176-.733.499-.557.499-.205-.381-.205-.469-.235-1.026s0-.352-.117-.674c-.059-.323-.674-1.349-.909-1.672-.176-.323-.499-.44-.499-.44l-.528-.147-.176-.029-.352.088-.323.205-.029.176-.059.293.176.323.352.293c.499.499 1.29 2.375 1.29 2.375l.323.938.029.528.293.645.147.469c-.088.323-.323.645-.323.674l-.381.499-.264.264-.352.352c-.616.323-.645.528-.674.587l-.029.469.176.411c.029.088.411.117.821.235.381.059.704-.264.792-.293l.117-.117.147-.205.235-.499.147-.176.44.411.059.704c-.029.117-.029.029.059 1.085.117 1.026-.147 2.317-.205 2.845-.059.469-.264 1.114-.293 1.261l-.323.792-.293.264-.147.323.323-.029h.176c.059-.088.323 0 .616-.205s.616-.704.616-.704l.117-.147.147-.352.411-1.026.029-.176.088-.293.205-.469v-.176l-.029-.323.059-.323v-.499l.029-.176v-.205l-.147-.616-.176-.997s.059-.264.704.088l3.959 2.082c.733.411 1.848.44 2.463.469.645 0 1.437-.645 1.554-.674l.264-.411.029-.528.176-.44.674-.499zm-73.284-6.862c-.44-.059-.264-.293-.264-.293l.176-.323.117-.499-.059-.44-.147-.293-.352-.176c-.352-.176-.704.059-.704.059l-.499.762c-.029.029-.117.147-.411.616-.264.381-.499.323-.704.352h-.968l-.997.029-.704.029-.762.264-.147.44.029.557.381.44h.587l.381.235-.176.323-.176.029-.235.176-.352.293-.616.469-.352.264-.469.469-.557.499-.176.645.059.264c.029.117.352.616.645.733.293.147.381.147.499.176l.293.029s.704-.293 1.085-.293c.352.029.059.323.059.323l-.205.235-.352.674-.293.616-.176.088-.176.147-.792.059h-.792l-.352.029-.469.059h-.469l-.381-.176-.205-.059-.176.176.059.147.762.499.499.205.997.029.44.117.147.176-.029.205-.147.293-.762 1.114-.205.557.059.381c-.264.176-.85-.352-1.173-.792-.323-.469-2.229-1.847-2.346-1.935l-.117-.381.029-.352-.117-.352-.205-.44-.264-.792v-.293l.088-.293.147-.323.469-.587.704-.528c.499-.499.88-.323 1.144-.381.264-.088.528-.205.762-.645.235-.381-.147-.792-.323-.968-.147-.147-.85-.587-1.202-.469-.323.088-.44.587-.44.587l-.029.557c.293.264 0 .469 0 .499-.029.059-.645.762-1.085.968-.411.205-.587.469-.733.557l-.44.587-.147.909c.088.117.059.44.059.909 0 .44-.469.323-.469.323l-.293-.059-.117-.059-.528.147-.147.469c.147.088.557.381 1.026.411.499.029 1.437.411 2.287.997.821.587 1.202 1.173 1.202 1.173.147.088.88 1.261 1.349 1.877.44.557 1.144 1.408 1.437 1.672.293.205.909.499 1.085.616l1.261.469c1.114.469 1.466.411 1.848-.029.323-.381.029-.704.029-.704l-.821-.616-1.144-.616-1.437-.909-.645-.44-.088-.147.147-.147.411-.147.469-1.026c.029-.059.499-1.144.762-1.525.264-.352.674-.235.674-.235.117-.059.44.293.938.029.499-.293.352-.88.352-.88l-.323-.264-.411-.147h-.264l.029-.205.645-1.114.352-.469.411-.381c.205-.205.381-.264 1.085-.381.674-.147.499-.323.499-.411l-.645-.381.176-.587-.293-.909h-.44l-.264.381-.381.557c-.176.352-.792.411-.792.411l-.469.059c-.733.147-.645-.176-.645-.176.147-.528 2.258-1.965 2.522-2.111.264-.117.821-.616 1.906-.411 1.114.147.997.352 1.73.205.762-.176.733-.411.88-.645.147-.293-.205-.616-.323-.85.029-.323-.821-.587-.821-.587m46.657 12.375-.557-.147c-.029.059-.968.205-1.613.176-.645 0-1.554.176-1.584.235-.029.029-.762.176-1.026.147-.293-.059.029-.323.029-.323.499-.293 1.114-1.056 1.114-1.056 1.173-1.525.88-2.199.88-2.287 0-.147-.352-.587-1.026-.88-.674-.264-1.29-.059-2.053.352-.704.381-1.76 1.437-1.847 1.496l-.029.528.264.323.323.205c.352.293 1.056.029 1.114-.029l.293-.352c.147-.147 0 0 .557-.411.557-.352.499.088.499.088 0 1.261-1.554 2.698-1.554 2.698l-.44.205c-1.525.264-2.551.762-3.314 1.349-.762.528-.674.821-.674.821 0 .733.235.968.733 1.173.499.235.997-.176.997-.176 1.466-1.32 7.713-2.023 7.801-2.023l.821-.117c.205-.059.352-.528.616-.821.264-.323.293-.528.293-.645zm-25.689-7.097c-.499.176-1.085.499-1.672.88-.616.44-.587.997-.587.997l.44.147.411-.088.469-.117c0-.088.44-.323.792-.557.352-.264 1.261-.469 1.496-.528l.821-.029.616.117.323.499c0 .645-.352 1.232-.352 1.232s.117 0-.499.968-1.672 1.613-1.877 1.76l-.352-.029.059-.381.176-.117.411-.44.499-.469.323-.176.176-.293-.117-.205-.059-.44-.264-.147-.117-.176-.293-.117-.176-.323c-.616-.733-.674-.381-.674-.381l-.029.587-.176.44-1.29.85-.176.616.616.44.205.352-.059.44-.147.117-.293.235-.205.176-.293.029-.293.029-.205.147-.117.088-.176-.117-.029-.205.029-.323.176-.323.147-.645.029-.44v-.44c.088-.323-.352-.616-.587-.616-.176.029-.645.205-.997.968-.411.762-.616 1.701-.674 1.965l.117.381.235.235.469.587.469-.147.293-.176.205.088c0 .44.44.44.528.44l.499-.293v.469l-.147.352c-.029.293-.323 1.026-.323 1.026l-.499.469-.264.117s-.205.176-.528.147c-.352-.088-.293.117-.323.117l.088.44.381.411.147.293-.147.88-.176.381-.674.059c0 .029-.528.059-.792.088h-.147l-.528.059-.293.059.029.323.323.469.469.323.147.029.469.029a130 130 0 0 0 1.935-.059c.85-.059 1.965.293 2.082.44.117.176.205.381.733.44.528 0 .997-.352 1.32-.587.323-.205.264-.411.264-.411s.029-.44-.528-.733-2.933-.704-3.226-.674l-.176-.645c-.029-.469.323-.88.323-.88.733-.645 1.29-.293 1.73-.352.44-.029.645 0 .821-.323.147-.323.029-.616-.205-.792l-.792-.147-.264.029h-.411l-.293-.147.264-1.056.235-.674c.821-.587 2.991-2.258 3.607-3.226.616-.938.762-1.613.909-2.287.117-.733-.323-1.232-.323-1.232-.968-1.378-2.962-.499-3.46-.293m-4.663 7.566c.059-.323-.176-.117-.176-.117l-.147.147-3.724 3.988h-.029l-.44.147c-.205-.293.117-1.026.264-1.29l.205-.235c.44-.587 1.29-1.642 1.525-2.023.381-.645.44-1.378.411-1.584l-.117-.499c.264-.762 1.144-2.463 1.554-3.079l.381-.352c.293-.264.528-.323.792-.645.381-.44.235-.704 0-1.026l-.792-.147-.147.029-1.085.264-1.144.235c-.117.088-.587.147-.909.352a1.27 1.27 0 0 0-.411.587l.059.147.469.411c.499.44 1.29.205 1.496.088l.293.088s-1.056 2.933-1.378 2.727c-.147-.117-.557-.235-.997-.176-.352.029-.733.147-.968.352-.499.499-.762 1.29-.704 1.73s.762.938 1.29.821l.352-.088c.411-.176.733-.528.733-.528l-.733 1.29-1.584 2.669-.117.352.117.352.323.352.293.117c.352.117.674 0 .968-.235l.088-.088c.323-.323.616-.792.909-1.144.499-.557 2.111-2.581 2.757-3.46zm-3.666-.44-.323.293c-.323.264-.587.381-.85.029 0 0 0-.528.499-.88l.352-.176c.323-.176.587-.176.733-.147.176.088.088.528-.411.88M100 0C44.751 0 0 44.78 0 100c0 55.249 44.78 100 100 100s100-44.78 100-100C200 44.809 155.22 0 100 0m.029 192.757H100c-51.202 0-92.757-41.525-92.757-92.698C7.243 48.856 48.798 7.331 100 7.302h.029c51.144 0 92.669 41.525 92.669 92.757.029 51.173-41.525 92.698-92.669 92.698" fill="#0075bd"/></svg>