<svg xmlns="http://www.w3.org/2000/svg" width="250" height="250"><path d="M141 106.62c-.01.01-1.85 1.6-6.15 1.27l-3.95-1.3c-2.79-.83-4.85-.46-6.19.99-.89-.67-3.26-2.14-5.32-.63-.97.72-2.29 1.12-3.4.46l-6.68-1.88-.66.47.1 7.16c.01.18.33 10.69-.91 19.57l-.04.3c2.33 1.81 6.29 1.43 9.4.41.75-.25 2.8-.78 4.1-.52.17 1.06.97 2.56 3.21 2.62 2.37.07 3.4-1.62 3.66-2.67.41-.32 2.16-1.39 5.34-.04 2.69 1.14 6 .68 8.36-1.02V107l-.87-.38zm-.17 24.63c-.8.47-3.75 1.98-6.91.63-2.02-.86-4.96-1.28-6.69.44-.21 1.38-1.32 2.24-2.69 2.19-2.21-.06-2.24-1.92-2.24-2v-.37c-1.47-.63-3.77-.27-5.43.32-4.64 1.51-7.21.46-7.95.07 1.17-8.71.89-18.75.87-19.33l-.08-6.48 5.88 1.65c.39.22 2.19 1.06 4.43-.59 1.85-1.36 4.36.84 4.39.86l.77-.08c1.55-2.14 4.48-1.27 5.44-.98 1.43.42 2.7.88 4.04 1.34 2.07.16 4.31.02 6.19-.97v23.3zm-1.08-24.83-1.01.54c-.1.08-2.36 1.86-5.1.53-3.21-1.56-5.83-1.26-6.05-1.23-.24 0-2.13.08-2.98 1.52-1.18-.96-3.25-1.92-5.36-.75-2.8 1.55-8.49-1.09-8.55-1.11l-.74.53.19 1.6c.89 6.11.61 16.33.21 22.46 1.38 1.89 5.51-.12 6.91-.89.12-.06 2.82-1.48 7.46 1.05l.26.14c2.01-1.23 5.55-2.56 7.8-1.31 2.03 1.13 4.7 1.33 6.78.22l.28-22.25-.1-1.05zm-1.21 22.63c-.73.28-2.85.87-5.24-.46-3.05-1.69-7.32.47-8.34 1.04-5.02-2.61-8.07-.99-8.2-.92-3.57 1.96-4.95 1.58-5.34 1.38.44-7.67.6-17.11-.33-22.88 1.8.72 6.07 2.15 8.65.72 2.34-1.3 4.44.83 4.64 1.05l.92-.2c.37-1.47 2.3-1.49 2.32-1.49.1-.01 2.57-.32 5.55 1.13 2.3 1.12 4.29.44 5.36-.12v20.75zM85.3 56.15c-2.46 2.39-3.96 6.92-6.32 9.39-2.62 2.74-5.76 3.25-9.57 4.65-5.99 2.19-10.88 6.88-13.11 12.27-.74 1.79-1.31 4.3-1.31 6.7 0 3.72 1.37 7.2 5.6 7.45 7.13.44 14.6-4.89 18.96-10.1.28-.34.97-.98 1.48-1.78.36-.58.61-1.16.63-1.77-1.15-.03-3.2-.55-4.05-1.75-1.16-1.63-.71-2.89.63-4.23 1.22-1.22 2.91-1.63 4.55-2.14 2.71-.83 6.73-2.19 7.39-5.38.49-2.36-.03-2.53 1.63-6.8 1.28-3.28 5.28-4.47 7.5-6.96 1.06-1.19 2.56-2.03 4.59-5.04.93-1.36 2.39-2.96 2.5-4.54-8.18 6.59-13.94 3.06-21.1 10.03zm12.66-1.66c-2.11 2.35-6.3 3.55-7.84 7.51-1.75 4.5-1.29 4.98-1.72 7.1-.47 2.26-4.26 3.43-6.14 4.01-1.9.61-3.76 1.05-5.3 2.59-1.96 1.96-2.51 4.19-.82 6.56.65.92 1.79 1.61 2.96 2.03-.3.37-.64.7-.94 1.06-3.95 4.72-10.98 9.86-17.46 9.46-3.45-.2-4.02-3.51-3.87-6.39.1-1.77.53-3.74 1.16-5.26 2.16-5.22 6.79-9.34 12.06-11.26 3.68-1.34 7.28-1.98 10.26-5.1 2.62-2.73 4.03-7.16 6.28-9.34 4.99-4.86 8.91-4.01 14.67-6.24-1.25 1.47-2.27 2.11-3.3 3.27zM75.19 94.91s-6.5 5.34-13.84 6.34-4.92-6.92-4.92-6.92l1.71.5-.46.92c-1.08 2.17 1.17 2.75 1.17 2.75 6.67.42 14.76-5.5 14.76-5.5 11.61-8.74 8.59-11.01 8.59-11.01-1.84.08-.67-1.17-.67-1.17 2.17-1.25 3.42 1.17 3.42 1.17 1.6 5.02-9.76 12.92-9.76 12.92zm28.83 89.5c4.31-1.56 7.9-5.22 12.09-7.12.21-.56-.57-.54-.59-1.21-1.57-.18-3.11.53-4.21 1.33-3.01 2.06-7.29 3.84-9.84 3.49-6.51-1.39-14.57-2.75-20.99-.46-2.84.66-7.85-3.51-9.63-5.67-.61 2.25 0 4.35.39 6.68-1.54.32-5.5.67-6.08 2.39 7.15.15 14.11 6.45 20.9 1.25 1.95-1.37 14.5.54 17.96-.68zm-.15 15.74c1.33-3.27 3.79-6.11 5.45-9.29 2.79-4.2 5.14-8.28 7.94-12.48.67.09 1.03.98 1.59 1.08 1.02.64 2.15 1.17 3.28 1.48-2.36 3.63-5.38 7.84-8.07 11.81-1.93 3.06-4.64 6.15-6.91 9.22-.43.57-1.22.25-1.78.05-.69-.55-1.25-.98-1.5-1.87zM145.53 180c.28-.59.67-1.33.07-1.68-2.48-.94-4.74-2.22-7.23-3.5-.32.68-.98 1.14-1.07 1.93 2.38 1.61 5 3.33 7.7 4.38.22-.34.53-1.13.53-1.13zm41.93-1.18c-.32.67-1.33.48-1.99.61-1 .14-1.89.38-2.66.85.49 1.77.98 3.55 1.03 5.55l-.44.01c-2.4-2.28-4.9-3.78-8.23-3.25-7.31 1.97-16.27 5.33-23.62 1.5.09-1.01.61-2.25 1.48-3.16 4.93.88 9.85.97 14.48-.93 5.61-3.49 14.46-6.4 19.95-1.18zm-49.95 1.72 10.58 16.8c.24.66.03 1.34-.17 2.01-.76.91-1.98 1.28-3.1 1.08-4.63-6.35-9.14-12.71-13.44-19.18 1.21-.81 2.76-1.3 3.85-2.33l-.12-.11c1.32-1.25 1.61 1.08 2.4 1.73zm10.14-9.41c-2.14-.62-4.45.45-6.57.39-.89.36-2.92-.6-2.77.74 1.97 2.85 6.82.38 8.47 4.02 1 3.99-1.17 6.73-3.33 9.57-1.2 1.03.38 1.89.85 2.77 1.9.06 2.97-1.64 4.27-3.01 1.92-3.62 3.91-8.36 1.59-12.09-.58-.87-1.39-2.08-2.51-2.39zm-17.97 12.85c.17 2.45.82 5.67 3.41 6.61 1.13.53 1.9.06 3.13.25.69.99 1.17 2.09 1.87 3.19-1.64 1.16-4.88 1.24-6.8.18-3.74-2.14-4.19-6.81-3.51-10.74.21-.68.19-1.46.84-1.92.56.21.89-.25 1.34.08l-.28 2.35zm-22.97-12.35c-2.19 1.73-4.01 4.46-4.17 7.14.58.77 2.13.28 3.24.25.33-.23.66-.57 1.1-.81.92-3.15 3.31-5.78 6.18-7.19l-.02-.78c-2.25-.28-4.58.11-6.33 1.39zm19.82 11.65c-.23 4.02-1.23 8.62-4.86 10.62-2.09 1.17-4.98 1.47-7.13.29.64-1.25 1.39-2.27 2.26-3.41 2.67-.29 5.43-1.59 6.81-4.08.74-1.58 1.59-3.28 1.88-5.18 1.22-.25 1.24.86 1.04 1.76zm-20.02 2.63c.59 1.21.96 2.54 2.21 3.29-.76 1.02-1.52 1.6-2.38 2.74-1.71-1.3-2.99-3.49-3.49-5.71 1.1-.14 3.5-2.65 3.66-.32zm16.65-16.71c-1.83 1.87-1.47 4.21 1.44 4.7 2.15.36 3.45-1.81 4.82-3.09.84-.78 1.68-1.38 2.16-2.47l-7.4-.52-1.02 1.38zm-2.02-.63s-3.79 2.15 1.01 6.19c0 0 5.05 3.03 9.72-.25 0 0 3.54-2.4 1.26-5.94l2.27-.25s4.27 5.45-1.26 9.34c0 0-6.19 4.8-14.52.38 0 0-6.31-3.79-1.77-9.34l3.29-.13zm11.05 4.52c-.08 1.23-1.65 1.04-2.53 1.63-.67-.21-1.33.37-1.9-.06.29-1.57 1.96-1.95 2.82-3.2.9-.02 1.26.97 1.61 1.63zm-68.95-70.95 11.2 12.04s11.26-4 16.93-11.34L85.03 86.4s-6.42 10.81-21.79 15.74zm26.46 3.95-2.92 5.67c-1.84 2.59-9.92 5.26-9.92 5.26l-1.75-2c9.17-3.26 14.59-8.93 14.59-8.93zm-4.92 8.33-4.25 6.34-3-3.17c3.75-.5 7.25-3.17 7.25-3.17zm9.51 20.19 5 5.84s7.34-2.25 8.42-6.26l-6.67-12.34-6.75 12.76zm14.09.75 1.08 2c-4 5.42-8.42 5.51-8.42 5.51l-1.08-1.58c7.59-2.51 8.42-5.93 8.42-5.93zm1.58 2.75 7.17 10.93-11.51-.17-4-5.17c6.84-1.34 8.34-5.59 8.34-5.59zm55.47-51.37-6.34 16.43c5.67 7.34 16.93 11.34 16.93 11.34l11.2-12.04c-15.37-4.93-21.79-15.73-21.79-15.73zm9.93 28.61-1.75 2s-8.09-2.67-9.92-5.26l-2.92-5.67c-.01 0 5.41 5.67 14.59 8.93zm-2.42 2.58-3 3.17-4.25-6.34c-.01 0 3.49 2.67 7.25 3.17zm-23.52 4.25-6.67 12.34c1.08 4 8.42 6.26 8.42 6.26l5-5.84-6.75-12.76zm1.08 19.43-1.08 1.59s-4.42-.09-8.42-5.51l1.08-2s.84 3.42 8.42 5.92zm-1.66 2.42-4 5.17-11.51.17 7.17-10.93c-.01.01 1.5 4.26 8.34 5.59zm28.02-50.7c-11.61-8.74-8.59-11.01-8.59-11.01 1.84.08.67-1.17.67-1.17-2.17-1.25-3.42 1.17-3.42 1.17-1.61 5.03 9.76 12.93 9.76 12.93s6.5 5.34 13.84 6.34 4.92-6.92 4.92-6.92l-1.73.46c.02.05.15.31.48.96 1.08 2.17-1.17 2.75-1.17 2.75-6.67.41-14.76-5.51-14.76-5.51zm17.67-10.92c-2.23-5.39-7.12-10.08-13.11-12.27-3.81-1.39-6.95-1.91-9.58-4.65-2.36-2.47-3.87-7-6.32-9.39-7.16-6.97-12.92-3.44-21.09-10.03.11 1.69 1.6 3.22 2.5 4.54 2.03 3.01 3.52 3.85 4.59 5.04 2.22 2.48 6.22 3.68 7.5 6.95.55 1.42 1.07 2.79 1.29 4.3.14.96.16 1.61.35 2.5.24 1.15.98 2.22 2.06 2.94 2.08 1.39 2.97 1.71 5.33 2.44 1.64.51 3.33.92 4.55 2.14 1.34 1.34 1.79 2.6.63 4.23-.83 1.16-2.7 1.67-4.05 1.75.05 1.47 1.25 2.51 2.12 3.55 4.2 5.02 11.27 10.13 18.17 10.13 4.66 0 6.39-3.16 6.39-7.47-.02-2.41-.59-4.91-1.33-6.7zm-1.42 10.73c-.86 1.36-2.15 1.63-3.67 1.63-6.34 0-12.88-4.81-16.78-9.48l-.95-1.06c1.17-.42 2.31-1.11 2.96-2.03 1.69-2.37 1.14-4.6-.82-6.56-1.5-1.5-3.33-1.99-5.3-2.59-2.21-.68-2.93-.93-4.85-2.22-.68-.45-1.15-1.11-1.29-1.79-.16-.79-.21-1.6-.33-2.4-.24-1.66-.77-3.11-1.39-4.7-1.53-3.92-5.81-5.23-7.84-7.5-1.04-1.16-2.05-1.8-3.28-3.29 5.71 2.21 9.67 1.37 14.67 6.24 2.32 2.26 3.66 6.61 6.28 9.34 2.96 3.08 6.62 3.77 10.26 5.1 5.26 1.93 9.89 6.05 12.06 11.26.63 1.52 1.06 3.49 1.15 5.26.12 2-.2 3.7-.88 4.79zM36.75 168.33c.8-.37.88-.66.54-1.4l-.67-1.46c-1.3-2.86-3.71-3.04-8.28-.95-4.89 2.23-5.97 4.13-4.38 7.6l.34.74c.34.74.63.87 1.43.5l11.02-5.03zm-10.21-7.87c4.78-2.18 8.96-.61 11.35 4.64l3.78 8.27-1.12.51-.52-1.14c-.41-.91-.75-.96-1.59-.58L27.6 177.1c-.85.39-1.05.66-.63 1.59l.52 1.14-1.1.5-3.41-7.47c-2.72-5.93-1.57-10.06 3.56-12.4zm3.8-20.54-1.22.19.19 1.24c.13.88-.03 1.18-1.02 1.33l-5.57.85a12.79 12.79 0 0 1-.16-.92c-.41-2.65.28-3.25 2.79-3.8 1.26-.26 2.48-.26 3.49-1.03.95-.71 1.31-1.92 1.05-3.58-.37-2.41-2.06-3.61-4.64-3.22-.07.01-.11.02-.18.03l.18 1.17c1.5-.21 2.3-.05 2.4.62.16 1.04-1.58 1.07-3.5 2.04-1.75.88-2.54 2.3-2.33 3.98l-.16.03c-.61-3.25-2.44-4.88-4.85-4.5-2.74.42-3.89 2.74-3.26 6.83l1.55 10.14 1.2-.18-.19-1.24c-.14-.9.07-1.21 1.04-1.36l11.78-1.8c.97-.15 1.24.09 1.38.99l.19 1.24 1.22-.19-1.38-8.86zm-13.78 4.56c-1.13.17-1.3-.06-1.54-1.58-.42-2.74.1-3.97 2.49-4.34 2.46-.38 3.39.89 3.89 4.18a7.38 7.38 0 0 1 .1.98l-4.94.76zm11.1-21.82.13-1.16c.11-.99-.15-1.21-1.07-1.31l-11.84-1.32c-.92-.1-1.24.03-1.36 1.04l-.13 1.15-1.2-.13 1.68-15.08 6.03.48-.13 1.13c-3.68.43-5.1 1.91-5.5 5.48-.15 1.34-.09 1.7 1.06 1.83l5.02.56c.01-.12.02-.21.04-.32.23-2.06-.58-2.99-2.85-3.64l.13-1.16 7.65.85-.13 1.16c-2.35.13-3.33.89-3.55 2.93-.01.12-.02.21-.04.32l5.57.62c1.13.13 1.29-.21 1.45-1.62.43-3.88-.72-5.79-4.45-7.12l.22-1.15 6.23 1-1.73 15.59-1.23-.13zm-9.79-29.3-1.09-.42 2.9-7.56 1.13.43-.21.54c-.25.65-.19 1.08.09 1.18.15.06.38.05.69-.04l4.25-1.08-1.6-2.71c-.28-.45-.52-.72-.82-.84-.83-.32-1.36.23-1.91 1.66l-1.13-.43 2.55-6.65 1.13.43c-.66 1.71-.05 2.6.76 3.93l2.56 4.25 8.41-2.11c.99-.24 1.6-.61 1.81-1.15l.13-.35 1.11.42-2.98 7.78-1.11-.42c.32-1.02.39-1.55-.02-1.7-.22-.08-.52 0-.99.12l-4.28 1.08 1.43 2.44c.41.68.82 1.11 1.28 1.29.89.34 1.46-.31 2.09-1.94l1.11.42-2.73 7.13-1.11-.43c.54-1.86-.27-2.99-1.3-4.73l-2.26-3.86-8.44 2.2c-.81.19-1.14.34-1.45 1.12zm23.32-17.74.68-.95c.58-.81.46-1.13-.29-1.67l-9.69-6.93c-.76-.54-1.1-.58-1.69.25l-.67.95-.98-.7 8.82-12.34 5.03 3.37-.66.92c-3.42-1.41-5.39-.82-7.48 2.09-.79 1.1-.91 1.43.03 2.11l4.11 2.94c.07-.09.12-.17.19-.27 1.2-1.68.95-2.89-.71-4.57l.68-.95 6.27 4.48-.68.95c-2.12-1.03-3.34-.85-4.53.82-.07.09-.12.17-.19.26l4.56 3.26c.93.66 1.23.45 2.05-.71 2.27-3.18 2.2-5.4-.41-8.39l.75-.89 4.95 3.91-9.13 12.78-1.01-.72zm16.25-18.75-.79-.95.91-.76c.77-.64.73-.98.13-1.69l-7.65-9.13c-.6-.71-.9-.85-1.68-.2l-.93.78-.78-.92 7.06-5.92.78.93-1.12.94c-.77.64-.71.99-.12 1.71l7.6 9.08c.75.89 1.1.69 2.15-.19 2.87-2.41 3.29-4.55 1.54-8.06l.97-.66 3.85 5.06-11.92 9.98zm47.29-41.17-1.14.21c-.98.18-1.11.51-.95 1.42l1.51 8.36c.54 2.98 1.93 4.17 4.8 3.65 1.26-.23 2.25-.78 2.8-1.5.9-1.16.73-2.5.36-4.58l-1.08-6c-.32-1.76-.88-2.54-2.85-2.18-.04.01-.11.02-.16.03l-.22-1.19 6.3-1.13.22 1.19c-1.83.5-2.08 1.3-1.77 3.02l1.12 6.21c.32 1.78.55 3.16-.04 4.52-.82 1.97-2.67 3.13-5.63 3.66-4.51.81-7.14-.67-7.8-4.32l-1.62-9c-.16-.92-.4-1.18-1.39-1l-1.17.21-.22-1.19 8.72-1.57.21 1.18zm21.36-3.44 5.84.54 7.86 11.24.58-6.25c.21-2.25-.17-2.98-2.48-3.22l.11-1.2 6.81.63-.11 1.2c-2.03-.1-2.46.59-2.66 2.74l-1.18 12.79-1.46-.13-9.72-13.94-.79 8.5c-.2 2.15.22 2.99 2.41 3.24l-.11 1.2-6.65-.61.11-1.2c2.12.01 2.54-.72 2.73-2.76l.93-10.05-.4-.51c-.55-.74-.86-.92-1.94-1l.12-1.21zm38.61 8.78-1.26-.42c-.95-.32-1.2-.08-1.49.8l-3.78 11.3c-.29.88-.23 1.2.72 1.52l1.26.42-.39 1.17-8.67-2.9.39-1.17 1.21.41c.95.32 1.21.11 1.51-.77l3.78-11.3c.3-.88.24-1.22-.73-1.55l-1.21-.41.38-1.15 8.67 2.9-.39 1.15zm8.83 22.07 2.55-16.02c.11-.77-.19-1.26-1.07-1.79l.63-1.04 7.01 4.23-.63 1.04-.7-.42c-.62-.37-1.04-.39-1.24-.07-.08.14-.13.35-.19.67l-1.74 10.23 7.07-5.41a3.21 3.21 0 0 0 .8-.88c.53-.88.14-1.54-1.21-2.41l.64-1.06 5.8 3.5-.61 1.01c-1.14-.63-2.52-.38-4.07.8l-11.4 8.58-1.64-.96zm14.94 8.27.81.83c.7.71 1.03.65 1.7 0l8.51-8.34c.66-.65.77-.98.05-1.71l-.82-.83.86-.85 10.62 10.83-4.19 4.37-.8-.81c1.99-3.12 1.75-5.16-.76-7.73-.95-.96-1.26-1.15-2.09-.33l-3.61 3.53.23.23c1.45 1.48 2.68 1.44 4.62.1l.82.83-5.5 5.39-.81-.83c1.38-1.91 1.41-3.14-.02-4.61l-.23-.23-4.01 3.93c-.81.8-.65 1.13.34 2.14 2.74 2.79 4.94 3.11 8.33 1.05l.75.89-4.72 4.2-10.98-11.2.9-.85zm35.91 20.9-4.93-9-1.06.58.6 1.1c.44.79.35 1.16-.51 1.63l-10.45 5.72c-.86.47-1.2.34-1.63-.46l-.6-1.1-1.08.59 4.31 7.88 1.08-.59-.6-1.1c-.42-.78-.38-1.12.5-1.6l4.94-2.7c.18.27.34.56.47.8 1.29 2.35.85 3.14-1.32 4.52-1.09.68-2.24 1.09-2.93 2.16-.65.99-.57 2.25.23 3.72 1.17 2.14 3.17 2.69 5.46 1.44.06-.03.1-.06.16-.09l-.57-1.04c-1.34.71-2.15.83-2.47.24-.51-.92 1.12-1.54 2.59-3.12 1.34-1.43 1.61-3.03.83-4.54l.14-.08c1.69 2.84 3.96 3.74 6.11 2.57 2.43-1.33 2.72-3.9.73-7.53zm-2.84 3.83c-2.18 1.2-3.48.32-5.08-2.6a7.19 7.19 0 0 1-.43-.88l4.39-2.4c1-.55 1.24-.39 1.98.96 1.33 2.42 1.26 3.76-.86 4.92zm1.47 19.18.28 1.15c-3.29 2.17-4.66 4.76-4.01 7.5.47 1.99 1.77 2.93 3.4 2.54.73-.17 1.28-.64 1.52-1.25.35-.87.24-2.33.27-4.41.04-3.98.98-6.18 3.89-6.87 2.9-.69 5.65 1.13 6.47 4.61.36 1.54.28 3.02-.22 4.52l1.38.87.24 1-5.91 1.69-.25-1.07c2.96-2.33 4.17-4.31 3.59-6.75-.46-1.95-1.65-2.82-3.16-2.46-1.9.45-1.6 2.32-1.59 5.61.01 1.77-.01 3.18-.79 4.47-.67 1.12-1.88 1.95-3.42 2.32-3.15.75-5.77-.95-6.65-4.67-.44-1.86-.36-3.43.36-5.06l-1.68-1.01-.23-.98 6.51-1.75zm13.42 32.64-.02-1.33c-.02-1-.32-1.16-1.25-1.14l-11.91.2c-.93.02-1.21.18-1.19 1.18l.02 1.33-1.23.02-.15-9.14 1.23-.02.02 1.28c.02 1 .3 1.18 1.23 1.17l11.91-.2c.93-.01 1.23-.18 1.21-1.21l-.02-1.28 1.21-.02.15 9.14-1.21.02zm-2.71 22.25c.16-.82-.07-1.08-.96-1.26l-11.84-2.36c-.91-.18-1.22-.06-1.42.93l-.22 1.12-1.21-.24 1.72-8.65 1.21.24-.23 1.14c-.2.98.05 1.19.96 1.38l11.84 2.36c.89.18 1.2.05 1.36-.77.36-1.83-1.2-3.63-4.4-4.72l.23-1.14 6.13 1.6-3 15.04-6.28-.87.22-1.12c3.39.21 5.53-.86 5.89-2.68zm-2.93 14.61-3.55 7.61-1.1-.51.28-.61c.29-.63.25-.98-.13-1.16-.34-.16-2.56.09-6.63.68l2.57 3.56c.38.51.68.86.98.99.7.32 1.3.02 1.71-.87l.29-.61 1.1.51-2.87 6.16-1.12-.52c.52-1.12.38-2.08-.42-3.28l-4.14-6.09-4.56-2.12c-.84-.39-1.17-.34-1.6.56l-.6 1.31-1.12-.52 3.96-8.48 1.12.52-.59 1.27c-.42.91-.25 1.19.59 1.59l4.22 1.97 8.38-1.07c1.2-.16 1.71-.32 2.14-1.39l1.09.5zM92.65 231.56l1.23.32c1.17.31 1.3.17 1.56-.85l2.18-8.33c.28-1.05.13-1.24-.94-1.52l-1.4-.37.28-1.1c2.57.59 4.38.54 5.39-.08l.85.22-3.15 12.01c-.27 1.03-.19 1.21.93 1.5l1.19.31-.29 1.11-8.14-2.13.31-1.09zm24.38-3.49c-2.34-.89-3.43-1.69-3.33-2.97.1-1.23 1.02-1.95 2.47-1.83 1.48.13 2.29 1.03 2.17 2.47-.09.96-.53 1.76-1.31 2.33zm-2.87 2.66c2.83 1.1 4.14 1.48 3.99 3.26-.12 1.46-1.31 2.37-3.04 2.22-1.78-.15-2.69-1.19-2.55-2.92.1-1.26.73-2.22 1.6-2.56zm3.92-2.2c1.67-.35 2.68-1.33 2.79-2.65.16-1.92-1.48-3.44-4.27-3.68-3.11-.26-5.26 1.54-5.47 4.08-.14 1.67.63 3.08 2.07 3.89-1.94.09-3.14 1.17-3.28 2.83-.2 2.38 1.56 3.96 4.94 4.24 3.44.29 5.71-1.46 5.95-4.33.17-2.07-.68-3.45-2.73-4.38zm15.33-1.89c-.23-2.23.17-3.39 1.42-3.52s1.9.92 2.14 3.15c.23 2.23-.2 3.37-1.45 3.5-1.24.12-1.87-.9-2.11-3.13zm4.04 2.99c.43 4.14-.37 6.36-2.18 6.54-.64.07-.99-.06-1.03-.4-.03-.34.7-.73.6-1.69-.11-1.02-.88-1.57-2.07-1.45-1.19.13-1.82.89-1.69 2.16.16 1.56 1.77 2.64 4.1 2.39 3.91-.41 6.23-3.68 5.7-8.7-.47-4.46-2.86-6.8-6.31-6.44-3.02.32-4.94 2.64-4.66 5.33.28 2.66 2.13 4.3 4.61 4.05 1.27-.12 2.2-.71 2.93-1.79zm12.1 4.96 8.14-2.13-.29-1.11-1.19.31c-1.11.29-1.27.18-1.55-.85l-3.15-12.01-.85.22c-.57 1.04-2.13 1.96-4.66 2.71l.28 1.1 1.4-.37c1.07-.28 1.29-.19 1.57.87l2.18 8.33c.27 1.01.23 1.2-.95 1.5l-1.23.32.3 1.11zm-70.24-91.77.31-.56c1.87.21 3.24-.38 3.98-1.71.54-.96.43-1.77-.25-2.16a.948.948 0 0 0-.95 0c-.42.24-.89.86-1.64 1.7-1.41 1.6-2.5 2.18-3.72 1.49-1.22-.68-1.51-2.33-.57-4.01a4.84 4.84 0 0 1 1.66-1.76l-.16-.81.27-.48 2.59 1.27-.29.51c-1.81-.04-2.92.37-3.58 1.55-.53.94-.43 1.68.21 2.04.8.45 1.35-.41 2.5-1.75.61-.72 1.12-1.29 1.83-1.55.62-.23 1.32-.17 1.96.19 1.32.74 1.62 2.3.61 4.09-.5.9-1.08 1.51-1.9 1.93l.21.96-.26.47-2.81-1.41zm9.68-16.55-.5.5c1.12 1.17 1.32 2.45.64 3.65-.92 1.63-2.16 1.7-4.28.51-2.09-1.17-2.72-2.3-1.89-3.77.67-1.2 1.96-1.64 3.79-1.23l.28-.58-2.86-1.4-.26.46.15.89c-.69.38-1.23.95-1.67 1.74-.72 1.28-.92 2.47-.6 3.66a3.89 3.89 0 0 0 1.9 2.44 3.89 3.89 0 0 0 3.84.06c.81-.42 1.5-1.11 2.03-2.07 1.04-1.85.85-3.56-.57-4.86zm-.7-9.4-2.25 4.01.49.28.32-.56c.25-.45.41-.45.79-.24l4.88 2.73c.38.21.45.36.2.8l-.31.56.5.29 2.25-4.02-.5-.28-.33.58c-.25.44-.4.45-.78.23l-4.88-2.73c-.38-.21-.46-.35-.22-.79l.33-.58-.49-.28zm8.17 1.53 3.85-6.88-2.5-1.58-.32.49c1.36 1.28 1.47 2.37.51 4.09-.35.62-.48.75-.95.49l-2.29-1.29c.03-.05.05-.09.08-.14.5-.9 1.08-1.08 2.12-.72l.29-.51-3.15-1.77-.29.51c.86.71 1.02 1.28.51 2.19-.03.05-.05.09-.08.14l-2.06-1.16c-.48-.27-.43-.44-.1-1.03.88-1.57 1.79-2 3.48-1.54l.28-.5-2.52-1.3-3.73 6.66.49.28.29-.51c.25-.45.41-.45.79-.24l4.88 2.73c.38.21.45.36.2.8l-.28.51.5.28zm-1.04-13.1c.25-.52.5-.62.83-.7l.3-.09 4.13 2.31c.84.47 1.07.8.62 1.77l.49.28 1.64-2.93-.49-.28c-.57.96-1.01.99-1.89.5l-3.49-1.96 8-1.84.36-.64-5.26-2.94c-.89-.5-1.09-.82-.63-1.73l-.5-.28-1.68 3 .5.28c.58-1.02.98-1.05 1.9-.54l2.57 1.44-6.46 1.49-1.44 2.57.5.29zm13.92-15.38-.48.46c1.13 1.14 1.36 2.36.73 3.48-.85 1.52-2.08 1.55-4.19.36-2.09-1.17-2.74-2.26-1.97-3.62.63-1.12 1.88-1.5 3.69-1.06l.25-.54-2.85-1.41-.24.43.17.85c-.67.34-1.18.87-1.6 1.6-.67 1.2-.84 2.32-.49 3.46a4.05 4.05 0 0 0 1.93 2.37c1.25.7 2.56.75 3.78.17.79-.38 1.44-1.02 1.94-1.9 1-1.74.77-3.37-.67-4.65zm3.8-1.32 3.85-6.88-2.5-1.58-.32.49c1.36 1.28 1.48 2.37.51 4.09-.35.62-.48.75-.95.49l-2.29-1.28c.03-.05.05-.09.08-.14.5-.9 1.08-1.08 2.13-.71l.28-.51-3.15-1.76-.29.51c.85.71 1.02 1.28.51 2.19-.03.05-.05.09-.08.14l-2.07-1.16c-.48-.27-.43-.44-.1-1.03.88-1.57 1.79-2 3.48-1.54l.28-.5L110 78.1l-3.73 6.66.49.28.29-.51c.25-.45.41-.45.79-.24l4.88 2.73c.38.22.45.36.2.8l-.28.51.5.27zm-1.61 71.78h2.56l-1.24-2.65-1.32 2.65zm2.55 2.5.61-.03c.26-.01.35-.09.35-.25 0-.09-.04-.19-.09-.3l-.56-1.22h-3.21l-.29.58c-.09.19-.14.4-.14.56 0 .49.39.66 1.31.68v.57h-3.56v-.57c.76-.11 1.18-.58 1.62-1.46l2.94-5.96h.94l3.45 6.98c.16.33.35.44.83.46v.57h-4.21v-.61zm16.57-1.23c-.01.71-.16 1.07-.53 1.07-.56 0-.44-.81-.8-1.77-.33-.87-1.01-1.34-1.93-1.37v-.08c1.78-.05 2.8-.78 2.8-1.93 0-1.3-1.14-2-3.37-2h-5.53v.57h.68c.49 0 .64.12.64.58l-.01 5.59c0 .46-.15.57-.64.57h-.68v.58h4.84v-.58h-.68c-.48 0-.63-.1-.63-.57v-2.64c.17-.01.35-.01.5-.01 1.44 0 1.71.36 1.79 1.56.04.6-.06 1.17.26 1.69.3.49.92.74 1.82.74 1.27 0 2.13-.65 2.1-2h-.63zm-5.31-2.54c-.18 0-.34 0-.53-.02v-2.34c0-.54.14-.6.97-.6 1.49 0 2.11.33 2.11 1.46 0 1.17-.75 1.5-2.55 1.5zm13.9-3c-.45 0-.57.13-.57.55l-.01 5.66c0 .44.1.57.64.57h.61v.58h-4.75v-.58h.63c.54 0 .63-.13.63-.57v-5.66c0-.43-.1-.56-.55-.56-1 0-1.79.88-2.03 2.45h-.63l.2-2.97 8.27.01.2 2.97h-.61c-.23-1.57-1.02-2.45-2.03-2.45zm-2.81-80.73-.35-.62c-.26-.47-.43-.48-.81-.27l-4.87 2.73c-.38.21-.45.35-.19.82l.35.62-.51.28-2.41-4.3.51-.28.34.6c.26.47.43.49.81.28l4.87-2.73c.38-.21.46-.36.19-.84l-.34-.6.49-.28 2.41 4.3-.49.29zm1.24 2.2c.35.57.29.8.2 1.14l-.07.32-4.13 2.31c-.84.47-1.24.48-1.88-.47l-.5.28 1.76 3.14.5-.28c-.57-1.05-.37-1.46.52-1.96l3.49-1.96-2.42 8.13.39.69 5.25-2.95c.89-.5 1.28-.49 1.85.44l.49-.28-1.8-3.22-.49.28c.6 1.1.43 1.47-.49 1.99l-2.57 1.44 1.94-6.57-1.54-2.76-.5.29zm7.44 14.33c.36-.2.51-.14.72.24l.22.38c1.01 1.79.62 2.8-1.58 4.03-2.06 1.15-3.23 1.09-4.06-.39l-.42-.76c-.22-.38-.2-.53.16-.74l4.96-2.76zm1.36.22-2.16-3.86-.49.28.33.59c.27.48.19.63-.19.84l-4.87 2.73c-.38.21-.54.19-.81-.28l-.33-.59-.5.28 2.4 4.28c1.52 2.71 3.64 3.48 5.79 2.28 2.29-1.3 2.55-3.48.83-6.55zm6.23 14.82-2.49 1.4c-.87.49-1.43.76-2.12.47-.42-.18-.86-.6-1.2-1.2-.77-1.37-.49-2.24.74-2.93l3.47-1.95c.38-.21.55-.19.82.28l.31.55.49-.28-2.34-4.17-.49.28.31.56c.26.47.19.63-.19.84l-3.74 2.1c-1.51.85-1.69 2.38-.48 4.54.79 1.41 1.66 2.18 2.7 2.31.72.1 1.3-.21 2.04-.62l2.58-1.45c.71-.4 1.12-.38 1.69.46l.49-.28-1.69-3.01-.49.28c.47.85.5 1.3-.41 1.82zm-3.1 7.14.26.47.93.32c-.06.92.16 1.73.66 2.63 1.01 1.79 2.48 2.36 3.81 1.62.65-.36 1.07-.93 1.19-1.57.15-.74-.07-1.47-.36-2.37-.54-1.68-.98-2.6-.18-3.05.64-.36 1.32-.05 1.85.89.66 1.18.43 2.33-.55 3.86l.29.51 2.44-1.54-.27-.48-.77-.28c-.01-.83-.22-1.59-.63-2.34-.94-1.68-2.5-2.29-3.72-1.61-1.23.69-1.3 1.92-.67 3.96.32 1.07.61 1.8.59 2.28a.94.94 0 0 1-.5.81c-.68.38-1.43.06-1.97-.91-.74-1.33-.54-2.81.62-4.29l-.31-.56-2.71 1.65zm12.94 12.78.3.54 2.49-1.63-4.04-7.21-2.69 1.28.31.55c1.49-.56 2.64-.3 3.13.57.22.39.16.55-.21.75l-4.94 2.77c-.38.21-.54.2-.8-.27l-.31-.55-.51.28 2.33 4.15.5-.28-.3-.54c-.26-.47-.2-.62.18-.83l4.94-2.77c.37-.21.54-.17.76.22.5.87.12 2-1.14 2.97zm6.93 10.37c-1 .56-2.13.03-3.05-1.5l-.07.04c.43.81.36 1.64-.24 2.35-.66.79-1.43 1.07-1.15 1.56.18.32.57.27 1.19-.06l.31.56c-.03.01-.05.03-.08.04-1.06.6-2.05.26-2.7-.89-.44-.79-.52-1.45-.24-1.95.3-.54.84-.73 1.35-1.06 1.01-.66 1.19-1.07.48-2.33-.07-.13-.16-.28-.25-.43l-2.3 1.29c-.41.23-.42.41-.19.82l.33.59-.51.28-2.37-4.23.51-.28.33.59c.24.43.41.5.81.28l4.87-2.73c.4-.22.43-.41.19-.84l-.33-.59.5-.28 2.7 4.82c1.09 1.98 1.04 3.32-.09 3.95zm-.91-4.54c-.41-.72-.53-.81-1-.55l-2.05 1.15c.07.17.15.32.24.47.88 1.57 1.54 2.06 2.56 1.49 1-.56.98-1.26.25-2.56zm6.49 10.43-.5.28.18.32c.26.46.23.81-.09.98-.13.08-.35.09-.66.07l-2.13-.13c.81-1.85 1.29-2.83 1.44-2.92.17-.1.33 0 .51.33l.18.32.49-.28-2.22-3.95-.49.28c.03.04.04.08.07.12.25.45.18.7-.05 1.2l-1.74 3.76-1.9 1.07c-.38.21-.54.19-.81-.28l-.37-.66-.51.28 2.47 4.4.51-.28-.38-.68c-.26-.47-.2-.62.18-.83l2.06-1.15 3.58.32c.7.07 1.14.33 1.46.91l.51-.28-1.79-3.2z"/><path d="M124.27 108.48h1.04v21.73h-1.04v-21.73zm66.39 94.62-6.06-4.15 2.45 6.92-5.83 4.48 7.35-.2 2.46 6.96 2.09-7.08 7.37-.2-6.09-4.17 2.07-7.05-5.81 4.49zm-132.01 0 6.06-4.15-2.45 6.92 5.83 4.49-7.35-.2-2.46 6.96-2.09-7.08-7.38-.2 6.09-4.17-2.07-7.05 5.82 4.48zm14.39-46.16-1.35-4.17-1.36 4.17h-4.4l3.55 2.58-1.37 4.19 3.57-2.59 3.57 2.59-1.36-4.19 3.55-2.58h-4.4zm110.13.45-3.55 2.58 1.36 4.19-3.57-2.59-3.57 2.59 1.37-4.19-3.55-2.58h4.4l1.36-4.17 1.36 4.17h4.39zM130.12 63.1l-3.55 2.58 1.36 4.19-3.57-2.59-3.57 2.59 1.37-4.19-3.55-2.58h4.4l1.36-4.17 1.36 4.17h4.39z"/><g fill="none" stroke="#000"><circle stroke-width="2.238" cx="125.05" cy="125.22" r="90.28"/><circle stroke-width="2.357" cx="125.05" cy="125.22" r="118.18"/><g stroke-width="2.41"><circle cx="125" cy="125" r="122.8"/><circle cx="125" cy="125" r="85.72"/></g><path stroke-width="2.333" d="m85.02 149.85 40.01-71.15 40.01 71.15H85.02zm40.01-107.09-70.46 125.3h140.9l-70.44-125.3z" stroke-miterlimit="10"/></g></svg>