<svg xmlns="http://www.w3.org/2000/svg" width="40vw" viewBox="0 0 901 889" fill="none"><path d="M421.223 1.322c92.027-7.123 169.215 15.593 230.191 45.433a448.2 448.2 0 0 1 126.899 93.019c68.25 71.503 123.911 175.245 122.442 317.614-.685 67.244-19.762 126.801-43.05 176.958-23.705 51.063-55.026 91.649-92.395 127.829-71.017 68.541-175.901 126.801-313.134 126.801a446.2 446.2 0 0 1-182.512-37.649C167.327 806.482 93.053 736.594 44.15 636.647 20.053 587.493.658 528.744.291 460.521c-.465-73.216 10.334-131.598 33.108-185.305A442.9 442.9 0 0 1 120.285 142.1a433.6 433.6 0 0 1 126.286-93.852c49.418-24.21 105.643-41.541 174.652-46.926M247.355 61.32c-48.414 25.238-88.746 55.543-123.153 94.563-35.116 39.949-61.857 77.671-83.064 133.899C21.89 340.599 4.944 407.965 12.535 477.51 26.91 608.203 79.756 696.914 157.923 766.654a427.6 427.6 0 0 0 135.543 82.372c52.773 19.999 120.337 32.851 187.704 26.927 130.793-11.603 223.555-64.502 294.033-140.803a424.2 424.2 0 0 0 83.898-132.969c20.227-51.406 34.797-115.908 28.48-187.729-5.878-66.46-22.554-119.579-48.439-168.439-49.663-93.656-126.041-164.792-230.925-204.595-52.038-19.926-119.48-33.561-190.08-27.71-67.27 5.508-122.981 22.619-170.807 47.611zm186.014-37.575c66.756-3.892 131.405 11.358 180.798 31.578a416.3 416.3 0 0 1 129.348 82.372c69.792 65.065 129.054 160.655 133.879 289.952 5.142 137.082-51.035 235.218-116.933 305.35-68.053 72.286-164.489 125.528-291.657 132.308a417.8 417.8 0 0 1-180.872-31.577 440 440 0 0 1-129.25-82.225 399.4 399.4 0 0 1-91.611-120.73c-23.46-48.297-38.692-100.363-43.026-168.562-4.432-67.121 10.604-129.738 31.492-179.234a402.5 402.5 0 0 1 83.873-127.608A418.5 418.5 0 0 1 340.216 37.625a496.7 496.7 0 0 1 93.153-13.88m-3.82 6.193c-115.366 5.287-194.634 49.57-260.141 105.259C103.289 191.67 57.178 267.505 37.171 368.26 13.858 485.172 47.676 591.018 92.539 662.937c47.238 75.591 115.316 132.186 200.144 166.261a399 399 0 0 0 152.293 30.011c59.508 0 109.048-9.791 155.429-27.539a420.72 420.72 0 0 0 203.107-162.466c47.239-71.16 82.6-176.933 63.082-289.977-17.729-103.399-64.747-177.056-127.707-238.547-76.062-63.816-167.085-117.4-309.338-110.742" fill-rule="evenodd" fill="#00395b"/><path d="M173.792 270.296s10.359-20.269 15.281-23.647 10.04-2.154 12.097.196 1.689 8.641-.318 16.964-3.184 17.6-5.266 19.412-4.897 2.937-6.685 1.052-2.865-5.165-.979-9.791 3.796-7.148 3.893-13.194-.44-8.592-3.55-5.875-14.473 15.568-14.473 15.568zm-50.226-51.993c0 .93-1.641 1.836-4.457 3.427s0 7.882 2.277 15.813 6.882 17.331 9.796 17.38 3.11-5.067 3.207-10.403 1.862-14.369.981-16.695-8.18-9.791-8.18-9.791a29.8 29.8 0 0 1 12.685 5.336c6.881 4.896 6.636 6.144 7.004 11.04s-3.722 14.1-5.608 27.539-2.816 15.299-2.155 17.624 4.09 5.19 7.347 8.47 4.383 2.889 5.069-1.762.44-7.344-1.127-9.302-6.171-6.365-6.122-9.155a7.1 7.1 0 0 1 5.901-5.949 6.14 6.14 0 0 0 4.898-4.553c0-1.395 1.078-9.057.171-9.987a9.6 9.6 0 0 0-3.085-1.665s3.894-4.602 7.347-1.762 2.938 4.895 1.812 13.292-.637 11.823-.245 13.463 13.567 11.628 22.946 19.216 12.244 12.239 10.652 16.23a12.78 12.78 0 0 1-8.032 7.759c-3.747 1.077-15.6.172-16.75 0s-1.666 2.987-.808 6.952a47.9 47.9 0 0 1-.294 16.254 8.94 8.94 0 0 1-6.147 7.099c-3.281 1.567-2.449 2.277-5.363 0s-6.735-12.435-7.175-15.226.539-2.766 2.62-3.427 5.756 3.795 7.347 3.599 3.6-3.892 3.747-12.705a181 181 0 0 1 2.449-21.345 4.21 4.21 0 0 0-2.449-4.896c-2.057-1.2-3.233 0-4.433 2.448s0 6.046-1.812 9.791-4.016 4.333-7.077 6.144-4.652.612-7.175-3.133-4.702-7.98-6.098-7.784-1.444 2.986-3.159 6.683a16.44 16.44 0 0 1-9.648 7.49c-3.722 1.322-4.898 0-4.898 0a27.25 27.25 0 0 1 2.791-13.635 44.2 44.2 0 0 0 5.02-20.611c-.122-6.046-1.982-7.001-3.525-10.746s-4.482-10.306-9.184-20.832-7.101-18.922-5.559-27.514 2.449-8.323 4.898-8.053 9.649 6.217 9.649 6.217zm49.711 81.025a44.3 44.3 0 0 0-1.763 8.102c.221 1.396 7.665.368 9.281.147s3.723-.416 0-3.72-4.898-4.48-6.195-4.505zm56.568-134.291a89.4 89.4 0 0 0-9.574-11.554c-3.38-2.791-6.539-3.525-8.816-2.448s-3.061 5.189-1.984 8.494a10.5 10.5 0 0 0 4.677 5.189 121 121 0 0 1-.685 13.635c-.808 6.805-2.939 11.089.881 13.635s7.004 3.549 7.518.147a6.61 6.61 0 0 1 3.503-5.63c1.126-.196 7.345 6.878 7.59 8.078s-1.273 20.44-.416 22.741a8.92 8.92 0 0 0 5.853 4.43c1.371 0 2.203-9.057 3.404-11.994s2.302-2.228 3.673-2.889 2.13-4.504 2.669-8.837 1.053-8.812-1.836-12.753-6.441-8.054-6.441-8.054l-1.15-12.509-.883-1.591a10.7 10.7 0 0 0-1.689 5.435c-.294 3.623-2.302 2.227-4.09.367a8.4 8.4 0 0 1-2.204-3.892m-4.26-47.538a99 99 0 0 0 0 11.554c.44 1.811 11.876 22.471 14.08 27.49s15.281 23.254 22.946 27.465 10.579 5.41 15.354 5.043 15.673-12.46 19.861-18.286 4.897-9.474 4.897-13.096-.587-5.141-2.865-5.582-1.861 3.33-5.951 1.934a63.5 63.5 0 0 1-8.791-3.941 68 68 0 0 1 3.968 7.123c1.321 2.962 1.738 4.113-2.891 9.939s-5.436 10.599-14.056 9.987-11.484-6.56-17.681-16.792-15.403-29.008-18.243-34.515a19.6 19.6 0 0 0-3.306-6.438c-2.008-1.616-7.322-1.885-7.322-1.885m28.308-1.591a7.77 7.77 0 0 1 6.171-.808c2.915 1.175 4.506 4.186 4.188 9.179s-4.58 25.36-4.58 25.36a79.5 79.5 0 0 1-6.072-17.453 20.53 20.53 0 0 1 .293-16.278m101.945-25.336s-2.62 6.781-5.828 6.487-3.722-6.413-5.73-8.715-2.914-2.57-5.216-1.224-4.457 7.858-5.216 12.239 3.404 13.023 6.097 15.568a7.79 7.79 0 0 0 8.621 1.494c2.449-1.077 6.587-13.733 11.484-19.779s9.037-9.62 11.731-8.445 3.844 1.909 2.449 6.634a54 54 0 0 0-1.715 6.34s6.906-4.406 8.13-9.62 0-10.477-4.898-11.456-7.053.318-10.505 1.64a15.87 15.87 0 0 0-6.44 5.557zm12.27 24.993a9.5 9.5 0 0 0 .122-6.585 15.83 15.83 0 0 0-3.967-7.344 91 91 0 0 1-5.167 9.792 27.4 27.4 0 0 0-4.531 11.97 92 92 0 0 1-4.603 16.499l-3.796 8.592s5.289-.147 11.093-9.375a127 127 0 0 0 7.958-13.953s.467-.661 4.311 0 10.187 3.157 13.664.244 2.449-5.067 0-7.906-4.725-2.62-8.13-2.448zm12.709-15.006s4.897 4.406 7.738 4.015 4.408-5.85 6.906-5.581 2.669 3.916 2.816 7.784-2.449 7.099-4.898 11.089-6.782 10.061-9.599 15.495-2.302 8.812 1.347 11.138 6.661-1.689 9.477-6.414 6.734-10.795 6.734-10.795.49-2.448 1.298 3.892 3.991 18.923 4.604 23.255.784 6.83 3.037 8.25 4.162-4.26 6.023-6.952 2.302-1.787-.783-7.05a68.7 68.7 0 0 1-5.999-21.028c-.393-4.332-2.204-17.135-2.18-19.118s4.358-8.347 4.358-8.347-2.938-1.419-4.089-.979a4.56 4.56 0 0 1-2.718-.147s-.833-4.015-.147-4.896 10.995-10.403 14.399-13.684 5.045-5.312 1.519-11.26-5.339-6.683-5.339-6.683 3.306 6.193 2.106 9.351-6.759 8.151-9.795 8.396-3.379 0-4.286-1.591-1.64-24.356-.93-32.312c.453-4.302.526-8.635.22-12.949 0 0-4.457 3.549-5.852 4.455s-2.645 8.592-2.718 12.68-.932 14.687-.344 20.44.858 15.005.833 16.621-5.191 5.581-8.596 7.784a17.6 17.6 0 0 0-5.142 5.14zm134.76-34.099c-3.183 1.934-6.612 1.86-11.779 2.056s-11.167-.196-12.391 4.088 1.077 3.451 2.767 4.626 8.571 1.885 8.791 5.312-2.938 4.259-4.702 7.637-.661 4.896 3.65 4.896 9.525-4.406 13.59-8.347 10.139-5.826 11.584-6.952 1.713 1.469.538 3.721.49 2.889 2.205 2.619 1.199-2.276 4.896-3.917 4.335-3.647 6.368-3.623-1.126-1.444-4.898-1.224-3.452-.343-3.697-2.644 3.208-3.378 6.097-4.48a15.2 15.2 0 0 1 9.184-.979c2.277.906 1.958 2.448 6.268 2.448s4.58-4.504 7.029-4.455 2.449 2.619 3.036 5.777-.636 3.427-6.686 5.336a109.3 109.3 0 0 0-16.749 8.005c-2.033 1.126 0 2.301 2.449 4.896a14.5 14.5 0 0 1 3.354 6.071s7.151 0 12.881.808a56.3 56.3 0 0 1 17.363 5.924c5.975 2.913 11.068 6.022 9.305 8.837s-5.779 3.06-14.938 2.888-9.134-3.304-11.093-4.479 3.184-2.816 4.065-4.505.367-3.427-9.967-3.133-11.484 2.179-11.558 5.606 3.673 2.937 7.052 5.85a12.94 12.94 0 0 1 4.139 10.991 10.89 10.89 0 0 1-6.195 9.62c-4.041 2.448-10.089 4.896-10.996 7.54s1.959 2.032 6.245 3.256 5.975 1.248 8.228 3.304 1.101 3.452-4.408 6.512a28.7 28.7 0 0 1-16.089 3.72c-6.319 0-4.898-.367-3.723-1.786s2.645-2.253 2.645-4.896-.22-1.249-5.681-.759-15.477.881-16.04-.294-4.237-2.668-2.767-5.752 3.795-3.966 8.448-7.026 3.797-4.504 3.576-8.249 2.105-5.679 3.869-8.519a31.8 31.8 0 0 1 8.179-8.151c2.596-1.689 0-5.165-1.347-5.484a12 12 0 0 0-6.612.759c-2.889 1.102-9.795 5.851-13.003 6.365s-2.449-2.619-4.898-2.938-4.015.49-4.677 4.896.417 9.449.343 13.733a9.42 9.42 0 0 1-3.869 8.274c-2.449 1.689-8.204 5.899-10.775 5.85s-4.482-4.896-6.465-7.001-7.861-9.791-4.898-14.124 6.881-9.033 10.702-14.418 3.844-6.512 3.918-10.526-.172-6.291.71-8.274 3.257-5.092 2.155-7.123-3.453 0-6.049 0-5.95-2.693-8.497-5.018-3.037-5.239.172-9.18 6.684-4.455 16.162-7.344 13.835-5.189 20.154-5.092 7.101 2.693 7.101 2.693a9.28 9.28 0 0 1-3.771 5.777zm8.179 23.622c2.008 0 2.057-2.448 2.057-2.448s-1.984-1.909-3.134-1.077a24 24 0 0 1-4.066 1.934 17 17 0 0 0 5.143 1.591m-1.591 1.958c-1.592 0-.221 3.158 0 4.602a3.5 3.5 0 0 0 3.55 2.619c1.715 0 2.914-2.252 4.017-3.084s1.517-1.958 4.089-1.909-.539-1.738-1.102-4.039-1.959-1.469-2.865 0a27.7 27.7 0 0 1-4.041 3.941s-2.106-2.105-3.648-2.13m15.648 30.354c.245 1.445 0 0 1.958 2.62s0 0 1.323 0h1.519c.881 0 0-2.032 0-2.032v-3.133h-3.43s-1.64 1.101-1.37 2.545m-49.615 2.84s-3.158.808-3.183 2.252-2.033.808-2.057 2.252a169 169 0 0 0 0 3.721h6.294a6.9 6.9 0 0 1 0-2.57l.318-1.42v-2.864zm224.119 11.113a64 64 0 0 0-7.714-1.566c-2.865 0-9.575 6.683-13.909 9.791a146 146 0 0 1-15.06 9.474c-3.478 1.664-9.477-.172-15.183-1.714s-4.58.22-11.681-2.766-8.228-4.724-11.975-3.084-5.804 4.186-2.669 5.973a203 203 0 0 1 16.652 12.239c1.127 1.15 1.69 3.182-8.424 7.344a136.5 136.5 0 0 1-32.301 9.473c-12.047 1.787-21.524 2.766-23.239 2.742s-3.501 2.79-1.542 5.409 27.475 1.616 45.89-4.063 30.66-14.932 35.802-14.834 14.18 7.686 25.64 8.176 13.494-2.032 15.599-8.029-.979-8.592-.979-8.592a7.34 7.34 0 0 1-5.828 5.874c-4.898.515-11.731-1.542-12.539-4.602s6.44-7.49 11.093-11.725 9.796-7.564 12.245-10.379a3.746 3.746 0 0 0 .122-5.141m-49.834 48.077S676 197.569 678.082 209.05s3.33 22.961-.49 27.759-6.637 3.084-10.652 3.084-5.486-13.561-6.172-23.597-2.302-14.933-4.898-18.702-2.448-5.19 1.299-9.792 5.314-3.378 5.314-3.378m142.89 78.651c2.571 0 3.404.342 4.261 1.517s0 3.721 1.298 6.879 2.277 1.199 7.983 3.574 9.624 5.924 10.971 11.383.392 10.011-4.75 9.938-6.564-2.448-12.245-3.672-7.151-.979-7.175.171 6.22 5.263 9.795 11.334a14.68 14.68 0 0 1-1.861 18.31c-5.094 4.774-14.545.882-19.909-2.643s-11.558-10.502-18.44-10.918-6.366 3.892-5.534 5.337 6.783 5.581 7.346 9.791 1.298 8.347-2.448 8.274a10.53 10.53 0 0 1-7.959-3.574 8.06 8.06 0 0 0-8.13-2.448c-2.718 1.102-12.245 6.658-23.484 7.344s-14.841-2.448-18.784-6.047a82.3 82.3 0 0 1-10.946-12.508c-2.253-3.207-1.298-9.18-1.298-9.18a8.16 8.16 0 0 1 5.142 1.787c2.818 2.056 5.315 7.344 10.09 12.509s11.094 4.21 15.967 3.99 11.313-7.344 11.362-10.673-4.188-6.658-6.44-7.344-2.449-10.06-2.449-11.774.343-3.158 4.628-1.934 13.543 12.24 14.963 12.852 2.302-1.102 2.448-4.235.956-4.896 4.384-4.896 4.212 4.357 6.024 5.263 3.649-1.958 2.277-4.896-10.799-4.186-12.513-4.504-1.934-4.626 2.963-5.703 10.016 1.052 17.142 4.332 7.616 6.732 9.526 12.485a28.9 28.9 0 0 0 6.93 11.578c3.38 4.064 11.901 8.225 15.698 3.99s.734-9.13-5.118-18.139S781.056 283 776.746 282.34s-16.039-.27-18.905-.319-2.252-2.448-7.101-3.255-12.024-.221-16.898-.319-7.053-4.895-6.979-9.571 5.387-12.509 7.346-12.239 14.914-1.396 17.143-1.347 14.571 1.689 18.292 1.983 9.111 3.354 11.682 4.26 3.795-4.896 6.391-6.194a10.16 10.16 0 0 1 9.208-1.273c5.142 1.249 4.456 7.809 4.456 7.809a8.4 8.4 0 0 0 3.992 1.2m7.861 24.209c1.959 2.301 6.024 0 6.024 0a3.42 3.42 0 0 0 0-4.014c-1.396-2.448-7.959-3.28-7.959-3.28a13.5 13.5 0 0 0 2.008 7.294zm-72.339-22.912s-1.249 5.973 3.575 6.928 10.579 1.909 11.119 3.059 0 2.448 4.554 2.644 8.914-1.248 11.754.22a27.4 27.4 0 0 0 7.347 2.448c2.571.637 1.689 1.738 3.967 1.787s3.673 3.085 5.976 2.448 3.477-2.301 1.223-4.063-3.085-4.358-6.219-4.137-5.216 2.203-6.588 0-2.767-6.047-4.188-6.634.295-.857-3.11-2.056-.563-1.738-3.991-2.081-1.739 1.689-4.579 0a16.7 16.7 0 0 0-3.992-2.081h-9.991a17.1 17.1 0 0 0-6.857 1.518" fill="#00395b"/><path fill-rule="evenodd" d="M448.968 162.98a279.05 279.05 0 0 1 161.256 48.616c44.716 29.888 75.009 70.523 95.628 113.214 22.039 45.36 35.067 113.142 21.182 177.277-12.098 55.934-37.957 102.811-71.824 137.277-35.998 36.523-78.707 64.649-131.601 78.088-62.642 15.838-128.589 8.494-178.766-11.97-143.958-57.484-214.04-220.739-156.535-364.64a280 280 0 0 1 9.384-20.952 277.4 277.4 0 0 1 138.727-132.945c32.227-14.393 66.707-23.524 112.549-23.965m-69.793 17.136a263.64 263.64 0 0 0-130.351 78.773c-41.631 45.31-78.951 113.974-71.775 206.773a284.6 284.6 0 0 0 27.181 99.8 264.2 264.2 0 0 0 53.679 73.755c43.026 40.121 99.129 74.832 176.317 78.675 58.601 3.011 102.386-10.06 140.073-29.203 58.626-29.815 105.301-77.524 130.279-141.414 12.661-32.313 23.044-72.017 19.591-115.663-6.759-84.379-38.887-142.786-85.024-186.725-42.488-40.415-113.994-79.287-198.675-73.78a332.7 332.7 0 0 0-61.295 9.082z" fill="#00395b"/><path d="M406.799 227.874h87.35s-2.449 8.47-5.632 23.108a151.3 151.3 0 0 0-3.11 27.588h46.381s-6.368 20.121-6.539 95.002a279 279 0 0 0 20.301 106.337h-61.809s-7.346-29.081-11.631-51.186-5.486-35.592-5.486-35.592h-32.398a347 347 0 0 1-5.387 35.494c-4.384 22.031-11.731 51.284-11.731 51.284h-61.735s20.252-44.258 20.301-106.263c0-74.93-6.514-95.052-6.514-95.052h46.381a163 163 0 0 0-3.159-27.636c-3.134-14.59-5.583-23.084-5.583-23.084M231.511 509.43s89.897-8.983 153.763 20.391c50.74 23.329 65.286 56.571 65.286 56.571s13.738-32.557 65.825-56.62c64.257-29.693 153.224-20.342 153.224-20.342l19.591 33.585s-101.456-12.802-175.264 32.41c-25.174 15.422-42.585 45.041-42.585 45.041l-41.949-.244a134.9 134.9 0 0 0-42.438-44.723C317.319 530.604 211.97 543.26 211.97 543.26zm-19.689 45.311s91.024-8.739 154.89 23.597c41.214 20.881 55.49 54.319 55.49 54.319h56.764s13.225-33.365 54.953-54.319c64.992-32.63 155.231-23.548 155.231-23.548v10.379s-95.015-12.24-163.288 28.934c-26.375 15.911-40.7 47.244-40.7 47.244h-69.547a108.5 108.5 0 0 0-41.043-47.22c-62.984-40.463-162.603-29.374-162.603-29.374zM95.258 363.316c-.441 2.668.392 4.161 2.449 4.528l24.146 4.235c2.008.465 3.306-.661 3.918-3.427l1.127.196-2.449 14.687c-2.237 11.425-8.572 16.506-19.004 15.251q-15.794-3.28-13.835-20.489l2.596-15.153zm1.396 12.239a2.45 2.45 0 0 0-3.331 2.448q-1.886 9.792 13.126 12.24 14.497 1.861 16.211-6.977c.392-2.276-.196-3.427-1.739-3.427l-24.268-4.284zm5.411 61.393q-16.236-2.057-15.917-18.408c1.273-10.966 7.347-16.376 18.244-16.303q16.235 2.057 16.284 18.629-2.228 16.203-18.611 16.082m1.739-26.07c-10.334-.71-15.795 1.885-16.309 7.76s4.898 8.984 15.159 9.669 15.672-2.081 16.285-7.564c.123-5.63-4.922-8.935-15.134-9.865zm-17.142 29.424a6.6 6.6 0 0 0 1.224 3.427 3.5 3.5 0 0 0 2.914.881l23.24-.612c2.449-2.252 3.698-3.696 3.551-4.333h1.15l.27 10.379-20.472 17.65 14.693-.392c3.207.171 4.897-1.42 4.897-4.749h1.152l.269 10.551h-1.151c-.319-2.816-1.714-4.064-4.138-3.746l-28.628.759v-1.346l25.738-22.594-19.591.514c-3.355-.147-4.898 1.42-4.898 4.749h-1.151l-.294-11.114zm17.167 71.845q-.54-2.838-1.397-3.304a5.24 5.24 0 0 0-3.526-.343l-6.294.783a32 32 0 0 1-4.163-12.827q-1.47-16.67 14.692-19.803 16.58-.686 19.591 15.177a20.9 20.9 0 0 1-.832 7.466 11.3 11.3 0 0 0-.466 2.448c0 .881.956 1.493 2.449 1.811l.171 1.347-11.46 1.395-.122-1.126c5.975-3.721 8.815-7.931 8.497-12.68q-1.102-8.96-16.75-7.026c-15.648 1.934-15.264 5.109-14.497 11.457.318 3.573 1.665 5.067 4.065 4.528l5.143-.636c1.396-.172 2.253-.612 2.449-1.298a9.05 9.05 0 0 0 .269-4.088l1.151-.147 2.081 16.793zm-10.873 5.288a9 9 0 0 0 1.69 3.158c.842.55 1.892.675 2.841.342l23.068-5.189c2.449-.416 3.257-2.105 2.596-5.116l1.127-.245 3.354 14.81c1.739 8.274 0 13.022-4.898 14.295-3.623.808-6.563-1.175-8.79-5.899h-.196q.489 9.155-6.417 10.893c-5.828.906-9.795-2.864-11.999-11.285l-3.502-15.568zm6.073 11.309c-2.155.343-2.939 1.518-2.449 3.476q1.298 5.803 8.62 4.161c7.322-1.642 6.889-4.105 6.024-9.032l-.294-1.322zm13.321-2.986a8.9 8.9 0 0 0 2.841 5.654 7.34 7.34 0 0 0 5.779.27c4.114-.931 5.804-3.085 5.045-6.463q-.588-2.618-2.792-1.909zm18.856 15.446 8.89 26.927-9.33 3.059-.417-1.272a8.57 8.57 0 0 0 5.07-4.896 13.95 13.95 0 0 0-.882-8.201c-.588-2.643-1.69-3.574-3.331-2.766l-10.775 3.55a8.8 8.8 0 0 0 3.257 4.895 9.5 9.5 0 0 0 6.221.392l.342 1.102-15.696 5.14-.368-1.101a10.24 10.24 0 0 0 4.898-4.039 8.5 8.5 0 0 0-.344-5.949l-11.313 3.697c-1.91.367-2.449 1.982-1.248 4.895a12.685 12.685 0 0 0 12.243 9.523l.417 1.273-10.286 1.346-8.987-27.367 1.102-.368a7.36 7.36 0 0 0 1.984 2.987 3.19 3.19 0 0 0 2.865 0l22.456-7.344c2.449-.636 3.061-2.448 2.106-5.336zm-13.787 58.945-6.661-15.96 1.077-.441a9.3 9.3 0 0 0 2.278 3.011 3.31 3.31 0 0 0 2.865-.147l21.82-9.106c2.277-.832 2.816-2.717 1.591-5.679l1.053-.441 6.661 15.961-1.053.44-.147-.343c-1.2-2.839-2.889-3.745-5.069-2.668l-21.82 9.082c-2.301.832-2.816 2.766-1.517 5.85zm51.376 28.322a3.475 3.475 0 0 0-4.528-1.917 3.5 3.5 0 0 0-1.055.669l-13.689 7.808a14.47 14.47 0 0 1-9.526 2.326 14.22 14.22 0 0 1-7.591-6.732 16 16 0 0 1-2.621-10.012 10.07 10.07 0 0 1 6.147-7.466l14.179-8.102c1.568-.881 2.449-1.689 2.62-2.448s.171-1.787-.612-3.427l1.004-.563 8.277 14.516-1.004.563c-1.077-1.885-1.984-2.84-2.743-2.84s-1.959 0-3.649.979l-14.129 8.152c-5.632 3.06-7.225 6.707-4.898 10.942q4.481 7.81 13.468 2.277l13.028-7.344a4.14 4.14 0 0 0 2.763-5.158 4.1 4.1 0 0 0-.804-1.476l1.005-.587 5.314 9.351zM144.038 647.1a6.4 6.4 0 0 0 2.963 2.105 3.48 3.48 0 0 0 2.89-.906l18.831-13.659c.784-3.28.931-5.141.466-5.581l.93-.661 6.097 8.371-6.954 26.144 11.975-8.69a4.14 4.14 0 0 0 2.131-5.449 4.1 4.1 0 0 0-.809-1.209l.931-.686 6.22 8.543-.858.612c-1.884-2.129-3.721-2.448-5.534-.734l-23.166 16.817-.783-1.077 8.424-33.12-15.869 11.53a4.06 4.06 0 0 0-1.323 6.658l-.93.685-6.563-9.008zm32.692 43.645-11.289-13.096.882-.759a8.7 8.7 0 0 0 3.11 2.13 3.16 3.16 0 0 0 2.669-1.028l17.901-15.422c1.935-1.493 1.837-3.451-.245-5.875l.881-.759 11.29 13.097-.882.758-.245-.293q-3.012-3.477-5.656-.955l-17.902 15.422q-2.913 2.229.368 6.022zm48.487 3.427a4.9 4.9 0 0 0-5.975-.244L191.3 706.461l-.954-.955 11.656-29.546a4.53 4.53 0 0 0-.588-5.434l.832-.808 11.755 11.603-.832.832a9.5 9.5 0 0 0-2.866-2.031c-.441-.27-.979 0-1.616.563a12 12 0 0 0-1.885 4.088l-6.44 15.519 15.868-7.025a3.6 3.6 0 0 1 .685-.416 8.7 8.7 0 0 0 2.449-1.371 1.67 1.67 0 0 0 .539-1.91 9.3 9.3 0 0 0-1.911-2.692l.809-.833 7.347 7.344zm1.274-.514 22.04 18.041-6.221 7.564-1.028-.832a8.6 8.6 0 0 0 1.616-6.854 13.8 13.8 0 0 0-5.142-6.462c-1.911-1.91-3.331-2.081-4.286-.539l-7.175 8.788a8.63 8.63 0 0 0 5.436 2.448 9.2 9.2 0 0 0 5.436-2.987l.883.735-10.481 12.778-.883-.735a10.22 10.22 0 0 0 1.984-6.07 8.66 8.66 0 0 0-3.477-4.896l-7.542 9.204c-1.421 1.346-.907 2.913 1.542 4.773a12.69 12.69 0 0 0 15.452 1.469l1.029.857-7.934 6.658-22.285-18.261.735-.906a7.05 7.05 0 0 0 3.282 1.444 3.24 3.24 0 0 0 2.449-1.468l14.961-18.311c1.641-1.811 1.274-3.696-1.126-5.63zm34.455 66.95-8.326-5.556v-18.433l-1.127-.735-5.338 7.981a5.3 5.3 0 0 0-1.274 3.304c0 .563.687 1.518 2.253 2.864l-.661.979-13.542-9.179.637-.955c1.666.955 2.816 1.322 3.404 1.126a6.2 6.2 0 0 0 2.669-2.619l12.073-18.065a5.3 5.3 0 0 0 1.224-3.55c0-.661-.759-1.518-2.179-2.619l.637-.955 13.101 8.739q11.239 7.71 6.71 14.859-3.259 5.215-11.094 2.766l.514 17.135a2.87 2.87 0 0 0 1.078 1.885zm-8.424-26.021a11.2 11.2 0 0 0 6.759 2.668c1.641-.147 3.281-1.419 4.898-3.892 2.62-3.941 2.302-7.001-1.005-9.204-1.787-1.493-2.988-1.542-3.624 0zm40.921 17.478q1.811-9.155-3.968-12.582c-3.134-1.469-5.461-1.004-6.955 1.395a4.9 4.9 0 0 0-.759 3.305 13.4 13.4 0 0 0 2.449 4.431l4.506 6.486a9.79 9.79 0 0 1 .294 10.502q-5.388 8.004-15.452 2.79a23 23 0 0 1-5.069-3.941 11 11 0 0 0-1.666-1.37 1.544 1.544 0 0 0-1.983.44l-1.175-.661 5.73-10.232 1.176.661q-2.916 10.282 3.795 14.026c3.429 1.787 6.098 1.2 8.007-1.689 1.372-2.154.711-4.895-1.958-7.906l-1.984-3.109q-5.656-8.005-2.302-13.194c3.453-5.386 8.253-6.463 14.351-3.183a17.7 17.7 0 0 1 4.285 3.746 6.8 6.8 0 0 0 1.567 1.517c.784.441 1.518.196 2.18-.758l1.346.758-5.167 9.204zm10.504 31.26-15.623-7.344.489-1.053a9.6 9.6 0 0 0 3.723.71 3.33 3.33 0 0 0 2.008-2.032l10.139-21.345c1.15-2.154.293-3.892-2.596-5.288l.489-1.028 15.624 7.344-.49 1.028-.342-.147c-2.793-1.322-4.629-.857-5.56 1.396l-10.138 21.345c-1.151 2.154-.221 3.917 2.768 5.361zm25.665 10.085-16.334-6.242.416-1.077c2.204.71 3.502.881 3.943.489s1.519-1.273 2.204-3.06l9.257-24.234q-8.007-3.255-11.926 4.284l-1.25-.489 3.674-9.082 27.451 10.501-3.306 9.229-1.444-.563c1.542-5.434-.417-9.131-5.829-11.065l-9.28 24.235c-.687 1.786-.809 3.035-.392 3.745 0 .563 1.126 1.322 3.232 2.252zm50.643-18.678h-.172a4.37 4.37 0 0 0-3.478 1.053l-13.052 12.435-2.449 8.715a5.68 5.68 0 0 0-.22 3.721c.245.612 1.347 1.224 3.281 1.885l-.294 1.101-16.529-4.406.294-1.126c2.032.416 3.305.367 3.844-.147s1.347-1.371 1.812-3.109l1.886-7.05-4.506-18.114a4.58 4.58 0 0 0-3.036-3.574l.318-1.126 15.966 4.259-.294 1.126c-2.938-.905-4.408-.71-4.359.637a6.3 6.3 0 0 0 .197 2.227c.171.319.269.539.22.661l2.792 12.68 7.567-7.539a10 10 0 0 0 3.012-3.77c.489-1.322-.612-2.448-3.306-3.256l.294-1.126 10.383 2.791zm46.136 21.811q-2.744 16.132-19.077 15.079-16.335-2.57-15.501-18.898 2.766-16.106 19.297-15.47 16.04 2.938 15.281 19.289m-25.983-2.888c-1.151 10.33 1.2 15.862 7.053 16.645s9.183-4.406 10.334-14.687-1.42-15.74-6.882-16.621c-5.705-.367-9.231 4.528-10.603 14.663zm29.043-13.831 27.868.196v9.791h-1.151a10.16 10.16 0 0 0-3.037-6.364 13 13 0 0 0-7.665-1.763q-4.04-.44-3.673 2.277v11.334q6.907.613 7.542-7.344h1.347l-.123 16.523h-1.346q-.32-7.858-7.347-7.539v11.334a3.23 3.23 0 0 0 1.126 2.888 10 10 0 0 0 4.237.808v1.15l-17.68-.122v-1.151a7.54 7.54 0 0 0 3.453-.93 3.24 3.24 0 0 0 .979-2.692l.172-23.623c.146-2.447-1.323-3.671-4.409-3.696zm40.7-.489 27.672-3.305 1.151 9.791-1.127.123a10.23 10.23 0 0 0-3.795-5.924 13.3 13.3 0 0 0-7.861-.808c-2.693 0-3.821.979-3.355 2.717l1.347 11.261q6.954-.27 6.587-8.127l1.323-.172 1.959 16.401-1.323.171q-1.322-7.783-8.35-6.56l1.346 11.26a3.21 3.21 0 0 0 1.494 2.718 9.8 9.8 0 0 0 4.286.269l.147 1.15-17.558 2.081-.147-1.15a7.36 7.36 0 0 0 3.33-1.347 3.33 3.33 0 0 0 .636-2.79l-2.791-23.476c-.172-2.448-1.787-3.451-4.898-3.108zm52.331 25.678-16.97 3.256-.22-1.126a9.05 9.05 0 0 0 3.403-1.641c.558-.827.72-1.857.441-2.815l-4.383-23.206q-.515-3.645-5.217-2.717l-.22-1.126 16.995-3.255.221 1.126h-.392c-3.012.587-4.237 2.056-3.648 4.406l4.456 23.23c.318 2.448 2.13 3.305 5.387 2.668zm2.841-1.518a6.7 6.7 0 0 0 3.037-2.007 3.52 3.52 0 0 0 .171-3.035l-6.122-22.423c-2.791-1.91-4.457-2.717-5.044-2.448l-.318-1.102 10.015-2.741 22.039 15.691-3.917-14.345a4.16 4.16 0 0 0-4.401-3.909 4.2 4.2 0 0 0-1.354.311l-.319-1.102 10.212-2.644.295 1.102q-3.968 1.493-2.645 4.896l7.541 27.612-1.297.343-28.064-19.583 5.167 18.897a4.065 4.065 0 0 0 5.755 3.599l.318 1.126-10.75 2.937zm67.319-20.758-14.914 5.704-.391-1.077.514-.196c2.449-1.053 3.207-2.056 2.449-3.036a24.3 24.3 0 0 0-4.482-5.287l-10.236 3.917a19.6 19.6 0 0 0 .122 6.756q.563 1.443 4.335.587h.196l.416 1.077-9.355 3.574-.392-1.077c1.911-.734 2.718-3.084 2.449-7.099l.539-29.203 1.249-.49 19.591 20.318a26.4 26.4 0 0 0 4.677 4.161 2.94 2.94 0 0 0 2.816.367zm-18.121-5.41-9.013-9.522v13.072zm21.647 2.619a6.3 6.3 0 0 0 2.449-2.57 3.52 3.52 0 0 0-.416-3.011l-10.188-20.782c-3.085-1.322-4.897-1.787-5.411-1.371l-.514-1.028 9.28-4.651 24.66 11.089-6.611-13.243a4.14 4.14 0 0 0-6.343-2.448l-.539-1.028 9.478-4.725.514 1.028c-2.449 1.494-2.963 3.256-1.641 5.337l12.807 25.605-1.199.587-31.371-13.732 8.768 17.526a4.04 4.04 0 0 0 4.77 3.143 4 4 0 0 0 1.572-.695l.514 1.028-9.966 4.896zm58.527-38.799a17.13 17.13 0 0 1-8.032 13.219q-14.132 8.176-23.802-5.018-7.812-14.688 5.24-24.161a20.8 20.8 0 0 1 7.102-2.448 12.5 12.5 0 0 0 2.448-.563c.736-.489.931-1.517.564-3.084l1.126-.71 6.147 9.792-.98.636c-5.901-3.868-10.946-4.651-15.085-2.448q-7.64 4.896.736 18.164a21.24 21.24 0 0 0 7.518 7.98 9.14 9.14 0 0 0 8.693-.245q5.337-3.11 6.489-11.334zm-13.37-23.45 22.554-17.331 5.975 7.759-1.053.833a8.6 8.6 0 0 0-6.318-3.158 13.9 13.9 0 0 0-7.346 3.549c-2.302 1.445-2.793 2.791-1.494 4.039l6.906 8.984a8.6 8.6 0 0 0 3.648-4.724 9.4 9.4 0 0 0-1.69-5.973l.907-.71 10.089 13.121-.931.685a10.28 10.28 0 0 0-5.461-3.305 8.52 8.52 0 0 0-5.51 2.277l7.347 9.449q1.42 2.45 4.898-.441a12.65 12.65 0 0 0 4.898-14.687l1.077-.832 4.677 9.253-22.897 17.673-.709-.905a7.36 7.36 0 0 0 2.155-2.864 3.23 3.23 0 0 0-.882-2.718l-14.399-18.75c-1.372-2.008-3.282-2.057-5.731-.196zm69.498-44.87.808.808a3.28 3.28 0 0 0-1.028 3.818 72.4 72.4 0 0 1 2.129 10.428c3.821.514 6.246.123 7.347-1.15a3.3 3.3 0 0 0 .662-3.133l1.077-.27c.661 2.448.979 3.746.979 3.917a8.22 8.22 0 0 1-2.253 5.606 10.04 10.04 0 0 1-7.983 2.643 19.35 19.35 0 0 1-4.898 10.502q-6.61 6.216-12.488.954-4.897-4.894-1.249-14.687a12.54 12.54 0 0 1-6.833-3.207c-3.477-3.574-3.134-7.662.98-12.239 3.771-3.647 7.127-4.235 10.041-1.714 2.204 2.155 2.179 5.631 0 10.453l12.636 1.934a11.72 11.72 0 0 0-2.229-7.589c-.833-1.175-2.106-.881-3.796.833l-.832-.808zm-14.424 12.239a4.014 4.014 0 0 0-.465-5.287c-2.914-2.448-5.412-2.619-7.494-.881-1.151 1.175-1.052 2.448.319 3.794a12.25 12.25 0 0 0 7.64 2.374m-1.028 7.613c-.784 2.815-.491 4.896.881 5.973 4.898 3.378 9.159 3.745 12.661 1.102a8.13 8.13 0 0 0 1.714-4.504c-1.812-.172-4.897-.686-9.526-1.543a10 10 0 0 1-1.372-.244zm15.207-39.337 16.751-22.986 7.934 5.777-.809 1.077a8.6 8.6 0 0 0-6.929-1.248 13.9 13.9 0 0 0-6.148 5.507c-1.786 2.008-1.884 3.452-.293 4.309l9.159 6.682a8.65 8.65 0 0 0 2.155-5.581 9.4 9.4 0 0 0-3.307-5.263l.687-.93 13.346 9.792-.661.93a10.43 10.43 0 0 0-6.172-1.64 8.55 8.55 0 0 0-4.653 3.745l9.624 7.025c1.421 1.347 2.963.735 4.678-1.835a12.655 12.655 0 0 0 .587-15.496l.808-1.077 7.102 7.54-17.043 23.255-.932-.686a7.2 7.2 0 0 0 1.25-3.378 3.23 3.23 0 0 0-1.592-2.448l-19.101-13.928c-1.886-1.518-3.747-1.053-5.559 1.42zm58.429-40.513a17.13 17.13 0 0 1-.955 15.422q-8.668 13.879-23.386 6.683-13.738-9.279-6.637-23.818a21 21 0 0 1 5.143-5.459 9.7 9.7 0 0 0 1.812-1.616c.465-.759.147-1.762-.931-2.986l.686-1.151 9.967 5.777-.564.979c-7.027-.636-11.827 1.004-14.423 4.896q-4.506 7.81 9.109 15.691a21.3 21.3 0 0 0 10.383 3.574 9.09 9.09 0 0 0 7.567-4.161q3.259-5.215.465-13.048zm6.71-40.439c9.796 4.896 12.71 12.435 8.89 22.618-4.898 9.939-12.244 13.023-22.627 9.327q-14.695-7.344-9.16-22.961 7.494-14.54 22.897-8.984m-10.309 24.014q14.276 6.143 17.974-1.91 3.231-8.052-11.068-14.173-14.277-5.68-17.901 1.738-2.965 7.883 10.995 14.345m25.86-22.398a6.47 6.47 0 0 0 0-3.648 3.6 3.6 0 0 0-2.449-1.762l-22.235-6.83c-3.086 1.346-4.678 2.326-4.727 2.987l-1.101-.343 3.036-9.792 25.027-10.207-14.13-4.358a4.162 4.162 0 0 0-6.146 2.962l-1.103-.342 3.111-10.11 1.102.343q-.882 4.137 2.718 4.895l27.378 8.397-.391 1.297-31.591 13.219 18.734 5.752a4.094 4.094 0 0 0 5.608-1.417 4.1 4.1 0 0 0 .538-1.545l1.102.343-3.281 10.673zm2.938-74q15.868 4.087 13.494 20.244-3.92 16.082-20.13 13.904-15.867-4.088-13.837-20.513 4.262-15.79 20.473-13.635m-4.898 25.654q15.28 2.985 17.142-5.655 1.469-8.52-13.811-11.505-15.158-2.448-17.142 5.483c-.881 5.582 3.697 9.474 13.713 11.677zm25.273-71.895-1.274 16.23h-1.15a7.6 7.6 0 0 0-.711-3.501 3.51 3.51 0 0 0-2.816-1.175l-24.733-1.787v.172l28.823 14.418v1.346l-29.852 10.11 22.823 1.64a5.1 5.1 0 0 0 3.699-.685 5.36 5.36 0 0 0 1.64-3.746h1.151l-.833 11.309h-1.151a6.13 6.13 0 0 0-.685-3.696 4.5 4.5 0 0 0-3.013-1.003l-23.19-1.689c-2.301-.417-3.624.954-3.967 4.161h-1.151l.906-12.46 23.901-8.078-22.481-11.456.907-12.46h1.15c0 1.91.221 3.085.71 3.501a5.1 5.1 0 0 0 3.552 1.224l21.573 1.615a4.9 4.9 0 0 0 3.503-.514c.538-.342 1.028-1.517 1.42-3.549zm-.808-21.174.294 17.307h-1.151a9.4 9.4 0 0 0-1.028-3.648 3.28 3.28 0 0 0-2.694-.906l-23.631.417c-2.449 0-3.65 1.468-3.576 4.675h-1.151l-.318-17.282h1.151v.392c0 3.06 1.298 4.504 3.746 4.332l23.632-.416c2.449 0 3.624-1.542 3.575-4.895zm-9.306-35.494a17.14 17.14 0 0 1 8.204 13.096c.636 10.893-4.433 17.135-15.208 19.02q-16.53.392-19.223-15.544c-.08-2.49.267-4.974 1.029-7.344.279-.791.46-1.613.538-2.448q.001-1.37-2.449-1.909l-.122-1.322 11.485-1.102.123 1.151c-6.123 3.549-9.061 7.686-8.865 12.411q.857 9.008 16.53 7.515a21.2 21.2 0 0 0 10.53-3.133 9.06 9.06 0 0 0 3.672-7.858c-.244-4.088-2.644-7.736-7.198-10.893z" fill="#00395b"/><path d="M783.015 375.335q-8.154 4.479-7.126 11.113c.906 3.354 2.743 4.896 5.535 4.431a4.9 4.9 0 0 0 3.036-1.542 13.4 13.4 0 0 0 1.862-4.651l2.08-7.613a9.8 9.8 0 0 1 7.91-6.952q9.598-1.029 12.049 10.061a24.7 24.7 0 0 1 .22 6.413 9.6 9.6 0 0 0 0 2.13 1.59 1.59 0 0 0 1.616 1.273l.245 1.322-11.51 2.154-.269-1.322q9.796-4.359 8.327-11.921c-.834-3.746-2.964-5.435-6.417-5.043-2.449.343-4.139 2.448-4.898 6.56l-1.101 3.525c-1.69 6.316-4.555 9.792-8.645 10.232q-9.551 1.223-11.656-8.959a17.3 17.3 0 0 1 .122-5.679 8 8 0 0 0 .172-2.203q-.246-1.322-1.984-1.175l-.294-1.518 10.408-1.933zm-297.584 57.158h.563v16.254h-.563z" fill="#00395b"/></svg>