<svg xmlns="http://www.w3.org/2000/svg" width="336" height="336" viewBox="0 0 252 252"><path d="m63.258 57.137-1.832-4.332 4.988-4.086 3.875 2.66 2.746-2.242-16.531-10.691-2.922 2.371 7 18.5zm-6.484-15.242.047-.051 7.355 5.281-3.852 3.176zm-4.371 26.934L41.27 59.367l.047-.035 15.141 4.73 2.652-3.129-14.281-12.156-2.012 2.375 11.23 9.531-.051.047-15.254-4.777-2.645 3.102L50.382 71.2zm-32.84 72.586c1.215-.105 2.18-.477 2.898-1.102s1.289-1.426 1.73-2.383l.816-1.82.535-1.137c.184-.312.363-.598.547-.816.199-.215.414-.406.664-.527.242-.105.527-.18.855-.215.461-.047.895 0 1.23.121.371.121.656.301.902.551.258.238.438.539.559.863.148.32.234.68.281 1.066.078.91.012 1.723-.223 2.441-.191.719-.395 1.246-.582 1.605l3.063-.074c.465-.98.617-2.418.441-4.332a8.3 8.3 0 0 0-.555-2.434c-.309-.73-.707-1.363-1.23-1.891-.5-.527-1.137-.922-1.867-1.176-.73-.262-1.57-.348-2.504-.262a6.5 6.5 0 0 0-1.73.371 3.8 3.8 0 0 0-1.227.707c-.383.297-.684.656-.988 1.102a9 9 0 0 0-.801 1.508l-.941 2.109-.379.777c-.117.25-.293.48-.449.684-.168.203-.387.359-.621.504-.238.129-.551.203-.898.238-.637.059-1.187-.109-1.641-.516-.441-.395-.695-1.031-.773-1.879-.07-.805-.035-1.5.102-2.074l.371-1.508-2.859.098c-.074.273-.156.754-.277 1.434s-.133 1.523-.047 2.516c.07.781.238 1.535.52 2.219.281.691.648 1.305 1.121 1.793.492.516 1.059.875 1.719 1.141.656.273 1.414.371 2.238.297zm-.246-40.836c.648.91 1.484 1.688 2.527 2.371a12.7 12.7 0 0 0 3.516 1.555c1.336.383 2.605.551 3.852.516a8.7 8.7 0 0 0 3.363-.73 7.34 7.34 0 0 0 2.672-2.047c.754-.887 1.34-2.039 1.738-3.402q.341-1.259.465-2.371c.124-1.112.086-1.316-.012-1.715l-3.066-.668c.156.453.238.957.266 1.566.023.59-.086 1.309-.301 2.098-.211.684-.504 1.316-.93 1.855a4.1 4.1 0 0 1-1.609 1.281c-.629.324-1.437.504-2.336.551-.898.035-1.934-.105-3.113-.441-1.176-.324-2.133-.73-2.863-1.246-.766-.516-1.34-1.09-1.73-1.676a4.7 4.7 0 0 1-.695-1.953 5.6 5.6 0 0 1 .188-2.059c.238-.828.543-1.5.957-1.977l.988-1.152-2.922-1.016c-.234.301-.531.789-.93 1.414-.359.656-.68 1.449-.945 2.371-.375 1.34-.492 2.598-.293 3.758.188 1.164.582 2.207 1.215 3.117zm-2.687 21.988 15.988.801.168-3.437-15.984-.801.207-4.145-2.73-.156-.594 11.785 2.723.129zM40.372 88.95l-7.473-3.547 2.395-5.031 7.461 3.547 1.473-3.102-16.922-8.035-1.484 3.102 6.895 3.281-2.391 5.016-6.875-3.281-1.474 3.1 16.922 8.039zm7.93-14.375-15.775-10.13-1.855 2.887L46.43 77.461zm158.219 4.973 16.023-9.727-1.793-2.934-16.012 9.727zm5.137 10.238 19.453-2.477-1.461-3.234-14.766 2.383-.012-.035 11.598-9.391-1.508-3.379-14.777 12.84zM196.23 65.113l11.371-9.172.047.047-7.504 13.988 2.578 3.211 14.609-11.773-1.953-2.43-11.465 9.246-.023-.039 7.539-14.094-2.578-3.176-14.574 11.75zm22.023 48.348 8-.922.098.77c.07.609-.012 1.16-.23 1.641-.219.465-.707.848-1.422 1.172l-5.848 2.539.426 3.629 6.809-3.246c.41-.191.742-.383.996-.598.258-.191.465-.383.586-.574.133-.219.215-.398.25-.59a4 4 0 0 0 .09-.551l.086-.012c.281 1.031.844 1.859 1.695 2.434.848.598 1.871.824 3.09.668.859-.094 1.578-.309 2.152-.656a4.1 4.1 0 0 0 1.414-1.293q.485-.81.684-1.871c.109-.707.109-1.473.023-2.285l-.656-5.809-18.617 2.133zm16-1.832.168 1.379c.109.957.012 1.723-.273 2.301-.293.574-.977.91-2.039 1.051-.969.098-1.699-.105-2.227-.609-.539-.504-.852-1.211-.945-2.109l-.176-1.398zm-49.312-57.555c.426.691.965 1.34 1.648 1.926.656.563 1.375 1.008 2.117 1.316s1.5.445 2.336.398c.793-.039 1.594-.266 2.41-.707.824-.445 1.645-1.113 2.438-2.062l7.922-9.195-2.578-2.242-7.949 9.199c-1 1.176-1.906 1.832-2.66 1.965-.766.145-1.52-.109-2.262-.754-.758-.66-1.117-1.367-1.078-2.133q.019-1.165 1.555-2.922l7.93-9.187-2.613-2.25-7.926 9.188c-.805.945-1.359 1.844-1.676 2.719s-.426 1.699-.367 2.5c.086.805.328 1.559.754 2.242zm32.32 52.887 2.645-.707-1.773-6.457 5.332-1.461 1.621 5.855 2.617-.719-1.594-5.855 4.82-1.316 1.695 6.191 2.637-.719-2.59-9.508-18.094 4.934zm-83.379-89.285h.059l2.469 16.063 2.426.32 6.621-14.91h.066l-1.965 15.512 3.09.383 2.344-18.586-4.906-.625-5.687 13.367h-.062l-2.07-14.359-5.09-.648-2.359 18.586 3.09.398zm-38.32 14.961c.703 1.09 1.461 1.926 2.324 2.527.867.574 1.766.945 2.738 1.09a7.3 7.3 0 0 0 2.863-.121 7.1 7.1 0 0 0 2.574-1.223c.801-.574 1.438-1.34 1.902-2.25.504-.922.797-2.012.895-3.293.113-1.297-.051-2.742-.426-4.387-.414-1.625-.957-2.98-1.641-4.07-.707-1.078-1.484-1.902-2.344-2.504a6.5 6.5 0 0 0-2.723-1.125 7.7 7.7 0 0 0-2.863.133 7.3 7.3 0 0 0-2.582 1.223 6.16 6.16 0 0 0-1.91 2.262c-.477.91-.777 2.012-.891 3.305-.098 1.27.035 2.719.449 4.359.406 1.641.953 3.008 1.633 4.074zm1.594-10.48c.234-.598.535-1.09.941-1.449a3.15 3.15 0 0 1 1.414-.742 3.3 3.3 0 0 1 1.543 0c.535.133 1.043.418 1.508.875.488.441.91 1.051 1.32 1.902.418.805.789 1.832 1.09 3.09.32 1.258.477 2.348.488 3.258.012.922-.082 1.699-.293 2.289-.195.621-.508 1.113-.914 1.473a3.3 3.3 0 0 1-1.414.719 2.85 2.85 0 0 1-1.559 0c-.531-.121-1.027-.395-1.508-.84-.473-.453-.898-1.09-1.328-1.914-.422-.816-.77-1.859-1.078-3.102s-.492-2.336-.492-3.246c-.012-.922.086-1.691.281-2.312zm20.008 11.363-.551-8.035.777-.047c.609-.047 1.16.047 1.621.324.465.238.828.73 1.109 1.461l2.266 5.953 3.652-.254-2.937-6.957a5.7 5.7 0 0 0-.535-1.02 2.6 2.6 0 0 0-.57-.609 2.3 2.3 0 0 0-.547-.301 4 4 0 0 0-.562-.105v-.086c1.035-.215 1.887-.742 2.512-1.555.602-.816.871-1.832.813-3.066-.07-.863-.246-1.594-.559-2.18a3.9 3.9 0 0 0-1.254-1.449c-.516-.383-1.109-.637-1.828-.777-.695-.156-1.461-.195-2.277-.133l-5.832.383 1.277 18.707zm.285-16.152c.984-.086 1.738.059 2.293.383.559.309.895 1.004.953 2.094.074.945-.172 1.688-.695 2.191-.523.492-1.258.793-2.152.852l-1.402.094-.391-5.531zm57.996 26.656-5.469-2.887 7.477-14.152-3.043-1.605-8.754 16.574 8.527 4.492zm-91.73-.922-6.086-13.27.059-.023 11.727 10.695 3.738-1.699-7.816-17.043-2.836 1.293 6.137 13.379-.035.023-11.797-10.77-3.727 1.691 7.809 17.027zm68.293-6.348 2.738-3.809 6.09 2.098-.234 4.695 3.352 1.137.426-19.664-3.57-1.234-12.051 15.664zm9.598-13.508.051.023-.648 9.043-4.711-1.629zm-5.262 205.57c-.809.098-.809 1.125-.809 1.941l-.012.621c-.121 1.223-2.078 2.672-3.855 3.414l-.5.203c-.855.395-1.523.707-2.578.289-.48-.156-.918-1.02-1.012-1.93-.062-.68.105-1.234.484-1.461.172-.105.219-.059.316.051.211.215.438.332 1.301-.336.09-.062.102-.266.125-.684.023-.336.047-.73.137-.957l.301-.719.207-.492c.086-.777-.195-1.496-.781-1.965-.68-.527-1.605-.621-2.492-.285-1.316.512-2.508 1.613-3.57 2.574-1.059.969-2 1.82-2.824 1.902-.312.035-.547-.082-.742-.203-.207-.094-.387-.227-.57-.133-.281.109-.52.578-.809 1.547-.059.18-.059.551-.059.957.012.66.023 1.496-.266 1.75-.082.07-.195.094-.316.07-.137-.012-.211-.07-.281-.191-.266-.477.145-1.629.156-1.641.012 0 .082-.957.082-.957 0-.289-.023-.562.043-.805.379-1.34 1.531-1.734 2.762-2.141.621-.203 1.484-1.102 1.645-1.332.246-.477-.258-.898-.656-1.258l-.062-.035c-.684-.586-1.297-.684-1.887-.297-.488.309-1.059 1.039-1.719 1.902l-1.598 1.891-.18.18c-1.145 1.141-2.43 2.527-2.301 3.164a.43.43 0 0 0 .23.25c.539.203.965-.395 1.363-.91.293-.418.586-.777.805-.656.07.047.137.094.148.18.047.117-.035.332-.211.621l-.082.121c-.191.348-.402.656-.426 1.52-.047 1.246.246 1.496.684 1.918l.473.453c.227.238.27.648.305.922l.07.301c.309.285.523.238.684.203.137-.023.211-.047.305.082.242.336.219 1.164.051 1.281-.012 0-.027.039-.098-.059-.184-.215-.609-.109-.754-.07-.469.129-.574.516-.66.848l-.082.242c-.445 1.23.227 1.77.934 2.141.441.23.816.398 1.496-.035.602-.371.602-1.449.602-2.562v-.371c.012-1.031.105-1.926.238-2.453.195-.637.102-1.113.012-1.473l-.047-.555c.047-.691.418-.992.867-1.375.246-.191.508-.418.754-.73l.582-.73c.719-.91 1.281-1.629 2.328-2.324.34-.227.688-.586 1.012-.922.449-.457.922-.922 1.426-1.137l.098-.051c.422-.191 1.25-.562 1.555-.297.109.082.461.777.34 1.148a.3.3 0 0 1-.305.227c-.238.012-.273-.129-.34-.359-.035-.168-.074-.32-.223-.395-.262-.133-1.055.086-1.066.098-.305.059-.477.441-.73.898-.172.285-.359.656-.609.934-.934 1.055-.969 2.789-.562 3.977.504 1.363 1.293 1.797 1.766 2.082l.293.18c1.145.996 2.684 1.703 6.063.18 2.215-1.004 3.859-2.504 4.52-4.105.305-.746.07-2.566-.582-3.414-.262-.348-.551-.492-.902-.457zm52.547-34.262c-.41.238-1.629 2.539-2.504 3.52-.359.371-.637.301-.84.098-.73-.66 1.535-2.73.766-3.426-1.137-1.02-2.305-.648-3.242.633 0 0-1.066 1.629-2.195 2.945-.906 1.117-1.406 3.27-.383 3.68 1.066.418 1.949-.551 2.18-1.715.086-.383-.059-.43-.125-.777-.094-.418.234-.586.234-.816-.012-.715-.07-1.113.484-1.051.211.012.66.836.766 1.078.188.441.379 1.195.176 1.699-.719 1.762-1.766 3.473-1.035 4.418.172.219 1.238.324 1.645.133.457-.238.359-.672.664-1.605.129-.348.871-.777.977-1.078.242-.562.242-1.52.563-1.461.605.145 1.449 1.355 1.605 2.695.086.789-.023 1.699-.441 2-.156.121-.875 1.066-.324 1.738.648.742 1.379.645 1.773.43 1.691-.875 1.293-2.719 1.195-4.621-.047-.996-.43-2.051-.73-2.469-.477-.695-.258-.777-.516-1.031-.52-.465-1.004-.406-.992-.656.047-.805 1.055-1.414 1.227-1.629.258-.301 1-.934 1.156-1.57.27-1.234-1.605-1.414-2.082-1.16zm-7.582 1.195c1.281-1.437 2.145-3.027 2.898-3.949.398-.492.992-.875 1.363-1.402.422-.648.875.168 1.289.105 1.012-.191 1.934-.957 1.898-1.734.035-.492-.344-1.27-1.305-1.738-1.785-.871-3.152 3.09-4.211 2.77-.234-.062-.258-1.715-.223-1.391-.059-.945-.262-2.133-.887-3.113-.5-.793-.91-.719-1.387-1.031-.391-.238-.672-.586-1.191-.66-1.348-.152-1.996.875-1.961 1.762.039.957.805 2.613.266 3.234-.582.672-1.191.633-1.426.18-.324-.648-.383-1.988-.812-2.203-.23-.145-.781.215-1.098.801-.305.574.316 1.977-.414 2.266-.328.117-.754-.578-1.047-.504-.84.18.125 2.395-.391 3.016-.887 1.09-.766 1.797-.238 2.84.371.754 1.273 1.832 1.727 2.719.523 1.02 1.555 1.641 1.461 2.121-.098.527-.348.215-.672.621-.473.609.965 3.977 2.863 5.066.383.215 1.363.301 1.668-.25.547-.996-1.586-1.605-1.957-2.684-.289-.73 1.359-2.719 2.215-4.227.371-.695.789-1.75 1.57-2.613zm-4.109 2.695c-.336.133-.73-.633-1.297-1.184-.828-.793-1.91-1.797-1.816-1.977.145-.289 0-1.523.328-1.461.547.105 1.074 1.531 1.414 1.988.547.957.828.359 1.098 1.473.145.633.707.969.273 1.16zm.613-3.687c-.379.105-.512.297-.863-.156-.742-.98-.852-2.312-.492-2.777.777-1.055.742.707.789.934.164.492.949 1.914.566 2zm1.242-7.234c.277-.898-.023-1.125.23-1.52.34-.516 1.07-.371 1.629.094.516.445.867 1.223.5 1.641-.398.504-1.004-.094-1.293.156-.332.324-.203 1.113.324 1.078.469-.035.777.457.887.98.035.23-.168.695-.07.898.094.301.68.371.824.648.109.262-.34 1.066-.812 1.031-.758-.086-.613-1.523-.918-1.848-1.617-1.613-1.418-2.754-1.301-3.16zm.277 6.516-.227-.227c-.551-.191-.445-1.691-.395-1.75.781-.633 1.938 2.18.621 1.977zm-9.711 22.359c-.816-1.031-2.488-.621-4.254.516-1.043.656-2.324.848-3.09 1.039-2.371.625-4.301-.164-4.898-.012-.594.18-.262 1.668.234 2.359 1.402 2.016 5.441 1.199 7.828.398.926-.301 1.914-1.258 2.68-1.785.852-.574 1.715-.754 1.641-1.344-.082-.586.211-.73-.141-1.172zm-9.379-3.52c.551-1.043.586-2.242-.551-2.387-.406-.047-.582-.117-1.277.313-1.18.742-.676 1.258-1.473 1.785-.328.215-.754-1.305-.156-1.844 1.23-1.152 2.438-2.84 1.938-4.254-.402-1.148-1.086-2.082-2.559-.633-.766.754-1.754 1.832-2.262 3.57-.672 2.215-1.016 4.656-2.008 6.164-.637.961-.785.41-1.551 1.152-2.191 2.035-3.312 3.879-2.191 4.992.797.781 1.863.492 2.426.301.719-.238 1.117-.828 1.238-.457.137.398-.391 2.109-.629 3.477-.09.563-.574 1.832-1.305 2.813-1.211 1.664-1.559 2.227-1.156 2.73.484.586 1.301.492 1.984-.012.754-.562 3.285-4.73 3.957-9.258.094-.812.617-1.75.824-2.418.281-.898.066-1.473.523-2.098 1.41-1.867 3.52-2.586 4.227-3.937zm31.988-51.129-1.367 3.152 6.84 2.934 8.176 9.555 1.473-3.414-5.527-6.105 8.324-.395 1.484-3.402-12.492.648zm5.621-19.855 18.559 2.742.484-3.391-18.531-2.742zm19.949-13.148c-.187-.707-.48-1.355-.906-1.906-.387-.551-.914-1.004-1.543-1.352-.613-.336-1.355-.539-2.18-.562-1.23-.051-2.242.203-3.023.719a6.7 6.7 0 0 0-2.008 2.164l-1.035 1.715a18 18 0 0 1-.684 1.043 4 4 0 0 1-.656.742 2.1 2.1 0 0 1-.707.43c-.254.098-.535.121-.898.121-.449-.012-.852-.109-1.18-.289a2.5 2.5 0 0 1-.848-.656 3 3 0 0 1-.441-.937c-.113-.32-.137-.691-.137-1.062.035-.926.219-1.715.52-2.422.301-.684.563-1.172.793-1.52l-3.043-.289c-.594.898-.934 2.313-.996 4.23a8.3 8.3 0 0 0 .254 2.477c.207.793.527 1.473.977 2.047s1.012 1.043 1.715 1.391c.684.336 1.512.539 2.445.574.672.023 1.246-.023 1.754-.156a3.7 3.7 0 0 0 1.328-.539c.402-.25.758-.574 1.109-.98.34-.371.66-.852.992-1.391l1.199-1.961c.145-.277.301-.516.473-.746.164-.238.316-.43.523-.598.195-.18.418-.336.68-.441.258-.086.563-.121.906-.109.652.023 1.168.254 1.566.707.391.469.59 1.113.547 1.977-.035.801-.156 1.484-.348 2.035-.211.551-.418 1.043-.586 1.449l2.875.266q.14-.4.434-1.391c.223-.672.332-1.508.367-2.492a7.6 7.6 0 0 0-.238-2.285zm-5.82 23.855-15.477-4.047-.879 3.316 15.484 4.07-1.07 4.012 2.672.707 2.969-11.402-2.633-.691zm-85.367 69.797c-.312.273-.648.563-.648.992.023.539.223.973.527 1.176.227.168.539.18.863.059.465-.215.621-.73.789-1.293.113-.359.234-.707.422-1.043.262-.441.578-.562.91-.707.293-.105.598-.227.836-.574.234-.309.305-.656.211-.98-.137-.395-.473-.707-1.023-.91-.719-.238-1.02.215-1.219.527-.047.105-.125.215-.172.227l-.07-.035c-.426-.359-.254-.828-.086-1.328.074-.254.18-.492.203-.746.012-.32-.059-.562-.262-.691-.281-.191-.754-.133-1.426.203-.281.145-.504.43-.719.73s-.437.598-.754.813c-.84.516-1.391 1.102-1.816 1.57-.316.336-.555.609-.805.742-.195.082-.527.133-.902.203-.645.121-1.387.25-1.613.586l-.355.648c-.16.313-.305.66-.473.707l-.094-.023c-.289-.156-.129-.648.047-1.141l.059-.18c.227-.668.594-1.102.934-1.484.211-.238.391-.441.492-.656.18-.398.133-.781-.137-1.078a1.07 1.07 0 0 0-1.168-.277c-.742.277-1.691 1.738-2.121 2.613-.25.5-.414 1.039-.574 1.578-.156.563-.312 1.102-.594 1.594-.305.527 0 1.223.438 1.664.406.418 1.07.766 1.664.48.141-.074.176-.227.242-.418.105-.289.215-.684.801-.84.25-.07.484.082.742.301.301.227.637.477 1.125.297.516-.18.832-.898 1.113-1.52l.207-.457c.352-.754 2.227-3.449 3.016-3.832.383-.191.625-.238.742-.18.176.086.223.324.313.648l.059.262c.074.277.313.395.5.504.172.082.328.156.34.324.035.406-.258.656-.562.945zm-30.191 2.789c-1.176-.621-3.242.41-3.727-.336-.184-.309.359-.836.473-1.242.188-.672-.172-1.281-.695-1.449-.328-.133-.293-.578.129-.578.578-.012.859.086 1.449.195 1.09.18 1.734.168 2.5-.77.234-.297.168-.969-.238-1.328-.562-.492-2.391-.66-4.336-.766-2.07-.109-4.273-.336-4.754.383-.238.359-.719.742-.992 1.199-.391.656-.625 1.266-1.039 1.508-1.285.754-1.777 2.492-1.957 1.891-.145-.43-.742-.441-1.094-.551-.187-.059-.117-.527.07-.684.211-.152.234 0 .52-.082.781-.262 1.754-1.008 1.953-1.559.484-1.398 1.145-2.441.559-3.34-.5-.742-1.434-1.125-2.402-1.258-.492-.07-1.359-.059-1.906.133-.949.336-1.352 1.438-2.012 2.789-.27.563-.836 1.223-1.141 2.098a92 92 0 0 0-1.145 3.449c-.527 1.781-.695 3.051-.355 4.383.156.684-.137 1.617.84 1.734.766.109.594-2.848.941-4.168.168-.551.309-1.051.754-1.258.145-.07.273-.32.52-.176.246.129-.246.895.176.945.68.047 1.113-.781 1.629-.422.41.301-.254.984-.863 1.402-1.152.84-1.766 2.527-.316 3.031.629.227 1.43-.586 1.813-1.449.313-.66.266-1.102.574-1.617.203-.395.594-.457.91-.945.301-.469.551-1.031 1.008-1.57.539-.633 1.246-1.258 1.746-1.762.547-.562 1.008-1.102 1.605-1.437.574-.285 1.414-.453 1.875-.082.328.289-1.18 1.02-2.121 1.773-1.309 1.039-2.113 2.441-2.531 4.297-.168.742-.719 2.793-.238 3.281.32.375.641.504 1.102.492 1.184-.035.914-2.262 1.668-3.137.152-.191.309-.539.637-.348.328.215-.918 4.539-1.684 7.066-.539 1.723-.695 3.184-.91 4.563-.082.586-.156 1.137.684 1.363 1.18.313 1.832-2.227 2.238-3.82.324-1.305.91-3.242 1.535-3.891.668-.707 2.215-1.066 3.148-1.223.953-.141 1.832-1.207 2.391-1.605.777-.523 1.563-2.5 1.766-3.195.273-.98 0-1.496-.754-1.93zm-15.055-2.156c-1.25.277-1.641 1.188-1.855 1.703-.141.227-.434.117-.457-.133-.047-.562.023-1.57.574-2.262.695-.961 1.008-1.75 1.547-2.348.695-.781 1.555-1.043 1.73-.805.328.434-.559.852-.625 1.258-.184 1.125-.375 1.125-.73 1.641-.258.383.473.816-.184.945zm7.844 1.547c-.539.719-1.191 1.004-1.508.609-.203-.273 1.105-1.328 1.711-2.012.773-.848.906-.684 1.125-.477.266.238-.598.883-1.328 1.879zm3.922 4.992c-.73.398-1.156.566-1.598.48-.227-.059-.672-.645-.523-.91.379-.645.199-.945.379-1.305.316-.586 1.199-.312 1.742-.266.754.063 1.254-.203 1.254.359 0 0-.289 1.117-1.254 1.641zm-54.426-40.73c-.621-.656-1.801-1.113-3.078-.859-.824.191-.082 1.039.07 1.219.168.168.391.121.543.254.602.465 1.004 1.27 1.43 1.34 1.609.277 2.047-.898 1.035-1.953zm-22.121-34.875-4.699-.191-1.598-6.25 4.059-2.383-.891-3.437-16.668 10.453.938 3.68 19.711 1.449zm-16.551-.598-.012-.047 7.883-4.445 1.266 4.84zm60.176 54.695c-.258-.504.707-1.652-.695-1.687-.172-.023-.965-.156-1.227 0-.246.133-.672 1.039-.777 1.004-.648-.285-1.738-.801-3.258-1.242-1.461-.398-2.254-1.461-3.445-1.129-.496.156-.891.18-1.324.469-.766.504-.609 1.652.23 2.191.375.238 2.922-.109 3.898.145 1.152.273 2.32.621 2.422 1.102.039.25-.262.633-.73.969-1.723 1.164-2.574.563-3.508.551-.18 0-.133-.395.215-.562.445-.227 1.293-.301 1.32-.465.047-.207-1.281-.684-2.523-.793-.473-.047-.863.023-1.262.121-1.223.215-3.008 2.133-3.762 4.227-.598 1.727-1.426 3.043-.539 3.832 1.047.922 1.676-.238 2.469-2.18.465-1.102 1.512-1.687 2.082-1.988.234-.133 1.047-1.234 2.512-.238.051.047-.074.418-.512.395-.562-.023-1.305.301-1.449.598-.18.422.012.934-.07 1.477-.074.574-1.152.418-.422 1.531.051.082-.656.348-.91.168-.117-.086-.035-.324-.176-.359-.41-.18-1.078.742-1.187.836-.598.516-1.496.707-2.441.926-1.594.395-3.75 1.09-4.996 1.602-1.461.59-1.246 1.652.305 2.422.664.336 2.641-.457 3.598-.805.684-.238 2.145-.691 2.758-.527.656.191-2.23 3.449-2.191 3.953.082.875 1.328 1.906 1.961.84.266-.492.523-1.152.922-1.906.285-.586.816-1.172 1.121-1.676.461-.73.879-1.449 1.074-1.363.477.164.387.957.766 2.035.922 2.551 3.59 5.387 5.891 6.574 1.391.707 2.484.109 1.941-1.738-.125-.383-.211-.691-.293-.898-.27-.68-.281.063-1.613-.957-.348-.285-1.844-1.937-2.676-2.656-.375-.348-.977-1.27-1.348-2.145-.219-.562-.902-.875.289-1.402.719-.312.234-1.148.836-1.258.516-.082 1.477-.012 2.145-.156.777-.156 1.82-.719 3.055-1.137 1.172-.383 2.852-2.598 2.246-3.52-.437-.637-1.328-.937-2.426-1.641-.562-.371-1.801.297-1.168-.551.414-.59.496-.875 1.156-.898 1.012-.012 3.969 1.688 4.395-.023.355-1.367-2.121-.996-2.676-2.062zm-2.559 6.191c-.141 1.055-1.68 1.75-2.754 1.977-.402.07-.887.43-1.133.48-.652.141-.566-.191.066-.793.348-.348 1.125-1.113.652-1.664-.461-.562.379-1.914.809-1.496.805.754 2.41 1.246 2.359 1.496zm-39.531-55.617-2.512 1.09 2.68 6.133-5.078 2.203-2.422-5.57-2.52 1.102 2.426 5.57-4.582 1.977-2.555-5.883-2.512 1.094 3.922 9.027 17.195-7.473zm15.863 25.344s-.68-.578-1.027-.637c-.422-.121-.461.133-.824.145-.391-.047-.648.227-.789.527-.355.766.422 1.746 1.789 2.43 1.633.828 2.137-1.531.852-2.465zm3.52 7.484c-1.168-.66-2.035-1.152-2.258-1.855-.012-.062-.215-.805-.453-.937-.266-.117-.375.301-.797-.059-.414-.348-1.863-1.953-3.145-2.48-.547-.203-1.141-1.34-1.809-1.437-.66-.094-2.344.387-1.754 1.785.258.613 2.027.516 3.309 1.617.637.516 1.355.227 1.535 1.141.082.355-.121.309-.305.32-.109 0-2.449-1.172-4.578-1.687-1.5-.348-2.812-.648-3.383.695-.125.313.145 1.426-.719 1.113-.812-.289-2.164-.504-2.691-.109-.195.145-.852.77-.984.961-.684.848.434 1.641.098 1.914-.133.133-.965-.48-1.73-.66-.523-.117-1.109.41-1.336.684-.336.422 0 .539.766 1.293 1.238 1.234 1.809 1.449 3.738 2.445.398.191 1.152.695 1.398 1.125.277.48-.383.852-.949.539-1.168-.633-6.234-3.27-5.648-.383.133.684 1.137 1.629 1.496 1.809.422.215 1.676.418 1.738 1.043.07.719-1.91 1.281-1.594 2.477.203.781.633 1.367 1.145 1.113.832-.371 2.34-2.094 2.773-2.047 1.293.145 3.105 3.188 4.434 2.492 1.594-.793 1.422-1.953.941-2.289-.844-.609-2.281-1.363-2.922-2.047-.25-.289.266-.648.676-.875 1.023-.551 2.473 1.832 3.922 3.125 1.086.961.84 1.055 1.473 1.75.914.969 2.445.73 2.961-.863.203-.621-2.707-2.934-3.797-3.723-1.402-.996-2.215-1.27-2.238-2 .023-.816.992-.207 1.016-.18 1.223 1.195 7.113 1.973 6.957-1.738-.062-1.281 1.008-1.352-.172-2.324-.102-.082-1.449-.848-1.508-1.219-.066-.359.52-.949 1.129-.504.84.598 2.063 1.82 2.23 1.902 1.723.922 3.078-.777 1.035-1.926zm-11.266-1.75c.219-.777 3.797.059 4.145.684.203.383-.227.656-1.113.527-1.34-.18-3.246-.445-3.031-1.211zm-5.113 1.988c-.105-1.016 1.898-.719 2.215-.406.566.574-2.094 1.473-2.215.406m5.715 2.059c-1.012.695-1.402 1.652-1.77 1.594-.543-.082-.973-.551-1.461-.777-.867-.383-1.668-.625-1.754-.84-.168-.453.426-.07.863-.383 1.582-1.09 2.277-1.773 2.934-1.605.672.145.977.445 1.379.516.801.18 1.328 0 1.281.18-.023.133-.684.777-1.473 1.316zm5.953-.047c-.133.191-.988.383-1.176.91-.203.527-.336 1.031.125 1.367.258.215-.113.43-.641.563-.395.094-2.887.238-2.937-.422-.051-.477 1.094-1.734 2.305-2.117.348-.254.617-.934.957-1.055.574-.238 1.484.609 1.367.754m78.262-85.137 24.973 17.484v-7.75l-24.973-17.484zm-5.039-60.109c-42.824.07-77.477 34.707-77.559 77.547.082 42.824 34.734 77.473 77.559 77.543 42.832-.07 77.473-34.719 77.555-77.543-.082-42.84-34.723-77.477-77.555-77.547m49.016 71.316h-.012c.023 0 .023.012.047.012a4.9 4.9 0 0 1 1.188 6.77 4.87 4.87 0 0 1-6.762 1.184c-.012-.012-.012-.023-.035-.023l-3.348-2.359v7.75l8.922 6.25h-.012c.023.012.023.023.047.023 2.18 1.523 2.707 4.539 1.188 6.742a4.867 4.867 0 0 1-6.762 1.188c-.012 0-.012 0-.035-.012l-3.348-2.359v7.734l8.922 6.254-.012.012a.07.07 0 0 1 .047.012c2.18 1.531 2.707 4.551 1.188 6.742a4.86 4.86 0 0 1-6.762 1.211c-.012-.012-.012-.027-.035-.039l-38.402-26.887v7.605l39.102 27.391c.012 0 .031.012.043.012 2.176 1.535 2.711 4.551 1.18 6.742s-4.551 2.73-6.754 1.199c0 0-.012-.012-.012-.023l-33.559-23.5v26.23a5.043 5.043 0 0 1-5.043 5.043 5.05 5.05 0 0 1-5.039-5.043v-26.23l-33.559 23.5c0 .012 0 .023-.012.023a4.86 4.86 0 0 1-6.754-1.199 4.843 4.843 0 0 1 1.207-6.742s.012-.012.039-.012l39.078-27.391v-7.605l-38.414 26.887h-.012c-.012.012-.012.027-.027.039-2.191 1.531-5.195.992-6.746-1.211-1.52-2.191-.996-5.211 1.195-6.742 0-.012.027-.012.027-.012v-.012l8.922-6.254v-7.734l-3.359 2.359h-.012c-.016.012-.016.012-.027.012a4.85 4.85 0 0 1-6.746-1.187c-1.52-2.203-.996-5.219 1.195-6.742 0 0 .023-.012.023-.023l8.926-6.25v-7.75l-3.359 2.359h-.012s-.016.012-.027.023c-2.191 1.535-5.195.996-6.746-1.184a4.885 4.885 0 0 1 1.195-6.77l.023-.012 43.977-30.789v-7.75l-38.41 26.898h-.012s-.016.012-.027.023a4.837 4.837 0 0 1-6.746-1.195 4.84 4.84 0 0 1 1.195-6.73c0-.012.023-.012.023-.039l8.926-6.238V82.422a5.05 5.05 0 0 1 5.051-5.043A5.04 5.04 0 0 1 96 82.422v4.476l24.969-17.484V58.551c0-2.789 2.266-5.027 5.043-5.027a5.02 5.02 0 0 1 5.043 5.027v10.863l24.969 17.484v-4.476a5.043 5.043 0 0 1 5.043-5.043 5.04 5.04 0 0 1 5.043 5.043v11.543l8.922 6.238h-.012c.023.027.023.027.047.039a4.85 4.85 0 0 1 1.188 6.73 4.854 4.854 0 0 1-6.762 1.195c-.012-.012-.012-.023-.035-.023l-38.402-26.898v7.75zM96 145.645l24.973-17.488v-7.758L96 137.883zm0-19.582 24.973-17.484v-7.75L96 118.313zm35.055 2.094 24.973 17.488v-7.762l-24.973-17.484zM126.016 0C56.418.121.121 56.422 0 126.016c.121 69.605 56.418 125.891 126.016 126.012 69.59-.121 125.879-56.406 126.012-126.012C251.895 56.422 195.605.121 126.016 0m0 247.188c-66.93-.129-121.051-54.25-121.172-121.172C4.965 59.09 59.086 4.957 126.016 4.84c66.926.117 121.047 54.25 121.156 121.176-.109 66.922-54.23 121.043-121.156 121.172m85.297-121.172c-.082-47.129-38.191-85.238-85.297-85.309-47.121.07-85.23 38.18-85.301 85.309.07 47.113 38.18 85.207 85.301 85.293 47.105-.086 85.215-38.18 85.297-85.293m-85.297 82.383c-45.5-.082-82.309-36.875-82.402-82.383.094-45.5 36.902-82.328 82.402-82.398 45.496.07 82.316 36.898 82.398 82.398-.082 45.508-36.902 82.301-82.398 82.383m0 0" fill="#B70031"/></svg>