<svg xmlns="http://www.w3.org/2000/svg" width="232" height="232" viewBox="0 0 65.132 65.571"><path d="M31.342 65.533c-4.567-.139-9.153-1.303-13.377-3.396-.736-.365-2.613-1.402-2.95-1.63l-.686-.456a32 32 0 0 1-3.178-2.462c-1.832-1.637-3.191-3.09-4.4-4.704-.817-1.091-1.883-2.683-2.384-3.561a40 40 0 0 1-1.608-3.232l-.32-.748c-.268-.614-.961-2.684-1.252-3.739a35.7 35.7 0 0 1-1.15-6.938c-.079-1.328-.023-4.076.104-5.131.449-3.712 1.102-6.3 2.367-9.389.558-1.362 1.778-3.766 2.445-4.819.473-.747 1.428-2.07 2.139-2.965 1.419-1.787 3.569-3.963 5.243-5.307 1.43-1.148 3.184-2.321 4.466-2.988 2.217-1.153 3.572-1.736 5.546-2.389C25.717.566 28.806.051 32.401.003c4.538-.061 9.258.953 13.606 2.924 2.425 1.099 4.31 2.252 6.774 4.143 1.603 1.23 3.872 3.496 5.212 5.204 1.259 1.605 2.146 2.927 3.054 4.552 1.697 3.036 2.98 6.706 3.611 10.324.678 3.894.63 7.864-.143 11.819-.384 1.966-1.182 4.582-1.965 6.439-1.866 4.429-4.56 8.289-7.985 11.441-1.707 1.571-2.985 2.549-4.965 3.799-.405.256-.532.329-1.496.866a32.7 32.7 0 0 1-9.431 3.435c-.845.165-2.812.441-3.573.501-.618.049-2.473.133-2.659.121a124 124 0 0 0-1.101-.037zm2.43-.349c4.474-.115 9.415-1.428 13.564-3.606 4.923-2.584 8.968-6.233 12.007-10.832 3.068-4.642 4.858-9.773 5.361-15.372.091-1.015.126-3.56.062-4.528a33.1 33.1 0 0 0-2.798-11.487c-.455-1.037-1.375-2.782-1.935-3.669-1.53-2.423-2.997-4.253-4.955-6.179a30 30 0 0 0-3.214-2.776 33 33 0 0 0-6.855-3.94A32.1 32.1 0 0 0 31.965.324c-1.786.034-2.81.124-4.459.388a30 30 0 0 0-3.85.859c-2.982.875-5.522 2.006-8.039 3.576-.95.593-2.488 1.686-3.095 2.199-1.567 1.325-2.466 2.172-3.511 3.31-1.742 1.898-3.272 3.992-4.438 6.072-.547.976-1.523 3-1.669 3.461-.029.091-.188.512-.354.935-1.123 2.865-1.833 5.947-2.105 9.14-.083.971-.07 3.989.021 5.044.71 8.204 4.207 15.58 10.014 21.125a31.6 31.6 0 0 0 6.466 4.771 35 35 0 0 0 3.386 1.634c3.785 1.507 7.344 2.259 11.175 2.362l1.226.017c.103-.006.57-.021 1.039-.033m-2.098-.956-1.101-.125a23 23 0 0 0-1.384-.098c-.596-.022-.79-.043-.817-.087-.058-.093-.013-.147.225-.263a.66.66 0 0 0 .326-.288c.128-.224.137-.281.215-1.321.381-5.082.374-4.855.158-5.112a1.1 1.1 0 0 0-.331-.227c-.22-.097-.288-.205-.16-.254.034-.013.282.006.55.043a25 25 0 0 0 1.006.111c.285.025.532.053.549.064s.579.038 1.248.061c1.355.047 1.403.057 1.403.302 0 .076-.037.34-.081.588-.118.652-.269.752-.341.226-.074-.543-.271-.645-1.482-.767-.993-.1-1.174-.078-1.286.156-.062.13-.24 2.426-.2 2.584a.25.25 0 0 0 .105.146c.121.065 1.06.138 1.484.117.459-.024.614-.103.803-.41.166-.269.272-.267.269.006-.005.47-.12 1.71-.165 1.772q-.128.17-.242-.235c-.085-.306-.168-.443-.316-.519s-.615-.138-1.294-.171c-.523-.026-.562-.022-.632.055-.062.069-.088.261-.156 1.137-.093 1.199-.101 1.585-.037 1.705.125.235.788.333 1.661.248.824-.081 1.265-.233 1.652-.572.261-.229.339-.235.338-.025-.001.295-.425.868-.791 1.067-.263.143-.512.162-1.182.087zm5.505-.552c0-.05.07-.141.172-.221.302-.239.348-.505.206-1.18-.347-1.646-1.149-5.098-1.214-5.225-.092-.181-.294-.321-.463-.321a.8.8 0 0 1-.26-.06c-.265-.111-.175-.195.313-.293.194-.039.493-.115.665-.169.827-.26 1.903-.475 2.368-.475.596.001.986.149 1.35.513.709.71.682 1.86-.065 2.698-.114.128-.204.27-.204.321 0 .114.415.545 1.454 1.512 1.185 1.102 1.353 1.224 1.807 1.308.283.052.348.097.274.186-.061.074-.487.218-.755.255-.244.034-.703-.119-1.032-.343-.127-.087-.741-.66-1.364-1.274l-1.133-1.117-.404.023c-.474.027-.699.094-.806.239-.073.099-.074.123-.017.415.109.556.438 1.969.486 2.086.051.125.339.404.421.409a12 12 0 0 1 .384.052c.245.036.335.066.345.116.017.087-.129.144-.573.226a19 19 0 0 0-.914.207 9 9 0 0 1-.8.169c-.222.026-.239.022-.239-.058zm1.516-4.254c.482-.104.758-.232 1.012-.47.374-.35.497-.841.345-1.383-.164-.586-.446-.954-.9-1.175-.432-.21-.959-.231-1.546-.06-.25.073-.345.182-.345.397 0 .178.517 2.535.583 2.658.093.174.176.177.85.032zm-18.673 1.921c-.024-.044-.043-.236-.043-.426 0-.349.112-3.097.228-5.622.035-.754.052-1.455.037-1.558-.026-.192-.17-.485-.284-.58-.082-.068-.084-.235-.003-.266.034-.013.291.094.571.237a15 15 0 0 0 .792.38c.403.169.449.303.127.372-.26.056-.369.264-.411.788a223 223 0 0 0-.186 4.999c0 .666.016.662 1.049-.295 2.775-2.57 3.314-3.136 3.314-3.488 0-.057-.071-.18-.166-.288-.174-.198-.206-.297-.107-.335.033-.013.299.093.592.235s.614.289.712.328c.148.058.177.087.166.165-.011.074-.066.115-.242.179-.126.046-.26.102-.298.125s-.608.538-1.267 1.146L23.09 58.83l-1.051.973c-1.778 1.661-1.901 1.755-2.016 1.54zm27.437-1.451a7.4 7.4 0 0 1-1.068-1.015c-.063-.113-.065-.138-.012-.19s.097-.037.342.111c.626.377 1.062.494 1.592.427.521-.066 1.106-.375 1.396-.737.088-.11.201-.24.251-.289a1.4 1.4 0 0 0 .192-.291c.297-.593.233-1.234-.167-1.679-.305-.34-.444-.393-1.008-.39-.469.003-.488.006-1.08.221-1.362.494-1.44.515-1.871.516-.472 0-.738-.075-1.107-.311a2.02 2.02 0 0 1-.843-1.295c-.106-.65.261-1.506.855-1.996.542-.447 1.425-.897 1.759-.897.077 0 .13-.037.182-.125q.117-.197.28-.071a15 15 0 0 1 .899 1.016c.073.111.043.218-.06.218-.041 0-.224-.075-.406-.166-.757-.378-1.227-.378-1.999 0-.617.302-1.041.873-1.086 1.459-.027.364.064.637.303.902.387.43.834.484 1.639.196 1.532-.548 1.615-.571 2.102-.594.399-.019.499-.009.743.069.971.314 1.614 1.308 1.476 2.282-.097.687-.472 1.28-1.149 1.819-.501.399-.855.602-1.33.76-.437.146-.648.159-.827.05zm-34.091-2.329-1.37-1.054c-.201-.144-.23-.32-.053-.32a1.2 1.2 0 0 1 .27.048c.196.059.429.001.611-.153.067-.056.558-.674 1.092-1.374l1.692-2.213c.397-.518.756-1.011.8-1.095.114-.224.098-.38-.071-.681-.246-.439-.118-.522.264-.171a14 14 0 0 0 .799.637c.622.464.686.525.648.623-.02.051-.059.061-.16.043-.491-.09-.548-.085-.71.057-.085.074-.691.836-1.347 1.692-1.94 2.532-2.292 3.011-2.32 3.161-.043.227.011.464.15.657s.15.317.036.339c-.037.008-.186-.081-.332-.196zM31.03 55.58l-.665-.058c-.603-.052-1.37-.151-1.579-.204a7 7 0 0 0-.457-.086c-.541-.085-1.62-.409-1.869-.561-.192-.116-.252-.184-.374-.422l-.145-.283v-1.204l-.383-.198c-.457-.237-1.069-.404-1.478-.404-.258 0-.293.011-.375.111-.359.443-.86.777-1.171.78-.169.002-.485-.139-1.308-.584-.376-.203-1.468-.916-1.68-1.097a9 9 0 0 0-.48-.352 8 8 0 0 1-.889-.688 15 15 0 0 0-.524-.435c-.37-.292-1.81-1.72-2.101-2.083a45 45 0 0 0-.601-.727c-.835-.995-1.21-1.521-1.463-2.058a1.1 1.1 0 0 1-.134-.574.7.7 0 0 1 .149-.521 3 3 0 0 1 .384-.457l.234-.226v-.259a2.4 2.4 0 0 0-.369-1.106c-.199-.289-.459-.494-.586-.462-.206.052-.856.024-1.063-.046-.369-.125-.952-.587-1.044-.828a11 11 0 0 1-.178-.602l-.231-.831c-.189-.661-.38-1.782-.601-3.525-.123-.969-.154-2.781-.066-3.891.213-2.694.613-4.577 1.406-6.626.622-1.606.919-2.259 1.478-3.248.881-1.559 1.382-2.248 2.905-4.002.69-.795 1.996-1.996 3-2.761a4 4 0 0 0 .242-.196c.029-.029.382-.28.785-.559l.732-.507.358-.041c.503-.058.701-.019 1.024.202.148.101.282.184.298.184s.099.049.184.108l.156.108.324-.104.618-.19a2.8 2.8 0 0 0 .91-.549c.023-.022.052-.231.065-.465a5 5 0 0 1 .125-.814c.099-.381.108-.397.392-.685.265-.269.315-.301.561-.361l1.184-.3a21 21 0 0 1 3.427-.596c.96-.094 3.189-.095 4.092-.001.88.092 1.871.229 2.14.297.126.032.443.096.706.143 1.796.32 3.873 1.069 5.813 2.099a25.5 25.5 0 0 1 4.333 2.916c.591.491 1.768 1.672 2.338 2.347 1.254 1.485 2.481 3.321 3.162 4.731l.275.556a.68.68 0 0 1 .098.519c-.048.486-.13.654-.497 1.012l-.33.321-.032.385a4 4 0 0 0-.011.593 2.65 2.65 0 0 0 .442 1.142l.217.312.537.03c.47.026.566.044.768.145.134.067.251.159.279.219.081.173.341 1.842.408 2.617.183 2.109.09 4.396-.25 6.19-.285 1.507-.824 3.494-1.082 3.992a3 3 0 0 0-.142.344c-.241.692-.916 2.116-1.488 3.141a24.3 24.3 0 0 1-2.397 3.49c-.162.194-.38.465-.486.602a21 21 0 0 1-1.606 1.694c-.503.451-1.122.905-1.46 1.071a5 5 0 0 0-.623.377c-.847.609-1.532 1.053-1.9 1.231-.395.192-.416.197-.78.193-.305-.003-.409-.021-.561-.099a3.7 3.7 0 0 1-.85-.609l-.188-.191-.488.017c-.398.014-.531.035-.717.115a4 4 0 0 0-.879.609c-.114.128-.164.408-.154.857.006.327-.006.455-.059.555-.13.248-.827.759-.964.706-.03-.011-.416.052-.858.14a35 35 0 0 1-1.759.312c-.631.098-2.096.186-3.004.18l-1.171-.02zm3.739-.506a23 23 0 0 0 2.756-.493c.39-.093.754-.332.86-.564.098-.215.099-.296.016-.902-.061-.445-.192-.959-.273-1.063-.043-.056-.379-.812-.535-1.204a4 4 0 0 0-.204-.436.6.6 0 0 1-.088-.246c-.001-.164-.058-.222-.192-.194l-.327.064a2.4 2.4 0 0 0-.317.082c-.194.075-.835.168-1.324.191a9 9 0 0 0-.852.086c-.206.035-.668.081-1.028.102s-.689.058-.732.081q-.078.042-.219.001c-.077-.023-.636-.097-1.241-.165l-1.309-.166a25 25 0 0 0-.58-.106 5 5 0 0 1-.611-.145c-.359-.121-.502-.108-.623.055a14 14 0 0 0-.816 1.344c-.588 1.178-.782 1.967-.66 2.683l.033.194.424.13.528.168c.057.021.408.113.781.204.713.175 1.231.258 2.086.332l.665.061c.08.009.809.011 1.62.003 1.168-.009 1.617-.03 2.16-.097zm-12.004-2.543c.199-.101.606-.599.77-.941.064-.133.149-.291.191-.351s.152-.331.247-.602.205-.559.245-.639c.078-.156.291-.948.291-1.08 0-.099-.135-.23-.353-.342-.091-.047-.406-.235-.699-.418s-.592-.354-.665-.38-.188-.098-.257-.159a31 31 0 0 0-1.097-.903 11 11 0 0 1-.671-.575c-.125-.122-.349-.322-.498-.444s-.333-.298-.408-.392a21 21 0 0 0-.701-.761c-.885-.927-.912-.956-1.005-1.11-.048-.08-.19-.356-.315-.614s-.259-.48-.297-.495c-.089-.034-.384.068-.866.299-.541.259-.929.421-1.142.478-.44.116-1.32.62-1.693.97-.17.159-.176.315-.027.666.166.392.213.471.572.961.63.862 1.336 1.661 2.457 2.784 1.02 1.022 1.584 1.513 2.612 2.277.686.509 2.322 1.543 2.781 1.756.262.122.319.124.529.017zm-2.017-1.605c-.655-.143-1.026-.331-1.255-.637a.49.49 0 0 1-.126-.452c.013-.229.03-.279.128-.364.16-.137.308-.125.494.04.191.17.204.325.049.59-.172.293-.039.488.386.567.241.045.261.041.531-.085a2.11 2.11 0 0 0 1.096-1.422c.135-.8-.064-1.223-.661-1.399-.248-.073-.302-.144-.13-.169.247-.036.803.248 1.131.578.35.352.454.683.375 1.194-.098.63-.331 1-.805 1.278-.37.217-.921.344-1.214.28zm-2.395-2.481c-.382-.136-.781-.441-.911-.697-.119-.233-.2-.708-.158-.931a1.45 1.45 0 0 1 .939-.977c.509-.118 1.008.037 1.404.437.58.586.581 1.255.002 1.834a1 1 0 0 1-.498.304c-.319.099-.557.107-.777.029zm.466-.351c.233-.149.276-.201.512-.613.178-.312.192-.358.191-.623-.001-.346-.09-.565-.306-.754-.205-.18-.419-.183-.721-.009-.465.267-.715.8-.663 1.416.029.349.09.483.274.607.205.138.475.129.713-.023zm-2.695-2.098c-.053-.029-.169-.169-.259-.31-.122-.193-.208-.279-.35-.348s-.199-.126-.233-.229c-.07-.212-.014-.38.152-.459.202-.096.346-.037.46.189.05.098.113.206.14.239.117.141.371.033.788-.334.205-.18.678-.437.805-.437.133 0 .252.167.218.305-.014.054-.232.279-.493.507s-.583.527-.722.671c-.26.267-.338.299-.507.205zm26.991 6.47c.123-.055.246-.099.274-.099.077 0 1.122-.638 1.455-.888.16-.12.438-.32.617-.444.974-.673 1.425-1.068 2.71-2.371.77-.781 1.449-1.573 1.812-2.113.038-.057.157-.225.263-.374.951-1.328 1.924-3.064 2.492-4.445l.249-.602c.34-.82.889-2.616 1.125-3.677.314-1.414.482-3.076.48-4.737-.002-1.481-.086-2.436-.336-3.821-.1-.557-.144-.659-.313-.729-.232-.096-.802-.117-1.101-.04a17 17 0 0 0-1.566.566 1 1 0 0 1-.228.079.5.5 0 0 0-.171.061c-.065.034-.344.117-.62.185s-.532.153-.568.189c-.084.084-.081.383.009.852a7 7 0 0 1 .088.644 14 14 0 0 0 .068.665c.064.492.063 2.905-.001 3.494-.071.652-.231 1.502-.534 2.842-.06.267-.135.507-.416 1.329-1.095 3.211-2.975 5.843-5.699 7.977-.647.507-.916.698-1.455 1.037-.623.392-.84.5-1.006.5-.133 0-.406.133-.406.197 0 .018.049.105.109.193.295.434.857 1.85.99 2.496.081.392.232.731.36.807.244.146.627.332.712.346.159.027.375-.016.607-.119m.026-1.744c-.126-.065-.501-.507-.719-.848a4 4 0 0 0-.271-.367c-.168-.2-.191-.332-.076-.436.193-.174.621.05.828.434.23.426.427.704.534.753.099.045.119.038.212-.07a.27.27 0 0 0 .078-.275 1.5 1.5 0 0 0-.311-.67c-.247-.281-.379-.734-.258-.881.135-.163.391.001.668.43.27.418.523.76.589.796.223.121.388-.052.357-.374-.016-.167-.076-.289-.338-.684-.369-.556-.413-.652-.361-.788.04-.106.121-.151.272-.151.106 0 .17.07.587.644.15.206.396.49.549.633.275.257.276.26.214.372-.043.078-.126.133-.265.176a.6.6 0 0 0-.361.277c-.163.22-.499.432-.685.432-.12 0-.281.132-.436.356a.9.9 0 0 1-.247.246.68.68 0 0 1-.561-.003zm3.486-2.458a12 12 0 0 1-.513-.551c-.288-.32-.546-.565-.672-.638-.325-.189-.312-.418.037-.668.098-.07.227-.202.286-.294q.215-.33.367-.401a3 3 0 0 0 .187-.099c.144-.083.337-.076.7.026.372.104.584.236.679.42.256.499.292.708.177 1.035-.083.238-.31.57-.411.603-.044.014-.194.144-.332.288q-.363.379-.505.278zm.561-.825c.107-.09.128-.137.128-.289 0-.468-.217-.887-.55-1.065-.314-.167-.666-.049-.721.242-.046.244.042.427.402.835.298.339.355.384.476.384a.42.42 0 0 0 .265-.108zm2.371-1.139c-.117-.117-.109-.334.019-.472s.286-.142.424-.003c.086.086.101.132.081.237-.057.285-.345.416-.523.238zm-.852-.611a4 4 0 0 1-.486-.391 4.5 4.5 0 0 0-.589-.452c-.299-.169-.338-.219-.292-.379.027-.094.078-.145.192-.19.145-.058.168-.056.347.031.105.051.271.16.369.243a14 14 0 0 0 .478.379c.54.41.542.412.542.558a.3.3 0 0 1-.076.204c-.096.087-.323.086-.485-.002zm1.226-1.122c0-.066.022-.142.049-.169s.041-.055.031-.062l-.255-.188c-.13-.097-.249-.175-.262-.175s-.123-.079-.242-.177c-.259-.211-.531-.352-.742-.384a.46.46 0 0 1-.218-.088c-.065-.065-.084-.247-.038-.367.032-.084.23-.189.358-.189s.638.249.842.414c.091.074.25.183.353.242s.252.16.331.224l.144.116.113-.109q.241-.229.243.133a3 3 0 0 0 .085.525c.047.184.078.341.069.35s-.116-.014-.239-.05c-.219-.065-.308-.057-.57.052q-.052.02-.052-.098m.58-2.06a4 4 0 0 1-.395-.193c-.454-.254-.538-.291-.744-.33-.113-.021-.229-.072-.259-.112a.324.324 0 0 1 .034-.395c.138-.138.423-.092 1.006.164.27.118.551.215.623.214.182-.001.329-.084.397-.224.112-.232-.106-.492-.576-.687-.628-.261-.872-.442-.872-.645 0-.113.122-.229.24-.229.097 0 .4.11 1.006.364.217.091.479.179.582.196.237.038.291.083.291.242 0 .09-.043.172-.145.277-.125.128-.154.198-.212.511-.127.685-.511 1.019-.973.847zm1.174-2.794c-.157-.11-.191-.23-.221-.766-.032-.576-.05-.65-.17-.688-.269-.085-.578.147-.682.513-.086.301-.113.328-.22.221-.14-.14-.142-.578-.003-.892.32-.723 1.289-.919 1.952-.395.58.458.619 1.375.079 1.837-.254.217-.565.29-.735.171zm.694-.749c.28-.236.046-.723-.347-.723-.138 0-.239.157-.263.407-.014.156 0 .218.072.309.123.156.357.159.538.006zm1.257-2.398c-.127-.135-.115-.301.031-.447.155-.155.26-.153.394.006s.137.304.006.435-.311.133-.431.006m-1.42-.05c-.194-.03-.535-.072-.757-.093s-.432-.063-.467-.092c-.108-.089-.079-.303.059-.435q.224-.215.771-.106c.455.09.953.163 1.126.165s.249.054.346.242c.115.222-.093.385-.483.378a6 6 0 0 1-.594-.059zm.716-1.725a.3.3 0 0 1-.139-.137c-.053-.117.048-.348.258-.588q.328-.373-.385-.577c-.299-.086-.527-.086-.751.001-.507.196-.681.522-.489.919.109.226.105.259-.032.259-.167 0-.325-.17-.401-.431-.088-.302-.084-.372.039-.693.199-.522.6-.809 1.121-.803.77.009 1.337.532 1.381 1.276.022.376-.05.596-.238.724-.147.1-.217.11-.364.051zm-1.508-2.942a1.5 1.5 0 0 1-.255-.198 2.2 2.2 0 0 1-.31-.692c-.028-.172.074-.487.22-.678.241-.316.638-.078.638.382 0 .114-.036.179-.168.309-.143.14-.161.177-.123.248.105.196.351-.001.397-.317.016-.111.063-.278.104-.371.089-.198.443-.544.597-.582.461-.116.978.428.979 1.03 0 .208-.153.604-.254.659s-.353-.02-.411-.128c-.073-.137-.046-.35.063-.498.116-.157.135-.338.043-.414s-.271.12-.273.298c-.001.199-.168.573-.354.796-.251.301-.579.358-.893.157zM26.24 52.314c.022-.028.138-.286.258-.571s.261-.585.313-.666c.1-.154.356-.713.356-.778 0-.021.073-.14.161-.263a3 3 0 0 0 .256-.426 1.7 1.7 0 0 1 .279-.388c.169-.172.182-.199.157-.339-.073-.403-.423-.765-1.013-1.047-.488-.233-.813-.337-1.133-.361-.235-.018-.31-.005-.509.086-.146.067-.247.143-.27.203-.042.11-.002.427.071.56.027.05.049.139.049.199 0 .127-.371 1.163-.636 1.775-.34.786-.448 1.087-.436 1.216.013.122.021.128.262.154.399.043 1.125.333 1.537.615q.214.146.299.034zm12.722-.22a7 7 0 0 1 .797-.311c.462-.155.675-.206.86-.206.302 0 .358-.053.345-.328-.02-.445-.542-1.535-1.026-2.141-.28-.352-.304-.521-.119-.841.169-.291.129-.439-.166-.611-.222-.13-.327-.134-.76-.026-.772.192-1.239.436-1.58.825-.383.438-.394.593-.052.779.254.138.349.284.455.699.112.438.282.969.352 1.099.032.059.154.313.271.564.214.459.308.604.392.603a1 1 0 0 0 .229-.105zm-5.356-2.013a25 25 0 0 1 1.101-.105c1.039-.081 1.67-.168 1.788-.246.084-.055.092-.095.095-.499.005-.563.063-.699.49-1.133.273-.278.393-.364.73-.528.222-.108.423-.184.447-.169s.043.009.043-.011.07-.058.156-.084l.52-.158c.341-.104.38-.108.602-.058.255.057.321.112.728.604.22.266.331.349.467.352.098.002.705-.337 1.099-.613l.457-.315c.742-.499 2.231-1.836 2.968-2.664 2.34-2.631 3.74-6.004 4.113-9.913.071-.741.09-2.333.03-2.491a1.2 1.2 0 0 1-.018-.382c.023-.288-.09-1.236-.164-1.377-.037-.07-.075-.075-.388-.05-.483.039-.625-.008-.96-.32-.229-.214-.308-.325-.459-.646-.328-.7-.418-1.061-.442-1.772-.037-1.114.095-1.527.566-1.77.181-.093.191-.155.07-.428a19 19 0 0 0-.926-1.687c-.786-1.177-2.083-2.718-2.821-3.351-1.734-1.488-2.969-2.283-5.058-3.255-.752-.35-.792-.365-1.568-.603-.971-.298-1.428-.389-2.815-.56a18 18 0 0 1-.665-.095c-.392-.066-2.166-.064-2.742.005-1.559.184-1.866.236-2.555.433-.42.12-.865.343-.919.462-.032.07-.026.162.022.347.101.388.085.576-.075.91-.25.521-.505.74-1.202 1.031-.741.31-1.138.405-1.777.429-.681.025-.976-.038-1.119-.239-.121-.17-.429-.346-.543-.31a1.8 1.8 0 0 0-.344.242l-.564.463c-.538.434-1.963 1.88-2.41 2.446-1.595 2.017-2.841 4.598-3.536 7.322a29 29 0 0 0-.54 3.354 25 25 0 0 0 .087 2.875c.18 1.312.512 2.66.692 2.809.047.039.21.055.552.055h.486l.364.184a2.66 2.66 0 0 1 1.319 1.469 1.5 1.5 0 0 1 .123.697c-.006.707-.176 1.216-.542 1.63-.123.139-.213.281-.213.335 0 .101.362.664.71 1.106.221.28.983 1.116 1.153 1.265a23 23 0 0 1 .457.431c.198.19.528.485.733.655l.559.464c.249.209.414.327 1.147.823 1.12.758 1.336.809 1.407.334.06-.398.289-.562.91-.652a1.85 1.85 0 0 1 1.062.084c.949.312 1.594.736 1.829 1.201.106.211.21.65.231.982l.014.175c.008.061.15.1.858.237a20 20 0 0 0 1.807.272l.561.061c.2.027 1.512-.016 1.807-.06zm8.744-6.077q-.179-.154-.184-.667a.8.8 0 0 0-.075-.326c-.067-.114-.896-.855-3.667-3.274l-1.519-1.332-.742-.638-.246-.199-.335.027a9 9 0 0 0-1.249.181c-.411.094-2.165.111-3.178.032l-1.31-.085-.541-.025-.165.122c-.32.236-.726.617-1.397 1.311-.373.386-.75.747-.838.802a.6.6 0 0 0-.223.254c-.09.218-.169.293-.363.343-.139.036-.265.142-.689.579-.286.294-.594.594-.686.666s-.391.334-.665.582c-.96.871-1.109.989-1.484 1.182s-.503.213-.645.095c-.15-.124.033-.717.324-1.049.116-.132.242-.29.28-.35.178-.28 1.253-1.46 1.971-2.164.324-.318.429-.451.529-.674.069-.153.152-.293.184-.312.165-.094 1.521-1.702 1.521-1.804 0-.02-.058-.097-.128-.171-.132-.138-.381-.634-.454-.903-.05-.187-.133-.23-.602-.311-.634-.111-4.17-.059-4.775.069-.326.069-.38.152-.414.635-.032.457-.106.668-.317.909-.167.191-.356.288-.69.357-.281.058-.411.035-.535-.095-.307-.322-.483-.561-.539-.728a1.5 1.5 0 0 0-.199-.366c-.288-.37-.572-.819-1.117-1.768-.72-1.253-.74-1.35-.373-1.848.13-.177.62-.569.868-.694.365-.184 1.906-.532 2.669-.602l1.175-.113a7 7 0 0 1 1.08-.042l2.543.148a15 15 0 0 1 1.267.102l.641.107c.37.06.914.27 1.063.41.106.1.443.709.536.966.048.135.416.349.792.462.453.136.41.149.71-.206.331-.391.455-.566.455-.642 0-.031-.322-.337-.715-.679l-.945-.831c-.126-.115-.361-.32-.521-.455s-.413-.359-.561-.497a91 91 0 0 0-2.035-1.77 9 9 0 0 0-1.515-.957c-.507-.243-.97-.327-1.799-.328-.47-.001-.544.011-.96.145-.59.191-.796.227-1.02.179-.231-.049-.546-.353-.609-.588-.09-.333.111-1.001.439-1.462a13 13 0 0 1 .564-.671c.24-.27.509-.584.599-.699.344-.438 1.795-1.83 2.382-2.285 1.197-.927 1.497-1.106 2.117-1.257.39-.095.447-.1.673-.052.354.075.487.168.545.383.056.207.026.651-.062.915a6 6 0 0 0-.132.617c-.069.412-.069.477-.006 1.045.041.378.097.673.147.786.085.193.398.562 1.399 1.653l.972 1.08.855.958.778.872c1.222 1.421 1.358 1.559 1.498 1.523.055-.014.195-.155.325-.327.126-.166.435-.508.686-.76.565-.564.904-.951 1.164-1.329a7 7 0 0 1 .519-.633c.175-.188.377-.452.449-.586s.215-.353.318-.486c.296-.381.317-.575.148-1.348-.073-.333-.053-.569.068-.823.094-.197.114-.3.12-.614.013-.565.134-.743.541-.791.153-.018.264-.001.452.07.364.137.627.147.827.03.089-.052.22-.166.291-.254.114-.142.129-.192.134-.447.006-.323.048-.398.242-.435.185-.035.516.137.695.36.161.201.293.265.414.2.104-.055.23-.332.265-.58.06-.423.174-.58.421-.58.146 0 .493.357.628.647.175.376.198.411.271.425.09.017.663-.529.788-.751.049-.087.13-.168.18-.181.175-.044.473.191.679.535a1.87 1.87 0 0 1 .165.964c-.051.274-.02.325.177.291.337-.057.478.184.437.746-.013.184-.074.494-.135.689s-.109.419-.105.499c.029.766.021.894-.068 1.065-.049.094-.15.222-.223.283-.154.13-.834.48-.932.48a.49.49 0 0 0-.309.352c0 .06.068.311.151.557.17.504.169.662-.008.872-.182.216-.448.315-.828.306a2.8 2.8 0 0 0-.582.051 5 5 0 0 1-1.267.167c-.582.013-.728.051-1.288.332-.355.179-.502.294-1.267.994a28 28 0 0 1-1.537 1.298 7 7 0 0 0-.701.656c-.268.294-.321.374-.291.439.02.044.203.267.408.496.424.474.424.474.891.316.336-.114.606-.262.743-.41.08-.086.088-.119.052-.214-.076-.199-.048-.341.113-.579.258-.382.876-.733 1.568-.892.77-.176.998-.19 3.199-.192 2.442-.003 3.885.072 4.835.251.685.129.994.274 1.464.689l.336.296-.019.191a1.1 1.1 0 0 1-.145.399c-.07.114-.14.252-.156.306s-.131.25-.256.436a9 9 0 0 0-.876 1.77c-.364 1.006-.599 1.351-1.086 1.59-.333.164-.526.169-.819.02-.16-.081-.481-.362-.521-.456a18 18 0 0 1-.034-.538c-.036-.641-.055-.672-.454-.733-.478-.073-1.695-.095-2.624-.047-1.163.059-1.426.096-1.961.274l-.444.147-.073.195c-.041.11-.171.298-.298.432-.178.188-.22.257-.201.334.014.053.216.312.451.576l.884 1.01.789.916.614.73a21 21 0 0 0 .569.659 18 18 0 0 1 .563.657c.152.188.396.436.542.55.255.2.275.208.528.208.243 0 .273.011.391.135.309.327.293.506-.095 1.017-.207.273-.37.399-.652.503-.307.114-.455.113-.592-.005zm.646-.279c.377-.192.674-.604.597-.826-.072-.206-.186-.161-.635.25-.336.307-.419.406-.419.497 0 .181.193.214.457.079m-19.956-.883c.166-.121.869-.729 1.212-1.049a11 11 0 0 0 1.121-1.355c.109-.181.12-.402.022-.439-.047-.018-.116.025-.218.139l-.507.557-.497.559a15 15 0 0 1-.434.48 8.5 8.5 0 0 0-.757.924c-.204.276-.178.357.058.185zm19.143-.733c.013-.02-.225-.313-.527-.651l-.921-1.054c-.481-.571-.711-.83-2.478-2.789L35.6 34.667l-1.783-1.975-2.183-2.428-2.162-2.408-1.077-1.207-.61-.685c-.948-1.014-1.116-1.311-1.209-2.129-.039-.344-.061-.426-.115-.426-.037 0-.393.348-.791.774l-1.067 1.135c-.284.299-.343.384-.343.495 0 .16.058.217.547.54.406.268.61.437 1.21 1.003l.584.54c.091.08.383.353.647.607.57.547 1.664 1.566 2.026 1.887.141.125.59.536.998.913l.948.87a112 112 0 0 1 1.059.979l4.632 4.259 1.828 1.681 1.181 1.083 1.406 1.276c.421.383.781.696.8.696s.045-.016.058-.037zm-15.938-2.008c.018-.093-.39-.567-.514-.598-.058-.014-.116-.016-.129-.002-.054.054.09.284.303.485.222.21.315.241.34.114zm.615-.957a20 20 0 0 0 1.045-.987l2.188-2.202 1.618-1.661c.139-.21.052-.498-.133-.44-.091.029-.527.463-.701.698a4 4 0 0 1-.448.452l-.769.699-.661.607a6 6 0 0 0-.432.454 8 8 0 0 1-.565.576c-.632.579-1.713 1.664-1.773 1.779-.072.137-.075.25-.009.316.105.105.239.044.64-.293zm6.643-1.78c.957-.074 1.82-.221 1.799-.306-.013-.051-.349-.356-1.663-1.509-.89-.782-.955-.821-1.164-.709-.335.179-2.399 2.082-2.399 2.212 0 .07.212.14.582.192.171.024.347.055.39.068.16.05 1.139.122 1.5.11.206-.006.636-.032.956-.057zm-13.692-.046c.208-.13.138-.285-.168-.367a.5.5 0 0 1-.204-.103c-.132-.159-.263.019-.22.299.037.239.083.276.31.249a.9.9 0 0 0 .282-.077zm8.921-1.075c.47-.49 1.153-1.227 1.517-1.638 1.088-1.227 1.025-1.142.922-1.245-.135-.135-.238-.078-.544.3s-.63.764-1.739 2.07c-.653.769-1.14 1.387-1.14 1.446 0 .074.187-.104.983-.933zm16.849.823c.201-.157.307-.547.178-.654-.051-.042-.089-.031-.21.061a.8.8 0 0 1-.343.14c-.162.023-.198.044-.209.123-.016.111.048.199.221.305q.22.133.362.025zm-25.361-.387c.102-.071.125-.26.043-.342-.099-.099-.397-.025-.525.129-.153.185.262.368.483.213zm7.391-.189c.064-.094.295-.379.513-.634l.54-.649a16 16 0 0 1 .445-.532c.166-.19.301-.373.301-.405s-.051-.069-.114-.082-.266-.079-.451-.146-.364-.122-.398-.122c-.072 0-.526.643-.645.914a4 4 0 0 1-.271.464c-.208.303-.363.669-.395.93a.31.31 0 0 0 .092.301c.149.177.241.168.382-.038zm7.99.117c0-.068-.329-.385-.831-.799a26 26 0 0 1-1.205-1.121c-1.35-1.325-2.937-2.74-3.387-3.022a4 4 0 0 1-.461-.39l-.805-.763-.557-.522a21 21 0 0 0-.35-.306 10 10 0 0 1-.561-.53 5 5 0 0 0-.485-.442 10 10 0 0 1-.602-.522c-.527-.492-1.004-.856-1.314-1.002-.146-.069-.285-.125-.31-.125s-.156-.045-.292-.101c-.267-.108-.998-.184-1.275-.132-.284.053-.2.274.104.274s.916.172 1.348.38c.458.22.574.302 1.15.806l.651.557.519.44 1.745 1.495 1.932 1.677c.669.612 1.03.923 1.371 1.182s.86.705 1.556 1.337a31 31 0 0 0 1.041.891l.764.632c.193.167.254.192.254.104zm2.443-.129a.8.8 0 0 0 .193-.147c.079-.088.079-.091-.011-.275a1 1 0 0 1-.091-.239c0-.089-.975-1.992-1.042-2.034-.044-.028-.131-.009-.289.062-.125.056-.373.155-.552.22s-.336.143-.347.173c-.028.074.137.289.57.74.197.206.401.43.452.499.154.207.937 1.059.972 1.059a.6.6 0 0 0 .146-.058zm-19.061-.11c.298-.202.384-.24 1.131-.497.533-.184.827-.26 1.191-.309l.628-.086c.08-.011.863-.039 1.74-.061 1.697-.043 2.154-.021 2.464.119.098.044.28.115.402.158.218.076.225.075.27-.001.026-.043.12-.192.211-.332s.308-.535.483-.878l.458-.879c.139-.256.139-.256.067-.406a.8.8 0 0 1-.072-.268c0-.175-.151-.335-.434-.461-.436-.195-.675-.229-2.516-.362a33 33 0 0 0-4.321.002c-1.016.071-1.208.101-1.922.302-.889.25-1.68.793-1.758 1.207-.031.166.009.255.558 1.2.567.979 1.065 1.683 1.188 1.682a1 1 0 0 0 .231-.127zm1.786-1.147c-.322-.106-.525-.232-.644-.4-.108-.152-.123-.208-.115-.412.008-.19.038-.281.156-.465.081-.126.173-.244.206-.262.048-.027.031-.065-.082-.192-.361-.405-.14-.881.485-1.048.321-.086.476-.075.704.05a.69.69 0 0 1 .37.611c0 .164-.099.4-.167.4-.083 0-.036.081.088.153.168.098.329.415.327.645-.002.342-.264.702-.643.882a1.5 1.5 0 0 1-.685.038m.51-.593c.256-.097.31-.318.126-.51-.092-.096-.147-.117-.31-.117-.384 0-.528.162-.394.442.096.201.334.277.578.185m-.115-1.499c.063-.069.067-.101.028-.188-.026-.058-.076-.116-.111-.129a.28.28 0 0 0-.32.131c-.038.084-.033.117.029.186a.3.3 0 0 0 .187.083.3.3 0 0 0 .187-.083m1.779 2.092c-.096-.021-.305-.195-.305-.254 0-.02.026-.071.057-.114.055-.076.063-.076.254-.003.275.105.657.066.813-.083.146-.14.233-.402.176-.529-.076-.168-.258-.353-.375-.382-.275-.069-.298-.249-.052-.412.185-.123.211-.234.103-.443-.092-.179-.251-.201-.714-.101-.12.026-.136.018-.161-.082-.056-.222.304-.439.729-.439a.6.6 0 0 1 .441.138.84.84 0 0 1 .391.733c0 .129-.022.256-.049.283-.037.037-.024.068.056.131a.9.9 0 0 1 .264.683 1.06 1.06 0 0 1-.395.689l-.219.183-.463.009a5 5 0 0 1-.553-.011zm2.661-.039c-.349-.128-.693-.621-.688-.985.006-.466.282-1.112.527-1.235a5 5 0 0 0 .283-.161c.128-.079.198-.094.364-.078.217.021.371.121.371.241 0 .097-.069.146-.291.209-.37.105-.365.203.013.309.373.104.469.165.592.375.1.17.107.213.082.454-.044.409-.159.598-.465.76s-.554.197-.788.111m.466-.548c.16-.107.182-.394.046-.596-.081-.12-.119-.141-.258-.141-.132 0-.174.021-.223.106-.161.286.189.794.435.631m-7.347.527c-.065-.038-.073-.125-.073-.862v-.819l.18-.196c.202-.221.317-.246.417-.094.057.086.067.245.067 1.016 0 .861-.005.916-.08.957-.102.055-.416.054-.512-.002zm26.578 1.083c.034-.028.062-.097.062-.153 0-.119-.2-.221-.434-.221-.258 0-.364.291-.147.406.12.063.427.044.519-.032m1.098-.322c.029-.063.098-.236.154-.384a8.4 8.4 0 0 1 .702-1.392c.119-.183.239-.405.268-.493a2 2 0 0 1 .179-.365c.174-.279.136-.404-.214-.714-.209-.185-.322-.251-.54-.313-.409-.118-.464-.126-1.231-.198-1.037-.097-5.933-.127-6.281-.039a7 7 0 0 1-.594.11c-.472.065-1.102.274-1.269.421-.317.278-.299.517.101 1.358l.296.647c0 .083.473.98.56 1.061.099.093.119.096.303.052a92 92 0 0 1 1.641-.343c.109-.022.748-.052 1.422-.068 1.034-.024 1.323-.017 1.859.045 1.082.125 1.631.271 2.111.56.331.199.464.213.536.055zm-1.68-.664c-.184-.026-.312-.164-.312-.335v-.144l.197.029.346.051c.24.034.487-.053.581-.206a.59.59 0 0 0-.014-.615c-.103-.152-.208-.19-.549-.199a2 2 0 0 1-.364-.048c-.144-.04-.156-.055-.156-.198 0-.085.063-.304.139-.486.203-.484.266-.518.947-.518h.534v.117c0 .069-.04.155-.096.208-.081.077-.145.09-.415.09h-.319v.117c0 .112.014.12.28.173.245.049.304.081.47.249.259.263.328.503.232.809-.112.354-.27.533-.663.747-.355.194-.463.214-.839.16zm-4.114-.175c-.122-.049-.214-.239-.159-.327.06-.096.207-.11.327-.032.278.182.768-.099.768-.44 0-.071-.017-.08-.094-.055a1.5 1.5 0 0 1-.697.02.74.74 0 0 1-.343-.222c-.314-.335-.356-.621-.154-1.044.141-.295.326-.46.614-.546.388-.117.684-.037 1.024.276a1.16 1.16 0 0 1 .357.826c0 .676-.385 1.43-.788 1.542-.175.049-.735.05-.854.002zm.75-1.475c.143-.143.135-.338-.022-.556q-.207-.285-.441-.179c-.239.109-.215.478.047.708.177.155.28.162.415.026zm-2.514 1.309c-.025-.047-.043-.402-.043-.86v-.779l.228-.22q.228-.221.332-.22h.105v1c0 .61-.017 1.031-.043 1.08-.035.066-.088.08-.289.08s-.254-.014-.289-.08zm4.138-.089-.109-.086v-.715c0-.798-.008-.769.327-1.118.118-.123.226-.197.285-.197h.095v1.051c0 .762-.014 1.065-.05 1.101-.084.084-.423.061-.547-.036zm-8.282-2.639a1.5 1.5 0 0 0 .254-.245c.063-.096.475-.443 1.334-1.125.251-.199.579-.478.727-.619.651-.617.991-.887 1.393-1.107.394-.215.559-.326.559-.377 0-.026-.164-.21-.364-.409-.495-.492-1.922-1.786-1.97-1.786-.021 0-.07.058-.109.129-.289.528-.688 1.164-.762 1.216a2.3 2.3 0 0 0-.281.289l-.71.824-.852 1.008-.571.699c-.235.285-.286.412-.19.471.053.033 1.002-.92 1.384-1.39.28-.344 1.156-1.242 1.351-1.384a4 4 0 0 0 .364-.318 1.06 1.06 0 0 1 .92-.322c.432.051.569.235.533.715-.043.573.041.467-2.034 2.553l-1.278 1.305c0 .061.132.005.302-.127m.75-1.596c1.498-1.514 1.773-1.823 1.773-1.998 0-.1-.017-.121-.101-.121a4.6 4.6 0 0 0-.967.263c-.187.097-.52.415-.989.945l-.712.784c-.163.173-.328.378-.368.456s-.163.258-.275.4-.203.3-.203.351.065.157.144.236l.144.144.129-.076c.071-.042.712-.665 1.424-1.384zm5.149-1.747c.188-.052.179-.076-.136-.349a40 40 0 0 1-.852-.79 35 35 0 0 0-.932-.857c-.364-.313-1.114-1.057-1.652-1.639-.31-.335-.392-.403-.435-.36s-.04.105.019.329c.127.483.22.622.776 1.154l1.06 1.04a36 36 0 0 0 1.05 1.006c.426.387.535.466.665.48l.217.023a1 1 0 0 0 .219-.037zm1.651-.122c.199-.199.062-.37-.754-.944-.355-.249-.787-.621-1.799-1.547-.603-.551-1.357-1.338-1.505-1.57-.084-.132-.28-.411-.436-.619s-.284-.4-.284-.425.075-.057.166-.072c.137-.022.166-.043.166-.12 0-.122-.063-.17-.354-.27-.334-.115-.42-.106-.585.058-.18.18-.181.304-.009.652.109.22.297.435 1.092 1.243l1.561 1.599a17 17 0 0 0 1.659 1.536c.7.558.91.651 1.082.479m-20.938-1.312a2.6 2.6 0 0 0 .457-.226c.148-.091.289-.166.312-.166s.201-.122.395-.271.459-.345.589-.436a7 7 0 0 0 .478-.378 10 10 0 0 1 .45-.37c.338-.256.82-.738 1.202-1.203.197-.239.385-.45.418-.469.081-.045.537-.691.692-.981a10 10 0 0 1 .343-.566c.26-.398.356-.599.356-.744 0-.166-.114-.133-.165.048a1.5 1.5 0 0 1-.137.309l-.236.395a10 10 0 0 1-1.333 1.733c-1.029 1.067-1.728 1.738-1.911 1.836a3 3 0 0 0-.291.177 17 17 0 0 1-1.073.688 2.5 2.5 0 0 0-.315.206 2 2 0 0 1-.432.23q-.436.164-.296.255c.066.042.211.022.496-.068zm20.55-.148c.042-.045.142-.208.222-.361.118-.227.179-.295.327-.37.1-.05.268-.103.374-.117.235-.031.61-.213.717-.348s.141-.289.083-.347c-.066-.066-.805-.04-1.076.038-.12.034-.43.163-.689.286q-1.007.478-.816.935c.059.142.253.319.433.394.142.06.306.017.425-.11m-20.876-.451a6 6 0 0 0 .554-.313c.16-.104.403-.245.54-.312.241-.119.371-.21.845-.589a14.6 14.6 0 0 0 2.408-2.439c.663-.868.749-.992.921-1.318.192-.365.2-.481.042-.638-.062-.062-.114-.075-.217-.055-.213.042-.672.279-.892.461a2.4 2.4 0 0 1-.374.253c-.096.048-.185.105-.199.128s-.244.204-.512.402c-.773.574-2.045 1.86-2.95 2.981a8 8 0 0 0-.405.606c-.288.47-.336.673-.203.863.084.12.125.117.44-.031zm19.831-.333c.014-.023.212-.202.44-.398.57-.49.964-.67 1.638-.744a.9.9 0 0 0 .415-.14c.151-.102.183-.159.347-.61.264-.727.278-1.099.041-1.099-.044 0-.177.072-.296.16a2 2 0 0 1-.403.232c-.103.039-.399.165-.658.28-.529.234-.897.367-1.01.367-.094 0-.108-.213-.019-.287.032-.026.317-.178.634-.337.953-.478 1.062-.548 1.167-.751.077-.149.094-.247.094-.564 0-.4-.034-.525-.201-.751-.104-.14-.242-.178-.281-.076-.023.06-.736.694-.928.824-.125.085-.308.095-.365.021a1 1 0 0 1-.095-.26c-.126-.479-.359-.768-.531-.659-.037.023-.117.163-.177.309a7.4 7.4 0 0 1-.763 1.323c-.64.89-.805 1.251-.754 1.641.034.256.063.309.357.668.32.39.647.7.848.806.173.091.455.117.499.046zm-1.975-1.867a.5.5 0 0 0 .043-.18c0-.165.128-.498.27-.698.179-.253.464-.854.497-1.047.046-.271-.198-.612-.439-.613-.144 0-.273.158-.32.39-.029.144-.122.349-.253.559-.253.404-.326.574-.362.84s.062.529.258.701c.167.147.246.159.306.046zM15.16 42.731l1.226-.463a7 7 0 0 1 .436-.14c.126-.035.331-.129.456-.21.272-.176.464-.19.81-.057.279.107.307.09.417-.251.116-.36.139-.962.051-1.352-.103-.457-.245-.694-.623-1.038-.357-.325-.478-.394-.695-.396-.242-.002-.333.075-.439.369-.137.382-.208.46-.583.647a9 9 0 0 0-.747.441c-.227.151-.59.354-.807.449-.639.282-.767.352-.782.43-.008.043.072.168.199.306.249.272.334.427.453.824.087.289.224.561.285.561.017 0 .172-.054.343-.121zm-2.035-1.849c.37-.079.866-.272 1.557-.607.681-.331 1.176-.651 1.354-.875.14-.177.139-.209-.029-.544-.578-1.151-.971-3.796-.847-5.702.086-1.318.259-2.732.422-3.45.188-.827.822-2.862 1.087-3.49a45 45 0 0 1 1.27-2.567c.247-.402.778-1.125 1.289-1.753.543-.667 2.406-2.548 2.829-2.856.584-.425.935-.645 1.112-.698.132-.039.184-.079.203-.156.037-.147-.818-2.687-1.016-3.02-.291-.489-.998-1.059-1.314-1.059-.162 0-.543.144-.787.297-.339.213-1.575 1.15-2.167 1.642-.901.749-2.185 2.081-2.998 3.109a6 6 0 0 1-.389.457c-.256.227-.702.921-1.563 2.43-.39.684-.54.986-.935 1.89l-.222.503c-.177.386-.609 1.636-.828 2.397a22 22 0 0 0-.643 3.118c-.229 1.898-.269 2.571-.236 3.912a17.5 17.5 0 0 0 .418 3.656 21 21 0 0 0 .37 1.475l.154.582c.144.588.219.771.387.95a1.3 1.3 0 0 0 .96.42c.16 0 .413-.026.562-.058zm-.6-1.336c-.09-.09-.082-.261.022-.431.084-.138.085-.145.011-.195-.146-.099-.204-.177-.338-.445-.171-.343-.185-.697-.04-.984.221-.438 1.071-.745 1.557-.563.086.032.206.07.266.082.281.061.669.651.677 1.028l.003.198.291-.022c.25-.019.316-.009.475.074.2.105.362.29.317.363-.016.025-.097.046-.182.047s-.35.055-.59.121l-.903.248c-.564.155-.984.317-1.157.447-.149.112-.315.125-.409.031zm.872-.934c.547-.142.612-.169.78-.325.195-.181.245-.312.193-.508s-.169-.261-.545-.308c-.537-.067-1.323.365-1.323.725 0 .182.114.409.239.477.147.08.093.085.657-.062zm-1.562-2.492c-.125-.125-.166-.267-.137-.477a2 2 0 0 0-.027-.494c-.048-.28-.046-.321.025-.467s.095-.161.259-.173c.252-.018.322.057.358.387.017.163.054.286.094.32.049.04.256.055.797.055.402.001.763.017.803.036.092.044.097.264.008.39-.056.081-.102.092-.359.092s-.737.044-1.184.109a.8.8 0 0 0-.305.163c-.201.168-.22.171-.332.059m-.203-2.393c-.153-.194-.105-.378.14-.538.104-.068.224-.083.803-.101.653-.02.684-.025.76-.119.112-.138.102-.369-.023-.553-.147-.216-.377-.284-.96-.284h-.466l-.129-.147c-.134-.153-.164-.3-.079-.385.06-.06.35-.067.386-.008.016.026.354.042.875.042h.849v.167c0 .138-.018.175-.104.214-.098.045-.142.117-.071.117.018 0 .085.167.148.371.092.296.109.411.086.569-.057.38-.231.457-1.157.512-.554.033-.61.044-.741.144-.177.135-.211.135-.318-.001zm1.096-3.257c-.46-.146-.706-.452-.876-1.09l-.075-.281.133-.271c.073-.149.133-.28.133-.291s-.109-.02-.243-.02c-.205 0-.27.02-.419.128-.196.142-.278.136-.317-.022-.033-.131.06-.337.219-.485s.256-.193.494-.224c.2-.026.298-.009.765.126.651.189 1.199.311 1.396.311.176 0 .23.016.264.08.068.127.051.228-.064.399-.082.12-.1.184-.076.265.017.059.032.229.032.377.001.502-.289.931-.7 1.034-.247.062-.372.055-.666-.038zm.628-.638c.274-.128.391-.277.391-.5a.54.54 0 0 0-.061-.259c-.086-.123-.397-.245-.84-.329-.325-.062-.401-.065-.514-.018-.177.073-.289.266-.289.498 0 .251.11.417.38.575.289.168.616.18.932.032zm.19-2.822a1.1 1.1 0 0 1-.485-.324c-.375-.39-.415-.696-.183-1.396a.9.9 0 0 1 .311-.464c.24-.22.396-.278.624-.235.219.041.284.174.251.513a4 4 0 0 1-.088.507c-.086.319-.079.508.023.638.197.25.774.067.991-.315.063-.109.126-.186.141-.171.09.09-.036.572-.224.856a.86.86 0 0 1-.399.327c-.35.173-.61.19-.963.064zm.006-.892c.107-.118.195-.366.195-.549 0-.463-.615-.5-.752-.044-.091.305.116.668.381.668a.27.27 0 0 0 .176-.074zm1.916-1.914a4 4 0 0 1-.395-.197 4.5 4.5 0 0 0-.889-.409c-.351-.102-.352-.257-.003-.543.186-.153.244-.268.293-.588.034-.222.23-.531.404-.637a.64.64 0 0 1 .281-.083c.177 0 .556.194.853.435.12.097.308.209.419.247.341.119.409.164.423.279.009.077-.019.133-.099.196-.201.158-.519.093-.942-.194-.309-.21-.722-.424-.817-.424-.133 0-.318.203-.352.388-.041.22.087.465.339.648l.408.301c.116.087.227.158.245.158s.096.048.173.106c.147.112.187.286.089.384-.069.069-.14.058-.431-.069zm1.823-2.696a4.6 4.6 0 0 1-.841-.56c-.33-.288-.34-.297-.434-.35-.069-.039-.104-.033-.185.031a.4.4 0 0 1-.183.079c-.073 0-.079-.017-.049-.156.054-.256.023-.462-.094-.638l-.11-.166.089-.089c.088-.088.09-.088.177-.009.115.104.344.097.569-.017.173-.088.344-.117.342-.057a2 2 0 0 1-.143.255c-.187.293-.236.228.726.965l.363.285c.079.066.112.071.218.031.271-.102.329.231.068.39a.49.49 0 0 1-.512.006zm1.155-1.555c-.103-.051-.427-.329-.738-.634-.595-.582-.643-.669-.445-.799.106-.07.116-.068.364.062a4 4 0 0 1 .656.503c.221.203.487.407.592.454.219.097.249.211.104.395-.108.138-.281.144-.533.019m1.352-1.242q-.209-.163-.002-.409c.12-.142.261-.164.433-.065.226.13.407.022.349-.208-.06-.24-.361-.29-.869-.145-.349.1-.461.103-.661.02a.54.54 0 0 1-.315-.492c0-.413.617-1.105.987-1.106.203-.001.35.33.202.453-.032.026-.166.066-.299.087-.277.045-.393.129-.325.236.102.161.168.161.483 0 .44-.225.685-.209 1.038.068.174.137.324.42.324.612 0 .18-.103.379-.323.623-.335.373-.781.515-1.022.325zm-3.269-.375c-.052-.096-.024-.259.068-.401.142-.22.487-.035.394.211-.098.257-.367.368-.462.19m32.367 11.127c.091-.143.196-.328.234-.413.059-.131.12-.177.425-.318.196-.091.553-.225.793-.299a17 17 0 0 0 .748-.249 14 14 0 0 1 .779-.252c.369-.108.467-.152.467-.21 0-.041-.092-.215-.204-.387-.272-.416-.383-.785-.393-1.301-.005-.222-.022-.427-.04-.456-.07-.112-.593-.043-1.461.193-.396.108-.652.213-1.225.504-.559.284-.714.307-.977.145-.091-.056-.179-.103-.195-.104s-.069.055-.118.124c-.082.116-.089.174-.085.737.005.62.12 1.514.229 1.775.072.172.429.676.514.725a.5.5 0 0 0 .206.042c.122.001.153-.026.302-.258zm.075-3.725a8 8 0 0 1 1.336-.437c1.324-.326 1.959-.576 2.255-.886.106-.111.116-.15.124-.47a.92.92 0 0 0-.131-.619c-.523-1.013-1.655-2.807-2.098-3.324-.127-.148-.232-.285-.232-.303-.002-.1-1.443-1.89-1.808-2.246l-.727-.71c-1.017-.994-2.492-2.109-3.859-2.915-.648-.382-2.261-1.209-2.829-1.45-.946-.401-2.572-.932-2.858-.933-.053 0-.24-.056-.415-.124s-.526-.16-.777-.205l-.914-.164c-.86-.158-1.87-.26-3.017-.307a17 17 0 0 0-2.243.023c-.603.039-1.161.089-1.241.112a1.6 1.6 0 0 1-.353.043c-.284.001-1.321.182-1.646.287a14 14 0 0 1-.785.213c-.587.143-1.029.338-1.377.605-.216.166-.242.204-.291.421-.03.131-.054.37-.055.53-.001.252.026.357.2.789a12 12 0 0 0 .495 1.039 23 23 0 0 1 .571 1.142l.276.602.142-.008c.078-.005.273-.068.433-.141a3.3 3.3 0 0 1 .561-.191c.507-.108.603-.132.935-.235 1.057-.329 3.492-.531 5.131-.427 1.919.122 3.778.575 5.359 1.305 1.517.7 2.529 1.268 3.282 1.839a16 16 0 0 0 .571.409c.166.112.434.322.595.467.876.784 1.312 1.186 1.365 1.26a6 6 0 0 0 .313.353c.465.498.764.858.986 1.189.121.181.265.376.318.432.078.082.33.432.64.887a20 20 0 0 1 .701 1.209c.186.381.538.993.591 1.028.085.055.195.034.477-.09zm-.201-1.997c-.108-.108-.108-.329.001-.543.059-.117.167-.219.364-.345.153-.098.298-.187.321-.196s.196-.126.384-.26c.35-.248.467-.369.467-.486 0-.036.025-.1.055-.141.052-.071.065-.07.269.034.118.06.253.108.3.108.109 0 .332.113.332.168a.8.8 0 0 1-.109.206 1 1 0 0 0-.13.356c-.012.105-.043.2-.07.21s-.117-.011-.202-.046c-.142-.06-.171-.058-.392.02-.132.046-.329.14-.439.208s-.218.124-.24.124c-.066 0-.416.342-.522.509-.114.18-.255.206-.388.073zm-.914-1.525c-.218-.08-.269-.312-.128-.585.092-.178.216-.3.568-.556a15 15 0 0 0 .436-.33c.238-.19.48-.327.578-.327.122 0 .208.117.208.281 0 .175-.139.324-.799.854-.222.179-.445.384-.495.457-.151.221-.222.26-.368.207zM46.6 20.527c-.229-.085-.331-.162-.534-.402-.253-.299-.45-.497-.631-.633-.246-.185-.219-.258.272-.729l.721-.675a8 8 0 0 0 .602-.627c.169-.199.338-.372.376-.386.123-.044.285.026.35.153.079.153.051.292-.109.534-.187.281-.168.402.1.651.334.311.445.527.472.92.04.587-.131.882-.651 1.123-.277.128-.727.162-.967.073zm.578-.624c.229-.152.325-.352.325-.677a.59.59 0 0 0-.278-.566c-.176-.131-.332-.065-.701.298-.249.246-.329.353-.352.473-.044.232.005.35.199.492.156.114.201.126.404.112a.77.77 0 0 0 .402-.132zm2.575.38c-.039-.029-.082-.119-.095-.2-.019-.118-.005-.172.076-.265.086-.1.119-.112.236-.086a.45.45 0 0 1 .296.357c0 .193-.338.322-.512.195zm-5.755-2.007c-.215-.068-.512-.301-.651-.511-.064-.096-.117-.264-.146-.462-.046-.311-.045-.312.101-.632.252-.551.606-.779 1.227-.79.245-.005.361.014.523.087.598.267.986 1.029.721 1.415-.184.268-.266.261-.913-.074-.315-.163-.617-.297-.672-.297-.14 0-.237.125-.237.307 0 .252.204.574.484.765.313.213.029.339-.436.193zm1.117-1.42c.167-.213.041-.541-.241-.626-.134-.04-.192-.038-.306.009-.353.148-.378.385-.062.596.265.177.48.185.609.021m-3.442-.233c-.212-.2-.271-.231-.589-.312-.399-.101-.508-.167-.685-.419-.115-.163-.125-.203-.124-.536 0-.299.017-.392.1-.547.157-.297.273-.427.51-.57.318-.192.591-.213.969-.073.533.197.65.191.726-.039.051-.156 0-.333-.164-.563-.121-.17-.113-.26.018-.21.35.133.662.487.71.808s-.153.817-.598 1.456c-.275.396-.335.547-.337.86q-.004.643-.535.144zm-.088-.786c.17-.115.498-.657.527-.871a.7.7 0 0 0-.033-.286c-.063-.153-.378-.369-.538-.369-.266 0-.699.694-.642 1.031.047.28.107.421.214.506q.21.164.472-.011M27.42 15.9a8 8 0 0 1-.068-.28c-.016-.069-.079-.302-.142-.519s-.147-.535-.185-.706c-.127-.561-.319-1.038-.476-1.18-.221-.2-.035-.414.396-.454a1 1 0 0 0 .511-.168c.838-.515 1.642-.134 1.77.838.032.241-.062.509-.302.863-.289.426-.382.504-.671.56-.142.028-.268.067-.28.087s-.079.036-.149.036c-.104 0-.122.013-.098.073.11.281.054.728-.115.914-.116.128-.144.119-.191-.062zm.961-1.478c.214-.089.302-.244.298-.524a1.19 1.19 0 0 0-.566-.984c-.182-.117-.367-.127-.533-.029-.241.142-.256.443-.051 1.051.186.554.398.675.852.485zm10.522.939c-.142-.034-.224-.138-.251-.32-.034-.225.022-.424.293-1.062.122-.286.234-.569.249-.629.065-.258.295-.358.48-.208.153.124.117.359-.145.94-.251.555-.313.753-.314.999a.6.6 0 0 1-.031.213c-.04.06-.175.094-.28.069zm-2.543-.631c-.264-.09-.328-.14-.43-.342-.11-.215-.102-.378.028-.531a.28.28 0 0 1 .455-.026c.108.108.14.342.059.423-.03.03-.005.085.083.179.105.112.146.131.241.107.156-.039.208-.09.239-.232.047-.213-.008-.275-.439-.504-.365-.193-.423-.239-.496-.396-.104-.221-.105-.33-.005-.563.096-.225.24-.343.516-.425.282-.084.362-.079.619.036.394.176.518.427.279.561-.154.086-.307.032-.516-.183-.197-.203-.219-.212-.331-.13-.132.097-.053.266.169.362.104.045.207.081.228.081.103 0 .387.232.498.407.236.372.216.578-.09.901-.318.336-.669.423-1.107.274zm-5.656-.363c-.327-.164-.599-.447-.708-.74-.278-.744-.073-1.374.551-1.693.533-.272 1.314-.186 1.676.184a1.37 1.37 0 0 1 .304 1.404c-.114.337-.234.497-.511.681a1.22 1.22 0 0 1-.775.256c-.279.017-.339.006-.537-.092m1.069-.415c.135-.095.252-.374.253-.604.001-.147-.041-.276-.172-.531-.21-.41-.408-.599-.724-.691-.278-.081-.371-.053-.532.159-.339.445.017 1.414.616 1.675.176.077.443.073.559-.009zm2.103.38c-.322-.131-.436-.261-.436-.495 0-.224.095-.318.351-.347.264-.03.321.032.414.454.048.217.3.188.397-.046q.125-.303-.375-.505c-.781-.312-.882-1.057-.186-1.373.219-.099.467-.097.819.008.215.064.298.11.332.184.073.16.009.31-.16.38-.2.083-.332.043-.436-.133a.6.6 0 0 0-.166-.188c-.117-.063-.243-.008-.243.105s.053.162.256.227c.172.055.651.476.78.685.173.279.088.665-.196.89-.357.282-.717.33-1.151.153zm5.845-1.581c-.195-.082-.248-.226-.147-.4.11-.189.302-.211.45-.051.238.257.018.586-.303.451m-14.216 6.044a6 6 0 0 0 1.15-.437c.286-.165.6-.741.538-.987-.028-.112-.149-.166-.477-.212-.354-.05-.405-.103-.551-.573a9 9 0 0 0-.394-.965c-.368-.759-.952-1.684-1.064-1.684-.025 0-.141.073-.258.162-.49.374-.846.551-1.347.669-.122.029-.231.077-.243.108-.022.057.166.589.263.744.028.046.079.186.112.312a4 4 0 0 0 .11.353c.027.069.085.237.127.374s.153.464.246.727c.271.77.262.713.167.993-.097.287-.104.361-.037.402.164.101 1.217.111 1.656.014zm28.803 36.078a.6.6 0 0 1 .022-.25c.069-.259.06-.473-.028-.616-.111-.182-.412-.488-1.047-1.067l-1.576-1.447c-1.875-1.729-1.792-1.661-2.032-1.662-.078 0-.243.048-.366.106q-.365.172-.365.013c0-.037.215-.296.478-.576a20 20 0 0 0 .665-.739q.366-.45.466-.349c.039.039.038.094-.006.247a4 4 0 0 0-.076.312c-.046.267-.073.239 2.669 2.777 1.509 1.396 1.684 1.551 1.85 1.637.189.098.399.076.663-.07.239-.131.374-.138.374-.018 0 .065-.278.413-.586.734-.101.105-.331.357-.513.561s-.358.394-.392.422c-.086.072-.169.065-.2-.017zM7.627 51.507c-.059-.059-.019-.306.133-.824l1.65-5.506c.213-.7.243-.922.128-.946-.088-.018-.414.148-1.004.511l-.893.539c-.899.532-1.932 1.205-2.085 1.359-.183.183-.231.376-.164.666.051.22.062.406.024.406-.091 0-.202-.127-.353-.405a17 17 0 0 0-.481-.802c-.294-.462-.369-.662-.248-.662.031 0 .166.066.299.145.193.116.284.145.452.144.333-.002.606-.131 1.706-.811l.935-.567c1.896-1.134 2.274-1.43 2.522-1.971a.67.67 0 0 0 .078-.466c-.078-.633-.078-.629-.018-.628a.2.2 0 0 1 .1.031 5 5 0 0 1 .539.886c.028.112.003.224-.24 1.055l-.527 1.807-1.081 3.677c-.267.861-.303 1.133-.145 1.109.098-.016.456-.229 1.745-1.04l1.226-.767c.637-.39 1.214-.902 1.271-1.129a1.2 1.2 0 0 0-.001-.346c-.079-.643-.078-.63-.014-.63.08 0 .167.103.283.332.052.103.259.437.462.743s.368.591.368.634c0 .095-.139.102-.291.016-.144-.082-.446-.075-.644.016-.15.069-.981.584-3.427 2.123l-.976.623c-.366.25-1.158.707-1.224.707-.039 0-.083-.013-.098-.028zm51.972-3.448c-.016-.016-.028-.167-.028-.338 0-.402-.077-.531-.426-.717-.754-.403-5.134-2.532-5.208-2.532-.1 0-.269.265-.594.931-.514 1.055-.521 1.138-.128 1.583.137.155.248.307.248.339 0 .166-.219.085-.808-.297-.43-.279-.499-.356-.465-.523.014-.071.405-.89.868-1.819L54.371 42c.259-.548.5-1.03.535-1.07.087-.098.208-.092.52.026.821.309.991.558.342.501-.45-.04-.496.016-1.123 1.344-.241.511-.312.702-.293.781.028.111.012.103 4.074 2.095 1.498.735 1.574.75 1.977.392.117-.104.233-.182.257-.173.154.051.122.15-.384 1.167-.493.991-.571 1.105-.679.997zm-55.49-8.072c-1.173-.127-1.957-.867-2.342-2.209-.191-.663-.217-1.517-.064-2.084.084-.311.324-.727.573-.994.498-.532 1.077-.749 2.913-1.092 2.736-.511 2.769-.519 2.888-.702.031-.048.077-.181.101-.295l.066-.301c.022-.098.158-.13.208-.049.016.024.08.337.145.696l.191 1.016c.068.337.068.369.005.432-.074.074-.055.088-.331-.248-.208-.254-.533-.23-2.879.219-.343.065-.779.141-.97.167a6 6 0 0 0-.769.173c-1.17.347-1.656.899-1.752 1.991-.022.245-.006.414.077.82.166.815.461 1.358.908 1.671.383.269.629.338 1.281.36.533.018.612.009 1.599-.174l1.246-.23c1.179-.209 1.474-.284 1.684-.425.193-.13.33-.345.335-.526.006-.24.053-.356.15-.37.101-.014.103-.009.201.677.036.251.092.575.125.719.119.52.049.649-.221.408a2 2 0 0 0-.259-.195c-.216-.117-.774-.058-2.41.252-1.369.26-2.185.348-2.7.292zm51.626-1.65c-.046-.046-.032-.293.055-.949.045-.343.082-.71.083-.816a.5.5 0 0 1 .077-.287c.076-.094.076-.094.156-.011.044.046.111.142.149.213.118.219.22.212.856-.058.314-.133.907-.411 1.318-.618.656-.329.749-.389.76-.482.014-.12-.085-.22-.722-.73l-.604-.484c-.45-.361-.689-.498-.911-.519-.25-.024-.325.029-.45.32-.098.229-.184.314-.279.278-.053-.02-.063-.07-.048-.244l.068-.862c.027-.354.066-.686.088-.737.067-.163.183-.113.336.144.078.132.236.312.354.405l1.656 1.331c.93.769 1.027.842 1.194.912.128.053.454.096 1.776.231a13 13 0 0 0 .81.051c.514.013.617-.037.818-.401.098-.177.164-.253.222-.253.115 0 .126.235.044.935l-.106.972c-.042.432-.069.499-.193.475-.053-.009-.099-.093-.152-.271-.091-.305-.211-.447-.43-.509-.189-.054-1.723-.235-2.321-.274-.494-.033-.575-.011-1.371.378l-1.558.758c-.56.272-1.08.547-1.155.61s-.183.207-.24.318c-.096.189-.201.255-.281.175zM7.046 23.773a5 5 0 0 1-.197-.439c-.107-.265-.129-.362-.095-.415.057-.091.819-.39.907-.356.037.014.162.215.278.445.275.548.266.58-.213.74-.435.146-.602.152-.68.024zm50.311-1.358c-.314-.129-.527-.269-.526-.347a4 4 0 0 1 .439-.821c.082-.068.283-.02.693.164.25.112.28.138.28.243s-.273.699-.382.83c-.065.078-.188.061-.504-.069M13.804 17.82c-.014-.035.005-.171.041-.301.077-.278.047-.472-.108-.707-.115-.174-3.664-3.899-3.939-4.134-.296-.253-.529-.28-.884-.102-.169.085-.276.075-.276-.025 0-.033.126-.169.28-.301a33 33 0 0 0 2.171-2.055c.537-.546.999-.993 1.025-.993.136 0 .844.839.844 1.001s-.118.132-.453-.109c-.34-.246-.661-.075-1.683.895-.398.378-.565.599-.565.748s.12.295 1.024 1.235c.658.684.787.8.892.8s.219-.094.666-.53c.764-.744.876-.97.716-1.44-.063-.184-.062-.203.002-.267s.093-.044.424.305c.948.997 1.064 1.151.916 1.208-.03.011-.175-.036-.322-.105-.383-.181-.484-.167-.849.121-.306.242-1.062 1.015-1.086 1.112a.27.27 0 0 0 .04.194c.077.117.782.867 1.402 1.49.393.396.46.447.587.447.39 0 1.243-.91 1.703-1.818.207-.408.217-.442.233-.82.017-.402.059-.504.187-.455.084.032.219.312.277.574.074.336.059.784-.033.988-.084.185-.533.643-1.4 1.425-.251.227-.739.698-1.083 1.048s-.649.635-.676.635-.061-.029-.075-.064zm34.193-2.626c-.155-.131-.414-.36-.576-.509l-.553-.502c-.373-.335-.34-.492.069-.331.267.105.445.108.608.008.289-.176 1.776-1.822 1.946-2.154.09-.175.134-.397.464-2.314.273-1.585.277-1.621.215-1.828a5 5 0 0 0-.118-.346c-.064-.157-.012-.243.119-.201.045.014.239.18.43.368s.489.461.66.608c.346.296.392.353.355.448-.02.052-.065.06-.234.037-.192-.026-.218-.018-.328.092a.75.75 0 0 0-.163.282c-.094.351-.424 2.441-.412 2.605.02.274-.005.277 1.6-.195.947-.279 1.136-.376 1.246-.641.058-.139.055-.157-.067-.394-.253-.491-.107-.543.341-.122a17 17 0 0 0 .644.566c.261.216.342.307.332.374-.011.081-.04.088-.345.094-.262.005-.451.042-.893.179a49 49 0 0 1-1.413.402c-1.107.297-1.4.385-1.586.479-.253.127-1.851 1.925-2.019 2.271-.11.227-.097.382.053.665.197.369.019.397-.379.06zm-29.028-2.365c-.053-.053-.027-.128.097-.284.182-.229.228-.44.169-.766-.027-.147-.255-.9-.506-1.674-.784-2.411-1.216-3.385-1.677-3.781-.104-.09-.491-.24-.617-.24a.34.34 0 0 1-.175-.06c-.13-.097-.031-.191.401-.384.469-.209.704-.256.837-.169.051.034.403.349.781.701l1.62 1.491 1.473 1.35c.901.832.93.851 1.013.695.042-.078.104-.735.171-1.796l.147-2.326c.132-2.097.162-2.435.222-2.507.054-.065.873-.401.978-.401.134 0 .122.127-.028.283-.334.35-.331.551.027 1.42.535 1.302 1.973 4.517 2.109 4.718.129.189.306.268.607.268.289 0 .389.069.264.182-.042.038-.402.206-.8.373l-.855.373c-.31.161-.389.042-.179-.267.145-.215.164-.459.059-.773-.096-.289-1.395-3.277-1.603-3.689-.092-.182-.195-.312-.247-.312-.123 0-.183.53-.305 2.701-.171 3.019-.193 3.198-.394 3.198-.083 0-.25-.149-2.387-2.119-1.791-1.652-1.743-1.612-1.797-1.471-.036.093.061.416.461 1.546.38 1.072.564 1.543.818 2.085.267.57.441.706.902.706.197 0 .303.018.337.059.078.094-.078.205-.53.377a24 24 0 0 0-.823.337c-.419.182-.516.209-.569.155zm25.161-.681c-.484-.155-.837-.539-1.035-1.125-.054-.16-.221-.918-.371-1.684l-.309-1.489c-.056-.147-.199-.26-.555-.438-.394-.197-.652-.221-.749-.07-.06.094-.369.868-.714 1.788-.101.27-.183.558-.183.641 0 .242.147.489.419.703.287.225.335.372.11.335a7 7 0 0 1-.737-.269l-1.026-.408c-.517-.197-.588-.242-.526-.341q.044-.071.271-.092c.405-.037.573-.218.852-.923l.584-1.508.623-1.62c.577-1.499.677-1.786.677-1.94 0-.209-.075-.35-.287-.539-.174-.156-.215-.269-.114-.308.031-.012.213.043.405.122a8 8 0 0 0 .66.237 20 20 0 0 1 1.786.674c.924.425 1.372 1.065 1.32 1.887-.031.489-.186.837-.528 1.181-.311.313-.562.454-1.024.578a4 4 0 0 0-.357.108c-.093.057.005.61.428 2.446.273 1.182.393 1.497.685 1.801.123.128.218.252.21.275-.024.073-.247.064-.514-.022zm-.733-4.921a1.18 1.18 0 0 0 .707-.588c.328-.625.371-1.154.136-1.7-.172-.4-.69-.816-1.27-1.017-.286-.099-.487-.08-.576.056-.065.099-.949 2.387-.992 2.568-.053.22.138.35.908.623.384.136.756.155 1.087.057zM31.52 9.205c-.937-.206-1.502-.51-2.075-1.119-.669-.711-1.067-1.886-.974-2.874.041-.44.259-1.302.412-1.633.621-1.345 1.901-2.106 3.539-2.105.699 0 1.28.135 1.909.444.796.39 1.454 1.236 1.716 2.206.098.364.109.479.111 1.172.003.942-.047 1.183-.394 1.89a3.62 3.62 0 0 1-1.68 1.704c-.681.34-1.813.479-2.564.315m1.462-.297a2.84 2.84 0 0 0 1.901-1.27c.358-.56.55-1.51.471-2.325-.116-1.183-.49-2.021-1.195-2.673-.4-.37-.802-.61-1.238-.74-.292-.087-.396-.097-.852-.082-.434.014-.574.035-.852.132-.753.263-1.432.953-1.72 1.748-.174.479-.226.908-.202 1.652.017.526.039.694.132 1.004.511 1.706 2.035 2.801 3.554 2.554z"/></svg>