<svg xmlns="http://www.w3.org/2000/svg" viewBox="0 0 195.79 60.77"><style>.B{fill:#bd0518}.C{fill:#9d0d16}.D{fill:#e2001a}</style><path d="M64.77 48.35V10h22.24v4.66H70.98v11.78h15.27v4.6H70.98v12.65h16.61v4.66H64.77zm28.29 0V26.21a63.55 63.55 0 0 0-.29-6.61h5.46l.17 4.94a9.42 9.42 0 0 1 8.89-5.52c4.64 0 7.55 2.65 8.47 5.87a9.68 9.68 0 0 1 8.89-5.87c6.27 0 9.18 4.2 9.18 10.18v19.15H128V29.89c0-3.45-1.1-6.38-5.17-6.38-4.76 0-6.44 4.71-6.44 9.14v15.7h-5.81V29.89c0-3.45-1.11-6.38-5.17-6.38-4.76 0-6.51 4.71-6.51 9.14v15.7zm47.87 12.41V28.68l-.29-9.08h5.52l.23 4.94c1.57-3.45 5.46-5.52 9.23-5.52 8.83 0 11.91 7.19 11.91 14.84s-3.26 15.12-12 15.12c-3.71 0-7.31-1.84-8.76-5.29v17.07zm13-16.21c5.86 0 7.31-5.92 7.31-10.69S160 23.45 154 23.45c-5.58 0-7.44 5.81-7.44 10.41a15.17 15.17 0 0 0 1.57 7.07 6.45 6.45 0 0 0 5.81 3.62m36.16 3.8-.18-4.55a9.93 9.93 0 0 1-9.11 5.18c-5.23 0-9.64-2.53-9.64-8.51 0-7.48 6.79-9.77 15.33-9.77.75 0 2.38 0 3.25.05v-1.2c0-4.2-2-6.5-6.62-6.5a16.18 16.18 0 0 0-8.54 2.3l-.35-4.43a27.79 27.79 0 0 1 9.41-1.9c7.49 0 11.79 3.17 11.79 10.93v12a53.48 53.48 0 0 0 .35 6.39zm-1.92-14.09c-5.75 0-11.26.8-11.26 5.86 0 3.28 2.2 4.66 5.28 4.66 5.29 0 7.55-4.14 7.55-9v-1.55z" fill="#1d1d1b"/><path d="m38.59 37.02 1.03 11.24-9.25-7.87L29 29.27l9.59 7.75z" class="B"/><path d="m24.39 29.03 1.52 11.08-12.12 7.14-2.06-11.06 12.66-7.16z" class="C"/><path d="m50.78 29.75-12.19 7.27L29 29.27l11.94-6.82 9.84 7.3zm-26.39-.72-12.66 7.16-8.78-7.93 12.36-6.71 9.08 7.48z" class="D"/><path d="m25.1 13.43 1.52 11.8-9.2-7.36-1.81-11.59 9.49 7.15z" class="B"/><path d="M37.58 6.72 38.6 18.5l-11.98 6.73-1.52-11.8 12.48-6.71z" class="C"/><path d="M37.58 6.72 25.1 13.43l-9.49-7.15L27.8 0l9.78 6.72z" class="D"/><path d="m11.73 36.19 2.06 11.06-8.53-8.06-2.31-10.93 8.78 7.93z" class="B"/><path d="m50.78 29.75.53 11.27-11.69 7.24-1.03-11.24 12.19-7.27z" class="C"/><path d="m35.99 38.57-13.02 7.77L13.73 38l12.72-7.27 9.54 7.84z" class="D"/><path d="m22.97 46.34 1.7 11.18-8.94-8.44-2-11.08 9.24 8.34z" class="B"/><path d="m35.99 38.57 1.14 11.24-12.46 7.71-1.7-11.18 13.02-7.77z" class="C"/><path d="m37.27 22.6 1.1 12.01-9.66-7.71-1.45-11.84 10.01 7.54z" class="B"/><path d="M50.09 15.32 37.27 22.6l-10.01-7.54 12.55-6.81 10.28 7.07z" class="D"/><path d="m50.09 15.32.57 12.02-12.29 7.27-1.1-12.01 12.82-7.28zm-27.66-.45 1.63 11.79-12.77 7.17-2.2-11.79 13.34-7.17z" class="C"/><path d="M22.43 14.87 9.09 22.04 0 14.32l13-6.69 9.43 7.24z" class="D"/><path d="m9.09 22.04 2.2 11.79-8.83-7.9L0 14.32l9.09 7.72zm11.69 9.92 1.82 11.98-9.3-8.31-2.13-11.83 9.61 8.16z" class="B"/><path d="m34.52 24.16 1.22 12.01-13.14 7.77-1.82-11.98 13.74-7.8z" class="C"/><path d="m34.52 24.16-13.74 7.8-9.61-8.16 13.41-7.28 9.94 7.64z" class="D"/><path d="m20.75 20.44-3.02 1.66 2.41 1.97-3.35 1.85 2.17 1.81 3.37-1.87 2.41 1.96 3.08-1.73-2.43-1.95 3.37-1.87-2.22-1.74-3.36 1.85-2.43-1.94z" fill="#fff"/></svg>