<svg xmlns="http://www.w3.org/2000/svg" viewBox="0 0 64.056 56.092" fill="#00285e"><path d="M22.895 14.923a3.786 3.786 0 1 1-2.605-7.111L41.044.231a3.744 3.744 0 0 1 4.866 2.256 3.645 3.645 0 0 1-2.253 4.739zm0 11.252a3.786 3.786 0 1 1-2.605-7.111l20.754-7.573a3.731 3.731 0 0 1 4.866 2.248 3.637 3.637 0 0 1-2.253 4.736zm0 11.249a3.787 3.787 0 1 1-2.605-7.111l20.754-7.572a3.729 3.729 0 0 1 4.866 2.246 3.639 3.639 0 0 1-2.253 4.737zM0 46.781h6.882v1.893H2.379v1.54h4.384v2.01H2.379v1.658h4.62v2.02H0v-9.121zm17.794 0h2.497v9.121h-2.497zm11.511.235-.118 1.893c-2.015-1.059-5.102-.706-5.102 2.256-.118 3.08 3.087 3.55 5.22 2.481l.118 2.011c-3.677 1.069-7.953 0-7.953-4.492 0-4.267 4.394-5.453 7.835-4.149zm7.353-.117-.118 1.893c-1.308-.706-3.677-.706-3.677.353 0 1.657 4.266.48 4.266 3.913 0 3.315-4.03 3.433-6.646 2.599l.128-2.011c1.652.716 4.031.951 4.031-.353 0-1.54-4.276-.706-4.276-3.914 0-2.717 3.323-3.433 6.292-2.481zm7.471 0-.116 1.893c-1.306-.706-3.68-.706-3.68.353 0 1.657 4.267.48 4.267 3.913 0 3.315-4.027 3.433-6.634 2.599l.118-2.011c1.662.716 4.031.951 4.031-.353 0-1.54-4.267-.706-4.267-3.914 0-2.717 3.312-3.433 6.28-2.481zm11.514-.118h3.076l2.968 5.806v-5.806h2.369v9.121h-2.96l-3.204-6.041v6.041h-2.249v-9.121zm-7.719 4.502c0 1.422.599 2.962 1.898 2.962 1.426 0 2.014-1.54 2.014-2.962 0-1.187-.587-2.962-2.014-2.962-1.298 0-1.898 1.54-1.898 2.962zm1.898-4.737c2.617 0 4.63 1.422 4.63 4.737 0 3.197-2.014 4.737-4.63 4.737-2.489 0-4.502-1.54-4.502-4.737 0-3.315 2.013-4.737 4.502-4.737zm-41.043.235h4.394c1.298 0 2.959.471 2.959 2.364a2.182 2.182 0 0 1-1.661 2.256 1.284 1.284 0 0 1 .835.824c0 .118 1.308 3.56 1.308 3.678h-2.615l-.944-2.844a.909.909 0 0 0-.835-.598c-.472 0-1.062-.118-1.062 0v3.443H8.779zm2.379 3.786h1.298a1.087 1.087 0 0 0 1.19-1.059c0-.598-.472-.951-1.19-.951h-1.298z"/></svg>