<svg xmlns="http://www.w3.org/2000/svg" width="200" height="200" viewBox="0 0 200 200"><path style="stroke:none;fill-rule:nonzero;fill:#1f407a;fill-opacity:1" d="M124.848 94.172h3.129v.062l-4.204 20.95h-3.039v-.063l.403-2.176c-1.504 1.657-3.559 2.485-6.137 2.485-3.496 0-5.86-2.395-5.86-5.95 0-.738.094-1.289.215-1.902l.032-.183 2.668-13.223h3.066v.062l-2.605 12.883c-.121.703-.215 1.41-.215 1.934 0 2.27 1.41 3.648 3.804 3.648.829 0 5.06-.277 6.165-5.707Zm18.465-.277c-2.391 0-4.477.953-5.829 2.668l.493-2.36v-.062h-3.04l-4.203 20.953v.058h3.102l2.574-12.851c.645-3.281 3.223-5.676 6.074-5.676 1.227 0 2.207.492 2.946 1.473l.03.03 2.517-2.237-.032-.032c-1.195-1.32-2.699-1.964-4.632-1.964m-50.981 2.914v.062h10.52l-14.016 15.707-.523 2.574h14.937l.523-2.73H92.605l14.051-15.703.524-2.578H92.852Zm55.98 18.285v.058h3.067l4.203-20.98h-3.035Zm41.81-21.2c-2.544 0-4.509.77-6.044 2.364l2.395-11.688h-3.098l-6.195 30.582h3.066l2.574-12.851c1.106-5.43 5.371-5.707 6.2-5.707 2.359 0 3.773 1.351 3.773 3.652 0 .52-.094 1.227-.215 1.934l-2.61 12.941h3.067l2.7-13.219c.124-.707.214-1.289.214-2.086.031-3.527-2.328-5.921-5.828-5.921m-20.43 0c-5.582 0-9.507 3.898-10.765 10.738a19.026 19.026 0 0 0-.305 3.219c0 4.664 2.852 7.546 7.453 7.546 2.668 0 5.09-1.011 7.055-2.945l.031-.031-1.781-2.145-.027-.03-.032.03c-1.629 1.715-3.097 2.391-5.062 2.391-2.18 0-4.54-1.29-4.54-4.906 0-1.137.122-2.086.337-3.13.34-1.78 1.074-4.265 2.73-5.984 1.32-1.347 2.883-2.023 4.633-2.023 1.84 0 3.004.645 4.11 2.3l.03.032 2.27-1.902.031-.032-.03-.03c-1.595-2.145-3.466-3.098-6.138-3.098m-15.98-5.489h3.098l.77-3.836h-3.071Zm-29.969 0h3.098l.765-3.836h-3.066Zm-8.222 0h3.101l.766-3.836h-3.067ZM74.324 96.41h-6.93l2.422-11.84H10.891l-6.2 30.582h23.5l1.532-7.636H15.859l.829-4.204H30.55l1.414-6.87H18.098l.828-4.204h21.996l-4.633 22.946h9.633l4.629-22.946h8.097l-4.628 22.946h9.628l2.364-11.84h6.933l-2.394 11.84h9.633l6.195-30.582H76.75Zm0 0"/></svg>