<svg xmlns="http://www.w3.org/2000/svg" width="1000" height="1000"><path fill="rgba(255,255,255,0)" d="M0 0h1000v1000H0z"/><g transform="matrix(27.9806 0 0 -27.9806 499.226 499.226)"><path vector-effect="non-scaling-stroke" d="M0 17.197c-9.495 0-17.196-7.701-17.196-17.196S-9.495-17.196 0-17.196 17.196-9.494 17.196.001 9.496 17.197 0 17.197m0-4.254c-7.146 0-12.942-5.796-12.942-12.942S-7.146-12.942 0-12.942 12.943-7.146 12.943.001 7.147 12.943 0 12.943m0 .386c-7.359 0-13.328-5.969-13.328-13.328S-7.359-13.327 0-13.327 13.328-7.359 13.328.001 7.359 13.329 0 13.329M1.205-4.449v-1.6c.71-.702 1.377-1.154 2.455-1.281l-.02 2.881zm3.524-.009v-2.887c.593.116 1.333.375 2.426 1.307v1.574zm.01 1.188h2.416v1.885H4.739zM1.204-1.401l.003-1.862 2.409.013.024 1.849zm-1.775 9.07V6.657l1.784-.03V5.324l2.776-1.18L6.948 5.31l.031 1.338 1.517.028c.083-1.247.558-2.736 1.015-3.318.257-.311 1.063.088.727.412-.386.511-.529.796-.705 1.677-.093.308.113 1.114-.303 1.368-.104.019-.639-.164-.612.078v.737zm-7.946-5.392c.16-2.751.107-5.329-.312-10.263l1.583-.067c.285 3.731.49 7.335.312 10.325zm-.125 2.655-.004-1.54 2.728.009-.013-12.23 1.718-.025.135 12.261 2.759.005.002 1.535zm.069 1.251h7.085v1.371h-7.085zm5.236-4.032.197-10.329 1.717.075-.254 10.275zm3.231 2.815.029-2.765C1.841-.115 6.971.785 8.082 2.274l-.013 2.721c-.416.116-1.066.052-1.509-.041l.009-1.88C5.56 1.714 2.17 1.798 1.398 3.062l-.017 1.904c-.288.152-1.199.124-1.487 0m-.26-5.149v-5.853c.987-3.412 7.68-4.015 9.089 0L8.697-.151zM0 12.157A12.16 12.16 0 0 1-12.156.001 12.16 12.16 0 0 1 0-12.156 12.16 12.16 0 0 1 12.156.001 12.16 12.16 0 0 1 0 12.157m-15.284-12.9a.83.83 0 1 1 .002-1.66.83.83 0 1 1-.002 1.66m30.481.159a.83.83 0 0 1-.718-1.246.83.83 0 0 1 1.549.416.83.83 0 0 1-.831.83m-.379 2.358 1.021-.405a.6.6 0 0 0 .221-.126.6.6 0 0 0 .098-.22l.136.027-.16.826-.136-.027.008-.041q.029-.149-.03-.203-.063-.04-.214.016l-.716.282.624.697q.07.07.132.04.049-.033.072-.155l.011-.054.136.027-.221 1.137-.136-.026.005-.027a.5.5 0 0 0 .01-.196.4.4 0 0 0-.112-.147l-.843-.938-.489-.094q-.24-.062-.293.21l-.018.094-.136-.026.232-1.191.135.026-.01.055q-.077.323.2.347zm.373 3.116.142-.388q.077-.208.03-.283-.033-.07-.287-.222l.048-.129.604.277-.043.117q-.098.024-.122.132l-.576 1.582a.3.3 0 0 0-.019.095.3.3 0 0 0 .028.084l-.038.104-.646-.162.052-.142q.291.046.362.013.083-.027.154-.222l.146-.402-1.516-.552q-.242-.103-.341.17l-.042.116-.13-.047.435-1.192.129.046-.029.079q-.126.306.144.374zm-1.154 2.74.019-.037q.137-.24-.115-.352l-1.253-.64q-.215-.125-.341.121l-.019.037-.122-.063.507-.995.122.062-.024.05q-.144.252.108.364l1.241.633q.234.119.359-.127l.025-.049.124.063-.508.995zm-2.724.568.054-.08q.062.007.084-.026a.6.6 0 0 0 .047-.119q.113-.29.213-.439.417-.568.95-.275a.68.68 0 0 1 .274.435q.044.23-.011.658-.044.486.103.586.21.108.399-.147.227-.363-.065-.742l.077-.116.431.374-.039.058q-.027.015-.019.003-.046.019-.062.042a1 1 0 0 0-.031.096 1.7 1.7 0 0 1-.19.404q-.411.536-.881.27-.377-.354-.224-.9.105-.477-.138-.709-.29-.162-.51.14-.246.366.095.796l-.077.114zm.23 3.025-.771-.67.09-.104q.453-.52.829-.176.367.337-.022.805zm-.875-.76.182-.208q.006-.178-.08-.581a3 3 0 0 1-.076-.376.74.74 0 0 1 .055-.337q.088-.143.296-.382l.144-.167.083.072a.64.64 0 0 0-.14.499q.01.156.07.445.07.318.073.484.438-.294.77-.025a.54.54 0 0 1 .193.388q.046.35-.455.901a8 8 0 0 1-.4.419q-.072.083-.246.263a.4.4 0 0 0-.074.064l-.104-.091.046-.053q.217-.23-.008-.39l-1.052-.914q-.198-.191-.397.057l-.036.042-.104-.091.806-.926.103.09-.072.083q-.181.21.017.381zm-.633 1.985q.182-.101.007-.402l.11-.083.275.432-1.554 1.171-.083-.11.033-.026q.262-.18.093-.38l-.855-1.135q-.146-.218-.37-.032l-.11.083-.083-.111 1.696-1.278.367.416-.111.083q-.287-.267-.536-.046l-.474.357q-.137.07-.002.227l.382.506.419-.316q.303-.192.104-.388l.11-.083.424.561-.111.083q-.146-.217-.358-.04l-.463.349.473.628zm-3.81.008.201-.09 1.364 1.265q.3.304.529.171l.013-.004.057.126-.82.364-.056-.126.075-.034q.26-.13.123-.266l-1.019-.966-.02 1.309q-.01.184.069.225.08.04.28-.049l.05-.023.057.127-1.122.499-.056-.126.026-.012q.138-.061.178-.14.034-.06.044-.276zm-1.617 2.812.039-.013q.267-.072.168-.33l-.434-1.338q-.065-.24-.326-.156l-.039.013-.043-.131 1.062-.345.043.13-.053.018q-.28.076-.18.335l.43 1.325q.08.248.343.164l.053-.017.043.131-1.063.345zm-2.712.218 1.422-1.97.192-.027.261 1.858q.013.194.312.138l.041-.007.02.137-.902.127-.019-.137.041-.006q.218-.03.265-.093.047-.061.02-.253l-.148-1.052-1.224 1.691-.711.1-.02-.137a.5.5 0 0 0 .264-.107l-.227-1.612q-.015-.22-.29-.182l-.027.004-.019-.136.847-.119.02.136q-.374.025-.302.336zm-1.75.473h.055q.303.014.289-.358v-.856q-.013-.634-.689-.649-.62.016-.634.58v1.049q0 .234.248.234h.055v.138h-1.104v-.138h.07q.26.014.248-.234v-1.049q.012-.786 1.034-.8.98.013.993.91v.884q-.013.303.317.289h.029v.138H.146zm-6.725-1.294.05.025q.265.146.417-.196l.375-.769q.265-.575-.335-.884-.565-.26-.825.243l-.459.942q-.103.21.12.319l.049.024-.06.124-.992-.484.06-.124.063.031q.23.127.325-.102l.46-.942q.357-.7 1.28-.266.875.442.494 1.253l-.386.794q-.146.267.158.399l.024.013-.06.124-.818-.399zm-3.312-3.072q.702-.8 1.367-.35.518.456-.006 1.168-.7.779-1.337.337-.52-.475-.024-1.155m-.302-.458q.726-.744 1.682-.041.95.822.303 1.753-.714.772-1.69.071-.943-.853-.295-1.783m-.333-1.78.105-.088.727.867-.105.088-.036-.042q-.176-.232-.378-.043l-1.078.905q-.21.157-.022.36l.044.053-.106.089-.727-.867.106-.088.018.02q.184.241.387.054l.423-.355-.754-.898-.433.363q-.21.16-.013.371l.035.043-.105.089-.728-.867.107-.089.035.042q.168.201.358.042l1.079-.904q.2-.17.032-.37l-.035-.042.105-.088.727.866-.105.088-.036-.042q-.178-.211-.378-.043l-.486.408.753.899.476-.4q.211-.177.043-.378zm-1.682-1.213-.069-.119q.24-.219.283-.338.042-.121-.048-.276l-.544-.943-.779 2.265-.168.097-1.021-1.768.5-.321.07.119q-.345.23-.174.499l.475.824.779-2.264.168-.097 1.117 1.935zm-2.848-2.611.021.051q.1.285.44.134l.793-.321q.583-.25.344-.882-.246-.57-.776-.371l-.972.393q-.217.087-.124.318l.02.051-.128.051-.413-1.023.128-.051.026.064q.085.247.31.143l.972-.393q.735-.282 1.13.658.354.914-.472 1.263l-.819.33q-.287.101-.149.403l.01.026-.128.051-.342-.844zm-.895-3.332.108.682q.007.222.334.17l.02.123-.491.078-.278-1.758.122-.02.007.041q.023.233.334.17l1.403-.221q.22-.021.173-.238l-.009-.054.136-.022.164 1.036-.136.022-.011-.069q-.013-.261-.337-.184l-.558.089.086.545q.027.26.284.206l.022.136-.694.111-.022-.137q.276-.015.197-.338l-.078-.491zM8.688-10.427l-.009-.023zm1.773-2.213c-.061-.059-.367-.229-.012-.247.244.016.247.157.271.182.026.053.007.34-.259.065m-1.777 2.201c-.022-.048-.033-.149-.013-.186a.08.08 0 0 1 .054-.045c.013-.004.017-.008.028-.017.041-.032.087-.035.146-.036.098.001.139-.028.23.022.131.065.139.333.255.505.107.268.201.144.193.038-.028-.373-.156-.74-.273-1.012-.158-.37-.543-1.068-.47-1.203.177-.346.454-.192.419.014-.015.114-.006.185.068.333.123.261.307.621.465.865.235.435.615.372.638.039-.078-.517-.271-.444-.587-.711-.3-.422-.035-.338.069-.241l.027.023.021.017c.238.208.176-.228.163-.374-.003-.029-.003-.035.01-.056.075-.126-.006-.19-.173-.317l-.021-.012c-.2-.079-.149-.201-.093-.256.008-.008.011-.009.022-.01.132-.007.233-.035.349-.053l.013-.003c.126-.038.235-.014.353-.023.223.009.451.216.48.53.016.273-.203.305.071.487.183.151.312.444-.048.378-.102-.053-.153-.163-.368-.331l-.035-.03c-.09-.084-.316-.233-.264.142l.001.02c-.003.255.039.265.126.373.244.36.303 1.091-.183 1.079-.157-.006-.499-.282-.381.083.011.049.007.082.02.16l.001.017c-.003.24.114.612-.192.538l-.014-.002c-.045-.002-.065.009-.123-.013l-.022-.011c-.114-.073-.236-.153-.306-.265-.017-.025-.021-.031-.045-.05-.13-.102-.181-.228-.391-.277-.082-.03-.168-.016-.22-.129m-.308-.343c-.059-.094-.024-.224.002-.281l.011-.034c.04-.163.127-.139.215-.129.145.021.218.023.248.226.019.097.052.191-.105.229l-.027.01c-.031.014-.063.016-.112.021a.19.19 0 0 1-.209-.016.1.1 0 0 1-.023-.026m-18.197 1c-.035-.057.008-.075.025-.103.018-.048.003-.076.022-.15.003-.017.006-.065.024-.104l.001-.007c-.004-.092.01-.106.022-.155l.004-.007q.017-.023.081-.045l.014-.006c.058-.034.145-.062.211-.041.027.009.042.045.038.063l-.002.01c.002.074-.033.1-.035.146l-.001.012c-.007.042-.02.09-.028.132-.064.088-.116.164-.196.243l-.009.006c-.103.054-.136.032-.163.012l-.005-.003zm.434-.813c-.245.031-.617.006-.882.051h-.015a.7.7 0 0 0-.294.017l-.015.009c-.165.072-.09.131-.162.191l-.004.003c-.035.018-.095.027-.152-.042l-.003-.005c-.099-.188-.076-.37-.014-.419l.011-.012c.077-.084.198-.09.27-.094h.006l.003-.002c.069-.03.041-.07-.001-.113l-.007-.006c-.056-.027-.102-.035-.14-.042l-.008-.002c-.239-.1-.42-.094-.525-.081-.229.017-.378.092-.554-.09l-.01-.013c-.089-.158-.088-.251-.049-.284.075-.075.251.005.369.03l.005.002c.074.02.111.032.194.014.191-.06.07-.172.011-.21-.313-.222-.293-.391-.245-.454l.008-.007c.079-.06.13-.027.176-.008l.013.006c.025.017.054.027.078.048l.019.015c.018.011.022.019.031.026l.014.009c.015.009.035.015.052.027l.028.019c.083.082.065.123.206.29.015.018.027.032.038.052.085.144.166.033.226-.031.02-.022.042-.04.06-.064.053-.067.107-.048.162-.055l.013-.001c.089.009.315.047.279.203-.041.084-.123.017-.186.017l-.033-.004c-.082-.007-.192.036-.159.17l.001.004c.008.048-.001.087.051.141l.004.004a.3.3 0 0 0 .088.052c.072.022.115.027.235.072l.015.004c.052.002.091.036.141.043.029.003.04.009.061.019q.045.025.093.046l.011.003c.024.006.04.009.068.023l.004.003a.7.7 0 0 0 .125.064l.007.004c.105.059.455.117.424.239l-.002.006c-.032.053-.024.084-.134.112zm1.186-.543c-.039.126-.122.101-.179.111l-.008.001c-.176.002-.31-.034-.41-.003-.135.05-.228.254-.384.165-.07-.079-.035-.154.018-.202.045-.042.107-.041.127-.081.035-.06-.024-.087-.053-.098-.076-.039-.105-.073-.121-.077l-.009-.002c-.039-.012-.08-.008-.116-.039l-.01-.004a1 1 0 0 1-.173-.068c-.038-.024-.101-.031-.152-.046-.034-.016-.053-.015-.082-.025-.041-.018-.084-.044-.115-.049l-.019-.006c-.042-.023-.08-.037-.128-.074-.078-.05-.124-.109-.194-.121-.109-.085-.158-.161-.303-.239-.088-.055-.192-.151-.267-.17-.151-.143-.137-.308-.092-.346.09-.078.227.14.331.221.081.069.174.095.257.157s.178.193.237.227c.141.085.301.166.444.195.103.021.392.094.331-.08-.037-.056-.142-.102-.212-.154-.126-.116-.158-.102-.236-.155-.116-.161-.042-.294.02-.297.378-.114.609-.133.547-.45-.225-.38-.342-.408-.556-.551-.166-.046-.424-.065-.472.078.036.085.094.07.138.129.017.034-.022.087.016.124.055.06.078.05.157.097.101.06.21.133.143.225-.075.254-.344.153-.473.146-.045-.001-.097-.01-.117.068-.007.028-.023.077-.108.085-.092.022-.17-.081-.235-.139-.029-.028-.074-.074-.074-.108.002-.082.014-.217.045-.252.063-.062.137-.064.209-.101.074-.055-.005-.123-.087-.127-.054-.003-.158.016-.167-.035.008-.065.116-.076.15-.084.085-.02.087-.087.085-.125v-.006c.013-.128.067-.165.142-.217l.006-.004c.144-.069.32-.082.544-.048a.5.5 0 0 1 .292.157c.01.008.014.012.026.017a.45.45 0 0 1 .148.116l.007.008c.057.042.124.091.166.147.133.179.375.313.257.621-.107.25-.31.242-.465.36l-.008.007a.07.07 0 0 0 .001.091q.002.005.006.006c.027.017.051.012.086.022a.3.3 0 0 1 .105.057c.044.043.021.099.106.142.097.049.259.058.259.183.003.056-.016.094-.125.153-.063.033-.125.061-.136.113-.007.065.079.059.122.087l.007.003a.7.7 0 0 1 .189.067c.091.031.223.041.344.049.127.008.24.019.218.148m2.763-3.24c-.039-.079-.027-.145-.037-.216.059-.249.203-.156.246-.063a.43.43 0 0 1 .046.282c-.004.064-.095.243-.255-.003m-.047.521c-.047-.069-.03-.116-.141-.207-.085-.143.045-.117.108-.074.056.038.021.059.167.115.098.116-.043.279-.134.166m.076 1.423c-.096.065-.278-.113-.41-.197-.023-.014-.031-.024-.048-.044-.11-.132-.303-.237-.453-.357l-.018-.017c-.139-.16-.302-.382-.442-.492l-.02-.012c-.241-.128-.621-.327-.742-.746l-.003-.025c-.003-.08-.013-.211.103-.247.047.037.115.21.16.303.028.056.151.18.281.3.025.02.103.057.139-.027.015-.042.058-.097.167-.034a.7.7 0 0 1 .139.132q.008.012.014.026a.5.5 0 0 0 .097.143c.056.057.138.142.296.159.247.02.513-.06.418-.209l-.009-.014c-.185-.333-.501-.549-.719-.708-.483-.289-.6-.299-.73-.166-.061.055-.16.062-.209.061-.022-.001-.028-.009-.038-.026-.078-.142-.028-.217.008-.262l.027-.036c.12-.19.38-.185.509-.162q.007 0 .014.004a2 2 0 0 1 1.015.662c.031.038.049.06.066.073.081.053.147.104.095-.074-.039-.089-.106-.209-.046-.359a.4.4 0 0 0 .03-.122.3.3 0 0 1 .054-.147l.041-.055q.02-.03.043-.056c.124-.133.33.048.391.127a.57.57 0 0 1 .17.395c.013.218.144.107.18.022a.2.2 0 0 1 .024-.043c.195-.31.218-.894-.061-1.155-.304-.309-.728-.075-.739-.156-.099-.141.218-.335.423-.309.046.005.099.026.144.041.238.078.614.308.592 1.098-.045.407-.204.842-.557 1.088a.5.5 0 0 0-.09.16c-.053.074-.102.167-.189.235a.34.34 0 0 0-.069.133c-.004.016-.002.023.001.038a.5.5 0 0 1 .002.153l-.011.053c-.014.061-.055.16-.139.17-.083-.01-.112-.113-.113-.154.124-.219-.129-.239-.276-.09-.116.075-.165-.002-.248.023-.031.012-.095.049-.003.129.246.258.906.587.739.773m1.669-1.663c-.049-.13-.043-.182-.05-.274-.02-.204-.137-.207-.214-.293-.174-.158.008-.163.098-.129q.028.012.054.027c.089.043.162.108.268.127.033.007.059.009.091.022.098.038.272.126.178.209-.016.014-.03.022-.044.038-.042.047-.102.104-.093.191.003.026.009.04.003.067-.046.232-.234.153-.291.015m8.482.636c.352-.741.304-.795.152-.932-.042-.038-.058-.056-.113-.069-.436-.104-.367-.245-.366-.38 0-.031-.006-.043.015-.069a.63.63 0 0 1 .333-.159c.079.001.171.087.247.076.12-.049.083-.201.087-.389-.013-.144.042-.3.291-.293.094.015.137.177.131.206-.048.199-.277.714.028.99l.033.033c.234.271.483.561 1.052.831.025.011.032.014.045.04.094.183-.009.38-.377.364a.1.1 0 0 1-.059-.013c-.119-.058-.172-.195-.264-.316-.099-.128-.241-.238-.347-.351-.113-.096-.248-.335-.35.205-.007.035 0 .052-.001.084-.003.095-.146.255-.254.376q-.01.012-.022.021c-.055.036-.234.136-.292-.117-.015-.06.005-.083.031-.138m1.421-1.085c-.071-.381.289-.48.454-.515.043.001.304.08.297.341-.016.074-.103.164-.388.215-.124.012-.312.093-.363-.041m-7.725.099-.137.013a1.7 1.7 0 0 0-.538-.331l.033-.073q.143.028.308.102l-.098-1.108q-.007-.088-.098-.091l-.158.014-.008-.089.812-.071.008.089-.168.014q-.09.008-.081.116zm.936-.487q-.03-.416.168-.412a.4.4 0 0 1 .21.073q.025.16.028.268.013.457-.206.463-.198.016-.2-.392m-.161-1.147q.82.165.891.938-.001.645-.528.691-.477-.027-.531-.522.018-.448.424-.489a.45.45 0 0 1 .26.083q-.123-.504-.574-.631zm1.354.789.071-.039a.44.44 0 0 0 .197.054q.299-.013.316-.371-.013-.318-.231-.343-.08 0-.151.107-.072.117-.162.115-.119-.002-.127-.132.025-.177.353-.18.585.042.613.558-.04.497-.566.515a.7.7 0 0 1-.209-.034l.004.308.605.013.033.299-.079-.002q-.008-.05-.088-.052l-.566-.012zm1.969.553q-.051.285-.289.259-.205-.039-.184-.247t.387-.315a.34.34 0 0 1 .086.303m.173-.908q.01.203-.44.337-.124-.117-.083-.323.047-.324.303-.296.244.055.22.282m.071.954q-.089.339-.536.303-.428-.092-.409-.49.024-.237.337-.383-.287-.172-.251-.418.093-.367.56-.33.467.098.456.528-.04.265-.4.394.287.181.243.396M0 17.824c9.843 0 17.824-7.981 17.824-17.823A17.83 17.83 0 0 0 0-17.824 17.83 17.83 0 0 0-17.824.001 17.83 17.83 0 0 0 0 17.824" fill="#e50012" fill-rule="evenodd"/></g></svg>