<svg xmlns="http://www.w3.org/2000/svg" width="200" height="200"><path d="M100.16 199.84c-55.2 0-100-44.8-100-100a100.16 100.16 0 0 1 29.281-70.719c39.04-39.043 102.399-39.043 141.438 0s39.043 102.399 0 141.438c-18.719 18.8-44.16 29.363-70.719 29.28zm0-195.04C47.68 4.8 5.121 47.36 5.121 99.84c0 25.2 10 49.36 27.84 67.2 37.117 37.12 97.277 37.12 134.48 0s37.118-97.278 0-134.481a94.63 94.63 0 0 0-67.28-27.758zm0 0" fill="#b2a268"/><path d="M100.16 191.922c-50.8 0-92.082-41.203-92.082-92.082A92.12 92.12 0 0 1 35.04 34.719C70.961-1.2 129.281-1.2 165.2 34.719s35.922 94.242 0 130.16c-17.12 17.36-40.558 27.121-65.039 27.043zm0-183.121C49.922 8.8 9.121 49.6 9.121 99.84s40.8 91.039 91.04 91.039 91.038-40.8 91.038-91.04c0-24.16-9.597-47.359-26.719-64.398-16.96-17.12-40.16-26.722-64.32-26.64zm0 18.078c-40.32 0-72.96 32.64-72.96 72.96s32.722 72.962 72.96 72.962 73.04-32.723 73.04-72.961-32.72-72.961-73.04-72.961zm68.32 81.441c-.16 1.2-.32 2.399-.558 3.602l-3.602 1.36c-.242.956-.398 1.917-.64 2.796l2.64 2.8a55.999 55.999 0 0 1-1.12 3.442l-3.759.801a26.72 26.72 0 0 1-1.12 2.64l2.16 3.2c-.481 1.117-1.04 2.16-1.68 3.277l-3.84.242c-.48.801-.961 1.68-1.52 2.48l1.68 3.52c-.723.961-1.36 2-2.16 2.961l-3.84-.402c-.64.723-1.2 1.52-1.84 2.242l1.04 3.68a39.36 39.36 0 0 1-2.56 2.559l-3.683-1.04-2.156 1.918.476 3.84c-.957.723-1.918 1.524-2.878 2.16l-3.52-1.597c-.8.558-1.68 1.039-2.48 1.52l-.16 3.84-3.2 1.679-3.2-2.078c-.882.398-1.76.797-2.64 1.117l-.718 3.762c-1.122.398-2.243.8-3.442 1.12l-2.8-2.562c-.88.242-1.84.48-2.801.723l-1.278 3.598c-1.203.242-2.402.402-3.601.558l-2.399-3.039-2.883.242-1.84 3.36c-.636 0-1.199.078-1.84.078h-1.84l-1.917-3.36-2.883-.238-2.398 3.04c-1.2-.161-2.399-.321-3.602-.56L86.718 164c-.956-.238-1.917-.398-2.796-.64l-2.8 2.64a55.998 55.998 0 0 1-3.442-1.121l-.801-3.758c-.879-.32-1.84-.723-2.64-1.121l-3.2 2.16c-1.117-.48-2.16-1.039-3.277-1.68l-.16-3.84c-.801-.48-1.68-.96-2.48-1.519l-3.52 1.68c-.961-.723-2-1.36-2.961-2.16l.398-3.84c-.719-.64-1.52-1.2-2.238-1.84L53.12 150a38.18 38.18 0 0 1-2.562-2.559l1.043-3.68-1.922-2.16-3.84.477c-.719-.957-1.52-1.918-2.16-2.879l1.601-3.52c-.562-.8-1.043-1.679-1.52-2.48l-3.84-.16-1.683-3.2 2.082-3.28c-.398-.88-.8-1.758-1.12-2.637l-3.759-.723c-.402-1.12-.8-2.238-1.12-3.437l2.558-2.801-.719-2.8-3.601-1.282c-.239-1.2-.399-2.399-.559-3.598l3.04-2.402-.24-2.879-3.359-1.84c0-.64-.082-1.2-.082-1.84v-1.84l3.36-1.921.242-2.88-3.04-2.398c.157-1.203.317-2.402.56-3.601l3.597-1.36c.242-.96.402-1.922.64-2.8l-2.64-2.801c.32-1.117.723-2.32 1.121-3.438l3.762-.8c.32-.88.719-1.84 1.117-2.641l-2.156-3.2c.476-1.12 1.039-2.16 1.598-3.28l3.84-.16c.48-.802.96-1.68 1.519-2.481l-1.68-3.52c.723-.96 1.36-2 2.16-2.96l3.84.402c.64-.72 1.2-1.52 1.84-2.243L50 52.718a39.58 39.58 0 0 1 2.559-2.558l3.68 1.04 2.16-1.919-.477-3.84c.957-.722 1.918-1.52 2.879-2.16l3.52 1.598c.8-.559 1.679-1.04 2.48-1.52l.16-3.84 3.2-1.68 3.198 2.083c.88-.402 1.762-.8 2.641-1.121l.719-3.762c1.12-.398 2.242-.8 3.441-1.117l2.8 2.558 2.802-.718 1.277-3.602c1.2-.238 2.402-.398 3.602-.558l2.398 3.039 2.883-.243 1.84-3.359c.636 0 1.199-.078 1.84-.078h1.84l1.917 3.36 2.88.238 2.402-3.04c1.199.16 2.398.32 3.597.56l1.364 3.6c.957.243 1.918.4 2.796.641l2.801-2.64a56 56 0 0 1 3.442 1.12l.8 3.759c.88.32 1.84.722 2.637 1.12l3.203-2.16c1.117.481 2.16 1.04 3.278 1.602l.242 3.84c.8.48 1.68.96 2.48 1.52l3.52-1.68c.96.719 2 1.36 2.96 2.16l-.402 3.84c.72.64 1.52 1.199 2.243 1.84l3.68-1.04a38.56 38.56 0 0 1 2.558 2.56l-1.04 3.679 1.919 2.16 3.84-.48c.722.96 1.52 1.921 2.16 2.878l-1.598 3.524c.559.797 1.04 1.68 1.52 2.476l3.84.16 1.68 3.204-2.083 3.199c.402.879.8 1.758 1.121 2.64l3.762.72c.398 1.12.8 2.238 1.117 3.44l-2.558 2.798.718 2.8 3.602 1.282c.238 1.199.398 2.398.558 3.597l-3.039 2.403.243 2.879 3.359 1.84c0 .64.078 1.199.078 1.84v1.84l-3.36 1.92-.238 2.88zm0 0" fill="#003057"/><path d="M106.559 48.719c-.32-2.88-2.32-4.719-3.598-7.04-2.16-4-1.922-5.44-1.922-5.44s.16-1.68-1.117-1.68c-1.121 0-1.684 1.12-2 1.84-.48 1.28-.8 2.562-.961 3.921-.32 2.88-2.64 3.84-3.281 8.239 0 0-.399 4.882 2.48 7.12h7.918c2.961-2.48 2.48-6.96 2.48-6.96zm-8.637 5.441c-1.684-1.2-2.563-3.12-2.563-5.12 0-2.56 2.563-6.161 2.563-6.161s.476 3.441 1.758 5.68c1.52 2.8-1.758 5.601-1.758 5.601zm6.078-.32a8.383 8.383 0 0 1-1.922 1.84h-3.52c2.403-2.801 4-4.72 2.32-8.399-3.038-6.562-1.597-10.48-1.597-10.48.239 1.199.239 2.078 2.239 5.758.558.96 1.12 1.84 1.84 2.64 2.16 2.48 2.402 6 .64 8.64zM82.96 134c-.96.879-2.16 1.602-3.44 2.078a130.701 130.701 0 0 0 5.039 6.563v-4.88a3.64 3.64 0 0 1-.957-2.8v-1.52a4.7 4.7 0 0 1-.641.559zm34.24 0-.481-.48v1.28c.082 1.04-.32 2-.957 2.802v4.957c1.84-2.16 3.52-4.32 5.039-6.559-1.281-.32-2.563-1.04-3.602-2zm-33.68-19.2c-4.48 3.2-5.598 6.88-5.84 7.759v5.68c2.718-.239 4.64-.88 4.96-2.317.16-.723.32-1.203.56-1.203.16 0 .241.082.402.16zm34.48 0c-.719-.8-1.121-1.84-1.2-2.878v12.797c.079 0 .16-.078.24 0 .241 0 .401.48.562 1.203.32 1.437 2.238 2.156 5.117 2.316v-6.476A17.084 17.084 0 0 0 118 114.8zM86.16 98.32H73.04v.239c0 .562.722.722.722.8V102c0 .398.238.8.558.96h1.282c.238.24.476.481.558.72.078.96.32 1.922 1.04 2.082 0 .476.16.879.402 1.277.078.48.078 1.441.078 2v2.8c1.36-1.679 2.879-3.198 4.718-4.48.48.641.883 1.282 1.204 2v-.398c.078-.48.078-1.441.078-2 .242-.402.398-.8.398-1.281.402-.16.723-.48.8-.88 4.481 6 9.044 7.598 12.243 8.079v29.762h6.078v-29.762c3.2-.48 7.762-2.16 12.242-8.16.079.48.399.8.797.96 0 .481.16.88.403 1.282.078.48.078 1.437.078 2v1.84a7.218 7.218 0 0 1 1.68-3.922c1.601 1.36 3.042 3.043 4.242 4.723v-2.641c.078-.48.078-1.441.078-2 .242-.402.402-.8.402-1.281.719-.239.957-1.121 1.04-2.078.16-.243.398-.48.558-.723h1.441c.32-.238.559-.559.48-.957v-2.64c0-.083.079-.16.079-.16.32-.083.562-.321.562-.642v-.242h-41.12zm14 13.121c-2.8 0-10 0-16.48-11.52h1.761c1.278 1.278 7.04 5.36 14.637 5.36 7.602 0 13.442-4.082 14.64-5.36h1.762c-6.242 11.52-13.52 11.52-16.32 11.52zm0 0" fill="#b2a268"/><path d="M103.441 152.96a1.32 1.32 0 0 0-.96.4c-.481.562-.481 1.359 0 2 .238.242.64.402.96.402.399 0 .72-.16.957-.403.48-.558.48-1.359 0-2-.238-.32-.636-.398-.957-.398zm0-1.28c.32 0 .637-.16.797-.32a1.32 1.32 0 0 0 0-1.68 1.16 1.16 0 0 0-1.68 0 1.33 1.33 0 0 0 0 1.68c.243.242.563.32.883.32zm-7.363 1.28a1.32 1.32 0 0 0-.957.4c-.48.562-.48 1.359 0 2 .238.242.64.402.957.402a1.31 1.31 0 0 0 .961-.403c.48-.558.48-1.359 0-2-.238-.32-.559-.398-.96-.398zm0-1.28c.32 0 .64-.16.8-.32a1.32 1.32 0 0 0 0-1.68c-.237-.239-.48-.32-.8-.32s-.637.16-.797.32a1.32 1.32 0 0 0 0 1.68c.239.16.48.32.797.32zM65.2 131.762c2.241-3.121 3.6-3.442 8.48-3.364h.96c-5.038-9.199-8.16-19.277-9.12-29.84 0 0-1.2-12.796 1.601-23.038 0 0 6.957 2.878 17.438 4.64a25.246 25.246 0 0 1 31.363 0c10.476-1.762 17.437-4.64 17.437-4.64 2.801 10.242 1.602 23.039 1.602 23.039-.961 10.48-4.082 20.562-9.2 29.84h.798c4.96-.16 6.242.242 8.48 3.363 0 0-4.16-.16-6.078.718 0 0 5.2 1.122 6.719 3.52C157.762 97.762 142 61.602 142 61.52c-1.52-3.598-4.398-8.641-9.68-8.641-2.8-.078-5.199 2.16-5.28 5.043-.08 2.797 2.16 5.2 5.038 5.277.082 0 .242.082.242.16s0 .082-.082.16c-1.52 1.52-6.316 4.243-13.199 5.282-12.879 2.078-14.719-4.64-14.96-5.602.562-.16 1.6-.558 1.6-1.36-.077-.64-.238-.878-.8-.96h-.8c0-.879.401-1.68 1.12-2.16.48-.32.961-.559 1.52-.797.562-.16.722-.723.8-1.363-.078-.637-.238-.88-.8-.957h-12.64c-.56.16-.72.32-.798.957.078.64.239 1.28.797 1.363.48.238.961.476 1.524.797.718.48 1.117 1.281 1.117 2.16h-.797c-.563.16-.723.32-.8.96 0 .88.956 1.282 1.519 1.36-.16.88-2 7.68-14.961 5.602-6.961-1.121-11.68-3.84-13.2-5.281-.082-.079-.082-.239 0-.239.079-.082.079-.082.16-.082 2.801-.078 5.122-2.398 5.04-5.277s-2.399-5.121-5.282-5.043c-5.277-.078-8.16 5.043-9.597 8.64-.082.083-15.762 36.083 6.238 74.32 1.68-2.237 6.64-3.359 6.64-3.359-2.238-.878-6.48-.718-6.48-.718zm59.76 4.476c-1.358.403-2.722.32-4.081-.078a99.687 99.687 0 0 1-5.04 6.48H84.72a95.654 95.654 0 0 1-5.117-6.562c-1.364.48-2.801.563-4.243.16-3.28-.879-8 .082-10.078.563 7.2 12.16 18.32 24.558 34.957 36.078 16.64-11.438 27.684-23.84 34.961-36-2.078-.559-6.96-1.598-10.238-.64zm-33.358 20.48c0 .083-.082.16-.082.16h-4.4c-.082 0-.16-.077-.16-.077v-1.04c0-.081.078-.16.078-.16h1.441c.079 0 .079 0 .079-.081v-5.598l-1.438.879c-.082.078-.16.078-.16-.082v-1.278c0-.082.078-.16.078-.16l1.52-.96c.082-.083.16-.083.242-.083h1.039c.082 0 .16.082.16.082v7.2c0 .082.078.082.078.082h1.363c.079 0 .16.078.16.078zm6.476-.48c-1.117.961-2.797.961-4 0-.558-.476-.797-1.117-.797-1.84 0-.398.078-.878.32-1.199a1.92 1.92 0 0 1 .797-.8v-.079a1.892 1.892 0 0 1-.636-.718 2.477 2.477 0 0 1-.242-1.043c0-.637.242-1.278.718-1.758 1.043-.961 2.723-.961 3.762 0 .48.48.719 1.039.719 1.758a2.21 2.21 0 0 1-.239 1.043 1.9 1.9 0 0 1-.64.718v.078c.32.243.558.48.8.801.239.403.32.801.32 1.2-.081.722-.32 1.363-.882 1.84zm7.363 0c-1.12.961-2.8.961-4 0-.562-.476-.8-1.117-.8-1.84 0-.398.078-.878.32-1.199a1.93 1.93 0 0 1 .8-.8v-.079a1.868 1.868 0 0 1-.64-.718 2.477 2.477 0 0 1-.242-1.043 2.48 2.48 0 0 1 .723-1.758 2.81 2.81 0 0 1 3.757 0c.48.48.72 1.039.72 1.758a2.21 2.21 0 0 1-.24 1.043c-.16.32-.398.558-.64.718v.078a3.8 3.8 0 0 1 .801.801c.238.403.32.801.32 1.2-.082.722-.32 1.363-.879 1.84zm7.598-.879c-.16.48-.48.88-.879 1.2a2.42 2.42 0 0 1-1.68.402c-.8.078-1.52-.16-2.16-.563-.082-.078-.16-.16-.082-.238v-1.601c0-.079.082-.16.082-.16h1.121c.079 0 .16.081.16.081v.88c0 .081.079.081.079.16.32.16.64.242.879.242.562.078 1.043-.242 1.203-.723.078-.32.16-.64.16-.96s-.082-.638-.16-.958c-.16-.48-.563-.723-1.043-.723-.399-.078-.797.243-1.04.563-.077.078-.077.16-.16.16h-1.039c-.082 0-.16-.082-.16-.082v-4.719c0-.082.078-.16.078-.16h4.641c.082 0 .16.078.16.078v1.121a.17.17 0 0 1-.16.16h-3.437c-.082 0-.082.083-.082.083v1.918h.082c.398-.32.796-.399 1.277-.399 1.121 0 1.84.48 2.16 1.36.16.48.242.96.242 1.519 0 .48-.082.96-.242 1.36zm0 0" fill="#003057"/><path d="M100.238 81.04c9.121 0 16.32 6.722 16.723 15.44 1.039.079 3.2.079 5.277 0-.476-11.44-9.758-20-22-20s-21.52 8.56-21.918 20l5.36-.082C84 87.68 91.2 81.04 100.238 81.04zM78.32 124.078l-.96-.637c-.16-.082-2.801-1.761-2.4-6.96.4-5.122 6.802-9.602 7.04-9.762l.64-.48.481.64c4.238 5.922 1.117 8.48.957 8.562-4.719 3.438-5.52 7.438-5.52 7.438zm3.918-15.52c-1.597 1.204-5.437 4.563-5.68 8.083-.16 2.32.403 3.757.883 4.64.637-1.68 2.239-4.48 5.68-6.96.078-.243 1.598-1.84-.883-5.762zm40 15.68-.238-1.277c0-.082-.719-4-4.64-7.441l-.079-.079c-.082-.082-3.52-3.601.32-9.043l.477-.718.64.558c.243.242 6.16 5.121 6.481 10.16.32 5.122-1.758 6.801-2 6.961zm-3.68-10c2.083 1.84 3.68 4.082 4.641 6.64.563-1.358.723-2.8.563-4.237-.242-3.442-3.684-7.04-5.203-8.403-2.16 3.524-.239 5.762 0 6zm18.482 23.922-1.2-.398c-.078 0-6.719-2-10.719-.801-4.64 1.277-8.242-2.16-8.48-2.402-4-3.84-3.52-5.84-2.48-8 .878-1.918 1.839-2.797 2.8-2.72.96.083 1.2 1.2 1.36 1.923s1.359 1.918 8.077 1.758c5.204-.16 6.801.32 9.204 3.68l.957 1.359-1.68-.079c-.559 0-1.598 0-2.719.079 2.078.8 4.399 2.242 4.64 4.32zm-8.88-3.12c2.078.081 4.238.32 6.32.8-1.44-1.36-4.48-2.32-5.68-2.559l-2.48-.562 2.32-1.04c1.2-.558 3.282-.718 4.72-.718-1.438-1.602-2.801-1.84-6.801-1.762-4.16.082-9.118-.16-9.758-3.12-.082-.157-.082-.24-.082-.4-.399.481-.719 1.04-1.04 1.602-.718 1.438-1.359 2.797 2.16 6.078.083.082 3.2 3.04 6.88 2 1.12-.238 2.242-.398 3.441-.32zm-64.96 3.12.16-1.2c.242-2.081 2.562-3.519 4.64-4.32-1.121-.081-2.16-.081-2.719-.081l-1.68.082.958-1.36c2.402-3.36 4.082-3.84 9.203-3.68 6.718.16 7.918-1.042 8.078-1.761s.398-1.84 1.36-1.918c1.198-.082 2.241 1.68 2.8 2.719.078.238 1.762 4-2.48 8-.239.238-3.918 3.68-8.48 2.398-4-1.117-10.642.8-10.72.8zm3.679-7.281c1.52.082 3.52.242 4.723.723l2.32 1.039-2.48.558c-1.204.32-4.243 1.2-5.68 2.563 2.398-.563 6.636-1.203 9.758-.403 3.761 1.04 6.878-1.918 6.878-2 3.282-3.12 2.243-5.84 2.16-6.078a9.74 9.74 0 0 0-1.038-1.52c-.079.079-.079.16-.079.317-.64 2.883-5.52 3.203-9.761 3.121-4-.078-5.36.16-6.801 1.68zm0 0" fill="#b2a268"/><path d="M14.32 97.441A4.51 4.51 0 0 1 14.559 96c.16-.398.32-.8.64-1.121.082-.078.16-.078.16-.078l1.52.078c.082 0 .16.082.16.082v.078l-.078 1.121c0 .078-.082.16-.16.16H16c-.078 0-.078 0-.078.078-.242.403-.402.801-.402 1.282 0 .879.32 1.52 1.039 1.761a7.89 7.89 0 0 0 1.921.239c.641.082 1.282 0 1.918-.16.32-.079.641-.32.801-.56.242-.32.32-.722.32-1.12.083-.48-.078-.961-.238-1.36-.082-.082-.16-.16-.242-.16l-1.68-.082c-.078 0-.078.082-.078.082l-.082 1.282c0 .078-.078.16-.16.16h-.078L18 97.68c-.078 0-.16-.078-.16-.078l.082-2.641c0-.082.078-.16.156-.16h.082l3.52.078c.16 0 .242.082.32.16a4.25 4.25 0 0 1 .719 2.723c-.078 1.68-.719 2.636-2 3.117-.797.16-1.598.242-2.32.16-.797 0-1.598-.078-2.32-.32-1.2-.48-1.84-1.598-1.759-3.278zm.48-6.241.72-5.84c0-.079.082-.16.16-.16h.082l1.918.241a.17.17 0 0 1 .16.16v.079l-.16 1.039a.17.17 0 0 1-.16.16h-.079l-.64-.078c-.082 0-.082 0-.082.078l-.32 2.48c0 .082 0 .082.081.082l2.079.239c.082 0 .082 0 .082-.078l.238-1.68c0-.082 0-.082-.078-.082h-.082l-.48-.078c-.079 0-.16-.082-.16-.16v-.082l.16-1.04c0-.082.081-.16.16-.16h.081l2.32.32c.079 0 .16.079.16.16v.079l-.16 1.043c0 .078-.081.156-.16.156L20.16 88c-.082 0-.082 0-.082.078l-.238 1.684c0 .078 0 .078.082.078l2.156.238c.082 0 .082 0 .082-.078l.32-2.48c0-.079 0-.079-.082-.079l-.718-.082c-.078 0-.16-.078-.16-.16v-.078l.16-1.043c0-.078.082-.156.16-.156h.082l2 .238c.078 0 .156.078.156.16v.078l-.719 5.84a.17.17 0 0 1-.16.16h-.078l-.96-.16a.17.17 0 0 1-.161-.16V92l.078-.559c0-.082 0-.082-.078-.082h-.078l-5.762-.718c-.082 0-.082 0-.082.078v.082l-.078.558a.17.17 0 0 1-.16.16h-.078l-.961-.16c.078.082 0 0 0-.16 0 .082 0 .082 0 0zm2.079-12.641c.16-.637.48-1.2.96-1.68.481-.399 1.04-.64 1.763-.719.796 0 1.597.16 2.32.32s1.52.399 2.156.801c.563.32.961.797 1.203 1.36.239.64.239 1.28.078 1.918a3.54 3.54 0 0 1-.96 1.68c-.477.402-1.04.64-1.758.722-.801 0-1.602-.16-2.32-.32s-1.52-.403-2.16-.801c-.56-.32-.962-.8-1.2-1.36s-.32-1.28-.082-1.921zm1.281.32c-.238.64.078 1.36.719 1.762.562.32 1.2.48 1.84.64.64.239 1.203.32 1.922.32.879-.081 1.597-.882 1.52-1.761-.083-.48-.321-.961-.72-1.2-.562-.32-1.203-.48-1.84-.64-.64-.238-1.203-.32-1.921-.32-.801 0-1.442.48-1.52 1.199zm.64-6.641 1.36-3.68a2.874 2.874 0 0 1 1.281-1.597c1.118-.48 2.399-.082 3.118.879.32.398.402.96.402 1.441l2.64-.242c.079 0 .079-.078.079-.078l.242-.563c0-.078.078-.078.156-.078h.082l.88.32c.081 0 .081.079.081.16v.079l-.562 1.36c-.079.081-.079.16-.16.16l-3.68.32-.48 1.203c0 .078 0 .078.081.078l2 .719c.078 0 .078 0 .078-.078l.243-.563c0-.078.078-.078.16-.078h.078l.883.32c.078 0 .078.078.078.16v.079l-.961 2.562c0 .078-.078.078-.16.078h-.078l-1.04-.48c-.081 0-.081-.078-.081-.16v-.079l.242-.558c0-.082 0-.082-.082-.082l-5.442-2.078c-.078-.082-.078 0-.078.078l-.16.64c0 .079-.078.079-.16.079h-.078l-.883-.32c-.078.16-.078.081-.078 0zm2.56-3.199-.641 1.602c0 .078 0 .078.082.078l2.078.8c.082 0 .082 0 .082-.078l.64-1.601a1.02 1.02 0 0 0 0-.961c-.16-.32-.402-.559-.64-.64-.32-.16-.64-.16-.883 0-.398.16-.637.48-.719.8zm2.718-9.359c.242-.48.563-.801.883-1.2.32-.32.64-.558 1.039-.718.078-.082.16-.082.238 0l1.282.636c.082.082.082.082.082.16v.083l-.48.96c-.083.079-.083.079-.161.079h-.082l-.64-.32c-.079-.079-.079-.079-.16 0-.4.242-.72.562-.88.96-.398.801-.398 1.52.242 2.078.48.403 1.04.801 1.598 1.043a6.82 6.82 0 0 0 1.762.72 1.32 1.32 0 0 0 .96-.161c.317-.238.637-.48.798-.879.242-.402.402-.883.402-1.36 0-.081-.082-.16-.16-.241l-1.442-.801h-.078l-.64 1.203c0 .078-.082.078-.16.078h-.083l-.878-.48c-.079 0-.079-.079-.079-.16v-.079l1.2-2.402c0-.078.078-.078.16-.078h.078L32 60.48c.16.078.16.16.238.32.16.96-.078 2-.558 2.8-.72 1.52-1.84 2.079-3.2 1.84-.8-.242-1.52-.48-2.16-.882-.718-.32-1.36-.72-1.922-1.278-1.039-.8-1.117-2.082-.32-3.601zm3.122-5.36L28.718 52c.082 0 .082-.078.16 0h.082l.8.559c.079.082.079.082.079.16v.082l-.32.48c-.079.078-.079.078 0 .078l4.878 3.121c.082.079.082.079.082 0l.32-.48c.079-.078.079-.078.16-.078h.08l.8.558c.082.079.082.079.082.16v.079l-1.524 2.32c-.078.082-.078.082-.16.082h-.078l-.8-.562c-.079-.079-.079-.079-.079-.16v-.079l.32-.48c.079-.078.079-.078 0-.078l-4.88-3.122c-.078-.082-.078-.082-.078 0l-.32.48c-.083.078-.083.078-.16.078h-.083l-.797-.558c-.082-.16-.082-.16-.082-.32zm5.12-7.199.801-1.043c.078-.078.16-.078.238-.078l6.961 2.398c.078.082.078 0 .078-.078l.243-.32c.078-.078.078-.078.16-.078h.078l.723.558c.078.079.078.079.078.16 0 0 0 .079-.078.079l-1.602 2c-.078.082-.078.082-.16.082 0 0-.078 0-.078-.082l-.723-.559c-.078-.082-.078-.082-.078-.16l.078-.078.32-.402c.082-.079.082-.079-.078-.079l-1.043-.402-1.758 2.242.641.957c.078.082.078.082.16 0l.32-.398c.079-.078.079-.078.16-.078l.079.078.719.558c.082.082.082.082.082.16l-.082.083-1.598 2c-.082.078-.082.078-.16.078l-.082-.078-.719-.563v-.156l.238-.32c.082-.082.082-.082 0-.16l-4-6.243c0 .082 0 0 .082-.078zm1.758.64 1.684 2.56 1.199-1.602zm6.16-9.601 2-1.922c.082-.078.082-.078.16-.078l.082.078.641.723c.078.078.078.078.078.16l-.078.078-.402.403c-.078 0-.078.078 0 .078l4 4.242c0 .078.082.078.082 0l.48-.402c.078-.079.078-.079.16-.079l.079.079.64.718c.078.082.078.082.078.16l-.078.082-2 1.918c-.082.082-.082.082-.16.082l-.078-.082-.64-.718c-.083-.078-.083-.078-.083-.16l.082-.079.399-.402c.082-.078.082-.078 0-.078l-4-4.242c-.078-.078-.078-.078-.078 0l-.48.402c-.083.078-.083.078-.161.078l-.082-.078-.64-.723c-.079-.078-.079-.16 0-.238zm8.321-7.12 2.082-1.599c.078-.082.16-.082.16 0v.079l.558.718c.082.082.082.16 0 .16h-.078l-.48.403c-.082 0-.082.078 0 .078l4.238 5.52c.082.081.082.16 0 .16l-.879.64c-.082.082-.16.082-.238.082l-6.242-2.48-.078.078 2.796 3.68c.082.082.082.082.082 0l.48-.399c.08-.082.161-.082.161 0l.559.8c.082.08.082.161 0 .161h-.078L49.52 40.72c-.079.082-.16.082-.16 0v-.078l-.641-.72c-.078-.081-.078-.081-.078-.16l.078-.081.48-.399c.082-.082.082-.082 0-.082l-3.52-4.64c-.077-.079-.077-.079-.077 0l-.48.402c-.083.078-.161.078-.161 0v-.082l-.563-.719c-.078-.082-.078-.16 0-.16l.082-.078L46 32.8h.398l6.243 2.48.078-.082-2.797-3.68c-.082-.078-.082-.078-.082 0l-.48.403c-.08.079-.08.079-.16.079l-.079-.078-.48-.723c-.082 0-.082 0-.082-.16-.16.082-.079 0 0 0zm7.519-5.2a4.431 4.431 0 0 1 2.402-.719c.079 0 .16.078.16.078l.801 1.36c.079.082.079.16 0 .16h-.082l-.96.562c-.079.078-.16.078-.16 0V27.2l-.4-.64c0-.079-.077-.079-.16-.079-.398.079-.8.239-1.12.48-.32.161-.559.481-.72.802-.077.316-.077.636.161.879.16.238.398.48.719.48.402.078.8-.082 1.203-.242l.398-.16c1.602-.64 2.64-.399 3.442.8.398.56.476 1.282.316 2-.316.801-.879 1.36-1.598 1.762-.8.48-1.761.797-2.64.797-.078 0-.16-.078-.16-.078l-.88-1.441c-.081-.079-.081-.16 0-.16h.079l.96-.56c.083-.077.161-.077.161 0v.083l.398.719c0 .078.082.078.082.078a3.84 3.84 0 0 0 1.36-.48c.398-.239.64-.477.8-.88a.856.856 0 0 0-.16-.96c-.16-.239-.402-.477-.718-.477-.403-.082-.883.078-1.203.238l-.399.16c-1.601.64-2.64.399-3.36-.8-.402-.56-.48-1.282-.32-2 .32-.801.88-1.36 1.598-1.68zm5.282-2.88 6-2.722c.081-.078.16 0 .16.082v.078l.8 1.762c.078.078.078.16-.082.16h-.078l-.96.48c-.079.079-.16 0-.16-.081v-.078L66.718 22c0-.078-.078-.078-.078-.078l-1.04.476c-.081 0-.081.082-.081.082l2.402 5.2c0 .082.078.082.078.082l.559-.32c.082-.083.16-.083.16.078v.082l.402.878c.078.079 0 .16-.082.16h-.078l-2.64 1.2c-.083.082-.16 0-.16-.078v-.082l-.24-.88c-.081-.081 0-.16.079-.16h.078l.563-.32c.078 0 .078-.082.078-.082L64.32 23.04c0-.078-.082-.078-.082-.078l-1.117.559c-.082 0-.082.082-.082.082l.32.636c.082.082 0 .16-.078.16H63.2l-.96.48c-.079.083-.16.083-.16-.077l-.798-1.762c-.082 0 0 0 .078-.078-.078 0 0 0 0 0zm8.718-3.76 2.64-.962c.083-.078.16 0 .16.082v.078l.321.883c.082.078 0 .16-.078.16h-.082l-.559.239c-.082 0-.082.082-.082.082l2 5.437c0 .082.082.082.082.082l.56-.242c.081-.078.16 0 .16.082v.078l.32.88c.082.081 0 .16-.079.16h-.082l-2.64.96c-.078.082-.16 0-.16-.078v-.082l-.32-.879c-.079-.082 0-.16.081-.16h.078l.563-.238c.078 0 .078-.082.078-.082l-2-5.442c0-.078-.078-.078-.078-.078l-.563.238c-.078.082-.16 0-.16-.078v-.082l-.316-.879c.078-.078.078-.16.156-.16zm5.363-1.919 6.399-1.68c.082-.081.16 0 .16.079v.082l.48 1.918c.079.082 0 .16-.082.16h-.078l-1.039.32c-.082.078-.16 0-.16-.082V18l-.16-.719c0-.082-.082-.082-.082-.082l-1.117.403c-.082 0-.082.078-.082.078l1.441 5.52c0 .081.078.081.078.081l.64-.16c.083-.082.161 0 .161.078v.082l.238.957c.082.082 0 .16-.078.16h-.082l-2.797.723c-.082.078-.16 0-.16-.082v-.078L78.88 24c-.078-.078 0-.16.082-.16h.078l.64-.16c.083 0 .083-.078.083-.078l-1.442-5.524c0-.078-.082-.078-.082-.078l-1.199.32c-.078 0-.078.078-.078.078l.16.723c.078.078 0 .16-.082.16h-.078l-.961.16c-.078.079-.16 0-.16-.082v-.078l-.48-1.922c0 .082.081 0 .081-.078zm13.919-2.883L92.077 14c.082 0 .16 0 .16.078v.082l.16.961c0 .078 0 .16-.078.16h-.082l-.558.078c-.078 0-.078.082-.078.082l.558 4.079c.16.8-.082 1.68-.558 2.32-1.122 1.281-2.961 1.52-4.403.64-.64-.48-1.039-1.28-1.12-2.082l-.56-4.078c0-.082-.078-.082-.078-.082l-.562.082c-.078 0-.16 0-.16-.082v-.078l-.16-.96c0-.079 0-.16.082-.16h.078l2.722-.4c.079 0 .16.079.16.16l.16.962c0 .078 0 .16-.081.16h-.078l-.563.078c-.078 0-.078.078-.078.078l.559 4.082c.082.48.242.88.64 1.2.719.562 1.762.402 2.32-.32.239-.4.399-.88.239-1.36l-.559-4.078c0-.082-.082-.082-.082-.082H90l-.559.082c-.082 0-.16 0-.16-.082v-.079l-.16-.96c0-.083 0-.16.078-.16l.16.077zm5.6-.558 6.642-.16c.078 0 .16.082.16.16l.078 2c0 .082-.078.16-.078.16h-1.122c-.081 0-.16-.078-.16-.078v-.802c0-.082-.082-.082-.082-.082l-1.199.082c-.078 0-.078.078-.078.078l.16 5.68c0 .082.078.082.078.082H100c.078 0 .16.078.16.078v1.04c0 .081-.082.16-.082.16H100l-2.879.081c-.082 0-.16-.082-.16-.082V21.2c0-.078.078-.16.078-.16h.722c.079 0 .079-.078.079-.078l-.238-5.762c0-.078-.082-.078-.082-.078l-1.2.078c-.082 0-.082.082-.082.082V16c0 .078-.078.16-.078.16h-.082l-1.039.078c-.078 0-.16-.078-.16-.078v-.082l-.078-2c0-.156.078-.238.16-.238zm9.68 0 5.919.558c.082 0 .16.082.16.082v.079l-.16 1.921c0 .079-.079.079-.079.079l-1.039-.079c-.082 0-.16-.082-.16-.16l.078-.64c0-.078 0-.078-.078-.078l-2.48-.243c-.082 0-.082 0-.082.082l-.16 2.079c0 .082 0 .082.082.082l1.68.16c.077 0 .077 0 .077-.082v-.078l.082-.48a.17.17 0 0 1 .16-.161l1.04.078c.082 0 .16.082.16.16l-.238 2.32c0 .083-.082.16-.16.16h-.083l-1.039-.077c-.082 0-.16-.082-.16-.082v-.079l.078-.48c0-.082 0-.082-.078-.082l-1.68-.16c-.082 0-.082 0-.082.082l-.238 2.16c0 .078 0 .078.078.078l2.48.242c.083 0 .083 0 .083-.082l.078-.719c0-.082.082-.16.16-.16h.082l1.04.078c.077 0 .16.082.16.082v.079l-.16 2c0 .082-.083.16-.083.16H110l-5.922-.559c-.078 0-.156-.082-.156-.16v-.078l.078-.961a.17.17 0 0 1 .16-.16l.64.16c.079 0 .079 0 .079-.082l.48-5.758c0-.082 0-.082-.078-.082l-.562-.078c-.078 0-.16-.082-.16-.16v-.082l.082-.957c-.16.078-.082.078 0 .078zm17.2 2.558c.64.16 1.2.48 1.68.961a2.79 2.79 0 0 1 .64 1.762c0 .8-.16 1.598-.398 2.32-.16.72-.403 1.52-.801 2.16-.32.56-.8.958-1.441 1.2-1.282.398-2.641 0-3.598-.961a2.787 2.787 0 0 1-.64-1.762c0-.797.16-1.598.32-2.316s.398-1.524.796-2.16c.32-.563.801-.961 1.442-1.204.719-.16 1.441-.16 2 0zm-.32 1.282c-.641-.239-1.36.082-1.758.64-.32.559-.48 1.2-.64 1.84-.243.64-.321 1.2-.321 1.918.078.883.879 1.602 1.758 1.524.48-.082.96-.32 1.203-.723.316-.559.476-1.2.636-1.84.243-.64.32-1.2.32-1.918.083-.723-.48-1.36-1.198-1.441zm6.64.64 5.52 2.16c.082 0 .082.079.082.16v.079l-.723 1.84c0 .082-.078.082-.16.082h-.078l-.961-.403c-.078 0-.078-.078-.078-.16V22l.238-.719c0-.082 0-.082-.078-.082l-2.32-.879c-.082 0-.082 0-.082.078l-.801 2c0 .082 0 .082.082.082l1.597.641c.082 0 .082 0 .082-.082l.16-.398c0-.082.079-.082.16-.082h.079l.96.402c.083 0 .083.078.083.16v.078l-.8 2.16c0 .082-.083.082-.161.082h-.082l-.957-.402c-.082 0-.082-.078-.082-.16V24.8l.16-.403c0-.078 0-.078-.078-.078l-1.602-.64c-.082 0-.082 0-.082.082l-.797 2c0 .078 0 .078.079.078l.718.32c.082 0 .082.078.082.16v.078l-.32.883c0 .078-.078.078-.16.078h-.078l-2.723-1.039c-.078 0-.078-.082-.078-.16v-.082l.32-.879c0-.078.078-.078.16-.078h.079l.558.238c.082 0 .082 0 .082-.078l2.078-5.441c0-.078 0-.078-.078-.078l-.558-.242c-.082 0-.082-.079-.082-.16v-.079l.402-.883a.359.359 0 0 0 .238-.078zm12.559 5.52 5.68 3.36c.081.081.081.081.081.16v.081l-.96 1.68c0 .078-.079.078-.16.078h-.079l-.883-.558c-.078-.082-.078-.082-.078-.16v-.083l.399-.636c.082-.082 0-.082 0-.082l-1.04-.64c-.077-.08-.077 0-.077 0L140.719 32c-.078.078 0 .078 0 .078l.562.32c.078.082.078.082.078.16v.083l-.48.8c-.078.079-.078.079-.16.079h-.078l-2.48-1.442c-.083-.078-.083-.078-.083-.156v-.082l.48-.8c.083-.08.083-.08.16-.08h.083l.558.321c.082.078.082 0 .082 0l2.88-4.96c.077-.083 0-.083 0-.083l-1.04-.636c-.082-.082-.082 0-.082 0l-.398.636c-.082.082-.082.082-.16.082h-.082l-.88-.558c-.077-.082-.077-.082-.077-.16v-.082l.957-1.68c.082 0 .082-.078.16 0zm8.241 5.039 4.802 3.52c.078.081.078.081.078.16v.082l-1.121 1.52c-.078.077-.078.077-.16.077h-.079l-.878-.636c-.082-.082-.082-.082-.082-.16v-.083l.402-.558c.078-.082.078-.082 0-.082l-2-1.52c-.082-.078-.082-.078-.082 0l-1.2 1.68c-.081.082-.081.082 0 .082l1.36.96c.078.079.078.079.078 0l.242-.401c.078-.079.078-.079.16-.079h.079l.8.637c.082.082.082.082.082.16v.082l-1.363 1.84c-.078.078-.078.078-.156.078h-.082l-.8-.636c-.08-.082-.08-.082-.08-.16v-.083l.24-.398c.081-.082.081-.082 0-.082l-1.36-.957c-.078-.082-.078-.082-.078 0l-1.282 1.758c-.082.082-.082.082 0 .082l2 1.52c0 .077.079.077.079 0l.48-.563c.082-.078.082-.078.16-.078 0 0 .082 0 .082.078l.88.64c.077.082.077.082.077.16v.083l-1.117 1.597c-.082.082-.082.082-.16.082h-.082l-4.8-3.52c-.079-.081-.079-.081-.079-.16v-.081l.559-.801c.082-.078.082-.078.16-.078h.082l.48.398c.078.082.078.082.078 0l3.442-4.64c.078-.079.078-.079 0-.079l-.48-.398c-.083-.082-.083-.082-.083-.16v-.082l.563-.801c.078-.078.16-.078.16 0 0-.078 0-.078 0 0zm10 7.921a4.353 4.353 0 0 1 1.36 2.16c.078.08 0 .161-.082.24l-1.117 1.198c-.082.082-.082.082-.16.082l-.082-.082-.8-.718c-.079-.078-.079-.078-.079-.16l.078-.079.563-.64c.078-.082.078-.082 0-.16a3.59 3.59 0 0 0-.641-.88 1.93 1.93 0 0 0-1.04-.562c-.32-.078-.722.082-.96.242a6.91 6.91 0 0 0-1.36 1.278c-.48.48-.878.96-1.199 1.52-.16.32-.242.64-.16.96.16.403.32.723.64.961.24.238.56.48.88.559.078 0 .078 0 .16-.078l.64-.641c.079-.078.16-.078.16-.078l.079.078.8.719c.079.082.079.082.079.16l-.078.082-1.121 1.2c-.079.077-.16.077-.239.077-.883-.238-1.68-.636-2.242-1.199-1.117-1.117-1.52-2.238-.879-3.52.399-.718.88-1.28 1.442-1.84.476-.558 1.039-1.12 1.68-1.519 1.277-.64 2.48-.48 3.679.64zm7.2 7.84 1.84 2.08c.078.082.078.082.078.16l-.078.082-.719.64c-.082.079-.16.079-.16 0l-.402-.48c0-.082-.078-.082-.078 0l-4.48 3.758c-.083.082-.083.082 0 .082l.398.48c.082.079.082.16.082.16l-.082.079-.797.64c-.082.078-.16.078-.16.078l-.082-.078-1.84-2.082c-.078-.078-.078-.16-.078-.16l.078-.078.718-.64c.082-.079.16-.079.16-.079l.083.078.398.48c0 .083.082.083.082 0l1.68-1.44c.078-.079.078-.079 0-.079L160.879 46c-.078-.078-.078-.078-.078 0l-1.68 1.441c-.082.079-.082.079 0 .079l.399.48c.082.078.082.078.082.16l-.082.078-.72.64c-.081.083-.081.083-.16.083l-.081-.082-1.84-2.078c-.078-.082-.078-.082-.078-.16l.078-.082.722-.637c.079-.082.079-.082.16-.082l.079.082.398.476c0 .082.082.082.082 0l4.48-3.757c.079 0 .079-.082 0-.082l-.402-.48c-.078-.079-.078-.079-.078-.157l.078-.082.723-.64c.078-.079.16-.079.16-.079l.078.078 1.84 2.082c.082.078.082.078.082.16l-.082.079-.719.64c-.082.078-.16.078-.16.078l-.082-.078-.398-.48c0-.078-.078-.078-.078 0l-1.68 1.36a.04.04 0 0 0 0 .081l2 2.32c0 .079.078.079.078 0l1.68-1.363c.082-.078.082-.078 0-.078l-.399-.48c-.082-.079-.082-.079-.082-.16l.082-.079.719-.64s.078-.082.16 0c-.082-.082 0 0 0 0zm6.559 8.962 1.441 2.238c.078.082.078.16 0 .16h-.082l-.797.559c-.082.082-.16.082-.16 0v-.079l-.32-.48c0-.078-.082-.078-.082-.078l-5.84 3.84c-.078.078-.16.078-.16 0v-.082l-.64-.88a.15.15 0 0 1 0-.241l2.96-6-.078-.079-3.84 2.48c-.082.08-.082.08 0 .08l.32.48c.079.082.079.16 0 .16h-.082l-.8.558c-.079.082-.16.082-.16 0v-.078l-1.438-2.238c-.082-.082-.082-.16 0-.16h.078l.8-.563c.083-.078.161-.078.161 0l.32.48c0 .083.078.083.078.083l4.883-3.203c.078 0 .078-.079.078-.079l-.32-.48c-.078-.078-.078-.16 0-.16h.082l.8-.559c.079-.082.157-.082.157 0v.078l1.043 1.602c.078.078.078.16 0 .238l-2.96 6 .077.082 3.84-2.48c.082 0 .082-.082.082-.082l-.32-.48c-.078-.079-.078-.16 0-.16h.082l.797-.56c-.078 0-.078 0 0 .083zm4.641 8c.32.558.48 1.199.402 1.918-.082.64-.403 1.199-.883 1.68-1.2.96-2.64 1.679-4.078 2-.64.16-1.281 0-1.84-.321a3.182 3.182 0 0 1-1.281-1.438c-.32-.562-.399-1.203-.399-1.921.078-.641.399-1.2.88-1.68.558-.48 1.28-.88 2-1.2.64-.402 1.359-.64 2.16-.8.64-.16 1.28 0 1.84.32.48.32.96.88 1.198 1.442zm-1.2.558c-.32-.64-.96-1.039-1.68-.879-1.199.399-2.402.957-3.44 1.68a1.64 1.64 0 0 0 0 2.32c.401.399.882.559 1.358.48a6.774 6.774 0 0 0 1.762-.722 8.783 8.783 0 0 0 1.68-.96c.558-.477.64-1.278.32-1.919zm3.84 5.52.96 2.64c.08.078 0 .16-.081.16h-.078l-.88.32c-.081.079-.16 0-.16-.081v-.078l-.241-.563c0-.078-.079-.078-.079-.078l-5.363 1.922C174 71.922 174 72 174 72v.078l.8 2.16c0 .082.079.082.079.082l.723-.242c.078-.078.16 0 .16.082v.078l.398 1.043c.078.078 0 .16-.082.16H176l-1.84.637c-.082.082-.16 0-.16-.078v-.078l-2-5.442c-.078-.082 0-.16.078-.16h.082l.88-.32c.081-.078.16 0 .16.078v.082l.241.559c0 .082.079.082.079.082h.082l5.437-2c.082 0 .082-.082.082-.082l-.242-.559c-.078-.082 0-.16.082-.16h.078l.883-.32c-.082-.16 0-.078.078 0 0-.078 0 0 0 0zm3.762 11.52c.16.64.16 1.28-.082 1.921-.239.559-.64 1.117-1.2 1.36a7.955 7.955 0 0 1-2.16.8c-.718.239-1.52.32-2.32.32-.64-.081-1.2-.32-1.762-.722a3.583 3.583 0 0 1-.957-1.68c-.16-.64-.16-1.277.078-1.918.243-.562.641-1.12 1.2-1.36a7.874 7.874 0 0 1 2.16-.8c.722-.242 1.52-.32 2.32-.32.64.078 1.2.32 1.762.719.48.402.8 1.039.96 1.68zm-1.282.32c-.16-.72-.718-1.2-1.44-1.2l-1.919.32c-.64.16-1.2.32-1.84.641-.8.48-.96 1.52-.48 2.239.32.402.719.718 1.199.718l1.922-.316c.637-.16 1.2-.32 1.84-.563.636-.398.957-1.199.718-1.84zm3.122 9.68a3.34 3.34 0 0 1-.082 1.519 3.75 3.75 0 0 1-.48 1.203l-.161.156-1.52.16c-.078 0-.16-.078-.16-.16l-.16-1.117c0-.082 0-.16.082-.16h.078l.723-.082c.078 0 .078-.078.078-.078.238-.403.238-.88.16-1.282-.16-.879-.558-1.437-1.281-1.597-.64-.082-1.277-.082-1.918.078-.64.082-1.281.238-1.84.398a1.93 1.93 0 0 0-.723.64c-.16.403-.238.802-.16 1.122.082.48.242.96.48 1.281.083.078.16.16.243.078l1.68-.238c.078 0 .078-.082.078-.082l-.16-1.277c0-.082 0-.16.082-.16h.078l.96-.16c.083 0 .16 0 .16.078v.082l.321 2.636c0 .082 0 .16-.082.16H182l-3.52.403c-.16 0-.242-.082-.32-.16A4.62 4.62 0 0 1 177.04 90c-.24-1.68.32-2.719 1.6-3.36a5.74 5.74 0 0 1 2.32-.48 7.688 7.688 0 0 1 2.321-.082c1.278.48 2.078 1.442 2.32 3.121zm.476 10 .082 2.48c0 .082-.082.16-.082.16h-1.039c-.078 0-.16-.078-.16-.078v-.402c0-.079-.078-.079-.078-.079l-3.68-2.082-2.16.082c-.082 0-.082 0-.082.078V100c0 .078-.078.16-.078.16h-1.039c-.082 0-.16-.082-.16-.082V100l-.082-2.8c0-.079.082-.16.082-.16h1.038c.079 0 .16.081.16.081v.718c0 .083.079.083.079.083l2.16-.082 3.68-2.16c.082-.078.082-.078.082-.16v-.32c0-.079.078-.16.16-.16h.96c.079 0 .157.081.157.16l.082 2.48c0 .082-.082.16-.082.16h-1.039c-.078 0-.16-.078-.16-.078V97.2c0-.079-.078-.16-.16-.079l-2.32 1.277v.082l2.402 1.282c.078.078.078 0 .078-.082v-.48c0-.079.082-.16.16-.16H186c0 .081.078.081.078.16zM31.84 137.121l2 3.277c.398.641.558 1.364.398 2.082-.398 1.36-1.84 2.239-3.199 1.918-.719-.238-1.277-.718-1.68-1.277l-.8-1.36c0-.081-.079-.081-.079-.081l-1.601.96c-.078 0-.078.079-.078.079l.398.64c.082.082.082.16 0 .16h-.078l-.8.481c-.083.078-.16.078-.16 0v-.078l-1.52-2.48c-.082-.083-.082-.16 0-.16h.078l.8-.481c.083-.082.16-.082.16 0v.078l.321.48c0 .082.078.082.078.082l4.961-2.96c.082 0 .082-.083.082-.083l-.32-.476c-.082-.082-.082-.16 0-.16h.078l.8-.48c0-.243.083-.243.16-.16zm.8 3.84-.8-1.36c0-.081-.078-.081-.078-.081l-2.082 1.199c-.078 0-.078.082-.078.082l.796 1.36c.16.32.48.558.801.718.32.082.723.082.961-.16.32-.16.559-.48.64-.797.16-.242.079-.64-.16-.961zm4.079 3.999 2.402 3.118c.48.563.719 1.203.719 1.922a2.48 2.48 0 0 1-2.32 2.16 3.03 3.03 0 0 1-1.442-.398l-1.2 2.316c-.077.082-.077.082 0 .16l.321.48c.082.083.082.16 0 .16l-.719.563c-.082.079-.082.079-.16 0l-.082-.082-.879-1.199c-.078-.082-.078-.16 0-.238l1.68-3.281-.8-1.04c-.079-.081-.079-.081-.079 0l-1.68 1.278c-.082.082-.082.082 0 .082l.399.48c.082.079.082.16 0 .16l-.719.56c-.082.077-.16.077-.16 0v-.083L30.238 150c-.078-.078-.078-.16 0-.16l.723-.559c.078-.082.16-.082.16 0l.399.48c.082.079.082.079.082 0l4.558-3.523c.078-.078.078-.078 0-.078l-.398-.48c-.082-.078-.082-.078-.082-.16l.082-.079.718-.562c.079-.078.079-.078.16-.078.079.078.079.078.079.16zm1.441 3.759-1.039-1.278c-.082-.082-.082-.082-.082 0l-1.758 1.36c-.082 0-.082.078 0 .078l1.04 1.281c.238.32.48.48.8.559.64.082 1.2-.399 1.277-1.04.082-.32-.078-.64-.238-.96zm6.88 5.761a3.56 3.56 0 0 1 .96 1.68c.16.64 0 1.281-.32 1.84-.88 1.281-2 2.398-3.282 3.2-.558.32-1.199.402-1.84.32a3.578 3.578 0 0 1-1.68-.961 3.52 3.52 0 0 1-.956-1.68c-.16-.64 0-1.277.316-1.84.883-1.277 2-2.398 3.282-3.2.558-.32 1.199-.398 1.84-.32.64.16 1.199.481 1.68.961zm-.88.88c-.48-.56-1.2-.641-1.84-.32-.558.32-1.039.8-1.52 1.198s-.878.883-1.28 1.442c-.399.8-.079 1.84.8 2.16.48.238.961.238 1.36 0 .558-.32 1.039-.8 1.52-1.2s.878-.878 1.198-1.44a1.58 1.58 0 0 0-.238-1.84zm7.762 5.28c.398.32.719.641.957 1.04.242.32.402.718.48 1.12 0 .079 0 .16-.078.24l-.883 1.12c-.078.078-.078.078-.16.078l-.078-.078-.879-.719c-.082-.082-.082-.082-.082-.16l.082-.082.48-.558v-.16c-.16-.403-.402-.801-.8-1.04-.723-.562-1.36-.64-2.082-.242-.48.403-.957.88-1.36 1.36s-.8.96-1.039 1.601c-.16.32-.16.64-.082.961.16.399.403.719.723.879.32.32.8.559 1.2.64.077 0 .16 0 .238-.081l1.043-1.278c.078-.082.078-.082 0-.082l-1.043-.8c-.079-.079-.079-.079-.079-.16l.641-.798c.078-.082.078-.082.16-.082l.078.082 2.082 1.68c.079.078.079.078.079.16l-.079.078-2.16 2.72c-.082.081-.242.16-.32.16a4.59 4.59 0 0 1-2.64-1.118c-1.282-1.043-1.68-2.16-1.2-3.441.32-.72.8-1.36 1.277-1.918.48-.64.961-1.203 1.602-1.684 1.36-.637 2.64-.476 3.922.563zm4.558 3.598 3.36 2.082c.64.32 1.12.88 1.281 1.602.16.637.078 1.36-.32 1.918-.242.398-.64.8-1.121.96-.48.24-.961.24-1.52.079l-.32 2.562c0 .079 0 .079.082.16l.476.32c.082.079.082.079.082.157v.082l-.48.8c-.078.08-.078.08-.16.08h-.078l-1.282-.802c-.082-.078-.16-.16-.082-.238l.48-3.68-1.038-.64c-.078-.078-.078 0-.078 0l-1.121 1.84c-.082.082-.082.082 0 .082l.48.32c.078.078.078.078.078.156v.082l-.48.8c-.078.08-.078.08-.16.08h-.079l-2.32-1.438c-.082-.082-.082-.082-.082-.16v-.083l.48-.8c.083-.079.083-.079.16-.079h.083l.48.32c.078.079.078.079.078 0v-.081l3.04-4.88c.081-.077 0-.077 0-.077l-.477-.32c-.082-.083-.082-.083-.082-.16v-.083l.48-.8c0-.16.078-.16.16-.16zm2.641 3.121-1.441-.879-.078-.082-1.122 1.84c-.082.082 0 .082 0 .082l1.442.88c.316.241.637.241.957.241.32-.082.562-.242.723-.562.16-.238.238-.559.16-.879a2.497 2.497 0 0 0-.64-.64zm5.438 1.681 5.363 2.48c.078 0 .078.082.078.16v.082l-.8 1.758c0 .082-.079.082-.16.082h-.08l-.96-.48c-.078 0-.078-.083-.078-.161v-.082l.316-.64v-.079L66 171.121c-.078-.082-.078 0-.078 0v.078l-.883 1.84v.082l1.52.719c.082 0 .082 0 .082-.078l.16-.403c0-.078.078-.078.16-.078h.078l.883.399c.078 0 .078.082.078.16v.082L67.04 176c0 .078-.08.078-.161.078H66.8l-.88-.398c-.081 0-.081-.078-.081-.16v-.079l.16-.402c.078-.078 0-.078 0-.078h-.078l-1.524-.723h-.078l-.879 2v.082l2.239 1.04h.082l.316-.641c0-.078.082-.078.16-.078h.082l.961.48c.078 0 .078.078.078.16v.078l-.8 1.762c0 .078-.079.078-.16.078h-.079l-5.36-2.48c-.081 0-.081-.078-.081-.16v-.079l.402-.878c0-.082.078-.082.16-.082h.079l.558.242h.082l2.399-5.203v-.079l-.559-.242c-.078 0-.078-.078-.078-.16V170l.398-.879c.16-.082.239-.082.239-.082zm11.121 4.48c.8.242 1.601.718 2.16 1.28.082.079.082.16.082.16l-.563 1.599c0 .082-.078.082-.16.082h-.078l-1.043-.32c-.078 0-.078-.083-.078-.16v-.083l.238-.719c0-.078 0-.078-.078-.16a7.477 7.477 0 0 0-1.039-.64c-.32-.16-.723-.16-1.043-.079a1.08 1.08 0 0 0-.558.641c-.079.238-.079.559.082.8a2.2 2.2 0 0 0 .957.72l.402.238c1.52.723 2 1.762 1.598 3.121-.239.719-.72 1.2-1.36 1.52-.8.32-1.68.242-2.398-.079-.88-.32-1.762-.8-2.403-1.52-.078-.081-.078-.16-.078-.16l.559-1.6c0-.083.082-.083.16-.083h.082l1.04.402c.077 0 .077.079.077.16v.079l-.238.8c0 .083 0 .083.078.083.402.32.8.558 1.281.718.403.16.801.16 1.2.078.32-.16.562-.398.64-.718s.082-.559-.078-.801a2.205 2.205 0 0 0-.96-.719l-.4-.238c-1.523-.723-2-1.762-1.6-3.121.16-.64.64-1.2 1.28-1.52.72-.082 1.52-.082 2.239.239zm8.48 2.32c.8.16 1.602.558 2.238 1.039.082.082.082.082.082.16l-.32 1.602c0 .078-.082.16-.16.078h-.078l-1.043-.239c-.078 0-.078-.082-.078-.16v-.082l.16-.718c0-.079 0-.079-.082-.16-.399-.239-.719-.4-1.117-.481-.32-.078-.723-.078-1.043.082-.239.16-.48.398-.48.719-.079.32 0 .558.16.8.32.32.64.56 1.042.641l.399.16c1.601.559 2.238 1.52 1.922 2.88a2.764 2.764 0 0 1-1.121 1.679c-.72.398-1.602.398-2.403.238-.957-.156-1.84-.637-2.476-1.2-.082-.077-.082-.077-.082-.16l.32-1.679c0-.078.078-.16.16-.078h.078l1.121.238c.082 0 .16.082.082.16v.082l-.16.797c0 .082 0 .082.078.082.403.32.88.48 1.36.559.402.16.8.082 1.203-.078.316-.16.558-.48.558-.801.079-.32 0-.559-.16-.8-.32-.321-.64-.56-1.039-.641l-.402-.16c-1.598-.56-2.238-1.52-1.918-2.88.16-.718.559-1.28 1.117-1.597a3.06 3.06 0 0 1 2.082-.082zm12.719 1.68 1.281.082c.078 0 .16.078.16.16l2.16 7.039c0 .078.079.078.079.078h.402c.078 0 .16.082.16.082v.078l-.082.961c0 .078-.078.16-.078.16h-.082l-2.48-.082c-.079 0-.16-.078-.16-.078v-.078l.081-.961c0-.082.078-.16.078-.16h.641c.082 0 .082-.082.082-.082l-.32-1.04-2.801-.077-.398 1.039c-.082.078 0 .078.078.078h.48c.078 0 .16.082.16.082v.078l-.082.96c0 .083-.078.161-.078.161h-.082l-2.476-.078c-.082 0-.16-.082-.16-.16l.078-.961c0-.082.082-.16.082-.16h.476c.082 0 .082-.082.082-.082l2.64-6.797c-.081-.16 0-.242.079-.242zm.562 1.84-1.043 2.8 2 .078zm11.118-2.16 2.64-.24c.082 0 .16.08.16.08v.081l.082.957c0 .082-.082.16-.082.16l-.558.082c-.082 0-.082.078-.082.078v.082l.64 6.88c0 .081-.078.16-.078.16h-.082l-1.12.082c-.079 0-.157-.082-.24-.082l-3.917-5.36h-.082l.398 4.559c0 .082.082.082.082.082l.559-.082c.082 0 .16.082.16.082v.078l.082.96c0 .083-.082.161-.082.161h-.078l-2.64.238a.17.17 0 0 1-.16-.16l-.083-.957c0-.082.082-.16.16-.16l.563-.082c.078 0 .078-.078.078-.078l-.559-5.762c0-.078-.082-.078-.082-.078l-.558.078c-.078 0-.16-.078-.16-.078v-.082l-.079-.957c0-.082.079-.16.079-.16h.082l1.918-.16c.082 0 .16.078.242.078l3.918 5.441h.082l-.403-4.562c0-.079-.078-.079-.078-.079l-.562.079c-.078 0-.16-.079-.16-.16l-.079-.958c0-.242 0-.242.079-.242zm5.441-.72 3.602-.8c1.359-.32 2.476.082 3.117 1.199.32.723.562 1.441.722 2.242.239.719.32 1.52.32 2.32-.16 1.278-.882 2.079-2.32 2.399l-3.601.8c-.078.079-.16 0-.16-.081v-.079l-.239-.96c-.082-.079 0-.16.079-.16h.082l.558-.16c.078 0 .078-.079.078-.079l-1.277-5.601c0-.079-.082-.079-.082-.079l-.559.16c-.082.079-.16 0-.16-.081v-.079l-.238-.96c-.082.078-.082 0 .078 0-.078 0-.078 0 0 0zm3.52.56-1.122.241c-.078 0-.078.078-.078.078l1.2 5.442c0 .078.082.078.082.078h.078l1.12-.238c.88-.243 1.36-.641 1.438-1.36a7.23 7.23 0 0 0-.238-1.84c-.078-.64-.32-1.203-.559-1.761-.402-.64-1.043-.88-1.921-.64zm12.64-5.599c.8-.32 1.68-.48 2.48-.402.079 0 .16.082.16.082l.641 1.52c.079.078 0 .16-.082.16h-.078l-.96.398c-.083.082-.16 0-.16-.078v-.082l-.321-.719c0-.082-.078-.082-.16-.082-.399 0-.88.082-1.2.242s-.64.32-.8.641a.86.86 0 0 0 0 .879c.082.32.32.48.64.559.399.082.801.082 1.2-.079l.402-.16c1.598-.398 2.719 0 3.277 1.282.32.636.32 1.359 0 2-.398.718-1.039 1.277-1.84 1.52a5.5 5.5 0 0 1-2.718.48c-.082 0-.16-.082-.16-.082l-.641-1.52c-.078-.078 0-.16.082-.16H130l1.04-.399c.081-.082.16 0 .16.079v.082l.32.718c0 .078.082.078.082.078.476 0 .957-.16 1.437-.32.402-.156.723-.398.961-.719.16-.32.238-.64.078-.96s-.316-.477-.637-.56c-.402-.077-.8-.077-1.203.083l-.398.156c-1.602.402-2.64 0-3.281-1.277-.32-.64-.32-1.36 0-2 .242-.563.882-1.04 1.601-1.36zm5.281-2.16 5.2-2.883c.078-.078.16-.078.16 0v.082l.879 1.68c.082.078.082.16-.078.16h-.082l-.88.48c-.081.079-.16.079-.16-.081v-.078l-.32-.563c0-.078-.082-.078-.082-.078l-2.156 1.2c-.082 0-.082.081-.082.081l.96 1.84c0 .078.079.078.079.078l1.52-.8c.081 0 .081-.079.081-.079v-.082l-.242-.398c-.078-.078-.078-.16 0-.16h.082l.88-.48c.081-.079.16-.079.16 0v.081l1.12 2c.079.078.079.16-.082.16h-.078l-.879.48c-.082.079-.16.079-.16-.081v-.078l-.242-.403c0-.078-.078-.078-.078-.078l-1.52.797c-.082 0-.082.082-.082.082l1.04 1.918c0 .082.081.082.081.082l2.16-1.2c.079 0 .079-.081.079-.081l-.399-.64c-.082-.079-.082-.16.078-.16h.082l.88-.477c.081-.082.16-.082.16 0v.078l.96 1.761c.079.079.079.16-.082.16h-.078l-5.12 2.88c-.079.078-.16.078-.16-.083v-.078l-.481-.8c-.079-.079-.079-.16.082-.16h.078l.48-.32c.082 0 .082-.08.082-.08l-2.8-5.038c0-.082-.083-.082-.083-.082l-.476.32c-.082.078-.16.078-.16-.082V170l-.32-.719c-.083 0-.083-.082 0-.16-.083.16-.083.16 0 .16zm7.599-4.481 3.198-2.32a2.645 2.645 0 0 1 2-.64c.64.082 1.282.48 1.602 1.039.32.402.48.883.48 1.36s-.16.96-.48 1.363l2.32 1.277c.078.082.078.082.16 0l.48-.32c.079-.079.16-.079.16 0v.082l.56.8c.082.079.082.16 0 .16h-.079l-1.203.88c-.078.078-.16.078-.238 0l-3.281-1.84-1.04.718c-.077.082-.077.082 0 .082l1.2 1.758c.082.082.082.082.082 0l.48-.32c.079-.078.16-.078.16 0v.082l.56.8c.077.079.077.16 0 .16l-.083.079-2.238 1.68c-.078.082-.16.082-.16 0v-.078l-.559-.801c-.082-.082-.082-.16 0-.16h.078l.48-.32c.083-.083.083-.083 0-.083l-3.359-4.718c-.082-.079-.082-.079-.082 0l-.476.32c-.082.082-.16.082-.16 0v-.078l-.563-.801c-.078-.082-.078-.082 0-.16zm3.839-1.198-1.36.957c-.078 0-.078.082 0 .082l1.282 1.757c.078.082.078.082.078 0l1.36-.957c.32-.242.48-.48.562-.8.078-.641-.32-1.282-.961-1.36-.32-.082-.64.078-.961.32zm6.801-7.282 1.84-1.68c.082-.081.16-.081.16 0l.64.72c.078.081.078.16 0 .16l-.242.242c-.078.078-.078.078 0 .078l2.961 6.719c.082.082.082.16-.078.242l-.961.879c-.078.082-.16.082-.238 0l-6.403-3.52c-.078-.082-.078-.082-.16 0l-.238.238c-.082.082-.082.082-.16.082l-.082-.082-.719-.718c-.078-.078-.078-.078-.078-.16l.078-.079 1.84-1.68c.082-.081.082-.081.16-.081l.078.082.64.718c.083.079.083.079.083.16l-.082.079-.399.402c-.082.078-.082.078 0 .16l4.72 2.559.081-.078-2.242-4.883c-.078-.078-.078-.078-.078 0l-.48.402c-.083.078-.083.078-.16.078l-.083-.078-.637-.722c.16-.079.16-.16.239-.239zm3.441-3.52 1.84-2.081c.078-.078.078-.078.16-.078l.078.078.723.64c.078.082.078.082.078.16l-.078.083-.402.476c-.079 0-.079.082 0 .082l4.32 3.84c.082.078.082.078.082 0l.398-.48c.078-.079.16-.079.16 0l.72.64c.081.078.081.078.081.16l-.082.078-2 2c-.078.082-.078.082-.16.082l-.078-.082-.723-.636c-.078-.082-.078-.082-.078-.16l.078-.082.403-.48c.078-.08.078-.08 0-.08l-4.32-3.839c0-.082-.083-.082-.083 0l-.398.48c-.078.079-.16.079-.16 0l-.72-.64c.08 0 .08-.082.161-.16zm5.438-6.722a4.388 4.388 0 0 1 2-1.598c.082-.082.16 0 .242 0l1.277.961c.082.079.082.079.082.16v.079l-.64.879c-.079.082-.16.082-.16.082l-.641-.48h-.16c-.32.16-.637.398-.797.718-.242.32-.403.64-.48 1.043 0 .316.16.719.32.957.398.48.878.883 1.437 1.281.48.399 1.04.719 1.602 1.04.32.16.64.16.96.081.399-.16.72-.402.88-.722a2.76 2.76 0 0 0 .48-.957c0-.082 0-.082-.082-.16l-.719-.563c-.082-.078-.082-.078-.082-.16v-.078l.64-.88c.083-.081.083-.081.16-.081h.083l1.277.96c.082.079.082.16.082.239-.082.883-.48 1.68-.96 2.402-.962 1.278-2.079 1.68-3.36 1.2a10.23 10.23 0 0 1-2-1.2c-.64-.402-1.2-.96-1.68-1.52-.8-1.28-.718-2.48.239-3.683zm3.203-4.316 3.039-5.121c0-.082.078-.082.16-.082h.078l1.68.96c.082.083.082.083.082.16v.083l-.563.879c-.078.078-.078.078-.16.078H170l-.559-.32c-.082-.079-.082 0-.082 0l-1.28 2.16c-.079.082 0 .082 0 .082l1.76 1.039c.083.082.083 0 .083 0l.879-1.442c.078-.078 0-.078 0-.078l-.403-.238c-.078-.082-.078-.082-.078-.16v-.082l.48-.88c.079-.081.079-.081.16-.081h.08l2 1.12c.081.083.081.083.081.161v.078l-.48.883c-.082.078-.082.078-.16.078h-.083l-.398-.238c-.078-.082-.078 0-.078 0l-.883 1.437c-.078.082 0 .082 0 .082l1.84 1.04c.082.081.082 0 .082 0l1.2-2.16c.077-.079 0-.079 0-.079l-.56-.32c-.081-.082-.081-.082-.081-.16v-.082l.558-.88c.082-.077.082-.077.16-.077h.082l1.68.957c.078.082.078.082.078.16v.082l-3.039 5.12c-.078.079-.078.079-.16.079h-.078l-.801-.48c-.078-.079-.078-.079-.078-.16v-.079l.316-.48c.082-.082 0-.082 0-.082l-4.957-2.88c-.082-.077-.082 0-.082 0v.083l-.32.476c-.078.082-.078.082-.16.082h-.078l-.801-.48c-.078-.16-.078-.16-.078-.238zm0 0" fill="#003057"/><path d="M181.922 121.121a2.64 2.64 0 1 1-5.281 0 2.64 2.64 0 1 1 5.281 0zm-158.242 0a2.642 2.642 0 0 1-2.64 2.64 2.64 2.64 0 1 1 2.64-2.64zm0 0" fill="#b2a268"/></svg>