<svg xmlns="http://www.w3.org/2000/svg" width="168" height="168" viewBox="0 0 146 146"><path d="M74.5 50.8v40.4h8.9v-2.8c10.4-.5 18.8-9.1 18.8-19.6 0-9.6-7-17.7-16.1-19.3v9.1c4.2 1.4 7.3 5.5 7.3 10.2 0 5.6-4.4 10.3-9.9 10.7V51.7c0-1 .2-1.8.6-2.5 1.3-2.3 4.1-2.8 5.3-2.8v-8.9c-7.2 0-14.4 4.9-14.9 13.3m-3 0v40.4h-8.9v-2.8c-10.4-.5-18.8-9.1-18.8-19.6 0-9.6 7-17.7 16.1-19.3v9.1c-4.2 1.4-7.3 5.5-7.3 10.2 0 5.6 4.4 10.3 9.9 10.7V51.7c0-1-.2-1.8-.6-2.5-1.3-2.3-4.1-2.8-5.3-2.8v-8.9c7.2 0 14.4 4.9 14.9 13.3M98.7 95v.2c-2.2.5-2.2 4.3 0 4.8v.2H76.1c-.8 0-1.7-1.3-1.7-2.7 0-1.3.9-2.5 1.7-2.5zm-51.4 0v.2c2.2.5 2.2 4.3 0 4.8v.2h22.6c.8 0 1.7-1.3 1.7-2.7 0-1.3-.9-2.5-1.7-2.5zm-3.1 9.1h57.3v5H44.2zm66.5 25h.3l.1-.7.1-.7v-.7l.1-.7v-1.4l-.1-.7-.1-.7.8-.9h.3l.2.1.1.3-.1.1-.1.1-.2.3-.1.1v.2l.1.1h.2l.2-.1.1-.1.2-.2.1-.2.2-.1.4-.3.1-.2.1-.2v-.2l-.1-.2h-.1l-.1-.1-.3-.1-.2-.1h-.4l-.3.1-1.3.5-.1-.1 2.3-2 1.3-.9v-.2l-.1-.1v-.1l-.1-.3-.1-.3h-.4l-.2.1-.2-.1.8-1.1 1.5-2.2.2-.1.2-.2.1-.2.2-.1.3-.3v-.3l.1-.2v-.2l.1-.3v-.4h-.3l-.2-.1-.2-.1-.1-.1h-.2l-.2-.1h-.2l-1.6.9-.1.1-.1.2-1.1.9-.3.2h-.6l-.2-.1-.3-.1-.2-.1-.2-.1-.1-.1.7-1.3.2-.1.2-.2.1-.3.2-.3.1-.2.1-.3.2-.2.3-.2.1-.1.1-.1.1-.3v-.2l-.1-.2.1-.2-.2-.1-.1-.2-.1-.2-.1-.2h-.3l-.2-.1h-.2l-.2.3v.8l.1.2-.1.2v.7l-1.4 2.4-.2.2-.1.2-.2.1h-.1l-.2.1h-.2l-.2.1h-.2l-.3.1-.1.1v.3l.2.1h.2l.3-.1h.2l-.1.2v.2l-.1.2-.1.1h-.2l-.2-.2-.1-.2-.1-.1-.1-.2h-.3v-.5l-.1-.1v-.1l-.1-.1-.2-.2-.2-.2-.2-.1-.3-.1h-.4l-.1.2v.1l.1.2.2.2.1.2.1.2v.2l1 1.7.5 1.3-.1.1-.2.1h-.1l-1.1-1.2h-.6l-.1.1.2.3.2.3.2.3.2.3.2.4.1.3.1.4.1.3h.2l.1-.1.2-.1v-.5l.1-.2.2-.2.3-.2.2-.2.3-.2.2-.1.3-.2.3-.1.3-.1.1.1.1.3-.1.2-.2.2-.1.3-.1.2-.1.2v.2l.3.1 1.1-1.4h.8l-.6 1 .2.1.1-.1 1.3-1.4v-.2l.1-.2.1-.2.1-.2v-.3l-.1-.2-.1-.2h-.1l-.1-.1v-.2l.8-.6.3-.1.2-.1.2-.2.2-.1h.1l.2-.1h.5v.1l.1.1-.5 1.1-.3.4-.3.4-.3.5-.2.4-.3.5-.3.4-.3.4-.3.3-4.1 2-.1.3v.2h.1l4-1.6v.2l-.1.2-1 1.4-.1.1h-.1l-.9 1v.7l-.2.1-.3.2-.2.2-.2.2-.1.2-.2.1-.2.1-.1.1-.2.2-.1.1h-.4l-.1.1-.1.1-2.3.7-.1.3.2.1.2.1h.3l.2.1h.5l.2-.1.2-.1.2-.1.2-.1.2-.1.3-.1.4-.2.3-.2.4-.2.3-.2.3-.2.3-.1.3-.2v3.3l-.3.3-.3.1h-1.6l-.2.1v.3l.3.1h.8zm-78-.8 1.8-3.4 1.3-2.2 1-1.8h.1c0-.1 0-.1.1-.2 0-.1.1-.2.1-.2.1-.1.2-.1.2-.1l.1.1c.1 0 .1 0 .1.1.1.1.2.2.3.2.1.1.1.2.2.2l.2.1c.3.1.4.1.6 0 .5-.3 1.1-.7 1.6-1l-.3.4c-.1.1-.2.3-.3.4s-.1.3-.3.4a.76.76 0 0 1-.2.4c0 .1-.1.3-.1.5v.9l.1.5v.3l.1.2.2.2.3.1v.4l-.1.1-.1.1-2.4 1.5-.1.3.1.2.2.2.1.1.1.1h.4l.3-.3.4-.2.3-.2.3-.3.3-.2.3-.3.3-.3.3-.3-1.1.6-.1.1-.3.2-.3.1h-.4v-.2l.1-.2 1.1-.7.2-.1.8-.6 1.9-1.4-.2-.1-.1-.1-.1-.5.1-.3.2-.2.3-.2.3-.2.3-.1.3-.2.1-.3-.2-.1-.2-.1v-.3l1.2-.5.1.2-1.6 3.5 1.6-1.8.1-.1.1-.2.1-.2.1-.2.1-.2.1-.2.1-.1.3-.2.1-.2-.1-.1-.1-.2-.1-.2-.1-.1-2.3.4v-.5l-.2-.3-.1-.1-.1-.1.1-.1 1.1-.4.2-.1.2-.1h.2l.3-.1 2.1-1h-.1l-.1-.1-.1-.1h-.1l-1.9.6-.9.3.6-1.3.9-1.2h.2l.2-.1.2-.2-.1-.2-.3-.2-.1-.1H45l-.1-.1-.2-.1-.6 1.3-.3.2-.3.1H43l-.3.1-.3.1-.3.1-.3.1h-.3l-.1-.2.1-.2.1-.2v-.2l-.2-.1h-.2l-.1-.1-.2.2v1.3l-2 1.2h-.3l.5-.7.5-.7.4-.7.5-.7.5-.6.6-.6.6-.5.8-.3.1-.1.1-.1.1-.1.1-.1-.1-.1v-.5h-.1l-.1-.1h-.3l-.6.2-.5.2-.5.2-.4.1-.5.2-.5.1-.5.1h-.5l-1.9.5v.3l.1.1h.4l.1.2h.4l.2.1h.4l.5-.3.4-.2.4-.3.4-.2.3-.2.4-.2.4-.1.4-.1v.2l-2.6 3.2-.3.4-.2.4-.3.4-.3.4-.3.4-.3.4-.3.3-.4.2.1.1v.1c0 .4-.2.7-.4 1-.1.1-.1.2-.1.2l-.2.2c-.1.1-.1.1-.2.1l-.6.8-.5.8-.5.8-.5.7-.5.8-.5.7-.5.7-.5.7-.1.2v.3l.1.2.1.2.1.2h.7zm45-.2.2-.1.2-.2.2-.3.2-.3.1-.2.1-.3.2-.3.3-.2 1-.8h.3l.2.1.2.1.2.1h.3l.2.1h.2l.1.2.1.1h.3l.1-3.5.2-.1.2-.1h.2l.2-.1v-.2l-.1-.1-.1-.2v-.1l.3-.1v-.4l-.1-.1-.1-.1-.2-.1v-.1l.1-.2.2-.1.2-.1.2-.1.1-.3-.2-.1-.1-.1v-.3l.2-.2.1-.1c0-.1.3-.3.9-1.2h-.2l-.3-.1H83l-1.6 1.1h-.1l-.1-.2v-.5l2.7-1.4.3-.2.4-.1.4-.1h.4l.4.1h.4l.4.1.4.1-.7-1-1.7.4-.1-.1.1-.6.1-.6.1-.6.2-.6.1-.6.2-.6.1-.6v-.7h-.5l-.3.1h-.2l-.1.2v.5l.1.2.1.1-.7 4.3-1.7.8-.1-.3v-.9l.1-.1.1-.2h.4l1-2-.5.6-.2.1h.1l-.2-.2h-.1l-.1.2v.3l.1.1-.1.2-.1.3-.3.2-.2-.2v-.6l.1-.4v-.3l.1-.3-.1-.3-.1-.3-.1-.1-.3-.2-.1-.1h-.1l-.2-.1-.1 1v1.4l-.1-.2-.2.2-.3.1-.3.1h-.4l-.2-.1-.1-.2-.2.1v.3l.1.1v.2l.1.3.2.2h.3l.2-.1.2-.1.2-.1.3-.3h.2v.8h.1l.2.1.1.1.1.1-2.2 1.1-.3.1-.3.1-.3.1h-.3l-.3.1h.1-.6l-.3.1H76l-.1.2v.2l.2.1.2.2.2.1.3.1.2.1.3.1h.5l.3-.1 1.3-.9 1.1-.4v.4l-.1.3v.1l-.1.3.4.1h.3l.3-.2.3-.2.2-.2.3-.3.2-.3.3-.2h.2l.3.3v.6l-.1.2-.1.1-.2.2-.2.1-.2.1-.2.1-.3.3-.3.2-.3.1-.3.1-.3.2-.3.2-.2.2-.1.2.2-.1.2-.1h.6v.4l-.1.1-.1.1-.1.2v.2l-1.1.9v.4l.1.1h.6l.2-.1.2-.1.1-.1v-.1l.4-.1v.5l-.1.2-.1.2-.1.3-.1.1-.1.1-1.2.9-.3.2-.3.1-.3.2-.3.2-.3.2-.3.2-.3.2-.3.1-.1.2v.6l.2.2zm-28-1.3h.2l.2-.1.2-.1.1-.3.3-.3.3-.3.3-.3.3-.3.3-.3.2-.3.2-.3-.3-.2-.2.3-.1.2-.2.2-.2.2-.2.2-.2.1-.2.1-.2.1-.2.1-.2.1-.2.1h-.2l-.2.1h-.2l-.3-.1-.1-.1-.1.3v.1l.1.1.2.1.1.2.2.2h.3zm52.6-.2.2-.1.1-.1v-.6l-.1-.4-.2-.3-.2-.4-.2-.3-.2-.4-.1-.4h-.4l.1 2.6.3.1.2.1.1.1zm-46.5-.3h.1l.1-.1.1-.7-.1-.7-.1-.7-.1-.8-.1-.7v-1.4l.1-.7.6-.6.1-.3.1-.3v-.6h-.2v.1l.1.2-.1.1-.2.2v.1l-.2.2-.2.1v-1.3l.9-.9 1.1-.9 1.2-1.1-.1-.2v-.3l-.2-.2-.1-.1h-.7l-.3.2-.3.1-.3.2-.2.2-.3.2-.3.1h-.1v-.4l.1-.2 1.7-1.4h.8l.1-.1h-.1l-.2-.1-.1-.1-1.8.7-.2-.1.1-.1v-.8l.1-.3.1-.2.1-.3v-1.1l-1.1-.8h-.2l.1.6.1.5v.5l.1.5v1.1l-.1.6v.5l-2.6 1.1-1.5.6v.1l.1.1.1.1h1.3l.3-.1.3-.1.1-.1.2-.1.2-.2.2-.2 1-.7.1.2v.5l-1.1.9 1-.3.1.2v.3l-.1.2-.2.1-.7.7-.2.1-.1.1-.2.1-.1.2-.2.1-.1.1-.1.1h-.1l-.1-.1.1-.1v-.4l-.1.2v.1l-.1.1-.2.3-.1.2-.1.3-.1.1-.1.2v.4l.1.2.2.1h.1l.4-.3.3-.4.2-.3.3-.4.2-.3.3-.4.3-.3.4-.3h.2l.1.3.1.2-.1.2v.2l-.2.1-.1.1v.2l.4.1-.2 1.7h-.1l-.1.1-.2.1-.1.1-.2.1v.1l.1.1.1.1.2.1h.1v3.6l-.1.1h-1.4v.1l.3.1.4.1.3.2.4.1.3.2.3.2.3.2zm36.4-.2 1-.3.1-.1h.3l1.2-.7h.3l.3-.1.2-.1.2-.2.2-.2.2-.2.1-.2.2-.2.7-1.5.6-1.8.1-.1.2-.1.2-.1h.2l.1-.1.1-.1h.4l3.3-1.5-.1-.1-.3-.1-.1-.1-.3-.1-.2-.1-.4.4-.4.3-.4.3-.4.3-.5.2-.4.2-.5.1-.5.1-.2-.1.8-4.5v-.4c-.1-.3-.1-.4-.3-.7l-.2-.3-.3-.3-.4-.3-.3-.3-.3-.3h.3l-.1-.1c-.1.1-.1 0-.2 0l.2.4.2.4.1.3.1.3c0 .2 0 .4.1.7.1.6.3.6.2 1.3v1.2l.1.6-.1.6-.1.6-.2.6-.3.5-2 .4-1.7.6-.6.1-.5.2-.6.2-.5.2-.6.3-.6.2-.6.2-.6.1 1.3.9.1.1h.5l.3-.1.2-.2 1.2-.6.6-.2.5-.2.6-.3.6-.3.5-.2.5-.3.6-.1.5-.1v.2l.1.2-.2.6-.2.6-.3.6-.3.4-.4.5-.4.4-.5.4-.5.3-.3.2-.3.1-.3.1-.3.1-.3.2-.3.1-.2.1-.1.2h.3zm-47.3-.2.2-.1.1-.1.1-.1.2-.1-.1-.1v-.1l-.2-.3-.2-.2-.2-.1-.3-.2-.3-.1-.3-.1-.3-.1-.2-.1-.2.1.1.3.2.1.1.2.1.2v.2l.1.2v.2l.1.2v.1l.1.1h.9zm40.4-.4.2-.1.1-.1.1-.2v-.5l-.2-.2-.1-.2-.2-.1-.2-.1-.3-.1h-.8.1-.2l-.1.3.2.1.3.1.2.1.3.1.1.2.2.2.2.2zm-4.2-.2h.2l.2-.1-.1-.2v-.4l-.2.1-.1.2-.2.1-.1.2.1.1zm-16.6-.2h.3l.2-.1.2-.1.2-.1.1-.1.1-.1.2-.1h.5c.1 0 .1-.1.2-.1h.3l.3-.1c.1 0 .1-.1.2-.1l.2-.1c.1-.1.2-.1.3-.1l.2-.1h.2l.2-.1.1-.1 3-.9.1-.1h.2v-.3l-.1-.2-.1-.2h-.3l-.3.1-.3.1-.3.1-.3.1-.3.1h-.3l-.3-.1-.1-.2 1-1.6.3-.1.3-.2.2-.2.3-.3.2-.2.3-.3.2-.3.3-.3.1-.1.2-.2.2-.2.1-.2v-.7l-.1-.1-.1-.1-.1-.1-.1-.1-1.5.1-2.8.1h-1.3l-.1.2-.1.3.1.2.1.1.2.2.2.1.1.1h1.8l.4-.1h.4l.3-.1.4-.1.4-.2h.5l.3.1.2.1-.2.3-.2.3-.2.3-.2.2-.3.3-.3.3-.3.2-.2.3-.2.1-.2.1-.1.2-.2.2L68 122l-.4.4-.5.3-.6.3-.5.1-.6.2-.5.1-.6.1h-.9l-.1.1h-.8l-.2.1-.1.1v.2l2.1 1h.2zm-24.1-.9h.2l.3-.2.2-.2.1-.1.1-.2v-.1l.1-.2v-.5h-.3c-.1 0-.2 0-.2.1h-.2c0-.1 0-.1-.1-.2.1-.1.1-.1.1-.2l.1-.1h.2c.2-.2.2-.2.3-.2.1-.1.1-.1.2-.1v-.1l.1-.2.1-.1.1-.2-1.1.4h-.1v-.1c0-.1.1-.2.1-.3h.2l.3-.1.2-.1.3-.1.2-.1.2-.1.2-.2.2-.2v-.1l-.1-.3v-.1l-.1-.2-.1-.1-.3-.1-.9 1v.5l-.2.2-.3.3-.1.1-.2.1-.1.1c0 .1 0 .3-.1.4v1.2c0 .1.1.2.1.3s.1.2.1.3l.2.3zm18-.6.1-.2.2-.1.3-.1.2-.1.2-.1v-.3l-.3-.2-.3-.1-.3-.1-.3-.2-.3-.1-.3-.1-.3-.1-.3-.1.1.1.1.1h.1l.2.2.2.3.1.2v.7zm-19-3.8c.2-.1.4-.1.6-.2l.6-.3.6-.3.6-.4.5-.4.4-.5.4-.5.3-.6-1.8.8v.6h-.3l-.1-.1-.2-.1h-.1l-.2.1-1.8 1-.2.2-.3.1-.2.1-.2.1-.3.2-.1.1c0 .1-.1.1-.1.2v.2c.1 0 .2.1.3.1zm16.6-2h.1l.2-.2.2-.1.2-.2.1-.2.3-.3.2-.2.3-.3.1-.2.2-.3.1-.3.1-.3-.2-.1-1.9 1.2-.2 1.7h.2zm52.9-.6.2-.1.2-.2.1-.1-.1-.1-.1-.1-.1-.1-.2-.1-.1.1v.7zm3 0 .2-.3v-.7l-.1-.1v-.2l-.3-.1h-.3v1l.1.1.1.1zm-1.6-1h.1l.2-.1.2-.1v-.2l-.1-.1-.1-.2-.1-.1-.1-.1h-.3l-.1.1-.1.1-.1.1v.2l.1.1.2.1.2.1zm-54-1.5h.2l.1-.1.3-.2.2-.3.2-.3-1 .4zm-16-2.7h1.6l.3-.1.2-.3v-.2l-.1-.2-.1-.2-.1-.2-.4-.2-.4-.3-.4-.2-.4-.2-.4-.1-.4-.1h-.8l-.1.2v.1l1 .7v.3l.1.1.2.1v.2l-.1.2v.2h.3zm-8.1-11.6 1.2-.9.9 1.3c.3.4.4.9.3 1.2-.1.4-.5.7-1.1 1.1s-1.1.6-1.5.6-.8-.2-1.1-.7l-1.6-2.4-.9.6 1.6 2.4c.6.9 1.2 1.3 2 1.4.7.1 1.5-.1 2.4-.8.5-.3.9-.7 1.1-1a1.92 1.92 0 0 0 .4-1.2c0-.3 0-.6-.1-.9s-.3-.7-.6-1.1l-1.6-2.4-3.1 2.1 1.8 2.6.9-.6zm-4.9-.7 3.4-1.7q.6-.3.9-.6c.3-.3.4-.4.4-.5.1-.4.2-.8.1-1.2 0-.4-.2-.9-.5-1.4s-.5-.9-.8-1.1c-.3-.3-.7-.5-1-.6-.2-.1-.4 0-.7 0s-.6.2-1 .4l-3.4 1.7.6 1.2 3.4-1.7c.5-.3 1-.4 1.3-.3s.6.3.8.8c.2.4.3.8.2 1.1s-.4.6-1 .9l-3.4 1.7zm-2.8-9.5 2.6.1-.6-1.8zm5.8 1.5-.4-1.3h-1.6l-.9-2.6 1.2-1-.5-1.4-5.1 4.5.4 1.4zm-2.4-6.8-.2-1.3-4.7.9 4.3-3.5-.3-1.5-6.2 1.1.3 1.3 4.5-.8-4.1 3.3.3 1.7zm-4-10.9h1.5v1.5c0 .5-.2.9-.4 1.1-.3.3-.8.4-1.5.4s-1.3-.1-1.6-.3c-.3-.3-.5-.6-.6-1.1v-2.8h-1.1v2.9c0 1 .3 1.7.8 2.2s1.4.7 2.5.7q.9 0 1.5-.3c.4-.1.7-.4 1-.7.2-.2.3-.5.4-.8s.1-.7.1-1.2l-.1-2.9-3.8.1.1 3.1h1.1zm-2.3-5.7-.1 1.5 4.1.3.1-1.5c0-.6-.1-1-.4-1.2-.3-.3-.8-.4-1.6-.4-.8-.1-1.3 0-1.6.2-.3.1-.4.6-.5 1.1m5 3.3.2-2.9v-1.2c-.1-.3-.2-.6-.4-.8-.3-.4-.6-.6-1-.8s-.9-.3-1.5-.3c-1.1-.1-2 .1-2.5.5-.6.4-.9 1.1-1 2.2l-.2 2.9zm.2-7.4c.6-.4 1.1-1.1 1.3-2.1s.1-1.9-.3-2.5-1.2-1.1-2.3-1.3c-1.1-.3-2-.2-2.6.2s-1.1 1.1-1.3 2.1-.1 1.8.3 2.5c.4.6 1.1 1.1 2.2 1.3s2 .2 2.7-.2m-4.1-3.4c-.1.6 0 1 .2 1.4.3.4.8.6 1.5.8s1.3.2 1.7 0 .7-.6.9-1.1c.1-.6 0-1-.3-1.4s-.8-.6-1.5-.8-1.3-.2-1.7 0-.6.6-.8 1.1m6.5-2.7.5-1.3-4.5-1.7 5.5-.7.6-1.4-5.9-2.4-.5 1.3 4.3 1.6-5.2.7-.6 1.6zM31.7 47l1.3.7-.8 1.3c-.3.4-.6.7-1 .7s-.9-.1-1.5-.5c-.7-.4-1-.7-1.2-1.1s-.1-.8.1-1.3l1.5-2.4-.9-.6-1.5 2.5c-.5.8-.7 1.7-.5 2.3.2.7.8 1.3 1.7 1.9.5.3 1 .5 1.4.6s.8 0 1.3-.1c.3-.1.6-.3.8-.5s.5-.5.7-1l1.5-2.4-3.2-2-1.6 2.7 1 .6zm3.7-10.6 2.6 2.8c.3.3.6.6.8.7s.4.3.6.3c.4 0 .8 0 1.2-.1.4-.2.8-.4 1.2-.9.4-.4.7-.7.9-1.1s.3-.7.3-1.1c0-.2-.1-.4-.2-.7-.1-.2-.4-.5-.7-.8l-2.6-2.8-1 .9 2.6 2.8c.4.4.6.8.6 1.1s-.2.6-.6 1-.7.5-1 .5-.7-.3-1.1-.7l-2.6-2.8zm9.3.1 1.1-.8-2.8-3.9 5 2.4 1.3-.9-3.7-5.2-1.1.8 2.7 3.7-4.7-2.2-1.4 1zm3.7-9.8-1.2.7 3.3 5.4 1.2-.7zm7.3 3.4-.3-6.8-1.3.6.2 5.1-3.7-3.5-1.4.6 5.2 4.6zm6-7.3-.3-1.1-2.1.6c-1 .3-1.6.7-2 1.4-.3.7-.3 1.5 0 2.6.1.6.4 1 .6 1.4.3.3.6.6 1 .8.3.1.6.2.9.2s.7-.1 1.1-.2l2.2-.6-.3-1.1-2.1.6q-.75.15-1.2 0c-.3-.2-.5-.5-.7-1l3.6-1-.3-1.1-3.6 1c-.1-.5-.1-.9.1-1.1.2-.3.5-.5 1-.7zm4.9-.8-1.6.2.2 1.6 1.6-.2q.6-.15.9-.3c.1-.1.2-.3.1-.6q0-.45-.3-.6c-.2-.2-.5-.2-.9-.1m-2.2 5.5 1.3-.2-.3-2.4 1.6-.2 1.7 2.3 1.5-.2-1.9-2.4c.4-.1.7-.4.9-.7s.2-.7.1-1.2c-.1-.6-.3-1.1-.7-1.3-.4-.3-1-.3-1.7-.2l-3.3.4zm12.1-6.9-3.5-.1c-.8 0-1.4.1-1.7.4q-.6.45-.6 1.5c0 .6.1 1.1.5 1.4.3.3.9.5 1.6.5h1.5c.4 0 .6 0 .7.2.1.1.2.3.2.6s-.1.4-.3.6c-.1.1-.4.1-.8.1l-3.3-.1v1.1h3.6c.7 0 1.3-.1 1.7-.4s.6-.8.6-1.4-.1-1.1-.4-1.4-.8-.4-1.5-.4H73c-.3 0-.5-.1-.6-.2s-.2-.3-.2-.5q0-.45.3-.6c.3-.15.4-.2.8-.2l3.3.1v-1.2zm3.4.3-1.4-.2-.8 6.3 1.4.2zm1.9 6.8 1.4.3.9-5.1 2 .3.2-1.1-5.4-1-.2 1.1 2 .3zm6.2-1.3-.9 2.6 1.3.4.9-2.7 3.4-2.6-1.4-.5-2.3 1.9-.7-2.8-1.4-.5zm9.7 6.7c.1.7.6 1.4 1.5 2s1.7.8 2.4.7 1.4-.7 2-1.6.9-1.8.7-2.5c-.1-.7-.6-1.4-1.5-2s-1.7-.8-2.4-.7-1.4.7-2 1.6-.8 1.7-.7 2.5m4.6-2.6c-.5-.3-.9-.4-1.4-.3-.4.1-.8.5-1.3 1.1-.4.7-.6 1.3-.5 1.7 0 .4.3.8.8 1.2.5.3.9.4 1.4.3.4-.1.8-.5 1.3-1.1.4-.6.6-1.1.6-1.6-.2-.6-.4-.9-.9-1.3m.2 6.9 1 .9 1.7-2 2.9 2.5.7-.8-2.8-2.5c.3-.4.7-.6 1.1-.6q.45 0 1.2.6l1.6 1.4.7-.8-1.5-1.3c-.4-.4-.9-.7-1.3-.9s-.7-.3-1.1-.2c-.3 0-.7.1-1 .4-.3.2-.7.6-1.3 1.2zm9.5 10.5.7 1.1 4.4-2.7 1.1 1.7.9-.6-2.9-4.7-.9.6 1.1 1.7zm9.1 5.6 1-.5-1-2c-.4-.9-1-1.5-1.7-1.7s-1.6-.1-2.5.4c-.6.3-1 .6-1.3.8-.3.3-.5.7-.6 1.1q-.15.45 0 .9c0 .3.2.7.4 1.1l1 2.1 1-.5-.9-2c-.2-.5-.3-.9-.2-1.2s.4-.6.9-.8l1.6 3.3 1-.4-1.6-3.4c.5-.2.8-.2 1.2-.1.3.1.6.4.8.8zm2.1 6.3 1-.3-.7-2.1c-.3-1-.8-1.6-1.4-1.9-.7-.3-1.5-.3-2.6.1-.6.2-1 .4-1.4.7-.3.3-.6.6-.7 1-.2.3-.2.6-.2.9s.1.7.3 1.2l.7 2.1 1-.3-.7-2.1c-.2-.6-.2-1 0-1.3s.6-.6 1.3-.8c.7-.3 1.3-.3 1.7-.2s.7.4.9 1zm1.6 1.4-6.2 1.1.3 1.3 2.6-.4.4 2.4-2.6.4.2 1.3 6.3-1.1-.3-1.3-2.5.4-.4-2.4 2.5-.4zm-5 7.5v1.4l4.8-.1-4.7 2.8v1.6l6.4-.1v-1.4l-4.5.1 4.5-2.7v-1.7zm.5 7.1c-.6.4-1 1.2-1.1 2.3s0 1.9.5 2.4c.5.6 1.3 1 2.4 1.1 1.1.2 2 0 2.6-.4s1-1.2 1.1-2.3c.1-1 0-1.8-.5-2.4-.4-.6-1.2-.9-2.3-1.1-1.2-.1-2 0-2.7.4m4.4 3c.1-.6-.1-1-.4-1.3s-.9-.6-1.6-.6c-.8-.1-1.3 0-1.7.2-.4.3-.6.7-.7 1.2-.1.6 0 1 .4 1.4.3.3.9.5 1.6.6s1.3 0 1.7-.2c.4-.3.7-.7.7-1.3m-6.8 7.6 1 .2.3-1.5c.1-.3.2-.6.3-.7l.4-.4c.1-.1.2-.1.4-.1s.4 0 .8.1l3.7.9.3-1.3-3.7-.9c-.5-.1-.8-.2-1.1-.1-.3 0-.6.1-.8.3-.3.2-.5.4-.7.6-.1.3-.3.7-.4 1.3zm.5.9c-.7.3-1.3.9-1.7 1.9s-.4 1.8-.1 2.5 1 1.3 2 1.7 1.9.5 2.6.2 1.3-.9 1.7-1.9.5-1.8.2-2.5-1-1.2-2-1.6c-1.1-.4-2-.6-2.7-.3m3.5 4c.2-.5.2-1 0-1.4s-.7-.7-1.4-1-1.3-.4-1.7-.3-.8.4-1 1c-.2.5-.2 1 0 1.4s.7.7 1.4 1 1.3.3 1.7.2c.4 0 .7-.3 1-.9m-6.4 6.7-1.3-.8.8-1.3c.3-.4.6-.7 1-.7s.9.1 1.5.5 1 .8 1.2 1.1c.2.4.1.8-.1 1.3l-1.5 2.4.9.6 1.5-2.4c.6-.9.7-1.7.5-2.4s-.8-1.3-1.7-1.9c-.5-.3-1-.5-1.4-.6s-.8 0-1.3.1c-.3.1-.6.3-.8.4-.2.2-.4.5-.7 1l-1.5 2.4 3.3 1.9 1.6-2.7-1-.6zm2.1 3.7-.9 1.2-2.9-.1 1 2.7-.9 1.3-1.4-4.1-2.3-1.6.8-1.1 2.3 1.7zM73 128.2c-2.3 13.3-27.6 4.1-42.4 3.1-5.5-13.8-22.1-35-10.1-41.3C7.1 92 8.1 65.1 4.4 50.7 15.8 41.2 30.8 19 40.5 28.4 34.5 16.3 60.5 8.8 73 .8c12.5 7.9 38.5 15.4 32.5 27.5 9.6-9.4 24.7 12.9 36.2 22.4C138 65.1 139 92 125.6 90.1c11.9 6.3-4.7 27.5-10.1 41.3-14.9.9-40.2 10.1-42.5-3.2M145.6 73c0 40.1-32.5 72.6-72.6 72.6S.4 113.1.4 73 32.9.4 73 .4s72.6 32.5 72.6 72.6" fill-rule="evenodd" fill="#c30d23"/></svg>