<svg xmlns="http://www.w3.org/2000/svg" width="35vw" viewBox="0 0 88 88" fill="none"><g fill-rule="evenodd"><g fill="#e8380e"><path d="M49.919 32.328c-.871 1.716-1.684 3.975-2.576 6.006-.54 1.231-.8 2.463-1.345 3.569.75-.799 1.755-1.617 2.503-2.208l1.69-1.913c.577-1.534 1.606-3.273 1.075-4.383-.241-.503-.676-.757-1.347-1.072zM36.524 45.4c-.68.082-1.812.916-2.399.075-.356-2.817 2.07-6.045 3.321-7.759.045-.14.042-.264.087-.403.751-.879 1.765-1.7 2.738-2.503l3.088-2.179c.782-.45 1.385-.865 2.482-1.242.236-.375.358-.724.588-1.098.179-.292.466-.611.651-.903l2.91-3.937c.127-.376.345-.706.759-.937.314-.022.559-.502.874-.678.231-.251.53.105.76-.002q.58.092.939.507l-.008 1.428c.01.18.007.163-.113.318-.183.238-.26.644-.425.894-.201.302-.223-.03-.33.143l-1.34 2.244c-.368 1.896 2.095 1.57 1.918 3.319.771 3.77-3.615 8.699-7.042 10.436-.506.256-.475.349-.659.902-.109.334-.192.68-.327.989-.057.131-.179.247-.225.388-.23.566-.376 1.176-.606 1.743l-.269 1.433c-.044.481-.21.916-.254 1.397-.046.035-.006.04-.052.076-.178.14-.208.261-.183-.003.01-.107.045-.212.057-.27-.033.029-.091.015-.124.044-.198.172-.449.537-.648.694-.002.356-.046.719-.049 1.075-.069.08-.095.151-.165.231-.099.115-.148.103-.209.106-.19.012-.273-.026-.464-.099l-.065.503c-.06.025-.261.021-.448.099-.24.102-.477.292-.469.336a1 1 0 0 1-.068.445c-.056.127-.133.193-.464.052-.033-.303.285-1.953.759-1.188.07-.157.199-.236.269-.392.078-.178.098-.432.177-.61l-.505.436c-.59-.009-.389-.208-.328-.675.025-.193.041-.424.085-.643.238-.822.519-1.578.755-2.396.05-.17.047-.351.097-.526.062-.221.198-.442.265-.665.082-.269.087-.597.164-.863-1.126.455-1.874 1.153-3.079.485-.979-1.117-1.68-1.515-1.053-2.265l1.265-1.938c.275-.481.472-.94.747-1.42.299-.64.706-1.322 1.231-1.827.035-.033.013-.164.05-.194.381-.341.735-.809 1.014-1.626l.631-.687c.097-.139 1.754-2.492 1.262-1.248l-.506.624-.949 1.501-.886 1.251-.886 1.438-.825 1.565c-.338.646-.596 1.32-.934 1.968-.512 2.355 1.084 1.761 3.146 1.308.246-.192.151-.502.246-.751q.047-.126.102-.251l1.344-4.386 1.149-3.446.639-2.13.317-.5q-.001-.28-.565-.003c-4.465 2.48-8.708 5.825-10.479 10.673.014.393-.128.918.245 1.006.377.002.834.103 1.211.104.233.09.142.408.057.41z"/><path d="M41.614 52.583c.065-.118.198.053.403.092.023.112.044.224-.06.36-.038.094-.15.13-.188.223-.033.084.01.223-.023.306-.563.308.308.377-.544.593-.121-.312-.111-.285.107-.539l.059-.189c-.286-.018-.073-.093-.121-.351l-.094-.019c.04-.767.218-.031.461-.476m-1.283 1.081c-.294.262-.19.465-.157.838l.217.001c.062-.142-.006-.334.119-.426.169-.125.178-.732-.179-.413m2.203-1.095a.21.21 0 0 1-.23.008c-.184-.349.335-.309.23-.008m.936-1.726c.065-.184.086-.348-.118-.465-.454.603-.015.848.118.465"/></g><g fill="#365f8f"><path d="M44 85.989c-23.186 0-41.989-18.804-41.989-41.99S20.814 2.01 44 2.01s41.99 18.804 41.99 41.989S67.186 85.989 44 85.989M44 88c24.297 0 44-19.704 44-44.001S68.297 0 44 0 0 19.703 0 43.999 19.704 88 44 88m.001-13.75c-16.704 0-30.251-13.547-30.251-30.252s13.547-30.251 30.251-30.251 30.251 13.547 30.251 30.251S60.706 74.25 44.001 74.25m0 .682c17.082 0 30.934-13.852 30.934-30.934S61.083 13.066 44.001 13.066 13.067 26.917 13.067 43.998 26.92 74.932 44.001 74.932M13.193 34.254c-.139.295-.725.168-.959.075l-.07-.248c.039-.18.135-.849.36-.883a.7.7 0 0 1 .237.148c.001.146.181.231.273.333.297.193.283.273.158.575zM6.13 29.9c-.044.35.175.518.489.575l.014-.029q.014.008.03.009c.124-.087.193-.113.336-.069.014.24-.088.407-.018.649-.025.07-.128.346-.048.384l-.313.561q-.023-.002-.038-.006c-.066.078-.101.115-.127.206.027.03.053.06.033.103.263.415.742.409 1.137.224.136.059.19.177.263.293.226.137.482.298.652.488.244.175.403.476.644.631.192.242.383.466.639.639.07.197.632.556.799.669.01.028.276.276.358.326.09.141.206.254.341.359.144.225.401.416.643.531.382-.267-.017-.566-.26-.803-.067-.189-.433-.397-.393-.581l-.245-.303c.014-.067-.295-.348-.367-.441-.089-.327-.534-.665-.756-.909-.066-.043-.238-.113-.183-.227-.093-.085.05-.302.148-.336l.182-.35c-.034-.184.07-.577-.024-.697.019-.125.019-.125.067-.253l-.037-.018c.039-.145.034-.245.104-.392.467.081.032.52.12.766a.4.4 0 0 0-.029.085c.054.106.21.169.315.231l.199-.04c.088-.127.252-.276.386-.324.037.059-.002.127.005.2.256.145.345.094.504-.145.123-.001.213.089.319.15l-.012.331.038.019c-.011.034.009.055.014.105l-.104.207c-.123-.035-.541-.39-.653-.304l-.125-.041c-.065.014-.336.144-.34.141-.244.146-.796.198-.42.591.204.108.367.244.563.371.028-.01.179.026.277.026l.013-.029c.118.021.118.021.406.013.07-.049.147-.053.239-.05l.018-.039c.13-.002.219-.129.318-.204a.04.04 0 0 1-.01-.028l.177-.376.039.019.128-.271c.028-.22.053-.504.139-.713l.367-.246.248-.475c.289-.229.493.065.798.058a.44.44 0 0 1 .322-.068c.26-.092.368-.506.133-.658-.086-.127-.471-.431-.601-.266a1 1 0 0 0-.03.148c-.051-.087-.051-.087-.106-.131q-.017.017-.025.029c-.191-.038-.344.187-.423.329-.066.044-.15.085-.196.157a.44.44 0 0 1-.192-.073l.016-.034c-.062-.064-.056-.125-.126-.188-.314-.491-.974-.851-1.487-1.093a.66.66 0 0 1-.349.149l-.419.429a1.2 1.2 0 0 0-.147.629l-.12.204c-.042-.008-.084.007-.15-.013.002-.04.002-.04-.05-.116l.084-.693a.1.1 0 0 1-.023-.023c.013-.238.125-1.027.455-.988.183-.227.399-.671.105-.909-.147-.045-.182-.033-.222-.046l-.045.095q-.024-.001-.038-.007c-.073.071-.165.178-.266.194-.124.15-.288.241-.376.426-.101.47-.032.99-.201 1.444-.199-.146-.299-.373-.326-.613-.041-.036-.057-.062-.043-.118-.013-.008-.029-.013-.038-.019-.001-.169.118-.397.178-.56-.027-.019-.024-.048-.109-.162q-.079-.022-.147-.046c-.357-.042-.304.065-.421.313l-.032-.017q-.02.02-.028.034c-.33-.017-.583.236-.696.537-.029-.002-.029-.002-.06-.034a3.3 3.3 0 0 1 .287-.84c-.057-.161-.018-.294-.027-.461.083-.397-.203-.492-.548-.486-.04.022-.126.167-.197.244l-.039-.019c-.277.218-.327.608-.32.936l-.191.38c-.076.063-.176.062-.261.133l-.038-.018-.017.032-.032-.016c-.126.069-.169.148-.244.269-.031.066-.119.316-.183.338zm6.122 3.298a.04.04 0 0 1-.01-.028l.177-.376.039.019zm.105-1.781c-.028.01-.096.129-.168.193-.087-.047-.219-.126-.202-.234q-.027-.015-.043-.032c.033-.205-.252-.352-.434-.31-.073.116-.126.144-.245.064a1.1 1.1 0 0 1 .051-.342q.014.004.037.007c.034-.071.052-.109.121-.146.249.088.803.207.833.574a1 1 0 0 0 .092.089 1 1 0 0 0-.042.137M9.355 32.71c-.157-.022-.327-.142-.33-.319l-.098-.064c.066-.091.205-.163.288-.253.001-.161.012-.232.119-.35.106.01.141.009.213.078-.063.33-.078.584-.192.908m.161-1.568c-.135.04-.268-.059-.388-.114-.081-.184-.097-.471.012-.652l.297.281c.094.171.094.171.129.194-.028.168-.018.195-.051.291zm-.85 1.097c-.093.072-.36-.013-.468-.042l-.138.045-.07-.051a.2.2 0 0 1 .011-.071c-.074-.15.006-.293-.066-.425-.014-.252-.014-.252 0-.319-.095-.046-.078-.374-.068-.445a.1.1 0 0 1-.023-.023c.029-.062.033-.206-.015-.251l.196-.623c0-.146.009-.286.036-.43l-.036-.035a.3.3 0 0 1 .027-.069c.275.13.666.361.593.71.061.168-.102.388-.036.57l-.073.152-.254.047c-.338.246-.234.517.103.676.057.103.027.24.07.359a.8.8 0 0 1 .214.223zM6.13 29.9c.022-.083.022-.083.169-.345-.017.073-.105.323-.169.345m72.375 2.662-.033.016.215.479.033-.015q.029.031.056.073c.249.054.358.323.461.524-.025.023-.025.023-.035.103-.192.109-.363.278-.599.27l-.017-.039-.111-.002c-.152-.094-.382-.105-.554-.13-.043-.096-.139-.054-.198-.119l-.038.017c-.062-.059-.062-.059-.136-.083-.111.114.222.419.305.486.126.242.366.428.341.721-.055.094-.22.254-.21.353l-.223.192c-.287-.009-.341-.555-.436-.777a2 2 0 0 1-.237-.337c-.052-.011-.667.426-.692.45l-.234.042-.01.028c-.257.029-.55-.007-.809-.005-.133-.051-.182-.097-.34-.066q-.012-.02-.025-.029a.61.61 0 0 1-.458-.226c-.012 0-.023-.001-.038.005-.045-.101-.057-.268.009-.349a.1.1 0 0 0-.01-.047c.013-.012.02-.021.03-.025-.004-.021-.011-.035-.017-.05.229-.235-.467-.602.013-.841.235-.054.455.307.561.466a1 1 0 0 1 .217.175l.039-.018c.054.045.138.18.166.19.079.178.943.088.991-.037.424-.018-.025-.559-.2-.624-.083-.136-.197-.234-.308-.351l-.038.018c-.076-.168-.191-.208-.276-.32-.155.041-.406-.341-.467-.475.016-.093-.013-.196.049-.263-.032-.072.134-.268.171-.325l.335-.139c.09.212.256.852.548.963.094.118.23.23.334.345.097.163.097.163.155.23l.04-.018.351.36c.113-.005.077-.161.073-.222l.137-.04a.3.3 0 0 1 .05.058c.053-.023.092.063.116.092.077-.034.388.194.451.029-.092-.179-.092-.179-.14-.236-.066.007-.253-.1-.303-.147l-.029.013c-.054-.108-.356-.382-.177-.497q-.001-.023-.01-.047c.25-.123.546-.003.817-.026l.014.033c.233-.007.253-.028.33.197zm-2.375-1.477c.128.208.218.265.461.179.064 0 .319-.034.362.062l.129-.019c.088.082.158.096.272.131.017.021.344.289.387.27l.041.051a.63.63 0 0 1 .325.263c.076-.011.111.054.144.114a.4.4 0 0 1 .081-.013l.023.053q.014-.008.032-.008c.02.019.042.043.071.03.026.034.106.172.154.15l.197.245a.1.1 0 0 1 .037-.01c.044.061.044.061.42.358.109.141.22.271.303.429a.05.05 0 0 1 .028-.001c.071.118.098.129.183.293.014-.008.027-.007.039-.007.031.084.021.112.051.231-.091.041-.191.022-.289.021l-.018-.039c-.035.01-.035.01-.094-.003a1 1 0 0 0-.139.074l.013.029-.039.018c.033.238.326.429.108.636a.3.3 0 0 1-.049.252c.028.126.163.48.329.463l.018.038c.355.008.794.012 1.064-.26-.005-.037.041-.139.07-.163l-.014-.034c.084-.118.095-.25.086-.395l.039-.018-.018-.038c.072-.085.061-.212.02-.303-.207-.138-.356-.215-.455-.435.406-.211.841-.257 1.296-.335.032.009.197-.036.241-.028.317-.063.669-.047.967-.182-.002-.015-.003-.032-.008-.042.123-.124.082-.291.092-.462-.142-.316-.528-.483-.778-.18l.017.039c-.041.035-.041.035-.095.147-.108.054-.207.104-.317.102q-.021-.05-.045-.088.017-.019.029-.024c-.023-.296-.25-.799-.566-.414l.035.157c-.042.058-.043.095-.079.117-.246-.034-.504.007-.748-.01l-.03-.067.03-.047a.78.78 0 0 0 .545-.044c.035-.05.035-.05.156-.156-.006-.102.026-.133.053-.225l.272-.128c.112.083.255.236.398.271a.2.2 0 0 1 .033.047c.115 0 .284-.034.362-.128.019-.101-.025-.12-.109-.128a1 1 0 0 0-.032-.084c.105-.049.218.074.337.044.081-.153.134-.176.292-.246q0-.025-.005-.039c.079-.105.142-.248.079-.387l-.033.015c-.117-.131-.456-.17-.636-.21-.039-.086.002-.214.059-.279-.012-.041-.051-.179.001-.202-.065-.131-.134-.401-.287-.423l-1.191.696a.4.4 0 0 1-.249-.003c-.097-.215-.025-.362.072-.557l-.001-.143q.017-.018.029-.024c-.207-.345-.522-.037-.812.088-.464.071-.901.429-1.101.841.084.111.206.178.267.313-.139.126-.207.271-.43.302-.279-.161-.435-.328-.545-.624l.287-.14c.019-.049-.001-.144.042-.163l-.081-.166c-.151-.132-.295-.183-.467-.285l-.039.018a.43.43 0 0 0-.4-.096c-.123-.158-.514-.092-.682-.08-.088.045-.483.245-.411.404l-.034.014.016.034c-.077.057-.104.075-.138.166.001.04.02.21-.029.231q.008.076.006.154zm2.375 1.477.216.479-.033.015-.215-.479zm1.711-1.127-.093.024c-.159.251-.622.32-.897.299l-.276.091-.029.076a1.1 1.1 0 0 0 .358.386c.082-.214-.236-.255.084-.389.227.031.395.11.601.018a.7.7 0 0 1 .263-.429c-.018-.039-.018-.039-.011-.076m-.887.936a.3.3 0 0 1 .07-.026q.013.01.029.028c.122-.038.228-.085.309.022-.062.028.039.328.05.352-.15-.024-.38-.255-.457-.376zm.465.394c.054.004.054.004.232.068l.272-.064c.049.11.049.261.092.384l-.209.049c-.13-.097-.31-.27-.397-.41zm1.042.229c.056-.146.289-.113.37-.011-.091.07-.281.069-.37.011m-.481-1.633c.047-.01.097-.014.141-.018l.158.159c.177.099.273-.059.403.165-.129.11-.263.095-.41.052a1.2 1.2 0 0 0-.293-.358zm.963-.175c.167-.104.419-.159.611-.193.047.03.047.03.129.033a.4.4 0 0 1 .032.056c-.137.106-.499.223-.675.204-.059-.042-.059-.042-.097-.101zM29.712 12.763c.376.693.845 1.327 1.259 1.991.166.101.261.003.393-.084-.005-.136-.007-.202-.074-.32q.01-.016.022-.025c-.015-.028-.031-.054-.04-.081-.02-.375-.245-.718-.379-1.059l-1.05-1.994c.098-.232.444-.356.57-.602.159-.115.159-.115.206-.171-.021-.037-.021-.037-.005-.071-.028-.093-.244-.163-.319-.296.015-.112.015-.112.003-.152l.037-.021-.018-.032.05-.029-.011-.084.07-.057c-.019-.213.02-.423.118-.612-.027-.056.01-.331.07-.366l-.019-.031.038-.022a.05.05 0 0 1-.011-.029c.017-.022.017-.065.082-.162a5 5 0 0 0-.369-.83c-.047-.063-.391-.358-.445-.327-.149-.103-.429.044-.573.097q-.018-.015-.028-.027c-.164.062-.164.062-.273.082l-.424.242c-.128.242-.095.429-.341.569l-.179-.315a.1.1 0 0 1 .021-.036c-.104-.183.029-.386.047-.565-.092-.129-.188-.129-.302-.222l-.032.019c-.274-.249-.808.036-1.041.23-.026.051-.189.349-.158.403l-.037.021c.025.118.102.209.16.314.122.01.208.13.262.226q.018-.003.047-.003l.128.12c.017-.003.017-.003.127.116l.022-.013.271.475-.033.018-.017.034c-.012.031-.012.031-.308.254-.073.137-.123.167-.133.341.115.17.198.262.412.236.006.009.015.015.028.027.063-.018.281-.081.327.001a.1.1 0 0 1 .04-.015q.021.024.054.053a.2.2 0 0 1 .044-.019c.006.009.014.015.028.027q.026-.017.056-.027c.056.035.148.163.187.19l.036-.021.328.575-.046.027.128.265c-.001.158-.201.296-.317.38-.133-.076-.148-.315-.285-.407l-.383-.483c-.078-.064-.17-.096-.241-.147-.045-.059-.23-.244-.32-.192q-.02-.015-.028-.026c-.04.004-.15.043-.174.002l-.038.021-.02-.036c-.05.009-.05.009-.121-.011-.309-.3-.434-.115-.686.144l.021.037c-.033.036-.034.056-.029.107l-.028.015c.046.252.183.494.238.748l.029.007.27.476c.014-.009.03-.012.051-.018l.22.141.031-.019c.075.067.201.044.295.039.099.017.099.017.332.118q.016-.007.037-.02l.019.032c.037.002.102-.022.128.023.171-.061.33.06.504.058.078-.032.096-.066.19-.114.188.14.173.306.395.398.163-.093.271-.256.445-.32l.23.414zm-.229-.401.229.401-.032.019-.229-.402zm-.893-1.632-.318-.581.036-.021.328.575zm.726-.691c-.105-.055-.17-.223-.232-.321.02-.072-.199-.424-.244-.514a.4.4 0 0 1 .141-.273l-.021-.036.037-.021c.001-.158.097-.201.218-.287.115.032.149.199.15.307a6 6 0 0 1 .196.651c-.047.172-.104.391-.244.495zm-1.779-.958q.008-.02.017-.034l-.26-.479c-.11-.119-.11-.119-.127-.116zm.017-.034-.26-.479.022-.013.271.475zM28.59 7.69l-.021-.036.424-.242.021.036z"/><path d="M42.075 10.237c0 .063.021.221-.021.262-.005.284.005.52.047.794.162.178.309.435.509.567.194 0 .194-.231.341-.305l.069.053c.063.157.152.22.305.294.336-.027.651-.215.992-.257.299.147.336.226.352.568a1 1 0 0 0 .068.078c.231 0 .294-.211.462-.242a.4.4 0 0 1 .032-.052c.147-.048.162-.263.288-.305l.032-.121c.194-.194.215-.505.236-.772h-.021c0-.126-.047-.799.021-.867l.021-1.386c-.026-.131-.122-.357-.274-.357a1.8 1.8 0 0 0-.929-.232c-.141-.242.162-.242.299-.242.036-.015.036-.015.152-.01l.83-.011v.036c.015.053.656.295.778.295.099-.063.099-.063.157-.068.101-.221.053-.278-.036-.525h-.042V7.39h-.042v-.042h-.057c-.084-.148-.341-.194-.499-.215-.11-.189-.331-.017-.372-.284-.111-.221-.158-.221-.385-.294q-.002-.048.006-.095h.038v-.036c.078-.042.21-.131.22-.236.215-.084.236-.42.162-.615h-.036c-.084-.141-.204-.12-.357-.12l-.006-.325c.08-.074.183-.221.242-.31.483-.242.588-.515.457-1.009-.026-.011-.026-.011-.036-.048h-.038q-.009-.023-.01-.036l-.133-.047c-.004-.015-.01-.027-.01-.036-.231-.063-.284-.011-.456.147-.112.052-.347.068-.447 0-.015-.08-.047-.131-.057-.221-.042-.073-.105-.084-.141-.162-.158.01-.231 0-.368.084-.038.189-.069.431-.137.604-.088.131-.141.178-.158.231-.084.025-.11.068-.11.162h-.021c-.01.011-.01.021-.01.032 0 .078.036.425-.01.473l.067.215c.042.01.042.01.1.078.094-.006.199-.011.225-.116.08 0 .131-.157.242-.178-.021.099-.021.099-.026.252.084.2.141.336-.12.378-.29.106-.394.394-.299.678.12.036.257.01.383.004a.1.1 0 0 1 .011-.036q.022-.008.052-.006c.021-.036.026-.078.078-.078q.001-.022.011-.036c.073-.038.073-.038.273-.078a.43.43 0 0 1-.099.346c-.347.078-.631-.046-.93.2-.068 0-.462-.015-.462-.11-.053-.011-.064-.042-.095-.042q-.001-.022.005-.048c.158-.141.404-.236.404-.488-.111-.242-.137-.284-.425-.263-.09.053-.179.116-.284.116.01-.11.01-.11.036-.168.116-.068.263-.316.394-.316.006-.031.032-.042.053-.078q.04-.005.088-.004c.042-.148.105-.175.063-.352-.047-.015-.063-.036-.084-.084-.157 0-.378.068-.525.021a1 1 0 0 1-.021-.101.66.66 0 0 1 .346-.167q.002-.024.011-.038.03-.008.069-.006v-.042a.7.7 0 0 0 .362-.204c.036-.299-.074-.362-.341-.442q-.01-.023-.011-.036c-.078-.031-.078-.031-.21-.053-.162-.109-.319.137-.404.242-.141.042-.383.163-.53.184q-.013.064-.021.136.023.002.047.011c.021.073.088.162.12.247h.053q0 .014.01.035l.299.043c.026.183-.294.299-.357.488.015.173.078.336.152.488.242.12-.148.41-.257.473a.3.3 0 0 0-.021.084h-.042c-.084.289.01.351.252.488.069.137-.168.295-.246.368-.042.057-.089.147-.163.162-.017-.042-.026-.078-.036-.115l.136-1.382c.08-.22.1-.431.022-.651h-.043l-.246-.557c-.037-.027-.137-.08-.137-.131l-.194.006c-.126.204-.099.42-.115.64a.4.4 0 0 0-.011.08l-.021.457c.015.094.015.094-.01.614a1 1 0 0 0-.042.162c.073.173.084.352.088.536.08.148.122.253.122.421.094.094.12.22.157.347.074.109.173.178.247.288.063 0 .126 0 .162.059-.069.067-.288.109-.372.136l-.778.122c-.031.046-.557.021-.568.01l-.388.048c-.069.042-.131.089-.194.136-.027.137.173.242.283.257l.021.084c.059.006.221.038.221.122.116.036.206.109.311.162.063.2.688.042.74-.126.111-.015.593-.173.593-.278.042-.021.175-.073.175-.126a1.23 1.23 0 0 1 .645-.189q.007.022.022.048a.5.5 0 0 1 .199.141c-.032.048-.095.068-.152.089a.1.1 0 0 0-.01.036h-.036a.36.36 0 0 0-.043.2h.043c.02.204.252.372.451.305.078-.143.173-.326.357-.326.038.183-.157.32-.315.362-.074.073-.21.11-.305.147-.073.105-.073.105-.131.257.089.183.163.189.373.242.152.151-.231.33-.231.425h-.042l-.09.11c.026.042.131.157.131.21h.042c.021.069.089.12.152.168 0 .095-.263.488-.399.488-.017-.047-.017-.047.01-.735l-.015-.463h.036c.036-.116-.01-.315-.01-.446-.026-.105-.053-.194-.059-.305l-.12-.267a.1.1 0 0 0-.043-.011c-.073-.221-.262-.204-.461-.204v.042c-.257.084-.227.882-.232 1.051 0 .32 0 .32-.021.383zm2.841-1.413c-.042-.263-.325-.426-.42-.101-.12.048-.131.215-.095.32h.043c.157.316-.2.536-.473.572a.74.74 0 0 0-.163.394c.163-.01.194-.027.341-.021.273.205.269.494.032.699-.152.057-.452.13-.452.336.12-.005.336-.042.452 0v.037h.042v.042q.016.002.042.011c.084.252.195.294.456.162l.053-.273q.016-.006.032-.005c.126-.299.021-.677.094-1.003l.006-.536c0-.068.006-.131.01-.194v-.441zM43 10.458l-.01.735c.136 0 .399-.393.399-.488-.063-.048-.132-.099-.152-.168h-.042c0-.053-.105-.168-.131-.21h-.021c-.026.047-.026.047-.042.132zm2.789-.526v.867h-.021c0-.126-.047-.799.021-.867M43 10.458c.016-.084.016-.084.042-.132-.063-.095-.021-.221-.021-.331h-.036zm.042-.132c-.063-.095-.021-.221-.021-.331.036-.116-.01-.315-.01-.446h.041c.089.183.163.189.373.242.152.151-.231.33-.231.425h-.042l-.09.11h-.021zm-.967-.089c-.052-.053-.021-.305-.021-.383h.042c0 .32 0 .32-.021.383m2.826-.242.006-.536zm.015-.73h.042v-.441h-.042zm-1.428-.12c-.015-.015-.032-.027-.042-.036.078-.143.173-.326.357-.326.038.183-.157.32-.315.362m.047-.825-.126-.178a.4.4 0 0 1 .016-.059l.547-.178q0-.016.01-.032h.141c.116.289.017.31-.241.326a1.2 1.2 0 0 1-.347.12zm-2.968-.12.568-.01c-.031.046-.557.021-.568.01m2.816-1.14c.057.164.105.242.026.399-.084.059-.341.175-.394.278.221.006.431-.062.641-.104.206-.122.206-.122.357-.179l-.046-.147c.025-.173.299-.221.299-.358-.095-.063-.331 0-.442.006-.162.095-.246.105-.441.105m1.523.656.599.006-.446-.015c-.116-.006-.116-.006-.152.01zm.599.006-.446-.015.83-.011v.036l-.383-.01zm-3.278-.389.257.078q-.016.018-.032.043l-.193-.011c-.038-.067-.038-.067-.032-.11m.341.047A2 2 0 0 1 43 6.912c.09.006.215.048.273.105-.189.063-.341.231-.504.352l-.2.01zm2.107-.042q-.006-.03-.005-.052c.084-.053.246-.163.278-.257l.341.048c-.011.178-.473.236-.614.262zM41.55 6.12l.01-.614-.01-.457h.031a.4.4 0 0 1 .011-.08h-.042c0 .154-.078 1.073 0 1.151m.01-.614-.01-.457h.031zm2.412-.515-.011-.462q.008-.01.021-.011c0 .078.036.425-.01.473m.635-.022c.026-.304.226-.525.526-.315 0 .11-.074.226-.163.294-.131 0-.247-.046-.362.021zm12.37 9.502c.028.029.078.057.06.101l.033.014.011.131c.035.038.158.138.133.196.356.132.565.138.753-.227.287-.276.355-.419.434-.796l.33-.756.155-.339c.218-.065.653.08.894.134l.33.161c.297.067.481.095.684.339.044.042.318.254.295.307q.019.01.044.031l.466.192c.108-.09.148-.078.224-.251l-.028-.265c-.072-.215-.115-.274-.109-.312-.293-.329-.28-.386-.704-.411l-1.058-.4c-.166.064-.524-.178-.704-.107-.135-.06-.17-.189-.249-.311-.221-.189-.262-.2-.541-.242-.116.172-.116.172-.183.234-.31.082-.696-.178-1.036-.12a1.1 1.1 0 0 0-.429-.056c-.111-.049-.64-.279-.758-.234-.029-.012-.927-.422-.994-.268q-.022-.009-.047-.01c-.116.184.021.227.018.404l.039.017-.017.037c.044.032.044.032.154.2l-.015.033c.091.097.102.177.162.313.245.107.503.186.738-.01.197-.029.296-.009.324-.019.515.082 1.034.022 1.526.209l.012-.029c.039.017.075.039.116.062.002.035.002.035-.141.431-.061.387-.321.731-.507 1.08-.135.136-.475.009-.629-.046-.211.023-.339.041-.326.287q.028.031.055.071a.04.04 0 0 1 .027-.011l.473.207-.013.029zm-.486-.224a.04.04 0 0 1 .027-.011l.473.207-.013.029-.486-.224zm-.559-.336c-.2-.157-.263-.213-.262-.476-.077-.333.156-.603.318-.858l.22-.03c.154.067.24.133.35.17.105-.018.21-.046.313-.035l.013-.029.255-.008c.155.211-.414.621-.56.809-.07.159-.151.543-.379.499l-.013.03c-.075-.011-.075-.011-.255-.072m3.437 1.464c-.109-.157-.194-.252-.169-.442-.074-.261-.242-.26-.139-.559.126-.117.31-.317.305-.498-.081-.092-.078-.32-.015-.424.176-.01.432.126.516.288a1.1 1.1 0 0 1 .299.194c.173.31.226.7.079 1.038-.212.182-.466.369-.732.453q-.074-.03-.144-.051zm-.968-1.485.33-.756c.033.083-.256.64-.303.745a.04.04 0 0 0-.028.011zm2.732-.123.466.192c-.144-.052-.347-.101-.466-.192m-2.404-4.831c-.102-.056-.191-.102-.264-.001a.1.1 0 0 0-.04-.012c-.018.027-.046.027-.115.065l-.104.184-.382-.317c-.109-.002-.109-.002-.218.024-.087.186-.092.247-.167.421l-.228.284c-.299-.091-.463.52-.47.718.133.116.19-.002.292.042l.017-.039.034.014c.044-.049.094-.044.154-.024-.123.228-.368.263-.467.49.08.119-.078.285.001.378l.007.209c.146.047.305.128.433.018l.059.025c.075-.07.187-.073.286-.052a.1.1 0 0 1 .024-.029l.303.16a.1.1 0 0 1 .022-.024l.038.017c.062-.035.107-.074.183-.063a1 1 0 0 1 .069-.091c.045-.118.045-.118.071-.28-.065-.114-.014-.401-.115-.445q0-.024.004-.037l-.103-.092a.04.04 0 0 0-.028.011l-.165-.084c.066-.074.141-.138.246-.144.074-.076.285-.231.302-.27.028-.011.169-.19.21-.218q.03.006.065.022c-.09.242-.343.573-.24.835-.037.123-.105.213-.128.358-.007.134-.003.244-.044.376l-.004.13q.083.046.162.099c.043-.021.043-.021.098-.106.252-.028.254-.032.423.134q-.004.014-.005.037c.069.042.079.07.232.206.133.075.373.076.463-.062.021.003.045.014.069.024.039.424.25.23.562.327l.018-.039.105.034c.147-.033.197.023.331.082.014.059.008.165.066.19a.1.1 0 0 0-.008.031c.019.02.046.038.032.071q.07.015.142.04c.121-.067.275-.194.378-.287l.107-.245c-.023-.091-.023-.091-.013-.166l-.033-.015c.021-.14-.094-.414-.193-.515.084-.192.307-.204.42-.356l.033.015c.209-.189.419-.368.55-.614-.04-.171-.224-.642-.457-.619-.049.071-.049.071-.141.139-.097.221-.004.468-.229.629-.092.143-.129.138-.272.213l-.096-.042c.147-.257.283-.502.391-.775-.011-.039-.088-.152-.077-.177-.199-.11-.191-.192-.419-.171-.044.128-.045.157-.015.296-.139.335-.139.335-.193.403-.165-.147-.041-.494-.218-.668l-.314-.172c.05-.075.067-.062.16-.078l.017-.039c.043.019.143-.024.176-.061a.2.2 0 0 0 .144-.052c.163-.009.37-.165.547-.202.14.061.16.093.305.179.237.299.404.257.772.229.065-.148.145-.292.154-.454l-.034-.014.015-.034q-.025-.02-.044-.031a.1.1 0 0 1 .003-.033q-.025-.02-.044-.03c-.034-.159-.287-.183-.423-.225a.3.3 0 0 1 .034-.065l.039.017c.017-.028.054-.034.209-.149-.011-.029-.011-.029.038-.179l.003-.4-.034-.015.018-.038-.04-.017-.007-.089-.033-.014c.007-.055-.025-.086-.061-.124l.011-.065c-.038-.033-.038-.033-.166-.078q-.025.016-.053.041c-.219.001-.412.025-.522.224-.01.099.017.288.01.342a.04.04 0 0 0-.028.011c-.07.159-.172.263-.256.415-.14-.021-.14-.021-.313-.074l-.256.036c-.127-.038-.127-.038-.155-.027-.172-.024-.507-.177-.666-.114l-.06-.061c.018-.17.093-.331.158-.493-.039-.029-.138-.089-.117-.137-.023-.028-.046-.039-.032-.072-.087-.05-.087-.05-.098-.077-.073-.043-.073-.043-.474-.173-.075.065-.264.183-.374.198-.082.188.081.328-.003.52l-.039-.018c-.099.084-.326.024-.451.021-.186.177-.291.521-.113.73l.261.086a.1.1 0 0 1 .024-.03c.128.01.395.013.361.21zm-.534 2.398c.045-.118.045-.118.071-.28a.4.4 0 0 1 .05-.063c-.007.134-.003.244-.044.376-.036-.033-.036-.033-.076-.033zm-.73-.52.102-.139c.067.029.087.061.156.103q-.004.008-.001.028c-.076.03-.076.03-.1.06l-.156-.051zm.851.178c.023-.145.092-.235.128-.358-.103-.262.15-.593.24-.835q-.035-.016-.065-.022c-.041.028-.182.207-.21.218-.017.039-.227.193-.302.27-.105.005-.18.07-.246.144.053.023.108.054.165.084.009-.008.015-.01.028-.011q.05.04.103.092-.004.013-.004.037c.101.044.05.331.115.445a.4.4 0 0 1 .05-.063zm1.748.5c.088-.173.092-.275.285-.271l.017-.039c.073.003.073.003.122.024-.053.12-.301.282-.423.285zm-.351-1.278a1 1 0 0 1 .018-.146.41.41 0 0 0-.444-.086c.011.028.066.057.181.188.017.134-.05.22-.103.34-.162.187-.38.12-.425.433l.285.136c.118-.046.266-.36.32-.456zm1.006 1.473-.023-.026q.024-.06.054-.109c.094-.003.094-.003.175.02.038.058.021.136-.033.181a2 2 0 0 0-.172-.065zm-3.115-1.844c-.024-.155.166-.181.267-.205.033-.048.065-.056.126-.065-.07.159-.209.321-.393.271zm1.941.78.168-.409.047.022-.177.403-.039-.017zm.89-.006c.021-.06.021-.06.077-.121l.073.043q-.036.046-.069.103a.3.3 0 0 0-.082-.024zM58.773 9.03c.139.102.273.177.453.158.065-.07.114-.024.144.052-.107.245-.272.213-.508.167-.1-.348-.1-.348-.088-.377zm.694-.092c-.009-.044-.009-.044.011-.116q.026.001.047.01l.031-.073c.066-.006.066-.006.128.01a.1.1 0 0 1 .024-.029l.115.039c.198-.045.416-.008.612.055-.075.105-.288.241-.408.303-.178-.038-.386-.14-.561-.199zm-39.458 9.817c.105.071.136.149.199.248l.396.338c.246.272.438.52.622.837.308.261 1.023.795 1.385.346-.002-.03-.002-.03.066-.216-.029-.064-.221-.346-.141-.444a3.6 3.6 0 0 0-.519-.486l-.316-.327c-.038-.003-.038-.003-.334-.214l-.347-.104-.232-.207c-.136-.116-.294-.223-.402-.364a.9.9 0 0 0-.348-.212c-.497-.379-1.043-.758-1.483-1.199a.1.1 0 0 1 .014-.035l-.411-.478c-.07-.056-.326-.222-.336-.304-.18-.085-.293-.324-.413-.474-.084-.256-.294-.465-.444-.688l-.526-.159c-.213.097-.4.338-.564.509-.143.067-.123.252-.127.376.15.19.486.384.552.62.27.277.401.323.587.688.168.168.273.314.376.53a3 3 0 0 0-.127.175c-.047.252.356.597.194.73-.081-.052-.168-.135-.262-.144-.061-.109-.175-.201-.27-.284-.05-.182-.229-.413-.358-.545-.092-.296-.436-.189-.639-.095-.26.323-.294.357-.077.726.049.214.041.283.218.424.075-.061.253-.139.348-.198.103.014.169.108.233.18l.454.405a.3.3 0 0 0-.034.061c-.014.009-.024.013-.031.022l-.255-.253c-.131-.138-.131-.138-.16-.202l-.21-.109c-.095.06-.138.105-.161.209.084.107.514.627.222.73l-.233-.187a.1.1 0 0 1 .014-.037c-.269-.235-.217-.551-.645-.505-.087.024-.626.251-.643.239l-.14.183q.005.016.022.031c-.075.143-.021.253.059.37.127.103.13.133.308.296.213.171.496.256.617.524-.088.319-.258.195-.492.318q-.04-.014-.075-.033l-.183.103-.127.302c.078.145.088.199.145.272.077.264.108.444.387.567.156.159.517.497.756.386q.012.006.035.014c.031-.022.188-.125.22-.099l.312-.302.028.008c.19-.238-.132-.448-.214-.623l.02-.025c-.034-.041-.06-.034-.036-.096-.041-.074-.015-.148-.067-.209.01-.04.01-.04.046-.051.33.285.5.678.815.973.059.12.182.192.261.296.036.13.127.345.226.439a.1.1 0 0 0-.018.04c.24.287-.104.59.219.851.153-.073.427-.473.334-.615l.02-.024-.062-.091.023-.029-.029-.023.025-.033-.032-.026c.026-.059.017-.12-.006-.186l.027-.033-.049-.065a.1.1 0 0 1 .015-.037c-.057-.113-.169-.242-.128-.378-.074-.107-.142-.216-.124-.357-.103-.082-.156-.259-.212-.372l-.304-.31c-.08-.119-.122-.267-.232-.357q.002-.017.011-.031c-.042-.04-.094-.075-.082-.133-.151-.121-.25-.302-.384-.444-.002-.022-.002-.022.076-.128.163.133.29.267.43.421l.159-.021.218-.263c.247.003.485.302.585.505l.338.359a2.3 2.3 0 0 0 .803.342c.256-.151.231-.388.214-.636l-.589-.501c-.148-.2-.297-.409-.534-.517l-.724-.743c-.004-.044-.004-.044.044-.147.073-.008.246.037.283-.008.149.032.269-.168.324-.286q-.016-.016-.022-.031c.015-.035.038-.072.06-.108l-.025-.06c.076-.195-.23-.502-.359-.619-.096-.031-.096-.031-.166-.086a.2.2 0 0 0-.039.03c-.036-.03-.174-.101-.218-.081-.128-.151-.288-.32-.358-.51l-.33-.327q.014-.018.036-.038c.243.067.438.31.634.47a10 10 0 0 0 1.61 1.341l.37.371c.073.06.404.285.412.359zm.779-.23c-.136-.116-.294-.223-.402-.364l.429.331-.026.033zm-.779.23-.435-.33.023-.029c.073.06.404.285.412.359m-3.352-.215.255.253c.007-.009.017-.013.031-.022zm.286.231-.286-.231c-.131-.138-.131-.138-.16-.202l.027-.033.454.405a.3.3 0 0 0-.034.061zm-2.162.492c.127.103.13.133.308.296l-.332-.266zm57.745 1.229c.025-.003.256.084.391.105a.74.74 0 0 0 .314-.184c.086-.35-.247-.782-.391-1.056-.112-.148-.44-.204-.6-.251-.071-.011-.151-.003-.208-.059l.155-.149.022.022a.1.1 0 0 1 .037-.031.1.1 0 0 1 .033.019 2.7 2.7 0 0 1 .849-.579l.254-.257c.033-.101.028-.261.098-.331l-.022-.023.106-.19c-.042-.173-.241-.414-.401-.468a3 3 0 0 0-.663.194c-.072-.07-.324-.023-.379.07.05.167.092.349.182.504-.055.064-.055.064-.247.222-.312.046-.498.527-.798.63-.093-.011-.171-.013-.245-.073-.193-.013-.325-.171-.518-.208-.195-.133-.337-.272-.575-.337l-.397-.383c-.187-.029-.306.288-.253.436l-.104.547c.019.041.042.151.005.19l.116.173c.06-.023.104-.008.167-.057.245-.039.588.137.765.309-.263.236-.578.339-.88.52-.245-.035-.504.13-.747.083-.207.062-.281.062-.326.092l-.022-.022c-.14.076-.289-.034-.426.014l-.287-.009c-.144.065-.679-.05-.803-.172a.1.1 0 0 0-.026.02l-.066-.022c-.437.092.038.524.261.521.127.059.283.087.399.142.293-.036.527.077.799.16.101-.034.324.046.428.083.141-.017.62-.142.725-.077l.671-.216c.348-.188.544-.335.547.126-.047.182.033.431-.074.606a1.16 1.16 0 0 1-.062.602c.075.118-.08.275-.012.409-.024.145-.022.48-.111.607.064.099-.034.26.029.323-.073.097.029.374-.027.431l.03.03-.043.104c.016.052.091.193.046.238.052.112.153.211.243.299.012-.011.019-.019.03-.022l.209.124c.343.065.361.636.726.634.214-.218.043-.584.042-.866-.042-.092-.05-.189-.062-.289.011-.063-.12-.649-.094-.675-.015-.045-.084-.178-.046-.215a.55.55 0 0 1-.022-.352c-.116-.189-.243-.831-.171-1.076-.034-.093-.034-.093-.042-.175.087-.201-.044-.441.054-.64-.011-.048-.064-.181-.023-.222-.012-.018-.019-.033-.031-.044.037-.141.023-.869.326-.571.012-.011.022-.014.034-.019.074.022.152.032.209.088.01-.012.022-.015.033-.02l.149.11c.09-.015.163.036.235.092.033.01.033.01.157.14l.318.313zm-.486-.464c.033.01.033.01.157.14l.318.313-.012.034-.463-.459z"/><use href="#a"/><use href="#a" x="73.298"/><path d="m83.225 44.961-.125 2.38-3.99-.209.118-2.264.443.023-.091 1.727 1.238.065.083-1.587.443.023-.083 1.587 1.424.074.096-1.843zm-.251 3.244-.102.575-3.075.762-.003.023 2.852.503-.094.529-3.935-.694.102-.576 3.074-.763.004-.023-2.852-.503.094-.528zm-.766 4.043-.122.524-3.893-.899.12-.523 3.894.898zm-2.032 1.653q.839.297 1.085.746a1.1 1.1 0 0 1 .096.915q-.174.533-.73.771c-.556.238-.874.133-1.511-.074q-1.044-.34-1.438-.873c-.394-.533-.328-.726-.203-1.11q.159-.49.631-.692c.472-.202.691-.124 1.13.035l-.159.489q-.49-.16-.785-.083a.54.54 0 0 0-.396.387q-.116.357.182.685c.298.328.587.424 1.165.612q.8.26 1.192.154c.392-.106.425-.217.498-.44q.079-.243-.088-.519c-.167-.276-.391-.348-.837-.493l.166-.511zm.161 4.507-.192.503-3.731-1.432.192-.502zm-2.869 1.642q-.772-.393-1.211-.303c-.439.09-.525.258-.694.59l-.117.229 2.77 1.411.117-.229q.254-.5.08-.903c-.174-.403-.432-.535-.945-.796zm.254-.501q-.959-.489-1.56-.336c-.601.153-.733.409-.995.922l-.36.708 3.561 1.815.36-.708q.35-.686.151-1.3c-.199-.614-.519-.776-1.157-1.101m.356 3.736-1.192 2.065-3.461-1.998 1.134-1.964.385.222-.865 1.497 1.073.62.796-1.377.383.222-.794 1.377 1.236.713.923-1.599.384.221zm-1.633 2.763L73.212 63.7l-.425.586 1.833 1.967-.028.037-2.437-1.136-.427.587 3.232 2.348.275-.378-2.306-1.676.028-.038 2.636 1.222.22-.302-1.978-2.129.029-.038 2.306 1.675.275-.378zm-2.903 3.842-1.657 1.714-2.874-2.775 1.575-1.631.319.307-1.201 1.244.891.861 1.104-1.143.319.308-1.104 1.143 1.026.99 1.283-1.327zm-2.973 1.492q-.254-.273-.659-.296c-.405-.023-.577.043-.923.175q-.537.214-.735.189a.55.55 0 0 1-.342-.177q-.174-.188-.159-.41c.015-.222.085-.286.222-.414a.55.55 0 0 1 .485-.163.64.64 0 0 1 .422.245l.392-.367q-.287-.308-.732-.389c-.445-.081-.591.056-.886.333q-.343.32-.383.772c-.04.452.071.572.294.811a.85.85 0 0 0 .595.277q.354.021.907-.209.402-.149.692-.148c.29.001.341.057.449.171a.7.7 0 0 1 .198.471q.008.266-.266.519a.7.7 0 0 1-.486.198q-.282.007-.52-.249l-.096-.104-.392.367.112.119q.333.36.797.376c.464.016.606-.117.89-.382s.44-.553.461-.86-.09-.593-.335-.855zm-1.622 2.969-1.879 1.468-2.46-3.148 1.787-1.396.273.349-1.362 1.065.763.977 1.252-.979.273.35-1.252.978.878 1.124 1.455-1.137zM66.35 76.34l-2.118-3.388-.455.284 1.535 2.455-.02.012-2.624-1.775-.495.311 2.117 3.388.455-.284-1.534-2.456.019-.012 2.625 1.775.496-.309zm-3.499 2.12-.479.244-1.815-3.561.479-.244zm-2.031 1.042-1.496-3.705-.499.201.631 1.561-1.234.498-.631-1.56-.498.201 1.497 3.705.497-.201-.7-1.734 1.236-.498.7 1.733zm-3.295-.26q.237.857.012 1.317a1.11 1.11 0 0 1-.696.603q-.535.163-1.049-.155c-.514-.318-.611-.641-.807-1.282q-.321-1.05-.109-1.677c.212-.627.405-.685.792-.803q.492-.15.929.119c.437.269.497.495.619.947l-.492.15q-.152-.492-.382-.691a.54.54 0 0 0-.544-.102q-.358.11-.456.543c-.098.433-.012.724.166 1.305q.246.805.558 1.064c.312.259.422.225.646.157q.244-.075.375-.371c.131-.296.061-.519-.076-.967zm-4.936-.574-1.873.399.272 1.28 1.417-.3.092.434-1.417.301.375 1.76-.526.112-.831-3.909 2.4-.51zm-3.138 2.14q-.12-.974-.366-1.25c-.246-.276-.346-.264-.547-.24s-.362.147-.484.366-.144.654-.064 1.303.206 1.07.379 1.261.359.274.559.249.359-.15.472-.376.13-.663.051-1.313m.556-.069q.134 1.09-.144 1.607a1.09 1.09 0 0 1-.881.591 1.12 1.12 0 0 1-1.009-.359q-.407-.433-.54-1.523c-.133-1.09-.038-1.259.157-1.597a1.13 1.13 0 0 1 .894-.58q.604-.074.996.348c.392.422.439.787.527 1.513m-4.458-1.483-1.099 2.196v1.8h-.537v-1.8l-1.098-2.196h.537l.818 1.703h.025l.817-1.703zm-3.064.392-.931-.082-.31 3.54-.535-.048.309-3.538-.932-.082.039-.442 2.398.21-.039.442zm-4.4 3.071-.529-.093.694-3.935.529.093zm-1.953-1.498q.084-.364-.124-.712c-.208-.348-.358-.454-.661-.668q-.476-.327-.567-.504a.54.54 0 0 1-.044-.381q.059-.25.251-.361c.192-.111.285-.091.467-.047q.297.067.408.309a.64.64 0 0 1 .032.487l.524.121a1.3 1.3 0 0 0-.087-.824q-.179-.414-.77-.55a1.17 1.17 0 0 0-.855.115q-.397.22-.508.697-.08.343.103.648c.183.305.348.417.681.636q.348.249.509.49c.161.241.144.317.108.468a.7.7 0 0 1-.28.428q-.215.154-.579.07-.273-.062-.436-.293c-.163-.231-.136-.344-.084-.57l.032-.137-.524-.122-.036.159q-.111.478.134.871c.245.393.435.436.814.524s.704.055.971-.098.441-.407.522-.756zm-2.988-2.577q.1-.311-.03-.55c-.13-.239-.272-.284-.554-.376l-.49-.16-.425 1.312.623.203q.266.085.513.007c.247-.078.286-.199.362-.435zm-.259 2.914-.533-.173-.253-1.901-.591-.192-.535 1.645-.512-.166 1.235-3.8 1.111.36q.534.174.785.537c.251.363.188.557.063.941q-.144.445-.447.618c-.303.173-.404.163-.612.145l.288 1.986zm-3.1-1.088.159-.414-1.724-.662.511-1.331 1.484.569.159-.413-1.483-.57.443-1.157 1.614.62.159-.414-2.116-.812-1.432 3.731 2.226.854zm-1.018-4.727-2.875 3.072-.418-.212.794-4.133.5.255-.644 3.107.009.004 2.136-2.348zm-5.609 1.514 2.117-3.389-.456-.284-2.117 3.388zm-1.884-1.282-.466-.35.717-3.088-.019-.013-1.743 2.313-.429-.324 2.405-3.191.466.353-.716 3.085.018.013 1.743-2.312.429.324zm-1.773-2.819 1.892-2.102-.399-.359-1.892 2.101q-.267.296-.53.309c-.263.013-.339-.054-.491-.189s-.23-.292-.239-.467.074-.363.252-.559l1.892-2.102-.399-.359-1.892 2.101q-.377.417-.378.855c-.001.438.155.58.468.861s.614.407.905.375.561-.186.811-.464zm-3.338-3.223q-.41.383-.849.392c-.439.009-.581-.145-.869-.453s-.418-.607-.39-.898.177-.564.45-.819l2.069-1.928.366.393-2.067 1.928q-.291.27-.3.536c-.009.266.06.338.198.486s.295.224.471.231.361-.081.556-.262l2.067-1.928.367.393-2.069 1.928zm-1.638-3.3q.773-.604.883-.957c.11-.353.047-.432-.076-.591s-.314-.235-.564-.228-.634.214-1.149.617-.811.727-.886.974-.049.45.075.609.314.23.566.21.635-.23 1.151-.633zm.346.443q.864-.677 1.024-1.231c.16-.554.035-.715-.214-1.034s-.569-.475-.958-.466-.873.236-1.45.687-.919.866-1.027 1.246a1.12 1.12 0 0 0 .212 1.051 1.09 1.09 0 0 0 .96.45q.586-.027 1.452-.703zm-3.541-1.387-.293-.451 1.568-1.018-.726-1.117-1.567 1.018-.293-.45 3.351-2.177.293.451-1.411.916.725 1.117 1.411-.916.294.451zm-1.649-2.704.392-.208-.922-1.734 3.633.213.391-.209-1.075-2.022-.391.208.823 1.549-3.635-.213-.391.208 1.174 2.208zM8.218 60.06l-.161-.362.27-.198q-.167-.028-.333-.171a.8.8 0 0 1-.261-.357q-.201-.449.06-.986c.261-.537.565-.674 1.177-.946q1.003-.446 1.637-.345c.634.101.716.286.881.656q.218.492-.021.929c-.239.437-.431.525-.814.696l-.21-.471q.449-.2.607-.447c.158-.247.116-.341.033-.527q-.152-.342-.58-.355c-.428-.013-.705.109-1.261.357q-.79.35-.993.697c-.203.347-.162.439-.081.624a.57.57 0 0 0 .398.347q.275.07.701-.12l.235-.104-.294-.662.404-.18.485 1.089-1.877.835zm-1.135-2.944 3.821-1.168-.158-.514-2.768.846-.007-.022 2.392-2.075-.17-.559-3.821 1.168.157.515 2.769-.848.007.022-2.394 2.076.171.558zm.561-4.223 1.314-.676-.007-.032-1.475-.083zM6.208 54.22l-.117-.548 1.147-.559-.221-1.042-1.276-.045-.116-.548 4.197.303.097.457zm.493-3.449q-.557.07-.917-.181c-.36-.251-.386-.459-.438-.876s.019-.737.212-.956.475-.352.846-.399l2.806-.345.066.534-2.807.345q-.395.048-.557.258a.66.66 0 0 0-.126.509q.037.301.245.464c.208.163.34.147.602.115l2.807-.345.066.533-2.807.345zm-1.519-3.034-.034-.395.32-.099a.7.7 0 0 1-.259-.271 1 1 0 0 1-.13-.422q-.044-.49.377-.913c.421-.423.755-.453 1.421-.512q1.094-.095 1.66.208c.566.303.583.503.619.907q.047.536-.322.872c-.369.336-.579.356-.998.392l-.045-.513q.49-.043.719-.226c.229-.183.221-.285.203-.486q-.033-.372-.433-.525c-.4-.153-.703-.126-1.308-.073q-.861.076-1.167.336c-.306.26-.296.362-.278.564s.105.355.263.457.392.141.702.115l.256-.022-.063-.722.442-.039.104 1.187zm47.572-8.103a2 2 0 0 0-.325.287s-.148.15-.085.176.537.01.567-.083c.165-.511.995-.522.892-.823-.179-.53-.543.112-1.049.443m-2.584 5.727 12.068-.011c-1.891 8.797-9.113 14.688-14.863 16.284-28.824 8-30.153-24.268-11.951-36.593 2.932-1.985 6.587-3.726 10.246-4.248.856-.122 1.816-.198 2.666-.307.972-.124 3.992.137 5.217.365 2.063.385 4.697 1.294 6.206 2.617 2.688 2.356 2.896 5.867 1.396 8.9-.496 1.002-1.554 2.852-2.715 3.343-.235.099-.278.34-.466.493-1.129.926-2.408 1.794-3.556 2.692-.26.203-.785-.049-.273-.272.277-.12 1.019-.736 1.259-.929a8 8 0 0 0 .844-.838c.224 0 .283-.093.43-.221.174-.028.465-.358.255-.482.035-.031.684-.966.76-.452a2 2 0 0 1 .147-.043c.003-.001.101-.172.118-.194s.135-.099.119-.124c-.074-.118-.621.157-.524.028.007-.009.965-1.134 1.119-1.147.238.056-.032.293.262.078.328-.239.558-.438.463-.512-.252-.198-.526.127-.296-.282.375-.67.885-1.324 1.044-2.062.444-2.061.312-4.356-1.168-6.123-1.337-1.599-3.906-2.438-6.009-2.639-3.922-.376-8.216.318-11.461 2.339-7.537 4.697-15.238 14.862-11.33 24.635 2.892 7.238 12.681 7.293 19.017 2.705 4.129-2.99 3.61-4.837.239-6.354l.736-.647zm-2.681 21.211.18-.579h-2.413l-.467 1.831.218-.067a3.4 3.4 0 0 1 .946-.156c.324 0 .579.084.78.255.195.167.29.378.29.648 0 .301-.097.539-.297.727s-.463.284-.796.284q-.327-.001-.596-.142c-.269-.141-.347-.243-.492-.435l-.082-.109-.292.253.073.095q.285.373.639.551c.354.178.506.182.801.182.475 0 .877-.133 1.196-.396a1.26 1.26 0 0 0 .49-1.01q-.002-.579-.456-.943c-.295-.235-.681-.355-1.146-.355a4 4 0 0 0-.491.03l-.251.041.18-.705h1.987zm-6.402 1.616a1.8 1.8 0 0 1-.255.523 1.65 1.65 0 0 1-.508.481 1.14 1.14 0 0 1-.582.168c-.319 0-.57-.112-.768-.341s-.302-.543-.302-.928a2.2 2.2 0 0 1 .163-.841 1.5 1.5 0 0 1 .422-.595 1.6 1.6 0 0 1 .418-.244 1.2 1.2 0 0 1 .422-.077.97.97 0 0 1 .775.339q.303.344.304.911c0 .212-.03.417-.087.606zm-.884-2.25q-.431 0-.818.191a2.2 2.2 0 0 0-.687.555 2.6 2.6 0 0 0-.462.768 2.4 2.4 0 0 0-.159.86c0 .45.132.819.389 1.095s.604.42 1.024.42a1.9 1.9 0 0 0 .996-.291 2 2 0 0 0 .259-.188 2.7 2.7 0 0 1-.505.69c-.365.357-.858.63-1.466.809l-.133.04.126.325.112-.031c.445-.121.849-.294 1.197-.512s.656-.494.913-.814a4.1 4.1 0 0 0 .62-1.075c.139-.372.211-.75.211-1.123 0-.518-.148-.937-.438-1.246s-.688-.472-1.178-.472zm12.947 3.108c-.269.309-.598.46-1.008.46-.346 0-.612-.112-.811-.34s-.302-.556-.302-.964q0-.424.162-.772a1.74 1.74 0 0 1 .476-.601 1.3 1.3 0 0 1 .379-.22 1.2 1.2 0 0 1 .416-.074.97.97 0 0 1 .783.349c.204.237.307.555.307.945 0 .497-.136.907-.403 1.218zm.576-2.572c-.274-.286-.63-.431-1.058-.431a1.8 1.8 0 0 0-1.213.456 3 3 0 0 1 .509-.682c.372-.374.86-.659 1.448-.849l.112-.035-.084-.369-.133.042c-.875.282-1.585.746-2.111 1.379s-.799 1.346-.799 2.109c0 .535.152.978.452 1.315a1.52 1.52 0 0 0 1.178.515 1.8 1.8 0 0 0 .861-.213q.397-.212.701-.617.262-.342.403-.737a2.3 2.3 0 0 0 .142-.782c0-.448-.138-.818-.409-1.102zm-19.885 3.373h.58l.686-4.067-.648.449z"/></g></g><defs><path id="a" d="M7.815 41.915c.468 0 .851-.382.851-.851s-.382-.851-.851-.851-.851.382-.851.851.382.851.851.851"/></defs></svg>