<svg xmlns="http://www.w3.org/2000/svg" width="400" height="403.974" fill-rule="evenodd"><path d="M149.271 202.233h5.298c1.402-.062.166-.113-2.748-.112l-2.55.112m-49.34 86.491c-.146.347-34.14 19.652-34.616 19.659-.228.003-.414.126-.414.273 0 .376-1.859 1.296-2.111 1.044-.114-.114-.207-.038-.207.17 0 .455-1.816 1.449-2.111 1.154-.114-.114-.207-.037-.207.171 0 .455-1.816 1.448-2.11 1.154-.115-.114-.208-.052-.208.139 0 .382-8.195 5.164-8.858 5.169-.227.002-.414.123-.414.27 0 .377-1.858 1.296-2.11 1.044-.114-.114-.207-.048-.207.148 0 .346-3.199 2.31-4.043 2.483-.234.048-.575.254-.758.458-.425.474-38.962 22.406-39.405 22.425-.182.008-.59.283-.908.61-.626.646-.187 1.033 3.43 3.012.738.404 1.842 1.032 2.453 1.396l3.665 2.153 3.414 1.994 3.344 1.95 4.967 2.918 2.98 1.767 4.635 2.666c2.277 1.304 4.549 2.659 5.05 3.011s.911.532.911.4.26-.016.579.257c.691.592 5.242 3.321 9.52 5.709.364.203 2.823 1.654 5.464 3.225l6.291 3.654a53.86 53.86 0 0 1 2.815 1.638c1.399.887 1.5.946 8.668 5.062l6.299 3.725c.948.603 1.798 1.096 1.889 1.096s1.894 1.044 4.005 2.318 3.92 2.318 4.02 2.318 1.473.796 3.048 1.768l4.355 2.603 4.326 2.474c2.103 1.215 2.928 1.541 3.191 1.259.803-.859 10.388-6.141 10.745-5.921.222.137.295.094.173-.103-.279-.453 12.552-7.834 13.066-7.516.23.142.302.098.175-.107-.28-.453 18.194-11.133 18.708-10.815.217.134.292.091.173-.101-.279-.451 36.059-21.414 36.572-21.097.231.143.303.1.176-.106-.236-.383 18.155-11.157 18.588-10.89.144.089.281-.101.305-.423.046-.601-99.101-58.17-99.313-57.665" fill="#04249c"/><path d="M200.413 58.19l.084 57.823 1.655.98 2.732 1.596 2.152 1.233 17.136 9.904 4.47 2.57 4.305 2.487 14.238 8.23 3.312 1.899 10.099 5.832 8.278 4.792 11.755 6.799 7.782 4.48 6.374 3.669 2.861 1.674c.984.584 1.913.932 2.068.777s.32-26.153.367-57.773l-.024-57.383c-.059.06-1.326-.599-2.814-1.463l-8.005-4.641-5.463-3.283s-.315-.239-.497-.271-3.982-2.169-8.444-4.751l-15.562-9.001-7.616-4.521c-.091-.117-.315-.238-.497-.269s-2.045-1.055-4.139-2.274l-11.424-6.606-11.751-6.775-4.382-2.773s-.25-.261-.253-.103-.34.068-.75-.2c-.671-.438-11.462-6.688-16.226-9.398L200.329.366l.084 57.824M97.185 174.903l-10.927 6.308-8.278 4.659c-.182.031-.406.156-.498.277s-1.955 1.25-4.139 2.511l-10.76 6.206-11.838 6.831c-2.777 1.604-5.052 2.811-5.055 2.681s-.117-.061-.254.155-4.046 2.576-8.687 5.246l-11.241 6.503c-1.542.907-2.958 1.675-3.146 1.708s-.417.154-.508.27c-.192.246-1.353.93-12.658 7.458-4.602 2.658-8.554 4.838-8.782 4.845-.33.01-.414 11.727-.414 57.446v57.433l.745-.472c.41-.26 23.059-13.199 50.331-28.752l49.586-28.279v-57.379l-.248-57.371c-.137.004-1.589.777-3.229 1.716m128.312 83.846c-7.462 2.063-11.383 11.047-8.609 19.729 3.278 10.263 17.287 12.278 22.316 3.211 1.82-3.281 1.773-3.501-.941-4.42-2.987-1.012-3.369-.994-3.601.165-.812 4.06-6.146 6.055-9.622 3.598-3.538-2.502-3.773-13.112-.355-16.083 3.22-2.8 8.104-1.709 9.711 2.171.471 1.136.168 1.142 4.574-.09l1.719-.481-.69-1.659c-2.174-5.233-8.341-7.844-14.502-6.141m-93.378 2.426l-.001 2.567 4.14-.102 4.139-.102v11.609 11.608h2.815 2.814v-11.608-11.609l4.14.102 4.14.102-.001-2.567v-2.566h-11.093-11.093v2.566m25.745-2.387c-.136.145-.248 6.496-.248 14.115v13.852h2.98 2.98v-5.081-5.082l4.651-.222c5.192-.248 6.711-.72 8.632-2.686 3.891-3.979 2.703-11.699-2.159-14.027-1.677-.803-16.189-1.552-16.836-.869m31.209 13.881v14.086h2.98 2.98v-5.96-5.961h5.464 5.463v5.961 5.96h2.815 2.814v-14.073-14.073h-2.814-2.815v5.464 5.463h-5.455-5.455l-.091-5.38-.091-5.381-2.898-.096-2.897-.096v14.086m55.96.013v14.073h2.601 2.601l.234-4.801c.128-2.64.136-4.957.018-5.149s-.108-2.446.024-5.009l.24-4.659 2.439 9.683 2.439 9.822c0 .076 1.299.096 2.887.043l2.887-.096 2.565-10.099 2.566-10.099.011 10.182.011 10.182h2.818 2.819l-.087-13.99-.086-13.99-4.349-.092-4.348-.092-.168.92c-.092.505-.632 2.633-1.2 4.727a360.46 360.46 0 0 0-2.051 8.027c-1.263 5.241-1.299 5.258-2.362 1.14l-1.707-6.518-1.391-5.298c-.793-3.077-.619-2.98-5.312-2.98h-4.099v14.073m-76.78-8.808c3.444.302 4.594 1.118 4.682 3.322.115 2.893-1.241 3.839-5.965 4.16l-3.394.23v-4.005-4.005l.911.024c.501.013 2.195.136 3.766.274m10.224 20.066v2.815h2.814 2.815v-2.815-2.814h-2.815-2.814v2.814m117.549 6.528l-4.47 2.611a38.52 38.52 0 0 1-2.025 1.129 9.61 9.61 0 0 0-1.813 1.256c-.43.4-.86.704-.955.675-.272-.082-2.006.763-3.816 1.861-.911.553-2.624 1.548-3.808 2.213l-4.801 2.755-4.305 2.514-2.318 1.372c-.364.222-.886.51-1.159.64s-1.241.697-2.152 1.262-2.028 1.217-2.483 1.45-1.424.778-2.153 1.212c-1.688 1.008-2.357 1.389-5.794 3.303-1.549.862-3.486 1.989-4.305 2.505s-3.055 1.819-4.967 2.895l-8.775 5.083c-.546.34-1.217.72-1.49.845s-1.079.59-1.79 1.033a70.77 70.77 0 0 1-2.815 1.64c-2.146 1.176-2.989 1.661-4.501 2.589-.728.447-2.069 1.205-2.98 1.685s-3.071 1.726-4.801 2.769l-4.636 2.716a334.38 334.38 0 0 0-4.801 2.747l-4.139 2.386c-2.34 1.299-3.461 2.032-3.559 2.326-.06.179 3.787 2.534 8.548 5.232s8.859 5.108 9.107 5.356.531.441.63.431c.476-.049 34.673 19.428 34.979 19.923.112.18.261.3.332.268.234-.107 1.949.767 1.949.994 0 .122.187.229.414.237.53.019 32.465 18.26 32.736 18.698.111.181.26.302.331.27.267-.123 1.95.783 1.95 1.049 0 .152.117.24.261.195s2.142.976 4.441 2.27l4.18 2.353 7.612-4.367 71.637-40.654c.154.046.279-.042.279-.195 0-.305 1.672-1.197 2.07-1.104.136.032.248-.067.248-.22 0-.305 1.672-1.197 2.07-1.105.136.032.248-.067.248-.22 0-.305 1.672-1.197 2.07-1.104.136.032.248-.067.248-.22 0-.246 1.672-1.175 1.916-1.066.052.024.287-.149.523-.383s2.538-1.618 5.118-3.075 4.691-2.744 4.693-2.86-21.94-12.986-48.757-28.6l-49.752-28.987-.994-.598-3.476 2.01" fill="#148bdb"/><path d="M198.344.985c-1.721 1.047-15.995 9.297-18.212 10.526-.819.454-2.682 1.529-4.139 2.388l-8.112 4.714-11.921 6.878-7.616 4.39-7.781 4.489-33.03 19.053L100 57.76v57.524l.331 57.729c.182.113 2.753-1.201 5.712-2.921l40.811-23.561 12.914-7.46 22.186-12.826 16.556-9.583 1.656-.98.083-57.575-.165-57.802c-.137-.125-.92.181-1.74.68m101.491 172.573c-.094.247-.132 26.199-.086 57.672l.085 57.224 49.776 28.994 50 28.704c.123-.16.15-26.105.059-57.656l-.166-57.364-2.318-1.364-9.271-5.407c-.364-.203-2.078-1.205-3.808-2.226l-27.163-15.919-9.095-5.301-21.358-12.512-15.563-9.104-5.855-3.422c-4.743-2.787-5.013-2.907-5.237-2.319m-167.716 36.039v35.811l21.275-.122c26.17-.151 27.187-.333 32.709-5.877 10.125-10.164 6.543-28.316-6.27-31.775-.749-.202-.696-.279.871-1.285 11.293-7.246 10.119-24.282-2.073-30.081-4.418-2.101-5.16-2.166-26.893-2.332l-19.619-.149v35.81m76.159.006v35.761h7.45 7.451l.016-10.844.016-10.845 5.584-5.744 5.584-5.745 2.89 4.917 4.938 8.394 6.825 11.671 4.776 8.195 9.539.001c7.545 0 9.487-.086 9.289-.414-.138-.227-1.613-2.5-3.28-5.049l-10.751-16.557-10.839-16.684-3.116-4.763 1.599-1.694 6.724-6.991 16.554-17.141 2.143-2.23h-9.949-9.948l-4.446 4.849-4.943 5.405c-.273.306-4.669 5.079-9.768 10.608l-9.272 10.053-.086-15.458-.086-15.457h-7.447-7.447v35.762m-38.576-22.744c6.163 2.762 5.958 11.648-.331 14.336-1.365.583-9.291 1.052-18.626 1.101l-4.056.022v-8.137-8.136l10.844.11c9.562.097 11.001.18 12.169.704m-.673 28.045c6.312 1.24 9.578 7.147 7.116 12.871-1.986 4.615-3.631 5.097-17.95 5.259l-11.506.131v-9.51-9.51l10.182.185c5.6.102 11.071.36 12.158.574m-68.698 73.603c0 .092 22.277 13.027 49.503 28.746l49.504 28.801c0 .122-22.09 12.98-49.09 28.573l-49.907 29.132c.086.084 2.465-1.193 5.288-2.838l6.623-3.82c.819-.456 2.682-1.532 4.139-2.391l8.112-4.714 11.921-6.878 7.616-4.39 25-14.427 16.059-9.267 13.726-8.044c.173-.166.588-.301.922-.301 1.503 0-.466-1.449-7.424-5.461l-13.515-7.791-68.543-39.577c-8.584-4.965-9.934-5.693-9.934-5.353m-8.54 4.673c-6.896 3.951-9.957 5.828-7.188 4.408 2.442-1.252 15.528-8.843 15.231-8.835-.182.005-3.801 1.997-8.043 4.427m-9.423 5.354c-1.238.671-1.163.951.082.307.547-.282.994-.584.994-.671 0-.213-.036-.201-1.076.364m-2.318 1.324c-1.238.672-1.163.952.082.308.547-.283.994-.585.994-.671 0-.213-.036-.201-1.076.363m-2.318 1.325c-1.238.671-1.163.951.083.307.546-.282.993-.584.993-.671 0-.213-.036-.201-1.076.364m-2.318 1.324c-1.238.672-1.163.952.083.308.546-.283.993-.585.993-.671 0-.213-.036-.201-1.076.363m-2.318 1.325c-1.238.671-1.163.951.083.307.546-.282.993-.584.993-.671 0-.213-.035-.201-1.076.364m-2.318 1.324c-1.238.672-1.162.952.083.308.546-.283.993-.585.993-.671 0-.213-.035-.201-1.076.363m-2.318 1.325c-1.238.671-1.162.951.083.307.546-.282.993-.584.993-.671 0-.213-.035-.201-1.076.364m-2.318 1.324c-1.238.672-1.162.952.083.308.547-.283.994-.585.994-.671 0-.213-.036-.201-1.077.363m-2.317 1.325c-1.238.671-1.163.951.082.307.547-.282.994-.584.994-.671 0-.213-.036-.201-1.076.364m-2.318 1.324c-1.238.672-1.163.952.082.308.547-.283.994-.585.994-.671 0-.213-.036-.201-1.076.363m-2.318 1.325c-1.238.671-1.163.951.083.307.546-.282.993-.584.993-.671 0-.213-.036-.201-1.076.364m-5.547 3.16c-2.276 1.294-4.288 2.511-4.47 2.703s.191.055.828-.305c8.005-4.523 8.399-4.761 7.864-4.753-.045.001-1.945 1.06-4.222 2.355m-6.043 3.462c-1.238.672-1.162.952.083.308.546-.283.993-.585.993-.671 0-.213-.035-.201-1.076.363m-3.476 1.988c-1.139.645-2.07 1.249-2.07 1.343 0 .183 3.599-1.777 4.122-2.245.583-.521.028-.278-2.052.902m-12.925 7.382l-10.596 6.169c-.451.484 20.24-11.182 20.938-11.805.734-.656-.499.017-10.342 5.636m-12.075 6.855c-1.238.672-1.163.952.082.308.547-.283.994-.585.994-.671 0-.213-.036-.201-1.076.363m-2.318 1.325c-1.238.672-1.163.951.082.307.547-.282.994-.584.994-.67 0-.214-.036-.202-1.076.363m-2.318 1.324c-1.238.672-1.163.952.083.308.546-.283.993-.585.993-.671 0-.213-.036-.201-1.076.363m-2.318 1.325c-1.238.672-1.163.951.083.307.546-.282.993-.584.993-.67 0-.214-.036-.202-1.076.363m-2.318 1.324c-1.238.672-1.163.952.083.308.546-.283.993-.585.993-.671 0-.213-.035-.201-1.076.363m-2.318 1.325c-1.238.672-1.162.951.083.307.546-.282.993-.584.993-.67 0-.214-.035-.202-1.076.363m-2.318 1.325c-1.238.671-1.162.951.083.307.546-.283.993-.585.993-.671 0-.213-.035-.201-1.076.364m-2.318 1.324c-1.238.672-1.162.951.083.307.546-.282.994-.584.994-.67 0-.214-.036-.202-1.077.363" fill="#042b94"/><path d="M164.326 271.43a5.9 5.9 0 0 0 1.655-.005c.408-.078-.004-.141-.915-.138s-1.244.067-.74.143" fill="#0b51b0"/><path d="M200.662.48c0 .091.447.396.994.679s.993.439.993.348-.447-.397-.993-.679-.994-.439-.994-.348m6.292 3.642c0 .091.447.397.993.679s.993.44.993.348-.447-.396-.993-.679-.993-.439-.993-.348m17.218 9.934c0 .091.447.397.994.679s.993.439.993.348-.447-.396-.993-.679-.994-.439-.994-.348m8.609 4.967c0 .091.447.396.994.679s.993.439.993.348-.447-.397-.993-.679-.994-.439-.994-.348m29.802 17.218c0 .091.447.397.993.68s.994.439.994.348-.447-.397-.994-.68-.993-.439-.993-.348m2.318 1.325c0 .091.447.397.993.679s.993.439.993.348-.447-.397-.993-.679-.993-.439-.993-.348m29.801 17.218c0 .091.447.397.993.68s.994.439.994.348-.447-.397-.994-.68-.993-.439-.993-.348m4.886 2.868c.331.424.398 12.295.331 58.03l.164 57.497c.612 0 .282-115.124-.331-115.605-.515-.404-.533-.395-.164.078M97.599 174.362c-1.238.671-1.162.951.083.307.546-.283.993-.584.993-.671 0-.213-.035-.201-1.076.364m-2.318 1.324c-1.237.672-1.162.951.083.307.547-.282.994-.584.994-.67 0-.213-.036-.201-1.077.363M65.48 192.905c-1.238.671-1.162.951.083.307.546-.283.993-.584.993-.671 0-.213-.035-.201-1.076.364m-2.318 1.324c-1.238.672-1.162.951.083.307.546-.282.993-.584.993-.67 0-.213-.035-.201-1.076.363m-23.51 13.576c-1.238.672-1.162.952.083.308.546-.283.993-.585.993-.671 0-.213-.035-.201-1.076.363m-23.51 13.576c-1.238.672-1.162.952.083.308.547-.283.994-.585.994-.671 0-.213-.036-.201-1.077.363m-8.609 4.967c-1.238.672-1.162.952.083.308.546-.283.993-.585.993-.671 0-.213-.035-.201-1.076.363m126.821 37.473a43.95 43.95 0 0 0 4.139 0c1.139-.064.207-.117-2.069-.117s-3.208.053-2.07.117m13.576 0c1.139.065 3.001.065 4.14 0s.206-.117-2.07-.117-3.208.053-2.07.117m16.226-.011c.409.079 1.08.079 1.49 0s.074-.144-.745-.144-1.155.065-.745.144m86.286 10.693c0 1.366.059 1.925.13 1.242a14.3 14.3 0 0 0 0-2.483c-.071-.683-.13-.125-.13 1.241m-.002 8.775c.001 1.275.061 1.756.133 1.069s.07-1.73-.003-2.318-.132-.026-.13 1.249m-44.149 66.539c0 .091.447.397.994.68s.993.439.993.348-.447-.397-.993-.679-.994-.44-.994-.349m2.318 1.325c0 .091.447.397.994.679s.993.439.993.348-.447-.396-.993-.679-.994-.439-.994-.348m4.636 2.649c0 .091.447.397.993.679s.994.439.994.348-.447-.396-.994-.679-.993-.439-.993-.348m30.795 17.55c0 .091.447.396.993.679s.993.439.993.348-.447-.397-.993-.679-.993-.439-.993-.348m4.635 2.649c0 .091.448.396.994.679s.993.439.993.348-.447-.397-.993-.679-.994-.439-.994-.348m21.524 12.251c0 .091.447.397.993.68s.993.439.993.348-.447-.397-.993-.68-.993-.439-.993-.348m50.248 5.339c-1.238.672-1.163.951.083.307.546-.282.993-.584.993-.67 0-.213-.035-.201-1.076.363m-40.977-.041c0 .091.447.397.994.68s.993.439.993.348-.447-.397-.993-.68-.994-.439-.994-.348m38.659 1.366c-1.238.671-1.162.951.083.307.546-.283.993-.584.993-.671 0-.213-.035-.201-1.076.364m-2.318 1.324c-1.238.672-1.162.951.083.307.546-.282.993-.584.993-.67 0-.213-.035-.201-1.076.363m-31.705-.041c0 .091.447.397.993.68s.994.439.994.348-.447-.397-.994-.68-.993-.439-.993-.348" fill="#0c8cd7"/></svg>