<svg xmlns="http://www.w3.org/2000/svg" viewBox="0 0 906.99 744.09"><path d="M445.64 1.35 462.21 0l-21 25.63q13.59 17.64 27.23 35.28-8 .68-15.94 1.29-9.5-13.63-19.09-27.27-4.61 5.49-9.17 11l1.49 18.45-12.3 1q-2.51-30.51-5-61 6.15-.51 12.31-1l2.21 27.07q11.4-14.54 22.69-29.1M480 2l12.3 1-2 24 24.13 2 2-24q6.14.48 12.29 1-2.51 30.48-5.05 61l-12.29-1 2.19-26.66-24.11-2-2.22 26.64-12.29-1Q477.46 32.44 480 2m83.59 13.72c13.19-2.5 28.9 3.21 34.91 15.82 4.21 8.66 2.87 18.88-.37 27.63-2.69 7.44-7.93 14.26-15.33 17.46-8.53 3.9-18.55 2.37-26.8-1.52a26.62 26.62 0 0 1-14.53-17.29c-2.23-8.73-.09-17.94 3.47-26a28.41 28.41 0 0 1 18.65-16.1m3.9 10.83c-7.18 1.93-11.11 9.08-12.89 15.78-1.85 6.27-2.26 13.71 1.92 19.17 5.7 8 18.92 8.83 25.18 1.07a32.62 32.62 0 0 0 6.58-23.68c-1.42-9.31-12.12-14.74-20.79-12.34m-235.82-6.03c7.74-4.17 17.54-5.77 25.68-1.79 4.27 2 7.36 5.67 9.87 9.52l-10.86 6.09c-2.7-4.55-7.86-7.8-13.27-6.78a14.29 14.29 0 0 0-12.71 14.3 40.47 40.47 0 0 0 6.83 21.93c4.69 6.71 15.46 7.27 20.94 1.27 3.2-3.34 3.64-8.17 3.66-12.56l12.53.43c-.11 6.24-1.38 12.83-5.58 17.68-5.1 6-13 8.87-20.69 9.34-9.61.52-19-5-23.82-13.22a45.6 45.6 0 0 1-6.13-23.86 26.33 26.33 0 0 1 13.55-22.35m262.74 65.39Q618 63.08 641.66 40.28l11.86 5.47q-1.65 32.93-3.34 65.85l-12.2-5.62q.46-7.42.95-14.86l-22.25-10.23q-5.17 5.27-10.38 10.5-5.95-2.73-11.89-5.48m30.08-12.82q7.56 3.52 15.15 7l1.84-24.12q-8.48 8.54-16.99 17.12M272.5 42.55a26.68 26.68 0 0 1 22.5 3.52c6.63 4.59 11 11.74 13.87 19.16 2.73 7.12 3.11 15.36-.18 22.37-3.83 8.53-12.27 14.07-21 16.7a26.51 26.51 0 0 1-23.19-3.89c-6.72-4.93-11-12.5-13.7-20.23-3-8.54-2-18.66 3.54-26 4.56-5.71 11.2-9.56 18.16-11.63m.93 10.85c-5.06 1.64-9.68 5.39-11.25 10.6-1.93 6 .26 12.31 3.06 17.63s6.95 10.37 12.93 11.89c9 2.59 19.45-4.2 20.29-13.63.6-7.61-3.07-14.9-7.57-20.79-3.96-5.22-11.15-7.98-17.46-5.7m-60.79 23.29q5-3.63 10-7.23 17.9 24.83 35.8 49.64l-10 7.23-15.67-21.68q-9.83 7.06-19.63 14.16l15.66 21.68q-5 3.64-10 7.25L183 98.12q5-3.63 10-7.23l14.11 19.52q9.83-7.08 19.63-14.18zm498.86 1.14 9.68 7.61-14.91 18.92q9.48 7.52 19 15l15-18.85q4.83 3.81 9.67 7.66l-38 48q-4.86-3.83-9.7-7.67 8.31-10.47 16.6-21-9.48-7.51-19-15l-16.61 20.94q-4.86-3.81-9.68-7.64 18.96-24 37.95-47.97M290.73 108q5.19-2.7 10.41-5.37l5.35 10.42q-5.19 2.7-10.4 5.36-2.7-5.2-5.36-10.41m-151.27 30.68q4.22-4.5 8.47-9l44.48 42q-4.23 4.5-8.47 9-22.24-21.01-44.48-42m620.06-7.08a25.7 25.7 0 0 1 20 4c7.68 5.43 14.11 13.7 14.91 23.35.8 7.94-2.52 15.76-7.69 21.65-5.43 6.21-12.36 11.64-20.59 13.35a26.6 26.6 0 0 1-21.83-5.29c-7.07-5.53-12.84-13.62-13.34-22.83-.57-7.76 2.79-15.32 7.88-21 5.5-6.13 12.38-11.65 20.66-13.23m3 11.88c-5.17 1.43-9.46 4.94-13.11 8.74s-6.41 8.43-6.45 13.68c-.32 8.65 7.46 16.73 16.16 16.57 6.14 0 11.47-3.73 15.75-7.8 3.8-3.68 7.36-8.21 7.94-13.64 1.19-10.54-9.97-20.59-20.34-17.55zm-273.88 48.01q25.7-21.28 51.58-42.31Q509 317.66 477.73 486.12c-33-6.61-65.52-16.17-95.7-31.13-24.64-12.24-47.65-28.37-65.83-49.16-6.27-7.11-11.14-16.18-10.71-25.91.22-8.61 4.76-16.25 9.34-23.26 9-13.35 19.88-25.33 30.92-37 44.45-46.15 93.73-87.24 142.89-128.17M407 290.81c-2.75 6.13-1.83 13.09-.69 19.49-6.11 2.21-12.6 4.9-16.54 10.35a9.57 9.57 0 0 0 .09 11.45c4 5.36 10.37 8 16.45 10.2-1.13 6.39-2.07 13.35.67 19.47a9.58 9.58 0 0 0 10.02 5.69c6.59-.8 12.07-5 17-9.14 4.93 4.18 10.46 8.39 17.1 9.15a9.58 9.58 0 0 0 9.91-5.6c2.78-6.14 1.86-13.14.71-19.56 6.08-2.19 12.52-4.86 16.48-10.24a9.59 9.59 0 0 0 .1-11.37c-3.93-5.48-10.45-8.18-16.58-10.39 1.13-6.37 2.06-13.3-.64-19.4a9.46 9.46 0 0 0-9-5.8c-7 .32-12.89 4.84-18 9.19-5.13-4.32-10.94-8.8-17.91-9.19a9.44 9.44 0 0 0-9.17 5.7m-291.38-125.3 63.2 18.75q-4.15 5.28-8.33 10.53l-14.2-4.42q-7.6 9.58-15.2 19.17 3.89 6.3 7.77 12.59l-8.12 10.29q-16.61-28.33-33.19-56.68zm7.1 14.11 12.64 20.57q5.17-6.56 10.37-13.1zm601.2 10.99 8.56-8 8 8.53q-4.26 4-8.54 8-4.02-4.24-8.02-8.53m72.08 2.1c6.73-3.46 14.73-5.06 22.13-2.86 10.4 2.92 18 12.64 20.08 23 1.5 7.2-1.39 14.51-6.24 19.8q-4.5-4.35-9-8.74c1.39-1.89 2.93-3.79 3.49-6.12 2.11-7.88-4.39-16.57-12.44-17.17-5.77-.45-11.1 2.43-15.8 5.43-4.29 2.86-8.68 6.22-10.72 11.12-2.91 6.88 1.1 15.8 8.28 18 3.73 1.19 7.68.24 11.33-.81q1.57 6.06 3.17 12.12c-7.15 2.22-15.45 2.34-21.83-2-9.49-6.56-15.34-19.09-12.08-30.5 2.54-9.86 10.85-16.89 19.63-21.27m-628.81 14.35q4.59 3.63 9.17 7.28-3.62 4.6-7.27 9.19l-9.2-7.25q3.63-4.63 7.3-9.22m-85.4 11.58c6.75-4 15.3-3.73 22.47-1 6.78 2.64 13.29 6.36 18.31 11.69 4.39 4.67 7.56 11 7 17.51-.28 4.91-2.33 9.48-4.71 13.69Q119 270.79 113.1 281l-23.18-13.25-3.16 5.48-6.76-3.82c1-1.85 2.08-3.69 3.12-5.53Q71.61 257.24 60 250.62q5.76-10.11 11.56-20.19c2.65-4.49 5.6-9.12 10.23-11.79M84.13 231c-3.77 4.15-6.13 9.35-9 14.12l14.18 8.13 6.52-11.36q3.36 1.91 6.71 3.85l-6.49 11.37q7.09 4.08 14.22 8.14c2.71-5.06 6.19-9.79 7.92-15.3 1.24-3.89-.45-8.06-3.28-10.78a50.5 50.5 0 0 0-16-10C94.16 227.09 88 227 84.13 231m772.44 33.4q4.81-1.89 9.66-3.72 8.73 22.68 17.44 45.39l-9.67 3.72q-3.27-8.46-6.5-16.91l-47.47 18.22q-2.24-5.75-4.44-11.51 23.71-9.13 47.45-18.24zM410.8 294.55a8.11 8.11 0 0 1 7.27-4.23c5.19.09 9.67 3.13 13.7 6.1a108 108 0 0 0-8.95 10.49 108 108 0 0 0-13.59 2.51c-.49-4.95-.95-10.35 1.57-14.87m25.47 1.87c4.05-3 8.56-6.06 13.8-6.1a8.14 8.14 0 0 1 7.23 4.34c2.43 4.51 2 9.85 1.48 14.77a106 106 0 0 0-13.57-2.52 108 108 0 0 0-8.94-10.49m-9.95 10.18a91 91 0 0 1 7.7-8.24 94 94 0 0 1 7.7 8.24 130 130 0 0 0-15.4 0m-384.22-.73c4.07-3 9.19-4 14.16-3.86q-.52 6.19-1.12 12.39c-4.22.28-8.48 2.09-10.83 5.75-3.6 5.6-4.39 13.44-.6 19.16 2.65 4.1 7.19 6.5 11.72 8 5 1.54 10.35 2.53 15.5 1.29a15.93 15.93 0 0 0 11-9.87c2.27-5.53 1.53-11.75-.33-17.29l-7.6-2.17-3.85 13.61-9.93-2.79q3.62-12.82 7.24-25.65l23.53 6.62a41.33 41.33 0 0 1-1.5 36.23c-4 7.25-11.22 12.75-19.49 13.86-12.09 1.78-25.42-2.3-33.47-11.74a27.62 27.62 0 0 1-5.53-23.6c1.61-7.49 4.62-15.36 11.1-19.94m382.18 3.48a103 103 0 0 1 19.48 0 98.7 98.7 0 0 1 9.82 16.92 93.7 93.7 0 0 1-9.85 17 90.5 90.5 0 0 1-19.19-.08c-4.34-4.9-7.25-11-10.07-16.93a97.6 97.6 0 0 1 9.81-16.91m6.12 9.93c-5.42 2.48-5.69 11-.45 13.81 4.73 3.13 11.76-.54 11.95-6.18.72-5.91-6.34-10.62-11.5-7.63m-20.58-6.95a87 87 0 0 1 11-2.53 126 126 0 0 0-7.68 13.29 84.5 84.5 0 0 1-3.32-10.76m37.42-2.53a88 88 0 0 1 11 2.53 85 85 0 0 1-3.29 10.77 125 125 0 0 0-7.71-13.3M395 321.87c2.73-4.29 7.48-6.6 12-8.55a103 103 0 0 0 4.61 12.95 111 111 0 0 0-4.61 13c-4.44-1.93-9.11-4.19-11.86-8.35a8.23 8.23 0 0 1-.14-9.05m61.42 4.38a103.5 103.5 0 0 0 4.6-12.93c4.51 1.95 9.28 4.27 12 8.57a8.25 8.25 0 0 1 0 8.92c-2.74 4.25-7.48 6.54-12 8.5a116 116 0 0 0-4.6-13.06m395.01 4.26c12.53-3.16 25.18-5.84 37.77-8.78l2.76 12-37.3 8.61c-3.59.88-7.62 2.09-9.55 5.55-2.26 4.15-1.22 9.26.55 13.4a8.34 8.34 0 0 0 8.43 5.27c5.85-.46 11.52-2.17 17.25-3.38l26-6 2.75 12.05-21.35 4.9c1.44 2.72 3 5.71 5.93 7.09 1.91 1 4.12.48 6.19.5l-1.23-5.73 11.41-2.6 2.62 11.43c-5.79 1.1-11.57 3.4-17.54 2.64-6.19-1.09-9.79-6.91-12-12.27-7.64 1.55-15.28 4-23.15 3.59s-13.39-7.26-15.57-14.27c-2.44-7.74-4-16.8.08-24.25 3.18-5.83 9.85-8.15 15.95-9.75m-441.62 9.76a92 92 0 0 1 3.3-10.78 121 121 0 0 0 7.69 13.33 86 86 0 0 1-10.99-2.55m45.12-10.75a76 76 0 0 1 3.24 10.79 102 102 0 0 1-10.92 2.52 134 134 0 0 0 7.68-13.31m-45.71 13.69a118 118 0 0 0 13.62 2.52 109 109 0 0 0 8.93 10.48c-4 3-8.52 6-13.73 6.09a8.22 8.22 0 0 1-7.56-4.82c-2.15-4.43-1.72-9.48-1.26-14.27m35.97 2.52a117 117 0 0 0 13.6-2.52c.49 4.73.9 9.8-1.21 14.23a8.27 8.27 0 0 1-7.53 4.86c-5.23-.05-9.73-3.13-13.79-6.1a106 106 0 0 0 8.93-10.47m-18.86.27a138 138 0 0 0 15.36 0 86 86 0 0 1-7.67 8.21 86.5 86.5 0 0 1-7.69-8.21m391.1 11.52q5.72-1.33 11.44-2.62l2.61 11.42q-5.72 1.33-11.43 2.62-1.34-5.71-2.62-11.42M21.55 371.46l60.65 8.09-1.61 12.2L37.81 411l39.51 5.25q-.73 5.67-1.48 11.36l-60.66-8q.77-6 1.57-11.91 21.89-9.75 43.76-19.48l-40.46-5.36q.73-5.72 1.5-11.4M291 400.48c17.13 25.94 42.3 45.52 69.45 60.12 16.89 9.15 34.69 16.48 52.78 22.88 19.86 6.38 40.17 11.2 60.43 16.14 17.15 4.28 34.67 7.37 51.3 13.52 26.61 9.56 51.51 25.48 68.89 48.06 15.4 20.4 21.08 46.59 20.45 71.77h-9.38c.8-18.53-2.33-37.51-11-54.05-12-23.25-33.49-40.12-56.76-51.15-17-7.56-35-12.39-53.09-16.72-16.89-4.11-34.13-6.65-50.81-11.6a392 392 0 0 1-57.19-20.64c-12.05-5.53-24-11.41-35-18.84-14.87-9.79-29.8-20-41.65-33.42-2.74-2.67-5.73-5.4-6.82-9.21a55.7 55.7 0 0 1-1.6-16.86m554.84 28.28 61.16 2.08-.39 12-41.69 23.66q20.42.72 40.82 1.4l-.39 11.47-61.15-2.07.36-12.25 40.75-23.43-39.85-1.37q.15-5.77.38-11.49M294.44 433c22.11 22.18 48.84 39.41 77.38 52.12a454.4 454.4 0 0 0 100.41 31.15c17 3.44 33.86 7.63 50.15 13.61 12.24 4.52 24.22 10.15 34.68 18a85.4 85.4 0 0 1 28.61 31.38c8.66 16.42 11.6 35.26 11.41 53.66l-275.37-.32c-6.48-40.51-11.54-81.23-17.06-121.88q-5.16-38.84-10.21-77.72m80.25 148.82v37.11h8.49v-11.2q3.39-3.12 6.82-6.2 5.77 8.68 11.51 17.39h11l-16.61-22.65q7.89-7.23 15.79-14.45h-11.37l-17.09 16.41v-16.42zm42.16 0v37.1h8.48v-16.23h16.5v16.21h8.49v-37.1h-8.48v14.61h-16.5v-14.6zm39.3 0v6.26h12.41v30.83h8.49v-30.84h12.35v-6.26zm38.75 0v37.1h7.85v-24.36l17 24.39h8.44v-37.1h-7.84v24.7l-17.23-24.7zM12.8 438.64c5.35-.32 10.74-1.32 16.09-.52 4.65.75 7.94 4.54 10 8.5 8.93-1.46 18.79-1.3 26.62 3.78 6.79 4.19 11.09 11.6 12.17 19.41 1.49 8.82 0 18.68-6.21 25.47-6.74 7.74-17.54 10.26-27.42 10-8.66-.07-17.61-3.45-23.08-10.38-5.95-7.7-7.22-18.25-5.28-27.58 2-9.14 9.29-16.35 18-19.4a10 10 0 0 0-8.69-4.34q.21 2.9.44 5.8-5.84.5-11.68.95-.49-5.85-.96-11.69m26.71 20.92a19.74 19.74 0 0 0-10.31 5.52c-4.75 5.17-4.8 13.42-1.63 19.41 3 5.48 9.47 8 15.47 8.1 6.94.21 14.57-1 19.85-5.87 7.27-6.61 6-20.13-2.52-25.13-6.22-3.77-13.98-3.43-20.86-2.03M12 471.92l.62 7.34q-5.73 6.27-11.51 12.52-.6-6.55-1.11-13.09zm831.79 18.15q30.11 5.46 60.19 11-1.11 6.06-2.21 12.14l-23.68-4.3q-2.19 11.89-4.34 23.81l23.68 4.32-2.22 12.15-60.16-10.93q1.07-6.11 2.2-12.19l26.31 4.78q2.16-11.91 4.33-23.8-13.15-2.41-26.31-4.79 1.08-6.12 2.21-12.19M20.27 520.41c5.86-1.11 11.73-3.49 17.73-2.59 6.08 1.19 9.57 6.93 11.78 12.22 8.63-1.59 17.49-5.09 26.3-3 8.55 2.54 12.58 11.69 14 19.78 1.52 7.33 1.32 16.09-4.43 21.64-4.9 4.82-12 5.88-18.41 7.64l-32.59 7.46-2.75-12.05 38.92-9c4-.88 8.16-3.44 8.94-7.77.72-4.82-.4-10.27-3.78-13.91-3.16-3.14-8-2.06-11.85-1.32l-37.63 8.54q-1.38-6-2.75-12l21.35-4.91c-1.37-2.58-2.81-5.38-5.47-6.85-2-1.28-4.46-.79-6.68-.68q.63 2.82 1.28 5.65-5.7 1.34-11.42 2.62-1.24-5.75-2.54-11.47m811.18 30.13q29.46 8.28 58.92 16.62-1.67 6-3.36 11.9-29.46-8.29-58.91-16.62zm-23.58 66.09q8.37-21.71 16.77-43.41l57.06 22q-8.13 21.18-16.33 42.33-4.85-1.86-9.65-3.74 5.92-15.4 11.89-30.78-6.33-2.46-12.66-4.9-5.55 14.33-11.07 28.67l-9.61-3.73q5.52-14.33 11.07-28.64l-15.54-6-12.32 31.87zm-723.51-21.4c3.77-6.55 8.16-12.72 12.26-19.06l6.14 13.44C98.22 597.36 93 604.75 89 612.79c-2.23 4.33.37 8.88 2.14 12.84l23.26-10.64q2.57 5.61 5.14 11.23-27.81 12.78-55.66 25.5l-12.13-26.59c-1.9-4.77-4.1-10-2.76-15.2 2.23-8.37 11.6-13.86 20-12.36 5.13.91 9 4.78 11.81 9a29 29 0 0 1 3.56-11.34M60.42 615c-.68 2.49.4 5 1.37 7.24l6.37 14 14.11-6.46c-2.81-5.85-5.08-12-8.61-17.45-3.29-5.08-11.84-2.83-13.24 2.67m818.33-2.29 3.42-8.81 8.31 12.61-3.9 10.08-14.58 3.63q1.66-4.41 3.4-8.8l7.52-2.27zM796.81 636l6.13-9.7q25.86 16.38 51.71 32.78l-6.45 10.16-47.9-.72 34.5 21.89q-3.07 4.83-6.13 9.67-25.89-16.36-51.67-32.77l6.45-10.36c15.69-.14 31.39.33 47.09.38q-16.89-10.69-33.73-21.33M90.2 675.69q21.51-13.56 43-27.14l6.6 10.45q-21.5 13.57-43 27.15l9.67 15.36-8.74 5.54q-13-20.58-26-41.15 4.35-2.79 8.74-5.53zM365 676c9.1-1.78 19.39-.77 26.84 5.17 5.78 4.49 9.16 11.49 10.14 18.65 1.5 10.42.1 22-7.09 30.17a51.6 51.6 0 0 0 9.87 5.19q-2.33 4.44-4.58 8.91c-5.08-1.59-9.26-4.92-13.66-7.76a36.43 36.43 0 0 1-27.69-.21c-7.93-3.5-13.38-11.29-14.94-19.7-1.59-8.7-1.3-18.09 2.54-26.18A26.3 26.3 0 0 1 365 676m-4.61 15.21c-4.14 4.82-4.8 11.54-4.61 17.64.18 5.79 1.67 12.09 6.3 16 4.12 3.76 10.21 4.49 15.44 2.93a46.5 46.5 0 0 0-7.73-4q1.72-3.6 3.46-7.17A48.8 48.8 0 0 1 385 723a24.33 24.33 0 0 0 4.69-14.14c.19-6-.41-12.48-4.27-17.31-5.98-7.55-18.9-7.69-25.07-.34zm60.87-10.09c8.41-6.6 20.15-7.08 30.15-4.47 7.78 2.05 13.57 8.86 15.25 16.6l-12.26 2.32c-1.42-3.84-4.09-7.4-8.08-8.76-6.43-2.16-14.4-.88-19 4.38-3.34 3.72-4.44 8.88-4.61 13.75s.33 10.11 2.62 14.59a15.93 15.93 0 0 0 11.7 8.54c6.35 1.1 12.75-1.31 17.86-5l-.05-7.83h-14.18v-10.43h26.67v24.75a41.79 41.79 0 0 1-35.13 8.36 27.06 27.06 0 0 1-17.56-12.61c-7.72-13.82-6.36-33.93 6.62-44.19m166.8-5.12c8.44-1.82 18.12-.71 24.81 5.16 3.69 3.06 5.7 7.56 7.15 12l-12.17 2.95c-.94-2.52-1.92-5.17-4-7-5.91-5.47-16.5-4.09-20.93 2.61-3.32 5-3.55 11.32-3.42 17.15.26 5.22 1 10.95 4.65 15 4.7 5.31 13.87 6 19.07 1.05 2.8-2.55 4-6.28 5-9.78l11.93 3.72c-1.65 5.64-4.32 11.29-9.08 15-6.53 5.08-15.47 6-23.36 4.3-9.79-2.11-17.57-10.43-19.81-20.08a45.77 45.77 0 0 1 1.14-25.2A26.31 26.31 0 0 1 588.06 676m-366.19.25h23.24c5.52 0 11.37.39 16.15 3.46 7.19 4.48 10.86 12.93 11.65 21.12 1 9.62.24 20.2-5.71 28.22-4.32 6-11.93 8.66-19.1 8.8-8.73.17-17.47 0-26.2.06v-26.88h-6.34v-7.81h6.31zm12.44 10.42v16.53h13.16v7.8H234.3v16.46c6.33-.31 13 .89 19.05-1.39 6-2.8 6.84-10.34 7.14-16.19.1-7.1.34-15.81-5.82-20.65-6-3.86-13.61-2.12-20.36-2.56m49.39-10.43h12.39v24.27h24.2v-24.25h12.4v61.66h-12.38v-27H296.1v27h-12.41q0-30.84.01-61.68m223.41 0h12.4v24.25h24.21v-24.25h12.4v61.66h-12.4v-27h-24.23v27H507.1q0-30.83.01-61.66m123.42 0h18.61l11 42 11-42h18.63v61.66h-11.48l-.06-48.32-12.15 48.33h-11.93l-11.91-48.29c-.46 16.09-.11 32.19-.24 48.28h-11.47q.01-30.82 0-61.66m-153.35 33.42h23.12v11.77h-23.12q-.03-5.89 0-11.77" fill="#273e74"/><path d="M407 290.81a9.44 9.44 0 0 1 9.13-5.7c7 .39 12.78 4.87 17.91 9.19 5.15-4.35 11-8.87 18-9.19a9.46 9.46 0 0 1 9 5.8c2.7 6.1 1.77 13 .64 19.4 6.13 2.21 12.65 4.91 16.58 10.39a9.59 9.59 0 0 1-.1 11.37c-4 5.38-10.4 8.05-16.48 10.24 1.15 6.42 2.07 13.42-.71 19.56a9.58 9.58 0 0 1-9.91 5.6c-6.64-.76-12.17-5-17.1-9.15-4.92 4.15-10.4 8.34-17 9.14a9.58 9.58 0 0 1-9.96-5.69c-2.74-6.12-1.8-13.08-.67-19.47-6.08-2.17-12.49-4.84-16.45-10.2a9.57 9.57 0 0 1-.09-11.45c3.94-5.45 10.43-8.14 16.54-10.35-1.18-6.4-2.1-13.36.67-19.49m3.82 3.74c-2.52 4.52-2.06 9.92-1.57 14.87a108 108 0 0 1 13.59-2.51 108 108 0 0 1 8.95-10.49c-4-3-8.51-6-13.7-6.1a8.11 8.11 0 0 0-7.29 4.23zm25.47 1.87a108 108 0 0 1 8.94 10.49 106 106 0 0 1 13.57 2.52c.52-4.92 1-10.26-1.48-14.77a8.14 8.14 0 0 0-7.23-4.34c-5.26.04-9.77 3.11-13.82 6.1zm-9.95 10.18a130 130 0 0 1 15.4 0 94 94 0 0 0-7.7-8.24 91 91 0 0 0-7.72 8.24zm-2 2.75a97.6 97.6 0 0 0-9.81 16.91c2.82 5.9 5.73 12 10.07 16.93a90.5 90.5 0 0 0 19.19.08 93.7 93.7 0 0 0 9.85-17 98.7 98.7 0 0 0-9.82-16.92 103 103 0 0 0-19.54 0zm-14.46 3a84.5 84.5 0 0 0 3.29 10.76 126 126 0 0 1 7.68-13.29 87 87 0 0 0-11.03 2.51zm37.42-2.53a125 125 0 0 1 7.68 13.3 85 85 0 0 0 3.29-10.77 88 88 0 0 0-11.03-2.55zM395 321.87a8.23 8.23 0 0 0 .13 9.08c2.75 4.16 7.42 6.42 11.86 8.35a111 111 0 0 1 4.61-13 103 103 0 0 1-4.6-12.98c-4.5 1.95-9.25 4.26-12 8.55m61.4 4.38a116 116 0 0 1 4.6 13.06c4.48-2 9.22-4.25 12-8.5a8.25 8.25 0 0 0 0-8.92c-2.72-4.3-7.49-6.62-12-8.57a103.5 103.5 0 0 1-4.58 12.93zm-46.61 14a86 86 0 0 0 11 2.55 121 121 0 0 1-7.69-13.33 92 92 0 0 0-3.29 10.8zm45.12-10.75a134 134 0 0 1-7.68 13.31 102 102 0 0 0 10.92-2.52 76 76 0 0 0-3.22-10.77zm-45.71 13.69c-.46 4.74-.89 9.84 1.26 14.27a8.22 8.22 0 0 0 7.54 4.84c5.21-.08 9.68-3.13 13.73-6.09a109 109 0 0 1-8.93-10.48 118 118 0 0 1-13.58-2.52zm36 2.52a106 106 0 0 1-8.93 10.47c4.06 3 8.56 6.05 13.79 6.1a8.27 8.27 0 0 0 7.53-4.86c2.11-4.43 1.7-9.5 1.21-14.23a117 117 0 0 1-13.61 2.54zm-18.86.3a86.5 86.5 0 0 0 7.69 8.21 86 86 0 0 0 7.67-8.21 138 138 0 0 1-15.37-.01zm4.06-26.73c5.16-3 12.22 1.74 11.5 7.63-.19 5.64-7.22 9.31-11.95 6.18-5.24-2.82-4.95-11.33.45-13.81m-55.71 262.53h8.48v16.42l17.09-16.41h11.37q-7.87 7.25-15.79 14.45l16.61 22.65h-11q-5.73-8.71-11.51-17.39-3.42 3.07-6.82 6.2v11.2h-8.49q.05-18.56.06-37.12m42.16 0h8.49v14.61h16.51v-14.61h8.48v37.1h-8.49V602.7h-16.5v16.23h-8.48zm39.3 0h33.26v6.26h-12.35v30.84h-8.49v-30.83h-12.42q-.01-3.15 0-6.27m38.75 0h8.21l17.23 24.7v-24.7h7.84v37.1h-8.44l-17-24.39v24.36h-7.84z" fill="#fefefe"/></svg>