<svg xmlns="http://www.w3.org/2000/svg" width="300" height="300" viewBox="0 0 416.8 416.8" shape-rendering="geometricPrecision" image-rendering="optimizeQuality" fill-rule="evenodd" fill="#174592"><path d="M366.64 161.54l6.09-1.72-1.71-6.09-6.09 1.71zm-3.91 34.83l12.18-9.72 10.33-1.29.11-.01.06-.01-.01-.06-.02-.1-.41-3.06-.01-.1-.01-.06-.05.01-.11.02-10 1.24-14.68-6.4-.17-.08-.09-.04.02.1.02.18.46 3.39v.06l.01.03.03.01.05.02 11.19 4.86-9.53 7.5-.05.04-.02.02v.03l.01.06.43 3.26.03.18.01.1.08-.06zm2.72 3.71l-.2 8.13 20.89.47.1.01h.06v.05l-.01.11-.07 3.08v.16h-.06l-.1-.01-20.89-.47-.19 8.12-.01.11v.05h-.16l-2.82-.07h-.16v-.06l.01-.1.46-19.65.01-.1v-.06h.05l.11.01 2.82.06h.11l.05.01v.05zm-3.69 23.83l-1.08 9.09-.02.1v.06h.05l.11.01 2.42.28.1.01.05.01.01-.06.01-.1.34-2.86 18.57 2.11-.35 2.86-.01.11v.05l.05.01.11.01 2.41.27.11.01.05.01.01-.05.01-.11 1.08-9.09.01-.1.01-.05-.05-.01-.11-.01-2.42-.28-.1-.01-.05-.01-.01.06-.01.1-.34 2.86-18.56-2.11.33-2.86.02-.1v-.06h-.05l-.11-.02-2.41-.27-.11-.01-.05-.01-.01.05zm20.03 21.14l.09.22.09.22c.66 1.72.77 3.44.6 5.29l-.14 1.23c-.2 1.45-.56 2.86-1.1 4.24l-.42.98-.47.99-.54.99-.04.06-.01.03h-.04l-.07-.01-3.95-.39-.1-.01h-.05v-.06l.01-.1.02-.22v-.06l.02-.01.03-.03c.27-.26.53-.54.77-.83.25-.29.48-.59.7-.9v-.01c.07-.09.13-.18.18-.26l.18-.28a14.47 14.47 0 0 0 1.66-3.85c.16-.62.27-1.23.32-1.83l.03-.39.02-.38a9.71 9.71 0 0 0-.1-1.75v-.01c-.01-.1-.03-.2-.05-.3l-.07-.3a5.05 5.05 0 0 0-.52-1.33c-.15-.27-.32-.51-.51-.72-.86-.97-2.22-1.3-3.49-1.03h-.01c-.05.02-.1.03-.15.04-.05.02-.1.03-.15.05-.24.08-.45.2-.63.35h-.01l-.1.1c-.04.03-.07.06-.11.1-.18.18-.34.4-.5.65h-.01c-.45.73-.74 1.61-.99 2.43l-.02.06-.05.17-.06.23-.21.82-.02.08-.05.19-.05.18-.25.93-.08.29-.05.19-.09.32-.2.66-.02.07-.01.02-.04.12-.03.11c-.53 1.55-1.32 3.09-2.64 4.09l-.26.18-.27.17c-.46.27-.96.47-1.5.61l-.31.07c-.11.01-.22.03-.33.05-.56.07-1.16.08-1.79.02h-.03l-.12-.02-.11-.01-.58-.1-.2-.05-.1-.03-.1-.03c-.13-.03-.26-.08-.38-.12h-.01l-.53-.23a6.12 6.12 0 0 1-.5-.27c-.83-.5-1.54-1.22-2.13-2.15h-.01v-.01l-.06-.1-.07-.11-.31-.56-.05-.11-.06-.12c-.79-1.71-.99-3.63-.82-5.5v-.01l.03-.34.04-.34c.29-2.49 1.08-5.08 2.32-7.28l.03-.06.02-.03h.03l.07.01 3.73.36.11.01.05.01v.05l-.02.11-.01.21-.01.04v.02l-.01.02-.03.03c-.21.19-.41.41-.6.64-.2.23-.38.48-.57.75v.01l-.15.23c-.05.07-.1.15-.15.24a13.373 13.373 0 0 0-1.84 5.63v.01l-.01.1v.09c-.02.16-.02.32-.03.47v.18l.01.45c0 .15.02.29.03.43s.03.28.05.41c.11.69.32 1.3.63 1.83v.01l.13.21.13.19c.64.88 1.51 1.28 2.59 1.3.32.01.62-.01.9-.07l.01-.01.14-.03c.05-.01.1-.03.15-.05.26-.08.49-.2.69-.35l.02-.01c1.3-.99 1.82-3.59 2.24-5.17l.03-.1v-.01l.13-.48.13-.46.09-.32.09-.29.09-.28.37-1.11v-.01c.04-.12.09-.23.14-.35.04-.12.09-.23.14-.34a9.81 9.81 0 0 1 .82-1.51l.18-.25.18-.25c.77-.95 1.69-1.6 2.9-1.87h.01c.1-.03.2-.04.29-.06l.31-.05c3.34-.39 6.17 1.4 7.49 4.42zm-25.33 22.05l-.04.02c-.02.02-.05.04-.08.06l-.09.06-.01.01-.04.03-.04.04c-.63.51-1.06 1.23-1.42 1.95l-.07.14-.34.77-1.31 3.23 7.97 3.42 1.11-2.75h.01l.07-.19c.03-.06.05-.13.07-.18l.31-.91.05-.17c.01-.06.03-.12.04-.17a7.37 7.37 0 0 0 .16-.76l.01-.06c.01-.05.02-.11.02-.15.01-.05.01-.1.02-.15a4.09 4.09 0 0 0-1.22-3.24l-.02-.02a.7.7 0 0 0-.1-.08c-.03-.03-.06-.06-.1-.09-.17-.14-.36-.28-.57-.41h-.01c-.04-.03-.08-.06-.13-.08-1.42-.84-2.9-1.21-4.25-.32zm21.97-.2l-1.51 3.72-.02.05-.01.02-.02.01-.05.02-11.56 3.46-1.56 3.81 8.56 3.66.09.05.05.02-.02.04-.04.1-1.16 2.87-.04.09-.02.05-.05-.02-.1-.04-21.88-9.37-.1-.04-.05-.02.02-.05.04-.1 2.46-6.03v-.02l.12-.27.09-.23.02-.03.11-.25.11-.26.16-.35c.06-.1.11-.21.16-.32 2.53-5.06 8.8-6.66 12.24-.96v.01l.05.07.04.07c.69 1.21 1.01 2.57 1.02 3.97l12.66-3.94.21-.06.11-.04-.04.11-.09.2zm-10.78 25.94l-7.44 13.45-.05.1-.03.05-.05-.03-.09-.06-20.49-11.97-.09-.05-.04-.03.02-.05.05-.09 7.44-13.45.05-.09.03-.05.04.03.1.05 2.42 1.42.09.05.05.03-.03.04-.05.09-5.86 10.6 5.34 3.12 5.85-10.59.06-.09.02-.05.05.03.09.05 2.43 1.42.09.05.04.02-.02.05-.05.09-5.86 10.6 7.33 4.28 5.85-10.59.06-.09.02-.05.05.03.09.05 2.43 1.42.09.05.04.03-.02.04zm-42.87 22.46l24.36 7.09v-.01l.06.03.04.01.02-.03.05-.06 2.52-3.3.05-.06.02-.03-.02-.03-.04-.07-13.99-20.61-.09-.13-.04-.06-.04.06-.09.12-2.03 2.65-.05.06-.02.03.02.03.04.07 12.14 17.63-20.88-6.22-.07-.02-.04-.01-.02.03-.05.06-1.93 2.52-.09.13-.05.06.08.02zm-3.64 2.69l-6.5 6.61-.08.08-.04.04.04.04.08.07 1.77 1.64.07.06.04.04.04-.04.07-.07 2.05-2.08 13.52 12.52-2.04 2.08-.08.08-.04.03.04.04.08.08 1.76 1.63.08.07.04.03.04-.03.07-.08 6.5-6.62.08-.07.03-.04-.04-.04-.08-.07-1.76-1.64-.07-.07-.04-.03-.04.04-.07.07-2.05 2.08-13.52-12.52 2.04-2.08.08-.08.04-.04-.04-.03-.08-.08-1.77-1.63-.07-.07-.04-.04-.04.04zm3.55 29.86l-3.04 2.42-.06.04-.02.02-.03-.01-.06-.03-20.76-9.56 12.19 16.28.06.09.03.04-.04.03-.08.06-2.3 1.83-.08.07-.04.03-.04-.04-.06-.09-14.06-18.77-.06-.08-.03-.04.04-.04.08-.06 3.81-3.03.05-.04.03-.02.03.02.06.02 18.9 8.71-11.1-14.82-.06-.08-.03-.05.04-.03.08-.06 2.3-1.83.08-.06.05-.04.03.05.07.08 14.05 18.77.06.08.03.04-.04.04zm-41.76 17.2l.05.08.05.09.26.43.05.08.05.08.27.41c.09.14.18.27.27.39.1.13.19.26.28.38 1.97 2.61 4.67 4.27 8.13 3.67l.03-.01h.05l.07-.02.07-.01c.11-.02.23-.05.35-.07v-.01l.07-.01.07-.02c.11-.03.23-.06.36-.1 6.78-1.97 9.75-7.38 5.77-14.25l-7-12.09-.06-.09-.02-.04-.05.02-.09.05-2.77 1.51-.09.05-.05.03.03.05.05.09 7.09 12.23c.39.68.77 1.38 1.06 2.12.63 1.61.65 3.39-.45 4.8v.01h-.01c-.03.04-.07.09-.11.14-.04.04-.08.09-.12.13-.2.24-.44.46-.71.67v.01c-.05.04-.11.08-.16.12-1.48 1.12-3.58 2.01-5.42 1.54-.28-.07-.55-.17-.81-.3h-.01a1.78 1.78 0 0 1-.13-.07c-.04-.02-.09-.04-.13-.07h-.01l-.03-.02-.04-.02c-.06-.03-.11-.07-.17-.1l-.01-.01c-1.28-.8-2.14-2.07-2.87-3.34l-7.13-12.3-.05-.09-.02-.04-.05.02-.09.05-2.77 1.51-.09.05-.05.03.03.05.05.09 7.01 12.09v.01zm-25.57 19.21l9.01-2.68.1-.03.05-.01-.02-.06-.03-.1-.71-2.26-.04-.1-.01-.05-.05.01-.1.03-2.84.85-5.5-17.34 2.83-.84.1-.03.05-.02-.01-.05-.03-.11-.72-2.26-.03-.09-.02-.05-.05.01-.1.03-9.01 2.68-.1.03-.05.02.01.05.04.1.72 2.26.03.1.01.05.05-.01.1-.03 2.84-.85 5.5 17.34-2.83.84-.1.03-.05.02.01.05.03.11.72 2.25v.01l.03.1.02.05.05-.02zm-8 2.08L231 389.41l-.11.02h-.05l-.01-.05-.02-.1-.44-2.84v-.03l-.01-.02.01-.02.02-.03 11.54-19.5-13.55 2.27-.11.01-.05.01-.01-.05-.02-.11-.42-2.71-.02-.1-.01-.05.06-.01.1-.02 17.48-2.91.1-.02.06-.01v.05l.02.11.43 2.76.01.03v.02l-.01.02-.02.03-11.66 19.59 14.57-2.43.11-.02.05-.01.01.06.02.1.42 2.71.02.11.01.05-.06.01zm-26.77 3.33l-3.93-.06h-.1l-.01-.03-.03-.05-10.72-20.34-.3 20.11v.16h-.16l-2.97-.05h-.16v-.05l.01-.11.34-23.18v-.1l.01-.06h.05l.11.01 4.91.07h.1l.01.02.03.06 9.75 18.52.28-18.3v-.16h.16l2.97.04h.16v.16l-.35 23.18v.11l-.01.05h-.05zm-36.81-11.64l5.46-10.09 2.37 11.19-7.83-1.1zm-8.24 8.38l3.34.46.08.02h.03l.02-.03.04-.07 3.19-5.97 10.02 1.39 1.36 6.61.01.07.01.04.04.01.07.01 3.19.44.15.02.08.01-.02-.07-.03-.15-5.24-24.15-.02-.07v-.03l-.04-.01-.07-.01-4.2-.59-.07-.01h-.04l-.02.03-.03.07-11.97 21.75-.07.13-.04.07.08.01.15.02zm-15.85-3.79l9.09 2.42.1.03.05.01.02-.05.03-.1.63-2.28.03-.1.02-.06-.05-.01-.11-.03-2.86-.76 4.91-17.48 2.86.76.1.03.05.01.02-.05.03-.1.64-2.28.03-.11.01-.05-.05-.01-.11-.03-9.09-2.43-.1-.02-.05-.02-.02.05-.03.11-.63 2.28-.03.1-.02.05.05.02.11.02 2.86.77-4.91 17.48-2.86-.76-.1-.03-.05-.01-.02.05-.03.1-.64 2.28-.03.1-.01.06.05.01zm-58.23-35.89l-.07.08-.06.08a4.98 4.98 0 0 0-.32.38H103v.01l-.06.07-.06.07-.3.39c-.09.12-.19.25-.28.38l-.26.38c-.44.65-.8 1.29-1.08 1.91l-.01.01v.01l-.03.06v.01l-.03.07c-.05.11-.1.23-.15.36v.01l-.03.07-.02.07c-.05.12-.09.24-.12.36l-.01.02c-.03.12-.07.24-.1.37a4.57 4.57 0 0 0-.07.36c-.73 3.89 2.2 7.27 5.34 9.15v.01a2.98 2.98 0 0 1 .24.14c.07.04.15.08.24.13 1.98 1.06 4.22 1.38 6.39.65l.24-.09a1.86 1.86 0 0 0 .25-.1c1.83-.75 3.38-2.24 4.64-3.69l9.2-10.57.07-.08.04-.04-.05-.04-.08-.07-2.43-1.99-.08-.07-.04-.03-.03.04-.07.08-9.31 10.69-.17.2c-.06.06-.11.13-.17.19-.28.31-.56.59-.81.84l-.04.04c-.16.16-.32.3-.48.43a4.72 4.72 0 0 1-.47.37.51.51 0 0 1-.13.09c-.04.03-.08.06-.13.09-.77.5-1.69.85-2.61.89h-.02c-.06 0-.13.01-.2 0h-.2c-2.06-.12-4.47-1.92-5.42-3.76v-.01c-.02-.05-.05-.1-.07-.15-.03-.05-.05-.11-.07-.16-.56-1.34-.31-2.78.35-4.03l.31-.52c.12-.19.25-.37.38-.56a2.22 2.22 0 0 1 .12-.16 22.47 22.47 0 0 1 .86-1.06l9.35-10.75.08-.08.03-.04-.04-.04-.09-.07-2.42-1.99-.08-.07-.04-.03-.04.04-.07.07-9.2 10.58zm-13.51-35.56l-1.86-2.49-.06-.09-.03-.04-.04.03-.09.06-9.35 6.56-6.78-9.12 9.34-6.55.09-.07.05-.03-.04-.04-.06-.09-1.86-2.5-.06-.08-.03-.04-.04.03-.09.06-19.36 13.58-.09.06-.04.03.03.05.06.08 1.86 2.5.06.08.03.05.05-.03.08-.06 7.47-5.24 6.78 9.12-7.46 5.23-.09.06-.04.04.03.04.06.09 1.86 2.5.06.08.03.04.05-.03.08-.06 19.36-13.58.09-.06.05-.03-.04-.05zm-35.13-7.98L46.7 286.9l-.05-.09-.02-.05.04-.02.1-.05 2.59-1.37.03-.02.02-.01h.02l.03.01 21.97 4.33-5.99-12.03-.05-.09-.02-.05.04-.02.09-.05 2.49-1.32.09-.05.05-.02.03.05.04.09 7.73 15.51.05.09.02.05-.04.02-.1.05-2.52 1.34-.03.01-.02.01h-.02l-.04-.01-22.09-4.41 6.45 12.94.04.09.03.05-.05.02-.09.05-2.48 1.31-.1.05-.05.03-.02-.05zm-13.71-29.17c-1.52-2.78-2.25-6.08-1.88-9.25v-.01l.01-.09.01-.1c.02-.16.04-.32.07-.47v-.01l.02-.09.01-.09c1.8-9.61 17.19-12.92 22.57-4.67.9 1.37 1.55 3.01 1.97 4.93v.01c.02.09.04.18.05.27l.06.28c.08.47.15.96.19 1.45l.03.29c0 .1.01.19.02.29.13 2.15-.14 4.19-.66 6.29l-.01.07-.01.03-.03.01-.06.01-3.66.86-.1.02-.06.01-.01-.05-.02-.11-.06-.27-.01-.04v-.02l.01-.01.01-.04c.05-.09.09-.19.15-.3.47-1.05.9-2.14 1.16-3.27.41-1.87.36-3.74-.05-5.6v-.04l-.01-.02c-.74-3.34-3.07-5.87-6.83-6.25l-.11-.01-.51-.03c-.16-.01-.34-.01-.51-.01-4.54.06-9.71 2.41-10.53 7.38v.01c-.03.15-.05.31-.07.48-.15 1.43.08 2.91.5 4.29a2.94 2.94 0 0 0 .08.28c.42 1.28 1.02 2.59 1.78 3.7l5.42-1.27-1.28-5.94-.02-.1-.01-.06.05-.01.1-.02 2.71-.64.11-.02.05-.01.01.05.03.11 1.95 9.08.02.1.01.06-.05.01-.1.02-9.95 2.33-.07.01-.03.01-.02-.03c-.92-1.19-1.72-2.46-2.44-3.79zm-7.62-24.07l-.64-3.76-.01-.07-.01-.03.03-.02.05-.04 18.66-14.17-20.37 3.61-.1.02-.06.01-.01-.05-.01-.11-.48-2.84-.02-.1-.01-.05.05-.01.11-.02 23.49-4.17.11-.02.05-.01.01.05.02.11.79 4.71.01.07.01.03-.03.02-.05.04-16.99 12.9 18.54-3.29.11-.02.05-.01.01.05.02.11.48 2.84.01.11.01.05-.05.01-.1.01-23.5 4.17-.1.02-.06.01-.01-.05zm6.01-32.16l10.92-4.24-11.21-3.43.29 7.67zm-9.44 7.1l-.12-3.28-.01-.07v-.04l.04-.02.07-.02 6.46-2.48-.37-9.81-6.62-1.98-.08-.02-.03-.01v-.04l-.01-.08-.11-3.13-.01-.15v-.07l.07.02.14.04 24.18 7.55.07.02.03.01v.04l.01.07.15 4.11v.08l.01.04-.04.01-.07.03-23.54 9.32-.14.06-.07.03-.01-.08v-.15zm24.11-26.23l.4-3.05.01-.11.01-.05-.06-.01-.1-.01-11.44-1.39 1.45-11.17 11.44 1.4.1.01h.06v-.05l.02-.1.39-3.06.02-.11.01-.05-.06-.01-.1-.01h-.01l-23.68-2.88-.11-.01-.05-.01-.01.05-.01.11-.4 3.06-.01.1-.01.06h.06l.1.01 9.14 1.12-1.45 11.16-9.14-1.11-.1-.01-.06-.01v.05l-.02.11-.39 3.05-.02.11v.05l.05.01.11.01 23.68 2.88.11.02h.05l.01-.05z"/><path d="M377.9 118.22c-.49.45-.69.38-1.27.66-.6.28-1.37.74-1.78.83l-1.67.31c-1.44.29-1.84 1.28-1.74 2.59.07.85-.08 2.01-.59 2.5-.81.77-2.01 1.29-3.1 1.48-.63.12-.9.09-1.51.2-1.48.28-1.16.48-.35 1.33.77.8 1.51 1.32 2 2.23.61 1.13.08 1.98-1.08 2.35-2.22.69-5.31-1.06-7.51-1.24-1.05-.08-2.12-.51-3.11-.86-.56-.2-.7-.34-1.21-.54-1.14-.45-1.24-.06-1.05.95.1.51-.56 1.73-.96 2.1-.41.4-.89.59-1.21.89-1.52 1.46.52 2.52 1.48 3.54.71.74 1.22 1.77.39 2.56-.7.67-2.32.65-3.18.27l-2.56-.98c-1.41-.55-2.54.15-3.02 1.53-.33.94-1.02 1.63-1.98 1.89-.65.18-.99.29-1.66.25-.42-.03-.63.05-.98-.09-1.33-.55-2.54-1.04-3.57-2.16-.72-.78-1.23-1.37-1.51-2.45-.15-.56.07-3.36-.2-3.64.15-.14-.04-2.31 0-2.74.12-1.2.84-1.42 1.78-1.51 1.43-.14 2.38-.26 3.84.12l2.15.68c1.12.44 3.4 1.64 4.49.55.25-.26.64-1.11.77-1.52.28-.87.61-1.43 1.43-1.62 1.06-.26 2.25-.33 3.33-.4l.84-.04c1.55-.01 3.28.93 4.79 1.28 1.34.31 2.31.86 3.95 1.09.39.06 1.1.11 1.61.04 1.4-.2.53-.98-.05-1.47-.84-.71-2-1.43-2.98-1.95-1.82-.96-3.45-2.37-5.17-3.49-.85-.55-1.33-.75-2.06-1.33-1.19-.95-2.23-1.72-3.28-2.83-.96-1-1.73-1.45-2.54-2.27-.19-.19-.36-.38-.53-.6.04-.03.07-.06.1-.09-.03-.04-.07-.07-.09-.1.39-.32 1.87.38 2.6.53.5.11 1.05.29 1.49.54.44.26.61.34.99.65a3.07 3.07 0 0 0 .56.36c1.09.55 1.82 1.15 2.92 1.72 1.92.99 3.92 3.65 6.11 3.97.62.09 1.31-.11 2.27-.13.54-.01 1.15-.08 1.67-.21.86-.22 2.68-2.09 2.38-3.07.16-.26-.02-.69-.25-1.05-.32-.49-.37-.68-1.04-.84-.34-.07-1.79.11-2.59.2-1.55.19-1.63.11-3.58.12-.41 0-.81-.02-1.15-.16-.3-.13-.54-.24-.76-.38-.66-.42-1.16-.98-1.05-1.82.12-.96.84-1.78 1.41-2.54a4.97 4.97 0 0 1 .57-.64l.2-.19c.67-.64.73-1.07 1.15-1.97.33-.71.69-.23 1.13.18.69.64 1.33 1.22 1.56 2.39.11.57-.06 1.5-.17 2.08-.07.4-.06.85.57 1.18.55.29 1.65.24 2.46.22 1.22-.02 1.7-.44 2.92-.73l1.91-.44c1.22-.33 2.12-.91 3.17-1.29.49-.17 1.1-.24 1.68-.19 1.91.19 2.56 2.17 1.42 3.21zm-43.95-.99c.06-.9 1.08-1.79 1.8-2.22.51-.3 1.03-.45 1.65-.69 1.1-.43 1.7-.93 2.9-1.14.18-.03.34-.07.49-.12.94-.34.8-.48 1.22-.04-.01.01.01.12.05.29l.16.86c.07.4.11.81.07 1.08-.1.64-.41 1.37-.7 2.11-.32.82-.83 1.99-1.29 2.75-.49.81-1.44.67-2.24.65-.67-.02-1.63-.21-2.02-.62l-1.52-1.45c-.41-.42-.62-.77-.57-1.46zm14.62-3.8c-.09-.55.35-1.14.85-1.67.51-.54.97-.84 1.57-1.31.62-.49 1.23-.87 1.94-1.29l.74-.44 1.13-.72c1.12-.79 1.72-1.45 2.13.46.13.61.18 1.29.15 1.86-.03.56-.11 1.17-.22 1.64-.17.74-.4 1.31-.81 1.84-1.22 1.58-3.85 3-5.79 1.82-.69-.42-1.57-1.41-1.69-2.19zm-27.62-11.24c.28-.62.79-.66.89-1.34.06-.47.28-.87.37-1.32.07-.36.06-.7.16-1.07.11-.4.25-.62.35-1.05.1-.45.05-.95-.02-1.36-.02-.14-.03-.28-.01-.31-.17-.12.13-.83.26-.93.16-.12.32-.06.68.13.57.3 1.05.92 1.38 1.51.35.64.8 1.32 1.24 1.98.34.51.45.85.6 1.6.08.43.2 1.23.18 1.9-.01.89-.33 1.82-1.22 2.23-.17.08-.37.14-.62.2-.75.17-1.96-.29-2.64-.66-.46-.25-.9-.47-1.32-.79-.25-.19-.41-.42-.28-.72zm-17.23-12.01c-.14-.26-.25-.46.32-.93.5-.4 1.62-1.14 2.18-1.19 1.45-.13 2.48-.35 3.89-.76a2.23 2.23 0 0 0 .62-.28c.91-.57 1.51-.91 2.5-1.31l2.3-.93c.59-.19.84-.57.76-1.18-.05-.36-.22-.46-.46-.71-.3-.31-.45-.67-.57-1.16-.12-.53-.2-.94-.46-1.42-.14-.25-.26-.56.07-.91.17-.17.33-.15.5-.05.46.25.96.29 1.4.59.67.45 1.52.45 2.24.77.83.37.61.05 1.66.01 1.18-.03 1.83.3 2.51-.7.3-.44 1.06-.66 1.47-1.11.73-.79 1.58-1.46 2.31-2.23.36-.38 1.91-1.4 1.92-1.6l.28-.41c.28-.4.2-.58.26-1.1.03-.29-.04-.42.19-.62.67-.61 1.58-.18 2.07.45.38.49.85.77 1.16 1.34.11.19.24.7.32 1.18.21 1.38-.21 1.19-.88 2.36l-.64 1.06c-.49.72-1.31 1.32-1.27 2.23.96.66 2.01.51 2.97 1.52.43.45 1.03.57 1.51 1.14a5.56 5.56 0 0 0 1.33 1.17c.48.33.82.9.86 1.61.06 1.04-.02 1.71-.62 2.17-.25.19-.56.16-.86.24-.74.19-3.45-.32-4.09-.4-.69-.09-1.3-.42-1.99-.52-1.78-.23-3.86-1.09-5.57-.73-.92.19-1.86.3-2.69.79-.59.35-.79.84-1.47 1.09-1.25.44-2.56.43-3.83.74-1.66.39-3.25.29-4.87.59-1.29.23-1.63-.03-2.76.18-.51.1-.98.13-1.51.06-.67-.1-2.29-.22-2.69-.6-.13-.12-.26-.25-.37-.44zm-16.54-10.92c-.25-.36-.4-.71-.74-1.01-.2-.18-.49-.62-.58-.87-.08-.23-.14-.47-.2-.7l-.41-1.09c-.16-.32-.4-.8-.79-.85-.17-.02-.47 0-.77.02-.28.01-.74.07-.94-.03l-.38-.18c-.14-.06-.2-.03-.27 0a1.05 1.05 0 0 1-.39-.05c-.05-.02-.11-.08-.28-.27-.13-.15-.26-.31-.25-.34-.15-.07-.4-1.02-.36-1.1.09-.19.31-.19.53-.23.31-.06.47.02.75-.07.06-.01.11-.04.17-.08.55-.35.76-.38 1.1-1.11.1-.22.3-.72.55-.77.07-.01.15.02.29.05l1.28.3c.72.18.99.19 1.67-.01 1.21-.34 2.71-.8 3.59-1.74.35-.37.63-.47.86-.97.36-.76-.4-1.66-.54-2.41-.25-1.35-.5-1.78-1.06-2.96-.25-.52-.28-.92-.44-1.58-.17-.66.03-1-.62-1.21-.59-.18-2.03.3-2.65.45-.21.06-.44.16-.66.26-.32.14-.75.28-1.21.42l-3.04.74c-.67.18-1.31.36-1.94.66-.48.23-.81.48-1.04.84-.32.48-.51 1.05-.82 1.54-.34.55-.63 1.26-.92 1.85-.49.97-1.99 2.42-2.76 3.04-.72.59-1.75 1.36-2.68 1.6-.49.13-.64.38-.93.56-.48.31-.88.11-1.36-.04l-.58-.18c-.37-.12-.98-.46-.76-.92.04-.11.15-.21.26-.31.37-.32.56-.38 1.07-.36.14.01.28.03.39-.02.65-.28 1.51-1.2 2.08-1.63.61-.46 1.23-1.28 1.56-1.98.2-.42 1.34-1.71 1.24-2.26-.04-.25-.42-.19-.56-.15-.13.04-.26.13-.44.17-.43.1-.93.08-1.34.24-.33.13-.63.26-.98.33-.62.12-.74.22-1.19.55-.1.08-.21.15-.38.26-.3.18-.68.14-.98 0-.44-.21-.64-.09-.89-.21-.08-.03-.15-.07-.22-.1-.29-.14-.56-.27-.42-.57.09-.2.34-.34.59-.46.29-.14.61-.37.88-.56.41-.29.83-.54 1.28-.75.55-.26 1.11-.36 1.64-.59.4-.18.45-.29.94-.25.19.01 1.9-.55 2.12-.7.08-.05.18-.13.28-.2.21-.15.38-.19.52-.24.48-.14 1.08-1.27 1.3-1.72.03-.08.07-.16.11-.24.25-.53.6-1.24.56-1.74-.02-.18-.2-.3-.44-.4l-2.24-.85c-.96-.45-1.08-.17-1.6-1.62l-.17-.53c-.17-.52-.28-.63.17-1.13.11-.12.24-.22.41-.25.46-.1 1.04-.34 1.5-.14.59.25 1.91.19 2.57.23.08.01 1.68-.19 1.76-.23.42-.22.43-.73.65-1.22.22-.46.65-1.86 1.05-2.08.41-.22.54-.17.74-.61.15-.32.59-.36.89-.22.53.25.78.36.75 1.04-.01.21-.08.8 0 .99.16.39.35.48.77.31.8-.34 1.24-.31 2.08-.27.48.02.41.31.35.7-.13.85-.37 1.77-.87 2.49-.13.19-.32.33-.52.44-.2.12-.31.17-.42.39-.14.29-.43.31-.69.47-.31.19-.91.35-1.34.55-.38.18-1 .85-1.17 1.21l-.5 1.08c-.09.21-.33.71-.39 1.08-.12.75.34.58.69.46.95-.3 2.13-.39 3.13-.63l2.79-.65c.85-.2.93-.19 1.53-.57.77-.5 1.06-.93 1.61-1.62.4-.51.73-1.09.92-1.71a2.99 2.99 0 0 1 .81-1.3c.43-.41.72-.88 1.21-1.24.62-.46 1.2-1.17 1.76-1.72.44-.41.41-.51.96-.87.73-.49.81-.6 1.71-.7.24-.02.47-.01.66.08.7.35 1.17.8 1.99.8.36.01.56-.08.94-.1.97-.04 1.66.05 1.42 1.18-.07.32-.19.27-.33.56-.24.52-.39.68-.81 1.08-.44.41-.73.57-.99 1.14-.46.98-2.22 2.51-3.17 3.03-.53.28-1.15.44-1.63.79-.39.28-.57.56-.89.87l-.42.34c-.29.22-.92.42-1.06.73l-.17.32c-.3.62-.14 1.19.03 1.84.22.82.66 1.68 1.03 2.44.64 1.34 1.3 3.42 1.23 4.9-.07 1.6-1.04 2.39-2.03 3.45-.59.64-1.32.91-1.92 1.45-1.14 1.03.07 1.96.94 2.71.43.37.77.74.96 1.29.23.66.16.86-.12 1.44-.29.63-.63 1.11-1.06 1.66-.19.24-.71.48-.99.57-.38.12-.47.22-.73.51s-.57.5-.98.43c-.28-.04-.33-.15-.5-.35-.24-.28-.56-.53-.78-.81-.31-.39-.64-.89-.92-1.3zm-45.33-11.61c-.1-.11 0-.26-.02-.53-.02-.28-.09-.46-.03-.69.13-.51.35-.99.48-1.5.25-1 .7-1.96.95-2.96l1.22-4.58.84-3.96c.34-1.34.27-1.99.48-3.13.09-.53.28-1-.27-1.13-.48-.13-.81.01-1.32.29l-3.04 1.78c-.96.59-2.62.75-3.72.47-.48-.13-.7-1.06-.84-1.51-.41-1.29.91-3.55 1.52-4.7.55-1.06 1.15-2.17 1.5-3.27.17-.55.45-.89.21-1.6-.09-.26-.37-.49-.56-.72-.58-.69-.11-1.95.09-2.74.17-.68.52-1.39.82-2.03.44-.93 1.07-1.77 1.32-2.75.19-.78-.05-1.37.02-2.1.04-.44.48-.81.88-1.08.75-.49 2.17-.6 3.04-.38.59.15.81.33 1.06 1 .54 1.42-.76 2.17-1.14 3.27-.16.45-.45.85-.71 1.28-.42.66-.57 1.42-1.1 1.97-.18.18-.36.35-.47.79-.15.61-.41.62-.02 1.19.27.38.63.39.85.79.34.63.14 2.02.01 2.53-.26.97-.88 1.64-1.42 2.44-.25.37-.63.92-.65 1.32-.06 1.24 2.8.03 3.19-.03 1.57-.25 1.94-.79 2.17-1.59.2-.69.19-1.15.36-1.86l.8-3.16.79-3.13.56-2.19c.2-.77.63-1.32.85-2.17.15-.61.55-.83.71-1.49.1-.39.36-.85.87-.88.3-.02.42-.15.66-.17.23-.01.44.02.66-.09.49-.23.47-.35.81-.29.28.04.29.29.4.56.09.21.12.44.08.64l-.4 1.88-.16.7-.43 2.11c-.49 1.93-.57 3.93-1.05 5.83l-.44 1.76c-.18.72-.07 1.03.68 1.09.74.05 1.74-.8 2.26-1.2.56-.44.66-.98.84-1.69.08-.33 0-.55.09-.83.1-.31.04-.67.37-.83.37-.19.46-.83.96-.14.06.09.23.54.27.67.34 1.11.27 1.9.36 3.02.17 2.1-1.63 2.48-3.02 3.39-.95.63-2 .88-2.88 1.63-.13.11-.26.26-.37.43-1.6 2.3-1.83 5.78-2.56 8.7l-.94 3.7c-.06.25-.1.56-.27.76-.41.47-.62.98-1 1.49-.4.56-.49.94-.84 1.5-.16.25-.34.46-.49.67-.38.52-.73 1.2-1.02 1.78-.27.53-.62 1.91-1.43 1.7l-.21-.05c-.19-.05-.22.07-.4.16-.35.17-.54.17-.81-.14zm-16.23-11.47c-.32-.87-.15-1.55.07-2.44.14-.54.05-1.14-.68-.95-.35.09-.71.3-1.03.53-.77.53-3.16.89-2.75-.75.12-.44.79-1.32 1.19-1.71 1.11-1.08 1.82-2.63 2.87-3.79.59-.63 1.01-1 1.27-1.71.22-.63.64-.91.79-1.48.14-.58-.7-.42-1-.32-1.28.41-2.46.62-3.75.93-.9.22-1.83.59-2.79.46-.75-.1-1.36.3-2.08.12-.49-.13-1.49-.78-1.55-1.38-.1-1.05 1.27-1.13 2.08-1.33.56-.14 1.25-.55 1.82-.65.95-.16 1.69-.24 2.6-.57 1.19-.42 2.54-.52 3.77-.91.73-.23 2.31-.76 2.63-1.57.24-.6.35-.83.87-1.29.27-.23.87-.28.88-.31 1.09.28 2.37-1.1 3.39-1.18.42-.03.85-.33 1.27-.23.34.09.97.13.93.6-.03.41-.02.64-.19 1.1-.39 1.07-1 1.77-1.79 2.55-.85.85-1.81 1.19-2.14 2.52-.15.58-.13.89-.26 1.4-.3 1.18-.9 1.88-1.15 2.88l-1.81 8.07c-.19.75-.48 2.05-1.27 2.32-1.03.33-1.81.09-2.19-.91zm4.56-25.08c.17-.68.12-1-.08-1.69-.17-.55-.38-.52-.29-1.1.05-.26.18-.57.42-.7.18-.11.7-.18.86-.14.05.02.18.01.34-.01l.33-.07c1.22-.3 1.11-.88 2.37-.28l.45.2c1.67.66 1.48 1.44 1.43 2.72-.02.41-.01.76-.32 1.21-.06.08-.13.15-.21.21-.32.23-.73.17-1.12.07-.55-.14-.99-.08-1.57.23-.61.33-1.71.5-2.39.33-.53-.14-.37-.41-.22-.98zm-45.82 28.02c0-.08.13-.18.14-.26 1.63.05 3.32-.98 4.49-1.98 1.59-1.36 1.82-2.22 2.71-3.9l.84-1.44.01-.48c-.32-1.13-2.12-1.34-3.06-1.37-.93-.02-2.35.06-3.17-.08-1.13-.19-2.05-.38-3.03-.67-.39-.11-.8-.29-.8-.49-.34-.01.01-.4.37-.59l1.43-.85 1.03-.65c.73-.5 1.89-1.27 2.89-1.61.64-.21 1.09-.2 1.67-.52.5-.28 1.06-.83 1.4-1.31.91-1.28.48-1.15.1-2.4-.37-1.2-.47-2.03-.43-3.22.05-1.7-.84-1.66-2.1-1.7l-3.07-.09v-.11c-.29-.01-.64-.25-.91-.57-.59-.68-.79-1.85-.72-2.73.08-1.19.8-2.21 2.19-2.17l2.79.19c.73.04 1.21-.29 1.98-.27.53.02 1.02-.27 1.53-.51 1.73-.83 3.26-.59 4.17 1.51a5.79 5.79 0 0 1 .27.8c.26.89.08 1.53-.13 2.22-.41 1.37-.49 2.3-.53 3.73-.02.77-.05 2.93.61 3.69.47.55 1.77.63 2.91.62 1.38 0 2.16-.02 3.36.95 1.26 1.03 2.06 2.67.95 4.16a3.04 3.04 0 0 1-1.97 1.22c-1.24.22-2.44.58-3.37 1.52-.5.5-.57 2.06-.68 2.06-.05 1.98-.71 3.5-1.9 5.02-2.22 2.84-6.76 2.68-9.98 2.61-1.01-.02-2-.09-1.99-.33zM158.34 71.6c-1.36-.45-2.41-1.18-3.25-2.38-.27-.39-.52-.82-.91-1.1-.8-.56-2.1-.65-2.75.21-.23.3-.38.48-.56.6-.46.3-1.1.5-1.72.6-2.04.31-3.3-1.74-4.39-3.15-1.03-1.36-1.94-2.45-2.32-4.13-.08-.32.06-.79.33-1.09.3-.34.13-.63.26-.97.15-.39.74-.75.91-1.06.24-.44.75-.65 1.24-.58.61.13 1.22.59 1.45.54.37.41.42.94.54 1.47.19.83.55 2.14 1.27 2.62.5.33 1.04.85 1.1 1.13.22-.05.51.34.74.74.38.69.94 1.45 1.67.35.15-.06.23-.52.4-.84.29-.53.35-.24.14-1.02-.11-.4-.26-.81-.38-.79-.1-.46-.66-.44-1.04-.56-.14-.05-.28-.14-.34-.4-.17-.75.36-.77.32-1.42-.03-.47.11-.9.18-1.31.07-.44 0-.74-.33-1.03-.35-.32-.45-.43-.86-.09-.24.2-.66.27-.96.33-.43.08-.89.09-.96-.25-.03-.11.04-.23.13-.31a16.09 16.09 0 0 0 .86-1.03c1.04-.78 1.83-1.69 3.15-2.08l1.82-.53c2.42-.65 5.52-.83 7.82.38.39.21.73.59.63 1.06-.08.38-.33 1.18-.62 1.48-.9.92-1.21 2.51-1.75 3.62l-1.23 2.28c-.33.76-.91 1.42-1.03 2.17-.08.54.06 1-.03 1.5-.02.1-.08.47-.08.78.02 1.02 1.79 1.19 2.52 1.13.94-.09 1.36-1.04 2.12-1.45.84-.46 2.07-.96 3.06-.96.91-.01.89.9.96 1.51.04.38-.22.62-.34.96-.17.49-.11.41-.53.79-.51.44-1.28 1.18-1.41 1.4-.29.45-1.07.95-1.54 1.09-1.83.55-2.6.34-4.29-.21zm-19.2-14.12c-.9-.41-2.54-.62-2.96-1.66-.04.01-.07.02-.1.02-.29-1.28-.5-2.51-.47-3.77.03-1.81.31-3.51.63-5.29l.64-3.24c.08-.37.1-.5.12-.88.02-.31.08-.65.18-.67.14-.35.51-.2.69-.04.11.11.76.81.5.95.21.97.56 2.15 1.25 2.88.37.4.43 1.3 1.15 1.16.96-.18 1.46-1.05 2.27-1.61.2-.14 1.04-.43 1.39-.83.43-.49 1.08-1.5 1.65-1.92.77-.59.92-1.47.78-2.36-.17-1.11-.54-2.1-.78-3.18-.2-.9-1.54-1.06-2.18-1.48-.64-.43-1.29-.99-1.73-.89-.43-.2-.23-.45-.07-.75.29-.06.6-.33.8-.63.01-.18.97-1.05 1.2-1.14.15-.06.31-.09.46-.16 1.21-.54 1.71-1.43 2.57-1.79.35-.14.4-.21.75-.32.89-.31 1.75-.57 2.65-.13.2.1.32.24.43.39.06.08.15.13.25.15 1.47.24 1.41 2.58.85 3.51-.32.53-.81 1-1.42 1.44-.77.54-1.68 1.63-1.45 2.64l.15.66c.1.44.17 1.07.65 1.23.72.22 2.32-.13 3.04-.3.37-.08.59-.36.91-.55 1.53-.92 3.5-1.5 5.27-1.64.44-.04.48.19.9.07.29-.09 1.26.14 1.77.42.35.21 1.04.63 1.15 1.08.26.07.3 1.27.04 1.31 0 .23-.64.99-.73 1.04-.03.27-.79.14-1 .18-.23.05-.46.03-.54-.38-.16-.87-.91-.45-1.35-.58-2.45.46-4.97 1.09-7.29 2.02-.42.16-.87.42-1.12.71-.51.6-.25 1.98-.11 2.7.13.71.21 1.08.75 1.51.57.46 2.78.95 3.53.78.18.13 1.06.2 1.49.74.08.37.19.7.35 1.08.11.28-.26.85-.49.9-.41.09-.6.32-.9.48-.48.23-.79.7-1.33.84-.17.04-.35.06-.36.03-.28.06-.29-.53-.26-.71.21-.28.4-.59.07-.91-.28-.29-.47-.29-.82-.21-.44.1-1.66 0-1.72.6-.03.25-.02.39-.03.64-.02.61-.05 1.01-.62 1.14-.33.08-.63.22-.96.27-.63.1-.6-.11-1.05-.16-.18-.69-.15-.77.11-1.41.13-.31-.05-.24-.1-.44a.898.898 0 0 0-.33 0c-.36.07-.32.22-.51.41a.69.69 0 0 1-.29.18c-.28.06-.47.02-.48-.31-.02-.49 1.03-1.27 1.22-1.63s.11-.88.04-1.33a8.46 8.46 0 0 0-.5-1.99c.27-.36-.98-.13-1-.13-.6.45-.87 1.23-1.34 1.76-1.28 1.47-2.32 2.75-3.1 4.43-.12.24-.15.4-.21.65-.09.39-.34.93-.38 1.23-.11.82-.06 1.55-.56 2.29-.2.29-.53.74-.91.83-.43.09-.71.25-1.1.07zm15.27.42c-.14.02-.25-.07-.38-.04l-.12-.52c0-.04.11-.16.3-.28l1.55-.35c.47.2.44.48.16.72-.45.31-.96.42-1.51.47zm-33.02 23.85c-1.14.54-3.31 1.58-4.61 1.4-.35-.05-.63-.37-.17-.78l.82-.7c.53-.46.73-.77 1.26-1.23.31-.27.8-.74.83-1.17.01-.24-.09-.49-.04-.99.14-1.37-.44-2.05-1.2-3.27-1.27-2.04-2.77-4.26-4.84-5.54-.39-.24-.79-.49-1.12-.78-.61-.52-.51-.65-1.27-.85-.33-.08-.65-.07-.62.65.02.79-.57 2.57-.69 3.01-.38 1.36-.22 2.6-.15 3.96.05.95.37 2.45.3 3.28-.05.57-.46 1.18-.89 1.54-.91.79-1 .87-1.93.69-.61-.12-1.5-.25-1.73-.25-.42 0-1.05.13-1.56.26-.91.22-2.07.71-2.3 1.62-.02.09-.03.18-.02.28.05.66.55 1.23.9 1.84.76 1.29 1.48 2.36 1.64 3.95l.13 1.57c.13.98.28 1.58.14 2.67-.16 1.34-.55 1.55-1.31 2.43-.61.72-1.81.28-2.41-.25a3.22 3.22 0 0 1-.61-.76c-.36-.61-.32-1.03-.58-1.69l-1.92-4.67c-.65-1.71-1.96-3.34-2.99-4.86l-1.66-2.47c-1.03-1.35-2.28-1.32-.99-2.43l.35-.31c-.04.11.45.13.8.07 1.09-.19 1.66-.23 2.91.26.62.24.85.7 1.43.92 1.2.43 1.53-.75 1.97-1.71.45-.97.31-1.84.21-2.84-.07-.71-.19-1.63-.09-2.32.14-1.01 1.1-2 1.83-2.63.48-.42 1.14-1.41 1.82-1.14.7.27 1.47.98 1.91 1.66.61.93.9 2.81 1.56 3.58.66.76.92 0 .75-.79-.14-.68-.36-1.28-.28-1.96.09-.76-.11-1.51-.01-2.25l.11-.95c-.13-2.2.19-3.78.52-5.9.12-.76.46-2.78.89-3.16.24-.21 1.4-.51 2-.41 1.17.17.81.38 1.93 1.26l.96.8c.95.75 1.78 1.49 2.68 2.41 1.61 1.65 3.12 3.45 4.42 5.26.84 1.16.97 1.75 1.78 2.89 1.08 1.54 1.71 3.2 2.58 4.52.55.84.9 1.38.44 2.54-.71 1.83-2.18 2.92-3.88 3.74zm-27.73 12.3c-.09.05-.18.08-.28.12-.55.24-.52.13-1.07.18l-.58.09c-.74.16-.96-.1-1.52-.13-.38-.02-.86-.28-1.09-.57-.06-.07-.1-.14-.15-.21-.21-.34-.58-1.39-.52-1.78.05-.29.26-.55.24-.88-.12-1.48 1.4-3.11 4.63-2.9.33.03.91.32 1.12.52.06-.05.71.6 1.02.71.4.15.4.27.88.2l.24-.03c.24-.02.28-.03.46.18.21.25.2.4-.02.59l-.41.36c-.21.15-.93 1.5-1.08 1.69.03.03-.63 1.08-.81 1.23-.4.35-.7.45-1.06.63zm-17.81 44.07l-1.79-2.02c-.69-.89-.88-1.51-1.73-2.31-.02.03-.04.05-.06.08-.38-.55-.95-.61-1.32-.84l-.29.31c.13.12.04 1.51-.01 1.74-.05.24-.1.5-.08.72.05.58.59 1.94.11 2.45.16.15-.37.83-.54 1.01l-.65.7c-.03-.02-.05-.05-.08-.07-.31.34-1.74-.25-2.03-.52-.22-.2-.52-.39-.47-.62.06-.3.14-.26-.15-.53-.31-.29-.25-.9-.27-1.36l-.07-1.76c-.06-.77-.41-.88-.33-1.82.07-.73-.45-1.48-.53-2.26-.12-1.22-.52-2.21-.84-3.41-.21-.78-.37-1.48-.31-1.55-.44-.42-1.17-2.1-1.34-1.26-.5.53-.68.73-.9 1.4-.09.27-.2.69-.27 1.06l-.19 1.46c-.1.72-.1 1.17-.11 1.8l.01 1.57c.03.37.2.84.19 1.06-.04.69-.29 1.81-.73 2.34-.48.59-.7 1.07-1.04 1.53-.39.54-.73.97-1.32 1.41-.43.31-.95.5-1.34.65-1.14.42-1.15-.93-1.1-1.63.03-.49-.05-.88-.03-1.4l.19-2.23c.04-.95.03-2.11.34-3.02.22-.67.2-1.85.41-2.51.37-1.15.33-1.56.49-2.75.23-1.83.48-3.37.2-5.28-.14-.95-.84-1.38-1.54-2.03-.79-.74-1.11-1.31-1.92-2.06-.67-.63-.86-1.08-1.46-1.88-.85-1.12-1.46-2.01-2.46-3.02-.13-.14-.98-.89-1.09-.78-.7-.65-1.48-1.2-1.42-2.3.02-.39-.11-.95-.08-1.33.02-.12.1-.34.16-.53.49-1.62 1.46-.92 1.87-1.36.08.08.27.08.48.09.71.03.84.16 1.34.63l3.1 2.73c.7.66 1.03 1.23 1.69 1.86.55.53 1.06 1.04 1.83 1.19.52.1.72.07.93.15.86.33 2.04 1.46 2.64 2.13.93 1.03 1.72 2.12 2.57 3.17 1.7 2.1 3.32 4.8 5.31 6.66-.02.03-.04.05-.06.07 1.51 1.42 2.42 2.57 3.82 4.15l2.66 3.01 3.11 3.4c-.03.07.24.35.54.62.58.54 1.48.91 1.7 1.78.18.68-.24 1.38-1.04 2.31-.86.99-1.65.93-2.26.73-1.29-.42-1.49-.55-2.44-1.53zm10.52-22.78c-1.38 1.06-2.41 2.31-4.14 2.89-.65.21-2.01-.26-2.59-.58l-.71-.43c-.69-.43-1.32-.89-1.98-1.38-.56-.41-1.15-.75-1.78-1.31-.19-.16-.4-.25-.62-.02-.2.22-.14.89.01 1.03-.18.19 1.07 4.66 1.14 5.1.13.76-.05 1.4.07 2.11.17.94.23 1.74.26 2.63.01.17 0 .36-.08.55-.32.81-1.04.63-1.66.46-1.21-.32-1.33-.75-1.97-1.99-.21-.43-.42-.93-.33-1.03a17.89 17.89 0 0 1-.64-2.1c-.18-.83-.26-1.8-.21-2.7.03-.63-.17-1.5-.22-2.18a1.86 1.86 0 0 1 .01-.41c.13-.71-.3-.51-.72-.48-.75.04-.73.2-1.34.85-.73.78-1.87.93-2.7.15-.91-.85-1.45-2.51-1.24-3.7.11-.63.31-1.26.7-1.68.57-.61.84-2.67 1.02-3.48.33-1.41 1.19-2.39 2.58-2.87 1.03-.35 2.67-.13 3.6.44.92.56.71 1.06.7 1.99-.01.78.52 3.33.03 3.85.15.41-.09 1.23.44 1.54.25.15.39.08.53.05.66-.14 1.59.28 2.16.58l1.6.94c1.34.7 2.56.39 3.52-.74l2.76-3.35c.38-.41.46-.69.89-1.07.95-.86 2.09 1.8 2.42 2.39.37.65.02 1.35-.07 2.03-.11.76-.82 1.43-1.44 1.92zm-24.14-6.71l-1.05-.93-1.3-1.14c-.54-.53-.92-1.06-1.36-1.65-.35-.48-.62-1.02-.75-1.57-.27-1.14-.17-1.19.37-2 .34-.51.56-.98 1.14-1.52.4-.37.83-.67 1.4-.85 1.03-.31 1.94.19 2.59.8.41.38.71.94.66 1.6l-.16 1.56c-.04.31-.04.73-.08 1.11-.05.65-.32 1.03-.34 1.7-.01.42-.34 1.76-.46 2.11-.25.72-.34.89-.66.78zm-9.45 52.91l-6.1-1.72 1.72-6.09 6.09 1.71zm33.08 161.5c3.35-2.18 6.55-2.99 9.62-2.42 3.06.57 5.52 2.28 7.37 5.12 1.21 1.87 1.86 3.84 1.94 5.91a10.44 10.44 0 0 1-1.5 5.84c-1.08 1.82-2.63 3.39-4.65 4.7-2.05 1.33-4.15 2.11-6.3 2.33-2.15.23-4.13-.15-5.95-1.12a11.99 11.99 0 0 1-4.43-4.09c-1.24-1.91-1.89-3.9-1.94-5.99a10.6 10.6 0 0 1 1.55-5.85 13.55 13.55 0 0 1 4.29-4.43zm1.75 2.78c-2.44 1.58-3.93 3.48-4.48 5.7s-.18 4.32 1.1 6.29c1.31 2.01 3.09 3.21 5.35 3.58 2.26.38 4.69-.27 7.29-1.96 1.64-1.07 2.89-2.28 3.75-3.63.87-1.35 1.29-2.78 1.27-4.29s-.46-2.93-1.33-4.26c-1.23-1.89-2.93-3.1-5.12-3.61-2.18-.52-4.8.21-7.83 2.18zm47.11 48.25l9.95-21.89 7.53 3.43c1.71.77 2.96 1.47 3.76 2.09 1.12.85 1.96 1.86 2.5 3.02.71 1.5 1.01 3.14.89 4.92-.11 1.78-.62 3.64-1.5 5.59-.76 1.66-1.62 3.05-2.6 4.15-.97 1.11-1.95 1.95-2.94 2.51-.99.57-1.95.93-2.89 1.08-.94.16-1.98.13-3.11-.08-1.14-.22-2.37-.63-3.69-1.23l-7.9-3.59zm4.07-1.27l4.68 2.13c1.44.65 2.63 1.04 3.58 1.14.94.1 1.76.02 2.48-.25.99-.37 1.95-1.05 2.86-2.03.91-.99 1.74-2.31 2.49-3.96 1.04-2.29 1.46-4.22 1.27-5.79s-.73-2.81-1.62-3.72c-.64-.65-1.82-1.37-3.54-2.15l-4.6-2.09-7.6 16.72zM208.4 0h.01c57.53.01 109.63 23.33 147.35 61.05 37.7 37.71 61.03 89.8 61.04 147.34v.01c0 57.54-23.34 109.64-61.05 147.35s-89.81 61.04-147.34 61.04v.01h-.01v-.01c-57.54 0-109.64-23.33-147.36-61.04C23.33 318.04.01 265.94 0 208.41v-.02C.01 150.85 23.33 98.76 61.05 61.04 98.76 23.33 150.85.01 208.39 0h.01zm-1.09 11.86c108.25 0 196.54 88.29 196.54 196.54s-88.29 196.54-196.54 196.54S10.77 316.65 10.77 208.4 99.06 11.86 207.31 11.86zM358.2 72.97a203.25 203.25 0 0 1 24.57 33.51c3.23 5.52 6.21 11.2 8.91 17.01a202.51 202.51 0 0 1 7.29 17.93c7.2 20.5 11.2 42.51 11.37 65.44h.01v3.07h-.01c-.16 21.76-3.77 42.7-10.3 62.3a202.99 202.99 0 0 1-5.43 14.44c-8.89 21.12-21.27 40.41-36.4 57.14 34.73-35.36 56.02-83 56.02-135.41h-.01v-.01h.01c-.01-52.41-21.3-100.06-56.03-135.42zM58.6 343.82c-2.58-2.85-5.09-5.78-7.51-8.79a204.98 204.98 0 0 1-12.72-17.64c-19.94-31.04-31.61-67.9-31.9-107.45h-.02v-3.08h.02c.16-21.75 3.76-42.69 10.29-62.29a201.43 201.43 0 0 1 5.43-14.45c8.89-21.12 21.27-40.41 36.4-57.14-34.72 35.36-56.02 83.01-56.02 135.41h.01v.02h-.01c0 52.4 21.3 100.05 56.03 135.41zm149.8 2.36c-76.08 0-137.78-61.7-137.78-137.78S132.32 70.61 208.4 70.61s137.78 61.71 137.78 137.79-61.7 137.78-137.78 137.78zm0-270.6c48.76 0 91.38 26.29 114.48 65.46a130.092 130.092 0 0 0-19.58-23.85c-24.28-23.34-57.84-37.78-94.89-37.79h-.02c-37.05.01-70.6 14.45-94.89 37.79a130.092 130.092 0 0 0-19.58 23.85c23.1-39.17 65.72-65.46 114.48-65.46zm114.47 200.19c-23.1 39.16-65.72 65.45-114.47 65.45s-91.37-26.29-114.47-65.46c5.54 8.68 12.11 16.68 19.57 23.85 24.28 23.34 57.84 37.78 94.9 37.78v.01h.01v-.01c37.05 0 70.6-14.44 94.89-37.78 7.45-7.16 14.03-15.16 19.57-23.84zM208.41 81.69v.01h-.02v-.01c-34.98 0-66.65 14.19-89.58 37.12s-37.12 54.6-37.12 89.58h.01v.02h-.01c0 34.97 14.19 66.65 37.12 89.57 22.93 22.93 54.61 37.12 89.59 37.13v-.01h.01v.01c34.97-.01 66.65-14.19 89.58-37.12s37.12-54.61 37.12-89.59h-.01v-.01h.01c0-34.98-14.19-66.65-37.12-89.58s-54.61-37.12-89.58-37.12z"/><path d="M187.1 302.58l.49.57c-.26.61-.49 1.24-.7 1.9l-.54 2-1.83 7.91c-.36 1.55-.41 2.55-.16 2.98s.88.78 1.88 1.06l-.18.8-2.45-.76c-.7-.27-1.33-.56-1.91-.89-.65.04-1.36.02-2.11-.05-.76-.06-1.57-.18-2.44-.36l.19-.79c1 .19 1.71.14 2.14-.17.42-.3.84-1.35 1.25-3.15l1.4-6.08c.46-1.99.61-3.23.43-3.7-.18-.48-.67-.82-1.48-1l-.07-.02.17-.76 1.38.22.97.2.97.25.88.27.87-.27a6.35 6.35 0 0 1 .85-.16zm13.9 3.19c-.67-.06-1.24.25-1.7.91-.45.67-.74 1.62-.85 2.85-.12 1.38 0 2.5.35 3.34.35.85.89 1.3 1.61 1.37.7.06 1.29-.25 1.77-.94.47-.68.77-1.64.88-2.88.11-1.37-.01-2.47-.37-3.3-.37-.83-.93-1.29-1.69-1.35zm-5.8 16.15l-.18-.99c1.9-.36 3.5-1.09 4.8-2.19 1.31-1.1 2.16-2.43 2.54-3.99-.49.28-1.01.47-1.56.58s-1.15.13-1.8.07c-1.51-.13-2.72-.71-3.62-1.72-.91-1.02-1.3-2.25-1.17-3.68.14-1.64.9-2.95 2.27-3.93s3.04-1.38 5-1.21c1.87.16 3.35.91 4.42 2.23s1.53 2.96 1.35 4.94c-.24 2.75-1.4 4.99-3.5 6.71s-4.95 2.78-8.55 3.18zm17.71-9.44l.27-6.96 2.12-.08 2.03-.15c1.47-.13 2.51-.29 3.13-.49.63-.2 1.09-.5 1.4-.88l.52.2a6.28 6.28 0 0 1-.19.86c-.09.27-.2.54-.32.8.1.15.18.28.23.41a.89.89 0 0 1 .1.33.75.75 0 0 1-.46.81c-.34.17-1.26.32-2.75.45l-.34.03-1.93.14-2.2.11-.1 2.69c2.75-.24 4.89.05 6.44.86 1.54.81 2.39 2.09 2.54 3.85.15 1.66-.44 3.11-1.74 4.33-1.32 1.23-3.05 1.94-5.21 2.13-.96.08-1.89 0-2.8-.24-.92-.24-1.67-.6-2.26-1.08l.71-1.18c.53.36 1.07.62 1.63.78.55.15 1.12.2 1.73.15 1.12-.1 2-.53 2.65-1.29.64-.77.91-1.72.81-2.84-.11-1.33-.68-2.33-1.68-3-1.01-.66-2.36-.92-4.06-.77l-.27.03zm22.26-2.7c-.71.17-1.2.68-1.44 1.55-.25.86-.22 1.96.09 3.3.29 1.23.71 2.15 1.29 2.77.57.62 1.2.85 1.89.69.7-.16 1.18-.64 1.43-1.46.25-.81.23-1.82-.05-3.06-.32-1.37-.76-2.38-1.31-3.04-.56-.66-1.19-.91-1.9-.75zm2.07-8.76l.59 1.04c-1.6.83-2.78 1.89-3.55 3.19s-1.14 2.83-1.09 4.58a5.39 5.39 0 0 1 1.26-.96 6.14 6.14 0 0 1 1.57-.59c1.48-.34 2.82-.17 4.02.53s1.96 1.72 2.27 3.08c.37 1.62.08 3.11-.88 4.46-.97 1.35-2.37 2.24-4.22 2.67-1.92.44-3.6.22-5.05-.68-1.44-.89-2.38-2.29-2.82-4.2-.63-2.69-.24-5.2 1.15-7.52 1.39-2.33 3.65-4.19 6.75-5.6z" fill-rule="nonzero"/><path d="M185.59 188.3c-57.64-3.76-93.19 27.6-84.36 59.51 6.53 23.59 32.22 37.34 58 41.97 24.04 4.31 51.7 2.53 75.62-4.04 34.54-9.48 66.33-28.01 74.71-51.94-22.01 28.62-62.48 38.48-96 39.54-35.5 1.12-81.19-7.63-86.69-41-4.67-28.29 35.09-44.11 58.72-44.04zm-20.49-58.96s16.78 4.42 27.99 12.17c26.69 18.47 40.35 54.53 24.65 83.8-8.45 15.75-23.74 27.59-39.54 33.98 0 0-9.44 3.2-15.94 5.86-1.44.59 31.97-11.61 39.83-31.5 11.46-28.99-5.46-63.41-46.28-67.45l9.29-36.86zm53.35-20.38s23.27 12.72 32.28 41.95c9.87 31.09-3.92 67.57-26.55 88.12-13.63 11.04-30.13 18.49-48.13 24.62 0 0 19.68-9.68 23.15-13.09 14.72-8.63 25.73-23.06 29.44-39.74 5.16-23.2-5.68-52.88-23.97-68.08l13.78-33.78zm65.56 10.84c14.71 35.63 2.81 70.86-11.97 91.09-16.01 21.91-42.7 37.76-74.83 47.86 26.93-12.36 45.08-28.57 56.09-57.18 5.68-14.74 9.47-33.89 1.14-59.92l29.57-21.85z"/></svg>