<svg xmlns="http://www.w3.org/2000/svg" viewBox="0 0 737.38 250.03"><g data-name="Logo White Red"><path d="M162.8 221.54V150h19.32v74a16.1 16.1 0 0 1-4.84 11.24l-9.85 10a15.87 15.87 0 0 1-11.26 4.76h-19a15.87 15.87 0 0 1-11.26-4.68l-9.86-10a16 16 0 0 1-4.69-11.24V150h19.14v71.51a3.42 3.42 0 0 0 .85 2.25l6.2 6.07a2.83 2.83 0 0 0 2.26 1h13.68a2.83 2.83 0 0 0 2.26-1l6.2-6.07a3.42 3.42 0 0 0 .85-2.22M276.46 150v100h-17.35a3 3 0 0 1-2.68-1.56L222.72 189v61h-19.18V150h17.2a3.21 3.21 0 0 1 2.83 1.69l33.71 59.38V150Zm41.42 100H298.7V150h19.18Zm170.2-100h-20.55l16.26 40.42h-34.7v19.11h34.7L467.53 250h20.55l19-50Zm-94 71.37-2.39 2.39-6.07 6.07a3.33 3.33 0 0 1-2.4 1H366a3 3 0 0 1-2.26-1l-6.07-6.07a3 3 0 0 1-1-2.26v-42.84a2.82 2.82 0 0 1 1-2.26l6.07-6.21a3.66 3.66 0 0 1 2.26-1h17.2a4 4 0 0 1 2.4 1l8.46 8.46 13.52-13.52c-.13-.14-.25-.3-.4-.44l-10-9.87a16.36 16.36 0 0 0-11.26-4.82H363.5a16.1 16.1 0 0 0-11.43 4.79l-9.87 9.87a16 16 0 0 0-4.66 11.34v48.1a16 16 0 0 0 4.66 11.29l9.87 10A15.75 15.75 0 0 0 363.5 250h22.42a16 16 0 0 0 11.29-4.66l10-10c.15-.14.27-.3.4-.44ZM439.34 250h-19.18V150h19.18ZM71.72 150 45 196.24 18.35 150H0v100h19.18v-61.82L36.39 218a3.2 3.2 0 0 0 2.77 1.6h11.75a3.19 3.19 0 0 0 2.77-1.6l17.08-29.57V250h19.18V150Z" style="fill:#ff506e"/><path d="M53.45 0h19.19v100H53.45V59.67H19.18V100H0V0h19.18v40.47h34.27Zm50.13 0a3.25 3.25 0 0 0-2.26 1l-6.2 6.2a2.81 2.81 0 0 0-1 2.25v81.1a2.82 2.82 0 0 0 1 2.26l6.2 6.2a2.82 2.82 0 0 0 2.26 1h53.6V80.82h-43.87V59.67h38.09v-19.2h-38.09V19.18h43.87V0Zm82.47 100h44.6V80.82h-34.87V0H176.6v90.55a2.76 2.76 0 0 0 1 2.26l6.2 6.2a2.82 2.82 0 0 0 2.26 1ZM374 40.47V0h-19.18v100H374V59.67h34.27V100h19.19V0h-19.19v40.47Zm127.61 31a3.6 3.6 0 0 1-1 2.26l-6.06 6.06a3.33 3.33 0 0 1-2.4 1H475a3 3 0 0 1-2.26-1l-6.06-6.06a3 3 0 0 1-1-2.26V28.63a2.82 2.82 0 0 1 1-2.26l6.06-6.2a3.6 3.6 0 0 1 2.26-1h17.21a4 4 0 0 1 2.4 1l6.06 6.2a3.3 3.3 0 0 1 1 2.26Zm4.51-66.72A16.4 16.4 0 0 0 494.84 0h-22.42A16.13 16.13 0 0 0 461 4.79l-9.88 9.88A16 16 0 0 0 446.46 26v48a16 16 0 0 0 4.65 11.29l9.88 10a15.76 15.76 0 0 0 11.43 4.71h22.42a16 16 0 0 0 11.28-4.65l10-10A16 16 0 0 0 520.79 74V26a16 16 0 0 0-4.65-11.28l-10-9.88Zm42.7 95.25h45.4V80.82h-35.67V0h-19.18v90.55a2.78 2.78 0 0 0 1 2.26l6.21 6.2a2.82 2.82 0 0 0 2.26 1Zm67-80.82V100H635V19.18h26.51V0h-72.19v19.18ZM730.19 1a3.3 3.3 0 0 0-2.27-1h-56v19.18h39.64L670.1 84.77v5.78a3.33 3.33 0 0 0 1 2.26l6.21 6.2a2.82 2.82 0 0 0 2.26 1h57.26V80.82h-41.49l42-66.44V9.44a3.34 3.34 0 0 0-1-2.25zM314.31 0l-26.68 46.21L260.94 0h-18.35v100h19.18V38.15L279 68a3.2 3.2 0 0 0 2.77 1.6h11.73a3.19 3.19 0 0 0 2.77-1.6l17.08-29.57V100h19.18V0Z" style="fill:#fff"/></g></svg>