<svg xmlns="http://www.w3.org/2000/svg" width="1000" height="1000" viewBox="0 0 1000 1000" xml:space="preserve"><rect width="100%" height="100%" fill="rgba(255,255,255,0)"/><path style="stroke:none;stroke-width:1;stroke-dasharray:none;stroke-linecap:butt;stroke-dashoffset:0;stroke-linejoin:miter;stroke-miterlimit:4;is-custom-font:none;font-file-url:none;fill:#009ee0;fill-rule:evenodd;opacity:1" transform="translate(-593.405 -691.2)scale(3.6736)" d="M286.819 188.857a135.92 135.92 0 0 1 146.308 124.67 135.92 135.92 0 1 1-146.308-124.67"/><path style="stroke:#fff;stroke-width:.216;stroke-dasharray:none;stroke-linecap:butt;stroke-dashoffset:0;stroke-linejoin:miter;stroke-miterlimit:4;is-custom-font:none;font-file-url:none;fill:#fff;fill-rule:evenodd;opacity:1" transform="translate(-593.401 -691.2)scale(3.6736)" d="M297.263 195.467A128.794 128.794 0 0 1 426.056 324.26a128.794 128.794 0 1 1-128.793-128.793Z" stroke-linecap="round"/><path style="stroke:none;stroke-width:1;stroke-dasharray:none;stroke-linecap:butt;stroke-dashoffset:0;stroke-linejoin:miter;stroke-miterlimit:4;is-custom-font:none;font-file-url:none;fill:#009ee0;fill-rule:evenodd;opacity:1" transform="translate(-593.405 -691.2)scale(3.6736)" d="M296.313 236.307a88.7 88.7 0 0 1 88.7 88.699 88.7 88.7 0 1 1-88.7-88.7"/><path style="stroke:#fff;stroke-width:.216;stroke-dasharray:none;stroke-linecap:butt;stroke-dashoffset:0;stroke-linejoin:miter;stroke-miterlimit:4;is-custom-font:none;font-file-url:none;fill:#fff;fill-rule:evenodd;opacity:1" transform="translate(-593.401 -691.2)scale(3.6736)" d="M251.667 260.93v17.447h9.236V260.93z" stroke-linecap="round"/><path style="stroke:#fff;stroke-width:.216;stroke-dasharray:none;stroke-linecap:butt;stroke-dashoffset:0;stroke-linejoin:miter;stroke-miterlimit:4;is-custom-font:none;font-file-url:none;fill:#fff;fill-rule:evenodd;opacity:1" transform="translate(-593.401 -691.196)scale(3.6736)" d="M216.225 303.717c4.618-40.787 70.849-43.232 79.315 1.342 0 .557-9.327.381-9.75.386.985-16.903-46.996-43.508-59.492-1.717-5.819.102-4.27.206-10.073-.01z" stroke-linecap="round"/><path style="stroke:#fff;stroke-width:.216;stroke-dasharray:none;stroke-linecap:butt;stroke-dashoffset:0;stroke-linejoin:miter;stroke-miterlimit:4;is-custom-font:none;font-file-url:none;fill:#fff;fill-rule:evenodd;opacity:1" transform="translate(-593.401 -691.2)scale(3.6736)" d="M244.597 281.415c-.83 16.022-4.802 48.018-22.73 79.833 5.278.536 4.112.424 10.767.621 15.163-18.828 21.417-65.014 22.338-81.282.433-7.637-9.063 1.55-10.375.828zm14.021-3.038c-2.566 70.336 16.034 84.282 16.034 84.282.683-.01 2.66-.88 8.185-2.516l.27-.08c.47-.138-.432-1.218-.782-1.624-5.853-6.805-15.334-29.727-15.837-75.665-.028-2.587-5.03-6.473-7.87-4.397zm35.237-12.17c2.956 4.73 3.917 24.938 1.717 32.34 6.407-.316 3.232-.006 7.12-.406 1.566-7.668 2.021-16.198-1.037-31.787-4.427-.133-4.164-.125-7.8-.147zm5.983 49.052c-2.774 13.366-2.14 28.173.513 42.109-4.628-.113-1.837-.276-8.018-.353-2.718-12.15-2.438-27.688-.129-41.467 5.897-.126 2.136-.191 7.634-.29z" stroke-linecap="round"/><path style="stroke:#fff;stroke-width:.216;stroke-dasharray:none;stroke-linecap:butt;stroke-dashoffset:0;stroke-linejoin:miter;stroke-miterlimit:4;is-custom-font:none;font-file-url:none;fill:#fff;fill-rule:evenodd;opacity:1" transform="translate(-593.401 -691.196)scale(3.6736)" d="M310.678 260.995c9.055 55.99-9.423 60.963 3.078 102.433-3.557.001 1.432-.007-7.665.03-11.55-46.11 7.306-54.991-2.853-102.526 6.914.038.938.004 7.44.063z" stroke-linecap="round"/><path style="stroke:#fff;stroke-width:.216;stroke-dasharray:none;stroke-linecap:butt;stroke-dashoffset:0;stroke-linejoin:miter;stroke-miterlimit:4;is-custom-font:none;font-file-url:none;fill:#fff;fill-rule:evenodd;opacity:1" transform="translate(-593.401 -691.196)scale(3.6736)" d="M314.288 316.096c1.495 0 3.741.142 6.927.192-3.386 18.117-1.025 31.646 2.948 41.548-4.865-.058-2.395-.12-7.164-.004-5.211-6.778-4.867-35.914-2.711-41.736zm1.924-50.412v19.69h3.592v-19.69z" stroke-linecap="round"/><path style="stroke:#fff;stroke-width:.216;stroke-dasharray:none;stroke-linecap:butt;stroke-dashoffset:0;stroke-linejoin:miter;stroke-miterlimit:4;is-custom-font:none;font-file-url:none;fill:#fff;fill-rule:evenodd;opacity:1" transform="translate(-593.401 -691.2)scale(3.6736)" d="M319.419 263.119v7.055h47.076v-7.055z" stroke-linecap="round"/><path style="stroke:#fff;stroke-width:.216;stroke-dasharray:none;stroke-linecap:butt;stroke-dashoffset:0;stroke-linejoin:miter;stroke-miterlimit:4;is-custom-font:none;font-file-url:none;fill:#fff;fill-rule:evenodd;opacity:1" transform="translate(-593.405 -691.196)scale(3.6736)" d="M350.878 270.078v51.565h9.877v-51.565z" stroke-linecap="round"/><path style="stroke:#fff;stroke-width:.216;stroke-dasharray:none;stroke-linecap:butt;stroke-dashoffset:0;stroke-linejoin:miter;stroke-miterlimit:4;is-custom-font:none;font-file-url:none;fill:#fff;fill-rule:evenodd;opacity:1" transform="translate(-593.401 -691.2)scale(3.6736)" d="M360.755 321.643c-5.638 7.899-18.087 18.666-15.938 26.906 2.233 8.56 13.587 9.38 18.15 11.993 2.069 1.184-25.215 5.384-27.378-15.764-.29-2.826.138-4.003 1.625-6.514 2.933-4.952 9.012-13.453 14.241-20.308 1.785.66 8.33 1.92 9.3 3.687zm-39.54-39.924v31.555h6.927v-31.555zm15.393.256v31.042h8.209v-31.042Z" stroke-linecap="round"/><path style="stroke:#fff;stroke-width:.216;stroke-dasharray:none;stroke-linecap:butt;stroke-dashoffset:0;stroke-linejoin:miter;stroke-miterlimit:4;is-custom-font:none;font-file-url:none;fill:#fff;fill-rule:evenodd;opacity:1" transform="translate(-593.401 -691.2)scale(3.6736)" d="M327.372 290.698v6.157h12.314v-6.157zm.77 20.844c.684 6.449 5.84 7.019 8.788.64 1.415-3.062 7.85-2.501 7.887.258.119 8.827-18.825 17.588-23.602.834-.389-1.362 5.556-5.294 6.927-1.732zm-108.32 62.403c56.531-40.06 79.587 39.584 161.124-18.986 15.109-7.255-6.153 22.783-12.953 29.455-55.736 17.754-82.645-36.706-136.072 2.16-7.148 5.2-10.885-10.565-12.1-12.63z" stroke-linecap="round"/><path style="stroke:none;stroke-width:1;stroke-dasharray:none;stroke-linecap:butt;stroke-dashoffset:0;stroke-linejoin:miter;stroke-miterlimit:4;is-custom-font:none;font-file-url:none;fill:#009ee0;fill-rule:evenodd;opacity:1" transform="translate(-593.405 -691.196)scale(3.6736)" d="M203.479 360.182c1.695-.462 2.364-1.55 1.998-3.272q-.548-2.572-3.155-2.17l-8.014 1.703-2.434-11.452 8.014-1.703c1.695-.462 2.354-1.599 1.968-3.412q-.548-2.574-3.155-2.17l-20.901 4.442c-1.794.484-2.554 1.59-2.287 3.327q.723 2.689 3.473 2.256l7.733-1.644 2.434 11.452-7.732 1.644q-2.69.723-2.287 3.327c.463 1.701 1.609 2.403 3.443 2.115zm-5.415-30.655c1.757-.038 2.713-.93 2.874-2.686l.337-9.648c-.042-1.663-.885-2.574-2.541-2.725-1.663.035-2.518.887-2.576 2.547l-.24 6.87-5.704-.199.215-6.14c-.042-1.664-.89-2.618-2.537-2.876-1.667.142-2.579 1.035-2.73 2.692l-.215 6.14-5.41-.189.23-6.584c-.043-1.657-.892-2.567-2.542-2.719-1.564.04-2.425.89-2.582 2.54l-.327 9.361q-.097 2.782 3.123 2.896zm1.607-21.636c1.714.388 2.815-.257 3.3-1.95q.725-2.53-1.767-3.398l-13.505-3.872.04-.138 18.322-7.082q1.226-.565 1.63-1.969c.484-1.687-.106-2.824-1.767-3.397l-20.54-5.89c-1.809-.421-3.002.204-3.581 1.864-.388 1.714.292 2.877 2.049 3.478l13.65 3.914-.042.144-18.465 7.035q-1.366.524-1.912 1.887c-.39 1.72.292 2.877 2.048 3.485zm8.21-28.207.247.16q.406.442.777.683 2.047 1.15 3.399-.935c.745-1.146.76-2.246.045-3.29l-2.312-2.895 5.659-8.714 3.506 1.056c1.245.227 2.244-.233 2.988-1.38.902-1.388.768-2.524-.411-3.402q-.486-.318-1.382-.555l-21.048-4.942q-3.295-.566-4.81 1.767-1.387 2.408.426 4.983zm-8.43-19.257 10.995 2.949-3.826 5.891zm26.42-4.334c1.16 1.32 2.43 1.446 3.818.361 1.382-1.08 1.568-2.343.567-3.787l-8.65-11.071.113-.089 18.986 5.04q1.324.265 2.476-.634c1.382-1.08 1.574-2.347.567-3.787l-13.155-16.838c-1.216-1.404-2.549-1.599-3.993-.597-1.321 1.158-1.455 2.499-.387 4.018l8.743 11.19-.119.092-19.073-5.163q-1.413-.378-2.656.404c-1.327 1.163-1.455 2.5-.392 4.022zm27.802-28.107c2.61 6.132 7.332 8.34 14.164 6.632q9.653-3.903 7.412-13.642l-4.16-12.804c-.662-1.735-1.848-2.374-3.548-1.926-1.638.637-2.222 1.85-1.737 3.643l4.07 12.531c.897 3.708-.282 6.244-3.528 7.607-3.499.934-5.985-.412-7.47-4.033l-4.071-12.53c-.668-1.734-1.848-2.375-3.548-1.928-1.644.64-2.222 1.852-1.744 3.646zm31.846-.75c.07 1.756.978 2.652 2.74 2.683q2.629.044 2.823-2.586l.246-14.048.143.003 11.583 15.866q.863 1.037 2.323 1.064c1.755.031 2.7-.833 2.825-2.586l.373-21.365c-.062-1.856-.975-2.846-2.728-2.976-1.756.069-2.703 1.027-2.829 2.88l-.248 14.197-.15-.003-11.574-16.015q-.86-1.185-2.318-1.358c-1.763.069-2.703 1.026-2.836 2.88zm30.392 1.935c-.298 1.732.405 2.798 2.12 3.194q2.563.59 3.3-1.943l4.807-20.82c.32-1.83-.36-2.986-2.048-3.478-1.739-.3-2.858.442-3.373 2.227zm18.629 6.449c-.07 1.356.52 2.316 1.764 2.87q1.677.91 3.319-.607l15.995-15.784c.375-.366.646-.73.804-1.084.498-1.596-.021-2.84-1.543-3.735-.981-.437-2.039-.21-3.182.668l-11.525 11.854.966-16.555q-.03-2.097-1.501-2.754c-1.644-.622-2.867-.148-3.672 1.414a7 7 0 0 0-.404 1.262zm18.155 8.852c-1.002 1.444-.842 2.741.483 3.904l7.608 5.943c1.37.944 2.602.797 3.699-.454.948-1.367.762-2.558-.547-3.58l-5.417-4.233 3.513-4.498 4.842 3.783c1.37.944 2.641.82 3.817-.362.865-1.432.68-2.694-.572-3.79l-4.842-3.784 3.333-4.266 5.191 4.056c1.366.94 2.602.788 3.694-.458.888-1.288.705-2.485-.537-3.582l-7.381-5.767q-2.194-1.713-4.178.825zm16.441 14.677c-1.3 1.182-1.403 2.454-.295 3.822 1.104 1.364 2.37 1.528 3.796.501l6.367-5.155-2.597 12.837q-.107 1.027.812 2.163c1.123 1.228 2.384 1.396 3.8.506q.773-.444.793-1.581l1.381-9.218c3.506 2.93 6.772 3.242 9.786.921q6.601-5.345.706-12.623l-4.142-5.115c-1.168-1.44-2.515-1.547-4.029-.321zm18.171-7.556 2.393 2.955c1.342 1.806 1.204 3.42-.403 4.85-1.654 1.212-3.224.98-4.711-.708l-2.393-2.955zm22.584 26.552q-3.781-7.786-11.32-5.367c-3.784 2.37-5.027 5.662-3.747 9.879q.398 4.89-1.227 5.547c-1.943.677-3.408-.099-4.415-2.325q-.49-1.216-.552-3.717c-.118-1.326-.266-2.209-.448-2.66q-1.01-2.119-3.377-1.323c-2.313 1.042-2.403 4.338-.26 9.89 2.532 5.503 6.322 7.447 11.353 5.832q6.644-4.259 4.604-10.858-.502-4.372.994-4.975 2.085-.69 3.322 1.972c.293.724.478 1.699.553 2.935q.14 1.517.362 2.063c.672 1.412 1.843 1.828 3.507 1.263 1.92-.984 2.134-3.704.651-8.156m-17.608 24.7c-1.679.521-2.31 1.631-1.884 3.34q.639 2.551 3.23 2.059l20.733-5.17c1.775-.546 2.497-1.678 2.17-3.405-.524-1.684-1.692-2.345-3.516-1.993zm2.286 17.347c-1.75.162-2.598 1.116-2.536 2.876q.099 2.78 2.736 2.828l18.864-.659.144 4.1q.233 2.337 2.72 2.392 2.335-.224 2.403-2.57l-.485-13.898q-.221-2.044-2.566-2.104-2.627.232-2.558 2.283l.143 4.093zm-1.429 23.585c-1.64-.246-2.654.534-3.04 2.348-.365 1.717.254 2.8 1.852 3.241l9.883 2.1 8.27 8.94c.401.481.88.781 1.454.903 1.665.156 2.761-.556 3.302-2.139q.273-1.292-.662-2.534l-6.49-6.768 8.712-3.683q1.329-.618 1.635-2.046.34-2.324-2.207-3.01c-.287-.061-.724-.11-1.319-.134a.4.4 0 0 1-.317.08l-11.19 4.803zm-131.984 78.449q3.235-.301 6.15-1.387l-5.046 17.6 4.937 1.416 6.425-22.408-4.559-1.308a36 36 0 0 1-6.637 1.658zm16.368 13.958q-.734 6.144 6.848 7.08c3.044.429 5.412-.306 7.096-2.197q2.373-2.723 3.292-10.178 1.591-10.417-6.9-11.475c-5.18-.376-8.284 1.85-9.32 6.67q-.246 6.486 5.922 8.017c1.73.328 3.317.063 4.771-.794q-.634 7.358-4.549 6.807c-1.302-.183-1.997-1.257-2.073-3.215zm6.274-9.628q.584-4.175 3.847-3.716 2.847.537 2.413 4.596c-.443 2.508-1.628 3.675-3.549 3.49q-3.263-.456-2.711-4.37m16.137 2.081a24 24 0 0 0 5.245-3.499l1.596 18.24 5.117-.448-2.032-23.222-4.725.413a36 36 0 0 1-5.603 3.926zm21.048 13.257 15.953-4.574-.943-3.29-11.016 3.158c.395-.844 1.263-2.285 2.6-4.311 3.924-5.417 5.42-9.453 4.473-12.105-1.305-3.923-4.481-5.292-9.535-4.118-5.02 1.62-6.95 4.595-5.801 8.925l4.938-1.416q-.657-3.24 1.807-4.219c1.71-.397 2.916.304 3.617 2.114q.89 2.622-5.432 12.11-1.647 2.393-1.968 3.166zm-122.096-68.86a3.794 3.794 0 0 1 3.794 3.794 3.794 3.794 0 1 1-3.794-3.794m197.12 0a3.794 3.794 0 0 1 3.794 3.794 3.794 3.794 0 1 1-3.794-3.794"/></svg>