<svg xmlns="http://www.w3.org/2000/svg" width="336" height="336" viewBox="0 0 252 252" fill-rule="evenodd"><g fill="rgb(0%,0%,0%)"><path d="M140.668 227.109c.438.391.805.879 1.082 1.461.285.582.453 1.238.516 1.969.063.738 0 1.414-.187 2.031s-.469 1.16-.848 1.617c-.371.453-.816.813-1.332 1.082a4.29 4.29 0 0 1-1.676.484c-.645.055-1.25-.02-1.816-.215s-1.062-.492-1.492-.895c-.426-.391-.773-.871-1.051-1.461a5.47 5.47 0 0 1-.496-1.906c-.062-.75 0-1.43.188-2.043a4.67 4.67 0 0 1 .848-1.609 4.21 4.21 0 0 1 1.344-1.098c.52-.27 1.078-.434 1.664-.48a4.43 4.43 0 0 1 1.766.203c.563.191 1.059.477 1.492.859zm79.211-63.535c-.031.07-.051.188-.066.359s-.012.297.004.379c.027.199.051.332.082.414.023.082.109.246.254.5l.941 1.449 1.262 1.746c.188.262.348.445.477.566.137.117.348.238.645.371l1.602.723c.145.063.281.094.41.082s.262-.07.383-.18c.074-.07.18-.199.316-.398a2.78 2.78 0 0 0 .309-.48l.422.191-1.777 3.941-.418-.191.184-.52c.074-.227.117-.395.117-.5.008-.168-.031-.305-.109-.402s-.191-.187-.34-.254l-2.051-.922c-.062-.027-.191-.043-.398-.043l-.684.023-1.848.117-1.707.137c-.285.031-.508.066-.668.117s-.316.117-.461.211a1.2 1.2 0 0 0-.289.277c-.094.117-.16.23-.223.336l-.422-.191 1.621-3.594.422.191c-.18.41-.277.707-.305.895s0 .297.09.34a.44.44 0 0 0 .141.023h.273l.434-.023.477-.031 1.305-.098 1.711-.145-1.699-2.477c-.414-.574-.672-.891-.785-.941-.094-.035-.18-.035-.266.008s-.168.109-.25.211-.16.215-.234.344l-.195.359-.422-.191 1.316-2.926zm.965 10.211l-.141.402c-.062.168-.094.316-.098.434a.59.59 0 0 0 .109.379 1.03 1.03 0 0 0 .336.27l.637.34.934.496.41.191c-.043.641-.145 1.238-.293 1.809s-.352 1.102-.617 1.594a4.47 4.47 0 0 1-1.102 1.348c-.461.379-.961.652-1.52.816-.555.176-1.156.223-1.793.156s-1.281-.273-1.926-.621a5.36 5.36 0 0 1-1.562-1.238c-.418-.492-.73-1.031-.914-1.613-.191-.57-.254-1.164-.199-1.785a4.78 4.78 0 0 1 .551-1.789c.25-.465.52-.836.816-1.113.293-.285.59-.516.887-.687l-.266-.445.246-.457 2.887 1.477-.254.473a9.53 9.53 0 0 0-1.09-.199c-.371-.043-.723-.035-1.07.02a2.38 2.38 0 0 0-.949.379c-.285.191-.531.477-.734.852-.219.41-.336.824-.344 1.234s.094.824.301 1.238c.191.406.492.797.895 1.18.41.387.91.73 1.492 1.047.523.281 1.043.477 1.566.594.527.125 1.023.156 1.488.094.465-.055.898-.203 1.281-.457.391-.246.707-.602.945-1.059.18-.34.297-.676.344-1.008s.043-.59-.016-.77c-.18-.141-.371-.262-.574-.379l-.516-.277-.449-.242c-.164-.086-.316-.141-.465-.16s-.293.02-.422.129c-.125.094-.262.242-.41.445l-.328.484-.418-.23 1.926-3.582zm-9.422 7.492c.582-.102 1.188-.074 1.82.078s1.246.43 1.852.844c.613.414 1.102.887 1.461 1.422a4.47 4.47 0 0 1 .723 1.68c.113.57.121 1.145 0 1.715a4.29 4.29 0 0 1-.68 1.609 4.41 4.41 0 0 1-1.305 1.277c-.508.313-1.055.512-1.629.594a4.58 4.58 0 0 1-1.801-.102c-.621-.152-1.223-.426-1.793-.809-.625-.43-1.113-.898-1.465-1.43-.359-.527-.602-1.086-.727-1.668-.117-.582-.121-1.156-.004-1.734a4.37 4.37 0 0 1 .68-1.594c.348-.508.77-.926 1.266-1.246a3.99 3.99 0 0 1 1.602-.637zm4.891 4.512c-.191-.426-.465-.824-.809-1.199-.355-.379-.789-.738-1.301-1.086-.527-.359-1.043-.637-1.555-.828-.508-.199-.984-.305-1.43-.316a2.55 2.55 0 0 0-1.227.262c-.379.18-.695.469-.961.852-.289.434-.437.867-.449 1.309s.09.867.289 1.281c.199.395.477.781.844 1.156a7.52 7.52 0 0 0 1.25 1.047c.52.355 1.02.625 1.496.816.484.195.961.297 1.418.316.453.027.867-.055 1.246-.227s.711-.473.988-.879c.262-.387.41-.801.441-1.234a2.56 2.56 0 0 0-.242-1.27zm-5.176 5.516l1.969 1.922-4.66 5.508-.355-.297.262-.375c.109-.168.18-.285.203-.371.039-.137.039-.262-.004-.375-.051-.117-.137-.227-.262-.332l-5.047-4.273c-.117-.094-.227-.16-.352-.199-.117-.035-.246-.016-.398.051a2.27 2.27 0 0 0-.387.223c-.156.105-.273.199-.355.285l-.352-.297 2.52-2.973.352.297c-.078.094-.16.23-.254.402a3.03 3.03 0 0 0-.191.391c-.062.148-.055.281.008.402s.141.23.254.324l4.734 4.004c.219.188.398.316.535.398a.6.6 0 0 0 .406.086c.125-.027.262-.105.402-.242.148-.137.336-.34.563-.605l.316-.391c.105-.137.199-.273.281-.414.078-.133.141-.262.191-.391.043-.133.063-.238.047-.328-.035-.266-.133-.621-.289-1.059s-.305-.781-.434-1.012zm-10.352 3.91c.59.012 1.184.152 1.77.418s1.148.664 1.66 1.184c.52.527.91 1.082 1.164 1.672a4.37 4.37 0 0 1 .383 1.781 4.24 4.24 0 0 1-.32 1.688c-.219.535-.547 1.02-.98 1.445-.457.453-.965.789-1.52 1.004a4.06 4.06 0 0 1-1.715.273c-.578-.023-1.16-.172-1.746-.441s-1.121-.648-1.605-1.137c-.531-.539-.918-1.098-1.168-1.684s-.379-1.176-.387-1.777c-.012-.594.094-1.16.324-1.703.223-.547.551-1.023.973-1.441.43-.434.926-.762 1.477-.98a4.1 4.1 0 0 1 1.691-.301zm3.945 5.359c-.113-.453-.297-.898-.57-1.332s-.633-.871-1.07-1.312c-.445-.449-.906-.82-1.363-1.113-.465-.289-.918-.484-1.352-.582s-.848-.086-1.25.02-.773.328-1.102.656c-.371.371-.602.766-.691 1.195s-.082.867.035 1.316a4.52 4.52 0 0 0 .605 1.301c.285.441.629.859 1.031 1.27.438.445.879.805 1.316 1.082s.879.48 1.332.582c.434.105.859.113 1.262.016.41-.102.789-.324 1.141-.676a2.44 2.44 0 0 0 .668-1.129c.113-.414.113-.848.008-1.293zm-10.055-.105c-.094.082-.211.223-.359.434s-.242.371-.281.496c-.047.18.008.402.168.668.148.266.379.578.684.934l4.309 5.086-.43.359-9.012-2.113 3.031 3.578c.34.402.625.688.863.863.227.172.438.258.617.258.137.008.348-.055.633-.191s.469-.234.551-.297l.289.348-2.84 2.414-.297-.348a3.93 3.93 0 0 0 .363-.469c.16-.238.25-.398.262-.492.035-.184 0-.395-.117-.617s-.371-.562-.758-1.016l-2.898-3.418a1.69 1.69 0 0 0-.457-.383c-.18-.105-.348-.16-.5-.168-.211-.008-.445.039-.711.125a2.18 2.18 0 0 0-.598.289l-.289-.348 1.98-1.676 8.383 1.98-2.797-3.301c-.34-.402-.633-.691-.867-.867s-.434-.254-.594-.238c-.145.016-.34.078-.602.195-.254.117-.441.219-.551.305l-.297-.348 2.824-2.395zm-2.953 14.02l-3.191 2.215-.266-.383.355-.297c.152-.133.254-.23.289-.297a.55.55 0 0 0 .105-.367c-.012-.125-.066-.254-.168-.395l-1.895-2.738-3.609 2.508 1.852 2.676c.094.121.188.215.285.277.105.055.234.074.41.055.078-.004.207-.055.395-.129l.402-.203.273.383-3.195 2.215-.266-.383.352-.297c.156-.129.254-.23.297-.297.074-.117.113-.242.102-.367s-.062-.254-.164-.395l-3.852-5.547c-.078-.117-.172-.203-.281-.266a.63.63 0 0 0-.402-.059c-.133.027-.281.063-.441.125a2.59 2.59 0 0 0-.41.188l-.266-.387 3.188-2.215.27.383c-.102.074-.211.18-.336.305l-.273.309a.51.51 0 0 0-.098.391 1.03 1.03 0 0 0 .172.371l1.656 2.383 3.609-2.508-1.617-2.328c-.082-.109-.18-.203-.293-.266a.6.6 0 0 0-.395-.055c-.129.02-.277.063-.445.125-.16.063-.297.121-.402.184l-.266-.383 3.188-2.215.266.383c-.098.074-.211.18-.336.305s-.215.234-.27.309c-.094.129-.125.258-.102.391.031.129.09.254.168.371l3.844 5.539c.09.125.188.219.285.281s.238.078.402.055c.09-.012.219-.055.398-.129l.406-.207zm-18.352 7.863l.977 2.535-6.945 3.207-.199-.418.453-.27c.184-.117.297-.203.348-.254.098-.117.148-.234.152-.352s-.023-.246-.086-.391l-2.781-6.023a.96.96 0 0 0-.223-.316c-.094-.078-.215-.117-.383-.117-.129 0-.297.02-.496.063s-.348.086-.457.125l-.191-.422 6.48-2.992.93 2.02-.445.203c-.219-.266-.531-.5-.949-.719s-.746-.281-1-.203l-.453.168-.582.254-1.32.605 1.535 3.332.949-.434c.305-.137.508-.273.625-.391.109-.117.188-.273.234-.457.031-.156.039-.34.008-.559a3.61 3.61 0 0 0-.125-.594l.441-.203 1.508 3.273-.437.207c-.105-.18-.242-.359-.41-.547-.16-.18-.301-.297-.422-.359-.191-.098-.375-.137-.555-.109s-.398.098-.652.215l-.941.434 1.16 2.516c.117.254.227.438.328.566s.223.207.359.238.297.012.488-.051.441-.168.77-.316l.512-.234.527-.273c.137-.086.277-.184.422-.297s.227-.223.266-.328c.086-.273.148-.645.168-1.121a6.8 6.8 0 0 0-.008-1.02zm-9.324-.137l-.43.152a2.97 2.97 0 0 0-.387-.457c-.168-.168-.348-.32-.535-.457-.191-.145-.383-.262-.582-.355-.199-.086-.363-.117-.512-.09-.133.027-.297.074-.492.133l-.543.18-.359.133 2.52 7.008c.051.137.125.246.223.348.094.09.23.141.398.152.078.008.246-.012.508-.047.254-.039.445-.074.582-.121l.152.441-4.137 1.484-.16-.437.516-.242c.227-.109.375-.199.457-.266.117-.105.188-.219.219-.34.023-.125.004-.273-.051-.441l-2.539-7.07-.359.129-.477.18-.527.238c-.129.066-.238.195-.332.395s-.168.414-.23.645a4.23 4.23 0 0 0-.109.707c-.02.238-.027.438-.016.586l-.434.156-.852-2.379 7.633-2.742zm-14.062 4.387l-.48.09c-.148-.324-.398-.652-.75-.98s-.664-.496-.93-.48a3.9 3.9 0 0 0-.477.043l-.617.098-1.52.273.656 3.641 1.039-.187c.316-.055.555-.129.715-.227a1.17 1.17 0 0 0 .395-.387c.07-.109.117-.266.148-.477.039-.211.043-.434.027-.66l.488-.09.637 3.555-.484.086c-.047-.184-.129-.387-.246-.613s-.23-.383-.336-.469c-.152-.137-.332-.215-.535-.234a2.41 2.41 0 0 0-.715.035l-1.039.188.563 3.121c.027.141.074.258.148.359s.191.172.348.215c.066.02.211.031.434.031a2.57 2.57 0 0 0 .496-.02l.078.453-3.926.707-.078-.453.5-.129c.211-.059.348-.105.402-.148.117-.074.199-.18.238-.297s.043-.254.012-.41L144 226.703a1 1 0 0 0-.137-.359c-.07-.102-.187-.168-.34-.211a2.58 2.58 0 0 0-.496-.062c-.199-.004-.359-.004-.477.008l-.082-.453 7.109-1.281zm-39.059 8.676l-4.133-.527.063-.457.508.023c.223.012.383.008.477-.016.148-.039.262-.102.34-.195.074-.086.125-.223.145-.387l.848-6.641c.02-.148.012-.277-.023-.383s-.137-.203-.305-.297a4.61 4.61 0 0 0-.465-.211l-.477-.141.063-.461 4.125.527-.059.457c-.137-.012-.297-.016-.48-.012l-.504.043c-.168.031-.289.102-.359.211a.9.9 0 0 0-.137.379l-.84 6.629c-.02.145 0 .273.043.391.051.117.148.223.289.305.09.051.23.105.43.168s.363.109.508.137zm-21.387-8.098l-1.152 2.469-7.125-2.785.168-.426.5.133c.211.051.352.074.426.074a.62.62 0 0 0 .359-.129c.094-.074.164-.184.223-.332l2.41-6.18c.055-.129.074-.262.074-.379-.008-.125-.066-.242-.18-.359-.094-.094-.215-.199-.383-.309l-.414-.242.164-.426 6.652 2.594-.812 2.074-.453-.18c.039-.34-.012-.73-.141-1.184s-.316-.734-.547-.867c-.117-.066-.258-.137-.434-.211l-.586-.238-1.352-.527-1.328 3.418.965.375c.309.125.551.18.719.18a.97.97 0 0 0 .488-.141c.137-.082.273-.211.41-.379a3.11 3.11 0 0 0 .34-.508l.457.18-1.312 3.363-.457-.18c.063-.199.098-.422.109-.668s0-.43-.035-.559c-.062-.203-.164-.363-.305-.477s-.348-.215-.605-.316l-.969-.375-1.008 2.574c-.098.258-.16.469-.184.633a.62.62 0 0 0 .078.418c.074.117.199.223.371.316s.43.203.762.336l.527.203c.215.086.41.148.563.191a4.49 4.49 0 0 0 .508.102c.18.016.316.004.414-.039.262-.125.57-.34.93-.648.359-.316.602-.551.73-.719zm-18.148-5.176l-3.602-2.082.234-.402.461.219c.195.098.344.152.445.164.148.027.277.008.383-.043s.203-.152.289-.301l3.344-5.797c.074-.129.117-.254.125-.363s-.043-.242-.16-.391c-.086-.113-.207-.234-.355-.371s-.27-.242-.375-.312l.227-.402 3.605 2.082-.23.402-.445-.199a4.11 4.11 0 0 0-.477-.152c-.168-.039-.305-.02-.414.055s-.191.172-.266.297l-3.34 5.789a.72.72 0 0 0-.109.379c0 .129.051.258.148.387a2.84 2.84 0 0 0 .328.324 3.01 3.01 0 0 0 .422.32zm-26.312-24.902l-2.211 1.59-4.859-5.91.355-.293.375.367c.156.148.266.238.336.27.137.063.266.09.379.063a.84.84 0 0 0 .355-.184l5.121-4.211c.113-.094.191-.191.25-.297s.059-.242.016-.402c-.031-.125-.09-.281-.184-.457-.086-.18-.168-.316-.234-.418l.352-.289 4.531 5.508-1.715 1.414-.309-.379c.199-.277.348-.645.453-1.102s.086-.797-.051-1.02c-.074-.121-.168-.25-.277-.398l-.391-.5-.922-1.121-2.832 2.328.656.805c.211.254.398.426.539.5.148.082.316.117.5.113.156-.008.344-.051.547-.133a3.35 3.35 0 0 0 .543-.27l.313.375-2.789 2.293-.309-.379c.148-.148.285-.32.422-.527.129-.203.211-.371.234-.5a.88.88 0 0 0-.031-.562 2.69 2.69 0 0 0-.371-.578l-.66-.805-2.137 1.758c-.219.176-.371.328-.473.461s-.148.266-.137.406.063.293.168.461.273.391.504.66l.359.441.395.438a3.07 3.07 0 0 0 .395.336c.148.105.273.16.387.172.285.02.66-.016 1.125-.117s.793-.184.984-.266zM179.25 222.5a3.93 3.93 0 0 1-1.539.445c-.547.043-1.086-.027-1.621-.207-.527-.18-1.031-.477-1.508-.883s-.879-.941-1.223-1.594-.555-1.285-.633-1.926c-.082-.629-.043-1.23.105-1.801a4.14 4.14 0 0 1 .773-1.523c.363-.449.816-.82 1.355-1.105.402-.211.785-.355 1.164-.422.379-.074.762-.094 1.152-.07l.031-.512.457-.242 1.574 2.871-.465.25c-.211-.25-.465-.508-.762-.773s-.59-.473-.875-.613c-.316-.16-.645-.254-.973-.266s-.656.063-.984.234c-.363.199-.668.457-.902.793s-.379.719-.445 1.164c-.055.426-.023.91.098 1.453.133.547.348 1.109.656 1.695.273.523.59.961.949 1.328a4.11 4.11 0 0 0 1.164.84 3.03 3.03 0 0 0 1.27.305c.434.004.852-.098 1.27-.316.309-.16.566-.359.773-.594s.371-.484.477-.742a3.5 3.5 0 0 0 .199-.844c.035-.289.027-.582-.008-.883l.531-.02c.102.977-.035 1.781-.395 2.414s-.918 1.145-1.668 1.543zM27.465 176.379l-1.59-3.543.426-.191.23.402c.09.176.172.293.234.34.105.102.215.156.34.168s.266-.016.422-.086l3.031-1.363-1.793-4.012-2.973 1.332c-.141.063-.246.137-.328.23-.074.09-.117.215-.125.391-.012.078.016.223.051.414.043.191.086.332.129.438l-.426.191-1.59-3.539.426-.191.223.402c.098.172.18.289.242.344.098.102.215.156.34.168s.262-.016.414-.086l6.16-2.762a.81.81 0 0 0 .316-.234c.086-.098.125-.23.129-.383a3.53 3.53 0 0 0-.035-.461c-.031-.172-.07-.312-.113-.434l.43-.191 1.59 3.543-.426.191a3.63 3.63 0 0 0-.242-.391l-.25-.32c-.109-.117-.234-.168-.363-.168a1.01 1.01 0 0 0-.395.098l-2.652 1.191 1.801 4.012 2.59-1.16c.125-.055.23-.137.316-.234.078-.098.121-.23.121-.383a1.96 1.96 0 0 0-.035-.457c-.023-.176-.062-.316-.105-.434l.426-.195 1.586 3.543-.426.191c-.051-.109-.133-.242-.234-.391a2.67 2.67 0 0 0-.254-.32c-.113-.117-.23-.168-.367-.168a1.21 1.21 0 0 0-.395.094l-6.156 2.762c-.137.063-.246.137-.32.227s-.117.219-.133.387c-.004.086.016.223.059.414l.121.438zm7.324 6.984l-2.426 1.227-3.875-6.605.395-.238c.074.113.18.25.316.422.129.172.227.277.285.32.129.09.246.125.363.121a.85.85 0 0 0 .383-.133l5.723-3.355a.92.92 0 0 0 .289-.254c.07-.098.094-.227.082-.395-.012-.129-.051-.293-.109-.484l-.168-.445.395-.234 3.609 6.152-1.918 1.129-.246-.422c.238-.242.445-.582.625-1.016.172-.434.207-.773.105-1.016a4.75 4.75 0 0 0-.211-.434l-.312-.555-.73-1.254-3.164 1.859.527.898c.168.285.324.48.453.582s.289.16.477.191c.156.02.34.004.559-.043s.406-.113.582-.187l.246.422-3.113 1.828-.25-.422c.176-.117.34-.273.504-.453s.266-.336.316-.457c.074-.199.09-.391.047-.562s-.129-.387-.273-.629l-.523-.895-2.391 1.398c-.242.141-.422.266-.539.383s-.187.242-.199.379.02.297.102.477.203.426.391.734l.281.492.324.492c.098.133.211.27.34.391.125.133.242.207.348.23.277.063.656.086 1.133.063s.816-.062 1.016-.113zm8.16 4.422l-.277-.402c.227-.27.426-.633.582-1.09s.18-.805.063-1.047l-.242-.414-.34-.527-.875-1.27-3.047 2.098.594.867c.188.266.355.453.508.559s.328.172.508.195c.133.02.297 0 .504-.055s.406-.137.613-.246l.277.406-2.977 2.051-.281-.41c.148-.117.305-.277.461-.477s.254-.363.297-.492a1.01 1.01 0 0 0-.008-.59c-.066-.199-.172-.41-.336-.637l-.594-.867-2.613 1.793c-.117.082-.207.176-.27.285s-.074.242-.051.402c.008.07.055.207.141.41l.227.445-.379.262-2.262-3.289.379-.258.328.402c.137.164.234.266.305.301a.52.52 0 0 0 .363.086c.125-.012.25-.059.379-.152l5.465-3.766a.87.87 0 0 0 .273-.273c.07-.105.082-.234.055-.395-.016-.129-.066-.285-.141-.473l-.203-.43.375-.262 4.094 5.949zm3.66 14.98l-2.836-3.047.332-.312.379.344c.16.156.293.25.379.293.137.066.266.094.383.074s.234-.094.359-.211l4.898-4.562c.109-.105.184-.203.227-.309s.027-.242-.043-.422c-.047-.129-.121-.285-.227-.461a3.59 3.59 0 0 0-.273-.406l.34-.316 2.836 3.047-.34.316c-.094-.102-.211-.207-.359-.324s-.285-.211-.414-.285a.5.5 0 0 0-.41-.066c-.125.035-.242.109-.348.203l-4.883 4.559a.75.75 0 0 0-.219.328c-.035.121-.031.258.027.414.035.094.109.23.223.402a3.24 3.24 0 0 0 .309.434zm17.219 3.746c-.094-.074-.25-.172-.453-.285-.211-.117-.402-.184-.582-.211-.172-.016-.383.07-.633.273s-.512.473-.809.816l-2.613 3.059c-.336.391-.707.664-1.117.813s-.816.203-1.242.16c-.41-.043-.801-.148-1.152-.32-.359-.168-.664-.367-.93-.594-.426-.359-.754-.738-.988-1.137-.238-.387-.387-.777-.445-1.156s-.047-.73.047-1.07c.102-.34.254-.637.484-.906l3.555-4.16c.098-.117.16-.227.191-.34s.012-.246-.043-.414c-.043-.117-.117-.246-.23-.383-.098-.137-.191-.25-.266-.324l.297-.352 2.93 2.5-.297.355c-.102-.074-.23-.164-.391-.254a2.26 2.26 0 0 0-.371-.191c-.148-.059-.281-.059-.398.004s-.223.148-.316.254l-3.316 3.883c-.16.184-.309.402-.445.645s-.219.508-.25.785c-.031.293.02.594.145.898s.375.617.762.953c.363.309.719.512 1.063.605s.672.113.973.043c.293-.062.547-.164.77-.312s.414-.324.582-.523l2.469-2.883c.309-.367.547-.687.688-.965.148-.281.199-.496.16-.656-.043-.187-.148-.387-.309-.602s-.289-.371-.391-.473l.305-.352 2.871 2.457h-.004l2.086 1.469.184 8.617 2.496-3.535c.305-.434.508-.785.621-1.059.105-.273.133-.484.078-.633-.047-.133-.16-.312-.34-.531s-.32-.371-.434-.457l.266-.371 3.023 2.129-.262.371c-.105-.066-.273-.141-.512-.234s-.422-.145-.547-.148c-.191 0-.395.105-.613.328-.215.215-.457.512-.73.898l-3.84 5.441-.449-.324-.219-9.254-2.703 3.832c-.305.426-.508.781-.621 1.047-.105.266-.141.488-.098.668.031.137.141.32.348.563.203.25.344.398.426.461l-.266.371-3.047-2.148.262-.371c.098.055.281.133.551.234s.445.141.531.129c.191-.012.383-.105.57-.273s.449-.496.793-.984l2.582-3.656c.109-.164.195-.344.258-.547.055-.199.07-.379.039-.531-.051-.207-.148-.422-.305-.656-.156-.219-.297-.387-.426-.484zm20.406 12.086c-.102-.043-.23-.082-.391-.113-.168-.027-.309-.035-.43-.023a1.03 1.03 0 0 0-.469.156c-.141.086-.297.195-.457.332l-2.582 2.293-3.605 3.262-.477-.234.527-5.109.34-3.324c.012-.141 0-.277-.031-.406a1.43 1.43 0 0 0-.18-.41 1.38 1.38 0 0 0-.27-.316c-.113-.098-.223-.172-.324-.234l.203-.41 3.387 1.68-.203.406c-.289-.121-.551-.223-.766-.27-.223-.059-.359-.031-.41.078-.023.043-.043.102-.055.16l-.027.164-.223 2.191-.437 4.32 2.258-2.023 1.758-1.617c.305-.285.496-.496.582-.617.094-.125.156-.23.199-.316a.3.3 0 0 0-.012-.281 1.53 1.53 0 0 0-.234-.309l-.348-.277c-.117-.086-.242-.16-.371-.242l.199-.41 3.051 1.512zm14.277 14.34l-2.422-.687-.836-2.594-.875-2.293-.922-.258-.805 2.852a1.1 1.1 0 0 0-.043.41c.012.125.094.234.23.34a2.18 2.18 0 0 0 .371.199 4.05 4.05 0 0 0 .469.18l-.129.453-3.801-1.078.129-.453.453.082c.199.035.34.043.426.031a.55.55 0 0 0 .34-.164c.094-.086.156-.215.207-.375l1.836-6.5a1.06 1.06 0 0 0 .051-.418c-.012-.121-.086-.238-.223-.34-.094-.066-.223-.141-.383-.223l-.414-.184.129-.453 4.148 1.176c.383.105.73.246 1.039.422a3.12 3.12 0 0 1 .801.629c.211.242.359.523.438.844s.07.668-.043 1.051c-.098.348-.242.641-.422.875s-.402.422-.66.559a2.78 2.78 0 0 1-.82.277c-.301.063-.629.086-.977.094l.688 1.793.664 1.773c.117.309.227.539.344.703a3.07 3.07 0 0 0 .359.422c.102.086.223.168.379.242l.402.168zm-1.437-7.652c.156-.547.125-1.023-.098-1.43s-.621-.695-1.191-.855l-1.078-.305-1.094 3.859.828.234c.582.168 1.129.117 1.617-.148.496-.262.836-.711 1.016-1.355zm8.613 4.688a2.16 2.16 0 0 1 .289.777 2.65 2.65 0 0 1-.023.906c-.148.797-.57 1.398-1.258 1.813s-1.469.531-2.34.367a4.03 4.03 0 0 1-1.176-.418c-.379-.203-.699-.414-.961-.648l-.359.414-.512-.094.488-3.113.52.102a7.17 7.17 0 0 0 .172 1.102 3.98 3.98 0 0 0 .402.965c.18.289.398.539.664.742.273.203.602.34.992.414.289.059.555.063.785.027s.434-.113.594-.223a1.34 1.34 0 0 0 .395-.441c.102-.18.176-.391.227-.633a1.88 1.88 0 0 0-.125-1.062c-.145-.355-.402-.645-.773-.879l-.879-.547-.855-.551c-.473-.328-.812-.699-1.023-1.125s-.266-.937-.148-1.535a2.27 2.27 0 0 1 .387-.926 2.66 2.66 0 0 1 .746-.68 3.05 3.05 0 0 1 .973-.359c.359-.062.719-.062 1.086.012.414.082.777.211 1.082.402a5.86 5.86 0 0 1 .816.613l.34-.383.516.094-.516 3.008-.512-.098-.129-1.047c-.059-.336-.156-.652-.301-.941-.133-.277-.32-.52-.555-.711-.234-.199-.547-.328-.93-.402a1.5 1.5 0 0 0-1.102.195c-.336.207-.539.496-.605.867-.074.391-.043.73.09 1.023s.359.551.684.781l.84.555.805.508c.23.16.453.328.664.516a3.21 3.21 0 0 1 .527.613zm14.754-.523l-.453-.027c-.031-.164-.086-.355-.172-.578s-.187-.434-.305-.637c-.117-.211-.246-.398-.391-.559s-.285-.258-.434-.289c-.129-.027-.297-.055-.5-.074l-.57-.059-.383-.023-.527 7.43c-.008.148.012.277.066.402s.148.223.297.297c.082.039.242.086.492.16s.438.113.574.133l-.031.465-4.383-.312.031-.465.563-.012c.254-.004.426-.031.527-.062.148-.047.258-.121.332-.223a.79.79 0 0 0 .133-.418l.531-7.492-.379-.027-.508-.023c-.195-.004-.387-.004-.574 0-.148.008-.305.082-.469.223s-.316.309-.465.496-.273.391-.391.602a3.98 3.98 0 0 0-.25.531l-.457-.031.172-2.52 7.816.551 3.938.074-.008.465c-.445 0-.754.023-.941.074s-.27.117-.277.215c0 .027.012.074.035.145l.105.246.199.391.211.422.602 1.164.805 1.516 1.609-2.539c.363-.605.551-.969.559-1.094 0-.102-.039-.18-.105-.242-.074-.062-.176-.109-.293-.148a2.41 2.41 0 0 0-.406-.082l-.41-.043.004-.465 3.215.063-.012.465c-.074.008-.191.031-.352.082s-.281.105-.348.152a2.14 2.14 0 0 0-.355.238c-.059.055-.176.195-.355.434l-.969 1.43-1.105 1.844c-.168.273-.273.496-.328.664s-.09.406-.094.73l-.031 1.762c-.008.156.023.293.078.41.063.109.168.211.316.285a5.16 5.16 0 0 0 .492.137c.234.055.418.086.563.094l-.008.461-4.32-.078.004-.465.555-.039a1.8 1.8 0 0 0 .504-.086c.156-.062.27-.148.328-.258s.094-.25.094-.418l.043-2.246c.008-.066-.035-.199-.117-.383l-.289-.621-.836-1.645-.801-1.52c-.137-.254-.258-.437-.371-.566-.105-.133-.227-.242-.371-.344-.105-.066-.23-.117-.371-.152-.051-.012-.094-.027-.137-.031zm19.797 4.305a4.26 4.26 0 0 0 .422-1.387c.07-.508.074-1.07.027-1.691-.059-.629-.164-1.211-.328-1.73-.176-.523-.391-.961-.664-1.312a2.52 2.52 0 0 0-.973-.789c-.379-.18-.797-.246-1.262-.203-.52.043-.953.199-1.301.469s-.613.613-.812 1.035c-.184.402-.309.859-.375 1.383a8.09 8.09 0 0 0-.027 1.633c.051.625.156 1.188.316 1.676.148.496.367.93.645 1.301.266.367.59.641.961.824s.809.262 1.305.219c.465-.039.875-.187 1.23-.434.355-.254.641-.582.836-.992zm0 0"/><path d="M31.762 89.824c-.168-1.578-.23-3.152-1.098-4.613-.117-.199-.184-.309-.234-.527l-.34-1.602c-.352-2.023-.992-3.82-1.59-5.648-.578-1.926-1.641-2.52-2.559-3.496-.996-1.891-2.191-3.555-2.613-5.977.008-.551.855-1.391 1.289-1.582 2.023.539 3.379 1.527 4.625 2.723.254.242 1.316.457 1.609.645 1.418-.684 3.113-1.258 5.168-1.727l2.137-.57c1.977-1.996 4.855-5.504 5.977-5.27.953.156 1.355.91 1.199 2.266-.629 1.629-1.484 3.484-2.629 5.027-.371.508-.484.531-1.109.711-1.617.477-3.215 1.012-4.773 1.699l-.488.195-.41-.129-.512.098-.398.344-.898.066c-2.383-.051-3.566.813-3.301 2.77l.02 1.281c.008.363.402.648.594.988l.387.773-.02.598.457.711.309 1.164-.105.605c.219.484.387.934.406 1.289l.086 1.75.523 1.758.156.238c.094.121.129.246.117.363l-.02.367c-.004.211.156.277.324.383.141.094.141.117.16.273l.066.563.082.516-.414.66-.367.426-.312.238-.41.078-.285-.047c-.445-.051-.754.09-.805-.379zm4.348-12.211l-.539.379-.973-.359-.371-.785-.148-.559-.145-.402.125-.258.063-.523.129-.258c.367-.773.762-1.398 1.16-2.062l.656.07.637.461.422.391.098.371.273.418.016.504.105.41-.066.328-.129.262-.199.309-.172.383.148.559.098.371.125.445-.25.125-.406-.355zm.852 2.461l.484-.133 1.43-1.918.223-.516.07-.637.117-.297.211-.391.672-.602.582-.074.695.219.68.18.645.465.879.613.188.395.539.52.313.445.211.355.086.449c-.246.582-.594 1.133-1.156 1.629l-.211-.191-.273.602.227.391.023.383-.18.383-.336.223c-1.09.355-2.418.324-3.863.125l-.723-.328-.742-.68-.254-.07-.262-.809zm3.004-.664l.043-.285.129-.258.207-.273.184-.191.297-.094.539.246.273.262-.055.402.098.371.039.266-.199.309-.137-.211-.172.23-.27.051-.406-.191-.336-.211zm24.85-25.996l-.48-.516-.496-.637-.508-.77-.52-.586-.805-.953-.402-.898-.387-.953.043-.949.047-.285-.254-.469.191-.52-.207-.453.148-.234-.246-.652-.043-.555-.336-.57-.289-.547-.199-.469-.371-.645-.477-.691-.477-.695-.316-.316.098-.258-.598-.687-.41-.719-.266-.602-.246-.648s-.254-2.645-.051-3.039 1.453-1.172 1.453-1.172l.059-.645c.535-.754 1.09-1.273 1.672-1.258l.477-.148.609.328.582.738.25.648-.082.391.02.613.547.844.551.66.234.527.004.305.566.793.563.789.078.461 1.797 2.234.043.559.473.871.586.559.727.32c.48.105.891.508 1.145.875.676.945.824 2.551 0 2.344l-.68-.297-.684-.297-.871-.266-.355-.211.039-.766-.422-.672-.359-.52-.625-.457-.617.031-.582.105-.328.223-.187.52-.094.742.176.863.023.609.297.676.898.875.078.457.125.656.129.477.063.328.633.762-.023.41.203.27-.402.609-.094.258-.137.367-.043.465.07.809-.223.445zm2.18-15.621l-.785-.039-.273-.117-.484-.391-.371-.691c-.031-1.16.113-2.16.504-2.961l.445-1.219.633-1.133c.469-.602.996-.953 1.535-1.27l1-.309.938-.391c1.121-.273 1.254.645 1.242 1.613l.219 1.109.152 1.172.137.852.102.707-.379 1.027-.008.879-.238.91-.312.836.074.781c.652 1.227 1.512 1.723 2.578 1.484l1.063-.723 1.438-1.133c.594-.445 1.133-1.023 1.723-1.469l.934-.809.426-.434c.051-.312.031-.578-.141-.758L79 34.668l-.891-1.098-.305-.266-.391-.035-.172-.125-.418-.574.105-.527.418-.039.672.344.293.172.508.438.422.188.492.352.539.238.609.18c.91-.047 1.484.691 1.379 1.578l.082.52-.551.902-.355.594-.406.75-.359.504-.91.789-.516.176-.48.227-.746.336-.371.41-.469.063-.547.152-.539.383-.488.359-.75.465-.609.348-.539.383-.477.324-.703-.043-.609-.137-.539-.238-.41-.223-.488-.48-.621-.625-.34-.547-.285-.434-.508-.445-.285-.434-.164-.648-.168-.516-.371-.203-.34-.285zm-.094-4.637l.313.617.27.34.371.074.504.219.273-.145.402.133.469-.324.328-.168.148-.285-.234-.457-.297-.395-.293-.305-.477-.16-.437.117-.367.148-.406.129-.379.188zm.602 3l.574-.492.387.164.531.156.223.215.582.133.309.359.074.297-.109.301-.125.211-.359-.109-.289-.176-.262.105-.348-.148-.164-.16-.281-.082-.266-.246zm-4.859 3.848l-.34.031-.094.25.129.348.336.188.258-.219.164.254.313.137.242-.148.355-.172.152-.328.148-.305-.02-.258-.328-.293-.27.137-.348-.156-.293.199zm-2.293-4.719l-.52.254-.18.34-.152.414.063.508.215.398.063.328.57.434.383.281.613.148.34-.09.352.031.293-.473.117-.309-.082-.453-.109-.352-.434-.488-.203-.273-.262-.297-.348-.211-.332-.086zm43.886-15.906l.809-.562.523-.254.656-.43.512-.254.652-.207.68-.355.477-.242.828-.266.207-.234c1.621-.484 3.07-.898 4.672-1.016.609-.043 1.086.633.879 1.586l-.078.793-.156.941-.297.309-.602.363-.277.391-.469.41-.199.531-.23.547-.148.555-.246.762-.508.676-.398.129-.328.359-.68.223-.348.285-.375.465-.133.34-.34.324.094.563v.551l.457-.062.891-.16.781-.168.563-.223.57-.187.59-.402.371-.203.793-.258.566-.187.504-.16.395-.129.453-.062c1.578-.031 3.555.023 3.543 2.117l-.461.445-.383.168-.719.234-.57.063-.562.098-.437-.043-.672.008-.402-.039-.773-.215-.52-.043h-.512l-.707.016-.18.063-.477-.012-.812.18-.488.074-.391-.129-.148.301-.656.176-.273.004-.848.191-.691.188-.504.16-.285.094-.109.289-.633-.004-.332.191-.434.395-.578.188c-.023.516-.289.992-1.074 1.41l-.48.242-.43.145-.477.109-.547.008-.617-.094-.41-.039-.426-.117-.43-.117-.301-.363-.105-.477-.113-.645.316-.527.328-.359.813-.309.469-.156.645-.211.359-.117.594-.109.5-.16.328-.105.801-.219.551-.137.371-.332.383-.297.266-.559.043-.395.102-.461.203-.363.246-.379.281-.391.012-.469.199-.281.098-.328-.371-.18-.262-.086-.234-.137-.285-.035-.297.055-.539-.078-.531-.082-.426-.242-.297-.203-.293-.328-.094-.309-.043-.41-.105-.348.043-.266.012-.469-.027-.25zm41.387.891l.137-.402.223-.48.355-.27.297-.508-.316-.227.055-.273.027-.383.266-.473.09-.418.715-.535c.496-.18.984-.129 1.473.145l.605-.402.199-1.176.043-.895c.867-1.344 1.629-1.973 2.277-1.887.793-.16 1.555-.039 2.285.379l.266.605-.035 1.008.148.336.043.637.477.285.309-.285.742-.633.844-.766c.918-1.008 2.031-1.055 2.309-.859.367.238.551 1.207.234 2.734l.285.266.688.297.758.168c.203.414.34.816.266 1.09-.129.457-.645 1.055-1.566.781l-1.77-.191c-.844.449-.949 1.016-.324 1.695l.953.125.527.301.559.207.629.004.609.223c.406.453-.238 2.008-.961 1.996l-.582-.117-.398.078-2.586-.258c-.172.891.105 1.91-.785 1.855-1.773-.105-3.203 1.23-2.414 2.859-.125 1.297-.676 1.863-1.703 2.367-.223.109-.367.438-.613.551-.207.086-.582.871-.77.996-.773 3.25.57 5.609-2.094 5.066a1.22 1.22 0 0 1-.805-.434l-1.059-1.09-.437-.844-.516-.184-.883-.324c-.238-.152-.453-.52-.633-1.363l.359-.883.723-.582c.887-.031 1.617.148 1.711.68l-.273.129-.141.453-.117.805.469.457.742.441.578.098.328-.445.375-.48c.25-.551.012-.941.02-1.414l-.738-.152-.363-.305c-.328-.383-.324-.719.012-1.004l.953-.734c.285-.375.453-1.004.504-1.914l-.328-.57-.125-.551-.348-.352-.391-.539.07-.656.184-.551.441-.355.359-.434.586-.18.727.039c.109.184.402.172.457.352.371 1.16.352 1.789 1.906.848l.508-.098 1.066-.348.672-.434.664-.098.496-.219.023-.383-.508-.184-.437-.105-.348.098-.562-.203-.465-.168-.652.051-.371-.137-.395.078-.367.148-2.363-.297-2.488-.395-.641.332-.82.102-.34.129c-.156.008-.316.137-.465.023l-.453-.164-.707-.09-.797.336c-.156.148-.297.188-.445.172l-.547-.195-.297.117c-3.43.66-4.402.645-3.852-.398.23-.426 1.375-.809 2.496-.91.668-.059 1.047-.121 1.754.148l.598-.059.695-.031.734-.012.727.035.457-.117zm8.168 11.461l-.359-.062-.23.125-.18.242-.254-.094-.523-.125-.281-.105-.258.113-.117.332-.074.316-.094.348-.055.352-.031.266-.074.211-.211.063.172.508.391.52.426.328.43.051.223-.094.316-.094.137-.117.238-.148.23-.016.18-.348.297-.305.117-.16.125-.367-.008-.344.094-.273-.191-.348-.246-.297-.031-.285zm-7.004-11.684l.391-.191.508-.082.316-.148.879.07-.125.754-.512-.012h-.625l-.379.031-.352-.098zm5.871-1.285l-.082-.375.137-.402.234-.531.313-.285.383-.199.41.039.371.137.164.285-.102.301-.145.402-.266.016-.129.234-.145.402-.395.297-.402.035zm29.719 15.23l1.855.672.801.09.48.355.938-.141.941-.148.73-.742a12.37 12.37 0 0 1 3.164-1.988c.836-.371 1.496-.402 1.719.754.16.832-.246 1.902-1.102 3.551-.004.414.16.703.516.879.469.359.996.625.836 1.23-.176.637-.855 1.566-2.918 1.504l-1.215-.266a.93.93 0 0 0-1.059-.012c-.488.297-.551.75-.684 1.258.426 2.797 1.168 5.234 1.996 7.773.227.578.559 1.066.938 1.52.16.195.328.27.555.383.516.258.836.457.887.891.07.504-.266.758-.602.781-.395.031-.512-.008-.871-.137-.824-.367-1.637-.824-2.453-1.289l-.465-.566-.625-1.078-.16-.641-.484-1.773-.027-1.121-.199-.82-.086-.617-.09-.621-.035-1.125-.219-.73-.34-.59-.914-.406-.285.453-.422.207-3.492 1.27-1.23.465-.98.305-1.23-.008-.52-.195-.867-.789-.187-1.156c.57-.73.57-.781 1.313-.324l.434-.078.52.199.504-.195.445.18.48-.109.242-.16.367.035h.613l.434-.078.488-.324.633-.211.5-.191c.691-.41.914-.977.297-1.609l-1.27-.785-.527-.668.102-.539.109-.75.148-.57.402-.602.324-.27zm0 0"/><path d="M218.484 68.457c.242-.285.281-.586.98-.816l1.438-1.059.363-.074.316-.082.602-.395.469.051.348.035.352.039.25.258.566-.172.336.438.254.262.094.469-.086.508-.238.668-.344.254-.504.18-.434.418-.148.5c.473.613.922.602 1.375-.023l.43-.07.344.039.441-.125.582.063.254.258.719.656.172.715.012.582-.078.449-.07.398.293.379.457.102c.699.629 2.391.137 3.289.031 1.387.23 1.43 1.434.445 2.387l-.504.117-.16.27-.371.422-.113.625-1.187.684c-1.555.195-1.324-.59-3.051-.906l-.781.379-.082.453-.402.246-.375.477-.316.426.004.641.418.68-.133.738.051.754c-1.238 1.574-2.543 2.125-4 .441l-.078-.516-.441-.582-.328-.496-.359-.328-.23-.719c.164-1.461 1.414-.016 1.563.223l.543.293.434-.414-.012-.641c-.285-1.75-1.156-3.094-2.977-3.316l-.867.543-.57.867-1.133.73-.582.582-.191.73-.117.684-.074.395.18.367-.281.891.074.586.211.746c-.234.973-.734 1.305-1.254 1.566-1.27.629-1.395.078-1.84-.621-.699-.508-1.703-1.027-2.719-.934-.762-.18-1.48-.59-2.187-1.07l-.672-.906c-.297-.551-.836-1.02-.949-1.789-.066-.477.242-.934.551-1.348.758-1.043 1.371-1.234 1.641.465-.035.48-.066.938.434 1.398l.23.574c.828.637 1.492.832 1.777.02.215-1.367-.367-2.457-1.172-3.473-.434-.355-.629-.625-.285-.898.297-.336.906-.234 1.504.391l.727.941c.434.352.934.332 1.496-.074l1.34-.844.605-.051.516-.234.063-.34-.145-.531.086-.508.316-.43.453.105c.477.012.602-.359.496-.754l-.738-.539-.469-.051-.496-.223-.379-.555-.379-.219-.648-.359-.383-.152-.539-.348-.621-.18-.227-.371-.59-.062-.277-.434c-.633.043-.699-.043-1.047-.414-.719-.781-1.437-1.691-1.309-2.086-.223-.582.344-.801 1.688-.645.754.086 1.059.922 1.496 1.473l.57.496.328.496.5.164.465.398.539.348.605.234.449.508.609.242.727-.387.582-.285.434-.414.445-.523.305-.375zm2.582 3.789l-.551-.914-.375.09-.254.027h-.52l-.344.5.094.246-.125.254-.066.398-.191.141.098.199-.043.266.336.465.211.188.371-.207.332-.18.207-.246.195.156.199-.062.266-.242.074-.262.234-.238-.055-.305zm2.027.727l.203-.062.293-.074.238.023.191.02.25.137.23.266.109.309v.324l-.055.313-.262.371-.074.125-.32.262-.168.172-.219-.023-.25.023-.176-.098-.18-.422-.277-.273-.113-.148.059-.18.047-.289.07-.371.141-.176zm0 0"/></g><g fill="rgb(70.196078%,10.196078%,14.509804%)"><path d="M126 35.664c44.168 0 80.934 31.711 88.785 73.602h-.867c-7.84-41.414-44.227-72.754-87.918-72.754s-80.074 31.34-87.91 72.758h-.867C45.066 67.379 81.836 35.664 126 35.664zm84.164 123.199C197.02 192.5 164.289 216.332 126 216.332s-71.016-23.836-84.164-57.469h.914c13.109 33.156 45.445 56.621 83.25 56.621s70.148-23.461 83.25-56.621zm0 0"/><path d="M208.141 113.152h-4.379v3.039h4.379zm-5.32 4.508h45.578v30.734H202.82v6.512h42.129v.949H7.93v-.949h41.156v-6.512H3.527V117.66h45.559v-7.187H5.629v-2.055h43.457l-.113-11.07h-1.359v-2.695h46.094V91.77h14.832v2.891h34.883v-2.887h14.836v2.891h46.039v2.695h-1.477v11.07h44.07v2.055h-44.07zM43.605 142.828h4.383v3.039h-4.383zm-7.664 0h4.375v3.039h-4.375zm-7.672 0h4.379v3.039H28.27zm-7.672 0h4.379v3.039h-4.379zm-7.672 0h4.379v3.039h-4.379zm-7.668 0h4.383v3.039H5.258v-3.039zm38.348-7.418h4.383v3.035h-4.383zm-7.664 0h4.375v3.035h-4.375zm-7.672 0h4.379v3.035H28.27zm-7.672 0h4.379v3.035h-4.379zm-7.672 0h4.379v3.035h-4.379zm-7.668 0h4.383v3.035H5.258v-3.035zm38.348-7.422h4.383v3.039h-4.383zm-7.664 0h4.375v3.039h-4.375zm-7.672 0h4.379v3.039H28.27zm-7.672 0h4.379v3.039h-4.379zm-7.672 0h4.379v3.039h-4.379zm-7.668 0h4.383v3.039H5.258v-3.039zm38.348-7.418h4.383v3.039h-4.383zm-7.664 0h4.375v3.039h-4.375zm-7.672 0h4.379v3.039H28.27zm-7.672 0h4.379v3.039h-4.379zm-7.672 0h4.379v3.039h-4.379zm-7.668 0h4.383v3.039H5.258v-3.039zm44.773-15.738h44.746V97.34H49.926zm45.699 0h10.793V97.34H95.73zm11.738 0H144.5V97.34h-37.031zm37.977 0h10.793V97.34h-10.793zm11.742 0h44.688V97.34h-44.687zm44.688 34.949h-44.687v15.125h44.688zm-45.637 0h-10.805v15.125h10.805zm-12.328 0h-10.937v15.125h1.422v-5.695h7.77v5.695h1.746zm-12.461 0h-10.941v15.125h1.664v-5.695h7.773v5.695h1.504zm-12.465 0h-10.937v15.125h1.906v-5.695h7.77v5.695h1.262zm-12.461 0H95.73v15.125h10.793zm-11.746 0H50.031v15.125h44.746zm67.652 2.34h-4.383v3.746h4.383zM7.93 159.922v-1.566h237.02v1.566zm35.676-9.672h4.383v3.043h-4.383zm-7.664 0h4.375v3.043h-4.375zm-7.672 0h4.379v3.043H28.27zm-7.672 0h4.379v3.043h-4.379zm-7.672 0h4.379v3.043h-4.379zm-7.668 0h4.383v3.043H5.258v-3.043zm147.773-1.039h-4.379v3.746h4.379zm-49.715 0H98.93v3.746h4.387zm-9.25 0h-4.379v3.746h4.379zm-7.672 0h-4.379v3.746h4.379zm-7.672 0h-4.379v3.746h4.379zm-7.672 0h-4.375v3.746h4.375zm-7.664 0h-4.383v3.746h4.383zm-7.672 0h-4.383v3.746h4.383zm106.715 0h-4.383v3.746h4.383zm7.672 0h-4.383v3.746h4.383zm7.664 0h-4.379v3.746h4.379zm7.672 0h-4.379v3.746h4.379zm7.672 0h-4.379v3.746h4.379zm7.668 0h-4.375v3.746h4.375zm7.363 1.039h-4.379v3.043h4.379zm7.672 0h-4.379v3.043h4.379zm7.672 0h-4.379v3.043h4.379zm7.668 0h-4.375v3.043h4.375zm7.672 0h-4.383v3.043h4.383zm7.672 0h-4.383v3.043h4.383zm-190.781-8.129h-4.383v3.746h4.383zm7.672 0h-4.383v3.746h4.383zm7.664 0h-4.375v3.746h4.375zm7.672 0h-4.379v3.746h4.379zm7.672 0h-4.379v3.746h4.379zm7.672 0h-4.379v3.746h4.379zm9.25 0H98.93v3.746h4.387zm6.637 0h7.77v3.547h-7.77zm12.219 0h7.773v3.547h-7.773zm12.223 0h7.77v3.547h-7.77zm35.707 0h-4.383v3.746h4.383zm7.664 0h-4.379v3.746h4.379zm7.672 0h-4.379v3.746h4.379zm7.672 0h-4.379v3.746h4.379zm7.668 0h-4.375v3.746h4.375zm-47.746 0h-4.379v3.746h4.379zM43.605 113.152h4.383v3.039h-4.383zm-7.664 0h4.375v3.039h-4.375zm-7.672 0h4.379v3.039H28.27zm-7.672 0h4.379v3.039h-4.379zm-7.672 0h4.379v3.039h-4.379zm-7.668 0h4.383v3.039H5.258v-3.039zM157.34 94.648V92.68h-12.996v1.969zm-49.715 0V92.68H94.621v1.969zm45.406 5.164h-4.379v3.039h4.379zm9.465 0h-4.383v3.039h4.383zm7.629 0h-4.375v3.039h4.375zm7.629 0h-4.379v3.039h4.379zm7.629 0h-4.379v3.039h4.379zm7.625 0h-4.375v3.039h4.375zm7.629 0h-4.379v3.039h4.379zm-66.242 0h7.77v3.039h-7.77zm-12.223 0h7.773v3.039h-7.773zm-12.219 0h7.77v3.039h-7.77zm-11.023 0h4.387v3.039H98.93zm-9.457 0h4.375v3.039h-4.375zm-7.629 0h4.375v3.039h-4.375zm-7.633 0h4.383v3.039h-4.383zm-7.629 0h4.383v3.039h-4.383zm-7.629 0h4.379v3.039h-4.379zm-7.625 0h4.375v3.039h-4.375zm164.484 13.34h-4.379v3.039h4.379zm7.672 0h-4.379v3.039h4.379zm7.668 0h-4.375v3.039h4.375zm7.672 0h-4.383v3.039h4.383zm7.672 0h-4.383v3.039h4.383zM51.328 133.156h4.375v3.039h-4.375zm7.625 0h4.379v3.039h-4.379zm7.629 0h4.383v3.039h-4.383zm7.629 0h4.383v3.039h-4.383zm7.633 0h4.375v3.039h-4.375zm7.629 0h4.375v3.039h-4.375zm9.457 0h4.387v3.039H98.93zm11.023 0h7.77v3.039h-7.77zm12.219 0h7.773v3.039h-7.773zm12.223 0h7.77v3.039h-7.77zm66.242 0h-4.379v3.039h4.379zm-7.629 0h-4.375v3.039h4.375zm-7.625 0h-4.379v3.039h4.379zm-7.629 0h-4.379v3.039h4.379zm-7.629 0h-4.375v3.039h4.375zm-7.629 0h-4.383v3.039h4.383zm-9.465 0h-4.379v3.039h4.379zm0-8.195h-4.379v3.031h4.379zm9.465 0h-4.383v3.031h4.383zm7.629 0h-4.375v3.031h4.375zm7.629 0h-4.379v3.031h4.379zm7.629 0h-4.379v3.031h4.379zm7.625 0h-4.375v3.031h4.375zm7.629 0h-4.379v3.031h4.379zm-66.242 0h7.77v3.031h-7.77zm-12.223 0h7.773v3.031h-7.773zm-12.219 0h7.77v3.031h-7.77zm-11.023 0h4.387v3.031H98.93zm-9.457 0h4.375v3.031h-4.375zm-7.629 0h4.375v3.031h-4.375zm-7.633 0h4.383v3.031h-4.383zm-7.629 0h4.383v3.031h-4.383zm-7.629 0h4.379v3.031h-4.379zm-7.625 0h4.375v3.031h-4.375zm0-8.199h4.375v3.035h-4.375zm7.625 0h4.379v3.035h-4.379zm7.629 0h4.383v3.035h-4.383zm7.629 0h4.383v3.035h-4.383zm7.633 0h4.375v3.035h-4.375zm7.629 0h4.375v3.035h-4.375zm9.457 0h4.387v3.035H98.93zm11.023 0h7.77v3.035h-7.77zm12.219 0h7.773v3.035h-7.773zm12.223 0h7.77v3.035h-7.77zm66.242 0h-4.379v3.035h4.379zm-7.629 0h-4.375v3.035h4.375zm-7.625 0h-4.379v3.035h4.379zm-7.629 0h-4.379v3.035h4.379zm-7.629 0h-4.375v3.035h4.375zm-7.629 0h-4.383v3.035h4.383zm-9.465 0h-4.379v3.035h4.379zm-101.703-8.195h4.375v3.039h-4.375zm7.625 0h4.379v3.039h-4.379zm7.629 0h4.383v3.039h-4.383zm7.629 0h4.383v3.039h-4.383zm7.633 0h4.375v3.039h-4.375zm7.629 0h4.375v3.039h-4.375zm9.457 0h4.387v3.039H98.93zm11.023 0h7.77v3.039h-7.77zm12.219 0h7.773v3.039h-7.773zm12.223 0h7.77v3.039h-7.77zm66.242 0h-4.379v3.039h4.379zm-7.629 0h-4.375v3.039h4.375zm-7.625 0h-4.379v3.039h4.379zm-7.629 0h-4.379v3.039h4.379zm-7.629 0h-4.375v3.039h4.375zm-7.629 0h-4.383v3.039h4.383zm-9.465 0h-4.379v3.039h4.379zm55.109 34.262h-4.379v3.039h4.379zm7.672 0h-4.379v3.039h4.379zm7.672 0h-4.379v3.039h4.379zm7.668 0h-4.375v3.039h4.375zm7.672 0h-4.383v3.039h4.383zm7.672 0h-4.383v3.039h4.383zm-38.355-7.418h-4.379v3.035h4.379zm7.672 0h-4.379v3.035h4.379zm7.672 0h-4.379v3.035h4.379zm7.668 0h-4.375v3.035h4.375zm7.672 0h-4.383v3.035h4.383zm7.672 0h-4.383v3.035h4.383zm-38.355-7.422h-4.379v3.039h4.379zm7.672 0h-4.379v3.039h4.379zm7.672 0h-4.379v3.039h4.379zm7.668 0h-4.375v3.039h4.375zm7.672 0h-4.383v3.039h4.383zm7.672 0h-4.383v3.039h4.383zm-38.355-7.418h-4.379v3.039h4.379zm7.672 0h-4.379v3.039h4.379zm7.672 0h-4.379v3.039h4.379zm7.668 0h-4.375v3.039h4.375zm7.672 0h-4.383v3.039h4.383zm7.672 0h-4.383v3.039h4.383zm0 0"/><path d="M126 0c69.578 0 126 56.422 126 126s-56.422 126-126 126C56.43 252 0 195.578 0 126S56.43 0 126 0zm0 5.621c66.477 0 120.383 53.91 120.383 120.379S192.477 246.379 126 246.379C59.531 246.379 5.621 192.469 5.621 126S59.531 5.621 126 5.621zm-17.613 168.813h-9.098v-.945h9.098zm4.777 4.75h-1.832v-7.898h-2.395v-.715c.957 0 1.703-.141 2.234-.414s.879-.691 1.039-1.242h.953zm9.574-5.227c0 1.625-.391 2.922-1.16 3.891s-1.875 1.453-3.316 1.453c-1.004 0-1.82-.277-2.43-.828-.609-.559-.922-1.172-.922-1.84h1.84c0 .395.141.754.441 1.07.289.316.672.477 1.156.477.793 0 1.395-.332 1.797-1.008.395-.676.648-1.66.754-2.973a2.66 2.66 0 0 1-1.113 1.008 3.57 3.57 0 0 1-1.598.359c-1.016 0-1.84-.277-2.477-.828s-.961-1.344-.961-2.379c0-1.027.324-1.863.961-2.492s1.598-.949 2.871-.949 2.293.398 3.035 1.188c.75.789 1.121 2.07 1.121 3.852zm-2-1.367c0-.871-.199-1.523-.594-1.957-.402-.434-.949-.656-1.641-.656-.477 0-.906.168-1.277.504s-.559.957-.559 1.867c0 .676.148 1.195.441 1.574s.754.563 1.395.563c.691 0 1.238-.18 1.641-.531.395-.355.594-.805.594-1.363zm11.832 3.98h-1.68v2.613h-1.832v-2.613h-5.348v-1.125l5.348-6.531h1.832v6.531h1.68zm-3.512-1.125v-4.391l-3.598 4.391zm12.391.063c0 1.188-.391 2.117-1.16 2.785-.773.676-1.797 1.008-3.078 1.008-1.113 0-2.027-.273-2.746-.828-.727-.559-1.109-1.309-1.16-2.262h1.832c0 .594.188 1.07.559 1.426s.902.531 1.598.531 1.238-.215 1.633-.656c.402-.434.602-1.109.602-2.02 0-.793-.172-1.379-.52-1.75-.348-.379-.812-.562-1.395-.562-.48 0-.891.078-1.238.234s-.672.434-.996.828h-1.598l.484-5.227h6.859v1.129h-5.344l-.32 2.73a3.29 3.29 0 0 1 1.035-.531c.375-.117.879-.18 1.516-.18 1.016 0 1.84.285 2.477.859.637.59.961 1.41.961 2.484zm11.129-1.074h-9.102v-.945h9.102zm0 0"/></g></svg>