<svg xmlns="http://www.w3.org/2000/svg" version="1.1" id="Ebene_1" x="0" y="0" viewBox="0 0 891.17 216.62" xml:space="preserve" width="891.17" height="216.62"><style type="text/css" id="style3918">.st0{fill:#006ab3}</style><g id="g3934" transform="translate(-133.9 -114.71)"><path class="st0" d="M629.89 162.94v75.45c0 44.98-33.69 75.45-75.26 75.45-41.56 0-75.26-30.48-75.26-75.45v-75.45h38.14v72.17c0 23.32 16.62 39.26 37.12 39.26s37.12-15.94 37.12-39.26v-72.17z" id="path3920" style="fill:#006ab3"/><path class="st0" d="M172.04 237.78c0-23.31 16.62-39.26 37.12-39.26s37.12 15.94 37.12 39.26v72.17h38.14V234.5c0-44.98-33.69-75.45-75.26-75.45-13.51 0-26.16 3.27-37.12 9.16v-53.5H133.9v195.24h38.14" id="path3922" style="fill:#006ab3"/><path class="st0" d="M345.41 237.78c0-23.31 16.62-39.26 37.12-39.26s37.12 15.94 37.12 39.26v72.17h38.14V234.5c0-44.98-33.69-75.45-75.26-75.45-13.51 0-26.16 3.27-37.12 9.16v-53.5h-38.14v195.24h38.14" id="path3924" style="fill:#006ab3"/><path d="M928.13 275.36c-.46-.28-1.19-.54-2.17-.77s-2.05-.34-3.19-.34q-2.355 0-4.23.84c-1.25.56-2.32 1.53-3.22 2.9a7.5 7.5 0 0 0-1.23 3.35c-.14 1.21-.21 1.64-.21 2.7v2.8h-4.23v2.64h4.23v20.53h4.02v-20.53h6.48v-2.64h-6.48v-2.64c0-.88.04-1.1.11-2.09.07-.98.25-1.87.53-2.66s.71-1.45 1.26-1.98 1.33-.79 2.33-.79c1.04 0 1.93.18 2.68.53s1.38.72 1.87 1.11zm-37.48 34.65h3.96v-11.14c0-.77.03-1.55.08-2.32s.17-1.51.35-2.22c.39-1.44.97-2.65 1.74-3.62s1.63-1.45 2.6-1.45c1.61 0 2.46.86 2.57 2.59l3.48-1.21c-.04-.78-.2-1.44-.48-2.01-.29-.56-.64-1.01-1.07-1.35-.43-.33-.9-.58-1.42-.74q-.78-.24-1.47-.24c-1.39 0-2.61.39-3.64 1.16-1.04.77-1.91 1.81-2.63 3.11l-.54-4.01-4.02.37c.04.18.08.48.13.92s.11.94.16 1.51c.05.56.1 1.14.13 1.74.04.6.06 1.16.06 1.69v17.22zm-13.42-4.96c-1.23 1.72-2.96 2.59-5.17 2.59-2.22 0-3.94-.86-5.17-2.59-1.23-1.72-1.85-4.01-1.85-6.86 0-2.82.61-5.07 1.82-6.76s2.95-2.53 5.2-2.53 3.98.84 5.2 2.53 1.82 3.94 1.82 6.76c-.01 2.85-.62 5.14-1.85 6.86m5.59-11.74c-.5-1.5-1.23-2.77-2.2-3.83-.96-1.06-2.17-1.87-3.62-2.45s-3.1-.87-4.96-.87-3.5.29-4.93.87-2.63 1.4-3.62 2.45c-.98 1.06-1.72 2.33-2.22 3.83s-.75 3.16-.75 4.99c0 1.9.29 3.62.88 5.15s1.4 2.83 2.44 3.91a10.8 10.8 0 0 0 3.67 2.48q2.115.87 4.53.87c1.61 0 3.11-.29 4.53-.87a10.8 10.8 0 0 0 3.67-2.48c1.04-1.07 1.85-2.38 2.44-3.91s.88-3.24.88-5.15c.01-1.84-.24-3.5-.74-4.99m-32.68 16.97 4.02-.37a10 10 0 0 1-.13-.92c-.05-.44-.11-.93-.16-1.48-.05-.54-.1-1.12-.13-1.74-.04-.61-.05-1.19-.05-1.72v-29.54h-3.86v15.65q-.855-1.635-2.76-2.82c-1.27-.79-2.76-1.19-4.47-1.19-1.46 0-2.84.26-4.13.79a9.5 9.5 0 0 0-3.37 2.35c-.96 1.04-1.73 2.34-2.3 3.9-.57 1.57-.86 3.37-.86 5.41 0 1.65.2 3.21.62 4.67.41 1.46 1.04 2.75 1.87 3.85.84 1.11 1.91 1.98 3.22 2.61 1.3.63 2.85.95 4.63.95 1.14 0 2.13-.16 2.98-.47.84-.32 1.55-.7 2.14-1.16s1.06-.94 1.42-1.45.62-.96.8-1.35zm-1.07-7.18c-.54 1.27-1.19 2.24-1.96 2.93s-1.57 1.14-2.41 1.37-1.54.34-2.12.34c-1.07 0-2-.24-2.79-.71q-1.185-.705-1.95-1.98c-.52-.84-.9-1.85-1.15-3.01s-.37-2.41-.37-3.75c0-1.37.16-2.63.48-3.77s.78-2.12 1.37-2.93 1.29-1.43 2.12-1.87c.82-.44 1.72-.66 2.68-.66.93 0 1.81.17 2.65.5s1.57.87 2.2 1.61c.62.74 1.12 1.67 1.5 2.8s.56 2.48.56 4.06c-.01 2.11-.27 3.8-.81 5.07m-24.48-28.59h-4.23v35.5h4.23zm-17.43 16.13c.91 1.26 1.37 2.96 1.37 5.07v.79H796.9c.14-1.02.39-2 .75-2.93s.81-1.76 1.37-2.48a6.4 6.4 0 0 1 1.98-1.72c.77-.42 1.63-.63 2.6-.63 1.46 0 2.64.63 3.56 1.9m5.54 8.5v-2.32c0-1.3-.15-2.59-.46-3.88-.3-1.28-.81-2.43-1.53-3.43-.71-1-1.67-1.81-2.86-2.43q-1.8-.93-4.53-.93c-1.5 0-2.9.3-4.21.9-1.3.6-2.44 1.43-3.4 2.51-.96 1.07-1.72 2.36-2.28 3.85s-.83 3.16-.83 4.99c0 4.05.95 7.11 2.84 9.18 1.89 2.08 4.7 3.11 8.41 3.11 1.93 0 3.62-.39 5.09-1.16 1.46-.77 2.84-1.9 4.12-3.38l-1.66-1.69c-1.57 1.37-2.92 2.27-4.05 2.69-1.12.42-2.22.63-3.29.63-2.36 0-4.13-.75-5.3-2.24s-1.84-3.64-1.98-6.42h15.92zm-26.65 1.29a7 7 0 0 0-1.72-2.03q-1.05-.84-2.28-1.32c-.82-.32-1.63-.58-2.41-.79-1.47-.39-2.65-.93-3.56-1.64-.91-.7-1.37-1.65-1.37-2.85 0-.92.4-1.68 1.21-2.3.8-.62 1.83-.93 3.08-.93 1.32 0 2.35.25 3.08.74s1.37 1 1.9 1.53l2.04-2.58c-.57-.49-1.4-.97-2.49-1.43s-2.55-.69-4.37-.69c-1.11 0-2.16.13-3.16.4-1 .26-1.88.66-2.65 1.19s-1.38 1.19-1.85 2-.7 1.74-.7 2.8c0 1.23.21 2.26.64 3.09s.98 1.52 1.66 2.06 1.41.97 2.2 1.27 1.53.55 2.25.76c1.5.42 2.71.94 3.62 1.56s1.37 1.65 1.37 3.09c0 1.23-.37 2.17-1.1 2.82s-1.78.98-3.14.98c-.71 0-1.38-.11-2.01-.34q-.945-.345-1.74-.87c-.54-.35-1.01-.71-1.42-1.08s-.74-.71-.99-1.03l-2.04 3.22c2.25 1.76 4.96 2.64 8.14 2.64 1.18 0 2.29-.16 3.32-.47 1.04-.32 1.93-.78 2.68-1.4.75-.61 1.35-1.38 1.79-2.3.45-.92.67-1.97.67-3.17.02-1.16-.21-2.14-.65-2.93m-22.34 0a7.1 7.1 0 0 0-1.71-2.03q-1.05-.84-2.28-1.32c-.82-.32-1.62-.58-2.41-.79-1.46-.39-2.65-.93-3.56-1.64-.91-.7-1.37-1.65-1.37-2.85 0-.92.4-1.68 1.2-2.3s1.83-.93 3.08-.93c1.32 0 2.35.25 3.08.74s1.37 1 1.9 1.53l2.04-2.58c-.57-.49-1.4-.97-2.49-1.43s-2.54-.69-4.37-.69c-1.11 0-2.16.13-3.16.4-1 .26-1.88.66-2.65 1.19s-1.38 1.19-1.85 2c-.46.81-.7 1.74-.7 2.8 0 1.23.21 2.26.64 3.09s.98 1.52 1.66 2.06 1.41.97 2.2 1.27 1.54.55 2.25.76c1.5.42 2.71.94 3.62 1.56s1.37 1.65 1.37 3.09c0 1.23-.37 2.17-1.1 2.82s-1.78.98-3.13.98c-.72 0-1.39-.11-2.01-.34q-.945-.345-1.74-.87c-.54-.35-1.01-.71-1.42-1.08s-.74-.71-.99-1.03l-2.04 3.22c2.25 1.76 4.96 2.64 8.14 2.64 1.18 0 2.29-.16 3.32-.47 1.04-.32 1.93-.78 2.68-1.4.75-.61 1.35-1.38 1.79-2.3.45-.92.67-1.97.67-3.17.01-1.16-.22-2.14-.66-2.93m-36.46-23.41c-.46-.47-1.05-.71-1.77-.71a2.4 2.4 0 0 0-1.74.71c-.48.47-.72 1.03-.72 1.66s.24 1.19.72 1.66a2.4 2.4 0 0 0 1.74.71c.72 0 1.3-.24 1.77-.71.46-.48.7-1.03.7-1.66s-.24-1.19-.7-1.66m9.88 0a2.4 2.4 0 0 0-1.74-.71c-.72 0-1.31.24-1.77.71s-.7 1.03-.7 1.66.23 1.19.7 1.66c.46.47 1.05.71 1.77.71a2.4 2.4 0 0 0 1.74-.71c.48-.48.73-1.03.73-1.66s-.24-1.19-.73-1.66m-16.63 9.82v14.57c0 1.23.05 2.41.16 3.54.11 1.12.43 2.11.96 2.96.53.84 1.35 1.52 2.44 2.03s2.6.77 4.53.77c1.21 0 2.28-.19 3.19-.55q1.365-.555 2.31-1.29c.62-.49 1.12-.99 1.47-1.48.36-.49.63-.86.8-1.11l.53 4.01 4.02-.37a10 10 0 0 1-.13-.92c-.05-.44-.11-.93-.16-1.48a39 39 0 0 1-.18-3.46v-17.21h-4.18v12.98c0 1.06-.17 2.06-.51 3.01s-.8 1.78-1.39 2.48-1.29 1.26-2.09 1.66-1.69.61-2.65.61c-1.07 0-1.94-.13-2.6-.4-.66-.26-1.16-.66-1.5-1.19s-.56-1.18-.67-1.95-.16-1.65-.16-2.64v-14.57zm-13.13 13.35c-.68 1.83-1.61 3.27-2.78 4.33a9.7 9.7 0 0 1-4.07 2.19c-1.54.4-3.16.61-4.88.61-.68 0-1.36-.02-2.04-.05q-1.02-.06-2.25-.21l-.18-28.07c.61-.04 1.22-.05 1.85-.05h1.79c4.68 0 8.08 1.15 10.21 3.46 2.12 2.31 3.37 6.34 3.37 10.84 0 2.8-.34 5.12-1.02 6.95m4.4-14.88c-.8-2.04-1.96-3.73-3.45-5.07-1.5-1.34-3.32-2.34-5.47-3.01-2.14-.67-4.54-1-7.18-1-1.11 0-1.98.01-2.63.03-.64.02-1.23.04-1.77.05-.53.02-1.12.04-1.77.05-.64.02-1.52.05-2.63.08l.18 33.56c1.04 0 2.31.02 3.83.05s3.15.05 4.9.05q2.685 0 5.73-.69c2.03-.46 3.91-1.3 5.62-2.53 1.72-1.23 3.14-2.96 4.29-5.17 1.14-2.22 1.71-5.09 1.71-8.6.03-2.73-.55-5.76-1.36-7.8" id="path3926"/><path d="M923.59 249.82c-.5.25-.95.43-1.36.55s-.86.18-1.36.18c-.28 0-.62-.05-1.01-.16s-.69-.25-.91-.42c-.5-.39-.79-.86-.88-1.42s-.13-1.44-.13-2.64v-13.72h5.53v-2.64h-5.53v-6.81l-4.04.95v5.86h-3.94v2.64h3.94v14.09c0 1.19.04 2.23.13 3.09s.36 1.59.82 2.19c.5.67 1.14 1.14 1.94 1.42s1.64.42 2.53.42c.92 0 1.84-.14 2.74-.42.91-.28 1.68-.67 2.32-1.16zm-31.55-29.9c-.46-.47-1.05-.71-1.75-.71-.67 0-1.25.24-1.73.71s-.72 1.03-.72 1.66.24 1.19.72 1.66 1.06.71 1.73.71c.71 0 1.29-.24 1.75-.71s.69-1.03.69-1.66-.23-1.19-.69-1.66m9.82 0c-.48-.47-1.06-.71-1.73-.71-.71 0-1.3.24-1.76.71s-.69 1.03-.69 1.66.23 1.19.69 1.66 1.05.71 1.76.71c.67 0 1.25-.24 1.73-.71s.72-1.03.72-1.66-.24-1.19-.72-1.66m-2.56 23.8c-.02.69-.06 1.36-.13 2.03-.11.88-.36 1.63-.77 2.25-.41.61-.88 1.11-1.41 1.48s-1.08.63-1.65.79q-.855.24-1.44.24c-.53 0-1.05-.07-1.54-.21-.5-.14-.93-.37-1.3-.69s-.67-.73-.91-1.24c-.23-.51-.34-1.15-.34-1.93q0-1.155.48-1.95t1.17-1.29c.46-.33.94-.59 1.44-.77s.92-.3 1.28-.37q.645-.165 1.41-.21c.51-.03 1.01-.07 1.49-.11.48-.03.92-.05 1.33-.05h.93c-.01.67-.02 1.35-.04 2.03m7.48 6.52c-.64.18-1.26.26-1.86.26-.5 0-.9-.17-1.2-.5s-.45-1.03-.45-2.08v-12.25q0-.63-.03-1.32c-.02-.46-.08-.92-.19-1.37-.11-.46-.28-.9-.53-1.32s-.58-.79-1.01-1.11c-.92-.7-1.94-1.16-3.06-1.37s-2.19-.32-3.22-.32c-.96 0-1.91.09-2.85.26q-1.41.27-2.58.9a6.4 6.4 0 0 0-1.99 1.66c-.55.69-.92 1.56-1.09 2.61l3.24 1.06c.11-.53.25-1.02.43-1.48s.45-.87.82-1.24.86-.66 1.46-.87 1.37-.32 2.29-.32c.5 0 .98.05 1.44.13.46.09.88.24 1.28.45.6.32 1.03.72 1.28 1.21s.37 1.2.37 2.11v4.01c-1.2 0-2.24.02-3.11.05-.87.04-1.71.11-2.53.21-1.13.18-2.18.46-3.14.84-.96.39-1.79.89-2.5 1.51q-1.065.915-1.68 2.19c-.41.85-.61 1.79-.61 2.85s.2 1.99.59 2.8.9 1.48 1.52 2c.62.53 1.32.93 2.1 1.19s1.58.4 2.39.4c1.92 0 3.47-.42 4.66-1.27s2.01-1.81 2.47-2.9c.11 1.06.47 1.97 1.09 2.74s1.53 1.16 2.74 1.16c.71 0 1.39-.07 2.05-.21s1.12-.25 1.41-.32zm-26.82-.42c-.5.25-.95.43-1.36.55s-.86.18-1.36.18c-.28 0-.62-.05-1.01-.16s-.69-.25-.91-.42c-.5-.39-.79-.86-.88-1.42s-.13-1.44-.13-2.64v-13.72h5.53v-2.64h-5.53v-6.81l-4.04.95v5.86h-3.94v2.64h3.94v14.09c0 1.19.04 2.23.13 3.09s.36 1.59.83 2.19c.5.67 1.14 1.14 1.94 1.42s1.64.42 2.53.42c.92 0 1.84-.14 2.74-.42.91-.28 1.68-.67 2.32-1.16zm-20.59-20.27h-4.26v23.17h4.26zm-.21-11.22c-.53-.54-1.15-.82-1.86-.82-.74 0-1.38.27-1.92.82-.53.55-.8 1.17-.8 1.87 0 .71.26 1.32.8 1.85.53.53 1.17.79 1.92.79.71 0 1.33-.26 1.86-.79s.8-1.14.8-1.85c0-.7-.27-1.32-.8-1.87m-12.26 24.81a7 7 0 0 0-1.7-2.03c-.69-.56-1.45-1-2.26-1.32-.82-.32-1.61-.58-2.39-.79-1.45-.39-2.63-.93-3.54-1.64-.9-.7-1.36-1.65-1.36-2.85 0-.91.4-1.68 1.2-2.3.8-.61 1.82-.92 3.06-.92 1.31 0 2.33.25 3.06.74q1.095.735 1.89 1.53l2.02-2.59c-.57-.49-1.39-.97-2.47-1.42-1.08-.46-2.53-.69-4.34-.69-1.1 0-2.15.13-3.14.4-.99.26-1.87.66-2.63 1.19s-1.38 1.2-1.84 2.01-.69 1.74-.69 2.8c0 1.23.21 2.26.64 3.09.42.83.98 1.51 1.65 2.06s1.4.97 2.18 1.27 1.52.55 2.24.77c1.49.42 2.69.94 3.59 1.56s1.36 1.65 1.36 3.09c0 1.23-.36 2.17-1.09 2.82s-1.77.98-3.11.98c-.71 0-1.38-.11-1.99-.34-.62-.23-1.2-.52-1.73-.87q-.795-.525-1.41-1.08c-.41-.37-.74-.71-.99-1.03l-2.02 3.22c2.23 1.76 4.93 2.64 8.09 2.64q1.755 0 3.3-.48c1.03-.32 1.92-.78 2.66-1.4.75-.62 1.34-1.38 1.78-2.3s.66-1.97.66-3.17c-.02-1.18-.24-2.16-.68-2.95m-34.24 9.58h3.94v-11.14c0-.77.03-1.55.08-2.32s.17-1.51.35-2.22c.39-1.44.97-2.65 1.73-3.62s1.62-1.45 2.58-1.45c1.59 0 2.45.86 2.55 2.58l3.46-1.21c-.04-.77-.2-1.44-.48-2s-.64-1.01-1.06-1.35-.9-.58-1.41-.74c-.52-.16-1-.24-1.46-.24-1.38 0-2.59.39-3.62 1.16s-1.9 1.81-2.61 3.11l-.53-4.01-3.99.37c.03.18.08.48.13.93.05.44.11.94.16 1.5s.1 1.14.13 1.74.05 1.16.05 1.69zm-12.85-19.37c.9 1.27 1.36 2.96 1.36 5.07v.79h-11.55c.14-1.02.39-1.99.75-2.93.35-.93.8-1.76 1.36-2.48.55-.72 1.2-1.29 1.97-1.72q1.14-.63 2.58-.63c1.45 0 2.63.63 3.53 1.9m5.51 8.5v-2.32c0-1.3-.15-2.59-.45-3.88-.3-1.28-.81-2.43-1.52-3.43q-1.065-1.5-2.85-2.43c-1.19-.61-2.69-.92-4.5-.92-1.49 0-2.88.3-4.18.9s-2.42 1.44-3.38 2.51-1.71 2.36-2.26 3.85c-.55 1.5-.83 3.16-.83 4.99 0 4.05.94 7.11 2.82 9.19s4.66 3.11 8.35 3.11c1.92 0 3.6-.39 5.05-1.16 1.45-.78 2.82-1.9 4.1-3.38l-1.65-1.69c-1.56 1.37-2.9 2.27-4.02 2.69q-1.68.63-3.27.63c-2.34 0-4.1-.75-5.27-2.24s-1.83-3.63-1.97-6.41zm-41.02-12.3h-4.57l9.52 23.65h3.35l9.74-23.65h-3.83l-6.17 16.26c-.6 1.62-.94 2.83-1.01 3.64-.07-.39-.18-.9-.32-1.53s-.39-1.41-.74-2.32zm-10.4 0h-4.26v23.17h4.26zm-.22-11.22c-.53-.54-1.15-.82-1.86-.82-.74 0-1.38.27-1.92.82-.53.55-.8 1.17-.8 1.87 0 .71.27 1.32.8 1.85s1.17.79 1.92.79c.71 0 1.33-.26 1.86-.79s.8-1.14.8-1.85c0-.7-.27-1.32-.8-1.87m-12.47 34.39v-14.57c0-1.23-.05-2.41-.16-3.54-.11-1.12-.43-2.11-.96-2.96s-1.34-1.52-2.42-2.03-2.58-.76-4.5-.76c-1.2 0-2.26.18-3.17.55-.9.37-1.67.8-2.29 1.29s-1.12.99-1.49 1.48-.63.86-.77 1.11l-.53-4.01-3.99.37c.04.18.08.48.13.93.05.44.11.94.16 1.5s.1 1.14.13 1.74c.04.6.05 1.16.05 1.69v17.21h4.15v-12.98c0-1.06.17-2.06.51-3.01s.8-1.78 1.38-2.48c.59-.7 1.28-1.26 2.07-1.66.8-.4 1.68-.61 2.64-.61 1.06 0 1.92.13 2.58.4.66.26 1.15.66 1.49 1.19q.51.795.66 1.95c.11.77.16 1.65.16 2.64v14.57h4.17zm-28.62-32.94h-4.15v20.27c0 2.18-.22 3.97-.66 5.36s-1.06 2.49-1.84 3.3-1.69 1.37-2.74 1.66c-1.05.3-2.17.45-3.38.45-1.24 0-2.38-.15-3.43-.45s-1.95-.85-2.71-1.66-1.37-1.91-1.81-3.3-.66-3.18-.66-5.36v-20.27h-4.31v20.64q0 7.29 3.24 10.35c2.16 2.04 5.39 3.06 9.68 3.06q6.435 0 9.6-3.06c2.11-2.04 3.17-5.49 3.17-10.35z" id="path3928"/><path d="M996.79 176.51c.9 1.26 1.35 2.96 1.35 5.07v.79h-11.45c.14-1.02.39-2 .74-2.93s.8-1.76 1.35-2.48c.54-.72 1.19-1.29 1.95-1.72.76-.42 1.61-.63 2.56-.63 1.44 0 2.61.64 3.5 1.9m5.47 8.5v-2.32c0-1.3-.15-2.59-.45-3.88s-.8-2.43-1.51-3.43c-.7-1-1.65-1.81-2.82-2.43-1.18-.61-2.66-.92-4.46-.92q-2.22 0-4.14.9c-1.29.6-2.4 1.43-3.35 2.51-.95 1.07-1.7 2.36-2.24 3.85-.55 1.5-.82 3.16-.82 4.99 0 4.05.93 7.11 2.8 9.19 1.86 2.08 4.63 3.11 8.29 3.11 1.9 0 3.57-.39 5.01-1.16s2.8-1.9 4.06-3.38l-1.64-1.69c-1.55 1.37-2.88 2.27-3.98 2.69-1.11.42-2.19.63-3.25.63-2.32 0-4.06-.75-5.23-2.25-1.16-1.49-1.81-3.63-1.95-6.41zm-26.1 10.87v-14.57c0-1.23-.05-2.41-.16-3.54-.1-1.12-.42-2.11-.95-2.96-.53-.84-1.33-1.52-2.4-2.03s-2.56-.77-4.46-.77c-1.19 0-2.24.19-3.14.55-.9.37-1.65.8-2.27 1.29s-1.11.99-1.48 1.48-.62.86-.77 1.11l-.53-4.01-3.96.37c.03.18.08.48.13.92s.1.94.16 1.51c.05.56.1 1.14.13 1.74.04.6.05 1.16.05 1.69v17.21h4.12V182.9c0-1.06.17-2.06.5-3.01s.79-1.78 1.37-2.48 1.27-1.26 2.06-1.66a5.7 5.7 0 0 1 2.61-.61c1.06 0 1.91.13 2.56.4.65.26 1.14.66 1.48 1.19q.495.795.66 1.95c.11.77.16 1.65.16 2.64v14.57zm-28.19-23.17h-4.22v23.17h4.22zm-.21-11.21c-.53-.55-1.14-.82-1.85-.82-.74 0-1.37.27-1.9.82-.53.54-.79 1.17-.79 1.87s.26 1.32.79 1.85 1.16.79 1.9.79c.7 0 1.32-.26 1.85-.79s.79-1.14.79-1.85-.26-1.33-.79-1.87m-16.44 15.01c.9 1.26 1.35 2.96 1.35 5.07v.79h-11.45c.14-1.02.39-2 .74-2.93s.8-1.76 1.34-2.48c.55-.72 1.2-1.29 1.95-1.72.76-.42 1.61-.63 2.56-.63 1.45 0 2.62.64 3.51 1.9m5.47 8.5v-2.32c0-1.3-.15-2.59-.45-3.88-.3-1.28-.8-2.43-1.51-3.43-.7-1-1.65-1.81-2.82-2.43-1.18-.61-2.67-.92-4.46-.92q-2.22 0-4.14.9c-1.28.6-2.4 1.43-3.35 2.51-.95 1.07-1.7 2.36-2.24 3.85-.55 1.5-.82 3.16-.82 4.99 0 4.05.93 7.11 2.8 9.19 1.86 2.08 4.63 3.11 8.29 3.11 1.9 0 3.57-.39 5.02-1.16 1.44-.77 2.8-1.9 4.06-3.38l-1.64-1.69c-1.55 1.37-2.88 2.27-3.98 2.69-1.11.42-2.19.63-3.25.63-2.32 0-4.06-.75-5.23-2.25-1.16-1.49-1.81-3.63-1.95-6.41zm-47.4 10.87v-15.73h16.2v15.73h4.22v-32.94h-4.22v14.3h-16.2v-14.3h-4.22v32.94zM845.47 160h-4.12v35.89h4.12V182.9c0-1.06.17-2.06.5-3.01s.79-1.78 1.37-2.48 1.27-1.26 2.06-1.66a5.7 5.7 0 0 1 2.61-.61c1.06 0 1.91.13 2.56.4.65.26 1.14.66 1.48 1.19q.495.795.66 1.95c.1.77.16 1.65.16 2.64v14.57h4.12v-14.57c0-1.23-.05-2.41-.16-3.54-.11-1.12-.42-2.11-.95-2.96-.53-.84-1.33-1.52-2.4-2.03s-2.56-.77-4.46-.77c-1.2 0-2.24.18-3.11.53-.88.35-1.62.77-2.22 1.24s-1.08.96-1.45 1.45-.62.86-.77 1.11zm-11.14 30.66c-1.3 1.23-2.43 2.05-3.38 2.45s-1.97.61-3.06.61c-1.27 0-2.33-.25-3.19-.74a5.7 5.7 0 0 1-2.08-2.01c-.53-.84-.91-1.81-1.13-2.9a16.35 16.35 0 0 1 .06-6.92c.26-1.2.68-2.28 1.24-3.25a7.4 7.4 0 0 1 2.16-2.38c.88-.61 1.92-.92 3.11-.92 1.34 0 2.4.21 3.19.63s1.51.95 2.14 1.58l2-3.01a9.15 9.15 0 0 0-3.35-1.43c-1.21-.25-2.4-.37-3.56-.37-1.79 0-3.42.31-4.88.92-1.46.62-2.69 1.48-3.7 2.59-1 1.11-1.78 2.43-2.32 3.96s-.82 3.21-.82 5.04c0 3.94.98 6.93 2.96 8.97 1.97 2.04 4.7 3.06 8.18 3.06.56 0 1.19-.06 1.87-.19s1.38-.33 2.08-.63 1.4-.72 2.09-1.27c.69-.54 1.35-1.24 1.98-2.08zm-24.23-17.95h-4.22v23.17h4.22zm-.21-11.21c-.53-.55-1.14-.82-1.85-.82-.74 0-1.37.27-1.9.82-.53.54-.79 1.17-.79 1.87s.26 1.32.79 1.85 1.16.79 1.9.79c.71 0 1.32-.26 1.85-.79s.79-1.14.79-1.85-.26-1.33-.79-1.87m-23.63 34.38h3.9v-11.14c0-.77.03-1.55.08-2.32.05-.78.17-1.51.34-2.22.39-1.44.96-2.65 1.72-3.62.75-.97 1.61-1.45 2.56-1.45 1.59 0 2.43.86 2.53 2.58l3.43-1.21c-.03-.78-.19-1.44-.47-2.01-.28-.56-.63-1.01-1.06-1.35-.42-.33-.89-.58-1.4-.74s-.99-.24-1.45-.24c-1.37 0-2.57.39-3.59 1.16s-1.88 1.81-2.59 3.11l-.53-4.01-3.96.37c.03.18.08.48.13.92s.11.94.16 1.51c.05.56.1 1.14.13 1.74s.05 1.16.05 1.69v17.23zm-7.84 0v-14.57c0-1.23-.05-2.41-.16-3.54-.11-1.12-.42-2.11-.95-2.96-.53-.84-1.33-1.52-2.4-2.03s-2.56-.77-4.46-.77c-1.2 0-2.24.19-3.14.55-.9.37-1.66.8-2.27 1.29s-1.11.99-1.48 1.48-.63.86-.77 1.11l-.53-4.01-3.96.37c.03.18.08.48.13.92s.11.94.16 1.51c.05.56.1 1.14.13 1.74s.05 1.16.05 1.69v17.21h4.12V182.9c0-1.06.17-2.06.5-3.01s.79-1.78 1.37-2.48 1.27-1.26 2.06-1.66a5.7 5.7 0 0 1 2.61-.61c1.06 0 1.91.13 2.56.4.65.26 1.14.66 1.48 1.19s.55 1.18.66 1.95.16 1.65.16 2.64v14.57zm-28.29-23.17h-4.22v23.17h4.22zm-.22-11.21c-.53-.55-1.14-.82-1.85-.82-.74 0-1.37.27-1.9.82-.53.54-.79 1.17-.79 1.87s.26 1.32.79 1.85 1.16.79 1.9.79c.7 0 1.32-.26 1.85-.79s.79-1.14.79-1.85-.26-1.33-.79-1.87m-16.81 15.01c.9 1.26 1.35 2.96 1.35 5.07v.79H723c.14-1.02.39-2 .74-2.93s.8-1.76 1.35-2.48c.54-.72 1.19-1.29 1.95-1.72.76-.42 1.61-.63 2.56-.63 1.43 0 2.61.64 3.5 1.9m5.47 8.5v-2.32c0-1.3-.15-2.59-.45-3.88s-.8-2.43-1.5-3.43c-.71-1-1.65-1.81-2.83-2.43-1.18-.61-2.66-.92-4.46-.92q-2.22 0-4.14.9c-1.29.6-2.4 1.43-3.35 2.51-.95 1.07-1.7 2.36-2.24 3.85-.55 1.5-.82 3.16-.82 4.99 0 4.05.93 7.11 2.8 9.19 1.86 2.08 4.63 3.11 8.29 3.11 1.9 0 3.57-.39 5.01-1.16s2.8-1.9 4.07-3.38l-1.64-1.69c-1.55 1.37-2.88 2.27-3.98 2.69q-1.665.63-3.24.63c-2.32 0-4.07-.75-5.23-2.25-1.16-1.49-1.81-3.63-1.95-6.41zm-47.35 10.87v-15.73h16.21v15.73h4.22v-32.94h-4.22v14.3h-16.21v-14.3H687v32.94z" id="path3930"/><path class="st0" d="M962.74 331.33h34.73c15.24 0 27.6-12.32 27.6-27.53s-12.36-27.53-27.6-27.53h-34.73z" id="path3932" style="fill:#006ab3"/></g></svg>