<svg xmlns="http://www.w3.org/2000/svg" width="1000" height="1000"><path fill="rgba(255,255,255,0)" d="M0 0h1000v1000H0z"/><path d="M781.431 437.179c-23.775-.796-49.476 12.885-61.666 38.643-7.567 14.54-13.34 30.722-17.18 46.614l-.96 4.2c-.379 2.261-.411 5.16-.208 8.116.941 12.506 12.045 27.627 30.35 28.487h21.703c23.768.79 49.457-12.898 61.66-38.656 7.567-14.54 13.334-30.735 17.174-46.614l.96-4.207c.398-2.268.423-5.154.208-8.116-.935-12.513-12.045-27.621-30.344-28.474h-21.703zm-407.61 1.15 9.721 123.686h19.492-.114 1.15a11.75 11.75 0 0 0 9.399-5.23h.013l79.472-118.45H472.4l-56.929 85.017-6.683-85.011h-34.973zm133.337 0-45.61 123.686h35.011l45.591-123.679h-34.992zm82.143 0c-31.449.379-45.345 35.371-28.164 57.782 8.716 10.643 21.16 21.678 28.19 33.331 4.453 6.304-.309 16.814-8.818 16.915h-55.527l-5.748 15.658h70.3c27.558-.082 46.204-32.529 27.71-57.415-8.533-12.607-22.069-21.216-30.078-33.533-4.756-6.424.025-16.972 8.628-17.086h51.68l5.754-15.652h-63.921zm88.157 0L631.88 562.021h34.999l45.597-123.686h-35.018zm188.971 0-45.793 123.686h18.039l31.556-85.245.158 1.529 28.348 76.554a11.75 11.75 0 0 0 10.182 7.163h16.492l45.806-123.679h-18.033l-30.95 83.59-32.965-83.59h-22.846zm-77.002 11.635c6.601.505 11.843 6.057 11.843 12.791a11.6 11.6 0 0 1-.853 4.788l-23.13 62.986c-4.668 12.089-15.513 19.498-28.398 19.877h-3.417a12.87 12.87 0 0 1-11.843-12.797 11.54 11.54 0 0 1 .865-4.8l23.118-62.986c4.674-12.089 15.519-19.479 28.423-19.852h3.392z" fill="#6c6e71"/><path d="M49.389 438.335 3.785 562.021h37.171l21.81-59.152h44.252l-21.81 59.152h29.036c4.914 0 9.133-3.101 10.845-7.428.019-.063.038-.082.063-.114l42.825-116.15h-37.171l-17.559 47.625H68.994l17.559-47.625H49.389zm142.205 0-45.591 123.686h37.152l45.604-123.686h-37.171zm62.449 0-45.597 123.686h37.159l17.484-47.435 9.285-7.131 24.653 47.789.013-.063.063.114a11.76 11.76 0 0 0 11.363 6.632c-.088 0-.189.063-.284.063h31.556l-39.256-76.13 61.919-47.536h-27.773l-60.573 46.507 17.149-46.507h-37.159z" fill="#d71820"/><path d="M998.614 449.269c0 6.891-5.407 12.292-12.443 12.292-6.961 0-12.506-5.4-12.506-12.292 0-6.746 5.546-12.153 12.506-12.153 7.036 0 12.443 5.407 12.443 12.153m-21.842 0c0 5.407 3.992 9.702 9.474 9.702 5.337 0 9.26-4.295 9.26-9.632 0-5.4-3.922-9.778-9.335-9.778-5.407 0-9.399 4.377-9.399 9.708m7.472 6.367h-2.811v-12.14a24.57 24.57 0 0 1 4.674-.379c2.287 0 3.329.379 4.213.897a3.36 3.36 0 0 1 1.181 2.665c0 1.339-1.036 2.369-2.52 2.811v.152c1.187.442 1.857 1.339 2.23 2.969.373 1.851.594 2.59.884 3.032h-3.032c-.373-.442-.594-1.554-.966-2.956-.221-1.339-.96-1.926-2.514-1.926h-1.339v4.882zm.076-6.885h1.326c1.56 0 2.823-.518 2.823-1.781 0-1.105-.815-1.844-2.596-1.844-.733 0-1.257.063-1.554.145v3.474z" fill="#6c6e71"/></svg>