<svg xmlns="http://www.w3.org/2000/svg" xmlns:xlink="http://www.w3.org/1999/xlink" width="352" height="320" viewBox="0 0 264 240"><g fill="rgb(11.764706%,31.764706%,63.529412%)"><path d="M19.289 117.18H30.57l.102 2.391.02.238h6.117l-.02-.27-.117-8.23.008-.25H25.41l.68-9.648 1.57-9.59 2.461-9.391 3.277-9.09 10.301 4.609.09-.238 3.199-7.039 3.703-6.66 4.23-6.34 4.797-6.062.172-.199-8.77-7.121 6.59-7.07 7.23-6.457 7.797-5.742 8.262-5 5.121 10.09.219-.121 6.898-3.449 7.051-2.828 7.27-2.242 7.531-1.68.25-.039L113 8.672l9.551-1.344 9.668-.457 9.672.457 9.551 1.344-2.34 11.066.25.043 7.527 1.68 7.27 2.238 7.051 2.832 6.902 3.449.219.121 5.121-10.09 8.258 5 7.801 5.738 7.23 6.461 6.59 7.07-8.77 7.117.168.203 4.801 6.059 4.23 6.34 3.699 6.66 3.199 7.039.09.242 10.301-4.613 3.281 9.094 2.461 9.387 1.57 9.59.68 9.652H227.75l.02.25-.109 8.23-.02.27h6.121l.02-.242.098-2.387h11.281v-.23a114.04 114.04 0 0 0-10.91-51.5l-.109-.211-10.301 4.598a102.19 102.19 0 0 0-10.699-17.52l8.77-7.117-.141-.18A113.45 113.45 0 0 0 180.99 11.87l-.207-.102-5.133 10.082c-6.258-2.961-12.57-5.203-19.297-6.863l2.34-11.066-.23-.051a112.9 112.9 0 0 0-52.473 0l-.227.051 2.34 11.066c-6.723 1.641-13.031 3.902-19.301 6.863l-5.13-10.08-.211.102a113.55 113.55 0 0 0-40.781 33.14l-.141.18 8.77 7.117a100.3 100.3 0 0 0-10.699 17.52L30.309 65.23l-.109.211c-7.578 15.988-11.34 33.797-10.91 51.5zm191.402 2.359l-.02.27h6.129l.008-.219.172-5.461c0-46.91-38.031-85.07-84.781-85.07s-84.777 38.16-84.777 85.07a82.23 82.23 0 0 0 .168 5.461l.02.219h6.129l-.02-.27c-.117-1.789-.18-3.617-.18-5.43a80.66 80.66 0 0 1 1.59-15.91c1.031-5.059 2.57-10.059 4.59-14.82a79.49 79.49 0 0 1 7.25-13.398c2.813-4.18 6.051-8.109 9.609-11.68a79.02 79.02 0 0 1 11.641-9.641c4.211-2.852 8.703-5.301 13.359-7.281a77.74 77.74 0 0 1 14.773-4.609c10.359-2.129 21.34-2.129 31.707 0 5.043 1.039 10.02 2.582 14.77 4.609a78.67 78.67 0 0 1 13.363 7.281c4.168 2.82 8.078 6.07 11.637 9.641a79.86 79.86 0 0 1 9.613 11.68c2.84 4.219 5.277 8.73 7.25 13.398a79.4 79.4 0 0 1 4.59 14.82c1.059 5.199 1.598 10.539 1.598 15.91a69.94 69.94 0 0 1-.187 5.43zm-58.402 55.152a4.31 4.31 0 0 0 .91.879c.32.219.652.379 1.039.5a4.64 4.64 0 0 0 1.313.18 4.39 4.39 0 0 0 1.27-.172c.379-.109.719-.258 1.031-.477.34-.242.648-.523.93-.871a4.57 4.57 0 0 0 .617-1.059c.203-.461.34-.961.43-1.523a12.07 12.07 0 0 0 .172-2.109c0-.641-.051-1.258-.16-1.82a5.96 5.96 0 0 0-.418-1.391 5.07 5.07 0 0 0-.613-1.047 4.23 4.23 0 0 0-.91-.883 3.81 3.81 0 0 0-1.047-.5c-.402-.117-.84-.18-1.293-.18a4.39 4.39 0 0 0-1.27.172 3.43 3.43 0 0 0-1.039.488 4.47 4.47 0 0 0-.93.859c-.23.301-.441.66-.609 1.051-.199.43-.332.922-.43 1.473-.109.598-.16 1.27-.16 1.988 0 .711.051 1.352.16 1.941a6.47 6.47 0 0 0 .418 1.457c.152.371.352.73.59 1.043zm.59-4.461c0-.73.051-1.391.16-1.941.09-.508.223-.93.402-1.289a2.82 2.82 0 0 1 .559-.789 1.84 1.84 0 0 1 .68-.422c.258-.09.551-.141.859-.141.27 0 .539.043.789.121.23.082.453.199.641.359.211.18.391.391.551.66a3.96 3.96 0 0 1 .359.789 8.9 8.9 0 0 1 .25 1.063c.051.418.09.891.09 1.391 0 .758-.047 1.43-.16 2.02-.09.52-.219.961-.398 1.32-.16.328-.34.59-.559.801-.211.199-.422.328-.68.43a2.63 2.63 0 0 1-.852.137c-.309 0-.602-.047-.859-.137s-.473-.223-.68-.422c-.223-.211-.41-.469-.562-.77-.18-.352-.32-.77-.41-1.289-.117-.512-.18-1.16-.18-1.891zm-45.969-4.171a2.02 2.02 0 0 1-.512.242c-.219.078-.477.129-.809.18a8.94 8.94 0 0 1-1.16.098v1.223h3.109V176h1.781v-11.531h-1.391a4.01 4.01 0 0 1-.301.75 2.49 2.49 0 0 1-.348.512c-.109.129-.242.238-.371.328zm0 0"/><path d="M141.781 169.09c-.109.121-.262.262-.453.391-.207.16-.469.32-.797.5-.34.199-.75.41-1.203.621l-1.539.82c-.418.258-.77.508-1.07.758-.27.23-.508.469-.68.699a4.26 4.26 0 0 0-.469.77 5.89 5.89 0 0 0-.34 1.012c-.09.41-.141.84-.16 1.289h8.98v-1.45h-7.062a2.5 2.5 0 0 1 .203-.48c.078-.141.168-.289.277-.418a2.51 2.51 0 0 1 .352-.383c.121-.109.301-.23.508-.379l.863-.5 1.289-.641 1.258-.66a9.72 9.72 0 0 0 .902-.609 5.27 5.27 0 0 0 .621-.559 4.35 4.35 0 0 0 .438-.633c.121-.219.211-.457.281-.719a4.05 4.05 0 0 0 .098-.859c0-.379-.047-.73-.137-1.059a2.84 2.84 0 0 0-.391-.812c-.172-.25-.391-.469-.641-.668s-.52-.352-.82-.48c-.32-.141-.641-.25-1.012-.312a6.49 6.49 0 0 0-1.277-.117c-.473 0-.93.039-1.352.129-.379.082-.719.199-1.027.371a5.1 5.1 0 0 0-.844.559c-.227.211-.449.461-.598.75-.18.309-.309.641-.41 1.039a6.16 6.16 0 0 0-.16 1.422h1.781a4.03 4.03 0 0 1 .109-.949c.051-.25.141-.473.25-.68a1.74 1.74 0 0 1 .379-.48c.16-.141.32-.281.52-.383a2.52 2.52 0 0 1 .621-.238 3.62 3.62 0 0 1 .758-.078 4.26 4.26 0 0 1 .723.066 2.57 2.57 0 0 1 .59.203c.168.078.34.18.48.297s.27.273.379.41.18.301.23.492a2.17 2.17 0 0 1 .078.59c0 .168-.02.34-.059.5a1.75 1.75 0 0 1-.172.449 3.38 3.38 0 0 1-.297.41zm-19.222 5.601c-.219-.07-.418-.16-.59-.293a1.74 1.74 0 0 1-.449-.477c-.141-.211-.25-.473-.309-.762h-1.781c.059.449.172.84.309 1.199a2.89 2.89 0 0 0 .523.82 2.8 2.8 0 0 0 .707.57c.293.16.602.289.953.371.398.09.848.141 1.328.141.5 0 .969-.07 1.41-.203a3.8 3.8 0 0 0 1.129-.539 4.05 4.05 0 0 0 .98-.969c.25-.34.469-.723.652-1.152a6.85 6.85 0 0 0 .457-1.559c.121-.629.172-1.32.172-2.059 0-.68-.051-1.312-.172-1.891a6.04 6.04 0 0 0-.43-1.359 4.34 4.34 0 0 0-.609-.953 4.05 4.05 0 0 0-.91-.758c-.328-.199-.68-.34-1.07-.449a5.36 5.36 0 0 0-1.34-.172 6.11 6.11 0 0 0-1.32.141 4.51 4.51 0 0 0-1.039.379c-.309.172-.59.383-.84.609-.23.242-.449.512-.609.793a3.54 3.54 0 0 0-.391.949 4.95 4.95 0 0 0-.141 1.18 4.61 4.61 0 0 0 .141 1.148 3.27 3.27 0 0 0 .379.891 3.09 3.09 0 0 0 .59.711c.23.219.512.41.813.559.289.16.598.262.938.34a5.43 5.43 0 0 0 1.191.133c.48 0 .941-.07 1.359-.18.379-.121.711-.262.988-.48.32-.223.57-.512.793-.84-.09.59-.211 1.129-.34 1.59-.121.43-.23.789-.383 1.09-.117.27-.258.508-.41.68a2.32 2.32 0 0 1-.539.5c-.199.129-.391.219-.609.289a2.56 2.56 0 0 1-.75.109 3.37 3.37 0 0 1-.781-.098zm3.461-6.492c0 .27-.031.512-.09.73a1.97 1.97 0 0 1-.25.57 2.56 2.56 0 0 1-.379.449c-.16.129-.332.25-.512.359a2.21 2.21 0 0 1-.598.211 3.3 3.3 0 0 1-.723.082 2.82 2.82 0 0 1-.719-.082c-.211-.051-.41-.121-.59-.219a1.85 1.85 0 0 1-.5-.371 1.9 1.9 0 0 1-.359-.461c-.109-.18-.18-.367-.23-.59-.051-.238-.09-.488-.09-.758a2.66 2.66 0 0 1 .09-.762 2.29 2.29 0 0 1 .23-.59c.109-.168.219-.32.371-.461a1.82 1.82 0 0 1 .5-.359c.18-.09.379-.168.59-.219a3.24 3.24 0 0 1 .719-.082 2.5 2.5 0 0 1 .719.09 2.26 2.26 0 0 1 .602.242 1.9 1.9 0 0 1 .508.41 4.59 4.59 0 0 1 .383.5 2.04 2.04 0 0 1 .23.59 2.59 2.59 0 0 1 .098.719zm0 0"/><use xlink:href="#B"/><path d="M54.98 131.27h2.199v3.582H54.98zm0 0"/><use xlink:href="#B" x="-6.949"/><path d="M48.02 131.27h2.199v3.582H48.02zm0 0"/><use xlink:href="#B" x="-13.922"/><use xlink:href="#B" y="4.949"/><path d="M54.98 136.219h2.199v3.582H54.98zm0 0"/><use xlink:href="#B" x="-6.949" y="4.949"/><path d="M48.02 136.219h2.199v3.582H48.02zm0 0"/><use xlink:href="#B" x="-13.922" y="4.949"/><use xlink:href="#C"/><use xlink:href="#B" x="8.91" y="1.609"/><use xlink:href="#B" x="8.91" y="6.57"/><use xlink:href="#C" x="8.91" y="1.609"/><path d="M54.98 141.172h2.199v3.578H54.98zm0 0"/><use xlink:href="#C" x="-6.949"/><path d="M48.02 141.172h2.199v3.578H48.02zm0 0"/><use xlink:href="#C" x="-13.922"/><use xlink:href="#B" y="14.859"/><path d="M54.98 146.129h2.199v3.582H54.98zm0 0"/><use xlink:href="#B" x="-6.949" y="14.859"/><path d="M48.02 146.129h2.199v3.582H48.02zm0 0"/><use xlink:href="#B" x="-13.922" y="14.859"/><use xlink:href="#B" x="19.711" y="-6.551"/><path d="M79.27 118.73a1.1 1.1 0 0 0-1.098 1.098v3.121h2.199v-3.121c-.012-.617-.5-1.098-1.102-1.098zm0 0"/><use xlink:href="#C" x="19.711" y="-11.102"/><use xlink:href="#D"/><use xlink:href="#B" x="19.711" y="9.5"/><use xlink:href="#B" x="19.711" y="14.859"/><path d="M82.18 124.719h2.199v3.582H82.18zm0 0"/><use xlink:href="#E"/><path d="M82.18 130.07h2.199v3.578H82.18zm0 5.352h2.199V139H82.18zm0 5.348h2.199v3.582H82.18zm0 5.359h2.199v3.582H82.18zm0 0"/><use xlink:href="#B" x="27.75" y="-6.551"/><path d="M87.301 118.73c-.621 0-1.102.5-1.102 1.098v3.121h2.199v-3.121a1.08 1.08 0 0 0-1.098-1.098zm0 0"/><use xlink:href="#C" x="27.75" y="-11.102"/><use xlink:href="#D" x="8.039"/><use xlink:href="#B" x="27.75" y="9.5"/><use xlink:href="#B" x="27.75" y="14.859"/><use xlink:href="#F"/><use xlink:href="#E" x="8.039"/><path d="M90.219 130.07h2.203v3.578h-2.203zm0 5.352h2.203V139h-2.203zm0 0"/><use xlink:href="#F" y="16.051"/><use xlink:href="#F" y="21.41"/><use xlink:href="#F" x="4.019"/><path d="M95.34 118.73c-.609 0-1.102.5-1.102 1.098v3.121h2.203v-3.121a1.09 1.09 0 0 0-1.102-1.098zm-1.102 11.34h2.203v3.578h-2.203zm0 5.352h2.203V139h-2.203zm0 0"/><use xlink:href="#F" x="4.019" y="16.051"/><use xlink:href="#F" x="4.019" y="21.41"/><path d="M98.27 124.719h2.199v3.582H98.27zm1.101-5.989c-.621 0-1.102.5-1.102 1.098v3.121h2.199v-3.121a1.1 1.1 0 0 0-1.098-1.098zm-1.101 11.34h2.199v3.578H98.27zm0 5.352h2.199V139H98.27zm0 5.348h2.199v3.582H98.27zm0 5.359h2.199v3.582H98.27zm0 0"/><use xlink:href="#B" x="43.82" y="-6.551"/><path d="M103.379 118.73a1.1 1.1 0 0 0-1.098 1.098v3.121h2.199v-3.121c.008-.617-.492-1.098-1.102-1.098zm0 0"/><use xlink:href="#C" x="43.82" y="-11.102"/><use xlink:href="#D" x="24.109"/><use xlink:href="#B" x="43.82" y="9.5"/><use xlink:href="#B" x="43.82" y="14.859"/><use xlink:href="#B" x="47.84" y="-6.551"/><use xlink:href="#E" x="24.109"/><use xlink:href="#C" x="47.84" y="-11.102"/><use xlink:href="#D" x="28.129"/><use xlink:href="#B" x="47.84" y="9.5"/><use xlink:href="#B" x="47.84" y="14.859"/><use xlink:href="#B" x="51.859" y="-6.551"/><path d="M112.531 119.828c0-.609-.5-1.098-1.102-1.098-.609 0-1.102.5-1.102 1.098v3.121h2.203zm0 0"/><use xlink:href="#C" x="51.859" y="-11.102"/><use xlink:href="#B" x="55.879" y="-6.551"/><path d="M116.539 119.828a1.1 1.1 0 0 0-1.098-1.098c-.613 0-1.102.5-1.102 1.098v3.121h2.199zm0 0"/><use xlink:href="#C" x="55.879" y="-11.102"/><path d="M26.5 131.27h2.199v3.582H26.5zm0 4.949h2.199v3.582H26.5zm0 4.953h2.199v3.578H26.5zm0 4.957h2.199v3.582H26.5zm4.809-14.859h2.203v3.582h-2.203v-3.582zm0 4.949h2.203v3.582h-2.203v-3.582zm0 4.953h2.203v3.578h-2.203v-3.578zm0 4.957h2.203v3.582h-2.203v-3.582zm3.441-14.859h2.199v3.582H34.75zm0 4.949h2.199v3.582H34.75zm0 4.953h2.199v3.578H34.75zm0 4.957h2.199v3.582H34.75zM21.52 131.27h2.199v3.582H21.52zm0 0"/><use xlink:href="#B" x="-40.41"/><path d="M14.57 131.27h2.199v3.582H14.57v-3.582zm0 0"/><use xlink:href="#B" x="-47.359"/><path d="M7.609 131.27h2.199v3.582H7.609v-3.582zm13.911 4.949h2.199v3.582H21.52zm0 0"/><use xlink:href="#B" x="-40.41" y="4.949"/><path d="M14.57 136.219h2.199v3.582H14.57v-3.582zm0 0"/><use xlink:href="#B" x="-47.359" y="4.949"/><path d="M7.609 136.219h2.199v3.582H7.609v-3.582zm13.911 4.953h2.199v3.578H21.52zm0 0"/><use xlink:href="#C" x="-40.41"/><path d="M14.57 141.172h2.199v3.578H14.57v-3.578zm0 0"/><use xlink:href="#C" x="-47.359"/><path d="M7.609 141.172h2.199v3.578H7.609v-3.578zm13.911 4.957h2.199v3.582H21.52zm0 0"/><use xlink:href="#B" x="-40.41" y="14.859"/><path d="M14.57 146.129h2.199v3.582H14.57v-3.582zm0 0"/><use xlink:href="#B" x="-47.359" y="14.859"/><path d="M7.609 146.129h2.199v3.582H7.609v-3.582zm0 0"/><use xlink:href="#B" x="-18.91"/><use xlink:href="#B" x="-18.91" y="4.949"/><use xlink:href="#C" x="-18.91"/><use xlink:href="#B" x="-18.91" y="14.859"/><use xlink:href="#G"/><use xlink:href="#G" y="5.348"/><use xlink:href="#G" y="10.699"/><use xlink:href="#G" y="16.047"/><use xlink:href="#G" y="21.399"/><use xlink:href="#H"/><use xlink:href="#H" y="5.348"/><use xlink:href="#H" y="10.699"/><use xlink:href="#H" y="16.047"/><use xlink:href="#H" y="21.399"/><path d="M129.879 86.379l.012-3.578h-2.211v3.578zm0 14.09l.012-3.59h-2.211v3.59zm0 0"/><path d="M129.879 91.121l.012-3.59h-2.211v3.59zM126.16 78.34h2.461v.75H129v-.75h.512v-1.039h-1.492v-.211l.961-.762v-2.297l-.961.758v-.758h-1.27v.758l-.969-.758v2.297l.969.75v.211h-1.488v1.039h.508v.75h.379v-.727h.012zm.969-3.93h.512v2.871h-.512zm-1.488 3.539v-.27h3.48v.27zm0 0"/><use xlink:href="#B" x="145.301"/><use xlink:href="#F" x="117.019" y="6.551"/><use xlink:href="#B" x="152.25"/><use xlink:href="#B" x="155.75"/><use xlink:href="#B" x="159.219"/><use xlink:href="#B" x="145.301" y="4.949"/><use xlink:href="#F" x="117.019" y="11.5"/><use xlink:href="#B" x="152.25" y="4.949"/><use xlink:href="#B" x="155.75" y="4.949"/><use xlink:href="#B" x="159.219" y="4.949"/><use xlink:href="#C" x="145.301"/><use xlink:href="#B" x="136.391" y="1.609"/><use xlink:href="#B" x="136.391" y="6.57"/><use xlink:href="#C" x="136.391" y="1.609"/><path d="M207.238 141.172h2.203v3.578h-2.203zm0 0"/><use xlink:href="#C" x="152.25"/><use xlink:href="#C" x="155.75"/><use xlink:href="#C" x="159.219"/><use xlink:href="#B" x="145.301" y="14.859"/><use xlink:href="#F" x="117.019" y="21.41"/><use xlink:href="#B" x="152.25" y="14.859"/><use xlink:href="#B" x="155.75" y="14.859"/><use xlink:href="#B" x="159.219" y="14.859"/><use xlink:href="#B" x="125.59" y="-6.551"/><path d="M185.16 118.73c.621 0 1.102.5 1.102 1.098v3.121h-2.203v-3.121c-.008-.617.492-1.098 1.102-1.098zm0 0"/><use xlink:href="#C" x="125.59" y="-11.102"/><use xlink:href="#D" x="105.879"/><use xlink:href="#B" x="125.59" y="9.5"/><use xlink:href="#B" x="125.59" y="14.859"/><use xlink:href="#B" x="121.578" y="-6.551"/><path d="M181.141 118.73a1.1 1.1 0 0 1 1.098 1.098v3.121h-2.199v-3.121a1.09 1.09 0 0 1 1.102-1.098zm0 0"/><use xlink:href="#C" x="121.578" y="-11.102"/><use xlink:href="#D" x="101.867"/><use xlink:href="#B" x="121.578" y="9.5"/><use xlink:href="#B" x="121.578" y="14.859"/><use xlink:href="#B" x="117.559" y="-6.551"/><path d="M177.121 118.73a1.1 1.1 0 0 1 1.098 1.098v3.121h-2.199v-3.121c0-.617.5-1.098 1.102-1.098zm0 0"/><use xlink:href="#C" x="117.559" y="-11.102"/><use xlink:href="#D" x="97.848"/><use xlink:href="#B" x="117.559" y="9.5"/><use xlink:href="#B" x="117.559" y="14.859"/><path d="M172 124.719h2.199v3.582H172zm1.102-5.989c.617 0 1.098.5 1.098 1.098v3.121H172v-3.121a1.09 1.09 0 0 1 1.102-1.098zM172 130.07h2.199v3.578H172zm0 5.352h2.199V139H172zm0 5.348h2.199v3.582H172zm0 5.359h2.199v3.582H172zm0 0"/><use xlink:href="#B" x="109.519" y="-6.551"/><path d="M169.078 118.73c.613 0 1.102.5 1.102 1.098v3.121h-2.199v-3.121c0-.617.5-1.098 1.098-1.098zm0 0"/><use xlink:href="#C" x="109.519" y="-11.102"/><use xlink:href="#D" x="89.808"/><use xlink:href="#B" x="109.519" y="9.5"/><use xlink:href="#B" x="109.519" y="14.859"/><use xlink:href="#B" x="105.488" y="-6.551"/><path d="M165.07 118.73c.609 0 1.102.5 1.102 1.098v3.121h-2.203v-3.121c-.02-.617.48-1.098 1.102-1.098zm0 0"/><use xlink:href="#C" x="105.488" y="-11.102"/><use xlink:href="#D" x="85.777"/><use xlink:href="#B" x="105.488" y="9.5"/><use xlink:href="#B" x="105.488" y="14.859"/><use xlink:href="#B" x="101.48" y="-6.551"/><path d="M161.039 118.73c.609 0 1.102.5 1.102 1.098v3.121h-2.199v-3.121c0-.617.5-1.098 1.098-1.098zm0 0"/><use xlink:href="#C" x="101.48" y="-11.102"/><use xlink:href="#D" x="81.769"/><use xlink:href="#B" x="101.48" y="9.5"/><use xlink:href="#B" x="101.48" y="14.859"/><use xlink:href="#B" x="97.461" y="-6.551"/><path d="M157.031 118.73a1.1 1.1 0 0 1 1.098 1.098v3.121h-2.199v-3.121a1.08 1.08 0 0 1 1.102-1.098zm0 0"/><use xlink:href="#C" x="97.461" y="-11.102"/><use xlink:href="#D" x="77.75"/><use xlink:href="#B" x="97.461" y="9.5"/><use xlink:href="#B" x="97.461" y="14.859"/><use xlink:href="#B" x="93.449" y="-6.551"/><path d="M151.91 119.828c0-.609.5-1.098 1.102-1.098a1.11 1.11 0 0 1 1.098 1.098v3.121h-2.199zm0 0"/><use xlink:href="#C" x="93.449" y="-11.102"/><use xlink:href="#B" x="89.418" y="-6.551"/><path d="M147.879 119.828c0-.609.5-1.098 1.102-1.098a1.1 1.1 0 0 1 1.098 1.098v3.121h-2.199zm0 0"/><use xlink:href="#C" x="89.418" y="-11.102"/><use xlink:href="#F" x="145.5" y="6.551"/><use xlink:href="#F" x="145.5" y="11.5"/><path d="M235.719 141.172h2.203v3.578h-2.203zm0 0"/><use xlink:href="#F" x="145.5" y="21.41"/><use xlink:href="#B" x="172.449"/><use xlink:href="#B" x="172.449" y="4.949"/><use xlink:href="#C" x="172.449"/><use xlink:href="#B" x="172.449" y="14.859"/><use xlink:href="#F" x="137.25" y="6.551"/><use xlink:href="#F" x="137.25" y="11.5"/><path d="M227.469 141.172h2.203v3.578h-2.203zm0 0"/><use xlink:href="#F" x="137.25" y="21.41"/><use xlink:href="#B" x="182.238"/><use xlink:href="#B" x="185.719"/><use xlink:href="#F" x="157.429" y="6.551"/><use xlink:href="#B" x="192.668"/><use xlink:href="#B" x="196.16"/><use xlink:href="#B" x="182.238" y="4.949"/><use xlink:href="#B" x="185.719" y="4.949"/><use xlink:href="#F" x="157.429" y="11.5"/><use xlink:href="#B" x="192.668" y="4.949"/><use xlink:href="#B" x="196.16" y="4.949"/><use xlink:href="#C" x="182.238"/><use xlink:href="#C" x="185.719"/><path d="M247.648 141.172h2.203v3.578h-2.203zm0 0"/><use xlink:href="#C" x="192.668"/><use xlink:href="#C" x="196.16"/><use xlink:href="#B" x="182.238" y="14.859"/><use xlink:href="#B" x="185.719" y="14.859"/><use xlink:href="#F" x="157.429" y="21.41"/><use xlink:href="#B" x="192.668" y="14.859"/><use xlink:href="#B" x="196.16" y="14.859"/><use xlink:href="#B" x="164.219"/><use xlink:href="#B" x="164.219" y="4.949"/><use xlink:href="#C" x="164.219"/><use xlink:href="#B" x="164.219" y="14.859"/><use xlink:href="#I"/><use xlink:href="#I" y="5.348"/><use xlink:href="#I" y="10.699"/><use xlink:href="#I" y="16.047"/><use xlink:href="#I" y="21.399"/><use xlink:href="#J"/><use xlink:href="#J" y="5.359"/><use xlink:href="#J" y="10.699"/><use xlink:href="#J" y="16.05"/><use xlink:href="#J" y="21.41"/><use xlink:href="#K"/><use xlink:href="#K" y="5.348"/><use xlink:href="#K" y="10.699"/><use xlink:href="#K" y="16.047"/><use xlink:href="#K" y="21.399"/><path d="M142.73 136.801h-21.031v3.078h21.031zm-.379 2.699h-20.273v-2.32h20.273zm-9.042-56.711h-2.199v3.582h2.211v-3.582zm0 0"/><path d="M134.539 86.379v-3.578h2.211v3.578zm0 0"/><use xlink:href="#J" y="-11.551"/><path d="M134.539 100.469v-3.59h2.211v3.59zm0 0"/><use xlink:href="#J" y="-20.899"/><path d="M134.539 91.121v-3.59h2.211v3.59zm3.731-12.043h.379v-.75h.512v-1.027h-1.488v-.211l.969-.75v-2.289l-.969.758v-.758H136.4v.758l-.969-.758v2.289l.969.762v.207h-1.488v1.043h.512v.75h.379v-.75h2.461v.727zm-.969-1.789h-.512v-2.867h.512zm-2 .66v-.27h3.48v.27zm-3.949-29.347v.02l-.523 1.629 1.391-1.012 1.402 1.012-.543-1.629v-.02l1.391-1.012h-1.707l-.543-1.641-.52 1.641h-1.73zm0 0"/><path d="M253.41 126.02s-.941-.199-1.91-.199h-9.328s-.621.008-1.531-.289l-10.18-3.383-10.18 3.383c-.91.297-1.531.289-1.531.289h-9.328c-.961 0-1.91.199-1.91.199l-9.281 2.012v.84h.328v.879h-5.867l-.031-11.52v-.031l2.352-1.539v-1.07l-10.941-1.75c-4.469-.711-6.719-.609-6.719-.609h-31.641v-7.191h.91l1.27-.758v-1.223h-2.562v-.668h.633v-1.18h-4.031V96.07h.68V95h.082l1.27-.762V93.02h-.859v-.699h.648v-1.18h-2.48l1.34-1.629v-2.293l-1.34 1.633v-1.66H140v1.66l-1.328-1.633v2.293L140 91.141h-1.699v-9.609h.59V80.5h.09l.91-.551v-.871H134l.109-.289.563-1.309.008-.02.16-.359a.64.64 0 0 0-.051-.703l-.73-1.207.461-.723c.18-.27.172-.457-.051-.707l-.418-.453c.469-.457.469-1.008.371-1.66h-1.523l-.457-20.379 1.039-.289-.102-.27.352-.211.18.219.719-.73-.219-.18a3.16 3.16 0 0 0 .199-.348l.27.09.262-1-.289-.051a3.59 3.59 0 0 0 0-.41l.289-.051-.27-1-.27.109-.262.09a2.45 2.45 0 0 1 .172.453 2.38 2.38 0 0 1-1.66 2.938c-.211.051-.422.082-.633.082s-.418-.02-.629-.082a2.38 2.38 0 0 1-1.66-2.937c.039-.16.109-.301.172-.453l-.262-.09-.27-.109-.281 1 .289.051a3.59 3.59 0 0 0 0 .41l-.289.051.262 1 .277-.09c.051.117.133.23.203.348l-.223.18.723.73.18-.219a3.28 3.28 0 0 0 .348.211l-.109.27 1.051.289-.461 20.379h-1.52c-.109.672-.109 1.223.359 1.66l-.418.453a.48.48 0 0 0-.051.707c.168.223.301.473.461.723l-.73 1.207c-.16.242-.16.453-.051.703l.16.359.012.02.559 1.309c.02.07.059.18.109.289h-5.918v.852l.91.551h.09v1.039h.59v9.609h-1.703l1.332-1.629v-2.289l-1.332 1.629v-1.668h-1.27v1.668l-1.34-1.629V89.5l1.34 1.629h-2.48v1.18h.633v.703h-.859v1.219l1.27.758h.078v1.082h.68v6.141h-4.02v1.18h.629v.668h-2.56v1.223l1.27.758h.91v7.191H87.078s-2.227-.09-6.719.621l-10.937 1.75v1.07l2.348 1.539v.02l-.031 11.52h-5.867v-.879h.328v-.84l-9.277-2s-.941-.203-1.91-.203H45.68s-.621.023-1.531-.289l-10.18-3.379-10.18 3.379c-.918.301-1.527.289-1.527.289H12.93c-.961 0-1.91.203-1.91.203l-9.281 2v.84h.563v1.219h.711v21.23H2.27v3.93h63.75l1.07-2.07.07-.129a2.08 2.08 0 0 1-.809-1.66 2.1 2.1 0 0 1 2.109-2.109 2.11 2.11 0 0 1 2.109 2.109 2.13 2.13 0 0 1-.898 1.73l.02.051 1.07 2.066H92.55c-.602.25-1.25.582-1.609 1.152-.293.469-.332 1.129.09 1.539.367.371.891.461 1.391.379.469-.07 1.02-.27 1.367-.578.93-.832 2.051-1.43 3.199-1.891 1.273-.5 2.59-.879 3.91-1.219l4.07-.852.66-.109.5-.07h.02a44.7 44.7 0 0 1 2.293-.25c-2.512.762-8.711 2.93-7.723 5.48.012.031.031.051.043.078.59 1.293 2.887 1.223 3.707.422h55.48c.84.82 3.121.871 3.711-.422.012-.027.031-.047.039-.078.992-2.559-5.211-4.719-7.719-5.48l2.27.25h.012l.5.07.668.109 4.07.852c1.32.328 2.641.719 3.922 1.219 1.148.449 2.27 1.059 3.199 1.891.348.309.898.508 1.367.578.5.082 1.023-.02 1.391-.379.41-.41.383-1.059.09-1.539-.348-.57-1-.902-1.609-1.152h21.789l1.07-2.066.02-.051a2.12 2.12 0 0 1-.898-1.73 2.1 2.1 0 0 1 2.109-2.109 2.11 2.11 0 0 1 2.109 2.109 2.13 2.13 0 0 1-.809 1.66l.07.129 1.07 2.07h63.75v-3.93h-.711v-21.219h.711v-1.223h.551v-.84zM102.789 159.5c-.648 0-1.187-.34-1.238-.77 0-.012-.012-.039-.012-.051 0-.461.563-.828 1.242-.828.418 0 .797.137 1.02.359.141.129.219.301.219.469.012.449-.551.82-1.23.82zm57.832-1.301c.219-.211.598-.359 1.02-.359.688 0 1.238.371 1.238.832 0 .027-.008.039-.008.047-.043.43-.582.77-1.242.77-.699 0-1.238-.367-1.238-.816 0-.172.09-.32.23-.473zm-14.902-41.66h48.77l-1.867 1.211h-46.91zm46.543 3.621l.066 31.148h-3.918V120.16h3.852zm-3.84-.789v-.66h3.84v.66zm-42.703-1.242h42.301v33.191h-34.551v-8.641h.609v-1h.41v-1.57h-1.02V137.8h.93v-1.359h-8.687v-18.312zm-26.969 24.172v-.621h2.84v.621zm2.219.379v9.309h-1.617v-9.309zm.609 9.621v.621h-2.84v-.621zm26.633.988v1.59h-31.98v-1.59zm-21.441-10.988v-.621h2.84v.621zm2.242.379v9.309h-1.621v-9.309zm.609 9.621v.621h-2.852v-.621zm5.188-10v-.621h2.84v.621zm2.23.379v9.309h-1.617v-9.309zm.602 9.621v.621h-2.84v-.621zm5.211-10v-.621h2.84v.621zm2.219.379v9.309h-1.621v-9.309zm.609 9.621v.621h-2.84v-.621zm2.531 2.949h4.02v1.691H112.2v-1.691zm-37.922-13.949v-.223h43.852v.223zm.641-3.512v2.313h-1.02v1.57h.398v1h.621v8.637H76.391v-33.18h42.301v18.313H110v1.359h.93zm8.969 2.68v.223h-9.609v-.223zm-8.59-.379v-2.309h8.59v2.309zm2.242 12.211v.621h-2.84v-.621zm-2.242-.312v-9.309h1.621v9.309zm-.598-9.687v-.621h2.84v.621zm34.617-36.25v.418h-26.227v-.418zm-25.879-2v-.672h4.211v.672zm3.391-1.84V96.07h3.27v7.988h-2.078v-.668h.629v-1.18zm13.891-.66h-2.211v2.52h-1.211v-2.52h-2.207v2.52h-1.211v-2.52h-2.199v2.52H126.5V96.08h11.441v7.992h-1.191zm3.66 1.848v.672h-2.082V96.08h3.27v6.141h-1.816v1.18zm.379.652v-.672h4.211v.672zm12.34 36.039h-8.59v-2.309h8.59zm1.031.379v.223h-9.609v-.223zm-34.34-4.73v-.508h24.809v.508zm24.34.383v4.578h-23.859v-4.578zm-18.91-1.27v-28h13.961v28.008zm19.289 1.27h.469v-1.27h-5.41v-28h5.75v29.59h-.797zm-19.668-29.27v28.008h-5.41v1.27h.469v.313h-.801V106.84zm26.02 45.449h2.84v.621h-2.84zm2.238-.312h-1.621v-9.309h1.621zm-2.238-9.687v-.621h2.84v.621zm3.168-5.5v.598h-9.52v-.598zm-8.43-34.199v.418h-5.48v-.418zm-5.219-15.051h.508v3.578h-.508zm2.988 3.969v.422h-5.48v-.422zm-.641.801v.699h-4.207v-.699zM126.5 91.129V81.52h11.441v9.609h-.391v1.18h.629v.703h-11.91v-.703h.629v-1.18zm7.191-12.051h-.203l.672-2.129h.418c-.008 0-.566 1.371-.887 2.129zm-1.801-2.437l.141-1.121h.328l.141 1.121h-.609zm.629.289l-.109 2.141H132l-.102-2.141zm-.68-1.891l-.09-.418h.93l-.09.418zm-.891.48h.379l-.348 1.129h-.43zm-.109-.48l-.109-.418h.371l.109.418zm.09 1.891c-.02 0 .32 1.629.422 2.141h-.242l-.609-2.141zm.199 0h.52l.203 2.141h-.332zm.543-.27h-.5l.328-1.129h.352zm1.238-1.141l.328 1.129h-.5l-.199-1.129zm.57 0l.41 1.129h-.43l-.352-1.129zm-.27-.48l.109-.418h.371l-.113.418zm-.441 1.891h.52l-.391 2.141h-.328zm.719 0h.434l-.613 2.148h-.238l.418-2.148zm1.051-.289h-.41l-.48-1.129.203-.023zm-.84-4.562h.313v.32h-.312zm.23.684c-.031.199-.258.348-.258.348h-2.941s-.23-.16-.262-.348zm-.73-.684h.313v.32h-.312zm-.469 0h.32v.32h-.32zm-.801 0h.559v.32h-.559zm-.539 0h.309v.32h-.309zm-.492 0h.313v.32h-.312zm-.488 0h.309v.32h-.309zm.691 1.363a42.31 42.31 0 0 0 2.227 0c.363 0 .57.129.75.5h-3.727c.168-.371.398-.5.75-.5zm-.93.84h4.066l-.437.758h-.121l.129-.508h-.57l-.137.508h-.41l.129-.52h-1.23l.129.52h-.41l-.137-.508h-.57l.129.508h-.121zm.418 1.238l.199.012-.48 1.129h-.41zm-.75 1.43h.422l.668 2.129h-.199l-.891-2.129zm-4.91 2.5h14.559v.129H124.93v-.129zm.602.66l-.203-.129h13.762l-.199.129zm.418 1.031v-.66h12.531v.66zm-2.43 6.41h.512v3.578h-.512zm-2.469 4.379v-.418h5.48v.418zm4.828.391v.699h-4.207v-.699zm-5.039 1.07h22.75v.418h-22.75zm.289.801h22.172l-.711.418h-20.75zm1.031 1.488v-.699h20.102v.699zm-3.352 7.34v-.418h5.48v.418zm1.09 33.781v.598h-9.52v-.598zm-49.977-20.262h48.77v1.211h-46.9zm2.238 2.832v-.66H76v.66zm3.852.789v31.148H72.09l.07-31.148h3.852zm-73.363 9.539v-.84l21.031.02v-1.008h20.602v1.008l21.238-.02v.84H43.211v-.687h-18.18v.688zm62.191.391v21.23h-2.461v-21.23zm-2.84 0v21.23H43.211v-21.23zm-19.172-.699v21.93H38.48v-21.93zm-4.719 0v21.93h-7.93v-21.93zm-8.309 0v21.93H25.41v-21.93zm-4.77.699v21.23H6.309v-21.23zm-19.082 0v21.23h-2.59v-21.23zm59.852 24.781H2.648v-1.59h63.98zm.699-1.961H2.648v-1.211H66c.051.441.23.859.5 1.211zm1.969-4.02c-1.34 0-2.437 1.078-2.48 2.43h-.77v-20.16h6.551l-.039 20.16h-.762c-.059-1.34-1.148-2.43-2.5-2.43zm24.359 8.68c-.469.258-1.039.211-1.27-.121s-.047-.809.422-1.078c.469-.262 1.039-.211 1.27.117s.051.82-.422 1.082zm.793-2.699H71.02l-.82-1.59h32.281c-1.68.16-5.949.66-8.859 1.59zm-23.172-1.961a2.54 2.54 0 0 0 .5-1.211h39.992v.289h-.562v.922zm41.41.379h3.992v1.59h-8.641c1.27-.75 2.898-1.328 4.648-1.59zm-5.238 1.961h5.199v1.691h-6.852c.332-.582.891-1.16 1.652-1.691zm1.617 3.73l-3.566-.012c.039-.16.078-.297.066-.48-.02-.199-.066-.379-.047-.578a2.43 2.43 0 0 1 .117-.59h3.43zm47.57 0h-47.199v-1.652h47.199zm3.941-1.07c.012.199-.039.379-.051.578-.02.172.012.313.063.48l-3.57.012v-1.652h3.438a2.14 2.14 0 0 1 .121.582zm-.301-.961h-6.848v-1.687h5.207c.75.52 1.32 1.098 1.641 1.688zm-2.238-2.078h-8.641v-1.59h3.988c1.762.27 3.402.848 4.652 1.59zm15.238 1.508c.473.27.652.75.422 1.082s-.812.379-1.27.117c-.473-.258-.66-.75-.422-1.066.242-.34.801-.391 1.27-.133zm20.949-1.508H170.82c-2.91-.93-7.191-1.43-8.859-1.59h32.277zm.582-1.961h-39.93v-.922h-.562v-.289h39.992a2.54 2.54 0 0 0 .5 1.211zm1.969-4.02c-1.348 0-2.449 1.078-2.48 2.43h-.758l-.039-20.16h6.547v20.16h-.77c-.059-1.34-1.16-2.43-2.5-2.43zm65.832 5.98h-63.152l-.82-1.59h63.973zm0-3.172v1.211h-63.859a2.5 2.5 0 0 0 .5-1.211zm-62.191-.379v-21.23h2.461v21.23zm2.84 0v-21.23h18.789v21.23zm19.16 0v-21.93h4.352v21.93zm4.73 0v-21.93h7.93v21.93zm8.309 0v-21.93h4.391v21.93zm4.762 0v-21.23h18.711v21.23zm19.09 0v-21.23h2.59v21.23zm3.301-21.621h-22.383v-.687h-18.18v.688H198.91v-.84l21.238.02v-1.008h20.602v1.008l21.031-.02zm-43.726 58.103l.16-.18a111.74 111.74 0 0 0 18.141-29.57l.137-.34h-6.648l-.059.141a109.57 109.57 0 0 1-5.75 11.137c-2.062 3.48-4.383 6.902-6.871 10.191l-8.77-7.121-.16.203a100.74 100.74 0 0 1-4.391 5.359c-1.16 1.32-2.398 2.617-3.66 3.91h-16.918c8.52-6.609 15.219-14.16 20.797-23.453l.223-.367h-7.211l-.082.109c-1.609 2.441-3.316 4.758-5.098 6.898-1.781 2.152-3.672 4.223-5.641 6.141a76.67 76.67 0 0 1-6.301 5.469 84.94 84.94 0 0 1-7.039 4.891l-.648.313h-35l-5.062 3.879-5.059-3.879H92.148l-.648-.312c-2.48-1.539-4.852-3.187-7.051-4.891a76.26 76.26 0 0 1-6.301-5.469 76.55 76.55 0 0 1-5.648-6.141 87.78 87.78 0 0 1-5.102-6.898l-.078-.109h-7.211l.219.367c5.582 9.273 12.293 16.832 20.813 23.453H64.238c-1.258-1.27-2.5-2.57-3.66-3.91a99.87 99.87 0 0 1-4.387-5.359l-.16-.203-8.77 7.121a107.9 107.9 0 0 1-6.883-10.191c-2.109-3.539-4.039-7.289-5.75-11.137l-.07-.141H27.91l.141.34a112.01 112.01 0 0 0 18.141 29.57l.16.18 8.77-7.121a96.69 96.69 0 0 0 3.18 3.512l-12.23 5.5-15.32 38.41h69.672l-5.191 9.457h73.879l-5.187-9.457h69.668l-15.32-38.41-12.23-5.5c1.09-1.152 2.16-2.32 3.18-3.512zm-91.25-5.141l5.41 4.141 5.41-4.141 59.91-.031 10.738 29.352h-70.258l4.207 8.34h-20.02l4.211-8.34H56.148l10.75-29.352zm86.129 5.84l13.422 34.949h-69.883l5.02 9.93H102.95l5.02-9.93H38.09L51.52 188.5l5.199-2.34-12.039 33.32h70.512l-4.52 8.719h43.09l-4.523-8.719h70.512l-12.039-33.32zm-6.551-2.941l11.98 33.152h-70.641l4.422 8.469h-39.852l4.41-8.469H46.059l11.98-33.152 6.48-2.91h1.359l-11.129 30.32h70.02l-4.23 8.492h23.332l-4.23-8.492h70.031l-11.141-30.32h1.359zm-106.328 5.05l-.25.539c1.18 1.773 3.188 3.5 5.301 4.422-.562.371-1.301 1.078-1.711 1.57a16.1 16.1 0 0 1-1.371-.859v.77h-6.641v-.68c-.469.34-.949.641-1.48.93-.289-.34-.848-.859-1.359-1.223v4.891h-3.66v1.43H86.7V191.52h5.832v4.18c2.418-1.32 4.32-3.437 5.27-5.609zm-9.691 2.66h-1.45v5.941h1.449zm3.871 5.082h8.75v6.848h-2.461v-.758h-3.969v.77h-2.32zm2.32 1.688v2.691h3.969v-2.691zm4.309-4.738c-.789-.711-1.488-1.539-2.109-2.391a14.61 14.61 0 0 1-2.078 2.391zm40.71 6.828v1.941h-18.352v-1.941h7.68v-8.34H124.3v-2.008h16.129v2.008h-6.781v8.34zm29.102-5.707c1.328 3.148 3.777 5.68 7.547 6.898-.598.41-1.398 1.258-1.777 1.809-3.66-1.379-6-3.73-7.57-6.848-1.09 2.688-3.27 5.207-7.551 6.859a6.22 6.22 0 0 0-1.801-1.629c4.629-1.641 6.539-4.332 7.332-7.102h-6.941v-1.98h7.34c.199-1.52.18-2.988.199-4.301h2.629c-.02 1.32-.039 2.813-.25 4.301h7.934v1.98h-7.09zm0 0"/></g><defs ><path id="B" d="M58.461 131.27h2.199v3.582h-2.199zm0 0"/><path id="C" d="M58.461 141.172h2.199v3.578h-2.199zm0 0"/><path id="D" d="M78.172 135.422h2.199V139h-2.199zm0 0"/><path id="E" d="M83.289 118.73a1.1 1.1 0 0 0-1.098 1.098v3.121h2.199v-3.121c0-.617-.5-1.098-1.102-1.098zm0 0"/><path id="F" d="M90.219 124.719h2.203v3.582h-2.203zm0 0"/><path id="G" d="M123.059 112.031h.012v-3.59h-2.211v3.59zm0 0"/><path id="H" d="M129.23 112.031l.008-3.59h-2.219v3.59zm0 0"/><path id="I" d="M141.359 112.031h-.02v-3.59h2.219v3.59zm0 0"/><path id="J" d="M133.309 108.43h-2.199v3.59h2.211v-3.59zm0 0"/><path id="K" d="M135.199 112.031h-.02v-3.59h2.211v3.59zm0 0"/></defs></svg>