<svg xmlns="http://www.w3.org/2000/svg" viewBox="0 0 195 195" width="200" height="200"><path fill="#8f1329" d="M24.6 60.3c7.5-1.5 15.3-.9 22.5 2L87.4 22c5.6-5.6 14.9-5.4 20.5.2s5.6 15 0 20.6L97.6 53.2 82 37.7 69.8 49.9l43.4 43.5 12.3-12.3L110 65.6l10.2-10.2.1-.1c12.5-12.5 12.5-32.8 0-45.2C107.8-2.4 87.5-2.5 75 10L24.6 60.3zM135 24.8c1.6 7.4.9 15.3-2 22.4l40.3 40.3c5.6 5.6 5.5 14.9-.1 20.5-5.7 5.7-15 5.7-20.6 0l-10.4-10.3 15.5-15.5-12.3-12.3-43.4 43.5 12.3 12.2 15.5-15.4 10.2 10.2v.1c12.5 12.4 32.8 12.4 45.3 0 12.5-12.6 12.6-32.9.1-45.4L135 24.8zm35.7 110.3c-7.5 1.6-15.3.9-22.5-2l-40.3 40.3c-5.6 5.6-14.9 5.4-20.5-.2s-5.6-15 0-20.6l10.3-10.3 15.5 15.5 12.3-12.3-43.4-43.4-12.3 12.2 15.5 15.5L75 140.1c-12.5 12.5-12.5 32.8 0 45.3s32.8 12.6 45.3.1l50.4-50.4zM60.3 170.7c-1.6-7.5-.9-15.3 2-22.5L22 107.9c-5.6-5.6-5.4-14.9.2-20.5s15-5.6 20.6 0l10.3 10.4-15.5 15.5 12.3 12.3 43.4-43.5-12.2-12.3-15.5 15.5-10.3-10.2V75C42.8 62.5 22.5 62.5 10 75s-12.6 32.8-.1 45.3l50.4 50.4z"/></svg>