<svg xmlns="http://www.w3.org/2000/svg" width="1000" height="1000"><path fill="rgba(255,255,255,0)" d="M0 0h1000v1000H0z"/><path d="M621.785 235.982c4.226-5.279 5.683-14.705 5.683-14.705H374.283s3.124 10.443 5.766 14.705h241.736zm-14.705 21.479c4.701-4.186 9.503-12.593 9.503-12.593h-231.86s2.603 6.297 8.407 12.593h213.95zm-18.3 19.431c5.73-3.129 10.459-9.477 10.459-9.477H401.013s4.712 5.279 9.387 9.477h178.38zm-23.149 18.352c5.729-2.148 12.066-7.378 12.066-7.378H423.071s0 1.132 10.971 7.378h131.589zm-113.789 11.5s16.29 9.515 48.261 9.515c32.02 0 52.407-9.515 52.407-9.515H451.842z" fill="#a68137"/><path d="M449.233 328.276s19.417 1.018 30.88 9.928c11.049 9.49 19.457 25.175 19.457 25.175s6.824-15.119 17.864-23.026c10.987-8.457 28.861-12.077 28.861-12.077h199.789l39.339 58.215H606.017s-12.565.505-31.445 11.589c-10.004 5.68-17.393 15.674-17.393 15.674s-1.459 4.726-3.62 7.291c-2.114 2.677-3.695 4.813-6.262 5.794-2.664 1.132-2.111.503-2.111.503h-93.353s-3.77-1.483-5.733-4.713c-2.109-3.129-.564-2.048-2.638-4.613-1.583-2.6-5.277-9.487-19.419-18.914-14.666-9.539-28.846-10.495-28.846-10.495H212.781l39.741-60.329h196.712zM308.106 410.59v297.85s1.054 26.317 23.114 61.911c22.019 35.671 53.957 51.958 53.957 51.958l25.225-39.327s-21.982-13.158-38.797-38.345c-16.216-25.111-16.216-46.683-16.216-46.683V410.588h-47.283zm337.768-1.021v287.33s-3.644 28.88-17.295 49.319C614.931 767.182 592.334 784 592.334 784l24.258 38.762s36.648-26.697 54.446-55.05c17.873-28.279 22.122-70.81 22.122-70.81V409.569h-47.286zm-412.655 1.022v298.942s3.092 46.19 31.898 94.417c28.958 48.186 81.293 81.783 81.293 81.783l24.697-39.289s-33.595-17.834-60.291-58.82c-27.374-41.401-28.844-79.183-28.844-79.183v-297.85h-48.754z" fill="#003974"/><path d="M449.237 442.047v315.709s-1.168 1.094-1.547 5.732c-.567 4.789-3.694 7.956-3.694 7.956L338.608 946.06h323.067L556.201 767.712l-3.118-7.919-1.054-8.333V442.614h-39.341v320.499s0 4.6 1.585 8.333c.98 3.694 3.165 9.389 3.165 9.389l64.983 106.971H417.753l63.948-106.442s2.114-3.659 3.695-8.898c1.094-4.753 1.545-9.353 1.545-9.353V442.047h-37.704z" fill="#a68137"/><path d="M718.77 409.568v293.703s-.453 37.744-28.279 81.257c-27.802 43.589-59.802 61.912-59.802 61.912l23.629 39.816s48.189-30.43 78.654-78.654c29.914-48.263 33.559-104.331 33.559-104.331V409.568H718.77z" fill="#003974"/><path d="M372.658 212.861s-16.213-88.57 48.79-132.698c0 0 29.373-27.223 77.034-27.223 50.934 0 80.245 26.708 80.245 26.708 70.812 51.87 49.845 133.215 49.845 133.215H372.658z" fill="#a68137"/></svg>