<svg xmlns="http://www.w3.org/2000/svg" width="336" height="334.667" viewBox="0 0 252 251"><style>.B{fill:#0079c0}.C{fill:#fff}.D{fill-rule:evenodd}</style><defs><clipPath id="A"><path d="M131 203h4v16h-4zm0 0"/></clipPath><clipPath id="B"><path d="m-285.445-394.949 738.609-54.336 74.164 1010.008-738.609 54.336zm0 0"/></clipPath></defs><g class="B"><path d="M189.289 125.855c0 35.051-28.387 63.461-63.406 63.461s-63.402-28.41-63.402-63.461 28.383-63.461 63.402-63.461c35.02-.012 63.406 28.41 63.406 63.461M63.707 29.332c-5.398 13.012-20.926 28.555-33.93 33.945-14.891 6.164-21.992 23.316-15.836 38.234 5.387 13.012 5.375 35-.012 48.004a29.12 29.12 0 0 0 .023 22.379c2.992 7.246 8.602 12.883 15.789 15.863 13 5.391 28.531 20.945 33.914 33.961 6.16 14.918 23.293 22.023 38.184 15.852 13.004-5.391 34.973-5.391 47.977.012 14.891 6.16 32.039-.934 38.207-15.828 5.387-13.012 20.926-28.555 33.93-33.945 14.891-6.164 21.992-23.328 15.836-38.246v.012c-5.387-13.023-5.387-35.012.012-48.016 6.168-14.906-.922-32.066-15.824-38.242-12.988-5.391-28.531-20.945-33.902-33.961-2.98-7.195-8.598-12.805-15.836-15.812-7.238-2.996-15.176-3.008-22.363-.039-13 5.391-34.98 5.391-47.973-.012-14.891-6.176-32.027.934-38.195 15.84m17.551 203.926c-6.082-2.516-10.816-7.242-13.332-13.297-5.875-14.215-22.215-30.582-36.406-36.473-6.047-2.52-10.77-7.246-13.285-13.348-2.527-6.102-2.527-12.793-.012-18.848 5.875-14.203 5.887-37.348.012-51.551-5.211-12.559.773-27 13.309-32.191C45.752 61.668 62.1 45.317 67.99 31.11c5.188-12.559 19.613-18.539 32.148-13.332 14.203 5.895 37.313 5.895 51.52.012 6.035-2.504 12.73-2.492 18.816.039 6.094 2.527 10.828 7.254 13.32 13.309 5.875 14.215 22.227 30.57 36.418 36.461 12.535 5.207 18.496 19.645 13.32 32.18-5.887 14.219-5.898 37.348-.023 51.566 5.188 12.547-.785 26.984-13.32 32.191-14.207 5.883-30.543 22.234-36.445 36.453-2.5 6.051-7.234 10.777-13.332 13.297-6.098 2.527-12.781 2.527-18.828.023-14.207-5.895-37.316-5.895-51.52-.012a24.3 24.3 0 0 1-18.805-.039M57.621 19.988c-5.91 14.254-22.937 31.281-37.18 37.188C4.078 63.965-3.723 82.813 3.051 99.203c5.887 14.266 5.887 38.352-.027 52.609-6.77 16.387 1.02 35.246 17.395 42.047 14.242 5.906 31.266 22.949 37.156 37.215 6.781 16.379 25.609 24.199 41.973 17.41 14.266-5.895 38.332-5.895 52.586.012 16.363 6.789 35.203-1.02 41.977-17.398 5.91-14.254 22.938-31.293 37.191-37.187 16.375-6.777 24.164-25.637 17.391-42.027-5.898-14.254-5.898-38.352.016-52.609 3.273-7.906 3.262-16.645-.027-24.602s-9.445-14.145-17.344-17.422c-14.254-5.906-31.266-22.961-37.152-37.227-6.797-16.379-25.625-24.199-42-17.422-14.242 5.906-38.32 5.895-52.574-.012-16.363-6.789-35.191 1.008-41.988 17.398m4.762 209.086c-6.453-15.617-24.398-33.566-39.977-40.039-13.715-5.695-20.254-21.496-14.574-35.223 6.465-15.605 6.477-40.996.027-56.613C2.18 83.473 8.715 67.672 22.441 62c15.59-6.469 33.535-24.418 40-40.023 5.68-13.715 21.453-20.258 35.18-14.574 15.59 6.473 40.957 6.473 56.563.012 13.711-5.684 29.484.859 35.176 14.586 6.453 15.617 24.387 33.578 39.977 40.039 6.613 2.75 11.777 7.93 14.535 14.609s2.773 13.996.027 20.613c-6.465 15.594-6.465 40.996-.027 56.598 5.691 13.727-.859 29.543-14.57 35.227-15.59 6.469-33.535 24.406-40 40.012-5.691 13.738-21.469 20.258-35.18 14.574-15.602-6.473-40.969-6.473-56.559-.016-13.727 5.699-29.504-.844-35.18-14.582"/><path d="M36.758 80.91s-.355.527-2.687-1.391c-.859-.785-.539-1.852-.539-1.852 1.719-2.09 3.055-1.867 3.055-1.867.332.16.66.207 1.004.344.602.504.91 1.141 1.043 1.73 0 0-.195 1.559-1.875 3.035" class="D"/><path d="M51.527 70.152c.785-1.152 2.34.297 2.34.297l5.008 4.836 1.754 1.879c.906.992 1.984 1.57 2.809 2.258.969.813 2.098 1.832 3.016 2.801.652.676 1.508 1.215 1.914 2.098-.785.566-1.719.504-2.441.801.051.035.039.035.16.012-.062.246-.43.184-.492.391.199.012.383-.047.578-.098.035.086 0 .148.109.234.418.012.836-.172 1.266.012-.137.109-.211.16-.199.309.418.184.813-.062 1.215.059-.305.137-.82-.047-.969.246.492.297 1.043-.281 1.473.258.539 0 .969.184 1.484.148 0 0 .734.859 1.484-.234.391-1.191-.32-2.184-.32-2.184s-1.117-1.289-4.82-4.102c-1.629-2.297-4.355-3.793-4.355-3.793s-.98-.871-1.445-1.574c-4.133-4.395-5.789-5.523-5.789-5.523-1.621-2.613-2.797-2.16-2.797-2.16-.98.418-1.105 1.043-1.437 1.547-.699-1.105-.121-5.352-.121-5.352 1.73-5.121-.992-4.152-.992-4.152s-2.098.469-1.816 4.875c0 0-1.238 8.336-1.238 11.602 0 0-.027 4.445 1.215 9.957 0 0 .871 3.793 1.875 5.133.48.652 1.707 2.688 2.66 4.309-.539-.121-.98-.441-1.422-.883 0 0-5.016-5.414-5.434-6.645 0 0 .797-3.547-2.047-4.234 0 0-.309-.035-.699.137-.711.293-2.211 1.129-2.379 1.324-.371.309-.187.773-.234 1.266 0 0 .305 1.18 2.734 2.32.023.012.063.023.086.035.32.148 5.68 6.461 5.68 6.461 5.742 6.922 6.758 2.527 6.758 2.527-.059-1.512-.074-2.984-.785-4.211l-3.238-3.375c-2.156-2.223-4.695-12.562-1.984-20.258 1.055 3.523 2.379 7.07 3.727 10.582 0 0 .184 2.012 1.742 3.203 0 0 .734.332 1.277-.441.414-1.484-.395-2.27-.395-2.27-1.238-1.363-.98-1.902-.98-1.902 1.777 1.176 3.066.258 3.066.258 1.68-1.402-.441-3.07-.441-3.07-.492-.184-.883-.555-1.301-.773-.785-.418-1.25-.934-1.25-.934-.75-.504-.555-.109-.809-.223-.371-.16-.578-.602-.91-.699-.195.109.074.32-.098.355-.281-.145-.367-.539-.602-.687.453.785 1.066 1.512 1.301 2.309-.406.184-.492.555-.648.836-.43-1.055-.613-2.027-1.117-3.203-.281-1.047-.922-2.004-.945-2.922-.035-.016-.012-.211.223.23M159.43 57.359c-.012-.16-.082-.27-.121-.43-.43-.516-.219-.945-.734-1.164 0-.211.172-.445.047-.617.039-.133.195-.059.223-.195.047-.172 0-.27-.012-.406.27-.391.477-.883.992-.895.246.195.613.195.895.184.223.184.566.32.762.48 0 0 .172.035 3.496 5.059.305.516.762 1.176.676 2.012-.258 2.887-2.883 2.188-2.883 2.188-.27-.137-.441-.457-.773-.445 0 0-1.254-.672-2.566-5.77m-11.666.663s-1.445.785-4.328.773c-1.215-.184-1.633-.43-1.914-.75.109-.098.234-.184.355-.281 0-.566.418-1.129.355-1.77.148-.172.406-.172.613-.258.207.172.648.211.723.48 1.828.922 5.816-2.406 5.816-2.406s3.348-2.887 4.465-6.125l-.98.035s-5.621.48-6.109-1.805c-.012-.051.109-.234.059-.516-.035-.223-.305-.43-.258-.699.027-.16.211-.309.285-.441.316-.531 1.102-.961 1.102-.961.184-.047.355-.195.527-.23.051 0 1.598-.223 2.234.402.012.113.035.137-.023.273 0 0 3.996 1.324 4.977-.492 1.805-4.125 1.559-4.961 2.527-8.937l.566-1.918.539-1.789c.332-.578.883-.996 1.617-.922.074-.012.457.023.492-.062.504.246.773.773 1.348.699.086.223-.098.27-.023.418.012.051.148.023.172.086.039.051-.035.137-.023.195.047.113.207.102.246.16.035.086-.012.234.023.383.023.109.16.074.172.293.063.16.023.355.023.469.074 1.227-.23 1.594-.23 1.594l-1.547 2.43c-.293.492-.441.91-.59 1.512-.699 2.875-1.816 4.996-1.816 4.996 1.141.027 3.008-.574 3.008-.574s1.691-.457 2.809 1.273c1.605 2.234-.418 3.047-.418 3.047-.281.133-.418.281-.785.195-.16.023-.219.211-.379.195-.223-.012-.281-.328-.504-.328-.16 0-.258.133-.391.156 0 0-1.816-.156-2.012-.637-.074 0-.246-.012-.297.012-.871-.246-2.328.195-2.711.539 0 0-.562 1.551-1.902 4.359-.012.027-2.426 4.754-7.812 6.926m64.62 11.482c-.211-.027-.43-.039-.602-.223-.395.109-.785.395-1.082.367l-1.582 1.758-2.133 1.203c-2.062 1.215-4.402 2.211-5.914 3.73-.5.676.051 1.02.578 1.316.063.047.172-.113.234-.051.402.355.953.207 1.348.59 1.129.367 2.281-.281 3.52-.91 2.074-1.043 3.961-2.184 5.816-2.234-5.434 2.445-6.746 3.574-6.746 3.574s-.555.367-1.73.809c0 0-.969.113-1.609.652-.98-.281-1.543-1.008-2.23-1.645-1.742-1.609-3.949-2.348-5.656-3.93-.562-.516-1.262-.945-1.594-1.633.293.063.602-.051.883 0 .184-.195.504-.121.762-.246-.344-.098-.637-.293-.969-.504-.418-.258-.969-.355-1.277-.859-.293-.059-.574.148-.844-.012-.738.195-1.547.504-2.137 1.008-.332.516.367.848.578 1.227 2.957 3.305 4.648 4.039 4.648 4.039 2.16.957 3.445 2.16 3.445 2.16 2.207 2.148 3.352 2.664 3.352 2.664l3.297 2.285c3.203 2.086 3.496 3.191 3.496 3.191-.109.492-.441.75-.93.813-1.215.145-2.762-1.145-4.074-2.223-.246-.199-.516-.371-.676-.613-.086-.125-.109-.223-.172-.32-.672-.934-1.789-1.191-2.5-1.5-.309-.145-.539-.414-.824-.574-.098-.062-.293-.098-.367-.137-.109-.062-.258-.219-.453-.344-.258-.16-.785-.504-1.043-.355-.281.172-.109.836-.012 1.117.16.465.574.836.723 1.191.258.234.59.406.824.688-.945.184-2.27.293-3.02 1.066-.207.664-.32 1.18-.832 1.918a13 13 0 0 1-.664 1.473c-.539-.281-.836-.836-1.215-1.254a6 6 0 0 0-1.02-.785c-.672-.418-1.312-.836-1.984-1.043-.234-.062-.453-.16-.676-.234l-.82-.207-.492-.027c-.148-.012-.332-.07-.465-.086-.199 0-.367.039-.504.027 0 0-.957-.184-1.68.316-.148.074-.332-.035-.492-.059-.246.074-.133.379-.477.293-.086.309-.344.406-.383.664-.328.477-.613 1.141-.613 1.141-1.141 2.641-.023 3.535-.023 3.535 1.094 2.004 3.949 2.629 3.949 2.629s2.098.566 5.09-1.066c.457.883.984 1.645 1.684 2.258.133.035.328.195.551.246a5 5 0 0 0 .453.059c.184.039.332.148.465.137.395-.051.715-.379 1.18-.48.184-.207.281-.441.488-.637-.098-.172.016-.355-.035-.566-.035-.195-.219-.391-.293-.613-.086-.184-.062-.355-.098-.527-.062-.258-.223-.453-.234-.687-.184-.27-.48-.465-.578-.762-.035-.109-.145.051-.172-.047-.012-.32-.453-.578-.391-.957.023-.199.402-.566.563-.789.344-.539.441-1.043.641-1.57.086-.234.242-.43.328-.676.172-.355.395-1.266.738-1.398.109-.039.527.109.723.098.539-.062.895.137.895.137.418-.062.871-.062 1.34-.051.242.086.723.367.969.355.563-.035 1.313-.676 1.227-1.043.453.613.551.895.992 1.289.332.293.625.637.762.762.344.109.516.516.516.516-.199.613.477.578.586 1.117.211.109.469.172.711.246.258.063.469.207.688.246.258.047.504-.062.711.172.48.047.75.047 1.156-.086.086-.027.355-.039.527-.16.184-.137.785-.48.992-.664.367-.332.563-.934.59-1.375.023-.539-.137-1.141-.516-1.719-1.254-1.914-3.828-3.5-5.187-4.75.367-.086 1.164-.148 1.188.43-.074.16-.207-.012-.344.109.418.27.824.32 1.301.613.246-.035.395.137.648.184a1.5 1.5 0 0 1 .332 0c.172.234.406.172.566.395a2 2 0 0 1 .242-.137c.102.074.148.184.246.211.984.219 2.063.895 2.063.895.93.172 1.617-.184 1.617-.184.641-.332 1.02-1.082 1.18-1.742a4 4 0 0 0 .074-.406c.023-.148.098-.258.109-.355.023-.258-.121-.453 0-.664.133-.219.551-.062.797-.023.762.098 1.484.195 2.121.441.527.406 1.141.996 2.223.453.109-.059.305-.246.441-.391.059-.086.145-.246.23-.32.16-.16.27-.32.297-.492.059-.418-.184-.82-.148-1.141.035-.516.648-.859 1.277-.934l.586-.086c.344-.062.727-.062 1.043-.133.43-.113.922-.531.996-.863.145-.785-1.277-1.387-1.707-1.301-.809-.047-1.41.602-2.207.922l-4.184 1.117c-.305-.086-.602-.074-.895-.109l-.75-.086c-.242-.039-.5-.062-.711-.211-.281.063-.516-.012-.762-.098-.098.023-.207.051-.293.051-.969-.211-1.988.121-3.102.27l2.27-.969 2.316-1.219 2.195-.797c.75-.504 1.105-1.141.465-1.766-.402-.395-.918-.801-1.41-.738.027-.086-.059-.074-.086-.172-.918-.309-1.898-.441-2.918-.418-.012-.219.184-.406.281-.602-.035.023.824-1.695-.586-2.184m-.332 10.852c.074.16-.172.223-.223.344-.16.332.086.797.012 1.168-.379.246-.855.145-1.273.16-1.254.023-2.699.07-3.793-.332.211-.211.859-.344 1.129-.59 3.68-1.633 4.148-.75 4.148-.75m-21.43 12.535c-1.582.441-4.316.309-5.102-1.496-.332-1.105.035-1.461.871-1.902 2.195-1.277 4.598.734 4.598.734.379.664.945 1.387.883 1.891 0 0-.023.418-1.25.773"/><path d="M89.699 39.793c.219 1.508-.504 2.047-.504 2.047-.602.555-1.301.566-2.207.762-.16-.059-.16-.344-.406-.477-.934-.098-1.719-.957-1.73-.973.063-.086.086-.086.039-.121-.027-.051-.738-.797-1.066-1.41-.504-.91-.051-1.523.035-1.684 0 0 .223-.355 1.57-.453a6 6 0 0 1 .734-.027c.297.016.785.102 1.609.211 0 0 1.531.441 1.898 2.086m.188 9.664s-.984 1.09-.641 4.297l.258 1.816c.172.934.59 1.668.59 1.668 1.594-2.344 1.914-5.684 2.305-8.875.281.711-.281 1.84.395 2.297.074.145-.113.391.121.379-.258.234.051.813-.234 1.07.016.109.074.121.137.145-.234.578.148 1.473-.051 1.816.027.188.051.223.027.445 0 0 .488 3.695-.062 4.813-.906 3.363-1.816 3.73-1.816 3.73-.281.039-.453.148-.723.246 0 0-1.852 0-2.316-2.785l.316-9.641c-.023-.762.172-1.57.039-2.32 0 0-.48-1.176-.957-1.816-.199-.32-.039-.895.133-1.324a1 1 0 0 1 .16-.039c.098-.062.012-.234.109-.293 2.43-.984 3.496 1.191 3.496 1.191s.074.98-.047 1.594c-.012-.023-.199.469-1.238 1.586" class="D"/><path d="M105.41 36.723s1.191-.848.957-1.758a.2.2 0 0 0-.035-.047c-1.203-2.332-5.398 1.816-5.398 1.816s-2.258 2.602-3.078 2.801c0 0-.613-.258 1.176-5.344 0 0 .762-1.754 1.867-6.664-.184-.785.156-1.5-.871-2.137-2.012-.172-2.934 3.941-2.934 3.941.086-.027.125-.086.211-.113.012.125-.184.246-.051.359.074-.16.098-.344.234-.469.344-.074.344-.477.723-.441l-.539 3.449s-2.465 8.277-.59 10.055c.992.613 3.203-2.207 3.203-2.207s2.5-3.426 3.102-3.07c.098.063-1.801 4.789-1.801 4.789-.75 2.441-1.672 7.551-1.672 7.551-.809.488-1.469.465-2.352.379-2.945.441-.687 2.199-.687 2.199.969.391 2.145-.113 2.98-.074-.074 4.074 2.797 3.941 2.797 3.941 1.41-.102 2.402-1.414 3.727-1.648.406 2.801-.672 5.121-.672 5.121-.102-.098-.527-.109-.543-.074-.035.16.273.297.211.457-.367 1.633.773 2.883.773 2.883 0-.012.184.332.465.309.527-.062 1.277-.957 1.461-1.77l.832-4.492c.27-.898-.035-2.176.246-3.07.332-.184.664-.492.945-.797-.074-1.684-1.828-2.027-1.828-2.027-.137-1.129-.207-2.086 0-3.02.699-.16 2.098-1.043 2.246-1.117.832-.453 1.582.172 1.582.172.563.207 1.043.527 1.863-.137.578-3.926-3.547-1.73-3.547-1.73s-1.961 1.031-2.184.738c0 0 .516-2.801-.637-4.789 0 0-.797-.91-2.27-.121-1.457.785-1.285 1.668-1.285 1.668.453-.023.77.184 1.102.355.332.641.578 1.57.504 2.16-.332-.109-.836-.172-1.141-.344 0 0-1.891-.527-1.52 1.707.012.711.156 1.426.133 1.977-.16.395-1.078.578-1.57.566.406-9.465 3.863-11.934 3.863-11.934m-2.562 15.605c-.648.012-1.164-.543-1.191-1.289.406-.223.898-.773 1.57-.703.113.688.113 1.34-.414 1.648-.039.086.059.242.035.344m2.527-.836c-.738.172-1.473.75-2.207.785.07-.379.5-.516.598-.871 0 0 .32.246.836-.957.184-.074.527-.383.734-.715.578-1.324.813-1.004.813-1.004.207 1.277-.172 1.668-.086 2 .012 0 .281.539-.687.762M52.176 156.453l-14.402 5.242-.66-1.844 6.609-2.406-2.5-6.887-6.613 2.406-.672-1.828 14.398-5.258.664 1.844-6.047 2.195 2.5 6.902 6.059-2.211zm-5.028 7.563c4.5-2.445 7.957-1.879 10.352 1.668 2.133 3.707 1.129 7.059-3.031 10.043-4.414 2.383-7.824 1.793-10.219-1.754-2.145-3.723-1.164-7.035 2.898-9.957m1.039 1.656c-3.187 2.211-4.047 4.691-2.562 7.441 1.793 2.504 4.391 2.797 7.789.895 3.215-2.184 4.063-4.629 2.539-7.355-1.828-2.539-4.426-2.859-7.766-.98m23.11 16.952-11.039 10.672-1.348-1.426 5.078-4.898-5.09-5.277-5.066 4.91-1.363-1.414 11.027-10.656 1.363 1.414-4.637 4.469 5.09 5.277 4.637-4.469zm-4.414 16.148-1.594-1.133 13.113-9.539 1.777 1.242-4.602 15.492-1.715-1.203 1.359-4.383-4.637-3.242zm11.004-8.215-5.789 4.273 3.605 2.516zm3.738 17.422 6.871-13.715 1.668.848-6.855 13.727zm27.293 3.782c-1.078 3.523-3.395 4.91-6.953 4.176q-4.97-1.419-3.863-6.594l2.477-9.824 1.828.469-2.332 9.219c-.637 2.738.16 4.422 2.395 5.035q3.553.74 4.621-3.18l2.355-9.297 1.891.48zm17.504-8.176-.98 15.309-2.16-.148-6.375-12.793-.801 12.328-1.875-.109.992-15.312 2.297.148 6.219 12.93.82-12.477zm0 0"/></g><g clip-path="url(#A)" class="B"><g clip-path="url(#B)"><path d="m131.305 203.234 1.883-.141 1.125 15.293-1.887.141zm0 0"/></g></g><path d="m149.715 200.246-1.801 16.059-2.035.441-8.184-13.949 2.051-.43 6.695 12.059 1.227-13.75zm8.871 13.16-5.703-14.242 9.516-3.816.676 1.707-7.766 3.117 1.77 4.418 7.188-2.883.688 1.707-7.191 2.883 1.953 4.84 7.898-3.168.625 1.57zm15.383-6.738-8.145-12.992 5.543-3.5q3.94-2.372 6.098 1.059c.93 1.398 1.039 2.813.328 4.223q1.677-.498 2.969 1.582l1.582 2.262q.608.972 1.363.859l.16.258-1.953 1.227c-.477-.418-1.227-1.398-2.242-2.922-.969-1.633-2.172-1.988-3.633-1.066l-3.961 2.492 3.461 5.523zm.98-10.387c1.645-.984 1.961-2.25.992-3.797-.918-1.473-2.098-1.754-3.508-.871l-4.07 2.566 2.809 4.48zm8.891-13.679c-1.496 1.461-1.703 2.824-.586 4.102.723.785 1.57.871 2.527.27l3.641-2.012c1.965-1.031 3.645-.785 5.055.746 1.805 2.102 1.434 4.422-1.094 6.949-1.434 1.328-2.781 1.992-4.059 1.977-1.336-.012-2.527-.613-3.57-1.816l1.289-1.18c1.547 1.621 3.301 1.609 5.262-.059 1.742-1.672 2.074-3.133 1.008-4.359-.762-1.168-2.098-1.152-4.023.063l-2.578 1.422c-1.816.984-3.348.801-4.586-.551q-2.906-3.463.367-6.703c2.625-2.434 5.078-2.492 7.324-.184l-1.34 1.238q-2.076-2.079-4.637.098m17.738 1.276-11.801-9.797 1.203-1.449 11.801 9.785zm-1.816-24.149 1.559.969-2.527 4.027 11.434 7.168-1.031 1.66-11.434-7.172-2.512 4.016-1.559-.969zm17.406-1.535-5.617-2.246-10.574 1.496.824-2.086 8.402-.996-5.398-6.52.82-2.074 6.625 8.434 5.617 2.25zm0 0" class="B"/><path d="M77.898 111.813s2.402.844 3.828-3.328c.109-.371.242-.664.355-.945 2.637-6.777 6.992-12.414 6.992-12.414 9.629-11.895 16.52-14.816 16.52-14.816 1.301-.789 2.492-1.082 1.754-2.457-.477-.883-2.035-.258-2.035-.258-9.434 2.801-15.355 9.098-15.355 9.098-6.047 5.598-11.187 16.195-11.324 16.551-2.059 4.406-2.059 7.109-2.059 7.109.086.906.699 1.301 1.324 1.461m18.043 38.178c-9.371-12.645-8.918-25.832-8.918-25.832-.305-6.789 1.324-8.238 2.664-9.66 1.543-1.645 6.758-3.512 6.758-3.512 4.465-1.609 9.246-9.121 9.246-9.121 3.953-5.465 7.816-10.312 13.371-14.895 2.75-1.937 4.746-2.613 4.746-2.613.91-.355 1.707-2.074.125-2.578-3.324-.492-7.656 2.895-7.656 2.895-10.449 7.492-18.594 19.398-18.887 19.977s-1.414 2.371-3.496 3.168c-2.125.824-2.957-.551-2.957-1.57.172-1.375 3.043-6.016 3.043-6.016 2.391-4.457 11.699-12.562 11.699-12.562 3.496-3.523 13.875-9.109 13.875-9.109s1.863-.836 1.559-1.914c-.602-1.215-2.137-.625-2.137-.625-23.402 8.223-32.355 29.809-32.355 29.809-12.797 27.672 8.672 48.645 8.672 48.645 7.887 9.34 16.547 12.191 16.547 12.191.602.172.672.098-.16-.762-9.422-6.594-15.738-15.914-15.738-15.914m16.535-50.744c-1.484 2.578 4 2.875 4 2.875l41.926-.285c2.477-1.473-2.293-7.047-2.293-7.047-6.602-8.445-14.609-9.047-14.609-9.047-2.125-.184-2.43.602-2.43.602-1.043 2.934-2.848 3.793-5.617 3.352-2.676-.43-2.652-1.793-2.652-1.793 0-.699-.086-1.742-.809-2.16-1.582-.922-6.414 1.902-6.414 1.902-4.477 2.297-8.156 6.496-11.102 11.602" class="C"/><path d="m123.258 93.887 25.992.035c2.602 2.887.039 3.156.039 3.156l-28.117.023.309-2.711c.195-.676 1.777-.504 1.777-.504" class="B"/><path d="m140.211 119.949 36.527-.27c.969-2.738-.219-5.746-.219-5.746-.797-2.051-2.418-.871-2.418-.871-2.586 1.844-4.5 1.633-4.5 1.633l-30.238-.109s-2.172-.062-2.133-2.457c.035-2.504 2.832-2.48 2.832-2.48h34.945l-1.383-4.945c-5.25-16.734-23.16-25.34-23.16-25.34-8.523-3.992-14.621-4.543-16.328-4.754-3.801-.465-3.922 1.758-3.922 1.758s-.355 2.652 4.453 3.891c5.32 1.094 8.867 2.48 8.867 2.48 8.867 3.621 14.84 9.465 14.84 9.465 7.68 6.84 8.59 12.695 8.59 12.695h-57.996c-3.594 0-4.676 1.203-4.918 1.582l-1.398 2.359c-.625 1.547 1.531 1.57 1.531 1.57l23.992.012s2.086-.012 2.125 2.016c.023 2.086-1.668 2.172-1.668 2.172l-17.187-.023c-4.195 0-5.422-1.398-5.422-1.398L104 111.762c-1.988-1.41-5.164-.32-5.887 2.504-.367 1.227 1.141 2.727 2.516 3.781.512.332 2.328 1.363 5.617 1.363h.145l21.469-.012s2.145.602 2.465 2.48c.219 2.613-1.621 3.242-1.621 3.242h-5.543c-.859-1.391-1.582-1.266-1.582-1.266l-10.953-.098c-2.109-.074-3.535 0-4.676.184-.047.023-.059.035-.109.047l-3.84 1.266s-.379 7.332 3.621 10.57c1.898 1.535-.051 3.598-.051 3.598-.934 1.375-3.973 1.965-3.984 1.953-.445-.492-4.504-5.035-5.082-21.066 0 0-.625-3.414-3.336-3.293s-2.969 3.293-2.969 3.293c-.734 18.598 15.578 33.332 15.578 33.332 11.102 8.754 17.457 10.547 17.457 10.547s1.914.723 2.43.391c1.301-.992-.125-1.742-.125-1.742-1.645-.898-7.027-4.457-7.027-4.457-1.535-1.105-5.215-3.254-6.637-5.879 1.582-2.238 3.777-2.973 6.527-2.824 3.457.184 3.383 2.895 3.383 2.895-2.781 3.98 9.828 10.867 9.828 10.867 3.383 1.02 11.836.086 11.836.086s4.207-.309 4.367-2.086c-.027-1.781-1.57-1.781-1.57-1.781h-11.738s-3.719-.125-3.902-2c-.184-2.004 3.203-1.719 3.203-1.719l18.09.969c6.332.625 9.336-1.719 9.336-1.719 1.141-.711 2.406-1.828 1.031-4.949-1.387-2.48-3.363-2.91-6.035-3.559-2.664-.652-9.52-.27-10.746-.469s-2.586-.918-2.516-2.035c.102-2.199 4.023-1.094 4.023-1.094 4.035.563 5.633-1.387 5.633-1.387s1.359-1.598 4.574-1.598c4.27.137 6.598 4.492 6.598 4.492s3.117 2.777 5.582.578c1.926-2.43.137-4.09.137-4.09s-2.527-1.617-2.824-3.043c-.551-2.492 4.711-4.738 4.711-4.738s4.527-1.719 4.699-3.379a6 6 0 0 0-.098-1.914c-1.914-2.91-5.348-2.625-5.348-2.625l.035-.027-30.16.113s-2.652.207-2.812-2.605c.016-2.773 2.492-2.91 2.492-2.91" class="C"/><path d="m147.902 131.297 16.363.012s2.918 2.98-3.965 3.668c-7.48.762-11.652-.516-12.656-1.977zm-40.05.23c.109-2.492 5.164-2.184 5.164-2.184l6.344.145c.551.074 1.324.445 1.57 1.477-.027 1.398-.469 1.621-.824 1.938-5.652 3.855-8.672 2.777-8.672 2.777-3.324-.875-3.703-1.414-3.582-4.152m5.703 14.402s0 1.117-4.523 5.047c0 0-2.883-1.918-5.227-5.145 0 0 2.785-3.93 6.316-3.02 4.012 1.227 3.434 3.117 3.434 3.117m6.465-4.038s-2.27.527-3.09-1.203c-.492-2.285 1.227-2.973 1.227-2.973l4.699-2.074s1.273-1.633 1.324-4.102c.184-2.59 2.77-2.281 2.77-2.281 2.836-.344 2.637 3.328 2.637 3.328l-.426 5.855c-2.859 2.551-9.141 3.449-9.141 3.449m29.23 7.712s3.066-.125 3.449 2.418c-.383 2.516-5.582 1.953-5.582 1.953l-17.32-1.437c-3.473-.137-6.367-2.492-5.324-5.637 1.105-3.312 6.625-.832 6.625-.832 1.852 2.637 6.746 2.246 10.23 2.699zm-9.863-19.754s4.453.328 4.246 3.535c-.711 4.676-3.816 5.953-5.926 5.66s-4.809-.676-3.887-5.34c1.152-4.359 5.566-3.855 5.566-3.855" class="B"/><path d="M82.18 143.289s-5.789-10.668-2.945-24.738c0 0 .109-1.289-1.473-1.484-1.52-.113-1.875.809-1.973 1.09-3.141 13.801 3.09 25.906 3.09 25.906s6.785 14.379 16.18 20.113c1.191.453 1.09 0 .934-.148.012-.012-9.312-10.352-13.812-20.738m73.241 35.038-2.012-3.656a56.01 56.01 0 0 0 28.973-49.051c0-30.863-25.086-55.957-55.91-55.957s-55.91 25.105-55.91 55.957c0 20.188 10.93 38.883 28.52 48.793l-2.047 3.633c-18.902-10.656-30.645-30.742-30.645-52.426 0-33.16 26.949-60.133 60.082-60.133s60.078 26.973 60.078 60.133a60.18 60.18 0 0 1-31.129 52.707m-41.707-7.746-2.871 12.461h-3.641l1.863-8.066c-1.105.641-2.402 1.145-3.926 1.477l.664-2.898c1.938-.797 3.543-1.781 4.82-2.973zm8.367 7.465a4.3 4.3 0 0 1-2.699.945c-1.02 0-1.891-.344-2.602-1.02s-1.078-1.547-1.078-2.578c0-1.238.488-2.355 1.473-3.328.969-.992 2.305-1.473 3.984-1.473q2.302-.001 3.645 1.328c.883.883 1.336 2.074 1.336 3.57 0 1.219-.258 2.457-.762 3.723-.5 1.25-1.262 2.246-2.27 2.969s-2.219 1.082-3.652 1.082q-1.84 0-2.992-.738c-1.152-.738-1.254-1.238-1.426-2.223l3.496-.305c.148.809.566 1.215 1.266 1.215q.774 0 1.324-.738c.55-.738.699-1.273 1.016-2.355zm-1.398-1.105c.516 0 .98-.23 1.387-.699.391-.477.598-1.105.598-1.891 0-.539-.121-.957-.379-1.266-.246-.293-.613-.453-1.105-.453-.453 0-.906.234-1.348.688s-.66 1.227-.66 2.309c0 .258.121.551.367.859.246.293.625.453 1.141.453m15.428-6.36-2.871 12.461h-3.641l1.863-8.066c-1.094.641-2.406 1.145-3.926 1.477l.664-2.898c1.938-.797 3.543-1.781 4.82-2.973zm12.575.195-.602 2.605h-5.605l-.613 1.977 1.508-.48a4.4 4.4 0 0 1 1.066-.133c1.043 0 1.891.281 2.566.859.672.563 1.004 1.422 1.004 2.551 0 .887-.207 1.695-.613 2.406-.406.727-1.066 1.352-1.961 1.867-.898.527-2.137.801-3.719.801-1.484 0-2.586-.285-3.336-.836-.734-.555-1.191-1.449-1.348-2.676l3.594-.395v.051c0 .563.133.992.43 1.289s.684.453 1.188.453c.625 0 1.152-.27 1.582-.797s.652-1.156.652-1.891v-.039c0-1.031-.48-1.547-1.426-1.547-.672 0-1.25.27-1.754.797l-3.336-.477 1.953-6.398h8.77zm0 0" class="C"/></svg>