<svg width="161" height="161" viewBox="0 0 161 161" fill="none" xmlns="http://www.w3.org/2000/svg"><g clip-path="url(#a)"><path d="M80.513 0a80.502 80.502 0 1 0 0 161.005A80.502 80.502 0 0 0 80.513 0" fill="#0F2D69"/><path d="M105.069 101.757c0-13.208-4.267-22.113-15.336-26.025a17.8 17.8 0 0 0 7.01-5.308 15.63 15.63 0 0 0 3.749-10.368c0-2.865-.787-8.59-5.821-12.533-3.455-2.667-6.513-3.952-13.818-3.952H61.549v72.009h43.536zm-9.855 9.86h-7.859V87.574h-9.057v24.069h-6.93V47.158h7.113c2.672 0 6.72.589 9.58 4.145a13.2 13.2 0 0 1 2.728 6.604H78.298v3.556H90.9a13 13 0 0 1-.757 4.064 12.1 12.1 0 0 1-2.032 3.515 12.34 12.34 0 0 1-9.804 4.76h-.076v3.597c12.237 0 17.002 8.128 17.002 23.022zM52.324 30.84l-2.693-5.582 6.645-3.206 2.692 5.588 2.271-1.097-6.177-12.812-2.27 1.092 2.463 5.106-6.645 3.205-2.463-5.105-2.271 1.092 6.177 12.817zm20.879-10.921c.187 1.183-.656 2.331-2.302 2.59-1.265.204-2.54-.188-3.896-1.183l-1.123 1.849c1.798 1.336 3.42 1.813 5.365 1.524 3.291-.508 4.75-2.86 4.379-5.146-.869-5.415-7.747-2.256-8.23-5.263-.183-1.148.574-1.946 1.936-2.164 1.361-.218 2.341.218 3.708 1.173l1.112-1.905c-1.747-1.143-3.047-1.691-5.135-1.356-2.865.457-4.339 2.423-3.978 4.669.884 5.47 7.691 2.24 8.163 5.212M89.26 21.88l-4.998-.417.325-3.886 4.572.38.188-2.23-4.577-.38.29-3.48 5.003.416.188-2.29-7.513-.626-1.179 14.174 7.513.625zm18.527 9.184c3.236 1.793 6.716.798 8.423-2.276l4.099-7.391-2.204-1.224-4.146 7.462a3.753 3.753 0 0 1-6.558-3.637l4.145-7.468-2.204-1.219-4.105 7.392c-1.697 3.073-.701 6.558 2.55 8.361m11.857 8.209 7.066-6.487-1.585 12.461 1.209 1.316 10.48-9.616-1.702-1.854-7.066 6.482 1.57-12.472-1.199-1.305-10.48 9.621zm22.213 5.639-12.438 6.9 1.223 2.203 12.438-6.9zm-6.618 20.884 15.215 1.422-.747-2.6-10.861-.92 8.722-6.523-.751-2.616-12.131 9.302zm1.982 17.821 2.296-.041-.087-5.02 3.902-.065.081 4.592 2.23-.04-.076-4.588 3.495-.06.086 5.018 2.296-.04-.132-7.539-14.218.244zm-1.077 7.803 4.785 1.127-.269 1.128c-.508 1.046-5.405.706-6.183 3.988-.091.424-.13.857-.116 1.29l2.296.544a1.9 1.9 0 0 1 .045-.64c.371-1.56 3.145-1.723 3.739-2.668a4.4 4.4 0 0 0 3.384 4.161 4.69 4.69 0 0 0 4.918-1.864 4.7 4.7 0 0 0 .746-1.692l1.077-4.572-13.848-3.266zm6.604 3.555.447-1.874 4.506 1.062-.442 1.88a2.4 2.4 0 0 1-1.028 1.545 2.4 2.4 0 0 1-1.822.349 2.36 2.36 0 0 1-1.457-1.138 2.36 2.36 0 0 1-.194-1.839zm-.976 13.564c-4.917-2.652-6.492 4.714-9.144 3.297-1.051-.574-1.448-1.941-.655-3.404.61-1.127 1.697-1.9 3.312-2.367l-.782-2.032c-2.154.615-3.526 1.605-4.461 3.343-1.584 2.931-.619 5.506 1.418 6.604 4.831 2.606 6.507-4.781 9.189-3.333 1.016.554 1.194 1.641.539 2.855s-1.6 1.722-3.19 2.225l.838 2.032c1.966-.696 3.205-1.407 4.201-3.251 1.397-2.52.737-4.887-1.265-5.969m-17.246 7.76-1.629 1.922 10.853 9.194 1.629-1.922zm-1.28 17.904-7.244-9.423-2.002 1.534 7.244 9.428-3.459 2.662 1.422 1.849 8.926-6.858-1.423-1.854zm-20.503-1.427-2.337.944 1.763 4.354-.981 10.678 2.617-1.062.579-7.508 5.638 4.994 2.617-1.062-8.133-6.985zm-45.203 2.509 4.76 1.595-1.239 3.698-4.353-1.457-.711 2.118 4.353 1.458-1.107 3.312-4.76-1.59-.732 2.174 7.153 2.398 4.516-13.487-7.148-2.393zm-7.563-7c-2.814-1.788-5.45-1.016-6.69.95-2.942 4.633 4.307 6.827 2.677 9.403-.62.975-1.717 1.072-2.886.335-1.168-.736-1.605-1.717-1.996-3.337l-2.098.691c.548 2.032 1.178 3.296 2.946 4.419 2.454 1.555 4.862 1.062 6.096-.858 2.992-4.72-4.247-6.813-2.646-9.337.64-1.016 2.032-1.306 3.439-.417 1.082.686 1.778 1.829 2.133 3.47l2.063-.635c-.478-2.195-1.372-3.633-3.038-4.684m-10.729-8.372-1.702-1.854-8.763 8.026-2.951-3.22-1.722 1.579 7.604 8.301 1.723-1.58-2.952-3.22zm-14.651-19.162 1.169 3.384 2.23-.767-3.16-9.165-2.23.767 1.173 3.399-11.47 3.957.427 1.23 4.638 4.094 1.386-1.575-2.687-2.382zM14.27 90.434c2.799-.198 4.689-2.245 4.475-5.288a3.7 3.7 0 0 0-1.072-2.47c2.078.32 3.414 1.88 4.064 4.542 0 .285.041.57.041.874l2.27-.162a8 8 0 0 0-.065-1.194c-.854-4.892-4.242-6.975-9.225-6.604h-.163c-3.261.228-5.786 1.956-5.537 5.542.188 2.875 2.23 4.968 5.212 4.76m-3.099-4.912c-.107-1.524.955-2.678 2.637-2.794s2.855.899 2.961 2.397a2.6 2.6 0 0 1-2.596 2.81c-1.681.116-2.895-.915-3.002-2.413M14 72.659c2.754.549 5.116-.93 5.71-3.922a3.7 3.7 0 0 0-.386-2.667c1.926.859 2.8 2.713 2.713 5.451-.056.274-.112.554-.188.854l2.23.442q.173-.577.254-1.174c.463-4.943-2.255-7.843-7.162-8.814l-.158-.03c-3.21-.64-6.096.36-6.797 3.891-.564 2.83.853 5.39 3.785 5.969m-1.696-5.552c.294-1.479 1.626-2.332 3.277-2.002 1.65.33 2.54 1.615 2.224 3.089-.314 1.473-1.605 2.357-3.235 2.032-1.631-.325-2.556-1.646-2.266-3.12m6.43-13.151c-.869-1.631-.985-2.78-.391-3.978a2.24 2.24 0 0 1 3.14-1.016c1.965.975 2.819 6.31 3.865 9.931l1.748.864 4.399-8.905-2.113-1.047-2.779 5.629c-.833-3.13-1.681-7.56-4.287-8.844-2.226-1.103-4.694-.463-6.04 2.27-1.057 2.134-.626 4.156.345 5.954zm63.891 88.706a2.54 2.54 0 1 0-.49 5.056 2.54 2.54 0 0 0 .49-5.056M32.45 37.226a2.54 2.54 0 1 0 .49-5.056 2.54 2.54 0 0 0-.49 5.056" fill="#fff"/></g><defs><clipPath id="a"><path fill="#fff" d="M0 0h161v161H0z"/></clipPath></defs></svg>