<svg xmlns="http://www.w3.org/2000/svg" width="1000" height="1000" viewBox="0 0 1000 1000" xml:space="preserve"><rect width="100%" height="100%" fill="rgba(255,255,255,0)"/><path style="stroke:none;stroke-width:1;stroke-dasharray:none;stroke-linecap:butt;stroke-dashoffset:0;stroke-linejoin:miter;stroke-miterlimit:4;is-custom-font:none;font-file-url:none;fill:#232527;fill-rule:nonzero;opacity:1" transform="translate(53.022 45.459) scale(25.09399)" d="M10.937 30.223v3.386c0 .962-.477 1.475-1.344 1.475s-1.352-.528-1.352-1.516v-3.341h-1.2v3.382c0 1.664.924 2.618 2.536 2.618 1.627 0 2.56-.972 2.56-2.666v-3.337zm4.414 0-2.605 5.911h1.225l.503-1.145.036-.086h2.707l.531 1.231h1.258l-2.581-5.876-.023-.035zm7.133 0-1.343 4.067-1.307-4.064h-1.277l2.061 5.912h.993l1.345-3.883 1.344 3.883h1.002l2.056-5.912h-1.244l-1.31 4.064-1.343-4.067zm11.74 0v5.906h1.184v-5.906zm-33.955 0v5.914h1.2v-2.402h2.709v2.402h1.2v-5.914h-1.2v2.386h-2.71v-2.386zm28.058.004v5.906h4.466v-1.077H29.51v-1.464h2.183v-1.077H29.51v-1.211h3.168v-1.077zM15.859 31.72l.855 1.98h-.003l.058.137h-1.815l.057-.137h-.001z"/><path style="stroke:none;stroke-width:1;stroke-dasharray:none;stroke-linecap:butt;stroke-dashoffset:0;stroke-linejoin:miter;stroke-miterlimit:4;is-custom-font:none;font-file-url:none;fill:#cf0a2c;fill-rule:nonzero;opacity:1" transform="translate(53.01 45.453) scale(25.09399)" d="M15.211-.001c-.476.042-1.762.335-1.762.335h-.001c-2.899.749-3.584 3.38-3.584 3.38a5.09 5.09 0 0 0-.225 1.323v.581a7.15 7.15 0 0 0 .238 1.569c.968 4.294 5.73 11.35 6.753 12.832.073.072.131.046.131.046.11-.03.102-.136.102-.136h.002c1.576-15.754-1.654-19.93-1.654-19.93zm5.208 0s-3.244 4.178-1.667 19.941h.002c.012.1.083.121.083.121.106.041.16-.06.16-.06v.001c1.05-1.52 5.784-8.537 6.748-12.815 0 0 .523-2.07.018-3.473 0 0-.717-2.672-3.619-3.378 0 0-.837-.212-1.725-.337zM5.454 4.729s-2.762 2.622-2.9 5.401h.001v.421l.006.096c.119 2.241 1.805 3.568 1.805 3.568 2.717 2.648 9.295 5.99 10.823 6.749.021.008.1.034.147-.025 0 0 .024-.018.035-.051v-.07l-.005-.012C11.181 11.661 5.454 4.729 5.454 4.729zm24.715 0s-5.709 6.911-9.893 16.037l.002-.001s-.049.106.03.174c0 0 .024.018.057.025h.058a.11.11 0 0 0 .033-.014v.001c1.57-.779 8.097-4.1 10.801-6.736 0 0 1.712-1.375 1.802-3.583.198-3.066-2.889-5.904-2.889-5.904zm5.139 9.079S26 18.802 21.187 22.049h.001l.001.001s-.087.057-.057.16c0 0 .046.083.112.083l8.41-.02s.843-.034 1.886-.434c0 0 2.32-.738 3.525-3.372 0 0 .551-1.101.559-2.649v-.066a6.292 6.292 0 0 0-.316-1.945zm-34.995.023c-.847 2.622.293 4.734.295 4.738 1.188 2.51 3.456 3.271 3.456 3.271a6.7 6.7 0 0 0 2.094.46c.164.03 6.513.003 8.214-.005.072-.001.112-.073.112-.073a.095.095 0 0 0 .011-.023v-.066c-.014-.044-.052-.075-.052-.075l.001-.001C9.634 18.812.313 13.831.313 13.831zm13.865 9.27-10.95.384c1.187 2.117 3.187 3.762 5.27 3.257 1.438-.359 4.695-2.631 5.77-3.399l-.004-.003c.084-.075.054-.135.054-.135-.028-.098-.141-.098-.141-.098zm7.252.008-.001.004s-.096.012-.123.084c0 0-.023.098.041.147l-.001.001c1.048.752 4.226 2.974 5.757 3.405 0 0 .232.079.621.093h.234c1.026-.036 2.813-.563 4.436-3.353z"/></svg>