<svg xmlns="http://www.w3.org/2000/svg" width="1000" height="1000" xml:space="preserve"><rect width="100%" height="100%" fill="rgba(255,255,255,0)"/><ellipse style="stroke:none;stroke-width:1;stroke-dasharray:none;stroke-linecap:butt;stroke-dashoffset:0;stroke-linejoin:miter;stroke-miterlimit:4;is-custom-font:none;font-file-url:none;fill:#fff;fill-rule:nonzero;opacity:1" rx="99" ry="75.228" transform="translate(496.838 497.207) scale(4.9479)"/><path style="stroke:none;stroke-width:1;stroke-dasharray:none;stroke-linecap:butt;stroke-dashoffset:0;stroke-linejoin:miter;stroke-miterlimit:4;is-custom-font:none;font-file-url:none;fill:#0066b1;fill-rule:evenodd;opacity:1" transform="matrix(7.1601 0 0 7.1705 -930.197 -932.908)" d="M162.99 211.63H237c-1.51 3.05-3.39 5.67-5.5 8.02h-63.06a25.2 25.2 0 0 1-5.45-8.02"/><path style="stroke:#0064ae;stroke-width:2.044;stroke-dasharray:none;stroke-linecap:butt;stroke-dashoffset:0;stroke-linejoin:miter;stroke-miterlimit:22.9256;is-custom-font:none;font-file-url:none;fill:none;fill-rule:nonzero;opacity:1" transform="matrix(7.1601 0 0 7.1705 -930.19 -932.9)" d="M199.79 148.15c37.77 0 68.4 23.16 68.4 51.73s-30.63 51.73-68.4 51.73-68.4-23.16-68.4-51.73 30.63-51.73 68.4-51.73z" stroke-linecap="round"/><path style="stroke:none;stroke-width:1;stroke-dasharray:none;stroke-linecap:butt;stroke-dashoffset:0;stroke-linejoin:miter;stroke-miterlimit:4;is-custom-font:none;font-file-url:none;fill:#0066b1;fill-rule:evenodd;opacity:1" transform="matrix(7.1601 0 0 7.1705 -930.2 -932.906)" d="m175.14 203.73 3.11-10.56h4.19l-1.81 6.5h1.4l1.93-6.5h4.22l-2.99 10.56h-4.29l.74-2.81h-1.42l-.75 2.81h-4.33m14.54-10.52-3.18 10.61h10.01l2.93-10.61h-4.11l-2.77 9.29h-1.45l2.66-9.29h-4.09"/><path style="stroke:none;stroke-width:1;stroke-dasharray:none;stroke-linecap:butt;stroke-dashoffset:0;stroke-linejoin:miter;stroke-miterlimit:4;is-custom-font:none;font-file-url:none;fill:#0066b1;fill-rule:evenodd;opacity:1" transform="matrix(7.1601 0 0 7.1705 -930.199 -932.904)" d="m170.07 207.08 34.67.08c2.37-1.67 4.79-5.27 4.16-7.79-.84-1.63-2.42-2.64-5.27-4.93l-3.12-3.18c-2.98-1.91-5.93-3.91-8.84-6.02-1.7-1.3-1.01-3.1 2.52-2.66 9.7.77 18.24 2.83 25.63 6.18 1.56.85 1.07 1.25-.2 1.4l-7.94-.07c-1.86.13-3.1 1.15-4.33 3.19h4.54l-4.06 13.89h5.11l4.02-13.8h2.98c1.76-1.6 3.42-3.51 5.03-5.57 1.29-2.21 1.2-4.73-1.2-6.03-5.36-2.51-11.32-3.03-15.76-3.21-7.29.2-12.8.76-15.54 2.34l-1.45 1.22c-4.53-.02-6.81 1.82-4.94 4.17 1.21 1.61 6.17 3.41 12.16 5.82 4.61 1.54 5.77 5.11 3.17 8.6-1.8 2.58-5.3 4.03-10.35 4.44-5.42.37-10.83.31-16.25-.28-1.91.71-3.62 1.41-4.74 2.21"/><path style="stroke:none;stroke-width:1;stroke-dasharray:none;stroke-linecap:butt;stroke-dashoffset:0;stroke-linejoin:miter;stroke-miterlimit:4;is-custom-font:none;font-file-url:none;fill:#fff;fill-rule:nonzero;opacity:1" transform="matrix(7.1601 0 0 7.1705 -930.2 -932.909)" d="M172.68 216.14s.02-.01.05-.02c.05.04.07.16.07.37 0 .07-.03.1-.09.11-.14 0-.3-.03-.47-.1 0 0-.01-.01-.02-.03 0 0 .03-.03.08-.07a2.76 2.76 0 0 1 .35-.24c.01.01.02 0 .03-.02m.12-.79c-.01.14-.09.25-.27.32-.02 0-.04.02-.06.04l-.23.14c-.08.03-.15.06-.2.1-.01-.03-.01-.05-.01-.06 0-.02 0-.04.01-.06l.03-.2c0-.08.07-.14.19-.17.18-.04.28-.07.31-.1.05-.01.08-.05.09-.1 0-.08-.02-.16-.05-.25a.702.702 0 0 0-.29-.24c-.11-.05-.14-.16-.1-.32.02-.08.04-.14.07-.16.06-.08.14-.12.24-.12.06 0 .12.02.16.07.06.05.09.14.09.28 0 .05.01.09.02.13-.01.04-.01.28 0 .7zm3.44-.54c0-.54.09-.94.27-1.18 0-.01 0-.02.01-.03 0-.03-.01-.06-.05-.08-.51-.1-.84-.14-.96-.12-.18.01-.38.05-.6.12l-.67.09c-.05 0-.09.01-.12.02-.08.03-.12.07-.12.13a5.32 5.32 0 0 1-.01 1.26l-.09.67c0 .04-.01.09-.02.14 0 .22-.09.48-.26.79-.06.04-.12.14-.16.31l-.05.01v-.02l-.01-.01s0-.01-.01-.03c-.08-.38-.08-.61-.02-.7l.04-.79.05-.89c0-.1.04-.22.13-.36.11-.18.15-.28.13-.31-.1-.09-.33-.14-.7-.14l-1.34.3c-.21.06-.31.12-.32.19 0 1 .04 1.68.13 2.06 0 .05-.11.16-.34.32a1.01 1.01 0 0 1-.23.12c-.18.06-.27.1-.27.15 0 .04.06.1.17.18.16.12.28.18.35.19l.4-.34c.01 0 .1-.07.26-.2l.25-.13c.03.01.09.07.16.16.41.27.7.43.88.48.08.03.13.05.13.08 0 .04-.14.17-.41.41-.07.04-.11.08-.13.1s-.03.04-.05.05l-.13.14c0 .03.03.05.1.05.16 0 .47-.11.93-.33.08-.04.12-.1.13-.16 0-.08.17-.41.52-.99a.69.69 0 0 1 .11-.17s.01-.01.02-.03c.08-.07.27-.19.58-.38 0 0 .01 0 .03-.01 0 0 .02-.01.05-.03.17-.04.27-.07.29-.09.04-.04.05-.14.04-.29-.02-.09-.03-.14-.05-.15-.02-.03-.04-.04-.09-.04l-.54.06c-.05 0-.07-.02-.08-.06 0-.16.07-.27.21-.35.28-.14.43-.26.46-.36 0-.03 0-.05.01-.07 0-.12-.07-.18-.21-.19-.11.01-.22.03-.34.05-.03 0-.05-.03-.05-.08l.01-.19c0-.13.07-.22.22-.28.11-.04.22-.06.34-.07.06 0 .12.02.16.05.06.04.11.22.14.54v.03l.05 2.13.02.8c0 .08-.02.14-.05.18-.06.04-.31.05-.74.01-.28-.03-.42-.03-.42.01 0 .01.02.05.05.11.08.09.39.23.92.43.16.03.4.1.72.21.11.04.2.06.27.06.08 0 .12-.03.12-.1 0-.02-.01-.04-.03-.06a1.43 1.43 0 0 1-.04-.26c-.08-.51-.12-1.23-.12-2.17 0-.12-.01-.27-.04-.46l.01-.49zm7.1 1.88a3.66 3.66 0 0 1-.32-.02c-.16 0-.24.03-.23.1 0 .04.22.19.67.47l.33.17.39.12c.05 0 .08-.04.11-.12.03-.16.01-.33-.08-.52-.02-.04-.05-.06-.11-.07-.08-.01-.16-.03-.25-.05l-.51-.08m-1.36-1.25c0-.01 0-.03.01-.05.01-.04.04-.1.06-.19.02-.08.09-.12.2-.13a.46.46 0 0 1 .1.01c.08.03.12.08.12.18-.03.27-.11.44-.25.51-.04 0-.07.01-.1.02-.02 0-.05.01-.09.02-.08 0-.12-.04-.12-.12 0-.03.02-.08.06-.15 0-.03.01-.07.01-.1zm-.79-.13c.06-.08.13-.11.21-.11s.14.01.17.03c0 .2-.03.34-.09.4s-.11.1-.15.1c-.09 0-.14-.06-.14-.17zm-.6.11c.08 0 .14.05.18.14l.08.2c0 .02-.02.04-.07.06-.03 0-.07.01-.11.01-.06 0-.12-.03-.17-.08a.306.306 0 0 1-.07-.2c0-.04.01-.07.03-.09.05-.02.09-.03.13-.04zm2.29-.95c.05 0 .08-.01.1-.03l-.01-.25a.69.69 0 0 0-.11-.17c-.09-.09-.16-.14-.21-.14a.74.74 0 0 0-.2.06c-.01 0-.03 0-.04.01l-.09.02c-.22.01-.39.03-.5.06-.02 0-.05.01-.1.02-.05 0-.07-.03-.08-.08l.09-.49.06-.22c0-.01-.02-.03-.06-.05a.676.676 0 0 0-.26-.07c-.04 0-.09.02-.16.06-.01.01-.04.08-.06.21-.01.1-.03.18-.05.24-.01.09-.01.14-.02.16l-.09.3c-.06.05-.19.09-.4.12-.08 0-.28.06-.61.19-.02 0-.02 0-.02.01l-.1-.1c-.08.06-.12.11-.12.13s.01.04.02.06c.03.06.06.1.09.15.01.04.03.07.04.08.03.05.07.08.11.08.38-.08.65-.11.8-.11.05 0 .07.02.08.06 0 .05-.02.1-.07.14-.16.08-.47.16-.91.25-.16.04-.24.09-.25.14 0 .13.14.37.42.71l.21.17c.12.08.19.12.23.13l.4-.12c.56-.2.92-.2 1.08-.01.16.13.32.14.48.04.01-.01.02-.03.04-.04l.26-.34c.05-.08.11-.16.18-.24.02-.1.11-.24.28-.41.04-.05.06-.09.06-.11 0-.04-.06-.09-.17-.15-.35-.15-.83-.21-1.46-.19a.61.61 0 0 0-.15.03c-.05 0-.08-.03-.09-.08 0-.06.04-.1.13-.11.05 0 .1-.02.15-.03.15-.04.25-.06.31-.06h.77zm-1.56 2.5c-.08-.08-.12-.13-.12-.14s.01-.02.03-.03l.51-.11c.08.06.16.13.24.21.02.03.04.04.04.06 0 .01-.01.02-.02.03l-.67.01c.01-.01 0-.02-.01-.03zm.38.51c.06-.01.16-.06.3-.15.11-.1.18-.16.21-.16.02 0 .05.03.09.09.11.17.17.31.17.43 0 .03-.02.07-.07.13-.06.05-.2.08-.41.08-.6 0-.96-.08-1.08-.24-.09-.1-.13-.33-.13-.67 0-.07.01-.12.03-.14s.05-.04.1-.04c.06 0 .11.05.14.15.03.14.1.28.21.41.07.1.13.15.19.16h.03c.06-.01.12-.03.22-.05zm1.17.94c.03 0 .1-.01.2-.01.14 0 .23-.02.26-.04.03-.01.05-.03.05-.06a.909.909 0 0 0-.25-.54.644.644 0 0 1-.12-.15.66.66 0 0 0-.24-.22c0-.04-.13-.18-.4-.43-.06-.05-.13-.1-.21-.15-.05-.03-.07-.05-.08-.07 0-.03.02-.04.06-.04.05 0 .09-.01.13-.02.06-.01.1-.04.1-.08-.08-.18-.24-.29-.48-.32a3.62 3.62 0 0 0-.86.11c.01 0-.01 0-.06.01a2.51 2.51 0 0 0-.56.11 1.47 1.47 0 0 1-.32.04c-.08 0-.12.02-.13.06l.19.31c0 .03-.06.08-.19.15-.05.01-.11.05-.18.11-.16.12-.29.22-.37.32l-.15.18c-.02.01-.02.03-.02.05 0 .04.07.08.21.14l.39.11c.08 0 .12-.03.12-.08a.42.42 0 0 1 .06-.21 1.25 1.25 0 0 1 .15-.31c.02-.01.02-.03.02-.04.08-.14.13-.21.16-.22.05 0 .09.08.12.22l.03.26c.1.34.23.56.38.66a1.64 1.64 0 0 0 .11.03c.24.04.45.06.65.06.08 0 .39.02.93.06-.05 0-.09-.01-.14-.01.14-.01.29-.01.44.01zm-3.28-4.53c-.13-.12-.22-.18-.29-.18s-.14.04-.21.13l-.12.16c-.09.08-.18.2-.26.35-.11.13-.18.23-.21.31a2.03 2.03 0 0 1-.13.26c-.01.03-.01.04-.02.05 0 .04.02.07.07.07.12 0 .31-.1.57-.31.12-.1.26-.2.44-.31-.03.02-.06.04-.08.06.26-.22.39-.35.4-.4.01-.04-.05-.11-.16-.19zm-.54 3.42c.01-.3.06-.49.13-.57.08-.23.12-.37.12-.42-.01-.03-.07-.06-.17-.09-.25-.06-.35-.17-.3-.31 0-.01 0-.02.01-.03 0-.01.12-.12.35-.33l.03-.03c.06-.06.11-.09.13-.11.22-.13.34-.26.35-.38 0-.04-.07-.11-.21-.22-.08-.05-.14-.08-.18-.08-.02 0-.15.13-.4.38l-.36.5c-.05.04-.1.1-.16.19l-.23.23c-.01.02-.05.05-.1.1-.51.43-.76.73-.77.89 0 .04.04.06.13.06.02 0 .05-.01.1-.02.4-.13.66-.25.81-.34l.1-.07c.01 0 .04 0 .06-.01.03 0 .06.02.08.05.05.19.06.31.03.34-.05.08-.07.42-.07 1.03 0 .08.01.13.03.15.05.04.14.06.27.06.12 0 .18-.06.18-.19 0-.39 0-.65.04-.78zm10.31-.87c-.01 0-.01 0-.02.01l-1.16.3-.74.17-.22.03c-.12 0-.18.02-.19.06 0 .11.04.2.13.27.03.03.07.04.12.04.52-.15 1.26-.29 2.22-.4.01 0 .01-.01.02-.01.05.03.07.12.08.29 0 .28-.03.48-.08.59-.02.04-.1.08-.22.1-.03 0-.08.01-.15.02-.04 0-.12-.01-.24-.01l-.52-.08c-.23-.04-.4-.06-.53-.06 0 .03.04.08.13.16.11.12.56.28 1.33.49.02 0 .04 0 .07.01l.39.04c.02 0 .03.01.05.01.07 0 .11-.02.15-.06 0-.01.05-.19.14-.52 0-.02.02-.12.05-.3-.01-.43 0-.66.02-.69.05-.04.35-.07.89-.07.07 0 .28.04.63.12.23.06.37.09.42.07.05-.04.06-.11.05-.19-.1-.09-.21-.21-.33-.36-.03-.02-.06-.03-.08-.05l-1.52-.01c-.02 0-.06 0-.12.01-.01-.01-.01-.02-.02-.03 0-.03-.01-.05-.02-.08 0-.04.03-.08.08-.1l.58-.26c.06-.04.1-.08.1-.12s-.04-.08-.13-.12l-.15-.06c-.15-.08-.42-.11-.8-.11-.03 0-.22.05-.58.14l-.42.09-.49.11-.6.09a.2.2 0 0 0-.09.02c-.02 0-.03.02-.03.05 0 .01.11.12.33.32a.19.19 0 0 0 .13.05c.04 0 .1-.03.19-.08.36-.19.74-.34 1.16-.44.02 0 .11-.03.28-.1a1.35 1.35 0 0 1 .24-.04c.01 0 .02.01.03.02 0 .07-.04.14-.12.23-.07.06-.17.09-.33.1-.23 0-.35.03-.38.08 0 .03.07.1.21.22l.06.04m.01-2.09c.1-.05.3-.08.6-.08.1 0 .18.02.24.06.05.03.08.11.09.24 0 .27-.06.45-.16.54h-.05c-.05-.05-.11-.09-.15-.12l-1.21.16-.04-.03s-.01-.02-.02-.03c-.04-.28-.04-.44-.02-.46.01-.01.05-.03.14-.06.02 0 .12-.04.31-.12zm-4.22 3.38c.05.03.12.03.21.01.03 0 .14-.04.31-.11l.65-.37c0-.01.03-.03.06-.05.07-.04.14-.1.22-.17.04-.04.06-.12.06-.24 0-.1.12-.3.35-.6 0-.01.09-.13.28-.35l.15-.2.21-.41c.02-.02.03-.04.06-.06.02-.03.03-.05.05-.06a.49.49 0 0 1 .11-.2s.01-.01.02-.01c0 0 .01 0 .02.01.26.41.46.65.59.7a9.42 9.42 0 0 0 .79-.19c.43-.08.74-.09.94-.03l.25.07c.08 0 .14-.01.18-.04.01-.03.04-.09.11-.18 0 0 0-.01.02-.01.16-.44.34-.76.54-.94-.01-.04-.09-.1-.24-.18-.34-.15-.77-.19-1.29-.1-.24 0-.77.1-1.58.3-.02 0-.04-.01-.06-.01 0-.06.01-.14.04-.24.02-.01.04-.03.06-.04.01 0 .11-.03.33-.08.11-.05.38-.08.79-.08.47-.13.9-.2 1.28-.2.04 0 .06-.02.07-.07 0-.04-.04-.11-.13-.21-.02-.02-.03-.04-.05-.07a.4.4 0 0 0-.11-.12.24.24 0 0 0-.15-.06c-.05 0-.2.03-.47.1-.31.04-.6.09-.89.17l-.81.09a1.36 1.36 0 0 1-.2-.06c-.04 0-.08-.01-.11-.01-.08 0-.13.02-.15.05-.08.21-.12.45-.13.72-.01.04-.01.08-.02.14-.01.04-.02.09-.05.17l-.05.19c-.04.07-.06.12-.07.17l-.26.56c-.01 0-.01 0-.02.01a1.87 1.87 0 0 1-.12.25c-.01.01-.02.03-.03.06a4.37 4.37 0 0 0-.3.5c-.3.39-.52.65-.68.78 0 .01 0 .02-.01.03a.27.27 0 0 0-.08.07c-.46.31-.68.52-.69.6zm3.98-2.76c.28 0 .5-.05.67-.16.04-.04.06-.1.07-.17 0-.1-.05-.16-.15-.16-.11 0-.33.05-.66.16-.08.01-.11.02-.1.02l-.15.04c-.02.01-.03.04-.04.07.02.04.05.08.09.14l.02.04c.02 0 .1.01.25.02zm6.31-1.67-.38.12c-.06.02-.09.04-.09.08 0 .11.09.22.25.32.13.1.26.15.38.15.04 0 .07-.02.1-.05.05-.14.15-.32.31-.55.02-.05.03-.11.05-.17 0-.02-.02-.04-.05-.04-.04 0-.23.04-.54.12 0 0-.02.01-.03.02m-.85.51c-.17-.13-.28-.19-.32-.19a.35.35 0 0 0-.23.07c-.09.09-.1.28-.03.57 0 .06.1.1.3.12.21 0 .35.01.42.03.19 0 .29-.05.29-.16 0-.08-.14-.23-.43-.44zm-.02 2.71-1.08.3c-.03.05.03.17.17.36.28-.12.95-.26 2.01-.41h.02c.04 0 .07.03.07.1v.56c-.05.11-.09.22-.12.34a.51.51 0 0 0-.13.09l-.43.05c-.01 0-.03-.01-.04-.01l-.66-.13c-.02.01-.03.03-.03.05 0 .09.11.19.34.29a5.43 5.43 0 0 0 1.27.4h.01c.04 0 .08-.02.12-.06.12-.15.21-.48.28-1 .04-.51.09-.78.13-.79.03-.03.18-.04.44-.04.03-.03.26-.01.69.03l.45.11c.08 0 .12-.05.13-.14 0-.03-.02-.08-.05-.17l-.04-.17c-.02-.11-.08-.19-.17-.22-.3-.05-.8-.03-1.5.06-.05 0-.09-.03-.1-.09-.01-.05-.01-.11-.01-.16.07-.03.16-.06.27-.09a.72.72 0 0 0 .24-.09l.35-.21c.41 0 .81-.03 1.19-.07l.15-.02c.06 0 .09-.04.1-.09 0-.19-.39-.48-1.17-.89-.01-.01-.02-.02-.03-.02-.07-.02-.33-.05-.8-.11-.03 0-.05-.02-.05-.04l.38-.37a2.87 2.87 0 0 1 .29-.26c.18-.09.27-.15.27-.17-.21-.25-.4-.38-.57-.41h-.01c-.06 0-.15.07-.26.22-.39.55-.66.9-.83 1.03-.11.07-.34.16-.68.27l-1.11.41c-.16.01-.25.05-.25.11v.03c0 .05.02.09.06.14.03.03.07.05.1.05.27-.1.52-.15.75-.15l1.1-.27c.22-.09.65-.18 1.28-.27.01 0 .02-.01.03-.01.05 0 .15.02.31.09.1.05.16.11.16.19 0 .1-.05.2-.16.29-.16.09-.27.14-.31.14l-.88-.25c-.19 0-.8.16-1.81.47-.02 0-.04 0-.05.01-.04.01-.07.04-.07.08 0 .13.09.25.26.37a.22.22 0 0 0 .13.04c.04 0 .18-.07.4-.22l.53-.15c.04-.03.11-.08.19-.16.09-.11.21-.17.34-.17.06 0 .09.03.09.09 0 .04-.05.11-.16.23-.12.1-.26.15-.43.15-.06.03-.1.06-.1.1l.15.29c0 .04-.04.07-.13.09-.28.04-.63.13-1.03.25zm-1.83-.74c0 .07.14.15.42.21.16.04.26.06.31.06.12 0 .19-.04.19-.12 0 0 0-.01-.01-.03-.06-.17-.06-.39-.01-.64.01-.04-.03-.06-.11-.06-.14 0-.32.07-.53.22-.15.12-.24.24-.27.36zm13.7-1.32c.12.01.23.01.33 0 0-.01.02-.02.04-.02 0-.11-.03-.19-.1-.25-.05-.07-.23-.16-.53-.28l-.2-.12s-.01-.01-.03-.02c-.06.02-.1.05-.11.07s-.01.18-.01.48c.03.07.11.1.23.1.02 0 .04 0 .06-.01 0 0 .01 0 .03.01.01.01.03.02.05.02a1.1 1.1 0 0 1 .24.02m-2.8 1.67-.14-.12c-.04-.03-.23-.12-.57-.25a.304.304 0 0 1-.08-.08l-.02-.02c-.01 0-.04-.01-.07-.02-.03 0-.06.02-.08.05-.05.07-.07.18-.08.33 0 .09.04.17.11.22.13.07.4.07.8.02.04 0 .08-.01.1-.03s.03-.05.04-.1zm-1.24-1.03c0 .13.07.27.22.4l.02.02c.03.02.05.03.07.03.03 0 .1-.02.21-.07.08-.05.36-.1.83-.14l.3-.01.04.03c0 .36.01.57.04.62a4.43 4.43 0 0 0 .05.47c.03.65.03 1-.01 1.05-.01.01-.03.02-.04.04-.09.05-.23.06-.42.04h-.01c-.12 0-.3-.04-.54-.1-.03 0-.08-.01-.15-.01v.04c.09.08.17.13.23.16l.09.06c.1.08.42.2.95.36.06.02.13.05.2.08.18.07.3.1.37.1.01 0 .04-.01.06-.02.01-.01.02-.05.03-.13l-.06-.28c-.03-.18-.05-.36-.06-.56l-.01-.79c.01-.02.04-.03.07-.03.07 0 .3.1.67.3.01.01.04.02.07.04l.26.17c.08.04.16.15.25.33 0 .1.14.15.41.16.15.02.51.02 1.1 0 .2-.01.36-.05.48-.11 0-.02 0-.04.01-.06-.07-.09-.3-.18-.68-.25h-.01c-.01 0-.03-.01-.04-.01l-.78-.17c-.03 0-.05 0-.07.01a5.59 5.59 0 0 1-1.31-.82c0-.03.23-.17.69-.4.1-.07.17-.1.21-.11.04-.02.15-.06.31-.11 0-.07-.03-.13-.08-.19-.08-.08-.15-.12-.23-.13-.03 0-.08.03-.15.08-.02 0-.02.01-.03.02-.04.01-.27.16-.69.43l-.1.06-.24.11a.15.15 0 0 1-.15-.1c-.03-.03-.04-.16-.04-.37 0-.09.03-.14.09-.17l.07-.02c.06-.01.27-.06.62-.16 0 0 .02-.01.04-.01.09 0 .16-.01.2-.02s.07-.04.07-.07c0-.04-.1-.17-.3-.4-.02-.02-.04-.04-.07-.04l-.61.12c-.05 0-.08-.02-.08-.07 0-.6.03-.93.09-.97 0 0 0-.01.01-.03.03-.02.06-.05.11-.09v-.03c-.06-.04-.18-.09-.36-.13l-.04-.03h-.03s-.01.01-.01.02c-.06-.01-.11-.02-.17-.02-.04.02-.07.17-.09.43 0 .11-.01.22-.02.34 0 .02-.04.27-.11.73a1.03 1.03 0 0 1-.29.1 1.55 1.55 0 0 0-.34.08 8.99 8.99 0 0 0-.59.07l-.47.06-.04.04v.03zm1.02 1.4c-.04.01-.24.11-.6.3-.01 0-.02.01-.02.02l-.69.31c-.22.08-.34.15-.34.2 0 .03.11.13.32.32a.46.46 0 0 0 .17.09c.04 0 .12-.07.24-.2l.59-.42.82-.69c.06-.04.09-.07.09-.11 0-.03-.02-.05-.06-.05-.09-.01-.26.07-.52.23zm7.56-1.74h-.04c-.06 0-.09-.02-.1-.05 0-.05.04-.1.13-.14l.47-.21c.05-.07.05-.18.03-.33-.02-.02-.04-.04-.09-.04-.01 0-.03 0-.06.01l-.31.06c-.02-.02-.03-.03-.03-.05-.01-.02.03-.07.12-.15.11-.1.24-.14.38-.15.07 0 .14.04.21.11.03.05.05.42.06 1.11a.09.09 0 0 1-.08.1c-.02 0-.04-.01-.07-.02s-.06-.09-.09-.23c-.02-.06-.19-.06-.53-.02m.15 1.84c0 .04-.01.05-.04.06-.09 0-.21-.06-.37-.19a.248.248 0 0 1-.07-.18c0-.1.03-.17.1-.23.03-.05.09-.07.17-.07.12 0 .18.08.19.24zm-1.9.61-.63.23c-.18.06-.27.11-.27.16 0 .06.1.09.31.09.3 0 .6-.06.9-.17.04-.02.07-.03.11-.04.09-.04.15-.09.18-.16 0-.11.06-.21.18-.31.06-.07.42-.03 1.07.13a2.87 2.87 0 0 0 .77.25c.28.04.49.13.63.26.01 0 .08.08.1.12.06.08.06.19.1.29.02.05.1.08.26.09.26 0 .42.01.48.03.09 0 .29.01.61.04l.6-.02.43-.12c.06-.02.09-.04.09-.08s-.06-.07-.18-.11c-.36-.11-1.07-.27-2.13-.48l-1.04-.38c-.07-.02-.1-.07-.1-.13 0-.01.01-.04.01-.08.05-.12.1-.19.16-.22.2-.1.44-.15.74-.15.03-.01.05-.04.05-.08 0-.01-.01-.05-.04-.11 0 .01 0 0-.01-.04 0-.04-.01-.07-.02-.1-.02-.02-.2-.04-.55-.04-.01 0-.06 0-.16.01-.06 0-.09-.02-.09-.08 0-.02.01-.04.02-.07.02-.05.07-.08.14-.08.02 0 .05 0 .09-.01.72-.05 1.17-.05 1.35-.01.08 0 .11-.03.12-.09 0-.02 0-.03-.01-.05 0-.1-.04-.21-.13-.36a.248.248 0 0 0-.21-.11l-.61.08c-.07 0-.1-.04-.1-.12 0-.1.05-.55.16-1.35a2.19 2.19 0 0 1 .12-.33c-.04-.07-.21-.12-.5-.14-.42-.01-1.02.07-1.82.23-.05 0-.1.01-.16.03-.07 0-.11.04-.14.11-.06.17 0 .6.17 1.31l.03.17c.03.11.1.16.22.16l.75-.25c.09.02.18.06.27.11l.17.12c-.02.01-.17.05-.46.1-.67.07-1.6.27-2.8.59-.06 0-.05.08.02.23-.01 0 .01.01.03.04.08.07.15.12.2.12.18-.12.59-.22 1.24-.3.01 0 .02-.01.04-.01.06 0 .09.03.09.1 0 .11-.1.28-.3.52-.06.05-.19.17-.4.37l-.15.09zm10.49-1.43c.01.17.06.3.12.39.04.05.08.08.14.09.06 0 .12-.02.18-.06.09-.06.14-.2.15-.42 0-.12.05-.33.15-.65 0-.02-.01-.03-.03-.04-.06-.05-.26-.1-.59-.14-.02 0-.02-.01-.02-.01-.1 0-.15.04-.15.13 0 .02.01.05.02.07l.03.64m-.17 1.67c0 .12.21.28.62.5.11.06.26.12.44.17.04.01.07.03.11.04.48.17.8.26.97.27.12 0 .19-.06.19-.17-.18-1.3-.24-2.12-.17-2.46-.08-1.32-.05-2.06.1-2.21 0 0 .01-.01.02-.01 0-.01 0-.03.01-.04 0-.06-.09-.13-.27-.19l-.41-.12c-.03 0-.07.01-.11.04-.05.02-.07.08-.07.16l.01 1.9a.57.57 0 0 0 .01.13c.01.13.01.37.02.74l.05 1.51c-.04.04-.16.06-.38.06-.51-.05-.81-.12-.91-.21-.1-.08-.18-.11-.23-.11zm-1.16-1.63c-.01.05-.01.11-.01.18-.01.14-.05.25-.12.34-.04.04-.1.06-.19.06s-.14-.02-.15-.07c-.01-.07-.01-.11-.02-.12-.06-.06-.16-.09-.31-.09-.02 0-.04 0-.08.01-.02 0-.03-.01-.04-.02 0-.03.19-.14.58-.34.11-.04.21-.05.3-.02.02-.01.03.02.04.07zm-1.09-.88a11.68 11.68 0 0 1-1.44 1.38c-.01.01-.02.02-.04.03-.06.06-.1.11-.11.13a.64.64 0 0 1-.14.15c-.02.01-.03.03-.03.05 0 .03.02.04.05.04.02 0 .05-.01.08-.02.01 0 .01-.01.02-.01.02 0 .03-.01.05-.01l.35-.08c.03 0 .16-.05.39-.15.03-.02.07-.03.11-.04s.08-.04.13-.08c.05-.05.14-.11.28-.19l.14-.09c.01 0 .01 0 .02-.01l.22.04c.02 0 .03.04.04.11l-.15 1.26c.03.23.18.41.45.54.1.08.46.06 1.09-.04.02 0 .03 0 .05-.01.09-.01.16-.04.22-.07.03-.02.05-.07.05-.15-.02-.16-.05-.3-.1-.42l-.16-.39c-.02-.02-.04-.03-.06-.03-.09 0-.15.07-.16.22a.89.89 0 0 1-.08.31.26.26 0 0 1-.18.14c-.16.04-.28.06-.37.06a.39.39 0 0 1-.23-.07c-.09-.07-.11-.22-.05-.44.04-.19.08-.3.14-.34.02-.03.19-.02.5.01.15 0 .3-.1.43-.31.01-.02.02-.04.03-.05l.12-.24c.02-.03.04-.11.09-.23.02-.06.02-.11.03-.13 0-.03.01-.06.02-.09.06-.05.09-.12.09-.21 0-.03-.04-.06-.11-.1-.28-.14-.61-.14-1.01 0l-.33.12-.35.15c-.04 0-.06-.02-.06-.06 0-.06.11-.23.33-.49.06-.09.14-.17.22-.23l.22-.2a.37.37 0 0 1 .19-.07c.11 0 .23.05.37.16.13.1.25.15.36.13.12-.02.21-.05.25-.07.17-.09.26-.16.26-.22 0-.1-.13-.17-.39-.21-.22-.02-.33-.03-.35-.05-.1-.02-.15-.05-.15-.11l.33-.38a.48.48 0 0 0-.1-.15c-.02-.01-.03-.03-.05-.06-.07-.09-.12-.13-.17-.13-.07 0-.24.15-.52.45-.02.03-.04.05-.06.08z"/><path style="stroke:none;stroke-width:1;stroke-dasharray:none;stroke-linecap:butt;stroke-dashoffset:0;stroke-linejoin:miter;stroke-miterlimit:4;is-custom-font:none;font-file-url:none;fill:#fff;fill-rule:nonzero;opacity:1" transform="matrix(7.1601 0 0 7.1705 -930.21 -932.908)" d="M225.28 217.42c.36 0 .64-.12.86-.35.16-.23.22-.41.17-.54 0-.32.17-.54.5-.68.07-.03.14-.05.22-.05.03 0 .05.01.07.03.05.04.1.5.15 1.4.01.05.01.25.02.6 0 .5.04.77.13.83.04.01.09.02.15.02.21 0 .31-.05.32-.16-.02-.25-.02-.62-.02-1.1l.01-1.01c-.01-.09.01-.27.08-.54.02-.08.05-.13.11-.17.03-.04.28-.04.75-.01h.02c.05 0 .1.01.16.02.1 0 .15-.04.15-.11 0-.04-.03-.11-.08-.2-.1-.16-.16-.26-.2-.29-.08-.08-.14-.12-.18-.12-.07 0-.17.01-.3.02-.19.02-.73.14-1.63.37h-.08c-.05-.11.02-.26.19-.44.08-.12.3-.19.68-.22.04 0 .13-.04.29-.11.25-.08.38-.13.41-.18.01-.03.01-.07.02-.11 0-.06-.03-.13-.1-.21a.28.28 0 0 0-.2-.08c-.17 0-.54.1-1.12.28-.37.07-.56.13-.59.17-.01.01-.02.31-.03.9l-.05.35-.07.32-.19.51a.3.3 0 0 0-.04.08l-.24.35-.31.38v.05m-.26-4.61c-.08 0-.15.03-.22.1-.16.13-.23.3-.23.52 0 .06.04.12.12.2.14.13.3.19.49.19.05 0 .12-.02.23-.06.07-.24-.02-.51-.26-.82l-.09-.11zm-1.16 4.35.04-.26c.01-.03.01-.06.02-.08 0-.14.01-.22.04-.25.02-.02.06-.04.13-.05.08 0 .13-.01.15-.02l.2-.03c.06.09.08.31.06.66 0 .05-.02.09-.05.11-.04.04-.11.06-.23.06-.11 0-.19-.02-.25-.04-.04-.01-.07-.04-.1-.08v-.02zm.23-1.09-.52.18c-.05 0-.32.07-.83.2-.1.02-.15.04-.17.07-.02.05-.01.1.03.16.03.05.09.1.19.15l.07-.02c.07-.04.3-.11.71-.2l.02.02c-.02.01-.02.03-.03.04-.04.02-.07.05-.1.09 0 0-.02.01-.05.05a.9.9 0 0 1-.09.1c-.29.3-.44.49-.44.54 0 .04.04.08.11.13l.37.13a.22.22 0 0 0 .18-.08c.08-.21.24-.23.47-.04l.04.03c.01 0 .02.01.05.02.34.14.56.21.65.21a.22.22 0 0 0 .18-.08c.05-.13.05-.35 0-.68 0 .01 0 .03.01.04-.02-.13-.02-.2-.01-.21l.51-.02c.07-.06.1-.11.1-.15 0-.09-.1-.17-.29-.25a1.34 1.34 0 0 1-.25-.11v-.04c0-.04.04-.07.12-.09l.4-.06a.69.69 0 0 1 .08-.03c.19-.04.28-.09.29-.14 0-.08-.04-.15-.12-.23-.07-.05-.12-.08-.17-.08-.06 0-.21.03-.43.1a.104.104 0 0 1-.07-.1c0-.02.01-.05.02-.08a3.18 3.18 0 0 1 .36-.15c.19-.08.28-.16.29-.26a.21.21 0 0 0-.05-.13.4.4 0 0 0-.2-.04c-.03 0-.06-.01-.09-.02 0-.01 0-.02-.01-.04 0-.05.07-.11.2-.17.23-.12.25-.23.05-.33-.06-.02-.12-.05-.18-.08-.02 0-.03-.01-.05-.02-.01 0-.01-.02-.02-.04.04-.03.09-.05.16-.06.19-.06.29-.16.29-.31l-.02-.01v-.01c-.21-.09-.57-.06-1.09.08l-1.37.32c0 .08.05.18.15.32.1-.02.2-.05.32-.09a.46.46 0 0 1 .23-.01 4.51 4.51 0 0 0-.22.44c-.02.02-.03.06-.04.11 0 .09.04.14.12.14.02 0 .03 0 .04-.01a.31.31 0 0 0 .08-.02c.11-.03.25-.16.42-.39.11-.15.23-.23.36-.23.05 0 .07.03.07.09 0 .1-.09.23-.27.4-.06.06-.4.18-1.02.37-.05.01-.1.03-.15.05-.02 0-.04 0-.07.01-.04 0-.08.03-.12.08.05.15.11.25.18.3a1.04 1.04 0 0 0 .12.03c.21-.1.45-.15.74-.15.03 0 .05.01.07.03s.02.04.03.08c0 .01-.01.03-.03.06z"/><path style="stroke:none;stroke-width:1;stroke-dasharray:none;stroke-linecap:butt;stroke-dashoffset:0;stroke-linejoin:miter;stroke-miterlimit:4;is-custom-font:none;font-file-url:none;fill:#0066b1;fill-rule:nonzero;opacity:1" transform="matrix(7.1601 0 0 7.1705 -930.203 -932.91)" d="M199.5 221.5v3.04h-.65l-.38-1.38v1.38h-.62v-3.04h.62l.41 1.37v-1.37h.62m-2.71 1.96-.11-1.27-.14 1.27zm.39-1.96.42 3.04h-.76l-.04-.55h-.27l-.04.55h-.77l.38-3.04zm-1.7 0v3.04h-.74v-1.28h-.22v1.28h-.74v-3.04h.74v1.09h.22v-1.09zm-2.12 0v2.03l-.02.48a.78.78 0 0 1-.12.29c-.07.1-.16.17-.27.22s-.25.08-.4.08c-.17 0-.32-.03-.45-.09a.69.69 0 0 1-.29-.23c-.06-.1-.1-.2-.11-.3a8.42 8.42 0 0 1-.02-.68v-1.8h.74v2.28a1.07 1.07 0 0 0 .02.25c.01.04.04.06.08.06.05 0 .08-.02.09-.06s.02-.14.02-.29v-2.24zm-1.95 0-.33 3.04h-.92l-.22-1.59-.21 1.59h-.92l-.33-3.04h.72l.08 1.06.08 1.02.2-2.08h.77l.08 1 .08 1.15.2-2.16h.72zm18.82 1.96-.11-1.27-.14 1.27h.25m.4-1.96.43 3.04h-.77l-.04-.55h-.27l-.04.55h-.78l.38-3.04zm-1.73 0v3.04h-.66l-.39-1.38v1.38h-.63v-3.04h.63l.42 1.37v-1.37zm-2.11 0v3.04h-.75v-3.04zm-1.18 0v3.04h-.75v-1.28h-.22v1.28h-.75v-3.04h.75v1.09h.22v-1.09zm-2.13 1.33h-.75v-.53c0-.15-.01-.25-.02-.29-.02-.04-.05-.06-.11-.06s-.1.02-.12.07-.03.15-.03.3v1.41c0 .15.01.24.03.29s.05.07.11.07.09-.02.11-.07c.02-.04.03-.15.03-.32v-.38h.75v.12c0 .31-.02.54-.06.67s-.14.25-.28.35-.32.15-.53.15c-.22 0-.4-.04-.54-.13a.572.572 0 0 1-.28-.35c-.05-.15-.07-.37-.07-.67v-.89l.02-.49a.68.68 0 0 1 .13-.32c.07-.1.17-.18.29-.24.13-.06.27-.09.43-.09.22 0 .4.05.55.14.14.09.24.2.28.34.05.13.07.34.07.63v.29z"/><ellipse style="stroke:#0066b1;stroke-width:1.107;stroke-dasharray:none;stroke-linecap:butt;stroke-dashoffset:0;stroke-linejoin:miter;stroke-miterlimit:4;is-custom-font:none;font-file-url:none;fill:none;fill-rule:nonzero;opacity:1" rx="48.83" ry="32.13" transform="matrix(7.1601 0 0 7.1705 501.326 500.694)"/><ellipse style="stroke:#0066b1;stroke-width:1.112;stroke-dasharray:none;stroke-linecap:butt;stroke-dashoffset:0;stroke-linejoin:miter;stroke-miterlimit:4;is-custom-font:none;font-file-url:none;fill:none;fill-rule:nonzero;opacity:1" rx="39.91" ry="31.69" transform="matrix(7.1601 0 0 7.1705 501.395 501.411)"/><path style="stroke:#0066b1;stroke-width:1.108;stroke-dasharray:none;stroke-linecap:butt;stroke-dashoffset:0;stroke-linejoin:miter;stroke-miterlimit:22.9256;is-custom-font:none;font-file-url:none;fill:none;fill-rule:nonzero;opacity:1" transform="matrix(7.1601 0 0 7.1705 -930.2 -932.904)" d="M172.98 173.1h53.73" stroke-linecap="round"/><path style="stroke:#0066b1;stroke-width:1.111;stroke-dasharray:none;stroke-linecap:butt;stroke-dashoffset:0;stroke-linejoin:miter;stroke-miterlimit:22.9256;is-custom-font:none;font-file-url:none;fill:none;fill-rule:nonzero;opacity:1" transform="matrix(7.1601 0 0 7.1705 -930.2 -932.91)" d="M173.52 226.99h52.93" stroke-linecap="round"/><path style="stroke:none;stroke-width:1;stroke-dasharray:none;stroke-linecap:butt;stroke-dashoffset:0;stroke-linejoin:miter;stroke-miterlimit:4;is-custom-font:none;font-file-url:none;fill:#63615f;fill-rule:evenodd;opacity:1" transform="matrix(7.1601 0 0 7.1705 -930.192 -932.904)" d="m154.22 233.18-.19.24-1.81-1.38.19-.24.12.09c.1.08.22.09.35.05.09-.03.21-.1.35-.23.1-.09.32-.35.67-.8l4.53-5.79.63-.87c.07-.13.11-.25.12-.38a.33.33 0 0 0-.13-.3l-.12-.09.19-.24 1.81 1.38-.19.24-.12-.09c-.1-.08-.22-.09-.35-.05-.09.03-.21.1-.35.23-.1.09-.32.36-.67.8l-4.53 5.79-.63.87c-.07.13-.11.26-.12.38-.01.13.03.23.13.3l.12.09m11.2-5.58-.19.28c-.18-.03-.43.09-.76.35-.25.2-.74.73-1.53 1.55l-5.65 5.85-.09-.06 3.27-7.89.84-1.94c.06-.21.03-.38-.08-.52l.19-.28 1.8 1.2-.19.28-.06-.04c-.16-.11-.31-.13-.44-.06-.09.05-.19.14-.29.29-.06.09-.12.2-.19.34-.07.13-.24.5-.51 1.09l-2.6 5.64 3.77-4.05.9-1 .35-.46c.1-.15.18-.29.22-.43.05-.14.06-.25.05-.35a.493.493 0 0 0-.23-.34l.19-.28 1.23.83m2.03 1.56-2.26 3.67.08.04c.22.13.8.75 1.35.26.34-.31.19-.25.65-.86l.29.08-2.03 3.39-.3-.12c.33-.49.29-.34.43-.73.13-.39.16-.48.13-.66-.03-.17-.76-.6-.94-.71l-1.6 2.66-.55.97c-.05.13-.08.24-.07.34 0 .1.06.19.17.25l.23.13c.36.21.77.17 1.23-.11s.59-.29 1.19-1.08l.28.29-1.75 2.16-3.33-1.95.15-.26.13.07c.11.07.23.07.36.01.09-.04.19-.13.31-.27.09-.1.27-.38.56-.86l3.73-6.22.46-.8c.08-.17.12-.32.12-.44.01-.17-.05-.29-.18-.37l-.13-.07.16-.26 3.22 1.88-1.16 2.31-.31-.15c.35-.72.26-.67.33-1.03.08-.36.07-.66-.03-.9-.05-.15-.23-.3-.52-.47l-.4-.19m3.69 1.94-2.25 4.28.16.07c.26.11.49.14.69.08.2-.07.42-.24.66-.53s.5-.69.77-1.2c.39-.75.61-1.32.66-1.74s-.08-.69-.38-.82l-.31-.14m-2.52 4.79-1.44 2.74-.49 1.01c-.05.15-.06.28-.04.39s.12.2.3.28l-.14.27-1.98-.86.14-.27c.18.08.32.09.43.03s.21-.14.31-.27c.1-.12.28-.45.56-.98l3.34-6.34.49-1.01c.05-.15.06-.28.04-.39s-.12-.2-.3-.28l.14-.27 1.8.78c.47.2.77.44.9.69.13.26.15.64.05 1.14-.09.5-.3 1.04-.61 1.63-.38.72-.8 1.27-1.25 1.65-.29.24-.59.38-.9.43l-.81 3.71-.16.91c0 .18.05.3.14.36l-.14.27-1.22-.53 1.1-5zm7.94-3.43-1.21 3.46-.13-.04c.25-.88.35-1.63.3-2.23s-.22-.95-.5-1.03c-.22-.07-.44.02-.67.26s-.41.54-.54.9c-.08.23-.13.44-.15.63-.03.26-.01.53.04.8.04.2.16.57.37 1.11.29.75.43 1.42.42 2.01-.01.58-.15 1.21-.39 1.9-.31.86-.72 1.57-1.23 2.1s-.98.74-1.42.6a.804.804 0 0 1-.35-.22c-.1-.11-.21-.28-.32-.52-.07-.13-.13-.21-.2-.23-.06-.02-.13.01-.23.1-.1.08-.21.22-.32.42l-.12-.04 1.41-3.91.12.04c-.3 1.13-.42 2.02-.36 2.68s.24 1.04.55 1.14c.24.07.49-.02.74-.29s.46-.61.6-1.02a2.74 2.74 0 0 0 .17-.74c.03-.24.02-.49-.01-.73-.04-.24-.14-.57-.3-.99-.23-.59-.37-1.07-.43-1.45s-.06-.79-.01-1.21a5.83 5.83 0 0 1 .34-1.37c.3-.82.68-1.49 1.14-1.99s.89-.69 1.27-.57c.14.04.26.12.37.25.08.09.16.24.24.45.09.21.16.32.21.34.06.02.11-.01.18-.08.06-.07.16-.26.3-.56l.12.03m7.09 2.16-.86 2.83-.12-.03c.13-.67.19-1.16.2-1.46 0-.31-.04-.56-.14-.77-.05-.12-.18-.2-.39-.25l-.33-.08-2.45 8.05-.27 1.01a.84.84 0 0 0 .04.39c.04.12.13.2.25.23l.15.04-.09.28-2.3-.59.09-.28.15.04c.13.03.25 0 .36-.08.08-.06.16-.17.25-.34.06-.11.17-.43.33-.96l2.45-8.05-.32-.08c-.3-.08-.56.01-.78.28-.31.37-.61.93-.9 1.69l-.12-.03.86-2.83 3.94.99m5.22.97-.05.3a.6.6 0 0 0-.41.26c-.15.21-.44.79-.86 1.75l-1.69 3.78-.46 2.62-.15 1.05a.82.82 0 0 0 .09.38c.06.12.15.18.27.2l.26.04-.05.29-2.61-.38.05-.29.24.04c.14.02.26-.02.35-.12.07-.07.14-.19.21-.36.05-.12.12-.46.22-1l.38-2.18-.28-4.8-.18-1.68c-.06-.18-.16-.28-.31-.3l.05-.3 2.23.32-.05.3-.1-.01c-.13-.02-.24.01-.31.1a.56.56 0 0 0-.13.28c-.03.19-.03.69.02 1.49l.21 3.71 1.41-3.15c.35-.77.54-1.28.59-1.55.02-.14.02-.27-.03-.37-.05-.14-.18-.24-.39-.3l.05-.3 1.43.18m4.92 1.25c-.42-.04-.8.43-1.14 1.4-.28.8-.51 1.98-.69 3.51-.22 1.83-.25 3.2-.08 4.1.12.63.35.97.69 1 .23.02.44-.09.63-.33.24-.32.46-.84.66-1.57s.37-1.69.52-2.88c.17-1.42.24-2.49.22-3.2-.03-.72-.11-1.23-.25-1.54-.15-.3-.34-.46-.56-.49m.02-.5c.74.01 1.27.57 1.59 1.68.33 1.11.39 2.46.2 4.05-.16 1.36-.48 2.54-.94 3.54-.62 1.32-1.33 1.94-2.15 1.86-.82-.09-1.38-.8-1.67-2.16-.23-1.07-.26-2.31-.09-3.73.19-1.59.59-2.9 1.17-3.91.59-1.03 1.22-1.47 1.89-1.33zm3.59 1.02-.07 4.45h.13c.2 0 .36-.07.49-.21s.24-.38.33-.72.16-.8.19-1.38h.12l-.09 5.44h-.12c-.02-1.03-.13-1.71-.31-2.04s-.39-.5-.63-.5h-.13l-.05 3.31.02 1.04c.02.14.07.26.14.36a.33.33 0 0 0 .3.16h.15v.29l-2.35-.03v-.29h.15c.13 0 .24-.05.32-.16.06-.07.11-.2.14-.38.03-.12.04-.46.05-1.01l.12-7.12-.02-1.04c-.02-.14-.07-.26-.14-.36s-.17-.16-.3-.16h-.15v-.3l3.79.06-.05 3.11h-.14c-.02-.73-.09-1.27-.21-1.63-.12-.35-.3-.6-.54-.75-.13-.08-.38-.13-.73-.13l-.41-.01m11.99-1.36.72 3.76-.13.02c-.29-.96-.61-1.68-.99-2.15-.37-.47-.72-.68-1.07-.61-.28.05-.51.29-.67.73-.16.43-.24.97-.23 1.63.01.83.11 1.74.3 2.73.19.97.41 1.84.66 2.62.26.78.53 1.35.83 1.72s.62.52.97.45c.29-.05.52-.25.7-.59s.33-.9.46-1.68l.18.94c-.13.68-.31 1.19-.53 1.53s-.52.54-.89.61c-.49.09-.96-.06-1.43-.46-.47-.39-.89-1.01-1.26-1.84s-.65-1.74-.84-2.72c-.2-1.03-.27-2.04-.22-3.01s.22-1.75.51-2.33.65-.91 1.09-.99c.32-.06.69.04 1.11.31.24.15.39.23.45.22.07-.01.12-.09.15-.22.03-.14.02-.34-.01-.61l.14-.06m4.84 9.97.06.29-2.24.46-.06-.29.14-.03c.12-.03.21-.1.27-.23.04-.08.06-.22.05-.4 0-.13-.05-.46-.16-.99l-1.36-6.99-.23-1.01a.933.933 0 0 0-.21-.33.32.32 0 0 0-.32-.09l-.14.03-.06-.29 2.24-.46.06.29-.14.03c-.12.03-.21.1-.27.22-.04.09-.06.22-.06.4 0 .13.05.46.16.99l1.36 6.99.23 1.01c.05.13.12.24.21.33a.35.35 0 0 0 .32.1l.15-.03m28.02-23.14 4.89 7.03.5.67c.08.07.15.12.22.14.1.03.2.01.31-.07.34-.24.42-.67.25-1.3-.23-.85-.85-1.99-1.84-3.43-.8-1.16-1.53-2.02-2.18-2.6-.51-.45-.93-.7-1.27-.75-.26-.03-.55.07-.88.31m4.34 9.59-.17-.24.14-.1c.12-.08.18-.19.19-.32a.9.9 0 0 0-.09-.43c-.05-.11-.23-.39-.55-.86l-4.12-5.92-.64-.84c-.1-.1-.22-.17-.34-.21a.412.412 0 0 0-.37.06l-.14.1-.17-.25 1.85-1.29c.49-.34.99-.47 1.5-.39.62.1 1.27.45 1.97 1.04.7.6 1.36 1.35 2 2.27.44.63.8 1.25 1.08 1.85s.46 1.12.56 1.57c.09.45.12.85.07 1.2a2.45 2.45 0 0 1-.37.98c-.09.14-.26.3-.53.49zm11.66-44.23 3.68-.96.89 3.82-.28.09-.03-.14a.342.342 0 0 0-.23-.25c-.08-.03-.22-.04-.4-.01-.13.01-.45.1-.97.26l-6.83 2.1-.99.34c-.13.06-.23.15-.31.25s-.11.21-.08.33l.03.14-.28.09-.54-2.3.28-.09.04.19a.31.31 0 0 0 .23.25c.09.03.22.04.4.02.13-.01.45-.1.97-.26l6.61-2.03 1-.35c.14-.07.24-.15.29-.25.03-.07.03-.2-.02-.4l-.08-.36c-.05-.23-.19-.39-.42-.48s-.57-.13-1.01-.11-1.09.1-1.93.25l-.02-.14m-109.02-10.07-2.79-1.9-.89-.55a.915.915 0 0 0-.4-.07.39.39 0 0 0-.32.19l-.1.14-.24-.17 1.51-2.21.24.17-.1.14a.45.45 0 0 0-.06.39c.02.1.1.21.23.34.09.09.36.3.81.61l5.92 4.04.89.55a.79.79 0 0 0 .4.07c.13-.01.24-.08.32-.19l.1-.14.25.17-1.51 2.21-.25-.17.1-.14a.42.42 0 0 0 .06-.39c-.03-.1-.1-.21-.23-.35-.09-.1-.36-.3-.81-.6l-2.55-1.74-1.02 1.49 2.55 1.74.89.56a.79.79 0 0 0 .4.07c.13-.01.24-.08.32-.2l.09-.14.25.17-1.51 2.21-.25-.17.09-.14c.09-.12.11-.25.06-.39-.03-.1-.1-.21-.23-.35-.09-.09-.36-.3-.81-.6l-5.92-4.04-.89-.56a.79.79 0 0 0-.4-.07c-.14.01-.24.08-.33.19l-.09.14-.24-.17 1.51-2.21.24.17-.09.14c-.09.12-.11.26-.06.39.02.1.1.21.23.35.09.09.36.3.81.6l2.79 1.9 1.03-1.48m2.38 6.4-1.48 2.22-.25-.17.07-.11c.11-.17.15-.31.12-.42s-.11-.23-.22-.34-.44-.35-.96-.7l-4.51-3.01-1.7-1.01c-.31-.12-.59-.17-.86-.16-.27.02-.46.12-.6.33-.16.23-.18.5-.06.82.12.31.34.64.68.99.34.34 1 .84 1.98 1.49l3.76 2.5c.41.28.72.45.92.53s.36.11.47.09c.17-.03.31-.13.42-.3l.25.17-.99 1.49-.25-.17.06-.09c.08-.12.1-.25.05-.4s-.17-.31-.35-.49c-.13-.12-.38-.31-.75-.56l-3.5-2.33-2.28-1.66a3.85 3.85 0 0 1-1-1.37c-.23-.53-.2-1.01.1-1.46.25-.37.55-.59.89-.65.47-.08.98-.03 1.5.16.53.19 1.18.54 1.94 1.05l4.51 3.01 1.02.62a.74.74 0 0 0 .4.06c.12-.01.24-.12.36-.3l.26.17"/><path style="stroke:none;stroke-width:1;stroke-dasharray:none;stroke-linecap:butt;stroke-dashoffset:0;stroke-linejoin:miter;stroke-miterlimit:4;is-custom-font:none;font-file-url:none;fill:#63615f;fill-rule:evenodd;opacity:1" transform="matrix(7.1601 0 0 7.1705 -930.191 -932.905)" d="m142.3 187.64 3.34.67-2.71-1.84-.63 1.17m-.69-.15.74-1.59-1.31-.97c-.3-.22-.37-.38-.58-.48-.28-.14-.51-.18-.69-.14-.1.02-.22.14-.36.35l-.27-.13.61-1.49.27.13c-.01.19.09.39.29.61s.46.59 1.17 1.11l7.3 5.32-.12.23-8.75-2.36c-.85-.23-1.39-.33-1.64-.32-.19 0-.49.07-.57.19l-.27-.13 1.06-2.17.27.13-.04.09c-.07.17-.07.32.01.45.06.09.16.17.31.24l.28.11c.05.02.26.03.6.17zm5.77 7.26-9.71-4.48-.16.86c-.07.41-.07.7.03.89.14.3.45.59.93.87s1.14.54 1.99.77l-.02.13-3.87-.88.75-4.14 9.73 4.49.12-.67c.05-.26.06-.43.04-.52-.04-.17-.15-.34-.33-.51s-.43-.33-.75-.49c-.32-.15-.74-.3-1.25-.44l.02-.12 3.14.69-.66 3.55m-6.18 1.57-3.38-.4-1.05-.09a.81.81 0 0 0-.38.12.36.36 0 0 0-.19.3l-.02.16-.3-.04.27-2.51.3.04-.02.16a.44.44 0 0 0 .13.36c.07.07.19.13.37.19.12.04.46.1 1.01.16l7.18.86 1.05.09c.14-.01.27-.05.38-.11.11-.07.18-.17.19-.3l.02-.16.3.04-.27 2.51-.3-.04.02-.16a.44.44 0 0 0-.13-.36c-.07-.07-.19-.13-.37-.19-.13-.04-.46-.09-1.01-.16l-3.09-.37-.18 1.7 3.09.37 1.05.09a.81.81 0 0 0 .38-.12c.11-.07.18-.17.19-.3l.02-.16.3.04-.27 2.51-.3-.04.02-.16a.41.41 0 0 0-.13-.36c-.07-.07-.19-.13-.37-.19-.13-.04-.46-.09-1.01-.16l-7.18-.86-1.05-.09a.81.81 0 0 0-.38.12.36.36 0 0 0-.19.3l-.02.16-.3-.04.27-2.51.3.04-.02.16a.41.41 0 0 0 .13.36c.07.07.19.13.37.19.12.04.46.09 1.01.16l3.38.4.18-1.71"/><path style="stroke:none;stroke-width:1;stroke-dasharray:none;stroke-linecap:butt;stroke-dashoffset:0;stroke-linejoin:miter;stroke-miterlimit:4;is-custom-font:none;font-file-url:none;fill:#63615f;fill-rule:evenodd;opacity:1" transform="matrix(7.1601 0 0 7.1705 -930.191 -932.907)" d="M146.32 202.55c-.04-.42-.58-.7-1.64-.86-.86-.13-2.09-.15-3.68-.06-1.89.1-3.27.32-4.15.64-.61.22-.91.51-.87.85.02.23.17.41.46.55.37.18.94.3 1.71.37s1.77.07 3 0c1.46-.08 2.55-.2 3.27-.35s1.22-.32 1.5-.51c.28-.2.42-.41.4-.63m.51-.07c.13.72-.33 1.33-1.38 1.85-1.05.51-2.4.81-4.04.9-1.4.08-2.65-.02-3.75-.3-1.45-.37-2.22-.96-2.29-1.77-.07-.82.54-1.48 1.85-2.01 1.03-.41 2.28-.66 3.74-.74 1.64-.09 3.03.06 4.17.46s1.71.94 1.7 1.61zm.38 3.36-6.05 3.9 4.57-1.02c.64-.14 1.06-.28 1.26-.42.28-.18.38-.41.31-.68l.29-.07.36 1.63-.29.07c-.1-.2-.21-.32-.31-.37-.11-.05-.27-.07-.48-.07-.21.01-.57.07-1.07.18l-8.84 1.98-.03-.12 8.11-5.31-6.75 1.51c-.61.14-1.01.29-1.19.47-.19.18-.26.35-.22.52l.03.12-.29.06-.39-1.75.29-.06c.07.27.23.43.49.49.26.05.67.02 1.23-.11l7.5-1.67.26-.17c.26-.17.42-.3.49-.4s.09-.23.07-.38l.29-.07.36 1.74m2.27 6.42-3.52 1.58-.04-.11c.91-.57 1.56-1.11 1.96-1.61.39-.5.53-.91.4-1.24-.12-.31-.43-.48-.93-.5s-1.14.1-1.93.35-1.58.56-2.37.91a22.29 22.29 0 0 0-2.47 1.28c-.69.42-1.16.81-1.42 1.17s-.33.69-.22.98c.04.1.1.19.2.27.09.08.21.16.35.23l3.47-1.34c.4-.15.64-.3.75-.38.11-.07.19-.17.26-.28a.34.34 0 0 0 .04-.32l-.04-.11.27-.12.7 1.85-.27.12c-.08-.14-.18-.23-.28-.25-.1-.03-.25-.01-.43.03-.1.02-.33.12-.7.28l-3.38 1.52c-.39-.14-.71-.32-.97-.54s-.45-.49-.57-.8c-.15-.4-.15-.78.01-1.16s.41-.76.75-1.15.76-.76 1.24-1.11c.62-.45 1.36-.86 2.2-1.24 1.5-.68 2.86-1.03 4.07-1.05s1.94.3 2.2.97c.08.21.11.41.1.61-.01.11-.06.31-.17.59s-.15.45-.14.48c.02.06.09.09.21.09s.33-.04.62-.12l.05.12m1.82 2.5 1.59 2.14-.24.18-.08-.11c-.12-.16-.24-.24-.35-.25a.737.737 0 0 0-.39.09c-.15.07-.47.29-.98.67l-4.35 3.24c-.8.59-1.3 1.01-1.52 1.26s-.36.5-.44.75c-.07.25-.04.48.11.68.17.22.42.33.75.33s.72-.11 1.16-.31c.44-.21 1.13-.66 2.07-1.36l3.62-2.7c.4-.3.67-.53.81-.69.14-.17.22-.3.24-.41.03-.17-.01-.33-.14-.5l.24-.18 1.07 1.43-.24.18-.06-.09c-.09-.12-.21-.18-.37-.18s-.35.05-.58.17c-.16.08-.42.25-.78.52l-3.37 2.51-2.33 1.59c-.51.28-1.05.44-1.63.48-.57.04-1.02-.15-1.34-.58-.27-.36-.37-.71-.31-1.06.08-.47.3-.93.65-1.36.36-.44.9-.93 1.64-1.48l4.35-3.24.92-.75c.11-.12.17-.24.19-.36.03-.12-.03-.27-.16-.44l.25-.17m5.03 5.72-3.29 6.4 3.45-3.17c.48-.44.78-.77.89-.99.15-.3.12-.55-.07-.75l.22-.2 1.13 1.23-.22.2c-.19-.12-.34-.17-.46-.16s-.27.07-.45.18-.46.34-.84.69l-6.67 6.13-.09-.09 4.36-8.65-5.09 4.68c-.46.42-.73.76-.8 1-.07.25-.05.43.06.56l.08.09-.22.2-1.21-1.32.22-.2c.19.2.41.26.66.18s.59-.32 1.01-.71l5.66-5.2.14-.28c.14-.27.22-.47.23-.59s-.03-.24-.13-.36l.22-.2 1.21 1.33m19.48 23.01-.09.28-2.18-.66.09-.28.14.04c.12.04.24.01.35-.07.08-.05.16-.16.24-.33.06-.11.18-.43.35-.95l2.27-6.8.3-1c.02-.14.02-.27-.02-.39s-.11-.2-.23-.23l-.14-.04.09-.28 2.18.66-.09.28-.14-.04a.353.353 0 0 0-.34.07c-.08.06-.16.16-.25.33-.06.12-.18.43-.35.95l-2.27 6.8-.3 1c-.02.14-.01.27.02.39.04.12.11.2.23.23l.14.04m28.66-7.17.7 3.61-.15.03c-.23-.89-.53-1.59-.9-2.09s-.7-.72-1.01-.65c-.24.05-.4.23-.49.55s-.1.67-.03 1.05a2.6 2.6 0 0 0 .19.63c.11.24.27.46.46.68.14.16.45.42.93.78.67.51 1.16 1.03 1.45 1.54.29.52.51 1.13.64 1.85.16.91.15 1.72-.04 2.44s-.53 1.13-1.01 1.22a.98.98 0 0 1-.45-.02c-.15-.04-.34-.14-.58-.29-.13-.08-.23-.12-.31-.1-.06.01-.12.08-.16.2-.05.12-.07.3-.08.52l-.13.03-.74-4.1.13-.03c.31 1.13.67 1.97 1.08 2.52.4.55.78.79 1.12.72.26-.05.44-.26.54-.62s.11-.75.03-1.19a2.96 2.96 0 0 0-.23-.73 2.32 2.32 0 0 0-.4-.63c-.16-.19-.43-.43-.8-.71-.52-.4-.91-.75-1.16-1.05a4.62 4.62 0 0 1-.65-1.06c-.18-.4-.31-.86-.41-1.36-.16-.86-.15-1.63.02-2.3.17-.66.47-1.04.89-1.13a.94.94 0 0 1 .47.03c.12.04.28.13.47.28.19.14.32.21.38.19.06-.01.1-.07.12-.16s.02-.3-.01-.64l.12-.01m10.17-.66.85 4.23.09-.02c.25-.06 1.1 0 1.16-.73.04-.46-.03-.31-.11-1.07l.26-.13.83 3.87-.3.12c-.09-.58-.02-.45-.18-.82-.17-.37-.21-.46-.35-.57s-.97.07-1.17.12l.65 3.04.26 1.08c.05.13.11.23.18.3s.17.09.3.07l.26-.06c.41-.09.68-.4.83-.92s.23-.62.13-1.6l.4.02.19 2.77-3.76.85-.06-.29.14-.03c.13-.03.22-.11.27-.24.04-.09.06-.22.05-.41 0-.13-.06-.47-.18-1.01l-1.51-7.09-.21-.89c-.06-.18-.13-.31-.21-.4-.11-.13-.24-.18-.38-.15l-.14.03-.06-.3 3.64-.82.73 2.48-.33.1c-.23-.77-.27-.67-.46-.98-.18-.31-.4-.53-.64-.64-.14-.07-.37-.07-.7.01l-.47.08m4.02-1.47 4.44 5.78-1.37-4.49c-.19-.63-.36-1.04-.51-1.23-.21-.26-.45-.35-.73-.26l-.09-.29 1.65-.47.09.29c-.2.12-.31.23-.36.34s-.06.27-.04.49c.02.21.11.57.26 1.06l2.65 8.69-.13.04-6.03-7.73 2.02 6.64c.18.6.37.99.57 1.16.2.18.38.24.55.19l.12-.03.09.28-1.78.5-.09-.28c.27-.08.43-.26.47-.52s-.03-.67-.2-1.22l-2.24-7.37-.19-.25c-.19-.25-.34-.4-.45-.47a.562.562 0 0 0-.39-.05l-.09-.29 1.78-.51m7.26-2.39 1.18 3.64-.13.04c-.4-.92-.82-1.59-1.24-2.02-.42-.42-.8-.58-1.13-.48-.28.09-.47.36-.58.81s-.12 1-.03 1.64c.12.82.33 1.71.64 2.67a20.44 20.44 0 0 0 .98 2.52c.35.74.7 1.28 1.04 1.6.34.33.68.44 1.02.33.28-.09.49-.31.62-.68.14-.36.22-.94.25-1.73l.29.91c-.05.69-.16 1.22-.34 1.58s-.45.6-.81.71c-.47.15-.96.06-1.48-.28-.51-.33-1-.89-1.48-1.67-.47-.78-.86-1.65-1.17-2.6-.32-1-.52-1.99-.59-2.96s0-1.76.22-2.37c.21-.62.53-.99.96-1.12.31-.1.69-.04 1.14.17.26.12.42.18.47.16.07-.02.11-.1.12-.24s-.02-.34-.09-.61l.14-.02"/><path style="stroke:none;stroke-width:1;stroke-dasharray:none;stroke-linecap:butt;stroke-dashoffset:0;stroke-linejoin:miter;stroke-miterlimit:4;is-custom-font:none;font-file-url:none;fill:#63615f;fill-rule:evenodd;opacity:1" transform="matrix(7.1601 0 0 7.1705 -930.211 -932.91)" d="m228.11 231.72 1.57 4.02.08-.03c.23-.1 1.09-.19 1.02-.92-.04-.46-.08-.3-.3-1.03l.24-.18 1.49 3.66-.28.17c-.19-.56-.1-.44-.32-.78-.23-.34-.29-.42-.44-.5s-.94.24-1.13.32l1.17 2.88.45 1.02c.07.12.15.21.23.26.09.06.19.06.3.01l.25-.1c.38-.16.6-.51.65-1.05s.12-.65-.15-1.59l.4-.05.67 2.69-3.55 1.49-.11-.28.14-.06c.12-.05.19-.14.22-.28.02-.09.02-.23-.03-.41-.03-.13-.14-.45-.35-.96l-2.73-6.72-.36-.84c-.09-.17-.18-.29-.28-.36-.13-.11-.27-.13-.4-.08l-.14.06-.11-.28 3.44-1.44 1.15 2.31-.31.16c-.36-.71-.39-.61-.62-.89-.24-.28-.48-.45-.74-.52-.15-.05-.38 0-.69.13l-.43.17m9.63 1.83-2.35-2.47 1.17 3.06 1.18-.59m.49.52-1.52.87.52 1.55c.12.35.09.52.2.72.16.27.32.44.48.51.1.04.26.01.5-.08l.15.26-1.36.87-.15-.26c.12-.15.15-.37.11-.67s-.04-.75-.33-1.58l-2.93-8.54.23-.12 5.81 6.95c.56.67.95 1.07 1.16 1.2.15.1.44.22.57.17l.15.26-2.11 1.18-.15-.26.08-.05c.16-.1.24-.23.24-.37 0-.1-.04-.23-.12-.37-.05-.09-.11-.17-.17-.25-.03-.04-.2-.17-.4-.48z"/><path style="stroke:none;stroke-width:1;stroke-dasharray:none;stroke-linecap:butt;stroke-dashoffset:0;stroke-linejoin:miter;stroke-miterlimit:4;is-custom-font:none;font-file-url:none;fill:#63615f;fill-rule:evenodd;opacity:1" transform="matrix(7.1601 0 0 7.1705 -930.213 -932.908)" d="m237.27 225.85 6.04 4.08-2.71-3.83c-.38-.53-.67-.87-.88-1.01-.28-.18-.54-.19-.77-.02l-.17-.24 1.42-.97.17.24c-.15.17-.23.32-.23.43-.01.12.03.28.12.47.09.2.28.51.58.93l5.25 7.42-.11.07-8.16-5.44 4.01 5.66c.36.51.66.82.9.92.24.11.43.11.58.01l.1-.07.17.24-1.53 1.04-.17-.24c.23-.17.33-.38.28-.64s-.24-.63-.57-1.1l-4.45-6.29-.26-.18c-.26-.17-.45-.27-.57-.3s-.25 0-.39.08l-.17-.24 1.52-1.02m10.45-10.15 2.34 1.8-.07.1c-.58-.36-1.02-.59-1.3-.7-.29-.11-.54-.16-.77-.14-.13.01-.25.1-.37.28l-.19.28 6.68 5.12.85.61c.13.06.25.1.38.1s.23-.05.3-.15l.09-.12.24.18-1.37 1.95-.24-.18.09-.12c.08-.11.09-.23.05-.36-.03-.09-.1-.21-.23-.35-.09-.1-.35-.31-.78-.65l-6.68-5.12-.19.27c-.18.25-.18.53-.01.83.23.42.65.9 1.26 1.43l-.07.1-2.34-1.8 2.33-3.36m1.63-1.38 3.64 2.31.05-.08c.13-.22.76-.8.28-1.34-.3-.34-.24-.2-.85-.66l.09-.28 3.36 2.08-.12.3c-.48-.34-.34-.3-.72-.44-.39-.14-.48-.17-.66-.14-.17.02-.61.75-.72.93l2.64 1.63.96.56c.13.05.24.08.34.08s.19-.06.25-.17l.14-.23c.21-.36.18-.77-.09-1.23s-.29-.59-1.06-1.2l.3-.27 2.13 1.77-1.99 3.3-.26-.16.08-.13c.07-.11.07-.23.01-.36-.03-.09-.12-.19-.27-.32-.1-.09-.38-.28-.85-.57l-6.17-3.81-.79-.47a1.32 1.32 0 0 0-.44-.13c-.17-.01-.3.05-.37.17l-.08.13-.26-.16 1.92-3.2 2.29 1.19-.15.31c-.71-.36-.67-.26-1.03-.35-.35-.08-.66-.08-.9.02-.15.05-.31.22-.48.51l-.22.41"/><path style="stroke:none;stroke-width:1;stroke-dasharray:none;stroke-linecap:butt;stroke-dashoffset:0;stroke-linejoin:miter;stroke-miterlimit:4;is-custom-font:none;font-file-url:none;fill:#63615f;fill-rule:evenodd;opacity:1" transform="matrix(7.1601 0 0 7.1705 -930.217 -932.908)" d="m251.39 208.89 3.65 1.14-.04.13c-.98-.2-1.77-.25-2.36-.15s-.94.32-1.05.65c-.09.28.02.59.32.94.31.35.75.67 1.32.97.74.38 1.59.72 2.55 1.02.94.29 1.82.51 2.62.66.81.14 1.44.17 1.91.08s.75-.3.86-.64c.09-.28.03-.58-.19-.9s-.64-.72-1.26-1.2l.91.28c.54.44.9.84 1.09 1.19a1.35 1.35 0 0 1 .12 1.07c-.15.47-.51.82-1.08 1.04-.57.23-1.31.3-2.21.24-.91-.07-1.84-.25-2.79-.55-1.01-.31-1.92-.72-2.75-1.23-.83-.5-1.44-1.02-1.81-1.55-.38-.53-.5-1.01-.36-1.43.1-.31.36-.59.8-.83.25-.14.39-.24.4-.29.02-.07-.02-.15-.13-.24s-.29-.18-.55-.28l.03-.12"/><path style="stroke:none;stroke-width:1;stroke-dasharray:none;stroke-linecap:butt;stroke-dashoffset:0;stroke-linejoin:miter;stroke-miterlimit:4;is-custom-font:none;font-file-url:none;fill:#63615f;fill-rule:evenodd;opacity:1" transform="matrix(7.1601 0 0 7.1705 -930.216 -932.904)" d="m257.54 208.06 3.31.76 1.04.2a1 1 0 0 0 .39-.07c.12-.05.2-.15.23-.28l.03-.16.29.07-.54 2.47-.29-.07.03-.16c.03-.14 0-.26-.09-.37-.06-.08-.18-.15-.35-.23-.12-.05-.45-.14-.99-.27l-7.04-1.62-1.04-.2c-.14-.01-.27.02-.39.07s-.19.15-.22.28l-.03.16-.29-.07.54-2.47.29.07-.03.16c-.03.14 0 .26.09.37.06.08.18.15.35.23.12.06.45.14.99.27l3.03.7.36-1.67-3.03-.7-1.04-.2a.848.848 0 0 0-.39.07.39.39 0 0 0-.22.28l-.03.15-.29-.07.54-2.47.29.07-.03.15c-.03.14 0 .26.09.37.06.08.18.15.35.23.12.05.45.14.99.27l7.04 1.62 1.04.2c.14.01.27-.02.39-.07.12-.06.2-.15.23-.28l.03-.15.29.07-.54 2.47-.29-.07.03-.15c.03-.14 0-.26-.09-.37-.06-.08-.18-.15-.35-.23-.12-.05-.45-.14-.99-.27l-3.31-.76-.38 1.67m-4.62-6.7 6.92-2.3-4.69-.19c-.65-.03-1.1 0-1.33.08-.32.11-.48.31-.49.6l-.3-.01.1-1.72.3.01c.04.22.11.37.2.45s.24.14.45.19.57.09 1.09.11l9.08.36-.01.13-9.29 3.15 6.93.28c.63.02 1.05-.03 1.28-.15.23-.13.35-.28.36-.46l.01-.12.3.01-.11 1.84-.3-.01c.01-.29-.1-.49-.34-.61-.23-.12-.64-.19-1.22-.22l-7.7-.31-.3.1c-.29.1-.49.19-.59.27s-.15.2-.17.36l-.3-.01.12-1.83m.3-5.38c.06.42.62.67 1.68.75.86.07 2.08 0 3.65-.2 1.87-.24 3.22-.55 4.07-.94.6-.27.87-.58.82-.92-.03-.23-.2-.4-.49-.53-.37-.15-.95-.23-1.72-.25-.77-.01-1.76.06-2.98.21-1.45.18-2.52.38-3.22.58s-1.19.41-1.46.62c-.26.24-.38.45-.35.68m-.5.11c-.18-.72.25-1.37 1.26-1.96s2.33-.99 3.95-1.2c1.39-.18 2.63-.16 3.74.04 1.47.27 2.26.81 2.38 1.63s-.45 1.53-1.72 2.15c-1 .49-2.22.82-3.67 1.01-1.62.21-3.01.15-4.16-.17-1.16-.33-1.75-.82-1.78-1.5zm-5.49-12.67 3.29-2.19.07.1c-.82.72-1.38 1.37-1.69 1.93s-.37.99-.18 1.29c.18.29.53.39 1.04.32s1.14-.3 1.89-.69 1.5-.83 2.24-1.32c.89-.6 1.65-1.16 2.27-1.7.62-.53 1.03-1 1.22-1.41.2-.4.21-.74.04-1a.697.697 0 0 0-.25-.23c-.11-.07-.24-.12-.4-.16l-3.28 1.94c-.38.22-.6.41-.69.51a.85.85 0 0 0-.21.32c-.05.12-.04.23.02.32l.06.1-.25.17-1.05-1.7.25-.17c.11.12.22.19.33.2s.25-.03.44-.11c.1-.04.32-.18.66-.4l3.15-2.1c.42.07.78.19 1.08.36s.54.4.72.69a1.45 1.45 0 0 1 .21 1.14c-.09.4-.27.82-.55 1.27-.28.44-.63.88-1.05 1.31-.55.55-1.22 1.09-2 1.61-1.4.93-2.72 1.52-3.94 1.76s-2.03.05-2.41-.56c-.12-.19-.19-.38-.22-.58-.01-.11.01-.31.06-.61s.07-.47.05-.5c-.03-.05-.11-.07-.23-.05s-.33.09-.61.23l-.08-.09"/><path style="stroke:none;stroke-width:1;stroke-dasharray:none;stroke-linecap:butt;stroke-dashoffset:0;stroke-linejoin:miter;stroke-miterlimit:4;is-custom-font:none;font-file-url:none;fill:#63615f;fill-rule:evenodd;opacity:1" transform="matrix(7.1601 0 0 7.1705 -930.215 -932.905)" d="m244.05 179.07.24-.18c.13.09.29.12.48.09.25-.05.86-.27 1.83-.68l3.83-1.59 2.13-1.59.83-.66c.09-.1.16-.21.2-.33a.33.33 0 0 0-.06-.33l-.16-.21.24-.18 1.64 2.06-.24.18-.15-.19a.379.379 0 0 0-.34-.15c-.1 0-.23.04-.4.12-.12.06-.4.25-.84.58l-1.77 1.32-3.09 3.69-1.03 1.35c-.08.17-.07.31.02.43l-.24.18-1.4-1.76.24-.18.06.08c.08.11.18.15.29.14s.2-.05.28-.11c.16-.12.49-.48 1-1.1l2.39-2.85-3.19 1.33c-.78.32-1.28.56-1.49.72a.72.72 0 0 0-.24.29c-.06.14-.03.3.07.48l-.24.18-.89-1.13m6.95 9.47c.18.38.78.45 1.81.22.84-.19 1.98-.61 3.41-1.27 1.7-.78 2.9-1.48 3.6-2.1.49-.43.66-.81.51-1.12-.1-.21-.31-.33-.62-.36-.4-.03-.97.06-1.71.27-.74.22-1.66.58-2.77 1.09l-2.89 1.51c-.61.4-1.01.74-1.2 1.03-.19.28-.24.52-.14.73m-.45.25c-.37-.63-.16-1.38.62-2.25.79-.86 1.93-1.64 3.41-2.32 1.27-.58 2.45-.94 3.56-1.07 1.47-.18 2.38.1 2.73.85.35.74.02 1.6-1 2.57-.81.76-1.87 1.45-3.19 2.05-1.48.68-2.82 1.04-4 1.07-1.19.04-1.9-.26-2.13-.9z"/><path style="stroke:none;stroke-width:1;stroke-dasharray:none;stroke-linecap:butt;stroke-dashoffset:0;stroke-linejoin:miter;stroke-miterlimit:4;is-custom-font:none;font-file-url:none;fill:#e50619;fill-rule:evenodd;opacity:1" transform="matrix(7.1601 0 0 7.1705 -930.196 -932.902)" d="M225.09 166.54c-.48-.47-.92-1.13-1.09-1.78-.11-.39-.27-1.21-.25-1.62-.02-.29.06-.81-.31-.89-.26.03-.33.15-.33.4l-.15.8-.34 2.86c.29 1.02.63.58 1.41.86.62 0 1.26.34 1.86.25.13-.42-.56-.64-.8-.88zm1.44-6.03c-.22-.06-.56 0-.76.11-.13.01-1.03.06-1.14.02-.13-.14.53-.88.58-.99l.97-1.03c.15-.05.32-.25.38-.39.19-.44-.22-1.18-.35-1.6-.06-.14-.22-.76-.39-.82l-.32.08-.18.25c-.09.21-.25.52-.3.75-.64 1.18-1.54 2.58-2.46 3.56-.98-.04-2.39.01-3.36-.19-.36-.11-1-.54-1.37-.34-.12.19.13.62.2.79l.22.56c.14.28.34.73.7.78.65-.07 1.54-.34 2.19-.26.05.29-.44.48-.62.59-.28.26-1.6.53-1.96.62-.54.06-1.36-.07-1.9-.12-.17 0-.59-.19-.71 0-.09.14.75.58.79.64.28.17.89.45 1.21.51 2.02.46 3.96-1.1 5.37-2.35.26-.12.69-.03.97-.08l1.57.02 1.02.18.27-.13c.27-.41-.18-1.02-.62-1.16zm-40.59-4.39.33-.07c.62-.41 1.42-1.05 2.12-1.31.35-.14.9-.16 1.11-.5.4-.58 0-1.53-.66-1.71-.12-.02-.17.07-.21.19.18.28-.93 1.03-1.05 1.19-.61.51-1.28 1.35-1.75 1.99-.02.04-.33.27-.26.34.11.04.28-.08.37-.12zm59.12 9.82c-.09-.28-.23-.71-.54-.82-.74-.18-1.6-.5-2.33-.72-.21 0-.8.06-.7-.3 1.18-.09 1.61.31 1.41-1.22-.03-.41-.29-.86-.73-.53-.11.21-.66.33-.86.39-.11 0-.3-.01-.37-.12l-.48-.73c-.13-.21-.28-.3-.51-.16-.21.18 0 .59.01.82.17.78-.5.45-.95.47-.42-.16-.34-.21-.23-.6.2-.84.27-1.81-.13-2.6-.17-.22-.46-.27-.5.07l-.05 1.35c-.15.4-.29 1.21-.62 1.48l-.09-.07c.05-.52.17-1.59-.4-1.84-.33.08-.27.82-.33 1.06l-.78 1.98c-.4 1.18.5.8.84.1.34-.12.26.3.26.49.01.28.02.76.38.8.29.01.6-.21.73-.47.03-.29.25-.72.36-.98.07-.43.27-.28.59-.29.23.09.95.11 1 .42-.05.13-.4.15-.5.16l-.55.21c-.22.15-.43.43-.58.68-.05.08-.06.18-.04.27l.08.3c.34.64.6.92 1.36.92.88.04 1.39-.73 1.52-1.53.25-.07.6.14.82.25 1.34.41 1.43.98-.02 1.25-.78.16-1.73.56-2.52.44a11.33 11.33 0 0 0-1.16-.4l-2.05-.75-.63-.24c-.16-.06-.46-.23-.49.06.14.3.31.88.69.92.33.18.9.25 1.26.3a6.61 6.61 0 0 0 .76.22c.22.09.82.1.71.46-.54.33-1.26.57-1.89.58l-4.33-1.23-1.05-.36c-.31-.16-.72-.41-1.07-.46-.21.21.07.9.08 1.16.13.36.22 1.04.58 1.26.97.12 2.13-.03 3.1.04.33.06 1.32.04 1.57.3.03.18-.23.34-.32.48-.75.79-1.74 1.8-2.61 2.47-.72.16-1.35-.76-1.81-1.17-.06-.06-.15-.01-.21.02 0 .36.4.86.51 1.2.1.35.4 1.01.58 1.32l.14.22c.05.08.13.13.21.16l.23.08c.52.06.99-.42 1.31-.77.14-.2 1.74-2.07 1.74-2.07l1.58-1.52c.11.01.33.05.43.1a.34.34 0 0 1 .15.48c-.12.16-.83.54-.46.72.41.03.97.23 1.33.44.27.03.83.18.88-.22-.04-.58-.2-1.32-.69-1.68-.11-.08-.38-.18-.29-.36.58-.09 1.37.12 1.95.18.12.01.33 0 .41-.1.21-.23.07-.73.06-1.01-.02-.07-.1-.29-.06-.36.71-.11 1.57.02 2.25.23.55.17 1.25.59 1.72.05.48-.39.55-1.15.34-1.68zm-4.69-.62c-.15.19-.31.48-.59.4-.08-.1-.22-.31-.27-.43.02-.2.1-.39.3-.45.11-.01.43-.09.51.03.2.06.09.31.05.45zm-28.24-3.13c-1.64.09-2.41-.62-3.44-1.76.09-.37.68-.96.89-1.29l.26-.21c.03-.05.1-.34.17-.37-.08-.38-.51-.64-.84-.79-.13-.04-.3.03-.42.01 0-.41.35-1.01.58-1.33.27-.36.55-1.03.98-1.21.26-.07.63-.3.87-.42.1-.08.15-.18.13-.31l-.26-.43a.745.745 0 0 1-.25-.13c-.01-.51-.62-.87-.99-1.14l-.22-.08-.22.09c-.07.17-.1.58-.11.76l-.2.52-.23.57-.36.27c-.88.36-1.82.99-2.73 1.3-.07.37.72.56 1 .62.43-.06.98-.6 1.37-.74-.02.4-.44 1.04-.57 1.43-.06.1-.29.41-.26.54 0 .1.04.28.11.36.05.1.16.27.29.28.18-.04.41-.22.57-.28l.13.07c.07.3-.48.86-.62 1.1-.17-.08-.37-.44-.56-.49-.21-.12-.53-.43-.79-.28-.1.28.22.71.33.95l.3.63c.13.16-.18.45-.24.59-.27.26-.99 1.03-1.34 1.18-.32.15-1.06.58-1.26.07.28-2.16.65-4.64 1.51-6.64.23-.18.71-.5.96-.65l.34-.22.04-.23c-.12-.12-.25-.69-.5-.38l-.08-.06c.35-.31-.69-1.21-.94-1.39-.12-.02-.35.14-.44.2l-.09.41c-.07.33-.25 1-.37 1.3l-1.16.59c-.16-.03-.43.02-.56.12-.04.09.2.48.23.56.1.13.35.52.55.52l.17-.02c.07-.08.19-.23.31-.17-.1.21-.24.77-.28 1-.19.54-.95.95-1.34 1.33l-1.48 1.34c-.11.11-.36.26-.51.25-.78.39-.66.4-.16 1.03.11.07.34.17.49.21.03.01.07.01.1-.01.35-.15.81-.51 1.12-.79a.87.87 0 0 0 .17-.21c.11-.22.32-.51.46-.65l.83-1.05.09.04c-.06.19-.26.99-.31 1.2-.11.29-.15 2.32-.57 2.4l-.59-.06c-.3-.11-.54-.26-.84-.03v.13c.51.36 1.12.68 1.58 1.11l.19.19c.04.13.09.19.23.21.38-.09.76-.47.81-.86l.08-.02c.39.66.49.57 1.14.3.77-.43 1.77-1.13 2.37-1.76.3.25.61.85.83 1.18.1.19.24.56.5.58.64.12 1.44-.15 2.06-.33.34-.16 1.2-.26 1.4-.6-.12-.18-.26-.15-.41-.15zm-47.22 8.64-.65-1.05c.24-.61.9-1.17 1.21-1.75.26-.71-.31-.57-.77-.55-.25 0-.84.05-1.08 0-.09-.15 0-.18.13-.45l.7-1.11c.26-.54.91-1.25 1.01-1.83-.15-.26-.55-.37-.82-.41a.867.867 0 0 0-.77.31c-.28.46-.57 1.19-.91 1.62-.28.01-.03-1.07-.06-1.21.05-.23.28-.46.35-.69.09-.21.27-.61.08-.81a.912.912 0 0 0-.67.03l-.96-.11c-.21.07-.25.24-.25.45l.2.32c.09.15.16.5.18.67 0 .31-.22.66-.41.89-.15.17-.51-.05-.69-.08-.05-.02-.31 0-.31-.09l.12-.66c.07-.81.1-.81.69-1.36.23-.27.55-.97.68-1.3.06-.39.03-.75-.31-1-.45-.08-1.44-.5-1.88-.27-.27.54-.19 1.32-.04 1.89.15.59.26 1.17-.43 1.45-.08-.1-.15-.42-.17-.54-.05-.08-.29-.48-.29-.57-.05-.07-.29-.52-.4-.56-.1-.05-1.52-.06-1.63.03-.36.15-.54.25-.28.66.15.13 1.18.42 1.5.58.21.18.8.5 1.04.46l.06.09c-.01.18-.57.5-.68.59l-1.19.82c-.29.12-.69.48-.98.64-.37.68.81.68 1.22.78.31.06.52-.19.63-.44l.52-.69c.29-.25 1.07-1.42 1.47-1.27.04.05.04.68.04.75-.06.13-.27.11-.38.13-.1.03-.27.04-.28.17-.05.14-.11.35 0 .48.25.23.64.48.77.81l-.05.1c-.23.01-.52-.06-.75-.02-.1.15.04.42-.07.57-.47-.01-1.05-.17-1.52-.15-.23-.03-.59-.11-.55.24.22.41.82.67 1.13 1.01.08.19-.16.48-.27.63l.06.13c.45.01 1.16.14 1.6.24.59-.37.31-1.56.77-2.07.31-.01.49.55.63.75-.12.32-.52.68-.72.97-1.02 1.29-2.25 2.5-3.43 3.65.06.19.13.41.37.4.46-.03 1.33-.07 1.71-.36.56-.51.76-1.48 1.25-2.08l.97-1.53c.19-.42.33-.56.61-.11.12.42-.24.84-.42 1.19-.5.92-.95 2.11-1.17 3.13-.18.6-.02.63.55.55.39-.09.79-.75 1.05-1.03.35-.46.89-1.47 1.35-1.8l.49.8c.13.14.29.44.41.58l.96 1.48c.1.07.29.24.36.34.13.03.44.1.57.08.12-.02.21-.62.21-.71-.03-.67-.35-1.22-.44-1.41-.21-.38-.78-1.03-.97-1.39zm-4.4-9.43c.2-.07.44.07.49.27a.93.93 0 0 1-.17.53c-.05.1-.21.21-.31.11-.07-.07-.06-.53-.07-.62-.01-.08.01-.22.06-.29zm.92 4.31c-.08-.18-.03-.4.2-.39.16-.07.38-.27.56-.14.13.3.34.63.34.97.02.15-.08.38-.19.49-.05.06-.13.15-.22.11-.29-.23-.44-.75-.69-1.04zm1.14 4.71c-.19.29-.61.85-.82 1.12-.08.1-.35.51-.49.54l-.03-.05c.25-.76.77-1.53 1.06-2.28.17-.08.28.17.34.27.06.12 0 .29-.06.4zm.01-2.97c.06-.43.53-.79.72-1.16.11-.19.29-.6.54-.61.07.19-.12.46-.24.6a2.59 2.59 0 0 1-.31.65c-.11.37-.23.72-.71.52zm1.31 1.31c-.07.09-.2.13-.2.13l-.02-.03c-.13-.06-.52-.58-.43-.76.21.07.62.15.74.35-.01.01-.03.22-.09.31zm25.74-10.06-.55.65c-.25.02-.13-.33-.12-.46l.08-.66c.06-.44.33-1.01.52-1.4 0-.24-.26-.47-.43-.61-.15-.26-.59-.46-.88-.47-.33.14-.35.59-.41.9-.75 1.32-2.36 2.1-3.43 3.12.19.24.54.39.83.43.08.01.21-.01.29-.01.92-.08 1.64-1.73 2.25-2.04.12 0 .12.85.12.85v.61l.09 1.02a1.12 1.12 0 0 1-.22.33c-.06.04-.16-.01-.16-.01-.01-.06.07-.1.08-.2 0-.09-.15-.72-.45-.5-.24.59-.93 1.14-.83 1.82.16.28.14.74.44.91.25 0 .52-.47.68-.62.06-.07.4-.54.5-.53.13.14.11.52.15.7.1.15.38.19.52.28.2 0 .44-.1.56-.26.11-.15-.05-.34-.08-.5.02-.32-.08-.71-.12-1.02-.07-.52.47-1.1.69-1.53.16-.29.48-.93.6-1.24.05-.11-.01-.31-.07-.4-.25.1-.47.63-.65.84zm-13.62 3.39c.04-.1.09-.16.2-.15a2.32 2.32 0 0 0 .36-.16l.99-1.03c.15-.08.27-.56.33-.7 0 0-.02-.14-.06-.19l-.2-.09c-.6-.13-.82-.1-.72-.8.17-.63.55-1.31 1.01-1.77.48-.64.24-1.38-.64-1.24-.16.05-.64.3-.8.37-.22.16-.57.66-.72.88-.19.26-.54.81-.7 1.09-.09.12-.19.49-.39.29-.16-.33-.28-.73-.38-1.09-.12-.43.02-1.14-.55-1.23-.21-.04-.66-.12-.88-.12-.13-.01-.42-.07-.52.07-.11.26-.44.85-.38 1.13.25.38.74.68 1.02 1.03l.98 1.89c-.03.03-.81 1.97-.91 1.86-.33-.19-.65-.55-.91-.87-.1-.13-.23-.24-.36-.34-.11-.09-.23-.19-.28-.28-.46-.03-.38.38-.39.69 0 .26.04.79.1 1.04.07.54.01 1.28.43 1.7.49.18 1.38.58 1.81.13.18-.8.41-1.77.74-2.52.23-1.09 1.58 3.43 1.73 3.57.22.83.36 1.87.94 2.54.18.34.71.61 1.05.76.26.06.41-.15.53-.35.07-.64-.37-1.61-.71-2.14l-1.72-3.97zm-.53-1.19c-.06-.29-.26-.66-.38-.93-.05-.39.35-.9.54-1.21.05-.08.19-.33.31-.34.21.23.18.8.24 1.09.07.33.17.77-.04 1.07-.18.2-.44.79-.67.32zm19.07-4.93c-.02-.15-.06-.31-.18-.32-.14.04-.05.48-.06.58-.09.4-.22.93-.56 1.19-.08-.02-.1-.17-.11-.23-.05-.52.01-1.23 0-1.77 0-.05 0-.1.01-.16.25-1.46.11-2.45-1.62-2.59-.45.38-.16 1.06 0 1.52.1.25.2.85.22 1.13.17.92.18 2.18.34 3.11 0 .09.02.38-.07.44-.12.09-.62.56-.75.61l-.06-.03c-.04-.16.14-.38.18-.53l-.02-.38c-.05-.52-.75-.84-.71-1.37.14-.5.36-1.13.17-1.64-.2-.41-1.81-1.67-1.73-.59.15.6.72 1.15 1.12 1.58.17.35-.08.82-.07 1.18.14.31.26.75.38 1.07.15.28.17.69.1.99-.09.27-.38.75-.32 1.04.22.35.7.22 1 .05l.51-.49c.05-.05.3-.43.39-.4l.51 4.86c.06.35-.03.71.47.65.22-.08.45-.46.48-.67.19-1.2-.12-3.14-.13-3.51l-.19-2c-.04-.46.06-.61.4-.91.16-.24 1.05-1.02.96-1.35-.09-.2-.27-.43-.44-.63-.12-.1-.2-.26-.22-.43z"/></svg>