<svg data-name="Layer 1" xmlns="http://www.w3.org/2000/svg" width="576" height="576" viewBox="0 0 576 576"><path d="M0 0h576v576H0z"/><path d="M128.038 343.354h62.198v8.078h-62.198zm0-16.963h62.198v8.078h-62.198zm17.771-16.963h26.656v8.078h-26.656zm0-16.963h26.656v8.078h-26.656zm0-16.963h26.656v8.078h-26.656zm0-16.964h26.656v8.078h-26.656zm-17.771-16.962h62.198v8.078h-62.198zm0-16.963h62.198v8.078h-62.198zm71.084 118.741v8.077h65.429a33.782 33.782 0 0 0 21.961-8.077Zm0-16.964v8.078h94.805a33.72 33.72 0 0 0 3.366-8.077Zm17.771-16.962h26.656v8.078h-26.656zm70.218-16.963h-70.218v8.077h76.737a34.057 34.057 0 0 0-6.519-8.077Zm-70.218-16.963v8.077h70.51a34.047 34.047 0 0 0 6.518-8.077Zm80.4-25.849a33.704 33.704 0 0 0-3.366-8.077h-94.805v8.077h98.171Zm-10.781-16.963a33.783 33.783 0 0 0-21.961-8.078h-65.43v8.078h87.391Zm-69.619 25.848h26.656v8.078h-26.656zm51.697 8.078h28.899a33.93 33.93 0 0 0 .988-8.077h-29.888Zm0 42.812v8.077h29.887a33.93 33.93 0 0 0-.988-8.077Zm87.238-84.859h-50.082v8.077h52.884l-2.802-8.077zm-50.082 118.782h44.442v8.08h-44.442zm0-16.969h44.442v8.08h-44.442zm17.777-16.969h26.666v8.08h-26.666zm0-16.969h26.666v8.08h-26.666zm79.996 50.907h44.442v8.08h-44.442zm0-16.969h44.442v8.08h-44.442zm0-16.969h26.665v8.08h-26.665zm0-16.969h26.665v8.08h-26.665zm0-8.888h26.666v-8.08h-49.982l-2.804 8.08h23.403l2.717-7.696v7.696zm-30.014-8.08h-49.982v8.08h26.666v-7.696l2.716 7.696h23.404l-2.804-8.08zm56.68-16.969h-44.096l-2.803 8.08h46.899v-8.08zm-32.322-33.938-2.803 8.08h52.902v-8.08h-50.099zm-21.026 126.862 2.854-8.08h-5.675l2.821 8.08zm-5.959-16.968h11.951l2.853-8.081h-17.656l2.852 8.081zm-5.991-16.969h23.934l2.852-8.081h-29.638l2.852 8.081zm-5.99-16.969h35.914l2.853-8.081h-41.62l2.853 8.081zm-35.374-33.938h46.899l-2.804-8.08h-44.095v8.08zm65.65-16.969h58.789v-8.08h-55.986l-2.803 8.08zm-27.441-8.08h-55.986v8.08h58.789l-2.803-8.08z" style="fill:#fff"/></svg>