<svg xmlns="http://www.w3.org/2000/svg" height="755.907" width="755.904"><defs><clipPath id="a"><path d="M0 0h1190.55v841.89H0z"/></clipPath><clipPath id="b"><path d="M0 841.89h1190.551V0H0z"/></clipPath></defs><g clip-path="url(#a)" transform="matrix(1.33333 0 0 -1.33333 -415.748 939.213)"><g clip-path="url(#b)" fill="#30639c"><path d="M844.885 236.72c-30.928 10.123-83.787 20.339-122.046 20.339-20.049 0-39.933-1.629-58.718-4.758l16.82 8.196c.027.009.045.018.073.028l3.692 1.501a.332.332 0 0 0 .083.036l3.693 1.583c.018.009.045.017.063.026l3.666 1.648a.257.257 0 0 1 .082.036l3.612 1.701c.044.018.082.036.118.054l3.548 1.738c.063.036.126.072.19.1l3.43 1.764c.099.046.19.101.291.155l3.301 1.765c.137.081.274.154.411.228l3.146 1.764.556.319 2.973 1.737.719.427 2.775 1.692.901.555 2.564 1.628 1.102.718 2.337 1.529 1.355.919 2.047 1.392 1.664 1.182 1.701 1.21 2.083 1.519 1.256.927 3.311 2.521c.046.036.073.082.118.118 41.999-1.992 91.601-11.689 124.176-21.559l-26.071-9.141zM595.28 281.846c-29.819 0-58.599-5.521-83.35-15.973a226.22 226.22 0 0 0-51.75 28.826c8.687 4.249 17.848 8.06 27.39 11.417a272.226 272.226 0 0 0 11.888 3.893c2.674.818 5.376 1.602 8.096 2.338l2.52.672 2.429.629 1.655.418.009.009a319.095 319.095 0 0 0 26.735 5.458l2.119.328 3.948.582 5.358.718c4.92.627 9.878 1.147 14.864 1.546l.954.083 6.422.436 4.02.219a340.5 340.5 0 0 0 16.693.409l9.341-.128 3.349-.11c3.384-.118 6.758-.291 10.124-.508a337.99 337.99 0 0 0 14.608-1.291l2.521-.284 4.766-.59h.009l4.338-.601c.629-.081 1.247-.182 1.866-.281a316.767 316.767 0 0 0 25.315-4.821l3.011-.709 4.265-1.075h.01l.683-.173 7.695-2.11a286.805 286.805 0 0 0 12.298-3.848 92.426 92.426 0 0 0 2.31-.8h.01c.801-.264 1.592-.546 2.383-.827a260.326 260.326 0 0 0 20.148-8.161 210.073 210.073 0 0 0 6.04-2.838 5.464 5.464 0 0 0-.254-.181 225.84 225.84 0 0 0-51.495-28.645c-24.751 10.452-53.532 15.973-83.341 15.973m-127.568-24.787c-38.269 0-91.119-10.216-122.037-20.339l8.969 25.597-26.071 9.141c32.575 9.87 82.177 19.567 124.175 21.559.036-.036.073-.082.118-.118a144.59 144.59 0 0 1 3.338-2.538c.429-.328.856-.637 1.284-.946l2.083-1.529 1.719-1.219 1.701-1.2 2.101-1.429 1.346-.909 2.556-1.674.928-.609 2.93-1.838c.2-.127.39-.255.591-.372l3.193-1.93c.127-.072.245-.153.363-.227l3.42-1.973c.055-.036.118-.073.183-.109l3.62-2.011a230.92 230.92 0 0 1 26.389-12.289l15.445-7.732c-18.674 3.093-38.433 4.694-58.344 4.694m-23.96 53.087c-3.083 3.656-5.294 7.476-6.858 10.851a50.095 50.095 0 0 0-2.766 7.442c-.173.582-.301 1.1-.409 1.537 4.03.236 7.877.163 11.524-.228a53.834 53.834 0 0 0 4.512-.664 50.634 50.634 0 0 0 5.913-1.473c.474-.146.956-.3 1.419-.465 7.469-2.592 13.863-6.876 19.14-12.834.226-.255.444-.519.663-.774a47.275 47.275 0 0 0 3.02-3.984l-.763-.291c-.228-.091-.455-.173-.683-.273a19.04 19.04 0 0 1-.965-.373c-.227-.073-.455-.164-.682-.254l.009-.01a39.443 39.443 0 0 1-1.41-.545l-1.073-.428-1.674-.673-.327-.136-1.138-.483c-.172-.063-.336-.137-.508-.209-.309-.118-.61-.255-.918-.383a51.664 51.664 0 0 1-1.53-.654l-1.937-.847-3.074-1.381a249.6 249.6 0 0 1-7.55-3.612c.446.237.89.455 1.337.673-5.058 2.501-9.488 5.977-13.272 10.471m-11.426 24.715c-.381-.01-.79-.11-1.191-.264l-.272-.119a3.77 3.77 0 0 1-.901-.572l-.155-.101-.109-.136-.218-.164-.127-.246c-.2-.235-.373-.555-.52-.936-.062-.119-.09-.246-.127-.365a6.153 6.153 0 0 1-.053-.236c-8.515 5.804-14.519 13.545-17.939 23.178-.155.436-.301.864-.436 1.3-.146.428-.273.865-.401 1.291l-.236.829-.183.673a130.337 130.337 0 0 1 19.768 10.251h.009a52.812 52.812 0 0 0 3.865-3.192l.646-.592-.655.618c.445-.399.892-.809 1.318-1.227.038-.037.074-.072.11-.118-.036.027-.072.063-.11.1.065-.054.12-.119.183-.181a39.87 39.87 0 0 0 1.073-1.065h.01l.809-.865.8-.891c.264-.291.519-.591.764-.891v-.009c.073-.092.155-.174.219-.264.009-.009.009-.019.018-.019 0-.008.009-.008.009-.018l.036-.036c.164-.183.319-.382.464-.573v-.009c.073-.091.147-.173.21-.265a.574.574 0 0 0 .072-.089l.019-.02c.145-.182.291-.363.427-.555a32.33 32.33 0 0 0 1.055-1.445 46.916 46.916 0 0 0 1.746-2.656v-.019a5.707 5.707 0 0 1-.163-.5 1.126 1.126 0 0 1-.073-.337l-.036-.2a4.56 4.56 0 0 1 .009-.927v-.019c.027-.392.082-1.046.182-1.91.382-3.275 1.492-9.606 4.649-16.537-4.34.545-9.079.692-14.254.336-.109-.008-.21 0-.311-.008m-27.27 28.689c-5.057 9.998-11.151 23.553-14.964 34.545 11.198 2.511 26.289 8.896 39.615 16.828 8.741 5.213 23.368 15.091 31.837 27.181 2.302-7.659 5.504-16.838 8.979-24.152l-.482-.691-2.938-4.057a181.192 181.192 0 0 0-9.114-11.326 122.5 122.5 0 0 0-2.858-3.166c-1.3-1.428-2.628-2.82-3.983-4.184a145.801 145.801 0 0 0-15.91-13.984 126.456 126.456 0 0 0-5.204-3.73 117.72 117.72 0 0 0-6.185-3.975 123.001 123.001 0 0 0-15.591-7.978 105.993 105.993 0 0 0-3.202-1.311m-23.731 69.98a162.123 162.123 0 0 1 22.242-1.729c-.119-5.986.799-12.671 3.729-19.448-.01-.136-.018-.264-.036-.401a43.85 43.85 0 0 0-.255-2.009c-6.677-2.848-13.071-5.003-18.438-6.176-6.114 9.232-8.542 19.183-7.242 29.763m27.154-3.839a52.708 52.708 0 0 0-.009 2.137c.636 0 1.272.019 1.919.046 6.568.182 13.172.746 19.794 1.683a44.84 44.84 0 0 0 4.047-8.824 150.396 150.396 0 0 0-7.513-4.766 165.013 165.013 0 0 0-14.055-7.477l-.281-.137.055.609c-2.475 5.176-3.794 10.77-3.957 16.729m41.404 7.746c-3.211-3.211-7.013-6.431-11.297-9.596a40.43 40.43 0 0 0-2.63 6.649 182.28 182.28 0 0 1 13.927 2.947m-70.625 21.431-.109 6.395c2.147-.082 4.295-.146 6.45-.146 15.572 0 31.456 2.111 47.201 6.268 7.468 1.974 14.728 4.476 23.05 7.96a149.302 149.302 0 0 1 4.321-32.839l-1.01-.337c-17.81-5.638-35.931-8.505-53.86-8.505-8.359 0-16.627.638-24.623 1.893a230.036 230.036 0 0 0-1.42 19.311m4.53 51.595c30.592-16.984 48.684-22.796 65.84-27.326-6.458-2.556-12.325-4.493-18.329-6.076-17.438-4.603-35.058-6.613-52.168-5.94a229.773 229.773 0 0 0 4.657 39.342m6.304 25.724c5.104 9.324 12.408 15.037 15.4 17.12 7.815-17.047 8.079-32.847.791-46.937a18.93 18.93 0 0 0-.426-.8c-6.331 3.074-13.299 6.703-21.059 11.06.155 6.841 1.91 13.372 5.294 19.557m21.141 41.116c6.249 8.605 14.217 13.335 17.455 15.018 5.185-16.701 4.011-31.482-3.492-43.99a65.233 65.233 0 0 1-9.679-9.105c-1.046 5.293-2.875 10.952-5.695 16.973-.044.083-.081.201-.127.283-.155.363-.4.727-.709 1.064l-.218.218a4.563 4.563 0 0 1-.873.646l-.164.118-.173.046-.236.146-.284.036c-.308.099-.681.146-1.109.154-.127 0-.264-.008-.391-.018a5.204 5.204 0 0 1-.773-.136c-.118-.028-.228-.073-.346-.109l-.181-.073a3.627 3.627 0 0 1-.837-.483c.982 6.95 3.584 13.372 7.832 19.212m33.711 38.441c8.677 6.159 17.719 8.096 21.331 8.669-.273-11.971-3.093-22.131-8.406-30.391a3.15 3.15 0 0 1-.599-.182h-.019c-2.201-.727-11.77-4.175-20.894-12.244-.564 4.103-1.537 8.442-3.021 13.036a1.89 1.89 0 0 1-.081.31 3.98 3.98 0 0 1-.556 1.136l-.19.255a4.323 4.323 0 0 1-.81.746l-.127.137-.155.071-.227.174-.263.072a3.56 3.56 0 0 1-.601.201c3.148 7.295 8.023 13.316 14.618 18.01m32.956 22.395c11.161 4.113 21.486 3.558 25.543 3.111-1.874-6.331-4.285-11.997-7.223-17-9.47-3.503-19.366-10.298-26.625-23.106a49.32 49.32 0 0 0-2.856-1.027c2.774 6.84 4.547 15.073 4.684 24.997 0 .108.018.209.018.318.018.391-.045.837-.172 1.255l-.091.301c-.128.336-.31.663-.519.973l-.091.164-.136.118-.154.236-.219.164a4.782 4.782 0 0 1-.946.619c-.11.063-.228.109-.365.154a4.042 4.042 0 0 1-.754.219c-.128.018-.237.036-.346.045l-.218.028a4.88 4.88 0 0 1-.955-.073l-.019-.009c-.681-.083-2.1-.301-4.029-.738 4.457 4.003 9.614 7.096 15.473 9.251m24.214 20.495c4.139-4.476 11.671-10.088 21.377-15.846-5.176-5.048-10.96-8.787-17.329-11.188a92.752 92.752 0 0 1 3.038 8.895c.028.119.082.219.11.337a4.62 4.62 0 0 1 .181 1.392l-.008.354c-.046.41-.136.819-.283 1.219l-.054.192-.082.181-.11.292-.199.236c-.2.309-.482.628-.828.937-.109.109-.228.191-.346.282-.21.145-.482.31-.755.455-.118.055-.245.118-.364.154l-.218.083a4.183 4.183 0 0 1-1.055.209l-.019.008c-2.21.301-11.506 1.302-22.586-1.354 5.631 6.267 12.154 10.669 19.53 13.162m52.642 17.565a2.396 2.396 0 0 1-.037-.728c.291-3.366 4.52-18.565 11.371-32.728 3.392-7.023 6.903-12.78 10.515-17.266-30.136 9.206-58.917 25.37-69.397 35.813 10.925 6.613 32.665 12.944 47.548 14.909m40.887 5.412c17.52 0 31.028-3.001 34.949-6.058-3.001-10.569-18.711-56.124-34.211-56.124-18.794 0-33.693 45.545-35.723 55.214 5.458 4.258 18.858 6.968 34.985 6.968m35.887-21.321a243.33 243.33 0 0 1 3.71 10.897l.983 3.229.282 1.046c14.445-2.529 32.965-8.232 42.771-14.163-6.022-5.976-18.174-13.909-32.246-20.949a242.56 242.56 0 0 0-31.637-13.135c6.476 9.197 11.971 21.713 16.137 33.075m52.84-1.656c7.377-2.493 13.909-6.895 19.539-13.162-11.088 2.656-20.376 1.655-22.595 1.354l-.009-.008a4.105 4.105 0 0 1-1.056-.209l-.227-.083c-.118-.036-.236-.099-.354-.154a7.936 7.936 0 0 1-.765-.455c-.11-.091-.227-.173-.337-.282a4.514 4.514 0 0 1-.827-.937l-.209-.236-.101-.292-.081-.181-.064-.192a5.18 5.18 0 0 1-.272-1.219l-.019-.354a4.652 4.652 0 0 1 .182-1.392c.026-.118.082-.218.118-.337a88.79 88.79 0 0 1 3.038-8.895 38.02 38.02 0 0 0-1.873.745c-4.94 2.102-9.497 5.04-13.691 8.787a73.56 73.56 0 0 0-1.764 1.656c9.705 5.758 17.228 11.37 21.367 15.846m24.214-20.495c5.859-2.155 11.026-5.248 15.483-9.251-1.938.437-3.357.655-4.03.738l-.027.009c-.31.054-.637.082-.946.073l-.228-.028c-.109-.009-.219-.027-.346-.045a4.212 4.212 0 0 1-.746-.219 2.39 2.39 0 0 1-.373-.154 4.888 4.888 0 0 1-.935-.619l-.228-.164-.155-.236-.128-.118-.091-.164a5.406 5.406 0 0 1-.527-.973l-.082-.301a3.595 3.595 0 0 1-.173-1.255 3.37 3.37 0 0 1 .019-.318c.126-9.924 1.901-18.157 4.684-24.997-.946.309-1.901.645-2.865 1.027-7.25 12.808-17.156 19.603-26.616 23.106-2.938 5.003-5.349 10.669-7.223 17 4.049.447 14.381 1.002 25.533-3.111m32.957-22.395c6.595-4.694 11.471-10.715 14.618-18.01a3.63 3.63 0 0 1-.591-.201l-.264-.072-.228-.174-.164-.071-.127-.137a4.58 4.58 0 0 1-.809-.746l-.183-.255a4.062 4.062 0 0 1-.563-1.136l-.082-.31c-1.474-4.594-2.455-8.933-3.02-13.036-9.115 8.069-18.683 11.517-20.894 12.244h-.009a3.65 3.65 0 0 1-.601.182c-5.312 8.26-8.141 18.42-8.415 30.391 3.612-.573 12.654-2.51 21.332-8.669m33.72-38.441c4.239-5.84 6.85-12.262 7.823-19.212a3.57 3.57 0 0 1-.828.483l-.191.073c-.109.036-.217.081-.336.109a5.402 5.402 0 0 1-.774.136c-.127.01-.272.018-.4.018-.418-.008-.791-.055-1.101-.154l-.281-.036-.246-.146-.164-.046-.163-.118a4.87 4.87 0 0 1-.883-.646l-.218-.218a4.268 4.268 0 0 1-.71-1.064c-.045-.082-.072-.2-.118-.283-2.829-6.021-4.648-11.68-5.704-16.973a64.41 64.41 0 0 1-9.678 9.105c-7.496 12.508-8.677 27.289-3.493 43.99 3.248-1.683 11.216-6.413 17.465-15.018m21.131-41.116c3.384-6.185 5.139-12.716 5.304-19.557-7.769-4.357-14.727-7.986-21.058-11.06l-.438.8c-7.286 14.09-7.012 29.89.792 46.937 2.993-2.083 10.297-7.796 15.4-17.12m10.961-65.066c-17.11-.673-34.721 1.337-52.167 5.94-5.995 1.583-11.863 3.52-18.321 6.076 17.147 4.53 35.249 10.342 65.832 27.326a227.894 227.894 0 0 0 4.656-39.342m-.127-12.262a221.952 221.952 0 0 0-1.419-19.302c-7.986-1.255-16.265-1.893-24.624-1.893-17.929 0-36.049 2.867-53.842 8.505l-1.027.337c2.665 10.725 4.101 21.741 4.329 32.839 8.314-3.484 15.573-5.986 23.041-7.96 15.747-4.157 31.629-6.268 47.202-6.268 2.156 0 4.311.064 6.449.146l-.109-6.404m-9.296-55.087c-5.367 1.173-11.753 3.339-18.43 6.184l-.255 2.002-.027.428c2.92 6.777 3.839 13.444 3.721 19.42 7.531.083 14.991.656 22.249 1.72 1.292-10.57-1.146-20.522-7.258-29.754m-45.628 20.975a45.105 45.105 0 0 0 4.038 8.833c7.242-1.019 14.473-1.619 21.695-1.756a40.1 40.1 0 0 0 0-2.138c-.163-6.139-1.574-11.879-4.193-17.191a166.824 166.824 0 0 0-14.053 7.468 148.995 148.995 0 0 0-7.487 4.784m-15.7 12.69a183.174 183.174 0 0 1 13.926-2.947 40.297 40.297 0 0 0-2.62-6.649c-4.293 3.165-8.095 6.385-11.306 9.596m47.646-68.174-2.82-5.713a105.94 105.94 0 0 0-3.201 1.311 123.148 123.148 0 0 0-15.582 7.968 116.926 116.926 0 0 0-5.195 3.311c-.336.21-.672.437-1.001.674a119.958 119.958 0 0 0-5.193 3.73c-5.513 4.158-10.824 8.825-15.919 13.984a143.366 143.366 0 0 0-3.974 4.184 120.653 120.653 0 0 0-2.857 3.166 189.486 189.486 0 0 0-5.485 6.588l-3.629 4.738-2.939 4.057-.482.691c3.466 7.314 6.667 16.493 8.977 24.152 8.47-12.09 23.097-21.968 31.838-27.181 13.318-7.932 28.409-14.317 39.606-16.828-3.129-9.018-7.786-19.752-12.144-28.832m-8.477-14.363c-3.42-9.633-9.425-17.374-17.929-23.178-.019.082-.046.164-.064.236-.036.119-.064.246-.119.365-.144.381-.318.701-.517.936l-.128.246-.219.164-.108.136-.155.101a4.024 4.024 0 0 1-.901.572l-.282.119c-.4.154-.81.254-1.183.264-.109.008-.208 0-.308.008-5.177.356-9.916.209-14.254-.345 3.156 6.94 4.266 13.289 4.648 16.564.109.856.154 1.5.182 1.892l-.01.019a3.51 3.51 0 0 1 .01.927l-.037.2a1.47 1.47 0 0 1-.063.337 4.84 4.84 0 0 1-.174.509 49.53 49.53 0 0 0 9.224 11.089v.009a48.894 48.894 0 0 0 3.866 3.174 130.37 130.37 0 0 1 19.776-10.251 47.824 47.824 0 0 0-1.255-4.093m-83.324-37.286c9.061 3.883 15.392 9.333 19.813 15.2 3.328 4.42 5.576 9.078 7.076 13.499l.464 1.428c4.958 2.165 10.516 3.638 16.629 4.403v.009l1.109.128c.619.072 1.246.135 1.874.189-.136-1.582-.491-4.257-1.319-7.531-.873-3.374-2.265-7.386-4.494-11.471a49.1 49.1 0 0 1-2.438-.627c-14.163-3.921-23.086-12.472-28.544-20.412a276.638 276.638 0 0 1-10.888 3.502c.119.572.355 1.137.718 1.683m-17.473 20.102c-.764-.5-1.556-.974-2.375-1.429-5.33-.645-10.069-1.845-14.273-3.437 7.378 9.905 9.489 20.357 9.862 22.577v.019c.073.299.118.609.109.918l-.018.2a1.96 1.96 0 0 1-.028.338 3.872 3.872 0 0 1-.181.745c-.046.118-.073.245-.137.364a3.669 3.669 0 0 1-.564.918l-.136.228-.219.163-.108.129-.174.089a3.71 3.71 0 0 1-.918.537l-.274.11c-.353.127-.709.19-1.046.199 5.313 7.514 12.917 13.255 22.713 17.167v.009a74.737 74.737 0 0 0 5.286 1.865h.009l2.029.602c.237-2.467.492-7.653-.682-13.866a46.644 46.644 0 0 0-1.438-5.712 38.795 38.795 0 0 0-.855-2.448 46.98 46.98 0 0 0-1.882-4.229v-.009c-3.366-6.568-8.278-11.926-14.7-16.047m-21.559-12.561h.009c5.668 3.201 12.18 5.266 19.503 6.185l1.174.137a70.39 70.39 0 0 0 4.02.308c.955.046 1.919.082 2.893.091-.383-2.274-1.357-6.804-3.685-12.007h-.008c-.064.019-.12.037-.182.045l-5.867 1.392a319.88 319.88 0 0 1-18.284 3.602l.427.247m-36.704 6.067c.564 1 1.192 2.019 1.874 3.056a53.643 53.643 0 0 0 2.746 3.749c.065.08.128.163.201.235a44.37 44.37 0 0 0 3.083 3.393c4.103 4.103 8.87 7.294 14.264 9.569 5.103 2.156 10.779 3.494 17.001 3.994 1.811.154 3.666.228 5.576.236.555.01 1.128 0 1.693-.008-.683-3.403-2.858-11.89-8.979-19.94-.072-.1-.145-.191-.219-.291a40.82 40.82 0 0 0-3.119-3.602 39.75 39.75 0 0 0-6.368-5.376l-9.196 1.182a334.054 334.054 0 0 1-19.676 1.693 41.5 41.5 0 0 0 1.119 2.11m-45.4 6.749a53.84 53.84 0 0 1-2.92 3.821l.128.009c8.986 19.429 26.979 183.616 26.979 183.616s16.156-151.123 25.398-180.551a49.13 49.13 0 0 1-3.894-4.43h-.009c-11.152 4.758-26.999 7.132-45.682-2.465m-1.628-6.576a67.552 67.552 0 0 0 4.284 2.365c12.772 6.468 25.415 7.649 37.678 3.492a45.603 45.603 0 0 0 2.437-.909 58.03 58.03 0 0 1-3.211-5.685c-2.601-.292-5.158-.637-7.332-1.045l-8.259.098c-6.34 0-12.671-.172-18.966-.518l-5.285-.327-3.021-.218c-.399.39-.745.745-1.036 1.054a72.18 72.18 0 0 0 2.711 1.693m-72.871 22.368v.009a46.435 46.435 0 0 0-1.884 4.229 56.83 56.83 0 0 0-.855 2.438 48.572 48.572 0 0 0-1.437 5.722c-1.164 6.213-.919 11.399-.673 13.866l2.028-.602a71.81 71.81 0 0 0 5.294-1.865c9.797-3.921 17.402-9.671 22.714-17.176a3.38 3.38 0 0 1-1.046-.199l-.272-.11a3.6 3.6 0 0 1-.929-.537l-.163-.089-.109-.129-.228-.163-.127-.228c-.219-.236-.409-.555-.574-.918-.054-.119-.09-.246-.127-.364a4.023 4.023 0 0 1-.182-.745 1.396 1.396 0 0 1-.037-.338l-.017-.2c0-.309.046-.619.118-.918v-.019c.373-2.22 2.483-12.672 9.86-22.577-4.211 1.6-8.95 2.792-14.281 3.437a40.86 40.86 0 0 0-2.365 1.429c-6.431 4.121-11.334 9.479-14.708 16.047m-28.946 17.328-.191-.027a3.783 3.783 0 0 1-1.027-.301l-.183-.054-.136-.091-.255-.109-.181-.19a3.635 3.635 0 0 1-.774-.765 2.37 2.37 0 0 1-.209-.31 5.82 5.82 0 0 1-.354-.682c-.056-.1-.082-.209-.109-.309l-.065-.201a3.463 3.463 0 0 1-.108-.918l-.01-.018c-.108-1.51-.345-6.768.946-13.481-5.166 1.883-11.115 3.22-17.946 3.802a55.97 55.97 0 0 1-9.133 11.49 45.157 45.157 0 0 0-1.665 5.221c6.649 4.822 13.025 10.327 19.111 16.504a53.46 53.46 0 0 0 4.649-5.012c1.51-4.832 3.92-9.8 7.64-14.549m24.642 13.93c-.09.035-.172.063-.264.082a3.717 3.717 0 0 1-1.21.145l-.298-.018a3.772 3.772 0 0 1-1.039-.255l-.181-.036-.145-.091-.256-.092-.199-.181c-.273-.164-.537-.419-.802-.728a2.01 2.01 0 0 1-.236-.301 4.51 4.51 0 0 1-.382-.654c-.063-.101-.1-.2-.136-.31l-.073-.19a3.944 3.944 0 0 1-.155-.92l-.009-.009c-.218-1.764-.873-8.688.902-17.213-3.449 1.874-7.324 3.531-11.68 4.885a35.24 35.24 0 0 0-1.474 1.438c-5.377 5.486-8.969 11.955-10.743 19.342a46.6 46.6 0 0 0-.491 2.311 45.163 45.163 0 0 0-.71 6.387 194.606 194.606 0 0 1 9.261 11.589c10.124-6.576 16.927-15.019 20.32-25.181m231.059 13.601a46.884 46.884 0 0 0-.719-6.396 48.504 48.504 0 0 0-.491-2.329c-1.784-7.378-5.368-13.829-10.725-19.306a39.543 39.543 0 0 0-1.491-1.456c-4.358-1.354-8.234-3.001-11.671-4.876 1.772 8.524 1.118 15.44.899 17.204l-.008.009a4.413 4.413 0 0 1-.155.92l-.082.19a1.28 1.28 0 0 1-.127.31 5.254 5.254 0 0 1-.382.654c-.072.11-.145.21-.246.301-.255.309-.518.564-.799.728l-.192.181-.255.092-.145.091-.192.036a3.615 3.615 0 0 1-1.027.255l-.301.018a3.79 3.79 0 0 1-1.219-.145 1.594 1.594 0 0 1-.254-.082c3.384 10.172 10.197 18.605 20.322 25.191a179.333 179.333 0 0 1 9.26-11.581zm-1.347-31.506v.018c0 .309-.036.619-.118.918l-.063.201c-.019.1-.055.209-.1.309-.11.246-.237.492-.355.682a1.73 1.73 0 0 1-.219.31 3.61 3.61 0 0 1-.773.765l-.183.19-.245.109-.145.091-.183.054a3.653 3.653 0 0 1-1.027.301l-.182.027a45.278 45.278 0 0 1 7.65 14.557v.01a54.406 54.406 0 0 0 4.639 5.003c6.068-6.186 12.444-11.691 19.112-16.513a46.05 46.05 0 0 0-1.664-5.213 55.17 55.17 0 0 1-9.142-11.507c-6.832-.573-12.78-1.91-17.948-3.802 1.292 6.722 1.055 11.98.946 13.49m-60.855 259.999-.018-.009a3.08 3.08 0 0 1-.983-.228l-.191-.081a1.242 1.242 0 0 1-.336-.146 5.967 5.967 0 0 1-.682-.446 2.822 2.822 0 0 1-.309-.264 3.518 3.518 0 0 1-.728-.9l-.191-.218-.091-.283-.072-.154-.047-.191a5.038 5.038 0 0 1-.228-1.138v-.317c.011-.455.074-.901.21-1.292.018-.101.074-.2.11-.309 1.273-3.966 2.728-7.568 4.33-10.861-11.972 1.355-22.523 6.94-31.501 16.655 9.015 3.62 17.511 7.65 25.069 11.734a43.052 43.052 0 0 0 5.922-1.882c4.611-4.039 9.378-6.95 14.09-9.033.101-.091.191-.182.291-.273-7.377.71-13.035-.091-14.645-.364m31.356-19.249-.009-.008c-.337.046-.682.072-1.019.046l-.218-.028c-.118-.01-.236-.036-.364-.064a5.533 5.533 0 0 1-.783-.255c-.136-.054-.255-.099-.373-.163a4.336 4.336 0 0 1-.955-.691l-.236-.182-.164-.246-.127-.118-.082-.191a3.936 3.936 0 0 1-.519-1.037l-.091-.309a4.193 4.193 0 0 1-.136-1.328l.027-.328c.236-5.294.91-10.106 1.929-14.499-12.308 6.339-21.204 17.582-26.48 33.538 3.747.537 13.299 1.346 23.751-2.129 9.096-3.038 16.492-8.496 22.15-16.291-7.869 3.274-14.519 4.102-16.301 4.283m28.972-34.547c-3.502 1.673-6.204 2.547-7.223 2.847l-.027-.009a3.89 3.89 0 0 1-.928.228l-.209.008c-.118.009-.236.019-.346.009a4.89 4.89 0 0 1-.792-.099c-.117-.028-.255-.046-.382-.092a3.433 3.433 0 0 1-1.018-.481l-.255-.1-.191-.21-.146-.1-.118-.154a4.31 4.31 0 0 1-.663-.873l-.147-.283a3.944 3.944 0 0 1-.363-1.21c-.019-.109-.019-.218-.036-.318a81.15 81.15 0 0 1-.774-7.923c-9.087 9.306-14.117 21.995-14.981 37.841 3.784-.473 13.335-2.193 22.613-8.368a46.463 46.463 0 0 0 7.014-5.713c-.847-5.376-1.155-10.37-1.028-15m11.835-14.29c6.048-5.95 9.987-13.063 11.834-21.267l-.61-2.675c-2.738 2.82-4.994 4.584-5.849 5.221l-.009.009a3.34 3.34 0 0 1-.81.536l-.19.083c-.11.055-.21.099-.328.127-.255.091-.536.146-.764.191a3.921 3.921 0 0 1-1.511-.045l-.281-.028-.255-.118-.163-.045-.165-.101a5.23 5.23 0 0 1-.937-.591l-.226-.209a3.874 3.874 0 0 1-.756-1.019c-.063-.082-.1-.191-.145-.273-2.484-4.539-4.349-8.896-5.695-13.062l-.036.036c-11.033 11.398-15.354 26.598-12.808 45.173 3.466-1.128 12.108-4.475 19.704-11.943m19.774-6.423a4.12 4.12 0 0 1-1.2-.227l-.3-.055-.255-.163-.173-.073-.173-.137a5.379 5.379 0 0 1-.946-.745l-.21-.264a4.458 4.458 0 0 1-.708-1.183c-.064-.109-.082-.218-.128-.327a97.01 97.01 0 0 1-1.174-3.057c-4.756 11.781-13.261 19.266-20.585 23.797-.436 5.657-.135 11.67.918 18.038 3.748-1.347 13.064-5.267 21.096-13.645.027-.028.045-.055.072-.081-.217-8.461 1.384-15.728 3.931-21.868-.056-.01-.109 0-.165-.01m1.384-57.943c-7.778-2.729-14.7-4.649-21.559-6.432l-.301.646c-6.394 14.509-5.166 30.264 3.684 46.801 2.848-2.265 9.779-8.414 14.318-18.038 3.448-7.359 4.731-15.037 3.858-22.977m21.367 8.732c-5.85-2.71-11.143-4.93-16.074-6.804.819 14.309-4.822 25.497-10.524 33.011.783 5.467 2.328 11.116 4.639 16.928 3.048-1.892 10.051-6.813 15.864-15a51.75 51.75 0 0 1 6.095-28.135M493.401 602.4c-.865-15.846-5.905-28.535-14.982-37.841a84.038 84.038 0 0 1-.774 7.923c-.018.1-.028.209-.045.318a3.84 3.84 0 0 1-.355 1.21l-.154.283c-.174.309-.4.609-.665.873l-.118.154-.146.1-.181.21-.255.1a3.451 3.451 0 0 1-1.019.481c-.136.046-.263.064-.391.092a4.745 4.745 0 0 1-.783.099c-.108.01-.236 0-.344-.009l-.219-.008a4.01 4.01 0 0 1-.929-.228l-.026.009c-1.01-.3-3.711-1.174-7.223-2.847.137 4.63-.174 9.624-1.019 15a45.943 45.943 0 0 0 7.005 5.713c9.287 6.175 18.83 7.895 22.623 8.368m29.963 19.603c-5.267-15.956-14.164-27.199-26.48-33.538 1.02 4.393 1.701 9.205 1.938 14.499 0 .109.017.218.017.328.028.418-.017.873-.127 1.328l-.091.309a4.57 4.57 0 0 1-.518 1.037l-.081.191-.128.118-.164.246-.237.182c-.246.245-.572.473-.955.691-.128.064-.246.109-.373.163a5.65 5.65 0 0 1-.791.255 2.44 2.44 0 0 1-.354.064l-.219.028c-.346.026-.682 0-1.019-.046l-.008.008c-1.793-.181-8.443-1.009-16.311-4.283 5.658 7.795 13.054 13.253 22.151 16.291 10.46 3.475 20.011 2.666 23.75 2.129m5.403 2.192-.036.191-.082.154-.092.283-.181.218c-.174.301-.419.61-.728.9a3.94 3.94 0 0 1-.319.264 4.59 4.59 0 0 1-.681.446c-.11.064-.219.118-.337.146l-.192.081c-.317.128-.645.21-.973.228l-.027.009c-1.601.273-7.258 1.074-14.645.364a8.62 8.62 0 0 1 .291.273c4.722 2.083 9.487 4.994 14.091 9.033a43.202 43.202 0 0 0 5.93 1.882c7.56-4.084 16.056-8.114 25.071-11.734-8.979-9.715-19.532-15.3-31.501-16.655a81.343 81.343 0 0 1 4.32 10.861c.037.109.091.208.118.309.127.391.2.837.209 1.292v.317a4.946 4.946 0 0 1-.236 1.138m-74.636-85.37c-.045.082-.091.191-.145.273a3.956 3.956 0 0 1-.764 1.019l-.219.209a5.603 5.603 0 0 1-.946.591l-.154.101-.174.045-.245.118-.283.028a3.93 3.93 0 0 1-1.118.091 5.145 5.145 0 0 1-.39-.046c-.228-.045-.51-.1-.766-.191a1.343 1.343 0 0 1-.335-.127l-.183-.083a3.356 3.356 0 0 1-.809-.536l-.019-.009c-.855-.637-3.101-2.401-5.84-5.221a76.2 76.2 0 0 1-.618 2.675c1.847 8.195 5.785 15.317 11.844 21.267 7.595 7.468 16.228 10.815 19.693 11.943 2.556-18.575-1.764-33.775-12.798-45.173a.065.065 0 0 1-.037-.036c-1.355 4.166-3.22 8.523-5.694 13.062m-18.466-21.185c4.531 9.624 11.462 15.773 14.318 18.038 8.851-16.537 10.079-32.292 3.674-46.801-.09-.219-.199-.427-.29-.646-6.858 1.783-13.79 3.703-21.567 6.432-.864 7.94.418 15.618 3.865 22.977m-2.637 34.976c2.538 6.14 4.138 13.407 3.929 21.868.018.026.046.053.074.081 8.022 8.378 17.345 12.298 21.093 13.645 1.056-6.368 1.356-12.381.909-18.038-7.313-4.531-15.827-12.016-20.575-23.797l-1.182 3.057c-.046.109-.065.218-.127.327-.156.409-.402.81-.71 1.183l-.21.264a4.712 4.712 0 0 1-.947.745l-.163.137-.172.073-.264.163-.3.055a4.06 4.06 0 0 1-1.201.227c-.054.01-.101 0-.154.01m-6.514-56.025c-4.939 1.874-10.233 4.094-16.073 6.804 3.93 7.35 6.822 16.755 6.094 28.135 5.804 8.187 12.818 13.108 15.856 15 2.319-5.812 3.856-11.461 4.648-16.928-5.704-7.514-11.342-18.702-10.525-33.011m33.03-9.943-.737.191c-.155.037-.31.073-.464.118 3.82 8.688 6.048 19.886 3.021 33.248 8.204 7.578 16.053 19.376 17.036 37.086 6.595 5.567 12.762 13.426 16.584 24.496 9.222 3.776 18.956 10.671 26.416 23.06 12.061.564 26.661 5.166 39.686 20.049 7.806-2.93 15.919-5.513 24.07-7.532 3.665-2.448 7.404-3.675 11.225-3.675 4.302 0 8.395 2.119 12.234 5.631 5.686 1.637 11.307 3.529 16.784 5.576 13.035-14.883 27.626-19.485 39.687-20.049 7.468-12.389 17.192-19.284 26.425-23.06 3.82-11.07 9.978-18.929 16.583-24.496.982-17.71 8.832-29.508 17.037-37.086-3.029-13.362-.809-24.56 3.011-33.248-.155-.045-.31-.081-.464-.118l-.728-.191a2.93 2.93 0 0 1-2.201-2.601 2.72 2.72 0 0 1 .11-1.055 4.503 4.503 0 0 1-.046-.637 143.29 143.29 0 0 0-3.612-31.964c-.018-.055-.045-.109-.063-.165-2.429-9.251-6.831-22.495-11.19-31.218a2.96 2.96 0 0 1 .21-2.975l1.255-1.8c-13.962-9.169-20.366-20.624-23.049-30.959-15.246-5.341-24.352-14.03-29.754-22.926-8.378-.327-15.437-1.991-21.386-4.484-6.613 18.994-17.092 55.93-23.097 112.164 0 0-5.53 49.757-4.147 61.428h-.036c.008 1.719-.065 9.005-2.092 9.005h-1.119c18.065 6.005 18.584 22.477 18.592 22.678l.046 2.538h-30.09c.229.087 16.505 6.451-.01 37.735-16.506-31.284-.239-37.648-.011-37.735h-30.09l.046-2.538c0-.201.528-16.673 18.593-22.678h-1.11c-2.038 0-2.119-9.005-2.119-9.005.009-.118.028-.236.028-.355v-.009h.008c1.228-12.289-4.203-61.064-4.203-61.064-6.175-57.88-17.091-95.318-23.65-113.784-6.622 3.374-14.799 5.713-24.878 6.104-5.413 8.906-14.518 17.585-29.755 22.926-2.683 10.335-9.087 21.79-23.041 30.959l1.247 1.8c.6.882.682 2.019.199 2.975-4.357 8.723-8.759 21.967-11.188 31.218-.01.056-.036.11-.055.165a142.773 142.773 0 0 0-3.62 31.964c0 .227-.018.428-.045.637a2.93 2.93 0 0 1 .118 1.055 2.938 2.938 0 0 1-2.201 2.601M447.078 352.47a59.76 59.76 0 0 0 1.866-.189l1.109-.128c3.698-.461 7.182-1.188 10.456-2.162a53.918 53.918 0 0 0 6.175-2.242l.464-1.436c1.501-4.421 3.748-9.079 7.077-13.499 4.421-5.867 10.762-11.317 19.821-15.2.045-.07.075-.143.117-.212a5.103 5.103 0 0 0 .319-.619 4.67 4.67 0 0 0 .192-.534c.015-.047.026-.094.039-.141.05-.193.084-.386.109-.578l.017-.159c.023-.239.019-.478.006-.715a299.34 299.34 0 0 1-10.092-3.327c-.012-.008-.02-.016-.031-.025l-.021.008-.155.155c-.015.016-.03.027-.045.043-5.051 7.66-13.299 16.074-26.366 20.476-.039.013-.075.028-.115.042-.078.025-.161.046-.239.072-.802.265-1.619.517-2.459.75v.002a63.91 63.91 0 0 1-2.431.616c-2.237 4.076-3.62 8.078-4.485 11.452v.009c-.845 3.275-1.191 5.959-1.328 7.541m53.363-20.439v-.028c.209-1.491 1.073-6.704 3.756-13.016-1.009.309-2.183.774-3.547 1.41a54.76 54.76 0 0 0-4.03 1.501 48.524 48.524 0 0 0-6.704 3.366c-5.494 3.31-9.942 7.559-13.336 12.744a43.405 43.405 0 0 0-3.31 6.095c-.028.071-.064.136-.091.208a45.666 45.666 0 0 0-1.511 3.939 42.56 42.56 0 0 0-.899 3.03c-1.701 6.512-1.72 12.061-1.602 14.663l1.201-.284a73.92 73.92 0 0 0 3.484-.935 53.464 53.464 0 0 0 2.774-.883c4.967-1.691 9.415-3.866 13.335-6.521a44.955 44.955 0 0 1 1.438-3.576c2.611-5.858 6.668-11.797 12.908-16.882a4.322 4.322 0 0 1-1.083-.182l-.281-.091a4.35 4.35 0 0 1-.929-.518l-.163-.083-.118-.127-.228-.155-.145-.227a3.458 3.458 0 0 1-.592-.901 4.54 4.54 0 0 1-.146-.355 6.28 6.28 0 0 1-.2-.736 2.052 2.052 0 0 1-.045-.328l-.009-.2a3.49 3.49 0 0 1 .073-.928m5.04-.155a73.37 73.37 0 0 0 2.883-.091 69.893 69.893 0 0 0 4.01-.308l1.184-.137c7.322-.919 13.836-2.984 19.502-6.185h.01c.455-.255.9-.519 1.345-.792a316.75 316.75 0 0 1-19.138-3.994l-5.685-1.427c-.127.255-.245.508-.354.763v.009c-2.384 5.268-3.375 9.87-3.757 12.162m56.069-1.482c-.054-.32-.045-.683.009-1.082a4.954 4.954 0 0 1 .328-1.101c.009-.036.027-.063.036-.092a337.976 337.976 0 0 1-19.166-2.373 39.939 39.939 0 0 0-7.095 5.858 43.164 43.164 0 0 0-3.13 3.611c-.062.09-.135.173-.2.264v.01c-6.121 8.049-8.304 16.545-8.996 19.957l1.701.008a69.233 69.233 0 0 0 5.577-.236c7.659-.618 14.481-2.493 20.439-5.612a44.21 44.21 0 0 0 11.053-8.178 43.938 43.938 0 0 0 3.055-3.401 47.59 47.59 0 0 0 1.847-2.439 91.7 91.7 0 0 1-3.411-2.174c-.081-.055-.182-.1-.264-.164a3.966 3.966 0 0 1-.9-.818l-.183-.246a3.754 3.754 0 0 1-.491-.946l-.091-.155-.027-.173-.1-.254zm124.558 2.765a1.36 1.36 0 0 1-.037.328 4.65 4.65 0 0 1-.209.736 2.306 2.306 0 0 1-.137.355 3.684 3.684 0 0 1-.6.901l-.136.227-.228.155-.118.127-.164.083c-.29.216-.61.381-.928.518l-.291.091a4.19 4.19 0 0 1-1.073.182c6.23 5.085 10.289 11.015 12.898 16.874a45.832 45.832 0 0 1 1.446 3.584c3.913 2.655 8.361 4.83 13.336 6.531.901.308 1.829.599 2.775.873 1.138.336 2.292.645 3.484.935.391.102.8.192 1.2.284.119-2.602.092-8.16-1.619-14.673a43.574 43.574 0 0 0-.891-3.02 45.16 45.16 0 0 0-1.51-3.948c-.036-.063-.065-.136-.091-.199a43.512 43.512 0 0 0-3.311-6.095c-3.393-5.177-7.832-9.425-13.318-12.735a48.955 48.955 0 0 0-6.704-3.375h-.009a52.955 52.955 0 0 0-4.03-1.501c-1.364-.636-2.537-1.101-3.547-1.41 2.675 6.312 3.547 11.525 3.757 13.016v.028c.064.3.082.61.073.928zm66.267-4.711a50.595 50.595 0 0 0-2.784-7.451c-1.564-3.375-3.766-7.195-6.849-10.851-3.294-3.903-7.069-7.05-11.326-9.461a252.621 252.621 0 0 1-19.565 8.396h-.01l-4.43 1.664a48.3 48.3 0 0 0 2.183 2.784c.219.264.446.519.674.783 5.266 5.958 11.671 10.242 19.138 12.834a35.27 35.27 0 0 0 1.411.465c1.9.6 3.874 1.091 5.912 1.473a55.15 55.15 0 0 0 4.52.656c3.649.399 7.496.472 11.526.236-.1-.428-.237-.946-.4-1.528m127.868-56.798-8.096 2.719c-32.402 10.871-88.026 22.35-134.417 24.506 10.861 7.696 16.128 18.648 18.474 25.333 15.783 8.769 22.914 21.514 25.997 32.801a2.69 2.69 0 0 1 .647-.072c1.064 0 2.092.582 2.6 1.583 5.85 11.28 13.555 28.31 17.584 40.921a2.92 2.92 0 0 1-.262 2.365c7.476 11.789 8.677 23.261 7.394 32.83a2.91 2.91 0 0 1 1.209 2.01 233.04 233.04 0 0 1 1.72 22.031c.082 2.383.118 4.822.118 7.259l-.009 1.701a2.54 2.54 0 0 1 .091.746 234.774 234.774 0 0 1-5.703 47.228 2.99 2.99 0 0 1-.782 1.392c-.546 18.257-11.253 30.646-18.194 36.813-1.009 24.169-18.483 37.204-26.169 41.78-5.549 16.61-17.465 25.206-27.326 29.609-6.513 8.686-14.363 14.026-22.058 17.274-8.405 12.135-18.322 18.447-27.827 21.467-.036.028-.073.064-.109.091-10.761 7.978-36.931 15.764-54.041 17.802-8.869 4.256-25.371 5.513-35.441 5.513-7.258 0-22.604-.574-32.955-5.004-15.801-.064-48.866-9.087-61.328-18.311-.037-.027-.064-.063-.101-.091-9.515-3.02-19.429-9.332-27.834-21.467-7.686-3.248-15.546-8.588-22.06-17.274-9.86-4.403-21.767-12.999-27.325-29.609-7.677-4.576-25.161-17.611-26.161-41.78-6.95-6.167-17.647-18.556-18.202-36.813a2.898 2.898 0 0 1-.773-1.392c-3.493-15.409-5.413-31.3-5.712-47.228-.01-.254.036-.509.09-.746v-1.701l.11-7.25c.218-7.313.801-14.727 1.727-22.04a2.914 2.914 0 0 1 1.202-2.01c-1.283-9.569-.082-21.041 7.404-32.83a2.954 2.954 0 0 1-.273-2.365c4.039-12.611 11.735-29.641 17.583-40.921a2.93 2.93 0 0 1 2.612-1.583 2.66 2.66 0 0 1 .645.082c3.083-11.288 10.215-24.032 25.988-32.811 2.375-6.749 7.714-17.828 18.775-25.533-45.6-2.575-99.113-13.726-130.65-24.306l-8.097-2.719 36.868-12.927-11.07-31.582 5.795 2.092c29.38 10.606 86.952 21.968 125.811 21.968 29.908 0 59.427-3.675 85.352-10.606l10.56-2.83-23.696 23.687c16.956 5.031 35.677 7.832 55.352 7.832 19.667 0 38.387-2.801 55.342-7.832l-23.696-23.687 10.562 2.83c25.915 6.931 55.432 10.606 85.351 10.606 38.859 0 96.422-11.362 125.812-21.968l5.795-2.092-11.071 31.582z"/><path d="m461.571 301.85 1.665.764.673.318-2.338-1.082m39.77-6.796 6.713-17.064 3.866 1.528-6.703 17.064zm25.133 4.939-.955 3.175-2.628-.791-1.02-.31 1.539-5.103.327-1.064 2.219-6.185-.073-.028c-1.409 1.738-3.083 3.62-4.702 5.149l-5.559 5.348-4.638-1.401 5.285-17.556 3.646 1.101-1.582 5.258-2.501 7.632.11.036c1.446-1.81 3.292-3.702 4.911-5.284l5.813-5.614 4.139 1.246-2.356 7.824zm14.017-1.273-.491.082-.946.155c-1.846.318-2.719.692-2.919 1.655-.082.364-.019.755.209 1.11a2.11 2.11 0 0 0 .5.537c.364.273.864.5 1.519.636a8.872 8.872 0 0 0 3.702.01l.237-.046.173 3.457a8.34 8.34 0 0 1-1.555.191h-.01c-.891.045-1.946-.027-3.202-.301-1.337-.281-2.456-.772-3.338-1.4l-.154-.109c-1.802-1.347-2.566-3.293-2.129-5.323.273-1.291.964-2.218 1.983-2.891h.009c1.055-.709 2.474-1.129 4.13-1.357 2.282-.281 3.284-.762 3.511-1.854.254-1.174-.564-2.156-2.428-2.557a9.334 9.334 0 0 0-2.584-.182 9.96 9.96 0 0 0-2.147.328l-.1-3.53c1.128-.336 3.265-.464 5.322-.017 1.782.382 3.137 1.027 4.119 1.837 1.42 1.155 2.047 2.665 2.002 4.23 0 .355-.046.709-.127 1.073-.51 2.392-2.183 3.72-5.286 4.266m20.723 7.722-.52 3.439-5.494-.828-5.166-.783-3.301-.5.327-2.137.2-1.3 1.665.254h.009l2.838.428.381.054.183-1.228.009-.018.199-1.328 1.238-8.187.591-3.921 4.112.619-.182 1.219-2.037 13.472.582.091zm8.814-4.402-.9 8.697-4.139-.428 1.892-18.239 4.138.428-.864 8.369zm17.62 7.65-.119 2.001-.019.291-.827-.046-3.967-.218-9.304-.519.199-3.474 4.94.273.218-3.839.109-2.092.273-4.839.082-1.492.145-2.566 3.54.192.618.036-.155 2.784-.463 8.314-.083 1.428-.127 2.311 3.183.172 1.82.1-.063 1.173zm15.3.41-.082-4.721-.009-.6-.064-3.466c-.054-3.211-1.273-4.712-3.448-4.675-2.091.035-3.319 1.654-3.265 4.783l.064 3.685.063 4.02.018 1.01v.301l.028 1.592-2.693.046-1.437.027-.028-1.438-.054-3.375-.009-.627-.028-1.447v-.318l-.054-3.075c-.065-3.484.864-5.803 2.602-7.122 1.173-.882 2.71-1.319 4.575-1.356 3.384-.055 5.831 1.211 7.005 3.948h.009c.473 1.101.745 2.438.782 4.03.008.064.008.127.008.191l.047 2.929.109 6.131.018 1.274-4.13.063zm8.759 1.483v-.047l-.309-3.42 4.93-.446-.481-5.384-.109-1.174-.737-8.232 4.148-.372 1.328 14.79 4.984-.445.31 3.464-13.945 1.256zm19.84-2.056-1.282.199-.601-3.912-.009-.017-2.083-13.536-.1-.655 7.804-1.2 3.758-.583.482 3.157h.009l.027.209-7.449 1.138v.009l.663 4.293 5.076-.774 1.592-.245.245 1.609.264 1.72-6.667 1.028.582 3.766 1.128-.173 3.374-.518 2.539-.391.3 1.965.217 1.391-4.683.718zm33.457-16.456c-.864-3.202-3.057-5.54-5.886-4.768-1.937.52-2.92 2.212-3.01 4.304a9.003 9.003 0 0 0 .336 2.756c.418 1.573 1.146 2.911 2.092 3.803.556.536 1.183.909 1.883 1.073l.01.009c.608.155 1.255.145 1.946-.036 1.492-.41 2.357-1.465 2.729-2.802.381-1.301.299-2.865-.1-4.339m-.592 9.934a11.45 11.45 0 0 1-1.018.336c-5.195 1.41-9.706-1.419-11.198-6.905 0-.009-.009-.026-.009-.036-.5-1.874-.546-3.656-.163-5.239.681-2.884 2.773-5.104 6.075-5.994 4.749-1.292 9.534.882 11.143 6.812.801 2.947.519 5.759-.863 7.905-.873 1.365-2.192 2.447-3.967 3.121m5.958-21.177 3.902-1.456 2.584 6.905 6.167-2.32 1.174 3.139-6.168 2.31 1.484 3.947 6.594-2.473 1.192 3.183-10.489 3.939zm-308.599-11.691 4.244-17.047 3.989.776-4.243 17.046zm19.878 3.789 1.201-4.965 2.07-7.08-.079-.015c-1.275 1.775-2.81 3.711-4.315 5.311l-5.145 5.578-4.648-.868 4.135-17.074 3.656.683-1.24 5.117-1.991 7.44.104.019c1.32-1.845 3.023-3.805 4.515-5.459l5.374-5.853 4.152.774-4.135 17.075zm17.385-11.714c-.5-.088-1.054-.159-1.433-.173l-2.583 11.191c.349.14.909.318 1.772.469 3.457.608 6.011-.898 6.829-4.449.945-4.086-.966-6.429-4.585-7.038m4.326 13.83c-1.983.919-4.296 1.146-7.676.553-1.963-.345-3.871-.813-5.283-1.298l3.877-16.799c1.025.048 2.519.179 4.615.548 3.403.598 6.092 1.81 7.606 3.633 1.381 1.695 2.09 4.17 1.333 7.442-.696 3.021-2.335 4.923-4.472 5.921m6.845 2.916 3.745-17.139 4.016.654-3.743 17.139zm15.91-7.717.362 3.819.169 3.401.08.01 1.521-3.174 1.776-3.535zm-2.453 9.832-2.188-17.939 4.174.556.432 4.588 5.097.679 2.208-4.236 4.358.582-8.8 16.474zm26.761 2.412.567-5.042 1.163-7.233-.08-.004c-1.047 1.908-2.332 4.01-3.632 5.774l-4.429 6.146-4.757-.268 1.951-17.335 3.739.21-.584 5.196-1.039 7.577.107.005c1.084-1.983 2.535-4.129 3.814-5.946l4.623-6.444 4.248.238-1.949 17.335zm284.957-8.439c-2.343.767-3.359 1.242-3.305 2.299.045.856.962 1.659 2.774 1.709a9.44 9.44 0 0 0 3.827-.701l1.064 3.12c-1.045.424-2.533.761-4.674.704-4.335-.117-7.111-2.379-7.259-5.274-.13-2.492 1.822-3.947 4.867-4.897 2.159-.645 3.005-1.251 2.951-2.282-.057-1.108-1.11-1.866-3.029-1.918-1.785-.047-3.512.433-4.583.933l-1.015-3.194c1.015-.501 3.073-.974 5.186-.917 5.102.138 7.561 2.642 7.707 5.487.125 2.39-1.302 3.911-4.511 4.931m6.917-1.669c-.592-4.83 2.234-8.625 8.594-8.862 2.236-.082 4.006.255 4.81.554l-.259 3.042c-.856-.271-2.278-.471-3.534-.424-3.711.138-5.633 2.358-5.217 5.753.461 3.774 3.279 5.514 6.553 5.392 1.473-.055 2.611-.399 3.39-.758l1.242 2.987c-.664.403-2.283.842-4.438.922-5.568.208-10.434-2.82-11.141-8.606m15.732-9.067 4.139-.387 3.091 16.891-4.137.386zm21.634 11.601.666 3.123-11.166 1.357-3.589-16.841 11.571-1.407.664 3.124-7.453.907.852 3.997 6.673-.811.661 3.099-6.673.81.744 3.498zm14.139-3.632-1.242-7.081-.08.011c-.404 2.007-.978 4.241-1.675 6.159l-2.339 6.658-4.775.636-3.802-16.81 3.756-.501 1.14 5.038 1.477 7.383.106-.014c.414-2.085 1.137-4.391 1.798-6.355l2.429-6.979 4.268-.569 3.801 16.811-3.758.501zm14.252-11.721c-3.604.665-5.135 3.16-4.196 6.499 1.043 3.711 4.064 5.052 7.247 4.465 1.429-.265 2.487-.772 3.188-1.239l1.683 2.811c-.585.498-2.097 1.167-4.192 1.555-5.406.997-10.632-1.343-12.229-7.031-1.333-4.75.833-8.95 7.009-10.089 2.172-.401 3.952-.313 4.784-.129l.226 3.082c-.88-.151-2.301-.149-3.52.076m21.124 6.077 1.182 3.018-10.646 3.089-6.371-16.268 11.029-3.202 1.182 3.016-7.105 2.063 1.512 3.862 6.362-1.847 1.172 2.994-6.362 1.846 1.324 3.38zm-338.127-78.436v-15.331c-1.202-3.065-4.026-5.107-7.215-5.107-4.145 0-7.512 4.026-7.512 9.013 6.311 0 11.479 2.948 11.479 6.617-.057 2.1-2.701 4.146-6.37 4.808zm-147.827-3.908c0-.841-.541-1.506-1.205-1.506s-1.202.665-1.202 1.506v6.61c0 .842.541 1.502 1.202 1.502s1.205-.66 1.205-1.502zm0-13.524c.056-1.506-.785-2.704-1.803-2.704-1.325 0-2.407 1.198-2.407 2.704s1.082 2.701 2.407 2.701h1.803zm122.1 20.436h-3.54c-.059 7.335-7.154 13.224-15.93 13.224-5.649-.06-10.216-3.246-10.216-7.214 0-1.623.841-3.546 2.4-5.41h9.021c-1.325 1.083-2.047 3.066-2.047 5.41-.057 2.827 1.562 5.107 3.549 5.107 3.005 0 5.408-4.987 5.408-11.117h-3.535v.002h-95.192v-3.008h3.008v-12.322h-7.211v11.721c0 3.966-4.033 7.214-9.02 7.214-4.989-.063-9.018-3.248-9.018-7.214s4.029-7.211 9.018-7.211h1.205v-4.51h-1.803c-3.669 0-6.614-2.287-6.614-5.108.06-3.489 3.786-6.31 8.417-6.31 4.326 0 7.815 2.821 7.815 6.31v2.701h7.211v-9.311c.06-1.325-1.322-2.407-3.008-2.407v-1.807h13.828v1.807c-1.682 0-3.008 1.082-3.008 2.407v24.04h4.751v.003h3.536v-24.044c.059-1.325-1.322-2.407-3.009-2.407v-1.806h13.828v1.806c-1.682 0-3.004 1.082-3.004 2.407V188.2h10.209c4.808 0 8.717-4.03 8.717-9.021-.06-4.506-3.786-8.113-8.416-8.113-1.983 0-3.786.301-5.408.903l-.602-1.807c1.619 0 4.087-2.16 7.813-6.006 2.584-2.707 5.411-4.213 7.815-4.213 3.488 0 6.851 1.923 9.017 5.111l-1.201 1.502c-1.085-1.325-2.768-2.099-4.511-2.099-1.984-.068-4.507 1.622-6.91 4.503 6.794 1.141 11.781 5.231 11.781 9.622-.063 4.928-5.171 9.134-11.781 9.618h39.184v-6.314c-2.047 1.383-5.168 2.104-9.017 2.104-7.995 0-14.425-5.528-14.425-12.326.059-4.266 2.223-8.533 6.009-11.721l7.215 3.606c-2.464 1.989-3.847 5.655-3.847 9.921 0 4.507 3.065 8.116 6.85 8.116 2.769 0 5.352-.844 7.215-2.407v-15.023c.06-1.325-1.322-2.407-3.008-2.407v-1.806h13.829v1.806c-1.683 0-3.008 1.082-3.008 2.407V188.2h3.538v-.001h4.747v-24.648c.061-1.019-1.321-1.8-3.008-1.8v-1.806h13.828v1.806c-1.682-.06-3.005.781-3.005 1.8v24.648h10.331c3.486 0 6.313-2.164 6.313-4.808s-2.827-4.811-6.313-4.811c-2.287-.06-4.026.181-5.108.601-.063-8.479 5.89-15.33 13.224-15.33 4.807-.06 8.897 2.046 10.82 5.411v-5.107c0-1.322-1.445-2.404-3.248-2.404v-1.806h14.068v1.806c-1.686 0-3.005 1.082-3.005 2.404v24.044h4.748v3.004h-37.079zm65.264.601c-.481.541-.241 1.683-.241 4.206 0 3.669 2.945 6.613 6.551 6.613 7.034 0 13.287-4.326 15.629-10.819h7.816c-2.884 7.936-12.146 13.224-23.146 13.224-8.953 0-16.227-4.027-16.227-9.018.063-1.322.661-2.824 1.803-4.206zm110.804-26.448c-1.319 0-2.04 3.489-2.04 7.813 0 4.629.601 8.416 2.04 8.416 1.445-.06 1.806-3.787 1.806-8.416 0-4.324-.481-7.813-1.806-7.813m-84.062 4.205c-1.623-1.559-3.545-2.407-5.412-2.407-3.424.066-6.249 3.248-6.249 7.218.06 3.965 2.825 7.213 6.249 7.213 1.923.061 3.911-.843 5.412-2.406zm71.692 21.644h-93.684v.001h-17.313v-3.008h4.748v-24.044c.062-1.322-1.319-2.403-3.005-2.403v-1.807h13.824v1.807c-1.682 0-3.004 1.081-3.004 2.403v24.044h4.75v.002h21.992v-6.615c-1.922 2.285-5.231 3.607-9.017 3.607-6.61-.061-12.025-4.871-12.025-10.82.063-5.953 5.415-10.824 12.025-10.824 3.786 0 7.095 1.326 9.017 3.606v-2.998c.06-1.325-1.322-2.407-3.004-2.407v-1.806h13.821v1.806c-1.683 0-3.005 1.082-3.005 2.407V188.2h35.217v-4.811c-6.49 0-12.743 2.404-19.234 2.404-5.288 0-9.618-2.945-9.618-6.614 0-3.305 3.489-6.01 7.816-6.01h5.107c2.464 0 4.507-1.742 4.507-3.909-.057-2.821-3.244-5.104-7.211-5.104-4.267 0-7.875.842-10.219 2.4l-1.205-2.099c3.189-1.149 5.956-3.132 8.115-5.712 2.228-2.648 5.412-4.207 8.717-4.207 2.525 0 4.932 1.499 6.314 3.906l-1.202 1.198c-1.262-.714-1.926-1.081-2.347-1.081-1.622.06-3.425 1.205-4.867 3.188h3.307c5.53.06 9.976 3.249 9.976 7.211 0 3.668-3.125 6.614-6.971 6.614h-7.214c-1.802 0-3.249 1.626-3.249 3.605s1.866 3.609 4.151 3.609c5.168 0 10.098-2.404 15.327-2.404v-16.228c.063-1.325-1.32-2.407-3.005-2.407v-1.806h13.824v1.806c-1.679 0-3.004 1.082-3.004 2.407V188.2h8.281v-24.044c.061-1.325-1.322-2.407-3.007-2.407v-1.806h13.828v1.806c-1.683 0-3.005 1.082-3.005 2.407V188.2h3.54v-.002h29.815v-8.115c-4.45 2.584-10.039 3.905-16.234 3.905-6.307-.057-11.422-4.867-11.422-10.819 0-5.649 5.115-10.219 11.422-10.219 6.195 0 11.184 4.57 11.184 10.219 0 3.184-1.623 6.012-4.267 7.514 4.507-.781 7.691-1.923 9.317-3.305v-13.223c.057-1.322-1.325-2.404-3.007-2.404v-1.806h13.824v1.806c-1.683 0-3.004 1.082-3.004 2.404v24.043h4.747v3.005h-41.164zm91.684 5.708a3.62 3.62 0 0 1 3.609 3.605 3.62 3.62 0 0 1-3.609 3.61 3.62 3.62 0 0 1-3.605-3.61 3.62 3.62 0 0 1 3.605-3.605m27.35-32.459c-1.803-.063-4.207 1.626-6.61 4.508 6.794 1.264 11.781 5.411 11.781 9.918 0 4.747-5.408 8.837-12.382 9.317h19.837v3.008h-76.085V188.2h6.069c5.168 0 9.318-4.03 9.318-9.02.059-4.328-4.15-7.813-9.318-7.813-1.923-.059-3.425.177-4.506.602l-.602-1.807c2.224-.841 4.627-2.701 6.911-5.405 2.587-3.065 5.531-4.814 8.115-4.814 3.306-.056 6.735 1.749 9.319 4.814l-1.503 1.499c-.905-1.142-2.707-1.799-4.811-1.799-1.382-.067-3.605 1.622-6.009 4.503 6.553.301 11.782 4.511 11.782 9.622-.064 4.928-5.172 9.134-11.782 9.618h19.233v-12.924c-1.082-1.024-2.344-1.565-3.606-1.565-1.322 0-2.764.421-4.206 1.262l-.601-2.404c1.382-.842 3.065-1.261 4.807-1.261 1.262.059 2.524.356 3.606.96v-8.112c.063-1.325-1.322-2.407-3.005-2.407v-1.806h13.828v1.806c-1.683 0-3.008 1.082-3.008 2.407V188.2h3.834v-.003h5.168c5.649-.059 10.219-3.785 10.219-8.416s-4.45-8.416-9.918-8.416c-1.499-.057-2.824.18-3.906.605l-.601-1.81c2.223-.838 4.627-2.697 6.914-5.405 2.584-3.065 5.529-4.811 8.113-4.811 2.707-.06 5.829 1.746 8.416 4.811l-1.203 1.8c-1.141-1.323-2.463-2.101-3.608-2.101m8.84 10.34c-1.265 0-2.527.36-3.729 1.081l-.901-2.102c1.563-.906 3.128-1.383 4.51-1.383 1.803 0 3.306.357 4.507 1.079l-.601 2.406c-1.205-.721-2.523-1.081-3.786-1.081m71.86-9.438c-1.319 0-2.04 3.489-2.04 7.813 0 4.629.601 8.416 2.04 8.416 1.445-.06 1.806-3.787 1.806-8.416 0-4.324-.481-7.813-1.806-7.813m-57.265 16.53v6.01c.061 1.142 1.446 2.106 3.185 2.106 1.566-.063 2.828-.964 2.828-2.106v-6.01c0-1.144-1.262-2.106-2.828-2.106-1.739.063-3.185.962-3.185 2.106m86.059 6.312v3.005h-41.164v.002h-31.067v-3.008h2.401v-15.928c-.899-3.009-4.688-5.115-9.318-5.115-4.807 0-8.713 2.948-8.713 6.617 8.656 0 15.63 5.107 15.63 11.421 0 3.97-5.111 7.211-11.42 7.211-5.653-.057-10.223-3.241-10.223-7.211 0-4.33 4.57-7.815 10.223-7.815-1.326-1.142-4.03-1.803-7.515-1.803-2.348 0-4.09.301-5.111.901-.061-7.632 5.892-13.824 13.223-13.824 6.012.057 10.944 2.046 13.224 5.411v-3.906c.063-1.325-1.319-2.406-3.005-2.406v-1.807h13.824v1.807c-1.679 0-3.004 1.081-3.004 2.406v24.041h4.75v.003h3.534v-24.044c.061-1.325-1.322-2.407-3.007-2.407v-1.806h13.828v1.806c-1.683 0-3.005 1.082-3.005 2.407V188.2h3.54v-.002h29.815v-8.115c-4.45 2.584-10.039 3.905-16.234 3.905-6.307-.057-11.422-4.867-11.422-10.819 0-5.649 5.115-10.219 11.422-10.219 6.195 0 11.184 4.57 11.184 10.219 0 3.184-1.623 6.012-4.267 7.514 4.507-.781 7.691-1.923 9.317-3.305v-13.223c.057-1.322-1.325-2.404-3.007-2.404v-1.806h13.824v1.806c-1.683 0-3.004 1.082-3.004 2.404v24.043z"/></g></g></svg>