<svg xmlns="http://www.w3.org/2000/svg" width="299.928" height="299.928"><style><![CDATA[.B{fill:none}.C{stroke-miterlimit:10}.D{stroke-width:3.124}.E{stroke:#1f1917}.F{fill:#d9261c}.G{stroke-linejoin:round}]]></style><path d="M299.928 149.963c0 82.821-67.144 149.965-149.965 149.965S0 232.784 0 149.963 67.141 0 149.963 0s149.965 67.14 149.965 149.963" fill="#781f19"/><path d="M265.692 149.963c0 63.917-51.813 115.73-115.73 115.73S34.235 213.879 34.235 149.963 86.048 34.234 149.963 34.234s115.73 51.814 115.73 115.728" fill="#d6a64f"/><path d="M265.692 149.963c0 63.917-51.813 115.73-115.73 115.73S34.235 213.879 34.235 149.963 86.048 34.234 149.963 34.234s115.73 51.814 115.73 115.728z" stroke="#fff" class="B C D"/><g fill="#fff"><path d="M49.737 249.58l12.445-12.726 2.869 2.807-12.445 12.724-2.869-2.805m8.802-16.267l-13.837 11.199-2.957-3.657 2.745-6.977c.794-2.001 1.87-4.198 2.913-6.094l-.033-.042c-1.677 1.664-3.493 3.238-5.589 4.932l-4.023 3.255-2.326-2.874 13.837-11.196 2.657 3.284-2.945 7.274-2.942 6.358.065.081 5.94-5.044 4.168-3.373 2.327 2.874M41.757 215.68c-.103-.335-.389-.841-.626-1.254-1.8-3.199-4.735-4.29-8.424-2.177-3.326 1.901-3.832 4.684-2.102 7.713.434.754.803 1.243 1.043 1.502l10.109-5.784zm-10.591 10.682c-.966-1.153-2.036-2.76-3.032-4.5-1.692-2.959-2.312-5.158-2.027-7.267.275-2.29 1.623-4.396 4.375-5.97 2.956-1.692 5.611-1.782 7.713-1.037 2.282.854 4.354 2.985 6.084 6.011 1.037 1.811 1.67 3.182 2.04 4.099l-15.151 8.664m-12.115-23.105l16.384-6.954 1.569 3.696-16.386 6.952-1.567-3.695m4.686-17.798l-3.306 2.132-3.048 1.808.025.075 3.517-.209 3.927-.029-1.116-3.775zm4.167 3.481l4.733-.102 1.18 4-18.611-.182-1.487-5.04 15.504-10.356 1.225 4.155-3.992 2.607 1.449 4.917m.553-15.555l-17.648 2.301-.608-4.661 5.99-4.51c1.723-1.291 3.788-2.598 5.672-3.669l-.004-.053c-2.299.538-4.672.927-7.342 1.276l-5.133.671-.479-3.667 17.65-2.299.547 4.189-6.316 4.658-5.834 3.875.017.104 7.701-1.19 5.314-.692.478 3.665M8.876 141.986l17.784.741-.167 4.01-17.784-.741.168-4.01m17.979-4.37L9.28 134.811l.741-4.642 7.022-2.623c2.017-.747 4.371-1.415 6.481-1.906l.012-.053c-2.358-.136-4.745-.436-7.404-.861l-5.113-.816.585-3.651 17.575 2.806-.666 4.173-7.378 2.672-6.695 2.061-.017.104 7.721 1.046 5.294.845-.582 3.65m-.268-20.819c.846-.842 1.879-2.289 2.392-3.927.553-1.764.113-2.925-1.02-3.28-1.034-.324-1.917.286-3.261 2.107-1.892 2.506-4.037 3.882-6.532 3.101-2.899-.908-4.327-4.04-3.078-8.021.607-1.941 1.419-3.207 2.215-4.066l2.805 1.82c-.533.553-1.398 1.638-1.911 3.275-.522 1.664.008 2.715.863 2.984 1.085.339 1.856-.444 3.407-2.392 2.049-2.652 4.046-3.55 6.465-2.79 2.848.891 4.588 3.815 3.128 8.478-.608 1.94-1.737 3.69-2.566 4.481l-2.906-1.767m-2.702-22.852l-2.021 4.363-3.065-1.419 5.746-12.415 3.066 1.42-2.038 4.41 13.084 6.055-1.683 3.643-13.088-6.056m5.535-17.768l15.306 9.087-2.049 3.452-15.306-9.087 2.049-3.452m8.45-6.609l-2.861 3.861-2.715-2.012L40.44 60.43l2.715 2.012-2.891 3.905L51.85 74.93l-2.39 3.225-11.587-8.583m9.444-16.763l7.26 7.196c2.193 2.174 4.137 2.427 5.569.983 1.487-1.5 1.254-3.367-.996-5.597l-7.259-7.195 2.827-2.851 7.089 7.027c3.901 3.866 3.808 7.675.535 10.978-3.16 3.188-6.782 3.279-10.797-.7l-7.053-6.988 2.826-2.853m18.04-11.787l-3.835 2.894-2.035-2.698 10.918-8.237 2.037 2.698-3.879 2.927 8.682 11.511-3.203 2.416-8.685-11.511m24.404-7.577l-5.692 3.243 2.092 3.672 6.355-3.622 1.634 2.867-9.843 5.61-8.813-15.463 9.52-5.427 1.634 2.867-6.032 3.44 1.832 3.212 5.689-3.243 1.624 2.845m21.099-3.718c2.587-.841 3.278-3.76 2.2-7.073-.988-3.04-3.267-5.186-5.905-4.329s-3.285 3.901-2.257 7.064c1.037 3.192 3.376 5.179 5.939 4.346l.021-.008zm.815 3.096c-5 1.625-9.194-1.205-10.763-6.026-1.648-5.074.383-9.927 5.355-11.545 5.198-1.688 9.303 1.281 10.821 5.952 1.814 5.576-.442 10.002-5.388 11.609l-.025.008m9.488-21.31l10.703-1.807.549 3.255-6.747 1.138.679 4.01 6.303-1.065.543 3.23-6.302 1.064 1.193 7.058-3.958.668-2.963-17.552m28.894.522l-4.803-.078.053-3.381 13.678.222-.055 3.38-4.859-.078-.234 14.418-4.012-.065.232-14.418m23.908 8.996l-6.483-.931-.601 4.182 7.241 1.039-.469 3.267-11.214-1.61 2.528-17.618 10.851 1.558-.472 3.266-6.873-.986-.525 3.66 6.481.93-.464 3.243m16.602 11.56c-.778.136-2.519.079-4.577-.504-5.921-1.681-7.914-6.256-6.521-11.159 1.66-5.843 6.743-7.887 11.924-6.416 2.006.57 3.417 1.411 4.001 1.961l-1.68 2.818c-.667-.547-1.673-1.162-3.07-1.56-3.046-.865-5.962.311-7.053 4.147-.974 3.43.445 6.166 3.875 7.14 1.195.339 2.531.471 3.411.365l-.31 3.207m14.975-12.605l-2.85 6.245 6.03 2.753 2.851-6.246 3.653 1.666-7.389 16.194-3.651-1.669 3.078-6.75-6.03-2.75-3.078 6.75-3.655-1.665 7.391-16.195 3.651 1.668m6.761 23.098l9.882-14.806 3.908 2.609-.544 7.478c-.164 2.145-.539 4.563-.973 6.688l.046.029c1.107-2.086 2.374-4.129 3.869-6.371l2.874-4.305 3.077 2.052-9.885 14.804-3.512-2.344.648-7.823.918-6.942-.086-.059-4.172 6.582-2.974 4.459-3.077-2.051m23.915 14.485c1.988 1.855 4.873 1.046 7.255-1.501 2.18-2.336 2.952-5.372.926-7.265s-5.003-.986-7.272 1.447c-2.292 2.451-2.899 5.461-.929 7.299l.021.021zm-2.317 2.208c-3.841-3.586-3.4-8.627.064-12.334 3.641-3.899 8.869-4.472 12.694-.904 3.994 3.732 3.382 8.76.029 12.35-3.999 4.285-8.962 4.455-12.768.906l-.017-.017m23.172-2.099l2.512 3.132-11.244 9.026 4.431 5.519-2.634 2.116-6.945-8.648 13.88-11.145m1.341 27.324c1.399 2.332 4.396 2.349 7.387.554 2.737-1.645 4.318-4.349 2.892-6.725s-4.541-2.326-7.393-.614c-2.875 1.726-4.286 4.453-2.9 6.761l.012.025zm-2.837 1.487c-2.703-4.506-.889-9.231 3.456-11.84 4.576-2.746 9.761-1.855 12.453 2.627 2.815 4.687.841 9.352-3.37 11.88-5.027 3.018-9.846 1.815-12.523-2.645l-.017-.021m12.779 24.697c-.851-.998-2.257-2.967-3.127-5.153-1.198-3.018-1.305-5.505-.459-7.601.856-2.073 2.682-3.765 5.111-4.73 5.508-2.156 10.24.596 12.394 6.02.847 2.136 1.083 3.946 1.034 4.901l-3.328.414c.055-1.073-.089-2.295-.809-4.112-1.238-3.117-3.949-4.798-7.535-3.375-3.434 1.365-4.566 4.314-3.348 7.382.33.835.701 1.482.94 1.728l3.489-1.384-1.014-2.552 2.919-1.16 2.446 6.162-8.713 3.458m1.48 8.891l7.102-1.637 8.979-7.842 1.038 4.504-3.766 2.71-3.01 2.103.008.053 3.623.547 4.572.789 1.012 4.4-11.428-3.382-7.231 1.666-.902-3.911m10.531 34.954l7.309-.276v-.056l-6.924-1.893-6.98-2.053-.051-3.142 6.833-2.012 6.946-1.724v-.053l-7.373-.17-6.763-.234-.06-3.724 17.814.848.086 5.361-5.939 1.839a73.61 73.61 0 0 1-6.311 1.609v.103a104.48 104.48 0 0 1 6.418 1.588l5.945 1.779.085 5.28-17.782 1.24-.06-3.91 6.808-.399m-1.479 18.758l3.911-.458 3.528-.286.012-.079-3.248-1.354-3.544-1.702-.66 3.879zm-2.211-4.956l-4.294-1.99.699-4.114 16.636 8.35-.882 5.178-18.48 2.481.728-4.269 4.734-.588.859-5.049m-5.756 18.558c-.186.298-.374.849-.527 1.298-1.203 3.469-.077 6.391 3.952 7.756 3.625 1.229 6.047-.236 7.165-3.537.281-.824.404-1.426.436-1.777l-11.027-3.74zm15.018.855c-.223 1.484-.718 3.352-1.363 5.253-1.096 3.227-2.334 5.148-4.103 6.333-1.893 1.312-4.368 1.698-7.369.682-3.225-1.096-5.05-3.026-5.887-5.093-.869-2.277-.646-5.242.474-8.541.671-1.977 1.278-3.36 1.717-4.241l16.531 5.608m-16.532 21.221l-.732 1.408c-.922 1.78-.58 3.298.803 4.016 1.43.741 2.692.148 3.543-1.495.449-.868.657-1.384.72-1.679l-4.335-2.249zm8.608-.021c-.382 1.255-1.119 3.017-2.115 4.938-1.216 2.347-2.421 3.802-3.917 4.455-1.251.569-2.619.515-4.072-.24-1.995-1.032-2.634-3.181-2.422-4.795l-.07-.037c-1.017.869-2.367.945-4.027.587l-5.131-1.056 1.894-3.657c.568-.004 2.064.268 4.243.832 2.222.589 3.09.174 3.879-1.288l.549-1.056-6.211-3.223 1.836-3.541 15.562 8.08m-22.827 18.715l3.709 1.317 3.291 1.306.046-.064-2.314-2.652-2.425-3.093-2.306 3.186zm.209-5.425l-2.972-3.683 2.449-3.38 11.225 14.848-3.082 4.254-17.67-5.949 2.54-3.506 4.506 1.565 3.004-4.149m-9.869 11.976c-1.134.375-2.708 1.209-3.897 2.445-1.282 1.331-1.408 2.566-.552 3.39.778.751 1.841.6 3.857-.425 2.813-1.4 5.346-1.67 7.23.144 2.187 2.107 2.065 5.545-.83 8.551-1.41 1.461-2.704 2.233-3.796 2.646l-1.698-2.879c.724-.257 1.981-.842 3.171-2.078 1.211-1.258 1.208-2.432.561-3.055-.819-.789-1.857-.433-4.117.617-3.017 1.458-5.205 1.366-7.03-.392-2.148-2.07-2.398-5.465.992-8.985 1.409-1.462 3.203-2.522 4.298-2.861l1.81 2.88M233.75 255.96a2.63 2.63 0 0 1-2.632 2.631 2.632 2.632 0 1 1 0-5.264c1.454 0 2.632 1.18 2.632 2.633m-162.308 0c0 1.453-1.18 2.63-2.632 2.63a2.63 2.63 0 0 1-2.632-2.63c0-1.453 1.178-2.634 2.632-2.634s2.632 1.181 2.632 2.634"/><path d="M87.033 220.817l42.036 7.504-4.505 5.253 41.286 3.599-4.134 3.378 40.737 1.787-53.869 5.342 6.755-6.003-42.785-4.35 7.13-5.253-32.652-11.258m-4.844 36.549l3.698 2.168c.012-.705.103-1.383.272-2.032s.421-1.254.751-1.82c.516-.886 1.306-1.43 2.368-1.638s2.085-.025 3.077.557c1.218.714 2.226 2 3.024 3.86s1.299 4.068 1.501 6.633l-.759.087c-.161-1.875-.626-3.542-1.398-5.004s-1.775-2.555-3.012-3.28c-.691-.404-1.463-.44-2.32-.116s-1.547.935-2.065 1.815c-.372.635-.587 1.102-.647 1.405l1.456.851.268 2.282-1.991-1.167-6.83 11.639-1.335-2.556 6.058-10.321-1.866-1.093-.249-2.269"/><path d="M91.814 267.03c-.179.724-.463 1.482-.846 2.277.25.555.542 1.031.869 1.43s.684.688 1.066.875a2.89 2.89 0 0 0 1.324.281c.477-.008.949-.117 1.412-.322l1.879-3.874-5.505-2.672c.045.617-.021 1.285-.199 2.006zm.487 11.434l2.134-4.411c-.153.037-.371.021-.649-.06s-.61-.209-.995-.397c-.584-.286-1.095-.741-1.527-1.368s-.756-1.371-.974-2.226a5.51 5.51 0 0 1-1.677 1.128c-.604.254-1.186.346-1.745.277.376 2.132 1.203 4.294 2.487 6.479l-1.497.636c-2.188-6.281-2.969-10.06-2.345-11.349.168-.352.407-.597.717-.741s.593-.156.851-.029c.293.144.522.385.679.737s.239.764.236 1.238c.522.001 1.003-.137 1.444-.411s.777-.654 1.013-1.134c.205-.424.345-.835.423-1.229a3 3 0 0 0 .029-1.116l-4.095-1.982-.443-2.257 14.983 7.26.443 2.257-2.071-1.006-5.887 12.149-1.534-2.445"/><path d="M99.758 266.706l4.024 1.572c-.103-.695-.124-1.378-.064-2.043s.208-1.299.445-1.907c.371-.946 1.061-1.608 2.072-1.979s2.053-.347 3.12.071c1.318.514 2.515 1.62 3.596 3.319s1.928 3.795 2.535 6.286l-.736.206c-.455-1.819-1.175-3.385-2.164-4.702s-2.15-2.232-3.484-2.752c-.743-.29-1.51-.207-2.302.252s-1.373 1.157-1.742 2.104c-.268.684-.405 1.178-.419 1.48l1.56.607.615 2.228-2.147-.837-4.909 12.574-1.716-2.317 4.349-11.144-2.025-.791-.609-2.227"/><path d="M107.732 284.809c.163.275.41.462.739.562.666.197 1.373.165 2.122-.1s1.416-.721 1.997-1.378c-1.351-.405-2.235-.829-2.657-1.275-.563-.021-1.063.097-1.49.351s-.701.595-.834 1.021c-.08.274-.042.549.122.818zm12.694-11.049l.788 2.169-2.637-.792-1.229 4.096-5.72-1.717c-.449-.135-.88-.078-1.297.17s-.696.619-.844 1.106c-.158.529-.064 1.048.282 1.56s.846.862 1.49 1.056l1.802.381c-.025-.137-.037-.268-.042-.398s.008-.241.037-.337c.113-.377.385-.642.818-.809.438-.173.907-.18 1.417-.029.528.161.916.494 1.168 1.009a2.15 2.15 0 0 1 .12 1.621c-.111.373-.349.682-.707.926-.366.246-.794.378-1.294.399l2.313 4.526-1.433.529-1.216-3.4c-.732.59-1.529.975-2.389 1.166s-1.671.167-2.437-.06c-.936-.284-1.784-.88-2.54-1.787s-1.048-1.664-.867-2.271a2.68 2.68 0 0 1 .26-.593c.106-.181.235-.344.38-.495-.974-.375-1.717-.935-2.231-1.678s-.664-1.465-.449-2.172c.074-.254.274-.543.593-.863s.734-.652 1.243-.989l1.529 2.38c-.347.155-.634.324-.863.51s-.367.371-.422.549c-.082.272-.008.556.214.843.218.294.537.501.951.626l1.451-.524c-.358-.535-.582-1.113-.678-1.727a4.06 4.06 0 0 1 .12-1.807c.207-.685.713-1.176 1.515-1.469s1.677-.299 2.616-.017l3.377 1.015.613-2.037-11.076-3.327-.787-2.17 16.059 4.826"/><path d="M121.707 276.91c.362.451.859.765 1.49.94l.463-2.565c.051-.28.033-.54-.046-.772s-.202-.362-.364-.392c-.458-.085-.879.008-1.256.272s-.612.627-.695 1.088c-.091.504.046.981.408 1.43zm4.839-2.045l7.381 1.341 1.025 2.067-2.259-.411-2.408 13.273-2.145-1.95.714-3.926-4.362-.794-.272 1.512c-.063.341-.207.609-.427.807s-.453.275-.698.233c-.721-.13-1.444-.761-2.162-1.886-.719-1.132-1.009-2.085-.866-2.869.037-.201.171-.357.41-.469a1.27 1.27 0 0 1 .778-.093l1.201.222.52-2.863c-1.142-.543-2.018-1.273-2.625-2.192s-.826-1.843-.655-2.769c.102-.583.431-1.038.974-1.366s1.153-.431 1.814-.31c.904.162 1.719.815 2.443 1.955s1 2.19.825 3.156l-.877 4.825 4.359.791 1.039-5.725-2.854-.519-.874-2.04m3.74-6.196c.635-.467 1.347-.654 2.136-.555a4.16 4.16 0 0 1 2.164.933 4.11 4.11 0 0 1 1.327 1.972l-.51.4a3.25 3.25 0 0 0-.846-.911c-.32-.229-.653-.359-.997-.402a2.49 2.49 0 0 0-1.91.535 2.53 2.53 0 0 0-.986 1.735c-.048.386.017.82.192 1.297s.462.966.847 1.465l-.667.413c-.689-.743-1.196-1.563-1.515-2.448-.325-.883-.431-1.755-.326-2.606.093-.752.457-1.359 1.09-1.828"/><path d="M136.068 286.319c.363.353.819.549 1.372.59.751.059 1.565-.065 2.437-.371s1.742-.769 2.607-1.402c-.482-.667-1.017-1.201-1.601-1.592s-1.173-.609-1.764-.654c-.936-.067-1.747.112-2.435.541s-1.058.981-1.108 1.652c-.033.469.13.879.491 1.235zm10.398-9.19l1.236 1.946-2.294-.17-1.004 13.463-2.33-1.715.23-3.07c-.629.446-1.269.781-1.921 1s-1.272.307-1.863.262c-1.139-.082-2.251-.699-3.332-1.845s-1.586-2.241-1.508-3.283c.064-.876.492-1.603 1.28-2.179.793-.58 1.719-.826 2.778-.749.939.07 1.836.394 2.694.971s1.568 1.345 2.134 2.31l.398-5.349-9.81-.731-1.239-1.944 14.551 1.082"/><path d="M144.984 276.983l4.314.07a8.53 8.53 0 0 1-.772-1.895 7.03 7.03 0 0 1-.245-1.948c.017-1.021.433-1.88 1.254-2.583s1.803-1.04 2.947-1.023c1.416.025 2.921.642 4.532 1.861 1.605 1.222 3.127 2.895 4.568 5.021l-.621.449c-1.059-1.545-2.285-2.764-3.669-3.655-1.39-.889-2.793-1.344-4.229-1.37-.799-.008-1.487.335-2.074 1.038-.584.709-.886 1.567-.902 2.587-.012.734.029 1.246.129 1.531l1.679.029 1.352 1.868-2.303-.042-.22 13.491-2.418-1.575.195-11.953-2.172-.033-1.344-1.867"/><path d="M164.418 276.379l1.501 1.753-2.293.155.899 13.463-2.547-1.371-.447-6.733-4.747.317c-.431.029-.777.248-1.049.654s-.388.887-.348 1.437c.053.837.38 1.695.971 2.565s1.404 1.686 2.436 2.436l-.868.826c-1.52-1.332-2.709-2.596-3.56-3.787s-1.302-2.232-1.361-3.107.164-1.65.664-2.319 1.125-1.027 1.879-1.077l5.824-.389-.185-2.755-9.649.642-1.498-1.751 14.381-.961m9.568 7.814c.347.231.734.303 1.156.217.621-.126 1.208-.42 1.77-.893s1.038-1.066 1.433-1.793c-.354-.407-.761-.701-1.229-.886s-.904-.237-1.326-.15c-.782.157-1.413.482-1.894.979s-.671 1.007-.562 1.547c.085.422.302.746.653.979zm11.081-11.657l1.719 1.523-7.207 1.468.824 4.061c.214-.402.496-.734.852-.999a2.95 2.95 0 0 1 1.194-.529c.824-.168 1.783.268 2.878 1.309s1.758 2.154 1.997 3.337c.111.542.112 1.146.004 1.815s-.311 1.361-.629 2.072l-2.33-1.406c.469-.701.791-1.379.982-2.044s.234-1.256.128-1.778c-.104-.499-.351-.891-.745-1.18s-.823-.378-1.286-.286c-.423.087-.854.339-1.293.752s-.837.955-1.203 1.638l1.314 6.461-2.703-1.019-.671-3.305a3.63 3.63 0 0 1-1.017 1.019 3.71 3.71 0 0 1-1.325.552c-.902.184-1.912-.152-3.024-1.013s-1.772-1.797-1.981-2.818c-.142-.701.033-1.361.518-1.984.494-.621 1.144-1.013 1.97-1.182.641-.131 1.318-.06 2.027.212.717.275 1.392.714 2.038 1.317l-.921-4.513-7.541 1.535-1.719-1.524 17.147-3.49m-.891 15.712l.025-.004.012.029-.029.004-.008-.029"/><path d="M191.706 278.135l4.366-1.493-1.888-5.51-4.364 1.494 1.887 5.509zm5.065-9.841l1.903 1.303-2.17.741 4.37 12.768-2.821-.657-1.189-3.485-4.362 1.493.495 1.451c.114.327.122.632.021.918-.096.282-.264.462-.492.541-.738.254-1.718.046-2.938-.615s-1.965-1.381-2.231-2.156c-.078-.231-.048-.47.098-.713a1.11 1.11 0 0 1 .621-.505l1.304-.447-1.885-5.511-3.048 1.045-1.906-1.303 14.228-4.87m-6.808-4.801a2.89 2.89 0 0 1 1.607-1.518 4.18 4.18 0 0 1 2.353-.235 4.1 4.1 0 0 1 2.114 1.077l-.255.6c-.394-.216-.788-.347-1.177-.386s-.755.001-1.075.132a2.51 2.51 0 0 0-1.426 1.398 2.53 2.53 0 0 0-.029 1.998c.15.362.412.709.799 1.038s.873.621 1.46.869l-.389.685c-.964-.319-1.798-.787-2.511-1.405-.705-.621-1.221-1.325-1.545-2.123-.277-.702-.255-1.411.073-2.129"/><path d="M210.496 261.948l2.026 1.064-2.069.978 5.762 12.193-2.88-.326-2.755-5.836-3.887 1.839c.859.232 1.607.579 2.249 1.048s1.11 1.02 1.408 1.647c.321.684.34 1.391.053 2.13-.292.73-.794 1.269-1.515 1.612-1.204.568-2.706.42-4.504-.438s-3.519-2.253-5.148-4.176l.698-.671c1.156 1.358 2.384 2.333 3.672 2.928s2.379.68 3.27.26a1.42 1.42 0 0 0 .774-.913c.13-.425.091-.849-.11-1.277-.308-.647-.92-1.22-1.847-1.717s-2.051-.854-3.384-1.09l7.217-3.411-1.301-2.754-11.356 5.367-2.03-1.064 15.655-7.394"/><path d="M214.807 259.223l2.122.915-1.988 1.146 6.741 11.691-2.899-.101-5.974-10.361-1.893 1.089-2.124-.913 6.015-3.467M67.784 168.054c0 3.884 9.048 5.862 11.414 6.466 10.116 2.591 20.654 3.837 31.05 4.557 9.634.671 21.355-.9 30.605-3.315-5.434-7.237-10.691-14.502-14.459-22.726-34.323 2.261-58.608 9.161-58.608 15.018zm105.752-15.094c-3.768 8.224-9.025 15.49-14.459 22.726 9.249 2.415 20.97 3.985 30.605 3.315 10.396-.72 20.935-1.966 31.05-4.556 2.365-.606 11.414-2.584 11.414-6.467 0-5.856-24.286-12.755-58.609-15.018"/></g><path d="M67.784 168.054c0 3.884 9.048 5.862 11.414 6.466 10.116 2.591 20.654 3.837 31.05 4.557 9.634.671 21.355-.9 30.605-3.315-5.434-7.237-10.691-14.502-14.459-22.726-34.323 2.261-58.608 9.161-58.608 15.018zm105.752-15.094c-3.768 8.224-9.025 15.49-14.459 22.726 9.249 2.415 20.97 3.985 30.605 3.315 10.396-.72 20.935-1.966 31.05-4.556 2.365-.606 11.414-2.584 11.414-6.467 0-5.856-24.286-12.755-58.609-15.018z" class="B C D E"/><path d="M140.863 175.725c-5.396-7.195-10.616-14.559-14.364-22.752l-.856-1.895c-1.886-4.481-3.398-9.067-4.276-13.508-3.953-19.958 2.346-40.212 13.386-56.796 6.448-9.692 13.32-19.559 15.075-31.339h.378c1.755 11.78 8.626 21.646 15.073 31.339 11.038 16.585 17.34 36.838 13.389 56.796-.882 4.441-2.394 9.027-4.279 13.508-.269.637-.568 1.256-.854 1.882-3.768 8.224-9.025 15.49-14.459 22.726-3.393-.884-6.465-1.882-8.962-2.928-2.504 1.048-5.579 2.045-8.979 2.932 0 0-.243.059-.272.033" fill="#fff"/><path d="M140.863 175.725c-5.396-7.195-10.616-14.559-14.364-22.752l-.856-1.895c-1.886-4.481-3.398-9.067-4.276-13.508-3.953-19.958 2.346-40.212 13.386-56.796 6.448-9.692 13.32-19.559 15.075-31.339h.378c1.755 11.78 8.626 21.646 15.073 31.339 11.038 16.585 17.34 36.838 13.389 56.796-.882 4.441-2.394 9.027-4.279 13.508-.269.637-.568 1.256-.854 1.882-3.768 8.224-9.025 15.49-14.459 22.726-3.393-.884-6.465-1.882-8.962-2.928-2.504 1.048-5.579 2.045-8.979 2.932 0 0-.243.059-.272.033z" class="B C D E"/><path d="M140.851 175.762c-9.249 2.415-20.97 3.985-30.605 3.315-10.396-.72-20.933-1.966-31.05-4.557-2.141-.547-9.751-2.219-11.18-5.409 7.848 28.781 41.558 50.425 81.967 50.425 40.403 0 74.116-21.641 81.96-50.422h-.074c-1.518 3.138-9.018 4.788-11.14 5.331-10.115 2.589-20.654 3.835-31.05 4.556-9.634.671-21.355-.9-30.605-3.315-3.393-.884-6.465-1.882-8.962-2.928-2.504 1.048-5.579 2.045-8.979 2.932 0 0-.243.059-.272.033l-.012.037z" fill="#781f19"/><path d="M140.851 175.762c-9.249 2.415-20.97 3.985-30.605 3.315-10.396-.72-20.933-1.966-31.05-4.557-2.141-.547-9.751-2.219-11.18-5.409 7.848 28.781 41.558 50.425 81.967 50.425 40.403 0 74.116-21.641 81.96-50.422h-.074c-1.518 3.138-9.018 4.788-11.14 5.331-10.115 2.589-20.654 3.835-31.05 4.556-9.634.671-21.355-.9-30.605-3.315-3.393-.884-6.465-1.882-8.962-2.928-2.504 1.048-5.579 2.045-8.979 2.932 0 0-.243.059-.272.033" class="B C D E"/><path d="M151.467 151.596c-.646.657-1.223 1.386-1.245 1.979h-.082c-.021-.624-.665-1.4-1.351-2.084v21.489h.777l.548-.222.547.222h.806v-21.383" fill="#bda345"/><path d="M151.467 151.596c-.646.657-1.223 1.386-1.245 1.979h-.082c-.021-.624-.665-1.4-1.351-2.084v21.489h.777l.548-.222.547.222h.806v-21.383z" class="B C D E"/><path d="M150.465 136.204h-.584c-2.956 0-5.425 2.127-6.086 5.114-.857 3.864.911 6.334 3.535 8.827.692.653 2.769 2.297 2.809 3.43h.082c.042-1.133 2.117-2.777 2.808-3.43 2.626-2.493 4.395-4.963 3.538-8.827-.664-2.988-3.133-5.114-6.087-5.114h-.583.568z" class="F"/><path d="M150.465 136.204h-.584c-2.956 0-5.425 2.127-6.086 5.114-.857 3.864.911 6.334 3.535 8.827.692.653 2.769 2.297 2.809 3.43h.082c.042-1.133 2.117-2.777 2.808-3.43 2.626-2.493 4.395-4.963 3.538-8.827-.664-2.988-3.133-5.114-6.087-5.114h-.583" class="B C D E G"/><path d="M143.795 141.318c.444-2.01 1.717-3.609 3.396-4.455l.227-.357s-7.353-5.959-16.55 1.195c.439-.201 3.997 2.871 4.471 3.21 2.437 1.744 5.014 2.451 8.049 1.9l.245-.383.163-1.11" class="F"/><path d="M143.795 141.318c.444-2.01 1.717-3.609 3.396-4.455l.227-.357s-7.353-5.959-16.55 1.195c.439-.201 3.997 2.871 4.471 3.21 2.437 1.744 5.014 2.451 8.049 1.9l.245-.383.163-1.11z" class="B C D E G"/><path d="M152.498 136.441l.091.143c1.97.739 3.482 2.493 3.979 4.734.118.539.177 1.047.198 1.538 2.894.443 5.376-.264 7.725-1.945.471-.339 4.03-3.41 4.469-3.21-9.197-7.153-16.463-1.26-16.463-1.26" class="F"/><path d="M152.498 136.441l.091.143c1.97.739 3.482 2.493 3.979 4.734.118.539.177 1.047.198 1.538 2.894.443 5.376-.264 7.725-1.945.471-.339 4.03-3.41 4.469-3.21-9.197-7.153-16.463-1.26-16.463-1.26z" class="B C D E G"/><path d="M149.799 94.271s-18.906 28.868-2.3 41.643h4.597c16.606-12.775-2.3-41.643-2.3-41.643h.004z" class="F"/><path d="M149.799 94.271s-18.906 28.868-2.3 41.643h4.597c16.606-12.775-2.3-41.643-2.3-41.643" stroke-linecap="round" class="B C D E G"/><path d="M145.693 101.846l-7.946-7c.7.617.405 4.692.42 5.617.033 2.215-.091 4.434-.312 6.64-.29 2.919-.913 5.749-1.368 8.639-.718 4.559-.171 9.333 2.35 13.286 1.85 2.903 5.31 5.412 8.483 6.733-10.979-8.667-6.021-24.512-1.627-33.914" class="F"/><path d="M145.693 101.846l-7.946-7c.7.617.405 4.692.42 5.617.033 2.215-.091 4.434-.312 6.64-.29 2.919-.913 5.749-1.368 8.639-.718 4.559-.171 9.333 2.35 13.286 1.85 2.903 5.31 5.412 8.483 6.733-10.979-8.667-6.021-24.512-1.627-33.914z" class="B C D E G"/><path d="M163.196 115.741l-1.371-8.639c-.221-2.206-.349-4.424-.311-6.64.012-.925-.282-5 .418-5.617l-8.006 7.054c4.399 9.437 9.339 25.307-1.748 33.941 3.221-1.301 6.779-3.855 8.666-6.815 2.521-3.952 3.07-8.726 2.351-13.286" class="F"/><path d="M163.196 115.741l-1.371-8.639c-.221-2.206-.349-4.424-.311-6.64.012-.925-.282-5 .418-5.617l-8.006 7.054c4.399 9.437 9.339 25.307-1.748 33.941 3.221-1.301 6.779-3.855 8.666-6.815 2.521-3.952 3.07-8.726 2.351-13.286z" class="B C D E G"/><path d="M153.313 135.334l.427.32c1.865-1.006 5.688-2.408 10.467-.648l.3-.096s1.644-4.488 4.454-4.488c0 0-3.73-1.978-8.65-.649-1.723 2.3-4.384 4.299-6.997 5.561" class="F"/><path d="M153.313 135.334l.427.32c1.865-1.006 5.688-2.408 10.467-.648l.3-.096s1.644-4.488 4.454-4.488c0 0-3.73-1.978-8.65-.649-1.723 2.3-4.384 4.299-6.997 5.561z" class="B C D E G"/><path d="M145.965 135.607l.25-.114-.107-.29c-2.523-1.262-5.063-3.199-6.729-5.42l-.025-.002c-4.94-1.348-8.684.64-8.684.64 2.807 0 4.45 4.488 4.45 4.488l.351.168c4.711-1.777 8.529-.491 10.496.53" class="F"/><path d="M145.965 135.607l.25-.114-.107-.29c-2.523-1.262-5.063-3.199-6.729-5.42l-.025-.002c-4.94-1.348-8.684.64-8.684.64 2.807 0 4.45 4.488 4.45 4.488l.351.168c4.711-1.777 8.529-.491 10.496.53z" class="B C D E G"/><path d="M145.648 101.94l2.309-4.547-3.267-4.527-2.555 5.621v.225l3.558 3.134c-.017.029-.029.064-.045.095" class="F"/><path d="M145.648 101.94l2.309-4.547-3.267-4.527-2.555 5.621v.225l3.558 3.134c-.017.029-.029.064-.045.095z" class="B C D E"/><path d="M153.927 101.9l3.906-3.442-2.54-5.592-3.322 4.599v.541l2.024 4.044-.068-.15" class="F"/><path d="M153.927 101.9l3.906-3.442-2.54-5.592-3.322 4.599v.541l2.024 4.044-.068-.15z" class="B C D E"/></svg>