<svg xmlns="http://www.w3.org/2000/svg" viewBox="0 0 309.44 108.73" width="184" height="65"><path fill="#e23324" d="M69.71 23.7c3.88-2.33 7.87-5.46 11.45-9.09 2.8-2.84-9.52-1.57-12.49.96-3.19 2.73-6.47 5.74-9.47 9.25-1.76 2.05 6.66 1.2 10.51-1.12zm225.34 63.93c2.19 1.31 2.09-5.53-2.32-8.28-15.79-9.84-58.97 7.31-75.34 9.26-3.07.37-4.19-.41-3.46-2.49 1.39-4.02 6.86-11.4 7.96-13.94 1.04-2.43.9-10.78-11.45-10.78-10.09 0-19.35 4.69-25.85 10.58-6.2 5.29-18.21 15.75-25.6 15.75-7.65 0 14.76-23.12 16-24.29 3.33-3.13-7.17-2.35-11.59 1.01-1.76 1.34-8.81 8.88-13.22 16.18-12.75 8.81-25.44 10.86-19.4 3.53 3.21-3.9 8.64-9.13 12.38-13.27 5.21-5.78 4.27-9.59-7.24-9.59-15.41 0-17.04 1.34-25.74 11.53-1.61 1.89-.78 6.64.89 4.99 10.43-10.32 10.2-9.48 24.01-9.48-2.22 2.36-6.18 4.71-12.89 13.23-5.98 7.6-2.07 13.74 6.43 13.74 4.7 0 11.71-2.2 18.12-6.72-.77 3.96.82 6.79 6.87 6.79 7.01 0 15.01-4.17 21.64-8.8-.83 5.03 1.76 8.8 9.18 8.8 5.71 0 12.35-2.24 19.21-8.19-.04 4.55 3.17 8.16 9.14 8.16 14.54-.01 64.79-18.26 82.27-7.72zm-106.73 1.2c-9.54 0 9.56-21.8 22.01-21.8 7.45 0-12.81 21.8-22.01 21.8zm-7.57-33.72c3.87-2.33 11.16-7.99 14.75-11.62 2.8-2.84-9.52-1.58-12.49.96-3.19 2.73-8.5 7.62-11.5 11.14-1.75 2.04 5.4 1.83 9.24-.48zm-75.31 23.22c-3.74 3.65-11.91 9.76-19.06 9.76-5.29 0 5.24-9.47 10.46-17.11 4.98-7.3.91-9.48-3.2-9.48-10.18 0-20.12 7.15-26.86 12.17 2.04-2.73 5.21-6.22 8.59-10.68 1.87-2.48-9.35-1.59-12.22 2.19l-3 3.97C50.41 80.86 35.7 88.76 28.47 88.76c-4.02 0-5.49-2.77-2.98-8.01 6.04-12.63 26.84-36.64 38.15-47.15 5.13-4.81-10.29-2.85-13.83.7-15.68 15.77-31.45 33.37-35.9 47.06-2.46 7.57-.19 14.37 9.22 14.37 7.72 0 16.28-3.83 23.55-8.37l-4.73 6.43c-2.05 2.78 8.35 1.76 10.54-1.04 8.22-10.52 27.98-23.46 33.48-23.46 5.01 0-12.24 12.92-12.08 20.83.2 10.39 24.26 4.03 32.43-6.67 1.27-1.64.27-6.24-.88-5.12z"/></svg>