<svg height="213.923" viewBox="0 0 467 213.923" width="467" xmlns="http://www.w3.org/2000/svg"><path d="M243.098 85.209h-5.656v15.768h-2.32V85.21h-5.655v-1.9h13.665zm5.079 4.23a4.76 4.76 0 0 1 3.88-1.832q4.15 0 4.196 4.694v8.676h-2.262V92.29a3.02 3.02 0 0 0-.656-2.104 2.6 2.6 0 0 0-1.98-.679 3.22 3.22 0 0 0-1.923.589 3.9 3.9 0 0 0-1.278 1.527v9.354h-2.262V82.313h2.262zm17.306 11.776a5.72 5.72 0 0 1-4.343-1.753 6.47 6.47 0 0 1-1.674-4.706v-.419a7.8 7.8 0 0 1 .746-3.484 5.77 5.77 0 0 1 2.082-2.398 5.2 5.2 0 0 1 2.907-.87 4.92 4.92 0 0 1 3.981 1.685 7.3 7.3 0 0 1 1.426 4.83v.927h-8.903a4.7 4.7 0 0 0 1.131 3.145 3.57 3.57 0 0 0 2.76 1.131 4 4 0 0 0 2.014-.475 5.2 5.2 0 0 0 1.448-1.29l1.369 1.064a5.5 5.5 0 0 1-4.944 2.613m-.282-11.764a2.99 2.99 0 0 0-2.263.984 4.8 4.8 0 0 0-1.13 2.771h6.571v-.17a4.26 4.26 0 0 0-.916-2.646 2.85 2.85 0 0 0-2.262-.94m15.497 11.527V83.308h5.78a6.7 6.7 0 0 1 4.321 1.188 4.28 4.28 0 0 1 1.46 3.473 3.56 3.56 0 0 1-.68 2.262 4.5 4.5 0 0 1-1.911 1.47 4.15 4.15 0 0 1 2.262 1.528 4.36 4.36 0 0 1 .78 2.658 4.72 4.72 0 0 1-1.538 3.744 6.38 6.38 0 0 1-4.355 1.358zm2.33-10.18h3.518a3.7 3.7 0 0 0 2.443-.758 2.59 2.59 0 0 0 .916-2.081 2.53 2.53 0 0 0-.848-2.127 4.16 4.16 0 0 0-2.58-.667h-3.45zm0 1.866v6.369h3.846a3.68 3.68 0 0 0 2.568-.849 2.94 2.94 0 0 0 .938-2.262c0-2.138-1.13-3.201-3.46-3.201zm21.345 7.014a4.79 4.79 0 0 1-3.857 1.538 4.1 4.1 0 0 1-3.19-1.21 5.24 5.24 0 0 1-1.131-3.609v-8.552h2.262v8.484c0 1.991.814 2.987 2.432 2.987a3.39 3.39 0 0 0 3.394-1.912v-9.559h2.262v13.133h-2.138zm13.54-2.184a1.66 1.66 0 0 0-.69-1.414 6.7 6.7 0 0 0-2.387-.87 11 11 0 0 1-2.714-.872 3.85 3.85 0 0 1-1.471-1.21 2.86 2.86 0 0 1-.486-1.674 3.4 3.4 0 0 1 1.368-2.738 5.36 5.36 0 0 1 3.484-1.13 5.45 5.45 0 0 1 3.62 1.13 3.65 3.65 0 0 1 1.391 2.942h-2.262a2.01 2.01 0 0 0-.78-1.584 3 3 0 0 0-1.98-.667 3.08 3.08 0 0 0-1.912.531 1.69 1.69 0 0 0-.69 1.391 1.39 1.39 0 0 0 .668 1.279 8.4 8.4 0 0 0 2.33.792 12 12 0 0 1 2.726.893 3.96 3.96 0 0 1 1.538 1.256 3.05 3.05 0 0 1 .51 1.787 3.4 3.4 0 0 1-1.403 2.828 5.95 5.95 0 0 1-3.654 1.052 6.6 6.6 0 0 1-2.794-.554 4.5 4.5 0 0 1-1.9-1.561 3.8 3.8 0 0 1-.69-2.16h2.262a2.26 2.26 0 0 0 .905 1.786 3.5 3.5 0 0 0 2.262.656 3.6 3.6 0 0 0 2.037-.509 1.6 1.6 0 0 0 .712-1.38m5.441-13.133a1.3 1.3 0 0 1 .34-.916 1.504 1.504 0 0 1 1.979 0 1.3 1.3 0 0 1 .34.916 1.3 1.3 0 0 1-.34.917 1.54 1.54 0 0 1-1.98 0 1.3 1.3 0 0 1-.339-.917m2.432 16.617h-2.262V87.844h2.262zm6.063-13.133.08 1.652a4.77 4.77 0 0 1 3.925-1.89q4.15 0 4.196 4.695v8.676h-2.262V92.29a3.02 3.02 0 0 0-.656-2.104 2.6 2.6 0 0 0-1.98-.679 3.17 3.17 0 0 0-1.911.589 3.85 3.85 0 0 0-1.29 1.527v9.354h-2.262V87.844zm17.42 13.37a5.72 5.72 0 0 1-4.344-1.752 6.47 6.47 0 0 1-1.651-4.706v-.419a7.8 7.8 0 0 1 .747-3.484 5.77 5.77 0 0 1 2.08-2.398 5.2 5.2 0 0 1 2.908-.87 4.92 4.92 0 0 1 3.982 1.685 7.3 7.3 0 0 1 1.425 4.83v.927h-8.902a4.7 4.7 0 0 0 1.13 3.145 3.57 3.57 0 0 0 2.76 1.131 4 4 0 0 0 2.014-.475 5.2 5.2 0 0 0 1.437-1.29l1.38 1.064a5.51 5.51 0 0 1-4.966 2.613m-.283-11.764a2.99 2.99 0 0 0-2.262.984 4.8 4.8 0 0 0-1.131 2.771h6.572v-.17a4.26 4.26 0 0 0-.916-2.646 2.85 2.85 0 0 0-2.24-.94zm15.995 8.042a1.66 1.66 0 0 0-.679-1.414 6.7 6.7 0 0 0-2.398-.87 11.3 11.3 0 0 1-2.703-.872 3.96 3.96 0 0 1-1.482-1.21 2.94 2.94 0 0 1-.475-1.674 3.4 3.4 0 0 1 1.369-2.738 5.36 5.36 0 0 1 3.484-1.13 5.48 5.48 0 0 1 3.62 1.13 3.65 3.65 0 0 1 1.39 2.942h-2.262a2.03 2.03 0 0 0-.791-1.584 2.94 2.94 0 0 0-1.969-.667 3.08 3.08 0 0 0-1.911.531 1.7 1.7 0 0 0-.724 1.425 1.38 1.38 0 0 0 .644 1.233 8.4 8.4 0 0 0 2.33.792 12 12 0 0 1 2.727.894 3.96 3.96 0 0 1 1.538 1.255 3.05 3.05 0 0 1 .51 1.788 3.4 3.4 0 0 1-1.415 2.828 5.93 5.93 0 0 1-3.653 1.052 6.6 6.6 0 0 1-2.783-.555 4.5 4.5 0 0 1-1.9-1.56 3.73 3.73 0 0 1-.69-2.161h2.262a2.26 2.26 0 0 0 .905 1.787 3.47 3.47 0 0 0 2.262.656 3.6 3.6 0 0 0 2.048-.509 1.58 1.58 0 0 0 .746-1.369m13.167 0a1.64 1.64 0 0 0-.69-1.414 6.7 6.7 0 0 0-2.387-.87 11 11 0 0 1-2.703-.872 3.85 3.85 0 0 1-1.482-1.21 2.86 2.86 0 0 1-.487-1.674 3.4 3.4 0 0 1 1.37-2.738 5.36 5.36 0 0 1 3.483-1.13 5.5 5.5 0 0 1 3.631 1.13 3.68 3.68 0 0 1 1.38 2.942h-2.262a2.01 2.01 0 0 0-.78-1.584 2.94 2.94 0 0 0-1.98-.667 3.1 3.1 0 0 0-1.912.531 1.69 1.69 0 0 0-.69 1.391 1.38 1.38 0 0 0 .645 1.233 8.3 8.3 0 0 0 2.319.792 12 12 0 0 1 2.726.894 4.1 4.1 0 0 1 1.55 1.256 3.13 3.13 0 0 1 .497 1.787 3.4 3.4 0 0 1-1.402 2.828 5.95 5.95 0 0 1-3.654 1.052 6.7 6.7 0 0 1-2.794-.555 4.64 4.64 0 0 1-1.9-1.56 3.8 3.8 0 0 1-.679-2.161h2.262a2.33 2.33 0 0 0 .905 1.787 3.5 3.5 0 0 0 2.263.656 3.7 3.7 0 0 0 2.047-.509 1.6 1.6 0 0 0 .724-1.335m17.872-4.389a11 11 0 0 1-4.366-2.115 4.08 4.08 0 0 1-1.369-3.11 4.31 4.31 0 0 1 1.675-3.394 6.64 6.64 0 0 1 4.332-1.357 7.1 7.1 0 0 1 3.246.7 5.3 5.3 0 0 1 2.263 1.935 5 5 0 0 1 .78 2.715h-2.41a3.24 3.24 0 0 0-1.017-2.534 4.16 4.16 0 0 0-2.885-.916 4.22 4.22 0 0 0-2.68.758 2.53 2.53 0 0 0-.962 2.115 2.26 2.26 0 0 0 .916 1.821 8.8 8.8 0 0 0 3.11 1.369 14.7 14.7 0 0 1 3.394 1.369 5.2 5.2 0 0 1 1.844 1.742 4.5 4.5 0 0 1 .6 2.341 4.1 4.1 0 0 1-1.674 3.394 7.17 7.17 0 0 1-4.525 1.29 8.3 8.3 0 0 1-3.394-.69 5.7 5.7 0 0 1-2.432-1.912 4.64 4.64 0 0 1-.86-2.76h2.342a3.04 3.04 0 0 0 1.188 2.533 4.94 4.94 0 0 0 3.156.928 4.53 4.53 0 0 0 2.828-.758 2.647 2.647 0 0 0 .079-4.05 10.5 10.5 0 0 0-3.179-1.414m15.09 6.278a3.17 3.17 0 0 0 2.093-.724 2.52 2.52 0 0 0 .995-1.82h2.127a4 4 0 0 1-.77 2.149 5.3 5.3 0 0 1-1.91 1.628 5.5 5.5 0 0 1-2.535.6 5.38 5.38 0 0 1-4.264-1.787 7.1 7.1 0 0 1-1.584-4.898v-.374a7.9 7.9 0 0 1 .701-3.393 5.27 5.27 0 0 1 2.025-2.262 5.66 5.66 0 0 1 3.11-.826 5.25 5.25 0 0 1 3.666 1.323 4.75 4.75 0 0 1 1.56 3.394h-2.126a3.08 3.08 0 0 0-.961-2.093 3 3 0 0 0-2.138-.814 3.15 3.15 0 0 0-2.658 1.233 5.8 5.8 0 0 0-.94 3.563v.418a5.66 5.66 0 0 0 .94 3.496 3.17 3.17 0 0 0 2.67 1.187m10.553-9.943a4.76 4.76 0 0 1 3.88-1.832q4.151 0 4.197 4.694v8.676h-2.263V92.29a3.02 3.02 0 0 0-.656-2.104 2.6 2.6 0 0 0-1.98-.679 3.2 3.2 0 0 0-1.922.589 3.96 3.96 0 0 0-1.256 1.527v9.354h-2.262V82.313h2.262zm11.187 4.853a7.7 7.7 0 0 1 .758-3.473 5.66 5.66 0 0 1 2.116-2.375 5.66 5.66 0 0 1 3.088-.837 5.53 5.53 0 0 1 4.343 1.855 7.13 7.13 0 0 1 1.663 4.943v.159a7.9 7.9 0 0 1-.735 3.393 5.54 5.54 0 0 1-2.059 2.455 5.8 5.8 0 0 1-3.133.848 5.49 5.49 0 0 1-4.321-1.855 7.07 7.07 0 0 1-1.663-4.91zm2.263.272a5.66 5.66 0 0 0 1.006 3.506 3.27 3.27 0 0 0 2.715 1.312 3.2 3.2 0 0 0 2.715-1.334 6.1 6.1 0 0 0 1.007-3.756 5.66 5.66 0 0 0-1.018-3.506 3.27 3.27 0 0 0-2.726-1.335 3.22 3.22 0 0 0-2.681 1.323 6.1 6.1 0 0 0-1.018 3.79m12.34-.272a7.7 7.7 0 0 1 .759-3.473 5.66 5.66 0 0 1 2.104-2.375 5.66 5.66 0 0 1 3.088-.837 5.57 5.57 0 0 1 4.343 1.855 7.13 7.13 0 0 1 1.652 4.943v.159a7.7 7.7 0 0 1-.735 3.393 5.66 5.66 0 0 1-2.093 2.455 5.84 5.84 0 0 1-3.133.848 5.5 5.5 0 0 1-4.333-1.855 7.07 7.07 0 0 1-1.651-4.91zm2.263.272a5.66 5.66 0 0 0 1.018 3.506 3.394 3.394 0 0 0 5.43 0 6.18 6.18 0 0 0 1.006-3.755 5.6 5.6 0 0 0-1.029-3.507 3.394 3.394 0 0 0-5.407 0 6.1 6.1 0 0 0-1.03 3.756zM465 100.977h-2.262V82.313h2.262zm-229.39 29.818v-11.39h-2.081v-1.732h2.081v-1.346a4.46 4.46 0 0 1 1.131-3.269 4.24 4.24 0 0 1 3.19-1.13 6 6 0 0 1 1.539.203l-.125 1.81a7 7 0 0 0-1.21-.114 2.18 2.18 0 0 0-1.686.645 2.6 2.6 0 0 0-.6 1.833v1.391h2.829v1.73h-2.828v11.392zm6.912-6.629a7.9 7.9 0 0 1 .758-3.472 5.59 5.59 0 0 1 5.203-3.213 5.53 5.53 0 0 1 4.332 1.855 7.13 7.13 0 0 1 1.663 4.943v.159a7.9 7.9 0 0 1-.735 3.393 5.5 5.5 0 0 1-2.104 2.376 5.77 5.77 0 0 1-3.133.848 5.52 5.52 0 0 1-4.322-1.855 7.13 7.13 0 0 1-1.662-4.92zm2.262.272a5.66 5.66 0 0 0 1.007 3.506 3.26 3.26 0 0 0 2.715 1.324 3.21 3.21 0 0 0 2.714-1.346 6.07 6.07 0 0 0 1.007-3.756 5.66 5.66 0 0 0-1.018-3.495 3.28 3.28 0 0 0-2.726-1.346 3.22 3.22 0 0 0-2.68 1.323 6.1 6.1 0 0 0-1.019 3.733zm19.264-4.796a7 7 0 0 0-1.131-.09 2.975 2.975 0 0 0-2.998 1.877v9.32h-2.262v-13.12h2.25v1.515a3.51 3.51 0 0 1 3.134-1.765 2.3 2.3 0 0 1 .996.17zm12.25-5.147v3.178h2.455v1.731h-2.455v8.156a1.8 1.8 0 0 0 .328 1.131 1.38 1.38 0 0 0 1.132.396 5 5 0 0 0 1.063-.147v1.81a6.2 6.2 0 0 1-1.72.249 2.77 2.77 0 0 1-2.262-.917 3.88 3.88 0 0 1-.769-2.579v-8.144h-2.398v-1.73h2.387v-3.134zm8.315 4.762a4.76 4.76 0 0 1 3.88-1.832c2.77 0 4.173 1.572 4.196 4.694v8.676h-2.262v-8.687a3.05 3.05 0 0 0-.645-2.093 2.6 2.6 0 0 0-1.99-.679 3.24 3.24 0 0 0-1.913.577 3.85 3.85 0 0 0-1.29 1.527v9.355h-2.261v-18.63h2.262zm17.306 11.787a5.77 5.77 0 0 1-4.343-1.753 6.56 6.56 0 0 1-1.674-4.695v-.43a7.9 7.9 0 0 1 .746-3.495 5.85 5.85 0 0 1 2.093-2.398 5.25 5.25 0 0 1 2.907-.871 4.9 4.9 0 0 1 3.97 1.685 7.3 7.3 0 0 1 1.426 4.83v.94h-8.891a4.66 4.66 0 0 0 1.13 3.133 3.54 3.54 0 0 0 2.76 1.199 3.9 3.9 0 0 0 1.98-.498 5.2 5.2 0 0 0 1.448-1.29l1.369 1.132a5.52 5.52 0 0 1-4.92 2.51m-.272-11.775a2.98 2.98 0 0 0-2.262.996 4.83 4.83 0 0 0-1.132 2.771h6.584v-.17a4.3 4.3 0 0 0-.928-2.658 2.83 2.83 0 0 0-2.262-.939m19.343 5.962.34 2.33.497-2.104 3.495-12.33h1.969l3.393 12.33.486 2.104.385-2.376 2.737-12.092h2.342l-4.332 17.703h-2.116l-3.642-12.873-.283-1.346-.271 1.346-3.778 12.873h-2.127l-4.265-17.669h2.33zm17.035-1.064a7.9 7.9 0 0 1 .758-3.472 5.59 5.59 0 0 1 5.204-3.213 5.53 5.53 0 0 1 4.332 1.855 7.13 7.13 0 0 1 1.663 4.943v.159a7.9 7.9 0 0 1-.735 3.393 5.5 5.5 0 0 1-2.104 2.376 5.77 5.77 0 0 1-3.134.848 5.52 5.52 0 0 1-4.32-1.855 7.13 7.13 0 0 1-1.664-4.92zm2.263.272a5.66 5.66 0 0 0 1.006 3.506 3.26 3.26 0 0 0 2.715 1.324 3.21 3.21 0 0 0 2.715-1.346 6.07 6.07 0 0 0 1.007-3.756 5.66 5.66 0 0 0-1.018-3.495 3.28 3.28 0 0 0-2.726-1.346 3.22 3.22 0 0 0-2.681 1.323 6.1 6.1 0 0 0-1.018 3.733zm19.264-4.796a7 7 0 0 0-1.132-.09 2.95 2.95 0 0 0-2.997 1.877v9.32h-2.263v-13.12h2.184v1.515a3.51 3.51 0 0 1 3.133-1.765 2.3 2.3 0 0 1 .995.17zm4.897 11.153h-2.262v-18.63h2.262zm3.405-6.629a7.62 7.62 0 0 1 1.437-4.852 4.853 4.853 0 0 1 7.398-.26v-6.788h2.262v18.63h-2.081l-.102-1.402a4.6 4.6 0 0 1-3.756 1.652 4.53 4.53 0 0 1-3.721-1.867 7.92 7.92 0 0 1-1.437-4.886zm2.263.26a5.9 5.9 0 0 0 .916 3.496 2.99 2.99 0 0 0 2.545 1.255 3.27 3.27 0 0 0 3.122-1.911v-6.03a3.28 3.28 0 0 0-3.088-1.854 2.99 2.99 0 0 0-2.58 1.266 6.45 6.45 0 0 0-.927 3.733zm13.02-7.228a4.93 4.93 0 0 1 .61-2.42 4.5 4.5 0 0 1 1.72-1.765 4.46 4.46 0 0 1 4.615 0 4.5 4.5 0 0 1 1.674 1.765 5.17 5.17 0 0 1 0 4.852 4.64 4.64 0 0 1-1.674 1.765 4.45 4.45 0 0 1-2.263.633 4.33 4.33 0 0 1-2.262-.644 4.5 4.5 0 0 1-1.674-1.765 5 5 0 0 1-.747-2.42m.792 0a4.14 4.14 0 0 0 .487 1.979 3.73 3.73 0 0 0 1.357 1.493 3.73 3.73 0 0 0 1.957.554 3.5 3.5 0 0 0 1.934-.554 3.85 3.85 0 0 0 1.369-1.482 4.32 4.32 0 0 0 0-3.982 3.73 3.73 0 0 0-1.369-1.481 3.68 3.68 0 0 0-3.846 0 3.8 3.8 0 0 0-1.38 1.459 4.2 4.2 0 0 0-.509 2.013m2.873.487v2.172h-.984v-5.487h1.821a2.38 2.38 0 0 1 1.55.453 1.56 1.56 0 0 1 .543 1.255 1.2 1.2 0 0 1-.69 1.132 1.13 1.13 0 0 1 .532.565 2.6 2.6 0 0 1 .147.894 7 7 0 0 0 0 .758 1.4 1.4 0 0 0 .079.362v.102h-.939a4.9 4.9 0 0 1-.09-1.245 1.02 1.02 0 0 0-.204-.712.97.97 0 0 0-.713-.215zm0-.86h.826a1.4 1.4 0 0 0 .815-.215.61.61 0 0 0 .328-.543.8.8 0 0 0-.238-.645 1.34 1.34 0 0 0-.826-.192h-.905zm-279.84 95.098A104.961 104.961 0 1 1 211.923 106.96 105.074 105.074 0 0 1 106.96 211.923" fill="#00684b"/><path d="M123.137 105.378h-1.052c-.17.984-.373 3.732-2.036 5.418-1.493 1.516-2.726 1.651-4.66 1.651h-5.396v-11.741h2.41c3.268 0 3.72 2.364 4.241 4.932h.939V95.016h-.939c-.52 2.647-.87 4.627-4.717 4.627h-1.934V88.795h5.237c4.966 0 5.475 3.54 6.074 5.746h1.041V87.63h-20.26v1.13h3.824v23.687h-3.823v1.132h21.051zm-43.833 7.07c1.414 0 2.432 1.855 7.07 1.855a9.19 9.19 0 0 0 6.595-2.704 8.26 8.26 0 0 0 2.466-5.803c0-9.513-14.977-6.719-14.977-13.382 0-2.952 2.59-4.355 5.079-4.355 3.869 0 5.78 3.156 6.436 6.527h1.052V87.63h-.995c-.125.803-.396 1.006-.735 1.006-.838 0-2.59-1.696-5.758-1.696a7.273 7.273 0 0 0-7.59 7.431c0 7.296 9.05 6.787 12.725 10.045a4.29 4.29 0 0 1 1.46 3.303 5.24 5.24 0 0 1-1.2 3.45 5.66 5.66 0 0 1-4.524 2.014c-5.102 0-6.787-3.156-7.85-7.805h-1.132v8.235h.996c.158-1.03.679-1.132.939-1.132m23.822 20.656c2.138 2.16 2.624 5.474 2.885 7.07h1.357c.26-1.596.747-4.91 2.873-7.07 2.263-2.33 4.977-2.5 7.183-2.5h66.185V129.2h-66.287c-3.563 0-5.757.453-8.167 2.907a9.28 9.28 0 0 0-2.51 5.17 9.28 9.28 0 0 0-2.467-5.192c-2.42-2.455-4.615-2.908-8.167-2.908h-66.66v1.437h66.604c2.262 0 4.886.17 7.171 2.5m-40.27-44.32h3.779v17.432L55.007 87.63h-7.85v1.165h3.766v23.652h-3.767v1.166h8.8v-1.166H52.18v-21.74l14.513 23.12h1.255V88.795h3.767V87.63h-8.8zm-33.505 23.653v1.166h11.674v-1.166h-3.778V88.795h3.778V87.63H29.408v1.165h3.812v23.652zm150.186-21.944a15.5 15.5 0 0 0-9.853-2.987c-2.138 0-4.298.114-6.436.114h-4.072v1.13h3.766v23.687h-3.766v1.132h3.506c3.801 0 5.656.158 7.127.158 4.343 0 7.578-.622 10.734-3.823a12.83 12.83 0 0 0 3.722-9.14 12.65 12.65 0 0 0-4.728-10.271m-2.987 19.92c-1.798 1.82-4.05 2.262-6.787 2.262-.984 0-2.714-.158-2.714-.158V88.772h2.613a9.38 9.38 0 0 1 7.703 3.394c1.72 2.262 2.353 5.769 2.353 8.823-.034 4.355-1.493 7.669-3.224 9.434zm-25.202 2.024-9.264-25.293h-1.313l-9.207 25.293h-3.088v1.132h8.008v-1.132h-3.563l2.783-7.918h8.37l2.828 7.918h-3.563v1.132h11.108v-1.132zm-15.226-9.049 3.824-10.35 3.767 10.361z" fill="#fff"/></svg>