<svg viewBox="0 0 540 218.829" width="540" height="218.829" xmlns:xlink="http://www.w3.org/1999/xlink" xmlns="http://www.w3.org/2000/svg"><defs><path id="a" d="M0 219h539.31V.17H0Z"/></defs><g fill="none" fill-rule="evenodd"><path fill="#000" d="M73.384 88.719h22.099V0H73.384Z"/><g transform="translate(-68.886 -.171)"><path fill="#000" d="M201.44 30.94c1.89-2.02 4.11-4.38 7.53-6.2 2.89-1.53 6.32-2.94 10.97-2.94 3.9 0 8.3.76 11.69 2.64 6.91 3.64 8.66 9.53 8.66 19.7v44.75h-19.22V52.04c0-5.89-.13-8.02-.88-9.78-1.51-3.51-4.91-5.01-8.69-5.01-10.19 0-10.19 8.15-10.19 16.29v35.34h-19.27V23.5h19.39v7.44zm58.78 35.95c5.28 5.14 12.54 8.94 19.9 8.94 4.69 0 11.8-1.5 11.8-6.39 0-2.26-1.4-3.13-2.54-3.76-2.92-1.5-7.48-1.88-11.29-2.5-2.92-.5-5.96-1.13-8.85-2-4.02-1.13-8.03-2.76-10.93-5.64-2.89-2.88-4.9-7.39-4.9-12.28 0-10.78 9.3-21.92 27.73-21.92 15.54 0 25.05 6.21 29.55 9.34l-10.83 11.29c-6.12-4.76-13.27-6.36-17.83-6.36-7.61 0-9.39 3.01-9.39 4.89 0 3.76 4.19 4.51 10.53 5.64 13.25 2.38 28.5 5.89 28.5 21.43 0 15.43-15.5 22.97-31.04 22.97-18.29 0-28.18-8.55-32.32-12.45zm109.63-.25c-3.04 5.05-6.03 9.89-16.59 9.89-10.43 0-15.08-8.22-14.95-16.44h46.87c-.25-7.43-.75-20.21-9.3-29.34-8.41-9.03-19.32-9.41-24.49-9.41-25.88 0-32.8 20.29-32.8 36.11 0 21.56 12.67 33.83 33.17 33.83 11.57 0 19.53-3.33 25.64-8.89 3.4-3.09 5.62-6.33 7.9-10.03zM338.43 48c.63-2.75 1.26-5.74 3.89-8.62 1.89-2 5.15-4.25 9.8-4.25 3.39 0 7.04 1.25 9.43 3.62 2.76 2.87 3.26 6.5 3.64 9.24h-26.76zm76.41-17.06c4.27-3.65 8.92-7.41 18.96-8.41v17.16l-6.41 1c-9.29 1.63-12.05 4.76-12.05 13.04v35.16h-19.27V23.24h18.76v7.7zm47.6.01c2.29-2.64 7.35-9.14 18.76-9.14 10.78 0 14.66 4.02 18.16 7.66 3.79-3.14 9.11-7.66 19.63-7.66 10.78 0 16.29 5.4 18.29 9.42 1.63 3.52 1.76 8.03 1.76 15.05v42.61h-19.03V54.56c0-3.76 0-8.65-.76-11.15-1.77-5.51-6.97-5.89-8.49-5.89-1.9 0-4.44.51-6.33 2.01-3.68 2.88-3.68 6.64-3.68 13.78V88.9h-19.03V50.17c0-2.89-.13-6.77-1.9-9.28-1.52-2.01-4.44-3.39-7.61-3.39-1.52 0-3.55.38-5.32 1.51-4.31 2.88-4.44 8.14-4.44 12.59v37.29h-19.03V23.48h19.03v7.47z"/><path fill="#e74011" d="M156.71 106.25a14.88 14.88 0 0 0-17.86 17.87c1.21 5.46 5.61 9.86 11.07 11.07a14.886 14.886 0 0 0 17.87-17.87c-1.21-5.46-5.62-9.86-11.08-11.07"/><mask id="b" fill="#fff"><use xlink:href="#a" width="100%" height="100%"/></mask><path fill="#000" d="M141.96 187.79v-18.7h4.52v14.76h7.09v3.94zm18.88-5.75c-.15.05-.31.11-.46.19-.98.42-1.23 1.01-1.23 1.54 0 .08.03.37.15.64.15.27.54.77 1.36.77.72 0 1.34-.42 1.52-.56 1.16-.85 1.21-2.15 1.21-3.44zm2.93 5.75v-1.24c-.28.21-.54.4-.82.58a5.63 5.63 0 0 1-3.29 1.03c-2.41 0-3.52-1.35-3.96-2.28a4.55 4.55 0 0 1-.44-1.93c0-2.49 2.16-3.68 2.75-3.95 1-.45 2.83-.82 5.37-1.3v-.77c0-.48-.08-1.67-1.52-1.67-1.16 0-1.7.56-1.9 1.01-.05.11-.13.32-.18.61h-3.96c.05-.56.08-1.75 1.08-2.78 1.1-1.11 2.57-1.32 3.03-1.4.77-.11 1.41-.11 1.72-.11 1.88 0 4.42.45 5.32 2.44.15.37.28.74.28 1.54v8.08c0 1.19.05 1.64.39 2.15h-3.87zm24.97-2.17c-1.18 1.83-3.65 2.54-5.68 2.54-.72 0-2.95-.13-4.91-1.38-.8-.5-1.34-1.06-1.59-1.3l2.52-2.33c.23.24.46.48.72.66.87.71 2.08 1.24 3.19 1.24.18 0 .54-.03.98-.13.59-.13 1.39-.48 1.39-1.24-.03-.95-1.21-1.06-2.65-1.3-2.8-.48-4.08-1.14-4.78-2.52a4 4 0 0 1-.41-1.72c0-.37.08-1.19.56-2.07.62-1.14 2.13-2.57 5.11-2.57.85 0 2.83.13 4.86 1.32.39.24.75.48 1.1.74l-2.44 2.33a6 6 0 0 0-.72-.53c-.72-.45-1.8-.85-2.65-.85-.57 0-1.08.16-1.26.24-.49.24-.62.58-.62.82 0 .27.15.5.36.66.39.27 1.36.4 1.8.5l1.77.4c2.13.48 3.98 1.59 3.98 4.16.01 1.16-.4 1.99-.63 2.33m13.8.24c-1.77 2.15-4.06 2.38-5.03 2.38-.59 0-1.77-.08-3.13-.77-2.52-1.27-3.52-3.73-3.52-6.49 0-.63.03-1.96.67-3.5 1.51-3.63 4.83-3.92 6.06-3.92 1.05 0 3.42.21 5.21 2.54.15.21.26.37.51.79l-2.93 1.72c-.03-.08-.23-.5-.44-.8-.23-.29-.98-1.14-2.18-1.14-.28 0-.85.03-1.44.48-1.36 1.06-1.41 3.42-1.41 3.68 0 1.19.39 2.73 1.28 3.5.26.21.82.66 1.7.66 1.28-.03 1.98-.9 2.21-1.25.13-.21.23-.37.38-.82l2.98 1.59c-.28.47-.59.95-.92 1.35m3.08 1.94h3.93v-13.83h-3.93zm0-15.56h3.93v-3.15h-3.93zm14.62 4.48c-.54-.26-.98-.26-1.21-.26-1.57 0-2.29 1.19-2.49 1.67-.1.24-.21.53-.31 1.06h5.47c-.05-.46-.12-1.86-1.46-2.47m-4.03 5.01c0 .13-.03.45.05.82.31 1.62 1.41 2.62 3.01 2.62.23 0 .75-.03 1.28-.24 1.34-.48 1.93-1.88 2.11-2.23l2.98 1.59c-.54.82-.82 1.19-1.13 1.56-1.98 2.25-4.55 2.44-5.55 2.44-.41 0-1.36-.03-2.42-.37-2.98-.95-4.37-3.65-4.37-6.78 0-.85.05-3.42 1.72-5.4.82-.95 2.23-2.2 5.16-2.2.9 0 3.57.11 5.24 2.52 1.52 2.15 1.46 5.01 1.49 5.67zm19.91 6.06v-7.81c0-.93-.03-1.62-.15-1.99-.18-.48-.67-1.11-1.8-1.11-.18 0-.85 0-1.34.42-.67.53-.74 1.38-.74 3.02v7.47h-3.96v-13.8h4.01v1.19c.13-.13.28-.34.62-.61.49-.37 1.57-.95 3.16-.95.31 0 1.44.03 2.39.56 1.64.9 1.77 2.46 1.77 4.16v9.46h-3.96zm18.26-1.93c-1.77 2.15-4.06 2.38-5.04 2.38-.59 0-1.77-.08-3.13-.77-2.52-1.27-3.52-3.73-3.52-6.49 0-.63.03-1.96.67-3.5 1.52-3.63 4.83-3.92 6.06-3.92 1.05 0 3.42.21 5.22 2.54.15.21.26.37.51.79l-2.93 1.72c-.03-.08-.23-.5-.44-.8-.23-.29-.98-1.14-2.18-1.14-.28 0-.85.03-1.44.48-1.36 1.06-1.41 3.42-1.41 3.68 0 1.19.39 2.73 1.28 3.5.26.21.82.66 1.7.66 1.28-.03 1.98-.9 2.21-1.25.13-.21.23-.37.38-.82l2.98 1.59c-.27.47-.58.95-.92 1.35m10.2-9.14c-.54-.26-.98-.26-1.21-.26-1.57 0-2.29 1.19-2.49 1.67-.1.24-.21.53-.31 1.06h5.47c-.04-.46-.12-1.86-1.46-2.47m-4.03 5.01c0 .13-.03.45.05.82.31 1.62 1.41 2.62 3.01 2.62.23 0 .75-.03 1.28-.24 1.34-.48 1.93-1.88 2.11-2.23l2.98 1.59c-.54.82-.82 1.19-1.13 1.56-1.98 2.25-4.55 2.44-5.55 2.44-.41 0-1.36-.03-2.41-.37-2.98-.95-4.37-3.65-4.37-6.78 0-.85.05-3.42 1.72-5.4.82-.95 2.23-2.2 5.16-2.2.9 0 3.57.11 5.24 2.52 1.52 2.15 1.46 5.01 1.49 5.67zm27.67-4.32a2.43 2.43 0 0 0-1.18-.79c-.26-.08-.46-.08-.57-.08-1.46 0-2.83 1.38-2.83 4.37 0 .29-.05 1.96.69 3.1.21.29.46.56.77.74.18.13.64.37 1.26.37 1.36 0 1.9-1.01 2.13-1.43.31-.58.64-1.4.64-2.89.01-.4.07-2.2-.91-3.39m3.49 8.16c-.75 1.16-1.67 1.77-2.11 1.99-.44.21-1.23.5-2.49.5-1.41 0-2.13-.42-3.29-1.17v5.7h-4.01v-18.62h3.52l.02 1.35c.21-.26.28-.4.57-.61.49-.42 1.54-1.06 3.19-1.06.77 0 2.57.13 4.03 1.75 1.36 1.48 1.8 3.52 1.8 5.46-.02 2.35-.74 3.91-1.23 4.71m11.8-8.27c-.36-.27-.9-.53-1.95-.53-.18 0-.92.051-1.49.4-.72.42-1.57 1.62-1.57 3.66 0 1.35.44 2.36.69 2.78.31.48 1.08 1.35 2.57 1.35 2.18 0 3.16-1.88 3.16-3.95 0-2.09-.64-3.15-1.41-3.71m3.05 9.3c-.77.66-2.34 1.62-4.85 1.62-.69 0-3.42-.13-5.27-1.99-.8-.79-1.93-2.49-1.93-5.38 0-.79.05-3.05 1.57-4.93.92-1.14 2.77-2.57 6.16-2.36 1.57.08 2.96.45 4.21 1.48 1.67 1.4 2.47 3.6 2.47 5.83.01 3.13-1.43 4.94-2.36 5.73m12.95 1.19v-1.3c-.28.32-.44.48-.59.61-.49.4-1.67 1.09-3.31 1.09-.31 0-1.8 0-2.85-.85-1.49-1.22-1.36-3.44-1.36-5.14v-8.24h3.98v8.61c0 .87.03 1.54.74 1.99.23.13.57.32 1.16.32 1.26 0 1.93-.74 2.11-1.24.13-.34.15-.69.15-1.06v-8.61h3.93v13.83h-3.96zm13.88-10.17c-.13.03-.75.11-1.23.29-1.05.37-1.23 1.06-1.23 2.09v7.79H327v-13.83h3.83v1.43c.33-.29.69-.66 1.57-1.03 1.08-.45 1.82-.5 2.31-.56v3.6zm10.79 10.17h3.93v-18.7h-3.93zm12.43-5.75c-.16.05-.31.11-.46.19-.98.42-1.23 1.01-1.23 1.54 0 .08.03.37.16.64.15.27.54.77 1.36.77.72 0 1.34-.42 1.52-.56 1.16-.85 1.21-2.15 1.21-3.44zm2.93 5.75v-1.24c-.28.21-.54.4-.82.58a5.63 5.63 0 0 1-3.29 1.03c-2.42 0-3.52-1.35-3.96-2.28a4.55 4.55 0 0 1-.44-1.93c0-2.49 2.16-3.68 2.75-3.95 1-.45 2.83-.82 5.37-1.3v-.77c0-.48-.08-1.67-1.52-1.67-1.16 0-1.7.56-1.9 1.01-.05.11-.13.32-.18.61h-3.96c.05-.56.08-1.75 1.08-2.78 1.1-1.11 2.57-1.32 3.03-1.4.77-.11 1.41-.11 1.72-.11 1.88 0 4.42.45 5.32 2.44.15.37.28.74.28 1.54v8.08c0 1.19.05 1.64.39 2.15h-3.87zm24.97-2.17c-1.18 1.83-3.65 2.54-5.68 2.54-.72 0-2.95-.13-4.91-1.38-.8-.5-1.34-1.06-1.59-1.3l2.52-2.33c.23.24.46.48.72.66.87.71 2.08 1.24 3.19 1.24.18 0 .54-.03.98-.13.59-.13 1.39-.48 1.39-1.24-.03-.95-1.21-1.06-2.65-1.3-2.8-.48-4.08-1.14-4.78-2.52a4 4 0 0 1-.41-1.72c0-.37.08-1.19.57-2.07.62-1.14 2.13-2.57 5.11-2.57.85 0 2.83.13 4.85 1.32.39.24.75.48 1.11.74l-2.44 2.33a6 6 0 0 0-.72-.53c-.72-.45-1.8-.85-2.65-.85-.57 0-1.08.16-1.26.24-.49.24-.62.58-.62.82 0 .27.15.5.36.66.38.27 1.36.4 1.8.5l1.77.4c2.13.48 3.98 1.59 3.98 4.16 0 1.16-.41 1.99-.64 2.33m7.97-3.58c-.15.05-.31.11-.46.19-.98.42-1.23 1.01-1.23 1.54 0 .08.03.37.15.64.15.27.54.77 1.36.77.72 0 1.33-.42 1.52-.56 1.16-.85 1.21-2.15 1.21-3.44zm2.92 5.75v-1.24c-.28.21-.54.4-.82.58a5.63 5.63 0 0 1-3.29 1.03c-2.41 0-3.52-1.35-3.96-2.28a4.55 4.55 0 0 1-.44-1.93c0-2.49 2.16-3.68 2.75-3.95 1-.45 2.83-.82 5.37-1.3v-.77c0-.48-.08-1.67-1.52-1.67-1.16 0-1.7.56-1.9 1.01-.05.11-.13.32-.18.61h-3.96c.05-.56.08-1.75 1.08-2.78 1.1-1.11 2.57-1.32 3.03-1.4.77-.11 1.41-.11 1.72-.11 1.88 0 4.42.45 5.32 2.44.15.37.28.74.28 1.54v8.08c0 1.19.05 1.64.38 2.15h-3.86zm15.14 0v-7.81c0-.93-.03-1.62-.16-1.99-.18-.48-.67-1.11-1.8-1.11-.18 0-.85 0-1.34.42-.67.53-.75 1.38-.75 3.02v7.47h-3.96v-13.8h4.01v1.19c.13-.13.28-.34.62-.61.49-.37 1.57-.95 3.16-.95.31 0 1.44.03 2.39.56 1.64.9 1.77 2.46 1.77 4.16v9.46h-3.94zm11.87-10.99v6.2c0 .56-.03.87.1 1.11.23.45.85.45.92.45.46 0 .92-.03 1.39-.03v3.15c-.26.05-1.18.21-2.08.21-.28 0-.56 0-.82-.03-.36-.03-1.54 0-2.44-.85-1.03-.93-.98-2.33-.98-3.6v-6.65h-1.95v-2.49h1.95v-4.32h3.9v4.34h2.62v2.49h-2.61zm11.4-4.53h-2.59l1.88-3.52h4.67zm.44 4.45c-.54-.26-.98-.26-1.211-.26-1.569 0-2.289 1.19-2.489 1.67-.1.24-.21.53-.31 1.06h5.47c-.05-.46-.12-1.86-1.46-2.47m-4.03 5.01c0 .13-.03.45.05.82.31 1.61 1.41 2.62 3.01 2.62.23 0 .75-.03 1.29-.24 1.33-.48 1.93-1.88 2.11-2.22l2.98 1.59c-.54.82-.82 1.19-1.13 1.56-1.98 2.25-4.55 2.44-5.55 2.44-.41 0-1.36-.03-2.41-.37-2.98-.95-4.37-3.65-4.37-6.78 0-.85.05-3.42 1.72-5.4.82-.95 2.23-2.2 5.16-2.2.9 0 3.57.11 5.24 2.52 1.51 2.14 1.46 5.01 1.49 5.67h-9.59zM263.2 203.39v3.94h8.66v3.6h-8.66v7.58h-4.52v-18.7h13.92v3.58zm17.93 4.95c-.13.03-.75.11-1.23.29-1.05.37-1.23 1.06-1.23 2.09v7.79h-3.93v-13.83h3.83v1.43c.33-.29.69-.66 1.57-1.03 1.08-.45 1.83-.5 2.31-.56v3.6zm11.33-.32c-.36-.26-.9-.53-1.95-.53-.18 0-.92.05-1.49.4-.72.42-1.57 1.62-1.57 3.66 0 1.35.44 2.36.69 2.78.31.48 1.08 1.35 2.57 1.35 2.18 0 3.16-1.88 3.16-3.95 0-2.09-.64-3.15-1.41-3.71m3.06 9.3c-.77.66-2.34 1.62-4.85 1.62-.69 0-3.42-.13-5.27-1.99-.8-.79-1.93-2.49-1.93-5.38 0-.79.05-3.05 1.57-4.93.92-1.14 2.77-2.57 6.17-2.36 1.57.08 2.96.45 4.21 1.48 1.67 1.4 2.47 3.6 2.47 5.83-.01 3.13-1.45 4.93-2.37 5.73m20.53 1.19v-7.26c0-1.43 0-2.25-.36-2.83-.31-.53-.92-.79-1.49-.79-.33 0-1.26.08-1.75.98-.31.56-.28 1.14-.28 2.38v7.52h-3.93v-8.21c0-1.32-.18-1.91-.77-2.3-.33-.24-.74-.34-1.16-.34-.18 0-.69 0-1.13.34-.82.64-.85 1.72-.85 2.62v7.89h-3.9v-13.83h3.9l.03 1.43c.23-.29.39-.48.67-.71.51-.42 1.49-1.09 3.11-1.09.31 0 1.69.03 2.67.66.41.27.74.61 1.08.95.49-.42.67-.56.95-.74.46-.29 1.57-.87 3.03-.87.46 0 2.34.03 3.44 1.51.64.82.67 1.7.67 3.68v9h-3.93zm25.3-2.17c-1.18 1.83-3.65 2.54-5.68 2.54-.72 0-2.96-.13-4.91-1.38-.8-.5-1.34-1.06-1.59-1.3l2.52-2.33c.23.24.46.48.72.66.87.72 2.08 1.25 3.19 1.25.18 0 .54-.03.98-.13.59-.13 1.39-.48 1.39-1.25-.03-.95-1.21-1.06-2.65-1.3-2.8-.48-4.08-1.14-4.78-2.52a4 4 0 0 1-.41-1.72c0-.37.08-1.19.57-2.07.62-1.14 2.13-2.57 5.11-2.57.85 0 2.83.13 4.86 1.32.38.24.74.48 1.1.74l-2.44 2.33a6 6 0 0 0-.72-.53c-.72-.45-1.8-.85-2.65-.85-.57 0-1.08.16-1.26.24-.49.24-.62.58-.62.82 0 .26.15.5.36.66.38.27 1.36.4 1.8.5l1.77.4c2.13.48 3.98 1.59 3.98 4.16 0 1.16-.41 1.98-.64 2.33m13.8.23c-1.77 2.15-4.06 2.38-5.04 2.38-.59 0-1.77-.08-3.13-.77-2.52-1.27-3.52-3.73-3.52-6.49 0-.64.03-1.96.67-3.5 1.52-3.63 4.83-3.92 6.06-3.92 1.05 0 3.42.21 5.21 2.54.15.21.26.37.51.79l-2.93 1.72c-.03-.08-.23-.5-.44-.79-.23-.29-.98-1.14-2.18-1.14-.28 0-.85.03-1.44.48-1.36 1.06-1.41 3.42-1.41 3.68 0 1.19.38 2.73 1.28 3.5.26.21.82.66 1.7.66 1.28-.03 1.98-.9 2.21-1.25.13-.21.23-.37.39-.82l2.98 1.59c-.28.47-.59.95-.92 1.34m3.08 1.94h3.93v-13.83h-3.93zm0-15.55h3.93v-3.15h-3.93zm14.62 4.48c-.54-.26-.98-.26-1.21-.26-1.57 0-2.29 1.19-2.49 1.67-.1.24-.2.53-.31 1.06h5.47c-.05-.46-.12-1.86-1.46-2.47m-4.03 5c0 .13-.03.45.05.82.31 1.62 1.41 2.62 3.01 2.62.23 0 .74-.03 1.28-.24 1.34-.48 1.93-1.88 2.11-2.23l2.98 1.59c-.54.82-.82 1.19-1.13 1.56-1.98 2.25-4.55 2.44-5.55 2.44-.41 0-1.36-.03-2.42-.37-2.98-.95-4.37-3.65-4.37-6.78 0-.85.05-3.42 1.72-5.4.82-.95 2.23-2.2 5.16-2.2.9 0 3.57.11 5.24 2.52 1.52 2.15 1.46 5 1.49 5.67zm19.91 6.07v-7.81c0-.93-.03-1.62-.15-1.99-.18-.48-.67-1.11-1.8-1.11-.18 0-.85 0-1.34.42-.67.53-.74 1.38-.74 3.02v7.47h-3.96v-13.8h4.01v1.19c.13-.13.28-.34.62-.61.49-.37 1.57-.95 3.16-.95.31 0 1.44.03 2.39.55 1.64.9 1.77 2.46 1.77 4.16v9.45h-3.96zm18.27-1.94c-1.77 2.15-4.06 2.38-5.04 2.38-.59 0-1.77-.08-3.13-.77-2.52-1.27-3.52-3.73-3.52-6.49 0-.64.03-1.96.67-3.5 1.52-3.63 4.83-3.92 6.06-3.92 1.05 0 3.42.21 5.21 2.54.15.21.26.37.51.79l-2.93 1.72a4.6 4.6 0 0 0-.44-.79c-.23-.29-.98-1.14-2.18-1.14-.28 0-.85.03-1.44.48-1.36 1.06-1.41 3.42-1.41 3.68 0 1.19.38 2.73 1.28 3.5.26.21.82.66 1.7.66 1.28-.03 1.98-.9 2.21-1.25.13-.21.23-.37.38-.82l2.98 1.59c-.27.47-.58.95-.91 1.34m10.2-9.13c-.54-.26-.98-.26-1.21-.26-1.57 0-2.29 1.19-2.49 1.67a4.8 4.8 0 0 0-.31 1.06h5.47c-.05-.46-.13-1.86-1.46-2.47m-4.04 5c0 .13-.03.45.05.82.31 1.62 1.41 2.62 3 2.62.23 0 .75-.03 1.28-.24 1.34-.48 1.93-1.88 2.11-2.23l2.98 1.59c-.54.82-.82 1.19-1.13 1.56-1.98 2.25-4.55 2.44-5.55 2.44-.41 0-1.36-.03-2.41-.37-2.98-.95-4.37-3.65-4.37-6.78 0-.85.05-3.42 1.72-5.4.82-.95 2.24-2.2 5.16-2.2.9 0 3.57.11 5.24 2.52 1.52 2.15 1.46 5 1.49 5.67zm23.77-4.92v6.2c0 .56-.03.87.1 1.11.23.45.85.45.93.45.46 0 .92-.03 1.39-.03v3.15c-.26.05-1.18.21-2.08.21-.28 0-.56 0-.82-.03-.36-.03-1.54 0-2.44-.85-1.03-.93-.98-2.33-.98-3.6v-6.65h-1.95v-2.49h1.94v-4.32h3.91v4.34h2.62v2.49h-2.62zm12.77.5c-.36-.26-.9-.53-1.95-.53-.18 0-.92.05-1.49.4-.72.42-1.57 1.62-1.57 3.66 0 1.35.44 2.36.69 2.78.31.48 1.08 1.35 2.57 1.35 2.18 0 3.16-1.88 3.16-3.95 0-2.09-.65-3.15-1.41-3.71m3.05 9.3c-.77.66-2.34 1.62-4.85 1.62-.69 0-3.42-.13-5.27-1.99-.8-.79-1.93-2.49-1.93-5.38 0-.79.05-3.05 1.57-4.93.92-1.14 2.77-2.57 6.16-2.36 1.57.08 2.95.45 4.21 1.48 1.67 1.4 2.47 3.6 2.47 5.83.01 3.13-1.43 4.93-2.36 5.73m20.56 1.19v-7.23c0-1.06.05-2.46-.92-3.15-.33-.24-.72-.34-1.11-.34-.21 0-.72.05-1.18.37-.85.61-.95 1.56-.95 3.47v6.89h-3.96v-18.7h3.96l.03 6.33c.08-.08.41-.48.77-.74 1.23-.98 2.47-1.09 3.03-1.09 1.8 0 2.83.87 3.26 1.38.28.32.51.72.64 1.11.23.61.36 1.3.36 2.62v9.08zm14.54-11.07c-.54-.26-.98-.26-1.21-.26-1.57 0-2.29 1.19-2.49 1.67-.1.24-.21.53-.31 1.06h5.47c-.05-.46-.13-1.86-1.46-2.47m-4.04 5c0 .13-.03.45.05.82.31 1.62 1.41 2.62 3.01 2.62.23 0 .75-.03 1.28-.24 1.34-.48 1.93-1.88 2.11-2.23l2.98 1.59c-.54.82-.82 1.19-1.13 1.56-1.98 2.25-4.55 2.44-5.55 2.44-.41 0-1.36-.03-2.41-.37-2.98-.95-4.37-3.65-4.37-6.78 0-.85.05-3.42 1.72-5.4.82-.95 2.24-2.2 5.16-2.2.9 0 3.57.11 5.24 2.52 1.52 2.15 1.46 5 1.49 5.67zm16.83.32c-.15.05-.31.11-.46.19-.98.42-1.23 1.01-1.23 1.54 0 .08.03.37.15.64.15.27.54.77 1.36.77.72 0 1.33-.42 1.51-.56 1.16-.85 1.21-2.15 1.21-3.44zm2.93 5.75v-1.24c-.28.21-.54.4-.82.58a5.7 5.7 0 0 1-3.29 1.03c-2.42 0-3.52-1.35-3.96-2.28-.28-.58-.44-1.27-.44-1.93 0-2.49 2.16-3.68 2.75-3.95 1-.45 2.83-.82 5.37-1.3v-.77c0-.48-.08-1.67-1.51-1.67-1.16 0-1.7.56-1.9 1.01-.05.11-.13.32-.18.61h-3.96c.05-.56.08-1.75 1.08-2.78 1.1-1.11 2.57-1.32 3.03-1.4.77-.11 1.41-.11 1.72-.11 1.88 0 4.42.45 5.32 2.44.15.37.28.74.28 1.54v8.08c0 1.19.05 1.64.39 2.14zm7.12 0h3.93v-18.7h-3.93zm11.87-10.99v6.2c0 .56-.03.87.1 1.11.23.45.85.45.92.45.46 0 .92-.03 1.39-.03v3.15c-.26.05-1.18.21-2.08.21-.28 0-.57 0-.82-.03-.36-.03-1.54 0-2.44-.85-1.03-.93-.98-2.33-.98-3.6v-6.65h-1.95v-2.49h1.95v-4.32h3.91v4.34h2.62v2.49h-2.62zm12.82 10.99v-7.23c0-1.06.05-2.46-.93-3.15-.33-.24-.72-.34-1.1-.34-.21 0-.72.05-1.18.37-.85.61-.95 1.56-.95 3.47v6.89h-3.96v-18.7h3.96l.03 6.33c.08-.08.41-.48.77-.74 1.23-.98 2.47-1.09 3.03-1.09 1.8 0 2.83.87 3.26 1.38.28.32.51.72.64 1.11.23.61.36 1.3.36 2.62v9.08z" mask="url(#b)"/><path fill="#e74011" d="M458.18 187.769h81.07v-1.199h-81.07zm-316.2 30.701h98.38v-1.2h-98.38z" mask="url(#b)"/></g></g></svg>