<svg xmlns="http://www.w3.org/2000/svg" width="800" height="800" viewBox="0 0 600 600"><path d="M276 1.583c-23.657 2.652-36.482 4.91-53.639 9.442C120.375 37.966 37.844 120.502 11.036 222.361 3.229 252.022 1.569 265.73 1.569 300.5c0 33.659 1.796 49.231 8.593 74.5l2.785 10.5c3.117 12.177 12.227 34.702 20.798 51.422 14.356 28.003 31.606 51.529 54.708 74.613 29.076 29.052 56.88 48.014 94.547 64.481 17.296 7.561 45.837 16.019 64 18.967l12.78 2.089c2.905.479 13.142 1.424 22.75 2.099 32.858 2.309 69.427-1.864 102.881-11.741 87.925-25.959 159.965-91.973 193.49-177.305 36.479-92.851 24.529-197.956-31.792-279.625-15.348-22.257-41.65-50.251-62.206-66.208-19.857-15.416-46.666-31.187-68.403-40.241-8.595-3.58-26.099-9.85-31-11.104L375 10.162c-23.153-6.228-39.199-8.219-69.5-8.624-14.3-.191-27.575-.171-29.5.045m-21 161.449c10.742 1.127 21.679 3.234 28.726 5.533 19.723 6.433 38.801 17.44 52.436 30.251 6.053 5.688 6.939 6.2 8.905 5.148 4.776-2.556 16.431-5.924 26.087-7.538 33.427-5.59 68.451 5.535 92.776 29.467 18.864 18.559 28.738 39.308 32.052 67.357 2.299 19.452-2.589 43.038-12.795 61.75-12.737 23.349-36.728 43.166-61.687 50.953-21.506 6.71-44.459 6.711-66 .004-3.85-1.198-8.267-2.831-9.815-3.627-2.777-1.429-2.912-1.358-9.911 5.244-14.856 14.014-36.999 26.086-57.274 31.223-15.63 3.96-20.079 4.507-36.5 4.487-20.835-.026-34.224-2.44-51.581-9.3-51.478-20.346-85.947-68.362-89.006-123.984-2.149-39.085 13.032-78.413 41.103-106.484 29.623-29.623 71.696-44.765 112.484-40.484m-26.237 64.933c-34.028 6.22-59.793 34.761-62.349 69.067-2.169 29.112 11.6 55.598 36.847 70.882 7.959 4.819 15.353 7.556 25.717 9.522 10.733 2.036 16.491 1.957 27.834-.384 19.634-4.051 28.031-9.801 58.749-40.223 29.643-29.358 27.351-28.521 39.434-14.395 12.191 14.252 19.416 18.084 34.005 18.033 8.468-.029 10.135-.351 15.348-2.96 9.062-4.536 14.147-9.617 18.361-18.347 3.396-7.036 3.694-8.353 3.646-16.16-.068-11.04-2.681-18.007-9.587-25.564-8.938-9.779-22.238-14.575-34.259-12.353-11.492 2.124-19.35 7.778-31.536 22.691-2.638 3.229-4.418 4.424-7.28 4.888l-3.788.615-25.202-24.985c-29.925-29.666-33.299-32.201-50.397-37.858-6.079-2.012-10.351-2.666-19.306-2.959-6.325-.207-13.631.013-16.237.49m27.737 39.068c8.344 3.176 18.267 13.088 21.493 21.467 3.193 8.295 3.225 20.633.074 28.785-3.144 8.13-11.41 16.811-19.925 20.924-6.061 2.927-7.473 3.206-16.142 3.186-8.434-.019-10.23-.36-16-3.034-8.315-3.854-15.434-10.951-19.418-19.358-2.77-5.845-3.082-7.465-3.082-16.003s.312-10.158 3.082-16.003c9.041-19.078 30.111-27.505 49.918-19.964" fill="#002664ff" stroke="#002664ff"/><path d="M376 195.954c-8.719.903-20.546 3.986-27.828 7.255l-5.103 2.291 5.046 6c11.528 13.705 20.939 30.163 26.464 46.277 2.21 6.449 3.178 8.143 4.379 7.668 3.534-1.397 12.167-1.616 17.175-.436 12.458 2.936 21.844 10.444 27.102 21.679 9.097 19.44.74 41.87-19.06 51.152-5.03 2.358-6.884 2.66-16.314 2.66h-10.638l-2.741 8c-5.454 15.916-15.351 33.192-26.372 46.034l-5.12 5.966 4.878 2.258c11.328 5.246 32.517 8.863 46.232 7.893 26.925-1.904 49.378-11.645 68.219-29.598 10.011-9.539 16.554-18.264 22.164-29.553 25.989-52.298 6.977-113.956-44.007-142.725-18.467-10.421-42.157-15.131-64.476-12.821m-142 69.417c-15.68 3.543-26.854 15.23-30.038 31.419-1.548 7.868-.084 16.262 4.267 24.462 14.66 27.629 55.365 26.292 68.601-2.252 3.309-7.136 4.123-19.211 1.826-27.111-5.434-18.694-25.79-30.782-44.656-26.518" fill="#0063ffff" stroke="#0063ffff"/><path d="M339.5 314.148c-1.1.598-11.529 10.559-23.175 22.136l-21.174 21.048 4.106 6.047c8.873 13.065 23.448 26.286 37.648 34.147l5.466 3.027 3.684-4.027c10.692-11.683 20.313-27.44 26.273-43.026 5.437-14.218 5.518-12.851-.952-16.017-3.484-1.704-7.837-5.099-11.276-8.793-15.739-16.91-15.959-17.065-20.6-14.542m-6.703-103.328c-12.911 7.843-26.317 20.705-34.179 32.792l-2.952 4.537 21.909 21.926c27.098 27.119 25.39 26.521 36.922 12.928 7.596-8.953 13.034-13.453 19.279-15.955 3.752-1.503 3.826-.757-1.448-14.548-4.309-11.269-10.633-22.933-17.349-32-6.099-8.234-11.959-14.529-13.432-14.43-.576.039-4.513 2.177-8.75 4.75" fill="#22edecff" stroke="#22edecff"/></svg>