<svg xmlns="http://www.w3.org/2000/svg" width="234" height="100" viewBox="0 0 61.912 26.458"><style>.D{font-weight:700}.E{font-size:5.366px}</style><defs><clipPath id="A"><path d="M70.866 73.413h1005.246V659.62H70.866z"/></clipPath></defs><path d="M14.564 8.279v.112c.983.143.998.292.998 1.118v2.355c0 1.35-.09 2.16-1.193 2.67l.06.127c1.63-.697 1.801-1.02 1.794-2.476V9.5c0-.774.022-.998.924-1.118V8.27h-2.583m4.527.12c.075.143-.014.323-.074.519l-.45 1.223-.848 2.212c-.233.593-.3.735-.967.915v.113h2.055v-.113c-.338-.052-.857-.052-.857-.51 0-.36.331-1.14.46-1.515h1.71c.196.525.481 1.23.481 1.546 0 .336-.315.42-.578.48v.112h2.205v-.113c-.593-.11-.728-.33-.93-.877l-1.651-4.396a1.4 1.4 0 0 1-.547.404m.142.548.78 1.951h-1.486zm8.116-.668-.015.119c.166.111.06.49-.126.9l-1.359 2.986-1.425-3.188c-.052-.12-.254-.57-.089-.742l-.007-.074h-1.62v.113c.443.037.87.21.825.704l-.098 1.021-.277 2.108c-.106.606-.172.93-.84 1.043v.111h2.093v-.11c-.907-.152-.916-.49-.902-.783l.234-3.14h.015l1.778 4.034h.074l1.913-4.208h.015l.202 3.277c.037.667-.33.728-.907.82v.11h2.466v-.11c-.8-.137-.8-.302-.884-1.344l-.164-2.731c-.03-.525.262-.704.741-.802v-.113h-1.649m2.265.006v.113c.9.12.908.345.929 1.117v2.64c-.021.773-.029.997-.93 1.112v.11h4.173a4.8 4.8 0 0 0 .253-1.484h-.111c-.188.947-.652 1.305-1.598 1.305-1.23 0-1.125-.614-1.125-1.058v-1.23h.78c.562 0 .975.01 1.073.668h.112V9.899h-.112c-.083.645-.519.69-1.073.69h-.78v-2.14h.728c.756 0 1.454.008 1.507.976h.113l.089-1.154h-4.03m5.157 1.343c0 1.5 2.296 1.38 2.296 2.716 0 .593-.436.916-.991.916-.825 0-1.335-.714-1.516-1.434h-.133l.217 1.276a2.5 2.5 0 0 0 1.32.382c.862 0 1.822-.503 1.822-1.47 0-1.516-2.363-1.471-2.363-2.768 0-.497.398-.825.879-.825.741 0 .937.584 1.057 1.192h.12l.06-1.125a2.3 2.3 0 0 0-1.096-.292c-.803 0-1.672.554-1.672 1.432m4.68 1.259c0 1.696 1.396 2.595 2.964 2.595.534 0 1.05-.09 1.53-.322a7 7 0 0 0 .414-1.343l-.106-.046c-.338.81-.727 1.53-1.71 1.53-1.09 0-2.222-1.027-2.222-2.505 0-1.29.773-2.415 2.147-2.415.9 0 1.394.606 1.538 1.455h.113V8.59c-.497-.293-1.073-.406-1.644-.406-1.981 0-3.025 1.351-3.025 2.686m5.301-.05c0 1.62 1.163 2.648 2.745 2.648 1.575 0 2.746-1.027 2.746-2.64 0-1.334-.833-2.641-2.753-2.641-1.568 0-2.739 1.035-2.739 2.634m.87-.181c0-1.013.518-2.272 1.808-2.272 1.149 0 1.921 1.26 1.945 2.595 0 1.072-.549 2.333-1.78 2.333-1.35 0-1.964-1.486-1.964-2.649m5.145.174c0 1.62 1.163 2.647 2.747 2.647 1.575 0 2.746-1.027 2.746-2.64 0-1.334-.833-2.641-2.753-2.641-1.568 0-2.74 1.035-2.74 2.634m.87-.181c0-1.013.52-2.272 1.808-2.272 1.149 0 1.921 1.26 1.944 2.595 0 1.072-.547 2.333-1.78 2.333-1.348 0-1.964-1.486-1.964-2.649m7.796-2.37v.114c.503.05.653.3-.133 1.184l-1.209 1.313 1.53 1.666c.706.773.915.81 2.22.915l.039-.113c-.667-.188-1.209-.638-1.665-1.14l-1.525-1.68.707-.75c.556-.579 1.125-1.305 1.98-1.394v-.114h-1.945m-3.039 0v.114c.902.119.908.344.93 1.116v2.64c-.021.773-.029.998-.93 1.117v.112H59v-.112c-.968-.118-.976-.344-.999-1.118v-2.64c.023-.772.03-.996.794-1.115v-.114zm-38.154 7.039v.111c1.05.1 1.126.534 1.126 1.486v.787c0 .916.157 2.462-1.463 2.462-2.055 0-1.815-1.928-1.815-2.078v-1.539c0-.825.015-.976.997-1.118v-.111h-2.595v.111c.9.122.908.346.931 1.118v1.68c0 .6-.24 2.28 2.085 2.28 1.666 0 2.08-.982 2.1-1.95l.047-1.642c.03-.99.074-1.411.756-1.486v-.111h-2.176m6.308.001v.111c.848.149 1.043.36 1.05 1.073l.037 2.738-3.705-3.923H20.7v.111c.952.21 1.072.503 1.072 1.26v1.127c0 1.701.037 2.393-.975 2.497v.114h2.243v-.114c-1.087-.217-1.042-.593-1.042-2.46v-1.38l3.803 4.096.097-.022.03-4.268c.06-.488.15-.774.668-.84v-.112H24.55m2.366 0v.11c.9.122.908.346.93 1.113v2.641c-.021.773-.03.998-.93 1.117v.113h2.521v-.113c-.9-.12-.907-.344-.93-1.117v-2.64c.023-.773.03-.997.93-1.112v-.111zm6.205-.002v.111c1.14.166 1.02.413.375 1.952l-.886 2.122-1.2-2.895c-.195-.473-.54-1.073.52-1.187v-.11h-2.38v.11c.668.074.84.556 1.065 1.112l1.696 4.058h.104l1.433-3.42c.465-1.088.683-1.682 1.387-1.742v-.11zm2.182 0v.111c.901.122.909.346.932 1.113v2.64c-.023.772-.03.998-.932 1.117v.114h4.172a4.8 4.8 0 0 0 .255-1.486h-.112c-.188.945-.653 1.305-1.597 1.305-1.231 0-1.126-.616-1.126-1.058v-1.23h.78c.562 0 .975.007 1.072.667h.114v-1.673h-.114c-.074.645-.51.69-1.072.69h-.78v-2.139h.727c.758 0 1.454.008 1.508.976h.113l.088-1.155h-4.03m6.604-.015-1.831.06v.103c.84.076.877.249.877 1.396v2.326c-.022.771-.03.997-.93 1.118v.113h2.634v-.113c-1.03-.144-1.044-.293-1.044-1.118v-1.215c.525.09.795-.09 1.096.532a6.5 6.5 0 0 0 1.043 1.502c.434.45 1.02.427 1.815.464l.022-.111c-1.238-.256-1.959-1.547-2.536-2.558l-.037-.052c.54-.241.93-.593.93-1.23 0-.35-.148-1.226-1.867-1.226l-.174.003m-.292.157c.788-.008 1.56.345 1.56 1.223 0 .833-.84 1.163-1.56 1.17zm4.116 1.2c0 1.502 2.295 1.382 2.295 2.717 0 .585-.435.915-.99.915-.826 0-1.335-.712-1.516-1.433h-.134l.217 1.274a2.5 2.5 0 0 0 1.32.382c.864 0 1.823-.502 1.823-1.468 0-1.516-2.362-1.471-2.362-2.768 0-.497.398-.826.878-.826.741 0 .937.593 1.058 1.186h.119l.06-1.127a2.3 2.3 0 0 0-1.095-.292c-.803 0-1.673.555-1.673 1.433m3.31-1.335v.111c.901.121.909.346.932 1.112v2.641c-.023.773-.03.998-.932 1.118v.112h2.521v-.112c-.9-.12-.907-.345-.93-1.118v-2.64c.023-.773.03-.998.93-1.113v-.11zm7.477-.233-.074.074c-.189.172-.218.166-.465.166H52.53c-.247 0-.278.007-.466-.166l-.074-.074h-.06l-.103 1.403.103.022c.264-.93.668-.967 1.539-.967h.45v3.466c0 .929-.045 1.177-1.05 1.297v.115h2.76V20.3c-1.004-.118-1.051-.367-1.051-1.297v-3.466h.445c.863 0 1.275.037 1.538.967l.103-.022-.103-1.403h-.06m3.196.232v.11c.652.084.712.37.246 1.239l-.652 1.238-.742-1.62c-.24-.52-.323-.773.293-.856v-.111H56.77v.11c.759.091.96.624 1.246 1.261l.78 1.703v.593c-.015.862-.03 1.17-.99 1.32v.113h2.64v-.114c-.96-.148-.975-.456-.99-1.32v-.848l.885-1.754c.315-.542.638-.9 1.29-.954v-.111h-1.928m-44.309 6.744h45.755V21.9H15.394zm.774 1.553-1.228 2.808h.503l.286-.673h1.32l.283.673h.517l-1.227-2.808h-.445m.219.593.482 1.116h-.96zm3.771-.565v1.604c0 .515-.267.778-.702.778s-.704-.279-.704-.797v-1.585h-.49v1.605c0 .815.462 1.228 1.187 1.228.73 0 1.2-.42 1.2-1.252v-1.58zm1.167.768v.007c0 .514.334.69.927.833.519.12.63.228.63.426v.007c0 .211-.191.351-.494.351-.346 0-.613-.133-.88-.37l-.295.35c.334.298.737.445 1.163.445.593 0 .996-.31.996-.832v-.007c0-.462-.307-.673-.89-.816-.534-.127-.667-.224-.667-.445v-.007c0-.184.166-.332.444-.332.256 0 .508.1.758.287l.263-.37a1.56 1.56 0 0 0-1.012-.351c-.553 0-.952.33-.952.816m2.447-.769v.454h.885v2.336h.494V24.08h.885v-.454zm2.862 0v2.788h.49v-.973h.615l.685.973h.578l-.753-1.056c.39-.11.665-.387.665-.845v-.007c0-.242-.074-.449-.223-.593-.18-.175-.454-.28-.805-.28h-1.242m.49.446h.714c.361 0 .578.163.578.462v.008c0 .283-.222.467-.574.467h-.718zm3.455-.473-1.227 2.808h.502l.286-.673h1.319l.283.673h.517l-1.227-2.808h-.454m.219.594.482 1.115h-.96zm2.02-.566v2.788h1.958v-.448h-1.458v-2.34zm2.575 2.788h.49v-2.788h-.49zm2.302-2.809-1.226 2.808h.502l.286-.673h1.32l.283.673h.517l-1.227-2.808zm.219.593.482 1.116h-.96z" fill="#010101"/><path d="M10.67 8.549c-.373.222-.906.35-1.499.35s-1.127-.135-1.5-.35S6.763 8.2 6.172 8.2s-1.127.134-1.5.349-.907.35-1.5.35-1.127-.135-1.499-.35S.767 8.2.173 8.2l-.166.005v5.388l.02.61.001.001c0 .005.055.682.163 1.224l.178.778a7.3 7.3 0 0 0 1.11 2.247h.002l1.305 1.376 1.25.967h-.001l2.138 1.401c.485-.404 1.279-.826 2.138-1.4h.001l1.25-.968c.241-.187 1.304-1.376 1.304-1.376a7.3 7.3 0 0 0 1.11-2.247s.062-.193.18-.778a13 13 0 0 0 .163-1.225h-.001l.02-.611V8.204l-.166-.005c-.593 0-1.127.134-1.5.349" fill="#fcfaf7"/><path d="M10.67 12.55c-.373.222-.906.348-1.499.348s-1.127-.134-1.5-.349-.907-.348-1.499-.348-1.127.135-1.5.348-.908.349-1.501.349-1.127-.134-1.5-.349-.906-.348-1.5-.348l-.165.004v1.388l.02.611.145-.004c.593 0 1.127.135 1.5.35s.908.35 1.5.35 1.126-.133 1.5-.35.907-.35 1.5-.35 1.125.135 1.5.35.906.35 1.5.35 1.126-.133 1.499-.35.906-.348 1.499-.348l.146.004.02-.611v-1.388l-.166-.005c-.593 0-1.127.135-1.5.349M4.673 16.55c-.373.222-.908.349-1.5.349s-1.127-.134-1.5-.349c-.332-.191-.79-.319-1.303-.344a7.3 7.3 0 0 0 1.11 2.247l.194.097c.373.222.906.35 1.499.348s1.127-.135 1.5-.348.907-.352 1.5-.352 1.125.136 1.5.352.906.348 1.5.348 1.125-.135 1.498-.348a2 2 0 0 1 .193-.097 7.4 7.4 0 0 0 1.11-2.247c-.514.024-.963.153-1.303.344-.373.222-.906.349-1.499.349s-1.127-.134-1.499-.349-.908-.35-1.5-.35-1.127.134-1.5.35m0 3.999c-.18.103-.396.188-.638.247l2.139 1.409c.484-.405 1.279-.828 2.138-1.409a2.5 2.5 0 0 1-.638-.247c-.374-.223-.908-.349-1.5-.349s-1.127.135-1.5.349m5.997-12c-.373.222-.906.35-1.499.35s-1.127-.135-1.5-.35-.908-.349-1.5-.349-1.127.135-1.5.349-.908.35-1.501.35-1.127-.135-1.5-.35S.766 8.2.172 8.2l-.165.005v2l.166-.004c.593 0 1.127.133 1.5.348s.907.35 1.499.35 1.127-.134 1.5-.35.908-.348 1.501-.348 1.125.133 1.5.348.905.35 1.5.35 1.126-.134 1.498-.35.907-.348 1.5-.348l.165.004v-2L12.17 8.2c-.594 0-1.127.135-1.5.349" fill="#0d73ba"/><path d="M5.76 4.067a2.5 2.5 0 0 1 .41-.037q.208.002.408.037L6.17.001zm-1.09-.716a1 1 0 0 0 .082.257l.05.091a.9.9 0 0 1 .076.317c.008.136-.013.278-.03.404v.002a2.4 2.4 0 0 1 .82-.34c-.05-.102-.1-.212-.177-.314a1.5 1.5 0 0 0-.26-.26c-.033-.025-.069-.044-.103-.07-.09-.062-.16-.131-.23-.205s-.141-.183-.159-.267c-.086.064-.093.253-.067.385m2.64-.148a1 1 0 0 0-.125.24c-.01.031-.018.067-.028.098a1 1 0 0 1-.17.28 2 2 0 0 1-.308.263v.001c.296.064.572.18.818.341a2 2 0 0 0 .1-.347 1.3 1.3 0 0 0 0-.371c-.006-.04-.019-.08-.025-.121a1.5 1.5 0 0 1-.018-.31.65.65 0 0 1 .075-.3h-.018c-.103 0-.223.12-.301.224m.244 1.262a2.5 2.5 0 0 1 .616.615l.778-1.396zm-3.386.615a2.5 2.5 0 0 1 .617-.615l-1.395-.781zm-.019 1.384q.002.152.024.295a2.3 2.3 0 0 0 .497-.21c.372-.214.908-.348 1.5-.348s1.127.135 1.5.349q.216.125.496.21.023-.145.024-.296a2.021 2.021 0 0 0-4.042 0m5.132-1.499a1.5 1.5 0 0 0-.256.074l-.091.05a.9.9 0 0 1-.32.077c-.134.009-.273-.013-.402-.03h-.002a2.4 2.4 0 0 1 .34.819 2 2 0 0 0 .313-.176 1.3 1.3 0 0 0 .262-.26l.069-.103c.062-.09.131-.162.206-.232s.182-.141.265-.159c-.043-.06-.146-.081-.249-.081a1 1 0 0 0-.135.012m-6.374.36q.114.078.24.123c.033.012.067.017.1.03.1.034.2.099.277.169.104.09.188.204.266.305.063-.295.18-.57.34-.816-.106-.037-.222-.078-.348-.098a1.3 1.3 0 0 0-.368 0q-.06.011-.121.025c-.107.019-.208.02-.311.016s-.229-.028-.298-.074c-.018.106.11.245.222.32m5.696 1.14c0 .134-.015.266-.037.397l2.219-.398-2.22-.396q.036.192.038.396m-7.051 0 2.219.398c-.021-.13-.037-.263-.037-.398s.015-.268.035-.396z" fill="#ebb81f"/><path d="M10.667 8.545c-.372.215-.904.348-1.497.348s-1.125-.135-1.498-.348-.91-.35-1.502-.35-1.13.133-1.503.35-.904.348-1.498.348-1.124-.135-1.497-.348-.91-.35-1.503-.35l-.172.004v5.394l.02.613v.001c.004.043.058.697.163 1.223l.178.777v.001a7.4 7.4 0 0 0 1.112 2.249v.001h.002l1.305 1.377 1.236.963H4.01l.015.01 2.138 1.402.003.003.004-.003c.483-.404 1.277-.826 2.135-1.401h.002l.001-.002 1.25-.967c.242-.188 1.304-1.377 1.304-1.377a7.4 7.4 0 0 0 1.111-2.247s.062-.193.18-.779a13 13 0 0 0 .163-1.225v-.006l.019-.605V8.208h-.005l-.166-.005v.011l.16.004v5.383l-.019.617-.163 1.218-.178.775v.002a7.3 7.3 0 0 1-1.109 2.245l-.562.618-.741.758-1.25.966-2.135 1.4c-.482-.403-1.27-.821-2.12-1.39l-.015-.01-1.25-.966c-.24-.186-1.297-1.369-1.303-1.376h-.001a7.3 7.3 0 0 1-1.109-2.243v-.002c0-.004-.062-.198-.178-.777a13 13 0 0 1-.163-1.223v-.002l-.02-.609V8.22l.16-.003c.593 0 1.125.133 1.498.348s.909.352 1.502.352 1.128-.136 1.503-.352c.37-.215.904-.348 1.498-.348s1.123.133 1.496.348.908.352 1.503.352 1.128-.136 1.502-.352.904-.348 1.497-.348v-.011c-.593 0-1.127.133-1.502.35m-9.187 9.909" fill="#010101"/><g clip-path="url(#A)" transform="matrix(.26156 0 0 -.26156 -123.38 -5.802)" style="font-family:HelveticaNeueLT Std;writing-mode:lr-tb"><text transform="matrix(1 0 0 -1 547.365 2.504)" font-size="3.236"><tspan x="0 2.654 5.055 6.978 8.962 10.645 11.787 12.57 14.493 16.357 17.44 18.405 20.75 21.532 23.334 25.318 27.12 29.946 30.91 33.073 34.157 35.84 36.804 38.67 39.753 41.737" y="0">©Copyright Diadem Pty Ltd.</tspan><tspan y="4.088" x="0 2.25 4.02 5.97 7.023 8.913 10.865 12.696 14.467 15.52 16.27 18.16 19.99 21.642 22.784 24.674 25.665 26.807 27.86 29.69 31.46 32.603 35.09 36.92 38.81 39.562 41.332 42.475 44.365 45.475 46.617 48.57 50.34 51.45 52.5 53.643 55.533 56.524 57.666 58.718 60.55 61.3 62.95 64.094 66.045 67.935 69.706 71.537 74.33 76.1 77.933 78.984 80.127 81.897 83.787 85.62 87.27 88.32 89.072 90.124 91.956 93.008 94.778 96.43 97.57 99.34 101.173 102.316 103.066 104.898 105.89 107 107.75 109.58 111.47 113.242 116.035 117.805 119.637 120.69">Reproductions of the whole or part of this document constitutes an infringement</tspan><tspan y="8.175" x="0 1.9 2.88 3.86 5.63 7.52 9.473 11.124 12.234 12.984 14.874 16.706 17.758 18.7 19.674 21.564 23.396 25.166 26.147 26.898 28.73 29.72 31.6 32.72 35.513 37.283 38.335 39.086 40.976 42.808 43.74 44.724 45.475 47.426 49.197 50.967 52.617 53.6 55.372 57.203 59.155 60.136 61.906 63.796 65.628 67.398 69.168 71.12 72.172 73.822 74.806 76.576 78.467 80.298 81.35 83.12 83.87 85.703 87.473 89.425 90.41 91.16 92.99 93.972 95.024 96.856 97.607 99.257 100.24 102.193 104.083 105.853 107.685 110.478 112.248 114.08 115.132 116.112 117.883 118.934 120.705">of copyright. The information, ideas and concepts contained in this document are</tspan><tspan y="12.263" x="0 1.77 3.66 5.492 7.2 9.153 10.923 12.755 13.806 14.557 16.328 17.078 18.01 19.21 21.1 22.933 24.703 25.904 26.956 28.726 30.497 31.247 33.2 33.95 35.72 37.552 38.604 39.474 41.125 41.996 43.196 45.086 46.077 47.277 48.33 50.16 50.912 52.562 53.763 55.715 57.605 59.375 61.207 64 65.77 67.602 68.654 69.854 70.605 72.256 73.457 75.408 76.46 78.35 80.182 80.933 82.884 83.635 84.687 86.457 88.41 89.61 90.6 91.652 93.542 96.335 97.535 99.487 100.238 101.888 103.66 104.4 106.3 107.95 108.7 110.533 112.423 113.624 115.274 117.106 118.876 120.708">confdential. The recipient(s) of this document is prohibited from disclosing such</tspan><tspan y="16.35" x="0 0.75 2.583 3.573 5.463 6.573 9.366 11.136 12.188 12.94 14.83 16.66 17.593 18.645 20.535 21.467 23.237 25.07 26.72 27.652 29.603 31.374 32.484 34.134 36.024 37.856 38.788 41.274 42.025 43.076 44.908 46.798 48.63 49.682 50.614 51.666 53.498 55.268 56.2 58.152 59.262 60.013 61.903 63.013 63.945 66.43 67.54 68.29 69.343 70.395 72.165 73.997 74.93 76.7 78.6 80.42 82.072 83.842 85.674 86.726 87.658 89.548 90.538 91.47 93.78 94.532 96.302 98.254 100.024 102.817">information to any person without the prior written consent of Diadem.</tspan><tspan y="20.438" x="0 1.9 2.64 4.53 6.363 7.415 9.185 11.136 12.07 14.02 14.77 17.564 19.334 21.166 22.817 23.567 25.458 27.29 28.94 29.872 31.523 33.354 35.125 35.875 36.626 37.558 38.6 40.38 42.093 43.863 44.795 46.747 47.798 49.57 51.34 53.11 55.06 56.83 58.663 60.433 62.204 63.136 64.188 66.078 67 68.66 70.43 72.2 72.952 74.722 76.674">Figured dimensions shall take precedence to scaled.</tspan></text><text transform="matrix(1 0 0 -1 507.654 1.636)" font-size="3.407"><tspan x="0 2.443 4.32 5.185 7.25 9.692 11.63 12.56 14.75 16.942 19.133 21.45 24.02 25.93 28.12" y="0">CLIENT APPROVAL</tspan><tspan y="-30.177" x="171.376 173.692 175.757 177.82 178.687 180.877 181.743 184.315">REVISION</tspan><tspan x="436.776 439.157 441.474 443.582 446.72 447.585 450.028 452.597 453.527 455.97" y="0">DRAWING NO</tspan><tspan y="-30.177" x="304.16 306.602 308.48 309.344 311.41 313.85 315.8 317.65 318.767 320.628 322.818 325.135 327.707 329.458 331.523 333.965 436.946 439.327 441.644 443.753 446.9 447.756 450.198 452.767 453.697 455.636 456.5 458.44 460.317">CLIENT / PROJECTDRAWING TITLE</tspan><tspan x="304.067 306.258 308.7 310.89 312.768 370.46 371.324 373.515 375.705 378.148 380.212 382.073 383.2 385.05 387.432 389.31 391.247 171.284 173.474 175.79 178.363 180.114 182.18 184.62 186.56 187.5 189.933 192.375 195.325 197.642 199.707 202.023 203.883 205 206.86 209.05 237.675 240.057 242.373 244.482 247.62 250.063 251.923 253.04 254.9 257.343 259.786 261.85 264.293 266.548 268.613" y="0">SCALEISSUE / DATEPROJECT NUMBER / PMDRAWN / CHECKED</tspan></text><text transform="matrix(1 0 0 -1 192.522 22.452)" class="D E"><tspan x="0 4.867 7.947 9.33 12.61 15.888 19.07 21.254 24.435" y="0">Melbourne</tspan></text><text transform="matrix(1 0 0 -1 192.522 14.404)" class="E"><tspan x="0 2.983 5.865 8.548 11.43 12.62 14.112 17.095 18.587 20.078 23.062 26.045 29.028 30.52 34.196 37.276 40.26 42.046 44.83 47.712 49.203 52.68 54.37 56.06 58.942 61.824" y="0">Level 3, 473 Bourke Street</tspan><tspan y="8.049" x="0 4.674 7.555 8.746 11.928 15.008 17.99 19.875 22.858 25.74 27.23 30.214 33.198 36.18 39.164 40.656 43.934 45.126 48.007 49.697 52.777 54.564 55.755 58.636 60.128 63.605 66.588 69.27 70.96 72.748 75.63 76.82 78.012">Melbourne 3000 Victoria Australia</tspan></text><text transform="matrix(1 0 0 -1 192.522 -1.693)" class="D E"><tspan x="0" y="0">T</tspan></text><text transform="matrix(1 0 0 -1 197.292 -1.693)" class="E"><tspan x="0 2.983 5.967 7.458 10.442 13.425 16.408 19.392 20.883 23.867 26.85 29.833 32.817" y="0">03 9670 6767</tspan></text><text transform="matrix(1 0 0 -1 231.6 -1.693)" class="D E"><tspan x="0" y="0">F</tspan></text><text transform="matrix(1 0 0 -1 236.274 -1.693)" class="E"><tspan x="0 2.983 5.967 7.458 10.442 13.425 16.408 19.392 20.883 23.867 26.85 29.833" y="0">03 9670 6769</tspan><tspan y="8.049" x="-43.752 -39.685 -35.618 -31.845 -30.354 -27.172 -25.98 -23.1 -19.917 -17.036 -12.46 -10.967 -8.086 -5.006 -0.43 1.062 3.944">www.diadem.com.au</tspan></text><text transform="matrix(1 0 0 -1 680.933 25.65)" font-size="3.407" class="D"><tspan x="0 9.65 12.094 14.285 16.414 17.402 19.596 21.786 22.717 25.224 27.857 29.922 32.112 34.306 35.237 37.553 39.747 40.677 42.932 45.123 47.566 48.496 51.003 53.006 53.994 56.185 58.692 60.757 61.687 64.004 67.076 70.15 72.34 74.847 77.355" y="0">BREVISE NOTES AS PER CLIENT AMMENDS</tspan></text><text transform="matrix(1 0 0 -1 1004.948 -13.006)" font-size="8.517" class="D"><tspan x="0 6.27 12.06 16.276 21.752 28.02 33.182 37.398 43.036 46.46 51.153 55.846" y="0">CA_ENT_P-01b</tspan></text><text transform="matrix(1 0 0 -1 814.227 22.459)" font-size="4.684" class="D"><tspan x="0 2.58 5.766 9.992 13.004 16.02 17.3 20.747 24.368 27.99 31.347 32.626 36.074 39.52 40.88 43.808 46.82 50.178 53.195 54.553 57.392" y="0">JAMES COOK UNIVERSITY</tspan><tspan y="8.652" x="0 3.448 6.633 10.858 13.96 17.407 20.424 21.702 24.714 27.815 30.654 33.666 37.025 40.472 43.658 46.412 47.69 52.005 54.844 57.945 60.7 62.058 65.505 68.953 70.31 73.76 77.29 78.57 81.67 85.03 88.65 91.23 94.243 97.69">CAMPUS EXTERNAL WAYFINDING PROJECT</tspan><tspan y=".215" x="132.786 136.233 139.42 143.644 146.745 150.193 153.21 154.488 157.5 160.948 163.787 167.145 170.33 173.778 177.226 180.238 181.517 184.355 187.714 190.726 193.565 196.403 200.63 203.64 207.088 209.323 211.206 212.485 215.586 218.944 220.303 224.528 227.713 230.9">CAMPUS ENTRANCE TREATMENT- PRIMARY</tspan><tspan y="8.867" x="132.786 135.803 137.16 140.693 144.14 145.42 148.258 151.36 154.46 157.472 158.75 160.03 163.477 166.663 168.98 171.993 175.44 178.28 180.6 183.7">SIGN TYPE: CA_ENT_P</tspan><tspan y="30.181" x="-132.842 -130.26 -126.813 -123.366 -122.087 -119.506 -116.925 -114.344 -111.763">JCU 11234</tspan><tspan y="38.833" x="-132.875 -129.343">GT</tspan><tspan y="30.181" x="-66.484 -63.037 -59.59 -58.3 -56.596 -55.317 -52.305">DH / EM</tspan><tspan y="38.833" x="-66.484 -63.037">DC</tspan><tspan y="30.181" x="-0.295 2.286 3.565 6.146 8.727 10.006 13.73 15.008 18.194 66.086">1:40 @ A32</tspan><tspan y="38.833" x="66.086 68.667 71.248 72.527 75.108 77.69 78.968 81.55 84.13 86.71">28.03.2011</tspan></text><text transform="matrix(1 0 0 -1 547.6 20.476)" font-size="9.369" class="D"><tspan x="0 6.895 14.137 19.815 22.372 27.88 35.123 41.84 44.398 51.294 58.536 65.43 71.464 77.142 83.86 90.755 97.65 103.327 106.044 113.286" y="0">NOT FOR CONSTRUCTION</tspan></text></g></svg>