<svg xmlns="http://www.w3.org/2000/svg" height="64.6" viewBox="0 0 375.152 64.6" width="375.15"><g fill="#002d72"><path d="M25.085 38.678q-1.579-.608-3.22-.963a12.5 12.5 0 0 1-.92 2.191 17.5 17.5 0 0 1 2.584.743 9 9 0 0 0 1.556-1.971m-14.034 1.97q1.259-.47 2.573-.738a12 12 0 0 1-.923-2.191 21 21 0 0 0-3.206.959 9 9 0 0 0 1.556 1.97M9.495 29.56a21 21 0 0 0 3.206.96 12.3 12.3 0 0 1 .92-2.187 17.5 17.5 0 0 1-2.57-.742 9 9 0 0 0-1.556 1.969m14.034-1.969a17.5 17.5 0 0 1-2.584.745 12.3 12.3 0 0 1 .92 2.185 21 21 0 0 0 3.22-.961 9 9 0 0 0-1.556-1.969m2.777 6.103a8.9 8.9 0 0 0-.825-3.375 22.5 22.5 0 0 1-3.386 1.025 12 12 0 0 1 .313 2.35zm-4.211 3.202a22.5 22.5 0 0 1 3.386 1.023 8.9 8.9 0 0 0 .825-3.374h-3.898a12 12 0 0 1-.313 2.351m-.835-.166a11.3 11.3 0 0 0 .298-2.185h-3.843v1.839a22.5 22.5 0 0 1 3.545.346m-1.195 3.015c.396-.701.716-1.437.96-2.194q-1.632-.282-3.31-.315v2.302c.785.018 1.573.087 2.35.207m-1.48 3.313a9 9 0 0 0 4.198-1.774 16 16 0 0 0-2.285-.603 13.5 13.5 0 0 1-1.913 2.377m.986-2.527a18 18 0 0 0-1.856-.145v2.324a12.5 12.5 0 0 0 1.856-2.179m-5.502.153a16 16 0 0 0-2.271.6 9 9 0 0 0 4.18 1.77 13.5 13.5 0 0 1-1.91-2.37m.925-.149a12.5 12.5 0 0 0 1.87 2.189v-2.338zm-1.447-2.981a11.3 11.3 0 0 0 .958 2.192 19 19 0 0 1 2.359-.208v-2.302a22 22 0 0 0-3.317.318m-.237-.824a22.5 22.5 0 0 1 3.554-.346v-1.839h-3.855a11.3 11.3 0 0 0 .3 2.185m-5.034-2.185a8.9 8.9 0 0 0 .822 3.374 22 22 0 0 1 3.377-1.021 12 12 0 0 1-.314-2.353zm4.199-3.201q-1.723-.376-3.377-1.025a8.9 8.9 0 0 0-.822 3.375h3.885a12 12 0 0 1 .314-2.35m.833.164a11.3 11.3 0 0 0-.298 2.186h3.855v-1.84a22.5 22.5 0 0 1-3.557-.346m1.195-3.013a11.6 11.6 0 0 0-.958 2.189 22.5 22.5 0 0 0 3.32.32v-2.298a18 18 0 0 1-2.362-.211m1.478-3.31a9 9 0 0 0-4.181 1.769 16 16 0 0 0 2.27.6 13.5 13.5 0 0 1 1.91-2.369m-.985 2.519c.62.084 1.247.132 1.87.146v-2.332a12.5 12.5 0 0 0-1.87 2.186m5.505-.148a16 16 0 0 0 2.285-.602 9 9 0 0 0-4.198-1.77 13.3 13.3 0 0 1 1.913 2.372m-.925.149a12.6 12.6 0 0 0-1.858-2.175v2.32q.934-.019 1.858-.145m1.452 2.981a11.3 11.3 0 0 0-.956-2.19 19 19 0 0 1-2.354.21v2.298a22.5 22.5 0 0 0 3.31-.318m-3.31 3.008h3.843a11.3 11.3 0 0 0-.298-2.183 22.5 22.5 0 0 1-3.545.343zm-.426-9.466c-5.454 0-9.891 4.437-9.891 9.89s4.437 9.895 9.89 9.895 9.893-4.438 9.893-9.894-4.437-9.891-9.892-9.891m11.597-4.99a136.6 136.6 0 0 0-27.088 2.948c3.91 24.78 19.395 36.847 27.088 41.095z" fill-rule="evenodd"/><path d="M47.71 48.715V48.7zm5.413-8.987.015-.03-.015-.01z"/><path d="M30.173.683C20.523.683 11.115 1.71 2.04 3.65l-.035.012A1.475 1.475 0 0 0 .891 5.089l.003 5.084a79 79 0 0 0 .566 9.48c18.835-3.978 38.628-3.978 57.433-.005a79 79 0 0 0 .563-9.475l.003-5.084c0-.706-.503-1.3-1.168-1.438l-.018-.007A134.4 134.4 0 0 0 30.175.683zM77.079 3.19c-.283.145-.383 1-.093 1.191l1.189.094c2.808.24 3.283.813 3.283 6.095v17.995c0 2.569-.144 9.712-1.238 11.952-.331.665-.904 1.234-1.903 1.234-.667 0-1.332-.14-1.997-.333a6 6 0 0 0-1.766-.286c-.999 0-1.709 1.383-1.709 2.192 0 .952 1.474 1 2.045 1 4.426 0 7.805-3.047 9.379-6.858.903-2.189 1.093-5.474 1.093-9.232V10.57c0-5.047.098-5.711 2.907-6.095l.711-.094c.287-.19.191-1.046-.098-1.19a104 104 0 0 1-5.426.145c-1.997 0-3.612-.05-6.377-.146m129.52.003c-.29.143-.38 1-.1 1.19l1.24.093c2.47.192 2.81 1 2.81 6v17.138c0 4.999-.1 5.475-2.76 5.951l-.81.143c-.29.285-.19 1.043.09 1.187 1.86-.049 3.48-.142 5.53-.142 1.85 0 3.47.045 6.04.142.28-.144.38-.999.1-1.187l-1.38-.143c-2.67-.286-2.91-.952-2.91-5.951v-6.715c0-1.428.1-1.521 2.38-1.521h13.62c2.28 0 2.37.093 2.37 1.52v6.716c0 4.999 0 5.475-2.9 5.951l-.9.143c-.29.285-.19 1.043.1 1.187a116 116 0 0 1 5.75-.142 126 126 0 0 1 5.76.142c.29-.144.38-.999.1-1.187l-1.14-.143c-2.77-.334-2.86-.952-2.86-5.951V10.476c0-5 .09-5.712 2.86-6l.99-.093c.29-.19.2-1.047-.09-1.19a119 119 0 0 1-5.62.142c-1.95 0-3.57-.046-5.75-.142-.29.143-.39 1-.1 1.19l.9.093c2.81.288 2.9 1 2.9 6v5.477c0 1.475-.09 1.52-2.37 1.52h-13.62c-2.28 0-2.38-.045-2.38-1.52v-5.477c0-5 .1-5.712 2.85-6l.91-.093c.29-.19.19-1.047-.09-1.19a111 111 0 0 1-5.52.142c-2.05 0-3.67-.096-6-.142m-185.89.197c3.182.05 6.692.568 9.455 1.584h.012C34.595 3.348 40.93 2.994 44.774 3.8l1.677 1.302.453.07a.45.45 0 0 1 .32.22l4.68 10.342c.151.288-.086.531-.354.479-7.122-1.354-14.677-1.77-21.375-1.77h-.006c-6.7 0-14.253.416-21.373 1.77-.27.052-.505-.191-.353-.479l4.677-10.34a.45.45 0 0 1 .323-.221l.447-.07L15.568 3.8c1.442-.3 3.232-.44 5.142-.41zm-5.646 1.743-1.545 1.17-3.205 8.347c4.277-.692 13.937-1.476 18.722-1.41.195-.087.435-.211.778-.211-5.764-1.888-12.374-2.174-17.077-1.285zm30.146 0 2.334 6.61c-4.704-.888-11.323-.602-17.087 1.286.347 0 .587.124.778.211 4.787-.066 14.45.718 18.726 1.41l-3.207-8.347zm57.959 2.472c-8.268 0-14.295 6.148-14.295 14.179 0 7.227 5.383 13.614 14.295 13.614 7.76 0 13.94-5.908 13.94-14.018 0-7.067-4.66-13.775-13.94-13.775m151.55 0c-8.27 0-14.29 6.148-14.29 14.179 0 7.227 5.38 13.614 14.29 13.614 7.75 0 13.94-5.908 13.94-14.018 0-7.067-4.66-13.775-13.94-13.775m-67.99.003c-5.22 0-8.19 3.09-8.19 6.906 0 3.29 2.32 5.581 4.34 6.906l3.81 2.493c2.93 1.885 3.3 3.853 3.3 5.62 0 2.413-1.66 4.62-5.03 4.62-4.65 0-6.3-3.937-6.9-5.983-.16-.242-.76-.162-.97.119.08 1.887.61 4.737 1.09 5.622.76.442 2.89 1.488 6.26 1.488 5.22 0 8.56-3.015 8.56-7.43 0-3.818-2.5-6.146-5.03-7.713l-3.21-2.006c-1.48-.922-3.41-2.612-3.41-4.941 0-1.849.84-4.455 4.78-4.455 3.85 0 4.94 2.607 5.46 4.537.2.238.84.12 1-.121 0-1.687-.36-3.935-.72-4.899-.32 0-.88-.082-1.4-.243-1.05-.28-2.49-.52-3.74-.52m181.05 0c-5.22 0-8.2 3.09-8.2 6.906 0 3.29 2.33 5.581 4.34 6.906l3.82 2.493c2.93 1.885 3.29 3.853 3.29 5.62 0 2.413-1.65 4.62-5.02 4.62-4.66 0-6.31-3.937-6.91-5.983-.16-.242-.76-.162-.96.119.08 1.887.6 4.737 1.08 5.622.77.442 2.89 1.488 6.27 1.488 5.22 0 8.55-3.015 8.55-7.43 0-3.818-2.49-6.146-5.02-7.713l-3.21-2.006c-1.49-.922-3.42-2.612-3.42-4.941 0-1.849.85-4.455 4.79-4.455 3.85 0 4.93 2.607 5.46 4.537.2.238.84.12 1-.121 0-1.687-.36-3.935-.72-4.899-.32 0-.89-.082-1.41-.243-1.04-.28-2.49-.52-3.73-.52m-250.18.52c-.24.118-.32.843-.08 1.003l1.04.08c2.09.162 2.37.847 2.37 5.063V28.73c0 4.217-.08 4.62-2.33 5.019l-.68.121c-.24.24-.16.883.08 1.004 1.57-.04 2.93-.121 4.66-.121 1.57 0 2.93.039 5.1.121.24-.121.32-.844.08-1.004l-1.16-.121c-2.25-.241-2.45-.802-2.45-5.019v-5.66c0-1.205.08-1.285 2-1.285h11.49c1.93 0 2.01.08 2.01 1.285v5.662c0 4.217 0 4.62-2.45 5.019l-.76.121c-.25.24-.17.883.08 1.004 1.76-.082 3.2-.121 4.86-.121 1.56 0 2.93.039 4.85.121.24-.121.32-.844.08-1.004l-.96-.121c-2.33-.281-2.41-.802-2.41-5.019V14.274c0-4.218.08-4.82 2.41-5.063l.85-.08c.23-.16.15-.885-.08-1.003a100 100 0 0 1-4.74.118c-1.66 0-3.02-.037-4.86-.118-.25.118-.33.843-.08 1.003l.76.08c2.37.243 2.45.847 2.45 5.063v4.617c0 1.247-.08 1.288-2.01 1.288h-11.49c-1.92 0-2-.041-2-1.288v-4.617c0-4.218.08-4.82 2.4-5.063l.77-.08c.24-.16.16-.885-.08-1.003a94 94 0 0 1-4.66.118c-1.73 0-3.09-.077-5.06-.118m30.56 0c-.31.162-.32.766-.07 1.007l.68.076c.96.123 1.92.404 2.49.968.84.921.88 1.767.88 2.89v11.607c0 1.928.04 6.827-.52 8.272-.2.445-.84.682-1.77.802l-1.08.121c-.25.24-.21.804.07 1.004 1.41-.08 2.5-.121 4.18-.121 1.49 0 2.9.041 4.7.121.28-.2.32-.681.08-1.004l-1.24-.121c-1.01-.08-1.81-.321-2.05-.766-.68-1.203-.72-6.423-.72-8.308V15.92c0-1.205.04-2.127.2-2.609h.08c.84.883 3.57 4.177 4.66 5.42l9.31 10.605c3.5 3.973 4.66 5.38 5.15 6.063.44 0 .68-.203.76-.443-.12-1.043-.12-5.825-.12-7.031v-9.597c0-1.848-.08-6.827.6-8.273.16-.32.96-.642 2.25-.844l.56-.076c.24-.241.24-.806-.08-1.007a63 63 0 0 1-4.14.118 104 104 0 0 1-4.74-.118c-.32.118-.36.766-.07 1.007l.68.076c1.6.202 2.24.443 2.49.805.76 1.205.8 6.427.8 8.313v8.594c0 .843 0 1.487-.16 1.687h-.08c-1.89-1.927-3.86-4.175-6.63-7.269l-3.9-4.377c-1.32-1.484-6.06-6.786-6.86-8.836-.52.08-1.2.118-1.85.118-.72 0-2.85 0-4.54-.118m129.18 0c-3.34 0-5.83.04-7.96.322-.32.161-.36.765-.08 1.006l1.45.16c1.8.199 1.88.882 1.88 4.297V28.73c0 4.217-.08 4.699-2.41 5.019l-.84.121c-.24.24-.16.883.09 1.004a100 100 0 0 1 4.89-.121c1.61 0 2.93.039 5.22.121.24-.121.32-.805.08-1.004l-1.09-.121c-2.56-.281-2.64-.802-2.64-5.019V10.82c0-1.289.04-1.447 2.17-1.447 4.17 0 6.46 2.53 6.46 6.426 0 3.495-1.57 5.945-5.9 6.75-.24.079-.24.679.04.801 1.65 0 3.77-.362 5.54-1.205 1.73-.844 4.02-2.69 4.02-6.385 0-2.771-1.37-4.857-3.22-6.025-1.88-1.165-4.38-1.607-7.7-1.607m39.49 0c-.24.12-.33.845-.08 1.006l1 .08c2.37.2 2.45.882 2.45 5.141V28.65c0 4.258-.08 4.823-2.45 5.103l-1 .118c-.25.24-.16.883.08 1.004a116 116 0 0 1 5.06-.121c1.61 0 2.97.04 4.98.121.24-.121.32-.844.08-1.004l-1-.118c-2.37-.282-2.46-.845-2.46-5.103V14.355c0-4.259.09-4.941 2.46-5.141l1-.08c.24-.161.16-.886-.08-1.006a118 118 0 0 1-4.98.12c-1.69 0-3.05-.04-5.06-.12m12.45 0c-.32.162-.32.766-.08 1.007l.68.076c.97.123 1.93.404 2.49.968.85.921.88 1.767.88 2.89v11.607c0 1.928.05 6.827-.52 8.272-.2.445-.84.682-1.76.802l-1.09.121c-.24.24-.2.804.08 1.004a66 66 0 0 1 4.18-.121c1.48 0 2.89.041 4.7.121.28-.2.32-.681.08-1.004l-1.25-.121c-1-.08-1.8-.321-2.05-.766-.68-1.203-.72-6.423-.72-8.308V15.92c0-1.205.04-2.127.21-2.609h.07c.84.883 3.58 4.177 4.66 5.42l9.32 10.605c3.49 3.973 4.66 5.38 5.14 6.063.44 0 .68-.203.76-.443-.12-1.043-.12-5.825-.12-7.031v-9.597c0-1.848-.08-6.827.6-8.273.16-.32.97-.642 2.25-.844l.57-.076c.24-.241.24-.806-.08-1.007a64 64 0 0 1-4.14.118c-1.53 0-2.89-.038-4.74-.118-.32.118-.36.766-.08 1.007l.68.076c1.61.202 2.25.443 2.49.805.76 1.205.81 6.427.81 8.313v8.594c0 .843 0 1.487-.17 1.687h-.08c-1.88-1.927-3.85-4.175-6.62-7.269l-3.9-4.377c-1.32-1.484-6.06-6.786-6.87-8.836-.52.08-1.2.118-1.84.118-.73 0-2.85 0-4.54-.118m-39.98.002c-.24.118-.32.841-.08 1.004l1.01.08c2.33.2 2.41.842 2.41 5.059v14.46c0 4.216-.08 4.698-2.21 5.018l-.81.123c-.24.281-.15.88.09 1.004a86 86 0 0 1 4.65-.123 108 108 0 0 1 4.9.123c.25-.124.32-.844.08-1.004l-1.08-.123c-2.25-.242-2.33-.802-2.33-5.017V23.55c0-1.406.08-1.927.68-1.927.97 0 1.61.802 3.9 3.371l3.21 3.615c1.53 1.729 2.57 2.813 3.33 3.776.28.363.57.683.57.927 0 .197-.4.317-.97.397l-.92.164c-.24.24-.12.92.16 1.004 1.85-.084 3.25-.123 4.9-.123 1.89 0 3.45.039 4.5.123.28-.124.36-.805.08-1.004l-1.08-.123c-1.37-.16-2.25-.682-3.22-1.646-3.13-3.292-6.22-6.909-10.04-11.286-.52-.641-.76-.964-.76-1.244 0-.321.36-.682.92-1.246l3.61-3.413c2.25-2.13 4.5-4.017 5.63-4.657 1.12-.644 2.69-1.045 3.73-1.125.24-.241.2-.804-.08-1.004a61 61 0 0 1-3.97.118c-1.41 0-3.01-.038-4.42-.118-.32.2-.36.723-.08 1.004l1.08.24c.53.122.69.242.69.402s-.08.362-.29.64c-.4.565-2.37 2.613-3.13 3.337l-4.33 4.295c-.45.4-1.49 1.447-2.05 1.927-.28.203-.77.445-1.13.445-.44 0-.52-.765-.52-1.527V14.27c0-4.217.08-4.817 2.41-5.058l.76-.08c.25-.163.16-.887-.08-1.004a95 95 0 0 1-4.66.117c-1.8 0-3.09-.037-5.06-.117zm-186.81.725c7.67 0 10.61 7.146 10.61 13.771 0 7.914-4.58 11.528-9.4 11.528-7.913 0-10.803-7.713-10.803-13.653 0-8.795 5.419-11.646 9.593-11.646m151.55 0c7.67 0 10.6 7.146 10.6 13.771 0 7.914-4.57 11.528-9.39 11.528-7.91 0-10.81-7.713-10.81-13.653 0-8.795 5.43-11.646 9.6-11.646M31.448 19.241v6.028l5.423 3.602v-9.468a145 145 0 0 0-5.423-.163zm10.846.527V32.48l5.417 3.611V20.366a146 146 0 0 0-5.417-.598M53.13 21.16v18.533l-5.416-3.603v12.623l.01.006a57 57 0 0 0 5.407-8.985v-.037l.014.007c2.395-4.965 4.328-10.765 5.394-17.521-1.796-.383-3.596-.72-5.41-1.024zm-16.257 7.715v12.619L31.45 37.89v25.388a46 46 0 0 0 5.423-3.547V41.494l5.42 3.61V32.479l-5.42-3.606zm5.422 16.229v9.918a54 54 0 0 0 5.418-6.295v-.014zm252.62 2.021a.5.5 0 0 0-.2.039 20 20 0 0 1-.79 3.093c.09.162.38.267.54.143.23-.52.44-.977.93-1.432.52-.476 1.66-.518 2.56-.518h1.14c.62 0 .62.018.62.663v9.272c0 2.174-.11 2.489-1.29 2.59l-.74.064c-.17.1-.13.455 0 .516l2.88-.061c.83 0 1.54.023 2.72.061.12-.061.16-.435.04-.516l-.67-.064c-1.2-.101-1.24-.416-1.24-2.59v-9.228c0-.687-.02-.705.6-.705h1.47c1.14 0 1.93.165 2.41.517.31.229.46.998.52 1.514.1.122.46.122.54-.039-.07-.626.08-2.304.31-3.152-.04-.083-.27-.103-.38-.063-.3.538-.49.578-1.61.578h-8.4c-.96 0-1.64.022-1.76-.642-.03-.031-.12-.042-.2-.038zm-33.85.35c-2.7 0-4.24 1.598-4.24 3.568 0 1.7 1.21 2.879 2.25 3.566l1.97 1.288c1.51.97 1.7 1.987 1.7 2.902 0 1.246-.85 2.383-2.59 2.383-2.41 0-3.26-2.032-3.57-3.088-.08-.125-.4-.087-.5.06.04.974.31 2.445.56 2.903.39.23 1.49.767 3.24.767 2.69 0 4.41-1.554 4.41-3.836 0-1.97-1.28-3.171-2.59-3.98l-1.66-1.041c-.77-.477-1.76-1.343-1.76-2.55 0-.953.44-2.302 2.47-2.302 1.99 0 2.55 1.35 2.82 2.347.1.123.43.062.51-.063 0-.872-.18-2.034-.37-2.534a2.5 2.5 0 0 1-.72-.122 8.3 8.3 0 0 0-1.93-.268m-144.8.268c-.12.062-.17.415-.04.5l.52.039c1.2.103 1.24.457 1.24 2.613v4.897c0 2.467.52 3.98 1.62 4.892 1.02.87 2.45 1.143 3.88 1.143 1.53 0 3.07-.54 3.96-1.518 1.16-1.242 1.45-3.149 1.45-4.951V53.01c0-1.163 0-3.546.29-4.228.12-.272.52-.458 1.04-.5l.5-.04c.1-.127.12-.394-.05-.5-.74.043-1.3.063-2.18.063a43 43 0 0 1-2.36-.062c-.12.085-.16.354-.04.5l.52.039c.52.042.89.187 1.04.437.35.621.39 3.006.39 4.291v2.39c0 3.152-1.14 5.512-4.15 5.512-3.17 0-4.21-2.197-4.21-5.532v-4.483c0-2.157.04-2.51 1.24-2.613l.51-.04c.12-.084.08-.437-.05-.5-1.01.043-1.7.063-2.55.063-.83 0-1.53-.02-2.57-.062m25.63 0c-.17.085-.17.395-.04.52l.35.042c.49.062.99.205 1.28.497.44.477.46.912.46 1.493v5.99c0 .998.02 3.533-.27 4.273-.1.227-.44.352-.91.416l-.56.064a.375.375 0 0 0 .04.516 36 36 0 0 1 2.15-.061c.77 0 1.5.022 2.43.061.15-.104.17-.352.04-.516l-.64-.064c-.52-.04-.93-.164-1.06-.392-.35-.622-.37-3.318-.37-4.295v-4.522c0-.617.02-1.097.1-1.346h.04c.44.458 1.85 2.158 2.41 2.801l4.81 5.474c1.8 2.053 2.41 2.779 2.65 3.131.23 0 .36-.102.4-.227-.06-.539-.06-3.006-.06-3.628v-4.957c0-.955-.04-3.525.31-4.274.08-.166.5-.332 1.16-.432l.29-.043c.12-.125.12-.415-.04-.52-.71.043-1.25.063-2.14.063-.79 0-1.49-.02-2.44-.063-.17.063-.19.395-.04.52l.35.043c.83.1 1.16.223 1.28.413.4.62.42 3.319.42 4.293v4.437c0 .435 0 .768-.08.872h-.05c-.97-.997-1.99-2.158-3.42-3.754l-2.01-2.261c-.68-.765-3.13-3.504-3.55-4.563a6 6 0 0 1-.95.063c-.37 0-1.47 0-2.34-.063zm26.95 0c-.12.062-.17.435-.04.52l.52.042c1.22.102 1.26.453 1.26 2.653v7.382c0 2.197-.04 2.488-1.26 2.632l-.52.066c-.13.125-.08.455.04.517l2.61-.062a63 63 0 0 1 2.57.062c.13-.062.17-.435.04-.517l-.51-.066c-1.23-.144-1.27-.435-1.27-2.632V50.96c0-2.2.04-2.551 1.27-2.653l.51-.042c.13-.085.09-.458-.04-.52a58 58 0 0 1-2.57.062c-.87 0-1.57-.02-2.61-.062m16.53 0c-.17.104-.19.396-.05.52l.38.042c.89.102 1.2.539 1.67 1.699l3.66 9c.35.873.72 1.885.95 2.758a.9.9 0 0 0 .31.062.44.44 0 0 0 .23-.062c.35-1.102 1.32-3.503 2.15-5.414l1.12-2.549c.94-2.111 1.74-3.796 2.33-4.77.27-.435.58-.685 1.08-.724l.62-.042c.1-.104.1-.435-.05-.52a31 31 0 0 1-2.01.061 31 31 0 0 1-2.15-.061.363.363 0 0 0-.04.52l.37.042c.73.082.93.248.93.39s-.02.378-.19.813a250 250 0 0 1-1.92 4.642l-1.99 4.607c-1.04-2.367-1.99-4.75-2.95-7.154-.64-1.578-.99-2.698-1.03-2.908.02-.166.18-.288.97-.39l.31-.042a.363.363 0 0 0-.04-.52 48 48 0 0 1-2.51.061c-.89 0-1.56-.017-2.15-.061m25.42 0c-.13.062-.17.435-.05.52l.33.045c1.23.141 1.27.451 1.27 2.611v7.468c0 2.172-.1 2.485-1.29 2.586l-.68.066c-.12.124-.09.455.04.518l2.82-.063h1.87l5.55.063c.27-.56.79-2.155.94-2.882-.08-.188-.38-.252-.52-.147-.54 1.077-1.1 1.804-1.47 2.01-.46.229-1.06.311-2.66.311-1.82 0-2.26-.23-2.51-.479-.32-.35-.39-1.052-.39-2.152v-2.923c0-.542.06-.562.68-.562h1.21c.8 0 1.3.02 1.6.105.41.104.55.415.63.789l.2.805c.09.122.45.123.53-.024 0-.45-.08-1.241-.08-1.986 0-.788.08-1.598.08-2.098-.08-.142-.44-.144-.53-.019l-.17.849c-.11.52-.25.644-.5.729s-.9.125-1.76.125h-1.21c-.62 0-.68 0-.68-.583v-4.148c0-.788 0-.83.62-.83h1.49c.92 0 1.58.02 2.01.125 1.09.272 1.27.997 1.58 1.97.11.126.44.086.52-.038-.08-.915-.21-2.407-.33-2.762-.25.062-1.47.062-2.8.062h-3.9c-.85 0-1.55-.019-2.44-.062zm27.09 0c-2.03 0-3.46.061-4.62.166-.17.083-.17.416-.03.523l.67.08c.85.105.91.457.91 2.43v7.445c0 2.172-.04 2.442-1.24 2.586l-.52.066c-.13.144-.08.455.04.518.97-.04 1.72-.063 2.59-.063a55 55 0 0 1 2.47.063c.13-.063.17-.418.04-.518l-.43-.066c-1.21-.163-1.25-.414-1.25-2.586v-2.612c0-.438.04-.458.98-.458.83 0 1.16.206 1.47.663.64.932 1.49 2.363 2.03 3.13 1.47 2.093 2.53 2.613 4.3 2.613.39 0 .72-.043.91-.106.1-.082.08-.248-.02-.292a2.46 2.46 0 0 1-1.43-.577c-1.41-1.18-2.51-2.84-4.17-5.513-.1-.167-.21-.377-.11-.5 1.04-.415 2.6-1.491 2.6-3.461 0-1.454-.73-2.387-1.73-2.905-.95-.52-2.17-.625-3.46-.625zm38.77 0c-.13.062-.17.435-.04.52l.52.042c1.22.102 1.26.453 1.26 2.653v7.382c0 2.197-.04 2.488-1.26 2.632l-.52.066c-.13.125-.09.455.04.517l2.61-.062a63 63 0 0 1 2.57.062c.13-.062.17-.435.04-.517l-.52-.066c-1.22-.144-1.26-.435-1.26-2.632V50.96c0-2.2.04-2.551 1.26-2.653l.52-.042c.13-.085.09-.458-.04-.52a58 58 0 0 1-2.57.062c-.87 0-1.57-.02-2.61-.062m41.41 0c-.15.085-.17.372-.05.52l.58.102c.63.103.94.208 1.65 1.575l2.44 4.773c.6 1.16.66 1.427.66 2.567v1.062c0 2.216-.04 2.506-1.24 2.63l-.64.065c-.13.125-.09.452.04.516l2.72-.063c.82 0 1.53.023 2.82.063.12-.063.17-.391.04-.516l-.79-.064c-1.12-.083-1.25-.415-1.25-2.631v-1.08c0-1.594.07-1.782.98-3.36l1.31-2.258c1.03-1.785 1.66-3.092 2.73-3.28l.59-.102c.14-.125.12-.415-.05-.52-.7.042-1.28.062-1.93.062a34 34 0 0 1-1.99-.062c-.16.085-.18.372-.04.52l.37.042c.51.061.88.205.88.33 0 .248-.77 1.659-1.35 2.738a80 80 0 0 1-1.95 3.506c-.81-1.435-1.58-3.071-2.34-4.604-.11-.207-.65-1.392-.65-1.597 0-.168.15-.273.87-.373l.27-.042c.13-.125.13-.458-.06-.52a29 29 0 0 1-2.21.062c-1 0-1.75-.02-2.41-.062zm-80.2.645c2.3 0 3.32 1.554 3.32 3.195 0 1.409-.48 2.132-1.04 2.567-.6.458-1.38.54-2.13.54-1.06 0-1.37-.04-1.44-.102-.06-.085-.06-.313-.06-.686V49.05c0-.581.06-.662 1.35-.662z"/></g></svg>