<svg xmlns="http://www.w3.org/2000/svg" width="336" height="336" viewBox="0 0 252 252" fill="#005D7F"><path d="M30.629 146.641c-.422-1.566-.602-1.746-2.469-1.387l-7.582 1.387c-2.648.48-4.574.48-6.379-1.023-.902-.664-1.441-1.445-1.742-2.168l.66-.422c.781 1.086 1.684 1.566 3.129 1.566 1.145 0 2.527-.242 4.273-.543l7.219-1.324c1.867-.359 1.988-.539 1.805-2.285l.723-.121 1.145 6.199zm-12.156 8.183.66-.184c.605 1.625.844 1.746 2.648 1.203l8.305-2.465c1.805-.543 1.926-.781 1.566-2.469l.66-.18 1.805 6.078-.66.238c-.602-1.621-.785-1.742-2.648-1.203l-8.305 2.469c-1.805.543-1.926.723-1.562 2.406l-.664.18zm6.859 18.774.664-.301c.719 1.203.961 1.203 1.742.539l2.168-2.105-1.805-4.031-2.711.242c-1.262.117-1.441.359-.961 1.926l-.66.301-1.988-4.453.664-.301c.781 1.262 1.082 1.441 3.129 1.324l12.336-.543.66.781-8.906 8.664c-1.504 1.445-1.625 1.867-1.141 3.191l-.664.301zm9.328-6.379-5.418.359 1.504 3.371zm15.883 21.539c-.719-.961-1.262-1.203-2.105-.719-.602.301-1.504.84-3.129 1.984l-7.281 5.055-.539-.781 3.91-14.082v-.059l-4.273 3.008-2.887 2.164c-.781.723-.844 1.266 0 2.59l-.602.422-3.07-4.395.602-.422c.785.965 1.387 1.203 2.227.723.664-.359 1.566-.844 3.129-1.926l3.91-2.707c1.266-.844 1.445-1.082 1.688-1.684.18-.664.059-1.203-.422-2.047l.602-.422 2.168 3.129-3.43 13.059.059.059 3.672-2.527 2.945-2.227c.723-.66.723-1.262-.117-2.586l.539-.422 3.008 4.395zm7.102 18.055c-1.023-.723-1.145-.723-2.168.301l-1.262 1.262c-.543.602-1.023 1.082-1.383 1.625-1.203-.723-2.891-1.746-4.152-3.008-3.609-3.551-3.852-7.945-.723-11.133 3.609-3.609 8.305-2.586 11.555.664 1.262 1.262 2.164 2.766 2.586 3.488-.48.602-1.266 1.504-2.285 2.77l-.664-.422c1.445-2.227.902-4.031-.602-5.535-2.047-2.047-5.477-1.988-8.305.84-2.344 2.348-3.609 6.078-.84 8.848.422.418.84.719 1.262.84s.781 0 1.324-.539l1.445-1.445c1.082-1.082 1.141-1.324-.363-3.07l.484-.48 4.449 4.395zm20.519 5.234c-1.023-.602-1.625-.664-2.227.121-.48.539-1.145 1.32-2.227 2.945l-4.996 7.344-.781-.543-1.383-14.562h-.062l-2.945 4.332-1.926 3.129c-.484.902-.301 1.445.902 2.406l-.422.605-4.395-3.012.422-.602c1.086.602 1.688.664 2.348-.121.48-.539 1.145-1.32 2.227-2.945l2.648-3.914c.84-1.262.961-1.504.961-2.164-.059-.723-.359-1.145-1.082-1.746l.422-.602 3.129 2.105 1.504 13.418.059.063 2.527-3.73c1.145-1.625 1.625-2.527 1.926-3.129.48-.844.242-1.445-1.023-2.406l.422-.605 4.395 3.012zm4.09 17.027.301-.66c1.266.359 1.504.238 1.625-.785l.242-3.008-4.031-1.805-1.867 1.984c-.84.965-.84 1.266.543 2.109l-.301.66-4.453-2.047.301-.66c1.383.422 1.746.359 3.188-1.082l8.906-8.547 1.023.18-.961 12.398c-.121 2.105 0 2.465 1.262 3.188l-.301.66zm2.77-10.949-3.852 3.848 3.371 1.504zm26.175 5.715c-1.203-.242-1.746-.059-2.047.902-.242.66-.602 1.625-1.082 3.551l-2.109 8.605-.902-.242-6.316-13.18h-.059l-1.266 5.055-.723 3.551c-.121 1.023.18 1.504 1.688 1.988l-.184.66-5.172-1.262.18-.664c1.203.18 1.805 0 2.164-.961.242-.664.602-1.625 1.086-3.551l1.141-4.574c.363-1.504.422-1.746.121-2.348-.301-.66-.723-.961-1.684-1.262l.18-.723 3.672.902 6.016 12.035h.059l1.086-4.332.723-3.609c.117-.965-.242-1.387-1.809-1.867l.184-.723 5.172 1.266zm39.59-1.567c-1.203.301-1.684.723-1.621 1.625 0 .664.059 1.504.359 3.25l.359 2.168c.422 2.406.301 4.332-.719 5.895-.844 1.203-2.227 1.988-3.734 2.227-1.383.242-2.766.121-3.91-.48-1.441-.781-2.285-2.285-2.707-4.875l-.844-5.293c-.301-1.988-.539-2.105-2.227-1.988l-.117-.719 6.258-1.023.117.723c-1.621.418-1.805.539-1.441 2.586l.781 4.813c.543 3.371 2.105 5.117 4.633 4.695 2.828-.484 3.492-2.828 2.949-6.5l-.359-2.105-.723-3.187c-.242-.785-.785-1.086-2.348-.906l-.121-.719 5.355-.844zm15.465-5.113c-1.141.422-1.504.844-1.262 1.867.121.66.359 1.684 1.023 3.547l2.828 8.426-.902.301-12.398-7.762h-.059l1.684 4.934c.602 1.867 1.023 2.77 1.324 3.43.422.965.965 1.145 2.469.723l.238.66-5.055 1.688-.238-.664c1.141-.48 1.563-.961 1.324-1.926-.121-.723-.363-1.684-1.023-3.551l-1.504-4.449c-.484-1.445-.602-1.687-1.145-2.047-.602-.363-1.145-.422-2.047-.18l-.238-.664 3.609-1.203 11.551 6.922h.063l-1.445-4.273c-.602-1.867-1.082-2.828-1.324-3.43-.422-.902-.961-1.023-2.527-.602l-.238-.664 5.055-1.684zm7.461 11.434-.301-.664c1.504-.84 1.566-1.082.785-2.766l-3.793-7.762c-.84-1.687-1.082-1.746-2.648-1.145l-.301-.66 5.719-2.77.301.66c-1.504.902-1.566 1.086-.723 2.77l3.789 7.762c.844 1.684 1.023 1.746 2.648 1.145l.301.66zm14.023-23.949c-1.145.902-1.324 1.324-.906 3.551l2.469 12.094-.781.543-10.289-7.461c-1.504-1.023-1.926-1.086-3.129-.422l-.422-.602 5.176-3.371.418.602c-1.203 1.023-1.141 1.266-.301 1.867l7.645 5.535.059-.062-1.984-8.602c-.422-1.445-.602-1.687-2.227-.844l-.422-.602 4.273-2.77zm16.364-1.082 1.809 3.25-8.305 7.34-.48-.543c1.32-1.383 1.383-1.625.18-3.008l-5.719-6.5c-1.324-1.441-1.504-1.383-2.828-.418l-.48-.543 7.703-6.801 2.348 2.289-.484.602c-.719-.484-1.32-.785-1.863-.902s-1.082.18-2.105 1.082l-.965.844c-.602.539-.602.602-.121 1.141l3.191 3.672 1.262-1.145c1.445-1.262 1.566-1.562.723-2.887l.543-.48 2.887 3.309-.539.48c-1.266-.961-1.508-.902-2.949.359l-1.324 1.145 2.648 2.949c.723.781 1.141 1.145 1.625 1.023s1.082-.602 1.742-1.203c1.023-.902 1.445-1.504 1.445-2.227 0-.602-.18-1.445-.543-2.406zm13.66-9.809-.48.48c-1.625 1.746-2.648 2.047-4.332 1.867-1.145-.121-2.527-.484-3.852-.723-.723-.121-1.203 0-1.805.66l-.301.363 2.527 2.164c1.383 1.203 1.684 1.145 2.887-.059l.543.48-4.152 4.813-.543-.48c1.023-1.383 1.023-1.684-.422-2.887l-6.617-5.598c-1.383-1.203-1.625-1.141-2.828 0l-.543-.48 3.852-4.512c1.203-1.387 2.047-2.105 3.07-2.41s2.164-.117 3.188.785c1.445 1.262 1.504 2.887 1.023 4.512a33 33 0 0 0 3.609.602l2.949.242c.781-.062 1.203-.184 1.684-.484zm-10.891 1.563c.66-.781 1.023-1.383 1.023-2.105 0-1.023-.422-1.805-1.324-2.586-1.805-1.566-3.43-1.023-4.332.059-.363.484-.543.785-.543.965 0 .238.18.422.543.723l4.152 3.547zm0 0"/><path d="M214.512 178.41c-1.383-.422-3.129-.664-4.152.902-.781 1.203-.359 2.469.664 3.188 1.145.723 2.227.363 4.09-.719 2.047-1.207 3.973-2.047 5.898-.785 2.047 1.324 2.527 4.152.844 6.801-.484.723-.965 1.262-1.445 1.684s-.844.664-1.082.781c-.543-.117-2.289-.902-3.43-1.441l.238-.781c1.387.418 4.031.719 5.234-1.086.785-1.262.484-2.527-.781-3.367-1.203-.785-2.465-.301-4.09.602-1.926 1.082-3.914 1.984-5.777.781-1.984-1.266-2.527-3.793-.844-6.379.664-1.082 1.625-1.805 2.105-2.164l2.828 1.32zm11.613 1.684-.602-.301c.664-1.562.602-1.863-1.082-2.707l-7.703-3.91c-1.684-.844-1.926-.785-2.828.723l-.602-.301 2.891-5.656.66.301c-.66 1.563-.602 1.805 1.082 2.645l7.703 3.973c1.684.844 1.926.781 2.77-.723l.602.301zm-1.324-24.129c-1.141-.121-1.863-.121-2.344.063-.543.18-.844.602-1.324 1.984l-.422 1.145 9.988 3.73c1.746.66 1.984.539 2.77-1.324l.66.238-2.406 6.5-.664-.242c.543-1.863.422-2.105-1.262-2.766l-9.988-3.73-.363.902c-.66 1.746-.602 2.164-.301 2.648.242.418.844.902 1.688 1.504l-.242.723-3.852-1.746.18-.48c.605-.121.723-.363.965-.965l3.07-8.305c.18-.539.18-.84-.062-1.32l.18-.484c.902.363 2.648.902 3.973 1.266zm.785-16.727c-.121 1.445.117 1.863 1.262 3.008l3.91 3.492c.484.418.785.539 1.387.66l2.887.602c1.926.422 2.105.242 2.648-1.684l.723.117-1.387 6.742-.719-.18c.238-1.867.117-2.109-1.746-2.527l-2.59-.543c-.48-.121-.719-.059-1.262.121l-5.414 1.684c-1.625.543-1.926.781-2.348 1.984l-.723-.117 1.203-5.84.664.121c-.121 1.504.18 1.504 1.02 1.324l5.418-1.625-4.215-3.367c-.902-.602-1.141-.602-1.684 1.02l-.723-.117 1.023-4.996zm-111.801 23.707c42.242 12.938 71.184-3.789 81.293-11.25l-4.875-6.5c-16.668 13.117-49.941 18.531-77.922 9.387-27.801-9.086-55.359-3.191-55.598-3.129l-13 3.371 8.664-13.301 11.555-17.691 1.203-1.684 2.047-.48c20.879-5.234 50.184 4.574 51.324 4.992 27.863 8.906 47.117-.539 55.059-5.895L124.434 56.32l-39.832 57.824s-1.023-.238-7.34.121c-5.055.301-7.344 1.023-7.344 1.023l49.645-72.027 3.91-5.652c-48.738.961-87.91 40.676-87.91 89.535 0 12.754 2.707 24.852 7.461 35.859 33.336-11.008 69.195-.539 70.762-.059zM126 4.031C58.609 4.031 4.031 58.668 4.031 126c0 67.391 54.637 121.969 121.969 121.969S247.969 193.332 247.969 126C247.969 58.609 193.391 4.031 126 4.031m0 240.93C60.414 244.961 7.039 191.586 7.039 126S60.414 7.039 126 7.039 244.961 60.414 244.961 126 191.586 244.961 126 244.961m89.113-208.074C191.285 13.117 159.637 0 126 0S60.715 13.117 36.887 36.887C13.117 60.715 0 92.363 0 126s13.117 65.285 36.887 89.113C60.652 238.883 92.305 252 126 252c33.637 0 65.285-13.117 89.113-36.887C238.941 191.285 252 159.695 252 126c0-33.637-13.117-65.285-36.887-89.113m-.84 177.387c-23.59 23.586-54.937 36.582-88.273 36.582s-64.684-12.996-88.273-36.582S1.145 159.336 1.145 126s12.996-64.684 36.582-88.273S92.664 1.145 126 1.145s64.684 12.996 88.273 36.582S250.855 92.664 250.855 126s-12.996 64.684-36.582 88.273zM125.098 37.609h-.543l4.152 5.473 57.344 75.094 3.129 4.094-3.73 3.551c-1.082 1.023-27.195 25.27-70.219 11.734a.6.6 0 0 1-.184-.062l-.238-.059c-.242-.121-25.395-8.484-42.965-5.176l-4.332 6.016c11.793-.719 29.965-.359 48.922 5.598 28.219 8.906 60.531 0 70.582-10.711l4.871-4.934 3.613 4.934 12.031 16.066 3.07 4.09-3.73 3.492c-1.504 1.445-37.789 35.078-96.395 17.148-.301-.121-31.711-9.93-62.16-.602 15.707 25.992 44.168 43.324 76.723 43.324 49.461 0 89.535-40.074 89.535-89.535.059-49.461-40.016-89.535-89.477-89.535zM38.75 61.375c0-.059.121-.723.18-.781.063-.121.184-.242.242-.422v-.121c.059-.121.059-.301.059-.422 0 0 .063-.238.063-.301l.059-.66v-.481c0-.184.063-.363.063-.543v-.059c.117-.484.059-1.203-.062-1.687 0-.059-.059-.238-.121-.422 0-.117-.059-.301 0-.359-.059-.121-.117-.242-.117-.301 0-.18-.062-.301-.121-.422a2.3 2.3 0 0 0-.301-.66c0-.062-.062-.18-.062-.242-.059 0-.059-.18-.059-.18l-.059-.059a1.2 1.2 0 0 1-.242-.363v-.059c-.18-.121-.242-.363-.422-.422-.059-.121-.301-.363-.422-.363-.121-.059-.48-.117-.539-.059-.062 0-.062.059-.121.059s-.121.063-.18.063-.062.059-.121.059a.8.8 0 0 1-.242.18h-.059c0 .063 0 .063-.062.063 0 0-.059.059-.059.121-.121.059-.121.18-.121.301.063.238.063.48.18.66.063.121.063.242.121.363v.059c.063.121.063.242.063.359.117.184.059.484.238.664-.059 0 .063.422.121.48v.059c0 .063.059.121.059.242a9 9 0 0 0 .301.902l.184.781c0 .121 0 .184.059.301s.059.301.121.422c.059.301.121.723.301 1.086v.18l.059.059v.121s0 .059.063.18c0 0 .059.063 0 .121v.301c0 .121.059.18.059.301v.059c0 .063.063.184.121.301v.122c.059.242.059.422.121.602 0 .121 0 .242.059.363v.059c0 .063.063.301.063.363v.118c0 .063.117.242.238.184.242-.121.18-.965.301-1.266zm.301 1.926c-.059 0-.059-.059-.121-.121-.117-.18-.117-.238-.359-.18 0 .121-.059.242 0 .359 0 .121.059.242.059.301v.063c.063.121.121.238.121.359v.063c.063.059.063.18.121.238l.18.422s0 .063.063.121a2.4 2.4 0 0 1 .301.66c-.062 0 0 .242.059.242 0 .059.059.121.059.18-.059 0 .063.301.121.301v.063c0 .059.063.059.063.117h.059c.059.184.18.363.242.602 0 .121.059.301.18.363 0 .121.059.242.121.359 0 0 .059.063.059.121v.063c-.059 0 .121.301.18.359v.059l.363.723 1.383 2.527c.242.48.602.902.781 1.383 0 0 .063.063.063.121.117.121.18.301.301.484v.059h.059v.059l.121.184c.059.059.121.18.18.238.18.301.363.543.602.844.121.121.18.238.301.301 0 0 .063 0 .063.059a.48.48 0 0 1 .238.242h.242c.18-.062.301-.062.48-.062.059 0 .059-.059.121-.059h.121c.301-.121.602-.301.723-.66l.059-.121c.121-.18.121-.48.121-.664v-.18c0-.18 0-.359-.062-.543 0-.117-.059-.18-.059-.301v-.359s0-.059.059-.059c0 0 0-.062-.059 0 0-.062 0-.121-.059-.121h.059c-.059-.062-.059-.121-.121-.18-.059-.242-.18-.484-.242-.723-.059-.062-.117-.18-.18-.242l-.422-.602-.301-.301c-.18-.242-.238-.48-.301-.66-.059-.121-.117-.184-.117-.301 0 0-.062 0-.062-.062 0 0-.059-.059-.059-.121-.062-.117-.18-.18-.301-.359-.121-.301-.121-.602-.18-.844-.062-.18-.184-.301-.242-.48-.059-.059-.059-.18-.121-.301-.059-.059-.059-.121-.059-.121-.062 0-.062 0-.121.063v.962a.55.55 0 0 0 .059.301c0 .18.063.363.063.543 0 .059.059.18.059.301a.43.43 0 0 0 .063.238v.063c0 .18 0 .301.059.422.059.18.059.301.121.422h.059a.53.53 0 0 0 .063.301v.301c.059.238.059.418.059.66.059.18.059.359.121.543v.418c-.18.063-.723-.66-.723-.781-.059 0-.242-.301-.301-.359-.18-.363-.422-.664-.602-.965-.062-.117-.121-.238-.18-.301s-.062-.18-.121-.238c-.18-.301-.363-.543-.543-.785 0-.238-.059-.301-.121-.418 0-.062 0-.121-.059-.184l-.723-1.441s0-.062-.059-.121c-.121-.301-.301-.602-.48-.902a4.6 4.6 0 0 0-.422-.723c-.184-.359-.363-.902-.664-1.145 0 0-.059 0-.059-.059-.18-.18-.301-.48-.48-.723 0 0-.121-.18-.062-.301zm10.711-13.898c-.121 0-.359 0-.48.059 0 0-.062.063-.121.063-.18.059-.359.18-.543.238h-.059c-.059.121-.121.121-.121.18h-.059c-.062 0-.121.063-.121.063-.059.18-.121.18-.18.238s-.121.184-.18.242a2.5 2.5 0 0 0-.543.602c0 .059 0 .059-.121.121 0 .059-.059.059-.059.121-.121.117-.242.301-.363.418-.059.121-.18.242-.238.301l-.184.184c-.18.238-.359.422-.48.66h-.059c0 .063-.062.063-.062.121a.9.9 0 0 0-.18.242c-.059 0-.059.117-.121.117-.059.063-.418.664-.48.785s-.059.18-.121.238-.117.18-.18.301v.063c-.18 0-.238.238-.301.301 0 .059-.059.117-.121.117 0 .121 0 .184-.059.242 0 .059-.059.059-.059.059v.063c-.121.18-.184.359-.301.48l-.363.781-.359.723v.063a3 3 0 0 0-.184.418v.063c.063.059-.117.301-.117.359-.121 0-.242.664-.242.723l-.18.781v.063c0 .18-.062.422-.062.66v.122c.063.242.063.422.063.602v.122c0 .121 0 .301.059.422v.059c0 .063.063.063.063.121.059.242.059.602.238.844-.059 0 .18.48.363.301.059 0 .059-.121.059-.184.059-.18.059-.48.059-.539v-.121c.063 0 0-.301 0-.359.063-.184.184-.363.242-.543 0-.121.063-.242.121-.363s.059-.18.121-.301c.18-.238.359-.418.48-.66.059-.059.121-.121.121-.242l1.023-1.562c0-.062.059-.062.059-.121.18-.301.301-.66.48-.961v-.062l.363-.66c.059-.121.117-.18.117-.242h-.059c.121-.18.121-.48.18-.602.121-.359.363-1.145.543-1.262-.059-.121.059-.301.059-.422 0 0 0-.062.063-.062v-.059c.059-.18.18-.422.238-.602.063-.121.121-.18.184-.301.059-.059.18-.781.418-.723.063 0 .063.059.063.059v.364c0 .359-.062.66-.062.961-.059.184-.117.363-.117.543v.059l-.062.184c-.059 0-.059.301-.059.359v.059c0 .184-.062.422 0 .664v.66c0 .184 0 .301-.062.484s-.117.359-.059.48c-.059.18-.059.359-.059.48v.18c-.062.18-.062.363-.062.543 0 .059 0 .121-.059.242a.56.56 0 0 0 .059.301v.782c-.121.18-.121.238-.121.359 0 .063 0 .121-.059.18-.059 0-.121.844-.121.965v.059c0 .18 0 .484.063.602 0 .184.059.301 0 .484v.18c0 .059 0 .18-.062.238 0 .121-.059.242-.059.363v.238c-.062.121-.062.184-.062.242v.059c0 .063-.059.184-.059.242v.059s-.059.121 0 .184 0 .66-.059.781c0 .059 0 .18-.062.242v.059c0 .059 0 .121-.059.18l-.062.242c0 .121-.059.301-.059.422.121.18.543.602.723.602.059.059.422.059.48 0h.422c.121 0 .359-.121.48-.062.242-.18.48-.301.664-.48.059-.121.117-.18.18-.301.059-.059.301-.66.238-.723 0-.059.063-.121.063-.18 0-.121.059-.242.121-.359.059-.062.117-.121.117-.184 0 0 .363-.539.363-.66a.47.47 0 0 0 .121-.242c0-.062.059-.059 0-.059.059-.242.359-.543.359-.723.121-.059.301-.781.422-.902.059-.059.059-.121.121-.121l1.023-1.262c.059-.062.117-.184.238-.242l.121.121v.121c0 .117.059.418.242.48.18 0 .359-.301.301-.422.059-.059.059-.18.117-.242.184-.059.184-.059.242-.117a5 5 0 0 1 .602-.543c.059-.121.121-.121.18-.242v-.059c0-.059.063-.18.063-.242.18-.48.059-1.023-.543-1.082-.121 0-.242 0-.359-.059 0-.062-.184 0-.242 0h-.723c-.18 0-.359.059-.422.238-.059 0-.121.121-.18.18l-.121.121a.8.8 0 0 1-.18.242c-.059.121-.121.121-.18.18h-.062c-.059 0-.18.121-.18.18v.063c-.121.059-.18.238-.18.359h-.059c0 .063-.062.121-.121.18-.062 0-.062.063-.062.121h-.059v.063c-.059 0-.059.059-.059.117-.121.063-.242.301-.242.422v.063c-.059.059-.18.18-.18.301v.059s0 .059-.062.059-.301.422-.301.484c-.059 0-.059.059-.059.059s-.059 0-.121.059c-.059 0-.121-.238-.121-.238 0-.18 0-.301.063-.48 0-.184 0-.301-.062-.484 0-.301 0-.539.063-.781 0-.18 0-.359.121-.539-.062-.062 0-.723.117-.844 0-.062.121-1.566.184-1.684 0 0 .117-.723.059-.785l.059-.359c.063 0 .063-.301 0-.363.063 0 .063-.238.063-.301h.059v-.117l.063-.844v-.781c.059-.301.059-.543.059-.844l.059-.66c-.418-.484-.238-2.109-1.082-1.926zm0 0"/><path d="M98.262 23.828c-.242-.18-.121-.359-.543-.242h-.242c-.059 0-.117 0-.18.063h-.059c-.062 0-.062.059-.121.059 0 0-.059 0-.121-.059 0-.062-.422-.062-.539-.062-.062 0-.121.063-.184.063 0 0-.059 0-.059.059-.121 0-.723.422-.844.48-.059 0-.117.063-.18.063s-.121.059-.18.121c-.242.117-.48.301-.723.418 0 0-.059 0-.121.063l-.059.059h-.121c-.059.063-.18.121-.242.18-.059 0-.117.063-.18.121l-.48.301c-.121.121-.242.184-.301.242a.8.8 0 0 0-.18.242c-.121 0-.48.418-.602.48-.062.059-.121.121-.18.121h-.062l-.66.66c-.184 0 0-.359 0-.359 0-.242.238-.664.359-.844.063-.18.18-.301.242-.543.059-.121.18-.121.238-.238v-.062c.121 0 .543-.359.664-.48.18-.121.359-.301.602-.422a2 2 0 0 1 .422-.301l.66-.66v-.062c.121-.117.18-.238.242-.359 0 0 .238-.301.238-.422.063-.121.063-.242.063-.359a.86.86 0 0 0 0-.543c0-.242-.18-.359-.242-.543 0-.602 0-1.02-.48-1.441-.062-.062-.062-.121-.121-.184-.059-.117-.18-.238-.242-.359h-.059c-.059 0-.359-.301-.359-.359v-.062c0-.121.059-.422-.062-.48 0-.059-.059-.121-.059-.18s-.062-.18-.121-.242l-.059-.059c-.121-.18-.301-.301-.422-.48-.062-.121-.121-.184-.18-.301l-.062-.062c-.059 0-.301-.238-.359-.301 0 0-.121-.121-.18-.121h-.785c-.059 0-.121 0-.18.063h-.242c0 .059-.059.059-.117.121-.184.238-.422.66-.242.961 0 .059 0 .18.059.242 0 .059 0 .059.063.117.238.664.301 1.445.18 2.168 0 .059 0 .121-.059.18l-.184 1.324c0 .121 0 .301-.059.422 0 .059-.059.059-.059.121l.059.66c0 .121-.059.242-.059.363v.059c0 .059-.062.121-.062.18l-.18.363v.059c0 .059-.059.121-.059.121-.062 0-.062 0-.062.059 0 0 0 .063-.059.063-.062.059-.062.117-.121.18 0 .121-.602.539-.66.602h-.062s-.059.059-.059.121a.7.7 0 0 0-.18.238s-.062 0-.121.063c-.062 0-.184 0-.242.059h-.059a.46.46 0 0 0-.242.242h-.059v.18c-.062 0-.062.059-.062.121-.121.301.18.48.422.539.18.301.602.363.902.422h.063c.18 0 .418.242.359.422-.059.242-.059.543-.121.781 0 .242-.059.422-.059.602v.121l-.062.063c-.117.18-.18.359-.359.539-.059.063-.18.121-.242.242l-.059.059-.301.301h-.062c0 .063-.059.063-.117.121a.48.48 0 0 1-.242.242l-.18.18-.363.359v.063l-.359.359c-.059.121-.18.18-.242.301l-.719.781c-.121.121-.184.184-.184.242-.059.121-.238.301-.238.422 0 .059 0 .059-.062.121 0 .059-.059.059-.059.117-.059 0-.059.363 0 .484l.18.18c.063 0 .063.059.121.059a.45.45 0 0 1 .242.063h.059c.242.059.48.059.66-.062.121-.059.184-.059.301-.059.184 0 .301-.121.422-.242h.063c.301-.301.66-.539.961-.84v-.062c.121-.121.242-.18.422-.301l.059-.059.422-.062c.063 0 .121.063.121.063.059.059.242 0 .301-.062.121 0 .301-.18.359-.238 0 0 .184-.242.184-.301l.117-.121c0-.18.602-.723.664-.902l.543-.664c0-.059 1.02-1.32 1.141-1.32 0 .117-.301.539-.422.66-.059.059-.117.121-.117.18-.062.063-.121.18-.184.242s-.117.18-.117.238c-.062.063-.062.121-.121.242-.062.059-.062.121-.121.18s-.121.121-.121.242c0 0-.059 0-.059.059v.063c-.062.059-.18.238-.242.359l-.121.121s-.059 0 0 0c0 .059-.059.121-.121.121h-.059s0 .059-.059.059c-.062.063-.121.18-.184.242l-.18.18v.059s-.059 0-.059.063l-.422.66v.665c.059.238 0 .48.18.602h.18c.121 0 .184-.062.301-.062 0-.059.242-.059.242-.121 0 .063.059.184 0 .242-.121.18-.242.422-.359.602-.062.121-.121.18-.184.301v.063c0 .117-.117.18-.117.238s0 .063-.062.121l-.059.059s0 .063-.062.121c-.059 0-.117.242-.117.242.059.301 0 .48-.062.602 0 .059-.059.121-.121.238 0 .063-.059.121-.059.184v.059a2.3 2.3 0 0 0 0 .902c0 .063.059.121.121.18.18.242.18.301.539.184h.122c.18-.062.18-.242.363-.301.059-.062.18 0 .238 0 0 0 .063.18.121.18 0 .18 0 .359-.059.539v.063c0 .301.059.723-.062.961v.063c0 .117-.059.301-.059.418 0 .301-.121.664.18.844.121.063.242.121.301.18h.121c.121 0 .242-.117.301-.18 0 0 .059-.059.059-.121l.121-.117h.121c0-.062.059-.062.121-.121 0 0 .121-.242.121-.301.059-.121.059-.184.117-.301v-.723c0-.121.063-.301.063-.422v-.723c0-.238.059-.602.059-.844v-.117c.063-.422.121-.844.301-1.203v-.183s0-.059.063-.059c.059-.242.238-.359.359-.602h.059l.242-.359c0-.242.359-.422.242-.785.059 0 .059-.48.059-.539-.059 0-.359-.422-.48-.484 0 0-.062-.059-.062-.117v-.062c-.059-.121-.059-.301-.238-.359v-.121c-.062-.18.238-.359.121-.48l-.121-.121h-.121c-.059 0-.121-.059-.18-.059h-.062c0-.062-.117-.062-.117-.062h-.183c-.059.063-.117.063-.117.063h-.062c0 .059-.301.117-.359 0 0-.062.121-.242.18-.242v-.121h.059c.121-.121.184-.301.301-.422l.121-.121v-.059l.063-.059v-.062l.117-.121h.122c.121 0 1.023-1.02 1.145-1.203.059-.117.059-.238.18-.301v-.059c.18-.059.902-.902.902-1.023 0-.059.063-.059.063-.121 0-.121 0-.359-.184-.422l-.359-.359-.059-.059c-.121-.062-.664 0-.543-.242 0-.059.059-.121.121-.121.059-.059.059-.18.121-.238l.117-.121.063-.062.18-.18a4.3 4.3 0 0 0 .602-.48c.242-.18.48-.301.723-.48.059-.062.121-.121.238-.121 0-.121.363-.301.484-.301s.18-.062.301-.062c.422-.059.238.723.238 1.023 0 .121 0 .242-.059.363v.121a3.4 3.4 0 0 0-.121.781v.059l-.242 1.504c0 .121 0 .242-.059.363 0 .18-.059.301-.059.48l-.184 2.227-.18 1.684c0 .063 0 .063-.059.121 0 .18-.062.359-.121.543 0 .117 0 .238-.059.418 0 .063-.062.121-.062.121v.063s0 .059-.059.117v.063c-.062.359-.121.543-.242.723-.059 0-.121.059-.121.121-.059 0-.117.059-.18.117-.059 0-.121.063-.18.063l-.723.359c0 .121-.121.242-.059.363 0 .117.18.18.238.18.723.422 1.023-.062 1.504-.48.121-.121.363-.242.422-.422.063 0 .121-.121.121-.18.18-.422.359-.844.48-1.324.063-.184.121-.422.121-.664 0-.18.063-.301.063-.539 0-.301.059-.664.059-.965 0-.121.059-.301 0-.48l.059-1.504c0-.301 0-.543.063-.844h-.062v-.059c0-.121.063-.242.063-.363 0-.059.059-.18.059-.238.063-.184.063-.363.121-.543l.422-2.227c.059-.242 0-.66.121-.844 0-.18 0-.359.059-.602 0-.48-.301-.18-.48-.359zM85.984 34.781v-.062c-.059 0-.059-.059-.117-.059-.121 0-.242-.062-.363-.062-.059 0-.18 0-.242-.059v.059c-.059.063-.059.063-.059.121h-.059v.122l-.242.359s0 .063-.059.063a1.4 1.4 0 0 0-.121.48c0 .121-.062.18-.062.301v.059c-.117.242-.059.484-.117.785v.18c-.184.18-.301.359-.242.543 0 .059 0 .059-.059.117 0 0 0 .063-.062.121v.242c0 .121 0 .539.063.602v.18a3 3 0 0 0 .059.301c0 .059.059.121.059.18a.26.26 0 0 0 .242.242c0 .059.059.059.059.059h.121c.18.121.301.242.48.363l.184.18c.059 0 .121 0 .121.059a.53.53 0 0 1 .301.063h.117a.13.13 0 0 0 .121-.121s0-.121.063-.121h.059c.602-.301.359-1.203.422-1.746v-.36h.059c0-.242 0-.422.063-.602-.062-.18 0-.301-.062-.48 0-.121-.059-.242-.121-.363v-.238c-.059-.242-.18-.484-.238-.785-.062-.117-.062-.18-.121-.301-.059-.059-.059-.238-.242-.418.063.059.063 0 0 0zm72.809-2.711c-.059-.238-.18-.418-.18-.66 0-.062-.059-.062-.059-.121s-.363-.301-.422-.359-.062-.062-.121-.062a1.7 1.7 0 0 0-.48-.238c-.242-.121-.422-.242-.664-.301-.059-.062-.121-.062-.238-.121h-.062c-.059 0-.18-.062-.301-.062-.301 0-.602-.117-.902-.059h-.422c-.059 0-.117.059-.18.121-.059 0-.121.059-.121.18 0 .242.664.902.902.961.063.063.184.121.242.184h.059c.184.121.363.422.363.602 0 .059-.062.121-.062.18-.059.059-.117.121-.238.18a.56.56 0 0 0 .18.543c.059 0 .059.059.059.059s.063.121.063.063c.121.117.301.117.422.117s.238 0 .359-.059c.242 0 .422-.121.602-.18.121-.062.242-.062.422-.121.059-.059.121-.059.18-.059.242-.062.723-.363.602-.785zm-1.504-8s.059-.062 0 0q.088-.093 0 0l.059-.062.664-.301c.059 0 .059-.059.121-.059.301-.121.539-.301.781-.48.18 0 .602-.363.781-.484 0-.117.242-.238.242-.359 0 0 .18-.363.18-.422v-.242s-.059-.059-.059-.117l-.062-.121c0-.062-.121-.121-.121-.121h-.117c-.242 0-.422-.121-.664-.18h-.059l-.121.121c-.059.117-.121.18-.18.301l-.18.359h-.062c-.059.059-.121.059-.238.121s-.242.059-.363.18l-.48.18a3 3 0 0 1-.422.184h-.059s-.062.059-.121.059c-.121.059-.242.059-.363.121-.059 0-.117.059-.238.059l-.062.063a3 3 0 0 0-.66.238h-.18l-.121.063c-.059.059-.121.059-.18.117 0-.059.059-.117.121-.18 0 0 .117-.238.18-.238 0-.242.18-.484.301-.723s.18-.543.301-.844c.18-.48.422-1.023.359-1.625h-.059v-.359c0-.363-.18-.664-.242-1.023 0-.242-.359-.902-.539-.965v-.059s-.242-.543-.363-.602c0-.18-.48-.664-.602-.781h-.059c-.062-.062-.121-.062-.184-.121h-.059l-.121-.121h-.121l-.059-.059c-.301.059-.359.117-.422.418 0 .063.063.121.063.184 0 .238.059.422.059.602a1.2 1.2 0 0 1 .121.422c.059.117.059.238.059.359v.059c.063.242.063.422.121.602.059.484.18.902.18 1.387l-.18.84c-.059 0-.059.063-.059.063 0 .121-.062.18-.121.301s-.121.301-.18.422v.059c-.062.18-.062.422-.184.543-.059.18-.117.359-.117.48-.062.121-.121.18-.121.301 0 .059 0 .059-.062.121-.059.121-.117.238-.18.301v.059c-.059.121-.121.301-.238.363v.117c-.062 0-.184.242-.184.242 0 .059-.238.121-.238.121l-.062.059c-.059 0-.117 0-.117.063-.121.059-.301.059-.422.117h-.242c-.059 0-.121 0-.121.063h-.603c0-.062-.18 0-.18 0v.059h-.121c-.18 0-.359.063-.48.063h-.059c-.062 0-.121 0-.184.059-.059 0-.117 0-.18.059h-.121s-.117.063-.18.184c0 .059-.059.059-.059.117 0 .184.359.484.48.602.121.063.781.363.961.305h.422c.063 0 .121 0 .18-.062 0 0 0 .063-.059.063v.059c-.059.121-.18.242-.242.359 0 0-.059.063-.059.121-.059.063-.121.18-.18.242v.059c-.062 0-.121.121-.121.18 0 .242 0 .301-.059.363h-.062c-.121.121-.18.238-.238.359-.121.18-.242.301-.301.48-.062.063-.062.121-.121.121a.45.45 0 0 0-.121.301h-.059c0 .063-.121.184-.184.242 0 .059-.059.059-.059.121s0 .059-.059 0l-.062.059c-.059 0-.059.063-.121.121 0 .121-.117.18-.18.242v.059c-.121.18-.18.301-.301.422l-.121.121c-.121.238-.301.359-.422.539-.117.063-.117.18-.238.242-.121.18-.301.359-.422.48s-.18.242-.301.359h-.059l-.242.242h-.059l-.363.363-.059.059c-.18.18-.422.359-.602.602-.184.121-.363.242-.484.422-.117.121-.238.18-.418.238-.121.184.18.723.301.664.539.059.902-.242 1.383-.48.121-.062.301-.121.422-.242h.059c.121-.059.242-.18.363-.301.059 0 .418-.242.48-.301h.059c.063 0 .063-.059.121-.059l.121-.062v-.059l.121-.062.359-.359s.063 0 .063-.059 0-.062 0 0c.238-.242.48-.422.66-.605a1.4 1.4 0 0 1 .422-.418c.059 0 .238-.242.238-.301l.184-.184.238-.238v-.062c.301-.059.48-.359.723-.602.059-.117.121-.238.242-.301.18 0 .723-.719.781-.84.301-.242.422-.602.66-.844 0-.059.063-.059.063-.121.18-.238.301-.48.48-.723.059-.117.18-.238.242-.359 0-.059.66-.965.719-1.023.363-.242.906-.301 1.266-.422.602-.359 1.203-.539 1.805-.84zm45.07 23.465q-.093 0 0 0c-.184-.059-.301-.059-.422-.121h-.121c-.059 0-.18-.059-.242-.059-.117-.059-.238-.059-.418-.121-.062 0-.121-.059-.242-.059 0 0-.059 0-.059-.062-.062 0-.121-.059-.184-.059s-.059 0-.117-.059c-.121-.062-.242-.121-.301-.184s-.121-.059-.184-.117c-.059 0-.059 0-.059-.062-.121-.059-.242-.18-.359-.242-.062-.059-.121-.059-.184-.059s-.121-.059-.18-.121-.121-.059-.18-.121h-.062v-.059s-.059-.059-.117-.059l-.062-.062h-.059c0-.059-.062-.059-.062-.059v-.062c-.059 0-.117-.059-.18-.059l-.059-.059c-.062-.062-.121-.062-.18-.121s-.184-.121-.242-.18c-.059 0-.121-.062-.121-.062l-.059-.059h-.062s0-.062-.059-.062l-.059-.059h-.062s-.059 0-.059-.059l-.062-.062c-.059-.121-.238-.18-.418-.18-.062 0-.121-.059-.184-.059h-.117c-.121 0-.184.059-.301.059-.062 0-.062.059-.121.059-.363.242-.484.602-.484 1.023-.059.121-.059.242-.059.363v.059c-.059.422-.059.723.18 1.082l.242.301c.059 0 .059.063.121.121.059 0 .121.063.18.063.121.059.18.117.301.18.059.059.844.18.902.18h.661c.184.059.363-.059.543-.121.121 0 .242 0 .359-.059.063 0 .184 0 .242-.062h.063l.961-.059h.36c.063 0 .121-.059.242-.059h.059s.184 0 .422-.062.48-.059.543-.059h.121c-.062-.121.059-.121 0-.242zm-6.742 13.238v-.059c.121-.184.242-.242.363-.484v-.059s0-.059.059-.059c0 0 .063-.062 0-.062.063-.18.242-.422.18-.602 0 0 .184-.781.121-.902s-.121-.48.121-.422c.063-.059.363.063.422.121.121.059.18.121.301.18.18.121.48.301.66.484 0 .117 0 .117-.117.18-.121 0-.242 0-.363.121v.117c.063.121.121.184.121.301.242.121.48.301.66.422.242.18.422.422.664.602.059.063.301.121.422.063 0 0 0 .059.059.059h.059c.063 0 .121 0 .184.059.059 0 .121-.059.238-.059.063-.059.242.059.363 0 .18-.121.238-.844.059-1.023v-.238c-.059-.062-.121-.242-.18-.301-.121-.242-.301-.422-.48-.664h-.062c-.059-.059-.059-.121-.121-.18s-.18-.121-.238-.18l-.062-.062h-.059l-.059-.059-.062-.121c-.059-.059-.121-.059-.121-.121a.7.7 0 0 0-.18-.238c-.059 0-.121-.062-.18-.121l-.059-.062s0-.059-.062 0l-.059-.059c-.062 0-.062-.059-.121-.059l-.059-.062c0-.059-.062-.121-.062-.121-.059-.059-.121-.059-.18-.117s-.121-.121-.18-.121c-.062-.062-.121-.062-.18-.121s-.121-.121-.242-.18h-.18l.121-.121c.238-.18.539-.242.84-.301h.063c.117-.059.301-.121.418-.18a3 3 0 0 0 .902-.602h.063c.059-.062.059-.121.121-.184 0 0 0-.059.059-.059.121-.18.242-.359.301-.543.063-.117.18-.301.18-.418v-.301c0-.062-.059-.121-.059-.242 0-.059 0-.121.059-.18v-.121l-.059-.059c-.18-.301-.359-.602-.602-.844l-.062-.062.063-.059c.059.059.242 0 .301.059.121 0 .242 0 .422.063h.122c.059.059.18.059.238.059.063.063.242.063.363.063h.059c.059 0 .121.059.242.059h.117c.063-.059 1.145.363 1.324.301l.063.063s.18 0 .238.059h.063l.723.18c.117 0 .301.063.418.121h.122l.063.059h.118s.063.063.121.063.121 0 .121.059h.059c.063 0 .121.063.184.121s.66.18.781.242h.302c.121 0 .301 0 .422.059.059.059.18.242.359.242.242.059.48.18.723.238.18.063.301.18.48.242l.664.18a4 4 0 0 0 .48.18l.48.18c.242.121.48.363.781.301.063 0 .184.063.242.063s.359.059.422.059.18.063.238.063.184 0 .242.059h.063c.059 0 .719.063.84.063.242 0 .422-.062.664-.184 0 0 .059 0 .059-.059h.121c.121.18.902-.363.902-.48.238-.184.359-.484.359-.785l-.059-.48c0-.059-.062-.121-.062-.18v-.059c0-.062-.059-.121-.059-.184-.059-.117-.121-.238-.18-.418a.46.46 0 0 1-.121-.301l-.121-.184-.121-.121c-.059 0-.059-.059-.117-.059h-.062l-.059-.059c-.062-.121-.18-.301-.301-.301-.062-.121-.18-.121-.242-.242h-.059c-.062 0-.062-.059-.121-.059s-.059-.062-.121-.062l-.059-.059v-.062c0 .063 0 .063-.062 0-.059 0-.117-.059-.117-.117-.062 0-.062-.062-.062-.062-.059-.059-.121-.121-.18-.121h-.059c-.062-.059-.121-.117-.184-.117s-.117-.062-.117-.062c-.062 0-.062 0-.121-.059h-.062c-.059 0-.059 0-.117-.062-.121-.059-.242-.117-.422-.238-.062-.062-.121-.062-.184-.121 0 0 0-.059-.059 0-.18-.18-.301-.18-.422-.242-.059 0-.121 0-.18-.059h-.059l-.242-.121c-.242-.121-.422-.238-.723-.359h-.121c-.059 0-.059-.062-.059-.062-.18-.059-.543-.301-.723-.301-.059-.059-.121-.059-.18-.059h-.062s-.059 0-.059-.062c-.059 0-.059 0-.121-.059h-.059c-.062 0-.062-.059-.121-.059h-.121c-.059 0-.121 0-.18-.062-.121-.059-.242-.059-.422-.121 0-.059-.059-.059-.059-.059-.062 0-.062-.059-.121-.059l-.059-.062h-.062c-.059-.059-.121-.059-.18-.121h-.059c-.184 0-.242-.117-.422-.18-.062-.059-.062-.059-.121-.059.059-.242 0-.301-.121-.363 0-.059-.059 0-.121-.059l-.059-.059h-.059v-.062h-.062c-.121-.18-.301-.301-.359-.48l-.062-.059v-.062h-.059l-.121-.301s-.059-.059-.059-.121c-.062 0-.121-.059-.121-.059-.062.059-.121 0-.18 0h-.301c-.062-.059-.121-.059-.184-.059-.117.059-.238.18-.301.238h-.059l-.359.363c0 .059-.062.117-.062.18-.059.059-.059.602-.059.723v.118c0 .184-.121.422-.062.543v.059c0 .184 0 .301-.059.484v.239c-.059.063 0 .184 0 .242v.122c-.059.059 0 .48 0 .539-.059 0-.059.121-.059.184s0 .117.059.18.059.18.121.18c.121.121.723.359.902.301h.121c.238 0 .602 0 .84-.18.063 0 .063-.062.121-.062h.122c.059-.059.059-.117.059-.238.063-.062.063-.121.121-.121.121-.059.242-.18.363-.242h.059c.121-.059.242 0 .359-.059.063.059.121.059.184.121h.059s.059 0 .059.059c.121.063.184.063.301.121.063 0 .121.059.184.059 0 0 .059 0 .117.063.063 0 .484.18.543.238.121.063.18.121.301.121l.359.18c.121 0 .242.063.305.063.18.121.359.18.48.301.059.059.121.059.121.121V52s.18.059.238.121c.242.121.48.301.723.422.059 0 .121.059.121.059.059.063.121.121.18.121l.059.059c.063.063-.117.063-.18.063-.48.059-1.023-.062-1.504-.121h-.359c-.602-.121-1.203-.18-1.746-.242h-.301c-.121 0-.18-.059-.301-.059 0 0-.66-.121-.723-.062h-.121v-.059l-.059.059h-.242c-.121 0-.18-.059-.301-.059h-.54c-.121-.059-.242-.059-.422-.059-.301-.062-.602-.062-.902-.121h-.062c-.059 0-.117-.062-.18-.062s-.121 0-.242-.059c-.059 0-.117 0-.18-.059h-.301s-.059 0-.059-.062h-.062c-.18 0-.418-.059-.66-.121-.121-.059-.18-.059-.301-.059-.059 0-.059-.059-.121-.059-.121 0-.18-.062-.301-.062s-.238-.059-.359-.059h-.121c-.242 0-.48-.062-.781-.121l-.602-.121c-.184 0-.301-.059-.484-.059-.059-.062-.117-.062-.18-.062-.059.063-.301.063-.422.184 0 0-.059 0-.059.059h-.059l-.363.18c-.301.242-.66.422-.723.781v.185c.063.059.063.121.121.121.063.059.121.059.18.117.121.063.242.063.301.121.063 0 .121.063.121.063l.063.059c.18.059.238.18.359.301.18.121.359.242.543.301.059 0 .059.059.059.121.121.301-1.082.961-1.324.961l-.961.664c-.363.301-.363.359-.785.301h-.117a9 9 0 0 0-1.746-.184h-.121l-.48.184h-.062l-.602-.301c-.059-.062-.18.059-.238.117-.18.121-.363.305-.301.543 0 0 0 .121-.062.242 0 .059-.059.18 0 .238-.059 0-.059.184-.059.242V57c-.059.238.059.902.18 1.02v.184c.121.422-.059.84.063 1.262v.063c.059.18.117.418.238.539 0 0 0 .063.063.121l.059.059c.48.664 1.383 1.145 2.168 1.203h.238c.363-.059.664-.18.965-.301.18-.059.238-.301.418-.359zm-1.805-1.145q-.089 0 0 0c-.18-.117-.301-.48-.422-.902-.117-.539-.238-1.203-.117-1.324.059-.059.18-.238.301-.238.238-.121.781.121.961.238.063.121.121.184.121.301 0 .242-.121.543-.18.723v.121c-.062.18-.18.781-.301.902v.063c-.121.117-.121.359-.363.117zm0 0"/></svg>