<svg xmlns="http://www.w3.org/2000/svg" width="1000" height="1000" viewBox="0 0 1000 1000" xml:space="preserve">
  <rect width="100%" height="100%" fill="rgba(255,255,255,0)"/>
  <g transform="matrix(7.6561 0 0 -7.6561 499.524 499.717)" clip-path="url(#a)">
    <clipPath id="a">
      <path d="M-384.955-65.422h748.472v431.07h-748.472Z" stroke-linecap="round"/>
    </clipPath>
    <path style="stroke:none;stroke-width:1;stroke-dasharray:none;stroke-linecap:butt;stroke-dashoffset:0;stroke-linejoin:miter;stroke-miterlimit:4;is-custom-font:none;font-file-url:none;fill:#1b5a6b;fill-rule:evenodd;opacity:1" vector-effect="non-scaling-stroke" transform="translate(.002 65.075)" d="M0 0c-36.064 0-65.312-29.141-65.312-65.074S-36.064-130.149 0-130.149s65.309 29.141 65.309 65.075C65.309-29.141 36.063 0 0 0m-11.624-92.859v7.771h-.903l-1.714-1.333v-1.044l1.698 1.391v-6.785zm6.372 2.48c.763 0 1.313.129 1.641.39q.495.39.594.651.038-.08.038-.327 0-.867-.433-1.69-.43-.82-1.527-.842-.578 0-.935.165-.358.163-.515.387a1.2 1.2 0 0 0-.201.442q-.049.217-.053.255h-.936q-.001-.6.511-1.273.511-.673 2.146-.674 1.574.036 2.237 1.111t.694 2.689q0 1.217-.233 2.105-.232.885-.882 1.418-.651.535-1.833.536-.764-.001-1.373-.257a2.16 2.16 0 0 1-.992-.833q-.377-.581-.398-1.495.001-.864.272-1.478.278-.614.827-.944.553-.33 1.351-.336m2.061 2.692q0 1.939-1.782 1.939-1.753 0-1.753-1.939 0-.954.45-1.476.45-.519 1.303-.519.866 0 1.325.516.457.516.457 1.479m8.838-1.251c0 .713-.086 1.355-.258 1.934a2.83 2.83 0 0 1-.931 1.407q-.674.543-1.828.544-1.15 0-1.827-.552a2.93 2.93 0 0 1-.94-1.423 6.7 6.7 0 0 1-.266-1.943q0-3.925 3.033-3.924 1.132-.001 1.812.559.678.557.94 1.433.266.88.265 1.965m-3.019 3.104q-1.144 0-1.539-.879-.399-.879-.399-2.225 0-1.372.406-2.274.403-.902 1.532-.902 1.942 0 1.941 3.176 0 1.338-.405 2.221-.4.882-1.536.883m7.871-1.735q-1.151 0-1.643-.389-.495-.39-.598-.652.001 1.09.404 1.963.404.875 1.519.897.598 0 .958-.165.357-.165.517-.398.162-.233.2-.446.04-.21.043-.24h.934q0 .295-.158.728-.162.434-.757.824-.596.394-1.752.394-1.076-.026-1.725-.562a2.93 2.93 0 0 1-.918-1.378 6.5 6.5 0 0 1-.292-1.86q0-1.171.211-2.044a2.68 2.68 0 0 1 .861-1.445c.433-.379 1.062-.571 1.878-.571q.765.002 1.378.259.61.256.988.829.376.574.394 1.498-.002 1.331-.63 2.038-.634.708-1.812.72m-2.052-2.692q0-1.939 1.788-1.94 1.735.001 1.735 1.94 0 .958-.443 1.478-.443.517-1.292.518-1.789 0-1.788-1.996m27.401 23.853a59 59 0 0 0-4.218-1.674l-1.793-5.081c-.046-.13-.222-.239-.391-.241l-.307-.005c-.336-.006-.539.202-.446.461l1.55 4.396a59 59 0 0 0-3.783-1.09l-3.437-9.712h5.882c.586 0 1.773.353 2.453 1.208 2.588 3.254 4.052 7.377 4.49 11.738M21.874-79.354l3.33 9.409a60 60 0 0 0-3.616-.71l-1.082-3.032-.553 2.787a60 60 0 0 0-3.146-.342 50.5 50.5 0 0 0-2.861-8.112h3.475l.901 2.485.479-2.485zM10.591-33.937-18.88-47.394a22.9 22.9 0 0 0 2.825-11.046c0-3.759-.133-7.842-2.506-10.443l-.477-.523a9.83 9.83 0 0 0-7.608-3.591 9.8 9.8 0 0 0-5.293 1.541l-.017-.005-2.601-.009c.04-3.21 5.241-7.884 7.664-7.884h39.31a50.6 50.6 0 0 1 4.487 20.889c0 8.89-2.289 17.249-6.313 24.528M-.25-62.52h-2.459v-1.416l2.527-.002 3.229.003v1.415zm.413 14.215q-.663 0-1.307-.065v-4.59h-4.875a10.4 10.4 0 0 0 3.31 1.632v.017q.252.072.508.133v2.654q-.256-.048-.508-.105v.005a13.06 13.06 0 0 1-8.594-6.516h10.159v-5.193h-1.565v3.66h-9.299q-.405-1.051-.625-2.18h7.743v-1.48h-7.941a13 13 0 0 1-.038-1.007c0-5.398 3.282-10.029 7.96-12.009l.003-.002q.582-.245 1.193-.435l.015-.005q.138-.044.283-.084l.03-.008q.136-.04.273-.075l.035-.009q.182-.047.368-.089v.002q.252-.056.508-.104v2.654q-.256.06-.508.131v.017c-3.989 1.145-6.998 4.607-7.475 8.836h5.294v-1.413l-3.364.003a8.5 8.5 0 0 1 1.117-2.243h5.993v-1.213h-4.978a8.74 8.74 0 0 1 4.978-2.489v-4.434q.645-.066 1.307-.066.668 0 1.317.066v4.458a8.74 8.74 0 0 1 4.82 2.465H1.48v1.213h5.992a8.4 8.4 0 0 1 1.116 2.243l-3.362-.003v1.412h5.292c-.476-4.228-3.486-7.69-7.471-8.835v-.015a10 10 0 0 0-.51-.131v-2.655q.257.047.51.104l.032.006.119.029.164.04.147.038.143.039.154.044.12.036.168.05q.053.019.109.036.339.11.67.239l.025.01q.097.037.19.077l.083.033.195.083.063.027.189.086.075.035.195.093.042.023.206.102.036.019q.32.167.629.35l.066.039.153.095.105.064.143.092.086.058q.08.052.159.106l.075.052.16.113.061.043q.283.206.553.426l.045.035.156.129.07.059.132.117.089.078q.067.059.133.121l.069.063.141.135.044.043q.252.242.488.499l.048.052.114.126.091.103.09.105.099.118.085.102q.059.07.115.143l.068.087q.059.073.116.148l.063.085q.078.103.153.206l.052.077q.068.094.132.192.033.046.062.091l.106.16.055.085q.05.085.103.168l.057.093.106.179.037.065q.06.104.115.206l.036.064q.143.264.273.535l.024.049.109.232.024.053.092.215.035.083.09.218.022.053q.05.13.097.259l.009.023q.214.589.375 1.205l.009.033q.035.138.065.275l.009.034q.034.145.063.292l.004.013q.129.634.197 1.29a13.4 13.4 0 0 1 .03 2.341H5.226v1.48h7.732q-.218 1.128-.622 2.18H3.047v-3.66H1.48v5.193h10.15a13.06 13.06 0 0 1-8.583 6.515v-.005a15 15 0 0 1-.51.105v-2.654q.257-.06.51-.134v-.015a10.4 10.4 0 0 0 3.306-1.632H1.48v4.589a13 13 0 0 1-1.317.066m-51.512-14.761a1.969 1.969 0 1 0-.001-3.937 1.969 1.969 0 0 0 .001 3.937m103.026 0a1.97 1.97 0 1 0-.001-3.935 1.97 1.97 0 0 0 .001 3.935m-98.363-15.422.213.071 1.083-3.332-.214-.07-.09.281q-.155.476-.506.602-.23.08-.928-.147l-3.804-1.236q-.876-.286-1.483-.27a2.3 2.3 0 0 0-1.163.354 1.77 1.77 0 0 0-.775 1.002q-.173.541-.009.937.166.396.509.508.282.091.472-.005a.66.66 0 0 0 .322-.384.52.52 0 0 0-.013-.368q-.072-.186-.523-.58-.266-.231-.199-.438.049-.157.284-.228.232-.076.714.083l5.31 1.725q.593.193.755.327a.55.55 0 0 1 .169.322q.058.29-.033.566zm-3.864-11.469-.202-.091-1.424 3.202.202.091.117-.266q.206-.463.57-.55.235-.056.906.243l4.826 2.149q.568.254.717.405a.54.54 0 0 1 .136.331q.026.3-.094.567l-.116.264.203.092 1.427-3.202-.206-.092-.12.272q-.204.456-.565.545-.239.059-.91-.238l-4.827-2.149q-.566-.254-.717-.405a.54.54 0 0 1-.132-.336 1.07 1.07 0 0 1 .09-.561zm7.964 1.935-.19-.119a2 2 0 0 0 .236-.479q.091-.361.075-.588-.015-.226-.179-.748l-4.823-3.014q-.581-.363-.815-.354-.382.02-.66.465l-.15.238-.188-.118 1.507-2.412.188.119-.153.243q-.251.405-.158.734.073.236.71.635l4.271 2.67-2.727-8.06.117-.185 5.843 3.651q.581.365.815.354.38-.017.655-.456l.153-.246.192.118-1.509 2.414-.189-.12.149-.24q.256-.408.16-.732-.07-.242-.709-.642l-3.997-2.498 2.551 7.489zm5.431-15.934-.46-1.189c-.152-.385-.285-.644-.407-.77a.41.41 0 0 0-.359-.123q-.222.02-.589.34l-.155-.16 2.322-2.241.152.16c-.224.245-.348.495-.37.74q-.032.374.291 1.199l2.675 6.869-.15.146-6.744-2.842q-.883-.377-1.305-.372-.209.002-.642.291l-.153-.159 1.85-1.788.157.159q-.397.443-.426.667-.029.226.1.36.165.17.643.368l1.293.543zm.19.439 1.296 3.339-3.317-1.388zm6.453.559-.122-.187q.298-.194.416-.335.236-.288.318-.5.08-.212.152-.754l-3.097-4.769c-.247-.382-.445-.608-.587-.667q-.356-.144-.795.143l-.236.152-.122-.185 2.385-1.55.122.187-.243.156c-.264.173-.418.372-.453.598q-.035.245.375.876l2.743 4.223.935-8.455.182-.12 3.754 5.779c.25.386.445.605.59.666q.35.144.786-.137l.242-.159.124.189-2.387 1.549-.122-.187.238-.154c.27-.175.418-.375.454-.598q.038-.245-.37-.88l-2.57-3.954-.852 7.866zm15.712-8.507.074.215 2.738-.944-.074-.212-.291.1a.83.83 0 0 1-.833-.14q-.179-.135-.403-.781l-1.078-3.132q-.402-1.167-.85-1.726-.455-.564-1.288-.789-.834-.226-1.997.174-1.267.435-1.768 1.102a2.5 2.5 0 0 0-.524 1.499q-.009.57.472 1.967l1.041 3.022c.163.476.208.808.124 1.001q-.118.29-.556.442l-.293.099.074.213 3.341-1.151-.073-.211-.297.1q-.478.167-.789-.064-.213-.157-.435-.806l-1.161-3.37a8 8 0 0 1-.273-1.06c-.077-.405-.082-.744-.013-1.009q.105-.399.44-.751.336-.354.928-.556a2.9 2.9 0 0 1 1.469-.136q.714.123 1.111.563.398.44.822 1.673l1.078 3.13q.248.724.153.961-.138.328-.576.479zm3.703-.938 2.198-.308 4.097-6.768.655 4.668q.104.747-.036.955-.188.282-.664.348l-.28.04.032.221 2.817-.395-.032-.222-.288.04q-.513.07-.77-.206-.158-.174-.253-.855l-.96-6.823-.216.029-4.421 7.271-.699-4.988q-.106-.744.028-.953.194-.283.666-.35l.284-.038-.03-.22-2.816.395.03.22.279-.039q.519-.074.78.208.157.172.252.852l.792 5.631q-.294.462-.456.619a2 2 0 0 1-.501.32 2 2 0 0 1-.518.126zm14.079-8.998.008-.223-3.502-.122-.009.222.29.011q.508.016.724.321.14.198.114.932l-.184 5.28q-.022.62-.107.815a.55.55 0 0 1-.257.253q-.269.133-.559.122l-.29-.008-.008.225 3.503.119.007-.223-.296-.01q-.499-.018-.719-.32-.143-.198-.117-.931l.183-5.28q.022-.621.107-.818a.55.55 0 0 1 .261-.249q.265-.136.555-.128zm9.985 9.343.038-.222q-.414-.152-.6-.386-.261-.347-.4-.991l-1.601-7.345-.218-.04-4.241 6.41c-.218.328-.363.528-.444.594a1 1 0 0 1-.414.224q-.236.065-.608.03l-.037.222 3.288.581.039-.222q-.55-.153-.692-.317a.44.44 0 0 1-.105-.38q.052-.298.437-.877l2.881-4.359 1.077 4.994q.158.739.112 1.006-.03.175-.229.3-.2.126-.622.118h-.106l-.038.222zm3.537.781 1.211-2.995 1.665.673q.65.262.789.543.186.374-.044 1.037l.208.085 1.065-2.639-.204-.084q-.302.522-.444.646a.75.75 0 0 1-.455.174q-.275.02-.749-.17l-1.667-.674 1.011-2.499q.203-.504.292-.596a.38.38 0 0 1 .225-.109q.137-.019.452.108l1.285.52q.644.258.898.466c.17.138.309.328.416.578q.209.486.287 1.332l.224.089.116-2.163-5.842-2.361-.084.206.268.108q.268.11.456.336.143.16.137.366-.011.204-.233.758l-1.991 4.925q-.291.721-.503.83-.29.143-.76-.048l-.27-.109-.084.21 5.843 2.359.753-1.625-.219-.089q-.358.551-.59.715a.97.97 0 0 1-.559.172q-.258-.007-.823-.235zm16.764.239-.121.186q-.603-.301-1.095-.308-.492-.004-1.418.36l-2.693 1.047q.74.755.849 1.484.11.735-.302 1.367a1.82 1.82 0 0 1-1.021.786 2.2 2.2 0 0 1-1.261.013q-.623-.175-1.714-.886l-2.499-1.621.124-.188.257.166q.389.251.731.159.242-.065.662-.71l2.878-4.432q.38-.583.376-.813-.001-.403-.439-.686l-.257-.166.121-.187 2.939 1.906-.121.187-.269-.174q-.384-.248-.721-.151-.244.065-.666.712l-1.291 1.991q.086.049.16.096.078.047.143.09.163.106.414.282l4.403-1.7zm-7.161.361-1.85 2.851q.44.424.731.613.663.43 1.325.289.665-.141 1.082-.782a1.63 1.63 0 0 0 .204-1.407q-.223-.747-1.204-1.386c-.03-.017-.07-.043-.118-.07a3 3 0 0 1-.17-.108m7.742 11.024-.164-.15q.142-.25.132-.388a.36.36 0 0 0-.129-.239q-.102-.094-.454-.208-.755-.25-1.24-.687-.774-.698-.85-1.622-.08-.923.512-1.578.338-.375.791-.538a2.6 2.6 0 0 1 1.017-.122q.562.036 1.735.302 1.173.265 1.469.286.436.04.767-.077.328-.121.53-.344.363-.405.305-.991-.061-.589-.619-1.092a2.54 2.54 0 0 0-1.082-.587q-.6-.15-1.089-.001-.489.146-1.197.695l-.164-.151 1.876-2.082.164.149q-.159.24-.153.366a.32.32 0 0 0 .116.227q.116.104.682.356c.373.169.616.287.72.356q.272.167.536.407.844.759.928 1.74.085.98-.536 1.673-.327.36-.792.543a2.3 2.3 0 0 1-.999.141q-.532-.034-1.795-.344-1.547-.38-2.128-.294a1.03 1.03 0 0 0-.648.334q-.33.36-.278.921.05.56.514.979.412.37.987.506.573.138 1.107-.034.53-.17 1.156-.704l.165.149zm10.455-.56-.194-.224a1.1 1.1 0 0 0-.47-.319.55.55 0 0 0-.362-.021q-.2.072-.671.479l-3.984 3.466q-.555.481-.602.723-.07.367.255.744l.195.222-.17.147-2.3-2.644.171-.147.19.219q.19.22.472.325a.56.56 0 0 0 .358.017q.202-.073.671-.479l3.986-3.466q.556-.484.605-.719.074-.367-.258-.749l-.19-.219.166-.145 2.3 2.645zm-1.253 12.309-3.535-5.66 1.574-1.098.12.193q-.446.331-.606.693-.158.36-.088.689.056.249.359.733l.521.834 5.299-3.31c.387-.242.613-.438.673-.579q.153-.35-.122-.79l-.154-.246.189-.118 1.837 2.941-.189.118-.149-.242q-.254-.403-.589-.464-.246-.038-.883.36l-5.299 3.312.612.976q.267.43.573.605t.698.148q.248-.017.711-.23l.121.195zm2.81 6.674 1.021 2.663.21-.08-.055-.145q-.058-.149-.036-.479a1.8 1.8 0 0 1 .174-.654q.153-.324.572-.871l2.19-2.953 1.916-.735q.703-.27.939-.18.318.124.494.583l.095.248.209-.08-1.244-3.241-.209.08.104.27q.185.485-.031.8-.132.193-.772.438l-1.809.693-4-.866q-.702-.154-.896-.233t-.549-.419a.8.8 0 0 1-.182-.304l-.209.079 1.253 3.265.209-.08-.064-.169a1.05 1.05 0 0 1-.065-.533.43.43 0 0 1 .289-.367q.2-.078.861.063l3.073.649-1.778 2.4q-.402.541-.658.641a.52.52 0 0 1-.314.025.6.6 0 0 1-.284-.158q-.127-.125-.245-.431zm-9.297 41.192c-.183-.201-.28-.773-.121-1.018.692-1.066 2.426-.633 3.55.193l.834.64.297-.453c.276-.426.952-.868 1.283-.653l.055.036.109.071c.256.458-.002 1.209-.377 1.787l-.179.276.537.842c.515-.288 1.316-1.047 1.92-.653.432.278.228 1.095-.089 1.584l-.428.659c-.212.328-.921.889-1.228.689-.305-.198-.433-.782-.304-.98.22-.337.6-.488.791-.737-.392-.212-.706-.051-1.015.122l-.113-.071-.219-.143-.111-.071c-.07-.128-.089-.216-.257-.325-.078-.049-.16.004-.218.093l-.249.386-1.284 1.428c-.248-.064-.141.073-.319-.044-.18-.118-.106-.838-.032-1.084.105-.346.359-.867.586-1.215.122-.19.097-.239.194-.42l-.559-.461-.175-.095c-.399-.26-1.311-.312-1.678-.307l-.108.316c.05.143.13.376.01.559-.049.077-.146.061-.235.002l-.054-.036c-.296-.19-.593-.673-.814-.917m9.229 3.489-.461.715c.28.142.043.136.327-.022l.109.071.057.036.108.071.528.022.11.079.275.18.111.071.145.255.169.104c.015.138 1.204.916 1.265.821l.219.144c.078-.078.226-.248.312-.32.15-.123.236-.044.335-.198l.323-.495c.118-.181.024-.278-.131-.398-.435.418-.779.372-1.307.325l-.11-.072-.166-.107c-.171-.305-.353-.934-.614-1.102-.053-.035-1.036.344-1.288.18l-.056-.036c-.198-.129-.075-.246.049-.437.509-.007.616-.133 1.07-.324.385-.161.705-.022.995-.448.183-.009.466-.111.777-.141.289-.029.487.025.767.05l.113.072.164.106.11.072c.128.232.186.263.026.563l.402.342c.656-.01.731-.491 1.525-.42l.109.072.111.071c-.023.248-.009.479-.174.748.07.162.051.346.189.435l.164.107c.613.399.535.644.489 1.176-.192.183-.731.543-.96.394-.296-.192-.31-.357-.645-.574l-.166-.108c-.358-.232-1.091.844-1.661.876-.015.16-.083.337.097.453l.438.286.11.071c.213.382.431.759.125 1.255l.057.176c-.201.107-.474.256-.709.104-.259-.169-.417-.328-.622-.532-.23-.228-.404-.213-.662-.38l-.165-.107c-.249-.162-.311-.075-.52-.267-.144-.134-.125-.228-.38-.395l-.384-.249-.796-.584c-.387-.306-.794-.291-1.202-.556-.149-.099-.107-.227-.258-.325-.015-.01-.126-.028-.201-.051-.236.227-.305.121-.522.443l.11.071c.256-.233.203-.044.489-.153l.538.253 1.884 1.197c.255.131.358.316.458.498l.11.072.496.321.109.072c.298.533.279.86.509 1.267l-.073.11c-.22.34-.773.26-1.088.232l-.111-.072-.661-.428-1.087-.731-.067-.019-.111-.071c-.103-.187-.199-.365-.443-.523l-.605-.393c-.136-.086-.527-.52-.6-.63-.188-.284.002-.405-.107-.689-.371.479-1.347.99-1.352.999l-.072.11-.029.292-.075.11c-.233.36-1.737.358-2.164.081l-.33-.214-.11-.072-.263-.753c.06-.17.035-.221.157-.41l.179-.275.072-.109c.292-.165.513-.26.851-.229l.112.071.165.107.11.071c.056.103.14.326.221.379l.275.179.11.072c.176.015.652-.04.762-.21l.216-.33 1.828-2.408 1.05-1.667.687-1.195c.056-.08.092-.191.004-.232l-.589-.291c.216-.337.375-.338.616-.473.086-.236.156-.483.32-.731.225-.35.624-.611 1.013-.359.39.252.051.867.055 1.269.002.331-.033.989-.26 1.335l-.355.55zM13.84-18.177c-.313-.244-.296-.385-.693-.453-.301-.235-.349-.123-.691-.452l-.246.08c-.038-.058-.409-.491-.461-.506-.08-.023-.205.037-.342-.031-.082-.04-.121-.109-.265-.184-.682-.353-.402-.295-1.214-.435l-.08-.245.167-.118.119-.044c.876-.286 1.322.142 1.985.125.626-.018.423-.06.924.196.324.166.547.169.875.291.908.335.823.39 1.544.997.519.436.913.817 1.397 1.284.191.2.326.709.61.616.104-.034.08-.568.106-.715l-.041-.123c.034-.077.274-1.442.302-1.638.06-.426.064-.445.2-.821.096-.267.192-.482.201-.769.021-.71.227-.959.688-1.442.194-.204 1.058-1.025 1.335-1.115.479-.158.993-.243 1.285-.014.058.637-.023.612-.383 1.034-.275.32-.203.53-.494.927-.543.745-.685.991-.981 1.857-.231.668-.427 1.359-.743 1.978-.19.371-.137.653-.195 1.079-.024.17-.044.419-.086.57-.092.33-.227.159-.159.484l1.003-.258.305-.103c.751-.247 1.442-.291 1.878.131l.041.123c.199.606.155 1.105-.456 1.305l-.49.16c-.335.111-.38-.011-.715.099l-.738.241.433 1.081.364 1.174.369.829c.081.246-.148.537-.347.658l-.451.063c-.128-.198-.246-.327-.342-.618l-.02-.061c-.148-.454-.384-.551-.505-.923l-.122-.367-.535-1.387c-.186.042-.228.005-.439.074l-.06.021c-.424.139-.667-.054-.82-.005l-.06.02c-.319.106-.315.239-.573.324-.174.058-.87-.312-1.039-.474l-.041-.123c-.136-.42.252-.927.497-1.181l.123-.041.123-.04c.474-.156.653-.011 1.103-.158-.133-.136-.045.07-.121-.164-.093-.281-.519-.689-.692-.861-.287-.291-.425-.511-.693-.854-.301-.385-.662-.286-.876-.492-.365-.349-.196-.446-.768-.606m-32.818.407-.081.178c-.165.369-.679.026-.91.445l.652.292.053-.118.176.079c.115.051.098.066.152.139.136-.085.246-.074.31-.216l.052-.118c-.017-.289.022-.539-.233-.745.05-.141.106-.38-.017-.436-.083-.037-.155.028-.198.124-.053.118.137.167.044.376m-2.134-.318a.62.62 0 0 0 .302.278c.114.05.241-.124.311-.216.15-.315.396-.572.674-.551.062-.378-.345-.339-.2-.659l.026-.06.053-.118.534-.399c.192-.008-.02-.082.205.02l.177.08c.324.145.277.265.598.411l.178.079.232-.319c-.235-.179-.703-.604-.912-.697l-.059-.028a1.04 1.04 0 0 1-.42-.331c-.008-.191-.082.022.018-.204l.054-.118c.094-.209.635-.214.838-.122l.829.373c.09-.12.12-.111.192-.27l.452-1.006c.186.036.128-.014.263.047.082.037.33 1.006.339 1.148l-.052.118-.057.119.023.434.115.054.236.106c.165.074.2.322.224.455l-.107.237c-.224.015-.717.085-.93.01l-.335.417c.151.19.107.213.253.4l.354.159.013.145c-.262.336-.89.223-1.03.536-.043.096.261.457.303.719.04.253.003.52.021.778.523.25 1.806 1.477 2.192.346l.269-.803.498-1.06.052-.117c-.006-.102-.035-.396.008-.495.222-.492.34-.287.498-.975.073-.32.109-.65.177-.998l-.154-.137-.116-.056-.415-.185c-.095-.045-.161-.116-.124-.199.184-.408.665-.528.728-.669l.026-.06.053-.117c.173-.134.603-.37.832-.267l.296.133.12.053c.485.626.421.899.37 1.724-.038.619.086 1.216-.249 1.96l-.105.236c-.222.492-.336.923-.494 1.414-.191.593-.338.752-.612 1.362l-.372.829c-.336.747-1.275.616-2.023.229l-1.446-.742c-.715-.349-1.186-.797-2.092-1.204l-1.042-.53c-.04.261.231.862.368 1.08l-.054.119.125.545.104.056.65.292.119.053.519.588.117.054.296.134c.143.064.325.541.26.686-.201.45-.457.533-.819.556l-.118-.053-.356-.159c-.307-.139-.233.321-.455.222-.125-.057-.069-.057-.21-.165l-.008-.493c-.13-.026-.166-.068-.24.096l-.026.059c-.146.323-.03.381-.175.704l-.586 1.302-.053.118c-.386.302-.627.287-1.089.365-.322-.246-.219-.307-.426-.476.105-.298.049-.424.201-.764l.292-.651c.118-.263.124-.659.11-.876l.054-.118.133-.296.053-.118c-.012-.158.03-.343-.163-.429l-.651-.293-.118-.053c-.1-.125-.251-.236-.164-.429l.081-.177c.126-.283 1.058-.3 1.139-.484.227-.499-.037-2.649-.374-2.801-.084-.037-.156.027-.199.124l-.027.059c-.06.137-.121.16-.258.098l-.117-.053c-.335-.15-.275-1.291-.072-1.739.244-.545.196-1.146.367-1.614l.517-1.332.197-.41.563-1.453c.18-.423.69-.606.909-.874l.236.106c.676.304.502 1.102.192 1.794l-.985 2.19-.631 1.353-.593 1.369.178.08c.321.145.268.254.597.411M-45.21-36.5l-.216.147.033.294.074.11.037.055c.187.279.285.232.479.477.26.01.65.361 1.031.107.303-.204.247-.809.217-1.104l-.075-.109c-.154-.231-.074-.119-.164-.129l-1.307.078zm-1.229 6.489.11.165.66-.443c.356-.238.56-.505.786-.753.47-.516.226-.291.146-.829l-.274.184c-.288.193-.244.323-.476.479-.072.048-.337.103-.46.148l-.355-.152-.068-.122c-.107-.16-.018-.278-.093-.496l.77-.517c.108-.072.163-.456.273-.661l.11-.075.221-.146c.167-.113.183-.161.293-.278.329-.035.168-.066.459.091l.11.165.357.793c.581-.459.508-.954.67-1.403l.506-.433a1 1 0 0 0 .21-.047l.149.22c.183.276.071.883.224 1.285.324-.122 1.152-.228 1.377.033l.94 1.121.166.291c.337.5.173 1.263.006 1.671-.529.077-.444.115-.937-.088l-.11.074c-.156.104-.459.148-.533.038-.134-.2.388-.599.327-1.177l-.074-.11-.212-.419-.279-.285c-.495.163-.703-.01-1.365.434l-.056.036c-.282.191-.004 1.248.171 1.562-.214.171-.086.138-.294.277-.302.203-1.082-.03-1.449.096l-.112-.165.507-.539-.051-.087-.218.147-.848.754-.125.058c-.146.015-.235-.001-.404.111-.119.082.074.466.168.607.067.099.057.6-.089.698-.236.158-.342.136-.57.222l-.546-.669-.573-.731c-.04-.079.057-.311.086-.379l-.075-.11-.26-.54-.055-.047-.453-.574c-.163-.182-.09-.2-.209-.416.795-.534 1.275.119 1.821.931m-1.082-5.416c.01.206.022.272.185.513l.384-.258c.271-.182-.065-.93-.241-1.193-.071-.107-.049-.11-.057-.202l-.365.169-.343.448c.182.106.036-.073.178.137l.185.276zm3.539-1.977c.137-.335.154-.704.329-1.129.125-.301.393-.888.179-1.206-.218-.326-.88-.269-1.195-.235l-.111.073-.275.184-.102.08-.56.834-.418.211-.619.388-1.733 1.338-1.205.82-.113.064-.4.122.11.165c.222.329.313.341.607.311l.111-.075.055-.037c.117-.079.301-.059.378.067l.469.96.071.111.059.201-.453.303-.449-.815c-.118-.222-.654-.446-.846-.549l-.074-.109-.063-.12-.398-.449c-.257.097-.386.02-.605.167l-.317.219.042.205.067.113.321.583.592.881c.191.286.25.749.277 1.009l.073.111.369.55.075.11c.404.217.441.172.881.126l.11-.075.632-.484.964-.585.386-.259.11-.074c.173-.323.297-.399.554-.702.182-.216.139-.445.305-.751l.165-.112c.076-.28.159-.456.052-.801-.052-.169-.233-.895-.241-.907-.209-.312-.321-.24-.59-.641l1.375-.923c.262.41-.013.738.244 1.157l.384.016zm6.282-.148-.067.132-.445.058-.075-.115-.399-.446-.136-.231-.073-.111c-.022-.211.025-.307-.131-.551-.223.084-.258.015-.458.149l-.55.369c.117.147.146.22.312.109l.112-.074.109-.074.204-.042.293.427-.132.163.078.112.074.111.072.109-.075.895-.288.228c-.2.133-.237.063-.458.148l-.223-.331c-.03-.216-.108-.635-.259-.862l-.074-.109-.073-.111-.035-.294-.078-.11c-.09-.135-.142-.129-.275-.054l-.981.557-.211.163.258.385c.116.172.314.251.459.329l.666.991c.186.1.228.192.46.09l1.579-.737c.101-.048.343-.393.584-.556l.331-.221c.107-.072.108-.049.203-.056l.295-.019.145.202c.345.512-.008 1.441-.546 1.801l-.55.37c-.299.201-.231.315-.531.515l-.495.333-.109.074-.297.033-.107.078-.484.225-.288-.188-.075-.107c-.18-.269-.477-.429-.699-.808l-.667-1.146-.423-.595-.074-.11-.054-.441-.077-.109c-.112-.168-.159-.185-.276-.294l-.077-.348.114-.075.164-.111.11-.073.229-.483.118-.07 1.352-1.188.629-.379c.366-.246.468-.088.825-.315.183.075.375.03.534.2l.35.403c-.001.179-.092.341 0 .478l.223.33c.353.528.194.884.279 1.01l.035.056c.101.147.075.168.129.311m3.62-.195c.035.33.262 1.26-.05 1.47-.179.119-1.071-.565-1.216-.86l-.261-.54c-.191-.35-.367-.28-.566-.768a4.4 4.4 0 0 0-.465-.856l-1.217-1.657-.389-.616-.073-.11-.112-.555.113-.159.106-.077c.303-.203 1.384.162 1.509.345l.035.055c.136.202-.079.238.057.441l.075.11c.206.308.631 1.108.755 1.247l.699.81.077.106.034.294.077.109.739 1.101zM-.001-1.492c-35.109 0-63.582-28.472-63.582-63.582s28.473-63.581 63.582-63.581 63.584 28.471 63.584 63.581S35.109-1.492-.001-1.492m0-1.418c-34.327 0-62.165-27.838-62.165-62.164s27.838-62.164 62.165-62.164S62.165-99.4 62.165-65.074 34.326-2.91-.001-2.91m0-20.8c22.84 0 41.365-18.522 41.365-41.364S22.839-106.438-.001-106.438c-22.839 0-41.365 18.523-41.365 41.364 0 22.842 18.526 41.364 41.365 41.364"/>
  </g>
</svg>
