<svg xmlns="http://www.w3.org/2000/svg" width="233.64" height="233.644"><defs><linearGradient x1="366.206" y1="433.531" x2="496.194" y2="433.531" gradientUnits="userSpaceOnUse" spreadMethod="pad" id="a"><stop offset="0" stop-color="#69c5f0"/><stop offset=".05" stop-color="#69c5f0"/><stop offset=".382" stop-color="#3f88d0"/><stop offset=".5" stop-color="#3f88d0"/><stop offset=".732" stop-color="#2c61b5"/></linearGradient></defs><path d="M116.82 22.984c-51.741 0-93.838 42.095-93.838 93.838s42.096 93.836 93.838 93.836 93.835-42.095 93.835-93.836-42.093-93.838-93.835-93.838m0 188.748c-52.336 0-94.91-42.578-94.91-94.911S64.483 21.91 116.82 21.91s94.912 42.577 94.912 94.911-42.578 94.911-94.912 94.911m-3.507-95.234h7.976V86.493h-7.976zm42.622-30.007v6.252h10.033v23.754h7.973V92.744h10.032v-6.252zm-11.108 11.878h-6.665c-1.772 0-3.204-.733-3.204-2.812 0-2.086 1.432-2.814 3.204-2.814h14.332v-6.251h-15.277c-5.702 0-10.328 3.292-10.328 9.065s4.626 9.063 10.328 9.063h6.858c1.768 0 3.204.731 3.204 2.818 0 2.081-1.436 2.81-3.204 2.81h-16.08v6.251h16.832c5.706 0 10.325-3.287 10.325-9.061 0-5.766-4.62-9.069-10.325-9.069M89.036 86.491l-11.28 27-10.753-11.995 13.444-15.005H71.34l-12.742 14.245V86.491h-7.977v30.007h7.977v-14.244l12.742 14.244h13.264l9.133-22.629 6.634 16.634H89.827l2.506 5.994h18.643L98.44 86.491z" fill="#1f4899"/><path d="M366.177 433.572a461.5 461.5 0 0 1 64.996-4.58c22.063 0 43.762 1.561 64.992 4.58a462 462 0 0 1-64.992 4.577 462 462 0 0 1-64.996-4.577" fill="url(#a)" transform="matrix(1.3105 0 0 -1.3105 -447.754 697.296)"/><path d="m36.738 191.354-1.393-1.587 3.443-3.021-.03-.033-5.741.397-1.536-1.746 5.245-.32 2.312-7.075 1.533 1.748-1.761 5.167 2.242-.124 2.229-1.953 1.393 1.583zm-6.867-17.101c-1.856 1.305-2.39 2.9-1.487 4.182s2.583 1.324 4.439.016c1.843-1.295 2.447-2.938 1.546-4.221s-2.655-1.271-4.498.024m4.19 5.961c-2.81 1.976-5.554 1.548-7.159-.735s-1.069-5.017 1.729-6.988 5.623-1.599 7.23.687 1.001 5.068-1.799 7.036m-8.486-12.328-.658-1.203c-.65-1.187-1.507-1.566-2.495-1.024-1.001.548-.983 1.384-.333 2.575l.66 1.198zm3.22-5.913-2.462 3.824.706 1.288 3.502-1.92 1.013 1.853-9.257 5.068-1.767-3.225c-1.062-1.942-1.228-3.849.899-5.017 1.388-.757 2.634-.529 3.627.307l2.611-4.238zm-11.833-.155-2.516-5.967 1.617-.68 1.694 4.018 2.248-.945-1.44-3.419 1.628-.685 1.443 3.416 2.601-1.096-1.756-4.17 1.628-.685 2.578 6.11zm.56-16.361-1.016.637-3.031 1.895.018.054 3.565-.149 1.196-.035zm1.434-.916.997 3.276 2.808-.083.625 2.043-11.079-.151-.723-2.371 9.099-6.33.647 2.114zm-4.569-13.679-1.093.484-3.274 1.434.008.059 3.55.366 1.187.139zm1.556-.699.512 3.384 2.79.33.317 2.111-10.936-1.756-.372-2.455 9.922-4.937.333 2.183zm.246-8.193c-.084-1.966-1.193-3.148-3.76-3.031-2.578.113-3.494 1.38-3.405 3.348l.029.653 7.166-.315zm-8.725 3.153-.128-2.892c-.143-3.22 1.439-5.288 5-5.446 3.548-.153 5.403 1.761 5.538 4.869l.134 3.005zm-.351-10.499.123-2.21 5.205-1.102 3.453-.692.005-.071-3.354-1.088-5.047-1.662.118-2.135 10.356 3.832L17.83 112zm7.648-15.104-1.193.136-3.548.398-.008.056 3.276 1.407 1.093.482zm1.689-.204-.516 3.384 2.569 1.141-.325 2.114-9.921-4.933.376-2.449 10.94-1.765-.333 2.186zM9.855 91.96l.556-2.076 6.222-1.508 2.476-.43.014-.072-3.631-.688-4.065-1.088.515-1.929 10.192 2.726-.55 2.065-6.245 1.49-2.468.443-.018.071 3.622.704 4.093 1.098-.518 1.925zm8.278-9.631c-3.244-1.263-4.334-4.087-3.365-6.572.484-1.248 1.469-2.013 2.38-2.393l.848 1.52c-.668.311-1.234.744-1.524 1.491-.581 1.486.262 3.098 2.376 3.924 2.14.83 3.819.318 4.426-1.238.325-.836.183-1.654-.18-2.409l1.625-.562c.628 1.177.725 2.423.228 3.7-.962 2.485-3.532 3.815-6.813 2.54m-.518-12.72 2.933-5.775 1.562.794-1.974 3.895 2.173 1.105 1.679-3.309 1.574.801-1.676 3.309 2.516 1.276 2.051-4.031 1.577.801-3.005 5.913zm13.855-6.793c1.067-1.656.843-3.257-1.316-4.648-2.17-1.394-3.647-.89-4.713.763l-.355.553 6.03 3.88zm-8.94-2.47 1.566-2.434c1.743-2.711 4.229-3.482 7.226-1.554 2.981 1.925 3.392 4.561 1.706 7.17l-1.63 2.532zm9.679-13.638 1.359-1.612 8.075 6.798-1.364 1.613zm4.106-4.794 1.52-1.525 6.144 1.794 2.362.865.047-.046-2.806-2.418-2.977-2.971 1.409-1.411 7.474 7.444-1.511 1.519-6.155-1.827-2.36-.843-.051.048 2.787 2.417 3 2.992-1.41 1.413zm14.2-.987.021-1.89c1.026.063 2.098-.202 2.818-.784.852-.693 1.012-1.427.543-2.004-.497-.607-1.147-.389-2.127-.107l-1.477.423c-1.106.334-2.476.345-3.448-.852-1.09-1.339-.752-3.318.912-4.669.949-.775 2.206-1.172 3.419-1.033l.005 1.705c-.87-.012-1.611.183-2.286.731-.722.584-.919 1.283-.48 1.826.474.586 1.232.32 2.153.03l1.444-.415c1.328-.404 2.493-.301 3.452.885 1.093 1.339.899 3.386-.995 4.922a5.6 5.6 0 0 1-3.955 1.232m6.004-13.946-2.478 1.638-.965-1.466 6.735-4.45.965 1.465-2.498 1.647 4.85 7.34-1.759 1.166zm6.153-5.88 1.84-1.026 5.132 9.222-1.845 1.024zm8.137-2.255-2.696 1.24-.731-1.595 7.331-3.371.734 1.594-2.721 1.253 3.679 7.997-1.92.881zm9.017.482-1.848-5.499 1.999-.675 1.909 5.677c.699 2.081 1.654 2.545 2.827 2.148 1.187-.4 1.712-1.355 1.013-3.436l-1.909-5.678 1.92-.645 1.848 5.504c1.118 3.323.156 5.163-2.291 5.988-2.432.816-4.348-.059-5.467-3.384m12.572-7.969-2.895.637-.379-1.71 7.884-1.743.376 1.712-2.926.647 1.899 8.592-2.06.457zm8.017-3.342 6.427-.778.207 1.738-4.33.523.294 2.422 3.679-.444.215 1.755-3.68.444.337 2.806 4.485-.545.215 1.76-6.583.792zm22.05 4.181c.069-2.266-.889-3.647-2.457-3.694s-2.608 1.279-2.675 3.545c-.064 2.251.891 3.719 2.457 3.77 1.566.045 2.613-1.369 2.675-3.621m-7.282-.215c.101-3.432 2.086-5.374 4.879-5.287 2.793.079 4.656 2.147 4.557 5.567s-2.086 5.457-4.882 5.374c-2.79-.083-4.656-2.237-4.554-5.655m13.477-4.535 6.445.865-.233 1.738-4.354-.586-.366 2.728 3.717.499-.236 1.751-3.717-.497-.571 4.239-2.09-.282zm11.597 11.298 1.558-1.073c.544.879 1.375 1.6 2.266 1.854 1.06.294 1.748.003 1.947-.713.212-.755-.339-1.164-1.136-1.802l-1.195-.961c-.908-.716-1.71-1.824-1.292-3.31.468-1.66 2.278-2.529 4.34-1.949 1.181.333 2.227 1.13 2.816 2.198l-1.385.989c-.494-.717-1.085-1.207-1.925-1.443-.889-.254-1.579-.016-1.768.659-.203.723.45 1.191 1.22 1.777l1.173.934c1.093.857 1.681 1.869 1.27 3.335-.464 1.66-2.25 2.688-4.6 2.027a5.62 5.62 0 0 1-3.289-2.524m11.032-.802c1.28-3.238 4.103-4.315 6.588-3.338 1.245.489 2.008 1.48 2.384 2.392l-1.525.839c-.303-.668-.738-1.238-1.48-1.531-1.487-.586-3.105.248-3.934 2.36-.843 2.136-.338 3.821 1.214 4.431.836.33 1.658.191 2.41-.169l.556 1.628a4.27 4.27 0 0 1-3.701.212c-2.483-.975-3.798-3.548-2.511-6.824m12.559-.494 1.896.927-4.633 9.478-1.896-.925zm5.58 2.813 5.585 3.274-.891 1.514-3.76-2.207-1.236 2.106 3.199 1.877-.894 1.523-3.199-1.877-1.428 2.438 3.901 2.286-.894 1.525-5.72-3.355zm8.968 5.459 1.732 1.275-.86 6.342-.505 2.465.059.041 1.971-3.132 2.493-3.389 1.608 1.181-6.254 8.5-1.722-1.267.891-6.356.481-2.464-.062-.037-1.971 3.112-2.511 3.413-1.607-1.186zm5.951 11.219c2.347-2.563 5.378-2.553 7.341-.75.987.907 1.341 2.103 1.364 3.089l-1.729.241c-.038-.737-.24-1.425-.83-1.966-1.177-1.08-2.981-.881-4.517.788-1.549 1.692-1.689 3.444-.457 4.572.659.605 1.476.772 2.31.712l-.067 1.717a4.27 4.27 0 0 1-3.529-1.131c-1.966-1.802-2.272-4.677.113-7.272m12.026 4.131 4.315 4.82-1.305 1.173-2.911-3.254-1.815 1.628 2.47 2.763-1.318 1.177-2.469-2.763-2.102 1.885 3.01 3.368-1.316 1.178-4.423-4.938zm7.137 19.1.789-.902 2.356-2.685-.03-.048-3.368 1.168-1.138.379zm-1.111 1.288-1.9-2.848-2.664.883-1.187-1.778 10.657-3.04 1.375 2.067-6.9 8.678-1.224-1.84zm9.826.98.988 1.915-3.576 5.31-1.535 1.984.03.066 3.153-1.942 3.735-1.937.921 1.774-9.369 4.855-.984-1.896 3.605-5.309 1.521-1.995-.037-.064-3.145 1.92-3.757 1.954-.919-1.772zm-1.746 17.006c.704 1.837 2.13 2.603 4.528 1.687 2.411-.921 2.871-2.414 2.173-4.254l-.235-.612-6.702 2.565zm7.282-5.752 1.034 2.701c1.155 3.013.312 5.478-3.018 6.749-3.32 1.273-5.685.037-6.796-2.866l-1.077-2.811zm4.083 18.462-.64-2.898 1.717-.373 1.731 7.881-1.715.376-.642-2.926-8.593 1.892-.453-2.061zm3.337 8.02.773 6.432-1.743.207-.518-4.333-2.421.291.44 3.681-1.759.21-.44-3.683-2.806.337.54 4.49-1.756.21-.788-6.585zm-4.289 9.795c3.475-.081 5.564 2.111 5.634 4.772.03 1.341-.586 2.428-1.283 3.127l-1.367-1.082c.502-.537.858-1.157.837-1.958-.035-1.595-1.434-2.759-3.698-2.705-2.296.051-3.652 1.169-3.612 2.839.018.898.463 1.596 1.09 2.157l-1.286 1.141c-1.031-.844-1.601-1.958-1.633-3.327-.063-2.664 1.797-4.876 5.317-4.963m5.401 11.597-.174 2.103-4.139-.345-.333 3.977 4.136.349-.173 2.09-10.518-.881.172-2.09 4.549.381.335-3.983-4.549-.376.18-2.107zm-1.318 12.618-.427 2.109-6.11 1.9-2.447.583-.013.069 3.675.465 4.122.827-.394 1.961-10.343-2.084.422-2.098 6.137-1.874 2.435-.604.016-.069-3.66-.476-4.149-.835.391-1.955zm-9.829 17.147c2.157.706 3.755.18 4.243-1.308.486-1.495-.489-2.865-2.646-3.571-2.14-.701-3.819-.202-4.308 1.291s.57 2.89 2.71 3.588m2.27-6.926c3.267 1.069 4.562 3.519 3.694 6.176s-3.378 3.862-6.632 2.798-4.648-3.55-3.778-6.208 3.464-3.832 6.716-2.766m.534 14.211-.862 1.93-8.019-3.592-1.746 3.904-1.616-.722 2.611-5.83zm-12.045 12.119c1.963 1.131 3.637.942 4.42-.414.784-1.362.11-2.898-1.856-4.032-1.95-1.128-3.698-.986-4.479.379-.786 1.352-.035 2.939 1.915 4.068m3.642-6.311c2.975 1.714 3.745 4.381 2.347 6.8s-4.101 3.088-7.064 1.377-3.819-4.428-2.422-6.85 4.173-3.043 7.138-1.328m-6.413 10.555c2.793 2.076 3.089 5.099 1.415 7.353-.911 1.224-2.065 1.68-3.035 1.815l-.405-1.705c.706-.113 1.372-.363 1.941-1.134 1.046-1.405.675-3.204-1.14-4.555-1.845-1.369-3.586-1.347-4.816.315-.308.409-.497.906-.472 1.303l1.672 1.238 1.113-1.497 1.385 1.026-2.232 3.01-3.827-2.836c-.136-.991.145-2.325 1.021-3.502 1.718-2.314 4.551-2.929 7.379-.832m-9.631 9.976 7.073 2.168-1.506 1.656-2.605-.953-2.344-.9-.039.038 1.093 2.276 1.186 2.508-1.48 1.62-2.798-6.855-2.857-2.605 1.423-1.556zM72.808 208.743l-.755 1.367-1.531-.845-2.073 3.753-1.656-.915 4.777-8.645 1.655.916-1.947 3.524zm-8.661-1.392c.726.401 1.44.353 1.797-.287.342-.625.005-1.257-.722-1.659-.74-.409-1.442-.353-1.789.271-.356.642-.026 1.265.714 1.675m5.395-1.736-6.799-3.757.712-1.292 2.557 1.415.684-1.229 1.666.92-.678 1.231 2.587 1.423zm-6.087 2.992c-1.655-.919-2.339-2.472-1.601-3.803.718-1.305 2.406-1.566 4.059-.653 1.659.913 2.333 2.483 1.611 3.789-.733 1.325-2.411 1.579-4.068.667m-1.571 2.601 6.212 3.432-.726 1.316-7.868-4.344 1.85-3.35 1.654.913zm21.136 4.293-.62 1.759 3.464 1.214-1.557 4.448-1.797-.632 1.065-3.044-7.047-2.472.491-1.398 3.596 1.257.617-1.76-4.734-1.656.497-1.418 7.927 2.774a15.3 15.3 0 0 0 1.278-2.772l-6.807-2.384.499-1.435 8.562 3.002-.347 1c-.325.932-.693 1.971-1.401 3.213l1.573.549-.497 1.419zm21.928 5.347-1.748-.301-1.072 6.217-1.866-.322 2.245-13.011 1.866.325-.907 5.239 1.751.301zm-6.972-.795a27 27 0 0 0 1.098-4.347l-4.858-.836.256-1.485 6.693 1.155-.181 1.059c-.218 1.257-.489 2.841-1.211 4.922zm-1.296 1.451 3.761.371-.134 1.362c-2.718-.003-5.639-.45-7.898-.827l.092-1.553 2.331.387.663-3.84 1.835.315zm25.785-2.1-1.743-.003-.008 3.309-1.891-.003.012-8.272 1.895.005-.008 3.397 1.748.003zm-8.255 1.52c.848 0 1.434-.33 1.434-1.005.003-.658-.583-.988-1.431-.991-.857 0-1.431.328-1.434.988 0 .672.574 1.003 1.431 1.008m-2.299 2.314 8.803.017-.008 4.398-1.891-.005.003-2.879-6.906-.01zm2.299-.883c-1.894-.005-3.238-.999-3.238-2.444.005-1.431 1.355-2.417 3.246-2.414 1.907.003 3.238.996 3.233 2.426 0 1.447-1.337 2.435-3.241 2.432m3.894-5.268-7.769-.012v-1.493l2.926.005v-1.232l1.907.005-.003 1.229 2.938.008zm19.558-4.886 2.216 13.021-1.878.315-2.217-13.013zm-3.637 2.017c.675 3.983-.115 7.463-4.357 10.487l-1.228-1.308c3.053-2.162 4.149-4.439 3.926-7.374l-4.339.742-.256-1.481zm17.684.712.282.795 3.376-1.187 1.134 3.238-6.816 2.388.249.704 7.141-2.506.47 1.342-8.915 3.124-1.149-3.274 6.832-2.396-.235-.675-6.847 2.401-.463-1.329 3.435-1.203-.277-.798-4.726 1.655-.491-1.405 11.255-3.947.491 1.407zm2.922-3.185c-2.229.528-4.053.257-5.239-.611-.384 1.415-1.658 2.772-3.726 3.76l-1.052-1.139c2.702-1.255 3.62-2.985 3.194-4.191l-.079-.228 1.837-.645.085.233c.417 1.2 2.211 1.987 5.106 1.273zm15.194-4.143-3.679-6.732 1.662-.906 4.796 8.776-1.659.911-.501-.919-2.178 1.19-.617-1.136zm-8.053-1.141c.308.569 1.006.564 1.788.138.765-.419 1.149-1.008.839-1.571s-1.016-.57-1.781-.153c-.778.425-1.157 1.021-.845 1.587m11.785 3.43.721 1.318-8.592 4.697-1.882-3.445 1.611-.883-.845-1.548-2.82 1.625-.937-1.206 7.183-4.377.755 1.119a30 30 0 0 1-2.588 1.837l1.195 2.194-1.598.87.866 1.584zm-13.359-2.57c-.672-1.231.062-2.728 1.759-3.655 1.684-.919 3.343-.73 4.017.499s-.069 2.715-1.753 3.639c-1.7.929-3.348.751-4.022-.484m23.788-10.405a1.934 1.934 0 0 1-3.87 0 1.94 1.94 0 0 1 1.932-1.938 1.94 1.94 0 0 1 1.938 1.938m-132.129 0c0 1.067-.865 1.933-1.936 1.933s-1.937-.866-1.937-1.933a1.94 1.94 0 0 1 1.937-1.938c1.071 0 1.936.869 1.936 1.938" fill="#1f4899"/><path d="M95.335 171.332h2.962v-7.925H95.73v-2.063c1.499-.282 2.473-.655 3.448-1.252h2.452v11.239h2.514v2.698h-8.808zm17.866-6.053c-.279-2.301-1.162-2.959-2.019-2.959-.883 0-1.633.62-1.633 2.227 0 1.501.75 2.043 1.687 2.043.674 0 1.426-.355 1.966-1.311m-4.756 5.357c.467.507 1.329.954 2.132.954 1.426 0 2.549-1.008 2.68-4.061-.671.895-1.853 1.402-2.662 1.402-2.339 0-4.084-1.387-4.084-4.385 0-2.958 2.099-4.722 4.589-4.722 2.642 0 5.209 2.006 5.209 7.065s-2.656 7.399-5.505 7.399c-1.874 0-3.225-.786-4.103-1.666zm15.418-7.771h-6v-2.772h9.558v2.019c-3.225 3.841-3.558 6.465-3.806 11.919h-3.354c.266-4.591.975-7.535 3.601-11.167m5.637 8.468h2.962v-7.925h-2.57v-2.063c1.499-.282 2.473-.655 3.451-1.252h2.452v11.239h2.511v2.698H129.5z" fill="#234f99"/><path d="M116.82 3.073C54.1 3.073 3.075 54.102 3.075 116.821S54.1 230.569 116.82 230.569s113.745-51.029 113.745-113.748S179.54 3.073 116.82 3.073m0 228.571C53.505 231.644 2 180.135 2 116.821S53.505 2 116.82 2s114.82 51.507 114.82 114.821-51.508 114.823-114.82 114.823" fill="#1f4899"/></svg>