<svg xmlns="http://www.w3.org/2000/svg" viewBox="0 0 215.37 90.87"><path d="M0 0h215.37v90.87H0z" fill="#1485ce"/><g fill="#fff"><path d="M76.91 55.35v1.03a2.59 2.59 0 0 1-2.59 2.59H42.66a2.59 2.59 0 0 1-2.59-2.59V24.72a2.59 2.59 0 0 1 2.59-2.59h31.66a2.59 2.59 0 0 1 2.59 2.59v1.03h4.74v-1.03c0-4.04-3.29-7.33-7.33-7.33H42.66c-4.04 0-7.33 3.29-7.33 7.33v31.66c0 4.04 3.29 7.33 7.33 7.33h31.66c4.04 0 7.33-3.29 7.33-7.33v-1.03h-4.74zM55.18 29.46h9.73l-2.4 8.86h.06l6.93-8.86h12.1L70.46 41.35l4.58 10.38H64.57l-3.28-8.95h-.06l-2.18 8.95h-9.6l5.73-22.27zm67.32 33.73c-.91-1.36-1.9-1.95-3.68-1.95-3.3 0-4.98 3.92-5.24 6.82-.2 2.31.88 3.41 2.66 3.41 1.9 0 3.35-1.06 4.59-2.62h.04l-.59 2.58c-1.45 1.63-3.38 2.05-4.52 2.05-3.98 0-4.53-2.77-4.28-5.61.38-4.32 2.6-8.98 7.7-8.98 1.9 0 3.38.61 4.01 1.84l-.69 2.46zm9.3 8.76c-.91.85-2.35 1.54-4.02 1.54-3.09 0-4.31-1.9-4.07-4.63.39-4.43 3.04-7.71 6.63-7.71 2.65 0 4.1 1.19 3.88 3.81-.09 1.04-.43 2.07-.78 2.99h-7.58c-.06.21-.1.47-.13.83-.16 1.86.65 2.92 2.57 2.92 1.5 0 2.79-.66 3.99-1.78l-.49 2.03zm.62-5.79c.12-.3.18-.59.2-.83.13-1.52-1-2.18-2.37-2.18-1.97 0-3.2 1.21-3.9 3.01h6.07zm6.21-4.75h2.05l-.74 2.84h.04c1.24-1.78 2.85-3.11 5.09-3.11 1.75 0 2.72.95 2.57 2.73-.03.38-.1.76-.21 1.14l-2.16 8.21h-2.16l1.85-7.05c.12-.45.22-.99.25-1.38.08-.95-.4-1.52-1.57-1.52-2.8 0-4.02 2.65-4.62 4.97l-1.31 4.98h-2.16l3.08-11.81zm11.81 2.19.32-1.33c1.92-.27 3.62-1.72 4.44-3.73h.74l-.88 3.17h3.51l-.49 1.89h-3.56l-1.05 3.73-.74 2.81c-.07.8.17 1.55 1.38 1.55.8 0 1.69-.44 2.34-.93l-.49 1.9c-.94.51-2.08.82-2.99.82-1.69 0-2.55-1.12-2.41-2.77.07-.85.22-1.4.44-2.2l1.38-4.91h-1.94zm16.84 8.35c-.91.85-2.35 1.54-4.02 1.54-3.09 0-4.31-1.9-4.07-4.63.39-4.43 3.04-7.71 6.63-7.71 2.65 0 4.1 1.19 3.88 3.81-.09 1.04-.43 2.07-.78 2.99h-7.58c-.06.21-.1.47-.13.83-.16 1.86.66 2.92 2.57 2.92 1.5 0 2.79-.66 3.98-1.78l-.48 2.03zm.62-5.79c.12-.3.18-.59.21-.83.13-1.52-1-2.18-2.37-2.18-1.97 0-3.2 1.21-3.9 3.01h6.06zm6.18-4.75h1.99l-.88 3.11.02.04c.73-1.27 1.91-3.41 3.61-3.41.36 0 .81.11 1.04.27l-.6 2.27a2.53 2.53 0 0 0-1.2-.3c-2.35.06-3.05 2.75-3.71 5.31l-1.17 4.53h-2.16l3.06-11.82z"/><path d="M55.18 29.51h9.74l-2.4 8.87h.06l6.93-8.87h12.11l-11.15 11.9 4.59 10.4H64.58l-3.28-8.96h-.06l-2.19 8.96h-9.62l5.75-22.3zm28.25 0h10.96l2 12.93h.06l3.37-12.93h9.61l-5.99 22.29H92.83l-2.62-11.61h-.06L87.06 51.8h-9.61l5.98-22.29zm29.48 4.19c2.68-4.28 7.34-4.84 13.02-4.84 5.65 0 12.12.22 12.12 7.18 0 3.22-1.34 8.49-3.78 12.27-2.44 3.87-8.31 4.15-12.77 4.15-6.93 0-12.11-.22-12.11-7.18-.01-3.21 1.3-8.02 3.52-11.58zm7.96 4.75c-.84 1.59-1.56 4.12-1.56 5.24 0 2.31 1.56 2.84 2.84 2.84 2.28 0 3.22-.4 4.16-2.12.34-.63 1.53-3.03 1.53-5.56 0-1.62-.87-2.62-3.03-2.62-1.54 0-2.82.09-3.94 2.22zm20.05-8.94h9.87l-1.1 15.24h.06l5.28-15.24h9.74l-1.5 15.24h.07l5.84-15.24h10.86L168.8 51.8h-11.58l1.19-15.49h-.07l-5.18 15.49h-12.24V29.51z"/></g></svg>