<svg xmlns="http://www.w3.org/2000/svg" width="1000" height="1000"><path fill="rgba(255,255,255,0)" d="M0 0h1000v1000H0z"/><path d="M45.843 424.857.307 361.842c-.43-.666-.425-.715.133-1.213.607-.542 66.764-48.363 68.097-49.223.759-.49.765-.489 1.324.167 1.539 1.806 49.313 68.129 49.382 68.555.06.371-.873 1.185-3.708 3.236L50.15 430.486c-.124 0-2.061-2.534-4.307-5.63z" fill="#f26e20"/><path d="M871.373 688.82c-1.644-.047-2.93-.182-2.856-.301s-1.203-.298-2.837-.396c-11.522-.693-25.953-3.442-36.417-6.938-9.82-3.28-19.604-8.102-26.69-13.153-10.384-7.403-18.987-17.063-24.88-27.94-7.354-13.571-11.403-28.968-12.597-47.892-.217-3.43-.278-26.773-.217-83.176l.084-78.408h81.321l.147 77.083 1.21 85.162c2.681 16.067 10.724 24.765 25.397 27.46 3.702.68 13.695.679 17.35 0 8.775-1.634 15.035-5.37 19.378-11.565 3.545-5.057 5.397-10.786 6.637-20.529.22-1.727.328-23.753.396-79.942l.417-77.679c.178-.067 18.592-.151 40.918-.188l40.595-.067v79.493l-.172 82.306c-.095 1.547-.274 2.75-.398 2.674s-.226.434-.228 1.135c-.004 1.67-.88 8.65-1.59 12.664-2.65 14.993-8.468 29.55-15.981 39.987-3.875 5.382-10.437 12.27-15.687 16.464-12.089 9.658-28.024 16.589-46.735 20.328-6.241 1.247-14.737 2.385-20.322 2.72-1.634.099-2.92.262-2.857.364.263.426-13.278.62-23.386.333zm-715.614-3.687c-.097-.097-.177-24.559-.177-54.36l.37-53.795c.357.374 77.737 107.328 78.137 108 .158.264-7.71.33-38.978.33-21.547 0-39.255-.08-39.352-.176zm184.115-.287c-1.461-1.617-93.93-129.796-93.83-130.07.067-.187 19.09-28.229 42.274-62.315l42.153-61.976h45.266l45.266.133c0 .073-19.013 28.026-42.25 62.119l-42.25 62.48c0 .272 21.098 29.6 46.886 65.174l46.886 64.8c0 .066-20.246.12-44.99.12-42.512 0-45.015-.026-45.41-.464zm114.893-.662c-.07-.183-.095-57.31-.058-126.95l.068-126.618 40.548-.067 40.548-.068 1.294 2.054 85.735 133.839c4.544 7.083 8.264 12.62 8.512 12.667.41.08.446-5.078.508-74.17l.066-74.254h77.084v253.765h-80.976l-47.61-71.653-48.052-71.738c-.411-.08-.445 4.864-.508 71.653l-.067 71.738-38.483.068c-30.648.053-38.51 0-38.61-.265zM195.24 485.041l-39.034-54.165c-.134-.348 4.466-.386 39.015-.326l39.166.067.067 54.104-.133 54.097c-.11-.003-17.696-24.203-39.082-53.777z" fill="#285ba9"/></svg>