<svg xmlns="http://www.w3.org/2000/svg" width="1000" height="1000"><path fill="rgba(255,255,255,0)" d="M0 0h1000v1000H0z"/><path d="M837.924 537.233V45.455H162.051V537.48c-.061 7.192-.483 180.077 122.629 282.567l-.274-.22c3.866 3.434 95.944 84.163 210.35 133.453l2.254.956h6.164l2.339-1.122c110.141-51.078 210.563-132.152 211.59-132.953 123.25-102.639 120.973-275.595 120.821-282.928z" fill="#8b0029"/><path d="M186.899 70.52v4.792h627.729V70.52H186.899zm0 134.386v4.806h627.729v-4.806H186.899zm-1.426 80.233v4.792h627.749v-4.792H185.473zm118.419-100.776c-3.352-2.555-6.539-4.951-13.413-12.163l-33.423-36.992 33.741-41.274 1.926-2.021h-16.455l-36.641 45.329V91.913H223.04v95.741h16.587v-49.037l38.266 42.599c3.153 4.235 8.875 6.435 16.86 6.435h13.677l-3.271-2.332c.041.02-1.267-.956-1.267-.956zm78.499-95.278c-14.586-.084-27.144 4.826-37.316 14.583-10.152 9.757-15.329 21.744-15.329 35.61 0 14.603 5.1 26.884 15.184 36.461 9.794 9.398 21.919 14.15 36.09 14.15 14.153 0 26.448-4.917 36.515-14.667 10.034-9.73 15.184-22.065 15.184-36.661 0-13.359-4.745-24.951-14.082-34.43-9.672-9.895-21.903-14.951-36.245-15.046m-.693 88.313c-9.963 0-18.408-4.17-24.947-12.423-6.151-7.644-9.283-16.718-9.283-26.979 0-10.578 3.129-19.422 9.297-26.222 6.168-6.752 14.447-10.182 24.653-10.182 10.007 0 18.317 4.126 24.731 12.278 5.867 7.54 8.851 16.823 8.851 27.546 0 10.419-3.015 19.098-8.979 25.792-6.154 6.742-14.37 10.189-24.322 10.189zm232.287-35.525 30.777.017v-12.541l-30.777.014v-24.816c6.718-.159 37.658-.01 38.013-.01l1.051.01V91.673l-55.782-.037V92.7l.071 94.95h61.507l.152-13.491-45.008.037-.003-32.325zM747.858 91.64h-15.377l-39.145 96.015h14.816l13.167-35.225h34.589l13.423 35.225h18.378L748.554 91.64h-.696m2.7 48.087h-24.599l12.433-31.531 12.166 31.531zm-211.043 26.238-19.932-24.917c3.295-1.203 9.057-3.778 13.461-8.385 4.816-5.005 7.246-10.733 7.246-16.985 0-7.029-2.663-12.815-7.945-17.202-5.492-4.522-13.075-6.816-22.609-6.816h-31.875v95.995h17.11v-1.477c-.449-3.217-.473-8.161-.473-19.564V103.62c15.657-.152 21.886 1.828 24.316 3.545 3.271 2.335 4.883 5.694 4.853 10.301-.061 10.595-7.83 16.928-23.741 19.324l-1.811.253 33.65 43.075c3.984 5.019 9.814 7.533 17.35 7.533h13.707l-2.825-1.936c-6.83-4.67-14.322-11.865-20.48-19.75zm-60.317 84.18h14.687v-5.982l-14.687.014v-11.832c3.194-.081 17.938 0 18.117 0h.48v-6.127l-26.553-.024v.51l.037 45.255h29.212l.179-6.445-21.47.027-.003-15.397zm-218.549-23.903h-5.509l.041 28.195c0 8.415-1.943 12.994-12.295 12.994h-1.203c-6.877 0-10.351-4.397-10.351-12.994l.041-28.195h-7.945l-.03 28.219c0 3.427.135 5.762.422 7.188.48 2.558 1.538 4.792 3.197 6.59 2.987 3.244 7.263 4.921 12.707 4.921h5.137c5.424 0 9.733-1.676 12.7-4.921 1.636-1.798 2.693-4.032 3.183-6.6.291-1.416.409-3.751.409-7.178l-.014-28.219h-.49zm68.938 0-.01.497-.054 33.109-26.478-33.606h-6.874v45.813h5.982l.024-34.258 26.843 34.241 6.604.017v-45.813h-6.036zm39.798-.001v45.813h7.874l.027-45.813h-7.905zm286.511 45.812h7.891V226.24h-7.949v35.762l.057 10.051m-217.58-45.812-13.109 35.907-12.876-35.907h-9.003l17.07 45.85 7.171-.01 17.695-45.84h-6.948zm178.823 22.602c-.034-.034-6.157-3.042-6.157-3.042l-5.259-2.575c-3.856-2.024-5.796-4.224-5.796-6.549 0-1.95.889-3.376 2.697-4.366 1.369-.808 3.366-1.196 5.799-1.112 4.008.115 8.107 1.311 10.247 2.971l.794.635v-8.128l-.331-.105a34.86 34.86 0 0 0-10.314-1.524c-4.735 0-8.739.936-11.896 2.788-3.799 2.163-5.715 5.387-5.715 9.55 0 4.235 2.129 7.773 6.333 10.48.024.027 2.254 1.122 2.254 1.122l9.138 4.481c3.846 2.031 5.796 4.38 5.796 7.036 0 1.997-1.017 3.599-3.156 4.856a11.24 11.24 0 0 1-6.063 1.713c-4.931-.047-9.571-1.271-13.755-3.694l-.889-.537 1.179 8.013.304.095c3.667 1.369 7.874 2.082 12.362 2.082 5.569 0 10.389-1.453 13.846-4.194 3.271-2.629 4.894-6.144 4.894-10.392.007-3.731-2.119-6.931-6.313-9.605zm76.664-22.774v.493l-.024 5.502 12.785.044v39.834h7.878l.024-39.834h13.065v-6.039h-33.727zm85.346.057-12.477 19.277-12.295-19.334h-9.118l16.499 25.914-.057 19.959h7.922l.034-19.949 17.168-25.867h-7.675zm-219.14 35.495-9.51-11.889c1.612-.578 4.346-1.791 6.428-3.971 2.288-2.406 3.447-5.14 3.447-8.114 0-3.349-1.25-6.093-3.799-8.205-2.619-2.16-6.242-3.224-10.75-3.224h-15.181v45.742h8.131v-.727c-.21-1.528-.21-3.751-.21-9.307v-30.034c7.432-.068 10.409.875 11.568 1.707 1.578 1.105 2.349 2.707 2.325 4.894-.024 5.059-3.731 8.087-11.311 9.223l-.852.115 16.022 20.517c1.893 2.376 4.65 3.606 8.226 3.606h6.59l-1.389-.956c-3.251-2.193-6.8-5.644-9.736-9.375zM814.39 537.48v1.061c0 14.515-2.592 172.182-112.223 263.442-.889.696-96.519 77.891-202.277 127.83-108.992-47.962-199.026-126.802-199.935-127.6l-.264-.23C186.857 708.057 185.556 543.779 185.556 537.75V315.46h628.837l-.003 222.02z" fill="#d6cabc"/><g fill="#8b0029"><path d="M447.075 851.094h8.635c1.196 0 .754-1.085.754-1.085-3.518-15.515-1.683-27.692-1.007-31.304 0 0 .338-1.065-.899-1.065h-8.53c-1.163 0-.723.892-.723.892 2.893 11.93 1.771 27.039 1.017 31.409 0-.003-.534 1.152.754 1.152zm31.994-34.424c-13.748 1.332-12.9 17.445-12.9 17.445.841 14.583 15.961 17.34 15.961 17.34-4.13 11.183-15.174 14.515-15.174 14.515-2.599 1-.696 1.751-.696 1.751 3.302 1.098 8.104-.841 8.104-.841 20.189-9.044 20.713-30.206 20.713-30.206.429-21.585-16.009-20.003-16.009-20.003m4.914 29.669c-6.58.199-8.161-10.051-8.161-10.051-1.69-11.244 2.68-11.889 2.68-11.889 4.62-1.446 6.641 8.124 6.641 8.124 2.247 11.031-1.159 13.815-1.159 13.815zm46.022-16.617s-1.811-13.366-14.363-13.231c0 0-12.399-.314-12.964 16.877 0 0-.473 18.145 15.198 17.36 0 0 15.353-.956 12.129-21.007m-11.919 15.258c-5.934 2.173-6.59-9.942-6.59-9.942-.632-11.582 4.089-12.724 4.089-12.724 4.768-1.196 6.1 7.327 6.1 7.327 2.149 13.167-3.599 15.34-3.599 15.34zm15.61 10.389c13.251 2.619 16.756-6.766 16.756-6.766 4.228-13.319-12.41-13.964-12.41-13.964l2.677-17.141s16.698.791 21.162-1.423c0 0 1.041-.706.456 1.808 0 0-.923 5.688-6.37 6.114l-8.202.686-.781 4.829s14.197-.308 13.93 15.029c0 0-.527 11.849-14.387 14.768 0 0-6.495 1.423-13.974-1.622 0 0-1.142-.551-.537-1.463 0 0 .534-1.088 1.68-.855zm-48.871-321.08c1.058-1.271 2.406-.375 3.538 0 1.068.301 1.098 2.386 1.717 3.457.328.75 2.399 2.849 2.599 3.491 1.68 7.712 0 17.82-3.467 23.677-.983 1.798-2.579 2.744-3.701 2.805-1.457.125-1.926-2.011-2.443-2.805-2.22-3.099-.544-10.487 0-13.94.578-4.441-2.893-11.595-.679-14.829.003.003 2.396-1.855 2.437-1.855zm-104.873 8.138c1.876-.561 4.569.372 5.708 0l2.518-1.031c2.91-1.872 5.803-1.338 8.76-1.031 1.477.166 5.847 2.058 7.303 2.112 2.335.27 13.359 1.467 25.1 3.15-.105-.041 6.255-.831 4.65-2.599 1.007 1.146-.176-.956-2.579-1.788l-.818-.875c.095-.091-2.031-1.774 1.754-3.035-1.436.419 2.484-.578 3.248-1.402 1.521-1.636-.71-3.386-.71-3.386-5.546-1.872-11.778 1.686-20.111.811-4.106-.335-9.926-2.683-15.708-1.737-6.299 1.122-15.559 4.67-19.969 8.104-.003.003-2.102 3.674.855 2.707zm70.175-45.437c5.671-.338 5.924 5.536 6.056 4.934-.645 4.191-10.946 4.566-13.386 7.837-7.202 9.371-4.214 18.334-21.22 19.29 0 0-3.42-.791-2.099-2.193 1.068-1.132 5.191-2.22 6.708-3.153 2.203-1.264 2.021-4.809 3.471-6.989.304-.541 2.22-1.217 2.693-1.683 4.768-6.458 5.309-12.994 13.738-16.827.338-.21 3.41-1.092 4.039-1.217z"/><path d="M504.601 471.762c1.94-1.095 3.856 0 5.13 1.149.737.524 6.975 15.444 7.256 16.931.794 5.424 1.406 17.935-.071 21.946-2.092 5.593-7.269 9.909-6.147 19.831.608 5.843 3.18 10.382 5.644 15.454.291.841 2.852 5.799 2.981 6.837.956 5.34-1.963 12.23-2.406 16.553-1.308 10.767 3.004 20.544 1.274 30.814-.727 4.417-2.149 6.651-4.572 9.381l-1.94 1.646c-.537 1.075-1.497 1.43-2.477 2.18l-1.183 1.206c-1.822.426-1.997 1.497-2.744 1.582-4.61 1.027-5.549-1.673-5.259-1.041-4.67-13.167 3.156-28.547-.845-41.26-.923-2.92-4.37-5.833-4.833-8.949-1.595-11.389 9.067-17.394 8.915-25.066 0-5.455-7.185-12.562-8.81-17.938-2.034-6.306-3.379-18.398-.608-26.262.649-1.93 3.119-5.154 3.802-7.699 1.308-4.917 3.329-8.966 4.032-12.241.243-.99.872-2.43 1.399-3.386.189-.311 1.136-1.484 1.463-1.669zm135.967-27.188c7.688-.899 11.146 2.139 7.546 8.699l-1.507 1.426c-.618.223-2.663 2.903-3.085 3.278-3.731 2.748-7.232 4.437-10.064 7.911-.98 1.163-1.774 4.133-2.977 5.147-1.926 1.386-9.29 4.63-11.159 4.968-9.324 1.49-21.99-7.807-23.383-13.183-1.203-4.603 0-9.084 2.001-10.138 3.14-1.595 11.426-.771 14.255-1.058 7.185-.534 11.707-.139 17.202-2.041 3.342-1.088 7.151-4.549 11.173-5.008zm-39.706-3.109s4.37 1.825 8.283.882c2.768-.693 7.898-3.042 10.483-3.505 1.565-.362 3.761.422 5.282 0 4.255-1.294 12.085-9.615 2.71-10.503-3.413-.321-13.552 3.508-16.722 4.39-3.167.808-5.14 1.332-7.769 2.71-.703.412-4.333 3.39-3.903 2.879-.003-.007-2.396 2.001 1.636 3.146zm-67.025 15.741c-2.734-.379-2.734-4.978-9.628-3.491-4.812 1.01-6.124 8.08-13.133 7.891l-3.481-1.7c-3.038-.73-5.231.328-7.898-.983-12.335-5.765 9.557-35.356 16.641-34.961.372 0 4.018 1.332 4.464 1.727 2.193 1.913 2.193 10.172 4.265 13.153 1.575 2.102 4.055 1.93 6.181 3.505 2.234 1.686 6.448 7.513 6.965 10.547-.007 0 1.139 5.056-4.376 4.312zM647.74 696.293c.139-.179.139-.179 0 0zm0 0-.034.034c.034 0 .034 0 .034-.034zm98.235-260.198c0 .047.01.105.01.172 0 .01.047.024.047.044-.044-.101-.044-.162-.057-.216zm-110.506-8.334.213-.446-.213.446zm-53.244 149.462c-.01 0-.115 0-.152-.034.152.105.186.105.152.034zM480.755 459.39c-4.779 2.673-15.198 6.769-17.374 11.402-1.213 2.43-1.213 4.539-2.19 7.452-.135.314-1.423.831-1.825 1.717-5.083 0-9.564-.321-13.967.858-3.447.98-8.412 4.63-12.247 5.296-7.773 1.342-13.717-2.119-21.007-.892-3.248.571-5.333 3.937-7.999 5.286-2.281 1.092-3.207 1.092-4.988 2.717l-1.612 1.865a26.42 26.42 0 0 1-1.561 3.309c-1.582 2.383-2.22 4.809-2.599 7.374-.385 2.491-1.832 8.466-3.133 10.939-.632 1.193-3.92 3.876-4.393 4.978-.25.75-.99 1.484 0 2.606-1.139-1.237-.909 1.213 5.4 1.551 6.935.142 22.038-4.481 22.038-4.481l7.249-3.907c1.402-1.081 7.026-5.34 8.266-6.82 5.282-6.549 19.408-30.419 30.399-24.174l1.98 1.413c2.622 4.414-.689 17.006-2.656 19.892l-2.484 2.964c-1.963.635-3.336 5.708-3.626 8.087-.463 3.761.629 7.171.909 9.273.568 4.532 1.041 10.257-1.761 15.857-.605 1.081-2.19 3.028-1.767 6.063.531 3.437 5.404 5.951 6.107 8.8.422 1.426 1.676 1.649 0 4.387-.929 1.47-4.941 3.971-6.107 5.248-1.585 1.612-.199 4.137.845 5.127 3.028 2.734 5.532 3.085 7.884 6.228 3.352 4.299 3.16 8.04 10.541 8.756 5.792.534 13.978.865 10.52-7.036l-1.74-2.947c-2.061-5.147-5.667-9.73-6.151-15.373-.679-7.178 5.093-10.821 2.666-16.617-1.943-4.451-10.683-3.951-11.409-9.736-.368-3.224 2.91-10.064 3.528-13.143.673-4.207-.449-6.874.912-10.487.872-2.579 4.704-5.478 5.123-8.699.821-5.782-3.643-9.429-1.703-15.755.963-3.261 6.063-2.889 7.938-5.296 2.426-3.244 1.092-7.722 2.572-12.278.145-.527 1.399-3.251 1.653-3.724-.145-.199 1.004-5.863 1.004-5.863-.76-3.552-2.971-2.099-3.234-2.217m-55.458 46.215c-4.9 1.122-5.34-9.334-17.141-5.259-.608.23-3.92 3.268-4.201 3.748-1.372 3.119-.632 11.078-2.193 11.838 0 0-4.579 1.132-3.684-4.664 1.413-9.209 3.183-10.923 7.834-14.802.632-.507 2.376-1.815 3.271-2.014 5.563-1.261 15.823.858 17.668 3.684 1.585 2.345-1.767 7.536-1.555 7.469z"/><path d="M745.988 436.267c-.818-4.275-12.443-3.971-17.127-9.679-1.757-2.285-.456-3.538 0-5.245 1.332-4.988 11.953-2.031 14.441-6.472 1.007-1.862 1.345-7.35.676-8.101-6.647-8.175-20.703-4.282-30.635-8.246-4.768-1.963-10.727-5.934-15.752-7.824-6.32-2.416-11.196-2.768-17.502-5.272-1.44-.622-4.241-2.68-5.749-3.295-7.026-2.819-12.599-3.383-19.584-6.37-.841-.304-2.967-1.517-3.89-1.903-2.795-1.196-3.684-1.369-6.661-2.464-10.818-3.92-24.61-7.388-40.301-6.391-6.871.365-14.782-.906-25.38 2.112-3.667.923-8.787 4.093-12.224 5.174-2.43.727-4.508 1.146-6.708 2.102-3.045 1.24-5.749 3.021-9.929 4.011-12.034 2.693-28.09-.26-40.29 1.767-10.574 1.7-16.688 8.374-25.383 11.382-2.656.875-3.751.595-6.367 1.551-1.521.52-5.123 1.473-6.337 2.163-3.63 1.865-5.995 2.43-10.084 4.147-2.051.923-4.491 2.802-6.475 3.721-2.944 1.46-3.113 1.865-5.546 3.636l-1.98 1.436s-4.278 3.738-4.796 4.4c-1.7 1.781-3.336 4.235-4.802 6.09-4.451 5.188-11.135 11.693-16.671 15.708-2.014 1.46-3.43 1.149-5.201 2.697-2.095 1.588-3.937 3.288-5.931 4.806-4.589 3.292-9.175 5.468-14.231 8.246l-3.248 2.163c-4.282 2.815-4.106 3.947-8.547 6.749-2.889 1.98-4.153 4.944-6.823 7.215-1.757 1.365-3.775 5.64-4.954 7.465-5.502 8.06-7.567 19.926-11.487 29.912-1.176 2.839-10.733 16.617-13.109 17.492l-1.757 1.673c-1.362 1.146-1.362 1.484-2.602 2.7-2.825 2.514-5.678 3.951-7.857 7.026-1.781 2.379-2.825 5.184-4.451 7.824-2.504 4.116-6.624 8.668-8.709 13.16-.848 1.656-1.457 3.315-2.051 4.907-.22.23-.379.514-.443.514-1.068 1.365-2.92 7.009-2.92 7.009-1.94 4.508-6.563 7.046-12.677 15.762-7.141.51-31.764-5.735-48.509-13.673 3.748 4.174 22.538 16.816 44.549 19.223-1.46 2.153-1.585 4.346-4.224 5.039-8.807 2.173-24.099-2.646-44.674-9.831 1.193 2.873 19.304 13.498 46.046 15.123-3.961 4.647-40.696 3.491-69.432-4.333-1.092 3.004 35.921 11.237 56.238 10.956-3.481 1.784-12.616 3.856-18.499 5.975-9.25-1.031-22.183-2.639-24.694-3.589.585 1.872 9.743 4.366 17.33 6.124-7.29 2.606-18.094 4.116-22.291 4.998 3.062.771 14.779-1.098 27.093-4.066 10.791 2.068 27.306 4.221 36.39 3.809-2.281 1.132-10.825 6.637-17.573 10.588l-40.071 3.576c2.264.345 17.398.585 33.535.179-9.851 5.769-20.361 11.784-25.417 14.093 7.486-1.92 20.845-7.026 34.501-14.363 13.548-.48 26.249-1.592 31.537-3.481-1.811 3.951-12.761 22.845-22.957 27.229 4.4-.727 18.547-4.708 27.1-26.127 3.038 1.311 6.495 2.078 10.527 2.325 2.254 3.403 7.59 12.116 17.702 12.622 2.061 5.863 20.811 36.445 47.154 24.528-7.607-4.14-12.207-8.428-15.958-20.639 11.683-.727 42.626 16.245 51.943 52.92-7.327-2.464-16.492-6.702-17.465-10.382-2.011 8.493-3.329 19.432 15.434 38.337.358 4.042.291 8.891 1.152 13.461 3.099 3.234 6.678 5.644 9.993 8.459.233 5.319-.514 12.629 13.467 16.722 4.755 3.927 20.017 8.128 22.247 10.747 4.556 1.467 11.318 1.747 16.242 1.467 0 0 6.631-1.122 8.401-3.66 3.309-.186 7.8-.291 28.084-21.896 4.255-5.083 0-33.021 1.017-39.8 1.984-4.927 2.876-9.473 5.586-15.539 0 0 2.744-5.985 7.925-8.388.348-.166.652-.166 1.085-.28 11.683-2.639 26.887 8.297 34.082 11.358 2.619 1.071 3.998.49 6.1 1.774 1.041.534 2.487 2.92 3.548 3.528 2.572 1.436 5.049 1.041 7.925 2.568 4.184 2.335 12.69 14.63 20.098 13.207 2.291-.551 4.113-5.809 6.1-7.08 3.457-2.119 8.293-1.92 11.379-4.322 3.528-2.785 2.078-5.904 2.619-9.676 0-.176 1.632-1.94 1.788-2.69 1.717-.166 5.525-.01 7.911-.771.304-.115 1.308-1.288 1.717-1.734 1.507-1.575.409-3.248 0-4.535-.527-1.402-4.103-3.055-5.221-4.275-2.629-2.616-7.127-6.428-8.81-9.608-.794-1.615.213-1.947-.899-3.596-1.156-1.822-4.218-3.714-5.154-6.053-3.38-7.513-2.034-24.275-3.518-26.607-1.389-2.254-3.106-1.96-4.474-4.069-2.91-4.613.679-19.479.933-25.37.26-4.718-4.37-1.774-4.37-1.774-3.832 9.446-3.423 13.63-4.37 27.144-.142 1.196-1.764 8.415-1.764 9.686-.061 4.725 2.71 12.731.841 18.374-.618 1.849-4.417 5.397-9.615 5.259-1.963 0-11.767-2.545-13.988-3.491-.429-.223-2.511-2.599-2.677-2.68-4.86-3.856-5.89-.23-6.1 1.697-.152 2.034.666 2.42 1.065 3.542.176 1.122 2.149 5.329 1.95 5.667-.071.422-1.774 5.025-10.879-.338-6.86-4.164-13.636-15.586-13.998-17.55-.946-4.407.406-7.712 1.247-9.223 3.423-3.096 7.502 1.2 10.916 3.048.865.456 2.967 1.94 4.018 2.139 2.011.338 5.238-.372 5.681-.372 13.298-.781 27.063 4.042 29.422-4.887 1.473-5.596-4.042-8.614-5.012-10.923-1.25-2.856-.608-3.015-1.321-6.157-.118-.243-1.027-2.278-1.24-2.524-1.355-2.339-.375-4.37-1.73-6.985-1.389-2.849-5.326-4.579-6.965-7.023-2.264-3.234-2.264-7.276-5.306-9.648-4.485-3.667-22.423-9.01-24.512-13.183-3.413-6.61.791-18.78-.865-27.083-.899-4.873-2.477-7.526-5.455-10.527-1.146-1.169-1.693-2.92-1.274-4.501.771-2.906 2.315-2.112 3.2-8.648.561-3.576-.328-7.617 0-11.355.024-.608 1.73-6.333 1.835-7.009.794-9.77-.48-19.993-2.639-27.066-1.031-3.45-4.221-6.424-5.282-9.692-.919-2.741.189-4.316-.919-7.039-.865-2.406-3.927-4.082-5.144-6.053-2.383-3.481-1.68-9.409-5.316-11.419-2.663-1.48-3.606.585-3.447 0-.889 3.207-.703 6.337.862 10.487.635 1.791 3.917 4.383 4.441 6.154.676 3.234-.524 7.154 0 10.52l1.683 3.528c1.342 8.783-3.437 20.439-6.989 25.333-2.501 3.248-10.024 7.408-10.483 12.257-.385 3.038.852 3.136 1.626 4.407 1.129 1.612 4.741 3.707 5.302 5.235.399 1.146.841.916 1.298 2.045l.453 2.383c.608 6.124-7.384 7.516-3.505 14.86 1.098 2.119 4.86 2.119 6.965 3.461 3.974 2.524 11.534 9.615 12.247 15.694.328 2.673-.01 16.766-.794 18.449-1.825 3.903-11.663 5.421-10.541 13.146 1.24 8.425 23.464 6.039 29.706 10.473 2.967 2.068 3.576 6.573 4.474 10.595.504 2.176-1.673 2.91-2.639 3.407-2.349 1.365-4.032.314-7.012.946-7.219 1.47-18.766 4.711-21.791 10.527-3.809 6.685.676 15.88-.936 23.555-1.588 6.979-6.823 15.448-10.585 21.091-2.325 3.413-5.269 6.8-6.37 11.615-2.582 10.331-.784 22.528-1.531 34.657l-.142.095s.446 6.286-3.785 10.868c-4.816 5.282-21.477 20.868-33.298 20.868-4.387-.142-6.181-1.588-10.96-5.049-3.025-.257-9.956-1.94-13.957-6.11-1.257-2.234-14.316-15.468-6.11-19.246 7.722-3.548 20.213 4.184 25.998 7.928 2.349 0 19.239.841 37.181-22.673-.841-12.318-1.859-28.094-3.2-30.963-1.869-6.029-12.058-16.698-14.241-23.079-1.348-5.188-3.778-15.353-2.207-22.399-.683-7.864-5.651-9.594-7.712-15.965-.564-1.612-1.237-2.862-1.595-3.356-.618-2.298-1.048-4.356-2.46-6.455-3.113-4.768-6.154-5.799-9.006-10.453-2.974-4.836-2.443-10.865-7.023-14.018-2.524-1.683-5.907-1.845-8.729-3.481-2.051-1.227-4.64-4.191-7.009-5.248l-6.33-2.829-5.059-2.403c-1.227-.716-2.467-.095-3.501-.936-3.38-2.876-.946-5.455-2.622-10.433-.162-.625-1.48-.642-1.788-1.764-1.399-.375-3.856-2.606-5.755-1.277-2.612 1.93-3.356 1.369-4.978 5.38-.94 2.639-2.724 10.405-4.505 12.305-1.568 1.879-3.565 4.485-6.049 6.228-2.325 1.213-4.36 1.071-4.36 1.071l-6.549.956-3.258 5.015s-3.565-.48-5.451-.48c-.534 1.213-4.853 4.532-6.208 5.701-5.549 3.251-8.952.96-9.321-.23-.28-1.041-2.031-3.241 1.713-5.468 12.835-3.603 28.574-20.784 29.895-24.505-1.636 2.501-28.202 17.178-33.116 19.152 5.282-12.528 37.83-30.862 39.811-33.035-8.33 1.267-36.059 18.019-40.878 25.427-4.61 7.465-10.037 5.387-15.144 5.164-4.968-.166-4.559 5.177-4.785 8.449-.064 3.2-2.535 9.699-.443 10.865 3.403 2.92 12.355-8.949 15.208-2.568 1.561 7.127-16.86 6.8-16.701 12.562-.882 3.035 17.009 4.076 20.284 7.31-5.732 4.197-19.811 5.553-23.994 5.765-2.612.21-4.968.105-6.31-.105-2.325-.412-5.377-2.535-8.057-6.908-5.093-9.25 3.511-15.62 3.646-17.992.21-2.477-.967-1.159-1.122-5.049-.145-3.876 4.214-4.532 5.323-5.35 1.24-.865-.321-1.943-.027-5.705 2.271-8.516 16.157-18.334 12.606-21.064-3.231-1.707-9.966 5.725-12.578 9.101-9.55 12.318-20.683 8.449-24.454 8.604-8.428.453-6.948-8.756-1.058-8.111 6.789-1.402 6.286-10.787 11.108-9.851 1.555 6.867-6.049 7.83-2.494 9.361 4.856 1.913 5.316-4.427 6.85-7.097 1.45-2.707 8.28-8.55 7.513-10.02-1.98-.693-7.016 2.896-9.3 4.674-5.546-13.849 8.425-24.376 9.115-28.482 4.583-7.229 30.209-16.485 30.686-27.469l.703-.605s.48-.304 1.257.977h.051c.172.666.291 1.382.493 2.119.051.899-.041 1.707-.041 1.707l.115-1.068c.199 1.734.125 3.217.199 2.856v1.663c.24.977 1.531 1.487 1.744 1.585.531-.095 1.947-.534 3.265-2.051.21-.223 1.7-1.649 1.7-1.991 2.46-1.798 2.903-2.058 4.64-4.512 4.393-6.404-4.082-15.792-1.734-24.437 1.612-5.752 6.972-12.541 6.972-12.541 1.45-3.278-.845-3.251-.845-3.251-3.38-.605-5.732 3.011-5.228 2.535-4.329 4.072-5.627 6.053-8.77 11.49 0 0-2.643 2.386-3.417-.892-1.521-5.421 4.63-16.08 6.56-17.442 3.592-2.467 7.252-3.538 11.767-5.373 2.271-.953 5.637-4.599 7.898-5.204 1.108-.379 2.318-.622 3.471 0 0 0 1.707 1.244.912 5.204 0 0-1.73 4.738-1.122 6.485.368 1.176.213 2.298 2.883 2.298 6.279.115 20.331-1.345 24.447-3.552.94-.368 1.852-1.757 2.693-2.558 1.298-1.321.967-3.281 0-3.478l-2.693-.885c2.061-.304-11.852-.406-9.611-.814-2.443.409 3.292-6.489 2.619-9.757-.28-1.551-3.015-2.193-3.498-3.44-.28-.781-1.761-1.94 0-2.639l2.014-.858c.679-.49 1.402-1.311 2.356-1.751 4.393-2.041 12.305-1.041 15.762 0 .375.189 6.022 1.751 7.898 7.019.493 1.48.882 3.113 1.74 4.41 2.639 3.613 10.355 4.917 14.88.618.899-.831 1.997-2.879 2.67-4.082 4.488-10.324-2.166-17.344-10.574-20.203-3.383-1.21-8.875-1.541-13.116-2.639-2.998-.841-1.2-3.356-.341-4.109l1.281-1.136c1.663-2.464 6.864-4.657 8.763-5.242 4.64-1.757 9.196-3.498 15.745-.831.977.331 3.535 2.339 4.278 2.548 4.978 1.244 6.854 1.612 11.463-.791 1.845-.899 1.571-1.139 1.74-1.7 1.636-4.694-1.612-7.807-1.517-7.303-.977-6.316 17.039 1.48 19.844-2.497 2.639-3.596.923-10.473 4.407-13.096.395-.226 2.454-1.68 2.619-1.734 3.352-.706 6.286.686 8.949 1.734l2.852 1.355c5.681 2.339 10.598 3.603 13.67 8.256 1.926 3.045 1.565 7.459 3.447 10.561.808 1.311 2.677 2.163 3.636 3.498.804.956 2.359 1.602 3.41 2.193 1.615 1.017 2.244 1.426 4.336 2.095 1.555.629 3.802 2.964 5.282 3.572 5.34 2.173 11.744 1.869 17.516 1.727 3.434-.132 5.468 1.872 8.716.899 1.673-.568 1.196-3.528.152-4.782-2.092-2.65-3.68-2.018-7.141-3.988-1.352-.831-3.062-3.525-4.39-4.329-3.998-2.602-9.79-2.971-12.21-7.033-.328-.639-.784-1.811-.852-2.555l-.983-1.859c-4.839-9.817-6.38-15.637-1.73-17.486 2.896-1.095 9.233-.477 12.339-1.747.703-.379 2.034-2.345 2.582-2.639 6.952-3.302 20.017-7.154 27.178-3.484 2.163 1.017 0 6.587.804 8.739.456.95 2.058 2.582 3.893 3.119 15.025 4.042 30.044 3.376 41.071 8.587 6.577 3.102 11.615 7.955 17.54 13.085 5.083 4.525-.95 9.642 4.289 11.173-3.576.473-6.614.869-7.232-.997-.176-.463-1.25-2.095-1.754-2.575-3.94-3.734-8.52-9.507-13.964-11.362-2.829-1.038-4.069-.149-7.06-.929l-3.528-1.19c-3.795-1.065-4.079-.7-7.797-1.463-1.659-.331-5.421-2.359-7.056-2.538-7.432-1.108-11.605 1.879-18.405 0-3.129-.923-7.171-5.901-9.709-7.232-3.143-1.788-6.043-2.41-9.571-3.545-1.423-.382-2.149-.382-3.214.162-1.94 1.139-1.298 2.866-.294 4.299.585.771 1.075 2.089 1.754 2.508 2.474 1.781 7.408 1.781 8.763 4.373 3.87 7.648-1.808 10.307-2.629 12.585-.409 1.382-1.48 2.47 0 4.329.821.98 2.562 2.203 3.552 2.575 3.538 1.541 6.343.95 9.652 2.666 2.349 1.244 4.826 5.495 7.864 6.168 7.012 1.504 8.682-3.67 12.234-4.444 5.069-1.122 8.202 1.551 14.022 0 1.926-.517 3.001-2.805 4.356-3.44 3.356-1.781 6.685-2.031 8.777-.95 0 0 2.254 1.088-.899 2.666-1.811.997-3.342.997-5.221 1.943-1.271.686-2.393 2.467-2.606 2.758-.595 1.21-1.004 3.048-.967 3.17a4.542 4.542 0 0 0 1.788 1.795c6.1 2.105 12.325-1.845 17.55-2.639 3.88-.618 14.724 0 17.844 2.376 0 0 2.886.598 1.017 5.85-1.159 3.153-6.147 5.455-8.026 8.128-1.112 1.514-2.325 4.39-3.461 5.87-1.845 2.386-2.163 2.312-4.032 4.515l-1.284 1.865c-.76 2.244-9.676 9.807-11.358 12.342-1.004 1.5-1.47 3.092-2.535 4.714-1.602 2.285-2.771 2.67-3.589 4.055-2.572 3.697-7.597 11.193-11.744 13.089-1.859.774-4.464-.081-7.046-.598-1.764-.48-3.67-3.711-5.198-4.414-6.127-2.798-12.937-2.007-18.337-5.259-2.697-1.609-5.188-6.337-7.104-8.753-1.274-1.656-2.43-4.556-4.37-5.319-3.133-1.081-10.737-.081-12.224 2.639-2.886 5.502 4.65 19.648 5.282 25.461.446 4.934-1.825 7.178 0 11.328.841 2.112 4.126 2.663 5.211 4.39 4.745 7.465.608 18.019 1.73 27.996.443 3.109 2.291 6.965 1.751 11.443-.747 6.985-9.733 13.004-6.1 23.613.128.446 1.835 1.673 1.953 1.798 1.392.676 3.586.395 5.069-.034 2.91-1.017 5.738-6.857 8.8-8.739.304-.362 1.308-.855 1.849-.855.324-.612 1.156-.652 1.632-.879 1.288-.97 1.801-1.004 2.572-2.629 1.237-2.839.818-5.654 1.754-9.696.912-3.339 4.011-9.29 4.407-13.15 1.065-10.713-6.695-31.666-1.122-35.127 2.129-1.321 4.245-3.856 7.925-4.414 1.636-.389 6.914 1.237 9.196 1.179a.35.35 0 0 1-.061.081c-2.849 6.705 7.655 24.224 6.827 33.883-2.045 23.548-17.421 36.549-30.696 49.111-1.517 1.497-.233 3.19.912 4.37 2.616 2.491 9.006 1.389 12.325.869 4.802-.983 6.952-3.16 10.49-4.363 1.298-.52 2.886.297 4.336 0 3.626-.99 6.708-5.894 8.766-8.864 0 0 4.289-4.603 5.191 1.494l.091.338c0 5.694-.994 11.916 0 17.469 1.041 6.577 13.028 26.313 19.256 27.205 14.583 2.136-.338-16.222-.936-17.529-2.383-5.553-4.694-15.444-4.356-22.751.071-2.673 2.301-8.074 2.606-10.581.142-1.254-.504-4.153 0-5.164 1.146-2.339 8.871-3.099 10.541-6.171.446-.875-.21-2.464 0-3.461.362-2.112 1.896-6.016 3.528-7.837 1.044-1.308 2.548-2.045 4.37 0 1.494 1.683 1.896 5.593 4.407 8.422l2.149 2.359c2.582 1.673 6.766-.544 5.667-.291 2.71-.75 2.396-3.505 3.528-4.461.189-.155 1.707-.831 1.707-.831 6.333-6.506-7.712-12.386-7.878-18.425-.142-6.705 1.497-14.464-.818-21.876-.581-1.849-4.018-4.461-4.417-6.114-.946-4.224 1.25-8.685 1.754-11.358.98-5.593-.936-14.207.912-16.671 1.024-1.365 2.734-2.356 6.097-1.771 2.22.406 3.704 4.035 5.248 5.265 5.738 4.613 12.386 7.185 21.923 6.09 1.179-.024 2.163-1.825 2.369-2.322.608-1.747.493-3.991-.629-5.525-3.437-4.62-16.779-8.138-17.496-10.446-.524-1.717-2.639-4.011-.314-5.164-1.274.733 8.216-.274 11.639-.994 4.461-.98 4.792-5.411 7.874-6.962 4.36-2.305 10.764-.291 13.204-4.373 1.45-2.639.314-6.404 1.703-8.82 1.73-3.092 6.931-3.707 9.608-6.171.808-.737.433-3.44.247-4.299M394.034 641.031c-1.72-1.903-.27-5.63 2.903-7.202 5.847-2.764 8.266.446 9.53 1.967 5.674 8.81 13.031 20.213 18.489 24.751-5.049.49-23.88-5.259-30.922-19.517m48.168 88.55c-3.065 0-22.558-16.404-19.625-26.603 5.782 4.268 18.749 13.332 20.392 13.146 1.74 1.027 3.113 12.315-.767 13.457m22.656.061c-2.545-2.234-21.429-22.2-16.715-31.46 5.191 5.204 19.621 18.489 24.775 19.784 1.45 3.788 1.237 14.234-8.06 11.676m2.034-76.221c3.305 4.951 7.851 7.847 7.607 18.53-.314 2.606.527 3.129 2.717 2.94 1.98-.581.899-12.876 6.874-12.099 5.069.76 1.632 7.807 4.143 15.725.926 2.825 6.651 12.981 5.123 30.378-.145 4.498-8.689 10.351-13.562 6.918-4.001-2.42-4.001-5.4-6.296-23.788-.977-10.848-14.207-14.579-19.817-19.537-5.627-4.137-2.416-6.181-3.447-13.707-3.238-10.906-15.938-15.995-11.686-23.251 1.321-1.805 2.602-3.521 6.624-1.994.226 5.397 13.109 9.578 21.72 19.885m-90.226-34.4c-.331.176-.385.21.118-.041-.014 0-.068.03-.118.041l8.449-3.772c5.982-2.119 9.165 1.081 14.67-1.977 1.294-.794 2.748-2.906 3.951-3.893 1.027-.933 2.933-.828 4.16-1.693 3.052-2.055 8.729-8.587 12.649-9.29 2.254-.419 2.244.176 3.393.28 0 .223 1.68-.338 1.24 3.028-1.044 6.468 14.184-.081 24.204 2.291 6.8 1.632 13.434 3.937 11.673 8.317.24-.47-1.991 1.355-2.521 1.683-4.687 3.386-8.334-.328-10.71-.666-4.089-.49-6.992.76-11.183.247 0-.061-5.029-1.683-5.029-1.683-3.173-.166-7.753 1.494-10.186 1.683-4.603.351-6.823-1.277-10.96-.841-2.018.23-5.265 2.873-6.732 3.39-1.348.51-2.92.967-4.241 1.389-.912.22-3.18 1.47-4.235 1.947-4.17 2.058-6.654 2.058-11.821 3.417l-2.984.804c-6.418.852-5.786-3.538-3.788-4.66m-15.6 25.005c6.894-1.615 8.929.155 12.227 8.003 2.443 4.637 7.58 10.784 9.55 13.707-7.945.916-20.585-9.932-24.126-15.857-2.241-2.913 1.186-5.225 2.349-5.853m-87.728-32.859c9.074-2.535 17.09-5.154 20.443-7.09 1.217-.081 2.393-.081 3.606-.155.514 2.41 1.45 4.86 2.889 7.283.318.52.632.977.923 1.402-5.492.125-16.573-.578-27.861-1.44m18.905 15.867a175.484 175.484 0 0 0 13.336-8.929 55.414 55.414 0 0 0 6.391 6.37c-2.45.666-10.152 1.622-19.726 2.558z"/><path d="M376.667 619.02c.054-.01.105-.041.118-.041-.504.247-.449.216-.118.041z"/></g></svg>