<svg width="35vw" viewBox="0 0 812 811" fill="none" xmlns="http://www.w3.org/2000/svg"><path d="M360.606 518.846c-15.005 8.616-63.312 37.76-70.9 42.153s-27.468 14.315-43.604 4.428c-2.026-1.27-3.09.241-1.546 1.682a24 24 0 0 0 6.181 3.982c11.776 5.699 30.9 1.648 42.78-4.771 6.866-3.673 49.51-27.152 49.51-27.152l-37.115 53.343h16.377a2.74 2.74 0 0 0 2.369-1.373s29.767-52.211 40.034-70.06c1.167-2.026-1.237-3.811-4.086-2.232m206.012 32.473c-12.155 6.557-22.936 18.811-34.507 24.544-10.3 5.183-20.05 6.282-35.433 4.119 1.374-4.154 2.713-8.17 3.846-11.328a52.2 52.2 0 0 1 8.584-15.309c.343-.412 0-1.065-.824-.756a38.97 38.97 0 0 0-20.43 21.935c-.343.927-.858 2.197-1.441 3.707h-.618a44 44 0 0 0-16.344-.48 179 179 0 0 1 14.49-18.537 141.7 141.7 0 0 0 18.506-27.461h-11.639a1.89 1.89 0 0 0-1.648.927l-33.511 54.305a.787.787 0 0 0 .343 1.06.8.8 0 0 0 .516.072 87 87 0 0 1 26.711-2.059 1190 1190 0 0 1-6.866 16.888h12.704s2.334-7.414 5.081-15.893a105 105 0 0 0 19.776.652c19.124-1.579 29.803-14.863 43.742-26.5a84 84 0 0 1 9.579-7.071c2.094-1.476.927-3.742-.617-2.815m-135.451 5.424 5.357-8.788s4.704-.309 9.511-.789a28.85 28.85 0 0 0 17.579-9.062c.446-.515-.172-.962-.791-.687a36.6 36.6 0 0 1-13.527 3.742c-4.999.257-10.005.257-15.004 0a.83.83 0 0 0-.721.377l-14.283 21.832a.45.45 0 0 0 .086.625.45.45 0 0 0 .429.061c1.991-.377 6.866-1.201 12.567-1.75 8.515-.824 9.476 5.114 6.866 12.598-2.609 7.483-13.116 17.369-23.519 17.163-8.549 0-8.721-8.204-2.162-11.808 1.064-.618.412-1.614-.756-1.408a9.82 9.82 0 0 0-7.656 7.174c-.721 3.879.927 10.298 9.819 11.363a37.56 37.56 0 0 0 35.879-20.699c6.215-14.589.069-24.51-19.674-19.944m-60.603-2.678c-10.472 5.046-25.065 17.919-25.305 35.117-.206 14.794 20.807 10.297 32.241-2.266 1.373-1.51.24-2.781-1.374-1.648-4.086 2.746-13.288 8.204-17.168 5.767-6.076-3.81 3.777-21.557 15.28-28.731 8.515-5.321 18.266-7.243 14.489 6.522s-14.695 29.555-24.343 39.372-19.468 12.804-25.442 10.848a9.098 9.098 0 0 1-2.471-16.134 11.44 11.44 0 0 1 5.596-2.334c1.133-.206.995-1.51-.721-1.476a20.7 20.7 0 0 0-4.258.618c-8.926 3.055-11.845 14.897-6.867 20.802 6.077 7.071 24.515 8.478 42.953-6.866 16.376-13.456 26.436-32.232 27.055-45.894.824-16.34-16.309-20.184-29.665-13.697" fill="#673328"/><path d="M405.689 119.8c-157.823-.019-285.779 127.878-285.798 285.666C119.873 563.255 247.797 691.18 405.62 691.2c157.823.021 285.776-127.877 285.797-285.666v-.034c-.172-157.704-127.991-285.511-285.728-285.7m0 557.772c-150.296.021-272.148-121.777-272.167-272.038S255.325 133.446 405.62 133.427c150.295-.018 272.146 121.777 272.166 272.039v.034c-.151 150.186-121.878 271.901-272.097 272.072" fill="#673328"/><path d="M811.249 405.5C811.249 181.548 629.659 0 405.66 0 181.659 0 .07 181.548.07 405.5.07 629.45 181.66 811 405.66 811h.034c223.886-.264 405.307-181.663 405.555-405.5M405.694 794.42c-214.842.038-389.037-174.056-389.075-388.851S190.715 16.618 405.557 16.579s389.036 174.057 389.074 388.852v.069c-.227 214.675-174.215 388.656-388.937 388.92" fill="#673328"/><path d="M100.118 236.853a41 41 0 0 0-.584-6.865c-.377-1.648-4.36-17.678-6.283-19.635a3.915 3.915 0 0 0-5.184-.961c-2.747.893-3.056 1.922-3.434 4.943a216 216 0 0 1-6.867 21.489 37 37 0 0 1-2.987 5.046l-.24.343v.412a2.82 2.82 0 0 0 1.442 1.888 2.13 2.13 0 0 0 2.026-.309l.755-.412a10.64 10.64 0 0 0 5.7-7.621c.377-1.613.686-3.432 1.03-5.698a37.8 37.8 0 0 1 2.987-11.671c.309-.377.515-.377.584-.343.995 0 2.54 2.746 3.124 4.394a52 52 0 0 1 1.957 14.245 12.1 12.1 0 0 1-3.434 1.511l-.755.171v.79c0 .274.206 1.682 2.678 2.986a16.48 16.48 0 0 1 5.322 8.616c.172 1.476.24 2.128.24 2.437l-1.201 1.957 2.437-.858s3.433-1.27 1.923-7.243a45 45 0 0 1-1.236-9.612" fill="#673328"/><path d="m90.536 250.138-.892-.549a12.64 12.64 0 0 0-13.082-2.232l-1.476.721 1.407.893s4.464 2.814 6.627 4.291a127 127 0 0 1 10.85 10.092 3.23 3.23 0 0 0 2.472 1.132q.377.051.755 0a3.74 3.74 0 0 0 2.712-2.986c.996-3.879-7.107-10.023-9.373-11.362m44.255 5.012a30.3 30.3 0 0 0 10.3-13.491 3.88 3.88 0 0 0-1.064-4.806 4.43 4.43 0 0 0-5.426.756c-.411.48-.446 1.235-.514 2.883a11 11 0 0 1-.515 3.433c-.996 1.064-4.807 3.673-6.18 3.432-1.374-.24-1.855-.652-1.649-3.226 0-.481 0-1.099.206-1.785.653-5.527.722-7.964-.48-8.719l-1.545-1.064-.481.274c-2.032.92-4.201 1.5-6.421 1.717l-5.665.583-2.403.275a2.2 2.2 0 0 0-.755-.309 3.09 3.09 0 0 0-2.575.686h-.961.755v.206a2.92 2.92 0 0 0 0 3.227 43.4 43.4 0 0 0 8.858 6.865c2.094 1.408 4.052 2.746 4.773 3.433 1.476 1.304 1.99 3.055.755 9.371a76 76 0 0 0-.824 8.204c-.378 5.389-.824 12.049-2.541 13.731-.344.412-.687.652-.927.618s-1.613-2.678-2.025-3.879c0-.549-.344-1.064-.481-1.442l-.275-.584c-1.03-2.54-2.987-7.208-7.21-7.551-4.223-.344-5.219 0-6.867 2.403l-.584.789.446.549a49 49 0 0 0 6.112 6.316 11.94 11.94 0 0 1 5.253 7.964c1.064 4.428 2.232 6.865 5.459 6.865h.275c2.678 0 5.218-.961 6.215-7.105.412-2.54.789-8.548 1.201-14.898s.893-13.731 1.305-15.756h.652a6.87 6.87 0 0 0 5.803.035m-10.301-11.946v1.407a5.3 5.3 0 0 1-.789-.549 60 60 0 0 1-4.841-4.051l-3.434-3.055s5.184.824 6.49 1.202a4.81 4.81 0 0 1 2.849 4.085z" fill="#673328"/><path d="M113.403 264.315a6.25 6.25 0 0 0 5.939-4.634 46 46 0 0 0 .652-8.239v-.686h-.652a5.53 5.53 0 0 0-4.463.549 4.7 4.7 0 0 0-.996 3.639 7.8 7.8 0 0 1 0 2.093c0 .309-.24.618-.377.962a9.06 9.06 0 0 0-.858 5.835l.206.687zm71.24-119.422a42 42 0 0 0-4.017-2.85l-2.54-1.304 1.339 2.506a37 37 0 0 1 2.301 5.286q.221.866.343 1.751c.412 2.471.755 4.119 1.819 4.737.271.068.554.068.824 0a3.2 3.2 0 0 0 1.855-.652 4.5 4.5 0 0 0 2.128-3.879c-.275-2.026-.893-3.158-4.052-5.595m-10.847-5.767c1.682 0 4.841 0 6.695-5.287.618-1.716 1.03-3.432 1.407-4.84.28-1.271.647-2.521 1.1-3.741a24.75 24.75 0 0 1 8.446 10.298c1.785 4.531 1.476 4.805.446 5.664l-2.953 2.368 1.854.446c1.252.278 2.529.428 3.811.447a6.07 6.07 0 0 0 3.434-.756 3.22 3.22 0 0 0 1.51-2.094c.309-1.407-.343-3.089-2.231-5.938-.961-1.373-2.576-3.913-4.258-6.556-3.433-5.561-5.939-9.303-6.867-10.298-.927-.996-2.094-1.751-4.841.274-.309.275-.446.618-1.133 2.678a42 42 0 0 1-2.025 5.355 23 23 0 0 0-1.134 2.094c-.858 1.647-2.265 4.462-3.089 4.737-1.786.652-2.198 1.441-2.301 1.75a2.98 2.98 0 0 0 .378 2.369 1.99 1.99 0 0 0 1.751 1.03" fill="#673328"/><path d="M189.285 137.1a8.62 8.62 0 0 0-5.768-3.226c-1.373 0-2.403-.172-2.712 1.167v.377l1.373 2.129c1.922 2.677 3.434 4.05 4.189 4.153h.171a3.71 3.71 0 0 0 2.679-1.819 2.61 2.61 0 0 0 .068-2.781m26.74 48.264c.245.295.612.46.995.446.239.043.483.043.722 0 2.163-.755 5.185-12.392 4.222-16.168-.961-3.776-7.827-21.488-11.604-31.203l-1.751-4.565c-2.026-5.115-9.717-18.434-13.733-20.184-4.017-1.751-4.705-2.026-5.563-1.305l-.446.549v.344c0 1.27 2.3 2.712 3.227 3.432a48.1 48.1 0 0 1 8.344 11.877c1.029 2.232 3.88 9.989 6.385 16.82 1.545 4.188 2.988 8.136 3.88 10.504 3.949 9.886 7.348 21.351 6.146 24.029-1.579 3.57-1.476 4.806-.824 5.424" fill="#673328"/><path d="M192.062 105.005a32.3 32.3 0 0 0 2.301-7.174c.278-2.212.99-4.346 2.094-6.282a31.96 31.96 0 0 1 6.867 13.25v2.472l-.653-.172h-.309c-1.682-.378-2.918-.481-3.433.378-.516.858 0 1.853.241 2.196a14.7 14.7 0 0 0 3.123 2.884 19.8 19.8 0 0 1 3.64 3.433 94 94 0 0 1 6.42 13.318c0 .412 0 .824.207 1.167.206 1.545.446 3.158 2.334 3.433a1.51 1.51 0 0 0 1.579-.652 7.2 7.2 0 0 0-.583-6.248 6.1 6.1 0 0 1-.618-2.197c.686.859 1.751 2.335 2.61 3.433.858 1.099 2.196 3.158 3.123 4.257a69 69 0 0 1 4.223 5.904 208 208 0 0 0 2.919 4.325 41 41 0 0 1 2.403 3.845c1.305 2.265 2.232 3.844 4.189 4.462.376.046.757.046 1.134 0a3.43 3.43 0 0 0 3.158-2.369v-.343s-.309-3.913-6.18-10.298l-.481-.549a121.2 121.2 0 0 1-17.682-22.862 127 127 0 0 1-9.648-20.596c-.206-.79-.343-1.544-.48-2.197-.446-2.368-.858-4.393-4.086-5.217l-.721-.206c-2.781-.687-3.743-.927-5.39 1.098a26.5 26.5 0 0 0-1.992 4.291 42.5 42.5 0 0 1-7.794 12.598l-1.991 1.819 9.27-.686zm126.25-34.635a2.68 2.68 0 0 0 2.3 0 8.75 8.75 0 0 0 4.703-3.673c.365-.577 1-.927 1.683-.927q.378 0 .412.72c.241 2.3.584 9.132.481 12.599a11.53 11.53 0 0 1-5.047 8.307c-2.164.926-3.64 1.819-3.846 3.055a1.82 1.82 0 0 0 .687 1.647c.743.597 1.7.858 2.644.721a7.73 7.73 0 0 0 4.978-2.471q.468-.593.996-1.133a8.27 8.27 0 0 1 1.853 3.879 44 44 0 0 1-2.265 5.492 27.6 27.6 0 0 0-2.438 6.247v2.403h1.58a7.86 7.86 0 0 0 4.978-.686l.961-.858.275-.344a105 105 0 0 0 4.635-15.344 458 458 0 0 0 1.957-11.533v-1.065h-2.472l-.24.756a68 68 0 0 1-2.679 7.654 4.12 4.12 0 0 1-.412-2.54 5.4 5.4 0 0 1 .378-1.476 4.43 4.43 0 0 0-.172-4.05 36.8 36.8 0 0 1-.274-11.156c0-1.305.171-2.472.206-3.433 0-4.257.274-7.037-2.3-7.964-1.752-.686-3.743 1.51-6.25 4.291a33 33 0 0 1-3.432 3.433 16.7 16.7 0 0 1-5.048 2.814l-.824.24v.825c.15 1.41.87 2.7 1.992 3.57m21.111-9.921v1.922c.24 3.433.412 6.248 2.025 7.072a3.85 3.85 0 0 0 3.434 0 3.06 3.06 0 0 0 1.716-2.094 21.8 21.8 0 0 0-1.442-6.866 41 41 0 0 1-1.03-4.016 58.8 58.8 0 0 1 9.614-10.916 33 33 0 0 1 8-6.453c0 3.433-4.635 20.973-6.044 22.278-.686.446-1.098.48-1.132.583a.8.8 0 0 1 0-.412q.232-.57.549-1.098c.734-.983.975-2.25.652-3.433a4.9 4.9 0 0 1 0-1.99 5.86 5.86 0 0 0 0-2.987 5 5 0 0 0-2.609-2.986l-1.098-.412v1.201a81 81 0 0 0-1.031 8.719l-4.635 3.433v.583c.12.923.649 1.743 1.443 2.232a1.82 1.82 0 0 0 1.785-.172l1.167-.755c.47.799.573 1.764.274 2.643a41.5 41.5 0 0 1-3.948 5.938l-.309.378v.446c0 .172.549 1.82 3.434 3.055 1.235.55 1.51 2.643 1.786 4.669 0 .514 0 1.064.24 1.544.343 2.026-.482 2.266-1.203 2.472a3.43 3.43 0 0 0-1.888 1.03l-.343.377v.48a3 3 0 0 0 1.373 1.82 2.6 2.6 0 0 0 2.061 0c.374-.077.762.04 1.03.31a2.33 2.33 0 0 1 .789 1.715 40.5 40.5 0 0 0-1.236 7.278v.926c0 1.236-.24 2.506.687 3.433.426.325.94.516 1.476.549a9.9 9.9 0 0 0 3.434-.446 71.3 71.3 0 0 1 12.188-2.334 2.504 2.504 0 0 0 2.3-2.3 4.43 4.43 0 0 0-2.815-4.771 6.87 6.87 0 0 0-5.974 1.03c-.701.428-1.449.773-2.231 1.03a13 13 0 0 0-1.512.446c-.892.309-2.128.72-2.471.446-.344-.275-.344-.275-.344-1.339a11.45 11.45 0 0 1 2.094-7.552 27 27 0 0 1 4.361-4.565l.515-.412-.241-.653a4.06 4.06 0 0 0-2.265-2.3 7.2 7.2 0 0 0-3.434-.48h-.618l-.206.584c0 .515-.721 1.613-1.477 1.682-.755.068-.618 0-.686 0s-.652-1.03-.584-5.15c0-6.315 1.512-7.791 2.129-8.444.248-.117.515-.187.79-.206a3.2 3.2 0 0 0 2.746-1.613c.379-.686 1.34-3.879 3.022-9.44 1.682-5.56 4.051-13.456 4.875-15.172 1.649-3.433 1.718-4.12-.961-6.35l-1.03-.927c-1.442-1.27-2.747-2.506-5.15 0-.24.274-1.065.926-1.992 1.716a86 86 0 0 0-7.828 6.865 141 141 0 0 0-6.866 7.62c-.996 1.134-1.992 2.3-2.61 2.919-.515-.687-1.717-2.129-4.292-.447l-.721.515.412.755a19.4 19.4 0 0 1 1.855 6.797m138.166 44.453a9.7 9.7 0 0 0 3.125.481 31.3 31.3 0 0 0 8.789-1.888c1.957-.584 4.189-1.236 6.867-1.854 4.463-1.098 9.271-1.888 13.115-2.506 2.5-.245 4.961-.763 7.348-1.544l.343-.172c1.03-.515 1.992-1.03 2.267-2.025a2.33 2.33 0 0 0-.446-1.923c-.86-1.338-3.434-1.373-6.868-1.338q-1.234.111-2.472 0h-.446a15 15 0 0 1 2.266-1.614 123 123 0 0 0 18.918-18.021c.584-1.407.618-6.42-2.507-7.758a7.8 7.8 0 0 0-4.325-.378 23.2 23.2 0 0 1-5.528 0 21 21 0 0 0-3.056-.274c-3.124 0-5.562-.24-13.39-5.424l-.996-.652-.412 1.133a10.64 10.64 0 0 0 1.339 8.581 7.28 7.28 0 0 0 8.824 3.776l1.682-.514a40.6 40.6 0 0 1 10.3-2.197c.515.652-.789 1.888-3.261 3.81l-1.168.892a137.4 137.4 0 0 0-20.6 18.64 5.29 5.29 0 0 1-5.321 2.23 26 26 0 0 0-5.22.379 49.4 49.4 0 0 1-12.977.789h-.928a1.44 1.44 0 0 0-1.476 1.339 9.27 9.27 0 0 0 6.214 8.032m106.845 54.579a40.7 40.7 0 0 0 11.33 1.545 49 49 0 0 0 9.339-.892 56.6 56.6 0 0 0 17.854-6.866l1.03-.618c1.064-.549 1.717-.446 3.433-.171l3.228.412 3.433.377c4.536.786 9.15.971 13.734.549h.412c3.022-.892 3.056-1.544 2.643-5.423-.412-3.879-1.716-5.081-2.128-5.286l-1.133-.653-.206 1.305a9.4 9.4 0 0 1-1.168 3.604 41.8 41.8 0 0 1-10.746-.481 11.8 11.8 0 0 1 2.85-1.27 83.2 83.2 0 0 0 16.72-11.396 5.74 5.74 0 0 0 2.404-4.291 7.2 7.2 0 0 0-2.198-4.84l-.549-.515-.618.446s-15.244 11.019-19.948 14.555l-2.232 1.716c-2.952 2.266-4.567 3.433-5.768 3.193a95.6 95.6 0 0 1-13.322-6.866 286 286 0 0 1-3.433-2.54l-.756-.583-.549.823a6.87 6.87 0 0 0-1.064 4.806 5.73 5.73 0 0 0 2.643 3.707c1.683 1.099 3.434 2.06 4.739 2.884 1.281.692 2.52 1.46 3.708 2.3 0 .583.274 1.956-6.489 3.844l-3.434 1.03c-6.866 1.991-16.033 4.703-19.913 3.433a17.9 17.9 0 0 0-6.662-1.751h-.652v.687c-.412 0-.618 1.956 3.468 3.226m38.142 1.167-.412-1.647-1.167 1.235a25 25 0 0 0-5.493 13.937c-.962 8.753-.551 11.191 4.325 12.941a25.8 25.8 0 0 0 8.343 1.202h4.67l-1.888-1.476a35.4 35.4 0 0 1-7.794-7.896 26.6 26.6 0 0 1-.344-8.478c.323-3.27.241-6.567-.24-9.818m86.768 92.03h2.404l-.892.618-.275.24a2.81 2.81 0 0 0-1.099 2.849c0 .481.721 1.27 2.335 1.305a7.04 7.04 0 0 0 4.463-2.129 18 18 0 0 1 1.579-1.132 11.8 11.8 0 0 1 4.738-.79v.549a10.3 10.3 0 0 1-.652 3.433 17.6 17.6 0 0 1-5.356-.584 3.06 3.06 0 0 0-2.678.687 1.48 1.48 0 0 0-.618 1.51c0 .584.652.996 1.511 1.202s2.334.343 3.433.48c1.099.138 1.923.206 2.369.309.196.357.278.763.241 1.167-1.27 1.03-.515 2.987-.447 3.193l.241.583h.618a4.84 4.84 0 0 0 4.223-2.437l.652-1.373c1.545 0 5.871 0 8.824.206 5.081.275 6.523-2.025 6.866-3.055a2.64 2.64 0 0 0-.721-3.124h-.48a9.1 9.1 0 0 1-3.434-1.613c-.721-.515-1.304-.927-1.716-1.27l7.039-.996a21 21 0 0 1 4.772 0h.755l.241-.755a28 28 0 0 1 1.201-2.952 3.16 3.16 0 0 0-.275-3.433 1.956 1.956 0 0 0-2.368 0 27.5 27.5 0 0 1-8.549 3.502h-.481a59.2 59.2 0 0 1-15.245.755c1.58-2.746 2.987-5.767 2.095-7.071a1.615 1.615 0 0 0-1.786-.618 5.48 5.48 0 0 0-2.712 2.506 23.5 23.5 0 0 1-3.434 5.149c-1.544.171-5.63-.206-6.042-1.373s-.412-1.339-.549-1.854a7.5 7.5 0 0 0-.894-2.163 1.37 1.37 0 0 0-1.75-.206c-1.27.584-3.949 3.193-3.434 5.252.515 2.06 2.026 3.296 5.287 3.433m15.76 1.064c1.806.007 3.609.156 5.39.446a32.6 32.6 0 0 1 4.361 3.261v.206q-.516.192-1.064.241c-2.284.26-4.584.26-6.868 0 0-.447-.343-1.373-.48-1.957v-.378a2.68 2.68 0 0 0-1.648-1.785z" fill="#673328"/><path d="M757.719 264.315c-.377-.55-1.098-.653-2.026-.79a5.4 5.4 0 0 1-1.579-.446 15.36 15.36 0 0 0-10.3-3.433h-.377c-.687.344-1.512.961-1.375 1.82.1.592.575 1.051 1.169 1.132l1.098.206c1.891.227 3.729.785 5.425 1.648l.377.343-.377.241c-.618.377-5.082 1.544-8.069 2.334-2.369.618-4.395 1.133-5.15 1.407a29 29 0 0 1-7.381 1.785 74.4 74.4 0 0 1-11.468-5.664 152.5 152.5 0 0 0-23.382-11.636l-3.845-1.442c-8.962-3.433-10.987-3.948-11.983-3.158a2.86 2.86 0 0 0-.653 2.746 5.46 5.46 0 0 0 3.434 4.222 65 65 0 0 0 6.489 1.579c3.159.652 6.867 1.442 9.304 2.266 6.868 2.3 24.035 9.989 27.846 13.044l1.236 1.03c-3.605-.859-14.66-4.188-14.763-4.223l-.55-.206-.378.55a17.3 17.3 0 0 1-2.54 2.986h-1.545a12.4 12.4 0 0 0-4.429.275c-.815.435-1.563.978-2.233 1.613a10.8 10.8 0 0 1-2.162 1.613 59 59 0 0 1-11.743-6.041 22 22 0 0 1-2.231-2.163 5.9 5.9 0 0 0-2.541-1.956 5.6 5.6 0 0 0-1.648 0h-.756v.789c0 .996 0 6.179 1.992 7.758l.961.584-1.545 2.54a25.7 25.7 0 0 0-3.433 10.298c-.172 4.531 0 4.599.515 4.908l.549.275a14.18 14.18 0 0 0 10.541-3.433 41.2 41.2 0 0 1 8.72-6.522c.619-.206 2.507.79 3.434 1.408a10 10 0 0 1-1.03 1.167l-.961.892 1.201.584a12.06 12.06 0 0 0 6.214 1.51 3.2 3.2 0 0 1 1.168 0 2.57 2.57 0 0 0 2.163-.824 3.427 3.427 0 0 0 .487-4.829q0-.005-.006-.011c-.412-.549-1.305-.961-3.433-1.922a19.6 19.6 0 0 1-3.914-1.922l-.688-1.202a7.9 7.9 0 0 1 4.052-1.51c2.438 0 6.558.24 7.828-2.266l.652-1.27c3.434 1.27 17.168 6.316 19.64 7.861l.24.172h.275c.172 0 1.648 0 2.094-2.369a3.43 3.43 0 0 0-1.682-3.432l-.687-.618a4.3 4.3 0 0 0-1.408-.961 7.9 7.9 0 0 1 3.056-.481h.24a83 83 0 0 0 9.82-1.545l3.948-.721a17 17 0 0 1 2.61 0 4.98 4.98 0 0 0 3.913-.926c1.237-1.442 2.473-4.532 1.58-5.664m-69.423 19.223c-2.747 1.991-5.426 2.952-5.837 2.54a8.05 8.05 0 0 1-.962-5.801l.618-4.909c.927.48 2.095.995 3.434 1.579a40.5 40.5 0 0 1 5.596 2.883l.961.755c-1.373 1.065-3.192 2.575-3.81 2.953m-214.729-71.503-54.145-24.2v98.895l56.547-15.584z" fill="#673328"/><path d="m487.546 378.828-68.119-10.572V286.73l-64.823-17.438-2.37 105.554 67.021-6.247-.961 125.841-47.725-2.78 47.725 5.973v.137l70.213-5.321zm79.14 111.424-47.998 4.291 48.136.206 56.101-6.247-7.244-111.974-53.63-10.778z" fill="#673328"/><path d="m544.741 286.146-60.085-17.575 2.885 110.257 59.638-10.813zm-344.366 86.16 67.432-2.403-4.635 123.507 86.522-6.247 2.918-111.939-84.599-10.298zm154.498-103.254-67.639 16.477-1.304 54.785 6.592-51.113zm3.194-55.438 41.887-21.694-47.243 18.777.137 39.235zM194.468 439.106l-6.077 49.945 65.852 2.3-59.295-6.454zM88.956 366.883l-.48 5.663-15.657-1.373v.275l14.49 14.554-.687 7.655-15.76-16.373-21.253 14.039.721-7.998 19.33-12.22v-.309L51.6 369.32l.516-5.664zM63.272 419.78c-2.054.034-4.1-.289-6.042-.961a14.5 14.5 0 0 1-4.601-2.712 11.9 11.9 0 0 1-2.919-4.085 12.6 12.6 0 0 1-1.03-5.115 12.52 12.52 0 0 1 3.914-9.199 13.3 13.3 0 0 1 4.601-2.712 17.6 17.6 0 0 1 6.043-.961h23.45v5.698H63.444c-.96 0-1.917.117-2.85.343a9 9 0 0 0-2.747 1.202 7.1 7.1 0 0 0-2.06 2.231 7.48 7.48 0 0 0 0 6.865 6.86 6.86 0 0 0 2.095 2.197 9.6 9.6 0 0 0 2.712 1.202c.947.223 1.913.35 2.884.377h23.21v5.698zm23.526 3.295.721 7.518-25.888 18.09 27.468-2.678.55 5.664-36.876 3.433-.686-7.174 26.746-18.502-28.291 2.746-.55-5.664zm3.193 32.233 1.786 8.478-23.622 13.731 27.158 3.089 1.786 8.376-36.257 7.689-1.099-5.32 30.077-6.385-32.103-3.124-.824-3.913L84.98 462.07l-29.94 6.179-1.133-5.286zm8.582 37.244 1.58 5.458-35.57 10.298-1.614-5.492zm2.402 9.234 2.608 7.106-20.6 24.028 25.853-9.474 1.958 5.355-34.78 12.735-2.473-6.865 21.219-24.612-26.678 9.748-1.957-5.32zM93.8 572.567a24.5 24.5 0 0 1-9.065-10.298 16.5 16.5 0 0 1-1.717-6.865c-.04-2.121.37-4.225 1.202-6.179a17.7 17.7 0 0 1 3.948-5.835 23.5 23.5 0 0 1 6.558-4.6 24.4 24.4 0 0 1 7.829-2.368 17.95 17.95 0 0 1 7.106.446 15.4 15.4 0 0 1 5.906 3.055 16.3 16.3 0 0 1 4.189 5.526 22.2 22.2 0 0 1 2.094 6.625 14 14 0 0 1-.755 6.866l-6.283-1.648c.596-1.421.866-2.959.79-4.497a12 12 0 0 0-1.203-4.599 10 10 0 0 0-2.883-3.605 11.3 11.3 0 0 0-4.052-1.888 13.8 13.8 0 0 0-4.738 0 15.4 15.4 0 0 0-5.013 1.545 17.4 17.4 0 0 0-4.6 3.089 14 14 0 0 0-2.953 3.914 10.3 10.3 0 0 0-1.065 4.393 9.7 9.7 0 0 0 1.03 4.497 17.2 17.2 0 0 0 2.198 3.433 10.8 10.8 0 0 0 2.815 2.403l7.966-4.188-2.987-5.698 5.391-2.609 5.356 11.019zm32.207 31.238a18.2 18.2 0 0 1-5.598 2.471 13.4 13.4 0 0 1-5.321.206 11.26 11.26 0 0 1-4.635-1.785 13.05 13.05 0 0 1-5.597-8.547 11.8 11.8 0 0 1 0-5.012 13.1 13.1 0 0 1 2.336-4.771 17.6 17.6 0 0 1 4.532-4.12l19.604-12.838 3.125 4.737-19.262 12.839a13.5 13.5 0 0 0-2.197 1.853 9.4 9.4 0 0 0-1.649 2.506 7.2 7.2 0 0 0-.515 2.987 7 7 0 0 0 1.203 3.432 6.23 6.23 0 0 0 2.54 2.403 6.6 6.6 0 0 0 2.953.721 7.9 7.9 0 0 0 2.952-.481 12.3 12.3 0 0 0 2.61-1.27l19.433-12.701 3.124 4.737zm21.522-9.955 4.738 5.904-11.81 29.315 21.493-17.163 3.433 4.462-28.943 23.171-4.532-5.664 12.394-30.242-22.111 17.678-3.433-4.462zm20.805 24.921 3.846 4.188-27.467 25.024-3.846-4.188zm3.676 4.565 4.67 4.566-13.253 26.157 25.991-13.731 4.395 4.291-35.09 17.506-3.434-3.432z" fill="#673328"/><path d="m193.953 644.413 16.343 13.49-3.811 4.6-11.949-9.852-5.802 6.866 11.33 9.337-3.777 4.599-11.33-9.337-6.317 7.861 12.6 10.298-3.811 4.6-16.96-14.005zm19.021 15.378 9.098 6.385a19.7 19.7 0 0 1 3.434 2.952 11 11 0 0 1 2.129 3.433 8.54 8.54 0 0 1 .309 4.188 11.8 11.8 0 0 1-2.129 4.84 11.2 11.2 0 0 1-5.459 4.393 7.9 7.9 0 0 1-6.386-.446l-2.472 18.296-5.596-3.947 2.917-17.164-3.432-2.402-9.202 13.078-4.669-3.433zm-.755 18.64q1.004.721 2.095 1.304a6.9 6.9 0 0 0 2.196.79 4.1 4.1 0 0 0 2.198-.309 5.14 5.14 0 0 0 2.163-1.957 5.3 5.3 0 0 0 1.03-2.472 4.4 4.4 0 0 0-.412-2.128 8 8 0 0 0-1.339-1.75 20 20 0 0 0-1.751-1.408l-4.017-2.815-5.769 8.239zm30.69 10.469a5.5 5.5 0 0 0-.962-3.158 7.35 7.35 0 0 0-4.154-2.986 4.8 4.8 0 0 0-1.854 0 4 4 0 0 0-1.82.652 5 5 0 0 0-1.476 1.648 3.43 3.43 0 0 0-.515 3.055 12 12 0 0 0 1.51 2.917c.721.996 1.546 1.991 2.439 3.055a14.6 14.6 0 0 1 2.197 3.433 9.8 9.8 0 0 1 .755 4.188 10.3 10.3 0 0 1-1.717 5.115 12.8 12.8 0 0 1-3.433 3.982 10.1 10.1 0 0 1-8.412 1.853 14.2 14.2 0 0 1-4.223-1.647 14.4 14.4 0 0 1-4.36-3.879 10.9 10.9 0 0 1-2.095-5.733l6.146-1.957a7.57 7.57 0 0 0 .893 3.845 6.87 6.87 0 0 0 2.54 2.712 7 7 0 0 0 1.889.755 5 5 0 0 0 2.025 0 4.64 4.64 0 0 0 1.957-.686 4.5 4.5 0 0 0 1.546-1.648 4.12 4.12 0 0 0 .652-3.433 10.3 10.3 0 0 0-1.476-3.021 43 43 0 0 0-2.404-3.123 13.8 13.8 0 0 1-2.197-3.433 10.3 10.3 0 0 1-.825-4.153c.14-1.809.731-3.557 1.718-5.081a11.5 11.5 0 0 1 3.433-3.776 10.3 10.3 0 0 1 4.051-1.613 11.3 11.3 0 0 1 4.292 0 14.2 14.2 0 0 1 4.086 1.648 13.7 13.7 0 0 1 3.776 3.261 10.8 10.8 0 0 1 2.164 4.702zm10.375-3.398 5.047 2.643-17.167 32.782-5.047-2.643zm12.045 12.769-8.893-4.119 2.507-5.423 22.97 10.641-2.507 5.389-8.927-4.119-12.876 28.216-5.15-2.403z" fill="#673328"/><path d="m282.359 722.128-3.811-24.028 6.867 2.506 2.163 16.579 12.635-11.018 6.351 2.368-18.884 15.756-5.561 14.863-5.322-2.025zM310 729.2a23.3 23.3 0 0 1 3.09-7.552 18.2 18.2 0 0 1 4.841-5.218 15.5 15.5 0 0 1 6.077-2.609 16.4 16.4 0 0 1 6.866.206c2.315.498 4.5 1.466 6.421 2.849a14.9 14.9 0 0 1 4.292 5.046 17.9 17.9 0 0 1 2.026 6.866c.233 2.729.01 5.478-.653 8.135a24 24 0 0 1-3.056 7.415 18.7 18.7 0 0 1-4.841 5.114 15.5 15.5 0 0 1-6.18 2.678c-2.275.419-4.614.36-6.866-.172a16.5 16.5 0 0 1-6.318-2.918 15.5 15.5 0 0 1-4.258-5.046 18.4 18.4 0 0 1-2.025-6.865A24 24 0 0 1 310 729.2m5.871.995a18.2 18.2 0 0 0-.481 5.527 13 13 0 0 0 1.167 4.737 10.8 10.8 0 0 0 2.679 3.432 9.5 9.5 0 0 0 4.12 2.06c1.536.357 3.132.357 4.669 0a10.95 10.95 0 0 0 4.052-1.991 13.5 13.5 0 0 0 3.158-3.707 19.4 19.4 0 0 0 2.06-5.184c.415-1.706.566-3.466.447-5.217a13.2 13.2 0 0 0-1.236-4.6 10.3 10.3 0 0 0-2.713-3.433 10.65 10.65 0 0 0-8.79-2.094 11.5 11.5 0 0 0-4.017 1.957 14.1 14.1 0 0 0-3.158 3.604 17.1 17.1 0 0 0-1.854 4.909zm33.308-11.293 20.601 3.02-.859 5.905-14.798-2.197-1.441 9.645 13.974 2.06-.859 5.904-13.973-2.059-2.233 15.206-5.63-.824zm48.51 12.701a5.4 5.4 0 0 0-2.3-2.335 7.6 7.6 0 0 0-5.081-.652 5.2 5.2 0 0 0-1.718.755 4.7 4.7 0 0 0-1.27 1.442 5.2 5.2 0 0 0-.515 2.163 3.43 3.43 0 0 0 .996 2.917c.82.749 1.745 1.373 2.747 1.854 1.064.515 2.3 1.064 3.434 1.579a13.2 13.2 0 0 1 3.432 2.025 9.9 9.9 0 0 1 2.679 3.433 10.7 10.7 0 0 1 .892 5.321 12.95 12.95 0 0 1-1.167 5.149 10.25 10.25 0 0 1-2.713 3.604 10.3 10.3 0 0 1-3.81 2.025 13.1 13.1 0 0 1-4.498.549 14.9 14.9 0 0 1-5.7-1.373 11.23 11.23 0 0 1-4.566-4.085l4.497-4.634a7.37 7.37 0 0 0 2.61 2.987 6.9 6.9 0 0 0 3.434 1.167 6.6 6.6 0 0 0 2.437-.309 5.1 5.1 0 0 0 1.855-.858 5.5 5.5 0 0 0 1.373-1.545c.377-.683.58-1.452.583-2.231a4.08 4.08 0 0 0-.995-3.158 10.3 10.3 0 0 0-2.713-1.957c-1.098-.549-2.3-1.098-3.434-1.613a14.5 14.5 0 0 1-3.432-1.991 9.3 9.3 0 0 1-2.679-3.433 10.3 10.3 0 0 1-.927-5.286c.035-1.72.457-3.409 1.236-4.943a11.2 11.2 0 0 1 2.816-3.433 11.6 11.6 0 0 1 3.846-1.922 14.5 14.5 0 0 1 4.36-.481c1.679.076 3.326.447 4.875 1.099 1.603.7 3.025 1.754 4.155 3.089zm29.595.137a9.75 9.75 0 0 0-3.433-2.781 8.4 8.4 0 0 0-3.434-.618 9.9 9.9 0 0 0-4.429 1.202 10.3 10.3 0 0 0-3.433 2.952 13.4 13.4 0 0 0-2.06 4.291 16.1 16.1 0 0 0-.618 5.217c.068 1.858.405 3.697.995 5.458a14.6 14.6 0 0 0 2.404 4.257 11 11 0 0 0 3.434 2.746 9.9 9.9 0 0 0 4.532.858 7.3 7.3 0 0 0 3.741-1.201 10.8 10.8 0 0 0 3.434-3.433l4.841 3.707a13.7 13.7 0 0 1-5.115 5.218 14.55 14.55 0 0 1-6.558 1.819 16.1 16.1 0 0 1-6.867-1.132 15.8 15.8 0 0 1-5.493-3.742 18.2 18.2 0 0 1-3.709-5.939 23.4 23.4 0 0 1-1.579-7.86 24.4 24.4 0 0 1 .961-8.101 19.2 19.2 0 0 1 3.434-6.351 15.5 15.5 0 0 1 5.184-4.119 15.7 15.7 0 0 1 6.867-1.648 13.34 13.34 0 0 1 6.078 1.099 14.3 14.3 0 0 1 5.355 4.325zm5.427-9.268 5.665-.515 3.433 36.866-5.664.55zm9.508-.824 20.944-3.158.893 5.904-15.314 2.3 1.374 8.993 14.524-2.162.892 5.904-14.523 2.197 1.476 9.92 16.138-2.437.892 5.904-21.768 3.433zm23.937-3.605 7.314-1.784 21.596 23.067-6.524-26.706 5.528-1.373 8.789 35.974-6.866 1.751-22.146-24.029 6.867 27.461-5.528 1.339zm54.969-6.968a9.94 9.94 0 0 0-4.189-1.648 8.1 8.1 0 0 0-3.434.412 9.6 9.6 0 0 0-3.914 2.438 10.3 10.3 0 0 0-2.334 3.776 13.5 13.5 0 0 0-.721 4.737c.041 1.757.367 3.494.961 5.149a18.7 18.7 0 0 0 2.54 4.943 14.2 14.2 0 0 0 3.434 3.432 10.9 10.9 0 0 0 4.223 1.579 9.7 9.7 0 0 0 4.601-.48 7.7 7.7 0 0 0 3.228-2.266 10.5 10.5 0 0 0 2.094-4.359l5.699 2.128a13.5 13.5 0 0 1-3.433 6.488 14.5 14.5 0 0 1-5.769 3.638 16.05 16.05 0 0 1-6.866.927 15.7 15.7 0 0 1-6.317-1.956 18.6 18.6 0 0 1-5.323-4.6 23 23 0 0 1-3.776-7.037 24.1 24.1 0 0 1-1.477-8.067 18.3 18.3 0 0 1 1.27-6.865 15.5 15.5 0 0 1 3.743-5.493 16.7 16.7 0 0 1 5.975-3.432 13.46 13.46 0 0 1 6.145-.721 14.9 14.9 0 0 1 6.386 2.574zm2.227-10.195 19.399-8.581 2.403 5.457-14.18 6.282 3.674 8.307 13.459-5.938 2.403 5.492-13.424 5.904 4.05 9.2 14.936-6.625 2.403 5.492-20.119 8.891zm40.445-19.978 4.257-2.506 30.901 24.887-5.631 3.433-6.867-5.767-11.948 7.037 1.82 8.787-5.494 3.261zm17.888 16.031-11.914-10.401 3.433 15.55zm-1.747-25.677 6.077-4.428 28.738 13.113-16.206-22.244 4.601-3.432 21.802 29.967-5.837 4.256-29.527-13.73 16.72 22.998-4.601 3.433zm25.992-19.051 9.407-8.376a17.2 17.2 0 0 1 5.287-3.226 14 14 0 0 1 6.18-.893c2.291.186 4.522.827 6.559 1.888a23.1 23.1 0 0 1 6.454 5.218 20.2 20.2 0 0 1 4.326 7.174c.717 2.214.995 4.545.824 6.865a16.7 16.7 0 0 1-1.819 6.179 17.2 17.2 0 0 1-3.64 4.772l-8.893 7.86zm28.119 16.58a17.3 17.3 0 0 0 3.434-3.879 10.1 10.1 0 0 0 1.613-4.394 9.9 9.9 0 0 0-.48-4.737 14.7 14.7 0 0 0-3.091-4.977 16 16 0 0 0-4.498-3.708 10.3 10.3 0 0 0-4.497-1.235 9.6 9.6 0 0 0-4.292.892 15.4 15.4 0 0 0-4.052 2.678l-3.879 3.432 16.72 18.777zm10.985-46.169-6.318 7.345-4.497-3.947 16.754-18.948 4.498 3.947-6.523 7.312 23.313 20.596-3.743 4.256zm6.005-15.997 12.841-16.854 4.738 3.604-9.305 12.324 7.244 5.526 8.893-11.705 4.738 3.432-8.857 11.706 7.999 6.076 9.854-13.01 4.739 3.433-13.288 17.54zm33.718-33.159c-1.52.086-3 .522-4.326 1.27a9.4 9.4 0 0 0-2.403 2.403 9.7 9.7 0 0 0-1.544 4.359 10.8 10.8 0 0 0 .515 4.428 13.7 13.7 0 0 0 2.368 4.154 15.8 15.8 0 0 0 3.914 3.433 18 18 0 0 0 5.082 2.3c1.58.463 3.238.617 4.875.446a10.3 10.3 0 0 0 4.292-1.339 9.64 9.64 0 0 0 3.434-3.261 7.5 7.5 0 0 0 1.098-3.742 10.9 10.9 0 0 0-1.064-4.737l5.802-1.888a13.4 13.4 0 0 1 1.408 7.175 14.7 14.7 0 0 1-2.266 6.453 16.25 16.25 0 0 1-4.807 4.977 16 16 0 0 1-6.18 2.403c-2.349.326-4.734.21-7.039-.343a23.9 23.9 0 0 1-7.347-3.158 25 25 0 0 1-6.112-5.424 18.7 18.7 0 0 1-3.433-6.281 15.45 15.45 0 0 1-.481-6.625 16.7 16.7 0 0 1 2.507-6.488 13.76 13.76 0 0 1 4.361-4.36 14.76 14.76 0 0 1 6.591-1.956zm-4.46-9.371 2.609-5.046 13.116 6.865 6.867-13.284-13.116-6.866 2.61-5.046 32.926 17.164-2.644 5.08-14.489-7.518-6.867 13.319 14.524 7.483-2.61 5.046zm13.562-26.5 2.781-6.866 31.313-4.188-25.545-10.298 2.095-5.286 34.334 13.731-2.678 6.694-32.205 4.119 26.402 10.538-2.128 5.286zm29.353-23.377a24.7 24.7 0 0 1-7.416-3.432 18.4 18.4 0 0 1-5.013-5.046 15.2 15.2 0 0 1-2.334-6.214 16 16 0 0 1 .515-6.865 16.9 16.9 0 0 1 3.089-6.247 15.25 15.25 0 0 1 5.219-4.119 18.6 18.6 0 0 1 6.867-1.717 24.3 24.3 0 0 1 8.103.961 23.1 23.1 0 0 1 7.244 3.433 18.1 18.1 0 0 1 4.944 5.046 16.4 16.4 0 0 1 2.404 6.282c.326 2.296.171 4.63-.446 6.865a17.2 17.2 0 0 1-3.194 6.179 15.4 15.4 0 0 1-5.218 4.05 19.1 19.1 0 0 1-6.867 1.717 23.4 23.4 0 0 1-7.897-.893m1.236-5.87c1.781.532 3.636.776 5.493.721a13.4 13.4 0 0 0 4.91-1.03 9.9 9.9 0 0 0 3.708-2.54 9.6 9.6 0 0 0 2.232-4.016 9.85 9.85 0 0 0 .206-4.668 10.1 10.1 0 0 0-1.82-4.12 12.9 12.9 0 0 0-3.433-3.432 17.9 17.9 0 0 0-5.048-2.266 16.4 16.4 0 0 0-5.218-.652 13.4 13.4 0 0 0-4.635.996 10.1 10.1 0 0 0-3.674 2.608 9.7 9.7 0 0 0-2.231 4.051 10.3 10.3 0 0 0-.241 4.634c.313 1.469.92 2.859 1.785 4.085a13.1 13.1 0 0 0 3.434 3.432 16.4 16.4 0 0 0 4.635 2.197zm-9.854-33.88 1.064-5.595 30.524 5.904 2.609-13.353 5.837 1.133-3.674 18.948zm22.356-15.927a24.5 24.5 0 0 1-7.932-2.129 19 19 0 0 1-5.767-4.119 15.16 15.16 0 0 1-3.434-5.732 16.5 16.5 0 0 1-.652-6.866 16.8 16.8 0 0 1 1.991-6.659 15 15 0 0 1 4.463-4.943 18.8 18.8 0 0 1 6.524-2.849 26.07 26.07 0 0 1 15.862 1.716 18.2 18.2 0 0 1 5.699 4.154 15.8 15.8 0 0 1 3.434 5.766 16.9 16.9 0 0 1 .755 6.866 16 16 0 0 1-2.094 6.59 15.3 15.3 0 0 1-4.463 4.909 18.4 18.4 0 0 1-6.456 2.815 23.5 23.5 0 0 1-7.93.481m.206-5.973c1.853.209 3.729.14 5.562-.206 1.613-.306 3.162-.9 4.566-1.751a11.2 11.2 0 0 0 3.228-3.124 10.3 10.3 0 0 0 .961-8.959 10.7 10.7 0 0 0-2.507-3.776 12.8 12.8 0 0 0-4.086-2.677 18.6 18.6 0 0 0-5.39-1.408 17.5 17.5 0 0 0-5.219.241 14.2 14.2 0 0 0-4.429 1.785 10.3 10.3 0 0 0-3.193 3.158 9.8 9.8 0 0 0-1.476 4.393 9.6 9.6 0 0 0 .515 4.566 10.8 10.8 0 0 0 2.438 3.741 13.3 13.3 0 0 0 3.948 2.678 17.2 17.2 0 0 0 5.082 1.339m19.256-59.866a25.2 25.2 0 0 1 3.605 13.25 16.15 16.15 0 0 1-1.442 6.866 15.1 15.1 0 0 1-3.949 5.32 17.1 17.1 0 0 1-6.111 3.433 22.4 22.4 0 0 1-7.897 1.236 24.9 24.9 0 0 1-8.068-1.271 18.1 18.1 0 0 1-6.181-3.432 15.5 15.5 0 0 1-3.948-5.355 16.9 16.9 0 0 1-1.373-6.865c.01-2.328.37-4.641 1.064-6.866a13.7 13.7 0 0 1 3.674-5.732l4.875 4.222a11.15 11.15 0 0 0-2.677 3.707 11.9 11.9 0 0 0-.963 4.634c-.01 1.555.33 3.093.997 4.497a10.5 10.5 0 0 0 2.815 3.433 13.7 13.7 0 0 0 4.223 2.265c1.679.525 3.427.803 5.184.824a17.5 17.5 0 0 0 5.493-.789 13.3 13.3 0 0 0 4.361-2.197 11.5 11.5 0 0 0 2.884-3.433 9.34 9.34 0 0 0 1.064-4.497 17.7 17.7 0 0 0-.446-4.119 10.8 10.8 0 0 0-1.442-3.433h-8.755v6.66h-5.974v-12.255zm-14.177-12.941-20.119 13.731-.584-7.106 14.043-9.096-15.382-6.557-.584-6.865 22.146 10.298 15.794-1.339.48 5.664z" fill="#673328"/></svg>