<svg xmlns="http://www.w3.org/2000/svg" width="2000" height="2000" viewBox="0 0 1500 1500" fill="#1F4E84"><path d="M673.4 34.4c-11.1 2.6-18.1 7.3-21.9 14.9-2.9 5.9-3.2 12.7-1.5 36.1 1.2 15.8 2.7 21.2 7.6 26.6 7.7 8.5 24.8 11.4 37.7 6.5 1.3-.6 1.7-.2 1.7 1.4 0 9.1-12.5 14.7-23.5 10.5-2.2-.8-4.7-1.7-5.5-1.9-.9-.3-3.4 1.9-6.3 5.4l-4.7 5.9 3.2 2.7c6.6 5.5 11.3 6.9 23.3 7 9.8 0 11.6-.3 16.5-2.6 7.4-3.5 12-7.6 15.5-14.1 2.4-4.4 3-6.7 3.3-13.8.3-8.1-4.3-79.8-5.3-80.8-.2-.2-3.5-1.3-7.2-2.4-9-2.5-25-3.2-32.9-1.4zm18.3 16.9c.3.4 1.2 9.3 1.9 19.9l1.7 24c.4 4.3.2 4.8-2.2 5.7-7.6 2.8-14 2-18.1-2.4-2.2-2.3-2.5-4-3.7-20.1-1.1-13.6-1.2-18.3-.3-20.5 1.3-3 4.6-5.6 8.9-7 2.7-.9 10.8-.6 11.8.4zm59.8-15.7C736 41.1 730 60.7 739.7 73.8c3.9 5.3 10 9 18.8 11.7 8.9 2.8 11.5 4.7 11.5 8.8 0 3.9-3.3 6.7-7.7 6.7-4.5 0-13.7-4.1-17.4-7.6l-2.7-2.6-5.7 7.1-5.7 7 1.9 2.5c3.1 3.9 7.8 7.5 13 9.9 4 1.8 6.5 2.2 15.8 2.2 10 0 11.5-.2 16.1-2.7 6.6-3.5 11-8.8 13-15.7 4.1-13.9-2.4-25.9-16.9-30.8-2.8-1-7.4-2.9-10.2-4.3-4.3-2.2-5-2.9-5.3-5.8-.6-5.9 4.1-9 11.1-7.2 2.3.6 5.5 2 7 3.1 1.6 1.2 3 1.9 3.1 1.7.1-.1 2.8-3.6 6-7.5l5.7-7.3-4.8-3c-2.6-1.7-7-3.7-9.7-4.5-6.2-1.9-19.8-1.8-25.1.1zM810.1 46c-.7 5-1.1 9.4-.8 9.6.3.3 7.1 1.6 15.2 2.9s14.8 2.5 15 2.7-8.3 10.2-18.7 22.3l-21.5 25.3-2.6 3.2 2.4 4.5c1.3 2.5 2.7 4.5 3 4.5s13.1 2 28.4 4.5c15.3 2.4 28.1 4.2 28.5 4 .8-.5 3.4-17.4 2.7-18.1-.2-.3-7.6-1.6-16.3-3l-16.1-2.8c-.2-.1 9.5-11.6 21.4-25.5l21.6-25.3-2.3-4.4c-1.6-2.9-3.3-4.5-5-4.8-1.4-.3-12.8-2.2-25.5-4.1l-25.6-4.1c-2.6-.5-2.6-.4-3.8 8.6zm-230.9.9c-6.5 1.9-16.9 6.8-21.1 10l-2.4 1.8 7.6 38.8 8 39.1c.2.2 5.2-.6 11.1-1.8 9.9-2 10.7-2.3 10.2-4.2-.2-1.2-3.1-15.5-6.2-32-6.5-33.6-6.6-31.4 1.9-33.7 6.4-1.7 12.2.4 14.9 5.4.5 1 3.4 14.2 6.3 29.4l5.9 28c.6.6 19-2.7 20.5-3.7 1.1-.6-8.8-53.1-11.6-61.4-2.1-6.6-8.4-12.7-15.7-15.5-7.2-2.7-20.3-2.8-29.4-.2zm323.8 11c-7 2.3-13.6 7.5-16.6 13.2-3.2 6.2-10.4 35.2-10.4 42 0 14.9 11.6 26.7 29.5 30 9.5 1.7 21.4-1.2 26.4-6.5l2.1-2.2-5.5-6.6c-5.5-6.6-5.6-6.6-8.3-5.2-6.5 3.4-18.1.1-21-6-1.6-3.1-.8-9.6 1.1-9.6.7 0 10.4 2.5 21.6 5.5l20.7 5.2c.8-.8 7.4-27.9 7.4-30.3 0-10.6-7.4-21-18.8-26.6-5.8-2.9-7.6-3.3-16.1-3.5-5.3-.1-10.7.1-12.1.6zm19.9 21c5.1 2.7 6.6 6.3 5 12.4-.6 2.6-1.6 4.7-2.2 4.7-1.1 0-21-5.1-21.5-5.5-.2-.1.2-2.3.9-4.9 2.1-8.2 9.3-11 17.8-6.7zM518 65.2c-5.2 1.6-9.9 3.3-10.3 3.8-.5.4 3.7 14.8 9.3 32l9.8 31.5c-2.2 1.9-7.7 3.5-12.2 3.5-9.6 0-10.2-.9-20.2-31.8l-9.3-27.4c-.7-.8-18.8 4.8-20.4 6.2-.4.3 3.5 13.7 8.7 29.6 10.4 31.5 12.3 35.4 20.3 40.1 5.4 3.2 16.2 4.2 24.4 2.3 6.7-1.5 26.2-10.8 30.8-14.7l3.4-2.9-11.8-36.4-12.4-37.6c-.4-.8-3.5-.2-10.1 1.8zm464.1 20.9c-1 2.4-8.2 18.7-16 36.2L952 154.8c.1.9 19 9.3 19.9 8.8.3-.2 6.4-13.5 13.6-29.5l12.9-29.1h3.4c4.3 0 9.7 2.5 12.2 5.8 3.7 4.7 2.8 8.3-9.5 35.7L993 172.9c0 1.2 19.3 9.2 20.1 8.4.4-.4 6.2-13.2 13-28.3 11.8-26.5 12.2-27.8 12.3-34.5.1-8.7-2.3-14.2-8.8-20.6-8.5-8.4-22.7-14.3-37.6-15.5l-7.9-.7-2 4.4zm-611.3 6.7-9.6 4.7 24.9 51 25.2 51.8c.2.7 19-7.3 20.4-8.7.2-.1-5.8-12.8-13.2-28.1-13.2-27-13.5-27.8-11.8-29.7 4.8-5.4 16.3-7.7 19.6-4 .9.9 7 12.7 13.5 26l12.5 24.9c.7.6 19.7-8.3 19.7-9.3 0-.4-6-12.9-13.4-27.9-11.3-23-14-27.7-17.6-30.8-10.7-9.1-26.3-9-39.4.4-3.1 2.3-5.8 3.9-5.9 3.8l-7.2-14.7c-3.8-7.8-7.2-14.2-7.5-14.1-.3 0-4.9 2.2-10.2 4.7zm690.1 35.4c-12.2 22-22.8 42.1-23.5 44.6-2.6 8.5-1.2 16.8 3.9 23.5 2.8 3.7 12.4 9.2 17.8 10.2 3.6.7 3.6.7 7.3-5.9 2-3.7 3.6-6.9 3.6-7.1 0-.3-1.8-1.4-4-2.5-4.8-2.4-7.4-7-6.7-11.6.4-2.4 14.9-30.3 17.3-33.2.1-.2 3.2 1.2 6.7 3.2l6.5 3.7 3.7-6.8 5.6-9.9 1.8-3-6.4-3.5c-3.6-1.9-6.5-3.7-6.5-4 0-.4 3.2-6.3 7-13.2 3.9-6.9 7-12.9 7-13.4s-1.5-1.7-3.2-2.6c-1.8-.9-6.1-3.2-9.5-5.1l-6.2-3.5-22.2 40.1zM342 148.1c-10.9 2.1-22.4 10.9-27 20.4-2.9 5.9-3.8 15.6-2 21.2 1.8 5.3 19.5 32.7 23.3 35.9 6 5.1 11.1 6.6 20.1 6.2 9.9-.4 17.2-3.5 24.6-10.4 7.2-6.7 10.4-13.9 10.4-23.6.1-4.2-.1-7.9-.4-8.2-.5-.5-3.3.1-16.2 3.5-3.5.9-3.8 1.3-3.8 4.5 0 10.3-12.4 17.5-19.3 11.1-4.1-3.7-17.7-25.8-17.7-28.6 0-6.7 7.9-12.9 14.9-11.7 2 .4 4.3.7 5.2.9 2 .3 13.3-12.9 12.6-14.7-.8-2.1-10.6-6.4-15.7-6.9-2.5-.3-6.5-.1-9 .4zm772.7 6.3c-8.7 3.2-11.1 5.9-28.2 32.2l-16.5 25.8c0 .7 18.1 12.9 18.5 12.4.1-.2 6.8-10.5 14.9-22.9 8-12.4 15.8-23.6 17.2-25 3.9-3.6 10.7-3.2 17.5 1 2.9 1.7 5.5 2.8 6 2.4.4-.4 2.6-3.7 4.8-7.3l4.1-6.5-4.2-3.8c-6.8-6-14.1-9-22.8-9.4-4.8-.2-8.9.2-11.3 1.1zm36.4 46.3c-10.5 12.5-20.1 24.8-21.3 27.3-1.3 2.6-2.4 7.1-2.6 10.7-.7 10.8 5.8 21.2 19.4 30.9 7 5 22.8 12.9 24.2 12 .5-.3 12.2-14 26-30.4l25-29.9-8.6-7.2c-4.7-3.9-8.8-6.8-9.2-6.4s-10 11.9-21.4 25.5l-20.7 24.8-2.9-1.5c-6.7-3.5-10.8-12-8.7-18 .7-1.9 9.2-12.9 19-24.5 13.9-16.4 17.6-21.4 16.7-22.5-.6-.7-4.4-4-8.5-7.4l-7.3-6.1-19.1 22.7zM721 188.1c-274.2 11.6-502 216.2-542.5 487.4-13.4 90.2-5.8 179.1 23 266.2 11 33.2 10.4 33.5 10.5-3.9v-31.7l-3-12.6-3-13.3c.1-.4 1.4.9 3 2.8l3 3.4v-8.8c0-8.4-.2-9-3.4-13.5-8.6-11.9-9.5-15.4-13.1-48.1-2.3-20.3-3.1-67.6-1.6-90.8 3.1-47.6 11.6-91.4 26.8-137.9l5.6-17.2 5 8.7c5.8 10.2 16.7 24.2 28.4 36.3l8.2 8.5-2 6.5c-3.8 12.5-9.9 34.2-9.9 35.6 0 1.1 1.3 1.3 5.6 1.1l5.7-.3 2.4-8.5c4.6-16.5 7.4-25 8.2-25 .4 0 1.8 1.2 3.2 2.6 2.6 2.8 20.3 17.7 30.9 26.1 4.9 3.8 7.5 5.2 10.5 5.4 3.6.4 4.1.7 4.5 3.4.4 2.4 2.7 4.6 12.5 11.7 6.6 4.9 20.5 14.5 30.8 21.4 14.6 9.8 18.7 13 18.2 14.3-1.7 4.5-10.2 34.7-14.1 50.6-15.8 63.8-24.5 135.8-23.2 191.7.2 10.4.1 18.8-.4 18.8s-5.7-3.2-11.7-7c-5.9-3.9-11.1-7-11.5-7s-.6 3-.4 6.7l.3 6.6 12.5 7.9 12.5 7.9 1.8 18.2c1 10 3 25.4 4.5 34.2l2.7 16 5.8.3c4.2.2 5.7 0 5.7-1 0-.7-1.1-7.4-2.4-14.8-2.9-16.3-6.1-43.8-5.3-44.7.4-.3 1.2-.1 1.9.5 5.1 4.2 73.6 42 100.8 55.7l9.1 4.6 12.2-.3 12.2-.3-22.5-11.4c-35.9-18.2-80.4-42.6-107.7-59.2-6.8-4.1-7.3-4.6-7.9-8.7-1.2-7.9.3-76.8 2-94.2 5.1-51.3 13.7-97 27.7-146.5 2.8-9.9 5.4-18.3 5.8-18.7.4-.5 4.1 1.3 8.1 3.8 49.9 30.8 103.7 60.8 156 86.9l17.9 9.1c.2.2-1.1 4.3-2.9 9.1-22.5 61.1-38 107.6-52 156.3-5.9 20.6-19 70.8-19 73 0 .6 2.5 1 5.9 1h5.9l.6-3.8c2.8-15.7 21.9-83.4 35.1-124.3 15.4-47.6 36.4-105.6 38.1-105.2.5.1 14 6.3 29.9 13.8l34.3 16.1c5 2.3 6.3 2.4 18.8 2.2l13.4-.3-24.2-10.9-68.6-32.2c-.1-.1.9-3.2 2.3-7l2.6-6.9-4.3-3.7c-2.3-2.1-4.5-3.4-4.9-3-.3.4-1.9 4-3.4 7.9-1.6 4-3 7.3-3.2 7.3-1 0-48.7-24.6-70.8-36.4-43.9-23.7-111.5-63.7-111.5-66.1 0-.6 2.4-8.1 5.4-16.6 28.4-81.6 66.6-156.4 113.9-223.6 6.7-9.5 12.7-17.3 13.2-17.3.6 0 4.6 2.4 9 5.3 40.4 26.6 96.1 58.6 143.8 82.7 8.6 4.4 15.7 8.2 15.7 8.5s-9.2 19.1-20.5 41.8c-19.1 38.4-41.5 85.8-41 86.5.2.2 3.5-1 7.5-2.5l7.2-2.8 9.4-20.5c11.7-25.3 47.4-97 48.4-97 .4 0 9.9 4.4 21.1 9.9 24.1 11.6 27.1 13 58.4 27.1 29.6 13.3 59 25.7 93 39l26.3 10.5c.8.7-19.1 54.3-34.2 92.1l-7.6 20c0 1.4 5.4 13.4 6 13.4 1.1 0 25.8-63.1 39-99.5l7.9-20.8c.4-.4 13.5 3.8 29.2 9.3 15.6 5.6 38.1 13.2 49.9 17l21.6 6.9 8.2-3.2c4.5-1.8 8.2-3.4 8.2-3.7s-4.6-1.8-10.3-3.4c-19.5-5.6-100.6-33.2-102.3-34.9-.2-.2 3.7-12.7 8.7-27.8 22.2-67.6 38.5-127.9 48.9-181.2.6-3.1 1.3-5.7 1.5-5.7.3 0 10.7 3.4 23.2 7.6 32.8 10.9 73.2 22.1 91.6 25.4 4.3.8 7.1 1.8 7.6 2.9 2.1 4 8 41.1 10.3 64.1 2 21.1 1.7 93.7-.5 116l-2.4 20.7-.5 3.3h11.9l.7-5.8c5.5-50.2 5.8-100.8 1-145.7-1.4-13.5-7.1-49.2-8.1-50.8-.6-.9-.8-.9 13.2.8 7.2 1 18.6 1.5 28.4 1.4l16.4-.2 4.5 8.9c5.7 11.3 12 26.2 18.3 43.2 19 51.2 29.5 102.4 33.1 161.1l1.2 19.8 5.4 3.8c2.9 2 5.5 3.5 5.7 3.3.6-.6-1.3-39.7-2.5-51.7-6.5-63.9-23.3-126.6-48.1-179l-5.9-12.6c0-.1 2.2-1.6 4.9-3.3l4.9-3 3.8 5.6c9.7 14.6 24.6 40.7 34.3 60.3 25.1 50.4 42.4 105.2 50.7 160 3 19.7 3 19.4-5.7 24.6-5.2 3.1-18.8 7.3-23.6 7.3-3.4 0-2.9 1.2 2.8 6l5 4.2 6-1.2c3.3-.7 8.9-2.8 12.6-4.6 3.7-1.9 6.8-3.3 6.9-3.1.9.9 2.5 34.4 2.4 51.8 0 52-7.6 105.1-21.8 153.6l-3.8 13.1 4.4 5.9c2.4 3.2 5.5 7.7 6.9 10 1.4 2.4 2.8 4.3 3.2 4.3 1.7 0 13.6-41.1 18.6-64.5 27.6-128.8 11.7-259.5-45.5-376-21.5-43.6-48.1-83.6-81.4-122.5-12.8-15-45.8-47.6-61.6-61-89.6-75.6-196.8-121.4-312.2-133.5-13.6-1.4-56.3-3.7-63.3-3.3-1.6 0-10.9.4-20.5.9zm0 22.9c-14 2.4-33.7 6.5-41.6 8.6-1.9.5-2.2.1-2.6-3.4l-.3-4L689 211c13.3-1.3 33.9-2.7 43-2.8 3.9 0 .6.8-11 2.8zm-55.2 7.7-.3 4.7-11.2 3.3C583.7 247.5 505 292.9 445.9 347l-8.6 7.9-4.3-5.7c-2.3-3.1-6.1-9.5-8.4-14.2-3.5-7.3-4.1-9.4-4.1-15v-6.4l12-8.4c28.8-20.1 72.7-43.6 106.5-57.2 31-12.5 65.6-22.8 97.5-29 32.1-6.3 29.7-6.3 29.3-.3zM832 218c11.4 1 36.2 4.2 35.8 4.5-.2.2-5.6.8-12 1.4-16.1 1.6-37.3 5.4-50.2 9.1-27.5 8-53.9 18.5-75.3 30.1-5 2.7-9.7 4.9-10.3 4.9-4.2 0-37-32.5-37-36.7 0-.6 2.4-1.5 5.3-2.1 2.8-.7 8.4-1.8 12.2-2.7 41.7-9.1 89.2-12.1 131.5-8.5zm-158 21.2c3.4 5.3 24.2 26.9 31.3 32.5l3.8 3-3.8 2.4c-54.4 32.9-113.2 85.7-159.6 143.4-6.6 8.2-12.4 15.2-12.9 15.3-1.6.7-32.9-22.4-51.8-38.1-12.4-10.3-31.4-28.1-34-31.7l-2.1-2.9 11.8-10.4c33-29.2 62.8-50.5 102.4-73 24.7-14.1 64.6-31.3 93.4-40.4L666 235c4.2-1.4 4.5-1.2 8 4.2zm238-2.7c10.1 1.6 21.6 4.1 23.3 5.2.5.3-2.7 2.5-7.2 4.9-4.4 2.3-12.3 7.4-17.5 11.3-18.1 13.4-48.7 45.2-69.1 71.9-3.8 5-7.4 9.1-7.9 9.2-2.1 0-37.4-19.7-59.6-33.3-13.3-8.2-33.5-21.6-39.9-26.3l-4.3-3.3 14-7c39.8-19.7 78.4-30.9 118.2-34.5 9.1-.8 39.8.4 50 1.9zm53 16.8c6.3 2.7 8 4 10.7 8 12.2 18.2 15.1 56.3 8.3 110.4-3.6 28.7-4.3 31.8-6.5 31.5-3.2-.5-43.1-16.7-65-26.2-32.1-14.1-65.9-30.2-67-32-.8-1.4 19.3-26.4 34.1-42.6 20.5-22.2 38.2-37.2 53.5-45.3 14.7-7.8 20.7-8.5 31.9-3.8zm35.1 17.8c25.4 17.4 48.4 41.9 66.6 71.3 11.1 17.8 23 42.7 30.4 63.5 4.1 11.5 11 35.3 10.5 35.9-1.5 1.4-49.5-11.4-81.6-21.7-32.5-10.4-35.5-11.6-35.3-13.7.1-1.1 1.4-9.7 2.8-19.3 7.2-48.8 7.1-92.8-.3-115.4-1.1-3.1-1.6-5.7-1.2-5.7.3 0 4 2.3 8.1 5.1zm-273.6 17c22.9 16.6 55.8 36.8 90.8 55.6 4.8 2.5 8.7 5.1 8.7 5.6s-3.3 5.5-7.3 11.1c-29.8 41.1-74.4 114-101.2 165.1l-7.2 13.4c-.5.6-9.7-3.9-33.8-16.6-37.2-19.7-76.1-42-104.5-60-23.9-15.1-29-18.6-29-19.5 0-.5 5-7.1 11.2-14.6 36.2-44.3 75.2-82.6 114-111.7 19.2-14.6 47.7-33.4 50.3-33.5.6 0 4.2 2.3 8 5.1zm346.5 31.3c35.5 30.2 70.4 72.7 95.9 117 4.9 8.5 6 11 5 11.7-2.9 1.8-29.2.4-46.2-2.4-6.2-1.1-7.1-1.5-7.8-3.7l-4.4-15.5c-7.3-26.2-19.4-56.1-31.1-76.8-8.5-15-19.4-31.5-26.5-39.9-7.5-8.9-4.4-6.9 15.1 9.6zm-663.2 8.8c1.6 7.3 8.1 20 14 27.8l4.9 6.5-10.5 11c-27.6 29-51 57.9-71.2 88-26.9 40-55 94.9-70.1 137-2.3 6.6-4.5 12.2-4.7 12.5-.7.8-14-13.9-21.6-24-7.6-10.2-14.7-22.9-16.5-29.7-1.1-3.9-.8-4.8 3.5-15 6.6-15.6 20.8-43.6 30.9-60.9 32.7-56 76.5-107.1 128-149.3l11.5-9c.3-.1 1.1 2.3 1.8 5.1zm451.3 37.7a1275.12 1275.12 0 0 0 87.4 38.4l26.3 10.2c1.2.3 2.2 1.3 2.2 2 0 3-8.3 41.1-14 64-9.6 39.2-26.9 97.6-40.8 138-3.5 10.2-4 11-6.3 10.8-2.8-.1-40.3-14.9-73.9-29.1-38.2-16.1-78.5-34.3-112.8-51.2l-9.2-4.5 12.6-23c25.9-47.2 49.4-86.4 72.7-121.5 15.7-23.6 31-45 32.3-45 .6 0 11.2 4.9 23.5 10.9zM465 399.1c13.8 12 33.8 27.5 53.3 41.2 3.7 2.7 6.7 5.2 6.7 5.8 0 .5-4.4 7.1-9.8 14.7-48 67.1-87.6 144.2-117.3 228.6-2.7 7.7-5.1 14.1-5.3 14.4-.7.6-5.5-2.5-27.5-17.6-30.1-20.7-49.4-35.5-70-53.6l-12.8-11.1c-1.1-.8-.2-4.1 4.6-17 31.2-84.2 77.3-158.1 137.3-220.4l11.9-12.4 10.7 10.5c5.9 5.7 14.1 13.3 18.2 16.9zm705.2 8.1c14.3 17.1 25 31.8 24.4 33.3-.8 2.1-5.4 4.8-7.1 4.2-.8-.4-2.8-3.2-4.4-6.4-7.1-13.6-14.6-25.6-27.8-44.8l-8.3-12 6.9 7.2c3.7 4 11.1 12.3 16.3 18.5zM279.5 192.4c-10.8 3.4-20 10.8-24.2 19.4-6.3 12.9-2.1 27 10.2 33.5 6.2 3.3 17.9 3 26.5-.7 11.2-4.8 14.9-4.7 17 .5 1.1 2.7 1.1 3.4-.7 5.7-2.7 3.9-9.8 7.1-17.2 7.8l-6.3.7.4 8.3c.1 4.5.7 8.6 1.1 9.1.5.4 4.3.8 8.5.8 6.6 0 8.7-.5 14.2-3.1 8.8-4.3 14-9 18-16.6 4.5-8.4 4.7-15.9.6-24.1-6.7-13.7-18.9-17-36.9-9.8-9.2 3.7-11.9 3.8-14.7.9-2.4-2.6-2.6-5.6-.4-8.7 2-2.8 8.8-6 12.7-6.1 2.5 0 2.7-.3 2.7-4.3 0-2.3-.3-6.6-.6-9.5-.7-5-.8-5.2-3.8-5.1-1.7 0-4.9.6-7.1 1.3zm-54.1 43c-8.3 7.5-11.6 14-12.2 23.7-.7 12.4.9 14.9 25.4 40.3l20.7 21.5 8.3-7.6 8.3-7.6-20.4-21.3C235.7 263.8 235 262.9 235 259c0-5.2 1.8-8.7 6.8-13.2l4-3.6-6.2-6.1c-3.4-3.4-6.6-6.1-7.2-6.1s-3.7 2.4-7 5.4zm985 36.8c-23.5 21.2-27.9 25.6-27 26.9.6.9 3.9 4.6 7.2 8.4l6.2 6.7 23.1-20.8c12.8-11.5 24-21 25-21.2 4.5-.7 12.2 9.8 10.7 14.6-.4 1-10.5 10.8-22.6 21.6-12.1 10.9-22 20.3-22 20.9.1.7 3.1 4.5 6.8 8.4l6.7 7.3 22.3-20c18.5-16.7 22.7-20 25.3-20 5.8 0 10.9 5.5 10.9 11.8 0 2.5-2.9 5.6-22.5 23.1l-22.5 20.3 7.2 7.9c3.9 4.3 7.5 7.9 8 7.9 1.3 0 44.2-39.1 46.9-42.9 7.6-10.5 6.1-25.5-3.7-36.9-4.1-4.8-12.3-9.1-18-9.5l-4-.2v-6c.1-7.8-3-14.2-10.1-21.2-5.7-5.6-15.9-11.2-21.9-11.9-3.9-.5-4.1-.4-32 24.8zM182.1 291.1c-16.7 3.2-30.1 19.7-30.1 36.9 0 4.3.7 7.1 3.1 11.9 2.7 5.5 4.6 7.4 17.7 17.9 8.1 6.5 16.7 12.6 19.1 13.5 20.9 8.4 46.2-12.3 44.9-36.9-.5-10.5-3.3-14.4-20.3-28.3-18-14.6-23.7-17.1-34.4-15zm19.4 31.9c7.4 6 13 11.2 13.6 12.8 2.5 6.6-3.8 15.2-11.1 15.2-3.4 0-5.3-1.2-15.2-9.1-6.2-5-12.1-10.1-13.1-11.3-2.2-2.4-1.8-7.3.8-11.3 2-3 7.3-6.3 10.2-6.3 1.3 0 7.4 4.1 14.8 10zM90.3 351.2l-20.6 33-8.5 13.6 48.3 30.1 49.3 30.1c.8 0 13.4-19.2 12.9-19.6-.1-.1-7.6-4.7-16.7-10.4-9.1-5.6-17.1-10.8-17.9-11.5-1.2-1.2.4-4.3 10.9-21 6.7-10.8 11.8-20 11.4-20.5-1.2-1.1-18.8-11.9-19-11.7-.1.1-5.7 9-12.4 19.7l-12.5 19.8c-.4.4-21.5-12.8-21.5-13.4 0-.2 6.3-10.6 14.1-23s14-22.7 13.8-22.8c-1-.8-17.3-10.8-18.3-11.2-.7-.3-6.1 7.3-13.3 18.8zm1233.2 48.9c-6.9 6.1-6.9 14.8.1 20.9 8.5 7.4 22.4 1 22.4-10.3 0-8.3-5.4-13.7-13.6-13.7-4.5 0-5.9.5-8.9 3.1zm54 76.4-53.8 20.7c-.5.2 1.1 5.4 3.4 11.5l4.2 11.2 6.1-2.4c27.5-10.5 33-12.5 33.6-11.8.4.5 1.2 2.2 1.8 4 1 3.1.5 4.2-12.5 25.5-7.4 12.3-13.6 22.8-13.6 23.4-.1 1.7 9.5 26.4 10.2 26.4.3 0 6.6-10.2 14-22.6l14.2-22.9c.4-.3 2.2 1.3 3.9 3.5 6.5 8.2 17.1 12 28.1 10 18.4-3.4 31.5-15.3 33.5-30.7 1.2-9.7-1.5-18.8-19.4-64.5-.6-1.4-8.3 1.3-53.7 18.7zm44 22.9c2.5 6.6 4.8 13.7 5.1 16 1 7.8-5.3 13.6-14.7 13.6-6.3 0-10.4-4.8-15.6-18.6l-4.5-12.2c-.2-.9 3.9-3 12.2-6.2 6.9-2.7 12.6-4.7 12.7-4.6s2.3 5.5 4.8 12zm-23.3 83c-18.7 4.1-22.9 5.7-27.7 10.3-11.3 11-12.2 32.4-1.9 46.6 3.6 4.9 11.8 11 14.2 10.5.7-.2 2.8-3.7 4.6-7.9l3.4-7.7-3-2.2c-1.6-1.2-3.6-3.7-4.4-5.6-1.8-4.4-1.8-12.4.1-15.1 1.7-2.4 8.3-5 9.4-3.7.5.5 2.7 10.2 5.1 21.6 2.4 11.5 4.8 20.8 5.4 20.8 4.1-.1 28.4-6.3 31.1-8 5.3-3.3 10.1-9.3 12-15 2.7-8.1 1.8-20.7-2.1-29-4-8.4-7.1-11.9-13.4-15.4-7.8-4.2-14.2-4.3-32.8-.2zm26.5 22.2c4.3 4.7 4.9 13.5 1.3 17.9-1.1 1.3-10.7 4.1-11.5 3.3-.6-.5-4.5-18.9-4.5-20.9 0-1.3 1.2-2.1 4.3-2.7 5.3-1.2 7.6-.7 10.4 2.4zm1.4 61.1c-9.1 3.3-16.1 13.8-17.7 26.5-.8 6.4-1.7 8.3-4.8 10.3-3.6 2.4-7.5 1-9.3-3.2-1.8-4.5-.5-11.6 3.6-18.8l2.9-5.1-7.7-4.7-7.6-4.7-2.9 3.2c-4.9 5.7-7.9 13.4-8.4 21.9-1.3 22.1 12.6 36.7 32.2 33.7 10-1.5 16.1-8.3 19.2-21.3 2.2-9.3 4.4-14.4 6.5-15.6 7.4-3.9 12.6 5.8 8.4 15.8-.8 1.9-1.5 3.9-1.5 4.3s3.5 2.8 7.7 5.3l7.8 4.6 1.7-2.7c5.2-8.2 6.1-25.2 1.9-34.7-5.7-13-19.6-19.4-32-14.8z"/><path d="M1099 672.7c-1.9.2-9.1 1.3-16 2.4-37.9 6.3-72.1 22.5-95.8 45.3-20.2 19.6-31.1 38.3-38 65.4-2.5 9.9-2.7 12.2-2.6 30.7 0 16.9.4 21.6 2.3 30.5 11.6 53.9 45.7 87.5 108.1 106.4 13.3 3.9 30.3 7.5 54.1 11.1 39.1 6 61.3 14.1 74.6 27.1 12.7 12.5 17.1 29.3 12.3 47.8-2.6 10.4-6.2 16.7-14 24.5-31.5 31.8-102.1 28.7-148.8-6.4-3.4-2.6-10.2-8.9-15-14.1l-8.9-9.4-8.9 6.8-32.9 25.1-25.3 19.6c-3 2.7 26.5 34.7 44.3 48.1 29.3 22 62.2 35.2 99 39.5 14.2 1.7 44.9.6 60-2 58.3-10.3 103.7-38.9 127.8-80.6 6-10.3 12-26.2 14.8-39.5 1.9-8.7 2.3-13.4 2.2-27-.5-68.3-33.1-110.3-104.4-134.1-16.8-5.6-27-8.1-58.4-14.5-48.1-9.8-63.7-15.5-76.1-27.9-9.3-9.2-13.3-19.3-13.4-33 0-23.1 16-42.3 42.3-50.9 16.2-5.3 41.1-7.1 57.8-4.1 23.7 4.1 45.6 17.1 61 36 2.9 3.6 5.6 6.5 6.1 6.5.8 0 72.2-47.2 74.2-49.1 1.8-1.6-16.4-23.1-28.9-34.1-28.6-25.3-63-40.3-103.5-45.4-10.3-1.3-40.6-1.7-50-.7zm-392.5 3c-26.9 2.1-55.2 10.1-77.5 21.9-14.2 7.6-30.5 19.1-41.2 29.3-10 9.5-23.8 25.5-23.8 27.7 0 .6 11.7 11.4 26 24.1l26.1 23 6.2-6c12.1-11.7 26.3-20.3 42.5-25.7 15.3-5.1 24.7-6.4 45.7-6.5 16.9 0 19.9.3 26.9 2.3 23 6.7 39.3 21.3 44.1 39.7 6.1 23.7-6.6 51.1-28.6 61.9-13.1 6.3-15.2 6.6-55.6 6.6H661v76.9h36.4c38.6 0 44.1.5 58.1 5.3 29.5 10.1 48.4 33.3 48.5 59.5 0 9-1.6 15.7-6.2 25.3-9.5 19.8-32 34.5-60.5 39.5-11.1 1.9-33.7 2-43.5.1-23.1-4.4-45.2-16.3-63.1-33.9-5.2-5.1-11.5-12-13.9-15.3l-4.5-6.2-20.4 15-30.9 22.7-13.4 9.8-2.8 2.3 4.8 7.7c30 48.5 71.2 75.4 132.3 86.3 14.3 2.5 38.8 5 49.5 5 11.3 0 31.2-2.5 43.1-5.4 54.3-13.3 98.2-52.3 114.3-101.6 8.9-27.2 8.7-56.7-.4-82.2-9.6-26.6-30-52.7-56.2-71.8l-10.2-7.5 3.3-3c16.2-14.4 20.4-18.6 26.2-26.3 8.1-10.6 16.6-27.8 19.5-39.2 3.1-12 3.7-29.8 1.6-42.3-6-35.1-30.6-71.6-63.1-93.4-27.4-18.4-67.7-28.4-103-25.6zM224 923v244h307l.5-2.3c.3-1.2.4-21.8.3-45.7l-.3-43.5-108-.5-108-.5L315 877l-.5-197.5-45.2-.3-45.3-.2v244zm1175.8-185.6c-14.5 3.9-22.5 17.2-21.6 35.5.5 10.1 2.9 16 9 22.1 4.6 4.6 5.7 4.8 7.9 1.7.8-1.2 3-4.3 4.9-7l3.3-4.7-2.1-2.3c-3.8-4-4.5-12.1-1.7-18.9 1.1-2.7 5.1-4.8 9.1-4.8h3.6l-.7 22.5-.7 22.5h14.4c18.3 0 23.2-1.3 29.8-7.9 16.8-16.8 10.9-51-9.9-57.5-6.5-2-39-2.9-45.3-1.2zm41.9 24.8c5.1 5.1 3.7 16.9-2.3 19.7-1.4.6-4.5 1.1-6.9 1.1h-4.5v-11.3c0-6.3.3-11.7.8-12.1.4-.4 2.9-.6 5.5-.3 3.5.3 5.6 1.2 7.4 2.9z"/><path d="M1098.1 771.9c-1.8.5-2.7 1.7-3.3 4.1-2.1 8.2-14.1 46.7-18.3 58.1-2.4 6.8-4.1 12.6-3.7 13 1.6 1.3 9.3 4.2 9.8 3.6 1.6-1.6 25.4-75.9 25.4-79.4 0-.5-7.4-.1-9.9.6zm138.5 25.4-6 4.2-2.7 14.5c-3.4 18.5-8.7 41.1-13.3 56.9-2 6.9-3.5 12.6-3.3 12.7.6.6 10 4.4 10.2 4.2.8-.9 6-19.7 9.9-35.6 5.9-24 12.9-61.3 11.5-61.2-.2.1-3.1 2-6.3 4.3zm157.4 24.6c-5.2 1.7-8.9 4.2-13.1 8.9-5.7 6.3-8.8 15-9.6 26.8-.6 9 1.2 26.4 2.7 26.4.4 0 11.6 1.6 25 3.5 30.4 4.4 35.9 4.5 43.1.7 17.7-9.3 22.4-37.5 9.2-54.9l-2.5-3.2-5.8 4.6-5.8 4.7 1.9 3.7c6.2 12.2 1.3 24.6-10.1 25.7l-5.2.5 1.6-3.1c3.9-7.5 4.2-20.3.7-29.4-1.5-4-7.9-10.7-12.5-13-4.4-2.3-15.3-3.3-19.6-1.9zm13 22.8c2.3 2 3.3 4 3.7 7 .5 4.1-1.2 12.9-2.7 13.8-1.3.8-18.5-1.8-19.3-2.9-1-1.5.2-10.4 2-14.4 3-6.5 11.1-8.2 16.3-3.5zm-41.5 56.6c-.2.7-1.5 5.6-2.9 10.9l-2.4 9.8 3.7.9c2 .6 13.7 3.5 26.1 6.5 12.4 3.1 23.9 6.3 25.6 7.2 3.4 1.7 6.4 7 6.4 11.3 0 1.5-.6 4.8-1.4 7.3l-1.3 4.6 8.5 2.2c9.8 2.4 9.2 2.8 12.3-7.3 4.8-15.6-.9-31.9-13.4-38.3-5.3-2.8-60.8-16.4-61.2-15.1zM875 936.8l5.7 7.9c2.6 3.9 4.6 5.6 7.7 6.7 18.3 6.6 64.1 20.8 94 29.1l23.3 6.9c.4.4-2.3 6-4.7 9.6l-9.5 15.4c-7 11.3-18.6 28.9-27.5 41.8-.8 1.2 1.9-.5 6.2-3.7l14.2-11c7-5.3 13-13.8 27.5-38.6 5.4-9.3 6.5-10.6 8.4-10.2l9.7 2.4c35.8 8.9 77.4 16.7 110 20.5 8 .9 14.7 1.8 14.8 1.9.6.6-17.9 30.7-27.5 44.7l-9.4 13.8h6.4c3.5 0 7-.5 7.9-1.3 2.4-1.8 16.3-23.1 26.9-41.1l9.3-15.8 9.4.7 9.4.7-.7-2.3c-.4-1.3-1.5-4-2.4-5.9-1.5-3-2.4-3.6-6-4-4-.5-4.1-.6-2.7-2.5.9-1.1 1.6-2.3 1.6-2.7 0-.7-8-6.8-9-6.8-.3 0-1.9 2.5-3.5 5.5-3.5 6.3-2 6-20.5 4-29-3.3-69-10.5-104.8-19.1l-15.2-3.6 5.6-10.4 5.6-10.4-4.4-2c-2.3-1.1-4.8-2-5.5-2-.6 0-3.5 4.6-6.5 10.1-2.9 5.6-5.9 10.4-6.6 10.7-1.3.5-31.1-7.2-48.7-12.6l-72.8-23.1c-17.4-5.8-17.7-5.9-15.7-3.3zm486.3 23.3c-11.7 4.5-20.3 17.7-21.1 32.4-.5 9.7 1.8 16.7 7.7 23.5 4.5 5.3 4.5 5.3 12.2-5.2l5.2-6.9-2.3-2.3c-6.5-7-1.5-20.6 7.6-20.6 4.4 0 29.4 8.7 31.9 11.1 1.5 1.5 2 3.3 2 7.2 0 6.7-3 11.2-8.6 12.8l-3.9 1.2v20l5.4-.6c13.4-1.4 23.9-12.1 27.2-27.8 2.8-13.5-1.3-25.9-10.6-32.4-5.5-3.8-37.3-14.5-43-14.4-2.5 0-6.8.9-9.7 2zm-596.2 21.6c-2.7 5.3-23.7 43.5-29 52.8l-4.9 8.5c-1.4 2.5-5.4 9.3-8.9 15.1l-6.3 11.3c0 .3 2.9.6 6.4.6h6.4l9.5-16.3c10.3-17.6 30.8-54.3 36-64.5l3.2-6.4-3.9-3.4c-2.2-1.9-4.3-3.4-4.8-3.4-.4 0-2.1 2.6-3.7 5.7zm557.4 51.3c-2.5 4.9-4.5 9.4-4.5 10 0 .5 12.4 7 27.5 14.4 23.1 11.3 27.5 13.8 27.5 15.6 0 3.2-2.8 9.2-5.7 12.2-5.1 5.3-6 5.1-34-8.6l-25.8-12.4c-.6.7-9.5 18.8-9.5 19.4 0 .7 49.1 24.7 53.9 26.3 10.6 3.5 24.1-.9 31.3-10.4 2.3-3 4.7-7.9 6-12 1.1-3.9 2.2-7.1 2.3-7.3.2-.2 5.2 2.1 11.1 5.1 6 3 12.6 6.2 14.7 7l3.7 1.6 5-10 5-9.9-20.2-9.9-51.4-24.9-31.7-15.2c-.4 0-2.7 4-5.2 9zm-401.1 76.2c-21.4 25.4-42.6 47.2-67.9 70-9.8 8.8-16.1 13.8-17.5 13.8-.8 0-12.5-3.3-25.9-7.4l-24.3-7.4-10.7 2.6-10.6 2.6 15 4.8 30.7 9.4 15.7 4.7-5.7 4.5c-40.6 31.5-92.6 59.2-134.7 71.6-29.8 8.8-50.6 11.9-78.5 11.9h-19.5l-11-3.6-15.9-5.3-4.8-1.7 5.3-3c15.5-8.8 39.3-30 60.4-53.7 9.9-11.2 27.7-33.2 34.2-42.3l3.3-4.5-6-1.5-6-1.5-4.7 6.2c-25.8 33.9-53.5 63.2-74.5 78.9-9.7 7.2-23.6 14.7-27.2 14.7-2.2 0-13.4-4.5-26.2-10.4-6.4-3-7.2-3.7-8.6-7.7-5.3-14.5-6.8-26.2-6.8-53.7V1179h-10.7l-.7 5.2c-1.7 14.8-.2 45.8 3 59.7.8 3.5 1.2 6.6 1 6.9-.3.3-6.9-3-14.6-7.3-13.1-7.3-14.8-8.6-24.8-19-11.1-11.3-22.2-25.3-30.5-38.3l-4.7-7.2h-13.2l2.8 4.7c1.5 2.7 5.5 8.8 8.8 13.8 8.3 12.1 8.1 11.9 6.3 10.9-2.9-1.7-26.1-19.9-31.3-24.6l-5.2-4.8h-15.8l-15.9.1 5.5 5c93.9 85.3 208.7 135.5 337.1 147.5 21.7 2.1 72.3 2.3 93.4.5 111.6-9.5 211.9-47.1 299.1-112.4 12.6-9.3 39.5-31.5 40.7-33.4.3-.5-6.7-.7-15.4-.5l-16 .3-10.3 8.2c-22.9 18.1-34.8 26-41.6 27.5-13.3 3-37.1 4-55.5 2.3l-6.9-.6 15.4-11.6c15.3-11.5 43-34.6 43-35.9 0-.3-2.6-1.5-5.7-2.6l-5.7-2.1-12.1 10.2c-25.4 21.5-50.6 39.5-55.1 39.5-3.8 0-33-5.1-51.4-8.9-25.9-5.4-61.1-14.1-60.9-15.1 0-.3 4.3-4.1 9.4-8.5 10.4-8.9 47.4-45.9 57.6-57.5l14.8-17.3 8.2-9.8-3.2-4.4c-1.8-2.5-3.5-4.5-3.9-4.5-.3 0-6 6.4-12.6 14.2zm-50.1 105.4c21.9 5.5 50.6 11.7 65.2 14 6.1.9 11.6 2 12.3 2.3 3.3 1.8-52.8 31.1-80.3 42-40.7 16.2-79.9 26.5-122.5 32.2-19.3 2.5-67.9 3.8-81 2-11.6-1.5-32.1-5.4-31.6-5.9.3-.2 2.2-.6 4.3-.9 26-3.1 59.6-12.3 88.3-24.3 31-12.9 68.8-35.3 101.2-60l12.8-9.7 6.7 1.9 24.6 6.4zm134.2 21.3 21 .6-11 6.1c-61.2 34.1-124.4 55.4-194.5 65.3-10.9 1.6-36 4.1-39.5 4-3.1-.1-3.2 0 20.5-5.5 20.1-4.6 57.6-16.7 72.6-23.5 2.2-1 6.5-2.7 9.4-3.9 17-6.7 51.3-24.7 71.5-37.5l12-7.6 8.5.7c4.7.4 18 .9 29.5 1.3zm258-87.1c-17.5 6-31.1 22.3-33.5 40.1-.6 4.1-.8 9-.5 11 1.3 7.5 2.7 13.2 3.5 12.9.4-.2 5.3-2.1 10.9-4.3l10.1-4-.7-3c-4.1-15.9 11.7-35.2 24.9-30.4 4.7 1.7 37.3 28 39.9 32.3 1.6 2.4 1.9 4.3 1.5 8.2-.5 6.3-2.5 10.3-7.4 15.2-4.8 4.8-9.9 7.2-16.6 7.9l-5.3.5-1.7 10c-1 5.5-1.5 10.2-1.3 10.5.3.2 3.2.7 6.5 1 15.3 1.4 32.6-7.9 41.2-22.3 9.8-16.4 10.5-32.7 1.9-45.7-4.4-6.7-42.1-36.9-49.5-39.7-6.8-2.5-17-2.6-23.9-.2zm-65 70.5c-7 2.4-12.1 5.5-16.9 10.3-6.9 6.8-9.8 13.3-10.4 22.5-.2 4.2 0 7.9.4 8.2.5.3 3.2.1 5.9-.4l8.2-1.4c2.8-.5 3.2-1 3.8-4.6.4-2.4 2-5.5 3.8-7.5 6-6.9 12.4-8.2 17.7-3.7l3.2 2.7-16.3 15.6-16.3 15.6 9.8 10.1c12 12.6 16.9 15.3 27 15.3 15.9 0 30.9-12.3 35.1-28.9 1.9-7.1 1.4-12.4-1.8-18.6-3.1-6.3-25.6-29.6-31.7-32.9-6.2-3.4-15.3-4.3-21.5-2.3zm30.9 42.7c2.3 2.6 3.6 5 3.6 6.8 0 5.8-7.8 13.2-13.9 13.2-1.2 0-4.1-1.8-6.4-4l-4.2-3.9 8-8.1c4.4-4.4 8.2-8 8.6-8s2.3 1.8 4.3 4zm-91.5 9.3c-4.7 3.4-8.6 6.6-8.7 7.2-.1.5 8 12.2 17.9 25.9 10 13.8 18.4 25.8 18.7 26.8.6 2.5-5.8 8.4-10.7 9.9-7 2.1-8.8.4-27.6-25.6-9.3-12.9-17.3-23.5-17.6-23.5s-4.4 2.8-9.2 6.3l-8.7 6.4 17.5 24c9.6 13.2 19.3 25.7 21.7 27.7 2.4 2.1 6.6 4.4 9.8 5.3 10.9 3.2 25.2-1.7 37.3-12.7 5.8-5.3 14.7-16.8 14.7-19 0-.5-42.3-59.5-46.4-64.7-.1-.1-4 2.6-8.7 6zm-73.5 50.6c-4.6 1.2-12.9 5.9-16.2 9.5l-3.1 3.1 3.8 6.3 4.3 6.8c.3.2 2.2-.5 4.2-1.7 4.7-2.8 9.8-2.9 13.3-.2 2.4 1.7 20.2 29.5 20.3 31.6 0 .4-2.1 2-4.6 3.5-8.3 4.9-8.2 3.7-1.8 14.4l5.8 9.6 6.3-3.9 6.3-3.9 3.4 5.3c1.8 2.8 5.2 8.5 7.6 12.5 2.3 4 4.6 7.5 5.1 7.8.7.4 15.9-7.9 18.8-10.3.2-.1-10.2-18-23.2-39.7-24.3-40.3-28.4-45.9-36-49.1-4.4-1.8-10.6-2.5-14.3-1.6zm-50 26.5c-8.3 1.9-13.8 4.9-19.3 10.4-5 5-7.9 10.2-8.8 15.7l-.5 3.3 5.8 1.2 8.6 1.6c2.2.4 2.9 0 4.1-2.3 3.3-6.3 11.5-10.9 17.3-9.8 3.2.6 8.4 5.4 8.4 7.8 0 .7-8.7 5.2-19.2 10.1l-20 9.5c-1 .9 9.4 22.7 13.3 28 2 2.7 5.4 5.5 8.4 7.1 4.2 2.1 6.3 2.5 14 2.5 8 0 9.7-.3 15.7-3.2 13.6-6.4 21.3-17.1 21.2-29.4 0-6.1-.6-7.8-8.4-24.3-7.1-15-9.1-18.4-13.1-22-7.2-6.5-16.7-8.6-27.5-6.2zm25.5 49.5c1.5 3.7 1.9 5.6 1.2 7.4-1.3 3.5-6.6 7.5-10.8 8.3-5.5 1-8.5-.5-11.5-6.1l-2.8-5 9.8-4.7c5.3-2.6 10.2-4.7 10.8-4.7.6-.1 2.1 2.1 3.3 4.8zm-87.9-22.8-9.7 3.4c-.9.3 1.4 8.1 7.7 26.6 5 14.5 9 27.8 9 29.6 0 4.5-5.8 10.9-11.4 12.5-2.2.6-4.5 1.5-5 1.9-.4.4.4 4.4 1.9 8.8l2.7 8.2 3.6-.7c13.4-2.4 23.5-9.2 28.5-19.3 1.7-3.6 2.2-6.2 2.1-12.1 0-6.8-.9-10-9.5-34.4-5.2-14.8-9.8-27.1-10.4-27.2-.5-.1-4.8 1.1-9.5 2.7z"/></svg>