<svg xmlns="http://www.w3.org/2000/svg" width="1000" height="1000"><path fill="rgba(255,255,255,0)" d="M0 0h1000v1000H0z"/><path d="M29.497 363.827v272.332H301.57V363.827H29.497zm300.078 0v272.332H973.15V363.827H329.575z" fill="#00509b"/><path d="M209.594 396.712c-.766.298-1.285 1.285-1.285 1.285s.032-.02 0 .514c-.032.525.072.658 1.027 1.285s1.059 1.234 1.285 3.083c.236 1.84-1.376 2.507-1.541 3.597s.216 2.405 1.541 2.312c1.315-.103 1.943-1.285 2.312-2.57.36-1.285 1.736-1.788 2.826-2.312 1.089-.534 2.118-1.511 2.056-2.826-.072-1.315-.504-.822-3.34-2.312-2.837-1.48-2.694-1.726-4.112-2.056-.354-.081-.516-.1-.77 0zm169.564 0v49.328h26.206v-5.91h-19.012v-43.418h-7.194zm67.313 0v7.194h7.708v-7.194h-7.708zm17.727 0v35.198c0 4.286.34 14.9 13.103 14.9 9.845 0 13.873-6.987 13.873-17.47 0-8.92-2.147-18.242-11.561-18.242-5.427 0-8.211 3.536-8.992 5.395v-19.78h-6.423zm74.248 0v7.194h7.708v-7.194h-7.708zm-356.086 1.285c-1.573-.33-3.597 2.57-3.597 2.57l-.257.514c-.473.505-1.285 1.542-1.285 1.542s-.081 1.253-.514 2.312c-.812 1.972-.01 2.888.256 4.367.032.771.133 2.394 0 4.368-.133 1.984-1.984 4.666-3.853 4.624-1.933-.042-2.785.38-3.34 2.57-.36 1.398.05 2.25.514 3.597.298.842.256 1.748.256 2.312 0 1.45-1.675 3.504-2.056 5.395-.43 2.085-.874 3.801-1.797 5.652-.914 1.85.174 3.258.256 4.624v10.791c.02 2.086 1.346 2.807 2.312 3.854.699.77 1.8 1.54 1.798 1.54 3.545.823 4.202-.667 4.367-2.055.123-1.47.628-2.445 1.542-3.082 2.137-1.46-.515-5.91-.515-5.91s-1.531-2.383-1.797-4.623 2.661-3.063 3.34-3.597c2.519-1.973 2.95-2.908 2.827-4.624-.124-1.603 2.548-7.862 2.57-8.992l.256-12.332c.031-.668.256-.956.256-1.027 0-1.017-.483-1.994-.514-2.827-2.046-2.96 1.336-5.446 1.285-7.964-.02-1.47-.73-3.268-2.312-3.597zm75.533 4.882c-1.174-.012-2.24.34-3.083 1.027-3.114 2.548-1.285 4.111-1.285 4.111s.155.247.257.771c.103.504.164 2.056.256 3.853.401 2.17.256 3.854.256 3.854-1.583.864-2.743 1.47-3.853 3.34-1.172 1.994-1.325 2.148-1.541 3.597a21.489 21.489 0 0 0-.257 2.827c-.071 2.435 1.182 2.59 1.027 4.111-.185 1.736-1.398 2.723-1.797 3.853-.268 1.798-.525 2.16-1.027 3.083-.71 1.305-1.14 3.627 0 4.882.822.904.657 2.908.514 5.138-.143 2.22.637 3.238 1.027 3.597s1.305.165 1.541 1.542c.093.575 1.49 2.959 4.882 2.826.822-.032 1.726-.75 2.57-1.541.77-.72 1.48-1.625 1.542-2.827.071-1.47-.606-2.024-1.027-2.57-.34-.42-.988-.576-1.285-2.57-.205-1.325-1.285-2.57-1.285-2.57v-8.479c-.072-.719 1.285-2.826 1.285-2.826v-3.597c.216-.852.863-1.511 1.797-2.312.76-1.45.658-2.765.515-4.111-.134-1.182.615-1.748 1.027-2.827.277-.75.256-1.593.256-3.34-.01-1.891.246-1.923 2.056-4.368.802-2.651.945-5.754-.515-6.936-1.403-1.135-2.681-1.53-3.853-1.541zM424.63 411.1c-4.348 0-13.874 1.635-13.874 16.186 0 13.339 6.68 19.526 16.956 19.526 3.71 0 5.693-.638 8.48-1.285v-5.138c-1.5.504-3.494 1.285-6.424 1.285-9.28 0-12.588-8.807-12.588-15.159h19.782v-1.798c0-7.984-4.06-13.617-12.332-13.617zm93.26 0c-6.916 0-9.649 5.365-10.79 8.221v-7.45h-6.42v34.17h6.424v-14.644c0-6.783 3.71-13.874 8.992-13.874 4.635 0 4.624 3.484 4.624 9.763v18.755h6.423v-23.636c0-4.203-1.398-11.303-9.25-11.303zm-70.651.77v34.171h6.423v-34.17h-6.423zm91.719 0v34.171h6.423v-34.17h-6.423zm16.442 0v5.139h15.415l-16.442 23.894v5.138h24.92v-5.138h-17.212l16.442-24.15v-4.882H555.4zm-131.028 4.368c4.922 0 6.165 3.772 6.165 5.91h-12.846c0-1.49 1.408-5.91 6.68-5.91zm53.439 0c5.354 0 6.165 7.923 6.165 12.847 0 6.278-1.305 12.589-6.936 12.589-6.279 0-6.423-7.564-6.423-12.847 0-4.636 1.91-12.589 7.194-12.589zm-266.936 5.653c-1.134-.032-1.798.77-1.798.77s-1.007.813-.514 1.798c.472.946.606.987.77 2.57.165 1.573.803.207 1.027 2.056.237 1.84-.729 1.645-1.027 2.57s-.133 4.368 1.285 4.111c1.419-.268.997-3.658.771-5.138-.226-1.49.586-2.856 1.541-4.111s1.11-3.021-.77-4.112c-.468-.273-.907-.502-1.285-.514zm-33.656 1.798h.256c0 .143.236.554-.256.77.02.185.051.741-.771 1.027.02-.093-.226-.852.256-1.027 0-.174.052-.534.515-.77zm31.6 19.012c-.867.417-.77 1.799-.77 1.797v1.027c-.032.525.524.894 1.284 1.285.761.401 1.059 1.645 1.027 2.312-.031.658 1.665 2.878 3.083 1.798s-.955-4.183-1.541-4.882c-.596-.69.216-2.805-1.798-3.34-.504-.132-.995-.14-1.285 0zm.77 7.708c-2.013-.298-1.54 2.826-1.54 2.826v4.368c.031 1.315 1.644 1.573 2.57 1.541.913-.031.78.852.514 1.285s-.38.473-.515 2.312c-.123 1.85-1.684 2.723-2.312 3.083s-.256 3.587-.256 5.394-1.223 2.322-1.285 3.341c-.071 1.027 1.089 1.83 1.541 1.798.463-.032 1.162-1.357 1.027-2.056-.133-.689 1.387-2.743 2.57-3.597s.977-2.518.515-3.34c-.463-.833-.77-.483-.77-1.798s1.252-1.86 1.284-2.826c.032-.956 1.182-1.83 1.285-3.083.093-1.254-1.758-2.62-2.312-3.083-.566-.463.256-1.295-.77-2.312-1.018-1.027-.71-.935-.771-2.312-.072-1.386-.77-1.541-.77-1.541zm57.036 19.012c-.492.195-1.438.226-2.055.256-1.387.072-3.114.832-5.653 1.027-2.538.205-2.497.658-3.597 1.285-1.12.616-2.199 1.224-4.111 1.285-1.911.072-1.007.802-3.597 1.027-2.682.246-5.333 3.35-5.91 4.368-.688 1.243-.122 3.885-.513 4.624-.586 1.088-.7 1.932-.771 3.082-.062 1.15.647 1.891 1.027 3.083.441 1.438.719 2.096 1.541 2.826.823.72.576.606.77 3.083.206 2.467 1.799 3.083 1.799 3.083s2.363-1.923 2.57-3.083c.071-.453 2.055-2.57 2.055-2.57-.627-1.12-1.9-4.028-.514-4.882s.77-3.083.77-3.083-.266-.832 0-2.312c.257-1.49 2.58-1.674 3.341-1.797.76-.133 4.747-1.027 6.166-1.027 1.408 0 1.263 1.994 1.285 2.57.02 1.027.379 2.836.514 4.882.123 2.045-1.623 1.686-3.083 2.312-1.45.627-.925 2.518-1.285 3.34-.185.421-1.48.741-2.57.515-1.088-.237-.554 4.788-.514 5.909.032.79-.648.729-1.798.77-1.15.032-1.285 1.027-1.285 1.027s-.729 2.559-1.027 3.083c-.278.473-2.034 4.07-2.312 4.368-.709.79-4.336 3.648-4.367 4.111s-2.765 3.627-4.112 3.597c-1.11-.02-2.322 4.296-3.082 4.368-2.138.204-1.8 1.797-1.798 1.797s-.082 2.322 1.798 1.798c1.88-.534 2.826-.256 2.826-.256s2.528.997 5.138 1.027c2.22.02 4.882 1.027 4.882 1.027s2.94.822 3.854.256c.44-.268 3.823-.103 6.936-.256 1.51.33 4.675-.72 5.394-.771 1.645-.133 1.357-.77 2.056-.77.689 0 1.223.667 2.312.77 1.088.093 1.83-1.059 2.055-2.056.237-.987 4.892-1.603 5.653-1.541.76.071 1.984-.032 2.312-1.285s-.874-1.788-1.798-2.57c-.913-.79-.863-1.438-1.027-2.826s-1.49-1.48-2.055-1.542c-.554-.071-3.083.463-3.34 1.027-.104.227-.34.68-.772.77-.647.134-1.376-.255-1.54-.513-.269-.431-4.964.935-7.195.514-.081.195-5.21.298-4.624.77.802.638-.226 2.795-1.285 2.827-1.048.042-2.024-.874-2.055-2.056-.032-1.192-.638-.647-1.285-1.027-1.244-.74-.392-1.972 0-2.826s1.88-.165 2.312-1.027c.35-.72.615-1.13.256-1.285-.33-.143-.586-.032-1.027-.256 0 0 .874-.34 1.541-1.027.77-.791 1.234-2.066 2.056-2.827 1.14-1.038 2.96-4.707 4.111-5.652 1.377-1.14 2.682-4.594 3.083-4.882.566-.391.637-1.202.77-3.341s.668-2.652 2.312-3.083c1.655-.43 1.09-1.716 1.285-3.597a3.429 3.429 0 0 1 .771-1.797c.473-.535.514-3.597.514-3.597 1.08-.678.545-2.292.515-3.083s-1.275-1.182-1.798-3.083c-.195-.677-.38-1.984-.514-3.34-.133-1.347-1.82-1.748-2.312-1.542zm112.02 6.421v34.684c0 10.554 7.142 15.158 16.7 15.158 9.639 0 16.7-4.604 16.7-15.158v-34.684h-7.194v33.142c0 3.639-.062 11.048-9.763 11.048-9.424 0-9.25-7.41-9.25-11.048v-33.142h-7.193zm79.386 0v7.194h7.709v-7.194h-7.709zm137.708 0v7.194h7.708v-7.194h-7.708zm44.96.515v7.964h8.735v-7.964H640.7zm14.9 0v7.964h8.735v-7.964H655.6zm-398.22 1.285c.143-.02.79-.123.77 0-.01.133 0 .33-.77.77 0 0-.143.082 0-.77zM624 479.183l-6.424 3.853v7.965h-6.165v5.138h6.165v21.324c0 4.646 2.076 8.221 10.277 8.221a22.071 22.071 0 0 0 4.882-.514v-4.882a12.034 12.034 0 0 1-3.34.514c-4.996 0-5.395-3.607-5.395-6.68V496.14h9.506v-5.138H624v-11.818zm60.118 0-6.423 3.853v7.965h-5.91v5.138h5.91v21.324c0 4.646 2.075 8.221 10.276 8.221 1.716 0 3.494-.155 5.139-.514v-4.882a12.034 12.034 0 0 1-3.341.514c-4.995 0-5.653-3.607-5.653-6.68V496.14h9.506v-5.138h-9.506v-11.818zm-435.473.77c.245-.003.51.077.514.257.01.36.032.71-.77 1.027-.094.226-.402.113-1.027 0l-.257-.256c.093-.257.453.071 1.027-.77.042.004.268-.256.515-.257zm-41.877 1.286c-.894-.237-1.027 1.541-1.027 1.541a1.864 1.864 0 0 0 1.027 1.285c.884.421 1.14.493 1.797-.256.658-.76-.061-1.788-.256-2.056-.195-.256-.657-.288-1.541-.514zm-21.324.77c-1.763.298-1.798 1.285-1.798 1.285s.165 1.1.515 2.312c.093.288 1.48 2.2 2.055 2.312 2.312.453 3.083 1.85 3.083 3.597s-1.027 2.004-1.798 2.827c-.02.113-.256 5.394-.256 5.394-1.86 2.519-1.202 4.306-1.285 7.45-.093 3.135-3.39 2.992-5.91 3.083-1.243.042-3.02 1.254-4.623 2.312-1.603 1.079-3.196 2.25-5.395 1.285-1.541-.677-2.457-2.681-3.082-4.367-.134-1.007-.094-2.128 0-3.083.288-2.846 1.54-4.624 1.54-4.624s1.685-3.73 2.827-4.111c2.107-.71 3.34-2.57 3.34-2.57 3.864-1.214 5.22-4.306 4.883-7.194-.237-1.973-1.275-3.762-2.056-4.368-1.531-1.172-7.389 2.354-9.506 3.34-1.376.463-2.373.577-3.082 2.313-.926 2.302-2.57 2.693-2.827 4.367-.43 2.857-2.693 4.203-3.853 5.395-1.089 1.13-1.726 1.994-.514 4.624 1.213 2.61-1.46 6.844-2.312 8.221s-2.16 4.378 4.624 10.02c6.782 5.653 8.826 5.232 14.13 4.882s10.153-8.55 12.332-9.25 3.514-2.528 3.34-5.652 2.477-4.4 2.827-7.194c.35-2.785-1.192-3.669-1.285-4.624-.082-.955.34-1.089.77-2.312.442-1.223.01-3.063-.256-4.368-.256-1.315-.185-1.078.514-2.826.7-1.736 0-4.368 0-4.368s-.204-3.587-4.367-4.11c-1.044-.13-1.98-.1-2.57 0zm79.386 2.056a1.748 1.748 0 0 1 1.798 1.798c-.002 1.027-.77 2.055-1.798 2.055s-1.797-1.027-1.797-2.055a1.748 1.748 0 0 1 1.797-1.798zm-150.04.514c-2.573.51-2.57 3.854-2.57 3.854s-1.284 2.004-.77 3.082c.524 1.11.514.976.514 3.083s.195 1.285.515 2.056c.318.76 0 1.285 0 1.285-1.182 0-2.004.802-2.056 2.055-1.058.237-1.027 2.056-1.027 2.056s-.123 5.015 0 6.165c.133 1.15-1.027.648-1.027 2.312s.77 2.056.77 2.056v3.34c0 .648.36 1.09.515 1.542.278.79.544 1.541 1.027 1.541.77 0 .514 1.027.514 1.027v4.112c.052 2.877 1.623 4.882 4.624 4.882 3.012 0 2.312-5.21 2.312-6.166s1.45-1.511 1.285-2.826v-6.68s.308-3.853-1.285-3.853c-1.602 0-2.826 1.798-2.826 1.798h-1.285s-.185-3.474 1.285-3.597c1.47-.134 2.507-.134 2.826-2.056.318-1.91-.524-3.484-1.797-5.395-1.285-1.91-.257-2.826-.257-2.826 2.888-1.85 3.083-4.624 3.083-4.624s.554-2.868-1.027-5.653c-.441-1.398-.884-2.425-2.056-2.57-.474-.056-.917-.073-1.285 0zm92.748 2.827c-2.405.627-2.57 3.082-2.57 3.082l-.256.515c0 .226.431.544 2.056.77 1.613.237-.75 2.991 1.027 2.827s.874 1.336 1.797.77c.914-.566 1.027-2.055 1.027-2.055s-.667-6.537-3.082-5.91zm231.482 2.826c-6.916 0-9.649 5.107-10.79 7.965l-.257-7.194h-6.423v33.912h6.423v-14.388c0-6.783 3.71-13.873 8.992-13.873 4.634 0 4.624 3.483 4.624 9.762v18.498h6.423v-23.38c0-4.203-1.14-11.304-8.992-11.304zm82.728 0c-4.348 0-13.874 1.635-13.874 16.186 0 13.339 6.433 19.268 16.7 19.268 3.71 0 5.704-.38 8.479-1.027v-5.138c-1.5.492-3.494 1.285-6.423 1.285-9.27 0-12.333-8.807-12.333-15.159h19.527v-1.798c0-7.984-3.792-13.617-12.075-13.617zm38.538 0c-6.7 0-9.351 4.995-10.277 7.708l-.256-6.936h-6.423v33.913h6.423v-14.388c0-10.42 4.759-13.36 10.533-13.36v-6.935zm17.727 0c-7.061 0-12.074 3.37-12.074 9.506 0 4.995 3.617 7.327 6.68 9.25l3.34 2.055c2.282 1.49 5.394 2.827 5.394 5.395 0 3.494-3.874 4.368-6.935 4.368-3.566 0-7.842-1.768-8.48-2.056v5.653c1.5.42 4.358 1.285 8.992 1.285 7.635 0 12.847-3.145 12.847-10.277 0-5.643-4.388-7.81-7.965-10.02l-2.57-1.542c-2.22-1.356-4.882-2.518-4.882-4.882 0-2.137 2.61-3.597 5.395-3.597 3.71 0 7.039 1.367 7.964 1.798v-5.653c-1.644-.278-4.286-1.285-7.708-1.285zm75.019 0c-9.486 0-12.847 4.86-12.847 10.277h6.68c0-2.713 1.81-5.139 5.653-5.139 2.435 0 4.572.833 5.138 4.112v6.165c-8.632 0-18.498 2.056-18.498 11.047 0 5.282 3.166 8.992 9.506 8.992 5.21 0 7.882-3.031 8.735-4.882l.257 4.111h6.423v-23.123c0-3.063.082-11.562-11.047-11.562zm-194.485.77v33.913h6.423v-33.914h-6.423zm14.388 0 12.846 33.913h6.424l11.817-33.912h-7.193l-7.965 24.664-8.992-24.664h-6.936zm123.32 0v33.913h6.422v-33.914h-6.423zm-76.82 4.368c.547-.126 1.14 0 1.798 0 4.922 0 6.166 3.762 6.166 5.91h-12.847c0-1.314 1.055-5.027 4.882-5.91zm-261.797 6.68c.37.02.401-.072.77.514.042.155.094 1.315-.513 1.027-.042-.216-.155-.41-.515-.77 0 0-.103-.791.257-.771zm-51.127 1.027c-.842.195-1.161.965-1.54 1.798-.762.945-1.111 1.285-1.028 2.57 0 0 .093 1.15 1.027 1.797a3.28 3.28 0 0 1 1.285 2.827c-.103 1.027-1.263 1.418-1.798 2.57-.524 1.15-1.253 2.693-2.055 3.853-.926 1.356-.678 1.92-.77 3.597-.094 1.664-.03 3.607 0 4.368.06 1.51.164 1.305 1.026 2.055.852.76.256 2.827.256 2.827l-.256 6.68c-.093 2.373.504 2.065 1.285 3.082.802 1.027 1.613 1.418 2.57 1.027.955-.401.79-2.549.256-3.34-.524-.791-.492-5.55-.256-8.222.226-2.671.391-1.593 1.285-3.34.884-1.748-.113-4.882-.77-5.91-.678-1.078-.771-1.797-.771-1.797 1.058-1.223 1.027-4.368 1.027-4.368 1.736-1.366 1.541-2.57 1.541-2.57.165-4.542 1.263-.4.77-4.882-.174-1.541-1.356-1.521-1.54-3.082-.668-1.81-1.542-1.542-1.542-1.542zm449.861 6.68h1.285v2.055c0 3.998-3.289 8.992-7.708 8.992-1.932 0-3.853-1.726-3.853-4.368 0-4.347 5.21-6.68 10.276-6.68zm-399.76 33.656c-1.769.155-2.6 1.346-2.57 2.055.03.72-4.348 5.355-5.14 5.653-.142.052-1.078 1.017-1.54 1.541-.884 1.007-4.336 3.041-4.624 4.624-.082.473-1.542 5.139-1.542 5.139-.143.965-3.267 5.015-3.853 5.909-.493.76-1.541 4.274-3.597 4.624-2.046.34-3.257 2.004-3.853 2.57-.586.554-.205 4.1-1.798 5.652-1.182 1.15-1.027 2.24-1.027 3.854s1.039 2.826 2.312 2.826 1.85-1.1 2.57-1.285c.709-.185 1.541 1.82 1.798 2.57.246.74 4.634-.473 5.652-1.027s3.762-1.253 4.624-1.285c.535-.02 1.84.113 2.312.514.823.7 1.254 2.61 2.57 3.341 1.11.616.997.79 1.027 1.541.032.741-1.696.257-2.312.257-.627 0-.894 3.247-1.285 4.11-.256.567-1.561 2.766-2.312 2.827-.74.062-.544 4.594-.514 4.624.832.668 4.892 4.717 6.165 4.624 1.264-.093 2.723 1.891 3.597 1.798.864-.093.77-1.027.77-1.027s-.02-3.74.257-4.368c.288-.616 1.027-2.065 1.027-3.082 0-1.027.78-1.49 1.027-2.056.247-.554.032-7.122 0-8.735s1.315-2.446 1.285-3.341 1.726-1.223 2.312-.77c.638.482.638.863 1.027 1.284.894-.081 2.662.082 3.34-.256.915-.463 5.54-.628 5.91-1.285.37-.648.155-.648 1.797-.77 1.655-.124 1.82-6.023 1.542-7.195-.268-1.181-3.627-.77-4.368-.77-.75 0-.884.554-1.285.77-.411.217.606 2.024-.514 2.056-1.11.032-.802-.514-.77-1.285.03-.78-.269-1.14-.772-1.541-.492-.401-1.962.01-2.055.256s-.648.544-1.798.514-.709-.79-.77-1.285c-.062-.504.226-2.528 1.027-3.082.812-.566.031-2.827.256-4.624s.627-1.933 1.027-3.083.503-1.972 1.027-2.312c1.027-.657 1.285-3.083 1.285-3.083s.37-2.94-.257-3.34c-.615-.411-.77-.576-.77-1.285 0-.72.606-.473.514-2.056s-2.024-1.418-2.826-1.541c-.812-.123-.852-.638-2.312-1.542-.936-.575-1.655-2.887-1.027-3.34 1.428-1.039 2.199-3.452 1.541-3.854-.576-.369-1.078-.35-1.797-.514-.73-.165-1.429-.596-2.312-.514zm-51.898 1.285c-1.512.463-1.542 2.312-1.542 2.312l.257.514c.596.227.38 1.778 1.541 1.541 1.15-.226 1.726-1.859 2.056-3.082s-.79-1.748-2.312-1.285zm51.127 7.194c.326.098.452.51.514 1.285.123 1.551-.227 1.13-.256 3.34-.032 2.2-.042 7.184.514 7.709.554.534-.143 4.86-.514 5.138-.38.278-2.477 2.713-2.57 4.111s-.247 4.686-1.798 5.395-.874.739-2.056.77c-1.172.032-.997-.41-2.826-.256s-1.81-1.253-4.111-1.285c-2.292-.031-1.46.606-2.57.515-1.12-.104-.966-1.86-.257-1.798.72.062 2.312-2.733 3.083-3.083.78-.34 2.282-4.973 3.34-5.652 1.05-.678 3.598-6.783 3.598-7.965s-.114-2.373.256-2.57c.37-.185.719-.453 1.027-1.285a9.155 9.155 0 0 1 .77-1.541s.823-.69 1.542-1.027c.709-.34.34-1.448 1.027-1.542.34-.046.959-.354 1.285-.256zm123.319 3.082v49.072h7.194v-22.61h19.268v22.61h7.194v-49.073h-7.194v20.553h-19.268v-20.553h-7.194zm-177.273 3.341c-.45.46-.256 1.675-.256 1.798l.514 1.027c.268.492 1.563 1.428.515 2.055-1.059.628-.987 1.049-1.027 1.542s-.33 1.563-1.285 1.797c-.956.227-1.027 1.439-.77 1.798.267.36.677.965.77 2.312.103 1.357.492 2.127 1.285 2.056.79-.062 1.315-1.911 1.285-3.597s1.078-2.19 1.797-3.34c.73-1.163.082-2.807-.514-3.598s-.123-.401-.256-2.056c-.133-1.644-.195-1.634-1.285-1.797-.273-.042-.621-.153-.77 0zm-25.177.77c-.699.084-1.413.309-1.797.515-1.655.884-.042 2.846-3.083 3.083-3.011.226-1.45-1.162-3.853-1.027-2.128.113-2.158.79-3.341 2.57s-4.121 2.457-6.165 2.57c-1.748.103-3.689 2.59-4.624 3.597-.648.689-1.788 2.94-2.056 4.624-.205 1.275-.246 2.58-.256 2.826-.01.143-.062.38 0 1.027.174 1.768 1.285 5.909 1.285 5.909v2.57c-.771.278-2.086 1.202-2.312 2.312a14.871 14.871 0 0 0-.257 1.798c-.093 1.14.042 2.878.257 3.34.236.525 1.243 1.83 1.797 3.34.596 1.316 2.098 1.357 3.854 1.286 3.36-.133 4.542 2.681 5.138 3.34s1.275.978 1.798.257c.534-.73 1.438-.894 3.082-1.027 1.645-.123 2.632-.266 3.34-2.312.69-1.984 2.827-2.826 2.827-2.826s4.07-.853 5.91-4.882c.75-1.635 1.437-2.26 1.797-3.341.175-.79.832-.904.77-1.798-.297-4.141 1.286-5.652 1.286-5.652v-8.48a26.332 26.332 0 0 0 .77-2.826c1.027-1.521.77-3.853.77-3.853s-.297-2.98 0-3.083c.597-.194.823-.605.772-1.797-.032-.936-.978-.904-2.827-.77-1.84.122-1.418-.936-3.082-1.286-.51-.108-1.1-.083-1.798 0zm-104.822 1.028c-.657-.025-1.162.303-1.285.77-.246.936-1.797 2.312-1.797 2.312l-1.285 1.542c-.628.75.566 2.58-.771 4.111-1.12 1.285-.33 3.555-.77 6.423-.432 2.878-.988 2.396.256 5.653 1.253 3.247 1.048 3.7-.515 7.194-1.561 3.504-2.25 5.251-2.055 5.909.204.667.637 1.14.77 2.57.155 1.654 0 3.649 0 5.395 0 3.247-.081 4.347 2.312 6.423.411.36 1.172.071 1.798.256a12.284 12.284 0 0 1 2.312 1.027c4.562-.812 10.235-7.472 10.277-9.506.071-3.062-2.817-3.082-4.882-3.082s-2.322.204-2.827-2.056c-.504-2.24 1.49-3.833 2.056-5.138.554-1.315-.73-2.457-1.798-2.827-1.058-.38-.514-2.312-.514-2.312s1.85-2.548 1.541-6.68c-.318-4.12.977-4.82 1.542-4.881.566-.072 1.747-4.666 0-5.91-2.446-1.715-2.704-4.798-2.827-6.165-.061-.689-.884-1.003-1.541-1.027zm41.621 3.597c-2.878 0-11.057 2.898-11.561 5.394-.493 2.497-.648 3.228-3.083 3.854-2.445.616-2.312 3.597-2.312 3.597l-.514 1.285c-.751.627-.71 1.201-.771 3.082-.062 1.871-.77 2.056-.77 2.056-.072 1.583-.206 3.196-.515 4.368-.236.945-.802 1.706-1.027 2.055-.256.411-.042 4.954.514 5.139.566.194.916 1.068 1.285 2.826.38 1.748 1.798 2.056 1.798 2.056s2.22.164 3.34 1.797c1.13 1.623 3.74 1.347 6.68 1.285 2.93-.061 3.752-.699 4.624-2.57s2.652-1.634 5.653-1.541c2.333.071 3.936-1.521 5.394-4.624.308-.678-.051-.945.515-1.798.997-1.531 2.61-1.952 3.34-3.34 0 0-.35-5.282-.256-5.395 1.017-1.295 1.696-5.806 2.57-6.68s1.521-4.121.77-4.624-.615-3.627-.256-4.11c.864-1.163.946-3.352-2.055-3.854-3.001-.493-4.666 1.859-6.424 1.797-1.747-.061-3.02-2.055-6.936-2.055zm-2.57 5.394c1.179-.374 2.615-.264 3.34.515 1.562 1.716.668 1.408 3.341 2.826s2.406 1.285 2.312 3.853c-.103 2.58.69 9.332-4.11 12.589-3.064 2.076-4.893 2.6-7.71 1.541-2.291-.864-3.874-1.14-4.367-1.797s-3.289-2.2-2.826-4.112 1.736-1.191 1.798-2.312c.071-1.12.093-3.513 1.54-4.111 1.45-.586 1.286-.77 1.286-.77s2.98-1.08 3.597-2.57c.627-1.48-.227-4.184.77-5.139.247-.24.635-.39 1.027-.514zm325.257.257c-9.486 0-12.847 4.85-12.847 10.276h6.68c0-2.713 1.797-5.394 5.652-5.394 2.426 0 4.573 1.078 5.139 4.367v5.91c-8.622 0-18.498 2.311-18.498 11.303 0 5.281 3.154 8.992 9.506 8.992 5.21 0 7.872-3.022 8.735-4.882l.257 4.11h6.423v-23.379c0-3.072.082-11.303-11.047-11.303zm39.309 0c-6.916 0-9.65 5.106-10.791 7.964v-7.194h-6.424v33.913h6.424v-14.388c0-6.783 3.72-13.874 8.991-13.874 4.646 0 4.624 3.484 4.624 9.763v18.497h6.424v-23.636c0-4.213-1.399-11.047-9.25-11.047zm38.538 0c-6.916 0-9.65 5.106-10.791 7.964l-.257-7.194h-6.423v33.913h6.423v-14.388c0-6.783 3.71-13.874 8.992-13.874 4.634 0 4.624 3.484 4.624 9.763v18.497h6.423v-23.636c0-4.213-1.14-11.047-8.991-11.047zm32.885 0c-10.276 0-14.9 6.886-14.9 17.727 0 10.697 4.624 17.727 14.9 17.727 10.195 0 14.9-7.03 14.9-17.727 0-10.843-4.706-17.727-14.9-17.727zm67.569 0c-4.348 0-13.874 1.634-13.874 16.185 0 13.34 6.68 19.269 16.957 19.269 3.71 0 5.692-.38 8.479-1.027v-5.139c-1.5.503-3.494 1.285-6.424 1.285-9.27 0-12.588-9.063-12.588-15.415h19.782v-1.541c0-7.985-4.05-13.617-12.332-13.617zm38.795 0c-6.7 0-9.61 4.995-10.533 7.708v-6.936h-6.424v33.913h6.424v-14.388c0-10.422 4.758-13.36 10.533-13.36v-6.936zm-88.38.77 12.846 33.913h6.68l11.818-33.913h-7.194l-7.965 24.665-8.991-24.665h-7.194zm-391.284 2.57c.987.155 1.736.421 2.055 1.027.74 1.377 0 3.597 0 3.597s-.679 1.563-1.797 2.312c-.791.535-.134 2.837-1.542 4.882-.596.853-1.398 1.224-2.826 1.798-1.224.493-1.81.987-2.312 1.285-1.48.852-.966.637-3.083.514-1.531-.093-3.37-1.275-4.624-2.826-.657-1.089-1.664-3.257-1.541-4.111.421-2.837 2.292-3.176 3.083-3.083.79.103 6.69.03 7.45-1.027s.77-1.285.77-1.285 1.13-3.577 4.368-3.083zm373.299 1.542c6.916 0 7.964 7.347 7.964 12.846 0 5.417-1.048 12.847-7.964 12.847-7.071 0-7.965-7.43-7.965-12.847 0-5.498.894-12.846 7.965-12.846zm67.312 0c4.922 0 6.165 4.028 6.165 6.165h-13.103c0-1.49 1.655-6.165 6.936-6.165zm-415.947 1.285c-1.408-.268-1.8 2.312-1.798 2.312s-.194.442-.256.77c-.071.33.483 2.569 1.541 2.57s1.83-1.962 2.056-3.082-.123-2.312-1.541-2.57zm241.244 13.359h1.285v1.798c0 3.988-3.289 9.25-7.708 9.25-1.932 0-3.853-1.727-3.853-4.368 0-4.348 5.21-6.68 10.276-6.68zm-281.325 3.853c.123.01.34 0 .77.77 0 0 .082.144-.77 0-.02-.142-.133-.79 0-.77zm42.906.77c-.48.034-1.079.299-1.542.515-.913.431.257 1.8.257 1.798s2.713 3.299 4.624 2.312-.68-3.29-1.798-4.111c-.56-.412-1.062-.548-1.541-.515zm49.585.257.257.257c-.167-.052-.169.16-.257.256.03-.165-.02-.514 0-.514zm-49.842 9.763c-1.418-.268-1.797 2.055-1.797 2.055l-.257 1.027c-.061.33.483 2.57 1.542 2.57 1.048 0 1.82-1.962 2.055-3.082.227-1.12-.123-2.312-1.54-2.57z" fill="#fff" fill-rule="evenodd"/></svg>