<svg xmlns="http://www.w3.org/2000/svg" width="88" height="88" fill="#0067a5" fill-rule="evenodd"><path d="m8.935 60.353-1.49-3.598.244-.102q.215.657.67.44l2.986-1.236q.45-.157.163-.783l.245-.102.942 2.276-.245.102q-.248-.67-.669-.44l-2.962 1.226q-.461.134-.22.579.434.91 1.909.73l.111.27-1.684.639zm3.488 2.379.922-1.254-1.53.227zm-2.102.197-.945-1.597.228-.135q.329.452 1.185.285l3.873-.535.175.297-2.577 3.558q-.32.344-.063.777l-.228.135-1.242-2.099.228-.135.135.228q.194.379.408.221a.6.6 0 0 0 .133-.139l.068-.041.486-.688-.756-1.279-.564.087q-.169-.023-.419.125-.275.162-.071.504l.175.297-.228.135zm5.545.683.205-.168 1.041 1.273-1.018 3.781.017.02 1.848-1.512q.382-.245-.043-.89l.205-.168 1.075 1.314-.205.168q-.482-.462-.797-.136l-2.996 2.453-.403-.493 1.145-4.296-.017-.021-2.237 1.831q-.44.258.156.901l-.205.168-1.159-1.416.205-.168q.396.567.769.227l2.504-2.049q.386-.282-.088-.82zm4.384 8.507-1.242 1.306-2.668-2.462.235-.253 4.506-1.286-.331-.306q-1.108-.95-2.01-.089l-.214-.198 1.136-1.152 2.512 2.319-.323.351-4.358 1.243q1.33 1.373 2.545.33l.214.198zm2.655 1.018 1.244.858.767-1.114q.294-.377-.225-.702l.151-.218 1.965 1.354-.151.219q-.575-.428-.801-.005l-1.836 2.663q-.33.385.29.747l-.15.218-1.965-1.354.15-.218q.472.39.737-.04l.902-1.31-1.244-.858-.902 1.31q-.33.384.224.702l-.151.218-1.942-1.338.151-.219q.514.419.78-.01l1.836-2.663q.292-.378-.268-.732l.15-.218 1.943 1.339-.15.218q-.509-.383-.736.04l-.768 1.114zm4.437 3.045q-.937 1.902.102 2.368.969.493 1.883-1.42.902-1.888-.077-2.357-1.029-.491-1.907 1.409zm-1.148-.549q1.128-1.868 3.191-1.147 1.81 1.13 1.088 3.193-1.153 1.856-3.145 1.11-1.88-1.103-1.134-3.156m5.673.091 2.284.69-.077.254q-.703-.24-.79.232l-.805 2.664q-.22.82.646 1.164 1.09.33 1.454-.779l.713-2.36q.18-.417-.558-.722l.077-.254 1.649.498-.076.254q-.69-.097-.763.324l-.697 2.31q-.43 1.42-2.129.908-1.642-.524-1.299-1.749l.774-2.563q.164-.45-.478-.615l.076-.254zm9.613 2.131 2.383.01v.264q-.741-.03-.69.448l-.011 2.781q.023.847.95.931 1.139.005 1.169-1.161l.009-2.462q.055-.45-.739-.532l.001-.264 1.722.006-.001.264q-.69.104-.637.527l-.01 2.41q-.006 1.483-1.78 1.477-1.721-.033-1.743-1.304l.01-2.675q.029-.477-.634-.454l.002-.264zm5.093.266-.038-.262 1.625-.238 2.714 2.818.026-.004-.344-2.36q-.013-.454-.784-.421l-.039-.262 1.678-.245.039.263q-.645.174-.527.611l.558 3.829-.629.092-3.09-3.191-.027.003.417 2.858q-.006.509.852.331l.038.262-1.809.263-.038-.262q.689-.047.59-.541l-.466-3.199q-.042-.475-.747-.346zm8.958 2.682-2.374.656-.071-.255q.678-.133.518-.611l-.859-3.115q-.102-.467-.759-.258l-.071-.255 2.375-.656.07.256q-.696.165-.518.61l.86 3.115q.084.5.758.258zm-.67-4.356-.1-.246 2.09-.844.099.246q-.614.249-.466.474-.128-.033 1.874 2.302l.025-.01-.012-.453-.126-2.436q-.139-.343-.655-.136l-.099-.245 1.426-.576.099.246q-.436.262-.396.646l.127 4.209-.516.209-2.649-3.161q-.322-.443-.72-.224zm7.78-4.066.881 1.42-.252.146q-.985-.963-2.053-.376-.54.281-.27.646l.663 1.148q.797-.369.521-1.219l.229-.133.941 1.63-.23.132q-.584-.642-1.316-.159l.782 1.354q.193.44.694.09 1.111-.672.741-2.111l.253-.146.842 1.564-3.719 2.147-.132-.229q.623-.299.348-.722l-1.616-2.8q-.215-.428-.8-.059l-.132-.23 3.626-2.094zm2.511-.965.905 1.144q1.01-.732.36-1.468-.585-.652-1.158-.267-.374.297-.107.592zm3.806.708.209-.164q.659.832-.112 1.441-.774.646-1.482-.249-.486-.528-.688-.571-.235-.084-.663.187l.872 1.102q.316.528.865.025l.164.207-1.892 1.499-.164-.209q.573-.387.24-.764l-2.008-2.537q-.274-.392-.799.058l-.164-.208 1.871-1.481q1.347-1.032 2.125-.092.67.89-.598 1.894l.016.021q.794-.493 1.561.05.747.559.773.335.162-.095-.126-.543zm1.753-.219-1.299-1.248.202-.209q1.402.796 2.154.012.587-.612.051-1.163-.306-.294-1.363.234-1.408.741-2.039.135-.995-1.029-.008-2.211.33-.344.833-.485a.6.6 0 0 0 .222-.117q.092-.058-.007-.374l.183-.191 1.166 1.119-.184.191q-1.23-.63-1.911.002-.493.59-.073 1.031.345.33 1.327-.195 1.464-.798 2.17-.12.921 1.03-.067 2.212a3.6 3.6 0 0 1-.923.693q-.204.06-.241.098-.092.096-.011.394l-.183.191zm4.842-5.602-1.498 1.961-.211-.161q.461-.516.045-.8l-2.572-1.963q-.363-.311-.761.253l-.21-.161 1.497-1.961.211.161q-.456.553-.044.801l2.571 1.965q.37.346.761-.254l.212.16zm-3.305-3.321 2.223-3.762 1.428.812-.162.274q-1.302-.4-1.814.466l3.124 1.846q.392.326.765-.409l.227.135-1.347 2.281-.228-.135q.463-.68.003-.891l-3.124-1.846q-.524.889.466 1.814l-.162.273-1.4-.858zm2.6-3.931-.244-.103.872-2.075.244.102q-.217.514-.011.57.073.031.299.04a.3.3 0 0 0 .094-.018l1.523-.136-.927-1.079a1 1 0 0 0-.3-.241q-.255-.078-.495.424l-.244-.102.667-1.588.244.103q-.173.618.152.869l1.451 1.673 1.123.472q.433.269.702-.509l.245.102-1.007 2.393-.244-.103q.368-.736-.118-.883l-1.147-.482-1.902.148q-.866.01-.98.421zM44 0c24.296 0 44 19.704 44 44S68.297 88 44 88 0 68.297 0 44 19.704 0 44 0m0 1.194c23.637 0 42.806 19.169 42.806 42.807S67.637 86.806 44 86.806 1.194 67.637 1.194 44 20.363 1.194 44 1.194m0 12.843c16.545 0 29.963 13.418 29.963 29.963S60.545 73.963 44 73.963 14.037 60.545 14.037 44 27.455 14.037 44 14.037m0 .813c16.096 0 29.15 13.054 29.15 29.15S60.097 73.151 44 73.151 14.85 60.097 14.85 44 27.904 14.85 44 14.85"/><path d="M66.779 44.027h2.36v-2.416h-2.36zm-23.134-20.59h.214v-.558h.283v.558h.213v.606h-.213v1.249l.158.487v1.622l.502.599v2.708h.681v5.078h.751v-.637h.8v2.958h10.929v-1.704h.613v.51h1.992v-.534h.611v1.727h8.606v11.525h-51.57V38.107h8.606V36.38h.611v.534h1.992v-.51h.613v1.704h10.929V35.15h.8v.637h.751v-5.078h.681V28l.502-.599v-1.622l.158-.487v-1.249h-.214v-.606zm22.354 22.772h3.139v-1.966h-3.139zm3.139.218H65.49v1.582h1.239v-1.187h.649v1.187h.52v.941h1.24zm-8.511-2.4h2.709v-2.416h-2.709zm0 2.182h3.604v-1.966h-3.604zm0 .218h4.189v1.582h-1.423v-1.187h-.745v1.187h-.398v.941h-1.623zm0-4.996h2.709v-2.088h-2.709zm5.55-2.066h-2.264v4.462h.709v1.886h.991v-1.886h.565zm-7.601-1.243h2.013v-.648h-2.013zm-.163 10.828h1.61v-9.937h-1.61zM46.01 42.422h.751v-1.174h-.751zm11.777-1.174h-.669v1.418h-.836v-1.418h-.751v1.418h-.836v-1.418h-.751v1.418h-.836v-1.418h-.751v1.418h-.836v-1.418h-.751v1.418h-.836v-1.418h-.751v1.418h-.836v-1.418h-.751v1.174h.228v.62h9.962zm-2.475 4.225h1.214v-2.172h-1.214zm-1.412 0h1.214v-2.172H53.9zm-1.443 0h1.245v-2.172h-1.245zm4.285 0h1.048v-2.172h-1.048zm1.048.199h-9.151v3.265h3.401v-2.745h.638v2.745h.787v-2.745h.638v2.745h.787v-2.745h.638v2.745h.787v-2.745h.639v2.745h.835zm8.989-4.242h2.36v-2.088h-2.36zm-22.373.992h.768v-1.174h-.768zm-25.544 1.605h2.36v-2.416h-2.36zm0 2.182h3.14v-1.966h-3.14zm0 .218h3.649v1.582h-1.239v-1.187h-.649v1.187h-.52v.941h-1.24v-2.523zm5.802-2.4h2.709v-2.416h-2.709zm-.895 2.182h3.604v-1.966h-3.604zm3.604.218h-4.189v1.582h1.423v-1.187h.745v1.187h.398v.941h1.623zm-2.709-4.996h2.709v-2.088h-2.709zm-2.841-2.066h2.265v4.462h-.709v1.886h-.991v-1.886h-.565zm5.589-1.242h2.013v-.648h-2.013zm.565 10.828h1.61v-9.937h-1.61zm13.263-6.527h.751V41.25h-.751zM30.214 41.25h.669v1.418h.836V41.25h.751v1.418h.836V41.25h.751v1.418h.836V41.25h.751v1.418h.836V41.25h.751v1.418h.836V41.25h.751v1.418h.836V41.25h.751v1.174h-.228v.62h-9.962zm1.261 4.225h1.214v-2.172h-1.214zm1.412 0H34.1v-2.172h-1.214zm1.412 0h1.245v-2.172h-1.245zm-4.088 0h1.048v-2.172h-1.048zm0 .199h9.151v3.265H35.96v-2.745h-.639v2.745h-.787v-2.745h-.639v2.745h-.787v-2.745h-.639v2.745h-.787v-2.745h-.639v2.745h-.835v-3.265zm-11.349-4.242h2.36v-2.088h-2.36zm23.965.991h.768v-1.174h-.768zm1.644-11.69v-2.309l-.47-.309-.47.309v2.309h.941zm-1.367 5.063h1.794V31.44h-1.794zm-1.364 2.311h4.521v-1.548H41.74zM44 39.144c.223 0 .406.188.406.418v.124h.773v-.124c0-.23.183-.418.406-.418s.406.188.406.418v.124h.774v-.124c0-.23.182-.418.406-.418s.406.188.406.418v.124h.774v-.124c0-.23.183-.418.406-.418s.406.188.406.418v.124h.774v-.124c0-.23.183-.418.406-.418s.406.188.406.418v.124h.774v-.124c0-.23.183-.418.406-.418s.406.188.406.418v.124h.774v-.124c0-.23.183-.418.406-.418s.406.188.406.418v.124h.774v-.124c0-.23.183-.418.406-.418s.406.188.406.418v.124h.774v-.124c0-.23.183-.418.406-.418s.405.188.405.418v.124h.697v-.974H30.214v.974h.697v-.124c0-.23.183-.418.406-.418s.406.188.406.418v.124h.774v-.124c0-.23.183-.418.406-.418s.406.188.406.418v.124h.774v-.124c0-.23.183-.418.406-.418s.406.188.406.418v.124h.774v-.124c0-.23.183-.418.406-.418s.406.188.406.418v.124h.774v-.124c0-.23.183-.418.406-.418s.406.188.406.418v.124h.774v-.124c0-.23.183-.418.406-.418s.406.188.406.418v.124h.774v-.124c0-.23.182-.418.406-.418s.406.188.406.418v.124h.774v-.124c0-.23.182-.418.406-.418s.406.188.406.418v.124h.774v-.124c0-.23.183-.418.406-.418zm13.787 1.896v-1.164h-.697v.826h-.811v-.826h-.774v.826h-.812v-.826h-.774v.826h-.812v-.826h-.774v.826h-.812v-.826h-.774v.826h-.811v-.826h-.774v.826h-.812v-.826h-.774v.826h-.812v-.826h-.774v.826h-.812v-.826h-.773v.826h-.812v-.826h-.774v.826h-.812v-.826h-.774v.826h-.812v-.826h-.774v.826h-.812v-.826h-.774v.826h-.812v-.826h-.774v.826h-.811v-.826h-.774v.826h-.812v-.826h-.774v.826h-.812v-.826h-.774v.826h-.812v-.826h-.697v1.164h27.573zm-11.088 2.105 1.942 1.395v.934h3.602v-2.172h-4.651v-.65h-7.184v.65h-4.651v2.172h3.602v-.934l1.942-1.395zm-1.847 1.182c.745 0 1.354.646 1.354 1.436v3.176h.695v-4.385l-.559-.578H41.66l-.559.578v4.385h.695v-3.176c0-.79.61-1.436 1.354-1.436h1.704zm.352 1.465v3.147h.465v-3.391a.81.81 0 0 0-.798-.821h-1.742a.81.81 0 0 0-.798.821v3.391h.464v-3.147zm-.439 3.147v-2.274c0-.08-.123-.146-.274-.146h-.984c-.15 0-.274.066-.274.146v2.274h1.531zm-4.34 2.791h7.148v-.632h-7.148zm-1.172.947h9.491v-.632h-9.491zm2.461-1.889h4.57v-.632h-4.57zM8.115 45.3c.709 0 1.339-.551 1.339-1.261S8.824 42.7 8.115 42.7s-1.339.63-1.339 1.339.63 1.261 1.339 1.261m71.691 0c.71 0 1.261-.551 1.261-1.261s-.551-1.339-1.261-1.339-1.339.63-1.339 1.339.63 1.261 1.339 1.261m-43.78 15.345v-.975a6.3 6.3 0 0 0 1.295-.716h1.044v4.901h-1.12v-3.84a5.8 5.8 0 0 1-1.219.629zm3.796 2.006h1.133q.097.588.549.602.887-.003.775-1.567a1.2 1.2 0 0 1-.437.239 1.8 1.8 0 0 1-.568.066q-1.393-.131-1.543-1.473.11-1.557 1.842-1.671 1.864-.003 1.863 2.182.108 2.975-1.918 2.927-1.673.019-1.697-1.305zm1.063-2.203q.015.826.724.837.648-.014.669-.837-.033-.868-.669-.893-.699.021-.724.893m5.699.962q.008-1.824-.666-1.855-.673.031-.662 1.855-.01 1.816.662 1.843.674-.028.666-1.843m1.154 0q-.048 2.51-1.842 2.545-1.746-.039-1.793-2.545.051-2.523 1.793-2.564 1.792.038 1.842 2.564m.616 1.241h1.133q.097.588.549.602.886-.003.775-1.567a1.2 1.2 0 0 1-.437.239 1.8 1.8 0 0 1-.568.066q-1.393-.131-1.543-1.473.11-1.557 1.842-1.671 1.865-.003 1.863 2.182.108 2.975-1.918 2.927-1.675.019-1.696-1.305m1.063-2.203q.015.826.724.837.648-.014.669-.837-.033-.868-.669-.893-.699.021-.724.893m-21.18-49.575c-.024-.048.123-.08.221-.123a1 1 0 0 1 .143-.056c.079-.006.104-.009.274.049s.286.103.37.057.171-.088.187-.121.021-.114.038-.197.06-.157.055-.261-.018-.19-.004-.24.109-.305.168-.351.378-.22.778-.27c0 0 .136.024.169.121s.145.375.169.414.046.072.139.084.202.005.272-.152l.223-.497a2 2 0 0 0 .09-.367c.015-.101.002-.275.055-.363a.41.41 0 0 1 .296-.22l.376-.076a.6.6 0 0 1 .179.01.26.26 0 0 0 .115.14c.032.097.058.203.083.229s.248.209.46.09c0 0 .092-.043.116-.073s.074-.122.111-.308l.069-.438c.031-.133.064-.423.146-.593s.142-.229.192-.308.204-.271.324-.321c.285-.119.471-.014.777.047.131.026.241.075.278.114s.059.072.043.104-.026.424-.141.671c0 0-.014.131-.005.19s.067.156.067.237.047.221.103.326c.01.019-.007.059.003.12a1 1 0 0 0 .111.279c.054.091.108.222.16.311.026.043.076.065.105.109.037.057.052.139.069.202a.6.6 0 0 0 .008.115c-.004.068-.029.14-.019.205.012.079-.002.141.053.205.025.029.114.048.16.088.156.134.432.558.431.757 0 .141-.205.341-.242.444s-.154.492-.255.564-.321.126-.399.089-.194-.154-.194-.154l-.227-.065-.195.055s-.027-.085-.001-.159.035-.188.029-.357-.148-.629-.256-.859c0 0-.032-.303-.096-.518s-.245-.522-.265-.696-.005-.377-.009-.436-.015-.397-.1-.553-.169-.178-.234-.16-.103.146-.13.245-.163.358-.073.732c0 0 .035.179.114.191s.192.069.22.129a2 2 0 0 1 .105.355c.003.06-.002.283-.073.34s-.195.055-.333.022-.249.043-.326-.043-.206-.099-.251-.274-.045-.175-.052-.294-.093-.251-.141-.301-.119-.018-.119-.018-.001.258-.043.326.003.293.033.462.027.293.034.437.162.45.21.526.337.589.287.796-.06.395-.118.532-.447.247-.447.247-.227-.065-.33-.311-.246-.448-.268-.597l-.075-.577a4 4 0 0 1-.01-.57c.009-.138.048-.341.036-.445s-.037-.313-.132-.281c0 0-.106.062-.136.284s-.064.385-.052.49-.128.329-.276.325c0 0-.159.001-.244.053s-.041.252-.024.341.281.86.294 1.099-.175 1.037-.313 1.212l-.37.308c-.126.096-.259.023-.259.023l-.441-.184c-.079-.037-.105-.172-.201-.273s-.065-.165-.014-.239.255-.266.255-.266.309-.646.263-.98-.023-.834-.143-1.011-.231-.408-.37-.392a.4.4 0 0 0-.251.108c-.028.029-.059.06-.078.106a.1.1 0 0 0-.008.028c.003.091-.063.179-.063.179s.029.157.022.247a.86.86 0 0 0 .14.412c.058.087.134.226.12.327-.005.04-.061.073-.082.096-.221.255-.194.612-.599.367-.137-.083-.299-.117-.299-.117s-.083-.035-.231-.283c-.271-.453.043-.261-.005-.512-.013-.069.005-.197-.031-.294a.26.26 0 0 0-.099-.11c-.074-.027-.164-.038-.198-.104zM69.62 23.81l.616.046c.21.02.465.072.685.304 0 0-.143.283-.176.402s-.06.277-.39.502-.306.173-.306.173-.136.012-.484-.216-.458-.329-.635-.469-.315-.347-.315-.347c-.044.23.013.175.088.386.035.099.297.467.368.589a.85.85 0 0 1 .111.38c.011.136.001.512.146.727 0 0 .286.286.414.297s.422-.019.422-.019.632.017.897-.323.26-.423.402-.69.303-.633.522-.665c0 0 .269.053.383.049s.275-.012.328-.048a.5.5 0 0 0 .152-.188c.032-.092-.018-.129-.037-.174-.047-.113.075-.178.154-.357 0 0-.067-.213-.177-.329s-.19-.216-.497-.292-.596-.257-1.058-.434l-1.327-.532s-.329-.069-.529-.217c-.206-.153-.273-.479-.562-.392-.068.021-.055.096-.055.096s-.047.353.008.55c.102.367-.073.798.343.996.195.05.379.183.507.194zm4.928-4.924-.745.803-.853.858c-.076.089-.156.292-.25.43s-.135.209-.131.268.113.069.327.075c.103.003.189.058.243.063.023.002.035-.007.06 0l.243.067.266.047c.103.019.217.035.283.031s.08.011.138.067c.164.16.191.472.191.472.002.043-.065.094 0 .146.043.035.118-.062.206-.05.061.008.126.09.199.16.147.143.134.212.13.355a.34.34 0 0 1-.069.209c-.065.076-.155.072-.24.084-.096.013-.187.035-.238.026a1.2 1.2 0 0 1-.36-.126l-.222-.162a8 8 0 0 0-.515-.296c-.122-.065-.265-.104-.367-.152-.385-.177-1.111-.649-1.252-.716s-.555-.324-.555-.324c-.182-.013-.279.326-.297.421s-.022.222-.032.293.09.209.09.209l.696.439c.125.067.827.268.827.268.2-.008.365-.016.514.022.285.073.468.24.551.253a9 9 0 0 0 .572.03s.19.021.229.062a.46.46 0 0 1 .073.224c.006.072-.18.186-.291.183s-.497-.124-.497-.124-.221-.069-.19-.021a19 19 0 0 0 .511.653c.144.152.149.176.443.246.268.055.287-.024.369-.133s.247-.637.243-.756c-.009-.211-.035-.294.088-.347l.249.213c.148.156.319.05.4-.1.144-.271-.084-.434.219-.467.037-.004.034.003.068.02a.45.45 0 0 0 .28.033c.215-.034 1.115-.13 1.187-.12s.35.009.398-.021.157-.226.153-.377c-.008-.321.149-.253-.073-.415a.5.5 0 0 0-.189-.087l-.255-.077c-.181-.06-.411-.182-.487-.203-.404-.113-.283-.321-.082-.511.148-.14.207-.121.104-.331l-.119-.165q-.012-.016-.011-.029c.001-.013.014-.026.023-.04a.7.7 0 0 1 .166-.163c.068-.049.194-.139.279-.232.075-.082.113-.171.113-.171s.011-.135-.026-.239-.049-.264-.07-.367c-.009-.045-.007-.085-.013-.12-.004-.021-.021-.055-.025-.074-.022-.104-.057-.106-.122-.037-.017.018-.026.051-.05.075-.074.07-.196.216-.298.24-.043.01-.153.085-.247.123-.112.045-.219.022-.275.045s-.191.011-.278-.031c-.054-.026-.171-.156-.257-.225-.036-.029-.075-.059-.096-.053-.012.004-.01.03-.021.052l.008.119.044.223c.01.047.03.087-.002.161s-.274.137-.443.22-.659.105-.659.105c.059.111.256.056.371.054.18-.003.22.032.307.074a2 2 0 0 0 .448.129.4.4 0 0 1 .199.079c.115.2-.098.305-.098.305s-.15.076-.389.123-.648.231-.743.197-.193-.34-.193-.34-.086-.2-.119-.179c-.178.112-.08.078-.098.206-.01.071-.001.357-.001.357-.049.063-.393.151-.489.164-.067.009-.31.02-.459-.002-.034-.005-.08-.019-.07-.065.017-.071.021-.132.046-.164s.078-.088.126-.165c.029-.046.083-.124.106-.182.062-.155.542-.814.635-.935.065-.083.273-.276.374-.411.046-.062.022-.125.035-.137.042-.04.071-.195.071-.195l.011-.09-.048-.051zm1.469 2.445.486.542c.066.085.045.168-.03.248a1.5 1.5 0 0 1-.432.284c-.1.045-.195.111-.301.104a.65.65 0 0 1-.288-.123c-.019-.014-.349-.031-.355-.116-.004-.052.029-.248.032-.326l-.043-.374c0-.018-.042-.118-.009-.141s.549-.077.815-.124c.105-.018.099.008.125.025zm-3.014-2.36-.005.592c.01.064.129.146.05.227l-.159.166-.348.349c-.046.04-.128.143-.248.246a2.5 2.5 0 0 1-.392.265c-.07.038-.112.081-.1-.041a.2.2 0 0 1 .018-.065c.045-.101.058-.172.14-.265s.134-.24.197-.352.239-.262.306-.362.081-.179.145-.299c.038-.071.154-.237.253-.36a1 1 0 0 1 .124-.134c.024-.017.017.018.018.032zm-60.182 5.898s-.076.256.072.55c.053.107.217.214.292.361.087.169.106.345.247.574.008.013.063.06.119.15.029.047.022.117.064.174.029.039.106.064.133.101.042.059.041.122.081.165.077.083.195.119.265.075a1.04 1.04 0 0 1 .475-.13c.105-.007.388-.23.309-.328-.056-.071-.122-.164-.285-.276s-.65-.323-.933-.584l-.613-.586c-.121-.094-.227-.246-.227-.246zm3.229-2.104c.014-.045.08-.016.179-.036.064-.013.129-.05.18-.055.058-.005.122.042.241.045.421.008.66-.006.965.133 0 0 .227.122.276.311s.012.227.002.279-.306.38-.306.38-.203-.091-.294-.161a16 16 0 0 0-.694-.434c-.024-.014-.16-.031-.256-.097a2 2 0 0 1-.296-.235l-.018-.062zm-4.107-.402c.023-.099.017-.182.02-.27a1 1 0 0 0-.027-.267c-.011-.055-.059-.125-.073-.195l-.207-1.297c-.017-.09-.065-.159-.095-.247-.027-.077-.037-.173-.054-.244-.074-.309-.044-.469-.09-.684l-.133-.644c-.019-.15-.021-.276-.053-.373s-.008-.186.023-.215.147.006.147.006.26-.023.354.006.157.121.223.164a.6.6 0 0 0 .303.084c.104-.007.193-.088.259-.115 0 0 .13-.15.183-.021s.031.17.014.205c-.031.064-.044.111-.07.15-.02.03-.063.075-.087.12-.104.193-.397.685-.446 1.255l-.022.429-.014.369c.008.164-.024.323.002.478.011.065.038.13.04.188.003.075-.021.143-.017.214l.009.238c-.003.091-.021.195-.035.291l-.043.256c-.004.038 0 .075-.004.113-.016.08-.011.115.077.139.045.013.053.017.088-.015.066-.06.189-.349.256-.762l.125-.761.03-.469c-.002-.102.051-.092.051-.092s.118-.023.135.021.05.079.05.079.157.031.259-.021c.059-.031.051-.156.061-.236.014-.11-.005-.489.018-.663.014-.1.052-.252.12-.395.049-.104.123-.199.17-.292.109-.219.149-.388.215-.539.059-.133.119-.318.273-.274 0 0 .143.05.161.105a.5.5 0 0 0 .131.222c.07.053.29.447.44.593l1.784 1.596c.328.213.53.4.603.467s.782.574.815.599l1.441 1.063.541.425c.03.03.309.24.358.298.056.066.047.159.019.221-.075.165-.126.304-.127.351-.001.033-.105.208-.16.276a.18.18 0 0 1-.147.066.6.6 0 0 1-.226-.052c-.047-.021-.129-.034-.225-.058-.123-.03-.277-.071-.478-.085l-.698-.053c-.03-.003-.035-.006-.061-.025-.057-.041-.178-.115-.16-.148.01-.019.092-.126.178-.236.067-.085.126-.178.178-.219.017-.014.106-.021.215-.04.099-.017.178-.048.217-.104.032-.047.123-.07.142-.165s-.067-.108-.114-.145l-1.223-1.064-1.134-.82-.467-.383c-.241-.25-.727-.654-.818-.756s-.665-.621-.78-.774l-.226-.294c-.065-.098-.165-.131-.173-.053a.38.38 0 0 1-.125.235c-.099.094-.229.101-.274.146-.09.089-.207.525-.204.602s.099.448.059.555-.109.319-.192.371l-.151-.011c-.079-.008-.19.012-.257.098s-.051.395-.034.483a.5.5 0 0 0 .061.154l.227-.238c.281-.363.247-.329.65-.155 0 0 .158-.217.188-.311s.146-.024.146-.024a.4.4 0 0 0 .1.131 4 4 0 0 1 .118.601c.008.155.08.253.139.299s.122.062.19-.012.098-.222.364-.101c0 0 .15.053.151.107l.009.304a3.6 3.6 0 0 0 .345 1.021s.014.16.49.38.601.306.644.36.371.192.334.789c0 0 .011.273-.357.242 0 0-.21-.003-.424-.179l-.237-.188c-.036-.023-.034-.012-.058.025-.031.047-.078.131-.056.178.033.068.132.187.182.258s.126.331.103.43c-.015.062-.044.099-.104.114a.4.4 0 0 1-.145.002c-.06-.01-.132-.002-.181-.02-.082-.028-.125-.094-.126-.187 0 0-.039-.168-.058-.363l-.039-.401c-.014-.064-.021-.165-.064-.219s-.346-.279-.406-.325c0 0-.092-.018-.127.04s-.062.122.007.197.119.134.083.181-.248.211-.379.12-.254-.207-.268-.366c0 0 .058-.253.039-.489s-.066-.38-.147-.454-.079-.104-.079-.104-.07.2-.076.344.024.38-.005.473-.031.178-.082.202-.087.071-.332.072-.351.11-.523.073-.142-.132-.142-.227.183-.346.207-.487l.138-.657.076-.674c.012-.097-.026-.158-.026-.158l-.271-.253s-.076.016-.185.144-.164.075-.345.582c0 0-.083.244-.18.37s-.126.094-.177.16a2 2 0 0 1-.212.218c-.065.056-.473.113-.506.102s.138-.217.205-.356l.154-.356q.008-.035.008-.086c-.002-.043-.005-.078.004-.113s.014-.043.035-.069.042-.036.058-.105zm-1.909.662c.042-.124.123-.176.18-.359.035-.11.04-.191.069-.308.034-.136.087-.262.075-.377 0 0-.007-.067.002-.159.006-.072.037-.158-.007-.242-.029-.055-.1-.081-.199-.129l-.02-.009c-.03-.013-.069-.01-.093-.032-.104-.097-.293-.141-.36-.248-.046-.075-.026-.156.014-.228.024-.043.023-.095.111-.106.066-.008.312.021.383.007s.186-.072.24-.09.279-.072.376.029c.028.028.115.08.157.095s.05-.032.073-.03c.045.005.144.015.209.035s.182-.01.194.128c.008.095-.083.139-.063.206.009.03.046.057.073.127.038.102.119.273.092.364-.033.109-.183.133-.222.19-.071.104-.049.27-.056.433s-.056.523-.027.575.017.172.003.241-.089.119-.195.127c-.076.006-.213-.016-.329-.023-.045-.003-.092-.02-.123-.008-.112.042-.261.018-.323.02-.041.002-.133.044-.188.035-.075-.013-.073-.177-.044-.264zm48.217-10.584s.198.092.242.168c.03.051.189.481.218.554s.195.133.283.313c.062.126.061.297.095.454.027.123.092.242.114.3.085.221.133.831-.029.904-.061.027-.188-.046-.278-.029a6 6 0 0 1-.472.06c-.176.015-.285.134-.425.099s-.198-.085-.173-.231.277-.792.308-1.104l.119-1.487zm-4.679-2.727c.095.051.209.181.344.203s1.25.215 1.747.187l.795-.027c.118-.021.388.028.566-.216s.541-.775.657-1.016.246-.597.293-.734a1.1 1.1 0 0 0 .02-.635s-.023-.228.077-.318.288-.106.335-.159a.13.13 0 0 1 .109-.039c.026.003.059.023.069.029a.1.1 0 0 1 .037.05l.221.467.408.768c.026.108.056.291-.05.452 0 0-.114.121-.178.214s-.029.267-.141.303-.36.184-.433.298-.131.247-.152.322l-.04.177s.061.026.166.011.314.003.422-.023c.054-.013.233.002.393-.038.095-.024.161-.102.25-.122.061-.014.126.002.171-.011.061-.017.119-.017.157-.03.049-.016.071-.045.103-.069.053-.039.049-.097.041-.151-.005-.03-.015-.07-.032-.107s-.022-.081-.043-.123c-.008-.016-.01-.024-.004-.036l.011-.023c.009-.015.028-.016.042-.005.038.03.158.123.2.195.049.085.209.289.234.379s-.031.152-.095.161l-.404.048c-.073.011-.162.018-.206.038-.08.037-.205.065-.321.147-.103.072-.175.184-.29.214-.246.064-.614.059-.731.105s-.347.129-.476.231-.201.24-.28.255-.28.17-.347.214-.222.317-.358.464a3 3 0 0 0-.369.544c-.035.082-.158.222-.256.337a.84.84 0 0 1-.627.299s-.258-.003-.41.04l-.429.108c-.123.032-.359.1-.906-.064l-.954-.291-.84-.21c-.044-.011.004-.12.069-.107a2 2 0 0 0 .261.035c.165.011.623-.095.995-.14s.783-.099 1.036-.207.894-.244 1.127-.362.579-.526.624-.629c0 0-.004-.159-.143-.147l-.886.114c-.184.005-.306-.023-.637.04s-.555.161-.722.015-.248-.325-.371-.573c-.068-.136-.181-.387-.201-.582-.006-.061.035-.099.092-.148s.168-.177.263-.127z"/></svg>