<svg xmlns="http://www.w3.org/2000/svg" width="1000" height="1000"><path fill="rgba(255,255,255,0)" d="M0 0h1000v1000H0z"/><g fill-rule="evenodd"><path d="M153.031 416.853c-32.555-115.936-13.52-223.204-13.52-352.947C255.555 6.224 370.459.998 494.976.998c107.662 0 260.357 13.893 352.321 62.724 9.432 122.308 14.853 229.959-16.559 368.93S707.935 763.6 499.549 905.426C272.127 756.373 197.77 576.181 153.031 416.853" fill="#ee3e33"/><g fill="#fff"><path d="M261.687 246.984 149.636 368.821c25.126 116.792 94.912 361.598 349.08 526.738C750.609 722.23 818.108 484.65 833.337 366.149L724.428 246.697l-120.604 122.21-111.1-121.164-110.708 119.645-120.329-120.404m-3.812-108.176 13.79 23.302H245.51l12.365-23.302m-31.384 13.799-8.56 12.359 19.498-1.434-10.938-10.925zm63.239 0 9.512 12.359-19.016-2.856 9.504-9.503zm23.302-29.493c-1.422 0-4.284-.943 0-2.373 3.335 0 8.081 0 13.79 8.56 2.855-1.433 9.506-11.416 16.645-8.56-.954 10.466-22.35 49.922-25.198 53.726-9.52-5.709-65.631-8.562-60.394-8.562 4.278 0-52.784 1.431-60.865 8.562-2.373-5.709-24.724-43.263-24.724-55.148 6.659-2.862 14.26 6.659 16.634 8.552 5.717-8.552 10.945-8.552 12.847-8.552 5.229 1.422 2.373 2.855.943 3.795-27.58 22.83 12.376 47.549 20.449 22.83 36.14 3.325 26.635-25.203 18.076-29.49-6.66-1.896-2.384-2.367 0-2.367 2.853-1.43 6.66-1.43 6.66.471 0-14.732 1.901-25.675 9.983-29.953 8.081 5.229 9.986 15.22 8.081 29.953 1.902-1.902 5.706-.471 8.562-.471 1.422.471 7.13.471 1.422 3.798-9.984 2.853-18.068 32.806 16.642 28.06 8.082 24.718 49.928-3.324 20.447-22.831z"/><path d="M217.64 182.629c2.784 0 5.568 1.858 5.568 6.512 0 3.727-2.784 6.51-5.568 6.51-3.735 0-6.519-2.783-6.519-6.51 0-4.654 2.784-6.512 6.519-6.512m21.383-4.646c3.718 0 7.444 2.784 7.444 6.502 0 4.654-3.726 6.512-7.444 6.512-2.792 0-6.51-1.858-6.51-6.512 0-3.715 3.718-6.502 6.51-6.502zm22.325-1.856c2.784 0 6.502 3.718 6.502 7.435 0 2.784-3.718 6.502-6.502 6.502-3.726 0-6.521-3.718-6.521-6.502.003-3.717 2.795-7.435 6.521-7.435zm19.525 1.856a6.35 6.35 0 0 1 6.521 6.502c0 3.717-2.801 6.512-6.521 6.512s-6.502-2.792-6.502-6.512 2.784-6.502 6.502-6.502zm21.397 4.646c3.717 0 6.501 2.792 6.501 6.512s-2.784 6.51-6.501 6.51a6.513 6.513 0 1 1 0-13.022zm-90.215 19.532c-3.717-6.51-8.369-17.674-11.17-22.316 10.236-6.522 46.507-7.444 58.605-8.38 20.457 0 47.425 3.726 56.73 8.38 0-1.859-5.584 17.662-8.37 23.242-14.88-5.577-36.28-6.502-49.291-6.502-15.818-.936-34.418.922-46.504 5.576zm47.975-.143c26.043 0 46.509 2.792 46.509 6.51 0 2.784-20.466 4.642-46.51 4.642-25.1 0-46.5-1.858-46.5-4.642.003-3.718 21.4-6.51 46.5-6.51m431.07-49.411-8.555 12.359 21.392-1.434-12.836-10.925m32.343-13.799 13.319 23.302h-24.733l11.414-23.302zm32.805 13.799 9.507 12.359-19.019-2.856 9.512-9.503zm23.305-29.493c-2.855 0-5.708-.943 0-2.373 2.845 0 8.553 0 12.368 8.56 2.844-1.433 10.937-11.416 18.065-8.56-1.43 10.466-21.88 49.922-25.198 53.726-9.521-5.709-66.103-8.562-61.345-8.562 5.226 0-51.362 1.431-59.915 8.562-2.381-5.709-24.724-43.263-26.154-55.148 8.56-2.862 15.22 6.659 18.064 8.552 5.709-8.552 10.946-8.552 12.36-8.552 4.286 1.422 2.864 2.855 1.43 3.795-29.01 22.83 12.36 47.549 19.507 22.83 36.613 3.325 27.092-25.203 18.056-29.49-6.168-1.896-1.422-2.367.48-2.367 1.902-1.43 7.61-1.43 7.61.471 0-14.74 0-25.675 8.562-29.953 8.081 5.229 10.454 15.212 9.503 29.953.951-1.902 5.229-.471 8.082-.471.96.471 5.705.471 0 3.798-9.507 2.853-16.646 32.806 18.073 28.06 6.654 24.718 49.451-3.324 20.452-22.831zm-95.865 59.515c2.804 0 5.585 1.858 5.585 6.512 0 3.727-2.784 6.51-5.585 6.51-3.718 0-6.505-2.783-6.505-6.51.003-4.654 2.787-6.512 6.505-6.512m21.403-4.646c3.717 0 7.435 2.784 7.435 6.502 0 4.654-3.718 6.512-7.435 6.512-2.796 0-6.522-1.858-6.522-6.512 0-3.715 3.726-6.502 6.522-6.502zm22.305-1.856c2.801 0 6.519 3.718 6.519 7.435 0 2.784-3.718 6.502-6.52 6.502-3.717 0-6.503-3.718-6.503-6.502.003-3.717 2.786-7.435 6.504-7.435zm19.541 1.856c3.718 0 6.502 2.784 6.502 6.502a6.35 6.35 0 0 1-6.502 6.512c-3.717 0-6.521-2.792-6.521-6.512a6.35 6.35 0 0 1 6.521-6.502zm21.39 4.646a6.513 6.513 0 1 1 0 13.022c-3.727 0-6.51-2.783-6.51-6.51a6.35 6.35 0 0 1 6.51-6.512zM678.11 202.16c-3.717-6.51-8.368-17.674-11.164-22.316 10.236-6.522 46.504-7.444 58.59-8.38 20.467 0 47.443 3.726 56.746 8.38 0-1.859-5.585 17.662-8.378 23.242-14.881-5.577-36.27-6.502-49.293-6.502-15.804-.936-34.403.922-46.5 5.576zm47.975-.175c26.037 0 46.5 2.793 46.5 6.51 0 2.793-20.463 4.651-46.5 4.651-25.118 0-46.507-1.858-46.507-4.65 0-3.718 21.39-6.51 46.507-6.51M437.713 88.506h3.804V69.488h-3.804v19.019zm21.4-6.177-7.602-13.31h-4.283v19.018h3.795V74.72l7.616 13.318h4.27V69.02h-3.799v13.31zm-37.092 47.067h8.553c6.659 0 8.09-6.171 8.09-9.984s-1.431-9.506-7.602-9.506h-9.038v19.49zm4.278-16.155h3.803c1.902 0 4.758.472 4.758 6.171 0 3.333-1.422 6.66-4.758 6.66H426.3v-12.83zm14.74 4.267c0 9.515 6.66 10.466 9.516 10.466 2.373 0 9.503-.951 9.503-10.466 0-9.024-7.127-9.984-9.503-9.984-2.856 0-9.515.96-9.515 9.984zm4.284 0c0-5.226 2.856-6.651 5.229-6.651 1.902 0 5.226 1.425 5.226 6.65 0 5.718-3.324 7.131-5.226 7.131-2.373 0-5.229-1.413-5.229-7.13zm36.612-11.397h-6.176l-3.324 15.212-3.336-15.212h-6.185v19.49h3.804v-16.163l3.812 16.163h3.798l3.804-16.163v16.163h3.803v-19.49zm-50.402 64.652h3.807v-19.49h-3.807v19.49zm20.45-7.602-7.62-13.79h-4.745v19.96h4.274v-14.26l7.62 14.26h4.266v-19.96h-3.796v13.79zm8.072-4.755c0 9.515 6.66 10.458 9.515 10.458 2.382 0 9.036-.943 9.036-10.458 0-9.032-6.651-9.992-9.036-9.992-2.855 0-9.515.957-9.515 9.992zm3.816 0c0-5.226 3.323-6.66 5.696-6.66 1.902 0 5.238 1.434 5.238 6.66 0 5.7-3.336 7.13-5.238 7.13-2.373 0-5.696-1.433-5.696-7.13zM415.84 50.475s16.634 6.66 31.387 1.43c17.114-8.09 31.863-11.416 44.222-5.708v145.967c-10.466-3.804-21.88-2.382-38.522 1.425-14.733 4.275-24.725 4.275-37.084 1.902V50.475zm-6.027 1.316L397.44 62.717v146.44l12.374-12.83V51.79m-8.093 159.75 13.79-10.945c9.986 2.864 31.384-1.414 41.367-2.844 16.643-2.382 23.782-5.709 35.67 0-6.66 2.844-10.946 8.56-10.946 13.79h-79.88m185.922 0-13.32-10.946c-11.407 2.864-30.903-1.414-41.366-2.844-18.068-2.382-23.773-5.709-34.23 0 5.228 2.844 9.035 8.56 8.08 13.79h80.836m-9.507-161.179 12.84 12.357v145.018l-12.84-12.368V50.363m-19.383 35.3-7.608-13.79h-4.277v19.486h3.806V77.581l8.082 13.778h4.275V71.873h-4.275v13.79m-29.485-4.284c0-5.229 2.853-6.66 5.226-6.66 1.913 0 5.229 1.431 5.229 6.66 0 5.717-3.316 7.13-5.23 7.13-2.37-.002-5.225-1.416-5.225-7.13zm-4.275 0c0 9.515 6.657 10.466 9.504 10.466 2.384 0 9.515-.95 9.515-10.466 0-9.032-7.128-9.983-9.515-9.983-2.844-.003-9.504.948-9.504 9.983zm-3.335-5.7c-.471-2.853-2.853-6.66-8.553-6.66-5.237 0-9.035 3.328-9.035 9.987 0 7.13 3.795 10.463 9.035 10.463 4.755 0 7.602-2.861 8.553-7.14h-4.284c-.47 2.385-1.902 3.808-4.266 3.808-3.804 0-4.766-3.327-4.766-7.131 0-5.229 2.864-6.66 4.766-6.66 3.324 0 3.795 2.374 4.266 3.333h4.284zm18.067 54.677h4.284v-19.498h-4.284v19.498zm-14.732-8.561h8.553V118h-8.553v-4.286h9.984v-3.336h-14.27v19.498h4.286v-8.081zm15.212 39.465c0-5.229 2.853-6.66 5.235-6.66 1.902 0 5.228 1.431 5.228 6.66 0 5.7-3.326 7.13-5.228 7.13-2.382 0-5.235-1.43-5.235-7.13zm-4.275 0c0 9.504 6.657 10.454 9.513 10.454 2.373 0 9.506-.95 9.506-10.454 0-9.041-7.13-9.986-9.506-9.986-2.856.003-9.513.945-9.513 9.986zm-17.596-9.041h3.804c1.896 0 4.277.48 4.277 6.188 0 3.327-.95 6.651-4.277 6.651h-3.804v-12.839zm-4.278 16.172h8.561c6.648 0 8.073-6.189 8.073-10.466 0-3.796-1.422-9.024-8.073-9.024h-8.56v19.49zm58.963-117.916s-16.65 6.66-31.383 1.43c-18.073-8.09-32.335-11.416-42.798-5.708v145.967c9.033-3.804 19.967-2.382 36.61 1.425 15.694 4.275 24.724 4.275 37.571 1.902V50.475zM495.392 200.6c-5.226 5.717-8.076 5.717-6.648 10.945h11.877c1.43-5.228 0-8.084-5.229-10.945"/></g><path d="M273.75 417.77c1.86 0 3.718 1.859 3.718 3.717s-1.859 3.718-3.717 3.718-3.718-1.859-3.718-3.718 1.859-3.717 3.718-3.717m-26.968 53.927c1.858-3.718 5.576-14.882 7.435-18.59-1.859-3.718-5.577-7.456-9.294-7.456 1.859-3.709 8.36-9.285 7.435-12.077-1.859-3.718-4.651-2.784-11.161-6.513 1.867-4.652 7.443-7.435 10.23-7.435 3.726-.934 3.726-6.513 10.236-9.303 6.505-3.717 13.023-3.717 20.458-3.717 11.161.925 39.066 8.371 31.628 42.783 16.74 34.406 76.253-12.095 96.72-12.095-3.727 8.36-8.37 15.815-13.02 23.242 5.575 3.717 13.02 0 19.532 0-6.513 18.599-17.674 26.976-26.98 34.414 9.303 30.686 44.643 18.6 76.27 14.882-3.726 10.219-16.746 12.086-22.325 19.524 10.236 11.161 22.325 26.04 29.76 41.855-13.945-9.302-42.783-19.541-53.01-23.259-18.6-7.438-57.662-7.438-76.262 0 3.718 7.444 11.165 11.162 16.738 15.813-9.294 18.596-28.827 7.446-39.988 3.72-10.236 7.441-27.902 7.441-32.556 3.726 0 0 0-4.66 5.577-9.302 3.726-4.651-11.164-6.513-15.807-13.954 0-6.504 8.372 0 12.09-7.438-9.303-18.602-49.294-23.253-43.706-68.82zm296.532-48.452c2.795 0 3.717.934 3.717 3.718 0 1.867-.922 3.726-3.717 3.726-1.856 0-3.718-1.859-3.718-3.726 0-2.784 1.862-3.718 3.718-3.718m-26.04 53.936c.934-3.717 4.66-14.881 7.444-18.599-2.784-3.717-6.51-8.36-9.303-8.36 1.859-3.718 8.377-8.377 6.522-11.161-.943-3.718-3.727-2.793-10.237-6.51 1.856-4.643 6.513-7.444 10.237-8.372 3.717 0 3.717-5.576 9.293-9.294 6.51-2.792 13.945-2.792 21.39-3.717 10.23 1.859 39.056 9.294 31.621 43.697 16.738 33.478 76.27-12.09 96.725-12.09-3.718 7.444-9.302 15.804-13.02 23.25 5.576 3.718 13.02 0 19.533 0-6.513 18.6-17.671 26.969-26.968 34.415 9.294 29.75 44.639 18.6 76.261 14.87-3.717 10.23-16.74 11.165-23.262 19.525 11.164 11.164 23.262 26.043 30.697 41.85-13.945-9.306-43.717-19.525-53.01-23.243-19.533-7.443-57.663-7.443-77.195 0 3.72 7.438 12.089 11.156 17.674 14.882-10.23 19.521-28.827 8.363-40 4.643-10.222 7.432-27.893 7.432-32.544 3.717 0 0 0-5.579 5.585-9.305 3.717-5.576-11.164-6.501-15.824-13.94 0-7.443 7.444 0 12.098-7.443-10.23-19.521-49.296-23.239-43.717-68.815zM414.95 615.138c.933 0 2.792.925 2.792 3.72 0 .92-1.856 2.784-2.792 2.784-2.784 0-4.643-1.861-4.643-2.784 0-2.795 1.862-3.72 4.643-3.72m-27.899 53.927c1.856-3.72 5.576-14.876 8.377-18.59-2.8-3.738-6.521-8.378-9.302-8.378.925-3.72 7.435-8.366 6.504-11.155-1.859-3.726-3.72-2.796-11.155-6.516a18.904 18.904 0 0 1 11.155-8.366c3.726 0 3.726-5.588 9.303-9.302 6.51-2.784 13.953-2.784 21.397-3.72 10.222.936 38.123 9.302 30.688 43.699 16.738 33.475 77.195-12.08 97.659-12.08-3.718 7.44-9.303 15.818-13.02 23.241 5.576 3.72 13.02 0 18.599 0-5.576 18.602-16.737 26.037-26.04 34.415 9.303 29.76 44.64 18.602 76.261 14.881-3.729 10.225-16.74 11.156-23.253 18.602 11.164 12.075 23.253 26.968 30.688 42.775-13.945-9.297-43.708-19.533-53.002-23.253-19.533-7.447-57.67-7.447-77.195 0 3.72 7.446 11.164 11.16 17.666 14.881-10.222 19.533-28.827 8.372-40.925 3.72-9.294 8.378-26.968 8.378-32.544 4.652 0 0 0-5.576 6.504-9.297 3.726-5.576-11.155-6.51-15.806-13.953 0-7.447 7.443 0 12.086-7.447-10.233-19.527-50.224-23.247-44.645-68.809zm-279.36-54.622c2.11-8.44 8.744-14.77 15.97-15.965 14.462-3.62 25.905-19.886 39.764-21.687 22.299-3.008 38.557 18.067 34.945 30.119-5.42 10.544-33.13 23.495-25.301 34.934 15.361 22.596 27.114 35.245 28.913 55.427 1.212 12.052-20.484 14.454-20.484 26.497 15.674 25.61 141.29 174.11 244.616 214.474 2.109-10.24.609-18.982 25.31-21.082 22.891-1.813 62.356-1.813 85.862-2.72 28.31-1.207 24.699 25.002 34.944 21.087 104.826-39.457 221.417-175.305 244.308-215.362 0-7.234-10.836-13.258-15.657-18.073-6.03-6.022-1.816-21.995.899-27.712 8.133-16.867 17.168-25.603 26.81-45.782-8.432-14.759-17.473-13.259-25.31-24.101-6.326-16.867 23.204-42.169 41.272-31.022 13.554 5.723 21.397 13.555 35.555 21.073 17.464 9.644 14.157 26.517 9.035 40.967-6.93 19.28-20.788 37.661-28.921 59.944-5.718 15.97 6.938 15.07 8.745 20.788 8.432 5.723 9.641 15.959-.908 32.831-54.827 88.56-165.692 199.1-272.635 244.274-9.636 3.928-15.965 8.142-35.541 3.928-15.071-3.316-11.144-22.596-18.082-28.925-2.704-6.633-92.783-2.703-98.213 4.522-3.315 12.951-10.54 29.525-26.506 25.302-107.55-27.71-276.556-219.883-292.814-252.416-6.33-12.652 3.01-30.418 15.361-39.755 1.204-4.815-6.329-17.166-7.532-21.984-7.832-19.889-30.12-46.087-24.406-69.581" fill="#ee3e33"/><path d="M169.447 583.097c-6.625.298-14.767 6.021-10.84 16.86 6.626-3.915 12.044-12.95 18.068-11.143 2.715 3.62-1.203 7.228 9.645 18.372a9.28 9.28 0 0 0 6.03-2.402c-1.52-12.058-17.473-20.788-22.903-21.687m2.112 15.364c-2.408 2.396-9.337 8.725-11.756 12.345 1.815 6.323 3.315 10.239 7.234 16.86l16.565-13.246c-3.907-4.514-7.826-8.44-12.043-15.96zm-25.003-4.522c-6.03 2.407-12.052 10.845-19.277 12.04-31.637 6.033 1.5 47.897 18.981 92.775 12.043-12.647 19.576-11.144 28.913-9.636 4.818 2.109 14.462 12.052 19.277 10.245 2.419-4.226-10.54-26.81-14.462-32.539-10.54-15.355-25.595-40.358-33.432-72.885zm38.557 112.95c-3.611-3.613-10.54-13.852-16.565-12.646 0 7.228 2.407 16.267 8.432 22.288 2.407-2.413 5.726-6.021 8.133-9.641zm-26.505-8.135c-11.756 9.943-36.76 25.301-24.411 51.807 26.522 43.975 195.82 222.296 277.76 239.169 11.449 3.91 21.688-4.226 24.098-20.188s7.837-11.739 8.133-21.383c-72.3 3.611-271.118-200-285.58-249.405zM446.903 936.71c-2.407 0-7.225-3.013-9.641-3.013-1.204 1.206-2.41 2.715-2.41 5.122 2.407 2.407 13.255 3.913 12.051-2.109zm88.873 1.813c-1.206-8.44 10.837-8.44 14.46-12.052 6.021-10.244-93.393-4.815-106.048-.902-1.195 3.62 13.264 7.234 10.848 18.976-1.206 6.027-6.024 10.84-4.817 18.079 38.258-6.634 61.753-6.33 90.677-2.704 2.106-4.536-7.539-14.157-5.12-21.397zm19.576-5.122c-2.41-1.201-5.113 2.413-7.532 3.614 1.206 1.206 5.734 3.315 10.848 1.807.296-3.614-3.316-4.215-3.316-5.421zm310.584-199.1c1.815-12.647-6.617-15.37-12.635-21.39-6.042-6.021-12.36-9.635-17.473-15.364-2.724 10.544 0 10.544-9.34 21.099-54.232 83.725-157.86 181.616-237.396 218.064-17.778 9.639-28.617 11.446-43.671 10.245 0 3.614 3.605 9.639 4.818 13.247 3.605 10.845-2.42 38.862 35.241 29.824 0 0 74.107-27.712 157.26-104.821C843.352 792.129 865.936 734.3 865.936 734.3zm-40.968-40.362c-2.407 0-8.432 4.815-9.635 6.021 0 3.614 3.614 6.033 6.03 8.44 4.82-2.407 6.024-9.646 3.605-14.461zm59.053-79.52c3.01-7.233-20.789-23.494-30.128-22.888-.305 8.43-3.615 14.152-9.636 27.71-9.94 22.299-27.718 39.755-34.955 61.448-1.203 3.614-3.602 8.435 0 12.046 14.167-9.337 28.025-10.84 40.376 4.215 3.623-2.402 4.52-10.544 6.634-15.054 8.429-18.077 27.709-42.177 27.709-67.476zm-43.378-9.635-7.542-8.13c-3.315 2.703-9.337 8.429-11.738 11.44 2.706 5.722 6.92 10.543 12.35 13.247 3.614.002 5.717-12.943 6.93-16.557zm-13.256-25.302c-6.326 1.196-21.687 14.454-14.462 21.682 17.168 2.42 7.832-16.266 15.361-18.067 11.756 0 8.441 12.046 18.077 7.53 4.519-7.832-13.853-12.052-18.976-11.145z" fill="#fff"/><path d="M401.675 970.91c-1.902 4.286-2.382 4.768-4.755 4.286l-1.901-.954c-.472 0-.951.954-.951 1.436 3.324 1.89 5.705 2.373 8.081 3.321a68.662 68.662 0 0 0 6.66 3.804c.47-.477.47-1.43.47-1.902l-1.421-.96c-1.902-1.419-1.902-1.419 0-5.7l9.035-19.486c.48-.96.48-.96 1.422-.477l2.853.948c3.332 1.902 3.332 3.804 2.373 7.602 0 0 1.43.482 1.43 0l4.284-6.66c0-.47 0-.942-.48-.942h-.48c-.942.471-1.422 0-4.266-1.43l-16.171-7.602c-3.333-1.42-3.333-1.42-3.333-2.379-.471 0 0 0-.471-.471h-.951c-.954 1.43-2.376 4.286-4.758 6.66 0 .47.48 1.418 1.431 1.418 2.844-2.378 4.278-3.792 7.602-2.378l2.861 1.43c.943.472.943.472.471 1.431l-9.035 19.004m-13.316-19.487c2.376-3.32 3.807-6.647 5.709-7.607.48-.471 1.422-.471 2.381 0l.943.477c.47-.477.95-.948.95-1.902-1.893-.477-3.323-1.42-4.754-2.373s-3.324-1.902-5.7-2.861c-.48 0-.48.96-.48 1.43l.48.483c1.434.948 1.905 1.42 1.905 2.844s-1.905 4.752-3.336 8.09l-3.324 5.694c-.96.96-.96 1.431-1.43 1.902 0-1.43-.943-3.804-1.431-7.125l-1.422-6.182c-.951-6.177-1.905-10.937-1.422-13.31-.951 0-1.914-.96-3.327-1.902-1.902-.948-4.283-1.902-5.714-3.321-.942 0-1.414.942-1.414 1.89l1.414.483c.96.948 1.43 1.89 1.43 2.85 0 .47-.47 1.425-1.43 3.798l-6.168 10.937c-1.905 3.327-3.815 6.188-5.238 7.136-.48.471-1.422 0-2.381 0h-.943c-.48 0-.95.942-.95 1.425 1.422.948 3.323 1.42 4.754 2.379l5.229 3.327c.468-.483.95-1.431.95-1.902l-.95-.483c-.963-.942-1.905-1.902-1.905-2.844.471-1.43 1.905-4.752 3.807-8.09l4.754-8.082c.472-1.43.943-2.373 1.422-2.373.48.943.951 3.327 1.902 7.602l2.844 17.602a27.014 27.014 0 0 1 .963 6.645c.95.489 2.373.489 2.853.489.47-1.902 2.373-4.287 3.803-7.13l5.226-9.996zm-59.443-29.952c-3.324 4.286-4.275 8.081-3.324 10.937.951 3.803 3.324 6.176 6.177 8.081 3.332 2.385 7.13 2.856 10.466 2.385 3.324-1.431 6.185-4.287 9.035-8.09l2.853-4.27c1.902-3.332 4.275-6.182 5.226-7.136 1.43-.477 2.373-.477 3.335 0l.951.483c.471-.483.951-.96.471-1.43-1.422-.955-2.855-1.903-4.278-3.328-1.43-.47-2.852-1.902-5.234-3.332-.471 0-.942.96-.942.96l.942 1.413c.96.96 1.43 1.902 1.43 2.861 0 1.425-2.372 4.27-4.754 7.602l-2.847 4.752c-3.812 5.71-8.558 9.035-13.319 5.71-6.185-4.285-3.332-9.988 0-14.74l6.189-9.035c2.364-3.327 2.844-3.815 4.746-2.856l1.422.471c.47 0 .96-.942.47-1.43-1.413-1.414-3.323-2.362-5.696-3.793-1.902-1.436-3.804-2.85-5.709-3.81-.47 0-.95.472-.95.96l.95.943c1.434 1.436 1.434 1.907-.95 5.7l-6.66 9.992zm-2.373-26.618c-4.286-2.861-8.561-4.763-13.319-4.286-4.277 0-8.555 1.425-12.359 6.182-3.335 4.752-3.807 9.995-2.376 13.787.942 4.275 4.278 8.562 7.602 11.42 2.853 2.373 7.13 3.315 9.035 3.804 1.43-.489 3.812-2.385 6.185-4.758 0-.96-.47-1.43-.96-1.902-2.843 2.373-8.072 4.275-12.358.472-4.755-3.327-6.177-10.938-.471-18.545s13.318-8.076 17.587-4.746c3.804 2.844 4.764 6.648 2.862 10.937 0 .471.942 1.42 1.902.948l3.795-6.177c-.94-.965-3.321-4.292-7.125-7.136zm-32.806 2.367c3.324-4.269 2.373-8.558.943-11.402l-.943-3.333c-1.433-2.85-1.433-5.705 0-7.136 1.422-1.896 3.795-2.844 6.169-.471 2.864 2.379 1.913 6.188 1.433 8.561 0 .948 1.43 1.42 1.43 1.42 1.903-2.374 3.325-5.224 3.796-5.695 0-.954-.471-.954-.942-1.907-.951-1.42-2.853-2.85-3.804-3.804-5.229-4.275-10.937-4.275-14.27 0-2.847 3.327-2.376 8.084-.471 11.89.942 2.85 2.373 6.649 0 9.984-1.905 1.896-4.286 2.373-7.13 0-2.865-2.373-2.865-8.09-1.434-10.937 0-.477-.951-1.42-1.43-.948-2.374 2.379-4.267 5.223-4.267 7.125.471.954 1.893 4.286 5.226 6.653 5.228 4.764 11.888 4.764 15.694 0zm-19.507-43.263c1.431-1.425 1.431-1.425 2.382-.47l2.864 2.843c1.894 1.431 2.373 2.862 2.373 4.281 0 .954-.48 2.373-.96 3.804.48.954.96 1.425 1.431 1.425 1.894-2.856 4.287-5.7 4.758-6.177-.471-.471-2.376-1.902-5.229-4.275l-7.619-6.66c-1.413-1.901-3.318-3.326-5.228-5.228 0 0-.943.942-.943 1.902l.943.471c.95 1.902.95 2.385-1.902 5.229l-11.888 13.787c-2.844 3.327-3.807 3.327-5.229 1.907l-1.422-.953c-.96 0-1.913.953-1.43 1.43 2.372 2.373 4.274 3.327 6.176 5.229l4.758 4.275c2.855 2.384 5.708 5.705 8.09 7.607 1.422-.948 4.754-2.85 6.66-4.751 0-.472-.49-1.425-.96-1.425-5.697 2.373-7.131 1.425-10.455-1.431-2.373-1.902-2.864-3.327-2.373-4.275 0-.954.471-2.385 2.373-4.286l3.324-3.798c1.434-.96 1.434-.96 2.376 0l2.382 1.907c1.901 1.89 1.901 2.373.95 4.275l-.48.948c-.47.954.48 1.902.96 1.425l3.798-3.798c.951-1.43 2.373-2.85 3.333-3.804 0-.482-.96-.953-1.902-.953l-.48.47c-1.902 1.437-2.844 1.437-4.278-.47l-2.381-1.902c-1.422-.948-.943-1.43-.471-2.373l5.7-6.186zm-27.1-25.198c.951-.948 1.431-1.43 2.373-1.902.48 0 1.431.471 1.902 1.431 6.66 6.177 6.188 12.833 0 19.487-4.275 4.757-11.888 8.084-17.585 2.384-.96-1.43-1.902-2.855-1.902-3.803 0-1.914.943-2.856 3.324-4.758l11.888-12.839zm-18.544 9.035c-2.856 3.327-3.327 3.327-5.229 2.385l-1.43-.96-.952.96 5.718 5.223c.942 1.425 2.364 3.327 3.795 4.757 3.806 3.798 7.13 5.7 10.937 6.66 5.708 1.89 11.414.471 16.171-4.287 3.807-4.274 5.709-10.466 2.376-17.113-1.433-2.856-3.806-5.706-6.66-8.562-3.803-3.803-6.659-6.176-9.503-8.56-.47-.472-1.43.47-1.43.959l.96.47c.941 1.903.47 2.374-2.383 5.7l-12.37 12.368zm-.471-17.116c2.844-2.856 5.708-4.758 7.13-5.706.951-.471 1.43 0 2.853.948l.48.471c.942 0 1.425-.942 1.425-1.419l-3.807-3.804c-1.43-.942-2.853-2.855-4.275-4.269-.96 0-1.433.471-1.433.943l.47.948c.96 1.436 1.903 1.907.96 2.855-.48 1.425-2.864 4.275-5.708 7.122l-4.286 4.758c-.951.488-1.423.96-1.894 1.43.471-1.901.471-3.797.471-7.13l.472-6.654c.95-6.182.95-10.931 2.381-12.833-.95-.477-1.902-1.913-2.853-3.333-1.904-1.424-3.335-2.855-4.757-4.274-.471-.472-.951.47-1.422.948l.95.953c.952 1.42.952 2.373.472 3.322 0 .953-.471.953-2.373 2.855l-8.561 8.561c-2.853 3.327-5.709 5.23-7.13 5.7-.472.471-1.432 0-2.862-.47l-.943-.472s-.95.942-.95 1.413c.95 1.431 2.852 2.38 4.283 3.81l4.27 4.275.959-.948-.48-1.425c-.48-.96-1.422-1.902-1.422-2.862.942-1.419 3.332-3.792 5.697-6.648l6.66-6.659 2.384-1.902c.47.96 0 3.804-.48 8.09l-1.905 17.114a23.3 23.3 0 0 1-.95 6.66c.95.942 2.384 1.419 2.855 1.419.95-1.42 3.332-3.321 5.708-5.706l7.61-8.081zm-38.994-34.71c-.471-.472-.951-.472.47-.949l3.807-1.425c1.902-1.43 4.284-1.902 4.755-2.373 0 .943-.942 2.844-2.373 4.746l-2.382 3.327c0 1.43-.47.96-1.424 0l-2.853-3.327zm.942 5.708c1.43.954 1.43 1.43.96 2.373l-1.902 3.338c-.951 1.89-1.431 2.85-1.902 2.85h-1.422l-1.434-1.43c-.47 0-1.43.47-1.43 1.43l4.757 4.746 4.284 5.711c.48 0 1.424-.47 1.424-1.425l-.942-1.43c-.96-1.431 0-2.856.942-5.229l10.472-17.114 3.318-6.177c.48-.482.48-.96 0-1.43 0 0-3.318 0-4.748-1.425-.96.942-3.336 1.425-5.718 2.855l-11.888 4.275c-3.324 1.425-5.697 2.373-8.072 2.373-1.431.954-2.862.483-3.333-.47l-1.425-.949c-.48 0-1.43.948-.96 1.42a31.573 31.573 0 0 0 3.336 3.803c.95 1.902 2.382 2.856 3.324 4.746.96 0 1.433-.942 1.433-1.413l-.47-1.431c-.96-.948-.96-1.42-.48-1.42.48-.482.48-.959 1.424-.959l5.226-2.373c.96-.471.96-.471 1.914.471l3.312 4.284zm-9.032-37.084c1.43-1.43 1.902-1.43 3.332 0 2.385 2.856 1.434 7.131-1.902 9.507-1.901 1.902-3.795 2.384-4.757 1.902-1.43 0-2.373-.477-3.324-1.902-1.905-1.89-1.905-2.373-.951-3.321l7.602-6.186zm-19.961 8.085c-3.336 2.844-3.815 2.844-5.717 1.419l-.943-.948c-.48 0-1.43.948-1.43 1.43 1.43 1.902 3.332 3.322 4.754 5.23 1.905 1.419 2.856 3.32 4.278 5.693.96 0 1.902-.942 1.902-1.419l-.942-.954c-.96-1.901-.96-2.373 2.375-5.228l4.755-3.804c.471-.948.471-.948 1.902.483.471.942.954 1.901.471 3.32-1.43 2.38-2.853 4.758-3.804 7.602-.95 3.816-.95 7.13 1.902 10.466 1.431.954 2.385 2.385 2.856 2.856.95 0 1.43-.96 1.43-1.43a4.31 4.31 0 0 1-1.43-3.328c0-2.844 1.902-7.13 4.755-13.31.48-.477.48-.948.953-.948 1.894 1.42 5.226 2.373 8.553-.47 2.373-1.908 3.333-4.758 2.861-7.614-.488-2.373-2.381-5.234-4.754-8.561l-8.09-9.03c-.471 0-1.431.96-1.431 1.43l.488.943c1.422 1.908.943 1.908-2.381 5.223l-13.313 10.949zm-4.758-10.46c1.893-1.431 2.373-1.431 3.798-.489l.96.489.942-.489c-.942-1.902-2.373-3.315-3.807-5.223-.95-1.902-2.852-3.81-4.274-6.653-.951-.477-1.905.482-1.422.953l.942 1.89c.96 1.908.96 2.397-1.425 3.81l-2.373 1.908c-2.373 1.413-3.336 1.413-4.758-.948-.95-1.431-2.373-3.333-2.373-6.188 0-3.804 1.902-8.076 7.13-11.886 6.66-4.751 13.79-5.7 18.069.948 2.852 3.333 2.381 7.13 0 11.42 0 0 .48 1.42.95.937 1.902-1.89 4.758-4.264 5.709-4.746-.951-.948-1.422-4.275-4.278-8.559-2.853-3.32-5.717-6.182-9.032-7.13-5.717-3.333-11.888-2.373-16.643 1.43-5.706 3.793-7.619 9.984-6.188 16.16.954 3.327 1.905 6.183 3.798 8.562 1.91 2.373 4.754 5.228 6.188 6.648 1.43.482 2.373 1.425 2.853 1.907s.95-.482.95-.953c-.47-.472 0-.954 1.905-2.374l2.38-1.424zm672.741-21.613c-1.422-.954-1.901-.954-.95-2.385l2.373-3.792c.96-1.908 2.381-2.867 3.812-3.338.942 0 2.847 0 4.749.47 0 0 .95-1.413.48-1.89l-7.14-3.332c0 .96-1.901 2.85-3.324 6.182l-5.234 9.036c-1.413 2.384-2.847 4.275-4.278 6.176 0 .483.951 1.437 1.431 1.437l.95-1.437c1.426-1.419 1.897-1.901 6.18.483l16.163 9.983c3.816 2.373 3.816 2.856 3.333 4.758l-.95 2.373c-.48.954.95 1.425 1.904.954 1.902-2.856 2.844-5.229 3.804-7.614l3.324-5.222 6.656-10.466c-.95-1.425-4.283-4.275-5.697-5.7-.96 0-1.91.47-1.43.942 3.332 5.717 2.372 7.13.47 10.949-2.373 3.32-2.852 3.792-4.283 3.792-.942.483-2.373-.471-4.27-1.42l-5.234-3.326c-1.422-.954-1.422-.954-.95-1.902l1.901-3.333c1.422-2.373 1.902-2.373 4.284-1.424l1.425.482c.471 0 1.43-1.43.94-1.43-1.411-.954-3.325-1.902-4.747-2.856-1.902-1.43-3.324-2.373-4.754-2.856 0-.465-.951.954-.951 1.425l.95.96c1.902 1.425 1.902 2.373.48 4.275l-1.43 3.326c-.943.948-.943.948-2.373.471l-7.614-4.751m-18.535 28.999c-1.902-1.42-1.902-1.42-.489-3.321 1.902-3.327 6.185-3.804 9.992-.954 2.385 1.896 2.856 3.327 3.327 4.275.471 1.902-.471 2.855-1.425 4.275-1.43 2.373-1.43 2.373-3.333 1.43l-8.072-5.705zm13.79 18.067c3.795 2.856 3.795 3.327 2.844 5.23l-.472 1.43c0 .471.951.948 1.902 1.419 1.422-2.85 2.373-4.275 3.795-6.648 1.431-1.902 2.853-3.804 4.758-5.705-.471-.483-1.422-1.425-1.905-1.425l-.942 1.425c-1.91.948-1.91.948-6.185-1.425l-5.226-3.333c-.471-.948-.471-.948.47-2.384.96-.943 1.432-1.408 2.854-1.408 2.852.936 6.176.936 8.558 1.408 4.278.482 8.082-.943 10.466-4.747 1.422-1.419 1.902-2.378 1.902-4.28h-.96c-.942.477-1.902 1.43-3.324 1.902-2.852.477-7.61 0-14.74-.943-.951 0-.951 0-.951-.96 0-2.366.48-6.17-3.333-8.558-2.847-1.901-5.7-1.901-8.555-.942-2.382.942-5.235 3.798-7.61 7.13l-6.657 10.926c0 .472.96.954 1.43.954l.951-.954c1.422-1.901 1.902-1.43 6.18 1.908l14.75 9.98zm-17.606 6.66c6.66 4.752 9.987 10.454 6.18 15.683-4.758 7.136-14.261 2.861-19.49-.471-6.656-5.229-9.512-11.408-5.705-16.643s11.414-3.798 19.015 1.43zm-20.917-2.856c-6.18 8.553-4.278 19.016 3.795 25.195 9.04 6.189 18.544 4.281 24.733-3.792 6.656-9.035 5.225-19.015-3.795-25.678-8.09-6.19-18.557-4.286-24.733 4.275zm-9.995 40.416c-1.414-1.902-1.414-1.902.488-3.804 2.844-3.803 7.13-3.803 10.458-.482 3.332 2.384 4.275 5.711 1.902 8.561-2.853 3.327-5.226 1.896-8.082-.477l-4.766-3.798zm-10.457-9.51c-1.902-1.901-1.902-1.901-.472-3.332 2.373-2.85 5.7-3.798 9.036-.942 2.381 2.373 3.324 5.223.95 8.553-1.901 2.378-1.901 2.378-3.332.948l-6.182-5.226zm11.416 19.493c3.804 2.845 3.804 3.327 2.853 5.23l-.95 1.43c-.48.471.47 1.413 1.421 1.413l4.758-6.165c.95-.965 2.853-2.384 4.275-3.81 1.902-2.378 3.804-5.222 5.226-9.038 1.433-2.844.962-6.647-2.373-9.983-4.275-2.844-8.082-1.902-11.409.477h-.95s0-.477.47-.948c.48-1.43 1.431-5.229-1.422-8.09-2.373-2.373-4.754-2.373-7.136-1.896-2.856.954-5.229 3.327-9.026 6.66l-7.62 9.982c-.47.954.963 1.425 1.434 1.425l.951-.953c1.422-1.42 1.902-.948 6.177 2.384l13.321 11.882zm-24.724 15.212c-.95.954-.95.954-1.91-.476l-1.902-3.327-2.844-5.235c.942 0 3.332 1.431 5.226 2.39l4.274 1.897c.963 0 .963.477 0 1.43l-2.844 3.321zm5.229-1.907c.95-.942 1.422-.942 1.902-.942l4.754 1.901c1.902.472 2.845 1.431 2.845 1.431.48.471.48.942 0 1.896l-.943 1.43c0 .472.471.943 1.905 1.42.94-2.373 2.373-3.804 4.275-5.705l5.226-5.7c0-.471-.943-1.431-1.431-.96l-1.413.96c-1.91.942-2.862.47-5.718-.471l-19.958-8.562c-3.332-1.43-5.234-1.902-6.656-2.85-.491-.47-.962 0-1.434.472 0 0 .472 2.85-.47 5.222.942.966 1.904 2.856 3.326 5.718l6.177 11.879 4.283 7.607c.471 2.38.471 3.327-.488 3.798l-.942 1.902c0 .483.942.954 1.43 1.431 1.905-2.373 2.376-3.333 3.807-4.752s2.853-2.855 4.266-3.81c0-.942-.942-1.901-1.413-1.901l-1.431.96c-.951.942-1.422 1.413-1.422.942-.48-.471-.96-.471-1.43-1.42l-2.865-5.234c-.942-.942-.942-.942 0-1.896l3.818-4.766zm-35.19 15.218c-3.333-3.321-3.333-4.275-2.373-5.695l.942-.96c0-.941-.471-1.9-.942-1.9-1.902 2.378-3.333 4.28-5.226 5.71-1.905 1.897-3.815 3.327-6.188 5.23 0 .47.95 1.43 1.43.941l1.423-.47c1.43-1.431 2.373-1.431 5.708 2.372l13.31 13.793c2.853 2.85 3.333 3.321 1.902 5.223l-1.422 1.913c0 .471.471.943 1.902 1.42l5.226-6.177 4.757-4.752c2.853-2.856 6.657-6.188 9.033-7.602-.951-1.913-2.845-5.717-4.747-8.09-.488 0-1.43.954-1.43.954 1.902 6.648.942 7.607-2.382 10.931-2.847 2.845-3.327 2.845-4.278 2.845-1.422 0-2.852-.943-4.283-2.845l-12.362-12.841zm-25.678 37.566c-.951.47-1.43.948-1.902-.483l-1.43-3.321-1.903-6.183c.96.483 2.862 1.897 4.764 3.327l3.795 2.385c.96.47.96.942 0 1.419l-3.324 2.856zm5.229-.483c1.433-1.42 1.904-1.42 2.384-.948l3.804 2.85c1.902.471 2.844 1.43 3.324 1.902 0 .47 0 .47-.951 1.436l-.951 1.42c-.48.47 0 1.43 1.422 1.901 1.422-1.902 2.853-3.32 4.757-5.228l6.657-4.281c0-.942-.471-1.902-.942-1.425l-1.91.483c-1.903.942-2.854.47-5.71-1.431l-18.064-11.42c-3.324-1.89-4.755-3.321-5.706-4.263h-1.904s.47 3.32-1.431 5.223c1.43.942 1.43 3.326 2.384 6.17l4.275 12.851c1.431 3.792 1.902 6.177 2.382 8.553.48 1.902 0 2.861-.951 3.803l-.951 1.431c0 .471.48.942.951 1.425 2.373-1.425 2.853-2.856 4.283-4.286 1.902-.471 3.798-1.902 5.23-2.844 0-.954-.48-1.902-.952-1.902l-1.433.477c-1.431.942-1.902.942-1.902.942-.471-.471-.943-.942-.943-1.902l-2.381-5.694c-.471-.965-.471-.965.471-1.908l4.758-3.335zm-22.823 22.825c2.853 3.804 2.853 4.28 1.43 6.183l-1.901 1.425c0 .477 0 1.419 1.413 1.419l6.186-5.223c1.902-1.425 4.286-2.844 7.13-4.746 0-.96-.942-1.43-1.422-1.43l-1.902.941c-1.904.96-2.855.96-5.228-2.85l-13.799-18.061c-.942-.954-.47-1.431.489-2.373l2.373-1.431c2.855-2.856 4.757-.954 8.081.948 0 .483.951-.477.951-.948-1.902-2.373-3.804-6.183-4.755-7.602 0 0-.48 0-.48.471h-.47c0 1.431-.472 1.902-2.856 3.804l-15.22 11.891c-3.325 1.89-3.796 1.89-4.267 1.42-.48 0-.48 0-.48.47-.48 0-.48 0-.48.483.48 1.902 2.382 4.28 3.804 8.081.48.472 1.422-.47 1.902-.953-.951-3.804-1.422-6.177.95-8.559l2.857-1.907c.942-.943 1.43-.471 1.901.494l13.793 18.053zm-37.563-7.13c-4.275 2.85-8.09 7.13-9.506 11.885-1.431 4.275-1.431 9.506 1.893 14.264 3.335 5.717 8.081 7.607 12.368 8.09 4.757.471 9.986-.96 14.26-3.333 3.328-2.378 5.7-5.7 7.611-8.084 0-.948-.95-4.275-2.853-7.602-.47 0-1.43.471-1.902.943.472 3.326.472 8.56-4.757 11.89-4.755 3.816-12.84 1.902-18.545-6.659-5.225-8.561-2.844-15.689 2.382-19.016 4.275-2.373 8.561-2.373 11.888 1.431.48 0 1.902-.954 1.422-1.902-1.902-1.902-4.275-5.7-4.746-6.66-.96.955-5.24 1.897-9.515 4.753zm-35.19 45.162c2.373 5.228 5.229 8.09 8.561 8.56 3.804.949 7.13 0 10.466-1.43 3.324-1.902 6.168-5.229 7.128-8.558.942-4.275-.471-8.082-2.862-12.368l-2.852-4.752-3.316-9.024c0-.953.943-1.907 1.902-2.855l.942-.483c0-.471-.47-1.43-.942-1.43-1.902.488-3.332 1.913-5.237 2.39-1.91.942-3.324 1.896-6.177 2.855 0 .471 0 1.896.951 1.896l1.413-.482c1.431-.471 2.39-.943 3.333 0 .95.96 2.856 4.286 4.758 8.09l3.332 5.7c2.853 6.182 3.795 11.885-2.373 14.74-7.148 3.804-10.466-1.896-12.848-7.13L606.51 943.6c-2.382-4.287-1.893-4.758 0-6.189l.951-.942c.483-.483-.471-.96-.471-1.43-2.373 1.43-4.755 2.85-7.128 3.803-1.902.942-4.283 2.373-6.66 2.85 0 .471 0 1.908.955 1.908l1.422-.483c1.901-.471 2.381-.471 4.283 3.804l6.177 11.414zm-19.975 9.04c-1.422.472-1.422.472-1.894-.947l-.47-3.804c0-2.856 0-4.758-.49-6.66 1.432.949 2.382 2.856 3.805 4.275l3.323 3.327c.96.96.489 1.43-.47 1.902l-3.804 1.908zm5.234.472c1.422-.471 1.902-.471 2.373 0l3.327 3.327c1.43 1.43 2.381 2.384 2.381 2.855 0 0 0 .948-.95 1.42l-1.431.959c-.471.471 0 .942.96 1.896 1.901-1.425 3.794-2.367 6.168-3.327l7.139-2.85c0-.953-.48-1.907-.48-1.907l-2.376.471c-1.902.483-2.373-.471-4.755-2.844l-14.732-15.212c-2.861-2.862-3.812-4.28-4.755-5.706-.47-.477-.96-.477-1.43-.477 0 0-.951 2.85-2.856 4.28.48 1.903.48 3.805.951 7.131l.954 13.31v9.036c0 1.43-.483 2.373-1.425 3.332l-1.91.954c0 .466.48 1.42.959 1.902 2.376-.965 3.327-1.902 5.229-2.856 2.373-.96 3.803-1.43 5.697-1.901 0-.472-.472-1.902-.472-1.902l-1.901.47c-1.423 0-1.902 0-1.902-.47 0 0-.471-.483-.471-1.431l-.48-6.177c-.471-1.436-.471-1.436.95-1.907l5.238-2.376z" fill="#ee3e33"/></g></svg>