<svg xmlns="http://www.w3.org/2000/svg" xmlns:xlink="http://www.w3.org/1999/xlink" width="6136.75" height="6644.556" viewBox="0 0 1623.682 1758.039"><style>.B{fill-rule:evenodd}.D{fill:#fff}.E{stroke-width:.945}.F{fill:#fc0}.G{fill:none}.H{fill:#d4b576}.I{stroke-width:1.156}.J{stroke-width:.937}</style><g class="B"><path d="M811.926 1563.699s606.56-266.68 606.56-944.42V5.404H205.366v613.873c.001 677.74 606.56 944.421 606.56 944.421z" fill="#039"/><path d="M103.598-159.743-464.233 280.13c26.21 70.632 70.865 141.212 103.34 181.595l467.798-358.507 468.249 358.507c49.722-62.428 60.55-113.756 94.01-181.595z" stroke="#b3b3b3" stroke-width="6.096" class="D" transform="matrix(1 0 0 1.16843 706.926 584.557)"/></g><g stroke="#b67c00" class="F"><g class="B" style="stroke-width:1.099"><g transform="matrix(2.32548 .48537 -.45249 1.67673 749.09 27.278)"><use xlink:href="#B"/><use xlink:href="#C"/><use xlink:href="#D"/><use xlink:href="#E"/><use xlink:href="#F"/><use xlink:href="#G"/><use xlink:href="#H"/><use xlink:href="#I"/><use xlink:href="#J"/><use xlink:href="#K"/><use xlink:href="#L"/><use xlink:href="#M"/><use xlink:href="#N"/><use xlink:href="#O"/><use xlink:href="#P"/><use xlink:href="#Q"/><use xlink:href="#R"/><use xlink:href="#S"/><use xlink:href="#T"/></g><g transform="matrix(-2.32505 .487 .45402 1.67642 1497.92 26.961)"><use xlink:href="#B"/><use xlink:href="#C"/><use xlink:href="#D"/><use xlink:href="#E"/><use xlink:href="#F"/><use xlink:href="#G"/><use xlink:href="#H"/><use xlink:href="#I"/><use xlink:href="#J"/><use xlink:href="#K"/><use xlink:href="#L"/><use xlink:href="#M"/><use xlink:href="#N"/><use xlink:href="#O"/><use xlink:href="#P"/><use xlink:href="#Q"/><use xlink:href="#R"/><use xlink:href="#S"/><use xlink:href="#T"/></g></g><g transform="matrix(.3844 -.70421 .54189 .49637 967.672 330.418)" stroke-width="3.079"><path d="M109.248 229.416 372.916 49.044c16.964-11.24 19.853-26.67 22.35-41.88-13.789-3.28-30.67-5.262-46.937 7.831L94.336 208.766Z"/><path d="m103.334 217.362-6.153-8.52L348.985 16.658c13.346-10.77 27.295-11.018 39.458-8.783 2.81.551 4.093.995 4.142 1.056z" opacity=".664"/><path d="M24.91 275a18.631 10.53 54.293 1 1-.035-.048"/><use xlink:href="#U"/><path d="m86.566 209.616-73.682 55.898c-1.693 1.505.632 7.857 5.327 14.354s9.989 10.69 11.947 9.55l76.083-52.556z"/><path d="m4.357 271.848 28.731 15.179 3.083.179 2.188-1.562.147-2.187-29.283-15.38H6.307l-2.188 1.561.238 2.21zm53.568-40.875 32.662 16.545 3.064.106 2.213-1.581.196-2.148-33.207-16.73-2.902.065-2.214 1.581.188 2.162zm-44.498 34.108 29.054 15.35 3.117.18 2.212-1.579.15-2.212-29.613-15.552h-2.949l-2.212 1.579.24 2.234zm8.771-6.78 30.032 15.506 3.097.153 2.213-1.58.166-2.188-30.585-15.702-2.931.024-2.213 1.58.221 2.207zm8.865-6.863 30.889 15.781 3.047.135 2.186-1.561.175-2.147-31.433-15.972-2.885.039-2.185 1.56.206 2.165zm8.899-6.678 31.546 15.78 3.069.113 2.213-1.58.192-2.154-32.093-15.968-2.906.06-2.213 1.58.192 2.169zm9.133-6.797 31.8 15.97 3.055.093 2.213-1.581.204-2.137-32.342-16.152-2.895.077-2.213 1.581.178 2.149zm18.025-13.784 32.792 16.727 3.072.117 2.213-1.581.19-2.157-33.34-16.915-2.908.056-2.214 1.581.195 2.172z" class="B"/><path d="M12.93 265.455a18.631 10.53 54.197 1 0 17.263 23.904l-.064.046c-1.958 1.139-7.231-3.046-11.926-9.543s-7.029-12.856-5.336-14.361l.064-.046z"/><use xlink:href="#U"/><g class="B"><path d="M142.22 256.452c-3.44-4.765-8.518-5.783-13.918-4.66l-57.08-78.978c-4.897-5.217-13.034-6.124-18.983-1.818-6.462 4.677-7.913 13.712-3.242 20.181 3.441 4.765 8.518 5.782 13.918 4.66l57.08 78.978c4.898 5.217 13.034 6.124 18.984 1.818 6.461-4.677 7.912-13.712 3.241-20.181z"/><use xlink:href="#V"/><use xlink:href="#W"/><use xlink:href="#X"/><use xlink:href="#Y"/><use xlink:href="#Z"/><g transform="scale(-1 1) rotate(72.649 -87.15 93.847)"><use xlink:href="#V"/><use xlink:href="#W"/><use xlink:href="#X"/><use xlink:href="#Y"/><use xlink:href="#Z"/></g></g><rect width="83.36" height="3.593" x="195.685" y="51.764" ry="1.349" transform="rotate(54.166) skewX(.062)"/></g></g><g stroke="#b3b3b3" stroke-width="1.368"><path d="m87.774 244.57.618 1.918 1.884-.714-1.115 1.68 1.733 1.028-2.008.174.277 1.997-1.389-1.461-1.388 1.46.276-1.996-2.007-.174 1.733-1.029-1.116-1.679 1.885.714z" transform="matrix(4.6118 0 0 4.04544 403.681 361.82)"/><path d="m87.775 227.422-3.923 12.2-11.985-4.538 7.092 10.672-11.022 6.54 12.768 1.112-1.76 12.694 8.828-9.29 8.83 9.29-1.76-12.694 12.768-1.111-11.021-6.541 7.092-10.672-11.985 4.537z" class="D" transform="matrix(4.6118 0 0 4.04544 403.681 361.82)"/><path d="m45.441 177.542.617 1.918 1.885-.714-1.115 1.68 1.733 1.028-2.008.175.277 1.996-1.389-1.46-1.388 1.46.276-1.996-2.008-.175 1.733-1.029-1.115-1.679 1.885.714z" transform="matrix(4.6118 0 0 4.04544 403.681 361.82)"/><path d="m45.441 160.395-3.923 12.199-11.985-4.54 7.092 10.675-11.021 6.54 12.767 1.112-1.758 12.693 8.828-9.289 8.829 9.29-1.758-12.694 12.765-1.111-11.02-6.541 7.093-10.674-11.985 4.539z" class="D" transform="matrix(4.6118 0 0 4.04544 403.681 361.82)"/><path d="m87.774 131.68.618 1.92 1.884-.715-1.115 1.68 1.733 1.028-2.008.174.277 1.997-1.389-1.461-1.388 1.461.276-1.997-2.007-.174 1.733-1.029-1.116-1.679 1.885.714z" transform="matrix(4.6118 0 0 4.04544 403.681 361.82)"/><path d="m87.775 114.533-3.923 12.2-11.985-4.538 7.092 10.672-11.022 6.541 12.768 1.112-1.76 12.693 8.828-9.29 8.83 9.29-1.76-12.693 12.768-1.112-11.021-6.54 7.092-10.673-11.985 4.537z" class="D" transform="matrix(4.6118 0 0 4.04544 403.681 361.82)"/><path d="m125.404 166.253.617 1.918 1.885-.713-1.115 1.678 1.733 1.029-2.008.175.277 1.996-1.389-1.46-1.388 1.46.276-1.996-2.008-.175 1.733-1.029-1.115-1.678 1.885.713z" transform="matrix(4.6118 0 0 4.04544 403.681 361.82)"/><path d="m125.404 149.105-3.924 12.2-11.984-4.537 7.092 10.671-11.022 6.541 12.768 1.112-1.758 12.693 8.828-9.289 8.828 9.29-1.757-12.694 12.765-1.112-11.02-6.54 7.093-10.672-11.985 4.537z" class="D" transform="matrix(4.6118 0 0 4.04544 403.681 361.82)"/><path d="m104.708 196.514.487 1.195 1.288.095-.986.833.308 1.254-1.097-.68-1.097.68.308-1.254-.987-.833 1.288-.095z" transform="matrix(4.6118 0 0 4.04544 403.681 361.82)"/><path d="m104.707 182.613-4.12 10.098-10.874.799 8.33 7.037-2.604 10.59 9.268-5.748 9.268 5.748-2.602-10.59 8.33-7.037-10.877-.8zm0 15.625.137.098-.051.16h-.17l-.05-.16z" class="D" transform="matrix(4.6118 0 0 4.04544 403.681 361.82)"/></g><g stroke="#a36800" class="F"><path d="M16.452 143.087v32.898h24.43v-32.898zm3.007 6.224h8.644v20.45H19.46z" class="I" transform="matrix(2.05703 0 0 2.20109 224.076 -24.015)"/><path d="M230.56 153.288h7.946s-3.113-13.27 3.974-13.27 3.973 13.27 3.973 13.27 5.322-6.016 5.322 7.32-5.322 7.318-5.322 7.318 2.418 11.367-3.973 11.367-3.974-11.367-3.974-11.367h-7.946v-7.319z" stroke-width=".685" transform="matrix(2.05703 0 0 2.20109 224.076 -24.015)"/><path d="M16.45 80.371v32.884h24.43V80.37Zm3.008 6.221h8.644v20.441h-8.644z" class="I" transform="matrix(2.05703 0 0 2.20109 224.076 -24.015)"/><path d="M230.56 91.218h7.946s-3.841-11.41 3.974-11.41 3.973 11.41 3.973 11.41 5.322-5.173 5.322 6.293-5.322 6.292-5.322 6.292 2.904 9.773-3.973 9.773-3.974-9.773-3.974-9.773h-7.946v-6.292z" stroke-width=".635" transform="matrix(2.05703 0 0 2.20109 224.076 -24.015)"/></g><g stroke="#9c6000"><g class="J F" transform="matrix(2.23411 0 0 2.20109 200.35 -24.015)"><use xlink:href="#a" class="B"/><use xlink:href="#a"/><path d="M126.395 182.8v12.297s1.448-1.391 3.188-1.391 3.703 4.178 3.703 4.178 1.96-4.178 3.703-4.178 3.186 1.391 3.186 1.391V182.8"/></g><g class="E F" transform="matrix(2.23411 0 0 2.20109 200.35 -24.015)"><use xlink:href="#b" class="B"/><use xlink:href="#b"/></g><g class="D E" transform="matrix(2.23411 0 0 2.20109 200.35 -24.015)"><use xlink:href="#c" class="B"/><use xlink:href="#c"/></g><g class="E H" transform="matrix(2.23411 0 0 2.20109 200.35 -24.015)"><use xlink:href="#d" class="B"/><use xlink:href="#d"/></g><g class="D E" transform="matrix(2.23411 0 0 2.20109 200.35 -24.015)"><use xlink:href="#e" class="B"/><use xlink:href="#e"/></g><g class="E H" transform="matrix(2.23411 0 0 2.20109 200.35 -24.015)"><use xlink:href="#f" class="B"/><use xlink:href="#f"/></g><g class="E" transform="matrix(2.23411 0 0 2.20109 200.35 -24.015)"><use xlink:href="#g" class="B D"/><use xlink:href="#g" class="G"/><g class="F"><use xlink:href="#h" class="B"/><use xlink:href="#h"/></g><g class="D"><use xlink:href="#i" class="B"/><use xlink:href="#i"/></g><use xlink:href="#j" class="B H"/><use xlink:href="#j" class="G"/><g class="D"><use xlink:href="#k" class="B"/><use xlink:href="#k"/></g><use xlink:href="#l" class="B H"/><use xlink:href="#l" class="G"/></g><g class="J" transform="matrix(2.23411 0 0 2.20109 200.35 -24.015)"><use xlink:href="#m" class="B D"/><use xlink:href="#m" class="G"/></g><path d="M60.67 73.547s11.544 2.18 18.239 2.18 22.854-3.85 28.395-3.85 9.746.344 13.77 1.902c2.086.808 6.09 3.537 6.09 3.537m-66.829 3.678s11.544 2.18 18.239 2.18 22.855-2.932 28.395-2.932 12.705 2.845 14.774 3.737c2.014.87 6.09 3.767 6.09 3.767m-67.498 75.062s11.544 2.18 18.239 2.18 22.855-1.556 28.395-1.556 12.927 2.18 14.774 3.738 6.09 4.225 6.09 4.225M60.335 95.888s11.544 2.18 18.239 2.18 22.855-1.555 28.395-1.555 12.927 2.18 14.774 3.737 6.09 4.226 6.09 4.226m-67.498 5.972s11.544 2.18 18.239 2.18 22.855-1.556 28.395-1.556 12.927 2.18 14.774 3.738 6.09 4.226 6.09 4.226m-67.498-.453s11.544 2.18 18.239 2.18 22.855-1.555 28.395-1.555 12.927 2.18 14.774 3.737 6.09 4.226 6.09 4.226m-67.498.236s11.544 2.18 18.239 2.18 22.855-1.555 28.395-1.555 12.927 2.18 14.774 3.737 6.09 4.226 6.09 4.226m-67.498.465s11.544 2.18 18.239 2.18 22.855-1.555 28.395-1.555 12.927 2.18 14.774 3.737 6.09 4.226 6.09 4.226m-67.498.466s11.544 2.18 18.239 2.18 22.855-1.556 28.395-1.556 12.927 2.18 14.774 3.738 6.09 4.225 6.09 4.225m-67.498-.223s11.544 2.18 18.239 2.18 22.855-1.555 28.395-1.555 12.927 2.18 14.774 3.738 6.09 4.225 6.09 4.225M60 102.82S71.545 105 78.24 105s22.854-1.555 28.394-1.555 12.927 2.18 14.774 3.738 6.425 4.225 6.425 4.225M60.335 88.441s11.544 2.18 18.239 2.18 22.855-1.555 28.395-1.555 12.927 2.18 14.774 3.737 6.09 4.226 6.09 4.226M60.335 64.723s11.544 2.18 18.239 2.18 22.855-2.932 28.395-2.932 11.133-.002 13.267.525c3.52.87 7.675 3.844 7.675 3.844m78.214 4.275s-11.544 2.18-18.239 2.18-22.854-3.85-28.395-3.85-9.747.344-13.77 1.902c-2.086.808-6.09 3.537-6.09 3.537m66.829 3.678s-11.544 2.18-18.24 2.18-22.854-2.932-28.394-2.932-12.706 2.844-14.774 3.737c-2.014.87-6.09 3.767-6.09 3.767m67.498 75.062s-11.544 2.18-18.24 2.18-22.854-1.556-28.394-1.556-12.927 2.18-14.774 3.738-6.09 4.225-6.09 4.225m67.498-75.507s-11.544 2.18-18.24 2.18-22.854-1.555-28.394-1.555-12.927 2.18-14.774 3.737-6.09 4.226-6.09 4.226m67.498 5.972s-11.544 2.18-18.24 2.18-22.854-1.556-28.394-1.556-12.927 2.18-14.774 3.738-6.09 4.226-6.09 4.226m67.498-.453s-11.544 2.18-18.24 2.18-22.854-1.555-28.394-1.555-12.927 2.18-14.774 3.737-6.09 4.226-6.09 4.226m67.498.236s-11.544 2.18-18.24 2.18-22.854-1.555-28.394-1.555-12.927 2.18-14.774 3.737-6.09 4.226-6.09 4.226m67.498.465s-11.544 2.18-18.24 2.18-22.854-1.555-28.394-1.555-12.927 2.18-14.774 3.737-6.09 4.226-6.09 4.226m67.498.466s-11.544 2.18-18.24 2.18-22.854-1.556-28.394-1.556-12.927 2.18-14.774 3.738-6.09 4.225-6.09 4.225m67.498-.223s-11.544 2.18-18.24 2.18-22.854-1.555-28.394-1.555-12.927 2.18-14.774 3.738-6.09 4.225-6.09 4.225m67.832-59.646s-11.543 2.18-18.238 2.18-22.855-1.555-28.395-1.555-12.927 2.18-14.774 3.737-6.425 4.226-6.425 4.226m67.498-22.967s-11.544 2.18-18.24 2.18-22.854-1.555-28.394-1.555-12.927 2.18-14.774 3.737-6.09 4.226-6.09 4.226M206.46 63.79s-11.544 2.18-18.24 2.18-22.854-2.931-28.394-2.931-11.133-.002-13.267.525c-3.521.87-7.675 3.844-7.675 3.844" stroke-width=".814" class="G" transform="matrix(2.23411 0 0 2.20109 200.35 -24.015)"/></g><path d="M105 837.999S-501.559 609.76-501.559 29.717v-525.384H711.56V29.717C711.559 609.76 105 837.999 105 837.999z" stroke="#b67c00" stroke-width="9.251" class="G" transform="matrix(1 0 0 1.16843 706.926 584.557)"/><g stroke="#000" stroke-width="10"><path d="m1531.311 1296.862-40.87 16.443 39.019 45.195-22.953 2.026-21.497 22.324-4.961 29.765 3.307 19.843 20.13 10.738s40.279 4.194 71.327-18.124c14.35-10.315 17.957-15.744 28.647-29.817 5.624-7.403 15.117-35.904 15.2-49.11.073-11.552-24.091-37.581-24.091-37.581l-31.014-11.703zm-1471.206 1.704-31.014 11.702S4.928 1336.299 5 1347.851c.083 13.207 9.576 41.707 15.2 49.11 10.691 14.073 14.297 19.502 28.648 29.817 31.048 22.318 71.327 18.124 71.327 18.124l20.13-10.737 3.307-19.843-4.961-29.765-21.497-22.324-25.628-5.027 35.079-43.848-34.256-14.789z" fill="#039"/><path d="m126.606 1313.357-35.079 43.848c15.201 3.118 35.779 13.981 43.848 26.309 6.95 10.618 7.512 30.31 4.677 42.679-2.033 8.869-13.252 12.473-19.878 18.709 10.39-5.67 27.317-4.349 32.735-15.235 7.962-15.995 10.345-27.08 20.373-41.668 3.829-7.755 6.413-22.899 6.413-22.899-13.466-16.384-32.08-35.935-53.09-51.743zm1365.437 1.88-16.501 12.541c-14.225 9.629-25.253 22.919-37.173 35.11-11.934 6.695 2.583 15.143 6.412 22.898 10.028 14.588 21.766 28.012 29.728 44.007 5.419 10.886 22.345 9.566 32.735 15.236-6.626-6.236-17.846-9.84-19.878-18.709-2.835-12.369-1.103-30.308 5.846-40.925 8.069-12.328 21.047-23.775 36.248-26.893z" fill="#8b7851"/><path d="M108.884 1169.958c43.264-14.032 74.537-9.04 105.81 13.67 25.075 18.21 46.213 35.129 65.515 61.924 30.52 42.368 49.202 72.011 75.584 114.751 18.955 30.71 41.925 59.534 66.353 84.536 32.077 32.831 68.989 68.513 113.378 93.964 36.352 20.842 84.023 43.179 128.159 53.874 38.035 9.218 92.264 17.102 151.746 17.377s129.935-9.691 192.133-35.297c48.067-19.788 96.393-44.278 135.919-82.055 70.066-66.968 125.497-146.52 182.196-227.011 21.23-30.138 45.642-58.696 75.822-76.746 27.803-16.627 59.089-22.858 92.825-23.1 25.143-.18 32.933 19.136 39.034 39.066 6.832 22.32 13.175 40.658 28.633 54.878 22.504 20.7 39.714 47.237 51.954 73.978-11.61-18.344-23.259-31.808-39.32-33.6-29.607-3.303-52.692-2.546-77.244 11.629-26.84 15.496-52.66 39.206-71.053 68.22-49.895 78.715-105.96 151.564-173.974 212.363-52.415 46.854-112.984 88.74-178.494 112.929-78.824 29.105-152.68 49.117-250.882 47.656s-157.146-6.1-231.799-33.518c-75.198-27.62-154.958-74.594-207.815-114.198s-78.733-72.332-113.443-111.185c-28.72-44.403-53.139-86.667-87.738-125.939-18.205-20.663-39.063-48.777-63.687-59.025-20.087-8.36-43.802-19.86-89.405 1.187 47.942-56.126 51.73-60.816 79.793-140.328z" fill="#ad9c8c"/></g><path d="M148.931 1223.402a18.183 18.183 0 0 0-18.185 18.186c0 10.043 8.142 18.185 18.185 18.185s18.184-8.142 18.184-18.185a18.184 18.184 0 0 0-18.184-18.186zm1325.99 0a18.188 18.188 0 0 0-18.184 18.186 18.19 18.19 0 0 0 18.184 18.185 18.186 18.186 0 1 0 0-36.371zm-87.76 40.362c-3.089 0-6.169.315-9.194.941-12.406 2.533-22.606 9.635-30.6 21.305-7.937 11.59-10.846 23.626-8.726 36.109 2.149 12.442 8.834 22.507 20.055 30.193s23.001 10.269 35.339 7.749 22.49-9.595 30.455-21.225c7.994-11.67 10.95-23.733 8.87-36.189s-8.73-22.526-19.952-30.212c-8.416-5.765-17.165-8.655-26.248-8.671zm-1121.24 10.548-70.974 17.113c-7.069 1.728-12.573 2.37-16.512 1.926s-7.124-1.935-9.553-4.472l-2.153 1.452 16.063 23.798 2.152-1.452c-2.008-5.805-1.393-9.8 1.846-11.987 1.517-1.024 3.844-1.908 6.98-2.653l12.268-2.91 17.681 26.197-8.45 11.88c-1.906 2.658-3.474 4.403-4.703 5.233-1.517 1.024-3.135 1.19-4.854.5-1.65-.676-3.786-2.337-6.407-4.984l-2.153 1.453 24.364 36.097 2.152-1.453c-1.884-3.322-2.466-6.66-1.744-10.01.762-3.38 3.076-7.865 6.94-13.456l43.865-62.187zm1105.193 3.945.797.016c8.585.245 18.57 4.266 29.955 12.064 10.813 7.407 17.802 15.102 20.967 23.085s2.33 15.504-2.506 22.563c-4.919 7.182-11.65 10.664-20.194 10.447s-18.142-3.973-28.792-11.268c-11.466-7.854-18.878-15.718-22.237-23.594s-2.55-15.445 2.425-22.708c4.874-7.116 11.403-10.65 19.585-10.605zm-1121.144 6.105-22.332 31.363-14.775-21.892zm58.344 61.07-2.033 1.616c.837 1.61 1.268 3.225 1.294 4.847.056 1.661-.232 4.955-.866 9.88l-47.22 37.528c-3.64 2.893-6.9 4.316-9.782 4.268-2.811-.04-5.76-1.487-8.85-4.339l-2.032 1.615 19.064 23.988 2.033-1.615c-2.604-4.628-3.709-8.204-3.314-10.729.433-2.555 2.507-5.31 6.225-8.264l42.574-33.835-16.666 94.933 1.8 2.265 56.978-45.282c7.202-5.724 13.674-5.37 19.416 1.059l2.033-1.616-18.695-23.523-2.033 1.616c1.973 3.992 2.545 7.296 1.718 9.912-.758 2.624-3.44 5.767-8.049 9.429l-31.305 24.88 14.327-77.724zm992.869 31.551c-1.999-.01-4.069.303-6.21.94-6.82 1.996-13.814 7.217-20.983 15.663l-27.366 32.24 1.98 1.68c3.49-2.811 6.333-4.29 8.532-4.434 2.231-.183 4.911 1.055 8.041 3.711l45.872 38.936c5.317 4.513 5.769 9.827 1.356 15.943l1.98 1.68 27.365-32.24-1.98-1.68c-3.14 2.783-5.987 4.227-8.54 4.33-2.591.072-5.376-1.157-8.355-3.685l-20.815-17.668c3.68-4.336 6.506-6.9 8.477-7.694 1.964-.862 4.412-1.185 7.342-.969 2.963.18 8.346 1.213 16.15 3.101 11.349 2.756 19.62 4.132 24.813 4.129l16.611-19.57-1.98-1.68c-2.719 2.362-5.6 3.615-8.64 3.759-3.01.105-9.157-.83-18.442-2.808-9.537-2.062-16.203-3.114-19.996-3.154-3.83-.073-6.607.522-8.328 1.786l-.226-.192c2.462-5.5 3.29-10.603 2.485-15.31-.774-4.744-3.103-8.764-6.987-12.061-3.707-3.147-7.76-4.73-12.156-4.753zm-12.857 16.107c3.73.062 7.55 1.753 11.46 5.071 5.016 4.257 7.636 8.622 7.861 13.096.22 4.403-1.959 9.3-6.536 14.693a67.04 67.04 0 0 1-2.897 3.185l-27.772-23.573 3.937-4.639c4.5-5.302 9.15-7.913 13.947-7.833zm-909.715 66.63c-12.94.02-24.229 4.865-33.866 14.534-9.497 9.528-14.218 20.29-14.164 32.286.09 11.96 4.95 22.742 14.584 32.344 10.754 10.72 23.508 14.913 38.263 12.581l3.3-3.31c-6.784.22-12.556-.47-17.315-2.07s-9.047-4.305-12.866-8.111c-7.076-7.053-10.097-15.128-9.062-24.222s6.178-18.284 15.43-27.567c8.311-8.337 16.644-13.264 25-14.782 8.392-1.482 15.512.692 21.362 6.523 5.36 5.343 8.168 11.633 8.425 18.872s-2.058 14.745-6.941 22.517l1.734 1.728 22.992-23.067-1.734-1.728c-3.215 1.124-5.594.918-7.135-.618-.77-.768-1.84-2.603-3.21-5.503-3.228-6.71-6.82-12.038-10.78-15.983-9.668-9.637-21.007-14.445-34.017-14.424zm821.93 16.928-9.038 8.144 26.825 67.902c2.695 6.76 4.097 12.12 4.206 16.084s-.925 7.323-3.1 10.082l1.739 1.929 21.33-19.218-1.738-1.93c-5.469 2.798-9.51 2.745-12.126-.158-1.225-1.36-2.425-3.541-3.6-6.544l-4.588-11.744 23.48-21.155 12.94 6.715c2.898 1.517 4.844 2.827 5.837 3.93 1.225 1.359 1.616 2.938 1.172 4.736-.44 1.728-1.788 4.074-4.044 7.038l1.738 1.93 32.354-29.151-1.738-1.93c-3.028 2.33-6.251 3.37-9.67 3.122-3.452-.285-8.216-1.952-14.29-5zm3.134 22.542 34.166 17.749-19.622 17.679zm-734.351 34.94c-2.31.03-4.635.236-6.978.62-12.456 2.071-22.562 8.693-30.317 19.867s-10.411 22.938-7.967 35.29 9.456 22.548 21.037 30.585c11.62 8.066 23.665 11.097 36.133 9.094s22.58-8.59 30.335-19.764 10.404-22.972 7.948-35.393-9.496-22.666-21.116-30.731c-9.376-6.508-19.068-9.697-29.075-9.568zm680.827.036c-6.139.02-12.653 2.273-19.544 6.76l-38.237 24.894 1.417 2.176c4.436-1.708 7.673-2.31 9.711-1.808s4.165 2.453 6.378 5.852l31.653 48.62c2.456 3.772 3.54 6.843 3.254 9.213-.272 2.302-2.05 5.054-5.337 8.255l1.417 2.176 35.19-22.91-1.416-2.176c-3.928 1.672-7.062 2.207-9.401 1.605-2.298-.628-4.54-2.622-6.726-5.98l-13.843-21.263a88.65 88.65 0 0 0 9.855-5.53c8.829-5.749 14.442-12.266 16.84-19.552 2.439-7.312 1.608-14.12-2.494-20.42-3.805-5.844-9.175-9.105-16.11-9.785a24.86 24.86 0 0 0-2.607-.128zm-667.863 9.14c4.529.044 8.94 1.556 13.234 4.536 7.314 5.077 10.802 11.892 10.463 20.447-.298 8.583-4.381 18.544-12.25 29.88-7.472 10.768-15.21 17.71-23.212 20.825s-15.518 2.233-22.548-2.646c-7.15-4.963-10.592-11.716-10.322-20.258s4.085-18.117 11.445-28.722c7.925-11.418 15.835-18.781 23.731-22.09 3.208-1.345 6.361-2.002 9.46-1.972zm653.703 3.147c1.361.027 2.74.249 4.137.667 4.472 1.338 8.273 4.412 11.403 9.22 3.428 5.264 4.814 10.204 4.16 14.82-.68 4.574-3.3 8.346-7.86 11.314-1.741 1.134-3.754 2.031-6.039 2.692l-20.806-31.958 6.28-4.088c2.821-1.836 5.73-2.726 8.725-2.667zm-584.556 34.634-.958 2.414c3.782 2.405 6.094 4.626 6.935 6.662.888 2.055.574 4.99-.94 8.806l-22.187 55.928c-2.572 6.482-7.461 8.613-14.668 6.392l-.958 2.414 39.308 15.594.958-2.413c-3.643-2.084-5.923-4.319-6.839-6.704-.897-2.431-.626-5.463.815-9.095l10.068-25.378c5.287 2.098 8.622 3.953 10.004 5.565 1.446 1.585 2.536 3.8 3.27 6.645.78 2.864 1.525 8.294 2.237 16.292 1.024 11.634 2.37 19.91 4.038 24.828l23.86 9.466.958-2.413c-3.11-1.82-5.22-4.146-6.33-6.981-1.064-2.817-2.147-8.94-3.248-18.37-1.102-9.695-2.241-16.346-3.418-19.952-1.158-3.652-2.612-6.091-4.36-7.317l.11-.276c5.998.571 11.098-.28 15.298-2.55 4.246-2.254 7.308-5.748 9.187-10.483 2.608-6.574 1.85-12.78-2.271-18.62-4.076-5.82-11.263-10.774-21.561-14.86zm505.893 5.368-28.244 10.467-1.684 63.13-42.142-46.886-30.053 11.138.903 2.434c4.596-1.545 9.336-1.139 14.218 1.219l11.884 57.468c1.404 6.918 1.508 12.18.313 15.788-1.212 3.561-3.986 6.25-8.323 8.07l.902 2.434 30.191-11.19-.902-2.434c-7.007 2.016-11.86-.616-14.558-7.897-.584-1.577-1.098-3.391-1.542-5.442l-10.916-51.656 52.406 58.354 2.99-1.109 2.065-78.541 24.453 45.056c1.236 2.338 2.172 4.364 2.807 6.08 1.29 3.479 1.536 6.42.74 8.826s-2.748 4.684-5.853 6.837l.902 2.434 41.183-15.263-.902-2.435c-4.171.702-7.655.41-10.452-.874-2.75-1.301-5.108-3.75-7.074-7.346l-26.8-49.251c-.683-1.276-1.223-2.448-1.618-3.515-1.066-2.875-1.117-5.362-.154-7.46.946-2.143 3-4.144 6.162-6.001zm-479.066 10.703 5.655 2.244c11.493 4.56 15.079 12.287 10.756 23.183-2.425 6.114-5.72 9.995-9.886 11.642-4.1 1.619-9.439 1.124-16.013-1.484a67.342 67.342 0 0 1-3.945-1.725zm113.439 25.847-36.63 63.156c-3.63 6.306-6.967 10.73-10.008 13.273s-6.319 3.815-9.831 3.822l-.436 2.56 28.305 4.814.436-2.56c-5.586-2.556-8.051-5.76-7.396-9.611.307-1.804 1.274-4.099 2.901-6.882l6.367-10.883 31.157 5.3 2.757 14.316c.608 3.213.787 5.552.538 7.015-.307 1.804-1.303 3.089-2.989 3.856-1.628.726-4.305 1.124-8.03 1.193l-.434 2.56 42.932 7.302.436-2.56c-3.705-.931-6.52-2.814-8.446-5.65-1.917-2.885-3.564-7.656-4.94-14.312l-14.694-74.668zm222.869 6.586-41.637 5.992.37 2.57c4.707.422 7.888 1.339 9.54 2.75 1.694 1.355 2.826 4.015 3.397 7.98l8.095 56.25c.578 4.015.65 6.778.219 8.289-.383 1.504-1.291 2.834-2.724 3.99-1.384 1.149-3.586 2.34-6.606 3.574l.37 2.57 41.636-5.992-.37-2.57c-4.715-.47-7.894-1.387-9.54-2.75s-2.753-4.026-3.323-7.991l-8.117-56.397c-.74-5.14-.467-8.627.818-10.461 1.278-1.883 4.025-3.628 8.241-5.234zm-226.613 11.892 7.265 37.81-26.037-4.429zm123.969 23.319a18.186 18.186 0 1 0 0 36.37c10.043 0 18.185-8.142 18.185-18.185a18.188 18.188 0 0 0-18.185-18.185z"/><defs><path id="B" d="M148.846 46.338c-.03-.05-1.822.608-2.213.728-.75.23-1.306.292-1.983.56-.404.16-.838.233-1.333.266-.581.038-.958.101-1.428.246l-1.469.45c-.443.137-.95.388-1.49.554-.523.16-.904.54-1.394.572-.434.03-.896.564-1.321.694-.509.156-.794.484-1.206.61-.58.179-1.028.57-1.341.797-.41.296-1.045.664-1.457.88-.574.301-.964.786-1.518 1.187-.317.23-.475.52-.848.789-.423.306-.735.708-1.078.956-.382.277-.798.769-1.098 1.058-.306.294-.478.727-.836 1.218-.263.36-.577.776-.91 1.096-.305.295-.592.886-.834 1.218-.28.383-.616.694-.91 1.096-.318.436-.518.63-.72 1.134-.214.534-.652.893-.95 1.301-.29.396-.479.804-.72 1.135-.26.356-.277.95-.478 1.396-.174.384-.307 1.02-.478 1.396-.194.429-.238 1.096-.383 1.416a2.273 2.273 0 0 1-.773.91c-.305.22-.6.674-.774.91s-.047.813-.037 1.165c.017.596.866-.368.996-.546.268-.366.825-.51 1.131-.731.399-.289.696-.503 1.132-.732.53-.278 1.203-.466 1.699-.618l1.794-.599 1.563-.432c.579-.177 1.22-.47 1.7-.618.648-.199 1.253-.27 1.72-.72.389-.375 1.16-.228 1.584-.534.601-.436 1.326-.348 1.93-.785.461-.334 1.603-.735 2.139-.85.648-.138 1.207-.802 1.876-1.008.641-.197 1.123-.97 1.708-1.149.292-.09.918-1.105 1.275-1.449.508-.489.876-.94 1.54-1.29.442-.232 1.154-1.286 1.431-1.737.338-.549.929-.967 1.202-1.57.192-.424.658-.884.856-1.32l.728-1.666c.176-.438.243-1.105.383-1.415.245-.54.368-1.04.613-1.582l.708-1.564c.193-.426.216-1.073.31-1.536.111-.558.15-.695-.038-1.287zm-1.184 46.554c.573-.3-.903.391-1.551.86-.507.368-1.31.62-1.856.907-.52.273-.733.655-1.32.694-.337.022-.83.459-1.28.488-.574.038-1.378.312-1.889.58-.601.316-1.206.262-1.814.702-.344.249-1.488.553-1.889.58-.32.02-1.068.686-1.361.898-.444.321-.943.518-1.436.777l-1.436.778c-.582.305-1.07.424-1.646.841-.43.312-.97.635-1.436.778-.417.128-.954.778-1.288 1.02-.428.31-.908.736-1.309 1.123-.425.409-.864.8-1.308 1.122-.385.279-.62.712-1.099 1.059-.407.294-.742.784-.93 1.198-.212.468-.652.966-.971 1.404-.334.458-.737.83-.95 1.301-.247.545-.602.701-.836 1.218-.22.487-.492.63-.72 1.134a7.16 7.16 0 0 1-.741 1.237c-.294.403-.511 1.072-.687 1.46-.171.377-.283.982-.572 1.378-.32.438-.371.953-.667 1.358-.243.333-.37.929-.572 1.377a6.85 6.85 0 0 0-.498 1.5c-.105.519-.315 1.074-.424 1.62-.096.474.019.884-.079 1.37-.057.286.34.827.477 1.054.272.446.37.744.572 1.074.24.395.318.868.473.096.113-.56.25-1.137.235-1.659-.013-.467.216-1.073.309-1.536.124-.618.198-1.088.498-1.5.266-.363.46-.683.774-.91.358-.26.785-.458 1.11-.629.467-.245.72-.317 1.28-.489l1.773-.496c.524-.208.953-.427 1.321-.694.35-.254.864-.217 1.354-.368.627-.192 1.043-.403 1.658-.413.499-.007 1.14-.254 1.658-.412s1.108-.245 1.658-.413c.57-.176 1.16-.3 1.712-.19.342.07 1.021-.12 1.427-.245l1.47-.451a6.844 6.844 0 0 1 1.427-.246c.548-.037 1.06-.475 1.679-.516.371-.024 1.297-.501 1.625-.739l1.362-.899c.408-.295.782-.829 1.098-1.058.45-.326.656-.824 1.025-1.18.429-.413.794-1.184 1.033-1.71.195-.432.59-.808.815-1.116.335-.46.545-.918.782-1.442.192-.425.395-.588.605-1.05.22-.489.377-.897.498-1.5l.39-1.946c.108-.532.23-1.06.215-1.556-.016-.575-.013-.996-.11-1.408-.127-.527.017-1.037.003-1.49-.013-.472.083-.902.194-1.454.076-.38.11-1.075.099-1.472l-.037-1.287c-.005-.173.069-.341.103-.512zm-8.207 24.678c-.457.03.806-.502 1.152-.835.269-.259.708-.395.995-.546.356-.187.717-.412 1.09-.527.408-.125.873-.172 1.24-.284l1.583-.534 1.354-.368c.499-.153 1.007-.208 1.469-.45.304-.16.88-.223 1.144-.304.47-.144.665-.203 1.082.004.192.096-.152 1.243-.194 1.453-.07.346-.284.922-.383 1.416l-.309 1.536-.35 1.742-.35 1.742c-.11.546-.101.995-.214 1.555s-.251.939-.572 1.378c-.435.596-.66 1.114-.938 1.73-.248.546-.464.84-.593 1.48-.105.52-.405 1.065-.593 1.479-.285.63-.541.968-.802 1.544-.318.702-.743 1.067-1.128 1.692-.24.39-.62.791-1.024 1.18s-.606.701-.984.975c-.41.296-.702.516-.963.872-.14.192-.743.539-.921.668-.496.358-.63.77-1.173.936-.599.184-1.187.458-1.773.497-.561.037-1.047.465-1.605.636-.584.18-1.121.637-1.572.964-.525.38-1.002.635-1.382 1-.403.39-.79.747-1.194 1.04-.503.364-.83.9-1.14 1.263-.287.339-.586.877-.835 1.218-.346.474-.631 1.183-.749 1.768-.066.33-.355.786-.457 1.294-.12.596-.27.854-.383 1.415-.12.596-.27.854-.382 1.415-.094.468-.543-.101-.926-.292-.236-.118-.477-.737-.687-.99-.135-.165-.26-.87-.267-1.12-.015-.52.084-.908.193-1.454.094-.465.08-.89.194-1.453.094-.47.112-1.047.214-1.556.108-.536.08-1.348.066-1.799-.013-.462-.015-.902.1-1.472.097-.488.093-.959.213-1.556l.35-1.741c.115-.569.116-1.068.235-1.658l.309-1.537c.105-.524.217-1.048.383-1.415.248-.549.614-.786.856-1.32.133-.294.658-.827.794-1.014.249-.34.445-.98.646-1.255.32-.44.424-1.008.856-1.32.313-.227.678-.927.856-1.32.171-.378.485-.813.72-1.135.252-.344.554-.824.741-1.237s.614-.927.856-1.32c.251-.407.609-.704.983-.975.3-.217.667-.862.91-1.096.475-.457.848-.79 1.308-1.123.422-.305.623-.383 1.09-.527.38-.116.222-.224.86-.36zm41.771 87.846c.27-.117-.605.106-1.132.334-.286.125-.594.38-.901.625-.22.175-.52.127-.773.237-.3.13-.58.104-.918.164-.366.066-.538.077-.873.223a4.19 4.19 0 0 1-.925.264c-.366.066-.637.015-.911.064l-.919.165c-.344.061-.59.171-.872.222-.337.06-.6.104-.872.222s-.622.386-.841.481c-.292.126-.678.257-.994.508-.406.324-.745.24-1.14.436-.264.13-.74.145-1.078.292s-.613.304-.94.466c-.283.14-.684.277-.987.408s-.586.196-.88.323c-.369.16-.795.6-1.022.91-.218.296-.6.455-.81.74-.193.264-.597.476-.855.682l-.802.64-.801.639c-.325.26-.454.442-.71.755-.218.268-.397.602-.571.93-.15.283-.436.443-.656.712-.238.291-.515.6-.816.84-.324.258-.537.58-.77.899-.215.291-.485.478-.657.712-.23.313-.45.644-.471.944-.017.227-.355.587-.464.844-.118.276-.34.644-.518.886-.027.037-.071.057-.107.085-.387.309-.395.59-.418.902l.054-.043c-.3.239-.446.456-.603.67-.18.246-.436.443-.603.67-.194.265-.39.5-.51.786s-.296.402-.503.685c-.194.264-.6.479-.855.682-.24.191.634.046.95.095.4.06.55 0 .91-.064.335-.06.603.041.851.08.472.071.72.102 1.157.024a3.15 3.15 0 0 1 .857-.022c.423.065.756-.036 1.11-.033.368.004.639-.048.965-.106.305-.055.664.046.957-.005.41-.074.723-.063 1.118-.134.293-.052.602-.042.965-.106.411-.074.662.102 1.01-.049.26-.112.702.006.904.037.182.028.597-.064.765-.137.3-.13.576-.094.873-.222l.887-.424c.398-.172.756-.508 1.061-.752.344-.274.682-.449 1.009-.71l.909-.724.962-.767c.314-.251.773-.692.977-.969.28-.381.684-.6.923-.925.17-.231.482-.476.656-.713.24-.328.75-.598 1.069-.853.364-.29.579-.549.816-.84.154-.189.46-.574.618-.871.227-.427.504-.771.692-1.215.17-.398.216-.596.472-.944.25-.342.488-.673.823-.941.218-.174.423-.72.472-.944.05-.232.122-.539.204-.731.129-.303.371-.542.518-.887.18-.425.246-.637.471-.944.186-.253.317-.664.418-.901.129-.303.35-.491.457-.743.144-.339.357-.547.564-.828.273-.372.522-.56.77-.899.204-.278.534-.425.702-.655.214-.291.491-.486.756-.697.232-.185.472-.371.649-.612.151-.206-.51.091-.766.137-.387.07-.56.124-1.057-.01zm5.322 1.131c.038-.296-.097-.948-.11-1.408-.014-.483.036-1.115.045-1.697.008-.503.226-1.069.383-1.415.193-.426.216-1.073.309-1.537s.27-.851.383-1.415c.116-.578-.012-.922.12-1.575.1-.499-.027-.901-.038-1.286-.015-.52.084-.908.194-1.453.063-.314-.177-1.248-.185-1.53-.012-.404-.155-.839-.247-1.222-.1-.417-.267-.743-.361-1.138-.125-.521-.042-.928-.132-1.306-.08-.337.088-1.042.078-1.37-.014-.491-.163-.874-.246-1.222-.09-.376-.032-.889-.132-1.305l-.246-1.222c-.125-.52-.098-.942-.111-1.408-.014-.481-.142-.83-.152-1.203a5.72 5.72 0 0 0-.152-1.203c-.134-.56-.01-.835-.32-1.344-.266-.435-.27-1.501-.387-1.996l-.321-1.343-.341-1.241c-.126-.529-.4-.832-.416-1.363-.01-.355-.418-.958-.55-1.176a4.099 4.099 0 0 1-.531-1.28l-.395-1.464c-.124-.518-.33-.815-.551-1.177-.25-.41-.45-.619-.823-.805-.206-.103-.588-.829-.687-.99-.16-.265-.757-.604-1.032-.741-.31-.154-.511-.631-.593-.972-.096-.402-.29-.651-.382-1.036-.107-.446-.41-.672-.592-.972-.113-.185-.812-.63-1.033-.74-.34-.17-.69-.586-.823-.805-.142-.233-.995-.53-1.147-.657l-.938-.721c-.323-.27-.72-.42-.959-.62-.368-.306-.469-.515-.843-.702-.469-.233-.31-.556-.65.296l-.457 1.294c-.205.453-.36.809-.457 1.294l-.309 1.536-.309 1.537-.37 1.844c-.111.553-.328 1.144-.445 1.723-.121.604-.042.986-.025 1.594.017.57.025 1.049.111 1.408a8.7 8.7 0 0 1 .185 1.529c.016.566.043.936.185 1.53.1.417.244.965.415 1.362.25.578.197 1.276.522 1.81.297.486.308.912.416 1.363.1.422.345.88.436 1.26.111.466.271.76.362 1.138.113.475.285.628.382 1.036s.21.752.382 1.037c.208.34.303.7.383 1.036.088.368.288.745.477 1.055.226.37.307.64.498.952.234.385.224.676.613.87.34.17.495.945.55 1.176a8.236 8.236 0 0 0 1.008 2.335c.243.397.446.735.551 1.176.048.198.616.812.708.888.383.32.624.65 1.012.843.407.203.805.776.97 1.048.154.251.567.564.844.703.151.075.26.89.267 1.12.014.47.255.684.267 1.119.008.276.46.74.613.869l.844.702c.224.187.323.79.382 1.036.107.449.374.75.572 1.075.237.388.374.623.477 1.055.11.46.327.733.341 1.24.015.523.256.885.342 1.242.105.444.276.78.361 1.138a5.23 5.23 0 0 1 .152 1.203c.015.498.71-.073.914-.136.062-.019.126.026.189.038.202.04.37-.21.556-.314zm-32.922-25.269c-.389.282.119-1.013.004-1.491l-.246-1.222c-.12-.501-.23-.593-.247-1.222l.004-1.492c-.014-.504.364-1.092.572-1.377l.815-1.115c.29-.398.47-.47.679-.93s.462-.632.679-.929c.303-.415.607-.599.794-1.013.095-.209.666-.657.848-.789.256-.185.527-.595.679-.93.196-.432.612-.763.794-1.012.26-.357.403-1.062.593-1.48l.551-1.275c.193-.426.216-1.073.309-1.536.08-.396.318-1 .477-1.397.204-.508.242-1.204.35-1.741a1.8 1.8 0 0 0-.226-1.325c-.11-.182.084-1.165.079-1.37-.016-.56.003-.996.12-1.574.112-.561.293-.971.403-1.518.139-.693.022-.88.004-1.491-.02-.664-.242-1.051-.26-1.651-.015-.552-.27-1.03-.415-1.363-.226-.524-.24-.82-.34-1.24l-.248-1.223c-.13-.543-.153-1.243-.164-1.632-.015-.546-.204-.854-.32-1.343a4.304 4.304 0 0 0-.531-1.28c-.197-.322-.34-1.047-.415-1.362-.089-.371-.464-.811-.552-1.176l-.34-1.241a7.64 7.64 0 0 0-.437-1.26c-.175-.406-.637-.91-.835-1.234-.207-.34-.278-.788-.362-1.139-.122-.512-.477.315-.617.622-.173.382-.462.633-.679.93l-.7 1.032c-.272.373-.528.757-.794 1.013-.44.423-.668.767-.909 1.096l-.815 1.115-.835 1.218c-.254.348-.359.791-.531 1.172-.25.554-.465.846-.572 1.378-.118.584-.276.883-.404 1.517-.116.581-.424 1.28-.654 1.787-.193.426-.216 1.074-.309 1.537a7.17 7.17 0 0 0-.12 1.575c.017.59-.082 1.211-.066 1.799.018.603-.056 1.179-.066 1.798-.009.583.075.981.09 1.51.014.451.194.998.3 1.447.112.467.116 1.048.206 1.426l.247 1.222c.105.44.074.96.09 1.51s-.007 1.105.09 1.511c.119.495.15 1.147.165 1.632.015.527.286.947.3 1.446.016.575.4 1.27.502 1.913l.258 1.65c.136.568.179 1.125.28 1.549.138.58.174 1.021.164 1.632-.008.484.172 1.082.185 1.53.015.532.218.875.09 1.51-.065.324.212.886.268 1.119a5.8 5.8 0 0 1 .152 1.203c.01.344.365.736.497.953.212.346.3.692.383 1.036.065.27.974.806.987-.015l.03-.634c.002-.077-.036-.149-.054-.223m10.383 13.491c.371.185-.665-.557-1.39-.92-.395-.196-.95-.297-1.494-.406-.39-.078-.609-.445-.958-.62-.412-.205-.64-.532-1.012-.842-.404-.336-.572-.51-1.033-.74a5.879 5.879 0 0 1-1.127-.76c-.403-.335-.594-.674-.897-.926l-1.012-.843c-.379-.316-.72-.48-1.032-.74-.372-.31-.657-.553-1.033-.74s-.983-.322-1.284-.472c-.401-.2-.893-.5-1.452-.612-.718-.144-.936-.586-1.505-.835-.382-.167-.83-.667-1.296-.9l-1.358-.593c-.407-.177-.92-.487-1.337-.695s-.744-.455-1.148-.657c-.508-.253-1.37-.313-1.913-.277-.517.034-1.037-.235-1.534-.202-.462.03-1.058-.213-1.514-.304l-1.42-.286-1.42-.285c-.574-.115-.888-.089-1.46-.08-.487.007-1.01.118-1.522.227-.443.095-.876-.069-1.366-.061-.531.008-1.116-.012-1.65-.119-.573-.115-1.113-.052-1.67-.016-.51.034-.957-.088-1.366-.06-.547.035-1.104.098-1.448.348-.26.187-.957.149-1.333.265a7.16 7.16 0 0 1-1.428.246c-.064.004-.126-.026-.19-.038-.684-.138-.996.109-1.353.367l.095.02c-.53-.107-.897-.068-1.272-.043-.428.028-.875-.069-1.27-.042-.464.03-.896.034-1.313.162s-.704.047-1.198.08c-.46.03-1.062-.214-1.514-.305-.424-.085.527.727.761 1.112.298.488.5.596.897.927.368.306.503.688.687.99.35.575.544.872 1.024 1.272.254.211.626.617.802.907.315.516.726.783 1.045 1.17.33.399.632.645.992.945.336.28.553.76.876 1.029.452.376.725.723 1.16 1.085.323.27.592.613.991.946.454.377.492.809.971 1.048.357.178.631.763.782 1.01.135.221.61.586.843.702.411.205.624.536 1.032.74l1.263.574c.55.273 1.237.355 1.778.463.607.123 1.105.33 1.682.445l3.312.666c.557.112 1.45.207 1.934.175.667-.044 1.27.194 1.839.157.403-.027.952.088 1.366.06.573-.037 1.326.267 1.892.381.644.13 1.12.126 1.65.118.344-.005 1.038-.025 1.502-.124.668-.143 1.29-.156 1.942-.356.583-.18.839-.308 1.448-.348.598-.04 1.17-.085 1.765.034.385.078 1.16-.197 1.448-.348.297-.156.693-.357.975-.444.444-.136.923-.09 1.428-.246.624-.191.913-.313 1.448-.348.443-.03 1.006-.26 1.354-.368.444-.136.848-.068 1.218-.181.496-.153.915-.111 1.407-.144.65-.043 1.08.055 1.67.016.487-.032.945.19 1.346.164.509-.034.971.088 1.44.183.41.082.83.172 1.25.144.361-.024-.562-.468-.843-.702-.427-.356-.642-.493-.95-1.15z"/><path id="C" d="M163.91 196.242c-.266-.221-1.005-.111-1.461-.08l-1.387.04c-.383.026-.84.066-1.217.182-.383.117-.891.081-1.218.182l-1.144.303-1.26.386-1.258.387-1.469.45-1.164.406-1.375.47c-.44.135-.919.316-1.185.508-.462.335-.807.344-1.28.489-.371.114-.796.389-1.184.508-.48.147-.783.567-1.037.75-.41.298-.628.638-.889.995-.266.364-.862.6-1.226.713s-.805.216-1.164.405c-.324.17-1.126.154-1.428.246-.372.114-.858.167-1.239.284-.62.19-1.115.15-1.711.19-.53.034-1.183-.238-1.703-.343-.716-.144-1.602-.374-2.197-.335-.585.039-1.148-.124-1.724-.24l-1.514-.304c-.672-.135-1.09-.326-1.683-.445-.574-.115-1.179-.343-1.777-.463-.528-.107-.908-.397-1.263-.574-.493-.246-.694-.578-1.18-.983-.356-.297-.81-.46-1.243-.676-.417-.209-.627-.642-.991-.946l-.918-.823c-.32-.267-.972-.631-1.296-.9-.382-.32-1.07-.534-1.431-.714-.378-.189-.642-.433-1.053-.638-.391-.195-.674-.562-1.033-.74-.437-.219-.76-.634-1.012-.844-.52-.432-1.018-.137-.255-.69.355-.257.787-.308 1.09-.527.284-.206.838-.384 1.165-.406.31-.02.757-.377 1.185-.508.485-.149.969-.442 1.395-.572l1.259-.387c.479-.147.854-.259 1.238-.284.593-.04 1.021-.295 1.543-.33.556-.036.769-.227 1.333-.265.482-.031 1.044-.224 1.448-.348.531-.163 1.16-.178 1.617-.208l1.996-.132a6.59 6.59 0 0 1 1.744.137c.481.097 1.092.03 1.576-.003.68-.045 1.26-.264 1.827-.272.545-.008 1.077.11 1.629.22.584.118 1.149.253 1.629.222.56-.038 1.118.153 1.65.118.636-.042 1.15.167 1.839.156.514-.008.868-.108 1.407-.143.566-.038 1.33.267 1.892.38.631.127 1.308.201 1.872.483.52.259 1.333.268 1.893.38l1.892.38 2.46.495c.582.117 1.145.23 1.683.444l1.263.574c.506.252 1.117.331 1.683.445.452.09.85.48 1.242.676.492.245 1.25.251 1.798.361l1.42.285c.618.125.866.363 1.242.676.308.257.453.508.843.703.382.19-.58.322-.765.379-.287.088-1.163-.234-1.42-.285zm-11.395-11.883c-.47.144-.573-.836-.95-1.15-.313-.261-.648-.549-1.033-.74s-.843-.277-1.304-.37c-.573-.114-1.18-.343-1.777-.463-.736-.148-1.464-.32-2.197-.335l-2.144-.111c-.483.007-.797.053-1.366-.061-.587-.118-1.223.287-1.9.15-.495-.099-1.166.179-1.617.209-.575.038-1.231.072-1.86-.054-.383-.077-1.036.094-1.502.124-.476.032-1.148.069-1.711.19-.6.128-1.182-.044-1.765-.036l-1.786.068c-.722.048-1.496-.218-2.217-.232-.52-.01-.958-.114-1.46-.08-.59.038-1.155-.152-1.65-.12-.436.03-.992-.198-1.42-.284l-2.082-.419c-.661-.133-1.193-.346-1.872-.482-.41-.083-.834-.501-1.147-.657a7.9 7.9 0 0 1-1.39-.92c-.38-.315-.932-.529-1.317-.797-.394-.274-1.206-.349-1.683-.445-.459-.092-1.012-.484-1.242-.676-.417-.347-.942-.485-1.317-.797-.416-.347-.962-.562-1.39-.919l-1.35-1.124c-.34-.332-.56-.467-1.012-.843-.27-.225-.468-.905-.645-1.195-.3-.491-.684-.733-1.045-1.17a8.885 8.885 0 0 0-1.234-1.207l-1.18-.983c-.387-.322-.5-.548-.708-.889-.283-.464-.483-.742-.551-1.176-.087-.551-.33-1.001-.416-1.363a2.763 2.763 0 0 1-.086-.55c-.003-.104 1.291.153 1.44.183.591.119.897.073 1.44.183.191.038 1.236-.236 1.543-.33.505-.155.896-.14 1.48-.022s.925-.213 1.429-.246c.354-.023.914-.185 1.238-.284.495-.152 1.082-.092 1.522-.227.494-.152.894-.11 1.407-.144.608-.04 1.047-.11 1.67.016.588.118 1.308-.01 1.88-.048.547-.036 1.08.11 1.63.22l1.798.362 1.798.361 1.703.342 1.703.343c.548.11 1.015.31 1.588.425a7.184 7.184 0 0 1 1.568.528c.573.286.944.308 1.431.714.091.076.162.175.243.262.29.314.846.591 1.222.779.442.22.734.535 1.222.778.555.277 1.074.723 1.559 1.06.532.37 1.06.644 1.559 1.06.278.23.854.531 1.127.759.362.3.9.57 1.296.9.452.376.822.51 1.201.88.267.262.815.713 1.201.881.41.179.8.84.971 1.048.19.23 1.062.473 1.263.574.54.269 1.084.305 1.621.752.446.371.923.594 1.39.919l1.56 1.06c.354.294.624.536 1.032.74.439.218.776.584 1.127.759.384.191.699.641.918.824l.843.702c.37.308.722.557 1.127.76.229.113.548.635.728.785.348.29.602.554.938.722.519.259.218.89.078 1.081-.337.462-.931-.268-1.168-.554zm-1.353-4.535c-.12.164-.751-.78-.76-1.113-.012-.379-.24-.8-.383-1.036-.219-.358-.296-.673-.383-1.036l-.32-1.343c-.11-.457-.371-.76-.552-1.177-.244-.567-.335-.823-.55-1.177-.262-.429-.437-.58-.688-.99-.219-.36-.47-.653-.571-1.074-.088-.366-.555-.638-.708-.889-.219-.359-.354-.853-.551-1.176a4.21 4.21 0 0 1-.457-1.158c-.08-.338-.581-.818-.76-1.112-.235-.386-.415-.644-.708-.888-.302-.252-.51-.701-.687-.991-.185-.304-.197-.733-.382-1.036a2.297 2.297 0 0 1-.362-1.139c-.011-.386-.371-.631-.383-1.036-.01-.382-.353-.715-.497-.953-.295-.484-.356-1.034-.292-1.977l.111-1.043c.03-.28-.856-.953-.97-1.048-.234-.194-.362-.73-.498-.953-.154-.252.088-1.036.078-1.37-.02-.705.122-.753-.152-1.203-.125-.205.019-1.073.078-1.37.094-.465-.117-.886.004-1.491l.31-1.537c.119-.596.08-.892.193-1.453l.309-1.537c.105-.523.216-1.048.382-1.415.193-.426.216-1.074.31-1.537.08-.397.485-.962.76-1.339.218-.297.381-1.182.478-1.396l.593-1.48a6.98 6.98 0 0 0 .498-1.499c.08-.402.3-.948.457-1.293.248-.55.503.144.695.459.226.372.359.602.728.786.323.161.672.693.802.907.226.371.307.64.498.953.291.477.455.883.646 1.195.183.302.369.879.625 1.299.297.487.471.843.604 1.4.151.633.535.59.551 1.177.001.032.657.941.761 1.112.226.37.263 1.008.416 1.362.175.407.278.73.477 1.056a4.47 4.47 0 0 1 .415 1.362c.006.224.404.8.498.953.245.402.499.959.604 1.4.103.43.433.71.593.972.241.396.419.435.571 1.074.101.423.023.803.037 1.287.013.435-.085.914-.193 1.453-.126.623.097.784.226 1.324.12.506.264.732.362 1.139.12.502.321.971.415 1.362s-.113 1-.1 1.473c.02.642-.348.826-.55 1.275-.193.425-.402.6-.606 1.05-.223.494-.312 1.065-.424 1.62-.117.587-.265.83-.382 1.416-.106.523-.36.806-.478 1.396s-.278.894-.383 1.415c-.118.587-.265.83-.383 1.416-.12.602-.092.873-.078 1.37l.008 1.92c-.005.337.352 1.053.49 1.484.176.555.262.942.279 1.548.007.245.323.79.382 1.036.114.475.211.792.226 1.325.017.591-.07.927-.436 1.191-.527.381-.92-.322-.843-.702zm-19.428-18.934c.013-.296-1.04-1.06-1.539-1.161-.207-.042-.752-.686-.917-.824-.352-.293-.797-.424-1.054-.638-.385-.321-.593-.522-1.032-.74-.333-.166-.613-.729-1.086-.965s-.675-.741-1.066-1.067a4.28 4.28 0 0 1-.802-.907c-.159-.261-.655-.605-.917-.824l-1.255-1.104c-.292-.244-.67-.556-.896-.927-.273-.448-.556-.514-.572-1.074 0-.011-.765-.735-.823-.805-.356-.43-.647-.598-1.086-.964l.074.121c-.219-.182-.49-.887-.76-1.112-.39-.324-.447-.589-.918-.824-.319-.159-.658-.548-1.012-.843-.33-.274-.55-.637-.897-.926-.305-.254-.722-.504-.991-.945-.159-.26-1.019-.61-1.222-.779-.437-.364-1.076-.642-1.62-.752-.38-.076-.794-.593-1.128-.76-.399-.198-.863-.598-1.222-.778l-1.263-.573c-.464-.232-.883-.272-1.283-.471-.66-.329-.822-.379-1.473-.51-.435-.087-.996-.306-1.494-.406l-1.514-.304c-.56-.113-1.09-.433-1.662-.548-.51-.102-1.053-.318-1.588-.425-.646-.13-1.017-.16-1.65-.119-.39.026-.93-.065-1.27-.042-.534.035-1.31-.156-1.82-.259s-1.034-.14-1.554-.1c-.509.034-1.14-.122-1.63-.22-.528-.106-1.159-.126-1.723-.24-.514-.103-.992-.092-1.535-.201-.44-.089-.01 1.09.037 1.286.153.643.56 1.215.711 1.848.125.523.44.87.625 1.298l.679 1.522.625 1.299c.307.71.323.986.889 1.457.354.295.69 1.007.793 1.439.11.456.37.878.552 1.176.275.452.358.837.666 1.093.314.262.46.754.666 1.094l.835 1.233.815 1.336c.328.538.628.605.855 1.132.183.424.728 1.018 1.12 1.29.407.284.84.88 1.233 1.208.44.366.603.681.897.926.371.31.752.47 1.263.573l1.514.305 1.42.285c.5.1.937.185 1.303.369.32.159.675.502.938.721.294.245 1.228.247 1.609.323l1.703.343c.593.119 1.138.122 1.724.24.657.131 1.038-.006 1.65.118.607.122 1.02.418 1.662.547l1.798.361 1.798.361c.638.129.851.096 1.365.062l1.691-.087c.534-.035.748-.17 1.387-.04.548.11 1.085.23 1.535.2.52-.034 1.187.24 1.703.343a5.08 5.08 0 0 0 1.555.1c.533-.036.951-.215 1.428-.247l1.386-.04c.435-.03.992.199 1.42.285.564.113 1.028.404 1.546.63.418.183.546.536 1.148.657.48.096.125-.612-.024-.858-.249-.407-.504-.689-.687-.99-.219-.358-.455-.558-.728-.786-.206-.17-.563-.245-.906-.395zm1.053-1.813c-.054-.045-.755-1.511-.921-1.784-.139-.227-.058-.994-.132-1.305-.123-.516-.324-.664-.341-1.241-.01-.339-.284-1.058-.415-1.363-.207-.478-.464-.897-.646-1.195-.25-.41-.322-.664-.646-1.196-.21-.345-.217-.878-.131-1.305.07-.354-.091-.948-.152-1.203-.132-.551-.28-.73-.551-1.177-.171-.28-.271-.758-.362-1.139-.101-.423-.09-.938-.206-1.426s-.04-.921-.131-1.306c-.081-.34-.027-.927-.037-1.286-.017-.587.142-.913.004-1.492l-.32-1.343c-.09-.378.11-1.072.098-1.473l-.037-1.286c-.015-.543-.231-.807-.11-1.408.059-.295-.099-.978-.152-1.203a3.004 3.004 0 0 1-.017-1.389c.087-.432.017-1.06.004-1.491-.014-.498.23-1.147.33-1.64.103-.514.526-.656.646-1.255.058-.292.561-.727.7-1.032.17-.375.342-.727.456-1.294.09-.45.457-.768.68-.93.276-.2.484-.784.604-1.05l.552-1.275.53-1.172c.212-.466.504-.599.7-1.032l.552-1.275.551-1.275c.235-.517.507-.767.836-1.217.274-.376.533-.737.889-.994.313-.227.563-.622.773-.91.258-.353.623-.635.794-1.014.155-.34.561-.725.7-1.031.12-.265.494.674.539.747.128.211.214.896.267 1.12l.267 1.12c.122.51.23.782.436 1.26.131.303.257.767.267 1.12.011.367.384 1.087.51 1.38.147.34.192.933.206 1.428.013.444.212 1.077.3 1.446.12.5-.112 1.04-.004 1.49.094.396.11 1.029.206 1.428.127.533.097.929.11 1.408.014.487.12.875.132 1.305.016.552.07 1.125-.046 1.696-.12.603.224.845.111 1.408-.07.35.102 1.077.111 1.408.013.468-.216 1.074-.309 1.537l-.309 1.537c-.108.54-.368.871-.551 1.274-.18.397-.275.877-.383 1.416-.088.438-.09.966-.078 1.37.012.443.158.85.246 1.222s-.096.967-.193 1.453l-.31 1.537a6.33 6.33 0 0 1-.477 1.396c-.22.488-.47 1.015-.781 1.442-.246.335-.35.827-.552 1.274l-.552 1.275-.687 1.46c-.233.515-.273.946-.477 1.397l-.572 1.377c-.246.542-.478.905-.614 1.583-.09.446-.317 1.043-.477 1.396-.193.426-.216 1.073-.309 1.537-.09.451.026.917.037 1.286.018.621.309.51-.408.558-.31.02-.529-.418-.748-.684z"/><path id="D" d="m79.078 116.735 1.21.35c.596.172 1.334.316 1.913.277.556-.036.9.102 1.481-.022.393-.084.98.112 1.46.08s.75-.062 1.272.043l1.608.323c.5.1.877.07 1.44.183l1.514.304c.43.086.825.06 1.346.164l1.514.304c.568.114.652.364.958.619a6.19 6.19 0 0 0 1.222.778c.382.19.712.58 1.033.74.363.182.658.49.938.722.3.25.64.342 1.189.452.399.08.683.35 1.188.452.49.099.99.184 1.4.388.436.218.978.178 1.398.388.396.198.85.283 1.189.452l1.168.554c.295.148.766.459 1.127.76.394.328.721.421 1.128.76.314.261.715.476 1.032.74l.938.721c.408.34.584.404 1.053.638.24.12.881.765.992.946.209.342.785.701 1.106.861.327.163.528.56.823.805.321.268.527.559.823.805.336.28.553.7.97 1.048.3.25.473.633.803.907.297.248.549.629.707.888.247.405.275.725.477 1.056.215.353.351.765.362 1.138.006.205.525.726.613.87.185.303.313.648.498.952.27.442.322.784.436 1.26.093.392.293.755.477 1.055.239.392.345.703.571 1.074.26.427.492.671.687.991.245.401.463.487.708.889.18.295.534.604.707.888.178.292.715.655.918.824.278.231.394.646.592.971s.142.839.152 1.203c.01.388-.562-.468-.843-.702s-.658-.397-.844-.702c-.235-.387-.335-.59-.728-.786-.292-.146-.673-.656-.897-.927-.304-.368-.775-.526-1.032-.74a5.98 5.98 0 0 0-1.127-.76l-1.263-.573c-.48-.21-.771-.368-1.284-.471-.483-.097-.738-.362-1.283-.471-.513-.103-.904-.193-1.346-.164-.38.025-.9.16-1.218.182-.516.034-.9.013-1.48.022-.523.008-.962-.186-1.367-.062-.395.122-.752.062-1.27-.042l-1.893-.38c-.396-.08-.964-.088-1.366-.061-.447.03-1.037-.084-1.366-.062-.547.036-1.273-.255-1.798-.361l-1.514-.304c-.543-.11-1.03-.314-1.588-.426-.467-.094-.927-.293-1.284-.471-.465-.232-.86-.299-1.168-.555-.424-.352-1.2-.542-1.62-.752l-1.075-.535c-.413-.206-.572-.399-1.053-.638-.408-.204-.663-.612-.917-.824-.35-.29-.66-.545-.991-.945-.248-.3-.612-.45-.938-.722l-.918-.824c-.285-.237-.59-.67-.897-.926-.299-.25-.29-.6-.612-.87a2 2 0 0 1-.593-.971c-.047-.197-.602-.716-.707-.888l-.592-.972c-.227-.371-.423-.556-.613-.87-.227-.37-.307-.64-.498-.952-.226-.371-.307-.64-.498-.953-.226-.37-.307-.64-.497-.952-.227-.371-.307-.64-.498-.953-.226-.371-.307-.64-.498-.953-.195-.32-.27-.71-.571-1.074-.177-.214-.343-.699-.498-.953-.226-.37-.515-.708-.687-.99l-.592-.972c-.217-.356-.398-.63-.708-.888-.19-.158-.433-.683-.498-.953-.046-.195.202-.416.387-.455z"/><path id="E" d="M116.635 132.17c-.018-.074-.907-.815-1.086-.965-.351-.292-.473-.633-.802-.907-.198-.165-.422-.828-.572-1.075-.18-.295-.304-.77-.477-1.055-.229-.375-.37-.606-.708-.888-.314-.262-.504-.69-.687-.99-.203-.335-.7-.606-.896-.927-.226-.37-.527-.657-.823-.805-.239-.119-.668-.617-.823-.805-.22-.266-.765-.367-1.189-.452l-1.42-.285c-.476-.096-.891-.392-1.377-.49l-1.514-.304c-.547-.11-1.1-.183-1.588-.426l-1.358-.593c-.375-.187-.688-.351-1.189-.452-.458-.092-.93-.492-1.337-.695-.46-.23-.9-.496-1.316-.797s-.859-.565-1.317-.798c-.338-.168-.644-.536-1.012-.843-.33-.275-.678-.385-.958-.619-.333-.277-.543-.481-.728-.785-.128-.21-.75-.628-.938-.722-.22-.11-.507-.694-.613-.87-.254-.415-.578-.538-.802-.906-.25-.41-.487-.662-.761-1.113a3.84 3.84 0 0 0-.802-.907c-.35-.292-.452-.74-.667-1.093-.245-.402-.245-.839-.341-1.241-.106-.443-.404-.799-.572-1.074-.188-.31-.277-.785-.362-1.139-.12-.503-.324-.646-.34-1.24-.008-.254-.307-.907-.363-1.14l-.341-1.24c-.115-.482-.34-.99-.51-1.382-.18-.416-.176-.737-.267-1.12a6.408 6.408 0 0 1-.152-1.203c-.013-.443.09-.925.078-1.37-.013-.466-.138-.71-.152-1.202-.007-.237-.347-.978-.456-1.158-.142-.232-.029-.99-.037-1.287-.013-.43-.185-.773-.267-1.12-.124-.516-.003-.908-.017-1.388-.013-.455-.038-.791.079-1.37.08-.398.1-.986.193-1.453.077-.381.593.291.695.46.233.381.48.514.708.888.153.251.625.52.843.702l1.687 1.405 1.012.843c.324.27.739.574 1.148.657.39.078.889.5 1.242.676.526.262.686.392 1.127.76.37.308.85.408 1.148.656.265.221.623.564.938.721.386.193.609.448.938.722.408.34.702.66 1.106.862.396.197.577.48.844.702.371.31.794.48 1.148.657.602.3.603.654 1.316.798.22.044.794.757.897.926.164.27.648.72.896.926.265.22.462.62.613.87.242.396.54.612.782 1.01.233.382.443.59.687.99.27.444.475.671.572 1.074.082.347.69.994.855 1.131.25.209.36.863.551 1.177.285.467.383.764.646 1.196l.666 1.093.72 1.317c.26.427.337.688.572 1.074.19.311.293.853.362 1.139.107.45.369.79.456 1.157.114.477.48 1.112.605 1.4.217.505.523.871.625 1.299.146.61.44.606.456 1.157.006.202.576.808.687.991.162.265.274.884.436 1.26l.605 1.4c.208.483.303.906.53 1.28.246.403.297.895.53 1.279.255.417.342.862.437 1.26.096.404.517.849.74 1.215.245.402.406.938.625 1.298.273.446.583.683.782 1.01.25.41-.46 1.157-.646 1.255zm3.348 1.951c.23.377-.012-.92.079-1.37.114-.568.099-.983.193-1.453.085-.42.07-.895.268-1.332.207-.456.295-.977.383-1.415.067-.336.473-.817.625-1.153.228-.503.443-.584.753-.808.443-.321.655-.65.963-.873l.922-.667c.346-.25.59-.422.996-.546.35-.108.578-.507.827-.687.316-.229.483-.66.679-.93.25-.34.543-.686.7-1.031.197-.436.604-.613.847-.789.348-.252.667-.57.942-.77.327-.237.64-.505.848-.789.28-.382.532-.32.753-.808.199-.438.335-.904.53-1.172.269-.367.352-.78.721-1.134.32-.31.51-.773.7-1.032.228-.313.59-.85.72-1.135.202-.446.512-.675.72-1.134s.454-.79.552-1.275c.074-.372.674-.87.909-1.096s.297-.988.383-1.415c.109-.543.2-1.015.383-1.416.206-.455.27-.86.382-1.415.087-.429.291-.956.404-1.518l.309-1.536c.118-.59.088-.932.193-1.454.098-.486-.018-.889.1-1.472l.329-1.64.308-1.536c.102-.505-.117-.808-.131-1.305-.018-.63-.313-.89-.185-1.53.114-.568.1-.983.194-1.453.098-.49.203-1.104.193-1.453-.016-.556-.024-.86.1-1.473l.308-1.536c.115-.572.376-.704-.078-1.082-.213-.177-1.026.393-1.185.508-.41.297-.729.44-1.016.648-.343.249-.64.397-.922.668-.365.352-.6.52-1.016.648-.41.126-.842.691-1.247.816-.365.112-.638.462-.922.667-.461.334-.92.492-1.226.713-.316.23-.78.38-1.164.406-.22.014-.747.54-.922.667-.32.233-.616.472-.847.789-.302.412-.631.566-.869.891a3.83 3.83 0 0 1-1.193 1.04c-.268.14-.655.822-.794 1.013-.325.444-.842.893-1.12 1.16-.386.372-.613.811-.909 1.097a2.93 2.93 0 0 0-.646 1.255c-.06.298-.457.78-.626 1.154-.192.425-.4.601-.605 1.05-.214.475-.215 1.05-.403 1.518-.196.49-.29.954-.383 1.416-.097.484-.296.982-.403 1.517-.102.506-.315 1.077-.424 1.62-.124.618-.11.97-.12 1.575l-.025 1.594c.017.596-.056 1.178-.066 1.799-.009.605-.272 1.354-.39 1.946-.114.561-.105 1.009-.215 1.556-.113.563.057 1.182.164 1.632.102.428.065.837.152 1.203.084.353-.234 1.166-.309 1.537-.081.405-.016 1.059-.004 1.49.016.533-.111 1.036-.099 1.473l.017 1.39c.013.467-.216 1.073-.31 1.536-.08.405-.086.922-.193 1.453-.09.448.08 1.087.185 1.53.11.463.035.806-.078 1.37-.077.38.008 1.087.016 1.388.013.449-.109 1.128-.1 1.473.005.124 1.246-.513 1.396-.573z"/><path id="F" d="M112.253 108.905c.014.493-.512-.823-.626-1.298-.09-.378-.22-.77-.382-1.036-.205-.335-.353-.827-.362-1.138-.006-.214-.39-.912-.477-1.055-.17-.28-.141-.82-.152-1.204-.003-.098-.495-.948-.572-1.074-.14-.23-.187-1.034-.32-1.343a6.42 6.42 0 0 1-.362-1.139l-.247-1.222a6.9 6.9 0 0 1-.205-1.427c-.007-.246-.379-.893-.552-1.176-.244-.401-.197-.829-.32-1.344-.11-.46-.12-.865-.132-1.305-.01-.392-.055-.988-.131-1.306-.122-.51-.318-.953-.415-1.362-.113-.47-.27-.754-.362-1.139l-.321-1.343c-.102-.427-.23-.665-.247-1.222s-.135-1.135-.259-1.651c-.115-.482-.349-.696-.362-1.139-.01-.376-.391-.887-.51-1.381-.106-.446-.57-.946-.908-1.355-.35-.424-.57-.662-.856-1.132-.267-.438-.683-.876-1.065-1.066-.311-.155-.638-.65-.992-.946l-.938-.721c-.404-.337-.643-.631-1.106-.862-.307-.153-.758-.691-1.086-.964-.36-.3-.47-.601-.918-.824-.41-.205-.536-.447-.843-.703-.362-.301-.424-.652-.708-.888-.5-.417-.893-.668-1.254-1.105-.35-.422-.99-.838-1.485-.938-.14-.028-.717-.803-.802-.907-.29-.351-.487-.525-.823-.805-.172-.143-.396-.867-.477-1.055-.103-.238-.154-1.195-.317-.383-.094.47-.301 1.009-.403 1.517l-.371 1.845c-.07.348-.09.969-.078 1.37.017.605-.179 1.17-.161 1.78.018.623-.084 1.17-.066 1.798.017.588-.11.993-.12 1.575-.008.527.19.9.206 1.426l.09 1.51c.015.524.015.906-.078 1.37-.06.3.263.917.34 1.242l.322 1.343c.104.438.27.753.361 1.139.112.467.356.736.457 1.157.087.364.48.81.646 1.196.227.527.528.73.76 1.112a3.9 3.9 0 0 1 .531 1.28c.117.489.394.896.51 1.38.11.462.408.766.53 1.28.116.485.36.862.626 1.298.316.518.735.795 1.045 1.17.362.438.767.578 1.106.861l1.107.862 1.18.983c.456.38.645.657.992.946a4.09 4.09 0 0 1 .876 1.028l.666 1.094c.277.454.585.686.782 1.01.208.341.474.574.728.785.293.244 1.045.324 1.378.49l1.169.555c.441.193.649.436 1.053.638.556.277.885.677 1.275 1.002.407.34.838.818 1.16 1.086.303.252.457.749.666 1.093.186.304.521.613.728.786.383.319.617.603.803.907.217.358.527.594.707.889.314.515.247-1.23.37-1.845zm1.815-5.604c.243.4.541-.796.74-1.236.175-.385.478-.653.68-.93.312-.427.435-.696.551-1.275.087-.432.475-.877.646-1.255.21-.463.4-.843.626-1.154.232-.317.518-.972.646-1.255.284-.628.195-.936.593-1.48.344-.471.52-.807.761-1.34.259-.57.362-1.089.708-1.563.327-.447.473-.977.708-1.563.163-.406.423-.82.835-1.217.39-.375.672-.845.93-1.2.309-.422.697-.683.93-1.198.139-.306.864-.736 1.099-1.058.295-.404.718-.87 1.004-1.077.326-.236.718-.774 1.12-1.161.335-.323.953-.603 1.246-.815.373-.27.71-.489 1.016-.649.43-.226.768-.68.984-.975.305-.417.8-.755 1.193-1.039.323-.234.671-.574.942-.77.435-.315.908-.477 1.321-.694a5.96 5.96 0 0 1 1.185-.508c.496-.152 1.098-.508 1.415-.675.714-.375 1.276-.247 1.963-.458l1.469-.45c.478-.148.673-.475 1.185-.509.466-.03.874-.31 1.448-.348.467-.031.848-.26 1.26-.387l1.258-.386c.517-.16.959-.439 1.605-.637.41-.126.758-.462 1.016-.649.553-.4.545-.39.67-.398.457-.03-.38.913-.477 1.396-.081.406-.276.885-.383 1.416l-.308 1.536c-.12.597-.081.893-.194 1.454-.131.653-.341 1.208-.465 1.825-.104.515-.342 1.21-.54 1.703l-.707 1.564c-.211.465-.39.957-.478 1.396-.105.521-.622 1.143-.843 1.749-.235.64-.67 1.135-.939 1.73-.157.347-.735.784-1.024 1.18-.334.456-.784.742-1.194 1.039l-1.172.937c-.403.387-.65.47-1.153.834-.465.337-1.12.726-1.571.963-.565.297-.769.557-1.268.918-.375.272-.724.437-1.131.732-.429.31-.686.584-1.058.853l-1.403 1.104c-.36.346-.714.517-1.152.834l-1.403 1.104c-.368.266-.823.508-1.132.732l-1.036.75c-.404.293-.764.29-1.206.611s-1.305.497-1.7.618c-.467.144-.57.29-1.049.322s-.859.259-1.238.284c-.349.023-.775.27-1.07.425s-.878.173-1.238.284c-.47.144-.838.333-1.354.367-.34.023-.877.346-1.185.508l-1.11.63c-.336.242-.569.462-.902.565-.28.086-.552.458-.9.565-.29.088-.462.421-.713.603-.31.224-.278-.729-.477-1.055-.189-.31.534-.509.753-.808.356-.487.383-.649.667-1.359z"/><path id="G" d="M114.95 103.227s7.61-8.899 14.976-15.239 16.69-12.248 16.69-12.248l-6.896 13.373-17.495 14.51z"/><path id="H" d="M101.931 49.061c.015-.02.387 1.2.395 1.465.017.588.154.833.247 1.222.107.448.17.687.382 1.037.226.37.307.64.498.952a4.2 4.2 0 0 0 .876 1.029c.314.262.416.819.572 1.074.226.371.422.557.613.87.226.37.307.64.497.952l.593.972.592.972c.215.353.328.709.477 1.055.183.424.364.771.456 1.157.08.333.613.869.782 1.01.184.153.36.727.498.953.226.37.307.64.497.952.215.353.249.817.457 1.158.277.454.168.738.571 1.074.248.206.363.868.552 1.177.27.443.253 1.097.489 1.484.218.357.122.746.436 1.26.211.346.3.692.382 1.036.095.398.298.68.383 1.036.096.401.023.813.037 1.287.012.416-.09.968-.079 1.37.014.467-.216 1.073-.309 1.536-.12.596-.08.892-.193 1.453-.118.587-.076.868-.194 1.454-.08.395.154.702.037 1.286-.113.56-.074.86-.194 1.454-.082.408.143.76.037 1.286-.081.406-.087.922-.194 1.453-.067.336.144.904.153 1.203l-.004 1.492c.018.645.055.988.184 1.529.112.469.211.795.227 1.324.012.44.377 1.016.435 1.26.105.44.215.915.226 1.325.014.457.277.779.362 1.139.098.407-.3.742-.584.948-.352.255-.53.472-.827.686-.221.16-.301-.766-.551-1.176-.141-.231-.312-.927-.362-1.139-.129-.54-.344-.972-.605-1.4-.218-.36-.275-.724-.477-1.055-.312-.512-.27-.869-.625-1.298-.247-.3-.43-.705-.592-.972-.246-.404-.435-.612-.823-.805-.346-.173-.738-.667-.897-.926-.103-.17-.826-.63-.938-.722-.409-.34-.644-.631-1.106-.862-.16-.08-.576-.808-.761-1.112l-.91-1.355-.719-1.317c-.286-.47-.418-.819-.625-1.298-.192-.444-.302-.903-.53-1.28l-.667-1.092c-.233-.382-.348-.98-.53-1.28-.219-.358-.303-.89-.416-1.362a6.35 6.35 0 0 1-.152-1.203c-.013-.472-.172-.72-.267-1.12-.12-.504-.325-.667-.341-1.24-.012-.392-.274-.959-.342-1.242-.17-.713-.014-1.38-.176-2.06-.129-.538-.207-.748-.457-1.158-.135-.222-.15-1.003-.226-1.324-.128-.538-.396-1.095-.543-1.708-.114-.478-.154-.703-.036-1.287.08-.397.1-.986.193-1.453.082-.409.356-.786.531-1.172.206-.456.296-.984.403-1.518.125-.62.105-1.011.235-1.658.102-.505-.12-.881-.131-1.306-.014-.467.216-1.073.309-1.536.059-.295.6-.747.794-1.013.285-.39.516-.61.625-1.154.112-.556.498-1.005.614-1.582.09-.45.54-.962.74-1.237.156-.212.017-.83-.004-.96zm42.149 13.16c.308-.423-.903.54-1.395.572-.405.027-.98.398-1.28.49-.405.124-.811.23-1.206.61-.209.201-.844.261-1.184.508-.405.293-1.153.33-1.7.618-.388.203-.913.388-1.3.591-.448.236-.68.405-1.131.732-.392.283-.74.448-1.017.648-.444.322-.951.615-1.456.88-.369.194-.807.667-1.194 1.04-.542.522-1.032.747-1.613 1.167-.468.34-1.064.582-1.436.778-.36.19-.916.585-1.172.937-.191.261-.888.555-1.247.815-.39.283-.893.75-1.193 1.04-.354.34-.778.473-1.152.833l-1.12 1.161a9.377 9.377 0 0 0-1.024 1.18c-.291.398-.782.918-1.14 1.263-.475.457-.895 1.076-1.317 1.654-.29.397-.637.722-.761 1.34-.048.236-.608 1-.762 1.338-.203.45-.481.893-.646 1.256-.187.413-.247 1.116-.383 1.416-.23.51-.258 1.285-.37 1.844-.103.51-.153 1.247-.161 1.78-.008.501-.11 1.08-.099 1.472.015.533-.243 1.208-.35 1.741-.118.59-.278.894-.383 1.416-.085.423-.394.98-.498 1.498-.113.562.268.935.341 1.241.17.711.249.433.663.133.382-.276.686-.409 1.016-.648.293-.212.872-.316 1.165-.406.42-.129.794-.388 1.184-.508s.9-.21 1.428-.246c.464-.03.789-.557 1.3-.591.435-.029 1.033-.313 1.49-.553.482-.254.887-.561 1.32-.694a4.73 4.73 0 0 0 1.531-.759c.294-.213.704-.422 1.017-.648.404-.293.706-.744 1.024-1.18.22-.301.808-.497 1.016-.648.468-.34 1.009-.555 1.457-.88.457-.331.937-.698 1.477-.982.603-.317.937-1.029 1.465-1.411.319-.23.784-.925.91-1.097.414-.567.868-.864 1.35-1.327.476-.459 1.054-.843 1.2-1.57.07-.343.584-1.004.783-1.442.251-.556.865-1.33 1.222-1.673.384-.37.61-1.199.938-1.73.263-.427.565-.851.688-1.46l.329-1.64c.088-.44.366-.808.53-1.172.202-.444.426-.88.626-1.154.221-.302.394-.927.552-1.275l.667-1.358c.232-.512.26-1.293.37-1.844l.37-1.844c.12-.594.118-1.071.236-1.658a5.78 5.78 0 0 0 .024-1.594zM114.306 26.18c.11-.547-.194 1.114-.424 1.62l-.53 1.173c-.215.473-.392.834-.626 1.153a8.8 8.8 0 0 0-.761 1.34l-.667 1.358-.687 1.46-.647 1.256c-.256.567-.264.808-.53 1.173-.316.432-.395.984-.499 1.498-.107.536-.228 1.05-.214 1.556.017.6.17 1.02.185 1.53.014.486.151.717.037 1.286-.095.474-.013 1.043-.12 1.575-.147.735 0 1.306-.012 2.022l.049 1.716c.018.646-.2 1.26-.182 1.882.013.455.038.791-.078 1.37-.096.477.211 1.59.386 1.996.22.51.212.954.626 1.298.297.248.364 1.336.448 1.689l.374 1.567c.144.602.461 1.301.732 1.746l.814 1.336.868 1.56c.264.612.398 1.06.753 1.644.372.61.53 1.086 1.036 1.7.419.507.544 1.072.963 1.58.398.482.498 1.144.942 1.68.35.426.516.996.699 1.42.224.52.207.757.662.133.275-.375.56-.331.68-.929.11-.547.37-.868.497-1.499l.33-1.639c.13-.646.036-1.162.16-1.78.109-.538.118-1.075.235-1.658.146-.727.238-1.068.614-1.582.261-.358.458-.784.625-1.153.194-.428.535-.725.72-1.135.206-.454.36-.813.478-1.396.107-.533.398-1.002.518-1.601.126-.623-.02-1.42-.102-1.94a5.7 5.7 0 0 1 .045-1.695c.087-.43-.074-.97-.09-1.51-.014-.5-.19-.883-.205-1.428-.019-.642.022-1.228-.124-1.836-.118-.497-.094-.834-.11-1.408-.018-.63.198-1.298.18-1.882-.016-.602-.125-1.127-.143-1.735-.013-.464-.023-.853-.131-1.305-.148-.62-.412-1.23-.428-1.792-.01-.347-.156-.841-.247-1.222-.146-.614-.313-.922-.678-1.522a6.036 6.036 0 0 1-.658-1.624c-.104-.437-.395-.783-.646-1.196-.32-.526-.403-.71-.835-1.233l-1.098-1.393c-.362-.438-.682-.847-.93-1.253-.295-.485-.678-.953-.794-1.439s-.494-1.083-.699-1.42a9.69 9.69 0 0 0-.76-1.111z"/><path id="I" d="M117.541 71.81c.034-.17.771-.962.971-1.403.13-.285.802-.581 1.037-.751l1.173-.937c.297-.215.541-.626.679-.93.17-.375.42-.756.646-1.255l.552-1.275.572-1.377c.184-.406.685-.544.889-.994.148-.328.678-.666.962-.873.42-.304.748-.621 1.153-.834.474-.25 1.024-.738 1.403-1.104.357-.344.735-.634.983-.974.106-.145.87-.63 1.037-.751.39-.283.893-.384 1.206-.61.422-.307.799-.142 1.28-.49.376-.273.838-.432 1.11-.63.352-.254.938-.4 1.3-.59.525-.276.784-.397 1.132-.733.325-.313 1.162-.308 1.563-.431.578-.178.967-.22 1.523-.227.57-.009.988-.268 1.637-.31l1.88-.05c.494-.007.962-.02 1.65.119.595.12 1.228-.03 1.786-.068.543-.036 1.083.111 1.629.221.461.093 1.01-.022 1.407-.143.545-.168.873-.128 1.428-.246l1.732-.292c.289-.019.826-.423.996-.546.21-.152-.16 1.037-.247 1.23-.174.382-.55.701-.7 1.031-.244.54-.565.93-.95 1.302-.319.306-.86 1.269-1.013 1.608a7.52 7.52 0 0 1-.74 1.237l-.68.93-.7 1.031c-.342.47-.618.623-1.077.956-.428.31-.644.73-1.004 1.077-.43.413-.989.629-1.478.982l-1.152.835c-.56.406-1.091.44-1.646.842-.469.34-.997.402-1.489.553a6.81 6.81 0 0 0-1.53.758c-.505.365-1.17.552-1.72.72-.583.18-1.015.61-1.626.74-.393.084-1.163.492-1.53.758-.423.306-1.134.378-1.658.413-.584.039-1.037.325-1.807.17-.574-.116-1.319.037-1.785.067-.556.037-1.095.2-1.523.227-.51.034-1.07.185-1.542.33l-1.984.56c-.572.176-1.043.417-1.489.554-.605.186-.946.335-1.415.675-.454.328-1.173.593-1.646.842-.378.198-.837.606-1.152.834-.385.278-.377.122-.506-.421-.087-.364-.177-.59-.037-1.287.11-.545.285-.506.51-1.07zm36.636-44.652c.04-.198-.522.618-1.288 1.02-.475.25-.786.55-1.131.732-.438.23-.6.617-1.037.751-.253.078-.786.57-1.037.751a3.6 3.6 0 0 1-1.49.553c-.391.026-1 .26-1.353.368-.603.185-1.128.01-1.712.189a5.65 5.65 0 0 1-1.333.265c-.425.028-.979.3-1.469.45l-1.584.535c-.453.14-.899.372-1.28.49-.582.178-1.035.574-1.456.879-.49.354-.941.576-1.382 1.001-.52.5-.888.993-1.35 1.328l-1.362.899c-.617.447-1.235.8-1.654 1.372l-1.473 1.943a5.79 5.79 0 0 0-.762 1.339c-.2.5-.932 1.2-1.296 1.551-.422.407-.798 1.016-1.255 1.347-.37.268-.59.903-.74 1.237-.157.344-.676.702-.89.994a3.71 3.71 0 0 0-.707 1.563l-.35 1.741a2.76 2.76 0 0 1-.552 1.275c-.387.53-.59.675-.835 1.218-.214.47-.506.426-.49.967.012.437.178.962.395 1.465.114.265.192.96.193.999.016.576.733-.872 1.14-1.264.452-.435.897-.586 1.456-.88.426-.223 1.061-.505 1.436-.777.346-.25 1.137-.46 1.51-.656.45-.236.991-.256 1.354-.367l1.983-.56 1.773-.497c.59-.181 1.222-.536 1.889-.58.738-.049 1.273-.716 2.024-.766.286-.018 1.326-.89 1.613-1.168.503-.484.851-.879 1.445-1.308.5-.362.845-.875 1.329-1.225.462-.335.62-.624 1.078-.956l1.403-1.104c.544-.394.63-.773 1.14-1.263.34-.327.764-1.004.991-1.506.237-.523.839-1.296 1.128-1.692.402-.55.764-1.066 1.181-1.468l1.33-1.225c.31-.3.57-1.004.876-1.423.273-.374.385-.907.551-1.275l.531-1.172c.238-.525.45-.767.626-1.153a7.92 7.92 0 0 1 .74-1.237c.262-.359.273-1.294.445-1.723.287-.715.04-1.055.025-1.594-.005-.173-.211-.255-.317-.383z"/><path id="J" d="M154.888 8.435a48.48 48.48 0 0 0-1.362.899l-1.477.982c-.475.344-1.266.485-1.7.618-.641.197-1.005.47-1.678.515-.557.037-1.22.457-1.72.72-.471.248-.871.456-1.341.797-.565.409-1.25.587-1.856.906-.525.276-1.092.768-1.667.944-.513.158-1.305.683-1.781 1.028-.56.406-1.214.756-1.728 1.251-.488.47-.87.818-1.255 1.347l-.951 1.3c-.415.49-.894 1.15-1.337 1.757l-1.317 1.654-1.453 1.84c-.407.557-.57 1.089-.823 1.647-.193.426-.216 1.073-.309 1.536-.127.633-.356.902-.572 1.378-.232.512-.545.92-.782 1.441-.248.548-.463 1.324-.58 1.909-.12.592-.462 1.358-.675 1.89l-.613 1.581c-.214.534-.323 1.115-.445 1.723l-.391 1.947-.412 2.049-.082.41c-.139.689-.477 1.165-.75 1.767a8.15 8.15 0 0 0-.539 1.704c-.102.509-.104 1.007-.214 1.556-.106.527-.01 1.033-.14 1.677-.097.484-.413.634.276.588.512-.034.659-.486.888-.993.227-.5.623-.556 1.152-.835.554-.29.958-1.088 1.297-1.551.434-.595.676-1.065 1.201-1.57l.367-.354c.515-.496 1.029-.74 1.444-1.308.39-.534 1.227-.889 1.728-1.252.538-.389 1.128-1.024 1.485-1.513l.272-.372c.36-.493 1.02-1.148 1.506-1.616.558-.537.99-1.087 1.527-1.718.433-.51 1.098-.91 1.465-1.411.311-.426 1.357-.808 1.687-1.047.63-.456 1.225-1.103 1.716-1.68l1.14-1.263c.362-.35.733-.484 1.078-.956.363-.498.87-.977 1.255-1.347.618-.595 1.061-1.556 1.683-2.006.427-.31.696-1.102.991-1.506l1.107-1.59c.371-.507.569-1.084.823-1.647.225-.494.467-1.01.782-1.441.284-.389.48-.913.593-1.48.092-.455.417-1.093.54-1.704l.35-1.741c.114-.571-.036-.89.172-1.351.23-.506.452-.779.572-1.377l.31-1.537c.131-.656.537-1.206.674-1.89l.31-1.536c.033-.171-.294.154-.441.231z"/><path id="K" d="M124.501 48.394a.67.67 0 0 0-.22-.023c-.031.002-.056.015-.067.03a2.38 2.38 0 0 0-.397.859 4.602 4.602 0 0 1-.344 1c-.134.296-.395.699-.56 1.065-.202.445-.365.795-.59 1.104-.106.144-.476.64-.519.855-.102.51-.339.974-.437 1.462-.01.05-.01.1-.03.146-.194.486-.257 1.066-.472 1.542l-.39.925c-.166.365-.243.92-.473 1.236-.243.333-.542.971-.62 1.359-.098.485-.134 1.117-.316 1.572-.226.563-.362 1.16-.574 1.74-.264.719-.346 1.573-.66 2.267-.298.659-.36 1.5-.658 2.158s-.549 1.612-.692 2.327c-.14.691-.406 1.308-.542 1.985l-.45 1.939-.346 1.72-.35 2.045c-.104.515-.132 1.247-.346 1.72-.196.433-.302.925-.479 1.366a4.28 4.28 0 0 0-.286 1.426 6.96 6.96 0 0 1-.132 1.37c-.111.55-.5 1.11-.483 1.691.014.518-.2 1.268-.262 1.606-.127-.01-.224-.006-.221.086.008.294-.08.7-.156 1.082-.1.499-.176 1.027-.162 1.516l.08 1.02c.016.529-.007 1.14.116 1.66.101.424.217 1.055.126 1.508l-.06.294c-.063.317-.234.841-.24 1.195-.007.437-.227.937-.215 1.375.01.314-.139.662-.128 1.043.01.323-.167.837-.09 1.16.057.24.088.985.018 1.335-.083.41-.143.689-.148 1.04-.006.388.054.742.067 1.19.012.425.23.794.243 1.228.012.397.22 1.026.284 1.431.07.451-.037.896-.136 1.391-.106.527-.114.97-.221 1.505-.11.548-.078 1.097-.179 1.6-.087.432.006.618.018 1.029l.022 1.313c.014.484.115.85.017 1.335-.087.435-.008.662-.014 1.088-.007.476.165.876.176 1.257.011.404.12.716.22 1.135l.323 1.243.475 1.492.221 1.135c.078.327.328.76.339 1.16.014.494.154.814.248 1.205.07.298.3.694.348 1.008-.232.05-.414.153-.407.399.014.48.632.662.643 1.067.008.275-.073.724.01 1.071.135.568.465 1.13.598 1.691.11.458.463 1.035.476 1.492.014.488.23.621.359 1.163l.277 1.06.243.92a4.56 4.56 0 0 0 .434 1.092c.167.274.624.946.692 1.23.126.53.32.996.508 1.433.15.346.455.815.618 1.193.172.399.308.937.58 1.382.216.355.302.68.509 1.018.171.282.49.663.584 1.056.098.409.3.573.385.928.077.322.26.72.447 1.028.161.265.582.638.738 1 .144.332.304.943.596 1.297s.527.762.768 1.158c.277.455.402.839.68 1.293.2.329.318.76.579 1.076.22.267.494.489.693.816.266.436.342.88.597 1.298l.667 1.05c.17.282.324.705.59.926.328.274.651.632.879 1.006.235.385.46.565.705.862l.748.848a3.64 3.64 0 0 1 .6.972c.197.456.478.762.601 1.277.065.273.25.927.413 1.195.18.297.366.471.497.777.198.457.436.737.674 1.117l-.048.034c-.336.243.461.657.628 1.042.192.445.59.892.825 1.279a4.4 4.4 0 0 0 1.15 1.082c.227.113.524.76.66.983l.645 1.155c.18.415.439.815.677 1.205s.584.805.854 1.132c.297.359.512.6.743.978.257.422.55.818.841 1.195.305.393.637.692.952.955.46.384.753.897 1.195 1.265.37.308.64.577.951.955l.805.969c.269.325.616.573.834.931.21.343.918.724 1.239.947.336.234.599.602.839.801l.987.875c.25.209.453.554.757.807.276.23.612.786.863 1.09.33.398.75.733.996 1.138.221.363.875.651 1.245 1.014.332.325.725.664 1.119.835.218.096.671.71.9.901.411.342.827.587 1.167.998.234.283.756.509 1.051.866.213.258.56.526.782.68.441.307.875.804 1.229 1.099.361.3.734.712 1.084 1.003l.245.202c.484.403.815.792 1.366 1.125.298.18.566.575.823.886.375.454 1.136 1.029 1.628 1.243.358.156.764.677.96.913.253.307.727.634.921.796l.28.23c-.092.464.295.728.792 1.142.516.43 1.06.746 1.597 1.193.77.642 1.595 1.108 2.514 1.51.679.295 1.317.936 1.99 1.272.404.201.96.69 1.242.926.443.368.897.623 1.326.92l1.541.965 1.516 1.09c.448.372.713.708 1.309 1.005.551.275 1.387 1.034 1.845 1.483.474.464 1.045.781 1.474 1.3.289.35 1.37.912 1.795 1.124.658.328 1.12.881 1.67 1.34.593.493 1.384.739 2.032 1.062.765.382 1.478.843 2.327 1.013.681.137 1.607.793 2.229 1.103l1.935.934c.655.327 1.358.687 1.912 1.148s1.38.953 2.106 1.1c.426.085.987.716 1.444.944.626.313.956.629 1.681.774.567.114 1.148.69 1.854.831.56.112 1.435.69 1.836 1.023.394.329.996.642 1.346.816.493.246.984.376 1.487.627l1.11.572c.413.205.73.391.999.615.284.236.708.493.995.636.211.106.37.115.514.082.203.052.382.1.65.218.469.204.976.279 1.43.505.319.159.833.317 1.114.551.196.163.59.603.871.742l1.095.548c.47.234.737.564 1.17.78.485.242.579.538 1.067.782.436.217.8.22 1.332.486l1.094.547 1.345.439 1.3.349 1.61.627.886.486 1.4.879 2.135.428 1.114.55.856.413-1.131-6.053c-.038-.015-.082-.038-.114-.044-.501-.101-.81-.282-1.233-.466-.12-.053-.702-.096-1.457-.308-.63-.177-1.38-.472-2.081-.99-.534-.393-1.128-.093-1.75-.313-.636-.225-1.389-.799-1.913-.98l-1.672-.548c-.536-.107-.814-.257-1.234-.466-.25-.124-.87-.502-1.212-.57-.467-.094-.771-.375-1.208-.592-.296-.148-.84-.387-1.213-.462-.59-.119-1.26-.428-1.58-.47l-.047.033c-.045-.062-.144-.094-.321-.13-.19-.038-.286-.274-.427-.413-.41.083-1.123-.329-1.508-.52-.37-.185-.498-.534-.876-.722-.367-.183-.522-.539-.97-.762a6.494 6.494 0 0 1-1.17-.78c-.32-.268-.747-.461-1.17-.673a11.06 11.06 0 0 1-1.465-.84c-.534-.37-1.37-.82-2.131-.973-.52-.104-1.069-.763-1.424-.94-.462-.231-.902-.46-1.187-.697-.313-.261-.607-.45-1.114-.551-.681-.137-1.24-.768-1.816-1.02-.727-.317-1.381-.79-1.985-1.293-.434-.362-1.323-.709-1.759-.9l-2.033-.953c-.52-.26-1.194-.638-1.635-1.005a5.919 5.919 0 0 0-1.175-.76c-.383-.191-.762-.575-1.129-.881-.55-.459-1.18-.712-1.81-1.15-.704-.488-1.216-.569-1.955-.938l-1.662-.77c-.456-.199-.89-.635-1.264-.821-.564-.281-.996-.693-1.541-.964-.355-.177-.792-.683-1.03-.97-.31-.376-1.193-.676-1.637-.897-.612-.306-1.088-.825-1.618-1.089-.625-.312-1.149-.714-1.716-1.108-.42-.292-.844-.71-1.228-.902-.552-.275-.85-.697-1.226-1.01a4.77 4.77 0 0 0-.99-.657c-.406-.202-.826-.275-1.353-.38-.56-.113-1.132-.196-1.607-.433-.213-.106-.48-.32-.71-.535.005-.008-.013-.016-.014-.025-.01-.045-.067-.103-.171-.165l-.156-.14c-.2-.166-.365-.225-.513-.19-.006-.003-.014-.003-.02-.005l-.226-.089c-.204-.178-.423-.39-.687-.443-.215-.043-.636-.638-.721-.778-.153-.25-.45-.417-.658-.59-.303-.253-.474-.474-.738-.694a4.02 4.02 0 0 0-.881-.592c-.257-.128-.605-.483-.86-.696-.277-.23-.55-.537-.739-.694-.28-.233-.481-.377-.657-.59-.207-.25-.572-.45-.871-.742-.223-.218-.502-.448-.782-.681l-.984-.896c-.415-.346-.688-.673-1.084-1.003l-.245-.202c-.415-.346-.825-.759-1.18-.936-.338-.168-.327-.586-.702-.773-.35-.175-.7-.66-.983-.896-.271-.226-.62-.458-.873-.634-.342-.237-.625-.34-.81-.642s-.565-.52-.768-.853c-.199-.327-.511-.433-.706-.753-.178-.292-.608-.625-.822-.885-.341-.412-.615-.487-.893-.943-.176-.29-.646-.567-.851-.738-.331-.276-.497-.575-.743-.978-.234-.385-.718-.705-.962-1.001-.24-.29-.468-.558-.677-.9-.192-.315-.409-.53-.634-.803a8.5 8.5 0 0 0-1.068-1.088 4.51 4.51 0 0 1-1.013-1.36c-.243-.564-.759-.858-1.087-1.396-.255-.42-.941-.968-1.332-1.293-.441-.368-.928-.607-1.167-.998-.272-.447-.653-.606-.93-1.06-.24-.395-.526-.655-.635-1.11-.102-.43-.447-.745-.658-1.091-.187-.307-.459-.584-.752-.828-.28-.233-.497-.761-.597-.993-.15-.346-.347-.446-.51-.713-.111-.183-.176-.273-.248-.29-.06-.014-.113.014-.197.07l-.016-.025-.626-1.151c-.138-.227-.224-.408-.47-.706-.43-.52-.767-1.175-1.149-1.802-.387-.636-.673-1.122-1.165-1.717-.278-.336-.764-.677-.863-1.09-.042-.176-.31-1.146-.46-1.27-.264-.221-.228-.557-.48-.86-.318-.386-.469-.616-.81-.949-.324-.318-.55-1.012-.953-1.348-.295-.246-.711-1.032-.878-1.42-.174-.402-.376-.646-.56-1.072l-.62-1.281c-.189-.436-.621-.812-.739-1.305-.124-.52-.473-.936-.58-1.382-.073-.306-.271-.807-.42-1.154-.214-.494-.603-1.068-.784-1.488-.225-.521-.654-.944-.858-1.416-.17-.394-.39-.823-.476-1.186-.112-.468-.36-1.006-.371-1.406-.01-.36-.224-.795-.326-1.222-.079-.33-.434-.777-.513-1.106a4.01 4.01 0 0 0-.476-1.187c-.253-.416-.297-.946-.508-1.433-.176-.407-.114-.985-.309-1.305-.146-.24-.371-.934-.38-1.255-.014-.456-.283-1.067-.268-1.21-.154-.484-.18-.67-.355-1.075-.142-.329-.22-.813-.322-1.243l-.078-.321c-.06-.249-.113-.418-.178-.538-.021-.31-.11-.632-.105-1.002l-.037-2.255c-.02-.69-.195-1.473-.36-2.167-.163-.68-.35-1.43-.37-2.125v-.305c-.017-.616-.176-1.174-.282-1.846-.083-.531-.021-1.105-.037-1.644-.021-.75-.003-1.712.147-2.458.141-.701-.004-1.306-.024-2.012l-.145-1.818-.205-2.943c-.131-.836-.062-1.583-.086-2.417-.02-.724-.154-1.269-.174-1.977-.02-.695.055-1.71-.098-2.354-.143-.596-.155-1.228-.145-1.818.01-.724-.022-1.72.127-2.462.126-.626.254-1.627.238-2.199-.02-.688.26-1.674.102-2.336a.777.777 0 0 0-.096-.237l.172-.446c.195-.487.268-1.031.374-1.56l.359-1.783.484-2.717c.143-.71.074-1.482.206-2.14l.664-2.9c.14-.7.187-1.585.451-2.244.307-.765.423-1.637.768-2.398.31-.683.498-1.463.651-2.225l.542-2.291.493-2.149c.121-.603.216-1.216.437-1.766.261-.653.267-1.806.68-2.372.454-.622.816-1.823.972-2.598.128-.638.513-1.132.632-1.727.145-.72.445-1.499.58-2.175.15-.743.5-1.471.643-2.183.13-.644.395-1.252.53-1.923.055-.275.364-1.184.12-1.306-.021-.01-.39-.188-.662-.264z"/><path id="L" d="M230.288 226.6c-.46-.2-1.169.015-1.62.156-.35.11-.385.817-.431 1.257-.06.572-.188 1.054-.146 1.394.07.57.123.784.273 1.222.151.444.513.64.813.844a3.71 3.71 0 0 1 .913.855c.142.19.837.463 1.045.543.401.155.75.485 1.232.672.228.088.774.587 1.023.757l1.034.65c.326.224.91.204 1.376.253.416.044.74.295 1.266.35l1.586.165 1.486.156c.459.048-.678-.708-1.11-.876-.328-.126-.688-.585-.924-.747-.453-.31-.545-.488-.924-.747-.226-.155-.602-.645-.703-.942-.13-.38-.412-.673-.604-.93-.275-.369-.6-.68-.802-.952l-.791-1.06-.79-1.058c-.301-.402-.384-.55-.814-.844-.387-.265-.402-.574-.825-.738-.316-.122-.573-.5-.935-.64-.209-.08-.419.173-.628.26zm-58.813-29.797c.466.093-.38-.953-.394-1.465a6.327 6.327 0 0 0-.152-1.203c-.113-.47-.099-.967-.111-1.408-.002-.07.027-.137.041-.205.094-.468-.006-1.044-.016-1.389-.013-.449-.03-.828.078-1.37.113-.56.264-.821.383-1.415l.309-1.537c.101-.503.204-1.083.193-1.453-.013-.47.204-1.102.194-1.454-.015-.522.206-1.022.194-1.453-.013-.443.09-.925.078-1.37-.013-.467.216-1.073.309-1.536.08-.398.1-.987.194-1.454.118-.591-.001-.85-.017-1.389-.013-.467.216-1.073.31-1.536l.308-1.537c.12-.599.09-.965.078-1.37-.014-.497-.222-.933-.32-1.343s-.212-.835-.226-1.325c-.013-.453-.17-.903-.247-1.222l-.267-1.12c-.1-.42-.004-.96-.017-1.388-.01-.375-.272-.952-.34-1.241-.104-.433-.275-.772-.363-1.14-.114-.476-.29-.719-.592-.97-.12-.1-.392-.78-.498-.953-.347-.57-.625-.354-.781-1.01-.095-.397-.292-.656-.383-1.036-.11-.459-.348-.67-.362-1.139-.008-.264-.39-.778-.497-.953-.226-.37-.307-.64-.498-.952-.185-.304-.543-.482-.728-.786-.138-.227-.674-.622-.917-.824l-.918-.824c-.318-.265-.444-.55-.728-.786-.308-.256-.453-.507-.843-.702-.187-.093-.52-.716-.613-.87-.17-.279-.591-.492-.843-.702-.432-.36-.68-.423-1.148-.657l-1.168-.554-1.169-.555c-.513-.256-.367-.132-.522.641-.11.543-.207 1.014-.194 1.454.011.397-.09.934-.194 1.453-.111.555-.207.979-.193 1.453.014.496-.205 1.066-.194 1.453.017.578-.092.885-.078 1.37.016.555-.115.907-.1 1.473.013.42.068.846.153 1.203.108.452.025.863.037 1.286.015.533.146.801.246 1.222.105.44.117.784.132 1.306.013.457.117.806.131 1.305.014.481-.04.963.037 1.286.092.387.033.895.131 1.306.104.434.085.82.268 1.12.244.4-.017.703.382 1.036.104.086.262.944.267 1.12.01.363.306.712.383 1.035.1.422.027.934.037 1.287.011.4.063.833.152 1.203.103.434.2.737.382 1.036.135.22.325.796.383 1.036.102.43.316.656.497.953.226.37.462.683.708.888.262.218.232.79.382 1.036l.593.972c.21.346.37.758.55 1.176l.605 1.401c.183.423.445.593.687.99.275.451.382.764.572 1.075.219.359.413.858.551 1.177.183.425.329.805.341 1.24.008.272.384.903.477 1.056.124.202.28 1.076.321 1.343.093.593.26 1 .415 1.363.12.278.102 1.1.111 1.408.012.402.21.781.226 1.324.002.074.408.895.477 1.055.216.5.384.63.593.972.245.402.4.513.728.786.27.224.443.615.823.805.73.364.234.353 1.185-.508z"/><path id="M" d="M160.078 151.762s4.055 8.478 6.288 18.108 3.178 23.477 3.178 23.477l2.215-14.978-5.621-22.432zm-1.101 43.066s-11.088-1.29-20.374-1.431-19.667.64-19.667.64l12.661 6.092 21.761-.105zm-15.508-17.002s-10.388-4.145-19.298-6.698-19.083-4.49-19.083-4.49l10.825 9.25 20.978 5.557zm-18.084-17.827s-9.142-6.647-17.199-11.366-17.465-9.149-17.465-9.149l8.466 11.759 19.067 10.666zm-7.591-20.907s-8.737-7.023-16.874-11.584-18.142-8.252-18.142-8.252l8.664 11.588 19.25 10.294zm-5.619-14.565s-6.062-9.762-12.306-16.962-14.496-14.217-14.496-14.217l4.619 14.1 14.92 16.556zm-2.726-18.927s-4.187-10.884-9.004-19.274-11.628-17.013-11.628-17.013l2.01 14.872 11.625 19.41zm2.559-13.58s-1.692-11.71-4.532-21.136-7.553-19.576-7.553-19.576l-1.271 15.074 7.034 21.924zm5.342-21.377s.813-11.902.038-21.838-3.212-21.039-3.212-21.039l-4.383 14.484 2.218 23.217zm8.073-26.175s8.73-7.611 15.074-15.126 12.418-17.164 12.418-17.164l-12.825 6.554-14.562 17.884zm-3.53 10.759s7.818-8.689 15.33-14.824 16.97-11.784 16.97-11.784l-7.215 13.186-17.828 14.023zm-4.996 16.99s9.337-6.706 17.86-10.975 18.835-7.603 18.835-7.603l-9.662 11.267-20.12 9.602z"/><path id="N" d="M113.22 95.686s6.702-9.699 13.416-16.833 15.426-14.068 15.426-14.068l-5.544 14.05-16.002 16.401zm7.242 31.019s1.014-7.267 5.424-16.213 7.672-13.928 7.672-13.928l1.82 10.638-10.685 20.751zm11.894 30.882s-.298-11.892.908-21.844 4.124-21.098 4.124-21.098l3.758 14.419-3.225 23.26zm19.002 20.743s-3.53-11.168-5.082-20.973-1.775-21.282-1.775-21.282l7.56 12.468 3.232 23.046zm33.562 21.534s-1.86-11.657-4.841-21.044-7.858-19.502-7.858-19.502l-1.074 14.992 7.368 21.837z"/><path id="O" d="M176.72 203.484c-.143-.19-1.182-.118-1.54.076-.147.08-.813-.035-.985-.034-.365 0-.706.148-.973.149-.402 0-.632-.016-1.014.075-.289.07-.749-.132-1.16-.034s-.795-.108-1.202-.108a3.42 3.42 0 0 1-.957-.145c-.232-.078-.712-.035-.986-.034-.498 0-.864-.035-1.336-.034-.304 0-.697.003-1.026-.108-.397-.135-.604-.03-.901-.366-.006-.007-.847-.058-.918-.072-.44-.081-.704-.035-1.161-.034l.108.037c-.228 0-.756-.293-1.038-.292-.405 0-.576-.132-.985-.035-.277.066-.685.001-1.054.002-.343 0-.664-.109-1.025-.108-.317 0-.702.062-1.093-.071-.23-.078-.938.149-1.15.15-.454 0-.989.157-1.38.37-.27.147-.79.043-1.08.112-.347.083-.837.075-1.15.15l-1.069.296c-.403.096-.68.286-1.029.37-.573.136-.698.189-1.164.443-.312.17-.769.323-1.125.517l-1.085.59c-.402.218-.891.294-1.3.517-.367.2-.81.345-1.193.554a4.31 4.31 0 0 0-1.073.774c-.226.215-.604.437-.801.626-.31.295-.883.575-1.249.774s-.706.445-1.005.737c-.294.282-.762.51-1.112.7-.38.207-.776.518-1.18.738-.369.2-.657.452-1.046.664-.315.171.554.674.683.77.424.316.967.458 1.385.769.344.257.717.308 1.05.476l1.197.585 1.05.475c.551.279.704.44 1.292.439.369-.001.94.263 1.225.475.301.224.678.35.942.439.4.136.65.33.97.329.326-.001.668.226.97.328l1.145.329 1.185.401c.477.162.696.049 1.105.255.33.167.969.252 1.349.218.395-.036.967.108 1.376.107.458 0 .72.11 1.026.108.386 0 .703-.097 1.069-.296l1.085-.59 1.017-.553c.359-.196.67-.368.989-.443.277-.066.671-.039.945-.04.306 0 .88-.478 1.153-.626l1.22-.664c.425-.231.761-.51 1.18-.738.472-.256.635-.535 1.074-.774s.84-.266 1.3-.517l1.288-.7 1.289-.701c.457-.25.57-.379.869-.664l.993-.92c.309-.296.371-.488.83-.737.392-.214.784-.415 1.044-.664.302-.288.851-.463 1.22-.664a4.08 4.08 0 0 0 1.006-.737c.308-.295.473-.62.75-.883l.829-.737c.252-.24.71-.386 1.017-.553.404-.22.838-.28 1.272-.407.35-.103.61.049 1.041-.186.344-.187-.237-.44-.455-.514-.362-.122-.662-.164-.93-.255-.317-.108-.565-.109-.85-.108-.213.001-.47.138-.757.223z"/><path id="P" d="M172.368 206.194s-9.018.613-16.382 1.853-15.408 3.35-15.408 3.35l11.227 2.868 17.17-3.24z"/><path id="Q" d="M201.535 214.098c.04-.237-.05-.768-.046-1.14.004-.389.065-.897.09-1.366.023-.406.217-.856.354-1.13.169-.338.208-.86.297-1.23s.245-.68.354-1.13c.112-.463.02-.745.146-1.268.096-.4.008-.728.01-1.039.005-.42.097-.73.203-1.166.06-.251-.104-1.013-.102-1.24.003-.327-.098-.682-.16-.994-.067-.34-.193-.608-.256-.93-.084-.424-.004-.75-.065-1.058-.055-.274.103-.838.106-1.103.004-.397-.105-.71-.16-.994-.061-.306.001-.718-.066-1.057l-.16-.994c-.084-.424-.05-.763-.046-1.14.004-.388-.088-.674-.084-.975a4.623 4.623 0 0 0-.085-.975c-.09-.457.018-.674-.216-1.095-.2-.36-.17-1.22-.249-1.623l-.216-1.094-.236-1.012c-.085-.43-.297-.684-.293-1.113.003-.287-.307-.786-.407-.966a3.28 3.28 0 0 1-.388-1.05l-.273-1.194c-.083-.421-.24-.667-.407-.966-.189-.34-.344-.514-.639-.676-.163-.09-.448-.687-.523-.82-.121-.219-.592-.511-.81-.63-.245-.135-.392-.526-.447-.803-.065-.328-.214-.535-.276-.848-.072-.364-.31-.556-.448-.803-.085-.153-.635-.534-.81-.63-.268-.148-.537-.495-.638-.675-.107-.193-.787-.46-.905-.567l-.735-.611c-.252-.227-.566-.361-.754-.53-.287-.259-.362-.43-.658-.593-.37-.203-.232-.459-.534.218l-.41 1.03c-.179.359-.315.641-.409 1.03l-.297 1.23-.298 1.23-.357 1.476c-.107.443-.3.913-.413 1.376-.117.484-.065.794-.07 1.285-.005.461-.012.848.045 1.14.076.38.105.92.102 1.24-.005.457.005.756.1 1.24.068.34.167.787.293 1.112.183.474.119 1.036.365 1.477.223.402.22.746.292 1.113.068.344.25.72.312 1.03.075.38.195.623.256.93.076.387.21.516.276.849s.145.613.276.848c.157.281.222.575.276.848.06.3.21.61.352.866.17.307.228.526.372.785.176.317.159.552.467.72.27.148.37.778.407.967a6.602 6.602 0 0 0 .74 1.915c.183.329.337.607.408.967.032.161.47.674.543.74.299.268.483.543.79.711.322.177.625.651.75.876.116.207.44.473.659.593.12.066.182.727.18.912-.004.38.184.56.18.912-.002.224.347.612.467.72l.659.594c.175.158.236.647.276.848.072.365.278.617.427.885.179.32.282.515.352.866.074.375.24.602.236 1.012-.004.422.18.722.237 1.013.071.36.198.638.256.93.07.353.088.607.085.975-.004.402.575-.037.741-.081.051-.013.101.024.152.036.161.04.305-.157.458-.236z"/><path id="R" d="M200.43 208.655s-1.133-9.465-3.244-17.133-5.727-15.984-5.727-15.984l-1.338 12.064 5.258 17.852z"/><path id="S" d="M190.778 211.811c.394-.015-.654.416-1.032.51-.302.076-.614.183-.825.315a2.15 2.15 0 0 1-.907.299c-.17.007-.725.318-.839.39-.221.138-.653.119-.96.131-.079.003-.753.403-.853.466-.182.113-.825.158-1.071.267-.323.144-.588.22-.907.299l-.974.207c-.332.083-.71.16-1.139.176-.196.008-.71.31-.935.45-.318.199-.66.165-1.071.268-.367.092-.69.102-1.042.116-.313.012-.79.052-1.042.116-.407.101-.759.261-1.085.343-.375.093-.6.222-.907.299l-1.07.267c-.341.085-.53.19-.975.207s-.906.118-1.317.22c-.384.097-.553.286-.907.3-.3.011-.706.32-1.1.419-.355.088-.75.463-1.075.737-.335.283-.524.46-.897.693-.348.217-.694.553-.843.86-.121.25-.514.515-.747.8l-.569.756c-.266.326-.499.52-.68.891-.12.247-.545.612-.76.876-.237.29-.477.381-.651.74-.16.33-.353.433-.555.68-.238.292-.517.344-.704.572-.329.405-.526.72-.872 1.012-.334.283-.662.798-.737 1.195-.02.111-.636.579-.718.648a4.26 4.26 0 0 0-.636.664c-.113.139-.69.324-.84.39-.19.084-.953.133-.303.256.376.072.809.233 1.216.31l1.476.28c.28.054.776.065 1.096.052.484-.019.937.133 1.423.114.498-.02.937.057 1.438.038.47-.019.794.08 1.26.082.42.002.717-.16 1.138-.176l1.206-.085c.417-.016.723-.02 1.095.051.24.046.73-.218.989-.283l1.07-.267c.35-.087.6-.222.907-.299.372-.093.586-.29.921-.374.29-.073.644-.39.95-.526.42-.186.58-.428.883-.617.31-.204.655-.352 1.017-.435.39-.097.713-.322 1.1-.419.368-.092.608-.332 1.018-.435.386-.096.685-.294 1.032-.51.411-.257.629-.594.925-.844.348-.294.457-.618.68-.892l.679-.891.776-.952c.3-.367.52-.52.747-.8a3.26 3.26 0 0 1 .815-.709l.868-.541c.36-.225.544-.473.8-.633.271-.17.455-.384.622-.588.192-.236.25-.838.38-1.106l.433-.938c.15-.354.344-.522.501-.847.217-.446.534-.712.79-1.027.268-.328.647-.676.859-.936.198-.244.594-.371.868-.541.24-.151.485-.422.621-.589a2.82 2.82 0 0 1 .719-.648c.283-.177.47-.427.704-.573.409-.255-.985-.187-1.477-.28z"/><path id="T" d="M188.16 214.08s-8.661 3.435-15.325 7.354-13.497 9.433-13.497 9.433l11.866-1.73 15.412-9.45z"/><path id="U" d="M28.567 287.65c-.329-.438-.703-.81-1.073-1.017-.73-.41-1.718-.317-2.517-.068-1.28.515-2.377 1.612-3.362 2.384a6.276 6.276 0 0 1-1.86.91c-.845.32-1.638.909-2.331 1.397-.414.424-1.076 1.108-1.194 1.833-.1.61.125 1.312.47 1.792.148.204.277.512.402.824 3.27 1.728 6.46 2.177 8.824 1.24s3.883-3.251 4.2-6.4c-.22-.536-.769-1.849-1.558-2.896z"/><path id="V" d="M66.781 193.174a9.878 9.866 85.313 1 1 .025-.018"/><path id="W" d="M66.439 192.549a9.17 9.075 57.146 1 1 .023-.017"/><path id="X" d="M68.957 179.628c-3.19-4.42-9.365-5.414-13.778-2.22s-5.405 9.375-2.214 13.795 9.362 5.41 13.776 2.216l.024-.017a9.89 9.89 0 0 0 2.192-13.774zm-.572.414c2.958 4.095 2.078 9.79-1.963 12.735l-.023.017c-4.059 2.938-9.756 1.995-12.72-2.109s-2.073-9.818 1.985-12.756 9.758-1.99 12.721 2.113z"/><path id="Y" d="M69.036 179.135c-3.19-4.42-9.364-5.414-13.778-2.22s-5.405 9.375-2.214 13.794 9.363 5.41 13.776 2.217l.024-.018a9.89 9.89 0 0 0 2.192-13.773zm-.571.414c2.957 4.095 2.078 9.79-1.963 12.735l-.024.017c-4.059 2.938-9.756 1.994-12.719-2.109s-2.074-9.819 1.984-12.756 9.759-1.99 12.722 2.113z"/><path id="Z" d="M64.849 191.441c1.152 1.214-.224 2.396-2.898 2.512s-4.907-.761-6.06-1.975-.647-2.411 2.027-2.527c2.669-.115 5.766.772 6.924 1.984"/><path id="a" d="M120.796 180.667c0-5.446 3.427-9.862 7.652-9.862h9.012c4.225 0 7.652 4.416 7.652 9.862v11.613c0 5.446-3.427 9.86-7.652 9.86h-9.012c-4.225 0-7.652-4.414-7.652-9.86z"/><path id="b" d="M235.426 198.885h-80.715l-19.871-12.939 74.67-133.524h25.915z"/><path id="c" d="m230.024 62.509.813 128.025-35.634 1.045c-7.829 0-25.646-1.045-32.122-1.045-5.57 0-9.283.372-12.148 1.74-3.537 1.69-3.375 1.914-3.375 1.914l-14.274-9.384V59.378s9.818-5.566 27.637-5.566 26.724 2.783 32.392 2.783c3.983 0 11.818-3.034 18.829-6.938z"/><path id="d" d="m226.23 59.707.017 126.653-30.774 1.345c-7.827 0-26.724-1.232-33.203-1.232-5.568 0-9.959.409-12.826 1.78-3.537 1.69-5.559 3.328-5.559 3.328l-10.602-6.777V59.378s9.818-5.566 27.637-5.566 26.724 2.783 32.392 2.783c3.983 0 11.818-3.034 18.829-6.938z"/><path id="e" d="m221.389 56.595-.104 126.095s-17.985 1.457-25.812 1.457-26.724-1.369-33.203-1.369c-8.532 0-15.209 1.984-17.547 3.286-3.464 1.922-4.657 3.553-4.657 3.553l-6.783-4.812V59.378s9.818-5.566 27.637-5.566 26.724 2.783 32.392 2.783c3.983 0 11.818-3.034 18.829-6.938z"/><path id="f" d="M216.798 53.812v123.849s-13.498 2.435-21.325 2.435-26.724-1.74-33.203-1.74c-8.532 0-15.209 1.486-17.547 2.786-3.464 1.925-8.638 5.566-8.638 5.566l-2.803-1.903V59.378s9.818-5.566 27.637-5.566 26.724 2.783 32.392 2.783c3.983 0 11.818-3.034 18.829-6.938z"/><path id="g" d="M212.209 49.987v123.849s-13.498 2.435-21.327 2.435-26.724-1.738-33.203-1.738-15.116 2.435-17.276 4.176-7.121 4.721-7.121 4.721V54.494s5.23-4.507 23.046-4.507 26.724 2.783 32.392 2.783 23.488-2.783 23.488-2.783z"/><path id="h" d="M133.283 184.791 57.057 52.422H31.144v146.463h80.712z"/><path id="i" d="m36.542 62.509-.811 128.025 35.634 1.045c7.827 0 25.644-1.045 32.122-1.045 5.568 0 9.281.372 12.148 1.74 3.537 1.69 3.375 1.914 3.375 1.914l14.274-9.384V59.378s-9.82-5.566-27.637-5.566-26.724 2.783-32.394 2.783c-3.983 0-11.82-3.034-18.831-6.938z"/><path id="j" d="m40.336 59.707-.015 126.653s22.945 1.345 30.774 1.345 26.724-1.232 33.203-1.232c5.568 0 9.957.409 12.824 1.78 3.537 1.69 5.559 3.328 5.559 3.328l10.602-6.777V59.378s-9.82-5.566-27.637-5.566-26.724 2.783-32.394 2.783c-3.983 0-11.82-3.034-18.831-6.938z"/><path id="k" d="m45.179 56.595.104 126.095s17.983 1.457 25.812 1.457 26.724-1.369 33.203-1.369c8.532 0 15.207 1.984 17.545 3.286 3.462 1.922 4.657 3.553 4.657 3.553l6.783-4.812V59.378s-9.82-5.566-27.637-5.566-26.724 2.783-32.394 2.783c-3.983 0-11.82-3.034-18.831-6.938z"/><path id="l" d="M49.77 53.812v123.849s13.496 2.435 21.325 2.435 26.724-1.74 33.203-1.74c8.532 0 15.207 1.486 17.545 2.786 3.462 1.925 8.638 5.566 8.638 5.566l2.803-1.903V59.378s-9.82-5.566-27.637-5.566-26.724 2.783-32.394 2.783c-3.983 0-11.82-3.034-18.831-6.938z"/><path id="m" d="M54.359 49.987v123.85s13.498 2.435 21.327 2.435 26.724-1.738 33.203-1.738 15.116 2.435 17.275 4.176 7.122 4.721 7.122 4.721V54.495s-5.23-4.508-23.047-4.508-26.724 2.783-32.394 2.783-23.486-2.783-23.486-2.783z"/></defs></svg>