<svg xmlns="http://www.w3.org/2000/svg" width="336" height="336" viewBox="0 0 252 252"><style>.B{fill:#006cba}.C{fill:none}.D{stroke:#006cba}.E{stroke-width:.109}.F{stroke-width:1.533}.G{fill:#ffe400}.H{stroke:#ffe400}</style><path d="M249.832 125.176c0 68.375-55.426 123.832-123.84 123.832-68.391 0-123.824-55.457-123.824-123.832 0-68.406 55.434-123.84 123.824-123.84 68.414 0 123.84 55.434 123.84 123.84" class="G"/><path d="M249.832 126.012c0 68.391-55.441 123.832-123.832 123.832S2.168 194.402 2.168 126.012 57.609 2.18 126 2.18s123.832 55.441 123.832 123.832zm0 0" class="C D F"/><path d="M216.898 127.563c0 50.555-40.98 91.535-91.547 91.535-50.547 0-91.508-40.98-91.508-91.535s40.961-91.52 91.508-91.52c50.566 0 91.547 40.961 91.547 91.52M44.77 54.574l1.777 1.313c-.84.531-1.547.938-2.195 1.18a9 9 0 0 1-1.793.457zm-17.137 10.5a26 26 0 0 1 4.137-1.754l-.191-1.945a22 22 0 0 0-4.062 1.695zm3.602 4.699a31 31 0 0 1 4.207-1.816l-.203-2.043c-1.246.371-2.613.961-4.102 1.758zm9.074 6.895 2.168-.789c.141-.215.082-.457-.273-.73a63 63 0 0 0-2.785-7.02l-1.902.234c1.238 2.773 2.176 5.559 2.793 8.305m-5.949-20.449-2.855 3.836 9.035 6.723 1.23-1.621-1.262-.957 1.57-.215c.215-1.105.289-2.008.215-2.742-.016-.34-.074-.715-.141-1.129l1.453 1.063 1.098-1.453-1.473-1.078a8 8 0 0 0 1.055-.184c.758-.141 1.605-.473 2.453-.871l-.102-1.605 1.254.922 1.223-1.617-9.023-6.746-4.102 5.473-.117-.848c.117-.437.082-.723-.059-.82s-.305-.035-.555.266l-1.52 1.352zm4.254 6.594 2.191-2.93c.117.77.141 1.352.117 1.836a9.2 9.2 0 0 1-.523 2.426zm-4.66-3.473 6.172-8.215 3.629 2.676-.871 1.172-.73-1.074c.051-.32 0-.531-.109-.598-.09-.074-.223 0-.383.168l-1.012.953 1.23 1.879-.648.855-1.988-1.469 1.008-1.855c.09-.23.199-.422.289-.531l.367-.34c.074-.117.09-.199.059-.215-.094-.066-.184-.102-.258-.082l-1.598.355a36 36 0 0 1-1.727 3.316c-.539.938-1.277 2.051-2.168 3.348l1.734-.125 1.406-2.285 1.801 1.336-.695.922c-.484-.191-1.039-.305-1.672-.391l-.562 1.238c.473.117.922.266 1.293.418l-.937 1.27zm7.758 9.887 3.738-5.043c.184.73.184 1.578.043 2.477-.125 1.113-.723 2.684-1.77 4.816l2.234-.238c.754-1.68 1.23-3.109 1.453-4.281.324-1.484.309-2.84-.102-4.059v-.012a9 9 0 0 0 3.051-.605c1.43-.605 2.832-1.484 4.328-2.75l-.367-2.406c-1.594 1.52-2.941 2.516-4.02 3.055a7.3 7.3 0 0 1-2.5.863l3.988-5.309-1.34-.988-4.426 5.984-.191-.27c.109-.465.059-.738-.094-.855-.09-.074-.23.02-.445.285l-1.539 1.695c.367.313.672.613.898.945l-4.238 5.691zm18.822-32.379 4.211-2.609.914 1.461-4.227 2.633zm5.582 13.398 1.977-1.262-5.766-9.262 6.199-3.906-4.379-6.945-8.191 5.109.875 1.43zm-7.301-16.082 4.234-2.648.848 1.359-4.203 2.676zm11.703.43 6.297-3.953 4.305 6.879c.266.414.105.813-.406 1.188l-1.895 1.254 1.801 1.207a13 13 0 0 0 2.27-1.812c.879-.879 1.055-1.77.523-2.566l-8.957-14.363-8.297 5.199zm.199-4.094 4.328-2.699.922 1.469-4.352 2.684zm-1.691-2.699 4.316-2.727.855 1.379-4.301 2.719zm35.153-13.504c-.199.016-.422.098-.687.23l-2.004.875.59 3.238 3.813-.687.348 1.785-3.379.621c1.445 1.68 3.047 3.133 4.785 4.289l-1.555 1.719c-1.172-1.004-2.234-2.004-3.141-3.016l1.629 8.922-2.301.406-1.57-8.531c-.156.508-.34.973-.531 1.355-.48 1.195-1.238 2.484-2.277 3.844l-2.273-1.18a19.5 19.5 0 0 0 2.73-3.621c.441-.773.898-1.984 1.422-3.621l-4.469.797-.332-1.801 4.801-.855-.523-2.785-3.199 1.063-1.816-1.527c1.816-.406 3.355-.84 4.574-1.336 1.172-.398 2.535-1.023 4.164-1.812l1.902 1.063a.39.39 0 0 1 .191.293c.031.125-.059.215-.258.25zm7.711-3.258 2.141-.207c.418-.105.598-.039.633.141q.06.155-.273.566l1.926 10.648 2.383-1.113.352 1.879-2.395 1.078 1.047 5.859-2.309.398-.945-5.27-5.187 2.328c-.164.516-.355.789-.57.84-.148.023-.309-.086-.406-.301l-1.199-1.82 7.039-2.84zm-4.355 2.801a24 24 0 0 1 3.973 1.762l-1.406 1.578c-1.352-.816-2.605-1.437-3.82-1.887zm.648 5.367a20 20 0 0 1 3.781 1.852l-1.379 1.563c-1.266-.824-2.512-1.504-3.648-1.945zm46.964 4.856c-1.145 1.738-2.301 2.984-3.453 3.789l-.418.266-.621-.762c-.949-1.172-1.531-2.625-1.738-4.348zm-19.281-7.273 3.406.578-.73 4.355-4.176.422.488 2.102c.059.266.176.383.289.406.227.059.484-.141.832-.57l2.219-.391-.707 4.262c-.109.637-.555.863-1.246.754l-1.91-.324.582 2.121c1.934.32 3.156.32 3.68-.035.633-.316 1.031-.906 1.156-1.801l.902-5.426 2.699-.457.309-1.895-2.707.5.629-3.625 2.52.383.316-1.867-2.512-.434.508-3.156c.398-.164.617-.34.633-.531.023-.141-.109-.234-.375-.324l-2.383-.633-.715 4.281-3.383-.566zm9.762.91 5.523.906-.496 2.898-5.125-.82-.293 1.727 1.637.273c.215 2.16.773 3.914 1.738 5.301l.754 1.023c-.723.266-1.535.48-2.449.629-1.195.219-2.816.316-4.777.301l1.211 1.969c3.02-.184 5.484-.633 7.422-1.371a30.3 30.3 0 0 0 4.27 3.316l2.074-1.34c-1.742-1.004-3.187-2.008-4.32-2.973 1.621-.98 3.242-2.66 4.82-4.992.508-.133.773-.266.773-.398.039-.133-.02-.285-.125-.434l-1.055-1.137a1.05 1.05 0 0 0-.457-.301l-.551.184-3.207-.539.469-2.91 5.238.855.266-1.75-5.207-.883.473-2.906c.309-.184.492-.348.508-.434.035-.164-.141-.305-.539-.379l-2.129-.523-.629 3.852-5.508-.902zm30.918 9.152 8.641 5.426.254-.434 1.945-3.121c.234-.359.473-.855.715-1.504l2.02 1.484c.383.242.516.441.406.574-.109.207-.406.289-.848.266l-2.227 3.523-.297.43 8.34 5.211-1.016 1.609-8.074-5.059c-.555 2.559-.574 4.867-.098 6.922.371 2.168 1.484 4.559 3.387 7.109l-2.914.641a18.8 18.8 0 0 1-2.809-7.684c-.184-1.57-.168-3.266.125-5.168-.539.449-1.082.848-1.637 1.188-1.496.891-3.504 1.402-6.082 1.563-1.91.141-3.969.066-6.203-.258l-.949-2.551c2.301.414 4.223.613 5.668.613 2.293-.016 4.117-.312 5.406-.945 1.387-.664 2.617-1.637 3.73-2.891l-8.508-5.324zm40.082 27.32a2 2 0 0 0-.414-.34c-.707-.531-1.43-1.215-2.242-1.93l-.789.59 2.109 2.742-1.07.832-2.102-2.734-.906.68 2.082 2.758-1.094.824-2.086-2.742-1.039.797 9.305 12.145 1.039-.805-2.352-3.074 1.055-.828 2.352 3.07.945-.687-2.34-3.074 1.07-.812 2.309 3.063 1.004-.746-2.367-3.066 1.258-.953 3.637 4.766-6.34 4.852 1.008 1.297-3.434 2.633-1.352-1.785 2.191-1.695-11.18-14.562-2.168 1.68-1.371-1.777 3.445-2.617.965 1.277 6.074-4.66.754 1.008 1.113 1.039c.566.445 1.129.844 1.738 1.129l-.133 1.867c0 .168-.078.301-.184.426-.094.066-.184.031-.258-.066zm4.746 3.871.398 1.336c.031.148.031.25-.02.273-.113.125-.305.074-.547-.09l-1.695-.508.168 2.063-1.355-.375-.199-2.234c-.687-.281-1.496-.691-2.41-1.156l.066-1.469 2.094 1.07-.516-2.266 1.363.348a25 25 0 0 1 .523 2.469c.656.238 1.371.406 2.129.539m-3.25 2.699.367 1.387c.066.148.066.25.016.281-.125.086-.309.051-.508-.125-.641-.156-1.172-.34-1.676-.504l.066 1.852-1.371-.355q.001-1.035-.109-2.07a27 27 0 0 1-2.418-1.246l.066-1.469c.809.512 1.547.848 2.227 1.16l-.437-2.414 1.367.379c.184.855.352 1.723.418 2.645a15 15 0 0 0 1.992.48m-3.613 5.996a.9.9 0 0 1 .191.559l.223 1.305c.027.164.027.266-.047.313-.16.094-.383.086-.758-.047l-4.352-1.945-.141.133 5.68 7.434-1.32 1.016-5.684-7.445-1.035.809c-.809.582-1.496.672-2.152.223-.465-.297-1.43-1.387-2.898-3.305l.93-1.637 2.125 2.707c.258.266.457.34.633.234l1.031-.809-6.391-8.348 1.313-.996 6.398 8.332.953-.738.539.77 1.938.609-4.816-6.297 1.246-.941 5.953 7.742zm0 0" class="B"/><g class="C F H"><path d="M133.09 68.359c0-13.988-3.332-25.328-7.438-25.328s-7.434 11.34-7.434 25.328 3.328 25.328 7.434 25.328 7.438-11.34 7.438-25.328zm0 0"/><path d="M129.406 74.77c12.07-7.059 20.176-15.656 18.102-19.203s-13.543-.699-25.613 6.363-20.176 15.656-18.102 19.203 13.539.695 25.613-6.363zm0 0"/><path d="M121.836 74.734c12 7.211 23.441 10.195 25.559 6.672s-5.895-12.223-17.891-19.43-23.441-10.199-25.559-6.676 5.895 12.223 17.891 19.434zm0 0"/></g><path d="M127.238 68.328a1.56 1.56 0 0 1-1.57 1.586 1.57 1.57 0 0 1-1.586-1.586c0-.867.707-1.555 1.586-1.555s1.57.688 1.57 1.555" class="G"/><path d="m11.77 101.969.68-2.078 8.68 2.699-7.73-5.82.355-1.164 9.613-.184-8.684-2.723.484-1.562 15.141 4.742-.547 1.695-12.211.324 9.828 7.324-.465 1.473zm4.601 8.129 5.566 2.168-5.98.305zm9.215 4.145.348-2.211-15.062-6.09-.305 1.937 3.605 1.387-.566 3.437-3.879.133-.375 2.41zm-13.996 11.8c-.148-.199-.289-.504-.406-.879-.148-.391-.207-.84-.191-1.363.043-.797.523-1.395 1.461-1.785.93-.43 2.32-.582 4.223-.5l.223.012c1.785.059 3.156.363 4.145.895.98.523 1.445 1.199 1.43 2.07a3.5 3.5 0 0 1-.25 1.188 3.7 3.7 0 0 1-.449.812l2.477.102c.184-.199.316-.5.457-.914a7.6 7.6 0 0 0 .215-1.461c.051-1.379-.641-2.566-2.043-3.539-1.402-.98-3.297-1.512-5.672-1.598l-.633-.031c-2.559-.117-4.512.25-5.875 1.086-1.352.867-2.082 1.98-2.133 3.398 0 .574.051 1.09.156 1.52.168.457.293.742.457.898zm3.523 6.172 5.914.687-5.699 1.82zm9.926 1.711-.18-2.227-16.133-2.16.184 1.961 3.844.48.316 3.434-3.723 1.102.242 2.445zm2.387 12.922-.398-1.719-10.75 2.469c-.945.223-1.676.258-2.109.031-.441-.172-.738-.563-.871-1.152-.145-.633-.027-1.121.34-1.48.348-.332.965-.598 1.785-.797l10.816-2.477-.523-2.316-10.383 2.375q-2.595.597-3.715 1.77c-.773.805-.988 1.879-.664 3.215.289 1.254.914 2.086 1.879 2.484.945.414 2.156.457 3.637.117zm-6.238 18.945c-1.43.391-2.625.391-3.641 0-.945-.359-1.594-1.164-1.926-2.402-.34-1.348-.184-2.402.547-3.215.723-.824 1.953-1.453 3.664-1.926l10.309-2.703.598 2.305-10.723 2.832c-.812.215-1.43.504-1.77.855-.34.371-.441.871-.289 1.477.164.582.457.965.914 1.148.422.184 1.145.141 2.102-.102l10.691-2.84.43 1.719zm15.21 7.418-.672-1.562-8.574 3.805 6.555-8.383-.531-1.188-14.488 6.414.691 1.551 9.109-4.027-6.992 8.863.422.922zm1.649 2.914 1.188 2.051-13.73 7.949-1.187-2.051zm7.387 11.449-15.082 6.086-1.141-1.629 11.082-11.887 1.48 2.137-7.719 8.059 10.266-4.355zm-6.731 16.602-4.34-5.137 12.07-10.242 4.172 4.902-1.82 1.527-2.605-3.098-3.242 2.758 2.02 2.395-1.82 1.559-2.043-2.391-3.398 2.883 2.816 3.313zm0 0" class="B D E"/><path d="M51.121 202.727c-.383.051-.781-.117-1.195-.516l-.457-.445 2.949-3.008.555.531c.34.348.492.688.441 1.078-.023.375-.293.809-.73 1.313l-.332.301c-.441.43-.84.688-1.23.746m-1.023 4.453c.582-1.203.715-2.219.383-3.082.566.457 1.223.605 1.852.48.676-.148 1.289-.531 1.93-1.187l.605-.613c.672-.68 1.09-1.402 1.246-2.184q.221-1.148-.863-2.219l-2.984-2.891-11.047 11.34 1.703 1.668 4.953-5.102.387.383c.508.473.449 1.215-.09 2.203-.555.996-1.703 2.426-3.465 4.285l1.695 1.637c1.859-1.934 3.125-3.504 3.695-4.719" class="B"/><path d="M51.121 202.727c-.383.051-.781-.117-1.195-.516l-.457-.445 2.949-3.008.555.531c.34.348.492.687.441 1.078-.023.375-.293.809-.73 1.312l-.332.301c-.441.43-.84.687-1.23.746zm-1.023 4.453c.582-1.203.715-2.219.383-3.082.566.457 1.223.605 1.852.48.676-.148 1.289-.531 1.93-1.188l.605-.613c.672-.68 1.09-1.402 1.246-2.184q.221-1.148-.863-2.219l-2.984-2.891-11.047 11.34 1.703 1.668 4.953-5.102.387.383c.508.473.449 1.215-.09 2.203-.555.996-1.703 2.426-3.465 4.285l1.695 1.637c1.859-1.934 3.125-3.504 3.695-4.719zm0 0" class="C D E"/><path d="M58.586 212.199c.199-.883.074-1.82-.352-2.824-.414-1.074-.652-1.797-.629-2.152.016-.359.215-.75.539-1.195.309-.336.641-.543 1.047-.609.414-.047.863.133 1.363.516a6.3 6.3 0 0 1 .879.938l.672 1.047 1.516-1.836c-.051-.207-.258-.512-.535-.93a5.5 5.5 0 0 0-1.094-1.18c-.957-.754-1.969-1.047-3.023-.828-1.074.223-2.004.789-2.777 1.734-.805.996-1.246 1.918-1.402 2.758a5.3 5.3 0 0 0 .273 2.574c.391 1.074.551 1.805.5 2.211a2.36 2.36 0 0 1-.539 1.164c-.441.547-.883.879-1.332.93-.437.059-.906-.168-1.52-.648a4.7 4.7 0 0 1-1.121-1.305c-.289-.523-.5-.953-.516-1.312l-1.754 2.117c.16.367.391.766.699 1.207a9 9 0 0 0 1.387 1.352c1.023.84 2.078 1.18 3.176 1.047 1.078-.164 2.148-.895 3.195-2.184q1.06-1.306 1.348-2.59" class="B"/><g class="D E"><path d="M58.586 212.199c.199-.883.074-1.82-.352-2.824-.414-1.074-.652-1.797-.629-2.152.016-.359.215-.75.539-1.195.309-.336.641-.543 1.047-.609.414-.047.863.133 1.363.516.348.301.629.613.879.938l.672 1.047 1.516-1.836c-.051-.207-.258-.512-.535-.93a5.5 5.5 0 0 0-1.094-1.18c-.957-.754-1.969-1.047-3.023-.828-1.074.223-2.004.789-2.777 1.734-.805.996-1.246 1.918-1.402 2.758a5.3 5.3 0 0 0 .273 2.574c.391 1.074.551 1.805.5 2.211a2.36 2.36 0 0 1-.539 1.164c-.441.547-.883.879-1.332.93-.437.059-.906-.168-1.52-.648a4.7 4.7 0 0 1-1.121-1.305c-.289-.523-.5-.953-.516-1.313l-1.754 2.117c.16.367.391.766.699 1.207a9 9 0 0 0 1.387 1.352c1.023.84 2.078 1.18 3.176 1.047 1.078-.164 2.148-.895 3.195-2.184q1.06-1.306 1.348-2.59zm0 0" class="C"/><path d="m66.512 207.75 1.953 1.371-9.105 12.969-1.949-1.367zm8.711 8.437-1.941-1.211-7.07 11.512-2.02-1.234 7.035-11.5-1.984-1.254 1.223-2 5.996 3.68zm10.398 2.809-7.316 6.512-3.059 5.957-2.109-1.062 2.906-5.684 1.164-10.066 2.469 1.27-.824 6.746 5.094-4.551zm0 0" class="B"/></g><path d="M93.246 235.172c-.504.754-1.137 1.02-1.77.82-.797-.238-1.203-.789-1.203-1.621.043-.855.367-2.324.98-4.391l.125-.367c.613-2.07 1.18-3.473 1.629-4.211.516-.715 1.121-.98 1.859-.75.832.25 1.188.848 1.137 1.813-.059.957-.363 2.391-.93 4.254l-.113.398q-.875 2.93-1.715 4.055m4.195-3.957c.641-2.168.832-4.062.566-5.672-.258-1.605-1.078-2.625-2.434-3.023-1.363-.426-2.633-.035-3.754 1.137-1.133 1.164-2.035 2.859-2.691 5.051l-.258.891c-.691 2.352-.883 4.254-.5 5.766.391 1.484 1.215 2.414 2.434 2.797 1.262.352 2.441.051 3.59-.988 1.145-1.031 2.059-2.75 2.816-5.133zm0 0" class="B"/><g class="D E"><path d="M93.246 235.172c-.504.754-1.137 1.02-1.77.82-.797-.238-1.203-.789-1.203-1.621.043-.855.367-2.324.98-4.391l.125-.367c.613-2.07 1.18-3.473 1.629-4.211.516-.715 1.121-.98 1.859-.75.832.25 1.187.848 1.137 1.813-.059.957-.363 2.391-.93 4.254l-.113.398q-.875 2.93-1.715 4.055zm4.195-3.957c.641-2.168.832-4.063.566-5.672-.258-1.605-1.078-2.625-2.434-3.023-1.363-.426-2.633-.035-3.754 1.137-1.133 1.164-2.035 2.859-2.691 5.051l-.258.891c-.691 2.352-.883 4.254-.5 5.766.391 1.484 1.215 2.414 2.434 2.797 1.262.352 2.441.051 3.59-.988 1.145-1.031 2.059-2.75 2.816-5.133zm0 0" class="C"/><path d="m108.207 228.078-3.969-.766-.809 4.195 3.059.605-.449 2.344-3.066-.605-1.312 6.695-2.34-.434 3.016-15.559 6.328 1.223zm0 0" class="B"/></g><path d="M121.746 238.211c-.133 1.668-.562 2.891-1.352 3.637-.809.758-1.863 1.07-3.191.988-.773-.051-1.422-.148-1.895-.316-.539-.172-.973-.363-1.277-.59l.156-2.715c.258.266.684.516 1.203.781.566.215 1.133.363 1.664.406.762.051 1.32-.074 1.629-.375.305-.281.48-.789.539-1.512.059-.457-.059-.871-.234-1.238-.18-.379-.754-.887-1.695-1.543-.77-.531-1.336-1.156-1.711-1.937-.363-.762-.539-1.785-.437-3.047.074-1.23.488-2.211 1.234-3.016.727-.805 1.73-1.148 2.941-1.07a5.6 5.6 0 0 1 1.59.305c.465.168.777.34.945.457l-.109 2.367-1.195-.457a3.6 3.6 0 0 0-1.254-.223c-.633-.066-1.098.066-1.406.332-.305.281-.473.648-.488 1.113-.031.555.023.988.234 1.27.18.309.789.773 1.77 1.398.922.57 1.551 1.285 1.918 2.074.34.84.496 1.805.422 2.91" class="B"/><g class="D E"><path d="M121.746 238.211c-.133 1.668-.562 2.891-1.352 3.637-.809.758-1.863 1.07-3.191.988-.773-.051-1.422-.148-1.895-.316-.539-.172-.973-.363-1.277-.59l.156-2.715c.258.266.684.516 1.203.781.566.215 1.133.363 1.664.406.762.051 1.32-.074 1.629-.375.305-.281.48-.789.539-1.512.059-.457-.059-.871-.234-1.238-.18-.379-.754-.887-1.695-1.543-.77-.531-1.336-1.156-1.711-1.938-.363-.762-.539-1.785-.437-3.047.074-1.23.488-2.211 1.234-3.016.727-.805 1.73-1.148 2.941-1.07a5.6 5.6 0 0 1 1.59.305c.465.168.777.34.945.457l-.109 2.367-1.195-.457a3.6 3.6 0 0 0-1.254-.223c-.633-.066-1.098.066-1.406.332-.305.281-.473.648-.488 1.113-.031.555.023.988.234 1.27.18.309.789.773 1.77 1.398.922.57 1.551 1.285 1.918 2.074.34.84.496 1.805.422 2.91zm0 0" class="C"/><path d="M131.758 239.965c-.191.152-.488.316-.871.465-.367.168-.797.258-1.34.258-.797.027-1.418-.406-1.875-1.305-.473-.887-.707-2.289-.773-4.211v-.215c-.051-1.785.176-3.172.648-4.172.441-1.035 1.113-1.551 1.969-1.566.457 0 .879.039 1.188.164.367.117.641.234.863.391l-.066-2.484c-.215-.164-.539-.281-.93-.383-.391-.09-.914-.133-1.469-.113-1.391.023-2.527.762-3.414 2.25-.898 1.453-1.297 3.355-1.223 5.766v.629c.051 2.559.531 4.48 1.48 5.793.902 1.285 2.09 1.926 3.496 1.91a4.7 4.7 0 0 0 1.504-.258c.43-.176.723-.324.871-.5zm2.574-13.246 2.367-.223 1.496 15.781-2.367.227zm14.488 11.601-4.289.703-.746-4.383 3.098-.543-.414-2.367-3.098.531-.742-4.203 4.031-.68-.434-2.309-6.328 1.07 2.68 15.625 6.621-1.137zm12.094-.726-1.023.281-7.742-8.184 2.691 9.621-1.668.449-4.246-15.277 1.246-.332 7.344 7.684-2.535-9.039 1.656-.457zm10.481-4.395a3 3 0 0 1-.648.773c-.332.301-.781.539-1.313.758-1.328.52-2.648.348-3.961-.559-1.312-.914-2.469-2.551-3.391-4.926l-.242-.598c-.895-2.211-1.145-4.164-.82-5.832.324-1.695 1.113-2.758 2.391-3.289.551-.199 1.039-.348 1.445-.383.414-.066.75-.051 1.016.035l.887 2.301c-.23-.086-.555-.117-.922-.086-.348 0-.754.102-1.187.266-.781.316-1.211 1.023-1.297 2.145-.074 1.105.207 2.484.84 4.121l.109.23c.68 1.754 1.41 2.992 2.152 3.672.754.676 1.492.875 2.25.574a3.05 3.05 0 0 0 1.145-.699c.301-.289.516-.539.656-.738zm10.035-4.422-6 3.059-7.168-14.148 5.75-2.906 1.055 2.094-3.59 1.836 1.91 3.82 2.809-1.418 1.082 2.125-2.793 1.43 2.02 3.977 3.879-1.949zm2.523-20.273-1.828 1.262 6.066 15.051 1.602-1.102-1.488-3.547 2.867-1.996 2.773 2.691 2.012-1.387zm3.406 9.469-2.309-5.48 4.379 4.078zm7.618-18.489-1.262 1.105 6.277 6.996-10.023-3.613-.922.863 10.598 11.77 1.254-1.152-6.676-7.387 10.605 3.879.766-.699zm0 0" class="B"/></g><path d="M209.746 201.711c.324.75.273 1.391-.184 1.887l-.723.824-8.324-7.418.582-.648c.465-.523 1.172-.641 2.137-.332.945.332 2.066 1.055 3.371 2.215l.324.301c1.547 1.379 2.508 2.434 2.816 3.172m-1.629-5.355c-1.742-1.555-3.348-2.543-4.824-2.926-1.488-.398-2.742 0-3.797 1.188l-2.336 2.602 11.855 10.543 2.582-2.895c.875-.996 1.09-2.168.598-3.496-.473-1.328-1.66-2.875-3.578-4.578zm0 0" class="B"/><g class="D E"><path d="M209.746 201.711c.324.75.273 1.391-.184 1.887l-.723.824-8.324-7.418.582-.648c.465-.523 1.172-.641 2.137-.332.945.332 2.066 1.055 3.371 2.215l.324.301c1.547 1.379 2.508 2.434 2.816 3.172zm-1.629-5.355c-1.742-1.555-3.348-2.543-4.824-2.926-1.488-.398-2.742 0-3.797 1.188l-2.336 2.602 11.855 10.543 2.582-2.895c.875-.996 1.09-2.168.598-3.496-.473-1.328-1.66-2.875-3.578-4.578zm0 0" class="C"/><path d="m210.187 180.48-3.93 5.832 1.961 1.32 1.312-1.941 11.199 7.535 1.32-1.988-11.207-7.523 1.289-1.91zm18.098.247-3.289 5.863-13.832-7.734 3.16-5.621 2.043 1.16-2.004 3.523 3.754 2.094 1.539-2.727 2.086 1.156-1.547 2.734 3.914 2.199 2.109-3.805zm3.918-9.469c.082.207.117.531.051 1.008-.016.445-.156.93-.375 1.445-.582 1.285-1.676 2.082-3.246 2.375-1.57.273-3.523-.102-5.867-1.156l-.598-.25c-2.152-.996-3.703-2.184-4.668-3.602-.93-1.422-1.129-2.785-.563-4.023.215-.555.496-.973.746-1.285.258-.344.496-.566.73-.707l2.258 1.039a3.5 3.5 0 0 0-.703.563c-.242.266-.457.617-.664 1.023-.344.789-.16 1.602.57 2.457.715.848 1.879 1.629 3.5 2.387l.199.082c1.734.766 3.105 1.129 4.145 1.113 1.004-.043 1.652-.434 1.969-1.148.238-.48.332-.922.348-1.313a6.6 6.6 0 0 0-.031-1.012zm-10.851-15.391-.766 2.234 6.238 2.117-.879 2.559-6.23-2.117-.773 2.258 15.02 5.082.738-2.266-6.43-2.195.863-2.547 6.445 2.199.773-2.258zm18.023-7.281-.191.988-10.898 2.965 9.727 2.191-.371 1.648-15.469-3.465.273-1.266 10.25-2.848-9.152-2.043.391-1.645zm0 0" class="B"/></g><path d="M237.43 138.984c.809.398 1.215.953 1.121 1.645-.105.789-.59 1.297-1.379 1.402-.836.125-2.34.059-4.5-.199l-.383-.047c-2.16-.285-3.641-.582-4.43-.949-.797-.355-1.16-.922-1.062-1.687.102-.836.633-1.293 1.598-1.418.961-.102 2.434-.043 4.359.199l.406.066c2.035.25 3.449.574 4.27.988m-4.586-3.457c-2.242-.281-4.16-.148-5.687.375q-2.331.808-2.594 2.898c-.164 1.438.441 2.617 1.77 3.523 1.355.938 3.156 1.535 5.441 1.801l.898.133c2.426.293 4.367.133 5.773-.496 1.387-.625 2.191-1.578 2.348-2.859.16-1.312-.379-2.441-1.559-3.391-1.223-.945-3.074-1.566-5.535-1.875zm0 0" class="B"/><g class="D E"><path d="M237.43 138.984c.809.398 1.215.953 1.121 1.645-.105.789-.59 1.297-1.379 1.402-.836.125-2.34.059-4.5-.199l-.383-.047c-2.16-.285-3.641-.582-4.43-.949-.797-.355-1.16-.922-1.062-1.688.102-.836.633-1.293 1.598-1.418.961-.102 2.434-.043 4.359.199l.406.066c2.035.25 3.449.574 4.27.988zm-4.586-3.457c-2.242-.281-4.16-.148-5.688.375q-2.331.808-2.594 2.898c-.164 1.438.441 2.617 1.77 3.523 1.355.938 3.156 1.535 5.441 1.801l.898.133c2.426.293 4.367.133 5.773-.496 1.387-.625 2.191-1.578 2.348-2.859.16-1.313-.379-2.441-1.559-3.391-1.223-.945-3.074-1.566-5.535-1.875zm0 0" class="C"/><path d="m241.535 126.797-.242 6.293-15.859-.598.094-2.391 13.496.531.16-3.906zm0 0" class="B"/></g><path d="M232.355 114.559c-2.242.27-4.07.816-5.457 1.723-1.387.895-1.984 2.016-1.852 3.422.191 1.438 1.012 2.434 2.559 3.008 1.535.598 3.43.746 5.707.48l.895-.102q3.68-.409 5.508-1.844c1.207-.93 1.762-2.043 1.613-3.32-.125-1.297-.914-2.27-2.316-2.918-1.406-.637-3.34-.82-5.801-.539zm5.25 2.305c.922.199 1.406.629 1.48 1.32.09.82-.25 1.387-1.039 1.703-.766.332-2.25.598-4.387.863l-.391.031c-2.152.25-3.656.285-4.527.117-.848-.148-1.32-.613-1.43-1.402-.09-.824.332-1.422 1.246-1.746s2.336-.59 4.262-.812l.449-.059c2.004-.215 3.465-.25 4.336-.016" class="B"/><g class="D E"><path d="M232.355 114.559c-2.242.27-4.07.816-5.457 1.723-1.387.895-1.984 2.016-1.852 3.422.191 1.438 1.012 2.434 2.559 3.008 1.535.598 3.43.746 5.707.48l.895-.102q3.68-.409 5.508-1.844c1.207-.93 1.762-2.043 1.613-3.32-.125-1.297-.914-2.27-2.316-2.918-1.406-.637-3.34-.82-5.801-.539zm5.25 2.305c.922.199 1.406.629 1.48 1.32.09.82-.25 1.387-1.039 1.703-.766.332-2.25.598-4.387.863l-.391.031c-2.152.25-3.656.285-4.527.117-.848-.148-1.32-.613-1.43-1.402-.09-.824.332-1.422 1.246-1.746s2.336-.59 4.262-.813l.449-.059c2.004-.215 3.465-.25 4.336-.016zm0 0" class="C"/><path d="M235.668 101.816c.832.168 1.562.492 2.191 1.008.609.496 1.047 1.246 1.254 2.215.293 1.348-.105 2.578-1.211 3.633-1.137 1.078-2.941 1.895-5.449 2.426l-.816.191c-2.242.488-4.117.465-5.695-.066-1.578-.559-2.559-1.59-2.898-3.141-.133-.566-.176-1.074-.086-1.52.074-.418.168-.758.293-.988l2.48-.551c-.133.266-.223.617-.32 1.016-.117.406-.117.82-.02 1.313.191.812.758 1.379 1.73 1.703.98.297 2.441.238 4.41-.211l.215-.047c2.059-.465 3.449-.98 4.137-1.547.723-.574.996-1.211.848-1.879a1.85 1.85 0 0 0-.539-.953c-.25-.273-.523-.434-.816-.5l-3.172.742.375 1.57-2.07.465-.797-3.523zm-15.957-6.144 6.82.352-5.324 4.219.855 2.625 7.875-6.355 6.09-1.977-.758-2.262-6.371 2.078-9.77-.488zm0 0" class="B"/></g><g fill="#FFF"><path d="M179.012 139.938v-53.57l-.398-.434c-31.094 1.793-52.582 15.441-52.582 15.441-17.445-13.504-51.977-15.441-51.977-15.441l-.211.434v53.57"/><path d="m72.918 103.293-7.234-.125v83.688c31.641-4.746 45.391-.266 45.391-.266 6.586 2.059 9.578 6.203 9.578 6.203h10.738c2.387-4.145 10.75-5.937 10.75-5.937 14.945-3.559 44.234-.59 44.234-.59v-81.918l-7.242.176"/></g><path d="m72.215 102.594-7.32-.125v85.172c32.023-4.828 45.914-.301 45.914-.301 6.645 2.117 9.676 6.348 9.676 6.348h10.859c2.418-4.23 10.871-6.047 10.871-6.047 15.129-3.605 44.719-.59 44.719-.59v-83.363l-7.301.168m-.149 36.019V85.367l-.41-.441c-31.422 1.836-53.172 15.742-53.172 15.742-17.617-13.758-52.559-15.742-52.559-15.742l-.207.441v54.508" class="C F H"/><path d="m135.484 114.527 2.566-.234c.789-.148 1.289-.523 2.16-.539l3.305-.168 3.625-1.16c1.402-.359 3.211-.184 4.699-.152 1.688.027 3.043.523 4.543.664l5.461.133 1.703.516c1.445.266 3.328.184 4.742-.133l.223-2.598h-.223v-.277c-.242.109-.484.184-.738.277h-4.961c-2.809 0-5.035.332-5.242-2.875l1.918-.566 3.082-.391v-.215c.352 0 .207-.148.176-.5-.059-.48-.176-1.086-.613-1.328-1.531-.84-4.414-.258-6.258-.398l-2.582-.633v-.258c-.441 0-.25-1.262-.25-1.633h-.23c0-.426-2.793-.258-3.332-.258l-.73 1.195h-.219c.066.066.117.148.219.242 0 .762-5.012 2.223-5.934 2.316-1.934.141-4.875-.5-6.262.738-.582.48-.582 1.164-.633 1.938h.148c.07.391.234.23.566.23l2.809-.098c.789-.086 2.715-1.105 3.066.164.988 3.398-6.266 3.348-8.191 3.93l-1.969 1.23c0 1.27 2.559.938 3.355.84m9.594-6.23c.242-.949 2.168-.516 2.941-.707l1.488-.566c2.723 0 4.617-.348 4.965 2.625-.715 0-1.445.664-1.883 1.207l-2.172-.633c-1.309-.141-6.004.688-5.34-1.926m-61.228 18.751c1.777.074 3.09-2.691 5.223-2.727.691-.016 1.348.332 1.637.914.773 1.645.176 6.945.273 9.141h.227c0 .457 1.277.258 1.676.258v-.258c.418 0 .234-2.336.234-2.852 0-2.426-.746-9.285 1.328-10.184 1.047-.457 2.609-.273 3.887-.273v-.234h.258c0-2.875-4.918-2.133-5.289-4.785-.449-3.113 3.082-1.734 3.922-3.371.246-.465-.02-.855-.344-1.09-.895-.648-2.027-.836-2.605-1.844-.309-.516-.211-1.363-.324-1.961-.277-1.301-.957-2.965-1.988-3.836-.324.574-.57 1.113-.863 1.695l-.324 2.98c-.812 2.41-2.598 2.574-4.766 3.059-1.113.258-2.094.828-3.117 1.297 0 2.781 5.875-.316 7.234 1.535 1.836 2.551-.09 5.758-2.309 7.129-.973.57-2.359.73-3.34 1.352l-2.523 2.117c0 .965.973 1.902 1.895 1.938m36.982-6.461-1.969-.398c-1.953-.625-4.371-1.422-5.832-2.867-3.93-3.937 4.676-8.371-1.598-10.332-1.16-.383-2-.484-3.082.266h-.246v.266c.398 0 .863.273 1.152.504 2.469 1.945-.871 6.191-3.445 5.402-4.047-1.289 2.176-7.32-2.477-8.051-.488.883-.332 2.102-.863 2.973-.957 1.531-3.266 2.668-3.773 4.422.035.266.102.504.133.762 1.258 1.938 7.172-1.875 6.238 2.984-.348 1.859-4.094 4.5-5.629 5.281-.957.457-1.98.559-2.691 1.457-.574.688-.16 1.566.473 1.941 1.578.914 4.527-2.625 5.758-3.531.953-.746 3.461-2.484 4.66-2.648 1.727-.215 4.633.84 6.086 1.504 1.414.68 5.242 4.543 6.871 3.238.73-.613 1.098-1.371.832-2.406-.074-.316-.25-.633-.598-.766m19.598-3.524c-1.918-.234-2.816 4.781-2.051 6.113.68 1.211 2.051 1.883 3.266 2.418 0-.359.207-.359.496-.434 2.352-.848 5.875-.156 8.516-.316 1.188-.09 2.059-.672 3.348-.629.965.031 1.52.43 2.398.563 2.977.418 5.801-.523 6.605-3.332.406-1.328-.414-1.902-.965-2.863-.578-1.023-1.02-2.285-2.023-3.043-.551-.422-1.473-.398-2.187-.496l-2.191-.574-12.121-.082c-.531.457-.906.59-1.652.73v.223h-.223c0 .906.879 1.805 1.711 1.988 1.535.297 2.766-.648 4.242-.734 2.492-.164 12.297.477 11.797 3.938-.09.477-.598 1-1.023 1.207-1.32.629-3.539.164-5.066.348-.82.117-1.477.551-2.41.516-.687-.168-1.418-.301-2.133-.48-1.777 0-5.016 1.453-6.82.246-1.113-.738-1.098-2.301-.672-3.488.289-.797.051-1.734-.84-1.816m11.662 2.582v-1.437c-1.711 0-2.84-.656-4.492-.699-1.062.715-2.453.934-3.57 1.406 0 2.633 6.727.773 8.063.73m-48.271 13.793c1.23.223 2.816-.117 3.965-.426.715-.223 1.164-.621 1.984-.633l1.754.168c.871.34 1.352 1.254 2.508 1.113 2.859-.355 2.602-6.445 1.43-8.309 0-.746-5.824-2.25-6.914-2.367v.199c-.273.117-.605.184-.91.25h-5.234l-1.43 3.223c-.687 1.855-.34 4.859.699 6.289 0 .359 1.734.406 2.148.492m-.645-6.762.863-1.082c3.016 0 10.75-1.344 9.047 3.48-.133.367-.41.664-.816.805-1.039.367-2.531.184-3.723.285-1.234.113-2.355.848-3.719.438-1.453-.457-2.336-2.457-1.652-3.926m50.126-1.084c-.781 1.371.762 5.211 2.574 3.988 1.203-.84 1.746-2.758.156-3.539-.789-.383-1.785-.449-2.73-.449m4.965 7.695-2.027-.348c-1.695-.633-3.066-2.02-4.676-2.758l-3.605-1.738c-2.035-1.219-1.422-2.051-4.437-2.16-.43.598-.93 1.098-.93 1.902-.98 0-1.68 3.766-1.68 4.762h.25c0 .789 1.961-.273 2.313-.559 1.035-.937 1.949-1.836 3.57-1.367l4.91 3.371 4.441 1.477 2.852.02c2.094.133 7.277 1.609 9.055.523.887-.508.871-1.52.922-2.484l-9.281-.117-1.676-.523m1.444-3.892c0 2.691 5.664.699 6.293-1.105.449-1.371-1.277-1.902-2.25-2.008-.582.598-1.254.789-1.82 1.27l-2.223 1.844m-24.07 4.371c2.73-.641 2.352-3.906 2.426-6.266h-.227c0-.441-1.461-.273-1.926-.273-1.555 1.977-3.008 3.961-1.406 6.43 0 .457.824.148 1.133.109m16.199 38.57c1.281-.73 2.211-2.348 2.484-3.746l.164-2.074.492-1.09c.73-1.695.82-2.449.348-4.219l-.406-1.621c-.457-.805-.855-1.785-1.695-2.309-1.875-1.113-3.348.738-4.211-1.953.367 0 .688-.766 1.07-.953 1.023-.5 2.434-.551 3.656-.41 2.758.316 1.66 3.797 4.063 4.438 0-.648.516-1.211.797-1.754.73-1.402 1.813-2.824 3.695-2.582l1.445.266c1.082-.082 2.078-.457 3.348-.457 0-5.672-7.898-.148-8.254-5.941-.043-.871.016-1.633.629-2.117 0-1.371-2.383-1.777-3.312-1.941-.242.18-.5.332-.73.523-.457 0-.176 1.492-.094 1.844.125.672.492 1.328.383 2.148-.383 2.32-2.559 2.934-4.543 3.5-.598.148-1.172.473-1.902.43-.84-.066-1.473-.531-2.145-.797 0-.906-.574-1.82-1.203-2.383v-.258h-.227c0 .531-1.055.73-1.437.973-.398 0-.223.82-.207 1.172.133 2.133 1.422 3.859 1.938 5.754.383 1.488.039 3.156-.293 4.48.566 0 .625.73 1.398.621 1.094-.125 1.969-1.629 3.305-1.223 2.086.582 2.16 5.352 1.461 7.18-.383.582-.781 1.145-1.187 1.734-1.305 0-2.855-4.559-3.074-5.68h-.473c0 .113-1.156 2.066-1.305 2.441-.391.863-.289 1.969-.605 2.914-.633 1.844-1.969 3.309-2.145 5.336.449.055.898.113 1.34.199 1.617-.25 1.711-2.121 3.023-2.578 1.52-.547 2.949.957 4.41.133m-58.798-6.516c.637-2.699 4.434-3.488.539-6.008-.34-.18-.937-.664-.73-1.094.672-1.547 4.152-2.891 3.953-4.32-.184-1.348-2.293-1.113-3.066-1.863-1.187-1.113-.844-6.055-.379-7.699h-.242c0-.582-1.406-.449-1.918-.449-1.664 2.277-.102 3.309-.352 5.684-.172 1.703-1.809 4.418-3.91 3.805-1.215 0 .539-6.703-1.719-7.027-1.805-.273-2.867 4.668-2.867 6.07 0 1.238.582 2.203.289 3.582.789 0 1.047 2.508 2.375 2.508.965.023 1.715-1.379 2.52-1.762.656-.297 1.66-.273 2.5-.273v.258c.398 0 .215 1.688.215 2.125-.133 3.824-2.559 4.281-5.066 6.125l-.879.73-1.098 1.07-.566 1.355h.242c0 .289-.09.23.242.23 2.805-.066 4.816-.871 7.598-.723v.25c.441 0 .199.406.152.707-.152 1.188-3.324 6.512-.773 7.004.898.172 1.387-.875 1.668-1.496.633-1.348 1.246-2.453 1.332-4.105.039-1.551-.367-2.973-.117-4.461.031-.082.059-.148.059-.223m71.881-21.429c-.949 1.121-1.645 2.684-2.832 3.547v.25c-.434 0-.16.223 0 .457 0 1.777 4.852.375 5.406-1.09.633-1.742-1.246-2.816-2.574-3.164m-52.578 8.796h-2.109c-2.141 0-3.77-2.168-4.043-4.094-.066-.547.215-.937.289-1.437.242-1.527-.672-2.266-1.969-2.574-.59.73-1.645.93-2.059 1.828l-.398 2.457c-.258 1.652-1.645 3.207-3 4.27l.238 2.152c0 .348.133.281.477.281.863-.023 1.676-.629 2.383-1.012 1.461-.832 3.156-1.785 4.992-1.871v.219c.398 0 .25.355.25.723.316 4.883 4.137-1.879 5.93 2.148-.348 0-.199-.113-.332.203-.937 3.055 1.539 1.816 3.184 2.051 1.129.191 2.133 1.609 2.258 2.723.316 3.09-3.613 7.727-5.945 9.586-.516.316-1.016.582-1.516.867v.246h-.199c-.055-.629-2.5-1.336-3.137-1.418v.238c-.418 0-.242 3.176-.242 3.805 1.262 0 1.828 1.047 3.539.801 4.137-.617 10.492-9.523 10.383-13.641-.141-4.27-4.801-8.367-8.973-8.551m29.295-6.437-1.953-.789c-1.836-.539-3.496-.879-5.656-.879-1.223 3.051 6.477 5.641 7.609 1.668m-9.054 7.074 2.375-.605c2.684-.25 5.891.426 8.105-.766 0-1.867-4.617-1.32-5.953-1.492-1.148-.145-2.02-.625-3.34-.641-1.281 1.129-2.402 1.27-2.625 3.324h.25c0 .414.828.199 1.188.18m2.156 1.738-2.227 1.113c-1.219 2.73 9.836 2.375 9.836.059 0-1.437-6.164-1.172-7.609-1.172m29.441 13.657c-.648-1.187-1.105-2.574-.742-4.129.293-1.238 1.273-2.316 1.82-3.453.758-1.598.184-4.422-1.586-5.137-.766-.289-1.68-.223-2.516-.223 1.02 2.801 1.816 3.43.695 6.66-.289 0-.289 0-.457-.223l-.73-1.23-1.902-2.125c-.781 0-1.219.813-1.297 1.41-.164 1.113.191 1.746.402 2.668.586 2.336.895 3.871-.051 6.031-.449 1.121-1.187 2.184-2.203 2.867-1.629 1.102-3.215.371-3.531 2.938.855 0 1.59.492 2.527.199 2.117-.629 4.027-3.312 6.289-3.395 2.789-.152 3.688 3.395 6.039 4.152 2.465.773 3.719-1.637 3.016-3.789 0-.422-.406-.355-.742-.406-2.551-.332-3.844-.598-5.031-2.816m-56.785-12.249-2.211 1.859-2.66 2.512c-2.34 1.617-6.496 2.633-7.043 5.855h.258c0 .457 1.676.184 2.117.082 1.852-.43 14.371-8.98 9.539-10.309m4.121 7.258c.863-1.121 1.578-2.707 1.809-4.156h-2.152l-2.102 2.402c-1.293 1.652-2.441 3.422-4.195 4.836-1.352 1.07-6.129 2.441-6.312 3.961-.09.5.02.957.383 1.289 2.25 2.117 10.914-6.113 12.57-8.332m24.667-1.285c1.563-.059 5.082.363 6.164-.523.672 0-.508-1.93-1.238-2.168-2.078-.617-5.25-.184-7.551-.184-.516.621-3.348 2.551-1.113 3.32 1.164.383 2.5-.414 3.738-.445m-1.679 2.285-2.383-.637c-.434 1.328-.027 3.105 0 4.523.031 3.109-1.172 6.898 2.617 7.363.879 0 1.785-1.098 2.613-1.43 0-.441.277-.16.492-.051 2.203.98 3.754-1.203 4.285-3.039-3.031 0-5.141 1.586-7.867-.25 0-2.301 2.438-4.402 4.836-3.273.715.348 3.207 3.391 3.922 1.07 1.277-4.059-6.047-3.984-8.516-4.277" class="B"/></svg>