<svg xmlns="http://www.w3.org/2000/svg" xmlns:xlink="http://www.w3.org/1999/xlink" viewBox="0 0 52.2 50.8"><path d="M45.1 7.9 38 3.8v40.9l7.1-4.1 7.1-4.1V12z" fill="#f2662e"/><defs><path id="a" d="M52.2 28.3v8.2l-7.1-4.1z"/></defs><clipPath id="b"><use xlink:href="#a"/></clipPath><linearGradient id="c" gradientUnits="userSpaceOnUse" x1="52.21" y1="32.42" x2="-.387" y2="32.42"><stop offset="0" stop-color="#febe41"/><stop offset=".267" stop-color="#f79036"/><stop offset=".5" stop-color="#f2662e"/><stop offset="1" stop-color="#2e3676"/></linearGradient><path d="M45.1 28.3h7.1v8.2h-7.1z" clip-path="url(#b)" fill="url(#c)"/><defs><path id="d" d="M52.2 20.2v8.1l-7.1-4.1z"/></defs><clipPath id="e"><use xlink:href="#d"/></clipPath><linearGradient id="f" gradientUnits="userSpaceOnUse" x1="52.217" y1="24.245" x2="-.4" y2="24.245"><stop offset="0" stop-color="#febe41"/><stop offset=".267" stop-color="#f79036"/><stop offset=".5" stop-color="#f2662e"/><stop offset="1" stop-color="#2e3676"/></linearGradient><path d="M45.1 20.2h7.1v8.2h-7.1z" clip-path="url(#e)" fill="url(#f)"/><defs><path id="g" d="m52.2 20.2-7.1-4.1 7.1-4.1z"/></defs><clipPath id="h"><use xlink:href="#g"/></clipPath><linearGradient id="i" gradientUnits="userSpaceOnUse" x1="52.21" y1="16.065" x2="-.387" y2="16.065"><stop offset="0" stop-color="#febe41"/><stop offset=".267" stop-color="#f79036"/><stop offset=".5" stop-color="#f2662e"/><stop offset="1" stop-color="#2e3676"/></linearGradient><path d="M45.1 12h7.1v8.2h-7.1z" clip-path="url(#h)" fill="url(#i)"/><defs><path id="j" d="m52.2 12-7.1 4.1V7.9z"/></defs><clipPath id="k"><use xlink:href="#j"/></clipPath><linearGradient id="l" gradientUnits="userSpaceOnUse" x1="53.067" y1="11.97" x2="22.349" y2="11.97"><stop offset="0" stop-color="#febe41"/><stop offset=".267" stop-color="#f79036"/><stop offset=".5" stop-color="#f2662e"/><stop offset="1" stop-color="#2e3676"/></linearGradient><path d="M45.1 7.9h7.1v8.2h-7.1z" clip-path="url(#k)" fill="url(#l)"/><defs><path id="m" d="m52.2 20.2-7.1 4v-8.1z"/></defs><clipPath id="n"><use xlink:href="#m"/></clipPath><linearGradient id="o" gradientUnits="userSpaceOnUse" x1="55.118" y1="20.16" x2="16.748" y2="20.16"><stop offset="0" stop-color="#febe41"/><stop offset=".267" stop-color="#f79036"/><stop offset=".5" stop-color="#f2662e"/><stop offset="1" stop-color="#2e3676"/></linearGradient><path d="M45.1 16.1h7.1v8.2h-7.1z" clip-path="url(#n)" fill="url(#o)"/><defs><path id="p" d="m52.2 28.3-7.1 4.1v-8.2z"/></defs><clipPath id="q"><use xlink:href="#p"/></clipPath><linearGradient id="r" gradientUnits="userSpaceOnUse" x1="52.217" y1="28.34" x2="-.4" y2="28.34"><stop offset="0" stop-color="#febe41"/><stop offset=".267" stop-color="#f79036"/><stop offset=".5" stop-color="#f2662e"/><stop offset="1" stop-color="#2e3676"/></linearGradient><path d="M45.1 24.2h7.1v8.2h-7.1z" clip-path="url(#q)" fill="url(#r)"/><defs><path id="s" d="m52.2 36.5-7.1 4.1v-8.2z"/></defs><clipPath id="t"><use xlink:href="#s"/></clipPath><linearGradient id="u" gradientUnits="userSpaceOnUse" x1="55.106" y1="36.508" x2="16.75" y2="36.508"><stop offset="0" stop-color="#febe41"/><stop offset=".267" stop-color="#f79036"/><stop offset=".5" stop-color="#f2662e"/><stop offset="1" stop-color="#2e3676"/></linearGradient><path d="M45.1 32.4h7.1v8.2h-7.1z" clip-path="url(#t)" fill="url(#u)"/><defs><path id="v" d="M45.1 32.4 38 28.3l7.1-4.1z"/></defs><clipPath id="w"><use xlink:href="#v"/></clipPath><linearGradient id="x" gradientUnits="userSpaceOnUse" x1="52.197" y1="28.325" x2="-.403" y2="28.325"><stop offset="0" stop-color="#febe41"/><stop offset=".267" stop-color="#f79036"/><stop offset=".5" stop-color="#f2662e"/><stop offset="1" stop-color="#2e3676"/></linearGradient><path d="M38 24.2h7.1v8.2H38z" clip-path="url(#w)" fill="url(#x)"/><defs><path id="y" d="m45.1 24.2-7.1-4 7.1-4.1z"/></defs><clipPath id="z"><use xlink:href="#y"/></clipPath><linearGradient id="A" gradientUnits="userSpaceOnUse" x1="52.197" y1="20.147" x2="-.403" y2="20.147"><stop offset="0" stop-color="#febe41"/><stop offset=".267" stop-color="#f79036"/><stop offset=".5" stop-color="#f2662e"/><stop offset="1" stop-color="#2e3676"/></linearGradient><path d="M38 16.1h7.1v8.2H38z" clip-path="url(#z)" fill="url(#A)"/><defs><path id="B" d="M45.1 7.9v8.2L38 12z"/></defs><clipPath id="C"><use xlink:href="#B"/></clipPath><linearGradient id="D" gradientUnits="userSpaceOnUse" x1="52.197" y1="11.969" x2="-.403" y2="11.969"><stop offset="0" stop-color="#febe41"/><stop offset=".267" stop-color="#f79036"/><stop offset=".5" stop-color="#f2662e"/><stop offset="1" stop-color="#2e3676"/></linearGradient><path d="M38 7.9h7.1v8.2H38z" clip-path="url(#C)" fill="url(#D)"/><defs><path id="E" d="M45.1 32.4v8.2L38 36.5z"/></defs><clipPath id="F"><use xlink:href="#E"/></clipPath><linearGradient id="G" gradientUnits="userSpaceOnUse" x1="52.197" y1="36.502" x2="-.403" y2="36.502"><stop offset="0" stop-color="#febe41"/><stop offset=".267" stop-color="#f79036"/><stop offset=".5" stop-color="#f2662e"/><stop offset="1" stop-color="#2e3676"/></linearGradient><path d="M38 32.4h7.1v8.2H38z" clip-path="url(#F)" fill="url(#G)"/><defs><path id="H" d="M45.1 7.9 38 12V3.8z"/></defs><clipPath id="I"><use xlink:href="#H"/></clipPath><linearGradient id="J" gradientUnits="userSpaceOnUse" x1="52.202" y1="7.879" x2="-.418" y2="7.879"><stop offset="0" stop-color="#febe41"/><stop offset=".267" stop-color="#f79036"/><stop offset=".5" stop-color="#f2662e"/><stop offset="1" stop-color="#2e3676"/></linearGradient><path d="M38 3.8h7.1V12H38z" clip-path="url(#I)" fill="url(#J)"/><defs><path id="K" d="M45.1 16.1 38 20.2V12z"/></defs><clipPath id="L"><use xlink:href="#K"/></clipPath><linearGradient id="M" gradientUnits="userSpaceOnUse" x1="55.103" y1="16.058" x2="16.731" y2="16.058"><stop offset="0" stop-color="#febe41"/><stop offset=".267" stop-color="#f79036"/><stop offset=".5" stop-color="#f2662e"/><stop offset="1" stop-color="#2e3676"/></linearGradient><path d="M38 12h7.1v8.2H38z" clip-path="url(#L)" fill="url(#M)"/><defs><path id="N" d="M45.1 24.2 38 28.3v-8.1z"/></defs><clipPath id="O"><use xlink:href="#N"/></clipPath><linearGradient id="P" gradientUnits="userSpaceOnUse" x1="55.103" y1="24.237" x2="16.731" y2="24.237"><stop offset="0" stop-color="#febe41"/><stop offset=".267" stop-color="#f79036"/><stop offset=".5" stop-color="#f2662e"/><stop offset="1" stop-color="#2e3676"/></linearGradient><path d="M38 20.2h7.1v8.2H38z" clip-path="url(#O)" fill="url(#P)"/><defs><path id="Q" d="M45.1 32.4 38 36.5v-8.2z"/></defs><clipPath id="R"><use xlink:href="#Q"/></clipPath><linearGradient id="S" gradientUnits="userSpaceOnUse" x1="55.103" y1="32.415" x2="16.731" y2="32.415"><stop offset="0" stop-color="#febe41"/><stop offset=".267" stop-color="#f79036"/><stop offset=".5" stop-color="#f2662e"/><stop offset="1" stop-color="#2e3676"/></linearGradient><path d="M38 28.3h7.1v8.2H38z" clip-path="url(#R)" fill="url(#S)"/><defs><path id="T" d="M45.1 40.6 38 44.7v-8.2z"/></defs><clipPath id="U"><use xlink:href="#T"/></clipPath><linearGradient id="V" gradientUnits="userSpaceOnUse" x1="52.197" y1="40.59" x2="-.403" y2="40.59"><stop offset="0" stop-color="#febe41"/><stop offset=".267" stop-color="#f79036"/><stop offset=".5" stop-color="#f2662e"/><stop offset="1" stop-color="#2e3676"/></linearGradient><path d="M38 36.5h7.1v8.2H38z" clip-path="url(#U)" fill="url(#V)"/><defs><path id="W" d="m37.3 35.9-5.6-3.3 5.6-3.2z"/></defs><clipPath id="X"><use xlink:href="#W"/></clipPath><linearGradient id="Y" gradientUnits="userSpaceOnUse" x1="48.694" y1="32.65" x2="6.611" y2="32.65"><stop offset="0" stop-color="#febe41"/><stop offset=".267" stop-color="#f79036"/><stop offset=".5" stop-color="#f2662e"/><stop offset="1" stop-color="#2e3676"/></linearGradient><path d="M31.7 29.4h5.7v6.5h-5.7z" clip-path="url(#X)" fill="url(#Y)"/><defs><path id="Z" d="M37.3 21v6.5l-5.6-3.3z"/></defs><clipPath id="aa"><use xlink:href="#Z"/></clipPath><linearGradient id="ab" gradientUnits="userSpaceOnUse" x1="48.694" y1="24.262" x2="6.611" y2="24.262"><stop offset="0" stop-color="#febe41"/><stop offset=".267" stop-color="#f79036"/><stop offset=".5" stop-color="#f2662e"/><stop offset="1" stop-color="#2e3676"/></linearGradient><path d="M31.7 21h5.7v6.5h-5.7z" clip-path="url(#aa)" fill="url(#ab)"/><defs><path id="ac" d="M37.3 12.6v6.5l-5.6-3.2z"/></defs><clipPath id="ad"><use xlink:href="#ac"/></clipPath><linearGradient id="ae" gradientUnits="userSpaceOnUse" x1="48.642" y1="15.837" x2="6.574" y2="15.837"><stop offset="0" stop-color="#febe41"/><stop offset=".267" stop-color="#f79036"/><stop offset=".5" stop-color="#f2662e"/><stop offset="1" stop-color="#2e3676"/></linearGradient><path d="M31.7 12.6h5.7v6.5h-5.7z" clip-path="url(#ad)" fill="url(#ae)"/><defs><path id="af" d="m37.3 10.7-5.6-3.2 5.6-3.3z"/></defs><clipPath id="ag"><use xlink:href="#af"/></clipPath><linearGradient id="ah" gradientUnits="userSpaceOnUse" x1="48.694" y1="7.484" x2="6.611" y2="7.484"><stop offset="0" stop-color="#febe41"/><stop offset=".267" stop-color="#f79036"/><stop offset=".5" stop-color="#f2662e"/><stop offset="1" stop-color="#2e3676"/></linearGradient><path d="M31.7 4.2h5.7v6.5h-5.7z" clip-path="url(#ag)" fill="url(#ah)"/><defs><path id="ai" d="M37.3 37.8v6.5L31.7 41z"/></defs><clipPath id="aj"><use xlink:href="#ai"/></clipPath><linearGradient id="ak" gradientUnits="userSpaceOnUse" x1="48.694" y1="41.039" x2="6.611" y2="41.039"><stop offset="0" stop-color="#febe41"/><stop offset=".267" stop-color="#f79036"/><stop offset=".5" stop-color="#f2662e"/><stop offset="1" stop-color="#2e3676"/></linearGradient><path d="M31.7 37.8h5.7v6.5h-5.7z" clip-path="url(#aj)" fill="url(#ak)"/><defs><path id="al" d="m37.3 11.7-5.6 3.2V8.4z"/></defs><clipPath id="am"><use xlink:href="#al"/></clipPath><linearGradient id="an" gradientUnits="userSpaceOnUse" x1="48.694" y1="11.68" x2="6.611" y2="11.68"><stop offset="0" stop-color="#febe41"/><stop offset=".267" stop-color="#f79036"/><stop offset=".5" stop-color="#f2662e"/><stop offset="1" stop-color="#2e3676"/></linearGradient><path d="M31.7 8.4h5.7v6.5h-5.7z" clip-path="url(#am)" fill="url(#an)"/><defs><path id="ao" d="m37.3 20-5.6 3.3v-6.5z"/></defs><clipPath id="ap"><use xlink:href="#ao"/></clipPath><linearGradient id="aq" gradientUnits="userSpaceOnUse" x1="48.694" y1="20.066" x2="6.611" y2="20.066"><stop offset="0" stop-color="#febe41"/><stop offset=".267" stop-color="#f79036"/><stop offset=".5" stop-color="#f2662e"/><stop offset="1" stop-color="#2e3676"/></linearGradient><path d="M31.7 16.8h5.7v6.5h-5.7z" clip-path="url(#ap)" fill="url(#aq)"/><defs><path id="ar" d="m37.3 45.2-5.6 3.3v-6.6z"/></defs><clipPath id="as"><use xlink:href="#ar"/></clipPath><linearGradient id="at" gradientUnits="userSpaceOnUse" x1="48.694" y1="45.232" x2="6.611" y2="45.232"><stop offset="0" stop-color="#febe41"/><stop offset=".267" stop-color="#f79036"/><stop offset=".5" stop-color="#f2662e"/><stop offset="1" stop-color="#2e3676"/></linearGradient><path d="M31.7 41.9h5.7v6.5h-5.7z" clip-path="url(#as)" fill="url(#at)"/><defs><path id="au" d="m37.3 28.4-5.6 3.3v-6.5z"/></defs><clipPath id="av"><use xlink:href="#au"/></clipPath><linearGradient id="aw" gradientUnits="userSpaceOnUse" x1="48.684" y1="28.447" x2="6.586" y2="28.447"><stop offset="0" stop-color="#febe41"/><stop offset=".267" stop-color="#f79036"/><stop offset=".5" stop-color="#f2662e"/><stop offset="1" stop-color="#2e3676"/></linearGradient><path d="M31.7 25.2h5.7v6.5h-5.7z" clip-path="url(#av)" fill="url(#aw)"/><defs><path id="ax" d="m37.3 3.3-5.6 3.2V0z"/></defs><clipPath id="ay"><use xlink:href="#ax"/></clipPath><linearGradient id="az" gradientUnits="userSpaceOnUse" x1="48.684" y1="3.281" x2="6.586" y2="3.281"><stop offset="0" stop-color="#febe41"/><stop offset=".267" stop-color="#f79036"/><stop offset=".5" stop-color="#f2662e"/><stop offset="1" stop-color="#2e3676"/></linearGradient><path d="M31.7 0h5.7v6.5h-5.7z" clip-path="url(#ay)" fill="url(#az)"/><defs><path id="aA" d="m37.3 36.8-5.6 3.3v-6.5z"/></defs><clipPath id="aB"><use xlink:href="#aA"/></clipPath><linearGradient id="aC" gradientUnits="userSpaceOnUse" x1="48.684" y1="36.836" x2="6.586" y2="36.836"><stop offset="0" stop-color="#febe41"/><stop offset=".267" stop-color="#f79036"/><stop offset=".5" stop-color="#f2662e"/><stop offset="1" stop-color="#2e3676"/></linearGradient><path d="M31.7 33.6h5.7v6.5h-5.7z" clip-path="url(#aB)" fill="url(#aC)"/><defs><path id="aD" d="m24.1 47.8 5.3-3.1v6.1z"/></defs><clipPath id="aE"><use xlink:href="#aD"/></clipPath><linearGradient id="aF" gradientUnits="userSpaceOnUse" x1="52.207" y1="47.757" x2="-.391" y2="47.757"><stop offset="0" stop-color="#febe41"/><stop offset=".267" stop-color="#f79036"/><stop offset=".5" stop-color="#f2662e"/><stop offset="1" stop-color="#2e3676"/></linearGradient><path d="M24.1 44.7h5.3v6.1h-5.3z" clip-path="url(#aE)" fill="url(#aF)"/><defs><path id="aG" d="m27.8 39.9-5.3-3.1 5.3-3.1z"/></defs><clipPath id="aH"><use xlink:href="#aG"/></clipPath><linearGradient id="aI" gradientUnits="userSpaceOnUse" x1="52.172" y1="36.793" x2="-.417" y2="36.793"><stop offset="0" stop-color="#febe41"/><stop offset=".267" stop-color="#f79036"/><stop offset=".5" stop-color="#f2662e"/><stop offset="1" stop-color="#2e3676"/></linearGradient><path d="M22.5 33.7h5.3v6.1h-5.3z" clip-path="url(#aH)" fill="url(#aI)"/><defs><path id="aJ" d="M29.4 25.3v6.1l-5.3-3.1z"/></defs><clipPath id="aK"><use xlink:href="#aJ"/></clipPath><linearGradient id="aL" gradientUnits="userSpaceOnUse" x1="52.207" y1="28.339" x2="-.391" y2="28.339"><stop offset="0" stop-color="#febe41"/><stop offset=".267" stop-color="#f79036"/><stop offset=".5" stop-color="#f2662e"/><stop offset="1" stop-color="#2e3676"/></linearGradient><path d="M24.1 25.3h5.3v6.1h-5.3z" clip-path="url(#aK)" fill="url(#aL)"/><defs><path id="aM" d="m27.8 23.3-5.3-3.1 5.3-3z"/></defs><clipPath id="aN"><use xlink:href="#aM"/></clipPath><linearGradient id="aO" gradientUnits="userSpaceOnUse" x1="52.207" y1="20.242" x2="-.391" y2="20.242"><stop offset="0" stop-color="#febe41"/><stop offset=".267" stop-color="#f79036"/><stop offset=".5" stop-color="#f2662e"/><stop offset="1" stop-color="#2e3676"/></linearGradient><path d="M22.5 17.2h5.3v6.1h-5.3z" clip-path="url(#aN)" fill="url(#aO)"/><defs><path id="aP" d="m27.5 6.9-5.3-3.1L27.5.7z"/></defs><clipPath id="aQ"><use xlink:href="#aP"/></clipPath><linearGradient id="aR" gradientUnits="userSpaceOnUse" x1="52.172" y1="3.783" x2="-.417" y2="3.783"><stop offset="0" stop-color="#febe41"/><stop offset=".267" stop-color="#f79036"/><stop offset=".5" stop-color="#f2662e"/><stop offset="1" stop-color="#2e3676"/></linearGradient><path d="M22.2.7h5.3v6.1h-5.3z" clip-path="url(#aQ)" fill="url(#aR)"/><defs><path id="aS" d="M29.1 9.1v6.1l-5.4-3.1z"/></defs><clipPath id="aT"><use xlink:href="#aS"/></clipPath><linearGradient id="aU" gradientUnits="userSpaceOnUse" x1="52.172" y1="12.123" x2="-.417" y2="12.123"><stop offset="0" stop-color="#febe41"/><stop offset=".267" stop-color="#f79036"/><stop offset=".5" stop-color="#f2662e"/><stop offset="1" stop-color="#2e3676"/></linearGradient><path d="M23.7 9.1H29v6.1h-5.3z" clip-path="url(#aT)" fill="url(#aU)"/><defs><path id="aV" d="m26.4 24.2-5.3 3.1v-6.1z"/></defs><clipPath id="aW"><use xlink:href="#aV"/></clipPath><linearGradient id="aX" gradientUnits="userSpaceOnUse" x1="52.188" y1="24.228" x2="-.42" y2="24.228"><stop offset="0" stop-color="#febe41"/><stop offset=".267" stop-color="#f79036"/><stop offset=".5" stop-color="#f2662e"/><stop offset="1" stop-color="#2e3676"/></linearGradient><path d="M21.1 21.2h5.3v6.1h-5.3z" clip-path="url(#aW)" fill="url(#aX)"/><defs><path id="aY" d="m26.1 32.8-5.3 3.1v-6.1z"/></defs><clipPath id="aZ"><use xlink:href="#aY"/></clipPath><linearGradient id="ba" gradientUnits="userSpaceOnUse" x1="52.188" y1="32.832" x2="-.42" y2="32.832"><stop offset="0" stop-color="#febe41"/><stop offset=".267" stop-color="#f79036"/><stop offset=".5" stop-color="#f2662e"/><stop offset="1" stop-color="#2e3676"/></linearGradient><path d="M20.8 29.8h5.3v6.1h-5.3z" clip-path="url(#aZ)" fill="url(#ba)"/><defs><path id="bb" d="m21.7 38.4 5.3 3.1-5.3 3z"/></defs><clipPath id="bc"><use xlink:href="#bb"/></clipPath><linearGradient id="bd" gradientUnits="userSpaceOnUse" x1="52.188" y1="41.436" x2="-.42" y2="41.436"><stop offset="0" stop-color="#febe41"/><stop offset=".267" stop-color="#f79036"/><stop offset=".5" stop-color="#f2662e"/><stop offset="1" stop-color="#2e3676"/></linearGradient><path d="M21.7 38.4H27v6.1h-5.3z" clip-path="url(#bc)" fill="url(#bd)"/><defs><path id="be" d="M26.8 7.9 21.4 11V4.8z"/></defs><clipPath id="bf"><use xlink:href="#be"/></clipPath><linearGradient id="bg" gradientUnits="userSpaceOnUse" x1="52.188" y1="7.873" x2="-.42" y2="7.873"><stop offset="0" stop-color="#febe41"/><stop offset=".267" stop-color="#f79036"/><stop offset=".5" stop-color="#f2662e"/><stop offset="1" stop-color="#2e3676"/></linearGradient><path d="M21.4 4.8h5.3v6.1h-5.3z" clip-path="url(#bf)" fill="url(#bg)"/><defs><path id="bh" d="m26.8 16.1-5.4 3V13z"/></defs><clipPath id="bi"><use xlink:href="#bh"/></clipPath><linearGradient id="bj" gradientUnits="userSpaceOnUse" x1="52.174" y1="16.047" x2="-.415" y2="16.047"><stop offset="0" stop-color="#febe41"/><stop offset=".267" stop-color="#f79036"/><stop offset=".5" stop-color="#f2662e"/><stop offset="1" stop-color="#2e3676"/></linearGradient><path d="M21.4 13h5.3v6.1h-5.3z" clip-path="url(#bi)" fill="url(#bj)"/><defs><path id="bk" d="M19.3 38.8V45L14 41.9z"/></defs><clipPath id="bl"><use xlink:href="#bk"/></clipPath><linearGradient id="bm" gradientUnits="userSpaceOnUse" x1="52.188" y1="41.9" x2="-.42" y2="41.9"><stop offset="0" stop-color="#febe41"/><stop offset=".267" stop-color="#f79036"/><stop offset=".5" stop-color="#f2662e"/><stop offset="1" stop-color="#2e3676"/></linearGradient><path d="M14 38.8h5.3v6.1H14z" clip-path="url(#bl)" fill="url(#bm)"/><defs><path id="bn" d="M18.9 29.1v6.1l-5.3-3z"/></defs><clipPath id="bo"><use xlink:href="#bn"/></clipPath><linearGradient id="bp" gradientUnits="userSpaceOnUse" x1="52.188" y1="32.166" x2="-.42" y2="32.166"><stop offset="0" stop-color="#febe41"/><stop offset=".267" stop-color="#f79036"/><stop offset=".5" stop-color="#f2662e"/><stop offset="1" stop-color="#2e3676"/></linearGradient><path d="M13.6 29.1h5.3v6.1h-5.3z" clip-path="url(#bo)" fill="url(#bp)"/><defs><path id="bq" d="M18.7 20.7v6.1l-5.4-3z"/></defs><clipPath id="br"><use xlink:href="#bq"/></clipPath><linearGradient id="bs" gradientUnits="userSpaceOnUse" x1="52.188" y1="23.75" x2="-.42" y2="23.75"><stop offset="0" stop-color="#febe41"/><stop offset=".267" stop-color="#f79036"/><stop offset=".5" stop-color="#f2662e"/><stop offset="1" stop-color="#2e3676"/></linearGradient><path d="M13.3 20.7h5.3v6.1h-5.3z" clip-path="url(#br)" fill="url(#bs)"/><defs><path id="bt" d="M20.5 13v6.1l-5.4-3z"/></defs><clipPath id="bu"><use xlink:href="#bt"/></clipPath><linearGradient id="bv" gradientUnits="userSpaceOnUse" x1="52.209" y1="16.072" x2="-.389" y2="16.072"><stop offset="0" stop-color="#febe41"/><stop offset=".267" stop-color="#f79036"/><stop offset=".5" stop-color="#f2662e"/><stop offset="1" stop-color="#2e3676"/></linearGradient><path d="M15.1 13h5.3v6.1h-5.3z" clip-path="url(#bu)" fill="url(#bv)"/><defs><path id="bw" d="m20.5 11-5.4-3.1 5.4-3.1z"/></defs><clipPath id="bx"><use xlink:href="#bw"/></clipPath><linearGradient id="by" gradientUnits="userSpaceOnUse" x1="52.188" y1="7.871" x2="-.42" y2="7.871"><stop offset="0" stop-color="#febe41"/><stop offset=".267" stop-color="#f79036"/><stop offset=".5" stop-color="#f2662e"/><stop offset="1" stop-color="#2e3676"/></linearGradient><path d="M15.1 4.8h5.3v6.1h-5.3z" clip-path="url(#bx)" fill="url(#by)"/><defs><path id="bz" d="m18.2 12-5.3 3V8.9z"/></defs><clipPath id="bA"><use xlink:href="#bz"/></clipPath><linearGradient id="bB" gradientUnits="userSpaceOnUse" x1="52.207" y1="11.982" x2="-.391" y2="11.982"><stop offset="0" stop-color="#febe41"/><stop offset=".267" stop-color="#f79036"/><stop offset=".5" stop-color="#f2662e"/><stop offset="1" stop-color="#2e3676"/></linearGradient><path d="M12.9 8.9h5.3V15h-5.3z" clip-path="url(#bA)" fill="url(#bB)"/><defs><path id="bC" d="m17.8 20.2-5.3 3v-6.1z"/></defs><clipPath id="bD"><use xlink:href="#bC"/></clipPath><linearGradient id="bE" gradientUnits="userSpaceOnUse" x1="52.17" y1="20.14" x2="-.419" y2="20.14"><stop offset="0" stop-color="#febe41"/><stop offset=".267" stop-color="#f79036"/><stop offset=".5" stop-color="#f2662e"/><stop offset="1" stop-color="#2e3676"/></linearGradient><path d="M12.5 17.1h5.3v6.1h-5.3z" clip-path="url(#bD)" fill="url(#bE)"/><defs><path id="bF" d="m16 29.4-5.3 3v-6.1z"/></defs><clipPath id="bG"><use xlink:href="#bF"/></clipPath><linearGradient id="bH" gradientUnits="userSpaceOnUse" x1="52.188" y1="29.34" x2="-.42" y2="29.34"><stop offset="0" stop-color="#febe41"/><stop offset=".267" stop-color="#f79036"/><stop offset=".5" stop-color="#f2662e"/><stop offset="1" stop-color="#2e3676"/></linearGradient><path d="M10.7 26.3H16v6.1h-5.3z" clip-path="url(#bG)" fill="url(#bH)"/><defs><path id="bI" d="m17.8 36.8-5.3 3.1v-6.2z"/></defs><clipPath id="bJ"><use xlink:href="#bI"/></clipPath><linearGradient id="bK" gradientUnits="userSpaceOnUse" x1="52.188" y1="36.795" x2="-.42" y2="36.795"><stop offset="0" stop-color="#febe41"/><stop offset=".267" stop-color="#f79036"/><stop offset=".5" stop-color="#f2662e"/><stop offset="1" stop-color="#2e3676"/></linearGradient><path d="M12.5 33.7h5.3v6.1h-5.3z" clip-path="url(#bJ)" fill="url(#bK)"/><defs><path id="bL" d="M8.4 36.1V41l-4.3-2.4z"/></defs><clipPath id="bM"><use xlink:href="#bL"/></clipPath><linearGradient id="bN" gradientUnits="userSpaceOnUse" x1="42.981" y1="38.533" x2=".895" y2="38.533"><stop offset="0" stop-color="#febe41"/><stop offset=".267" stop-color="#f79036"/><stop offset=".5" stop-color="#f2662e"/><stop offset="1" stop-color="#2e3676"/></linearGradient><path d="M4.1 36.1h4.3V41H4.1z" clip-path="url(#bM)" fill="url(#bN)"/><defs><path id="bO" d="m9.7 30.2-4.3-2.4 4.3-2.5z"/></defs><clipPath id="bP"><use xlink:href="#bO"/></clipPath><linearGradient id="bQ" gradientUnits="userSpaceOnUse" x1="43.272" y1="27.796" x2="1.194" y2="27.796"><stop offset="0" stop-color="#febe41"/><stop offset=".267" stop-color="#f79036"/><stop offset=".5" stop-color="#f2662e"/><stop offset="1" stop-color="#2e3676"/></linearGradient><path d="M5.4 25.3h4.2v4.9H5.4z" clip-path="url(#bP)" fill="url(#bQ)"/><defs><path id="bR" d="m9.1 12.9-4.3-2.4L9.1 8z"/></defs><clipPath id="bS"><use xlink:href="#bR"/></clipPath><linearGradient id="bT" gradientUnits="userSpaceOnUse" x1="43.118" y1="10.467" x2="1.047" y2="10.467"><stop offset="0" stop-color="#febe41"/><stop offset=".267" stop-color="#f79036"/><stop offset=".5" stop-color="#f2662e"/><stop offset="1" stop-color="#2e3676"/></linearGradient><path d="M4.8 8H9v4.9H4.8z" clip-path="url(#bS)" fill="url(#bT)"/><defs><path id="bU" d="m9.4 22.3-4.3-2.4 4.3-2.5z"/></defs><clipPath id="bV"><use xlink:href="#bU"/></clipPath><linearGradient id="bW" gradientUnits="userSpaceOnUse" x1="43.183" y1="19.875" x2="1.112" y2="19.875"><stop offset="0" stop-color="#febe41"/><stop offset=".267" stop-color="#f79036"/><stop offset=".5" stop-color="#f2662e"/><stop offset="1" stop-color="#2e3676"/></linearGradient><path d="M5.1 17.4h4.2v4.9H5.1z" clip-path="url(#bV)" fill="url(#bW)"/><defs><path id="bX" d="M0 11.5 4.2 14 0 16.4z"/></defs><clipPath id="bY"><use xlink:href="#bX"/></clipPath><linearGradient id="bZ" gradientUnits="userSpaceOnUse" x1="42.161" y1="13.972" x2=".075" y2="13.972"><stop offset="0" stop-color="#febe41"/><stop offset=".267" stop-color="#f79036"/><stop offset=".5" stop-color="#f2662e"/><stop offset="1" stop-color="#2e3676"/></linearGradient><path d="M0 11.5h4.2v4.9H0z" clip-path="url(#bY)" fill="url(#bZ)"/><defs><path id="ca" d="M5.2 23 1 25.4v-4.9z"/></defs><clipPath id="cb"><use xlink:href="#ca"/></clipPath><linearGradient id="cc" gradientUnits="userSpaceOnUse" x1="42.354" y1="22.929" x2=".268" y2="22.929"><stop offset="0" stop-color="#febe41"/><stop offset=".267" stop-color="#f79036"/><stop offset=".5" stop-color="#f2662e"/><stop offset="1" stop-color="#2e3676"/></linearGradient><path d="M1 20.5h4.2v4.9H1z" clip-path="url(#cb)" fill="url(#cc)"/><defs><path id="cd" d="m7.9 32.1-4.3 2.4v-4.9z"/></defs><clipPath id="ce"><use xlink:href="#cd"/></clipPath><linearGradient id="cf" gradientUnits="userSpaceOnUse" x1="42.886" y1="32.04" x2=".799" y2="32.04"><stop offset="0" stop-color="#febe41"/><stop offset=".267" stop-color="#f79036"/><stop offset=".5" stop-color="#f2662e"/><stop offset="1" stop-color="#2e3676"/></linearGradient><path d="M3.6 29.6h4.2v4.9H3.6z" clip-path="url(#ce)" fill="url(#cf)"/></svg>