<svg xmlns="http://www.w3.org/2000/svg" width="319.658" height="312.834" viewBox="0 0 400 391.46"><path d="M299.2 71.465c-1.329 0-2.662 0-3.996.266q-6.801-23.601-25.599-42.397C249.868 9.863 226.135 0 198.403 0c-27.998 0-51.731 9.863-71.2 29.334-12 11.999-20.531 25.599-25.065 40.531h-1.334c-28 0-51.999 9.863-71.465 29.334C9.605 118.932-.26 142.665.005 170.666c-.266 28 9.6 51.729 29.334 71.194 4.265 4.533 9.066 8.535 14.133 12.005q-6.802 17.194-6.401 36.796c-.266 28.001 9.6 51.739 29.334 71.205 19.466 19.726 43.465 29.595 71.465 29.595 23.199 0 43.465-6.93 60.8-20.529 17.866 13.599 38.666 20.529 61.863 20.529 27.735 0 51.468-9.868 71.2-29.595 19.737-19.466 29.6-43.204 29.6-71.205 0-11.994-1.865-23.468-5.601-33.867 5.07-4.262 9.868-8.795 14.667-13.328 19.471-19.466 29.334-43.199 29.6-71.2-.266-28.001-10.134-51.734-29.6-71.465-19.732-19.466-43.465-29.334-71.2-29.334zm-8.529 3.731c0 .537.266 1.068 1.063 1.334.271.266.802.537 1.605.537 1.865-.271 3.996-.271 5.862-.271 26.401 0 48.8 9.337 67.469 27.74 18.669 18.664 28.001 41.329 28.001 67.73-.266 26.401-9.603 49.066-28.001 67.469-5.07 4.794-10.4 9.327-15.735 13.86-.531.271-.797.802-.797 1.605a1.69 1.69 0 0 0 0 1.594c4.002 10.4 5.867 21.873 5.867 33.867 0 26.406-9.337 49.071-28.001 67.474-18.669 18.664-41.068 27.99-67.469 27.99-22.931 0-42.928-6.93-60.263-20.8-.534-.261-1.068-.531-1.6-.531-.8 0-1.334.271-1.602.802-16.798 13.599-36.532 20.529-59.198 20.529-26.401 0-49.066-9.327-67.732-27.99-18.669-18.403-28-41.068-27.735-67.474-.266-13.068 1.868-25.333 6.935-36.796.266-.531.266-1.063 0-1.865-.268-.531-.534-1.073-1.068-1.334-5.599-3.731-10.666-8.003-15.199-12.536-18.666-18.403-28.001-41.063-27.735-67.464-.266-26.401 9.069-49.071 27.735-67.735 18.666-18.398 41.331-27.735 67.732-27.735h3.468c.531 0 1.065-.266 1.6-.531.266-.266.534-.802.8-1.334 4.267-14.933 12.265-28.261 24.267-40.266C149.337 14.662 172.005 5.33 198.403 5.33s48.803 9.332 67.466 27.735c12.265 12.27 20.534 26.401 24.801 42.131zm3.199 12.536c-3.199 0-6.133-.797-8.535-2.668-2.668-1.865-4.267-4.267-5.064-7.201-4.002-13.865-11.202-26.135-22.134-37.061-16.532-16.538-36.535-24.807-59.734-24.807-23.465 0-43.465 8.269-60 24.536l-.266.271c-10.4 10.4-17.332 22.128-21.066 35.462-.8 2.933-2.402 5.07-4.801 6.935s-5.067 2.668-8.001 2.668h-3.733c-23.465 0-43.465 8.269-59.997 24.536l-.268.266c-16.267 16.527-24.533 36.53-24.533 59.997s8.266 43.465 24.801 59.732c4.265 4.262 8.798 8.003 13.599 11.463 2.668 1.605 4.533 4.002 5.333 7.201.8 2.939.8 5.867-.534 8.806-3.999 10.129-6.133 21.06-6.133 32.794 0 23.468 8.266 43.465 24.801 59.732 16.532 16.809 36.533 25.072 59.997 25.072 20 0 37.601-6.138 52.534-18.403a13.78 13.78 0 0 1 8.535-2.928c2.933-.271 5.867.792 8.532 2.928 15.201 12.265 33.068 18.403 53.331 18.403 23.202 0 43.199-8.264 59.737-24.801l.266-.271c16.532-16.267 24.796-36.264 24.796-59.732 0-10.931-1.865-21.06-5.33-30.397-1.068-2.668-1.068-5.335-.266-8.264.797-2.939 2.131-5.064 4.533-6.94 5.064-3.991 10.134-8.264 14.667-12.797l.266-.261c16.267-16.267 24.53-36.269 24.53-59.737s-8.264-43.47-24.796-60.003c-16.532-16.527-36.535-24.796-59.737-24.796-1.865 0-3.731 0-5.33.266zm-9.332 37.332c22.665 22.67 34.133 49.863 34.133 82.136 0 32.263-11.468 59.461-34.133 82.126-22.67 22.665-49.868 33.867-81.868 34.138-32.265-.271-59.466-11.473-82.134-34.138S86.671 239.463 86.671 207.2c0-32.273 11.2-59.466 33.865-82.136s49.868-33.862 82.134-33.862c31.999 0 59.198 11.197 81.868 33.862m23.999 82.137c0-29.34-10.4-54.401-31.2-75.201-20.534-20.534-45.601-30.934-74.933-30.934s-54.401 10.4-74.933 30.934c-20.534 20.8-30.934 45.862-30.934 75.201s10.4 54.396 30.934 74.925c20.531 20.8 45.599 31.2 74.933 31.2s54.399-10.4 74.933-31.2c20.8-20.529 31.2-45.591 31.2-74.925m-34.936-71.471c19.737 19.737 29.6 43.465 29.6 71.471s-9.863 51.729-29.6 71.194Q244.403 308 202.405 308c-41.998 0-51.734-9.868-71.2-29.605-19.734-19.466-29.6-43.194-29.334-71.194-.266-28.006 9.6-51.734 29.334-71.471 19.466-19.466 43.199-29.329 71.2-29.329s51.731 9.863 71.197 29.329z" fill="#19338f"/><path d="M262.405 133.865c-.802-.802-1.871-1.334-2.933-1.334h-49.868c-1.068 0-1.865.531-2.665 1.334-.8.797-1.334 1.6-1.334 2.668v22.665c0 1.068.534 2.136 1.334 2.933s1.597 1.068 2.665 1.068h50.134v1.6c-.802 5.07-1.6 9.332-2.668 13.333v-.271c-1.334 3.47-3.199 6.404-5.601 8.535l-11.734-12.265c-.266-.531-.797-.802-1.329-1.068s-1.068-.266-1.605-.266l-23.197-.266c-1.068 0-1.865.531-2.668 1.334-.802.797-1.334 1.6-1.334 2.668 0 1.063.531 2.131 1.334 2.928s1.6 1.068 2.668 1.068l21.331.266 10.134 10.937c-7.201 4.533-19.2 6.664-35.998 6.133-1.334 0-2.134.271-2.933 1.068s-1.334 1.6-1.334 2.933c0 1.063.266 1.865 1.066 2.668s1.602 1.334 2.936 1.334c19.732.802 33.596-1.865 41.865-8.003l9.332 9.868c.802.802 1.6 1.063 2.933 1.063 1.068 0 2.131-.261 2.933-1.063s1.068-1.605 1.068-2.668c0-1.334-.266-2.136-1.068-2.928l-9.066-9.874c3.465-2.933 6.133-6.935 7.732-11.734h.266c1.334-4.533 2.136-9.332 2.933-14.662v-1.068c0-1.068 0-1.865.266-2.668v-2.933c0-1.063-.266-1.865-1.063-2.662-.802-.802-1.865-1.334-2.933-1.334h-50.4v-14.667h45.867c1.063 0 2.131-.266 2.933-1.068s1.063-1.865 1.063-2.933-.266-1.871-1.063-2.668zm3.73 87.737c0-1.073-.266-1.876-1.063-2.668-.802-.802-1.871-1.334-2.933-1.334h-40c-6.138 0-10.671-1.073-14.136-3.47s-5.867-3.47-6.667-3.199c-1.066.271-3.199 1.334-6.133 3.199-3.199 1.865-8.8 2.939-16.532 3.47H141.07c-1.334 0-2.134.531-2.933 1.334-.8.792-1.065 1.594-1.065 2.668v31.2c-.268 9.327-1.334 15.725-2.933 19.726a3.39 3.39 0 0 0 0 3.199c.266.802 1.066 1.605 2.134 2.136 1.066.271 2.131.271 2.931 0 1.068-.271 1.868-1.063 2.402-2.136 1.865-4.533 2.933-12.265 3.465-22.665v-27.469h29.6v49.071c0 1.063.534 2.136 1.334 2.928.8.802 1.6 1.073 2.668 1.073s2.134-.271 2.933-1.073c.8-.792 1.065-1.865 1.065-2.928v-49.332c6.667-.802 13.068-2.397 18.934-4.804 5.867 2.939 11.734 4.804 17.601 5.064v49.071c0 1.063.531 2.136 1.329 2.928.802.802 1.605 1.073 2.668 1.073s2.136-.271 2.933-1.073c.802-.792 1.068-1.865 1.068-2.928v-49.071h30.934v23.999c0 12.536 1.6 21.342 5.064 26.135.537.802 1.334 1.605 2.402 1.865 1.068.271 2.131 0 2.933-.531.797-.802 1.6-1.594 1.865-2.668.266-1.063 0-2.126-.531-2.928-2.402-4.002-3.736-11.473-3.736-21.873v-27.99zm-74.13-85.07c0-1.068-.268-1.871-1.068-2.668s-1.865-1.334-2.933-1.334H142.14c-1.334 0-2.134.531-2.933 1.334-.802.797-1.068 1.6-1.068 2.668s.266 2.131 1.068 2.933 1.6 1.068 2.933 1.068h18.132v57.33h-15.733v-31.2c-.268-1.063-.534-1.865-1.334-2.663s-1.6-1.334-2.668-1.334c-1.331 0-2.134.531-2.933 1.334-.8.797-1.066 1.6-1.066 2.663v35.2c0 1.063.266 2.136 1.066 2.928.8.802 1.602 1.073 2.933 1.073h47.735c1.065 0 2.131-.271 2.933-1.073.8-.792 1.066-1.865 1.066-2.928s-.266-1.865-1.066-2.668-1.868-1.334-2.933-1.334h-20.268V176.53h22.668c1.066 0 2.134-.271 2.933-1.068s1.066-1.865 1.066-2.933v-9.863c0-1.068-.266-1.87-1.066-2.668s-1.868-1.334-2.933-1.334-1.868.531-2.668 1.334c-.8.797-1.334 1.6-1.334 2.668v5.867h-18.666v-28h20c1.068 0 2.134-.266 2.933-1.068s1.068-1.865 1.068-2.933" fill="#fb0f0c"/></svg>