<svg xmlns="http://www.w3.org/2000/svg" width="35vw" viewBox="0 0 88 88" fill="none"><g fill-rule="evenodd"><path d="M44 1.056C20.287 1.056 1.056 20.287 1.056 44S20.287 86.944 44 86.944 86.944 67.713 86.944 44 67.713 1.056 44 1.056M0 44C0 19.704 19.704 0 44 0s44 19.704 44 44-19.703 44-44 44S0 68.297 0 44m44-31.584C26.56 12.416 12.417 26.56 12.417 44S26.56 75.583 44 75.583 75.583 61.44 75.583 44 61.44 12.416 44 12.416M11.009 44c0-18.217 14.774-32.991 32.991-32.991S76.991 25.782 76.991 44 62.217 76.991 44 76.991 11.009 62.217 11.009 44m5.016.638L16.017 44c0-11.542 6.992-21.453 16.97-25.73v26.367zm53.764-11.512h-14.08v18.607c0 6.325-4.942 11.455-11.267 11.455a11.46 11.46 0 0 1-11.455-11.455H17.1c3.356 11.692 14.13 20.25 26.899 20.25 15.451 0 27.982-12.531 27.982-27.982 0-3.857-.781-7.531-2.193-10.875zM48.864 68.112a1 1 0 0 0 .109.446.77.77 0 0 0 .325.335.95.95 0 0 0 .465.119.87.87 0 0 0 .639-.25.85.85 0 0 0 .252-.632.87.87 0 0 0-.259-.645.9.9 0 0 0-.65-.255.85.85 0 0 0-.63.252.86.86 0 0 0-.251.63m.174-2.03a.7.7 0 0 0 .2.51.7.7 0 0 0 .522.198.7.7 0 0 0 .512-.196.65.65 0 0 0 .199-.481.67.67 0 0 0-.205-.499.7.7 0 0 0-.512-.203.7.7 0 0 0-.513.198.64.64 0 0 0-.203.474zm.108.915a1 1 0 0 1-.498-.351.92.92 0 0 1-.162-.545q0-.48.345-.806c.345-.326.535-.328.917-.328s.693.112.927.335a1.08 1.08 0 0 1 .35.815.9.9 0 0 1-.16.532 1 1 0 0 1-.487.349q.404.131.616.426a1.17 1.17 0 0 1 .211.701q0 .565-.398.948c-.398.383-.616.384-1.05.384s-.783-.128-1.049-.385a1.28 1.28 0 0 1-.399-.961q0-.428.218-.718c.218-.29.351-.324.619-.394zm-4.587 1.232.567-.048q.063.414.292.622c.229.208.338.209.554.209a.86.86 0 0 0 .659-.294q.27-.294.27-.78 0-.462-.259-.729c-.259-.267-.399-.267-.68-.267a.94.94 0 0 0-.471.119.9.9 0 0 0-.33.307l-.507-.065.426-2.258h2.186v.516h-1.754l-.237 1.181a1.43 1.43 0 0 1 .831-.276q.575 0 .971.399c.396.399.396.608.396 1.025q0 .597-.348 1.032-.423.533-1.154.533-.6 0-.98-.336c-.38-.336-.397-.521-.433-.89zm-1.466-1.805q0-.465-.247-.737c-.247-.272-.363-.273-.596-.273q-.359 0-.626.294c-.267.294-.267.45-.267.761a.94.94 0 0 0 .254.682.83.83 0 0 0 .624.262q.376 0 .616-.262c.24-.262.242-.418.242-.727m-2.209 1.94.519-.048q.066.366.252.531a.7.7 0 0 0 .477.165.8.8 0 0 0 .436-.115.94.94 0 0 0 .307-.304q.12-.191.201-.514a2.8 2.8 0 0 0 .081-.66l-.003-.108a1.25 1.25 0 0 1-.442.418 1.2 1.2 0 0 1-.607.161q-.546 0-.924-.396c-.378-.396-.377-.611-.377-1.043q0-.668.394-1.076c.394-.408.593-.408.989-.408q.429 0 .784.231a1.44 1.44 0 0 1 .539.658q.184.427.184 1.237 0 .841-.182 1.342c-.182.501-.304.585-.544.759s-.523.261-.847.261q-.516 0-.842-.286c-.326-.286-.349-.459-.393-.804zM39.08 69.38h-.539v-3.438a2.7 2.7 0 0 1-.511.371 3.6 3.6 0 0 1-.569.278v-.521a3.3 3.3 0 0 0 .792-.516q.339-.303.48-.588h.347zm16.386-50.911a28.1 28.1 0 0 1 10.018 7.606H55.466z" fill="#1d2088"/><path d="M66.16 26.859H41.255l-6.561 19.108H16.113c.094 1.454.293 2.895.644 4.318h33.101l1.413-4.103H39.534l1.452-4.218h12.422l1.548-4.494H42.534l1.704-4.947h25.324c-.947-1.986-2.041-3.928-3.402-5.664" fill="#e60013"/><g fill="#1d2088"><path d="M55.468 14.305v4.16c-3.512-1.588-7.362-2.447-11.467-2.447a27.9 27.9 0 0 0-11.015 2.252v-4.156c3.515-1.36 7.021-1.964 11.015-1.964 4.067 0 7.899.748 11.467 2.155m-2.077-7.241c-.027.03-.041.027-.047.068l-.003.018c-.011.074.225.291.284.345.076.069.143.023.217.116s.058.088.223.112c.017.036.032.038.026.079l-.003.018c-.012.083-.127.191-.181.218-.028.193-.341.41-.379.614l-.145.154c-.028.192-.074.137-.166.238-.035.24-.135.148-.176.312a.8.8 0 0 1-.179.33c-.037.253-.065.228-.169.365-.043.056-.054.126-.081.198-.035.095-.086.079-.1.174a.07.07 0 0 0 .063.084l.11.016c.154.022.127-.132.334-.102l.11.016c.111.016.15.149.401.208.156.036.143.152.441.195l.422.061c.093.014.518-.035.615-.054a19 19 0 0 0 .49-.222c.066-.04.122-.128.186-.19.035-.034.048-.074.083-.108s.075-.05.105-.079c.115-.112.208-.32.361-.393.032-.224.107-.129.16-.246.104-.228.042-.088.172-.231.041-.281.141-.194.202-.387.07-.221.158-.234.193-.399.028-.131.01-.131.061-.247.03-.067.071-.151.081-.22.038-.253.047-.274.053-.516.002-.095-.032-.137-.022-.23.017-.144.013-.118-.049-.209-.081-.119-.144-.215-.298-.269-.107-.037-.12-.036-.181-.11s-.1-.06-.18-.112c-.099-.064-.375-.109-.355-.242.015-.106.258-.096.273-.204l.008-.055c.015-.102-.153-.277-.221-.326-.085-.061-.26-.231-.334-.242l-.037-.005c-.134-.019-.156.195-.198.305-.01.026-.201.229-.235.255-.085.065-.048.057-.094.159-.039.087-.079.065-.121.124-.051.072-.005.092-.092.161l-.139.121a5 5 0 0 1-.333.124c-.12.016-.084.045-.159.072-.06.021-.133-.006-.211.024-.058.023-.079.064-.154.079s-.141-.024-.219-.008c-.211.044-.09.088-.412.041zm1.826 2.157-.013.092c-.128.142-.593.533-.822.5-.138.153-.169.062-.337.119s-.121.094-.367.079c-.026-.023-.051-.032-.044-.082.006-.04.242-.192.291-.246.082-.091.177-.244.263-.306l.258-.312a6 6 0 0 1 .231-.348 3 3 0 0 0 .24-.315c.049-.111.031-.107.113-.178.069-.06.052-.11.108-.184.062-.082.077-.036.134-.149a.7.7 0 0 1 .113-.178c.095-.096.117-.288.295-.262.073.01.045.082.118.092.117.017.156-.09.273-.073l.037.005c.041.006.038.02.068.047a.96.96 0 0 1-.185.498c-.057.087-.047.159-.097.242-.047.077-.098.073-.144.181-.073.173.006.076-.121.211-.094.1-.041.151-.113.221-.132.128-.047.004-.133.194-.026.057-.119.101-.165.152zm14.876 8.946-.267-.286c-.062-.066-.042-.154-.086-.201a.07.07 0 0 0-.105-.004l-.041.038c-.091.085-.055.16.031.252-.02.087.023.379.103.465l.083.104.353.28.013.014a.3.3 0 0 1 .083.28c-.222.208-.343.169-.484.275-.228.171-.332.105-.483.246-.131.021-.123-.012-.253.082-.07.051-.237-.006-.25-.02-.067-.071.083-.184-.068-.345l-.025-.027c-.055-.059-.166-.125-.222-.073l-.014.013c-.216.202-.163 1.218.057 1.453l.051.054c.055.058.357.055.434.048.088-.008.111-.072.227-.089.101-.015.129-.008.228-.093l.195-.017.178-.136c.179.042.172-.062.334-.124.172-.066.142.011.336-.168l.332-.083c.214-.2.202-.01.473-.273l.234.046c.125.14.247.226.424.356.166.122.243.057.452.281.175.041.532.166.699.01l.027-.025c.078-.073.12-.363.029-.461-.001-.001-.229-.152-.258-.174-.099-.073-.178-.072-.274-.095-.171-.183-.275-.075-.453-.266l-.102-.109c-.093-.1.171-.262.289-.373.04-.007.049.005.08-.024l.382-.355.356-.411c.081.019.269.106.342.038l.014-.013c.052-.049.028-.404.016-.474-.189-.202-.017-.373-.167-.533-.098-.105-.297.176-.417.253l-.417.245-.42.34c-.126.091-.279.113-.417.238-.223.204-.64.541-.83.369-.21-.191-.229-.05-.401-.238-.141-.154-.329-.216-.399-.29zm.787 2.428-.169.148-.568.592c-.071.074-.183.157-.271.229-.129.106-.195-.023-.265.043l-.014.013c-.031.029-.02.039-.029.078.117.126.256.469.234.573l.15.192.255.272c.081.087.525.045.567.006l.218-.204c.055-.052.069-.182.061-.236.136-.127.15-.688.141-.853-.008-.144-.038-.293-.052-.437-.008-.088-.062-.103-.059-.213.002-.092.022-.134-.064-.226-.039-.042-.091-.017-.133.022zm8.244 14.148c-.111.045-.123.215-.141.306.054.133.031.208.047.247.018.045.047.028.074.094.014.036 0 .071-.036.086-.101.041-.246.029-.268.038l-.093.033-.174.093c-.073-.015-.476-.4-.563-.488-.148-.15-.493-.277-.571-.47-.028-.019-.058-.047-.101-.03l-.046.019c-.041.017-.102.154-.17.193-.216.121-.109-.006-.222.183-.061.103-.078.066-.142.218a2 2 0 0 0-.088.24c-.016.062.01.069-.003.138-.011.058-.033.075-.041.121-.011.059.03.157.009.281s.005.161.064.304c.078.19.034.257.051.299.028.07.099.105.134.162.047.076.062.173.11.248s.27.198.361.161l.335-.136c.169-.069.241-.186.344-.258.068-.047.172-.058.216-.111s.026-.118.114-.154l.03-.012c.034-.014.038-.002.073.006.053.13.069.206.147.28.026.025.177.138.213.123s.068-.229.09-.29c.043-.117.098-.164.031-.327-.026-.064-.06-.06-.092-.14l-.012-.03a.064.064 0 0 1 .036-.086l.061-.025c.101-.041.118.04.241.026.106-.012.136.038.24.058.16.031.306.145.502.065l.122-.049c.128-.052.222-.282.184-.376l-.062-.152c-.022-.054-.445-.37-.513-.398-.094-.04-.057-.056-.118-.108-.046-.039-.102-.029-.14-.087-.06-.091-.106-.344-.229-.294zm-1.972.731c.157-.064.742.343.79.459l.019.046c.035.086-.028.186-.086.241l-.204.178-.015.006c-.037.015-.232-.047-.263-.123l-.118-.289c-.015-.038.011-.049.001-.113-.008-.048-.032-.084-.044-.132-.042-.179-.079-.098-.122-.203-.008-.019.013-.058.042-.07m2.71-2.061c-.022-.055.35-.665.31-.764l-.006-.015c-.014-.034-.026-.028-.055-.048-.197.08-.22.034-.411.078a3 3 0 0 0-.438.143l-.943.384c-.091.037-.357.387-.299.53l.019.046c.03.074.121.121.178.145.152.063.071.048.251.003.116-.029.138.019.233.015s.209-.074.299-.11c.062-.025.232-.105.286-.11.103-.01.057.066.242.024.103-.024.16-.022.225.064.038.05.155.165.169.198l.049.122c.034.083.004.097.038.18l.006.015c.039.095.253.223.323.279s.275.265.331.293c.092.046.189.3.267.413.065.095.23.276.283.406.004.009-.008.04-.012.058l-.167.068c-.028.041-.055.169-.038.211.032.079.096.129.132.196s.08.195.112.273a.83.83 0 0 0 .289.361c.059.144.523.479.637.433l.076-.031c.054-.022.095-.197.13-.248l-.031-.076a.8.8 0 0 0 .014-.183l-.099-.244c-.051-.126-.195-.261-.277-.42-.098-.193-.167-.117-.301-.391-.09-.183-.179-.301-.281-.439-.059-.08-.201-.409-.249-.515-.038-.084-.061-.195-.116-.263s-.097-.05-.161-.157a11 11 0 0 0-.335-.312c-.098-.051-.089-.12-.157-.166-.13-.087-.053-.023-.177-.149-.08-.081-.059-.004-.164-.149-.06-.083-.137-.039-.179-.143z"/><path d="m81.534 34.826-.061.025c-.035.014-.041.029-.027.064l.006.015c.031.075.069.053.108.133l.096.192c.139.029.15.155.24.269a2 2 0 0 0 .278.209c.07.041.069.08.122.13.031.029.072.042.135.098l.271.224c.266.216.374.115.625.223.092.039.205.061.319.109.085.036.232.105.34.061l.106-.043c.106-.043.207-.355.228-.459l.063-.251c.039-.095.179-.097.121-.239l-.031-.076c-.019-.047-.268-.175-.322-.193a2.3 2.3 0 0 0-.363-.096c-.105-.017-.24-.1-.355-.116-.093-.012-.075-.042-.185-.04-.1.002-.101-.008-.188-.031-.079-.021-.077.019-.194-.019-.075-.025-.096-.001-.185-.04-.12-.053-.233-.067-.365-.092-.094-.018-.053-.059-.188-.032-.111.022-.114-.018-.194-.017-.091.001-.116.054-.209.017-.056-.023-.116-.056-.191-.025m.809-2.457c-.322.131-.33-.025-.588.08l-.411.167c-.208.085-.208.092-.311.222-.054.068-.101.049-.141.117-.022.038-.049.098-.074.145-.077.146-.204.468-.123.667a.45.45 0 0 0 .224.157c.122-.05.282-.136.378-.118.141.025.146.047.341-.032l.198-.08c.035-.014.084-.054.073-.083-.022-.055-.106-.043-.119-.076s.001-.071.036-.086l.076-.031c.107-.043.128.054.235.011.011-.005.112-.178.131-.209.052-.085.023-.129.064-.238.023-.061.016-.155.04-.248.017-.065-.011-.06.017-.131.014-.036.051-.083.035-.124l-.012-.03c-.017-.043-.04-.058-.068-.079zm.874 1.968c-.067-.165-.121-.105-.242-.264-.099-.13-.138-.016-.24-.268-.027-.018-.213-.126-.242-.115s-.112.28-.135.334c-.047.109-.113.234-.053.381l.049.122c.034.084.362.195.44.211.156-.063.161-.009.272.014.218-.089.158.078.354-.002a3 3 0 0 0 .474.162c.036-.014.051-.05.036-.086l-.025-.061c-.031-.076-.284-.108-.348-.191-.08-.105-.089-.044-.161-.126-.067-.077-.092-.093-.18-.111zM31.878 4.962l.01.035a6 6 0 0 1-.05.278 2.7 2.7 0 0 1 .117.749c.003.228.211.582.14.762-.047.121-.16.119-.229.21-.1.13-.203.108-.261.207-.116.198-.091.082-.261.207-.161.118-.074.235-.162.261l-.035.01c-.056.016-.239-.137-.351-.105-.092.027.06.4.09.501-.049.154-.021.378.041.591l.127.434c.076.261.143.328.236.5a5 5 0 0 1 .229.513c.098.031.123.101.163.235.038.031.274.294.285.331.066.224-.356.393-.322.508l.01.035c.029.098.213.091.296.099.122.011.135.095.346.034l.243-.071c.06-.018.156-.266.202-.327s.091-.049.148-.138.03-.098.171-.139c.035-.042.063-.131.108-.145s.217.13.246.163c.047.053.024.076.095.12.04.025.111.04.126.09l.025.087s-.164.368-.035.331c.108-.032.116-.091.158-.103l.069-.02c.082-.024.155.031.333-.022.113-.034.294-.113.387-.095.182.034.041.055.301.036.11-.008.229.055.32.028l.417-.122c.026-.008.119-.157.15-.194l.087-.025c.024-.076.111-.136.093-.197-.029-.099-.336-.199-.436-.214-.308-.046-.214-.048-.608.071l-.171-.084-.712.206a.7.7 0 0 1-.305-.269l-.051-.174c-.041-.139-.001-.188.14-.229.032-.101.197-.29.262-.41l.117-.213c.049-.093.033-.186.083-.246-.051-.173.01-.184.046-.296-.05-.171.114-.362.179-.5.048-.102.196-.382.325-.419.061-.192.357-.634.473-.849.064-.119.359-.816.326-.929l-.066-.226c-.043-.148-.312-.264-.426-.314s-.113.016-.245-.086c-.031-.024-.219-.113-.249-.104l-.243.071c-.138.04-.182.1-.256.166-.117.105-.161.066-.308.138-.219.107-.258.219-.576.311a.9.9 0 0 1-.203.181c-.053.029-.107.034-.147.065-.05.04-.032.073-.115.097-.04.012-.1-.021-.112-.061l-.117-.399c-.051-.176.001-.396-.028-.598s.054-.411.004-.581c-.023-.08-.62-.384-.707-.358l-.017.005c-.041.012-.143.23-.12.297.065.188.179.228.2.301zm1.064 2.419c-.094-.322-.06-.338.142-.505a1.7 1.7 0 0 1 .293-.131c.178-.054.225-.14.258-.15l.035-.01a.07.07 0 0 1 .09.049l.02.069c.008.026-.316.883-.447.921l-.156.046c-.094.027-.236-.033-.264-.13l-.01-.035c-.013-.043.024-.078.039-.124m-1.433.513c-.033-.115-.215-.092-.239-.175l-.015-.052.121-.036c.1-.029.266.049.434.006.132-.034.403-.169.442-.036l.101.347.051.248c-.045.151-.197.153-.36.239-.138.073-.225.177-.37.22-.019.005-.084-.03-.095-.067l-.077-.279-.02-.051c-.056-.192.088-.15.025-.365zm.281 1.349-.005-.017a.07.07 0 0 1 .049-.09l.139-.041c.095-.028.106.007.201-.021l.069-.02c.091-.026.09-.064.163-.085a.53.53 0 0 1 .289.217l.142.486c.054.185-.137.492-.382.563l-.035.01c-.095.028-.147-.126-.184-.196-.056-.107-.108-.103-.171-.219a29 29 0 0 1-.276-.587zM14.813 17.72l.215.156.903.598c.054.002.368-.017.38-.008l.17.122c.119.085.104.508 0 .64l.056.194-.077.108c.031.084.045.076.018.174-.022.081.008.107.021.187.009.058.078.323.052.359s-.044.039-.079.013c-.101-.072-.18-.239-.279-.335-.123-.12-.298-.19-.416-.312s-.253-.199-.362-.321c-.092-.103-.143-.219-.3-.332l-.198-.148-.291-.18c-.156-.005-.439-.007-.558.166l-.191.047-.226.234-.122.17c-.096.134.224.277.346.365.04.029.086.184.195.295.145.147.178.111.248.286.041.103.519.461.656.559.053.141-.015.112-.024.222-.01.127.059.057-.05.24-.019.032-.124.449-.085.477.087.062.275.003.366-.013.24-.041.204.107.387.038l.055-.077c.122-.046.177.014.279-.122l.079-.019c.136.098.26.139.423.257.061.044.148.121.215.145.088.032.162-.015.207.017.154.111.18 1.274.245 1.321l.016.011c.02.014.638-.043.678-.098l.122-.17c.018-.025-.048-.4-.056-.467l-.026-.241c-.028-.166.023-.136.014-.247-.012-.144.017-.342.013-.492-.004-.174-.088-.358-.084-.476-.137-.098-.08-.136-.123-.252-.19-.136-.065-.179-.257-.366-.16-.156-.186-.244-.3-.359-.159-.159-.172-.189-.203-.375-.016-.094.024-.08-.012-.202-.021-.07.012-.147.072-.23l.022-.031c.049-.069.105-.07.166-.068.206.148.134.067.29.106.105.026.212.125.317.189l.32.206c.154.112.232.096.311.153.198.142.088.671.221.767.025.018.053.024.068.002.107-.149.009-.338.145-.528.109-.152.266-.176.325-.258l.111-.154c.064-.089-.008-.194.102-.371a1.6 1.6 0 0 0 .178-.397c.029-.116-.019-.253-.068-.356-.037-.077-.072-.066-.09-.162-.015-.079-.014-.11-.103-.174l-.015-.011c-.026-.018-.425.013-.469.047-.152.115-.298.175-.431.36-.039.055-.01.144-.038.183-.072.101-.253-.052-.36-.118-.189-.117-.253-.041-.375-.128l-.093-.066c-.185-.132.018-.357.093-.533.049-.115.026-.18.06-.268.037-.1.091-.17.096-.274.009-.181.111-.356.094-.533-.012-.127-.064-.39-.197-.485l-.062-.044c-.05-.036-.084.024-.21-.032-.086-.038-.12-.016-.204-.002-.142.023-.276.051-.388.207-.051-.002-.149-.02-.186.031l-.055.077c-.021.03-.017.082.002.095.057.041.146-.058.34.08l.015.011c.106.076.058.148.035.239-.017.065.005.161-.017.262-.031.141.034.094-.044.266-.066.147 0 .215-.035.265l-.022.031c-.025.035-.037.025-.075.04l-.525-.376-.262-.182-.135-.074c-.062-.028-.083.006-.127-.024-.02-.014-.252-.345-.262-.352-.123-.088-.48-.004-.608.027-.168.041-.517-.021-.598.091l-.011.015c-.054.075.207.258.283.348.091.11.215.243.363.349zm1.797 2.154c-.103-.074.093-.081-.055-.25l.044-.062c.026-.036.044-.039.079-.013.003.002.082.277.052.318l-.011.015c-.026.035-.044.039-.08.013l-.031-.022zM3.865 31.627l.065.024c.057.021.057-.008.115.013l.105.039c.052.019.294.183.373.231.062.038.076.109.133.146.07.046.145.063.195.117.182.198.567.28.867.419.403.186.436.226.582.549l.156.342c.067.149.187.2.214.315.201.075.056.14.262.217.016.023.113.178.103.203-.036.096-.285-.087-.421-.042-.11.036-.131-.007-.203.008s-.089.066-.194.027c-.025.018-.084.058-.121.044l-.039-.015c-.04-.015-.286-.533-.315-.606l-.049-.162c-.023-.09.03-.119.009-.189-.03-.099-.102-.248-.121-.325-.101-.038-.288-.129-.39-.116-.085.01-.037.054-.172.027-.074-.015-.1.025-.165.042-.119.031-.212.03-.322.103-.039.026-.258.171-.273.212l-.015.039c-.014.037.011.062.028.085.14.052.09.08.152.137.124.114.051.02.129.158.066.116.199.192.232.329.073.027.186.201.248.267.053.057.083.074.118.142.052.1.106.047.154.125a2 2 0 0 0 .255.264c.126.077.099.155.329.241l.039.015c.048.018.071.003.106-.005.046-.123.082-.319.195-.31.044.004.15.04.199.054s.121 0 .185.024c.101.037.155.102.247.137l.471.176c.109.041.506-.198.551-.317l.005-.013c.026-.07-.134-.216-.159-.264-.047-.089-.023-.046-.109-.113-.067-.052-.031-.084-.097-.129s-.084-.039-.117-.11-.062-.066-.121-.119c-.045-.04-.016-.057-.094-.12a.22.22 0 0 1-.081-.137c-.149-.056-.115-.087-.175-.17l-.065-.024c-.017-.024-.05-.067-.036-.103l.02-.052.17.063c.06.022.071.075.198.101.077.016.151.044.242.079l.476.163.026.01c.11.041.113.121.143.206.046.131-.032.175-.026.294.007.133.03.121-.01.287s.044.131-.017.29-.028.165-.025.294-.091.193-.064.312c.026.113-.008.166-.036.299-.018.084-.018.238-.041.301-.019.052-.155.06-.204.1-.042.034-.022.05-.083.081-.031.016-.088.026-.102.062l-.015.039a.08.08 0 0 0 .041.09l.039.015c.111.041.707-.176.729-.235l.088-.236c.107-.286.065-.493.183-.812-.065-.09-.01-.254.045-.401a.6.6 0 0 1-.009-.257c.06-.196-.038-.138.014-.278.014-.037.049-.039.076-.042l.281.085c.043-.01.128-.072.17-.056l.079.029c.06.023.06.067.142.098l.052.019c.058.022.138-.008.242.031l.013.005c.147.055.139.142.193.162.041.016.071-.048.208.003l.353.132c.04.015.06.102.084.136.155.058.263.137.377.11l.278.134c.039.02.077-.001.127.018s.023.058.001.108l.037.07c.032.004.035-.002.07.011.086.032.047.092.133.124l.026.01c.029.011.033 0 .062-.007.07-.188.16-.109.188-.184l.122-.327c.029-.078.017-.123-.032-.17-.044-.042-.073-.123-.107-.136l-.262-.098c-.048-.018-.08.043-.149.032-.044-.007-.111-.057-.177-.08l-.397-.133c-.129-.048-.259-.069-.376-.11-.224-.079-.224-.203-.262-.218l-.013-.005c-.052-.019-.071.048-.155.017l-.34-.127c-.059-.022-.062-.068-.142-.099-.059-.023-.119-.028-.202-.059l-.079-.029c-.084-.031-.09-.063-.174-.095l-.104-.043-.137-.032c-.056-.078-.03-.105.009-.221.035-.106.017-.143.016-.225-.002-.092.128-.404.174-.525.038-.1.041-.151.08-.254s.013-.139.015-.224.044-.157.048-.239c.003-.076-.047-.098.001-.229a2 2 0 0 1-.088-.155c-.023-.05-.026-.17-.055-.181-.061-.023-.141-.015-.179.013s-.023.044-.065.072c-.023.015-.05.019-.08.039l-.152.096a2 2 0 0 0-.118.171l-.024.065c-.04.107.056.1.068.219.009.082.021.152.003.249-.036.189-.121.388-.196.589.015.063.065.105.038.178l-.083.223c-.015.04-.058.038-.098.023l-.105-.039c-.07-.026-.206-.151-.303-.187l-.065-.024c-.143-.054-.338.087-.445.143-.123.064-.112.034-.215.077-.05.02-.068.007-.117.03-.068.032-.042.086-.101.064-.086-.032-.189-.294-.169-.347.034-.09.341-.051.478-.001.112-.026.215-.028.314-.073.06-.027.24-.132.266-.203l.049-.131c.058-.156-.013-.146.012-.288.016-.09-.014-.179-.027-.27a3 3 0 0 0-.079-.246 3 3 0 0 0-.224-.18c-.058-.021-.167.049-.19.108l-.068.183c-.058.157-.015.321-.04.388l-.034.092c-.029.078-.173.043-.248.052-.068.008-.067.016-.143-.003-.094-.024-.09.026-.138.008-.079-.029-.014-.151-.017-.22-.002-.042-.023-.054-.026-.108-.003-.062.027-.076.031-.133.005-.073-.04-.088-.023-.229.008-.067-.013-.149-.019-.23-.004-.049-.02-.052-.035-.093-.022-.059.009-.055-.008-.116l-.063-.21c-.038-.082-.139-.339-.23-.373l-.026-.01a1.5 1.5 0 0 0-.339.019c-.09.036-.177.125-.28.148-.037.008-.132-.022-.183-.021-.068.002-.092.033-.168.014-.084-.021-.321-.056-.344.007-.011.029 0 .033.008.058l.74.296c.058.08.098.098.153.202l.076.247.136.492-.005.013c-.011.029-.021.025-.046.043-.236-.088-.259-.106-.367-.256l-.083-.027-.132-.276c-.108-.04-.085-.045-.124-.117-.042-.078-.094-.048-.153-.104-.11-.107-.125-.137-.323-.211-.035-.048-.032-.101-.102-.127-.105-.039-.321.094-.392.166-.041.042-.338.192-.357.241l-.01.026c-.011.031.002.061.033.072z"/><path d="m9.962 34.915.013.005a.08.08 0 0 0 .09-.041l.01-.026c.018-.048-.056-.096-.106-.114l-.039-.015c-.021-.008-.042-.007-.049.012a.28.28 0 0 0 .082.18zm-.417-.245c.03.011.084.015.093-.01.007-.018-.008-.033-.03-.041l-.013-.005c-.035-.013-.039-.007-.07-.011-.011.038-.02.052.02.067m74.064 13.311-1.515-.079-2.134 1.27.03-.576 1.115-.649.624-.331-.612-.424-1.015-.748.029-.551 1.987 1.535 1.515.079-.025.473zm-.58 3.618-3.111-.549-.205 1.162-.416-.074.493-2.795.416.073L80 50.584l3.111.548zm-.495 2.472-3.504-.745.098-.463 3.504.745zm-2.236 3.289.101-.437q.266.054.465-.004c.199-.058.258-.124.376-.257a1.4 1.4 0 0 0 .271-.49 1.3 1.3 0 0 0 .072-.48.67.67 0 0 0-.115-.363.52.52 0 0 0-.26-.192.46.46 0 0 0-.31.003q-.15.054-.3.241-.097.12-.364.553c-.267.433-.319.485-.426.589a.97.97 0 0 1-.436.261.8.8 0 0 1-.463-.019.9.9 0 0 1-.434-.302.96.96 0 0 1-.202-.538 1.7 1.7 0 0 1 .087-.663 1.8 1.8 0 0 1 .34-.629 1 1 0 0 1 .503-.328 1.1 1.1 0 0 1 .591.007l-.108.443q-.335-.069-.565.078c-.23.147-.273.278-.358.54q-.133.409-.044.645c.089.236.16.259.3.304q.184.06.345-.034c.161-.094.262-.261.464-.601s.356-.567.462-.684q.234-.252.49-.327c.256-.075.348-.043.53.017a.97.97 0 0 1 .462.322q.19.234.229.569c.039.335-.001.456-.08.699q-.15.464-.387.731a1.14 1.14 0 0 1-.565.359q-.328.09-.673-.013zm-2.018 2.593-1.091-.463.443-1.043q.156-.368.378-.473a.53.53 0 0 1 .457-.006.6.6 0 0 1 .258.213.54.54 0 0 1 .089.34q-.01.195-.136.494zm1.657 1.218.185-.436-1.464-.622.215-.506a1.5 1.5 0 0 1 .118-.237.7.7 0 0 1 .173-.161 1.1 1.1 0 0 1 .314-.128 7 7 0 0 1 .588-.123l.871-.145.233-.549-1.141.193q-.337.06-.592.176a1.2 1.2 0 0 0-.276.194q.136-.502-.008-.832c-.144-.33-.26-.379-.495-.478a1 1 0 0 0-.556-.075.8.8 0 0 0-.469.234q-.186.192-.374.633l-.62 1.462 3.297 1.399zm-1.72 3.172-3.102-1.791 1.295-2.243.366.212-1.058 1.832.95.548.991-1.716.364.21-.991 1.716 1.056.61 1.1-1.905.366.212zm-1.404 2.191.279-.398-2.13-3.203-.277.396 1.576 2.285.37.495-.588-.183-2.665-.73-.295.421 3.73.918zm-1.539 2.087-2.823-2.205.292-.373 2.823 2.205zm-2.578 3.033.298-.343-2.124-1.847 3.359.427.319-.367-2.703-2.35-.298.343 2.122 1.845-3.357-.425-.319.367zm-3.611-1.538.341-.33 1.438 1.489q.375.388.508.702a1.04 1.04 0 0 1 .041.678q-.091.365-.463.724-.362.35-.713.447a1 1 0 0 1-.677-.044q-.326-.142-.722-.551L67.4 71.742l.341-.329 1.436 1.487q.324.335.54.434a.66.66 0 0 0 .451.038 1.03 1.03 0 0 0 .456-.273q.376-.363.371-.689c-.005-.326-.161-.486-.473-.809l-1.436-1.487zm-4.007 5.301.824-.599a1.5 1.5 0 0 0 .371-.353.54.54 0 0 0 .099-.338.6.6 0 0 0-.112-.316.53.53 0 0 0-.395-.23q-.246-.024-.568.21l-.917.666.697.959zm.793 1.897.383-.278-.935-1.287.445-.323q.149-.108.224-.142a.7.7 0 0 1 .231-.049 1 1 0 0 1 .335.053q.21.059.567.197l.822.325.482-.351-1.077-.423a2.5 2.5 0 0 0-.598-.154 1.2 1.2 0 0 0-.336.024q.375-.36.421-.717c.046-.357-.028-.459-.178-.665a1 1 0 0 0-.438-.35.8.8 0 0 0-.522-.041q-.259.069-.646.35l-1.285.933zm-3.144 1.879-1.845-3.07 2.22-1.334.218.362-1.814 1.09.565.94 1.699-1.021.216.36-1.698 1.021.628 1.045 1.885-1.133.218.362zm-3.973 1.828.438-.204-.465-2.794-.083-.425.28.333 1.837 2.154.414-.193-.623-3.661-.432.202.464 2.323.167.781a10 10 0 0 0-.788-1.031l-1.231-1.427-.518.242.405 2.48.133.669-.447-.601-1.486-1.897-.441.206 2.376 2.844zm-4.714-.293q.178.623.615.885c.437.262.606.214.943.117a1.14 1.14 0 0 0 .743-.604q.228-.458.038-1.122a1.8 1.8 0 0 0-.353-.693 1.14 1.14 0 0 0-.554-.368 1.2 1.2 0 0 0-.663.004 1.2 1.2 0 0 0-.738.572q-.253.433-.031 1.209m-.472.128q-.246-.858.075-1.474c.321-.616.564-.687 1.05-.826q.476-.136.925-.019c.449.117.554.235.766.468s.367.522.465.866q.15.525.058.998c-.092.473-.202.582-.419.798a1.8 1.8 0 0 1-.775.452 1.7 1.7 0 0 1-.936.014 1.57 1.57 0 0 1-.765-.475 2 2 0 0 1-.444-.803zm-2.782.486.91-.177q.45-.088.608-.292c.158-.204.137-.306.097-.509a.65.65 0 0 0-.185-.357.53.53 0 0 0-.334-.15 2 2 0 0 0-.44.053l-.9.175zm-.106 1.935-.683-3.516 1.326-.258q.35-.068.541-.07.267-.007.467.08a.9.9 0 0 1 .348.284q.15.198.2.459.087.449-.137.815c-.224.366-.474.414-.971.511l-.902.175.278 1.429-.465.09zm-2.562-.934.483.078q-.098.594-.457.934c-.359.34-.545.355-.917.387q-.577.05-.959-.152c-.382-.202-.458-.347-.609-.632a2.45 2.45 0 0 1-.272-.941q-.049-.557.128-.991a1.46 1.46 0 0 1 .551-.683 1.8 1.8 0 0 1 .846-.291q.535-.047.924.194c.389.241.451.401.576.722l-.455.15q-.158-.379-.41-.536a.96.96 0 0 0-.61-.126q-.41.036-.67.257a1.04 1.04 0 0 0-.341.564 2.1 2.1 0 0 0-.052.695 2.2 2.2 0 0 0 .202.784q.162.33.457.471a1.16 1.16 0 0 0 .621.115 1.02 1.02 0 0 0 .651-.287q.255-.254.313-.712m-4.023 1.483-.187-3.577.473-.025.188 3.577zm-3.32-2.193 1.015.089q.323.028.512-.023a.54.54 0 0 0 .296-.19.6.6 0 0 0 .123-.312.53.53 0 0 0-.147-.432q-.169-.18-.567-.214l-1.129-.099zm-.646 1.952.312-3.568 1.582.138q.477.042.717.16a.8.8 0 0 1 .367.374 1 1 0 0 1 .101.551q-.032.38-.302.618c-.27.238-.442.248-.788.265q.18.106.269.203a2.5 2.5 0 0 1 .351.509l.536 1.025-.594-.052-.407-.784-.298-.521a1 1 0 0 0-.219-.259.7.7 0 0 0-.207-.115 1.6 1.6 0 0 0-.262-.04l-.548-.048-.138 1.585zm-2.389-.227.385-3.136-1.171-.144.051-.42 2.818.346-.051.42-1.176-.144-.385 3.136zm-1.921-1.666.431.231q-.285.53-.736.735c-.451.205-.631.158-.993.068q-.562-.14-.857-.456c-.295-.316-.32-.477-.37-.796a2.4 2.4 0 0 1 .049-.978q.135-.543.443-.895a1.46 1.46 0 0 1 .744-.467 1.8 1.8 0 0 1 .894 0q.522.13.811.484c.289.354.296.526.309.87l-.479-.006q-.026-.41-.214-.64c-.188-.23-.302-.26-.535-.318a1.16 1.16 0 0 0-.717.025 1.04 1.04 0 0 0-.506.422 2.1 2.1 0 0 0-.276.64q-.11.444-.065.806c.045.362.124.44.279.595a1.16 1.16 0 0 0 .55.311q.386.096.709-.06c.323-.156.391-.295.528-.572zm-6.197-.521 1.107-3.407 2.463.8-.131.402-2.012-.654-.339 1.043 1.885.612-.13.4-1.885-.612-.377 1.159 2.092.68-.131.402zm-2.803-1.275 2.045.91.172-.386-1.611-.717 1.285-2.886-.434-.193zm-3.16-1.696 1.845-3.07 2.22 1.334-.217.362-1.814-1.09-.565.94 1.699 1.021-.216.36-1.698-1.02-.628 1.045 1.885 1.133-.218.362-2.291-1.377zm-2.286-3.313.97.731.298-1.017.245-.746a4.6 4.6 0 0 1-.566.43zm-1.71.553.402.303.967-.63 1.196.901-.319 1.118.432.325.985-3.743-.408-.307zm-2.743-2.202 2.302-2.744.372.312-.366 3.364 1.808-2.154.348.292-2.302 2.744-.372-.313.368-3.366-1.809 2.156zm-1.124-1.122 2.488-2.576.341.329-2.488 2.577-.341-.329zm-2.619-2.97.305.363 1.293-1.085 1.197 1.426-1.293 1.085.305.363 2.744-2.302-.305-.363-1.127.945-1.197-1.426 1.127-.946-.305-.363zm.147-1.768.182.454q-.56.222-1.036.09c-.476-.132-.585-.284-.804-.587q-.34-.468-.363-.9a1.47 1.47 0 0 1 .228-.848 2.4 2.4 0 0 1 .666-.718q.453-.329.915-.401a1.46 1.46 0 0 1 .87.121 1.8 1.8 0 0 1 .685.575q.316.435.31.892c-.006.457-.111.593-.323.865l-.363-.312q.243-.331.248-.628c.005-.297-.065-.393-.206-.587q-.243-.334-.565-.442a1.04 1.04 0 0 0-.659-.002 2.2 2.2 0 0 0-.622.313q-.37.269-.568.577c-.198.308-.188.417-.169.635a1.16 1.16 0 0 0 .222.591q.234.322.582.41c.348.088.49.025.772-.099zm-5.119-6.085 3.219-1.57.208.426-1.322.645.816 1.673 1.322-.645.208.427-3.219 1.57-.208-.427 1.517-.74-.816-1.673-1.517.74zM7.188 59.1l.162.445 2.969-1.081.405 1.114.397-.145-.971-2.668-.397.145.404 1.109-2.968 1.08zm.477-4.615.315.969q.1.308.221.462a.54.54 0 0 0 .291.199.6.6 0 0 0 .335-.009.53.53 0 0 0 .341-.305q.099-.225-.025-.605l-.35-1.078-1.127.366zm-2.049.168 3.407-1.107.491 1.51q.148.456.133.722a.8.8 0 0 1-.2.484 1 1 0 0 1-.468.308q-.362.118-.687-.037c-.325-.155-.401-.31-.552-.622a1.2 1.2 0 0 1-.081.327 2.5 2.5 0 0 1-.331.521l-.735.894-.184-.567.563-.681.363-.478a1 1 0 0 0 .153-.303.7.7 0 0 0 .024-.235 1.5 1.5 0 0 0-.066-.257l-.17-.523-1.512.492-.147-.451zm.818-4.157q-.631.146-.915.568c-.284.422-.246.594-.167.935a1.14 1.14 0 0 0 .564.774q.445.252 1.119.097a1.8 1.8 0 0 0 .71-.317 1.14 1.14 0 0 0 .396-.535 1.2 1.2 0 0 0 .031-.663q-.113-.492-.532-.766c-.419-.274-.681-.215-1.206-.094zm-.103-.478q.869-.2 1.468.152c.599.352.656.599.77 1.092q.111.484-.03.924a1.56 1.56 0 0 1-.508.741q-.367.3-.889.419a2.1 2.1 0 0 1-.999.006 1.5 1.5 0 0 1-.775-.461 1.8 1.8 0 0 1-.411-.798 1.7 1.7 0 0 1 .035-.936 1.57 1.57 0 0 1 .514-.739 2 2 0 0 1 .825-.401zM4.234 46.7l3.555-.437.059.483-2.562 2.21 2.791-.343.055.451-3.555.436-.059-.483 2.565-2.211-2.794.343-.055-.451z"/></g></g><path d="m83.609 47.981-1.515-.079-2.134 1.27.03-.576 1.115-.649.624-.331-.612-.424-1.015-.748.029-.551 1.987 1.535 1.515.079-.025.473zm-.58 3.618-3.111-.549-.205 1.162-.416-.074.493-2.795.416.073L80 50.584l3.111.548zm-.495 2.472-3.504-.745.098-.463 3.504.745zm-2.236 3.289.101-.437q.266.054.465-.004c.199-.058.258-.124.376-.257s.208-.296.271-.49a1.3 1.3 0 0 0 .072-.48.67.67 0 0 0-.115-.363.52.52 0 0 0-.26-.192.46.46 0 0 0-.31.003q-.15.054-.3.241-.097.12-.364.553c-.267.433-.319.485-.426.589a1 1 0 0 1-.436.261.8.8 0 0 1-.463-.019q-.257-.083-.434-.302c-.177-.219-.185-.326-.202-.538a1.7 1.7 0 0 1 .087-.663 1.8 1.8 0 0 1 .34-.629 1 1 0 0 1 .503-.328 1.1 1.1 0 0 1 .591.007l-.108.443q-.335-.069-.565.078c-.23.147-.273.278-.358.54q-.133.409-.044.645c.089.236.16.259.3.304q.184.06.345-.034c.161-.094.262-.261.464-.601s.356-.567.462-.684q.234-.252.49-.327c.256-.075.348-.043.53.017a.97.97 0 0 1 .462.322q.19.234.229.569c.039.335-.001.456-.08.699q-.15.464-.387.731a1.14 1.14 0 0 1-.565.359q-.328.09-.673-.013zm-2.018 2.593-1.091-.463.443-1.043q.156-.368.378-.473a.53.53 0 0 1 .457-.006.6.6 0 0 1 .258.213.54.54 0 0 1 .089.34q-.01.195-.136.494zm1.657 1.218.185-.436-1.464-.622.215-.506a1.5 1.5 0 0 1 .118-.237q.069-.09.173-.161c.104-.071.174-.09.314-.128a7 7 0 0 1 .588-.123l.871-.145.233-.549-1.141.193q-.337.06-.592.176a1.2 1.2 0 0 0-.276.194q.136-.502-.008-.832c-.144-.33-.26-.379-.495-.478a1 1 0 0 0-.556-.075.8.8 0 0 0-.469.234q-.186.192-.374.633l-.62 1.462 3.297 1.399zm-1.72 3.172-3.102-1.791 1.295-2.243.366.212-1.058 1.832.95.548.991-1.716.364.21-.991 1.716 1.056.61 1.1-1.905.366.212zm-1.404 2.191.279-.398-2.13-3.203-.277.396 1.576 2.285.37.495-.588-.183-2.665-.73-.295.421 3.73.918zm-1.539 2.087-2.823-2.205.292-.373 2.823 2.205zm-2.578 3.033.298-.343-2.124-1.847 3.359.427.319-.367-2.703-2.35-.298.343 2.122 1.845-3.357-.425-.319.367zm-3.611-1.538.341-.33 1.438 1.489q.375.388.508.702c.133.314.102.435.041.678s-.215.485-.463.724q-.362.35-.713.447c-.351.097-.46.051-.677-.044s-.458-.278-.722-.551L67.4 71.742l.341-.329 1.436 1.487q.324.335.54.434a.66.66 0 0 0 .451.038 1.03 1.03 0 0 0 .456-.273q.376-.363.371-.689c-.005-.326-.161-.486-.473-.809l-1.436-1.487zm-4.007 5.301.824-.599a1.5 1.5 0 0 0 .371-.353.54.54 0 0 0 .099-.338.6.6 0 0 0-.112-.316.53.53 0 0 0-.395-.23q-.246-.024-.568.21l-.917.666.697.959zm.793 1.897.383-.278-.935-1.287.445-.323q.149-.108.224-.142a.7.7 0 0 1 .231-.049 1 1 0 0 1 .335.053q.21.059.567.197l.822.325.482-.351-1.077-.423a2.5 2.5 0 0 0-.598-.154 1.2 1.2 0 0 0-.336.024q.375-.36.421-.717c.046-.357-.028-.459-.178-.665a1 1 0 0 0-.438-.35.8.8 0 0 0-.522-.041q-.259.069-.646.35l-1.285.933zm-3.144 1.879-1.845-3.07 2.22-1.334.218.362-1.814 1.09.565.94 1.699-1.021.216.36-1.698 1.021.628 1.045 1.885-1.133.218.362zm-3.973 1.828.438-.204-.465-2.794-.083-.425.28.333 1.837 2.154.414-.193-.623-3.661-.432.202.464 2.323.167.781a10 10 0 0 0-.788-1.031l-1.231-1.427-.518.242.405 2.48.133.669-.447-.601-1.486-1.897-.441.206 2.376 2.844zm-4.714-.293q.178.623.615.885c.437.262.606.214.943.117a1.14 1.14 0 0 0 .743-.604q.228-.458.038-1.122a1.8 1.8 0 0 0-.353-.693 1.14 1.14 0 0 0-.554-.368 1.2 1.2 0 0 0-.663.004 1.2 1.2 0 0 0-.738.572q-.253.433-.031 1.209zm-.472.128q-.246-.858.075-1.474c.321-.616.564-.687 1.05-.826q.476-.136.925-.019c.449.117.554.235.766.468a2.14 2.14 0 0 1 .465.866q.15.525.058.998c-.092.473-.202.582-.419.798a1.8 1.8 0 0 1-.775.452 1.7 1.7 0 0 1-.936.014 1.57 1.57 0 0 1-.765-.475 2 2 0 0 1-.444-.803zm-2.782.486.91-.177q.45-.088.608-.292c.158-.204.137-.306.097-.509a.65.65 0 0 0-.185-.357.53.53 0 0 0-.334-.15 2 2 0 0 0-.44.053l-.9.175zm-.106 1.935-.683-3.516 1.326-.258q.35-.068.541-.07.267-.007.467.08a.9.9 0 0 1 .348.284q.15.198.2.459.087.449-.137.815c-.224.366-.474.414-.971.511l-.902.175.278 1.429-.465.09zm-2.562-.934.483.078q-.098.594-.457.934c-.359.34-.545.355-.917.387q-.577.05-.959-.152c-.382-.202-.458-.347-.609-.632a2.45 2.45 0 0 1-.272-.941q-.049-.557.128-.991a1.46 1.46 0 0 1 .551-.683 1.8 1.8 0 0 1 .846-.291q.535-.047.924.194c.389.241.451.401.576.722l-.455.15q-.158-.379-.41-.536c-.252-.157-.37-.147-.61-.126q-.41.036-.67.257a1.04 1.04 0 0 0-.341.564 2.1 2.1 0 0 0-.052.695q.04.455.202.784c.162.329.261.376.457.471a1.16 1.16 0 0 0 .621.115 1.02 1.02 0 0 0 .651-.287q.255-.254.313-.712zm-4.023 1.483-.187-3.577.473-.025.188 3.577zm-3.32-2.193 1.015.089q.323.028.512-.023a.54.54 0 0 0 .296-.19.6.6 0 0 0 .123-.312q.022-.253-.147-.432c-.169-.179-.301-.191-.567-.214l-1.129-.099zm-.646 1.952.312-3.568 1.582.138q.477.042.717.16a.8.8 0 0 1 .367.374 1 1 0 0 1 .101.551q-.032.38-.302.618c-.27.238-.442.248-.788.265q.18.106.269.203a2.5 2.5 0 0 1 .351.509l.536 1.025-.594-.052-.407-.784-.298-.521a1 1 0 0 0-.219-.259.7.7 0 0 0-.207-.115 1.6 1.6 0 0 0-.262-.04l-.548-.048-.138 1.585zm-2.389-.227.385-3.136-1.171-.144.051-.42 2.818.346-.051.42-1.176-.144-.385 3.136zm-1.921-1.666.431.231q-.285.53-.736.735c-.451.205-.631.158-.993.068q-.562-.14-.857-.456c-.295-.316-.32-.477-.37-.796a2.4 2.4 0 0 1 .049-.978q.135-.543.443-.895c.308-.352.453-.391.744-.467a1.8 1.8 0 0 1 .894 0q.522.13.811.484c.289.354.296.526.309.87l-.479-.006q-.026-.41-.214-.64c-.188-.23-.302-.26-.535-.318a1.16 1.16 0 0 0-.717.025 1.04 1.04 0 0 0-.506.422 2.1 2.1 0 0 0-.276.64q-.11.444-.065.806c.045.362.124.44.279.595s.338.258.55.311q.386.096.709-.06c.323-.156.391-.295.528-.572zm-6.197-.521 1.107-3.407 2.463.8-.131.402-2.012-.654-.339 1.043 1.885.612-.13.4-1.885-.612-.377 1.159 2.092.68-.131.402zm-2.803-1.275 2.045.91.172-.386-1.611-.717 1.285-2.886-.434-.193zm-3.16-1.696 1.845-3.07 2.22 1.334-.217.362-1.814-1.09-.565.94 1.698 1.021-.216.36-1.698-1.02-.628 1.045 1.885 1.133-.218.362zm-2.286-3.313.97.731.298-1.017.245-.746a4.6 4.6 0 0 1-.566.43zm-1.71.553.402.303.967-.63 1.196.901-.319 1.118.432.325.985-3.743-.408-.307zm-2.743-2.202 2.302-2.744.372.312-.366 3.364 1.808-2.154.348.292-2.302 2.744-.372-.313.368-3.366-1.809 2.156zm-1.124-1.122 2.488-2.576.341.329-2.488 2.577-.341-.329zm-2.619-2.97.305.363 1.293-1.085 1.197 1.426-1.293 1.085.305.363 2.744-2.302-.305-.363-1.127.945-1.197-1.426 1.127-.946-.305-.363zm.147-1.768.182.454q-.56.222-1.036.09c-.476-.132-.585-.284-.804-.587q-.34-.468-.363-.9c-.023-.432.061-.571.228-.848s.389-.517.666-.718q.453-.329.915-.401c.462-.072.599-.008.87.121s.499.32.685.575q.316.435.31.892c-.006.457-.111.593-.323.865l-.363-.312q.243-.331.248-.628c.005-.297-.065-.393-.206-.587q-.243-.334-.565-.442c-.322-.108-.436-.073-.659-.002s-.431.174-.622.313q-.37.269-.568.577c-.198.308-.188.417-.169.635a1.16 1.16 0 0 0 .222.591q.234.322.582.41c.348.088.49.025.772-.099zm-5.119-6.085 3.219-1.57.208.426-1.322.645.816 1.673 1.322-.645.208.427-3.219 1.57-.208-.427 1.517-.74-.816-1.673-1.517.74zM7.188 59.1l.162.445 2.969-1.081.405 1.114.397-.145-.971-2.668-.397.145.404 1.109-2.968 1.08zm.477-4.615.315.969q.1.308.221.462a.54.54 0 0 0 .291.199.6.6 0 0 0 .335-.009.53.53 0 0 0 .341-.305q.099-.225-.025-.605l-.35-1.078-1.127.366zm-2.049.168 3.407-1.107.491 1.51q.148.456.133.722a.8.8 0 0 1-.2.484 1 1 0 0 1-.468.308q-.362.118-.687-.037c-.325-.155-.401-.31-.552-.622a1.2 1.2 0 0 1-.081.327 2.5 2.5 0 0 1-.331.521l-.735.894-.184-.567.563-.681.363-.478a1 1 0 0 0 .153-.303.7.7 0 0 0 .024-.235 1.5 1.5 0 0 0-.066-.257l-.17-.523-1.512.492-.147-.451zm.818-4.157q-.631.146-.915.568c-.284.422-.246.594-.167.935a1.14 1.14 0 0 0 .564.774q.445.252 1.119.097a1.8 1.8 0 0 0 .71-.317 1.14 1.14 0 0 0 .396-.535 1.2 1.2 0 0 0 .031-.663q-.113-.492-.532-.766c-.419-.274-.681-.215-1.206-.094zm-.103-.478q.869-.2 1.468.152c.599.352.656.599.77 1.092q.111.484-.03.924c-.141.44-.264.541-.508.741s-.541.339-.889.419q-.532.123-.999.006c-.467-.117-.57-.232-.775-.461a1.8 1.8 0 0 1-.411-.798 1.7 1.7 0 0 1 .035-.936 1.57 1.57 0 0 1 .514-.739 2 2 0 0 1 .825-.401zM4.234 46.7l3.555-.437.059.483-2.562 2.21 2.791-.343.055.451-3.555.436-.059-.483 2.565-2.211-2.794.343-.055-.451z" stroke="#1d2088" stroke-width=".216"/><path fill-rule="evenodd" d="M70.441 49.602h5.629V38.398h-5.629z" fill="#1d2088"/></svg>