<svg xmlns="http://www.w3.org/2000/svg" width="336" height="334.667" viewBox="0 0 252 251"><g fill="#29448A"><path d="M116.191 250.25c-7.656-.566-16.484-2.145-24.332-4.324-40.516-11.348-72.695-42.156-85.746-82.098-2.793-8.531-4.566-17.023-5.699-27.129-.527-4.512-.527-18.449-.035-22.172l.563-5.07c.113-1.277.266-2.555.379-2.82.074-.262.227-1.203.34-2.066.113-.902.641-3.605 1.207-6.012C7.242 78.98 15.129 62.637 27.84 46.594c3.395-4.246 13.695-14.617 18.184-18.262C54.852 21.117 66.547 14.055 76.77 9.77c8.789-3.719 22.219-7.441 31.121-8.641l5.734-.789c3.285-.453 21.09-.453 24.371 0 1.395.223 3.961.563 5.734.789s4.754.75 6.602 1.125l4.34.863c1.207.227 7.996 2.219 11.844 3.457 9.469 3.082 22.184 9.434 30.406 15.18 6.227 4.359 8.828 6.391 14.297 11.387 18.598 16.984 31.691 39.492 37.5 64.555.527 2.18 1.055 4.809 1.207 5.824l.375 2.254c.645 3.23 1.699 15.367 1.699 19.387 0 5.824-1.02 15.934-2.34 22.883-4.828 25.742-17.164 48.66-35.949 66.809-13.848 13.414-29.879 23.262-47.344 29.047-9.207 3.043-17.129 4.809-28.105 6.164-2.906.336-18.148.488-22.07.188zm21.539-3.008c26.484-2.629 51.156-13.527 71.074-31.449 26.293-23.637 41.195-58.73 40.027-94.238-.867-27.055-9.922-51.59-26.973-73.082-4.605-5.789-15.316-16.195-21.352-20.703C171.57 6.164 136.563-1.84 101.555 5.109c-32.973 6.539-62.02 26.566-80.051 55.125C12.184 75 6.113 91.984 3.734 109.945c-.906 6.988-1.133 21.078-.375 27.578 4.863 42.684 29.613 78.383 67.375 97.207 14.109 7.063 27.914 10.973 44.324 12.625 3.133.34 19.129.227 22.672-.113zm-20.484-9.355c-.562-.113-1.395-.527-1.809-.863-.754-.676-1.395-2.406-1.02-2.781.414-.414 1.586.227 1.961 1.051.754 1.691 3.133 1.316 4.074-.637.867-1.766.832-2.18-.074-1.691-1.473.75-3.434.449-4.602-.715-.906-.937-1.094-1.426-1.094-2.969s.188-2.066 1.094-3.043c.941-.977 1.355-1.164 2.867-1.164s1.961.188 3.055 1.277c1.207 1.203 1.281 1.426 1.281 3.793 0 5.488-2.187 8.457-5.734 7.742zm3.172-6.687c.414-.375.68-1.129.68-1.918 0-3.531-4.039-3.684-4.754-.187-.453 2.18 2.375 3.645 4.074 2.105zm0 0"/><path d="M128.641 237.098c0-1.539 1.094-3.309 2.641-4.359 2.453-1.652 3.773-3.004 3.773-3.871 0-1.09-1.32-2.289-2.453-2.289-.527 0-1.281.336-1.699.75s-.754 1.164-.754 1.691c0 .75-.187.938-.941.938-1.133 0-1.246-.937-.379-2.816.719-1.43 1.926-2.066 4-2.066 1.926 0 2.828.488 3.547 1.879 1.207 2.328.301 4.133-3.207 6.387-1.621 1.016-2.641 2.105-2.641 2.707 0 .074 1.547.074 3.395 0 3.168-.152 3.395-.113 3.395.563 0 .637-.34.789-2.301 1.016l-4.336.223c-1.812 0-2.039-.074-2.039-.75zm14.789-1.618c-1.172-1.238-1.246-2.668-.152-2.816.527-.074.832.074.832.414 0 .824 1.281 1.766 2.414 1.766 1.055 0 2.867-1.465 2.867-2.332 0-1.199-1.172-2.18-2.605-2.18-2.035 0-2.336-.937-.602-1.687 1.582-.641 1.848-1.203 1.355-2.559-.336-.824-.641-1.012-1.66-1.012-1.43 0-2.375.824-2.602 2.254-.074.676-.375.977-1.02 1.051-.867.152-.902.078-.676-1.426.113-.867.488-1.879.828-2.254.867-.941 3.547-1.656 4.715-1.203 1.961.75 3.055 3.082 2.074 4.469-.488.715-.488.828.418 1.391 2.148 1.43 1.961 4.773-.379 6.203-1.812 1.125-4.715 1.086-5.809-.078zm-39.688-.222c0-.379.34-2.367.754-4.359l.754-3.758c0-.074-.562-.266-1.207-.375-1.66-.379-1.809-.488-1.547-1.129.113-.34.68-.562 1.434-.562.867 0 1.473-.266 1.965-.863.676-.867 2.188-.98 1.883-.152-.074.262-.641 3.043-1.242 6.164-1.02 5.371-1.133 5.746-1.926 5.746-.602 0-.867-.223-.867-.711zm-27.047-8.492c-.68-.488-.832-1.055-1.059-5.035l-.527-5.711c-.227-1.168-.301-1.09-2.488 2.965-1.207 2.332-2.414 4.211-2.605 4.211-1.547-.039-1.395-.715 1.473-6.051l3.242-5.75c.191-.187.68-.074 1.211.266.867.563.941.824 1.207 5.973l.449 5.711c.113.152 1.207-1.578 2.453-3.867 2.113-3.945 3.055-4.926 3.547-3.648.188.492-5.469 11.5-5.887 11.5-.113 0-.562-.262-1.016-.562zm98.461-1.543c-1.285-.637-2.414-2.254-4.867-6.836-1.246-2.332-1.359-2.781-.906-3.082.301-.187.754-.375.945-.375.223 0 1.32 1.688 2.414 3.793 2.262 4.246 3.129 5.223 4.602 5.223 1.434 0 3.355-1.691 3.355-2.93 0-.527-1.016-2.855-2.262-5.187-2.187-4.168-2.227-4.281-1.473-4.695.453-.227.945-.262 1.094-.074.98 1.016 4.527 8.527 4.527 9.582 0 1.801-1.207 3.457-3.094 4.395-2 .941-2.715.977-4.336.188zm-111.402-5.785-.906-.676 1.207-1.844c.68-1.012 1.207-2.102 1.207-2.441 0-.562-.828-1.391-3.055-3.043l-1.395-.977-1.621 2.215c-1.398 1.879-1.699 2.145-2.34 1.844-.379-.227-.605-.641-.492-.902.152-.414 4.188-6.164 7.246-10.258.148-.187 5.543 3.871 6.375 4.773 1.168 1.313.941 3.305-.492 4.582-.68.602-1.547 1.09-1.922 1.09-.531 0-.645.227-.531.902.113.602-.113 1.352-.602 2.066-.453.602-1.02 1.617-1.285 2.254-.449 1.09-.488 1.09-1.395.414zm4.227-7.777c1.32-1.164.867-2.52-1.398-4.211-1.129-.824-2.148-1.539-2.262-1.539-.379 0-2.414 3.117-2.227 3.418.379.602 4.074 2.969 4.641 2.969.301 0 .867-.262 1.246-.637zm120.945-.227c-4-4.922-4-4.961-3.285-5.711s.758-.75 6.379 1.164l5.656 1.73c0-.078-1.395-1.805-3.055-3.91-2.828-3.457-3.02-3.793-2.453-4.359.719-.711.301-1.09 5.094 4.813 3.734 4.582 3.809 4.695 3.094 5.371-.719.715-.832.715-6.453-1.164l-5.73-1.918 1.055 1.391 2.602 3.27c2.641 3.23 2.605 3.121 2.074 3.758-.262.301-.562.563-.715.563-.113 0-2.039-2.254-4.262-4.996zM121.852 213.164c-18.676-.828-37.008-7.816-51.871-19.766-4.113-3.309-11.129-10.559-14.562-15.105-22.07-29.047-23.879-68.426-4.602-99.461 9.656-15.555 24.707-28.258 41.609-35.059 30.18-12.137 63.867-7.137 89.219 13.227 7.316 5.863 15.277 15.031 20.145 23.07 18.824 31.375 16.031 71.621-6.941 100.102-17.73 21.98-44.816 34.23-72.996 32.992zm16.785-2.895c10.676-1.73 19.129-4.547 27.992-9.242 24.332-12.926 40.93-36.75 44.855-64.441.828-5.902.828-16.496 0-22.582-3.926-28.711-21.543-53.207-47.383-65.832-13.922-6.801-27.387-9.469-43.57-8.645-26.559 1.316-51.645 15.707-66.699 38.254-1.434 2.18-3.883 6.5-5.395 9.582-4.488 9.242-6.941 17.359-8.297 27.617-.832 6.535-.566 18.223.602 24.797 5.582 31.375 27.539 56.852 57.719 66.996 5.809 1.918 12.184 3.27 19.996 4.172 2.902.34 16.938-.113 20.18-.676zm-21.313-3.644c-14.902-1.617-28.859-7.215-41.422-16.648-2.414-1.801-2.414-1.801 2.715-3.793 7.848-3.008 14.488-4.098 23.578-3.871 5.32.152 6.789.34 9.848 1.203 5.316 1.504 8.602 2.707 15.051 5.563 3.207 1.391 5.887 2.516 5.922 2.441.078-.074-.301-1.652-.828-3.531l-.98-3.422-2.945-1.352c-4.789-2.18-8.336-3.496-12.109-4.508-7.055-1.879-9.922-2.254-17.312-2.254-6.113 0-7.586.148-11.695 1.012-5.168 1.09-9.77 2.707-14.676 5.074-3.695 1.805-3.32 1.953-7.168-2.367l-2.68-2.969 1.813-1.129c5.016-3.117 13.543-6.387 20.297-7.777 4.789-.977 14.863-1.352 19.578-.75 5.168.676 11.73 2.703 19.766 6.086 2.379 1.016 4.379 1.766 4.414 1.73.191-.187-1.883-6.879-2.262-7.254-.34-.336-3.359-1.504-8.148-3.156-6.187-2.141-14.297-3.418-21.691-3.418-12.035.035-21.844 2.555-32.781 8.527-2.492 1.355-4.641 2.293-4.793 2.145-.793-.828-4.453-7.027-4.301-7.289.113-.152 1.508-1.055 3.133-1.992 7.469-4.359 15.73-7.441 24.52-9.094 4.527-.902 6.148-1.016 13.09-1.051 5.055 0 8.941.148 10.754.488 3.961.676 12.75 3.645 19.652 6.613 15.844 6.836 22.371 8.602 35.273 9.578 10.449.828 24.371-.977 34.668-4.434 1.133-.41 2.074-.637 2.074-.523 0 .336-2.789 4.809-4.789 7.664-2.301 3.27-2.113 3.195-9.168 4.586-12.297 2.441-25.086 2.215-36.367-.715-3.66-.941-9.957-3.156-12.035-4.211-.602-.301-1.129-.488-1.207-.41-.035.074.379 1.727.945 3.68l1.02 3.57 2.977 1.051c4.113 1.469 9.359 2.746 14.488 3.535 6.148.938 19.992.938 25.953-.039 2.34-.375 4.34-.602 4.453-.488.227.188-5.395 5.184-8.449 7.516l-1.965 1.504-9.164-.227c-9.582-.187-16.523-1.09-22.672-2.855-1.434-.453-2.68-.715-2.793-.641-.113.152 1.395 5.898 1.621 6.164.719.789 12.223 2.594 18.523 2.93 2.566.152 4.676.375 4.676.527 0 .375-7.203 3.57-11.164 4.922-4.301 1.465-9.77 2.816-14.336 3.57-4.488.676-16.449.977-20.898.488zm41.309-42.648-4.34-.562c-7.203-.941-12.711-2.668-22.445-6.988-12.07-5.414-17.543-7.215-26.219-8.645-5.395-.863-17.203-.863-22.445 0-10.414 1.766-20.184 5.375-29.051 10.746l-2.375 1.43-.453-.977c-.262-.527-.941-2.105-1.547-3.496l-1.055-2.555 1.207-.902c2.227-1.652 8.336-5.223 11.582-6.727 5.582-2.59 12.711-4.809 19.238-5.973 4.375-.754 19.578-.641 24.145.188 8.977 1.691 15.125 3.684 24.707 7.965 14.414 6.5 21.43 8.078 36.027 8.078 12.262 0 23.656-2.254 35.574-7.102 2-.824 3.66-1.426 3.66-1.391 0 .566-3.094 9.133-3.547 9.77-.375.641-1.961 1.316-5.961 2.594-11.09 3.57-16.258 4.434-27.273 4.586-4.562.074-8.789.035-9.43-.039zM45.309 139.742c-1.172-5.789-1.547-16.461-.793-23.074 2.227-19.312 11.09-36.973 25.313-50.312 12.297-11.496 26.484-18.449 43.723-21.34 6.074-1.016 17.73-1.09 23.766-.152 18.449 2.895 34.141 10.785 46.668 23.559 12.711 12.965 20.258 28.07 22.934 45.992 1.059 6.84.754 22.059-.488 25.402-.191.488-5.887-7.703-22.332-32.352l-22.07-33.027-8.562 8.527c-5.32 5.262-8.715 8.379-8.941 8.152-.301-.336-2.492-3.98-13.281-22.094-1.922-3.23-3.582-5.898-3.734-5.898-.187.039-1.809 2.781-12.863 21.492-2.148 3.645-4.113 6.652-4.301 6.691-.227 0-4.113-3.836-8.676-8.492-6.676-6.879-8.336-8.379-8.715-7.969-.227.266-4.867 6.766-10.223 14.395l-17.09 24.234-13.316 18.977-6.34 8.98c-.148.148-.449-.602-.676-1.691zm3.394 67.785-3.473-3.309 4.266-4.582c2.336-2.52 4.449-4.547 4.715-4.512.227.039 1.848 1.465 3.582 3.121 2.832 2.703 3.133 3.117 2.719 3.719-.453.602-.758.449-3.359-1.992l-2.867-2.668-1.281 1.391-1.32 1.391 2.676 2.441c2.418 2.219 2.641 2.52 2.078 2.969-.531.453-.945.227-3.207-1.805l-2.793-2.289c-.113 0-.754.711-1.434 1.578l-1.246 1.539 2.793 2.555c2.602 2.367 2.793 2.594 2.227 3.156-.566.602-.867.375-4.074-2.703zm155.008-9.132c-4.449-4.207-4.676-4.508-4.074-5.109.719-.715.379-.977 7.434 5.598 2.68 2.52 2.754 2.633 2.074 3.27-.68.676-.867.563-5.434-3.758zM39.082 197.305c-.602-.676-.453-.824 3.699-4.359l4.375-3.645-1.32-1.539c-1.473-1.73-1.547-1.879-.793-2.48.453-.375 1.168.301 3.961 3.609 3.055 3.645 3.359 4.094 2.828 4.621-.527.488-.754.375-2.035-1.09l-1.434-1.656-3.547 2.934-4.301 3.645c-.754.676-.793.676-1.434-.039zm172.664-8.227-6.523-1.957c0-.109.262-.488.527-.863.527-.676.754-.602 5.734.828l5.355 1.391c.078-.078-1.32-2.105-3.129-4.473-2.945-3.945-3.207-4.395-2.754-5.109.262-.453.602-.754.754-.715.301.113 7.848 10.859 7.848 11.16-.039.301-.984 1.539-1.172 1.504-.074 0-3.094-.789-6.641-1.766zm-179.191-.414c-1.547-.977-3.129-3.684-3.129-5.41 0-.977.301-1.73 1.094-2.594l1.055-1.203.492.863c.301.602.34.977.074 1.129-.227.148-.566.676-.793 1.238-.828 2.18 2.266 5.676 4.039 4.586.941-.602.98-2.141.113-4.473-1.246-3.27-1.059-4.734.754-5.637 2.227-1.164 3.887-.637 5.621 1.766 1.508 2.031 1.547 4.285.148 5.563-.789.789-1.016.828-1.281.375-.488-.75-.453-1.391 0-1.691.566-.336.453-2.555-.227-3.492-.867-1.242-1.809-1.652-2.941-1.203-1.207.449-1.207.977 0 4.586 1.133 3.344.941 4.543-.945 5.672-1.434.828-2.602.789-4.074-.074zm-6.903-10.559c-.414-.754-.301-1.016 1.055-2.367l1.547-1.504-1.168-2.254-1.133-2.254-1.996.223c-1.812.191-2 .113-2.418-.711-.227-.488-.262-.902-.113-.902s3.246-.262 6.867-.562c6.113-.488 6.641-.488 7.094.074.227.336.453.824.453 1.051 0 .188-2.191 2.555-4.867 5.223-4.68 4.66-4.867 4.809-5.32 3.984zm5.848-7.141 1.848-1.879-2.641.266-2.676.301c-.191.109 1.207 3.191 1.395 3.191.113 0 1.055-.824 2.074-1.879zm189.605 3.458c-3.02-1.391-5.508-2.703-5.586-2.93-.148-.453 3.621-8.418 3.961-8.418.152 0 .492.152.793.34.453.301.266.938-1.055 3.793l-1.473 3.531c.68.34 3.02 1.355 3.168 1.355.113 0 .793-1.316 1.512-2.895l1.469-3.043c.074-.074.492-.039.906.113.715.227.68.375-.754 3.457l-1.398 3.344 1.926.863 1.813.789 1.656-3.605c1.512-3.27 1.738-3.535 2.418-3.156.754.375.715.41-.191 2.441-1.547 3.492-3.168 6.574-3.469 6.574-.152-.035-2.719-1.164-5.695-2.555zm-201.261-9.395c-.414-.711-2.906-8.793-2.719-8.98.266-.262 11.242-3.867 11.809-3.867.266 0 1.094 1.953 1.852 4.355 1.168 3.645 1.32 4.398.867 4.699-.305.188-.645.336-.793.336-.113 0-.793-1.613-1.434-3.566s-1.285-3.57-1.395-3.57c-.832 0-3.133.938-3.133 1.277 0 .227.414 1.766.941 3.418.719 2.293.832 3.043.453 3.27-.828.527-1.129.074-2.113-3.082-.527-1.691-1.055-3.117-1.168-3.117-.754-.074-3.773.938-3.773 1.238 0 .227.492 1.918 1.094 3.758 1.059 3.23 1.059 3.422.418 3.758-.418.227-.793.262-.906.074zm208.617-7.812-6.148-1.805c-.266-.262 1.434-6.387 2.074-7.441 1.207-2.066 3.77-2.254 5.621-.449.566.563 1.207.863 1.547.715.301-.113 1.809-.113 3.281.035 2.715.266 2.754.266 2.453 1.242-.227.863-.418.977-1.738.824-4.035-.449-3.996-.449-4.754 2.031-.375 1.238-.641 2.48-.602 2.781.074.297 1.094.824 2.375 1.164 2.191.602 3.059 1.465 2.191 2.254-.152.148-3.02-.453-6.301-1.352zm.414-4.137c.867-3.305.602-4.246-1.246-4.809-1.207-.375-2 .527-2.754 3.23l-.715 2.52 1.734.563c.98.266 1.926.488 2.148.453.191-.039.566-.941.832-1.957zm-213.406-2.367c0-.187-.113-.598-.227-.898-.152-.453.375-.68 2.449-1.016 1.434-.262 2.793-.602 2.98-.715.305-.187-.488-5.824-.867-6.352-.035-.035-1.32.152-2.789.492-2.945.598-3.434.523-3.434-.566 0-.75.227-.824 8.035-2.293 3.809-.711 4.527-.75 4.828-.297.68 1.051.301 1.352-2.152 1.766l-2.602.523c-.074.078.152 1.543.453 3.234l.566 3.156 1.207-.227c4.336-.789 4.375-.754 4.375.262 0 .902-.152.941-6.187 2.105-6.977 1.316-6.637 1.277-6.637.824zm219.254-12.473c.074-.527.566-.941 1.434-1.242 1.055-.336 1.434-.711 1.809-1.875.605-1.879.266-3.457-.867-4.211-1.281-.824-2.223-.187-3.055 1.992-1.359 3.719-1.621 4.207-2.602 4.848-.945.602-1.172.602-2.605.113-3.168-1.09-3.809-5.488-1.168-8.117 1.586-1.578 3.207-1.73 3.207-.301 0 .676-.187.938-.754.938-2.152 0-3.207 4.246-1.359 5.449 1.434.941 2.262.266 3.207-2.781 1.055-3.344 2.488-4.734 4.527-4.355 1.695.301 2.262.789 2.941 2.328 1.473 3.531-.641 8.004-3.734 8.004-.906 0-1.094-.152-.98-.789zM24.52 135.195c0-.676-.113-1.652-.262-2.145l-.227-.898-5.094.301-5.582.449c-.379.148-.527-.152-.527-.941v-1.125l5.016-.262c6.715-.34 6.414-.191 6.074-2.668-.227-1.992-.227-2.031.715-2.031h.945l.301 5 .301 5.145c.039.113-.34.227-.793.301-.754.113-.867-.035-.867-1.125zm-12.071-12.812v-1.391h2.414c1.473 0 2.566-.187 2.793-.453.188-.262.488-1.613.641-2.969l.262-2.48-1.77-.262-2.906-.227c-.98 0-1.094-.109-.832-.824a5.21 5.21 0 0 1 .34-.977c.078-.078 2.605.035 5.586.262l6.262.414c.715 0 .793.227.754 2.18-.074 5.785-1.094 7.965-3.734 7.965-.867 0-1.812-.301-2.414-.789-.754-.602-1.133-.715-1.473-.375-.227.227-1.434.414-2.715.414s-2.492.188-2.754.449c-.34.34-.453.152-.453-.937zm11.09-1.469c.305-.488.605-1.875.641-3.117l.113-2.254-1.695-.262c-2.492-.453-2.605-.34-2.605 2.855 0 2.289.113 2.891.68 3.191 1.094.641 2.301.453 2.867-.414zm203.184-1.875c0-1.09.453-1.168 8.602-1.656l4.227-.262v.938c0 1.055.492.941-9.316 1.656l-3.512.262zm-.868-9.019c-1.094-4.695-1.773-9.094-1.469-9.395.793-.789 1.469 0 1.734 1.918.152 1.125.453 1.914.715 1.914s2.719-.449 5.473-1.012c4.262-.828 5.094-.902 5.395-.453.715 1.164.227 1.391-5.168 2.406l-5.508 1.012.262 2.219c.227 2.066.191 2.219-.488 2.219-.453 0-.832-.301-.945-.828zM19.617 109.305c-1.699-.527-3.66-1.992-4.566-3.492-1.508-2.48-.301-6.766 2.34-8.305 1.773-1.016 4.941-.941 7.281.148 3.359 1.652 4.453 5.109 2.68 8.793-1.172 2.48-4.68 3.758-7.734 2.855zm4.789-2.254c1.059-.375 2-2.18 2-3.832 0-1.504-1.055-3.043-2.715-3.871-1.32-.676-4.414-.789-5.547-.187-1.094.602-1.922 2.367-1.922 4.094 0 1.242.227 1.691 1.32 2.668.754.641 1.695 1.242 2.188 1.316l1.582.34c.758.188 1.625.035 3.094-.527zm-.449-13.34-6-2.102c-.187-.078-.227-.566-.113-1.09.227-.867.641-1.055 5.621-2.219l5.695-1.504c.191-.148-1.66-.937-4.109-1.766s-4.492-1.613-4.566-1.84c-.039-.187.074-.602.266-.902.301-.488 1.242-.262 6.41 1.504 5.926 2.027 6.074 2.102 5.848 3.004-.148.527-.301 1.016-.375 1.09s-2.641.715-5.734 1.43l-5.695 1.391c-.078.074 1.996.863 4.602 1.727l4.754 1.84c0 .152-.227.527-.453.867-.453.523-1.133.336-6.148-1.43zm198.016.039c-.191-.754.113-1.391 1.395-3.043 2.98-3.758 2.98-3.383.074-3.871-4.375-.754-4.562-.789-4.789-1.652-.113-.414-.113-.867-.039-.977.113-.078 2.074.223 4.375.676l4.188.824 2.453-.824c2.074-.754 2.492-.789 2.754-.34.566.902.301 1.164-2.227 2.18-2.187.902-2.527 1.238-4.863 4.473l-2.793 3.492c-.152 0-.379-.414-.527-.937zM61.492 54.785c0-.266.148-1.09.34-1.805l.301-1.352-4.074-2.52c-2.227-1.391-4.34-2.516-4.68-2.516-.902 0-.527-1.277.418-1.43.449-.074 1.129.188 1.508.566.828.863 4.035 3.117 4.375 3.117.379 0 1.961-5.223 1.699-5.523-.152-.113-.605.074-1.02.449s-.98.566-1.359.414c-.527-.187-.527-.375.191-1.578.902-1.539.676-2.402-.379-1.426-.492.449-.715 1.164-.715 2.402 0 1.73-.492 2.633-1.398 2.633-1.094 0-.227-3.496 1.398-5.523.715-.902.715-1.016.109-2.031-.828-1.391-1.055-1.352-1.508.152-.301 1.09-.488 1.199-1.621 1.09-.719-.039-1.434-.227-1.586-.379s.34-1.164 1.094-2.215l1.359-1.953-1.02-1.691c-.527-.902-1.508-2.105-2.187-2.633l-1.207-.937.906-.34c1.168-.449 1.586-.109 2.941 2.258.906 1.613 1.133 1.801 2.039 1.578 1.547-.301 2.074.188 1.016.977l-.867.676.719 1.539c.793 1.766.828 1.805 1.582.902.492-.602.531-.562.34.563-.187 1.016 0 1.543.98 2.746 1.246 1.539 2.566 1.953 2.566.824 0-1.578-1.207-5.598-1.773-6.051-.98-.711-.035-1.465 1.133-.937.68.34.98.902 1.32 2.855.266 1.316.453 3.043.453 3.797v1.387l2.188-.262c3.207-.375 3.547-.449 4.828-1.125 1.133-.641 2.414-.527 2.414.148 0 .188-.414.789-.941 1.352-.719.789-1.172.977-1.812.754l-1.02-.227c-4.488-.039-5.656.113-6.035.789-.301.602-.148 1.016.867 2.219 4.527 5.598 4.906 6.16 4.379 6.5-.305.188-.867.223-1.285.109s-1.32-.297-1.961-.41c-1.281-.187-1.734-.867-.566-.867 1.66-.035 1.699-.598.152-2.59-1.734-2.18-2-2.066-2.488 1.09-.305 2.066-1.359 4.883-1.773 4.883-.191 0-.34-.227-.34-.449zm1.281-6.766c.34-2.516.34-2.328-.113-2.48-.266-.074-.414.414-.414 1.168a4.38 4.38 0 0 1-.754 2.254c-.719.902-.719.977-.113 1.09 1.016.262 1.129.113 1.395-2.031zm121.926 6.501c-.379-.41-.566-.898-.453-1.125.152-.227.074-.754-.148-1.164-.531-.977.074-.977.941 0 .379.41.793.75.941.75.418 0 3.398-2.668 3.398-3.043 0-.187-.566-.34-1.285-.34-.98 0-1.508-.262-2.113-1.012-.828-1.055-.488-2.105.453-1.355.266.227 1.246.602 2.152.867 1.508.375 1.734.375 2.188-.227.715-.977.602-1.277-.414-1.277-1.207 0-1.586-.602-.719-1.09.527-.301.605-.453.227-.828-.602-.602-.641-1.84-.039-1.84.871 0 4.453 1.914 4.832 2.594.414.789-.453 1.914-.945 1.164-.453-.715-.828-.375-.641.563.113.676-.039 1.129-.527 1.465-.641.488-.605.563.715 1.129 1.512.602 2.68 2.555 2.453 4.133-.187 1.426-1.207.902-1.773-.977-.453-1.43-.754-1.844-1.695-2.18-1.098-.414-1.246-.34-2.68 1.238-1.32 1.43-3.586 3.27-4.035 3.27-.113 0-.492-.336-.832-.715zm15.356-6.875c-.68-.414-1.246-.902-1.246-1.051 0-.187-.641-.527-1.395-.789l-1.434-.488 1.129-.227c.645-.113 1.926-.113 2.906 0 1.168.148 1.848.074 1.961-.187.113-.301-.793-.602-2.527-.863-1.66-.227-2.793-.602-2.98-.977-.187-.301-.941-.68-1.734-.789-.754-.152-1.812-.453-2.301-.68-.719-.336-.945-.301-1.359.227-.68.902-.941.789-.941-.449 0-.602-.227-1.164-.566-1.316-.301-.113-.566-.488-.566-.828 0-.449.227-.562.906-.375.793.188.941.039 1.434-1.727.301-1.055.754-2.031.98-2.105.793-.262.98 1.09.301 2.18-.715 1.277-.793 2.629-.113 2.629.492 0 2.527-3.758 2.527-4.695 0-.863.832-1.09 1.359-.375.453.602.453.824-.039 1.578-.68.977-.602 1.012.754.414.531-.227.906-.641.793-.902-.262-.676.754-1.465 1.133-.867.188.34.414.266.754-.187.266-.375.641-.562.867-.41.605.336.492 2.289-.148 2.816-.305.227-.531.563-.492.676.152.563-.566 2.18-1.32 2.969-.98 1.09-.68 1.391 1.055 1.09 1.172-.227 1.32-.375 1.094-1.051-.223-.715-.113-.789 1.207-.566 1.02.188 1.625.078 2.078-.336.641-.562.602-.641-.34-1.465-.793-.68-.906-.977-.566-1.355.34-.336.793-.187 2.074.676.906.602 1.621 1.316 1.621 1.617s-1.434 1.242-3.207 2.105c-1.961.977-2.867 1.613-2.375 1.613.906.039 2.375 1.656 2.375 2.633 0 .563-1.848 2.703-2.301 2.629-.074 0-.715-.375-1.355-.789zm-4.266-7.816c0-1.352.906-1.539 1.547-.301l.453.828.68-.863c1.055-1.316.605-1.879-1.281-1.504l-1.812.34c-.375 0-1.133 1.914-.906 2.289.531.789 1.32.301 1.32-.789zm0 0"/><path d="M183.945 40.656c-.187-.301.527-1.09 2.715-2.855.832-.715.832-.715.832.074 0 1.652-2.867 3.871-3.547 2.781zm18.524-1.09c-.152-.113-.266-.449-.266-.75 0-.414.152-.414.754-.039.418.262.754.602.754.75 0 .379-.902.379-1.242.039zm-44.516-7.14c-.152-.113-.266-.789-.266-1.426 0-1.164-2.262-4.699-2.98-4.699-.187 0-.414-.262-.566-.562-.148-.414.078-.562.793-.562 1.285 0 3.547 2.367 4.152 4.281.602 1.957-.152 3.945-1.133 2.969zM97.18 30.547c-.113-.148.453-.898 1.32-1.687 1.547-1.391 1.66-2.18.34-2.18-1.094 0-1.133-.867-.078-1.73 1.094-.902.945-1.914-.566-3.305-.527-.488-.828-1.09-.715-1.316.414-.641 1.922-.488 2.867.262.828.676.98 1.203 1.094 3.945.039.902.227 1.391.566 1.391.262 0 .68.227.906.488.301.34 0 .977-1.094 2.445-1.359 1.766-1.66 1.953-2.945 1.953-.793 0-1.547-.113-1.695-.266zM115.926 27.281c-1.77-1.469-2.602-1.77-3.695-1.355-1.395.527-1.926.488-2.641-.223-.906-.902-.187-1.391 2.148-1.391 3.094 0 5.094.676 5.773 2.027.98 1.879.152 2.406-1.586.941zm-8.375-.301c-.148-.488-.527-2.82-.789-5.187l-.793-5.184c-.453-1.203.602-1.578 1.621-.527.68.641.793 1.352.906 5.184l.266 5.375c.113 1.203-.793 1.465-1.211.34zm38.82.489c0-.227.793-.754 1.813-1.168l2.641-1.352.867-.562-.98-.941c-.645-.562-.945-1.199-.867-1.766.074-.676.301-.789 1.355-.715.68.078 1.734.039 2.34-.109.941-.227 1.133-.414 1.133-1.355 0-1.277.828-1.801 1.695-1.09.754.602.527 4.586-.227 4.848-.301.074-1.242.789-2.074 1.578-.867.754-2.074 1.656-2.641 1.953-1.395.68-5.055 1.168-5.055.68zm-36.969-7.781c-.418-.449-.418-.676.035-1.09.379-.375 1.02-.449 2.379-.262 2.148.301 2.527.828 1.094 1.504-1.395.637-2.941.563-3.508-.152zm0 0"/></g><g fill="#FEFEFE"><path d="M116.191 250.66c0-.223 2.527-.301 6.527-.187 3.547.113 8.375.078 10.676-.113 3.32-.262 4.188-.223 4.035.152-.227.602-21.238.715-21.238.148zm-9.054-.789c0-.223-1.016-.375-2.262-.375s-2.266-.148-2.266-.375c0-.187-.828-.375-1.887-.375-1.016 0-1.883-.152-1.883-.375 0-.187-.492-.379-1.133-.379-.605 0-1.133-.148-1.133-.375 0-.449-.566-.523 4.715.527l8.227 1.352 3.656.602c0 .074-1.355.152-3.016.152-1.773 0-3.02-.152-3.02-.379zm35.5-.375c9.09-1.391 15.691-2.93 23.73-5.598 23.727-7.891 45.078-23.41 60.695-44.152 10.867-14.391 18.184-30.848 22.297-50.012.941-4.32 1.055-4.656 1.094-2.891.039 1.051-.113 1.953-.34 1.953-.187 0-.375.863-.375 1.879 0 1.051-.152 1.879-.379 1.879-.187 0-.379.863-.379 1.879 0 1.051-.148 1.879-.375 1.879-.187 0-.379.523-.379 1.125 0 .641-.148 1.129-.375 1.129-.191 0-.379.676-.379 1.504s-.152 1.5-.375 1.5c-.191 0-.379.527-.379 1.129 0 .637-.152 1.129-.379 1.129-.187 0-.375.523-.375 1.125 0 .641-.152 1.129-.379 1.129-.187 0-.375.523-.375 1.125 0 .641-.152 1.129-.379 1.129-.187 0-.375.527-.375 1.125 0 .641-.152 1.129-.379 1.129-.187 0-.379.34-.379.75s-.148.754-.375.754c-.191 0-.379.523-.379 1.125 0 .641-.148 1.129-.375 1.129-.191 0-.379.336-.379.75s-.152.754-.379.754c-.187 0-.375.523-.375 1.125 0 .641-.152 1.129-.379 1.129-.187 0-.375.336-.375.75s-.152.754-.379.754c-.187 0-.375.336-.375.75s-.152.75-.379.75c-.187 0-.379.34-.379.754s-.148.75-.375.75c-.187 0-.379.34-.379.754s-.148.75-.375.75c-.191 0-.379.336-.379.75s-.148.754-.375.754c-.191 0-.379.301-.379.676s-.34.902-.754 1.203-.754.824-.754 1.199-.152.68-.379.68c-.187 0-.375.336-.375.75s-.152.75-.379.75c-.187 0-.379.301-.379.676s-.34.902-.754 1.203-.754.789-.754 1.129-.34.824-.754 1.125-.754.789-.754 1.129-.34.828-.754 1.129-.754.789-.754 1.051-.68 1.164-1.512 1.953-1.508 1.691-1.508 1.953-.34.754-.754 1.055-.754.75-.754 1.051c0 .262-.832 1.316-1.887 2.328-1.02 1.016-1.887 2.031-1.887 2.219 0 .527-9.32 9.809-9.848 9.809-.187 0-1.207.863-2.227 1.875-1.016 1.055-2.035 1.879-2.262 1.879s-1.246.867-2.262 1.879c-1.02 1.055-2.078 1.879-2.34 1.879-.301 0-.754.34-1.059.754s-.789.75-1.055.75c-.301 0-1.02.527-1.586 1.129-.562.637-1.32 1.125-1.66 1.125s-.602.188-.602.375c0 .227-.301.379-.68.379s-.906.336-1.207.75-.793.75-1.133.75-.828.34-1.129.754-.832.75-1.207.75-.68.188-.68.375c0 .227-.34.379-.754.379s-.758.188-.758.375c0 .223-.336.375-.754.375s-.754.188-.754.375c0 .227-.301.375-.68.375s-.902.34-1.207.754-.828.75-1.207.75-.68.188-.68.375c0 .227-.34.375-.754.375s-.754.191-.754.379c0 .223-.34.375-.754.375s-.754.188-.754.375c0 .227-.492.375-1.133.375-.602 0-1.133.188-1.133.375 0 .227-.34.379-.754.379s-.754.188-.754.375c0 .227-.34.375-.754.375s-.754.188-.754.375c0 .227-.492.375-1.133.375-.605 0-1.133.188-1.133.379 0 .223-.488.375-1.129.375-.605 0-1.133.188-1.133.375 0 .227-.34.375-.754.375s-.754.188-.754.375c0 .227-.492.379-1.133.379-.605 0-1.133.188-1.133.375 0 .223-.488.375-1.133.375-.602 0-1.129.188-1.129.375 0 .227-.492.375-1.133.375-.605 0-1.133.188-1.133.379 0 .223-.68.375-1.508.375s-1.508.188-1.508.375c0 .227-.832.375-1.887.375-1.02 0-1.887.188-1.887.375 0 .227-.492.375-1.133.375-.602 0-1.133.191-1.133.379 0 .223-1.016.375-2.262.375s-2.266.148-2.266.375-.828.375-1.883.375c-1.02 0-1.887.188-1.887.375 0 .227-1.32.379-3.281.34l-3.32-.039zm-27.578-2.141c-19.426-1.953-36.59-7.555-52.625-17.133-30.707-18.34-51.945-49.375-57.906-84.434-1.281-7.664-1.621-12.023-1.586-21.039 0-9.957.754-16.871 2.754-26.078 1.32-6.125 4.793-16.684 7.32-22.395C35.5 25.438 88.691-3.984 143.73 3.984c20.559 2.969 39.535 10.934 56.777 23.785 6.035 4.508 16.746 14.914 21.352 20.703 25.461 32.086 33.422 72.707 21.992 111.785-6.035 20.516-19.051 41.145-35.047 55.535-19.918 17.922-44.59 28.82-71.074 31.449-3.543.34-19.539.453-22.672.113zm6.262-10.859c1.133-1.391 1.66-3.383 1.66-6.352 0-2.367-.074-2.59-1.281-3.793-1.094-1.09-1.547-1.277-3.055-1.277s-1.926.188-2.867 1.164c-.906.977-1.094 1.504-1.094 3.043s.188 2.031 1.094 2.969c1.168 1.164 3.129 1.465 4.602.715.906-.488.941-.074.074 1.691-.941 1.953-3.32 2.328-4.074.637-.375-.824-1.547-1.465-1.961-1.051-.113.113-.074.637.039 1.164.715 2.781 4.941 3.457 6.863 1.09zm13.695 1.129c1.961-.227 2.301-.379 2.301-1.016 0-.676-.227-.715-3.395-.562-1.848.074-3.395.074-3.395 0 0-.602 1.02-1.691 2.641-2.707 3.508-2.254 4.414-4.059 3.207-6.387-.719-1.391-1.621-1.879-3.547-1.879-2.074 0-3.281.637-4 2.066-.867 1.879-.754 2.816.379 2.816.754 0 .941-.187.941-.937 0-1.203 1.246-2.441 2.453-2.441 1.133 0 2.453 1.199 2.453 2.289 0 .867-1.32 2.219-3.773 3.871-1.547 1.051-2.641 2.82-2.641 4.359 0 .676.227.75 2.039.75 1.094 0 3.055-.113 4.336-.223zm14.223-2.066c2.34-1.43 2.527-4.773.379-6.203-.906-.562-.906-.676-.418-1.391.98-1.387-.113-3.719-2.074-4.469-1.168-.453-3.848.262-4.715 1.203-.34.375-.715 1.387-.828 2.254-.227 1.504-.191 1.578.676 1.426.645-.074.945-.375 1.02-1.051.227-1.43 1.172-2.254 2.602-2.254 1.02 0 1.324.188 1.66 1.012.492 1.355.227 1.918-1.355 2.559-1.734.75-1.434 1.688.602 1.688 1.434 0 2.605.98 2.605 2.18 0 .867-1.812 2.332-2.867 2.332-1.133 0-2.414-.941-2.414-1.766 0-.34-.305-.488-.832-.414-1.094.148-1.02 1.578.152 2.816 1.094 1.164 3.996 1.203 5.809.078zm-42.703-5.336 1.242-6.164c.305-.828-1.207-.715-1.883.152-.492.598-1.098.863-1.965.863-.754 0-1.32.223-1.434.563-.262.641-.113.75 1.547 1.129.645.109 1.207.301 1.207.375 0 .035-.34 1.766-.754 3.758-.98 4.695-.98 5.07.113 5.07.793 0 .906-.375 1.926-5.746zm-25.691-8.379c1.621-3.008 2.867-5.715 2.754-6.016-.492-1.277-1.434-.297-3.547 3.648-1.246 2.289-2.34 4.02-2.453 3.867-.113-.187-.301-2.742-.449-5.711-.266-5.148-.34-5.41-1.207-5.973-.531-.34-1.02-.453-1.211-.266s-1.621 2.781-3.242 5.75c-2.867 5.336-3.02 6.012-1.473 6.051.191 0 1.398-1.879 2.605-4.211 2.188-4.055 2.262-4.133 2.488-2.965.152.676.379 3.266.527 5.711.227 3.98.379 4.547 1.059 5.035.453.301.902.563 1.016.563s1.512-2.48 3.133-5.484zm98.648 3.191c1.887-.937 3.094-2.594 3.094-4.395 0-1.055-3.547-8.566-4.527-9.582-.148-.187-.641-.152-1.094.074-.754.414-.715.527 1.473 4.695 1.246 2.332 2.262 4.66 2.262 5.188 0 1.238-1.922 2.93-3.355 2.93-1.473 0-2.34-.977-4.602-5.223-1.094-2.105-2.191-3.793-2.414-3.793-.191 0-.645.188-.945.375-.453.301-.34.75.906 3.082 2.453 4.582 3.582 6.199 4.867 6.836 1.621.789 2.336.754 4.336-.187zM66.434 216.77c.488-.715.715-1.465.602-2.066-.113-.676 0-.902.531-.902.375 0 1.242-.488 1.922-1.09 1.434-1.277 1.66-3.27.492-4.582-.832-.902-6.227-4.961-6.375-4.773-3.059 4.094-7.094 9.844-7.246 10.258-.113.262.113.676.492.902.641.301.941.035 2.34-1.844l1.621-2.215 1.395.977c2.227 1.652 3.055 2.48 3.055 3.043 0 .34-.527 1.43-1.207 2.441l-1.207 1.844.906.676c.906.676.945.676 1.395-.414.266-.637.832-1.652 1.285-2.254zm127.469-.902c.531-.637.566-.527-2.074-3.758a80.894 80.894 0 0 1-2.602-3.27l-1.055-1.391 5.73 1.918c5.621 1.879 5.734 1.879 6.453 1.164.715-.676.641-.789-3.094-5.371-4.793-5.902-4.375-5.523-5.094-4.812-.566.566-.375.902 2.453 4.359l3.055 3.91c0 .074-2.527-.715-5.656-1.73-5.621-1.914-5.66-1.914-6.379-1.164s-.715.789 3.285 5.711c2.223 2.742 4.148 4.996 4.262 4.996.152 0 .453-.262.715-.562zm-56.812-3.418c22.711-2.82 43.27-14.316 57.758-32.277 11.883-14.73 18.523-32.504 19.277-51.59 1.395-34.719-17.996-67.035-49.457-82.363-29.352-14.316-64.434-11.273-90.727 7.852-27.617 20.102-41.121 53.809-34.934 87.25 3.242 17.32 11.051 32.313 23.613 45.203 4.98 5.109 8.641 8.152 14.527 12.059 17.539 11.648 38.629 16.535 59.941 13.867zm-86.539-5.375-2.793-2.555 1.246-1.539c.68-.867 1.32-1.578 1.434-1.578.074 0 1.359 1.051 2.793 2.289 2.262 2.031 2.676 2.258 3.207 1.805.563-.449.34-.75-2.078-2.969l-2.676-2.441 1.32-1.391 1.281-1.391 2.867 2.668c2.602 2.441 2.906 2.594 3.359 1.992.414-.602.113-1.016-2.719-3.719-1.734-1.656-3.355-3.082-3.582-3.121-.266-.035-2.379 1.992-4.715 4.512l-4.266 4.582 3.473 3.309c3.207 3.078 3.508 3.305 4.074 2.703.566-.562.375-.789-2.227-3.156zm156.52-8.191c-7.055-6.574-6.715-6.312-7.434-5.598-.602.602-.375.902 4.074 5.109 4.566 4.32 4.754 4.434 5.434 3.758.68-.637.605-.75-2.074-3.27zM44.818 193.7l3.547-2.934 1.434 1.656c1.281 1.465 1.508 1.578 2.035 1.09.531-.527.227-.977-2.828-4.621-2.793-3.309-3.508-3.984-3.961-3.609-.754.602-.68.75.793 2.48l1.32 1.539-4.375 3.645c-4.152 3.535-4.301 3.684-3.699 4.359.641.715.68.715 1.434.039l4.301-3.645zm174.211-3.457c.266-.375.531-.789.531-.902 0-.301-7.547-11.047-7.848-11.16-.152-.039-.492.262-.754.715-.453.715-.191 1.164 2.754 5.109 1.809 2.367 3.207 4.395 3.129 4.473-.113.074-2.488-.566-5.355-1.391-4.98-1.43-5.207-1.504-5.734-.828-.266.375-.527.754-.527.863 0 .152 11.469 3.383 13.164 3.723.074.035.379-.266.641-.602zm-182.398-1.504c1.887-1.129 2.078-2.328.945-5.672-1.207-3.609-1.207-4.137 0-4.586 1.133-.449 2.074-.039 2.941 1.203.68.938.793 3.156.227 3.492-.453.301-.488.941 0 1.691.266.453.492.414 1.281-.375 1.398-1.277 1.359-3.531-.148-5.562-1.734-2.402-3.395-2.93-5.621-1.766-1.812.902-2 2.367-.754 5.637.867 2.332.828 3.871-.113 4.473-1.773 1.09-4.867-2.406-4.039-4.586.227-.562.566-1.09.793-1.238.266-.152.227-.527-.074-1.129l-.492-.863-1.055 1.203c-1.395 1.578-1.434 3.383-.113 5.598 1.66 2.82 4.035 3.758 6.223 2.48zm-.789-19.84c0-.227-.227-.715-.453-1.051-.453-.562-.98-.562-7.094-.074l-6.867.563c-.148 0-.113.414.113.902.418.824.605.902 2.418.711l1.996-.223 1.133 2.254 1.168 2.254-1.547 1.504c-1.355 1.352-1.469 1.613-1.055 2.367.453.824.641.676 5.32-3.984 2.676-2.668 4.867-5.035 4.867-5.223zm192.395 5.824c.602-1.238 1.547-3.156 2.035-4.32.906-2.031.945-2.066.191-2.441-.68-.379-.906-.113-2.418 3.156l-1.656 3.605-1.812-.789c-.98-.414-1.848-.828-1.926-.863-.035-.074.566-1.578 1.398-3.344 1.434-3.082 1.469-3.23.754-3.457-.414-.152-.832-.187-.906-.113-.074.039-.715 1.426-1.469 3.043-.719 1.578-1.398 2.895-1.512 2.895-.148 0-2.488-1.016-3.168-1.355-.039-.035.605-1.613 1.473-3.531 1.32-2.855 1.508-3.492 1.055-3.793-.301-.187-.641-.34-.793-.34-.34 0-4.109 7.965-3.961 8.418.113.336 10.641 5.449 11.281 5.484.148 0 .793-1.012 1.434-2.254zM20.332 161.195c-.602-1.84-1.094-3.531-1.094-3.758 0-.301 3.02-1.312 3.773-1.238.113 0 .641 1.426 1.168 3.117.984 3.156 1.285 3.609 2.113 3.082.379-.227.266-.977-.453-3.27-.527-1.652-.941-3.191-.941-3.418 0-.34 2.301-1.277 3.133-1.277.109 0 .754 1.613 1.395 3.57s1.32 3.566 1.434 3.566c.148 0 .488-.148.793-.336.453-.301.301-1.055-.867-4.699-.758-2.402-1.586-4.355-1.852-4.355-.566 0-11.543 3.605-11.809 3.867-.187.188 2.305 8.27 2.719 8.98.113.188.488.152.906-.074.641-.336.641-.527-.418-3.758zm214.617-3.605c-.074-.453-.832-.863-2.379-1.277-1.281-.34-2.301-.867-2.375-1.164-.039-.301.227-1.543.602-2.781.758-2.48.719-2.48 4.754-2.031 1.32.152 1.512.039 1.738-.824.301-.977.262-.977-2.453-1.242-1.473-.148-2.98-.148-3.281-.035-.34.148-.98-.152-1.547-.715-1.852-1.805-4.414-1.617-5.621.449-.641 1.055-2.34 7.18-2.074 7.441.414.449 12.184 3.383 12.449 3.156.188-.152.262-.602.188-.977zm-212.844-7.703c6.035-1.164 6.188-1.203 6.188-2.105 0-1.016-.039-1.051-4.375-.262l-1.207.227-.566-3.156c-.301-1.691-.527-3.156-.453-3.234.039-.074 1.207-.301 2.602-.523 2.453-.414 2.832-.715 2.152-1.766-.301-.453-1.02-.414-4.828.297-7.809 1.469-8.035 1.543-8.035 2.293 0 1.09.488 1.164 3.434.566 1.469-.34 2.754-.527 2.789-.492.379.527 1.172 6.164.867 6.352-.187.113-1.547.453-2.98.715-2.074.336-2.602.563-2.449 1.016.113.301.227.711.227.898 0 .453-.34.492 6.637-.824zM237.851 138.2c1.926-1.5 2.605-4.656 1.586-7.176-.68-1.539-1.246-2.027-2.941-2.328-2.039-.379-3.473 1.012-4.527 4.355-.945 3.047-1.773 3.723-3.207 2.781-1.848-1.203-.793-5.449 1.359-5.449.566 0 .754-.262.754-.937 0-1.43-1.621-1.277-3.207.301-2.641 2.629-2 7.027 1.168 8.117 1.434.488 1.66.488 2.605-.113.98-.641 1.242-1.129 2.602-4.848.832-2.18 1.773-2.816 3.055-1.992 1.133.754 1.473 2.332.867 4.211-.375 1.164-.754 1.539-1.809 1.875-1.773.566-2.113 2.031-.453 2.031.602 0 1.586-.375 2.148-.828zM26.18 136.02c-.035-.109-.148-2.441-.301-5.145l-.301-5h-.945c-.941 0-.941.039-.715 2.031.34 2.477.641 2.328-6.074 2.668l-5.016.262v1.125c0 .789.148 1.09.527.941.262-.113 2.789-.301 5.582-.449l5.094-.301.227.898c.148.492.262 1.469.262 2.145 0 1.09.113 1.238.867 1.125.453-.074.832-.187.793-.301zm-10.523-13.148c1.281 0 2.488-.187 2.715-.414.34-.34.719-.227 1.473.375.602.488 1.547.789 2.414.789 2.641 0 3.66-2.18 3.734-7.965.039-1.953-.039-2.18-.754-2.18-.414 0-3.246-.187-6.262-.414-2.98-.227-5.508-.34-5.586-.262a5.21 5.21 0 0 0-.34.977c-.262.715-.148.824.832.824.602 0 1.922.113 2.906.227l1.77.262-.262 2.48c-.152 1.355-.453 2.707-.641 2.969-.227.266-1.32.453-2.793.453h-2.414v1.391c0 1.09.113 1.277.453.938.262-.262 1.473-.449 2.754-.449zm220.988-3.645c2.793-.227 2.906-.266 2.906-1.168v-.937l-4.227.262c-8.148.488-8.602.566-8.602 1.656v.938l3.512-.262 6.41-.488zm-9.355-10.598-.262-2.219 5.508-1.012c5.395-1.016 5.883-1.242 5.168-2.406-.301-.449-1.133-.375-5.395.453-2.754.563-5.207 1.012-5.473 1.012s-.562-.789-.715-1.914c-.266-1.918-.941-2.707-1.734-1.918-.227.227-.113 1.691.453 4.434 1.168 5.938 1.129 5.789 1.961 5.789.68 0 .715-.152.488-2.219zm-201.824-.039c1.434-.863 2.488-2.855 2.754-5.145.262-2.258-1.207-4.625-3.547-5.789-2.34-1.09-5.508-1.164-7.281-.148-1.621.938-3.055 3.57-3.055 5.598 0 4.883 6.754 8.191 11.129 5.484zm5.094-14.316c0-.148-2.152-.977-4.754-1.84s-4.68-1.652-4.602-1.727 2.641-.715 5.695-1.391c3.094-.715 5.656-1.355 5.734-1.43s.227-.562.375-1.09c.227-.902.078-.977-5.848-3.004-5.168-1.766-6.109-1.992-6.41-1.504-.191.301-.305.715-.266.902.074.227 2.113 1.016 4.566 1.84s4.301 1.617 4.109 1.766c-.148.152-2.715.828-5.695 1.504-4.98 1.164-5.395 1.352-5.621 2.219-.113.523-.074 1.012.113 1.09s2.906 1.012 6 2.102c5.016 1.766 5.695 1.953 6.148 1.43.227-.34.453-.715.453-.867zm194.734-3.078c2.336-3.234 2.676-3.57 4.863-4.473 2.527-1.016 2.793-1.277 2.227-2.18-.262-.449-.68-.414-2.754.34l-2.453.824-4.187-.824c-2.301-.453-4.262-.754-4.375-.676-.074.109-.074.563.039.977.227.863.414.898 4.789 1.652 2.906.488 2.906.113-.074 3.871-1.281 1.652-1.586 2.289-1.395 3.043.148.523.375.938.527.938s1.395-1.578 2.793-3.492zm-162.56-37.54a20.5 20.5 0 0 0 .871-3.305c.488-3.156.754-3.27 2.488-1.09 1.547 1.992 1.508 2.555-.152 2.59-1.168 0-.715.68.566.867.641.113 1.547.301 1.961.41s.98.078 1.285-.109c.527-.34.148-.902-4.379-6.5-1.016-1.203-1.168-1.617-.867-2.219.379-.676 1.547-.828 6.035-.789.113 0 .566.113 1.02.227.641.223 1.094.035 1.813-.754.527-.562.941-1.164.941-1.352 0-.676-1.281-.789-2.414-.148-1.281.676-1.621.75-4.828 1.125l-2.187.262v-1.387c0-.754-.187-2.48-.453-3.797-.34-1.953-.641-2.516-1.32-2.855-1.168-.527-2.113.227-1.133.938.566.453 1.773 4.473 1.773 6.051 0 1.129-1.32.715-2.566-.824-.98-1.203-1.168-1.73-.98-2.746.191-1.125.152-1.164-.34-.562-.754.902-.789.863-1.582-.902l-.719-1.539.867-.676c1.059-.789.531-1.277-1.016-.977-.906.223-1.133.035-2.039-1.578-1.355-2.367-1.773-2.707-2.941-2.258l-.906.34 1.207.938c.68.527 1.66 1.73 2.188 2.633l1.02 1.691-1.359 1.953c-.754 1.051-1.242 2.066-1.094 2.215s.867.34 1.586.379c1.133.109 1.32 0 1.621-1.09.453-1.504.68-1.543 1.508-.152.605 1.016.605 1.129-.109 2.031-1.625 2.027-2.492 5.523-1.398 5.523.906 0 1.398-.902 1.398-2.633 0-1.238.223-1.953.715-2.402 1.055-.977 1.281-.113.379 1.426-.719 1.203-.719 1.391-.191 1.578.379.152.945-.035 1.359-.414s.867-.562 1.02-.449c.262.301-1.32 5.523-1.699 5.523-.34 0-3.547-2.254-4.375-3.117-.379-.379-1.059-.641-1.508-.566-.945.152-1.32 1.43-.418 1.43.34 0 2.453 1.125 4.68 2.516l4.074 2.52-.301 1.352c-.645 2.742-.039 3.195.902.676zm124.117.754c.676-.453 1.883-1.543 2.715-2.445 1.434-1.578 1.582-1.652 2.68-1.238.941.336 1.242.75 1.695 2.18.566 1.879 1.586 2.402 1.773.977.227-1.578-.941-3.531-2.453-4.133-1.32-.566-1.355-.641-.715-1.129.488-.336.641-.789.527-1.465-.187-.937.188-1.277.641-.562.492.75 1.359-.375.945-1.164-.379-.68-3.961-2.594-4.832-2.594-.602 0-.562 1.238.039 1.84.379.375.301.527-.227.828-.867.488-.488 1.09.719 1.09 1.016 0 1.129.301.414 1.277-.453.602-.68.602-2.187.227-.906-.266-1.887-.641-2.152-.867-.941-.75-1.281.301-.453 1.355.605.75 1.133 1.012 2.113 1.012.719 0 1.285.152 1.285.34 0 .375-2.98 3.043-3.398 3.043-.148 0-.562-.34-.941-.75-.867-.977-1.473-.977-.941 0 .223.41.301.938.148 1.164-.187.336.832 1.84 1.285 1.84.074 0 .676-.375 1.32-.824zm15.805-6.953c.566-.562 1.055-1.277 1.055-1.652 0-.977-1.469-2.594-2.375-2.633-.492 0 .414-.637 2.375-1.613 1.773-.863 3.207-1.805 3.207-2.105s-.715-1.016-1.621-1.617c-1.281-.863-1.734-1.012-2.074-.676-.34.379-.227.676.566 1.355.941.824.98.902.34 1.465-.453.414-1.059.523-2.078.336-1.32-.223-1.43-.148-1.207.566.227.676.078.824-1.094 1.051-1.734.301-2.035 0-1.055-1.09.754-.789 1.473-2.406 1.32-2.969-.039-.113.188-.449.492-.676.641-.527.754-2.48.148-2.816-.227-.152-.602.035-.867.41-.34.453-.566.527-.754.188-.379-.598-1.395.191-1.133.867.113.262-.262.676-.793.902-1.355.598-1.434.563-.754-.414.492-.754.492-.977.039-1.578-.527-.715-1.359-.488-1.359.375 0 .938-2.035 4.695-2.527 4.695-.68 0-.602-1.352.113-2.629.68-1.09.492-2.441-.301-2.18-.227.074-.68 1.051-.98 2.105-.492 1.766-.641 1.914-1.434 1.727-.68-.187-.906-.074-.906.375 0 .34.266.715.566.828.34.152.566.715.566 1.316 0 1.238.262 1.352.941.449.414-.527.641-.562 1.359-.227.488.227 1.547.527 2.301.68.793.109 1.547.488 1.734.789.188.375 1.32.75 2.98.977 1.734.262 2.641.563 2.527.863-.113.262-.793.336-1.961.188-.98-.113-2.262-.113-2.906 0l-1.129.227 1.434.488c.754.262 1.395.602 1.395.789 0 .262 2.113 1.766 2.602 1.84.113.039.68-.414 1.246-.977zm-16.145-7.664c.527-.641.98-1.504.98-1.918 0-.789 0-.789-.832-.074-2.187 1.766-2.902 2.555-2.715 2.855.414.637 1.621.262 2.566-.863zm17.199-.266c0-.148-.336-.488-.754-.75-.602-.375-.754-.375-.754.039 0 .301.113.637.266.75.34.34 1.242.34 1.242-.039zm-44.512-7.738c.789-2.105-2.113-6.613-4.266-6.613-.715 0-.941.148-.793.563.152.301.379.563.566.563.719 0 2.98 3.535 2.98 4.699 0 1.879.906 2.367 1.512.789zm-57.379-2.93c1.094-1.469 1.395-2.105 1.094-2.445-.227-.262-.645-.488-.906-.488-.34 0-.527-.488-.566-1.391-.113-2.742-.266-3.27-1.094-3.945-.945-.75-2.453-.902-2.867-.262-.113.227.188.828.715 1.316 1.512 1.391 1.66 2.402.566 3.305-1.055.863-1.016 1.73.078 1.73 1.32 0 1.207.789-.34 2.18-.867.789-1.434 1.539-1.32 1.688.148.152.902.266 1.695.266 1.285 0 1.586-.187 2.945-1.953zm16.07-1.055c.113-.187-.039-.863-.379-1.465-.68-1.352-2.68-2.027-5.773-2.027-2.336 0-3.055.488-2.148 1.391.715.711 1.246.75 2.641.223 1.094-.414 1.926-.113 3.695 1.355 1.172.977 1.625 1.086 1.965.523zm-9.129-1.164c-.039-.488-.152-2.895-.266-5.375-.113-3.832-.227-4.543-.906-5.184-1.02-1.051-2.074-.676-1.621.527.188.488.527 2.816.793 5.184s.641 4.699.789 5.188c.418 1.125 1.324.863 1.211-.34zm42.664.148c.566-.297 1.773-1.199 2.641-1.953.832-.789 1.773-1.504 2.074-1.578.754-.262.98-4.246.227-4.848-.867-.711-1.695-.187-1.695 1.09 0 .941-.191 1.129-1.133 1.355-.605.148-1.66.188-2.34.109-1.055-.074-1.281.039-1.355.715-.078.566.223 1.203.867 1.766l.98.941-.867.563c-.492.301-1.66.902-2.641 1.352-1.02.414-1.812.941-1.812 1.168 0 .488 3.66 0 5.055-.68zM112.91 19.84c1.434-.676 1.055-1.203-1.094-1.504-1.359-.187-2-.113-2.379.262-.453.414-.453.641-.035 1.09.566.715 2.113.789 3.508.152zm4 211.207c-1.434-1.426-.152-4.469 1.922-4.469 1.359 0 2.266 1.09 2.266 2.703 0 2.367-2.531 3.418-4.187 1.766zm-52.664-20.063c-1.059-.715-2.039-1.469-2.152-1.656-.187-.301 1.848-3.418 2.227-3.418.113 0 1.133.715 2.262 1.539 2.266 1.691 2.719 3.047 1.398 4.211-.98.902-1.547.789-3.734-.676zm0 0"/><path d="M118.457 210.945c-7.812-.902-14.187-2.254-19.996-4.172-30.18-10.145-52.137-35.621-57.719-66.996-1.168-6.574-1.434-18.262-.602-24.797 1.355-10.258 3.809-18.375 8.297-27.617 8.227-16.836 21.77-30.512 38.52-38.855 14.145-7.023 27.688-9.805 44.137-9.016 22.406 1.09 44.891 11.984 59.527 28.82 11.543 13.301 18.523 28.594 20.863 45.691.828 6.086.828 16.68 0 22.582-4.906 34.531-29.047 62.109-62.66 71.543-7.129 1.988-12.488 2.703-21.316 2.855-4.262.074-8.336.035-9.051-.039zm19.766-4.809c4.566-.754 10.035-2.105 14.336-3.57 3.961-1.352 11.164-4.547 11.164-4.922 0-.152-2.109-.375-4.676-.527-6.301-.336-17.805-2.141-18.523-2.93-.227-.266-1.734-6.012-1.621-6.164.113-.074 1.359.188 2.793.641 6.148 1.766 13.09 2.668 22.672 2.855l9.164.227 1.965-1.504c3.055-2.332 8.676-7.328 8.449-7.516-.113-.113-2.113.113-4.453.488-5.961.977-19.805.977-25.953.039-5.129-.789-10.375-2.066-14.488-3.535l-2.977-1.051-1.02-3.57c-.566-1.953-.98-3.605-.945-3.68.078-.078.605.109 1.207.41 2.078 1.055 8.375 3.27 12.035 4.211 11.281 2.93 24.07 3.156 36.367.715 7.055-1.391 6.867-1.316 9.168-4.586 2-2.855 4.789-7.328 4.789-7.664 0-.113-.941.113-2.074.523-10.297 3.457-24.219 5.262-34.668 4.434-12.902-.977-19.43-2.742-35.273-9.578-6.902-2.969-15.691-5.937-19.652-6.613-1.812-.34-5.699-.488-10.754-.488-6.941.035-8.562.148-13.09 1.051-8.789 1.652-17.051 4.734-24.52 9.094-1.625.938-3.02 1.84-3.133 1.992-.152.262 3.508 6.461 4.301 7.289.152.148 2.301-.789 4.793-2.145 10.938-5.973 20.746-8.492 32.781-8.527 7.395 0 15.504 1.277 21.691 3.418 4.789 1.652 7.809 2.82 8.148 3.156.379.375 2.453 7.066 2.262 7.254-.035.035-2.035-.715-4.414-1.73-8.035-3.383-14.598-5.41-19.766-6.086-4.715-.602-14.789-.227-19.578.75-6.754 1.391-15.281 4.66-20.297 7.777l-1.812 1.129 2.68 2.969c3.848 4.32 3.473 4.172 7.168 2.367 4.906-2.367 9.508-3.984 14.676-5.074 4.109-.863 5.582-1.012 11.695-1.012 10.789 0 18.406 1.766 29.422 6.762l2.945 1.352.98 3.422c.527 1.879.906 3.457.828 3.531-.035.074-2.715-1.051-5.922-2.441-6.449-2.855-9.734-4.059-15.051-5.562-3.059-.863-4.527-1.051-9.848-1.203-9.09-.227-15.73.863-23.578 3.871-5.129 1.992-5.129 1.992-2.715 3.793 12.563 9.434 26.52 15.031 41.422 16.648 4.449.488 16.41.188 20.898-.488zm42.629-43.023c5.809-1.016 7.961-1.578 14.484-3.684 4-1.277 5.586-1.953 5.961-2.594.453-.637 3.547-9.203 3.547-9.77 0-.035-1.66.566-3.66 1.391-11.918 4.848-23.312 7.102-35.574 7.102-14.598 0-21.613-1.578-36.027-8.078-9.582-4.281-15.73-6.273-24.707-7.965-4.566-.828-19.77-.941-24.145-.187-6.527 1.164-13.656 3.383-19.238 5.973-3.246 1.504-9.355 5.074-11.582 6.727l-1.207.902 1.055 2.555 1.547 3.496.453.977 2.375-1.43c8.867-5.371 18.637-8.98 29.051-10.746 5.242-.863 17.051-.863 22.445 0 8.676 1.43 14.148 3.23 26.219 8.645 9.734 4.32 15.242 6.047 22.445 6.988l4.34.563c.641.074 4.867.113 9.43.039 6.375-.078 9.316-.301 12.789-.902zm-128.527-30.66 13.316-18.977 17.09-24.234 10.223-14.395c.379-.41 2.039 1.09 8.715 7.969 4.563 4.656 8.449 8.492 8.676 8.492.188-.039 2.152-3.047 4.301-6.691l12.863-21.492c.152 0 1.813 2.668 3.734 5.898l13.281 22.094c.227.227 3.621-2.891 8.941-8.152l8.563-8.527 22.07 33.027c16.445 24.648 22.141 32.84 22.332 32.352.602-1.691 1.168-8.68 1.168-14.691-.074-12.738-2.68-23.824-8.301-35.285a82 82 0 0 0-54.812-43.586c-6.414-1.539-10.863-1.992-18.672-2.027-8.148 0-13.281.637-20.562 2.516-29.762 7.703-53.266 32.238-59.414 62-1.285 6.238-1.699 10.371-1.699 16.758 0 7.363 1.094 16.758 1.848 15.934.152-.191 3.02-4.211 6.34-8.98zm-23.731 38.813c-.375-.863-.641-1.578-.562-1.613.035-.039 1.242-.191 2.676-.301l2.641-.266-1.848 1.879c-1.02 1.055-1.961 1.879-2.074 1.879s-.492-.715-.832-1.578zm197.301-16.684-1.734-.562.715-2.52c.754-2.703 1.547-3.605 2.754-3.23 1.285.375 1.738.941 1.738 1.992 0 1.43-.906 4.66-1.324 4.773-.223.035-1.168-.187-2.148-.453zM20.672 121.328c-.566-.301-.68-.902-.68-3.191 0-3.195.113-3.309 2.605-2.855l1.695.262-.113 2.254c-.148 3.418-1.469 4.734-3.508 3.531zM21.313 107.578l-1.582-.34c-.492-.074-1.434-.676-2.187-1.316-1.094-.977-1.32-1.426-1.32-2.668 0-1.727.828-3.492 1.922-4.094 1.133-.602 4.227-.488 5.547.188 2.527 1.316 3.395 3.871 2.148 6.273-.715 1.391-2.867 2.293-4.527 1.957zm40.066-57.527c-.605-.113-.605-.187.113-1.09a4.38 4.38 0 0 0 .754-2.254c0-.754.148-1.242.414-1.168.453.152.453-.035.113 2.48-.266 2.145-.379 2.293-1.395 2.031zm133.09-9.434c-.227-.375.531-2.289.906-2.289.113-.039.945-.191 1.813-.34 1.887-.375 2.336.188 1.281 1.504l-.68.863-.453-.828c-.641-1.238-1.547-1.051-1.547.301 0 1.09-.789 1.578-1.32.789zM92.801 246.867c0-.187-.676-.375-1.508-.375s-1.508-.152-1.508-.375c0-.191-.492-.379-1.133-.379-.602 0-1.133-.148-1.133-.375 0-.187-.488-.375-1.129-.375-.605 0-1.133-.152-1.133-.375 0-.187-.492-.375-1.133-.375-.602 0-1.133-.152-1.133-.379 0-.187-.488-.375-1.129-.375-.605 0-1.133-.148-1.133-.375 0-.187-.34-.375-.754-.375s-.754-.152-.754-.375c0-.191-.492-.379-1.133-.379-.605 0-1.133-.148-1.133-.375 0-.187-.34-.375-.754-.375s-.754-.148-.754-.375c0-.187-.492-.375-1.133-.375-.602 0-1.129-.152-1.129-.379 0-.187-.34-.375-.758-.375s-.754-.148-.754-.375c0-.187-.34-.375-.754-.375s-.754-.152-.754-.375c0-.187-.34-.379-.754-.379s-.754-.148-.754-.375c0-.187-.34-.375-.758-.375s-.754-.148-.754-.375c0-.187-.34-.375-.754-.375s-.754-.152-.754-.375c0-.191-.34-.379-.754-.379s-.754-.148-.754-.375c0-.187-.305-.375-.68-.375s-.906-.34-1.207-.75-.832-.754-1.207-.754-.68-.148-.68-.375c0-.187-.301-.375-.68-.375s-.906-.34-1.207-.754-.793-.75-1.133-.75-.828-.34-1.129-.75-.793-.754-1.133-.754-.832-.336-1.133-.75-.793-.75-1.055-.75c-.301 0-1.02-.492-1.586-1.129-.566-.602-1.281-1.129-1.582-1.129-.266 0-.758-.336-1.059-.75s-.754-.75-1.055-.75c-.266 0-1.32-.828-2.34-1.879-1.02-1.016-2.039-1.879-2.227-1.879-.527 0-13.617-13.039-13.617-13.566 0-.187-.832-1.203-1.887-2.215-1.02-1.016-1.887-2.066-1.887-2.332 0-.301-.34-.75-.754-1.051s-.754-.789-.754-1.051c0-.301-.492-1.016-1.133-1.578-.602-.566-1.133-1.277-1.133-1.578 0-.266-.34-.754-.754-1.055s-.754-.789-.754-1.125-.34-.828-.754-1.129-.754-.828-.754-1.203-.152-.676-.379-.676c-.187 0-.375-.301-.375-.676s-.34-.902-.758-1.203-.754-.824-.754-1.203-.148-.676-.375-.676c-.191 0-.379-.336-.379-.75s-.148-.754-.375-.754c-.191 0-.379-.301-.379-.676s-.34-.902-.754-1.203-.754-.824-.754-1.199-.152-.676-.379-.676c-.187 0-.375-.34-.375-.754s-.152-.75-.379-.75c-.187 0-.379-.34-.379-.754s-.148-.75-.375-.75c-.187 0-.379-.488-.379-1.129 0-.602-.148-1.125-.375-1.125-.191 0-.379-.34-.379-.754s-.152-.75-.375-.75c-.191 0-.379-.34-.379-.75s-.152-.754-.379-.754c-.187 0-.375-.488-.375-1.125 0-.602-.152-1.129-.379-1.129-.187 0-.375-.336-.375-.75s-.152-.754-.379-.754c-.187 0-.379-.488-.379-1.125 0-.602-.148-1.129-.375-1.129-.187 0-.379-.488-.379-1.125 0-.602-.148-1.129-.375-1.129-.191 0-.379-.488-.379-1.125 0-.602-.148-1.129-.375-1.129-.191 0-.379-.488-.379-1.129 0-.602-.152-1.125-.379-1.125-.187 0-.375-.488-.375-1.129 0-.602-.152-1.125-.379-1.125-.187 0-.375-.68-.375-1.504s-.152-1.504-.379-1.504c-.187 0-.375-.715-.34-1.578l.039-1.617.566 1.879c4.676 16.195 9.316 26.605 17.012 38.289 16.07 24.387 41.348 43.176 68.734 51.141 7.02 2.066 6.867 1.992 5.02 2.027-.906.039-1.625-.109-1.625-.336zM2.262 151.801c0-.824-.148-1.5-.375-1.5-.187 0-.379-.828-.379-1.844s-.187-1.914-.414-1.992-.34-1.086-.266-2.555l.113-2.441.871 4.887 1.055 5.934c.152.641.074 1.016-.187 1.016-.227 0-.418-.637-.418-1.504zm248.265-9.09c.039-.488.191-1.355.34-1.992.266-.977.305-.828.34.863 0 1.09-.113 1.953-.34 1.953-.187 0-.34-.375-.34-.824zM0 136.699c0-2.781.188-2.746.527.188.152 1.352.078 2.141-.148 2.141S0 138.012 0 136.699zm251.473-3.008.375-3.27c.078-.074.152 1.316.152 3.082 0 2.066-.152 3.27-.414 3.27s-.301-.977-.113-3.082zm.035-16.945c-.301-3.422-.187-4.473.305-3.945.113.113.148 1.879.113 3.906l-.113 3.719zM.039 113.063c-.039-2.367.113-3.305.453-3.457.414-.148.449.34.187 2.52-.492 4.246-.566 4.355-.641.938zm250.566-4.809c-.266-2.066-.227-2.555.148-2.406.34.152.492.977.492 2.594 0 1.316-.074 2.406-.152 2.406s-.262-1.168-.488-2.594zM.793 106.676c-.039-1.465.113-2.18.453-2.332.414-.148.453.191.188 1.73-.492 2.855-.605 2.969-.641.602zM250 103.934c-.187-.789-.227-1.543-.113-1.656.453-.41.641.266.527 1.656l-.113 1.465zM1.547 101.941c-.039-1.09.152-1.992.34-1.992.227 0 .375-.676.375-1.504s.191-1.504.379-1.504c.227 0 .379-.676.379-1.5s.188-1.504.375-1.504c.227 0 .379-.676.379-1.504s.188-1.504.375-1.504c.227 0 .379-.676.379-1.5s.188-1.504.375-1.504c.227 0 .379-.488.379-1.129 0-.602.188-1.125.379-1.125.227 0 .375-.488.375-1.129 0-.602.188-1.125.379-1.125.227 0 .375-.492.375-1.129 0-.602.191-1.129.379-1.129.227 0 .375-.488.375-1.125 0-.602.191-1.129.379-1.129.227 0 .379-.336.379-.75s.188-.754.375-.754c.227 0 .379-.488.379-1.125 0-.602.188-1.129.375-1.129.227 0 .379-.336.379-.75s.188-.75.379-.75c.223 0 .375-.34.375-.754s.188-.75.379-.75c.227 0 .375-.34.375-.754s.191-.75.379-.75c.227 0 .375-.34.375-.75s.191-.754.379-.754c.227 0 .379-.336.379-.75s.188-.754.375-.754c.227 0 .379-.336.379-.75s.188-.75.375-.75c.227 0 .379-.34.379-.754s.188-.75.375-.75c.227 0 .379-.34.379-.75s.188-.754.379-.754c.227 0 .375-.336.375-.75s.188-.754.379-.754c.227 0 .375-.301.375-.676s.34-.902.754-1.203.758-.789.758-1.125.34-.828.754-1.129.754-.789.754-1.125.34-.828.754-1.129.754-.789.754-1.125.34-.828.754-1.129.754-.789.754-1.051c0-.301.492-1.016 1.133-1.578.605-.566 1.133-1.242 1.133-1.504s.488-.941 1.133-1.504c.602-.562 1.129-1.238 1.129-1.504s.531-.937 1.133-1.5 1.133-1.242 1.133-1.469c0-.562 12.297-12.812 12.863-12.812.227 0 .906-.488 1.473-1.125.566-.602 1.242-1.129 1.508-1.129.227 0 1.094-.676 1.887-1.504s1.66-1.5 1.887-1.5c.262 0 .941-.488 1.508-1.129.566-.602 1.281-1.129 1.586-1.129.262 0 .754-.336 1.055-.75s.793-.75 1.133-.75.828-.34 1.133-.754.789-.75 1.129-.75.832-.34 1.133-.75.793-.754 1.133-.754.828-.336 1.129-.75.832-.754 1.207-.754.68-.148.68-.375c0-.187.34-.375.754-.375s.758-.148.758-.375c0-.187.336-.375.754-.375s.754-.152.754-.379c0-.187.34-.375.754-.375s.754-.148.754-.375c0-.187.34-.375.754-.375s.754-.152.754-.375c0-.187.34-.375.758-.375s.754-.152.754-.379c0-.187.34-.375.754-.375s.754-.148.754-.375c0-.187.34-.375.754-.375s.754-.152.754-.375c0-.191.34-.379.758-.379s.754-.148.754-.375c0-.187.34-.375.754-.375s.754-.148.754-.375c0-.187.527-.375 1.133-.375.641 0 1.129-.152 1.129-.379 0-.187.34-.375.758-.375s.754-.148.754-.375c0-.187.527-.375 1.129-.375.645 0 1.133-.152 1.133-.375 0-.187.527-.379 1.133-.379.641 0 1.133-.148 1.133-.375 0-.187.527-.375 1.129-.375.645 0 1.133-.148 1.133-.375 0-.187.527-.375 1.133-.375.641 0 1.133-.152 1.133-.379 0-.187.527-.375 1.129-.375.641 0 1.133-.148 1.133-.375 0-.188.68-.375 1.508-.375s1.512-.152 1.512-.375c0-.187.676-.375 1.508-.375s1.508-.152 1.508-.379c0-.187.867-.375 1.887-.375 1.055 0 1.887-.148 1.887-.375 0-.187.906-.375 2-.34 1.695 0 1.129.188-3.887 1.316C87.985 5.257 77.348 9.089 68.481 13.71c-12.937 6.727-21.238 12.813-31.727 23.258-10.574 10.528-17.477 20.145-23.926 33.11-4.453 9.016-7.734 18.336-9.961 28.555-1.246 5.602-1.281 5.711-1.32 3.309zm247.285-3.871c-5.434-24.461-19.016-47.945-37.613-64.93-4.754-4.32-5.281-4.773-8.828-7.437-7.242-5.414-12.711-8.832-20.145-12.516-7.621-3.832-11.996-5.484-23.992-9.168-2.902-.902-2.941-.937-1.395-.977.867-.035 1.582.152 1.582.34 0 .223.531.375 1.133.375.641 0 1.133.188 1.133.375 0 .227.68.375 1.508.375s1.508.188 1.508.375c0 .227.531.379 1.133.379.641 0 1.133.188 1.133.375 0 .227.527.375 1.133.375.641 0 1.129.188 1.129.375 0 .227.531.375 1.133.375.641 0 1.133.191 1.133.379 0 .223.34.375.754.375s.754.188.754.375c0 .227.527.375 1.133.375.641 0 1.133.188 1.133.375 0 .227.527.379 1.129.379.641 0 1.133.188 1.133.375 0 .227.34.375.754.375s.754.188.754.375c0 .227.34.375.754.375s.758.188.758.379c0 .223.34.375.754.375s.754.188.754.375c0 .227.34.375.754.375s.754.188.754.375c0 .227.34.379.754.379s.758.188.758.375c0 .223.336.375.754.375s.754.188.754.375c0 .227.34.375.754.375s.754.188.754.375c0 .227.301.379.68.379s.906.336 1.207.75.828.75 1.207.75.68.191.68.379c0 .223.301.375.68.375s.902.336 1.207.75.828.754 1.207.754.68.188.68.375c0 .223.301.375.676.375s.906.34 1.207.75.793.754 1.059.754c.301 0 1.02.523 1.586 1.125.563.641 1.281 1.129 1.582 1.129.266 0 .754.336 1.059.75s.789.754 1.055.754c.301 0 1.02.523 1.586 1.125.563.641 1.242 1.129 1.469 1.129.527 0 16.637 16.008 16.637 16.57 0 .227.68 1.051 1.508 1.84s1.512 1.652 1.512 1.879.68 1.09 1.508 1.879 1.508 1.691 1.508 1.953.34.754.758 1.055.754.789.754 1.051c0 .301.527 1.016 1.129 1.578.645.563 1.133 1.316 1.133 1.652s.188.602.379.602c.227 0 .375.34.375.754s.191.75.379.75c.227 0 .375.301.375.676s.34.902.758 1.203.754.824.754 1.203.188.676.375.676c.227 0 .379.301.379.676s.34.902.754 1.203.754.824.754 1.203.188.676.379.676c.227 0 .375.336.375.75s.191.75.379.75c.227 0 .375.34.375.754s.191.75.379.75c.227 0 .379.34.379.754s.188.75.375.75c.227 0 .379.527.379 1.129 0 .637.188 1.125.375 1.125.227 0 .379.34.379.754s.188.75.375.75c.227 0 .379.34.379.75s.188.754.379.754c.227 0 .375.523.375 1.125 0 .641.188 1.129.379 1.129.227 0 .375.336.375.75s.191.754.379.754c.227 0 .379.523.379 1.125 0 .641.188 1.129.375 1.129.227 0 .379.523.379 1.125 0 .641.188 1.129.375 1.129.227 0 .379.527.379 1.125 0 .641.188 1.129.375 1.129.227 0 .379.527.379 1.129 0 .637.188 1.125.379 1.125.223 0 .375.676.375 1.504s.188 1.504.379 1.504c.227 0 .375.676.375 1.504s.191 1.5.379 1.5c.227 0 .375.676.375 1.465 0 .828.191 1.543.418 1.617s.34.863.262 1.805c-.113 1.613-.148 1.578-.828-1.504zM151.277 2.48c-3.547-.789-3.586-.789-1.699-.902 1.094-.074 1.922.039 2 .262s.793.414 1.582.414c.906 0 1.512.188 1.66.563.113.301.152.527.113.527-.035-.039-1.695-.414-3.656-.863zm-45.648-1.351c0-.191.715-.379 1.586-.379 1.848 0 1.77.188-.152.527-.906.152-1.434.113-1.434-.148zM143.918 1.129c-1.016-.266-.941-.301.68-.34.98 0 1.773.148 1.773.34 0 .41-.793.41-2.453 0zM110.156.375c0-.227 1.055-.375 2.566-.336 2.336.035 2.414.074 1.016.375-2.113.414-3.582.414-3.582-.039zM137.695.375c-1.059-.227-.793-.301 1.434-.336 1.582 0 2.715.109 2.715.336 0 .414-2.148.414-4.148 0zm0 0"/></g></svg>