<svg xmlns="http://www.w3.org/2000/svg" width="200" height="200" fill="#0085b7" fill-rule="evenodd"><path d="M99.26 30.175c33.598 0 61.771 23.992 68.262 55.72-.3.014-.611.023-.908-.042-1.97-.43-4.397-.066-6.358-.497h-1.59c-2.111-.46-4.665-.135-6.755-.596h-1.292c-1.362-.299-2.904-.073-4.37-.397-3.547-.784-7.499-.579-10.93-1.39l-2.682-.299c-4.238-1.016-8.622-1.333-12.716-2.484-6.976-1.96-13.27-3.972-19.374-6.656-7.815-3.438-14.407-8.766-20.862-13.61-1.432-1.075-2.63-2.485-4.074-3.577l-1.192-1.292a24 24 0 0 1-4.47-4.47l-1.392-1.292c-1.256-1.662-2.72-3.086-3.973-4.77-.65-.872-2.003-2.175-2.842-3.339a69.2 69.2 0 0 1 37.518-11.01zM60.1 148.04q.689.32 1.33 0c.641-.32.658-.589.688-1.123s-.183-.933-.641-1.19-.918-.27-1.377-.024-.687.64-.687 1.19.229.934.687 1.147m9.462 3.026a46 46 0 0 0 .132-2.005l.109-2.293.072-2.012-.39.25q-.137.088-.668.456a23 23 0 0 0 .069-1.497q.2-.115.522-.31l.4-.25q.08-.053.218-.162a33 33 0 0 0 1.708 0l-.063.778q-.023.27-.05.775l-.23 4.556-.017.683q-.006.212-.005.429l.005.602a34 34 0 0 0-1.812 0m6.812 0q.752-.95 1.266-1.678.564-.797.968-1.485.3-.51.474-.943a4 4 0 0 0 .235-.722 2.7 2.7 0 0 0 .06-.546 1.7 1.7 0 0 0-.154-.749 1.1 1.1 0 0 0-.45-.49 1.37 1.37 0 0 0-.679-.165 1.55 1.55 0 0 0-.736.18 1.3 1.3 0 0 0-.52.498 1.4 1.4 0 0 0-.183.703q0 .367.134.64c.134.273.241.322.452.422s.462.153.75.153q.17 0 .328-.03a5 5 0 0 0 .382-.084 30 30 0 0 0-.764 1.192 3.6 3.6 0 0 1-.584.056q-.686 0-1.268-.272c-.582-.272-.673-.44-.85-.776s-.27-.71-.27-1.12a2.6 2.6 0 0 1 .383-1.396q.384-.63 1.128-.99c.744-.36 1.068-.358 1.714-.358a4.3 4.3 0 0 1 1.227.174q.58.177.949.529a2.15 2.15 0 0 1 .545.837q.174.482.175.937 0 .338-.079.755a5 5 0 0 1-.25.883 12 12 0 0 1-.474 1.054q-.299.59-.72 1.233c-.421.643-.632.948-1.056 1.558l-1.004-.006zm6.691-.109-.03-.453-.027-.367a13 13 0 0 0-.058-.487q1.071.309 1.835.31.538 0 .982-.185a1.55 1.55 0 0 0 .694-.536 1.28 1.28 0 0 0 .25-.759q-.001-.356-.193-.62c-.192-.264-.325-.31-.59-.403s-.615-.14-1.047-.14q-.373 0-.734.03a18 18 0 0 0-.968.124l.35-4.228a256 256 0 0 0 4.998 0 13 13 0 0 0-.045.687l-.017.55a25 25 0 0 0-1.589-.046l-1.007-.011-.7.005-.185 1.982q.487-.056.826-.056a4.5 4.5 0 0 1 1.522.244q.678.244 1 .754c.322.51.32.714.32 1.123s-.097.792-.295 1.161-.47.668-.816.9-.75.4-1.203.507a6 6 0 0 1-2.02.125 8 8 0 0 1-.616-.074 8 8 0 0 1-.637-.137m9.001-3.891a3.4 3.4 0 0 1-.542-.284 1.7 1.7 0 0 1-.622-.849 2 2 0 0 1-.085-.592q0-.54.238-.987a1.97 1.97 0 0 1 .687-.735q.45-.289.96-.401c.51-.112.697-.112 1.073-.112q.542 0 1.054.135a2.3 2.3 0 0 1 .87.426 1.7 1.7 0 0 1 .52.662q.157.369.157.823a2.3 2.3 0 0 1-.043.455 1.8 1.8 0 0 1-.42.83 2.2 2.2 0 0 1-.337.302 3.5 3.5 0 0 1-.569.303q.384.103.575.192c.191.089.252.137.372.235a1.45 1.45 0 0 1 .493.774 2 2 0 0 1 .066.513q.001.55-.248 1.046a2.1 2.1 0 0 1-.68.798 3 3 0 0 1-1.02.454 5 5 0 0 1-1.203.149 5.4 5.4 0 0 1-1.141-.117 2.8 2.8 0 0 1-.974-.405q-.431-.285-.64-.687a1.96 1.96 0 0 1-.21-.917q0-.288.073-.565c.073-.277.124-.36.225-.527s.223-.307.36-.42.272-.206.41-.274.338-.142.601-.225m1.593-2.843q-.596.001-.96.356a1.2 1.2 0 0 0-.364.892 1.05 1.05 0 0 0 .16.583.97.97 0 0 0 .436.368 1.5 1.5 0 0 0 .6.122 1.5 1.5 0 0 0 .69-.16 1.15 1.15 0 0 0 .48-.441q.173-.287.173-.648 0-.481-.329-.776c-.329-.295-.517-.296-.886-.296m-.143 3.398q-.728.001-1.107.356a1.17 1.17 0 0 0-.378.894q0 .331.167.617c.167.286.281.334.51.434a1.8 1.8 0 0 0 .728.152q.395.001.74-.16a1.2 1.2 0 0 0 .531-.475q.191-.317.19-.706 0-.521-.352-.816c-.352-.295-.579-.296-1.029-.296m8.715.42q.69.318 1.33 0c.64-.318.658-.59.69-1.124s-.184-.933-.642-1.19a1.34 1.34 0 0 0-1.378-.024q-.686.365-.686 1.19c0 .825.229.934.686 1.147zm65.35-61.846a69.5 69.5 0 0 1 1.35 13.649 69.2 69.2 0 0 1-4.347 24.194c-.698-.836-2.01-1.821-2.538-2.222-1.21-.915-2.245-2.174-3.478-3.08a120 120 0 0 0-6.954-4.768l-4.173-2.682c-.782-.48-1.597-.713-2.384-1.193-.61-.372-1.326-.9-1.987-1.192-4.855-2.146-9.96-3.79-15.499-5.365-3.323-.945-6.913-.982-10.431-1.788-1.403-.322-2.718.022-4.173-.298-1.27-.28-2.954-.297-4.37-.298h-2.087c-1.14-.25-3.332-.241-4.47 0l-5.465.099-8.544.696c-1.84.414-3.84.247-5.763.695l-6.358.994c.28.154 2.963.01 3.478-.1l8.246-.198c.826 0 3.366.215 3.874-.1.634-.02 1.434-.132 1.49.199h.397c-.102-.08-.024-.037-.198-.1v-.099c1.111-.002 2.225.175 3.08.199l2.086-.1c.054.02.192.295.199.299l.496-.1h3.875l.1.199c.306.064.121-.34.496-.199.154.058.281.384.596.398.302-.154 1.048-.526 1.69-.298.145.052.283.347.396.397h1.292c1.21.293 2.813.506 3.776.695.414.082 1.509.183 1.788.1.122-.036.083-.269.397-.199.289.064.875.393 1.192.497.96.312 2.126.197 2.782.794a1.1 1.1 0 0 0 .198-.297c.565.194 1.158.608 1.79.794l.794.1c.043-.06-.09-.288.099-.199.851.396 1.924.576 2.682 1.093h.1c-.131-.242.046-.07-.199-.199v-.199c.618.103 1.628.748 1.987.596.102.171.003 0 0 .2.895-.089 2.822.676 3.577 1.291 0 0 .39-.023.198-.1h-.1v-.099h.299v.298c.473.217.502.485.695.596.347.198.639.012.994.199l.497.596c.568.286.946.263 1.49.696h.1c-.131-.274-.275-.325-.596-.398v-.199c.674.06 2.305.485 2.483 1.391.08-.102.037-.025.1-.198.34.112.2-.017.198.297.18.088.361.168.497.299.313-.16.12-.065.099-.398.816.225.986.993 1.49 1.192l.398-.1c.351.114.66.583.993.696.723.246 1.358-.034 1.888.597-.455-.195-.869-.387-1.49-.398v-.1h-.199c.102.081.024.037.198.1.68.656 1.774.863 2.484 1.49.262-.173.139-.006.1-.298.417.145.583.529.894.696.281.151.505-.172.695-.1l.795.895c.418.238.892.16 1.292.397 1.053.627 1.809 1.687 2.781 2.384.903.648 1.862.754 2.484 1.69.247-.147.117.023.199-.299.323.212.498.582.795.795.226.163.382.051.496.1.543.23 1.38 1.187 1.69 1.49.01.01.249-.1.397 0 .604.404.931 1.17 1.49 1.39.114.164.007.056.199 0 .475.715 1.55 1.307 2.185 1.888.125.183.05-.014.199-.1.088.145.18.285.298.398v.2h.1c-.04-.206-.026-.193-.1-.3v-.198c.244.062.158.037.397 0 .191.546.225.643.696.894-.117.08-.166.08-.397.1.253.658.844.441 1.39.794l.596.696c.201.096.313-.142.398-.1l.825.963a70 70 0 0 1-5.146 8.926c-.755-1.013-2.222-2.258-2.733-2.934a30 30 0 0 0-2.683-3.08l-1.39-1.292c-.922-1.22-2.16-2.356-3.378-3.278l-.894-.994c-1.124-.849-2.138-1.737-3.279-2.583-.902-.669-1.755-1.534-2.682-2.185-2.03-1.427-4.22-2.675-6.358-3.974-2.59-1.574-5.506-2.325-8.445-3.577l-6.955-2.98c-2.72-1.12-5.704-1.756-8.543-2.682-3.524-1.15-7.39-1.37-11.128-2.286l-2.98-.298c-1.52-.353-3.352-.135-4.967-.496-2.637-.59-6.194-.398-9.24-.398h-6.358c-.618.139-1.645-.067-2.384.1l-9.637.695c-1.19.27-2.687.233-3.875.497-.376.083-.99-.175-1.192-.1-1.14.423-2.508.278-3.874.596-1.735.405-3.91.747-5.763.796.4.234 1.873.011 2.384-.1.635-.138 1.706-.002 2.186.1.806.17 1.642-.165 2.186-.299.549-.134 1.327.032 1.59.199.263-.174.888-.282 1.191-.1h.2c-.18.358-.55.328-1.094.298.271.195 2.397.691 2.683.497.493-.057.265-.003.398-.298.655-.013 1.495-.073 1.887.199h.596c-.054.151-.07.166-.1.398 1.108-.157 5.891-.907 6.458-.1.247-.146.117.024.199-.298h.596v.398c.743-.006.877-.198 1.391-.299v-.099c-.293-.137-.586-.258-.994-.298v-.298l2.782.497c.246.104.31.5.497.596l2.087-.1c.828.203 1.803.071 2.682.298.531.138 1.429.357 1.987.398.632.046 2.064-.194 2.781 0 .188-.202.29-.183.398-.497.448.065.737.28 1.093.398.639.21 1.323.2 2.086.397 1.085.279 2.235.108 2.98.695.28-.135.017-.163.298-.397.136-.01 1.872.739 2.484.894.82.209.894-.059 1.291-.198.16.22 2.788.672 3.478 1.192h.695c-.126-.11-.352-.22-.496-.299v-.297c1.046.21 3.255.707 3.775 1.192.075-.107.062-.092.1-.298.554.071 1.346.275 1.688.596.33.138.2.029.199.297.241-.13.07.047.198-.198.568.055 1.892.687 2.285.994.105-.192.032-.115 0-.398.458.132.726.572 1.193.795v.397h.894v.398l.595-.1c.429.172.427.656.995.795.24.07.061.04.298-.1.533.595.721.474 1.39.994h.497c-.091-.107.008-.009-.1-.1-.096-.188-.533-.226-.794-.496h-.1v-.198c.684-.057 1.09-.166 1.094.298.247-.147.116.024.198-.298.364.117 2.145 1.122 2.285 1.39.09.173.02.38.1.497v.1h.099c-.04-.205-.025-.192-.1-.299.133-.231.304-.245.597-.298-.163.221-.052.204-.199.398v.298c.258.065.515.151.695.298h.199c-.04-.204-.025-.191-.1-.298v-.398c1.027.282 1.508 1.585 2.087 1.789.197.068.39-.203.695-.1.211.072 1.351.806 1.59.994h.298c-.087-.235-.037-.164-.198-.298v-.1c.803.371 1.887.602 2.483 1.193-.89-.226-1.688-.644-2.782-.696.307.253.741.279 1.093.497.64.396 1.24 1 1.888 1.39.308.187.719.193.993.398h.1c-.04-.204-.025-.191-.1-.298v-.199c.462.165.781.553 1.192.795v.298c.34-.02.508-.047.696-.198.893.12.815 1.012 1.39 1.39h.597c.61.199 1.378.624 1.887.994l2.981 3.08c.314.235.767.646 1.093.795.175.08.351-.136.397-.1l.1.398c.21.142.605-.024.794.099l.994 1.39v.1c.287-.142.278-.188.298-.596.295.1 1.383 1.56 1.39 1.59.242-.131.07.046.2-.199.794.281 1.344 1.218 1.887 1.788.153-.003.09-.025.298-.199.07.268.137.43.298.596v.2c.112-.201.052-.179 0-.398.878.58 1.256 1.69 2.086 2.285.114.163.008.055.2 0 .086.116.08.113.198.199v.199c.08.189.1-.2.1-.2.88.41 2.777 2.228 3.278 3.08.104-.191.031-.114 0-.397h.198l.398.695v.2h.1c-.011-.252-.013-.369-.1-.498v-.298c.302.075.516.05.596.1h.199c-.029.375-.093.532-.2.794.358.131.627.237.895.398v.298l-.596-.1c.19 1.005 1.383.809 2.087 1.292.375.259.39.724.893.894.102.08.025.037.2.1.065-.124.107-.206.198-.299v-.099h.099c.067.124.108.206.199.298v.1h.099c-.036-.284-.065-.43-.199-.596v-.2h.1v.1c.366.27.575.671.596 1.292.08-.117.08-.166.099-.398h.1c.128.37.416.83.721 1.232a70.4 70.4 0 0 1-7.25 7.33 6 6 0 0 1-.326-.415l-2.286-3.279c-.234-.319-.659-.579-.893-.894-4.32-5.787-9.95-10.23-15.897-14.405-7.592-5.332-16.606-9.445-25.73-13.214-4.062-1.677-8.83-2.526-13.214-3.775-3.288-.936-6.783-1.169-10.134-1.987-1.593-.389-3.257-.34-4.768-.696l-4.272-.397c-2.801-.63-6.256-.155-9.14-.794-.71-.158-1.699.03-2.285-.1h-3.775c-1.344-.294-4.715-.287-6.06 0H42.33c-1.306.289-2.866-.111-4.271.199l-7.184.568a69.5 69.5 0 0 1-1.284-13.301 69.2 69.2 0 0 1 4.539-24.698l.054.075c.486.655 1.301 1.14 1.789 1.79.295.393.504.9.893 1.191.738.551 1.627.956 2.285 1.59h.199c-.285-.988-1.255-1.523-1.987-2.087-.646-.498-1.003-1.417-1.59-1.987v-.099c.831.533 1.504 1.314 2.286 1.888 1.122.823 2.194 1.542 3.179 2.484v.298c-.16-.033-.414-.19-.497-.199-.357-.035-.37.262-.695.1h-.2c.264.741 1.93 1.898 2.584 2.384.431.32.56.83.894 1.192.3.325 1.013.348 1.391.596.745.49 1.277 1.36 1.987 1.888.561.416 1.373.619 1.888 1.092.504-.047.45-.126.596-.496.28.046 3.736 1.167 3.875 1.291.09.19.039.073 0 .299 2.778 1.348 5.78 2.445 8.94 3.476 1.853.605 3.726.597 5.664 1.193.543.167 1.281.438 1.887.596l2.186.298c.462.142 1.181.532 1.49.496h.298c-.123-.177-.257-.246-.397-.397h-.1V94c1.776.24 3.865.362 5.663.796l1.391.099c1.282.336 2.484.958 3.875 1.291h1.788l3.874.298c.823.028 1.279.298 1.789.497.978.383 4.51-.175 4.868-.497.107-.09.009.01.1-.099-.282-.117-.471-.191-.895-.199.348-.217 1.262-.099 1.788-.099h3.18c.366.096 1.15.358 1.788.199 2.702-.674 6.408-.17 9.239-.795l2.285-.1c1.86-.413 3.924-.154 5.862-.595 1.005-.23 2.17-.14 3.278-.398 1.306-.304 2.91-.595 4.371-.596-.613-.379-2.908 0-3.775 0l-9.835.199h-8.842c-1.86 0-3.904.16-5.564-.199H97.37c-.878-.19-2.115-.11-2.98-.298-1.688-.367-3.51-.146-5.067-.497l-1.59-.099c-.177-.058-.486-.364-.696-.397-.338-.054-.993.212-1.49.1-.92-.21-1.964-.24-2.98-.497-3.922-.993-7.844-1.565-11.525-2.783-8.403-2.78-16.149-6.289-22.75-10.928-2.958-2.079-5.6-4.5-8.445-6.656-1.086-.823-1.919-2.024-2.871-3.057a70 70 0 0 1 5.152-8.631c.39.401.81.773 1.097 1.256.344.58.455 1.81.497 2.583.104-.138.16-.392.198-.596.735.27.793 1.064 1.59 1.292v.1l-.596.496c.56.435 1.074.6 1.192 1.49.204-.04.191-.025.298-.1.824.029 1.212 1.043 1.192 1.888.119-.106.163-.199.298-.298.32.488 1.311 1.458 1.788 1.788v.299h-.397c.301.23.75.205.993.496.003.001.198 0 .1.1h-.1c-.087.234-.037.164-.198.298.389.501 1.213.869 1.689 1.291-.128.065-.682.074-.994.1.335.48.93.541 1.39.894.702-.01 1.056-.236 1.392-.596q.914.03 1.39.496c.065.149.124.043 0 .2.22.333.564.083.895.297.21.136.206.66.397.795.033.023 1.36.18 1.59.298 1.065.547 1.975 1.382 2.98 1.987.432.26.87.194 1.391.397.329.128 2.146 1.6 2.385 1.888h.397V78.8c.6.216 1 .847 1.49 1.193 1.394.98 3.086 1.806 3.875 3.377.23-.022.28-.02.397-.099.155-.09-.16-.216-.298-.298v-.199c1.562.304 2.117.85 2.98 1.789h.497v-.1c-.226-.113-.43-.225-.596-.397-.107-.09-.009.008-.1-.1h.1v-.099h.1c.261.053.668.416.993.497 1.134.283 2.083-.133 2.782.496.262.175.138.007.1.299 1.976.115 3.708.947 5.364 1.49 3.665 1.2 7.248 2.263 10.73 3.676.46.186.697-.018 1.092.1.527.156 1.245.527 1.888.695.715.186 1.457.052 1.987.397h.298v-.1c-.124-.065-.205-.107-.298-.198h-.1v-.099c.692-.005 1.638 0 2.087.298.65.022.77.28.994.696.82-.045.686-.33 1.092-.497.465-.19.938.222 1.193.297.912.27 2.035.11 2.88.398-.174.161-.25.18-.596.199.763.46 1.636-.483 2.683-.2 1.953.53 4.932-.037 6.954.398.592.128 1.453-.166 1.888.1h4.67c-.088-.117-.081-.113-.2-.199v-.1c3.373-.016 6.975.18 9.737-.496 1.224-.3 2.612-.233 3.477-.894h.199v-.1c-.991.016-1.703.002-2.782 0l5.464-.397c.056.315.087.289.199.497.338-.112.489-.254.596-.597 1.694-.009 2.904-.037 4.47-.397 1.019-.234 2.074-.088 2.981-.298l4.57-.397c1.713-.41 3.876-.707 5.762-.696-.395-.242-1.044-.015-1.49 0-1.316.044-2.784-.057-3.974.2l-14.008.098-11.226-.496-8.048-.696c-1.603-.359-3.382-.206-5.066-.596-4.394-1.019-8.99-1.107-13.214-2.285-4.661-1.3-9.379-2.224-13.61-3.973-8.852-3.66-16.643-8.414-23.844-13.71-2.664-1.96-4.917-4.465-7.55-6.459-1.031-.78-1.828-1.884-2.882-2.682l-1.59-1.69-2.483-2.284c-.151-.151-.292-.316-.436-.481a70 70 0 0 1 6.485-6.425c.183.786.293 1.687.707 2.236v.2c.065-.086.134-.313.198-.398.001-.001 0-.197.1-.1v.1c.24.212.217.625.397.894l.1.199h.198c-.083-.34-.05-.253-.298-.398.064-.17.02-.097.1-.198.001-.002-.001-.198.1-.1v.1c.368.263.476 1.002.694 1.39.34-.083.253-.049.398-.297.433.597.519 1.243 1.092 1.688v.2c.08-.117.08-.167.1-.398h.198c.249.379.499.914.796 1.291v.199c.08.19.099-.199.099-.199.29.128.708.45.894.696h.199c-.088-.117-.081-.113-.199-.2.022-.23.02-.279.1-.396.102-.08.024-.037.198-.1.167.18.326.314.596.398v.099h-.1c-.063.172-.019.097-.099.199-.103.134-.154-.04-.397-.1v.1c-.29.405.951 1.515 1.093 1.987h.397c.07.65.392.618.696.993l.297-.894h.1c.103.15.147.197.298.298-.026.542-.143.774.1 1.093v.199h.297c-.05-.212-.088-.36-.198-.497v-.1c.667.448 1.359.976 2.086 1.391.064.172.02.098.1.2v.496c-.172-.064-.098-.02-.2-.1h-.297c.063.222.073.263.198.398v.199c.268-.165.1.016.1-.299.95.482.94 1.306 1.49 2.187.18.288.51.499.695.794.088-.128.092-.245.1-.497.107.091.009-.008.1.1.42.404.149 1.061.694 1.39v.1h.1c.065-.25.029-.054 0-.298l.298.199v.298c1.399.104 1.485 1.268 3.08 1.291.144.953.853 1.329 1.39 1.888.252-.011.369-.013.497-.1.085-.166.048-.307-.1-.497.04-.204.025-.19.1-.297.062-.078.004-.026.1 0 .34.27.696.77.993 1.092l-1.093.199c.047.447.129.425.298.696h.298c-.121-.224-.171-.2-.397-.299v-.297c.835.187 1.096.699 1.689 1.092-.135.159-.06.115-.298.199.411.366 1.036.356 1.59.596.71.309 1.182.878 1.788 1.093.742.263.922-.381 1.192.497l.298.099a.9.9 0 0 1 .298-.298c.138-.072.126-.032.298.1h.199c-.087.116-.08.112-.2.198.374.343.99.268 1.293.695.068-.076.13-.221.198-.298v-.099h.1c.642 1.015 1.544 1.672 2.384 2.484h.298c-.088-.328-.156-.432-.397-.596v-.1c1.085.709 2.535 1.593 3.875 1.988l-.1.993c-.302-.044-.962-.422-1.192-.597h-.199c.066.124.108.206.199.299.478.972 2.47.379 2.881 1.39.117-.086.113-.08.199-.198.23.073.221.103.397.199v.397c.378.008.763.037.993.199h.398c-.336-.584-.792-1.264-1.689-1.292.23-.406 1.479-.274 2.086-.199v.1h-.1c.059 1.066.933 1.217 1.59 1.689l.398.496c.742.382 1.84.073 2.484.497h.198l-.496-.695c-.153-.257-.369.027-.696-.2-.397-.163-.46-.558-.795-.794v-.099c.388.187 1.03.324 1.391.596.203.152.218.492.497.596l1.093.1c.388.163.481.546.894.695-.152.104-.408.105-.696.1.117.08.166.08.398.098.09.237.121.443.298.597v.099h.198c-.066-.124-.108-.205-.198-.298v-.099c.292.067.436.105.596.298.313-.16.12-.065.1-.398.411.074 1.055.359 1.092.398 0 0 .39-.023.198-.1h-.099v-.099c1.01.25 3.142.646 3.279 1.788.439-.262.471.194.993.298 1.174-.86 3.056.126 4.372.596.899.322 1.63.036 2.384.795h.199c-.14-.196-.13-.209-.397-.298v-.1l.596.1v.298c.922.295 1.522-.18 2.384.696.112-.2.051-.179 0-.398 1.27.163 2.67.586 3.775.894.424.12 1.393-.142 1.888.199l.1.298c.183.122.623.236.794.298.821.3 1.611.042 2.285.497.271-.003.455-.004.596-.1h.1v-.099c-.698-.236-1.438-.004-1.988-.497h-.099v-.099c1.514.31 4.237.343 5.365 1.292h.298c-.067-.124-.108-.206-.199-.298v-.1c1.174.008 4.595.203 5.365.895h.497c-.131-.242.046-.07-.199-.2v-.098c1.765.005 3.683.321 5.265.496l.104.009c.058.159.017.09.095.19.097-.026.045.03.1-.1h.198v-.079c.761-.004 1.616-.119 2.186.278.247-.146.116.024.199-.298.479.063.688.296.994.398.642.213.984-.24 1.29-.299 1.307-.253 2.81.431 3.577.1.66-.285 1.954.098 2.385.199 1.017.237 2.251-.114 3.08-.299h2.682l6.259-.397 6.33-.75zm-30.859 72.343a69.2 69.2 0 0 1-37.46 10.976c-32.454 0-59.843-22.386-67.523-52.504a3.7 3.7 0 0 0 1.054-.062c.667-.149 1.635-.029 1.888.298.443-.022.37.059.397-.198h.1v.099c.443.022.37-.059.397.198-.026.1.019.053-.199.1.69.42 2.775-.322 3.477.198h.398c-.102-.08-.025-.036-.199-.099v-.199c.689.1 2.363.62 2.881.298.226-.134.217-.347.298-.595.322.005 2.13-.028 2.484.198h.895a2 2 0 0 0-.597-.596v-.099c.568.215 1.356.477 1.987.298.227.1.594.426.894.496.42.1.763-.197 1.391-.099-.107.075-.092.063-.298.1.592.46 1.813.558 2.583.794h1.689c.172.063.186.318.298.398.082.058 1.172-.176 1.49-.1.88.212 1.995.477 2.782.597.227.034.549-.225.894-.1 1.049.38 3.271.867 4.173 1.093.408.102 1.128-.26 1.689-.1.421.12 1.382.53 1.788.1.636.083.505.4.894.596.584.294 1.892.082 2.583.398.073.245.07.25 0 .496.172-.064.097-.019.199-.099h.695c-.13.242.047.07-.199.199.278.245.597.128.895.198.184-.282.457-.48.596-.794 1.06.061 1.494.494 2.185.794l1.391.1c.29.089.47.39.696.496.726.346 1.959.474 2.88.497.066.25.03.054 0 .298.205-.04.192-.025.3-.1.437.027.74.28 1.092.597v.1c.075-.108.062-.092.1-.299.267.07.43.137.595.298.302.188.156.204.1.497.203-.04.191-.025.298-.1.075.108.062.092.099.299.5 0 .75.025.894.397h.894c-.106-.075-.091-.062-.298-.1l.2-.397c.757.113 1.11.615 1.688.795.311.097.658-.174 1.192 0 .227.074.242.24.596.298-.087.117-.08.113-.198.199.183.1.643-.045.993.099-.283.23 1.342.629 1.59.795l.099.298c.58.383 1.472.202 1.987.596.262.174.138.007.1.298 1.003.234 2.48.458 3.278.993.484.327.894.832 1.49 1.094 2.017.886 4.249 1.332 6.259 2.285.393.185.698.686 1.093.894.653.343 1.303.391 1.987.695 1.159.515 3.522 1.755 4.371 2.583.31-.071.208-.065.397-.199.168.244.443.444.696.597-.103.08-.025.036-.2.1.249.317.808.527 1.193.694.097-.025.045.03.1-.1 1.731.582 3.013 1.838 4.37 2.783.645.448 1.46.612 2.087 1.093.211.161.17.63.398.795.514.368 1.44.427 1.987.794.16.108-.031.275 0 .298h.297c1.039.678 1.879 1.839 2.882 2.583 1.379 1.024 2.527 2.27 3.974 3.18.646.406.919 1.32 1.49 1.788.328.269.833.248 1.192.497.345.238.363.842.696 1.092.25.189.541.212.795.398.34.25.35.635.595.993l1.49 1.391c.209.319.187.699.398.994.378.527 1.034.941 1.39 1.49.136.208.051.481.2.695.06.088.169.174.308.261m-73.23-99.907a1.3 1.3 0 0 1 .397.596h-.1c-.152-.245-.227-.226-.297-.596m10.73 10.034h.198v.1h.199v.099h.199v.099c-.175-.063-.097-.019-.2-.1-.174-.062-.095-.019-.198-.099-.174-.062-.096-.019-.199-.099zm7.053 3.576c.682.04.94.34 1.49.497v.1h-.497c-.24-.293-.794-.29-.993-.597M92.5 77.905h.2v.1c-.175-.063-.098-.02-.2-.1m6.856 2.385c.08.101.035.027.099.199h-.1v-.2zm10.53 2.781h.2v.1h.397v.198h-.199c-.074-.086-.125-.111-.199-.198-.174-.063-.096-.019-.198-.1zm2.683.994h.199v.1h.497l.198.297h-.198c-.134-.122-.357-.18-.497-.298-.175-.062-.097-.019-.2-.1zm1.987.298.298.1v.099c-.238-.084-.163-.04-.298-.2zm.993 0c.197.166.286.45.398.695h-.199v-.1c-.164-.177-.173-.249-.199-.595m-39.044.596c.252.007.37.012.497.1-.251-.008-.369-.012-.497-.1m44.31.894a1.7 1.7 0 0 1 .894.199v.1h-.398c-.17-.127-.357-.138-.496-.299m7.153.398.795.497v.099h-.398c-.101-.08-.027-.036-.198-.1-.084-.185-.138-.264-.199-.496m10.432 1.291.794.298v.1h-.298c-.161-.156-.354-.217-.496-.398m5.265 0h.198v.1c-.174-.063-.096-.02-.198-.1m.795 0c.26.016.337.043.497.1v.099h-.894v-.1c.23-.019.28-.019.397-.099m1.093 0 .298.1v.099c-.237-.084-.164-.04-.298-.199m-.398.497c.237.084.163.04.298.199h.1v.099h-.398c-.073-.087-.125-.112-.198-.199.174-.062.096-.019.198-.1zm-3.576 2.483c.056.071.143.005.099.2h-.1v.098h-.098c-.195.164-.466.247-.696.1.394-.044.608-.154.795-.398m-86.632 17.884c.125.051.301.118.397.198-.444.004-.369.153-.397-.198m-.596.595c.251.008.37.012.497.1-.252-.008-.37-.012-.497-.1m45.8 3.875c.205.037.19.024.297.1-.206-.038-.19-.025-.298-.1zm39.64 22.055c.08.102.035.028.099.199h-.1v-.199zm-20.793-87.566h.227c.011.21.444.476.727.546v-.046c-.053-.039-.05-.037-.09-.09h.318c.128.103.337.165.545.181.02-.063.054-.22.09-.272.129.095 1.158.263 1.364.272.061-.137-.03-.122.227-.136.27.177.636.056.954.09l.727.228c-.061.086-.058.04-.091.182h.046v.045c.248-.114.332-.04.545.09.049-.186.12-.204.227-.317h.409v.045c-.113.06-.031-.019-.091.091.147.038.07-.023.136.091-.08.029-.044.01-.09.046.49-.001.578.255.954.362-.061.087-.058.04-.091.183h.182c.071.114.13.178.272.227.025-.06 0-.034.045-.046a13 13 0 0 1 1.59 1.272c.274.257.249.61.682.727-.002.132-.044.064 0 .137.178.168.452.3.681.409v.045h-.181V52l.408.09v.091c-.003.004-.13.06-.09.091h.045c.19.308.483.518.727.773l.182.09c.017.03-.077.096-.045.182.047.129.197.36.272.5.207-.118.17-.077.41-.136v.273c-.032.035-.06.1-.092.136-.022-.165-.012-.166-.136-.227v.045h-.045c.105.219.278.488.363.727v.273c.123.342.444.612.545.999.017.065-.008 1.014 0 1.272l.227.091c.023.313.127.458.137.818h.181l.046 1.318c-.026.09-.154.206-.182.273.025.168.035.634-.091.817-.034.05-.154.059-.182.136-.103.29.046.624 0 .864h-.045c-.004-.116-.005-.17-.045-.228v.091c-.097.101-.146.247-.182.41h.046c.039-.055.037-.052.09-.092v.091c-.235.228-.156.44-.273.818-.195.639-.382 1.447-.817 1.863-.086-.08-.036-.084-.137-.046-.208.07-.12.176-.272.273v-.045c-.046-.045-.045.044-.046.045a1.16 1.16 0 0 0-.227.636c.141-.02.109-.032.227 0-.14.226-1.015.912-.908 1.227-.159.02-.182.055-.318.09v-.09c.233-.159.259-.44.363-.727h-.136c-.049.034-.043.027-.137.046v-.137c.285-.197.104-.203.455-.136.215-.337.286-.544.272-1.045h-.09c-.018.063-.954 1.408-.954 1.408-.168-.044-.365.222-.364.5-.091.124-.07.222-.045.363-.21.01-.258.023-.318.182-.037.046-.017.013-.046.091h.137a.8.8 0 0 1 .317-.136v.045c-.075.082-.079.115-.09.273-.327-.013-.523-.135-.637-.363-.746.483-1.535 1.252-2.498 1.68-.7.312-1.456.547-2.227.773l-1.453.227h-.682c-.81 0-1.493-.11-2.181-.136v.09c.098.114.07.116.046.273.147.038.068-.022.136.091h-.409c-.153-.091-.306.048-.455 0-.163-.053-.304-.254-.5-.318v.046c-.03.035-.059.101-.09.135-.119-.06-.139.044-.182 0-.268-.126-.514-.319-.772-.453-.712-.372-1.45-.668-2.09-1.091-.367-.242-.797-.462-1-.863-.06.01-.13.095-.136.091l-.046-.137c-.105-.049-.244.004-.318-.045-.08-.112-.107-.348-.136-.5h-.09c-.055.094-.032.086-.137.137v-.046c-.226-.15-1.262-1.543-1.318-1.818.13-.05.084-.007.136-.135h-.045c-.058.112.02.03-.09.09-.169-.245-.438-.329-.455-.727-.25-.3-.096-.51 0-.772-.069-.024-.077-.03-.182-.046-.04.055-.037.051-.09.091-.054-.382-.322-.552-.455-.818-.138-.277-.29-1.01-.364-1.317v-.59h-.09l-.046-.273c-.049.04-.004-.003-.046.045-.04.042-.06.08-.09.136h-.046v-.227c-.151-.23.054-.419.091-.545.021-.07-.046-.198-.045-.318-.144-.104-.218-.207-.227-.455h.045v.091a1 1 0 0 1 .136.182h.046v-.09c.034-.05.027-.044.045-.137-.146-.095-.201-.189-.227-.409h.09c.014.106.022.113.046.182.05-.041.004.004.046-.046.056-.083.05-.259.045-.409h-.045c-.072.083-.04.064-.182.091-.008-1.121.433-2.767.909-3.453.152-.22.07-.452.41-.5-.025.1-.053.091 0 .182.045-.037.01-.016.09-.045l.136-.227a.5.5 0 0 1-.182-.228c-.082.056-.113.118-.182.182v-.272c.12-.215-.106-.42 0-.682.126-.31.45-.52.637-.772.194-.265.307-.548.5-.818a12 12 0 0 1 .817-.773c.036-.02.1.105.182.046s.233-.614.454-.773c.088-.062.409-.09.409-.09s.13-.403.182-.455c.228-.235.549-.232.773-.545.112.047.131.09.226.045.298-.098.434-.402.682-.545.075-.043.452.003.454 0 .058-.046.073-.18.136-.227.215-.16.416-.205.546-.454h.045c-.003.132-.044.063 0 .136.223-.302.747-.095 1.045-.318.037-.047.016-.013.046-.091-.055-.04-.051-.037-.091-.09.58-.022.674-.388 1.272-.41a.7.7 0 0 1 .046.228h.136v-.092c.04-.058.04-.112.045-.227m4.998 1.181c.088.141.294.257.41.182-.081-.028-.045-.009-.092-.045.074-.061.051-.029.091-.137h-.41zm4.952 3.408v.091c.054.04.052.037.091.091h.046v-.045l.09-.046c-.046-.036-.012-.016-.09-.045-.049-.035-.043-.027-.137-.046m1.818 3.18.182.546c.159.09.325.189.499.273-.183-.39-.234-.61-.681-.819m.59 2.409v.363c.06.022.18.056.227.091h-.18v.364h.044v-.046h.046c.1-.22.202-.432.227-.727a1.2 1.2 0 0 0-.364-.045m.046 2.09v.181h.09v-.09c-.04-.034-.05-.058-.09-.091m-.41 2.908h.183c.06-.175.048-.483.045-.727-.055-.072-.08-.202-.137-.273v.09c-.177.226-.063.338-.044.637-.05.042-.004-.003-.046.046h-.045c-.018-.095-.012-.088-.046-.137v.046c-.175.23-.286.705-.363 1l.045.135c-.054.135-.189.151-.227.364a1.2 1.2 0 0 1 .227.182c.08-.03.044-.01.091-.046.148-.047.178-.08.227-.226.15-.24-.068-.54 0-.819.019-.077.075-.145.09-.272m.864-.954c.037.046.016.012.046.09h-.046zm-1.181 1.5c.036.045.016.011.045.09h-.045zm.045 1.362c.037.047.016.012.046.091h-.046zm-.136.182c.083.07.064.04.091.181-.031.035-.06.102-.091.137v-.09c-.095-.114-.063-.073 0-.228m-.954.273c.056.07.029.022 0 .09-.038.109-.018.075-.091.136-.041.05.004.004-.046.046v-.09c.074-.058.092-.096.137-.182m-.227.363c.036.046.016.013.045.09h-.045zm.136.136h.09c-.04.05.004.004-.044.046-.032.006-.09.002-.046-.046m-.59.908v-.135c.111-.07.103-.104.272-.137v.046c-.06.062-.097.144-.136.226h-.137zm.817-.272c.04.086.021.034 0 .137-.049-.042-.004.003-.046-.046-.048-.041-.003.003-.045-.045.08-.029.044-.009.091-.046m-.954.318c.016.014.09.024.046.091-.05-.022-.142-.08-.046-.09zm-.727.273-.046.09c.08-.063.046-.09.046-.09m.954.181c.042.087.018.054 0 .182-.036-.046-.016-.012-.045-.09-.05-.042-.004.003-.046-.046.08-.029.045-.008.091-.046m-.635.5c.111.059.03-.02.09.091-.12.124-.064.166-.318.182-.078.04-.058.04-.137 0h.092c.078-.117.19-.165.273-.273m-.682.773-.273.045v-.045c.054-.04.051-.038.091-.091-.147-.057-.155-.018-.182-.182.103-.099.114-.171.273-.227v.045c.036.054.035.077.045.182-.034.049-.027.043-.045.136h.045a.46.46 0 0 1 .273-.227v.045c-.13.081-.194.133-.227.319m.045-.091h.09v.046c-.079-.03-.043-.01-.09-.046m-1.227.09h.228v.046c-.05.042-.005-.004-.046.046-.111.055-.175.119-.272.181v-.136c.073-.061.05-.03.09-.136zm.682.137h.09c-.04.05.005.004-.045.045a.45.45 0 0 1-.272.227l-.046-.136c.153-.022.191-.052.273-.136m-.364.182h.091c-.04.054-.037.05-.09.09-.042.05.003.005-.046.046zm.5.136c.057.071.03.023 0 .091-.05.162-.088.196-.273.227-.045-.037-.012-.016-.09-.045v-.09c.18-.021.277-.071.363-.183m-.681.091c.016.014.09.024.045.091-.05-.022-.142-.081-.045-.091m-1.363.045c.173.022.237.075.363.137v.045h-.09c-.145-.097-.369-.019-.546 0v-.09c.05-.042.004.003.046-.046.137.03.127.061.227-.046m.545.182c.016.014.09.023.045.09-.05-.022-.141-.08-.045-.09m-.228.137c.095.016.088.01.137.045a.4.4 0 0 0-.137.136h-.044c-.03-.08-.01-.044-.046-.09v-.046c.08-.029.044-.01.09-.045m.41 0 .182.045v.046c-.204-.01-.173.026-.182-.091m-1.046.045c.106.013.113.02.183.046a.4.4 0 0 1-.137.181c-.042.05.003.004-.046.046zm1.455 0c.036.046.015.012.045.09h-.045zm-1 .227h.09c-.072.165-.087.08 0 .227-.118.007-.153.02-.226.046v-.091c.073-.057.09-.095.136-.182m-1.181.182h.09c-.04.049.004.004-.045.045-.031.006-.088.003-.045-.045m-1.773.136c.058.024.139.054.182.09-.123.001-.209 0-.272-.044.08-.03.044-.01.09-.046m1.636.181h.091c-.04.055-.037.052-.09.092-.042.049.003.003-.046.045zm-1.817.046a.9.9 0 0 1 .318.046v.045c-.377 0-.718.109-1 .227v-.136l.091-.046c.087-.057.445-.02.59-.136zm1.363 0h.09c-.008.146-.033.057.046.182h-.318v-.046h.046c.045-.061.087-.081.136-.136m.454.136a.7.7 0 0 1 .227.046l-.045.09a.8.8 0 0 1-.272.046l-.046-.09c.109-.039.075-.019.136-.092m-5.089.046c.058.024.138.055.182.09h-.045v.046l-.137.046zm2.045 0h.091v.046c-.08-.03-.044-.01-.09-.046zm-2.499.136.136.046v.045c-.108-.038-.074-.018-.136-.09zm4.907 0h.091v.046c-.08-.029-.044-.01-.09-.046zm-.09.046h.09c-.041.049.003.004-.045.045v.046c-.037-.047-.016-.012-.046-.091zm-4.09.227c-.147-.038-.069.022-.136-.091h.045v-.045h.091z"/><path d="M100 0c55.078 0 100 44.923 100 100s-44.922 100-100 100S0 155.078 0 100 44.923 0 100 0M23.475 121.755l-9.054 2.09-.283-1.229 6.01-6.396-7.109 1.64-.265-1.148 9.053-2.09.284 1.23-6.016 6.397 7.114-1.643zm-.872 27.154c-.583-.711-1.065-.603-1.67-1.296.063-.437-.107-.632.19-1.053.056-.156.053-.131.237-.32.488.186.81.056 1.27.5-.074.482.48 1.057 1 .994.022-.461.217-.442-.091-1.013-.32-.033-.276-.029-.567-.373.228-.681-.118-.964.738-1.589l-.608-.653c.152-.336.481-.992.428-1.373-.533.071-1.092.465-1.737.594-.332.067-.867-.173-1.158-.117-.394.078-.684.535-1.003.545-2.882-.4 1.94-4.056 3.37-4.65.31.157.392.164.712.58l-.238.32c-.11.282-.595.584-.964.824.188.188.164.182.32.239.956.046 1.969-.595 2.925-.653 1.274-.078 3.054 1.016 4.308.23.588.025 1.89-.756 2.462-1.1-1.492-1.794-3.666-2.33-5.249-3.568-1.272-.995-1.124-1.771-.013-2.449 2.716 1.182 5.076 2.935 7.756 4.744 1.417-.155 2.957-.54 4.361-.576.061.226.05.114.04.279.2 1.178-1.506 1.32-2.267 2.039.183.711.565 1.655-.13 2.241-.496-.033-1.093.282-1.635.522-.432-.348-1.335-1.148-1.877-1.152-1.057-.045-2.062.881-3.196 1.148-1.002.236-1.42-.712-2.768-.225l.433.622c1.038.378 1.655 2.225 2.835 1.867-.05-.292-.358-.926-.234-1.22.686.189.988.286 1.598 1.193-.201.485-.4 1.112-.036 1.715 1.175.45 1.318 2.667 1.396 3.331-.882.62-.212.29-.612.887l-.828.576c-.825.968-1.846 2.017-3.128 2.791l-.113-.383-.31.216c-.455-.012-1.514-.882-1.877-1.152-.597-.443-.634-1.136-.73-1.49-.091-.335-.874-1.182-1.08-1.552-1.074.035-1.055-.222-2.399.747-.137.532-1.12 1.596-1.535 1.99-.446-.205-.71-.236-1.134-.748.17-.4.103-.492.612-.886.26-.713 1.526-1.56 2.196-2.143m59.59 25.078.786.199c.142.487.237.667.063 1.41-1.951 1.041-3.112 1.702-3.883 4.878.346.227.971.393 1.54.529.72-.244 2.933.841 3.605 1.19l-.066.262a.72.72 0 0 1-.198.787c-.393.677-1.18 1.157-2.07 1.011-.454.155-2.679-.534-3.278-.828-1.798-.882-8.116-.409-7.636-2.905.173-.154.237-.397.33-.754.32-.028.746.046 1.213.167.664.66 3.803.282 4.33-.022.315-.181.795-.827.988-1.145l.43-1.705c.158-.2.763-.037.526-.426l-.032-.426c-1.02-.022-4.143-.006-4.425-1.257.848-.197 1.916-.053 2.854-.256.588-.127 1.28-.42 1.937-.487 1.075-.11 2.113.19 2.986-.222m-7.76 6.968-.065.262 1.278.462c.155-.112-.008-.013.164-.098l.033-.131-.918-.232c-.128-.144-.195-.157-.491-.263zm-1.476.324-.525-.132c-.154.111.008.013-.164.097.025.251-.007.134.065.296.116.134.104.11.36.23.155-.112-.007-.013.165-.098zm85.203-38.567.433-.52c.537.071.75.088 1.403.64.037.419.35.791.4 1.211l-.398.901.226 1.42c-.092.813-.751.952-.033 1.732.715-.04 2.408.523 3.084 1.156.295.277.016.406.347.641.304.216 1.275.504 1.698.708 1.845.89 4.74 3.034 5.563 4.098-.095.399-.096.748-.398.901-.37.136-.288.082-.693-.224-.035-.293-.37-1.28-.902-1.454l-.363.226-2.062-1.54-3.31-1.52c-.605-.271-.423-.789-.762-.986l-.277.122c-1.125-.455-1.614-1.484-2.582-1.972-.695-.35-1.243-.475-1.837-1.176.194-1.399.648-2.986.463-4.364m5.38-6.257.345-.416c.589.11 1.042.207 1.698.708.06.47.29.623.105 1.143-.019.192-.065.242-.242.503a9.6 9.6 0 0 1-1.68-.518c.02-.427-.1-1.01-.227-1.42zm3.429.741.778-.936c.276.04.594.052.866.017 1.16.779 2.346 2.209 1.562 3.41l-.208-.173c.058-.499-.374-1.632-.833-1.748-.533-.172-.75.205-1.177.78.139.579-.062 1.25.071 1.818.18.768.639 1.47.591 2.25-.034.564-.366 1.111-.327 1.664.08 1.11.893 1.842-.101 3.082a2.1 2.1 0 0 1-.606-.329c-.139-.465-.729-.62-.971-1.159-.067-.148.13-.49.034-.675-.269-.175-.877-.468-1.127-.76-.46-.54-.915-1.773-1.283-2.476l.086-.104.104.087c.558.084 1.64 1.354 2.27 1.711l.26-.311c-.47-1.337-.739-3.572-.456-4.952.107-.52.528-.716.467-1.196m-5.896 8.994.259-.312c1.678.347 2.65-1.006 4.555.445-.097 1 .677 1.281-.257 2.425-.703.03-1.133.632-1.888.366l.173-.208c.065-.3.594-.718.761-1.127-.33.01-.507.059-.866-.016l.433-.52c.368.079.033.103.38-.035-.048-.193-.045-.183-.034-.381l-.104-.086c-1.301 1.206-2.183.552-3.412-.551m9.068-5.828c.34-.057.294-.05.693.224.1.23.248.249.624.52-.261 1.336-.437 2.218-1.676 3.707-.39-.054-.435.041-.884-.207-.036-.172.003-.06-.121-.277.322-1.105 1.35-2.805 1.364-3.967m6.302-1.444.432-.52c.628.08 1.515-.047 2.13.188l.936.779c.488.217 1.15.091 1.56.24.54.197.934.563 1.316.744-.36 1.028.556 1.958.366 2.943-.13.672-.72 1.023-1.089 1.733-1.683 3.236-4.556 2.837-7.028 1.895l-.173.208c.348.942.446 1.994.747 2.908l.798 1.367c.034.23-.162.347-.328.607-.29.007-.465.196-.745.26-.175-.004-.06.014-.294-.068-.024-.276-1.139-3.857-1.234-4.017-.178-.3-.56-.174-.728-.605-.274-.707-.033-1.43-.487-2.164l-.173.208c-.007.003-1.6 2.954-2.247 3.76-.326-.046-.42.017-.78-.12l.156-.399c.038-1.088 1.078-1.958 1.538-3.119.41-1.034.601-2.122.776-3.048.101-.533.425-1.657.604-1.784.346-.233.47-.276.849-.174.192.018.241.065.502.241-.352.85.213 4.49.958 5.195 1.043-.453 1.347-.002 2.407.066 1.81.118 5.519-2.951 3.58-4.939-.322.055-.213.069-.59-.138.07-.379.122-.579-.087-.952-.176-.005-.06.013-.294-.07l-.087.105c.358.331.344.025.14.467l-.209-.173c-.837-.225-.911-1.085-1.56-1.297-.53-.172-.952.11-1.662-.327m-30.166 18.025.55-.238c.283.248.572.462.905.585 1.02 2.23.264 4.09-.9 5.442l-.297-.685c.391-1.562.745-3.71-.258-5.104m-5.011 3.477c.686-.106 1.123.108 1.496.818.552.262.917 1.069.517 1.569-.118.092-.005.13-.138.06-.673-.248-1.775-1.799-1.875-2.447m-1.999 1.03.55-.239.118.275c.714.492.718 3.44.253 3.965-.126.197-.286.27-.627.435l-.315-.353c-.502-.34-.44-.843-.595-1.371.405-.676.517-1.927.616-2.713zm1 8.693.297.686.137-.059.06.137c.77-.585.954-1.345 1.445-1.93l.9-.554c1.801-2.199 3.878-6.039 7.55-7.022.319.383.446.375.75.978l.064 1.276-.352.315-.06-.137c-.839-.64-.43-1.435-1.829-.836-.76 1.296-2.286 1.9-3.384 3.097-.973 1.06-2.256 2.917-3.104 4.117-.488.69-1.597 1.098-1.582 1.99-.105.786.412 1.121-.228 1.729l-.06-.137c-1.085-.558-.996-2.537-1.016-3.471zm10.572-7.192c.176.284-.078.21.256.214-.191-.203-.084-.121-.256-.214m-.604 1.24.746-.161.298.686c-.24.304-.212.358-.705.631-.156-.372-.409-.508-.339-1.157zm-.74 1.298.823-.357.12.275-.138.06.256.214-.137.06c-.103.167-.094.138-.352.315-.188-.05-.059-.032-.334-.018zm-5.326 8.015c-.21-.492-.259-.77-.34-1.157 1.914-1.718 2.527-3.969 4.788-5.499.397.272.497.192.828.782-.22.668.087 1.683.266 2.493-.176.163-.192.193-.49.375l-.315-.353c.297-.679.226-1.85-.85-1.586-.257.639-3.19 4.589-3.887 4.945m4.76-2.554c.692-.196.801.168 1.336.073l1.038-.613 1.354-.26c.434.342.72.869 1.047 1.663-.334.366-1.05 1.164-1.092 1.615-.125 1.346 1.107 2.341.014 3.417-.184.36-.484.623-.918.887-1.92-1.28-3.375-.123-5.461-.565-.168-.103-.14-.095-.316-.352.362-.831.344-1.849.813-2.635.704-1.18 1.738-1.966 2.185-3.23m-.94 4.972.178.412c.872.115 2.16.085 3.16-.23.083-.684.157-1.097-.224-2.021a2.7 2.7 0 0 1-.728-.174c-.79.91-1.085 1.538-2.387 2.013zm-36.28-3.159-1.198.21c-.252.554-.535.59-.433 1.45.477.453.382 1.096.46 1.841.738-.146 1.042-.275 1.598-.28.13.235.218.5.296.91-.238.388-.398 1.073-.566 1.472-.58-.046-.655-.122-1.222.076-.397 1.118.356 1.985.16 3.267-.031.205-.405.468-.44.626l.577 2.509c.396.205.314.371.893.392.21-.623.664-.984 1.435-1.212l.047.266c-.255.342-.24.832-.48 1.183-.576.84-1.458.819-1.249 2.278.691.525 1.466 1.705 1.446 2.767-.46.293-.701.5-1.396.657-.2-.362-.32-.998-.413-1.575.08-.257-.682-1.718-1.039-2.016-.193-.086-.35-.061-.69-.016.071-.84.513-.907.317-2.115-.135-.138-.142-.206-.227-.51-.303.094-.32.118-.51.227-.19.743-.494 1.377-.426 2.271l.667-.116.093.533c-1.228.477-.795 1.277-2.345 1.508-.394-.358-.541-.202-.72-.972 1.142-1.554 1.236-3.523 1.935-5.419.135-.363.542-.375.707-.673.375-.678.326-1.924.176-2.914l-.266.047c-.231-.104-.569-.042-.956.03-.357.722-1.3 1.028-1.922 1.572s-.922 1.661-1.539 2.192c-.395.34-.747.288-.972.719-.299.57-.237 1.024-.856 1.385l-.023-.133c-.44-.189-.712-.514-1.096-.77l.063-.422c2.03-1.32 2.86-3.587 4.74-5.086.746-.595 2.44-1.162 2.65-2.112.142-.32-.022-1-.123-1.489-1.045.238-1.17.855-2.125 1.196-.441-.472-.77-.697-1.079-1.459.625-.523 1.52-1.13 2.345-1.508l.932-.163c1.01-.583.24-.987 2.368-1.376.217.275.271.261.407.752zm8.33-1.046.4-.07c.671.692 1.705.76 2.105 1.829-.241.388-.17 1.211-.096 1.802-.387.318-.986.672-1.013 1.275.512.155.864.154 1.096.77-.377.542-.442 1.34-.919 1.808-.302.296-.677.287-.996.586-.388.364-.104.639-.77 1.096.458.681 1.187.701 1.59 1.232.628.829.209 1.835.443 2.532l.313.22c.55 1.149.552 2.58.716 3.307.996-.246 1.976-.64 2.381.27-.25.355.03.87-.19 1.268-.382.692-2.626 1.574-3.503 1.163-1.122-.142-1.72-.92-1.932-2.408.786-.883-.51-1.836-.78-2.884.786-.502 1.46-.43 1.21-1.722-.528-.454-1.794-1.595-2.042-2.252.083-.155.04-.045.086-.29.94-.537 1.703-1.497 1.579-2.748-.749-.216-1.175-.85-1.942-.895-.222.334-.492.556-.66.94l-.422-.064-.83-.816-.436-1.708c.045-.497 1.527-2.834 1.932-3.085.314-.195.96-.043 1.088-.053.473-.035 1.405-.782 1.593-1.103zm-.559 2.295c-.702.899-1.98 1.303-1.845 2.794.144.103.218.203.336.354.925-.658 2.36-1.709 2.355-3.021-.332-.11-.338-.166-.846-.127m-66.07-16.215c2.26.896 4.007 2.228 3.856 4.029.347 1.234-2.082 4.419-3.003 4.89-.19.036-.25.005-.55-.091-.138-.322 0-.272-.319-.286l-.124-.053c-.081.47-.34.635-.732 1.009-.989-.005-1.144-.492-2.217-.666l-1.117-.484c-.915.012-.773.671-2.238.062-.055-.183.014-.006-.07-.178.344-.95.28-1.84.454-2.75l.662-1.187c.976-1.795 1.072-3.713 2.54-4.501.774-.416 1.973.362 2.858.206m-1.162 2.002c-.63.239-1.182.064-1.655.758.116.38-.061.83.244 1.137.747.75 2.03.627 2.09 1.642.038.208-.022.354-.146.674-.297.043-.635.34-.889.352-.646.032-.892-.513-1.402-.165l-.124-.054-.054.124.124.054c.268.481.946.647 1.274 1.141.183.275-.037.518.228.836l.108-.248c.29-.198.32-.699.607-1.063.822-1.04 1.895-1.548 2.25-3.152l-.67-1.175-1.985-.86zm3.285 4.666.161-.372-.372-.161-.232.194-.124-.054-.054.124.62.27zm-.534.211-.037.427.248.107.054-.124c-.224-.23-.133-.185-.265-.41m-5.092-1.174c.083.154.015.059.194.231-.083-.154-.015-.058-.194-.231m4.07 3.532-.322.745-.248-.108c.163-.357.194-.12.161-.372-.17.045-.053.03-.302.016l.161-.372c.184-.055.006.014.178-.07zm-4.616 8.613c-.689-.24-1.262 0-1.969-.559-.62-.49-.871-1.152-1.662-1.604-.612.477-1.1.841-2.098.417-.396-1.474-2.048-2.619-1.456-4.463.237-.098.434-.28.64-.46l.25.109c.078.701.38 1.487 1.075 1.94l.107-.249 1.572-2.266c3.16-.57 5.269-1.156 8.857 1.33.103.578.332 1.328.17 1.99-.188.767-1.138 1.148-1.552 1.54a53 53 0 0 0-1.55 1.538l-.145.675-1.94 1.075c-.383-.33-.432-.47-.299-1.013m1.853-5.978c-.491.138-.698-.234-1.348-.29-.836-.07-2.614.064-3.305.485l-.124-.054c-.177.072.069.176.07.178.535.588 2.454.589 2.995 1.593.098.282.084.334-.02.727-.342.067-.463.219-.836.228-1.009.164-2.433-1.657-3.438-1.932l-.732 1.01c.223.323.159.407.583.695.796.545 3.674 1.198 4.716 2.043.728-1.602 2.079-1.282 2.904-2.28-.66-1.239.715-1.51-1.465-2.403m.786 3.289-.107.248.248.108c.171-.086-.004-.015.178-.07l.054-.125zm-1.998 2.23-.037.426.125.053.161-.372zm-23.087-24.056c.624 1.031 1.023 1.795 2.188.936 1.686.14 2.794-2.74 1.84-4.2-.052-.314-.642-.681-.999-.994-.816.03-1.826-.231-2.624-.018.342.612.658 1.046-.211 1.683-.363-.124-1.197-.34-1.58-.283l.072.104c-.16.573-.32.847.17 1.57.084.48.81.73.834 1.418zm1.04-5.793c-.93-.147-1.398-1.353-2.436-1.071-.235.003-.496.187-.796.4.067.242.183.474.4.797.507.122.62.475 1.229.22.071-.183.191-.27.446-.463a1.96 1.96 0 0 0 1.166.572l-.072-.104c.162-.312.101-.004.063-.35zm-.374.567c-.258-.012-.359-.073-.599-.198-.136.192-.086.09-.135.248l-.103.072.144.207c.448.012.597.222.693-.329m2.283 7.477-.207.144.072.103c.136-.191.086-.09.135-.247m-4.902-5.5-.31.216c.187.188.163.181.319.238l.072.104.103-.072-.072-.104.104-.072zm-3.5-35.01-9.517-2.913-.092-1.32 9.003-4.442.098 1.398-2.733 1.277.272 3.876 2.878.82zm-3.993-2.407-.22-3.145-2.498 1.149q-1.139.522-1.877.79a12 12 0 0 1 1.807.377zm3.263-7.947-9.29-.162.022-1.26 7.38-4.753-7.294-.128.02-1.179 9.29.162-.022 1.262-7.385 4.752 7.3.128zM19.61 82.45l.52-1.159q1.424.643 2.034 1.771c.61 1.128.524 1.604.356 2.558q-.261 1.478-1.025 2.3c-.764.822-1.176.915-1.994 1.102a6.4 6.4 0 0 1-2.539.052q-1.43-.253-2.397-.986a3.8 3.8 0 0 1-1.343-1.84 4.6 4.6 0 0 1-.16-2.315q.241-1.375 1.106-2.187c.865-.812 1.307-.86 2.196-.956l.07 1.24q-1.054.142-1.617.668c-.563.526-.616.829-.725 1.443q-.186 1.054.195 1.85a2.7 2.7 0 0 0 1.184 1.235 5.5 5.5 0 0 0 1.705.597q1.168.206 2.098.021c.93-.185 1.116-.4 1.489-.83a3 3 0 0 0 .704-1.478q.179-1.016-.282-1.825c-.461-.809-.835-.96-1.575-1.262zm4.027-2.762-8.73-3.178.42-1.156 3.586 1.305 1.651-4.537-3.585-1.305.42-1.157 8.732 3.178-.422 1.157-4.114-1.498-1.651 4.537 4.114 1.497zm2.982-8.611-6.912-7.161.56-1.2 10.027.48-.592 1.269-3.009-.207-1.642 3.522 2.12 2.113zm-2.326-4.042 1.332-2.856-2.741-.207a25 25 0 0 1-2.026-.219q.736.539 1.398 1.206zm6.814-5.232-7.703-5.196.705-1.045 8.777.033-6.047-4.08.659-.977 7.703 5.196-.706 1.045-8.782-.037 6.053 4.084zm5.74-14.162-.808-.729 2.628-2.928 2.56 2.305a7 7 0 0 1-.441 2.118q-.375.96-1.053 1.713-.917 1.018-2.1 1.456a3.87 3.87 0 0 1-2.39.122q-1.206-.318-2.224-1.235a5.74 5.74 0 0 1-1.5-2.116q-.497-1.209-.208-2.381c.289-1.172.599-1.516 1.218-2.204q.674-.749 1.462-1.135c.788-.386 1.035-.374 1.53-.341s1.028.196 1.602.494l-.516 1.028q-.671-.319-1.177-.361c-.506-.042-.7.05-1.077.227a3.25 3.25 0 0 0-1.038.786q-.564.628-.784 1.256c-.22.628-.201.815-.162 1.19a3.2 3.2 0 0 0 .29 1.05q.401.84 1.151 1.515.923.83 1.832 1.073a2.74 2.74 0 0 0 1.757-.095 3.86 3.86 0 0 0 1.463-1.017q.536-.597.814-1.367c.278-.77.282-.944.284-1.295l-1.286-1.158zm12.03-6.84-6.096-7.013.927-.806 6.096 7.012zm3.174-2.643-5.461-7.516 1.02-.742 8.236 3.033-4.288-5.901.954-.693 5.46 7.517-1.02.74-8.24-3.038 4.292 5.907zm6.643-8.185.986-.617q.39.584.862.846c.472.262.7.247 1.16.22s.925-.163 1.395-.403a3.4 3.4 0 0 0 1.012-.749q.386-.432.455-.875a1.34 1.34 0 0 0-.126-.83 1.2 1.2 0 0 0-.574-.564q-.374-.176-.993-.108-.4.04-1.68.346c-1.28.306-1.474.304-1.861.298q-.751-.008-1.278-.32a2.13 2.13 0 0 1-.815-.884 2.35 2.35 0 0 1-.241-1.351q.078-.728.617-1.358a4.4 4.4 0 0 1 1.375-1.055q.921-.47 1.776-.531c.855-.061 1.077.065 1.525.32a2.83 2.83 0 0 1 1.072 1.097l-1.01.615q-.486-.741-1.179-.893c-.693-.152-1.01.01-1.646.334q-.993.506-1.263 1.103c-.27.597-.183.767-.008 1.108q.227.45.696.57.464.129 1.952-.251c1.488-.38 1.694-.387 2.102-.406q.894-.033 1.498.3c.604.333.717.56.943 1.003s.311.92.257 1.438-.262 1.005-.623 1.464-.84.835-1.43 1.135q-1.125.575-2.05.632a2.95 2.95 0 0 1-1.695-.377 3.13 3.13 0 0 1-1.21-1.257zm12.295-2.62-3.069-7.597-2.838 1.147-.41-1.017 6.827-2.758.41 1.017-2.85 1.151 3.07 7.598zm6.175-2.057-2.561-8.932 1.18-.338 2.562 8.93zm6.312-1.592-1.843-7.984-2.983.689-.247-1.069 7.176-1.657.246 1.07-2.996.69 1.844 7.985zM95.02 12.75l1.228-.086.374 5.356q.097 1.395-.161 2.24c-.258.845-.523 1.035-1.049 1.416s-1.235.605-2.129.667q-1.302.092-2.16-.3a2.56 2.56 0 0 1-1.274-1.216q-.415-.826-.517-2.297l-.374-5.356 1.226-.086.374 5.35q.085 1.208.348 1.762c.263.554.456.647.833.829s.833.254 1.36.217q1.353-.094 1.885-.75c.532-.656.491-1.234.41-2.397zm7.029 9.245V13.8h-3.062v-1.096h7.364V13.8h-3.074v8.195zm6.301.402 1.293-9.2 6.652.934-.153 1.086-5.435-.763-.396 2.816 5.09.715-.151 1.08-5.09-.715-.44 3.132 5.649.794-.153 1.086zm16.8-1.288q.829-2.16 2.457-2.935c1.628-.775 2.24-.543 3.464-.073q1.2.462 1.945 1.405a4.03 4.03 0 0 1 .855 2.165q.112 1.22-.388 2.521-.506 1.32-1.438 2.157a3.9 3.9 0 0 1-2.113.999 4.6 4.6 0 0 1-2.312-.274q-1.228-.47-1.962-1.432a4.06 4.06 0 0 1-.842-2.177 5.24 5.24 0 0 1 .334-2.356m1.177.473q-.602 1.568-.107 2.793c.495 1.225.923 1.39 1.77 1.715q1.297.498 2.483-.092c1.186-.59 1.402-1.148 1.83-2.266q.406-1.057.35-1.986a2.96 2.96 0 0 0-.574-1.627 3.06 3.06 0 0 0-1.38-1.028 3.14 3.14 0 0 0-2.42.033q-1.2.5-1.952 2.458m7.602 8.035 4.217-8.279 5.586 2.846-.498.977-4.489-2.287-1.306 2.564 3.884 1.978-.498.978-3.884-1.979-1.915 3.76zm14.664 8.987 5.045-6.457-2.412-1.885.675-.864 5.803 4.534-.675.864-2.422-1.892-5.046 6.457zm4.802 4.08 6.336-6.795 4.912 4.581-.747.802-4.014-3.743-1.94 2.08 3.76 3.506-.745.797-3.759-3.505-2.157 2.313 4.173 3.89-.748.803zm13.235 9.798.532 1.153q-1.419.65-2.67.373c-1.251-.277-1.555-.657-2.164-1.41q-.945-1.167-1.063-2.282c-.118-1.115.08-1.488.476-2.228a6.4 6.4 0 0 1 1.627-1.95q1.127-.914 2.316-1.163a3.8 3.8 0 0 1 2.27.195q1.079.441 1.852 1.397.879 1.083.925 2.269c.046 1.186-.208 1.551-.719 2.285l-.983-.76q.585-.89.557-1.66c-.028-.77-.22-1.009-.613-1.493q-.673-.831-1.524-1.067a2.7 2.7 0 0 0-1.709.084 5.5 5.5 0 0 0-1.57.894q-.92.746-1.391 1.57c-.471.824-.43 1.105-.351 1.667s.298 1.062.655 1.503q.648.801 1.562.984c.914.183 1.271 0 1.985-.36zm-.484 4.938 8.046-4.645.616 1.066-3.305 1.908 2.414 4.181 3.304-1.908.616 1.066-8.046 4.645-.616-1.065 3.792-2.19-2.414-4.18-3.792 2.188zm4.931 8.694 8.421-3.927.533 1.143-4.549 7.506 6.611-3.083.499 1.068-8.42 3.927-.534-1.142 4.555-7.51-6.618 3.086zm8.088 7.596q2.212-.679 3.827.129c1.615.808 1.805 1.43 2.19 2.684q.373 1.23.09 2.398a4.03 4.03 0 0 1-1.18 2.007q-.893.84-2.226 1.247-1.353.414-2.585.194a3.9 3.9 0 0 1-2.088-1.05 4.6 4.6 0 0 1-1.208-1.99q-.385-1.258-.079-2.429c.306-1.171.601-1.45 1.197-2.004a5.2 5.2 0 0 1 2.062-1.186m.352 1.218q-1.607.49-2.266 1.635c-.659 1.145-.528 1.583-.262 2.451q.405 1.33 1.6 1.9c1.195.57 1.77.398 2.913.048q1.083-.331 1.78-.947c.697-.616.775-.895.93-1.455a3.05 3.05 0 0 0-.041-1.721 3.14 3.14 0 0 0-1.516-1.887q-1.132-.638-3.138-.024m-1.8 10.954 9.151-1.614.214 1.212-8.07 1.424.795 4.506-1.08.19zm5.951 7.4q2.314-.04 3.643 1.18c1.329 1.22 1.342 1.873 1.365 3.184q.02 1.285-.574 2.33a4.04 4.04 0 0 1-1.688 1.604q-1.089.56-2.483.584-1.415.027-2.538-.524a3.9 3.9 0 0 1-1.718-1.586 4.6 4.6 0 0 1-.612-2.247q-.024-1.313.593-2.356a4.05 4.05 0 0 1 1.703-1.595 5.2 5.2 0 0 1 2.31-.573zm.003 1.269q-1.68.03-2.63.948c-.95.918-.943 1.376-.927 2.283q.024 1.39 1.016 2.267c.992.877 1.59.87 2.786.85q1.132-.022 1.972-.42c.84-.398.991-.647 1.294-1.143a3.06 3.06 0 0 0 .436-1.665 3.14 3.14 0 0 0-.938-2.232q-.912-.925-3.01-.888zm-1.102 14.548 1.086.076-.269 3.926-3.437-.24a7 7 0 0 1-.956-1.941 5.6 5.6 0 0 1-.224-1.998c.063-.91.316-1.726.758-2.44a3.87 3.87 0 0 1 1.808-1.568q1.146-.492 2.513-.397a5.75 5.75 0 0 1 2.485.744q1.135.646 1.63 1.75c.495 1.104.461 1.562.397 2.486a4.9 4.9 0 0 1-.453 1.794q-.381.791-.995 1.21c-.614.419-.932.48-1.568.598l-.226-1.128q.724-.16 1.15-.44c.426-.28.52-.469.709-.842s.3-.792.333-1.258q.059-.843-.155-1.473a2.7 2.7 0 0 0-.604-1.038 3.2 3.2 0 0 0-.876-.648 4.9 4.9 0 0 0-1.84-.485q-1.239-.087-2.104.282a2.75 2.75 0 0 0-1.326 1.156 3.85 3.85 0 0 0-.526 1.703q-.055.799.2 1.578c.255.779.359.918.573 1.195l1.726.121zm-5.14 8.722 3.848.818 5.984-2.388-.31 1.462-3.122 1.21q-.873.331-1.734.595.627.561 1.395 1.334l2.298 2.329-.298 1.4-4.468-4.74-3.849-.818zM100 3.193C46.682 3.193 3.193 46.683 3.193 100s43.49 96.807 96.807 96.807 96.807-43.49 96.807-96.807S153.317 3.193 100 3.193"/></svg>