<svg xmlns="http://www.w3.org/2000/svg" width="1000" height="1000"><path fill="rgba(255,255,255,0)" d="M0 0h1000v1000H0z"/><g fill="#6a005f"><path d="M108.4 8.66c49.75 29.003 115.225 49.44 193.653 50.148 80.392.93 148.574-14.774 197.795-45.948 49.592 31.014 118.548 47.19 198.163 45.948 76.97-1.014 144.757-21.145 193.736-49.759l-1.783 340.67c0 114.209 6.149 232.766-23.088 320.081-14.23 42.832-35.684 78.75-59.864 112.414-23.793 33.346-53.333 62.583-85.048 86.679-32.972 25.116-71.07 42.916-109.778 62.421l-98.892 51.553c-4.506 2.49-9.805 4.12-13.063 8.47-17.427-11.737-36.385-21.15-55.203-31.017l-57.062-29.394c-19.59-10.022-39.188-18.573-57.763-28.451-18.584-9.793-35.456-21.217-52.018-34.044-65.075-49.683-115.287-114.054-145.067-199.733-15.229-44.229-19.59-94.835-22.228-149.655-2.49-54.034-1.166-111.558-1.166-167.608l-1.62-341.53c-.087-.62-.087-1.244.296-1.244zm371.768 41.05C411.76 79.87 304 88.667 216.628 71.018c-27.369-5.527-52.245-12.915-73.857-22.936-2.879-1.4-6.07-3.744-9.65-3.428-1.005 106.277 1.713 216.516 1.713 318.903 0 53.263-2.563 107.68-.468 158.368 2.335 50.457 8.02 98.342 21.846 139.543 13.616 40.427 31.808 75.181 54.507 106.83 33.898 47.417 74.945 86.762 126.875 114.897 17.5 9.329 35.911 17.65 54.575 26.276l108.924 52.483 108.603-52.483c18.505-8.937 37.078-16.558 54.42-25.966 34.518-18.344 63.906-42.987 90.03-70.669a399.082 399.082 0 0 0 90.192-151.757c27.047-83.574 21.445-189.39 21.445-296.364l1.093-320.067c-3.264 0-6.459 2.025-9.56 3.428-22.47 9.872-46.716 18.111-73.708 23.395-63.515 12.36-141.408 10.495-201.196-2.563a339.2 339.2 0 0 1-82.178-29.301c-4.974 3.957-12.357 6.68-20.066 10.103zM508.7 83.222c33.659 3.653 58.941 21.23 74.17 46.179 2.023 3.261 5.369 8.55 5.053 11.12-.467 2.712-2.492 4.892-5.053 4.737-3.346-.155-4.278-4.737-6.771-8.858-12.812-22.471-33.57-37.943-63.275-43.156 1.403 6.847 4.51 13.455 7.157 20.536l7.534 21.057c1.172 1.247-.152 2.875 0 4.59 5.366-.388 11.36-.154 10.498 5.828-1.163 7.704-24.17 1.87-32.723 3.808-.935 5.91-.155 13.762-.4 20.373 4.678 2.794 26.901-2.338 31.41.926 1.324.854 1.874 3.583 1.713 4.98-1.245 8.4-23.786 1.558-32.723 3.727-1.318 7.002 1.923 16.795-5.056 17.263-6.687.38-4.814-8.864-4.971-16.869-8.408-3.03-31.414 4.436-33.13-3.653-2.326-11.509 24.66-3.191 32.653-6.377.792-5.675.792-14.308 0-20.057-7.458-2.806-31.095 3.887-32.653-3.732-1.233-5.915 4.67-6.839 10.11-6.22 1.177-1.09-.615-2.486 0-4.193 5.44-13.537 9.88-28.068 15.556-41.52-35.927 4.895-58.62 26.668-69.977 57.293 3.896-.158 9.802-2.411 17.564-3.732 8.248-1.397 24.976-5.208 20.075 6.304-6.76 2.171-14.463 1.937-21.463 3.419-6.841 1.315-13.06 3.723-18.812 5.827-1.09 2.105-1.403 5.053-1.715 8.005 6.067-.923 12.438-3.568 20.524-5.05 5.819-1.011 23.179-5.196 21.463 4.194-.783 4.123-5.754 3.589-9.644 3.81-11.202.708-25.265 4.358-32.343 8.324-.31 1.479 0 4.822.458 6.684 6.85-1.789 11.822-3.265 20.534-4.667 5.436-.696 18.5-4.35 19.744 1.71 1.792 8.711-13.525 6.218-20.904 7.54-8.02 1.487-12.836 3.737-17.65 5.362 1.783 4.13 1.86 9.413-2.182 10.106-8.394 1.87-9.329-17.874-9.639-25.879-.312-12.283 1.394-23.17 3.887-31.49 11.05-37.937 40.585-62.196 83.803-68.643 3.115-4.589 3.115-13.762 9.188-13.146 5.36.553 4.81 9.496 7.99 13.54zm-2.873 19.669c-1.396-3.575-2.793-11.51-6.838-10.808-7.073 14.616-11.819 31.563-18.04 47.345 3.58.163 10.342-.155 13.831 0-2.639-14.072 13.377-14.922 10.106 0h14.309l-13.368-36.537zM302.53 119.604c2.086 1.631-.699 4.188.374 5.825 6.076-1.166 13.61 3.501 14.235 6.769.856 4.2-3.81 8.706-2.563 14.217 10.264 6.541 12.751 20.847 24.415 26.122 5.05 9.568 8.39 24.029 6.216 37.241-1.707 10.033-11.66 11.117-9.639 24.266.936 5.664 4.35 17.096 8.391 18.888 2.645 1.169 6.23-.234 8.864 1.63 2.098 2.57 1.09 8.166-.468 10.577-8.086 1.479-11.035 10.027-20.983 6.681-3.738-1.394-10.264-5.678-12.129-8.858-1.25-2.025-1.093-4.901-2.107-7.078-2.095-4.744-5.833-7.616-8.002-10.963-6.06 1.87-24.721-1.315-21.763 8.473 1.4 4.36 16.164 2.177 11.348 13.37-1.713 3.887-14.46 9.332-19.283 10.428-1.713.303-4.82.534-5.91.38-1.557-.15-2.948-1.628-4.97-2.105-4.057-.774-9.49 1.02-13.839 0-2.65-.462-9.956-5.666-12.604-7.928-1.707-1.55-5.12-5.752-5.746-7.546-1.946-4.58-.693-8.388-5.608-10.483-2.169-.936-4.96-.55-7.447-1.248-4.506-1.087-9.334-4.75-12.979-2.017-4.585 5.05 2.64 7.228 4.969 11.664 2.253 4.194.856 7.309 1.33 13.37-1.485 2.014-4.677 5.667-8.403 6.29-5.056.935-11.9-2.876-18.967-4.583-4.588-1.169-11.503-1.169-12.435-5.83-.622-2.96 2.318-4.67 2.864-7.163.86-3.332-1.005-5.98 1.26-8.7-3.189-4.902-1.804-12.524-2.116-21.379-.301-9.641-.15-16.167 2.116-23.09.847-2.49 1.002-5.366 1.782-6.763 1.248-2.952 9.876-9.87 13.368-11.66 7.923-4.437 21.138-7.933 35.146-5.907 2.949.31 5.594 2.797 8.382 3.34 5.301.938 12.44-.543 18.049 0 1.71-1.011 3.104-2.092 4.194-3.729.467-9.095-4.665-12.672-7.152-18.891 1.16-9.182-1.557-19.592 1.707-28.383.856-2.484 4.977-9.48 7.16-11.889 2.087-2.405 6.526-5.836 9.168-6.295 4.81-.85 12.909 1.864 17.579 3.422 2.63-1.867 8.537-1.867 12.196-.465zm-24.804 18.968c4.188 1.02 5.758-4.048 7.622-6.763-1.09-2.017-.473-5.83-3.437-5.91.4 5.986-2.472 8.707-4.185 12.673zm-15.387-1.786c.465.62 1.701.54 2.96.54 1.085-2.49 1.474-5.818 2.789-7.925-3.656-1.17-6.064 4.433-5.749 7.385zm26.34 1.4c-3.804 2.949-11.116 5.903-8.778 12.128.31.076.78 0 .78.313 4.813-1.403 6.149-6.538 9.65-9.56 2.949-2.495 8.39-4.123 7.923-9.799-4.825-1.791-6.523 4.355-9.574 6.918zm0 19.583c.091.167.869.857.869 1.09 1.558 1.009 2.639-.923 4.506-1.09 3.428-.304 5.907 1.637 8 1.637 2.025-1.94.236-5.518-2.096-5.825-2.794 4.492-12.66-3.664-11.278 4.188zm26.75-4.188c-2.162-.236-3.018 2.172-2.875 3.73.318 2.872 5.444 6.06 8.402 5.906-.944-1.783-3.416-9.329-5.526-9.636zm-36.452 6.287c-3.422 1.33-5.371 4.439-6.225 8.25 2.803 1.16 3.338-2.806 5.743-3.188 2.884 1.543 2.808 5.979 5.92 7.07.77 1.247 4.502-.469 4.66 1.247 0 2.253-3.58 2.253-5.904 3.422-2.493 1.24-7.084 4.892-10.892 7.233-6.672 3.803-15.387 8.783-5.439 13.213 1.09-.856-.07-2.96.468-3.969.777-2.016 9.013-7.852 9.957-8.01 1.71-.31 3.641.935 5.126.701 4.348-.543 5.354-4.746 9.165-6.371 2.408.552 4.83 1.008 8.104.935 3.79 1.315 1.782 8.554 6.198 9.317 2.026-2.788.468-6.687 2.964-9.317-.398-2.724-2.876-3.43-2.572-6.616.701-1.628 2.572-2.02 4.202-2.642 3.963 2.873 3.186 10.494 7.082 13.37 3.413-2.092 4.272-9.708 2.165-13.37-1.864-3.025-7.61-4.191-8.867-6.523-9.787.073-17.254 2.48-24.715 4.816-2.946-2.481-4.203-6.842-7.14-9.568zm48.195 26.907c3.116-1.788 1.4-8.314-2.01-8.475-1.491 2.405-1.491 8.393 2.01 8.475zm-39.424 3.656c.932 2.254 4.439 1.783 5.058 4.194-1.247 4.667 2.648 7.002 3.431 10.971-2.495 3.571-6.391.304-7.557-2.104-1.85.31-3.02 1.248-3.02 3.34 9.636.614 4.355 11.819-1.633 13.757-1.803.78-4.281 0-6.3.473-2.33.62-4.522 3.25-7.076 4.197-3.969 1.394-7.622.233-10.027 2.174-1.24 4.901-.626 10.965 2.96 10.892 3.572-.163 3.41-7.239 7.067-8.402 5.21.85 4.673-3.273 7.534-4.197 1.56-.625 3.35.465 5.386 0 5.813-1.64 7.368-9.173 10.95-13.528 9.476 1.169 11.81-7.078 12.123-13.765-5.283 1.023-11.652 1.716-12.593-2.873-.47-3.343 2.566-4.813 3.429-8.002-2.488-4.29-9.098-.938-9.732 2.873zm-77.815 1.315c-1.867 0-1.473-2.256-3.723-1.712.307 3.185-2.65 3.185-3.422 4.974.461 2.262 3.422 2.262 4.19 4.281 6.62-.157 8.406-4.98 14.157-5.912-1.093-7.77-6.996-4.19-11.202-1.63zm20.53-2.951c-1.557 2.405.15 6.45 2.482 7.543 3.893-1.713 2.645-8.248-2.481-7.543zm21.77 17.105c1.786-2.098.924-7.47-2.177-7.47-1.254 1.716-1.862 8.402 2.177 7.47zm-67.48 4.352c2.633 1.481 8.852 1.943 10.88-.47-1.478-2.88-1.478-5.355-1.245-7.924-4.196 1.634-8.247 3.805-9.635 8.394zm69.494 1.946c3.428.617 10.255 1.479 11.05-1.943-1.713-4.355-11.658-4.124-11.05 1.943zm-47.271 8.01c-1.856.156-1.09-2.267-2.958-2.098-2.481.07-2.481 2.633-4.664 2.952-.85-.319-1.397-.932-2.95-.853-.94.853-2.334 1.315-2.019 3.255 2.169-.93 2.803-.54 4.586.474.695-.786.462-2.417 2.104-2.417-.316 6.216-4.13 12.672-11.275 13.286-.698 3.349-2.879 4.988-5.05 6.77-1.716 7.693.462 14.777 7.937 14.777.535-1.4.369-3.577.453-5.594-2.171-2.028-4.202-4.126-3.34-9.182 1.169-1.014 2.636-1.783 4.98-1.707 3.18-2.957 5.98-6.537 8.005-10.886-1.397-4.679 3.422-7.929 5.438-4.12 0 1.235-1.318 3.424.778 3.34 1.715-.468 0-1.704 0-2.952 2.101-2.724 6.687-2.876 8.005-6.298-3.183-4.968-6.6-.155-10.03 1.254zm-20.212 7.69c2.338-1.94 3.115-6.53 1.715-9.788-4.203-.003-4.98 8.081-1.715 9.788zm53.73 1.093c.312 1.557 3.49.777 4.582.464a1.637 1.637 0 0 1 .474-1.248c-.623-1.002-1.88-1.624-3.037-2.104.465 2.105-2.174 1.102-2.02 2.888zm35.596 5.056c-1.628.762-3.338 1.312-4.118 2.951-.62 2.8 1.087 7.856-1.318 8.782-4.039-2.878-7.067-.7-9.712 2.178-2.03-.392-2.642-2.335-5.763-1.707-.307 1.397-1.537 6.529.786 6.684 2.335-.465-1.245-4.355 1.713-4.355.774 2.026 2.171 3.273 3.264 4.817-.16 3.115-1.253 9.41.462 11.745 4.98-1.476.228-12.672 6.374-13.142 2.017 1.171 1.47 4.977 1.646 8.001 1.776.787 3.954 3.51 7.069 3.82 3.414.383 9.548-.777 10.886-3.343-2.189-1.716-5.76-1.795-7.472-3.811-.69-.468-.462-2.183-.462-3.27-4.115-2.791-6.067-9.79-4.197-16.01.62-2.028 4.81-4.901 1.245-7.16-.631.704-.324 2.493-.403 3.82zm-77.964 24.318v1.175c3.723-.392 4.589 4.123 7.62 3.03-.939-2.873-4.519-4.977-7.62-4.205zm599.718-12.114c-4.045-2.642-9.332 1.081-13.54 2.017-5.06 1.247-9.563 1.16-11.664 5.52-.935 2.014-.462 4.273-1.24 6.21-3.424 8.169-11.35 10.264-17.578 15.472-4.2.79-9.17-.85-14.22 0-3.423.629-5.05 2.812-10.496 1.724-7.77-1.405-18.432-6.54-20.141-10.898-3.34-8.381 5.833-9.784 11.35-12.122 1.488-8.394-4.588-7.073-11.806-7.923-3.42-.47-7.388-1.791-9.259-1.327-1.87.547-6.982 6.997-8.706 10.962-.941 2.029-.783 4.814-1.715 6.687-2.487 4.971-12.129 10.34-17.556 9.951-6.926-.23-8.09-6.382-15.95-7.382-1.784-3.501-2.409-8.472 0-10.576 1.94-1.631 7.235-.775 9.646-2.566 2.876-2.017 9.399-18.734 7.155-26.741-1.48-5.13-8.175-9.642-9.259-13.76-.307-1.551-.462-5.058-.462-7.236 0-10.106.304-23.859 6.377-31.329 2.496-3.182 6.997-4.813 10.106-8.002 5.585-6.07 6.368-15.866 14.613-17.961-.228-5.836-1.868-9.943-2.955-14.773 3.11-3.811 6.377-7.625 14.23-6.769 1.318-1.859-1.643-4.042.383-5.825 3.349-1.239 9.492-1.557 11.66.468 4.43-1.87 9.487-2.65 14.388-3.422 8.627-1.324 13.522 7.376 16.717 13.14 2.326 4.044 4.348 6.45 5.058 12.902.296 2.955.07 6.763 0 10.574 0 3.337.383 7.318 0 9.56-1.481 8.317-13.46 17.575-2.881 23.011 5.523-.701 11.973 1.096 17.874 0 3.112-.543 6.07-3.03 8.007-3.34 6.307-1.09 13.93-.626 18.897 0 12.284 1.63 21.925 9.641 29.699 16.792.158 4.896 3.81 9.101 4.661 14.543 1.24 8.703.927 22.465-.389 31.092-.698 4.349-2.253 8.473-.847 14.619.622 2.79 3.1 4.43 2.873 6.756-.4 5.527-7.397 5.527-13.306 7.158-10.565 2.881-21.764 8.086-26.429-2.485.231-6.233-.695-9.331 1.713-13.528 2.186-4.047 8.545-5.444 4.992-11.193zm-67.487-107.68c.152-2.723-2.96-3.267-3.74-5.909-.778-2.25 1.01-5.284-1.4-7.233-5.13 4.048-.693 14.162 5.14 13.143zm12.129-1.247c1.557.157 2.633-.225 3.255-.927-.537-3.656-2.02-6.529-5.371-7.467-.687 2.338 1.96 5.29 2.116 8.394zm-33.118-6.056c.3 7.07 6.286 7.461 10.097 11.424 2.96 3.189 3.735 7.391 7.47 7.935 4.273-5.138-3.887-11.036-8.326-12.915-1.932-2.875-4.27-7.768-9.241-6.444zm-13.841 25.268c0-1.017-1.567-3.191-3.256-2.955-1.885.307-5.152 8.622-5.152 9.639 3.115.23 8.566-3.969 8.408-6.684zm17.567-1.248c-1.94.231-4.197-2.02-5.754-1.707-1.87.456-4.042 5.211-.936 5.825 1.874-1.16 8.715-2.718 11.357 0 2.558-1.637 1.321-4.51-.938-5.825-1.864-.078-1.633 1.392-3.729 1.707zm16.471 4.58c-4.182 1.876-4.345 7.627-8.39 9.568-6.99-2.797-14.77-4.667-24.409-4.816-1.24 2.788-8.09 4.042-9.177 7.92-1.245 3.966 0 9.331 2.014 11.976 4.989-2.174 5.445-19.744 12.29-10.024-.618 2.481-2.49 3.808-3.043 6.368 2.808 1.87 1.262 5.915 2.583 8.861 5.13 0 2.864-7.224 6.304-8.86 2.706-.615 6.134-.615 8.768-1.395 4.036 2.873 7.151 8.236 14.16 5.67 3.731 3.82 10.728 5.295 10.184 11.979 3.194 0 5.205-3.422 4.892-5.369-.312-3.963-8.788-7.233-12.917-9.638-2.402-1.473-4.349-3.498-6.678-4.67-2.803-1.318-6.68-1.16-7.148-4.191.31-1.4 2.805-.625 4.202-.707 3.107-1.476 3.107-6.21 6.362-7.61 2.183.382 3.189 4.114 5.375 3.188.082-2.882-2.563-6.684-5.372-8.25zm-50.676 24.648c2.955 5.205 6.213-2.33 4.124-6.216-3.352.164-3.662 3.42-4.124 6.216zm31.414 3.04c1.157 2.875 3.417 4.66 3.647 8.314-1.788 4.661-8.636 2.72-12.984 2.87 1.008 5.912 2.171 15.016 12.128 13.145 3.265 5.05 5.752 10.65 11.033 13.838 7.309-2.8 6.695 4.504 12.911 4.197 3.723 1.087 3.571 8.16 7.078 8.402 4.121.304 4.35-7.239 3.028-11.36-3.577-1.472-6.771-.225-10.58-1.706-1.776-.702-3.106-3.11-4.97-3.735-2.806-.935-5.822.158-8.391-.935-3.58-1.397-6.383-6.833-6.383-11.27.86-2.013 4.665-.923 5.141-3.416-.158-1.558-1.248-2.098-2.496-2.408-1.549 2.408-5.672 5.824-8.005 1.628 1.634-3.493 4.437-5.594 3.811-11.424 1.088-1.48 4.197-1.011 4.586-3.262-.234-4.208-7.225-6.847-9.554-2.878zm76.18 5.59c5.437 1.163 7.778 5.83 14.298 6.143.616-2.174 4.056-1.946 4.515-4.281-1.248-1.634-3.96-1.789-3.726-4.974-2.496-.544-1.87 2.022-4.206 1.712-4.036-3.106-9.168-5.441-10.88 1.4zm-11.347 3.192c1.856-1.4 3.726-4.437 2.487-7.543-5.363-.79-7.005 6.216-2.487 7.543zm-18.35 2.095c-1.87 1.093-3.198 5.527-1.243 7.47 4.124 1 4.507-6.926 1.242-7.47zm55.197 11.819c2.732 1.785 7.627 1.087 10.962.391-1.087-5.05-5.372-7.075-9.647-8.785.391 2.64 0 5.354-1.315 8.394zm-69.041.704c1.4 2.247 7.472 2.01 10.424 1.242 1.09-6.298-10.118-6.535-10.424-1.242zm47.742 8.385c2.01 2.566 5.821 3.512 7.934 5.915-.166.932-.774 2.174 0 2.951 2.636-.222 1.081-2.016.848-3.81 6.289-4.583 5.52 6.374 8.326 10.412 1.856 2.739 4.194 3.046 5.126 5.065 1.546.31 3.264.459 4.658.85 3.586 6.377-5.897 9.256-2.162 15.633 9.325 1.236 10.722-15.478 3.887-18.035 0-1.403-.629-2.025-.941-2.963-6.994-.935-11.97-8.154-11.348-13.838 1.551 3.112 3.96.704 6.68 1.943-.149-1.782-1.394-2.566-2.872-3.255-1.17.07-1.795.853-3.025.853-1.09-.932-1.874-2.411-3.741-2.952-1.859 0-1.391 2.479-3.656 2.099-2.727-2.271-7.23-5.91-9.714-.868zm30.937 8.09c2.408-2.333 1.55-9.175-2.01-9.324-1.877 2.791-1.342 8.397 2.01 9.323zm-59.011 1.56c1.011.932 2.724.932 4.594.932 0-.701.138-.932.444-1.4-1.537-1.014-4.962-3.656-5.038.468zm-29.783 8.864c-.769 4.115 0 7.312-.453 11.66-2.183 2.023-4.513 3.569-4.04 7.152-2.185 2.095-6.686 1.783-8.015 4.661 5.374 2.958 14.548 3.189 18.04-1.33.544-2.867-.687-7.61 2.496-8.001 5.275 1.084.684 11.891 5.903 13.142 1.485-2.569 1.017-9.255 0-11.745 1.944-1.242 1.944-4.194 4.6-4.817.298 1.4-.94 4.355.766 4.355 1.704-1.017 1.47-5.29.465-6.684-3.496-.783-3.496 1.707-6.295 1.707-1.558-4.124-5.915-4.349-9.723-2.177-1.392-2.566-.456-5.211-.772-9.092-3.112-1.17-4.048-4.288-5.129-6.46-1.564 3.508 1.078 5.761 2.157 7.629zm69.514 25.11c2.955-.856 5.135-2.487 7.225-4.203-2.402-1.628-7.225.702-7.225 4.203zM582.41 151.942c2.566-.386 3.337-3.346 6.754-2.879 5.298.392 6.54 14.698 7.157 21.767.947 12.438-.155 45.877-12.6 34.766a12.917 12.917 0 0 1 .793-6.304c-5.921-3.498-17.737-6.143-28.07-7.151-5.209-.392-12.527.31-10.504-6.693 1.642-5.596 14.776-2.013 20.133-1.318 8.329 1.4 13.142 2.806 19.671 4.668 1.397-1.09.631-4.279 1.315-6.295-4.88-3.654-21.445-8.005-32.255-8.712-5.29-.38-10.565.233-10.565-5.05 0-2.406 1.864-3.11 3.416-4.668 15.072.237 27.285 3.195 38.566 7.076 3.106-10.56-10.732-11.892-18.517-13.833-7.768-1.794-15.703-2.18-21.764-2.87-3.414-1.715-3.104-8.635 2.098-8.793 9.65-.243 28.062 3.41 34.372 6.289zm-63.673 119.03c-9.331-12.13 20.519-10.892 24.248-17.18-4.109-2.108-9.936-3.116-15.469-3.809-5.666-.777-11.508-1.4-16.787-1.4.383 8.397 4.118 22.708-4.9 25.271-6.38 1.622-25.961-.158-26.893-4.67-1.956-10.343 14.922-3.58 22.538-4.586 2.01-4.515.234-12.049-1.245-16.015-15.001-1.248-29.38 1.63-41.83 4.355 3.73 5.827 14.621 4.354 15.478 10.03 2.104 12.508-19.514-.158-22.632-2.178-11.804-6.765-20.446-14.615-28.921-25.978-3.332-4.416-10.103-12.973-9.636-17.48s10.343-7.074 16.796-8.79c37.715-10.176 81.167-14.069 123.148-5.515 5.682 1.16 12.213 3.344 18.812 5.515 5.527 1.716 15.788 3.969 16.49 7.929.858 5.213-8.795 17.49-10.963 20.53-9.568 12.83-19.432 20.829-34.293 27.597-6.993 3.104-14.925 6.6-23.94 6.374zm-94.39-50.763c5.68 10.798 13.685 19.046 22.71 26.428a106.595 106.595 0 0 1 19.744-5.053c-2.796-2.65-6.303-4.194-10.114-7.157-2.78-2.093-8.224-5.205-7.99-9.557.377-4.588 10.182-6.93 16.79-8.402 21.994-4.892 47.808-4.27 68.798.31 6.532 1.557 17.582 3.273 17.582 8.478 0 2.951-4.986 7.233-7.622 9.168-3.58 2.963-7.625 3.27-9.957 7.157 7.78.546 13.686 3.033 20.054 5.053 9.495-6.614 16.632-15.55 21.76-26.428-39.961-16.714-111.25-15.554-151.756.003zm39.5 7.221c16.322 14.236 56.135 14.236 72.454 0-19.437-6.368-53.093-6.368-72.454 0z" fill-rule="evenodd"/><path d="M221.6 517.178c0-.932-.398-2.095-.78-3.886-.465-1.628-.851-2.865-1.319-3.338-.692-1.087-2.03-1.87-4.117-2.177a49.925 49.925 0 0 0-7.622-.55h-44.545v-3.808l49.67-36.7h-31.326c-3.489 0-6.137.157-8.001.625-1.947.395-3.265 1.014-4.054 2.098-.616.623-1.239 2.029-1.707 4.04-.622 2.019-.935 3.343-.935 3.965h-2.957v-24.794h2.957c.161.774.313 2.095.935 3.81.468 1.868.936 2.955 1.248 3.417.784 1.023 2.017 1.788 3.575 2.022 1.71.395 4.518.696 8.554.696h29.856c1.24 0 2.569-.304 3.887-.775 1.394-.464 2.323-1.005 3.104-1.791.938-1.157 1.715-2.56 2.416-4.194a17.17 17.17 0 0 0 1.164-4.354h2.951v17.415l-46.342 34.053h28.927c3.513 0 6.298-.088 8.166-.623 1.937-.312 3.194-1.093 3.816-2.022.541-.775 1.079-1.944 1.546-3.814l.933-4.12h2.951v24.797H221.6zm-52.71 69.272-2.648-25.028 3.03-.31c.398 2.172.865 4.051 1.485 5.436.459 1.403 1.081 2.02 1.865 2.02a1.996 1.996 0 0 0 .777-.228c.316-.08.69-.161.932-.389l13.06-6.298-2.092-21.226-5.371-1.4-4.197-.926c-1.4-.304-2.332-.304-3.11-.47h-1.864c-1.163.166-1.867 1.016-2.408 2.957a25.046 25.046 0 0 0-.462 6.06l-3.03.314-2.347-22.86 3.03-.152.772 2.797c.403 1.01.868 1.867 1.49 2.487.78 1.169 1.707 1.873 2.566 2.496.85.543 2.105 1.005 3.653 1.481l26.59 7.459 26.276 7.227.318 3.343-50.153 25.502a7.803 7.803 0 0 0-2.566 1.63 8.066 8.066 0 0 0-1.7 2.57c-.316.701-.632 1.551-.714 2.571-.237 1.09-.237 1.944-.237 2.715l-2.945.222zm22.085-26.743 22.626-11.503-24.339-6.684 1.713 18.187zm50.06 90.261c-.158-.698-.626-1.94-1.406-3.495a18.903 18.903 0 0 0-2.093-3.107c-.853-.783-2.402-1.166-4.506-1.166-1.956.076-4.586.465-7.628 1.166l-43.455 9.563-.777-3.586 40.655-46.646-30.625 6.686c-3.428.699-5.985 1.558-7.7 2.406-1.775.94-2.956 1.87-3.578 2.89-.47.771-.783 2.244-.783 4.27-.15 2.253-.15 3.647 0 4.115l-2.943.78-5.445-24.336 2.958-.692c.307.774.93 1.94 1.791 3.647s1.479 2.639 2.01 3.04c1.015.926 2.254 1.244 3.967 1.244s4.518-.315 8.399-1.245l29.152-6.458a14.496 14.496 0 0 0 3.814-1.473c1.09-.78 1.94-1.628 2.475-2.482.783-1.174 1.248-2.884 1.56-4.597.159-1.949.24-3.422.083-4.427l2.943-.623 3.81 16.869-37.93 43.46 28.146-6.385c3.58-.772 6.047-1.473 7.929-2.414 1.785-.775 2.794-1.628 3.267-2.715.301-.857.614-2.327.687-4.115.085-1.868.085-3.34-.073-4.118l2.952-.78 5.374 24.178-3.03.546zm18.97 35.68-1.783-2.407-2.113-2.175c-.848-.698-1.622-1.084-2.467-.856-.792.085-1.721.313-2.507.856l-31.248 17.886a15.796 15.796 0 0 1-5.743 1.938 18.207 18.207 0 0 1-6.537 0c-2.481-.623-4.814-1.47-6.997-2.952-2.02-1.479-3.814-3.662-5.371-6.225-2.25-3.884-3.116-7.78-2.25-11.734.929-3.81 3.109-6.768 7.066-8.951a10.258 10.258 0 0 1 5.21-1.394c1.713.163 3.116 1.087 4.206 2.793.696 1.558 1.009 2.797.623 4.203-.16 1.4-1.09 2.493-2.405 3.35-.85.464-1.8.774-2.736.932s-1.783.151-2.63.151c-.865-.075-1.716-.075-2.803-.075-1.014-.074-1.937 0-2.65.075-.46.939-.772 2.175-.772 3.733 0 1.475.54 3.03 1.546 4.892 1.105 1.873 2.496 3.042 3.896 3.665a8.534 8.534 0 0 0 4.816.695c1.558-.158 3.428-.695 5.456-1.552l6.45-3.194 27.901-16.094c.778-.547 1.473-1.084 1.87-1.558.471-.693.623-1.54.623-2.709-.085-1.014-.397-2.183-.777-3.495l-1.321-3.046 2.72-1.47 13.301 23.167-2.575 1.552zm-21.379 69.513-16.573-21.685 2.346-1.874c.614.54 1.403 1.473 2.257 2.566l2.253 2.177c.935.462 1.707.626 2.481.626a6.459 6.459 0 0 0 2.493-1.087l34.974-26.753c.792-.546 1.417-1.16 1.8-1.864.307-.62.307-1.558 0-2.794l-1.233-3.189-1.488-2.8 2.408-1.873 16.559 21.7-2.481 1.861c-.462-.692-1.245-1.4-2.107-2.253a12.444 12.444 0 0 0-2.563-2.177 3.174 3.174 0 0 0-2.566-.699 6.079 6.079 0 0 0-2.408 1.085l-34.913 26.743c-.684.544-1.312 1.16-1.633 1.95-.307.856-.38 1.628-.161 2.785l1.254 2.65c.628 1.316 1.172 2.339 1.712 3.031l-2.41 1.874zm104.412 21.533c-.63-.544-1.712-1.245-3.115-2.102-1.558-.777-2.642-1.248-3.568-1.4-1.251-.155-2.654.31-4.367 1.482-1.543 1.321-3.57 3.028-5.579 5.293l-30.803 32.18-2.639-2.558 7.616-61.346-21.606 22.623c-2.417 2.64-4.12 4.585-5.138 6.38-.929 1.636-1.32 3.182-1.242 4.264 0 1.026.608 2.34 1.719 4.123 1.081 1.792 1.853 2.952 2.329 3.431l-2.025 2.172-18.117-17.263 2.183-2.093c.538.55 1.628 1.16 3.34 2.017 1.72.935 2.792 1.476 3.417 1.476 1.33.078 2.645-.307 4.042-1.4 1.324-.93 3.428-2.718 6.073-5.588l20.837-21.7c.772-1.002 1.543-1.937 2.163-3.264.54-1.312.798-2.405.71-3.417-.085-1.554-.546-3.027-1.33-4.67-.85-1.785-1.543-2.946-2.332-3.88l2.017-2.184 12.602 12.058-7.146 57.056 19.896-20.837c2.414-2.64 4.203-4.82 5.138-6.38.92-1.698 1.24-3.1 1.24-4.19a23.98 23.98 0 0 0-1.865-3.815l-2.324-3.495 2.011-2.177 17.877 17.026-2.014 2.178zm34.366 62.503-2.496-1.245c-1.087-.465-1.934-.774-2.715-.93-1.026 0-1.803.077-2.65.538-.617.395-1.31 1.096-1.944 2.029l-2.642 3.887-3.808 5.76-1.473 2.478c-4.202-.695-8.08-1.628-11.664-3.03-3.585-1.476-7.002-3.034-9.956-4.972-3.183-2.335-5.907-4.977-8-8.16a26.945 26.945 0 0 1-4.351-10.34c-.71-3.968-.71-7.855.237-11.9a30.482 30.482 0 0 1 5.284-12.122 32.81 32.81 0 0 1 9.094-9.41 31.534 31.534 0 0 1 11.109-4.902c3.814-.856 7.791-.856 11.742-.084 3.96.789 7.85 2.425 11.278 4.749 2.803 1.946 5.135 3.966 6.84 6.149 1.55 2.098 2.799 4.047 3.88 6.143l2.955-1.482 2.881 2.025-11.587 17.798-2.791-2.016c.78-2.341 1.397-4.436 1.853-6.92a21.539 21.539 0 0 0 .625-7.076 15.13 15.13 0 0 0-1.856-6.374c-1.02-1.943-2.803-3.814-4.971-5.369-2.648-1.63-5.15-2.723-7.862-3.027a17.36 17.36 0 0 0-8.317 1.09c-2.803.93-5.59 2.642-8.239 5.208a46.532 46.532 0 0 0-7.934 8.858 43.273 43.273 0 0 0-4.892 9.866 29.354 29.354 0 0 0-1.64 9.647c.076 3.04.79 5.994 2.18 8.712 1.388 2.566 3.499 4.898 6.228 6.842 2.163 1.397 4.185 2.478 6.365 2.8 2.175.458 3.887.774 4.972.458 1.093-1.16 2.037-2.174 2.881-3.495l2.169-3.106 1.797-2.797c.777-1.014 1.242-1.953 1.4-2.882a3.054 3.054 0 0 0-.47-2.876c-.623-.856-1.389-1.943-2.56-2.946-1.325-1.093-2.257-1.952-3.034-2.338l1.71-2.8 22.149 15.002-1.777 2.56zm152.376 9.878c-.795 0-1.873.158-3.422.538-1.555.313-2.803.707-3.808 1.324-1.017.698-1.64 2.092-1.958 4.123-.377 2.02-.61 4.504-.61 7.459v26.437c0 3.267-.705 6.216-2.102 8.706-1.476 2.563-3.27 4.588-5.518 6.219-2.189 1.476-4.597 2.72-7.16 3.255a23.41 23.41 0 0 1-7.157 1.1c-3.574 0-6.912-.474-9.717-1.48a22.112 22.112 0 0 1-7.228-3.89c-1.867-1.636-3.34-3.413-4.2-5.605a13.937 13.937 0 0 1-1.548-6.526v-35.75c0-1.167-.158-1.956-.465-2.643-.304-.704-1.014-1.326-2.025-1.794-.626-.462-1.558-.853-2.724-1.09s-2.093-.38-2.721-.38v-3.107h25.195v3.107c-.786 0-1.794.067-2.963.31-1.237.225-2.087.54-2.642.695-1.082.237-1.713.93-1.938 1.628a7.219 7.219 0 0 0-.547 2.797v33.44a23.35 23.35 0 0 0 .547 5.052 15.957 15.957 0 0 0 2.098 5.053 12.128 12.128 0 0 0 4.586 3.73c1.943 1.008 4.427 1.633 7.864 1.633 3.098 0 5.746-.625 7.911-1.634 2.031-.935 3.808-2.18 4.974-3.81 1.09-1.558 2.029-3.189 2.563-4.902.39-1.706.702-3.264.702-5.053v-24.806c0-3.255-.313-5.83-.702-7.847-.534-1.94-1.157-3.343-1.937-3.963-1.084-.701-2.487-1.25-4.124-1.71l-4.036-.616v-3.107h24.804v3.107zm70.509-30.786c-.702.46-1.792 1.079-3.02 2.172-1.42 1.166-2.34 2.016-2.808 2.72-.622 1.015-.696 2.494-.155 4.437.395 2.096 1.248 4.5 2.476 7.306l17.806 40.734-3.49 1.637-53.487-30.868 12.514 28.685c1.316 3.194 2.56 5.602 3.811 7.075 1.163 1.713 2.338 2.563 3.428 2.879.927.391 2.4.391 4.422 0 2.113-.231 3.504-.55 4.118-.778l1.242 2.791-22.927 10.042-1.242-2.887c.774-.304 1.78-1.16 3.34-2.409 1.394-1.09 2.254-2.016 2.563-2.478.623-1.096.708-2.58.392-4.281-.304-1.637-1.242-4.121-2.8-7.932l-11.97-27.366c-.626-1.163-1.251-2.408-2.175-3.344-.94-.938-1.861-1.63-2.96-2.016-1.242-.322-2.882-.702-4.673-.55-1.935.15-3.417.392-4.419.86l-1.169-2.876 15.86-6.92 49.75 28.763-11.5-26.507c-1.403-3.189-2.724-5.597-3.887-7.228s-2.265-2.496-3.349-2.648c-1.005-.31-2.256-.31-4.2 0a28.737 28.737 0 0 0-4.109 1.009l-1.172-2.876 22.618-9.717 1.172 2.571zm60.79 35.138-24.56 11.976-1.324-2.73c.707-.306 1.634-1.005 2.96-1.627 1.24-.78 2.105-1.482 2.482-1.874.63-.847 1.095-1.628 1.166-2.405a4.56 4.56 0 0 0-.538-2.563l-19.45-39.498a4.948 4.948 0 0 0-1.39-2.18c-.623-.385-1.558-.543-2.794-.464-.93.079-2.029.306-3.268.464l-3.106 1.017-1.409-2.723 24.654-11.971 1.324 2.724c-.777.386-1.634 1.014-2.73 1.636-.999.617-1.946 1.318-2.568 2.087-.778.701-1.234 1.718-1.234 2.575 0 .692.301 1.549.608 2.408L649.2 849.77c.383.856.927 1.557 1.698 1.94.626.547 1.558.699 2.651.631.623 0 1.63-.163 2.952-.63a30.502 30.502 0 0 0 3.264-1.012l1.315 2.727zm29.79-95.39-1.88 2.18a9.39 9.39 0 0 0-1.239 2.563c-.383 1.084-.631 2.01-.383 3.188l.693 3.638 6.532 21.93 9.474 30.874-2.72 2.172-29.155-17.494-19.116-11.346a12.605 12.605 0 0 0-2.575-1.017 19.522 19.522 0 0 0-2.87 0c-.935.161-1.87.392-2.72.778l-2.339 1.163-1.946-2.326 19.598-15.624 2.02 2.323a37.466 37.466 0 0 0-3.893 3.893c-.92 1.16-1.09 2.025-.608 2.64.149.303.468.619.763.782.391.307.634.547.935.702l12.517 7.376 24.8 14.776-5.836-19.282-4.904-15.08c-.839-2.724-1.552-4.352-2.008-5.132l-1.32-2.184c-.395-.543-1.03-.777-1.795-.698a6.283 6.283 0 0 0-2.487.55 23.713 23.713 0 0 0-2.791 1.4l-2.341 1.472-2.01-2.408 17.713-14.066 1.89 2.256zm67.851-19.748 12.985 12.277-32.332 38.724-2.332-1.87 2.031-2.874c.69-1.248 1.16-2.016 1.233-2.647a3.501 3.501 0 0 0 0-2.333c-.31-.771-.932-1.478-1.712-2.095l-33.5-28.068a4.813 4.813 0 0 0-2.269-1.163c-.692-.23-1.543-.155-2.618.313-.798.31-1.575 1.008-2.665 1.707l-2.49 2.104-2.25-1.795 30.086-36.227 11.2 9.413-2.029 2.479c-2.01-1.003-4.661-1.55-7.616-1.55-3.191-.084-5.36.46-6.605 1.55l-2.253 2.183-2.806 3.188-5.912 7.388 18.35 15.387 4.519-5.21c1.32-1.628 2.247-3.028 2.636-4.037a6.187 6.187 0 0 0 0-3.343c-.158-1.087-.702-2.183-1.549-3.498a34.632 34.632 0 0 0-2.347-3.197l2.031-2.408 18.19 15.246-1.943 2.33c-1.172-.626-2.485-1.398-3.958-1.944-1.402-.62-2.647-.932-3.585-1.011-1.4 0-2.648.304-3.58 1.011-1.082.55-2.087 1.63-3.262 3.191l-4.512 5.13 14.156 11.663c1.403 1.236 2.484 2.017 3.501 2.487 1.003.538 1.94.538 2.873.465.783-.24 1.783-.857 2.791-1.716l3.647-4.19c.483-.71 1.342-1.482 2.271-2.803a13.162 13.162 0 0 0 2.39-3.034c.714-.86 1.179-2.02 1.716-3.104.547-.938.705-1.879.547-2.495 0-1.95-.772-4.279-2.087-7.31a59.523 59.523 0 0 0-2.881-5.982l1.94-2.332zm50.387-56.6-7.77 14.148-17.656 1.87-15.702 2.172-3.025 5.45 16.869 9.17c.926.46 1.782.775 2.484.857a3.74 3.74 0 0 0 2.569-.935c.458-.392 1.014-1.166 1.776-2.172.784-.94 1.4-1.949 1.798-2.805l2.72 1.479-12.28 22.623-2.648-1.47c.313-.626.626-1.558 1.16-2.809.55-1.16.705-1.937.778-2.481a3.624 3.624 0 0 0-.546-2.423c-.456-.69-1.158-1.236-2.011-1.853L738.9 701.515a15.232 15.232 0 0 0-2.493-.78c-.85-.158-1.701.155-2.487.78-.617.623-1.242 1.403-1.94 2.253-.775.857-1.474 1.628-1.792 2.335l-2.718-1.33 13.45-24.79c1.244-2.26 2.498-4.355 4.053-5.834a21.022 21.022 0 0 1 5.202-4.346c1.785-1.023 3.81-1.482 5.997-1.558 2.007 0 4.27.456 6.514 1.783 2.113 1.17 3.74 2.493 4.965 3.963 1.269 1.4 2.12 3.03 2.654 4.974.476 1.713.625 3.583.625 5.6a52.152 52.152 0 0 1-.92 6.219l12.432-1.704 12.131-1.716c2.093-.31 3.811-.695 4.893-1.09 1.315-.625 2.253-1.084 3.194-1.785.777-.553 1.391-1.248 2.177-2.096l1.55-2.183 2.72 1.479zm-50.527-1.873c-3.265-1.78-6.304-2.254-9.264-1.392-2.794.848-5.197 3.034-6.985 6.374l-3.577 6.45 23 12.292 2.647-4.91c1.868-3.422 2.333-6.917 1.403-10.418-1.005-3.566-3.416-6.207-7.224-8.396zm34.91-49.981a12.97 12.97 0 0 1 5.204-1.552c1.862-.158 3.811 0 5.977.623 5.295 1.245 9.021 4.281 11.365 9.016 2.324 4.743 2.791 9.872 1.31 15.632a32.148 32.148 0 0 1-3.195 7.534 27.25 27.25 0 0 1-4.816 5.988l2.578 2.566-.863 3.417-20.206-4.735.93-3.349c2.644 0 4.968-.307 7.303-.777 2.26-.304 4.36-1.011 6.532-2.017a21.077 21.077 0 0 0 5.208-4.045c1.481-1.71 2.484-3.732 3.191-6.376.456-1.874.707-3.732.54-5.135a7.686 7.686 0 0 0-1.247-3.96c-.696-1.254-1.622-2.172-2.56-2.96a20.925 20.925 0 0 0-4.188-1.783c-2.35-.468-4.755-.468-7.087.303-2.417.868-4.428 2.496-6.138 4.831l-4.047 5.597-4.04 5.436c-2.328 2.878-4.9 4.816-7.855 6.064-2.881 1.248-6.298 1.318-10.103.38-2.259-.602-4.202-1.698-5.991-3.1-1.628-1.474-3.028-3.031-4.05-5.215-1.073-1.94-1.702-4.193-1.932-6.44a20.34 20.34 0 0 1 .546-7.243c.772-2.642 1.698-5.041 3.1-6.909 1.4-1.943 2.798-3.658 4.522-4.982l-2.496-2.572.772-3.41 19.677 4.81-.856 3.43-6.92.305c-2.254.233-4.27.701-6.313 1.481-1.93.78-3.475 1.938-4.957 3.426-1.4 1.478-2.335 3.337-3.112 5.821-.635 2.727-.313 5.217.78 7.388a9.03 9.03 0 0 0 5.442 4.434c2.56.701 4.81.55 6.838-.164 2.014-.693 3.814-2.166 5.445-4.033l4.045-5.366 3.734-5.053c1.082-1.4 2.33-2.878 3.648-4.132 1.324-1.228 2.72-2.402 4.284-3.174zm36.063-40.266-3.726 27.06-3.034-.401.23-3.414c.15-1.481.08-2.414-.075-3.191-.228-.856-.693-1.634-1.245-2.186s-1.476-.845-2.569-1.005l-43.621-5.828c-1.005-.079-1.774 0-2.473 0-.707.307-1.49.932-2.022 2.096-.397.777-.935 1.712-1.327 3.03-.459 1.17-.923 2.26-1.081 3.116l-2.96-.39 3.737-27.059 2.946.392c-.07.78-.07 1.865-.07 3.11 0 1.315.07 2.332.234 3.334.234 1.02.687 1.792 1.397 2.341.695.462 1.557.778 2.478.778l43.542 6.064c.939.158 1.71 0 2.485-.234.865-.304 1.572-1.017 2.034-2.017.306-.467.771-1.402 1.157-2.647.546-1.321.774-2.49.926-3.42l3.037.47zm-38.563-71.996-.149 2.873c-1.099.242-2.329.701-3.662 1.324a45.533 45.533 0 0 0-4.12 2.02c-1.236.858-2.481 1.712-3.425 2.796-1.079.932-1.693 1.87-1.856 2.882l-.462 3.258-.155 3.732-.17 2.563 48.596 1.713c.926 0 1.791-.073 2.566-.465.938-.304 1.4-1.093 1.859-2.025.312-.453.634-1.476 1.093-3.186l.622-3.726 3.04.082-1.17 28.678-2.951-.149c0-.707-.167-2.104-.243-3.661-.076-1.71-.234-2.724-.546-3.417-.304-.856-.766-1.718-1.467-2.171-.699-.474-1.646-.71-2.803-.79l-48.905-1.864-.143 2.566v3.264l.143 3.656c.085 1.015.634 2.02 1.558 3.107a20.675 20.675 0 0 0 3.34 2.873c1.169.86 2.575 1.783 3.977 2.49a18.324 18.324 0 0 0 3.578 1.4l-.164 3.03-16.477-.616 2.01-52.95 16.486.713zm-12.593-66.317.47 2.34c.466 1.003.77 1.86 1.088 2.25.625 1.161 1.163 1.863 1.482 2.333.388.389 1.397 1.166 2.87 2.253 3.185 2.414 6.3 4.44 9.495 6.45l12.117 7.155c1.873 1.157 3.34 1.946 4.439 2.183 1.157.543 2.715.69 4.81.69l11.58.157c1.03 0 2.03-.158 2.805-.622.616-.392 1.239-1.076 1.718-1.94.31-.694.611-1.78.92-3.265l.63-3.648h3.115l-.626 28.442-2.955-.158c0-.765-.166-1.858-.315-3.495-.08-1.543-.313-2.642-.54-3.337a4.413 4.413 0 0 0-1.646-2.172c-.766-.47-1.704-.634-2.788-.634l-14.773-.15c-.471-.163-1.251.15-2.496.696l-4.045 1.865-10.875 5.52-10.033 5.372c-1.633.775-2.87 1.55-3.732 2.484-.85.626-1.484 1.4-2.253 2.332-.392.702-.783 1.552-.923 2.485a11.982 11.982 0 0 0-.55 2.495h-2.963l.391-25.969h3.122c0 2.952.143 5.065.453 6.374.31 1.099.783 1.716 1.402 1.792a2.046 2.046 0 0 0 .78-.234c.46-.15 1.094-.46 1.716-.702l2.557-1.318c1.017-.47 1.947-.93 2.797-1.479l7.695-3.965 9.954-5.278-16.784-10.498c-3.895-2.414-6.304-3.583-7.078-3.583-.707 0-1.257.155-1.637.707-.397.307-.622 1.006-.932 1.78a9.776 9.776 0 0 0-.54 2.718l-.243 2.733h-3.104l.468-21.15h2.957zM476.982 702.138c-2.247 0-4.117.929-5.815 2.794-1.733 1.788-2.502 4.2-2.502 7.15 0 2.573.769 4.747 2.347 6.378 1.54 1.645 3.577 2.41 5.897 2.41s4.2-.768 5.758-2.41 2.253-3.96 2.253-6.836-.696-5.135-2.426-6.85a6.956 6.956 0 0 0-5.512-2.636zm38.335 0c-2.18 0-4.05.929-5.518 3.024-1.64 2.417-2.586 7.085-2.586 13.917 0 6.769.795 11.123 2.355 13.374 1.698 2.335 3.569 3.43 5.895 3.43 2.192 0 4.205-1.095 5.84-3.43 1.551-2.254 2.407-6.605 2.407-13.374 0-6.832-.856-11.266-2.408-13.52-1.634-2.188-3.647-3.421-5.985-3.421zm227.628-400.15H257.68c-.623.077-.47.851-.78 1.328v187.276c-.47 61.499 8.463 117.085 28.453 160.846 19.59 43.312 51.78 74.483 88.312 100.677 37.171 26.367 83.657 40.506 126.57 62.67 42.754-22.313 89.096-36.227 126.098-63.213 36.54-26.434 69.582-56.744 88.943-100.517 19.283-43.925 27.977-98.032 27.977-161.322l-.31-187.744zm-374.02 275.444c32.97-17.103 66-35.912 91.805-60.791-17.102 4.2-30.78 4.664-44.924 4.506 2.332-3.732 6.21-6.064 9.325-9.092 21.764-20.372 46.176-39.804 57.997-70.675-7.996 2.721-18.04 4.98-28.848 4.98 21.227-27.217 37.946-59.157 46.813-98.581h1.24c8.708 39.576 25.735 71.14 46.873 98.581-9.483-.628-17.415-1.014-28.366-5.28.46 4.576 2.867 8.928 4.904 12.894 10.48 19.28 27.35 34.587 43.063 49.445 6.371 5.91 13.213 11.126 18.812 17.725-17.415 1.558-25.352.158-44.465-4.904 6.21 7.388 14.378 12.836 21.913 18.815 20.533 16.796 45.085 29.313 69.806 42.37 1.953 1.018 4.99 1.708 5.76 4.282-20.51 2.879-43.305 1.321-65.452-5.76-27.056-9.32-52.707-9.872-71.689 7.856-21.135-17.027-42.051-17.26-75.868-8.324-19.282 5.994-44.474 8.712-64.765 6.228.707-2.794 3.96-3.182 6.067-4.275zm75.021 161.871h-5.053v-32.112c-1.247 1.324-2.881 2.253-4.9 3.264a22.763 22.763 0 0 1-5.208 2.797v-4.737a37.826 37.826 0 0 0 7.39-4.972c2.163-2.025 3.636-3.743 4.504-5.447h3.265v41.207zm44.94-8.867c-1.24 3.107-2.955 5.518-5.132 7.076a13.56 13.56 0 0 1-7.929 2.49c-3.273 0-5.906-.857-7.935-2.73-2.01-1.701-3.27-4.197-3.72-7.537l4.81-.468c.456 2.338 1.322 4.036 2.493 5.056 1.082 1.166 2.64 1.56 4.422 1.56a8.398 8.398 0 0 0 4.127-1.095c1.087-.699 2.022-1.628 2.788-2.87.792-1.245 1.414-2.8 1.882-4.752a23.392 23.392 0 0 0 .774-6.213v-1.16a9.638 9.638 0 0 1-4.2 4.038 11.047 11.047 0 0 1-5.593 1.555c-3.428 0-6.292-1.32-8.627-3.738-2.42-2.566-3.665-5.751-3.665-9.79s1.245-7.461 3.738-10.03c2.496-2.493 5.594-3.732 9.162-3.732 2.806 0 5.138.701 7.479 2.016 2.177 1.403 3.892 3.501 5.132 6.307.926 2.64 1.633 6.374 1.633 11.503-.006 5.205-.713 9.405-1.64 12.514zm38.48.237c-1.008 2.952-2.414 5.369-4.427 6.839-1.947 1.633-4.516 2.49-7.479 2.49-3.954 0-7.14-1.4-9.39-4.273-2.727-3.343-4.13-8.943-4.13-16.647 0-4.977.617-8.852 1.547-11.742 1.028-3.016 2.495-5.278 4.52-6.76 1.938-1.783 4.501-2.487 7.453-2.487 2.192 0 4.13.392 5.84 1.242 1.639.777 3.042 2.18 4.12 3.814 1.096 1.783 1.864 3.726 2.487 6.149.62 2.396.93 5.664.93 9.784.002 4.746-.541 8.706-1.47 11.59zm39.711 8.63h-27.194c0-1.169.155-2.496.623-3.42a17.515 17.515 0 0 1 3.413-5.526c1.48-1.867 3.665-3.814 6.544-6.295 4.419-3.732 7.45-6.453 9.077-8.706 1.558-2.104 2.423-4.05 2.423-6.058 0-1.958-.78-3.656-2.25-4.974-1.403-1.4-3.27-2.183-5.612-2.183-2.41 0-4.354.783-5.833 2.256-1.394 1.479-2.166 3.495-2.166 5.98l-5.29-.457c.46-3.814 1.713-6.85 4.037-8.87 2.34-2.095 5.438-2.954 9.422-2.954 3.954 0 7.07 1.011 9.317 3.191a10.93 10.93 0 0 1 3.486 8.157c0 1.558-.298 3.35-1.002 4.9s-1.859 3.268-3.346 5.054c-1.543 1.713-4.197 4.045-7.85 7.151-3.016 2.496-4.966 4.349-5.822 5.138-.789 1.002-1.546 1.862-2.095 2.87h20.112v4.746zM525.507 624.7l1.313 10.895h-47.108l1.394-10.895H333.394l18.43-22.617c15.623-.86 45.78-4.822 71.604-14.464 50.217-18.815 80.696 7 80.696 7 24.017-20.136 54.189-15.945 82.101-5.67 26.265 9.639 66.47 12.593 66.47 12.593l17.324 23.164H525.508z"/></g></svg>