<svg xmlns="http://www.w3.org/2000/svg" width="316" height="316" viewBox="0 0 517.739 517.739"><g fill="none" stroke="#711a5f" stroke-width="10"><path d="M258.869 11.863c-136.201 0-247.006 110.805-247.006 247.006s110.805 247.006 247.006 247.006S505.875 395.07 505.875 258.869 395.07 11.863 258.869 11.863z"/><path d="m258.871 108.144-11.319 11.316-32.986 32.986h-63.195v61.758l-33.701 33.701-11.319 11.319 11.319 11.319 33.701 33.701v61.758h63.914l32.264 32.264 11.323 11.323 11.319-11.323 32.983-32.979h65.344v-61.76l31.549-31.549 11.323-11.316-11.319-11.319-35.139-35.139V153.52h-60.684l-34.058-34.06z"/><path d="M258.867 95.588c-90.035 0-163.281 73.246-163.281 163.277s73.246 163.281 163.281 163.281S422.151 348.9 422.151 258.865 348.902 95.588 258.867 95.588z"/></g><path d="m37.904 321.124-.727-11.194 26.963-27.912-31.894 4.839-1.546-8.948 47.331-7.345.256 10.038-28.294 29.454 34.052-5.046.455 8.772-46.596 7.341zm23.945-87.982-19.702 4.331 18.883 8.149.819-12.479zm7.927-2.054-1.308 19.052 10.004 4.097-2.016 9.744-44.622-21.316 1.251-12.682 48.257-12.957-1.201 11.615-10.364 2.448zm-29.037-38.196 4.323-9.778 38.241-10.165-29.966-11.573 2.892-8.883 44.569 17.112-3.986 9.151-39.362 11.301 29.779 12.927-3.665 8.887-42.824-18.979zm25.134-56.623 6.894-9.17 15.808 11.125-7.33-23.279 7.59-10.031 8.229 26.236 30.995 1.672-6.687 10.417-27.265-.899 17.234 12.475-6.175 9.262-39.293-27.809zm75.905-36.711L125.24 87.924l6.775 18.746 9.763-7.112zm7.506 4.583-14.905 10.651 3.106 10.352-7.579 6.125-15.352-47.449 10.459-8.405 42.017 26.282-9.006 7.72-8.742-5.276zm2.831-46.684 9.905-5.149 20.701 41.286-8.929 5.134-21.676-41.271zm101.884-27.288 11.316-.612.738 29.063c.072 2.732-.268 5.325-1.025 7.789-.754 2.456-1.989 4.633-3.696 6.53s-3.512 3.248-5.432 4.067c-2.644 1.152-5.849 1.81-9.606 1.974-2.169.099-4.545.05-7.12-.153s-4.736-.727-6.492-1.588c-1.748-.857-3.363-2.112-4.843-3.768-1.469-1.66-2.498-3.39-3.072-5.191-.933-2.9-1.427-5.486-1.492-7.751l-.735-29.067 11.446-.612.754 29.718c.065 2.521.792 6.515 2.184 7.873s5.589 1.982 7.992 1.875c2.368-.107 6.657-.888 7.965-2.341 1.316-1.458 1.94-5.524 1.871-8.084l-.754-29.721zm33.884 1.905 10.983 1.588 17.617 37.296 6.817-30.092 9.262 1.542-10.417 46.302-10.157-2.701-16.722-37.04-7.077 30.739-9.774-.773 9.468-46.86zm63.586 17.663L361.5 54.11l-20.578 43.475-9.388-4.889 19.935-42.958zm21.737 11.32 10.279 5.547-11.182 35.995 29.071-22.766 8.359 7.846-40.647 26.879-7.973-5.658 12.093-47.843zm49.97 37.587 16.768 21.263-6.592 5.44-10.807-13.619-7.41 6.557 11.301 13.91-6.297 5.199-11.305-13.914-9.679 8.627 11.201 14.097-6.324 5.1-17.831-21.064 36.975-31.596zm16.206 55.349 3.053 4.943c2.636 4.851 6.836 3.275 7.636 2.777 1.194-.735 5.321-2.942 1.89-8.378l-3.183-5.157-9.396 5.815zm-28.864 4.771 39.423-23.046 9.633 16.355c3.661 5.83 2.077 10.827 1.171 13.007s-2.028 3.485-4.369 4.935c-2.047 1.266-4.086 1.905-6.133 1.928-2.035.018-3.998-.474-5.899-1.473-1.201-.639-2.72-1.974-4.901-3.175l-11.963 20.964-7.074-10.291 10.291-14.534c1.641-2.012 2.173-5.597 2.173-5.597l-16.749 11.033-5.605-10.107zm29.728 34.637s-3.566 8.007-2.368 11.339c.677 1.878 2.67 4.162 4.105 4.675 2.701.964 3.852.306 5.103-.08 1.194-.371 2.07-1.182 2.636-2.433s.555-3.179.922-5.853c.888-6.519 1.5-8.722 2.865-11.875 1.358-3.175 3.837-5.318 7.426-6.435 2.364-.735 4.839-.796 7.429-.195s4.308 1.301 6.492 3.447 4.323 5.046 5.421 9.629c1.297 5.421-.482 10.999-3.087 14.277l-6.557-5.015c.773-3.569 1.289-7.529.865-9.457-.673-3.083-7.33-7.234-10.318 2.51-1.825 5.93-1.159 21.707-15.945 21.163-3.152-.115-9.27-.306-13.86-9.491-2.896-5.788-2.51-13.022 2.119-20.448l6.752 4.243zm45.338 31.156.773 10.421-48.134 5.015-.773-10.226 48.134-5.211zm3.191 22.51-.666 35.735-9.736-.172.226-12.613-39.672-.516.218-10.991 39.672.52.222-12.131 9.736.168zm-2.323 45.307-3.474 12.246-18.566 4.101 15.142 13.409-3.619 10.853-21.703-21.512-19.966-3.474 1.637-10.899 22.093 3.86 28.455-8.585zm-378.964 96.731c0 4.357-3.535 7.892-7.9 7.892-4.357 0-7.888-3.535-7.888-7.892s3.531-7.896 7.888-7.896a7.9 7.9 0 0 1 7.9 7.896zm317.938 0a7.895 7.895 0 0 1-15.788 0 7.9 7.9 0 0 1 7.892-7.896 7.9 7.9 0 0 1 7.896 7.896zm-259.497 74.321 14.958-28.815-8.424-2.563 2.464-6.553 17.961 6.416-18.604 35.854-8.355-4.338zm76.195-.321.36-1.285.214-1.079c.581-3.956.417-6.484-.474-7.602-.899-1.113-3.106-1.932-6.622-2.445l-11.133-1.637c-2.823-.417-4.805-.348-5.976.207s-1.89 1.79-2.173 3.715l-.333 2.242c-.291 1.951.115 3.355 1.209 4.216 1.086.861 3.432 1.549 7.024 2.081l8.344.976 9.56.612zm-1.366 6.087c-2.953.031-5.937-.065-8.933-.287l-9.009-.991c-6.484-.957-10.823-2.368-13.019-4.231s-3.015-4.728-2.445-8.608l.788-5.394c.501-3.344 1.97-5.65 4.419-6.921s6.033-1.557 10.742-.865l16.948 2.494c5.069.746 8.413 2.142 10.023 4.193s2.074 5.425 1.373 10.138l-.773 5.279c-1.098 7.475-4.537 12.869-10.295 16.19-5.773 3.317-13.367 4.281-22.789 2.896l-1.764-.283c-.39-.069-.761-.153-1.109-.256l-4.556-7.23 2.544.375c8.554 1.259 14.859 1.381 18.902.371s7.024-3.302 8.952-6.871zm39.802 14.372-3.466-31.401-8.83.976-.574-5.168 17.303-4.434 4.315 39.064-8.749.964zm63.873-37.621-.291-1.301-.318-1.052c-1.354-3.757-2.689-5.914-4.002-6.477-1.32-.562-3.65-.241-6.997.964l-10.589 3.803c-2.682.964-4.399 1.963-5.165 2.995-.777 1.041-.826 2.475-.168 4.304l.761 2.135c.666 1.855 1.683 2.904 3.053 3.149 1.362.245 3.753-.249 7.177-1.481l7.816-3.072 8.722-3.967zm1.668 6.014-8.015 3.956-8.416 3.378c-6.171 2.211-10.662 3.011-13.474 2.41-2.816-.612-4.893-2.754-6.213-6.446l-1.848-5.126c-1.136-3.183-.93-5.911.635-8.187s4.587-4.216 9.067-5.826l16.121-5.788c4.816-1.733 8.428-2.077 10.815-1.029s4.384 3.81 5.987 8.294l1.81 5.019c2.556 7.112 2.07 13.489-1.454 19.128-3.523 5.65-9.763 10.081-18.726 13.302l-1.683.581a9.766 9.766 0 0 1-1.102.291l-7.429-4.223 2.422-.872c8.133-2.919 13.753-5.781 16.84-8.577 3.099-2.8 4.648-6.224 4.663-10.283zM206.27 231.941c-3.535-.138-9.533-2.911-12.671-.444-2.253 1.775-.712 3.478.861 5.195 2.387 2.601 4.445 4.851 6.331 7.854 1.81 2.892 4.036 6.905 8.045 6.431 5.872-.692 6.45-9.09 9.709-12.789.413-.471 1.381-.8 1.928-1.132.673-.417 1.35-.849 1.982-1.347.845-.669 2.253-1.894 1.63-3.122-.696-1.366-2.999-1.519-4.304-1.565-2.054-.077-4.09.268-6.117.52-2.429.298-4.947.497-7.395.398zm8.091-62.786c1.966 1.706 3.286 4.591 3.321 7.368.077 7.142-2.571 14.128-.44 21.29.497 1.664 6.756 2.127 8.041 2.085 2.582-.077 6.366-.765 7.38-3.546 1.083-2.98-1.71-6.546-2.54-9.27-.926-3.03-.868-7.755 1.683-10.169 5.811-5.486 11.94 5.44 13.214 9.84 1.634 5.647 2.322 13.221-.991 18.432-3.041 4.782-9.721 5.624-14.767 5.811-3.432.126-11.894-1.201-11.81 4.017.058 3.917 5.264 7.54 8.78 7.64 3.979.111 8.172-1.496 12.185-1.599 3.535-.092 8.654.727 10.681 4.021 2.23 3.623 3.741 14.105 4.346 21.362 1.718 20.75-1.928 49.244-1.45 63.349.375 11.045 4.212 24.515-9.411 19.889-3.083-3.336-.976-7.403-.723-11.787.681-11.94 0-26.887 0-41.248 0-6.381.976-12.766.823-19.147-.099-4.308.731-16.84-4.694-18.309-4.809-1.301-9.239 4.507-11.332 7.988 1.435 2.471 6.611 1.132 7.238 4.419-.956 3.202-.21 8.137-2.169 10.314-3.657 1.963-9.752-1.687-13.757.738-1.538 2.242-2.9 5.061-.723 7.361 6.259.643 14.231-.582 15.199 5.161 1.549 9.132-9.591 5-14.476 9.576-3.615 15.153 2.146 41.103 0 54.512-.413 2.586-1.614 8.302-5.069 8.837-6.454 1.006-8.91-11.374-9.411-17.682-1.419-17.858 2.399-32.338-.719-47.14-6.404-1.641-13.654.383-14.484-5.157-1.232-8.16 10.865-4.25 14.484-10.31.478-8.73-9.755-2.479-13.761-5.895-1.679-1.435.39-10.872.287-13.065-.187-4.204-4.553-11.645-7.766-5.012-3.344 6.898-1.611 16.844-.941 24.151.398 4.35.991 8.715 1.182 13.076.57 12.697 4.698 50.724-3.619 52.304-8.765 1.66-8.902-12.269-9.411-21.362-1.01-18.103 1.121-46.665 0-62.614-.367-5.18-3.535-14.224-2.9-17.682 2.533-13.688 21.764-7.25 30.923-11.217 2.135-.926 7.651-4.713 5.987-7.609-1.362-2.368-8.217-1.66-10.601-1.932-6.4-.727-13.868-1.262-16.894-7.969-1.09-11.722 1.656-28.111 10.134-25.781 8.416 2.315.777 11.289 3.619 18.417 1.182 2.953 5.83 6.955 10.861 5.157 10.957-3.91-.421-23.554 5.949-30.643 3.022-3.363 6.228-2.98 8.543-.968zm67.485 64.457c1.725.421 4.507-.979 5.937-1.744a10.537 10.537 0 0 0 4.082-3.91c3.064-5.126.375-14.763-8.493-10.915-4.537 1.974-4.962 7.399-4.61 11.022.153 1.599.826 4.862 2.953 5.509.046.015.088.024.13.038zm-2.969-33.562c-2.479 2.712-.796 6.944 4.545 7.885 1.959.344 7.942-.211 8.883-2.387 1.526-3.543 1.037-7.123-.899-8.286s-5.333.08-8.501.735c-1.84.375-3.183 1.129-4.028 2.054zm21.806 41.654c-3.141 2.988-9.415-.054-13.348 1.217-12.311 3.998-5.693 35.005-7.28 48.811-.983 8.527-3.772 17.238-5.826 24.767-1.523 5.566-2.284 11.779-4.556 17.097-3.233 7.563-11.435 2.02-10.945-4.579.356-4.797 3.401-8.719 4.572-13.244 8.439-32.61 8.015-84.539 3.642-120.202-.352-2.885-.826-5.911-.302-8.807.344-1.905 1.802-5.945 3.963-6.328 2.142-.379 5.123 3.007 6.829 4.093 5.842 3.73 10.253 3.191 12.097-4.258 1.477-5.976-2.406-7.663 2.184-10.199 10.096-5.574 11.19 18.975 11.657 24.771.857 10.635.823 21.248-.028 31.879-.329 4.105.115 9.292-1.465 13.164-.314.769-.715 1.366-1.194 1.817zm31.577-9.614a3.95 3.95 0 0 0 .911-1.614c.945-3.302.654-6.947-1.282-9.797-1.018-1.496-5.077-2.842-6.875-2.556-1.029.164-2.858.268-3.512.937s-.44 1.435-.773 2.315c-1.22 3.24-.562 9.736 2.839 11.752 2.571 1.53 6.748 1.117 8.692-1.037zm-11.703-27.69c.872 1.243 2.146 2.215 3.757 2.716 3.401 1.052 9.468 1.89 10.987-2.506.409-1.174-1.412-4.262-2.062-5.188-1.136-1.614-2.743-2.823-4.51-3.669-2.697-1.289-7.598-2.548-8.979 1.113-1.006 2.651-.647 5.467.807 7.533zm7.582-17.575c1.064.042 3.914-2.38 5.015-2.873 1.679-.757 3.405-1.412 5.283-1.419 7.066-.024 7.2 6.871 6.557 12.043-.983 7.881-1.798 15.54-1.905 23.497-.211 15.846.249 31.562 1.106 47.388l1.664 26.596.792 15.666c.249 4.79-.555 10.333.788 14.966 1.24 4.281 5.509 13.864-1.825 15.666-9.553 2.364-10.907-14.537-11.649-23.306-.995-11.768 4.748-63.991-3.642-69.94-4.025-2.85-7.961-1.637-12.456-1.259-5.88.497-9.319-1.262-9.22-7.177.096-5.75-.78-11.332-1.067-17.062-.654-12.827-1.404-26.229.773-38.945.463-2.705 1.396-8.879 5.214-9.139 8.064-.551 5.509 14.951 14.572 15.299zm-4.165 62.909a5.79 5.79 0 0 1 .497 1.741c.264 1.943-.402 4.051-.953 5.891-.647 2.192-2.747 4.445-1.503 6.733 1.002 1.855 3.749 1.825 3.937 4.319.211 2.839.249 5.199-1.132 7.778-1.393 2.598-2.984 3.546-3.114 6.622l-.072 8.795c-.207 7.077-.532 14.17-.05 21.248.383 5.723 6.936 22.131-1.224 25.211-3.921 1.481-7.866-2.005-9.006-5.36-1.775-5.241-.654-11.657-.478-17.07.371-11.798 2.139-23.86-.218-35.563-.953-4.74-4.553-9.996-2.07-14.874.624-1.224 1.882-1.982 1.848-3.275-.024-.998-1.396-2.559-1.84-3.428-1.389-2.693-2.23-5.165-.845-8.087 1.679-3.527 5.291-4.491 8.929-4.292 3.007.165 6.064.998 7.295 3.611zm-23.52 30.345c-1.477 16.389-.138 34.725-5.1 49.534-1.672 4.985-8.091 18.57-13.114 17.483-8.734-1.882.559-14.564 2.184-18.941 4.472-11.99 7.364-31.588 5.103-46.619-3.703-2.617-4.193-8.252-2.984-12.265.593-1.963 3.994-3.902 4.35-5.773.428-2.28-3.087-3.845-4.208-5.585-2.139-3.34-1.699-6.741 1.553-9.208 4.583-3.474 16.343-2.533 14.35 5.486-.815 3.298-4.331 5.758-3.722 9.308.539 3.137 5.318 6.125 5.23 9.292-.088 3.321-2.896 5.551-3.642 7.288z" fill="#711a5f" fill-rule="evenodd"/></svg>