<svg xmlns="http://www.w3.org/2000/svg" width="134.432" height="134.432"><path d="M31.941 17.533c-.089.149-.149.327-.208.476.06.03.089.06.149.089.447-.119.893-.417 1.34-.774l-.089-.298c-.834-.476-1.607-.536-2.709.03.357.268 1.072.327 1.488.417 0 .03 0 .06.03.06zm-1.459 3.81c.03.06.03.149.06.208 1.816.595 3.215-2.59 4.555-3.572 0-.03 0-.06.03-.089-.03-.06-.089-.119-.119-.179-.208-.03-.417-.089-.595-.119-.06.03-.119.089-.179.119-.714 1.22-2.352 2.858-3.751 3.632zm-4.644 3.036c.417 0 .804-.149 1.34-.506l1.786 2.858c-.149.655-1.756 3.036-2.501 3.542 0 .03.03.03.03.06.298.208.417.208.714.298 1.161-.893 1.28-2.024 2.233-2.947.06.03.089.06.149.089.387 1.28 2.024 4.287 2.649 4.763.179-.06.387-.119.566-.208.685-1.607-.953-3.81-2.114-5.537.03 0 .03-.03.06-.03.863.179 1.369.923 2.352.804l1.667 2.352c-.03 0-.03.03-.06.03L33.4 29.5c-.06-.03-.089-.06-.149-.089-.03.03-.03.03-.06.03.774.744 2.143 1.756 3.036 2.054l.714-.804c-.03-.714-4.227-5.656-5.061-6.906l1.072-1.786c.268.208.179.179.506.119.834 1.905 2.322 3.9 1.637 5.507.03.06.089.119.119.179l.655.179c.06-.03.119-.089.179-.119.06-1.697-.774-4.138-1.935-5.983l.268-1.101c.06-.03.119-.089.179-.119 1.607 2.709 2.917 6.847 6.37 3.691.417-.387.655-.774.804-1.191-.357-1.131-1.399-2.828-2.411-3.572l-.238-.089c0 .953 1.518 2.709 1.459 4.108-.476.506-1.191 1.042-1.994 1.518-1.935-.923-3.274-5.18-4.019-5.537-.387.476-.327.953-.834 1.459l-.447-.298h-.268l-.089.566c-.089.06-.208.119-.298.208 0-.03-.03-.03-.03-.06s-.03-.03-.03-.06c.208-.238.179-.238.208-.476-.06 0-.119 0-.149.03-.208.387-.238.447 0 .685-.625.327-.804.834-1.072 1.369-.774-.238-2.084-2.292-2.143-3.126-.476-.089-.893-.327-1.429-.179-.357.119-.387.447-.655.774-.238-.982-.06-1.637-1.042-2.322l-1.042.149c-.208.357.149 5.477.506 6.043.03-.03.089 0 .119.03zm5.358.595c.417.149.893.923 1.22 1.518-.03 0-.03.03-.06.03l-1.518-.744c0-.03-.03-.03-.03-.06l.387-.744zm-.655-1.042.149.238-.476.893c-.119.089-.238.149-.387.238-.179-.387-.149-.417-.387-.595 0-.119.03-.238.03-.357l.298-.089c0 .298-.03.357.208.714.149-.417.119-.655.566-1.042zm-2.917-1.875c.208-.357.208-.566.655-.923l1.727 1.875c-.149.179-.744.179-1.072.506l-1.518-.893-.119-.863c.327-.03.149 0 .327.298m-8.305 46.379c-1.459-.804-5.567-3.096-7.978-2.56-.774 1.042-1.042 2.233-1.131 4.168-.179 0-.327-.03-.506-.03a1.5 1.5 0 0 1-.208.238c-.179.774.238 1.161.327 1.637h.06c.238-.298.03-.714-.119-1.042.327-.179.566.863.655 1.459a.23.23 0 0 0-.06.119c-2.649-.685-1.994-2.471-3.007-4.495-.536 0-.595.119-1.072.238-.179.655-.238 1.34-.357 1.905v.06c.208.03.119.03.298-.03.119.298.208.625.179 1.042l-2.917-.238-1.012.447c-.06.119-.089.238-.149.387 2.649 1.697 4.912-.893 4.525 4.078l.417.417.566-.089c.893-.327 1.101-1.607.982-2.709 2.084.268 2.471 1.488 2.292 3.215.387.387.714.774 1.31.982.655.208 5.328-.566 5.894-.774.149-.506.179-1.072.089-1.518-.595-.268-1.34-.208-1.994 0h-.238c.298-.714.03-1.607-.238-2.322.536-.387 1.786-.149 2.56-.238.119-.208.179-.417.119-.685-.238-.03-.982-.06-1.101-.208.863-1.161 2.262-1.488 1.816-3.453zm-7.621 4.912h-.06c-.357-.476-.238-1.22-.506-1.816 0-.089 0-.179.03-.268.357.089.923.417 1.34.714.268.208.447.387.447.536.089-.03.179-.06.268-.119.149.179.179.119.238.387-.476 0-1.25-.119-1.637.149-.238.089-.119.149-.119.417zm.387 2.471-.298-.208c.089-.595.208-.893.149-1.578.625-.089 1.072-.387 1.548-.804l.387 1.756.06.06c.238-.119.327-.208.476-.476.268-.566-.06-1.22-.149-1.727l.625-.03c.387.506.566 1.846.655 2.53l-3.453.476zm5.031-3.87-1.25.06c-.298-.595-.268-.893-.357-1.488.238-.506-.06-.744-.655-.566-.149.655-.149 1.399.06 1.994-.238.119-.387.179-.804.149-.119-.566-.298-1.072-.268-1.816a.23.23 0 0 0-.119-.06l-.625.03c-.119.387-.03.953.119 1.28v.06c-.447 0-1.935-1.101-2.262-1.548.119-.804.179-1.846.387-2.471 1.25-.744 5.18 1.28 6.281 1.727.208 1.31-.238 1.578-.506 2.649zm61.769-38.817 1.131.834 3.542-9.734-1.28-.447zm13.961 10.091 1.31.655 7.68-6.906-.893-1.012zM60.131 21.79l1.161 8.246 1.31-.298-1.161-8.127zm36.109 81.088 1.042-.863-3.632-4.316-.923 1.012zM76.653 31.792l1.22.685 2.649-9.258-1.31-.357zm13.961 68.794 3.066 4.227 1.101-.804-3.126-4.287-1.042.863zm11.193-3.126-5.061-4.555-.655 1.25 4.793 4.316zM78.945 13.396s-1.34 3.215-2.709 4.822c0 0-.268-.238-.179-.476 0 0-.863 1.22 0 1.369 0 0 .149.447 1.518-1.607 0 0 .417 2.768 1.34 3.007 0 0 .506 0 .804-1.25l2.59-6.817.774-.208s.774.655 3.929.506c0 0 1.429.268 1.578.595 0 0 .506.089.744-.208 0 0 .179-1.012-2.173-1.042l-3.155-.536s-1.459-.387-.982-.566c0 0 .595-1.578 1.191-1.935 0 0 .417-.893-.566-1.191 0 0-1.548-.268-1.667.06l-.536.655s1.101-.714 1.994.089l-1.578 3.513s-1.369.268-1.637.417c0 0-.447.149.119-.953 0 0 .476-1.697.804-1.25 0 0 .417.476-.268 1.22 0 0 .357-.298.595.03 0 0 .714.417.536-.566 0 0-.089-.744-.834-1.22 0 0-.179-.476.06-1.012 0 0 .06-.238-.149-.447 0 0 3.036-2.143 3.513-3.513 0 0-.089-.417-.298-.327-.149 0-.119.149-.119.149s.149.208-.863 1.161c0 0-2.56 2.114-3.334 2.292 0 0-.595.953.238.625 0 0 .863-.655.536.417l-1.459 3.423s-2.441.655-3.542.208c0 0 .327-.655.566-.655 0 0-1.22-.179-1.22 1.101 0-.06-.03 1.131 3.84.119zm-.834 4.941c-.128-1.941 0 .409 0 0m1.578-5.09s.298.298.089 2.114c0 0 .447.476.595 0 0 0 .327-1.31-.03-2.024.03-.149-.03-.149-.03-.149s.863-.447 1.161-.447l.06-.268.208.03-2.649 6.43-.536-.387-.536-1.756c0-.03 1.459-2.858 1.667-3.542zm9.704 13.693-1.191-.625-5.448 10.24c.327.357.625.744.923 1.131zm2.381 15.807 7.859-8.127-.982-.953-8.275 8.573 1.399.506zM77.427 22.386l-1.31-.268-1.816 8.603c.417.149.863.327 1.28.536zm-6.341-.982-1.34-.089-.566 8.156 1.34.208zm-3.215 7.948v-8.097h-1.34v8.097h.238c.387-.03.744 0 1.101 0zm-2.62.03-.566-8.067-1.34.089.566 8.127zm9.02-7.591-1.34-.179-1.161 8.335 1.31.357zM85.97 41.378l.774.089 8.037-11.044-1.101-.804-8.037 11.074zm3.304.566 7.978-9.526-1.042-.863-8.454 10.062zM85.136 39.8l6.995-11.223L91 27.863 84.332 38.55zm3.215-30.75s-.357-.625-.953-1.072c-.149-.119-.149.149-.149.149s1.012 1.518 0 2.679l-.804.03s-.149.179 1.399.595c.03-.03 1.548-.387.506-2.381zm-.744 11.818c-.595.357-2.56-.714-2.56-.714-1.012-.923.714-3.602.714-3.602 0-.417 1.548-2.173 1.548-2.173-.119-.03-.536-.595-.536-.595-.506-.03-1.607.268-1.607.268l-.685-.387c-.119-.06-.119.387-.119.387-.208-.119-.714.268-.714.268s.06.447.417.327c-1.786 3.572-3.691 3.959-3.691 3.959-.595.208 0 .863 0 .863 1.578 0 4.584-4.733 4.584-4.733.149-.179 1.22-.119 1.22-.119-.357.417-1.578 2.947-1.578 2.947-1.369 2.62-.179 3.036-.179 3.036 3.274 2.114 4.227.923 4.227.923 1.399-2.143.506-3.513.506-3.513 0 .655-1.548 2.858-1.548 2.858zm6.966 75.67 4.078 4.227.982-.953-4.257-4.406-.804 1.131zm-11.014 13.634-1.994-5.477-1.369.208 2.084 5.715zm-7.472 2.143 1.31-.268-1.488-6.995-1.399-.149zm4.435-1.101-1.756-6.162-1.28.03h-.119l1.846 6.489zM97.4 46.052l1.072.923 7.234-4.882-.744-1.131zm-2.203-1.578c.417.238.804.506 1.191.774l7.442-5.835-.834-1.072zm-68.139.327 7.144 4.138c.298-.357.625-.685.953-1.012l-7.412-4.287zm30.095 59.953c-.476 0-.923-.03-1.399-.059l-1.875 6.519 1.31.387zm-6.311 5.418 1.28.447 2.233-6.102-1.34-.238zm9.109-5.596-1.399.119-1.548 7.323 1.31.268zm45.039-38.014 8.186-.298-.059-1.34-7.918.268-.208 1.369zm.357-4.019v.119l-.03 1.25 7.68-.804-.149-1.34zm-.179-2.709.149 1.34 7.293-1.28-.238-1.34zM80.939 34.739l1.042.982 4.555-10.21-1.22-.566zm20.183 15.182.774 1.131 6.906-3.364-.595-1.22zm-1.756-2.054c.327.327.625.685.923 1.042l7.055-4.078-.685-1.161zm3.245 4.316.625 1.191 6.847-2.768-.506-1.25zm1.161 2.441.476 1.28 6.876-2.233-.417-1.28zm-59.685 45.545-1.042-.863-3.423 4.703 1.101.804zm-2.084-1.875-.923-1.012-3.929 4.703 1.042.863zM25.6 47.659l6.995 3.423.804-1.131-7.204-3.513zm34.471-17.236-1.756-8.305-1.31.268 1.816 8.484zm-6.192-7.204 2.53 8.811 1.22-.625-2.441-8.543zm-3.036 1.042 3.334 9.198 1.161-.774-3.215-8.871zM40.187 96.18l-.804-1.131-4.614 4.763.982.953zm6.222 5.596-1.131-.714-3.007 4.793 1.131.714zm-9.258-69.33 8.097 9.675 1.488-.327-8.573-10.21zm-6.579 6.995 7.561 5.924 1.191-.774-7.918-6.192zm-1.846 2.62 7.353 4.941 1.072-.893-7.65-5.18zm6.073-7.442 7.978 8.276c.447-.179.923-.327 1.399-.476l-8.424-8.722zm-2.203 2.352 7.799 7.025c.417-.238.863-.447 1.31-.655l-8.186-7.382zm7.055-6.549 7.918 10.925a15 15 0 0 1 .714-1.34l-7.561-10.389zM32.596 97.46l.893 1.012 5.15-4.644-.655-1.25zm72.039-40.276.298 1.31 7.025-1.756-.327-1.31zm-28.339 59.774-2.798 11.074 1.727-.238.744-3.185 5.09-.744 1.786 2.828 1.846-.268-6.489-9.734zm-.03 6.311 1.131-4.882h.06l2.709 4.316zm6.757-18.903 2.292 5.12 1.22-.536-2.203-4.971-1.31.387zm-9.883.298a11 11 0 0 1-1.399-.357l1.191 8.514 1.34-.179zm16.253-3.215a9 9 0 0 1-1.131.714l2.739 4.376 1.131-.714zm-20.332 1.905.685 9.764 1.34-.089-.625-9.139a11 11 0 0 1-1.399-.536zm16.64.089 2.471 4.674 1.191-.625-2.441-4.614c-.387.208-.804.387-1.22.566zm-35.424.119-2.381 5.358 1.22.536 2.441-5.507a10 10 0 0 1-1.28-.387m41.497 8.395 2.352 11.193 1.429-.982-.744-3.215 4.227-2.917 2.858 1.756 1.548-1.072-10.091-5.894zm1.667.744 4.346 2.709-3.274 2.233-1.131-4.882zM59.149 124.4c-.566 1.935-1.965 2.709-4.227 2.292-2.173-.447-3.007-1.607-2.501-3.513l1.697-6.579-1.786-.327-1.816 6.995q-.759 3.572 4.019 4.555c3.423.536 5.537-.417 6.341-2.917l1.756-6.757-1.786-.327zm-11.461-21.939-2.679 5.001 1.191.625 2.709-5.09c-.387-.119-.804-.327-1.22-.536zm18.843.179v10.538h1.34v-10.389l-.834-.447c-.149.119-.327.208-.506.298m-3.215 10.389 1.34.089.685-9.972-1.399.506zm-3.185-.387 1.34.179 1.25-8.782-1.399.327zm43.193-40.961 9.526 1.012.149-1.34-9.109-.953zm-3.661-41.973c3.126 2.709 8.454.447 8.454.447.119.208-.655 3.87-.655 3.87-.447 1.578.089 2.858.089 2.858l1.25 2.024c.179-.208.476-.208.476-.208.089-1.161-.268-1.846-.268-1.846-.804-3.066.268-7.204.268-7.204 0-.417.774-.595.774-.595l1.101.536c.238.744.685.595.685.595.298.447.357.06.357.06.655-.566-.03-1.191-.03-1.191l-1.25-.774 1.548-.953c1.131.953 1.697.863 1.697.863l.476-.655.089-.774c-.268-.089-.714-.744-.714-.744-.655-.149-1.935-1.369-1.935-1.369s-.327.03-.298.179c0 .149-.208.447-.208.447-.417.536-.268.506-.268.506.149.119.119.595.119.595-.03.685-1.459 1.34-1.459 1.34l-2.59-1.697c-.953-.506-.298.179-.298.179-.179.625 0 1.31 0 1.31a6.5 6.5 0 0 0 1.727.953c-3.84 2.203-8.692.714-8.692.714-1.34-.208-.447.536-.447.536zm4.674 39.472 8.811.298.059-1.34-8.454-.298-.417 1.34zm-65.073 50.457.03-10.657-1.786-1.042-6.787 9.288 1.429.834 5.507-7.502.06.03.03 10.716 1.667.953 6.787-9.288-1.429-.834zm62.781-45.605 10.329 1.816.238-1.34-9.823-1.727zm-34.829 60.399c37.031 0 67.216-30.185 67.216-67.216S104.248 0 67.216 0 0 30.185 0 67.216c-.03 37.031 30.185 67.216 67.216 67.216zm0-133.033c36.257 0 65.817 29.56 65.817 65.817s-29.56 65.817-65.817 65.817-65.817-29.56-65.817-65.817S30.959 1.399 67.216 1.399zm46.557 47.807s.298.327.149.625c0 0 .506 1.012 2.292 1.697 0 0 3.274.149 3.9-.03 0 0-3.274 4.852-2.798 6.132l-.03 1.042s.179-.089.119.387c0 0 .357.06.417.119 0 0 .149.03.149-.208s.208-3.513 2.768-7.412l.447-.089s1.369.923 2.143 2.679c0 0 .595-.06.536-.685 0 0-.298-.566-.208-1.191 0 0 .149-.357-.417.417l-.982-1.399s-.357-.208 1.637-.595c0 0 2.649-.685 2.798-.923 0 0 .417-.595-.208-.536-.179-.03-.327 0-.327 0s-3.661 1.34-4.406 1.22l-1.697-3.423s-.714.476-.536 1.697c0 0 1.31 1.846.893 2.024 0 0-4.941.982-6.281-2.054zM98.711 86.178l7.978 4.614.685-1.161-8.514-4.912c-.06.476-.089.982-.149 1.459m-1.369 5.448 5.686 4.435.834-1.072-6.013-4.703c-.179.447-.327.893-.506 1.34zm1.488-8.216 9.377 4.584.595-1.22-10.062-4.912c.06.506.089 1.012.089 1.548zm1.637-7.204 11.163 2.798.327-1.31-10.597-2.649q-.402.58-.893 1.161m-2.262 12.741 6.728 4.555.744-1.131-7.174-4.852a24 24 0 0 1-.298 1.429zm.417-8.305 10.955 4.435.506-1.25-11.758-4.763c.119.506.208 1.042.298 1.578zm.03-2.501 12.056 3.929.417-1.28-11.431-3.721a18 18 0 0 1-1.042 1.072M21.433 63.078l7.68.804c-.03-.357-.03-.714-.03-1.072v-.298l-7.502-.774zm.387-3.185 7.293 1.28a21 21 0 0 1 .149-1.34l-7.204-1.28zM9.794 43.134s1.042-.387 1.191-.238c0 0 .149.625.03 2.143 0 0 .208.506.268-1.28 0 0 .149.298.417-.834 0 0 .089-.298.387-.566 0 0 .476-.714-.417-.714 0 0-2.709.179-3.096 1.637a.6.6 0 0 0 .06.447s.834-.536 1.161-.595zM59.03 16.759c.238-.863-.804-2.322-.804-2.322.03-.089.953-.208.953-.208.893-.476.327-.834.327-.834-1.101-.327-1.697.327-1.697.327-1.131.982-2.709 1.369-2.709 1.369s.03.149.149.149c.119-.06.506.327.506.327.655.595 1.518-.506 1.518-.506 1.131 1.191.06 2.709.06 2.709-1.28.566-1.31.655-1.31.655-.447.357-1.28.536-1.28.536-.566-.208-.238.03-.238.03.089.089.208.625.208.625.476.119 1.399-.089 1.399-.089.357-.476 1.429-.863 1.429-.863 1.786-1.727 4.435-1.399 4.435-1.399.208-.119.089-.506.089-.506.208-.119.06-.119.06-.119-.417-.476-2.798 0-2.798 0-.179.268-.298.119-.298.119zM19.26 44.652c.506-.566 2.501-.953 2.501-.953 1.101-.447.298-1.101.298-1.101-1.31-.566-2.262.208-2.262.208-.655.655-.744 1.816-.744 1.816s.149.149.208.03zm-8.275 7.74.327-.298c.06-.089.774-.804.774-.804-.119-.089-.06-1.578-.06-1.578.625-3.661.298-3.602.298-3.602.804-3.126.387-3.007.387-3.007l1.072-2.739c.595-.923.476-1.131.476-1.131-.506-.447-.923.625-.923.625-.238 1.012-.982 2.887-.982 2.887-1.667 8.752-1.369 9.645-1.369 9.645zm19.23 3.513c.149-.417.298-.834.476-1.25l-6.995-2.262-.417 1.28zm-.387 1.28-7.055-1.756-.327 1.31 7.055 1.756c.089-.417.208-.863.327-1.31m-8.573 9.109 8.156.268a21 21 0 0 1-.208-1.34l-7.918-.268zm30.363-52.511s.089-3.364 1.875-3.959c0 0 .268-.625.953.417 0 0 .536 2.203-.089 3.721 0 0-.744-.208-.536.298l-.357.298s.298.119.417.357c0 0 .179.774 1.34-.268 0 0 .685-1.518.298-4.525 0 0-.387-.714-.982-.327 0 0-1.042-.238-.208-.506 0 0 2.471-1.488 4.465-1.548 0 0-.655.893-.506 1.28 0 0-.149.685 1.25-.417 0 0 .447-.536.982-.566 0 0 .863-1.429-.774-1.28 0 0-.447.149-.744.149 0 0-1.012-.149-2.828.566 0 0 .179-1.25-1.101-1.965l-.506-.447s-1.548.03-1.667.566c-.506.179 0 .447-.03.417s.893.238 1.161 1.191l-.536.149s-.298.417.655.119c0 0 .327.506.625.387l.119.208s-1.131.357-2.53 1.459c0 0-.089-1.488-.893-1.25 0 0-1.31 1.905-1.607 5.567 0 0 .238.238.238.447-.03.06.714.923 1.518-.536zm-14.17 77.546c-.179-.447-.327-.893-.476-1.34l-6.4 5.001.834 1.072zm15.777-57.155-4.108-9.228-1.22.536 4.287 9.615c.327-.298.685-.625 1.042-.923zm-3.542 3.721-6.251-10.032-1.161.714 6.579 10.508c.268-.387.536-.804.834-1.191zM31.882 52.213l-7.055-2.858-.506 1.25 6.906 2.798c.238-.387.447-.804.655-1.191zM51.35 35.93l-5.12-9.645-1.191.625 5.358 10.062zm7.382-24.41s-.863.327-.893-.149c0 0-.804-1.637-.953-2.649 0 0-.357-.268-.506-.149-.238-.06-.208 0-.208 0s-.06 1.965 1.012 3.274c0 0 .268.417.863.268l.06.179s-1.399 1.518-1.518 1.816c0 0 .208.179.208-.149 0 0 .208-.357.506-.208 0 0 .685-1.22 1.191-1.34 0 0 .804-.06.804-.774 0 0-.208-.208-.417-.149.03-.03.06-.357-.149.03M32.923 75.075l-10.508 2.62.327 1.31 11.044-2.768c-.268-.387-.566-.774-.863-1.161zm3.066 6.608L25.6 86.744l.595 1.22 9.734-4.733c0-.536 0-1.042.06-1.548m-1.429-4.584L23.278 80.76l.417 1.28 11.907-3.87c-.357-.327-.685-.685-1.042-1.072zm1.816 1.846L24.32 83.827l.506 1.25 11.282-4.555.268-1.578zm-.417 5.537-8.871 5.12.685 1.161 8.335-4.822a8 8 0 0 1-.149-1.459m.298 2.798-7.561 5.09.744 1.131 7.115-4.793c-.089-.476-.208-.953-.298-1.429zM13.991 42.836s.089 1.25-.238 1.637c0 0-.179.536-.06 1.042 0 0-.119.268-.327.238-.268 0-.327.238-.327.238s.476.953 2.411.625c0 0 1.667.774 1.816-.923 0 0 1.935.327 5.448 1.965 0 0 .06 1.131-2.709 1.697 0 0 2.887.774 3.691-1.637 0 0 .625-.506-3.513-1.786L16.76 44.89s.417-1.161-.06-1.34-.208.208-.238-.119c0 0-.595-1.31-1.22-1.548-.06 0-1.101-.149-1.25.953zm.655.476c1.399 1.131 1.31 2.173 1.31 2.173-.774.149-1.459-.149-1.459-.149s-.327-1.548.149-2.024m15.807 27.089-9.02.953.149 1.34 9.436-.982a25 25 0 0 1-.566-1.31zm1.101 2.411-9.734 1.727.238 1.34 10.21-1.786c-.238-.447-.476-.863-.714-1.28zM19.677 49.653s.208.03-.863-.685c0 0-.566-.804-.506-.744 0 0-.268-.179.179.566l.298.417s-.089.208-.298-.03c0 0-.298-.417-1.28-.268l-.089.149-.06.089s.238.268.357.268c0 0-.06.506 1.965 1.786 0 0 1.191.476 1.22-.804 0 0-.953-.655-.923-.744m9.972 18.188-8.424.298.06 1.34 8.752-.298a23 23 0 0 1-.387-1.34zm96.805 7.204c-.089-.06-.179-.149-.268-.208l.357 1.191c.089.03.208.06.298.089.417-.179.714-.506.804-1.101-.357.06-.566.357-.804.595-.149-.208-.268-.387-.387-.566m-1.786.119c.119.089.208.179.327.298.268-.208.327-.536.536-.893.179-.208.149-.149.447-.089 0-.06 0-.119.03-.179a1 1 0 0 1-.149-.208c-.149-.03-.327-.03-.476-.06-.298.298-.476.714-.714 1.131zm-1.34-5.15-.089-.774c.149.03.327.03.476.06.03-.03.059-.03.059-.06-.149-.923-1.25-2.114-2.173-2.411-.059 0-.119.03-.179.03a1.15 1.15 0 0 0-.119.982c.268.625 1.131.804 1.429 1.369.387.744.357 3.929.238 5.209a5 5 0 0 1-.566.238c.059.387.208.476.476.685l-.357.953c0 .03 0 .089-.03.119-.536-.208-.744-1.518-.863-2.054-.03-.03-.089-.06-.119-.089-.089.804.238 3.185.566 3.423.774-.357.655-1.31 1.101-2.084.089-.119.089-.089.208-.149.774.476 4.138 2.054 5.358 1.697.06 0 .119-.03.179-.03.179-.536.208-1.756-.208-1.965-.179.536-.179.923-.119 1.429-1.31.089-4.614-.982-5.18-1.697l.982-.625c.03-.03.089-.03.119-.06v-.06c-.387.089-.804.208-1.191.298h-.059c.03-.179.03-.327.059-.506.357-.387 1.101-.447 1.488-.834.863.208 1.161.774 2.084.953.089-.119.179-.238.298-.357v-.06l-1.875-.744c.03-.238.238-.357.387-.655.774-.03 1.399.774 2.084 1.072.059.089.089.179.149.268-.298.327-.595.685-.923 1.012.03.03.03.089.059.119.536-.089.834-.506 1.101-.953.774.238.863.834 1.786.982.089-.119.179-.238.298-.357-.208-.179-.179.06-.417-.06-.417-.357-.863-.685-1.28-1.042.268-.417.506-.685.595-1.369-.03-.03-.089-.06-.119-.089-.268.179-.536.774-.685 1.131a1.5 1.5 0 0 1-.208.089c-.179-.238-.357-.476-.536-.685.179-.208.268-.238.566-.238.03-.03.06-.089.089-.119l-.774-.089c.179-.566.03-.595-.059-1.131-.119-.089-.238-.149-.327-.238v.566l-.714-.089c.268.268.595.238.714.655l.089.268c-.119.06-.149.149-.268.208-.566-.476-1.429-1.459-2.143-1.637 0-.06.03-.119.03-.179.982.03 1.935.149 2.649-.268.744.685 1.548 1.459 2.53 1.875.268-.089.357-.089.536-.327-.863-.536-2.53-1.399-2.709-2.471-.268-.179-.417-.149-.714-.089-.089.298-.03.327.119.595-.327.357-3.304.417-3.9.357zm.179 3.661h-.059l-.119-3.036c.268-.208.834-.179 1.191-.238.03.06.059.089.119.149-.119.119-.238.238-.357.327.179.149.327.298.506.447v.06c-.03.03-.059.089-.089.119-.357.03-.744.03-1.101.06-.03.03-.059.089-.089.119 0 .06-.03.119-.03.179.238.387.744.774 1.22.953-.268.447-.863.476-1.191.863zm2.203-1.607c-.149.327-.357.417-.566.625l-.982-.625c0-.089.03-.179.03-.238.208-.089.387-.179.566-.238.327.149.655.298.953.476zm-3.394 2.292c.119 0 .238 0 .357-.03.03-.179.089-.327.119-.506l-.625-1.905c0-.06.03-.119.03-.179.149.03.327.03.476.06a1.5 1.5 0 0 1 .208-.089c-.298-.566-.834-.923-1.607-.953-.059.089-.149.149-.208.238.089.417.149.625.506.834.059.089.089.179.149.268-.327.179-.655.387-.982.566-.089 0-.149-.03-.238-.03l-.298-4.376c-.149-.03-.327-.03-.476-.06-.447 1.25-.119 3.215.149 4.376 0 .089-.03.179-.03.238-1.429.06-2.887-.03-4.227-.447-.357-.774-.536-1.905-.447-3.007-.03-.03-.089-.06-.119-.089-1.697 4.138 1.518 4.346 4.733 4.108h.059c.149.774-.327 1.756-.566 2.322.03.03.03.089.059.119.119.03.238.06.357.119.655-.714.685-1.637.804-2.62.625-.536 1.518.476 1.816 1.042zm-.863-1.548.417-.506c.417.179.357.387.536.744-.03.179-.03.327-.059.506a14 14 0 0 0-.834-.595c-.03-.06-.03-.089-.059-.149zM57.571 94.871v-7.889h-.744c-.149 1.072-.863 1.607-2.143 1.548v.804h1.875V94.9h1.012zm6.162-7.918c-1.607.089-2.471.982-2.56 2.709.06 1.637.863 2.501 2.471 2.56.863-.03 1.488-.327 1.786-.923h.03q-.402 3.037-1.875 2.947c-.834 0-1.28-.417-1.369-1.28h-.953c.089 1.28.863 1.965 2.322 2.024 1.816-.06 2.768-1.518 2.887-4.376-.03-2.411-.953-3.632-2.739-3.661m.089 4.406c-1.101.03-1.667-.536-1.637-1.697.03-1.101.536-1.697 1.548-1.756.982.03 1.518.595 1.578 1.667-.03 1.161-.536 1.756-1.488 1.786zm9.794.953c-.119-1.548-.982-2.411-2.62-2.56-.566 0-1.042.149-1.488.476l.298-2.143h3.334v-.953h-4.078l-.566 4.257.834.03c.387-.476.863-.714 1.488-.744 1.072.089 1.667.685 1.727 1.756-.119 1.131-.655 1.756-1.637 1.816-1.012 0-1.607-.447-1.727-1.369h-1.012c.149 1.34 1.012 2.054 2.56 2.114 1.756-.06 2.739-.953 2.887-2.679zm4.525-1.191-1.042.625c-1.22.685-1.846 1.697-1.846 3.126h5.388v-.923h-4.287c.089-.566.536-1.042 1.31-1.488l.834-.476c1.488-.655 2.203-1.518 2.143-2.62-.119-1.459-.953-2.262-2.501-2.381-1.816.06-2.709 1.012-2.709 2.858h1.012c.03-1.28.566-1.935 1.578-1.935.953.03 1.488.506 1.578 1.399.06.714-.447 1.34-1.459 1.816zM42.717 65.936l1.161.923c.06-.06 4.287-5.239 12.979-7.859l-14.14 17.712 1.161.923c.06-.06 4.941-6.043 14.973-8.365L42.717 89.453l1.161.923c.06-.089 7.621-9.317 23.308-9.317 15.539 0 23.219 9.228 23.308 9.317l1.131-.923L75.521 69.27c9.972 2.352 14.914 8.305 14.973 8.365l1.131-.923-14.11-17.682c8.633 2.62 12.919 7.769 12.979 7.829l1.131-.923-24.44-30.631zM85.97 84.72c-4.019-2.53-10.24-5.15-18.813-5.15-8.543 0-14.735 2.56-18.754 5.09l12.681-15.866c1.875-.298 3.9-.506 6.102-.506s4.227.179 6.102.506zM62.423 67.127l4.733-5.954 4.763 5.954c-1.488-.179-3.066-.268-4.763-.268s-3.245.089-4.733.268m23.546 4.852c-2.858-1.786-6.817-3.632-11.907-4.525l-6.876-8.633-6.876 8.633c-5.09.893-9.02 2.709-11.877 4.495l10.806-13.544c2.381-.536 5.001-.834 7.948-.834 2.917 0 5.596.327 7.948.863zm-25.333-15.36 6.519-8.156 6.519 8.186a40 40 0 0 0-6.519-.536 34.7 34.7 0 0 0-6.519.506m6.519-18.962L85.97 61.203c-2.501-1.578-5.835-3.155-10.032-4.168l-8.752-10.984-8.752 10.955c-4.197.982-7.531 2.56-10.002 4.108z" fill="#1d2088"/></svg>