<svg xmlns="http://www.w3.org/2000/svg" width="200" height="200"><defs><clipPath id="a"><path d="M0 4h199.961v195.996H0zm0 0"/></clipPath></defs><g fill="#57068C"><path d="M119.547 29.535c1.035.75 2.141.957 3.52.75 3.246-1.297 2.488-5.117 3.73-7.641.137-.34.621-.27.828-.137-.621-.406-1.863-.68-2.488-.68.348.137.762.273.762.68-.555 2.457-.762 5.117-2.414 7.027-.691.41-1.867.613-2.625.137-3.035-1.91-.273-5.25-.137-7.844 0-.547.484-1.09 1.035-.957l-2.832-.68.832.68c-.07 2.867-2.762 6.074-.211 8.664M73.098 22.85l-2.762.957.898-.07c1.105 1.84 1.586 3.891 2.348 5.867.207.75.965 2.047 0 2.523.898-.273 2-.613 2.621-1.023-.277 0-.484.207-.828.137-.828-1.227-1.312-2.66-1.586-4.027 2.484 1.023 5.105 3.754 7.867 1.98-2.762.203-4.969-1.703-7.246-2.797 1.031-1.703 1.309-3.957 3.105-5.184-.762.137-1.453.613-2.211.816l.344.273c-.551 1.57-1.168 3.344-2.066 4.504-.07-1.367-2.004-3.004-.484-3.957m57.703.547-4.074 7.773h-.898c.832.344 1.727 1.023 2.555 1.16-.414-.203-1.035-.68-.621-1.227l2.691-5.73 2.902 9.344.344.273 4.004-7.641.691-.137c-.762-.27-1.59-.816-2.281-.953l.621.477c-.551 2.316-1.793 4.367-2.758 6.48l-3.176-9.82m12.77 6.766.137.121a.82.82 0 0 0-.137-.121m-6.837 6.331c.898.477 1.727 1.027 2.691 1.367l-.687-.547c.758-2.32 2.414-4.094 3.383-6.207.32-.32.824-1.406 1.449-.941-.562-.555-1.434-1-2.141-1.379l.484.75c-1.312 2.387-2.695 4.707-4.348 6.957h-.832m12.012 1.914c1.52-.547 2.832-2.184 4.488-1.641l-2.07-1.5.414.684-6.004 3.75h-.414l2.207-6.957.758.137-2.484-1.844.414.547c-.137 3.273-1.793 6.277-2.141 9.484l4.832-2.66m-105.262 1.84c2-.41 4.004.613 6.004 1.09 1.176.82 1.867 1.707 2.555 2.934 0 .207-.551.41-.273.547l2.141-1.98c-1.52 1.23-2.277-1.293-3.383-2.113-.555-1.844-1.383-4.367-.555-6.141l-1.586 1.57.273-.07c.828 1.297.898 3.004 1.105 4.504-1.516-.41-3.035-.887-4.414-1.5v-.41c-.762.41-1.316.887-1.867 1.57m106.781 3.75c-.418.477-1.105.887-1.52.41l3.313 3.137h.414c.414-.27.969-.477 1.035-1.023-.414.273-.758.547-1.242.41-.621-.41-1.656-1.09-1.586-1.84l2.555-2.73 1.449 1.297c.207.41-.07.754-.277 1.023.484-.27 1.035-.68 1.313-1.16-.895-.137-1.586-1.02-2.141-1.637l2.348-2.453 1.313 1.156c.484.344.207 1.023.07 1.297l1.172-.887-3.793-3.137c.066.34.48.547.414.957l-4.836 5.18m-119.202 10.3.758-.477 8.695 2.93.277-.133-4.004-6.48 7.387 2.113c-1.52-2.523-3.383-4.91-5.039-7.367-.273-.41-.07-.887 0-1.297-.414.684-1.242 1.434-1.449 2.047.207-.203.484-.547.758-.41 1.453 1.91 3.039 3.75 4.145 5.73l-7.387-2.113 4.004 6.137v.41c-2.141-1.023-4.418-1.57-6.492-2.727-.066-.207.141-.477.211-.684-.691.684-1.449 1.5-1.863 2.32m69.645-7.641c0 1.023-.691 2.25 0 3.07v-3.07m61.152 8.594c-.48.137-1.242.41-1.59.957.141.82.484 1.5 1.176 2.113.621.613 1.52.75 2.348.684 3.449-.684.898-4.914 3.172-6.48.691-.273 1.453.066 1.934.75.418.547.277 1.637-.207 2.047l1.246-1.023c-.621-1.16-1.383-2.66-3.105-2.457-3.797.75-.277 6.414-4.281 6.688-.484-.344-1.242-.613-1.379-1.23-.414-.75 0-1.707.688-2.047M30.855 57.16l-1.246-.887-2.484 4.367c.207-.207.555-.684.969-.613l6.074 3.684c.414.27 1.035.82.551 1.363.898-1.227 1.934-2.797 2.625-4.094-.277-.406-.691-.887-1.242-1.023v.207c.066-.07.137 0 .207.07.688.477.273 1.43-.207 1.977-1.105 2.047-2.832-.75-4.211-1.09.551-.613 1.035-2.32 2.141-1.707l-1.312-1.09c0 .953-.691 1.84-1.312 2.523-.898-.613-2.07-1.16-2.828-1.844.41-.75 1.238-2.387 2.277-1.844m133.215 4.844c.551.887.965 1.91 1.586 2.527.07-.414-.414-.551-.207-1.023 1.934-1.434 3.934-2.457 6.004-3.754.484-.27 1.449-.816 1.797 0-.484-.816-.898-1.703-1.449-2.387l.137.82c-2.277 1.566-4.762 3.066-7.18 4.23l-.687-.414m3.52 6.141 1.313 2.727.07-.066-.07-.137c-.07-.41-.277-.82.137-1.094l7.039-3.41.207.207c.277.953 1.383 2.32.418 3l1.379-.613c-1.379-2.117-2.207-4.367-3.176-6.547a5.64 5.64 0 0 0-1.449.41c1.379-.07 1.656 1.703 2.207 2.59-2.207 1.297-4.555 2.113-6.766 3.273-.48.41-1.102.07-1.309-.34M29.059 74.691c.621.203.348.887.277 1.23l1.242-2.457-.551.613c-2.281-.41-4.281-1.773-6.422-2.66l9.805-3.207-7.734-3.957-.066-.82c-.348.754-.969 1.641-1.105 2.324.277-.207.344-.754.828-.684l6.074 2.727c-3.039 1.16-6.695 2.117-9.871 3.207l7.523 3.684m150.195-2.387-.898-2.184v.684c-1.102 1.703-2.207 3.203-3.863 4.637-1.172.137-2.691 1.707-3.59.41l-.137.07c.551.816.621 1.977 1.172 2.727l-.137-.82c.758-.953 2.344-1.156 3.52-1.566 2.07.477 4.488.203 6.004 1.773-.137-.684-.551-1.297-.758-2.047l-.344.547c-1.59-.207-3.246-.34-4.629-.82l3.176-3.547.484.137M45.27 150.332l-.195.004a.55.55 0 0 0 .195-.004m19.266-7.496c.484 0 .969.41.969.887l.137-1.434c-2.141.273-4.625.344-6.625-.066l-.344 1.297h.07c.414-1.297 2.066-.547 2.965-.613v6.137c-.137.477.137 1.367-.758 1.297l2.691.07-.828-.344c-.277-2.316-.207-4.91-.07-7.23h1.793m-30.988 3.82c.828.07 1.656 0 2.277-.547.551-.547.828-1.363.828-2.25-.691-2.32-3.73-1.297-5.383-1.57.137.344.758.07.895.613v6.617c.07.477-.551.816-.687.887l2.551-.07c-.273-.133-.687 0-.895-.34a64.38 64.38 0 0 1 0-7.367c.621-.137 1.586-.066 2.07.613.414.547.758 1.301.48 2.047-.273.887-1.309 1.367-2.137 1.367m4.832 3.684c1.656-.137 2.758.273 4.488 0l.066-1.297-.414.816c-.691.207-1.797.273-2.414-.066-.07-1.16-.207-2.457.066-3.547.762.27 2.211-.344 2.281.816l.207-1.363c-.691.41-1.797.203-2.625.137l.07-3.141h1.656c.621-.066.691.617.828.957l.277-1.23-4.695-.133c.141.27.621.203.828.406.137 2.391.207 4.98-.07 7.301l-.551.344m62.852.07h-.25a.657.657 0 0 0 .25 0m2.375 0h-.473c.156.031.316.031.473 0m1.865-7.985c-2.141.07-4.488.137-6.559-.133-.07.477-.414.953-.137 1.363.344-1.363 2-.613 2.965-.684l-.066 6.547c-.117.285-.094.805-.441.891h1.898a1.15 1.15 0 0 1-.422-.207c-.344-2.32-.07-5.184 0-7.297h1.313c.688 0 1.516.133 1.516.887l.07-.07c-.07-.477.137-1.23-.137-1.297m33.133.273c.758-.066 1.102.75 1.309 1.227 1.105-2.387-2.484-1.637-3.312-.887-1.793 3.004 2.902 3.48 2.762 6.207-.414.887-1.379 1.367-2.277 1.023-.691-.273-.969-1.023-1.035-1.566v1.637c.621.34 1.516.41 2.277.273.691-.207 1.242-.617 1.586-1.23 1.105-2.797-2.762-3.34-2.969-5.66 0-.816.969-1.023 1.66-1.023m-62 7.699c.098.016.195.016.293.008l-.293-.008m-2.012-.055-.25-.008a.35.35 0 0 0 .25.008m12.656-1.23h-.207v.34c-.344.816-1.379.75-2.207.75-1.172-.75-.484-2.594-.555-3.82h1.52c.621-.137.691.75.828.75l.207-1.363c-.758.41-1.863.203-2.691.137.07-1.023-.137-2.184.207-3.07.621 0 1.379-.066 2 .07.277.203.348.477.277.816.414-.066.207-1.023.273-1.297l-4.164.129c.199.023.371.121.508.348v6.551c-.059.344-.121.883-.512.957l3.066.066c1.105.406 1.52-.48 1.449-1.363m-4.516 1.295-.246-.004a.58.58 0 0 0 .246.004m-.316-7.848.32-.012a1.1 1.1 0 0 0-.32.012m14.98 6.551h-.07c-.137.066-.07.27-.07.406-.344.957-1.449.547-2.207.684-1.176-1.023-.344-2.523-.414-3.82h1.656c.273.207.551.477.551.82 0-.477.277-1.027.07-1.434-.691.477-1.656.273-2.418.137l.141-3.07h.277c.824.273 2.137-.344 2.207.887l.07-1.297-4.488.066.828.41.066 5.324c-.207.609.277 2.043-.758 2.18h4.418l.141-1.293m50.867-5.32v-1.301c-2.137.07-4.484.207-6.555-.066-.348.34-.348.887-.277 1.297.137-.137.348-.41.484-.684.621-.203 1.793-.203 2.555 0l-.07 6.141c-.121.414.066 1.129-.414 1.23h1.793a.57.57 0 0 1-.414-.414c-.066-2.316-.207-4.84.07-7.09 1.172.066 2.414-.273 2.828.887m-1.863 6.617h-.621c.191.047.414.031.621 0m-2.414 0h-.277a.805.805 0 0 0 .277 0m-30.648 0h-.355c.109.016.227.023.355 0m2.484-6.551c-.828-2.047-3.52-1.16-5.242-1.367l.758.41v7.027c-.039.164-.133.379-.293.477h1.938c-.184-.027-.34-.094-.469-.137-.277-2.32-.211-5.047-.07-7.434h1.313c.824.41 1.516 1.363 1.242 2.523-.348.816-1.312 1.5-2.141 1.434.828.203 1.449-.207 2.141-.547.758-.613.895-1.434.824-2.387m-4.777 6.551h-.398c.164.078.293.063.398 0m54.406.066c1.59-.07 2.625.27 4.418 0l.07-1.367-.07.48c-.414.953-1.656.613-2.484.613-.551-1.094-.344-2.66-.141-3.82.691 0 1.313.07 1.867.273.273.133.207.543.414.543-.07-.477.207-.816.137-1.363-.762.41-1.793.207-2.555.137v-2.32c-.07-.34-.07-.953.484-.75.758.07 2.141-.273 2.07.887 0-.41.207-.887.137-1.297-1.449.137-3.039.07-4.555.07l.758.273c.277 2.25.141 4.773.07 7.094.07.477-.691.477-.621.547m-99.395 12.48c-.414-.133-1.035-.066-1.172-.613l-.828-7.367-.277-.203-3.379 6.684-3.453-6.684-1.105 7.914-.687.27c.758-.066 1.52.207 2.277 0l-.758-.27.48-5.527c1.313 1.844 1.727 4.16 3.176 5.801 1.172-1.91 1.863-4.297 3.039-5.934.273 1.906.551 3.953.41 5.934.898.133 1.797.133 2.277-.004m16.98-8.184c-1.449.066-2.828.75-3.52 2.113-.621 1.23-.551 2.867-.07 4.094 1.313 2.184 3.66 2.453 6.145 2.113.965-.066.828-1.297.828-1.977l-.484 1.09c-.828.754-2.207.617-3.176.41-1.242-.547-2.555-1.703-2.758-3.137-.07-1.434.07-2.863 1.172-3.75.965-.613 2.348-.82 3.59-.48.828.207 1.586.957 1.586 1.91.141-.68-.066-1.43.141-2.043-1.176-.277-2.348-.277-3.453-.344m8.008 1.023c.828-.613 1.863-.684 2.969-.613 1.105.137 2.141.816 2.141 1.977.203-.68 0-1.434.203-2.043-2.207-.273-4.07-.684-6.004.609-.969.891-1.379 2.047-1.449 3.344.137 1.227.551 2.387 1.449 3.207 1.313.957 3.176.957 4.695.887 1.379.344 1.035-1.363 1.242-2.047-.137.547-.414.957-.762 1.363-.687.547-1.863.273-2.758.207-1.242-.41-2.762-1.707-2.832-3.273-.207-1.301 0-2.73 1.105-3.617m14.355 7.297c.621-.34.762-1.16.828-1.84-.414-.137-.273.27-.344.477-.207.887-1.176 1.023-2.004 1.023-1.586.137-2.762-.684-3.656-1.773-.484-1.094-.828-2.594-.344-3.82.344-.82 1.031-1.637 1.93-1.84 1.242-.273 2.832-.273 3.797.68.277.34.137.957.414 1.16l.07-2.047a9.64 9.64 0 0 0-4.832 0c-1.172.41-2.141 1.637-2.418 2.727-.137 1.023-.207 2.387.418 3.277 1.172 2.25 4.141 2.18 6.141 1.977m8.008 0h2.141c-1.727-.684-2.277-2.867-3.316-4.434l2.281-3.41.688-.273c-.687.07-1.379-.137-2.137 0 .207.207.551 0 .617.344-.551 1.09-.965 2.043-1.863 2.797a13.134 13.134 0 0 1-1.449-2.934l.484-.207-2.555-.066c1.449.547 2.07 2.66 2.969 3.953-1.035 1.504-1.59 3.41-3.312 4.23.758 0 1.586.07 2.207-.07-.207.07-.277-.133-.414-.133.207-1.23 1.242-2.391 1.863-3.48.691 1.227 1.727 2.25 1.797 3.684m8.836 0h2.07c-1.52-.684-2.277-2.934-3.312-4.5 1.035-1.16 1.516-3.004 3.105-3.617h-2.141l.551.273c-.414 1.09-1.105 1.91-1.723 2.934-.691-1.023-1.383-1.773-1.59-3.004l.484-.203-2.625-.07c1.52.613 2.141 2.66 3.039 4.027-1.105 1.293-1.656 3.547-3.383 4.16h2.207v-.07c-.137.07-.273-.137-.414-.137a10.443 10.443 0 0 1 1.934-3.41c.621 1.23 1.727 2.527 1.797 3.617m6.117-8.121.23.004a.51.51 0 0 0-.23-.004"/><path d="M131.078 163.094h2.137c-1.793-.75-2.277-3.004-3.312-4.5 1.035-1.094 1.449-3.07 3.035-3.617-.687.07-1.445-.137-2.207 0l.555.273c-.277 1.09-1.105 2.184-1.797 2.867l-1.312-2.32c-.348-.23-.203-.75.184-.824-.797-.023-1.77.121-2.457-.062v.203h.41c1.313.953 1.863 2.59 2.695 3.82-1.242 1.434-1.656 3.477-3.449 4.16.48.07 1.586 0 2.273 0l-.48-.41c.48-1.09 1.172-2.316 1.934-3.207.754 1.16 1.582 2.32 1.793 3.617m4.414 0c.621-.07 2.07.203 2.762-.07-.414 0-.762 0-.969-.34a61.274 61.274 0 0 1 0-7.094c-.137-.477.418-.477.691-.613l-2.344-.066v.203h.273c.762 1.023.277 2.797.414 3.891-.41 1.086.625 3.477-.828 4.09M73.164 32.059c-2.07.684-3.867-.953-5.73-1.703.277-.957.555-2.184.07-3.141-1.656-2.523-4.484-.066-6.281.754l.762-.137c1.035 1.16 1.586 2.797 2.414 4.16.273 1.297 1.797 2.66.898 3.957.828-.547 1.863-.887 2.555-1.434-1.797.75-1.727-1.84-2.555-2.797.344-.41.898-.547 1.379-.684 2.004.684 4.348 3.141 6.488 1.023m-8.145-.953-1.723-3.617c.273-.34.758-.613 1.238-.75 1.039-.203 1.797.547 2.211 1.297.273.75.691 1.91-.07 2.457-.551.203-1.035.613-1.656.613zm-3.52 2.387c-.828-1.84-2.555-3-4.691-2.797-1.797.207-3.52 1.5-4.211 3.207-.277 1.297-.277 2.934.48 4.094.762 1.023 1.934 1.84 3.176 2.113 2.074.273 3.73-.816 4.973-2.25.758-1.367.824-2.934.273-4.367m-.965 4.5c-.621.891-1.727 1.16-2.762 1.367-1.52-.07-2.762-.887-3.656-2.047-.621-1.094-1.246-2.387-.762-3.75.414-1.227 1.727-1.773 2.832-2.117 2.07-.27 3.656 1.367 4.484 3.004.414 1.09.555 2.52-.137 3.543zM91.18 9.141l1.863-4.707h.207c.277 1.023.691 2.32 1.934 2.66C97.117 4.434 98.98.07 102.914 0c-.691 1.094-.965 2.727-.414 4.023 2.555 3.688 7.867 5.254 8.492 9.961.551 2.934.066 6.004-2.141 7.844-2.348.547-5.66.613-6.145 3.547-.414 1.094.621 1.637 1.035 2.457 1.934 3.887 3.176 8.594 2.141 13.301-.555 1.363-.484 3.207-.348 4.57-.273 3.82.07 7.777.348 11.594-.621 2.32.344 4.438.137 6.754.898.957.555 2.32 1.313 3.273 1.934 2.797 2.691 6.07 4.348 8.938.207 3.344.137 7.094-1.52 9.961-.137.137-.273.137-.414.27.07-1.84-.066-3.68.07-5.457-.137-.137-.344-.547-.551-.273-.484.48.07 1.641-.969 1.707l-.687-.137c.137-1.5 1.793-3.137.48-4.5-.828.953-1.449 3-3.246 2.66-.41-.887.277-1.91.555-2.867.691-1.566 1.449-3.137 2.07-4.773-.137-.273-.137-.547-.414-.75-1.59 1.566-1.242 4.434-3.449 5.66l-.898.273-.07-1.434c1.59-1.773 2.277-4.094 2.621-6.48-.414-3.48-1.309-7.16-.48-10.711.066-3.684.207-7.434-1.727-10.16.414-1.641 2.691-3.074 1.242-4.98-.898-.477-.344-1.57-.48-2.387 1.656-1.16.824-3.41 1.309-5.047l-.07-2.527c-.687-2.59-1.445-5.254-3.312-7.23-.344-.07-.551.344-.621.547-.273 1.16.621 1.977.555 3.137-.484 3.82-1.863 8.457 1.242 11.527 0 .684-.691.75-1.172.547-.277-.887-.828.137-1.312 0-.758.07-1.59-.684-2.207 0-1.242 6.273-.418 13.504-2.625 19.441-.621 2.523-1.242 5.047-1.105 7.844-.207.137-.551.066-.824.066-1.035-1.293 0-3 .273-4.434 2.828-6.887 3.105-15.211 2.969-23.055-.969-1.707-2.625-3.141-2.141-5.457-1.656-.613-.828-2.66-2-3.547-.484-1.23 1.242-2.25.414-3.344-.141-.957.137-2.047 1.102-2.113-.207-.891.137-2.184 1.313-2.117.207.137.621-.066.828.137l.277-.273c-.207-1.297-.691-2.59-1.934-3.344-2.414-.27-5.176-.953-6.145-3.609-1.449-3.957-.137-6.957 2.555-9.891m9.801-6.754c-2.207 1.023-3.105 3.273-4 5.184-.555 2.117-3.039 1.363-4.281 2.387-1.52 2.387-3.383 5.117-2.414 8.117.617.547 1.172 1.5 2 1.637.348-.816-1.035-1.703-.414-2.727.137.07.273-.07.344.137-.207 1.57 1.797 1.5 2.277 2.457 0-.887-.414-1.57-.414-2.391.207-.203.344-.816.691-.477.07.957 1.379 1.297 1.656 2.113 1.52-1.977-.48-3.887-.691-5.797-.066-1.434 1.035-2.453 1.934-3.41.137 0 .277.07.414.207-.895 1.57.484 3 .484 4.57 1.105-.684.828-1.91 1.586-2.73l.484-2.59c.551.887.969 1.84 1.313 2.797.07 1.91-.691 4.707 1.379 5.934.621.613 1.379-.066 2.07-.203 1.449-1.16 2.484-2.73 2.07-4.707-.48-3.82-5.039-3.344-6.902-6.141-.344-1.57-.07-3.004.414-4.367zm7.801 11.188-.207.137c.414 2.25-1.035 3.957-2.625 5.184l.691.887c.691.273 1.313-.34 1.863-.82.828-1.633 1.105-3.68.277-5.387zm-11.871 6.41c-.414.07-1.035.273-.969.887.277.07.348.48.762.41a27.24 27.24 0 0 1 6.625 0c.207-.203.621-.27.555-.68-1.934-1.094-4.625-.684-6.973-.617zm2.555 2.184c-.418.07-.902.273-1.109.754.418 1.566-.48 3.953 1.727 4.57.207.137-.066.75.414.543.277-.543-.273-1.156.555-1.363V22.99c-.207-.613-.828-.953-1.586-.82zm-2.902 4.844c-.414 0-.758.207-1.035.477-.48 1.707 1.66.887 2.211 2.047.48.34 1.516.613 1.656-.07-.414-1.227-1.52-2.316-2.832-2.453zm-2.07 2.113c-.48.137-.414.684-.414 1.094.762 1.637 2.762 1.773 4.281 2.32.551-.273.207-.957.273-1.434-1.379-.613-2.551-1.773-4.141-1.98zm-.414 3.273c-.414 0-.48.48-.48.82.965 1.434 2.758 1.91 4.484 2.117.254-.074.449-.281.508-.535s-.031-.523-.23-.695c-1.59-.203-2.762-1.293-4.281-1.707zm.621 2.594-.07.41c.207.613.898.957 1.383 1.227.621.273 1.656.34 2-.41l-.273-.203c-1.242.203-1.863-1.16-3.039-1.023zm4.902 2.184c-.344 1.367-.484 3 .07 4.367.137.27.551.547.758.066-.207-1.5.758-3.75-.828-4.434zm-3.727.547-.277.27c-.273.684.137 1.297.414 1.91.414.75 1.246 1.5 2.07 1.5l.141-1.637c.758-2.043-1.383-1.5-2.348-2.043zm64.813 5.66.414.887c-1.863 1.773-3.934 3.82-6.145 5.387l-.824-.133 2 2.043c-1.172-1.566 1.449-2.387 2.141-3.273 2.07 1.363-.07 3.617.273 5.594.211.816.969 1.57 1.656 1.98-1.586-1.641-.137-4.027 0-5.934 1.316-.07 2.691-.137 3.383-1.23 1.105-2.387-1.656-3.82-2.898-5.32m.344 6.004c-1.035.41-1.723-.547-2.137-1.23l-.07-.203 2.965-2.797c.621.41 1.176 1.16 1.176 1.977-.07 1.023-1.035 1.91-1.934 2.254zM54.113 143.652c.07-.887.969-1.09 1.727-1.09.621.07 1.313.547 1.242 1.227.137-.41.07-.953.07-1.363-1.035-.273-2.484-.41-3.312.477-1.727 2.66 2.207 3.547 2.758 5.664.07.68-.344 1.227-.895 1.5a1.788 1.788 0 0 1-2.211-.547c-.07-.273-.07-.816-.273-.887l-.141 1.637c-2-.133-2.828-2.25-3.934-3.613.828-.75 1.52-1.773 1.242-2.934-.965-2.184-3.59-1.023-5.449-1.297.344.066.758.137.965.477l-.07 6.688c-.059.289-.219.676-.562.742.84-.02 1.73.199 2.566.008l-.969-.273a8 8 0 0 1 0-3.137c2.348-.41 2.484 2.387 4.141 3.344 2.07 0 3.867.75 5.66-.344 2.348-2.797-2.07-3.887-2.555-6.277m-7.109 2.867c-.273-1.094-.273-2.867 0-3.82.691 0 1.449 0 1.863.547.621.68.621 1.84.348 2.66-.348.887-1.449.684-2.211.613zm31.27.273c.691-.82 1.449-1.57 1.242-2.73-.691-2.387-3.59-1.297-5.383-1.57l.758.207c.277 2.32.207 4.91.07 7.16a.593.593 0 0 1-.367.488l2.012.051c-1.211-.172-.609-2.316-.609-3.332 2.414-.547 2.348 2.18 4.004 3.207.758.27 1.93.137 2.277.066-1.934-.07-2.898-2.184-4.004-3.547m-2.141-.203c-.273-1.094-.07-2.527 0-3.754.898-.137 1.793 0 2.207.887.207.754.418 1.91-.137 2.527-.48.543-1.379.406-2.07.34zm87.387 3.27c-.762-1.227-3.867-2.793-1.52-4.156.344-.82.621-1.98-.207-2.664-1.312-.887-3.312-.34-4.902-.477.207.137.691 0 .828.41.344 2.387 0 4.434 0 6.957 0 .48-.687.48-.687.547.758-.066 1.793.273 2.691 0-.348-.137-.828.066-1.035-.41v-2.934c2.348-.816 2.555 2.457 4.141 3.207.898.137 1.727.41 2.277.07-.691.203-1.105-.273-1.586-.551m-4.695-3.27.07-3.687c.965-.203 1.934.207 2.277.957.273.75.273 1.773-.137 2.457-.484.68-1.59.41-2.211.273zm-25.055 2.93c-.414 1.094-1.52.684-2.418.684-.551-.957-.273-2.32-.207-3.41h1.379a1.16 1.16 0 0 1 .832.75l.207-1.367c-.555.551-1.727.273-2.484.207v-2.863c-.07-.273-.07-.887.48-.684.691.203 2.07-.203 2.004.957l.137-1.227-3.453-.07-5.105 7.434-.484.273c-1.172-.957-2.07-2.117-2.969-3.41.828-.75 1.52-1.641 1.313-2.867-.758-2.18-3.59-1.227-5.383-1.434.07.07.621.07.828.48v6.547c-.07.34-.137.957-.621.887l2.555.07-.898-.273c-.273-1.297-.273-1.98 0-3.137.484.066 1.035-.137 1.449.133.969 1.094 1.52 2.457 2.832 3.207l3.246.07-.832-.273c-.066-.273 0-.477.07-.684 1.035-1.293 1.453-3.684 3.867-2.59-.207 1.16.621 3.066-.691 3.48l4.141.203c.484-.273.348-1.094.414-1.5-.207.133-.207.27-.207.406m-14.289-2.934v-3.684c.828-.27 1.863.07 2.277.82.414.613.277 1.637.07 2.25-.414.957-1.52.816-2.348.613zm10.559-.203h-1.723l1.723-2.66zm-57.77 3.273-3.105-7.367-2.141 5.664c-.555.887-.621 2.387-1.797 2.457.762 0 1.727.066 2.348-.07h-.414c-.414-1.023.484-2.047.691-3.004.828 0 1.723-.066 2.484.07.414.957 1.035 2.047.895 3.004.762 0 1.59.066 2.141-.07-.484.07-.898-.203-1.102-.684m-4.145-2.863.969-2.73c.273.887.758 1.773.895 2.73zm88.008 3.684-.898-.273-3.312-7.777-3.176 7.777-.898.273c.691 0 1.727.066 2.418-.07-.141 0-.418.07-.484-.07-.344-1.023.551-1.977.828-2.93.828 0 1.656-.07 2.484.066l.969 2.867-.141.137h2.211m-5.387-3.48 1.035-2.863.969 2.863zm-74.684 9.824c-1.586-2.66-4.898-1.84-7.66-1.98l-.07.137c.344 0 .621.07.828.344l-.137 7.363-.621.344c2.555-.07 6.418.816 7.73-2.184.484-1.297.555-2.863-.07-4.023m-.621 2.523c.07 1.297-.617 2.59-1.793 3.137-.965.273-2.207.547-3.176.066l-.273-.473v-6.551c1.172-.613 2.691-.066 3.793.477.828.887 1.727 1.91 1.449 3.344zm0 0"/><path d="m173.043 132.469-4.488-.137c.898-2.047-1.379-2.594-2.277-3.754-.48-.609.07-1.293.137-1.84-.758-.68.211-1.5-.895-2.113V96.313c1.449.344.551-1.363.828-2.043.273-1.367-1.383-.41-2.004-.82-.07-.68.137-1.566-.137-2.113-2.211.613.273-3-2.211-2.25V87.04l-1.102-.137c-.348-1.09.688-2.934-.969-3.344-1.379-.137-2.828-.273-3.59 1.023v2.32c-1.242 0-.48 1.5-.691 2.184-1.793-.613-.895 1.5-1.238 2.25h-.969c-.551.613-.137 1.566-.344 2.25-.418.07-.969-.066-1.242.207 0 .75-.07 1.637.066 2.383.277 0 .555-.066.762.207v28.035l-1.172 1.094v2.727l-2.555 2.184v1.773h-19.949l-1.934-1.5c-3.383-4.707.484-10.164 1.797-14.805.207-1.297 1.723-2.113 1.449-3.547-.555-3.82-1.863-7.367-4.074-10.57 1.242-1.023 2.418-2.457 3.867-3.273 2.277-3.273 5.523-4.914 7.66-8.258 3.039 1.504 6.559.684 9.941.41l.551-.75c2.828-2.043 5.039-5.457 7.316-8.32.484-.75 1.176-1.434 2.004-2.047.273-.34 0-1.227.551-1.5l-.344-.137.48-1.363c-.687.07 0-.82-.207-1.23l-.207.137c-.48-1.293-1.379-2.523-2.277-3.41-.484.137-.758-.543-1.242-.609 0 .133 0 .203-.07.27-1.379-.613-.551 1.23-.828 1.57.141.684-.07 1.434.828 1.707l-.207.133c.828.684.898 1.363 1.105 2.113-.137.547-.691.684-1.105.414-.898.066-1.379.477-1.727 1.227-.344.137-.48-.273-.687-.41-1.105.27.273-1.16-.969-1.094l-.687-3.613c-.414-.34-.898-1.57-1.312-.684-.348.41-.07.957 0 1.297-.762-.137-.418 1.16-1.035 1.023.48 1.094 0 1.98.688 2.934-.137.07-.207.34-.414.27.555 1.027.969 1.367 1.934 1.844-.137.137-.273.34-.414.34.551.344 1.313.273 1.793.684l-.137.207c.277.27.828-.137.898.34-1.797 1.566-3.937 2.18-5.59 3.82-2.691.816-5.453-.273-7.871-.957-.551-.273-1.379.543-1.586-.34 0-1.641 2.141-.137 2.828-1.297.418-.684.691-1.707.484-2.527-.137-.34.141-.816.551-.887-.41-1.297-1.656-2.383-1.309-4.09-.762-1.773-2.902-1.91-4.695-1.91-2 .34-3.934 1.566-4.348 3.613-.344 1.977 1.242 3.207.898 5.047-.277.613-.969.613-1.656.613-4.004-2.316-6.352 2.457-9.391 3.82-.824 1.094-2.965 2.047-2 3.82.551 1.84 2.691 1.297 4.211 1.566-.969 1.98-2.762 3.48-4.488 4.98-1.793 1.5-.344 4.504-2.898 5.523-2.07.414-3.523 2.594-5.316 3.617-1.586-2.797-4.691-3.617-7.523-4.363-1.863-.82-2.969-3.344-5.176-3.551-1.312.957-1.312 2.527-2.207 3.617-1.039.543-1.797 1.637-2.488 2.523-.344.887-.687 2.113-.273 3-.137.137-.348.344-.555.137-1.449-2.113-2.965-4.363-4.969-6.137.969-.754 1.727-1.844 2.004-2.934 2.414-1.16 2.277-3.82 4.207-5.254 2.004-.613 3.313 1.16 4.973 1.637 1.93.887 4.691.957 6.418-.406-.07-1.504-.828-2.73-1.242-4.094-1.172-1.5-3.105-2.32-3.656-4.16-.621-1.5-2.348-1.707-3.246-2.73.969-.477 2.484.344 3.105-.887-.414-.816.691-.953.277-1.773 0-.34.344-.547.688-.41.414-.816 0-1.637-.414-2.316.898-1.16-.344-1.98.07-3.344-.758-1.16-1.934-1.434-3.246-1.98-2.277-.75-3.727.75-5.246 1.98-.824 1.57-.344 3.816.211 5.387-.211 1.23-1.383 1.98-2.488 2.184-2.484-.684-5.383-.684-7.109 1.637-1.793 2.113-5.246 3.48-4.832 6.547.555 1.363 2.07 1.23 3.246 1.434.691 4.777-6.488 5.934-5.039 10.711-.207.477-.687.547-1.105.816-.687-.75-.898-1.91-.965-3 .066-4.914-2.277-9.891-.555-14.598a16.233 16.233 0 0 0 3.59-3.613c1.59-.07 2.625-1.297 4.004-1.777.969-.816 0-2.246 1.242-2.793-.207-1.363-1.863-.477-2.828-.754-1.52.207-2.555 1.301-3.453 2.457l-.48-.34c-.207-.547-.07-1.227.273-1.707-.207-.613.207-1.434-.621-1.773.211-1.5-1.105-2.387-1.312-3.684-.758-.816-2-.816-2.898-.68-1.656.477-3.449.613-4.555 2.043-1.586 2.047-.07 4.367.828 6.207-.762 1.094-1.52 1.98-2.691 2.457-.898.203-1.52-.207-2.207-.547-.969-.816-3.316.07-3.109-1.703l2.211-.477c.965-.48.414-1.91.824-2.797 1.176-.684-.551-1.301-.687-2.117.207-.816-.207-1.637-.828-2.184-.07-.609-.898-1.09-1.52-1.43-2-.82-4.277-.07-5.934.957-1.242.887-.691 2.523-.828 3.887.137 1.023 1.313 1.707 1.172 2.863 0 1.023-.551 1.844-1.449 2.457-2 .137-4.762.34-5.523 2.66 0 2.934-3.105 4.57-2.898 7.438.344 2.113 2.898.75 3.867 1.84.07.547 0 1.09-.277 1.57-2.277 2.523-4.07 5.316-3.449 9.07L41 106.68c-.551.613-.137 1.84-.969 2.047-1.172-.547-2.277-1.434-3.59-1.707-1.172.477-1.793 1.84-1.723 3.137-.691 1.094-1.656 2.117-3.039 2.047-1.863 1.57-4.555 1.773-6.902 1.707-1.242.34-1.793 1.5-1.656 2.797.414 2.59-2.07 4.09-1.52 6.613.555.957 1.52 1.16 2.348 1.504.344-.07.758-.207.898-.613-.07-2.527 1.105-4.844 3.383-6.207 4.691-.48 9.594-.344 13.941-1.367l2.555-2.453 3.242.816-.824 1.5c.066 1.637-.277 3.41.688 4.641 1.52.066 1.727-1.641 2.277-2.73.348-.957 1.379-2.113 2.414-2.047.555.137.762.75.898 1.227-.687 3.82 1.172 8.188-.621 11.734-.344.75-.137 1.98.418 2.457H29.059c-1.379-.07-2.551.273-3.59 1.09-.551 1.844-1.727 3.41-1.516 5.457.551.754 1.309 1.57 2.344 1.641l146.68.066 3.035-3.07c.344-1.973-2.07-2.93-2.969-4.496m-17.738-59.484c.414.344.48.887.48 1.367-.207-.207-.687-.82-.48-1.367zm-.141-.75v.273l-.758-.684c.277-.066.551.207.758.41zm-.621 1.637c-.137.07-.621-.27-.41-.477.137.137.617.137.41.477zm.207 1.434.898.684c-.551.547-.828-.477-.898-.684zm-5.727-2.184c0 .344.344.75 0 1.023-.277-.137-.277-.75 0-1.023zm-.828 3.141c-.277-.207-.277-.891 0-1.23-.141.48.621.957 0 1.23zm.828 2.047c-.418-.137-.691-.684-.691-1.16.621 0 .484.684.828 1.023zm.066-1.367c-.273-.137-.617-.75-.207-1.09.07.34.484.75.207 1.09zm.414-3c.418.207.277.75.418 1.09-.418 0-.625-.68-.418-1.09zm.484 2.797c-.48.07-.273-.477-.273-.816.273-.137.344.27.414.406-.07.137.066.34-.141.41zm16.152 57.16c1.797-.613 4.074-.273 6.074-.273l-.277.48c-1.859.133-3.934.203-5.797-.07zm-8.078-49.52h.348v.953l1.105.07v1.16h-2.207c.066-.891-.277-1.637.754-2.184zm-1.93 3.48h4.348v.953h-4.348zm-.828 1.906h6.211v1.16h-6.211zm-1.312 2.047h7.867v1.363h-7.867zm-1.242 2.184h9.938v1.363h-9.937zm7.594 10.57h.828v19.578h-.828zm-.828-5.863v25.441h-.691V98.09c.344-.41.965.066.691.613zm-4.145-.75c.484-.137.414.477.414.75v7.98l1.176.137c.207-2.934-.07-6.004.273-8.867.484-.137.418.477.418.75v25.441h-3.73V98.02c.07-.07.211-.273.348-.07l.07 7.914c.203.203.551.07.824.137.207-2.66-.066-5.457.207-8.047zm-2.551 27.762h9.938c.277.203.828.477.762.953.137.477-.484.684-.691 1.023l-10.145-.203c-.348-.273-.137-.82-.207-1.227.344 0 .203-.41.344-.547zm0 2.934h10.008c.414 1.297 2.207 1.977 1.793 3.613h-14.699c-.625-1.977 1.93-2.523 2.898-3.613zm-23.812 4.91v-.137h19.945l.969.477-.07.137-69.332.063c-2.059.043-4.16.008-6.18.008l6.18-.008 1.824-.062a59.24 59.24 0 0 0-2.039-.07c-1.941.039-3.902 0-5.828 0h5.828a61.45 61.45 0 0 0 1.902-.066c-2.484-.207-5.242.066-7.66-.273v-.203c3.727-.344 7.938-.137 11.941-.207.137.547.688.07.895.41 0 .273-.344.137-.344.41h4.281l.414-.477 8.559-.137h24.641l.137.203c1.313 0 2.691.07 3.938-.066zm-72.41-31.105-2.141-3.207c.828-1.43 1.246-3 2.211-4.434.621-1.637 1.105-3.41 1.793-5.047.277-.07.277.203.348.34-.828 2.457-.484 5.664 0 8.188-1.312.887-2.484 2.25-2.211 4.16zm3.109-3.273c1.934.137 3.383 1.363 4.898 2.32.691 1.09-.207 1.91.414 3 .691 1.094 1.797.207 2.902.48.895.75 2.207 1.43 2.758 2.316l-1.449 1.023c-1.723-.68-3.727-.68-5.797-.613 0-.613-.484-.066-.691-.41-1.793-.953-4.348-1.566-4.969-3.75.207-1.57.621-3.277 1.934-4.367zm.273-10.777.691-1.363c.758 1.09 3.863.137 2.762 2.18-1.105 1.504.758 4.574-1.863 5.188-.211.543-.828.887-.898 1.43 1.863.477 4.004 1.773 4.691 3.754.898.613 1.727 1.16 2.348 1.977-.687.754.691 2.594-1.172 2.387-1.586-1.09.137-3.75-2.141-4.363-1.863-.75-4.281-1.023-5.105-3.141-.898-2.93 1.727-5.25.688-8.047zm10.426 6.004c-.555-.684 0-1.504.207-2.184.137-.137.344-.816.617-.34-.273.887.348 2.25-.824 2.523zm.273-5.391c-.273.07-.414.477-.758.34-.344-.27-.414-.613-.898-.27-.48.953-.621 2.113-1.727 2.59-.965 1.297.969.613 1.383 1.094.344 1.434-.484 2.66-1.242 3.684.273.68 0 1.5-.277 2.18-1.586-.68-2.621-1.977-3.793-3.273.551-1.566 1.035-3.273 1.035-4.91.688-.547 1.309-1.23 1.379-2.047 1.586-.273 3.383-.066 4.691-.816.348.34.141.953.207 1.43zm-.066 13.098c-.348.613-.828 1.363-1.383 1.637-.207-1.84-1.934-4.023-.484-5.73.898 1.227 2.625 2.391 1.867 4.094zm-9.734 5.797-1.312.547c-.484-.477-.691-1.227-.758-1.84zM65.71 130.7c.828-.207 1.172.613 1.449 1.156-2.555-.203-5.52.617-7.316-1.43-1.172-1.641-3.176-3.137-2.004-5.527 1.313-3.41 1.727-7.297 2.555-10.844 2.969-.344 5.938-.684 8.836-.273-1.379 1.57-2.484 3.273-2.969 5.184l-.137 5.73c-.137 2.047-3.035 4.5-.414 6.004zm.344-1.094-.273-.41c.688-1.5.551-3.34 1.727-4.637.273-3.41-.555-7.23 2.348-9.754.688-.137 1.586-.207 1.242-1.297.824.137 1.379-.477 2.066-.754.691 1.504-1.172 1.914-1.586 2.938-.207 2.523-1.516 4.637-2.207 6.887.066 1.707 0 3.617-1.52 4.707.207 1.707 2.418 2.387 2.625 4.16.414.207.414.547.551.887-.551.273-1.105-.543-1.656-.816-1.105-.613-2.211-1.5-3.316-1.91zm3.938-2.66c1.516-4.707 3.242-9.344 5.242-13.848l.07-1.637c1.863-1.023 3.73-2.113 5.453-3.547 1.727 1.773 3.867 2.797 5.797 4.23-4.828 3-1.102 10.301-4.762 14.188-.828.613-1.242 1.434-.965 2.387.758 1.91 2.762 2.047 4.141 3.07l-11.594-.137c-1.52-1.09-3.246-2.727-3.383-4.707zm67.16-51.023c.414 0 .758.207 1.035.477 0 .891-.141 1.777.414 2.387.137.344.898-.066.621.613-1.035.48-.07 1.297-.484 2.117.207.41.621.75.344 1.227-1.035.07-2.207-.066-2.898-.816-.207-.07-.48.066-.551-.207.07-.406.551-.75 0-1.09-.484-.203-1.383-.273-1.035-1.094 1.516.344.48-1.363.895-1.977.348-.613.969-1.293 1.66-1.637zm-17.879 14.941c-.758-.547 0-1.23 0-1.844.691-1.09 1.242 0 2.07.07h4.141c1.105-1.16 2.902-1.297 4.559-1.227-.691.543.41 1.77-.621 1.977-2.07-.684-4.004.203-5.937.477-1.105.816-2.898 1.363-4.211.547zm1.449 5.523c.344-.547 1.934.34 1.383-.953 1.793-1.023.758-3.617 3.035-4.301 1.242-.203 2.621-1.363 3.727-.203 1.105.137 2.348-.066 2.625-1.227.207-1.16-.277-2.254-1.105-3.141-.758 0-2.004-.477-2.418.48-.758-.07-1.102-.547-1.859-.137-1.035 1.703-3.312.477-4.695.75.07-.75 1.035-.273 1.383-.75 1.516-1.094 2.414-3.957 4.691-3.273 1.035-.344 2.414 0 3.313.68.277-.41.898-.203.969-.75.066-1.363 2.277-1.773 1.379-3.547-.484-.75-1.52.273-1.656-.887 0-1.637 1.105-2.797 1.93-4.094.762-.34 1.66-.41 2.488-.273-.348 1.023-1.934 1.363-2.07 2.457-.691.75.414 1.84-.418 2.66.277.816 1.383 1.57 1.934 2.113-.273.41.277 1.094-.137 1.57.07.273.207.477.137.82-.691.543-1.035 1.293-1.656 2.043.48.82.898-.41 1.586.07.348.34.555.684.969.547.828-.617 2.07-1.094 3.176-.82 1.242.41 2 1.641 3.727 1.16 1.035-.34 2.691-.75 3.656 0 1.52-1.844 4.004-3.137 6.008-4.641 1.313-1.02-.555-3.406 1.52-3.684.273 1.297-.555 1.777-.277 3.207-1.172 1.641-3.246 2.73-3.727 4.707-.969 1.023-2.281 1.57-3.105 2.457-2.832.547-6.695 1.637-9.043-.547-1.172-.41-1.242.684-2.07.887-.828.82-1.66 2.387-2.969 2.047-.137.547-.621-.066-.691.477h-.687c-.207.34.344.547.414.82-1.66 1.09-2.207 4.227-4.695 3.684-.687.887-1.723 1.5-1.379 2.797-.621.203-.551-.82-.828-1.23.07-.477-.137-1.09-.551-1.156-.625.34-.418 1.5-.484 2.316-2.004 2.32 1.105 4.367 1.863 6.48 1.723 1.434 2.348 3.48 2.621 5.457.555-.066.969.684.691 1.23-.828 1.16-1.656 2.32-2.832 3-.965 2.32-2.691 4.637-1.723 7.367l-.555 5.32c1.035 1.297.418 3.547 2.07 4.23-2.484.07-3.727-2.73-5.453-4.094.07-.543.484-.75.828-1.023.277-2.523 2.004-4.844 1.039-7.504.344-2.32.551-5.047 3.172-6.07.207-1.977-2.07-2.727-2.898-4.363-.551-1.504-1.727-2.801-2.07-4.367-1.105-1.434-3.246-2.594-3.176-4.367.207-1.707 1.313-3.34 2.898-4.434zm-26.504 7.777 1.656-1.16c0-1.227.48-2.387 1.313-3.273 1.723.133 2.414 2.184 3.934 2.727 1.035.41 1.727 1.91 3.039 1.5 2 .07 3.242 1.367 4.555 2.867.207.75-.414.953-.414 1.5 1.313.75 1.242-1.094 2.277-1.297 2.07-1.434 4.07-3.41 6.695-3.684.688.75 1.449 1.023 2 1.703-2.414 3.82-6.488 5.117-10.281 6.48-1.453-.613-2.145-2.453-3.316-3.613-2.277-1.98-4.898-3.684-7.453-4.777-1.52 1.16-3.73 1.16-4.973 2.867h-.207c-.344-.953 1.105-.953 1.176-1.84zm4.348.203c3.176 2.25 6.625 4.434 8.695 7.914.621.887 2.004.477 2.832.34 3.656-1.227 7.387-2.184 10.352-4.977 1.313 1.703 2.211 3.887 4.074 5.32-2.832 3-3.312 7.227-2.969 11.32.207 2.047-2.555 3.004-1.863 4.914 1.379.477 1.793 2.25 3.246 2.66H90.215c-1.863-1.023-3.039-3.004-3.453-4.91.691-5.117 3.523-9.414 6.078-13.781 1.242-1.637-.621-3.07-.828-4.637 2.414-1.297 3.793-3.754 6.555-4.164zm-1.863-30.012c-.207.887-1.312.75-1.586 1.637-.625 1.023-1.867-.684-1.66 1.023l.414.34-1.172.684c-1.105-.613.551-1.434-.691-2.117.969-1.363 3.109-2.453 4.695-1.566zM80.137 90.586c-.621.066-1.586.543-2-.07.344-1.023.551-2.113 1.379-2.797 2.898 1.297 6.281.957 8.629-1.297.414 0 .688.41.895.754-.273.609.207 1.566-.414 2.043-.965-.477-1.863-.34-2.828 0-1.656.754-3.59 2.324-5.66 1.367zm.691 4.57.414-2.934c2.828.066 4.832-3.48 7.594-1.773.688-.547 1.449-.82 1.723-1.773.07-1.094-.066-2.457-1.172-3.07-1.312-.07-2.414.547-3.312 1.434-1.449.953-3.937.82-5.453.137.762-1.23 2.277-1.844 2.969-3.207 1.723-1.57 4.277-.816 6.488-.684 1.93-.133 2-4.434 3.934-2.453h.758c.211-.207.277-.547.277-.887-.277-.48-1.242-.273-1.035-1.094 1.727 0 .344-2.25 2.277-1.91.344-1.57 2.484-1.434 2.762.137-.277.344-.828.477-.969.957-.07.75 1.313.816.762 1.5-1.656.816.137 2.453-1.242 3.273-1.105-.207-2.141-.82-2.762-1.637h-.898c1.176 1.297 0 2.797-.48 4.09.617.477 1.242.273 2.07.344l.137-.684c2.762.613 3.176 4.23 5.797 5.184.484.547.484 1.23.621 1.98.484.68 1.797 1.297 1.313 2.18-.898.684-1.934-.34-2.902.273-2.277.41-4-1.227-5.793-2.184-.625-.203-1.109.48-1.727.137-.898-.543-.348-1.566-1.242-2.047 1.242-1.02 2.207.891 3.449 1.023l5.73.07c-.484-1.434-2.555-.613-3.797-.957-.484-.68-1.105-1.5-1.863-1.773-1.379.82-3.727 0-4.898 1.367.414 1.363.758 2.793-.211 4.023-.758 1.09-.344 3.273-2.348 3.344-.687.066-1.309.816-1.586 1.363.344.613-.207 1.227-.621 1.5-1.586-.684-2-2.457-2.898-3.617-.414-.137-.414.273-.691.41-.48 6.07 6.906 6.957 8.906 11.664-.555 1.707 2 2.117.965 3.82-2.965.613-2.484 3.887-3.793 5.797-.484 1.094-.969 2.184-1.867 3.141 0 1.84-.824 3.477-1.449 5.117 2.832 1.156 1.863 5.316 5.316 5.594.207.27.277.613-.137.75l-2.488-.477c-1.242-2.32-4.141-2.117-5.449-4.027.137-1.434 2.141-1.84 1.586-3.547.969-1.16.621-2.867 1.172-4.227-.273-3.004 0-6.141 2.625-7.848.414-.41 1.52-.207 1.105-1.16v-.27c-4.488-1.23-6.766-5.73-10.84-7.848-.687-.68-1.172-1.359-1.172-2.316.48-2.73 3.727-3.547 4.348-6.207zm-6.625 9.82 1.859-1.16 3.246 2.867c-1.586 3.273-5.934 3.273-8.145 5.664-1.449.68-2.762-.891-4.281-.207-2.07-.273-4 .82-6.074.273.211-.887 0-1.84-.48-2.594 2.277-.203 5.867-2.25 7.594.477 2.828-.547 3.934-3.75 6.281-5.32zm-2.141-5.797c-.07.34-.414.816-.828.477-.484-.887-.898-1.84-1.449-2.797.137-.34-.348-.75.07-.953.48.133 1.242-.273 1.586.34.48.887.207 2.047.621 2.934zm-6.559-16.918c1.242-.953 2.484-2.316 2.484-3.953-1.172-.41-1.035-1.773-1.934-2.523-.207-1.23 2.004-.547 1.313-1.91.141-.137 0-.547.418-.41-.07.547.273.41.48.75.277.613-.273 1.707.48 1.98.621.203.691-.41 1.109-.41-.277-1.23 1.102-1.57 1.309-2.523.484.066 1.105-.207 1.383.27.207.82-.691.684-.969 1.23.555.477.484 1.84 1.727 1.43l.207.137c-.555.41-.207 1.023-.621 1.434-.137.75 1.105.887.758 1.703-.551.684-1.449.547-2.207.547-.551-.066-1.242-.816-1.656-.34-.277.957.137 1.84-.762 2.457.07 1.09-1.445.816-2.07 1.09-.828 0-1.449-.273-2.277-.34-.277-.617.484-.547.828-.617zm-21.328 9.004c-.414-1.5.551-2.797 1.656-3.82.621-1.703.762-3.684 2.621-4.773 1.453-.613 3.453-.137 4.418-1.434.555-1.023 1.176-2.047 2.07-2.93-.617-.684-1.172-1.707-1.449-2.73-.758-.34.277-1.5-.551-1.91-.07-.273.07-.547.273-.613l.625.273c.551-.82.688-1.641 1.723-1.84 0 .543.762 0 .691.543-.207.547-1.59.34-1.105 1.5.344.207.344.613.551.957-.414.34-1.105.41-1.172 1.023-.137.887.828 1.023 1.035 1.637l.137-.07c-.344-.41-.414-1.09-.551-1.637.828.07.898-1.156 1.863-.75.344-.273.344-.75.344-1.227.277-.41.762-.617 1.313-.617.758.48-.414 1.16.344 1.707-.273.477.348.41.414.75.277 0 .621-.066.902.07.066.41-.348.137-.484.34.137.75-.418 2.184.484 2.32-.141.816-1.246.543-1.867.75-.758.207-1.172-.68-1.863-.816.141 1.023 1.105 2.113.484 3.344-.137.543-1.242.953-.551 1.5.551-.137 1.723.406 1.793-.48 1.934-1.09 3.105 1.23 4.969 1.367l2.969.27.207.207c2.621 1.227 3.797-1.98 6.074-2.117 2.418-.406 4.211-2.66 6.008-4.16l.344.07c-.137.816-1.52 1.156-1.105 1.977-1.312 2.047-3.934 2.457-5.105 4.777-1.176.953-2.762.887-3.73 2.25-2.414 0-5.66.68-7.594-1.23v-1.43c-1.172-.613-1.656.547-1.859 1.363-.141.547-.348 1.16-.898 1.5-1.035.477-1.105-.816-1.793-1.023-2.418-.34-4.074 1.637-6.352 1.297l.758-2.113c-.965-.207-.828 1.293-1.656 1.703-.691 1.98-2.828 0-3.52 1.5 2.207.41 5.59.137 7.801-1.09.828-.07 2-.82 2.555 0-.621.68.414 1.91-.898 2.043-1.586 0-3.246-1.227-4.352.547-2.277.477-4.414 2.387-6.969 1.227zm1.449 6.688c.691-.957 1.449-2.32 2.691-2.457.691-.684-.691-1.5-.07-2.523 1.176-1.434 3.039-1.773 4.559-2.66 1.105 0 2.207.066 3.105.613.273.887-.898 1.5-.207 2.25-.141 1.227-1.312 1.977-2.07 2.727.137.684.137 1.434-.418 1.91-.551-.34-.965-.816-1.586-1.09l-.207-.133c-1.035 3 2.348 4.16 3.176 6.547 1.449 2.727 2.691 5.66 4.969 8.047-.344.891-.551 1.844-.824 2.73-.898.957-1.105 2.113-.969 3.41l-.273.203c.48 2.457-.691 4.23-1.727 6.07-.141.684.414 1.094.551 1.707-.137 1.637-.277 3.613 1.105 4.637l-.07.07c.621.75.969 1.566 1.934 1.91.137.203-.07.41-.277.34a58.232 58.232 0 0 1-4.898-1.637c-.621-1.094.965-1.91.414-3.277.621-3.887-1.586-8.25.828-11.523 0-1.367 1.934-1.777 1.586-3.074-1.172-1.496-3.176-1.43-4.07-3.203-1.797-2.66-3.73-5.73-6.695-7.164-1.039-1.156-1.039-3.066-.555-4.43zm5.797 11.457c-.828.207-1.859-.34-2.898-.406.828-.48.07-2.047 1.379-1.914l.555 1.23zm-14.562-1.156c.965.543 2.348.543 2.898 1.566a4.254 4.254 0 0 1-1.242 1.5c-.277.07-.758-.203-.828.207-.898 0-1.863 0-2.555-.137.484-1.094.555-2.457 1.727-3.137zm4.969 7.023c-.965.68-2.348-1.023-2.969.547-3.172 1.227-7.039.27-10.492.816-.965.137-1.859.547-2.344 1.367-.348.406-.348.953-.828 1.293l-.828 3.344c-.348.613-.969.07-1.383-.137-.758-.75 0-1.703 0-2.523.484-.203 1.59-.137 1.656-1.09-.828-1.5 1.242-2.391.484-3.684.137-.207.344-.273.551-.137 1.176-.75 3.176-.684 4.418-.07 2.004-2.523 5.316-2.727 8.352-2.387 1.313-.547 1.453 1.773 2.625.477.137-2.184-.414-4.707 1.105-6.41 1.172-1.023 1.863-2.594 2.621-3.754 1.313 1.504 3.176 2.66 2.695 5.117-1.453 2.523-3.66 4.844-5.664 7.23zm3.797-2.113c.969-1.023 1.797-2.25 2.762-3.207.551.066 1.172.203.965.953-.273.957-.273 2.32-1.242 2.863zm5.383 1.91c-.895.816-.687 2.59-2.207 2.66-.965-.957 0-1.84.414-2.727.277-.754 1.105-.207 1.379-.82.141-1.363-1.031-2.66.414-3.477 1.52-.273 2.281 1.297 3.109 2.113-.832.953-2.625.68-3.109 2.25zm1.797.477c.344-.34 1.379-1.57 1.723-.68.141.543-.48.68-.758.816-.348 0-.758.137-.965-.137zm-23.746 17.664 29.543.07.137.273 4.004.066.137-.203c2.277-.273 4.902-.34 7.043.066v.137l-41.07.07-.07-.07zm85.039 5.598c-.555-.684-2.004 0-2.625-.613-.551.133-1.312-.207-1.656.27-.691.137-1.797-.27-2.207.344-3.59 0-7.25 0-10.633-.344l-5.105-.066-.137.34h-5.316l-.207-.34h-3.453c-.414-.273-.551-.48-.895-.82-.898-.066-2.07-.273-2.832.137l-.273.816-20.086-.066c-.484-.547-1.797.066-2.348-.477h-3.039c-.414-1.434-2.207-.344-2.898-1.5-1.379-.41-3.035-.137-4.555-.207-.137.137-.137.547 0 .684s.273.41.48.34l.07-.07c0 .586.457.918.977.957l-21.34.137c-.137-1.16.762-2.184 1.176-3.207l3.863-.203-2.277-.07h14.152c.551.477 1.656.203 2.484.273 0-.34.344-.273.551-.273.07.273.277.273.484.273.066-.273.344-.273.551-.273l.141.203-.555.547c.691.137 1.586.07 2.348.07v-.344c5.316.07 10.836-.137 15.945.207.137.543 1.035-.07 1.172.543 1.242 0 2.137.34 3.375.344-.055.098-.398 1.535.629 1.094.344.543 1.172-.141 1.449.543 1.52.137 2.691-.137 4.07-.34l.07-.82c.621.207.762-.203.828-.75 0-.68-.965 0-1.105-.543-.273-.07-.824.203-.824-.273v-.207c1.586-.07 3.52-.34 4.969.207h8.973c.207.543-.621.816-.48 1.363-.762-.137-1.176.41-1.453.82-.137.473.484.203.484.543h3.242l1.863-1.91c.691-.07 1.656.207 2.211-.203.965-.207 2 .41 2.758-.273.418-.137 1.52.34 1.313-.477.621 0 1.52-.344 2.004.34h13.941c1.035.137-.207 1.91 1.035 1.773.207 0 .414.07.762.07-.207.816.48.75.895 1.09.418.07.969-.137 1.313.137-1.242.34-2.898.137-4.277.207zm39.066-.891c-.484.137-1.52-.406-1.379.48-.762.203-.828-.344-.828-.82h-4.832c-.691.203.07 1.094-.762 1.23-1.863-.137-3.934.203-5.453-.07v-.273l-4.418-.137c-.414.547-1.516.273-2.207.207l-.273-.207h-5.801c-.758.41-1.93.137-2.969.207-.344-.273 0-.613-.066-.957-1.172.137-1.727-.613-2.902-.34-.273-.684-1.102-.613-1.516-.957.344-.27.965-.547 1.449-.75h9.594l.07-.273c2.004.07 4.004-.133 5.66.207-.551.41-1.449.613-2.004 1.09.07.07.07.203.07.273-1.102.203-2.621 0-3.863.137-.141.613.207.816.48 1.09h7.594c.484-.68 1.656 0 2.348-.34-.344-.887.484-.684.828-1.023.551 0 1.383.066 1.172-.75.211-.34.484-.41.828-.34.758.477 1.863.133 2.832.27l.551-.543h11.32v.203c.691.203 1.863-.203 2.07.75.07-.133.207-.133.277-.133.07.133.207.203.137.34h-3.727l-.137.816h-3.453c-.07.551-.762 0-.691.613zm20.223.207-1.102.887h-10.699c-.551-.684-1.863 0-2.484-.547-.691-.066-1.66.207-2.07-.27 2.344-.207 4.898.203 7.176-.273.141-.207 0-.48.07-.684l-.621-.137c.691-.547.898-1.977 2.348-1.43.07.68.965 0 1.105.609h2.758c.348-.27.07-.609.277-.816.898.344 2.691-.547 2.898.684.621.406.207 1.363.344 1.977zm0 0"/></g><g clip-path="url(#a)"><path d="m199.961 100.543-2.828 1.91c3.59-2.453 1.793-7.297 2.137-10.777l-2.621 2.117-.07-.07c3.453-2.594 1.656-7.164 2.141-10.777-.828.684-1.727 1.023-2.414 1.91l-.141-.34c2.277-2.867.484-7.094.555-10.301-1.312.816-2.625 2.453-3.449 3.547l-.277-1.023c3.383-3.207 1.313-7.707.828-11.594l-1.66 1.566c.969-3.613-1.238-6.684-1.652-9.82-.898.953-1.59 2.32-2.488 3.066 1.797-3.953-1.312-7.094-2.07-10.641-.965 1.434-1.723 2.934-2.207 4.504-.277-.207-.207-.48-.344-.754 2.758-4.09-1.312-7.84-2.902-11.457-.48 1.09-1.035 2.457-1.449 3.273.828-4.023-2.691-6.684-4.277-9.617-.484 1.09-.625 2.387-1.176 3.41.969-4.434-2.898-7.164-5.176-10.367l-1.105 3.816h-.137l-.211-1.703c.074-3.617-4-5.527-6.004-8.117l-.273.137c-.418 1.363.137 2.523-.141 3.953-.273.137-.617 0-.824-.27 0-4.301-4.488-6.414-7.316-8.867.066 1.363-.141 2.93.207 4.09l-.207-.133c-.141-4.437-5.039-6.141-8.012-8.391-.137.816.141 1.84.07 2.656-1.102-3.887-5.383-3.816-8.008-5.863.211 1.363.484 2.863.898 4.023-.207 0-.273-.203-.414-.34-.965-4.094-5.312-4.977-8.352-6.684l-.828-.137c.484 1.434 1.242 2.863 1.449 4.297-.621-.137-1.172-.344-1.656-.75-1.242-2.32-3.66-4.164-6.211-4.707-.691-.207-.969-1.023-1.727-1.16l.691 2.523-.277.207c-1.727-1.367-3.867-1.844-6.074-2.047.484.613.551 1.43 1.105 2.047.137.27.551.68.137 1.023-1.656.066-3.383-.207-5.039.27 1.242 1.09 2.07 2.867 3.797 3.41-.277.684-.828 1.297-.691 2.047 1.52.41 3.59.273 5.109.07-.07.75-1.035.543-1.172 1.227 1.723 1.023 4.348 1.434 6.277.75-.137.273-.344.477-.414.75l.555-.066c2.691 1.637 6.004 2.66 9.387 1.977l.207.137a8.27 8.27 0 0 0-1.242 1.5l6.281 2.117 1.242-.277c-.137.277-.621.48-.691.82 2.898.887 5.523 3.75 8.629 2.523l-1.449 1.227c2.898 1.367 5.383 4.711 9.109 3.277-.551.406-1.312.543-1.586 1.156 2.691 1.504 4.898 4.98 8.281 4.164-.484.406-1.379.477-1.656 1.02l4.902 4.367c.551.41 1.586.34 1.859.957l-1.172.613c2.004 1.84 3.246 4.637 5.797 5.523l-.551.273c1.793 2.043 2.969 4.637 5.176 6.07l-.551.34c1.586 1.98 2.691 4.777 4.832 6.207-.277 0-.621.07-.621.273 1.379 2.387 1.52 5.59 4.141 7.094l-1.172.066c1.035 2.594 1.242 5.457 3.176 7.574.344.547 1.313.27 1.379.816l-1.793-.27c.895 2.66.688 5.863 2.758 8.047h-.965l.344 2.184c0 3.344 1.449 6.82 4.832 8.047l-.414.48c-.965-1.367-2.555-1.98-4.074-2.047.621 2.797.141 6.344 2.555 8.523-.551 0-1.312-.543-1.863-.34l.621 6.617c.207.613.969 1.094.898 1.707-.621-.207-1.242-.82-1.934-.684.344 2.59-.898 6.004.691 8.32.414 1.23 2.758 1.844 1.797 3.207-.484-1.434-1.934-2.523-3.246-3.137-.277 2.863-1.59 6.207-.207 8.867-.484-.34-.969-1.16-1.727-1.094-.344 2.934-2.277 5.867-.969 8.801l-1.516-1.16c-.691 2.867-2.762 5.594-1.863 8.664-.484-.41-.969-1.023-1.586-1.297l-2.695 5.797c-.137.82.07 1.91-.137 2.523-.344-.477-.758-1.156-1.312-1.43-1.105 2.66-3.934 4.773-3.52 7.844-.07 1.023 1.035 2.184 0 3 0-1.57-.414-3.137-1.52-4.23l-3.727 5.32c-.621 1.777-.344 3.891.07 5.527l-.551.137c.066-1.707-.141-3.344-1.383-4.434-1.656 2.727-5.523 4.84-4.625 8.594-.207-.957-.621-1.91-1.172-2.523-1.797 2.18-5.039 4.16-5.246 7.09l-.828-1.906c-1.727 1.84-4.625 3.477-5.383 5.727-.758.82.07 2.457-1.035 2.797.066-1.156.344-2.93-.551-3.82-2.211 2.047-5.387 3.617-6.559 6.277l-.551-2.184c-2.281 1.777-5.387 2.66-6.629 5.391-.137-.613-.207-1.227-.273-1.773-2.488 1.297-5.383 2.113-7.18 4.5-.07-.68.07-1.363-.207-1.91-2.414 1.16-5.316 1.434-7.246 3.617-.141-.613.207-1.5 0-2.047-2.555.887-5.316 1.094-7.594 2.59-.414-.477-.969-.887-1.52-1.02-2.691-.613-4.969.75-6.625 2.66l-2.07.066c-1.793-1.703-3.934-3.273-6.488-2.66-1.105.07-1.797 1.023-2.348 1.84-1.727-2.66-5.383-2.383-8.074-3.477-.277.547.137 1.5-.07 2.047-2-2.184-4.969-2.523-7.387-3.547v1.84c-1.793-2.387-4.691-3.137-7.109-4.5-.273.477-.207 1.293-.414 1.773-1.242-2.73-4.348-3.684-6.559-5.391-.344.684-.344 1.57-.687 2.18l-.898-1.77-5.66-4.504c-.762 1.023-.551 2.66-.484 3.82-.207 0-.414.07-.48-.137.621-3.887-3.656-5.934-5.867-8.391-.414.613-.555 1.434-.898 1.91-.137-3.066-3.52-4.977-5.316-7.094-.414.684-.895 1.844-1.172 2.457.969-3.75-2.898-5.73-4.484-8.527-1.312.957-1.453 2.73-1.383 4.434h-.277c-.828-.543.207-1.773.07-2.727.551-3.41-2.555-5.73-4.141-8.254-1.105 1.16-1.449 2.66-1.449 4.23-.141-.207-.414-.41-.484-.613 2.07-3.887-1.449-7.164-3.105-10.234l-1.312 1.434c.621-3.344-1.934-5.594-2.828-8.32l-1.449 1.297c.828-3.07-1.242-5.797-1.934-8.664-.621.273-1.035.684-1.52 1.16l-.066-.137c1.445-2.863-.621-5.73-.898-8.664-.762-.066-1.242.957-1.797 1.023 1.59-2.66.141-5.934-.137-8.797-1.312.613-2.762 1.703-3.176 3.137l-.207-.207c-.551-1.02.969-1.363 1.313-2.184 2.484-2.316.898-6.203 1.379-9.137-.758-.137-1.379.68-2.07.613 1.863-2.184 1.105-5.527 1.656-8.324-.758-.066-1.309.41-1.934.41 2.418-2.184 1.867-5.594 2.625-8.457-1.52-.137-3.105.68-4.211 1.98-.207-.137-.207-.344-.344-.48l1.93-1.156c3.453-1.98 2.277-6.074 3.246-9.074h-.895c2-2.18 1.793-5.387 2.691-8.047l-1.863.203c3.586-1.297 3.242-5.457 4.625-8.324l-1.176-.066c2.691-1.5 2.762-4.844 4.141-7.297-.207 0-.687 0-.551-.207 2.211-1.5 3.313-4.16 4.695-6.137l-.484-.273c2.277-1.434 3.449-4.094 5.176-6.141 0-.066-.137-.066-.207-.066-.066-.07-.484-.07-.273-.273 2.621-.684 3.727-3.754 5.656-5.457-.273-.34-.758-.34-1.102-.547l.066-.273c2.902-.543 4.418-3.41 6.766-5.113l-1.656-.957c3.313.816 5.727-2.727 8.281-4.297-.551-.344-1.312-.684-1.516-1.094 3.727 1.57 6.211-1.977 9.039-3.273-.48-.477-1.242-.75-1.449-1.227.348.203.691.273.969.477 2.832-.203 5.039-1.91 7.594-2.934 0-.477-.762-.477-.555-.887.344.137.555.477 1.035.344l6.074-1.98.348-.34-1.246-1.297.141-.137c1.793.41 3.934.207 5.66-.203 1.516-.344 2.758-1.777 4.281-1.707l-.348-.816c2 .816 4.418.27 6.211-.547 0-.887-1.309-.684-1.035-1.434 1.453.41 3.246.273 4.766.07.758-.547-.484-1.504-.414-2.25 1.793-.48 2.484-2.32 3.727-3.277-1.656-.477-3.383-.203-5.039-.27l-.137-.207c.414-.887.688-1.84 1.379-2.66-2.277-.207-4.281.547-6.074 1.84-.484-.816.551-1.637.414-2.656h-.273c-1.453 1.566-3.73 1.566-5.316 2.863-1.586 1.16-1.793 3.75-4.074 3.613.414-1.434 1.105-2.793 1.59-4.23h-.484c-2 1.094-4.141 1.844-6.074 3.004-1.586 1.023-2.004 2.863-3.039 4.16l-.137-.07c.691-1.156.828-2.727.969-3.953-2.625 2.043-6.902 2.043-8.008 5.863l.137-2.652c-2.348 2.113-6.074 2.863-7.387 6.07-.414.75-.344 1.977-.898 2.387.418-1.227.141-2.66.211-4.023-2.211 2.25-6.078 3.547-6.836 6.887-.273.82-.137 2.047-1.105 2.387-.414-.41-.207-1.227-.137-1.773-.07-.75.07-1.91-.414-2.457l-4.902 4.844c-.965 1.5-1.172 3.277-1.449 5.117-.621-1.227-.758-2.66-1.102-3.953-1.797 2.727-5.246 4.773-5.246 8.25 0 .684.066 1.641-.07 2.117-.277-1.16-.691-2.594-1.242-3.41-1.52 3.207-5.039 5.66-4.211 9.754-.484-1.16-.828-2.523-1.449-3.273-1.105 3.137-4.418 5.523-3.66 9.414 0 .953 1.52 1.703.621 2.59-.551-1.297-1.379-3-2.344-4.434v.477c-1.383 3.207-3.453 6.617-2.141 10.23-.828-1.02-1.656-2.387-2.484-3.066-.555 3.207-2.348 6.344-1.656 9.82l-1.59-1.637c-.137 3.137-1.863 6.277-.758 9.344.277 1.16 2.348 2.047 1.242 3.344-.758-1.363-2.07-2.727-3.383-3.613.07 3.41-1.723 7.434.621 10.297l-.207.344-2.414-1.91c.48 3.613-1.176 8.32 2.07 10.844-.898-.68-1.727-1.5-2.691-2.113.48 3.547-1.383 8.32 2.207 10.777-.965-.34-1.863-1.363-2.898-1.91.551 2.457 0 4.777.484 7.23.273.82.898 1.57 1.105 2.32l-1.176-.684c.828 2.047.344 4.707 1.105 6.824.551 1.703 2.277 3 3.383 4.297l-3.453-1.434c1.035 1.977.898 4.434 1.793 6.547.625 1.227 2.004 2.523 2.969 3.07l-2.621-.75c1.242 1.91 1.313 4.227 2.414 6.141.828 1.633 2.691 2.387 3.867 3.273l-3.453-.684c1.727 2.25 2.074 5.184 4.352 7.164 1.102.816 2.551 1.09 3.656 1.703l-.07.137c-1.172-.613-2.758-.68-4-.613 2.277 2.32 2.898 6.207 6.418 7.367.414.137 1.172.137 1.313.41h-2.898c1.859 1.84 2.758 4.227 5.035 5.934.898.477 2.074.816 2.762 1.09-.758.141-1.656.141-2.277.344l.414.203c2.348 2.523 4.488 5.934 8.078 6.277-.762.34-1.727.34-2.418.68h.137c2.762 2.457 5.594 6.344 9.871 5.73-1.242.273-2.484.41-3.656.82 2.898 1.703 4.898 4.977 8.352 5.18l-1.52.617c2.965 1.77 5.988 5.219 9.613 4.262-.699.25-1.418.492-2.09.785 2.004.816 3.797 2.59 5.867 3.547 1.934 1.09 3.727-.273 5.523-.477-1.105.613-2.348.957-3.453 1.637 3.105 1.023 5.73 3.684 9.25 3.137l-1.242.957c3.176.547 5.73 2.863 9.25 2.32l-.828.68c3.039.207 6.145 2.66 9.25 1.094-.137.34-.758.547-.828.887 1.242-.273 2.348.203 3.453.41 2.414.477 5.313.613 6.902-.75l.551 1.77a15.95 15.95 0 0 0 9.457-3.066c.48-.07.344.547.688.613 2.762 1.09 5.316 2.66 8.629 2.387l.414-1.227c2.898 1.707 6.281-.344 9.387-.137-.07-.41-.828-.547-.687-1.023 3.035 1.703 6.145-.684 9.18-.957l-.758-.75c3.52.613 6.07-1.637 9.109-2.387-.414-.137-1.035-.547-1.172-.887 3.52.684 6.277-2.184 9.109-3.207-1.035-.613-2.484-.953-3.312-1.637 4.07 2.863 8.008-1.16 11.387-2.934-1.105-.477-2.414-.816-3.449-1.297l.137-.066c4.211 2.523 7.457-1.844 10.84-3.684l-1.59-.617c3.52-.203 5.453-3.477 8.352-5.18l-3.656-.82c.895-.41 1.723 0 2.621-.34 3.176-.41 4.902-3.891 7.387-5.527-.691-.203-1.863-.137-2.277-.613 3.793-.203 5.727-4.23 8.352-6.48l-2.348-.34c3.863-.207 5.523-4.57 7.867-6.957l-2.965-.07c4.414-.203 5.59-5.25 7.73-7.773-1.035.051-2.105.137-3.07.324 4.066-.965 5.266-5.734 7.004-8.785l-3.449.75.066-.066c4.625-1.023 4.555-6.207 6.215-9.348-.828.273-1.797.684-2.625.754 4.004-1.707 3.383-6.348 4.902-9.551-1.242.41-2.418 1.023-3.59 1.363 4.004-2.387 3.934-6.957 4.555-10.98l-1.242.477c2.273-2.523 1.168-6.344 1.582-9.414m-1.586-6.957c.137 2.73.828 6.48-1.934 8.324-1.797-1.434-.414-3.754.137-5.457zm-.691-8.66c.141 2.727.898 6.48-1.863 8.254-1.863-1.367-.484-3.684.07-5.391zm-6.215 37.445c-.551-1.566.969-2.523 1.59-3.684.555 2.047.277 4.504-1.035 5.938-1.035-.277-.137-1.504-.555-2.254zm1.383-10.434c.141-.891 1.035-1.641 1.383-2.254.344 1.84.895 4.707-.762 6.004-.07-1.297-.07-2.66-.621-3.75zm1.242-9.617.484-1.023c.758 1.703 1.379 4.57.066 6.137-.203-1.707-2.137-3.41-.551-5.113zm-1.035-6.891c0-1.023.691-1.707.828-2.66.969 1.566 1.727 4.227.621 6.07h-.207c-.273-1.16-.48-2.387-1.242-3.41zm2.555-18.828.414-.41c.07 2.797 1.313 6.414-1.383 8.391-2.277-2.25-.066-5.59.969-7.98zm-2.348 7.504c.898 1.57 1.727 4.23.555 6.07-.07-1.773-2.004-3.344-.969-5.047zm-.965-2.387c-.207-1.707-2.691-3.344-1.035-5.32l.207-.684c1.172 1.57 1.727 3.957 1.105 5.938zm.965-14.531c.414 2.594 1.863 6.414-.687 8.527-2.07-1.16-.969-3.75-.691-5.527.48-.949.621-2.113 1.379-3zm-3.176-8.184c.762 2.453 2.488 6.137.141 8.527l-1.383-1.91c-.066-2.32.348-4.641 1.242-6.617zm-1.379 8.117c1.105 1.5 2.277 3.684 1.52 5.797-1.105-1.637-2.832-3.613-1.52-5.797zm-2.898-15.687c.691 2.59 2.969 5.387 1.105 8.184l-1.727-1.5c-.555-2.113-.07-4.641.621-6.684zm1.863 13.504-.207.137-2.07-3 .207-2.867c1.379 1.637 2.555 3.684 2.07 5.73zm-3.727-7.23c-1.035.34-.969-1.227-1.59-1.773-1.656-.613-1.035-2.66-1.035-3.75 1.449 1.566 2.902 3.34 2.625 5.523zm-3.312-13.914c1.172 2.457 4 5.047 2.07 8.188l-1.66-1.23c-.687-2.113-.824-4.707-.41-6.957zm-.898 6.273c-.207.613-.691-.066-.969-.066-1.516-1.16-2.484-2.523-2.414-4.434 1.793.684 3.313 2.66 3.383 4.5zm-4.625-12.754c1.52 2.32 4.004 4.707 2.898 7.914l-2-1.16c-.762-2.047-1.242-4.434-.898-6.754zm-.484 6.547c-.895-1.16-2.414-1.57-3.242-2.523l-.484-2.387c1.797.953 3.66 2.863 3.727 4.91zm-5.73-13.504c1.797 2.25 4.766 4.434 3.523 7.773-2.969-.75-3.105-4.363-3.59-7.023zm.141 6.547c-1.105-.066-2-1.16-3.105-1.566a12.63 12.63 0 0 1-1.035-2.937c1.727.957 4 2.391 4.141 4.504zm-7.316-12.617c1.934 2.18 5.109 4.094 4.348 7.367-3.242-.34-3.727-4.297-4.488-6.957zm.828 6.547c-1.105-.273-2.141-1.023-3.312-1.297-.691-.887-1.035-1.773-1.383-2.797 1.797.75 4.281 1.91 4.695 4.094zm-9.113-11.664c2.07 1.84 5.594 3.547 5.109 6.82-3.246 0-4.211-3.887-5.109-6.344zm1.52 6.277-.137.27-3.242-1.023c-.691-.816-1.312-1.773-1.66-2.66 2.004.41 4.145 1.434 5.039 3.414zm-3.59-4.574c-.687.48-1.516-.203-2.277-.27-1.723-1.707-3.035-3.754-3.656-5.938 2.207 1.5 5.934 2.934 5.934 6.207zm-3.727.07c-2-.203-4.488-.547-5.246-2.863l-.066-.273c2 .477 4.484.953 5.313 3.137zm-3.449-4.023c-2.348 1.09-3.656-1.703-5.109-3.07-.48-.887-1.172-1.637-1.312-2.59 2.348 1.363 6.145 2.316 6.422 5.66zm-3.59.203-.137.273c-1.656-.547-4.145.34-4.973-1.844l-.551-.75c2.141.207 4.348.617 5.66 2.32zm-4.488-3.684c0 .273-.207.613-.48.684-1.383 0-2.695-.207-3.66-1.023-1.172-1.363-2.207-2.867-2.277-4.57 2.555.816 5.246 2.32 6.418 4.91zm-6.074.137c-1.863.41-3.379-.887-4.555-2.18.414-.617 1.449-.07 2.004.203.895.613 2.207.75 2.551 1.977zm-3.727-3.41c-.137.477-1.035.344-1.379.137-1.934-.684-3.52-2.66-4.141-4.504 2.137.75 4.555 2.254 5.52 4.367zm-4.625-.547c.691.613 1.656 1.16 2.004 1.98-1.176.68-2.418-.07-3.383-.613l-1.383-1.434c.762-.48 1.934-.207 2.762.066zm-1.793-1.773c.137.684-.484.957-1.035.957-1.242.137-2.277-.75-2.969-1.773-.277-.41-.484-.82-.484-1.297 1.727.066 3.176.887 4.488 2.113zm-8.074.684c1.516 0 2.828.41 4 1.227-.273.41-.687 1.023-1.242 1.023-1.309-.066-2.348-1.297-2.758-2.25zm2.484 4.57-.348-.207c.969-.953 2.004-2.25 3.453-2.453.895 0 1.859.203 2.207 1.09.07.684-.762.82-1.172 1.094-1.105.75-2.832.203-4.141.477zm4.898 1.566c.344-1.293 1.863-1.703 2.969-2.043 1.242-.344 2.348.133 3.313.816-1.727 1.094-4.07 2.25-6.281 1.227zm5.246.957c.211-1.363 1.793-1.5 2.762-1.98.344.137.828.07.965.41-.207.48-1.102.41-1.516.75-.625.547-1.52 1.023-2.211.82zm1.727 1.09c.207-1.977 2.691-1.703 4.211-2.18 1.52.066 3.52-.273 4.625 1.227.07.816-.969 1.09-1.59 1.363-2.07.82-5.246.613-7.246-.41zm7.039 2.867c1.797-1.91 4.625-1.84 7.043-1.16.758.41 1.656.547 2.207 1.297-2.484 3-6.352.27-9.25-.137zm6.832 2.863c1.453-1.227 3.73-1.57 5.664-1.023 1.309.41 2.758 1.023 3.656 2.113-3.105 2.594-6.281-.477-9.32-1.09zm13.117 6.684c-2.207-.41-3.797-2.18-5.867-2.863 2.141-1.5 5.383-.75 7.453.547.484.613 1.242.75 1.59 1.5-.762.613-2.004.75-3.176.816zm1.727 1.707c2.898-1.57 6.832.07 8.695 2.867-3.383 2.113-5.937-1.57-8.695-2.867zm11.18 9.004c-1.656-.887-2.965-2.797-4.625-3.754 1.52-.68 4.145-.27 5.73.887 1.172.684 2.07 1.91 2.625 3.004-1.246.477-2.559.273-3.73-.137zm1.105 2.453c.551-.406 1.934-.27 2.762-.066a7.68 7.68 0 0 1 4.07 2.867c.344.613 1.035 1.09 1.035 1.84-3.727 1.16-5.52-2.727-7.867-4.641zm5.109 5.73c2.758-.477 4.762 1.16 6.484 3.004.348.816 1.035 1.5 1.035 2.387-3.863.887-5.312-3.273-7.52-5.391zm4.625 6.551c2 .07 3.656.887 4.969 2.457.895 1.156 1.586 2.453 1.727 3.953-3.039-.887-4.902-4.094-6.695-6.41zm4.07 6.547c2.625.07 4.762 2.523 5.66 4.641.137.816.551 1.566.414 2.383-4.004-.066-4.488-4.5-6.074-7.023zm2.898 7.438c2.555.27 4.488 2.797 5.246 4.977.07.82.48 1.641.207 2.457-4.004-.41-4.004-4.773-5.453-7.434zm2.762 8.184c1.52.477 3.035 1.637 3.797 3.137.758 1.367 1.102 3.141.895 4.707-3.793-.543-3.727-4.977-4.691-7.844zm3.52 14.734c-1.379-1.91-1.035-4.637-1.793-6.687 2.762.82 4.07 3.754 4.277 6.344l-.066 1.844c-.898-.066-1.656-.82-2.418-1.5zm-1.172 1.977c2.828.887 4.141 3.754 4.348 6.414l-.07 1.773c-.898-.07-1.727-.82-2.414-1.5-1.383-1.91-1.105-4.57-1.863-6.687zm.621 8.254c2.277.82 3.383 3.137 3.793 5.254 0 .953.484 2.387-.414 3.137-3.586-1.363-2.621-5.457-3.379-8.391zm.066 14.531c-.824-2.184-.137-4.504-.551-6.754 2.621 1.434 3.453 4.434 3.105 7.301l-.344 1.496c-.828-.203-1.727-1.293-2.211-2.043zm1.313 10.777c.414 1.84-.207 4.094-1.379 5.594-.141.066-.207.34-.414.203a16.095 16.095 0 0 1 0-3.684zm-2.898-8.871c2.484 1.367 2.832 4.23 2.555 6.754-.348.684-.137 1.637-.828 2.184-3.312-1.977-1.59-5.934-1.727-8.937zm-2 19.102 2.277-2.113c-.141 2.047-.555 4.5-2.484 5.66-.211-1.09.344-2.32.207-3.547zm.32 8.129c-.277.059-.551.117-.805.191v-.07c.27-.02.539-.062.805-.121zm-.32-19.52c2.07 1.363 2.344 4.023 2 6.141-.207 1.09-.414 2.18-1.172 3.066-3.176-2.25-.898-6.273-.828-9.207zm-2.555 7.641c1.793 1.566 1.793 3.953 1.449 6.207a7.406 7.406 0 0 1-1.59 3c-2.828-2.727-.414-6.277.141-9.207zm-1.242 11.188 2.277-1.707c-.277 1.91-.828 4.57-3.105 5.32.207-1.16.688-2.32.828-3.613zm-2.281-3.82c1.66 1.633 1.383 4.43.621 6.547-.48.883-.895 1.977-1.793 2.59-2.555-3 .348-6.273 1.172-9.137zm-2.484 11.047 2.488-1.566c-.414 1.84-1.453 4.434-3.59 4.977-.07-1.227.828-2.25 1.102-3.41zm-4.484 1.023c.551-1.84 2.141-3.273 2.621-5.117 1.105 1.094 1.105 3.277.691 4.844-.344 1.57-1.52 3.004-2.762 4.094-.551-1.09-.965-2.453-.551-3.82zm.621 4.777c.414-.07.688-.273 1.035-.41-.621 1.84-1.863 4.297-4.074 4.637.828-1.5.762-3.887 3.039-4.227zm-3.176-3.273c1.035 1.43.898 3.953.07 5.594-.551 1.156-1.59 2.316-2.625 3.137-.621-.684-.621-1.91-.691-2.934.277-2.25 2.555-3.684 3.246-5.797zm-2.555 9.957c.348 0 .555-.273.969-.273-.691 1.773-2.207 4.023-4.211 4.5l-.207-.203c1.105-1.43 1.035-3.887 3.449-4.023zm-7.664 3.957c-.133.684.691 1.707-.066 1.773h-.07zm2.418 2.047c-.617 1.77-2.621 4.09-4.555 4.16-.344-1.16 1.313-1.707 1.313-2.867.965-.75 2.141-.953 3.242-1.293zm-3.656-3.41c1.172 2.727-.414 5.117-2.141 7.094-.621.41-1.105 1.227-1.934 1.227-1.52-3.75 2.484-5.73 4.074-8.32zm-5.176 7.094.137 1.293-.348.207zm2.277 1.773c-.691 1.703-2.695 3.75-4.695 3.953-.414-.477.348-.883.484-1.293.551-1.977 2.555-2.254 4.211-2.66zm-9.043 5.184c.551-.207 1.313.07 1.863-.273-1.035 1.707-2.969 3.684-5.18 3.48 1.246-1.027 1.59-3.137 3.316-3.207zm-1.242-4.094c.621 2.387-.762 4.57-2.555 6.207-.828.613-1.586 1.5-2.621 1.227-.969-3.684 3.242-5.25 5.176-7.434zm-7.316 4.023c.414 2.66-1.449 4.91-3.52 6.344-.762.207-1.449 1.16-2.281.684-.617-3.754 3.727-5.047 5.801-7.027zm-4.762 7.914c-1.52 1.434-3.523 3.07-5.73 2.387 1.035-.684 1.793-2.184 3.176-2.453zm-7.387-1.297c1.586-1.363 3.52-1.84 5.109-3.137.07 2.32-1.453 4.367-3.523 5.594-.895.477-1.863 1.16-2.965.75.207-1.094.344-2.457 1.379-3.207zm-.484 4.094c-1.516 1.363-3.863 2.523-5.867 1.773.344-1.16 1.934-.957 2.555-2.047 1.105-.137 2.211.137 3.313.273zm-1.793-4.57c-.137 2.59-2.625 4.5-4.832 5.457-.691.41-1.449 0-2.141-.207.348-3.613 4.555-3.75 6.973-5.25zm-6.074 6.273c-1.797 1.023-4.281 2.254-6.145 1.16.758-1.023 2.07-.887 2.902-1.773 1.172 0 2.207.344 3.242.613zm-2.141-1.566.414-.477-.137.477zm.758-3.273c-.344 1.566-1.445 3.207-2.965 4.023l-2.348.887-.898-2.66c1.793-1.094 4.281-1.094 6.211-2.25zm-12.766 2.18c1.445-.75 3.793-1.84 5.035 0 .484.48-.07.957-.414 1.367-.691.543-1.035-.754-1.793-.684-1.59-.273-2.695.41-3.73 1.227-.273-.066-.48-.066-.687-.273.207-.75.965-1.363 1.59-1.637zm3.727 1.844c-.141.547-.828.477-1.242.613-.898-.066-1.727-.137-2.484-.41.828-.953 2.758-1.09 3.727-.203zm-15.254-2.047c.48-.41 1.035-.887 1.723-.82 1.863.207 3.383 1.094 4.762 2.391.207.406-.344.477-.48.68-.691-.07-1.035-.75-1.59-1.023-.824-.41-2-.273-2.828-.066l-.965.75c-.762-.41-1.246-1.227-.621-1.91zm4.898 2.25c-.965.48-2.691.754-3.727.07.137-.477.758-.613 1.172-.75.969 0 1.863-.07 2.555.68zm-14.219-.613c-.273.41-.898.41-1.379.613-2.07-.41-4.211-1.84-5.176-3.891l-.484-1.77c2.414 1.5 6.281 1.637 7.039 5.047zm2.07.613c.969.613 2.141.754 3.039 1.707-1.727 1.227-4.348-.137-6.145-1.094 1.035-.27 2.004-.543 3.105-.613zm-1.379-1.43c.137.203.414.27.414.477-.344.203-.277-.273-.414-.477zm-4.969 1.09.828.41c.137.203.344.34.551.547-2.141 1.09-4.211-.477-6.004-1.57v-.137c1.516-.137 3.656-.887 4.625.75zm-10.148-7.98c2.207 1.91 6.488 2.453 6.559 6.137-.828.82-1.863-.066-2.695-.27-2.137-1.16-4.07-3.414-3.863-5.867zm.898 4.5c.691.891 1.793 1.57 2.484 2.32-2.141.613-4.074-.887-5.73-2.184l.07-.27zm-7.937-7.98c2.07 1.98 6.418 3.273 5.797 7.027-1.172.273-2.277-.684-3.246-1.297-1.586-1.566-2.898-3.41-2.551-5.73zm-7.387-4.023c1.934 2.113 5.934 3.684 5.316 7.297-1.176.547-2.281-.75-3.246-1.5-1.449-1.633-2.551-3.684-2.07-5.797zm-.137 4.434c.551.957 1.516 1.84 2.207 2.867-2.207.203-4.141-1.773-5.109-3.48zm-6.836-9.074c2.004 2.184 5.73 4.164 4.766 7.848-2.07-.41-3.797-2.594-4.559-4.367-.48-1.09-.273-2.25-.207-3.48zm1.59 7.367c-.348.07-1.105.137-1.52-.203-1.312-.887-2.898-2.18-3.383-3.613l3.105.953c.414 1.023 1.383 1.844 1.797 2.863zm-2.555-5.59.207 1.363h-.277zM41 166.984c1.59 2.59 5.66 4.57 4.074 8.32-2.281-.887-3.867-3.273-4.281-5.457-.277-1.023.07-1.977.207-2.863zm0 5.73c.484.473.965 1.09 1.035 1.773-2.004.27-3.727-2.324-4.695-3.82v-.273c1.383.477 3.383.543 3.66 2.32zm-1.242-4.367.207 1.773-.551-.066zm-5.523-2.73c.277 1.023.969 1.84 1.313 2.797-.344.203-.898 0-1.242-.137-1.242-1.227-2.691-2.523-3.176-4.16 1.035.477 2.418.547 3.105 1.5zm-5.246-9.957.414-1.227c1.383 2.66 4.902 5.254 2.902 8.73-2.555-1.57-3.867-4.504-3.316-7.504zm-.895 3c.414 1.09 1.105 2.113 1.309 3.273-2.207-.34-3.449-2.797-4.07-4.637zm-3.867-10.844c1.242 2.594 4.281 5.594 2.277 8.934-1.102-.477-1.723-1.773-2.277-2.727-.758-1.844-1.242-4.434 0-6.207zm-1.242 5.047c.07.887.691 1.5.691 2.387-2.211-.273-3.105-3-3.727-4.91 1.102.75 2.758 1.09 3.035 2.523zm-3.656-10.848.621-1.156c.828 2.797 3.793 6.137 1.242 9.141-2.004-2.051-2.969-5.117-1.863-7.984zm-4.004-6.887 1.102-1.641c.555 2.867 3.039 6.48.207 9.211-1.652-1.977-2.344-5.117-1.309-7.57zm3.313 13.094c-.898-.066-1.727-.887-2.07-1.703-.484-1.16-1.035-2.25-1.172-3.547l2.344 1.773zm-8.281-28.645 1.586-1.437c-.137 3.004 1.656 6.891-1.656 8.938-1.449-2.113-1.176-5.32.07-7.5zm.48 9.547c.141 1.16.141 2.594 0 3.684-1.863-1.23-1.863-3.816-1.863-5.797zm-.965-18.895c.414-.203.551-.684 1.105-.75-.691 3.137 1.031 7.094-2.762 8.867-.969-2.73-.621-6.141 1.656-8.117zm-4.488-8.934 1.176 2.66-1.105 3.406c-.348.07-.621-.543-.691-.883-.066-1.707-.207-3.684.621-5.184zm.621-8.527c.277.68.828 1.5.969 2.32a18.17 18.17 0 0 0-1.242 3.75c-1.52-1.57-.348-4.23.273-6.07zm-.207 16.914c.414.613 1.176 1.363 1.313 2.184a13.87 13.87 0 0 0-.551 3.82c-1.59-1.297-1.105-4.16-.762-6.004zm1.176 9.004 1.656 2.457c-.137 1.16-.07 2.457-.344 3.48-.484-.137-1.039-.617-1.176-1.23-.137-1.5-.691-3.207-.137-4.707zm3.449-16.984c-.691 2.934.207 7.027-3.383 8.391-.828-.887-.48-2.457-.344-3.547.551-1.91 1.59-4.16 3.727-4.844zm.621-8.254c-.898 2.867-.273 7.027-4.004 8.254-.758-.75-.207-2.18-.137-3.273.551-2.047 1.934-4.297 4.141-4.98zm-3.312-.406c-.828-.754-.277-2.254-.207-3.273.555-2.047 1.934-4.301 4.141-4.98-.828 2.863-.273 6.957-3.934 8.254zm5.59-16.305c-.898 2.73-.687 7.164-4.625 7.98-.273-2.863.828-5.727 3.313-7.367zm-5.52 4.98c-.484-.07-.621-.75-.691-1.297.277-1.637.484-3.344 1.383-4.707l.824 2.594zm8.695-20.738c0-2.523 2.211-5.113 4.625-6.07.621-.27 1.313-.203 2-.34-1.793 2.316-3.656 5.457-6.625 6.41zm22.09-24.965c-2.348 1.707-4.695 5.391-8.285 4.094.137-1.09 1.242-2.184 2.277-2.867 1.656-1.227 4.004-1.906 6.008-1.227zm6.625-5.254c-2.691 1.5-5.18 4.777-8.699 3.141.207-1.094 1.59-1.91 2.418-2.594 1.793-.887 4.348-1.703 6.281-.547zm7.594-4.5c-2.902 1.09-5.66 4.297-9.043 2.184 1.105-1.707 3.176-2.594 5.176-3.004 1.52-.203 2.691.273 3.867.82zm-2.004-2.594c.414-1.023 1.797-1.566 2.832-1.977 1.93-.887 4.625-.547 6.348.613-2.898.75-6.074 3.75-9.18 1.363zm6.766-3.82c.691-.953 2-1.43 3.176-1.703 2.07-.41 4.555-.203 6.141 1.434-2.969.34-6.555 3.066-9.316.27zm8.074-3.137c-.414-.27-.621-.477-.621-.953 2.211-2.184 5.453-1.023 8.078-.41.344.41.965.613.895 1.227-2.414 1.297-5.937 1.504-8.352.137zm6.352-2.316c-.207-.41.273-.754.691-.754 1.102.41 2.621.547 2.965 1.98-1.449.613-2.207-1.434-3.656-1.227zm2.555-.957c1.105-.957 2.555-1.09 3.934-.684.898.41 1.863.754 2.484 1.707-2.07 1.297-4.695.203-6.418-1.023zm5.867-1.566c-.277-.891.758-.957 1.102-1.297 2.004-.547 3.383 1.02 4.559 2.316-1.867.137-4.211.344-5.66-1.02zm7.797-3.344c-.414.953-1.449 2.184-2.691 2.25-.555 0-.898-.547-1.242-.887.898-1.094 2.484-1.297 3.934-1.363zM82.69 6.139c.625-.137 1.246-.41 2.004-.41-.277 1.16-1.172 2.387-2.348 2.934-.687 0-1.379.34-2-.07-.484-1.43 1.52-1.703 2.344-2.453zm-1.586 3.34c-.965 1.57-2.691 2.527-4.555 2.32-.277-.137-.207-.477-.07-.613 1.176-1.363 2.832-2.184 4.625-1.707zm-1.793-3.684c-.691 1.914-2.348 3.957-4.418 4.574h-1.105c.484-2.391 3.383-3.684 5.523-4.574zm-8.629 6.824c1.242-.547 2.484-1.707 3.867-1.434-.969 1.434-2.555 2.66-4.488 2.457-.273-.48.484-.684.621-1.023zm-6.074-.41c1.383-2.047 3.66-2.934 5.73-3.684-.207 1.703-.969 3.41-2.414 4.707-1.039.68-2.277 1.16-3.66.816-.828-.613.137-1.297.344-1.84zm-.07 2.59h.555c-.621.82-1.312 1.641-2.141 2.32l-3.383.273c.484-1.977 3.105-2.18 4.969-2.594zm-2.344-3.547c-.555 2.117-2.418 4.297-4.348 5.664-.621.066-1.312.27-1.934.066-.07-3.273 4.004-4.23 6.281-5.73zm-4.418 6.551-1.793 2.387c-1.176.273-2.277.887-3.523.75.762-2.184 3.246-2.66 5.316-3.137zm-3.246-3.141c-.48 2.117-1.793 4.23-3.59 5.938-.758.066-1.516.75-2.207.27-.07-3.273 3.66-4.57 5.797-6.207zm-4.418 7.371-1.449 2.523c-1.172.34-2.207 1.02-3.449 1.156-.207-.477.273-1.02.551-1.43 1.313-1.023 2.691-1.98 4.348-2.25zm-3.52-2.867c-.273 2.25-1.449 4.434-3.039 6.344-.617.203-1.238.547-1.93.613-.828-3.41 2.898-5.047 4.969-6.957zm-4.418 7.57a8.515 8.515 0 0 1-1.312 2.797c-1.172.273-2.207.82-3.242 1.367.141-2.187 2.762-3.344 4.555-4.164zm-3.793-2.453c-.484 2.727-.898 6.48-4.074 7.434l-.344-.066c-.762-3.277 2.414-5.187 4.418-7.367zm-3.246 8.113c0 2.391-1.934 3.684-4.004 4.57-.414-.406.07-1.09.277-1.566 1.172-1.09 2.207-2.457 3.727-3.004zm-4.07-2.043c.137 2.18-.348 4.707-1.453 6.684l-1.863 1.16c-1.449-3.207 1.656-5.457 3.316-7.844zm-1.863 8.594c.344 2.594-2.004 3.273-3.59 4.844v.066h-.141c0-2.047 1.863-3.957 3.73-4.91zm1.445 3.07 2.277.137c-2.137 1.84-4.07 5.934-7.797 4.773.484-2.184 3.176-4.434 5.52-4.91zM24.85 37.31c.484 2.184-.066 4.707-.828 6.754-.691.34-1.172 1.023-2 1.16-1.105-3.141 1.379-5.457 2.828-7.914zm-2.551 9.004c.41-.34.965-.477 1.379-.75l-.484 2.727c-1.035.41-1.656 1.84-2.691 2.047-.621-1.566 1.035-2.797 1.797-4.023zm5.449 1.703c-2.207 2.117-3.656 6.277-7.523 5.391.762-3.07 4.074-5.867 7.523-5.391zM19.33 43.79c.551 1.434.344 3.547.137 5.117-.07 1.5-.898 2.25-2.141 3.07-1.93-3.07.969-5.664 2.004-8.187zm-3.178 12.28c.758-1.363 1.242-2.867 2.555-3.887 0 .816.551 2.59-.484 3.203-.965.684-1.035 1.91-1.863 2.457-.484-.477-.277-1.16-.207-1.773zm.758 5.594c.691-.207 1.313-.547 2.141-.547-1.586 2.523-2.07 6.957-6.004 7.027 0-2.523 1.449-5.051 3.863-6.48zm-2.621-10.23c.691 2.043 1.105 4.57.551 6.684l-1.727 1.5c-1.793-2.797.414-5.594 1.176-8.184zm.066 7.773c.348.82.348 1.98.348 2.867l-1.934 2.863h-.414c-.551-2.113.828-3.957 2-5.73zm.348 9.754c.484-.137.895-.406 1.449-.406-1.383 2.66-1.449 7.023-5.453 7.434-.07-2.797 1.309-5.664 4.004-7.027zm-3.039 1.16-1.793 2.797c-.898-1.98.414-4.094 1.313-5.797.273.816.824 1.91.48 3zM9.871 59.004c1.035 2.25 2.414 5.867.273 8.117-.137.133-.137.27-.273.41-2.484-2.254-.621-5.937 0-8.527zm-3.176 8.184c1.312 1.844 1.797 4.23 2 6.617l-1.172 1.91c-2.691-1.977-1.105-5.867-.828-8.527zm.965 19.234c-.758 1.16-.965 2.527-1.449 3.754-1.242-1.84-.207-4.23.414-6.07.348.68.898 1.434 1.035 2.316zm-3.656-10.23c1.449 2.387 3.59 5.664 1.586 8.391-2.969-1.703-1.656-5.59-1.586-8.391zm-1.727 8.734a12.741 12.741 0 0 1 2.969 6.48c-.484.543-.277 1.43-.898 1.77-2.898-1.703-2.07-5.387-2.07-8.25zm-.687 8.66a12.73 12.73 0 0 1 2.965 6.48c-.414.547-.273 1.434-.895 1.844-2.902-1.707-2.004-5.457-2.07-8.324zm-.555 8.867c1.727 2.184 4.277 5.051 2.762 8.051-.414.203-.762-.34-1.105-.68-2.07-1.914-1.242-4.777-1.656-7.371zm3.727 16.441c-2.969-1.57-2.621-4.914-3.172-7.711 1.93 1.57 3.379 3.824 4.07 6.07-.348.547 0 1.91-.898 1.641zm-1.934 1.84c1.934 1.227 3.73 3.273 4.625 5.32l-.207 2.047c-3.449-.816-3.586-4.707-4.418-7.367zm2.211 8.73c2.277.887 4.004 3.004 5.316 4.914l-.07 1.906c-3.453-.406-4.074-4.297-5.246-6.82zm3.105 8.527c2.277.82 4.277 2.594 5.938 4.5l.066 1.844c-3.379-.066-4.762-3.82-6.004-6.344zm6.004 2.797c-1.934-1.16-2.344-3.613-2.484-5.66.828.75 1.797 1.363 2.348 2.25-.277 1.297.551 2.25.137 3.41zm-.965-5.73c-1.656-2.18-1.793-5.457-.484-7.91.484-.344.555-1.094 1.242-1.297.07 2.934 2.277 6.82-.758 9.207zm-.969 11.117c2.281.547 4.352 1.98 6.078 3.684 0 .754.688 1.367.207 2.117-3.312.066-4.766-3.684-6.285-5.801zm4.832 7.711c2.762.613 6.422 1.57 7.043 4.707v.27c-3.246.617-5.246-2.863-7.043-4.977zm5.66 7.094c2.418.203 4.488 1.094 6.492 2.387.41.613.758 1.297.895 2.113-3.242.82-5.383-2.453-7.387-4.5zm10.77 10.777c-1.793-.887-3.246-2.387-4.625-3.82 2.348.137 4.695.887 6.695 2.047l.898 1.773c-.691.613-2.07.273-2.969 0zm1.242-7.23c-.277-1.363 0-2.453.344-3.613 1.52 2.59 5.109 4.977 3.453 8.594-1.934-1.027-3.246-3.07-3.797-4.98zm.551 9.891.277-.07c2.418 0 4.488.684 6.559 1.637l1.035 1.844c-3.246 1.297-5.594-1.637-7.871-3.41zm13.945 8.797c-2.969.613-4.832-1.77-7.109-3.066 1.379-.41 3.105 0 4.621.203 1.453.477 2.902.887 3.453 2.457 0 .547-.621.406-.965.406zm.414 1.914c1.102-.414 2.762-.207 4.074-.137 1.652.27 3.449.543 4.207 2.316-2.969 1.707-5.797-.75-8.281-2.18zm9.109 0c2.484-.547 4.074 1.293 5.453 2.863-.207.41-.965.203-1.379.137-1.453-.82-3.176-1.434-4.074-3zm-1.105 4.43c1.797-.613 4.211-.68 6.145-.27 1.105-.07 1.727 1.023 2.348 1.703-2.621 2.117-5.937-.203-8.492-1.434zm8.008 3.82c2.004-.816 4.695-1.09 7.109-.75.414.613 1.313.82 1.383 1.57-2.695 2.113-5.867 0-8.492-.82zm8.352 2.797c2.141-.953 4.488-1.566 7.043-1.363.48.41 1.242.684 1.586 1.297-2.348 2.457-6.074.613-8.629.066zm8.352 1.707c2.141-1.363 5.039-2.523 7.523-1.773l.484 1.363c-2.141 1.84-5.453.684-8.008.41zm7.387-4.23c-2.141-.137-4.488-1.363-5.727-3.477l-.555-1.641c2.207 1.301 5.316 1.094 6.902 3.207zm.969-.273.758-1.363c.688 1.297 2.141 1.98 3.656 1.844 1.313 0 2.555-.207 3.727-.684-.48.887-.617 2.457-2 2.66-1.727.957-4.07.477-5.66-.41-.758-.406-.551-1.363-.48-2.047zm1.102 5.797c-.621-.609-.551-1.77-.895-2.59 2.07.477 5.035.684 7.246-.477.48 0 .965.75 1.313 1.023-2.484.887-4.832 2.25-7.664 2.043zm8.906-2.656c-.762.203-1.312-.684-1.797-1.23.344-1.023.137-2.523 1.586-2.797 1.105.344 1.52 1.57 1.727 2.527a3.21 3.21 0 0 1-1.516 1.5zm8.145 2.656c-2.691-.066-4.832-1.293-7.18-2.113.758-2.316 2.348.07 3.797-.203 1.586.203 3.313-.07 4.898-.41-.758.82-.137 2.66-1.516 2.727zm-4.141-3.27c-1.52-.137-2.07-1.773-2.418-2.867 1.863.613 4.625 1.363 6.422 0l.895-1.09c.414.75 1.246 1.566.898 2.727-1.383 1.57-3.797 1.98-5.797 1.23zm5.867 1.977.758-2.184c2.348.207 4.418 1.023 6.352 2.117-2.141.27-4.973 1.293-7.109.066zm6.902-1.773c.965-1.773 3.449-1.297 5.035-1.16 1.172.41 2.555.477 3.59 1.227-2.621.547-6.281 2.391-8.625-.066zm8.418-1.91c.07-.684.898-.957 1.313-1.434 2.348-.543 5.039-.203 7.18.547-2.348.82-5.801 3.07-8.492.887zm16.43-4.707c-2.281 1.023-5.453 3.613-8.355 1.707.07-.82 1.035-1.094 1.453-1.707 2.207-.477 4.691-.613 6.902 0zm-6.488-1.43c1.309-1.367 2.621-3.551 5.039-2.934h.414c-1.383 1.5-3.176 3.477-5.453 2.934zm14.492-3.004c-2.137 1.297-4.969 3.957-8.074 2.457 1.035-3.07 5.109-2.73 8.074-2.457zm-2.207-4.91c-1.035-3.684 2.691-5.664 4.691-7.848.621 2.73-.687 5.051-2.691 6.961-.687.273-1.172 1.09-2 .887zm1.727 2.867c.895-2.937 4.418-2.73 7.039-3.141l1.105.203c-2.348 1.637-4.902 4.23-8.145 2.938zm14.906-8.598c-2.277 1.773-4.418 4.57-7.797 3.613-.207-.816.688-1.293.895-1.977 2.074-1.023 4.488-1.707 6.902-1.637zm-3.035-4.91c-.484-.684-.691-1.844-.414-2.867.273-2.25 2.758-3.684 3.59-5.73 1.105 2.117.273 4.57-.898 6.48-.687.75-1.449 1.641-2.277 2.117zm9.457-1.57c-2.004 1.98-4.281 4.98-7.594 4.023.621-3.066 4.281-3.48 6.902-4.09zm6.145-6.957c-2.004 2.047-4.004 5.184-7.25 4.57-.273-.684.484-1.227.551-1.98 2.004-1.363 4.211-2.316 6.699-2.59zm4.969-7.094h.688c-1.793 2.047-3.656 5.523-6.969 5.047-.07-3.273 3.934-4.094 6.281-5.047zm4.898-7.641c.277.07.418-.203.691-.07-1.586 2.184-3.105 5.938-6.418 5.73-.277-3.203 3.449-4.43 5.727-5.66zm4.695-8.254c-1.242 2.457-2.484 6.207-5.937 6.48v-1.98c1.656-1.906 3.66-3.68 5.938-4.5zm3.105-8.527c-1.172 2.527-1.727 6.207-5.18 6.891-.344-.75 0-1.641 0-2.32 1.246-1.84 3.18-3.613 5.18-4.57zm2.141-8.73c-.691 2.594-.898 6.551-4.281 7.367-.828-1.57.277-2.934.969-4.23zm-2.211-1.773c-1.379-2.66 1.105-5.047 2.695-7.164l.758-.613c-.348 2.797-.141 6.617-3.453 7.777zm1.383-8.391c-1.59-2.934.898-5.867 2.621-8.117 0 2.797.555 6.617-2.621 8.117zm0 0" fill="#57068C"/></g></svg>