<svg xmlns="http://www.w3.org/2000/svg" width="1024" height="573" viewBox="-4.736 -4.736 299.173 167.351"><path d="M286.3 1.378c-1.4-.1-142.2-11.9-284.8 35.4l-1.5.5 2.3 6.9 1.5-.5c55.7-18.5 117.4-30.1 183.6-34.5 48.9-3.3 85.1-1.4 95-.8v149.5h7.3V1.678l-3.4-.3z" fill="#004f9f"/><path d="M23.801 62.077c-4.7 0-8.102 3.002-8.102 8.102 0 4.6 2.901 7.699 7.801 7.699 1.8 0 3.3-.299 3.9-.699l-.5-2.301a8.39 8.39 0 0 1-3 .6c-3.3 0-5.301-2.1-5.301-5.5 0-3.7 2.201-5.6 5.301-5.6 1.3 0 2.3.3 3 .6l.6-2.199c-.6-.3-1.899-.701-3.699-.701zm29.299 0c-1.6 0-3.199.101-4.199.301v15.1H51.6v-6.299H53c1.6 0 2.299.699 2.699 2.699.4 1.9.8 3.1 1 3.6h2.9c-.3-.6-.699-2.399-1.199-4.299-.4-1.5-1-2.5-2.1-2.9v-.1c1.4-.5 2.799-1.901 2.799-3.801 0-1.3-.499-2.4-1.299-3.1-1-.9-2.501-1.201-4.701-1.201zm52.6 0c-4.3 0-7.199 3.3-7.199 8 0 4.5 2.7 7.801 7 7.801 4.2 0 7.301-2.9 7.301-8-.1-4.5-2.702-7.801-7.102-7.801zm42.602 0c-4.3 0-7.201 3.3-7.201 8 0 4.5 2.7 7.801 7 7.801 4.2 0 7.301-2.9 7.301-8 0-4.5-2.6-7.801-7.1-7.801zm16.699 0c-3.3 0-5.4 1.9-5.4 4.4 0 2.2 1.6 3.5 4.1 4.4 1.9.7 2.701 1.4 2.701 2.5 0 1.2-1.001 2.1-2.801 2.1-1.4 0-2.799-.5-3.699-1l-.5 2.301c.8.5 2.5 1 4.1 1 3.9 0 5.801-2.1 5.801-4.6 0-2.2-1.3-3.5-3.9-4.5-2-.8-2.9-1.3-2.9-2.5 0-.9.8-1.801 2.5-1.801 1.4 0 2.5.399 3 .699l.699-2.199c-.8-.4-1.999-.801-3.699-.801zm14 0c-3.3 0-5.4 1.9-5.4 4.4 0 2.2 1.6 3.5 4.1 4.4 1.9.7 2.701 1.4 2.701 2.5 0 1.2-1.001 2.1-2.801 2.1-1.4 0-2.799-.5-3.699-1l-.5 2.301c.8.5 2.5 1 4.1 1 3.9 0 5.801-2.1 5.801-4.6 0-2.2-1.3-3.5-3.9-4.5-2-.8-2.9-1.3-2.9-2.5 0-.9.8-1.801 2.5-1.801 1.4 0 2.5.399 3 .699l.699-2.199c-.8-.4-1.999-.801-3.699-.801zm68.699.102-4 5.398c-.4.5-.7 1.101-1.1 1.701h-.1v-7h-2.801v15.199h2.801v-5.4l1.4-1.6 4.299 7h3.301l-5.6-8.799 5.199-6.5h-3.4zm-211.898.1L31 77.477h2.9l1.299-4.299H40l1.4 4.299h3l-5-15.199h-3.6zm28.1 0v15.199H73v-2.299h-6.301v-12.9H63.9zm18.1 0 5 15.199h3.1l5.298-15.2h-3l-2.201 7c-.6 1.9-1.2 3.7-1.6 5.5-.4-1.9-.9-3.6-1.5-5.6l-2.1-6.9h-3zm35.5 0v15.199h2.5v-5.5c0-2.5 0-4.5-.1-6.5h.1c.7 1.7 1.799 3.601 2.699 5.301l4 6.699h2.9v-15.2H127v5.299c0 2.3.099 4.301.199 6.301-.7-1.7-1.6-3.4-2.6-5.1l-3.9-6.5H117.5zm70.6 0v15.199h2.801v-15.2H188.1zm8.201 0v15.199h9.199v-2.199h-6.4v-4.5h5.701v-2.301H199.1v-3.9h6.1v-2.299h-8.898zm12.699 0v2.299h4.4v12.9h2.699v-12.9h4.4v-2.299H209zm15.301 0v2.299h7.1v.102L223.6 75.977v1.5h11.5v-2.299h-7.799l7.699-11.3v-1.6h-10.699zm29.299 0 4.801 8.9v6.398h2.699v-6.5l5.1-8.799H263l-1.801 3.9c-.5 1.1-.999 2.1-1.299 3a68.53 68.53 0 0 0-1.301-3l-1.799-3.9h-3.2zm-200.299 2c1.8 0 3 .8 3 2.4 0 1.5-1.202 2.5-3.102 2.5H51.5v-4.801h.1c.3-.1.801-.1 1.701-.1zm52.299 0c2.8 0 4.201 2.7 4.201 5.6 0 3.2-1.501 5.699-4.201 5.699s-4.199-2.5-4.199-5.6 1.399-5.699 4.199-5.699zm42.701 0c2.8 0 4.199 2.7 4.199 5.6 0 3.2-1.499 5.699-4.199 5.699s-4.201-2.5-4.201-5.6c-.1-3.1 1.401-5.699 4.201-5.699zM37.6 64.477c.2.9.501 1.901.801 2.801l1.199 3.799h-3.9l1.201-3.799c.3-.9.499-2.001.699-2.801z"/><path d="M24.6 129.179c-5.4 0-8.9 4.1-8.9 9.6 0 5.2 3.202 9.299 8.602 9.299 5.3 0 9-3.6 9-9.6 0-5.1-3.101-9.299-8.701-9.299zm232.701.1c-6 0-10.4 3.5-10.4 9.5 0 2.7.9 5.1 2.6 6.6 1.7 1.6 4.1 2.5 7.4 2.5 2.4 0 4.8-.6 6.1-1v-9.6H256.2v3.199h2.8v3.801c-.3.2-1.1.299-2 .299-3.4 0-5.699-2.2-5.699-6 0-3.9 2.6-5.898 6-5.898 2 0 3.199.399 4.199.799l.9-3.299c-.9-.4-2.7-.9-5.1-.9zm-178.201.1c-2.1 0-4.1.1-5.6.4v17.9h.1c1 .1 2.501.299 4.701.299 3.6 0 6.498-.8 8.398-2.4 1.8-1.5 3-3.898 3-7.398 0-3.2-1.2-5.5-3.1-6.9-1.8-1.3-4-1.9-7.5-1.9zm87.6 0c-2.1 0-4.199.2-5.299.4v17.9h-.1c.9.1 2.4.299 4.5.299 3.6 0 5.799-.599 7.199-1.699 1.1-.9 1.9-2.2 1.9-3.9 0-2.4-1.5-3.9-3.6-4.5 2.1-.8 3-2.3 3-3.9 0-1.7-.901-2.9-2.201-3.6-1.3-.8-2.9-1-5.4-1zm58.602 0c-2.2 0-4.2.2-5.5.4v18h4.2v-7.201h1.199c1.7 0 2.5.6 2.9 2.9.5 2.2 1.001 3.701 1.301 4.201h4.199c-.4-.7-.9-3.102-1.5-5.102-.5-1.7-1.2-2.898-2.4-3.398v-.102c1.6-.6 3.201-2.2 3.201-4.5 0-1.7-.601-2.899-1.701-3.799-1.3-1-3.198-1.4-5.898-1.4zm-177.4.1v18.301h11.4v-3.5H52v-14.801h-4.1zm56.5 0v18.301H116v-3.4h-7.5v-4.301h6.699v-3.398H108.5v-3.801h7.1v-3.4h-11.2zm26.299 0v18.201h3.801v-5.4c0-3-.099-5.5-.199-8h.1c.9 2.1 2.099 4.5 3.199 6.4l3.9 7h4.301v-18.201H142v5.301c0 2.7.1 5.2.4 7.6h-.1c-.8-2.1-1.9-4.299-3-6.199l-3.801-6.701h-4.801zm58.801.1v10.102c0 5.8 2.701 8.398 7.301 8.398 4.8 0 7.6-2.699 7.6-8.299v-10.201h-4.1v10.5c0 3.2-1.2 4.701-3.4 4.701-2.1 0-3.301-1.601-3.301-4.701v-10.5h-4.1zm-22.301 2.801c1.9 0 2.9.7 2.9 2.1s-1.199 2.201-3.299 2.201h-1.4v-4.201c.4-.1.899-.1 1.799-.1zm-142.699.1c2.8 0 4.4 2.8 4.4 6.1 0 3.5-1.6 6.201-4.4 6.201s-4.4-2.5-4.4-6.1c0-3.5 1.6-6.201 4.4-6.201zm55.199 0c3.5 0 5.801 2.001 5.701 5.801 0 4.4-2.401 6.4-6.201 6.4-.5 0-1.098-.002-1.398-.102v-11.898c.4-.1.898-.201 1.898-.201zm146.201 0c1.9 0 3 .9 3 2.5s-1.201 2.6-3.301 2.6H224v-5c.3-.1.9-.1 1.9-.1zm-60.5 7.201h1.4c2.1 0 3.699.7 3.699 2.6s-1.7 2.6-3.5 2.6c-.7 0-1.2 0-1.6-.1v-5.1zm68.297-50.204c-1.2 0-2.1.9-2.1 2 0 1.2.9 2.1 2.1 2.1 1.1 0 2-1 2-2.1a1.94 1.94 0 0 0-2-2zm6.201 0a1.94 1.94 0 0 0-2 2c-.1 1.2.8 2.1 2 2.1s2-1 2-2.1c0-1.2-.8-2-2-2zm-66.701 4.9c-4.8 0-7.699 2.6-7.699 6.1 0 2.9 2.2 4.8 5.6 6 2.4.9 3.4 1.6 3.4 2.9s-1.099 2.199-3.199 2.199a10.96 10.96 0 0 1-5.102-1.299l-.699 3.799c1.1.6 3.399 1.201 5.699 1.201 5.6 0 8.201-2.901 8.201-6.301 0-2.9-1.701-4.7-5.301-6-2.6-1-3.799-1.6-3.799-2.9 0-1.1.998-2 2.898-2a9.13 9.13 0 0 1 4.201 1l1-3.699c-1.2-.5-2.901-1-5.201-1zm-26.398.1c-2.4 0-4.602.2-6.102.4v20.1h4.5v-8h1.4c1.9 0 2.701.701 3.301 3.201s1.1 4.099 1.4 4.699h4.7c-.4-.8-.999-3.399-1.699-5.699-.5-1.9-1.301-3.201-2.701-3.801v-.1c1.7-.6 3.6-2.4 3.6-5 0-1.9-.698-3.301-1.898-4.201-1.4-1.1-3.5-1.6-6.5-1.6zm-58.602.201 6.5 20.199h5.4v.1l6.801-20.199H102l-2.6 8.6a81.9 81.9 0 0 0-1.801 7.1h-.1c-.5-2.5-1.101-4.799-1.801-7.199l-2.5-8.6h-5zm-71.398.1v11.299c0 6.5 3 9.301 8.1 9.301 5.3 0 8.4-2.999 8.4-9.199v-11.4h-4.602v11.6c0 3.6-1.299 5.301-3.699 5.301-2.3 0-3.699-1.801-3.699-5.301v-11.6h-4.5zm28.299 0v20.199h4.201v-6.1c0-3.3-.101-6.201-.201-8.801h.1c1 2.4 2.3 5.002 3.5 7.102l4.3 7.799h4.801V94.778H57.6v5.9c0 3 .1 5.798.4 8.398h-.1a54.68 54.68 0 0 0-3.301-6.898l-4.199-7.4h-5.3zm28.5 0v20.199h4.6V94.778h-4.6zm43.301 0v20.199h12.9v-3.799H121.5v-4.801h7.4v-3.699h-7.4v-4.201h7.9v-3.699h-12.5zm73.4 0v20.199h4.6V94.778h-4.6zm14.898 0v3.799h5.4v16.4h4.6v-16.4h5.5v-3.799h-15.5zm28.301 0-6.199 20.199H232l1.4-5.199h5.9l1.6 5.199h4.9l-6.3-20.199h-6zm18.801 0v3.799h5.398v16.4h4.602v-16.4h5.5v-3.799h-15.5zm-105 3.199c2.1 0 3.398 1.001 3.398 2.801s-1.4 2.9-3.6 2.9H145.3v-5.5h-.102c.3-.1 1.002-.201 2.102-.201zm89 .201h.1l1 3.898 1.299 4.301h-4.5l1.201-4.301c.3-1.2.6-2.698.9-3.898z" fill="#004f9f"/></svg>