<svg xmlns="http://www.w3.org/2000/svg" width="339.213" height="81.605" viewBox="0 0 339.213 81.605"><path d="M66.465 59.448c0 5.2.266 9.487.334 10.436.066 1.531.467 2.266 1.668 2.266h.867c.266 0 .266.121.266.275v.7c0 .184 0 .245-.266.245-.334 0-2.336-.091-3.6-.091-.867 0-3.135.091-3.468.091-.133 0-.2-.061-.2-.275v-.767a.2.2 0 0 1 .2-.182h1.135c.867 0 1.334-.674 1.5-2.541.032-.55.233-4.835.233-9.732v-3.884c0-1.835-1.135-3.245-2.6-3.245h-1.073c-.133-.03-.2-.091-.2-.213v-.827q0-.183.2-.184c.167 0 .435.032 1.034.063s1.5.03 2.968.03c.567 0 1.068-.03 1.469-.061.435 0 .734-.032.934-.032a1.04 1.04 0 0 1 .8.275c.334.307 6.871 7.836 7.538 8.692.467.49 5.669 6.428 6.2 7.039h.133v-3.18c0-2.694 0-4.224-.066-5.755-.066-1.163-.2-4.163-.366-4.683a1.79 1.79 0 0 0-1.768-1.163h-1.062c-.2 0-.2-.121-.2-.275v-.7c0-.182 0-.245.268-.245.4 0 1.469.093 3.736.093 2 0 2.8-.093 3.2-.093.268 0 .334.123.334.214v.7c0 .184-.066.305-.2.305h-.938c-.666 0-1 .491-1.1 1.622-.165 2.081-.5 7.223-.5 10.345v8.079c0 .429 0 .858-.4.858a1.73 1.73 0 0 1-1.135-.49c-.266-.305-2.068-2.2-4.136-4.468-2.334-2.632-4.935-5.508-5.336-6-.467-.429-5.8-6.55-6.2-6.979h-.2Zm29.381 12.334a6.57 6.57 0 0 1-2.9 1.651 7.6 7.6 0 0 1-2.135.214 2.35 2.35 0 0 1-2.3-2.632c0-1.408.668-2.784 3.07-3.764a36 36 0 0 0 4.068-1.9v-1.59a2.8 2.8 0 0 0-.533-1.715 2.36 2.36 0 0 0-1.668-.459 3.7 3.7 0 0 0-1.935.552c-.467.305-.133.765-.133 1.5 0 1.1-.6 1.776-2 1.776a1.045 1.045 0 0 1-1.135-1.042 3.19 3.19 0 0 1 1.533-2.508 9.3 9.3 0 0 1 5.4-1.715c1.867 0 2.469.368 3.068.858a2.72 2.72 0 0 1 .8 2.3l.066 4.835v1.469c0 1.653.268 2.142.867 2.142a1.32 1.32 0 0 0 1.068-.49c.133-.184.2-.184.334-.121l.4.245c.135.061.2.184.068.49a3.36 3.36 0 0 1-3.068 1.771 2.74 2.74 0 0 1-2.8-1.865Zm-.2-5.3c-1.467.858-3.67 1.378-3.67 3.611 0 1.256.734 1.867 1.535 1.867.934-.061 2.135-.918 2.135-1.469Zm6.501-4.28c-.268 0-.467-.121-.467-.429 0-.245.2-.427.634-.581a13.7 13.7 0 0 0 4.569-3.857.56.56 0 0 1 .535-.305.384.384 0 0 1 .4.429l-.133 3.03h4.4c.2 0 .268.121.235.245l-.329 1.284c-.034.123-.135.184-.334.184h-4.04a83 83 0 0 0-.1 4.1v2.753c0 2.387 1.1 2.876 1.768 2.876a5 5 0 0 0 1.933-.366c.233-.093.334-.093.4.061l.2.366a.36.36 0 0 1-.133.429 7.33 7.33 0 0 1-4.2 1.226c-2 0-3.5-1.47-3.5-2.755 0-1.1.1-3.55.1-4.713v-3.977Zm13.312 2.357c0-.918-.2-1.531-1.736-1.9-.3-.061-.332-.154-.332-.275v-.338c0-.121.066-.182.233-.245.467-.184 3.768-1.254 4.336-1.469a2.5 2.5 0 0 1 .8-.184c.2 0 .3.123.266.368-.066.49-.066 2.448-.066 4.988v3.305a25 25 0 0 0 .066 2.632c.068.55.2.8.535.8h1.334c.266 0 .334.061.334.213v.613c0 .184-.068.305-.268.305-.268 0-1.8-.091-4.036-.091-1.935 0-3.2.091-3.6.091-.167 0-.268-.061-.268-.305v-.583c0-.182.133-.243.334-.243h1.467c.334 0 .5-.123.535-.613.032-.918.066-1.9.066-2.755ZM116.592 57a1.886 1.886 0 0 1-2.034-1.713c0-.888.9-1.715 2.235-1.715a1.767 1.767 0 0 1 1.968 1.592 1.92 1.92 0 0 1-2.169 1.837m17.959 4.956a6.36 6.36 0 0 1 2.3 4.835 6.73 6.73 0 0 1-2.066 4.657 7.72 7.72 0 0 1-5.6 2.2 6.79 6.79 0 0 1-5.4-2.2 6.1 6.1 0 0 1-1.8-4.744 6.64 6.64 0 0 1 2.8-5.081 7.67 7.67 0 0 1 4.729-1.475 7.4 7.4 0 0 1 5.038 1.806m-1.768 4.744c0-3.366-1.933-5.326-3.468-5.326a2.72 2.72 0 0 0-2.1.827c-1.036 1.07-1.434 2.357-1.434 4.59a6.67 6.67 0 0 0 1.03 4.259 2.86 2.86 0 0 0 2.636 1.317c2.2 0 3.336-2.541 3.336-5.662m9.435-6.306a1.8 1.8 0 0 1 .668-.245q.299 0 .4.366l.268 1.592h.2a6.66 6.66 0 0 1 4.334-1.961 4.94 4.94 0 0 1 2.935.734 3.39 3.39 0 0 1 1.835 3.152v4.414c0 .979-.034 2.326-.034 2.937 0 .674.4.858.8.858h.934c.3 0 .4.061.4.214v.7c0 .154-.066.214-.268.214-.266 0-1.267-.093-3.6-.093-2 0-3.068.093-3.269.093s-.268-.123-.268-.368v-.52c0-.184.066-.245.4-.245h.666c.268 0 .533-.184.6-.734a23 23 0 0 0 .135-2.876v-3.52c0-1.224-.066-2.021-.867-2.632a2.72 2.72 0 0 0-2-.552 3.24 3.24 0 0 0-2.135.8 2.95 2.95 0 0 0-.7 2.173v6.305c0 .672.167 1.04.634 1.04h.6c.268 0 .334.061.334.275v.552c0 .182-.066.305-.268.305s-1.133-.093-3.135-.093c-2.068 0-3.135.093-3.336.093-.133 0-.2-.123-.2-.305v-.582c0-.184.066-.245.332-.245h.668c.4 0 .867-.121.867-.611v-6.89c0-.916-.6-1.408-1.4-1.774l-.268-.123a.32.32 0 0 1-.266-.305v-.245c0-.123.133-.245.332-.305Zm21.749 11.384a6.57 6.57 0 0 1-2.9 1.651 7.6 7.6 0 0 1-2.135.214 2.35 2.35 0 0 1-2.3-2.632c0-1.408.668-2.784 3.07-3.764a37 37 0 0 0 4.068-1.9v-1.59a2.8 2.8 0 0 0-.537-1.712 2.37 2.37 0 0 0-1.668-.459 3.7 3.7 0 0 0-1.933.552c-.469.305-.135.765-.135 1.5 0 1.1-.6 1.776-2 1.776a1.045 1.045 0 0 1-1.135-1.042 3.19 3.19 0 0 1 1.533-2.508 9.3 9.3 0 0 1 5.4-1.715c1.867 0 2.469.368 3.068.858a2.72 2.72 0 0 1 .8 2.3l.066 4.835v1.469c0 1.653.268 2.142.867 2.142a1.32 1.32 0 0 0 1.068-.49c.133-.184.2-.184.334-.121l.4.245c.135.061.2.184.068.49a3.36 3.36 0 0 1-3.07 1.774 2.74 2.74 0 0 1-2.8-1.865Zm-.2-5.3c-1.469.858-3.67 1.378-3.67 3.611 0 1.256.734 1.867 1.535 1.867.934-.061 2.135-.918 2.135-1.469Zm9.665-4.924c0-2.142-.066-4.774-.133-5.569-.068-1.042-.634-1.531-1.7-1.837l-.666-.184c-.2-.063-.2-.123-.2-.245v-.368c0-.061.066-.182.268-.245a29.4 29.4 0 0 0 5-1.774 3.3 3.3 0 0 1 .734-.184c.2 0 .334.121.334.55-.066 1.653-.133 8.018-.133 9.7v4.408c0 1.408 0 4.529.066 5.447.066.55.133.979.867.979h1.267c.334 0 .4.063.4.275v.552c0 .184-.066.305-.2.305-.266 0-1.734-.091-4.068-.091-2.535 0-3.869.091-4.136.091-.2 0-.266-.121-.266-.305v-.583c0-.182.066-.245.467-.245h1.266c.334 0 .835-.245.835-1.1v-9.58Zm34.521 5.417c.066.061.066.121.066.305-.133.184-1.467 5.265-1.668 6.091-.867-.03-10.472-.091-13.874-.091-3 0-4.2.091-4.6.091-.268 0-.268-.061-.268-.275v-.7c0-.184 0-.245.2-.245h1.334c1.2 0 1.4-.429 1.4-.827 0-.55.133-8.2.133-10.037v-1.72c0-1.96-.066-5.2-.133-5.724-.066-.8-.2-1.1-1.066-1.1h-1.4a.27.27 0 0 1-.266-.277v-.7c0-.184.066-.245.266-.245.334 0 1.535.091 4.6.091 3.6 0 5-.091 5.269-.091s.334.121.334.275v.7c0 .121-.066.245-.334.245h-1.8c-1 0-1.135.305-1.135 1.131 0 .429-.133 5.021-.133 7.163v2.632c0 .55 0 7.161.133 8.478h1.869c1.867 0 4.269 0 5.6-.154 1.867-.245 4-3.916 4.47-5.079.133-.123.2-.184.4-.123Zm9.493 4.807a6.57 6.57 0 0 1-2.9 1.651 7.6 7.6 0 0 1-2.135.214 2.35 2.35 0 0 1-2.3-2.632c0-1.408.668-2.784 3.07-3.764a36 36 0 0 0 4.065-1.902v-1.59a2.8 2.8 0 0 0-.533-1.715 2.36 2.36 0 0 0-1.668-.459 3.7 3.7 0 0 0-1.935.552c-.467.305-.133.765-.133 1.5 0 1.1-.6 1.776-2 1.776a1.045 1.045 0 0 1-1.135-1.042 3.19 3.19 0 0 1 1.533-2.508 9.3 9.3 0 0 1 5.4-1.715c1.867 0 2.469.368 3.068.858a2.72 2.72 0 0 1 .8 2.3l.066 4.835v1.469c0 1.653.268 2.142.867 2.142a1.33 1.33 0 0 0 1.068-.49c.133-.184.2-.184.334-.121l.4.245c.135.061.2.184.068.49a3.36 3.36 0 0 1-3.068 1.774 2.74 2.74 0 0 1-2.8-1.865Zm-.2-5.3c-1.467.858-3.67 1.378-3.67 3.611 0 1.256.734 1.867 1.535 1.867.935-.056 2.135-.911 2.135-1.464Zm9.096 7.074a.8.8 0 0 1-.435.091l-.467-.121c-.133-.063-.133-.123-.133-.245.066-.429.1-3 .1-5.2l-.068-11.17c0-2.081-.366-2.45-1.434-2.755l-.4-.123c-.4-.061-.469-.121-.469-.245v-.305c0-.061.066-.184.334-.245 1.334-.429 3.269-1.224 4.336-1.713a2.3 2.3 0 0 1 1-.368c.268 0 .4.184.334.49 0 .245-.135 3.734-.167 6.4l-.034 3.673a7.03 7.03 0 0 1 4.569-1.562 5.93 5.93 0 0 1 4.871 2.571 6.67 6.67 0 0 1 .966 3.825 7.594 7.594 0 0 1-7.337 7.1 10 10 0 0 1-4.269-.8Zm2.5-6.886c0 2.571.066 3.55.467 4.468a2.84 2.84 0 0 0 2.469 1.376 3.46 3.46 0 0 0 3.036-1.56 5.8 5.8 0 0 0 .867-3.429c0-3.55-1.6-5.539-4.237-5.539a4.06 4.06 0 0 0-2.6.918Zm24.863-4.713a6.36 6.36 0 0 1 2.3 4.835 6.73 6.73 0 0 1-2.067 4.657 7.72 7.72 0 0 1-5.6 2.2 6.79 6.79 0 0 1-5.4-2.2 6.1 6.1 0 0 1-1.8-4.744 6.64 6.64 0 0 1 2.8-5.081 7.67 7.67 0 0 1 4.736-1.469 7.4 7.4 0 0 1 5.038 1.806m-1.768 4.744c0-3.366-1.933-5.326-3.468-5.326a2.72 2.72 0 0 0-2.1.827c-1.036 1.07-1.434 2.357-1.434 4.59a6.67 6.67 0 0 0 1.032 4.254 2.86 2.86 0 0 0 2.635 1.317c2.2 0 3.336-2.541 3.336-5.662m7.47-1.289c0-1.408-.268-1.9-1.267-2.387l-.6-.307c-.2-.061-.268-.121-.268-.243v-.184c0-.123.066-.184.268-.275l4.036-1.746a1.7 1.7 0 0 1 .533-.121c.2 0 .268.184.3.366l.3 2.2h.133c1.135-1.713 2.537-2.753 4-2.753a1.57 1.57 0 0 1 1.739 1.532 1.86 1.86 0 0 1-1.8 1.653 2.8 2.8 0 0 1-1.135-.245 1.63 1.63 0 0 0-.934-.245 1.75 1.75 0 0 0-1.4.888 3.25 3.25 0 0 0-.4 1.5v5.907c0 .979.266 1.286.934 1.286h1.467c.2 0 .268.061.268.214v.7c0 .152-.066.214-.233.214-.233 0-1.7-.093-4.136-.093-2.334 0-3.635.093-3.9.093-.167 0-.235-.063-.235-.214v-.674c0-.184.068-.245.3-.245h1.167c.533 0 .867-.245.867-.827Zm17.609 6.366a6.57 6.57 0 0 1-2.9 1.651 7.6 7.6 0 0 1-2.135.214 2.35 2.35 0 0 1-2.3-2.632c0-1.408.668-2.784 3.07-3.764a37 37 0 0 0 4.068-1.9v-1.59a2.8 2.8 0 0 0-.533-1.715 2.37 2.37 0 0 0-1.668-.459 3.7 3.7 0 0 0-1.933.552c-.469.305-.135.765-.135 1.5 0 1.1-.6 1.776-2 1.776a1.045 1.045 0 0 1-1.133-1.042 3.19 3.19 0 0 1 1.533-2.508 9.3 9.3 0 0 1 5.4-1.715c1.867 0 2.469.368 3.068.858a2.72 2.72 0 0 1 .8 2.3l.066 4.835v1.469c0 1.653.268 2.142.867 2.142a1.32 1.32 0 0 0 1.068-.49c.133-.184.2-.184.334-.121l.4.245c.135.061.2.184.068.49a3.36 3.36 0 0 1-3.07 1.774 2.74 2.74 0 0 1-2.8-1.865Zm-.2-5.3c-1.469.858-3.67 1.378-3.67 3.611 0 1.256.734 1.867 1.535 1.867.934-.061 2.135-.918 2.135-1.469Zm6.494-4.28c-.268 0-.467-.121-.467-.429 0-.245.2-.427.634-.581a13.7 13.7 0 0 0 4.569-3.857.56.56 0 0 1 .535-.305.384.384 0 0 1 .4.429l-.133 3.03h4.4c.2 0 .268.121.235.245l-.334 1.285c-.034.123-.135.184-.334.184h-4.035a83 83 0 0 0-.1 4.1v2.753c0 2.387 1.1 2.876 1.768 2.876a5 5 0 0 0 1.934-.366c.233-.093.334-.093.4.061l.2.366a.36.36 0 0 1-.133.429 7.33 7.33 0 0 1-4.2 1.226c-2 0-3.5-1.47-3.5-2.755 0-1.1.1-3.55.1-4.713v-3.978Zm22.909-.245a6.36 6.36 0 0 1 2.3 4.835 6.73 6.73 0 0 1-2.067 4.657 7.72 7.72 0 0 1-5.6 2.2 6.79 6.79 0 0 1-5.4-2.2 6.1 6.1 0 0 1-1.8-4.744 6.64 6.64 0 0 1 2.8-5.081 7.67 7.67 0 0 1 4.726-1.475 7.4 7.4 0 0 1 5.038 1.806m-1.768 4.744c0-3.366-1.933-5.326-3.468-5.326a2.72 2.72 0 0 0-2.1.827c-1.036 1.07-1.434 2.357-1.434 4.59a6.67 6.67 0 0 0 1.032 4.259 2.86 2.86 0 0 0 2.636 1.317c2.2 0 3.336-2.541 3.336-5.662m7.479-1.288c0-1.408-.268-1.9-1.267-2.387l-.6-.307c-.2-.061-.268-.121-.268-.243v-.184c0-.123.066-.184.268-.275l4.036-1.746a1.7 1.7 0 0 1 .533-.121c.2 0 .268.184.3.366l.3 2.2h.133c1.135-1.713 2.537-2.753 4-2.753a1.57 1.57 0 0 1 1.734 1.529 1.86 1.86 0 0 1-1.8 1.653 2.8 2.8 0 0 1-1.135-.245 1.63 1.63 0 0 0-.934-.245 1.75 1.75 0 0 0-1.4.888 3.25 3.25 0 0 0-.4 1.5v5.907c0 .979.266 1.286.934 1.286h1.467c.2 0 .268.061.268.214v.7c0 .152-.066.214-.233.214-.233 0-1.7-.093-4.136-.093-2.334 0-3.635.093-3.9.093-.167 0-.235-.063-.235-.214v-.674c0-.184.068-.245.3-.245h1.167c.533 0 .867-.245.867-.827Zm9.742 14.536a1.57 1.57 0 0 1 1.6-1.529 3.65 3.65 0 0 1 1.467.366.88.88 0 0 0 .867-.061 27.6 27.6 0 0 0 2.535-4.9c-.2-.918-4.068-10.464-4.3-10.986-.368-.8-.7-1.286-1.368-1.286h-.668c-.2 0-.268-.089-.268-.243v-.675c0-.12.068-.214.268-.214.268 0 1.068.095 3.537.095 1.933 0 2.933-.095 3.334-.095.2 0 .268.063.268.247v.674c0 .123-.066.213-.233.213h-.5c-.334 0-.6.186-.5.645.1.611 2.1 6.853 2.434 7.527h.133c.6-1.165 2.935-6.364 3.1-7.009.2-.793-.1-1.163-.7-1.163h-.535c-.2 0-.266-.089-.266-.213v-.674c0-.152.066-.247.266-.247.4 0 1.068.095 2.869.095 1.135 0 1.935-.095 2.235-.095.167 0 .233.095.233.247v.643c0 .184-.066.243-.2.243h-.4a1.56 1.56 0 0 0-1.2.522c-.668.8-2.935 5.385-5.337 10.343-1.668 3.305-3.068 6.182-3.668 7.161a3.4 3.4 0 0 1-3 2.021c-1.2 0-2-.674-2-1.653M94.349 5.183a20.7 20.7 0 0 1 7.567 16.47 19.34 19.34 0 0 1-4.117 12.24c-3.561 4.451-8.345 7.9-16.692 7.9a25.6 25.6 0 0 1-12.574-3.671c-3.95-2.393-8.123-8.457-8.123-16.469a22.13 22.13 0 0 1 5.119-13.8C70.425 1.846 76.434.732 81.219.732a19.7 19.7 0 0 1 13.13 4.451M72.984 6.297c-3.394 3.283-5.012 9.013-5.012 13.464 0 14.466 8.908 19.585 13.581 19.585 11.238 0 13.019-12.462 13.019-17.137 0-12.128-8.234-19.027-13.575-19.027-1 0-4.229-.556-8.013 3.116m37.256 22.229c-.362 1.04-2.577 7.5-2.8 8.724a4 4 0 0 0-.089.951c0 .586.723 1.083 1.628 1.083h1.9c.362 0 .453.091.453.228v1.129c0 .271-.091.453-.362.453-.634 0-2.531-.137-5.7-.137-3.345 0-4.339.137-4.973.137-.271 0-.271-.273-.271-.588v-.86c0-.271.091-.362.271-.362h1.357c1.266 0 2.08-.632 2.894-2.034.452-.814 3.706-8.95 5.062-12.749.317-.9 3.979-10.667 4.43-11.844.091-.452.362-1.266.091-1.537a1 1 0 0 1-.271-.543c0-.18.089-.362.452-.452a14.7 14.7 0 0 0 4.476-2.26c.271-.271.452-.452.677-.452.271 0 .453.541.543.812.814 2.8 4.339 12.931 5.153 15.822 1.085 3.525 3.979 11.935 4.611 13.155a3.42 3.42 0 0 0 2.894 2.08h1.441c.271 0 .361.091.361.317v.951c0 .269-.089.543-.452.543-.814 0-1.717-.137-6.69-.137-3.8 0-5.336.137-6.33.137-.361 0-.452-.273-.452-.543v-.904c0-.271.091-.362.362-.362h1.174c1.266 0 1.628-.452 1.357-1.672-.362-1.628-2.171-7.415-2.713-9.087Zm10.035-1.808c-.452-1.311-3.525-11.618-3.8-12.523-.18-.543-.271-.814-.453-.814-.269 0-.452.182-.586.588-.18.588-4.25 11.709-4.567 12.749Zm25.433 2.033c0 2.26.089 8.861.135 9.538a1.007 1.007 0 0 0 1.038.994h1.719c.18 0 .361.091.361.228v1.22c0 .18-.087.362-.269.362-.545 0-1.9-.137-5.787-.137s-5.334.137-5.785.137c-.18 0-.273-.091-.273-.317v-1.221a.242.242 0 0 1 .273-.271h1.626c.814 0 1.176-.361 1.222-.858.044-.362.137-8.59.137-14.195V21.61c0-.814-.093-9.495-.093-9.9 0-.543-.271-1.085-1.355-1.085h-1.36c-.269 0-.359-.091-.359-.317V9.087c0-.18.089-.271.359-.271.543 0 1.9.137 5.787.137 3.527 0 4.975-.137 5.607-.137.269 0 .361.091.361.317v1.129c0 .271-.091.362-.361.362h-1.446c-.907 0-1.359.271-1.359 1.311 0 .723-.178 7.776-.178 9.946v1.988h.815a2.27 2.27 0 0 0 1.539-.634c.856-.723 8.724-10.533 9.221-11.21.634-.905.089-1.448-.725-1.448h-.675c-.182 0-.228-.089-.228-.317V9.178c0-.271.089-.362.271-.362.543 0 2.349.137 5.336.137 1.806 0 3.345-.137 3.886-.137.271 0 .362.091.362.317v1.129a.333.333 0 0 1-.362.362h-.9a4.84 4.84 0 0 0-2.531.768c-2.127 1.4-8.5 8.77-10.218 11.03 1.81 2.262 11.032 14.2 12.386 15.779a3.33 3.33 0 0 0 2.711 1.083h1a.323.323 0 0 1 .362.317v1.131c0 .271-.093.362-.362.362-.452 0-2.08-.137-6.241-.137-3.795 0-5.512.137-6.146.137-.18 0-.273-.091-.273-.362v-1.131a.242.242 0 0 1 .273-.271h.634a.8.8 0 0 0 .721-1.174c-.452-.905-7.776-11.392-8.5-12.117a2.12 2.12 0 0 0-1.539-.632h-.812Zm46.835-2.371c0 3.339.112 9.571.224 10.405.167 1.112.556 2.114 1.446 2.114h2.782c.334 0 .446.167.446.389v1.336c0 .389-.167.5-.613.5-.723 0-1.835-.167-7.622-.167-5.453 0-6.789.167-7.345.167-.332 0-.444-.167-.444-.5v-1.281c0-.277.112-.444.334-.444h1.892c1.224 0 2.114-.334 2.114-1.837.11-5.563.11-10.792.11-16.024V6.407c0-1.892-.778-2.782-1.78-2.782h-2.169c-.279 0-.389-.11-.389-.334v-1.5c0-.277.11-.389.389-.389.389 0 2.169.167 7.622.167 3.116 0 8.235-.167 9.9-.167a14.95 14.95 0 0 1 10.126 3.506 8.52 8.52 0 0 1 3.005 6.231c0 7.009-4.229 9.9-10.348 10.9v.223a7.26 7.26 0 0 1 3.338 2.56c.668.89 4.117 6.121 4.561 6.789a78 78 0 0 0 4.73 6.341 5.84 5.84 0 0 0 3.952 1.06c.334 0 .446.167.446.389v1.169c0 .389-.112.556-.446.556-.446 0-1.892-.167-5.453-.167-1.558 0-3.671.112-4.9.167a14.7 14.7 0 0 1-2.45-3.172c-1-1.558-3.171-5.563-3.671-6.453-.556-1-2.114-3.561-3-4.785-1.391-1.947-2.672-3.449-5.007-3.449-.224 0-1.169.057-1.782.112Zm.112-5.007a15 15 0 0 0 2.114.222c8.681 0 10.46-7.009 10.46-9.569a8.76 8.76 0 0 0-2.448-6.231 10.64 10.64 0 0 0-7.345-2.393 3.9 3.9 0 0 0-2 .334 1.9 1.9 0 0 0-.668 1.613Zm39.159 4.938c0 .452.091 10.849.091 11.347 0 1.448.723 1.628 1.808 1.628h1.9a.32.32 0 0 1 .362.317v1.129c0 .271-.18.362-.452.362-.543 0-2.351-.137-6.6-.137-4.52 0-6.51.137-6.962.137-.271 0-.361-.091-.361-.317v-1.22c0-.182.089-.271.361-.271h1.808c.905 0 1.9-.091 2.08-1.311.091-.634.18-10.4.18-12.84v-3.167c0-1.085-.089-9.223-.135-9.81-.135-1.085-.588-1.537-1.854-1.537h-2.351c-.271 0-.36-.091-.36-.317V9.133c0-.226.089-.317.271-.317.543 0 2.892.137 7.322.137 4.339 0 5.787-.137 6.419-.137.271 0 .362.182.362.408v1.04a.332.332 0 0 1-.362.362h-1.717c-.994 0-1.717.361-1.717 1.22 0 .452-.091 10.4-.091 10.94Zm11.952-6.149c0-1.174-.18-7.593-.271-8.273-.089-1.085-.723-1.266-1.626-1.266h-2.442a.322.322 0 0 1-.362-.317v-1.22c0-.18.182-.271.408-.271 1.311 0 3.66.137 6.825.137 2.262 0 4.522-.137 6.781-.137 6.058 0 10.94.588 15.1 4.114a14.24 14.24 0 0 1 5.062 11.483 16.02 16.02 0 0 1-4.43 11.844c-4.429 4.793-11.481 4.838-14.555 4.838-1.719 0-6.33-.137-8.59-.137-3.979 0-5.787.137-6.419.137-.182 0-.271-.091-.271-.408v-1.129c0-.182.089-.273.361-.273h2.622c.905 0 1.357-.361 1.491-1.129.137-.905.317-11.121.317-14.557Zm5.7 4.43c0 .543.091 8.227.091 11.032a4.02 4.02 0 0 0 .812 2.531c.543.858 2.262 1.22 3.979 1.22a11.85 11.85 0 0 0 9.4-4.567 17.07 17.07 0 0 0 3.254-10.307 15.8 15.8 0 0 0-3.616-9.853 14.37 14.37 0 0 0-10.126-4.25 5.94 5.94 0 0 0-2.894.452 2.08 2.08 0 0 0-.812 1.988c-.091 1.9-.091 7.777-.091 8.5Zm57.33 11.89c0 .634.182 1.085.182 1.446s-.273.543-.725.725a26.2 26.2 0 0 1-12.838 2.983c-4.43 0-9.946-1.537-13.02-5.244-2.8-3.074-4.159-6.96-4.159-12.3a15.27 15.27 0 0 1 5.153-11.392c3.256-2.894 7.413-4.43 12.84-4.43a16.64 16.64 0 0 1 9.221 2.442c.543.406.814.271 1.085-.091l.543-.723c.226-.317.361-.452.632-.452.452 0 .543.269.543.632l.452 9.041c0 .362 0 .588-.18.634l-1.085.18c-.271.046-.361-.091-.452-.362a17.9 17.9 0 0 0-3.616-6.239 10.2 10.2 0 0 0-7.5-3.163 9.3 9.3 0 0 0-7.685 3.525 15.8 15.8 0 0 0-3.712 10.218c0 5.334 1.448 9.944 4.068 12.567a9.78 9.78 0 0 0 7.233 3.074 12.35 12.35 0 0 0 6.149-1.174c.994-.543 1.083-1.808 1.083-4.159v-3.3c0-1.628-.452-2.08-1.626-2.08h-1.9c-.271 0-.361-.182-.361-.408v-1.04c0-.271.089-.361.269-.361.543 0 2.713.135 6.421.135 3.8 0 5.334-.135 5.785-.135.362 0 .453.089.453.315v1.131c0 .271-.091.362-.362.362h-1.537c-.814 0-1.357.361-1.357 1.672Zm13.881-8.634c.046 2.44.137 6.871.137 7.685 0 2.351.812 3.256 1.806 3.527a14.4 14.4 0 0 0 3.527.361c.814 0 2.894-.089 3.8-.18a7.73 7.73 0 0 0 3.708-1.537c.814-.723 3.345-3.708 4.2-4.793.18-.226.317-.269.5-.18l.723.452c.137.091.18.226.091.453l-2.171 6.779a.956.956 0 0 1-.994.679c-.452 0-3.979-.137-19.078-.137-3.343 0-4.971.137-5.785.137-.271 0-.362-.091-.362-.362v-1.086c0-.271.091-.361.453-.361h1.537c2.08 0 2.26-.271 2.26-1.945V22.153c0-3.708-.091-9.312-.18-9.946-.182-1.22-.634-1.581-1.99-1.581h-1.717c-.18 0-.271-.091-.271-.317V9.133c0-.226.046-.317.271-.317.994 0 2.622.182 6.328.137h1.267c1.988 0 12.386-.091 14.375-.091.723 0 1.582-.046 1.808-.046a.317.317 0 0 1 .362.271c.18.588 1.9 6.736 2.08 7.189.089.271.044.406-.137.5l-.814.361c-.135.046-.271 0-.406-.226-.18-.271-3.888-4.43-4.973-5.062a7.8 7.8 0 0 0-3.439-1.18l-6.871-.18-.091 13.064a52 52 0 0 0 5.153-.224 2.53 2.53 0 0 0 2.08-1.628 7.2 7.2 0 0 0 .722-2.532.33.33 0 0 1 .361-.362l1.176.089c.18 0 .315.091.269.362-.089.723-.089 3.708-.089 4.882 0 1.808.18 3.979.271 4.973 0 .226-.091.271-.362.317l-.994.18c-.18.046-.271-.046-.362-.317a19 19 0 0 0-.723-2.26 2.76 2.76 0 0 0-2.26-1.626c-1.628-.182-3.8-.273-5.244-.273ZM3.615 43.983a3.53 3.53 0 0 0 2.446-.915c1.919-1.381 2.439-2.009 2.724-2.785 0 0 .243-.638-1.152-1.744-1.565-1.24-6.263-3.933-6.263-3.933.336-.19 1.347.038 2.228-.214a13 13 0 0 1-2.216-1.8A5.4 5.4 0 0 1 0 30.627a9.1 9.1 0 0 1 3.271 1.326s1.854 1.129 1.292-.342c-.5-1.315-.839-1.44-.839-1.44s3.171.294 6.1.911c2.9.617 6.743 3.095 8.049 1.611 1.305-1.512 2.947-4.076-.52-6.43a19.4 19.4 0 0 0-7.679-3.25 43 43 0 0 0-4.89-1.1 4.21 4.21 0 0 1-3.021-2.584s3.613 2.007 3.979.393a4.09 4.09 0 0 0-1.362-4A23 23 0 0 1 2.3 13.23s.114.235 1.988.488c1.848.256 1.952 1.666 1.848.256a6.3 6.3 0 0 0-1-2.681s1.322.822 3.307 1.878 4.155 3.431 5.091 2.385c.952-1.047 2.042-1.457.573-3.7a40.7 40.7 0 0 1-3.077-6.339 4 4 0 0 0 1.842.823 19 19 0 0 0-1.226-3.749 3.32 3.32 0 0 1 2.19.962l1.4 1.07a3.6 3.6 0 0 0 .486-1.4 13.2 13.2 0 0 1 2.9 2.964c.575 1.152 3.11 2.821 2.9 1.176a5.1 5.1 0 0 0-.922-2.45 6.1 6.1 0 0 1 1.63.954s1.059-.224.374-2.224a21 21 0 0 1-.896-3.644c1.214.748 2.5 3.529 4.06 4.148.095-.526-.188-1.672-.095-1.994a6.35 6.35 0 0 1 1.645 4.713c-.14 3.117.074 6.028-.406 8.616-.543 2.969 1.453 7.14 3.116 5.169 1.664-1.952 2.116-3.952 2.875-6.63a10.9 10.9 0 0 1 3.317-5.1s-.787 1.867-.258 2.461c.6-1.165 1.034-.831 2.136-2.2a17.4 17.4 0 0 1 5.062-4.5 11.1 11.1 0 0 0-1.791 2.884c-.48 1.408.154 3.856.858 2.685A5.9 5.9 0 0 1 44.3 8.184s.237 1.319-1.493 5.129c-.93 2.055-3.666 4.343-2.138 5.362 1.768 1.157 2.926 1.438 4.076.833a5.05 5.05 0 0 1 2.349-.765c-.082.459-.693.7-.806 1.252.121.3 1.33-.939 2.679-1-1.711 3.248-3.5 3.5-3.419 4.275.56.378 1.791.19 2.431.848a24.6 24.6 0 0 0-5.389 1.469 16.1 16.1 0 0 0-5.679 5.793c-1.708 2.9-3.024 10.337.647 7.117 3.639-3.245 7.037-9.5 7.037-9.5s-.277 3.064 1.14 2.376a33.4 33.4 0 0 0 4.429-3.387 15.3 15.3 0 0 1-1.711 4.941c-.926 1.708-1.546 2.861-1.376 3.994.241.379.88-1.017 4.523-1.78a19.2 19.2 0 0 1-3.92 4.142c-2.488 1.837-4.78 4.024-5.3 5.884-.556 1.981 1.581 4.616 4.411 2.174a13.9 13.9 0 0 0 3.666-4.762 29 29 0 0 1 2.859-5.083 7.2 7.2 0 0 0 .677 2.588c.378.188.894-.478 3.768-1.252-.03 3.368-1.844 4.99-1.425 5.466 0 0 .4.56 1.6.258 1.795-.457 1.88-.332 1.88-.332a18.1 18.1 0 0 1-7.377 5.33c-2.683 1.093-13.253 5.022-11.584 11.259.351 1.288 5.151 8.965 12.214 9.345l1.222-.066c.731-.1 1.045-.218 1.169-.059s.1.385.237 1.2c.216 1.29-1.324.941-4.444.184-5.594-1.37-9.726-7.284-11.508-9.884a15.7 15.7 0 0 0-4.04-3.539 17.6 17.6 0 0 0-7.94-1.995c-4.436-.036-9 1.469-11.151 1.52.6-.543 2.157-.922 2.7-1.419-.852-.825-4.892-1.089-6.011-1.9 1.378-1.218 4.47-1.406 5.072-1.99a3.22 3.22 0 0 1-.448-2.118s1.064.816 4.262.877c2.347.046 4.787.25 5.99-.884 1.446-1.378 1.763-3.355.013-4.544a8.17 8.17 0 0 0-6.007-1.592c-2.806.207-12.033 2.488-12.033 2.488-2.446.471-5.8-1.732-6.535-2.45" fill="#00662c"/></svg>