<svg xmlns="http://www.w3.org/2000/svg" width="157.6" height="39.9" viewBox="0 0 157.6 39.9" xml:space="preserve" fill="#213491"><path d="M40.4 16.9C39.3 8.7 33.4 2.1 25.7 0l-5.4 5.4c6.8 0 12.6 4.8 13.9 11.3-5.7.6-10.6 3.6-13.9 8-3.3-4.3-8.2-7.3-13.9-8 1.3-6.4 7.1-11.3 13.9-11.3L14.9 0C7.2 2.1 1.2 8.7.2 16.9c-.1.9-.2 1.8-.2 2.7 0 1.2.1 2.4.3 3.5 1.2-.3 2.4-.5 3.7-.5.8 0 1.6.1 2.4.2 4.8.8 8.7 4 10.6 8.3.3.8.6 1.6.8 2.5.2 1 .4 2.1.4 3.2 0 1-.1 2-.3 2.9v.1h4.7v-.1c-.2-.9-.3-1.9-.3-2.9 0-1.1.1-2.2.4-3.2.2-.9.5-1.7.8-2.5 1.9-4.3 5.8-7.5 10.6-8.3.8-.1 1.6-.2 2.4-.2 1.3 0 2.5.2 3.7.5.2-1.2.3-2.3.3-3.5.1-.9 0-1.8-.1-2.7m26.8.1c-1.7-2.2-2.6-5-2.9-7.3H74V7.2h-9.9V0h-3v7.2h-9.9v2.4h9.7c-.4 2.4-1.2 5.1-2.9 7.3-1.9 2.5-4.2 4-6.1 4.9-.4.2-.7.3-1.1.5v2.8c2.2-.7 6.2-2.4 9.3-6.6.9-1.3 1.6-2.6 2.2-3.9.1-.1.2-.2.4-.2s.3.1.4.2c.5 1.3 1.2 2.7 2.2 3.9 3.1 4.1 7.1 5.9 9.3 6.6v-2.8c-2.2-.7-5.1-2.3-7.4-5.3m54.8 0c-1.7-2.2-2.6-5-2.9-7.3h9.7V7.2h-10V0h-3v7.2h-9.9v2.4h9.7c-.4 2.4-1.2 5.1-2.9 7.3-1.9 2.5-4.2 4-6.1 4.9-.4.2-.7.3-1.1.5v2.8c2.2-.7 6.2-2.4 9.3-6.6.9-1.3 1.6-2.6 2.2-3.9.1-.1.2-.2.4-.2s.3.1.4.2c.5 1.3 1.2 2.7 2.2 3.9 3.1 4.1 7.1 5.9 9.3 6.6v-2.8c-2.1-.7-5-2.3-7.3-5.3M83.7 3.3v-.2c0-.2-.2-.4-.4-.4h-2.6v22.4h-2.5V.8h8.1v2.3l-1.9 5.1c.1.1.2.3.3.4.7 1 1.5 2.4 1.5 4.1 0 2.7-.9 4.4-1.9 5.4-.4.3-.7.6-1 .8l-.7-2.1.2-.2c.6-.6 1.3-1.6 1.3-3.8 0-1-.5-2.1-1.1-2.9s-1.2-1.4-1.2-1.4l1.7-4.7zm18.6 19v2.4c-2.2-.8-3.9-1.9-5.4-3.3-.4-.4-.9-.8-1.3-1.3-.5.6-1.1 1.2-1.7 1.8-1.2 1.1-2.6 2.2-4.3 3.1v-2.6c1-.6 1.9-1.4 2.8-2.2.6-.5 1.2-1.2 1.7-1.8-.7-.9-1.3-1.8-1.9-2.7-.8-1.2-1.3-2.5-1.8-3.9 0 1.1-.1 2.4-.2 3.6-.3 2.3-1 4.3-3 6.3-.9.9-1.8 1.4-2.5 1.8l-.7-2.1c.5-.3 1.1-.7 1.6-1.2 1.6-1.7 2.1-3 2.4-5 .2-1.5.2-3.3.2-4.5V.8h13.2v2.4H91v4.1h10.3c-.7 3.1-1.4 5.8-2.7 8.3-.4.9-1 1.8-1.6 2.7.4.5.9.9 1.4 1.4 1.2 1.1 2.4 2 3.9 2.6m-4-12.2V10c0-.2-.2-.4-.4-.4h-5.8c.6 1.9 1.2 3.6 2.2 5.1.4.7.9 1.3 1.3 1.9.4-.6.7-1.2 1-1.8q.9-1.8 1.5-3.9zM138.7 0h-2.2v3.5h2.2zm5.9 0h-2.2v3.5h2.2zm-9.2 6.9h17.2c.4 0 .8.4.8.8v3.2h2.7V4.7h-5.5c.3-.3.6-.6 1-1.2 1.1-1.4 1.7-3 2-3.6H151c-.2.5-.7 1.7-1.6 2.8-.7.9-1.5 1.5-2.1 1.9h-14.6v6.1h2.7zm21.2 10.5v-2.2H146V14s1.5-.6 2.7-1.4c1.3-.8 2.3-1.8 2.3-1.8V9h-13.3v2h9.9s-.8.6-1.9 1.2c-1.2.6-2.3.8-2.3.8v2.3h-11v2.2h11V20s0 1.4-.7 2c-.9.7-1.7.8-2.2.9s-1 .1-1 .1v2.2s2.7-.1 4.2-.8c1.4-.7 1.9-1.7 2.1-2.4.2-1 .2-1.9.2-1.9v-2.6h10.6zM57.1 35c0 3.1-1.5 4.8-3.7 4.8s-3.6-1.7-3.6-4.8 1.5-4.8 3.7-4.8c2.1 0 3.6 1.7 3.6 4.8m-5.7 0c0 2.4.8 3.6 2.1 3.6s2.1-1.2 2.1-3.6-.8-3.6-2.1-3.6c-1.3.1-2.1 1.3-2.1 3.6m11.3-2q-.3-1.5-1.5-1.5c-.9 0-1.4.5-1.4 1.2 0 .8.3 1.2 1.6 1.6l.5.1c1.9.6 2.5 1.4 2.5 2.7 0 1.6-1 2.8-3.1 2.8-1.7 0-2.8-.8-3.2-2.4l1.4-.5c.2 1.1.9 1.7 1.8 1.7 1.1 0 1.6-.5 1.6-1.3s-.3-1.2-1.7-1.6l-.4-.1c-1.8-.6-2.4-1.4-2.4-2.8s1-2.5 2.8-2.5c1.5 0 2.6.8 3 2.3zm9.3 6.7h-1.6l-.7-2.7h-2.6l-.7 2.7H65l2.6-9.3h1.8zm-3.1-5.8c-.2-.7-.3-1.4-.5-2.3h-.1c-.2.9-.3 1.6-.5 2.3l-.5 1.9h2.1zm7.6.2 3.2 5.6H78l-2.5-4.5-1 1.2v3.2H73v-9.3h1.5v4.2l3.2-4.2h1.7zm10.6 5.6h-1.5l-.7-2.7h-2.6l-.7 2.7h-1.4l2.6-9.3h1.8zm-3-5.8c-.2-.7-.3-1.4-.5-2.3h-.1c-.2.9-.3 1.6-.5 2.3l-.5 1.9h2.1zm13.7 2.6c0 2.2-1.3 3.4-3.2 3.4-2 0-3.3-1.1-3.3-3.4v-6.1h1.5v6.1c0 1.5.7 2.2 1.8 2.2s1.8-.6 1.8-2.2v-6.1h1.4zm8.4 3.2h-1.8l-2.1-4.8c-.5-1.2-.8-2-1.2-3.1h-.1c.1 1.1.1 2.2.1 3.4v4.5h-1.4v-9.3h2.2l1.8 4.1c.5 1.2.8 2.1 1.1 3.2h.2c-.1-1.1-.1-2.2-.1-3.4v-3.9h1.4v9.3zm3.5 0h-1.5v-9.3h1.5zm5.6 0h-1.8l-2.6-9.3h1.6l1.1 4.4c.3 1.2.5 2.3.8 3.4h.2c.2-1.1.5-2.2.8-3.4l1.1-4.4h1.5zm9.4-8h-4.1v2.5h3.1v1.3h-3.1v3h4.2v1.3H119v-9.3h5.6v1.2zm4.4-1.3c2.1 0 3 .9 3 2.5 0 1.1-.6 2-1.7 2.4l2 4.4h-1.6l-1.7-4.2h-1.6v4.2H126v-9.3zm-1.6 3.9h1.5c1.2 0 1.7-.5 1.7-1.4 0-.8-.4-1.3-1.6-1.3h-1.5v2.7zm10.2-1.3q-.3-1.5-1.5-1.5c-.9 0-1.4.5-1.4 1.2 0 .8.3 1.2 1.6 1.6l.5.1c1.9.6 2.5 1.4 2.5 2.7 0 1.6-1 2.8-3.1 2.8-1.7 0-2.8-.8-3.2-2.4l1.4-.5c.2 1.1.9 1.7 1.8 1.7 1.1 0 1.6-.5 1.6-1.3s-.3-1.2-1.7-1.6l-.4-.1c-1.8-.6-2.4-1.4-2.4-2.8s1-2.5 2.8-2.5c1.5 0 2.5.8 3 2.3zm4.5 6.7h-1.5v-9.3h1.5zm7.8-8h-2.5v8H146v-8h-2.5v-1.3h6.5zm4.8 4.1v3.8h-1.5v-3.8l-2.7-5.4h1.6l1.7 3.5c.1.2.2.3.3.6.1-.2.2-.3.3-.6l1.6-3.4h1.5z"/></svg>