<svg xmlns="http://www.w3.org/2000/svg" width="336" height="336" viewBox="0 0 252 252"><g fill="#004097"><path d="M27.016 129.281c2.465-.25 5.832.016 6.125 2.887.313 3.094-3.465 3.859-5.367 4.047-4.848.496-6.027-1.527-6.172-2.863-.148-1.527.891-2.543 1.824-3.066.656-.363 1.699-.816 3.59-1.004zm-.355-2.613c-3.867.398-8.426 2.266-7.957 6.996.445 4.418 4.883 5.625 9.266 5.184 4.898-.508 8.488-2.883 8.063-6.988-.383-3.902-4.008-5.734-9.371-5.191zm.612 26.34c-1.332.035-5.547.117-6.461-3.922-.758-3.34 1.965-6.348 7.086-7.512 4.578-1.039 9.031-.211 9.945 3.797a4.68 4.68 0 0 1-1.031 4.207c-.684.797-1.582 1.332-2.676 1.828l-1.34-2.281c1.723-.723 2.453-1.957 2.168-3.23-.691-3.066-5.199-2.043-6.25-1.805-1.539.348-3.051.828-3.984 1.594-.824.656-1.324 1.637-1.074 2.738.375 1.652 2.223 2.035 4.082 1.938zm12.129-.285 3.227 8.813-2.676.977-2.348-6.418-3.52 1.289 2.188 5.973-2.668.98-2.187-5.977-4.293 1.574 2.426 6.633-2.668.984-3.305-9.023zm-3.129 19.05 6.273-1.66-4.543 4.656zm-1.672 10.402 12.035-12.855-1.359-2.336-17.059 4.215 1.367 2.344 3.824-1.012 2.531 4.363-2.738 2.863zm15.29-7.066 1.484 1.98-5.902 10.875.027.035 8.996-6.773 1.422 1.895-13.484 10.141-1.539-2.043 5.754-10.652-.027-.023-8.785 6.613-1.43-1.895zm16.722 19.036-5.797 7.031c-1.262 1.547-1.793 2.176-2.062 3.004-.398 1.227.188 2.082.785 2.578 1.875 1.547 3.18-.035 5.012-2.238l5.922-7.176 1.965 1.617-5.645 6.828c-1.914 2.328-3.051 3.555-4.34 4.145-2.02.922-3.637.016-4.719-.883-3.992-3.289-1.281-6.578 1.191-9.574l5.715-6.934zm8.02 6.273 2.098 1.309-1.645 12.277.035.016 5.984-9.527 2.008 1.254-8.969 14.285-2.172-1.371 1.574-12-.023-.02-5.852 9.309-2.008-1.254zm11.113 6.527 2.293 1.074-7.164 15.266-2.305-1.086zm3.672 1.875 2.605.953-1.281 12.809.035.008 7.164-10.676 2.535.926-9.992 14.305-2.578-.934zm12.871 4.5 9.148 2.078-.641 2.785-6.668-1.523-.836 3.645 6.207 1.414-.641 2.793-6.195-1.422-1.016 4.461 6.883 1.566-.633 2.773-9.367-2.133zm14.074 5.485 1.98.203c1.707.18 2.02.207 2.465.633.434.426.543 1.102.48 1.777-.055.488-.25 1.555-1.164 1.867-.465.168-1.539.055-2.312-.027l-1.887-.187zm-3.949 13.691 2.543.258.703-7.016.516.055c1.699.176 1.824.516 3.051 3.688l1.457 3.852 3.031.309-1.199-3.43c-.988-2.828-1.422-3.484-2.391-4.391v-.055c.496-.02.996-.16 1.457-.375 1.305-.551 2.152-2.098 2.336-3.93.16-1.645-.23-3.617-1.625-4.488-.375-.203-.961-.535-2.836-.719l-5.344-.543zm16.957-4.961c.184.871.676 3.191 2.969 3.039 1.777-.125 2.398-1.414 2.328-2.496-.09-1.414-.996-1.656-3.359-2.25-1.281-.34-4.137-1.066-4.375-4.773-.125-1.84.578-4.758 4.285-5.016 2.461-.168 4.809.969 5.164 4.773l-2.543.313c-.168-.863-.461-2.418-2.48-2.285-.754.055-2.113.445-2.016 1.813.07 1.078.887 1.496 2.969 1.992 1.965.48 4.621 1.129 4.906 5.262.133 2.047-.719 3.832-1.758 4.563-1.086.781-2.359.914-2.937.949-1.348.09-4.719.16-5.582-5.402zm9.395-12.012 2.508-.398 2.656 16.648-2.504.402zm8.89 1.211-3.645.895-.676-2.762 9.734-2.418.684 2.762-3.637.91 3.379 13.59-2.461.625zm13.852 2.852-7.781-7.512 2.793-1.059 5.129 5.191.383-7.27 2.746-1.043-.879 10.813 2.5 6.613-2.383.898zm20.937-12.445c-1.398-2.035-2.793-5.113-.402-6.746 2.563-1.77 5.043 1.18 6.117 2.754 2.773 4.008 1.555 6.02.453 6.785-1.262.871-2.648.453-3.555-.125-.641-.391-1.531-1.094-2.613-2.668m-2.117 1.574c2.203 3.199 6.035 6.313 9.949 3.617 3.645-2.516 2.586-6.988.078-10.613-2.781-4.055-6.598-6.066-10-3.719-3.219 2.215-3.086 6.27-.027 10.715m6.445-15.762 6.293-5.965 1.965 2.063-4.445 4.211 2.758 2.906 3.848-3.645 1.957 2.063-3.84 3.656 4.926 5.191-1.852 1.742zm29.524-18.344c.969.934 3.984 3.867 1.742 7.355-1.84 2.887-5.902 3.059-10.32.223-3.949-2.535-6.5-6.277-4.277-9.754.383-.586 1.414-2.027 3.715-2.207 1.059-.078 2.063.188 3.184.605l-.684 2.57c-1.727-.73-3.121-.383-3.824.719-1.707 2.641 2.188 5.141 3.105 5.719 1.332.852 2.738 1.582 3.93 1.723 1.039.125 2.086-.211 2.699-1.164.918-1.422-.113-3.004-1.484-4.266zm0 0"/><path d="m207.078 166.301.977-2.348 6.137 2.559 1.93-4.613-6.137-2.559.988-2.34 15.559 6.488-.98 2.348-6.801-2.844-1.93 4.613 6.801 2.836-.977 2.348zm4.731-11.762.656-2.457 16.289 4.383-.66 2.457zm1.769-5.488.488-2.426 12.047-2.809.008-.035-11.031-2.23.461-2.312 16.527 3.332-.508 2.516-11.77 2.785-.012.035 10.777 2.168-.473 2.328zm12.481-14.969-6.07-2.312 6.398-1.137zm7.414-7.488-17.266 3.426-.258 2.684 16.305 6.535.258-2.711-3.695-1.406.488-5.023 3.902-.727zM0 126c0 69.477 56.516 126 126 126 69.469 0 126-56.523 126-126S195.469 0 126 0C56.516 0 0 56.523 0 126m8.012 0C8.012 60.941 60.941 8.012 126 8.012c65.066 0 117.988 52.93 117.988 117.988 0 65.066-52.93 118-117.988 118-65.066-.012-117.988-52.941-117.988-118m0 0"/></g><path d="m29.23 93.551 1.992-4.605L35 90.574l-1.992 4.605zm6.758 2.844-.348-.086 1.992-4.605 4.273 1.848L44.35 94.7l1.289-3.008-2.504-.977-4.277-1.848 2.027-4.715.336.199 1.246-2.91-2.586-1.031-4.723-2.035-2.098-.984-.898 2.309-2.285 5.309-1.324-.57-2.57-1.207-1.297 3.004 2.648 1.039 1.316.57-2.23 5.191-1.039 2.16 2.168.855 4.719 2.035 2.5 1.145zm.23-8.668-3.777-1.625 2.035-4.711 3.777 1.625zm29.337-33.676-1.973-2.285 1.191-1.02a7.2 7.2 0 0 1-.312 1.598l1.984.09.781.168zm-4.434 6.918 1.465-1.344 6.73-5.797 1.645-1.332-1.566-1.832-1.25 1.148.063-1.539-.785-.062-1.094-.055a8 8 0 0 1-.789-.098l1.352-1.039-1.629-1.883-1.074.996-2.145 1.84-1.437-1.672 2.246-1.937 1.566-1.211-1.637-1.895-1.562 1.426-6.41 5.52-1.52 1.227 1.609 1.875 1.43-1.324 2.223-1.91 1.441 1.672-1.781 1.52-1.508 1.242 1.59 1.852 1.449-1.316 1.762-1.52 1.98 2.293-2.41 2.063-1.555 1.281zm-11.23-8.355 9.844 11.43 1.645 2.027 2.078-1.793-.203-.242 10.426-8.969.313.355 2.125-1.832-1.77-1.922L64.4 40.113l-1.52-1.902-1.652 1.527-11.203 9.637-1.777 1.434zm2.09-1.684 10.43-8.969 9.707 11.281-10.43 8.973zm49.82-16.782 2.926-.711-.223.184-.648.578-.402.332 1.672 1.055.598.492-3.707.887zm-5.555-4.945.977.746.453-.727c.105-.168.32-.613.641-1.316l.203 1.109c.012.047.055.43.16 1.176l.207 1.367.07.773-2.305.508.59 2.453 2.051-.543.09 1.105.082 1.68.043 1.43v1.113l2.238-.641 7.922-1.914-.043.34c-.027.266-.293.516-.801.73-.516.23-.863.355-1.051.398l-1.875.277c.625.676 1.023 1.172 1.184 1.484q.254.463.473.984c1.75-.461 2.887-.898 3.402-1.297.523-.398.883-.816 1.066-1.246.195-.434.293-.844.332-1.242l.07-1.102 1.867-.395-.578-2.363-1.727.473-.133-.801-.203-1.164-.133-.809 2.043-.437-.594-2.461-1.965.523-.297-1.539a29 29 0 0 0-.266-1.359l-.348-1.945-2.504.684-6.996 1.688-2.09.445.531-1.492 8.988-2.172 2.953-.621-.598-2.48-2.906.781-7.68 1.852c.16-.527.293-1.094.418-1.699-.809.035-1.754-.043-2.863-.23a14 14 0 0 1-.242 1.758c-.105.535-.293 1.23-.531 2.117-.25.891-.535 1.566-.863 2.027l-.914 1.199 1.449.773zm4.996.012 2.504-.605c-.23.328-.648.762-1.25 1.316.406.203 1.02.578 1.848 1.117l-2.809.688zm5.637 6.594 1.129-1.094-2.234-1.52 3.266-.781.195 1.074.266 1.707zm-.16-5.992-2.172-1.414 3.504-.844.488 2.453-2.57.625zM93.09 32.469c.469.219 1.094.566 1.891 1.055l.242-.809.508-1.27.203-.535-3.875-1.715c-.215.766-.402 1.289-.551 1.574l-.473.871zm2.398 10.754.926.676.273-1.191c.223-.914.43-2.133.613-3.672l.297-2.586c.008-.16.043-.434.086-.789l-.641-.215c-.113-.027-.789-.32-2.008-.891l.02.711c.008.32-.027.871-.125 1.672l-.277 1.965-.348 1.594-.336 1.152c-.078.215-.18.438-.285.676.863.355 1.469.66 1.805.898m-2.285-16.687 1.324.813.543-1.363.465-1.199-3.906-1.867a9.2 9.2 0 0 1-1.145 2.375zm44.524-.087 2.125-1.727 2.551 3.281-2.043 1.867-.723-1.051zm-1.148 8.969 1.531-1.957 1.172-1.668.828-1.301a23 23 0 0 0 1.813 2.09l-2.09 3.094-1.672 2.293-1.5 1.832c-.453-1.094-.828-1.84-1.102-2.258l-.5-.684a11 11 0 0 0 1.52-1.441m3.887-14.453a22 22 0 0 0 2.25-1.602l2.434 3.129-2.062 1.945zm4.426 13.406 3.086.789.648-2.535-2.988-.762-2.113-.488.641-2.535 1.953.559 3.121.801.641-2.516-4.098-1.039-1.984-.453.641-2.48 1.938.551 1.984.516a21 21 0 0 0-.844-3.176l2.602-.523 1.031 3.672-1.422.375 4.402 1.129-1.254-.953q.744-.702 1.254-1.316l1.172-1.527 2.207 1.77-1.547 1.723-.527.633 1.902.488 2.047.473-.656 2.543-1.906-.543-4.266-1.094-.621 2.445 2.816.719 2.109.48-.66 2.535-1.785-.5-3.105-.801-.637 2.527 4.336 1.109 2.047.473-.652 2.559-1.961-.559-4.402-1.129-.551 2.125-.641 2.816-2.844-.727.789-2.777.543-2.133-3.066-.781-3.023-.711.66-2.57zm30.147 16.781c1.074.516 2.293.988 3.688 1.387 1.379.41 2.703.445 3.949.125 1.234-.32 2.23-.711 2.969-1.164a9.6 9.6 0 0 0 1.945-1.574l1.066-1.102-4.48-3.805-2.168-1.664 1.715-2.078 2.152 1.848 4.516 3.699 1.777-2.16 1.582-2.02 1.672 1.594.703.578-1.074 1.215-2.332 2.695 4.652 3.813 2.23 1.746-1.762 2.141-2.141-1.848-4.648-3.816c-.312.402-.543.73-.695.996s-.348.719-.578 1.371-.41 1.352-.543 2.113c-.125.766-.16 1.902-.105 3.441.063 1.531.375 2.746.906 3.617a28 28 0 0 0 1.664 2.418l-.953.348c-.336.133-.766.383-1.281.738l-.719.473-1.332-2.5c-.578-1.121-.941-2.531-1.078-4.238q-.211-2.55 0-3.461l.348-1.84-1.832.82c-.613.246-1.492.426-2.648.523-1.137.098-2.434.008-3.902-.266l-3.707-.883c.09-.273.168-.566.238-.898.09-.293.152-1.094.207-2.383zm31.016 29.606 2.543-1.004.844 2.383 1.895 4.801a4.7 4.7 0 0 0 .266-.746c.652.504 1.266.914 1.879 1.227l-.836-2.117-.961-2.195 2.418-.941.781 2.23 3.379 8.578-.988 1.395-.941-.309c-.398-.145-1.324-.633-2.773-1.477l1.75 4.426.988 2.27-2.535 1.004-.879-2.445-2.098-5.316-.879.543c-.23.133-.586.301-1.059.508-.473.219-1.004.328-1.602.336q-.89.031-1.609-.754c-.488-.535-.844-1.031-1.066-1.504-.23-.473-.453-1.059-.703-1.75l.863-.543a4.2 4.2 0 0 0 .66-.562l.711-.746.426 1.254c.098.328.176.551.25.695q.336.784.836.801c.5.017.629-.027.922-.137.426-.168.703-.328.828-.469l.348-.402-2.66-6.738zm7.477 6.801a15 15 0 0 1-.613 1.875 16 16 0 0 0 1.68.809zm-.648-8.918 1.742-.684 1.414-.621.863 2.41.641 1.617c1.164-1.211 1.98-2.277 2.469-3.176l.605-1.102 1.68 1.336.711.355-2.32 3.438-.738.934a17 17 0 0 0-2.355-1.66l3.707 9.395c.117-.523.195-1.18.25-1.973l1.457.391c.402.09.91.152 1.539.207l1.395.043 1.441-.09a22 22 0 0 0 .133 3.238l-1.324-.082-1.895-.215-1.75-.266-.836-.187.648 1.629 1.078 2.508-1.559.566-1.973.773-1.465.633-1.078-2.719 1.77-.633.836-.34-5.297-13.414-.98.383-1.512.656-1.066-2.719zm12.945 5.586-2.793 2.754-1.121 1.031q-1.1-1.41-2.035-2.301l1.094-.793c.313-.23.676-.551 1.113-.961s1.012-1.039 1.723-1.875a13.7 13.7 0 0 0 2.02 2.145zm0 0" fill="#C7161D"/><g fill="#004097"><path d="m54.887 161.047.32.629 1.371 2.578.488.871 1.527 2.57.293.469c.012.027.027.047.039.074l1.785 2.676c12.492-11.211 29-18.039 47.102-18.039 8.418 0 16.508 1.449 23.992 4.152q.07.025.152.051l.211.082c10.324 3.762 21.473 5.813 33.102 5.813 11.945 0 23.398-2.176 33.957-6.152l.297-.656a9 9 0 0 1 .133-.336l.824-2.137.375-.984c0-.012.008-.027.008-.035.293-.82.563-1.656.836-2.48l.32-1.008c.258-.852.496-1.715.738-2.578l.273-.992c.223-.871.418-1.754.617-2.641l.219-1.008a64 64 0 0 0 .5-2.691c.027-.203.07-.402.098-.598a75.97 75.97 0 0 1-46.363 15.711c-11.805 0-22.98-2.676-32.965-7.469l-1.387-.703c-.008 0-.016-.008-.027-.016-8.141-3.965-17.289-6.152-26.945-6.152-16.918 0-32.234 6.816-43.367 17.859.027.047.047.098.074.145a81 81 0 0 0 1.402 2.996zm123.664 24.43a39.4 39.4 0 0 1-10.758 1.492 39.25 39.25 0 0 1-16.508-3.617c-.187-.09-.367-.195-.562-.285-.141-.062-.301-.125-.445-.195a43 43 0 0 0-18-3.914c-15.434 0-28.965 8.109-36.582 20.297a79.1 79.1 0 0 0 30.402 6.047c20.117 0 38.469-7.496 52.453-19.824zm0 0"/><path d="M171.563 172.238a66.9 66.9 0 0 1-28.262-6.242c-.047-.027-.082-.043-.125-.07a14 14 0 0 1-.488-.215c-7.531-3.477-15.906-5.402-24.723-5.402-19.016 0-35.934 8.988-46.746 22.934l.738.703c.027.027.043.047.07.063l1.199 1.094.332.293c.309.277.629.551.949.82l.836.711.773.648.855.676.824.641c.145.105.293.23.445.344.496.375.996.738 1.512 1.105.371.273.754.539 1.137.809l1.629 1.102c.363.25.754.488 1.129.719l.887.551c8.91-13.52 24.211-22.437 41.605-22.437a49.7 49.7 0 0 1 23.836 6.055c.168.098.363.176.543.285.238.133.469.293.703.426a40.05 40.05 0 0 0 18.98 4.758c4.863 0 9.52-.863 13.824-2.445a88 88 0 0 0 1.723-1.895c.16-.187.328-.363.488-.551.598-.684 1.164-1.398 1.734-2.098.188-.242.383-.473.578-.703l1.566-2.09c.203-.277.418-.543.621-.816l1.441-2.098c.195-.305.406-.598.613-.91.051-.086.098-.176.16-.273a66.9 66.9 0 0 1-21.391 3.512zm0 0"/></g><g fill="#009FE8"><path d="M149.746 79.293v-5.254l-6.234 5.254zm-35.668-6.047c-.516-.348-1.109-.508-1.812-.508-.711 0-1.324.16-1.805.508-.516.336-.758.746-.758 1.219v3.449c0 .461.23.852.746 1.191.5.336 1.113.516 1.824.516.703 0 1.297-.18 1.813-.516.508-.355.766-.766.766-1.227v-3.434c-.008-.461-.266-.879-.773-1.199zm0 0"/><path d="M126 46.699c-13.449 0-26.121 3.359-37.23 9.273-25.062 13.344-42.133 39.723-42.133 70.09 0 4.73.438 9.352 1.238 13.859a63.5 63.5 0 0 1 36.91-11.762c12.063 0 23.371 3.332 33 9.129.117.082.25.152.375.234.285.168.566.355.852.539 10.457 6.262 22.68 9.859 35.746 9.859 19.934 0 37.902-8.383 50.594-21.805v-.055c.012-43.836-35.523-79.363-79.352-79.363zM100.113 86.5H95.23V74.492h-2.586v-1.754l5.184-1.742h2.293V86.5zm19.93-6.008c0 1.652-.879 3.047-2.676 4.23-1.77 1.199-3.922 1.789-6.41 1.789h-3.875v-1.734h2.578c1.441 0 2.656-.34 3.664-1.023.992-.684 1.508-1.484 1.508-2.418v-1.742c-.203 1.172-1.039 1.77-2.586 1.77h-2.586c-1.406 0-2.613-.348-3.637-1.023-1.031-.676-1.555-1.477-1.555-2.418v-3.449c0-.949.516-1.75 1.555-2.437 1.004-.684 2.223-1.031 3.637-1.031h5.199c1.414 0 2.633.34 3.645 1.031s1.539 1.488 1.539 2.438zm18.387-5.164c0 1.172-1.672 2.719-5.016 4.621l-.336.203c-3.043 1.727-4.68 3.129-4.945 4.188h10.297v2.172h-15.566v-1.719c0-1.199 1.68-2.746 5.012-4.641l.355-.203q4.987-2.852 4.988-4.621v-.863c0-.48-.258-.883-.766-1.219-.523-.348-1.137-.508-1.812-.508h-2.586c-1.594 0-2.465.578-2.562 1.754h-2.621c.41-2.32 2.141-3.488 5.191-3.488h5.199c1.406 0 2.633.34 3.656 1.016 1.012.684 1.527 1.492 1.527 2.434v.875zm19.129 6.027h-2.602v5.156h-5.211v-5.156h-10.348v-1.727l10.348-8.625h5.211v8.289h2.594v.336h.008zm0 0"/></g></svg>