<svg xmlns="http://www.w3.org/2000/svg" xmlns:xlink="http://www.w3.org/1999/xlink" width="1000" height="1000"><style>.B{stroke:#000}.C{stroke-miterlimit:10}.D{stroke-width:2}.E{stroke-width:4}.F{stroke-linecap:round}.G{fill:none}.H{fill:#d09c32}.I{stroke-width:3}.J{stroke-linejoin:round}.K{stroke-width:1.689}.L{fill:#0e2346}.M{stroke:#cf9c30}.N{fill:#cf9c30}</style><path fill="rgba(255,255,255,0)" d="M0 0h1000v1000H0z"/><g transform="translate(500.002 499.767) scale(.9085)"><g class="L"><circle cx="-.215" cy="-110.715" r="304.618"/><g class="C M"><path d="M-.215-544C-239.512-544-433.5-350.012-433.5-110.715S-239.512 322.57-.215 322.57s433.284-193.988 433.284-433.285S239.082-544-.215-544zm0 737.903c-168.236 0-304.618-136.382-304.618-304.618S-168.451-415.334-.215-415.334s304.618 136.382 304.618 304.619S168.021 193.903-.215 193.903z" class="I"/><path stroke-width="10" d="M-.215-544C-239.512-544-433.5-350.012-433.5-110.715S-239.512 322.57-.215 322.57s433.284-193.988 433.284-433.285S239.082-544-.215-544zm54.018 733.127-6.354 63.077-185.032-32.111-11.667-6.522.985-58.029c-93.388-52.039-156.57-151.759-156.57-266.256 0-168.236 136.382-304.619 304.618-304.619s304.618 136.382 304.618 304.619c.002 149.801-108.129 274.345-250.598 299.841z"/><g stroke-width="2.786"><path d="M98.334 169.153c-20.514 12.209-83.365 18.197-100 19.25-12.56.924-37.32 52.38-47.583 104.393-7.55 38.26-15.667 75.774-18.782 107.239h4.907s38.505 6.155 38.505 41.12-33.213 29.653-33.213 29.653 3.668 18.971 19.702 28.456 22.363 1.077 22.363 1.077.67 12.928 17.471 35.076c0 0 .313.769.474.576.16.192.472-.576.472-.576 16.802-22.148 17.473-35.076 17.473-35.076s6.328 8.408 22.362-1.077 19.702-28.456 19.702-28.456-33.213 5.311-33.213-29.653 38.506-41.12 38.506-41.12h2.584c0-44.465 1.313-79.643 2.354-109.108 3.268-92.479 7.179-104.402 25.916-121.774z"/><path d="M21.178 440.699c0-37.21 38.494-47.487 38.494-47.487s-1.528-50.151-.301-116.028 10.987-95.624 25.071-102.219l-40.771 7.905c-15.942 2.969-35.013 4.481-35.013 4.481-4.417-.115-23.242 6.468-36.908 88.885s-25.873 117.226-25.873 117.226 37.298 10.027 37.298 47.237-27.922 39.872-27.922 39.872 6.996 11.981 18.334 11.981 14.826-11.981 14.826-11.981-.328 19.128 13.427 40.241c0 0 .222.685.335.513.114.172.334-.513.334-.513 13.756-21.113 13.426-40.241 13.426-40.241s3.488 11.981 14.826 11.981 18.334-11.981 18.334-11.981-27.917-2.661-27.917-39.872z"/></g></g></g><path d="M66.417 259.811c-2.046 101.713 1.062 140.225 1.062 140.225s-38.506 6.155-38.506 41.12c0 26.816 19.536 29.941 28.643 29.941 2.767 0 4.57-.288 4.57-.288s-3.668 18.971-19.702 28.456c-5.782 3.42-10.303 4.514-13.719 4.514-6.057 0-8.643-3.437-8.643-3.437s-.671 12.928-17.473 35.076c0 0-.247.607-.415.607-.021 0-.04-.009-.058-.031-.018.022-.038.031-.059.031-.167 0-.415-.607-.415-.607-16.801-22.148-17.471-35.076-17.471-35.076s-2.586 3.437-8.644 3.437c-3.417 0-7.938-1.094-13.719-4.514-16.034-9.485-19.702-28.456-19.702-28.456s1.803.288 4.571.288c9.106 0 28.643-3.127 28.643-29.941 0-34.965-38.505-41.12-38.505-41.12l32.208-138.297c15.021-68.322 28.063-73.407 32.28-71.889l10.545-3.025c0-10.144-28.383-24.267-48.492 62.325s-40.331 160.813-40.331 160.813c.08.013 22.082 1.521 30.715 6.894 9.87 6.14 14.875 14.316 14.875 24.3 0 7.71-2.161 12.633-7.008 15.959-5.069 3.479-11.531 3.999-14.931 3.999-2.321 0-3.853-.231-3.868-.234l-9.877-1.516 2.733 14.208c.187.967 4.794 23.808 23.668 34.973 5.855 3.463 11.303 5.219 16.194 5.219 1.775 0 3.361-.234 4.766-.609 2.529 7.095 7.323 16.981 16.415 29.09 1.384 2.415 5.408 7.136 5.408 7.136s4.022-4.721 5.407-7.135c9.09-12.108 13.885-21.996 16.416-29.091 1.403.375 2.989.609 4.766.609 4.892 0 10.339-1.756 16.193-5.219 18.874-11.165 23.481-34.006 23.669-34.973l2.759-14.276-9.915 1.586c-.002.001-1.537.232-3.855.232-3.401 0-9.861-.521-14.93-3.999-4.848-3.325-7.01-8.249-7.01-15.959 0-9.983 5.006-18.16 14.875-24.3 8.634-5.372 30.65-6.881 30.74-6.896 0 0-5.207-43.271-5.207-141.647s33.411-96.159 33.411-96.159l11.589-4.5c-13.666-17.61-52.621-9.557-54.666 92.156z" class="N"/><g class="L"><g class="C M"><g stroke-width="2.454"><path d="M32.969 392.046h-68.153s12.736 3.994 19.216 14.977 5.14 22.964 5.14 22.964h27.26s-1.34-11.981 5.14-22.964 19.217-14.977 19.217-14.977h-7.82z"/><path d="M2.804 397.704H-16.19s4.553 3.994 6.564 11.315 2.387 14.311 2.387 14.311h20.087s.375-6.989 2.386-14.311 6.563-11.315 6.563-11.315H2.804z"/></g><path stroke-width="3.272" d="m11.445 439.376 5.341 24.481-13.983 15.13-13.982-15.13 5.341-24.481z"/><path stroke-width="4.909" d="M7.801 447.042 10.89 461.2l-8.087 8.748-8.085-8.748 3.089-14.158z"/></g><path d="M-152.065 296.292s109.378 44.089 245.177 41.915c105.622-4.691 119.14-36.637 119.14-36.637"/></g><path d="m93.248 342.705-.063.001c-135.146 2.164-245.829-41.796-246.932-42.24l3.364-8.348c1.086.438 110.142 43.707 243.359 41.591 94.372-4.2 114.292-30.189 115.19-30.189l1.229-.864 7.341-3.1c.092 5.697-21.365 38.614-123.425 43.146l-.063.003z" class="N"/><g class="C M"><path d="M-108.517 190.302s114.125 67.91 242.108 65.861 149.636-32.632 150.206-39.586c-.338 31.701-32.074 63.082-67.379 82.66s-77.981 25.64-119.037 26.297c-164.775 2.639-284.134-59.668-284.134-59.668l78.236-75.564z" class="I L"/><path stroke-width="10" d="M-119.572 204.903s156.11 75.789 277.478 63.395 138.502-37.526 123.741-50.52" class="G"/></g><path d="M-120.166 248.734h27.167c5.417 0 12.5 6.418 12.5 16.334s-7.5 12.751-7.5 12.751 1.221-14.644-13.945-14.644-23.471.477-23.471-6.107 3.666-8.334 5.249-8.334z" class="N"/><g fill="#fff"><circle cx="93.779" cy="300.529" r="5"/><circle cx="1.769" cy="289.989" r="5"/></g><g class="C L M"><path stroke-width="2.03" d="m-141.916 158.899-56.558 40.713-14.776 63.659s49.834 33.632 63.645 59.942l81.939-145.561c-39-1.373-74.25-18.753-74.25-18.753z"/><path stroke-width="3.093" d="m-195.855 202.687-19.777-7.131-5.249 56.622c-3.773 1.211-6.967 4.084-8.416 8.099-2.479 6.878 1.085 14.46 7.96 16.939s14.459-1.083 16.938-7.959c1.742-4.834.491-10.008-2.789-13.52l11.333-53.05zm59.359-55.169c-5.051-5.282-13.428-5.468-18.71-.417-3.085 2.951-4.418 7.034-3.999 10.975l-49.643 27.733 14.531 15.194 43.914-31.848c4.541 1.575 9.779.623 13.491-2.928 5.281-5.05 5.468-13.428.416-18.709z"/></g><path d="M-180.569 197.956c6.304 3.906 8.658 11.524 5.257 17.012s-11.271 6.771-17.575 2.863l-32.691-20.259c-6.304-3.907-8.659-11.526-5.258-17.012s11.271-6.77 17.575-2.864l32.692 20.26z" class="N"/><path d="M-185.71 201.922c5.45 3.377 8.145 8.897 6.019 12.329s-8.271 3.477-13.72.098l-28.265-17.515c-5.45-3.378-8.146-8.9-6.019-12.33s8.271-3.476 13.721-.098l28.264 17.516z" class="L"/><path fill="#fff" d="m-284.015 160.463-1.072 1.073-13.926-13.917 1.073-1.073 1.479 1.479c1.548 1.547 3.385 2.088 5.511 1.623 1.006-.194 2.601-1.384 4.784-3.569l15.947-15.956c3.943-3.945 7.394-6.614 10.352-8.008s6.361-1.723 10.209-.988 7.744 3.072 11.689 7.016c4.294 4.291 6.809 8.293 7.544 12.004s.312 7.289-1.273 10.732c-1.101 2.34-4.02 5.878-8.755 10.617l-15.367 15.374c-2.416 2.418-3.668 4.338-3.755 5.758s.615 2.877 2.104 4.365l1.479 1.479-1.073 1.073-17-16.991 1.073-1.072 1.508 1.507c1.625 1.624 3.298 2.271 5.019 1.942 1.18-.213 2.871-1.422 5.074-3.627l17.136-17.146c1.527-1.528 3.137-3.418 4.827-5.671s2.721-4.298 3.087-6.135.217-3.805-.451-5.902-2.007-4.151-4.019-6.162c-2.572-2.57-5.434-4.311-8.586-5.218s-5.975-.858-8.469.147-5.828 3.598-10.004 7.775l-15.918 15.927c-2.454 2.456-3.72 4.265-3.798 5.425-.096 1.604.601 3.151 2.09 4.64l1.481 1.479zm-45.566-52.995-7.288-13.218 20.111-49.916-28.087 15.486c-2.992 1.649-4.675 3.016-5.048 4.095-.518 1.441-.248 3.119.808 5.034l.931 1.688-1.328.732-9.348-16.953 1.329-.733.95 1.724c1.136 2.06 2.563 3.177 4.284 3.353 1.057.104 2.95-.596 5.68-2.101l41.054-22.636.713 1.293-21.518 53.737 29.991-16.537c2.994-1.65 4.684-3.003 5.068-4.059.505-1.465.235-3.143-.808-5.034l-.951-1.724 1.329-.732 9.348 16.953-1.329.732-.931-1.688c-1.149-2.083-2.583-3.212-4.304-3.388-1.057-.104-2.95.596-5.68 2.102l-33.871 18.674c-.873 2.324-1.371 3.996-1.496 5.018s-.023 2.362.3 4.025c.168.814.641 1.928 1.42 3.34l-1.329.733zm-.604-137.655 1.463-.407 6.383 22.959-1.462.406-.527-1.897c-.615-2.213-1.707-3.64-3.276-4.283-1.019-.397-3.135-.15-6.35.744L-368.57-3.04c-2.714.754-4.458 1.424-5.231 2.008-.585.447-1.002 1.145-1.249 2.093-.31 1.335-.289 2.635.063 3.899l.527 1.896-1.462.407-6.384-22.959 1.462-.406.538 1.936c.608 2.187 1.697 3.601 3.267 4.243 1.026.424 3.146.19 6.359-.704l34.617-9.625c2.714-.754 4.457-1.424 5.231-2.008.586-.446.998-1.157 1.237-2.132a7.55 7.55 0 0 0-.051-3.86l-.539-1.935zm-64.114-93.001 1.517-.061c.433 1.953 1.12 3.418 2.063 4.393 1.396 1.396 3.496 2.598 6.3 3.608l48.064 17.508.061 1.517-47.084 22.721c-2.416 1.163-3.889 1.975-4.418 2.433a7.21 7.21 0 0 0-1.888 2.599c-.438 1.017-.692 2.375-.762 4.073l-1.517.061-.901-22.705 1.517-.06c.348 2.559.852 4.208 1.51 4.948s1.479 1.091 2.464 1.052c1.366-.054 3.473-.767 6.318-2.139l32.021-15.432-32.692-11.838c-3.221-1.158-5.445-1.713-6.675-1.665-.792.032-1.535.458-2.228 1.279s-1.151 2.18-1.378 4.078l-.095.702-1.517.06-.68-17.132zm12.046-66.641 21.422 4.943 2.748-11.91c.713-3.091.724-5.263.03-6.518-.905-1.668-2.886-2.939-5.939-3.812l.341-1.479 18.864 4.353-.342 1.479c-2.724-.235-4.501-.252-5.334-.052-1.043.264-1.956.881-2.742 1.851s-1.438 2.587-1.961 4.851l-2.748 11.91 17.865 4.122c2.397.553 3.881.784 4.449.69s1.068-.37 1.497-.833.816-1.439 1.161-2.931l2.121-9.192c.706-3.063 1.007-5.337.9-6.822s-.639-3.009-1.596-4.577c-1.271-2.033-3.371-4.299-6.303-6.8l.369-1.599 12.509 7.812-9.636 41.764-1.479-.341.443-1.918a7.79 7.79 0 0 0-.08-3.849c-.229-.951-.735-1.678-1.518-2.181s-2.491-1.059-5.13-1.667l-35.209-8.124c-3.438-.793-5.636-.936-6.595-.427-1.286.713-2.188 2.189-2.705 4.427l-.442 1.918-1.479-.341 9.636-41.764 12.009 2.139-.36 1.559c-2.979-.098-5.081.069-6.304.503s-2.267 1.252-3.134 2.455c-.646.974-1.278 2.806-1.899 5.497l-3.429 14.864zm97.334-103.69-6.976 13.107-31.8 4.401-1.527 3.043-.558 1.005-.651 1.093 14.265 7.593c3.091 1.645 5.189 2.328 6.297 2.051 1.551-.352 2.813-1.445 3.79-3.28l1.021-1.919 1.34.713-11.196 21.037-1.34-.713.982-1.846c1.104-2.076 1.22-3.92.343-5.533-.478-.905-2.117-2.103-4.918-3.593l-31.717-16.88c-3.089-1.645-5.188-2.328-6.296-2.051-1.563.376-2.84 1.494-3.829 3.353l-.982 1.847-1.34-.714 9.52-17.886c2.775-5.214 5.201-8.855 7.278-10.925s4.595-3.424 7.553-4.064 5.85-.209 8.674 1.294c3.018 1.606 5.112 3.983 6.286 7.133s1.121 7.031-.159 11.647l19.48-2.642c4.468-.596 7.676-1.444 9.625-2.544s3.78-2.913 5.496-5.438l1.339.711zm-43.793 21.436.654-1.185.461-.823c2.492-4.683 3.357-8.753 2.595-12.21s-2.712-6.02-5.85-7.689c-3.065-1.632-6.068-1.999-9.009-1.102s-5.252 2.928-6.935 6.09c-.745 1.4-1.524 3.417-2.338 6.051l20.422 10.868zm47.88-115.336 14.179 12.999-1.025 1.118c-3.054-2.132-5.815-3.468-8.288-4.009s-4.976-.379-7.512.486-4.655 2.225-6.354 4.078c-1.922 2.097-2.871 4.417-2.848 6.961s.852 4.563 2.484 6.061c1.25 1.146 2.785 1.757 4.607 1.832 2.657.136 7.398-.988 14.224-3.376 5.566-1.944 9.541-3.113 11.924-3.508s4.667-.284 6.851.327 4.093 1.665 5.726 3.162c3.104 2.846 4.676 6.503 4.715 10.972s-1.678 8.598-5.151 12.388a26.755 26.755 0 0 1-3.349 3.106c-.675.532-2.229 1.489-4.665 2.873s-3.896 2.337-4.376 2.86c-.462.504-.676 1.041-.642 1.61s.461 1.359 1.279 2.368l-1.025 1.119-14.059-12.889 1.025-1.118c3.423 2.174 6.271 3.487 8.546 3.939s4.731.211 7.371-.727 4.957-2.494 6.953-4.671c2.31-2.52 3.469-5.119 3.479-7.801s-.893-4.853-2.707-6.516c-1.008-.924-2.279-1.58-3.815-1.968s-3.283-.403-5.242-.048c-1.325.231-4.578 1.2-9.759 2.905s-9.033 2.764-11.561 3.173-4.848.352-6.961-.177-4.016-1.567-5.709-3.119c-2.942-2.698-4.442-6.149-4.499-10.357s1.513-8.053 4.709-11.54c1.996-2.177 4.646-3.995 7.95-5.455 1.538-.666 2.52-1.231 2.945-1.695.48-.523.717-1.095.709-1.715s-.393-1.463-1.155-2.533l1.026-1.115zm93.36-5.34.882 1.234-19.389 13.854-.883-1.235 1.603-1.145c1.868-1.335 2.836-2.85 2.902-4.544.025-1.094-.932-2.997-2.871-5.712l-20.888-29.233c-1.638-2.292-2.863-3.701-3.677-4.229-.62-.397-1.418-.55-2.394-.458-1.361.166-2.575.63-3.643 1.393l-1.603 1.145-.882-1.234 19.39-13.854.882 1.234-1.636 1.168c-1.847 1.32-2.803 2.827-2.869 4.521-.048 1.11.898 3.021 2.838 5.736l20.888 29.233c1.638 2.292 2.863 3.701 3.677 4.229.62.397 1.429.542 2.428.434a7.52 7.52 0 0 0 3.608-1.369l1.637-1.168zm54.097-87.763 5.687 11.754-1.434.612c-1.179-1.994-2.2-3.343-3.064-4.044-1.401-1.126-2.898-1.758-4.488-1.897s-3.442.243-5.555 1.145l-7.205 3.075 16.68 39.081c1.342 3.145 2.519 4.961 3.53 5.45 1.406.648 3.104.549 5.09-.299l1.773-.757.596 1.396-21.691 9.258-.596-1.396 1.811-.773c2.163-.923 3.418-2.231 3.766-3.926.209-1.04-.297-2.994-1.521-5.861l-16.681-39.082-6.148 2.625c-2.39 1.02-4.012 1.92-4.867 2.701-1.104 1.036-1.832 2.432-2.183 4.187s-.12 3.828.691 6.217l-1.434.611-4.517-12.255 41.76-17.822zm89.92-20.191 19.227-2.589.202 1.504-1.057.143c-.705.095-1.692.546-2.963 1.351s-2.384 1.867-3.338 3.182-2.067 3.396-3.34 6.243l-10.474 22.724 1.86 13.82c.456 3.388 1.12 5.451 1.992 6.188 1.183.999 2.885 1.35 5.107 1.051l1.789-.241.202 1.504-23.414 3.152-.202-1.504 1.951-.263c2.33-.313 3.889-1.241 4.675-2.781.479-.947.511-2.966.095-6.056l-1.757-13.048-18.229-21.053-4.322-4.592c-.728-.591-2.158-1.227-4.291-1.905-.579-.197-1.383-.228-2.413-.089l-.202-1.504 23.576-3.174.203 1.504-1.22.164c-1.274.171-2.406.628-3.396 1.367s-1.405 1.707-1.245 2.899c.132.976 1.195 2.626 3.191 4.95l13.898 16.216 8.524-18.446c1.283-2.767 1.841-4.772 1.673-6.02a3.64 3.64 0 0 0-.863-1.953c-.473-.543-1.098-.935-1.875-1.176s-1.897-.262-3.361-.064l-.203-1.504zm74.747 22.345c1.28.108 2.318.643 3.117 1.602a4.41 4.41 0 0 1 1.036 3.319 4.39 4.39 0 0 1-1.6 3.096 4.38 4.38 0 0 1-3.321 1.057 4.38 4.38 0 0 1-3.096-1.6c-.811-.96-1.162-2.066-1.057-3.32a4.38 4.38 0 0 1 1.6-3.096 4.38 4.38 0 0 1 3.321-1.058zm87.629-7.52c6.884 2.171 12.024 6.667 15.423 13.486s3.861 14.142 1.395 21.965c-2.542 8.058-7.194 13.945-13.957 17.661s-13.757 4.435-20.979 2.157c-7.302-2.304-12.618-6.833-15.949-13.589s-3.697-14.255-1.099-22.495c2.656-8.423 7.692-14.39 15.107-17.9 6.435-3.044 13.123-3.473 20.059-1.285zm-1.643 2.621c-4.746-1.497-9.109-.938-13.088 1.678-4.955 3.254-8.764 9.106-11.428 17.556-2.731 8.658-2.981 15.904-.75 21.74 1.723 4.442 4.92 7.4 9.588 8.872 4.98 1.571 9.707.927 14.18-1.936s8.027-8.479 10.668-16.849c2.861-9.075 3.209-16.406 1.043-21.992-1.75-4.449-5.155-7.474-10.213-9.069zm86.81 41.004-11.75 18.435 8.543 5.445c1.96 1.249 3.671 1.732 5.133 1.448s3.158-1.61 5.09-3.979l1.279.815-10.119 15.875-1.279-.815c1.138-1.836 1.754-3.324 1.849-4.464s-.121-2.176-.644-3.11-1.57-1.9-3.139-2.899l-8.543-5.445-9.391 14.734c-1.514 2.375-2.363 4.038-2.549 4.99-.137.724.031 1.527.505 2.413.661 1.2 1.546 2.153 2.653 2.858l1.694 1.08-.815 1.28-20.13-12.831.815-1.279 1.66 1.058c1.938 1.234 3.703 1.566 5.3.995 1.024-.385 2.433-1.984 4.226-4.798l19.312-30.298c1.514-2.375 2.363-4.039 2.549-4.99.136-.724-.021-1.521-.47-2.392a7.61 7.61 0 0 0-2.653-2.858l-1.66-1.058.815-1.28 34.898 22.244-6.119 10.594-1.211-.771c.796-2.572 1.124-4.625.982-6.159a8.16 8.16 0 0 0-1.518-4.104c-.871-1.203-2.528-2.584-4.973-4.142l-10.34-6.592zm51.944 65.671c.926.89 1.396 1.958 1.414 3.205s-.414 2.325-1.284 3.231a4.39 4.39 0 0 1-3.192 1.399 4.39 4.39 0 0 1-3.245-1.269c-.907-.872-1.374-1.936-1.399-3.192s.398-2.338 1.27-3.245 1.935-1.374 3.191-1.399 2.337.398 3.245 1.27zm72.801 49.186c3.992 6.014 5.169 12.741 3.529 20.181s-5.877 13.43-12.711 17.968c-7.039 4.674-14.357 6.333-21.953 4.977s-13.49-5.189-17.68-11.499c-4.235-6.378-5.527-13.242-3.875-20.592s6.076-13.414 13.273-18.193c7.357-4.886 15.024-6.366 22.999-4.44 6.921 1.672 12.394 5.538 16.418 11.598zm-2.926 1.007c-2.753-4.146-6.499-6.451-11.238-6.914-5.898-.58-12.539 1.581-19.919 6.481-7.563 5.022-12.31 10.504-14.238 16.446-1.45 4.54-.82 8.849 1.888 12.926 2.889 4.351 6.972 6.818 12.249 7.4s11.572-1.555 18.884-6.41c7.928-5.264 12.803-10.75 14.625-16.457 1.432-4.562.683-9.053-2.251-13.472zm26.808 110.624-13.438 16.695c-3.713 4.624-5.952 7.894-6.715 9.808s-.845 4.065-.242 6.456l-1.448.452-7.11-22.788 1.449-.452c.498 1.506 1.005 2.58 1.521 3.221a3.36 3.36 0 0 0 1.498 1.015c.593.202 1.138.225 1.634.07a5.152 5.152 0 0 0 1.691-.914c.386-.321 1.311-1.397 2.773-3.229l10.816-13.256-17.723-6.673c-1.88-.703-3.111-1.092-3.693-1.168a3.92 3.92 0 0 0-1.695.143c-.836.261-1.418.829-1.746 1.705s-.223 2.317.318 4.326l-1.448.452-5.876-18.833 1.449-.452c.545 1.291 1.178 2.354 1.896 3.189a20.89 20.89 0 0 0 4.183 3.765c1.605 1.103 3.888 2.225 6.85 3.363l19.728 7.594 12.047-15.23c3.264-4.14 5.23-7.404 5.904-9.791s.646-4.885-.082-7.493l1.449-.452 7.658 24.55-1.448.452c-.729-2.064-1.516-3.387-2.356-3.97s-1.626-.76-2.356-.532c-.966.301-2.181 1.368-3.643 3.199l-9.636 11.943 14.886 5.71c1.751.657 2.927 1.027 3.526 1.113a3.87 3.87 0 0 0 1.722-.129 2.47 2.47 0 0 0 1.302-.922c.426-.563.656-1.179.691-1.848s-.229-1.948-.789-3.836l1.449-.452 5.875 18.833-1.448.452c-.542-1.463-1.156-2.604-1.841-3.421-1.041-1.222-2.252-2.262-3.637-3.119s-3.781-1.929-7.189-3.214l-16.756-6.332zm36.68 83.581-21.844.901.418 10.123c.096 2.322.679 4.001 1.748 5.039s3.127 1.67 6.174 1.9l.063 1.516-18.81.776-.063-1.516c2.157-.117 3.73-.462 4.72-1.037s1.716-1.343 2.183-2.307.662-2.374.586-4.232l-.418-10.122-17.459.721c-2.813.116-4.664.37-5.551.763-.672.301-1.235.899-1.691 1.794-.605 1.229-.882 2.5-.828 3.811l.084 2.008-1.517.063-.985-23.851 1.518-.063.08 1.967c.096 2.295.833 3.934 2.215 4.917.901.62 3.018.86 6.352.723l35.899-1.481c2.813-.116 4.664-.371 5.552-.763.671-.301 1.235-.886 1.692-1.753a7.63 7.63 0 0 0 .827-3.811l-.08-1.967 1.516-.063 1.707 41.35-12.19 1.037-.06-1.434c2.566-.818 4.438-1.723 5.615-2.715s2.01-2.19 2.499-3.592.675-3.552.556-6.448l-.508-12.254zm-4.514 108.431c-1.561 7.048-5.59 12.563-12.086 16.543s-13.748 5.084-21.758 3.312c-8.25-1.827-14.521-5.946-18.814-12.357s-5.622-13.315-3.984-20.71c1.654-7.475 5.701-13.167 12.141-17.077s13.875-4.931 22.313-3.063c8.623 1.909 15.008 6.403 19.153 13.482 3.596 6.145 4.608 12.768 3.035 19.87zm-2.755-1.408c1.076-4.859.137-9.156-2.817-12.89-3.675-4.651-9.838-7.933-18.488-9.848-8.863-1.963-16.104-1.578-21.722 1.156-4.275 2.105-6.942 5.548-8 10.328-1.129 5.099-.073 9.75 3.17 13.955s9.147 7.256 17.718 9.153c9.291 2.057 16.623 1.762 21.998-.885 4.281-2.134 6.995-5.79 8.141-10.969zM283.403 75.753l7.053-13.066 31.826-4.215 1.545-3.034.563-1.001.658-1.089-14.221-7.676c-3.08-1.663-5.174-2.359-6.283-2.087-1.553.343-2.822 1.429-3.81 3.257l-1.032 1.913-1.336-.721 11.319-20.97 1.335.721-.993 1.841c-1.116 2.069-1.242 3.913-.375 5.531.473.908 2.104 2.115 4.896 3.622l31.617 17.067c3.08 1.663 5.175 2.358 6.284 2.086 1.565-.366 2.849-1.476 3.849-3.329l.993-1.841 1.336.721-9.625 17.83c-2.805 5.197-5.252 8.824-7.342 10.883s-4.615 3.396-7.577 4.02-5.851.174-8.665-1.346c-3.009-1.623-5.09-4.014-6.245-7.169s-1.079-7.038.228-11.646l-19.495 2.526c-4.472.569-7.685 1.398-9.64 2.487s-3.797 2.891-5.527 5.406l-1.336-.721zm43.919-21.178a42.11 42.11 0 0 1-.661 1.181l-.467.82c-2.52 4.668-3.408 8.732-2.666 12.194s2.676 6.035 5.805 7.725c3.055 1.648 6.057 2.033 9.002 1.153s5.27-2.897 6.971-6.049c.753-1.396 1.544-3.408 2.373-6.036l-20.357-10.988zm-64.929 49.858 1.09 1.056-1.455 1.503c-1.636 1.688-2.257 3.41-1.861 5.163.23 1.06 1.473 2.684 3.732 4.872l25.805 25c2.494 2.416 4.322 3.654 5.482 3.713 1.606.072 3.143-.648 4.607-2.16l1.455-1.503 1.09 1.056-15.754 16.262c-5.783 5.969-10.861 9.854-15.231 11.654s-9.056 2.115-14.054.947-9.568-3.76-13.712-7.773c-5.558-5.385-8.565-11.574-9.024-18.566-.492-7.824 3.021-15.614 10.535-23.371l17.295-17.853zm-8.157 14.197c-2.966 1.961-5.267 3.785-6.903 5.475-4.414 4.557-6.477 9.888-6.187 15.994s3.175 11.813 8.653 17.121c5.52 5.346 11.324 8.059 17.417 8.137s11.422-2.241 15.988-6.954c1.712-1.768 3.378-4.058 4.996-6.866l-33.964-32.907z"/><path d="M-63.818-252.562c-19.585-1.521-41.695-1.418-41.695-1.418s-22.109-.103-41.694 1.418-24.345 10.941-24.345 10.941l-.07-2.382c-.74 1.438-.629 2.382-.629 2.382v3.042c0-7.719 29.88-13.976 66.739-13.976 34.152 0 62.293 5.373 66.246 12.302-.031-.349-.151-1.052-.589-1.984-1.452-2.117-7.416-9.04-23.963-10.325z" class="H"/><g transform="translate(-172.184 -257.824)"><linearGradient id="A" x1="266.249" x2="266.384" y1="291.175" y2="291.175" gradientUnits="userSpaceOnUse"><stop offset="0%" stop-color="#d09c32"/><stop offset="50%" stop-color="#feca7b"/><stop offset="51.8%" stop-color="#f8c575"/><stop offset="60%" stop-color="#e9b55c"/><stop offset="68.6%" stop-color="#dea948"/><stop offset="77.7%" stop-color="#d6a23b"/><stop offset="87.6%" stop-color="#d29d34"/><stop offset="100%" stop-color="#d09c32"/></linearGradient><path fill="url(#A)" d="m266.384 291.67-.103-.989c-.041.015-.074.424.103.989z" class="B C D" transform="translate(-266.316 -291.175)"/></g><g transform="translate(-38.842 -257.825)"><linearGradient id="B" x1="399.59" x2="399.726" y1="291.175" y2="291.175" gradientUnits="userSpaceOnUse"><stop offset="0%" stop-color="#d09c32"/><stop offset="50%" stop-color="#feca7b"/><stop offset="51.8%" stop-color="#f8c575"/><stop offset="60%" stop-color="#e9b55c"/><stop offset="68.6%" stop-color="#dea948"/><stop offset="77.7%" stop-color="#d6a23b"/><stop offset="87.6%" stop-color="#d29d34"/><stop offset="100%" stop-color="#d09c32"/></linearGradient><path fill="url(#B)" d="M399.693 290.681c-.029-.011-.063.361-.103.989.178-.565.145-.974.103-.989z" class="B C D" transform="translate(-399.658 -291.175)"/></g><g transform="translate(-105.513 -259.353)"><linearGradient id="C" x1="266.384" x2="399.59" y1="289.648" y2="289.648" gradientUnits="userSpaceOnUse"><stop offset="0%" stop-color="#d09c32"/><stop offset="50%" stop-color="#feca7b"/><stop offset="51.8%" stop-color="#f8c575"/><stop offset="60%" stop-color="#e9b55c"/><stop offset="68.6%" stop-color="#dea948"/><stop offset="77.7%" stop-color="#d6a23b"/><stop offset="87.6%" stop-color="#d29d34"/><stop offset="100%" stop-color="#d09c32"/></linearGradient><path fill="url(#C)" d="M381.664 293.308c-18.253-5.324-7.985-20.345-7.985-20.345l-5.896-1.046s-.95 15.877-13.143 15.877-21.653-.951-21.653-5.895c0 4.944-9.461 5.895-21.653 5.895s-13.143-15.877-13.143-15.877l-5.895 1.046s10.268 15.021-7.986 20.345c-14.16 4.13-17.313.314-17.926-1.638.219 3.581.563 15.708.563 15.708s4.761-9.419 24.345-10.941 41.694-1.418 41.694-1.418 22.11-.103 41.695 1.418 24.345 10.941 24.345 10.941l.563-15.708c-.612 1.952-3.764 5.768-17.925 1.638z" class="B C D" transform="translate(-332.986 -289.647)"/></g><path d="M-119.951-253.822c7.581.276 14.438-.159 14.438-.159s-5.966-.027-14.438.159zm-19.764-5.686c-.928 7.745-18.086 7.211-20.642 8.83s-7.875 1.326-10.019 3.614-1.177 5.443-1.177 5.443 4.761-9.419 24.345-10.941c9.417-.731 19.411-1.086 27.257-1.259-8.831-.323-18.647-1.611-19.764-5.687zm34.203 5.527s6.856.436 14.438.159l-14.438-.159zm64.862 6.917c-2.143-2.289-7.462-1.996-10.018-3.614s-19.714-1.085-20.643-8.83c-1.117 4.077-10.933 5.365-19.764 5.687 7.846.173 17.84.528 27.256 1.259 19.585 1.521 24.345 10.941 24.345 10.941s.968-3.155-1.176-5.443z"/><g transform="translate(-105.511 -289.693)"><linearGradient id="D" x1="305.757" x2="360.217" y1="259.308" y2="259.308" gradientUnits="userSpaceOnUse"><stop offset="0%" stop-color="#d09c32"/><stop offset="50%" stop-color="#feca7b"/><stop offset="51.8%" stop-color="#f8c575"/><stop offset="60%" stop-color="#e9b55c"/><stop offset="68.6%" stop-color="#dea948"/><stop offset="77.7%" stop-color="#d6a23b"/><stop offset="87.6%" stop-color="#d29d34"/><stop offset="100%" stop-color="#d09c32"/></linearGradient><path fill="url(#D)" d="M348.959 265.547s10.268-3.423 9.507-9.127-14.831 0-14.831 0 10.269-8.746 8.937-12.929-13.119 0-13.119 0 2.661-14.831-6.466-14.831-6.465 14.831-6.465 14.831-11.788-4.183-13.12 0 8.938 12.929 8.938 12.929-14.071-5.704-14.831 0 9.507 9.127 9.507 9.127-13.864 4.01-10.821 10.094 14.244 1.314 14.244 1.314-3.803 12.169 1.521 12.93 11.028-4.944 11.028-4.944 5.705 5.704 11.029 4.944 1.521-12.93 1.521-12.93 11.201 4.77 14.244-1.314-10.823-10.094-10.823-10.094z" class="B C D" transform="translate(-332.988 -259.307)"/></g><g transform="translate(-105.513 -285.544)"><radialGradient id="E" cx="332.987" cy="263.456" r="7.035" fx="332.987" fy="263.456" gradientTransform="translate(-332.987 -263.456)" gradientUnits="userSpaceOnUse"><stop offset="0%" stop-color="#feca7b"/><stop offset="100%" stop-color="#d09c32"/></radialGradient><circle r="7.035" fill="url(#E)" class="B D"/></g><g transform="translate(-105.513 -304.463)"><linearGradient id="F" x1="332.987" x2="332.987" y1="244.536" y2="244.536" gradientUnits="userSpaceOnUse"><stop offset="0%" stop-color="#d09c32"/><stop offset="50%" stop-color="#feca7b"/><stop offset="51.8%" stop-color="#f8c575"/><stop offset="60%" stop-color="#e9b55c"/><stop offset="68.6%" stop-color="#dea948"/><stop offset="77.7%" stop-color="#d6a23b"/><stop offset="87.6%" stop-color="#d29d34"/><stop offset="100%" stop-color="#d09c32"/></linearGradient><path fill="url(#F)" d="M332.987 237.977v13.119" class="B C E F" transform="translate(-332.987 -244.536)"/></g><g transform="translate(-90.016 -277.083)"><linearGradient id="G" x1="342.114" x2="354.853" y1="271.917" y2="271.917" gradientUnits="userSpaceOnUse"><stop offset="0%" stop-color="#d09c32"/><stop offset="50%" stop-color="#feca7b"/><stop offset="51.8%" stop-color="#f8c575"/><stop offset="60%" stop-color="#e9b55c"/><stop offset="68.6%" stop-color="#dea948"/><stop offset="77.7%" stop-color="#d6a23b"/><stop offset="87.6%" stop-color="#d29d34"/><stop offset="100%" stop-color="#d09c32"/></linearGradient><path fill="url(#G)" d="m342.114 269.35 12.739 5.133" class="B C E F" transform="translate(-348.483 -271.916)"/></g><g transform="translate(-120.797 -277.083)"><linearGradient id="H" x1="311.334" x2="324.073" y1="271.917" y2="271.917" gradientUnits="userSpaceOnUse"><stop offset="0%" stop-color="#d09c32"/><stop offset="50%" stop-color="#feca7b"/><stop offset="51.8%" stop-color="#f8c575"/><stop offset="60%" stop-color="#e9b55c"/><stop offset="68.6%" stop-color="#dea948"/><stop offset="77.7%" stop-color="#d6a23b"/><stop offset="87.6%" stop-color="#d29d34"/><stop offset="100%" stop-color="#d09c32"/></linearGradient><path fill="url(#H)" d="m324.073 269.35-12.74 5.133" class="B C E F" transform="translate(-317.703 -271.916)"/></g><g transform="translate(-105.513 -269.288)"><linearGradient id="I" x1="332.987" x2="332.987" y1="279.712" y2="279.712" gradientUnits="userSpaceOnUse"><stop offset="0%" stop-color="#d09c32"/><stop offset="50%" stop-color="#feca7b"/><stop offset="51.8%" stop-color="#f8c575"/><stop offset="60%" stop-color="#e9b55c"/><stop offset="68.6%" stop-color="#dea948"/><stop offset="77.7%" stop-color="#d6a23b"/><stop offset="87.6%" stop-color="#d29d34"/><stop offset="100%" stop-color="#d09c32"/></linearGradient><path fill="url(#I)" d="M332.987 284.941v-10.458" class="B C D" transform="translate(-332.987 -279.712)"/></g><g transform="translate(-144.872 -282.502)"><radialGradient id="J" cx="293.628" cy="266.498" r="7.225" fx="293.628" fy="266.498" gradientTransform="translate(-293.628 -266.498)" gradientUnits="userSpaceOnUse"><stop offset="0%" stop-color="#feca7b"/><stop offset="36.1%" stop-color="#e9b55c"/><stop offset="78.1%" stop-color="#d7a23c"/><stop offset="100%" stop-color="#d09c32"/></radialGradient><circle r="7.225" fill="url(#J)" class="B D"/></g><g transform="translate(-66.153 -282.502)"><radialGradient id="K" cx="372.347" cy="266.498" r="7.225" fx="372.347" fy="266.498" gradientTransform="translate(-372.347 -266.498)" gradientUnits="userSpaceOnUse"><stop offset="0%" stop-color="#feca7b"/><stop offset="36.1%" stop-color="#e9b55c"/><stop offset="78.1%" stop-color="#d7a23c"/><stop offset="100%" stop-color="#d09c32"/></radialGradient><circle r="7.225" fill="url(#K)" class="B D"/></g><g transform="translate(-176.421 -280.105)"><linearGradient id="L" x1="247.548" x2="279.813" y1="272.243" y2="260.499" gradientUnits="userSpaceOnUse"><stop offset="0%" stop-color="#feca7b"/><stop offset="36.1%" stop-color="#e9b55c"/><stop offset="78.1%" stop-color="#d7a23c"/><stop offset="100%" stop-color="#d09c32"/></linearGradient><path fill="url(#L)" d="M256.74 254.471s7.415-10.6 12.739-4.706-6.711 17.549-6.711 17.549 12.036-11.085 16.789-5.19-5.704 10.648-5.704 10.648 13.562-1.296 12.93 9.316-12.561 3-12.561 3 3.094 6.946-1.038 9.65-10.106-.445-10.106-.445-18.738-52.316-25.724-50.059c15.868-8.682 19.386 10.237 19.386 10.237z" class="B C D" transform="translate(-262.079 -268.894)"/></g><g transform="translate(-182.676 -272.549)"><radialGradient id="M" cx="255.825" cy="276.45" r="6.824" fx="255.825" fy="276.45" gradientUnits="userSpaceOnUse"><stop offset="0%" stop-color="#feca7b"/><stop offset="100%" stop-color="#d09c32"/></radialGradient><path fill="url(#M)" d="M260.171 274.304c2.041 4.131 1.748 8.441-.653 9.627s-6.001-1.202-8.042-5.333-1.746-8.442.654-9.627 6.001 1.201 8.041 5.333z" class="B C D" transform="translate(-255.824 -276.451)"/></g><path d="m-173.298-271.409 12.834 2.121" class="B C E F G"/><g transform="translate(-35.526 -280.105)"><linearGradient id="N" x1="385.24" x2="417.505" y1="260.499" y2="272.242" gradientUnits="userSpaceOnUse"><stop offset="0%" stop-color="#d09c32"/><stop offset="22%" stop-color="#d7a23c"/><stop offset="63.9%" stop-color="#e9b55c"/><stop offset="100%" stop-color="#feca7b"/></linearGradient><path fill="url(#N)" d="M408.313 254.471s-7.415-10.6-12.739-4.706 6.711 17.549 6.711 17.549-12.035-11.085-16.789-5.19 5.704 10.648 5.704 10.648-13.562-1.296-12.93 9.316 12.561 3 12.561 3-3.094 6.946 1.038 9.65 10.106-.445 10.106-.445 18.738-52.316 25.724-50.059c-15.868-8.682-19.386 10.237-19.386 10.237z" class="B C D" transform="translate(-402.974 -268.894)"/></g><g transform="translate(-29.271 -272.549)"><radialGradient id="O" cx="409.229" cy="276.45" r="6.824" fx="409.229" fy="276.45" gradientUnits="userSpaceOnUse"><stop offset="0%" stop-color="#feca7b"/><stop offset="100%" stop-color="#d09c32"/></radialGradient><path fill="url(#O)" d="M404.881 274.304c-2.04 4.131-1.747 8.441.653 9.627s6.001-1.202 8.042-5.333 1.747-8.442-.654-9.627-6 1.201-8.041 5.333z" class="B C D" transform="translate(-409.229 -276.451)"/></g><path d="m-38.648-271.409-12.835 2.121" class="B C E F G"/><g transform="translate(-105.513 -234.12)"><linearGradient id="P" x1="267.249" x2="398.727" y1="314.879" y2="314.879" gradientUnits="userSpaceOnUse"><stop offset="0%" stop-color="#d09c32"/><stop offset="12.4%" stop-color="#d29d34"/><stop offset="22.3%" stop-color="#d6a23b"/><stop offset="31.4%" stop-color="#dea948"/><stop offset="40%" stop-color="#e9b55c"/><stop offset="48.2%" stop-color="#f8c575"/><stop offset="50%" stop-color="#feca7b"/><stop offset="51.8%" stop-color="#f8c575"/><stop offset="60%" stop-color="#e9b55c"/><stop offset="68.6%" stop-color="#dea948"/><stop offset="77.7%" stop-color="#d6a23b"/><stop offset="87.6%" stop-color="#d29d34"/><stop offset="100%" stop-color="#d09c32"/></linearGradient><path fill="url(#P)" d="M393.207 332.314c-6.098-7.669-33.89-11.771-60.22-11.771s-54.122 4.101-60.22 11.771l-5.182-20.669a.97.97 0 0 0-.074-.201c-.177-.357-.263-.691-.263-1.023 0-6.137 26.998-12.976 65.739-12.976s65.739 6.838 65.739 12.976c0 .332-.086.666-.263 1.021a.97.97 0 0 0-.075.203l-5.181 20.669z" transform="translate(-332.987 -314.879)"/></g><path d="M-105.512-250.555c17.693 0 34.308 1.438 46.782 4.051 14.204 2.975 17.957 6.484 17.957 7.925 0 .173-.052.362-.158.576a2.01 2.01 0 0 0-.15.405l-4.768 19.016c-8.339-7.159-34.131-10.874-59.665-10.874s-51.324 3.715-59.665 10.874l-4.767-19.016a1.98 1.98 0 0 0-.148-.402 1.317 1.317 0 0 1-.159-.579c0-1.44 3.753-4.95 17.958-7.925 12.475-2.613 29.089-4.051 46.783-4.051m0-2c-36.859 0-66.739 6.257-66.739 13.976 0 .496.128.985.367 1.467l5.924 23.631c0-7.718 27.063-13.976 60.447-13.976s60.447 6.257 60.447 13.976l5.925-23.631c.24-.482.368-.972.368-1.467 0-7.719-29.88-13.976-66.739-13.976z"/><g class="B H I J"><ellipse cx="-132.743" cy="-239.15" rx="6.789" ry="6.845"/><ellipse cx="-76.841" cy="-239.15" rx="6.79" ry="6.845"/></g><g class="C B J"><path d="M-105.512-252.555v25.098" class="E G"/><path d="m-106.321-232.608-14.333-6.684 14.333-6.685 14.333 6.685zm-51.564 5.819-13.132-.668 9.746-10.426 13.132.667zm104.994 0 13.132-.668-9.746-10.426-13.132.667z" class="H I"/></g><g transform="translate(-105.513 -213.481)"><linearGradient id="Q" x1="-60.447" x2="60.447" y1="0" y2="0" gradientUnits="userSpaceOnUse"><stop offset="0%" stop-color="#d09c32"/><stop offset="50%" stop-color="#feca7b"/><stop offset="51.8%" stop-color="#f8c575"/><stop offset="60%" stop-color="#e9b55c"/><stop offset="68.6%" stop-color="#dea948"/><stop offset="77.7%" stop-color="#d6a23b"/><stop offset="87.6%" stop-color="#d29d34"/><stop offset="100%" stop-color="#d09c32"/></linearGradient><ellipse fill="url(#Q)" class="B D" rx="60.447" ry="13.976"/></g><ellipse cx="-105.513" cy="-213.481" rx="48.53" ry="8.333"/><g transform="translate(-105.513 -212.481)"><radialGradient id="R" cx="332.987" cy="336.52" r="28.183" fx="332.987" fy="336.52" gradientTransform="matrix(1 0 0 .2 -332.987 -67.303)" gradientUnits="userSpaceOnUse"><stop offset="0%" stop-color="#feca7b"/><stop offset="18.5%" stop-color="#f7c473"/><stop offset="49.9%" stop-color="#e9b65d"/><stop offset="90.2%" stop-color="#d5a13a"/><stop offset="100%" stop-color="#d09c32"/></radialGradient><ellipse fill="url(#R)" rx="39.359" ry="6.275"/></g><path d="M146.559-252.562c-19.584-1.521-41.695-1.418-41.695-1.418s-22.109-.103-41.693 1.418-24.346 10.941-24.346 10.941l-.07-2.382c-.74 1.438-.629 2.382-.629 2.382v3.042c0-7.719 29.881-13.976 66.74-13.976 34.152 0 62.293 5.373 66.246 12.302-.031-.349-.152-1.052-.59-1.984-1.451-2.117-7.416-9.04-23.963-10.325z" class="H"/><g transform="translate(38.194 -257.824)"><linearGradient id="S" x1="476.627" x2="476.762" y1="291.175" y2="291.175" gradientUnits="userSpaceOnUse"><stop offset="0%" stop-color="#d09c32"/><stop offset="50%" stop-color="#feca7b"/><stop offset="51.8%" stop-color="#f8c575"/><stop offset="60%" stop-color="#e9b55c"/><stop offset="68.6%" stop-color="#dea948"/><stop offset="77.7%" stop-color="#d6a23b"/><stop offset="87.6%" stop-color="#d29d34"/><stop offset="100%" stop-color="#d09c32"/></linearGradient><path fill="url(#S)" d="m476.762 291.67-.104-.989c-.04.015-.074.424.104.989z" class="B C D" transform="translate(-476.694 -291.175)"/></g><g transform="translate(171.535 -257.825)"><linearGradient id="T" x1="609.967" x2="610.103" y1="291.175" y2="291.175" gradientUnits="userSpaceOnUse"><stop offset="0%" stop-color="#d09c32"/><stop offset="50%" stop-color="#feca7b"/><stop offset="51.8%" stop-color="#f8c575"/><stop offset="60%" stop-color="#e9b55c"/><stop offset="68.6%" stop-color="#dea948"/><stop offset="77.7%" stop-color="#d6a23b"/><stop offset="87.6%" stop-color="#d29d34"/><stop offset="100%" stop-color="#d09c32"/></linearGradient><path fill="url(#T)" d="M610.071 290.681c-.029-.011-.064.361-.104.989.178-.565.145-.974.104-.989z" class="B C D" transform="translate(-610.035 -291.175)"/></g><g transform="translate(104.865 -259.353)"><linearGradient id="U" x1="476.762" x2="609.967" y1="289.648" y2="289.648" gradientUnits="userSpaceOnUse"><stop offset="0%" stop-color="#d09c32"/><stop offset="50%" stop-color="#feca7b"/><stop offset="51.8%" stop-color="#f8c575"/><stop offset="60%" stop-color="#e9b55c"/><stop offset="68.6%" stop-color="#dea948"/><stop offset="77.7%" stop-color="#d6a23b"/><stop offset="87.6%" stop-color="#d29d34"/><stop offset="100%" stop-color="#d09c32"/></linearGradient><path fill="url(#U)" d="M592.042 293.308c-18.254-5.324-7.986-20.345-7.986-20.345l-5.895-1.046s-.951 15.877-13.143 15.877-21.654-.951-21.654-5.895c0 4.944-9.461 5.895-21.652 5.895s-13.143-15.877-13.143-15.877l-5.895 1.046s10.268 15.021-7.986 20.345c-14.16 4.13-17.313.314-17.926-1.638.219 3.581.563 15.708.563 15.708s4.762-9.419 24.346-10.941 41.693-1.418 41.693-1.418 22.111-.103 41.695 1.418 24.346 10.941 24.346 10.941l.563-15.708c-.614 1.952-3.766 5.768-17.926 1.638z" class="B C D" transform="translate(-543.365 -289.647)"/></g><path d="M90.426-253.822c7.582.276 14.438-.159 14.438-.159s-5.965-.027-14.438.159zm-19.763-5.686c-.928 7.745-18.086 7.211-20.643 8.83s-7.875 1.326-10.018 3.614-1.178 5.443-1.178 5.443 4.762-9.419 24.346-10.941c9.416-.731 19.41-1.086 27.256-1.259-8.83-.323-18.646-1.611-19.763-5.687zm34.203 5.527a162.99 162.99 0 0 0 14.438.159l-14.438-.159zm64.861 6.917c-2.143-2.289-7.461-1.996-10.018-3.614s-19.713-1.085-20.643-8.83c-1.117 4.077-10.932 5.365-19.764 5.687 7.846.173 17.84.528 27.256 1.259 19.586 1.521 24.346 10.941 24.346 10.941s.968-3.155-1.177-5.443z"/><g transform="translate(104.865 -289.693)"><linearGradient id="V" x1="516.134" x2="570.594" y1="259.308" y2="259.308" gradientUnits="userSpaceOnUse"><stop offset="0%" stop-color="#d09c32"/><stop offset="50%" stop-color="#feca7b"/><stop offset="51.8%" stop-color="#f8c575"/><stop offset="60%" stop-color="#e9b55c"/><stop offset="68.6%" stop-color="#dea948"/><stop offset="77.7%" stop-color="#d6a23b"/><stop offset="87.6%" stop-color="#d29d34"/><stop offset="100%" stop-color="#d09c32"/></linearGradient><path fill="url(#V)" d="M559.336 265.547s10.268-3.423 9.508-9.127-14.832 0-14.832 0 10.27-8.746 8.938-12.929-13.119 0-13.119 0 2.66-14.831-6.467-14.831-6.465 14.831-6.465 14.831-11.787-4.183-13.119 0 8.938 12.929 8.938 12.929-14.072-5.704-14.832 0 9.508 9.127 9.508 9.127-13.865 4.01-10.822 10.094 14.244 1.314 14.244 1.314-3.803 12.169 1.521 12.93 11.027-4.944 11.027-4.944 5.705 5.704 11.029 4.944 1.521-12.93 1.521-12.93 11.201 4.77 14.244-1.314-10.822-10.094-10.822-10.094z" class="B C D" transform="translate(-543.365 -259.307)"/></g><g transform="translate(104.864 -285.544)"><radialGradient id="W" cx="543.364" cy="263.456" r="7.035" fx="543.364" fy="263.456" gradientTransform="translate(-543.364 -263.456)" gradientUnits="userSpaceOnUse"><stop offset="0%" stop-color="#feca7b"/><stop offset="100%" stop-color="#d09c32"/></radialGradient><circle r="7.035" fill="url(#W)" class="B D"/></g><g transform="translate(104.864 -304.463)"><linearGradient id="X" x1="543.364" x2="543.364" y1="244.536" y2="244.536" gradientUnits="userSpaceOnUse"><stop offset="0%" stop-color="#d09c32"/><stop offset="50%" stop-color="#feca7b"/><stop offset="51.8%" stop-color="#f8c575"/><stop offset="60%" stop-color="#e9b55c"/><stop offset="68.6%" stop-color="#dea948"/><stop offset="77.7%" stop-color="#d6a23b"/><stop offset="87.6%" stop-color="#d29d34"/><stop offset="100%" stop-color="#d09c32"/></linearGradient><path fill="url(#X)" d="M543.364 237.977v13.119" class="B C E F" transform="translate(-543.364 -244.536)"/></g><g transform="translate(120.361 -277.083)"><linearGradient id="Y" x1="552.491" x2="565.231" y1="271.917" y2="271.917" gradientUnits="userSpaceOnUse"><stop offset="0%" stop-color="#d09c32"/><stop offset="50%" stop-color="#feca7b"/><stop offset="51.8%" stop-color="#f8c575"/><stop offset="60%" stop-color="#e9b55c"/><stop offset="68.6%" stop-color="#dea948"/><stop offset="77.7%" stop-color="#d6a23b"/><stop offset="87.6%" stop-color="#d29d34"/><stop offset="100%" stop-color="#d09c32"/></linearGradient><path fill="url(#Y)" d="m552.491 269.35 12.74 5.133" class="B C E F" transform="translate(-558.861 -271.916)"/></g><g transform="translate(89.581 -277.083)"><linearGradient id="Z" x1="521.711" x2="534.45" y1="271.917" y2="271.917" gradientUnits="userSpaceOnUse"><stop offset="0%" stop-color="#d09c32"/><stop offset="50%" stop-color="#feca7b"/><stop offset="51.8%" stop-color="#f8c575"/><stop offset="60%" stop-color="#e9b55c"/><stop offset="68.6%" stop-color="#dea948"/><stop offset="77.7%" stop-color="#d6a23b"/><stop offset="87.6%" stop-color="#d29d34"/><stop offset="100%" stop-color="#d09c32"/></linearGradient><path fill="url(#Z)" d="m534.45 269.35-12.739 5.133" class="B C E F" transform="translate(-528.08 -271.916)"/></g><g transform="translate(104.864 -269.288)"><linearGradient id="a" x1="543.364" x2="543.364" y1="279.712" y2="279.712" gradientUnits="userSpaceOnUse"><stop offset="0%" stop-color="#d09c32"/><stop offset="50%" stop-color="#feca7b"/><stop offset="51.8%" stop-color="#f8c575"/><stop offset="60%" stop-color="#e9b55c"/><stop offset="68.6%" stop-color="#dea948"/><stop offset="77.7%" stop-color="#d6a23b"/><stop offset="87.6%" stop-color="#d29d34"/><stop offset="100%" stop-color="#d09c32"/></linearGradient><path fill="url(#a)" d="M543.364 284.941v-10.458" class="B C D" transform="translate(-543.364 -279.712)"/></g><g transform="translate(65.505 -282.502)"><radialGradient id="b" cx="504.005" cy="266.498" r="7.225" fx="504.005" fy="266.498" gradientTransform="translate(-504.005 -266.498)" gradientUnits="userSpaceOnUse"><stop offset="0%" stop-color="#feca7b"/><stop offset="36.1%" stop-color="#e9b55c"/><stop offset="78.1%" stop-color="#d7a23c"/><stop offset="100%" stop-color="#d09c32"/></radialGradient><circle r="7.226" fill="url(#b)" class="B D"/></g><g transform="translate(144.224 -282.502)"><radialGradient id="c" cx="582.724" cy="266.498" r="7.225" fx="582.724" fy="266.498" gradientTransform="translate(-582.724 -266.498)" gradientUnits="userSpaceOnUse"><stop offset="0%" stop-color="#feca7b"/><stop offset="36.1%" stop-color="#e9b55c"/><stop offset="78.1%" stop-color="#d7a23c"/><stop offset="100%" stop-color="#d09c32"/></radialGradient><circle r="7.226" fill="url(#c)" class="B D"/></g><g transform="translate(33.957 -280.105)"><linearGradient id="d" x1="457.926" x2="490.19" y1="272.242" y2="260.499" gradientUnits="userSpaceOnUse"><stop offset="0%" stop-color="#feca7b"/><stop offset="36.1%" stop-color="#e9b55c"/><stop offset="78.1%" stop-color="#d7a23c"/><stop offset="100%" stop-color="#d09c32"/></linearGradient><path fill="url(#d)" d="M467.118 254.471s7.414-10.6 12.738-4.706-6.711 17.549-6.711 17.549 12.037-11.085 16.789-5.19-5.703 10.648-5.703 10.648 13.561-1.296 12.93 9.316-12.561 3-12.561 3 3.094 6.946-1.039 9.65-10.105-.445-10.105-.445-18.738-52.316-25.724-50.059c15.868-8.682 19.386 10.237 19.386 10.237z" class="B C D" transform="translate(-472.457 -268.894)"/></g><g transform="translate(27.702 -272.549)"><radialGradient id="e" cx="466.203" cy="276.45" r="6.824" fx="466.203" fy="276.45" gradientUnits="userSpaceOnUse"><stop offset="0%" stop-color="#feca7b"/><stop offset="100%" stop-color="#d09c32"/></radialGradient><path fill="url(#e)" d="M470.549 274.304c2.041 4.131 1.748 8.441-.654 9.627s-6-1.202-8.041-5.333-1.746-8.442.654-9.627 6 1.201 8.041 5.333z" class="B C D" transform="translate(-466.202 -276.451)"/></g><path d="m37.079-271.409 12.834 2.121" class="B C E F G"/><g transform="translate(174.851 -280.105)"><linearGradient id="f" x1="595.618" x2="627.883" y1="260.498" y2="272.242" gradientUnits="userSpaceOnUse"><stop offset="0%" stop-color="#d09c32"/><stop offset="22%" stop-color="#d7a23c"/><stop offset="63.9%" stop-color="#e9b55c"/><stop offset="100%" stop-color="#feca7b"/></linearGradient><path fill="url(#f)" d="M618.69 254.471s-7.414-10.6-12.738-4.706 6.711 17.549 6.711 17.549-12.035-11.085-16.789-5.19 5.703 10.648 5.703 10.648-13.561-1.296-12.93 9.316 12.561 3 12.561 3-3.094 6.946 1.039 9.65 10.105-.445 10.105-.445 18.738-52.316 25.725-50.059c-15.869-8.682-19.387 10.237-19.387 10.237z" class="B C D" transform="translate(-613.351 -268.894)"/></g><g transform="translate(181.106 -272.549)"><radialGradient id="g" cx="619.607" cy="276.45" r="6.824" fx="619.607" fy="276.45" gradientUnits="userSpaceOnUse"><stop offset="0%" stop-color="#feca7b"/><stop offset="100%" stop-color="#d09c32"/></radialGradient><path fill="url(#g)" d="M615.258 274.304c-2.039 4.131-1.746 8.441.654 9.627s6-1.202 8.041-5.333 1.748-8.442-.654-9.627-6 1.201-8.041 5.333z" class="B C D" transform="translate(-619.606 -276.451)"/></g><path d="m171.729-271.409-12.834 2.121" class="B C E F G"/><g transform="translate(104.863 -234.12)"><linearGradient id="h" x1="477.626" x2="609.104" y1="314.879" y2="314.879" gradientUnits="userSpaceOnUse"><stop offset="0%" stop-color="#d09c32"/><stop offset="12.4%" stop-color="#d29d34"/><stop offset="22.3%" stop-color="#d6a23b"/><stop offset="31.4%" stop-color="#dea948"/><stop offset="40%" stop-color="#e9b55c"/><stop offset="48.2%" stop-color="#f8c575"/><stop offset="50%" stop-color="#feca7b"/><stop offset="51.8%" stop-color="#f8c575"/><stop offset="60%" stop-color="#e9b55c"/><stop offset="68.6%" stop-color="#dea948"/><stop offset="77.7%" stop-color="#d6a23b"/><stop offset="87.6%" stop-color="#d29d34"/><stop offset="100%" stop-color="#d09c32"/></linearGradient><path fill="url(#h)" d="M603.583 332.314c-6.098-7.669-33.89-11.771-60.22-11.771s-54.122 4.101-60.22 11.771l-5.182-20.669a1.02 1.02 0 0 0-.073-.2c-.178-.359-.264-.694-.264-1.024 0-6.137 26.999-12.976 65.74-12.976s65.738 6.838 65.738 12.976c0 .333-.086.667-.263 1.021a.988.988 0 0 0-.074.203l-5.182 20.669z" transform="translate(-543.363 -314.879)"/></g><path d="M104.866-250.555c17.693 0 34.308 1.438 46.781 4.051 14.204 2.975 17.957 6.484 17.957 7.925a1.31 1.31 0 0 1-.157.576 1.95 1.95 0 0 0-.149.405l-4.769 19.016c-8.339-7.159-34.131-10.874-59.665-10.874S53.54-225.741 45.2-218.582l-4.767-19.016a2.01 2.01 0 0 0-.147-.399c-.107-.218-.16-.409-.16-.582 0-1.44 3.753-4.95 17.958-7.925 12.474-2.613 29.088-4.051 46.782-4.051m0-2c-36.859 0-66.74 6.257-66.74 13.976 0 .496.129.985.367 1.467l5.924 23.631c0-7.718 27.064-13.976 60.447-13.976s60.447 6.257 60.447 13.976l5.926-23.631c.24-.482.367-.972.367-1.467 0-7.719-29.879-13.976-66.738-13.976z"/><g class="B H I J"><ellipse cx="77.635" cy="-239.15" rx="6.789" ry="6.845"/><ellipse cx="133.537" cy="-239.15" rx="6.79" ry="6.845"/></g><g class="C B J"><path d="M104.866-252.555v25.098" class="E G"/><path d="m104.057-232.608-14.334-6.684 14.334-6.685 14.332 6.685zm-51.564 5.819-13.133-.668 9.746-10.426 13.133.667zm104.994 0 13.131-.668-9.746-10.426-13.131.667z" class="H I"/></g><ellipse fill="url(#Q)" class="B D" rx="60.447" ry="13.976" transform="translate(104.864 -213.481)"/><ellipse cx="104.865" cy="-213.481" rx="48.53" ry="8.333"/><g transform="translate(104.864 -212.481)"><radialGradient id="i" cx="543.364" cy="336.52" r="28.183" fx="543.364" fy="336.52" gradientTransform="matrix(1 0 0 .2 -543.364 -67.303)" gradientUnits="userSpaceOnUse"><stop offset="0%" stop-color="#feca7b"/><stop offset="18.5%" stop-color="#f7c473"/><stop offset="49.9%" stop-color="#e9b65d"/><stop offset="90.2%" stop-color="#d5a13a"/><stop offset="100%" stop-color="#d09c32"/></radialGradient><ellipse fill="url(#i)" rx="39.359" ry="6.275"/></g><path d="M43.883 101.516c-19.584-1.521-41.694-1.418-41.694-1.418s-22.109-.104-41.694 1.418-24.345 10.941-24.345 10.941l-.07-2.383c-.74 1.438-.629 2.383-.629 2.383v3.041c0-7.719 29.88-13.975 66.739-13.975 34.152 0 62.293 5.373 66.246 12.301-.031-.348-.152-1.051-.59-1.984-1.451-2.115-7.416-9.039-23.963-10.324z" class="H"/><g transform="translate(-64.482 96.254)"><linearGradient id="j" x1="373.951" x2="374.086" y1="645.253" y2="645.253" gradientUnits="userSpaceOnUse"><stop offset="0%" stop-color="#d09c32"/><stop offset="50%" stop-color="#feca7b"/><stop offset="51.8%" stop-color="#f8c575"/><stop offset="60%" stop-color="#e9b55c"/><stop offset="68.6%" stop-color="#dea948"/><stop offset="77.7%" stop-color="#d6a23b"/><stop offset="87.6%" stop-color="#d29d34"/><stop offset="100%" stop-color="#d09c32"/></linearGradient><path fill="url(#j)" d="m374.086 645.748-.103-.989c-.041.015-.074.425.103.989z" class="B C D" transform="translate(-374.018 -645.253)"/></g><g transform="translate(68.859 96.253)"><linearGradient id="k" x1="507.292" x2="507.427" y1="645.253" y2="645.253" gradientUnits="userSpaceOnUse"><stop offset="0%" stop-color="#d09c32"/><stop offset="50%" stop-color="#feca7b"/><stop offset="51.8%" stop-color="#f8c575"/><stop offset="60%" stop-color="#e9b55c"/><stop offset="68.6%" stop-color="#dea948"/><stop offset="77.7%" stop-color="#d6a23b"/><stop offset="87.6%" stop-color="#d29d34"/><stop offset="100%" stop-color="#d09c32"/></linearGradient><path fill="url(#k)" d="M507.395 644.759c-.029-.011-.064.36-.104.989.178-.564.145-.974.104-.989z" class="B C D" transform="translate(-507.359 -645.253)"/></g><g transform="translate(2.189 94.726)"><linearGradient id="l" x1="374.086" x2="507.292" y1="643.726" y2="643.726" gradientUnits="userSpaceOnUse"><stop offset="0%" stop-color="#d09c32"/><stop offset="50%" stop-color="#feca7b"/><stop offset="51.8%" stop-color="#f8c575"/><stop offset="60%" stop-color="#e9b55c"/><stop offset="68.6%" stop-color="#dea948"/><stop offset="77.7%" stop-color="#d6a23b"/><stop offset="87.6%" stop-color="#d29d34"/><stop offset="100%" stop-color="#d09c32"/></linearGradient><path fill="url(#l)" d="M489.366 647.386c-18.254-5.323-7.986-20.345-7.986-20.345l-5.895-1.047s-.951 15.877-13.143 15.877-21.653-.95-21.653-5.895c0 4.944-9.461 5.895-21.653 5.895s-13.143-15.877-13.143-15.877l-5.895 1.047s10.268 15.021-7.986 20.345c-14.16 4.13-17.313.313-17.926-1.638.219 3.58.563 15.709.563 15.709s4.761-9.42 24.345-10.941 41.694-1.418 41.694-1.418 22.11-.104 41.694 1.418 24.346 10.941 24.346 10.941l.563-15.709c-.613 1.951-3.765 5.768-17.925 1.638z" class="B C D" transform="translate(-440.688 -643.725)"/></g><path d="M-12.249 100.256c7.581.277 14.438-.158 14.438-.158s-5.966-.028-14.438.158zm-19.764-5.686c-.928 7.744-18.086 7.211-20.642 8.829s-7.875 1.325-10.019 3.614-1.177 5.443-1.177 5.443 4.761-9.42 24.345-10.941c9.417-.73 19.411-1.086 27.257-1.26-8.831-.32-18.647-1.609-19.764-5.685zm34.203 5.528a162.79 162.79 0 0 0 14.438.158l-14.438-.158zm64.861 6.916c-2.143-2.289-7.461-1.996-10.018-3.614s-19.713-1.085-20.643-8.829c-1.117 4.076-10.932 5.364-19.763 5.686 7.846.174 17.839.529 27.255 1.26 19.586 1.521 24.346 10.941 24.346 10.941s.968-3.156-1.177-5.444z"/><g transform="translate(2.192 64.385)"><linearGradient id="m" x1="413.46" x2="467.919" y1="613.386" y2="613.386" gradientUnits="userSpaceOnUse"><stop offset="0%" stop-color="#d09c32"/><stop offset="50%" stop-color="#feca7b"/><stop offset="51.8%" stop-color="#f8c575"/><stop offset="60%" stop-color="#e9b55c"/><stop offset="68.6%" stop-color="#dea948"/><stop offset="77.7%" stop-color="#d6a23b"/><stop offset="87.6%" stop-color="#d29d34"/><stop offset="100%" stop-color="#d09c32"/></linearGradient><path fill="url(#m)" d="M456.662 619.625s10.267-3.424 9.507-9.127-14.831 0-14.831 0 10.269-8.746 8.937-12.93-13.119 0-13.119 0 2.661-14.83-6.466-14.83-6.465 14.83-6.465 14.83-11.788-4.183-13.12 0 8.938 12.93 8.938 12.93-14.071-5.703-14.831 0 9.507 9.127 9.507 9.127-13.864 4.01-10.821 10.094 14.244 1.314 14.244 1.314-3.803 12.17 1.521 12.93 11.028-4.943 11.028-4.943 5.705 5.704 11.029 4.943 1.521-12.93 1.521-12.93 11.201 4.77 14.244-1.314-10.823-10.094-10.823-10.094z" class="B C D" transform="translate(-440.691 -613.385)"/></g><g transform="translate(2.189 68.533)"><radialGradient id="n" cx="440.689" cy="617.533" r="7.035" fx="440.689" fy="617.533" gradientTransform="translate(-440.689 -617.533)" gradientUnits="userSpaceOnUse"><stop offset="0%" stop-color="#feca7b"/><stop offset="100%" stop-color="#d09c32"/></radialGradient><circle r="7.035" fill="url(#n)" class="B D"/></g><g transform="translate(2.189 49.615)"><linearGradient id="o" x1="440.689" x2="440.689" y1="598.614" y2="598.614" gradientUnits="userSpaceOnUse"><stop offset="0%" stop-color="#d09c32"/><stop offset="50%" stop-color="#feca7b"/><stop offset="51.8%" stop-color="#f8c575"/><stop offset="60%" stop-color="#e9b55c"/><stop offset="68.6%" stop-color="#dea948"/><stop offset="77.7%" stop-color="#d6a23b"/><stop offset="87.6%" stop-color="#d29d34"/><stop offset="100%" stop-color="#d09c32"/></linearGradient><path fill="url(#o)" d="M440.689 592.055v13.119" class="B C E F" transform="translate(-440.689 -598.614)"/></g><g transform="translate(17.686 76.995)"><linearGradient id="p" x1="449.816" x2="462.555" y1="625.995" y2="625.995" gradientUnits="userSpaceOnUse"><stop offset="0%" stop-color="#d09c32"/><stop offset="50%" stop-color="#feca7b"/><stop offset="51.8%" stop-color="#f8c575"/><stop offset="60%" stop-color="#e9b55c"/><stop offset="68.6%" stop-color="#dea948"/><stop offset="77.7%" stop-color="#d6a23b"/><stop offset="87.6%" stop-color="#d29d34"/><stop offset="100%" stop-color="#d09c32"/></linearGradient><path fill="url(#p)" d="m449.816 623.428 12.739 5.134" class="B C E F" transform="translate(-456.185 -625.995)"/></g><g transform="translate(-13.094 76.995)"><linearGradient id="q" x1="419.036" x2="431.775" y1="625.995" y2="625.995" gradientUnits="userSpaceOnUse"><stop offset="0%" stop-color="#d09c32"/><stop offset="50%" stop-color="#feca7b"/><stop offset="51.8%" stop-color="#f8c575"/><stop offset="60%" stop-color="#e9b55c"/><stop offset="68.6%" stop-color="#dea948"/><stop offset="77.7%" stop-color="#d6a23b"/><stop offset="87.6%" stop-color="#d29d34"/><stop offset="100%" stop-color="#d09c32"/></linearGradient><path fill="url(#q)" d="m431.775 623.428-12.739 5.134" class="B C E F" transform="translate(-425.405 -625.995)"/></g><g transform="translate(2.189 84.791)"><linearGradient id="r" x1="440.689" x2="440.689" y1="633.79" y2="633.79" gradientUnits="userSpaceOnUse"><stop offset="0%" stop-color="#d09c32"/><stop offset="50%" stop-color="#feca7b"/><stop offset="51.8%" stop-color="#f8c575"/><stop offset="60%" stop-color="#e9b55c"/><stop offset="68.6%" stop-color="#dea948"/><stop offset="77.7%" stop-color="#d6a23b"/><stop offset="87.6%" stop-color="#d29d34"/><stop offset="100%" stop-color="#d09c32"/></linearGradient><path fill="url(#r)" d="M440.689 639.02v-10.458" class="B C D" transform="translate(-440.689 -633.791)"/></g><g transform="translate(-37.17 71.576)"><radialGradient id="s" cx="401.33" cy="620.575" r="7.225" fx="401.33" fy="620.575" gradientTransform="translate(-401.33 -620.576)" gradientUnits="userSpaceOnUse"><stop offset="0%" stop-color="#feca7b"/><stop offset="36.1%" stop-color="#e9b55c"/><stop offset="78.1%" stop-color="#d7a23c"/><stop offset="100%" stop-color="#d09c32"/></radialGradient><circle r="7.225" fill="url(#s)" class="B D"/></g><g transform="translate(41.548 71.576)"><radialGradient id="t" cx="480.048" cy="620.575" r="7.226" fx="480.048" fy="620.575" gradientTransform="translate(-480.048 -620.576)" gradientUnits="userSpaceOnUse"><stop offset="0%" stop-color="#feca7b"/><stop offset="36.1%" stop-color="#e9b55c"/><stop offset="78.1%" stop-color="#d7a23c"/><stop offset="100%" stop-color="#d09c32"/></radialGradient><circle r="7.226" fill="url(#t)" class="B D"/></g><g transform="translate(-68.719 73.973)"><linearGradient id="u" x1="355.25" x2="387.514" y1="626.32" y2="614.577" gradientUnits="userSpaceOnUse"><stop offset="0%" stop-color="#feca7b"/><stop offset="36.1%" stop-color="#e9b55c"/><stop offset="78.1%" stop-color="#d7a23c"/><stop offset="100%" stop-color="#d09c32"/></linearGradient><path fill="url(#u)" d="M364.442 608.549s7.415-10.6 12.739-4.705-6.711 17.549-6.711 17.549 12.036-11.085 16.789-5.19-5.704 10.648-5.704 10.648 13.562-1.296 12.93 9.316-12.561 3-12.561 3 3.094 6.946-1.038 9.65-10.106-.445-10.106-.445-18.738-52.315-25.724-50.06c15.868-8.681 19.386 10.237 19.386 10.237z" class="B C D" transform="translate(-369.781 -622.973)"/></g><g transform="translate(-74.973 81.529)"><radialGradient id="v" cx="363.527" cy="630.528" r="6.824" fx="363.527" fy="630.528" gradientUnits="userSpaceOnUse"><stop offset="0%" stop-color="#feca7b"/><stop offset="100%" stop-color="#d09c32"/></radialGradient><path fill="url(#v)" d="M367.874 628.382c2.041 4.131 1.748 8.441-.653 9.627s-6.001-1.202-8.042-5.333-1.746-8.441.654-9.627 6 1.201 8.041 5.333z" class="B C D" transform="translate(-363.527 -630.529)"/></g><path d="m-65.596 82.67 12.834 2.12" class="B C E F G"/><g transform="translate(72.175 73.973)"><linearGradient id="w" x1="492.942" x2="525.207" y1="614.576" y2="626.32" gradientUnits="userSpaceOnUse"><stop offset="0%" stop-color="#d09c32"/><stop offset="22%" stop-color="#d7a23c"/><stop offset="63.9%" stop-color="#e9b55c"/><stop offset="100%" stop-color="#feca7b"/></linearGradient><path fill="url(#w)" d="M516.014 608.549s-7.414-10.6-12.738-4.705 6.711 17.549 6.711 17.549-12.035-11.085-16.789-5.19 5.703 10.648 5.703 10.648-13.561-1.296-12.93 9.316 12.561 3 12.561 3-3.094 6.946 1.039 9.65 10.105-.445 10.105-.445 18.738-52.315 25.725-50.06c-15.869-8.681-19.387 10.237-19.387 10.237z" class="B C D" transform="translate(-510.675 -622.973)"/></g><g transform="translate(78.431 81.529)"><radialGradient id="x" cx="516.931" cy="630.528" r="6.824" fx="516.931" fy="630.528" gradientUnits="userSpaceOnUse"><stop offset="0%" stop-color="#feca7b"/><stop offset="100%" stop-color="#d09c32"/></radialGradient><path fill="url(#x)" d="M512.583 628.382c-2.039 4.131-1.746 8.441.654 9.627s6-1.202 8.041-5.333 1.748-8.441-.654-9.627-6 1.201-8.041 5.333z" class="B C D" transform="translate(-516.931 -630.529)"/></g><path d="m69.053 82.67-12.834 2.12" class="B C E F G"/><g transform="translate(2.19 119.959)"><linearGradient id="y" x1="374.951" x2="506.428" y1="668.958" y2="668.958" gradientUnits="userSpaceOnUse"><stop offset="0%" stop-color="#d09c32"/><stop offset="12.4%" stop-color="#d29d34"/><stop offset="22.3%" stop-color="#d6a23b"/><stop offset="31.4%" stop-color="#dea948"/><stop offset="40%" stop-color="#e9b55c"/><stop offset="48.2%" stop-color="#f8c575"/><stop offset="50%" stop-color="#feca7b"/><stop offset="51.8%" stop-color="#f8c575"/><stop offset="60%" stop-color="#e9b55c"/><stop offset="68.6%" stop-color="#dea948"/><stop offset="77.7%" stop-color="#d6a23b"/><stop offset="87.6%" stop-color="#d29d34"/><stop offset="100%" stop-color="#d09c32"/></linearGradient><path fill="url(#y)" d="M500.908 686.393c-6.098-7.67-33.889-11.771-60.219-11.771s-54.122 4.102-60.22 11.771l-5.181-20.67a1.03 1.03 0 0 0-.074-.201 2.27 2.27 0 0 1-.263-1.023c0-6.137 26.998-12.975 65.739-12.975s65.738 6.838 65.738 12.975a2.26 2.26 0 0 1-.263 1.022.96.96 0 0 0-.074.202l-5.183 20.67z" transform="translate(-440.689 -668.958)"/></g><path d="M2.19 103.523c17.693 0 34.308 1.438 46.781 4.051 14.204 2.974 17.957 6.483 17.957 7.924a1.31 1.31 0 0 1-.157.576 1.95 1.95 0 0 0-.149.405l-4.769 19.016c-8.339-7.159-34.131-10.874-59.664-10.874s-51.324 3.716-59.665 10.874l-4.767-19.016a2 2 0 0 0-.148-.402 1.317 1.317 0 0 1-.159-.579c0-1.44 3.753-4.95 17.957-7.924 12.475-2.612 29.089-4.051 46.783-4.051m0-2c-36.859 0-66.739 6.256-66.739 13.975a3.29 3.29 0 0 0 .367 1.468l5.924 23.632c0-7.719 27.063-13.977 60.447-13.977s60.446 6.258 60.446 13.977l5.926-23.632c.24-.482.367-.972.367-1.468 0-7.719-29.879-13.975-66.738-13.975z"/><g class="B H I J"><ellipse cx="-25.041" cy="114.928" rx="6.789" ry="6.846"/><ellipse cx="30.861" cy="114.928" rx="6.79" ry="6.846"/></g><g class="C B J"><path d="M2.19 101.523v25.098" class="E G"/><path d="m1.381 121.47-14.333-6.685 14.333-6.683 14.333 6.683zm-51.564 5.819-13.132-.668 9.746-10.426 13.132.667zm104.994 0 13.131-.668-9.746-10.426-13.131.667z" class="H I"/></g><g transform="translate(2.188 140.598)"><linearGradient id="z" x1="-60.446" x2="60.447" y1="-.001" y2="-.001" gradientUnits="userSpaceOnUse"><stop offset="0%" stop-color="#d09c32"/><stop offset="50%" stop-color="#feca7b"/><stop offset="51.8%" stop-color="#f8c575"/><stop offset="60%" stop-color="#e9b55c"/><stop offset="68.6%" stop-color="#dea948"/><stop offset="77.7%" stop-color="#d6a23b"/><stop offset="87.6%" stop-color="#d29d34"/><stop offset="100%" stop-color="#d09c32"/></linearGradient><ellipse fill="url(#z)" class="B D" rx="60.447" ry="13.975"/></g><ellipse cx="2.189" cy="140.598" rx="48.53" ry="8.333"/><g transform="translate(2.188 141.598)"><radialGradient id="AA" cx="440.689" cy="690.597" r="28.183" fx="440.689" fy="690.597" gradientTransform="matrix(1 0 0 .2 -440.688 -138.121)" gradientUnits="userSpaceOnUse"><stop offset="0%" stop-color="#feca7b"/><stop offset="18.5%" stop-color="#f7c473"/><stop offset="49.9%" stop-color="#e9b65d"/><stop offset="90.2%" stop-color="#d5a13a"/><stop offset="100%" stop-color="#d09c32"/></radialGradient><ellipse fill="url(#AA)" rx="39.359" ry="6.274"/></g><g transform="translate(-181.714 -84.061)"><linearGradient id="AB" x1="241.294" x2="272.277" y1="464.94" y2="464.94" gradientUnits="userSpaceOnUse"><stop offset="0%" stop-color="#d09c32"/><stop offset="12.4%" stop-color="#d29d34"/><stop offset="22.3%" stop-color="#d6a23b"/><stop offset="31.4%" stop-color="#dea948"/><stop offset="40%" stop-color="#e9b55c"/><stop offset="48.2%" stop-color="#f8c575"/><stop offset="50%" stop-color="#feca7b"/><stop offset="51.8%" stop-color="#f8c575"/><stop offset="60%" stop-color="#e9b55c"/><stop offset="68.6%" stop-color="#dea948"/><stop offset="77.7%" stop-color="#d6a23b"/><stop offset="87.6%" stop-color="#d29d34"/><stop offset="100%" stop-color="#d09c32"/></linearGradient><path fill="url(#AB)" d="M272.277 469.678c-9.263 1.402-22.126 2.628-30.983 2.969v-15.416c8.856.414 21.72 1.643 30.983 2.979v9.468z" class="B C K" transform="translate(-256.785 -464.939)"/></g><g transform="translate(-179.694 -110.661)"><linearGradient id="AC" x1="241.233" x2="276.376" y1="438.34" y2="438.34" gradientUnits="userSpaceOnUse"><stop offset="0%" stop-color="#d09c32"/><stop offset="12.4%" stop-color="#d29d34"/><stop offset="22.3%" stop-color="#d6a23b"/><stop offset="31.4%" stop-color="#dea948"/><stop offset="40%" stop-color="#e9b55c"/><stop offset="48.2%" stop-color="#f8c575"/><stop offset="50%" stop-color="#feca7b"/><stop offset="51.8%" stop-color="#f8c575"/><stop offset="60%" stop-color="#e9b55c"/><stop offset="68.6%" stop-color="#dea948"/><stop offset="77.7%" stop-color="#d6a23b"/><stop offset="87.6%" stop-color="#d29d34"/><stop offset="100%" stop-color="#d09c32"/></linearGradient><path fill="url(#AC)" d="M275.438 447.482c-9.303-2.79-24.287-4.193-34.204-3.317l1.039-14.187c10.252-1.922 25.204-.221 34.104 4.211l-.939 13.293z" class="B C K" transform="translate(-258.805 -438.339)"/></g><g transform="translate(-181.642 -133.954)"><linearGradient id="AD" x1="238.634" x2="275.079" y1="415.046" y2="415.046" gradientUnits="userSpaceOnUse"><stop offset="0%" stop-color="#d09c32"/><stop offset="12.4%" stop-color="#d29d34"/><stop offset="22.3%" stop-color="#d6a23b"/><stop offset="31.4%" stop-color="#dea948"/><stop offset="40%" stop-color="#e9b55c"/><stop offset="48.2%" stop-color="#f8c575"/><stop offset="50%" stop-color="#feca7b"/><stop offset="51.8%" stop-color="#f8c575"/><stop offset="60%" stop-color="#e9b55c"/><stop offset="68.6%" stop-color="#dea948"/><stop offset="77.7%" stop-color="#d6a23b"/><stop offset="87.6%" stop-color="#d29d34"/><stop offset="100%" stop-color="#d09c32"/></linearGradient><path fill="url(#AD)" d="M271.013 427.484c-10.151-6.591-23.971-10.84-32.378-9.636l3.873-15.142c9.759-.902 23.643 4.507 32.572 13.117l-4.067 11.661z" class="B C K" transform="translate(-256.858 -415.046)"/></g><g transform="translate(-181.644 -161.68)"><linearGradient id="AE" x1="238.679" x2="275.032" y1="387.32" y2="387.32" gradientUnits="userSpaceOnUse"><stop offset="0%" stop-color="#d09c32"/><stop offset="12.4%" stop-color="#d29d34"/><stop offset="22.3%" stop-color="#d6a23b"/><stop offset="31.4%" stop-color="#dea948"/><stop offset="40%" stop-color="#e9b55c"/><stop offset="48.2%" stop-color="#f8c575"/><stop offset="50%" stop-color="#feca7b"/><stop offset="51.8%" stop-color="#f8c575"/><stop offset="60%" stop-color="#e9b55c"/><stop offset="68.6%" stop-color="#dea948"/><stop offset="77.7%" stop-color="#d6a23b"/><stop offset="87.6%" stop-color="#d29d34"/><stop offset="100%" stop-color="#d09c32"/></linearGradient><path fill="url(#AE)" d="M269.512 401.417c-9.958-9.024-22.83-14.136-30.833-11.605a296.79 296.79 0 0 1 5.274-16.543c9.628-.701 22.581 6.735 31.079 18.579-1.685 2.775-3.546 6.004-5.52 9.569z" class="B C K" transform="translate(-256.855 -387.32)"/></g><g transform="translate(-179.545 -58.354)"><linearGradient id="AF" x1="241.393" x2="276.518" y1="490.647" y2="490.647" gradientUnits="userSpaceOnUse"><stop offset="0%" stop-color="#d09c32"/><stop offset="12.4%" stop-color="#d29d34"/><stop offset="22.3%" stop-color="#d6a23b"/><stop offset="31.4%" stop-color="#dea948"/><stop offset="40%" stop-color="#e9b55c"/><stop offset="48.2%" stop-color="#f8c575"/><stop offset="50%" stop-color="#feca7b"/><stop offset="51.8%" stop-color="#f8c575"/><stop offset="60%" stop-color="#e9b55c"/><stop offset="68.6%" stop-color="#dea948"/><stop offset="77.7%" stop-color="#d6a23b"/><stop offset="87.6%" stop-color="#d29d34"/><stop offset="100%" stop-color="#d09c32"/></linearGradient><path fill="url(#AF)" d="M275.586 481.48c-9.242 2.807-24.223 4.229-34.194 3.376l1.044 14.204c10.302 1.885 25.246.149 34.081-4.313l-.931-13.267z" class="B C K" transform="translate(-258.954 -490.646)"/></g><g transform="translate(-181.497 -35.041)"><linearGradient id="AG" x1="238.777" x2="275.229" y1="513.959" y2="513.959" gradientUnits="userSpaceOnUse"><stop offset="0%" stop-color="#d09c32"/><stop offset="12.4%" stop-color="#d29d34"/><stop offset="22.3%" stop-color="#d6a23b"/><stop offset="31.4%" stop-color="#dea948"/><stop offset="40%" stop-color="#e9b55c"/><stop offset="48.2%" stop-color="#f8c575"/><stop offset="50%" stop-color="#feca7b"/><stop offset="51.8%" stop-color="#f8c575"/><stop offset="60%" stop-color="#e9b55c"/><stop offset="68.6%" stop-color="#dea948"/><stop offset="77.7%" stop-color="#d6a23b"/><stop offset="87.6%" stop-color="#d29d34"/><stop offset="100%" stop-color="#d09c32"/></linearGradient><path fill="url(#AG)" d="M271.183 501.465c-10.109 6.623-23.938 10.914-32.406 9.763l3.895 15.14c9.805.837 23.684-4.626 32.557-13.279l-4.046-11.624z" class="B C K" transform="translate(-257.003 -513.959)"/></g><g transform="translate(-181.498 -7.313)"><linearGradient id="AH" x1="238.821" x2="275.182" y1="541.688" y2="541.688" gradientUnits="userSpaceOnUse"><stop offset="0%" stop-color="#d09c32"/><stop offset="12.4%" stop-color="#d29d34"/><stop offset="22.3%" stop-color="#d6a23b"/><stop offset="31.4%" stop-color="#dea948"/><stop offset="40%" stop-color="#e9b55c"/><stop offset="48.2%" stop-color="#f8c575"/><stop offset="50%" stop-color="#feca7b"/><stop offset="51.8%" stop-color="#f8c575"/><stop offset="60%" stop-color="#e9b55c"/><stop offset="68.6%" stop-color="#dea948"/><stop offset="77.7%" stop-color="#d6a23b"/><stop offset="87.6%" stop-color="#d29d34"/><stop offset="100%" stop-color="#d09c32"/></linearGradient><path fill="url(#AH)" d="M269.688 527.51c-9.923 9.076-22.806 14.255-30.867 11.805a298.16 298.16 0 0 0 5.304 16.514c9.667.611 22.613-6.9 31.057-18.803a279.8 279.8 0 0 1-5.494-9.516z" class="B C K" transform="translate(-257.002 -541.687)"/></g><g class="B H K"><ellipse cx="-203.07" cy="-166.254" rx="11" ry="11.163"/><ellipse cx="-203.07" cy="-139.075" rx="11" ry="11.163"/><ellipse cx="-203.07" cy="-111.896" rx="11" ry="11.163"/><ellipse cx="-203.07" cy="-84.715" rx="11" ry="11.164"/><ellipse cx="-203.07" cy="-57.536" rx="11" ry="11.164"/><ellipse cx="-203.07" cy="-30.356" rx="11" ry="11.164"/><ellipse cx="-203.07" cy="-1.235" rx="11" ry="11.163"/></g><g transform="translate(.054 -86.05)"><linearGradient id="AI" x1="265.202" x2="611.905" y1="462.95" y2="462.95" gradientUnits="userSpaceOnUse"><stop offset="0%" stop-color="#ed1f24"/><stop offset="9.4%" stop-color="#ee2525"/><stop offset="16.9%" stop-color="#ee3428"/><stop offset="23.8%" stop-color="#ef4730"/><stop offset="30.4%" stop-color="#f15e3e"/><stop offset="36.6%" stop-color="#f47852"/><stop offset="42.7%" stop-color="#f6936c"/><stop offset="48.5%" stop-color="#fab58e"/><stop offset="50%" stop-color="#fbbf99"/><stop offset="51.6%" stop-color="#fab58e"/><stop offset="57.3%" stop-color="#f6936c"/><stop offset="63.4%" stop-color="#f47852"/><stop offset="69.6%" stop-color="#f15e3e"/><stop offset="76.2%" stop-color="#ef4730"/><stop offset="83.1%" stop-color="#ee3428"/><stop offset="90.6%" stop-color="#ee2525"/><stop offset="100%" stop-color="#ed1f24"/></linearGradient><path fill="url(#AI)" stroke-width="6" d="M438.554 368.283H265.202v189.334h139.765c9.983 0 16.339-13.48 16.339-13.48s-1.519.083 17.249.083l17.248-.083s6.356 13.48 16.339 13.48h139.764V368.283H438.554z" class="B C" transform="translate(-438.554 -462.95)"/></g><g transform="translate(-81.4 -92.835)"><linearGradient id="AJ" x1="275.144" x2="439.055" y1="456.164" y2="456.164" gradientUnits="userSpaceOnUse"><stop offset="0%" stop-color="#d09c32"/><stop offset="12.4%" stop-color="#d29d34"/><stop offset="22.3%" stop-color="#d6a23b"/><stop offset="31.4%" stop-color="#dea948"/><stop offset="40%" stop-color="#e9b55c"/><stop offset="48.2%" stop-color="#f8c575"/><stop offset="50%" stop-color="#feca7b"/><stop offset="51.8%" stop-color="#f8c575"/><stop offset="60%" stop-color="#e9b55c"/><stop offset="68.6%" stop-color="#dea948"/><stop offset="77.7%" stop-color="#d6a23b"/><stop offset="87.6%" stop-color="#d29d34"/><stop offset="100%" stop-color="#d09c32"/></linearGradient><path fill="url(#AJ)" d="M417.95 552.471c-1.051-1.961-25.227-4.577-41.058-4.794s-38.558 1.089-101.748.293V379.442l30.613-19.584V525.67h133.298v26.802H417.95" class="B C D" transform="translate(-357.099 -456.165)"/></g><path d="M-9.712-7.938c-.955-4.283-22.942-9.992-37.34-10.467s-35.067 2.378-92.536.641v-165.865M-14.275-3.821c-.981-3.636-23.548-8.485-38.325-8.889s-35.99 2.02-94.974.545v-167.09M-17.318-.554c-1.009-2.645-24.219-6.171-39.417-6.464s-37.018 1.468-97.685.396v-167.69" class="B C D G"/><g transform="translate(81.741 -92.835)"><linearGradient id="AK" x1="438.285" x2="602.196" y1="456.164" y2="456.164" gradientUnits="userSpaceOnUse"><stop offset="0%" stop-color="#d09c32"/><stop offset="12.4%" stop-color="#d29d34"/><stop offset="22.3%" stop-color="#d6a23b"/><stop offset="31.4%" stop-color="#dea948"/><stop offset="40%" stop-color="#e9b55c"/><stop offset="48.2%" stop-color="#f8c575"/><stop offset="50%" stop-color="#feca7b"/><stop offset="51.8%" stop-color="#f8c575"/><stop offset="60%" stop-color="#e9b55c"/><stop offset="68.6%" stop-color="#dea948"/><stop offset="77.7%" stop-color="#d6a23b"/><stop offset="87.6%" stop-color="#d29d34"/><stop offset="100%" stop-color="#d09c32"/></linearGradient><path fill="url(#AK)" d="M459.39 552.471c1.052-1.961 25.228-4.577 41.06-4.794s38.557 1.089 101.746.293V379.442l-30.613-19.584V525.67H438.285v26.802h21.105" class="B C D" transform="translate(-520.24 -456.165)"/></g><path d="M10.052-7.938c.956-4.283 22.944-9.992 37.341-10.467s35.066 2.378 92.535.641v-165.865M14.616-3.821c.982-3.636 23.547-8.485 38.324-8.889s35.99 2.02 94.975.545v-167.09M17.66-.554c1.007-2.645 24.218-6.171 39.417-6.464s37.018 1.468 97.682.396v-167.69" class="B C D G"/><g transform="translate(.054 -100.88)"><radialGradient id="AL" cx="438.553" cy="448.121" r="112.75" fx="438.553" fy="448.121" gradientUnits="userSpaceOnUse"><stop offset="0%" stop-color="#fff"/><stop offset="54.6%" stop-color="#fcfbfa"/><stop offset="74.2%" stop-color="#f3f1ef"/><stop offset="88.2%" stop-color="#e7e3e1"/><stop offset="99.4%" stop-color="#d8d1ce"/><stop offset="100%" stop-color="#d7cfcd"/></radialGradient><path fill="url(#AL)" d="M534.042 365.371c-19.584 0-30.992-4.563-48.297-4.563-15.98 0-43.133 6.484-47.19 7.475-4.058-.991-31.212-7.475-47.193-7.475-17.303 0-28.712 4.563-48.297 4.563s-37.307-5.514-37.307-5.514v165.812c58.983 2.083 80.197-1.339 94.974-.769 13.222.51 37.563 11.84 37.823 11.475.259.365 24.6-10.965 37.821-11.475 14.777-.57 35.99 2.852 94.973.769V359.857c-.001 0-17.722 5.514-37.307 5.514z" class="B C D" transform="translate(-438.553 -448.12)"/></g><g class="B"><path d="M.054-180.717v168.092" class="C D G"/><ellipse cx="3.425" cy="-3.635" fill="#ef3b39" class="I" rx="21.162" ry="11.358"/></g><path d="M-123.566-134.687v-.862h.867c.758 0 1.339-.144 1.744-.431a2.51 2.51 0 0 0 .896-1.176c.116-.326.173-1.305.173-2.936v-20.78c0-1.615-.07-2.625-.212-3.029s-.427-.757-.857-1.06-1.012-.454-1.744-.454h-.867v-.862h11.697c3.122 0 5.633.512 7.535 1.538 2.325 1.258 4.088 3.161 5.29 5.708s1.802 5.428 1.802 8.643c0 2.221-.295 4.267-.886 6.139s-1.355 3.417-2.293 4.636-2.021 2.198-3.247 2.936-2.727 1.309-4.5 1.712c-.784.187-2.017.28-3.7.28h-11.698zm9.962-29.795v24.647c0 1.305.051 2.104.154 2.399s.276.521.52.676c.347.233.848.349 1.503.349 2.145 0 3.783-.885 4.914-2.656 1.542-2.391 2.313-6.104 2.313-11.135 0-4.054-.527-7.292-1.58-9.714-.835-1.895-1.908-3.184-3.218-3.867-.925-.482-2.46-.715-4.606-.699zm33.261-2.237c4.163-.186 7.544 1.281 10.146 4.403s3.902 7.028 3.902 11.718c0 4.007-.97 7.533-2.91 10.576-2.569 4.039-6.199 6.057-10.888 6.057-4.702 0-8.337-1.926-10.907-5.777-2.03-3.044-3.045-6.655-3.045-10.833 0-4.69 1.32-8.6 3.96-11.73s5.888-4.6 9.742-4.414zm.231 1.491c-2.39 0-4.208 1.476-5.454 4.426-1.015 2.423-1.522 5.902-1.522 10.437 0 5.389.784 9.373 2.351 11.951 1.092 1.802 2.621 2.703 4.586 2.703 1.323 0 2.428-.388 3.314-1.165 1.13-.994 2.01-2.582 2.64-4.764s.944-5.028.944-8.538c0-4.178-.321-7.304-.963-9.377s-1.461-3.537-2.457-4.391-2.141-1.282-3.439-1.282zm34.031 19.779 7.092-20.827h10.637v.862h-.848c-.771 0-1.388.163-1.85.489-.321.218-.578.583-.771 1.095-.142.373-.212 1.344-.212 2.912v20.827c0 1.616.07 2.625.212 3.029s.43.757.867 1.06 1.021.455 1.753.455h.848v.862h-13.643v-.862h.848c.771 0 1.388-.163 1.85-.489.321-.217.578-.59.771-1.118.141-.373.212-1.352.212-2.936v-23.413l-10.021 28.817h-.462l-10.175-28.607v22.248l.096 2.865c.167.777.53 1.41 1.089 1.899s1.436.734 2.63.734v.862h-8.941v-.862h.27a3.46 3.46 0 0 0 1.619-.338c.501-.241.88-.563 1.137-.967s.456-.971.598-1.701c.025-.171.039-.963.039-2.376v-19.988c0-1.6-.071-2.598-.212-2.994s-.43-.745-.867-1.048-1.021-.454-1.753-.454h-.829v-.862h10.676l7.34 20.826zm32.894 9.901v.862H-26.85v-.862h.867c.758 0 1.368-.163 1.831-.489.334-.217.591-.59.771-1.118.141-.373.212-1.352.212-2.936v-20.78c0-1.615-.071-2.625-.212-3.029s-.427-.757-.857-1.06-1.012-.454-1.744-.454h-.867v-.862h13.663v.862h-.867c-.758 0-1.368.163-1.831.489-.334.218-.598.59-.79 1.118-.142.373-.212 1.351-.212 2.936v20.78c0 1.616.074 2.625.222 3.029s.437.757.867 1.06 1.012.455 1.744.455h.866zm-84.644 13.765 12.892 19.592v-13.582c0-1.895-.225-3.176-.675-3.844-.616-.901-1.651-1.335-3.103-1.305v-.862h8.633v.862c-1.105.171-1.847.393-2.226.664s-.675.714-.887 1.328-.318 1.666-.318 3.157v26.301h-.655l-17.67-26.301v20.081c0 1.817.343 3.044 1.031 3.681s1.474.955 2.36.955h.617v.862h-9.268v-.862c1.439-.016 2.441-.373 3.006-1.072s.848-1.887.848-3.564v-22.294l-.559-.839c-.552-.839-1.041-1.39-1.464-1.654s-1.034-.411-1.831-.442v-.862h9.269zm19.598 0h13.489v.862h-.674c-1.015 0-1.712.128-2.091.384s-.649.61-.81 1.06-.241 1.577-.241 3.378v15.469c0 2.827.176 4.698.53 5.614a5.1 5.1 0 0 0 1.744 2.283c.809.605 1.831.908 3.064.908 1.413 0 2.617-.384 3.613-1.153s1.74-1.829 2.235-3.18.742-3.704.742-7.059V-116.1c0-1.413-.122-2.423-.366-3.028s-.552-1.025-.925-1.258c-.578-.357-1.394-.536-2.447-.536v-.862h9.038v.862h-.54c-.732 0-1.343.179-1.831.536s-.842.894-1.06 1.607c-.167.498-.25 1.39-.25 2.679v11.998c0 3.712-.202 6.391-.607 8.037s-1.391 3.161-2.958 4.543-3.707 2.073-6.417 2.073c-2.261 0-4.008-.365-5.242-1.095-1.683-.994-2.871-2.267-3.565-3.82s-1.041-3.642-1.041-6.267V-116.1c0-1.817-.083-2.947-.25-3.39a2.13 2.13 0 0 0-.867-1.06c-.411-.265-1.169-.388-2.274-.373v-.86zm46.114-.722.212 10.53h-.79c-.373-2.64-1.288-4.764-2.746-6.372s-3.035-2.411-4.731-2.411c-1.31 0-2.348.423-3.112 1.27s-1.147 1.821-1.147 2.924c0 .699.135 1.32.405 1.864.373.73.97 1.452 1.792 2.167.604.512 1.998 1.421 4.182 2.726 3.058 1.817 5.12 3.533 6.186 5.148 1.053 1.615 1.58 3.463 1.58 5.544 0 2.641-.851 4.912-2.553 6.814s-3.864 2.854-6.484 2.854c-.822 0-1.6-.102-2.332-.303s-1.651-.582-2.755-1.141c-.617-.311-1.125-.466-1.522-.466-.334 0-.688.156-1.06.466s-.674.784-.905 1.421h-.713v-11.928h.713c.565 3.355 1.654 5.914 3.266 7.676s3.35 2.644 5.212 2.644c1.439 0 2.585-.474 3.44-1.421a4.78 4.78 0 0 0 1.281-3.308 5.06 5.06 0 0 0-.491-2.167c-.328-.699-.826-1.363-1.494-1.992s-1.85-1.448-3.545-2.458c-2.377-1.413-4.085-2.617-5.126-3.611s-1.84-2.104-2.399-3.332-.838-2.578-.838-4.053c0-2.516.764-4.659 2.293-6.43s3.456-2.656 5.781-2.656c.848 0 1.67.125 2.466.373.604.187 1.339.532 2.207 1.037s1.474.757 1.821.757c.334 0 .597-.124.79-.373s.373-.846.54-1.793h.576zm-67.696 75.943v.862h-13.663v-.862h.867c.758 0 1.368-.163 1.831-.489.334-.217.591-.59.771-1.118.141-.373.212-1.352.212-2.936v-20.78c0-1.615-.071-2.625-.212-3.029s-.427-.757-.857-1.06-1.012-.454-1.744-.454h-.867v-.862h13.663v.862h-.867c-.758 0-1.368.163-1.831.489-.334.218-.598.59-.79 1.118-.142.373-.212 1.351-.212 2.936v20.78c0 1.616.074 2.625.222 3.029s.437.757.867 1.06 1.012.455 1.744.455h.866z"/><use xlink:href="#AN"/><use xlink:href="#AN" x="26.323"/><path d="M-21.79-77.29v.862c-.951.187-1.799.8-2.544 1.84-.54.777-1.343 2.602-2.409 5.475l-8.999 24.135h-.636l-8.96-25.113-2.168-5.334c-.366-.527-1.057-.862-2.072-1.002v-.862h12.526v.862h-.424c-1.131 0-1.901.171-2.313.513-.296.233-.443.575-.443 1.025 0 .279.051.61.154.99s.45 1.401 1.041 3.063l5.569 15.725 5.164-14.001 1.137-3.401c.141-.574.212-1.063.212-1.467a2.43 2.43 0 0 0-.309-1.235 1.98 1.98 0 0 0-.905-.815c-.553-.264-1.285-.396-2.197-.396v-.862h8.576zm50.849-68.159 7.367-20.827h11.055v.862h-.883c-.801 0-1.441.163-1.922.489-.334.218-.6.583-.801 1.095-.146.373-.221 1.344-.221 2.912v20.827c0 1.616.074 2.625.221 3.029s.447.757.902 1.06 1.061.455 1.82.455h.883v.862H33.302v-.862h.881c.801 0 1.441-.163 1.922-.489.334-.217.602-.59.801-1.118.148-.373.221-1.352.221-2.936v-23.413l-10.412 28.817h-.48l-10.572-28.607v22.248l.1 2.865a3.37 3.37 0 0 0 1.132 1.899c.58.489 1.491.734 2.733.734v.862h-9.291v-.862h.28c.601.016 1.161-.097 1.682-.338s.914-.563 1.182-.967.474-.971.62-1.701c.027-.171.04-.963.04-2.376v-19.988c0-1.6-.073-2.598-.22-2.994s-.447-.745-.901-1.048-1.062-.454-1.822-.454h-.86v-.862h11.093l7.628 20.826zm34.18 9.901v.862H49.042v-.862h.9c.789 0 1.422-.163 1.902-.489.348-.217.615-.59.801-1.118.148-.373.221-1.352.221-2.936v-20.78c0-1.615-.072-2.625-.221-3.029s-.443-.757-.891-1.06-1.051-.454-1.813-.454h-.9v-.862h14.197v.862h-.902c-.787 0-1.42.163-1.902.489-.346.218-.619.59-.82 1.118-.146.373-.221 1.351-.221 2.936v20.78c0 1.616.078 2.625.23 3.029s.455.757.902 1.06 1.051.455 1.811.455h.903zm11.152-30.728 13.396 19.592v-13.582c0-1.895-.234-3.176-.701-3.844-.641-.901-1.715-1.335-3.225-1.305v-.862h8.971v.862c-1.148.171-1.918.393-2.313.664s-.701.714-.92 1.328-.33 1.666-.33 3.157v26.301h-.682l-18.361-26.301v20.081c0 1.817.357 3.044 1.07 3.681s1.533.955 2.453.955h.641v.862h-9.631v-.862c1.494-.016 2.537-.373 3.123-1.072s.881-1.887.881-3.564v-22.294l-.58-.839c-.574-.839-1.08-1.39-1.521-1.654s-1.074-.411-1.902-.442v-.862h9.631zm36.463 22.597h-9.592l-1.141 3.075c-.375 1.025-.561 1.872-.561 2.539 0 .885.307 1.538.92 1.957.361.249 1.248.435 2.664.559v.862h-9.031v-.862c.975-.171 1.775-.641 2.404-1.41s1.4-2.356 2.322-4.764l9.711-25.206h.381l9.791 25.905c.934 2.454 1.701 3.999 2.303 4.636.453.481 1.094.761 1.922.839v.862h-13.135v-.862h.541c1.053 0 1.795-.171 2.223-.513.293-.248.439-.605.439-1.072 0-.279-.039-.566-.119-.862-.027-.14-.229-.722-.602-1.747l-1.44-3.936zm-.682-1.724-4.045-10.879-4.164 10.879h8.209zm-56.576 23.62v8.549h-.721c-.428-1.972-.9-3.389-1.422-4.251s-1.234-1.549-2.143-2.062c-.506-.28-1.395-.419-2.662-.419h-2.023v24.368c0 1.616.078 2.625.23 3.029s.455.757.902 1.06 1.057.455 1.832.455h.9v.862H34.272v-.862h.9c.789 0 1.422-.163 1.902-.489.348-.217.621-.59.822-1.118.146-.373.221-1.352.221-2.936v-24.368h-1.963c-1.83 0-3.158.451-3.984 1.351-1.162 1.258-1.896 3.052-2.203 5.381h-.762v-8.549h24.391zm16.5 30.728v.862H55.899v-.862h.9c.789 0 1.422-.163 1.902-.489.348-.217.615-.59.801-1.118.148-.373.221-1.352.221-2.936v-20.78c0-1.615-.072-2.625-.221-3.029s-.443-.757-.891-1.06-1.051-.454-1.813-.454h-.9v-.862h14.197v.862h-.902c-.787 0-1.42.163-1.902.489-.346.218-.619.59-.82 1.118-.146.373-.221 1.351-.221 2.936v20.78c0 1.616.078 2.625.23 3.029s.455.757.902 1.06 1.051.455 1.811.455h.903zm16.779-31.171c4.326-.186 7.84 1.281 10.543 4.403s4.055 7.028 4.055 11.718c0 4.007-1.008 7.533-3.023 10.576-2.67 4.039-6.441 6.057-11.314 6.057-4.885 0-8.662-1.926-11.332-5.777-2.109-3.044-3.164-6.655-3.164-10.833 0-4.69 1.371-8.6 4.115-11.73s6.117-4.6 10.12-4.414zm.241 1.492c-2.482 0-4.371 1.476-5.666 4.426-1.055 2.423-1.582 5.902-1.582 10.437 0 5.389.814 9.373 2.443 11.951 1.133 1.802 2.723 2.703 4.766 2.703 1.373 0 2.521-.388 3.443-1.165 1.174-.994 2.09-2.582 2.742-4.764s.982-5.028.982-8.538c0-4.178-.334-7.304-1.002-9.377s-1.518-3.537-2.553-4.391a5.45 5.45 0 0 0-3.573-1.282zM38.168-56.463l7.369-20.827H56.59v.862h-.881c-.801 0-1.441.163-1.922.489-.334.218-.602.583-.801 1.095-.148.373-.221 1.344-.221 2.912v20.827c0 1.616.072 2.625.221 3.029s.447.757.9 1.06 1.061.455 1.822.455h.881v.862H42.413v-.862h.881c.801 0 1.441-.163 1.922-.489.334-.217.6-.59.801-1.118.146-.373.221-1.352.221-2.936v-23.413L35.827-45.7h-.48L24.775-74.307v22.248l.1 2.865c.174.777.551 1.41 1.131 1.899s1.492.734 2.734.734v.862h-9.292v-.862h.28c.601.016 1.161-.097 1.681-.338s.914-.563 1.182-.967.475-.971.621-1.701c.027-.171.039-.963.039-2.376v-19.988c0-1.6-.072-2.598-.219-2.994s-.447-.745-.902-1.048-1.061-.454-1.822-.454h-.86v-.862H30.54l7.628 20.826zm30.336-19.01v12.859h.541c1.721 0 2.969-.629 3.744-1.887s1.268-3.114 1.48-5.568h.762v16.54h-.762c-.16-1.801-.496-3.276-1.01-4.426s-1.111-1.922-1.793-2.318-1.668-.594-2.963-.594v8.899c0 1.74.063 2.804.189 3.191s.363.707.711.955.908.373 1.682.373h1.623c2.535 0 4.568-.684 6.098-2.05s2.625-3.448 3.293-6.243h.74L81.62-45.7H58.153v-.862h.9c.787 0 1.422-.163 1.902-.489.348-.217.613-.59.801-1.118.146-.373.221-1.352.221-2.936v-20.78l-.102-2.633c-.133-.543-.379-.963-.74-1.258-.508-.435-1.201-.652-2.082-.652h-.9v-.862H80.88v9.342h-.762c-.387-2.283-.932-3.921-1.633-4.916s-1.691-1.724-2.973-2.19c-.748-.28-2.148-.419-4.205-.419h-2.803zm33.239 20.781h-9.59l-1.143 3.075c-.373 1.025-.561 1.872-.561 2.539 0 .885.307 1.538.922 1.957.359.249 1.248.435 2.662.559v.862h-9.029v-.862c.975-.171 1.775-.641 2.402-1.41s1.402-2.356 2.322-4.764l9.711-25.206h.381l9.793 25.905c.934 2.454 1.701 3.999 2.301 4.636.455.481 1.096.761 1.924.839v.862h-13.137v-.862h.541c1.055 0 1.795-.171 2.223-.513.293-.248.441-.605.441-1.072a3.3 3.3 0 0 0-.121-.862c-.027-.14-.227-.722-.6-1.747l-1.442-3.936zm-.68-1.725-4.045-10.879-4.164 10.879h8.209z"/></g><defs><path id="AN" d="m-73.993-56.789-.983 11.089h-23.201v-.862h.867c.758 0 1.368-.163 1.831-.489.334-.217.591-.59.771-1.118.142-.373.212-1.352.212-2.936v-20.78c0-1.615-.071-2.625-.212-3.029s-.427-.757-.857-1.06-1.012-.454-1.744-.454h-.867v-.862h13.932v.862h-1.137c-.758 0-1.368.163-1.831.489-.334.218-.597.59-.79 1.118-.141.373-.212 1.351-.212 2.936v20.127c0 1.616.077 2.644.231 3.087s.456.773.906.99c.321.14 1.098.209 2.332.209h2.178c1.387 0 2.543-.295 3.468-.885s1.725-1.522 2.399-2.795 1.313-3.153 1.917-5.638h.79z"/></defs></svg>