<svg xmlns="http://www.w3.org/2000/svg" width="1000" height="1000"><path fill="rgba(255,255,255,0)" d="M0 0h1000v1000H0z"/><g fill="#0081c7"><path d="M134.563 277.57v-98.575c0-19.883 3.313-27.338 27.336-27.338 51.361 0 77.868 23.196 77.868 68.753 0 46.39-29.823 72.07-86.98 72.07-14.083 0-18.224-3.314-18.224-14.91M38.473 455.67H182.61v-9.11c-41.419-.83-48.047-9.943-48.047-53.017V318.16c0-8.283 1.656-9.113 8.283-9.113h4.973c36.446 0 67.097-.828 93.603-11.598 31.48-12.425 51.361-42.244 51.361-79.522 0-53.844-38.934-83.668-114.316-83.668H38.473v9.94c39.763 1.66 44.731 9.943 44.731 40.594v208.749c0 42.248-5.797 53.016-44.731 53.016v9.11zM495.93 342.254l27.338 68.515c1.655 4.897 2.485 9.79 2.485 13.868 0 15.498-9.112 20.391-31.478 21.206v8.973h120.113v-8.973c-10.768 0-17.395-1.63-24.023-7.34-5.8-5.71-11.597-14.682-17.395-28.55L459.482 134.26h-9.939L331.083 405.06c-12.425 27.732-21.536 39.968-42.246 40.783v8.973h94.435v-8.973h-2.485c-21.536 0-31.48-6.525-31.48-19.576 0-5.708 1.657-13.864 6.629-25.287l24.02-58.726 60.473-141.925 55.501 141.925zm213.646 59.05V196.695l200.468 258.453h9.113V187.584c0-32.308 4.138-40.59 43.074-43.905v-9.94h-106.86v9.94c38.105 3.314 42.248 11.597 42.248 43.905V362.37L722.004 133.738h-76.212v9.94c19.883 1.66 32.306 12.426 43.076 33.136v224.49c0 32.308-4.972 40.593-43.076 43.903v9.94h106.03v-9.94c-38.103-3.31-42.246-11.595-42.246-43.903" fill-rule="evenodd"/><path d="M46.564 844.603v11.804c.044 2.723.527 4.347 1.457 4.874.653.421 1.424.686 2.31.79l2.341.159v1.234H34.508v-1.234c2.045-.19 3.448-.548 4.209-1.076.358-.273.6-.559.727-.855.338-.506.507-2.045.507-4.62v-28.071c-.042-2.68-.465-4.262-1.265-4.747-.74-.486-2.133-.845-4.178-1.076v-1.234h17.12c4.305 0 8.156.854 11.552 2.564a9.459 9.459 0 0 1 4.082 3.955c.886 1.54 1.33 3.27 1.33 5.19a11.362 11.362 0 0 1-3.038 7.881c-1.75 1.898-4.03 3.196-6.836 3.893-2.068.506-4.622.759-7.66.759a52.391 52.391 0 0 1-4.494-.19zm0-2.596 3.609.19c3.058 0 5.454-.496 7.184-1.486 2.785-1.604 4.178-4.274 4.178-8.008 0-3.797-1.372-6.467-4.115-8.006-2.025-1.161-4.937-1.74-8.734-1.74-.888 0-1.467.158-1.74.473-.255.317-.382.896-.382 1.74v16.837zm44.738-22.374c2.931 0 5.733.59 8.401 1.772s4.996 2.848 6.978 5c3.65 3.988 5.475 9.19 5.475 15.602 0 3.524-.6 6.774-1.803 9.749s-2.921 5.443-5.158 7.405c-3.926 3.482-8.673 5.223-14.241 5.223-3.04 0-5.92-.576-8.642-1.727s-5.051-2.768-6.992-4.857c-1.73-1.879-3.086-4.237-4.068-7.074s-1.472-5.817-1.472-8.94c0-3.44.597-6.608 1.79-9.51s2.905-5.344 5.142-7.326c3.966-3.545 8.83-5.317 14.59-5.317zm-.538 2.342c-3.482 0-6.498 1.403-9.052 4.209-1.372 1.499-2.475 3.692-3.307 6.584a32.94 32.94 0 0 0-1.25 9.177c0 5.147.981 9.694 2.943 13.639.99 2.005 2.585 3.63 4.778 4.874a12.213 12.213 0 0 0 6.14 1.582c3.355 0 6.171-1.149 8.45-3.448 1.499-1.499 2.564-3.06 3.196-4.685 1.413-3.67 2.12-7.774 2.12-12.31 0-4.916-.99-9.284-2.975-13.103-1.055-2.025-2.658-3.661-4.81-4.906-1.855-1.076-3.934-1.613-6.233-1.613zm58.818 30.223h1.614l-3.1 11.266h-34.877v-1.234c1.983-.146 3.365-.463 4.147-.949.948-.548 1.445-2.172 1.486-4.874v-28.8c-.041-2.678-.527-4.292-1.455-4.84-.76-.486-2.153-.813-4.178-.982v-1.234h18.261v1.234c-2.195.148-3.703.475-4.526.982-.949.548-1.445 2.162-1.487 4.84v30.668c0 .99.2 1.645.6 1.962.528.444 2.196.675 5.002.696h4.303c5.485-.062 9.221-1.297 11.204-3.702.886-.972 1.889-2.648 3.006-5.033zm7.962 4.21v-28.8c-.042-2.721-.496-4.324-1.361-4.81-.634-.402-1.414-.665-2.341-.792l-2.596-.221v-1.234h19.274v1.234c-1.816.083-2.975.21-3.482.38-1.034.254-1.73.675-2.089 1.265-.506.844-.769 2.237-.792 4.178v28.8c.044 2.701.561 4.335 1.551 4.905.634.4 1.424.654 2.375.758l2.437.159v1.234h-19.274v-1.234c1.835-.063 3.006-.18 3.513-.348 1.013-.273 1.699-.697 2.058-1.266.462-.717.706-2.12.727-4.209zm41.127-36.743 1.426 13.797h-1.616c-.61-2.277-1.265-3.976-1.961-5.095-1.351-2.152-3.038-3.766-5.064-4.841a10.143 10.143 0 0 0-4.81-1.203c-2.341 0-4.126.696-5.35 2.089-.948 1.075-1.424 2.385-1.424 3.923 0 1.161.317 2.3.951 3.42.486.844 1.524 1.888 3.117 3.133s3.423 2.424 5.491 3.544c5.802 3.144 9.43 6.17 10.887 9.083.821 1.645 1.234 3.321 1.234 5.031 0 3.334-1.255 6.14-3.767 8.418-2.49 2.28-5.633 3.42-9.43 3.42a20.754 20.754 0 0 1-7.69-1.489c-1.266-.486-2.28-.728-3.038-.728-.55 0-1.013.263-1.393.79-.254.361-.402.814-.444 1.362h-1.424l-1.93-13.766h1.486c.866 2.11 1.652 3.74 2.358 4.889s1.62 2.264 2.738 3.34c2.216 2.172 4.895 3.258 8.039 3.258 2.68 0 4.736-.81 6.17-2.437a7.172 7.172 0 0 0 1.773-4.84c0-1.648-.294-2.913-.886-3.8-1.687-2.53-4.916-5.063-9.684-7.594-4.662-2.469-7.626-4.937-8.892-7.405a11.008 11.008 0 0 1-1.234-5.16c0-3.438 1.149-6.171 3.448-8.196 2.237-1.964 4.801-2.943 7.691-2.943 2.237 0 4.547.475 6.932 1.423 1.224.507 2.193.76 2.91.76 1.055 0 1.73-.728 2.027-2.183h1.359zm18.69 20.539h19.654v-12.596c-.042-2.7-.476-4.293-1.297-4.779-.761-.485-2.227-.834-4.399-1.044v-1.234h18.006v1.234c-2.151.21-3.617.569-4.399 1.076-.82.485-1.255 2.068-1.296 4.747v28.8c.041 2.636.485 4.219 1.328 4.746.823.548 2.278.907 4.367 1.076v1.234H231.32v-1.234c2.068-.125 3.513-.463 4.334-1.011.403-.275.655-.55.761-.824.4-.485.6-2.057.6-4.716v-12.627h-19.653v13.355c.044 2.637.486 4.22 1.33 4.747.824.548 2.279.907 4.368 1.076v1.234h-18.008v-1.234c2.068-.125 3.512-.463 4.336-1.011.4-.275.655-.55.759-.824.4-.485.602-2.057.602-4.716v-28.071c-.044-2.7-.475-4.293-1.299-4.779-.758-.485-2.224-.834-4.398-1.044v-1.234h18.008v1.234c-2.154.21-3.62.569-4.399 1.076-.823.485-1.255 2.068-1.299 4.747v12.596zm91.34 22.026v1.234h-16.52v-1.234c1.815-.02 3.027-.21 3.64-.57.59-.337.886-.864.886-1.582 0-1.013-.411-2.478-1.235-4.399l-2.658-6.202H275.85l-2.975 7.564c-.337.865-.506 1.71-.506 2.53 0 1.752 1.467 2.638 4.399 2.659v1.234h-12.849v-1.234c.823-.042 1.52-.2 2.089-.473.527-.276.886-.538 1.076-.793.634-.78 1.367-1.968 2.2-3.56l2.674-5.807 13.482-31.805h1.297l16.14 36.805c1.479 3.25 2.765 5.012 3.862 5.285.465.169 1.12.285 1.962.348zm-31.742-15.41h14.97l-7.533-17.851-7.437 17.85zm67.554-12.597h-1.488c-.738-2.575-1.497-4.453-2.279-5.633-1.393-2.154-3.175-3.788-5.348-4.906-1.92-.971-4.019-1.457-6.298-1.457-3.84 0-7.121 1.257-9.842 3.767-3.713 3.46-5.57 8.629-5.57 15.507 0 3.63.479 6.852 1.44 9.67s2.337 5.005 4.13 6.566c2.848 2.531 6.34 3.797 10.476 3.797 3.776 0 7.299-1.097 10.57-3.29 1.097-.74 2.393-1.827 3.892-3.26l1.172 1.14a18.834 18.834 0 0 1-4.464 4.334c-3.86 2.616-8.28 3.926-13.259 3.926a23.537 23.537 0 0 1-9.069-1.773c-2.858-1.182-5.237-2.818-7.136-4.905-1.687-1.858-2.99-4.12-3.907-6.79s-1.378-5.523-1.378-8.56c0-7.343 2.343-13.06 7.026-17.154 4.178-3.692 9.125-5.537 14.844-5.537 3.037 0 6.129.527 9.273 1.582 1.117.359 1.982.538 2.593.538.717 0 1.372-.275 1.964-.824.315-.294.559-.727.728-1.296h1.359l.571 14.558zm45.211 28.007v1.234h-16.522v-1.234c1.816-.02 3.03-.21 3.64-.57a1.689 1.689 0 0 0 .886-1.582c0-1.013-.41-2.478-1.234-4.399l-2.658-6.202h-16.964l-2.973 7.564c-.338.865-.507 1.71-.507 2.53 0 1.752 1.466 2.638 4.4 2.659v1.234h-12.85v-1.234c.822-.042 1.518-.2 2.088-.473.527-.276.886-.538 1.077-.793.632-.78 1.366-1.968 2.2-3.56l2.673-5.807 13.482-31.805h1.297l16.14 36.805c1.478 3.25 2.765 5.012 3.861 5.285.465.169 1.12.285 1.964.348zm-31.743-15.41h14.969l-7.533-17.851-7.436 17.85zm37.583 9.587v-28.8c-.042-2.74-.463-4.346-1.266-4.809-.738-.465-2.216-.803-4.43-1.013v-1.234h17.5c4.453 0 8.408.575 11.869 1.724s6.287 2.833 8.48 5.05c3.672 3.668 5.509 8.49 5.509 14.461 0 3.165-.576 6.13-1.727 8.894s-2.779 5.106-4.888 7.026c-2.004 1.793-4.627 3.2-7.864 4.224s-6.736 1.534-10.491 1.534h-18.388v-1.234c2.089-.146 3.534-.484 4.336-1.011.864-.507 1.318-2.11 1.36-4.812zm6.615-30.95v32.945c0 1.011.2 1.687.6 2.025.465.42 1.372.633 2.723.633 3.903 0 7.005-.38 9.304-1.14 7.574-2.51 11.363-8.408 11.363-17.692 0-7.13-2.565-12.49-7.691-16.076-3.082-2.151-7.416-3.229-13.007-3.229-1.52 0-2.48.244-2.882.73-.273.338-.41.938-.41 1.803zm70.212 27.058-2.91 10.95h-35.005v-1.235c1.985-.146 3.365-.463 4.147-.949.949-.548 1.445-2.172 1.487-4.874v-28.8c-.042-2.678-.528-4.292-1.456-4.84-.758-.486-2.151-.813-4.178-.982v-1.234h34.433l.192 9.273h-1.616c-.442-2.258-1.044-3.872-1.803-4.843-.442-.528-.886-.876-1.33-1.045-1.16-.59-3.407-.896-6.74-.917h-8.736c-.948 0-1.528.127-1.74.38-.274.295-.411.906-.411 1.836v14.366h9.97c3.143-.041 5.042-.569 5.695-1.582.592-.821 1.076-2.341 1.457-4.557h1.487v15.033h-1.487c-.381-2.258-.865-3.82-1.457-4.684-.653-.99-2.552-1.508-5.696-1.55h-9.97v16.014c.022 1.138.18 1.814.476 2.024.61.465 2.731.707 6.36.728h1.71c4.83-.042 8.133-.6 9.905-1.676a10.232 10.232 0 0 0 3.83-3.767c.486-.822 1.013-1.845 1.582-3.07h1.804zm42.648-26.235-16.584 37.184h-.917l-16.268-35.667v26.142c.064 4.092.717 6.519 1.962 7.28.865.569 2.247.907 4.146 1.01v1.235h-15.254v-1.234c2.089-.169 3.565-.538 4.43-1.107 1.182-.676 1.805-3.069 1.868-7.184v-26.331c-.042-2.721-.527-4.337-1.455-4.841-.592-.403-1.351-.655-2.279-.761l-2.437-.221v-1.234H485.1l14.968 32.723 14.338-32.723h12.88v1.234c-2.025.169-3.428.496-4.21.982-.907.548-1.382 2.162-1.424 4.84v28.8c.042 2.702.538 4.326 1.489 4.874.78.486 2.162.803 4.145.949v1.234h-18.134v-1.234c2.13-.146 3.609-.473 4.43-.98.93-.548 1.414-2.406 1.457-5.57v-29.4zm57.553-5.73v1.235c-1.14.127-2.078.358-2.816.696-1.647.759-3.692 2.986-6.14 6.678l-9.59 14.652v12.596c.042 2.744.527 4.368 1.455 4.874.676.421 1.5.686 2.469.79.76.086 1.678.138 2.754.159v1.234H540.88v-1.234c1.94-.083 3.175-.21 3.702-.38 1.055-.273 1.762-.696 2.12-1.265.465-.675.707-2.31.728-4.906v-11.266l-8.481-12.438c-4.324-6.223-7.13-9.494-8.418-9.81-.528-.19-1.224-.318-2.09-.38v-1.234h18.136v1.234l-1.615.096c-1.983.083-2.975.684-2.975 1.803 0 .844.36 1.814 1.077 2.91l9.62 14.369 9.273-14.652c.592-.93.886-1.72.886-2.375 0-.717-.252-1.223-.759-1.517-.696-.403-1.93-.613-3.703-.634v-1.234h14.21zm37.285-.917a20.514 20.514 0 0 1 8.402 1.772 20.931 20.931 0 0 1 6.98 5c3.648 3.988 5.474 9.19 5.474 15.602 0 3.524-.602 6.774-1.805 9.749s-2.92 5.443-5.158 7.405c-3.924 3.482-8.67 5.223-14.241 5.223a21.953 21.953 0 0 1-8.64-1.727 20.07 20.07 0 0 1-6.994-4.857c-1.73-1.879-3.086-4.237-4.068-7.074s-1.471-5.817-1.471-8.94c0-3.44.596-6.608 1.788-9.51s2.907-5.344 5.144-7.326c3.965-3.545 8.829-5.317 14.589-5.317zm-.538 2.342c-3.482 0-6.498 1.403-9.052 4.209-1.37 1.499-2.473 3.692-3.307 6.584a32.94 32.94 0 0 0-1.25 9.177c0 5.147.981 9.694 2.943 13.639.993 2.005 2.585 3.63 4.779 4.874a12.217 12.217 0 0 0 6.14 1.582c3.354 0 6.17-1.149 8.449-3.448 1.499-1.499 2.564-3.06 3.198-4.685 1.414-3.67 2.12-7.774 2.12-12.31 0-4.916-.992-9.284-2.975-13.103-1.055-2.025-2.658-3.661-4.811-4.906-1.856-1.076-3.934-1.613-6.234-1.613zm52.712 26.52h-1.488c-.338-2.172-.834-3.713-1.487-4.62-.675-1.013-2.554-1.55-5.635-1.613h-9.398v14.145c.041 2.702.527 4.326 1.455 4.874.844.507 2.32.824 4.43.949v1.234h-18.134v-1.234c2.006-.146 3.41-.463 4.21-.949.907-.527 1.382-2.395 1.424-5.602v-28.071c-.042-2.68-.528-4.293-1.456-4.841-.758-.486-2.151-.813-4.178-.982v-1.234h34.402l.19 9.273h-1.614c-.421-2.258-1.013-3.872-1.772-4.843-.465-.528-.907-.876-1.33-1.045-1.16-.59-3.407-.896-6.74-.917h-8.83c-.909 0-1.467.138-1.678.41-.252.276-.38.876-.38 1.806v14.366h9.399c3.081-.041 4.97-.58 5.666-1.613.632-.886 1.118-2.393 1.456-4.526h1.488v15.033zm46.272-28.83 1.424 13.797h-1.613c-.613-2.277-1.266-3.976-1.962-5.095-1.351-2.152-3.04-3.766-5.064-4.841a10.153 10.153 0 0 0-4.812-1.203c-2.341 0-4.124.696-5.347 2.089-.951 1.075-1.424 2.385-1.424 3.923 0 1.161.317 2.3.948 3.42.486.844 1.524 1.888 3.117 3.133s3.423 2.424 5.491 3.544c5.802 3.144 9.432 6.17 10.887 9.083.824 1.645 1.234 3.321 1.234 5.031 0 3.334-1.255 6.14-3.765 8.418-2.489 2.28-5.633 3.42-9.431 3.42a20.76 20.76 0 0 1-7.691-1.489c-1.266-.486-2.279-.728-3.038-.728-.548 0-1.013.263-1.392.79-.253.361-.4.814-.442 1.362h-1.426l-1.93-13.766h1.488c.865 2.11 1.65 3.74 2.358 4.889s1.62 2.264 2.737 3.34c2.216 2.172 4.895 3.258 8.039 3.258 2.679 0 4.737-.81 6.17-2.437a7.172 7.172 0 0 0 1.773-4.84c0-1.648-.296-2.913-.886-3.8-1.689-2.53-4.916-5.063-9.684-7.594-4.664-2.469-7.628-4.937-8.894-7.405a11.008 11.008 0 0 1-1.234-5.16c0-3.438 1.15-6.171 3.45-8.196 2.235-1.964 4.8-2.943 7.691-2.943 2.235 0 4.545.475 6.93 1.423 1.224.507 2.193.76 2.913.76 1.055 0 1.728-.728 2.024-2.183h1.361zm45.305 14.558h-1.486c-.738-2.575-1.5-4.453-2.28-5.633-1.392-2.154-3.174-3.788-5.349-4.906a13.739 13.739 0 0 0-6.296-1.457c-3.84 0-7.121 1.257-9.844 3.767-3.713 3.46-5.569 8.629-5.569 15.507 0 3.63.48 6.852 1.439 9.67s2.337 5.005 4.13 6.566c2.85 2.531 6.342 3.797 10.476 3.797 3.778 0 7.3-1.097 10.57-3.29 1.099-.74 2.395-1.827 3.894-3.26l1.17 1.14a18.826 18.826 0 0 1-4.462 4.334c-3.86 2.616-8.28 3.926-13.261 3.926-3.186 0-6.209-.593-9.067-1.773s-5.237-2.818-7.136-4.905c-1.689-1.858-2.992-4.12-3.91-6.79s-1.375-5.523-1.375-8.56c0-7.343 2.341-13.06 7.026-17.154 4.178-3.692 9.125-5.537 14.841-5.537 3.04 0 6.13.527 9.274 1.582 1.12.359 1.984.538 2.595.538.717 0 1.372-.275 1.962-.824.317-.294.559-.727.728-1.296h1.36l.57 14.558zm8.596 22.184v-28.8c-.044-2.72-.496-4.323-1.362-4.809-.633-.402-1.413-.665-2.34-.792l-2.596-.221v-1.234H775.2v1.234c-1.816.083-2.975.21-3.482.38-1.034.254-1.73.675-2.09 1.265-.506.844-.77 2.237-.791 4.178v28.8c.043 2.701.56 4.335 1.55 4.905.635.4 1.425.654 2.375.758l2.438.159v1.234h-19.274v-1.234c1.834-.063 3.006-.18 3.512-.348 1.014-.273 1.697-.697 2.058-1.266.463-.717.707-2.12.728-4.209z"/><path d="m813.1 852.515-2.913 10.95h-35.002v-1.235c1.983-.146 3.365-.463 4.147-.949.948-.548 1.444-2.172 1.486-4.874v-28.8c-.042-2.678-.527-4.292-1.455-4.84-.761-.486-2.154-.813-4.178-.982v-1.234h34.432l.19 9.273h-1.613c-.444-2.258-1.045-3.872-1.804-4.843-.444-.528-.886-.876-1.33-1.045-1.161-.59-3.406-.896-6.74-.917h-8.735c-.951 0-1.53.127-1.741.38-.275.295-.41.906-.41 1.836v14.366h9.967c3.143-.041 5.043-.569 5.697-1.582.59-.821 1.076-2.341 1.456-4.557h1.488v15.033h-1.488c-.38-2.258-.866-3.82-1.456-4.684-.654-.99-2.554-1.508-5.697-1.55h-9.968v16.014c.021 1.138.18 1.814.473 2.024.613.465 2.734.707 6.363.728h1.708c4.832-.042 8.135-.6 9.907-1.676a10.247 10.247 0 0 0 3.83-3.767c.483-.822 1.01-1.845 1.582-3.07h1.803zm38.626 11.679h-1.107l-28.64-35.7v25.445c.062 4.092.716 6.519 1.961 7.28.865.569 2.247.907 4.147 1.01v1.235h-15.255v-1.234c2.09-.169 3.565-.538 4.43-1.107 1.183-.676 1.804-3.069 1.868-7.184V825.36c-1.35-1.603-2.458-2.637-3.323-3.1-.654-.317-1.647-.475-2.975-.475v-1.234h11.077l24.97 31.363v-21.838c-.063-4.134-.697-6.55-1.9-7.247-.844-.527-2.289-.875-4.334-1.044v-1.234h15.252v1.234c-2.045.231-3.469.61-4.271 1.138-1.224.696-1.858 3.081-1.9 7.153v34.118zm44.135-29.971h-1.486c-.74-2.575-1.499-4.453-2.279-5.633-1.392-2.154-3.175-3.788-5.35-4.906-1.92-.971-4.019-1.457-6.297-1.457-3.84 0-7.12 1.257-9.843 3.767-3.713 3.46-5.57 8.629-5.57 15.507 0 3.63.481 6.852 1.44 9.67s2.337 5.005 4.13 6.566c2.848 2.531 6.34 3.797 10.476 3.797 3.776 0 7.3-1.097 10.57-3.29 1.097-.74 2.396-1.827 3.893-3.26l1.171 1.14a18.834 18.834 0 0 1-4.463 4.334c-3.861 2.616-8.281 3.926-13.26 3.926-3.185 0-6.208-.593-9.066-1.773s-5.24-2.818-7.137-4.905c-1.688-1.858-2.991-4.12-3.909-6.79s-1.376-5.523-1.376-8.56c0-7.343 2.342-13.06 7.026-17.154 4.176-3.692 9.125-5.537 14.842-5.537 3.037 0 6.13.527 9.273 1.582 1.117.359 1.983.538 2.596.538.717 0 1.371-.275 1.961-.824.317-.294.56-.727.728-1.296h1.361l.57 14.558zm39.83 18.292-2.91 10.95h-35.004v-1.235c1.985-.146 3.367-.463 4.147-.949.949-.548 1.445-2.172 1.487-4.874v-28.8c-.042-2.678-.528-4.292-1.456-4.84-.759-.486-2.151-.813-4.178-.982v-1.234h34.433l.192 9.273h-1.616c-.442-2.258-1.044-3.872-1.803-4.843-.442-.528-.886-.876-1.328-1.045-1.162-.59-3.409-.896-6.743-.917h-8.735c-.948 0-1.528.127-1.74.38-.274.295-.411.906-.411 1.836v14.366h9.97c3.143-.041 5.042-.569 5.695-1.582.592-.821 1.076-2.341 1.457-4.557h1.487v15.033h-1.487c-.381-2.258-.865-3.82-1.457-4.684-.653-.99-2.552-1.508-5.696-1.55h-9.97v16.014c.021 1.138.18 1.814.476 2.024.61.465 2.731.707 6.36.728h1.71c4.83-.042 8.133-.6 9.905-1.676a10.232 10.232 0 0 0 3.83-3.767c.486-.822 1.013-1.845 1.582-3.07h1.804zm27.901-32.85 1.424 13.797h-1.613c-.613-2.277-1.268-3.976-1.964-5.095-1.349-2.152-3.038-3.766-5.062-4.841a10.153 10.153 0 0 0-4.812-1.203c-2.341 0-4.123.696-5.347 2.089-.95 1.075-1.424 2.385-1.424 3.923a6.859 6.859 0 0 0 .948 3.42c.486.844 1.524 1.888 3.117 3.133s3.423 2.424 5.492 3.544c5.802 3.144 9.431 6.17 10.886 9.083.824 1.645 1.235 3.321 1.235 5.031 0 3.334-1.255 6.14-3.766 8.418-2.49 2.28-5.635 3.42-9.431 3.42a20.754 20.754 0 0 1-7.691-1.489c-1.266-.486-2.279-.728-3.038-.728-.548 0-1.013.263-1.392.79-.255.361-.4.814-.444 1.362h-1.424l-1.93-13.766h1.488c.865 2.11 1.651 3.74 2.358 4.889a16.991 16.991 0 0 0 2.737 3.34 11.05 11.05 0 0 0 8.037 3.258c2.681 0 4.737-.81 6.173-2.437 1.18-1.37 1.772-2.985 1.772-4.84 0-1.648-.296-2.913-.886-3.8-1.689-2.53-4.916-5.063-9.686-7.594-4.661-2.469-7.626-4.937-8.892-7.405a11.008 11.008 0 0 1-1.234-5.16c0-3.438 1.149-6.171 3.449-8.196 2.236-1.964 4.8-2.943 7.69-2.943 2.237 0 4.547.475 6.932 1.423 1.224.507 2.194.76 2.91.76 1.056 0 1.731-.728 2.027-2.183h1.361z"/><path d="M129.7 754.86a180.849 180.849 0 0 0 19.12 4.45c33.859 5.968 65.333 1.467 98.525-3.857 69.895-14.433 136.431-55 196.382-82.575l50.364-23.41c-87.503-46.535-147.941-93.428-184.926-137.933-42.469-51.138-54.209-99.372-40.547-140.607 4.126-12.45 9.636-23.537 16.378-33.159 15.199-21.659 36.651-36.013 62.615-42.16 25.63-6.047 55.67-4.066 88.427 6.867 25.68 8.566 53.029 22.611 81.224 42.548 2.101 1.491 2.614 4.4 1.128 6.51s-4.385 2.622-6.486 1.13c-27.476-19.42-54.003-33.055-78.764-41.338-31.038-10.368-59.36-12.296-83.4-6.611-23.709 5.608-43.241 18.675-57.107 38.431-6.252 8.927-11.354 19.19-15.173 30.688-12.636 38.15-1.332 83.296 38.881 131.735 37.089 44.656 98.603 91.912 188.335 138.935l.025.025c68.717-32.104 130.59-60.914 187.849-80.336 46.211-15.665 93.962-23.306 136.663-19.268 38.906 3.705 88.424 16.516 111.468 51.14 5.278 7.95 9.635 15.847 12.994 23.667 6.817 15.872 9.611 31.512 8.202 46.92-2.281 25.235-15.615 49.659-41.24 72.646-.34.302-.346.312-.667.565-61.322 48.234-132.945 45.71-204.07 24.206-59.772-18.083-121.132-52.322-182.877-90.676-98.344 43.24-205.199 87.203-274.093 100.581-32.166 6.25-78.995 6.327-119.926-4.63-54.901-14.715-96.245-44.786-100.293-103.928-1.385-20.14 3.254-40.18 14.122-59.293 12.995-22.869 27.988-37.197 46.187-45.968 18.019-8.669 38.958-11.731 64.076-12.065 35.37-.49 72.639 7.382 111.134 20.631 38.294 13.195 77.84 31.744 117.927 52.656a4.69 4.69 0 0 1 2 6.302 4.66 4.66 0 0 1-6.28 2.008c-39.728-20.733-78.866-39.1-116.645-52.118-37.601-12.965-73.841-20.656-108.007-20.166-23.837.334-43.547 3.138-60.182 11.164-16.455 7.922-30.115 21.067-42.11 42.161-9.945 17.466-14.175 35.731-12.918 54.046 3.486 50.703 34.806 76.4 81.685 90.087zm691.132-192.339c-42.933 5.738-88.786 22.664-127.104 39.307L543.405 668.84c59.334 36.63 118.156 69.042 175.159 86.277 68.486 20.708 134.25 23.61 195.896-22.766 21.436-16.126 36.06-43.706 38.137-66.522 1.82-20.039-4.178-40.954-18.146-62.227-26.066-39.665-69.073-47.023-113.62-41.08z" fill-rule="evenodd"/></g></svg>