<svg fill="none" height="61" viewBox="0 0 154 61" width="154" xmlns="http://www.w3.org/2000/svg"><g fill="#0000c9"><path d="M128.072 41.88c-2.848.032-4.346-1.702-4.346-4.78 0-.203 0-.406.015-.61h11.168c.227-.811.374-1.702.374-2.515 0-3.75-2.392-6.624-7.309-6.624-5.013 0-9.474 4.748-9.474 9.732 0 4.78 3.239 7.685 8.676 7.685 2.393 0 4.754-.78 6.413-1.983l-1.024-2.484c-1.32.97-2.897 1.55-4.493 1.579m-.033-11.825c1.66 0 2.508 1.031 2.508 3.296 0 .218-.018.437-.033.672h-6.365c.683-2.39 2.165-3.968 3.89-3.968m-44.164-3.75c0-3.89-3.174-6.732-7.975-6.732h-9.295l-7.015 24.79h5.86l2.587-9.137h5.096c5.827 0 10.742-3.61 10.742-8.92m-12.99 6.015h-2.018l2.785-9.842h2.115c2.67 0 4.166 1.734 4.166 4.03 0 3.688-3.01 5.812-7.048 5.812M76.46 60.76h5.628v.036l8.65-30.242h5.908l-3.875 13.809h5.682l4.655-16.543h-11.59l.651-2.296c.326-1.203.88-3.264 1.661-5.624.813-2.438 2.294-3.968 4.281-3.968.96 0 1.547.42 1.547 1.14-.033.78-.7 1.234-.7 2.484 0 1.452 1.286 2.577 2.945 2.577 2.066 0 3.728-1.594 3.728-3.546 0-3.015-2.686-4.998-6.788-4.998-6.006 0-9.963 3.687-12.437 12.278"/><path d="M120.295 27.82h-15.056l-.734 2.733h7.277l-11.298 13.809h15.936l.733-2.734h-8.204zm29.799-.278c-2.033 0-4.199 1.266-5.909 3.89l1.009-3.609h-5.679l-4.656 16.528h5.68l2.1-7.436c.846-3.047 2.914-6.015 4.281-6.015 1.482 0 .929 2.655 3.467 2.655 1.84 0 2.946-1.624 2.946-3.108.017-1.734-1.432-2.905-3.239-2.905"/></g><path d="m.41 33.29.006-.016.022-.084z" fill="#fff"/><path d="M4.624 29.385c4.754-2.153 13.011-2.78 23.537-1.56l2.978-10.498C15.935 15.468 4.834 17.56 2.98 24.2l-.076.268c-.314 1.569.322 3.237 1.721 4.917" fill="#3d96f7"/><path d="M51.706 26.269c-4.752 2.15-13.013 2.773-23.544 1.55l-2.978 10.498c15.203 1.859 26.305-.234 28.16-6.873l.072-.253c.322-1.572-.312-3.243-1.71-4.922" fill="#0000c9"/><path d="m13.12.796-2.98 10.498c17.805 1.227 35.914 8.182 41.564 14.976 2.183-.987 3.625-2.298 4.21-3.9l-2.5 8.824c-.018.084-.033.17-.056.253l2.018-7.108c.652-2.233.96-3.406.96-4.326C56.321 11.917 34.2 2.03 13.12.796" fill="#3d96f7"/><path d="M51.703 26.268c1.397 1.681 2.032 3.352 1.71 4.922l2.5-8.824c-.585 1.604-2.029 2.913-4.21 3.902" fill="#3d96f7"/><path d="M4.624 29.382c-2.179.987-3.623 2.294-4.21 3.892C.14 34.311 0 35.015 0 35.617c0 8.123 22.122 17.995 43.217 19.23l2.963-10.498c-17.796-1.227-35.897-8.177-41.556-14.967" fill="#0000c9"/><path d="M2.962 24.194.96 31.303c-.21.735-.384 1.353-.525 1.886l2.468-8.727q.024-.136.06-.268" fill="#fff"/><path d="M4.625 29.382c-1.4-1.678-2.036-3.346-1.721-4.918L.435 33.19l-.02.083c.587-1.598 2.03-2.905 4.21-3.892" fill="#0000c9"/></svg>