<svg xmlns="http://www.w3.org/2000/svg" width="196.154" height="196.154"><defs><style>@font-face{src:url(#FontID1)format(svg)}@font-face{src:url(#FontID0)format(svg)}</style></defs><g fill-rule="evenodd" image-rendering="optimizeQuality" shape-rendering="geometricPrecision" text-rendering="geometricPrecision"><g fill="#373435" fill-rule="nonzero"><path d="M2.007 98.09c0 52.992 43.088 96.08 96.079 96.08s96.08-43.088 96.08-96.08-43.089-96.079-96.08-96.079S2.006 45.1 2.006 98.091zm2.634 0c0-51.516 41.929-93.34 93.445-93.34s93.34 41.93 93.34 93.34c0 51.517-41.93 93.446-93.34 93.446-51.516 0-93.445-41.93-93.445-93.445zm38.874 55.52.21.21 3.477-3.476 1.79 1.791-8.743 8.85c-.843-.211-1.896-.843-2.845-1.791-2.212-2.213-1.79-4.214-.105-5.9s4.003-2.107 6.216.421zm-4.846 4.32c.21.21.421.315.632.42l3.16-3.265-.21-.21c-1.16-1.265-2.213-.738-3.161.105-.948.948-1.37 1.896-.421 2.844zm1.58-15.592c1.896 2.423.21 5.267-2.634 7.48-2.95 2.212-6.11 3.055-8.006.631s-.211-5.267 2.633-7.48c2.95-2.212 6.11-3.054 8.007-.631zm-9.06 6.953c.843 1.159 2.844-.106 4.635-1.475s3.477-3.055 2.634-4.109c-.843-1.159-2.845.105-4.635 1.475s-3.477 3.055-2.634 4.109zm2.634-16.646-4.952 2.845 1.37 2.317 4.846-2.739 1.37 2.213-11.379 6.426-1.264-2.318 4.741-2.633-1.37-2.318-4.74 2.634-1.264-2.213 11.377-6.426zm-4.425-9.587-2.318 1.686 1.159 2.95 2.844-.422.843 2.107-13.38 1.475-.842-2.212 10.746-8.112.948 2.423zm-6.953 4.847c-.632.421-1.475.948-1.475.948s.843-.21 1.685-.316l3.793-.527-.948-2.318-3.16 2.213zm4.214-14.75-6.427 5.373c-.526.422-1.053.738-1.053.738s.527-.21 1.159-.316l7.374-1.791.527 2.107-12.642 3.055-.527-2.212 5.69-4.741 1.053-.843s-.632.21-1.265.316l-6.426 1.58-.527-2.107 12.642-3.055.422 1.897zm-1.16-8.743c.317 3.265-2.317 5.162-6.215 5.583-3.792.316-6.742-1.159-7.058-4.425-.106-1.264 0-2.317.421-2.95l1.791.633c-.21.316-.316.948-.316 1.896.105 1.58 1.896 2.528 4.846 2.318 2.423-.211 4.53-1.054 4.425-2.634 0-.421-.105-.632-.21-.843l-3.688.316.105 1.264-1.79.211-.317-3.792 7.059-.633c.526.633.948 1.58 1.053 3.056z"/><path d="M25.71 90.716c-.21 2.107-1.79 3.687-4.319 3.371l-9.165-.948.21-2.528 9.271.948c1.054.105 1.686-.316 1.686-1.159.105-.843-.422-1.37-1.475-1.475l-9.27-.948.21-2.423 9.165.948c2.529.21 3.793 2.107 3.582 4.214zm2.002-12.22-8.217 1.79-1.264.211s.527.105 1.159.21l7.374 1.792-.527 2.107-12.642-3.055.527-2.213 7.27-1.58 1.369-.21s-.632-.106-1.264-.317l-6.427-1.58.527-2.107 12.642 3.055-.421 1.896zm1.264-4.11-12.22-4.424.843-2.423 12.22 4.425zm3.582-8.533-.948 2.107-13.063-2.739 1.159-2.423 7.69 2.002c.738.21 1.58.527 1.58.527s-.737-.422-1.37-.948l-6.425-4.741 1.053-2.213 10.43 8.428zm2.002-4.003-11.062-6.848 2.95-4.74 1.686 1.053-1.58 2.634 2.95 1.79 1.369-2.317 1.685 1.054-1.37 2.212 3.056 2.002 1.58-2.634 1.686 1.053zm7.27-10.43-6.427-1.685 4.74 3.792-1.58 2.002-9.692-7.796c.105-.948.632-2.001 1.475-3.055 1.896-2.423 3.898-2.318 5.9-.843 1.264.948 1.58 2.74 1.053 3.898l6.426 1.37-1.79 2.212zm-10.22-5.583c-.21.21-.316.421-.316.632l3.582 2.844c.105-.105.21-.105.21-.21.738-.948.633-2.213-.526-3.16s-2.107-1.16-2.95-.211zm14.855.843c-.949.948-1.897 1.37-2.634 1.475l-1.054-1.897c.422 0 1.054-.21 1.686-.842s.632-1.475.105-2.002c-.632-.632-1.37-.738-2.95-.632-1.896.105-3.055-.21-4.108-1.16-1.58-1.58-1.475-3.581-.106-4.95.738-.738 1.686-1.16 2.318-1.265l.948 1.58c-.421 0-.948.317-1.475.843s-.632 1.37 0 1.897c.633.632 1.265.737 2.845.526 1.896-.105 3.16 0 4.32 1.16 1.58 1.58 1.58 3.686 0 5.267zm3.792-3.793L41.935 32.88l2.001-1.686 8.323 10.009zM46.991 31.3l-1.159-1.686 5.268-3.687 1.159 1.685-1.58 1.054 6.426 8.955-2.212 1.58-6.321-9.06zm14.223 3.687-2.74-4.952-6.11-4.951 2.318-1.37 3.792 3.477v-.105l-.842-4.952 2.107-1.159.948 7.796 2.844 4.952zm14.011-6.005c-2.95.948-5.057-1.475-6.216-4.952s-.842-6.742 2.002-7.69c2.95-.948 5.057 1.475 6.216 4.951s.843 6.743-2.002 7.69zM71.643 18.13c-1.37.421-.843 2.739-.21 4.846.737 2.212 1.685 4.32 3.055 3.793 1.37-.422.842-2.74.21-4.847-.737-2.107-1.79-4.214-3.055-3.792zm13.169.421.421 1.897-2.633.526 1.158 5.479-2.528.526-2.634-12.747 5.584-1.054.316 1.897-2.95.632.738 3.371zm10.324 6.743c-1.37 0-2.317-.211-2.95-.632l.527-2.107c.316.21.948.526 1.791.526s1.475-.632 1.37-1.37c0-.947-.527-1.474-1.791-2.528-1.475-1.158-2.107-2.212-2.213-3.687-.105-2.212 1.37-3.687 3.372-3.687 1.053 0 2.001.21 2.528.632l-.421 1.79c-.316-.21-.949-.42-1.686-.42-.843 0-1.37.526-1.264 1.474 0 .843.421 1.37 1.685 2.318 1.58 1.264 2.318 2.107 2.423 3.793.106 2.212-1.37 3.792-3.581 3.792zm9.376.316c-2.95-.211-4.003-3.477-3.792-7.059.316-3.476 1.896-6.531 4.846-6.32 1.053.105 1.79.42 2.318.947l-.632 1.686c-.211-.21-.633-.421-1.265-.527-1.79-.105-2.423 2.213-2.633 4.425-.211 2.107.21 4.53 1.896 4.635.632.106 1.053-.105 1.37-.316l.42 1.897c-.526.421-1.369.632-2.528.526zm4.004.21 2.001-12.852 2.634.421-2.107 12.853zm4.74.843 3.16-12.642 5.48 1.37-.528 2.001-2.95-.737-.737 3.266 2.529.632-.527 1.896-2.529-.632-.842 3.582 2.95.632-.527 2.002zm13.17 4.109-.738-8.323c-.106-.632 0-1.264 0-1.264s-.211.527-.422 1.159l-2.739 7.058-2.001-.737 4.74-12.115 2.107.842.632 7.375c.106.632.106 1.37.106 1.37l.421-1.265 2.423-6.215 2.002.737-4.74 12.115-1.792-.737zm7.268 3.792c-2.633-1.37-2.317-4.74-.526-7.9 1.685-3.056 4.424-5.268 7.058-3.793.948.526 1.475 1.158 1.686 1.79l-1.265 1.265c-.105-.316-.42-.632-.948-.948-1.58-.843-3.16 1.053-4.214 2.95s-1.58 4.213-.21 4.95a2.714 2.714 0 0 0 1.37.317l-.422 1.896c-.632.21-1.475 0-2.529-.527zm3.477 1.897 7.374-10.746 4.636 3.266-1.16 1.58-2.422-1.685-2.002 2.844 2.213 1.475-1.054 1.58-2.212-1.475-2.107 2.95 2.528 1.791-1.159 1.58zm13.695 11.272 1.475-2.423-2.317-2.212-2.423 1.475-1.58-1.58 11.693-6.743 1.686 1.686-6.637 11.694-1.897-1.897zm4.425-7.164c.422-.632.948-1.37.948-1.37s-.737.528-1.475.949l-3.266 2.002 1.686 1.685 2.002-3.266zm2.107 15.065 3.793-7.48c.316-.631.632-1.158.632-1.158s-.422.421-.948.737l-6.005 4.53-1.37-1.685 10.324-7.902 1.37 1.791-3.266 6.637-.632 1.265s.527-.422.948-.843l5.268-4.003 1.37 1.685-10.325 7.901-1.159-1.58zm3.898 6.427c-.737-1.264-1.053-2.423-.948-3.266l10.324-5.794c.738.421 1.58 1.264 2.213 2.423 1.79 3.16-.106 5.689-3.372 7.585-3.266 1.79-6.531 2.212-8.217-.948zm10.008-5.584c-.105-.21-.316-.421-.421-.526l-8.007 4.424c0 .21.106.422.316.738.738 1.37 2.318 1.264 5.268-.422 2.739-1.58 3.687-2.844 2.95-4.214zm5.162 11.378 1.897-.632 2.001 6.11-1.896.632-.527-1.79-10.43 3.581-.842-2.528 10.43-3.477zm-8.006 11.062 12.642-2.95 1.264 5.478-1.896.527-.738-2.95-3.266.738.633 2.633-1.897.422-.632-2.634-3.582.843.738 2.95-2.002.421zm1.896 11.062c-.421-2.95 2.529-4.636 6.11-5.057 3.477-.422 6.848.527 7.164 3.476.106 1.054 0 1.897-.421 2.423l-1.791-.316c.21-.316.316-.737.21-1.37-.21-1.79-2.633-1.896-4.845-1.685-2.107.316-4.32 1.159-4.11 2.74.106.631.317 1.053.528 1.263l-1.791.738c-.527-.421-.949-1.159-1.054-2.318zm.632 9.27h5.584V96.51h-5.69v-2.528h13.064v2.528h-5.373v2.74h5.373v2.633h-12.958zm-1.053 11.167 8.006-2.633c.632-.211 1.265-.316 1.265-.316s-.527 0-1.16-.106l-7.48-1.053.317-2.107 12.853 1.79-.316 2.213-7.059 2.318c-.632.21-1.37.421-1.37.421s.633 0 1.265.106l6.637.948-.316 2.107-12.853-1.791.316-2.002zm-2.107 8.007c.843-2.95 4.108-3.371 7.69-2.318 3.477 1.054 6.11 3.056 5.162 6.005-.842 2.95-4.108 3.372-7.69 2.318-3.477-1.053-6.11-3.055-5.268-6.005zm10.956 3.16c.422-1.369-1.79-2.317-3.898-2.95-2.212-.631-4.53-1.053-4.846.317-.421 1.37 1.791 2.318 3.898 2.95 2.212.632 4.53.948 4.846-.316zm-12.747 2.845 12.01 5.162-1.054 2.318-10.113-4.214-1.16 2.528-1.79-.843zm-4.741 9.482c1.475-2.634 4.74-2.318 8.007-.527 3.16 1.79 5.162 4.424 3.687 7.058s-4.846 2.318-8.007.527-5.162-4.425-3.687-7.058zm9.903 5.583c.737-1.264-1.159-2.634-3.16-3.793s-4.11-2.001-4.847-.737 1.16 2.634 3.16 3.793 4.11 2.001 4.847.737zm-15.908 3.477c2.002-2.634 5.268-2.213 8.323.21 3.055 2.318 4.108 5.479 2.212 8.007-.843 1.053-1.58 1.58-2.423 1.896l-.948-1.685c.316-.106.948-.422 1.475-1.16.948-1.263.421-3.16-2.002-4.95-2.002-1.476-4.109-2.318-4.951-1.16-.316.422-.316.527-.422.738l2.95 2.318.738-.949 1.474 1.054-2.317 2.95-5.584-4.32c0-.842.422-1.79 1.37-2.95zm-4.32 5.162 4.004 4.003 7.27 3.055-1.897 2.002-4.53-2.212 2.212 4.53-1.685 1.685-3.16-7.164-4.004-4.003zm-69.53 12.326 2.739-9.798c-.738.21-2.002.106-3.16-.105l.105-1.37c2.317.316 3.792-.21 4.424-.737l1.58.421-3.37 12.22-2.213-.631zm8.322 1.896-.421-1.58c1.37-.316 3.582-1.054 4.74-3.477-.42.106-.947.21-1.474.106-2.107-.211-4.003-1.475-3.687-4.214.21-2.213 1.79-3.793 4.424-3.582 2.845.316 3.898 2.528 3.582 5.162-.527 5.583-5.373 7.269-7.164 7.48zm3.266-11.272c-1.37-.106-2.001 1.158-2.107 2.423-.21 1.685.527 2.633 2.213 2.844.632.105 1.053-.105 1.37-.105l.315-1.58c.21-1.791-.21-3.372-1.79-3.477zm9.903 11.588c-2.212.21-4.214-.843-4.32-2.95-.105-1.475.633-2.528 2.318-3.687-1.685-.843-2.423-1.686-2.528-2.95-.105-1.79 1.37-3.266 3.477-3.371 2.107-.21 3.792.948 4.003 2.74.105 1.263-.527 2.211-2.002 3.265 1.897.948 2.845 1.896 2.95 3.371.105 2.002-1.475 3.371-3.793 3.582zm-.843-11.694c-1.053.106-1.79.843-1.685 1.897.105.948.526 1.474 2.001 2.212 1.37-.948 1.686-1.58 1.686-2.529-.105-1.053-.948-1.685-2.002-1.685zm.316 5.373c-1.685 1.159-1.896 1.791-1.79 2.845s1.053 1.79 2.212 1.685 2.001-.948 1.896-2.002-.421-1.685-2.318-2.528zm11.378 4.53c-2.739.738-4.53-1.053-5.162-3.687-1.37-5.478 2.528-8.744 4.109-9.482l.948 1.265c-1.264.737-2.95 2.212-3.266 4.846.421-.316.843-.527 1.37-.632 2.001-.527 4.214 0 4.951 2.739.527 2.107-.421 4.214-2.95 4.846zm-2.212-6.32a2.34 2.34 0 0 0-1.264.631c0 .527.105.948.316 1.58.421 1.791 1.37 3.056 2.844 2.634 1.37-.316 1.475-1.685 1.159-2.95-.421-1.685-1.475-2.317-3.055-1.896zm-55.309 4.53c0 .105-.527.947-.632 1.053.105 0 1.475.842 1.475.842l-2.74 4.741s-1.58-.843-1.58-.948c0 .105-.526.948-.632 1.054.106 0 3.898 2.212 3.898 2.212l-1.685 2.95-4.741-2.74c0 .106-.527.949-.527 1.054.106 0 11.483 6.637 11.483 6.637 0-.105.527-.948.527-1.053-.105 0-4.74-2.74-4.74-2.74l1.685-2.95 3.898 2.213c0-.105.527-.948.632-1.053-.105 0-1.58-.949-1.58-.949l2.739-4.74s1.37.843 1.475.843c0-.106.527-.949.632-1.054-.105 0-9.376-5.373-9.482-5.478zm.21 7.69 2.74-4.636 2.528 1.475-2.739 4.741-2.528-1.475zm19.49.843c0 .105-2.423 6.847-2.423 6.953.106 0 2.107.737 2.107.737 0-.105 1.16-3.16 1.16-3.16s2.106.737 2.212.737c0-.105.421-1.053.421-1.159-.105 0-2.212-.737-2.212-.737l.948-2.74c-.105 0-2.107-.737-2.107-.737zm16.12 3.897v1.16h5.477v3.476s0 1.58-.421 2.739h1.896c.527-.737.843-1.686.843-2.844v-4.53h-7.69zm39.61-7.585c0 .106.633.948.633 1.054.105 0 6.848-4.214 6.848-4.214l2.633 4.32s.843 1.369 1.054 2.528c.105 0 1.58-.949 1.58-.949.105-.842-.21-1.896-.737-2.844l-3.266-5.268c-.106 0-8.744 5.373-8.85 5.373zm-51.2 5.373c0 .106-.21 1.054-.21 1.159.105 0 7.796 1.37 7.796 1.37l-.316 1.474v.317c-.106.42-.21 1.158-.527 1.685.105 0 1.791.316 1.791.316.421-.421.737-.948.948-2.002l.421-2.528c-.105 0-10.008-1.79-10.008-1.79zm2.95 3.371c0 .106-.526 2.95-.526 2.95s-4.846-.843-4.952-.948c0 .105-.21 1.054-.21 1.159.105 0 13.168 2.423 13.274 2.423 0-.105.21-1.054.21-1.159-.105 0-6.005-1.053-6.005-1.053l.527-2.95c-.105 0-2.212-.422-2.212-.422zm17.594-1.58v8.639c-.316.105-.632.105-1.054.21s-.948.106-1.37.106h-2.738v-4.53h-2.107v4.53h-2.002v1.159h6.742c.527 0 .949 0 1.37-.106s.843-.21 1.159-.316v4.004h2.212v-8.534h2.107v-1.159h-2.107v-3.898h-2.212zm14.538-1.896c0 .105.738 3.582.738 3.582l-1.475.316-.738-3.582c-.105 0-2.001.421-2.107.421 0 .106 1.791 8.218 1.791 8.218l-.632.316c-.316.105-.632.21-1.053.316l-2.318.526-1.475-7.058 2.844-.632c0-.106-.21-1.159-.21-1.159-.106 0-4.952 1.053-5.057 1.053 0 .106 1.686 8.112 1.686 8.112.105.422.316.738.632.949s.737.21 1.264.105l2.844-.632c.422-.106.738-.21 1.054-.316s.527-.316.632-.527l.843 3.898c.105 0 2.001-.421 2.107-.421 0-.106-1.791-8.323-1.791-8.323l1.475-.316 1.79 8.323c.106 0 2.002-.422 2.108-.422 0-.105-2.74-13.063-2.845-13.063s-2.002.421-2.107.421zm7.585 7.164c0 .105.422 1.053.422 1.053.105 0 7.48-2.95 7.48-2.95l1.264 3.266c.105 0 2.001-.843 2.107-.843 0-.105-1.686-4.319-1.686-4.319-.105 0-9.587 3.793-9.587 3.793zm4.214-11.273c0 .106 2.95 7.27 2.95 7.375.105 0 2.002-.843 2.107-.843 0-.105-1.37-3.582-1.37-3.582s2.108-.843 2.213-.843c0-.105-.421-1.053-.421-1.053-.106 0-2.213.842-2.213.842l-1.053-2.739c-.106 0-2.002.843-2.107.843zm11.273 1.37c0 .105 2.844 4.635 2.844 4.635l-1.053.632-2.845-4.635c-.105 0-1.79 1.053-1.896 1.159 0 .105 2.844 4.635 2.844 4.635s-1.79 1.159-1.896 1.159c0 0 .527.948.632.948s10.64-6.532 10.746-6.532c0-.105-.527-.948-.632-.948s-4.003 2.423-4.003 2.423l-2.845-4.635c-.105 0-1.79 1.053-1.896 1.159zm-71.954 9.587c-.632 1.685.527 3.37 2.844 4.214s4.214.21 4.846-1.475-.526-3.372-2.844-4.214-4.214-.211-4.846 1.475zm2.001.737c.422-1.054 1.37-1.475 2.423-1.054s1.58 1.37 1.16 2.424-1.37 1.474-2.424 1.158c-1.053-.421-1.58-1.37-1.159-2.423zm10.957 3.16c-.316 1.791 1.053 3.266 3.476 3.688s4.214-.422 4.53-2.213-1.053-3.265-3.476-3.687-4.214.422-4.53 2.213zm2.107.422c.21-1.054 1.053-1.686 2.212-1.475s1.686 1.054 1.58 2.107c-.21 1.054-1.053 1.686-2.212 1.475s-1.686-1.054-1.58-2.107zm-12.22-15.276c0 .106-.528 1.37-.528 1.37l-2.95-1.054c0 .106-.315 1.054-.42 1.054.105 0 1.685.632 1.685.632h-.106c-.737.316-1.264.843-1.58 1.685-.632 1.686.21 3.16 2.213 3.898s3.581.106 4.214-1.58c.316-.843.21-1.58-.106-2.318v-.105l1.686.632c0-.105.316-1.053.421-1.053-.105 0-2.95-1.054-2.95-1.054s.422-1.264.527-1.37c-.105 0-2.107-.737-2.107-.737zm-1.897 4.425c.421-1.054 1.053-1.475 2.002-1.159.842.316 1.158 1.054.737 2.107s-1.054 1.475-2.002 1.159c-.842-.316-1.158-1.159-.737-2.107zm53.518-2.107c0 .105.526 1.37.526 1.37l-2.95 1.158c0 .106.422 1.054.422 1.054.105 0 1.686-.632 1.686-.632v.105c-.316.737-.316 1.475 0 2.318.632 1.685 2.317 2.212 4.319 1.475 2.002-.843 2.74-2.318 2.107-4.004-.316-.842-.843-1.37-1.58-1.685h-.106s1.58-.632 1.686-.632c0-.106-.421-1.054-.421-1.054-.106 0-2.95 1.159-2.95 1.159s-.527-1.264-.527-1.37c-.105 0-2.002.843-2.107.843zm1.475 4.53c-.422-1.054-.106-1.791.632-2.212.843-.316 1.58.105 2.001 1.158s.106 1.791-.632 2.213c-.843.316-1.58-.106-2.001-1.16z"/></g><g fill="#a80345"><path d="M163.508 97.037c0-15.802-6.32-31.71-16.013-42.14 3.477 8.85-3.055 25.495-15.276 42.035a151.286 151.286 0 0 0-17.804-19.174c-5.162-4.635-10.43-8.955-15.908-12.642 17.383-12.747 34.977-19.49 43.931-15.486-11.377-10.64-27.917-17.278-44.457-17.278-16.435 0-32.975 6.637-44.458 17.278 8.955-4.004 26.548 2.739 43.93 15.486-5.372 3.687-10.745 8.007-15.907 12.642-6.637 6.11-12.642 12.537-17.804 19.174-12.326-16.54-18.858-33.186-15.276-42.035-9.587 10.535-16.013 26.443-16.013 42.14 0 15.17 4.74 30.657 14.96 42.878-2.318-10.535 3.898-25.495 16.329-41.824 4.214 5.583 9.797 11.167 15.065 16.434a140.772 140.772 0 0 0 15.486 13.38c.843.632 1.58 1.264 2.423 1.79-3.687 3.056-14.643 9.587-18.225 11.168l.737 1.159c6.216-2.95 14.75-8.64 18.647-11.484 2.423 1.897 12.642 8.744 18.753 11.484l.737-1.16c-6.532-2.95-16.118-9.586-18.33-11.166.842-.633 1.685-1.16 2.422-1.791 5.268-4.004 10.43-8.534 15.487-13.38 5.373-5.267 10.85-10.85 15.065-16.434 12.431 16.329 18.647 31.078 16.013 42.14 10.324-11.8 15.276-28.024 15.276-43.194zM98.086 66.486c5.162 3.581 10.43 7.69 15.381 12.22a144.445 144.445 0 0 1 17.383 18.752c-4.109 5.479-9.587 10.852-14.75 16.014a181.973 181.973 0 0 1-6.53 6.215c-2.318 2.002-4.636 3.898-6.954 5.795a125.769 125.769 0 0 1-4.53 3.37 125.769 125.769 0 0 1-4.53-3.37c-2.318-1.791-4.635-3.793-6.953-5.795-2.212-2.001-4.425-4.003-6.532-6.215-5.162-5.162-10.64-10.535-14.749-16.014 5.057-6.531 10.851-12.747 17.383-18.752 4.951-4.53 10.219-8.639 15.381-12.22z" fill-rule="nonzero"/><path d="M102.405 113.366c9.271-5.056 5.268-15.065 4.53-16.224-.421 1.791-1.474 2.318-2.212 3.372-.948 1.37-1.264 2.317-1.37 4.003 0 0-2.001-2.845 1.16-6.848 2.95-3.687 1.264-7.164-1.897-9.06 0 0 1.686 3.793-2.212 6.742-3.793 2.95-3.16 6.954-3.055 7.48 0 0-2.318-3.37 1.053-8.112 4.003-5.583-1.053-8.744-1.79-9.27 1.369 3.16-.949 6.11-2.74 7.9-4.951 5.163-8.428 15.698 4.003 20.123v17.488H82.284V82.604h19.91c6.427 0 14.96 4.74 14.96 15.592s-9.165 15.276-14.96 15.276z" fill-rule="nonzero"/></g></g></svg>