<svg xmlns="http://www.w3.org/2000/svg" width="1000" height="1000"><path fill="rgba(255,255,255,0)" d="M0 0h1000v1000H0z"/><path d="M629.682 34.173c.69.564-.447 2.402-.447 2.402-17.698 4.239-46.284 9.203-52.52 30.154-3.11 11.183-2.976 17.706-.135 23.218 7.205 13.593 25.476 16.004 41.185 10.618 18.98-6.362 36.264-31.148 42.206-57.484l25.628 6.658c-12.035 31.148-19.687 62.018-20.53 77.163l-27.322-7.071.43-11.47c-13.139 3.143-21.954 4.382-34.562 1.98-10.905-2.132-56.069-9.91-59.043-29.732-1.838-11.9.126-20.521 7.079-30.584 10.408-15.035 31.157-17.555 43.47-17.555-9.92-3.54-30.298-4.963-30.298-4.963l4.669-8.352c.008 0 39.93 9.624 60.19 15.018M416.16 28.93c-11.327 10.61-20.108 23.353-16.99 38.37 16.569-2.131 35.817-10.062 44.312-19.256 19.114-21.381-8.495-36.812-27.322-19.114m63.013 6.65c-3.27 10.635-13.61 15.152-22.232 19.391 8.773-.7 19.679-3.96 28.604-4.104-1.425 4.4-2.975 6.371-4.534 8.781-11.757 2.689-64.143 8.495-80.703 12.035-1.846 8.217 14.436 26.901 29.025 25.772 21.372-.565 46.006-24.356 47.7-25.35 1.845.994-4.66 15.725-9.33 23.226-18.692 5.807-46.73 8.638-55.504 10.905-17.698 4.391-57.063-15.726-38.093-59.76 12.178-28.308 49.133-26.757 77.871-32.834 10.62-2.132 33.98.7 27.196 21.937zM367.87 118.27c-3.826 3.397-24.356 12.878-24.356 12.878-3.11-2.41-4.947-5.806-8.073-7.5-9.203 10.197-17.698 19.392-30.432 25.055-15.153 7.088-28.317 19.544-47.718 13.88-9.91-3.54-18.827-10.905-22.518-22.223-4.947-14.159 3.548-32.287 14.023-45.03-7.787 2.268-14.866 7.931-22.518 11.328-.565-2.832-.143-6.936 0-9.92l51.83-25.341c2.688-.565 3.826.85 1.98 4.104-11.613 13.872-18.979 32.707-18.684 50.27 0 11.757 24.912 34.84 42.61 18.55 14.302-13.173 18.263-29.876 18.263-46.866 0-15.153-7.51-28.317-12.743-40.208l25.637-13.872c6.498 21.229 12.026 46.293 32.699 74.896m383.565-33.264-2.545 10.046c19.822-5.234 53.094 25.915 60.46 29.732 13.728 6.793 33.693 51.544-18.98 61.454-8.494 1.56-21.945-3.826-24.49-1.988-.842 1.845 25.056 16.29 25.056 16.29l-11.883 3.253-51.535-37.94c.556-.144-.7-2.403 2.275-1.139 16.695 5.664 44.17 13.45 64.126-9.632 24.22-27.887-15.557-54.645-40.486-47.43-8.917 2.553-36.382 16.424-50.987 41.058l-23.648-16.273c21.676-21.524 45.602-50.406 47.877-63.292l24.76 15.861M882.99 192.334c-17.698 10.34-35.977 27.752-61.302 53.237l-21.094-21.373c19.518-16.138 44.312-30.727 55.226-53.81.413-.7 1.415-6.927 4.66-3.396l22.51 25.342M478.305 313.683l29.733-.295c6.371-.422 9.92-11.327 12.034-17.555 1.568.716 4.821.287 6.11 1.56-4.82 8.924-17.285 48.138-30.448 48.138-28.182-.135-36.669 2.696-46.723 7.087 4.39-9.776 26.614-43.756 23.64-73.767a42.39 42.39 0 0 0-13.308-25.35c-5.233 4.677-34.123 45.728-53.802 47.86-28.316 3.254-61.167-.43-90.049 3.961-25.771 6.372-31.856 40.209-57.35 45.737-19.964 1.56-49.554-.143-62.431 11.891-9.203 8.066-17.563 23.362-18.128 33.56 8.36-12.036 20.252-19.823 33.559-21.946l101.519-2.84c6.936-.279 10.484-7.78 14.015-8.774 1.702 0 2.966-.708 2.124 1.838-2.832 4.534-17.842 29.31-31.992 31.721l-105.496 4.382c-11.04 1.13-19.813 10.198-27.18 17.42h-5.95c2.268-10.332 34.124-74.474 44.751-86.096 18.541-20.1 48.982-10.046 71.922-13.872 19.257-8.074 50.262-44.599 54.787-48.138 23.092 0 75.9.143 78.445-2.41 27.752-5.386 53.237-24.913 69.949-48.99 22.08 21.372 13.442 68.541.27 94.878m432.411-82.27 25.342 46.006c-40.908-22.797-67.817-9.203-74.045 1.559-20.386 35.539 43.613 54.231 62.305 46.866 23.075-8.773 17.563-23.791 13.316-30.584 6.927 1.559 20.378 14.866 20.378 14.866 3.076 11.959 1.205 21.255-6.355 31.014-9.363 12.076-21.12 13.02-37.115 12.599-20.942-.565-46.992-31.005-65.255-61.31-7.374-12.743-7.087-31.284-1.71-39.214 19.83-28.89 59.608-4.105 67.968-.565l-14.588-20.538c3.683-1.56 7.054 0 9.759-.7M64.721 286.478c-8.369 10.906-5.385 31.3.843 42.206 4.955 9.48 12.885 16.703 20.95 18.827 12.743-18.827 15.861-44.464 5.1-60.173-2.967-4.39-17.126-13.872-26.893-.86m90.192-115.947c-7.08 11.47-9.346 31.006 0 52.951 10.619 25.207 47.01 10.34 50.684-7.787 6.944-15.288 6.944-37.52-7.071-50.119-14.74-13.324-34.562-9.624-43.613 4.955zm76.177-12.051c11.183 24.22-2.697 46.866-21.103 66.41-12.17 12.75-23.496 20.53-36.811 28.603-12.6 17.563-21.516 36.82-31.848 55.36-14.445 17.42-43.756 18.971-50.414 41.768 6.236 4.686 20.673 11.613 20.673 11.613l-13.602 24.213c-31.006-23.926-45.45-29.168-69.098-38.093-1.13-1.273 11.048-24.777 11.048-24.777l7.223.573s.85-12.465 2.966-18.836c2.697-10.054 7.088-12.321 12.035-26.336 4.256-10.198 12.75-21.095 23.361-23.926 6.944-.995 33.559.43 26.488 48.138 4.526-5.385 48.56-20.251 42.045-35.539-15.43-22.232-33.558-37.376-53.372-52.243-.564-.708 19.392-20.96 19.392-20.96s4.113 6.515 7.51 4.4c3.674-9.776 8.2-16.998 15.287-23.934 7.08-6.658 12.035-14.445 19.4-23.362 11.47-11.613 26.901-20.394 44.178-15.01 11.891 3.54 19.543 10.763 24.642 21.938zm539.46 208.018c-4.956 17.833-7.51 44.313-28.31 43.327-43.039-1.56-74.752-2.259-116.957-5.386-20.252-1.55-22.527 7.088-26.758 14.597-2.688 2.259-7.214-1.846-7.214-1.846 11.748-21.953 17.26-46.166 53.524-42.188 30.019 3.244 46.714 5.233 77.432 7.07 13.603.709 36.248 5.95 41.211-16.99 2.68-.994 5.226-.43 7.071 1.416M94.032 402.324l-2.41 31.427-9.911 1.137c8.074 19.679 4.534 45.02 4.534 65.129 0 10.897-8.074 28.038-25.064 31.435-17.698 3.253-41.202-7.787-49.276-36.534-1.694 9.06-1.694 27.474-1.694 27.474l-9.203-4.955 6.371-59.33s2.832-2.124 4.383.707c4.677 20.243 20.673 41.768 38.101 44.035 34.823 4.829 33.55-27.188 30.297-36.248-4.256-9.337-9.767-20.538-21.237-29.168-10.628-8.208-26.623-14.015-47.161-14.301l2.831-29.59c24.93 7.636 48.29 8.344 79.439 8.782m862.708-4.686c-4.39-.986-10.046-1.415-14.58 0 2.689 17.698 7.653 34.688 20.387 47.717 21.102 11.9 34.14-5.95 19.965-27.895-6.38-10.189-15.153-17.403-25.772-19.822m27.76.295c8.2 17.555 11.176 36.812 9.912 56.634-.287 10.619-3.801 20.993-14.302 24.49-14.302 4.779-22.089-23.639-26.614-28.03-1.147.7 6.22 34.402 6.22 34.402-3.389.143-8.774-5.377-8.774-5.377l-14.167-81.284c-12.456-2.975-26.05 18.692-25.064 31.578 1.138 14.158 13.729 33.55 24.643 47.287-7.652-1.272-14.867-5.663-21.946-9.06-9.759-25.62-15.717-63.72-7.652-84.099 3.97-9.21 13.88-17.133 24.786-18.414 18.962-1.685 41.067 6.953 52.959 31.873zm-658.27 41.481c16.29 30.02 4.82 63.013-7.493 88.068-5.385 16.148-10.475 29.455-10.475 29.455l-6.237-1.98c4.23-7.594 6.371-13.88 9.068-20.387 9.338-23.353 15.71-48.147 2.402-71.508-10.627-20.53-30.87-36.104-54.661-35.54-13.442.574-25.763 4.105-36.947 10.763-3.683 5.098-7.509 19.543-14.158 25.207-8.925 7.778-15.01 20.243-16.855 22.645-2.116.143-4.526-2.546-6.372-3.253 9.06-10.62 15.296-22.654 12.6-27.61-4.813-1.558-20.951 21.382-20.951 21.382s-2.402-1.694-3.818-2.832c5.663-8.217 10.189-15.296 14.158-24.5 7.071-8.35 18.263-10.331 27.044-14.579 15.288-14.866 33.837-23.218 54.224-26.758 24.92-2.57 47 9.911 58.47 31.427m463.3 47.01c8.208-.287 17.276-4.526 21.237-20.387 2.123-.287 5.233.994 5.385 3.96-3.262 13.451-9.633 44.465-32.008 41.911L641.85 490.822c-17.554-4.534-25.628 12.456-25.628 12.456-1.424 1.576-4.947 2.267-6.801-1.845a398.204 398.204 0 0 1 15.583-26.893c10.618-15.026 34.393-8.79 34.393-8.79l130.13 20.673m153.222 54.501c-2.258 2.832-2.41 7.214-2.831 11.336-.86 19.821 7.93 53.102 26.909 53.22 12.869 0 19.24-12.878 18.532-23.488-1.55-18.692-21.937-40.216-42.61-41.068m55.075-20.799-2.975 28.73c-2.554.708-6.936-.708-8.335 1.989.843 2.831 3.388 9.767 3.388 13.872 1.407 29.302-1.99 75.174-30.45 70.083-26.057-4.668-25.35-31.721-27.187-42.761-13.172 12.75-30.162 26.184-41.775 40.208-4.24 5.099-6.355 16.695-10.19 16.004 0-1.854 7.78-44.607 7.78-44.607 11.191-13.173 48.29-34.562 47.725-64.286-7.088-3.683-24.777-6.228-24.777-6.228l6.22-29.59c24.507 8.512 52.41 13.89 80.576 16.586zM798.883 574.07c1.567-2.284 7.096.691 6.514 1.416 1.138-2.705-11.326 42.323-38.37 34.553l-104.503-32.58c-12.464-5.664-19.543 9.345-19.543 9.345-2.116.287-6.641 2.706-7.78-2.68l23.362-29.606c7.51-8.2 23.362-2.124 36.39 2.419l72.63 26.614c25.493 9.633 29.463-2.124 31.283-9.48M33.707 586.803c-7.787 7.088-13.02 16.417-11.891 25.629 3.253 22.518 34.536 30.162 44.312 30.44 8.782.152 17.985.86 23.648-5.512 6.085-6.649 10.905-19.265 6.228-31.156-6.927-18.128-44.456-36.121-62.297-19.4m64.564 7.213c5.52 15.44 4.526 26.766 7.08 40.925 4.104 3.54 42.76-6.523 42.76-6.523l3.254 27.339c-48.417 7.07-83.813 15.43-120.068 25.072l-6.936-28.612 7.222-3.27c-2.123-8.073-7.643-13.298-8.36-16.981-3.674-18.98-16.56-44.178-6.792-61.176 7.509-13.585 20.53-18.819 36.255-18.54 27.887.58 41.767 31.3 45.585 41.766z"/><path d="m324.813 620.633 11.748 308.66c56.49 18.558 115.256 29.312 176.137 26.623 43.327-50.548 67.54-145.148 66.553-156.736L324.813 620.633M99.41 744.24c35.682 65.845 130.83 151.09 210.968 176.558 0-163.107-7.223-225.69-7.223-313.48-.008 0-159.146 104.366-203.745 136.922zM326.22 595.148l258.972 176.996c11.882-80.711 4.39-159.298-28.873-237.17-65.137 15.861-126.44 31.865-230.1 60.174zm378.323-352.122c-4.23 18.127-8.065 52.959-30.845 53.523-21.12.278-76.329-1.845-96.294 4.526-6.927 1.98-15.144 22.51-16.29 27.617-2.115 8.495-11.167 32.986-12.734 68.238-2.116 52.1 21.237 92.03 32.716 130.544 17.26 57.485 23.63 88.49 24.617 146.253a581.04 581.04 0 0 1-11.597 125.461c-7.087 33.542-15.869 60.182-34.41 99.1-17.563 36.677-40.916 70.935-55.074 88.633-150.374-3.37-286.715-69.274-381.155-187.177-15.717-20.95-46.444-66.409-46.444-66.409 76.32-45.307 102.218-64.134 234.615-160.69 99.96-21.81 137.05-30.6 232.906-61.74-22.376-56.911-11.327-151.351 32.842-235.029 6.944-7.365 16.147-10.627 25.906-11.191a2640.62 2640.62 0 0 1 81.706 0c8.2-3.254 9.33-13.872 11.453-21.095 2.14-.86 5.546-2.275 8.082-.573zm-23.04 393.358 55.36 44.16c14.866 10.906 23.918 4.526 25.199 1.846 3.54.986 7.357.986 4.525 4.382 3.557-3.092-28.451 31.157-45.307 16.004l-54.231-43.03c-10.19-9.212-16.99 0-21.516 3.1-2.832 0-6.514-.27-6.093-4.668 12.186-9.068 27.34-31.014 42.062-21.794m230.9 21.794-11.757 25.914c-23.926-13.736-29.724 11.04-30.306 20.378-.134 4.678 7.948 28.04 26.488 13.603 11.344-8.79 25.764-53.238 44.33-46.302 17.832 4.391 18.683 24.213 3.387 56.078-11.613 23.774-21.802 37.646-31.013 38.775-4.677.287-10.619 1.702-13.173-1.837 4.678-7.5 11.622-23.505 11.622-23.505 5.369 2.984 10.602 3.262 15.852.708 7.063-3.396 12.035-17.976 10.754-22.931-3.691-15.44-13.737-16.704-20.825-9.776-6.084 5.806-13.298 19.13-19.948 32.429-9.211 18.684-33.71 19.13-43.756-3.261-3.96-8.066 5.52-33.56 9.928-43.748 5.242-11.757 29.176-52.673 48.417-36.525M897.99 799.76l-21.81 27.887c-5.807-9.759-25.477-25.468-65.264-52.934l19.67-24.22s25.485 27.743 46.875 41.767c8.781 5.663 12.034 5.511 17.563 4.39 4.517-.43 5.646 0 2.966 3.11M827.2 855.223c7.357-5.528 21.953-18.979 21.953-18.979l.978 9.22-17.698 18.254c3.253 4.804 6.936 9.338 12.313 12.608-4.24 4.382-25.485 20.656-25.485 20.656l-10.333-14.285-28.325 26.32-1.255-11.605a293.972 293.972 0 0 0 24.625-21.086c-1.264-9.346-25.072-43.048-42.467-49.698-13.037-5.241-17.554 16.417-19.408 28.73l-6.928-16.99c3.11-5.09 7.357-8.638 12.743-13.164 10.762-9.776 22.24-15.86 35.539-14.015 20.386 2.984 43.748 44.034 43.748 44.034m-126.162-8.335c-6.093 4.678-13.728 9.06-21.12 12.473-4.66-1.424-1.129-7.087-12.868-6.514-10.34.413-32.834 7.357-40.908 21.937-4.39 10.753 2.402 20.96 7.627 29.876h1.13c12.607-23.084 41.497-32.986 57.77-39.779 9.76-4.247 25.528-3.194 35.961 6.498 9.389 8.748 10.627 18.558 10.063 31.309-.565 18.818-22.662 33.693-22.662 35.109.86.708 31.014-17.277 31.014-17.277.86 3.11.295 10.198.295 10.198l-52.395 25.476c-2.84.986-4.964-.708-4.542-3.396 14.158-13.585 23.378-31.578 20.251-51.543-2.41-9.911-10.627-21.38-21.246-24.06-13.577-2.276-25.055 6.37-32.277 17.84-3.818 5.959-7.08 13.316-8.083 20.235-6.792 19.417 4.265 38.8 10.484 55.79-6.944 4.391-10.753 5.243-17.84 8.942-4.956 1.964-6.077-1.87-7.08-5.25-9.624-25.628-22.78-49.563-29.151-77.315-1.854-30.019 54.501-59.044 90.748-54.088 1.568 1.138 4.265 1.416 4.83 3.54"/></svg>