<svg xmlns="http://www.w3.org/2000/svg" width="1000" height="1000"><path fill="rgba(255,255,255,0)" d="M0 0h1000v1000H0z"/><path d="M178.177 210.686c19.442 13.33 32.94 27.083 43.893 44.742 12.48 19.951 18.508 39.817 19.527 63.674 1.613 38.544-10.782 74.201-35.573 102.302-9.848 11.207-24.96 23.687-37.95 31.413-3.311 1.953-6.027 3.82-6.027 4.16s1.698 3.311 3.735 6.537l67.155 109.01 33.11 53.316c.68.765 14.433 1.02 65.202.85l64.269-.255-6.538-3.99c-15.197-9.085-33.96-25.47-45.505-39.733-20.121-24.875-33.11-56.033-37.101-89.144-.51-4.584-.85-56.288-.85-145.77v-138.64l-64.692.084c-61.212 0-64.693.085-62.655 1.443zm240.328 139.319c0 155.025-.255 147.384 5.178 161.562 5.858 15.027 17.914 28.356 31.668 35.063 12.31 6.028 19.017 7.471 34.469 7.557 14.178.084 21.648-1.104 31.327-5.01 16.64-6.792 29.46-19.696 36.252-36.421 6.198-15.367 5.773-3.566 6.028-161.648l.254-141.95H418.505v140.847zm258.134-7.81-.85 144.582c-4.329 56.798-35.317 106.973-84.474 136.602l-5.858 3.481h280.93l-7.217-3.905c-59.513-31.838-99.585-85.493-114.188-152.733-4.16-19.357-5.01-28.187-5.01-53.487-.084-24.705.51-31.497 4.67-51.363 6.963-33.96 22.244-67.07 43.893-95.087 7.641-9.848 24.366-26.828 34.3-34.893 10.102-8.065 17.658-13.244 30.393-20.63l9.678-5.604H676.638v133.036zm-675.94-7.88v57.392H31.94c34.553 0 41.855-.679 55.439-5.01 21.14-6.791 36.421-21.903 41.175-40.835 1.868-7.217 1.868-20.037.085-26.998-2.462-9.169-5.519-14.517-12.905-21.903-5.603-5.689-8.235-7.557-14.857-10.867-4.415-2.122-11.886-4.924-16.555-6.198-8.406-2.207-8.66-2.207-46.016-2.547l-37.61-.34v57.307zm959.992-55.438c-28.271 2.802-53.231 14.942-72.843 35.487-44.572 46.865-50.854 132.782-13.754 188.136 17.49 25.98 42.28 43.044 72.674 49.836 7.556 1.613 11.207 1.953 25.385 1.953 9.084 0 18.762-.34 21.48-.68l4.838-.678V280.66l-2.292-.51c-3.82-.763-20.715-2.207-24.875-2.121-2.122.084-6.877.424-10.613.849zM.698 553.915v73.013h70.466l70.466-.51c0-.424-11.037-19.697-24.536-42.789l-44.062-75.984-15.197-26.318-28.526-.255-28.61-.17v73.013zM189.221 747.54v40.75h12.735v-14.856l4.584-5.094 4.67-5.094 1.527 2.122c.85 1.189 4.5 6.792 8.15 12.48l6.708 10.443h15.112l-5.348-8.32-11.037-16.895c-3.141-4.67-5.688-9-5.688-9.594 0-.51 1.443-2.547 3.311-4.5 8.235-8.913 15.366-17.234 15.366-17.743 0-.425-3.056-.68-6.707-.68h-6.707l-11.207 13.33c-6.197 7.386-11.63 13.499-11.97 13.668-.424.17-.765-11.121-.765-25.215V706.79H189.22v40.752zm89.166 0v40.75h12.735v-81.5h-12.735v40.752zm68.775-25.725v14.942l-1.868-1.698c-8.32-7.556-21.904-6.876-30.819 1.528-14.772 13.924-11.63 41.007 5.773 50.175 4.924 2.632 14.857 2.717 19.697.085 1.868-.934 4.16-2.547 5.01-3.566 2.291-2.547 2.8-2.207 2.461 1.613l-.254 3.396h12.734v-81.503h-12.734v15.027zm-8.49 21.055c5.264 2.717 8.574 9 8.574 16.47.085 6.028-1.952 11.207-5.688 14.518-3.48 3.056-5.943 3.735-11.121 3.14-7.387-.848-12.141-6.961-12.735-16.64-.34-4.923-.085-6.197 2.037-10.187 4.33-8.406 11.377-11.122 18.933-7.302zm-86.356-32.516c-4.415 2.122-4.585 9.933-.255 12.14 2.972 1.529 4.33 1.614 7.131.34 4.585-2.122 4.924-9.509.595-12.056-2.802-1.613-4.755-1.698-7.471-.425zm348.171 0c-4.415 2.122-4.584 9.933-.254 12.14 2.97 1.529 4.33 1.614 7.046.34 4.415-2.037 5.094-7.386 1.528-11.037-2.632-2.547-5.094-2.971-8.32-1.443zm246.269 0c-3.566 1.698-4.67 9.169-1.698 11.631 3.395 2.802 9.848 1.613 11.546-2.122 1.528-3.396 1.104-5.349-1.528-8.065-2.632-2.547-5.094-2.971-8.32-1.443zM.698 750.003v38.29h13.584v-28.866h6.622l6.537.085 8.405 14.348 8.405 14.433h15.876l-5.688-9.085-8.15-13.413c-1.359-2.377-3.311-5.349-4.245-6.707-1.273-1.783-1.443-2.632-.68-2.887 2.293-.764 8.236-5.943 10.614-9.254 2.037-2.972 2.547-4.67 2.886-9.933.51-8.49-1.104-12.735-6.707-17.829-6.707-6.028-9.51-6.707-29.8-7.131L.7 711.714v38.29zm33.535-24.62c4.754 2.207 6.537 4.5 6.962 9.169.34 3.31 0 4.67-1.613 6.962-3.312 4.923-6.368 6.113-16.386 6.707l-8.914.424V723.77h8.32c6.197 0 9.084.424 11.63 1.613zm426.732 13.924c0 32.177.255 33.62 6.792 40.751 5.943 6.537 10.952 8.575 20.8 8.575s14.857-2.038 20.8-8.575c6.538-7.131 6.793-8.574 6.793-40.751v-27.423h-13.585v27.423c0 26.742-.085 27.507-1.868 31.157-4.669 9-17.49 9.34-23.942.595-1.698-2.293-1.782-3.566-2.037-30.819l-.255-28.356h-13.498v27.423zm416.105-15.111v7.216h-10.188V741.6h10.188v46.694h12.734V741.6h11.037v-10.188h-11.037v-14.433H877.07v7.217zm97.658 0v7.216h-10.187V741.6h10.187v46.694h12.735V741.6h11.038v-10.188h-11.038v-14.433h-12.735v7.217zm-889.709 6.71c-13.668 4.33-21.394 18.083-18.932 33.79 1.528 10.103 6.622 17.489 14.857 21.479 15.706 7.725 33.705-.68 38.204-17.829 4.245-16.47-3.311-32.6-17.319-36.93-6.113-1.953-11.631-2.123-16.81-.51zm13.584 11.886c6.282 2.631 9.509 9.339 8.914 18.507-.764 10.273-6.792 16.386-15.621 15.707-7.98-.594-12.905-6.452-13.754-16.385-.594-8.15 3.65-16.047 10.018-18.423 2.377-.85 7.725-.595 10.442.594zm46.2-12.14c-4.074.933-9.083 3.48-10.951 5.603-6.453 7.131-4.755 19.442 3.31 23.856 1.954 1.104 7.727 2.886 12.736 3.905 11.121 2.377 13.754 3.566 14.433 6.283s-.425 4.5-4.075 6.368c-3.906 2.122-14.009 1.613-19.782-.934l-4.075-1.868-4.16 3.48c-4.924 4.075-4.67 5.01 2.208 7.98 12.395 5.519 27.252 5.01 35.827-1.188 7.556-5.433 9.339-16.895 3.566-23.346-3.056-3.566-6.962-5.179-18.932-7.811-9.34-2.038-10.953-2.802-12.48-5.518-.595-1.104-.255-2.123 1.273-3.906 1.953-2.207 2.463-2.377 8.745-2.292 4.924 0 7.726.51 10.697 1.868l4.16 1.868 4.33-4.16 4.33-4.16-4.415-2.208c-8.49-4.33-18.593-5.773-26.743-3.82zm246.014.593c-7.302 2.547-12.99 8.406-16.131 16.725-1.189 3.142-1.613 6.368-1.528 12.311 0 6.962.34 8.83 2.377 13.244 2.802 6.198 7.047 10.612 12.82 13.245 3.48 1.613 5.603 1.952 11.885 1.868 9.169-.085 15.367-2.122 20.885-7.047l3.651-3.226-4.924-2.631-4.924-2.632-4.33 2.207c-3.225 1.614-5.687 2.208-9.508 2.208-7.556.085-11.716-2.547-14.433-9-2.462-6.027-3.48-5.688 18.762-5.688h20.121l-.51-5.773c-1.697-20.036-17.064-31.667-34.213-25.809zm14.942 11.971c2.377 1.698 5.943 7.386 5.943 9.594 0 1.358-1.189 1.528-12.735 1.528-14.433 0-14.348 0-10.782-6.368 3.65-6.537 11.97-8.745 17.574-4.755zm153.112-12.31c-4.245 1.358-8.66 3.99-10.952 6.537l-1.613 1.783-.425-4.075-.425-4.16-6.113-.255-6.198-.255v57.816h12.735v-36.506l3.057-3.311c3.31-3.735 8.999-6.877 12.48-6.877 1.188 0 3.31.934 4.584 2.038l2.377 2.037.255 21.31.255 21.309h12.649v-21.904c0-12.395-.424-23.177-.849-24.96-1.104-3.735-4.33-7.895-7.64-9.593-3.482-1.783-10.104-2.293-14.179-.934zm138.591.34c-11.885 4.074-19.102 16.724-17.998 31.327.849 11.292 6.452 20.037 15.451 24.197 3.481 1.613 5.689 1.952 11.886 1.952 9.084-.084 14.943-2.037 20.8-7.13l3.821-3.227-5.264-2.631-5.178-2.632-3.99 2.207c-3.057 1.614-5.179 2.208-9.17 2.208-7.725.085-11.885-2.462-14.602-9-2.462-6.027-3.48-5.688 18.762-5.688h20.121l-.51-5.773c-1.697-20.036-17.064-31.752-34.129-25.809zm14.858 11.97c2.377 1.698 5.943 7.386 5.943 9.594 0 1.358-1.189 1.528-12.735 1.528-14.433 0-14.348 0-10.782-6.368 3.65-6.537 11.97-8.745 17.574-4.755zm55.37-11.291c-2.462 1.188-5.688 3.735-7.131 5.518s-2.887 3.311-3.141 3.311-.51-2.207-.51-4.839v-4.924l-6.113-.254-6.198-.255v57.816h12.735v-33.706l2.547-3.48c3.99-5.604 8.574-8.15 14.517-8.15l5.094-.085-.255-6.368-.255-6.368-3.396-.255c-2.376-.17-4.754.425-7.895 2.038zm31.847-1.358c-4.16 1.103-9.169 3.65-10.952 5.688-6.368 7.046-4.84 19.017 3.141 23.687 2.122 1.188 7.641 2.971 12.905 4.074 11.121 2.377 13.754 3.566 14.433 6.283s-.425 4.5-4.075 6.368c-3.82 2.037-14.093 1.528-19.866-1.02l-3.99-1.782-4.16 3.566c-4.755 3.99-4.585 4.924 1.782 7.725 12.82 5.689 27.507 5.264 36.252-1.019 5.603-4.074 8.405-12.564 6.282-19.017-2.122-6.282-7.386-9.084-24.875-12.905-9.255-1.952-11.97-5.688-7.217-9.593 3.056-2.632 14.093-1.953 20.376 1.274 2.207 1.103 2.462 1.019 6.537-2.802l4.245-3.99-2.717-1.868c-6.368-4.245-20.46-6.538-28.102-4.67zm125.001.339c-7.556 2.037-14.178 8.575-17.404 17.064-2.208 5.943-2.208 17.83.084 24.112 2.208 6.113 7.726 12.055 13.33 14.602 3.65 1.614 5.942 1.953 12.14 1.953 9.169 0 15.366-2.122 20.885-7.047l3.736-3.225-5.264-2.632-5.179-2.632-3.99 2.208c-3.057 1.613-5.179 2.207-9.169 2.207-7.726.085-11.886-2.462-14.603-9-2.462-6.027-3.48-5.687 18.763-5.687h20.12l-.509-5.773c-.679-8.83-3.396-15.112-8.66-20.291-6.707-6.537-14.687-8.49-24.281-5.858zm13.669 12.31c2.377 1.699 5.943 7.387 5.943 9.594 0 1.359-1.189 1.528-12.735 1.528-14.263 0-14.094.085-11.122-5.858 2.038-3.82 3.312-5.01 7.471-6.537 3.736-1.274 7.386-.85 10.443 1.274zm-688.693 16.216v28.866h12.735v-57.731h-12.735v28.865zm348.172 0v28.866h12.735v-57.731h-12.735v28.865zm24.457-28.271c-.255.34 4.415 13.413 10.188 28.865l10.613 28.272h11.461l2.207-5.688 18.593-51.45c-.425-.678-8.32-.764-11.037-.084-1.613.424-2.886 3.48-8.405 20.036-3.566 10.698-6.707 19.188-7.046 18.933-.255-.34-3.396-9.17-6.962-19.782l-6.453-19.272-6.368-.254c-3.566-.17-6.621.084-6.791.424zm221.81 28.271v28.866h12.735v-57.731h-12.734v28.865z" vector-effect="non-scaling-stroke"/></svg>