<svg xmlns="http://www.w3.org/2000/svg" width="500" height="175.297" viewBox="0 0 500 175.297" xml:space="preserve"><path d="m155.732 136.836-.097.14c-1.252-.036-2.532-.036-3.79-.036-.057 1.989-.04 3.983-.04 5.973 0 2.228.029 4.447.144 6.664l-.115.141c-.783 0-1.583.02-2.366.063l-.097-.144c.12-2.879.12-5.753.12-8.621 0-1.361-.023-2.75-.069-4.1-1.269.04-2.542.06-3.812.098l-.131-.131c.046-.521.068-1.018.068-1.532l.115-.142c3.36 0 6.721 0 10.069-.059l.104.144c-.069.51-.079 1.024-.103 1.542"/><path fill="#231F20" d="M176.489 149.724c-.777 0-1.537.017-2.32.057l-.126-.147c.068-1.783.104-3.596.104-5.378v-1.497c-.634-.039-1.292-.039-1.932-.039-1.601 0-3.178 0-4.783.057v1.789c0 1.656.074 3.342.165 5.012l-.126.147c-.783 0-1.543.017-2.319.057l-.126-.147c.08-1.743.126-3.509.126-5.252 0-2.978.057-6.069-.15-9.023l.126-.148c.754-.019 1.538-.035 2.304-.063l.097.147a149 149 0 0 0-.08 5.098v.617c.823.04 1.628.04 2.446.04h1.229c1.034 0 2.04-.017 3.046-.04-.08-1.893-.035-3.76-.16-5.651l.125-.148c.754-.019 1.498-.019 2.257-.063l.12.147c-.057 2.097-.102 4.2-.102 6.286v2.097c0 1.973.045 3.95.206 5.899z"/><path d="m196.067 149.576-.137.147c-2.858 0-5.692.017-8.544.057l-.108-.147c.12-2.972.108-5.956.108-8.91 0-1.794-.023-3.576-.155-5.365l.155-.148c2.875-.019 5.743-.035 8.624-.063l.108.147a17 17 0 0 0-.12 1.605l-.148.144a188 188 0 0 0-6.149-.104c-.022 1.459-.034 2.91-.034 4.373h2.137c1.206 0 2.44-.023 3.658-.063l.115.154a18 18 0 0 0-.115 1.6l-.125.137a169 169 0 0 0-4.521-.062h-1.149c-.023.97-.051 1.938-.051 2.896 0 .687.028 1.338.028 2.019h1.125c1.766 0 3.538-.04 5.287-.104l.097.147a72 72 0 0 0-.086 1.54m23.899.457c-1.303 0-2.88-.293-4.029-.91l-.057-.142c.057-.641.097-1.252.142-1.893l.229-.08c1.08.841 2.195 1.188 3.572 1.188 1.498 0 3.035-.594 3.035-2.32 0-3.158-6.978-2.217-6.978-7.005 0-2.824 2.462-3.973 4.966-3.973 1.302 0 2.468.234 3.679.681l.127.147c-.092.595-.127 1.212-.172 1.807l-.184.103c-1.103-.623-2.114-.961-3.394-.961-1.246 0-2.766.511-2.766 2.007 0 3.007 7.155 2.04 7.155 6.967.001 3.023-2.662 4.384-5.325 4.384m24.059-13.197-.103.14c-1.252-.036-2.526-.036-3.783-.036-.057 1.989-.035 3.983-.035 5.973 0 2.228.012 4.447.143 6.664l-.131.141c-.771 0-1.578.02-2.366.063l-.08-.144c.114-2.879.114-5.753.114-8.621 0-1.361-.034-2.75-.068-4.1-1.269.04-2.549.06-3.823.098l-.12-.131c.046-.521.057-1.018.057-1.532l.126-.142c3.354 0 6.721 0 10.069-.059l.102.144c-.068.51-.08 1.024-.102 1.542m19.064 12.864c-.8 0-1.577.036-2.377.063l-.149-.147c-.389-1.436-.8-2.875-1.211-4.316-.869-.017-1.715-.044-2.571-.044-.841 0-1.703.027-2.549.044a152 152 0 0 0-1.207 4.236l-.143.144c-.697.021-1.429.021-2.126.057l-.079-.137c.908-2.677 1.839-5.345 2.754-8.02.731-2.067 1.439-4.109 2.04-6.223l.154-.148c.995-.019 1.955-.019 2.938-.059l.143.144c1.406 4.771 2.949 9.491 4.463 14.242zm-6.183-12.994-2.149 6.927c.663 0 1.371.027 2.045.027.703 0 1.377-.027 2.08-.027zm23.151.13-.092.14c-1.252-.036-2.531-.036-3.789-.036-.063 1.989-.04 3.983-.04 5.973 0 2.228.023 4.447.143 6.664l-.12.141c-.776 0-1.583.02-2.36.063l-.102-.144c.114-2.879.114-5.753.114-8.621 0-1.361-.012-2.75-.045-4.1-1.28.04-2.554.06-3.829.098l-.125-.131c.045-.521.057-1.018.057-1.532l.12-.142c3.354 0 6.726 0 10.069-.059l.108.144c-.058.51-.069 1.024-.109 1.542m18.092 12.74-.142.147c-2.863 0-5.704.017-8.55.057l-.103-.147c.114-2.972.103-5.956.103-8.91 0-1.794-.022-3.576-.149-5.365l.149-.148c2.881-.019 5.749-.035 8.63-.063l.102.147a17 17 0 0 0-.12 1.605l-.142.144a188 188 0 0 0-6.149-.104c-.023 1.459-.04 2.91-.04 4.373h2.131c1.224 0 2.446-.023 3.658-.063l.126.154a24 24 0 0 0-.126 1.6l-.12.137c-1.498-.04-3-.062-4.521-.062h-1.148c-.022.97-.041 1.938-.041 2.896 0 .687.018 1.338.018 2.019h1.137c1.76 0 3.532-.04 5.269-.104l.115.147a27 27 0 0 0-.087 1.54m31.449-10.744v2.702c0 1.007.034 2 .034 3.001 0 3.582-1.657 5.498-5.394 5.498-2.424 0-4.726-.892-5.429-3.418-.195-.738-.195-1.514-.195-2.274 0-3.007.035-6.006-.068-8.983l.115-.148c.795-.019 1.543-.019 2.326-.063l.108.147c-.108 2.606-.08 5.224-.08 7.835 0 1.537-.182 3.732 1.349 4.664a4 4 0 0 0 1.977.508c.818 0 1.669-.206 2.28-.731 1.229-1.098 1.069-2.988 1.069-4.491 0-2.561 0-5.15-.148-7.721l.114-.148c.629-.019 1.257-.019 1.88-.063l.12.147c-.035 1.172-.058 2.36-.058 3.538m22.235 10.892c-.84 0-1.68.017-2.531.057l-.16-.147c-1.195-2.177-2.44-4.31-3.658-6.47l-3.247-5.794.207 7.046c.033 1.732.09 3.435.177 5.161l-.097.147a34 34 0 0 0-2 .057l-.12-.147c.12-2.715.108-5.425.108-8.139 0-2 .012-4.147-.115-6.137l.091-.148c.88-.019 1.76-.019 2.646-.063l.234.147c2.178 4.017 4.458 7.989 6.721 11.985-.114-3.973-.148-7.969-.354-11.922l.125-.148q.976.001 1.943-.063l.137.147c0 3.018-.074 6.019-.074 9.023 0 1.767.022 3.516.074 5.259zm13.265 0c-.778 0-1.532.017-2.297.057l-.126-.147c.086-1.412.115-2.828.115-4.253v-2.28c0-2.582-.035-5.159-.166-7.742l.13-.148c.755-.019 1.509-.019 2.269-.08l.12.165c-.034 2.173-.097 4.354-.097 6.533 0 2.588.052 5.165.184 7.749z"/><path fill="#231F20" d="M384.196 142.442c-.743 2.384-1.561 4.727-2.24 7.138l-.125.144c-.983 0-1.989.013-2.972.053l-.149-.14c-.188-.599-.319-1.209-.514-1.811-.309-1.085-.64-2.149-.965-3.245a661 661 0 0 0-2.834-9.23l.12-.142c.794-.019 1.583-.019 2.366-.063l.143.147c1.115 4.333 2.326 8.646 3.526 12.974l1.817-6.458c.629-2.139 1.155-4.315 1.761-6.459l.125-.142c.686-.019 1.394-.019 2.057-.063l.104.147c-.802 2.368-1.454 4.772-2.22 7.15"/><path d="m404.42 149.576-.143.147c-2.863 0-5.691.017-8.549.057l-.109-.147c.12-2.972.109-5.956.109-8.91 0-1.794-.012-3.576-.143-5.365l.143-.148c2.88-.019 5.749-.035 8.629-.063l.103.147a19 19 0 0 0-.12 1.605l-.148.144a188 188 0 0 0-6.143-.104c-.017 1.459-.04 2.91-.04 4.373h2.131c1.223 0 2.458-.023 3.658-.063l.125.154a24 24 0 0 0-.125 1.6l-.12.137c-1.502-.04-3-.062-4.521-.062h-1.148c-.017.97-.052 1.938-.052 2.896 0 .687.035 1.338.035 2.019h1.132c1.76 0 3.531-.04 5.274-.104l.097.147a46 46 0 0 0-.075 1.54m20.694.164c-.846 0-1.68.02-2.521.08l-.154-.08c-.663-1.165-1.395-2.262-2.137-3.37-.634-.967-1.235-1.909-1.915-2.83-.492 0-1 .013-1.492.013 0 2.017.057 4.011.16 6.023l-.125.147c-.766 0-1.498.017-2.264.057l-.114-.144c.057-2.01.08-4.004.08-6.022 0-2.748-.035-5.503-.207-8.257l.126-.148c.856 0 1.708-.035 2.56-.035h1.257c2.824 0 5.818.424 5.818 3.955 0 2.184-1.498 3.526-3.498 4.057 1.498 2.121 2.938 4.274 4.532 6.351zm-3.829-12.086c-.777-.835-2.034-.818-3.097-.818-.429 0-.892.018-1.314.04-.023.521-.023 1.069-.023 1.583v1.766c0 .557 0 1.088.023 1.646.308 0 .594.019.902.019 1.726 0 4.126-.303 4.126-2.579 0-.595-.194-1.2-.617-1.657"/><path fill="#231F20" d="M438.051 150.033c-1.291 0-2.868-.293-4.023-.91l-.069-.142c.069-.641.109-1.252.144-1.893l.234-.08c1.086.841 2.2 1.188 3.578 1.188 1.503 0 3.041-.594 3.041-2.32 0-3.158-6.996-2.217-6.996-7.005 0-2.824 2.481-3.973 4.978-3.973 1.297 0 2.469.234 3.674.681l.126.147c-.08.595-.126 1.212-.155 1.807l-.188.103c-1.12-.623-2.114-.961-3.383-.961-1.263 0-2.784.511-2.784 2.007 0 3.007 7.149 2.04 7.149 6.967.001 3.023-2.65 4.384-5.326 4.384"/><path d="M455.859 149.724c-.766 0-1.532.017-2.28.057l-.12-.147c.068-1.412.097-2.828.097-4.253v-2.28c0-2.582-.04-5.159-.166-7.742l.125-.148c.754-.019 1.514-.019 2.273-.08l.127.165c-.047 2.173-.109 4.354-.109 6.533 0 2.588.052 5.165.189 7.749zm19.533-12.888-.091.14c-1.252-.036-2.532-.036-3.794-.036-.058 1.989-.035 3.983-.035 5.973 0 2.228.012 4.447.144 6.664l-.132.141c-.776 0-1.577.02-2.354.063l-.092-.144c.109-2.879.109-5.753.109-8.621 0-1.361-.017-2.75-.063-4.1-1.269.04-2.549.06-3.817.098l-.114-.131c.023-.521.052-1.018.052-1.532l.12-.142c3.354 0 6.721 0 10.069-.059l.103.144c-.071.51-.082 1.024-.105 1.542m15.361 6.757c-.034.515-.034 1.028-.034 1.543 0 1.473 0 2.965.114 4.444l-.114.137c-.755 0-1.51.02-2.274.043l-.104-.144c.046-1.252.058-2.504.058-3.767v-2.086a197 197 0 0 0-4.521-8.337l.109-.218c.806-.035 1.584-.063 2.389-.139l.143.104c.611 1.201 1.172 2.446 1.755 3.658.479.965 1.017 1.907 1.469 2.885a116 116 0 0 0 3.264-6.383l.153-.125c.691 0 1.354-.019 2.029-.063l.12.164c-1.561 2.739-3.168 5.476-4.556 8.284m-337.546 31.704c-4.48 0-6.658-3.211-6.658-7.441 0-4.273 2.138-7.686 6.767-7.686 4.554 0 6.594 3.509 6.594 7.686 0 4.252-2.178 7.441-6.703 7.441m.045-13.418c-3.309 0-4.235 3.079-4.235 5.813 0 2.708.989 5.874 4.235 5.874 3.263 0 4.207-3.136 4.207-5.874-.001-2.818-.835-5.813-4.207-5.813m25.259.304-.125.147c-1.931-.091-3.846-.091-5.783-.104a394 394 0 0 0-.029 4.618c1.697-.018 3.389-.04 5.093-.098l.102.116c-.045.555-.085 1.096-.148 1.656l-.125.137c-1.623-.063-3.264-.063-4.892-.08 0 .384-.018.755-.018 1.155 0 1.696.018 3.412.143 5.115l-.108.144c-.79 0-1.583.017-2.372.061l-.102-.147c.08-2.007.114-4.023.114-6.046v-2.234c0-1.996-.034-4.013-.114-5.996l.102-.147c2.743 0 5.521 0 8.275-.063l.108.143c-.063.531-.086 1.086-.121 1.623m30.602 12.807c-.84 0-1.685.017-2.531.061l-.16-.147c-1.194-2.177-2.446-4.32-3.663-6.47l-3.24-5.8.194 7.052c.045 1.726.114 3.435.194 5.161l-.097.144c-.658 0-1.343.017-1.995.061l-.125-.147c.125-2.708.092-5.429.092-8.137 0-2.02.033-4.156-.115-6.14l.104-.147c.891-.022 1.771-.022 2.651-.063l.229.143c2.183 4.023 4.458 7.994 6.721 11.973-.103-3.956-.149-7.949-.354-11.905l.125-.147c.664 0 1.292-.022 1.95-.063l.12.143c0 3.022-.058 6.023-.058 9.019 0 1.776.023 3.52.058 5.269zm19.631-.143-.155.144a553 553 0 0 0-8.543.061l-.103-.147c.119-2.972.103-5.96.103-8.915 0-1.789-.022-3.571-.149-5.361l.149-.147c2.881-.022 5.749-.04 8.63-.063l.102.143a19 19 0 0 0-.114 1.604l-.148.139a214 214 0 0 0-6.149-.097 277 277 0 0 0-.034 4.377h2.137c1.206 0 2.44-.023 3.652-.057l.119.141a29 29 0 0 0-.119 1.596l-.12.144c-1.509-.04-2.995-.063-4.521-.063h-1.148c-.023.972-.047 1.937-.047 2.902 0 .687.023 1.338.023 2.013h1.125c1.777 0 3.537-.047 5.287-.098l.097.147c-.04.508-.057 1.022-.074 1.537m24.905-7.609c-.423 1.847-.881 3.699-1.28 5.551-.137.675-.286 1.37-.422 2.058l-.15.147c-.994 0-1.965.013-2.96.057l-.142-.147c-.229-1.401-.497-2.771-.761-4.144l-1.668-8.863c-.88 4.313-1.744 8.623-2.584 12.95l-.125.147c-.989 0-2 .013-2.983.057l-.148-.147c-.469-2.407-1.023-4.808-1.554-7.205a272 272 0 0 0-1.623-7.071l.103-.147c.777-.022 1.561-.022 2.343-.063l.114.143c.743 4.338 1.629 8.675 2.447 12.995.805-4.32 1.645-8.617 2.411-12.928l.12-.147c1.092-.022 2.183-.022 3.263-.063l.132.143c.199 1.463.468 2.915.736 4.378l1.623 8.65 1.606-8.113c.326-1.625.634-3.235.875-4.848l.125-.147c.681-.022 1.337-.022 2.011-.063l.115.143c-.71 2.199-1.133 4.433-1.624 6.677m25.202-1.563c0 1.787.045 3.56.045 5.343 0 2.594-1.045 4.103-3.852 4.103-.503 0-.995-.073-1.509-.177l-.104-.166v-1.583l.115-.114a4.1 4.1 0 0 0 1.177.178c.943 0 1.474-.431 1.748-1.355.12-.411.104-2.224.104-2.708v-1.526c0-2.343-.045-4.708-.137-7.047l.12-.142c.754 0 1.526-.029 2.292-.063l.102.147c-.033 1.702-.101 3.412-.101 5.11"/><path fill="#231F20" d="m298.337 174.847-.148.144c-2.856 0-5.681.017-8.549.061l-.103-.147c.126-2.972.103-5.96.103-8.915 0-1.789-.012-3.571-.137-5.361l.137-.147c2.88-.022 5.761-.04 8.629-.063l.108.143a21 21 0 0 0-.13 1.604l-.138.139a214 214 0 0 0-6.137-.097c-.023 1.462-.046 2.912-.046 4.377h2.138c1.21 0 2.445-.023 3.656-.057l.12.141a30 30 0 0 0-.12 1.596l-.125.144c-1.498-.04-2.995-.063-4.514-.063h-1.155c-.022.972-.045 1.937-.045 2.902 0 .687.023 1.338.023 2.013h1.13c1.772 0 3.532-.047 5.28-.098l.115.147c-.052.508-.068 1.022-.092 1.537"/><path d="M319.037 175.007c-.846 0-1.692.021-2.538.084l-.137-.084c-.652-1.168-1.395-2.257-2.15-3.372-.628-.965-1.222-1.903-1.903-2.835-.498 0-1.012.011-1.491.011 0 2.029.052 4.017.16 6.036l-.131.147c-.76 0-1.492.013-2.257.057l-.12-.147c.063-2.007.074-4.013.074-6.029 0-2.744-.034-5.499-.206-8.247l.132-.147c.863 0 1.703-.04 2.566-.04h1.257c2.806 0 5.806.428 5.806 3.96 0 2.184-1.486 3.526-3.492 4.051 1.504 2.116 2.944 4.276 4.521 6.356zm-3.829-12.082c-.778-.846-2.035-.818-3.104-.818-.429 0-.886.02-1.32.04-.022.527-.022 1.059-.022 1.572v1.772c0 .555 0 1.092.022 1.646.315 0 .606.017.915.017 1.726 0 4.12-.31 4.12-2.571 0-.595-.2-1.208-.611-1.658m16.767 12.372c-1.292 0-2.88-.29-4.028-.901l-.063-.144c.063-.641.103-1.269.137-1.896l.235-.08c1.091.839 2.206 1.188 3.577 1.188 1.503 0 3.035-.595 3.035-2.32 0-3.172-6.983-2.219-6.983-7.007 0-2.818 2.457-3.967 4.978-3.967 1.297 0 2.463.224 3.674.681l.125.144c-.08.594-.125 1.212-.171 1.816l-.183.087c-1.108-.607-2.115-.961-3.383-.961-1.257 0-2.777.508-2.777 2.017 0 3.001 7.155 2.035 7.155 6.967-.002 3.011-2.654 4.376-5.328 4.376m24.173-.45-.155.144c-2.857 0-5.686.017-8.549.061l-.097-.147c.125-2.972.097-5.96.097-8.915 0-1.789-.017-3.571-.142-5.361l.142-.147c2.886-.022 5.754-.04 8.635-.063l.104.143a21 21 0 0 0-.132 1.604l-.143.139c-2.052-.059-4.08-.097-6.138-.097-.022 1.462-.045 2.912-.045 4.377h2.137c1.223 0 2.44-.023 3.664-.057l.12.141a24 24 0 0 0-.12 1.596l-.12.144c-1.509-.04-3-.063-4.526-.063h-1.155c-.017.972-.04 1.937-.04 2.902 0 .687.023 1.338.023 2.013h1.125c1.771 0 3.543-.047 5.28-.098l.115.147a24 24 0 0 0-.08 1.537m15.693-5.984c-.012.519-.012 1.028-.012 1.536 0 1.479 0 2.961.091 4.44l-.091.15c-.766 0-1.532.017-2.292.033l-.109-.137c.045-1.263.063-2.515.063-3.767v-2.097c-1.463-2.813-2.932-5.585-4.509-8.339l.098-.211c.8-.04 1.583-.057 2.383-.144l.143.104c.611 1.212 1.171 2.446 1.766 3.656.468.968 1.005 1.909 1.462 2.897a130 130 0 0 0 3.269-6.383l.16-.131c.674 0 1.337-.023 2.011-.057l.125.164c-1.552 2.737-3.17 5.469-4.558 8.286"/><path fill-rule="evenodd" clip-rule="evenodd" fill="#C03" d="m148.023 94.919 3.498-1.052V35.023c0-14.24 0-14.824 4.549-15.292l4.205-.35v-2.515h-28.351v2.515l4.2.35c4.544.468 4.544 1.052 4.544 15.292v47.402c-1.749 2.1-8.973 9.334-21.11 9.334-18.076 0-20.882-11.087-20.882-27.78V35.023c0-14.247 0-14.824 4.549-15.292l4.195-.35v-2.515H79.075v2.515l4.206.35c4.55.468 4.55 1.045 4.55 15.292v30.819c0 15.875 1.977 29.78 26.127 29.78 15.521 0 25.202-7.351 26.831-7.351 1.754-.005 2.68 1.624 4.32 3.258zm31.254-1.052h32.312v-2.514l-4.195-.354c-6.537-.457-6.537-1.034-6.537-15.287V20.13h6.068c16.448 0 16.676 1.762 19.253 15.3h2.794c0-.47-.589-15.995-1.058-18.563h-64.971c-.48 2.567-1.052 18.093-1.052 18.563h2.801c2.56-13.538 2.788-15.3 19.248-15.3h6.068v55.582c0 14.253 0 14.83-6.412 15.287l-4.32.354zm121.508-15.354c0-11.361 0-11.943 2.217-12.407l4.206-.35v-2.514h-29.631v2.514l4.2.35c8.161.464 8.161 1.046 8.161 15.332v8.813c-4.092 1.046-9.447 1.509-13.647 1.509-22.865 0-33.008-18.482-33.008-38.37 0-21.823 12.012-34.419 31.133-34.419 19.956 0 21.464 14.235 22.641 18.903l3.15-.708c-.514-5.749-1.126-12.279-1.87-17.264-3.035-1.863-11.897-4.777-23.796-4.777-18.435 0-43.512 9.325-43.512 40.483 0 29.728 20.996 40.015 44.438 40.015 12.481 0 21.419-3.365 25.545-4.657 0 0-.227-8.945-.227-12.453m13.589 15.354h53.444c1.509-6.313 2.823-12.133 3.841-19.371l-2.915-.471c-2.332 9.579-3.503 16.573-22.082 16.573-4.184 0-8.492-.702-12.687-1.513V55.482h10.361c9.08 0 11.173.126 11.864 4.904l.6 3.959h3.07v-20.99h-3.07l-.6 3.96c-.691 4.784-2.784 4.909-11.864 4.909h-10.361V20.13h9.67c16.463 0 16.698 1.762 19.269 14.248l2.801-.47c0-1.063-.595-14.474-1.063-17.041h-50.278v2.515l4.206.35c4.543.468 4.543 1.052 4.543 15.302V75.69c0 14.264 0 14.852-4.543 15.309l-4.206.354zm66.427 0h28.231v-2.514l-4.212-.354c-4.423-.457-4.423-1.041-4.423-15.298v-15.43h4.327c2.439 0 5.349 0 7.234 1.521 1.509 1.279 4.183 5.726 7.218 11.445l4.664 9.008c3.502 6.423 8.863 11.622 16.566 11.622h8.978v-2.514c-2.566 0-4.663-.458-5.829-1.159-2.915-1.646-8.058-8.54-12.949-17.3-3.155-5.606-7.006-13.099-8.761-16.36 6.423-3.041 16.098-9.459 16.098-20.329 0-17.738-15.624-19.338-26.693-19.338h-30.449v2.515l4.195.35c4.549.468 4.549 1.052 4.549 15.302v40.668c0 14.257 0 14.841-4.549 15.298l-4.195.354zm19.596-72.216c2.337-.468 4.783-.928 7.229-.928 9.109 0 18.082 4.196 18.082 17.849 0 13.178-8.869 18.425-18.665 18.425h-6.646zM474.81 46.03c-6.31-3.726-11.321-7.458-11.321-14.344 0-7.818 5.949-12.716 12.715-12.716 13.178 0 15.046 10.155 16.218 15.989h2.915c-.274-3.405-.56-11.956-1.172-16.116-3.034-1.856-8.863-3.719-16.086-3.719-12.373 0-24.277 5.942-24.277 20.172 0 8.75 6.184 15.985 12.835 19.602l7.475 4.093c9.087 4.073 16.213 9.909 16.213 18.423 0 9.104-5.961 14.346-13.996 14.346-15.996 0-20.31-13.875-21.59-22.277l-3.726.932c1.309 7.995 2.606 16.128 3.726 20.539 3.611 2.217 9.211 4.67 18.31 4.67 12.367 0 26.952-6.069 26.952-21.818 0-14.009-9.556-18.906-18.791-24.151z"/><path fill-rule="evenodd" clip-rule="evenodd" fill="#C03" d="M52.261 49.413c1.32 7.395 11.63 26.385 15.579 33.442 8.932 16.477 31.82 49.804 48.958 48.742l1.973.004-.018 2.704-3.005.097c-24.213.944-45.844-26.019-58.428-47.644-5.12-8.794-10.081-19.007-14.498-28.175-1.108-2.364-2.491-3.873-4.04-4.811-2.383-1.27-5.503-1.246-8.075-1.246-1.492-.017-5.933 0-8.241 0l-.012 19.436c0 3.578-.274 12.425.698 15.904.76 2.744 2.429 3.099 5.178 3.389l4.743.389v2.206H0v-2.206l4.749-.389c2.817-.29 4.514-.634 5.292-3.389.994-3.445.72-12.35.72-15.904V21.955c0-3.539.274-12.453-.72-15.895-.778-2.754-2.475-3.095-5.292-3.388L0 2.277v-2.2h22.544C42.398.083 69.183-2.74 69.183 25.16c0 11.298-7.674 18.653-17.064 23.271.028.451.142.982.142.982m-29.797.023c3.578.194 7.407-.103 10.984-.103 13.807 0 22.252-7.406 22.252-21.208 0-15.018-8.572-24.229-23.875-24.229-3.155 0-6.258.617-9.35 1.229z"/></svg>