<svg version="1.0" xmlns="http://www.w3.org/2000/svg" width="422.667" height="420" viewBox="0 0 317 315"><g fill="#FB0D1B"><path d="M137.3 1.6c-28.5 4.1-55.6 15.7-77.8 33.3-7.7 6.2-21.7 20.7-28 29.1-41.9 56.5-41.8 131.5.5 187.5 46.2 61.2 128.8 80.6 197.4 46.3 16.2-8.1 27-15.9 40.9-29.6 44.4-43.8 58.3-109 35.6-167.7-11.3-29.3-34.7-57.8-61.8-75.2-31-19.9-71.4-28.9-106.8-23.7zM178 8.5c33.6 4.7 62.2 18.4 85.7 40.9 24 22.9 38.7 50.1 44.9 83.1 2.3 12.2 2.3 37.8 0 50-11.1 59.1-53.7 104.9-111.9 120.5-9.9 2.6-28.1 5-38.2 5s-28.3-2.4-38.2-5c-25.1-6.8-48.4-19.6-66.5-36.8-24.3-23.1-39.1-50.6-45.4-83.7-2.3-12.2-2.3-37.8 0-50 6.2-33 20.9-60.2 44.9-83.1C86.4 17.7 133.5 2.3 178 8.5z"/><path d="M108.6 20.6c-1.4 1.4-1.3 1.9 1.4 5.2 1.6 2.1 4 6.9 5.4 10.7 3.4 10.1 7.3 18.5 8.5 18.5 1.9 0 1.2-2.5-3.5-12.5-3-6.5-4.8-11.8-5.1-15.4-.8-7.9-3.1-10.1-6.7-6.5zm106.2 10.6c-1.1 3.6-1.8 4.4-4.1 4.6-1.6.2-3.5-.2-4.3-.9-1.2-1-1.8-.9-3 .3-2 2-.3 5.8 2.6 5.8 1.1 0 2 .4 2 .9 0 1.9-6.5 5.9-10 6.3-3.5.3-5.3 2.9-3.3 4.9 1.3 1.3 11.6-4.5 15.3-8.8 2.6-2.9 4.1-3.7 8.1-4.2 5.7-.7 6.6-2.5 1.4-2.9-3.9-.4-4.5-1.6-1.5-3.2 2.7-1.5 2.8-7 .1-7-1.4 0-2.3 1.2-3.3 4.2zm-110.3 3.2c-1.9 1.4-1.9 1.4 0 3.6 1.1 1.2 2.7 4 3.6 6.3 2.1 5.3 3.9 5.9 3.9 1.4 0-3.5-3.5-12.7-4.9-12.7-.4 0-1.6.6-2.6 1.4zM96 36.3c0 .7 1.3 3.8 2.9 6.8s3.2 7.5 3.5 10c.4 2.6 1.4 5.5 2.2 6.5 1.4 1.7 1.5 1.5.9-3.4-.3-3-1.7-9-3.1-13.3-2-6.3-2.9-7.9-4.4-7.9-1.1 0-2 .6-2 1.3zm114.5 15.9c1.4 6.4 2.3 7.8 5 7.8 3.4 0 3.2-2.2-.7-7.1-3.8-4.8-5.2-5-4.3-.7zM143.3 55C102.5 60.8 68 92.7 58 133.9c-8.2 33.9 2.7 70.9 28.3 96.3 6.2 6.1 20.6 16.8 22.7 16.8.8 0 2.3-3.1 1.8-3.5-.2-.1-3.1-2.1-6.6-4.3-21.8-14.3-37.1-36.4-42.8-61.7-2.6-11.4-2.4-31.1.4-42.5 4.5-18.2 13.8-34.9 26.6-47.6 21.2-20.9 51.8-31.8 79.7-28.5 44.4 5.3 77.6 34.8 87.5 77.7 2.5 10.6 2.5 29.9 0 40.9-5.7 25.3-21 47.4-42.8 61.7-3.5 2.2-6.5 4.3-6.7 4.5-.3.2.2 1 1 1.9 1.4 1.3 2.3 1 9-3.5 46.5-31.1 59.4-93.9 28.9-141-14-21.5-36.1-37.4-61.5-44.1-9.1-2.4-30.1-3.4-40.2-2zM50.5 74.5c-4.9 2.3-6.4 3.9-9.7 10.6-2.5 5-3.2 7.7-3.2 12.6-.1 5.3-.4 6.3-1.9 6.3-2.5 0-3.2 2.7-1.3 4.9 1.7 1.9 8.6 4.1 12.5 4.1 3.1 0 2.7-3.6-.3-4.4-4.1-1-5.6-3.3-5.5-8.4 0-2.6.3-4.1.6-3.5.2.7 1.6 1.3 2.9 1.3 2 0 2.4.5 2.4 2.9 0 3.2 2.6 6.3 3.4 4 .3-.8.7-3 .8-4.9.2-2.5 1-3.8 2.6-4.6 3.6-1.8 4-2.4 5.5-9.4.8-3.6 1.7-7.2 2.1-8.1 1.8-4.1-5-6.2-10.9-3.4zm3.3 10.2c-.2 5.5-.6 6.8-2 7.1s-1.8-.3-1.8-2.3c0-1.8-.6-2.9-2-3.2-2.7-.7-2.5-2.2.7-5.5 4.4-4.6 5.4-3.8 5.1 3.9zm-7.3 7c.5 2 .3 2.3-1.9 2.3-2.8 0-3.2-1-1.5-4.2 1.2-2.2 2.3-1.6 3.4 1.9z"/><path d="M139 75.5c0 .2.5 1.5 1.1 2.9 1.3 2.8 5.9 5.1 8.9 4.3 1.1-.3 2.3-.1 2.6.4s-.4.9-1.6.9c-3.4 0-7.5 2.6-9 5.7-.7 1.6-1.5 7.7-1.8 14.5l-.4 11.8H133c-6.5 0-11.6 1.5-12.4 3.6-.3.8-1.3 14-2.1 29.4-2.2 39.3-4.1 61.4-5.5 64.1-.7 1.3-2.8 4.5-4.7 7.2l-3.5 4.7h6.1c6 0 6.1-.1 8.7-4 2.7-4.1 4.5-4.9 2.5-1.2-2.2 4.2-1.5 5.2 3.9 5.2 4.3 0 5.2-.3 5.9-2.3.5-1.3 1.4-14.7 2.1-29.7 2.2-53.7 2.5-57.2 4.5-58.7 1.1-.7 3.4-1.3 5.3-1.3h3.4l-3 3.4-2.9 3.4-.7 18.3c-.3 10.1-.7 26.1-.8 35.4-.2 16.2-.1 17.2 2 20.7 4.6 7.5 12.7 11.7 19.5 10.3 5.7-1.2 11.5-5.3 14.3-10.1l2.7-4.5-1.2-35.2c-1-27.7-1.5-35.7-2.7-37.5-.8-1.2-1.9-2.2-2.4-2.2-.6 0-1-.5-1-1 0-1.6 6.6-1.2 8 .5 1.2 1.5 2 13.3 4 61.4 1.1 28.7 1.3 29.1 9 29.1 2.8 0 5-.2 5-.5s-.9-2.4-2-4.5c-2.7-5.3-1.9-5.1 2.1.5 3.1 4.4 3.4 4.5 8.6 4.5 2.9 0 5.3-.2 5.3-.5s-1.6-2.5-3.5-5-3.9-6.2-4.4-8.3c-.5-2-1.7-15.9-2.6-30.7-3.4-55.8-3.9-60.6-6.5-62.7-1.8-1.5-3.7-1.9-8.2-1.7-3.2.1-6 0-6.3-.2-.2-.3-.9-5.9-1.6-12.4-.7-7.1-1.8-13.1-2.7-14.7-1.6-2.8-5-4.8-8.2-4.8-1.1 0-2-.4-2-.9s1.7-.7 3.9-.4c3.1.4 4.3.1 6-1.6C176 80 177 78 177 76.8c0-1.7-.3-1.9-1.2-1-.7.7-3.8 1.2-7 1.2-5.7 0-5.9.1-7.5 3.5-.9 1.9-2.3 3.5-3 3.5s-2.1-1.6-3-3.5c-1.6-3.4-1.8-3.5-7.4-3.5-3.2 0-6.1-.5-6.4-1-.6-1-2.5-1.4-2.5-.5zm23.9 12.1c3.9 3.3 4.1 7.4.6 10.9-1.3 1.4-2.9 2.5-3.5 2.5s-1 5.5-1 16v16h3.5c4.1 0 4.3.5 1.3 3-2.3 1.8-2.3 2-2.8 37.7-.5 35-.5 35.8-2.5 35.8s-2-.8-2.5-35.2l-.5-35.2-2.9-3-3-3.1h6.4v-31.2l-3-2.8c-3.2-3-3.7-5.4-1.9-9.4 2.3-4.9 7.4-5.8 11.8-2zM265 94.5c-1.6 1.9-.3 3.6 5.1 6.3 4.7 2.4 10.6 11.5 6.4 9.8-2-.7-1.9.4.5 3.4 1.8 2.3 2 2.4 3.5.9 1.3-1.3 1.5-2.1.6-3.7-1.6-3.1-1.4-3.4 2-2.7 2.1.5 2.9.4 2.5-.3-1-1.7 1-2.3 3.7-1.1 2 .9 2.8.7 5-1.4 1.5-1.3 2.7-2.7 2.7-3.1 0-1-4.8-.7-5.4.3-.7 1-3.1.9-4.2-.2-.4-.4-1.2-.2-1.9.3-.6.5-2 1.1-3.1 1.3-1 .1-2.4.6-3 1-.6.3-1.4.4-1.8 0-.9-1 1.5-3.3 3.5-3.3 1 0 2.1-.5 2.4-1 .3-.6 1.9-1 3.6-1 1.9 0 2.9-.5 2.9-1.5 0-1.7-.5-1.8-2.8-.6-3 1.5-7.2 2.2-7.2 1.1 0-.5.8-1 1.9-1 2.1 0 4.8-2.7 3.7-3.7-.4-.4-1.5-.2-2.4.4-.9.7-3.7 2.2-6.1 3.4l-4.4 2.2-3.2-3.7c-2.8-3.4-3.3-3.6-4.5-2.1z"/><path d="M260 103.3c0 .8 1.1 2.4 2.5 3.7 2.8 2.6 2.5 4-1.1 4-1.9 0-2.4-.5-2.4-2.5 0-2.8-1.5-3.4-2.4-.9-1.4 3.7-.7 4.4 4.3 4.4 4 0 5 .3 5.4 2 .3 1.1 1.3 2 2.2 2 1.4 0 1.7-.6 1.2-3.5-.5-3.2-.4-3.5 1.9-3.5 1.3 0 2.4-.4 2.4-.8 0-1.5-5-5.6-5.7-4.8-.5.4 0 1.3 1 2 2.3 1.8 2.1 2.6-.6 2.6-1.4 0-3.2-1.2-4.5-3-2.4-3.2-4.2-3.9-4.2-1.7zm15.2 47.2c0 2.2.2 3.4.5 2.7.6-1.5 3.1-1.5 6.1.2l2.4 1.3-3.3 2.1c-2.4 1.5-3.7 1.8-4.6 1-1.4-1.2-1.7 1-.7 4.8.6 2.1.7 2.1 5.7-1.2 5.8-3.8 11-4.5 12.6-1.7.8 1.4 1 .4 1.1-4.2 0-5.7-.1-5.8-1.6-3.7-.9 1.3-2.5 2.2-4.2 2.2-3.3 0-12.8-4.3-13.5-6.1-.3-.8-.5.4-.5 2.6zm-252.1-1.3c.1.7-.1 3-.5 5.1-.6 2.7-.4 4.3.7 6.1 3.2 4.9 8.6 3.4 11.3-3.1 1.6-3.7 3.9-5.2 5.6-3.5 1.6 1.6.1 6-2.2 6.7-2.9.9-2.4 2.5.8 2.5 2.6 0 2.7-.3 3-5.1.3-5.8-1.6-8.9-5.4-8.9-2.3 0-6.4 4.2-6.4 6.5 0 .6-.8 2-1.9 2.9-1.7 1.6-2 1.6-3.5 0-2.7-2.6.2-8.4 4.1-8.4.7 0 1.3-.5 1.3-1 0-.6-1.6-1-3.5-1-2.3 0-3.5.4-3.4 1.2zm251.4 22.2c-1.5 6.9-2.5 14.8-2 15.6.3.6 1.8 1 3.2 1h2.7l-2.2-2c-2.6-2.5-2.9-5-.4-4.9.9 0 4.6.6 8.1 1.2 4.8 1 6.6 1.8 7.1 3.2.5 1.5.8 1 1.3-2 .9-5.6.9-7.3-.1-5.7-.7 1-2.3 1-8.3 0-4.1-.6-7.8-1.5-8.3-1.9-1.3-1.1 1.2-3.9 3.5-3.9 3.1 0 2.2-1.7-1.1-2.2-2.5-.4-3.1-.1-3.5 1.6zm-233 .2c-.6 1-3.9 1.9-8.8 2.6-6.6.9-8 .9-8.9-.3-.8-1.1-.9-1-.4.4.3 1 .6 3.4.6 5.3 0 3.3 0 3.4 1.9 1.5 2.3-2.3 14.5-3.9 16.5-2.2 1.1.9 1.3.3.8-3.6-.6-5.7-.5-5.6-1.7-3.7zm-8.1 19.3c-1.7 1.1-3.4 3.1-3.8 4.5-1.4 5.8 2.6 12.7 7.3 12.5l2.6-.2-2.5-.4c-3.6-.7-6-3.2-6-6.3s2.1-5.3 6.9-6.9c4.6-1.5 6.7-1.4 8.5.5 2.2 2.2 2 5.4-.6 8.2l-2.3 2.5 3-.7c3.2-.8 5.8-2.6 3.7-2.6-.7 0-1.2-1.5-1.2-3.6 0-7.7-8.5-11.8-15.6-7.5zm235.2 4.4c-.3 1.4-.9 3.3-1.3 4.3-.4 1.2-.3 1.5.6 1 2-1.2 16.1 4.3 16.1 6.3.1 1.8 2.3-1.8 3.5-5.9.7-2.1.6-2.3-.7-1.3-1.1 1-2.9.7-8.7-1.6-4-1.6-7.7-3.4-8.1-4.1-.5-.8-.9-.4-1.4 1.3zM53.2 209.7c.4 2-11.7 9.4-14.4 8.9-1.5-.4-1.5.1.4 3.8 1.6 3 2.3 3.6 2.6 2.3.2-.9 1.7-2.4 3.4-3.3 3-1.6 3.2-1.5 4.9.7 1 1.3 1.9 2.7 1.9 3 0 1-7.1 4-8.1 3.4-1.5-1-1 .8 1.1 4.2 2 3.4 3.4 4.4 2.4 1.9-.7-1.7 12.2-8.9 14.7-8.3 1.7.5 1.7.3-.1-3.4l-2-3.8-2.5 2.4c-3.1 3.2-4.9 3.2-6.3 0-.7-1.4-1.2-2.7-1.2-2.9 0-.9 6-2.7 6.9-2.1 1.6.9 1.4-.1-.9-4.5-2.1-4.2-3.3-5.1-2.8-2.3zm209.8.5c0 .7-.8 1.8-1.9 2.5-2.7 1.7-3.5 6-1.6 8.9 2.1 3.2 5 3 10.4-.6 3.9-2.6 4.7-2.9 5.9-1.6 3.1 3.1-2.2 8.6-6.9 7.1-1.1-.4-1.9-.4-1.9-.1 0 .9 6.1 3.8 6.8 3.2.3-.3.2-.6-.2-.6s.4-1.4 1.8-3.1c3-3.6 3.4-7.9.8-10.2s-3.8-2.1-9.3 1.4c-4.9 3.1-6.9 3.1-6.9 0 0-2.5 2-4.1 5.3-4.1 3 0 2.9-1.3-.4-3-1.4-.8-1.9-.7-1.9.2zm-196.7 20c.2.7-2 3.9-4.9 7-3 3.1-5.4 6.4-5.4 7.3 0 2.2 6.3 8.5 8.5 8.5.9 0 4.1-2.3 7-5.1 3.6-3.4 6-4.9 7-4.5 1.3.5 1.3.2-.2-1.9-2-2.7-3.6-3.3-2.7-1.1.6 1.6-9.2 11.5-11.3 11.6-1.6 0-5.3-3.6-5.3-5.1 0-.5 2.3-3.5 5.2-6.5 4-4.3 5.6-5.3 7.2-4.8 1.7.5 1.4-.1-1.3-3-3.7-3.8-4.5-4.3-3.8-2.4zm183 .3c-3.4 2.4-9.2 10-6.9 9.2 1.4-.5 3.3.5 7.3 3.9 3 2.6 5.8 5.4 6.1 6.4.6 1.3 1.2 1 3.7-1.9 1.9-2.2 2.4-3.3 1.3-2.8-1.7.6-6.8-2.6-6.8-4.4 0-1.4 2.9-1.1 6.1.8 2.8 1.7 3 1.7 5-.4 1.5-1.4 1.9-2.7 1.5-3.9-.4-1.1-1-1.4-1.4-.8s-2.6 1-4.9 1c-4-.1-4.1-.2-3.6-2.8 1-5-3-7.4-7.4-4.3zm4.5 5.5c.6 3.9-1.5 4.7-4.5 1.8-2.2-2.2-2.4-2.9-1.4-4.2 1.7-2 5.5-.5 5.9 2.4zM133 238.9c-2.1.6-2.2.8-.7 1.4 1.3.5 1.7 1.8 1.7 6.1 0 4.2-.4 5.7-1.7 6.5-1.4.8-.7 1 3.2 1s4.6-.2 3.3-1c-1.5-.8-1.8-2.4-1.8-7.9 0-3.9-.3-7-.7-6.9-.5.1-1.9.4-3.3.8zm14.8.2c-1.9 1.1-2.4 5.4-.8 6.4.6.4.4 1.5-.6 2.9-1.3 2.1-1.3 2.5.1 4 2.3 2.2 7.1 2 9.5-.4s2.5-3.4.5-5.4c-1.3-1.2-1.3-1.9-.3-3.5.9-1.5.9-2.3-.1-3.5-.8-.9-2-1.6-2.8-1.6-1.2 0-1.2.2.1 1.5 1.5 1.5 1.2 4.5-.4 4.5-3.5 0-5.6-4.2-2.7-5.3.6-.3.8-.6.2-.6-.5 0-1.8.4-2.7 1zm4.7 9.3c2.3 1.6 1.4 4.6-1.5 4.6-2.3 0-3.5-2.2-2.6-4.5.7-1.9 1.7-1.9 4.1-.1zm10.8-9.2c-2.9 3.7-1.2 8.8 2.8 8.8 1.9 0 1.9-.1.5-1.6-1.9-1.8-2-3.8-.6-6.5.8-1.5.7-1.9-.3-1.9-.8 0-1.9.6-2.4 1.2z"/><path d="M168.9 239.8c1.6 3 .6 11.4-1.5 12.9-2.2 1.6-1.3 1.7 2 .1 1.6-.7 2.9-2.4 3.5-4.5 1.1-3.7.6-5.8-1.7-8.6-2-2.2-3.5-2.2-2.3.1zm11.8-.6c-3.8 3-4.3 9.2-.9 13 2.3 2.7 2.7 2.2 2.4-2.7-.3-3.6-.1-4.5 1.2-4.5 2 0 3.1 4.2 1.6 6.9-1.2 2.3-.2 2.7 2.2.8 3.7-3 2-8.7-2.8-8.7-2.6 0-3.3-2.7-1.2-4.8 1.6-1.6-.4-1.6-2.5 0z"/><path d="M185.6 239.6c-.8 2.2-.8 2.4.8 2.4 2.1 0 2.8-1.6 1.2-2.9-1.1-.9-1.5-.8-2 .5zm42.9 10.1c-3.8 3.1-6.2 5.3-5.3 5 2.5-.9 12.1 10.9 11.2 13.7-.4 1.3 1.3.4 5.7-3 3.4-2.7 6.7-5.2 7.3-5.6s.3-1.6-.8-3.2c-2.2-3.4-3.4-3.3-2.8.2.2 1.8-.4 3.7-1.6 5.2l-2 2.5-2.5-2.3c-1.3-1.3-3.8-4.3-5.6-6.7-2.9-4.1-3-4.4-1.4-6 1.2-1.3 2.7-1.6 5.6-1.2l3.9.5-2.3-2.4c-1.2-1.3-2.3-2.4-2.3-2.4-.1.1-3.2 2.6-7.1 5.7zm-66.3 2c.4 2.4 2.3 2.7 2.5.3.1-1.2-.4-2-1.3-2s-1.4.7-1.2 1.7z"/><path d="M235.2 252c.3.8.2 2.2-.3 3.1-.6 1.2-.2 1.6 2.1 1.6 2.4 0 2.7-.3 2-1.7-.5-.9-1.7-2.3-2.6-3.1-1.5-1.2-1.7-1.2-1.2.1zm-151.3 4.2c-3.5 2.3-7.7 4.4-9.4 4.7l-2.9.7 3.2 2.2c2.3 1.7 3 1.9 2.6.8-.6-1.6 1.1-4.6 2.6-4.6.4 0 1.9.9 3.3 2 2.1 1.7 2.4 2.5 1.8 4.3-.6 1.4-1.5 2.1-2.7 1.9-1.1-.2 0 1 2.3 2.7 5 3.6 5.3 3.7 4.6 1.2-.3-1.1.2-5.4 1.1-9.6 1.8-8.8 1.9-10.5.8-10.5-.5 0-3.8 1.9-7.3 4.2zm2.7 3.3c-.6 2.2-.9 2.4-2.6 1.3-2.6-1.6-2.5-2.3.3-3.5 2.8-1.3 3.1-1 2.3 2.2zm128.8-1c-1.7 1.3-1.7 1.4-.1 1.5.9 0 1.7.6 1.8 1.2 0 .7.4 3.4.8 6 .4 2.7.5 4.8.1 4.8-.3 0-2.3-1.8-4.4-3.9-2.5-2.5-3.7-4.5-3.3-5.5.8-2 .6-2-3.6 0l-3.3 1.6 7.5 7.3c4.2 4 7.9 7.1 8.4 6.8s.5-4.1.1-8.7c-.4-4.4-.7-9.1-.7-10.4.1-2.6-.6-2.7-3.3-.7zm-110.5 2.8c1.6 2-4.7 15.5-7.3 15.9-1.5.2-1 .7 1.7 2 3.6 1.7 3.7 1.7 2.5-.2-1-1.5-.8-2.8 1.2-6.9 1.3-2.8 2.7-5.1 3.1-5.1s1.2 3 1.9 6.7c1.5 7.9 2.6 11.3 3.8 11.3.4 0 2.1-3 3.7-6.7s3.7-7.5 4.6-8.4c1.6-1.6 1.5-1.7-.8-2.8-2.2-1-2.4-.9-1.9.7s-2.8 11.2-3.8 11.2c-.2 0-.9-3-1.5-6.8-1.6-9.3-1.8-9.7-4.7-11-3.3-1.5-3.9-1.5-2.5.1zm86.4 7c-1.8.6-3.3 1.5-3.3 2 0 .4.4.6.9.3 1.3-.9 2.6 1.3 4.9 8.3 1.8 5.2 1.9 6.7.9 7.9-1 1.3-.8 1.4 1.3.7 5.4-1.7 7.5-2.8 6-3.2-1.9-.4-6.4-12.6-5.7-15.3.6-2.2-.1-2.3-5-.7zm-13.8 3.7c-1.7.7-1.7.9-.3.9 1 .1 2 1.1 2.2 2.3 1.3 6.3 1.5 8.8.7 8.8-.5 0-3-2.5-5.6-5.5-3.5-4.2-5.3-5.5-7.4-5.5-3.4 0-4.5 1-2.7 2.4.8.6 1.8 4.2 2.4 8.1.9 6 .8 7.2-.6 8.2-1.4 1.1-1.3 1.3.9 1.2 1.3 0 3.3-.4 4.4-.9 1.9-.8 1.9-.9-.2-.9-1.8-.1-2.3-.8-2.8-4.9-.3-2.6-.8-5.5-1-6.5-.6-2.9.8-2 6.8 4.8 6.8 7.6 9.2 8.4 8.3 2.7-1.7-11.5-1.8-13.3-.6-14.7 1-1.2.9-1.5-.6-1.4-1.1 0-2.8.4-3.9.9zm-37.5 1.5c.8 1 1 3.5.5 8.3-.8 7.8.5 9.8 6.6 10.7 3.1.5 3.2.5.9-.5-1.3-.6-2.7-1.6-3.1-2.2-1.2-1.8.2-14.2 1.7-15.4 1.3-1 1.2-1.3-.2-1.8-.8-.3-2.9-.6-4.6-.6-2.6 0-2.9.2-1.8 1.5zm13.1 1.2c1.8 2.1 1.3 11.9-.7 15-1.2 2-1.2 2.2.1 1.7 1.7-.7 2.2-2.1 3-10.2.5-4.8 1.1-6.2 2.3-6.3 1.8-.1-2.2-1.6-4.7-1.8-1.1-.1-1.1.2 0 1.6z"/></g></svg>