<svg xmlns="http://www.w3.org/2000/svg" width="315" height="314" fill="none"><g clip-path="url(#a)" fill="#930f15"><path fill-rule="evenodd" d="M157.464 0C70.493 0 0 70.283 0 157.011s70.493 156.99 157.464 156.99 157.472-70.257 157.472-156.99S244.439 0 157.464 0m0 308.503c-83.911 0-151.931-67.827-151.931-151.492S73.553 5.502 157.464 5.502 309.402 73.33 309.402 157.011s-68 151.492-151.938 151.492"/><path d="m138.445 286.324.512-3.362 8.87 1.302-1.226 7.933c-.974.685-2.349 1.223-4.081 1.597-1.722.365-3.41.433-5.094.179-2.138-.296-3.922-1.012-5.351-2.117a8.26 8.26 0 0 1-3.009-4.272c-.537-1.74-.653-3.544-.372-5.47.341-2.071 1.062-3.832 2.208-5.309 1.124-1.488 2.618-2.515 4.46-3.142 1.414-.447 3.083-.54 5.032-.256 2.527.376 4.425 1.175 5.664 2.424 1.271 1.241 1.963 2.789 2.093 4.69l-4.214.117a4.2 4.2 0 0 0-1.259-2.519c-.699-.688-1.631-1.131-2.818-1.307-1.781-.24-3.306.103-4.544 1.047-1.215.965-2.01 2.556-2.363 4.728-.339 2.357-.097 4.211.804 5.55.879 1.339 2.206 2.153 3.954 2.396.837.125 1.715.076 2.637-.113.927-.232 1.707-.499 2.424-.874l.38-2.536zm-33.695-1.163 6.827-18.911 3.815 1.287 3.392 15.353 4.564-12.63 3.647 1.237-6.817 18.923-3.956-1.341-3.354-15.095-4.487 12.428zm-58.174-43.833 15.676-13.04 2.618 2.982-4.97 14.95 10.455-8.721 2.513 2.871-15.665 13.036-2.694-3.087 4.855-14.666-10.269 8.518zm47.475 21.235c1.508-.453 2.998-.246 4.471.611 1.46.858 2.334 2.037 2.613 3.529.285 1.504-.181 3.231-1.392 5.195-1.246 2.001-2.625 3.23-4.168 3.691-1.523.473-3.001.269-4.421-.538-1.411-.848-2.283-2.049-2.568-3.586-.288-1.531.162-3.296 1.359-5.257 1.226-1.975 2.6-3.182 4.107-3.645zm-9.527 9.422c.577 2.47 2.178 4.487 4.804 6.021 2.604 1.516 5.161 1.95 7.68 1.285 2.509-.649 4.633-2.37 6.354-5.154 1.738-2.805 2.318-5.445 1.735-7.933-.6-2.475-2.201-4.491-4.786-6.024-1.431-.853-2.845-1.35-4.23-1.559-1.031-.128-2.1-.063-3.239.226a9.4 9.4 0 0 0-3.108 1.405c-1.268.871-2.45 2.157-3.544 3.918-1.685 2.736-2.233 5.346-1.665 7.815zm-6.176-22.305 2.474 2.312c.482.594.746 1.252.836 1.919.072.673-.055 1.398-.399 2.22-.32.806-1.004 1.793-2.042 2.992-1.047 1.19-1.951 2.015-2.752 2.539-.805.507-1.525.747-2.104.785-.608.051-1.213-.13-1.838-.431-.47-.21-1.161-.699-2.043-1.401l-2.343-1.966 8.796-10.116zm-15.663 8.938 5.954 4.922c1.17.948 2.202 1.613 3.086 1.998 1.203.487 2.295.668 3.304.605 1.325-.112 2.662-.545 4.023-1.335 1.118-.64 2.22-1.588 3.319-2.846 1.245-1.438 2.12-2.792 2.628-4.038.513-1.255.748-2.505.659-3.712-.066-1.241-.458-2.355-1.134-3.395-.513-.744-1.414-1.653-2.732-2.732l-5.779-4.771zm-18.806-36.98 8.011-1.314-5.226 6.09zm13.279-1.714-2.181-3.728-21.882 3.137 2.18 3.738 4.937-.839 4.078 7.009-3.2 3.777 2.215 3.776zm-32.049-20.602 19.38-6.835 1.415 3.826-7.644 2.693 2.766 7.415 7.644-2.686 1.421 3.83-19.357 6.81-1.44-3.793 8.459-2.988-2.762-7.423-8.452 2.975zm1.56-23.825 1.113 3.793c-1.285.47-2.201 1.122-2.679 1.952-.513.812-.623 1.841-.411 3.044.246 1.264.699 2.204 1.387 2.764.672.533 1.388.752 2.126.594.487-.087.878-.274 1.162-.594.282-.345.49-.891.619-1.603.068-.491.161-1.613.281-3.326.151-2.233.549-3.832 1.175-4.833.899-1.397 2.124-2.245 3.733-2.543a5.56 5.56 0 0 1 3.074.333c.999.424 1.838 1.111 2.508 2.111.668.968 1.15 2.23 1.415 3.741.466 2.474.243 4.436-.625 5.877-.877 1.462-2.248 2.354-4.099 2.76l-.888-3.964c1.002-.354 1.67-.849 2.025-1.499.346-.623.419-1.495.222-2.606-.222-1.162-.632-2.002-1.242-2.576-.398-.364-.837-.498-1.367-.4-.492.073-.857.347-1.126.784-.343.604-.552 1.898-.678 3.907-.117 2.015-.327 3.523-.683 4.558a5.37 5.37 0 0 1-1.648 2.521c-.766.692-1.81 1.137-3.094 1.35-1.158.218-2.302.094-3.453-.348a5.7 5.7 0 0 1-2.743-2.302c-.721-1.03-1.238-2.416-1.556-4.146-.473-2.482-.233-4.482.708-6.042.946-1.544 2.524-2.636 4.742-3.307zm134.903 99.878 4.14-.352.976 10.821.453 3.344a3.38 3.38 0 0 0 1.441 1.867c.702.412 1.632.602 2.778.51 1.146-.098 2.01-.415 2.558-.947.552-.5.857-1.109.906-1.789.078-.707.02-1.851-.112-3.427l-.99-11.072 4.15-.355.937 10.514c.226 2.411.262 4.102.126 5.101-.126 1.019-.456 1.877-.995 2.617-.55.749-1.301 1.363-2.274 1.847-.964.488-2.248.818-3.882.954-1.945.17-3.444.048-4.51-.291-1.034-.356-1.9-.867-2.538-1.535-.646-.642-1.108-1.346-1.365-2.108-.364-1.112-.664-2.789-.856-5.032zM187.6 292.54l-5.641-19.324 3.874-1.046 11.911 10.63-3.783-12.867 3.714-1.023 5.632 19.281-4.011 1.099-11.686-10.461 3.69 12.668zm21.974-6.922-7.824-18.56 3.859-1.551 7.832 18.555zm14.365-6.385-16.463-14.022 3.934-2.126 11.99 10.491-3.061-15.357 3.877-2.089 3.656 20.956zm14.652-8.735-12.832-15.714 11.943-9.244 2.192 2.668-8.718 6.708 2.847 3.488 8.108-6.239 2.158 2.635-8.069 6.28 3.454 4.218 8.989-6.934 2.182 2.619zm7.369-28.278 2.167-2.313 2.115-2.136c.529-.394 1.089-.586 1.654-.586.559.007 1.095.261 1.598.715.457.412.753.852.857 1.332a2.02 2.02 0 0 1-.129 1.387c-.217.489-.982 1.425-2.326 2.852l-2.075 2.195zm12.604 11.264-6.326-5.658.561-.599c.65-.7 1.194-1.123 1.595-1.364a3.36 3.36 0 0 1 1.473-.323c.58-.011 1.804.126 3.714.405l5.313.8 3.358-3.548-4.639-.839c-1.866-.344-3.207-.511-4.076-.511-.85 0-1.764.167-2.778.464 1.04-1.457 1.496-2.866 1.347-4.178-.123-1.3-.759-2.475-1.897-3.494-.907-.821-1.906-1.298-3.003-1.501-1.116-.194-2.118-.057-3.091.434-.941.469-2.139 1.488-3.638 3.061l-5.922 6.279 15.185 13.535zm6.512-17.526 1.927-3.487c1.27.546 2.379.668 3.322.404.936-.255 1.744-.894 2.455-1.931.739-1.048 1.076-2.025.96-2.879-.08-.856-.446-1.504-1.062-1.899a2.1 2.1 0 0 0-1.306-.342c-.428.056-.953.303-1.57.718l-2.583 2.199c-1.685 1.497-3.138 2.391-4.302 2.7-1.64.38-3.138.145-4.496-.718a5.4 5.4 0 0 1-1.962-2.302 5.57 5.57 0 0 1-.304-3.211c.24-1.149.785-2.374 1.653-3.672 1.43-2.079 2.973-3.337 4.655-3.778 1.673-.449 3.294-.193 4.918.76l-2.185 3.481c-.981-.426-1.816-.526-2.522-.335-.727.245-1.397.839-2.026 1.753-.669.984-1.008 1.887-.973 2.708.041.507.266.905.706 1.207.4.258.864.327 1.375.159.661-.159 1.744-.951 3.283-2.324 1.518-1.368 2.763-2.319 3.723-2.831a5.9 5.9 0 0 1 3.004-.679c1.038.04 2.096.413 3.194 1.086a6.5 6.5 0 0 1 2.227 2.619c.492 1.092.606 2.249.366 3.491-.246 1.236-.875 2.586-1.866 4.044-1.443 2.099-3.052 3.395-4.835 3.859-1.77.513-3.687.239-5.776-.8m17.5-15.364-18.603-8.655 1.803-3.654 18.595 8.643zm5.87-13.54-16.145-5.501-2.022 5.634-3.291-1.142 5.386-14.995 3.29 1.114-1.993 5.55 16.16 5.514zm5.92-20.203-8.529-1.556-13.099 5.12.888-4.657 8.911-3.195-7.153-6.015.873-4.594 10.379 9.356 8.485 1.549zM156.891 49.079c-60.074 0-108.812 47.905-108.812 107.016s48.739 107.021 108.812 107.021c60.107 0 108.821-47.906 108.821-107.021S216.998 49.079 156.891 49.079m0 4.279c57.681 0 104.454 46.013 104.454 102.737a101.1 101.1 0 0 1-11.095 46.156H63.631v.085c-7.147-13.925-11.184-29.604-11.184-46.241 0-56.724 46.766-102.737 104.444-102.737m0 205.441c-38.701 0-72.49-20.681-90.524-51.465h181.094c-18.065 30.784-51.836 51.465-90.57 51.465m90.999-80.398c-14.693 11.34-26.442-1.8-26.442-1.8-19.454 18.063-35.04.903-35.04.903-12.223 8.692-17.636 6.905-17.636 6.905l-4.085-29.416 23.98-.216 4.293 9.593h13.795l-4.31-9.377h16.27l4.094 9.586 14.015-.656-3.842-8.698h11.982l.225-13.358-19.213.437-23.982-47.46-18.758 19.614-26.005-52.354-26.454 52.355-18.53-19.614-18.996 37.889-24.204-.683-.211 13.821 17.629-.675-7.692 16.488h13.334l7.916-16.488 16.278-.43-7.454 16.918h13.564l7.696-16.918 20.566.223-7.011 9.573 5.669.215-3.64 29.393c-6.771 1.588-17.175-6.899-17.175-6.899-19.446 17.393-36.17-.67-36.17-.67-12.201 13.384-26.453 2-26.453 2l-3.397 8.042c15.836 10.025 30.061.658 30.061.658 20.126 12.7 35.959.876 35.959.876 19.884 12.496 28.265.473 28.265.473 13.115 11.573 29.173-.687 29.173-.687 16.04 12.496 35.03-.432 35.03-.432 16.061 9.57 30.541-.667 30.541-.667zm-48.842-63.734 13.573 28.091-15.833.879-8.355-18.255zm-77.089 18.512-15.588-.678 8.801-17.362 10.179 10.243zm40.245 1.111-2.262-15.841-5.888-.195-2.254 16.036-16.734-.883 22.165-45.453 25.779 55.908-19.675.447 7.69-9.793zm-126.71-28.436s.707.619 1.234-.093c0 0 .366-2.72-.876-4.088 0 0-3.46-4.794-4.148-7.315 0 0-.887-1.147-5.387-1.147 0 0-.628 1.048-.199 1.413.459.325 2.035-.186 3.716 2.86l4.321 5.671s1.426 1.565 1.338 2.699zm14.151-7.847-4.96-.429s-1.765.597-.342 1.56c0 0 2.633 5.153 1.668 8.103 0 0 .882 1.489 1.415-.619 0 0 1.406-5.568 2.654-6.433 0 0 .966-1.721-.436-2.181zm-9.101 7.048s-.456-1.468-1.264-.175c0 0 .462 4.982-.776 6.641 0 0-.09 4.789-.629 6.087 0 0-.78 3.054-.616 3.748h-.531s-2.648-7.063-6.087-5.674c0 0-.25.697.531 1.309 0 0 3.727 6.875 3.187 8.798 0 0 2.453.621 4.677.519 0 0 2.568-6.173 2.907-8.444 0 0 .253-4.189-.089-5.574 0 0-.528-5.12-1.309-7.235zm258.632 6.133-.927-.411-2.521-2.146s-1.933.415-1.587-2.39c0 0-.17-.908-1.759-.741l-4.783-3.556s-1.506-1.147 1.156-2.056c0 0 2.032-.82-1.001-.984 0 0-3.335.402-3.754 1.22 0 0-.352 2.722 2.002 2.565l5.201 3.552s-.84 2.39-.257 3.216c0 0-.249.984-2.507-.571 0 0-10.808-4.632-11.229-6.364 0 0-2.286-.415-3.354.482 0 0-.176 2.17.404 2.576l3.279 2.149s-1.335.663-4.187-.252c0 0-2.782.433-.926 2.721 0 0 1.43 2.821-.598 3.989 0 0 .085-5.393-8.14-12.16 0 0-2.593.08-3.844 11.646 0 0-.522 4.642 4.778 4.3l4.114-.674s.416-.65.933.418l-.19 2.817s-1.336.99.246 1.465c0 0 1.525 2.585 2.534-.983l-.19-5.034s3.202.507 2.7-5.205l7.049.411s2.012-1.549-1.431-4.027c0 0 3.849 1.885 4.948 3.202 0 0 .178.665 2.099.596 0 0 .409.971 3.836 1.631 0 0 .257 1.736 7.906 2.147 0 0 .993-2.374 0-3.549m-33.701 4.478c-4.627.071-2.959-6.78-2.959-6.78 0-3.468 3.444 1.149 3.444 1.149l2.607 3.474c2.003 3.074-3.092 2.157-3.092 2.157m28.666-5.973s.491-.16.925.342l1.241 1.153s-3.435-.229-2.166-1.495M105.686 48.107s-1.448-1.431.076-6.966l-1.096-1.393-.085-1.074-1.173-.258s-.833-1.569-2.523-.742c0 0-1.089.26.351-1.73l2.846-4.447-.337-5.622s.182-1.085-1.754-.833c0 0 .417 1.086-.415 2.137-.856 1.07-1.78 3.234-2.11 4.461l-.922-6.247-1.238-1.753s-1.762-.977-.436 2v11.317l-2.136 2.958s-3.093.791-.779 2.273l3.351.699.257 7.306-.029 2.046 2.7.416 2.311-3.433s.405-.227.632.516l.413 3.117s-1.015 3.242-1.842 3.575c0 0-.344.176-1.27 1.079 0 0-2.529 3.307 1.344 3.307 0 0 1.491.59 1.679-1.649l.244-2.899 5.793 1.079s.333-1.572-.94-3.478zm-4.45-1.431-1.255 1.996-1.102-5.948c-.335-1.906 1.102-3.555 1.102-3.555.739 1.575 1.089 4.807 1.089 4.807.23 1.63.166 2.7.166 2.7m10.069 1.221-3.294.613s-2.14 1.153.152 1.355c0 0 2.215.718 3.339 1.688 0 0 1.534 2.007 2.218-.472v-1.718s-.123-1.595-2.415-1.466m13.778 176.282-2.379 1.893-1.659-2.31 5.191-4.03 1.813.954v20.291h-2.966zm61.889 0-2.402 1.893-1.653-2.31 5.218-4.03 1.807.954v20.291h-2.97zm-38.007 1.768c.055.825.019 1.547-.152 2.144-.127.596-.38 1.105-.732 1.48-.344.411-1.109.633-2.267.648a6.8 6.8 0 0 1-1.434-.106 2.86 2.86 0 0 1-1.345-.619c-.357-.323-.612-.735-.784-1.257-.152-.415-.217-1.029-.204-1.859 0-.811.082-1.463.258-1.924.18-.467.416-.832.717-1.123a3.2 3.2 0 0 1 1.08-.631c.415-.146.942-.211 1.59-.211.76.029 1.369.177 1.883.471a2.8 2.8 0 0 1 1.101 1.218c.123.345.213.934.289 1.769m.106 7.657q0 .762-.152 1.515c-.12.54-.263.978-.453 1.376-.2.391-.5.717-.891 1.003-.391.274-.87.473-1.424.573a7.5 7.5 0 0 1-1.385.085c-.683-.022-1.27-.167-1.704-.47-.468-.309-.739-.615-.851-.985a5 5 0 0 1-.233-1.017l-2.984.051.298 1.233c.061.457.287 1.021.649 1.615.354.596.77 1.082 1.267 1.422.485.365 1.097.614 1.814.813.73.204 1.527.276 2.412.255.742 0 1.459-.113 2.165-.311.718-.202 1.29-.45 1.755-.788a7 7 0 0 0 1.154-1.167 5.6 5.6 0 0 0 .808-1.614 6.8 6.8 0 0 0 .431-1.847q.079-.951.077-2.541v-5.951c0-1.054-.095-1.996-.319-2.791a6.2 6.2 0 0 0-1.029-2.077c-.458-.633-1.145-1.179-2.043-1.662a6.3 6.3 0 0 0-3.147-.685c-.71.053-1.44.179-2.197.445a5.9 5.9 0 0 0-1.991 1.033c-.533.464-.958 1.007-1.239 1.621s-.486 1.229-.567 1.824a10 10 0 0 0-.182 1.91c0 1.35.119 2.36.387 3.056s.615 1.246 1.04 1.696c.408.476 1.086.866 1.957 1.247.908.373 1.994.547 3.242.473.493 0 .957-.058 1.416-.139.447-.09.83-.211 1.114-.334l.805-.381zm23.313-2.12-.244 2.382c-.152.914-.408 1.689-.782 2.354-.399.666-.849 1.193-1.432 1.483a3.65 3.65 0 0 1-1.841.43c-.766 0-1.391-.18-1.92-.559-.514-.342-.95-.82-1.293-1.459-.349-.633-.6-1.404-.758-2.298-.159-.918-.243-1.996-.274-3.311l.053-1.911a15 15 0 0 1 .313-2.002c.163-.793.4-1.506.743-2.173.315-.619.737-1.125 1.292-1.484.543-.364 1.175-.54 1.909-.54a3.2 3.2 0 0 1 1.832.566c.488.333.92.801 1.26 1.372.376.553.636 1.257.831 2.08.19.834.304 1.893.346 3.251zm2.829-3.208a19.5 19.5 0 0 0-.388-2.77c-.173-.862-.511-1.705-.937-2.478a7.3 7.3 0 0 0-1.632-1.967 6.2 6.2 0 0 0-2.049-1.175c-.716-.293-1.417-.391-2.08-.415-.919 0-1.804.178-2.636.613a6.3 6.3 0 0 0-2.019 1.491 8.5 8.5 0 0 0-1.284 2.048 12 12 0 0 0-.804 2.574 16 16 0 0 0-.308 2.492l-.025 2.647c.016 1.204.089 2.238.258 3.089a13.6 13.6 0 0 0 .758 2.482 8.2 8.2 0 0 0 1.346 2.2 5.64 5.64 0 0 0 2.118 1.447 7.4 7.4 0 0 0 2.596.485c.922 0 1.745-.095 2.505-.379.752-.274 1.356-.594 1.856-.995.489-.398.906-.953 1.311-1.66a9 9 0 0 0 .895-2.184c.202-.747.361-1.59.441-2.516l.165-2.087c.021-1.024 0-2.022-.087-2.942m43.898-191.492 3.115.2 3.88-2.393s.838-.3-.077-1.529c0 0-.613.691-1.699.523-1.093-.169-2.975.02-4.003.253l-.03.045-2.484-.279c.823-.605-.702-4.22-.702-4.22-.791-1.465-1.621-.874-1.621-.874-.988.697-1.339 3.36-1.339 3.36l-.888 1.349-3.693.133-4.016-.578s-2.5-2.657-2.753.45l.766 2.502c.028.45.155.814.337 1.112l.032.108.031-.025c.745 1.05 2.286 1.117 2.835 1.104-1.138.189-5.372 2.454-5.372 2.454-6.196 4.223-14.607 4.433-14.607 4.433-2.668.728.376 1.475.376 1.475 2.704.608 12.831-1.81 12.831-1.81 14.519-3.942 16.6-7.965 16.6-7.965.766.131 1.637.172 2.481.172m-6.445 11.86s-1.251-2.532-2.101.31c0 0-2.029 6.177-4.452 6.491 0 0-2.084.962-.223 1.411 0 0 4.577-2.019 7.185-2.089 0 0 2.551-2.133-.409-6.123"/></g><defs><clipPath id="a"><path fill="#fff" d="M0 0h314.936v314.001H0z"/></clipPath></defs></svg>