<svg xmlns="http://www.w3.org/2000/svg" width="336" height="336" viewBox="0 0 252 252"><path d="M122.91 0h6.43c7.055.34 14.11.984 21.043 2.398 21.547 4.196 41.898 14.254 58.394 28.73 13.055 11.407 23.778 25.493 31.172 41.177a124.79 124.79 0 0 1 11.696 44.64c.164 1.828.18 3.66.355 5.489v7.148c-.332 5.82-.758 11.648-1.777 17.398-3.567 21.5-12.961 41.97-26.797 58.801-12.238 14.875-27.856 26.985-45.406 34.95a124.861 124.861 0 0 1-32.543 9.734c-5.344.879-10.747 1.246-16.145 1.535h-6.918c-5.387-.316-10.781-.676-16.117-1.57-16.906-2.637-33.246-8.828-47.676-18.028-15.855-10.074-29.426-23.726-39.41-39.64C8.277 175.395 1.707 155.297.344 134.816c-.184-1.824-.176-3.66-.344-5.484v-7.394c.297-3.352.383-6.727.82-10.07a124.044 124.044 0 0 1 5.93-26.513C12.402 68.77 21.605 53.41 33.52 40.562c9.726-10.511 21.222-19.39 33.894-26.074C82.105 6.734 98.355 1.941 114.906.516c2.66-.258 5.336-.34 8.004-.516Zm0 0"/><path d="m117.797 4.715 7.195-.266c17.317-.105 34.672 3.45 50.469 10.578 17.676 7.887 33.367 20.114 45.457 35.215 10.676 13.348 18.547 28.95 22.789 45.512 2.828 10.93 4.063 22.246 3.816 33.523-.234 2.145-.105 4.309-.386 6.453-1.7 21.942-9.621 43.34-22.528 61.16-11.347 15.766-26.507 28.766-43.84 37.551a120.65 120.65 0 0 1-28.124 10.133 121.342 121.342 0 0 1-53.215.02c-16.274-3.64-31.758-10.73-45.184-20.614-15.781-11.57-28.726-26.988-37.36-44.55-8.292-16.77-12.53-35.489-12.437-54.188.106-9.734 1.301-19.476 3.7-28.922 4.506-17.93 13.241-34.76 25.213-48.84 8.09-9.523 17.633-17.816 28.223-24.457 15.11-9.52 32.355-15.636 50.102-17.707 2.03-.257 4.07-.406 6.109-.601zm0 0" fill="#f8ce03"/><path d="M122.57 7.914c19.496-.61 39.118 3.75 56.512 12.582 17.617 8.89 32.922 22.277 44.14 38.504 13.505 19.45 20.989 43.059 20.887 66.746.192 22.703-6.57 45.375-18.96 64.383-10.82 16.676-25.883 30.574-43.395 39.98a117.19 117.19 0 0 1-51.719 13.965c-4.238.04-8.484.125-12.71-.254-17.536-1.238-34.763-6.554-49.997-15.328-16.742-9.625-31.074-23.402-41.36-39.746C15.435 172.09 9.2 152.738 8.067 133.062c-.265-4.613-.234-9.253-.027-13.867.824-14.11 4.172-28.082 9.95-40.988 9.827-22.234 26.745-41.223 47.605-53.68C82.746 14.238 102.574 8.43 122.57 7.914zm0 0"/><path d="M121.824 8.71c17.375-.593 34.883 2.661 50.82 9.645 18.368 7.98 34.61 20.766 46.723 36.711 10.766 14.094 18.293 30.66 21.727 48.067 2.898 14.488 3 29.523.324 44.055-3.754 20.601-13.23 40.105-27.027 55.847-13.293 15.281-30.598 27.055-49.723 33.742a116.388 116.388 0 0 1-36.652 6.547c-16.782.313-33.633-3.05-49-9.828-17.184-7.531-32.493-19.273-44.278-33.871-13.5-16.648-22.336-37.05-25.082-58.32-2.726-20.485.106-41.68 8.168-60.72 6.516-15.452 16.399-29.468 28.738-40.827C59.867 27.473 76.04 18.289 93.446 13.27c9.22-2.707 18.79-4.176 28.38-4.56Zm0 0" fill="#f8ce03"/><path d="M131.242 13.723a8.794 8.794 0 0 1 2.121.148c1.598.281 3.235.363 4.805.793-.715.129-1.496.027-2.145.414-.632.758-.625 1.813-.796 2.738-.29 2.864-1.059 5.704-.825 8.602.082 1.437 1.383 2.488 2.707 2.797 1.762.433 3.938.074 5.059-1.477.855-1.445.965-3.18 1.207-4.808.227-2.086.773-4.153.691-6.262-.027-1.023-1.332-.988-2.007-1.43 1.246-.093 2.453.262 3.683.38.586.109 1.23.058 1.746.405-.531.13-1.082.165-1.593.348-.649.367-.77 1.168-.891 1.832l-1.102 7.485c-.28 1.468-.863 3.039-2.238 3.812-1.89 1.223-4.293.883-6.312.207-1.883-.602-3.25-2.52-3.157-4.5.164-3.305.95-6.555 1.176-9.852-.055-1.148-1.328-1.214-2.129-1.632zm-34.176 4.035 11.856-2.738c.543 1.082.824 2.28.941 3.48-.57-.656-.918-1.594-1.777-1.93-1.316-.328-2.645.16-3.902.52l2.574 11.23c.18.614.277 1.317.726 1.797.66.395 1.477.156 2.207.274-1.148.425-2.363.632-3.554.914-1.032.238-2.055.539-3.114.617.817-.531 2.282-.89 1.883-2.18l-2.832-12.23c-1.136.316-2.367.414-3.394 1.031-.825.617-.801 1.727-.856 2.648a13.135 13.135 0 0 1-.297-.199c-.304-1.047-.433-2.144-.46-3.234zm60.141-.153c1.285.329 2.492.887 3.691 1.446.305.11.383.445.48.722l3.95 13.551 3.219-7.43c.297-.789.766-1.578.676-2.453-.317-.648-1.09-.898-1.614-1.347.766.023 1.453.406 2.153.691 1.027.457 2.12.8 3.039 1.469-.711-.09-1.457-.367-2.168-.137-.567.54-.867 1.285-1.172 1.988l-3.52 8.325c-.441 1.035-.832 2.093-1.402 3.07a8.873 8.873 0 0 1-.504-1.152l-4.195-14.203c-1.278 2.539-2.246 5.222-3.41 7.816-.297.816-.801 1.625-.758 2.52.45.59 1.094.984 1.637 1.484-1.79-.61-3.582-1.297-5.207-2.27.699.106 1.406.305 2.12.188.598-.422.825-1.156 1.137-1.785l3.621-8.504c.184-.508.567-1.063.274-1.602-.309-1.07-1.285-1.668-2.047-2.387zm-73.129 4.93c.668.027.77-.82 1.082-1.25l2.2 4.809c-.973-.719-1.598-1.89-2.782-2.305-1.465-.52-3.348-.281-4.363.992-.793.922-.742 2.625.379 3.266 2.703 1.254 5.867.332 8.597 1.476 1.32.606 2.223 2.032 2.188 3.485.035 1.785-1.18 3.433-2.777 4.156-1.313.715-2.848.64-4.258 1.008l-.551 1.156c-.781-1.574-1.656-3.137-2.148-4.832.957.813 1.652 2.012 2.933 2.367 1.176.239 2.477.211 3.547-.394.977-.52 1.832-1.535 1.7-2.7-.071-1.164-1.126-2.007-2.208-2.222-2.144-.473-4.398-.242-6.52-.848-1.093-.304-2.093-1.054-2.527-2.125-.86-1.773.047-4.035 1.668-5.031 1.121-.766 2.512-.93 3.84-1.008zm96.051 5.515c1.035.415 1.973 1.032 2.941 1.587.993.586 2.032 1.105 2.946 1.812-.684-.113-1.352-.433-2.055-.355-.547.21-.86.77-1.18 1.23l-3.414 5.922c-.812 1.438-1.722 2.824-2.351 4.352.32.761.96 1.293 1.5 1.89-2.016-.922-3.864-2.152-5.79-3.238l.09-.281c.579.234 1.164.566 1.813.492.601-.258.926-.883 1.266-1.406l4.976-8.621c.258-.536.652-1.07.637-1.684-.309-.676-.946-1.113-1.38-1.7zM60.816 34.246c.477.133.938.324 1.356.602l10.34 6.55c.664.414 1.332.848 2.093 1.055.692.113 1.364-.168 2.04-.273-1.598 1.367-3.372 2.523-5.145 3.652.238-.496.64-.934.742-1.488.11-.477-.37-.746-.664-1.028-.863-.668-1.8-1.23-2.762-1.738a103.666 103.666 0 0 0-4.777 3.348c.145 1.363.371 2.75.941 4.004.743.41 1.551-.075 2.297-.22-1.23 1.169-2.691 2.067-4.125 2.958.34-.809.91-1.602.692-2.531-.914-4.98-2.125-9.907-3.028-14.89zm59.997 2.172c4.925-.09 9.87-.219 14.765.39 11.559 1.212 22.856 4.75 33.059 10.301 16.843 9.121 30.636 23.746 38.707 41.118 5.453 11.699 8.41 24.605 8.308 37.52.207 15.948-4.21 31.882-12.297 45.608-6.21 10.52-14.554 19.782-24.421 26.993-11.555 8.52-25.196 14.195-39.395 16.332-2.43.449-4.914.523-7.351.882L126 226.094l-6.184-10.535a10.742 10.742 0 0 0-1.652-.211c-20.824-1.692-40.836-11.172-55.543-25.97-14.273-14.187-23.598-33.296-25.758-53.323-.625-4.735-.543-9.52-.472-14.282.539-11.64 3.37-23.175 8.347-33.718a89.968 89.968 0 0 1 20.844-28.27c13.277-12.183 30.3-20.246 48.172-22.656 2.344-.32 4.703-.535 7.058-.711zm73.242.282c.918.6 1.703 1.37 2.507 2.109.778.734 1.641 1.386 2.313 2.222-.625-.187-1.234-.43-1.852-.64-.953.765-1.16 2.035-1.574 3.113-.855 2.719-1.914 5.371-2.64 8.125 2.43-1.004 4.746-2.27 7.129-3.383.988-.516 2.07-.898 2.94-1.617.74-.617-.163-1.484-.273-2.203 1.348.875 2.458 2.062 3.602 3.176-.61-.07-1.207-.254-1.82-.254-.848.156-1.621.55-2.39.918l-10.708 5.172a8.21 8.21 0 0 1-1.406.519c.082-.465.183-.926.328-1.379l4.195-12.453c.192-.625.426-1.297.254-1.953-.168-.504-.422-.977-.605-1.473zm0 0"/><path d="M62.52 37.555a91.185 91.185 0 0 1 5.558 3.515l-4.195 2.992c-.285-.664-.438-1.367-.551-2.078-.258-1.476-.71-2.925-.812-4.43zm0 0" fill="#f8ce03"/><path d="M75.664 53.242a88.09 88.09 0 0 1 44.04-15.554c17.234-1.27 34.82 2.699 49.831 11.277 15.832 8.957 28.793 22.902 36.55 39.36l-76.054.007c-28.039-.012-56.078.027-84.12-.016 6.632-14.023 17.007-26.242 29.753-35.074zm0 0" fill="#fff"/><path d="m40.492 53.84 5.621-6.457c.922.676 1.953 1.273 2.625 2.226-1.015-.218-2.199-1.113-3.14-.238-1.391 1.207-2.477 2.719-3.715 4.078 1.437 1.41 3.027 2.649 4.527 3.989a30.668 30.668 0 0 0 2.574-2.899c.282-.398.625-.832.528-1.352-.14-.664-.59-1.21-.864-1.828 1.497 1.04 2.907 2.239 4.11 3.606-.63-.176-1.219-.469-1.852-.621-.718.093-1.254.636-1.707 1.152l-2.097 2.473 1.855 1.695c1.059.86 1.988 1.89 3.219 2.523.941-.718 1.68-1.648 2.441-2.539.547-.671 1.168-1.332 1.39-2.191.212-1.234-.417-2.383-.55-3.586.922 1.04 1.523 2.309 2.18 3.516l-5.051 5.77c-.926 1.073-1.8 2.202-2.867 3.148.261-.606.613-1.176.8-1.809.086-.578-.406-.988-.765-1.36l-7.016-6.09c-.75-.648-1.465-1.41-2.422-1.737-.695.156-1.207.703-1.82 1.035.547-.926 1.316-1.684 1.996-2.504zm122.875-3.262c1.078-.355 1.899.414 2.672 1.027l1.422-.328c.062 1.301-1.414 1.508-2.266 2.04-.925.667-.648 1.964-.742 2.949l.7.562-.051.836c.613.25 1.191.566 1.761.895l1.227-.618 1.273.461c.969-.644.762-1.96.422-2.898-.176-.649-.98-.594-1.445-.324-.824.433-1.504 1.234-2.508 1.218-.027-.93.77-1.515 1.379-2.086 1.012-.886 2.473-1.3 3.723-.652.347.973.808 1.965.73 3.024-.277 1.187-1.012 2.28-.875 3.543.14.906-.59 1.628-.598 2.503.477.75 1.543.418 2.274.329 1.176-.461 2.36.242 3.27.941.003.637.03 1.29-.165 1.902-1.289.23-2.402.899-3.468 1.625-.856.618-1.989.602-2.848 1.203-.219.735.457 1.442.258 2.223l-1.25.309c-.742.781-1.563 1.492-2.184 2.379.477.328 1.137.242 1.578.625.309.453.43 1.027.805 1.433 1.07.563 2.351.016 3.48.367.801.403 1.336 1.172 1.782 1.926.25.348-.153.973-.563.735-1.539-.778-3.332-1.192-5.035-.739-.004.524.25 1.125-.102 1.586-.734 1.086-1.543 2.137-2.488 3.043-.789.735-1.918.211-2.707-.234-1.156-.77-2.277-2-2.223-3.477-.027-.847.711-1.43 1.333-1.886.855-.637 1.949-.676 2.964-.825l.258-.601c-.285-.574-1.015-1.125-.668-1.824.367-1.067 1.336-1.707 2.27-2.23-.293-.497-.95-.954-1.489-.52-1.007.671-2.195 1.664-3.457.968.102-.734.711-1.21 1.168-1.734.286-.406.82-.406 1.254-.547.614-.105.969-.734 1.567-.875.652.04 1.328.656 1.937.164 1.793-1.113 3.383-2.535 4.801-4.094.234-.382.687-.308 1.074-.359l-.156-.703-1.102.586c-.789-.051-1.625-.707-2.379-.32-.34.855-.726 1.738-1.5 2.296-.472.098-.75-.359-.93-.715.458-.246.887-.535 1.235-.925-.527-.836-1.262-.133-1.59.453-.566-.082-1.164-.305-1.695.008-.945.457-1.996.547-3.004.757l-.644 1.446-.918-.848c-.852.246-1.989.715-2.586-.23.582-1.016-.036-2.035-.04-3.09-.484-1.266-.285-2.746-1.238-3.813l.668-.933c.524.281 1.008.652 1.36 1.14.394 1.325.656 2.727.422 4.11-.122.648-.079 1.394.378 1.91.551.242 1.075-.149 1.258-.668-.09-.848-.496-1.637-.5-2.5-.133-1.18.184-2.383-.172-3.54-.07-.847-.039-1.706-.347-2.515l.593-.703.68.277c.078.723.086 1.461-.187 2.153-.328.73.379 1.36.445 2.074.125 1.32-.242 2.664.074 3.965.856 1.012 2.367.18 3.356-.203-.508-.52-1.446-.61-1.664-1.383-.235-1.168.414-2.262.457-3.41.03-1.074-1.13-1.961-.649-3.051.36-1.047.52-2.152.496-3.254.051-.809-.422-1.531-.37-2.336zM81.188 54.66c1.035-.527 2.324-1 3.445-.433.285.18.824.277.738.73-.18 1.262.059 2.55-.332 3.785.477.696 1.418 1.192 1.344 2.145-.445.363-.988.629-1.328 1.11-.094.378.035.66.382.835.856-.023 1.626-.535 2.497-.488 1.238.004 2.445-.297 3.652-.547.605.8 1.328 1.762 1.004 2.836-.856 1.844-2.711 2.86-4.262 4.039-.492.316-.59.933-.875 1.406-.543.8-1.598 1.07-2.101 1.906-.309.516-.72.954-1.16 1.36.468 1.918-.434 4.004.597 5.808-.2.973-.367 1.973-.742 2.895-.32.375-.707.887-1.266.726-.59-.406-.933-1.085-1.547-1.464l-1.816-1.22.066-.847a9.415 9.415 0 0 1 2.43.235l.902-.73c.012-.505.04-1.013-.043-1.513-.25-.379-.562-.714-.855-1.058-2.047 1.484-3.98 3.808-6.75 3.62l.035-.562c1.227-.75 2.188-1.843 3.344-2.687 1.75-1.332 3.664-2.676 4.543-4.781-.317-.29-.653-.75-1.149-.598-.964.242-1.816.82-2.816.96-.574.02-1.102-.26-1.625-.46-.203-.77-.145-1.664-.71-2.293-.528-.77-1.345-1.227-2.118-1.703l.11-.703c.624-.117 1.292-.235 1.91-.008.671.258 1.269.672 1.956.906.575.195 1.098-.21 1.641-.363.887-.352 1.945-.488 2.602-1.254.343-.383.293-1.047-.176-1.313-.738-.308-1.383.36-2.094.461-.996.125-2.07.157-2.957-.386l.047-.61c2.086-.027 4.473.114 6.117-1.414-.254-.375-.453-.812-.836-1.074-1.219-.348-2.535.14-3.726-.348-.395-.203-.72-.511-1.055-.793l.328-.656c1.547-.23 3.566.578 4.723-.785.039-.922-.133-1.867-.547-2.691-.445-.711-1.098-1.258-1.528-1.98zm131.503.27c.727.722 1.266 1.597 1.848 2.437l3.422 4.887c.543.805 1.203 1.543 1.562 2.453-.851.664-1.636 1.45-2.648 1.875.52-.953 1.48-1.977.883-3.129-.89-1.55-1.996-2.969-3.031-4.422l-4.946 3.473c.817 1.219 1.586 2.496 2.59 3.57.738.797 1.856.172 2.734.031-1.351 1.25-2.917 2.262-4.496 3.192l1.196-1.996c-.559-1.621-1.72-2.922-2.68-4.309a63.799 63.799 0 0 0-4.883 3.406c-.707.54-.058 1.407.317 1.938.828 1.102 1.496 2.363 2.59 3.234 1.097.75 2.503.297 3.742.493-1.145.68-2.52 1.152-3.844 1.148l-4.281-6.09-2.403-3.598c.664.434 1.184 1.149 1.989 1.329.832-.305 1.546-.856 2.273-1.348l6.215-4.363c.847-.61 1.781-1.145 2.433-1.977.192-.793-.41-1.488-.582-2.234zm-77.265 1.21a1.794 1.794 0 0 1 1.535.278c-.234.828-.555 1.664-.438 2.543.286 1.848.387 3.758.016 5.602-.105.457.043.917.149 1.359.62.176 1.273.305 1.921.183.805-.218 1.489-.714 2.243-1.05.953-.395 2.03-.262 2.988-.63.726-.222.734-1.105 1.039-1.675.758.629 1.215 1.531 1.617 2.414.203.445.2 1.2-.418 1.285l-4.332.727c-.762.363-1.32 1.136-2.2 1.25-1.187.265-2.573.168-3.523 1.054-.328.735.114 1.555-.058 2.329-.168.882-.16 1.785-.278 2.671-.48 1.055-.773 2.184-.699 3.352.078 1.02-1.082 1.488-1.922 1.586-1.62.09-3.23-.297-4.742-.856l.008-.874c1.031-.497 2.367.066 3.254-.79a12.055 12.055 0 0 0 2.582-3.253c.719-1.407.422-3.02.605-4.528-.675-.402-1.554-.355-2.312-.574-.832-.133-1.41-.809-2.172-1.094-.996-.039-1.992.051-2.988.031l.101-.566c1.63-.855 3.465-.125 5.207-.242.75-.063 1.512-.016 2.266-.004.2-.422.68-.824.492-1.336a6.058 6.058 0 0 1 .352-4.367c-.051-.863.156-1.778-.266-2.574-.168-.735-.016-1.504-.027-2.25zm-27.966.794.353-.368c.695.075 1.421.188 2.011.598-.21.531-.46 1.047-.722 1.559.386.726 1.277.836 1.964.468 1.04-.37 1.973-1.265 3.149-1.074.078.48.203.98.055 1.461-.555.75-1.512 1.02-2.368 1.258-.945.156-2.215-.766-2.843.328-.211.941-.157 1.973-.735 2.797-.52.691-.27 1.605-.636 2.352-.356.921-1.047 1.64-1.532 2.484.133.27.305.512.52.723.582.039.957-.485 1.453-.696.652.04.848.805 1.187 1.246.817-.816 1.407-1.906 1.5-3.066-.312-.215-.582-.524-.953-.633-.406.067-.8.192-1.207.274-.027-.81.989-.637 1.516-.88 2.75-.53 5.336-1.831 8.168-1.906.805-.214 1.96-.62 2.535.223.234 2.43-.457 4.813-.363 7.238 0 .703-.457 1.313-.453 2.02.035 1.133-.934 1.926-1.149 3-.363 1.176-.62 2.683-1.933 3.168-1.34-.746-2.84-1.375-3.778-2.649 1.239-.996 2.992.454 4.274-.484.511-.54.336-1.348.496-2.016.043-.8.64-1.457.57-2.28-.062-.645.543-1.122.484-1.77-.007-1.121.52-2.164.52-3.282 0-.632-.45-1.277-1.102-1.355-1.578-.246-3.082.414-4.601.71-.723.134-1.547-.175-2.164.34l.742 1.06c-.508.566-1.461 1.066-1.2 1.968.77.613 1.622-.816 2.395-.184.41.172.305.786-.125.844-1.172.406-2.437.524-3.539 1.121.012.586.473.93.914 1.223.512-.156 1.051-.496 1.598-.29.312.325.316.778.328 1.2-.727.34-1.668.305-2.238.914-.086 1.328.152 2.668-.059 3.992a7.063 7.063 0 0 1-1.687 3.258 39.221 39.221 0 0 1-.672-.074c.199-1.977 1.12-3.817 1.176-5.805-1.02-.691-1.954.36-2.97.485-.75.25-1.347-.543-1.23-1.243 1.45-.394 2.993-.406 4.368-1.062.093-.57-.043-1.2-.633-1.442-.715-.14-1.246.434-1.758.825a11.623 11.623 0 0 1-1.766-.532c.035-.718 1.07-.914.899-1.66-.387-.86-1.414-1.062-2.114-1.593-.214-.985.825-1.254 1.418-1.758.832-.805 1.122-1.977 1.211-3.098.403-.984.961-1.902 1.29-2.918-.645-.922-1.81-.668-2.727-.406-.617.23-1.137-.207-1.61-.54a3.59 3.59 0 0 1 .211-.948c1.446-.098 3.125.785 4.38-.29-.333-.921-.801-1.835-.817-2.835zm0 0"/><path d="M164.543 62.477c-.52-1.07-.293-2.266.234-3.282 1.168.657.957 2.196.442 3.22l-.676.062zm1.859-2.973 1.036.047.546.937c.645-.172 1.004-.793 1.45-1.242.66.695.41 1.856-.266 2.45l-1.461-.723c-.113.332-.184.68-.227 1.03.72.29 1.477.517 2.125.962-.98.984-2.437 1.062-3.738.902-.02-.758.567-1.36.555-2.11l-.02-2.253zM86.18 63.93c1.265.144 2.523-.63 3.757-.063-.085 1.121-.886 1.992-1.585 2.809-.813.851-1.63 1.773-2.711 2.281-.79-.023-1.309-1.035-1.141-1.777a12.398 12.398 0 0 1 1.895-.29v-.722c-.801-.113-1.856-.184-2.079-1.145.16-.886 1.07-1.175 1.864-1.093zm0 0" fill="#fff"/><path d="M31.063 66.59c.55-.938 1.007-1.953 1.78-2.735-.163.708-.546 1.399-.425 2.145.465.605 1.137.98 1.785 1.355l8.156 4.707c.606.278 1.243.833 1.95.59.566-.382 1.011-.906 1.527-1.351-.457 1.086-1.11 2.074-1.68 3.101-.562.95-1.047 1.957-1.773 2.797.129-.699.476-1.379.37-2.105-.358-.621-1.034-.946-1.62-1.317l-3.844-2.187-3.516 6.195 5.09 2.863c1.004.461 1.578-.789 2.27-1.285-.38 1.082-1.035 2.035-1.59 3.032-.59.976-1.066 2.039-1.855 2.878.16-.695.566-1.363.476-2.097-.312-.574-.906-.895-1.437-1.23l-8.473-4.895c-.64-.348-1.379-.84-2.129-.551-.527.387-.934.906-1.418 1.336.461-1.148 1.137-2.191 1.746-3.266.547-.937 1.043-1.918 1.735-2.765-.157.757-.489 1.5-.372 2.285.383.531.977.84 1.524 1.172l3.691 2.086 3.496-6.2-4.707-2.664c-1.078-.52-1.742.684-2.402 1.305.36-1.156 1.059-2.156 1.645-3.2zm123.003-.95.84.223c1.168 1.696 1.094 4.242-.433 5.696-.477.609-1.668.609-1.88-.235.098-1.289.876-2.355 1.423-3.48.336-.696.03-1.473.05-2.203zm0 0"/><path d="M79.266 68.742c.93-.344 1.93-.344 2.886-.562.344.164.793.308.961.683.137.828-.758 1.262-1.398 1.512-.746.14-1.758.297-2.254-.434-.285-.328-.125-.812-.195-1.199Zm0 0" fill="#fff"/><path d="m100.91 69.145.817-.016c.648.855.332 1.965.402 2.953-.09.68.41 1.195.617 1.797.012.433-.226.82-.324 1.234.101.801.758 1.602.277 2.399-.054.36-.527.234-.777.34-.184-.524-.281-1.079-.52-1.582-.41-.547-.96-1.008-1.195-1.676-.035-.645.348-1.207.602-1.77.754-1.129-.227-2.437.101-3.68zm0 0"/><path d="M84.484 69.602c.41-.13.547.011.418.421-.41.125-.554-.011-.418-.421Zm0 0" fill="#02903f"/><path d="M139.824 72.648c.828.02 1.79-.058 2.446.551.625.582 1.472.824 2.09 1.418.484.434 1.226.63 1.484 1.281.574 1.399 1.125 2.883 1 4.43-1.035.305-1.93-.637-2.703-1.2-1.317-.964-.871-2.917-2.102-3.94-.691-.88-1.941-1.395-2.215-2.54zm85.77 3.668c.304-.742-.2-1.492-.125-2.254.836 1.376 1.36 2.907 2.05 4.356.668 1.598 1.57 3.21 1.481 5 .047 1.547-1.133 2.969-2.59 3.387-.957.125-2.039.195-2.87-.383-.657-.438-1.204-1.008-1.786-1.54L219.02 89.5c-.567 1.063-1.297 2.223-1.051 3.48l.14 1.368a13.745 13.745 0 0 1-1.797-3.832l4.333-7.61a53.676 53.676 0 0 1-.649-1.46c-1.305.48-2.555 1.093-3.824 1.656-.637.296-1.3.582-1.797 1.093-.23.758.086 1.524.2 2.27-.692-.938-1.055-2.059-1.544-3.106l-1.297-3.109c.653.676 1.27 1.941 2.414 1.406l8.793-3.86c.91-.437 1.93-.745 2.653-1.48zM86.27 75.734c-.407-.375-.082-.898.082-1.296 1.21.113 2.324.593 3.382 1.167 1.004.59 2.243.243 3.274.73.465.567.62 1.536.004 2.056-.817.699-1.727 1.285-2.477 2.066-.418.496-1.117.387-1.555-.016.25-.777.704-1.453 1.184-2.101-.914-1.39-2.836-1.395-3.894-2.606zm0 0"/><path d="M164.95 77.504c.84-.41 1.6.433 1.26 1.258-.534 1.027-1.5 1.804-2.452 2.433-1.203.54-2.367-.879-2.051-2.03.961-.763 2.031-1.4 3.242-1.661Zm0 0" fill="#fff"/><path d="m220.61 81.14 5.894-2.535c.547.844 1.184 1.735 1.191 2.79.239 2.226-2.484 4.027-4.46 3.062-1.387-.566-2.106-2-2.626-3.316zm0 0" fill="#f8ce03"/><path d="M20.453 87.496c1.207.25 2.457.434 3.567.996-.961.133-2.114-.07-2.84.735-.77.992-1.008 2.273-1.25 3.48 3.625 1.145 7.304 2.106 10.949 3.195.71.25 1.465.32 2.215.239.363-.57.695-1.16 1.101-1.704-.222 1.352-.699 2.649-1.043 3.973-.265.844-.39 1.758-.925 2.485-.032-.723-.004-1.442-.036-2.165-.582-.34-1.191-.632-1.847-.804l-11.024-3.14c-.394 1.198-.957 2.437-.758 3.726.352.89 1.266 1.347 1.91 1.996-1.132-.238-2.218-.653-3.312-1.04a7.782 7.782 0 0 1 .34-1.85l2.953-10.122zm0 0"/><path d="M37.703 119.477c.82-10.649 3.469-21.211 8.117-30.844l69.192 118.683c1.32 2.325 2.758 4.582 3.992 6.954-9.168-.758-18.234-2.891-26.73-6.434-19.32-7.957-35.606-22.992-45.09-41.602-7.395-14.316-10.688-30.703-9.48-46.757zM206.188 88.66c2.18 4.367 3.792 9.012 5.128 13.703a88.42 88.42 0 0 1-1.222 51.293 88.54 88.54 0 0 1-20.801 34.125c-12.434 12.809-28.824 21.742-46.363 25.114-3.278.593-6.586 1.21-9.926 1.265l52.059-89.32 21.125-36.18zm0 0" fill="#fff"/><path d="M59.688 96.29c1.351-.145 2.71-.08 4.07-.083h55.941c1.489.012 2.989-.102 4.465.16l-.11 1.153-6.718 2.187c-.094 1.434-.137 2.879-.05 4.313-.02.496.558.597.878.847-7.566 1.914-14.562 6.52-18.812 13.133-1.645 2.566-2.97 5.352-3.778 8.297-.21.719-.36 1.46-.672 2.148-1.37.395-2.851.043-4.265.22a66.91 66.91 0 0 1-.067 3.19c-2.976.13-5.953.004-8.93.07-.64-.019-1.5.13-1.78-.624L61.383 99.625c-.645-1.07-1.387-2.11-1.696-3.336zm0 0" fill="#02903f"/><path d="M125.91 96.32h1.785c-.015.856.004 1.72.184 2.559l6.793 2.144-.008 2.11-1.992.031.023 2.973c9.02 1.39 17.438 7.09 21.567 15.308 1.476 2.754 2.312 5.778 3.058 8.793 1.211.34 2.582.047 3.86.149l.015 3.27 9.446.038c-1.414 2.782-3.118 5.41-4.645 8.13l-16.785 28.8c-.746 1.203-1.363 2.488-2.18 3.645-1.082.375-2.265.105-3.39.183-12.524.11-25.047.05-37.57-.012-.383-.023-.758-.086-1.133-.144l-22.286-38.219c-.468-.773-.93-1.555-1.3-2.383l11.074-.039a89.686 89.686 0 0 1 .008-3.242c1.304-.05 2.609-.02 3.914-.039.824-3.89 2.125-7.723 4.285-11.09 4.414-7.047 12.082-11.847 20.258-13.133.25-.976.14-1.992.113-2.984l-2.129-.05c.098-.72.152-1.438.203-2.157l6.777-2.113c.036-.844.036-1.688.055-2.528zm0 0" fill="#f8ce03"/><path d="M129.512 96.328c1.593-.226 3.203-.101 4.804-.121l56.45-.004c.53.008 1.062.063 1.597.121-.425 1.446-1.402 2.625-2.125 3.922l-16.703 28.66c-.62.989-1.062 2.14-1.96 2.918-.903.16-1.825.082-2.735.09-1.95-.039-3.903.063-5.848-.062l-.05-3.227c-1.387-.031-2.778.043-4.16-.066-.716-2.278-1.329-4.602-2.372-6.762-3.187-6.992-9.226-12.55-16.336-15.41-1.515-.68-3.14-1.07-4.715-1.586l1.067-.496c.039-1.493.11-2.993-.117-4.47-2.032-1.015-4.293-1.413-6.414-2.187-.547-.199-.356-.878-.383-1.32zm0 0" fill="#02903f"/><path d="M228.96 99.926c1.192-1.512 3.599-1.762 5.106-.586 1.157.765 1.739 2.137 1.91 3.472.094 1.036-.187 2.051-.292 3.075l1.242.777c-1.781.438-3.57.918-5.399 1.094.914-.77 2.192-1.082 2.871-2.13.68-.921.747-2.128.614-3.23-.157-1.296-1.465-2.414-2.782-2.214a2.12 2.12 0 0 0-1.437 1.05c-1.234 2.18-1.445 4.77-2.621 6.973-.805 1.578-2.79 2.426-4.484 1.914a4.683 4.683 0 0 1-2.93-2.75c-.746-1.683-.281-3.55-.356-5.32a49.789 49.789 0 0 1-.984-.742c1.723-.348 3.43-.895 5.195-.957-.82.628-1.843.984-2.539 1.765-1.199 1.442-1.285 3.645-.3 5.219.652.973 2.046 1.527 3.113.887 1.304-.688 1.625-2.25 2.066-3.532.559-1.625.95-3.375 2.008-4.765zM14.438 114.828c.066-1.836-.118-3.742.457-5.516.128.84.085 1.946 1.035 2.325 1.797.468 3.672.265 5.496.543 1.777.144 3.613.093 5.308.722 1.52.547 2.57 2.024 2.868 3.578.125 1.622.168 3.329-.489 4.856-.664 1.75-2.55 2.883-4.398 2.805-2.176.078-4.332-.266-6.5-.317-1.281-.066-2.676-.504-3.871.156-.274.59-.387 1.243-.621 1.848-.086-2.238.015-4.52.437-6.71.238.722.05 1.827.918 2.167 1.387.48 2.89.25 4.32.508 2.489-.012 5.094.762 7.493-.16 2.496-1.363 2.433-5.137.691-7.09-1.297-1.219-3.223-1.2-4.89-1.324l-5.051-.395c-.828 0-1.825-.25-2.504.348-.309.516-.45 1.113-.7 1.656zm222.414 5.656c.617-.52.53-1.441.89-2.12.14 1.28.008 2.573.153 3.855a14.77 14.77 0 0 1 0 2.875c-.266-.621-.383-1.313-.754-1.887-.391-.402-.989-.36-1.504-.379l-6.57.067c-1.704.027-3.422-.075-5.102.257-.91.29-.785 1.473-1.211 2.184a63.423 63.423 0 0 1-.066-6.73c.257.578.335 1.226.648 1.785.285.511.93.433 1.43.464l7.832-.062c1.418-.023 2.867.055 4.254-.309zm-111.586 1.223c.535-.164 1.113-.473 1.675-.184l20.75 7.067c-14.21.008-28.418.035-42.625-.012l20.2-6.871zm-20.473 8.914h43.187a29.301 29.301 0 0 1-.015 3.094h-43.164a26.372 26.372 0 0 1-.008-3.094zm129.516 3.239c1.195-.04 2.379.167 3.535.452-.02 1.985-.39 3.934-.606 5.899l-.785 6.363c-1.23-.054-2.516.094-3.672-.414.875-.246 1.961-.242 2.567-1.027.742-1.113.68-2.512.742-3.793l-10.653-1.317c-.91-.066-1.843-.187-2.746 0-.472.543-.554 1.297-.84 1.938-.12-1.64.254-3.246.407-4.871.11-.625.023-1.344.512-1.828.035.937-.086 2.285 1.164 2.414 4.144.633 8.324 1.058 12.488 1.578.137-1.129.441-2.266.293-3.41-.278-1.149-1.496-1.489-2.406-1.985zm-213.051 1.304c3.344-.789 7.129.887 8.66 3.988.988 2.063 1.05 4.63-.07 6.649-1.848 3.57-6.59 5.02-10.258 3.699-2.793-1.043-4.875-3.852-4.86-6.86-.148-3.68 2.954-6.972 6.528-7.476zm83.597.539h43.082c.172 4.942.004 9.899.086 14.844l2.266.031-.016 1.953-47.796.004a33.043 33.043 0 0 1 .03-1.969c.75-.007 1.505 0 2.255-.058l-.004-11.906c-.004-.97-.043-1.938.097-2.899zm0 0"/><path d="M22.777 137.473c1.52-.094 3.168-.266 4.567.48 1.554.758 2.625 2.434 2.535 4.18.07 1.754-1.262 3.199-2.723 3.98-2.203 1.172-4.77 1.633-7.25 1.395-1.27-.2-2.578-.692-3.406-1.719-1.281-1.605-1.363-4.184.102-5.703 1.578-1.703 3.96-2.29 6.175-2.613zm86.821 1.465h8.629c.074 3.867.03 7.73.023 11.601-2.898.027-5.793.031-8.688-.004l.036-11.597zm12.527-.028 8.555.016.011 10.515c-.066.352.125.82-.171 1.098l-8.426.012.031-11.64zm12.406.024a398.92 398.92 0 0 1 8.649 0l.015 11.601h-8.687l.023-11.601zm0 0" fill="#f8ce03"/><path d="M102.492 154.293h47.778v3.644h-47.778a53.989 53.989 0 0 1 0-3.644zm114.156 5.844 1.477-4.258c.012.625-.063 1.25 0 1.875.367.836 1.418.934 2.172 1.254 1.066.273 2.094.851 3.203.887l8.21-2.243c.958-.25 1.556-1.086 2.263-1.703-.282 1.219-.727 2.395-1.102 3.594-.316.957-.555 1.965-1.078 2.84-.09-.785.293-2.344-.969-2.215-2.312.398-4.554 1.156-6.832 1.738.852 1.426 2.074 2.578 3.07 3.899.633.652 1.204 1.707 2.247 1.656.515-.274.855-.777 1.285-1.16-.489 1.754-.903 3.57-1.778 5.176-.082-.653-.03-1.325-.195-1.97-.383-1.027-1.148-1.839-1.828-2.671l-3.3-4.02c-.74-1.136-2.208-1.18-3.352-1.652-.95-.289-1.965-.762-2.97-.453-.425.484-.702 1.078-1.058 1.613-.02-.765.309-1.476.535-2.187zm-188.835.398c.386-1.781 2.062-3.305 3.933-3.195 2.008-.028 3.684 1.59 4.29 3.414.515 1.223.245 2.594.66 3.836.23.39.773.45 1.14.687-1.64.594-3.191 1.48-4.918 1.809.902-.973 2.25-1.68 2.547-3.078.562-1.934-.332-4.567-2.469-5.063-1.219-.218-2.402.73-2.719 1.88-.629 2.152-.535 4.452-1.226 6.593-.348 1.094-1.16 2.074-2.258 2.469-1.758.773-3.945-.168-4.883-1.782-.902-1.343-.875-2.996-.918-4.542l-1.25-.547c1.637-.746 3.285-1.516 5.031-1.965-.957.984-2.328 1.726-2.664 3.164-.214 1.187-.191 2.57.653 3.527.652.809 1.87 1.281 2.84.754.597-.258.918-.867 1.109-1.45.664-2.112.625-4.362 1.102-6.51zm75.867-.66 44.918-.008.004 10.656c-1.918-.007-3.836.008-5.754-.011l-.051-7.254c-1.867-.059-3.738-.074-5.602.012l-.043 7.25c-2.507 0-5.015.007-7.523-.008l-.02-7.27a189.272 189.272 0 0 0-5.957-.004l-.02 7.278c-2.718.015-5.433-.004-8.148.007l-.07-7.27-5.914-.019-.02 7.278a358.93 358.93 0 0 1-5.8 0v-10.637zm68.523-.075 1.574.06a7.504 7.504 0 0 0-.402 1.566 102.85 102.85 0 0 0 6.11-.043l-.008 1.262-6.032-.149-.02 1.45 4.856-.048.051 5.446c-.031.851.078 1.719-.086 2.566-.562.559-1.434.488-2.156.633-.18-.45-.38-.895-.613-1.316.582-.075 1.406.277 1.738-.368l.023-5.914c-.937.063-1.941-.199-2.832.149.13.379.63.316.934.476-.387.453-.738.938-1.059 1.438a35.33 35.33 0 0 0 1.953-.004l.032.992a60.985 60.985 0 0 0-2.926-.047 9.051 9.051 0 0 0-.035 1.082l2.98-.023v.941c-.988-.004-1.972.004-2.96.004l.01 2.332a36.685 36.685 0 0 0-1.132-.015 50.14 50.14 0 0 0 .074-2.32 93.403 93.403 0 0 0-2.96.034 8.84 8.84 0 0 1-.047-.96l3.011.011-.015-1.094c-.88-.004-1.754.032-2.63.036l.009-.852 3.496.02c.558-.489.793-1.348.785-2.07-.692-.348-1.637-.032-2.418-.145.187.465.465.894.586 1.386-.082.418-.574.368-.89.489l-.544-1.285c.238-.024.988-.2.508-.504-.77-.207-1.617-.028-2.414-.07l.016 7.558a33.157 33.157 0 0 0-1.247-.004c.176-2.855.247-5.742-.015-8.594a126.42 126.42 0 0 0 4.73.028l-.02-1.454c-1.937-.05-3.863.047-5.796.184.062-.394-.149-.894.148-1.203l5.66.012a79.546 79.546 0 0 0-.027-1.672zm15.293.126 1.469-.086.45 1.61 5.733-.032-.003 1.234c-3.301-.28-6.618-.136-9.926-.175-1.063-.036-2.114.199-3.176.117l-.004-1.11 5.984-.02-.527-1.538zM59.969 163.05c.43-.448.527-1.405 1.351-1.163l-.004 7.96c-.265.262-.683.106-1.015.176l-.016-5.785c-.683-.011-1.37.028-2.055-.039l-.187-.512c.64-.21 1.336-.285 1.926-.636zm6.527 4.013c-2.094-.825-1.828-4.418.336-4.985 1.531-.601 3.438.29 3.793 1.938.27 1.703.293 3.664-.793 5.109-1.242 1.64-4.355 1.242-4.781-.914l1.035-.086c.234.855 1.023 1.516 1.945 1.29 1.219-.364 1.5-1.77 1.742-2.852-.957.632-2.175.949-3.277.5zm7.723-4.868c1.25-.672 2.957-.152 3.594 1.125.843 1.746.859 3.914-.102 5.621-1 1.614-3.668 1.551-4.602-.101-.796-1.535-.804-3.399-.261-5.02.238-.68.699-1.328 1.37-1.625zm6.394.821c.903-1.235 2.77-1.399 4.047-.684 1.145.637 1.613 2.398.7 3.414-1.133 1.45-3.555 1.422-4.247 3.274 1.57.234 3.164.07 4.742.125a29.58 29.58 0 0 0-.03.851c-1.966-.008-3.93.008-5.895-.008.02-1.258.68-2.476 1.82-3.047 1.043-.71 2.648-1 3-2.398.09-1.133-1.012-1.914-2.07-1.684-1.063-.07-1.368 1.086-1.567 1.899l-.96-.004c.07-.598.05-1.258.46-1.738zm0 0"/><path d="M67.379 162.89c.816-.187 1.844.102 2.07 1.005.578 1.23-.496 2.87-1.918 2.539-1.863-.055-1.902-3.286-.152-3.543zm7.571.016c.558-.11 1.28-.113 1.64.414.844 1.114.742 2.602.644 3.918-.086.973-.683 2.25-1.859 2.067-1.094.062-1.563-1.168-1.652-2.067-.059-1.164-.203-2.414.316-3.5.2-.36.473-.761.91-.832zm0 0" fill="#fff"/><path d="M184.094 163.71h9.02l-.032 3.981c-1.23-.257-2.488-.175-3.734-.175l-.055 3.96c-.367.77-1.34.817-2.063 1.004a17.541 17.541 0 0 0-.695-1.246 52.124 52.124 0 0 0 1.555-.054l.027-3.668c-1.351.004-2.699-.02-4.047.039.082-1.278.067-2.563.024-3.84zm0 0"/><path d="m185.328 164.758 6.574-.028-.007 1.895c-2.188-.04-4.383.102-6.563-.082l-.004-1.785zm0 0" fill="#fff"/><path d="M182.113 171.074c1.211-.77 2.356-1.629 3.32-2.695l1.09.59-3.359 2.652a52.71 52.71 0 0 1-1.05-.547zm8.774-1.836c-.203-.5.527-.535.855-.62 1.145.515 2.13 1.347 3.07 2.167-.417.195-.894.774-1.375.422l-2.55-1.969zm0 0"/><path d="M107.043 177.68c2.45-.223 4.91-.028 7.363-.082 6.215.222 12.434.148 18.649.129 3.968.043 7.945-.348 11.91-.036-.297.832-.738 1.598-1.211 2.344l-15.508 26.578c-.746 1.219-1.39 2.504-2.246 3.657-2.035-3.028-3.676-6.297-5.602-9.391l-11.77-20.219c-.57-.972-1.245-1.894-1.585-2.98zm0 0" fill="#02903f"/><path d="M51.281 193.96c1.13-.183 2.36-.198 3.39.356 1.56.809 2.731 2.473 2.696 4.266.133 2.238-1.57 4.402-3.754 4.867-1.136.192-2.367.149-3.394-.422-1.602-.847-2.711-2.613-2.54-4.449-.113-2.152 1.563-4.101 3.602-4.617zm147.41.02c1.43-.3 3.028-.156 4.207.782 1.258.93 2.094 2.472 1.926 4.066.121 2.192-1.644 4.176-3.73 4.633-1.086.168-2.25.129-3.246-.375-1.645-.836-2.825-2.64-2.707-4.512-.016-2.094 1.547-4.047 3.55-4.594zm-29.231 12.286c1.224-.18 2.313.73 2.942 1.691.375.75-.41 1.371-.898 1.84-.664.469-1.149 1.242-1.988 1.41-.106-.727.28-1.371.437-2.05-.176-.966-.691-1.884-.492-2.891zm-4.413 4.968c.383-.464.789-.941 1.383-1.136-.063.898.304 2.054-.5 2.718-1.266.434-2.407-.816-2.66-1.949l1.777.367zm5.805.43c.52-.223 1.093-.129 1.64-.11-.004.348.242.864-.16 1.09-.887.583-1.898.934-2.894 1.286.05.41.144.816.253 1.222 1.184.239 1.98-.886 3.11-.925l-.004.902c-.942.777-2.477 1.008-2.824 2.344.12.562.523 1.015.816 1.5-1.32 1.39-3.004 2.34-4.516 3.488-.648.512-1.425-.016-1.96-.43a1.02 1.02 0 0 1 .777-.449c1.07-.07 1.922-.777 2.847-1.238.454-.211.63-.7.848-1.11l-.918-.976c-1 .387-2.176 1.789-3.219.738 1.239-.82 2.59-1.48 3.672-2.52-.222-.39-.441-1.011-1.004-.906-.914.176-1.386 1.258-2.273 1.504-.383-.078-.895-.164-.977-.613.098-.371.457-.54.762-.707 1.14-.613 2.363-1.102 3.348-1.965.87-.73 1.59-1.7 2.676-2.125zm-93.614 3.305c1.055.3 2.067 1.293 1.836 2.476.051 2.13-2.672 2.785-2.953 4.758 1.02.324 2.106.254 3.149.473l4.898 1.195c1.012.207 1.805-.637 2.758-.742 1.094.57 2.031 1.484 2.453 2.664-.297.73-1.137 1.059-1.828.648-2.461-1.09-5.028-1.894-7.582-2.726-1.758-.656-3.586.176-5.38.14-.835-.218-1.07-1.21-.843-1.945.606-1.113 1.746-1.832 2.27-2.996.336-.793.84-1.492 1.218-2.258.032-.562-.023-1.129.004-1.687zm15.652.777c1.516-.035 1.876 1.68 2.27 2.813.281.718-.55 1.195-1.172 1.105-.91.094-1.707-.437-2.203-1.156.555-.836.95-1.766 1.106-2.762zm81.173.41c.421-.316.937-.386 1.449-.312-.032.336.125.785-.219 1.02-.777.593-1.73.917-2.496 1.534-.465.434-1.133.211-1.68.137.602-1.176 1.89-1.695 2.946-2.379zm-65.383.301.422-.66c.933.078 2.218.59 2.203 1.7.172 1.437-.73 2.663-1.051 4.003.105.59.348 1.145.504 1.723l-1.13.996.505.543c.664-.395 1.246-.907 1.773-1.469.95-.988 1.957-1.965 2.614-3.18.12-.586-.012-1.187.023-1.777 1.789-.274 3.133 2.344 1.832 3.637-1.457 1.754-3.125 3.578-5.438 4.132-1.628.364-1.55 2.29-2.394 3.399-.691.84-.723 1.965-1.063 2.957-.316 1.277-.562 2.879-1.906 3.5-.695.164-1.304-.402-1.59-.984-.257-.54-.613-1.075-.558-1.7.726-.246 1.828-.062 2.176-.914.687-1.61 1.168-3.316 1.37-5.05-2.429.535-3.898 2.906-6.253 3.62-.485.075-1.16.196-1.39-.359.374-.742 1.253-.804 1.952-1.047.957-.254 1.7-.945 2.418-1.586.926-.847 1.918-1.629 2.739-2.586.273-.265.285-.656.363-1.003-1.25-.235-2.184.71-3.297 1.02-.89-.032-1.656.417-2.469.706-.418-.043-.82-.164-1.226-.25-.45.258-.88.64-1.43.625-.23-.27-.258-.555-.082-.851.27-.77.8-1.407 1.312-2.024.723.059 1.477.25 2.168-.078.864-.453 1.727.496 2.598.086.895-.41 1.988.187 2.797-.496.808-.676 1.86-1.434 1.832-2.602.086-1.011.32-1.996.473-2.992-.09-.441-.547-.691-.797-1.039zm-25.16 2.422c-.528-.68-.852-1.852-.06-2.465.806-.254 1.231.816 1.981.867.621.035 1.25.004 1.868.121-.649.836-1.282 1.707-2.051 2.442-.754.304-1.34-.434-1.738-.965zm60.093-1.402a83.582 83.582 0 0 0 3.09-.82c.367-.137.719.124 1.059.241l.144.79c-2.023.804-4.23 1.015-6.234 1.875.055.55.387 1.109.246 1.656-1.555 1.781-4.32 2.492-5.082 4.933 1.445-.093 2.75-.797 4.172-1.004-.719.887-1.84 1.254-2.856 1.672-1.03.36-2.109.805-3.222.64-.762-.16-.602-1.163-.461-1.722 2.011-1.058 3.937-2.523 5.078-4.527-.992-.828-2.367.05-3.469-.488-.383-.207-.973-.383-.965-.907 1.57-.496 3.211-.734 4.825-1.023 1.289-.262 2.402-1.016 3.675-1.316zm34.527.746c.688-.227 1.352-.844 2.114-.575.434.227.617.711.879 1.102l-.653.793c-.808.203-1.652-.07-2.464.082-.98.176-1.93.531-2.93.559.531-1.215 1.965-1.465 3.055-1.961zm-6.535 4.324c.375-1.305 1.211-2.434 1.446-3.79l.695.29c.047.547.324 1.121.149 1.664-.524.86-1.458 1.324-2.29 1.836zm-3.578.207c.598-.133 1.145-.793 1.77-.477.074.598-.379 1.055-.7 1.5-.417.633-1.288.391-1.913.641-.246.309-.364.695-.528 1.05a32.71 32.71 0 0 1-1.633-.042c-.582.562-1.199 1.097-1.953 1.418-1.066.453-1.765 1.457-2.797 1.96-.62.305-1.328.133-1.949-.062l.024-.836c.57-.222 1.187-.18 1.785-.246a7.145 7.145 0 0 1 2.148-1.156c2.196-.82 3.438-3.18 5.746-3.75zm6.227.371c.902-.605 2.035-.445 3.031-.168.02.805.13 1.664-.316 2.383-.453.754.074 1.777-.524 2.465-.972.148-1.789.707-2.695 1.039-.879.11-1.688.457-2.43.93-.93-.66-1.484-1.665-2.113-2.587-.336-.554-.992-.718-1.535-.996l-.008-.535c.695.008 1.434-.062 2.074.274 1.078.527 1.336 1.925 2.383 2.48 1.188-.23 2.375-.86 3.07-1.867.043-.852.094-1.73-.242-2.531-.605.285-1.176.633-1.754.976-.238-.851.504-1.37 1.059-1.863zm-29.445.297c1.675-.207 3.511-.024 4.773 1.223l.012.82c-.817.12-1.567-.215-2.23-.653-.782-.523-1.72-.671-2.634-.738l.079-.652zm-24.707.496c.808-.45 1.738.074 2.335.644.563.528.668 1.696-.097 2.09-1.328.164-2.473-.687-3.695-1.039-1.012.051-2.079.059-2.903-.629l-.004-.73c1.446-.266 2.977.25 4.364-.336zm22.871 3.395c1.336.035.84 1.933 1.925 2.378 1.153-.12 2.446-.98 3.508-.132-.633 1.136-2.187.925-3.172 1.609-.832.344-.875 1.32-.957 2.09-.062.887-.613 1.66-.597 2.57 1.906.594 3.601-1.027 5.507-.91.825-.07 1.72.324 2.024 1.137-.8.75-1.84.183-2.777.218-.875.02-1.797-.136-2.618.25-.757.348-1.609.29-2.414.418-.847.094-1.562.598-2.347.871l-3.555 1.165c-.934.265-2.371-.356-2.121-1.493.887-.464 1.797.215 2.726.063a9.593 9.593 0 0 0 3.852-1.363c.082-1.153.266-2.368-.203-3.465-1.461-.156-2.941.285-4.383-.102l.121-.597c1.469-.297 3.051-.41 4.356-1.215 1.082-.825.523-2.399 1.125-3.493zm-28.957 1.503c-.106-.523.398-.964.91-.847 1.015.11 2.058.59 2.617 1.484.133.422.074.922-.246 1.254-.777.91-1.79 1.89-3.086 1.8.023-.769.559-1.339.906-1.976-.082-.703-.781-1.12-1.101-1.715zm-1.297 5.379.476.075c.48 1.097 1.368 1.906 2.39 2.507-.022.493.126 1.11-.304 1.473-.515.441-1.25.27-1.867.246-.086-1.02-.7-1.851-1.094-2.762-.246-.554.07-1.105.399-1.539zm0 0"/></svg>