<svg xmlns="http://www.w3.org/2000/svg" width="336" height="334.667" viewBox="0 0 252 251"><defs><radialGradient id="a" gradientUnits="userSpaceOnUse" cx="5158.995" cy="5188.7" fx="5158.995" fy="5188.7" r="1707.25" gradientTransform="matrix(.05264 0 0 .05242 -190.315 -196.148)"><stop offset="0" stop-color="#FFF"/><stop offset=".22" stop-color="#6ABF99"/><stop offset=".71" stop-color="#01574F"/><stop offset="1" stop-color="#00524B"/></radialGradient></defs><g fill-rule="evenodd"><path d="M126.281 38.246c44.738 0 82.004 32.82 88.793 75.547-22.422 26.316-57.793 43.406-97.477 43.406-5.371 0-10.477-.262-15.371-.785a129.55 129.55 0 0 1-5.527-37.535c0-31.195 9.527-54.051 27.582-75.652l-1 .996C100.805 67.5 88.805 93.816 88.805 129.781c0 8.492.738 16.828 2.211 24.902-6.738-1.363-13.051-3.355-19.105-5.82-.527-4.559-.844-9.227-.844-13.945 0-39.684 19.738-74.863 49.898-96.461a91.18 91.18 0 0 1 5.367-.156zm89.793 94.473c-2.316 41.836-33.684 76.227-74.32 83.305-10.418-8.496-19.422-18.875-26.633-30.672l6.211.105c36.16 0 62.531-10.273 85.902-29.461.156-.105.684-.629 1-.84-21.687 15.414-44.687 23.59-75.953 23.59a155.47 155.47 0 0 1-21.738-1.52c-2.367-4.613-4.422-9.383-6.211-14.312 7.578 1.313 15.582 1.941 24.16 1.941 30.844 0 59.477-9.543 81.426-26.109 1-.785 3.527-3.25 6.051-5.977zM92.121 160.082c1.105 4.879 2.422 9.598 4 14.211-7.105-1.73-13.949-3.984-20.422-6.711a119.074 119.074 0 0 1-3.316-15.152c6.266 3.145 12.789 5.66 19.738 7.602zm7.789 23.961a122.39 122.39 0 0 0 15.949 26.789c.844 1.047 3.578 3.723 6.633 6.395-7.266-.312-14.316-1.465-21-3.406a119.49 119.49 0 0 1-21.32-33.656 159.51 159.51 0 0 0 19.793 3.879zm1.527 29.777h-.051.051zm-.367-.105zm-.055 0zm-.051 0h-.055.055zm-.055 0c-.051 0-.105-.051-.156-.051.051 0 .105.051.156.051zm-.156-.051c-24.895-7.34-45.32-25.164-56.109-48.285 9.316 5.609 19.633 10.117 30.738 13.473a125.1 125.1 0 0 0 25.371 34.813zm-63.109-70.566c-.895-4.98-1.316-10.117-1.316-15.309 0-37.117 22.844-69.098 55.266-82.621-.211.105-.418.156-.578.262C73.332 66.922 62.7 94.395 62.7 124.278a122.92 122.92 0 0 0 1.844 21.23c-8.004-3.984-15.527-8.965-22.949-14.887.262.262.84.84 1 .941 7.156 6.66 14.633 12.32 22.527 17.039 1.105 5.609 2.629 11.063 4.473 16.359-12.16-5.77-22.949-13.16-31.895-21.809zm83.215-104.695" fill="url(#a)"/><g fill="#00524B"><path d="m41.91 56.598 2.051 1.992c3.844-4.195 7.422-7.918 10.789-11.117l-2.051-1.992a18.92 18.92 0 0 0-1.371 1.523l-.102-1.836c-.16 0-.844.051-2.105.051h-1.105l1.473-1.414-2.16-2.047c-.734.895-1.945 2.098-3.473 3.723l-1.895-1.832 4.156-4.145-2.156-2.098a228.49 228.49 0 0 1-10.422 10.75l2.16 2.043a182.365 182.365 0 0 1 4-4.246l1.895 1.836a119.77 119.77 0 0 1-3.633 3.617l2.105 2.043 3.527-3.723 2.578 2.52-4.367 4.402zm6.578-6.711-2.578-2.52 1.262-1.309A11.63 11.63 0 0 1 47.016 48c1.418-.105 2.523-.105 3.313 0zM27.539 48l16.844 16.199c.105.156.262.313.422.469l2.262-2.359-.262-.262 11.422-11.742.367.367 2.367-2.41L45.277 33.32c-.633-.578-1.16-1.207-1.738-1.785L27.906 47.684c-.156.105-.262.262-.418.367zm17.266 12.004-12.793-12.32 11.422-11.742 12.793 12.32zm34-21.965c.738-.422 1.262-.84 1.633-1.312.629-.68.895-1.469.789-2.359-.16-1.52-1.105-3.512-2.844-5.977.211-.312.422-.629.684-.891 1.316 1.363 2.582 2.359 3.688 3.039 1.789 1.051 4.105 1.73 6.895 1.992.156-1.203.367-2.461.734-3.668-3.789.313-7-.996-9.629-3.879l2-3.41c-1.582-.262-2.738-.574-3.527-.891-.738 1.887-1.684 3.777-2.789 5.664-.844-.473-1.738-.734-2.684-.891l1.84-2.676a11.71 11.71 0 0 1-1.367-.211l5.945-2.777-1.262-2.621-14.578 7.078 1.262 2.621a129.69 129.69 0 0 1 5.633-2.832c-1.895 2.359-4.266 4.508-7.211 6.344 1.367.84 2.316 1.469 2.789 1.887 1.789-1.57 3.473-3.094 4.949-4.613.102.055.207.055.367.105-1.949 3.039-4.16 5.398-6.633 7.184 1.211.68 2.105 1.309 2.684 1.832 2.371-2.254 4.527-4.875 6.477-7.863.156.105.313.262.473.367a29.22 29.22 0 0 1-8.633 10.277c1.16.574 2.105 1.203 2.895 1.887 3.473-3.566 6-6.762 7.527-9.437.527 1.102.789 1.836.738 2.309s-.316.785-.844 1.047c-.473.262-1.051.473-1.684.629 1 .84 1.84 1.68 2.473 2.57.316-.211.684-.367 1.055-.578zM61.383 27.551l3.105-1.52c-.316-.574-.789-1.57-1.527-2.934l15.738-7.656 1.473 3.094 3.105-1.52a82.45 82.45 0 0 1-2.84-5.77l-9.527 4.719.422-.836-3.422-.945c-.633.996-1.262 1.887-1.949 2.672.738.16 1.316.367 1.895.578l-9.262 4.402 2.789 5.664zM96.754 6.688c.684 4.664 1.316 9.855 1.895 15.57l3.367-.422-.051-.418 5.156-.629c.371 3.094.633 4.824.789 5.242a1.68 1.68 0 0 0 1.16 1.051c.945.207 4.527-.055 10.633-.789.051-.051.156-.051.262-.051a7.88 7.88 0 0 0 1.211-.422c.578-.262 1.051-.836 1.367-1.727.211-.734.422-1.68.633-2.727a17.07 17.07 0 0 1-3.473-1.207c0 1.313-.211 2.203-.582 2.672-.312.316-1.789.684-4.418.996-1.105.16-1.895.211-2.477.266-.367 0-.629 0-.789-.055-.422-.051-.629-.312-.684-.785l-.367-2.883 5.895-.734.051.523 3.371-.418a283.976 283.976 0 0 1-1.949-15.625l-9.262 1.258c-.16-1.465-.316-2.727-.316-3.668l-3.371.418.527 3.672-8.527.941zm4.156 5.82-.367-3.094 5.16-.629.367 3.094zm.738 5.922-.367-3.094 5.156-.629.367 3.094zm7.633-6.973-.371-3.094 5.898-.734.367 3.094zm.734 5.926-.367-3.094 5.895-.734.371 3.094zm22.793 7.234 3.527.629 1.156-6.816c.633.785 1.211 1.68 1.633 2.676 1.316-1.262 2.316-2.359 3.105-3.355.156.68.316 1.309.367 1.938a13.328 13.328 0 0 1 3-1.469l-1.367-3.984c.422-.891.895-1.832 1.316-2.934.895 1.625 1.578 3.094 2 4.457-1.527 2.621-3.105 4.402-4.793 5.293 1.055.84 1.844 1.625 2.371 2.414 1.156-.895 2.422-2.258 3.84-4.039.316 1.051.582 2.047.738 3.043 1.266-.895 2.266-1.523 2.895-1.836l-1.156-3.305-.527-1.414c.633-1.574 1.156-2.937 1.527-4.035s.629-1.941.84-2.359a27.61 27.61 0 0 1-3.262-.996c-.211 1.098-.527 2.254-.895 3.457a24.11 24.11 0 0 0-.949-1.992c-.684.473-1.578.84-2.578 1.156l1.16-3.094c-1.316-.367-2.371-.734-3.16-1.207-.262 1.258-.578 2.465-1.051 3.672l-1.055-2.309c-.895.523-1.684.84-2.422.996l.633-3.668 15.16 2.672-2.793 15.781c-.051.418-.207.68-.367.785-.473.156-1.422 0-2.895-.473.422 1.52.578 2.883.473 3.984 2.527.262 4.105.16 4.844-.367.473-.312.844-1.363 1.211-3.145l3.473-19.187-21.949-3.879c-1.105 7.184-2.473 14.836-4.051 22.855zm6.211-14.836c.684 1.414 1.262 2.777 1.84 4.191-.734 1.523-1.84 2.883-3.312 4.039zm31.477 13.734c4.262-.945 8.051-2.516 11.418-4.824.527-.367 1.316-.84 2.316-1.52a14.15 14.15 0 0 1-2.367-2.883c-3.633 3.406-7.738 5.242-12.371 5.398h-.102c.473.996.895 2.254 1.156 3.828zm15.895 17.352c-.316-2.254-.844-5.555-1.684-9.855-.844.156-1.949.211-3.422.105.367 1.52.684 3.039.895 4.563l-9.371-4.145c2.688-.941 6.055-2.516 10.055-4.664-.789-.945-1.527-2.098-2.262-3.461-2.949 2.883-6.527 4.875-10.633 5.926-.633.105-1.316.156-2.055.207.16 1.207.105 2.52-.156 3.828.156.055.316.105.473.105 1.473.262 6.211 1.992 14.16 5.242.105 1.047.156 1.992.105 2.938a32.522 32.522 0 0 1 3.895-.84zm.422-23.379c-.105.363-.316.996-.527 1.887-.367 1.102-.473 2.461-.422 4.09 0 3.617 1.316 6.867 3.789 9.855 1.527-1.156 2.633-1.887 3.422-2.254-2.949-2.52-4.211-5.609-3.895-9.23.156-1.465.527-2.672 1.211-3.668a19.45 19.45 0 0 1-3.211-1.73c-.16.316-.262.684-.367.996zm32.051 32.398c-5.051-5.035-9.211-9.332-12.473-12.898l-2.316 2.203c3.266 3.039 7.422 7.34 12.527 12.844l2.262-2.203zm-10.262-13.945c1.422 1.363 5.844 5.871 13.367 13.578l-12 11.531c-.367.367-.629.527-.84.578-.211 0-.578-.211-1-.629l-1.527-1.625c-.578 1.363-1.211 2.516-1.949 3.355 1.211 1.102 2.266 1.887 3.105 2.305.895.473 1.582.629 2.105.422.266-.16 5.105-4.773 14.527-13.789l2.105-1.941c-5.629-5.609-10.84-10.957-15.578-16.094l-2.367 2.254zm-4.211 6.082-7.105 6.813c3.578 3.355 6.789 6.66 9.633 9.961 2.684-2.828 5.051-5.086 7.105-6.812-3.949-3.934-7.16-7.238-9.633-9.961zm2.473 12.215-5-5.141 2.633-2.516 5 5.137zm-80.688-21.129c52.32 0 95.004 42.516 95.004 94.629s-42.684 94.629-95.004 94.629-95.004-42.52-95.004-94.629 42.684-94.629 95.004-94.629zm0-4.09c54.582 0 99.109 44.352 99.109 98.719s-44.527 98.715-99.109 98.715-99.109-44.352-99.109-98.715S71.594 29.02 126.176 29.02zm0 0"/><path d="m16.855 73.109 5.578.945-.262 1.832c-1.422 0-2.687.316-3.738.895s-1.844 1.414-2.316 2.461c-.316.684-.422 1.363-.316 2.047.105.629.422 1.102.895 1.363.684.367 1.684-.316 3.055-2.047l.527-.629 1.84-2.148a4.405 4.405 0 0 1 1.055-.891c.578-.316 1.156-.473 1.789-.473s1.211.156 1.84.473c1.16.629 1.895 1.625 2.211 3.039s.16 2.832-.523 4.246c-.266.578-.633 1.102-1 1.574-.422.473-.898.84-1.422 1.207l.523.68-.578 1.258-4.367-.891.211-1.625c1.105-.051 2.105-.312 2.945-.84s1.477-1.203 1.895-2.043c.316-.629.422-1.207.371-1.781-.055-.527-.266-.895-.684-1.102-.633-.367-1.738.418-3.211 2.359l-.789.996c-1.211 1.465-2.211 2.41-3.055 2.727s-1.844.156-2.895-.422a4.77 4.77 0 0 1-2.473-3.406c-.371-1.574-.105-3.199.684-4.824.262-.523.578-.996 1-1.469s.945-.941 1.684-1.465l-.738-.684.582-1.207zm4.629 22.438.105-.312c.266-.891.266-1.73 0-2.516s-.84-1.574-1.684-2.465l.949-1.258 3.734 2.988-3.473 12.109-4.684.262-.105-1.625c1.156-.211 2.051-.523 2.684-1.047.633-.473 1.055-1.156 1.316-2.047l.105-.312-7.684-2.52c-1.105-.367-1.789-.469-2.16-.312s-.629.523-.84 1.207l-1.687-.527 2.105-7.285 1.688.574c-.16.684-.16 1.207.105 1.523.207.313.895.68 2 1.047l7.684 2.516zM5.75 107.449l1.262-6.344 1.738.418c-.105 1.102.523 2.098 1.84 3.094l.105.055 9.055 6.707-.684 3.41-11.316 1.938c-.844.16-1.422.316-1.687.578-.262.211-.473.629-.684 1.102l-1.734-.367 1.473-7.445 1.684.367-.051.156c-.105.527-.105.945-.055 1.207a.69.69 0 0 0 .578.473c.105 0 .211.051.316.051s.211 0 .316-.051l2.105-.367.949-4.824-1.793-1.102c-.102-.051-.207-.105-.262-.156s-.105-.051-.211-.051c-.316-.055-.578 0-.789.262s-.367.629-.527 1.258l-1.684-.367zm6.84 1.363-.629 3.25 4.473-.523-3.789-2.676zm4 15.727v-.312c.055-.945-.156-1.73-.578-2.414s-1.156-1.309-2.211-1.937l.633-1.469 4.316 1.938-.633 12.637-4.473 1.469-.473-1.523c1.102-.469 1.895-1.047 2.367-1.676.527-.629.789-1.414.84-2.359v-.312l-8-.473c-1.156-.055-1.84 0-2.211.262-.312.211-.523.68-.578 1.414l-1.789-.105.367-7.602 1.793.105c0 .734.102 1.207.418 1.469s1 .418 2.16.473l8 .473zM4.223 135.652l1.738-.207c.102.68.313 1.152.684 1.363.316.207 1.051.207 2.211.102l5.473-.73c1.156-.16 1.844-.367 2.105-.633s.367-.785.316-1.465l1.734-.211 1.477 12.738-4.055 2.676-.84-1.312c1-.941 1.734-1.937 2.156-2.988s.578-2.148.473-3.301c-.105-.684-.262-1.156-.473-1.312-.262-.207-.738-.262-1.527-.156l-2.051.262.105.734c.105.785.316 1.309.629 1.574s.949.313 1.844.262l.211 1.625-6.473.836-.211-1.625c.84-.207 1.418-.523 1.789-.891s.473-.891.422-1.52l-.105-.734-3.371.422c-.789.102-1.262.262-1.422.523-.207.262-.262.734-.156 1.469.156 1.203.633 2.305 1.422 3.352.84 1.051 1.895 1.891 3.211 2.52l-.578 1.57-5.16-1.676-1.473-13.055zm10.422 42.625.895-1.102a6.27 6.27 0 0 1-1.738-1.574 8.841 8.841 0 0 1-1.211-2.203c-.367-.996-.578-1.937-.578-2.777 0-.891.156-1.781.527-2.621.367-.891.945-1.73 1.734-2.516s1.688-1.363 2.687-1.836c1.051-.473 2.051-.734 3-.785s1.84.156 2.789.523c.895.367 1.684.945 2.367 1.73s1.266 1.676 1.684 2.727c.211.523.371 1.102.477 1.676s.105 1.207.105 1.887l.684.055.527 1.309-4.004 3.41-1.156-1.363c.895-1.207 1.473-2.309 1.738-3.305s.211-1.937-.16-2.828c-.473-1.156-1.262-1.891-2.367-2.098s-2.473.051-4.16.785c-1.629.734-2.734 1.625-3.312 2.57-.582.996-.687 2.043-.211 3.25.367.891.84 1.52 1.473 1.887a1.98 1.98 0 0 0 1.945.105c.477-.211.793-.523.898-.891s.051-.895-.16-1.523l1.527-.734 2.633 6.711-1.582.684c-.367-.578-.734-.945-1.105-1.051s-.895 0-1.523.316l-3.527 1.625-.844-2.098zm2.84 6.133 1.422-1.102c.422.578.789.84 1.16.891.367 0 1.051-.312 2-1.047l4.523-3.41c.949-.68 1.477-1.258 1.582-1.625s0-.891-.371-1.465l1.422-1.102 4.578 7.023c1.105 1.68 1.633 3.145 1.688 4.402 0 1.262-.527 2.258-1.582 3.094-.789.578-1.578.84-2.418.789-.793-.055-1.687-.473-2.582-1.262l-1.367 4.668c-.156.629-.262 1.102-.211 1.52a3.51 3.51 0 0 0 .422 1.313l-1.422 1.047-2.578-3.984 2.578-7.707-.738-1.102-1.473 1.102c-.945.684-1.473 1.258-1.578 1.625-.105.422 0 .891.367 1.469l-1.473 1.102-4.105-6.238zm9.793-.262c.051.105.105.156.156.262s.156.207.262.367c.738 1.102 1.422 1.832 2.105 2.148s1.316.262 1.949-.211c.578-.418.844-.996.895-1.676.055-.734-.211-1.469-.738-2.254-.367-.523-.684-.84-1-.891s-.789.156-1.418.629l-2.16 1.625zm15.789 11.48-1.367 1.207c-.422-.527-.844-.789-1.211-.734-.371 0-1 .418-1.895 1.203l-4.266 3.828c-.895.785-1.367 1.363-1.422 1.781-.105.422.055.895.477 1.418l-1.371 1.203-4.578-5.816 1.367-1.207c.422.523.844.785 1.211.734.371 0 1-.418 1.895-1.207l4.266-3.824c.895-.789 1.367-1.418 1.473-1.785.105-.418-.051-.891-.473-1.414l1.367-1.207 4.578 5.82zm2.105 7.707-5.055 5.609c-.523.629-.789 1.047-.789 1.414 0 .316.266.734.738 1.258 1.051 1.102 2.211 1.574 3.473 1.469s2.527-.84 3.684-2.148c1.211-1.312 1.793-2.676 1.898-4.039.051-1.363-.422-2.621-1.477-3.668-.473-.523-.895-.734-1.211-.734s-.734.316-1.316.945zm-11.422 4.297 1.211-1.363c.473.473.945.684 1.316.629s.945-.523 1.734-1.414l3.844-4.246c.789-.891 1.211-1.52 1.262-1.941s-.156-.891-.629-1.363l1.211-1.363 5.211 5.402c2 2.043 3.051 4.09 3.262 6.133s-.527 3.984-2.105 5.766c-1.633 1.785-3.367 2.621-5.316 2.52-1.895-.16-3.84-1.207-5.844-3.305l-5.207-5.398zm37.266 22.965 1.156 1.73c-1.367.996-2.684 1.52-4.051 1.676-1.371.105-2.633-.211-3.895-.945a8.708 8.708 0 0 1-2.211-1.992c-.633-.836-1.105-1.727-1.371-2.621-.312-1.098-.418-2.148-.262-3.195s.473-2.152 1.105-3.25c.578-1.102 1.262-1.992 2.055-2.621s1.684-1.102 2.734-1.363c.844-.211 1.684-.262 2.578-.105s1.688.473 2.477.941a8.82 8.82 0 0 1 1.316 1.102c.367.422.734.945 1.051 1.469l.633-.629 1.105.68-1.105 5.875-1.633-.367c.156-1.469.055-2.727-.262-3.777-.316-1.102-.895-1.832-1.633-2.305-.949-.578-1.949-.578-3 0s-2 1.676-2.895 3.25c-.844 1.625-1.266 3.039-1.16 4.297s.688 2.203 1.688 2.887c.734.469 1.578.629 2.578.523s2-.473 2.945-1.102zm7.578.941c-.629 1.836-.84 3.355-.578 4.613s.949 2.098 2.051 2.57 2.16.313 3.16-.418c.945-.734 1.789-2.047 2.422-3.828.629-1.836.84-3.355.578-4.613s-.949-2.098-2.055-2.57-2.156-.312-3.105.418-1.789 2.047-2.418 3.828zm-3.734-1.57c.789-2.258 2.102-3.777 3.945-4.613s3.844-.789 6 .102 3.684 2.309 4.527 4.246.895 4.039.051 6.293c-.789 2.254-2.105 3.773-3.945 4.613s-3.844.785-6-.105-3.684-2.305-4.527-4.246-.844-4.035-.051-6.289zm14.367 13.891.422-1.836c.633.16 1.105.055 1.422-.207s.578-.996.84-2.203l1.266-5.766c.262-1.207.313-1.992.156-2.359s-.527-.684-1.211-.84l.422-1.836 7.789 1.941c1.844.473 3.211 1.152 4 2.043s1.055 2.047.738 3.41c-.211.996-.633 1.781-1.316 2.305-.633.523-1.527.84-2.684.891l1.895 4.457c.262.578.527.996.789 1.258s.633.523 1.105.684l-.367 1.781-4.422-1.102-2.895-7.602-1.211-.312-.422 1.887c-.262 1.203-.316 1.992-.156 2.359s.578.68 1.207.836l-.418 1.836-6.949-1.73zm7.16-7.234c.102.051.156.051.262.105s.262.051.422.105c1.211.313 2.156.313 2.895.105.684-.266 1.105-.734 1.316-1.574.156-.734 0-1.363-.422-1.887s-1.055-.945-1.949-1.152c-.578-.16-1.051-.105-1.262.051-.262.211-.473.68-.633 1.469l-.578 2.777zm16.211 3.773c.105 0 .156.055.262.055s.211.051.422.051c1.156.156 2.105.055 2.734-.312s1.004-.996 1.105-1.887c.105-.789-.102-1.469-.523-1.992s-1.105-.84-1.949-.945c-.578-.051-.945 0-1.211.211-.211.207-.367.734-.473 1.52zm3.156-6.762c1.844.262 3.211.84 4.055 1.73s1.211 2.098 1 3.617c-.16 1.469-.738 2.516-1.738 3.145s-2.367.789-4.156.578l-2.582-.367-.156 1.574c-.16 1.203-.105 1.992.105 2.359s.633.574 1.262.68l-.211 1.887-7.051-.941.211-1.891c.684.055 1.105-.051 1.367-.367s.473-1.047.633-2.254l.684-5.871c.156-1.203.105-1.992-.055-2.359-.211-.367-.629-.574-1.262-.734l.211-1.887 7.789 1.051zm10.211 8.18c.055 1.938.422 3.461 1.105 4.508s1.633 1.52 2.844 1.469 2.105-.629 2.734-1.68c.633-1.102.895-2.621.844-4.559s-.422-3.461-1.156-4.512c-.687-1.047-1.633-1.52-2.844-1.465s-2.105.629-2.738 1.676c-.629 1.102-.895 2.621-.84 4.563zm-4 .156c-.051-2.41.578-4.402 1.949-5.926s3.211-2.359 5.523-2.41c2.316-.105 4.211.578 5.738 1.992 1.473 1.414 2.266 3.355 2.371 5.766.051 2.414-.582 4.406-1.949 5.926s-3.262 2.359-5.578 2.41c-2.316.105-4.211-.574-5.687-1.992s-2.262-3.355-2.312-5.766zm18.422 6.973-.316-1.836c.633-.156 1.055-.418 1.211-.785s.16-1.152-.051-2.359l-.949-5.82c-.211-1.203-.422-1.937-.734-2.254-.266-.262-.738-.367-1.422-.262l-.316-1.836 7.895-1.465c1.895-.367 3.367-.266 4.422.207 1.051.523 1.684 1.469 1.945 2.832.16 1.047.055 1.887-.367 2.672-.422.734-1.105 1.418-2.105 1.941l3.371 3.305c.418.418.84.68 1.207.836s.793.211 1.266.16l.316 1.832-4.477.84-5.422-5.766-1.207.207.313 1.891c.211 1.203.422 1.938.738 2.199.262.262.738.367 1.422.262l.316 1.887-7 1.313zm3.949-9.645c.105 0 .211 0 .262-.055.105 0 .262-.051.422-.051 1.262-.211 2.156-.629 2.684-1.102.527-.523.738-1.152.633-1.992-.105-.734-.473-1.258-1.055-1.574s-1.316-.418-2.211-.262c-.629.105-1 .316-1.156.578s-.211.836-.055 1.625l.477 2.777zm18.262 4.715-5.734 2.098-.582-1.781c.895-.473 1.422-1.574 1.527-3.25v-.105l.684-11.797 3.055-1.152 7.367 9.383c.578.684 1 1.102 1.316 1.258s.738.16 1.266.055l.578 1.781-6.738 2.465-.578-1.73.156-.051c.473-.16.844-.367 1-.578s.211-.473.105-.785c-.051-.105-.051-.211-.156-.316-.055-.105-.105-.207-.211-.262l-1.367-1.73-4.371 1.625.055 2.203c0 .156 0 .211.051.313 0 .055.055.16.055.211a.94.94 0 0 0 .629.629c.316.055.738 0 1.266-.156l.578 1.73zm-2.418-6.973 2.945-1.098-2.738-3.828-.207 4.875zm12.051-11.008-.262.105c-.789.367-1.371.891-1.789 1.625-.371.734-.633 1.73-.687 2.988l-1.523.051-.266-5.031 10.898-4.93 3.211 3.672-1.105 1.102c-.898-.84-1.687-1.363-2.477-1.523-.734-.207-1.527-.102-2.316.211l-.262.105 3.105 7.918c.422 1.098.844 1.781 1.156 1.992s.793.207 1.422-.055l.684 1.73-6.578 2.988-.684-1.73c.578-.312.945-.629 1.051-1.047s-.105-1.156-.523-2.309l-3.105-7.914zm16.316-11.586.949 1.574c-.527.367-.844.785-.844 1.203-.051.422.266 1.156.844 2.203l2.945 5.031c.582 1.051 1.105 1.625 1.422 1.785.367.156.844.051 1.367-.316l.949 1.625-6 4.039-.949-1.625c.527-.367.844-.789.844-1.207.051-.418-.262-1.152-.895-2.148l-2.949-5.035c-.629-1.047-1.105-1.676-1.473-1.781-.367-.156-.789-.051-1.367.313l-.949-1.57 6-4.039zm8.688 2.988c1.156 1.52 2.313 2.465 3.418 2.883 1.16.367 2.16.156 3.105-.629s1.316-1.836 1.211-3.145c-.105-1.258-.734-2.676-1.895-4.195s-2.262-2.465-3.422-2.832-2.156-.156-3.105.629-1.316 1.836-1.211 3.094.738 2.676 1.898 4.195zm-3.105 2.727c-1.422-1.887-2.004-3.879-1.793-5.977.266-2.098 1.266-3.934 3.055-5.504s3.684-2.254 5.684-2.098 3.684 1.207 5.105 3.094 2 3.879 1.738 5.977c-.266 2.148-1.266 3.984-3.055 5.555s-3.684 2.254-5.684 2.047-3.684-1.207-5.105-3.094zm18.895-6.031-1.316-1.258c.422-.574.578-1.047.527-1.414-.055-.418-.527-.996-1.371-1.836l-4.105-3.984c-.84-.836-1.473-1.258-1.84-1.309s-.789.207-1.266.734l-1.312-1.258 4.105-4.879 9.418 1.941-2.84-2.727c-.844-.84-1.473-1.258-1.844-1.258-.367-.051-.789.211-1.262.734l-1.266-1.207 3.582-4.246 1.316 1.258c-.422.523-.582.996-.527 1.418s.527.996 1.422 1.832l7.422 7.133-1.793 2.094-12.734-2.566 4.945 4.77c.844.84 1.473 1.258 1.844 1.313s.789-.211 1.262-.734l1.266 1.258-3.582 4.246zm14.578-32.238c1.578.941 3 1.363 4.16 1.258s2.051-.684 2.629-1.836c.582-1.102.582-2.254.055-3.406-.578-1.156-1.633-2.152-3.211-3.148-1.578-.941-3-1.363-4.16-1.258-1.207.105-2.051.734-2.629 1.836s-.578 2.254-.055 3.355 1.633 2.148 3.211 3.094zm-1.945 3.773c-1.949-1.152-3.211-2.777-3.738-4.824s-.211-4.191.895-6.344c1.105-2.199 2.633-3.562 4.527-4.191s3.84-.367 5.789.785 3.211 2.777 3.738 4.875c.523 2.043.211 4.195-.895 6.395s-2.633 3.566-4.527 4.195-3.844.367-5.789-.84zm8-21.914.156-.523c.211-.734.266-1.312.055-1.68s-.738-.734-1.582-1.047l.477-1.52 6.367 2.199-.473 1.523c-.844-.16-1.473-.16-1.949.051s-.789.578-.945 1.207l-.16.523 2.266.785c1.105.367 1.789.473 2.156.367.371-.156.684-.523.895-1.207l1.684.578-2.207 7.234-1.687-.574c.16-.684.16-1.207-.051-1.523s-.895-.68-1.949-1.047l-5.262-1.836c-1.105-.367-1.789-.523-2.16-.367-.367.105-.684.523-.895 1.207l-1.684-.578 3.578-11.793 4.527-.633.266 1.574c-1.16.367-2.16.891-2.895 1.574s-1.316 1.57-1.633 2.621c-.211.68-.211 1.152-.105 1.414.156.316.578.578 1.316.84l1.895.68zm9.895-33.867.949-1.836c1.418.891 2.473 1.941 3.156 3.199a7.39 7.39 0 0 1 .895 4.141 8.24 8.24 0 0 1-.738 2.988c-.418.996-.945 1.785-1.629 2.465a7.24 7.24 0 0 1-2.582 1.676 7.8 7.8 0 0 1-3.207.367c-1.16-.102-2.211-.367-3.105-.836s-1.687-1.156-2.371-2.047c-.527-.734-.945-1.52-1.211-2.41s-.367-1.836-.316-2.777a10.27 10.27 0 0 1 .316-1.73c.211-.578.422-1.102.789-1.68l-.789-.312.105-1.363 5.371-1.52.418 1.727c-1.262.473-2.312 1.102-3.051 1.891s-1.16 1.625-1.211 2.566c-.055 1.152.367 2.148 1.316 2.938s2.262 1.203 4 1.363c1.738.105 3.105-.16 4.105-.789 1-.68 1.578-1.625 1.633-2.883.051-.891-.16-1.781-.687-2.727s-1.262-1.676-2.207-2.359zm5.156-4.09-1.734.156c-.105-.73-.316-1.152-.633-1.359s-1.051-.266-2.211-.16l-5.527.523c-1.156.105-1.84.316-2.156.578-.262.262-.422.785-.367 1.469l-1.738.156-.633-7.602 1.684-.156c.105.68.266 1.152.633 1.363.316.207 1.055.262 2.211.156l1.422-.156-.473-5.664-1.422.16c-1.16.102-1.844.313-2.16.574-.262.262-.418.789-.367 1.469l-1.684.156-.633-7.602 1.738-.156c.105.68.262 1.152.629 1.363.316.211 1.055.262 2.211.156l5.527-.523c1.16-.105 1.844-.316 2.16-.578.262-.262.418-.785.367-1.465l1.738-.16.629 7.602-1.734.16c-.105-.684-.266-1.156-.633-1.363-.316-.211-1.051-.262-2.211-.16l-2.422.211.477 5.664 2.418-.211c1.16-.105 1.844-.316 2.105-.578s.422-.785.371-1.469l1.734-.156.633 7.602zm-17.629-23.59 1.684-.473c.156.68.422 1.102.789 1.258s1.105.105 2.211-.211l5.367-1.414c1.105-.312 1.789-.578 2-.945.266-.312.316-.836.16-1.52l1.734-.473 1.738 7.395-1.738.473c-.156-.684-.422-1.102-.789-1.258s-1.105-.105-2.211.207l-5.367 1.418c-1.105.313-1.789.629-2.055.941s-.262.84-.156 1.52l-1.684.473-1.738-7.391zm12.945-8.598-1.629.68c-.266-.629-.582-1.047-.949-1.152s-1.105.051-2.156.523l-5.16 2.203c-1.051.473-1.684.84-1.895 1.207s-.211.836.051 1.52l-1.629.68-2.266-6.082 5.738-8.23-3.527 1.52c-1.051.473-1.684.84-1.895 1.207s-.156.84.055 1.52l-1.582.684-2-5.297 1.633-.68c.262.629.578.996.949 1.102s1.105-.055 2.156-.527l9.266-3.98 1 2.672-7.738 11.113 6.211-2.672c1.051-.473 1.684-.891 1.895-1.207.211-.367.156-.84-.055-1.52l1.582-.684 2 5.297zm-9-21.863 2.949 5.664-1.527.941c-.578-.891-1.684-1.258-3.262-1.047h-.105l-10.949 1.309-1.578-3.039 7.316-9.437c.523-.734.84-1.258.945-1.625.055-.367 0-.785-.211-1.309l1.527-.895 3.473 6.66-1.523.891-.055-.156c-.262-.473-.473-.789-.684-.945s-.473-.156-.738 0a.967.967 0 0 0-.262.211c-.105.051-.16.156-.211.262l-1.367 1.73 2.211 4.297 2.051-.469c.105-.055.211-.055.262-.105.055 0 .105-.055.16-.105.316-.156.422-.418.473-.734 0-.312-.105-.785-.367-1.309l1.527-.895zm-6 3.777-1.473-2.887-3.055 3.566 4.527-.629zm0 0"/></g></g></svg>