<svg xmlns="http://www.w3.org/2000/svg" width="1000" height="1000"><path fill="rgba(255,255,255,0)" d="M0 0h1000v1000H0z"/><g vector-effect="non-scaling-stroke" transform="matrix(15.24 0 0 15.24 1972.3708 495.6794)"><path d="M-129.32.22c.04-1.92.21-3.81.54-5.7.37-2.16.97-4.25 1.77-6.29.93-2.36 2.12-4.58 3.56-6.66 1.09-1.59 2.32-3.06 3.68-4.42 1.77-1.78 3.72-3.35 5.86-4.68 1.29-.81 2.63-1.54 4.02-2.16q3.345-1.485 6.93-2.19c2.76-.54 5.55-.72 8.36-.56 1.89.11 3.76.4 5.61.85a32.77 32.77 0 0 1 6.24 2.19c3.38 1.58 6.37 3.71 9.03 6.32 1.49 1.47 2.83 3.06 4.01 4.79 1.38 2.03 2.52 4.17 3.43 6.45a31.7 31.7 0 0 1 1.94 7.22q.495 3.33.3 6.69c-.07 1.26-.19 2.52-.41 3.76-.24 1.35-.56 2.68-.95 4-.67 2.26-1.61 4.4-2.75 6.46-.81 1.46-1.75 2.85-2.78 4.17a34 34 0 0 1-3.35 3.67 33.5 33.5 0 0 1-3.46 2.84 32 32 0 0 1-4.81 2.85 33.5 33.5 0 0 1-8.71 2.76c-1.64.28-3.29.41-4.96.42-2.24.02-4.47-.16-6.67-.6-1.85-.37-3.65-.88-5.41-1.56-1.51-.59-2.98-1.26-4.39-2.07-1.99-1.15-3.86-2.46-5.57-4-1.05-.95-2.06-1.93-2.98-3.01a33.3 33.3 0 0 1-6.12-10.44c-.86-2.42-1.46-4.92-1.7-7.49-.13-1.2-.18-2.4-.26-3.61m32.4-31.96c-17.38.07-31.82 14.47-31.61 32.39.2 17.33 14.33 31.78 32.25 31.61C-78.84 32.1-64.4 17.73-64.73-.41c-.33-17.34-14.57-31.52-32.19-31.33m.3 7.31C-83.04-24.46-71.87-13.3-72.03.54c-.15 13.55-11.2 24.5-24.8 24.41-13.55-.1-24.56-11.26-24.41-24.96.14-13.56 11.15-24.45 24.62-24.42M-120.81-.42c0 3.03.33 5.33 1 7.58.5 1.69 1.18 3.3 2.02 4.85.82 1.5 1.82 2.87 2.92 4.17 1.55 1.81 3.34 3.32 5.34 4.6a23.73 23.73 0 0 0 4.72 2.31 23.11 23.11 0 0 0 4.82 1.19 24.29 24.29 0 0 0 8.83-.4c1.61-.38 3.17-.91 4.66-1.6 1.65-.76 3.18-1.71 4.62-2.82 1.34-1.04 2.55-2.2 3.65-3.49 1.58-1.86 2.84-3.92 3.81-6.17.82-1.9 1.37-3.88 1.68-5.92.22-1.41.29-2.84.26-4.27-.06-2.25-.41-4.46-1.08-6.6a24.13 24.13 0 0 0-3.63-7.15c-1.42-1.93-3.09-3.6-4.98-5.04a23.2 23.2 0 0 0-5.28-3c-1.98-.81-4.03-1.37-6.15-1.63-2.16-.26-4.32-.25-6.48.06-2.4.34-4.69 1.03-6.87 2.06a23.35 23.35 0 0 0-4.92 3.11 24 24 0 0 0-3.85 3.94c-.92 1.2-1.74 2.46-2.42 3.81-.53 1.06-1.02 2.13-1.39 3.25-.84 2.54-1.31 5.15-1.28 7.16m48.86-9.72c-.35-.34-.68-.6-1.14-.65-.32-.04-.55-.54-.34-.77a.34.34 0 0 1 .32-.06c.17.08.31.21.47.33l1.04.81c.08.06.19.1.3.16.04-.06.08-.1.09-.15.11-.39.36-.46.64-.18.27.26.56.49.9.63.19.08.39.22.62.13a1.26 1.26 0 0 0-1.01-.9c-.79-.13-1.54-.38-2.27-.7-.27-.12-.33-.27-.24-.52.11-.28.31-.39.58-.29.14.05.27.14.4.21.23.13.45.23.74.22.2 0 .39.1.59.16l.34.1a.3.3 0 0 1 .04-.08l-.37-.21c-.26-.18-.28-.41-.02-.61.2-.16.42-.29.64-.45.31.2.1.55.19.83.57-.15.54-.79.91-1.12.25.23.22.5.22.75 0 .56.22.7.73.45.03-.02.08-.02.11-.03.03.02.07.03.07.05.07.19.18.4.01.58-.18.18-.39.04-.58-.02a.53.53 0 0 0-.29-.04c.04.05.07.12.12.16l.85.57c.09.06.19.12.26.2.06.08.12.22.08.28-.05.09-.18.17-.28.17-.34.01-.68-.01-1.02-.01l-.21.01.07.36c.08.37-.11.56-.48.47a1.8 1.8 0 0 1-.55-.27.7.7 0 0 0-.61-.11c-.18.04-.38-.04-.61-.08l.09.23c.06.12.14.23.17.36a.39.39 0 0 1-.21.45c-.18.1-.33.03-.45-.09a2 2 0 0 1-.29-.43c-.12-.21-.18-.23-.39-.13l-.65.35c-.13.07-.28.13-.42.16-.42.07-.72-.26-.59-.66.09-.26.11-.5.05-.77-.02-.09.02-.2.03-.32.25.09.32.24.33.43.01.1 0 .21.04.28.05.08.18.18.23.16.22-.11.5-.14.75-.4m2.26-.9c-.15-.29-.45-.3-.7-.39-.54-.18-.55-.17-.79-.09.51.13.93.51 1.49.48m1.96.47c-.23-.34-.39-.33-.57 0zm-34.3-13.52c-.28-.08-.29-.31-.32-.52l-.27-1.91c-.01-.06-.04-.12-.07-.22-.17.1-.31.21-.47.27-.15.05-.31.05-.54.09-.03.09-.11.23-.15.38-.13.5-.13.5-.67.45v.27c0 .04.01.08.01.12 0 .3-.19.55-.43.56-.22.02-.48-.24-.5-.51-.01-.13.03-.27.03-.41l-.01-.92h-.45c-.24-.01-.33-.19-.21-.4.01-.02.03-.05.05-.07.57-.52.72-1.24.95-1.93.04-.12.05-.24.09-.36.11-.32.13-.62-.11-.89-.04-.05-.05-.12-.08-.18.1-.18.27-.19.43-.18.15 0 .3.03.45.02.22-.02.34.09.4.27.12.36.15.72-.1 1.06l-1.1 1.49a.9.9 0 0 0-.17.35c.28-.09.41-.33.59-.52.12-.13.23-.27.37-.38.19-.14.38-.06.43.17.06.24-.04.85-.19 1.08a1.43 1.43 0 0 0 .11.15c.03.04.07.09.11.13l.11-.09c.1-.08.2-.17.32-.23.1-.05.22-.06.32-.1.26-.1.3-.23.16-.47-.03-.04-.06-.09-.1-.15l.19-.3c-.63-.24-.63-.24-.56-.61a2.56 2.56 0 0 0 1.17-.86c.11-.15.24-.25.45-.16.31.13.37.36.14.61-.05.05-.1.1-.16.13-.34.18-.55.48-.76.83.22.07.4 0 .58-.11.14-.08.28-.17.43-.22.3-.1.49.03.47.35-.01.34-.11.68-.36.9-.39.34-.42.71-.3 1.17.09.39.1.81.1 1.22.01.26-.14.48-.38.63m-2.42-2.45c-.36-.33-.41-.33-.59-.04.28.23.28.23.59.04m-.21.66c.05.01.1.03.15.04l.02-.27c0-.01-.1-.03-.1-.03l-.07.26m-14.98 12.6c.1-.7.1-.71-.31-.9-.02.08-.05.15-.05.22 0 .09.04.19.04.28l-.1 2c-.04.29-.25.57-.41.84-.28.48-.44.97-.34 1.53.05.3-.11.49-.35.64-.25.15-.49.11-.67-.1a3.5 3.5 0 0 1-.48-.71l-.8-1.76c-.02-.05-.05-.1-.06-.15-.03-.13-.11-.3.06-.36a.47.47 0 0 1 .38.06c.19.13.36.28.43.53a6.1 6.1 0 0 0 .28.82c.05.13.14.25.25.43.12-.12.23-.19.27-.29l.38-1.08c.07-.26-.02-.52-.21-.72l-1.33-1.46c-.36-.4-.68-.83-.89-1.32-.06-.15-.1-.32-.09-.48.03-.39.44-.6.75-.36.25.19.46.43.64.69l1.05 1.62c.06.1.14.18.27.35l.17-.63.23-1c.08-.35.37-.42.66-.45.28-.04.52.06.65.33.1.21.21.42.28.64a.69.69 0 0 1-.17.72c-.14.13-.3.22-.53.07m6.67-6.37l.12-.25c.24-.31.24-.32 0-.62-.09-.12-.2-.23-.3-.34-.03-.03-.07-.04-.13-.08l-.08.22c-.11.19-.19.4-.34.55-.22.24-.46.21-.57-.1-.12-.33-.17-.69-.23-1.04-.03-.15-.04-.31-.06-.49-.23.05-.19.23-.24.34-.06.14-.09.29-.17.41-.14.21-.31.23-.53.11l-.43-.23c-.2-.11-.22-.23-.05-.38.09-.08.21-.13.31-.2.16-.11.33-.2.46-.34.35-.34.5-.73.36-1.23q-.21-.735-.36-1.47c-.04-.18-.02-.39.03-.56.1-.34.39-.4.63-.14.23.25.38.53.32.89-.04.25-.04.51.02.79.29-.03.33-.26.42-.42.11-.19.17-.38-.07-.53-.06-.04-.06-.16-.09-.24.08-.02.15-.05.23-.04.1 0 .21.04.32.05.3.04.39.15.26.43-.16.37-.34.75-.56 1.09-.2.31-.32.63-.31 1l.02.99c0 .07.05.14.09.25.23-.23.37-.44.3-.74l-.14-.56c-.07-.39.22-.78.61-.83.23-.03.44.13.44.38 0 .19-.04.38-.08.57-.05.25-.04.49.11.71l.9 1.27c.09.13.17.3.16.44-.03.35-.24.47-.59.41-.12-.02-.24-.02-.37-.03-.1 0-.22-.02-.41-.04m31.28-1.2c.39.28.72.65 1.25.55.28-.05.55-.22.79-.53-.1-.03-.18-.08-.26-.07-.12.01-.24.05-.36.07-.4.09-.64-.07-.63-.46 0-.27-.07-.58.17-.87l.36.32c.18.14.35.32.55.41.81.36.95.15 1.38-.27l.62-.6c.42-.38.8-.79.92-1.37.03-.14.05-.37.28-.34.2.02.23.22.25.38.04.31.08.63.06.94-.01.16-.09.36-.21.46-.33.28-.7.53-1.05.78-.17.12-.35.21-.44.41.34.23.65.23.91-.04.14-.14.26-.13.39-.02l.42.39c.15.17.09.36-.13.4q-.285.045-.57 0l-1.34-.24a.72.72 0 0 0-.71.18c-.46.41-1.02.57-1.62.62-.29.03-.54-.05-.71-.31-.1-.15-.24-.26-.35-.4-.09-.11-.14-.23.03-.39m-9.98-4.85l-.69.25c-.16.05-.34.17-.49-.02-.11-.14-.08-.41.11-.56.28-.23.5-.53.93-.53.27 0 .53-.13.73-.36-.06-.25-.21-.19-.37-.11-.28.13-.46.08-.6-.13-.04-.05-.08-.16-.06-.18.16-.18.31-.37.5-.52.07-.05.23 0 .34.04.34.15.45.12.5-.24.04-.32.21-.49.5-.57.16-.04.29 0 .33.16.05.26.23.35.43.45.27.13.29.25.1.47-.07.08-.16.15-.24.22-.2.16-.34.32-.15.59.09.14.05.3-.08.41-.18.12-.34.26-.52.33a.6.6 0 0 0-.38.44l-.33 1.11c-.04.13-.11.29-.27.27a1 1 0 0 1-.43-.18c-.06-.04-.08-.17-.1-.26-.04-.21-.06-.43-.09-.66.05-.16.41-.06.33-.42m.16-.46c-.01-.03-.01-.07-.02-.1l-.26.05c.05.09.09.11.14.11.05-.01.09-.04.14-.06m-1.89 53.55l-.13.4-.47 1.79c-.01.03 0 .06-.02.08-.09.1-.16.23-.27.27-.16.06-.24-.09-.3-.22l-.55-1.29-.28-.69c-.03-.08-.09-.15-.18-.31v1.1l.07 1.19c.01.14.01.3-.18.31-.18.01-.21-.14-.22-.28l-.13-1.8-.06-.9c-.02-.16-.03-.3.17-.35.24-.06.45-.01.54.16.03.05.04.1.06.15l.89 2.16c.02.05.06.08.14.19l.16-.45.53-2.03c.03-.1.05-.25.12-.29a.7.7 0 0 1 .42-.09c.07.01.14.19.15.29l.21 2.75c.01.09-.04.22-.11.27-.14.1-.27.01-.29-.2l-.14-1.8c-.01-.13-.04-.26-.05-.39-.01-.01-.05-.01-.08-.02m4.2-54.89l.35.59c.29-.19-.02-.39.03-.6.21-.22.72-.21.61-.71.49-.25.75-.24 1.04.08l-.62.57c-.23.2-.45.37-.41.75.03.29-.19.39-.52.32l-.47.71c-.2.3-.13.49.23.55a2.74 2.74 0 0 0 .7.03c.33-.02.48-.19.54-.52l.08-.49c.08.01.13 0 .14.01.29.41.37.87.3 1.36-.04.24-.19.33-.44.35-.69.03-1.36-.12-2.02-.31-.32-.09-.4-.28-.32-.61.06-.22.14-.44.23-.66l.55-1.42m-8.71 55.96c.35.48.64.98.85 1.56-.31.04-.49-.01-.6-.24l-.38-.77c-.21-.44-.54-.67-1.03-.66-.26.01-.3.03-.33.3l-.09.9c-.02.16-.08.27-.26.24-.15-.03-.18-.15-.17-.28l.3-2.82c.02-.18.1-.28.29-.25l1.59.2c.34.05.59.25.68.58s.06.67-.22.91c-.13.11-.31.17-.46.26-.05.01-.1.03-.17.07m-.09-.41c.24.01.51-.21.54-.53.03-.29-.17-.52-.51-.58l-.85-.12c-.33-.03-.38.02-.42.34l-.05.41c-.03.31.01.37.31.4l.98.08m27.13-14.28l1.19.64c-.03.34-.11.42-.34.3l-2.63-1.43c-.01-.01-.01-.02-.04-.06.02-.08.03-.19.08-.29l.71-1.3c.3-.5.83-.59 1.31-.26.26.18.34.45.35.75v.28l1.67-.19c.03.38-.02.47-.3.5-.29.04-.57.06-.86.06-.62.03-.98.35-1.14 1m-.45-.25c.05-.04.11-.06.13-.1l.51-.98c.06-.13.06-.3.02-.44-.05-.183-.199-.322-.385-.36a.5.5 0 0 0-.495.18c-.25.31-.43.67-.62 1.01-.08.14-.02.27.13.34l.71.35m-35.62 11.05c.36-.04.44.19.5.42l.52 2.16c.03.14.08.27.13.41h.1l.15-.35.58-1.58c.02-.05.02-.13.06-.15.08-.05.18-.12.27-.12.13.02.15.14.11.26l-.29.81-.67 1.81c-.04.11-.11.21-.17.32-.28-.05-.4-.18-.45-.43l-.53-2.15-.17-.54c-.09.16-.14.23-.17.32l-.61 1.7c-.03.08-.05.18-.1.22-.06.05-.17.07-.25.05-.05-.01-.09-.12-.1-.19-.01-.08.03-.16.06-.24l.94-2.58c.02-.06.06-.1.09-.15m26.69-1.93l.32.46.99 1.26c.16.2.15.21-.12.44l-.63-.73-1.23-1.59c-.09-.12-.24-.22-.12-.39s.3-.16.48-.1l2.15.71.5.15c-.03-.23-.15-.34-.24-.46l-1.04-1.33c-.1-.12-.22-.24-.03-.38.18-.14.28.03.37.14l.99 1.26.68.88c.06.08.12.24.08.28a.57.57 0 0 1-.34.18c-.14.01-.29-.06-.43-.11l-2.14-.72c-.05-.02-.1-.01-.15-.02-.04.02-.06.04-.09.07m-42.71-10.15l1.54-.64.49-.21c.13-.06.25-.04.3.11.06.15-.03.22-.16.28l-1.13.49-1.36.58c-.13.05-.27.17-.42.03-.12-.12-.12-.31.03-.53l1.01-1.55.48-.77c-.3-.02-.49.11-.69.19l-1.32.57c-.06.03-.13.07-.19.06-.08-.01-.2-.05-.22-.11-.03-.06.01-.19.07-.24.08-.07.19-.1.29-.14l2.19-.93c.17-.07.34-.22.52-.04.12.12.08.31-.09.56l-1.33 2.07c-.03.05-.05.12-.08.17.03.01.05.03.07.05m7.11 7.2l-.95 1.01-.54.57c-.09.09-.18.18-.31.06-.14-.13-.07-.23.04-.35l1.56-1.69.3-.34c.09-.1.2-.24.34-.13.1.08.2.25.19.37-.01.3-.09.59-.14.89l-.29 1.7c-.01.05.01.1.03.23.14-.1.26-.16.34-.25l1.17-1.26.06-.06c.09-.08.18-.19.32-.09.12.08.11.24-.03.4l-.65.69-1.2 1.3c-.09.1-.19.22-.35.16-.16-.07-.21-.21-.2-.37l.07-.53.33-1.95c.02-.1 0-.21 0-.31-.02-.03-.06-.04-.09-.05m-7.03-5.18l2.17-1.32.42-.26c.23-.14.3-.13.44.09l.57.95c.46.78.14 1.29-.26 1.71-.31.33-.7.53-1.13.64-.51.12-.95.02-1.3-.39-.38-.42-.6-.92-.91-1.42m1.82 1.41c.58-.04 1.04-.33 1.39-.77.21-.27.26-.6.08-.92l-.33-.57c-.18-.3-.24-.3-.55-.11l-.35.21-1.26.77c-.14.09-.25.19-.14.36l.5.75a.69.69 0 0 0 .66.28m9.76 8.25l-.58.89c-.06.08-.21.13-.32.14-.8.07-1.7-.53-1.96-1.29a1.32 1.32 0 0 1-.01-.81c.21-.7.62-1.2 1.33-1.45.27-.09.52-.06.77.02.51.16.95.43 1.17.95.13.31.12.49-.01.82-.32-.04-.34-.04-.32-.31.04-.51-.25-.79-.65-1-.39-.2-.78-.21-1.15.08-.27.21-.49.44-.62.75-.38.89.11 1.49.83 1.74.11.04.24.06.36.07.26.02.53-.2.53-.46 0-.07-.05-.16-.1-.2-.12-.11-.26-.2-.4-.29-.12-.08-.19-.17-.1-.3.08-.12.19-.09.29-.02l.94.67m-7.1-7.86c.86 0 1.38.52 1.6 1.08.25.64.06 1.22-.4 1.7-.41.43-.92.71-1.54.62-.66-.09-1.09-.49-1.32-1.1-.24-.64-.03-1.19.41-1.66.37-.38.83-.61 1.25-.64m1.29 1.57c.02-.57-.4-1.04-.96-1.15-.5-.1-1.27.4-1.54.9-.4.73.1 1.61.93 1.69.62.06 1.64-.77 1.57-1.44m16.37 9.73c-.09.31-.15.64-.29.93-.32.69-.98.99-1.74.84-.69-.13-1.19-.7-1.26-1.43a2.03 2.03 0 0 1 .41-1.43c.4-.54.95-.71 1.6-.55.66.16 1.09.61 1.2 1.25.02.12.02.25.03.37.02.01.03.02.05.02m-.5-.1c-.02-.7-.37-1.15-1.01-1.2-.58-.05-1.04.21-1.24.9a2.92 2.92 0 0 0-.11.72c-.01.53.32.93.88 1.09.45.13.95-.07 1.2-.49.19-.3.32-.64.28-1.02m27.14-11.6l.8.6.43-.53.56-.76c.08-.11.17-.19.3-.09s.07.21-.01.32l-.91 1.26c.24.3.56.47.9.7l.32-.38.74-1.04c.07-.1.16-.23.3-.13s.11.24.02.36l-1.16 1.6c-.11.16-.23.15-.38.04l-2.3-1.67c-.14-.1-.16-.22-.07-.35l1.2-1.62c.04-.05.18-.07.24-.04.12.06.1.18.03.28l-.68.92-.33.53m6.67-6.41c-.01.48-.2.89-.52 1.25-.23.25-.55.3-.87.27-.06-.01-.16-.1-.16-.15a.31.31 0 0 1 .12-.23c.06-.04.16-.03.24-.05.53-.13.92-.78.8-1.31-.1-.4-.53-.55-.82-.25-.25.27-.45.58-.67.88-.09.12-.18.25-.29.34-.45.36-1.07.16-1.27-.38-.21-.57.12-1.42.62-1.69.15-.08.34-.1.51-.12.06 0 .18.09.19.15.01.07-.06.16-.12.23-.03.03-.1.02-.16.04-.49.11-.83.67-.71 1.17.08.33.39.47.66.26.15-.11.25-.28.37-.44l.42-.61c.28-.36.66-.51 1-.4.4.13.67.52.67.98 0 .02-.01.03-.01.06m-57.56-6.11l-.87.12-.49.08c-.15.02-.24-.05-.25-.2-.01-.14.07-.2.19-.22l1.46-.25 1.22-.19.25-.02c.12 0 .22.05.23.19.01.13-.05.2-.19.22l-.85.15c-.21.03-.3.12-.26.32l.19 1.22c.03.19.14.25.32.23l.81-.13c.15-.02.28-.03.32.16.03.19-.09.23-.24.26l-2.76.44c-.13.02-.26.02-.3-.14-.05-.16.05-.26.21-.28l.89-.14c.36-.06.4-.12.35-.46l-.23-1.36m.74-1.79c-.12-.2-.09-.32.08-.44.44-.3.55-.78.31-1.26-.09-.18-.22-.31-.44-.31-.24 0-.34.16-.4.35l-.23.96c-.03.1-.04.19-.08.28-.28.73-1.08.85-1.57.24-.38-.47-.4-1.44 0-1.89.14-.16.35-.26.54-.35.05-.03.2.04.22.09.03.07-.03.17-.06.25-.01.02-.05.03-.07.04-.6.24-.62 1.07-.4 1.5.09.19.25.33.48.32.22-.02.4-.12.46-.35l.25-1.04c.03-.12.06-.24.12-.35.15-.28.37-.47.71-.47a.82.82 0 0 1 .74.43c.29.51.29 1.05 0 1.57-.13.27-.36.37-.66.43m-.77 8.14c-.18-.32-.18-.36.02-.54.14-.13.29-.26.45-.36.17-.11.19-.24.12-.42l-.26-.86c-.05-.18-.16-.25-.32-.26-.2-.01-.41 0-.62-.02-.26-.03-.27-.06-.25-.42l.8.04 2.42.16c.17.01.28.07.34.24a.34.34 0 0 1-.12.4l-2.44 2c-.02.02-.07.02-.14.04m.64-2.37l.32 1c.4-.17 1.02-.65 1.18-.94a9.13 9.13 0 0 0-1.5-.06m35.74 21.57c-.3.17-.37.18-.51-.01-.12-.16-.23-.34-.34-.51-.1-.15-.23-.22-.42-.17l-.84.18q-.3.06-.33.36l-.09.61c-.04.2-.18.25-.42.19l.11-.89.34-2.11c.02-.11.03-.22.06-.32.09-.26.42-.32.59-.1.2.26.37.54.56.81l1.23 1.8.06.16m-2.03-2.33c-.04 0-.08.01-.13.01 0 .48-.17.94-.15 1.48.37-.1.72-.05 1.05-.31l-.77-1.18m9.98-1.42c-.03.15-.05.28-.09.39-.19.5-.96.96-1.49.92-.36-.03-.61-.23-.8-.51l-.54-.87-.53-.98c-.07-.12-.08-.24.06-.32.15-.08.24-.02.32.13l.89 1.62c.39.72.99.61 1.5.16.25-.21.28-.5.15-.79l-.68-1.31-.32-.57c-.07-.13-.06-.24.07-.32.15-.09.26-.03.34.11l.99 1.89c.07.14.09.31.13.45m6.68-5.59l-.15-.32-1.09-2.07c-.14-.28-.13-.3.15-.49.05.06.11.11.14.18l1.36 2.72c.04.09.06.21.03.3-.08.22-.22.26-.46.17l-1.42-.54-1.31-.49c-.1-.04-.19-.09-.28-.14.14-.33.19-.36.46-.25l2.25.91.26.09c.01-.03.03-.05.06-.07"/><path d="M-78.69-20.09c.33-.06.51.01.62.29.07.18.11.37.15.55.05.29.19.51.46.64.1.05.19.12.26.19.21.21.16.47-.13.51-.38.05-.77.06-1.15.04-.24-.01-.41-.26-.35-.51.09-.4-.02-.82.17-1.21.07-.12-.01-.32-.03-.5m9.56 22.28c-.09-.27-.02-.44.21-.57l.95-.57.37-.26-.46-.34-.84-.59c-.18-.12-.26-.28-.13-.54l.38.21 1.18.89c.19.16.4.23.64.22h.78c.15 0 .28.04.27.22s-.14.22-.29.22c-.18 0-.36 0-.53-.02-.47-.07-.85.12-1.22.37-.35.24-.72.45-1.09.66-.06.06-.14.07-.22.1m-.47 3.02l.32-2.14c0-.03.01-.05.01-.08.02-.12.09-.23.22-.17.07.03.13.16.13.25 0 .18-.05.35-.07.53-.03.31 0 .35.31.4l1.91.26.45.07c.14.02.24.07.22.23-.02.18-.13.22-.29.2l-2.15-.31-.28-.04c-.17-.01-.28.05-.3.25-.01.19-.06.38-.09.57-.02.14-.07.27-.23.21-.08-.05-.13-.18-.16-.23M-87.27 28.2l1.17-.37c.07-.02.13-.07.19-.06.07.01.19.05.19.09.01.08-.04.17-.07.25-.01.02-.05.03-.07.04l-1.72.56-.28-.74-.66-2.03-.06-.2c-.03-.13-.03-.25.13-.29.15-.04.24.03.28.16l.28.9.5 1.48c.03.06.07.12.12.21M-115-19.45a.56.56 0 0 1 .61-.24c.35.07.61 0 .83-.28.03-.04.1-.04.2-.08.03.13.08.24.07.35l-.16.97c-.03.13-.11.25-.2.35-.19.21-.36.21-.55 0-.17-.19-.3-.41-.46-.62-.1-.15-.21-.29-.34-.45m3.34-3.43c.05.04.1.06.13.1.12.2.29.25.52.23.35-.03.54.11.57.39.01.12-.03.29-.11.36-.15.14-.24.29-.27.49-.01.05-.03.11-.05.16-.06.12-.13.26-.3.23-.15-.03-.17-.16-.16-.3a.55.55 0 0 0-.34-.59c-.3-.15-.33-.46-.35-.74-.03-.22.18-.27.36-.33m33.58 42.63l.24-.22.8.76 1.21 1.29c.07.07.15.14.18.22.03.09.03.22-.02.29-.07.11-.19.08-.28-.01l-.4-.41-1.53-1.66c-.07-.07-.12-.15-.2-.26m11.14-12.33l-.46-.12-2.34-.58c-.12-.03-.26-.04-.26-.21 0-.18.12-.26.34-.2l1.63.4 1.11.28c.14.03.24.12.18.26-.03.08-.15.13-.2.17M-90.33-30.1c-.16.33-.3.56-.23.88.06.26-.46.67-.74.64-.25-.02-.4-.19-.35-.45.03-.14.07-.31.17-.4.25-.24.54-.45.82-.66.06-.04.17-.01.33-.01m2.42.89c-.08 0-.15.01-.22 0-.25-.02-.29-.13-.16-.35.03-.05.07-.08.1-.13.06-.13.08-.33.18-.38.16-.08.37-.07.55-.09.04 0 .08 0 .12.01.17.06.41.01.45.27.03.21-.2.52-.44.58-.18.05-.39.06-.58.09m-2.33-.16c.15-.39.27-.46.63-.44h.85c.08 0 .17.05.25.08-.03.07-.06.15-.11.2l-.45.47c-.13.15-.3.21-.47.12l-.7-.43"/><path d="M-102.42-10.3c0-.79.18-1.54.46-2.28.46-1.22 1.08-2.37 1.78-3.47l2.95-4.4.48-.67c.21-.29.26-.29.46 0l1.4 2.13 2.81 4.54c.66 1.09 1.17 2.23 1.3 3.52.16 1.59-.12 3.06-1.08 4.37-.68.93-1.52 1.66-2.59 2.09-2.23.89-4.56.2-6-1.16-1.36-1.28-1.94-2.85-1.97-4.67" fill="#e60000"/><path d="M-116.44-12.03l19.51 14.57v5.99l-14.28-10.72v.88l14.28 11.06v12.98l-19.51-15.62V1.2l14.4 11.69v-1.13L-116.44.07z" fill="#004487"/><path d="M-95.88 2.59v20.14l4.31-3.48V5.81l5.07 3.39 5.03-3.52V-8.35L-85.7-5v9.05l-6.37-4.4z" fill="#e60000"/><path d="M-86.5-4.41V3.5l-4.34-3v-1.64zm-4.34 10.7v12.38l14.52-10.98V-12.2l-4.36 3.18V6.1l-5.82 4.36V9.2z" fill="#004487"/></g></svg>