<svg xmlns="http://www.w3.org/2000/svg" width="1000" height="1000"><path fill="rgba(255,255,255,0)" d="M0 0h1000v1000H0z"/><g vector-effect="non-scaling-stroke" transform="matrix(.7407 0 0 .7407 497.1102 510.8627)" fill="#36726d"><path d="M-49.349-686.533c-124.93 10.8-239.327 52.399-338.392 122.93-139.463 99.464-236.127 248.26-269.593 415.59-51.065 255.194 46.932 514.92 253.594 671.717 94.531 71.732 205.462 116.797 323.725 131.463 62.132 7.733 138.663 6 198.662-4.533 118.664-20.799 224.128-69.732 318.659-147.996 19.733-16.266 65.465-61.732 81.198-80.665 71.465-86.131 119.33-181.995 142.663-285.993 11.733-52.399 16.266-94.398 16.266-150.663 0-107.331-22.266-202.928-69.065-297.593-32.933-66.932-70.665-120.13-123.064-173.596C375.307-598.269 234.244-666.801 75.848-684.8c-22.533-2.533-103.197-3.733-125.197-1.733m113.997 27.866c84.531 9.2 156.929 29.999 228.394 65.865 64.665 32.399 123.597 75.598 174.129 127.463C574.235-355.075 637.167-215.479 649.3-60.816c2.8 36.132 1.467 88.131-3.333 126.797-12.4 99.064-48.399 195.995-103.597 278.393-40.666 60.798-95.198 118.13-153.729 161.596-167.33 124.397-386.791 160.129-585.32 95.331-195.061-63.732-348.524-215.861-413.323-409.99-39.599-118.13-44.266-242.261-14-363.324 39.199-156.929 136.797-293.726 273.327-383.457 92.131-60.398 194.928-95.331 307.992-104.397 19.066-1.6 89.331-.8 107.331 1.2m95.344 49.6c-4.933 6.666-12.533 19.466-18.8 31.733l-4.533 8.666-11.733 1.2c-6.4.667-12 .933-12.4.4-1.067-1.067 5.6-25.466 8.8-31.733 3.467-6.667 2.667-9.2-2.533-9.2-3.2 0-4.267.667-4.667 2.933-.4 1.733-2 9.6-3.467 17.6-1.6 8-3.733 16.666-4.8 19.2-1.733 4.267-2.267 4.533-6.267 3.733-2.267-.4-5.2-2-6.533-3.467-3.2-3.867-5.867-3.333-7.6 1.467-1.867 5.467-1.867 14.533 0 14.533.8 0 3.067-.933 5.2-2.133 5.333-3.2 10.266-1.6 11.333 3.6 1.333 5.733 4.933 4.667 6.267-2 .667-2.933 1.333-5.467 1.467-5.733 1.2-1.067 21.333-4.533 23.066-3.867s1.6 1.333-.667 4.667c-5.6 7.866-1.333 9.733 4.533 2.133 1.867-2.667 6-6.4 9.066-8.4 4.933-3.333 6.533-3.6 18.666-3.6 11.466 0 13.333-.267 15.066-2.533 2.533-3.6 2.4-4.533-2.8-12.8l-4.533-7.333-.933 7.066c-1.067 8-.8 7.733-8.4 9.466l-5.733 1.2.933-3.467c.533-2 2.933-6.933 5.467-11.066 4.4-6.933 4.667-8.133 4.267-17.2-.267-6.133-1.067-10-2-10.266-.933-.4-3.467 2-5.733 5.2m-277.726-2.267c-1.467 3.467-1.067 9.333.533 10.933.8.8 1.733 6.267 2.133 12.133 1.2 16.4-5.6 35.866-13.2 38.266-1.467.533-3.067.4-3.6-.4-.4-.667-.267-9.466.4-19.466 1.333-20.133.8-22.133-6.133-22.133-7.866 0-9.066 1.733-9.2 13.066-.133 13.066-1.2 16.933-4.533 16.933-2.267 0-2.8-1.2-3.467-8.933-.8-9.066-2-12.533-3.067-8.933-.267 1.067-1.467 8.4-2.667 16.533-1.2 8-3.733 19.866-5.6 26.266-4 13.066-3.733 19.6 1.2 28.399 3.067 5.6 7.466 7.466 10 4.4 1.067-1.467 4.933-16.8 10.4-42.132.933-4.667 2.667-2.4 5.733 7.466 4.667 15.466 12.4 20.133 13.2 7.866.267-3.467.933-6.267 1.467-6.267 1.733 0 4.8 4.267 7.466 10.266 2.667 6.267 6.533 10.4 8.4 9.2.667-.4 1.6-3.467 2-6.8 1.067-7.2 4.267-15.333 6.133-15.333 2 0 2.533 3.333 4.133 25.333 1.867 23.066 3.2 30.533 7.6 39.066 2.267 4.533 3.867 6.267 5.467 6 1.333-.267 2.133-1.6 2-3.067 0-1.467-1.2-13.066-2.4-25.733-1.2-12.533-2-23.866-1.467-24.933.4-1.333 2.533-2 5.733-2 12.533 0 20.266-10 21.466-27.199.667-10.533-.933-17.2-5.333-22.799-2.533-3.333-3.2-3.467-14.533-3.2-11.466.267-12 .133-14.666-3.333-2.533-3.333-2.667-4.267-1.333-8.8 1.867-6.133 4.933-9.066 7.066-6.933s9.733 2 11.6-.267c4.933-6-9.6-12.666-32.666-14.933-8.133-.667-9.6-.533-10.266 1.467m11.066 14.666c2 5.333-.8 14.933-3.6 12.133-1.2-1.2-3.067-12.933-2.267-14.266 1.333-2.267 4.667-1.2 5.867 2.133m10.666 25.199c0 4.8-6.933 15.466-10.133 15.466-2.4 0-2.4.4 1.067-8.933 4.667-12.533 9.066-15.733 9.066-6.533m27.199 3.733c1.333 1.867 2.133 5.867 2.133 10.4 0 9.2-5.333 18.8-11.866 21.066-2.267.8-4.267 1.067-4.667.533-.533-.8-1.333-22.533-.933-26.399.133-.8 1.333-3.067 2.933-5.067 3.467-4.4 9.466-4.667 12.4-.533m179.072 20.671c-2.267 2.133-.533 7.866 3.067 10.8 5.2 4 9.866 3.467 10.4-1.2.667-5.6-10-13.2-13.466-9.6"/><path d="M94.654-538.667c0 2.133.667 5.333 1.467 7.2 2.267 4.933-.533 10.533-9.733 19.733-6.8 6.8-7.733 8.4-7.733 13.066 0 2.933.933 7.466 1.867 10 3.067 7.2 7.733 6.4 20.399-3.333 5.733-4.4 10.666-8 11.066-8s.533 3.467.267 7.866c-1.067 16.933 7.6 23.733 29.066 23.199 15.2-.533 31.066-.533 39.999-.133 6.666.4 7.333.133 7.733-2.533.267-2-.933-4.267-3.2-6.4l-3.733-3.467 1.867-10.266c2.4-13.866 2.533-18.266 0-18.266-2 0-2.4 1.067-6 14.533-1.333 4.667-3.467 8.933-5.6 10.933-5.067 4.667-15.866 7.333-30.799 7.6-17.333.4-20.266-1.333-20.266-11.466 0-3.733.933-8.4 2-10.266s2.8-5.2 3.867-7.333c2.267-4.667 7.2-11.333 8.533-11.333.533 0 1.067 2.8 1.333 6.133.4 8.133 2 10.8 7.066 11.866 6 1.333 7.333-.667 4.667-7.333-3.467-8.533-2.8-10.266 6.533-19.733 9.733-9.733 11.466-14.933 5.067-14.933-2.133 0-9.066 1.467-15.733 3.067l-12 3.067-5.467 8.4c-7.066 10.666-15.066 18.933-25.066 25.599-11.866 7.866-14.666 6.933-11.466-4.133 2.267-7.6 5.467-10.8 12.666-12.133 6.933-1.333 10-3.2 10-6.133 0-.933-2.8-5.733-6.267-10.4-4.533-6-7.333-8.533-9.333-8.666-2.533 0-3.067.667-3.067 4m52.665 8.133c1.333 1.867-3.2 6.533-5.467 5.6-2.267-.8-2.4-3.333-.267-5.467 2-2 4.667-2 5.733-.133m-502.654-.533c-1.467 1.467-2 3.2-1.333 5.6l3.467 17.466 6.666 34.666c4 20.666 6.4 48.399 4.667 55.199-1.333 5.333-3.6 2.933-10.133-10.8-10.666-22.533-12.666-32.533-8.4-43.199l2.133-5.6-3.6-3.2c-2.4-2.133-5.333-3.067-8.933-3.067-4.667 0-5.2.4-5.2 3.2 0 1.867.667 3.733 1.333 4.133 2.4 1.467 6.667 11.066 5.867 13.2-.4 1.2.8 5.2 2.667 9.066 2.533 4.933 3.467 9.066 3.467 14.4 0 4.133 1.2 12.266 2.8 18.133 1.6 5.733 3.067 11.733 3.333 13.2.4 2-1.067 3.733-6.133 7.2-13.733 9.2-17.2 17.333-8.666 20.933 5.867 2.4 10 2.4 13.733-.267 4.133-2.8 4-6.4-.267-5.333-6.8 1.733-5.333-4.133 2-7.866 3.467-1.867 3.6-1.733 7.6 4.667 2.667 4.267 5.333 6.933 7.6 7.466 6.133 1.467 7.333-1.333 8.266-18.666.8-14.533 1.067-15.733 4.133-18.133 4.667-3.733 5.6-3.333 5.6 2.133 0 4.667 4.8 15.2 6.8 15.2 2.8 0 9.2-3.333 15.466-8.133 3.867-2.8 7.333-5.2 7.733-5.2s.667 3.6.667 7.866v7.866l-6.267 2.533c-3.867 1.467-9.466 2.4-14 2.267q-12.2-.2-4.8 3.6c1.867.933 6.267 1.2 13.066.667l10.266-.933-1.067 6.8c-1.867 12.133-5.2 21.199-9.2 25.866-4.667 5.2-4.933 6.133-1.6 6.133 5.333 0 12.266-12.8 15.6-28.799 2.133-9.466 2.8-10.933 6-12.4 2.133-.8 6.533-4 9.866-6.933 11.2-9.866 11.333-19.466.667-41.199-3.6-7.466-6.533-14-6.533-14.533s2.933-2.667 6.666-4.8c3.6-2.267 6.667-4.4 6.667-4.933 0-1.733-4.267-5.067-6.4-5.067-1.2 0-4.667 1.467-7.6 3.2l-5.333 3.2-4.4-5.2c-5.467-6.267-8.266-6.533-16.266-1.2l-6 4-.933-7.066a247.48 247.48 0 0 1-.933-12.666c-.133-7.6-3.6-14.8-7.6-15.733-2.133-.533-5.467.533-10.533 3.467-4.133 2.4-7.733 4.133-8 3.733-.267-.267 0-8.266.667-17.733 1.067-15.333.933-17.466-.933-19.066-3.2-2.4-11.866-2-14.4.667m31.333 42.932c.8 1.6 1.333 13.866 1.333 30.666v28.133l-4.267 2.667c-2.4 1.467-4.933 2.533-5.733 2.267-.667-.267-2-5.867-2.933-12.533-.933-6.8-3.2-19.333-4.933-27.999-1.867-8.666-3.2-15.866-3.067-15.866 3.867-2.933 15.333-9.733 16.533-9.733.933-.133 2.267 1.067 3.067 2.4m30.266 24.399c3.733 3.467 3.867 5.867.533 7.733-4 2.133-5.2 1.6-7.466-2.8-3.867-7.333.8-10.666 6.933-4.933m-12.933 18.4c-1.6 2.267-3.6 3.867-4.533 3.6-2.133-.667-2.667-10-.667-12.4 1.467-1.733 2.133-1.6 4.933 1.2l3.333 3.333zm25.466-3.867c2.267 4.267-.267 5.867-5.333 3.333-2.267-1.2-4.133-2.667-4.133-3.333 0-3.733 7.333-3.733 9.466 0m-5.467 9.866c1.733 2.133.8 4.667-2 4.667-2.4 0-3.467-2-2.533-4.533 1.067-2.667 2.4-2.667 4.533-.133m-9.2 4.267c2.933 7.6 1.2 11.333-8 17.333-4.667 3.067-9.2 5.2-10.266 4.8-1.2-.4-1.867-2.8-1.867-6.666 0-5.467.667-6.8 6.533-12.533 7.333-7.466 11.466-8.4 13.6-2.933m20.799 3.2c3.6 7.066 1.6 17.733-4.667 24.133-6.4 6.8-7.6 4.667-6.933-11.6.267-6 6-17.066 8.4-16.266.933.267 2.4 1.867 3.2 3.733m658.117-55.065c-.8.533-3.6 4.667-6.133 9.2-6.133 10.933-24.133 33.332-27.466 34.399-3.333.933-8.266-1.467-20-10.133-10.266-7.466-14.933-8.266-17.2-3.2-2.533 5.6-1.867 12.133 1.467 16.133 2.533 2.933 4.533 3.733 11.733 4.4 7.333.667 8.533 1.2 8.533 3.467 0 3.333-9.066 8.533-19.2 10.933-9.2 2.133-19.066 2.133-33.333.267-6-.8-11.333-1.067-11.866-.667-1.467 1.6 1.733 5.333 8.533 9.733 5.6 3.867 7.6 4.4 14.933 4.4 10.666 0 26.533-3.2 35.866-7.466 8.266-3.6 11.066-4 11.2-1.6l-.133 23.999c-.133 23.733.533 27.066 7.066 33.199 4.133 4 12.266 7.866 16.266 7.866 4.267 0 4.267-2.533-.133-12-1.867-4-4.533-12.133-6-18-2.8-11.6-4.667-39.066-2.933-41.599.933-1.333 4.267-.533 13.6 2.933 13.733 5.067 18.933 5.733 21.466 2.667 4.133-4.933-4.133-12-17.866-15.466-3.333-.8-6.533-2.133-6.933-2.8-1.2-1.867 9.466-14.933 15.6-19.2 2.933-2 7.2-5.733 9.466-8.266 3.6-4.267 4-5.333 3.467-11.733-.8-9.466-5.2-14.533-10-11.466m-411.723 38.399c-103.731 8.533-197.995 50.932-270.527 121.73-73.598 72.132-116.93 159.463-129.597 261.46-2.8 22.399-3.2 75.465-.667 97.331.933 8.4 3.2 23.466 4.933 33.332 32.133 177.196 173.996 318.259 351.191 349.191 29.066 5.067 42.666 6.133 78.665 6 38.666 0 54.932-1.6 88.664-8.666 89.331-18.533 174.662-67.865 234.261-135.597 60.532-68.665 96.798-148.93 107.997-238.927 2.267-18.533 2.267-84.131 0-102.664-12.266-98.264-55.465-187.329-124.93-256.66-33.599-33.732-69.732-59.732-112.664-81.198-45.732-22.799-89.731-36.266-139.997-42.932-16-2-72.265-3.6-87.331-2.4m68.665 13.866c101.597 9.2 194.928 53.732 266.127 126.93 62.665 64.532 101.064 142.53 115.597 234.394 3.867 24.799 4.133 90.664.533 115.33-9.866 65.732-31.599 123.33-66.665 176.262-64.665 97.864-166.396 164.263-281.46 183.729-198.662 33.599-393.723-78.265-465.188-266.66-51.062-134.67-29.729-286.4 56.402-401.33 71.865-95.998 180.262-157.063 299.459-168.529 17.2-1.6 57.332-1.733 75.198-.133m-73.999 28.136c-28.533 2.8-67.065 11.066-91.998 19.866C-240.806-346.001-329.737-256.67-369.07-142.54c-54.932 159.463-2.133 336.525 131.063 440.122 47.465 37.066 105.997 63.598 164.663 74.931 28.799 5.6 42.666 6.8 79.331 6.667 38.266-.133 57.865-2.267 89.464-9.866 125.73-30.266 227.861-119.197 275.593-239.994 10.666-27.066 19.2-60.265 23.866-93.331 2.667-19.733 2.267-84.265-.667-104.664-6.933-46.532-18.666-83.198-39.866-125.064C298.912-302.67 195.714-379.601 74.651-401.867c-29.866-5.6-77.598-7.6-108.664-4.667M85.452-301.336c22.933 3.333 51.065 14.933 69.998 29.066 5.733 4.267 15.6 13.2 21.866 19.733 17.6 18.4 28.666 36.932 36.666 61.332 7.6 23.333 7.333 15.6 7.066 235.861l-2.8 202.662c-1.2 0-16.933-11.6-34.932-25.866l-32.666-25.733V28.789c0-167.729-.267-180.929-4.8-196.795-2.933-10.133-13.733-32.666-20.533-42.666-30.266-44.532-84.531-69.865-137.863-64.265-8.133.933-16.266 2-18.133 2.533l-3.333.8 3.333-2.667c6.133-4.8 20.533-12.666 31.599-17.066 27.466-11.2 53.865-14.266 84.531-10m-265.193 49.999l32.933 26.133.533 175.596c.4 195.328-.267 179.862 9.6 202.795 19.733 45.066 55.999 76.665 101.064 88.264 18.533 4.667 45.999 5.467 66.932 1.867l5.333-.8-3.333 2.667C20.654 255.45-8.812 267.45-30.545 271.183c-77.865 13.333-154.529-32.799-179.329-107.864-8.533-25.866-7.866-10.933-8.4-232.661l.267-205.062c.4-1.6 1.733-2.933 3.067-2.933 1.2 0 17.066 11.733 35.199 25.999m201.595 25.733c3.867 1.067 3.733 1.2-5.867 6.8-23.866 14.133-39.066 37.732-42.666 65.732-.8 6.933-1.333 62.398-1.333 151.996 0 137.597 0 141.063-2.533 141.063-1.333 0-17.2-11.6-34.932-25.733L-98.01 88.654l-.4-109.997 1.2-119.997c6.8-44.132 41.199-78.265 85.865-85.465 7.333-1.067 27.066-.4 33.199 1.2m46.799 81.331l33.332 26.399V-4.01c0 113.864 0 113.997-2.933 125.197-9.866 36.799-37.732 64.532-74.131 73.731-8.666 2.133-13.733 2.667-26.799 2.133-8.933-.267-16.933-.933-18-1.6-1.2-.8.667-2.533 6.8-5.867 11.6-6.533 27.199-22.533 33.466-34.532 2.8-5.333 6.133-14.266 7.6-19.866 2.533-10 2.667-15.333 2.667-156.529 0-144.263.133-149.33 4-149.33.4 0 15.733 11.866 33.999 26.399M513.31-337.203c-12.666 2.4-22.666 14-22.666 25.999 0 5.2 2.933 9.866 6 9.866.667 0 3.867-2.533 6.933-5.6 6.4-6.4 8.8-6.133 12.266 1.067 5.867 12.4 5.867 11.066.4 11.866-2.667.4-10.4 1.733-17.2 2.933-14.666 2.667-21.199 1.6-35.332-5.733-10.533-5.333-19.2-6.933-22.666-4.267-1.867 1.467-2.133 3.2-1.467 10.133 1.067 10.8 2.267 11.466 15.866 8.666 12.8-2.533 19.733-1.733 42.532 5.6 13.2 4.267 16.266 5.733 21.333 10.8 6.133 5.867 7.6 10.266 4 12.266-1.2.533-6.667.533-12.133 0-8.133-.933-11.6-2-17.866-5.867-4.267-2.667-10-5.6-12.933-6.533-5.6-2.133-24.399-2.667-24.399-.8 0 .667 1.067 2.533 2.4 4.133 2.133 2.667 3.733 3.067 13.333 3.2 11.733.133 15.333 1.733 12.8 5.867-1.2 1.733-3.733 2.4-11.333 2.667-7.866.267-10.4.933-12.8 3.2l-3.067 2.8-5.067-4.133c-5.733-4.933-14.4-10.266-18.4-11.466-4.133-1.2-7.733 2.133-6.8 6.133 1.2 4.533 17.2 21.599 22.266 23.733s5.067 4.4.133 7.866c-8.4 6-22.266 1.333-28.799-9.733-2.8-4.667-3.333-7.333-3.067-13.066.4-6.8.267-7.066-2.933-7.066-3.333 0-3.333.133-3.067 10.133.4 21.466 11.466 32.933 32.533 34.266 11.066.667 10.4.933 17.733-8.266l3.067-3.867 6.4 4.8c7.6 5.867 15.6 6.8 18 2.267 2.133-4 0-6.8-10.666-14.666-5.2-3.733-9.866-7.733-10.266-8.8-.533-1.333.8-3.6 3.2-6 3.733-3.733 4.533-4 15.2-4.133 6.133 0 12.4-.533 14-1.067 3.2-1.333 20.266 8.4 26.133 14.666 4.533 4.933 6.267 4.933 10.933.133l3.733-3.867-2.8-10.266c-5.067-18.266-9.066-23.066-22.933-27.199-10.133-3.2-12-6.267-6-10.133 2.933-2 4.533-1.867 19.6.667 18.4 3.2 16.8 2.533 25.999 9.466 3.733 2.933 7.466 5.2 8.266 5.2 2 0 9.6-16.533 9.6-20.666 0-5.2-3.067-6.267-20.533-6.933-16.266-.8-16.8-.933-20.399-4.667-2.8-2.933-3.6-5.2-3.733-9.466 0-5.2-.267-5.6-3.6-5.6-2 0-4.4-.8-5.333-1.733-1.333-1.333-.267-3.067 5.6-9.066 7.066-7.066 7.2-7.466 4.8-9.333-2.933-2-7.6-2.133-16.8-.4M-478-314.136c-8.4 3.867-12.933 12.533-5.6 10.8 4.133-.933 9.333 2.133 10.266 6 .8 3.067.8 3.067 3.6-1.6 2-3.467 4-4.933 6.666-5.333 4.267-.4 5.6-4.267 2.667-8.266-2.267-3.2-12.266-4.133-17.6-1.6"/><path d="M-529.468-302.667c-4.533 4.4-4.267 6 1.2 7.333 2 .4 13.733 9.466 26.133 20.133 14.933 12.666 24.266 19.733 27.466 20.533 2.667.667 5.867 2.133 7.2 3.067 2.4 1.733 1.733 2.8-9.866 18.4-6.8 9.066-14.8 19.066-17.733 22.133s-4.933 6.4-4.533 7.466c.8 2 19.066 6.8 23.066 6 2.133-.4 2.533-1.733 2.667-8.666.133-7.466.667-9.066 6.133-17.333l17.333-26.399c6.133-9.6 14.4-20.933 18.133-25.199 7.2-8.133 8.933-14.266 5.333-17.866-5.6-5.6-16.133 2-21.066 15.333-1.6 4.267-4.667 10.533-6.8 14l-4.133 6.267-24.799-21.866c-13.733-12-25.733-23.066-26.666-24.533-1.333-2.267-2.933-2.8-8.4-2.8-5.733 0-7.333.667-10.666 4m-35.999 174.262c-5.067 5.333-8.933 13.6-9.866 21.199-2 14.4 5.733 26.799 18.933 30.666 15.466 4.533 24.799-.533 33.732-18 6.4-12.666 10.133-16.4 16.666-16.4 6.933 0 11.466 4.667 12.266 12.666.933 7.866-3.067 16.4-10.933 23.333l-5.867 5.2 7.6 1.467 7.6 1.467 5.6-5.733c8.4-8.666 11.866-23.199 8.266-34.266-4.133-12.133-13.6-18-27.733-16.933-11.066.8-15.6 4.533-23.333 19.6-3.467 6.667-7.466 12.933-9.2 14.133-7.066 4.933-18.4.4-21.066-8.533-2.4-8.266.4-16.533 8.533-24.666 3.467-3.467 6.267-6.667 6-6.8-.267-.267-3.467-.933-7.066-1.333-6.133-.8-6.933-.533-10.133 2.933m1054.24 1.333c.533 2.8 1.333 6 1.867 7.066.667 1.067 10.8 5.2 22.533 9.2 11.866 3.867 21.466 7.6 21.466 8.133 0 .667-7.733 8-17.333 16.533-16.666 14.933-17.2 15.733-16.4 19.866 2.267 11.466.4 12.133 25.066-10.4 12.533-11.466 23.866-21.333 25.333-21.866 1.467-.667 10.133-2.533 19.2-4.267l16.4-3.067-.8-6c-.4-3.2-1.067-6.133-1.333-6.4s-8.933 1.067-19.066 3.067l-18.666 3.733-28.799-10.266-29.733-10.266c-.4 0-.267 2.267.267 4.933M-580-49.34v6.667h13.066c7.066 0 16 .4 19.866.8l6.8.933-.533 18.133c-.4 10-.933 19.6-1.333 21.199l-.667 3.2-20-.933-20-1.067.4 6.533.4 6.533 33.999 1.6 45.466 1.6 11.6.133.4-5.867.533-5.867-7.866-.8c-4.267-.4-12.8-.8-18.933-.8-6 0-11.333-.4-11.733-1.067-.267-.533-.133-10.266.267-21.599l.933-20.666 19.733.533 19.6.4v-6.133c0-3.333-.133-6.133-.267-6.133-2.4-.267-83.065-4-86.664-4H-580zm1084.64 30.266l1.467 32.666c.533 1.867 2.133 2.4 6.667 2.4h5.867v-26.266l25.733-.933 39.332-1.733 13.6-.8v-12.533l-10.266.533c-32.133 1.6-67.865 2.667-68.665 2.133-.667-.267-1.067-4.933-1.067-10.133 0-14.666-.533-15.6-7.6-15.6h-6zm-.667 52.932v6l5.733.667c6.8.933 72.798 4.8 80.398 4.8 5.6 0 5.6 0 6.133-5.733.4-3.067.533-5.733.4-6-.4-.4-79.598-5.6-86.931-5.6h-5.733zm-1078.64 7.066c0 8.8.533 9.2 14.133 11.066 6.933.933 12.933 2.133 13.333 2.8.267.667 1.733 9.6 3.067 20l2.4 18.8-5.467 2.4c-3.067 1.2-8.666 3.733-12.533 5.333l-7.2 3.067.933 6.133c.533 3.333 1.067 6.267 1.2 6.533.4.267 86.131-39.332 87.198-40.266.667-.8-1.867-20.799-2.8-21.733-.533-.4-91.864-17.733-93.864-17.733-.267 0-.4 1.6-.4 3.6m64.932 20.666c11.2 2.4 20.399 4.8 20.399 5.2 0 .533-8.933 5.467-20 11.066-10.933 5.733-20 10-20 9.6 0-1.067-2.667-21.199-3.467-25.866-.4-2.933-.133-4.267 1.067-4.267.933 0 10.933 2 21.999 4.267m1016.775-1.333c-9.466 9.866-12.666 27.199-7.2 39.332 6.933 15.066 31.333 18.266 42.132 5.467 1.867-2.133 5.733-9.066 8.666-15.2 6-12.4 10.4-16 17.333-14.533 15.6 3.467 17.066 22.399 2.933 35.732l-6.533 6 4 .8c8.666 1.733 11.2.933 16-4.533 5.733-6.8 8.133-14.8 7.333-25.733-.933-15.066-9.2-23.333-24.666-24.666-14-1.2-19.466 2.933-27.999 20.666-6.267 12.933-9.733 16.4-16.8 16.4-7.733 0-13.733-9.866-11.733-18.933 1.467-6.533 3.733-10.4 9.866-16.666l5.333-5.6-5.2-.8c-2.933-.533-6.133-1.2-7.333-1.467-1.067-.267-3.867 1.467-6.133 3.733m-1023.441 66.665c-47.999 14.933-44.532 12.933-40.399 22.533l1.467 3.467 35.999-11.066c19.866-6.133 36.399-10.933 36.932-10.8.8.267-49.065 46.132-59.599 54.932l-3.2 2.667 3.2 10c1.733 5.467 3.6 9.866 4.267 9.733 1.733-.267 86.398-26.133 86.798-26.399.667-.533-2.933-12.666-3.733-12.666-.4 0-17.2 5.067-37.332 11.333l-36.932 10.933c-.133-.267 14-13.2 31.599-28.933l31.999-29.066c0-2-5.867-20.266-6.533-20.133-.4 0-20.399 6.133-44.532 13.466m1012.775-1.467c-6.133 3.867-8.933 9.6-15.466 31.066l-5.867 19.066 42.799 13.066 44.399 13.6c1.333.533 4.4-6.933 4.4-11.066 0-.8-9.6-4.4-21.333-8-11.733-3.467-20.933-6.8-20.399-7.333.667-.533 12.666-4.667 26.799-9.333l25.733-8.533 1.867-6.533c1.067-3.6 1.733-6.8 1.467-7.066s-9.866 2.8-21.599 6.933l-21.866 7.333c-.4 0-.8-4.4-.667-9.733 0-8.8-.4-10.266-3.867-14.8-7.866-10.4-26.799-14.8-36.399-8.666m21.866 13.066c9.2 4.267 10.4 10 5.6 26.399-1.867 6.4-3.6 9.733-4.933 9.733-2.667 0-24.666-6.667-25.999-7.866-.533-.533.533-6.133 2.4-12.266 3.733-12 8.8-18.533 14.4-18.533 1.6 0 5.467 1.2 8.533 2.533m-60.798 76.398l-11.866 25.733c1.067.8 82.531 39.332 83.065 39.332.4 0 2.8-4.4 5.2-9.733l11.866-25.066 7.333-15.466-6-2.933-5.867-2.8-9.2 19.333-9.2 19.2-5.067-2c-4.667-2-17.866-8.4-18.8-9.2-.133-.133 3.733-9.066 8.8-19.6l9.2-19.333-5.867-2.933-5.867-2.8-9.333 19.333c-5.2 10.666-9.6 19.333-10 19.333-.267 0-5.467-2.533-11.6-5.6l-11.2-5.467 9.2-19.333c5.067-10.666 8.933-19.466 8.8-19.6-.267-.133-2.8-1.6-5.867-3.067l-5.467-2.8zm-932.243-9.733c-7.333 2.4-22.933 11.466-29.066 16.933-17.333 15.6-19.2 37.999-4.533 55.199 5.067 5.867 16 12 21.466 12 2.8 0 30.266-13.733 31.466-15.733.267-.533-3.067-6.933-7.333-14.266l-8.266-14.533c-.4-1.2-11.6 4-11.6 5.467 0 .4 2.133 4.667 4.8 9.333 2.667 4.8 4.533 8.8 4.267 8.933-4 2.933-13.466 7.466-15.6 7.466-1.6 0-5.2-2.133-8.133-4.8-6.533-5.867-10.133-16-8.133-22.933 5.467-18.933 33.866-35.332 51.199-29.733 6.4 2.133 14.8 11.866 16.933 19.466 1.6 6 1.333 16.266-.8 21.199-.8 2.267.133 2 6.267-1.467 6.4-3.733 7.333-4.8 8.4-10 2.4-12.266-7.2-31.199-19.733-39.066-5.733-3.467-8-4-17.333-4.267-6-.133-12.4.267-14.266.8m912.377 49.065l-4.133 6.4 3.067 3.333c5.067 5.6 49.465 57.865 50.532 59.599.533.8-16.933-4.4-38.666-11.733l-40.399-13.2c-.933 0-8.4 12-7.866 12.533 1.2.933 91.864 27.866 92.264 27.333 7.066-9.6 10.133-14.933 9.333-16.266-1.6-2.4-59.332-74.265-59.732-74.265-.133 0-2.133 2.8-4.4 6.267m-884.911 35.199c-20.533 14.8-37.199 27.466-36.932 28.133.533 2 6 9.066 6.933 9.066.533 0 7.6-4.8 15.866-10.666 8.133-5.867 15.466-10.666 16.133-10.666 1.333 0 23.999 31.199 23.999 33.066 0 .667-6.933 6.267-15.333 12.266-8.4 6.133-15.333 11.333-15.333 11.733s1.6 3.067 3.467 5.733l3.467 5.067 37.199-26.799c20.399-14.666 37.199-27.199 37.199-27.999 0-.667-1.6-3.333-3.467-5.733l-3.467-4.533-15.333 11.2c-8.533 6.133-15.866 10.933-16.4 10.666-1.733-1.067-23.999-32.399-23.999-33.599.133-.533 5.867-5.2 13.066-10.133l15.333-10.933c2.4-1.733 2.267-2-1.2-7.2-1.867-3.067-3.6-5.467-3.733-5.467s-16.933 12.133-37.466 26.799m836.112 31.866c-1.867 2.4-3.467 4.667-3.467 5.2 0 .933 61.732 53.865 68.132 58.399 1.867 1.333 2.8.8 6.267-3.467l4.133-5.067-34.532-29.199-35.866-29.599c-.533-.133-2.667 1.467-4.667 3.733m-19.866 23.733l-4.667 4.933 25.866 27.866c14.4 15.2 25.733 27.999 25.466 28.266s-18.133-6.667-39.599-15.333l-38.932-16-7.866 6.933c-4.267 3.733-7.866 7.066-7.866 7.333s14.266 15.733 31.599 34.399l31.466 33.999 4.533-4.4c2.4-2.267 4.4-4.667 4.4-5.067 0-.533-11.6-13.466-25.866-28.799s-25.733-27.999-25.466-28.266 18.266 6.8 40.132 15.733l39.732 16 7.066-6.933c3.867-3.867 7.066-7.333 7.066-7.866 0-.667-15.2-17.333-52.665-57.465l-9.6-10.266zm-738.248 12.4l-42.532 22.133-19.066 10 4.533 4.667 4.533 4.533 10.933-6.133c6-3.333 11.466-6 12-6s7.2 6.267 14.8 13.866l13.733 13.733-6.4 11.6-6.267 11.733 4.667 4.667 4.667 4.667 22.266-43.066 22.133-43.199-7.6-7.6c-4.267-4.267-8-7.733-8.4-7.733s-11.2 5.467-23.999 12.133m15.6 23.199l-9.6 20.533-10.933-10.8c-6-6-10.666-11.2-10.4-11.6.933-.8 38.532-18.8 39.599-18.8.4 0-3.467 9.333-8.666 20.666m23.599 40.799l-28.933 36.266 4.533 3.733c2.533 2.133 4.933 3.867 5.467 3.867.8 0 20.799-24.533 50.799-62.265l7.6-9.6-5.2-4.133-5.333-4.133zm633.184-19.066l-5.467 3.6 17.866 27.333c9.866 15.066 18.533 29.333 19.333 31.733 2.133 6.4.533 12.533-4.533 17.2-5.733 5.6-11.866 8.4-17.733 8.4-7.066 0-13.866-7.6-33.199-37.466l-16-24.799-5.6 3.6-5.6 3.6 17.2 26.533c18.533 28.533 24.266 35.732 31.333 38.666 14.666 6.133 37.066-3.2 44.932-18.666 3.867-7.466 3.733-18.4-.267-26.266-2.667-5.067-33.599-53.599-35.866-56.132-.533-.533-3.333.667-6.4 2.667m-563.053 43.332l-21.599 41.199-10.266 19.733 5.333 2.667c2.933 1.6 5.867 2.4 6.533 2s8.4-14.8 17.333-31.866c8.8-17.066 16.933-32.266 18-33.599 1.733-2.267 1.867-1.067 1.333 10.133l-3.067 73.998c.267.133 4.4 2.4 9.2 5.067l8.933 4.933 13.6-26.399 21.599-41.199 7.866-14.933-5.6-2.8c-3.067-1.6-6-2.4-6.533-1.733-.667.533-8.8 15.733-18.133 33.732l-17.466 33.199c-1.333 1.733-1.2-3.6.4-34.532l1.733-42.666.133-8.666-9.066-4.933-9.066-4.933zm431.856 24.666l-4.933 2.267 16.133 42.666 16.4 43.199c.267.267 10.4-3.333 22.533-7.866 24.266-9.2 23.066-8.133 19.333-17.866l-1.2-3.2-15.466 5.867c-8.666 3.2-16 5.867-16.666 5.867-.533 0-7.2-16.533-14.8-36.666-7.466-20.133-14.266-36.666-15.066-36.532-.8 0-3.6 1.067-6.267 2.267m-333.325.667c-13.2 4.933-21.466 14.533-27.333 31.733-11.866 34.932.8 60.265 31.066 62.265 8.533.533 10.533.133 16.933-2.933 9.066-4.4 14.533-10.666 20.266-22.666 8.133-17.2 10.666-34.132 6.933-46.666-2.267-7.6-10.933-15.866-20.399-19.333-9.866-3.733-21.199-4.667-27.466-2.4m24.533 15.866c12.133 6.666 14.666 18.666 8.266 37.866-6.667 19.866-15.2 28.533-27.999 28.533-21.066 0-29.333-20.266-19.333-47.199 7.866-20.933 22.799-28.133 39.066-19.2m251.727-.933c-3.867.933-7.6 2.267-8.133 2.933-1.067 1.2-9.733 93.731-8.8 94.664.4.4 2.933.267 5.867-.267 5.067-.8 5.333-1.067 6.133-6.933.4-3.333.8-9.333.8-13.2s.533-7.466 1.333-7.866c1.2-.667 35.332-8.533 37.599-8.666.4 0 3.733 5.2 7.2 11.6l6.4 12c.267.267 11.866-2.533 12.533-2.933.133-.133-10.4-18.8-23.466-41.466-26.399-45.866-23.866-43.199-37.466-39.866m17.066 29.866c6.133 9.6 10.8 17.866 10.533 18.266-.4.267-6.933 2-14.533 3.6-13.333 3.067-13.866 3.067-14.266.667-.533-2.667 3.333-35.866 4.667-40.266.4-1.333 1.067-1.867 1.6-1.2.4.667 5.867 9.2 12 18.933m-229.594 14.666l-7.066 45.732c-.533 1.733.533 2.4 5.467 3.2 3.333.4 6.4.533 6.667.267.4-.267 2-10 3.733-21.466 1.733-11.6 3.6-21.333 4-21.733.4-.533 6.4 10.266 13.2 23.999 12.133 24.266 12.4 24.799 17.066 25.599 2.533.4 6 .933 7.6 1.333 2.667.533 1.733-2-8.4-21.466l-11.466-21.999h8.666c6.667 0 9.6-.667 13.066-3.067 10.4-6.8 14.933-28.399 8.133-37.999-4.933-6.8-11.6-9.333-33.866-12.666l-20.399-3.067zm31.733-26.399c10.8 1.6 16.933 5.2 18.666 10.666 1.467 4.4-2 14.266-5.867 17.466-3.067 2.4-4.667 2.667-14.8 1.867-18.266-1.2-17.2-.133-15.066-15.2l2.4-14.666c.667-2 1.867-2 14.666-.133m103.331 28.533c-4.667 20.266-8.933 36.266-9.466 35.732-.533-.667-5.2-14.933-10.533-31.733L6.385 501.58l-1.333-4.533-11.066.533c-6.133.133-11.466.8-12 1.333s-.533 21.333 0 46.266l1.067 45.466h13.066l-.8-35.066-1.467-41.332c-.267-3.467-.133-6.267.4-6.267s6.666 18.266 13.6 40.666l12.666 40.666h14.8l10.666-42.399 10.666-42.266.8 11.333c.533 6.267.933 19.466 1.067 29.466s.533 23.599.933 30.266l.933 12.266h12l-.8-34.266-.933-45.999V495.98H45.718z"/></g></svg>