<svg xmlns="http://www.w3.org/2000/svg" width="1000" height="1000"><path fill="rgba(255,255,255,0)" d="M0 0h1000v1000H0z"/><g vector-effect="non-scaling-stroke" transform="matrix(2.325 0 0 2.325 500.0115 955.8476)"><g fill="#fff"><path d="M-500-500h100v100h-100z" fill-opacity="0"/><path d="M36.864-248.624l4.999 3.039c.021.007.039.023.062.031h44.456l52.423 52.396v149.05L78.513 13.924h-158.56l-60.282-58.117.03-79.531h79.754l.131-.656c.279-.928.757-1.711 1.323-2.419h-83.768l-.03 84.28 62.277 60.031H80.62l62.283-59.942v-151.839L88.54-248.623H36.865M80.626-410.27h-161.23l-62.277 59.847v158.402l54.356 54.419h23.976c-.086-1.379.316-2.638.674-3.591h-24.038l-52.413-52.466v-155.603l60.297-57.932H78.515l60.291 58.023v86.867l-79.297-.04c.286 1.455.148 2.663-.101 3.591h83.496v-91.577L80.627-410.27m-97.005 261.89h-68.559l-48.197-48.258v-149.554l56.002-53.811H75.605l56.009 53.899v76.606H9.371v31.138h74.037l48.208 48.184v143.008L75.606 6.724H-77.138l-55.995-53.984.03-69.239h116.558l.167-31.883"/><path d="M-17.692-141.192h-70.223l-52.413-52.466v-155.603l60.297-57.932H78.514l60.291 58.023v86.867H9.371v16.749h77.011l52.423 52.396v149.05L78.514 13.924H-80.047l-60.282-58.118.03-79.531h123.793l-1.187-17.467"/></g><path d="M21.053-189.069c2.104 2.364 13.784 10.001 17.867 11.88 8.882 4.056 13.492 10.629 16.24 18.984 2.606 7.892-.225 6.16-2.342 5.185s-2.716-3.094-7.964-2.988c-5.256.125-8.223-.253-11.967-3.15-.972-.75-1.775-1.616-2.461-2.342-.045-.016-.069-.038-.121-.077-3.59-2.687-2.878 6.268-2.142 7.735 2.59 5.139 4.356 3.04 19.331 10.871 7.118 3.727 8.79 8.736 9.541 10.83 1.197 3.404 2.44 4.37-8.448 2.878-3.485-.473-9.757-2.654-12.727-4.627-2.88-1.941-8.634-.37-8.114 3.855 2.681 6.451 9.583 10.497 16.181 11.309 5.759.71 8.371 1.95 9.418 3.218 3.17 3.534-2.681 8.697-2.681 8.697-2.922 3.316.234 7.238 2.393 8.39 3.511 1.75 10.31 5.749 12.593 11.513 11.8 29.855.378 21.314-5.23 17.879S44.121-81.233 34.374-80.462c-9.749.759-12.999 1.261-18.769-3.241-5.785-4.506-5.207 2.79-5.207 2.79V-44.9c.349 8.076 1.858 15.759 8.386 22.291 5.354 5.353 9.422 4.345 16.981 13.383C39.247-5.06 50.602-.563 58.193-.478l14.52.009 51.71-49.759v-136.964l-43.999-43.981-28.639-.007c2.423 3.923 3.818 9.045 4.834 16.533.033 4.502-6.036 2.312-7.996 1.146-1.379-.931-3.17-1.796-5.534-2.328-4.401-1.044-14.937-5.57-17.806-6.593-2.935-1.043-5.068 1.084-5.407 1.881l.006.008c-.733 1.362.798 4.122.798 4.122 4.145 9.192 11.742 8.711 20.123 14.576 11.485 8.061 5.331 9.747 2.973 8.534-2.349-1.214-6.199-.458-6.199-.458-9.284 2.499-12.071-1.275-17.499-2.697-5.425-1.433-.975 5.183.975 7.389m-52.47 168.564c3.583-5.549 9.903-10.261 13.917-14.272 4.241-4.23 4.999-13.858 5.13-24.328v-21.807l.03.225v-5.214l.008-.006v-3.477c.009-.136.009-.444 0-.816v-9.401c0-2.172-2.569-2.345-8.191 3.607-5.634 5.943-15.103 5.468-20.581 5.943-5.454.487-21.204 8.523-25.707 14.299-2.792 3.601-6.746.644-5.136-6.418h-.038c.757-3.205 2.158-7.474 4.402-13.137 3.126-7.888 14.761-12.492 14.761-12.492s1.199-.526 2.252-1.548h-9.864l-65.479.009-.023 59.016L-74.246-.551l16.628.009c15.626-.759 21.466-12.626 26.2-19.961m-42.828-372.31l-51.693 49.681v143.524l43.987 44.042h41.313c7.087-3.034 8.573-2.784 10.529-6.666.294-.591.58-2.367.595-4.125.094-.496.991-5.736-1.608-4.447-4.419 2.181-13.323-3.552-20.007-.167-6.675 3.39-1.794-4.455-.851-5.814 0 0 3.576-4.625 8.96-7.678.202-.105.37-.225.526-.33.533-.282 1.075-.547 1.625-.795 4.083-1.873 15.773-9.509 17.871-11.886 1.246-1.39 3.464-4.548 3.573-6.312.364-1.516.651-3.932-.835-4.881-2.228-1.431-4.007 1.398-7.494 2.916s-6.105 2.144-9.215 2.244c-2.98.099-5.834-1.014-7.621-.744-1.803.281-2.847-1.051.442-4.285 1.484-1.47 2.119-2.12 2.816-2.622 7.807-4.905 14.8-4.976 18.706-13.647 0 0 3.057-7.821-2.815-4.494-3.234 1.841-4.982 4.494-14.205 4.494-9.205 0-12.796 4.248-14.357 6.12 0 0-6.244 8.587-4.689-3.436 1.569-12.022 3.932-18.126 9.701-22.79 4.966-4.023 17.321-9.424 21.771-15.358 2.297-2.236 8.03-8.654 4.686-14.125-1.39-2.282-4.825 3.658-8.37 4.416h-.009c-4.014 1.062-9.159 2.353-13.082 1.578-4.858-.966-7.96.851-9.772 1.671-1.801.805-5.244-1.755-1.051-6.452 5.618-6.289 19.193-14.504 28.339-19.409 1.253-.502 4.317-1.828 7.124-3.577.054-.03.117-.055.163-.075.696-.303 1.716-.92 2.305-1.67 2.003-1.634 3.358-3.483 2.893-5.338-.425-1.719-1.254-2.275-3.945-2.554-2.151-.215-5.673 2.227-8.658 1.994-4.58-.363-11.271.665-9.05-2.514 2.065-2.969 5.452-4.866 6.404-5.374l8.109-3.573c5.817-2.563 5.005-9.071 2.747-9.301-3.521-.363-12.982 2.609-6.321-4.86 0 0 3.181-3.126 6.345-5.153 2.523-1.431 4.595-1.988 7.079-2.869 1.578-.551 5.615-4.094-4.017-4.457 0 0-5.407.133-4.356-2.29.836-1.619 5.561-4.541 5.561-4.541s3.822-2.554 5.364-4.091c1.492-1.389 2.537-2.524 2.466-3.782-.069-1.444-3.853-3.213-5.462-5.22-1.153-1.444-.179-1.948.473-2.133.413-.074.833-.11 1.253-.106 3.899.009 5.029-3.815 7.294-13.807.691-3.008.737-3.643 1.734-3.652h.007c.078 0 .141.018.202.018 0 0 .974 5.074 2.381 10.721 1.176 3.111 2.516 4.436 4.806 4.429.495 0 .897.039 1.246.118.632.169 1.631.675.472 2.125-.881 1.098-3.521 2.902-3.705 4.004-.783 3.113 2.225 4.224 5.307 4.442 4.356.297 2.537 2.95-2.151 6.379-4.549 3.319 7.062 10.375 7.062 10.375 6.622 5.02 1.897 6.33.55 7.032-1.345.696-5.059 2.932-1.322 4.36 3.739 1.41 8.886 6.493 8.886 6.493 6.656 7.461-2.805 4.496-6.317 4.86-2.257.233-3.071 6.739 2.745 9.31 8.865 3.918 10.824 4.587 13.971 6.875 5.843 4.26 2.742 7.87-4.562 6.599 0 0-4.689-1.156-7.975-.527-2.036.393-3.46.85-4.421 1.332-.5.75-1.67 3.713 8.51 6.793 4.875 1.469 10.894 5.074 16.248 9.191l83.458-.094v-66.348l-51.71-49.765h-146.96m205.861 123.315l-82.63-.008c1.735 1.797 3.183 3.521 4.164 5.053 3.705 4.455.487 6.87-1.283 6.128l-2.251-.992c-.828-.264-4.37-.658-4.875-.65-4.385-.138-16.222-.904-23.409-4.982-2.831-1.601-3.118 2.259-1.873 5.307.668 1.64 3.188 5.253 6.568 8.687.851.945 1.885 1.889 3.049 2.8 1.351 1.154 2.793 2.198 4.255 3.033.016.008.021.008.029.023 3.812 2.452 7.999 4.728 11.102 6.747l38.946-.009 48.208 48.184v143.007L75.606 6.724H-77.138l-55.995-53.984.03-69.277h74.972c0 .009.007.009.016.014h7.365c-.851-.989-2.051-2.051-3.722-3.189 0 0-6.537-5.536 8.604-7.409 6.6-.814 13.493-4.859 16.184-11.309.51-4.226-5.244-5.806-8.122-3.853-2.955 1.974-9.244 4.151-12.719 4.627-10.891 1.492-9.655.522-8.448-2.882.557-1.568 1.632-4.762 5.122-7.835l-31.085-.01-48.197-48.258v-149.553l56.002-53.811H75.604l56.009 53.899zm7.19-79.671l-60.291-58.023H-80.031l-60.297 57.932v155.603l52.413 52.466h24.038c-.59 1.579-1.356 4.023.308 6.413 1.819 2.63 4.959 2.63 6.134 2.63 1.431 0 3.388-.169 6.413-.561l.009.006s1.261 1.072-2.576 2.303v.01c-3.147 1.099-5.896 2.902-6.824 6.01-.062.219-.084.431-.131.656h-79.754l-.03 79.531 60.282 58.116h158.56l60.291-58.031v-149.05l-52.423-52.396H41.925c-.023-.007-.042-.023-.062-.031-1.959-1.16-3.977-2.344-5.817-3.551l-.665-.418-.132-.045c-.975-.606-2.027-1.37-3.183-2.331-.987-.789-1.814-1.548-2.429-2.242l-.166-.17c-1.053-1.074-2.051-2.2-2.99-3.374 6.95 1.98 14.485 2.461 18.105 2.585h.455l.682.007.325.03c.867.07 1.54.216 1.974.34.422.177.839.363 1.253.558l1.889.694a6.75 6.75 0 0 0 1.383.141c2.739 0 5.268-1.623 6.436-4.131.408-.867.972-2.601.526-4.852l79.297.04v-86.865" fill="#8c1515"/><path d="M72.709 1.59l-14.503-.009c-7.287-.085-18.577-5.008-21.975-9.075-4.519-5.398-7.887-7.307-10.859-8.996-2.066-1.17-4.016-2.275-6.158-4.427-6.678-6.684-7.898-14.466-8.217-21.861l-.003-38.119c-.049-.648-.017-2.497.704-3.28.211-.231.467-.336.795-.336.473 0 1.33.229 2.757 1.344 3.703 2.886 6.457 3.858 10.913 3.858 1.927 0 4.137-.167 6.926-.391l1.341-.103c7.791-.64 16.21 5.029 22.244 9.089l3.447 2.262 1.023.634c2.311 1.453 5.192 3.257 7.31 3.257.975 0 1.747-.388 2.252-1.123 1.073-1.577 1.773-5.507-4.494-21.374-2.322-5.863-9.065-9.927-12.869-11.813-1.303-.708-2.866-2.423-3.194-4.233-.216-1.183.112-2.275.919-3.198.147-.124 3.626-3.24 3.809-6.459a4.09 4.09 0 0 0-1.064-3.061c-1.371-1.655-4.578-2.778-9.804-3.427-5.83-.717-12.922-4.356-15.676-10.868-.097-.938.16-1.75.75-2.413.828-.937 2.293-1.529 3.818-1.529 1.009 0 1.944.257 2.635.727 3.156 2.098 9.562 4.265 12.975 4.722 3.511.479 5.596.69 6.991.69 1.468 0 2.26-.242 2.654-.814.496-.711.154-1.631-.281-2.792a27.45 27.45 0 0 1-.316-.868c-.778-2.172-2.592-7.27-9.785-11.037-6.093-3.188-10.055-4.76-12.682-5.798-3.903-1.545-4.953-1.953-6.397-4.81-.473-.952-.913-5.585-.003-7.064.199-.313.361-.313.435-.313.121 0 .384.053.862.407l.073.049c.665.708 1.487 1.584 2.468 2.343 4.004 3.088 7.177 3.386 12.342 3.274l.37-.009c3.264 0 4.474.936 5.638 1.832.508.396 1.031.801 1.696 1.098l.357.173c.789.369 1.607.756 2.321.756.641 0 1.001-.311 1.19-.571.461-.636.737-1.874-.711-6.261-3.112-9.453-8.371-15.602-16.556-19.34-4.007-1.84-15.602-9.398-17.673-11.736-1.873-2.116-3.792-5.431-3.369-6.366.026-.053.102-.231.65-.231.304 0 .691.055 1.149.177 1.46.385 2.764.959 4.018 1.516 2.263 1.005 4.607 2.04 7.984 2.04 1.764 0 3.664-.275 5.762-.842.012-.008 1.156-.221 2.538-.221 1.353 0 2.485.206 3.27.617.526.272 1.188.417 1.868.417 1.347 0 2.373-.594 2.681-1.548.612-1.941-1.712-4.771-6.906-8.414-2.961-2.074-5.875-3.381-8.445-4.544-4.953-2.234-8.865-3.997-11.5-9.831-.528-.959-1.214-2.769-.792-3.559l.124-.232c.364-.527 1.516-1.618 3.173-1.618.455 0 .92.077 1.383.248.854.301 2.4.92 4.255 1.664 4.424 1.772 10.49 4.2 13.622 4.942 1.997.456 3.792 1.207 5.354 2.26 1.121.665 3.505 1.656 5.511 1.656 1.099 0 1.959-.301 2.547-.89.564-.573.848-1.385.835-2.498-1.025-7.513-3.014-14.266-4.949-16.812-1.221-1.599-4.389-5.523-7.506-7.333-1.495-.868-6.717-3.922-10.978-6.654l-.156-.11c-1.375-.789-2.778-1.786-4.182-2.979-1.188-.942-2.186-1.863-2.993-2.761-3.316-3.373-5.791-6.892-6.441-8.494-.727-1.78-.879-3.799-.346-4.588.281-.401.724-.347 1.377.023 7.255 4.122 18.98 4.913 23.716 5.067.49 0 3.927.379 4.649.603a44.78 44.78 0 0 1 2.234.992c1.243.51 2.896-.187 3.513-1.516.414-.881.763-2.778-1.501-5.485-.972-1.508-2.393-3.242-4.239-5.152-.039-.04-4.111-4.171-8.089-7.164-3.351-2.515-11.612-7.829-16.431-9.284-6.475-1.958-7.99-3.782-8.312-4.687-.162-.466-.077-.829.051-1.074.959-.457 2.341-.86 4.113-1.21a11.54 11.54 0 0 1 2.125-.179c2.733 0 5.567.69 5.638.705 4.288.75 7.511-.145 8.185-2.212.311-.944.307-2.908-3.17-5.446-2.657-1.936-4.515-2.747-10.044-5.168l-4.039-1.779c-3.727-1.64-4.288-4.829-4.034-6.454.151-.956.606-1.661 1.111-1.716.792-.094 1.903.015 3.1.124.946.075 1.923.163 2.795.163 1.206 0 2.654-.133 3.129-1.201.479-1.074-.239-2.59-2.348-4.959-.213-.209-5.289-5.183-9.089-6.623-.769-.293-1.223-.641-1.239-.95-.032-.557 1.044-1.513 2.618-2.33a15.51 15.51 0 0 1 .437-.206c.969-.445 2.595-1.183 2.76-2.72.16-1.446-1.034-3.117-3.711-5.138-2.142-1.304-7.724-5.262-7.836-7.912-.023-.584.231-1.056.812-1.476 4.829-3.528 5.06-5.084 4.812-5.946-.382-1.332-2.328-1.462-2.963-1.504-2.231-.16-3.832-.75-4.503-1.673-.39-.539-.481-1.204-.269-2.076.085-.49 1.265-1.54 2.046-2.233.612-.545 1.192-1.056 1.548-1.501.584-.73.784-1.395.594-1.973-.176-.527-.656-.907-1.401-1.096-.387-.094-.835-.142-1.396-.142-1.969 0-3.114-1.092-4.209-3.976-.884-3.543-1.678-7.107-2.383-10.69l-.108-.484-.681-.015c-1.381.012-1.59.929-2.141 3.371l-.167.744c-2.244 9.889-3.332 13.344-6.78 13.344-.45 0-.864.043-1.359.127-.922.266-1.254.756-1.37 1.12-.182.572.019 1.234.603 1.958.739.929 1.857 1.764 2.941 2.572 1.052.783 2.363 1.77 2.393 2.308.052.947-.764 1.897-2.302 3.331-1.471 1.476-5.228 3.991-5.247 4.004-.499.309-4.901 3.065-5.794 4.811-.34.789-.149 1.362.078 1.704.84 1.28 3.546 1.419 4.673 1.419l.125-.003c5.177.197 5.602 1.28 5.634 1.498.094.593-1.053 1.549-1.792 1.806-.48.174-.963.341-1.449.5-1.885.641-3.661 1.244-5.754 2.432-3.186 2.033-6.308 5.096-6.466 5.256-2.09 2.342-2.805 3.861-2.326 4.932.476 1.065 1.92 1.204 3.121 1.204.876 0 1.849-.085 2.798-.173 1.197-.106 2.311-.209 3.103-.118.507.049.962.763 1.114 1.728.254 1.619-.309 4.799-4.037 6.439l-4.539 1.994-3.605 1.594c-1.631.874-4.669 2.772-6.617 5.562-.553.799-.685 1.486-.39 2.058.66 1.271 3.152 1.277 6.301 1.295 1.218 0 2.475.006 3.59.091 1.692.124 3.583-.541 5.21-1.137 1.323-.488 2.585-.95 3.424-.856 2.579.269 3.097.732 3.44 2.103.346 1.401-.56 2.995-2.787 4.826-.488.629-1.394 1.201-2.073 1.495l-.239.124c-2.96 1.84-6.133 3.165-7.096 3.549-10.254 5.501-23.126 13.524-28.508 19.553-2.589 2.899-2.279 4.895-1.859 5.824.614 1.37 2.341 2.112 3.607 1.554l.591-.278c1.448-.682 3.427-1.608 6.206-1.608.848 0 1.725.083 2.609.261.828.164 1.751.248 2.749.248 3.633 0 7.829-1.107 10.578-1.826 1.757-.378 3.39-1.826 4.833-3.103.962-.858 2.053-1.826 2.596-1.826.059 0 .168 0 .311.241 3.081 5.029-2.181 11.032-4.65 13.454-2.759 3.674-8.704 7.186-13.952 10.28-3.019 1.787-5.871 3.475-7.718 4.969-5.69 4.603-8.288 10.667-9.92 23.185-.462 3.551-.304 5.631.497 6.544a1.5 1.5 0 0 0 1.159.528c1.682 0 3.716-2.679 4.083-3.189 1.468-1.762 4.907-5.904 13.902-5.904 7.644 0 10.37-1.846 12.78-3.472.557-.378 1.106-.751 1.711-1.092 2.104-1.192 2.39-.759 2.534-.541.489.72-.033 2.941-.547 4.264-2.609 5.794-6.524 7.559-11.474 9.793-2.242 1.013-4.559 2.058-7.039 3.622-.692.494-1.295 1.097-2.615 2.413l-.271.261c-1.885 1.858-2.628 3.327-2.198 4.372.302.743 1.176 1.098 2.263.929.812-.124 1.898.085 3.101.293 1.223.218 2.608.464 4.036.464l.405-.008c3.225-.101 5.872-.75 9.437-2.289 1.285-.564 2.327-1.277 3.248-1.911 1.534-1.052 2.573-1.764 3.689-1.052 1.202.767.878 2.987.56 4.349-.085 1.463-2.073 4.448-3.418 5.949-2.077 2.342-13.679 9.91-17.682 11.736a29.92 29.92 0 0 0-1.757.881c-.128.085-.264.18-.432.272-5.428 3.07-8.986 7.637-9.153 7.85-.142.211-3.488 5.03-2.534 6.871.143.271.507.725 1.343.725.682 0 1.598-.298 2.798-.913 1.372-.694 2.948-1.025 4.814-1.025 2.256 0 4.565.479 6.801.95 3.366.704 6.464 1.183 8.378.246.491-.246.55-.186.662-.048.468.567.344 2.591.095 3.962-.015 1.81-.325 3.437-.528 3.86-1.441 2.858-2.488 3.266-6.392 4.814l-3.851 1.578c-.418.187-10.287 4.642-13.359 7.287-3.047 2.624-4.629 6.197-5.303 8.094l-.271.731c-.436 1.162-.784 2.084-.285 2.801.395.574 1.188.813 2.661.813 1.396 0 3.486-.21 6.994-.689 3.424-.463 9.837-2.629 12.97-4.728.689-.463 1.625-.717 2.631-.717 1.529 0 2.99.583 3.818 1.519.596.671.851 1.483.754 2.42-2.753 6.511-9.844 10.15-15.671 10.868-6.328.782-9.732 2.266-10.413 4.54-.623 2.09 1.404 3.84 1.545 3.954 1.69 1.142 2.825 2.257 3.631 3.103.885.937 1.786 2.458 1.66 3.936-.077.913-.567 2.438-3.525 3.824-2.954 1.376 0 0 .005 0-.487.195-11.921 4.786-15.106 12.829-2.13 5.398-3.622 9.845-4.425 13.213l-.14.732h.026c-.521 2.871-.173 5.307.985 6.753 1.372 1.719 3.743 1.507 5.348-.563 4.453-5.713 20.207-13.616 25.297-14.077a73.24 73.24 0 0 1 2.674-.166c5.626-.312 13.329-.73 18.281-5.958 4.218-4.457 6.099-4.805 6.579-4.805.208 0 .593 0 .593.789v9.413c.009.347.012.642 0 .805l-.039 32.331c-.124 9.969-.812 19.773-4.956 23.907-1.168 1.174-2.54 2.406-3.991 3.71-3.484 3.131-7.434 6.684-10.001 10.666l-1.382 2.184C-37.724-9.42-43.799.837-57.636 1.512l-16.616-.009 146.958.084" fill="#007663"/><path d="M-46.157-.066l91.317.051c-4.344-1.812-8.233-4.18-10.132-6.457-4.334-5.177-7.567-7.02-10.421-8.635-2.068-1.174-4.212-2.39-6.505-4.686-7.064-7.072-8.345-15.193-8.674-22.915L9.42-80.897c-.019-.185-.189-2.929 1.122-4.355 1.2-1.307 3.192-1.123 5.691.826 4.985 3.894 7.931 3.84 16.743 3.144l1.341-.101c8.161-.704 17.011 5.153 23.246 9.347l3.392 2.224 1.038.642c2.035 1.28 4.81 3.02 6.473 3.02.573 0 .804-.234.944-.43.75-1.111 1.155-5.181-4.655-19.904-2.139-5.383-8.501-9.189-12.103-10.977-1.72-.917-3.629-3.039-4.05-5.359-.299-1.664.147-3.229 1.288-4.523 1.223-1.11 3.303-3.485 3.418-5.511.047-.737-.173-1.363-.665-1.912-.789-.949-2.914-2.181-8.815-2.908-6.27-.781-13.943-4.734-16.943-11.827l-.115-.459c-.146-1.367.248-2.622 1.135-3.625 1.894-2.138 6.152-2.672 8.53-1.062 2.929 1.95 9.128 4.036 12.302 4.466 6.374.881 8.149.516 8.174.499-.053-.082-.313-.78-.502-1.282l-.335-.913c-.709-1.996-2.384-6.675-9.018-10.155-6.016-3.14-9.941-4.698-12.528-5.726-4.019-1.584-5.514-2.184-7.23-5.569-.659-1.324-1.203-6.561.065-8.605.764-1.235 2.112-1.445 3.587-.355.948.946 1.69 1.734 2.565 2.413 3.244 2.5 5.839 2.961 9.78 2.961l1.962-.029c3.801 0 5.354 1.2 6.607 2.167.469.363.893.688 1.379.913l.388.189c.532.246 1.265.586 1.625.593-.012-.069.233-.969-1.014-4.748-2.963-9.009-7.952-14.858-15.708-18.391-3.847-1.773-15.841-9.467-18.202-12.129-.049-.057-4.795-5.48-3.625-8.07.272-.597 1.359-1.562 3.652-.929 1.572.41 2.931 1.006 4.239 1.594 2.225.981 4.314 1.903 7.352 1.903 1.631 0 3.381-.254 5.348-.789.187-.062 1.552-.278 2.952-.278 1.631 0 2.979.269 4.004.803.756.386 2.184.154 2.305-.216.018-.062.494-1.864-6.306-6.629-2.813-1.973-5.632-3.242-8.122-4.37-5.116-2.307-9.477-4.279-12.355-10.647-.245-.433-1.687-3.218-.747-4.966l.219-.379c.592-.858 2.198-2.306 4.476-2.306a5.68 5.68 0 0 1 1.915.342c.831.293 2.314.881 4.105 1.603 4.604 1.839 10.596 4.239 13.604 4.949 2.181.503 4.161 1.34 5.87 2.491 1.209.711 5.097 1.95 6.052.959.098-.092.388-.386.376-1.362-.958-6.956-2.87-13.562-4.627-15.867-1.162-1.525-4.173-5.261-7.036-6.925-1.947-1.129-6.923-4.051-11.036-6.684-1.594-.939-3.103-2.016-4.509-3.218-1.212-.958-2.285-1.949-3.144-2.91-3.446-3.502-6.008-7.171-6.737-8.957-.802-1.966-1.17-4.61-.187-6.072.733-1.059 1.983-1.307 3.469-.473 6.95 3.953 18.394 4.72 22.987 4.866.555 0 4.162.395 5.067.682.836.332 1.66.693 2.471 1.082h.006c.579 0 1.135-.271 1.363-.766.209-.442.49-1.686-1.276-3.799-1.034-1.592-2.4-3.241-4.167-5.074-.408-.418-4.193-4.209-7.899-6.993-3.174-2.384-11.364-7.652-15.935-9.038-5.525-1.663-8.58-3.518-9.349-5.669-.281-.805-.231-1.625.133-2.336l.246-.472.485-.233c1.082-.511 2.589-.959 4.488-1.332 2.727-.517 7.411.303 8.41.535a14.54 14.54 0 0 0 2.482.224c2.352 0 3.632-.696 3.857-1.377.221-.696-.337-2.027-2.601-3.685-2.517-1.822-4.342-2.627-9.745-4.996l-4.046-1.779c-4.606-2.027-5.286-6.073-4.959-8.146.275-1.728 1.262-2.917 2.517-3.047.73-.079 1.889-.009 3.118.1 1.2.1 2.122.175 2.937.175 1.397 0 1.663-.239 1.686-.263 0-.006.169-.726-2.088-3.247-1.203-1.208-5.494-5.077-8.469-6.203-1.451-.553-2.208-1.346-2.257-2.357-.092-1.613 1.834-2.965 3.469-3.813l.522-.248c.653-.299 1.759-.805 1.832-1.446.029-.297-.097-1.431-3.094-3.701-.73-.435-8.299-5.147-8.463-9.108-.032-.781.196-1.903 1.461-2.823 4.303-3.14 4.226-4.221 4.222-4.23-.012-.006-.26-.272-1.545-.357-2.758-.2-4.724-1.005-5.683-2.333-.669-.923-.848-2.058-.526-3.371.134-.795.861-1.562 2.534-3.047.591-.527 1.069-.935 1.36-1.304.248-.309.316-.502.319-.553-.522-.049-.86-.082-1.281-.082-3.342 0-4.749-2.53-5.69-4.999a216.48 216.48 0 0 1-2.061-8.996l-.219.962-.175.75c-2.062 9.09-3.308 14.575-8.323 14.575-.357 0-.687.033-1.081.103-.123.024-.058.215.19.521.619.781 1.65 1.552 2.654 2.3 1.832 1.365 2.96 2.266 3.027 3.489.093 1.731-1.219 3.093-2.807 4.581-1.59 1.594-5.478 4.181-5.511 4.2-2.55 1.582-4.793 3.38-5.195 4.173.134.333 1.18.817 3.339.817 3.092.109 6.992.527 7.324 2.853.267 1.694-1.714 3.138-2.831 3.534l-1.476.502c-1.797.612-3.503 1.186-5.472 2.306-3.043 1.946-6.099 4.968-6.127 4.999-2.172 2.439-2.003 3.159-1.999 3.168.005 0 .254.26 1.673.26.832 0 1.758-.082 2.655-.16 1.504-.127 2.567-.218 3.423-.118 1.241.124 2.231 1.326 2.503 3.059.327 2.064-.356 6.103-4.966 8.13l-5.224 2.296-2.899 1.292c-1.418.759-4.212 2.491-5.974 5.02-.248.357-.26.521-.26.521.418.324 3.096.333 4.868.339 1.27 0 2.57.009 3.72.103h.036c1.634 0 3.291-.606 4.501-1.053 1.343-.496 2.616-.959 3.742-.959l.402.021c2.707.281 4.197.868 4.805 3.298.763 3.062-2.309 5.598-3.314 6.43-.468.657-1.614 1.359-2.458 1.725-2.851 1.77-5.837 3.068-7.365 3.689-9.981 5.362-22.678 13.268-27.925 19.131-2.066 2.322-1.801 3.659-1.592 4.131.222.496.808.798 1.238.798l.851-.317c1.485-.697 3.74-1.757 6.87-1.757a15.17 15.17 0 0 1 2.921.294c3.451.689 9.224-.674 12.613-1.555 1.412-.309 2.871-1.601 4.161-2.738 1.571-1.393 2.576-2.244 3.67-2.244h.894l.77 1.005c2.583 4.21.801 9.825-4.894 15.403-2.788 3.75-8.876 7.343-14.249 10.513-2.983 1.764-5.779 3.42-7.533 4.835-5.331 4.31-7.775 10.112-9.349 22.156-.554 4.287 0 5.161.117 5.293.371-.007 1.631-.966 2.768-2.537 1.678-2.02 5.453-6.561 15.186-6.561 7.155 0 9.561-1.624 11.891-3.202.591-.402 1.18-.796 1.823-1.16 1.221-.691 2.092-.998 2.814-.998.536 0 1.288.17 1.819.966 1.083 1.578-.027 4.773-.391 5.707-2.886 6.416-7.242 8.379-12.286 10.664-2.202.988-4.466 2.01-6.861 3.518-.516.38-1.089.945-2.342 2.198l-.285.279c-1.888 1.863-1.835 2.629-1.835 2.637l.557-.04c.929-.153 2.105.032 3.463.273 1.312.232 2.616.463 3.916.463l.39-.007c2.967-.093 5.45-.697 8.822-2.158 1.161-.512 2.127-1.176 2.98-1.758 1.875-1.291 3.736-2.172 5.442-1.082 1.532.966 1.957 3.001 1.249 6.033-.084 1.874-2.588 5.317-3.782 6.654-2.368 2.673-14.367 10.367-18.204 12.122-.562.256-1.114.532-1.657.828-.145.105-.297.198-.456.28-5.136 2.917-8.597 7.373-8.63 7.421-1.54 2.204-2.534 4.59-2.367 5.207.108-.162.691-.234 1.995-.899 3.443-1.749 8.549-1.093 12.665-.219 2.87.606 6.03 1.023 7.35.376.332-.173.714-.338 1.164-.338h.745l.671.701c.993 1.197.7 3.806.436 5.25.012 1.546-.287 3.496-.665 4.271-1.717 3.414-3.215 4.007-7.223 5.597l-3.82 1.564c-3.741 1.692-10.688 5.087-12.947 7.029-2.768 2.386-4.225 5.673-4.843 7.42l-.279.759c-.185.493-.426 1.135-.433 1.398.073-.039.402.079 1.324.079 1.316 0 3.342-.203 6.78-.673 3.194-.435 9.389-2.52 12.302-4.474 2.386-1.607 6.629-1.067 8.519 1.07.89 1.008 1.285 2.257 1.141 3.625l-.115.453c-2.999 7.098-10.665 11.055-16.936 11.834-7.555.931-8.872 2.7-9.089 3.421-.322 1.077 1.018 2.257 1.03 2.267 1.686 1.137 2.912 2.334 3.775 3.238.547.577 2.309 2.648 2.093 5.162-.179 2.113-1.668 3.829-4.434 5.122l-.184-.384.168.394-1.566.692c-3.16 1.501-10.417 5.474-12.716 11.283-2.065 5.22-3.512 9.531-4.31 12.793l-.142.854c-.432 2.375-.186 4.424.661 5.474.738.933 1.955.636 2.859-.54 4.75-6.097 20.954-14.197 26.41-14.683.835-.073 1.751-.124 2.733-.179 5.37-.291 12.7-.697 17.214-5.459 3.281-3.467 5.952-5.301 7.728-5.301 1.324 0 2.178.934 2.178 2.375v9.413c.01.382.01.717-.003.913l-.036 32.222c-.151 11.931-1.13 20.741-5.423 25.026-1.181 1.193-2.573 2.442-4.047 3.77-3.416 3.062-7.28 6.542-9.736 10.342l-1.365 2.166-.317.502c-2.994 4.805-7.041 11.296-13.914 15.117zM72.72 3.174l-130.266-.075h-.077l-16.616-.006.005-3.177 16.611.009c12.629-.65 18.443-9.972 22.69-16.78l.317-.509 1.392-2.202c2.683-4.158 6.716-7.786 10.274-10.988 1.431-1.286 2.783-2.492 3.93-3.643 3.757-3.755 4.38-13.64 4.491-22.814l.038-32.31c.016-.245.009-.477.005-.775l-.005-8.191c-.858.508-2.293 1.585-4.432 3.852-5.379 5.68-13.441 6.121-19.324 6.444l-2.645.173c-4.737.424-20.019 8.122-24.185 13.469-2.135 2.76-5.895 3.008-7.836.578-1.175-1.468-1.702-3.613-1.535-6.158h-.119l.467-2.615c.836-3.503 2.345-8.021 4.507-13.5 3.311-8.364 14.452-13.096 15.921-13.693 1.656-.783 2.521-1.625 2.601-2.505.077-.894-.561-2.012-1.23-2.716-.802-.832-1.83-1.84-3.374-2.886-.228-.177-3.118-2.544-2.171-5.709.894-2.993 4.624-4.787 11.737-5.661 5.293-.652 11.722-3.9 14.3-9.68.007-.367-.129-.722-.379-.99-.865-.975-3.282-1.276-4.373-.532-3.362 2.249-9.976 4.488-13.645 4.982-3.581.493-5.739.704-7.205.704-1.447 0-3.053-.181-3.964-1.493-.968-1.401-.398-2.919.1-4.255l.277-.735c.717-2.027 2.432-5.88 5.753-8.744 3.048-2.629 11.961-6.731 13.717-7.526 1.59-.681 2.864-1.183 3.945-1.611 3.807-1.507 4.391-1.741 5.555-4.05.082-.228.349-1.549.359-3.166.133-.78.198-1.486.214-2.027-1.943.502-5.196.038-8.089-.565-3.794-.802-7.937-1.403-10.575-.062-3.264 1.67-5.322 1.274-6.254-.496-1.232-2.36 1.121-6.343 2.634-8.51.201-.264 3.933-5.077 9.671-8.324l.456-.285a33.45 33.45 0 0 1 1.849-.93c4.129-1.888 15.357-9.307 17.158-11.35 1.553-1.723 2.983-4.23 3.025-4.989.453-2.051.257-2.808.153-2.933-.442-.038-1.239.566-1.924 1.037-.92.635-2.066 1.423-3.507 2.052-3.78 1.64-6.589 2.319-10.021 2.429l-.442.007c-1.594 0-3.11-.271-4.324-.488-.948-.169-1.675-.309-2.282-.309-.565.062-.821.077-1.064.077-1.518 0-2.716-.727-3.215-1.966-1.043-2.537 1.663-5.214 2.553-6.088 1.602-1.585 2.27-2.259 3.077-2.831 2.661-1.679 5.025-2.746 7.31-3.782 4.838-2.182 8.324-3.76 10.682-8.999a10.42 10.42 0 0 0 .512-1.851l-.275.157c-.568.317-1.081.665-1.599 1.021-2.478 1.67-5.545 3.753-13.672 3.753-8.246 0-11.244 3.596-12.684 5.329-.775 1.075-2.975 3.76-5.302 3.76-.901.003-1.759-.386-2.35-1.067-1.153-1.307-1.415-3.644-.878-7.799 1.693-12.974 4.442-19.311 10.498-24.207 1.931-1.564 4.823-3.282 7.888-5.09 5.142-3.033 10.943-6.46 13.509-9.881 2.116-2.097 6.257-6.746 5.051-10.614l-.991.883c-1.605 1.424-3.401 3.009-5.552 3.466-3.57.937-9.824 2.406-13.967 1.586-3.336-.672-6.022.371-7.829 1.23l-.604.279c-2.127.935-4.773-.241-5.719-2.345-.573-1.276-1.06-3.959 2.123-7.528 5.52-6.179 18.572-14.325 28.942-19.89 1.311-.541 4.29-1.816 7.009-3.504l.369-.193c.638-.278 1.277-.726 1.531-1.053 1.855-1.576 2.677-2.745 2.5-3.465-.151-.599-.177-.72-2.066-.913-.633 0-1.787.427-2.713.765-1.805.659-3.574 1.253-5.35 1.253l-.521-.015c-1.09-.094-2.302-.094-3.481-.094-3.696-.015-6.6-.03-7.703-2.148-.405-.781-.645-2.048.495-3.691 2.144-3.068 5.412-5.114 7.172-6.046.952-.445 1.908-.862 3.026-1.359l5.221-2.288c3.572-1.58 3.138-4.62 3.114-4.744a2.44 2.44 0 0 0-.105-.423c-.659-.033-1.424.051-2.248.13-1.153.1-2.177.193-3.094.193-.987 0-3.609 0-4.566-2.145-.979-2.188.757-4.581 2.585-6.633.098-.097 3.401-3.365 6.801-5.534 2.301-1.313 4.228-1.967 6.098-2.596l1.183-.409c-.669-.136-1.664-.26-3.131-.315h-.042c-2.158 0-4.87-.376-6.022-2.127-.616-.941-.688-2.079-.207-3.201 1.05-2.058 4.833-4.554 6.413-5.531.677-.445 3.778-2.587 4.96-3.776 1.154-1.074 1.598-1.628 1.758-1.909-.409-.396-1.237-1.013-1.675-1.344-1.16-.866-2.362-1.764-3.228-2.853-1.164-1.44-1.121-2.656-.874-3.422.189-.606.76-1.682 2.44-2.164.753-.145 1.253-.191 1.796-.191 2.046 0 2.974-2.148 5.234-12.112l.173-.744c.548-2.454 1.03-4.581 3.67-4.602l1.969.045.379 1.692a211.79 211.79 0 0 0 2.37 10.651c1.07 2.778 1.924 2.778 2.674 2.778.678 0 1.254.063 1.77.185 1.282.327 2.171 1.084 2.53 2.133.254.781.313 2.003-.859 3.471-.385.475-.985 1.029-1.639 1.607-.486.433-1.523 1.352-1.722 1.692-.068.378.044.535.079.584.225.309 1.181.874 3.333 1.025 2.445.167 3.916 1.056 4.377 2.65.626 2.184-.94 4.403-5.4 7.661-.113 1.377 3.261 4.535 6.913 6.753 2.133 1.607 4.766 3.937 4.462 6.666-.266 2.426-2.564 3.48-3.664 3.985l-1.109-1.232.73 1.407a9.93 9.93 0 0 0-1.026.606c4.137 1.816 9.075 6.723 9.128 6.769 1.9 2.131 3.652 4.535 2.671 6.727-.955 2.142-3.585 2.142-4.574 2.142-.901 0-1.918-.088-2.896-.173-1.127-.1-1.814-.145-2.44-.151a1.9 1.9 0 0 0-.104.415c-.023.133-.462 3.189 3.108 4.76l3.694 1.622c5.981 2.627 7.881 3.453 10.679 5.486 4.291 3.135 4.19 5.873 3.744 7.229-.94 2.869-4.873 4.154-9.962 3.28-.744-.179-4.887-.959-7.198-.535-1.173.233-2.041.466-2.677.671.597.56 2.275 1.806 6.991 3.229 5.307 1.601 13.844 7.217 16.926 9.537 3.888 2.918 7.822 6.864 8.259 7.304 1.929 1.996 3.422 3.814 4.45 5.423 2.719 3.227 2.177 5.787 1.601 7.009-.94 2.018-3.552 3.126-5.549 2.306-.177-.085-1.407-.666-2.208-.975-.42-.117-3.528-.487-4.081-.495-4.728-.154-16.222-.936-23.814-4.905a7.74 7.74 0 0 0 .541 2.211c.511 1.262 2.739 4.566 6.105 7.986.792.881 1.738 1.745 2.849 2.628 1.365 1.163 2.689 2.106 3.985 2.85 4.288 2.754 9.217 5.647 11.143 6.769 3.235 1.879 6.379 5.661 7.966 7.743 2.118 2.777 4.184 9.669 5.262 17.555.033 1.723-.41 2.949-1.282 3.828-.899.906-2.13 1.362-3.672 1.362-2.504 0-5.228-1.229-6.321-1.879-1.462-.984-3.087-1.663-4.899-2.08-3.253-.767-9.363-3.219-13.835-5.007l-4.216-1.647c-1.377-.495-2.557.526-2.725.782-.012.201.256 1.23.753 2.118 2.44 5.403 5.931 6.972 10.761 9.156 2.687 1.214 5.647 2.553 8.705 4.695 5.984 4.193 8.371 7.434 7.509 10.183-.529 1.647-2.133 2.66-4.193 2.66-.942 0-1.835-.201-2.589-.597-.327-.163-1.084-.441-2.55-.441-1.141 0-2.101.166-2.222.189-2.145.586-4.167.881-6.079.881-3.705 0-6.314-1.152-8.617-2.175-1.043-.464-2.104-.932-3.227-1.278.555.961 1.499 2.439 2.598 3.682 1.793 2.022 13.01 9.447 17.147 11.344 8.611 3.928 14.142 10.378 17.402 20.282 1.379 4.193 1.513 6.274.487 7.692-1.167 1.601-3.694 1.143-5.463.316-1.164-.534-1.779-1.017-2.327-1.43-1.114-.861-1.97-1.525-4.695-1.525l-1.962.023c-4.45 0-7.795-.591-11.716-3.623-.632-.492-1.229-1.027-1.787-1.601-.098 1.462.083 3.607.349 4.241 1.155 2.289 1.74 2.524 5.546 4.021 4.388 1.709 8.675 3.668 12.839 5.866 7.73 4.053 9.694 9.556 10.534 11.905l.311.845c.502 1.353 1.076 2.87.101 4.261-.899 1.314-2.505 1.492-3.953 1.492-1.47 0-3.623-.206-7.204-.702-3.646-.486-10.256-2.722-13.64-4.973-1.103-.743-3.532-.443-4.389.526-.248.269-.384.624-.378.99 2.586 5.781 9.019 9.028 14.311 9.68 5.723.704 9.166 1.972 10.829 3.99 1.014 1.131 1.519 2.585 1.431 4.163-.215 3.685-3.649 6.932-4.338 7.543-.363.436-.544 1.044-.42 1.74.231 1.253 1.416 2.594 2.387 3.111 3.965 1.973 11.063 6.257 13.592 12.627 6.433 16.291 5.795 20.693 4.326 22.851-.795 1.177-2.059 1.818-3.558 1.818-2.576 0-5.67-1.942-8.155-3.494l-1.018-.636c-.955-.587-2.068-1.338-3.303-2.164-6.052-4.082-14.11-9.48-21.423-8.953l-1.341.099c-9.645.766-13.314.587-18.935-3.798-.763-.59-1.257-.835-1.529-.935a5.81 5.81 0 0 0-.173 1.836l.012 38.244c.298 7.017 1.448 14.442 7.748 20.742 1.994 1.994 3.767 2.999 5.817 4.168 3.097 1.753 6.596 3.743 11.293 9.36C40.424-4.96 51.204-.109 58.183-.001" fill="#fff"/></g></svg>