<svg xmlns="http://www.w3.org/2000/svg" width="220" height="220"><g transform="translate(-279.027 -153.58)scale(.8963)"><circle cx="434.037" cy="294.077" r="122.727" fill="#fff"/><g fill="#ed6c00"><path d="m343.595 333.732-.539-1.001c.583-.286 1.045-.605 1.364-.946s.528-.748.605-1.232c.099-.473.033-.968-.154-1.452a2.45 2.45 0 0 0-.715-1.023 1.9 1.9 0 0 0-1.056-.429 2.4 2.4 0 0 0-1.144.176c-.374.154-.693.363-.902.627-.231.275-.363.616-.418 1.045q-.05.429 0 1.749c.044.88 0 1.529-.11 1.936a3.25 3.25 0 0 1-.77 1.353c-.374.385-.847.682-1.386.913-.638.231-1.254.341-1.881.308-.627-.022-1.177-.209-1.65-.572a3.16 3.16 0 0 1-1.023-1.386 3.4 3.4 0 0 1-.242-1.837c.099-.594.385-1.133.858-1.606.462-.484 1.034-.869 1.749-1.188l.55 1.034c-.748.363-1.243.781-1.496 1.276-.286.484-.286 1.067-.011 1.716.275.671.649 1.111 1.122 1.276a2.13 2.13 0 0 0 1.474-.055c.451-.165.77-.429.968-.759.198-.319.264-1.001.198-2.024-.066-1.034-.066-1.76.022-2.189.132-.616.396-1.166.814-1.595.407-.418.935-.759 1.584-1.034.649-.253 1.309-.363 1.991-.33s1.265.22 1.782.583c.506.374.891.825 1.122 1.441.308.77.396 1.474.286 2.112-.11.649-.429 1.243-.968 1.793a6.6 6.6 0 0 1-2.024 1.32m-5.379-7.887c-2.09.583-3.85.66-5.247.22-1.408-.451-2.277-1.309-2.629-2.541-.231-.803-.154-1.617.209-2.431.363-.803 1.001-1.518 1.903-2.145s1.991-1.111 3.223-1.463q1.914-.544 3.597-.429c1.111.077 2.024.363 2.717.88.704.517 1.166 1.155 1.386 1.925a3.4 3.4 0 0 1-.242 2.453c-.385.803-1.023 1.529-1.925 2.145a9.8 9.8 0 0 1-2.992 1.386m-.308-1.21c1.518-.429 2.618-1.056 3.344-1.87.715-.814.946-1.661.693-2.53-.231-.858-.88-1.463-1.914-1.771-1.034-.319-2.376-.242-4.004.209-1.012.286-1.892.66-2.574 1.133-.693.44-1.199.968-1.496 1.54-.286.594-.341 1.177-.176 1.749.231.825.825 1.419 1.815 1.782.979.385 2.431.286 4.312-.242m-10.219-14.091-.22-1.177 7.436-1.386c1.298-.242 2.343-.33 3.157-.275.792.066 1.474.308 2.057.759.572.44.935 1.089 1.1 1.969.154.836.077 1.562-.242 2.167s-.836 1.1-1.584 1.474c-.759.363-1.815.671-3.179.946l-7.436 1.364-.231-1.188 7.447-1.375c1.133-.22 1.936-.429 2.442-.671s.869-.561 1.089-.968.286-.869.187-1.375c-.154-.88-.572-1.441-1.199-1.694-.627-.286-1.76-.253-3.377.044zm12.276-8.03-11.528.869.22 3.003-1.54.11-.539-7.205 1.54-.121.22 3.003 11.55-.88zm-.517-5.654-13.101-.429.044-1.199 5.401.165.154-4.719-5.401-.176.033-1.21 13.112.429-.044 1.199-6.171-.209-.154 4.73 6.16.198zm.242-9.317-13.013-1.573.781-6.545 1.529.187-.649 5.346 3.993.473.605-5.005 1.529.187-.605 5.005 4.444.539.682-5.555 1.496.187zm1.089-8.569-12.892-2.387.737-3.982c.143-.792.385-1.375.682-1.771.319-.363.781-.616 1.408-.759.627-.132 1.309-.132 2.013-.011.913.187 1.65.517 2.211 1.056.539.528.814 1.232.825 2.123.275-.286.528-.473.77-.594a8.7 8.7 0 0 1 1.903-.671l3.795-.902-.275 1.463-2.904.693-1.936.528c-.462.154-.781.297-.979.44a2 2 0 0 0-.44.484c-.066.121-.132.341-.187.649l-.253 1.375 5.72 1.056zm-6.985-2.53.462-2.552c.11-.55.11-.979 0-1.309-.099-.341-.33-.616-.638-.836a2.9 2.9 0 0 0-1.111-.451c-.616-.121-1.144-.055-1.595.176-.462.242-.726.682-.858 1.353l-.539 2.838zm8.943-6.567-12.628-3.498.33-1.188 11.187-1.881-9.922-2.75.319-1.111 12.628 3.487-.33 1.199-11.198 1.87 9.922 2.75zm-3.817-26.081.55-1.078 6.754 3.399c1.177.616 2.057 1.166 2.662 1.705s1.001 1.155 1.199 1.848c.198.715.077 1.441-.319 2.222q-.578 1.155-1.518 1.584c-.616.286-1.331.363-2.167.209-.814-.143-1.848-.539-3.08-1.166l-6.765-3.41.55-1.078 6.754 3.41c1.023.517 1.804.825 2.343.946.561.11 1.045.077 1.463-.121.418-.187.759-.517.979-.979.407-.792.429-1.463.077-2.079-.352-.594-1.254-1.265-2.728-2.013zm13.266 2.937-11.044-7.062.671-1.045 11.242 1.518-8.657-5.555.616-.979 11.033 7.073-.66 1.045-11.253-1.518 8.679 5.544zm5.302-7.953-10.626-7.689.715-.979 10.626 7.689zm3.674-4.829L348.963 228l.847-.968 8.756 4.455 1.936 1.045-1.287-1.771-5.577-8.107.803-.935 7.557 11.286zm3.949-4.609-9.086-9.46 4.763-4.554 1.067 1.1-3.883 3.729 2.772 2.904 3.641-3.487 1.078 1.111-3.641 3.487 3.102 3.223 4.026-3.872 1.067 1.111zm6.204-6.017-8.184-10.252 3.157-2.519c.649-.517 1.199-.803 1.672-.88.484-.088 1.012.033 1.573.341a5 5 0 0 1 1.529 1.309c.583.726.902 1.474.979 2.233.066.77-.187 1.474-.77 2.156a3 3 0 0 1 .979.066c.572.143 1.177.385 1.87.737l3.465 1.804-1.177.946-2.651-1.386-1.804-.869c-.44-.198-.781-.286-1.034-.308a1.55 1.55 0 0 0-.649.077q-.198.066-.561.363l-1.1.88 3.63 4.543zm-3.63-6.49 2.035-1.617c.429-.352.715-.671.858-1.001q.198-.478.066-1.056a3.2 3.2 0 0 0-.55-1.067c-.385-.484-.825-.781-1.309-.913-.506-.11-1.012.044-1.54.473l-2.255 1.793zm8.272-2.695.858-.737c.418.517.803.902 1.199 1.155a2.53 2.53 0 0 0 1.342.363 2.6 2.6 0 0 0 1.375-.44c.385-.253.671-.55.858-.913.198-.363.275-.737.22-1.122a2.6 2.6 0 0 0-.385-1.078 2.4 2.4 0 0 0-.803-.77c-.319-.154-.671-.22-1.1-.187-.286.022-.858.121-1.716.33-.869.22-1.507.308-1.925.275-.539-.033-1.023-.209-1.485-.484a4.5 4.5 0 0 1-1.155-1.199 4.7 4.7 0 0 1-.682-1.782c-.077-.616 0-1.188.253-1.716.253-.517.638-.946 1.155-1.298.572-.363 1.166-.55 1.76-.572s1.177.154 1.749.517a5.2 5.2 0 0 1 1.496 1.496l-.902.737c-.506-.66-1.034-1.067-1.551-1.232-.55-.154-1.1-.055-1.683.341-.616.396-.957.858-1.023 1.342-.077.495.033.979.341 1.452.253.396.561.649.924.781.363.121 1.045.055 2.046-.209s1.705-.407 2.145-.407c.638 0 1.21.165 1.716.484.506.308.946.77 1.331 1.342.363.605.605 1.21.715 1.881a3.4 3.4 0 0 1-.22 1.859 3.15 3.15 0 0 1-1.199 1.375c-.693.462-1.364.682-2.013.704-.66.011-1.309-.198-1.947-.605-.649-.396-1.221-.957-1.694-1.683m10.065-1.441-6.501-11.374 1.045-.616 6.512 11.396zm5.093-2.75-5.159-10.351-2.695 1.342-.693-1.375 6.468-3.223.704 1.375-2.684 1.331 5.159 10.362zm7.436-3.388-2.079-5.159-6.072-5.698 1.342-.55 3.146 3.003 1.694 1.705.077-2.53.198-4.235 1.309-.528-.572 8.36 2.057 5.159zm9.779-10.021q-.743-3.168.033-5.247c.517-1.375 1.408-2.211 2.651-2.497.825-.198 1.628-.088 2.431.33.781.407 1.463 1.078 2.046 1.991.572.924 1.023 2.035 1.309 3.3.297 1.287.374 2.497.253 3.597-.121 1.111-.462 2.002-1.012 2.684-.55.671-1.21 1.111-1.969 1.287a3.38 3.38 0 0 1-2.453-.352c-.792-.429-1.474-1.1-2.035-2.024a9.7 9.7 0 0 1-1.254-3.069m1.221-.242c.352 1.54.913 2.684 1.694 3.421.759.759 1.617 1.034 2.464.836.891-.209 1.496-.814 1.892-1.837.352-1.023.352-2.354-.033-3.993-.231-1.034-.572-1.925-.99-2.64-.429-.715-.924-1.232-1.496-1.551-.561-.319-1.133-.418-1.727-.275-.836.187-1.463.759-1.87 1.727-.396.946-.385 2.387.066 4.312m10.472 4.345-1.573-13.013 6.127-.748.187 1.54-4.917.583.484 4.059 4.268-.517.187 1.529-4.257.517.715 5.907zm13.926-5.269 1.144-.11c.022.66.143 1.21.33 1.628.176.429.473.781.88 1.056a2.5 2.5 0 0 0 1.386.429c.462.022.869-.066 1.221-.242a1.95 1.95 0 0 0 .814-.792 2.3 2.3 0 0 0 .286-1.111c.011-.418-.055-.77-.209-1.078-.154-.319-.418-.583-.792-.803-.242-.143-.77-.385-1.617-.693-.825-.319-1.397-.605-1.738-.869-.418-.341-.737-.759-.913-1.254-.22-.495-.297-1.045-.286-1.65.033-.66.187-1.287.462-1.848.275-.55.682-.99 1.199-1.276a3.37 3.37 0 0 1 1.683-.396c.66.022 1.265.209 1.771.528s.891.803 1.144 1.419.374 1.309.374 2.09l-1.166.088c-.044-.825-.231-1.452-.572-1.892-.341-.429-.858-.671-1.573-.693q-1.089-.033-1.617.528a2.1 2.1 0 0 0-.55 1.375c0 .473.099.869.319 1.177s.825.638 1.793.99c.968.341 1.639.649 2.002.891a3.23 3.23 0 0 1 1.122 1.375c.231.539.341 1.155.308 1.859a4.4 4.4 0 0 1-.462 1.958c-.286.605-.704 1.078-1.254 1.397a3.06 3.06 0 0 1-1.771.462c-.825-.022-1.507-.231-2.057-.594-.539-.363-.946-.891-1.243-1.595-.286-.693-.429-1.474-.418-2.354m15.906.847 1.144.572c-.418 1.397-.99 2.398-1.738 3.069-.737.649-1.584.946-2.53.825-.968-.11-1.738-.495-2.266-1.133-.55-.649-.913-1.529-1.1-2.651-.198-1.122-.209-2.299-.066-3.542.176-1.342.495-2.508.979-3.476.484-.979 1.078-1.672 1.815-2.123a3.56 3.56 0 0 1 2.288-.517c.902.11 1.628.539 2.156 1.265.539.737.858 1.727.957 2.959l-1.221.253c-.088-.968-.319-1.705-.66-2.178-.352-.473-.825-.748-1.43-.836-.704-.077-1.309.088-1.815.506-.539.429-.935 1.034-1.243 1.804a13 13 0 0 0-.572 2.464c-.143 1.111-.143 2.079-.022 2.937s.407 1.518.825 1.98c.429.462.924.737 1.463.803.66.066 1.276-.143 1.793-.627.528-.484.935-1.265 1.243-2.354m2.431 5.181 2.387-12.892 1.188.22-2.387 12.881zm3.443.671 3.52-12.628 6.358 1.771-.429 1.485-5.181-1.441-1.078 3.872 4.862 1.353-.429 1.485-4.84-1.342-1.188 4.29 5.379 1.518-.407 1.485zm8.305 2.244 4.884-12.166 1.155.462.605 11.33 3.839-9.548 1.078.429-4.895 12.166-1.155-.473-.605-11.33-3.839 9.548zm16.577 2.277.88.946c-.869 1.155-1.749 1.914-2.684 2.288-.924.363-1.804.341-2.651-.088-.88-.44-1.463-1.067-1.76-1.848-.297-.792-.33-1.738-.132-2.86a12.5 12.5 0 0 1 1.155-3.355c.616-1.21 1.331-2.2 2.112-2.937.77-.737 1.595-1.199 2.431-1.364a3.48 3.48 0 0 1 2.321.286c.814.418 1.353 1.056 1.617 1.936.231.88.209 1.903-.121 3.102l-1.243-.176c.253-.946.286-1.705.132-2.277a2.02 2.02 0 0 0-1.078-1.265 2.32 2.32 0 0 0-1.87-.143c-.638.22-1.243.638-1.771 1.287a9.5 9.5 0 0 0-1.375 2.123c-.528.99-.847 1.914-1.012 2.75-.187.836-.143 1.551.099 2.123q.346.891 1.089 1.254c.605.308 1.243.308 1.903.022.66-.297 1.32-.891 1.958-1.804m.484 5.401 7.128-11 5.533 3.586-.836 1.298-4.51-2.926-2.189 3.377 4.224 2.75-.836 1.276-4.224-2.739-2.42 3.751 4.697 3.036-.847 1.287zm11.033 7.403 11.253-7.59.99.869-5.786 12.331-1.034-.891 1.793-3.696-2.893-2.53-3.366 2.354zm5.533-2.332 2.343 2.046 1.65-3.366 1.298-2.497a23 23 0 0 1-2.024 1.573zm1.749 8.668 9.515-9.009.869.891-4.202 10.56 7.491-7.073.792.847-9.526 8.998-.858-.891 4.191-10.56-7.48 7.062zm6.402 6.82 10.23-8.173 1.969 2.453c.462.561.737 1.012.869 1.375.198.517.22 1.067.088 1.639-.143.737-.495 1.485-1.067 2.244-.561.759-1.298 1.496-2.2 2.233-.781.616-1.529 1.1-2.222 1.452-.704.352-1.331.605-1.892.704-.55.121-1.034.154-1.43.088a2.7 2.7 0 0 1-1.188-.451c-.396-.231-.748-.572-1.1-1.012zm1.947-.011 1.221 1.518c.363.462.726.792 1.067.957.341.154.682.231 1.045.209.495-.033 1.056-.198 1.716-.517.638-.308 1.342-.77 2.123-1.386 1.078-.858 1.793-1.639 2.167-2.343.396-.704.55-1.309.451-1.815-.055-.363-.319-.836-.77-1.386l-1.188-1.496zm8.283 14.564 9.999-5.83-1.518-2.596 1.331-.77 3.641 6.248-1.342.781-1.518-2.607-9.988 5.83zm2.673 4.939 11.946-5.401 2.717 5.995-1.408.638-2.222-4.895-3.674 1.65 2.079 4.587-1.419.638-2.057-4.587-4.081 1.837 2.321 5.104-1.408.638zm9.966 12.507-.011 1.298c-1.43.231-2.607.154-3.531-.209-.935-.385-1.54-1.012-1.859-1.892-.319-.935-.308-1.793.033-2.563.33-.77.968-1.485 1.892-2.145s1.969-1.21 3.168-1.617c1.287-.451 2.453-.671 3.542-.66s1.98.242 2.695.704 1.21 1.067 1.463 1.815c.308.88.253 1.716-.187 2.497-.418.803-1.166 1.529-2.222 2.167l-.77-.99c.836-.517 1.375-1.023 1.661-1.551.286-.517.308-1.078.11-1.639a2.38 2.38 0 0 0-1.254-1.43c-.605-.275-1.342-.385-2.156-.297-.836.088-1.661.275-2.486.55-1.045.374-1.925.803-2.629 1.287s-1.188 1.012-1.43 1.595c-.231.583-.253 1.144-.066 1.672.22.638.682 1.078 1.353 1.342.704.253 1.584.275 2.684.066m-3.498 4.29 12.771-2.948.275 1.177-5.269 1.21 1.056 4.609 5.269-1.221.275 1.166-12.782 2.959-.275-1.177 6.028-1.386-1.067-4.598-6.006 1.375zm2.068 9.053 13.024-1.573.154 1.221-9.647 5.995 10.219-1.243.143 1.155-13.013 1.573-.154-1.243 9.658-5.973-10.23 1.221zm7.48 8.712c2.167-.077 3.883.275 5.137 1.056s1.892 1.804 1.947 3.091c.022.847-.253 1.617-.792 2.31-.561.693-1.353 1.243-2.376 1.628-1.001.385-2.189.594-3.498.638-1.32.044-2.508-.099-3.575-.44-1.045-.341-1.87-.847-2.431-1.507-.55-.671-.858-1.408-.88-2.2a3.43 3.43 0 0 1 .825-2.332c.561-.693 1.364-1.243 2.387-1.628 1.023-.374 2.09-.572 3.256-.616m0 1.265c-1.584.044-2.816.374-3.707.99-.88.616-1.298 1.375-1.276 2.266.033.913.517 1.65 1.452 2.2.924.561 2.255.803 3.927.759 1.067-.044 1.991-.198 2.772-.473.792-.286 1.386-.66 1.815-1.166.418-.484.627-1.034.594-1.639-.033-.847-.473-1.573-1.331-2.156-.869-.605-2.266-.858-4.246-.781m-6.182 9.317 13.079.99-.088 1.199-11.517-.858-.363 4.477-1.518-.121zm5.808 7.645c2.145.253 3.795.858 4.928 1.815 1.122.946 1.606 2.079 1.441 3.355-.088.836-.473 1.562-1.122 2.156-.649.605-1.507 1.012-2.585 1.243-1.067.242-2.255.275-3.553.11-1.32-.154-2.475-.484-3.476-.99-.99-.484-1.716-1.111-2.178-1.837-.451-.759-.638-1.529-.539-2.299.11-.858.506-1.584 1.166-2.189.671-.605 1.551-1.012 2.607-1.232a9.5 9.5 0 0 1 3.311-.132m-.187 1.232c-1.562-.187-2.838-.044-3.795.44-.979.484-1.518 1.166-1.628 2.046-.099.902.264 1.705 1.1 2.398s2.101 1.133 3.773 1.342c1.045.121 1.991.11 2.816-.055.814-.154 1.463-.451 1.958-.88a2.3 2.3 0 0 0 .836-1.529c.121-.858-.22-1.628-.979-2.343-.759-.704-2.134-1.166-4.081-1.419m-3.894 13.871 1.474.429-1.067 3.696-4.675-1.342c-.473-.759-.814-1.496-.957-2.2s-.132-1.364.055-2.013a3.9 3.9 0 0 1 1.463-2.112c.748-.55 1.661-.858 2.761-.913 1.1-.077 2.288.066 3.52.429 1.221.363 2.299.869 3.267 1.529.946.66 1.595 1.419 1.925 2.222.319.814.341 1.661.088 2.541-.187.649-.484 1.166-.946 1.595a3.35 3.35 0 0 1-1.562.847c-.627.143-1.375.154-2.266.066l-.088-1.177c.66.055 1.221.044 1.639-.055a2.3 2.3 0 0 0 1.122-.561c.319-.308.561-.671.682-1.111a2.8 2.8 0 0 0 .044-1.474 2.65 2.65 0 0 0-.649-1.21 5.5 5.5 0 0 0-1.089-.913c-.704-.451-1.518-.803-2.431-1.078-1.122-.319-2.112-.462-2.948-.418s-1.507.286-2.024.693-.869.902-1.034 1.463c-.143.506-.143 1.034 0 1.595s.33 1.001.583 1.342l2.354.682zm-7.403 6.545 5.159 2.079 8.327-.462-.55 1.353-4.345.187-2.409.044 1.76 1.793 2.926 3.091-.517 1.309-5.643-6.193-5.159-2.079zm-31.372 25.069c-15.345 15.356-35.75 23.804-57.464 23.804s-42.119-8.448-57.464-23.804c-15.356-15.345-23.804-35.75-23.804-57.464s8.437-42.119 23.804-57.475c15.345-15.356 35.761-23.804 57.464-23.804s42.119 8.459 57.464 23.804c15.356 15.356 23.804 35.761 23.804 57.475s-8.448 42.119-23.804 57.464m1.243-116.16c-15.697-15.675-36.542-24.321-58.707-24.321s-43.021 8.646-58.696 24.321-24.321 36.52-24.321 58.696c0 22.165 8.635 43.021 24.321 58.696 15.675 15.675 36.531 24.31 58.696 24.31s43.01-8.635 58.707-24.31c15.664-15.675 24.31-36.52 24.31-58.696s-8.646-43.021-24.31-58.696m25.883 143.286c-22.594 22.594-52.635 35.046-84.59 35.046s-61.996-12.441-84.59-35.046c-22.594-22.594-35.035-52.635-35.035-84.59s12.441-62.007 35.035-84.59c22.594-22.594 52.635-35.057 84.59-35.057 31.966 0 62.007 12.463 84.59 35.057 22.594 22.594 35.024 52.646 35.024 84.59s-12.43 62.007-35.024 84.59m2.189-171.38c-23.177-23.188-53.999-35.948-86.779-35.948s-63.591 12.771-86.779 35.948c-23.177 23.188-35.948 53.999-35.948 86.79s12.771 63.602 35.948 86.779 53.999 35.937 86.779 35.937 63.602-12.76 86.779-35.937 35.948-53.999 35.948-86.779-12.771-63.602-35.948-86.79"/><path d="M353.55 361.771c-.539.935-.803.473-1.606.55-.572.055-1.111.33-1.782.22l-.869-.143c-.363-.099-.539-.264-.902-.264-.781 0-1.43.891-.902 2.156.726 1.76.022 1.573 1.65 2.233 1.056.451 3.201 1.001 3.74 1.914-.099.341-.715 1.034-1.364.858-.264-.088-.099-.066-.363-.176l-.363-.143c-.55.924.198.462-.583 1.958l1.265 1.243c2.2-.88 1.419-3.575 3.696-2.805.781.253.869.055 1.54.154.836 1.606-.385 1.243-.847 2.827-.341 1.199 1.056 2.519 1.056 2.519 1.144.11 1.936-1.529 2.673-2.519l2.497-3.179c.396-.506 1.397-1.474 2.42-2.838.44-.572.803-.715 1.386-1.342.572-.605.803-.968 1.331-1.694.374-.528.836-.869 1.276-1.452.759-1.045.627-1.188.33-1.683-.858-1.397-.858-2.255-2.409-2.409-.638-.055-.913.22-1.463.198l-3.223-.099c-.693.011-1.067.143-1.65-.209.55-.572.649-.638 1.364-.748.704-.099.792-.308 1.43-.363 2.563-.264.363-.297 3.102.011.671.088 1.023-.132 1.419-.814.715-1.265-.308-.517.176-2.442.143-.594.099-.407.418-.693.693-.627.814-.594 1.331-1.551-.803-2.134-1.606-1.617-1.606-1.617.033.044-.077.055-.088.066l-3.564 2.519c-1.518.957-4.84-.011-6.424-.649-.814-.341-.374.066-1.122-.297l-3.421-1.463c-.693-.176-.517-.22-1.1-.044-.44.11-.572.231-.869.737.33.803.308 1.023 1.265 1.639 1.463.946 5.434 2.035 6.105 2.849-.033.297.176.044-.209.44-.319.374-2.541 1.166-2.937 1.089-.924-.154-.638-.77-1.837-.176-.77.385-.946.858-1.672.979-.451.066-.418.011-.836.143-.561.176-.297.154-.924.187-2.035.099-1.023.407-2.618.363-.704-.033-1.243.209-1.771.187-.55-.022-.693-.187-1.034-.242-.858-.132-2.717 1.507-.979 2.75 1.562 1.122 1.177-1.243 7.161-1.045.616.044 1.364.132 1.716.726.165.242.187.495.341.792.231.385.407.462.649.792m-3.256 3.377c.627-.022 1.463.044 2.442.044l1.298.033c.561 0 .781 0 1.298.462-.275.495-.308.616-.781.715l-.209.022c-.946.055-3.751-.671-4.048-1.276m5.698-3.74.836-1.331 2.112-.187c.55-.033 1.683-.209 2.167.242-.286.803-.396.418-1.166.737-.66.275-.55.352-1.331.418-.682.066-1.903 1.056-2.618.121m1.672 8.536-.517-.308.198-.682c.088-.275.154-.319.066-.627-.165-.506-.528-.649-.759-1.034.319-.627.968-.924 1.573-1.331.352-.22.385-.231.748-.517.506-.396.528-.275.88-.638.11-.77-.396-.891 0-1.837.44-.187.44-.099.88-.143l2.574-.264c-.264 1.1-1.892 2.937-2.684 3.762-.517.572-2.156 3.3-2.959 3.619m149.501-1.815c0-.044 0-.099.011-.132.011-.022.011-.088.033-.121l.451-2.849c.231-2.079.429-1.221.693-2.871.396-2.398.858-1.958.902-3.003.088-1.111.429-.462.792-1.441.341-.957-.264-.396.836-1.298.385 2.222-1.144 2.629.077 3.839-.33.429-.946 2.178-1.1 2.739-.286.946-.451 1.617-1.089 2.618-.99 1.562-1.056 1.034-.66 1.727 1.232-.033 1.936-1.606 2.519-2.376 0-.154 1.155-2.2 1.331-2.574.374-.858.561-1.958 1.463-2.728.517 1.826-1.122 3.905-.946 4.576.275.957 1.001.858.968 1.419.088.627.154.132-.308.748l-1.683 2.101c-.528.803-2.486 2.2-2.64 2.64 1.419 1.716 6.083-4.719 7.37-4.719.297.077.066-.154.517.341.132.143.231.308.297.462.396.869.165 1.969-.506 2.706.583.506-.022-.143.451.275.517.451.099.55.825 1.397 1.859-.011 3.696-.528 3.058-2.783-.143-.517-.132-.781-.33-1.265-.451-1.034-1.683-2.321-1.749-3.52 2.717-2.398 5.654-3.179 3.74-5.049-.462-.429-.495-.22-.748-.77-.077-.165.055-.968-.77-.616-.77.33-1.474 1.441-2.123 2.024-1.188 1.023-2.145 2.2-2.321 2.332-.77-.198-1.001-.396-1.023-1.331l-.286-3.806c.011-.605-.319-1.419-.979-1.661-.858-.297-.979.495-1.749.539-.385-.671.099-1.045.429-1.595.253-.429.726-1.012 1.034-1.518.264-.429.099-.396.286-.858.165-.363.275-.374.341-.726.088-.363-.099-2.002-1.342-1.188-.165.11-.451.352-.616.473-.396.319-.836.594-1.188.979-.396.44-1.441 4.785-2.651 5.951-.495-.737-.143-.011-.154-.561l.352-1.518c.781-3.069.341-2.024.605-4.114.132-.968.836-1.144.209-2.046-.924-.308-1.32.165-2.079.231-.605-1.155 1.562-2.024-.693-2.541l-.979.011c-.44-.88-.242-1.1-1.331-1.287-1.705.935-.363 2.431-.121 3.696.154.715-.077.341-.121.957-.077.825.242-.22-.176 1.32l-.099.418c-.132.374-.253.528-.638.759-.484-.297-.286-.55-1.078-.638-1.54-.143-1.584 1.562-1.463 2.563-.462.33-.682.275-1.122.429l-.231.737c-.341 1.287 1.243 3.168 2.013 4.147.55.671.605 1.298.913 1.551.275.198 1.034.319 1.518.198 1.012-.231.979-.374 1.32-1.056.605-1.199 1.012-.528.748-1.474-.11-.418-.781-.99.275-1.144l-.033.649v.099c-.088 2.53-.649 3.179-.594 3.795.121 1.474-1.078 3.3-1.43 4.345-.561 1.782.803 2.376 1.243 2.651.649-.506 1.144-.836 1.529-1.265m-.539-13.233c-.286-.528-.11-1.133.33-1.628.286.66.275 1.177-.33 1.628m4.62 2.629c.297-1.419-.275-.968 1.1-1.606.297.858-.132 1.1-.462 1.804-.374.825.011 1.166-.924 1.672l-.033-1.012c.099-.572.176-.253.319-.858" fill-rule="evenodd"/><path d="M430.682 345.458v-21.912a2.94 2.94 0 0 0-2.915-2.728l.066-.033c-8.503-.198-16.302-1.056-22.583-2.365-.572-.11-1.364-.088-1.705.495-.363.616-.209 1.089 0 1.826.198.737 1.133 3.839 1.133 3.839.594 2.618 4.081 3.245 6.292 3.718l9.922 2.145c4.763 1.045 6.072 4.741 6.072 9.636v4.356c0 3.817-.638 6.281-3.168 6.391-3.212.154-5.555-3.058-6.809-5.841a.6.6 0 0 1-.077-.176l-.044-.099a17 17 0 0 1-.297-.715l-2.739-6.71s-.253-.825-.649-1.089c-.396-.286-.748-.374-1.254-.374h-3.355l4.323 14.982c.88 3.058 1.969 6.6 4.389 8.866 2.97 2.794 7.832 4.312 14.267 4.312 6.446 0 11.308-1.518 14.278-4.312 2.409-2.266 3.509-5.797 4.4-8.866l4.312-14.982h-3.366c-.484 0-.847.088-1.243.374-.396.264-.649 1.089-.649 1.089l-2.728 6.71c-.099.22-.198.462-.297.715l-.033.099c-.033.055-.044.121-.077.176-1.265 2.783-3.619 5.995-6.831 5.841-2.53-.11-3.157-2.574-3.157-6.391v-4.356c0-4.895 1.298-8.602 6.083-9.636l9.889-2.145c2.222-.473 5.709-1.1 6.303-3.718l1.133-3.839c.209-.737.374-1.21 0-1.826-.341-.583-1.111-.605-1.705-.495-6.292 1.309-14.058 2.167-22.572 2.365l.066.033a2.93 2.93 0 0 0-2.915 2.728v21.912c0 .484-.385.88-.88.88-.484.011-.88-.396-.88-.88m1.375-112.255s-6.721 3.762-9.141 8.822c-1.023 2.145-.429 3.531 3.465 1.122 5.533-3.41 10.527-5.984 16.456-8.096 6.556-2.31 18.557-5.115 19.404-4.708.363.176.385.858-.319 1.485-16.984 15.609-18.81 27.236-14.179 29.062 2.277.913 6.138.396 9.581-.737 3.443-1.122 6.798-2.574 10.659-2.695 9.064-.275 12.859 16.918 3.069 33.198-5.489 9.152-20.108 20.768-21.153 20.339-.462-.187-.638-.704-.429-1.551.132-.561 5.379-12.1 1.221-13.937-.649-.286-2.277.176-3.817 3.839-1.991 4.741-3.498 5.61-4.312 5.412-.825-.198-.539-1.507-.396-2.387.121-.891.308-1.639-.187-1.309-.473.319-5.159 5.566-6.622 5.467-.539-.055-.858-.616-.517-1.397.319-.781.682-1.837.682-1.837s-8.052 7.821-17.897 9.702c-.737.143-2.684.616-3.311.286-.341-.176-.561-.99.055-1.419.638-.418 11.066-5.819 15.576-13.409 1.364-2.31 1.386-3.476 1.023-4.092-.913-1.562-5.357-.011-8.261 1.232-2.915 1.243-7.282 3.784-12.837 4.719-6.886 1.188-15.092-.913-19.338-6.193-4.895-6.094-5.192-12.1-4.488-18.172 2.167-19.074 20.394-31.152 26.719-35.046 7.634-4.697 18.942-9.592 19.822-9.229.462.154.66.825-.528 1.529"/></g><path d="M488.069 369.229c.385.902.814.935 1.254 1.705-.165.583-.506 1.21-.715 1.815-.319.968-.132 1.111-.979 1.782-1.111-1.43-.858-3.949-1.397-5.456-1.012-2.805-3.905-2.277-4.103-.473-.121 1.364 1.584 2.552 2.662 5.511.605 1.672.869 3.432.253 5.115-.99 2.772-4.169 5.071-6.446 6.886-2.629 2.079-.011 3.685 1.617 3.047 1.056-.418 1.848-1.144 2.629-1.969 1.166-1.21 3.201-4.917 3.883-4.202.77.792-.319-.638.165.187.22.341.088.781.099 1.21.022.88-.341 2.233-.891 2.948l-5.137 5.456c-.627.517-1.232.77-1.298 1.32.264-.033-.011.055.341-.132.055-.033.198-.132.253-.176 1.518-.99 1.111-.781 2.937-1.056 2.09-.308 3.52-1.562 4.906-3.465 2.772-3.828 1.848-4.994 1.353-8.437-.088-.649-.253-1.738-.066-2.277l2.893-5.984c.803-1.793 2.046-2.761.088-3.96a2.7 2.7 0 0 0-2.079-.33c-.473.077-2.068.814-2.222.935m4.818 10.021c-.319.11.264-.253-.484.165-.176.11-.242.154-.396.286-.275.231-.506.517-.726.759-3.817 4.356 2.596 2.849 5.335 3.146.308.033.506 0 .825.022 3.091.242 3.168 1.056 3.806-1.452.396-1.507-1.43-2.86-1.738-3.135-1.452-1.287-.869-1.958-3.168-1.441-.847.209-.946.473-1.76.759-1.749.616-.891.616-1.694.891" fill-rule="evenodd" fill="#ed6c00"/><g fill="#ed6c00"><path d="M447.303 395.541v-.011c.121-.154.242-.297.297-.451.286-.88 1.463-1.54 2.09-2.915.055-.099.242-.352.11-.33-.132.011-2.233 2.013-2.354 2.112-.099.088-.176.132-.242.176-.022-.803-.198-1.716-.198-1.749v-.363c-.033-.132 0-.187.132-.231.022-.011.077-.033.077-.044.011-.077.066-.099.11-.132a1 1 0 0 1 .308-.22c.11-.055.209-.121.308-.176.121-.066.264-.121.385-.176l.451-.187c.011-.011.022-.022.033-.022 1.936-1.331.33-1.705.297-1.705-.099-.022-.649-.187-2.156.275-.099.022-.253-.22-.264-.341-.011-.077-.044-.154-.033-.231 0-.011-.077-1.595-.121-1.749 0-.055-.011-.121-.011-.187a1.2 1.2 0 0 1 0-.275c0-.011 0-.022-.011-.033.011-.066.022-.143.022-.209a.22.22 0 0 0 .022-.165c.077-.748.066-1.056-.737-1.441-1.023-.484-2.596-.473-3.267.033-.539.385-.528.737-.275 1.342.033.055.044.11.077.154l.121.253c0 .033.011.066.022.088.033.099.803 3.663.825 3.762 0 .055.011.088.022.132l.022.341.033.55c0 .044 0 .077-.055.099-.011.011-.033.033-.033.055 0 .088-.055.143-.099.209-.022.066-.88.638-1.771 1.232-.374.253-.605.649-.935.891-.528.341-1.1.484-1.122.517a.2.2 0 0 1-.055.033c-.11.055-.22.11-.308.187a1.3 1.3 0 0 0-.176.176c-.066.077-.088.242 0 .264.451.077.407 1.287 1.045 1.21l.033.033.495.176a2.3 2.3 0 0 0 .363-.066 9 9 0 0 0 1.188-.979c.627-.616 1.485-1.001 1.507-1.023.011-.022.055-.044.077-.044a.18.18 0 0 0 .121-.055l.176-.121c.022-.022.033-.022.055-.022a.16.16 0 0 1 .022.077l.011.418c-.011.165.275 2.013.253 2.178-.022.088-.022.176-.033.264 0 .066-.033.121-.088.176-.044.044-.088.11-.132.154-.099.099-3.311 3.74-3.355 3.784-.066.066-.121.121-.198.154-.022 0-.033.022-.055.033-.077.066-.121.187-.198.242-.011 0-.011 0-.022.011-.011.088-.066.11-.143.132-.066.011-.506.759-.517 1.155 0 .396.44.649.539 1.067.121.561.682.748 1.045.704.495-.055.825-.429.858-.451.033-.033 1.034-2.574 1.067-2.64.022-.099 1.089.748 1.551 1.397.187.275.528.781.407 1.43-.132.726.473 1.485 1.232 1.474 1.133-.022 2.255-1.661 2.002-3.531-.187-1.397-.143-1.727-.143-1.804-.011-.154-.055-.319-.088-.473v-.198c0-.187-.011-.363-.055-.55-.022-.099-.473-3.575-.495-3.63a.7.7 0 0 0-.066-.22m-2.321 5.654c0 .011-.066.638-.044.638-.913-.528-1.716-.715-1.727-.715-.022-.044 1.287-2.387 1.32-2.442.011-.033.022-.044.033-.055s.033-.011.055-.022c-.011.011.374 2.453.363 2.596m11.506-3.751.781 2.354c.022-.011.814.407.825.418a.5.5 0 0 0 .242.088c.022 0 .055.022.066.033a.36.36 0 0 0 .187.088c.033.011.055.033.088.033.066.022.11.055.165.066.066.011 2.002.847 3.355 1.221s2.112.297 2.178.33c.011.011.022.022.022.011.11-.011.209-.033.308-.055.066-.022.143-.033.209 0a.15.15 0 0 0 .088.022c.121 0 1.034-.066 1.089-.616.088-.033.099-.132.154-.209.044-.077.088-.979 1.408-1.782.638-.374 1.474-.627 1.397-.902-.374-1.342-4.543-1.023-4.708-1.012-.099 0-5.533-.407-5.742-.429.011-.033-2.112.341-2.112.341"/><path d="m461.669 397.972 1.287-.22c-1.518-.132-2.959-.396-3.729-.616.033-.055 2.145-4.125 2.145-4.125.209-.473.154-.627-.033-1.122-.033.022-.341-1.045-1.518-.836-.066.011-1.881.825-2.013.891a5 5 0 0 1-.385.099.4.4 0 0 0-.121.066c-.033.011-.066.033-.121.066.011-.066.011-.099.033-.154.011-.077-.165-1.298-.187-1.419-.011-.077-.132-.682.099-1.078.242-.44 4.455-2.211 4.576-2.365 1.177-1.243.363-1.54-.231-2.53-.22-.396-.935-.297-2.233.088-.209.055-2.233 1.023-2.277 1.045-.022 0-.011.088-.022.077-.022-.011-.022-.044-.022-.066v-.143c0-.077-.385-2.387-.44-2.431-.044-.044-.319-.682-1.43-.737a7 7 0 0 0-.968.077c-.22.033-.704.33-.891.363-.363.066-.506.495-.517.495-.022.022-.033.066-.066.077-.055.033-.033.088-.055.121-.022.077.033.088.077.121.022.011.033.011.055.022.154.099.264.209.242.407 0 .187.539 3.718.539 3.861 0 .176.011.341-.055.506-.011.033-.033.077-.033.121-.033.099-.033.187-.044.275a.36.36 0 0 1-.077.176c-.033.033-.077.066-.11.11-.077.088-2.2 2.167-2.31 2.244-.055.044-.088.077-.154.11-.088.033-.187.033-.275.066-.462.11-.561.726-.594.77-.022.044-.022.11-.022.165.011.044 0 .22.055.231.022.011.231.726.693.583.825-.264 1.089.308 1.584-.132.011-.011.033-.011.055-.033.022-.011.033-.022.066-.033.143-.077.693-.836.759-.891.132-.143.462-.616.583-.759.022-.011.033-.011.033-.011 0-.077.231 1.936.242 1.98 0 .011.033.11.055.605.055 1.43-3.267 2.42-3.443 2.442-.033 0-.418.121.209.484.187.11 1.012.583 2.365.88.792.165 1.419.572 1.474.572.011.033.143.044.209.099-.022.033-.055.066-.066.088-.011.033-.044.066-.055.099-.033.044-.066.077-.088.121s-.055.088-.088.132c-.055.088-.748 1.034-1.947 1.155-.044.011-.077 0-.132 0-.154.022-4.554-.429-4.642-.418-.022 0-.418-.099-.429-.099l.066.429c.011 0 .396.11.407.11.121-.033 1.958.517 2.068.495.055.055 2.31.891 2.332.924-.011.033-.022.044-.044.066.033.066.11.033.165.077-.066.044-.132.077-.176.066-.143-.055-.297-.022-.451-.055-.022 0-.044.011-.066.011.055.055.121.066.165.11.033.044.099.033.154.066a12 12 0 0 1 .77.484.13.13 0 0 0 .088.033l.44-.011a.47.47 0 0 1 .242.066c.055.033.11.099.176.044h.033c.033.011 1.001.473 1.892-.11.561-.363 1.133-1.243 1.133-1.265.033-.011.649-1.243.715-1.298.011-.011.044-.011.055 0a.33.33 0 0 0 .22.088.06.06 0 0 1 .055.033c.022.011 4.444.253 4.818.341zm-5.247-1.936-.55.704c-.385.121-1.43-.077-1.43-.088.022 0-.825-.154-.638-.33.055-.055 2.893-1.782 3.322-1.848.165-.022-.132.737-.704 1.562"/></g><path d="M425.237 389.139c-.396-.737-1.287-.649-1.507.033-.363 1.056.165.891-.88 1.661-.418.308-.946.902-1.32 1.1-1.166.605-1.694 1.045-1.694 1.045-.099-.858.286-2.673.605-3.091 1.232-1.606.55-.297 1.507-2.376.561-1.243 1.045-2.585 1.144-4.026.055-.968.308-1.694.33-2.431.044-1.177-.946-3.41-1.859-3.674-.275 1.1-.187 2.717-.264 3.905-.099 1.562-.451 2.244-.638 3.597-.176 1.155-1.485 4.62-1.892 5.203-.33.484-.253.385-.583.462-.627-1.243.429-1.452.902-2.068.275-.968.011-1.661-.825-1.859-.968-.231-1.441.231-1.826.792-.506.715-.902.891-1.408 1.331-.66.55-.693 1.199-1.584 1.199-.275-.539 0-.319-.462-1.32-.253-.594-.077-.715.187-1.375.341-.836.088-.594 0-1.331-.066-.583.099-1.199 0-1.738l-.22-.682c-.616-1.738-2.794-1.496-3.619-.803l-.33.286c-.275.22-.11.044-.352.264-1.419 1.309-1.595 2.222-2.541 2.97-.748.594-.913 1.078-2.893 2.585-.583.451-1.771 1.232-1.991 1.826.561-.055.341-.143.847-.187 1.023-.099.418.121.737.286l1.892.187c1.067-.099 2.266-.858 2.992-.836.132 0 .187-.011.209-.033-.154-.11.055-.044 0 0 .044.033.088.077.198.132-1.848 1.166-.352.946-2.167 1.925-.869.451-.715.242-1.496.176-.407-.033-2.211.99-2.728 1.232-.583.275-2.398 1.012-2.959 1.056-1.001.099-1.1-.176-1.76-.396-1.793 1.397-.682 2.717-.022 2.871 1.716.396 5.456-1.562 6.919-2.189.528-.22 1.056-.572 1.496-.759 1.166-.495 1.166-.418 1.496-.176-.231.528-1.529 2.266-1.991 2.552-.627.374-.781.352-1.155 1.155-.275.638-.572 1.089-.473 1.859.462.495.924.913 1.584.979 1.067.088.935-.616 1.727-.858.33.693.286 1.573.66 2.101.429.616 1.65.704 2.123.198l2.508-6.798c.264-.429.044.242.264-.55.418-1.573.88-1.463 2.343-3.025.341-.374 1.133-1.166 1.848-1.089-.033 1.518-1.023 2.035-1.452 3.542-.484 1.683-1.683.847-1.496 3.443 1.144.462 1.089.759 2.024-.066.451-.407 1.32-1.034 2.079-.858.341 1.111-.858 4.51-1.243 5.896-.649 2.376.363.418-1.276 3.817-.935 1.925-1.111 2.508.011 3.212.704.429 2.431.781 2.695-1.617l.341-4.873c.088-.748 1.782-3.19 1.562-6.446-.11-1.793 1.144-2.013 3.212-3.146 1.672-.924 3.553-2.233 2.464-4.202m-8.052 4.829c-.088-.242-.165-.484-.033-.803.154-.385.308-.374.759-.396-.165.561-.121 1.155-.726 1.199m-24.123-11.748c-1.045-2.178-3.179-2.42-5.17-3.41-.946-.473-.594-.66-1.375-.891-.352-.099-.968.033-1.419.033-1.936-.033-6.314-1.628-8.404-2.189-1.485-.396-4.796-1.353-6.039-1.32 0 0-.803.154-1.012.33-.385.319-.099 1.386-.099 1.386.781.627 3.905 1.837 5.038 1.848l5.027 1.056c.847.242.88.011 1.54.022.462.011 1.21.176 1.661.275-.484.759-.891.638-1.606.858-.77.231-1.078.429-1.749.638l-2.827.253c-.286-.033-.33-.077-.583-.11-.66-.11-.132-.055-.572-.055l-3.872.066c-2.574-.187-2.233-.924-3.135 1.65 3.971 4.004 4.147 1.386 5.797 2.519.165.979-.583.473.429 2.508 1.21 2.453 2.541 1.529 4.994 1.221 1.122-.132 1.518-.44 2.519-.858 2.519-1.056 4.983-1.012 5.676-3.278.264-.847.286-.649-.077-1.364-.308-.605-1.023-1.936-.847-2.508 3.157.627 4.818 4.422 6.105 1.32m-9.262 1.496-.594.363c-.583.385-.121.198-.825.407-.033.011-.099.011-.132.022-1.078.286-.77.649-2.453.605-.528-.011-.66-.055-1.43-.638l-.253-.242c.847-.979.429.165 3.267-.286.825-.121.715-.297 1.496-.55 1.584-.55.583-.638 1.529-.517.033.594-.165.583-.605.836m-1.012-11.825c.033 1.265.044 1.573 1.166 2.563 1.595 1.43 3.355 4.147 4.862 3.894 1.243-.198 1.771-1.199 1.859-2.354.088-1.045-.418-1.705-.737-2.684-.352-1.1-1.155-1.452-2.035-2.299-1.606-1.551-2.772-1.925-4.323-.715z" fill-rule="evenodd" fill="#ed6c00"/></g></svg>