<svg xmlns="http://www.w3.org/2000/svg" fill="none" width="35vw" viewBox="0 0 88 88.003"><g fill="#0061ae"><path d="M72.253 44.001q0 .694-.034 1.386-.034.693-.102 1.383t-.17 1.376-.237 1.366-.304 1.353q-.168.673-.37 1.337t-.435 1.317-.499 1.294-.562 1.268-.624 1.239-.684 1.207-.742 1.172-.799 1.134-.853 1.093-.906 1.05-.956 1.004q-.49.491-1.004.956-.514.466-1.05.906t-1.093.853-1.134.799q-.577.385-1.172.742t-1.207.684-1.239.623-1.268.562-1.294.499-1.317.435q-.664.201-1.337.37t-1.353.304-1.366.237-1.376.17-1.383.102-1.386.034q-.694 0-1.386-.034-.693-.034-1.383-.102t-1.376-.17-1.366-.237-1.353-.304-1.337-.37-1.317-.435-1.294-.499q-.641-.266-1.268-.562t-1.239-.623-1.207-.684-1.172-.742-1.134-.799-1.093-.853-1.05-.906q-.514-.466-1.004-.956-.49-.491-.956-1.004-.466-.514-.906-1.05t-.853-1.093-.799-1.134-.742-1.172-.684-1.207-.623-1.239q-.297-.627-.562-1.268t-.499-1.294-.435-1.317-.37-1.337-.304-1.353-.237-1.366-.17-1.376-.102-1.383-.034-1.386q0-.694.034-1.386.034-.693.102-1.383t.17-1.376.237-1.366.304-1.353.37-1.337.435-1.317.499-1.294.562-1.268.624-1.239.684-1.207.742-1.172.799-1.134q.413-.557.853-1.093t.906-1.05.956-1.004 1.004-.956 1.05-.906 1.093-.853 1.134-.799 1.172-.742 1.207-.684 1.239-.624q.627-.297 1.268-.562t1.294-.499 1.317-.435 1.337-.37 1.353-.304 1.366-.237 1.376-.17 1.383-.102 1.386-.034q.694 0 1.386.034.693.034 1.383.102t1.376.17 1.366.237 1.353.304 1.337.37 1.317.435 1.294.499 1.268.562 1.239.624 1.207.684 1.172.742 1.134.799q.557.413 1.093.853t1.05.906 1.004.956.956 1.004.906 1.05.853 1.093.799 1.134q.385.577.742 1.172t.684 1.207.624 1.239.562 1.268.499 1.294.435 1.317.37 1.337.304 1.353.237 1.366.17 1.376.102 1.383.034 1.386z"/><path d="m34.95 71.093-.55 1.509-.106.292-.283.778c3.445 1.474 6.883 2.233 10.299 2.241 3.359.006 6.696-.714 9.994-2.197l-.305-.922-.102-.307-.501-1.513a28.4 28.4 0 0 1-4.468 1.166 28.5 28.5 0 0 1-4.93.429 28.5 28.5 0 0 1-4.742-.397 28 28 0 0 1-4.308-1.08zm-.484-.503.106-.29.292.102a27.4 27.4 0 0 0 4.498 1.153c1.506.254 3.057.386 4.638.386a28 28 0 0 0 4.823-.417 27.6 27.6 0 0 0 4.666-1.245l.304-.111.102.307.498 1.509a30.06 30.06 0 0 0 14.04-10.861 29.67 29.67 0 0 0 5.42-17.121c0-16.444-13.412-29.853-29.852-29.853S14.15 27.56 14.15 44.002a29.67 29.67 0 0 0 5.511 17.25 30.07 30.07 0 0 0 14.257 10.845zm20.124 1.991.398 1.206.087.267-.256.117c-3.466 1.6-6.977 2.377-10.512 2.371-3.587-.006-7.2-.824-10.818-2.412l-.271-.119.1-.277.382-1.047a30.7 30.7 0 0 1-14.555-11.07 30.3 30.3 0 0 1-5.63-17.613c0-16.789 13.692-30.482 30.48-30.482s30.48 13.693 30.48 30.482a30.3 30.3 0 0 1-5.535 17.48 30.7 30.7 0 0 1-14.355 11.097l.004.002z"/><path d="m37.705 72.289-.407 2.006-.256-.051.288-1.417-.479-.098.041-.2q.486.12.626-.279l.19.039zm3.728 2.484.249-.025a.32.32 0 0 0 .384.294q.386-.016.411-.807l-.011.002q-.102.239-.44.282-.614.038-.701-.592-.032-.671.586-.766.69-.058.807.868c.044.744-.166 1.144-.632 1.209q-.57.034-.652-.46v-.004zm.613-.486c.25-.032.36-.2.339-.503q-.065-.416-.452-.39-.382.06-.352.492.035.454.463.398l.002.002zm5.32-.068q-.118-.799-.536-.753-.428.057-.309.869.108.81.526.756c.418-.054.386-.328.319-.869v-.002zm.271-.036q.1.997-.563 1.108-.69.071-.835-.92-.127-1.029.557-1.144.67-.066.84.955zm4.075-1.558-.242.06a.35.35 0 0 0-.415-.215q-.438.13-.296.845l.015.008q.063-.262.405-.357.622-.094.784.474a.73.73 0 0 1-.077.546q-.115.204-.455.288a.64.64 0 0 1-.584-.136q-.215-.206-.312-.65-.236-1.055.467-1.251.538-.096.717.386l-.005.002zm-.818 1.103q.128.425.529.339.36-.113.274-.548-.134-.4-.501-.321-.391.122-.302.53" fill-rule="evenodd"/><path d="M44 0c24.234 0 44 19.767 44 44.002S68.234 88.003 44 88.003 0 68.236 0 44.002 19.766 0 44 0m0 1.796c-23.246 0-42.203 18.96-42.203 42.206S20.754 86.208 44 86.208s42.203-18.96 42.203-42.205S67.246 1.796 44 1.796"/><path d="m9.76 61.626 1.222-.705.077.127q-.928.857-.477 1.679.424.616 1.042.334.506-.293.221-1.31-.298-1.16.379-1.549.841-.413 1.512.482.168.273.13.713.01.143.043.196c.033.053.111.043.267.02a.06.06 0 0 1 .048-.002l.1.163-1.11.642-.077-.129q.813-.839.43-1.506-.395-.61-.941-.294-.432.249-.185 1.242.32 1.195-.3 1.553-1.03.521-1.711-.516-.165-.27-.223-.66a.7.7 0 0 0-.046-.243q-.079-.128-.322-.111l-.076-.128H9.76zm6.346 2.613q.841 1.397-.551 2.577-1.594.906-2.648-.344-.876-1.37.528-2.533 1.583-.92 2.669.3zm-.159.112q-.684-.931-2.129.104-1.488 1.013-.786 1.929.667.943 2.143-.087c1.476-1.03 1.239-1.335.771-1.946zm2.818 3.204-.144.131q-.397-.45-.627-.16l-1.658 1.485q-.674.605-.055 1.259.737.781 1.558.073l1.399-1.253q.432-.33-.013-.765l.144-.13.915.965-.145.13q-.413-.437-.769-.06l-1.431 1.284q-.898.748-1.816-.188-.944-1.027-.155-1.732l1.642-1.47q.305-.215-.111-.62l.145-.131 1.122 1.184zm3.667 5.116-.133-.114q.636-.928-.13-1.554l-2.039 2.25q-.324.259.164.62l-.131.142-1.241-1.063.13-.142q.413.408.654.079l2.039-2.25q-.755-.674-1.605.073l-.13-.112.884-.943 1.195 1.02 1.193 1.021-.849.972zm.664 3.506-1.316-.941.117-.154q.413.349.624-.002l1.624-2.141q.258-.264-.196-.562l.117-.154 1.299.929-.117.153q-.478-.369-.647-.04l-.702.924 1.334.953.701-.925q.256-.264-.213-.574l.117-.154 1.282.916-.117.154q-.426-.33-.611-.015l-1.624 2.141q-.299.288.2.592l-.117.153-1.299-.928.117-.154q.431.36.642.01l.805-1.061-1.334-.952-.805 1.061q-.298.287.236.615l-.117.153zm4.491-1.316.087-.171 1.251.601-.087.171q-.41-.198-.46-.006a.9.9 0 0 0-.077.343l-.377 2.071 1.366-1.383.087-.504q.078-.248-.283-.396l.087-.17 1.289.62-.087.171q-.43-.208-.488.002a2 2 0 0 0-.078.247l-.009.209-.358 1.986.019.008 1.424-1.499a.4.4 0 0 1 .067-.084q.145-.143.194-.239.156-.21-.324-.415l.087-.171 1.095.527-.087.17q-.35-.215-.763.252l-2.232 2.271-.156-.075.434-2.517-1.823 1.851-.177-.084.59-3.346q.077-.341-.215-.434l.004-.004zm7.392 5.269-.43 1.339-3.14-.89.055-.182q.532.195.608-.206l.776-2.548q.147-.334-.406-.468l.056-.183 3.036.861-.35 1.295-.166-.047q.038-1.248-.942-1.462-.592-.144-.686.16l-.34 1.12q.84.305 1.093-.376l.147.04-.434 1.428-.147-.041q.162-.684-.707-.886l-.422 1.385q-.096.239.371.35 1.226.457 1.881-.729zh.002zm1.128 1.727.257-1.356.152.025q.055 1.239.988 1.447.76.09.948-.546c.072-.377-.22-.713-.871-1.016q-1.097-.537-.953-1.289.235-.889 1.372-.796c.215.039.428.16.639.371a.5.5 0 0 0 .181.096q.064.012.19-.183.004-.02.03-.038l.193.034L39 79.837l-.151-.025q-.115-1.144-.884-1.3-.735-.108-.85.498-.093.48.842.946 1.138.547 1.007 1.234-.274 1.096-1.528.918a1.8 1.8 0 0 1-.658-.267q-.157-.112-.22-.123-.15-.027-.298.164l-.151-.026zm7.376-1.572-.175-.013q-.063-1.112-1.067-1.161L42 82.096q-.099.396.515.398l-.015.19-1.653-.119.015-.19q.586.082.573-.32l.24-2.984q-1.022-.096-1.239.997l-.175-.013.123-1.268 1.589.115 1.59.115-.081 1.272zm4.633-1.593.025.19q-.61.057-.496.409l.294 2.167q.12.883 1.03.763 1.082-.143.96-1.197l-.249-1.83q-.028-.53-.652-.426l-.025-.19 1.343-.179.025.19q-.607.082-.494.58l.253 1.87q.112 1.142-1.206 1.338-1.41.167-1.551-.865l-.292-2.145q-.004-.363-.586-.264l-.025-.19 1.647-.217v-.002zm2.907-.44.942-.275 2.746 2.119-.665-2.175q-.063-.357-.622-.173l-.056-.182 1.215-.356.055.183q-.528.13-.359.461l.937 3.068-.209.062-2.968-2.253-.021.007.714 2.336q.034.41.671.179l.055.183-1.318.386-.056-.183q.577-.124.418-.498l-.815-2.663q-.257-.169-.605-.045l-.055-.182zm4.332-1.292 1.502-.641.079.175q-.55.211-.341.515l1.089 2.429q.105.393.629.125l.078.175-1.502.641-.079-.174q.537-.185.333-.535l-1.089-2.429q-.109-.347-.621-.104l-.078-.175zm2.303-.643-.1-.164 1.297-.75.1.164q-.403.258-.302.419.09.146.315.312l1.756 1.425.019-.011-.492-2.229a.9.9 0 0 0-.121-.323q-.115-.23-.517.027l-.1-.163 1.035-.597.1.163a.44.44 0 0 0-.236.531l.678 3.328-.207.119-2.582-2.156q-.365-.307-.644-.096zm7.729-2.235.82 1.149-2.667 1.862-.115-.156q.486-.289.211-.59l-1.585-2.152q-.182-.317-.631.023l-.115-.155 2.578-1.801.836 1.061-.143.098q-.99-.795-1.77-.173-.486.365-.294.623l.697.946q.768-.458.371-1.067l.123-.087.889 1.206-.124.087q-.453-.543-1.157 0l.863 1.172q.134.22.513-.071 1.131-.658.575-1.887zh.002zm3.954-2.517.115-.098q.519.6.044 1.011c-.475.411-.662.204-1.039-.208q-.705-.833-1.319-.193l-.163.142.869.951q.226.342.653-.085l.131.142-1.226 1.059-.13-.142q.437-.324.13-.594l-1.808-1.98q-.215-.297-.607.073l-.131-.142 1.505-1.3q.862-.689 1.535-.08.573.722-.345 1.574.546-.333 1.366.178.43.28.576.152.13-.112-.157-.461v.002zm-3.332-.407.839.919q.195-.11.49-.395.685-.564.164-1.133-.55-.602-1.22-.021-.506.438-.273.632zm4.957-.096-1.045-.926.102-.111q1.108.609 1.789-.056.484-.58.029-1.067-.434-.386-1.352.183-1.056.62-1.634.109-.648-.661.038-1.549.221-.236.665-.332a.6.6 0 0 0 .181-.098q.044-.045-.058-.252a.06.06 0 0 1-.017-.044l.133-.141.949.842-.102.111q-1.06-.505-1.606.047-.487.547-.019.962.37.33 1.274-.196 1.083-.651 1.614-.18.808.802-.015 1.742a1.8 1.8 0 0 1-.584.403.7.7 0 0 0-.226.116q-.105.11-.018.332l-.102.111.002-.004zm-.422-5.173.997-1.268.156.116q-.377.443-.041.611l2.167 1.604q.287.295.614-.188l.155.115-.997 1.268-.155-.115q.38-.413.025-.624l-2.167-1.605q-.268-.251-.596.2l-.156-.115zm4.423-3.979-.094.144q-1.039-.463-1.562.375l2.598 1.595q.313.268.607-.255l.166.102-.89 1.364-.166-.102q.351-.463-.019-.642l-2.598-1.595c-.379.553-.273 1.065.317 1.527l-.094.143-1.093-.697.857-1.311.857-1.31 1.116.661zm-.461-1.257-.174-.087.734-1.378.175.087q-.242.451-.066.492.371.089 1.249.053l.48-.023a4 4 0 0 1-.267-.373q-.581-.889-.757-.976-.155-.078-.376.337l-.175-.087.594-1.115.175.087q-.271.369.142.838l.955 1.34.95.474q.337.24.612-.364l.174.087-.805 1.51-.175-.087q.322-.51-.068-.657l-.95-.474-1.885-.014q-.391-.003-.542.327v.002zm.326-33.067c.438.13.88.288 1.335.637a1.1 1.1 0 0 1 .561.95c-.567.842-.296-.262-.863-.092-.228-.215-.56.153-.753.285.111.128.113.39.27.42.156.226.314.117.523.313.149.247.324.501.413.784-.1.222-.49.42-.738.109a5.1 5.1 0 0 0-.764-1.212c-.437.313-1.027.703-1.532.842-.264.073-.428.024-.763-.17-.596-.652-.655-.94-.645-1.685.253-.06.24 1.161.78 1.253.501.343 1.548-.094 1.523-.384-.071-.194-.223-.513-.582-.656-.463-.554-.653-1.223-.144-1.304.292-.064.372.369.482.575.048.232.257.601.507.714l.747-.243.719.181-.179-.503-.771-.475-.128-.335.004-.004zm3.159.705c.119-.121.309-.228.407-.107s.023.328-.15.388c-.136.047-.249.077-.361-.055s.002-.124.102-.226zm.281-.548c-.126.055-.075-.179-.202-.268-.179-.126-.145-.39.017-.373a.46.46 0 0 1 .347.26c.081.156-.057.334-.161.381zm1.22.162c.106.179-.023.271-.161.349s-.279.141-.318-.081c-.03-.177-.019-.241.133-.33s.255-.089.345.062h.002zm-3.238-2.254c.442-.352.963.552 1.27.416.752-.247 1.287-.763 1.983-1.099q.454-.02.222.371c-.216.251-.569.384-.784.635.376.594 1.344.505 1.86.552.342.017.555.209.417.643-.507.011-.784.017-1.18-.006-.283.053-.435.251-.26.475.092.128.281.198.373.326.477-.043.855-.256 1.331-.296.198.034.544.313.152.699-.275.254-1.02-.111-1.383-.006l-.728.2c-.185-.179-.35-.06-.51.1l-.532.196c.428.788.995 1.293 1.095 2.275-.413.773-.767.599-1.024.524-.55-.603-1.106-1.666-.124-.775.327.204.529.149.503-.234a4.06 4.06 0 0 0-1.089-1.732c-.805-.957-2.458-2.412-3.892-2.84-.721-.185-1.37.104-2.024.032-.065-.322-.263-.714.371-1.146.446-.286 1.161-.273 1.677-.386.352.262-.592.481-.513.916 1.385.507 3.068 1.817 3.745 2.344.611.396.454.064.665-.062-.033-.183-.229-.271-.362-.607.128-.117.33-.3.536-.33.412-.156.439.441 1.044.318.471.079.957-.264.422-.396-.462-.294-.797-.55-1.427-.588-.309.015-.515.379-.903.418-.425.123-.396-.324-.91-.062-.411-.072-.228-.722-.019-.871zM58.6 13.518c.398-.305.751.541.956 1.261.087.533-.411.714-.609.607-.24-.575-.759-1.027-.345-1.868zm-2.787-3.549c.115.345.125.859.667.897.818.149 1.347.134 1.589-.222.437-.931.665-1.675.961-2.652.262-.16.699.844.73 1.287.037.456-.153.833-.445 1.174.682.077 1.308.247 1.81.631q.216.39-.259.537l-1.784-.545c-.501 1.244-1.563 2.09-2.778 2.785-.749.271-1.464.22-1.725.021s-.209-.501.588-.739c1.129-.236 2.109-.831 2.25-1.387.057-.618-1.517.358-1.888-.473-.311-.383-.251-.716-.313-1.033-.125-.484.582-.582.592-.275l.004-.004zm-28.375 1.783c.022-.415.446-.822.71-1.361.503-.435 1.762-1.116 2.448-1.123.986.641.868 1.917 1.029 3.042-.056 1.76-.784 1.943-1.366 1.543.307-.256.496-1.227-.09-1.089-.232.164-.263.205-.473-.089-.202-.541-.478-1.02-.366-1.187.541-.322.419-.895.096-.92-.29-.04-.74-.068-.959.258-.219.456-.699.882-.755 1.413-.161-.192-.238-.237-.277-.486zm1.695 1.494c.051-.149.247-.247.392-.196s.319.573.153.633c-.146.296-.611-.045-.545-.437m-.903.758c.061-.194.307-.315.492-.247s.415.754.207.829c-.181.383-.776-.072-.702-.582zm-1.534-5.269c-.081-.571-.307-1.187-.454-1.728-.036-.305.433-.36.633-.058l.275 1.193c.263.168.847-.334.739-.844l-.409-.976c.167-.226 1.012-.115 1.157 1.193-.129.616-.535 1.251-1.109 1.715l.344.784c1.078-.531 2.273-1.609 3.434-.895.72.814 1.01 3.304.445 5.022-.211.81-1.099.149-1.698-.021-.142.128-.657.102-.536.373l.645 1.457-.482.194-.492-1.112c-.44.245-.869.352-1.037.115-.173-.288-.484-.75-.477-1.121.309-.445 1.122-.528 1.229-1.487-.025-.343.196-1.206-.085-1.415-.424-.062-.53 1.427-.884 1.69-.261.215-.274.181-.474.258-.143-.343-.233-1.125-.58-.918-.221.179-.711.471-.635 1.044l.865 2.135c-.613.364-1.163-.085-1.629-.737-.318-.486-.502-.788-.546-1.4-.125-.369.164-.912.294-1.261.258-.141.479-.217.682.296.559-.162 1.449-1.055 1.053-1.883-.231-.552-.898-.488-1.609-.622-.123-.181-.159-.213-.144-.458.507-.121 1.089-.202 1.481-.535l.006.002zM11.892 26.734c.129-.901 1.385-2.339 1.849-1.089.286 1.044-.036 1.864-.34 2.912-.207.692-.398.571-.694.009-.506-.481-.678-1.153-.815-1.832M9.37 27.737c-.071-.496.394-.946.762-.814.322.239.577.388.865.842-.253.652-.571.548-1.627-.025v-.002zm-2.02.79c.546-.643 1.28-1.125 1.514-2.209l.682-2.454c.769-.646 1.213-.023 1.213.42.021.558-.409 1.167-.154 1.617.047.396.381.305.575.552.311-.072.722-.989 1.053-1.344.541-.473 1.927-.835 2.09-.158.379.854-.236 2.697-.501 3.903.279.315.941-.479 1.151-.81l.364.266c-.666.824-1.387 1.155-1.668 1.289s-.747.187-1.078-.215-.753-1.272-1.129-1.187c-.296.147-.369.428-.501.684s.814 1.138.914 1.24-.085.635-.682.168c-.023-.098-.755.658-.615.884.737.748 1.291.501 1.523.156.288-.388.761-.88 1.067-1.208.185.087.542.16.341.435-.507.678-.869 1.351-1.485 2.03-.842.65-2.546.714-3.678.53-.432-.043-.524-1.116-.651-1.702.04-.262-.031-.381.353-.356.079.464.2.812.673.989.559.134.846-.011.922-.33.3-.648.488-1.31.429-2.007-.043-.556-1.044-1.182-1.528-1.621-.298.26-.551.652-.826 1.004-.085-.158-.283-.407-.369-.565z" fill-rule="evenodd"/></g><path d="m61.604 66.072-1.849 1.364c-5.132-8.612-2.663-15.906-4.212-23.6-1.239-.991-2.407-2.203-3.647-2.75-1.195 1.041-3.556 3.187-5.226 4.204 5.113 2.254 4.274 9.967 4.033 20.024-.292 1.328-1.591 1.62-1.666-.192-.63-13.712.978-16.888-4.69-18.347-5.934.569-4.996 9.37-5.246 18.612-.068 1.236-1.56 1.051-1.491-.458.247-4.167.04-9.244.29-13.414.194-2.642 1.343-4.623 3.507-6.085-1.888-.59-4.351-2.277-5.148-3.785-1.041-.463-3.093 1.719-4.086 2.542.464 7.729-.88 19.386-4.133 23.11a29 29 0 0 1-1.488-1.096c3.205-10.105 1.976-22.809 3.539-30.259 1.245-2.476 3.213-5.043 5.131-6.102.19-1.773.797-3.055 1.612-4.089 1.447-1.493 4.527-1.768 5.303-2.659-2.755.175-4.379-.714-5.793-2.335-.661-1.698-.939-3.283.932-2.91.973.916 1.026 3.251 5.185 3.4.118-1.368-.151-2.772.196-4.063-.015-.873 1.77-.999 1.886-.149.447 1.438.174 3.765.622 4.316 1.693.224 3.66-1.805 4.874-3.424.65-.32 1.151-.435 1.341.149-.484 3.411-2.769 4.973-6.044 4.99.905 1.623 6.608.648 7.2 6.92 9.434 4.165 4.012 23.498 9.071 36.089l-.002-.002zM38.071 28.643c1.28-3.792 4.531-1.879 5.879-3.971 2.105 2.314 4.278.824 5.501 4.022-3.962-1.442-7.599-1.052-11.38-.051m-.631 3.437c5.332-1.954 8.989-1.395 12.297-.315a16.9 16.9 0 0 1 .19 5.801c-4.367-1.219-8.581-1.219-12.612.251-.273 0-.021-5.676.125-5.74zm.98 8.739c3.388-1.199 6.898-1.602 10.68-.251-.784 1.348-3.505 2.303-5.298 3.447-2.414-1.634-5.286-1.901-5.382-3.196m-3.862-7.229c-2.05 2.141-2.475 4.572-2.248 6.866.694-.498 1.543-1.148 2.542-1.495-.384-1.79-.369-3.581-.294-5.371m18.358 0c2.05 2.141 2.475 4.572 2.248 6.866-.694-.498-1.543-1.148-2.542-1.495.384-1.79.368-3.581.294-5.371M42.182 48.589c.108.074.035.639.05 1.003 1.911-.148 3.677-.333 4.625.238.771.59.707 2.661.252 2.99-1.462.273-3.196.044-4.794.136-.192-.066-.181.997.006.919.379.055.916.004 1.295-.02s.718-.046 1.095.011c.294.043.062 2.555.156 3.703 1.122 1.017.982-1.81.978-2.763.573-.011 1.076.094 1.093 1.01.298 1.705-.407 2.787-1.875 3.765-.113 1.12.053 2.509-.06 3.632 1.57-.792 1.211-3.105 1.426-4.185.447-.63.758-.14 1.095.321.175 2.904-.98 5.473-2.486 5.095-.224 1.57.055 3.289-.169 4.859-.198 1.411-1.406.64-1.378-.286.027-1.542-.071-3.04-.043-4.583-3.11-1.178-2.396-3.447-2.354-5.298.392 0 .784.169 1.136.252.209 2.143-.166 3.307 1.261 3.658 0-1.093.083-2.311.083-3.405-.646-.826-1.937-1.108-1.952-2.06-.131-.62-.281-1.854.236-2.473-.626-.275-.943-.526-.957-1.723-.032-.715.314-1.004.882-1.449.331-.098.957-.05 1.398-.075-.013-.319-.026-.638 0-.957h-1.986c-.04-.918-.272-2.703.98-2.315zm2.652 2.102h1.555c.043 0 .077.034.077.077v.871a.076.076 0 0 1-.077.076h-1.555a.076.076 0 0 1-.076-.076v-.872c0-.043.034-.077.076-.077zm-2.14 4.51.926.045c-.044.956.054 1.91.008 2.867-.634-.365-1.182-1.459-.935-2.911z" fill-rule="evenodd" fill="#fefefe"/></svg>