<svg version="1.0" xmlns="http://www.w3.org/2000/svg" width="869.333" height="869.333" viewBox="0 0 652 652"><g fill="#24572C"><path d="M305.5 1c-69.2 4.5-134.4 30.5-187.4 74.5-52.5 43.6-90.5 103.9-107.2 169.7-16.5 65.5-12.1 137 12.3 199.3 26.3 67 77.1 126.1 139.3 162.2 106.5 61.9 239.6 58.3 342-9.2 18.7-12.3 33.3-24.3 50.6-41.5 18.2-18.1 28.6-30.7 41.9-50.5 30.3-45.4 48-95.6 53.1-150.8 1.7-18.8.6-58.3-2.1-76.2-15.5-102.3-76.1-189.3-166.5-238.7C429 11 365.7-2.9 305.5 1zm55.9 22.6c57 6.4 113.4 30.4 158 67.2 58.3 48.2 96.1 115.1 107.8 190.7 2.6 16.9 3.5 53.3 1.9 71.2-6.9 73.1-38.4 139.3-90.7 190.4-69.7 67.9-166.8 98.4-262 82.4-80.2-13.5-151.3-58.1-198.2-124.3C48.5 459.4 30.3 412 23.8 360c-1.7-13.7-1.7-55.3 0-69 7.9-63.7 33.7-120.7 76.4-168.9 33-37.1 78.3-67.2 126.3-83.7 44.2-15.3 88.1-20.1 134.9-14.8z"/><path d="M296 32.1c-34.1 3.7-66.9 13.1-97.5 27.8-72.8 35.2-126.8 96.4-152.1 172.6C15.1 327.2 33.4 431.6 95 509c49.7 62.4 121.6 101.7 201 110 23.8 2.4 61.4.9 85.1-3.6 116.1-21.7 208.3-111.6 233.3-227.5 4.9-22.7 6-34.4 6-62.9 0-22.1-.4-28.9-2.3-41-8.2-54.2-28.5-100.9-61.9-143-10.2-12.8-33.3-35.8-46.1-45.9-41.3-32.7-88.4-53.2-140.1-61.2-15.4-2.4-59-3.5-74-1.8zm46.4 4.9c42.9 2.8 78 12.4 115.9 31.7 72.4 37 126.7 104.4 147.2 182.5 7.6 29.3 10 51 9.2 82.7-.6 21.9-1.9 33.6-5.7 51.6-21.5 100.8-95.7 183.1-193.5 214.8-84 27.2-175.6 14.8-248.7-33.9-81.2-54-129.7-144-129.8-240.9-.1-152 119.1-278.8 271-288.5 17.3-1.1 17.3-1.1 34.4 0z"/><path d="M381 72.3c-1.4.7-2.6 2.1-2.8 3.2-1.1 7.2-2.5 12.5-3.5 13.9-1.2 1.6-1.9 1.5-10.6-1.3-10.2-3.4-12.6-3.1-13.7 1.4-.9 3.5.4 11.1 2.1 12.5.7.6 4.4 1.7 8.2 2.4 8 1.4 8.6 2.5 4.4 8.3-4.5 6.2-12.1 9.6-20.6 9.1-5.4-.2-6.5 0-6.3 1.2.4 1.9 12.6 11 14.8 11 2.8 0 10.5-5.8 17-12.7 3.4-3.6 6.5-6.2 7-5.7.4.5 1.5 3.6 2.5 6.9 2.4 8.4 9.3 25.6 11.3 28.2 2.4 3.2 12.3 5.5 21.9 5.1l7.8-.3-7-4.6c-11.9-7.8-20.9-20-25.9-35.1-3.5-10.3-3.4-11.6.7-12.2 21.8-3.1 24.4-4.7 18.5-11.2-1.7-1.9-2.7-2.1-7.9-1.7-7 .7-8-.5-5.5-6.7 1.4-3.6 1.5-4.4.1-6.9-3.1-6.1-7-7.6-12.5-4.8zM245.3 83.2c-2.2 2.8-2.1 4.9.4 9.5 1.4 2.6 5.6 11.6 9.3 20l6.8 15.2-2.2 1.9c-1.1 1-3.3 2.6-4.8 3.5-3 1.9-3.3 1.6-6.7-5-2.4-4.9-6.4-8.3-9.8-8.3-3.3 0-3.9 2.5-1.8 6.8 2.4 5 4.5 13 4.5 17.3 0 3.1.6 4 4.1 6.3 5.5 3.7 9.3 2.9 11.5-2.2 2.2-5.3 5-8 12.7-11.8 4.5-2.3 6.7-4 6.7-5.2 0-2 4.1-6.2 7.7-8.1 2.1-1.1 2.4-.8 4.7 3.7 4.6 9 7.4 9.3 10.1 1.1 1.6-4.8 1.6-5.6.2-10.8-.9-3.1-2.3-8.2-3.2-11.3-1.8-6.8-4.5-9.1-10.2-8.6l-3.8.3.3 7.7.3 7.7-4.2 3c-2.3 1.7-4.7 3.1-5.4 3.1s-1.9-1.7-2.8-3.8c-7.4-17.4-10.7-26-10.7-27.9 0-4.1-11.2-7.4-13.7-4.1zm-74.5 41.5c-.9 1-2.5 3.6-3.6 5.8s-3.3 5.2-4.9 6.7l-2.9 2.8-4.9-5c-5.5-5.5-9.4-6.5-13.4-3.3-3.1 2.5-3.9 8.6-1.5 10.7 1.1.8 4.3 3.7 7.2 6.3l5.3 4.8-2.2 8.2c-1.6 6-2.7 8.4-4.1 8.9-2.8.9-5.1 4.9-4.2 7.6.3 1.3 1.9 3.9 3.4 5.8s3.6 5.3 4.6 7.5c1.5 3 2.7 4.1 5.4 4.8 1.9.5 5.5 1.5 7.9 2.3 3.9 1.2 4.7 1.2 6.8-.1 1.7-1.2 2.3-2.5 2.3-5.4 0-4.4 3.5-13.5 4.9-12.9.5.2 7 6 14.3 12.9 15.7 14.8 21.1 18.9 25 18.9 2.4 0 2.8-.4 2.8-2.8 0-4.7-5-11.6-19.8-27.1L185 167l2-5.1c1-2.9 2.9-6.2 4-7.4 3.2-3.4 2.5-9.3-1.4-11.5-3.8-2-5-6.2-3.5-11.8 1-3.7.9-4.5-.6-6.2-2.4-2.7-12.4-2.9-14.7-.3zm3.9 18c2.1 3.1 2.3 9.7.5 11.5-1.1 1.1-2.1.5-5.3-2.9-2.1-2.3-3.9-4.6-3.9-5.1 0-1.6 4.1-6.2 5.5-6.2.8 0 2.2 1.2 3.2 2.7zm-7.7 28.9c0 .6-.8 2.2-1.8 3.4-2.1 2.6-5 2.3-9.2-.9l-2.5-2 2.3-2.3c1.2-1.4 2.2-3.1 2.2-3.9 0-.9.3-1.9.7-2.3.8-.8 8.3 6.3 8.3 8zm306.4-37.4c-1 1.3-2.7 3.9-3.8 5.9-2.6 5.3-11.4 15.9-13.2 15.9-.8 0-2.5-1.1-3.8-2.5-3.8-4-6.1-3.2-13.7 4.7-6.9 7.1-7.5 8.2-6.3 11.2 1.2 3.2 9.8.7 17.3-4.8 1.9-1.5 4.3-2.6 5.2-2.6 1 0 4.8 1.6 8.5 3.5s7.5 3.5 8.6 3.5c2.5 0 8.8 3.3 17.6 9.2 6.8 4.6 8.7 6.8 6 6.8-.6 0-3.9-1.8-7.2-3.9-9.4-6.1-20.8-11.2-27.3-12.1-6.2-.8-7.3-.6-7.3 1.4 0 2.9 3.5 5.7 7.5 6.1 2.2.2 6.2 1.3 8.9 2.5 6.1 2.6 5 4.4-2.4 4.1-4.4-.1-5 .1-5 1.9 0 2.9-1.5 2.5-8.7-2.5-6.9-4.9-11.6-7.5-13.3-7.5-1.3 0-1.3 6.6.1 9.1.6 1.2 3.3 3.1 5.9 4.3 6.1 2.8 12 6.8 12 8 0 1.7-5.3 6.6-7.1 6.6-1 0-4.4-1.8-7.5-4-3.2-2.2-5.9-3.8-6.1-3.6s.3 2.1 1.1 4.1c.9 2.1 1.9 6.2 2.3 9.2.6 5.9 2 7.3 7.1 7.3 4.6 0 14.3-5.5 17.6-10 1.7-2.2 3.8-4 4.8-4s4 2.2 6.6 4.9c2.6 2.6 5.5 5.1 6.4 5.4 2.6.9 4.8-2 4.8-6.3 0-3.7-.2-3.9-7.5-8.1-4.1-2.3-7.5-4.8-7.5-5.5 0-1.9 3.6-2.7 9.4-2 2.8.3 5.7.2 6.5-.3 1.7-1.1 4.8.3 10.5 4.8 6.6 5.3 12.6 3.3 11-3.6-1.2-5.7-2.8-8.4-5.5-9.9-1.6-.8-2.9-1.9-2.9-2.4s3.9-2.8 8.8-5.1c4.8-2.3 8.9-4.4 9-4.5.2-.1.6-2 .9-4.1.4-2.9.1-4.2-1.4-5.4-2.6-2.2-10.2-5.3-11-4.6-.3.4 0 2.5.7 4.7 1.6 5 .8 6.1-2.4 3.1-1.8-1.7-2.4-3.2-2.2-5.6.4-4.4 1.1-5.2 5.1-5.9 4.3-.8 5.9-3.4 4.7-7.8-1.1-4.2-3.4-4.6-7.3-1.4-1.7 1.4-3.5 2.6-4 2.6s-2-1.8-3.4-4c-1.4-2.3-3.3-4-4.4-4-1 0-2.6-.9-3.6-2s-2.4-2-3.1-2c-.6 0-5.6 5.9-11 13-5.3 7.2-10.2 12.9-10.7 12.7-2.3-.7-1.5-2.6 4.3-9.5 5.8-6.8 6.1-7.5 5.8-11.9-.3-5.4-1.6-6.3-4.4-3.1zm20.6 12.7c-1.4 2.7-5.9 4.6-7.4 3.1-.7-.7.1-2.1 2.4-4.5 2.9-3 3.6-3.3 4.8-2.1 1.1 1.1 1.1 1.8.2 3.5zm-9.5 10.2c1.1 1.7-2.6 4.9-5.6 4.9-3.9 0-4.4-1.5-1.2-3.9 3.1-2.2 5.8-2.7 6.8-1zm10.5-.2c0 1.2-2 2.5-2.7 1.8s.6-2.7 1.8-2.7c.5 0 .9.4.9.9zm8.4 7c2.4 2.7 1.1 4.8-1.5 2.5-1.9-1.7-2.6-4.4-1.1-4.4.5 0 1.7.9 2.6 1.9zm-16 5.2c-.3.5-1 .7-1.5.3-.5-.3-.7-1-.3-1.5.3-.5 1-.7 1.5-.3.5.3.7 1 .3 1.5zm8.6 1.9c0 .5-.7 1-1.5 1s-1.5-.5-1.5-1c0-.6.7-1 1.5-1s1.5.4 1.5 1zm-185.1 16.4c-24.5 5.2-46.7 23.9-55 46.6l-2 5.6-8.8 1.2c-16 2.1-31.2 8.6-44.8 18.9-37.6 28.5-49 81-26.7 123.3 7.5 14.3 21.9 29.4 36.4 37.9 9.4 5.6 24.4 10.9 34.7 12.3l8.9 1.2 2.7 6.7c9.6 23.3 30.1 40.2 54.9 45.3 23.9 4.9 47.9-1.8 66.4-18.7 9-8.2 19.1-24.2 19.6-31.3.2-1.9 1-2.2 6.8-2.8 34.9-3.2 67.8-28.9 80-62.5 5.6-15.2 7.5-34.4 4.9-50.1-6.1-38.2-36.7-70.6-74.7-79-4.8-1.1-10.3-2-12.2-2-3.4 0-3.6-.3-5.4-5.3-7.2-20.8-26.2-38.5-49.1-45.7-9-2.8-27.1-3.6-36.6-1.6zm28.4 13.1c22.2 4.7 41.7 23.5 47.2 45.6l1.7 6.7 10.6.4c8.6.4 12.6 1.1 20.2 3.7 11 3.7 15.7 6.3 25.8 13.8 8.8 6.7 18 17.9 23.2 28.4 10.9 21.5 11.9 47.7 2.9 69.6-12.8 30.7-44.1 52.3-75.8 52.3h-6.9l-1.2 5.2c-4 17.3-17.4 34.2-33.1 41.8-18.9 9-38 9-56 0-15.7-7.9-28.5-24.1-32.3-40.8l-1.3-5.7-10.4-.7c-38.4-2.4-70.8-31.4-77.4-69.3-1.9-11-1.9-17.9 0-28.9 2.9-16.6 9.9-30.7 21.3-42.8 15.6-16.6 33.9-25.3 55.6-26.6l10.9-.7 1.4-6c3.1-13.6 13.3-28.4 25.2-36.4 8-5.4 14.9-8.2 25.6-10.5 4.6-.9 16.5-.5 22.8.9z"/><path d="M312.6 207.5c-14.3 3.6-28.2 14.6-35 27.4-3.8 7.2-6.6 16.5-6.6 21.7v3.1l-12.2.6c-13.9.7-23.3 2.9-33.6 8.1-18.7 9.4-32.2 25.1-38.9 45.1-2.4 7.2-2.7 9.5-2.7 23-.1 13.9.1 15.6 2.8 23.8 6.7 20.5 21.6 37.3 40.6 46 10.4 4.8 18.6 6.7 32.3 7.4l11.7.6v3.1c0 13.8 11.6 33 25.1 41.7 24.9 15.9 58.8 9.3 75.3-14.9 5.1-7.3 9.5-18.7 9.6-24.2 0-1.9.4-4 .8-4.6s5.5-1.4 11.7-1.7c31.7-1.8 54.9-16.6 68.5-43.6 7.4-14.8 9.5-36.1 5.2-52.3-9.5-35.3-39.7-57.8-77.6-57.8-7.1 0-7.6-.2-8-2.3-.2-1.2-.9-4.9-1.5-8.1-3.2-17.6-16.8-33.4-34.7-40.2-8.6-3.3-23.6-4.2-32.8-1.9zM334 211c3.8.6 9.8 2.7 14.6 5 16.6 8.1 28.3 26.1 28.4 43.6v5.1l13.8.6c15.8.7 25.2 2.9 35.2 8.4 12.1 6.6 21.3 15.4 28.4 27.1 6 10.1 6.1 9.9-4.6 10.4-7.7.4-10.3.9-15.1 3.3-7.5 3.7-16 12.8-18.4 19.5l-1.8 5H348v5h65v5h-65v5h24.4l-4.6 2.9c-3 1.9-5.2 4.4-6.7 7.3-2 4.2-2.1 5.8-2.1 32.6V425h-8l.2-22.8c.3-22.7.3-22.7 2.6-23 1.2-.2 2.2-1 2.2-1.8 0-1.1-1.7-1.4-8-1.4h-8v12.1l-4.2-2.5c-3.9-2.3-6.4-6.6-3.9-6.6.6 0 1.1-.7 1.1-1.5 0-1.2-1.4-1.5-7-1.5s-7 .3-7 1.5c0 .8.5 1.5 1 1.5.6 0 1 1 1 2.2 0 1.6-1.2 3-4 4.6l-4 2.3V376h-8c-6.4 0-8 .3-8 1.5 0 .8.9 1.5 2 1.5 1.9 0 2 .7 2 23v23h-8v-28.5c0-33-.3-34.2-8.7-39.6l-4.7-2.9H304v-5h-65v-5h65v-5h-65.8l-2.9-6.3c-3.6-7.7-10.5-14.7-18.1-18.4-4.7-2.3-7.3-2.9-14.9-3.1-5.1-.2-9.3-.6-9.3-.8 0-.3 1-2.4 2.1-4.7 13.6-26.7 37.9-40.6 71.2-40.7h8.7v-3.8c.1-18.5 12.2-37.4 29.1-45.5 10.6-5.1 18.7-6.4 29.9-4.7zm-66.5 144.7c-1.6.8-4 2.5-5.3 3.6-2 1.9-2.5 2-4.5.7-1.2-.8-4.2-2.4-6.7-3.7l-4.5-2.2h12c11.5 0 11.9 0 9 1.6zm132.3 1.3c-3.1 1.6-6 3.5-6.3 4.1-.5.7-1.6.2-3.4-1.4-1.4-1.4-3.9-3.2-5.6-4-2.9-1.6-2.5-1.6 9-1.6h12l-5.7 2.9zm-119.3 3.4c5.8 2.4 7.5 6.5 7.5 17.8v9.8h-16.7l-.6-5.5c-.3-3.3-1.8-7.8-3.7-11.4-1.8-3.3-2.9-6.5-2.5-7.1 1.3-2.1 7-5 9.8-5 1.5 0 4.3.6 6.2 1.4zm102.4 0c5.5 2.9 5.7 4 2.2 10.9-1.7 3.4-3.4 8.6-3.8 11.4l-.6 5.3H364v-9.8c0-8 .4-10.3 2-13 3.4-5.5 11.2-7.7 16.9-4.8zm-51.6 27c1.8.7 4.3 2.6 5.7 4 2.4 2.7 2.5 3.3 2.8 18.2l.3 15.4H313v-14.7c0-14.2.1-14.7 2.6-18.1 2.6-3.4 7.3-6.1 10.7-6.2 1 0 3.2.6 5 1.4zM288 409v16h-6.8l-.4-13.3c-.2-10.6-.7-13.8-2.1-16L277 393h11v16zm85.3-12.8c-1.2 2.5-1.8 6.6-2.1 16l-.4 12.8H364v-32h11.1l-1.8 3.2zm-.7 37.3c-5.1 12.2-17.9 23.3-31.5 27.5-8.6 2.7-21.7 2.7-30.4 0-12.4-3.8-23.2-13.1-29.7-25.3l-3.1-5.7H374l-1.4 3.5z"/><path d="M325 230.3c0 5.8-.2 6.5-2.5 7.5-1.6.8-2.8 2.3-3.1 4.2-.4 1.6-1 3-1.5 3s-.9.9-.9 2 .5 2 1 2c.6 0 1 1.1 1 2.5 0 1.6-.6 2.5-1.5 2.5-1.1 0-1.5 1.1-1.5 4v4h-4.5c-4.5 0-4.5 0-4.5 3.5 0 3.1-.3 3.5-2.5 3.5-2 0-2.5.5-2.5 2.5v2.5h49v-2.5c0-2-.5-2.5-2.5-2.5-2.2 0-2.5-.4-2.5-3.5V262h-10v-4c0-2.9-.4-4-1.5-4-.9 0-1.5-.9-1.5-2.5s.6-2.5 1.5-2.5c.8 0 1.5-.9 1.5-1.9s-.7-2.1-1.5-2.5c-.8-.3-1.5-1.4-1.5-2.4 0-2-2.9-5.2-4.8-5.2-.8 0-1.2-2.2-1.2-6.5 0-3.7-.4-6.5-1-6.5s-1 2.8-1 6.3zm-1 27.7c0 2.9-.4 4-1.5 4s-1.5-1.1-1.5-4 .4-4 1.5-4 1.5 1.1 1.5 4zm7 0c0 2.9-.4 4-1.5 4s-1.5-1.1-1.5-4 .4-4 1.5-4 1.5 1.1 1.5 4zm-25 62.5c0 40.8 0 41.5-2 41.5-1.8 0-2 .7-2 6v6h49v-6c0-5.7-.1-6-2.5-6H346v-83h-12v26.7h-16V279h-12v41.5zm23-11c.7.8 2.1 1.5 3.1 1.5 1.8 0 1.9 1.1 1.9 19v19h-16v-38h2.4c1.3 0 2.6-.7 3-1.5.3-.8 1.4-1.5 2.4-1.5 1.1 0 2.5.7 3.2 1.5zm5 48.5v4h-16v-8h16v4z"/><path d="M324.5 320.2c-.3.8-.4 5.7-.3 10.9.3 8.1.5 9.4 2.1 9.7s1.7-.5 1.5-10.4c-.2-7.5-.7-10.9-1.5-11.2-.7-.2-1.5.3-1.8 1zm-2.4-31c-1.5 4 1.4 7.4 5.4 6.4 5.2-1.3 3.8-8.6-1.6-8.6-2.2 0-3.2.6-3.8 2.2zm-20.5 153.4c-3.1 6.8-3.1 6.6-.4 6.2 2-.3 2.7-1.6 5.2-9.6.5-1.6.3-2.2-.8-2.2-.8 0-2.6 2.4-4 5.6zm10.4-4.2c0 .8-.3 2.1-.6 3-.5 1.3.1 1.6 3 1.6 5.4 0 4.9 2.8-.6 3.2-2.3.2-4.3.9-4.6 1.5-.3 1 1.3 1.3 5.7 1.3h6.1v-12h-4.5c-3.2 0-4.5.4-4.5 1.4zm6.5 1.6c-.3.5-1.5 1-2.6 1-1 0-1.9-.5-1.9-1 0-.6 1.2-1 2.6-1s2.3.4 1.9 1zm7.5-1c0 2.1 2.6 2.8 3.2.8.5-1.3 3.8-.4 3.8 1.1 0 .5-1.6 1.8-3.5 3-5.5 3.2-4.6 5.1 2.5 5.1 4.9 0 5.8-.3 5.4-1.5-.4-1-1.4-1.3-3-.9-1.7.4-2.4.2-2.4-.9 0-.8 1-1.7 2.1-2 1.5-.4 2-1.1 1.5-2.2-.3-.9-.6-2.3-.6-3.1 0-1-1.3-1.4-4.5-1.4-3.8 0-4.5.3-4.5 2zm16.5.9c-2 4.1-1 6.1 3 6.1 2 0 3.5.6 3.9 1.5.3.8 1.5 1.5 2.7 1.5 1.8 0 1.9-.2.9-1.5-.8-1-.9-1.5-.2-1.5.6 0 .9-.7.6-1.5-.4-.8-1.2-1.5-2-1.5-.7 0-2-1.4-2.9-3-2-3.8-4-3.8-6-.1zm4 2.1c.3.5-.1 1-.9 1-.9 0-1.6-.5-1.6-1 0-.6.4-1 .9-1 .6 0 1.3.4 1.6 1zM88.1 236.4c1 2.1.7 3.1-2.2 7.2-2.7 4-3.4 6.1-3.7 10.9-.6 10.3 4.9 16.7 14.3 16.7 5.6 0 8-1.5 15.9-9.9 5.7-6.1 10.1-9.3 12.6-9.3 2.2 0 6 4.9 6 7.7 0 5.9-5.3 11-13.4 12.8l-5 1.1 8.2 2.1c7.8 2 8.2 2 6.7.3s-1.4-2.1 1.8-6.9c4.7-6.8 5.5-11.6 2.8-17.6-1.6-3.7-2.9-5-6.6-6.6-3.3-1.4-5.5-1.8-7.8-1.3-4.4.9-10.6 5.4-15.1 10.8-6.3 7.7-11.8 9.5-16.1 5.1-6.6-6.5 1.5-18.3 13.8-20l5.2-.8-8-2.3c-10.3-3-10.7-3-9.4 0zm482.4.7c.5 2.5.2 3.9-.7 4.7-1.8 1.4-13.6 5.2-16.5 5.2-1.2 0-8.1-1.6-15.3-3.5s-13.3-3.5-13.5-3.5-1.3-1-2.5-2.2c-2.4-2.6-2.5-2.3-.3 5.8 1.8 6.8 2.9 8.2 2.8 3.6 0-2.2.5-2.8 2.7-3 2.5-.3 21.5 4.2 22.7 5.4.3.2-3.7 4.6-8.7 9.7l-9.3 9.2-2.1-2.5c-2.5-2.9-2.6-3.6 1.8 11.5 2.2 7.5 3 9.3 3.2 7.1.3-2.2 3.4-6 12-14.8 11.3-11.4 11.9-11.9 18.5-13.8 7.9-2.2 9.4-1.9 11.3 2.4 2.4 5.6 1.5.5-2.2-11.8-3.7-12.5-5.1-15.8-3.9-9.5zM124.3 282c-1.3 3.6-.9 3.6-18.8 1-7.7-1.1-15.8-2-18-2-9 0-14.8 7.7-14.9 20.1-.1 5.7.3 7 2.8 10.3 3.9 5.1 7.2 6.3 24.3 8.7 18.7 2.6 20.7 3.5 16.3 7.9-1.5 1.5-3.4 2-7.2 2.1-2.9 0-11.1.4-18.3.8-14.6.8-17.7.2-19.2-3.7-1.1-2.6-1.1-2.6-1.1 1.3 0 4.9 1.5 15.1 1.7 11.3.2-4.8 3.1-5.7 21.2-6.7 9-.6 16.6-.7 16.9-.4.3.2-.7 1.5-2.1 2.6-1.5 1.2-10.4 9.2-19.9 17.7-14.2 12.8-16.8 15.6-15 15.8 1.3.2 11.4-.1 22.5-.7s21-.8 21.9-.5c.9.4 2.3 1.8 3.1 3.3 1.4 2.5 1.4 2.3 1.4-3.4-.1-3.3-.5-7.1-.9-8.5l-.8-2.5-.1 2.7c-.1 1.7-1 3.3-2.3 4.2-2.8 1.7-26.2 3.3-25.7 1.8.2-.6 6.6-6.5 14.2-13.2l13.7-12.1.1-8.2c0-4.5.4-10.5.8-13.4s.4-5-.1-4.7c-.4.3-.8 1.1-.8 1.8 0 .8-.7 1.9-1.6 2.7-1.3 1-3.5 1.1-12.2.1-18.6-2.1-23.1-3.2-26.8-6.4-2-1.7-3.6-4.3-3.9-6.2-.8-4.2 1.5-9.9 4.9-12.2 2.5-1.6 3.5-1.5 19.9.6 21.1 2.8 21.7 3 21.7 7.1 0 5.8.9 2.5 2.5-9 1.7-12.1 1.7-15-.2-10.1zm414.5 5.7c-2.1.2-3.8 1-3.8 1.6 0 .7 1.2 10.7 2.6 22.3l2.7 21 4.6-.7c2.5-.4 5.5-.8 6.6-.9 1.2-.1.3-.8-2.3-1.7-4.8-1.7-8.2-6-8.2-10.4 0-3.3-.7-3.1 23.3-6 20.1-2.5 21.5-2.4 22.8 2.2 1.2 4.1 1-.3-.6-12.1-1.5-11.3-2.5-15.1-2.5-9.3 0 1.7-.6 3.5-1.3 4.1-1.1 1-36.2 6.2-41.4 6.2-1.6 0-2.2-.9-2.6-3.6-.8-4.8 1.3-8.8 6.1-11.3l3.7-2-3 .1c-1.6.1-4.7.3-6.7.5zm-1.6 59.3c0 9.9.2 12.6.9 10.3s1.7-3.5 3.6-3.9c2.8-.7 39.6.4 41.9 1.3.8.3 1.5 1.5 1.5 2.7.1 1.6.3 1.4.9-.9 1.1-4.4 1.1-22.8 0-19.1-.5 1.6-1.5 3.3-2.2 3.7-.7.5-10.3.9-21.3.9-22 0-24-.5-24.8-5.8-.2-1.5-.4 3.4-.5 10.8zm-2.6 19.1c1.4 1.6 1.3 2.1-1.2 6.1-7.4 11.7-1.8 24.8 10.6 24.8 6.2 0 9.7-2.5 16.8-11.8 6.4-8.3 7.5-9.2 12.2-9.2 3.4 0 7 4 7 7.7 0 6.6-6.6 13.6-14 14.9-6.1 1.1-5.7 1.8 1.5 3.1 9.5 1.6 12.2 1.6 10.7.1-1.8-1.8-1.5-3.7 1.3-9.2 6.1-12 .8-24.4-10.7-25.4-6.5-.5-10.1 1.6-16.6 9.8-7.9 10-10.1 12-13.1 12-6 0-8.6-8.2-4.4-13.9 2.9-3.9 8.2-7.1 11.6-7.1 5.2 0 1.9-1.5-5.9-2.6-6.9-1-7.3-.9-5.8.7zm-411.2 20.7c.7 2.2-1.9 6.3-12.8 19.5-7.5 9-8.4 9.8-14.8 12.1-7.5 2.8-9.1 2.6-11.4-1.3l-1.5-2.6.7 2.5c1 4 8.6 23 9.3 23.4.3.2.5-1.3.3-3.5-.4-4.3-.9-3.9 11.6-8.8 4.6-1.8 5-1.8 19.2.6 7.9 1.3 15.4 3 16.7 3.8 3 2 3 .8.1-6.7-2.4-6.2-4.1-7.7-3.2-2.8.5 2.3.2 3.1-1.1 3.6-1.6.7-23.4-2.1-24.3-3.1-.5-.4 14.2-18 16-19.1.6-.4 2 .4 3 1.7 2.4 2.9 2.2 2.3-2.7-10.9-2.1-5.6-4.2-10.2-4.7-10.2s-.7.8-.4 1.8zm406.4 16.7c-1.4.8-3.5 3-4.7 4.8-2.6 4.3-8.1 17.7-8.1 19.9 0 1-.4 1.8-.8 1.8-.9 0-3.2 5.8-3.2 7.9 0 .7.8.3 1.9-1l1.8-2.3 19.6 7.8c10.8 4.2 20.1 8.4 20.7 9.2.7.8.9 2.5.5 4.1-.4 1.9-.3 2.5.3 1.8 1.3-1.2 7.6-17 8.5-21.1l.7-2.9-1.5 2.7c-2 3.6-4.1 3.5-13.5-.1-11.4-4.3-10.6-5.6 5.8-9.6 7.4-1.8 13.7-3.7 14.1-4.1 1.2-1.4 5.1-11.5 5.1-13.2 0-1.3-.2-1.3-1.3.2s-21.3 7.5-25.4 7.6c-.7 0-1.3-1.1-1.3-2.5 0-4.3-2.7-9.3-5.9-10.9-3.7-2-9.7-2-13.3-.1zm7.9 10.4c6.3 2.9 7.8 7.5 4.9 14.6l-1.5 3.4-9.7-3.9c-5.4-2.2-9.9-4.2-10.1-4.4-.9-.9 2.7-7.4 5.2-9.4 3.4-2.7 5.7-2.7 11.2-.3zm-39.2 42.2c-6 8.3-13.4 17.2-16.2 19.7-2.9 2.5-5.3 5-5.3 5.6s.5.5 1.2-.2c1.6-1.6 5.3-1.5 6.6.1 1.2 1.4 9.3 28.9 8.8 29.5-.8.7-28.7-14-29.3-15.4-.3-.8.3-2.4 1.2-3.4 4-4.4.5-2.5-6.7 3.6-4.2 3.5-8.2 6.4-8.8 6.4-1.3 0-22.4 12.2-22.8 13.2-.2.4-3.2 1.6-6.8 2.8-3.5 1.2-6.7 2.6-7.1 3.2-.4.7 0 .9 1 .5s2.8-.2 4.1.3c1.8.7 3.2 3.3 6.6 12.5 2.3 6.4 4.1 11.7 3.9 11.9s-7.7-4.1-16.6-9.5l-16.3-10-8.2 2.9c-4.6 1.6-11.1 3.3-14.5 3.7-6.4.7-8.7 2.5-3.3 2.5 1.8 0 3.3.7 3.9 1.7.5 1 1.9 9 3.2 17.8 2.2 15.6 2.2 16.1.4 19.8-2.1 4.4-5.9 6.7-11.2 6.7-5.4 0-7.9-2.1-9.2-7.7-1.9-8.3-5.2-32.6-4.6-34.4.3-1 2-2.1 3.6-2.4 1.7-.4 2.8-.9 2.5-1.2-.8-.8-25.6 2.9-25.6 3.9 0 .5.8.7 1.8.4 4-1.3 5 1.3 7.7 18.9 1.5 10 3.3 18.1 4.3 20 1 1.6 3.8 4 6.2 5.3 3.7 1.9 5.5 2.2 9.8 1.8 10.7-1.2 17.4-5.9 18.8-13.1.3-2-.4-10.7-1.7-19.9-1.9-13.7-2.1-16.7-1-18 1.8-2.1 6.4-2 8.4.2 1.8 1.9 13.7 34.3 13.7 37.2 0 1.9-2 4.5-4.2 5.3-.7.2-1.1.7-.7 1 .5.6 15.5-4.6 16.7-5.7.3-.3-1.1-.6-3-.6-2 0-4.1-.7-4.9-1.6-1.3-1.5-12.9-31.6-12.4-32.2.1-.1 10.4 5.9 23 13.3 12.5 7.5 22.9 13.4 23.1 13.2.3-.2-2.9-9.8-7.1-21.2-4.1-11.4-7.5-21.7-7.5-22.8 0-2.9 5.9-7.9 8.8-7.5 2 .2 4.3 3.6 12.8 18.6 5.7 10 10.4 18.6 10.4 19.2 0 .5-1 1.8-2.2 3-1.2 1.1-2 2.2-1.7 2.4.6.6 21.9-11.7 21.9-12.7 0-.4-.9-.3-2 .3-1.2.6-2.9.9-3.8.6-2.2-.7-22.4-36.1-22-38.4.2-.8 1.8-2 3.7-2.4 3.1-.8 5.3.1 26.6 10.9 12.9 6.5 23.6 11.5 23.9 11.2s-2.3-11.1-5.9-23.9c-3.6-12.9-6.5-24.5-6.5-25.8 0-3 1.7-6.2 3.3-6.2 1.5 0 32.4 22.7 34.5 25.3 1 1.2 1.1 2.1.3 3.6-.6 1.1-1.1 2.5-1.1 3.3 0 .7 5.8-6.6 12.9-16.2l13-17.5-5.7-5.7c-3.1-3.2-5.7-5.6-5.9-5.4s.6 2 1.8 4c1.7 2.9 2 4.8 1.7 8.5-.5 5.4-5.1 13.7-8 14.4-1.6.5-16.8-9.6-16.8-11.2 0-.4 1-1.7 2.3-2.8 2.1-1.9 2.5-2 7.2-.7 2.8.7 5.4 1.3 5.9 1.4.5 0-3.5-3.4-9-7.5-5.4-4.1-10.3-7.5-10.7-7.5s.4 1.7 1.8 3.7c1.4 2.1 2.5 4.6 2.5 5.6 0 2.4-1.8 5.7-3.1 5.7-1.4 0-15.9-11-15.9-12 0-.4 2.4-3.3 5.3-6.4 5.6-6 7.5-6.6 13.6-4.5 1.8.6 3.4.9 3.7.6.5-.5-8.8-7.5-10.9-8.2-.7-.3-6.1 6.4-12.2 14.6zm-374.8-10.3c-21.8 3.5-23 3.6-25.8 2-4-2.3-3.6-.8 1.7 7 4.1 5.9 5.1 6.3 2.9 1-.8-2 2.5-4.4 7.6-5.3 3.5-.6 3.5-.6 8.2 7l4.7 7.6-3 4.4c-3.4 4.9-4.4 5.3-7.2 2.8-3.6-3.2-2.5-.6 4.1 9.2 6.6 9.9 6.6 10 6.9 6.5.2-2.4 3.6-8.4 10.9-19.5 5.9-8.8 12.1-18.4 14-21.3l3.4-5.2-2.8.1c-1.5.1-13.1 1.7-25.6 3.7zm9.7 3.9c-.9 1.6-3.1 4.9-4.8 7.5s-3.4 4.8-3.7 4.8c-.8 0-7.9-10.7-7.9-11.8 0-.9 9.6-2.8 15.4-3.1l2.8-.1-1.8 2.7zm18.6 9.9c-2.8 2.9-3.7 4.4-2.5 3.9 7.6-2.8 11.8-2.2 15.8 2.2 1.8 2 1.5 2.3-13.3 16.4-8.3 7.9-15.8 14.8-16.6 15.2-.9.5-2.4.3-3.9-.7-4.5-3-3.6-1.6 5.2 7.9 8.3 8.9 12.4 12.3 8.9 7.3-.9-1.2-1.6-3-1.6-3.9s7-8.3 15.6-16.5l15.6-14.8 2.9 3.2c3.3 3.7 3.7 7.7 1.3 12.3-.8 1.7-1.4 3.3-1.2 3.5s2.7-1.7 5.6-4.2l5.2-4.6-15.2-15.9c-8.3-8.7-15.7-15.9-16.3-15.9s-3.1 2.1-5.5 4.6zm51.6 42.4c-5.7 1.8-9.6 7.3-9.6 13.6 0 3.5 2.4 9.1 8.4 19.4 1.4 2.5 2.6 5.7 2.6 7.2 0 3.7-3.5 6.8-7.8 6.8-4.5 0-9.6-5-11.2-10.9-1-4-.9-6.2.6-11.4.3-.9.2-1.7-.3-1.7-.8 0-3.1 3.3-7.7 11.2l-2.8 4.8 3-.6c2.5-.5 3.3 0 6.2 3.7 4.4 5.5 12.5 9.3 17.9 8.4 7.9-1.3 13.1-7.1 13.1-14.5 0-3.2-4.3-12.8-8.1-18.1-3.3-4.6-4.1-8-2.8-11.1 1.6-3.8 5.3-4.6 9.8-2.2 5 2.7 7.3 7.6 6.7 14.1-.2 2.9-.2 5.3.2 5.3s2-2.5 3.7-5.5c1.6-3 3.2-5.5 3.5-5.5 1.6 0 5 3.3 5 4.8-.1.9-3.6 10.2-7.8 20.7l-7.7 19h-3.8c-2 0-3.7.2-3.7.5s8.9 4 19.7 8.3c22 8.8 20 8.8 25.2-.6 3.3-5.7 3-7.5-.5-3.6-4.7 5.2-12.6 6.3-20.1 2.9-5.2-2.3-5.3-3.3-1.2-13.9 3-7.6 3.3-7.9 5.5-6.9 3.1 1.4 4.8 5.9 3.9 10.5-.4 2.5-.3 3.5.3 2.8 1.2-1.2 10.3-23.5 9.6-23.5-.3 0-2.2 1.8-4.3 4-3.7 4-6.3 4.8-9 3.1-1.2-.8-.8-2.5 2-10 1.9-5 3.9-9.1 4.4-9.1 2.1 0 11.1 4.8 13 6.9 1.2 1.4 2.2 4.3 2.5 7.4l.5 5.2 2.1-5.5c2.4-6.2 4.6-7.1 7.5-3 1.7 2.4 1.7 3-1.6 20.7-1.9 10.1-3.9 19.2-4.5 20.3-.7 1.4-2.1 2-4.2 2-5.1 0-2 1.7 5.3 2.9 9 1.5 9.9 1.4 6.2-.9-2.2-1.3-3.3-2.8-3.3-4.2 0-3.8 5.3-32.8 6.1-32.8.3 0 5.9 9.6 12.3 21.2 13.7 25 13.3 24.4 14.1 23.7.3-.3 2.3-10.4 4.5-22.4s4.5-22.4 5.1-23.1c.6-.8 2.2-1.4 3.5-1.4 5.1 0 2.1-1.9-4.8-3-4-.7-7.6-1.4-8-1.7-.5-.2-.8.1-.8.6 0 .6.6 1.1 1.3 1.1.8 0 2.2.9 3.2 2 1.8 2 1.8 2.4.1 12.8-1 5.9-2.2 11.6-2.6 12.6-.5 1.5-2.8-2.1-9.8-15.1l-9.2-17.1-6.8-1.2c-7.6-1.3-46.1-16.3-47.9-18.7-1-1.3-1.5-1.3-2.7-.4-1.2 1-2 .5-4.7-2.9-5.6-7-12.9-10-19.3-8zm-31 5.7c-1 1.4-1.4 2.8-1 3.2 3.6 3.1 13.5 10.3 13.7 10 .1-.2 1-1.3 2-2.5 1.7-2 1.5-2.2-4.6-7-8.3-6.7-7.9-6.5-10.1-3.7z"/></g></svg>