<svg version="1.0" xmlns="http://www.w3.org/2000/svg" width="933.333" height="933.333" viewBox="0 0 700 700" fill='#7c2e9a'><path d="M339.5 1.4c-4 .7-7.5.8-10.6.2-3.4-.7-6.8-.5-13.5.9-4.9.9-13.2 2.1-18.4 2.5-6.1.4-12.2 1.7-17.1 3.4-4.4 1.5-9.7 2.6-12.7 2.6-5 0-15.5 3.2-20.4 6.3-1.3.8-4.8 1.7-7.8 2-5.4.5-11.8 3.1-21 8.2-2.5 1.4-5.7 2.5-7.1 2.5-3.1 0-15.4 5.9-18.7 9-1.2 1.2-4.6 2.9-7.6 4-7.6 2.6-10.7 4.4-17.5 10-3.3 2.7-6.5 5-7.1 5-2.9 0-11.9 5.8-17.8 11.6-3.7 3.5-7.2 6.4-7.8 6.4-2.3 0-12.9 8.8-16.4 13.5-1.9 2.6-5.1 5.5-7 6.5-4 2-12.5 10.7-15.8 16.2-1.3 2-3.9 4.7-5.8 5.8-3.9 2.5-8.9 8.3-12.9 15.3-1.5 2.7-5.1 7.2-8 10-3.2 3.3-6.6 8.2-9.1 13.2-2.1 4.4-4.6 8.5-5.5 9.2-2.8 2.1-7.7 10.5-10.4 17.8-1.5 3.9-3.7 8.1-5 9.5-3.2 3.5-6.1 9.7-8.4 18-1.1 4-2.7 8-3.5 8.9-2.7 2.9-6.4 12.4-7.6 19.1-.6 3.6-2.5 9.2-4 12.5-2 4-3.4 9.4-4.4 16C9.8 273 8.2 280 7.1 283c-1.4 3.9-2 8-2.1 14.1 0 5.8-.6 9.9-1.7 12.5-3.3 7.9-3.3 70.4.1 80.9.9 2.7 1.6 8.4 1.6 12.5 0 5.6.8 9.7 2.9 16 1.6 4.6 2.7 9 2.4 9.6-.9 2.3 1.7 12.5 4.8 19.7 1.8 3.9 3.6 9.8 4 12.9.6 5.4 5.5 17.5 8.3 20.8.8.8 1.7 3.3 2 5.5 1 5.3 4.8 13.7 8.9 19.4 1.9 2.6 4.2 7.2 5.1 10.3 1.1 3.4 3.9 8.2 7.2 12.4 2.9 3.8 6.1 8.5 6.9 10.4 3.1 6.9 5.2 10.2 11.1 16.8 3.3 3.7 7.2 8.8 8.7 11.3 1.4 2.6 6 7.7 10 11.5 4.1 3.8 8.1 8.3 9 9.9 1.9 3.7 9.7 11.2 16 15.4 2.6 1.8 4.7 3.6 4.7 4.1 0 2.1 6.7 8.3 13.7 12.7 4.1 2.5 9.8 6.9 12.7 9.8 3 3 8.3 6.7 13.1 9.1 4.4 2.3 9.5 5.5 11.4 7.3 3.4 3.2 16.6 10.1 19.3 10.1.8 0 3.3 1.4 5.4 3.1 4.8 3.9 14.5 8.4 20.1 9.4 2.3.4 5.3 1.5 6.5 2.4 5.2 4.1 13.4 7.2 22.8 8.6 2.5.4 6.3 1.8 8.6 3.1 2.6 1.5 7.7 3 14.5 4 5.7.9 12.7 2.6 15.4 3.7 3.4 1.4 8.1 2.1 15 2.4 5.5.3 11.8 1.1 14.1 2 4 1.4 13.1 2 22.9 1.5 2.8-.1 8.2.3 12 .9 5.6.9 8.5.9 14.6-.3 4.8-.9 8.6-1.1 10.5-.6 3.6 1.1 15 .1 21.2-1.8 2.6-.7 7.9-1.4 11.9-1.4 5.3 0 9.5-.8 16.3-3 5-1.7 9.5-2.8 10-2.5 1.7 1.1 12.2-1.6 19-4.8 3.6-1.6 9.2-3.3 12.4-3.7 3.9-.6 9.2-2.4 15.2-5.4 5.1-2.5 9.9-4.6 10.8-4.6 3.2 0 13-4.4 19.2-8.6 3.5-2.4 7.6-4.6 9.1-5 4.7-1.1 11.6-5 17.4-9.6 3-2.5 8.5-5.8 12.2-7.6 4.7-2.2 8.8-5.1 13.3-9.7 3.6-3.6 7.1-6.5 7.8-6.5 2.3 0 12.9-8.7 16.6-13.6 1.9-2.5 5.1-5.4 7-6.4 4-2 11.3-9.5 15.4-15.6 1.4-2.2 4.6-5.4 6.9-7.1 2.6-1.8 6.4-6.2 9.5-10.9 2.8-4.4 7.6-10.4 10.5-13.5 3.3-3.4 6.9-8.6 9.3-13.5 2.1-4.3 4.6-8.4 5.5-9.1 2.7-2 7.7-10.4 10.4-17.7 1.4-3.8 3.7-8.3 5.1-9.9 3.6-4.2 6.1-9.5 8.2-17.4 1.1-3.7 3.1-8.6 4.6-10.7 2.8-4.1 5.9-13.1 7.1-20.6.4-2.5 1.5-5.9 2.5-7.5 2.6-4.3 4.1-9.6 5.6-19.4.7-4.7 2.2-11.1 3.3-14.1 1.4-3.9 2-8 2.1-14.1 0-5.8.6-9.9 1.7-12.5 3.3-7.9 3.3-70.4-.1-80.9-.9-2.8-1.6-8.4-1.6-12.5 0-5.6-.8-9.7-2.9-16-1.6-4.6-2.7-8.9-2.4-9.6.8-2.2-2.6-15.3-5.6-21.4-1.7-3.4-3.1-7.7-3.1-9.6 0-4.5-3.1-13.2-6.8-19.2-1.6-2.6-3.2-6.4-3.6-8.5-1-5.5-4.1-12.3-8.6-18.8-2.1-3.1-4.3-7.4-4.9-9.5-1.4-5.2-6-12.9-10.9-18.4-2.1-2.5-4.3-6-4.6-7.8-.8-3.5-8.1-13.8-12.5-17.4-1.5-1.3-4-4.7-5.5-7.5-2.6-4.7-14-17.3-15.8-17.3-.4 0-2.3-2.4-4.1-5.3-3.6-5.5-9.1-11-15.5-15.2-2.1-1.4-5.3-4.5-7-7-2-2.8-6.1-6.4-10.9-9.5-4.3-2.8-10.3-7.4-13.3-10.2-3.2-3.1-8.8-7-13.5-9.3-4.4-2.2-8.5-4.7-9.2-5.6-2-2.7-10.4-7.7-17.7-10.4-3.7-1.4-8.4-3.9-10.4-5.5-4.5-3.5-10.8-6.4-18.7-8.4-3.2-.9-6.5-2.2-7.4-3-3.1-2.8-12.6-6.5-19.3-7.6-3.6-.5-8.5-2.1-10.9-3.4-2.4-1.4-7.5-3-11.4-3.6-12.9-2.2-16-2.9-21.5-4.9-3.9-1.5-8-2-14.3-2.1-4.9 0-9.7-.5-10.9-1.1-3.4-1.8-14.1-2.9-20.9-2.1-4.1.5-8 .3-10.9-.5-5.6-1.4-12.7-1.4-20.5.1zm22.4 7.9c3.4 2.3 4.9 4.3 7.2 9.5 1.6 3.7 4 8.8 5.4 11.4L377 35h-6.8c-9.2 0-12.6-1.9-17.7-9.8-2.2-3.5-5.7-8.9-7.7-12-2.6-4-3.3-5.9-2.5-6.5.7-.4 4.4-.6 8.3-.5 5.8.3 7.9.8 11.3 3.1zm-33.6-1.2c5.3 1.4 9.8 5.8 13.7 13.1 1.8 3.5 4.2 7.6 5.3 9.1 1 1.6 1.7 3.1 1.4 3.4-.4.3-3.9.6-8 .7-8.5.1-12.1-1.7-17.2-8.7-1.7-2.2-5.1-6.9-7.7-10.4L311.1 9l2.7-.6c1.5-.3 3.2-.7 3.7-.9 2.1-.7 7.2-.4 10.8.6zm60.4 1.6c4.9 2.5 7.8 7 10.5 15.7 1.1 3.9 2.7 8.3 3.5 9.8l1.4 2.8h-5.6c-7.1 0-11.4-1.8-14.6-6.1-2-2.7-10.6-19-12.8-24.3-.7-1.6 13.5 0 17.6 2.1zm21.5 1.8c5.8.8 11.9 5 14.3 10.1 1 2.1 2.6 7.2 3.5 11.4.9 4.1 2.1 8.3 2.5 9.2.6 1.5.2 1.8-2.2 1.8-1.6 0-5.3-.7-8.1-1.5-6.6-2-9.2-5.4-14.4-18.7-2.2-5.7-4.4-10.8-4.9-11.4-1.2-1.5 0-2.4 2.5-1.9 1.2.2 4.2.7 6.8 1zm-106.1 1.7c2.6 1.5 5.7 4.8 9.4 10.4 3 4.6 5.9 8.6 6.5 8.9 3.5 2.2-4.7 5-12.5 4.2-4.9-.4-5.2-.7-15.2-11.3-5.7-6-10.3-11.2-10.3-11.6 0-1 7.2-2.6 12.9-2.7 3.8-.1 6.5.5 9.2 2.1zm136.7 5c4 1.2 9.8 6 11.7 9.8.7 1.4 1.9 6.4 2.5 11.1.6 4.6 1.4 9.5 1.7 10.8.6 2.3.4 2.4-3 1.8-5.7-.9-12.4-4.3-14.3-7.2-.9-1.4-3.2-7.6-5.1-13.8s-3.7-12-4-13c-.5-1.6-.1-1.8 3.3-1.2 2.2.4 5.4 1.1 7.2 1.7zm-164.6 1c2.3 1.3 6.8 5.9 10.8 10.9l6.9 8.7-6.4 1.7c-9.3 2.6-12.2 1.7-20.8-6.3-4-3.7-8.9-8.2-11-10l-3.8-3.2 3.3-1.4c5.8-2.4 6.2-2.4 11.7-2.5 3.8-.1 6.5.5 9.3 2.1zm-28.4 7.7c2 1.1 7.2 5.5 11.4 9.8l7.8 7.9-3.7 1.8c-2.1 1-6.1 2-9 2.3-6 .7-8.2-.5-20.6-10.4-4.3-3.5-8.3-6.3-8.9-6.3-2.3 0 1.6-2.8 6.7-4.9 6.4-2.5 11.6-2.6 16.3-.2zm219.4-.4c10.3 3.6 14.2 10.7 15.1 27.8.6 10.1 1 9.9-9.3 4.9-6.7-3.3-8.3-6.1-11-19.8-1.1-5.5-2.2-10.9-2.6-12.2-.8-2.7 1.2-2.9 7.8-.7zm30.4 12.8c3.8 2 7 5.4 8.5 9.2 1.2 3 1.9 26.5.8 26.5-.3 0-2.1-.5-4-1.1-5.2-1.8-9.9-5.8-11.6-9.7-1.2-2.8-4.1-22-4.3-27.9 0-1.3 5.1.1 10.6 3zm-275.4-1.2c2.3 1.2 6.4 4.2 9.2 6.8s6.2 5.5 7.5 6.4l2.5 1.6-6.8 3.2c-9.2 4.3-11.9 3.7-25.4-5.1-5.8-3.9-10.9-7-11.4-7-2.5 0-.1-2.2 5.4-4.9 7.4-3.7 13.1-4 19-1zM359 39.5c4.6 1.6 12 1.9 18.5.6 3.1-.6 4.9-.3 8 1.3 3.1 1.5 6.4 2.1 14.2 2.3 8.1.2 10.8.7 13.6 2.3 2.2 1.3 7.2 2.6 13.4 3.4 6.5.9 11 2 13.5 3.5 4.3 2.6 12.8 5.1 17.4 5.1 1.9 0 4.5 1.1 6.9 3 4.1 3.2 11.7 6.4 18.2 7.5 2.3.3 4.4 1.3 4.7 2.1.8 2.2 9.2 7.1 16.1 9.4 4.4 1.5 7.6 3.4 11.1 6.8 3.1 2.9 7.3 5.7 10.9 7.2 4.3 1.7 7.3 3.8 10.7 7.5 2.8 3.1 7.4 6.6 11.5 8.8 5 2.6 7.3 4.5 8.7 7.2 2.3 4.2 7.8 9.4 13.5 12.7 2.5 1.4 4.6 3.7 5.7 6 1.9 4.2 8.2 10.9 13.7 14.6 2 1.3 3.7 3.1 3.7 3.9 0 3.1 4.3 9.6 10 15.1 3.3 3.1 6 6.4 6 7.2 0 3 4.8 11.6 9.2 16.5 3 3.3 4.7 6.3 5.2 9 1 5 2.9 8.9 7.4 14.4 2.6 3.2 3.8 5.9 4.4 9.8.8 5.3 4.1 13 7.8 18.3.9 1.4 2 5.2 2.2 8.5.4 3.7 1.8 8.7 3.8 13 2.5 5.5 3.2 8.5 3.4 14 .1 4.9 1 9 2.8 13.5 2.3 5.5 2.6 7.5 2.1 13-.4 5.2-.1 7.9 1.9 13.7 1.7 5.2 2.2 7.8 1.5 9.5-1.2 3.1-1 15.4.3 19.8.8 2.7.6 5-.7 10.2-1.4 5.6-1.5 7.9-.6 14.2 1 7 .9 7.9-1.1 11.8-1.6 3.3-2.1 6.4-2.2 13.4-.2 7.3-.7 10-2.5 13.5-1.7 3.3-2.4 6.6-2.7 13.4-.4 7.6-.8 9.4-2.8 11.8-2.6 3.1-6.4 14.3-6.4 18.8 0 1.6-1.3 4.7-3 7-3.3 4.6-6.4 12.3-7.5 18.6-.3 2.3-1.3 4.4-2.1 4.7-2.3.9-7.3 9.6-9.4 16.4-1.4 4.4-2.9 7.1-5.1 8.9-3.6 3.1-7.2 8.5-9.6 14.5-1 2.5-4.3 6.8-7.8 10.3-3.3 3.3-7.4 8.6-9 11.7s-3.9 6.1-5 6.6c-3.8 1.8-8.4 6.3-12.5 12.4-2.8 4.3-5.3 6.7-7.9 7.9-4 1.8-11.1 8.5-13.9 13.1-.9 1.6-3.2 3.3-5.2 3.9-4.5 1.5-12.1 7.2-16 12.1-1.7 2.1-4 3.8-5.1 3.8-3.2 0-11.8 4.9-16.8 9.5-3.3 3.1-5.8 4.5-9 5-2.8.5-7.2 2.6-12.3 6.1-5.5 3.8-8.9 5.4-11.1 5.4-3.2 0-13.7 4.4-18.6 7.9-1.6 1.1-4.9 2-8.6 2.3-4.1.3-8.3 1.5-13 3.7-5.6 2.7-8.4 3.4-14 3.6-4.9.1-8.9.9-13.3 2.7-5.1 2.1-7.4 2.5-12 2.1-4.1-.4-8 .1-13.9 1.7-7.1 1.9-8.9 2-13.3 1.1-3.8-.8-6.9-.8-11.8.1-8.6 1.5-10.7 1.4-16.3-.2-3.5-1-6.6-1.1-12.5-.4-6.9.8-8.5.7-12.4-1-3.1-1.4-7.5-2.1-14-2.3-7-.3-10.5-.9-13.2-2.4-2.3-1.2-7.4-2.4-13-3-6.7-.7-10.3-1.7-12.8-3.3-4.3-2.8-8.9-4.3-16-5.2-3.8-.5-7-1.7-10.3-4-4.4-3-15.8-7.4-19.2-7.4-.7 0-2.8-1.4-4.6-3.1-3.9-3.6-10.7-7.2-16.8-8.9-2.7-.7-5.4-2.4-7.3-4.6-3.3-3.7-9.4-7.7-14.8-9.5-1.8-.7-6.1-4-9.4-7.4-3.4-3.4-8.5-7.3-11.4-8.7-3.7-1.9-6.2-4-8.5-7.5-2-2.9-5.8-6.5-9.9-9.3s-7.2-5.6-8-7.5c-1.5-3.7-10-12.8-14.5-15.6-1.8-1.1-3.3-2.7-3.3-3.5 0-3.1-4.2-9.5-9.8-15.1-4-4-6.2-7.1-7-10-1.2-4-8.1-14.4-11.5-17.2-.9-.7-1.7-2.2-1.7-3.2 0-3.8-4.2-12.8-7.9-17-3-3.5-3.9-5.5-4.4-9.6-.6-5-4-13-7.8-18.5-1.1-1.5-1.9-4.3-1.9-6.7 0-4.2-3.1-13.8-5.9-18-1-1.6-1.6-5.1-1.7-9.5-.2-4.7-1.1-9.4-2.7-14-2.1-5.7-2.5-8-2-13.5.4-5.3.1-8-1.9-13.8-1.7-5.2-2.2-7.8-1.5-9.5 1.3-3.3 1.1-13.5-.3-19.9-.9-4.1-1-6.1-.1-7.6 1.8-3.4 2.4-12.4 1.2-18.6-.9-5.1-.8-6.1 1.1-9.4 1.8-2.9 2.2-5.4 2.4-13.5.2-8 .7-10.8 2.6-14.6 1.7-3.5 2.4-6.9 2.6-13.2.3-6.7.8-8.9 2.3-10.6 2.8-3 5.8-11.3 6.5-18.1.5-4 1.4-6.6 2.9-8.3 3.3-3.6 5.2-7.8 7.1-15.6 1.3-5 2.7-8.1 5.4-11.1 3.3-3.8 8-13.6 8-16.7 0-.6 2.4-3.6 5.3-6.7 3.4-3.5 6.2-7.6 7.7-11.4 1.7-4.4 3.9-7.4 7.9-11.1 3.2-3 7-7.8 9-11.5 2.5-4.6 4.7-7.2 8-9.4 2.8-1.8 6.3-5.6 8.9-9.5 3-4.4 5.7-7.2 8.4-8.6 4.6-2.3 12-9.3 14.9-14 1.3-2.1 3-3.4 5.2-3.8 3.5-.7 10.7-6.1 15.6-11.7 1.9-2.3 4.3-3.9 6.4-4.3 3.9-.7 10.8-4.9 16.4-9.9 2.2-2 5.4-3.7 7.8-4.1 5.2-1 10.7-3.9 15.4-8.1 2.8-2.5 4.8-3.5 7.2-3.5 4.3 0 11.1-2.5 17.5-6.6 3.8-2.3 6.5-3.2 11-3.6 4-.3 8.2-1.5 12.9-3.7 5.6-2.7 8.4-3.4 14-3.6 4.6-.1 8.9-1 12.5-2.5 4.2-1.8 7.7-2.3 15-2.5 6-.1 11.1-.8 14-1.9 3.7-1.4 5.6-1.5 11.5-.7 5.3.8 8.4.7 13-.3 8.1-1.8 7.7-1.8 12.5-.1zM196.9 50.9c2 1.1 5.7 3.6 8.1 5.6s5.6 4.3 7.2 5.1c3.7 1.9 2.8 3.2-4.5 6.9-7 3.5-10.3 3.2-19.4-1.7-4.3-2.2-10-5.2-12.6-6.5-4.7-2.4-4.8-2.5-3.1-4.4 2.9-3.2 11.5-6.9 16.1-6.9 2.4 0 6.1.9 8.2 1.9zM522 52.2c9.2 5.6 11.6 11.3 10 22.8-.5 3.6-1 8.4-1 10.7 0 2.4-.2 4.3-.5 4.3-1 0-6.9-3.3-9.8-5.4-5-3.6-5.9-6.9-6.6-21.8-.7-15.9-.8-15.8 7.9-10.6zM180.9 70.8l10.2 6.1-5.7 3.8c-8.2 5.4-12.6 5.3-26.5-1-5.8-2.6-11.1-4.7-11.7-4.7-2.4 0-1.1-1.9 3.7-5.4 6.6-4.8 8.8-5.6 14.7-5.3 4.2.3 7 1.5 15.3 6.5zm364.2-3.9c11.2 7.2 12.8 11.8 9.7 28.3-2.1 11.1-2.3 11.6-4.3 10.6-5.2-2.7-10.5-8-11.5-11.6-1.1-3.9-.2-30.2 1-30.2.3 0 2.6 1.3 5.1 2.9zM157 86.4c5.2 2.6 9.5 5.2 9.5 5.8s-2.6 2.9-5.8 5.2c-7.3 5.1-9.8 5.1-24 .2-5.8-2-11.2-3.6-12.1-3.6-2.8 0-1.7-2.7 2.7-6.2 10.2-8.4 14.8-8.6 29.7-1.4zm415 1.3c8.3 8.2 8.6 10.3 3.4 29.8-1 3.8-1.9 7.2-2.1 7.4-.6 1-7.6-4.5-10.3-8.1-3.6-5-3.7-7.6-1.3-23.6 1.2-7.6 2.2-11.2 3.1-11.2.7 0 3.9 2.6 7.2 5.7zm-439.2 15.9c2.9 1.3 7.3 2.9 9.5 3.5l4.2 1.1-5.7 5.4c-7.6 7-10 7.4-23.8 4-6-1.4-12-2.6-13.4-2.6s-2.6-.4-2.6-.9 2.1-3.3 4.8-6.1c7.8-8.4 15.2-9.6 27-4.4zm461.4 4.1c3.3 3.4 5.8 9.2 5.8 13.2 0 1.7-1.9 8-4.2 14.1l-4.2 11.1-3.9-3.8c-2.1-2.1-4.7-5.5-5.8-7.5-1.7-3.3-1.8-4.6-.9-10 .5-3.5 1.7-8.8 2.5-11.8s1.5-6.7 1.5-8.1.3-2.9.6-3.2c.8-.8 4.9 2.1 8.6 6zm-482.5 15.8c4.3 1.4 9 2.5 10.6 2.5 1.5 0 2.7.4 2.7.8 0 1.4-5.3 8-8.3 10.3-3.9 3-9.5 3.4-20.2 1.5-4.9-.9-10.5-1.6-12.3-1.6-3.1 0-3.2-.1-2.1-2.2 2-3.8 11.5-12.6 14-13.1 5.1-.9 8.1-.6 15.6 1.8zm500 3.7c4.7 4.8 7.3 10.1 7.3 15 0 3.2-9.2 24-10.8 24.6-1.2.4-7-7.2-8.7-11.2-1.6-3.8-.6-9.5 3.9-22.1 1.4-3.9 2.6-7.8 2.6-8.8 0-2.6 1.2-2.1 5.7 2.5zM98.8 146l8.3 1.6-3.3 4.9c-6.1 8.8-6.8 9-24 8.8-8.3-.2-15.3-.5-15.5-.7-1.2-1.2 5.3-10.9 8.9-13.5 6.1-4.2 9.4-4.4 25.6-1.1zm531.4 4.8c8.5 11.1 8.2 14.4-3.2 34.6l-3.3 5.8-2.3-2.8c-4.3-5.2-6.7-11.2-6.1-15.2.2-2.1 2.5-8.5 5.1-14.4 2.5-5.8 4.6-11.1 4.6-11.7 0-2.2 1.6-1 5.2 3.7zM82.7 168.6l7.2.7-1.4 3.4c-4.5 10.7-7.9 12.5-25.8 13.2-15.5.7-15.1.9-11.3-6.7 4.4-8.6 11.2-12.7 19.6-11.7 2.5.3 7.7.8 11.7 1.1zm565.9 10.6c2.8 5.6 3.1 12.5.8 17.1-.9 1.8-4.2 6.7-7.3 11l-5.6 7.8-2.3-2.8c-3.4-4.2-5.5-10.7-4.8-14.5.3-1.8 2-6 3.7-9.3 1.8-3.3 4.5-8.6 6.1-11.8 3-5.7 3.1-5.8 5-4 1.1 1 3.1 3.9 4.4 6.5zM74.5 195c-1 4.3-5.9 11.3-9.2 13.2-2.1 1.3-7.5 2.4-16.4 3.3-7.3.9-13.3 1.4-13.5 1.2-.7-.7 4.7-12.2 6.8-14.4 4.7-5.1 8.5-6 22.6-5.9l10.3.1-.6 2.5zm586.4 8.2c2.3 4.4 3.1 7.5 3.1 11.2 0 5.7-1.4 8.5-8.1 16.1-2.5 2.7-5.5 6.3-6.6 7.8l-2.2 2.8-2.5-4.8c-5.2-10.4-4.7-13 5.2-28.2 3.4-5.1 6.2-9.7 6.2-10.2 0-2.6 2.2-.2 4.9 5.3zM61.8 220.7c-1.5 5.7-5.5 12.1-8.7 13.7-2.9 1.5-27.2 6.9-27.9 6.2-1.1-1.1 1.2-8.9 3.8-13 4.2-6.5 9.1-8.7 21.5-9.6 5.5-.4 10.5-.8 11.2-.9.8-.1.9.9.1 3.6zm610.9 10.4c2.6 6.3 2.9 11.6.9 16.2-.8 1.8-5.2 6.9-9.8 11.5l-8.5 8.3-2.1-5c-4.2-9.7-2.9-14.4 7.3-26.6 2.3-2.8 5-6.3 6-7.8s2.3-2.6 2.9-2.4 2.1 2.8 3.3 5.8zM51 248.4c-1.6 7.8-4.5 11.7-10.5 13.9-7.6 2.9-23.9 7.6-24.4 7.1-.9-.9 2.1-11 4.4-15 3.1-5.3 8.4-7.9 18.6-9.3 4.1-.6 8.6-1.4 10-1.9 1.3-.6 2.6-.8 2.7-.7.2.2-.1 2.8-.8 5.9zm630.3 9.4c1 2.3 1.7 6.6 1.7 9.6 0 5.9-2.6 10.7-8.3 15.4-1.8 1.5-5.3 4.6-7.8 6.9-2.5 2.4-4.9 4.3-5.2 4.3-.9 0-3.7-10-3.7-13.2 0-4.6 2.6-8.7 11.6-18 4.6-4.8 8.4-9.3 8.4-10 0-2 1.6.3 3.3 5zM43.6 274.1c-.9 6.3-3.7 12-6.9 14.2-2.3 1.5-24.8 10.7-26.2 10.7-.3 0-.3-2.1 0-4.8 1.5-11.7 6.4-18 15.8-20.6 2.8-.7 7.7-2.1 10.7-2.9s5.9-1.5 6.4-1.6c.5 0 .6 2.2.2 5zM688 286.5c1.7 6 .9 15.4-1.5 18.8-1.1 1.5-5.1 4.8-9 7.4-3.8 2.5-8 5.6-9.3 6.7-2.9 2.6-3.8 1.4-4.8-6-1-8.1.1-11 6.5-16.9 10-9.5 15.6-14.5 16.2-14.5.4 0 1.2 2 1.9 4.5zM38 300.9c0 2.6-.5 6.3-1.1 8.2-2.2 6.3-3.5 7.3-29.1 19.7-1.2.6-.9-8.4.4-13.5 1.7-7.1 6.7-11.4 16.9-14.6 4.6-1.5 9.1-3.2 9.9-3.7 2.6-1.7 3-1.1 3 3.9zm654.5 16.5c1.5 12-2.1 18.5-13.7 24.6-3.5 1.8-7.5 4.1-9 5.2-3.1 2.1-3.3 1.9-4.2-4.4-.9-6.2.7-11.7 4.4-15.3 4.5-4.4 20.4-16.2 21.2-15.8.4.2 1 2.8 1.3 5.7zM33.3 339.8c-1.4 2.9-4.4 5.3-14 11.3-6.7 4.3-12.4 7.5-12.7 7.1-.3-.3-.6-3.5-.6-7.1 0-11.6 3.9-16.7 17.1-22.1 3.8-1.6 7.9-3.6 9.1-4.5l2.3-1.5.3 6.5c.2 4.9-.2 7.6-1.5 10.3zm660.7 8.8c0 6.6-1.7 12.3-4.8 15.8-1.6 1.8-21.3 11.6-23.3 11.6-1.4 0-1-11.7.5-15.5.8-1.9 3.4-4.8 5.8-6.5 7.5-5.2 20.3-12.7 21.1-12.3.4.2.7 3.3.7 6.9zm-659.6 8c1.2 10.3-1.6 14.9-14.4 23.9-3 2.1-6.7 4.9-8.1 6.3-1.7 1.4-2.9 2-3.3 1.3-1.4-2.2-1.8-13.9-.7-17.4 1.6-4.7 7.4-9.8 16-14.1 3.8-2 7.2-4 7.6-4.6 1.3-2.2 2.3-.8 2.9 4.6zm658.4 21.3c-.6 7.7-3 13.4-7 16.4-1.4 1-7.3 3.6-13.1 5.6l-10.7 3.8v-4.5c0-6.1 1.8-11.7 4.6-14.3 2.2-2 23.7-13.5 25.8-13.8.5 0 .6 3 .4 6.8zm-657.5 2.5c1.2 3 1.9 10.8 1.3 13.8-.3 1.8-2.3 5.1-4.4 7.3-4.9 5.1-18.2 16.8-18.6 16.4-1.3-1.6-2.6-8.2-2.6-12.8 0-8 2.7-11.9 13.6-19.6 4.9-3.5 9.2-6.4 9.5-6.4.4-.1.9.5 1.2 1.3zm654.1 24.8c-2.2 15.5-5.9 19.1-23.4 23.1-3.6.9-7.4 1.9-8.4 2.3-1.8.7-1.9.4-1.3-4.4.8-6.8 4-12.8 8-14.9 4.6-2.4 23-10.1 24.5-10.2.9-.1 1.1 1 .6 4.1zm-648.9 6c2.1 7.1 1.9 10.7-.8 14.9-2.2 3.8-18.6 21.4-19.1 20.8-1.5-2-3.6-10-3.6-14 0-7.2 2.3-11.3 9.9-17.3 3.6-3 7.5-6.3 8.5-7.5 1.1-1.1 2.3-2.1 2.7-2.1.5 0 1.5 2.3 2.4 5.2zm643.1 23c-1 6.7-5.6 15-9.5 17.2-2.6 1.5-21 5.5-25.5 5.6-1.3 0 .2-7.7 2.4-12 2.6-5.1 4.9-6.6 15-9.6 4.7-1.4 10.1-3.2 12-3.9 5.9-2.2 6.3-2 5.6 2.7zM48.8 446.1c.4 4.1 0 5.3-3.2 10-5.5 8.2-13.8 18.4-15 18.4-1.6 0-5.5-10.4-5.6-14.8 0-6 2.2-9.7 11.1-18.5l8.4-8.2 1.9 4.2c1.1 2.4 2.1 6.4 2.4 8.9zm6.6 17.7c5.2 10.3 4.7 12.9-5.2 28.1-3.4 5.1-6.2 9.7-6.2 10.2 0 2.4-2 .3-4.9-5-2.4-4.5-3.1-7.1-3.1-11.4 0-4.9.4-6 4.3-11 5.7-7.5 12.1-15.6 12.4-15.6.2-.1 1.4 2.1 2.7 4.7zm619.6-3c0 4-3.4 11.6-6.9 15.1-3.9 4.2-8.7 5.5-23.8 6.5l-7.1.5 1-3.7c3-11.2 8.3-15.3 22.3-17.3 4.2-.5 8.7-1.4 9.8-1.9 3.4-1.4 4.7-1.1 4.7.8zM66.4 488.7c6 9.3 5.7 14-2 27.5-2.5 4.3-4.9 9-5.4 10.4-1 2.6-1.1 2.6-3.2.8-3.2-2.9-6.8-11.4-6.8-16.2 0-5.1 2.5-10.3 8.6-18.1 2.4-3.1 4.4-6.2 4.4-6.9 0-2.3 2-1.2 4.4 2.5zm596.7 3.4c-4.7 12.4-9.4 15.1-26.2 15.3-7.4 0-11.9-.3-11.9-.9.1-2 3.8-9.1 6.4-12.2 2-2.4 4-3.5 7.9-4.3 4.7-.9 17.4-2.5 23.4-2.9l2.3-.1-1.9 5.1zM83.2 518.9c2.7 5.9 2 10.1-3.6 22.6-2.5 5.5-4.6 10.6-4.6 11.3 0 2.5-2.5.6-6.3-4.9-6.5-9.4-6.3-15.3 1.1-27.5 2.7-4.4 5.1-8.8 5.5-9.9.7-1.8 1-1.7 3.3 1 1.4 1.7 3.4 5 4.6 7.4zm565.4 2c-3 5.7-7.9 9.9-13.3 11.2-3.8.9-25.3-.9-25.3-2.1 0-.3 1.5-3 3.3-6 4.9-8.2 7.5-9.3 23.6-10 9.9-.4 13.7-.2 13.9.7.2.6-.8 3.4-2.2 6.2zM96.5 538.1c5.7 7.8 5.9 11.4 1 25.4-1.9 5.5-3.5 10.8-3.5 11.7 0 2.7-1.2 2.2-5.7-2.5-4.7-4.7-7.3-10-7.3-14.8 0-2.5 9.7-25.8 10.8-25.9.1 0 2.2 2.7 4.7 6.1zm539.3 1.4c.7.6-2.9 6.5-6 10-6.1 7-11.6 7.9-28.1 4.7l-8.7-1.8 2.8-4.4c6-9.4 8-10.1 25.7-9.4 7.7.4 14.1.8 14.3.9zm-522.9 19.1c7.6 8.2 8.2 12.6 3.6 27.8-.8 2.7-1.5 6.6-1.5 8.8 0 2.1-.4 3.8-.9 3.8-1.9 0-10.5-8.7-12.2-12.5-2.7-5.8-2.4-9.4 1.6-19.6 1.9-5 3.5-10 3.5-11 0-2.9 1.4-2.3 5.9 2.7zm491.8 2.9c4.3.8 9 1.5 10.6 1.5 3.9 0 3.4 2-2 8-7.8 8.6-12.8 9.7-26 5.5-4.3-1.4-8.8-2.5-10-2.5-3 0-2.9-.9.5-5.3 6.6-8.8 11.5-10.1 26.9-7.2zm-472.6 16.7c6.2 4.8 8.1 9 7.6 16.3-.5 5.7-2.8 22.6-3.3 23.3-.6 1-6.5-3.2-10.1-7.1-4.8-5.2-6.1-9.9-4.6-16.7 2.6-11 4.9-19 5.5-19 .3 0 2.5 1.5 4.9 3.2zm456.1 5.4c5.7 1.5 10.4 2.8 10.6 2.9.8.7-8.7 9.9-11.9 11.5-4.9 2.6-8.6 2.5-15.7-.1-3.1-1.2-8.3-3.1-11.5-4.2l-5.8-2 3.8-4c6.3-6.6 9-7.9 15-7.3 2.9.4 9.9 1.8 15.5 3.2zM157 600.1c2.1 2 4 5 4.3 6.9.7 3.2-.2 29-1 29-.2 0-2.1-.9-4.2-1.9-4.7-2.5-10.9-9.2-11.7-12.8-.3-1.6-.7-3.4-1-4.1-.2-.7.6-6.4 1.8-12.6l2.2-11.5 3 1.7c1.6.9 4.6 3.3 6.6 5.3zm408 2.6c6.3 2.1 11.7 3.9 11.9 4 1 .7-7.6 8.6-11.3 10.5-5.6 2.9-11.2 1.9-23.4-4l-10.2-4.9 4.2-3.4c2.3-1.9 5.1-3.9 6.2-4.6 3.7-2.2 10.7-1.4 22.6 2.4zm-389 10.5c8.2 5 9.2 7.4 9.8 23.9l.5 14-2.9-.7c-4.2-1-10.5-5.4-13-9.1-2.8-4.2-3.7-10.4-2.4-17.8.5-3.3 1-7.7 1-9.8 0-2 .4-3.7.8-3.7s3.2 1.5 6.2 3.2zm361 5.3c3.6 1.5 8.9 3.7 11.7 4.9 2.9 1.1 5.3 2.4 5.3 2.7s-2.5 2.4-5.6 4.7c-9.5 7-15.1 6.9-27.7-.6-4.5-2.7-9.1-5.2-10.2-5.6-1.9-.7-1.8-.9 1-3.3 8.3-6.9 14.3-7.6 25.5-2.8zm-335 10.3c6.5 4 7.8 6.9 9.5 22.2.9 7.3 1.4 13.4 1.3 13.6-.8.8-12.4-4.8-14.9-7.2-4.1-4-5.3-8.5-5.3-21.2l-.1-11.3 2.5.6c1.4.3 4.5 1.8 7 3.3zm310.5 4.9c5 2.6 10.7 5.5 12.8 6.6 3.6 1.9 3.7 2 2.1 3.8-1 1.1-4.1 3.1-7.1 4.5-4.3 2.1-6.3 2.6-10.7 2.2-4.7-.4-6.5-1.3-14.9-7.3-7.3-5.2-9.4-7.2-8.6-8.1 1.9-2.3 11.2-6.4 14.4-6.4 1.7 0 7 2 12 4.7zm-281.9 9c3.6 2.7 5.3 6.9 7.8 19.5.8 4.2 1.8 8.9 2.2 10.4l.7 2.7-4.4-.7c-5.5-.9-12.1-4.7-14.8-8.5-2.5-3.4-3.8-9.7-4.4-20.8l-.5-8.1 5.1 1.5c2.8.8 6.5 2.6 8.3 4zm250.7.4c2.3 1.2 7.7 4.6 12 7.5 4.3 3 8.2 5.4 8.8 5.4 2.2 0 .6 1.7-4.1 4.3-3 1.7-7.3 3.1-10.3 3.4-6.6.7-11.1-1.4-19.4-9-3.2-3-6.6-5.8-7.6-6.4-1.7-.9-1.7-1.1.8-2.7 7.3-4.8 13.7-5.6 19.8-2.5zm-230 6.5c7.2 2.4 10.2 5.9 12.7 14.5 1.2 4.1 3 10 4.2 13.2 1.1 3.2 1.8 6.1 1.5 6.3-.9.9-11.4-1.9-15.4-4.2-5.1-3-7.8-8.3-9.3-18.4-.6-4.1-1.5-8.7-2-10.3-.8-2.4-.7-2.7 1.4-2.7 1.2 0 4.3.7 6.9 1.6zm206.3 5.5c3.2 2.3 7.6 5.7 9.7 7.6s4.9 3.9 6.2 4.5c3 1.3 2.5 2.3-2.4 4.8-6.1 3.1-13 3.6-18.2 1.3-4-1.8-18.6-15.5-18.9-17.7-.2-1.6 8.2-4.5 13.1-4.5 3.8-.1 5.6.6 10.5 4zM282.9 659c5.1 2.5 6.2 4.3 11 16.6 2.1 5.5 4.2 10.8 4.6 11.8.8 1.8.4 1.9-5.8 1.4-11.8-1-16.3-5.3-20.1-19.6-1.3-5-2.7-10-3.1-11.3-.7-2.1-.6-2.2 4.3-1.6 2.8.3 6.9 1.5 9.1 2.7zm141.7 0c1.5.6 6.1 4.3 10.3 8.4 4.2 4 8.9 8.2 10.4 9.4l2.9 2.1-3.9 1.7c-2.1.9-6.5 1.8-9.9 2.1-8.2.7-12.7-1.7-19-9.9-2.6-3.5-5.8-7.5-7.2-9l-2.4-2.7 4.8-1.5c5.9-1.8 10.3-2 14-.6zm-115.3 4.2c4.9 1.5 8.1 5.6 14.5 18.8 2.6 5.2 4.8 9.8 5 10.2.6 1.2-8.4.9-13.5-.4-7.6-1.9-11.3-6.5-15.4-19.1l-3.5-10.7h4.5c2.4 0 6.2.5 8.4 1.2zm98.4 11.4c5.6 6 10.3 11.2 10.3 11.5 0 1.1-8.6 2.9-13.5 2.9-7.6 0-12.7-3.9-19.7-15-1.9-3-4.3-6.2-5.2-7-1.7-1.3-1.6-1.5 1.5-2.7 1.9-.7 6.3-1.1 9.8-1l6.5.3 10.3 11zm-67.7-7.8c3.4 1.6 5.5 4.4 15.2 19.9 4.2 6.8 3.9 7.3-4.6 7.3-7 0-13.6-2.8-16.4-6.8-1.1-1.5-4-7.1-6.5-12.5l-4.6-9.7h6.7c4.4 0 7.9.6 10.2 1.8zm31.2 1.9c5.6 5.2 17.7 22.1 16.3 22.7-.8.3-4 .8-7.3 1.2-11 1.2-16.7-2.6-23.3-15.7-2.1-4.3-4.3-8-4.9-8.4-3.4-2.1 1.7-3.5 10.9-3 4.2.3 6 1 8.3 3.2z"/><path d="M399 63.5c-.8 1-3 1.4-7.6 1.2-7.1-.2-8.4.6-8.4 5.5 0 3.3.8 3.9 7.4 4.8l5.1.7-4.3.8c-5 .9-5.5 1.5-4.2 4.9.6 1.7 1.7 2.6 3.1 2.6 1.2 0 1.9.5 1.7 1.2-.3.8-2.7 1.4-6.1 1.6-4.4.2-6 .8-7.1 2.4-2.6 3.7.5 7.8 5.8 7.8 2 0 2.7.3 2 1-.6.6-3.9.4-9.5-.7-4.7-.9-9.3-1.4-10.2-1-2.7 1-3.3 5.6-1 7.9 1.7 1.6 4.5 2.2 16.9 3.3 14.9 1.3 20.4 2.5 20.4 4.5 0 2.1-3.5 2.3-11.4.7-12.6-2.6-20.6-2-20.6 1.7 0 2.8 3.6 4.6 9.6 4.7 3.2 0 8.4.8 11.4 1.7l5.5 1.8-.3 6.7c-.4 6.1-.2 6.7 1.6 6.7 2.4 0 3.6-1.4 5.1-6.2.7-2.1 1.6-4 2.1-4.3s2.8.4 5.1 1.5c3 1.6 6.2 2.2 11.8 2.3 7.1.2 7.6.1 7.9-2 .4-2.4-1.4-3.7-6.8-4.8-5.8-1.2-15-5.6-15-7.3 0-3 12.4.7 20 5.9 3.8 2.6 13.9 5.9 15.8 5.2.9-.3 2.9-1.7 4.4-3.1 2.2-2 2.5-2.9 1.7-4.4-1.3-2.5-6.8-5.8-9.5-5.8-4.1 0-15.4-4-15.4-5.5 0-2.2 1.2-2.4 5.8-1.2 3.6 1 4.5.9 5.9-.6 1.5-1.4 1.5-2 .5-3.5-.7-.9-1.5-2.4-1.8-3.2s-1.2-2.6-1.9-4c-1.1-2.1-1.1-2.8.1-4.4 2-2.9 1.7-4.5-1.1-5.6-1.4-.5-2.5-1.4-2.5-1.9 0-.6 2-.3 4.5.7 4.9 1.8 6.3 1.2 6.7-2.8.3-2.1-.5-2.9-4.9-5-4.8-2.2-5.3-2.8-5.3-5.7 0-2.1-.6-3.6-1.8-4.2-1.5-.8-2.3-.4-4.1 1.9-2.4 3.4-3.8 3.6-9.6 1.6-2.2-.8-5.3-1.7-6.8-2.1-1.7-.3-3.1-1.5-3.7-3-1.1-2.9-5-3.4-7-1zM413 77c4 1.2 6.7 2.7 5.9 3.4-.7.8-11.9-2-13.2-3.3-1.4-1.4 2.4-1.5 7.3-.1zm-5.5 9.2c.5.5-1.2 8.8-2.4 12-1 2.5-1.5 2.8-6 2.8-6.4 0-7.3-1.5-2.2-3.6 4.6-1.8 6-4.7 3.7-7.3-.9-1-1.6-2.6-1.6-3.6 0-1.5.6-1.7 4.1-1.2 2.2.3 4.2.7 4.4.9zm16.6 2.8c2.9 1.6 2.3 3.4-1.6 5.3-3.4 1.6-4.5 3.9-2.5 5.2 3.6 2.2-1.7 6.4-5.7 4.6-2.1-1-2.4-1.6-1.8-4.3.4-1.8 1.6-5.2 2.6-7.5 1.5-3.5 2.3-4.3 4.4-4.3 1.5 0 3.5.5 4.6 1zM262.5 72c-4.4 1.7-5 3.7-3.4 10.1l1.6 6-2.8 2c-1.6 1.1-6.1 3.5-10.1 5.3-5.2 2.4-7.7 4.1-8.6 6-1.7 3.9-1.5 4.9 1.6 7.8 4.6 4.3 5.7 4.2 11.7-1.2 6.1-5.6 11-8.4 13.1-7.6 1.9.7 1.9 10.1-.1 15.6-2.1 5.9-6.9 11.7-10.9 13-1.9.6-4.2 2-5.1 3-1.7 1.9-1.7 2.2.2 7.2 2 5.2 2.1 5.3 6.1 5.1 4.2-.2 8.9-2.1 11.6-4.8 2.5-2.5 5.7-14.2 6.4-23.5.8-10.1 1.8-10.7 8.6-6.1 2.5 1.7 4.7 3.1 5 3.1.2 0 4.2 2.2 8.7 5 7.3 4.4 8.9 5 13.8 5 8.8 0 14.9-4.1 17-11.7l.9-3.1-8.6-1.2c-10.6-1.4-25.7-5-33.4-8-4.3-1.6-5.8-2.7-5.8-4 0-2.5 1.9-3.4 11.3-5.5 6.8-1.5 7.9-2.1 9.3-4.7 1.6-3.2 1.4-6.1-.9-9.1-1.2-1.8-1.6-1.8-7.7-.2-3.6.9-9.3 3.2-12.8 5.1-8 4.5-9.6 4.1-11.3-3.3-1.5-6-2.2-6.7-5.4-5.3zm246.9 42.8c-.6.4-1.5 2.6-1.9 4.9-.6 4.1-.5 4.3 2.2 5.3 1.5.5 4.1 1.6 5.6 2.5 4.7 2.5 8.4 2 10.1-1.4 1.9-3.6 1-4.8-6.8-9-6.2-3.2-7.4-3.5-9.2-2.3zm-352.3 15.7c-4.3 5-3.9 7.9 1.2 8.3 3.1.3 3.7.7 3.7 2.7 0 1.9.6 2.4 3.3 2.7 2.8.3 3.4.8 4.5 4.5l1.3 4.1-8.8 10.7c-4.8 5.9-9.7 11.9-10.8 13.4-3.9 5.3-7.2 8.9-9.4 10-1.8 1-2.2 2-1.9 4.9.3 3.6.5 3.7 4.8 4.3 5.8.7 10.1 3 15 8.1 4.9 5 7.6 4.7 6.7-.8-.8-4.5-2.8-6.9-9.3-10.6-3.9-2.1-5.1-3.3-4.7-4.7.6-2.4 9.1-13.1 10.3-13.1.6 0 1 1.6 1 3.5 0 3.2.3 3.5 2.8 3.5 1.9-.1 3.3-1 4.7-3.3 2.4-3.8 4.9-4.2 5.3-.7.2 1.8-1 3.9-4.3 7.5-4.7 5-5.2 7-2.4 8.8 2.6 1.6 4.4.3 10.3-7.7 4.4-5.9 6.2-7.6 8.1-7.6 4.1 0 3.1 3.6-3 9.9-5.9 6.2-6.7 8.6-3.5 9.6 2.4.8 12.1-5.2 14.6-9 2.7-4.1 2.9-9 .5-12.8-2.7-4.4-2.7-7.7-.1-8.4 1.1-.3 2.9-2.1 4.1-3.9 2-3.2 2-3.6.5-5.9-2.2-3.3-4.3-3.1-6.4.6-3.8 6.8-3.9 6.8-6.1 1.6-1.3-3-2.6-4.7-3.8-4.7-2.8 0-7.6 3.9-11.7 9.6-3.9 5.4-6.6 7.4-6.6 5 0-1.7 15.5-20.2 18.6-22.3 3-1.9 6.5-.7 9.6 3.2 2.5 3.2 5.3 3.2 7.3.1 2-3 1-5.4-4-9.2-2-1.5-3.8-3.8-4.2-5.1-.5-2.3-.9-2.5-4.6-2-3.9.5-4.9 1.4-10.3 8.6-1 1.3-1.4 1-2.7-1.9-1.8-4.3-6.1-9-8.1-9-.8 0-2.1-1.2-2.8-2.8-2-4-4.9-3.9-8.7.3zm26.9 37.9c0 1.5-1.6 3-4.3 3.9-2.6 1-3.5-2.2-1.2-3.9 2.4-1.8 5.5-1.8 5.5 0zm312.6-39.8c-.3.9-.6 3-.6 4.7 0 4.3 2.5 5.8 7.6 4.7 2.3-.6 4.3-.5 5 .1s2.1.6 3.8-.1c3.3-1.2 3.8-6 .6-6-1.2 0-4.3-1.1-7-2.5-5.7-2.9-8.5-3.2-9.4-.9zm42.1 7.1c-.9.8-.9 5.6-.1 7.8.4.9 2.4 2.3 4.6 3.2 3.7 1.5 6.6 4.8 5.4 6.1-1.4 1.3-6.3-1.6-8.5-5.1-2.6-3.9-5.9-4.9-8-2.3-1.6 1.9 1 6.1 5 8.2 1.6.8 3.3 2.4 4 3.5 1 1.9.9 2-1.2 1.4-1.2-.4-6-3.4-10.6-6.7-8.6-6.1-12.4-7.1-13.1-3.5-.7 3.5.8 6.5 4.3 8.6 1.9 1.1 3.5 2.5 3.5 3.1 0 2-6.2 4.7-13.6 6-6.5 1.1-8 1.1-10.8-.2-2.9-1.5-3.5-1.4-5.9 0-4.3 2.6-3.2 7.7 2.4 11.1 2.4 1.5 4.4 1.8 9.4 1.3l6.3-.5 5.6 5.3c3.1 2.9 6.5 6.8 7.7 8.6l2 3.2-2.1 3.4c-2.5 4.1-2.5 5-.2 7.8 2.4 3 4 2.1 9-5.5 5.1-7.5 14-17.5 15.6-17.5 1.4 0 6.2 4.9 9.4 9.6 2.8 4.1 9.7 6.2 11.2 3.4.6-1 1-3.3 1-5 0-2.3-.6-3.3-2.3-3.9-3-1.2-20.9-20.5-19.5-21 .6-.2 2.9 1.5 5 3.8 4.3 4.6 7.4 5.3 8.7 1.9 1.1-3 .3-5.7-2.3-7s-7.6-5.9-7.6-7c0-.4.8-.8 1.8-.8 1.1 0 3.3 2 5.1 4.5 4.4 6.2 7.1 7.8 10.5 6.5 4.1-1.5 4.4-3.8.8-6.6-5.1-4-10.4-12-10-15.1.3-2.6.1-2.8-3.7-2.8-5-.1-10.5-2.9-10.5-5.4 0-2.6-6.3-4.5-8.3-2.4zm1.2 31.7c5.4 5.8 6.1 7.3 3.5 8.3-1.1.4-2.5-.4-4.3-2.5-1.4-1.7-3.8-3.6-5.4-4.1-3-1.2-4.2-3.2-3.3-5.6 1.1-2.8 4.3-1.5 9.5 3.9zm-14.5 4.9c1.3 2 .2 3.3-3.5 4.2s-4.9-2.2-1.7-4.7c2.6-2 3.7-1.9 5.2.5zM537 182c2.3 4.3-2 7.3-5.7 3.9-2.7-2.7-2.8-3.6-.7-6 1.9-2.1 4.6-1.2 6.4 2.1zm-49.9-42.2c-2.7.9-6 5.7-6.1 8.7 0 5.4 4.2 7.2 8.9 3.8 1.6-1 4.1-1.5 7.4-1.4 3.5.1 5.6-.4 6.8-1.5 2.6-2.4 2.4-4.3-.6-4.9-1.4-.3-3.7-.8-5.2-1.1-1.6-.3-3.5-1.1-4.3-1.8-1.9-1.6-5-2.4-6.9-1.8z"/><path d="M145.5 141c-.3.6-.3 1.9 0 3 .5 1.7 0 2.3-2.9 3.5-4.8 2-4.9 5.2-.2 6 2.2.5 3.7 1.5 4.5 3.1.6 1.3 1.7 2.4 2.5 2.4.9 0 3 1.3 4.8 2.9 3.9 3.3 5.8 3 5.8-1 0-2.5.6-3.3 3.6-4.5 4.1-1.7 4.4-4.7.4-5.2-1.4-.2-3-1-3.7-1.8-.6-.9-2.4-1.9-3.9-2.3-2.1-.5-3.1-1.6-3.8-3.9-.7-2.6-1.4-3.2-3.7-3.2-1.5 0-3.1.5-3.4 1zm10.5 12c0 1.3-.7 2-2 2-1.1 0-2-.2-2-.4s-.3-1.1-.6-2c-.5-1.2 0-1.6 2-1.6 1.9 0 2.6.5 2.6 2zm172.5-6.8c-2.2.5-6.7 1-10 1.2s-7.8 1.1-9.9 2-5.4 1.6-7.2 1.6c-1.9 0-6.2 1.1-9.6 2.5s-7.1 2.5-8.3 2.5-4.8 1.3-8.1 2.9c-3.2 1.6-7.7 3.4-9.9 4.1s-5.9 2.5-8.1 4c-2.3 1.5-5.7 3.3-7.6 3.9-2 .6-5.9 2.9-8.8 5.1-3 2.2-6 4-6.7 4-.8 0-3.5 1.9-6.1 4.3-2.6 2.3-6.5 5.5-8.7 6.9-6.6 4.4-33.5 31.5-33.5 33.8 0 .5-1.5 2.5-3.4 4.4s-4.7 5.8-6.2 8.7c-1.5 3-3.7 6.3-4.9 7.5-1.2 1.1-3 4.2-4 7-1.1 2.7-2.9 6.3-4.2 8s-3 5.3-3.9 8-2.6 7-3.9 9.5-2.7 6.5-3.1 9c-.4 2.4-1.6 6-2.6 8s-2.1 6.1-2.5 9c-.3 3-1 6.3-1.6 7.4-1.1 2-1.9 8.8-3.6 30-1.1 12.7-.6 33.1.9 37 .5 1.4 1 4.8 1 7.4 0 2.7.7 6.8 1.5 9.1s1.5 5.7 1.5 7.4 1.2 5.8 2.5 9.1c1.4 3.3 2.5 7.2 2.5 8.6 0 1.5 1.3 5.2 2.9 8.2s3.2 6.9 3.6 8.5c.3 1.7 2.1 5.5 4 8.6 1.8 3.1 3.8 7.1 4.4 8.9.7 1.9 2.7 5.2 4.5 7.3 1.9 2.2 4.1 5.7 5 7.9.9 2.1 3.7 6 6.1 8.6 2.5 2.7 4.5 5.4 4.5 6 0 1.5 6.8 8.6 25 26.3 2.5 2.4 5.9 5.2 7.5 6.2 1.7 1 4.6 3.2 6.5 5s5.5 4.2 8 5.5c2.5 1.2 5.6 3.2 7 4.5 3 2.6 9.9 6.4 11.8 6.4.8 0 2.7 1.1 4.3 2.5 1.6 1.3 5.5 3.2 8.7 4.2 3.1.9 6.7 2.5 8 3.4 1.3 1 4.9 2.3 8 2.9 3.1.7 7.3 2 9.2 3s6.2 2.1 9.5 2.5 6.8 1.2 7.9 1.7c3.1 1.7 26.7 4 40.6 4.1 14.4.1 38.3-2.3 43.5-4.3 1.7-.7 4.8-1.3 7.1-1.5 2.2-.1 6.1-1.1 8.5-2.2 2.5-1.1 6.1-2.3 8.2-2.7 2-.4 6.5-2 10-3.6 3.4-1.7 6.9-3 7.8-3 .8 0 4.5-1.8 8.1-3.9 3.6-2.2 7.7-4.3 9.1-4.6 1.4-.4 4.3-2.2 6.4-4s5.5-4 7.4-4.8c2-.8 5.9-3.5 8.8-6.1 2.8-2.5 5.7-4.6 6.3-4.6 2.1 0 30.5-28.4 32.7-32.7.6-1.2 3-4.3 5.2-6.9 2.3-2.6 4.8-6.4 5.7-8.3.9-2 3-5.2 4.7-7.3 1.7-2 3.9-5.9 4.9-8.7s2.2-5.4 2.7-5.7c1.4-.8 4.6-7.5 5.4-11.4.4-1.9 1.6-4.6 2.6-6s2.3-4.8 3-7.5c.6-2.8 2-7 3.1-9.4s2.2-6.7 2.5-9.5c.2-2.8 1.1-6.8 1.9-8.9.8-2 1.4-6 1.4-8.7s.5-6.1 1-7.6c1.7-4.4 1.9-39.8.4-47.4-.8-3.6-1.4-8.2-1.4-10.2s-.5-4.9-1.1-6.5c-.6-1.5-1.4-5.5-1.9-8.8-.4-3.3-1.7-8-2.8-10.5s-2.3-6.1-2.6-8.1c-.4-2-1.8-5.8-3.1-8.5-1.4-2.7-2.8-6.3-3.1-8.1-.3-1.7-2.1-5.4-3.9-8.2-1.8-2.7-3.8-6.5-4.5-8.5-.6-1.9-2.6-5.4-4.4-7.8s-4-5.9-5-7.9c-.9-2-3.5-5.4-5.6-7.7-2.2-2.3-4-4.5-4-5.1 0-1.4-18.5-21.4-21.9-23.6-1.7-1.1-3.4-2.8-3.7-3.8s-3.6-3.8-7.4-6.3c-3.7-2.4-7-4.9-7.3-5.6-.2-.8-2.9-2.7-5.8-4.2-3-1.6-6.7-4.1-8.4-5.4-1.6-1.4-5.4-3.6-8.3-4.8-2.8-1.3-6.9-3.5-9-4.8-2-1.3-5.5-2.9-7.7-3.6-2.2-.6-6.1-2.2-8.6-3.5s-6.5-2.7-9-3.1c-2.4-.4-5.9-1.5-7.8-2.5-1.8-1-5.9-2.1-9-2.5-3-.4-7-1.3-8.7-2-1.8-.8-6.4-1.6-10.3-1.8-3.9-.3-7.6-.8-8.2-1.2-1.7-1-39.8-1.2-44.4-.2zm27.6 3.3c2.1 1.1 4 3.7 6.3 8.5l3.2 6.9-2.2.5c-1.2.3-3.9 0-6-.7-3.2-1-4.5-2.4-8-8.2-2.3-3.9-3.9-7.3-3.7-7.8.7-1.3 7.3-.8 10.4.8zm-15.8 1.5c2.2 1.7 8.7 11.7 8.7 13.3 0 1-6.6 1.4-9.2.5-3.3-1.2-13.4-14.4-11.5-15.2 3.1-1.2 9.6-.5 12 1.4zm33.7.2c3.1 2.2 4.1 4 7.5 14.7.7 2.2.6 2.3-3.6 1.6-2.4-.4-5.2-1.5-6.3-2.4-1.6-1.4-8.6-14.1-8.6-15.6s8.1-.2 11 1.7zm-51.9.8c1.1.6 4 3.9 6.5 7.3 4.4 6.1 4.4 6.2 2.2 6.9-6.1 1.7-7.8 1-15.2-6.1-7-6.9-7.1-7-4.6-8 3.3-1.3 8.7-1.3 11.1-.1zm66.2.4c4.5 1.9 6.4 4.4 7.7 10.1.6 2.8 1.3 5.8 1.6 6.9.6 1.7.2 1.8-3.2 1.2-5.2-1-7.8-3.7-11.2-12.4l-3-7.2h2.4c1.4 0 3.9.6 5.7 1.4zm-77.1 8.8 5.8 6.3-4.7 1.4c-4.2 1.2-5.1 1.1-7.9-.4-1.7-.9-5.3-3.9-8-6.6l-4.8-4.8 2.5-1c1.3-.5 4.4-1 6.8-1 4.2-.1 4.8.3 10.3 6.1zm97.6-2.9c1.8 1.8 2.9 4.6 3.8 9.8.8 4 1.2 7.4.9 7.7-.9.9-9-2.8-10.1-4.6-.6-.9-1.9-4.3-2.8-7.4-.9-3.2-1.9-6.5-2.3-7.4-1-2.8 7.4-1.2 10.5 1.9zm-113.6 7.4c2.6 2.6 4.8 5.1 4.8 5.5 0 1.3-7.7 3.1-10.3 2.4-1.4-.3-4.9-2.6-7.8-5.1s-5.6-4.5-6.1-4.5c-.4 0-.8-.4-.8-1 0-.5 2.1-1.6 4.8-2.3 6.3-1.9 9.5-.8 15.4 5zm127.3-3.8c4.2 2.3 6.5 7.4 6.5 14.3 0 3.2-.2 5.8-.5 5.8-2.1 0-7.6-3.2-8.9-5.2-1.1-1.7-4.6-15-4.6-17.6 0-.6 4.5 1 7.5 2.7zm-148.9 5.4c2.9 1.7 10.4 8.2 10.4 9.1s-6.5 3.6-8.8 3.6c-1 0-5.3-2.2-9.7-5l-7.8-4.9 4.4-2.1c5-2.2 8.5-2.5 11.5-.7zm162.8.1c5.9 2.4 7.6 5.8 7.6 14.7 0 7-.2 7.8-1.7 7.2-4.2-1.4-8.1-5.3-8.6-8.5-1.2-7.1-1.9-14.8-1.3-14.8.4 0 2.1.6 4 1.4zm-80.9.8c4.6 2.1 2.6 4.1-5.8 5.9l-7.7 1.6v-3.2c0-3.1.2-3.3 5.3-4.2 2.8-.6 5.3-1.1 5.4-1.2.1 0 1.4.4 2.8 1.1zM339.3 213c-.1 24.5-.2 45.1-.2 45.7-.1.7-1.2 1.3-2.6 1.3-5.3 0-25.3 6.3-28.9 9.1-1.3 1-3.1 1.9-4 1.9-.8 0-3.1 1.3-4.9 3-1.9 1.6-3.9 3-4.5 3-.5 0-1.5.6-2.1 1.4-1 1.1-7.1-4.5-33.1-30.6l-32-31.9 2.3-3.1c1.2-1.6 4.2-4 6.7-5.3s5.5-3.6 6.7-5.3c1.2-1.6 3.4-3.2 5-3.5s4.9-2.2 7.3-4.1c2.5-2 6.2-4.1 8.2-4.6 2-.6 5-2.1 6.5-3.4s4.4-2.7 6.3-3.1 5.4-1.7 7.6-3c2.3-1.2 6.2-2.5 8.6-2.9 2.5-.4 6.1-1.6 8.1-2.6 2-1.1 5.5-2 7.7-2s5.7-.7 7.7-1.5c1.9-.8 6.1-1.5 9.2-1.6 3.1 0 6.5-.4 7.6-.9s3.1-.8 4.4-.7l2.5.2-.1 44.5zm31.4-43.9c.6.6 4.5 1.4 8.5 1.7 4 .2 8.5 1.1 10 1.8 1.5.8 4.4 1.4 6.5 1.4s6 1.1 8.7 2.5 6.5 2.5 8.4 2.5c2.2 0 4.5.9 6.4 2.5 1.6 1.4 4.7 2.8 6.9 3.1 2.2.4 5.6 2 7.6 3.5 2 1.6 5.4 3.4 7.7 4.1 2.3.6 5.1 2.4 6.3 3.8 1.2 1.5 4.5 3.7 7.2 4.9 2.8 1.2 5.5 3 6.1 4.1s3.2 3.2 5.8 4.7c4.5 2.6 6.2 4 6.2 5.5 0 .9-63.2 63.8-64.1 63.8-.5 0-2.8-1.5-5.1-3.3-2.4-1.7-7-4.5-10.3-6.1s-7.2-3.5-8.6-4.2c-3-1.6-9-3.2-17.8-4.8l-6.4-1.2-.1-44.9v-45l3.5-.6c5.3-1 5.4-1 6.6.2zm-107.3 9.3 6.8 4.5-4.1 2c-2.2 1.2-4.8 2.1-5.8 2.2-2 0-17.2-7.2-17.3-8.3-.1-1.4 6.7-4.6 10.1-4.7 2.7-.1 5.4 1.1 10.3 4.3zm93.2 4.4c-.8.9-3.7 1.9-6.3 2.2-2.6.4-5.6 1.1-6.5 1.5-1.6.6-1.8.1-1.8-3.4 0-4.6 1.3-5.7 8.1-6.7 2.4-.4 5.1-1 5.9-1.5 2.2-1.1 2.7 5.8.6 7.9zm96.3-6.9c5.2 2.7 6.6 6.3 5.7 14.8-.4 3.7-.9 6.9-1.1 7.1-.9.9-7.1-3.5-8.2-5.9-1.2-2.3-1.9-17.9-.8-17.9.3 0 2.3.9 4.4 1.9zm-204.1 11 6.3 3.8-2.6 1.7c-5.7 3.7-7.1 3.8-16 .3-4.7-1.7-8.5-3.5-8.5-3.9s1.7-1.9 3.7-3.3c5.3-3.6 9.5-3.2 17.1 1.4zm218.2-2.2c5 2.9 6.4 6.8 5.5 15.6-.4 4.9-1.1 7.7-1.9 7.7-.6 0-2.6-1.2-4.4-2.8-2.5-2.1-3.2-3.6-3.4-6.7-.3-6.3.1-15.5.8-15.5.3 0 1.9.8 3.4 1.7zm-109 4.7c0 4.3-1.2 5.2-9.3 6.9l-6.7 1.4v-3.8c0-4.4.5-4.9 7.9-6.5 8.2-1.8 8.1-1.8 8.1 2zm-123.1 7 6.4 3.3-3.9 2.6c-4.7 3.3-6.9 3.3-16.1.4l-7.3-2.3 3.3-3.1c5.6-5.3 8.7-5.5 17.6-.9zm247.9.7c1.8 1.8 3.5 4.2 3.8 5.6.8 3-2.6 16.3-4.1 16.3-1.3 0-4.8-3.6-6.3-6.5-1.3-2.6.6-18.5 2.3-18.5.6 0 2.6 1.4 4.3 3.1zM358 200.4c0 4.3-1 5-9.2 6.8l-6.8 1.5v-3.8c0-2.9.5-4.1 2.1-5 1.8-.9 8.3-2.4 12.7-2.8.7-.1 1.2 1.2 1.2 3.3zm-136.7 6.5 6.9 2.7-3.6 3.2c-4.3 3.7-6.9 4-17 1.4l-6.9-1.8 3.6-3.6c3.2-3.2 5.4-4.3 9.2-4.6.6-.1 4.1 1.2 7.8 2.7zm276.1 4.3c2.2 3.6 2 7.5-.7 14.8l-2.4 6.2-3.1-3.7c-3.7-4.2-4-7-1.5-16.6 1.7-6.7 1.7-6.7 3.9-5 1.2.9 2.9 2.8 3.8 4.3zM357 215.5c-.6.8-3.3 1.7-5.8 2.1-2.6.4-5.7 1.1-6.9 1.5-2.1.8-2.3.6-2.3-3.2 0-3.6.3-4.1 3.5-5.5 1.9-.7 4.7-1.4 6.2-1.4s3.5-.5 4.3-1c1.2-.8 1.6-.3 1.8 2.6.2 1.9-.2 4.2-.8 4.9zm-148 3.2c3.3.9 6 2.2 6 2.9 0 2.3-6 6.4-9.4 6.4-6.5 0-15.6-1.3-15.6-2.2 0-1.5 3.9-6.2 6.3-7.5 3-1.7 5.7-1.6 12.7.4zm17 1.7c0 1.4-1.1 3.7-2.4 5.3-1.2 1.5-3 4.1-3.7 5.6l-1.5 2.8-2.3-2.5-2.2-2.4 3.6-5c2-2.8 4.1-5.3 4.8-5.6 2.6-1 3.7-.5 3.7 1.8zm254.2 1c4.6 3.5 6.3 6 5.2 7.7-1 1.7-3.7.9-9.5-3-5.5-3.7-5.7-4-4.3-6 2.1-2.9 3.4-2.7 8.6 1.3zm28.7 2.7c2.8 4.9 2.7 6.2-1.2 14.3l-3.4 6.9-2.8-3.7c-3.4-4.4-3.4-6.9-.4-16.1 2.1-6.2 2.6-7.1 4.1-6.2.9.6 2.6 2.7 3.7 4.8zm-150.5-3.5c.3.9 0 2.8-.7 4.2-1 2.2-2.3 2.9-6.9 3.8-3.2.6-6.4 1.4-7.3 1.7-1.2.5-1.5-.2-1.5-3.2 0-4.8 1.2-5.8 8.1-7 7.7-1.3 7.6-1.3 8.3.5zm-126.7 3.6c1.3 1.2 2.3 2.8 2.3 3.6 0 1.5-6.9 13.2-7.8 13.2-1.2 0-5.2-4.4-5.2-5.8 0-.8 1.6-3.7 3.5-6.3 1.9-2.7 3.5-5.4 3.5-5.9 0-1.6 1.2-1.2 3.7 1.2zm243.2 4.2c2.7 1.9 5.6 3.6 6.3 3.9 1.6.7-3.6 5.7-5.9 5.7-.9 0-3-1.1-4.7-2.3-1.7-1.3-4.4-3.1-6-3.9l-3-1.5 2.7-2.7c3.4-3.4 4.5-3.3 10.6.8zm-116.5 7.2c-.6 2.4-.9 2.5-12.1 5.2l-4.3 1v-4c0-3.5.3-4 3.5-5.4 1.9-.7 4.7-1.4 6.2-1.4s3.5-.5 4.3-1c1.9-1.2 3.3 2.1 2.4 5.6zM204 233.4c0 .5-1.1 2.4-2.6 4.3l-2.5 3.3h-10c-5.4 0-9.9-.3-9.9-.8 0-2.2 5.4-8.2 7.8-8.8 1.5-.3 3.1-.7 3.5-.8 2-.4 13.7 1.9 13.7 2.8zm61.2 50.4 5.6 5.6c2.3 2.3 4.2 4.7 4.2 5.3 0 .5-1.7 3.4-3.8 6.4-6.6 9.4-11.7 21.8-14.2 34.4-.7 3.3-1.3 6.4-1.4 6.9-.1.6-79.8 1.2-89.2.7-1.5-.1-2.4-8.2-1.1-9.9.5-.7 1.2-4.5 1.5-8.5.2-3.9 1.1-8.4 1.8-9.9.8-1.5 1.4-4.6 1.4-6.9 0-2.4.8-5.5 2-7.4 1.1-1.8 2.3-5.4 2.7-8.1.3-2.9 1.6-6.1 2.9-7.7 1.3-1.5 2.6-4.4 3-6.5.3-2 2.1-6 4-8.7 1.8-2.8 3.7-6.4 4-8.2s1.7-3.9 2.9-4.7 3.4-3.7 4.7-6.4c1.4-2.7 4-6.5 6-8.4 1.9-1.9 4.2-5.1 5.1-7.1 1-1.9 2.3-3.7 2.9-3.9.9-.3 25.1 23 55 53zm-24.7-50.9c1.8 3.6.9 5.9-6.2 16-.7 1-5.3-4.4-5.3-6.1 0-2.4 7.1-12.7 8.7-12.8.7 0 1.9 1.3 2.8 2.9zm250.9.7c1.7 1.5 4.1 4.5 5.4 6.8s3.6 5.1 5.1 6.3c1.6 1.2 3.1 3.5 3.4 5 .3 1.6 2.1 4.8 3.9 7.3 1.9 2.5 4.2 6.6 5.2 9.2.9 2.5 2.3 5.2 3.1 5.8s2.1 3.6 3 6.6c.8 2.9 2.4 6.8 3.4 8.6s2.2 5.1 2.6 7.3c.4 2.1 1.5 5.6 2.6 7.7 1 2.1 1.9 5.8 1.9 8.3s.7 5.9 1.5 7.4c.8 1.6 1.4 5.3 1.4 8.3-.1 3 .5 7.3 1.2 9.6s1 4.5.7 4.8c-.9.8-89.3.8-90.7 0-.6-.4-1.1-2.2-1.1-3.9 0-8.3-11.8-35.9-17.9-42.1-2.2-2.1-2.8-1.3 13.8-17.8 16.2-16.1 28.5-28.5 30.2-30.4 1-1.1 2.8-2.8 4-4 1.3-1.1 3.1-2.7 3.9-3.6 7-7.3 9.5-9.8 9.8-9.8.2 0 1.8 1.2 3.6 2.6zm26.8 1.6c3.5 5 3.1 10.9-1.4 18.1l-3.6 5.8-2-2.8c-3.6-5.2-3.7-7-.1-15.9 1.9-4.6 3.7-8.4 4.1-8.4.3 0 1.7 1.5 3 3.2zm-53.9-1.1c1.2.7 3.4 2.2 4.9 3.5 1.5 1.2 3.3 2.4 4 2.7 1 .3.8 1-.6 2.5-3.3 3.7-5.3 3.7-11.6-.5-3.3-2.1-5.9-4.1-6-4.6 0-1.3 3.9-4.7 5.6-4.7.8 0 2.5.5 3.7 1.1zm-216.3 6c1.7 3.1 1.1 5.7-2.7 11.4l-3.7 5.5-2.3-2.2c-3.1-2.9-2.9-4.7 1.5-11.6 3.7-6 5.4-6.7 7.2-3.1zm110.3 6.2c-.5 2.8-.9 3-12.1 5.5l-4.3.9.3-4c.3-4.5 1.5-5.2 11.3-7.4 4.5-.9 5.7.3 4.8 5zm102.1-1.6c2.6 1.8 5.3 3.3 5.9 3.3s0 1.1-1.3 2.5c-3.2 3.4-6.4 3.1-12.6-1.1-4.6-3.2-5.1-3.9-4.1-5.5 1.3-2.1 4.8-3.9 6.2-3.1.6.3 3.2 2.1 5.9 3.9zm-266.7 1.6c.2.3-.3 1.9-1.2 3.7-2.2 4.2-6.8 6-15.5 6-6.9 0-7.1-.1-6.5-2.3.4-1.2 2.3-3.7 4.2-5.6 3.5-3.4 3.6-3.4 11-2.8 4.1.3 7.7.8 8 1zm61.7.9c2.3 3.3 2 5.4-2.1 11.9l-3.6 6-2.9-2.8c-1.5-1.5-2.8-3.1-2.8-3.6 0-1.3 8.3-13.7 9.2-13.7.4 0 1.4 1 2.2 2.2zm272.4 3.1c2.4 3.6 2.9 8.6 1.1 11.9-.6 1.1-2.6 4-4.5 6.5l-3.4 4.4-2-3.3c-1.1-1.8-2-4.4-2-5.7 0-2.3 6.9-17.1 8-17.1.3 0 1.5 1.5 2.8 3.3zm-74.4 2.4 5.6 3.7-2.2 2.3c-2.9 3.1-6.2 2.9-10.7-.5-2-1.6-4.5-3.4-5.5-3.9-1.8-1-1.8-1.2.8-3.7 3.1-3.2 4.2-3 12 2.1zM358 255v4h-8c-6.1 0-8-.3-8-1.4 0-2.2 2.1-3.4 7.5-4.1 2.8-.4 5.7-1.1 6.5-1.6s1.6-.9 1.8-.9c.1 0 .2 1.8.2 4zm-94.6.2c.9 1.2 1.6 3.1 1.6 4 0 1.5-5.4 10.5-7.6 12.7-.7.7-5.4-4.2-5.4-5.6 0-.7 1.6-3.6 3.5-6.4s3.5-5.5 3.5-6c0-1.7 2.9-.9 4.4 1.3zm181.6 5 6.2 4.2-2.6 2.3c-3.6 3.1-5 2.9-10.5-1.1-2.5-1.8-5.3-3.5-6.1-3.8-1.1-.3-.8-1.1 1.2-3.1 1.5-1.5 3.3-2.7 4.1-2.7s4.2 1.9 7.7 4.2zm-259.7 1.5c-2.4 6.6-6 8.6-17.5 9.6-6.3.6-6.6.2-4.3-4.3 2.8-5.5 6-7 14.6-7 7 0 7.8.2 7.2 1.7zm86 2.3c1.7 2.8 1.7 3.1.1 6.2-.9 1.8-2.7 4.6-3.8 6.3-1.2 1.6-2.2 3.2-2.4 3.4-.5.9-5.2-4.3-5.2-5.8 0-1.9 7.2-13 8.5-13.1.6 0 1.9 1.3 2.8 3zm80.5-1.4c1.8 1.2 5.2 7.2 5.2 9 0 .2-1.3.4-2.9.4-2.3 0-3.8-1-6.4-4.3-1.9-2.3-3.7-4.8-4.1-5.5-1.1-1.8 5.4-1.6 8.2.4zm10.1-.1c2 1 3.2 2.7 4.1 6 .7 2.5 1 4.8.7 5.2-1.7 1.6-6.7-2.2-9.1-6.9-1.4-2.7-2.6-5.2-2.6-5.4 0-.9 4.3-.3 6.9 1.1zm-20.2 1.4c1 1.1 2.6 3.3 3.6 5l1.8 3.1h-3.9c-3.5 0-4.4-.6-7.5-4.4-2-2.4-3.3-4.6-3-5 1.4-1.4 7.3-.5 9 1.3zm194.3 2.3c3 6.6 2.6 8.9-2.7 15.7-2.7 3.3-5.1 6-5.5 6.1-1.3 0-3.8-5.8-3.8-8.6 0-2.2 8.5-17.3 9.8-17.4.2 0 1.2 1.9 2.2 4.2zm-162.6-1.9c1 .7 2.4 3.6 3.1 6.3 1.2 4.6 1.1 4.9-.7 5.2-3.3.6-5.8-2.6-8.2-10.6-.6-1.8-.4-2.2 1.6-2.2 1.3 0 3.2.6 4.2 1.3zm-40.3 3.9c2.7 3 3.5 4.5 2.6 5-2.7 1.7-6.5.7-10.5-2.8-4.6-3.9-5.1-5-2.4-5.7 4.7-1.2 6.5-.6 10.3 3.5zm103.9-.5c3 2 5.7 3.8 5.9 4 .8.5-3.1 4.2-5.1 4.9-1.3.4-4-.9-8.4-3.8l-6.5-4.3 2.6-2.2c3.5-3.1 5.1-2.9 11.5 1.4zm-51.5 1.6c.8 1.2 1.5 4.3 1.5 6.9v4.9l-2.9-1.5c-3-1.6-4.6-4.7-5.7-10.8l-.6-3.8 3.1 1.1c1.7.6 3.8 2.1 4.6 3.2zM279 271.1c1.7 3.1 1.1 5.7-2.7 11.4l-3.7 5.5-2.3-2.2c-3.1-2.9-2.9-4.7 1.5-11.6 3.7-6 5.4-6.7 7.2-3.1zm43.8.4c3.1 2.9 3.4 3.6 2.2 4.5-2.6 1.7-5.5 1.1-10.4-2.2-4.5-2.9-4.7-3.3-3-4.5 3.2-2.3 7.2-1.6 11.2 2.2zm70.9.7c2.7 3 3.3 5.5 2.5 10.2l-.7 3.9-2.8-2.4c-2.3-1.9-2.9-3.5-3.4-8.2-.7-6.4.7-7.5 4.4-3.5zm36.2 3.7 6 3.8-2.3 2.2c-1.2 1.1-3.3 2.1-4.6 2.1-2.1 0-13-6.6-13-7.8 0-1.5 3.6-4.2 5.6-4.2 1.3 0 5 1.7 8.3 3.9zm-116.6.1c3.6 2.7 3.7 2.9 1.8 3.9-2.9 1.6-5.5 1.3-10.6-1.1-4.9-2.4-5.4-3.2-2.7-4.7 3.1-1.9 7.6-1.1 11.5 1.9zm53-.4c2.6.3 5 1.1 5.3 1.5.3.5 2 .9 3.8.9 1.9 0 3.9.7 4.6 1.5s3 2 5.1 2.6c2.1.7 4.6 2 5.5 3.1 1 1 2.3 1.8 3 1.8 2.1 0 16.3 13.2 20.9 19.5 2.7 3.7 6.1 9.4 7.5 12.5.7 1.4 2 4.3 3 6.5s2.3 6.5 3 9.5c1.6 7.4 2.8 23.8 1.8 25.3-.4.7-.8 2.7-.8 4.4 0 3.9-1.8 11.6-3.6 16-.8 1.7-1.4 4-1.4 5 0 1.1-.9 2.8-1.9 3.7-1.1 1-2.3 3.1-2.6 4.7-.4 1.6-1.1 2.9-1.5 2.9-.5 0-2.1 2-3.6 4.5-1.4 2.5-3 4.5-3.5 4.5s-1.9 1.6-3 3.5c-1.2 1.9-2.7 3.5-3.4 3.5s-2.5 1.3-3.8 3c-1.4 1.6-3 3-3.5 3s-2.6 1.3-4.7 3c-2.1 1.6-4.5 3-5.4 3s-2.7.9-4.1 2-3.3 2-4.3 2c-1.1 0-3.3.6-5 1.4-6.5 2.9-20.7 4.5-30.1 3.3-3.9-.4-8.2-.9-9.6-1-1.4-.2-3.5-.8-4.7-1.5s-3.5-1.2-5.1-1.2-3.5-.7-4.2-1.5-3-2-5.1-2.6c-2.1-.7-4.6-2-5.5-3.1-1-1-2.3-1.8-3-1.8-3.2 0-23.3-20.7-24.8-25.6-.4-1.2-1.5-2.9-2.6-3.9s-2-2.7-2-3.7-.8-3.3-1.7-5.1-1.6-3.7-1.5-4.4c.2-.7-.4-2.9-1.3-4.9-3.6-8.7-2.4-36 2-45.9 3.1-6.9 7.9-16.2 10.1-19.5 6.1-9.1 20.1-21.1 29.6-25.5 1.8-.8 4-1.9 4.8-2.4 4.1-2.4 15-4.9 23.8-5.5 2.9-.2 5.5-.5 5.7-.7.4-.5 9.2.4 17.8 1.7zM177 278.4c-1.6 4.9-4.9 7.2-12.5 8.5-3.6.6-7.1 1.4-7.9 1.7-1.3.5-1.3 0-.4-3.3 1.1-4.1 3.1-6.8 6.3-8.6 1.7-.9 14.4-2.6 15.3-2 .2.1-.1 1.8-.8 3.7zm227.4.8c1.9 2.7 2 4 .5 9.3l-1.1 3.9-3-3.3c-2.4-2.7-2.9-3.9-2.4-6.4.3-1.6.6-4 .6-5.4 0-2 .3-2.2 1.9-1.3 1.1.5 2.7 2 3.5 3.2zm-117.7-.1c1.5 2.5 1.4 2.7-4 8.1-3.9 3.9-5.9 5.2-6.6 4.5-.6-.6-1.1-1.6-1.1-2.1 0-1.6 8.4-13.6 9.3-13.3.5.1 1.6 1.4 2.4 2.8zm17.1 2.2c4 2.3 4 3.1.3 4.7-2.5 1-3.9.9-8.5-.7l-5.6-2 2.2-2c4-3.6 5.4-3.6 11.6 0zm117.8 1.9 6.6 4.2-2.8 2.4-2.7 2.4-5.8-5.8c-4.1-4.1-5.5-6-4.6-6.6 1.9-1.2 2.3-1.1 9.3 3.4zm122.1 2.1c.8 5.5-.2 8-5.8 13.6-2.8 2.8-5.2 5.1-5.4 5.1-.7 0-2.5-6.4-2.5-8.8 0-1.5 2.1-5.3 5.2-9.4 5.7-7.5 7.3-7.6 8.5-.5zm-132-1.1c2.8 3 3 4.4 1.4 10.1-1.5 5.1-2.8 5.5-5 1.6-1-1.8-1.2-4.1-.7-8.2.4-3.1 1.1-5.7 1.5-5.7s1.7 1 2.8 2.2zm-115.8 3.7 3.3 1.8-2.8 2.2c-1.8 1.4-3.6 2-4.9 1.7-1.1-.3-3.7-.9-5.7-1.2-2.1-.4-3.8-.9-3.8-1.2s1-1.6 2.2-2.9c2.6-2.8 6.9-3 11.7-.4zm-124.5 4.8c-1 4.4-3.2 7.3-6.7 8.8-4.5 1.9-13.8 4.7-14.3 4.2-.2-.2.3-2.7 1.1-5.5 1.8-5.8 4.5-7.8 12.4-9.2 8.1-1.4 8.2-1.3 7.5 1.7zm250.6 4.4c0 1.1-1 3.9-2.1 6.1l-2.1 4.2-2-2.4c-2.1-2.6-2-6.7.3-12.7l1.1-2.8 2.4 2.8c1.3 1.5 2.4 3.7 2.4 4.8zm-134.7-2c4.2 1.1 4.4 1.5 2 4.1-1.8 2-10.6 2.6-13.3.8-1.2-.7-1.1-1.3 1-3.4 2.6-2.8 4.6-3.1 10.3-1.5zm260.7 3.5c.6 1.4 1 4.3 1 6.4 0 4.1-2.9 8-9.9 12.9l-3.1 2.2-1-2.6c-1.3-3.4-1.2-6.5.3-9.2s9.9-12.1 11-12.2c.4-.1 1.2 1.1 1.7 2.5zm-120.6 3.9c1.9 4 1.6 5.7-1.8 10.4l-2.4 3.2-1.6-2.3c-.9-1.2-1.6-2.8-1.6-3.6 0-2 4.1-11.2 5-11.2.4 0 1.5 1.6 2.4 3.5zM283 303.9l2.5.7-2.7 2.7c-2.4 2.3-3.5 2.7-8.8 2.7-5.7 0-6-.1-5-1.9 2.6-4.9 6.9-6.2 14-4.2zm-116.4 6.5c-.8 4.4-3.7 6.8-12.3 10.4l-7.3 3v-3c0-4.3 2.8-9.7 5.9-11.3 1.5-.7 4.5-1.6 6.6-2 2.2-.4 4.7-1.1 5.5-1.6 1.9-1 2.4.3 1.6 4.5zm266 .3c2.3 3.1 1.6 6.9-2 11.1l-3.3 4.1-1.2-2.5c-.6-1.4-1.1-3.1-1.1-3.9 0-1.3 5.1-10.4 5.9-10.5.2 0 1 .8 1.7 1.7zM279 312.8c0 .2-.7 1.6-1.5 3.2-1.4 2.8-2.1 3.1-10.7 4.5-3.1.5-3.6.3-3.2-1.2 1.3-4.8 5.3-7.2 11.1-7 2.4.1 4.3.3 4.3.5zm273.5 5.6c.9 6.1-.8 9.2-8 14.2-5.8 4.1-6 4.2-6.7 2.1-1.9-6.6-1.1-8.7 5.9-15.2 3.7-3.5 7.1-6.1 7.5-5.9s1 2.4 1.3 4.8zm-115.1 2.8c1.2 4.8.6 7.1-3 10.4-3.9 3.8-5.4 3.7-5.4-.4 0-2.5 5.7-12.2 7.1-12.2.4 0 .9 1 1.3 2.2zm-273.9 4.5c-1 5.8-3 8-10.5 11.8-3.8 1.9-7.2 3.5-7.6 3.5s-.4-2.3-.2-5.1c.6-6.3 3.3-9.2 10.8-11.8 8.1-2.8 8.3-2.7 7.5 1.6zm110.5-2.4c0 2.8-3.3 5.6-8.2 7.1-2.9.8-5.4 1.3-5.6 1.1s.1-2 .8-3.9c.9-2.7 1.9-3.8 4.3-4.5 4.8-1.4 8.7-1.3 8.7.2zM441 335c0 3.3-.6 4.3-4.2 7.3-4.5 3.7-5.8 3.5-5.8-1.1 0-2.5 7.7-11.5 9.1-10.6.5.3.9 2.3.9 4.4zm114 2c0 5.3-2 8.1-8.5 12.2-3.3 2-6.3 3.7-6.6 3.7-.4.1-1-1.5-1.3-3.4-1-4.9 1.4-8.7 8.6-14 6.8-4.9 7.8-4.7 7.8 1.5zm-284-3.7c0 2.5-3.3 5.9-7.7 7.8-2.5 1-4.7 1.9-4.9 1.9-1.3 0-.1-6 1.5-7.4 3.3-3 11.1-4.6 11.1-2.3zm-109.1 8.4c0 2.1-.4 4.6-.8 5.7-.9 2.2-15.1 11.7-16.4 10.9-1.4-.8-.2-8.9 1.8-11.9.9-1.4 3.3-3.2 5.3-4s4.8-2 6.2-2.8c3.7-2.1 4-1.9 3.9 2.1zm281.1 3.7c0 1.8-.6 3.9-1.2 4.7-1.2 1.4-8.3 5.9-9.4 5.9-.2 0-.4-1.4-.4-3.1 0-2.4.9-4 3.8-6.5 2-1.8 4.2-3.7 4.7-4.2 1.6-1.5 2.5-.3 2.5 3.2zm-174-1.6c0 2.6-2.7 6-7.1 8.7-2.1 1.4-4.1 2.5-4.4 2.5-.7 0-.6-5.5.2-7.5.6-1.7 7.5-5.4 10.1-5.5.6 0 1.2.8 1.2 1.8zm-90.8 3.2c1.9 1.4 2.7 3.3 3.2 7 .4 2.8.9 5.7 1.2 6.5.5 1.2-.3 1.5-3.5 1.5-2.7 0-4.4-.5-4.7-1.4-1.1-2.9-3.2-14.1-2.7-14.9.8-1.3 4-.7 6.5 1.3zm9.7-.9c2.1.8 3.3 1.9 3.7 3.7.3 1.5.9 4.6 1.5 6.9.5 2.3.9 4.4.9 4.7s-1.8.6-4 .6c-4.6 0-5.1-.8-6.8-10-1.3-7.5-1-7.9 4.7-5.9zm13.5.9c.5.5 1.2 3.2 1.7 6 .4 2.8 1.1 6 1.4 7 .6 1.8.1 2-3.4 2-2.2 0-4.2-.4-4.5-.9-1-1.6-3.5-14.5-2.9-15.4s6.3.1 7.7 1.3zm10 .3c1.4 1.4 2.6 4.2 3 7.1.4 2.7 1 5.5 1.3 6.2.4 1-.4 1.4-2.8 1.4-1.9 0-3.9-.4-4.6-.8-1.3-.8-4.4-14.2-3.6-15.5.9-1.5 4.5-.6 6.7 1.6zm10.6-.5c1.3 1.1 2.5 3.6 3.1 6.7.5 2.8 1.2 5.8 1.5 6.7.4 1.5-.1 1.8-3.5 1.8-4.5 0-5.4-1.1-6.5-7.5-.4-2.2-.9-5.2-1.2-6.8-.5-2.4-.2-2.7 1.9-2.7 1.4 0 3.5.8 4.7 1.8zm11 0c1.3 1.1 2.5 3.6 3.1 6.7.5 2.8 1.2 5.8 1.5 6.7.4 1.5-.1 1.8-3.6 1.8-3.3 0-4.2-.4-4.9-2.3-1.3-3.2-3-13.1-2.4-14 .8-1.3 4-.7 6.3 1.1zm11 0c1.3 1.1 2.5 3.6 3.1 6.7.5 2.8 1.2 5.8 1.5 6.7.4 1.5-.1 1.8-3.5 1.8-2.2 0-4.3-.5-4.6-1.1-.7-1-3.5-13.5-3.5-15.1 0-1.5 4.8-.8 7 1zm9.7-1c1 .6 1.7 8 1.4 14.4-.1 2.1-2.6 2.4-3.7.6-1.1-1.7-3.3-14.1-2.8-15 .6-1 3.5-1 5.1 0zm205.8 1.2c.7.6 1.6 3.2 2 5.8.3 2.6.9 5.7 1.2 6.9.5 2.1.1 2.3-3 2.3-1.9 0-3.9-.6-4.4-1.3-1.3-1.6-4.2-14.5-3.4-15.3s6.1.4 7.6 1.6zm11.1.6c.7.8 1.5 3.6 1.9 6.2s1.1 5.5 1.6 6.4c.9 1.6.5 1.8-2.9 1.8-2.2 0-4.4-.6-4.9-1.3-1.3-1.6-4.2-14.5-3.4-15.3 1-1 6.5.5 7.7 2.2zm11-.5c.7.5 1.5 2.9 1.9 5.2.3 2.3.8 5.4 1.1 6.9.5 2.6.3 2.8-2.9 2.8-1.9 0-3.9-.6-4.5-1.3-1.3-1.6-4.1-14.5-3.3-15.3s6.1.4 7.7 1.7zm8.3-1c1.8.7 3.3 2 3.6 3.2 1.5 6.6 2.5 11.3 2.5 11.9 0 1.3-6.7.9-7.8-.5-1.8-2.1-4-14.6-2.8-15.1.6-.2 1.1-.5 1.2-.5.1-.1 1.5.4 3.3 1zm13.5.9c.7.7 3.4 11.6 3.6 14.2 0 1.3-6.7.9-7.8-.5-1.3-1.5-4.1-14.5-3.3-15.2.7-.7 6.3.5 7.5 1.5zm10.9-.1c.8.8 3.5 11.7 3.7 14.3 0 .5-1.8.8-4 .8-3.7 0-4-.2-4.9-3.8-2.5-8.8-3-11.6-2.4-12.5.6-1 6.3-.1 7.6 1.2zm11.3.6c.6.9 1.4 3.8 1.8 6.5.4 2.8.9 5.7 1.2 6.5.8 2.1-5.9 2.1-7.6 0-1.4-1.7-4-14.2-3.1-15.1 1-1 6.5.5 7.7 2.1zm8-1.7c1.5.9 2.7 9.5 1.9 13.2-.6 2.9-2.8 4-3.9 2.1-1-1.5-3.3-15-2.8-15.6.8-.7 3.5-.6 4.8.3zm-365.4 1.9c.9 1 1.9 4 2.3 6.7.3 2.7.9 5.5 1.2 6.2.4 1-.4 1.4-2.9 1.4-3.3 0-3.4-.1-4.4-5.8-.8-3.9-.8-6.4-.1-8 1.2-2.7 1.9-2.7 3.9-.5zm280.6 0c.5 1 1.3 3.6 1.6 5.8.4 2.2 1 5 1.3 6.2.5 2.1.1 2.3-3 2.3h-3.4l-.1-8c-.1-6.3.1-8 1.3-8 .8 0 1.8.8 2.3 1.7zm107.2 5.6c0 6-2.8 9.5-10.4 13.1l-7.1 3.4-.3-3.2c-.5-5.5 1.3-8.2 9-13.3 7.6-5.1 8.8-5.1 8.8 0zm-288 2.1c0 2.9-.8 4.1-4.9 7.6l-5 4.1-.7-3.6c-.5-3-.2-4.1 1.7-6.1s5.7-4.3 8.7-5.3c.1-.1.2 1.4.2 3.3zm174.1 5.4c-1 1.9-9.8 5.9-10.8 4.9-1.5-1.5 1.8-6.5 6.3-9.5l4.9-3.2.3 2.9c.2 1.7-.1 3.9-.7 4.9zm-281.1-.7c0 5.6-1.2 7.2-10.3 13.6-5.1 3.6-5.7 3.2-5.7-3.8 0-2.8.7-4.6 2.8-6.8 2.4-2.7 10.6-8 12.5-8.1.4 0 .7 2.3.7 5.1zm108 6c0 2.2-1.2 4.3-4.4 7.7l-4.4 4.7-.8-2.9c-1-4.1.6-7.7 4.5-10.3 4.4-3 5.1-2.9 5.1.8zm-13 1.2c.5 1.7 1 3.9 1 5 0 7.1 9.3 28.9 16.1 37.6l2.5 3.2-31.9 31.9-31.9 31.9-3.3-2.6c-1.8-1.4-4-4.3-4.9-6.4s-3.2-5.1-5-6.7-3.6-4-4-5.5c-.3-1.4-2.1-4.5-4-7-1.8-2.4-3.9-6-4.5-8-.7-1.9-2.5-5.3-4-7.4s-3-5.5-3.4-7.6c-.3-2.1-1.6-5.4-2.8-7.3-1.2-2-2.3-5-2.4-6.7-.1-1.8-1.1-5.4-2.3-8.1s-2.2-6.6-2.2-8.8c0-2.1-.7-5.5-1.5-7.5-.8-1.9-1.5-5.9-1.5-8.8 0-2.8-.5-6.6-1.1-8.4-2.1-6-4.2-5.8 45-5.8h45l1.1 3zm279 1.2c.3 2.2 0 5.4-.7 7.2s-1.3 5.4-1.3 8.1-.7 6.6-1.5 8.5c-.8 2-1.5 5.3-1.5 7.4s-1.1 6-2.5 8.7-2.5 6.2-2.5 7.8-1.1 4.5-2.4 6.6c-1.4 2-3 5.7-3.7 8.2s-2.5 6.1-4 8-3.1 4.8-3.5 6.5c-.3 1.6-1.9 4.3-3.5 6-1.5 1.6-3.7 5-4.8 7.5s-2.9 5.1-4.1 5.8c-1.1.7-3.6 3.7-5.6 6.7-1.9 3-3.9 5.5-4.3 5.5-.9 0-64.1-62.7-64.1-63.6 0-.2 1.5-2.6 3.4-5.2 6.6-9.5 13.2-25.4 15.6-37.7l1.2-6h89.3l.5 4zm-93-.7c0 3.7-2.4 5.8-8.4 7.6l-4.8 1.5.7-2.7c.9-3.7 2.4-5.2 7-7.3 5.4-2.4 5.5-2.3 5.5.9zm112.1 7.3c-.6 2-2.3 4.4-3.7 5.4-2.8 1.8-13.6 5.6-14.2 5-.2-.2-.1-2.1.3-4.3.8-4.9 3.5-7.6 11.7-11.6l6.3-3.1.3 2.5c.2 1.3-.1 4.1-.7 6.1zm-391.7-1.9c1.6 6.1.8 8.1-6 14.6-7.2 6.9-8.2 6.9-9.1.4-.7-5.2 1.4-8.6 8-13.4 6.3-4.4 6.3-4.4 7.1-1.6zm108.6 4.2c0 3-5.3 11.6-7.1 11.6-.8 0-1.9-3.7-1.9-6.8 0-2.4 6.7-9.5 8.2-8.6.4.3.8 2 .8 3.8zm168 3.6c-1.3 3.1-5.2 5-10.2 5-2.6 0-2.9-.3-2.3-2.3 1.1-3.4 2.8-4.7 8.1-6.1 5.4-1.4 6.2-.9 4.4 3.4zm-164.6 3.6c1 2.7.7 5.9-1 8.2-.8 1.2-2.1 3.4-2.9 4.8l-1.3 2.6-1.6-3c-2.3-4.4-2-6.2 1.5-10.5 3.4-4.1 4.4-4.5 5.3-2.1zm278.6 2.6c0 3.9-3 9.2-6.1 10.9-2.6 1.3-13.2 4-13.8 3.4-.2-.2 0-2.1.3-4.1.9-4.6 4-7.4 10.7-9.8 3-1 5.8-2.3 6.4-2.7 1.7-1.6 2.5-.9 2.5 2.3zm-388 3.9c1.6 5.8.8 7.7-5.8 14.7l-5.9 6.1-1.2-2.5c-.6-1.4-1.1-4.4-1.1-6.7 0-3.8.5-4.6 6.2-9.9 3.5-3.2 6.4-5.8 6.5-5.8s.7 1.9 1.3 4.1zm271.4-1.9c-.9 3.2-2.4 4.9-5.2 5.9-3 1.2-9.2.1-9.2-1.6 0-3 4.3-4.9 14.3-6.4.5 0 .5.9.1 2.1zM279.9 398c0 1.4-1 4.5-2.3 6.9l-2.3 4.4-1.6-2.4c-2.4-3.3-2.1-6.8.9-11.2 2.4-3.6 2.7-3.7 4-2 .7 1 1.3 2.9 1.3 4.3zm150.4 3.2c-2.1 3.6-5 4.5-11 3.3-3.9-.7-4.1-1.7-1.1-4.5 1.7-1.5 3.5-2 8.1-2h5.9l-1.9 3.2zm-144.7 8c-.3 2-1.1 4.9-1.7 6.5l-1.1 2.8-2.4-2.8c-3-3.5-3-4.8-.2-10.4l2.2-4.5 1.9 2.3c1.4 1.8 1.7 3.3 1.3 6.1zM549 404c0 3.8-2.8 8.9-5.8 10.4-2.7 1.4-14.3 3.8-15 3.1-.2-.2.2-2.2.9-4.5 1.5-5 3.5-6.5 12.1-8.9 8.2-2.4 7.8-2.4 7.8-.1zm-379 7.5c0 2.9-.7 4.3-7.7 13.4l-3.2 4.2-1.5-3c-.9-1.6-1.6-4.9-1.6-7.1 0-3.7.7-4.8 5.7-10.2l5.8-6 1.2 2.9c.7 1.5 1.2 4.2 1.3 5.8zm253.8-3.6 2.4.6-2.7 2.9c-2.4 2.6-3.1 2.8-7.1 2.2-6.9-.9-7.9-1.7-5.4-4.4 2.1-2.3 7.6-2.8 12.8-1.3zm-131.3 5.2c.9 2.7-.3 12.9-1.5 12.9-1.4 0-5-5.1-5-7.2 0-1 .5-3.6 1.2-5.7 1-3.3 1.5-3.8 3-3 .9.5 2 1.8 2.3 3zm125.4 3.6c.3.1-.6 1.4-1.9 2.8-2.7 2.9-5.4 3.1-11 .9-3.4-1.4-3.9-1.9-2.8-3.1 2-2.5 4.8-3 10.2-2 2.8.6 5.3 1.2 5.5 1.4zm6.1 1.4c0 1.9-1.1 4.5-2.8 6.8-1.6 2-3.2 4.5-3.6 5.5-.6 1.8-.8 1.8-3.1-.4-1.4-1.3-2.4-2.7-2.3-3.2.5-1.2 10.2-11.6 11.1-11.7.4-.1.7 1.3.7 3zm-141.3 3.1c2.9 2.9 5.3 5.6 5.3 6 0 2-5.4.4-10.4-3-5.3-3.7-5.4-4-4-6 .8-1.2 2-2.2 2.7-2.2.6 0 3.5 2.3 6.4 5.2zm17.8-1.1c1.4 2.6 1.8 12.9.5 12.9-.3 0-1.6-.7-2.8-1.6-3.6-2.5-4.3-4.7-3.1-10.3s2.9-5.9 5.4-1zm-124.5 8c0 1.4-2 5.7-4.7 9.7-5.2 7.8-6.4 8-8.4 1.2-1.6-5.2-.7-7.8 4.8-14.4l4.7-5.6 1.8 3.2c.9 1.8 1.7 4.5 1.8 5.9zm367.9-5.9c-2.1 7.6-6.9 10.6-16.8 10.7-5.3.1-5.3.1-4.6-2.7 1.3-5.4 5-7.9 14-9.8 8.9-1.7 8.5-1.8 7.4 1.8zm-113.8 0c2.7 3.3 2.3 5.4-1.6 10.9-1.9 2.7-3.5 5.4-3.5 6.1 0 .6-1.3-.1-3-1.7-1.6-1.6-3-3.4-3-4 0-1.2 7.9-13.5 8.7-13.5.3 0 1.3 1 2.4 2.2zm-25.4.5c2.9 1 5.3 2.1 5.3 2.5 0 1.3-5 4-7.4 4-1.4 0-4.1-1-6.2-2.2l-3.7-2.3 2.3-1.9c2.7-2.2 3-2.2 9.7-.1zm-127 4.5 6.4 4.3-2.6 2.2c-1.4 1.3-3.3 2.3-4.2 2.3-1.3 0-7.1-3.4-13.3-7.8-.7-.5 4.9-5.2 6.2-5.2.6 0 4 1.9 7.5 4.2zm31-2c1.8 1.7 2.3 3.2 2.3 7.5 0 5.9-1 6.6-4.7 3.1-1.8-1.7-2.3-3.2-2.3-7.5 0-5.9 1-6.6 4.7-3.1zm86.8 4c2.5 1.2 4.5 2.6 4.5 3.1 0 .4-1.6 1.5-3.6 2.3-3.6 1.5-3.8 1.5-8.5-1.8-4.4-2.9-4.7-3.4-3.2-4.6 2.5-1.8 5.6-1.5 10.8 1zM440 434c0 1.2-5.3 10.1-7.7 12.9-.6.8-5.3-4.2-5.3-5.7 0-.7 1.9-4.3 4.2-7.8l4.2-6.4 2.3 2.7c1.2 1.6 2.2 3.5 2.3 4.3zm-140.3.5c2.8 1.9 6.8 4.2 9 5.1 2.1 1 5.6 2.6 7.9 3.6 2.2 1 4.8 1.8 5.8 1.8.9 0 2.6.5 3.7 1 1 .6 4.5 1.4 7.6 1.8l5.7.7v44.3c.1 24.4-.2 44.9-.5 45.4-.4.7-2.8.8-6.5.4-3.3-.4-8.8-1-12.4-1.4s-7.4-1.3-8.5-1.9-4.5-1.4-7.5-1.8-6.4-1.4-7.5-2.1c-1.2-.8-4.5-1.8-7.4-2.4-2.9-.5-6.5-1.9-8-2.9-1.5-1.1-5-2.5-7.7-3.2-2.7-.6-6-2.2-7.4-3.5s-4.5-3-6.9-3.9c-2.4-.8-5.9-2.8-7.8-4.5-1.8-1.7-4.9-3.7-6.9-4.5-1.9-.8-4.6-2.8-6.1-4.5-1.4-1.7-4.3-4-6.5-5.1-2.1-1.1-4.2-2.7-4.5-3.5-.5-1.4 6.3-8.8 30-32.2l21.4-21.4c11.1-11.2 11.8-11.7 13.7-10.3 1.2.9 4.4 3.1 7.3 5zm18.8-4c1.4 1.3 2.5 3.3 2.5 4.3 0 1.1.3 3.4.6 5.1.6 3.1.6 3.1-2.4 2-4.2-1.4-4.9-2.5-5.4-8.7-.6-6 .7-6.8 4.7-2.7zm123.1 30 31.6 31.5-2.8 3.3c-1.6 1.9-4.3 3.9-6.1 4.6s-4.8 3-6.6 5.2c-1.9 2.1-4.3 3.9-5.3 3.9-2.1 0-5.4 1.9-9.4 5.5-1.4 1.3-3.9 2.6-5.6 3-1.8.3-4.9 1.9-7 3.5-2.2 1.6-4.8 3-6 3s-4.8 1.3-8 3c-3.2 1.6-7 3-8.4 3s-4.9 1.1-7.9 2.5-6.1 2.3-7.1 2c-.9-.3-3.8.2-6.6 1.1-2.7.9-7.9 1.7-11.6 1.9s-7.6.9-8.8 1.5c-1.1.6-2.8.9-3.8.6-1.6-.5-1.7-3.8-1.5-44.3.1-24.1.2-44.6.2-45.6.1-1.1.9-1.7 2.6-1.7 9.1 0 30.5-8.3 41-16 2.2-1.6 4.3-2.9 4.7-3 .4 0 15 14.2 32.4 31.5zm-171.7-25.8c3.3 2.1 5.9 4.2 5.7 4.7-.1.6-1.4 1.9-2.9 3-2.6 1.9-2.8 1.9-5.9.3-1.8-1-5-3-7.1-4.5l-3.9-2.7 2.7-2.2c1.4-1.3 3.2-2.3 4-2.3s4.1 1.7 7.4 3.7zm116.1-.3c5 3.1 5.2 3.4 3.2 4.5-4 2.1-8 1.3-12-2.4-3.1-2.9-3.4-3.6-2.2-4.5 2.6-1.7 5.4-1.1 11 2.4zm-57.8-1.1c.9.7 2.6 3.7 3.6 6.5l2 5.2h-2.7c-1.5 0-3.5-.6-4.5-1.3-1.5-1.1-3.5-6.9-3.6-10.5 0-1.6 3-1.5 5.2.1zm9.2 1.7c1.6.6 3.5 2.9 5.1 5.9 3 6.1 3 6.1.2 6.1-4.5 0-7.5-3.4-9.3-10.5-.7-2.7.1-3 4-1.5zm37.7 3c3.7 3.3 4.1 4.1 2.9 5-1.8 1.2-6 1.3-7.8.2-.6-.5-2.3-2.3-3.7-4.2-1.9-2.5-2.2-3.6-1.2-4.2 2.6-1.6 5.6-.7 9.8 3.2zm-193.7.4c.9 1.9 1.6 4.4 1.6 5.6 0 2.6-6.8 16-8.1 16-1.7 0-4.9-6.5-4.9-10 0-2.6 1.1-5.1 4.2-9.3 2.3-3.1 4.5-5.7 4.9-5.7s1.4 1.5 2.3 3.4zm264.6.1c2.3 3.8 2.4 3.6-2.8 11.3l-3.6 5.3-2.4-2.5c-3-2.9-2.6-5.6 1.8-11.1 1.6-2.1 3-4.4 3-5.1 0-2.4 1.8-1.5 4 2.1zm90.5 1.9c-2.9 6-4.8 7.1-14.1 7.5l-8.4.3 1.1-3c1.9-5.4 4.9-7.2 14-8.5 4.6-.7 8.5-.9 8.7-.5s-.4 2.3-1.3 4.2zm-185.2-1.9c1.2 1.4 3.1 3.9 4.1 5.5l1.7 3h-3.4c-4.3 0-7.2-2.3-9.2-7.3L343 436h2.9c1.9 0 3.9.9 5.4 2.5zm13.1 1.9c2 2.3 3.6 4.6 3.6 5 0 .8-7.2.7-8.6-.2-.6-.4-2.3-2.6-3.8-5L353 436h3.9c3.5 0 4.4.6 7.5 4.4zm-102.2 2.3c3.2 2.1 5.8 4.1 5.8 4.4s-.9 1.4-2 2.4c-2.6 2.3-6.6 2.2-9.3-.2-1.2-1.1-3.7-2.8-5.4-3.9l-3.3-1.8 2.2-2.3c3-3.2 5.2-2.9 12 1.4zm191.2 2.5c2.4 3.4 1.9 6.3-2.1 12.3l-3.7 5.5-2.3-2.2c-1.3-1.2-2.3-3.1-2.3-4.2 0-2 6.9-13.5 8.2-13.6.4 0 1.4 1 2.2 2.2zm-199.1 5.2 6.7 4.4-2.6 2.1c-3.6 2.8-6.4 2.6-10.7-.7-1.9-1.5-4.3-3.2-5.3-3.9-1.8-1.2-1.8-1.4.9-3.8 1.5-1.4 3.1-2.5 3.6-2.5.4 0 3.7 2 7.4 4.4zm-64.7 2.5c3 4.6 2.7 7.4-1.2 15.3-1.3 2.6-2.4 5.5-2.4 6.4 0 1.5-.2 1.5-2.1-.2-2.8-2.6-4.9-6.7-4.9-9.9 0-2.3 6.5-15.5 7.6-15.5.2 0 1.5 1.8 3 3.9zm168.4-2.4c0 1.9-2.5 3.1-8 3.8-2.5.3-5.4.9-6.3 1.3-1.4.5-1.7 0-1.7-3V449h8c6.4 0 8 .3 8 1.5zm103.4 2.7c2.4 3.4 2 5.5-2.3 11.9l-3.9 5.8-2.6-2.8c-1.4-1.5-2.6-3.1-2.6-3.6 0-1.4 8.1-13.5 9.1-13.5.4 0 1.5 1 2.3 2.2zM529 455c-.7 1.7-2.6 4.2-4.2 5.5-3.1 2.6-5.5 2.9-14.5 1.9l-5.2-.7 1.3-2.6c2.8-5.4 5.2-6.6 14.4-7.1 4.8-.3 8.9-.4 9.1-.3s-.2 1.6-.9 3.3zm-282.3 3.2 6.4 4.3-2.6 2.2c-1.4 1.3-3.4 2.3-4.3 2.3-1.3 0-6.9-3.3-13.1-7.7-.8-.6 4.3-5.3 5.7-5.3.9 0 4.4 1.9 7.9 4.2zm111.3.7c0 4.6-.2 4.8-7.2 6.1-2.9.6-6.1 1.3-7 1.6-1.5.4-1.8-.1-1.8-2.8 0-1.8.4-3.9.9-4.7.7-1.1 7-2.8 14.4-4 .4 0 .7 1.7.7 3.8zm113 5.7c0 2-1.7 5.2-4.6 8.6-1.2 1.5-2.4 3.3-2.7 4-.5 1.6-5.7-2.8-5.7-4.9 0-.7 1.9-4.3 4.2-7.9l4.2-6.6 2.3 2.7c1.3 1.4 2.3 3.3 2.3 4.1zm-232.9.9c2.7 1.9 5.4 3.5 6 3.5 1.7 0 .5 2.2-2.4 4.4-2.6 1.9-2.8 1.9-5.9.3-4.6-2.5-9.7-6.1-9.8-6.9 0-1.2 4.3-4.8 5.8-4.8.8 0 3.7 1.6 6.3 3.5zm-37.1 6.9c0 1.8-1 6.5-2.3 10.5l-2.3 7.1-2.6-2.8c-3.1-3.2-4.8-6.4-4.8-8.8 0-1 1.4-4.9 3.2-8.7l3.2-6.9 2.8 3.1c1.9 2.1 2.8 4.2 2.8 6.5zm157-2.5c0 4.6-.2 4.8-7.2 6.1-2.9.6-6.1 1.3-7 1.6-1.5.4-1.8-.1-1.8-2.8 0-1.8.4-3.9.9-4.7.7-1.1 7-2.8 14.4-4 .4 0 .7 1.7.7 3.8zm119.3-.1c1.8 3.1 1.8 3.3 0 6-1 1.6-2.9 4.5-4.2 6.6l-2.4 3.7-2.3-2.2c-3.2-3-3-5 1.1-11 1.9-2.8 3.5-5.6 3.5-6.1 0-1.9 2.5-.1 4.3 3zm37.5-3.2 6.1.7-1.4 2.7c-2.1 4.1-6.3 7-10.1 7-4.1 0-13.4-2.1-13.4-3 0-1.4 4.3-6.2 6.4-7 2.7-1.1 4.8-1.2 12.4-.4zm-283.9 6.9c2.6 1.9 5.4 3.5 6.1 3.5 1.9 0-2.7 4.7-5.1 5.3-1.2.3-3.8-.7-6.8-2.7-2.7-1.8-5.6-3.6-6.6-4-1.7-.6-1.6-.8.5-3.1 3.2-3.4 6.1-3.1 11.9 1zm253.7 3c1.5 2.3 1.4 2.6-1.2 6.2-4.9 6.6-8.6 8.9-9.7 5.9-.6-1.4 7.1-14.5 8.5-14.6.4 0 1.5 1.1 2.4 2.5zm-274.4 4c1 1.1 1.8 3.5 1.8 5.3 0 4.1-3 16.2-4 16.2-.4 0-2.2-1.6-3.9-3.5-3.8-4.3-4-8.3-1-16.7 2.3-6.2 2.9-6.4 7.1-1.3zm13.1.9 6.7 4.4-2.5 2.1-2.6 2-4.5-3.2c-6.3-4.5-8.4-9-4.4-9.6.3-.1 3.6 1.9 7.3 4.3zm134.7-.5c0 4.6-.2 4.8-7.2 6.1-2.9.6-6.1 1.3-7 1.6-1.5.4-1.8-.1-1.8-2.8 0-1.8.4-3.9.9-4.7.7-1.1 8.3-3.2 14.4-4 .4-.1.7 1.7.7 3.8zm144.3-.7c4.2.6 7.7 1.5 7.7 1.9 0 1.9-6.3 7.8-8.8 8.4-1.5.3-5-.1-7.7-1-2.8-.8-6-1.5-7.2-1.5-3.3 0-2.9-1.3 1.7-5.4s4-4 14.3-2.4zm-280.4 12.1c2.6 2.8 2.7 4.1 1.6 14.4-.5 4.7-1.2 7.3-2 7.3-.7 0-2.9-1.8-5-4.1-4.1-4.5-4.2-6-1.4-16.6 1.5-5.6 2.3-5.8 6.8-1zm136.1-1.1c0 4.9-1 5.8-8 6.9-3.5.5-6.7 1.2-7.2 1.5-1.1.7-1-5.7.1-7.5.7-1.1 7-2.8 14.4-4 .4 0 .7 1.4.7 3.1zm132.3 1.7c4.3 1 8 2.1 8.3 2.3.2.3-1.4 2.2-3.7 4.3-3.6 3.3-4.6 3.6-8.3 3.2-5.9-.6-14.3-4-13.8-5.5s7.2-6.2 8.7-6.2c.5.1 4.5.9 8.8 1.9zm-255.6 10.3c2.3 2.4 2.8 5.4 2.5 15.6l-.2 6.3-2.9-1.6c-6.7-3.4-8.3-8.6-6-19.4 1.2-5.6 2.1-5.7 6.6-.9zm123.8-2.3c1.1 3.6-1.1 6.9-5.2 7.6-2.1.3-5.5 1-7.5 1.4l-3.8.9V507c0-4.5.5-4.9 7.9-6.6 7.7-1.7 7.9-1.6 8.6.5zm118.8 3.8 8.8 2.6-2.8 2.9c-1.5 1.6-4.3 3.3-6.3 3.9-3.1.9-4.3.7-10.8-2.3l-7.2-3.4 2.2-2.1c2.2-1.9 5.7-4.2 6.8-4.3.3 0 4.5 1.2 9.3 2.7zm-227.9 9.2c1.6 1.7 2.1 4.1 2.4 11.1.3 5.5.1 9-.5 9-1.9 0-7.7-4.5-9.2-7.1-1-1.9-1.2-4.3-.7-10.2l.8-7.7 2.6 1.4c1.5.8 3.6 2.4 4.6 3.5zm109.1-1.9c.6 1.8-1.6 7-2.9 7-1.2 0-10.4 2-11.8 2.5-1.5.6-1.8.1-1.8-3.3 0-4.8.7-5.3 8-6.8 7.8-1.6 7.8-1.6 8.5.6zm107.4 3.9 6 2.8-2.2 2c-5.9 5.4-9.1 5.5-18.1.4l-6.8-3.9 3.8-2.6c4.7-3.3 8.2-3 17.3 1.3zm-206.1 3.5c5.1 2.6 6.4 5 7.3 13.7.5 4.5.8 8.4.5 8.6-.8.8-8.5-3.7-10-5.9-1.1-1.6-1.6-4.6-1.6-10 0-4.3.2-7.8.5-7.8.4 0 1.8.6 3.3 1.4zm190.5 5.6c6.3 3.4 6.6 3.8 5 5.3-2.2 1.9-6.7 3.7-9.5 3.7-2.4 0-14.8-7.7-14.8-9.2s8.3-4.8 10.5-4.1c1.1.3 5 2.2 8.8 4.3zm-91.9-2.4c.3.8.3 2.6 0 4-.6 2.4-1.8 2.9-12.1 5.2l-4.3 1V529c0-4.5.5-4.9 7.9-6.6 7.6-1.6 7.8-1.6 8.5.2zm-81.5 5.3c4 2.1 4.7 3.5 7 15.5l.9 4.8-3-.6c-4.7-.9-8.6-4.3-9.8-8.4-1.3-4.8-1.3-13.2 0-13.2.6 0 2.8.9 4.9 1.9zm157 4.3c3.6 2.3 6.8 4.4 7.1 4.6.9.7-4.4 4-7.3 4.6-3.6.7-8-1.2-13.9-6.2l-4.7-4 3.2-1.6c5.1-2.5 8.5-2 15.6 2.6zm-139.2 2.3c1.5 1 3 4.1 4.7 9.7 1.4 4.5 2.4 8.4 2.1 8.6-.2.2-2.1.1-4.1-.2-6.4-1.2-8.8-5.1-10.9-17l-.6-3.9 3.2.7c1.8.3 4.3 1.3 5.6 2.1zm63.3.9c0 3.3 0 3.3-5.5 4-5.6.6-10.5 0-10.5-1.4 0-.4.8-1.4 1.8-2.3 1.5-1.4 4.6-2.2 13.5-3.6.4 0 .7 1.4.7 3.3zm58.8 2.6c2 1.6 4.8 3.9 6.2 4.9l2.5 2-3.7 1.5c-6.6 2.8-9.3 2.2-15.6-3.6-3.1-2.9-5.9-5.4-6.1-5.6-1-.6 2-2.5 5.1-3.1 4.1-.9 6.8 0 11.6 3.9zm-107.2.2c2 .9 3.7 3.5 6.6 9.7 2.1 4.6 3.7 8.6 3.5 8.8-.3.2-2.3.1-4.7-.3-6.4-1-9.5-4.2-11.4-11.8-.9-3.6-1.6-6.8-1.6-7.1 0-1 4.9-.5 7.6.7zm91.9 6 6.8 6.2-2.9 1.3c-6.9 2.9-12.4.9-17.8-6.7-2-2.7-3.6-5.2-3.6-5.4 0-.6 3.7-1.3 7.6-1.5 2.5-.1 4.4 1.1 9.9 6.1zm-73.6-2.3c1.8 1 9.6 15.9 8.8 16.8-.3.3-2.6.2-5.1-.1-5.6-.9-9-4.1-11.2-10.9-.9-2.9-1.9-5.8-2.2-6.6-.4-1.1.3-1.3 3.8-.7 2.3.4 5 1.1 5.9 1.5zm56.8 5.8c7 7.4 6.9 8.3-1 8.3-6.4 0-8-1-12.6-8-4.3-6.5-4.2-6.8 2.9-6.9 4.3-.1 4.8.2 10.7 6.6zm-39.5-3.7c2 1.5 9.8 13.1 9.8 14.5 0 1-5.1 1.3-8.1.5-4.5-1.3-7.1-4.1-10.3-11.3l-2.5-5.7h4.3c2.8 0 5.2.7 6.8 2zm15.2-1c2.1.8 11.4 11.3 12.4 14 .6 1.8-8.4 2.2-11.5.6-3.9-2-11-13.5-9.1-14.7 1.7-1.2 5.1-1.1 8.2.1z"/><path d="M301 187.4c-8.4 3-34.8 16.2-37.7 18.9-3.1 2.7-2.9 4.1 1.1 10.1 3.2 4.9 8.6 14.5 13.1 23.1 1.4 2.8 2.1 6.5 2.3 12.2.3 5.8.9 8.6 1.9 9.5 1.2 1 1.7.9 2.8-.5 5.1-7 .5-25.7-9.9-40.2-2-2.7-3.6-5.9-3.6-7.1 0-2.1 2.9-5.3 6.7-7.3 4.9-2.5 7.2-.1 3.3 3.4-3.3 3-2.8 5.2 3.3 14.5 2.8 4.1 3 4.2 7.2 3.7 4.1-.4 4.4-.3 4.7 2.2.2 2.1.9 2.7 3.8 3.1 1.9.3 3.5 1 3.5 1.7 0 .6-1.6 2.2-3.5 3.5-3.8 2.6-4.4 4.5-2 6.1 1.2.7 2.6.2 5.4-1.7 2.1-1.4 5-2.6 6.3-2.6 2.2 0 2.4.4 2.1 3.7-.2 3.1-.9 4.1-3.5 5.4-7.2 3.6-8.3 6.8-3.2 9.4 2.7 1.5 3.3 1.5 5.4.1 1.3-.8 3.7-3.6 5.4-6.1 2.5-3.7 3.1-5.6 3.1-10 0-5 .2-5.6 3-7 1.6-.8 3.8-1.5 4.9-1.5 2.1 0 4.1-2.7 4.1-5.4 0-1.1-1.4-1.6-5.7-1.8l-5.8-.3-.3-4.8c-.2-3.2-.8-4.7-1.7-4.7-2 0-2.4-2.3-2.3-12.8.1-5.1-.2-9.5-.5-9.9-.4-.3-5.3 1.3-11.1 3.6-11.6 4.6-11.6 4.6-11.6 2.8 0-1.3 11.4-7.7 13.8-7.7 1.7 0 7.5-3 8.4-4.3 1.2-2-.4-3.7-3.6-3.7-1.7 0-6 1.1-9.6 2.4zm6.3 17.1c-.1.5-.9 1.1-1.8 1.3-.8.2-4.6 2.1-8.3 4.3-3.6 2.1-7.5 3.9-8.4 3.9-2.9 0-2.1-2.7 1.8-5.6 5.3-4.1 17.3-6.9 16.7-3.9zm2.2 7.4c-1.7 1.6-13.6 8.1-16 8.7-4.8 1.2-3.2-1.6 3.3-5.4 4.3-2.7 7.9-4.1 10.2-4.2 2.1 0 3 .4 2.5.9zm2.1 8.6c-.7 1.8-4.7 1.7-5.3-.1-.5-1.4 3.9-3.4 5.1-2.4.5.5.6 1.6.2 2.5zm2.4 5.9c0 1.6-2.7 2.9-4.2 2-.7-.5-.4-1.2.7-2.1 2.4-1.7 3.5-1.7 3.5.1zm94.4-31.3c-4.2 3.7-5.1 4-8.3 3.4-7.5-1.4-12.9-1.1-15.8 1.1-2.3 1.7-2.9 3.2-3.6 8-.4 3.2-1.4 8.8-2.1 12.4s-1.1 8.4-.9 10.6c.3 2.4 0 4.4-.6 4.8-4.1 2.6 2.6 17 8.4 18.1 1.6.4 5.9 1.5 9.5 2.5s8.6 2.1 11.1 2.5c4.1.5 5 .2 9.1-2.9 3.8-2.9 4.7-4.3 5.3-7.8.4-2.4 1.5-5.2 2.4-6.3 1-1.1 2.3-3.4 3-5.2s2.1-3.5 3.1-3.8c1.2-.4 2.1-2 2.5-4.5.4-2.2 1.1-4.2 1.6-4.6.5-.3.9-2 .9-3.8 0-5.6-8.6-15.6-13.4-15.6-5 0-8.2-5-5.7-8.9 1-1.5.4-4.1-.9-4.1-.5 0-3 1.8-5.6 4.1zm-6 11.3c1.8.8 4.4 1.2 5.8.9 1.6-.3 4.6.8 8.9 3.3 8.1 4.7 9.9 6.2 9.9 8.7 0 1.8-.5 1.9-5.9 1.4-3.7-.3-7-1.3-8.7-2.5-1.8-1.3-5.8-2.5-10.6-3.1-12.1-1.7-15.8-4.2-11.6-8.1 2.6-2.4 7.4-2.6 12.2-.6zm-3.9 16.6c2 1.1 5.4 2 7.6 2s5 .5 6.2 1.1c1.2.7 3.3 1.2 4.8 1.1 1.5 0 3.5.8 4.4 1.8 1.4 1.5 1.4 2.1.3 3.9-2 3.3-4.4 3.4-10.5.6-3.2-1.4-8.4-2.8-11.7-3.1-6.4-.5-14.6-4-14.6-6.1 0-3.5 8.1-4.3 13.5-1.3zm-1.5 14c3 .4 7.5 1.3 10 1.9s5.5 1.3 6.8 1.6c1.6.4 2.2 1.3 2.2 3.1 0 4.3-2.7 7.2-7.3 7.9-4 .6-9.1-1-20.8-6.5-3.2-1.4-5.2-5.4-4.3-8.2.5-1.7 1.1-1.9 4.3-1.3 2 .4 6.1 1.1 9.1 1.5zm-195.1 27.2c-.9.7-2.1 3.1-2.7 5.3-.6 2.3-2.7 5.9-4.5 8-2.8 3.3-3.7 5.8-5.6 14.5-2.1 10-2.1 10.5-.4 11.8 1 .7 2.4 1.1 3.2 1 1.6-.3 6.9-13.7 7-17.8.1-1.7.4-2.1 1.2-1.3s.7 3.2-.1 8.6c-1.5 9.3-1.1 10.7 3.3 10.7 1.9 0 5 .7 7 1.5 3.4 1.4 3.5 1.4 7-2.1 4-4.1 5.3-3.8 6.3 1.1.9 5 3.4 4.5 5.9-1.2 1.1-2.5 3.3-6.6 4.8-9 2.5-4.1 6.7-13.7 6.7-15.6 0-.4-1.3-.7-2.8-.7-2.6 0-3.3.8-7.1 8.2-2.3 4.6-4.1 9-4.1 9.8s-.9 2.1-1.9 2.7c-1.6 1-2 .9-2.5-.3-.6-1.7.8-5.3 4.4-10.8 1.4-2.3 2.7-6 3-9 .4-4.5.2-5.4-2.3-8.2-1.5-1.7-4.3-3.9-6.1-4.9-3.2-1.7-3.6-1.7-5.9-.2-1.3.8-3.9 4.1-5.6 7.1-2.5 4.5-3.6 5.6-5.6 5.6-3 0-3.3-2.1-.6-5.9 2.9-4 3-10.1.2-10.1-.4 0-1.4.6-2.2 1.2zm17.4 12.4c-.7 1.8-3.9 1.8-4.7-.1-.3-.8.2-2.2 1.1-3.1 1.5-1.5 1.8-1.5 2.9.1.7.9 1 2.3.7 3.1zm3.1 6.7c-1.3 4.1-7.4 16.6-8.4 17.2-.6.4-1-1-1-3.6 0-2.5-.8-5.5-2.1-7.5-2.5-4-1.7-5.7 2.1-4.9 2.1.5 3.5 0 5.6-1.9 3.3-2.7 4.8-2.5 3.8.7zm-14.6 11.6c1.9 1.1 1.1 4.5-1.1 4.9-1.3.3-1.7-.3-1.7-2.7 0-3.2.6-3.7 2.8-2.2z"/><path d="M245.5 284c-2.6 2.9-.5 6.8 3.9 7.2 2.8.3 3.1.7 3.4 4.1.4 4.7-1.9 7.7-6 7.7-3.1 0-3.6-1.5-1.3-4s-.4-4.6-4.2-3.3c-2.3.8-2.8 1.6-2.9 4.4-.2 5.4-.3 5.6-2.4 6.2-1.1.3-2.4 1.8-3 3.4-.5 1.5-1.5 3.6-2 4.5-.6 1-1 2.6-1 3.7 0 2.6-2.2 3.2-8.1 2.1-2.9-.6-6.5-1-8.2-1s-3.8-.6-4.6-1.4c-.9-.7-2.6-1.7-3.8-2-1.8-.6-2.6-.1-4.3 2.6-2.4 3.9-2.6 8.8-.5 12.8 1.3 2.4 1.8 2.7 4.2 2.1 2.2-.6 2.9-1.5 3.3-4.2l.5-3.4 6.7-.3 6.6-.3 3.4 4.2c3.8 4.7 7.9 7.2 10.3 6.2 1.4-.5 1.6-1.6 1.3-6.4-.4-5.1-.2-6 1.5-6.5 1.9-.6 2-2.5.3-6.5-1.1-2.4 2-4.9 6.1-4.9 7.4 0 15.3-8.1 15.3-15.7 0-3.4-.6-4.6-3.2-6.8-1.8-1.5-3.6-3.6-4-4.6-1-2.5-5-2.4-7.3.1zm-60.3 27.2c-.7.7-1.2 2.1-1.2 3.2s-.7 2.7-1.6 3.7c-1.4 1.6-1.3 2.1 1 5.8 2.4 3.8 4.8 5.2 6 3.3.2-.4 1-3.5 1.7-6.9 1.2-5.7 1.1-6.4-.6-8.3-2.1-2.3-3.6-2.5-5.3-.8zm298.4-52.4c-1 1.6 1.3 8.4 3.3 9.9 4.5 3.1.4 7.5-5 5.3-1.6-.7-2.9-1.5-2.9-1.9s-1.3-2.2-2.9-4.1l-2.9-3.5-5.7 3.9c-7.9 5.5-8.9 9-4.3 14.3 1.5 1.6 1.7 2.5.9 4-1.3 2.5-10.5 4.6-16.3 3.8-4.7-.6-6.2 0-7.1 3-.8 2.6 5.4 7.5 9.5 7.5 1.6 0 6.4-1.7 10.8-3.7 7.1-3.4 7.9-4.1 8.5-7.1.3-1.8.3-5.3-.1-7.8-1.2-7.9 2.5-9.6 8.7-3.9 4.1 3.7 7.9 4.5 9.9 2 .7-.8 2.1-1.5 3.1-1.5 2.4 0 4.9-2.7 4.9-5.4 0-1.2-1.8-4.7-4-7.6s-4-6-4-6.7c0-1.4-3.6-1.8-4.4-.5zm18.9 25c-2.2.4-10.5 9-10.5 10.8 0 .6.7 1.7 1.5 2.4 1.9 1.6 2 6.9.1 7.6s-7.5-5.4-7.6-8.3c0-4-1.9-7.5-3.8-7.1-1 .2-4.2 2.9-7.1 6.2-4.7 5.2-5.3 6.2-4.8 9.2.9 5.5-4 8.2-9.5 5.3-1.6-.9-2.4-.7-4 .8-1.8 1.9-1.8 2.3-.4 9.3 2.8 13.4 9.7 19.5 13 11.6.8-1.9 2.3-3.9 3.4-4.5s2.3-2.6 2.6-4.6c.4-1.9 1.3-3.5 2-3.5 1.4 0 3.6 4.1 3.6 6.6 0 .8 1.1 2.6 2.5 3.9 4.7 4.8 17.5 2.6 17.5-2.9 0-.7-.9-2.5-2-3.9-3.2-4-4.2-7.9-3.1-11 1.4-3.6 3.6-3.4 8.2.8 4.3 3.9 6.5 4.3 11.5 1.9 4-1.9 4-2.2 1.4-7.4-1.1-2.2-2-4.7-2-5.7s-1.5-5.3-3.2-9.5c-3.4-7.8-4.6-8.9-9.3-8zm6.7 12.1c1.6 1.5 2.9 10.4 1.6 11.6-1.4 1.5-5.9-1-8.2-4.6-3-4.5-3.2-5.6-.9-8.1 1.8-2 4.7-1.6 7.5 1.1zm-24.9 7.3c.8 2.9-.9 4.8-4.4 4.8-3.6 0-5.1-3.7-2.3-5.7s6.1-1.6 6.7.9zm5.4 11c1.3 1.2 2.3 2.6 2.3 3.1 0 .6.7 1.9 1.7 2.9 1.3 1.5 1.4 2.3.5 4.3-2 4.3-5.4 3.3-9.1-2.6-3.4-5.5-3.7-6.9-1.9-8.7s3.9-1.5 6.5 1zm-18.8 4.9c-4.8 4.5-9.9 3.7-9.9-1.6 0-1.5 5.3-2.3 10.2-1.6l2.8.3-3.1 2.9zm-128.5-7.3-7 21.7-23.4.3-23.4.2 17 12.6c9.3 7 17.7 13.2 18.8 13.9 1.7 1.3 1.5 2.4-5.2 23.1-3.9 12-7 22-6.8 22.1.1.2 3.1-1.8 6.7-4.4 3.5-2.6 12-8.7 18.7-13.6l12.4-8.8 4.6 3.4c2.6 1.9 11 8 18.6 13.5 7.7 5.6 14.1 10.1 14.2 9.9.2-.2-2.9-10.1-6.9-22.1l-7.2-21.9 2.4-1.6c1.4-.9 9.9-7.1 18.9-13.8l16.5-12.3-23.4-.2-23.3-.3-7-21.8c-3.9-11.9-7.2-21.7-7.5-21.7-.4 0-3.8 9.8-7.7 21.8zm-112.6 60.8c-2.1 1.1-2.8 2.2-2.8 4.5 0 7.6-4.8 11.4-12.3 9.6-3.4-.7-5.4-.7-7.2.1-3.7 1.7-3.1 4 1.3 4.7 5.6 1 7.2 1.5 7.2 2.6 0 1.3-9.4 10.9-10.7 10.9-.7 0-1.9-1.4-2.7-3-.9-1.7-2.3-4.3-3.1-5.8-2.1-4-5-6.4-7.2-6-2.9.5-2.8 4.6.1 7.7 3.2 3.3 6.6 9.8 6.6 12.4 0 1.1-1.3 3.5-3 5.4-3.3 3.8-3.8 6.1-1.4 7 1.1.4 2.4-.5 4.1-2.6 1.4-1.8 3.4-3.1 4.6-3.1 2.7 0 9.9 7.5 9.5 9.8s-5.6 2.9-6.4.8c-.9-2.4-5-1.9-7.2.9-1.9 2.4-2 5.9-.1 7.1.5.3.9 1.4.9 2.6 0 1.9.4 1.9 5.8 1.3 5-.6 6.1-.4 8.5 1.5 5 4 7.9.4 3.2-4-3.1-2.9-3.2-4-.1-4 1.6 0 4.2 2.1 8.5 6.7l6.3 6.8 1.9-2.4c2.7-3.3 2.4-4.6-1.8-7.2-5.1-3.1-11.3-8.9-11.3-10.5 0-2.7 2.3-2.5 6 .5 2.1 1.7 4.6 3.1 5.4 3.1 1.8 0 2.2-2.5.6-3.5-1.5-.9-1.2-2.5.4-2.5.7 0 2.1 1.1 3 2.5s2.2 2.5 3 2.5c.7 0 3.5-2.7 6.1-6s5.2-6 5.7-6c1.3 0 .9-3.4-.7-5.7-2.4-3.4.2-3.9 3.6-.7 2.7 2.6 3.1 2.7 4.5 1.2 1.8-1.8.7-5.1-2.1-6.2-1.9-.7-1.9-3 0-4.6 1.6-1.3 2.1-6.5.6-7.4-.4-.3-1.7.1-2.7.9-2.5 1.9-6.8 1.9-8.4 0-2.7-3.2-6.9-.4-4.4 2.9.8 1.1 1.4 2.3 1.4 2.8 0 1.3-3 .9-6-.9-2.6-1.5-3.1-1.5-6.7.1-9.7 4.3-11.6 6.3-9.4 9.8.8 1.3 1.9 3.1 2.5 4 1.6 2.7 0 3.2-3 .9-1.4-1.1-3-1.8-3.5-1.5-1.4.8-1 3.6.8 5.6 1.2 1.4 1.4 2.1.5 3-.6.6-1.3 1-1.5.7-.2-.2-2.1-2.8-4.1-5.7L209 411l5.8-6.3c3.1-3.4 6.5-7.2 7.3-8.5 1-1.4 3.7-2.8 7.3-3.7 7.9-2.1 11.6-4.2 11.6-6.5 0-2.1-3.4-2.9-4.5-1-.3.5-1.5 1-2.7 1-1.7 0-2-.4-1.5-2.9.3-1.6 1.7-4.5 3.1-6.6s2.3-4.1 2-4.6c-.8-1.3-4.6-1-7.6.7zm7.3 30.4c2.1 1.2 2.6 5 .6 5-1.9 0-3.7-2.1-3.7-4.2s.4-2.2 3.1-.8zm-4.1 5.9c1.4 2.7 1.3 3.1-.9 3.1s-4.5-2.5-3.6-4c1-1.6 3.3-1.2 4.5.9zm14 4.1c0 1.3-.7 2-2 2s-2-.7-2-2 .7-2 2-2 2 .7 2 2zm-6.5 5.5c0 2.8-2.9 2.5-3.3-.3-.3-1.9 0-2.3 1.5-2 1 .2 1.8 1.2 1.8 2.3z"/><path d="M182.2 404.2c-1.8 1.8-1.5 3.2 1.1 5.6 2.7 2.6 6.9 2.9 8.8.6 1.1-1.4.9-2-1.9-4.5-3.4-3.1-6.1-3.6-8-1.7zm287.6-32.1c-1.3.7-1.8 2.2-1.8 5 0 4.5 2 8.9 6.2 13.7 3.8 4.5 3.5 7.6-.9 8-2.3.2-4.3-.4-6.7-2.3-4.9-3.7-13.6-6.8-15.3-5.4-2.8 2.4-1.3 7.3 3 9.5 5.2 2.8 17 5.6 20.4 4.9 2.6-.5 3.3-.2 3.8 1.6 1.1 3.4-.8 4.2-10.7 4.6-7.1.3-10.2.9-13.3 2.6-4.8 2.7-7.1 6.3-6.1 10 .7 3 2.2 3.4 4.6 1.2 4.1-3.7 20-8.5 34-10.3 4.5-.6 5.6-1.1 5.8-2.8.3-1.9-5-8.4-6.8-8.4-.4 0-2.6-4-4.9-8.9-2.8-6-4.4-10.8-4.8-14.7-.9-8.9-2.3-10.8-6.5-8.3zm40.6 13.7c-.6.4-1.5 4.1-1.8 8.2-.8 7.8-.8 8-11.5 26.9-2.3 4.1-4.4 8.6-4.8 10-.3 1.4-1.4 4.1-2.5 5.8-2.1 3.6-1.8 8.2.8 10.4 2.7 2.2 4.5-.6 16.9-27.6 4.1-8.8 8.7-25.6 7.9-28.3-1-2.9-2.7-6.2-3.3-6.2-.3 0-1.1.4-1.7.8zm-14.1 1.9c-.3 1-1.5 3-2.5 4.5-3.8 5.5-1.1 8.5 4.4 4.6 4.4-3 4.8-3.8 4.1-6.8-1-4.1-4.8-5.5-6-2.3zm-18.7 40.8c-.9 4.6 0 7.5 2.4 7.5 2 0 3-1.9 3-5.9 0-5.6-4.4-6.9-5.4-1.6zm-186.1 21.8c-8.6 3.8-11.3 5.6-18.5 11.8-4.1 3.5-7 6.8-7 7.9s-1.4 3.6-3.2 5.6c-2.5 2.8-2.9 3.9-2.1 5.2 1.8 3 7.1 5.9 12 6.7 5.4.8 11 3.4 13.6 6.2 1.6 1.9 1.6 2.1-.8 5.4-1.3 1.9-2.9 4.5-3.5 5.9s-1.8 3.2-2.6 4.2c-1.4 1.5-1.4 1.9.1 4.1 2.8 4.3 6.4 4.2 6.5-.1 0-.8 2.1-5.7 4.6-10.9 4.6-9.4 4.6-9.6 3.1-12.9-.9-1.8-1.4-4-1.1-4.8.6-1.7 7.7-7.6 11.2-9.5 3-1.6 2.9-4.1-.3-4.1-3.8 0-6.7 1.8-10.5 6.6-3.7 4.7-6.5 6.3-8.2 4.6-1.8-1.8.1-4.7 6.8-10.2 12.1-9.9 13-11.2 9.8-12.4-2.2-.9-4.6.8-14.6 10.3-4.7 4.5-9.3 8.1-10.1 8.1-4.5 0-2.9-6.8 3.1-13.3 5.2-5.4 9.5-8 16.8-9.8 5.4-1.4 6.4-2.2 5.7-5-.7-2.6-4.5-2.4-10.8.4zm28.3 10.4c-2.7 3.1-5.6 9.7-6.7 15.3-1.4 7.3-2.9 11.2-7.4 19.1-2 3.6-4 8.1-4.3 10-.4 1.9-1.6 4.4-2.7 5.6-1.7 1.9-1.9 2.9-1.1 6.5 1.2 5.5 3.3 5.6 5.7.3 3.6-8 4.3-9 6.4-9.3 2.8-.4 4.7 3 3.9 7-.7 3.4.8 6.8 2.9 6.8.8 0 1.9-1.8 2.6-4.2.6-2.4 1.9-5.4 2.8-6.8 2.8-3.9 3.1-5.8 1.5-7.5-.9-.8-2.5-1.5-3.7-1.5-1.3 0-3.3-.7-4.6-1.6-2-1.4-2.2-2.3-1.8-5.7.8-5.7 3.5-8.1 9.6-8.2 5.6-.1 8.3-1.8 7.9-4.9-.3-1.8-1.2-2.2-5.8-2.6-7.1-.6-7.5-2.6-2-9.9 4.3-5.7 4.7-7 2.8-8.9-1.7-1.7-4.2-1.5-6 .5zm93.9-13.1c-.7.7.3 7.3 1.5 9.6.9 1.9 4.3 2.4 5.3.8.3-.5-.1-2.3-1-3.9-.8-1.7-1.5-3.9-1.5-5.1 0-1.9-2.8-2.9-4.3-1.4zm-9.9 3c-1.4 1.4-2.2 1.5-6.6.3-9.7-2.4-17.4.9-23.5 10.1-4.1 6-.4 8.1 5.1 2.9 4.9-4.6 17.5-7.5 20.3-4.6.8.7 2.4 1.9 3.6 2.5 2.9 1.6 3.9.1 4.7-7.1.7-6.1-.4-7.3-3.6-4.1z"/><path d="M390 465.6c-1.3 3.2.2 5.4 3.6 5.4 2 0 2.4-.5 2.4-2.8 0-5.2-4.3-7.1-6-2.6zm26.5-1.7c-1.6 1.6-17.4 9.1-19.2 9.1-.9 0-4.6 3-8.1 6.6l-6.4 6.6 1.1 4.3c.6 2.4 1.1 5.6 1.1 7.1s.6 3.5 1.3 4.3c.7.9 2.1 4.1 3 7.1 1.8 6.1 4.8 10 7.5 10 1 0 5.8-1.4 10.7-3.1 8.4-2.9 9-3 11.6-1.5 4 2.4 4.9 2 4.9-2.2 0-3.3.8-4.4 7-10.1 3.9-3.6 7-7.1 7-7.9s-.8-2.6-1.8-4c-1-1.5-2.8-4.5-3.9-6.7-2.8-5.5-12.6-19.8-13.9-20.2-.5-.2-1.4.1-1.9.6zm2.3 8.2c.3 1.8-5.7 5.9-18.4 12.3-10 5.1-11.4 5.4-11.4 2.8 0-2.8 2.4-4.5 15.1-11.1 11.7-6 14.2-6.7 14.7-4zm6 9.5c.3 2.2-.4 2.8-11.3 9.2-2.2 1.3-6.4 3.2-9.4 4.3-3 1-6.5 2.9-7.8 4.1-1.7 1.6-2.6 1.9-3.4 1.1-1.6-1.6-.3-6.3 1.9-6.9.9-.3 2.4-.9 3.2-1.4s4.7-2.5 8.5-4.6c3.9-2 8.3-4.8 9.9-6.1 3.6-3 8-2.8 8.4.3zm5 12.1c-.3 2.3-2 3.6-14.7 10-14.9 7.6-17.7 8.4-18.8 5.7-1-2.6 1-4.8 5.7-6.1 2.4-.7 5.3-2.1 6.4-3.2 2.3-2 11.6-6.9 15.6-8.2 4.9-1.5 6.2-1.1 5.8 1.8zM377 472.2c-3.3 3.5-6 8.3-6 10.4 0 4.3 5.9 1.4 8.9-4.4 4.1-8.1 2.4-11.8-2.9-6zM127.9 158.7c-1.6 4.2-2 7.7-1.2 8.9.5.6 3.5 2.9 6.8 5.1 3.4 2.3 6.7 4.8 7.4 5.7s2.6 1.6 4.2 1.6c2.4 0 3.1-.7 4.4-3.7 2.1-4.9 1.6-10.7-.8-11.1-1.2-.3-2 .4-2.4 1.7-1 3.7-3.3 2.5-3-1.6.3-4.6-2.3-5.6-5.8-2.3l-2.4 2.3.2-4.4c.2-4.3.1-4.4-3.1-4.7-2.7-.3-3.4.1-4.3 2.5zM112 229c-4.3 4.3-1.4 11 4.7 11 3.8 0 6.3-2.7 6.3-6.8 0-5.6-7-8.2-11-4.2zm466 .7c-5.2 6.6 4 14.3 10 8.3 2.6-2.6 2.5-5.1-.1-8.4-2.8-3.5-7-3.5-9.9.1zm3.3 46.9c1.2 5.1 2.1 5.7 10.2 6.8 7.8 1.1 8.1 1.7 2.4 6.2-2.8 2.1-5.7 4.4-6.5 5-1.2.9-1.2 1.9.2 6.4l1.6 5.3 9.1-9.1c8.3-8.1 9.8-9.2 15-10.6 3.3-.8 6.1-1.7 6.5-2 .6-.7-1.6-8.6-2.4-8.6-.4 0-3.3.7-6.5 1.5-6.4 1.7-4.6 2-29-5.1-1.4-.4-1.5.1-.6 4.2zm-500.1.8c-.6 2.2-.8 4.4-.4 4.7.6.6 11.5 3.8 22.9 6.8l4.2 1.1-1.5 4.2c-.8 2.3-1.3 4.2-1.2 4.3.2.1 1.7.7 3.4 1.3l3.2 1 3.7-13c2-7.1 3.5-13.1 3.3-13.4-.3-.2-1.8-.7-3.5-1-2.9-.6-3.1-.4-3.7 3-.8 4.3-1.6 4.9-5.3 3.6-1.5-.6-7.6-2.3-13.4-3.9l-10.6-2.8-1.1 4.1zM590 311.1c0 1.2.5 7.3 1.2 13.5l1.2 11.4h6.9l-.5-4.5-.5-4.4 4.1-.5c2.2-.3 8.6-1.1 14.1-1.7s10.2-1.2 10.3-1.4c.2-.2.1-2.2-.3-4.4-.6-3.9-.8-4.1-4.3-4.1-2.1.1-8.2.7-13.7 1.4s-10.3 1.2-10.7.9c-.5-.2-.8-2.2-.8-4.4 0-3.8-.1-3.9-3.5-3.9-2.9 0-3.5.4-3.5 2.1zm-517.7 2.6c-2.5 12.6.6 20.6 9 22.7 5.2 1.3 9.1-1.7 12.6-9.5 1.7-3.8 3.7-6.9 4.5-6.9 2.9 0 3.9 2.9 3.3 9l-.7 6h3.4c3.1 0 3.4-.3 4-3.8 1-6.3.6-10.5-1.3-14.9-1.6-3.4-2.6-4.4-5.9-5.3-6.6-1.7-10.1.5-13.9 9-2.7 6.1-3.9 7.3-6.4 6-2.5-1.4-3.1-5.4-1.5-10.2.9-2.3 1.4-4.3 1.3-4.4s-1.9-.5-3.9-.9c-3.6-.7-3.7-.7-4.5 3.2zM592 347v5h36v-10h-36v5zm-520 7.5v4.5h35v-9H72v4.5zm538.5 5.7c-1.4 1.3-3.4 4.7-4.4 7.7-2 6.3-4.1 8.2-6.6 6.1-1.4-1.2-1.6-2.6-1.2-7.1.5-5.7.5-5.7-2.6-6.3-1.6-.3-3.3-.3-3.6 0s-.6 4.1-.6 8.4c0 6.4.4 8.4 2.1 10.7 3.1 4.1 7 5.8 11.3 4.7 3.2-.8 4-1.7 7.6-8.9 4.3-8.6 6.1-9.7 8.4-5.1 1.1 2.3 1.1 3.9.3 7.5-.6 2.5-1 4.7-.9 4.8.1 0 1.8.3 3.7.5 3.4.3 3.5.2 4.4-4.4 1.4-6.9-.7-15-4.5-18.3-4-3.3-9.7-3.4-13.4-.3zM91.4 374c-19.3 3-18.4 2.7-18.4 5.8 0 5.5.7 5.7 13 3.8 6.1-1 11.9-2 12.8-2.3s-3.7 3.2-10.3 7.8l-12 8.5.3 4.9c.2 2.8.8 5.4 1.3 5.9.6.6 6.4.1 15.6-1.3 21.1-3.3 19.5-2.7 18.7-7-.4-2-.8-3.7-.9-3.9-.3-.4-19.8 2.5-23.5 3.5-3.4.8-3.2.7 10-8.2 6.3-4.3 11.7-7.9 11.8-8.1.2-.1-.1-2.8-.8-5.8-1.3-6.6-.4-6.4-17.6-3.6zm499.7 18.7c-2 2-3.3 5.2-4.9 11.5-1.2 4.8-2.2 9.3-2.2 10 0 .9 5.7 2.6 17 5.2 9.4 2.1 17.3 3.7 17.5 3.4.2-.2.7-2.2 1.1-4.4l.6-4.1-6.1-1.3c-3.4-.7-6.4-1.7-6.7-2.2s.1-1.9 1-3.2c1.2-1.9 2.7-2.5 8-3.1 6.5-.6 6.6-.7 7.6-4.3.5-2 1-4 1-4.5 0-1.2-8.1-.8-13.8.7-4.4 1.1-5.2 1.1-5.2-.1 0-.8-1.1-2.5-2.5-3.8-3.4-3.5-8.8-3.4-12.4.2zm9.7 7.5c1.7 1.7 1.5 7.7-.2 8.4-.7.3-2.9.1-4.7-.4-2.8-.7-3.3-1.2-3-3.3.7-5.4 4.8-7.8 7.9-4.7zM97.3 419.6c-5.5 2-10.9 8-11.8 13.2-1.3 7.7 5.6 25.2 9.3 23.7 1-.4 5.1-2 9.4-3.6l7.6-3-2.4-6.1c-1.3-3.4-2.6-6.3-2.9-6.6s-1.6 0-3 .6c-2.1 1-2.4 1.6-1.9 4.1.6 2.8.4 3-3 3.7-2 .3-4 .4-4.3.1-1.2-1.3-1.5-9.5-.3-11.6 2.8-5.4 12.9-7.9 17.8-4.5 3.1 2.1 6.2 8.6 6.2 12.9 0 1.9.2 3.5.4 3.5.1 0 1.7-.5 3.5-1.1 3.1-1.1 3.2-1.3 2.6-5.3-.8-4.8-4.7-13.1-7.8-16.5-4.6-5-11.6-6.2-19.4-3.5zm483.3 5.6c-3 7.5-7 19.7-6.6 20.1.3.3 7 2.9 15 5.9 8 3.1 15.2 5.8 16 6.2 1.2.5 2.5-2 6.1-11.1 4.7-11.8 4.7-11.8 2.5-13-3.6-2.1-4.2-1.5-7 5.7-1.5 3.8-3.1 7-3.5 7-1.1 0-7.1-2.1-7.1-2.5 0-.1 1.1-3.2 2.5-6.8l2.4-6.5-3.1-1.1c-1.7-.6-3.2-1-3.3-.9-.2.2-1.3 3.1-2.5 6.6-2.2 6-2.5 6.3-4.9 5.7-4.8-1.2-4.8-1.7.4-14.6.4-1-.3-1.9-2-2.7-3.5-1.6-3.4-1.6-4.9 2zm-11.5 28.7-2.1 4 10.2 9.5c5.6 5.3 10 9.7 9.7 10-.2.2-4.9-.7-10.4-1.9-18.5-4.1-17.1-4.2-19.5.4-1.1 2.2-2 4.2-2 4.4 0 .3 2.1.8 4.8 1.1 2.6.4 10.4 1.8 17.5 3.2 7 1.3 13.2 2.4 13.7 2.4.6 0 2.2-2.4 3.7-5.4l2.6-5.5-12.3-12.8c-6.7-7-12.6-12.9-13.1-13.1-.4-.2-1.7 1.5-2.8 3.7zm-453.3 9.9-15.6 8.6 2 4.1c1.1 2.2 2.2 4.1 2.3 4.3s3-1.3 6.3-3.3c3.3-1.9 6.4-3.5 6.9-3.5s1.9 2.1 3.2 4.7c2.5 5.1 2.8 4.6-5.1 9-2.7 1.4-4.8 3.1-4.8 3.7s.9 2.6 2 4.4l2.1 3.4 3.2-1.9c1.8-1.1 8.7-5 15.5-8.8 6.7-3.8 12.2-7.1 12.2-7.4s-1-2.3-2.3-4.3l-2.2-3.6-5.7 3.3-5.8 3.4-1.5-2.4c-5-8.2-5.1-7 1.3-10.6 3.1-1.8 5.8-3.3 6-3.4.1-.1-.8-2-2.1-4.3l-2.3-4.1-15.6 8.7zm433.6 23.7c-1.5 2.1-2.3 3.9-1.8 4.4.5.4 6.9 5 14.3 10.1 9.6 6.6 13.8 9 14.8 8.4 1.7-1.1 4.9-6.2 4.3-6.7-1.1-.8-26.6-18.4-27.7-19.1-.7-.4-2.3.8-3.9 2.9zm-403.9 9c-14.5 11.6-17.4 15.8-15.6 22.3 1.3 4.5 6.4 10.7 10.1 12.2 6.6 2.7 13.4-.5 28.7-13.7l3.3-2.8-2.9-3.4-2.8-3.4-9.7 7.8c-10.5 8.4-14.5 9.8-17.3 5.9-2.8-3.8-1.2-6.5 8.7-14.5 5.2-4.3 9.6-8.1 9.7-8.6.2-.5-.9-2.3-2.4-4.1l-2.8-3.2-7 5.5zm394.6 3.9c-1.3 1.4-2.2 2.9-2 3.3.5 1.2 10.1 9.9 15.2 13.7 2.1 1.6 3.6 3 3.4 3.2s-5.5-1.2-11.7-3c-6.3-1.8-12.5-3.6-13.7-3.9-1.5-.3-3.2.6-6.2 3.7l-4.1 4.2 11.2 9.9c17.2 15.3 15.4 14.3 18.9 10.8l3-2.9-8.8-7.7c-4.8-4.2-9.7-8.3-10.8-9.1-1.5-1.2-.7-1.1 3.5.3 3 1.1 9.6 3 14.7 4.4l9.1 2.5 4.3-4.4c2.4-2.4 4.1-4.5 3.8-4.7-.2-.2-6.2-5.4-13.2-11.6-7.1-6.1-13.2-11.1-13.6-11.1s-1.8 1.1-3 2.4zm-27 28.6-3.4 2.9 5.5 6.3c10.7 12.2 12.7 16.7 9 20.1-4.1 3.7-5.6 2.6-20.9-15.1l-2.8-3.3-3.7 2.7-3.7 2.7 8.1 9.9c8.7 10.6 11.6 12.8 17.3 12.8 4.3 0 6.9-1.2 11.2-5.3 7.6-7.2 6.6-13.2-4.3-26.2-4.1-5-7.8-9.3-8.2-9.7-.4-.3-2.2.7-4.1 2.2zm-345.6 6c-8.7 4.2-16.1 8.2-16.2 8.7-.2.5 1 2.1 2.6 3.7 2.8 2.7 3 2.7 6 1.1 4-2 5.8-1.5 10.6 3.5l3.9 4-1.7 3.5-1.7 3.5 3.7 3.4 3.7 3.4 7.4-17.5 7.4-17.5-3.8-3.9c-2.1-2.1-4.3-3.9-4.9-3.8-.5 0-8.2 3.6-17 7.9zm12.9 7.7c-1.4 3.2-2.8 6-3 6.2-.7.8-6.4-5.2-5.8-6.1s9.4-5.7 10.6-5.8c.4 0-.5 2.6-1.8 5.7zm62.3 45c-.8 2.1-1.4 3.9-1.2 4.1.1.2 6 2.5 13.1 5.2l12.9 4.8 1.3-3c.7-1.7 1.2-3.7 1-4.5-.3-1.2-22.1-10.3-24.8-10.3-.4 0-1.5 1.7-2.3 3.7zm194.8 1.9c-6.6 2.5-12.2 4.7-12.4 5-.4.3 1.9 8.4 2.4 8.4.1 0 4.5-1.6 9.6-3.6 5.2-1.9 10.8-4 12.4-4.6 1.7-.6 3.4-1.4 3.8-1.8 1-.8-1.8-8-3-7.9-.4 0-6.2 2-12.8 4.5zm-37.6-2.9c-1.4.2-4.9 2.7-7.8 5.7l-5.1 5.2 2.5 2.4 2.5 2.4 2.8-2.7 2.8-2.7 1.8 8.8c3.4 16.9 3.2 16.4 7.4 15.6 2-.4 3.8-.8 4-.9s-4.9-26.3-6.3-32.3c-.3-1.2-.9-2.1-1.3-2.1-.4.1-1.9.4-3.3.6zM294.5 588c-1.1.5-3.7 1.6-5.7 2.4-3.6 1.4-3.7 1.6-2.7 4.5 1.2 3.3 2.7 3.8 6.1 2 1.1-.6 2.1-.9 2.3-.7s-.8 5.7-2.2 12.1c-1.3 6.5-2.3 12-2.1 12.2s2.1.5 4.2.7l3.9.3 3.2-16.5c1.8-9.1 3.2-16.6 3.1-16.7-.7-.8-8.5-1.1-10.1-.3zm32 4c-4.4 1.8-6.9 5.8-6.9 11.1-.1 4.5.3 5.4 3.2 8 3.4 3.1 7.7 3.8 11.3 1.9 3-1.6 2.5 2.5-.7 5.6-2.5 2.6-5.1 2.8-11 .9-1.8-.6-2.2-.2-2.6 2.4s-.1 3.2 2.5 4.1c8.1 2.8 16.6.1 19.8-6.2 2.8-5.5 3.6-16.2 1.6-21-2.6-6.3-10.8-9.5-17.2-6.8zm8.9 6.6c2.2 2.1 2 5.7-.3 7.8-2.6 2.4-5.3 1.7-6.5-1.6-2-5.7 2.9-10.1 6.8-6.2zm28.9-4.9c-9.4 6.5-8.9 6-6.7 8.5 1 1.3 2 2.5 2.2 2.7.1.3 1.5-.5 3.2-1.7 1.6-1.2 3.1-1.8 3.3-1.4.3.4.8 6 1.2 12.4l.7 11.8h8.1l-.7-14.3c-1-19.7-1.2-20.7-4.6-20.7-1.5 0-4.5 1.2-6.7 2.7z"/></svg>