<svg xmlns="http://www.w3.org/2000/svg" width="336" height="336" viewBox="0 0 252 252"><path d="M170.734 195.035a1.26 1.26 0 0 1 .367-.078c.262 0 .477.02.715.043 0 .219-.055.57-.156.797l.168.07-.18-.047c-.012.059-.035.113-.047.16-.297-.238-.648-.547-.809-.82-.023-.047-.047-.078-.059-.125m3.875-2.906.184.012c.07-1.105 1.836-2.977 2.703-3.934.102-.09.137-.16.227-.215.066-.035.148-.059.297-.023a.75.75 0 0 1 .387.332c.125.203.137.5.113.832l-.137 1.719-.012.012.012.023c.113.98.523 2.973-.422 3.465a.697.697 0 0 1-.172.078l-.809-.727-.043-.035-.047-.012c-.227-.035-.434-.012-.594-.047a3.734 3.734 0 0 1-.762-.387c-.32-.184-.547-.398-.664-.582-.008-.023-.02-.043-.02-.066l-.012-.023-.012-.012v-.012c-.059-.078-.059-.215-.035-.387zm1.324 3.168.148-.09.352-.125.238.148c.012.145.07.25.07.305a.57.57 0 0 1-.25.309c-.125.082-.297.102-.516.035-.102-.219-.09-.344-.043-.582m-10.84-1.961-.184.113.262.16 1.223.754c.969.738 2.199 1.664 2.848 2.77l.352.57c.195.34.309.648.16.934l-.012.012-.008.012c-1.004-.07-1.906-.82-3.25-.047-.16.09-.309.195-.48.332l-.043.035-.023.055c-.012.023-.047.137.012.219 0 .008.012.02.035.043l.02.035.047.012c.879.309 2.496 1.172 3.09 2.051.113.195.191.434.328.66.117.195.273.398.527.535l.02.012.035.012 1.141.184.09.023.07-.07c.184-.191.172-.434.137-.672-.113-.719-.504-1.699.055-2.359.379-.172.707-.047 1.176-.09l.035-.012.031-.012c.117-.078.137-.137.184-.148l.102-.059-.012-.113-.078-.855v-.031l-.012-.023c-.09-.195-.16-.445-.273-.695l.172-.375.785-1.711c.035-.012.082-.023.113-.047.125.07.355.219.434.367a.333.333 0 0 1 .047.168v.023a1.022 1.022 0 0 1-.195.25l-.102.117.102.148.047.066.078.012c.172.023.332-.035.457-.07.195.242.355.457.605.688l.012.008.012.012c.273.148.762.273.75.344l-.012.023v.023c-.043.559-.785 1.719-1.355 2.504l-.227.367-.035.035-3.691 5.914c-.445.844-2.043 2.039-1.371 3.305.023.035.047.078.082.113l.035.047.055.012c.629.16 1.277.273 1.926.32.434-.023.832-.23.992-.137l.137.043.094-.113c.91-1.141.613-1.777.773-2.187.695-1.848 1.73-3.625 2.973-5.367l.891-1.129c.512-.672 1.039-1.539 1.824-2.008.059-.035.113-.055.172-.09a.97.97 0 0 1 .113.434c.012.434-.273.875-.398 1.355-.137.773-.41 1.594-.684 2.313-.137.297-.527.73-.535 1.164.02.148.066.262.125.352l.191.309a.52.52 0 0 1 .07.172v.043c0 .012 0 .012-.012.023-.16.332-.926 1.105-1.164 1.449-.328.582-.695 1.16-1.094 1.664-.898 1.082-2.348 1.949-2.699 3.27l-.023.105.066.066c.25.238.867.387 1.551.48.684.078 1.426.078 1.902-.195a.308.308 0 0 0 .137-.102c.594-.547.832-1.336 1.051-1.883.297-.719 1.094-2.016 1.855-2.734.047-.059.117-.102.195-.172.195.16.398.434.648.672a3.43 3.43 0 0 1 .516.641c.273.477.285.898.125 1.32-.184.582-.777 1.164-1.516 1.734a1.95 1.95 0 0 1-.285.18c-.355.207-.777.391-1.176.605a3.65 3.65 0 0 0-.434.309c-.066.047-.113.16-.102.184v.031l-.059.242.254-.012c.672-.047 1.379-.355 1.957-.344l3.047-.035h.043c.047-.02.113-.02.195-.066a.248.248 0 0 0 .113-.137c.375-.844.375-2.953-.32-4.184a1.76 1.76 0 0 0-.273-.387c-.523-.57-1.172-1.105-1.527-1.723a1.73 1.73 0 0 1-.137-.285c.012-.066.219-.363.457-.582.238-.25.523-.488.594-.523l1.355-.785.023-.023c.465-.559.297-1.242.352-1.699v-.02a.42.42 0 0 0-.066-.242c-.148-.25-.422-.215-.445-.227h-.047c-.387.012-.75.148-1.082.332a4.781 4.781 0 0 0-.625.43l-.547.457-1.687.98a.58.58 0 0 1-.254-.227.23.23 0 0 1-.031-.082c.215-.695 1.023-1.355 1.434-2.141l.262-.434.961-2.609c.137-.398.59-1.348.227-2.031a.998.998 0 0 0-.387-.363c-.457-.297-1.004-.172-1.461.09-.602.367-1.141.98-1.402 1.391-.055.125-.156.219-.215.379-.809 1.16-1.812 2.313-2.793 3.484-.34.48-.75.949-1.035 1.461-.219.297-.879 1.402-1.187 1.57-.184-.477.375-1.23.672-1.801l1.176-2.039 1.879-3.34c.125-.148.379-.305.66-.453l.539-.273c.262-.16.512-.344.672-.605 1.07-1.676.637-3.82.785-5.562.047-.695.332-2.965-.352-4.16-.207-.352-.516-.625-.949-.684-.43-.07-.945.066-1.559.434l-.035.023-.023.023c-.559.703-1.426 3.336-2.484 4.434-.066-.516.16-1.164.398-1.848.25-.777.504-1.617.082-2.371-.023-.023-.023-.047-.035-.059l-.012-.012c-.137-.191-.344-.227-.594-.273-.785-.125-2.164-.031-2.996.332l-.137.059.012.137c.055.398.422.852.547 1.207l.012.16.125 1.688c.043.559.227 1.219.238 1.832s-.125 1.105-.684 1.438a2.772 2.772 0 0 1-.934.297c-.125.023-.172.047-.242.047-.852.066-1.559-.309-2.484-.332-.422-.059-.797.066-1.16.066s-.844-.145-1.355.094l-.184.09zm-20.848 21.234c-.102.273-.09.57-.012.855.41 1.48 2.59 3.008 3.352 3.656.219.16.367.367.629.559.191.148.453.309.797.332a2.31 2.31 0 0 0 .684-.066h.012c1.277-.344 1.996-1.664 2.52-2.223.113-.16.434-.41.73-.684.281-.277.566-.559.602-.926l.012-.215h-.203l-1.086.043v.207l-.012-.207a4.92 4.92 0 0 0-.809.137l-1.582.504a3.65 3.65 0 0 1-1.051.137c-.34 0-.727-.113-1.148-.285-1.074-.41-2.145-1.254-2.84-1.949l-.078-.078-.344.09-.102.023zm-3.645 1.402c.34 2.133-.273 3.453-1.391 4.547-1.176 1.141-2.918 1.996-4.629 3.09l-.066.043-.012.094c-.012.055-.07.16-.023.34l.035.117.113.031c.707.195 1.594-.066 2.277-.148.254-.031.48-.09.719-.148 3.418-.898 5.313-4.043 5.609-6.734l.191-4.082 1.074-1.047.008-.012.012-.012c.344-.398.969-.898 1.586-1.445l-.137-.148.137.148c.922-.879 2.086-2.055 2.336-2.977l.012-.035v-.031c0-.035-.012-.07-.012-.094-.148-.434-.625-.57-1.152-.719-.535-.125-1.148-.191-1.629-.25h-1.469a.26.26 0 0 0-.16.148.209.209 0 0 0 0 .148c.059.184.215.355.375.605.16.227.32.477.355.602.012.035.012.059.012.059-.035.387-.914 1.355-1.414 1.824-.309-2.293.523-4.379.203-6.703l-.012-.078-.055-.047c-.719-.605-2.977-1.426-4.148-1.195l-.094.023-.043.078c-.047.09-.047.148-.047.195l-.023.043v.059a3.07 3.07 0 0 0 .113.898c.172.629.469 1.266.629 1.895.055.227.102.453.113.672l.535 6.816c-1.094 1.172-2.324 2.324-3.738 3.305-.535.41-1.355.535-2.086 1.016-.055.02-.078.055-.102.066l-.207.059.094.215c.465 1.004 1.242 2.461 2.449 2.199l.227-.078c.695-.332 1.277-.855 1.813-1.539a15.98 15.98 0 0 1 1.621-1.812m-38.332-1.039c.047-.203.398-.637.969-1.527s1.504-1.469 1.504-1.469c-.078.297-.18.297-.262.523s-1.777 2.406-2.004 2.543c-.23.148-.262.148-.207-.07m13.359-9.73c.32-.422 1.289-.516 1.289-.516.043.492-.719.832-.812.902-.102.066-.137.203-.203.328s-.41.195-.41.195-.195-.5.137-.91M98.84 218.742c-.09.605-.398 1.184-.434 1.563-.012.102.207.547.637.613 1.039.172 1.051-.148 1.781-1.105.57-.75 1.125-1.117 1.664-1.961.523-.844.707-.785.844-1.059s.18-.684.512-1.457l1.023-2.477c.184-.453.402-.785.695-1.32.309-.547.879-.695 1.313-.719s1.902.582 1.938.797c.012.047.012.184 0 .344l-.023.34c-.012.527-.078.676-.078.676s-.937.156-.992.441-.16.527.191.672.559.344.559.344.047.332-.055.867c-.059.273-.125.262-.137.328-.012.094-.672.137-.785.195-.379.215-.402.762.043 1.289.16.191.422.023.492.227.09.297-.273.695-.344.773-.238.309-.672.777-1.242.891s-1.164.332-2.723-.012c-.23-.047-.445.172-.582.41a1.02 1.02 0 0 1-.102.582c.012.023.023.047.043.059.23.215.547.488.73.797.172.309 0 .457.629.625.898.23 1.117-.434 1.855-.227.742.215.035.73-.047 1.035s-1.094.98-.969 1.52c.117.535.105 1.195.172 1.492s.469.707.523 1.082.801.891 1.117.75 1.496-1.262 1.871-1.684c.375-.434.559-.719.66-1.094.09-.379.344-3.602.641-3.773.281-.16 1.879-.172 2.289-.309s1.461-.227 2.199-.352l1.379-.309c.25-.035.695-.297 1.039-.387.352-.094.98-.23 1.195-.469.219-.25.41-.41.434-.672s-.137-.559-.309-.742c-.273-.309-.559-.047-1.184-.488s-1.367-.332-1.633-.73-1.66-1.141-1.754-1.289c-.102.047 0 0-.047.184 0 .102.129.375.379 1.094.309.891.695 1.688.422 1.766-.504.16-1.379.16-1.621.23-.227.055-.43.125-.684.203l-.684.207c-.238.078-.34.137-.602.055-.273-.066-.559-.316-.664-.672s-.09-.5.266-.594 1.207-.43 1.262-.852c.07-.422-.09-.422-.262-.707s-.934.59-.523-.926c.023-.066.035-.238.078-.262.047-.078.824-.055.914-.078l.332-.082c.387-.09 1.262-.285 1.617-.547.102-.078.285-.602.32-.684.031-.113.18-.34-.254-.559-.441-.215-.328.047-.863.148-.547.102-1.789.148-1.789.148l.102-.773c.012-.094.012-.207.043-.297.012-.023.012-.035.012-.035s.148-.387.938-.969c.797-.594 3.668-1.152 4.625-1.289l2.918-.375c.332-.023.367-.445.172-.91-.207-.48-.648-.285-.766-.207s-.59-.035-1.035-.047c-.457 0-1.105.129-1.699.23l-2.176.41c-.387.035-.945.25-1.219.309s-.25-.047.043-.457 1.051-.422 1.348-.422.785-.215 1.32-.457 1.059-.613 1.414-.922l1.301-1.039c.102-.102.559-.273 1.035-.922s.262-.754.047-1.195c-.207-.445-.832-.391-1.129-.398-.297-.023-1.027-.059-1.105-.023-.09.031-.297.285-.57.375-.262.09-.648.215-.785.125-.137-.078.078-.887.156-1.367s-.398-.902-.863-1.437-1.051-1.516-1.848-1.707c-.809-.195-1.391 1.332-1.586 1.879-.18.535-.352.902-.43 1.313s-.262.5-.344.66-.262.98-.422 1.414c-.16.422-.457.637-.637.66s-.25.297-.434.477-.797.434-.719.73c.09.309.766-.078.879-.066s.215.352.238.434c.012.078-.172.547-.285 1.094l-.41 1.961c-.125.34-.488.215-.719.273l-1.035.168c-.07-.031-.137-.191-.035-.695.102-.512-.285-.863-.547-.988-.273-.129-.672-.539-.785-.687-.129-.145-.605-.5-.801-.797s.219-.887.262-1.105c.059-.215 1.105-1.105 1.242-1.195s.434.012.559-.113c.137-.125.273-.125.582-.125.309-.012 1.219.328 1.402.145.297-.316.285-.238.523-.375.25-.137.137-.398.273-.945.137-.559-.773-1.48-1.172-1.812-.41-.332-.547-.605-.777-.773l-1.207-.957c-.285-.266-.82-.742-1.195-.605-.387.137-.137.559.273 1.391.41.844.16 1.129.023 1.688-.07.297-.137.102.156.512s.344.844.117 1.367c-.242.523-1.094 1.551-1.289 1.723-.195.16-.66.273-.66.273-.172.559-.777.684-.855.832-.09.148-.082.809.047 1.582.125.766-.105 2.074-.266 2.645s-.957 1.813-1.207 2.168l-1.594 2.359c-.789 1.273-1.004 1.504-1.141 1.457-.148-.035-.617.492-.785.684-.219.219-.094.398-.195 1.004m30.375-66.027c.012.516.25.98.738 1.391.492.398 1.223.672 2.066.672.832 0 1.559-.273 2.063-.672.488-.41.738-.875.738-1.391 0-.5-.25-.98-.738-1.391-.504-.387-1.23-.672-2.062-.672h-.012c-.844 0-1.562.273-2.062.672-.48.41-.73.891-.73 1.391m-8.266-.066c0-.48-.238-.945-.773-1.367-.535-.41-1.332-.695-2.258-.695-.91 0-1.719.285-2.246.695-.535.41-.773.875-.773 1.367 0 .477.238.945.773 1.367.527.398 1.336.695 2.246.695.926 0 1.723-.285 2.258-.695.535-.422.773-.891.773-1.367m-6.266 7.008c0 .48.25.969.82 1.402.57.422 1.434.73 2.426.73s1.859-.309 2.43-.73c.57-.434.82-.922.82-1.402 0-.488-.25-.969-.82-1.402-.57-.422-1.437-.727-2.43-.727h-.012c-.98 0-1.844.305-2.402.727-.582.434-.832.914-.832 1.402m-22.352-45.121c0-.035.16-2.187.582-5.242.434-3.066 1.129-7.023 2.246-10.691.75-2.453 1.684-4.766 2.926-6.656.504-.742 1.051-1.426 1.676-2.008-.875-4.617-1.879-6.996-1.926-7.09a1.625 1.625 0 1 1 2.977-1.309c.078.18 3.738 8.617 3.453 24.902-.148 8.137-1.266 18.246-4.32 30.25a1.64 1.64 0 0 1-1.598 1.23 2.05 2.05 0 0 1-.375-.047 1.612 1.612 0 0 1-1.172-1.969c2.984-11.777 4.078-21.621 4.215-29.512.082-4.695-.172-8.695-.57-11.988a17.87 17.87 0 0 0-1.047 2.086c-.902 2.086-1.617 4.637-2.176 7.145a86.71 86.71 0 0 0-1.633 10.941c-.012.137-.012.207-.012.207-.066.898-.773 1.594-1.617 1.594h-.125c-.898-.066-1.574-.898-1.504-1.844m12.938 34.922c0-.754.66-1.367 1.469-1.367s1.469.613 1.469 1.367v13.699c0 .762-.66 1.379-1.469 1.379s-1.469-.617-1.469-1.379zm6.473 10.199c0-1.445.809-2.723 1.938-3.555l.066-.035c-1.047-.82-1.777-2.039-1.777-3.418 0-1.414.766-2.656 1.848-3.488 1.105-.844 2.543-1.312 4.113-1.312 1.563 0 3.012.48 4.105 1.313s1.855 2.074 1.855 3.488c0 1.379-.73 2.586-1.777 3.418l.059.047c1.125.832 1.938 2.109 1.938 3.555s-.812 2.723-1.937 3.555c-1.141.844-2.621 1.324-4.254 1.324-1.617-.012-3.109-.48-4.25-1.324-1.129-.84-1.926-2.117-1.926-3.566m13.848-44.941c0-2.984.148-5.516.363-7.668a1.63 1.63 0 0 1 1.781-1.449 1.626 1.626 0 0 1 1.445 1.777 74.173 74.173 0 0 0-.34 7.34c0 4.254.293 9.473 1.125 15.832a1.625 1.625 0 0 1-1.402 1.824c-.066.012-.137.012-.203.012a1.611 1.611 0 0 1-1.605-1.414c-.855-6.496-1.164-11.852-1.164-16.254m.695 38c.035-2.812 2.723-4.797 5.734-4.797 2.336 0 4.477 1.207 5.332 3.066.059.078.102.16.148.238.059.113.535 1.207.535 2.883.047 2.715-1.445 6.906-7.555 10.234a1.58 1.58 0 0 1-.742.195c-.5 0-.992-.238-1.266-.672-.41-.66-.184-1.492.512-1.883 3.023-1.695 4.57-3.383 5.348-4.875a6.53 6.53 0 0 1-2.324.422c-3-.012-5.687-1.984-5.723-4.812m12.664-20.344a1.613 1.613 0 0 1-1.609-1.414c-.844-6.484-1.152-11.84-1.152-16.242 0-2.984.148-5.516.367-7.668a1.622 1.622 0 0 1 3.226.328c-.207 2.043-.344 4.469-.344 7.34 0 4.254.297 9.473 1.129 15.832a1.628 1.628 0 0 1-1.402 1.824h-.215m.797 30.031c.238-.727 1.07-1.125 1.836-.898.523.16 1.23.227 2.074.273.137.012.273.012.422.012 1.035.012 2.117-.238 2.859-.652.754-.43 1.141-.91 1.254-1.629a4.86 4.86 0 0 0 .023-.387c-.035-.98-.422-1.344-1.242-1.801-.82-.41-2.051-.582-2.941-.582-.398 0-.73.035-.855.07-.457.16-.957.102-1.355-.148-.398-.262-.648-.684-.641-1.152l.07-5.801c.023-.754.672-1.367 1.469-1.367h5.793c.809 0 1.469.613 1.469 1.379s-.66 1.367-1.469 1.367h-4.344l-.035 2.906c1.207.023 2.746.207 4.184.891 1.469.66 2.859 2.164 2.828 4.238a5.32 5.32 0 0 1-.047.73c-.215 1.676-1.344 2.941-2.68 3.656-1.32.73-2.871 1.027-4.352 1.039-.207 0-.398-.012-.617-.012-.879-.059-1.801-.125-2.746-.398-.773-.25-1.195-1.016-.957-1.734m11.625-24.32c-.902 0-1.629-.73-1.629-1.617v-20.004h-5.117c-.926 0-1.664-.73-1.664-1.629s.738-1.633 1.664-1.633h5.117v-6.312h-5.117c-.926 0-1.664-.73-1.664-1.629s.738-1.633 1.664-1.633h5.117v-6.348h-5.117c-.926 0-1.664-.73-1.664-1.629s.738-1.617 1.664-1.617h2.016a24.06 24.06 0 0 0 .059-1.598c0-2.543-.445-5.437-1.836-9.598-.285-.852.172-1.789 1.027-2.074s1.766.172 2.063 1.027c1.469 4.387 2.004 7.691 2.004 10.645 0 .547-.023 1.07-.055 1.598h2.848a23.77 23.77 0 0 1-.059-1.598c0-2.953.539-6.258 2.008-10.645a1.618 1.618 0 0 1 2.063-1.027 1.64 1.64 0 0 1 1.027 2.074c-1.391 4.16-1.836 7.055-1.836 9.598a23.77 23.77 0 0 0 .059 1.598h2.016c.922 0 1.664.727 1.664 1.617 0 .898-.742 1.629-1.664 1.629h-5.016v6.348h5.016c.922 0 1.664.73 1.664 1.633s-.742 1.629-1.664 1.629h-5.016v6.313h5.016c.922 0 1.664.73 1.664 1.633s-.742 1.629-1.664 1.629h-5.016v20.004a1.65 1.65 0 0 1-1.641 1.617m-9.516-45.398c0 2.055-.242 3.922-.547 5.734a1.627 1.627 0 0 1-1.598 1.344c-.09 0-.184-.012-.285-.023a1.622 1.622 0 0 1-1.32-1.879c.297-1.711.5-3.375.5-5.176 0-2.699-.457-5.777-1.836-9.891a1.63 1.63 0 0 1 3.09-1.039c1.469 4.367 2.008 7.855 1.996 10.93m-5.289-.227c0 1.801-.195 3.465-.457 5.117-.273 1.664-.613 3.316-.934 5.152a66.6 66.6 0 0 0-1.039 12.035c0 5.266.504 12.094 1.984 21.359a1.626 1.626 0 0 1-1.344 1.859c-.094.008-.172.02-.262.02a1.632 1.632 0 0 1-1.609-1.367c-1.504-9.402-2.016-16.398-2.016-21.871 0-5.449.523-9.391 1.082-12.594l.922-5.105c.25-1.562.422-3.031.422-4.605 0-2.609-.445-5.539-1.836-9.664a1.633 1.633 0 0 1 1.027-2.062 1.63 1.63 0 0 1 2.063 1.023c1.461 4.355 1.996 7.707 1.996 10.703m-5.301.227c0 2.055-.238 3.922-.547 5.734a1.624 1.624 0 0 1-1.598 1.344c-.09 0-.18-.012-.281-.023a1.614 1.614 0 0 1-1.324-1.879c.297-1.711.5-3.375.5-5.176 0-2.699-.453-5.777-1.832-9.891a1.63 1.63 0 0 1 1.023-2.062 1.63 1.63 0 0 1 2.063 1.023c1.461 4.367 1.996 7.855 1.996 10.93m-11.363 21.852c.066.945-.605 1.777-1.504 1.844h-.125c-.844 0-1.551-.684-1.621-1.594 0 0 0-.023-.008-.082 0-.055-.012-.145-.023-.273l-.094-1.023a91.64 91.64 0 0 0-.434-3.613c-.41-2.941-1.094-6.746-2.117-10.121-.617-2.008-1.355-3.863-2.199-5.254-.402 3.305-.652 7.293-.57 11.988.137 7.887 1.23 17.734 4.215 29.508a1.623 1.623 0 0 1-1.172 1.973 1.38 1.38 0 0 1-.379.047 1.61 1.61 0 0 1-1.594-1.23c-3.043-12.016-4.172-22.113-4.32-30.25-.285-16.285 3.375-24.723 3.453-24.902a1.627 1.627 0 0 1 2.977 1.309c0 .023-.012.035-.023.07-.023.055-.059.137-.102.25-.094.227-.219.594-.379 1.07-.316.969-.738 2.441-1.16 4.398-.094.41-.172.844-.262 1.301a10.723 10.723 0 0 1 1.664 2.008c.715 1.07 1.32 2.289 1.855 3.602 1.063 2.609 1.836 5.559 2.406 8.352 1.164 5.598 1.516 10.578 1.516 10.625zm-41.418 3.496c.285 10.215 2.449 20.93 8.012 30.891 12.992 23.273 34.512 34.34 39.504 36.641 0 0 23.363-7.762 39.492-36.641 5.574-9.961 7.727-20.687 8.023-30.891-6.836-2.527-11.43-7.656-11.156-13.367.227-4.652 3.633-8.617 8.684-10.953-2.918-13.187-7.305-22.316-7.305-22.316-19.66 6.953-37.727-9.211-37.727-9.211s-18.09 16.164-37.738 9.211c0 0-4.398 9.129-7.305 22.316 5.047 2.336 8.457 6.301 8.684 10.953.25 5.711-4.352 10.852-11.168 13.367m5.551 32.496c-5.871-10.508-8.129-21.793-8.422-32.391l-.059-2.281 2.004-.738c2.953-1.098 5.348-2.727 6.91-4.516 1.57-1.801 2.301-3.648 2.313-5.461 0-.102 0-.215-.012-.305-.078-1.551-.66-3.023-1.824-4.469-1.16-1.437-2.918-2.781-5.117-3.797l-2.211-1.023.559-2.543c2.996-13.551 7.477-22.875 7.547-23.023l1.125-2.348 2.328.82c3.613 1.289 7.168 1.789 10.586 1.789h.082c12.707 0 23.34-9.687 24.414-10.508a.841.841 0 0 0 .078-.059l1.676-1.273 1.676 1.273a.67.67 0 0 0 .09.059c1.07.832 11.75 10.555 24.492 10.508 3.41 0 6.965-.512 10.578-1.789l2.324-.82 1.129 2.348c.07.137 4.125 8.582 7.102 21.063.07.273.125.547.195.82.02.113.043.219.078.332.035.16.07.328.113.488l.07.32.262 1.184.297 1.359-2.223 1.023c-2.199 1.016-3.957 2.359-5.117 3.797-1.164 1.445-1.746 2.918-1.824 4.469-.012.09-.012.191-.012.305 0 1.813.73 3.66 2.313 5.461 1.563 1.789 3.969 3.418 6.918 4.516l2.008.738-.047 1.871-.012.41c-.297 10.598-2.551 21.883-8.422 32.391-13.551 24.195-35.551 35.434-40.836 37.898l-1.129.363-1.129-.363c-5.324-2.465-27.32-13.703-40.871-37.898m-3.09 1.996c14.246 25.348 36.859 36.813 42.512 39.457l2.543 1.004 2.543-1.004c5.652-2.656 28.266-14.109 42.523-39.457 6.246-11.195 8.617-23.172 8.922-34.273l.012-.227.137-4.902s-6.246-1.914-8.102-3.156c-2.852-1.906-3.637-4.137-2.258-7.043 1.324-2.773 8.832-5.109 8.832-5.109l-1.254-5.699a24.633 24.633 0 0 0-.25-1.105c-3.086-13.402-7.453-22.484-7.602-22.805l-2.531-5.266-5.242 1.848c-3.215 1.137-6.383 1.594-9.449 1.594-11.656.102-22.031-9.437-22.496-9.859l-3.762-2.895-3.762 2.895h.012c-.469.422-10.84 9.961-22.5 9.859-3.066 0-6.234-.469-9.449-1.594l-5.242-1.848-2.531 5.266c-.156.332-4.75 9.906-7.852 23.91l-1.254 5.699s7.512 2.328 8.832 5.109c1.379 2.906.594 5.137-2.254 7.043-1.859 1.242-8.105 3.156-8.105 3.156l.137 5.141c.262 11.09 2.633 23.066 8.891 34.262m-.82 42.898c.203-.398.547-.32.547-.32s.102-.238.332-.18c.547.125.477.637.387.559-.094-.07-1.266-.059-1.266-.059m-17.348 4.559c-.613.469.902 2.531 2.313 3.25s5.426-.332 6.395-.777 3.59-2.746 4.57-3.645 2.305-2.008 2.305-2.008-1.996 4.184-2.758 6.191-.969 4.945-.32 5.813c.648.852 2.461.762 2.805.875s2.129.664 3.055.957 1.172-.398.762-.684c-.41-.273-.523-.375-1.332-.887-.797-.516-1.883-1.367-1.949-1.527-.07-.172-.07-1.105-.047-1.777s.023-4.141.172-5.223c.16-1.094.879-3.75.879-3.75s1.184-.078 2.961.195c1.777.262 2.156-.023 2.383-.227.238-.207.488-.48-.227-.652s-1.906-1.141-1.996-1.219c-.102-.078-.273-.297-.625-.297-.344 0-.594-.34-.594-.34s-.09-.23.102-.469.09-1.059.09-1.059c.355.578 2.293.785 3.113.684.809-.094 2.395-.184 3.031-.297.648-.125.891.34 1.789-.16.582-.32.172-.035.742-.41.559-.375.434-.559.25-.891s-.773-.488-1.266-.773c-.488-.273-1.141-.594-1.434-.754-.297-.148-.148-.043-1.004-.148s-1.914-.523-2.977-.797-1.504-.512-1.742-.695c-.23-.18-.367-.398-.945-.18s-.262.988-.195 1.391c.07.387-.227.523-.047.863.195.332.125.652.125.652s-.215-.207-.578-.457-.652.309-.879.594c-.215.273-.867 1.148-1.152 1.379-.285.215-.57.637-.863 1-.285.379-1.277 1.234-1.277 1.234-.629.09-5.129-.445-5.906-.551s-1.391-1.547-1.391-1.547c-.785.316-.844 1.469-.844 1.469-.84 1.324-.215 1.813-.215 1.813s-.102.422.297 1.164c.398.727 1.664 1.148 2.941.91s3.211-.98 3.211-.98c-.785 1.207-1.469 1.883-4.363 3.535s-4.195.637-5.062.262c-.84-.332-1.926-1.336-2.301-1.051m-25.484-29.953-3.203 1.801a104.855 104.855 0 0 0 5.199 9.188l3.191-1.801-1.687-2.996 11.191-6.316a103.199 103.199 0 0 1-1.789-3.145l-11.18 6.313zm9.516-10.277-15.156 6.848c.477 1.105.98 2.211 1.492 3.293l15.16-6.848a69.523 69.523 0 0 1-1.496-3.293m-8.797-3.34-3.031.387c-.969.102-2.359.352-3.375.477l-.012-.031 2.953-1.664 2.676-1.539zm4.457-9.633-14.75 9.086a89.982 89.982 0 0 0 1.516 4.582l17.211-1.574a84.92 84.92 0 0 1-1.367-3.535l-3.727.469-1.086-3.305 3.238-1.914a78.562 78.562 0 0 1-1.035-3.809m-2.145-12.559-16.434 2.711c.113 1.094.25 2.188.398 3.281l3.91-.648c2.484-.41 4.797-.879 6.949-1.434l.012.055c-1.844.914-3.941 2.051-5.469 3.055l-4.754 2.953.07.434c.227 1.266.477 2.508.762 3.75l16.438-2.727a89.12 89.12 0 0 1-.695-3.223l-3.898.648c-2.691.445-5.199.898-7.434 1.344l-.012-.055c1.918-.969 3.992-2.203 5.645-3.25l4.957-3.043c-.172-1.277-.32-2.566-.445-3.852m-6.895-7.875-10.121.398.09 3.625 10.168-.402c2.277-.09 2.941.652 2.984 1.801a5.205 5.205 0 0 1-.203 1.586l3.566.262c.238-.695.332-1.676.309-2.414-.137-3.238-1.996-5.039-6.793-4.855m6.668-5.656-16.617-.684c-.07 1.199-.117 2.406-.148 3.613l16.617.684a92.18 92.18 0 0 1 .148-3.613m1.867-13.355-16.469-2.531a96.74 96.74 0 0 0-.625 3.238l3.918.602c2.496.387 4.832.66 7.055.797l-.012.059c-2.039.297-4.387.719-6.152 1.195l-5.437 1.336a106.43 106.43 0 0 0-.488 4.238l16.469 2.531c.09-1.105.203-2.199.328-3.281l-3.918-.605-7.477-1.027.012-.055c2.117-.32 4.477-.844 6.371-1.336l5.652-1.344.773-3.816m-2.598-17.508-8.355-2.895a96.6 96.6 0 0 0-1.297 3.34l-.012.035 9.016 3.133c2.527.879 3.543 1.973 3.074 3.34-.465 1.344-2.062 1.527-4.465.684l-9.016-3.133a88.48 88.48 0 0 0-1.051 3.465l8.219 2.836c5.117 1.777 8.148.773 9.359-2.711 1.242-3.559-.559-6.383-5.473-8.094m13.164-8.707-14.77-7.707-1.645 2.863 3.535 1.844c2.234 1.164 4.355 2.191 6.418 3.035l-.023.055c-2.031-.387-4.391-.73-6.211-.855l-5.609-.5a104.55 104.55 0 0 0-1.836 3.84L47.16 91.42l1.379-3-3.488-1.824a209.952 209.952 0 0 0-6.746-3.383l.043-.059c2.109.387 4.516.641 6.465.797l5.766.547 1.949-3.371m2.816-4.297L41.5 67.598c-.684.992-1.359 1.996-2.008 3.012l13.848 9.219a83.192 83.192 0 0 1 2.008-3.008m5.32-6.887-10.027-13.73c-.867.934-1.711 1.879-2.531 2.824l4.262 5.359a107.61 107.61 0 0 0 3.809 4.547l-.023.031a70.18 70.18 0 0 0-5.277-2.859l-6.031-3.078-.18.23a85.637 85.637 0 0 0-2.168 2.918l15.41 7.156a86.63 86.63 0 0 1 2.758-3.398m-3.383-15.238L61 51.152l-2.461-2.586-2.406 2.152-2.176 2.074-1.789 1.801L63.656 66.64a85.438 85.438 0 0 1 6.574-6.199l-2.496-2.621-3.918 3.738-2.145-2.246 3.5-3.34-2.52-2.645-3.5 3.34zm12.102-5.48-.762.559-2.359-3.227c.113-.148.375-.398.922-.797.98-.684 1.926-.512 2.68.512.742 1.004.617 2.145-.48 2.953m3.719-.707c.578-1.004.707-2.965-.539-4.66-.969-1.336-2.074-2.02-3.246-2.18-.902-.113-1.664-.227-2.793.605l-1.586 1.152-2.77 2.117c-.227.219-.43.434-.613.629l9.766 13.359a91.15 91.15 0 0 1 2.816-2.215l-3.613-4.945.469-.34c.898-.664 1.563-.617 3.043.809 1.379 1.289 2.359 2.098 2.871 2.461a103.34 103.34 0 0 1 3.137-2.086c-.617-.398-2.395-2.086-3.73-3.227-1.125-.969-2.152-1.547-3.156-1.402zm4.863-8.113c-.352-.652-.055-1.371.914-1.895 1.195-.66 2.289-.727 2.953-.727l-1.062-3.102c-1.023 0-2.199.227-3.613 1.016-2.973 1.641-3.602 4.215-2.223 6.77 1.164 2.141 3.215 2.781 5.676 2.539 1.633-.168 2.383-.055 2.762.652.398.727.113 1.469-.969 2.063-1.176.648-2.59.844-3.559.785l1.141 3.523c.898.066 2.543-.23 3.953-1.004 3.453-1.891 3.875-4.926 2.531-7.41-1.094-2.016-2.816-2.883-5.449-2.664-1.867.137-2.664.18-3.055-.547m15.629 5.844L87.043 30.98l-3.328 1.422 6.566 15.273a89.35 89.35 0 0 1 3.316-1.437m7.68-2.699-3.93-12.219 3.328-1.07-1.129-3.512-2.086.582-5.824 1.879-2.145.789 1.129 3.496 3.273-1.047 3.93 12.219a76.17 76.17 0 0 1 3.453-1.117m9.848-9.164 2.531-10.336a93.391 93.391 0 0 0-3.523.488l-.43.078-.422 3.945-.285 3.203-.035.012c-.492-1.004-.879-1.801-1.461-2.883l-1.801-3.535-.82.148a73.903 73.903 0 0 0-3.168.719l5.918 9.004 1.172 6.461a78.334 78.334 0 0 1 3.547-.637zm13.746 5.539c-1.059-1.902-2.016-4.785-2.176-8.523-.148-3.41.422-6.109 1.184-8.059l-2.508.078c-.809 1.723-1.57 4.422-1.434 8.094.172 4.102 1.422 6.918 2.473 8.512l.91-.031zm8.402-10.988c-.082 1.449-1.016 2.305-2.43 2.223a7.22 7.22 0 0 1-.82-.09l.238-4.297c.184-.035.547-.07 1.082-.035 1.371.059 1.996.945 1.93 2.199m2.039 4.16c.887-.898 1.434-2.371 1.527-4.066.09-1.723-.445-3.262-1.312-4.148-.887-.949-2.109-1.324-4.047-1.426-2.051-.113-3.609-.172-4.602-.035l-.914 16.516h.047a96.3 96.3 0 0 1 3.531.066l.309-5.516c.219.035.535.082.879.105 1.801.113 3.406-.332 4.582-1.496m12.172-3.852.625-3.543-2.379-.492-3.57-.625-2.676-.387-2.883 16.398c3.02.375 5.98.902 8.898 1.574l.629-3.535-5.336-.945.535-3.055 4.766.844.637-3.59-4.762-.844.465-2.68zm2.883 14.203 4.391-16.051-3.5-.945-4.391 16.047a65.66 65.66 0 0 1 3.5.949m9.824-3.727 7.57-7.57a108.416 108.416 0 0 0-3.695-1.562l-2.414 3.18-1.902 2.59-.035-.012c.102-1.105.18-1.996.238-3.227l.285-3.953-.445-.172a106.04 106.04 0 0 0-3.418-1.129l.387 10.727-2.348 6.141a81.16 81.16 0 0 1 3.375 1.266zm11.547-2.156-.945 3.262-.844 2.961-2.223-1.152 1.891-2.391c.617-.754 1.438-1.906 2.074-2.691zm-.469 15.078 4.16-16.672a107.22 107.22 0 0 0-4.316-2.246l-11.148 13.039a83.34 83.34 0 0 1 3.441 1.57l2.336-2.937 3.09 1.605-.98 3.66a61.69 61.69 0 0 1 3.418 1.98m9.941 7.34 9.801-13.469-2.586-2.055-2.316 3.191c-1.48 2.043-2.801 3.992-3.941 5.906l-.047-.035c.672-1.949 1.367-4.23 1.754-6.02l1.313-5.434a105.313 105.313 0 0 0-3.535-2.395l-9.801 13.473a68.977 68.977 0 0 1 2.758 1.813l2.336-3.203a197.825 197.825 0 0 0 4.344-6.18l.047.035c-.684 2.027-1.301 4.375-1.746 6.27l-1.402 5.664a101.71 101.71 0 0 1 3.023 2.438m17.473-.547 2.906-1.902c-.195-.797-.891-2.051-2.191-3.328-3.109-3.09-7.531-3.566-11.668.57-1.711 1.719-2.602 3.453-2.758 5.402-.16 1.891.535 3.738 2.426 5.617 1.254 1.242 2.977 2.18 3.977 2.578l6.305-6.246-3.75-3.715-2.461 2.484 1.273 1.266-2.039 2.063c-.172-.059-.559-.344-.898-.684-1.574-1.562-1.437-4 .773-6.234 2.418-2.43 4.742-2.168 6.316-.605 1.105 1.07 1.535 1.914 1.789 2.734m8.434 19.309 7.352-4.922a88.1 88.1 0 0 0-1.883-3.055l-.023-.035-7.941 5.301c-2.223 1.48-3.715 1.641-4.516.441-.785-1.184.035-2.562 2.156-3.977l7.934-5.301a93.51 93.51 0 0 0-2.133-2.93l-7.227 4.844c-4.512 3.012-5.539 6.02-3.488 9.109 2.109 3.133 5.449 3.406 9.77.523m-1.004 15.75 15.066-7.121a103.63 103.63 0 0 0-1.285-3.031l-3.602 1.695c-2.281 1.086-4.379 2.156-6.305 3.297l-.023-.059c1.527-1.391 3.227-3.055 4.422-4.445l3.785-4.16a96.46 96.46 0 0 0-1.961-3.785L201.145 84a83.299 83.299 0 0 1 1.563 2.918l3.555-1.676a198.437 198.437 0 0 0 6.77-3.34l.023.059c-1.586 1.457-3.238 3.215-4.535 4.672l-3.91 4.262a107.04 107.04 0 0 1 1.504 3.59m1.742 4.844 15.707-5.48a82.05 82.05 0 0 0-1.195-3.418l-15.707 5.48a86.22 86.22 0 0 1 1.195 3.418m2.27 8.391 17.004.285a95.12 95.12 0 0 0-.727-3.727l-6.852.168c-1.848.035-3.828.141-5.926.297l-.012-.031a74.67 74.67 0 0 0 5.469-2.484l6.098-2.953-.066-.273c-.32-1.176-.66-2.336-1.016-3.488l-15 7.965a117.78 117.78 0 0 1 1.027 4.242m14.773 11.602 3.555-.41a81.69 81.69 0 0 0-.273-3.215l-.344-2.973-.352-2.508-16.539 1.879a86.31 86.31 0 0 1 .98 8.984l3.59-.414-.613-5.379 3.074-.352.547 4.809 3.625-.41-.547-4.809 2.715-.309zm.59 8.207c-.043 1.195-.75 1.848-2.027 1.824-1.254-.023-2.086-.809-2.062-2.176l.012-.937 4 .07c.047.18.09.535.078 1.219m1.949 4.148c.629-.648 1.188-1.184 1.207-2.586l.047-1.949a115.13 115.13 0 0 0-.023-3.488 10.72 10.72 0 0 0-.125-.867l-16.547-.273c.043 1.188.066 2.383.066 3.578l6.121.105-.012.578c-.023 1.117-.457 1.609-2.484 1.938-1.859.332-3.102.617-3.691.813a79.82 79.82 0 0 1-.23 3.758c.684-.25 3.113-.648 4.82-1.023 1.461-.32 2.543-.777 3.035-1.664h.102c.457 1.07 1.938 2.348 4.035 2.395 1.641 0 2.848-.469 3.68-1.312m-1.309 13.348c.613-.82 1.137-1.895 1.367-3.488.488-3.363-1.187-5.414-4.059-5.859-2.418-.363-4.148.891-5.449 3-.844 1.41-1.391 1.926-2.187 1.809-.82-.125-1.242-.797-1.059-2.016.191-1.32.887-2.574 1.516-3.305l-3.5-1.219c-.594.684-1.344 2.164-1.582 3.762-.57 3.895 1.582 6.063 4.387 6.496 2.27.34 4-.504 5.402-2.738 1.016-1.559 1.457-2.223 2.277-2.094.73.113 1.117.773.961 1.867a5.967 5.967 0 0 1-1.199 2.793zm-16.973 3.258 16.129 3.98.863-3.512-16.137-3.988a85.61 85.61 0 0 1-.855 3.52m8.48 15.285 3.477 1.219c.273-.66.535-1.332.797-2.016l2.02-5.781.66-2.176-3.477-1.219-1.141 3.246-12.117-4.227a84.08 84.08 0 0 1-1.195 3.418l12.117 4.23zm-9.598 5.848 6.715 8.262 1.742-3.098.195-.391-2.883-2.711-2.383-2.164.023-.035c1.094.215 1.957.387 3.18.57l3.906.695.379-.742 1.344-2.965-10.746-.715-5.859-2.953a91.82 91.82 0 0 1-1.629 3.215zm-3.121 8.945c3.121 1.973 5.855 2.609 7.75 2.746l1.309-2.105c-2.074-.309-4.707-1.187-7.578-2.988-3.168-2.004-5.23-4.273-6.348-6.133l-.047.082-1.23 2.016c.867 1.711 2.668 4.184 6.145 6.383m31.332-52.395c0 60.898-49.297 110.273-110.102 110.273S16.047 186.863 16.047 125.965s49.297-110.27 110.102-110.27S236.25 65.07 236.25 125.965m7.613-15.488-6.086-6.715 3.043-8.535-6.898-5.871 1.895-8.855-7.602-4.922.738-9.027-8.195-3.887-.453-9.051-8.617-2.793-1.617-8.898-8.914-1.645-2.781-8.613-9.051-.457-3.875-8.184-9.027.73-4.91-7.605-8.855 1.906-5.871-6.895-8.527 3.043-6.723-6.09-8.059 4.129-7.453-5.152-6.727 4.648-.715.492-8.059-4.125-6.727 6.086-8.523-3.043-5.871 6.895-8.855-1.902-4.914 7.613-9.027-.73-3.875 8.184-9.059.457-2.781 8.613-8.914 1.633-1.641 8.898-8.617 2.793-.445 9.039-8.184 3.887.695 9.051-7.602 4.922 1.906 8.855-6.898 5.871 3.043 8.535-6.086 6.715 4.137 8.07L7.137 126l5.148 7.453-4.137 8.059 6.086 6.727-3.043 8.523 6.898 5.871-1.906 8.855 7.602 4.922-.738 9.039 8.184 3.887.453 9.051 8.617 2.781 1.641 8.902 8.914 1.641 2.781 8.617 9.051.441 3.887 8.184 9.027-.738 4.922 7.613 8.855-1.895 5.871 6.898 8.523-3.035 6.715 6.078 8.07-4.141 7.453 5.152 7.453-5.152 8.07 4.141 6.711-6.066 8.527 3.031 5.871-6.895 8.855 1.895 4.91-7.613 9.027.738 3.875-8.172 9.063-.457 2.781-8.613 8.914-1.645 1.629-8.898 8.617-2.781.453-9.051 8.195-3.887-.738-9.027 7.613-4.91-1.906-8.859 6.898-5.867-3.043-8.539 6.074-6.711-4.129-8.059 5.152-7.453-5.152-7.453zm-2.77-7.387 6.258 6.918-4.254 8.309 5.301 7.684-5.301 7.684 4.242 8.285-6.258 6.93 3.133 8.773-7.102 6.043 1.961 9.129-7.84 5.063.762 9.297-8.445 4.004-.465 9.309-8.879 2.863-1.676 9.176-9.176 1.684-2.871 8.867-9.312.469-4 8.434-9.301-.762-5.062 7.828-9.129-1.949-6.051 7.102-8.789-3.121-6.918 6.246-8.297-4.254-7.684 5.301-7.668-5.301-8.309 4.254-6.918-6.246-8.789 3.121-6.031-7.102-9.129 1.961-5.059-7.84-9.301.762-4-8.434-9.324-.469-2.859-8.879-9.176-1.684-1.687-9.164-8.867-2.863-.469-9.309-8.434-4.004.754-9.289-7.832-5.07 1.949-9.117-7.102-6.043 3.137-8.785-6.258-6.918 4.262-8.289-5.297-7.68 5.297-7.684-4.25-8.309 6.258-6.906-3.137-8.785 7.102-6.043-1.949-9.117 7.832-5.062-.754-9.289 8.422-4.012.48-9.309 8.855-2.875 1.688-9.176 9.176-1.672 2.859-8.879 9.324-.469 3.988-8.434 9.301.75 5.059-7.84 9.121 1.961 6.051-7.102 8.777 3.133 6.918-6.254 8.309 4.25 7.668-5.301 7.684 5.301 8.297-4.25 6.918 6.254 8.789-3.133 6.051 7.102 9.117-1.961 5.063 7.84 9.289-.75 4 8.434 9.324.469 2.871 8.879 9.176 1.672 1.676 9.176 8.879 2.875.465 9.309 8.445 4.012-.762 9.289 7.84 5.063-1.949 9.117 7.102 6.043zM252 126C252 56.406 195.582 0 126 0S0 56.406 0 126s56.418 126 126 126 126-56.418 126-126" fill="#00518E"/></svg>