<svg xmlns="http://www.w3.org/2000/svg" width="1000" height="1000"><style>.B{fill:#ad0004}</style><path fill="rgba(255,255,255,0)" d="M0 0h1000v1000H0z"/><g transform="matrix(9.6186 0 0 -9.6186 499.672 449.795)" clip-path="url(#A)"><clipPath id="A"><use href="#s"/></clipPath><path d="M-32.232.188h1.872v-8.351h-1.872zm6.781-8.35h-2.198v8.35h2.198zm4.394 0h-1.679v8.35h1.679zm4.137 0h-1.424v8.35h1.424zm4.261 0h-1.549V4.204h1.549zm3.941 0h-1.227V4.204h1.227zM-9.945 8.162h1.227V6.843h-1.227zM-4.84-8.163h-1.166V4.204h1.166zM-6.006 8.162h1.166V6.843h-1.166zm4.847-16.325h-.968V4.204h.968zm-.968 16.325h.968V6.843h-.968zM2.717-8.163H1.555V4.204h1.162zM1.555 8.162h1.162V6.843H1.555zM6.721-8.163h-1.29V4.204h1.29zM5.431 8.162h1.29V6.843h-1.29zm5.296-16.325H9.435V4.204h1.292zM9.435 8.162h1.292V6.843H9.435zm5.488-16.325h-1.485V4.204h1.485zm4.261 0h-1.55V.188h1.55zm4.327 0h-1.612V.188h1.612zm4.201 0h-1.481V.188h1.481zm4.263 0h-1.548V.188h1.548zm2.712 0v8.35h.941v2.637H17.634v1.38h.616v2.639h-4.812v1.319h1.001V10.8h-28.484V8.163h1.387V6.844h-5.203v-2.64h.942v-1.38h-18.83V.188h.804v-8.35h-1.193V-10.8h72.277v2.638z" class="B"/></g><g transform="matrix(9.6186 0 0 -9.6186 120.65 725.663)" clip-path="url(#B)"><clipPath id="B"><path d="M-216.619-124.216h631.418v446.457h-631.417z"/></clipPath><path d="M4.026 2.113-1.159-.906-.085-2.75l-1.058-.62-2.882 4.943 1.062.618L-1.888.348 3.297 3.37z" class="B"/></g><g transform="matrix(9.6186 0 0 -9.6186 106.05 678.59)" clip-path="url(#C)"><clipPath id="C"><path d="M-215.1-129.11h631.418v446.457H-215.1z"/></clipPath><path d="m3.589.845-6.575-3.011-.603 1.323 6.572 3.009z" class="B"/></g><g transform="matrix(9.6186 0 0 -9.6186 92.732 622.746)" clip-path="url(#D)"><clipPath id="D"><path d="M-213.716-134.915h631.418v446.457h-631.417z"/></clipPath><path d="m-.031.008-2.241-1.779 2.854-.095zm1.887 3.443.496-1.509L.987.842l.905-2.75 1.737-.058.49-1.485-7.742.411-.495 1.505z" class="B"/></g><g transform="matrix(9.6186 0 0 -9.6186 71.94 564.817)" clip-path="url(#E)"><clipPath id="E"><path d="M-211.555-140.938h631.418v446.457h-631.417z"/></clipPath><path d="m4.013-2.292-7.149-1.095-.217 1.404L.979 1.688-3.804.952l-.209 1.339L3.14 3.387l.221-1.448-4.243-3.611 4.689.718z" class="B"/></g><g transform="matrix(9.6186 0 0 -9.6186 67.605 505.15)" clip-path="url(#F)"><clipPath id="F"><path d="M-211.104-147.141h631.418v446.457h-631.417z"/></clipPath><path d="m-3.687.826-.008 1.458 4.586.031c.602 0 1.064-.047 1.389-.151a1.98 1.98 0 0 0 1.017-.758q.386-.561.398-1.473.001-1.073-.596-1.655-.601-.581-1.766-.593L1.169-.934c.416.025.716.082.889.19q.391.238.39.724-.006.483-.282.688-.288.197-1.164.196z" class="B"/></g><g transform="matrix(9.6186 0 0 -9.6186 68.536 461.879)" clip-path="url(#G)"><clipPath id="G"><path d="M-211.2-151.64h631.418v446.457H-211.2z"/></clipPath><path d="m3.544-1.034-7.208.624.128 1.444 7.2-.619z" class="B"/></g><g transform="matrix(9.6186 0 0 -9.6186 75.404 413.977)" clip-path="url(#H)"><clipPath id="H"><path d="M-211.914-156.62h631.418v446.457h-631.417z"/></clipPath><path d="m2.981-3.527-7.09 1.415.278 1.398 5.328 1.962-4.743.951.262 1.328L4.11 2.105 3.82.673l-5.225-1.941L3.247-2.2z" class="B"/></g><g transform="matrix(9.6186 0 0 -9.6186 102.947 315.245)" clip-path="url(#I)"><clipPath id="I"><path d="M-214.778-166.884H416.64v446.457h-631.417z"/></clipPath><path d="m-4.158-1.475.602 1.322L.022-1.784q.854-.391 1.128-.455c.293-.07.572-.031.832.107.266.136.475.392.647.761.169.375.224.697.155.956a1.02 1.02 0 0 1-.41.608q-.312.214-1.092.568L-2.375 2.43l.601 1.32L1.69 2.173c.797-.361 1.335-.654 1.634-.876s.505-.479.646-.772a2.2 2.2 0 0 0 .184-1.018c-.017-.38-.14-.836-.373-1.354-.291-.627-.581-1.066-.872-1.325a2.2 2.2 0 0 0-.917-.505 1.96 1.96 0 0 0-.901-.037c-.418.081-.996.297-1.732.634z" class="B"/></g><g transform="matrix(9.6186 0 0 -9.6186 140.691 256.825)" clip-path="url(#J)"><clipPath id="J"><path d="M-218.702-172.958h631.418v446.457h-631.417z"/></clipPath><path d="M1.392-4.406-4.605-.36l.798 1.177L1.864.573l-4.01 2.709.757 1.124L4.605.362l-.82-1.213-5.569.221 3.932-2.65z" class="B"/></g><g transform="matrix(9.6186 0 0 -9.6186 170.341 217.783)" clip-path="url(#K)"><clipPath id="K"><path d="M-221.785-177.017h631.418V269.44h-631.417z"/></clipPath><path d="m2.28-2.898-5.505 4.691.947 1.105 5.503-4.69z" class="B"/></g><g transform="matrix(9.6186 0 0 -9.6186 193.989 174.917)" clip-path="url(#L)"><clipPath id="L"><path d="M-224.244-181.473h631.418v446.457h-631.417z"/></clipPath><path d="m2.847-4.06-6.83 3.502L-2.828.526 2.17-2.119-.203 3 .919 4.06l3.065-7.048z" class="B"/></g><g transform="matrix(9.6186 0 0 -9.6186 254.804 142.07)" clip-path="url(#M)"><clipPath id="M"><path d="M-230.565-184.888h631.418v446.457h-631.417z"/></clipPath><path d="m-.202-4.494-4.113 5.947L.088 4.494l.7-1.006-3.206-2.217.906-1.315 2.984 2.067.701-1.013-2.991-2.064 1.115-1.6L3.623-.358l.693-1.011z" class="B"/></g><g transform="matrix(9.6186 0 0 -9.6186 315.749 111.086)" clip-path="url(#N)"><clipPath id="N"><path d="M-236.901-188.109h631.418v446.457H-236.9z"/></clipPath><path d="m-1.859.192.97.471c.633.306 1.016.518 1.146.646a.8.8 0 0 1 .238.455.94.94 0 0 1-.099.551c-.11.214-.252.364-.432.44s-.384.083-.618.017l-.969-.445-1.031-.491zm.5-4.395-3.137 6.518 2.767 1.326c.694.337 1.228.519 1.6.555S.593 4.143.926 3.94q.5-.32.779-.893.35-.735.15-1.419Q1.657.945.861.411q.544-.045.967-.207c.285-.111.699-.346 1.258-.703l1.411-.891-1.577-.755-1.632.964-1.154.623a1.1 1.1 0 0 1-.525.083q-.246-.03-.698-.246l-.27-.128 1.31-2.724z" class="B"/></g><g transform="matrix(9.6186 0 0 -9.6186 376.838 83.68)" clip-path="url(#O)"><clipPath id="O"><path d="M-243.253-190.958h631.418v446.457h-631.417z"/></clipPath><path d="m-2.581-2.054 1.332.544c.218-.435.483-.718.796-.857S.233-2.51.656-2.382c.451.135.758.328.93.587q.26.389.142.771a.66.66 0 0 1-.268.374q-.19.13-.593.152C.69-.491.283-.501-.34-.533q-1.21-.057-1.783.216c-.539.256-.891.654-1.053 1.206a1.85 1.85 0 0 0 0 1.082q.16.554.651.957.49.414 1.289.653c.867.261 1.57.261 2.128.008.552-.251.935-.69 1.149-1.329L.666 1.793q-.248.502-.613.65c-.244.095-.559.09-.955-.032-.403-.117-.693-.298-.873-.532a.52.52 0 0 1-.089-.497.55.55 0 0 1 .329-.358q.33-.142 1.422-.082C.614.988 1.167.97 1.543.896q.56-.111.975-.479c.273-.244.471-.581.603-1.021q.18-.6.003-1.218a2.06 2.06 0 0 0-.699-1.056q-.527-.43-1.431-.705c-.872-.26-1.608-.26-2.197.005s-1.047.772-1.378 1.524" class="B"/></g><g transform="matrix(9.6186 0 0 -9.6186 420.872 72.642)" clip-path="url(#P)"><clipPath id="P"><path d="M-247.831-192.106h631.418v446.457H-247.83z"/></clipPath><path d="m-.045-3.687-1.336 7.108 1.436.266 1.326-7.104z" class="B"/></g><g transform="matrix(9.6186 0 0 -9.6186 460.91 65.976)" clip-path="url(#Q)"><clipPath id="Q"><path d="M-251.992-192.798h631.418v446.457h-631.417z"/></clipPath><path d="m-.159-3.753-.516 5.979-2.121-.18-.109 1.225 5.705.483.106-1.225-2.13-.18.509-5.983z" class="B"/></g><g transform="matrix(9.6186 0 0 -9.6186 527.728 65.305)" clip-path="url(#R)"><clipPath id="R"><path d="M-258.94-192.869h631.418v446.457H-258.94z"/></clipPath><path d="m-1.159-3.647.184 3.04-2.393 4.34 1.72-.105L-.132.664 1.692 3.43l1.676-.101L.475-.705.297-3.733z" class="B"/></g><g transform="matrix(9.6186 0 0 -9.6186 620.27 83.139)" clip-path="url(#S)"><clipPath id="S"><path d="M-268.561-191.015h631.418v446.457H-268.56z"/></clipPath><path d="M-1.855.624c-.226-.792-.221-1.446.031-1.959.242-.516.652-.85 1.209-1.014.567-.158 1.08-.09 1.554.212q.721.451 1.063 1.668c.234.803.233 1.449-.003 1.95-.237.495-.649.827-1.227.99-.578.17-1.102.101-1.572-.196S-1.621 1.43-1.855.624M-3.304.99c.207.708.479 1.274.833 1.697a3.3 3.3 0 0 0 .92.767c.353.208.711.33 1.079.374a4.1 4.1 0 0 0 1.575-.154q1.532-.445 2.178-1.669c.431-.815.48-1.785.154-2.918q-.49-1.691-1.673-2.379-1.19-.691-2.721-.25c-1.027.297-1.758.849-2.183 1.655Q-3.785-.671-3.304.99" class="B"/></g><g transform="matrix(9.6186 0 0 -9.6186 685.796 99.731)" clip-path="url(#T)"><clipPath id="T"><path d="M-275.373-189.29h631.418v446.457h-631.417z"/></clipPath><path d="m-3.785-2.966 3.073 6.548 4.497-2.108L3.268.362.082 1.857-.638.318 2.109-.97 1.59-2.082-1.159-.795l-1.309-2.787z" class="B"/></g><g transform="matrix(9.6186 0 0 -9.6186 769.119 146.118)" clip-path="url(#U)"><clipPath id="U"><path d="M-284.036-184.466h631.418v446.457h-631.417z"/></clipPath><path d="M-3.606-3.092 0 1.702l-1.7 1.283.742.982L3.607.527l-.739-.981L1.164.831l-3.61-4.798z" class="B"/></g><g transform="matrix(9.6186 0 0 -9.6186 808.32 194.185)" clip-path="url(#V)"><clipPath id="V"><path d="M-288.111-179.469h631.418v446.457H-288.11z"/></clipPath><path d="M-4.451-.596.688 4.495 4.452.694l-.871-.865L.834 2.593-.301 1.472l2.557-2.574-.876-.867L-1.17.61-2.557-.762.292-3.633l-.873-.862z" class="B"/></g><g transform="matrix(9.6186 0 0 -9.6186 853.358 246.718)" clip-path="url(#W)"><clipPath id="W"><path d="M-292.793-174.008h631.418v446.457h-631.417z"/></clipPath><path d="m.092-1.824.472-1.399q-1.154-.434-2.069-.158c-.607.182-1.135.592-1.586 1.222-.565.776-.756 1.608-.589 2.495s.721 1.662 1.646 2.33c.974.702 1.918.998 2.822.881s1.653-.584 2.244-1.406q.78-1.082.624-2.208c-.059-.449-.272-.91-.648-1.383L1.89-.479c.256.291.39.607.409.957s-.087.678-.318.998q-.472.652-1.235.723c-.51.051-1.113-.181-1.815-.687q-1.123-.805-1.3-1.547-.187-.74.277-1.385.334-.474.889-.596c.358-.084.795-.022 1.295.192" class="B"/></g><g transform="matrix(9.6186 0 0 -9.6186 888.555 305.946)" clip-path="url(#X)"><clipPath id="X"><path d="M-296.452-167.85h631.418v446.457h-631.417z"/></clipPath><path d="m-4.522.978 6.479 3.218.647-1.305L.048 1.625 1.325-.941 3.876.327l.646-1.304-6.472-3.218-.647 1.305L.221-1.493l-1.274 2.569L-3.87-.323z" class="B"/></g><g transform="matrix(9.6186 0 0 -9.6186 914.85 371.652)" clip-path="url(#Y)"><clipPath id="Y"><path d="M-299.187-161.02h631.418v446.457h-631.417z"/></clipPath><path d="m-4.299 1.688 6.915 2.119.415-1.358-3.753-4.257L3.902-.392 4.3-1.687l-6.911-2.12-.429 1.399 3.675 4.19L-3.9.39z" class="B"/></g><g transform="matrix(9.6186 0 0 -9.6186 930.044 444.002)" clip-path="url(#Z)"><clipPath id="Z"><path d="M-300.766-153.498h631.418v446.457h-631.417z"/></clipPath><path d="M-.21 1.967c-.818-.102-1.417-.37-1.783-.795A1.86 1.86 0 0 1-2.45-.344c.081-.578.342-1.028.809-1.347s1.119-.422 1.954-.317q1.24.159 1.785.778c.362.412.504.921.426 1.516-.073.6-.344 1.055-.798 1.371-.462.314-1.103.417-1.936.31m-.233 1.479q1.09.142 1.88-.09.588-.177 1.072-.544a2.7 2.7 0 0 0 .766-.841c.25-.428.405-.927.479-1.51.137-1.055-.088-1.94-.662-2.661Q2.227-3.274.467-3.495c-1.163-.149-2.108.047-2.843.596-.735.54-1.173 1.344-1.304 2.396q-.206 1.599.657 2.669.858 1.058 2.58 1.28" class="B"/></g><g transform="matrix(9.6186 0 0 -9.6186 933.326 513.388)" clip-path="url(#a)"><clipPath id="a"><path d="M-301.108-146.284H330.31v446.457h-631.417z"/></clipPath><path d="m-3.507 2.559 7.174-.226L3.619.878l-5.943.193-.115-3.63-1.227.04z" class="B"/></g><g transform="matrix(9.6186 0 0 -9.6186 925.593 580.06)" clip-path="url(#b)"><clipPath id="b"><path d="M-300.303-139.353h631.418v446.457h-631.417z"/></clipPath><path d="M.429 1.968q-1.213.229-1.944-.208A1.85 1.85 0 0 1-2.414.462q-.165-.864.349-1.533.52-.67 1.763-.907c.819-.158 1.468-.091 1.939.189s.763.718.877 1.311 0 1.108-.343 1.55-.92.739-1.742.896m.23 1.477c.727-.135 1.319-.357 1.765-.673q.5-.345.855-.844c.23-.337.39-.682.468-1.041.104-.474.098-1.007-.009-1.584q-.301-1.562-1.455-2.325C1.511-3.519.542-3.663-.614-3.44c-1.151.217-1.997.7-2.521 1.446Q-3.938-.877-3.632.691q.295 1.58 1.445 2.331c.763.497 1.715.637 2.846.423" class="B"/></g><g transform="matrix(9.6186 0 0 -9.6186 904.535 654.091)" clip-path="url(#c)"><clipPath id="c"><path d="M-298.113-131.656h631.418v446.457h-631.417z"/></clipPath><path d="M-.896.229.252-.207l-1.11-2.934-2.712 1.032c-.163.394-.251.9-.251 1.516-.005.627.099 1.22.315 1.771.268.709.652 1.266 1.146 1.68a3.03 3.03 0 0 0 1.731.697 4.36 4.36 0 0 0 1.954-.289q1.057-.405 1.717-1.159.653-.756.762-1.776c.06-.519-.029-1.103-.279-1.749-.315-.836-.745-1.426-1.274-1.76-.53-.344-1.13-.458-1.796-.357l.267 1.452q.544-.044.986.24.431.285.662.879c.224.593.217 1.135-.032 1.638-.241.494-.744.887-1.493 1.169q-1.205.465-2.015.156c-.543-.207-.927-.6-1.144-1.18a2.6 2.6 0 0 1-.165-.938c.005-.329.043-.626.127-.895l.86-.331z" class="B"/></g><g transform="matrix(9.6186 0 0 -9.6186 881.19 728.39)" clip-path="url(#d)"><clipPath id="d"><path d="M-295.687-123.932H335.73v446.457h-631.417z"/></clipPath><path d="m-3.423 3.597 2.626-1.54 4.955.172-.87-1.483L-.044.73l1.639-2.878-.841-1.449-2.29 4.404-2.622 1.532z" class="B"/></g><g transform="matrix(9.6186 0 0 -9.6186 366.348 914.838)" clip-path="url(#e)"><clipPath id="e"><path d="M-242.162-104.548h631.418v446.457h-631.417z"/></clipPath><path d="M1.132-.966 2.16-1.51q-.428-.882-1.102-1.212c-.45-.225-.974-.276-1.575-.161q-1.115.211-1.681 1.114C-2.58-1.17-2.69-.431-2.513.446q.263 1.401 1.141 2.034c.878.633 1.264.554 2.044.403.687-.132 1.202-.442 1.554-.927q.301-.434.37-1.146L1.424.763a1.2 1.2 0 0 1-.284.765 1.2 1.2 0 0 1-.717.402 1.3 1.3 0 0 1-1.092-.25c-.315-.25-.543-.705-.669-1.373-.139-.704-.101-1.234.093-1.583a1.24 1.24 0 0 1 .908-.64 1.14 1.14 0 0 1 .832.135c.251.151.461.42.637.815" class="B"/></g><g transform="matrix(9.6186 0 0 -9.6186 442.659 934.006)" clip-path="url(#f)"><clipPath id="f"><path d="M-250.096-102.556h631.418v446.457h-631.417z"/></clipPath><path d="m-2.765-2.365 1.079 5.588L-.555 3-.98.807 1.208.384l.423 2.197 1.134-.219-1.082-5.585-1.13.217.472 2.452-2.183.419-.475-2.449z" class="B"/></g><g transform="matrix(9.6186 0 0 -9.6186 497.35 940.585)" clip-path="url(#g)"><clipPath id="g"><path d="M-255.781-101.871h631.418v446.457H-255.78z"/></clipPath><path d="m-.603-2.841.049 5.691 1.157-.01-.049-5.69z" class="B"/></g><g transform="matrix(9.6186 0 0 -9.6186 554.131 937.865)" clip-path="url(#h)"><clipPath id="h"><path d="M-261.685-102.155h631.418v446.457h-631.417z"/></clipPath><path d="m-1.952-3.06-.579 5.66 1.11.115L1.275-.821.886 2.956l1.063.104.583-5.658-1.146-.116L-1.269.733l.382-3.684z" class="B"/></g><g transform="matrix(9.6186 0 0 -9.6186 631.813 920.19)" clip-path="url(#i)"><clipPath id="i"><path d="M-269.761-103.991h631.418v446.457H-269.76z"/></clipPath><path d="m.186-.113-1.292 1.849-.235-2.228zm2.579-1.675-1.201-.301L.769-.952l-2.212-.553-.139-1.371-1.183-.297.754 6.056 1.182.291z" class="B"/></g><g transform="matrix(9.6186 0 0 -9.6186 275.768 873.855)" clip-path="url(#j)"><clipPath id="j"><path d="M-232.745-108.809h631.418v446.457h-631.417z"/></clipPath><path d="M1.108.025a1.11 1.11 0 0 0-.54-1 1.11 1.11 0 0 0-1.136 0 1.11 1.11 0 0 0-.54 1A1.11 1.11 0 0 0-.001 1.132c.61 0 1.109-.499 1.109-1.107" class="B"/></g><g transform="matrix(9.6186 0 0 -9.6186 729.578 872.087)" clip-path="url(#k)"><clipPath id="k"><path d="M-279.925-108.993h631.418v446.457h-631.417z"/></clipPath><path d="M.989-.002A.99.99 0 0 0 0-.989.99.99 0 0 0-.989 0 .99.99 0 0 0 0 .989a.99.99 0 0 0 .989-.991" class="B"/></g><g transform="matrix(9.6186 0 0 -9.6186 513.43 636.193)" clip-path="url(#l)"><clipPath id="l"><path d="M-257.454-133.517h631.418V312.94h-631.417z"/></clipPath><path d="M22.589-.997c.365.391.899.882 1.024 1.496-.203.247-.421.381-.698.546-.631-1.125-2.494-1.661-3.706-2.142.399-.819 1.494-.058 2.13 0 .043-.032.094-.065.141-.092l.044-.155c-.199-.287-.38-.408-.415-.896-.784-.208-2.096-.863-2.736-.696-.221-.184-.287-.249-.277-.702l.368-.395 1.07-.098c.222.084.335.408.597.493q.376.056.745.101l.233-.101c.059-.431.091-.717-.051-1.19l-.182-.053c-.286-.084-.745.156-.973.298-.1-.154-.183-.263-.093-.495.191-.33.526-.306.789-.549l.37-.749h1.156q.123.151.233.298c.664.655-.323 1.792.143 2.643.36.665.95.454 1.159 1.69-.407.293-1.039-.074-1.071.748m-.231 3.586-.047.051c.165 1.269 1.12 1.924 1.393 3.039l-.415.749-.278.046c-.323-.286-.242-.657-.51-.996-.168-.21-.846-.483-1.068-.593l-.557.64q-.114-.02-.234-.047c-.249-.507.296-.52.145-1.191l-.188-.502q.231-.47.459-.947l.281-.044.23 1.342c.152.223.379.178.51.448h.376c-.178-.657-.469-1.038-.654-1.844.026-.297-.928-.596-1.159-.849h-.183c-.123.28-.245 1.265-.048 1.65v.195l-.508.049c-.179.381-.179.924-.513 1.146-.095.076-.055.115-.181.051-.467-.572.641-2.95.742-3.39-.737-.322-1.203-.911-1.855-1.245l-.143.206c.088.802-.077 1.468-.644 1.736h-.281c-.052-1.045-.389-1.086-.742-1.79.129-.195.063-1.243-.043-1.642l.832-.852c.787.103 1.781 1.975 2.459 2.396l.972.497h.833q.279.322.553.644c.41.32 1.125.335 1.669.549.037-.013.062-.029.099-.046.029-.265-.103-.382-.191-.649.193-.29.569-.11.836.049.602-.483 1.566.102 1.899.749v.15c-1.157 1.783-1.915.292-3.846.245m-23.672-1.24-.046-.105c-.177.333-.027.548-.093.847s-.323.308-.372.703l.649.643h.37c.095-.415-.288-1.856-.508-2.088m-.139-2.693h.184l.144-.148q-.124-.225-.235-.452c-.076.023-.158.037-.233.053q-.066.123-.143.248l.053.151c.075.054.151.098.23.148m-.928-1.293-.46.096-.052.148c.034.021.062.032.097.053.076.069.222.097.323.147l.186-.047c.021-.22.012-.223-.094-.397m1.804 7.766c-.492-.576-1.238-.687-1.804-1.196l-.602-.741c-.186-.118-.38 0-.555-.101-.103-.071-.11-.116-.186-.203V2.64c.204-.133.666-.313.974-.499v-.05l-.465-.549c.049-.446.413-.548.645-.795-.013-.426-.185-.494-.504-.448-.616.395-1.097 1.592-1.391 2.241h-.231c-.437-.948.511-1.451.741-2.091l.324-1.145c.248-.346.702-.146 1.017-.146v-.596c-.406-.175-.616-.405-1.063-.557l-.278-.693q.137-.248.278-.497l.927.044c.061-.044.12-.097.18-.147-.086-.411-.349-.378-.458-.647-.521-1.261 2.29-.736 2.594-.597l.088.101.278.048c.164.314.265.654.283 1.145-.043.088-.094.172-.141.253-.426.212-.632.266-1.065.049-.017.013-.028.031-.047.044.094.499.465.787.692 1.147.138.327.073.782 0 1.099-.576.424-.711.181-1.247-.098l-.09.098c.407.703.772 1.189 1.337 1.742.644.625.725 1.6 1.49 2.139v.651C.635 4.359.248 4.998-.577 5.129M5.638-.096c-.213.265-.614.906-.651 1.34-.335.247-.807.358-1.252.549-.336-.201-.703-.231-1.112-.251-.152-.241-.203-.48-.182-.943l.506-.542q.02-.357.051-.703l-.235-.3c-.509.014-.657.005-.972-.151.099-.803.886-1.103 1.441-1.444.94.539 2.011.562 3.142.749l.144 1.595c-.188.299-.633.239-.88.101M-16.42 1.045l.323-.047c.125.661.189 1.092-.369 1.443-.092-.082-.181-.112-.33-.152.048-.419.075-.682 0-.99.141-.136.248-.227.376-.254m5.929 1.442q-.024.127-.045.253c.299.376.987.512 1.114 1.045-.191.381-.668.702-1.205.698q-.122.496-.233.995c-.46.183-.714.535-1.21.6l-.368-.399c.009-.469.141-.579.234-.849l-.234-1.793h-.09c-.2-.141-.677-.115-1.023-.101l-.087-.845c.362-.192.857-.136 1.247-.099q.021-.126.05-.246C-13.15.923-14.043.121-15.126-.396c-.099-.069-.119-.103-.181-.204.049-.346.304-.609.503-.794l-.691-1.938-.142.044-.37 1.598c-.044.028-.09.065-.137.097l-.276-.097c-.078-.621.15-2.373.462-2.693.29-.298.658-.412.879-.793l.275.145c-.076.385-.337.466-.413.801-.022.09 1.092 3.354 1.21 3.534.148.247 1.184.754 1.479 1.043h.187l.044-.048v-.446c-.472-.318-1.109-.627-1.39-1.15v-.246c.501-.037.816.234 1.296.354.03-.022.065-.036.094-.053-.191-.422-.603-.605-.972-.702l-.093-.396.093-.201c.402 0 .63.277 1.108.348-.109-.976-1.04-.938-1.572-1.445v-.146q.116-.103.233-.201c.371-.146 1.129.259 1.387.347l.185-.095c.121-.58.113-1.268 0-1.743.214-.289.396-.543.467-.998h.692l.278 1.593v2.488c.216.351.925.52 1.392.55l.231.499-.189.3c-.457-.014-.928-.289-1.434-.198a.66.66 0 0 1 .142.498q.342.148.692.295.045.172.095.353c-.019.029-.034.065-.051.096-.256.077-.413-.08-.736 0l-.05.249c.223.265.318.438.698.547q.045.076.088.153v.295c-.337.057-.448-.07-.833-.097-.486.85 1.368 1.018 1.905 1.197.052.136.032.079.047.196.126 1.006-1.518-.013-1.997-.053m3.802-5.725.187.845c.222.122.402.072.647.101.748 1.374-1.067 2.815-.324 4.383l-.276.498q-.216.05-.42.101c-.161-.361-.34-.472-.556-.748l-.467.199-.091-.05-.046-.449.326-.293c.272-.212.406.04.741.142q.179-.868.37-1.74a1.53 1.53 0 0 1-.646-.894c-.107-.423.438-.739.276-1.447-.136-.592-.62-1.176-.463-1.793l.044-.149c.806-.149 2.737 2.308 3.06 2.889v.401c-1.18.141-1.22-1.746-2.362-1.996m-12.326.199c-1.052.576-2.194 2.208-2.222 3.592.49.229.93.621 1.201 1.089-.022.542-.384.647-.278 1.152.108.486.49.63.507 1.342q-.092.173-.182.347l-.834.248c-.392-.404-1.483-.551-2.18-.695l-.048-.103c.063-.67.477-.719.698-1.193.149-.396-.215-1.553-.281-2.187l-1.574-1.052c-.201.17-.886-.036-1.016-.197v-.546c.157-.245.512-.379.74-.55l1.299.649q.024-.051.043-.099c-.246-1.011-1.342-4.017-2.778-3.092l-.28-.393c-.033-.381.143-.618.28-.95.43-.085.627.158.972.249 2.555.691 2.278 2.198 3.148 4.331.051.016.096.037.143.053l.741-1.296c.637-.763 2.59-2.95 3.797-2.64.035.046.061.099.097.152-.04.759-1.432 1.482-1.993 1.789" class="B"/></g><g transform="matrix(9.6186 0 0 -9.6186 621.093 640.478)" clip-path="url(#m)"><clipPath id="m"><path d="M-268.646-133.071h631.418v446.457h-631.417z"/></clipPath><path d="M1.474 2.225s.492-.058.568-.32.205-.55-.152-.776S.852.639 1.041.018s.98-1.531 1.565-2.115 1.473-1.491 1.208-1.869-1.036.187-1.584.773S.663-1.061.663-1.061l-.435.02-.471-.529s-.019-.546-.246-.887-1.245-1.074-1.473-1.189c-.226-.207-.697-.491-1.227-.282s-.962.357-.432.772c.736.152 1.226.435 1.378.548s.944.849.962 1.624c0 .206-.265.358-.621.246s-.511 0-.663.264-.339.659-.151.791S-2.3.28-2.167.28s.716.378 1.075.529.699.435.718.734l.112 1.625c-.038.114-.283.377-.283.377s.152.302.321.453.434.093.718-.038 1.019-.565 1.019-.849-.076-.547-.095-.642.056-.244.056-.244" class="B"/></g><g transform="matrix(9.6186 0 0 -9.6186 499.542 805.84)" clip-path="url(#n)"><clipPath id="n"><path d="M-256.01-115.88h631.418v446.457H-256.01z"/></clipPath><path d="m14.691.254-2.232-1.896a19 19 0 0 1-1.753 1.381l1.276 2.478L7.09 4.731 5.779 2.183q-1.446.47-2.988.704v2.552h-5.498V2.902a18.6 18.6 0 0 1-3.114-.729L-7.11 4.68l-4.891-2.517 1.258-2.445a19 19 0 0 1-1.866-1.491l-2.082 1.767-1.97-2.32 3.456-1.54.095.111a35 35 0 0 1 4.704-1.348A13.47 13.47 0 0 0-.012-2.182 13.43 13.43 0 0 0 7.98-4.81c1.689.42 3.277.444 4.836 1.092l.389.11 3.456 1.539zM-7.525-5.278q.463-.087.928-.16A12.15 12.15 0 0 0-.012-3.504a12.16 12.16 0 0 0 6.223-1.703q.46.09.917.191a12.75 12.75 0 0 1-7.14 2.17c-2.807 0-5.401-.9-7.513-2.432" class="B"/></g><g transform="matrix(9.6186 0 0 -9.6186 499.686 500.575)" clip-path="url(#o)"><clipPath id="o"><path d="M-256.025-147.615h631.418v446.457h-631.417z"/></clipPath><path d="M.001 38.136a37.9 37.9 0 0 1-14.845-2.998 38 38 0 0 1-12.122-8.172 38 38 0 0 1-8.172-12.121A37.9 37.9 0 0 1-38.135-.001a37.9 37.9 0 0 1 2.997-14.843 38 38 0 0 1 8.172-12.122 38 38 0 0 1 12.122-8.173A37.9 37.9 0 0 1 .001-38.136a37.9 37.9 0 0 1 14.844 2.997 38 38 0 0 1 12.122 8.173 38 38 0 0 1 8.171 12.122A37.9 37.9 0 0 1 38.135 0a37.9 37.9 0 0 1-2.997 14.845 38 38 0 0 1-8.171 12.121 38 38 0 0 1-12.122 8.172A37.9 37.9 0 0 1 .001 38.136M37.343-.001a37.1 37.1 0 0 0-10.938-26.404C19.351-33.457 9.976-37.341.001-37.341s-19.352 3.884-26.405 10.937S-37.34-9.974-37.34-.001s3.883 19.352 10.936 26.405S-9.973 37.341.001 37.341s19.35-3.883 26.404-10.936A37.1 37.1 0 0 0 37.343-.001" class="B"/></g><g transform="matrix(9.6186 0 0 -9.6186 499.686 500.575)" clip-path="url(#p)"><clipPath id="p"><path d="M-256.026-147.616h631.418v446.457h-631.417z"/></clipPath><path d="M.001 40.117a39.9 39.9 0 0 1-15.617-3.154 40 40 0 0 1-12.751-8.597 40 40 0 0 1-8.597-12.752A39.9 39.9 0 0 1-40.115 0a40 40 0 0 1 11.748-28.366 40 40 0 0 1 12.751-8.597A39.9 39.9 0 0 1 0-40.117a39.8 39.8 0 0 1 15.614 3.154 40 40 0 0 1 12.752 8.597 39.9 39.9 0 0 1 8.596 12.752A39.85 39.85 0 0 1 40.116 0a39.8 39.8 0 0 1-3.153 15.614 40 40 0 0 1-8.596 12.752 39.9 39.9 0 0 1-12.752 8.597A39.9 39.9 0 0 1 .001 40.117M39.28 0a39 39 0 0 0-3.087-15.289 39.2 39.2 0 0 0-8.418-12.489A39.17 39.17 0 0 0 .001-39.282a39.1 39.1 0 0 0-15.29 3.087 39.2 39.2 0 0 0-12.485 8.417 39.2 39.2 0 0 0-8.42 12.489A39 39 0 0 0-39.281 0a39 39 0 0 0 3.087 15.291 39.1 39.1 0 0 0 8.42 12.485 39.1 39.1 0 0 0 12.485 8.418A39 39 0 0 0 0 39.282a39 39 0 0 0 15.289-3.088 39.1 39.1 0 0 0 12.485-8.418 39.1 39.1 0 0 0 8.418-12.485A39 39 0 0 0 39.28 0" class="B"/></g><g transform="matrix(9.6186 0 0 -9.6186 499.68 500.568)" clip-path="url(#q)"><clipPath id="q"><path d="M-256.024-147.616h631.418v446.457h-631.417z"/></clipPath><path d="M.002 51.719c-6.981 0-13.755-1.368-20.132-4.063a51.6 51.6 0 0 1-16.441-11.084A51.6 51.6 0 0 1-47.653 20.13c-2.697-6.376-4.065-13.149-4.065-20.132s1.368-13.754 4.065-20.131A51.5 51.5 0 0 1-36.571-36.57 51.5 51.5 0 0 1-20.13-47.653c6.377-2.699 13.151-4.065 20.132-4.065a51.4 51.4 0 0 1 20.132 4.065A51.5 51.5 0 0 1 36.572-36.57a51.5 51.5 0 0 1 11.083 16.438c2.697 6.377 4.063 13.15 4.063 20.131a51.4 51.4 0 0 1-4.063 20.132 51.6 51.6 0 0 1-11.083 16.441 51.6 51.6 0 0 1-16.438 11.084A51.4 51.4 0 0 1 .002 51.719M50.643-.002a50.3 50.3 0 0 0-3.98-19.712A50.5 50.5 0 0 0 35.81-35.812a50.5 50.5 0 0 0-16.096-10.852A50.35 50.35 0 0 0 .002-50.643c-6.837 0-13.468 1.34-19.711 3.979a50.5 50.5 0 0 0-16.1 10.852 50.6 50.6 0 0 0-10.853 16.098 50.4 50.4 0 0 0-3.98 19.712 50.4 50.4 0 0 0 3.98 19.712 50.5 50.5 0 0 0 10.853 16.098 50.5 50.5 0 0 0 16.1 10.853C-13.466 49.303-6.834 50.64.002 50.64s13.469-1.338 19.712-3.979A50.5 50.5 0 0 0 35.81 35.808 50.5 50.5 0 0 0 46.663 19.71c2.64-6.244 3.98-12.874 3.98-19.712" class="B"/></g><defs><path id="s" d="M-256.024-152.895h631.418v446.457h-631.417z"/></defs></svg>