<svg xmlns="http://www.w3.org/2000/svg" width="1000" height="1000"><path fill="rgba(255,255,255,0)" d="M0 0h1000v1000H0z"/><path vector-effect="non-scaling-stroke" d="M884.339 446.626v13.801h13.52v-13.801h-13.52zm36.897 0v13.801h13.52v-13.801h-13.52zm-207.581 92.947-17.463-34.085c7.601-2.527 14.083-9.572 14.083-20.557 0-12.956-9.295-23.94-25.349-23.94h-30.7v78.582h15.209v-31.546h10.988l15.492 31.546h17.74zm-18.59-54.642c0 6.197-4.506 10.422-10.988 10.422h-14.642V474.51h14.646c6.478 0 10.985 4.506 10.985 10.421zm248.985 54.642-28.729-78.583h-11.83l-28.728 78.583h16.054l4.788-14.083h27.884l4.507 14.083h16.054zm-24.786-27.04H899.83l9.858-28.447 9.576 28.448zm-527.543 0V460.99h-15.21v50.976c0 9.017-5.632 14.365-13.8 14.365s-13.52-5.348-13.52-14.365V460.99h-15.21v51.544c0 16.617 12.675 27.606 28.73 27.606s29.01-10.989 29.01-27.606zm78.02 27.04V460.99h-15.492v47.882l-30.982-47.882h-13.801v78.583h15.49v-48.445l30.983 48.445h13.801zm33.798 0V460.99h-15.491v78.583h15.491zm73.512-78.583h-16.054l-15.773 50.976-15.773-50.976H513.68l25.912 78.583h11.266l26.194-78.583zm61.683 78.301v-13.516h-36.333V506.62h30.982V493.1H602.4v-18.59h36.333v-13.52H587.19v78.301h51.543zm138.857-23.1c0-6.756-1.972-12.674-6.196-16.617-3.099-3.099-7.605-5.07-14.928-5.915l-9.295-1.409c-3.098-.563-5.63-1.69-7.323-3.098-1.404-1.408-2.25-3.661-2.25-5.633 0-5.351 3.944-9.858 12.112-9.858 5.351 0 11.266.563 16.054 5.352l9.862-9.577c-6.763-6.478-14.646-9.294-25.349-9.294-16.895 0-27.317 9.858-27.317 23.94 0 6.478 1.69 11.548 5.63 15.492 3.38 3.383 8.45 5.355 15.213 6.478l9.295 1.404c3.661.567 5.629 1.13 7.041 2.535 1.69 1.69 2.531 3.943 2.531 6.764 0 6.196-5.07 9.572-14.083 9.572-7.041 0-13.8-1.69-18.87-6.47l-9.859 9.858c7.601 7.886 16.618 10.421 28.73 10.421 16.328 0 29.002-8.731 29.002-23.945zm30.137 23.382V460.99h-15.21v78.583h15.21zm69.57-65.063v-13.52h-56.332v13.52h20.561v64.781h15.21V474.51h20.56zm120.83 0v-13.52h-56.331v13.52h20.561v65.063h15.21V474.51h20.56zM390.876 604.354c0-11.834 1.127-22.533-7.886-31.264-5.07-5.356-12.393-7.609-20.561-7.609h-28.447v78.59h28.447c8.168 0 15.491-2.253 20.56-7.608 9.014-8.736 7.887-20.28 7.887-32.11zm-15.21 0c0 12.111-.562 17.74-3.379 21.124-2.535 3.094-6.196 4.784-11.266 4.784h-11.548v-50.976h11.548c5.07 0 8.731 1.69 11.266 4.792 2.817 3.376 3.38 8.442 3.38 20.276zm90.976 39.717-17.463-33.802c7.605-2.82 14.365-9.58 14.365-20.561 0-13.242-9.577-24.227-25.631-24.227h-30.7v78.59h15.209v-31.264h11.266l15.21 31.264h17.744zm-18.59-54.363c0 5.914-4.224 10.14-10.984 10.14h-14.646v-20.562h14.646c6.76 0 10.985 4.225 10.985 10.422zm83.653 54.363v-13.809h-36.616v-18.87h30.983v-13.798h-30.983v-18.308h36.616v-13.805H479.88v78.59h51.825zm66.185-23.1c0-7.045-1.971-12.674-6.192-16.617-3.38-3.102-7.89-5.074-14.928-6.197l-9.295-1.412c-3.098-.274-5.633-1.69-7.323-3.094s-2.253-3.662-2.253-5.63c0-5.355 3.943-9.861 12.111-9.861 5.074 0 11.27.849 16.054 5.355l9.858-9.58c-6.76-6.47-14.642-9.01-25.345-9.01-17.185 0-27.32 9.859-27.32 23.656 0 6.764 1.693 11.833 5.351 15.495 3.665 3.376 8.731 5.63 15.491 6.478l9.295 1.404c3.665.568 5.351 1.405 7.041 2.821s2.253 3.661 2.253 6.478c0 6.47-4.788 9.858-13.797 9.858-7.323 0-14.087-1.69-18.87-6.764l-9.863 9.858c7.605 7.887 16.618 10.422 28.448 10.422 16.613-.004 29.284-8.454 29.284-23.66zm71.827-16.617c0-11.834.845-22.533-7.887-31.264-5.07-5.356-12.674-7.609-20.842-7.609h-28.166v78.59h28.166c8.168 0 15.772-2.253 20.842-7.608 8.732-8.736 7.887-20.28 7.887-32.11zm-15.21 0c0 12.111-.567 17.74-3.38 21.124-2.53 3.094-6.196 4.784-11.548 4.784h-11.548v-50.976h11.548c5.352 0 9.017 1.69 11.548 4.792 2.817 3.376 3.38 8.442 3.38 20.276zm83.089 39.717v-13.809h-36.334v-18.87h30.982v-13.798h-30.982v-18.308h36.334v-13.805h-51.543v78.59h51.543zm75.766 0v-78.59H797.87v48.164l-30.982-48.164h-13.801v78.59h15.491v-48.167l30.982 48.167h13.802zM390.313 369.734v-13.52h-56.331v13.52h20.56v64.78h15.21v-64.78h20.561zm65.908 64.78v-13.519h-36.616v-19.152h30.983v-13.52h-30.983v-18.59h36.616v-13.519h-51.825v78.3h51.825zm71.255-23.94h-15.491c-1.69 6.196-5.63 10.984-13.238 10.984-4.225 0-7.605-1.408-9.858-3.943-3.098-3.38-3.943-7.041-3.943-22.25s.845-18.872 3.943-22.251c2.253-2.535 5.633-3.944 9.858-3.944 7.605 0 11.548 4.788 13.238 10.985h15.49c-2.812-16.336-14.36-24.786-29.006-24.786-8.45 0-15.49 3.098-21.124 8.731-7.886 7.887-7.605 17.745-7.605 31.264s-.281 23.378 7.605 31.264c5.633 5.633 12.674 8.732 21.124 8.732 14.646 0 26.194-8.45 29.007-24.786zm71.545 23.94v-78.3h-15.21v32.109h-26.757v-32.109h-15.21v78.3h15.21v-32.671h26.757v32.672h15.21zm79.705 0v-78.3H663.52v47.882l-31.264-47.882h-13.52v78.3h15.21v-48.163l31.26 48.164h13.52zm34.929 0v-78.3h-15.21v78.3h15.21zm70.414-23.095c0-6.76-1.971-12.675-6.196-16.618-3.098-3.098-7.605-5.07-14.928-5.915l-9.295-1.408c-3.098-.563-5.633-1.69-7.323-3.098-1.404-1.69-2.253-3.662-2.253-5.63 0-5.35 3.943-9.857 12.115-9.857 5.348 0 11.266.563 16.055 5.351l9.861-9.576c-6.767-6.482-14.654-9.299-25.357-9.299-16.899 0-27.32 9.858-27.32 23.941 0 6.478 1.694 11.548 5.633 15.491 3.38 3.38 8.45 5.352 15.21 6.478l9.294 1.408c3.666.564 5.633 1.127 7.045 2.535 1.69 1.69 2.531 3.944 2.531 6.76 0 6.197-5.07 9.576-14.082 9.576-7.046 0-13.802-1.69-18.871-6.478l-9.862 9.858c7.604 7.887 16.617 10.422 28.733 10.422 16.336 0 29.01-8.732 29.01-23.941zm70.978-.845h-15.491c-1.405 6.196-5.63 10.984-13.238 10.984-4.225 0-7.605-1.408-9.862-3.943-2.817-3.38-3.662-7.041-3.662-22.25s.845-18.872 3.662-22.251c2.253-2.535 5.633-3.944 9.862-3.944 7.604 0 11.83 4.788 13.238 10.985h15.49c-2.816-16.336-14.082-24.786-28.728-24.786-8.732 0-15.773 3.098-21.406 8.731-7.89 7.887-7.605 17.745-7.605 31.264s-.282 23.378 7.605 31.264c5.629 5.633 12.67 8.732 21.406 8.732 14.364 0 25.912-8.45 28.729-24.786zm71.54 23.94v-78.3h-15.209v32.109h-26.476v-32.109h-15.49v78.3h15.49v-32.671h26.476v32.672h15.21zm71.823 0v-13.519h-36.615v-19.152h30.982v-13.52h-30.982v-18.59h36.615v-13.519h-51.825v78.3h51.825zM17.963 469.723h78.582v91.542h96.045v-91.542h78.3v80.272l-76.61 76.61H94.573l-76.61-76.61v-80.272zm244.478 8.731h-61.12v91.535H87.814v-91.535h-61.12v68.165l71.54 71.255H190.9l71.26-71.255.28-68.165zm-1.69-26.194L190.9 382.41H98.235l-69.851 69.85h85.624v91.539h61.12V452.26h85.623zm10.14 8.731h-87.032v91.539h-78.583v-91.54H17.963v-10.703l76.61-76.61h99.707l76.61 76.61v10.703zM.5 443.528v113.226l87.314 87.313H201.32l87.032-87.313V443.528l-87.032-87.314H87.814L.5 443.528zm8.731 3.38V553.37l81.962 81.966H197.66l81.962-81.966V446.908l-81.962-81.963H91.193L9.231 446.908z" fill="#00305e" fill-rule="evenodd"/></svg>