<svg xmlns="http://www.w3.org/2000/svg" xmlns:xlink="http://www.w3.org/1999/xlink" width="402.667" height="402.667" viewBox="0 0 302 302"><style>.B{fill:#0e71aa12}.C{stroke:#0e71aa12}.D{fill:#d5394712}.E{stroke:#d5394712}.F{fill:#1175a566}.G{stroke:#1175a566}</style><path d="M217 13.064c-77.555 6.585-143.022 60.073-164.464 134.37-6.457 22.374-6.83 26.548-7.246 81.066-.427 56.013-.573 54.733 6.71 58.966 3.314 1.926 5.142 2.034 34.33 2.034 28.46 0 30.931-.137 32.139-1.788 1.003-1.372 1.422-10.819 1.796-40.5.425-33.677.769-40.338 2.648-51.212 4.153-24.043 11.738-44.655 22.126-60.13 6.006-8.948 20.072-22.579 29.068-28.171 19.256-11.968 39.539-17.736 71.194-20.246 5.54-.439 9.338-1.235 10.25-2.147 1.201-1.201 1.449-6.607 1.447-31.627-.001-33.806-.257-35.238-6.973-39.119-4.117-2.378-16.199-2.925-33.025-1.496" fill="#1176a5ff" stroke="#1176a5ff"/><path d="M216.083 144.524c-22.072 6.196-37.087 29.444-42.485 65.78-1.213 8.167-1.598 18.664-1.598 43.604 0 29.339.177 32.994 1.654 34.22 1.334 1.106 8.55 1.372 37.25 1.372 33.981 0 35.755-.092 39.096-2.034 7.289-4.236 7.07-2.075 6.769-66.966-.263-56.73-.315-58.099-2.391-62.534-2.402-5.133-8.015-10.496-13.305-12.713-5.206-2.182-18.44-2.568-24.99-.729" fill="#cf3a47ff" stroke="#cf3a47ff"/><path d="M257.194 53.972c-.166 17.859-.046 31.805.267 30.99s.449-15.427.302-32.472l-.267-30.99-.302 32.472M157.5 122.464l-6 6.085 6-6.085 6-6.086-6 6.086" class="B C"/><path d="m195.5 155.435-3 3.129 3-3.129 3-3.13-3 3.13" class="D E"/><path d="m105.5 60.435-3 3.129 3-3.129 3-3.13-3 3.13M93 72.924l-2.5 2.642 2.5-2.642 2.5-2.642-2.5 2.642" class="B C"/><path d="M187.332 165.25c-.642.691-1.317 1.889-1.5 2.662s.343.208 1.168-1.256.974-2.097.332-1.406M250 150l2.5 2.5-2.5-2.5-2.5-2.5 2.5 2.5" class="D E"/><path d="M64.169 113.921c-.732 1.238-1.124 2.457-.872 2.71s.852-.761 1.331-2.251c.838-2.604.82-2.622-.459-.459" class="B C"/><path d="m157.5 121.41-2 2.157 2-2.157 2-2.157-2 2.157" class="F G"/><path d="M181 177c-.165.55-.3 1.45-.3 2q0 1 .3 0c.165-.55.3-1.45.3-2q0-1-.3 0" class="D E"/><path d="m86 80.888-1.5 1.675 1.5-1.675 1.5-1.676-1.5 1.676M156 27c-.825.533-1.05.969-.5.969s1.675-.436 2.5-.969 1.05-.969.5-.969-1.675.436-2.5.969" class="B C"/><path d="m49 286 2 2-2-2-2-2 2 2" class="F G"/><path d="m196 155.888-1.5 1.675 1.5-1.675 1.5-1.676-1.5 1.676" fill="#d03b47b7" stroke="#d03b47b7"/><path d="M253.843 155.613c.603 1.038 1.11 1.351 1.127.696s-.477-1.504-1.096-1.887c-.829-.512-.837-.198-.031 1.191m-9.456-9.456c1.389.806 1.703.798 1.191-.031-.383-.619-1.232-1.112-1.887-1.096s-.342.524.696 1.127" class="D E"/><g class="B C"><path d="M118 289.047c-.99.609-1.075.928-.25.938.688.008 1.363-.407 1.5-.923.154-.577-.326-.583-1.25-.015m19.695-139.695c-.42 1.096-.282 1.511.369 1.108.573-.354.875-1.142.672-1.751s-.671-.32-1.041.643"/><use xlink:href="#B"/><use xlink:href="#B" x="-88" y="-24"/><use xlink:href="#B" x="-85" y="-28"/><use xlink:href="#B" x="-54" y="-60"/></g><use xlink:href="#B" x="-58" y="-56" class="F G"/><path d="m249.5 150.5 1.5 1.5-1.5-1.5-1.5-1.5 1.5 1.5" fill="#d03b47b7" stroke="#d03b47b7"/><use xlink:href="#B" x="-73" y="-41" fill="#1176a5dd" stroke="#1176a5dd"/><use xlink:href="#B" x="-67" y="-48" fill="#0c74a216" stroke="#0c74a216"/><defs><path id="B" d="m167.378 113.378-.878.878zl.878-.878z"/></defs></svg>