<svg xmlns="http://www.w3.org/2000/svg" width="200" height="200" viewBox="0 0 97 32" style="stroke:none;fill-rule:nonzero;fill:#0067c5;fill-opacity:1"><path d="m23.93 29.846-7.367-2.54c.678 1.104 1.246 1.798 1.246 1.798s-.663-.71-1.467-1.877l-2.54-.883c.978 1.451 1.798 2.35 1.798 2.35s-1.01-.931-2.177-2.477l-6.72-2.319 2.824 5.064c-4.827.631-9.528 2.382-9.528 2.382s8.155-2.019 14.055-1.735c3.549.174 6.704 1.467 9.78 1.672.757.047 3.202.284 4.464-1.341-2.682.521-4.37-.095-4.37-.095zm-8.581-14.655.962 4.37-.063-5.395c-.268.205-.568.536-.899 1.025zm-.126-.615c.379-.473.726-.726 1.025-.852l-.063-5.001c-.631.079-1.341.316-2.066.836l1.104 5.016zm.962-6.137-.095-7.225-3.029 3.534.946 4.259c.757-.426 1.499-.584 2.177-.568zm-1.404 7.762c-.174.363-.316.71-.426 1.088l2.335 4.685-1.641-6.263c-.095.158-.174.315-.268.489zm-2.934-4.055-.032.047 2.24 4.496c.126-.316.268-.647.426-.962.126-.252.252-.473.379-.663l-1.325-5.048c-.552.505-1.136 1.199-1.688 2.13zm1.546-2.729-1.357-5.19-2.098 4.165 1.593 3.186c.599-.978 1.23-1.672 1.861-2.161zm.646 10.869 3.581 4.212-3.47-6.341a8.718 8.718 0 0 0-.11 2.13zm-3.502-4.117 3.029 3.549a8.81 8.81 0 0 1 .237-2.208l-2.445-4.448a9.867 9.867 0 0 0-.82 3.108zm.489-3.707L8.802 8.408l-1.025 4.543 2.24 2.619a11.014 11.014 0 0 1 1.01-3.108zm8.251 14.355-5.127-5.553c.126.805.347 1.577.599 2.319l4.527 3.234zm-8.14-5.821 3.108 2.224a11.884 11.884 0 0 1-.615-2.508l-3.123-3.407c.016 1.278.252 2.508.631 3.691zm-.726-.52c-.347-1.199-.552-2.477-.489-3.786l-3.076-3.344.11 4.654 3.455 2.477z"/><path d="m21.454 28.678-6.326-4.149c.316.757.663 1.451 1.01 2.051l5.316 2.098zm-5.616-2.224a17.73 17.73 0 0 1-1.199-2.256l-3.076-2.019a21.073 21.073 0 0 0 1.625 3.218l2.65 1.057zm-3.139-1.246c-.678-1.01-1.357-2.193-1.861-3.502l-4.717-3.092 1.23 4.48 5.348 2.114zm3.959-11.279-.11 3.928.931-3.928c-.063-.047-.363-.189-.82 0z"/><path d="M18.614 9.118 20.759 0l-3.802 2.697-.158 5.789c.868.126 1.53.457 1.814.631a4.567 4.567 0 0 0-1.814-.442l-.142 4.937c.457-.016.741.237.805.3l1.152-4.796zm52.877 3.36c.063.063.126.174.205.379l1.42 3.518h.426l.016-.047 1.325-3.423c.079-.189.158-.316.237-.394.095-.079.189-.11.347-.11h.079v-.284h-1.641v.284h.079c.221 0 .363.016.426.063.079.032.079.063.095.142 0 .063-.032.189-.11.363l-.946 2.461-1.073-2.682c-.032-.063-.032-.11-.032-.142 0-.063.016-.079.11-.126.079-.032.237-.063.473-.063h.079v-.284h-1.924v.284h.079c.174-.016.268.016.331.063zm-6.752.047v3.108c0 .142-.032.221-.079.268-.063.047-.174.079-.363.079h-.063l-.063.284h1.672v-.284h-.079c-.268 0-.41-.032-.473-.079s-.095-.158-.095-.394v-2.556l3.218 3.36h.284v-3.66c0-.063 0-.095.016-.126.016-.047.047-.063.11-.095.079-.016.189-.032.379-.032h.079v-.284h-1.656v.284h.079c.252 0 .394.032.457.079.032.032.047.047.063.095s.016.126.016.221v2.35l-2.903-3.029h-1.136v.284h.079c.189.016.331.047.457.126zm6.278 3.549v-.079h-.079c-.221 0-.331-.032-.379-.095-.063-.047-.079-.158-.079-.331v-2.713c0-.205.032-.316.095-.363s.174-.079.379-.079h.079v-.284h-1.719v.284h.079c.174.016.268.032.331.095.047.047.079.126.079.3v2.729c0 .205-.032.331-.079.379s-.142.079-.331.095h-.079v.268h1.719v-.205h-.016zm-23.283.095c.205.158.457.205.631.205.457 0 .899-.363 1.183-.584.063.11.142.221.252.331.142.142.316.252.552.252.331 0 .647-.205.789-.316v.221h1.499v-.284h-.079a.964.964 0 0 1-.331-.063c-.079-.047-.11-.095-.11-.221v-.032l.158-2.587 1.546 3.202h.237l.016-.047 1.467-3.155.174 2.571v.032c0 .126-.047.189-.142.237s-.221.063-.363.063h-.079v.284h1.814v-.284h-.079c-.11 0-.205 0-.268-.016-.095-.016-.11-.032-.142-.095s-.047-.205-.063-.426l-.205-2.918v-.032c0-.032 0-.063.016-.079s.032-.032.079-.047c.063-.016.142-.016.252-.032h.079v-.268h-1.073l-1.483 3.139-1.499-3.139h-1.104v.268h.079c.158.016.237.032.268.063s.047.095.047.221c0 .063 0 .126-.016.205l-.158 2.508c-.016.284-.047.457-.095.521-.032.032-.063.047-.126.079-.063.016-.142.016-.268.016h-.016l-.158-.252-.063.047c-.126.079-.221.126-.331.126-.063 0-.174-.079-.284-.221-.11-.126-.205-.3-.316-.473.158-.205.473-.615.71-1.088.047-.079.063-.11.11-.126s.126-.032.284-.032h.158v-.316h-1.167v.3h.205c.063 0 .095 0 .11.016 0 0-.016.047-.047.11-.079.174-.284.473-.552.836a4.778 4.778 0 0 0-.726-.836c.11-.063.221-.126.316-.221.126-.126.221-.3.221-.505s-.11-.379-.268-.489a1.077 1.077 0 0 0-.599-.174c-.237 0-.473.063-.631.205-.174.126-.268.347-.268.599 0 .3.158.521.347.726a1.641 1.641 0 0 0-.536.3c-.205.174-.363.442-.363.836.016.426.189.694.41.836zm1.641-.663c-.174.158-.426.347-.694.347-.347 0-.584-.252-.599-.631 0-.379.252-.615.426-.741.316.331.505.505.615.647.11.158.174.237.252.379zm-.489-1.656a1.897 1.897 0 0 1-.252-.252.479.479 0 0 1-.079-.3.53.53 0 0 1 .063-.237c.047-.063.095-.095.174-.095.047 0 .11.016.174.079.047.063.11.158.11.347-.016.252-.095.363-.189.457zm36.25 6.515c-.284-.189-.521-.363-.694-.568s-.268-.41-.268-.647c0-.505.41-.852 1.041-.852.647 0 1.262.442 1.53 1.12l.016.047h.316l-.189-1.42h-.284l-.016.032-.063.063-.063.016c-.158 0-.268-.063-.473-.126a2.686 2.686 0 0 0-.883-.126c-.521 0-.978.158-1.325.426a1.407 1.407 0 0 0-.536 1.088c0 .457.221.836.521 1.152.457.473 1.136.836 1.704 1.215.284.189.521.379.694.584s.284.426.284.663a.98.98 0 0 1-.41.82c-.237.189-.568.284-.883.284-.741 0-1.404-.489-1.609-1.341l-.016-.063h-.347l.016.095.221 1.577h.284l.016-.032c.032-.047.079-.079.126-.079.016 0 .095.016.174.032.284.079.773.237 1.215.237.599 0 1.12-.189 1.499-.505s.615-.773.615-1.278c0-.489-.205-.868-.521-1.199-.457-.489-1.136-.852-1.688-1.215zm7.856-2.477-.016.063c0 .032-.016.047-.063.063s-.11.032-.174.032h-4.796c-.063 0-.126-.016-.174-.032s-.047-.032-.063-.063l-.016-.063h-.331l-.174 1.767h.331l.016-.063c.079-.442.158-.71.252-.852s.205-.189.394-.189h1.656v4.843c0 .268-.047.426-.142.505-.095.095-.268.142-.568.142h-.442v.347h3.297v-.347h-.442c-.3 0-.473-.047-.568-.142s-.142-.252-.142-.505v-4.843h1.656c.189 0 .284.047.394.189.095.142.189.41.252.852l.016.063h.331l-.174-1.767h-.316zm.599.489h.079c.268.016.442.063.536.142s.142.237.142.489v4.243c0 .331-.032.521-.126.615-.079.095-.237.142-.552.158h-.079v.347h2.587v-.347h-.079c-.331 0-.521-.047-.631-.158-.095-.095-.142-.268-.142-.552v-4.228c0-.331.063-.505.158-.599.11-.095.3-.142.599-.126h.079v-.347h-2.587v.363h.016zm-7.02-5.883c.047.047.079.126.079.3v2.729c0 .205-.032.331-.079.379s-.142.079-.331.095h-.079v.268h1.719v-.284h-.079c-.221 0-.331-.032-.379-.095-.063-.047-.079-.158-.079-.331v-2.713c0-.205.032-.316.095-.363s.174-.079.379-.079h.079v-.284h-1.719v.284h.079c.158.016.268.047.316.095z"/><path d="M85.294 15.822a.999.999 0 0 1-.552.174c-.457 0-.883-.3-1.01-.852l-.016-.063h-.268l.016.095.142 1.041h.221l.016-.032.063-.032s.047.016.11.032c.174.047.505.142.789.142.394 0 .741-.126.994-.331s.394-.505.394-.852a1.11 1.11 0 0 0-.347-.789c-.3-.316-.741-.552-1.104-.789-.174-.11-.331-.237-.442-.363s-.174-.252-.174-.394c0-.316.252-.521.647-.521.41 0 .789.268.962.71l.016.047h.252l-.126-.978h-.221l-.016.032-.032.032h-.032c-.095 0-.158-.032-.3-.079-.126-.047-.3-.079-.584-.079-.347 0-.647.11-.868.284s-.363.442-.347.726c0 .3.142.552.347.757.3.316.741.536 1.104.789.174.126.331.237.442.379.11.126.174.268.174.41a.615.615 0 0 1-.252.505zm-9.118.079c-.063.063-.189.095-.442.095h-.252v.284h3.549l.126-1.12h-.268l-.016.063c-.079.268-.158.442-.252.536s-.205.126-.426.126h-.994c-.11 0-.174-.016-.205-.047s-.063-.095-.063-.221v-1.294h1.01c.126 0 .205.016.237.063.047.047.095.158.11.379v.063h.268v-1.372h-.284v.079c-.016.174-.047.284-.095.331s-.095.063-.205.079h-1.073v-1.42h1.278c.11 0 .174.016.237.095s.126.237.158.505l.016.063h.268l-.063-1.057h-3.234v.284h.221c.205 0 .316.032.363.095s.079.158.079.331v2.713c.032.189 0 .284-.047.347zm11.989-2.682.016-.063c.047-.284.095-.442.158-.536.063-.079.11-.11.237-.11h1.041v3.092c0 .174-.032.252-.079.3s-.158.079-.347.079h-.316v.284h2.177v-.284h-.316c-.189 0-.3-.032-.347-.079s-.079-.142-.079-.3V12.51h1.041c.11 0 .174.032.237.11.063.095.11.252.158.536l.016.063h.284l-.126-1.199h-.252l-.016.063-.016.016c-.016.016-.063.016-.095.016h-3.092l-.11-.016-.016-.016-.016-.063h-.268l-.11 1.199h.237zm-43.428 2.855v-.079h-.189c-.174 0-.3-.016-.363-.047s-.079-.047-.079-.11c0-.016.016-.095.047-.158a1.89 1.89 0 0 0 .079-.221l.347-.962h1.215l.41 1.12a.578.578 0 0 1 .063.237l-.016.063c-.016.016-.032.032-.11.047-.063.016-.174.016-.3.016h-.252v.284h1.925v-.284h-.079c-.158 0-.252-.016-.316-.063s-.126-.126-.189-.284l-1.357-3.612h-.726l.095.221-1.152 3.155c-.095.284-.174.426-.252.489s-.174.079-.379.095h-.079v.284h1.641v-.189h.016zm.016-2.003.442-1.183.442 1.183h-.883zm36.423 2.003v-.079h-.221c-.174 0-.284-.032-.347-.079s-.095-.142-.095-.331v-.994h.252c.158 0 .347 0 .505-.016.047.079.11.158.158.237l.316.521c.11.189.205.347.316.489.016.016.363.473 1.341.473h.079v-.284h-.095a.83.83 0 0 1-.536-.221l-.158-.158-.032-.047-.016-.016c-.016-.016-.426-.71-.726-1.183.489-.189.805-.599.789-1.073 0-.347-.142-.663-.442-.883s-.757-.347-1.357-.347c-.426 0-.552 0-.82.016s-.663.032-.805.032h-.079v.284h.221c.174 0 .268.032.331.079.047.047.079.158.079.347v2.697c0 .205-.032.316-.095.379-.047.047-.158.079-.347.079h-.189v.284h1.972v-.205zm-.662-3.722h.237c.489 0 .773.11.946.284s.237.41.237.694c0 .363-.11.615-.3.757-.189.158-.457.237-.805.237h-.316v-1.972zm14.481-.221v.284h.079c.142 0 .237.016.284.032.047.032.063.032.063.079s-.032.126-.095.221l-.836 1.435-.962-1.483a.525.525 0 0 1-.095-.205v-.016c0-.016.032-.032.095-.047s.142-.016.268-.016h.079v-.284h-1.861v.284h.079c.205 0 .331.032.442.11s.221.205.379.457l1.136 1.767v.883a.49.49 0 0 1-.079.3c-.047.047-.158.095-.347.095h-.205v.284h1.924v-.284h-.158c-.189 0-.3-.032-.347-.095-.063-.047-.079-.142-.079-.316v-.946l1.057-1.783c.174-.284.331-.426.741-.473h.079v-.268h-1.641v-.016zm-40.352 6.246v-.347h-2.492v.347h.079c.41.016.631.079.741.205.11.142.158.394.158.883v2.319c0 .836-.284 1.341-.678 1.656-.41.316-.962.426-1.514.426-.726 0-1.278-.205-1.641-.552s-.552-.868-.552-1.53v-2.745c0-.284.063-.426.158-.521s.284-.126.552-.126h.174v-.347h-2.713v.347h.079c.331 0 .536.032.631.126.095.079.142.237.142.552v2.918c0 .726.252 1.388.757 1.846.505.473 1.246.741 2.208.741 1.104 0 1.861-.331 2.35-.836s.694-1.167.678-1.798v-2.697c0-.316.063-.521.174-.647.126-.126.316-.189.647-.205l.063-.016z"/><path d="M56.316 20.365c-.284-.189-.521-.363-.694-.568s-.268-.41-.268-.647c0-.505.41-.852 1.041-.852.647 0 1.262.442 1.53 1.12l.016.047h.316l-.189-1.42H57.8l-.095.095-.063.016c-.158 0-.268-.063-.473-.126a2.686 2.686 0 0 0-.883-.126c-.521 0-.978.158-1.325.426a1.407 1.407 0 0 0-.536 1.088c0 .457.221.836.521 1.152.457.473 1.136.836 1.704 1.215.284.189.521.379.694.584s.284.426.284.663a.98.98 0 0 1-.41.82c-.237.189-.568.284-.883.284-.741 0-1.404-.489-1.609-1.341l-.016-.063h-.347l.016.095.221 1.577h.284l.016-.032c.032-.047.079-.079.126-.079.016 0 .095.016.174.032.284.079.773.237 1.215.237.599 0 1.12-.189 1.499-.505s.615-.773.615-1.278c0-.489-.205-.868-.521-1.199-.457-.489-1.136-.852-1.688-1.215zm-12.068-2.413c-.268 0-.757.016-1.246.032s-.868.047-1.136.063h-.079v.347h.457c.158 0 .252.032.3.095s.079.174.079.347v4.717c0 .237-.016.363-.079.41-.047.047-.142.079-.331.079h-.11c-.363 0-.647-.174-.868-.363a1.686 1.686 0 0 1-.237-.252l-.063-.079-.016-.032c-.016-.016-.678-1.152-1.152-1.877.773-.268 1.246-.899 1.246-1.641 0-.536-.221-.994-.678-1.325s-1.136-.521-2.066-.521c-.647 0-.852.016-1.262.032s-1.025.063-1.246.063h-.079v.347h.3c.284 0 .442.047.536.142s.142.268.142.568V23.3c0 .331-.047.505-.158.599-.095.095-.268.142-.568.142h-.252v.347h2.981v-.347h-.316c-.268 0-.457-.032-.552-.126-.11-.095-.158-.252-.158-.536v-1.593c.126.016.252.016.426.016.252 0 .552-.016.804-.032.079.126.174.252.252.394l.473.789c.174.284.316.521.489.741.016.016.536.678 1.94.71h2.634v-.347h-.347c-.3 0-.489-.047-.584-.158-.095-.095-.142-.268-.142-.536v-1.656c.268.047.505.063.773.063.757 0 1.372-.189 1.814-.536s.678-.852.678-1.451c0-.394-.126-.868-.521-1.23-.363-.347-1.025-.599-2.082-.599zm-6.594.362c.142-.016.252-.016.426-.016.757 0 1.215.174 1.499.457.284.268.379.663.379 1.104 0 .584-.174.962-.473 1.215s-.741.363-1.278.363h-.252c-.095 0-.189 0-.3-.016v-3.108zm5.979.016c.205-.032.394-.032.615-.032.647 0 1.025.189 1.246.457s.3.631.3 1.01c0 .962-.663 1.656-1.704 1.672-.158 0-.331-.032-.457-.063V18.33zm19.513-2.508c.316-.331.457-.757.442-1.183v-1.735c0-.189.032-.316.11-.394.063-.079.189-.11.394-.126h.079V12.1h-1.672v.284h.079c.268.016.394.047.457.126s.095.237.095.552v1.499c0 .536-.174.852-.426 1.041s-.599.268-.962.268c-.457 0-.804-.126-1.041-.347-.221-.221-.347-.536-.347-.962v-1.783c0-.174.032-.268.095-.316s.158-.079.331-.079h.142v-.284h-1.814v.284h.079c.221 0 .331.032.394.079.047.047.079.126.079.331v1.877c0 .473.158.899.489 1.215.331.3.82.489 1.435.489.741 0 1.246-.221 1.562-.552zm3.581 6.846h-.347l-.016.047c-.663 1.183-1.593 1.436-2.366 1.436a2.53 2.53 0 0 1-1.909-.868c-.505-.536-.82-1.309-.82-2.193 0-.82.252-1.514.71-2.019.457-.489 1.104-.789 1.925-.789 1.057 0 1.877.584 2.193 1.483l.016.047h.331v-.079l-.095-1.514h-.268l-.016.032-.016.016c-.016 0-.047.016-.095.016-.126 0-.347-.095-.678-.189s-.789-.205-1.435-.205c-1.057 0-1.972.363-2.619.962s-1.041 1.467-1.025 2.445c0 .946.379 1.767 1.01 2.335.631.584 1.53.915 2.556.915 1.057 0 1.546-.284 2.051-.284.063 0 .126 0 .189.016h.047l.032-.047c.237-.394.521-1.01.647-1.467v-.095zm-38.112.047c-.663 1.183-1.593 1.436-2.366 1.436a2.53 2.53 0 0 1-1.909-.868c-.505-.536-.82-1.309-.82-2.193 0-.82.252-1.514.71-2.019.457-.489 1.104-.789 1.924-.789 1.057 0 1.877.584 2.193 1.483l.016.047h.331v-.079l-.095-1.514h-.268l-.016.032-.016.016c-.016 0-.047.016-.095.016-.126 0-.347-.095-.678-.189s-.789-.205-1.436-.205c-1.057 0-1.972.363-2.619.962s-1.041 1.467-1.025 2.445c0 .946.379 1.767 1.01 2.335.631.584 1.53.915 2.555.915 1.057 0 1.546-.284 2.051-.284.063 0 .126 0 .189.016h.047l.032-.047c.237-.394.521-1.01.647-1.467l.032-.095h-.347l-.047.047zm11.595-6.846a.999.999 0 0 1-.552.174c-.457 0-.883-.3-1.01-.852l-.016-.063h-.284l.016.095.142 1.041h.221l.016-.032.063-.032s.047.016.11.032c.174.047.505.142.789.142.394 0 .741-.126.994-.331s.394-.505.394-.852a1.11 1.11 0 0 0-.347-.789c-.3-.316-.741-.552-1.104-.789-.174-.11-.331-.237-.442-.363s-.174-.252-.174-.394c0-.316.252-.521.647-.521.41 0 .789.268.962.71l.016.047h.252l-.126-.978h-.205l-.016.032-.032.032h-.032c-.095 0-.158-.032-.3-.079-.126-.047-.3-.079-.584-.079-.347 0-.647.11-.868.284s-.363.442-.347.726c0 .3.142.552.347.757.3.316.741.536 1.104.789.174.126.331.237.442.379.11.126.174.268.174.41a.575.575 0 0 1-.252.505z"/><path d="M35.099 18.772c-.647-.552-1.546-.883-2.508-.883-1.073 0-2.019.363-2.682.978s-1.057 1.483-1.057 2.492c0 .962.426 1.767 1.088 2.319.678.568 1.593.883 2.587.883s1.893-.363 2.556-.978 1.073-1.499 1.073-2.524c.016-.931-.394-1.719-1.057-2.287zm-2.761-.473c1.593 0 2.745 1.262 2.745 3.076 0 .694-.189 1.388-.584 1.909-.379.521-.962.868-1.751.868-1.562 0-2.792-1.278-2.792-3.108 0-.584.174-1.278.552-1.814.394-.536.978-.931 1.83-.931zm-.584-2.225v-.079h-.205a.767.767 0 0 1-.237-.032c-.032-.016-.032-.032-.047-.047 0-.032.047-.142.142-.252l.962-1.152.899 1.12c.126.158.174.268.174.3v.016c0 .016-.032.032-.095.047s-.142.016-.237.016h-.079v.284h2.571v-.284h-.189c-.174 0-.3-.016-.363-.047s-.079-.047-.079-.11c0-.016.016-.095.047-.158a1.89 1.89 0 0 0 .079-.221l.347-.962h1.215l.41 1.12a.578.578 0 0 1 .063.237l-.016.063c-.016.016-.032.032-.11.047-.063.016-.174.016-.3.016h-.252v.284h1.925v-.284H38.3c-.158 0-.252-.016-.316-.063s-.126-.126-.189-.284l-1.357-3.612h-.726l.095.221-1.152 3.155c-.063.158-.095.284-.142.379a.249.249 0 0 1-.063.095l-.032.016-.095-.047-.047-.032-.032-.032c-.252-.205-.631-.678-.931-1.088a30.183 30.183 0 0 1-.536-.726l.789-.962c.363-.457.631-.631 1.025-.631h.079v-.284h-1.704v.284h.268c.079 0 .126.016.158.032l.032.047c0 .063-.079.221-.268.442l-.631.757-.805-1.01a.473.473 0 0 1-.095-.174v-.016c0-.016.032-.032.11-.047.063-.016.158-.016.284-.016h.11v-.284h-2.066v.284h.079c.252 0 .394.032.536.11s.268.221.473.473l.962 1.199-.946 1.152c-.221.268-.379.426-.521.521s-.284.126-.505.142h-.079v.268h1.688v-.189zm3.881-2.003.442-1.183.442 1.183h-.883z"/><path d="M27.101 12.494c.047.063.079.158.079.331v2.713c0 .189-.032.3-.079.347-.063.063-.189.095-.442.095h-.252v.284h3.565l.126-1.12h-.268l-.016.063c-.079.268-.158.442-.252.536s-.205.126-.426.126h-.994c-.11 0-.174-.016-.205-.047s-.063-.095-.063-.221v-1.294h1.01c.126 0 .205.016.237.063.047.047.095.158.11.379l.016.063h.268V13.44h-.284v.079c-.016.174-.047.284-.095.331s-.095.063-.205.079h-1.073v-1.42h1.278c.11 0 .174.016.237.095s.126.237.158.505l.016.063h.268l-.063-1.057h-3.234v.284h.221c.205 0 .316.047.363.095zm53.46 5.883h.079c.268.016.442.063.536.142s.142.237.142.489v4.243c0 .331-.032.521-.126.615-.079.095-.237.142-.521.158-.347 0-.647-.174-.852-.363a1.686 1.686 0 0 1-.237-.252l-.063-.079-.016-.032c-.016-.016-.678-1.152-1.152-1.877.773-.268 1.246-.899 1.246-1.641 0-.536-.221-.994-.678-1.325s-1.136-.521-2.066-.521c-.647 0-.852.016-1.262.032s-1.025.063-1.246.063h-.079v.347h.3c.284 0 .442.047.536.142s.142.268.142.568v4.212c0 .331-.047.505-.158.599-.095.095-.268.142-.568.142h-.252v.347h2.981v-.347h-.316c-.268 0-.457-.032-.552-.126-.11-.095-.158-.252-.158-.536v-1.593c.126.016.252.016.426.016.252 0 .552-.016.805-.032.079.126.174.252.252.394l.473.789c.174.284.316.536.489.741.016.016.521.663 1.893.71h2.571v-.347h-.079c-.331 0-.521-.047-.631-.158-.095-.095-.142-.268-.142-.552v-4.228c0-.331.063-.505.158-.599.11-.095.3-.142.599-.126h.079v-.347h-2.587v.331h.032zm-4.369-.063c.142-.016.252-.016.426-.016.757 0 1.215.174 1.499.457.284.268.379.663.379 1.104 0 .584-.174.962-.473 1.215s-.741.363-1.278.363h-.252c-.095 0-.189 0-.3-.016v-3.108z"/><path d="m22.652 13.219.016-.063c.047-.284.095-.442.158-.536.063-.079.11-.11.237-.11h1.041v3.092c0 .174-.032.252-.079.3s-.158.079-.347.079h-.316v.284h2.177v-.284h-.316c-.189 0-.3-.032-.347-.079s-.079-.142-.079-.3V12.51h1.041c.11 0 .174.032.237.11.063.095.11.252.158.536l.016.063h.284l-.126-1.199h-.284l-.016.063-.016.016c-.016.016-.063.016-.095.016h-3.092l-.11-.016-.016-.016-.016-.063h-.268l-.126 1.199h.284zm50.621 10.68c-.095-.095-.158-.3-.158-.647v-4.133c0-.3.047-.489.126-.584.095-.095.252-.142.552-.158h.079v-.347h-2.713v.347h.268c.3 0 .473.047.568.142s.142.252.142.505v1.877h-3.754v-1.656c0-.379.032-.599.126-.71s.268-.158.615-.158h.079v-.347h-2.524v.347h.079c.268.016.426.063.521.158.095.079.126.221.126.473v4.385c0 .284-.047.426-.142.521s-.268.126-.568.126h-.142v.347h2.666v-.347h-.11c-.331 0-.505-.063-.584-.174-.095-.11-.126-.316-.126-.631v-1.814h3.754v1.94c0 .252-.032.426-.126.521s-.268.158-.584.158h-.394v.347h2.981v-.347h-.174c-.316 0-.489-.032-.584-.142z"/></svg>