<svg xmlns="http://www.w3.org/2000/svg" xmlns:xlink="http://www.w3.org/1999/xlink" width="1000" height="1000"><style>.B{stroke:#b19672}.C{stroke-miterlimit:3.864}.D{fill:none}.E{fill:#b19672}.F{fill:#fff}.G{fill-rule:evenodd}.H{stroke-width:.153}.I{stroke-width:1.526}.J{stroke-width:1.826}.K{stroke-width:2.126}.L{stroke-width:1.594}.M{stroke-width:1.189}</style><path fill="rgba(255,255,255,0)" d="M0 0h1000v1000H0z"/><g transform="translate(499.996 499.995) scale(2.6693)"><path d="M123.906-173.097V11.151c.295 95.538-68.211 144.094-122.26 164.56-53.938-20.471-122.623-69.027-122.507-164.565v-184.242z" class="F"/><path d="M1.646-17.781c6.85.011 28.3 4.504 35.492 4.619 7.039-.11 21.708-4.551 30.867-4.372 8.849.258 33.293 4.262 39.133 4.372 5.298-.11 15.189-1.31 20.419-3.157v-31.604c-5.23 1.663-15.121 2.862-20.419 2.92-5.835-.058-30.283-4.062-39.133-4.377-9.16-.126-23.828 4.319-30.867 4.377-7.192-.058-28.642-4.556-35.492-4.619-6.929.063-28.384 4.561-35.482 4.619-7.124-.058-21.792-4.504-30.878-4.377-8.928.316-33.372 4.319-39.133 4.377-5.372-.058-14.937-1.121-20.171-2.92v31.841c5.235 1.747 14.8 2.804 20.171 2.92 5.761-.11 30.205-4.114 39.133-4.372 9.086-.179 23.754 4.262 30.878 4.372 7.097-.11 28.553-4.609 35.482-4.619m0 56.153c6.85.095 28.3 4.593 35.492 4.614 7.039-.021 21.708-4.461 30.867-4.13 8.849.11 33.293 4.109 39.133 4.13 4.509-.021 13.263-1.105 17.988-2.189 3.209-8.229 2.399-32.609 2.431-32.567-5.366 1.736-15.121 2.957-20.419 2.92-5.835.037-30.283-3.967-39.133-4.13-9.16-.279-23.828 4.167-30.867 4.13-7.192.037-28.642-4.467-35.492-4.372-6.929-.095-28.384 4.409-35.482 4.372-7.124.037-21.792-4.409-30.878-4.13-8.928.163-33.372 4.167-39.133 4.13-5.372.037-14.805-.873-20.171-2.673.037.021-1.447 10.996 2.431 32.567 4.725 1.142 13.148 1.92 17.741 1.941 5.761-.021 30.205-4.025 39.133-4.13 9.086-.331 23.754 4.109 30.878 4.13 7.097-.021 28.553-4.519 35.482-4.614m0 55.658c6.85.005 28.3 4.504 35.492 4.619 7.039-.11 21.708-4.435 30.867-4.372 8.713.137 26.874 2.904 36.46 3.888a145.21 145.21 0 0 0 14.579-31.599c-2.762.305-8.15.316-11.911.237-5.835-.247-30.283-4.056-39.133-4.372-9.16-.126-23.828 4.319-30.867 4.372-7.192-.053-28.642-4.551-35.492-4.614-6.929.063-28.384 4.561-35.482 4.614-7.124-.053-21.792-4.498-30.878-4.372-8.928.316-33.372 4.319-39.133 4.372l-11.422-.479c3.746 11.533 8.744 22.087 14.589 31.841l35.966-3.888c9.086-.184 23.754 4.262 30.878 4.372 7.103-.11 28.558-4.614 35.487-4.619M-120.86-173.098h244.767V-71.25H-120.86z" fill="#004685"/><g class="B C D"><path d="M-120.861-173.097h244.767v101.841h-244.767z" stroke-width="1.068"/><path d="M-124.749-67.657h251.091" stroke-width="8.513"/><path d="M3.109 179.641c58.252-19.84 125.085-76.84 125.174-168.69v-187.893h-252.301V10.945c.105 91.85 68.732 148.855 127.126 168.695z" stroke-width="8.297"/></g><use xlink:href="#B" class="F"/><use xlink:href="#B" stroke-width="3.036" class="B C D"/><g class="E"><path d="m-74.678-92.4 2.678-.979-3.888-26.006z"/><path d="M-74.678-92.4c6.071 2.762 22.165.942 22.118.973.047-.032-14.7-.168-20.903-2.92zm6.077-4.362 1.947-.984-3.404-26.253 1.457 27.221z"/><path d="M-68.601-96.777c6.182 2.757 22.244 1 22.365.973-.121.032-14.447.116-20.661-2.673z"/></g><path d="m-63.735-163.621-9.965-.973 1.452 4.614h8.513z" class="F G"/><path d="m-63.735-163.621-9.965-.973 1.452 4.614h8.513z" stroke-width="1.678" class="B C D"/><g class="E"><path d="m77.245-90.943-2.199-1.947 2.441-28.437z"/><path d="M77.245-90.943c-6.071 2.762-22.991.337-23.091.242.1.1 14.816.526 20.892-2.431z"/><path d="M11.853-93.379c0-.011 23.323-1.915 34.035 2.925-12.474-2.494-31.951-1.163-31.846-1.21zm-5.098-4.614c-.105.063 23.06-2.51 34.035 3.157-14.005-3.546-31.662-1.394-31.604-1.447z" class="G"/></g><path d="M-9.292-87.302a3.105 3.105 0 0 0 2.92 4.14c.126.005 12.527.81 13.605 0 2.762-.989 3.404-2.294 3.167-3.651-.958-4.198-8.271-9.407-9.97-9.475-1.699.068-8.344 4.714-9.723 8.986" class="F"/><path d="M-9.292-87.302a3.105 3.105 0 0 0 2.92 4.14c.126.005 12.527.81 13.605 0 2.762-.989 3.404-2.294 3.167-3.651-.958-4.198-8.271-9.407-9.97-9.475-1.699.068-8.344 4.714-9.723 8.986z" class="B C D I"/><use xlink:href="#C" class="F"/><use xlink:href="#C" class="B C D K"/><path d="M.937-95.278c1.689.274 4.03 1.473 1.952 2.883-6.171.658-6.94.968-1.952 1.941l2.92.247c.063 0 4.961 1.378 1.941 2.183-10.612.268-10.002.731-4.125 1.699l4.372.737c.016-.026 2.42 2.115-1.941 2.667.826-.121 3.03 0 3.157 0 2.694-.994 3.125-2.315 2.683-3.646-.763-4.235-6.887-9.149-8.513-9.233H.458l-2.425.968c.679-.11 1.342-.426 2.02-.489.242-.032.547-.016.884.042m93.565-11.953c-.379-1.315.147-2.746 1.215-3.162.905-.263 1.978.621 2.425 1.947.231 1.536-.305 2.973-1.215 3.399-1.052.253-2.131-.631-2.425-2.183m13.132.484c-.242-.936.163-2.026.968-2.425.8-.2 1.705.405 1.941 1.457.379 1.042-.011 2.136-.721 2.431-.9.31-1.805-.3-2.189-1.463m-16.536-7.529 1.457 11.422.726-12.395zm9.239 2.673 1.21 10.933.973-10.207z" class="E"/><path d="m42.126-167.515-8.991-1.21-3.646-.242c-18.262-.652-27.947 7.965-27.947 8.023-19.361-9.807-31.551-7.381-31.604-7.292-30.715 5.808-36.113-.095-36.213 0 .1-.095-.716 53.754 11.006 59.515.042-.032-6.44 14.153 13.784 9.27 26.032-6.624 42.474-.5 42.537-.484-.063-.016 14.979-4.23 41.716.8-.1-.021 14.963 2.268 21.971-2.02l3.162-64.655c-3.467.768-7.823.616-9.481.731-5.466-.11-12.322-2.083-16.294-2.436" class="F"/><g class="B C D I"><path d="m42.126-167.515-8.991-1.21-3.646-.242c-18.262-.652-27.947 7.965-27.947 8.023-19.361-9.807-31.551-7.381-31.604-7.292-30.715 5.808-36.113-.095-36.213 0 .1-.095-.716 53.754 11.006 59.515.042-.032-6.44 14.153 13.784 9.27 26.032-6.624 42.474-.5 42.537-.484-.063-.016 14.979-4.23 41.716.8-.1-.021 14.963 2.268 21.971-2.02l3.162-64.655c-3.467.768-7.823.616-9.481.731-5.466-.11-12.322-2.083-16.294-2.436z"/><path d="M66.791-147.338c-.047-9.97-8.165-18.146-19.14-19.261 4.077.416 7.56 6.55 7.476 12.701 6.719-.121 11.617 2.852 11.664 6.561zM1.383-161.354.92-99.934"/></g><g class="E"><path d="M-49.393-98.235c-1.405-.5-5.761-1.136-8.513-3.888-1.273-1.278-3.315-2.778-4.13-8.018.068.095-3.735-43.358-3.646-44.973-.089 1.615 2.22 48.056 2.183 48.124 1.289 5.345 3.714 7.092 6.566 8.023 5.698 1.852 6.077.21 7.539.731m18.714-54.932 2.673-2.194 2.431 2.436c-.858.495-.952 1.652-.973 1.705v11.664c.095-.042.337 1.568 2.431 2.425-.084-.089-2.394.542-3.157 1.947-1.031-1.121-2.536-1.82-3.404-2.189-.021-.095 1.563-.489 1.215-2.431v-11.417c.016-1.442-.079-1.131-1.215-1.463z"/><path d="M-20.714-140.53v-9.723c-.184-1.384 1.147-1.862 1.215-1.941-1.357-.789-1.862-1.321-2.92-2.431-.742 1.394-2.383 2.131-2.431 2.189 1.478.705 1.173 2.141 1.215 2.183v10.933c-.089.084-.284 1.342-2.189 2.183-.105-.079 2.052.936 3.646 2.441.952-1.273 2.625-2.278 3.404-2.683.11-.063-1.389-.089-1.941-1.447z"/><path d="M-7.834-138.341v-9.728c-.074-1.552 1.431-1.657 1.463-1.699-.921-.431-2.631-1.373-3.651-2.425-.773 1.336-4.861 3.083-4.861 3.157 4.214-1.152 4.214 1.763 4.141 1.699v10.454c.037.068.347 2.231-1.221 2.189-.063.042 1.473.768 2.189 2.189 1.084-1.136 2.336-1.741 3.157-2.189.068-.026-1.036.063-1.215-1.941z" class="G"/><path d="M-2.483-136.636v-9.723c-.21-1.689 1.294-1.799 1.215-1.705-.81-.558-2.183-1.452-3.162-2.673-.815 1.505-4.593 2.883-4.614 2.92 4.046-.289 3.593 1.515 3.641 1.457v11.175c-.089-.063.237 1.663-1.699 2.436-.074 0 1.463.731 2.189 2.189 1.073-1.173 3.393-2.41 4.135-2.92-.011-.074-2.02-.405-1.705-1.705z"/><path d="M-19.009-150.494c.032.042 2.536-.521 3.888-2.92v.731c2.231 1.689 1.91 1.741 1.941 1.705v11.917c.005-.063-.542 2.083 1.457 2.915.011-.063-1.342 1.089-2.189 2.425-.947-1.047-2.662-1.994-3.646-2.425.105-.042 1.457-.226 1.457-1.947v-11.433c-.068-1.631-2.083-.936-2.909-.479z" class="G"/></g><path d="M-78.077-159.002h-5.351l3.651 71.7c6.098 2.757 19.835 2.199 19.929 2.189-1.268.11 20.955-1.81 22.36-2.189-.074.005 19.84-3.257 24.065.247m92.366-70.732h5.351l-3.888 71.463c-6.161 2.71-20.292 1.505-20.266 1.426-.032.084-13.711-1.079-21.787-2.152.105.016-16.957-2.073-22.36.484" class="B C D I"/><g class="E"><path d="m72.62-96.53-2.189-1.215 2.189-24.796z"/><path d="M72.62-96.53c-9.386 4.809-26.622 1.3-26.737 1.21.116.089 18.567 1.615 25.033-3.162z"/></g><path d="M-71.689-160.98v3.157l4.704.242-.105-4.367-4.419.758z" class="F"/><g class="E"><path d="m-71.758-165.079-2.952-.463 3.678 31.088z"/><path d="M-43.079-164.11c-.089.074-.463-.547 0-.479 4.856 1.242 3.614 5.672 3.651 5.593-1.542 3.457-5.877 2.683-7.539 1.947v21.14c1.352-.337 1.405 0 2.189-1.699-.084.005-.142-1.542 0-1.447.1-.095.931 1.515.973 1.689.053 2.599-1.82 3.614-2.92 4.135v1.215c.526 1.815 1.142 2.783 3.162 1.457-1.636-1.715 1.552-2.736 1.947-.979.7 3.735-3.862 3.141-4.135 3.162-1.636-.563-2.573-1.052-2.915-4.372-8.549 1.142-11.322-6.85-11.427-6.808-3.051-9.849 8.507-20.077 8.513-20.177-.894-.289-1.357-.637-1.331-.726-.026.089-5.424-2.741-3.046 4.13-.205.437-.358.395-.489.484-.189-.089-.305-.289-.484-.484-.353-1.1-2.083-6.54 3.651-7.045-.037-.068 2.973-.547 7.292 2.915.074-.089 3.541 2.204 4.372 0 1.273-1.878-1.552-3.583-1.463-3.651" class="G"/></g><path d="M-55.233-150.252c.295-1.136 1.552-6.682 4.377-8.507 1.847.884 1.342 1.026 1.463.973v21.871c-8.092-.721-7.676-8.692-5.84-14.337" class="F G"/><g class="E"><path d="M26.685-132.748c.579-1.068 1.347-2.778 2.915-2.678 1.405-.016 2.846.516 3.651 1.947 10.433-5.461 7.934-11.264 2.183-13.127.026 1.757-1.983 1.931-3.646 1.947-.91-.016-2.368-.142-2.915-.973-1.3-1.557-.737-2.62-.737-3.893.184-.179 2.62 1.257 3.893.979 4.377 1.11 6.95-2.878 7.05-5.829-.1-1-1.047.484-1.215.968-2.631 5.182-6.971.831-7.045.731.074.105-2.273 1.773-4.872 2.683 0-.084-2.878 5.703 1.221 9.233.042-1.563 1.983-2.189 3.646-2.189.389 0 3.178.642 3.883 1.21-.1-.074 3.43 2.404-.979 6.077-2.078-1.578-1.694-2.341-4.13-2.431s-3.667 1.515-4.614 4.372z"/><path d="M-44.778-150.736c-.047.042 2.089-.521 3.404-2.92 2.236 1.747 1.894 2.883 1.947 2.92v11.422c-.032.121-.216 1.599 1.699 2.436.095-.074-1.584 1.231-2.431 2.678-.952-1.152-2.262-1.778-3.157-2.189.011-.058 1.205-.5.968-2.431v-10.943c-.037-1.636-1.684-.947-2.431-.484z" class="G"/><path d="M-34.082-140.53v-9.965c-.142-1.61.989-1.857.968-1.936-.863-.384-1.91-1.242-2.915-2.431-.789 1.468-2.247 2.373-2.189 2.431 1.952.716 1.189 1.663 1.215 1.694v11.422c-.026.021-.21 1.668-2.189 2.436-.032.005 1.71.331 3.404 2.189 1.142-1.52 2.631-2.546 3.404-2.925.116-.1-2.083-.51-1.699-2.189z"/></g><use xlink:href="#D" class="F"/><use xlink:href="#D" class="B C D J"/><use xlink:href="#E" class="F"/><use xlink:href="#E" class="B C D K"/><use xlink:href="#F" class="F"/><use xlink:href="#F" class="B C D J"/><path d="M-107.971-147.09c-.405-3.409 2.268-5.877 5.587-6.077 3.483-.331 6.455.905 6.803 4.13.026.652-.784 2.115-1.457 2.189-.537.021-1.599-.936-1.705-1.457-.153-2.157-1.794-2.331-3.151-1.947-2.147.137-3.03 1.542-2.925 3.893.116-.11.81 7.171.973 7.776.095 2.073 1.163 3.53 3.404 3.399 2.12-.216 2.236-2.846 2.189-2.915-.005-.479 1.179-.947 1.699-.968.684-.079 1.768.621 1.705 1.931.21 3.336-2.015 4.835-5.345 5.114-3.478.268-6.84-2.378-7.055-5.593-.163-.658-.779-9.291-.721-9.475" class="F"/><path d="M-107.971-147.09c-.405-3.409 2.268-5.877 5.587-6.077 3.483-.331 6.455.905 6.803 4.13.026.652-.784 2.115-1.457 2.189-.537.021-1.599-.936-1.705-1.457-.153-2.157-1.794-2.331-3.151-1.947-2.147.137-3.03 1.542-2.925 3.893.116-.11.81 7.171.973 7.776.095 2.073 1.163 3.53 3.404 3.399 2.12-.216 2.236-2.846 2.189-2.915-.005-.479 1.179-.947 1.699-.968.684-.079 1.768.621 1.705 1.931.21 3.336-2.015 4.835-5.345 5.114-3.478.268-6.84-2.378-7.055-5.593-.163-.658-.779-9.291-.721-9.475z" class="B C D L"/><g class="E"><path d="M21.334-156.082c-.021.137.216 13.821.489 23.333-.147 1.473.405 1.189 1.452 1.694-.1-.016-.379-.053-.726.984-1.421-.274-1.947-.984-1.947-.984-.011-.068.573.652-.973 1.463-1.384-.11-1.689-.479-1.705-.484-.158-.21 1.415.321 1.463-2.92.321-7.118-.189-19.214-.484-22.855z" class="G"/><path d="M20.119-155.361c-9.128-2.552-9.617 9.444-9.717 9.486.1-.042 1.763-.716 3.399-.973l6.071-1.699c1.899-.458.779 2.725.731 2.673.053.053-1.931-.105-5.835.737l-3.883.721c-.416 3.199 2.478 9.554 7.534 10.212 3.425.484 5.077-1.079 6.324-3.173.11-.068.91.705.973.742-.063-.037-1.684 4.63-7.297 4.614-9.628.205-13.5-5.135-13.369-11.911-.189-6.498 3.678-15.168 15.068-13.121.579.11 2.404-.021 2.678-1.215.568-1.647-.668-2.504-1.694-2.673-1.836-.216-.421-.884.237-.984 4.588.1 7.55 8.392-1.221 6.566m76.324 12.401c.074-1.357.852-2.52 1.699-2.431 1.068-.089 1.847 1.073 1.952 2.431-.11 1.494-.879 2.646-1.952 2.678-.847-.032-1.631-1.189-1.699-2.678m12.153-5.829c.684-.268 1.641.353 2.189 1.452.337.868.121 1.847-.495 2.194-.821.095-1.778-.526-2.178-1.463-.489-1.031-.274-2.01.484-2.183m-15.067-1.95.242 11.422 2.189-10.212zm9.475.484 1.215 8.991.489-10.696zm-180.112-13.369-2.667.731 3.404 31.351zm46.914 35.734c1.626-.773 2.236.979 2.189 1.452-.121.505-.652.979-.968.973-.547.253-.8.2-1.221 0-.452-.189-.752-.868-.731-1.21.053-.505.237-.968.731-1.215"/></g><path d="M-47.693-119.622c.279.479.694.263-.489 2.183-.521-.458-1.015-.831-1.21-1.21-.779-.616-1.168-1.352-1.705-2.673.826.558 2.468.973 3.404 1.699" class="F"/><path d="M56.815-129.35c.679-.474 1.463-.4 1.941 0 .547.421.926 1.273.742 1.947-.2 1.121-1.552 1.194-2.189.973-.342.026-.968-.31-1.215-.973-.153-.921-.074-1.636.721-1.947m1.947 23.823c.679-1.41.894-2.525.495-3.646-.463-.731-1.489-1.1-2.189 0-.137.474-.258 1.51.973 1.941-.51 2.799-3.899 1.31-2.431-1.699 1.205-2.441 2.804-6.05.489-8.265-3.251-2.21-5.33.61-5.829 1.947-.305.526.474 1.352.973.495.274-1.268 2.552-3.046 3.893-.979.568 1.647-.847 3.383-1.463 4.856-.91 1.815-1.231 3.856 0 5.593.552.71 1.978 1.221 3.157 1.21.595-.189 1.226-.205 1.931-1.452m-16.278-32.572v-13.121c-.074-.11-.3-.289-.484-.247h-2.194c0-.042 2.168-1.457 4.135-7.045l1.457 4.367c-.032.168.126.431.247.489l3.151-.242-1.452 2.431h-1.694c-.205-.089-.258.074-.247.247l-.247 12.637c-.184 1.957 2.404 2.383 2.436 2.431-.894.437-3.246 1.799-4.141 2.915-.863-1.41-2.652-2.168-2.662-2.189 1.973-.768 1.652-2.546 1.694-2.425zM8.207-126.914c-.442-.347-2.888-8.197-3.157-17.504.184-.047 2.846.626 2.667.973 1.068 9.06 3.504 15.652 3.646 16.773.331.474 6.061 4.83 8.023 4.619 1.647-.242 2.31-.805 2.431-1.947.089-1.526-1.931-2.299-3.162-.242.563-4.525 5.14-2.431 5.345 0-.016 2.615-2.005 3.746-3.888 4.13-4.272.936-6.94-2.231-7.287-2.431.047.547 3.662 7.392 5.587 8.265.689.337 2.957-.452 3.404-1.221.326-.621.631-1.726-.726-1.941-.521-.1-.926.458-1.221.737-.142.137-.063-2.499 2.678-1.457.779.531 1.115 1.094 1.215 1.941.021 1.305-.731 2.494-1.705 3.157-.437.216-1.042.768-1.705.742.053.042 1.584 1.389 3.167 1.694.368-.363.768-1.857 1.457-1.694.326.105 2.888.221 2.92.484.237.237-.579 2.152-.247 2.189.852.189 6.177-.363 7.539-.737 2.225-.463 4.025-3.009 4.377-5.109.116-.9.042-1.878-.737-2.667-.205-.331-.626-.468-.973-.242-.342.084-.431.4-.242.968-.011.31-1.378-.179-2.189.979-.71 1.61 1.058 1.789 1.457 1.947.053.426-.8.668-1.457.484-1.205-.11-2.162-1.189-1.941-2.673.168-1.62 1.684-2.104 2.183-2.194.158-.095-.126-1.531 1.699-1.936.242-.126.689-.068.731 0-.936-1.152-3.709-2.578-5.345-2.436-1.315.026-3.115.363-2.92 2.189.331 1.442 1.531 1.789 1.699 1.694-.284-.358-.579-.721-.484-1.205.342-.295.91-.331 1.452-.242.752-.095.726 1.378.489 1.689-.737.747-1.252.737-2.183.742-.721.032-1.726-.652-2.441-1.705-1.063-2.489.758-3.62 1.215-3.888-.253-.568-3.935-.915-2.915-1.457a11.938 11.938 0 0 1 4.377.731c1.294-.358.931-.295 2.189-.247.353-2.72 3.388-2.909 4.856-3.399 2.594-.868 3.751-3.678 3.399-2.183-.71 3.409-3.436 3.814-4.367 3.888-.389.184-1.531.605-1.705 2.189a10.05 10.05 0 0 1 1.457.484c.389-.742 1.394-1.663 2.189-1.457 1.179.247-.547 1.647-.247 2.431.968.61 1.857 1.426 2.189 2.436.342.563.531 1.1.731 1.694.258-.216 1.421-3.614 4.856-4.867-.11-.31-.421-1.442-1.694-1.21-.631.042-.437.279-.973 1.21-.258-.779-.268-1.836.484-2.183.668-.358 1.436-.342 2.183 0 .589.458 1.363.768 1.463 1.705 1.336-.132 2.815-.458 4.377-.242-.011-.973-1.079-1.947-.731-2.189 1.015-.573 1.499 1.763 3.404 2.673 1.226.821 1.1 1.91.726 2.678-.347.331-1.168.458-1.21.489.321-.7.379-1.305-.484-1.947-.132-.153-1.026-.573-2.436-.489-.9.121-2.925.884-2.925.973.495.647.758 1.641 0 2.431-1.278 1.268-2.041.631-2.915 0-2.015 1.426-2.767 4.756-2.909 6.561 1.499-.258 3.393-.979 4.851.984.794.858 1.599 3.372-.237 5.098-.873.689-3.236 1.647-4.872 1.705-.263-.11 4.214-2.457 3.651-4.13-.426-.552-.353-1.315-1.947-1.463-1.499-.163-2.047-.016-3.157.489-1.021.452-1.926 1.121-2.683 1.699.626.621 1.542 2.641 0 2.92-1.373-.068-2.32-1.41-2.915-1.699-3.867.7-5.987.91-9.481.484-.447.905-1.058.437-1.705 1.463-.447-1.336-.563-1.336-1.447-1.947-1.647-.342-2.062-.673-3.404-1.457-.189-.153-2.247 1.452-3.404.731 1.079.005 1.163-1.142 1.215-1.947-.274-.779-1.115-1.257-1.699-1.694-.752.368-.979 1.236-.726 1.941-1.168.726-3.993-1.699-3.404-2.925.721.068 2.304-.474 2.425-1.689.216-1.399-1.242-1.999-1.447-2.199-2.194 2.694-4.493 2.236-7.781 1.221 6.966-.216 5.303-4.346 5.593-4.619l-2.194-.484c.568-.537 1.236-2.052.979-1.947-.426-.079-1.331-.768-1.699-.984.068-.342.873-.137.742-3.178M-41.864-92.4c.011.095-.31 3.251-.484 4.619a116.023 116.023 0 0 1-2.673 8.26c.1-.116 2.662 1.689 7.045 4.856.579.253 7.86-4.819 8.023-4.856.21-.142-4.34-7.687-4.377-8.755l.247-5.345c-.105-.142-7.771 1.315-7.781 1.221" class="E"/><path d="M-42.348-93.858c-.116.021.242 1.505 0 2.915-.216 1.331-2.625 6.918-2.673 6.808.047.11 3.514 3.315 7.292 5.351.495.174 7.776-4.861 8.018-4.867.132-.179-4.504-6.75-4.619-7.776l.247-3.888c-.105-.284-8.381 1.478-8.265 1.457" class="F"/><path d="M-42.348-93.858c-.116.021.242 1.505 0 2.915-.216 1.331-2.625 6.918-2.673 6.808.047.11 3.514 3.315 7.292 5.351.495.174 7.776-4.861 8.018-4.867.132-.179-4.504-6.75-4.619-7.776l.247-3.888c-.105-.284-8.381 1.478-8.265 1.457z" class="B C D J"/><g class="F"><path d="M-45.989-91.427c.053-.068 9.654-2.126 12.874-2.189 3.178.063-.158-3.593-.237-3.651l-10.943 1.705z"/><use xlink:href="#G"/></g><use xlink:href="#G" class="B C D M"/><path d="M-105.787-111.846c-.195-3.236 2.562-5.608 6.077-5.84 3.309-.068 6.235 1.284 6.319 4.619.147.547-.71 1.978-1.21 1.947a1.948 1.948 0 0 1-1.705-1.457c-.195-2.126-1.836-2.357-3.162-2.178-2.189.216-3.125 1.589-2.915 3.878-.068-.047.368 7.255.489 7.781.042 2.157 1.063 3.651 3.151 3.641 2.278-.189 2.489-2.809 2.436-2.915.016-.447 1.215-.873 1.941-.979.484.053 1.542.784 1.215 2.189.316 3.241-1.962 4.672-5.345 4.867-3.436.11-6.708-2.657-6.808-6.077-.137-.458-.452-9.107-.484-9.475" class="F"/><path d="M-105.787-111.846c-.195-3.236 2.562-5.608 6.077-5.84 3.309-.068 6.235 1.284 6.319 4.619.147.547-.71 1.978-1.21 1.947a1.948 1.948 0 0 1-1.705-1.457c-.195-2.126-1.836-2.357-3.162-2.178-2.189.216-3.125 1.589-2.915 3.878-.068-.047.368 7.255.489 7.781.042 2.157 1.063 3.651 3.151 3.641 2.278-.189 2.489-2.809 2.436-2.915.016-.447 1.215-.873 1.941-.979.484.053 1.542.784 1.215 2.189.316 3.241-1.962 4.672-5.345 4.867-3.436.11-6.708-2.657-6.808-6.077-.137-.458-.452-9.107-.484-9.475z" class="B C D L"/><use xlink:href="#H" class="F"/><use xlink:href="#H" class="B C D M"/><path d="M-10.265-94.1c.032.074-18.03-2.752-33.298 2.183 16.883-2.268 31.241-.484 31.357-.484zm-30.862-14.1-2.431-1.594-.915-.484c-.237-.116-.51-.289-.768-.337.079.147.095.31.132.468.116.463.068.868-.132 1.31a1.84 1.84 0 0 1-.374.531c-.15.157-.324.291-.516.395-.174.079-.368.105-.547.147a9.31 9.31 0 0 1-.526.053c.095-.242 1.058-.668 0-1.457-1.389.158-2.641-.873-2.436-2.189.295.247.705.684 1.215.731.495-.421.905-.642.484-1.452-.179-.768-.563-1.2-1.699-1.705-.51-.021-1.805.479-1.705-.242.063-.316.773-.9.489-1.463-2.162-1.994-5.593-8.449-7.287-12.879-.947-3.046-1.179-4.525-1.952-7.776-.11-1.142-.463-6.761.247-7.781.026-.032 1.589.011 1.705 0 .063.479-.289 3.525.484 6.077 1.957 6.534 3.062 10.412 4.377 12.39.526.573.952 2.315 1.936 2.431.51.079.71-.652 1.215-.484.689.1.31 1.005.737 1.21.452.484.673.452 1.699.979 1.357.668 2.436-.326 2.673-.253.221-.053.694-.174.726.253-.047.894.032 1.026.242 1.452.558.61 2.047 1.284 3.646.973.973-.289 2.878-.884 2.678-2.678-.358-.726-.489-1.2-1.699-1.205-.268-.068-.679-.074-.979.242.079.347.247.579.247.731-.1.442-.147.789-.968.731-.81.011-1.121-.589-1.221-.973-.137-.821.731-1.647 1.941-1.947 1.862-.237 2.904.132 3.651.973 2.341 3.793-2.289 5.524-3.157 5.593.079-.042.431 1.399.721 1.941.053.263-.195.3-.484.247.1.068-2.725-1.394-3.157-1.705-.952-.337-2.299-.784-2.436-.968a6.959 6.959 0 0 0-.968 1.699c-.1.305-.479.737-.247.973 1.373 1.289 2.831 2.178 4.619 2.925.31-.126.684-.184.973-.5.452-.3.879-.884.731-1.447.037-.163.353-.068.484 0 1.873 1.273-.163 2.468 0 2.673.752.137 4.325-.11 5.103-.726l.973-.984c.153-.063 1.094.084 1.215.242.384.389.047.842 0 1.221 1.384.11 3.693-.452 4.861-1.947.973-1.394 1.463-3.714.973-5.593-.263-.873-.61-1.852-1.705-2.189a2.7 2.7 0 0 0-3.157.742c-.547.689-.389 1.868.247 2.183-.053.037.1-.547.968-.737 1.363.126 1.263 1.589.484 1.947-.284.174-.847.316-1.941-.247a3.42 3.42 0 0 1-1.215-2.183c.126-.537.195-2.741 3.157-3.399 1.615-.174 1.573.068 2.436 0-.016-1.084.368-2.604 2.425-2.92-.989 1.726-.142 3.73 1.215 5.109.547.831.763 1.673.973 2.678.4-.468.889-1.305 1.463-2.189 1.226-1.421 1.852-1.768 3.399-2.92 1.526-.768.926-2.273-.484-2.678-.821-.1-1.71-.11-2.189.495-1.036.51-.526 2.778-.489 2.915s-.8-.616-.968-1.947c0-.926.789-2.468 1.941-2.673 1.336-.284 3.183-.137 4.135.973.521.279.742.984.731 1.452-.116.095 3.162-.673 4.856-.484.721-.51 1.599-.894 2.431-.731 1.221.095-.358 1.252-.242 1.21 1.81.6 3.125 1.973 3.409 3.651.689.147 1.641.347 1.699.973.226 1.152-.994.826-1.463.731.61 2.867-.505 5.209-.726 5.351 1.147.268 2.399.768 2.915 1.447.289.763.068.936 0 1.221-.437.2-.7-.189-.973-.242-.71-.563-1.678-.873-2.431-.984-.552.284-1.042.389-1.457.742-.889.221-.905 1.247-.731 2.431.452.605.295.915 0 .973-.41 0-.663-.247-.973-.489-.247-.516-.458-.537-.721-1.705-.237.31-2.194 1.221-3.651 1.457-1.794.342-2.92-.195-2.92-.237 2.952-.421 5.056-1.426 6.077-2.925-1.62.316-3.078.547-4.614-.968-.837-.794-.779-2.257-.247-3.162a3.47 3.47 0 0 1 2.678-1.457c.758-.016 1.426.358 1.699.726.458.684.289 1.442-.237 1.941-.368.331-.91.384-1.463 0-.116-.158-.331-.442-.242-.726.053-.368.495-.768.484-.737-.237-.163-.673-.089-.968 0-.894.526-1.426 1.3-.737 2.441.673 1.173 3.935 1.342 5.835-.495 1.573-1.557 1.489-3.53 1.215-5.345-2.457 1.784-2.82.5-2.425.242.253-.358 1.878-1.063 1.21-2.431-.216-.679-1.41-.926-1.941-.973-1.868-.253-3.441-.005-4.861.731.395.11.963.221 1.215.484.531.758.3 1.463 0 1.947-.526.684-1.336 1.01-1.463.968.479-.642.379-1.699-.237-2.189-.374-.247-.963-.2-1.463 0-.879.658-1.2 1.126-1.699 1.705-.421.779.068 1.194.242 1.463.268.642.516.984.484 1.447-.053.316-.41.8-.726.253-.195-.484-.637-.784-1.215-.984-.226.652-1.215 2.82-2.183 3.893 2.394-.51 3.42.137 4.125 1.463.5.779.032 1.063-.242.726-.537-.547-1.605-.868-2.431-.726-1.152.047-2.036.894-3.157.726-.637.347-2.099 1.51-2.436 1.457.526.658.521.842.737 1.457.042.189.289 1.1.237 1.215-.426-.147-2.625-1.347-3.646-1.705-.11.1-3.704.868-3.888.973-.447-.126.558.258.731.737.195.274.921 1.142-.489 1.452-.268.074-1.331-.216-1.21-.489.179-.547-.389-1.373-.979-1.699-.631-.079-2.704-.026-4.372-.242.116.032.921.747-.242 2.189-1.868 1.552-3.504.395-4.372 0-.942-.31 2.362.821 2.189-1.936" class="E"/><path d="m67.764-163.863 6.566-.484-.247 2.425h6.319l-.242 4.135-12.879.242z" class="F G"/><path d="m72.62-164.347 2.92-.242-3.399 29.894zm6.077 2.189h2.189l-2.673 29.41z" class="E"/><path d="m67.143-150.731.621-12.89 6.071-.726v2.667l6.077-.242-.237 4.135" stroke-width="1.226" class="B C D"/><g class="E"><path d="M-5.888-98.724c-.116-.026-22.539-2.809-33.303 2.436 12.953-2.489 31.041-.595 31.115-.489z" class="G"/><path d="M1.646 176.674c-27.942-10.57-57.757-25.285-83.858-57.368 3.846 1.847 15.799 7.018 17.746 8.265l-20.661-30.862 31.109 24.059c-1.058-3.893-2.168-5.114-7.045-11.427-2.31-2.999-4.125-14.358-6.077-16.773-7.371-9.097-12.774-11.548-16.525-17.504-3.751-5.645-.973-14.542-13.374-28.679 8.734 2.92 13.29 8.807 19.203 22.855 1.768 4.02 16.425 11.732 21.145 22.36 2.631 5.787 5.95 16.047 13.374 19.929l-45.946-94.791 55.427 84.337c-5.956-11.985-3.23-28.321-8.271-37.181-5.871-10.533-9.518-13.59-13.853-21.871-3.415-6.792 1.773-31.399-8.755-46.183C-59.3-1.592-54.517 6.074-52.56 10.667c2.041 4.735 4.041 21.187 7.055 28.19 2.767 6.782 9.323 12.564 13.853 19.445 4.062 5.893 9.018 34.645 10.454 35.482L-32.141-29.444c.016.058 26.064 120.471 26.495 120.555 1.568-9.139-.41-13.705-1.457-20.903-1.957-14.016 6.045-25.243 5.587-39.133-.437-8.776-3.672-13.011-3.888-21.634C-5.62-.05 3.161-16.502 3.109-19.974c.053-2.094-.721-8.192-2.189-10.691 5.251 1.831 6.645 7.492 6.797 9.481.773 8.36-3.999 19.587-2.909 30.141.926 8.528 5.798 13.311 6.561 21.876C12.51 44.87 3.945 52.525 7.723 70.45c1.336 7.018 3.593 11.248 3.893 20.661L40.053-26.535c-.11-.016-13.6 120.35-13.369 120.566 3.83-11.343 13.495-21.234 14.821-30.141 1.673-11.974.637-16.625 2.189-25.764 1.489-7.534 20.582-23.886 21.392-42.053 2.583 5.366 1.705 14.358.484 19.209-1.294 4.977-9.728 19.251-11.669 26.49-1.862 7.203.126 15.815-.726 23.817-1.673 16.604-15.473 18.456-12.459 32.646l51.591-81.012-39.859 93.334c1.884-3.341 16.946-13.369 19.687-18.467 5.43-10.38 4.882-14.726 8.744-20.661 4.656-7.397 19.351-8.455 21.881-25.764 4.13 16.536-3.088 16.894-13.858 27.953-4.151 4.214-4.709 19.998-11.664 27.953-4.525 4.951-14.079 9.949-14.347 20.177l28.684-23.57-21.155 29.168c2.299-1.052 10.412-4.188 13.132-5.84-25.106 29.578-54.759 44.873-81.906 55.169"/></g><path d="M1.646 176.674c-27.942-10.57-57.757-25.285-83.858-57.368 3.846 1.847 15.799 7.018 17.746 8.265l-20.661-30.862 31.109 24.059c-1.058-3.893-2.168-5.114-7.045-11.427-2.31-2.999-4.125-14.358-6.077-16.773-7.371-9.097-12.774-11.548-16.525-17.504-3.751-5.645-.973-14.542-13.374-28.679 8.734 2.92 13.29 8.807 19.203 22.855 1.768 4.02 16.425 11.732 21.145 22.36 2.631 5.787 5.95 16.047 13.374 19.929l-45.946-94.791 55.427 84.337c-5.956-11.985-3.23-28.321-8.271-37.181-5.871-10.533-9.518-13.59-13.853-21.871-3.415-6.792 1.773-31.399-8.755-46.183C-59.3-1.592-54.517 6.074-52.56 10.667c2.041 4.735 4.041 21.187 7.055 28.19 2.767 6.782 9.323 12.564 13.853 19.445 4.062 5.893 9.018 34.645 10.454 35.482L-32.141-29.444c.016.058 26.064 120.471 26.495 120.555 1.568-9.139-.41-13.705-1.457-20.903-1.957-14.016 6.045-25.243 5.587-39.133-.437-8.776-3.672-13.011-3.888-21.634C-5.62-.05 3.161-16.502 3.109-19.974c.053-2.094-.721-8.192-2.189-10.691 5.251 1.831 6.645 7.492 6.797 9.481.773 8.36-3.999 19.587-2.909 30.141.926 8.528 5.798 13.311 6.561 21.876C12.511 44.87 3.945 52.525 7.723 70.45c1.336 7.018 3.593 11.248 3.893 20.661L40.053-26.535c-.11-.016-13.6 120.35-13.369 120.566 3.83-11.343 13.495-21.234 14.821-30.141 1.673-11.974.637-16.625 2.189-25.764 1.489-7.534 20.582-23.886 21.392-42.053 2.583 5.366 1.705 14.358.484 19.209-1.294 4.977-9.728 19.251-11.669 26.49-1.862 7.203.126 15.815-.726 23.817-1.673 16.604-15.473 18.456-12.459 32.646l51.591-81.012-39.859 93.334c1.884-3.341 16.946-13.369 19.687-18.467 5.43-10.38 4.882-14.726 8.744-20.661 4.656-7.397 19.351-8.455 21.881-25.764 4.13 16.536-3.088 16.894-13.858 27.953-4.151 4.214-4.709 19.998-11.664 27.953-4.525 4.951-14.079 9.949-14.347 20.177l28.684-23.57-21.155 29.168c2.299-1.052 10.412-4.188 13.132-5.84-25.106 29.578-54.759 44.873-81.906 55.169z" stroke-width=".016" class="B C D"/><use xlink:href="#I" class="E G"/><use xlink:href="#I" class="B C D H"/><use xlink:href="#J" class="E G"/><use xlink:href="#J" class="B C D H"/><use xlink:href="#K" class="E"/><use xlink:href="#K" class="B C D H"/><use xlink:href="#L" class="E"/><use xlink:href="#L" class="B C D H"/><use xlink:href="#M" class="E"/><use xlink:href="#M" class="B C D H"/><use xlink:href="#N" class="E G"/><g class="B C D"><use xlink:href="#N" class="H"/><path d="M-120.861-173.097h244.767v101.841h-244.767z" stroke-width="1.079"/><path d="M87.941-97.267c-.084.053 5.035-7.555 10.77-1.815-.021-.021 4.009 3.383 7.939-.126.074-.11 2.552-4.982 8.755-4.13-2.783-11.327-8.718-9.118-8.755-9.239-4.593 3.635-6.945.542-7.045.495-5.324-6.761-10.891.1-10.938 0zm2.425-41.558 1.457 1.205c-.121.11 6.219 4.467 12.958-.963-.068.105 4.872-5.587 11.585-4.383-5.84-12.006-11.369-9.123-11.422-9.233-6.687 7.376-13.853-.763-13.853-.737z" stroke-width="2.141"/><path d="M67.764-163.621v-2.189c-3.462.768-7.829.616-9.481.731-5.461-.11-12.316-2.083-16.283-2.436l-8.997-1.21-3.641-.242c-18.267-.652-27.953 7.965-27.953 8.023-19.361-9.807-31.551-7.381-31.604-7.292-30.715 5.808-36.344-.047-36.218 0-.116-.042.084 1.552 0 4.367" stroke-width="1.542"/><path d="m-66.413-163.863-5.345-.484" stroke-width="1.694"/><path d="M-44.778-80.247c-.063.379-.142.61-.242.731.1-.116 2.662 1.689 7.045 4.856.579.253 7.86-4.819 8.023-4.856.063-.074-.41-.968-.973-2.189M72.62-164.347l2.92-.242-.242 2.909" class="H"/><path d="m-104.572-145.144 7.292-.979c.758-.026 1.41 2.431 1.463 3.162.11.51-.226 2.82-.979 2.92l-7.287-.242m-3.409-.247h-3.646c-.573-.021-.994-1.905-.973-2.183-.105-.358.284-1.678.973-1.705l3.404-.484m5.351 35.482 7.781-.726c.6-.179 1.205 2.604 1.21 3.157.116.705-.3 2.688-.973 2.678l-7.776-.242m-3.162 0-3.646-.247c-.621.084-1.252-1.542-1.21-1.947-.1-.231.563-1.815 1.21-1.936l3.404-.247" stroke-width="1.205"/><path d="m-88.773-136.152-1.705.237c-.421-.079-.705-.316-.726-.721l-.242-2.678-.247-.489h-2.189c-.226.032-.516-.2-.484-.479l-.484-6.077c.068-.384.321-.652.731-.731h1.699c.337-.037.589-.295.489-.489v-2.915c-.1-.321.163-.579.484-.484l1.941-.242m2.673 51.286-1.457.242c-.258-.053-.547-.289-.484-.484l-.247-2.92-.484-.484h-1.941c-.316.058-.6-.174-.731-.495l-.242-6.071c-.016-.353.242-.616.489-.737h1.941c.253 0 .51-.258.484-.484l-.237-2.915a.607.607 0 0 1 .721-.484l1.463-.253" stroke-width="1.841"/><path d="m67.764-163.621 6.071-.726" stroke-width="1.242"/><path d="M-107.971-144.902v-2.189c-.405-3.409 2.268-5.877 5.587-6.077 3.483-.331 6.455.905 6.803 4.13.026.652-.784 2.115-1.457 2.189-.537.021-1.599-.936-1.705-1.457-.153-2.157-1.794-2.331-3.151-1.947-2.147.137-3.03 1.542-2.925 3.893.116-.11.163.389.247 1.215m.489 4.614c.042 1.036.11 1.736.237 1.947.095 2.073 1.163 3.53 3.404 3.399 2.12-.216 2.236-2.846 2.189-2.915-.005-.479 1.179-.947 1.699-.968.684-.079 1.768.621 1.705 1.931.21 3.336-2.015 4.835-5.345 5.114-3.478.268-6.84-2.378-7.055-5.593-.126-.3-.21-1.468-.242-2.915m1.705 31.599v-2.915c-.195-3.236 2.562-5.608 6.077-5.84 3.309-.068 6.235 1.284 6.319 4.619.147.547-.71 1.978-1.21 1.947a1.948 1.948 0 0 1-1.705-1.457c-.195-2.126-1.836-2.357-3.162-2.178-2.189.216-3.125 1.589-2.915 3.878-.068-.047-.026.589 0 1.457m.242 4.867c.116.768.153 1.342.247 1.457.042 2.157 1.063 3.651 3.151 3.641 2.278-.189 2.489-2.809 2.436-2.915.016-.447 1.215-.873 1.941-.979.484.053 1.542.784 1.215 2.189.316 3.241-1.962 4.672-5.345 4.867-3.436.11-6.708-2.657-6.808-6.077-.11-.084-.153-1.068-.242-2.436" stroke-width="1.61"/><path d="m-74.436-162.159-15.552-.973 4.135 82.154c6.129 2.636 22.428 2.389 22.355 2.431.074-.042 12.616-1.005 18.719-1.457m13.853-1.699c6.25-.642 13.043-.689 14.584-.489 1.3.168 2.089.768 2.189 1.699.153 1.368 1.773 3.467 5.345 4.13.053.1 13.684.679 16.531.247 3.625-.426 6.003-1.005 7.05-2.183.768-.731.852-2.52 2.436-3.167 3.204-1 22.881.979 22.849.973l25.038 2.436s15.536.326 21.629-2.436l5.109-81.664a499.55 499.55 0 0 0-17.078.205" stroke-width="3.057"/><path d="M80.402-86.323c-6.161 2.71-21.103 1.505-20.266 1.426s-13.711-1.079-21.787-2.152" class="I"/></g><path d="m.636-100.923-.568 1.436.852.4.71-.226.342-1.221zm-56.121-8.707 1.352.631-.679 1.1-.758-.968zm-31.057 3.125h2.026v6.413h-2.026zm40.864 21.692-.416.689.31.484.621.037.353-.9zm.589 3.32 1-.068-.968.552zM2.094 183.681l.979.337.889-.289-.7-.742z" class="E"/></g><defs><path id="B" d="M-85.6-80.805c6.129 2.636 22.439 2.425 22.365 2.436l21.634-1.947c.068.026 22.581-1.847 25.517-1.699 1.131.053 2.083.768 2.189 1.699.153 1.368 1.773 3.457 5.351 4.125.037.105 13.674.684 16.525.253 3.63-.421 5.998-1.005 7.055-2.189.752-.726.847-2.52 2.42-3.162 3.22-1 22.891.979 22.855.973L64.065-78.4c.053-.068 16.82.842 22.913-1.915l5.109-81.67c-20.171-.331-90.182 3.067-90.182 3.157l-62.229-2.678c.042-.005-23.128-.768-29.405-1.447z"/><path id="C" d="M87.941-97.267c-.084.053 5.445-7.197 11.17-1.452-.011-.021 3.609 3.02 7.539-.489.074-.11 2.552-4.982 8.755-4.13-2.783-11.327-8.718-9.118-8.755-9.239-4.593 3.635-6.945.542-7.045.495-5.324-6.761-10.891.1-10.938 0z"/><path id="D" d="M-89.504-103.58h-1.941c-.316.058-.6-.174-.731-.495l-.242-6.071c-.016-.353.242-.616.489-.737h1.941c.253 0 .51-.258.484-.484l-.237-2.915a.607.607 0 0 1 .721-.484l3.167-.253c.258 0 .542.237.484.495l.968 14.095c-.063.237-.321.495-.726.489l-3.162.247c-.258-.053-.547-.289-.484-.484l-.247-2.92z"/><path id="E" d="m90.366-138.825 1.457 1.205c-.121.11 5.651 4.94 12.39-.484-.074.11 5.435-6.061 12.153-4.861-5.84-12.006-11.369-9.123-11.422-9.233-6.687 7.376-13.853-.763-13.853-.737z"/><path id="F" d="M-91.693-139.804h-2.189c-.226.032-.516-.2-.484-.479l-.484-6.077c.068-.384.321-.652.731-.731h1.699c.337-.037.589-.295.489-.489v-2.915c-.1-.321.163-.579.484-.484l3.157-.242c.347-.037.626.2.731.484l.726 14.105c.016.189-.237.452-.484.479l-3.162.237c-.421-.079-.705-.316-.726-.721l-.242-2.678z"/><path id="G" d="M-111.138-140.53c-.573-.021-.994-1.905-.973-2.183-.105-.358.284-1.678.973-1.705l13.858-1.699c.758-.032 1.41 2.425 1.463 3.157.11.51-.226 2.82-.979 2.92z"/><path id="H" d="M-108.95-104.801c-.621.084-1.252-1.542-1.21-1.947-.1-.231.563-1.815 1.21-1.936l14.347-1.457c.6-.179 1.205 2.604 1.21 3.157.116.705-.3 2.688-.973 2.678z"/><path id="I" d="M-124.018-45.486v-4.625c5.235 1.862 14.8 2.936 20.171 2.925 5.761.011 30.205-4.004 39.133-4.13 9.086-.316 23.754 4.141 30.878 4.13s28.553-4.498 35.482-4.372c6.85-.126 28.3 4.383 35.492 4.372 7.039.011 21.708-4.446 30.867-4.13 8.849.126 33.293 4.141 39.133 4.13 5.298.011 15.189-1.2 20.419-2.925v4.13c-5.23 1.857-15.121 3.051-20.419 3.173-5.835-.116-30.283-4.12-39.133-4.377-9.16-.184-23.828 4.262-30.867 4.377-7.192-.116-28.642-4.614-35.492-4.619-6.929.005-28.384 4.498-35.482 4.619-7.124-.116-21.792-4.561-30.878-4.377-8.928.258-33.372 4.262-39.133 4.377-5.372-.116-14.937-1.184-20.171-2.925z"/><path id="J" d="M-124.018-14.134v.242c5.235 1.678 14.8 2.746 20.171 2.678 5.761.074 30.205-3.935 39.133-4.135 9.086-.237 23.754 4.209 30.878 4.135 7.097.074 28.553-4.43 35.482-4.383 6.85-.047 28.3 4.456 35.492 4.383 7.039.074 21.708-4.372 30.867-4.135 8.849.2 33.293 4.209 39.133 4.135 5.298.074 15.189-1.126 20.419-2.92v-4.135c-5.23 1.663-15.121 2.873-20.419 2.92-5.835-.047-30.283-4.051-39.133-4.377-9.16-.11-23.828 4.33-30.867 4.377-7.192-.047-28.642-4.551-35.492-4.619-6.929.068-28.384 4.572-35.482 4.619-7.124-.047-21.792-4.493-30.878-4.377-8.928.331-33.372 4.33-39.133 4.377-5.372-.047-14.937-1.115-20.171-2.92v-.237z"/><path id="K" d="M127.557 6.037c-5.366 1.799-15.121 3.009-20.419 2.92-5.835.095-30.283-3.909-39.133-4.13-9.16-.221-23.828 4.225-30.867 4.13-7.192.095-28.642-4.404-35.492-4.372-6.929-.032-28.384 4.467-35.482 4.372-7.124.095-21.792-4.351-30.878-4.13-8.928.221-33.372 4.225-39.133 4.13-5.372.095-14.805-.815-20.171-2.673v4.377c5.366 1.747 14.8 2.646 20.171 2.673 5.761-.026 30.205-4.035 39.133-4.13 9.086-.337 23.754 4.104 30.878 4.13 7.097-.026 28.553-4.525 35.482-4.625 6.85.1 28.3 4.598 35.492 4.625 7.039-.026 21.708-4.472 30.867-4.13 8.849.1 33.293 4.104 39.133 4.13 5.298-.026 15.052-1.242 20.419-2.925z"/><path id="L" d="M125.127 42.745c-4.719 1.263-13.479 2.352-17.988 2.425-5.835-.074-30.283-4.077-39.133-4.372-9.16-.147-23.828 4.298-30.867 4.372-7.192-.074-28.642-4.572-35.492-4.614-6.929.042-28.384 4.54-35.482 4.614-7.124-.074-21.792-4.519-30.878-4.372-8.928.295-33.372 4.298-39.133 4.372-4.319-.074-12.022-.794-16.767-1.936-.41-1.439-.735-2.9-.973-4.377 4.725 1.205 13.148 1.983 17.741 1.941 5.761.042 30.205-3.962 39.133-4.13 9.086-.274 23.754 4.172 30.878 4.13 7.097.042 28.553-4.456 35.482-4.377 6.85-.079 28.3 4.419 35.492 4.377 7.039.042 21.708-4.404 30.867-4.13 8.849.168 33.293 4.172 39.133 4.13 4.509.042 13.263-1.042 17.988-2.189z"/><path id="M" d="m117.835 68.756 1.21-4.377c-2.762.368-8.15.368-11.911.237-5.835-.189-30.283-3.999-39.133-4.125-9.16-.316-23.828 4.13-30.867 4.125-7.192.005-28.642-4.493-35.492-4.614-6.929.116-28.384 4.619-35.482 4.614s-21.792-4.44-30.878-4.125c-8.928.126-33.372 4.13-39.133 4.125-2.699.005-8.607-.063-11.422-.479l1.699 4.372c3.046.31 7.487.363 9.723.484 5.761-.116 30.205-4.114 39.133-4.377 9.086-.184 23.754 4.262 30.878 4.377 7.097-.116 28.553-4.614 35.482-4.614 6.85 0 28.3 4.493 35.492 4.614 7.039-.116 21.708-4.561 30.867-4.377 8.849.263 33.293 4.062 39.133 4.377l10.938-.237z"/><path id="N" d="m103.003 100.108-34.992-3.646c-9.16-.121-23.828 4.209-30.867 4.135-7.192.074-28.642-4.435-35.492-4.383-6.929-.053-28.384 4.456-35.482 4.383-7.124.074-21.792-4.377-30.878-4.135-6.398.142-23.423 2.236-33.54 3.399l-2.425-3.883 35.966-3.888c9.086-.126 23.754 4.319 30.878 4.372 7.097-.053 28.553-4.551 35.482-4.619 6.85.068 28.3 4.567 35.492 4.619 7.039-.053 21.708-4.372 30.867-4.372 8.713.195 26.874 2.967 36.46 4.125l-1.699 4.141z"/></defs></svg>