<svg xmlns="http://www.w3.org/2000/svg" width="364.836" height="364.836"><style>.B{fill:#000779}</style><path d="M364.836 182.418c0 100.747-81.671 182.418-182.418 182.418S0 283.165 0 182.418 81.671 0 182.418 0s182.418 81.671 182.418 182.418" fill="#fff"/><path d="M359.918 182.418c0 98.031-79.469 177.5-177.5 177.5s-177.5-79.469-177.5-177.5 79.469-177.5 177.5-177.5 177.5 79.469 177.5 177.5" class="B"/><path d="m245.019 26.383-.177.645-.888-.244q-1.498-.412-2.389.373-.541.47-1.093 2.473l-4.198 15.259q-.609 2.212-.274 2.904.469.953 1.81 1.322l.888.244-.177.645-9.615-2.646q-5.296-1.457-7.717-3.416-2.439-1.964-3.34-5.229-.918-3.27.093-6.945 1.356-4.93 5.263-7.415 4.378-2.768 11.258-.875zm-7.211-.148q-2.077-1.097-3.576-1.509-4.041-1.112-7.488.994c-3.447 2.106-3.892 3.726-4.784 6.966q-1.347 4.895.542 8.45c1.889 3.555 3.282 3.939 6.069 4.705q1.568.432 3.71.477l5.526-20.084m82.071 156.686c0 75.641-61.319 136.959-136.959 136.959S45.959 258.56 45.959 182.92 107.278 45.96 182.918 45.96s136.959 61.319 136.959 136.959z" fill="#fff"/><g class="B"><g stroke="#000e77"><path d="m102.717 87.295 6.546 6.546c73.072-64.847 135.708 4.821 132.375 59.078-3.839 62.498-83.629 108.077-134.114 44.674l-8.115 6.376c27.504 33.031 80.523 33.942 118.45 12.984 20.903-11.551 36.597-38.635 37.044-64.033.496-28.212-13.63-58.296-37.044-73.505-18.814-12.221-70.576-27.584-115.142 7.881z"/><path d="m259.607 87.295-6.546 6.546c-73.072-64.847-135.708 4.821-132.375 59.078 3.839 62.498 83.629 108.077 134.114 44.674l8.115 6.376c-27.504 33.031-80.523 33.942-118.45 12.984-20.903-11.551-36.597-38.635-37.044-64.033-.496-28.212 13.63-58.296 37.044-73.505 18.814-12.221 70.576-27.584 115.142 7.881z"/></g><use href="#B"/><path d="M198.618 236.753v3.165h-32.5v-3.165h2.685q4.699 0 6.824-4.192 1.342-2.737 1.343-13.174V144.45q0-8.811-.727-11.634-.56-2.139-2.293-3.678-2.461-2.053-5.146-2.053h-2.685v-3.165h32.5v3.165h-2.741q-4.643 0-6.768 4.192-1.398 2.737-1.398 13.174v74.938q0 8.811.727 11.634.56 2.139 2.349 3.678 2.405 2.053 5.09 2.053h2.741"/><use href="#B" x="54"/></g><g fill="#fff"><path d="m98.46 298.656-3.589 7.537-.488-.274q.854-3.81-.153-6.26c-1.007-2.45-1.852-2.925-3.543-3.875q-2.127-1.194-4.454-1.071-2.319.107-4.638 1.913-2.304 1.815-4.276 5.328-1.627 2.899-1.892 5.547c-.265 2.648.143 3.375.958 4.826q1.238 2.187 3.632 3.531 2.08 1.167 4.166 1.178 2.096-.004 5.487-1.581l.311.589q-3.207 1.95-6.093 2.07c-2.886.12-3.867-.431-5.831-1.533q-5.309-2.98-6.012-8.555-.53-4.15 1.7-8.121 1.795-3.198 4.732-5.071c2.937-1.873 4.046-1.893 6.264-1.932q3.352-.066 6.329 1.606 2.316 1.3 3.932 3.699.467.718.751.877a1.2 1.2 0 0 0 .908.116q.648-.195 1.246-.854l.551.31m170.697 28.618.334.579-9.095 5.241-.334-.579.751-.433q1.315-.758 1.468-1.868.087-.717-1.013-2.627l-7.902-13.712q-.929-1.612-1.43-2.012-.382-.302-1.03-.303a3.4 3.4 0 0 0-1.657.454l-.751.433-.334-.579 9.095-5.241.334.579-.767.442q-1.299.749-1.452 1.858-.103.726.998 2.636l7.902 13.712q.929 1.612 1.43 2.012.382.302 1.045.294a3.33 3.33 0 0 0 1.641-.445l.767-.442m14.97-10.008.395.539-8.466 6.205-.395-.539.699-.513q1.224-.897 1.254-2.017.008-.723-1.295-2.5l-9.356-12.765q-1.1-1.501-1.642-1.843-.412-.258-1.057-.189a3.4 3.4 0 0 0-1.597.633l-.699.513-.395-.539 8.466-6.205.395.539-.714.523q-1.21.887-1.24 2.006-.022.734 1.28 2.511l9.356 12.765q1.1 1.501 1.642 1.843.413.258 1.071.178a3.3 3.3 0 0 0 1.582-.622l.714-.523m13.332-11.492.446.498-7.825 6.996-.446-.498.646-.578q1.131-1.011 1.053-2.129-.062-.72-1.531-2.363l-10.549-11.798q-1.24-1.387-1.813-1.675-.435-.216-1.07-.085a3.4 3.4 0 0 0-1.528.785l-.646.578-.446-.498 7.825-6.996.446.498-.66.59q-1.118 1-1.04 2.117.048.732 1.518 2.375l10.549 11.798q1.24 1.387 1.813 1.675.436.216 1.083.073a3.3 3.3 0 0 0 1.515-.773z"/><use href="#C"/><path d="m112.098 327.339-8.396-4.412-3.27 2.649q-1.208.978-1.535 1.601-.26.496.002 1.123.286.62 1.795 1.555l-.311.592-6.829-3.588.311-.592q1.485.474 2.087.301 1.219-.339 3.446-2.169l17.007-13.84.56.294-1.93 22.007q-.231 2.654.16 3.696.416 1.035 1.701 1.812l-.311.592-8.556-4.496.311-.592q1.33.617 1.97.484.657-.124.934-.652.37-.703.528-2.559l.327-3.808m.174-1.419.927-10.697-8.379 6.781 7.453 3.916m37.077 23.135-6.34-1.603-5.231-13.138-1.463-.333-.49-.124-.534-.172-1.745 6.901q-.567 2.242-.214 2.909.47.939 1.802 1.276l.928.235-.164.648-10.176-2.574.164-.648.893.226q1.506.381 2.402-.436.505-.45 1.019-2.482l3.88-15.343q.567-2.242.214-2.909-.488-.944-1.837-1.284l-.893-.226.164-.648 8.652 2.188q3.783.957 5.428 1.969 1.667.999 2.534 2.802.889 1.79.371 3.839a5.7 5.7 0 0 1-2.397 3.438q-1.827 1.252-4.99 1.161l3.181 8.054q1.088 2.772 2.102 3.849c1.014 1.077 1.644 1.31 2.905 1.778l-.164.648m-13.78-16.474.574.164.403.102q3.398.86 5.486-.178 2.106-1.032 2.682-3.31.563-2.225-.489-3.962-1.029-1.751-3.324-2.331-1.016-.256-2.834-.363zm41.965 12.291.591.148-2.336 6.568-18.957-.691.024-.668.921.034q1.553.057 2.258-.93.4-.564.476-2.658l.576-15.798q.084-2.294-.401-2.889-.675-.82-2.065-.871l-.921-.034.024-.668 11.085.404-.024.668q-1.95-.089-2.757.261-.79.351-1.1.918c-.31.567-.336 1.295-.39 2.752l-.56 15.382q-.054 1.499.214 2.069a1.3 1.3 0 0 0 .648.584q.445.197 2.81.283l1.787.065q2.817.102 3.969-.271c1.152-.373 1.478-.711 2.13-1.387q.978-1.03 1.999-3.272m19.803-18.854q4.752-.407 8.536 2.914 3.8 3.301 4.263 8.701.476 5.562-2.72 9.535c-3.196 3.973-4.858 4.115-8.182 4.399q-5.04.432-8.785-2.856-3.727-3.29-4.214-8.977-.498-5.814 3.148-9.825 3.165-3.48 7.953-3.89m-.23 1.343q-3.276.28-5.048 2.88-2.207 3.235-1.708 9.067.512 5.976 3.344 8.979 2.172 2.28 5.394 2.004 3.438-.294 5.441-3.168 2.02-2.874 1.526-8.653-.536-6.264-3.266-9.131-2.19-2.279-5.682-1.98m33.481-8.216 1.711 8.299-.655.135q-.811-2.323-1.934-3.567-1.106-1.247-2.799-1.766c-1.693-.519-2.236-.406-3.321-.182q-1.84.38-2.81 1.76-.974 1.363-.678 2.796.227 1.097 1.173 1.843 1.371 1.101 5.949 2.463 3.734 1.111 5.156 1.833 1.436.7 2.36 1.875a6.05 6.05 0 0 1 1.238 2.604q.562 2.725-1.153 5.144-1.701 2.399-5.027 3.084a12 12 0 0 1-1.997.246q-.566.024-2.414-.166-1.833-.213-2.293-.118-.443.091-.653.411-.193.316-.145 1.174l-.655.135-1.696-8.228.655-.135q.993 2.489 2.037 3.62 1.04 1.113 2.809 1.634a7.6 7.6 0 0 0 3.696.123q2.212-.456 3.245-1.886 1.05-1.434.723-3.027-.183-.885-.864-1.685-.664-.804-1.851-1.371-.8-.389-4.232-1.47l-4.957-1.856q-1.504-.76-2.431-1.86c-.927-1.1-1.03-1.595-1.234-2.586q-.533-2.583 1.066-4.85 1.594-2.285 4.656-2.915 1.911-.394 4.245.102 1.082.238 1.489.154.46-.095.688-.419.243-.345.248-1.213z"/><use href="#C" x="-230.534" y=".308"/><path d="m325.56 274.908-.597-.301.415-.823q.699-1.387.105-2.415-.354-.623-2.209-1.558l-14.133-7.123q-2.049-1.032-2.793-.841-1.027.272-1.653 1.514l-.415.823-.597-.301 4.488-8.906q2.472-4.905 4.87-6.892 2.406-2.004 5.784-2.244 3.386-.256 6.79 1.46 4.566 2.301 6.232 6.621 1.85 4.838-1.361 11.21l-4.927 9.777m1.566-7.04q1.484-1.821 2.184-3.209 1.887-3.742.501-7.537c-1.386-3.795-2.886-4.55-5.887-6.062q-4.533-2.285-8.391-1.134c-3.858 1.151-4.508 2.442-5.809 5.023q-.732 1.452-1.199 3.543zm-7.092-37.448 9.255 2.849 1.584-5.145q.616-2.002.22-2.862-.518-1.142-2.489-1.863l.197-.639 8.15 2.509-.197.639q-1.784-.285-2.342-.192-.7.125-1.263.726c-.563.601-.714 1.091-1.015 2.069l-1.584 5.145 7.718 2.376q1.554.478 1.942.447.37-.037.684-.319.296-.287.594-1.254l1.223-3.971q.611-1.986.612-2.969c.001-.983-.185-1.342-.556-2.062q-.74-1.4-2.554-3.187l.213-.691 5.249 3.828-5.555 18.044-.639-.197.255-.829q.255-.829.087-1.694a1.5 1.5 0 0 0-.6-.998q-.49-.378-2.198-.904l-15.212-4.683q-2.227-.686-2.884-.396-.882.409-1.329 1.859l-.255.829-.639-.197 5.555-18.044 5.208 1.32-.207.673q-1.959-.205-2.788.03-.823.22-1.452.971-.472.61-1.009 2.355l-1.978 6.423m28.284-73.975-18.788 12.711 16.148-2.677q2.227-.369 2.701-.942.639-.784.403-2.209l-.142-.856.659-.109 1.395 8.413-.659.109-.142-.856q-.254-1.532-1.287-2.021-.636-.297-2.667.039l-15.791 2.618q-1.604.266-2.258.741-.476.335-.702 1.069-.247.719-.002 2.198l-.659.109-1.135-6.844 17.457-11.904-20.34-5.491-1.135-6.844.659-.109.139.838q.256 1.55 1.29 2.039.636.297 2.667-.039l15.791-2.618q2.227-.369 2.698-.96.639-.783.403-2.209l-.139-.838.659-.109 1.702 10.266-.659.109-.142-.856q-.257-1.55-1.287-2.021-.636-.297-2.667.039l-16.148 2.677 21.882 5.95.098.588m-22.144-43.106 3.836 8.675 4.208-.043q1.554-.015 2.198-.3.512-.227.697-.881.16-.664-.439-2.334l.611-.27 3.12 7.055-.611.27q-.869-1.294-1.448-1.533-1.165-.492-4.048-.442l-21.925.272-.256-.578 15.19-16.04q1.83-1.936 2.172-2.995.318-1.069-.206-2.477l.611-.27 3.909 8.84-.611.27q-.658-1.309-1.243-1.604-.593-.311-1.137-.07-.728.321-2.004 1.676l-2.623 2.78m-1.018 1.003-7.374 7.804 10.779-.104zm-2.229-25.036-.527.411-.566-.727q-.955-1.225-2.138-1.128-.714.053-2.354 1.33l-12.484 9.727q-1.81 1.41-1.955 2.164-.194 1.044.661 2.142l.566.727-.527.411-6.129-7.867q-3.375-4.332-4.146-7.35-.782-3.032.446-6.188 1.218-3.17 4.225-5.513 4.033-3.142 8.651-2.801 5.164.396 9.55 6.026l6.729 8.636m-5.694-4.427q-1.01-2.12-1.966-3.346-2.576-3.306-6.598-3.677c-4.022-.371-5.347.662-7.998 2.727q-4.005 3.12-4.615 7.099c-.61 3.979.278 5.119 2.055 7.4q1 1.283 2.69 2.6l16.432-12.802m-60.29-51.24.31-.592 9.302 4.863-.31.592-.769-.402q-1.345-.703-2.363-.237-.652.312-1.673 2.265l-7.332 14.025q-.862 1.648-.93 2.286-.05.484.297 1.032.504.753 1.272 1.154l.769.402-.31.592-9.302-4.863.31-.592.785.41q1.329.694 2.347.228.668-.303 1.689-2.256l7.332-14.025q.863-1.648.93-2.286.05-.484-.313-1.04a3.3 3.3 0 0 0-1.256-1.146zm21.27 10.773 5.094 4.102-.725 14.122 1.191.912.394.317.414.379 4.464-5.544q1.45-1.801 1.408-2.555-.036-1.05-1.106-1.911l-.746-.601.419-.521 8.176 6.583-.419.521-.718-.578q-1.21-.974-2.365-.606-.647.198-1.961 1.831l-9.926 12.327q-1.45 1.801-1.408 2.555.05 1.061 1.134 1.933l.718.578-.419.521-6.951-5.597q-3.04-2.448-4.112-4.053-1.098-1.603-1.134-3.604-.061-1.998 1.264-3.644a5.7 5.7 0 0 1 3.613-2.124q2.182-.377 5.019 1.026l.468-8.646q.168-2.973-.305-4.374c-.473-1.401-.948-1.876-1.898-2.828l.419-.521m5.654 20.719-.453-.388-.324-.261q-2.73-2.197-5.061-2.127-2.345.06-3.818 1.89-1.439 1.787-1.208 3.805.205 2.021 2.049 3.505.816.657 2.425 1.512zM179.858 14.767a1.9 1.9 0 0 1 1.417.576 1.9 1.9 0 0 1 .616 1.401 1.95 1.95 0 0 1-.576 1.435q-.57.586-1.401.598c-.831.012-1.032-.178-1.435-.558q-.586-.588-.598-1.419c-.012-.831.178-1.026.558-1.417a1.95 1.95 0 0 1 1.419-.616m.153 13.531a1.9 1.9 0 0 1 1.435.576q.604.588.616 1.419c.012.831-.184 1.032-.576 1.435q-.588.586-1.419.598c-.831.012-1.032-.178-1.435-.558q-.586-.588-.598-1.419c-.012-.831.178-1.032.558-1.435a1.95 1.95 0 0 1 1.419-.616M137.94 46.112l.191.641-8.31 2.48-.191-.641.883-.263q1.385-.414 1.783-1.795.204-.645-.38-2.601l-2.841-9.522q-1.054-3.531-.928-5.7.114-2.145 1.756-4.163 1.63-1.995 5.161-3.048 3.844-1.148 6.232-.408a7.53 7.53 0 0 1 3.891 2.742q1.014 1.375 2.279 5.617l2.738 9.175q.646 2.164 1.453 2.658.79.5 2.123.102l.883-.263.191.641-10.145 3.027-.191-.641.9-.269q1.454-.434 1.804-1.537.248-.752-.342-2.726l-3.053-10.231q-.408-1.368-1.177-3.061-.786-1.689-1.739-2.479c-.953-.79-1.426-.882-2.373-1.064q-1.437-.268-3.238.269-2.303.687-3.821 2.234c-1.518 1.547-1.582 2.131-1.711 3.301q-.205 1.777.911 5.516l2.836 9.504q.656 2.199 1.306 2.608.903.56 2.236.162l.883-.263m-10.65 4.137-5.863 3.135-21.871-9.142 6.661 12.459q1.064 1.992 1.775 2.247.947.354 2.222-.327l.749-.4.315.589-7.52 4.021-.315-.589.765-.409q1.37-.732 1.501-1.868.078-.698-.893-2.514L95.08 39.242l.574-.307 23.545 9.783-7.113-13.303q-1.065-1.992-1.759-2.255-.963-.345-2.222.327l-.765.409-.315-.589 7.52-4.021.315.589-.749.4q-1.386.74-1.517 1.876-.078.697.893 2.514l8.033 15.024q1.528.597 2.209.683.666.094 1.767-.105.538-.104 1.479-.606l.315.589m-50.123 2.111-.39-.543 8.521-6.13.39.543-.704.506q-1.232.886-1.272 2.006-.014.723 1.273 2.512l9.242 12.847q1.086 1.51 1.625 1.857.41.261 1.055.198a3.4 3.4 0 0 0 1.602-.619l.704-.506.39.543-8.521 6.13-.39-.543.719-.517q1.218-.876 1.258-1.995.029-.734-1.258-2.522L82.169 53.28q-1.086-1.51-1.625-1.857-.41-.261-1.07-.188a3.3 3.3 0 0 0-1.588.608zM69.75 92.943l-.494-.45q.703-1.12.713-2.015-.009-1.303-.858-3.081l-9.645-20.363.45-.494 21.789 7.452q1.676.575 2.138.605.718.043 1.396-.243.678-.261 1.5-1.028l.494.45-6.745 7.395-.494-.45q1.025-1.364 1.058-2.018c.033-.654-.126-.8-.447-1.092q-.668-.609-2.642-1.285L63.152 71.25l6.582 13.829q.976 2.04 1.577 2.588.387.353 1.087.283.713-.059 1.7-.845l.247-.19.494.45-5.089 5.579m-7.486 8.659-8.018-5.43-3.019 4.458q-1.175 1.736-1.047 2.673.161 1.244 1.836 2.509l-.375.553-7.06-4.782.375-.553q1.623.793 2.183.868.706.085 1.42-.325c.714-.41 1.002-.835 1.576-1.682l3.019-4.458-6.686-4.529q-1.347-.912-1.726-.995a1.18 1.18 0 0 0-.747.105q-.367.188-.935 1.025l-2.33 3.44q-1.165 1.72-1.453 2.66c-.288.94-.215 1.338-.071 2.134q.3 1.556 1.511 3.794l-.405.598-3.901-5.195 10.587-15.632.553.375-.486.718a3.44 3.44 0 0 0-.578 1.594q-.085.64.282 1.13.357.504 1.838 1.507l13.178 8.925q1.93 1.307 2.642 1.222.963-.133 1.814-1.39l.486-.718.553.375-10.587 15.632-4.595-2.785.395-.583q1.814.77 2.675.786.852.031 1.672-.504.63-.447 1.653-1.957l3.769-5.565M21.93 132.309l2.356-6.101 13.672-3.61.506-1.412.182-.472.235-.509-6.64-2.564q-2.157-.833-2.862-.563-.989.354-1.483 1.635l-.345.893-.624-.241 3.781-9.792.624.241-.332.86q-.56 1.45.143 2.437.385.555 2.341 1.311l14.764 5.701q2.157.833 2.862.563.995-.371 1.496-1.669l.332-.86.624.241-3.215 8.326q-1.406 3.64-2.609 5.151a6.44 6.44 0 0 1-3.087 2.178q-1.884.667-3.856-.095a5.7 5.7 0 0 1-3.124-2.794q-1.023-1.964-.551-5.093l-8.378 2.188q-2.883.746-4.074 1.622c-1.191.876-1.499 1.474-2.115 2.669l-.624-.241m18.014-11.694-.232.55-.15.388q-1.263 3.27-.485 5.468.772 2.215 2.962 3.061 2.14.826 3.992-.008 1.863-.811 2.715-3.019.377-.978.701-2.77l-9.505-3.67m.039 39.848-8.184-2.193.173-.646q2.44.317 4.056-.129 1.611-.429 2.834-1.71c1.223-1.281 1.366-1.816 1.653-2.886q.486-1.815-.312-3.301-.782-1.482-2.195-1.86-1.082-.29-2.173.222-1.599.731-4.87 4.213-2.668 2.838-3.951 3.786-1.27.969-2.734 1.269a6.05 6.05 0 0 1-2.883-.062q-2.688-.72-4.081-3.338-1.38-2.596-.501-5.876a12 12 0 0 1 .676-1.895q.232-.517 1.231-2.083 1.013-1.543 1.134-1.997.117-.436-.075-.768-.196-.315-.984-.656l.173-.646 8.115 2.175-.173.646q-2.67-.23-4.149.197-1.463.431-2.721 1.777-1.264 1.364-1.768 3.248-.585 2.181.23 3.746.81 1.583 2.381 2.003.873.233 1.893-.016 1.016-.232 2.055-1.039.706-.54 3.212-3.123l3.882-3.598q1.353-1.003 2.753-1.338c1.4-.335 1.888-.205 2.865.057q2.548.683 3.856 3.128 1.326 2.45.517 5.469-.505 1.885-1.996 3.748-.698.86-.806 1.262-.121.453.065.803.2.372.973.766l-.173.646m-25.4 16.361-.667-.041.649-10.477.667.041-.054.866q-.094 1.514.747 2.255.55.468 2.75.605l15.796.978q1.857.115 2.467-.083.462-.153.821-.691.482-.767.535-1.632l.054-.866.667.041-.649 10.477-.667-.041.055-.884q.092-1.496-.748-2.237-.549-.486-2.749-.623l-15.796-.978q-1.857-.115-2.467.083-.462.153-.822.709a3.3 3.3 0 0 0-.534 1.614zm-.798 7.185.668-.015.021.921q.036 1.553 1.044 2.181.604.384 2.682.336l15.822-.361q2.294-.052 2.86-.571.779-.723.747-2.113l-.021-.921.668-.015.227 9.97q.124 5.49-1.056 8.373-1.18 2.9-4.049 4.7-2.868 1.818-6.679 1.905-5.112.117-8.614-2.912-3.909-3.399-4.071-10.533l-.25-10.945m1.929 6.949q-.453 2.305-.418 3.859.096 4.19 3.103 6.887c3.007 2.697 4.687 2.658 8.046 2.581q5.076-.115 7.938-2.946c2.862-2.831 2.83-4.275 2.764-7.165q-.037-1.626-.608-3.691zm14.145 41.971-2.619-9.116-4.175-.53q-1.541-.196-2.219-.002-.538.154-.81.778-.25.636.118 2.372l-.642.185-2.13-7.414.642-.185q.684 1.401 1.226 1.715 1.088.646 3.95.989l21.758 2.714.175.608-17.231 13.824q-2.078 1.668-2.559 2.672-.46 1.015-.133 2.482l-.642.185-2.669-9.29.642-.185q.473 1.386 1.013 1.758.544.389 1.117.224.763-.22 2.214-1.388l2.977-2.397m1.145-.855 8.368-6.728-10.693-1.364zm-2.36 21.364.589-.316.435.812q.734 1.37 1.917 1.474.713.069 2.545-.912l13.951-7.473q2.023-1.083 2.293-1.802.368-.996-.289-2.223l-.435-.812.589-.316 4.709 8.791q2.593 4.842 2.842 7.946.258 3.121-1.488 6.023-1.737 2.918-5.097 4.718-4.507 2.413-9 1.296-5.023-1.265-8.392-7.556zm4.862 5.327q.638 2.262 1.371 3.631 1.979 3.694 5.88 4.741c3.901 1.047 5.382.253 8.344-1.334q4.475-2.397 5.75-6.216c1.275-3.819.592-5.093-.772-7.641q-.768-1.434-2.211-3.017z"/></g><g class="B"><g fill-rule="evenodd"><path d="m140.822 244.772 3.178-.906.906.79s1.021 1.25 1.021 1.927l.112 2.726 4.194-1.138s2.726-1.134 4.652.907 2.49 2.611 2.49 3.739v7.369l.224 1.019-3.172 1.245-1.135-1.812.341-6.688s.68-1.242-1.815-2.946c-.112-.115-.791-.791-2.042-.791-1.243 0-3.738 1.021-3.738 1.812l-.227 7.254s.341 1.705-1.364 1.925c-1.699.232-4.302.232-4.302.232s2.154-.453 2.264-2.157c.112-1.696-.11-12.014-.11-12.014s-.228-.684-.685-1.36c-.453-.682-.794-1.135-.794-1.135m39.23 4.422s1.581.224 1.581 1.245v9.978l-.675 1.36 1.469.791s2.722-.115 2.838-1.244c.115-1.136 0-8.613 0-8.613s1.362-2.495 2.269-2.495 3.738-.232 3.969 1.925c.226 2.151.226 9.636.226 9.636s3.398 1.021 3.398-.906l.228-8.506s.79-2.149 2.382-2.149c1.584 0 3.854.222 3.969 2.379.11 2.148-.232 8.045-.232 8.728s.911 1.021.911 1.021h2.833l1.133-.914s-.908.231-1.133-.791.112-7.592.112-7.592-.45-2.718-1.812-3.632c-1.364-.906-2.492-2.602-5.78-1.358l-3.291 1.358s-1.358-1.128-2.943-1.474c-1.591-.338-2.269-.454-3.175 0s-1.252 1.019-2.158.683-3.06-.683-3.06-.683-1.362-.107-1.7.453c-.341.567-1.358.797-1.358.797"/><path d="M167.122 247.488s2.498-.791 4.874.232c2.383 1.021 5.332 2.717 5.673 5.441.333 2.719-.605 6.013-2.61 7.478-1.701 1.25-4.99 3.516-7.37 2.726-2.379-.798-5.781-2.159-7.142-6.011s1.587-7.024 1.587-7.024l4.987-2.842zm-1.018 3.065s1.018-1.474 2.833-.57l3.625 1.813s2.608 1.705 1.93 4.759c-.678 3.063-1.586 3.631-1.586 3.631s-2.378 1.81-4.307.568-4.079-3.625-4.079-3.625-2.268-2.724-.343-4.651l1.927-1.927m-25.282 10.408 3.178-.914.906.801s1.021 1.243 1.021 1.925l.112 2.719 4.194-1.128s2.726-1.136 4.652.898c1.927 2.042 2.49 2.611 2.49 3.745v7.361l.224 1.021-3.172 1.253-1.135-1.812.341-6.686s.68-1.251-1.815-2.948c-.112-.115-.791-.799-2.042-.799-1.243 0-3.738 1.021-3.738 1.818l-.227 7.248s.341 1.704-1.364 1.925c-1.699.232-4.302.232-4.302.232s2.154-.453 2.264-2.157c.112-1.696-.11-12.014-.11-12.014s-.228-.677-.685-1.358-.794-1.13-.794-1.13m33.224 4.415s1.587.231 1.587 1.252v9.97l-.682 1.361 1.477.797s2.717-.113 2.833-1.242c.11-1.146 0-8.621 0-8.621s1.358-2.495 2.268-2.495 3.74-.223 3.966 1.925c.227 2.159.227 9.636.227 9.636s3.404 1.027 3.404-.906l.222-8.498s.794-2.157 2.385-2.157c1.584 0 3.852.231 3.964 2.379.115 2.157-.226 8.053-.226 8.737 0 .675.904 1.013.904 1.013h2.838l1.131-.906s-.909.231-1.131-.79.115-7.594.115-7.594-.458-2.724-1.815-3.63-2.495-2.611-5.781-1.36l-3.291 1.36s-1.362-1.137-2.948-1.474-2.268-.453-3.175 0-1.247 1.011-2.153.683c-.906-.346-3.063-.683-3.063-.683s-1.358-.115-1.696.453c-.343.558-1.362.791-1.362.791m-9.53-1.697s2.5-.799 4.875.223c2.385 1.021 5.331 2.726 5.665 5.443.343 2.726-.598 6.011-2.602 7.485-1.701 1.242-4.99 3.516-7.369 2.715-2.38-.79-5.78-2.148-7.144-6.001-1.357-3.854 1.591-7.032 1.591-7.032zm-1.016 3.062s1.016-1.474 2.833-.567l3.623 1.812s2.611 1.705 1.927 4.759c-.677 3.062-1.586 3.632-1.586 3.632s-2.377 1.811-4.302.56c-1.927-1.244-4.086-3.625-4.086-3.625s-2.265-2.716-.336-4.643zm36.163-2.249s1.021 2.044 1.021 3.285l.227 8.508s-.227 1.021.453 1.589 1.927.567 1.927.567l1.701-.904s-1.026-.568-.906-1.136-.343-9.297-.343-9.297-.906-2.719-1.359-3.17-2.722.558-2.722.558m5.103.801s2.495-1.704 3.173-.907a7.8 7.8 0 0 0 1.586 1.352s3.743-2.717 5.217-2.035 3.289 2.035 3.854 2.834c.566.79.566 1.474.566 2.495s-.456 7.705-.456 7.705-.227.907.343 1.13c.571.231.341 1.029.341 1.029s-1.358.453-2.039.222c-.683-.222-1.477-1.021-1.477-1.811l.23-6.802s-.23-3.738-2.722-3.969c-2.495-.223-3.631.115-4.079.906-.456.799-.231 5.443-.115 8.959-.115-.231 0 1.589-.568 1.696-.563.113-.563.344-1.474.344s-1.927-.114-1.927-.114.568 0 .568-1.358v-9.305s-.343-1.013-.68-1.698zm15.53-.8s1.021 2.044 1.021 3.285l.227 8.508s-.227 1.021.453 1.589 1.93.567 1.93.567l1.697-.904s-1.021-.568-.906-1.136-.341-9.297-.341-9.297-.908-2.719-1.355-3.17c-.456-.453-2.726.558-2.726.558m-66.772 16.784s-1.812-1.82-2.833-2.044.112-1.135-2.269 0-3.857 1.474-4.306 2.612c-.453 1.127-3.627 3.055.568 6.233 3.969 1.244 5.102 1.013 5.896 2.495.791 1.474 1.471 1.927.112 2.833s-3.964 1.359-4.307.105l-.458-1.694-2.374.344s-.341 3.172 3.623 3.402c4.084-.799 4.422-1.138 4.99-1.928.568-.797 1.589-1.474 1.474-3.178s-.115-2.148-2.042-3.169-4.759-1.705-4.759-1.705-2.273-1.591-1.359-3.172c.906-1.588 1.586-1.933 1.586-1.933s.453 0 2.268.799l2.264 1.021zm34.352 0s-2.042-3.065-6.238-2.044-8.389 3.969-8.048 8.277 1.811 6.686 4.649 7.485c2.836.79 7.027.337 8.158-.463 1.133-.791 2.042-1.349 1.929-2.032s-.68-1.253-.68-1.253l-1.471.117-.909 1.137s-.226 1.242-1.359 1.474c-1.136.222-5.1.675-6.008-2.834s-.683-6.464-.113-7.706c.563-1.253 2.268-3.862 4.985-2.495l3.291 1.472z"/><path d="M161.119 280.591s3.17 4.422 3.281 6.011c-.11.115-7.818.231-8.155 5.557.11 1.245 0 1.698 1.812 2.604 2.635 1.317 4.417.115 5.553-.568s1.591-1.476 2.495-.562l1.702 1.698s.568 0 1.701-.337c1.131-.346 1.699-.906 1.699-.906s0 .791-1.021-.914c-1.021-1.696-1.699-7.032-2.152-7.814-.458-.798-1.248-3.401-2.722-4.767s-2.495-1.697-2.495-1.697l-1.697 1.697zm1.812 7.822s-1.699-.338-2.607.683-1.815 2.38-.456 3.401c1.363 1.011 3.063 1.474 4.084.79 1.016-.675 1.248-1.243 1.133-2.151s-.343-1.925-.796-2.157c-.453-.221-1.359-.567-1.359-.567m50.334-7.821s3.173 4.422 3.289 6.011c-.115.115-7.828.231-8.165 5.557.117 1.245 0 1.698 1.817 2.604 2.64 1.317 4.422.115 5.555-.568s1.584-1.476 2.49-.562l1.704 1.698s.565 0 1.699-.337c1.133-.346 1.698-.906 1.698-.906s0 .791-1.018-.914c-1.021-1.696-1.702-7.032-2.158-7.814-.448-.798-1.243-3.401-2.717-4.767s-2.495-1.697-2.495-1.697l-1.699 1.697zm1.812 7.822s-1.698-.338-2.607.683-1.812 2.38-.453 3.401c1.362 1.011 3.06 1.474 4.081.79 1.021-.675 1.247-1.243 1.136-2.151s-.343-1.925-.796-2.157c-.453-.221-1.362-.567-1.362-.567m-23.802-7.591s.906.674.906 2.148l-.115 11.454-.563.907h4.307l.226-2.612s2.152-.336 3.06.57.793 2.042 2.152 2.156 3.743 0 3.743 0l-1.701-1.365c-.794-.675-1.927-2.718-1.927-2.718s3.854-2.948 4.307-3.969 1.359-2.612.115-4.306-1.817-3.516-4.079-3.516c-2.269 0-4.992.451-5.782.914-.797.444-1.587-1.145-2.156-.914s-2.492 1.251-2.492 1.251zm4.191 2.495.112 5.443s1.362 1.465 2.157 1.465 2.152.346 3.063-.562 1.81-3.629 1.584-4.42c-.231-.799-.906-2.388-1.701-2.611s-2.152-.454-3.058-.224c-.911.224-2.157.907-2.157.907m-31.743 14.058s.909.683.909 2.148l-.113 11.456-.565.906h4.307l.227-2.612s2.152-.336 3.058.57.791 2.042 2.152 2.157 3.743 0 3.743 0l-1.699-1.367c-.796-.677-1.927-2.718-1.927-2.718s3.857-2.949 4.306-3.969 1.362-2.61.116-4.307-1.813-3.516-4.081-3.516-4.993.453-5.784.914c-.795.445-1.586-1.144-2.149-.914-.573.231-2.5 1.252-2.5 1.252m4.194 2.495.117 5.443s1.362 1.464 2.152 1.464c.796 0 2.149.347 3.063-.558.906-.906 1.812-3.631 1.586-4.422-.231-.801-.908-2.388-1.702-2.611s-2.152-.454-3.06-.222c-.913.222-2.158.906-2.158.906m38.096-1.589s-1.812-1.82-2.834-2.044.112-1.127-2.268 0c-2.383 1.138-3.853 1.474-4.31 2.612-.45 1.128-3.623 3.055.566 6.233 3.969 1.252 5.102 1.021 5.898 2.495s1.474 1.927.113 2.833-3.969 1.359-4.31.107l-.453-1.696-2.379.344s-.343 3.172 3.626 3.402c4.081-.798 4.424-1.138 4.987-1.928.568-.797 1.589-1.474 1.477-3.178s-.113-2.148-2.04-3.169-4.761-1.704-4.761-1.704-2.268-1.591-1.362-3.172c.906-1.588 1.586-1.925 1.586-1.925s.456 0 2.268.79l2.269 1.021zm-13.945-.683s-1.021-1.137-2.833-1.361-1.247-.114-3.854 1.253c-2.61 1.358-6.008 2.948-5.67 7.139s.57 4.084 2.382 5.781 5.216 2.38 7.368 1.474 3.175-1.474 3.406-2.149c.223-.683.563-1.704-.231-1.704s-1.362 1.925-2.495 2.264-5.438-.339-6.008-4.192c0 0 2.382-1.928 6.688-1.812.118.107 1.705-1.251.226-1.251-1.471 0-6.344 0-7.818-.791-.117 0 .678-1.937 1.584-2.611s1.815-1.698 2.722-1.358l2.721 1.135 2.039-.567zm23.695-50.106s2.49-.791 4.873.232 5.328 2.717 5.67 5.441-.601 6.013-2.611 7.478c-1.699 1.25-4.987 3.516-7.369 2.726-2.375-.798-5.781-2.159-7.134-6.011-1.363-3.853 1.584-7.024 1.584-7.024zm-1.021 3.065s1.021-1.474 2.833-.57l3.631 1.813s2.605 1.705 1.925 4.759c-.678 3.063-1.587 3.631-1.587 3.631s-2.382 1.81-4.307.568c-1.932-1.243-4.086-3.625-4.086-3.625s-2.265-2.724-.336-4.651l1.927-1.927"/></g><g stroke="#000779" style="stroke-miterlimit:3.86400008"><path d="M140.846 244.896v32.754m24.39-27.658v10.919m48.402-10.919v10.919m-50.954 5.097v10.918m34.183 5.623v12.707m-27.505 3.895v12.714" stroke-width=".236"/><path d="m162.988 279.216 4.587 1.828 1.375 7.337m46.31-8.714 4.587 1.838 1.37 7.337" stroke-width=".181"/><path d="M184.999 299.197v10.727" stroke-width=".187"/></g></g><defs><path id="B" d="M171.618 236.753v3.165h-32.5v-3.165h2.685q4.699 0 6.824-4.192 1.343-2.737 1.343-13.174V144.45q0-8.811-.727-11.634-.56-2.139-2.293-3.678-2.461-2.053-5.146-2.053h-2.685v-3.165h32.5v3.165h-2.741q-4.642 0-6.768 4.192-1.398 2.737-1.398 13.174v74.938q0 8.811.727 11.634.56 2.139 2.349 3.678 2.406 2.053 5.09 2.053h2.741"/><path id="C" d="M298.068 283.625q2.149 0 3.613 1.514 1.514 1.465 1.514 3.613 0 2.1-1.514 3.613c-1.514 1.513-2.214 1.514-3.613 1.514s-2.604-.505-3.613-1.514-1.514-2.214-1.514-3.613q0-2.148 1.465-3.613 1.514-1.514 3.662-1.514"/></defs></svg>