<svg xmlns="http://www.w3.org/2000/svg" xmlns:xlink="http://www.w3.org/1999/xlink" width="1000" height="1000"><style>.B{stroke-miterlimit:3.864}.C{fill:none}.D{stroke-width:.746}.E{stroke:#000}.F{fill:#ffd911}.G{stroke:#ffd911}.H{fill:#e72b2e}.I{stroke-width:.187}.J{fill-rule:evenodd}.K{stroke:#e72b2e}</style><path fill="rgba(255,255,255,0)" d="M0 0h1000v1000H0z"/><g transform="translate(500 499.83) scale(6.6644)"><use xlink:href="#B" class="H"/><use xlink:href="#B" class="B C D K"/><use xlink:href="#C" class="F"/><use xlink:href="#C" class="B C D G"/><g class="F"><path d="m48.632-67.719-1.862-1.652-.739.069v20.607l-1.437.315-2.045.315-2.317-.441-1.99-.505-1.86.13-1.166.437-.488.449-.76-.07-1.109-.757-1.424-.19-1.841.315-2.166.57-1.989.061-1.773-.504-.758-.442v-20.447l-.612-.069-1.904 1.744-2.649.065v26.5l14.083-1.841.67.381 1.102.505h1.067l1.222-.259.859-.562 14.143 1.775v-26.5zm-68.692.089-1.859-1.652-.737.069v20.608l-1.426.318-2.054.316-2.324-.442-1.978-.513-1.868.134-1.167.437-.476.449-.764-.065-1.105-.762-1.438-.194-1.832.32-2.171.57-1.98.065-1.776-.509-.762-.446v-20.442l-.609-.069-1.895 1.743-2.664.065v26.501l14.087-1.845.67.388 1.101.505h1.071l1.224-.255.857-.57 14.146 1.776v-26.5z"/><path d="m45.457-44.588-2.391-.206-2.503-.197-2.401-.272-1.767-.113-.367-.496-.288-.52-.282-.537-.212-.32-.105-.22-.03-.298.346-.403.383-.273.296-.127.299-.118h1.506l.828.118.908.217.851.298.867.157.775.132h1.153l.849-.157.605-.179.238-.109.216-.069h.241l.158.149.48 1.012.392.814.462.909.203.424.111.223.053.138.004.111-.057.088-.136.003zm-21.984-.011 2.389-.202 2.489-.206 2.419-.271 1.755-.109.36-.5.295-.513.288-.544.209-.311.109-.229.022-.289-.339-.403-.394-.276-.289-.133-.304-.114h-1.497l-.821.114-.919.222-.847.297-.862.16-.791.134h-1.144l-.847-.156-.617-.181-.236-.117-.218-.068h-.233l-.165.148-.475 1.013-.394.821-.449.909-.219.423-.104.225-.056.132v.112l.056.087.129.004zm-46.662.011-2.391-.206-2.496-.197-2.408-.272-1.763-.113-.373-.496-.27-.52-.291-.537-.217-.32-.113-.22-.02-.298.349-.403.392-.273.277-.127.312-.118h1.5l.823.118.919.217.848.298.855.157.791.132h1.153l.845-.157.612-.179.242-.109.209-.069h.241l.158.149.483 1.012.392.814.451.909.205.424.109.223.046.138.022.111-.068.088-.129.003zm-21.983-.011 2.384-.202 2.508-.206 2.403-.271 1.767-.109.359-.5.288-.513.281-.544.22-.311.105-.229.023-.289-.347-.403-.392-.276-.275-.133-.303-.114h-1.505l-.826.114-.919.222-.845.297-.865.16-.78.134h-1.149l-.86-.156-.597-.181-.242-.117-.212-.068h-.238l-.173.148-.474 1.013-.382.821-.47.909-.208.423-.098.225-.053.132-.015.112.068.087.136.004z"/></g><path d="M57.407-9.187h-1.39v-64.231H-55.925l-.087 64.231h-1.312l-.037-65.719H57.407z"/><path d="M57.407-9.187h-1.39v-64.231H-55.925l-.087 64.231h-1.312l-.037-65.719H57.407z" class="B C E I"/><use xlink:href="#D"/><use xlink:href="#D" class="B C E I"/><use xlink:href="#E"/><use xlink:href="#E" class="B C E I"/><use xlink:href="#F"/><use xlink:href="#F" class="B C E I"/><path d="m-25.917-18.554 1.086 1.351 1.083 1.126.865.899.87.814.393.362.087.179-.212.22h-1.657l-1.043.319-1.045.313-1.297.45-1.087.359-1.305.185-.866.081-.87.095-.862-.132-1.136-.315-.956-.359-.692-.451-.352-.317-.173-.175h-.167l-.09.399.133.631.434.991.477.899.738.81 1 .765 1.128.497.702.088 1.034.139.995.045.792.042.338-.042.088.224-.254.276-.745.22-.78.18h-.862l-.606-.088-.702-.137h-.391l.825.989.652.722.952.857.78.586.222.088h.35l.559-.536.658-.637.647-.628.352-.274.171-.266v-.229l.389.048v.541l-.31.49-.515.678-.518.632-.401.357-.3.271-.086.183.045.229.863.85.529.226.352-.041.56-.544.779-.943.738-.631.526-.587.257-.177.303.132.129.32-.166.448-.398.494-.821.903-.696.715-.476.495-.175.137.091.266.995.951.608.631.519.223.518-.319.867-.943.611-.99.573-.717.646-.631.518-.223.78-.138.611.138.218.359.125.537v.72l-.209.944-.257 1.488-.087 1.083-.091 1.485.043 1.213.136.997.212.944.519 1.346.703 1.352.601 1.217.825 1.657.783 1.402.912 1.439.778 1.432.75 1.356.862 1.574.572 1.308.695 1.624.514 1.661.087 1.256v.761l.045.996.171.947.179.944.471 1.036.916.98 1.302.681 1.256.182 1.182-.042 1.168-.189 1.044-.179.826-.264.645-.19h.701l.783.142.999.311 1.037.093.998.086 1.393-.037.912-.182.912-.633.878-1.121.514-1.125.264-.993.121-.851.098-1.222v-1.257l-.133-.766-.045-.679v-.718l.079-.854.133-.722.352-.853.53-1.033.555-.902.826-1.039 1-1.351 1.002-1.301.909-1.4.786-1.707.688-1.622.658-1.62.3-1.663.128-1.172V2.6l-.128-1.353-.175-1.302-.169-1.305-.044-.948.088-.582.427-.314.485-.229.647-.041.652.041.832.454.816.721.87.899.478.49.521.275.473.134.746-.089.561-.319.923-.944.776-.714.352-.451-.702-.538-.781-.814-.862-.453-.478-.267-.311-.183.042-.222h1.521l.344.18.613.631.867.674.351.271.393.041.341-.041 1.959-1.401.179-.22-.132-.188-.911-.624-.967-.585-.348-.229-.34-.361.045-.225.125-.224h.303l.398.094 1.563.764.73.313.609.092.521.091.268-.129.779-.814.954-1.132.349-.628.091-.451-.481-.04h-1.477l-.65-.14-.356-.132-.035-.312.254-.233.608-.129.869-.095.605-.133.791-.675.735-.675.478-.767.306-.724.261-.719.125-.357-.34-.134-.477.402-1.087.541-1.085.534-.787.319-1.002.315-.693.05h-1.428l-1.311-.138-1.127-.228-1.087-.268-.915-.267-.526-.098-.597-.042h-.655l-.304-.093-.136-.266.221-.186 1.998-1.662 1.31-1.215 1.566-1.616 1.168-1.442.83-1.354.859-1.572.654-1.526.614-1.538.517-1.711.262-1.081.088-1.168v-.72l-.175-.406-.433-.175-.345.041-.395.18-.863 1.035-.952 1.263-1.264 1.48-1.044 1.263-1.177 1.173-1.304 1.209-1.304 1.176-1.301 1.031-1.562.907-1.432.768-1.61.715-1.651.678-1.517.582-1.093.361-.561.229-.479-.137-.517-.229-.478-.225-.602.046-.274.134-.211.132-.651-.943-1.086-1.26-.828-.898-.871-.86-.823-.537-.87-.407-.564-.178-.775-.134-.617-.041-.431.087-.436.041h-.347l-.518-.182-.565-.127-.787.039-.737.047-.826.095-.998.041h-.78l-.876.134-1 .585-.907.453-.822.674-.912.765-.741.853-.392.722-.384.268-.658.227-.613.137-.561.089-.559.046-1.133-.358-1.688-.719-1.443-.498-1.299-.632-1.657-1.031-1.302-.901-1.17-.853-1.215-.947-.956-.947-1.347-1.303-1.085-1.083-.958-1.034-.825-1.035-.479-.719-.561-.721-.175-.411-.397-.352-.56-.141h-.304l-.268.229-.386.631-.13.807.13 1.081.262 1.17.431 1.444.651 1.579.646 1.526.919 1.526.913 1.442zm72.543-1.212-.423-.495-.486-.364-.654-.446-.741-.269-.61-.092h-.692l-.646.183-.487.399-.293.366v.584l.165.491.224.316.257.224.134.316-.046.362-.262.403L.137 57.834l-.083 5.224 29.118-52.125.172-.407.29-.228.224.228.136.985.183.993.382 1.082.688 1.395.573 1.035.603 1.031.659.857.468.676.133.359-.255.673-.303.814-.569 1.127-.869 1.304-1.187 1.578-.593.714-.87.865-.92.852-.993.81-.737.542-1.001.77-1.007.356-1.165.405-1.039.404-.877.584-.642.632-.435.758-.439.995-.261.948-.128.671.041.901.22 1.219.261 1.263.43 1.391.565 1.534.518 1.3.617 1.398.517 1.215.482 1.441.294 1.22.136 1.027-.037 1.123-.179 1.49-.26.811-.436.902-.562.625-.437.405-.347.365.347.088 1.212-.319 1.097-.349 1.212-.725 1.169-.946.699-.811.741-1.077.605-1.353.561-1.398.524-1.171.658-1.299.46-1.086.832-1.125.832-.854 1.17-1.171 1.346-.904 1.439-.891 1.085-.633 1.347-.995 1.521-1.264 1.257-1.527 1.044-1.661.517-1.17.484-1.216.258-.95.045-1.033.035-1.125-.035-.992-.172-1.031-.131-.674-.222-.633-.134-.628.046-.448.524-.726.954-1.033 1.263-1.259 1.381-1.397 1.139-1.122.999-1.125.725-.948.66-1.21.653-1.31.392-1.034.303-1.261.09-.987.086-.901V7.514l-.052-1.08-.214-1.076-.259-.95-.473-1.213-.525-1.308-.739-1.35-.733-1.255-.783-1.131-.873-1.255-.913-1.31-.742-1.126-.778-1.213-.693-1.217-.562-1.168-.39-.858-.352-.901-.087-.628-.217-.724-.091-.765v-.538l.091-.406 1.473-2.882.181-.223.336-.09h.529l.527-.05.56-.224.305-.537.262-.499v-.672z"/><use xlink:href="#G" class="F"/><use xlink:href="#G" class="B C D G"/><path d="m36.508 2.961-1.039 1.395-1.131 1.311-.87.988-.955 1.085-.87.847-.353.318-.43.227-.134.311-.037.363.082.721.088.761.181.903.291 1.082.573 1.212.692 1.221.691 1.123.699.988.607.946.744.989.735 1.218.693 1.078.569 1.215.432 1.08.298 1.086.097.764.088.491.127.356h.303l.39-.491.78-1.171.875-1.072.99-1.262.918-1.131 1.126-1.218 1.05-1.082.908-.802.953-.951.913-.944.824-.899.745-.989.648-1.084.439-.989.559-1.164.179-1.042.13-1.26.079-1.125-.034-.943-.221-1.394-.22-1.447-.353-1.208-.687-1.445-.651-1.166L48.1-.723l-.957-1.355-.775-1.311-.742-.984-.787-1.082-.643-1.034-.606-1.17-.437-.765-.218-.767-.177-.449-.126-.227-.17-.134-.311.49-.169.719-.268 1.223-.428 1.443-.779 2.023-.571 1.306-.779 1.438-.78 1.532-.868 1.398zM26.209 29.657l.177.319 1.306.578.863.498 1.18.811 1.261.673 1.471.586 1.002.231.955-.179 1.089-.725.646-.72.607-1.13.346-.942.223-.99.127-.809.046-.899-.173-1.176-.352-1.125-.346-1.13-.435-.888-.688-.951-.482-.679-.306-.447-.212-.222-.222.088-.777 1.211-.961 1.669-.952 1.312-.875 1.123-.949.898-.783.763-1.002.857-1.048.67-.514.368zm9.171 4.142-.911.356-.741.097-1.261-.097-1.342-.498-1.306-.669-1.22-.716-1.173-.64-.997-.531-.868-.273-.657-.182-.867.045-.824.23-1.039.447-.748.717-.602.814-.172.807-.097.897-.127.906.127 1.128.353 1.528.43 1.35.614 1.534.486 1.303.468 1.264.654 1.483.394.944.303 1.215.122.716.053.904-.053.859-.081.81-.129.624-.176.86-.254.488-.26.463-.178.22.26-.05.522-.313.689-.582.789-.717.781-1.035.692-1.314.608-1.347.518-1.216.394-1.085.518-1.029.56-1.037.624-.943.689-.904.871-.81.736-.583 1.042-.72 1.171-.812 1.091-.677 1.042-.626 1.214-.856.863-.68 1.007-.981.907-1.226.526-.944.471-1.028.44-1.037.221-.987.085-1.13.046-1.256.034-.907-.034-.847-.178-.633-.174-.452-.344-.18-.349.32-.48.576-.555.774-.833 1.165-.607.902-.655 1.035-.562 1.037-.311.894-.519.775-.521.764-.473.625z" class="H"/><path d="m-46.522-19.859.438-.499.473-.356.659-.446.742-.274.597-.09h.7l.652.182.473.402.305.359v.585l-.177.494-.216.315-.257.229-.128.315.041.359.265.406L-.04 57.744l.094 5.218-29.109-52.122-.173-.399-.31-.233-.22.233-.121.983-.175.991-.398 1.075-.699 1.401-.56 1.039-.601 1.031-.656.856-.477.677-.136.353.268.679.308.811.56 1.129.869 1.3 1.169 1.575.617.718.855.861.92.857.999.803.738.545.999.766.999.36 1.169.401 1.047.413.863.579.658.632.436.761.434.999.257.945.124.676-.041.891-.211 1.216-.262 1.262-.44 1.406-.56 1.52-.524 1.308-.603 1.395-.524 1.21-.474 1.443-.306 1.218-.133 1.036.045 1.127.17 1.485.266.812.431.898.563.629.44.404.347.361-.347.086-1.22-.312-1.085-.349-1.215-.728-1.173-.943-.693-.812-.745-1.08-.604-1.35-.556-1.397-.524-1.17-.665-1.304-.474-1.082-.824-1.121-.822-.86-1.181-1.169-1.346-.905-1.43-.895-1.079-.632-1.358-.992L-39.965 36l-1.26-1.527-1.04-1.669-.527-1.17-.474-1.207-.253-.951-.051-1.033-.046-1.125.046-.993.173-1.028.132-.684.221-.625.129-.631-.042-.445-.525-.726-.958-1.036-1.259-1.26-1.385-1.393-1.128-1.131-.999-1.121-.746-.944-.647-1.215-.655-1.307-.394-1.04-.303-1.252-.074-.995-.092-.901V7.426l.045-1.084.213-1.08.261-.943.481-1.218.518-1.302.73-1.351.75-1.259.775-1.127.87-1.258.912-1.314.737-1.121.787-1.214.692-1.217.561-1.165.393-.86.352-.898.087-.629.211-.722.093-.765v-.545l-.093-.4-1.467-2.883-.182-.221-.348-.094h-.518l-.518-.048-.564-.225-.315-.534-.26-.5v-.673z"/><use xlink:href="#H" class="F"/><use xlink:href="#H" class="B C D G"/><path d="m-36.394 2.872 1.041 1.396 1.124 1.303.873.995.951 1.077.873.857.352.318.423.22.137.313.045.362-.084.727-.099.765-.17.898-.302 1.078-.557 1.22-.7 1.209-.695 1.127-.689.993-.612.946-.739.979-.745 1.227-.692 1.074-.561 1.218-.442 1.074-.302 1.085-.08.766-.091.496-.132.357h-.307l-.391-.497-.775-1.163-.866-1.082-1.014-1.255-.896-1.13-1.135-1.227-1.044-1.073-.916-.813-.952-.941-.912-.942-.821-.9-.746-.996-.647-1.074-.431-.992-.571-1.171-.175-1.038-.125-1.256-.083-1.127.034-.943.22-1.398.22-1.441.344-1.209.696-1.445.647-1.174.92-1.481.953-1.352.782-1.307.734-.99.783-1.081.655-1.034.606-1.171.438-.765.209-.762.182-.453.136-.228.166-.133.308.493.165.719.257 1.222.439 1.443.787 2.02.564 1.309.791 1.435.771 1.53.877 1.396zm10.293 26.691-.175.319-1.306.582-.866.499-1.173.81-1.256.681-1.475.582-1.004.22-.952-.179-1.088-.723-.649-.722-.614-1.123-.347-.946-.214-.984-.128-.814-.042-.904.169-1.166.346-1.127.35-1.122.429-.902.698-.945.474-.68.307-.449.22-.219.212.086.779 1.207.961 1.676.956 1.304.867 1.121.961.904.777.767 1.004.857 1.04.67.515.36zm-9.166 4.138.913.365.734.089 1.268-.089 1.342-.497 1.302-.67 1.215-.726 1.172-.627 1-.535.866-.279.658-.181.871.047.817.234 1.047.443.735.721.617.809.169.811.088.897.123.906-.123 1.13-.35 1.527-.437 1.349-.606 1.527-.476 1.313-.482 1.255-.651 1.483-.387.948-.305 1.218-.133.717-.043.896.043.858.088.814.127.629.178.859.262.49.261.452.166.228-.258-.047-.519-.319-.695-.581-.786-.714-.775-1.043-.688-1.305-.622-1.348-.513-1.216-.394-1.085-.518-1.028-.571-1.036-.597-.952-.701-.895-.873-.811-.734-.587-1.042-.718-1.176-.81-1.09-.673-1.037-.635-1.219-.855-.869-.676-.999-.988-.916-1.218-.518-.944-.48-1.037-.432-1.035-.216-.989-.079-1.122-.061-1.256-.041-.908.041-.846.191-.633.165-.453.344-.178.359.319.473.576.564.765.821 1.174.617.901.64 1.035.575 1.032.295.9.527.766.522.764.476.641z" class="H"/><path d="m-15.065-1.267.922.495 1.343.403 1.132.179 1.079.052 1.183.131 1.087.271.688.228.476.315.613.444.561.767.398 1.038.211 1.079.257 1.172v1.845l-.166 1.489-.302 1.478-.398 1.395-.348 1.223-.348.719-.396.761-.293.543-.177.403-.088.812v.988l.136.856.129 1.032-.042.904-.264 1.126-.175.902-.179.67-.173.907-.04.81.131.765.216.717.398.726.775.445.696.364.822.089h.658l.773-.089.995-.312.83-.186.659-.224.561-.18.955-.043.913.043.961.043 1.214.315 1.129.317 1.003.226h.997l.95-.405.696-.496.432-.675.22-.902.085-1.084v-.576l-.085-.775-.254-.851-.398-.81-.26-.81-.084-.718-.047-.68.047-.943.171-.674-.039-.945-.133-.771-.217-.938-.436-1.131-.396-1.168-.381-1.17-.311-.904-.249-1.348-.178-.99-.094-.9.049-1.042.223-.985.209-.902.43-.811.481-.629.736-.581.832-.406 1.039-.5 1.178-.401.854-.271.969-.316.774-.311.96-.361.872-.587.74-.672.515-.588.568-.854.344-.813.217-.991.133-.899v-.989l-.043-.902-.09-.812-.174-.582-.167-.544-.178-.356-.175-.315-.174.136.045.536.087.862.043.893v1.038l-.086.991-.307 1.083-.645 1.165-.486.634-.735.854-1.04.585-1.136.453-1.077.315-1.134.358-.911.361-.954.445-.912.453-.961.356-.695.187L4.661.762 3.793.665 2.88.491 1.842.441.844.395l-1.09.179-.952.137-1.045.229-.87-.05-.74-.179-1.215-.447-.823-.54-.955-.445-1.088-.313-.956-.186-.953-.134-1.085-.179-1.177-.137-1.082-.315-1.09-.403-.648-.454-.559-.627-.364-.947-.124-.899v-1.033l.048-.907.125-1.077.217-.943.136-.769.083-.539.173-.315.046-.307-.046-.233-.09-.269-.166.134-.62 1.081-.424 1.26-.393 1.169-.125.902-.095.99v1.264l.26 1.122.439 1.169.481.675zm11.059-18.095.152-.133.18-.046.125.111v.319l-.038.245-.311.379-.174.361-.233.518-.217.356-.091.276-.086.288-.043.21v.289l.11.339.133.225.258.18.387.069.239-.225.285-.656.216-.673.238-.65.216-.523.179-.403.15-.447.087-.207.178-.225.147-.134.237-.022.087.156.042.275-.042.289-.149.591-.155.489-.059.381-.095.27-.013.27-.053.358.019.407.152.224.309.207.441.111.604.114.438.024.54-.117.346-.108.35-.117.237-.095.07-.156v-.244l-.07-.225-.088-.288-.149-.298-.084-.312-.073-.338v-.379l.073-.389.055-.38.054-.356.124-.298.11-.156.169-.043.134.065.136.203.042.247.022.429-.022.377-.023.387-.019.335.042.244.129.319.057.294.238.243.242.187.305.088.289.068.34-.092.285-.087.201-.179.175-.21.063-.311-.047-.379-.104-.226-.113-.225-.062-.297-.026-.403v-.337l.026-.363.021-.311.089-.201.169-.073.115.073.128.334.07.334.104.453.111.425.101.452.161.363.143.292.181.203.174.156.231.023.306-.069.363-.289.442-.315.209-.276.16-.265.082-.226.095-.274.066-.133.108-.088.133.065.083.338.039.517.026.399-.064.59-.158.36-.259.453-.271.295-.364.22-.36.093-.309.021-.325-.069-.277-.201-.154-.159-.11-.138-.129-.08h-.175l-.147.056-.136.32-.149.249-.227.155-.207.183-.239.088H3.3l-.314-.019-.148-.116-.15-.048-.152.117-.302.272-.436.197-.439.157-.491.187-.575.132-.578.069-.592-.045-.39-.111-.454-.187-.331-.216-.169-.162-.109-.12-.132-.057h-.13l-.11.057-.019.186-.069.157-.086.11-.26.093-.299.025-.335-.073-.392-.133-.451-.313-.265-.246-.145-.299-.138-.221-.056-.16-.128-.114h-.11l-.178.183-.173.204-.241.133-.258.044-.329-.044-.438-.157-.411-.267-.23-.21-.267-.267-.147-.251-.025-.294.065-.174.087-.092h.155l.352.334.493.095.46-.113.299-.138.523-.379.604-.609.349-.563.268-.336.239-.36zm-6.213 11.098-.125.513-.125.293-.133.247-.109.253-.027.224-.019.289.058.183.432-.262.792-.637.646-.364.673-.65.462-.423.198-.319.087-.133h.151v.897l.018.944.064.453v1.35l-.045.425-.06.501-.129.581-.224.315-.084.294-.082.229.126.11.238.047.603-.385 1.003-.788.821-.7.633-.835.367-.764.197-.624.177-.544.083-.267.088-.053.132.095.171.608.147.745.136.717.107.793.067.557.027.475-.069.65-.045.476-.15.562-.126.402-.109.32v.243l.257.069.523-.247.673-.587.523-.472.537-.673.62-.719.359-.594.174-.353.11-.293.109-.138.215-.018.259.448.458.653.549.45.628.357.6.363.421.332.271.294.297.161.185.138.224-.069.048-.272.107-.608.154-.56.136-.612v-.738l-.079-.564-.134-.389-.148-.243-.11-.224v-.188l.217-.064.527.499.626.633.59.74.366.586.195.514.143.497.099.244.144.117.295-.412.317-1.008.203-.765.181-.835.211-.756.086-.617v-.44l.015-.168.153-.02.721.701.738.554.476.613.447.587.29.536.179.407.122.251.114.133.129-.064.277-.613.302-.743.2-.609.087-.941-.025-.947-.125-.671-.215-.833-.392-.815-.394-.851-.301-.836-.248-.585-.208-.431-.044-.338-.112-.132-.148.092-.109.27.019.673.124 1.012.201.99.307.832.26.678.104.518.155.426.042.567-.042.38-.022.288-.114.092-.584-.563-.777-.829-1-.948-.911-.942-.635-.812-.349-.513-.275-.457-.248-.379-.143-.203-.221-.068-.201.046.087.429.274.765L7.4-10l.246.631.186.723.131.559-.021.473-.11.765-.132.677-.144.357-.052.251-.165-.018-.22-.409-.43-.534-.401-.342-.515-.453-.589-.429-.392-.495-.329-.564-.24-.516-.196-.449-.1-.65-.047-.362-.021-.267-.087-.275-.219-.045-.021.36-.045.427-.11.43-.112.646v1.177l.088.719.222.902.304.789.232.584.153.431.073.426v.38l-.093.136-.219.09-.186-.09-.443-.36-.625-.339-.568-.406-.517-.557-.261-.585-.175-.814V-8.47l.027-.741-.116-.742-.166-.696-.22-.519-.263-.292-.23-.069-.113.11.034.319.114.2.174.588.132.583v.919l-.022.971-.045.655-.273.668-.439.933-.413.693-.388.494-.354.406-.283.316-.169.065-.065-.179v-1.717l-.09-1.095-.095-.564-.23-.924-.261-.943-.371-.945-.299-.718-.175-.406-.082-.295-.155-.113-.154.047.019.605-.106.612-.133.857-.231.764-.291.853-.349.83-.366.654-.367.541-.241.299-.153.153-.113.048-.106-.139.018-.429-.018-1.328-.079-1.279-.111-1.286-.043-1.056.021-.61v-.399l-.045-.319-.152-.069-.147.206-.314.833-.436.698-.386.563-.439.311-.253.095-.264-.073-.064-.201-.022-.426-.151-.608-.201-.656-.234-.586-.092-.515-.053-.475v-.739l.018-.241.025-.206-.069-.096-.132-.087-.435.629-.045.765.019.858v1.059l.027.446.088.452.04.426v1.196zm-.775 13.453.65.077.518.018.561-.095.62-.134.537-.16.518-.083.455-.073.415-.061.264-.164.065-.179.022-.356-.043-.25-.177-.226-.132-.188-.152-.263-.084-.294-.046-.27-.024-.334v-.206l-.13-.232-.124-.149-.216-.187-.221-.11-.2-.023-.02.357.02.429-.02.388-.023.226-.172.402-.278.337-.373.269-.439.156-.493.114-.485-.044-.583-.09-.453-.338-.326-.334-.215-.431-.133-.399-.045-.433.045-.425.075-.248.122-.224.097-.134-.011-.182-.265-.138-.37-.135-.481-.09-.281-.066-.216-.045-.26-.045h-.242l.053.225.034.54.048.581.042.563.234.59.201.513.351.589.448.537.337.389.465.333zm23.06-2.494.06-.386.057-.419-.046-.396-.059-.242-.075-.289-.11-.134.019-.182.26-.138.419-.132.364-.117.287-.063.277-.024.269-.044.215-.064-.022.288-.045.536-.046.585-.042.565-.238.586-.202.518-.338.589-.458.536-.333.388-.471.335-.527.196-.649.077-.519.018-.567-.095-.601-.132-.554-.159-.51-.085-.464-.071-.408-.062-.261-.164-.063-.179-.025-.358.155-.266.228-.198.165-.207.239-.209.205-.183.102-.255.075-.252.101-.173.202-.108.158-.069h.247l.094.141v.186l-.055.156.136.407.119.307.287.331.392.188.481.106.492.004.586-.092.451-.337.332-.339z" fill="#fff"/><use xlink:href="#I" class="H"/><use xlink:href="#I" class="B C D K"/><use xlink:href="#J" class="H"/><use xlink:href="#J" class="B C D K"/><path d="m-6.858 21.376-.202.502-.11.785-.068.742-.018.647.151.587.284.412.472.465.543.248.533.114.592-.171.572-.213.636-.227.538-.131.524-.112.541-.044.78-.063h.98l.696.041.627.045.954.047.631.109.474.201.719.19.631.157.696.057.627.027.631-.137.527-.253.295-.35.22-.475.111-.453.087-.426-.02-.61-.195-.672-.225-.767-.273-.649-.132-.588-.156-.632-.064-.882-.049-.85.049-.723.02-.65v-.589l-.084-.358-.174-.355-.288-.276-.366-.223-.347-.109-.416-.023-.451.023-.317.109-.357.179-.43.134-.419.251-.492.225-.357.135-.446.108-.636.157-.56.025-.7-.025h-.564l-.513-.157-.573-.156-.612-.221-.536-.226-.498-.161-.485-.13-.369-.206-.364-.088-.504-.027h-.479l-.281.088-.169.142-.024.091-.351.385-.082.376-.025.451v1.526l.042.518v.786l-.017.811-.161.658zm1.924-9.363-.389.812-.175.409-.042.311.266.042.514-.175 1.048.088.995.22 1.085.545.825.498.956.177 1.257-.13.865-.363.912-.359.876-.367.739-.133.736-.042.48.042h.181l-.224-.443-.484-1.131-.339-.985-.305-1.082-.264-.989-.128-.859-.093-.987v-.814l.13-1.075.22-.947.265-.723.299-.623.307-.457.221-.317v-.174l-1.001-.09-1.306-.139-1.177-.047h-.82l-.778-.041-.788.183-.564.134-.566.084-.561.09h-.824l-.693-.037-.614-.137-.691-.09-.352-.093-.306-.046.529 1.034.382.807.22.911.134.853.041 1.033v1.084l-.088 1.344-.249 1.221-.222.943z"/><g fill="#fff"><path d="m-5.714 18.383.035-.313.077-.338.196-.271.167-.248.284-.265.275-.138.421-.117.307-.02.438.045.424.206.42.357.339.449.178.517.129.522.066.445.047.612-.047.579-.066.499-.147.587-.28.426-.247.375-.347.389-.389.343-.456.232-.502.192-.427.022h-.329l-.348-.022-.193-.085.011-.144.202-.155.376-.227.37-.264.325-.187.338-.29.333-.386.301-.402.178-.358.124-.319.111-.338.087-.312v-.387l.025-.38-.045-.25-.091-.314-.165-.288-.224-.25-.262-.201-.211-.112-.221-.03-.171.074-.195.112-.115.181-.082.178-.068.223-.019.427.045.386.109.222.084.138.045.116.055.175-.034.182-.219.067-.329-.037-.278-.212-.154-.265-.15-.298-.112-.356v-.337zm11.406 0-.042-.313-.069-.338-.197-.271-.174-.248-.281-.265-.283-.138-.416-.117-.296-.02-.439.045-.431.206-.418.357-.345.449-.175.517-.132.522-.067.445-.04.612.04.579.067.499.156.587.278.426.243.375.344.389.394.343.459.232.499.192.433.022h.322l.343-.022.205-.085-.021-.144-.201-.155-.375-.227-.362-.264-.324-.187-.354-.29-.321-.386-.304-.402-.179-.358-.129-.319-.11-.338-.079-.312v-.387l-.018-.38.041-.25.08-.314.17-.288.224-.25.261-.201.224-.112.203-.03.18.074.192.112.114.181.087.178.076.223.011.427-.044.386-.109.222-.091.138-.045.116-.059.175.045.182.215.067.32-.037.285-.212.152-.265.154-.298.111-.356v-.337z"/><use xlink:href="#K"/></g><use xlink:href="#K" stroke="#fff" class="B C D"/><path d="m-27.268-69.902.675.228.65.11h.565l.651-.043.479-.185.456-.179.218-.069.281-.047h.742v.556l-.434.294-.308-.103-.22.041-.32.138-.522.157-.743.046-.582.041-.719-.065-.856-.156-.75-.293-.587-.202-.691-.092-.782.05-.485.019-.822.175-.65.21-.628.331-.569.432-.499.312-.082.142v.174h-.375l.026-.65.45-.319.609-.491.545-.365.769-.377.731-.16.764-.136.791-.068.919.068.497.161z"/><path d="m-23.015-69.273.462-.278h.786l1.666 1.688v.637h-.62v-.536l-1.241-1.132h-.435v19.673h-.617z"/><path d="m-20.243-43.547-.135.109h-.344v-24.387l.609.543v23.423l-.05.188z"/><path d="m-23.68-43.686-2.418-.18-3.084-.244-2.418-.273-.56-.116-.352.18-.321.165-.324.2-.239.088-.801.024-.023-.656.477-.019.393-.137.261-.156.02-.244-.056-.252-.118-.403-.23-.356-.186-.319-.185-.453-.155-.268-.197-.224v-1.193l.371-.116.284-.065.496-.293.458-.229.397-.065 1.014.043 1.505.114.969.251.809.266 1.26.247 1.491.025.746-.272.652-.223.499-.157.215-.05h.02v-.308h.626v1.054l.676 1.284.416.856.204.411.122.293.28.722-.03-1.064.03-.113v2.465z" class="J"/><use xlink:href="#L" class="F"/><use xlink:href="#L" class="B C D G"/><path d="M-51.354-40.309v-27.552h3.155v.635h-2.418v25.973l14.158-1.847.352.319.412.291.496.251.451.123.462.026.722-.11.716-.229.397-.279.344-.342.254-.21 13.772 1.823v-25.789h-2.048v-.635h2.781v27.506l-14.373-1.892-.473.338-.612.362-.67.259-.719.061-.815-.077-.983-.28-1.184-.548zm10.223-29.604-.669.224-.662.114h-.56l-.659-.046-.469-.182-.463-.183-.211-.065-.276-.046h-.75v.555l.438.298.307-.11.213.048.324.134.522.16.746.039.579.048.718-.064.857-.157.753-.296.583-.198.696-.096.786.046.477.023.828.179.648.206.629.331.57.432.497.316.086.133v.179h.372l-.02-.654-.461-.311-.606-.498-.54-.359-.765-.38-.734-.16-.761-.132-.802-.069-.919.069-.497.156z"/><path d="m-45.383-69.285-.466-.278h-.786l-1.661 1.693v.631h.617v-.54l1.243-1.126h.432v19.675h.621z"/><path d="m-48.161-43.561.144.108h.344v-24.38l-.613.54v23.425l.053.186z"/><path d="m-44.722-43.694 2.418-.183 3.083-.248 2.415-.266.563-.116.348.181.32.156.335.205.237.088.802.018.023-.647-.485-.022-.389-.134-.259-.164-.022-.243.063-.248.114-.406.238-.358.167-.316.201-.447.151-.272.197-.229v-1.191l-.379-.113-.28-.069-.496-.29-.454-.224-.401-.073-1.006.049-1.507.115-.972.244-.809.274-1.263.247-1.496.024-.733-.271-.648-.229-.506-.156-.22-.045h-.014v-.312l-.629-.004v1.057l-.678 1.288-.411.852-.209.41-.125.294-.28.726.042-1.068-.042-.115v2.465z" class="J"/><use xlink:href="#M" class="F"/><use xlink:href="#M" class="B C D G"/><path d="m-34.173-47.34.023-1.169.023-.007.326-.095v-19.336l-.189-.302-.13-.281h-.14l-.209.517-.121.111v19.323l.372 1.23z"/><path d="m-30.066-65.018-.789-.069-.581.043-.693.223-.66.276-.456.201-.299.142-.201.061h-.102v1.216l.128-.022.395-.498.491-.522.674-.333.482-.175.386-.12.415-.018.743.138.516.175.589.202.412.11.572.099.599.042.609-.024.546-.018.484-.099.451-.058v-.657l-.497.05-.405.087-.317.11-.561.091h-.439l-.536-.044-.398-.157-.47-.156-.484-.138zm.013 3.757-.783-.069-.583.047-.696.225-.649.266-.456.21-.311.128-.189.069h-.109v1.217l.128-.022.395-.494.499-.522.677-.334.477-.178.382-.119.415-.019.744.138.518.178.589.203.411.109.561.096.609.046.604-.028.55-.018.472-.096.459-.064v-.654l-.499.046-.387.091-.326.114-.564.091h-.439l-.541-.049-.401-.156-.465-.156-.48-.137zm-.013 3.871-.789-.069-.581.043-.693.229-.66.273-.456.203-.299.133-.201.065h-.102v1.216l.128-.025.395-.491.491-.522.674-.334.482-.178.386-.119.415-.019.743.138.516.178.589.203.412.109.572.092.599.046.609-.023.546-.023.484-.092.451-.064v-.654l-.497.053-.405.08-.317.11-.561.099h-.439l-.536-.048-.398-.161-.47-.152-.484-.138zm0 3.984-.789-.069-.581.046-.693.226-.66.269-.456.207-.299.132-.201.065h-.102v1.213l.128-.018.395-.494.491-.52.674-.336.482-.175.386-.114.415-.027.743.141.516.175.589.203.412.11.572.094.599.043.609-.022.546-.021.484-.094.451-.066v-.654l-.497.055-.405.084-.317.109-.561.095h-.439l-.536-.048-.398-.156-.47-.157-.484-.138zm-8.173-11.612.782-.069.588.043.695.223.646.276.459.201.311.142.196.061h.106v1.216l-.133-.022-.392-.498-.504-.522-.666-.333-.482-.175-.39-.12-.414-.018-.738.138-.518.175-.587.202-.413.11-.564.099-.616.042-.601-.024-.541-.018-.481-.099-.45-.058v-.657l.492.05.393.087.325.11.568.091h.428l.548-.044.386-.157.482-.156.483-.138zm-.024 3.757.779-.069.59.047.697.225.654.266.454.21.306.128.193.069h.115v1.217l-.14-.022-.386-.494-.502-.522-.671-.334-.485-.178-.386-.119-.412-.019-.74.138-.524.178-.579.203-.419.109-.561.096-.606.046-.611-.028-.538-.018-.48-.096-.454-.064v-.654l.496.046.39.091.324.114.569.091h.431l.547-.049.384-.156.481-.156.483-.137zm.024 3.871.782-.069.588.043.695.229.646.273.459.203.311.133.196.065h.106v1.216l-.133-.025-.392-.491-.504-.522-.666-.334-.482-.178-.39-.119-.414-.019-.738.138-.518.178-.587.203-.413.109-.564.092-.616.046-.601-.023-.541-.023-.481-.092-.45-.064v-.654l.492.053.393.08.325.11.568.099h.428l.548-.048.386-.161.482-.152.483-.138zm0 3.984.782-.069.588.046.695.226.646.269.459.207.311.132.196.065h.106v1.213l-.133-.018-.392-.494-.504-.52-.666-.336-.482-.175-.39-.114-.414-.027-.738.141-.518.175-.587.203-.413.11-.564.094-.616.043-.601-.022-.541-.021-.481-.094-.45-.066v-.654l.492.055.393.084.325.109.568.095h.428l.548-.048.386-.156.482-.157.483-.138z"/><use xlink:href="#N" fill="#fff"/><use xlink:href="#N" stroke="#fff" class="B C D"/><path d="m41.374-69.902.675.228.643.11h.571l.652-.043.477-.185.449-.179.219-.069.285-.047h.746v.556l-.436.294-.307-.103-.214.041-.33.138-.52.157-.737.046-.589.041-.715-.065-.844-.156-.76-.293-.589-.202-.702-.092-.771.05-.486.019-.829.175-.646.21-.635.331-.561.432-.5.312-.084.142v.174h-.372l.022-.65.463-.319.605-.491.547-.365.757-.377.73-.16.762-.136.812-.068.913.068.491.161z"/><path d="m45.623-69.273.462-.278h.793l1.674 1.688v.637h-.64v-.536l-1.23-1.132h-.438v19.673h-.62z"/><path d="m48.403-43.547-.134.109h-.358v-24.387l.613.543v23.423l-.043.188z"/><path d="m44.954-43.686-2.406-.18-3.093-.244-2.405-.273-.557-.116-.355.18-.326.165-.317.2-.246.088-.809.024-.014-.656.472-.019.391-.137.265-.156.012-.244-.046-.252-.122-.403-.242-.356-.174-.319-.193-.453-.148-.268-.2-.224v-1.193l.37-.116.293-.065.491-.293.463-.229.382-.065 1.026.043 1.497.114.977.251.798.266 1.268.247 1.502.025.729-.272.651-.223.502-.157.224-.05h.012v-.308h.632v1.054l.666 1.284.423.856.201.411.117.293.296.722-.045-1.064.038-.113v2.465z" class="J"/><use xlink:href="#O" class="F"/><use xlink:href="#O" class="B C D G"/><path d="M17.28-40.309v-27.552h3.153v.635h-2.416v25.973L32.175-43.1l.355.319.407.291.507.251.442.123.474.026.71-.11.719-.229.402-.279.338-.342.259-.21 13.771 1.823v-25.789h-2.043v-.635h2.779v27.506l-14.379-1.892-.48.338-.605.362-.669.259-.715.061-.815-.077-.991-.28-1.176-.548zm10.226-29.604-.668.224-.656.114h-.57l-.644-.046-.484-.182-.452-.183-.215-.065-.284-.046h-.747v.555l.436.298.311-.11.22.048.322.134.52.16.739.039.586.048.72-.064.844-.157.768-.296.574-.198.705-.096.787.046.468.023.827.179.658.206.617.331.579.432.495.316.083.133v.179h.38l-.031-.654-.451-.311-.609-.498-.549-.359-.753-.38-.742-.16-.764-.132-.802-.069-.911.069-.496.156z"/><path d="m23.258-69.285-.47-.278h-.786l-1.665 1.693v.631h.629v-.54l1.248-1.126h.427v19.675h.616z"/><path d="m20.469-43.561.148.108h.348v-24.38l-.617.54v23.425l.048.186z"/><path d="m23.924-43.694 2.415-.183 3.078-.248 2.413-.266.568-.116.34.181.334.156.325.205.233.088.803.018.024-.647-.474-.022-.395-.134-.267-.164-.02-.243.073-.248.108-.406.235-.358.166-.316.201-.447.158-.272.19-.229v-1.191l-.368-.113-.283-.069-.497-.29-.458-.224-.392-.073-1.012.049-1.505.115-.975.244-.805.274-1.261.247-1.495.024-.738-.271-.655-.229-.507-.156-.212-.045h-.016v-.312l-.627-.004v1.057l-.666 1.288-.428.852-.209.41-.116.294-.296.726.053-1.068-.041-.115v2.465z" class="J"/><use xlink:href="#P" class="F"/><use xlink:href="#P" class="B C D G"/><path d="m34.469-47.34.015-1.169.023-.007.327-.095v-19.336l-.186-.302-.127-.281h-.139l-.211.517-.127.111v19.323l.382 1.23z"/><path d="m38.575-65.018-.788-.069-.583.043-.695.223-.667.276-.446.201-.295.142-.205.061h-.11v1.216l.132-.022.391-.498.502-.522.681-.333.474-.175.381-.12.42-.018.731.138.526.175.593.202.405.11.566.099.608.042.603-.024.55-.018.478-.099.457-.058v-.657l-.503.05-.393.087-.323.11-.555.091h-.44l-.541-.044-.397-.157-.483-.156-.471-.138zm.01 3.757-.783-.069-.587.047-.687.225-.655.266-.454.21-.306.128-.195.069h-.11v1.217l.138-.022.387-.494.498-.522.678-.334.469-.178.402-.119.408-.019.751.138.508.178.588.203.414.109.566.096.606.046.608-.028.546-.018.472-.096.462-.064v-.654l-.506.046-.379.091-.336.114-.562.091h-.433l-.539-.049-.399-.156-.475-.156-.477-.137zm-.01 3.871-.788-.069-.583.043-.695.229-.667.273-.446.203-.295.133-.205.065h-.11v1.216l.132-.025.391-.491.502-.522.681-.334.474-.178.381-.119.42-.019.731.138.526.178.593.203.405.109.566.092.608.046.603-.023.55-.023.478-.092.457-.064v-.654l-.503.053-.393.08-.323.11-.555.099h-.44l-.541-.048-.397-.161-.483-.152-.471-.138zm0 3.984-.788-.069-.583.046-.695.226-.667.269-.446.207-.295.132-.205.065h-.11v1.213l.132-.018.391-.494.502-.52.681-.336.474-.175.381-.114.42-.027.731.141.526.175.593.203.405.11.566.094.608.043.603-.022.55-.021.478-.094.457-.066v-.654l-.503.055-.393.084-.323.109-.555.095h-.44l-.541-.048-.397-.156-.483-.157-.471-.138zm-8.174-11.612.778-.069.588.043.7.223.656.276.45.201.302.142.193.061h.115v1.216l-.137-.022-.393-.498-.497-.522-.666-.333-.478-.175-.393-.12-.413-.018-.741.138-.525.175-.575.202-.419.11-.561.099-.605.042-.612-.024-.546-.018-.472-.099-.462-.058v-.657l.502.05.383.087.333.11.559.091h.439l.538-.044.394-.157.483-.156.473-.138zm-.022 3.757.787-.069.587.047.691.225.647.266.457.21.312.128.185.069h.111v1.217l-.122-.022-.402-.494-.488-.522-.678-.334-.484-.178-.382-.119-.422-.019-.732.138-.515.178-.593.203-.41.109-.567.096-.616.046-.6-.028-.55-.018-.473-.096-.458-.064v-.654l.503.046.386.091.326.114.575.091h.423l.55-.049.389-.156.485-.156.474-.137zm.022 3.871.778-.069.588.043.7.229.656.273.45.203.302.133.193.065h.115v1.216l-.137-.025-.393-.491-.497-.522-.666-.334-.478-.178-.393-.119-.413-.019-.741.138-.525.178-.575.203-.419.109-.561.092-.605.046-.612-.023-.546-.023-.472-.092-.462-.064v-.654l.502.053.383.08.333.11.559.099h.439l.538-.048.394-.161.483-.152.473-.138zm0 3.984.778-.069.588.046.7.226.656.269.45.207.302.132.193.065h.115v1.213l-.137-.018-.393-.494-.497-.52-.666-.336-.478-.175-.393-.114-.413-.027-.741.141-.525.175-.575.203-.419.11-.561.094-.605.043-.612-.022-.546-.021-.472-.094-.462-.066v-.654l.502.055.383.084.333.109.559.095h.439l.538-.048.394-.156.483-.157.473-.138zM-.193-68.758l.71-.019.891.019h.46l.498-.041.862-.05.744.072.773.088.593.225.567.433.507.445.561.651.19.384.103.294.078.179.234-.11.238-.206.32-.226.329-.156.443-.16.436-.041h.336l.136.041v.272l-.024.311-.063.429-.048.41-.079.334-.156.34-.083.292-.076.134.115.112.28-.025.393.156.399.203.47.498.35.654.289.788.213.541.173.457.168.352.135.678.136.65.102.606.181.567.259.76.255.565.087.604.173.362.11.702v1.6l-.067.737-.043.651-.105.385-.288.432-.454.377-.17.115-.019.11.019.138.427.356.376.591.298.421.22.315.158.229.035.312-.015.341-.129.203-.328.11-.439-.022-.541-.047-.541-.041-.281.019-.435-.088h-.134l-.154.157-.021.585-.232.567-.237.496-.506.668-.689.655-1.042.746-.945.628-.947.604-1.071.5-.628.221-.675.179-.796-.061-.545-.142-.481-.132-.347-.112-.239-.069-.088.138.068.27-.136.559-.194.453-.28.609-.303.357-.223.225-.129.047-.155-.116-.318-.357-.265-.471-.262-.5-.177-.443L-1-42.02l-.045-.312-.153-.025-.126.025-.093.132-.101.225-.311.276-.343.156-.39.11-.439.022-.453-.091-.736-.316-.831-.49-.803-.745-.778-.697-.527-.567-.426-.423-.549-.453-.587-.513-.473-.452-.473-.567-.462-.578-.266-.453-.15-.29-.042-.342.022-.2-.078-.112-.16-.037-.203.037-.3.007-.352.097-.561-.017-.567-.063-.342-.134-.21-.183-.03-.315.072-.41.232-.336.213-.334.171-.297.219-.245.22-.311.127-.186.132-.13-.152-.183-.458-.471-.213-.425-.177-.656-.08-.585.02-1.013.125-.673.087-.361.117-.452.122-.587.202-.693.212-.673.197-.7.332-.864.125-.69.114-.542.194-.656.153-.537.261-.563.217-.538.272-.469.534-.499.518-.334.371-.164.257-.044.223-.043.152-.022.018-.088-.121-.159-.201-.377-.136-.389-.101-.493-.024-.472-.047-.32v-.422l.071-.255.127-.103.364.045.476.152.403.294.448.179.5.134.391.141.37.084.284.091.387-.471.329-.399.362-.366.376-.289.589-.18.498-.114.589-.072h.976l.582.05z"/><path d="M-.211-55.087c0-.38.292-.686.65-.686.372 0 .668.305.668.686s-.296.69-.668.69c-.358 0-.65-.308-.65-.69m1.168 1.353c0-.38.293-.686.665-.686.36 0 .651.305.651.686s-.291.693-.651.693c-.372.001-.665-.311-.665-.693m.387-2.251c0-.38.299-.686.662-.686.372 0 .666.305.666.686s-.294.689-.666.689a.676.676 0 0 1-.662-.689m-1.692-.988c0-.38.296-.686.667-.686.359 0 .65.305.65.686s-.291.686-.65.686a.672.672 0 0 1-.667-.686m-1.543 1.299a.68.68 0 0 1 .668-.686c.358 0 .66.312.66.686 0 .384-.302.693-.66.693a.68.68 0 0 1-.668-.693m.589 2.03c0-.381.293-.686.655-.686.375 0 .663.305.663.686a.67.67 0 0 1-.663.689c-.362 0-.655-.308-.655-.689m-1.932-7.595-.476-.631-.479-.586-.35-.582-.307-.54-.195-.541-.061-.493-.047-.563v-.678l.063-.312.152-.429.269-.609.393-.472.602-.297.648-.22.635-.091 1.151-.043 1.629.043 1.798-.025 1.282-.018.723.043.67.117.567.266.454.315.413.587.303.56.15.654v1.419l-.307.807-.419.678-.5.811-.577.631-.621.628-.502.472-.553.498-.427.493-.325.363-.288.352-.217.301-.233.312-.22.175-.285.025-.172-.109-.172-.16-.063-1.122v-1.061l-.046-.651-.022-.426-.02-.365-.086-.179-.221-.023-.129.179-.018.431-.025.586-.041.544-.072.78-.067.811-.043.497-.587.16-.146.131-.176-.112-.112-.266-.151-.273-.172-.45-.392-.563-.439-.449-.652-.673zM.565-46.183l.045.608.11.544.128.602.216.566.435.476.572.468.623.274.606.174.953-.11.898-.361 1.195-.655 1.096-.624.792-.544.691-.475.679-.696.472-.59.352-.803.046-.651.035-.612-.19-.72-.296-.498-.515-.514-.669-.36-.715-.403-.96-.609-.966-.498-.946-.49-.783-.34-.621-.247-.374-.229-.298-.16h-.222l-.241.16-.237.316-.175.25.044.272.239.384.217.448.234.38.307.495.285.452.242.295.104.221.125.27.07.206v.125l-.045.08-.087.037-.107-.026-.075-.03-.139-.104-.258-.356-.5-.697-.346-.628-.29-.406-.142-.29-.208-.316-.1-.227-.153-.134h-.284l-.262.046-.08.342v.829l-.075.903-.124 1.012-.125.807-.115.836-.063.716zm-8.015-5.851-.699.203-.561.27-.623.361-.405.335-.318.363-.175.427-.085.45v.535l.128.563.416.7.778.788 1.307 1.286 1.046.965 1.076.968.677.742.589.493.364.272.42.201.493.088.461-.066.415-.2.647-.544.432-.491.398-.609.189-.429.136-.491.109-.449.043-.657.024-1.122.022-1.376-.022-1.209-.024-.727-.11-.853-.063-.494-.092-.384-.129-.229-.174-.065-.219.137-.454.495-.632.631-.734.72-.39.467-.306.248-.156.118-.169-.021-.182-.142.049-.221.283-.334.501-.475.499-.493.434-.497.278-.312.172-.255.112-.199.069-.31-.026-.233-.088-.133-.086-.225-.22-.157-.234.024-.411.133-.716.225-.886.311-.83.233-.894.221-.761.182zm2.24-10.664-.549-.704-.513-.516-.68-.405-.651-.178-.911.046-.695.266-.659.788-.669 1.466-.452 1.886-.506 1.648-.48 1.347-.19.973-.173.69-.13.973.087.921.152.612.404.604.485.473.629.18.706.014 1.264-.528 1.208-.498.821-.399 1.172-.5 1.023-.498.668-.407.463-.294.364-.219.232-.134v-.273l-.211-.34-.341-.222-.479-.273-.518-.358-.527-.274-.432-.294-.241-.221-.105-.157.068-.154.181-.093.309.043.439.338.519.361.477.201.544.203.369.156.195.023.328.022.191-.178.114-.316.067-.338-.181-.471-.519-.969-.888-1.191-.719-1.081-.497-.789zm12.139-.071.628-.489.654-.435.387-.16.457-.091.475.053.333.179.515.454.48.756.326.747.375.901.237.803.22.842.145.966.288.811.276.875.246.7.125.495.068.719-.038.967-.031.677-.106.628-.265.544-.367.421-.237.251-.59.248-.475.089-.627-.046-.787-.088-1.055-.399-1.09-.723-.742-.609-.726-.585-.578-.476-.584-.449-.375-.203-.324-.247-.387-.226-.349-.09-.201-.066-.054-.154v-.21l.151-.135.366-.041.646-.16.549-.243.412-.181.304-.16.379-.182.363-.069.169-.088.107-.186-.019-.175-.257-.089-.544.043-.501.141-.631.08-.502.205-.369.16-.324.222h-.22l-.169.068.017-.849.111-.563.129-.544.308-.608.501-.587.497-.566.584-.734.549-.744.54-.698z" fill="#fff"/><use xlink:href="#Q"/><use xlink:href="#Q" class="B C E"/><use xlink:href="#R"/><use xlink:href="#R" class="B C E"/><use xlink:href="#S"/><use xlink:href="#S" class="B C E"/><use xlink:href="#T"/><use xlink:href="#T" class="B C E"/><use xlink:href="#U"/><use xlink:href="#U" class="B C E"/><path d="m-10.839-54.803.371-.362.431-.739.416-.834.39-.947.259-1.057.221-1.012.148-.788.128-.764.023-.788-.023-.656-.128-.377-.136-.185-.208-.045-.114.067-.019.115v1.016l-.129 1.141-.264 1.575-.22.947-.384 1.217-.438.899-.447.742-.192.497.042.248zm7.468-11.559.427.287.798.259.878.218.987.156 1.047.012 1.011-.027.769-.043.751-.052.737-.169.6-.179.341-.221.129-.179-.007-.229-.092-.091h-.108l-.951.247-1.101.149-1.54.121-.948.013-1.232-.108-.946-.212-.803-.271-.51-.081-.217.105zm12.856 4.559-.185.49-.1.861-.025.936.025 1.026.203 1.073.204 1.015.193.782.196.748.292.72.297.59.273.289.187.104.217-.05.075-.114-.034-.111-.402-.918-.364-1.094-.4-1.549-.19-.951-.139-1.271.022-1.001.104-.869-.024-.533-.142-.21zm-.041 13.237-.494.003-.819.255-.844.334-.9.427-.873.606-.814.6-.619.482-.592.476-.529.575-.405.499-.155.367-.011.233.133.184.125.026.09-.069.652-.753.836-.761 1.21-.99.777-.554 1.068-.632.902-.365.817-.248.462-.229.133-.217zm-12.509 5.125-.103-.513-.395-.773-.483-.796-.575-.834-.742-.772-.722-.717-.571-.538-.576-.514-.642-.422-.547-.319-.385-.08-.216.018-.146.171v.135l.082.076.836.527.882.705 1.172 1.043.669.677.803.969.53.857.375.781.313.421.228.091z"/></g><defs><path id="B" d="m6.966-37.56-7.911-.271-7.303.357-7.119.81-6.868.99-6.594 1.351L-35-32.524l-5.562 2.076-5.048 2.073-4.43 2.248-2.951 1.614-3.381 1.893v-51.149h112.73v51.596l-4.732-3.235-6.614-3.599-5.556-2.253-5.388-1.802-7.032-1.796-5.823-1.173-7.3-.987z"/><path id="C" d="m-25.301-34.924 3.743-.629 3.639-.631 4.086-.539 3.828-.358 3.476-.183 3.387-.18 2.697-.091 3.213.091 3.041.089 3.553.274 2.789.174 3.738.457 2.694.357 3.56.54 3.904.807 4.523 1.084 3.386.895 3.82 1.267 3.037 1.256 3.488 1.442 2.261 1.077 3.555 1.899 2.868 1.888 2.179 1.441.856.72V.817l-.249 2.432-.44 3.777-.783 3.516-.775 3.421-1.304 4.226-1.394 4.144-1.477 4.052-1.479 3.509-1.824 3.875-2.345 4.318-2.435 3.877-2.609 3.506-2.164 2.79-2.606 3.151-2.606 2.879-2.782 2.434-2.603 2.253-2.437 2.073-3.212 2.337-3.482 2.341-4.166 2.433-3.82 1.974-4.348 1.976-3.041 1.36-1.828.718-3.734-1.623-4.596-2.07-4.878-2.437-4.949-3.047-3.907-2.705-4.783-3.874-4.173-3.6-3.905-4.138-3.217-4.148-2.95-3.776-2.523-3.871-2.429-4.414-1.915-3.961-2.164-5.225-1.828-5.216-1.653-5.225-1.216-4.949-.96-5.311-.431-5.043-.087-5.13.087-3.962-.087-4.5v-5.854l-.09-1.888 2.953-1.982 3.478-1.98 2.777-1.619 3.041-1.444 2.868-1.254 2.432-.997 2.959-.987 3.553-1.083 3.481-.901z"/><path id="D" d="m-10.668-37.543 4.608-.363 4.782-.182 5.989.095 5.91.358 6.878.757 6.86 1.114 6.262 1.442 5.077 1.459 4.026 1.438 3.855 1.529 3.553 1.636 3.371 1.786 2.863 1.714 2.693 1.922-.016 1.351-1.573-1.257-4.319-2.735-4.046-2.171-3.742-1.663-4.371-1.75-4.172-1.347-4.957-1.354-4.257-.99-4.943-.807-6.173-.811-5.053-.419-4.422-.212-4.601-.092-3.82.092-3.913.27-3.558.182-4.169.537-4.35.628-4 .632-3.738.901-3.909.99-4.694 1.438-3.554 1.355-3.217 1.343-3.398 1.63-2.944 1.619-2.384 1.358-2.137 1.34-1.607 1.115-.024-1.446 4.241-2.367 3.652-2.029 4.6-2.115 5.99-2.432 3.739-1.168 4.168-1.167 3.997-.997 4.351-.807 5.297-.723z"/><path id="E" d="m52.67 16.693-.6 1.939-.572 1.756-.612 1.706-.639 1.802-.742 1.942-.742 1.841-1 2.207-.697 1.574-.731 1.571-.913 1.802-.829 1.527-.956 1.624-1.169 1.847-1.304 2.03-1.265 1.703-1.043 1.444-1.303 1.623-.776 1.078-1.094 1.258-1.302 1.576-1.085 1.122-1.087 1.169-1.393 1.358-2.165 1.973-2.303 1.985-2.832 2.384-2.129 1.579-2.424 1.71-2.521 1.574-2.217 1.351-2.482 1.348-2.613 1.357-2.905 1.348-2.083.944-2.56 1.171-1.653.534v1.405l3.342-1.441 3.742-1.669 3.129-1.49 2.906-1.527 3.007-1.753 2.508-1.577 2.869-1.935 2.913-2.073 2.776-2.207 1.911-1.755 2.607-2.422 3.311-3.244 2.734-3.385 2.036-2.519 1.65-2.244 1.699-2.567 2.304-3.693 1.779-3.33 1.566-3.331 1.474-3.333 1.606-4.05 1.3-4.009.97-3.058.688-2.341.908-3.733.617-3.329.516-3.427.259-2.52.136-2.341.038-2.296.087-2.701v-3.281h-1.393V.265l-.209 2.121-.219 1.704-.273 1.977-.416 2.299-.404 1.89-.606 2.296-.485 1.981z"/><path id="F" d="m-52.761 16.693.609 1.939.568 1.756.601 1.706.647 1.802.746 1.942.741 1.841.995 2.207.7 1.574.738 1.571.912 1.802.817 1.527.956 1.624 1.176 1.847 1.308 2.03 1.26 1.703 1.043 1.444 1.294 1.623.791 1.078 1.085 1.258 1.305 1.576 1.08 1.122 1.082 1.169 1.392 1.358 2.179 1.973 2.3 1.985 2.832 2.384 2.118 1.579 2.437 1.71 2.52 1.574 2.207 1.351 2.482 1.348 2.61 1.357 2.914 1.348 2.077.944 2.567 1.171 1.647.534v1.398l-3.337-1.434-3.741-1.669-3.127-1.49-2.909-1.527-3.005-1.753-2.511-1.577-2.868-1.935-2.914-2.073-2.776-2.207-1.919-1.755-2.598-2.427-3.3-3.239-2.747-3.385-2.04-2.519-1.654-2.244-1.686-2.567-2.306-3.693-1.785-3.33-1.558-3.331-1.481-3.333-1.607-4.05-1.306-4.006-.942-3.058-.704-2.341-.919-3.736-.606-3.329-.518-3.424-.268-2.52-.121-2.341-.045-2.298-.083-2.699v-3.281l1.309-.008-.053 3.884.134 6.115.22 2.121.211 1.704.261 1.977.439 2.299.386 1.89.613 2.296.473 1.981z"/><path id="G" d="m39.296-3.31.698-1.62.409-1.202.417-1.355.314-1.158.21-.806.055-.54.111-.585v-.279l-.136-.089-.239-.018-9.867 18.04v.324l.492-.051 1.196-1.21 1.09-1.35 1.169-1.583 1.045-1.459L37.371.163l1.091-1.838z"/><path id="H" d="m-39.178-3.403-.699-1.617-.413-1.21-.427-1.346-.307-1.161-.212-.806-.049-.538-.106-.593v-.27l.125-.093.242-.018L-31.16 6.99v.317l-.485-.05-1.2-1.208-1.094-1.348-1.169-1.582-1.033-1.467L-37.257.07l-1.09-1.834z"/><path id="I" d="m-25.1-19.417.927 1.042 1.082.989 1.037.854 1.091.814 1.131.854 1.169.629 1.248.541 1.052.407.825.267h.44l.302-.627.352-.858.253-.584.265-.538.392-.627.3-.367.17-.265-.038-.361-.257-.138-.302-.044-.914-.181-1.179-.493-1.168-.583-1.135-.585-1.134-.679-.997-.631-1.041-.723-.913-.716-.865-.631-.867-.81-.696-.633-.654-.672-.605-.679-.571-.631-.515-.586-.53-.579-.467-.586-.398-.588-.307-.541-.474-.585-.307-.405-.134-.312-.169-.181h-.302l-.088.402v.858l.307 1.441.517 1.489.649 1.439.662 1.122.733 1.306.648.901.745 1.122z"/><path id="J" d="m27.248-19.7-.807.871-1.105 1.088-1.201.877-1.347.965-1.364.969-1.472.948-1.284.646-1.134.477-1.055.451-.227-.087-.096-.388-.18-.494-.217-.559-.329-.654-.498-.906-.506-.808-.205-.54.188-.156.257-.095.36-.04.707-.295.956-.313 1.564-.631 1.258-.585.917-.358 1.342-.723 1.215-.716.917-.726.694-.58 1.045-.862.697-.624.654-.682.593-.671.571-.63.473-.591.443-.559.458-.516.408-.588.434-.631.451-.6.261-.388.379-.584.236-.087.196.218.043.498-.215.791-.26.904-.414 1.278-.591 1.373-.558 1.333-.725 1.144-.644 1.122-.719.975z"/><path id="K" d="m-35.653-49.023.792.496.34.136.88-.049.811-.492.745-.223 1.127.091 1.351.087 1.125.267 1.441.361.999.138 1.214-.09.866-.226.651-.316.439-.18v-20.486l-.347-.083-.575.131-.947.276-1.048.041-1.128-.136-1.172-.45-1.045-.228-1.128.05-.998.178-.95.363-.787.451-.568.399-.468.276h-.437l-.744-.496-1.172-.772-1.478-.354-1.428-.095-1.136.319-1.127.358-1.265.179-1.082-.084-.786-.276-.473-.131-.344.178v20.481l.567.184.999.357.78.18 1.043-.042 1.43-.187 1.348-.403 1.172-.221 1.427-.047z"/><path id="L" d="m-23.207-44.382-2.388-.204-2.498-.201-2.41-.267-1.767-.118-.37-.496-.277-.516-.287-.544-.217-.312-.11-.225-.014-.288.34-.407.398-.272.282-.138.296-.112h1.505l.829.112.916.226.845.294.865.16.776.138h1.155l.848-.157.604-.184.25-.113.203-.066h.243l.159.142.489 1.016.389.817.454.911.205.422.111.225.047.136.009.108-.056.091h-.127z"/><path id="M" d="m-45.191-44.39 2.392-.203 2.485-.208 2.419-.268 1.763-.11.359-.5.288-.516.287-.54.218-.32.113-.221.011-.289-.341-.406-.392-.272-.281-.134-.315-.113h-1.494l-.822.113-.919.222-.849.298-.862.156-.777.137h-1.158l-.849-.156-.602-.184-.237-.114-.219-.065h-.235l-.166.145-.481 1.013-.394.821-.451.911-.211.417-.103.229-.056.133v.112l.056.083.133.007z"/><path id="N" d="m32.955-49.031.788.491.344.134.869-.044.826-.497.745-.225 1.125.095 1.346.089 1.128.27 1.437.358 1 .136 1.211-.087.877-.229.647-.316.439-.175v-20.481l-.355-.088-.568.125-.958.279-1.036.041-1.134-.132-1.163-.453-1.048-.225-1.128.046-1 .179-.952.363-.792.446-.56.406-.481.276h-.43l-.686-.579-1.228-.684-1.48-.363-1.428-.09-1.13.311-1.134.366-1.256.178-1.092-.087-.773-.279-.486-.125-.34.178v20.474l.562.186.994.355.783.182 1.044-.038 1.432-.188 1.348-.406 1.18-.221 1.425-.045z"/><path id="O" d="m45.434-44.382-2.392-.204-2.491-.201-2.423-.267-1.749-.118-.371-.496-.289-.516-.282-.544-.218-.312-.108-.225-.012-.288.337-.407.393-.272.28-.138.315-.112h1.483l.832.112.914.226.854.294.866.16.778.138h1.155l.843-.157.606-.184.239-.113.214-.066h.247l.158.142.482 1.016.388.817.46.911.203.422.11.225.043.136.024.108-.066.091h-.133z"/><path id="P" d="m23.447-44.39 2.396-.203 2.5-.208 2.403-.268 1.755-.11.373-.5.281-.516.28-.54.217-.32.111-.221.022-.289-.349-.406-.386-.272-.287-.134-.296-.113h-1.501l-.825.113-.912.222-.852.298-.871.156-.782.137h-1.15l-.852-.156-.604-.184-.23-.114-.223-.065h-.239l-.167.145-.473 1.013-.397.821-.446.911-.206.417-.112.229-.053.133-.009.112.062.083.124.007z"/><path id="Q" d="m9.403-66.076-.115.312-.098.291-.086.249-.179.361-.109.266-.258.229-.42.204-.253.196-.265.095-.22-.044-.146-.315.039-.541.052-.426.124-.422.416-.364.765-.342.359-.176.27-.062.169.085z"/><path id="R" d="m13.441-48.656-.235-.388-.255-.358-.241-.382-.26-.287-.197-.16-.186-.225-.154.065-.17.138-.198.095-.249.026-.329.076-.158.225.117.632.178.453.217.224.265.111.567.044.48.039h.44l.313-.039.083-.091z"/><path id="S" d="m.496-40.669.182-.315.166-.403.125-.38.029-.388-.029-.267-.125-.337-.193-.34-.174-.288-.196-.319-.155-.18-.171.046-.234.356-.2.344-.129.311-.042.384.17.472.269.539.146.384.19.336.155.132z"/><path id="T" d="m-11.097-51.267-.329-.05-.224.092-.324.472-.28.359-.238.381-.236.409v.25l.045.179.323.041.677.031.572-.123.287-.197.145-.41.062-.335.083-.404-.022-.406-.194-.179z"/><path id="U" d="m-8.453-67.541.027.268.107.298.068.379.062.293.108.294.087.289.177.25.215.204.309.091.385.065.308.095.233.156.218.157.236.05.2-.069.07-.164.023-.674-.058-.695-.234-.294-.537-.179-.522-.156-.426-.185-.376-.182-.238-.156-.279-.109z"/></defs></svg>