<svg xmlns="http://www.w3.org/2000/svg" width="1000" height="1000" viewBox="0 0 1000 1000" xml:space="preserve"><rect width="100%" height="100%" fill="rgba(255,255,255,0)"/><path style="stroke:none;stroke-width:1;stroke-dasharray:none;stroke-linecap:butt;stroke-dashoffset:0;stroke-linejoin:miter;stroke-miterlimit:4;is-custom-font:none;font-file-url:none;fill:#174994;fill-rule:nonzero;opacity:1" transform="translate(-8.786 -12.786) scale(1.02077)" d="M462 14.1c-91.6 7.7-172.3 37-246.5 89.2-36 25.4-73.4 61-101.6 96.7C-5.4 351.1-24.6 559.4 65.3 729.6c24.9 47 52.9 84.7 90.8 122 39.8 39.2 79.6 67.3 130.4 92 95.4 46.5 204.8 60.1 310.3 38.4C734.1 953.9 854 866.7 924.2 744c51.3-89.9 72.7-196 60.2-299.5C962 258.6 834.8 100.7 658 39.5 618.4 25.8 577.7 17.4 534.1 14c-15.4-1.1-57.9-1.1-72.1.1zm72 7.9c161.2 11.6 306.9 105.1 386.4 248C978.6 374.7 995 500.1 966 617.6 949.6 684 919 746.8 877.1 800c-78.5 99.7-192.5 164.7-316.6 180.4-24.4 3.1-39.8 3.8-70.5 3.3-54.3-.9-98.7-8.6-148.2-25.6-121.2-41.8-223-132.5-277.7-247.3C6 588.8 1.4 450.3 51.2 324c6.1-15.3 21.2-46.7 29.8-61.5C151.5 139.9 273.1 53.8 411 28.6c12.3-2.3 26.8-4.3 44-6.2 18.5-2 54-2.2 79-.4z"/><path style="stroke:none;stroke-width:1;stroke-dasharray:none;stroke-linecap:butt;stroke-dashoffset:0;stroke-linejoin:miter;stroke-miterlimit:4;is-custom-font:none;font-file-url:none;fill:#174994;fill-rule:nonzero;opacity:1" transform="translate(-8.786 -12.786) scale(1.02077)" d="M459.5 35.5c-48.8 4.5-90.9 14.5-134 31.8-119.9 48.1-214.3 142.5-262.3 262.2C28.4 416.4 20.9 515 42 607.1c16.9 73.4 52.9 144.3 102.8 202 53.1 61.5 121.3 108 199.7 136 79.3 28.4 173.2 33.6 258 14.2 119.2-27.2 223.9-101 290.7-204.8 52-80.9 78.1-178.7 73-273.9-4.2-77.6-24.4-146.5-62.4-212.4C863 197.3 803.2 137.7 730.7 95.5c-13.7-7.9-45.8-23.4-60.2-29C613 44.1 557.9 33.8 497 34.1c-12.9.1-29.8.7-37.5 1.4zm30.6 33.4c1.6 1.6 2.9 3.4 2.9 4.1 0 .6-2 1.9-4.5 3s-4.5 2.5-4.5 3.1-2.1 3.3-4.7 5.9c-2.7 2.6-6.8 7.1-9.2 10-5.1 6-4.5 7.3 2.9 6.3 6-.8 8-1.9 8-4.6 0-4.5 1.4-5.2 6.4-3.3 2.5 1 4.8 2.2 5.2 2.7.8 1.4-2.3 5.8-5.1 7.1-2.6 1.1-3.9 4.4-2.3 5.5.6.3 1.7-.2 2.4-1.2.8-1.1 2-1.5 3-1.1 1.5.6 1.5.8 0 2.9-5.7 7.8-5.8 7.9-5.1 15.2 1.2 13.3 1.2 14-1 14.3-3.2.4-5.5-2-6.9-7.3-.8-3.2-1.8-5.1-2.9-5.3-.9-.2-3.7 1.7-6.2 4.2-3.9 4-4.9 4.5-6.6 3.6-1.7-1-1.9-1.9-1.6-7 .4-5.4.7-6.3 4.7-10.1 4.5-4.3 5.6-4.2 6.2.6.4 4 2.9 4.3 5.1.6s2.2-7.9 0-10.3c-2.1-2.4-14.4-2.6-16.3-.3-.7.8-1.9 1.5-2.7 1.5-2.4 0-1.2-9.9 1.3-11.3 4.5-2.5 22.4-24.1 22.4-27 0-5.3 4.7-6.2 9.1-1.8zm32.9 2.5c0 1.4.9 3.2 2.1 4 2 1.4 2.1 2.1 1.5 8.3-.3 3.7-.9 8.4-1.2 10.3-.5 3 0 4.2 3.1 8.2 3 4 3.4 5.1 2.5 6.8-.6 1.1-1.5 2-1.9 2-.5 0-2.3 1.3-4 2.9-2.8 2.7-3.1 3.4-3.1 9.3 0 4.7-.8 8.7-3.1 14.8-1.6 4.6-3.8 11.3-4.7 14.9-2.4 9.2-4.7 9.5-3.9.5.9-9.6 1.1-35.3.3-36.1-.3-.4-2 .3-3.6 1.5s-3.4 2.2-4.1 2.2c-.6 0-2.4 1.1-4.1 2.5-2.3 2-3.3 2.3-4.9 1.5-1-.6-1.9-1.4-1.9-1.9 0-2.4 3.8-11.3 6.7-15.7s3.2-5.4 2.3-7.8c-1.6-4.3-1.2-8.4.9-9.5 2.9-1.6 3.3-4 1.1-7.6-1.1-1.8-1.7-4-1.4-4.9.8-2 4.3-2.1 5-.1.9 2.3 4.2 1.8 5.6-.9 1.4-2.6 7.4-7.4 9.6-7.5.6-.1 1.2 1 1.2 2.3zm207.5 58.8c-.3 3.5-.8 7.8-1.1 9.6-1 6.4-9 8-11.4 2.2-1-2.4-.8-3.5 1.4-7.8 2.6-5.1 7.7-10.2 10.2-10.2 1.2 0 1.4 1.1.9 6.2zm-450.6 5.7c4.1 3.3 9.8 11 18.9 25.4 5.1 8 10.6 16 18 26.1 3.4 4.8 6.2 9.6 6.2 10.7 0 2.6-4.7 7.1-13 12.4-10.8 7-10.7 7-21.6 7-9.4 0-10.5-.2-16.4-3.3-3.5-1.8-6.4-3.1-6.5-3-.1.2 1 4.8 2.6 10.3 4.2 15 3.7 17.7-2.6 13.3-2.6-1.7-5.7-6.4-12.4-18.8-16.6-30.8-18.6-34.8-17.7-35.7.4-.4 1.5.1 2.2 1.2 3.4 4.6 14.4 22.8 14.4 23.6 0 2 10.9 21.3 11.6 20.6.2-.2-.2-3.2-1-6.5-1.1-4.7-3.3-8.9-9.8-18.4-9.4-13.7-10.4-15.7-11.3-21.9-.8-5.5 1.9-21.8 4.5-26.8 3-6.1 11-16 14.9-18.7 3.2-2.2 4.3-2.4 9.1-1.8 4.2.5 6.5 1.5 9.9 4.3zm466.1 5.6c0 1.4.4 2.5.9 2.5s1.2.9 1.6 1.9c.4 1.3 1.9 2.1 5 2.6 3 .4 4.5 1.1 4.5 2.1 0 1.1-1.5 1.4-6.7 1.4-3.8 0-7.9.1-9.3.3-2.3.2-2.5-.2-2.8-4.1-.4-5 1.8-9.2 4.8-9.2 1.5 0 2 .7 2 2.5zm-35.6 9.1c.9.3 1.6 1.4 1.6 2.4 0 2.5 1.6 3.3 4 2 1.5-.8 3.3-.7 7.3.5 2.9.9 11.1 1.8 18.7 2.1l13.5.6 3.1-3.7c3.1-3.7 3.1-3.7 5.2-1.9 1.7 1.4 2.2 3 2.2 6.4 0 7-2.8 8.6-9.5 5.4-1.9-.9-5.1-1.4-7.6-1.2l-4.4.3-.3 6.8c-.4 10.4-5 16.7-11.9 16.7-3.1 0-5.3-1.6-5.3-3.8 0-1 .8-1.2 2.8-.7 2.2.4 3.3 0 5.2-2.2 1.4-1.5 2.6-3.5 2.6-4.3.1-.8.5-2.7.9-4.1 1.2-4.5-3.2-8.4-11.6-10.4-8.4-1.9-13-1.2-17.3 2.5-2.8 2.4-9.2 5.2-15.3 6.7-4.8 1.1-3.1-6 2.7-11.2 1.1-1 2-2.6 2-3.5 0-2.5 3.5-5.3 5.8-4.5 1.1.3 2.3.1 2.7-.5.7-1.2.8-1.2 2.9-.4zM521.6 168c33.6 2.6 59.9 8.3 91.4 19.7 90.5 32.6 163.6 104.4 198.8 195.3 22.3 57.6 27.6 125 14.7 187.6-17.3 84-67.9 159.9-139 208.6-40 27.4-85.2 45.8-132.2 53.7-20.6 3.5-33.2 4.5-56.3 4.5-23.3 0-35.9-1-56.5-4.5-105.8-17.8-197.7-86.6-245-183.4-32.7-67-42.1-141.6-26.9-215.3 11.5-56.1 39.2-111.4 77-153.6 46.1-51.7 104.5-87.2 169.9-103.5 18.5-4.6 37.7-7.6 61-9.4 9.5-.8 31.2-.6 43.1.3zm193.4 5.2c10.1 5.2 10.4 11.3.7 16.2-4.3 2.2-5.9 3.6-6.3 5.5-.2 1.4-.9 4-1.4 5.7-1.8 5.6-1.3 7.2 2.3 7.6 2.2.2 3.5 1 4.2 2.5.5 1.3 1.5 2.3 2.1 2.3 1.5 0 2.7 3.1 1.6 4.2-1 1-8.8-2.6-11.8-5.4-2.2-2-2.2-1.9-6.5.8-2.4 1.5-6.4 3.3-8.8 4.1-3.9 1.1-4.8 1.1-6.9-.3-4.3-2.8-10.3-8.7-11.8-11.5-1.5-3-1.9-6.9-.6-6.9.4 0 3.4 2.7 6.7 6 7.2 7.3 10.1 8.5 14.7 6.2 5.1-2.6 4.9-5.6-.4-8-4.6-2-18.8-12.4-20-14.7-1.8-3.2 2.1-6.3 6.3-5 1.3.5 1.8 1.2 1.4 2.2-.8 2.2 7.5 9.9 13.9 12.9 6 2.8 6.9 2.9 8.6.9 1-1.3 1-1.9-.5-3.5-1.6-1.8-1.6-2 .9-4.5 1.4-1.4 4-3.1 5.6-3.7 1.7-.5 3-1.5 3-2.1-.1-1.9-5.3-7.4-7.7-8.1-2.2-.7-3.1-3.5-1.6-4.9 1.4-1.5 8.1-.6 12.3 1.5zm148.8 110.4c1.2.8 2.2 2.3 2.2 3.2s1.1 2.8 2.5 4.2c2.3 2.4 2.5 3 1.4 5.4-.9 2-1.9 2.6-4.4 2.6-3.6 0-6.6 2.7-8.8 8-2 4.9-7.1 9-11 9-5.5 0-6.7-1.8-5.3-7.8 1.1-4.8-1-6.7-2.6-2.4-.7 1.9-1.9 3.2-3 3.2-.9 0-2.1.6-2.5 1.4-2.3 4-7.4 6.7-15 8.1-4.3.7-9.7 2.3-12 3.4-5.4 2.7-5.7 2.6-8.2-.5-2.7-3.4-2.6-4.3.4-8.8 1.4-2 2.5-4.3 2.5-5 0-2.8 4.1-6.5 7.8-7.1 2-.4 5.1-1.3 6.7-2.1 3.1-1.4 18.9-4.4 23.7-4.4 3.3 0 5.8 3.3 5.8 7.7 0 1.7.4 3.4.9 3.7 1 .6 7.1-2.4 7.1-3.5 0-.3 1.4-2 3-3.7 3.4-3.6 3.6-4.4 1.5-6.2-2.8-2.3-1.3-7.9 2.5-9.3 2.3-.8 2.4-.8 4.8.9zm-737.5 26.1c3.4 18.1 5.9 25.3 8.9 25.3.4 0 .8-1.3.8-2.9 0-4.1 1.8-8.3 3.2-7.9 1.5.5 2.9 5.6 3.3 11.8.3 5.5 3.7 12.5 6.8 14.1 1.2.7 4.6 3.6 7.6 6.6 2.9 2.9 8.2 7.2 11.7 9.5 6.4 4.1 7.8 5.8 4.8 5.8-3.1 0-17.6-4.1-23.1-6.5-7-3.1-7.3-3.1-7.3.5 0 3.4-2.9 5.5-6.6 4.6-2.9-.8-3-2-.4-5.3 2.8-3.6 2.5-5.2-1.6-6.9-6.6-2.8-9.1-2.9-10.4-.4-.9 1.6-.9 2.9-.2 4.4.6 1.1 1.3 3.3 1.6 4.8.4 1.9 1.9 3.4 4.6 4.8 3.5 1.8 4 2.5 4 5.5 0 3.9-2.8 7.5-5.9 7.5-4.8 0-17.8-2.3-20.3-3.6-2.7-1.4-5.4-5.1-4.4-6.1.2-.3 3.1-.1 6.3.5 4.6.8 6.4.7 8.6-.4 3-1.6 3.3-2.5 1.5-5.7-.7-1.2-2.8-6.9-4.8-12.7l-3.5-10.4-7.6-4c-7-3.7-7.9-4-10.2-2.7-4.9 2.6-8.3-1-6.3-6.9.8-2.7 1.7-3.6 3.7-3.8 1.5-.2 3.7-1.4 5-2.8 2.9-3.1 5.1-3 10.6.2 2.4 1.4 4.7 2.3 5.1 2 .5-.3 1.7-4.3 2.6-9 2-9.4 4.2-12.6 8.5-12.6 2.3 0 3 .5 3.4 2.7zm770.1 8.4c1.6 8.4.9 11.9-2.7 11.9-1.3 0-3.4-1.1-4.7-2.5s-2.9-2.5-3.6-2.5c-1.8 0-2.5-1.5-1.8-3.5.5-1.1 1.4-1.5 2.8-1.1 1.7.4 2.7-.3 4.6-3.4 1.4-2.2 2.9-3.9 3.5-3.7.5.2 1.4 2.3 1.9 4.8zm-21.6-2.3c.7.5 1 1.6.6 2.5-.6 1.6-1.3 1.9-6.6 3.1-3.4.8-3.6 2.2-.5 3.2 3.7 1.1 22.8 15.5 23.9 18 1.7 3.7-.4 7.2-5.7 9.5l-4.5 2-6-2.7c-3.3-1.5-6.5-3.3-7.1-4-.6-.8-2.2-1.4-3.5-1.4s-4.1-1.5-6.1-3.3c-7.4-6.5-11.3-8.3-11.3-5.2 0 .8.8 2.2 1.8 3 2.8 2.5 9.8 7.9 11.7 9 1.4.9 1.5 1.4.5 3.7-1.4 2.9-2.6 2.8-7.3-.5l-2.8-1.9-2.8 2.6c-1.6 1.5-5.2 3.3-8.7 4.2-3.2.8-6.9 2.2-8.1 3l-2.2 1.4 2.4 3.8c5.3 8.1 4.9 7.8 7.8 5.9 3.7-2.4 5.7-2.2 5.7.7 0 1.6-1.1 3.2-3 4.6-2.3 1.7-3 2.9-3 5.6 0 2.4-.5 3.4-1.5 3.4-2.4 0-6.5-4.6-6.5-7.2 0-3.4-3.4-8.4-7.4-11-4.3-2.8-4.1-4.6 1.3-10.1 3.1-3.2 4.5-3.8 9.5-4.5 6.9-.8 9-3.2 2.9-3.2-5.7-.1-16.3-5.8-16.3-8.9 0-1.7 8-3.3 13.4-2.7 4.9.6 5.2.5 6.9-2.5 1.6-2.9 2-3.1 5.5-2.5 8.1 1.4 8.7 1.3 9-1.7.2-1.5.5-2.7.7-2.7 1.7 0 3.5 1.6 3.5 3 0 1.1.5 2.2 1 2.5.6.3 1 1.4 1 2.4 0 1.2 2.7 3.4 8 6.5 4.4 2.5 8.3 4.6 8.7 4.6 1.7 0 6.2-4.6 5.5-5.5-3.5-4.9-24.9-16-28.8-15.1-1.3.4-3.4.2-4.8-.4-3.9-1.5-3.4-5.1 1.2-8.9 3.5-2.8 4.2-3 12.2-3.1 4.7 0 9.1.4 9.8.8zM142 632.2c5.9 3 8.4 7.5 8.5 15.2.1 4.9.4 6 2 6.6 1.1.4 2 1.1 2.1 1.6 0 .5 2.1 5.1 4.7 10.2s4.5 9.7 4.2 10.2c-.9 1.5-2.6 1.2-4.7-.7-1.8-1.6-2.3-1.5-9.8 2.2-4.4 2.2-8 4-8 4.2 0 .9 6.1 12.2 6.7 12.6.5.3 4-1.1 7.8-3.1 6.5-3.5 7-3.9 7.3-7.4.6-6.8 2.8-5.5 7.8 4.4 2.5 5 5.1 9.7 5.8 10.4 1 1 6 8.8 14.5 22.7 1.2 2 .8 4.1-4.2 20.2-3 9.9-5.3 18.2-5.2 18.3.5.5 15.5-11 17.8-13.5 1.1-1.3 1.6-3.2 1.5-5.3-.4-4.9 1.6-4.7 5.7.7 2 2.6 8.7 10.3 14.8 17.1 6.2 6.8 11.4 12.8 11.6 13.4.4 1.3-8.9 10.8-10.6 10.8-2.4 0-2.5-2.9-.3-6 1.7-2.3 2.1-3.9 1.6-6.3-.7-3.6-4.2-7.7-6.5-7.7-.9 0-4.3 2.4-7.6 5.4-5.3 4.7-5.8 5.5-4.6 7 1.6 1.9 5 2.1 8.6.4 2.2-1 2.8-.9 3.5.3.7 1-1 3.2-6.8 8.6-6.4 5.9-7.9 6.9-9.1 5.8-1.1-1.1-1.1-1.7.3-3.6 1.9-2.8 2.1-6 .4-7.7-1.9-1.9-2.6-1.5-9.3 4.9-6.3 6-6.4 6.2-5 8.9 2.9 5.7 8.4 7.3 15.2 4.5 3.2-1.4 3.9-1.4 5.1-.1 1.3 1.2.6 2.1-5.4 6.5l-6.9 5.2-8.8-9.3c-13.6-14.3-16.2-17.7-14.9-19 .9-.9 1.5-.9 2.4 0 .7.7 2 1.2 2.9 1.2 1.6 0 29.4-24.6 31.2-27.5.9-1.7 0-4.2-1.9-4.9-2.3-.9-6.5 1.7-23.6 14.5-15.3 11.6-19.5 13.9-18.4 10.1 9.6-32.1 11.6-39.5 11.3-39.8-.6-.6-20.7 14.7-20.9 16-.1.6-.2 2.4-.2 4-.2 4.7-2.1 4.1-7-2.2-3.8-5-4.3-6.2-3.2-7.2 1.1-.8 1.9-.8 3.3.1 2.6 1.6 5.8-.2 20.8-11.4 17.2-12.9 16.7-12.4 14.9-15.8-.8-1.6-2.2-2.9-3.2-2.9-.9 0-9.4 4.9-18.7 10.8-16.5 10.5-17 10.9-17 14.1 0 1.9-.5 3.6-1.1 3.8-1.5.5-12.8-17.3-11.9-18.7s2.4-1.2 4.2.6c.9.8 2.3 1.4 3.2 1.1.9-.2 8.9-5 17.9-10.6 14.4-9.2 16.2-10.6 16.2-13 0-3.4-1.7-5.1-4.9-5.1-1.5 0-10.2 4-19.6 8.8-15.6 8-17 9-17 11.5-.1 2.5-2 5.6-2.8 4.6-.3-.2-2.6-4.6-5.2-9.7-3.4-6.6-4.5-9.6-3.7-10.4.7-.7 1.8-.4 3.7 1l2.7 2.1 8.4-4.2c4.6-2.3 8.4-4.5 8.4-5 0-1.4-6.2-12.7-6.9-12.7-.3.1-4.2 2-8.6 4.3-7.5 4-8 4.4-7.9 7.4.1 2-.4 3.4-1.4 3.8-.8.3-1.6.4-1.7.3-.9-1-9.5-19-9.5-19.8 0-1.6 3.7-1.2 4.4.5 1 2.8 5.1 1.5 22.1-7.4 15-7.7 17-9.1 17.3-11.4.2-1.5.2-2.7 0-2.7s-3 1.3-6.3 2.9-6.3 2.7-6.7 2.4c-1.2-.6-1-5.3.2-5.3 2.2 0 9-8 9-10.6 0-2.9-1.6-6.4-3.9-8.1-5.4-4.1-29.2 3.6-36.6 11.9-4 4.3-4.2 5.6-1.8 10.5 1.9 4.1 6.2 6.3 12.3 6.3 2.9 0 4 .4 4 1.5 0 2.2-9.4 1.9-14.7-.5-9.9-4.5-12.1-18.5-4.2-27.5 4.1-4.6 8.7-7.3 17.2-10.1 9.4-3 16.9-3.1 22.7-.2zm720.2 12.9c5.2 1.9 5.6 2.3 4.7 4.1-.9 1.6-1.7 1.8-5.5 1.2-7.8-1.1-12.4 1.3-12.4 6.7 0 3.5 3.1 6.9 6.4 6.9 1.2 0 4.1-1.4 6.2-3 12.3-9.5 17-10.9 25.2-7.4 11.2 4.6 14.4 15.5 7.1 23.8-2.3 2.7-2.8 4-2.3 6 .8 3.2.2 3.2-7.9.5-7.8-2.6-10.8-4.5-10.1-6.4.5-1.1 1.9-1.3 6.9-.8 7.2.7 10.9-.9 12.5-5.2 1.3-3.5-.6-8.3-4.1-10-4.7-2.5-4.8-2.4-16.3 6.8-7 5.7-16.2 5.3-23.4-.9-5.2-4.4-6.2-8.7-3.6-14.1 1.1-2.1 2.9-4.2 4.1-4.8 1.7-.7 2.1-1.5 1.6-3.9-.6-2.8-.5-2.9 2.3-2.2 1.6.4 5.5 1.6 8.6 2.7zm-13.8 26.1c5.4 2.6 6.3 3.4 5.6 4.9-.8 1.4-1.6 1.5-4.7.8-4.8-1.1-8.4.3-10.6 4-3.1 5.3-2.4 6.7 5.3 10.6 3.8 1.9 7.2 3.5 7.4 3.5.3 0 1-.9 1.6-2 .8-1.5.7-2.7-.5-5-.9-1.6-2-3-2.5-3-1.3 0-1.3-2.7 0-3.5.6-.4 15.1 6.5 18.8 9 .1.1 0 .9-.3 1.7-.5 1.2-1.7 1.4-4.8 1.1-4.6-.5-7.4 1.3-6.4 4.1.9 2.2 13.9 8.7 16.3 8.1 2.6-.6 5.8-7.7 4.8-10.9-.3-1.1-1.9-3.8-3.6-5.9-2.7-3.5-3-5.7-.7-5.7.5 0 3.8 1.9 7.3 4.3l6.4 4.3-8.2 15.4c-5.4 10.1-8.8 15.6-10 15.8-1.5.3-1.8-.1-1.3-2 .4-1.4.1-3.2-.6-4.1-1.8-2.4-33.1-18.7-36-18.7-2.2 0-5.6 2.5-4.6 3.4.2.1 3 1.7 6.2 3.5 6 3.4 6.2 3.7 4.8 6-.7 1.1-1.5 1.1-4.1.2-12.2-4.2-20.9 3.1-15 12.6 4.2 6.9 23 18.3 30.2 18.3 8.9 0 12.3-9.2 6.6-17.8-3.3-4.9-3.3-5.2-1-5.2 1.9 0 5.6 4.9 7.3 9.8 3.8 11-7.1 23.3-19.4 21.8-12-1.4-29.2-14.3-31.5-23.7-1.9-7.5 2.4-17.2 8.7-19.8 2.7-1.2 2.9-1.7 2.4-4.3-.6-2.8-.4-3 1.8-2.3 1.6.4 2 .3 1-.3-1-.8.4-4.2 6.9-16.6 4.5-8.6 8.6-15.6 9.1-15.6s3.8 1.4 7.3 3.2zm-40.9 58.9c.1 4.9 2 7 18.3 20.4 9.2 7.6 16.8 14.4 17 15.1.4 1.7-2.7 1.7-26.8.4-9.1-.4-16.6-.7-16.8-.5-.1.1 4.3 3.9 9.8 8.4 10 8 13.3 9.4 15.8 6.9 1-1 1.5-.9 2.7.2 1.2 1.3.8 2.2-3.2 7-2.5 3-5 5.5-5.7 5.5-.6 0-1.4-1.8-1.7-4-.7-4.4-.9-4.6-20.2-20.2-11.4-9.3-11.8-9.5-13.7-7.8-2 1.8-1.9 1.9 2 5.2 6 5.2 5 9.3-1.4 5.4-4.3-2.7-6.2-2.6-10.3.1-5.4 3.7-5.2 5.3 1.3 11.9 5.4 5.5 5.9 5.8 7.6 4.2 2.2-2 2.3-4.2.2-7.2-1.4-2-1.4-2.5-.2-3.7s2.4-.3 8.7 6 7.2 7.7 6.2 9c-1.1 1.4-1.6 1.3-4-.5-2.4-1.7-3.1-1.8-5.4-.8-1.5.7-2.7 1.9-2.7 2.7 0 2 11.2 13.2 13.2 13.2 2.4 0 7.8-6.7 7.8-9.6 0-1.3-.7-4.1-1.5-6.1-1.7-3.9-1.4-6.3.7-6.3.7.1 3.5 2.9 6.1 6.2l4.8 6.2-13 13c-9.3 9.3-13.4 12.7-14.1 12-.8-.8-.8-1.8.1-3.7 1.1-2.5.6-3.2-11.7-16.2-15.5-16.3-16.3-16.9-20.1-15.3-7 3.1-6.1 5.5 8.5 22.8l12.7 15.1 3.6-.6c2.1-.4 4-.2 4.3.4 1 1.5-16.3 15.6-17.5 14.4-.8-.8-.8-1.7 0-3.1.6-1.1 1.1-2.7 1.1-3.5 0-.7-5.8-8.1-12.8-16.3-12.4-14.4-12.9-14.9-16.7-14.9-2.1 0-4-.5-4.2-1.2-.2-.6 4.3-4.9 9.9-9.6 5.7-4.7 17-15.3 25.1-23.6l14.6-15.1 17.6 1.1c9.6.6 18 .9 18.7.7.6-.2-2.8-3.7-7.7-7.6-8.4-6.8-12.5-8.6-14-6.2-.8 1.2-1.6 1.2-3.4.1-1.1-.7-.4-2.2 3.4-7 5-6.3 7-7.2 7-3zM245 781.5c2 1.9 3 3.9 3 5.7 0 1.7.5 2.8 1.3 2.7 4.6-.6 4.9 0 2 3.9-1.5 2.1-4.1 5.4-5.6 7.2-2.5 3-3 3.1-4.3 1.8-1.4-1.4-1.4-2 .5-5.6 4-7.8 2-14.2-4.5-14.2-3.5 0-6.4 2.8-6.4 6.3 0 1.1 1.2 5.7 2.6 10.4 2.4 7.6 2.6 8.8 1.4 12.6-1.6 5.4-8.3 12.1-13.7 13.7-3.8 1.2-4.6 1.1-9-1.1-3.3-1.6-5.3-3.5-6.5-5.9-1.1-2.2-2.9-3.9-4.9-4.6l-3.1-1.1 4.9-6.3c5.8-7.6 7.5-8.9 9.7-7.1 1.3 1.1 1.2 1.7-1.2 5.3-3.8 5.8-3.7 11.2.3 14.5 3.5 2.8 7.6 2.5 11.2-.9 2.9-2.7 2.9-4.4-.3-13.7-3-8.7-2.7-13.4 1.2-19.4 3.7-5.6 7.9-7.9 13.7-7.4 3.5.3 5.6 1.2 7.7 3.2zm24.1 21.6c8.2 6.4 12.8 10.7 12.5 11.5-.7 1.8-7.9 11.4-8.6 11.4-.3 0-1.1-.4-1.8-.9-1.2-.7-1.1-1.4.2-3.9.9-1.7 1.6-4.2 1.6-5.6 0-2.9-5.3-8.6-8-8.6-1.9 0-11 10.5-11 12.7 0 3.3 7.5 3.5 9.5.4.9-1.5 2.5-1.4 3.1.3.3.9-2.1 4.9-5.7 9.6-5.4 6.9-6.5 7.9-7.7 6.6-1.1-1-1.1-1.8-.3-3.4 1.6-3 1.3-5.7-.8-7.6-1.8-1.7-2.1-1.5-7.6 5.3-3.2 4-5.5 7.8-5.3 8.8.5 2.5 6.6 6.3 10.2 6.3 1.7 0 4.8-1.1 6.8-2.5 3.2-2.2 3.7-2.3 4.9-.9 1.1 1.3.4 2.4-4.7 7.4l-5.9 6-14.3-11.1c-11.5-9-14.1-11.4-13.1-12.5.8-1 1.6-1.1 3-.4 2.5 1.4 5.6-1.5 17.9-17.5 9.6-12.6 11.9-17.2 9-19-1.4-.9.1-3.7 1.7-3.1.7.3 7.2 5.1 14.4 10.7zm473.7 6c3.3 4 4 5.5 3.1 6.5-1.6 2-2.4 1.8-7.5-2.1-5.5-4.2-9.1-4.5-13.3-.9-2.3 1.9-3.1 3.4-3.1 5.7 0 6.6 11.2 23.8 18.9 29.1 4.7 3.3 9.1 3.3 12.9.1 3.5-2.9 4.3-6.1 3-11.7-.5-2.3-.6-4.8-.3-5.6 1.2-3.1 3.6 1.3 4.2 7.4.9 11.3-6.5 19.4-17.7 19.4-13.1 0-30.1-20.9-28.7-35.3.7-7.7 6.9-14.1 14.9-15.3 2.7-.5 3.8-1.2 3.8-2.4 0-4.4 3.6-2.6 9.8 5.1zm-30.7 23.5c3.5 5.8-.6 7.6-5.5 2.5-1.6-1.6-4.2-3.5-5.8-4.2-2.5-1-3.3-.9-5.6.8-3.5 2.6-4 7-1.2 10.1 1.9 2 3 2.2 12.3 2.2 11.9 0 14.9 1.3 19.4 8.1 2.3 3.5 2.8 5.3 2.8 10.5 0 5.3-.4 6.7-2.5 8.9-3.3 3.5-7.8 5.8-10.1 5.2-1.4-.4-2.4.3-3.5 2.5-1.5 3-1.6 3-3.4 1.2-2.1-2.1-9-13.3-9-14.6 0-.5.7-1.1 1.6-1.5 1-.4 3.1.9 5.9 3.7 5.1 5 8.9 5.6 13.3 2.3 3.4-2.5 3.9-6.7 1.2-11.1l-2-3.2h-10.3c-9.5 0-10.6-.2-14.4-2.7-8.7-5.6-11-16.8-4.7-23.4 2.5-2.6 3.5-3 7-2.7 3.8.3 4.2 0 5.3-2.6l1.1-2.9 3 3.8c1.7 2.1 4 5.3 5.1 7.1zm-391.7 3.2c1.5 1.8 1.3 3.4-3.4 26.3-4.6 22.7-4.8 24.5-3.4 26.7 3.2 4.8 0 4.7-9.3-.3-10.5-5.7-9.7-5.1-8.6-6.7.4-.7 2.1-1.3 3.7-1.3 2.7 0 3.1-.4 4.3-5 .7-2.8 1-5.8.7-6.8s-3-3-6-4.5l-5.4-2.6-2.8 2.8c-1.6 1.5-3.5 3.8-4.2 5.1-1.2 2.2-1.1 2.8.5 4.5 1.4 1.5 1.6 2.3.7 3.2s-2.4.5-6.4-1.7c-2.9-1.5-5.7-3.1-6.1-3.5-1-.9.3-4.1 1.4-3.5 1.8 1.2 6.9-2.9 23.4-18.4 9.4-8.8 17.5-16 18.1-16.1.6 0 1.8.8 2.8 1.8zm343.4 17.8c3.1 6.1 3.2 6.8 1.7 8.3-1.4 1.5-1.8 1.3-4.9-2.3-3.1-3.7-3.4-3.9-8-3.4-7.5.9-8.1 2.1-5 9.8 3.3 8.3 4.5 9.6 7.4 8 1.8-.9 2.1-1.9 1.8-5.3-.2-3.5 0-4.2 1.6-4.2 1.3 0 2.7 2.2 5.2 8.4 1.9 4.7 3.4 9.1 3.4 9.8 0 2.2-2.7 1.5-4.4-1.2-1.8-2.8-7.3-3.5-8.2-1.2-.2.7 1 4.9 2.8 9.3 3.3 7.7 3.5 7.9 7 8.2 4.3.4 5.8 2.9 2.5 4.1-1.2.5-5.7 2.3-10 4.1-5.8 2.5-8.1 3-8.9 2.2-.9-.9-.7-1.6.5-3 .9-1 1.7-2.5 1.7-3.4 0-1.5-12.6-32.7-14.7-36.3-.7-1.1-2.2-1.9-4-2-2 0-2.8-.5-2.8-1.8 0-1.5 3.5-3.3 15.5-8.2 8.5-3.6 15.7-6.4 16-6.5.3 0 2 3 3.8 6.6zm-314.2-3.2c2.8 1.3 6 3.5 7 4.9 1.6 1.9 2.7 2.4 4.7 2 1.7-.3 2.7-.1 2.7.7 0 1.1-4.9 16.2-5.4 16.8-.2.1-1.1 0-2-.4-1.3-.5-1.6-2.1-1.6-7.8-.1-7.4-.9-9.4-4.7-11.4-3.5-1.9-6-1.4-9.9 2-4 3.6-10.4 15.8-12.5 24.1-2.4 9.8 1.1 16.7 8.6 16.7 3.5 0 5-.7 8.9-4.1 4-3.5 4.7-3.8 5.3-2.3.9 2.3-6.6 9-11.6 10.4-9 2.4-19.3-4.6-21.2-14.4-1.7-9.2 5.5-27.2 13.8-34.6 6.4-5.6 10.3-6.1 17.9-2.6zm33.5 12.6c1.8 1 1.9 2.4 1.9 26.1 0 22.4.2 25.3 1.8 27.2 1.8 2.4 5.3 2.5 7.2.2 1.1-1.3 9-35.9 9-39.5 0-1-1-2.5-2.2-3.1-3-1.5-2.9-1.4-2.3-3.1.5-1.2 2.6-1 13.9 1.3 15 3 18.4 4.5 21.8 9.1 6.5 9.2.9 36.9-8.7 42.8-5.4 3.3-12.2 2.7-38.9-3.5-2.4-.6-17.8-5.6-18.8-6.2-1.7-.9.7-3.3 3.4-3.3h2.9l-.3-6.7c-.3-6.4-.5-6.9-3.2-8.2-1.5-.7-4.5-1.5-6.5-1.8-3.4-.4-3.8-.2-6.3 4.2-3.4 5.5-3.4 6-.7 7.9 2.3 1.6 2 5.2-.4 4.3-.6-.2-3.7-1.2-6.8-2.2-6.3-2-7-4.3-2-6.1 1.8-.8 7.3-7.3 17.1-20.7 8-10.9 14.8-19.7 15.3-19.7s1.7.5 2.8 1zm238.4 3.9c7.8 3.6 13.3 11.7 15.7 23.5 1.4 6.6.1 14.7-3.2 20.2-5.2 8.4-18 11.4-27 6.4-11.9-6.6-18.4-28.9-12-41.5 4.6-9 16.9-13 26.5-8.6zm-53.9 11.2c.3.6-.5 2.1-2 3.3-1.9 1.6-3.6 5.3-6.7 15-3.5 11.2-4 13.7-3.4 18.5 1.3 11.8 1.5 12.1 4.6 12.1 2.2 0 2.9.5 2.9 1.9 0 2-1.9 2.5-15.2 3.7-6.7.6-7.8.4-7.8-.9 0-.8 1.4-2 3.1-2.6l3-1-.6-7.3c-.4-4-1.6-9-2.6-11.2-3.4-6.6-14.1-22.5-15.7-23.1-3.7-1.4-4.1 1-3.6 19.3.6 22.6.9 24 4 25.2 1.3.5 2.4 1.6 2.4 2.5 0 1.2-1.7 1.5-10 1.5-8.9 0-10-.2-10-1.8 0-.9 1-2.2 2.3-2.7 2.1-1 2.2-1.4 2.4-18.5.2-10.3-.1-16.9-.6-16-.5.8-3.3 9.9-6.2 20.2l-5.3 18.8h-6.1l-6.7-20.3-6.6-20.2-.1 15.7c-.1 16.4.6 20.2 4 21.1 1.1.3 1.9 1.2 1.9 2.1 0 1.3-1.3 1.6-7.5 1.6-8.3 0-9.3-1-4.7-4.6l2.7-2.2.4-19.6c.3-20-.1-22.6-3.5-22.6-1 0-1.4 1.3-1.4 3.9 0 5.2-.8 7.1-3.1 7.1-1.4 0-1.9-.7-1.9-2.5 0-3.8-2.7-8.4-5.4-9.1-1.3-.3-3.8-.4-5.7-.2l-3.4.3-.9 8.3c-.5 4.5-.6 8.5-.2 8.9 1.4 1.4 6.2-1.3 7.6-4.4 1.6-3.5 1.9-3.7 3.6-2.5.8.5.9 3.4.1 10.9-.9 8.9-1.3 10.3-2.9 10.3-1.2 0-1.8-.7-1.8-2.1 0-4.3-4.2-8.6-6.8-7-.7.4-1.7 4.5-2.2 9-1.3 10.1-.8 11.1 6.2 11.1 4.3 0 5.4-.4 7.9-3.1 1.6-1.7 3.2-4.2 3.5-5.5.7-2.6 1.2-2.8 3.2-1.6 1 .7.9 2.4-.4 8.5-1.6 7.4-1.8 7.7-4.5 7.7-3.5 0-30.9-3-32.6-3.5-2-.6-.4-3.3 2.3-3.9 1.3-.4 2.6-1.6 2.9-2.9 1.2-4.9 4.3-36.6 3.8-38.5-.2-1.1-1.5-2.4-2.9-3-1.5-.8-2.2-1.7-1.8-2.7.7-1.8-.8-1.9 20.4.5 9.6 1.1 20.5 2 24.1 2h6.6l5.8 18.5c3.2 10.2 6.2 18.2 6.6 17.8.5-.6 5.8-17.9 10.5-34.4.3-1.3 2.4-1.7 9.2-2.2 4.8-.4 11.7-.9 15.5-1.3 6-.6 6.7-.5 6.7 1 0 1-.9 2-2 2.3s-2 1-2 1.6c0 .5 2.6 5 5.7 10l5.7 9 2.8-8.9c3.2-10.1 3-13.4-.7-13.4-1.8 0-2.5-.5-2.5-1.9 0-2 .5-2.1 12.2-2.9 1.5-.1 3 .3 3.4.9z"/><path style="stroke:none;stroke-width:1;stroke-dasharray:none;stroke-linecap:butt;stroke-dashoffset:0;stroke-linejoin:miter;stroke-miterlimit:4;is-custom-font:none;font-file-url:none;fill:#174994;fill-rule:nonzero;opacity:1" transform="translate(-8.78 -12.785) scale(1.02077)" d="M509.9 88.4c-.9 1.9-.8 3.4.6 7 1 2.5 2.1 4.3 2.6 4s.9-3.4.9-7c0-5.1-.3-6.4-1.5-6.4-.9 0-2 1.1-2.6 2.4zm-1.6 15.3c-.9 1.6-2.7 4.1-4 5.6-1.3 1.6-2 3.3-1.7 3.8.3.6 1.1.4 1.7-.5.7-.8 2.6-1.6 4.2-1.8 2.8-.3 3-.6 3.3-5.1.4-5.4-.9-6.1-3.5-2zm-247 36.2c-2.7 2-5.2 5.3-8.1 10.9-4.4 8.5-5.2 12.6-2.6 13.6 2.8 1.1 7.1.6 8.4-.9 2-2.4 4.5-1.8 5.7 1.5.6 1.7 2.6 3.8 4.4 4.7 1.8 1 4.8 3.4 6.6 5.3 3 3.1 3.4 4 3 7.5-.3 2.2-.8 4.8-1.2 5.7-.5 1.4-.2 1.8 1.4 1.8 3.1 0 4.7-4.1 3.1-7.9-1.1-2.7-1-3.7.8-7.5 2.1-4.4 5.7-6.7 9.5-5.8 2.5.5 2.2 5.2-.8 9.2-3.1 4.2-3.1 5.8 0 10.1 5.3 7.4 5.8 8.7 3.9 11.7-.9 1.5-3.9 4.3-6.7 6.2-3.3 2.3-5.2 4.3-5.2 5.5 0 1.7.6 2 4.6 1.9 5.9-.2 9.6-2.2 19.1-10.1 8.9-7.4 8.9-7.4 1.4-17.2-2.4-3.1-5.4-7.6-6.6-10.1s-3.2-5.9-4.5-7.5c-1.2-1.7-3.4-5.3-4.8-8-1.3-2.8-4.4-7.1-6.6-9.7-4.8-5.4-16.3-13.8-19-13.8-1 0-3.6 1.3-5.8 2.9zm13.3 17.6c3 1.2 3.5 1.9 3.2 4.2-.3 2.5-.7 2.8-4.4 3.1-3.6.3-4.2 0-4.8-2-1.8-6.7-.4-8 6-5.3z"/><path style="stroke:none;stroke-width:1;stroke-dasharray:none;stroke-linecap:butt;stroke-dashoffset:0;stroke-linejoin:miter;stroke-miterlimit:4;is-custom-font:none;font-file-url:none;fill:#174994;fill-rule:nonzero;opacity:1" transform="translate(-8.78 -12.783) scale(1.02077)" d="M246.9 169.5c-.4.3-.2 2.3.4 4.3.5 2 1.1 6.5 1.1 9.8.1 6.8.1 6.7 10.1 17.2 6.1 6.4 14.3 11.6 17.3 11 1.3-.3 1.7-1.5 1.8-5.8.1-3 .5-6.8.9-8.3.7-2.6.6-2.8-1.6-2.5-1.8.2-2.6 1.2-3.3 4.1-1.1 4.5-4.5 5.9-8.5 3.5-2.2-1.2-2.6-2.1-2.4-5.3.3-3.9-1.8-7.5-4.2-7.5-.7 0-1.8-.7-2.5-1.5-1.1-1.3-1.1-2 0-3.9 1-2 .9-2.8-.5-5-1-1.5-2.7-2.6-4-2.6-1.8 0-2.4-.8-3.1-4.1-.5-2.2-1.2-3.8-1.5-3.4zm17.1 4.1c0 .9.5 1.4 1.2 1.2 1.8-.6 2.1-2.8.4-2.8-.9 0-1.6.7-1.6 1.6zm5.5 6.6c-1.2 3-.1 6.3 2 6.3 2.7 0 3-2.7.6-5.6-1.7-2.1-2-2.2-2.6-.7z"/><path style="stroke:none;stroke-width:1;stroke-dasharray:none;stroke-linecap:butt;stroke-dashoffset:0;stroke-linejoin:miter;stroke-miterlimit:4;is-custom-font:none;font-file-url:none;fill:#174994;fill-rule:nonzero;opacity:1" transform="translate(-8.783 -12.782) scale(1.02077)" d="M266.7 192.7c-1.1 1-.8 4.3.3 4.3 1.5 0 2.4-3 1.3-4.1-.5-.5-1.2-.6-1.6-.2zm17.3 3.8c-1.5 5.2-1.1 6.1 1.9 4.5 1.6-.8 2.1-2 2.1-5 0-5.6-2.4-5.2-4 .5zm196.5-15.8c-31.9 2.5-54.4 6.8-79.6 14.9-50.1 16.1-93.1 42.4-130.4 79.9-56.8 56.9-89.1 129.7-93.4 210.2-8.1 152.6 93.4 290.8 241.5 328.8 41.8 10.8 88.5 12.8 131.4 5.9 71.1-11.5 138.5-48.2 186.4-101.4 45.5-50.3 72.9-109.6 81.6-176 3-22.8 2.8-59.9-.5-83.8-4.9-35.6-14.2-65.6-30.5-98.7-23.1-46.8-54.9-85.3-96.3-116.3-36.8-27.6-82.1-48.2-125.2-57-28.1-5.8-62.2-8.4-85-6.5zm48 9.4c58.6 5.1 117.8 29.1 166 67.3 13 10.3 39 36.3 49.3 49.3 36.6 46.2 58 97.4 66.4 158.3 1.7 12.9 1.7 60.2 0 74-7.8 60.1-30.4 113.7-68 161-10.4 13-36.4 38.7-49.5 48.9-45.1 34.9-92.8 55.5-149.7 64.4-11.6 1.8-17.9 2.1-44 2.1-34.4 0-46.4-1.3-74-8-116.4-28.5-205.8-119-232.4-235.2-5.8-25-7-37.3-7-69.7 0-25.5.4-32 2.2-43.6 3.1-20.5 6.8-35.5 13.1-54.9 11.8-35.6 27.2-64.5 50.8-95.1 10.9-14.2 39.3-42.8 53.3-53.6 65.4-50.6 140.5-72.5 223.5-65.2z"/><path style="stroke:none;stroke-width:1;stroke-dasharray:none;stroke-linecap:butt;stroke-dashoffset:0;stroke-linejoin:miter;stroke-miterlimit:4;is-custom-font:none;font-file-url:none;fill:#174994;fill-rule:nonzero;opacity:1" transform="translate(-8.782 -12.781) scale(1.02077)" d="M505 216.6c-23.9 10.2-44 19.1-44.6 19.7-.6.7-11.3 30.9-23.8 67.2-12.5 36.2-23.1 66.5-23.5 67.2-.4.8-9.9-9.4-27.6-29.8-14.8-17.1-27.8-31.7-28.9-32.4-1.6-1-13.5-1.4-49.3-1.9l-47.2-.6-.6 4.2c-1.1 8.1-10.5 86.3-10.7 89.3-.2 2.7 5.3 9.4 46.5 56.8 41.4 47.7 48 55.7 46.3 55.7-1.1 0-82.9 16-83.1 16.2-.1.2-11.2 18.8-24.7 41.5l-24.6 41.2L248 640l38.8 29.1 70.2-13.7c38.6-7.4 70.4-13.4 70.7-13.1.2.3-5.7 18.2-13.1 39.9-7.5 21.6-13.6 39.7-13.6 40.1 0 .6 45.5 83.2 46.5 84.5.4.5 88-37 89.1-38.1.6-.7 11.4-31.1 23.9-67.7 12.6-36.6 23.1-66.8 23.4-67.2.4-.4 13.1 13.6 28.3 31.1l27.7 31.9 7.3.6c4 .3 25.8.8 48.5 1.1l41.1.5.6-3.7c.8-5.5 10.5-86.2 10.8-89.8.2-2.7-5.3-9.3-46.5-56.8-40.7-46.9-48-55.7-46.4-55.7 1 0 83.1-16 83.2-16.2 0-.2 11.2-18.8 24.7-41.5l24.6-41.2L749 365l-38.8-29.1-70.2 13.6c-38.6 7.5-70.4 13.4-70.7 13.2-.2-.3 5.7-18.4 13.3-40.2 12.9-37.3 13.6-39.9 12.3-42.5-3.6-7.2-45.5-82-45.9-81.9-.3 0-20.1 8.3-44 18.5zm-13.9 163.2c3.9 2 5.8 3.8 7.6 7.1 7.4 14.1-5.5 31.2-20.5 27.2-11.2-3-16.7-12.1-14-22.9 1.3-5.2 8-12.7 11.9-13.5 6-1.1 9.9-.6 15 2.1zm99.5 38.6c21 9.8 8.2 41.9-13.7 34.4-8.2-2.7-12.9-9.1-12.9-17.3 0-5.8 1.8-10.2 6.1-14.3 5.7-5.6 12.5-6.5 20.5-2.8zM520 436.6c0 .4-1.4 2.9-3.1 5.7-2.9 4.7-2.9 5-1.2 6.2 8.3 5.9 49.9 37.9 50.1 38.6.2.5-2.4.9-5.7.9-3.4 0-6.1.3-6.1.7 0 .5-1.8 15-4 32.3s-4 31.8-4 32.2c0 2.3-2.3.2-4.5-4.2-1.4-2.8-2.8-5-3.1-5s-14 5.7-30.5 12.7c-16.5 6.9-30.2 12.3-30.5 12-.4-.3.8-2.9 2.6-5.8 1.7-2.8 2.7-5.5 2.2-5.8-5.5-3.6-51.1-38.9-51.2-39.6 0-.6 2.4-.9 6-.7 3.3.2 6 .1 6-.2 0-.4 1.8-14.7 4-31.8 2.2-17.2 4-31.8 4-32.5 0-2.7 2-1.1 4.6 3.7 1.9 3.5 3.2 4.9 4.3 4.5.9-.3 14.2-5.9 29.6-12.4 27-11.5 30.5-12.8 30.5-11.5zm-113.1 10.2c1.9.9 4.9 3.4 6.5 5.5 2.8 3.5 3.1 4.6 3.1 10.6 0 5.6-.4 7.4-2.7 10.8-5.7 8.7-18.7 10.9-26.7 4.5-5.3-4.2-8.4-10.6-7.7-16.1 1.9-14.4 14.7-21.6 27.5-15.3zm202.5 79.3c4 2.6 8.6 10.6 8.6 14.9 0 6-4.7 14.7-9.3 17.1-9.6 5.2-22.4 1.1-26.8-8.5-2.6-5.8-2.4-10.5.9-16.7 3.7-7.2 9.3-10.3 17.3-9.6 3.5.3 7 1.4 9.3 2.8zm-184.5 28.2c13.6 9 9.1 31.3-7 34.2-7.4 1.4-16.8-3.2-20.2-9.7-3.5-7-1.7-17.9 3.9-23 6.3-5.7 16-6.3 23.3-1.5zm96.2 37.2c9.5 3.4 14.3 12.4 11.8 21.9-3.4 12.9-16.5 18.1-28.2 11.2-10.9-6.3-11.5-22-1.2-30.8 4.3-3.7 11-4.6 17.6-2.3z"/><path style="stroke:none;stroke-width:1;stroke-dasharray:none;stroke-linecap:butt;stroke-dashoffset:0;stroke-linejoin:miter;stroke-miterlimit:4;is-custom-font:none;font-file-url:none;fill:#174994;fill-rule:nonzero;opacity:1" transform="translate(-8.784 -12.779) scale(1.02077)" d="M490.3 472.5c-10.9 3.4-19 11.2-21.9 21.3-4.2 14.2 3.4 30.6 17.2 37.2 7.2 3.5 17.8 3.5 25.5-.1 12-5.7 18.3-15.3 18.4-27.9 0-6.5-.4-8.4-3.3-14.3-6.9-13.9-21.8-20.7-35.9-16.2zM118.5 323c-.4.6-.7 2.7-.8 4.7-.1 2.8.5 4.1 2.8 5.9 1.7 1.3 3.6 2.4 4.3 2.4 1.4 0 1.6-3.6.2-4.5-.5-.3-1-1.6-1-2.8 0-2.7-4.5-7.3-5.5-5.7zm184.7 529-6.4 5.7 4.7 2.7c2.6 1.5 4.8 2.6 5 2.4.4-.5 3.6-16.1 3.3-16.3-.2-.2-3.1 2.3-6.6 5.5zm66.5 29.7c-2.6 3.7-4.4 7-4 7.4 1.2 1 8.4 3.2 8.9 2.6.3-.2.4-4.1.2-8.5l-.3-8.1-4.8 6.6zm44.4-2.5c-1.7 4-8.3 36.5-7.9 38.9.2 1.6 1.2 2.5 3.6 3.1 9 2.3 15.9-8.8 16.9-27.3.6-9.6-.2-12.1-4.5-14.3-5.6-2.8-7.1-2.9-8.1-.4zm193.3-9.2c-6 2.4-6.9 10.5-2.8 24.6 4.3 15 10 21.5 17.4 19.9 4.6-1 6.4-5.2 5.7-13.9-1-13.6-6.9-27.1-13.3-30.1-3.6-1.7-4-1.7-7-.5z"/></svg>