<svg xmlns="http://www.w3.org/2000/svg" width="665.527" height="665.527"><style>.B{stroke:#c4820e}.C{stroke-linecap:round}.D{stroke-width:2.7}.E{stroke-width:2.34}.F{fill:none}.G{stroke-miterlimit:3.8636899}.H{fill:#fff}.I{fill-rule:evenodd}.J{fill:#c4820e}.K{stroke:#fff}.L{stroke-linejoin:round}.M{stroke-width:2.43}</style><path d="M11.202 332.762c0-177.596 143.966-321.561 321.562-321.561s321.563 143.965 321.563 321.561S510.36 654.325 332.764 654.325 11.202 510.359 11.202 332.762" class="J"/><path stroke="#003262" stroke-width="22.404" d="M11.202 332.762c0-177.596 143.966-321.561 321.562-321.561s321.563 143.965 321.563 321.561S510.36 654.325 332.764 654.325 11.202 510.359 11.202 332.762z" class="F G"/><g class="H I"><path d="M398.699 624.147a5.6 5.6 0 0 0 5.33 1.492 5.66 5.66 0 0 0 2.641-1.491l-7.971-.001zm-21.276 0a5.62 5.62 0 0 0 .067 1.01c.486 3.073 3.373 5.135 6.408 4.656 2.821-.447 4.829-2.89 4.764-5.665l-11.239-.001zm-18.391 0a5.62 5.62 0 0 0-.696 3.458 5.601 5.601 0 0 0 6.241 4.876c3.089-.379 5.294-3.158 4.916-6.248a5.69 5.69 0 0 0-.683-2.087h-9.779zm-18.866 0a5.625 5.625 0 0 0-1.896 4.395 5.603 5.603 0 0 0 5.794 5.402c3.11-.109 5.549-2.685 5.441-5.795a5.644 5.644 0 0 0-1.851-4l-7.488-.002zm-18.046 0a5.646 5.646 0 0 0-2.064 4.247 5.601 5.601 0 0 0 5.502 5.697c3.113.055 5.684-2.39 5.738-5.501a5.644 5.644 0 0 0-2.025-4.446l-7.151.003zm-20.831 0a5.597 5.597 0 0 0-.998 2.727 5.603 5.603 0 0 0 5.092 6.067c3.099.271 5.835-1.987 6.106-5.089a5.651 5.651 0 0 0-.976-3.714l-9.225.008zm-20.63 0a5.602 5.602 0 0 0 4.669 6.321c3.074.487 5.96-1.578 6.446-4.65.09-.566.094-1.125.02-1.665l-11.135-.006zm-18.454 0a5.598 5.598 0 0 0 3.629 2.582 5.632 5.632 0 0 0 6.001-2.58l-9.63-.002"/><path d="M406.67 624.147a5.576 5.576 0 0 0 1.476-5.308c-.754-3.02-3.781-4.87-6.8-4.118s-4.851 3.855-4.108 6.838a5.563 5.563 0 0 0 1.46 2.592l7.971-.005zm-18.009 0a5.668 5.668 0 0 0-.069-.749c-.488-3.074-3.341-5.181-6.415-4.695-2.73.434-4.69 2.796-4.755 5.446l11.239-.002zm-19.85 0a5.585 5.585 0 0 0-5.566-2.826 5.636 5.636 0 0 0-4.214 2.829l9.78-.002zm-21.159 0a5.56 5.56 0 0 0-3.942-1.437 5.587 5.587 0 0 0-3.545 1.43l7.488.008zm-18.382 0a5.538 5.538 0 0 0-3.476-1.293 5.604 5.604 0 0 0-3.675 1.291l7.151.002zm-18.757 0a5.556 5.556 0 0 0-4.111-2.4c-2.079-.182-3.995.809-5.114 2.401l9.225-.001zm-18.72 0a5.592 5.592 0 0 0-4.669-4.775 5.67 5.67 0 0 0-6.452 4.688l-.014.086 11.135.002zm-19.959 0a5.522 5.522 0 0 0 .679-1.725c.647-3.043-1.262-6.034-4.306-6.68s-6.05 1.338-6.689 4.344a5.575 5.575 0 0 0 .686 4.062h9.63zm144.378-10a5.63 5.63 0 0 0 .221 2.474 5.603 5.603 0 0 0 7.059 3.595c2.63-.855 4.214-3.437 3.86-6.077l-11.14.008zm-173.867 0-.121.356a5.602 5.602 0 0 0 3.718 6.993c2.976.911 6.121-.731 7.031-3.707a5.652 5.652 0 0 0-.106-3.644l-10.521.003zm-17.1 0a5.71 5.71 0 0 0 1.548.895 5.64 5.64 0 0 0 5.605-.893l-7.153-.002"/><path d="M445.478 606.361c-1.116-2.905-4.346-4.374-7.25-3.259s-4.346 4.418-3.245 7.287a5.603 5.603 0 0 0 7.236 3.222c2.906-1.115 4.373-4.345 3.259-7.25zm18.05-8.218c-1.314-2.82-4.639-4.059-7.46-2.745s-4.025 4.71-2.728 7.495a5.603 5.603 0 0 0 7.444 2.709c2.82-1.314 4.06-4.64 2.744-7.459zm17.452-9.378c-1.509-2.723-4.913-3.727-7.632-2.219s-3.689 4.98-2.199 7.668a5.6 5.6 0 0 0 7.614 2.183c2.723-1.508 3.726-4.911 2.217-7.631zm16.947-10.756c-1.74-2.579-5.217-3.284-7.798-1.543s-3.239 5.281-1.521 7.83a5.6 5.6 0 0 0 7.775 1.51c2.58-1.739 3.284-5.216 1.544-7.796zm-317.317 8.574c1.65-2.64.877-6.102-1.761-7.752s-6.143-.811-7.771 1.795a5.604 5.604 0 0 0 1.782 7.719c2.637 1.649 6.101.878 7.75-1.761zm17.321 9.623c1.46-2.748.45-6.149-2.298-7.609s-6.185-.381-7.629 2.332a5.604 5.604 0 0 0 2.316 7.575c2.748 1.461 6.149.45 7.61-2.297zm17.671 8.419c1.316-2.821.127-6.164-2.691-7.479a5.67 5.67 0 0 0-7.495 2.728 5.602 5.602 0 0 0 2.709 7.444c2.82 1.315 6.164.128 7.477-2.692zm211.749 9.523a5.56 5.56 0 0 0-.228-1c-.96-2.96-4.11-4.595-7.069-3.634-2.131.692-3.565 2.558-3.844 4.64l11.14-.006zm-174.486 0a5.573 5.573 0 0 0-3.6-3.39 5.68 5.68 0 0 0-6.921 3.389l10.521.002zm-20.469 0a5.53 5.53 0 0 0 1.667-2.312c1.115-2.905-.304-6.158-3.208-7.274s-6.186.376-7.287 3.245a5.604 5.604 0 0 0 1.675 6.337l7.153.005zm272.806-40a5.62 5.62 0 0 0 7.205.514c.222-.16.428-.334.619-.52l-7.824.006zm-351.165 0a5.586 5.586 0 0 0 2.066 2.898c2.518 1.83 6.026 1.301 7.855-1.216a5.672 5.672 0 0 0 .84-1.683h-10.761"/><path d="M528.913 554.143c-2.001-2.384-5.533-2.719-7.916-.72s-2.67 5.592-.695 7.946a5.602 5.602 0 0 0 7.891.69c2.384-2 2.72-5.531.72-7.916zm14.476-13.924c-2.2-2.201-5.749-2.227-7.947-.029a5.67 5.67 0 0 0 0 7.976 5.601 5.601 0 0 0 7.92 0c2.2-2.201 2.229-5.747.028-7.947zM133.23 551.224c2.123-2.275 2.026-5.823-.25-7.944a5.67 5.67 0 0 0-7.97.279c-2.123 2.275-1.971 5.82.276 7.917 2.275 2.121 5.822 2.025 7.944-.251zm14.819 12.771c2.001-2.383 1.719-5.92-.665-7.92s-5.971-1.659-7.945.695a5.6 5.6 0 0 0 .69 7.89c2.384 2.001 5.92 1.719 7.92-.665zm364.978 10.153c1.982-1.924 2.32-5.036.651-7.332-1.829-2.519-5.327-3.1-7.846-1.27a5.67 5.67 0 0 0-1.248 7.876c.189.261.396.501.619.719l7.824.008zm-348.227 0a5.592 5.592 0 0 0-2.056-6.172c-2.518-1.829-6.072-1.238-7.877 1.247a5.58 5.58 0 0 0-.827 4.92l10.761.005zm384.66-40a5.602 5.602 0 0 0 7.274-.007l-7.274.007zm-439.785 0a5.58 5.58 0 0 0 1.433 2.928c2.122 2.276 5.667 2.429 7.943.305a5.65 5.65 0 0 0 1.732-3.229l-11.108-.004"/><path d="M569.203 510.189c-2.485-1.873-6.001-1.406-7.874 1.08a5.67 5.67 0 0 0 1.109 7.897 5.603 5.603 0 0 0 7.845-1.102c1.872-2.485 1.406-6.002-1.08-7.875zm11.285-15.982c-2.58-1.74-6.067-1.09-7.808 1.49a5.67 5.67 0 0 0 1.521 7.829 5.602 5.602 0 0 0 7.776-1.511c1.74-2.579 1.089-6.067-1.49-7.808zm10.241-16.983c-2.695-1.555-6.129-.664-7.684 2.031a5.67 5.67 0 0 0 2.064 7.704 5.601 5.601 0 0 0 7.651-2.049c1.555-2.696.663-6.13-2.031-7.686zm9.075-17.613c-2.798-1.363-6.16-.234-7.524 2.563a5.67 5.67 0 0 0 2.596 7.541 5.602 5.602 0 0 0 7.49-2.579c1.362-2.796.234-6.16-2.562-7.525zm7.899-18.168c-2.885-1.165-6.163.196-7.327 3.081s.268 6.19 3.116 7.341a5.601 5.601 0 0 0 7.291-3.094c1.166-2.886-.195-6.162-3.08-7.329zm-544.16 14.359c2.864-1.216 4.219-4.495 3.003-7.36s-4.567-4.189-7.395-2.989a5.604 5.604 0 0 0-2.967 7.345c1.215 2.864 4.495 4.219 7.359 3.004zm8.852 17.738c2.773-1.413 3.895-4.779 2.483-7.551s-4.848-3.86-7.586-2.465a5.603 5.603 0 0 0-2.447 7.534c1.413 2.773 4.778 3.895 7.551 2.483zm9.818 16.933c2.695-1.555 3.64-4.976 2.084-7.67s-5.043-3.601-7.704-2.065a5.602 5.602 0 0 0-2.05 7.651c1.556 2.695 4.976 3.64 7.67 2.084zM93.36 506.87c2.58-1.741 3.284-5.219 1.544-7.798s-5.282-3.24-7.829-1.522a5.602 5.602 0 0 0-1.511 7.776c1.739 2.579 5.217 3.284 7.797 1.544zm12.457 15.756c2.418-1.959 2.817-5.484.858-7.902s-5.544-2.768-7.932-.834a5.602 5.602 0 0 0-.828 7.877c1.959 2.419 5.484 2.817 7.902.859zm450.916 11.521c.206-.184.401-.377.585-.587 2.04-2.349 1.821-5.89-.528-7.933s-5.89-1.821-7.931.528-1.763 5.941.556 7.956l.044.038 7.274-.001zm-435.951 0a5.566 5.566 0 0 0-1.427-4.71c-2.123-2.276-5.724-2.374-7.972-.279a5.59 5.59 0 0 0-1.71 4.984l11.108.005zm-71.961-100c1.066 2.849 4.186 4.36 7.08 3.363a5.64 5.64 0 0 0 3.463-3.364l-10.542.001"/><path d="M614.359 423.034c-2.941-1.014-6.143.517-7.155 3.459s.59 6.169 3.497 7.17a5.604 5.604 0 0 0 7.119-3.474c1.013-2.941-.518-6.143-3.461-7.155zm5.369-19.081c-3.005-.805-6.091.945-6.896 3.95a5.67 5.67 0 0 0 3.987 6.908 5.604 5.604 0 0 0 6.86-3.96c.805-3.006-.944-6.092-3.951-6.897zm4.033-19.652c-3.064-.54-5.986 1.473-6.528 4.536s1.549 6 4.575 6.534a5.603 5.603 0 0 0 6.489-4.543c.54-3.065-1.472-5.988-4.536-6.527zM44.537 399.816c3.044-.647 4.999-3.608 4.352-6.651s-3.684-4.983-6.689-4.344a5.6 5.6 0 0 0-4.314 6.642c.647 3.044 3.608 4.999 6.651 4.353zm4.955 18.931c3.006-.806 4.803-3.864 3.999-6.87s-3.94-4.783-6.908-3.988a5.6 5.6 0 0 0-3.96 6.86c.805 3.005 3.864 4.804 6.87 3.998zm9.871 15.4a5.555 5.555 0 0 0 .046-3.769c-1.013-2.942-4.263-4.498-7.168-3.498-2.942 1.012-4.473 4.215-3.473 7.12l.052.145 10.543.001zm562.267-60a5.637 5.637 0 0 0 3.597 1.942 5.59 5.59 0 0 0 4.959-1.945l-8.556.002zm-587.323 0a5.7 5.7 0 0 0 .03 1.066c.38 3.089 3.159 5.295 6.247 4.915 3.002-.368 5.171-3.005 4.941-5.989l-11.218.007"/><path d="M628.283 345.859c-3.106-.312-5.881 1.921-6.192 5.029s1.999 5.889 5.069 6.196a5.623 5.623 0 0 0 6.153-5.034c.311-3.108-1.921-5.881-5.029-6.191zm-.023-20.25c-3.111 0-5.639 2.489-5.639 5.601a5.67 5.67 0 0 0 5.639 5.639 5.601 5.601 0 0 0 5.601-5.6c0-3.113-2.489-5.64-5.601-5.64zM36.992 340.917c3.111 0 5.64-2.489 5.64-5.6s-2.567-5.64-5.64-5.64a5.602 5.602 0 0 0-5.601 5.6c0 3.113 2.489 5.64 5.601 5.64zm1.347 20.239c3.107-.311 5.383-3.05 5.072-6.158s-3.127-5.376-6.196-5.069a5.623 5.623 0 0 0-5.033 6.154c.31 3.108 3.049 5.384 6.157 5.072zm591.847 12.991a5.6 5.6 0 0 0 1.283-2.934c.38-3.089-1.784-5.901-4.872-6.281s-5.901 1.784-6.28 4.873a5.614 5.614 0 0 0 1.314 4.336l8.556.006zm-584.662 0-.026-.265c-.379-3.087-3.235-5.285-6.285-4.91a5.603 5.603 0 0 0-4.907 5.183l11.218-.007zm577.307-60c1.14 1.655 3.126 2.654 5.23 2.444a5.608 5.608 0 0 0 4.097-2.446l-9.327.002zm-590.903 0-.041.329c-.311 3.108 1.922 5.881 5.029 6.192s5.881-1.923 6.192-5.03a5.565 5.565 0 0 0-.051-1.496l-11.129.005"/><path d="M624.746 286.374c-3.089.379-5.294 3.158-4.916 6.246s3.236 5.285 6.286 4.91a5.602 5.602 0 0 0 4.876-6.241c-.379-3.089-3.158-5.295-6.246-4.915zm-3.904-19.695c-3.044.647-4.999 3.608-4.352 6.651s3.685 4.983 6.69 4.344a5.601 5.601 0 0 0 4.314-6.642c-.646-3.044-3.607-4.999-6.651-4.353zM41.357 282.214c3.065.541 5.986-1.471 6.526-4.536a5.67 5.67 0 0 0-4.575-6.533 5.6 5.6 0 0 0-6.488 4.543c-.541 3.064 1.472 5.986 4.536 6.526zm-2.718 19.637c3.095.326 5.869-1.886 6.195-4.98s-1.963-5.877-5.02-6.199a5.602 5.602 0 0 0-6.155 4.985c-.326 3.094 1.886 5.869 4.98 6.194zm593.52 12.296a5.625 5.625 0 0 0 .936-3.709c-.311-3.109-3.051-5.384-6.158-5.074s-5.384 3.05-5.072 6.158c.097.976.444 1.87.966 2.627l9.327-.002zm-589.102 0c-.418-2.462-2.453-4.447-5.017-4.705a5.623 5.623 0 0 0-6.112 4.712l11.129-.007zm568.762-60 .104.462c.806 3.006 3.939 4.784 6.906 3.989a5.6 5.6 0 0 0 4.071-4.459l-11.081.007zm-569.777 0a5.71 5.71 0 0 0-.645 1.5c-.806 3.005.945 6.091 3.95 6.896s6.092-.945 6.898-3.951a5.62 5.62 0 0 0-.679-4.447l-9.524.002"/><path d="M609.56 228.964c-2.941 1.012-4.523 4.19-3.509 7.132s4.264 4.498 7.169 3.496c2.942-1.012 4.472-4.214 3.472-7.12-1.013-2.942-4.19-4.521-7.133-3.509zm-7.587-18.295c-2.864 1.215-4.219 4.494-3.003 7.359s4.566 4.189 7.395 2.988a5.602 5.602 0 0 0 2.967-7.344c-1.216-2.865-4.495-4.219-7.36-3.002zM65.13 206.845c2.796 1.363 6.16.235 7.524-2.562a5.67 5.67 0 0 0-2.597-7.541 5.601 5.601 0 0 0-7.489 2.579c-1.364 2.796-.235 6.16 2.561 7.525zm-7.844 18.188c2.885 1.165 6.162-.195 7.328-3.08s-.267-6.192-3.117-7.344a5.604 5.604 0 0 0-7.291 3.096c-1.165 2.885.196 6.161 3.081 7.327zm-6.61 18.683c2.96.961 6.133-.625 7.095-3.584s-.699-6.158-3.621-7.108a5.602 5.602 0 0 0-7.057 3.596c-.962 2.96.624 6.134 3.584 7.095zM622.9 254.147a5.61 5.61 0 0 0-.11-2.409c-.805-3.006-3.864-4.804-6.87-3.999-2.851.765-4.616 3.558-4.101 6.41l11.081-.002zm-571.334 0a5.62 5.62 0 0 0-3.309-2.461 5.6 5.6 0 0 0-6.215 2.466l9.524-.005zm539.972-60a5.591 5.591 0 0 0-.854 6.311c1.413 2.772 4.847 3.86 7.585 2.465a5.602 5.602 0 0 0 2.447-7.534 5.73 5.73 0 0 0-.856-1.244l-8.322.001"/><path d="M583.368 175.95c-2.694 1.555-3.639 4.975-2.084 7.67s5.045 3.601 7.705 2.064a5.601 5.601 0 0 0 2.05-7.651c-1.556-2.695-4.975-3.639-7.671-2.082zm-11.097-16.414c-2.58 1.74-3.284 5.217-1.544 7.798s5.283 3.24 7.83 1.521a5.603 5.603 0 0 0 1.511-7.775c-1.74-2.58-5.217-3.284-7.798-1.544zm-12.429-15.781c-2.419 1.959-2.816 5.485-.857 7.903a5.67 5.67 0 0 0 7.931.835 5.603 5.603 0 0 0 .829-7.879c-1.959-2.419-5.484-2.816-7.903-.859zm-13.197-14.785c-2.275 2.122-2.426 5.666-.305 7.942s5.724 2.374 7.971.279a5.603 5.603 0 0 0 .278-7.916c-2.122-2.276-5.668-2.428-7.944-.305zm-425.27-2.871c2.2 2.2 5.747 2.229 7.948.028s2.173-5.803 0-7.976a5.602 5.602 0 0 0-7.921 0c-2.2 2.201-2.228 5.747-.027 7.949zm-13.373 14.633c2.348 2.043 5.889 1.821 7.931-.526a5.67 5.67 0 0 0-.557-7.956 5.6 5.6 0 0 0-7.901.553c-2.041 2.347-1.821 5.89.527 7.93zM95.63 156.198c2.485 1.873 6.002 1.406 7.875-1.079s1.344-6.05-1.11-7.899a5.604 5.604 0 0 0-7.844 1.102c-1.872 2.485-1.406 6.001 1.079 7.875zM84.371 172.2c2.58 1.739 6.068 1.09 7.808-1.49s1.025-6.111-1.522-7.83a5.602 5.602 0 0 0-7.775 1.512c-1.74 2.579-1.09 6.066 1.49 7.808zm-10.194 17.001c2.695 1.556 6.129.665 7.685-2.03s.597-6.168-2.064-7.704a5.602 5.602 0 0 0-7.651 2.05c-1.555 2.695-.664 6.129 2.031 7.684zm525.683 4.946c-1.66-1.832-4.384-2.418-6.695-1.239a5.67 5.67 0 0 0-1.628 1.239h8.322zm-65.211-80a5.794 5.794 0 0 0-1.65 1.15c-2.199 2.2-2.227 5.747-.026 7.949s5.804 2.173 7.976 0a5.602 5.602 0 0 0 0-7.921 5.67 5.67 0 0 0-1.702-1.174l-4.597-.004"/><path d="M517.713 102.291c-2.001 2.384-1.719 5.92.665 7.92a5.67 5.67 0 0 0 7.946-.695 5.602 5.602 0 0 0-.691-7.89c-2.383-2-5.92-1.719-7.92.665zM501.83 90.416c-1.829 2.516-1.301 6.025 1.216 7.855s6.071 1.237 7.877-1.249a5.604 5.604 0 0 0-1.239-7.824c-2.519-1.827-6.026-1.301-7.855 1.217zm-351.089 9.472c1.916 2.452 5.434 2.913 7.886.997s2.864-5.495.972-7.918a5.604 5.604 0 0 0-7.863-.966c-2.451 1.916-2.911 5.435-.996 7.886zm-14.928 12.255c2 2.384 5.532 2.72 7.916.719s2.67-5.591.695-7.945a5.601 5.601 0 0 0-7.89-.69c-2.385 2-2.721 5.533-.721 7.916zm403.432 2.004a5.631 5.631 0 0 0-4.599.008l4.599-.008zm-54.697-30a5.56 5.56 0 0 0 2.419 3.226c2.64 1.649 6.142.811 7.772-1.795.284-.454.495-.933.635-1.423l-10.826-.009zm-318.672 0a5.55 5.55 0 0 0 .874 4.064c1.74 2.58 5.218 3.284 7.798 1.544 1.884-1.27 2.744-3.503 2.403-5.605l-11.074-.003m302.034-14.188c-1.46 2.747-.449 6.149 2.299 7.609s6.184.381 7.627-2.331a5.603 5.603 0 0 0-2.316-7.575c-2.748-1.461-6.149-.45-7.61 2.298zm-17.656-8.449c-1.315 2.82-.126 6.164 2.692 7.48s6.196.056 7.495-2.729a5.604 5.604 0 0 0-2.707-7.444c-2.821-1.315-6.165-.128-7.48 2.692zm-18.442-7.255c-1.114 2.904.303 6.158 3.209 7.273s6.185-.375 7.286-3.245a5.603 5.603 0 0 0-3.221-7.235c-2.906-1.116-6.158.303-7.274 3.207zm-18.891-6.003c-.91 2.976.731 6.121 3.707 7.031s6.144-.806 7.043-3.745a5.604 5.604 0 0 0-3.719-6.994c-2.976-.91-6.123.732-7.031 3.707zM393.4 43.571c-.647 3.044 1.262 6.034 4.305 6.681s6.051-1.339 6.69-4.344a5.604 5.604 0 0 0-4.315-6.644c-3.043-.648-6.034 1.263-6.68 4.306zm-19.279-3.424c-.486 3.074 1.577 5.96 4.651 6.447s5.971-1.654 6.452-4.689a5.604 5.604 0 0 0-4.658-6.408c-3.072-.487-5.959 1.575-6.446 4.649zm-19.691-2.092c-.271 3.099 1.989 5.835 5.087 6.106s5.844-2.066 6.111-5.128a5.602 5.602 0 0 0-5.091-6.067c-3.1-.271-5.835 1.989-6.108 5.089zm-19.549-.876c-.109 3.109 2.291 5.722 5.402 5.831s5.725-2.369 5.832-5.44a5.602 5.602 0 0 0-5.402-5.793c-3.11-.109-5.724 2.29-5.832 5.401zm-19.817.546c.109 3.11 2.685 5.549 5.795 5.44s5.546-2.763 5.44-5.832a5.605 5.605 0 0 0-5.794-5.403c-3.109.109-5.55 2.685-5.441 5.795zm-19.99 1.956c.379 3.089 3.159 5.295 6.246 4.915s5.286-3.235 4.911-6.285a5.604 5.604 0 0 0-6.243-4.878c-3.087.38-5.294 3.159-4.915 6.247zm-19.09 2.898c.486 3.072 3.341 5.181 6.414 4.694s5.17-3.418 4.689-6.452a5.602 5.602 0 0 0-6.408-4.656c-3.074.486-5.183 3.341-4.695 6.415zm-19.543 4.606c.752 3.019 3.78 4.869 6.799 4.117s4.851-3.855 4.108-6.837a5.602 5.602 0 0 0-6.789-4.079c-3.02.753-4.87 3.78-4.118 6.799zm-18.965 5.726c.961 2.959 4.111 4.595 7.07 3.633s4.57-4.184 3.621-7.105a5.605 5.605 0 0 0-7.059-3.597c-2.959.961-4.594 4.111-3.632 7.07zm-18.341 6.817c1.115 2.905 4.345 4.374 7.25 3.259s4.345-4.418 3.244-7.286a5.601 5.601 0 0 0-7.236-3.222c-2.905 1.115-4.373 4.345-3.257 7.25zm-18.032 8.258c1.315 2.82 4.639 4.059 7.46 2.744s4.026-4.71 2.727-7.495a5.602 5.602 0 0 0-7.444-2.709c-2.82 1.315-4.059 4.639-2.744 7.46zm-17.429 9.428c1.509 2.722 4.911 3.726 7.632 2.217a5.67 5.67 0 0 0 2.199-7.666 5.602 5.602 0 0 0-7.614-2.184c-2.721 1.509-3.726 4.911-2.218 7.633zm311.703 6.734a5.6 5.6 0 0 0-2.418-6.286c-2.639-1.649-6.103-.876-7.751 1.761a5.655 5.655 0 0 0-.658 4.521l10.826.004zm-318.425 0a5.544 5.544 0 0 0-.881-2.222 5.602 5.602 0 0 0-7.775-1.511 5.645 5.645 0 0 0-2.417 3.725l11.074.009"/></g><path stroke-miterlimit="3.864" stroke-width=".933" d="M349.504 628.15c-.109-3.11-2.685-5.549-5.794-5.44s-5.548 2.761-5.441 5.832a5.603 5.603 0 0 0 5.794 5.402c3.11-.109 5.549-2.685 5.441-5.795zm19.989-1.915c-.38-3.087-3.159-5.294-6.248-4.913a5.67 5.67 0 0 0-4.91 6.285 5.601 5.601 0 0 0 6.241 4.876c3.089-.379 5.294-3.158 4.916-6.248zm19.1-2.836c-.488-3.074-3.341-5.181-6.415-4.695s-5.169 3.418-4.687 6.454c.486 3.073 3.373 5.135 6.408 4.656 3.074-.487 5.183-3.341 4.695-6.415zm19.554-4.559c-.754-3.02-3.781-4.87-6.8-4.118s-4.851 3.855-4.108 6.838c.752 3.019 3.808 4.822 6.79 4.08 3.019-.753 4.87-3.781 4.118-6.8zm18.978-5.692c-.96-2.96-4.11-4.595-7.069-3.634s-4.57 4.185-3.623 7.107a5.603 5.603 0 0 0 7.059 3.595c2.96-.962 4.595-4.11 3.632-7.069zm18.354-6.786c-1.116-2.905-4.346-4.374-7.25-3.259s-4.346 4.418-3.245 7.287a5.603 5.603 0 0 0 7.236 3.222c2.906-1.115 4.373-4.345 3.259-7.25zm18.05-8.218c-1.314-2.82-4.639-4.059-7.46-2.745s-4.025 4.71-2.728 7.495a5.603 5.603 0 0 0 7.444 2.709c2.82-1.314 4.06-4.64 2.744-7.459zm17.452-9.378c-1.509-2.723-4.913-3.727-7.632-2.219s-3.689 4.98-2.199 7.668a5.6 5.6 0 0 0 7.614 2.183c2.723-1.508 3.726-4.911 2.217-7.631zm16.947-10.756c-1.74-2.579-5.217-3.284-7.798-1.543s-3.239 5.281-1.521 7.83a5.6 5.6 0 0 0 7.775 1.51c2.58-1.739 3.284-5.216 1.544-7.796zm15.75-11.195c-1.829-2.519-5.327-3.1-7.846-1.27a5.67 5.67 0 0 0-1.248 7.876 5.602 5.602 0 0 0 7.824 1.24c2.518-1.829 3.099-5.329 1.27-7.846zm15.235-12.672c-2.001-2.384-5.533-2.719-7.916-.72s-2.67 5.592-.695 7.946a5.602 5.602 0 0 0 7.891.69c2.384-2 2.72-5.531.72-7.916zm14.476-13.924c-2.2-2.201-5.749-2.227-7.947-.029a5.67 5.67 0 0 0 0 7.976 5.601 5.601 0 0 0 7.92 0c2.2-2.201 2.229-5.747.028-7.947zm13.401-14.591c-2.349-2.041-5.89-1.821-7.931.527s-1.763 5.941.556 7.956c2.347 2.043 5.885 1.766 7.903-.551 2.04-2.349 1.821-5.89-.528-7.933zm12.413-15.439c-2.485-1.873-6.001-1.406-7.874 1.08a5.67 5.67 0 0 0 1.109 7.897 5.603 5.603 0 0 0 7.845-1.102c1.872-2.485 1.406-6.002-1.08-7.875zm11.285-15.982c-2.58-1.74-6.067-1.09-7.808 1.49a5.67 5.67 0 0 0 1.521 7.829 5.602 5.602 0 0 0 7.776-1.511c1.74-2.579 1.089-6.067-1.49-7.808zm10.241-16.983c-2.695-1.555-6.129-.664-7.684 2.031a5.67 5.67 0 0 0 2.064 7.704 5.601 5.601 0 0 0 7.651-2.049c1.555-2.696.663-6.13-2.031-7.686zm9.075-17.613c-2.798-1.363-6.16-.234-7.524 2.563a5.67 5.67 0 0 0 2.596 7.541 5.602 5.602 0 0 0 7.49-2.579c1.362-2.796.234-6.16-2.562-7.525zm7.899-18.168c-2.885-1.165-6.163.196-7.327 3.081s.268 6.19 3.116 7.341a5.601 5.601 0 0 0 7.291-3.094c1.166-2.886-.195-6.162-3.08-7.329zm6.656-18.41c-2.941-1.014-6.143.518-7.155 3.459s.59 6.169 3.497 7.17c2.941 1.013 6.117-.567 7.119-3.474 1.013-2.941-.518-6.142-3.461-7.155zm5.369-19.081c-3.005-.805-6.091.945-6.896 3.95a5.67 5.67 0 0 0 3.987 6.908 5.604 5.604 0 0 0 6.86-3.96c.805-3.006-.944-6.092-3.951-6.897zm4.033-19.652c-3.064-.54-5.986 1.473-6.528 4.536s1.549 6 4.575 6.534a5.603 5.603 0 0 0 6.489-4.543c.54-3.065-1.472-5.988-4.536-6.527zm2.836-19.368c-3.087-.379-5.901 1.784-6.28 4.873s1.86 5.91 4.911 6.285c3.087.38 5.866-1.827 6.241-4.876.38-3.089-1.784-5.901-4.872-6.281zm1.686-19.074c-3.106-.312-5.881 1.921-6.192 5.029s1.999 5.889 5.069 6.196a5.623 5.623 0 0 0 6.153-5.034c.311-3.108-1.921-5.881-5.029-6.191zm-.023-20.25c-3.111 0-5.639 2.489-5.639 5.601a5.67 5.67 0 0 0 5.639 5.639 5.601 5.601 0 0 0 5.601-5.6c0-3.113-2.489-5.64-5.601-5.64zm-1.322-20.244c-3.109.311-5.384 3.05-5.072 6.158s3.128 5.376 6.196 5.069a5.624 5.624 0 0 0 5.034-6.152c-.311-3.109-3.051-5.384-6.158-5.074zm-2.191-18.991c-3.089.379-5.294 3.158-4.916 6.246s3.236 5.285 6.286 4.91a5.602 5.602 0 0 0 4.876-6.241c-.379-3.089-3.158-5.295-6.246-4.915zm-3.904-19.695c-3.044.647-4.999 3.608-4.352 6.651s3.685 4.983 6.69 4.344a5.601 5.601 0 0 0 4.314-6.642c-.646-3.044-3.607-4.999-6.651-4.353zm-4.923-18.939c-3.005.806-4.803 3.865-3.997 6.87s3.939 4.784 6.906 3.989a5.602 5.602 0 0 0 3.961-6.86c-.805-3.006-3.864-4.804-6.87-3.999zm-6.36-18.776c-2.941 1.012-4.523 4.19-3.509 7.132s4.264 4.498 7.169 3.496c2.942-1.012 4.472-4.214 3.472-7.12-1.013-2.942-4.19-4.521-7.133-3.509zm-7.587-18.295c-2.864 1.215-4.219 4.494-3.003 7.359s4.566 4.189 7.395 2.988a5.602 5.602 0 0 0 2.967-7.344c-1.216-2.865-4.495-4.219-7.36-3.002zm-8.808-17.76c-2.773 1.413-3.895 4.777-2.481 7.55s4.847 3.86 7.585 2.465a5.602 5.602 0 0 0 2.447-7.534c-1.413-2.771-4.779-3.895-7.551-2.481zm-9.798-16.959c-2.694 1.555-3.639 4.975-2.084 7.67s5.045 3.601 7.705 2.064a5.601 5.601 0 0 0 2.05-7.651c-1.556-2.695-4.975-3.639-7.671-2.082zm-11.097-16.414c-2.58 1.74-3.284 5.217-1.544 7.798s5.283 3.24 7.83 1.521a5.603 5.603 0 0 0 1.511-7.775c-1.74-2.58-5.217-3.284-7.798-1.544zm-12.429-15.781c-2.419 1.959-2.816 5.485-.857 7.903a5.67 5.67 0 0 0 7.931.835 5.603 5.603 0 0 0 .829-7.879c-1.959-2.419-5.484-2.816-7.903-.859zm-13.197-14.785c-2.275 2.122-2.426 5.666-.305 7.942s5.724 2.374 7.971.279a5.603 5.603 0 0 0 .278-7.916c-2.122-2.276-5.668-2.428-7.944-.305zm-13.645-13.673c-2.199 2.2-2.227 5.747-.026 7.949s5.804 2.173 7.976 0a5.602 5.602 0 0 0 0-7.921c-2.201-2.2-5.749-2.229-7.95-.028zm-15.286-13.006c-2.001 2.384-1.719 5.92.665 7.92a5.67 5.67 0 0 0 7.946-.695 5.602 5.602 0 0 0-.691-7.89c-2.383-2-5.92-1.719-7.92.665zM501.83 90.416c-1.829 2.516-1.301 6.025 1.216 7.855s6.071 1.237 7.877-1.249a5.604 5.604 0 0 0-1.239-7.824c-2.519-1.827-6.026-1.301-7.855 1.217zm-16.624-10.794c-1.649 2.639-.877 6.102 1.761 7.751s6.142.811 7.772-1.795a5.602 5.602 0 0 0-1.783-7.717c-2.639-1.649-6.103-.876-7.751 1.761zm-17.295-9.664c-1.46 2.747-.449 6.149 2.299 7.609s6.184.381 7.627-2.331a5.603 5.603 0 0 0-2.316-7.575c-2.748-1.461-6.149-.45-7.61 2.298zm-17.656-8.449c-1.315 2.82-.126 6.164 2.692 7.48s6.196.056 7.495-2.729a5.604 5.604 0 0 0-2.707-7.444c-2.821-1.315-6.165-.128-7.48 2.692zm-18.442-7.255c-1.114 2.904.303 6.158 3.209 7.273s6.185-.375 7.286-3.245a5.603 5.603 0 0 0-3.221-7.235c-2.906-1.116-6.158.303-7.274 3.207zm-18.891-6.003c-.91 2.976.731 6.121 3.707 7.031s6.144-.806 7.043-3.745a5.604 5.604 0 0 0-3.719-6.994c-2.976-.91-6.123.732-7.031 3.707zM393.4 43.57c-.647 3.044 1.262 6.034 4.305 6.681s6.051-1.339 6.69-4.344a5.604 5.604 0 0 0-4.315-6.644c-3.043-.648-6.034 1.263-6.68 4.306zm-19.279-3.424c-.486 3.074 1.577 5.96 4.651 6.447s5.971-1.654 6.452-4.689a5.604 5.604 0 0 0-4.658-6.408c-3.072-.487-5.959 1.575-6.446 4.649zm-19.691-2.092c-.271 3.099 1.989 5.835 5.087 6.106s5.844-2.066 6.111-5.128a5.602 5.602 0 0 0-5.091-6.067c-3.1-.271-5.835 1.989-6.108 5.089zm-19.549-.876c-.109 3.109 2.291 5.722 5.402 5.831s5.725-2.369 5.832-5.44a5.602 5.602 0 0 0-5.402-5.793c-3.11-.109-5.724 2.29-5.832 5.401zm-19.817.546c.109 3.11 2.685 5.549 5.795 5.44s5.546-2.763 5.44-5.832a5.605 5.605 0 0 0-5.794-5.403c-3.109.109-5.55 2.685-5.441 5.795zm-19.99 1.956c.379 3.089 3.159 5.295 6.246 4.915s5.286-3.235 4.911-6.285a5.604 5.604 0 0 0-6.243-4.878c-3.087.38-5.294 3.159-4.915 6.247zm-19.09 2.898c.486 3.072 3.341 5.181 6.414 4.694s5.17-3.418 4.689-6.452a5.602 5.602 0 0 0-6.408-4.656c-3.074.486-5.183 3.341-4.695 6.415zm-19.543 4.606c.752 3.019 3.78 4.869 6.799 4.117s4.851-3.855 4.108-6.837a5.602 5.602 0 0 0-6.789-4.079c-3.02.753-4.87 3.78-4.118 6.799zm-18.965 5.726c.961 2.959 4.111 4.595 7.07 3.633s4.57-4.184 3.621-7.105a5.605 5.605 0 0 0-7.059-3.597c-2.959.961-4.594 4.111-3.632 7.07zm-18.341 6.817c1.115 2.905 4.345 4.374 7.25 3.259s4.345-4.418 3.244-7.286a5.601 5.601 0 0 0-7.236-3.222c-2.905 1.115-4.373 4.345-3.257 7.25zm-18.032 8.258c1.315 2.82 4.639 4.059 7.46 2.744s4.026-4.71 2.727-7.495a5.602 5.602 0 0 0-7.444-2.709c-2.82 1.315-4.059 4.639-2.744 7.46zm-17.429 9.428c1.509 2.722 4.911 3.726 7.632 2.217a5.67 5.67 0 0 0 2.199-7.666 5.602 5.602 0 0 0-7.614-2.184c-2.721 1.509-3.726 4.911-2.218 7.633zM166.75 88.211c1.74 2.58 5.218 3.284 7.798 1.544s3.24-5.281 1.521-7.83a5.602 5.602 0 0 0-7.775-1.511c-2.58 1.741-3.284 5.217-1.544 7.798zm-16.009 11.678c1.916 2.452 5.434 2.913 7.886.997s2.864-5.495.972-7.918a5.604 5.604 0 0 0-7.863-.966c-2.451 1.916-2.911 5.435-.996 7.886zm-14.928 12.255c2 2.384 5.532 2.72 7.916.719s2.67-5.591.695-7.945a5.601 5.601 0 0 0-7.89-.69c-2.385 2-2.721 5.533-.721 7.916zm-14.44 13.955c2.2 2.2 5.747 2.229 7.948.028s2.173-5.803 0-7.976a5.602 5.602 0 0 0-7.921 0c-2.2 2.201-2.228 5.747-.027 7.949zM108 140.732c2.348 2.043 5.889 1.821 7.931-.526a5.67 5.67 0 0 0-.557-7.956 5.6 5.6 0 0 0-7.901.553c-2.041 2.347-1.821 5.89.527 7.93zm-12.372 15.466c2.485 1.873 6.002 1.406 7.875-1.079s1.344-6.05-1.11-7.899a5.604 5.604 0 0 0-7.844 1.102c-1.872 2.485-1.406 6.001 1.079 7.875zM84.371 172.2c2.58 1.739 6.068 1.09 7.808-1.49s1.025-6.111-1.522-7.83a5.602 5.602 0 0 0-7.775 1.512c-1.74 2.579-1.09 6.066 1.49 7.808zm-10.194 17.001c2.695 1.556 6.129.665 7.685-2.03s.597-6.168-2.064-7.704a5.602 5.602 0 0 0-7.651 2.05c-1.555 2.695-.664 6.129 2.031 7.684zm-9.047 17.644c2.796 1.363 6.16.235 7.524-2.562a5.67 5.67 0 0 0-2.597-7.541 5.601 5.601 0 0 0-7.489 2.579c-1.364 2.796-.235 6.16 2.561 7.525zm-7.844 18.188c2.885 1.165 6.162-.195 7.328-3.08s-.267-6.192-3.117-7.344a5.604 5.604 0 0 0-7.291 3.096c-1.165 2.885.196 6.161 3.081 7.327zm-6.61 18.682c2.96.961 6.133-.625 7.095-3.584s-.699-6.158-3.621-7.108a5.602 5.602 0 0 0-7.057 3.596c-.962 2.96.624 6.134 3.584 7.095zm-5.328 18.829c3.006.806 6.092-.945 6.898-3.951s-1.02-6.111-3.988-6.906a5.603 5.603 0 0 0-6.86 3.961c-.806 3.005.945 6.091 3.95 6.896zm-3.99 19.67c3.065.541 5.986-1.471 6.526-4.536a5.67 5.67 0 0 0-4.575-6.533 5.6 5.6 0 0 0-6.488 4.543c-.541 3.064 1.472 5.986 4.536 6.526zm-2.718 19.637c3.095.326 5.869-1.886 6.195-4.98s-1.963-5.877-5.02-6.199a5.602 5.602 0 0 0-6.155 4.985c-.326 3.094 1.886 5.869 4.98 6.194zm-1.723 18.817c3.108.31 5.881-1.923 6.192-5.03s-1.999-5.889-5.068-6.196a5.623 5.623 0 0 0-6.153 5.034c-.311 3.108 1.922 5.881 5.029 6.192zm.076 20.249c3.111 0 5.64-2.489 5.64-5.6s-2.567-5.64-5.64-5.64a5.602 5.602 0 0 0-5.601 5.6c0 3.113 2.489 5.64 5.601 5.64zm1.347 20.239c3.107-.311 5.383-3.05 5.072-6.158s-3.127-5.376-6.196-5.069a5.623 5.623 0 0 0-5.033 6.154c.31 3.108 3.049 5.384 6.157 5.072zm2.244 18.973c3.088-.379 5.294-3.158 4.915-6.246s-3.235-5.285-6.285-4.91a5.602 5.602 0 0 0-4.877 6.241c.38 3.089 3.159 5.295 6.247 4.915zm3.953 19.688c3.044-.647 4.999-3.608 4.352-6.651s-3.684-4.983-6.689-4.344a5.6 5.6 0 0 0-4.314 6.642c.647 3.044 3.608 4.999 6.651 4.353zm4.955 18.931c3.006-.806 4.803-3.864 3.999-6.87s-3.94-4.783-6.908-3.988a5.6 5.6 0 0 0-3.96 6.86c.805 3.005 3.864 4.804 6.87 3.998zM55.9 437.51c2.942-1.012 4.522-4.19 3.509-7.131s-4.263-4.498-7.168-3.498c-2.942 1.012-4.473 4.215-3.473 7.12 1.013 2.942 4.189 4.521 7.132 3.509zm7.642 18.293c2.864-1.216 4.219-4.495 3.003-7.36s-4.567-4.189-7.395-2.989a5.604 5.604 0 0 0-2.967 7.345c1.215 2.864 4.495 4.219 7.359 3.004zm8.852 17.738c2.773-1.413 3.895-4.779 2.483-7.551s-4.848-3.86-7.586-2.465a5.603 5.603 0 0 0-2.447 7.534c1.413 2.773 4.778 3.895 7.551 2.483zm9.818 16.933c2.695-1.555 3.64-4.976 2.084-7.67s-5.043-3.601-7.704-2.065a5.602 5.602 0 0 0-2.05 7.651c1.556 2.695 4.976 3.64 7.67 2.084zM93.36 506.87c2.58-1.741 3.284-5.219 1.544-7.798s-5.282-3.24-7.829-1.522a5.602 5.602 0 0 0-1.511 7.776c1.739 2.579 5.217 3.284 7.797 1.544zm12.457 15.756c2.418-1.959 2.817-5.484.858-7.902s-5.544-2.768-7.932-.834a5.602 5.602 0 0 0-.828 7.877c1.959 2.419 5.484 2.817 7.902.859zm13.233 14.754c2.276-2.121 2.427-5.666.305-7.943s-5.724-2.374-7.972-.279a5.603 5.603 0 0 0-.276 7.916c2.122 2.276 5.667 2.429 7.943.305zm14.18 13.844c2.123-2.275 2.026-5.823-.25-7.944a5.67 5.67 0 0 0-7.97.279c-2.123 2.275-1.971 5.82.276 7.917 2.275 2.121 5.822 2.025 7.944-.251zm14.819 12.771c2.001-2.383 1.719-5.92-.665-7.92s-5.971-1.659-7.945.695a5.6 5.6 0 0 0 .69 7.89c2.384 2.001 5.92 1.719 7.92-.665zm15.91 11.835c1.829-2.518 1.301-6.026-1.216-7.855s-6.072-1.238-7.877 1.247a5.602 5.602 0 0 0 1.239 7.824c2.518 1.83 6.026 1.301 7.855-1.216zm16.651 10.753c1.65-2.64.877-6.102-1.761-7.752s-6.143-.811-7.771 1.795a5.604 5.604 0 0 0 1.782 7.719c2.637 1.649 6.101.878 7.75-1.761zm17.321 9.623c1.46-2.748.45-6.149-2.298-7.609s-6.185-.381-7.629 2.332a5.604 5.604 0 0 0 2.316 7.575c2.748 1.461 6.149.45 7.61-2.297zm17.671 8.419c1.316-2.821.127-6.164-2.691-7.479a5.67 5.67 0 0 0-7.495 2.728 5.602 5.602 0 0 0 2.709 7.444c2.82 1.315 6.164.128 7.477-2.692zm18.461 7.21c1.115-2.905-.304-6.158-3.208-7.274s-6.186.376-7.287 3.245a5.603 5.603 0 0 0 3.222 7.236c2.905 1.116 6.157-.303 7.273-3.207zm18.908 5.954c.91-2.974-.731-6.12-3.706-7.031s-6.145.808-7.042 3.746a5.602 5.602 0 0 0 3.718 6.993c2.976.911 6.121-.731 7.031-3.707zm19.541 4.634c.647-3.043-1.262-6.034-4.306-6.68s-6.05 1.338-6.689 4.344a5.605 5.605 0 0 0 4.315 6.644c3.044.646 6.034-1.263 6.68-4.308zm19.26 3.397c.488-3.074-1.576-5.959-4.649-6.446a5.67 5.67 0 0 0-6.452 4.688 5.602 5.602 0 0 0 4.655 6.409c3.074.487 5.96-1.578 6.446-4.65zm19.716 2.035c.271-3.099-1.989-5.835-5.087-6.106s-5.842 2.066-6.111 5.127a5.603 5.603 0 0 0 5.092 6.067c3.099.271 5.835-1.987 6.106-5.089zm19.806.738c.055-3.111-2.39-5.683-5.501-5.736s-5.685 2.469-5.739 5.54a5.601 5.601 0 0 0 5.502 5.697c3.113.055 5.684-2.39 5.738-5.501z" class="F K"/><g fill="#003262"><path d="M407.836 539.134c-2.187-5-5.312-5.313-4.375-12.188-3.281-.781-17.066-1.192-21.562.313-13.98 4.675-19.849 8.438-33.125 8.438-10 0-17.331 1.065-27.187-.625-10.937-1.875-32.151-6.411-37.5-7.812-5.781-.781-13.516 3.204-22.969.313-1.875 10.781-4.687 15.469-9.062 19.219-11.719 14.531-15.625 21.719-9.531 28.594 5.564 6.277 15.625 4.063 26.25 5.625 10.999 1.617 18.327 3.02 25.625 5.313 9.132 2.87 25.494 6.501 37.813 5.938 12.609-.577 28.438-5.625 28.438-5.625 9.688-3.437 16.563-2.812 25.625-2.812 6.05 0 19.739-1.748 26.563-5.312 17.344-9.062 0-29.062-5-39.375m-133.753-27.504c0-3.906-5.625-2.5-8.125-2.5-5.548 0-12.031-2.969-14.375-5.781-2.993-3.589-5.625-11.719-10.625-7.969-7.385 5.537 6.893 8.579 6.719 15-.156 5.781-7.955 12.667-9.687 17.969-2.656 8.125-10.312 27.5-5.469 30 5.529 2.853 18.594-17.969 20.781-21.563 2.132-3.502 5.156-22.031 8.281-21.875 2.652.133 12.5 3.288 12.5-3.281m249.063-1.563c12.813-9.375 19.063-21.875 28.75-43.125 6.855-15.036 17.355-23.391 23.438-37.186 12.813-29.062 9.063-37.5 11.25-64.687l2.188-33.751c.339-10.746.313-23.437-1.875-33.75-4.577-21.576-8.712-24.5-13.437-40.312-4.312-14.433-3.125-30.937-14.687-50.937-14.842-25.674-22.187-24.062-27.812-33.437-5.812-9.686-12.055-21.742-20-29.687-10.312-10.312-29.185-18.829-39.687-25.625-10.625-6.875-23.626-19.204-41.875-26.562-19.375-7.812-37.187-7.187-55.625-10.937-16.262-3.308-24.09-6.455-43.437-7.5-23.125-1.25-47.5 7.5-59.375 10.625-12.812 4.688-30.312 3.438-47.812 15-8.815 5.825-13.791 8.184-23.75 16.25-5.791 4.691-24.368 15.643-31.25 20.938-16.25 12.5-20.179 18.251-27.5 26.563-11.562 13.125-12.743 21.429-18.438 28.75-3.429 4.409-10.77 14.681-18.75 30.313-5.429 10.632-12.919 20.854-17.5 34.063-5.87 16.925-8.437 35.629-8.437 52.813 0 12.5-3.125 21.25-3.125 33.75 0 16.877 3.725 34.02 8.125 46.563 2.644 7.536 2.261 20.036 5.313 27.813 3.812 9.715 11.795 24.406 14.688 36.875 2.5 10.625 22.813 28.125 25.938 34.063 2.813 10.938 8.75 20 16.875 26.875 10.07 8.521 19.691 15.919 25.938 21.875 13.821 13.181 23.776 22.335 38.125 24.688 19.063 3.125 17.759-14.208 21.563-28.282 1.563-5.781 3.281-7.5 7.344-13.75-7.187-6.875-21.687-24.852-33.281-30.156-10.305-4.714-12.426-10.423-21.25-22.187-5.73-7.694-12.67-17.364-17.812-26.562-6.679-11.945-15.206-23.426-18.437-32.186-4.189-11.353-1.984-11.668-4.375-27.814-1.25-8.437-7.5-25.937-7.5-41.25 0-10.625.625-17.5.625-28.125 0-18.831 2.813-31.25 7.5-41.562 6.275-13.805 16.25-28.437 24.063-45 6.498-13.774 16.25-16.562 29.063-38.437 4.555-7.779 18.384-12.269 28.75-19.375 7.174-4.918 18.831-14.756 26.563-18.437 7.594-3.616 12.48-4.991 20.938-8.125 6.952-2.576 13.125-6.25 25.625-8.124 5.249-.789 10.124-.286 15.625-.314 5.853-.029 12.371-.937 21.875-.937 27.084 0 50.313 5 66.25 10.938 8.054 3 13.678 8.449 22.188 12.813 12.188 6.25 35.313 14.375 51.563 31.875 9.587 10.325 16.866 31.142 26.25 43.125 5.442 7.022 11.563 13.125 14.063 24.063 2.449 10.711 2.629 21.165 5.625 31.875 3.364 12.026 10.938 22.25 10.938 34.375 0 19.688-.625 16.25-.625 35.939 0 24.351-5.685 43.543-15.625 60.938-6.25 10.936-7.471 18.059-12.5 26.25-5.163 8.408-11.934 15.7-19.375 21.874-7.483 6.209-25.625 20.938-36.25 34.375-6.784 8.58-11.094 13.438-22.5 16.25 5.313 4.531 5.264 4.144 5.781 8.281 2.188 17.5 4.375 30.938 8.594 33.594 4.861 3.061 10.027 4.872 21.563 3.125 10.313-1.562 18.75-9.375 30.938-26.875 7.611-10.931 19.089-14.516 30-22.5"/><path d="M424.711 495.227c-3.274-3.6-10.781 9.219-14.844 10.781-2.445.941-18.829-.621-19.062 3.125-.469 7.5 8.914 3.09 14.375 4.375 2.656.625 3.281 2.969 2.656 6.875-.325 2.03-.176 3.74 0 5.625.39 4.179 5 10.938 8.438 16.407 2.8 4.455 6.229 11.157 8.75 15.781 1.875 3.438 8.125 1.563 6.563-4.062-1.562-7.187-1.875-13.165-2.344-17.188-.391-3.321-1.875-10.352-1.875-11.68 0-7.93-11.25-8.985-11.25-16.914 0-4.219 13.281-7.969 8.594-13.125m-31.563 22.344c0 2.031.313 3.281.625 4.531 6.719-.781 10.313 2.344 10-3.281-.115-2.08-9.141-1.016-10.625-1.25m35.625-15.625c1.406 1.875 2.344 2.656 3.906 5.156-4.219 1.563-9.844 5.937-11.719 2.969-.77-1.218 4.452-4.61 7.813-8.125m-155.625 18.125c-1.25-.312-1.211-.156-2.5-.156-2.579 0-5.235-.781-7.812-.781-.937 0-.961 2.874-.781 3.594.469 1.875 3.438 1.875 10.625.938.82-1.134.469-2.149.469-3.594m-40.782-13.595c1.406 1.719 5.39 6.796 7.969 6.562.428-.039 2.656-2.071 2.5-2.969-.363-2.077-6.641-5.156-8.048-7.344-.469.897-1.64 2.5-2.421 3.75"/></g><g class="H"><path d="m274.496 569.86 8.423 1.944.155-.676c-1.031-.511-1.126-.808-.899-1.795l5.294-22.929c.228-.988.507-1.251 1.595-1.22l.156-.675-5.954-1.465-6.194 3.441-.256 1.255.676.156 3.493-.227-4.685 20.308c-.229.987-.548 1.188-1.647 1.207l-.156.676m-12.458-18.15c-.605 2.106.589 4.257 2.724 4.87s4.257-.59 4.861-2.695-.553-4.277-2.687-4.891-4.295.611-4.897 2.716"/><path d="M307.429 551.605c4.481.551 6.243 1.717 5.941 4.166s-2.291 3.158-6.772 2.607-6.24-1.718-5.94-4.167 2.291-3.156 6.771-2.606zm-1.408 11.039c4.95.609 7.271 2.374 6.92 5.239s-3.033 4.017-7.983 3.41-7.271-2.374-6.919-5.239 3.031-4.018 7.981-3.41zm7.335-1.161c3.072-.469 5.354-1.829 5.757-5.111.774-6.304-6.549-8.261-11.394-8.855-5.001-.615-12.006-.416-12.799 6.044-.373 3.021 1.788 5.244 4.479 6.155l-.012.104c-3.931.575-6.63 1.883-7.161 6.207-.743 6.044 6.321 8.815 11.688 9.474 5.106.626 13.863.38 14.733-6.705.486-3.96-1.791-6.09-5.296-7.26l.012-.105m27.531 1.435c3.936-.069 6.699 1.772 6.75 4.711s-2.645 4.876-6.58 4.946-6.7-1.774-6.751-4.712 2.645-4.876 6.581-4.945zm12.074-12.075c-.154.16-.574.22-.994.227-.577.01-1.479-.551-3.064-1.153-1.534-.605-3.8-1.142-7.055-1.086-8.449.148-14.586 6.451-14.439 14.9.144 8.24 5.275 13.505 13.62 13.359 5.668-.099 12.696-3.475 12.582-10.037-.1-5.668-5.452-8.567-10.596-8.477-3.725.065-6.437 1.058-9.663 2.846.116-5.409 3.27-8.195 8.571-8.286 1.679-.03 5.994.525 7.447 2.6.267.31.326.676.438.989l.632.199 2.945-5.72-.426-.36m19.472-1.04c4.446-.784 6.471-.181 6.9 2.248s-1.269 3.688-5.715 4.471-6.47.182-6.899-2.247 1.27-3.687 5.714-4.473zm1.881 10.967c4.911-.865 7.647.144 8.149 2.988s-1.725 4.728-6.636 5.594-7.646-.144-8.149-2.986 1.725-4.728 6.636-5.595zm6.675-3.255c2.8-1.346 4.586-3.314 4.011-6.57-1.103-6.255-8.676-5.985-13.484-5.139-4.964.876-11.604 3.112-10.474 9.523.529 2.998 3.244 4.49 6.084 4.576l.017.104c-3.59 1.699-5.79 3.739-5.034 8.03 1.058 5.995 8.623 6.58 13.947 5.642 5.065-.894 13.368-3.689 12.127-10.72-.692-3.928-3.493-5.3-7.187-5.394l-.019-.104.01.051" class="I"/><path d="M394.516 554.99a3.91 3.91 0 0 0 4.89 2.688c2.134-.614 3.299-2.756 2.695-4.862s-2.736-3.335-4.87-2.724-3.319 2.793-2.715 4.898m99.147-368.596.748-.544c-.424-.582-.445-1.137.054-1.5l13.806-10.031-4.009 22.293c-.125.789-.265 1.209-.474 1.359-.249.181-.555.024-.766-.267l-.749.544 4.895 6.736.749-.544c-.303-.415-.325-.971.175-1.334l18.879-13.717c.5-.363 1.021-.17 1.324.246l.747-.544-4.561-6.279-.75.544c.515.706.536 1.262.039 1.625l-13.225 9.608 3.721-20.939c.159-1.005.31-1.496.56-1.678.291-.211.536-.136.658.031l.747-.545-5.165-7.11-.749.544c.301.415.325.97-.175 1.332l-18.88 13.717c-.5.363-1.021.17-1.322-.246l-.748.544 4.471 6.155M575.17 338.6l-.049-.924c-.72.038-1.259-.45-1.335-1.886l-1.226-23.409-.924.049c.024.462-.26.94-.876.973l-23.305 1.221c-.615.033-.947-.414-.972-.875l-.924.049 1.254 23.92c.054 1.026-.011 1.751-1.038 1.805l.048.924 7.188-.376-.049-.925c-.821.044-1.372-.647-1.425-1.674l-.9-17.146 7.085-.371.528 10.061c.069 1.335-.196 2.171-1.736 2.252l.049.925 8.008-.42-.049-.925c-1.539.081-1.788-.729-1.857-2.064l-.528-10.061 6.365-.334.872 16.631c.075 1.439-.309 1.974-1.028 2.011l.049.923 6.776-.354M381.763 122.019l1.374-7.064-.909-.176c-.156.808-.96 1.174-1.97.979l-16.752-3.256 3.904-20.084c.118-.605.631-.82 1.589-.634l.178-.908-8.68-1.687-.175.909c1.06.206 1.454.597 1.336 1.202l-4.452 22.909c-.118.605-.631.819-1.691.614l-.175.908 24.017 4.669c1.009.196 1.696.435 1.5 1.444l.908.176M216.819 531.911c1.16-1.857.606-4.255-1.276-5.431s-4.255-.607-5.415 1.25-.649 4.265 1.234 5.441a3.94 3.94 0 0 0 5.458-1.26m-30.341-9.752-6.591-5.338c-.48-.389-.845-1.081-.262-1.8l-.719-.582-4.529 5.592.719.582c.583-.72 1.336-.506 1.815-.119l17.738 14.364c.479.388.844 1.081.261 1.8l.72.582 4.528-5.594-.719-.581c-.583.719-1.335.506-1.814.117l-6.593-5.337 12.875-15.899c.389-.48.941-.429 1.301-.137l.583-.72-6.153-4.981-.581.719c.519.421.684.952.296 1.431l-12.875 15.9m-59.214-59.514.53.759c.59-.413 1.305-.286 2.13.893l13.445 19.201.759-.531c-.266-.379-.279-.935.226-1.289l19.116-13.385c.506-.354 1.024-.151 1.29.226l.757-.53-13.74-19.623c-.589-.841-.917-1.49-.076-2.08l-.53-.757-5.895 4.129.53.756c.675-.471 1.509-.178 2.097.665l9.847 14.064-5.81 4.069-5.779-8.253c-.768-1.094-.986-1.945.278-2.83l-.531-.759-6.569 4.6.53.759c1.264-.885 1.904-.329 2.671.766l5.779 8.251-5.222 3.656-9.553-13.643c-.825-1.179-.782-1.836-.194-2.249l-.53-.757-5.558 3.891m8.405-15.233a3.91 3.91 0 0 0 1.424-5.395c-1.11-1.922-3.471-2.534-5.369-1.439s-2.575 3.461-1.465 5.385 3.514 2.544 5.41 1.449m-21.734-10.393.87-.316c-.335-.918-.203-1.459.377-1.67l14.249-5.185c7.584-2.76 8.091-7.979 4.979-16.529s-6.854-12.219-14.437-9.459l-14.25 5.186c-.579.211-1.027-.118-1.291-.842l-.87.316 2.814 7.729.869-.316c-.37-1.015-.237-1.555.342-1.766l14.491-5.275c4.058-1.476 6.315.821 8.109 5.748s1.539 8.137-2.517 9.614l-14.491 5.274c-.58.211-1.028-.118-1.256-.746l-.87.316 2.883 7.923m12.794-49.634-.909.176c.138.706-.076 1.219-.683 1.336l-16.752 3.257 13.054-18.509c.447-.664.751-.984 1.003-1.034.303-.059.513.215.582.567l.908-.176-1.589-8.174-.908.176c.098.505-.116 1.017-.722 1.135l-22.909 4.454c-.605.116-.996-.279-1.094-.783l-.908.176 1.481 7.62.908-.178c-.166-.858.048-1.37.653-1.488l16.046-3.12-12.222 17.405c-.568.844-.913 1.225-1.216 1.284-.353.069-.544-.104-.584-.305l-.908.175 1.677 8.63.908-.178c-.098-.504.117-1.017.722-1.135l22.909-4.454c.605-.116.996.279 1.094.783l.909-.176-1.451-7.467m-5.983-36.868-.92.096c.092.87-.166 1.363-.78 1.426l-23.209 2.44c-.613.064-.968-.364-1.06-1.233l-.92.096.892 8.486.921-.096c-.092-.87.166-1.361.78-1.426l23.21-2.439c.614-.065.968.363 1.06 1.231l.92-.096-.892-8.486M92.145 325.67l.924-.049c-.049-.924.181-1.45.746-1.48s2.099.765 3.938 1.493l14.248 5.688-13.772 7.31c-1.651.91-2.796 1.64-3.516 1.678-.667.034-.902-.52-.926-.981l-.923.049.481 9.189.924-.05c.249-1.145.527-1.725 1.227-2.123l19.587-10.291 2.958-1.494c.257-.014.622.07.744.424l.923-.049-.411-7.853-.924.048c-.192.267-.335.481-.694.5-.308.016-1.205-.4-2.572-.946l-20.444-8.039c-.632-.276-1.991-.669-2.064-2.054l-.924.049.471 8.983m2.87-41.962-.113.919c.714.087 1.162.66.986 2.089l-2.856 23.265.918.113c.057-.459.419-.88 1.031-.805l23.163 2.844c.612.076.863.572.806 1.031l.918.114 2.919-23.776c.126-1.02.315-1.723 1.335-1.596l.113-.919-7.143-.877-.113.919c.816.1 1.239.877 1.113 1.897l-2.092 17.041-7.041-.865 1.228-10c.162-1.326.569-2.105 2.1-1.918l.112-.919-7.959-.976-.113.919c1.531.188 1.634 1.029 1.472 2.355l-1.228 10-6.327-.776 2.03-16.531c.175-1.428.646-1.889 1.36-1.801l.113-.918-6.734-.827"/><path d="m104.262 268.542 2.302-8.589c1.277-4.767 3.238-5.731 5.323-5.173s3.302 2.375 2.024 7.141l-2.301 8.59-7.348-1.97zm-5.279 6.196c.266-.994.684-1.36 1.28-1.2l22.542 6.04c.596.159.774.685.508 1.679l.894.239 2.302-8.589-.894-.24c-.306 1.142-.697 1.41-1.293 1.25l-8.838-2.368 1.902-7.1 9.209-3.386c.829-.31 1.306-.502 1.654-.409.298.079.412.642.254 1.239l.894.239 2.488-9.285-.894-.239c-.146.546-.382 1.228-1.148 1.501l-11.204 4.076c.376-4.582-1.113-7.961-5.433-9.119-5.66-1.516-8.863 2.095-10.566 8.451l-4.549 16.98.893.24" class="I"/><path d="M133.688 248.88c-.113-.231-.179-.553-.062-.783.7-1.374 3.97-2.13 7.564-9.184 2.521-4.946 4.814-13.296-1.506-16.517-10.993-5.6-13.689 16.449-19.505 13.485-2.016-1.027-1.091-4.767.286-7.47 1.797-3.526 5.269-6.604 7.179-6.842a2.68 2.68 0 0 1 1.24.171l.416-.365-4.115-6.077-.646.364c.089.275.041.598-.192 1.056-.793 1.556-4.647 3.459-7.891 9.824-3.874 7.604-1.87 13.067 1.933 15.004 11.221 5.717 13.687-16.447 19.275-13.601 2.795 1.424.567 7.04-.459 9.055-1.47 2.885-5.2 6.696-7.179 6.841-.299.021-.551-.05-.826-.19l-.463.341 4.259 5.344.692-.455m21.74-33.29-.766-.517c-.489.725-1.002.936-1.515.59L133.8 202.615c-.512-.345-.509-.901-.02-1.626l-.768-.517-4.771 7.075.768.517c.488-.725 1.002-.935 1.514-.591l19.347 13.05c.511.345.509.901.02 1.625l.766.517 4.771-7.074m-4.326-30.939 5.338-6.591c.387-.48 1.08-.845 1.8-.262l.583-.719-5.593-4.529-.584.719c.72.582.506 1.335.118 1.815L138.4 192.821c-.387.48-1.081.845-1.8.262l-.583.719 5.594 4.53.581-.72c-.719-.582-.505-1.336-.118-1.815l5.339-6.591 15.899 12.875c.479.389.428.941.136 1.301l.719.582 4.982-6.152-.719-.582c-.421.52-.952.685-1.431.298L151.1 184.653m6.23-14.271c.481-.464 1.761-.914 2.558-.755l16.779 3.092 6.355 6.581c.429.444.31.986-.134 1.416l.643.665 5.843-5.642-.643-.665c-.518.5-1.065.6-1.493.156l-6.356-6.582-2.32-14.981c-.458-2.916-.303-3.495.549-4.318l-.644-.665-6.47 6.249.641.665c.407-.391 1.071-.889 1.393-.556.285.295.313.841.476 1.826L175.929 167c-3.294-.821-10.725-2.005-11.296-2.598-.464-.48-.055-1.019.389-1.447l-.643-.665-7.691 7.428.643.665m32.732-13.126c1.407 1.678 3.859 1.892 5.56.465s1.893-3.86.484-5.537-3.855-1.934-5.556-.506-1.896 3.901-.488 5.579"/><path d="M211.63 128.302c4.446-2.779 11.029-3.013 14.106 1.914s-.018 10.74-4.464 13.518-11.029 3.013-14.106-1.914.018-10.739 4.464-13.518zm-2.506-4.01c-6.364 3.976-11.738 12.546-6.752 20.524s15.044 6.905 21.408 2.929 11.738-12.548 6.752-20.525-15.042-6.905-21.407-2.928" class="I"/><path d="M265.706 113.631c.603 2.105 2.756 3.299 4.89 2.686s3.299-2.755 2.695-4.861-2.736-3.335-4.87-2.724-3.319 2.794-2.715 4.899m45.669-6.74-.655.508c.123.138.26.379.289.582.265 1.884-5.281 4.895-9.556 5.495-5.752.809-11.155-1.806-11.978-7.66s3.65-9.856 9.401-10.665c3.36-.472 8.846.523 9.366 2.006.086.247.166.444.195.646l.559.286 3.105-6.717-.85-.504c-.124.225-.314.719-.62.763-.254.035-1.62-.447-3.793-.765s-5.168-.571-8.577-.092c-8.603 1.21-15.631 6.972-14.365 15.982s9.611 12.612 18.214 11.404c6.566-.923 11.702-5.745 12.466-5.852.204-.029.364 0 .566-.029l.351-.464-4.119-4.924"/><path d="m335.05 94.971 3.981 9.705-9.144-.319 5.163-9.386zm-8.457 19.764.033-.925c-.514-.018-.967-.291-.956-.599s.236-.866.567-1.524l1.976-3.582 12.536.438 1.819 3.87c.288.575.375 1.041.365 1.35-.015.41-.587.596-.844.587l-.033.925 9.041.316.033-.925c-.76-.336-1.314-.664-1.649-1.395l-9.956-21.281c-.431-.89-.67-1.413-.651-1.926.024-.719.647-.904 1.114-.99l.033-.924-8.683-.304-.033.925c.511.12 1.119.399 1.095 1.066-.017.514-.509 1.32-1.001 2.178l-10.202 19.651c-.496.96-.989 1.816-1.866 1.889l-.033.925 7.295.255" class="I"/><path d="m394.733 124.739.241-.894c-.845-.226-1.212-.644-1.053-1.24l6.04-22.541c.16-.596.686-.774 1.53-.549l.24-.894-8.243-2.209-.239.895c.842.225 1.21.643 1.05 1.24l-6.04 22.541c-.159.596-.685.774-1.529.548l-.241.894 8.243 2.209m42.079-13.828-.851-.362c-.281.663-.955.935-2.28.372l-21.955-9.319-.361.851c.804.341 1.11.806.869 1.375l-9.119 21.481c-.241.567-.788.67-1.591.329l-.361.851 8.043 3.415.361-.851c-.804-.342-1.299-.886-1.056-1.455l3.896-9.179 9.274 3.936c1.229.523 1.866 1.126 1.264 2.546l.851.362 2.894-6.814-.853-.361c-.361.851-1.199.719-2.429.197l-9.274-3.936 2.49-5.869 15.331 6.509c1.324.561 1.636 1.141 1.354 1.804l.853.361 2.651-6.245"/><path d="m568.436 356.247-.62 8.873c-.344 4.921-2.086 6.243-4.24 6.092s-3.694-1.702-3.349-6.624l.62-8.871 7.589.53zm4-7.089c-.071 1.025-.411 1.466-1.028 1.424l-23.28-1.629c-.615-.043-.89-.526-.819-1.551l-.924-.065-.62 8.871.924.065c.082-1.18.415-1.517 1.03-1.474l9.129.637-.514 7.334-8.394 5.08c-.754.462-1.186.741-1.545.716-.308-.021-.528-.553-.485-1.168l-.924-.065-.67 9.59.923.064c.041-.564.143-1.279.84-1.692l10.22-6.139c.505 4.569 2.612 7.603 7.072 7.914 5.846.409 8.301-3.748 8.76-10.311l1.227-17.536-.924-.065" class="I"/><path d="m497.748 513.059.678-.631c-.49-.526-.466-1.254.587-2.235l17.142-15.985-.631-.678c-.339.316-.888.405-1.308-.045l-15.915-17.067c-.421-.451-.294-.992.045-1.308l-.631-.678-17.519 16.336c-.751.702-1.349 1.117-2.049.365l-.676.631 4.906 5.264.676-.631c-.56-.601-.384-1.469.368-2.169l12.556-11.709 4.837 5.188-7.368 6.87c-.978.912-1.79 1.248-2.841.12l-.676.631 5.469 5.864.676-.631c-1.051-1.128-.59-1.839.387-2.75l7.368-6.871 4.348 4.661-12.18 11.359c-1.053.981-1.709 1.033-2.2.505l-.676.631 4.626 4.962m-7.668 3.386c-.533.404-1.859.694-2.63.439l-16.276-5.114-5.506-7.308c-.371-.493-.186-1.017.305-1.389l-.556-.739-6.486 4.887.558.739c.575-.433 1.129-.465 1.5.029l5.506 7.306.478 15.152c.099 2.951-.125 3.506-1.07 4.217l.558.739 7.184-5.414-.556-.739c-.452.341-1.171.754-1.449.384-.249-.329-.207-.872-.252-1.87l-.176-10.23c3.169 1.217 10.401 3.297 10.896 3.954.401.535-.07 1.019-.564 1.39l.559.74 8.539-6.435-.559-.74m-36.161 10.302c-1.288-1.771-3.719-2.156-5.514-.851s-2.158 3.717-.87 5.49 3.711 2.199 5.507.894a3.94 3.94 0 0 0 .876-5.533m-281.336-25.562-6.494 5.848c-.459.412-.996.275-1.306-.069l-.687.619 5.194 5.769.688-.619c-.344-.382-.424-.934.034-1.346l17.343-15.615c.459-.413.998-.275 1.341.106l.688-.619-5.192-5.768-.689.619c.31.344.39.895-.069 1.308l-7.181 6.466-11.075-12.301 7.181-6.466c.459-.412.998-.275 1.445.223l.688-.62-5.298-5.882-.687.619c.31.344.39.895-.069 1.308l-17.342 15.615c-.459.413-.996.275-1.306-.069l-.687.619 5.296 5.882.688-.619c-.447-.496-.526-1.046-.069-1.459l6.494-5.849 11.075 12.301m79.873-401.112-.824.42c.326.641.101 1.332-1.181 1.985l-21.251 10.829.42.824c.779-.396 1.331-.331 1.611.217l10.595 20.794c.279.55.007 1.035-.771 1.431l.42.825 7.786-3.967-.42-.825c-.779.398-1.514.426-1.794-.124l-4.528-8.885 8.976-4.574c1.191-.607 2.064-.706 2.764.668l.825-.42-3.361-6.595-.824.421c.42.824-.22 1.38-1.41 1.986l-8.977 4.575-2.894-5.68 14.84-7.56c1.282-.654 1.926-.52 2.254.12l.825-.42-3.081-6.045m293.637 354.978.447-.809c-.629-.35-.829-1.049-.131-2.308l11.364-20.501-.809-.449c-.225.405-.719.66-1.259.361l-20.411-11.315c-.538-.298-.585-.852-.36-1.256l-.809-.449-11.612 20.95c-.499.9-.937 1.48-1.837.98l-.447.81 6.294 3.489.449-.81c-.72-.398-.82-1.276-.322-2.176l8.322-15.016 6.205 3.44-4.884 8.811c-.648 1.17-1.317 1.74-2.665.991l-.449.809 7.014 3.889.449-.81c-1.349-.748-1.131-1.566-.482-2.735l4.884-8.812 5.575 3.091-8.074 14.566c-.699 1.259-1.306 1.509-1.936 1.16l-.449.809 5.935 3.29m-44.367 13.41 5.895 4.126.53-.757c-.674-.471-.683-1.356-.092-2.197l9.789-13.98 16.758 11.734c.506.354.494.91-.066 1.71l.758.531 5.071-7.243-.759-.531c-.619.884-1.136 1.088-1.641.733L518.859 449.2c-.504-.354-.492-.909.128-1.794l-.759-.53-14.033 20.041c-.59.842-1.089 1.374-1.929.784l-.531.759m51.159-71.834-11.844 6.288c-.655.324-1.064.494-1.264.446-.25-.058-.293-.331-.2-.731l-.903-.209-2.139 9.266.901.209c.617-1.072 2.008-2.07 3.205-2.69l14.6-7.709 6.506 13.635c.324.656.485 1.326.335 1.978l.903.207 2.428-10.517-.901-.209c-.092.402-.375.706-.825.603-.35-.082-.674-.736-1.256-1.874l-5.77-12.252 9.516 2.197c.601.139.798.659.67 1.21l.901.209 1.804-7.814-.901-.207c-.15.65-.555 1.031-1.155.894l-22.739-5.251c-.601-.137-.798-.658-.648-1.31l-.903-.207-1.803 7.813.901.209c.128-.55.531-.933 1.133-.793l7.163 1.652 2.284 4.959"/><path d="M455.448 125.897c4.348 2.931 7.236 8.85 3.99 13.665s-9.819 4.352-14.165 1.421-7.238-8.85-3.99-13.666 9.819-4.352 14.165-1.42zm2.645-3.921c-6.223-4.195-16.238-5.619-21.498 2.18s-.189 16.551 6.033 20.747 16.236 5.619 21.498-2.179.189-16.551-6.033-20.749m24.918 22.584 6.813 5.716c3.78 3.171 3.825 5.358 2.438 7.011s-3.548 1.989-7.327-1.184l-6.812-5.715 4.89-5.829zm-3.385-7.403c.789.661.945 1.195.549 1.668l-15 17.877c-.397.471-.95.411-1.738-.25l-.595.709 6.813 5.716.595-.709c-.906-.76-.984-1.228-.587-1.7l5.882-7.009 5.63 4.724-.824 9.777c-.067.881-.096 1.395-.326 1.671-.2.236-.759.103-1.231-.294l-.594.709 7.363 6.178.596-.707c-.434-.364-.952-.866-.876-1.675l1.04-11.876c3.994 2.277 7.685 2.356 10.56-1.07 3.767-4.49 1.846-8.918-3.194-13.148l-13.466-11.3-.596.709m62.716 91.89-7.379 7.459-3.279-8.543 10.658 1.084zm-21.497-.061.864-.332c-.184-.479-.11-1.002.178-1.114s.89-.121 1.625-.072l4.069.42 4.495 11.709-2.85 3.188c-.418.49-.814.751-1.101.863-.385.147-.779-.308-.87-.548l-.865.332 3.242 8.445.864-.331c.011-.83.097-1.469.64-2.062l15.7-17.479c.65-.745 1.039-1.17 1.519-1.354.671-.259 1.084.244 1.346.639l.862-.331-3.112-8.11-.862.331c.087.517.067 1.185-.556 1.425-.48.184-1.414.046-2.395-.072l-22.075-1.711c-1.077-.082-2.059-.201-2.469-.98l-.864.331 2.616 6.815" class="I"/><path d="M545.168 255.936c-2.106.604-3.299 2.756-2.687 4.89s2.756 3.299 4.862 2.694 3.335-2.735 2.724-4.869-2.794-3.319-4.899-2.715"/><path d="m561.589 281.311 2.376 9.526c.747 2.993.795 5.313-1.699 5.934s-3.54-1.449-4.286-4.441l-2.376-9.526 5.985-1.493zm-10.273 2.563 2.374 9.526c1.021 4.09.071 6.234-2.074 6.769s-3.987-.914-5.008-5.002l-2.375-9.526 7.082-1.766zm12.798-10.714-.899.224c.237.947.049 1.471-.549 1.62l-22.644 5.646c-.599.149-1.01-.225-1.246-1.173l-.898.224 4.564 18.304c1.567 6.285 5.455 9.13 9.445 8.135 3.79-.945 5.065-3.911 5.191-7.228l.099-.025c1.607 2.408 3.664 4.279 6.806 3.495 5.186-1.293 5.565-7.428 4.021-13.611l-3.891-15.611" class="I"/><path d="m515.45 218.47.801-.462c-.437-.757-.4-1.312.133-1.62l20.21-11.669c.535-.309 1.034-.062 1.47.695l.803-.464-4.266-7.389-.803.462c.438.756.401 1.311-.133 1.62l-20.21 11.669c-.535.309-1.033.061-1.47-.695l-.801.462 4.266 7.39"/></g><path stroke-width="3.6" d="m334.014 459.325.072 6.371m83.053-308.246h-42.5m96.01 310.434-3.822-6.996m-65.396 31.059 3.281 8.055m-134.447-16.926-6.803 17.309m-61.166-293.246-15.312 5m113.906-36.954-60.625 19.454m93.75 323.125.072 10.434m-137.181-56.621 5.546-9.437m310.073-59.565 3.026 3.781M298.389 186.2l-12.187 7.5m223.823 136.371 17.391 15.721m-49.34-94.592 33.51 20.434m-51.899-67.219 21.514 6.473M190.576 365.262l-33.365 46.371M190.576 301.2l-47.115 47.309m47.115-94.809-42.74 25.434m176.49-84.809-.86 2.969m10.548-6.406v10.938m-30.156-36.562-90.469 16.563m79.531-24.454-44.219.079m115 7.813 94.375 16.563m-89.062 4.375 12.188 7.5m-14.687-18.437 60.385 18.871m-83.354.191.854 2.934" class="C F G K"/><path d="M467.211 218.51c-10.625-2.814-16.249-7.501-24.375-17.189-7.5 5.625-15.894 8.402-27.465 8.402-18.726 0-38.7-6.243-47.439-6.243-13.391 0-27.865 3.947-32.322 14.249-.446 1.03-1.368 4.92-1.524 7.029-.235-2.149-.625-4.937-1.507-6.99-4.436-10.33-18.931-14.288-32.339-14.288-8.739 0-28.712 6.243-47.439 6.243-11.572 0-27.464-8.404-27.464-8.404s-6.209 6.849-10.939 10.314c-4.623 3.386-12.812 7.186-12.812 7.186v233.282h114.688s.704-.937 1.875-2.655h32.813c.719 1.41 1.563 1.875 1.563 1.875h114.688V218.51" class="H"/><g class="F"><g class="G"><g class="L"><path d="m225.355 202.259-.019 227.501c51.874 0 61.25-10.626 84.375-10.626 11.235 0 21.39 9.384 24.375 17.5m95.022-3.072c-45.332-1.292-51.062-6.928-68.772-6.928-11.474 0-17.656 7.345-19.531 11.095m102.031-236.095v227.189c-52.187 1.718-61.25-9.689-84.375-9.689-11.236 0-21.25 9.384-24.235 17.5m120.798-223.125v226.564c-67.492 0-80.781-6.562-95.312-6.562-5.139 0-11.562 4.374-13.125 7.5M213.461 212.884v228.438c67.491 0 82.813-7.811 95-7.811 5.137 0 11.563 4.374 13.125 7.5m-102.187-233.44v227.814c63.741 0 68.438-8.751 88.438-8.751 11.474 0 17.031 7.031 18.906 10.781m24.16 11.522c-.389-.76-.55-1.832-.879-2.929 4.063-3.75 8.44-4.999 14.375-4.999 12.5 0 39.063 5.311 96.563 5.311V337.884m-253.75-121.562v230.314c66.094 0 91.094-5.47 96.563-5.47 5.86 0 11.875 1.72 15.313 4.844-.257 1.183-.526 2.119-.937 2.97m130.641-241.33-.019 224.842m12.206-123.201-.019-92.658" class="B C D"/><path stroke-width="7.5" d="M442.764 201.512c-1.25 2.5-1.875 3.75-4.577 6.136-6.43 3.686-13.748 5.511-23.127 5.511-18.726 0-38.7-6.241-47.439-6.241-13.391 0-27.865 3.947-32.324 14.248-.445 1.031-1.366 4.92-1.522 7.03-.235-2.149-.625-4.937-1.507-6.99-4.436-10.33-18.93-14.288-32.34-14.288-8.738 0-28.712 6.241-47.437 6.241-6.732 0-14.928-2.844-20.604-5.223-4.081-1.711-6.509-6.93-6.509-6.93s-6.235 6.848-10.977 10.314c-4.626 3.381-12.812 7.186-12.812 7.186V451.79h114.688s.704-.937 1.875-2.658h32.813c.719 1.411 1.563 1.875 1.563 1.875h114.688v-232.81c-10.625-2.814-16.321-6.999-24.447-16.685z" class="K"/><path d="m334.105 436.634-.014-227.777" class="B C D"/></g><path d="M341.586 223.759c3.882-6.655 9.95-9.15 22.5-9.626" class="B C D"/><path d="M370.961 214.446c4.604 1.51 15.913 4.761 33.142 5.313" class="B C E"/><path d="M410.96 219.874c5.515.019 11.915-.126 19.376-.49" class="B C D"/><path d="M341.586 235.259c4.375-7.5 11.522-9.715 27.596-9.715 3.132 0 5.291 1.007 9.134 2.185" class="B C E"/><path d="M341.586 260.009c4.375-7.5 11.522-9.715 27.596-9.715 2.942 0 5.026.89 8.454 1.974m47.074-8.455 5.626-.241m-60.312-4.75c8.438.625 8.75 5.184 47.817 5.184m-76.255 3.941c4.007-6.87 10.341-9.306 23.731-9.666m55.007-7.017 10.011-.379m-44.947-1.419c5.574 1.048 13.63 1.897 26.199 1.911" class="B C D"/><path d="M341.586 271.759c2.274-3.897 5.991-6.151 10.625-7.625m34.43-9.694c8.055 1.375 20.938 2.304 43.695 1.194" class="B C E"/><path d="M341.586 284.509c4.375-7.5 19.063-12.562 32.188-8.5m46.551 4.174c2.928-.08 6.676.114 10.011-.049m-37.5-13.5a272.779 272.779 0 0 0 37.5.75m-72.5-4.5c1.25-.625 2.813-.84 8.75-.84 4.641 0 10.313 3.027 20.625 3.965" class="B C D"/><path d="M380.26 277.542c5.163 1.409 13.826 3.154 33.826 3.154" class="B C E"/><path d="M341.586 297.509c3.815-6.54 9.74-9.062 21.853-9.6" class="B C D"/><path d="M369.183 287.794c7.27 0 15.216 5.811 39.281 5.811" class="B C E"/><path d="M341.586 310.259c4.375-7.5 11.522-9.715 27.596-9.715 4.091 0 8.031 1.61 15.619 3.115m29.91-10.15 15.625-.375" class="B C D"/><path d="M341.586 323.009c2.748-4.709 6.587-7.335 13.045-8.636m38.939-9.325c8.392 1.012 19.98 1.592 36.766.836" class="B C E"/><path d="M341.514 334.95c4.375-7.5 12.5-9.715 23.125-9.715m44.431-7.014c5.942.257 4.126.166 12.444.166m-59.304-4.916c2.118-.123 4.433-.178 6.973-.178 6.629 0 10.339 3.074 33.031 4.558" class="B C D"/><path d="M373.499 326.554c4.144.884 9.439 2.074 16.75 3.123" class="B C E"/><path d="M374.639 353.822c3.772.925 11.535 2.5 18.216 3.353m-51.341 2.834c4.375-7.5 10.625-8.375 23.125-8.375 1.805 0 3.53.32 5.574.827m-11.776-13.401c2.046-.184 4.31-.266 6.827-.266 7.406 0 17.074 5.184 46.865 6.762m-70.615 2.952c2.68-4.595 6.065-7.206 11.303-8.539m44.969-9.359c8.092.855 2.809.901 15.604.901" class="B C D"/><path d="M399.016 357.857c7.993.761 9.941 1.155 23.05 1.155" class="B C E"/><path d="M368.466 365.987c6.424-.158 18.745 3.056 30.53 3.592m-57.41 3.429c4.375-7.5 10-7.625 19.375-7.625" class="B C M"/><path d="M288.478 218.595c-6.266 1.789-14.056 1.476-20.954 1.476m74.063 192.688c1.675-2.873 3.535-4.627 5.824-5.699m72.301-24.801c3.517.103 2.559 0 6.563 0" class="B C D"/><path d="M278.484 230.575c-2.849.34-6.582.559-10.022.559m58.125-7.375c-4.375-7.5-13.75-8.375-23.75-8.375-2.491 0-5.238.345-8.196.839" class="B C E"/><path d="M292.03 241.331c-6.095 1.216-14.034 2.553-23.569 2.553m58.125-8.625c-4.375-7.5-13.125-8.625-24.375-8.625-5.32 0-9.687 2.188-17.53 2.974" class="B C D"/><path d="M317.149 240.59c-3.325-.971-7.243-1.206-11.812-1.206-1.635 0-5.423.744-7.187 1" class="B C E"/><path d="M326.586 248.009c-1.01-1.73-2.151-3.121-3.435-4.236" class="B C D"/><path d="M252.214 255.417c-4.331.036-9.105.029-14.377-.034" class="B C E"/><path d="m253.463 279.816-15.626-.183m88.75-8.375c-4.375-7.5-12.5-8.625-24.375-8.625-5.254 0-10.74 1.897-24.33 3.194m48.705-6.069c-1.464-2.509-5.51-5.909-7.812-7.187m-5.865-.858c-3.142-.452-6.709-.58-10.697-.58-7.385 0-10.322 3.48-43.11 4.183" class="B C D"/><path d="M309.106 275.494c-8.77-1.36-23.419 3.731-49.376 4.265" class="B C E"/><path d="m248.149 266.996-10.312-.113m88.75 17.125c-1.562-3.312-4.687-7.062-10.654-7.855" class="B C D"/><path d="M256.587 293.027c-5.475.081-11.683.048-18.751-.144m33.732-26.548c-5.044.337-10.999.581-18.11.652" class="B C E"/><path d="M271.596 304.88c-8.389.529-19.287.861-33.76.754m88.75-8.375c-4.375-7.5-12.187-10.312-24.375-8.312m-6.875.5c-6.044 1.05-18.435 2.989-33.124 3.452" class="B C D"/><path d="M310.18 301.009c-13.111 0-16.731 2.139-33.613 3.514" class="B C E"/><path d="M297.211 314.759c-6.637 1.092-20.625 3.424-41.869 3.424m-5.639.113-11.868.089m88.75-8.375c-.937-2.594-3.906-7.281-9.91-8.223" class="B C D"/><path d="M326.586 322.759c-4.375-7.5-10-10.187-22.5-9" class="B C E"/><path d="M263.358 330.946c-6.795.384-15.161.629-25.594.629" class="B C D"/><path d="M284.795 328.637c-4.844 1.25-9.949 1.399-15.469 1.875" class="B C E"/><path d="m244.4 345.327-6.636.056m88.75-10.684c-4.375-7.5-9.531-9.5-21.875-9.5-2.853 0-10.077 1.42-13.594 2.188" class="B C D"/><path d="M280.93 342.506c-8.479 1.94-16.376 2.206-28.778 2.655" class="B C E"/><path d="M297.691 353.137c-6.257 1.217-15.327 4.016-32.985 5.556m-5.691.431c-6.119.392-13.143.634-21.251.634m88.75-11.5c-1.59-2.725-2.821-3.586-4.687-5.062m-4.687-2.656c-4.062-2.187-8.521-1.996-13.75-1.996-3.996 0-8.78 1.43-16.896 2.983" class="B C D"/><path d="M326.514 362.26c-4.375-7.5-12.344-10.783-23.75-9.716" class="B C E"/><path d="m242.834 372.854-4.998.03" class="B C D"/><path d="M275.311 370.797c-7.452.946-10.921 2.086-26.225 2.086" class="B C E"/><path d="M326.586 375.009c-4.375-7.5-10-8.999-22.5-8.999-4.57 0-10.344 1.88-21.159 3.674" class="B C D"/><path d="M263.488 386.009c-3.3.201-6.876.356-10.718.452m27.806 10.989c-2.187.938-4.31 1.034-6.533 1.252m78.095 6.248c4.688-1.562 3.664-1.562 6.25-1.562m-31.803 8.621c-1.19-2.037-2.5-4.749-6.875-6.312m6.875-17.937c-3.399-5.826-9.531-8-15.601-7.853" class="B C E"/><path d="M326.605 400.509c-4.375-7.5-10.019-8.249-19.394-8.249-4.19 0-11.076 2.25-20.998 4.305m17.891-16.806c-6.394 0-13.274 3.454-35.101 5.696" class="B C D"/><path d="M341.625 400.009c3.946-6.765 8.293-7.631 16.449-7.736" class="B C M"/><path d="M314.739 404.907c-2.176-.774-4.717-.149-7.527-.149-4.626 0-11.233 2.548-21.345 4.785m56.519-23.67c3.331-5.709 11.168-7.316 16.316-7.359" class="B C D"/></g><path stroke-miterlimit="10" d="M249.868 219.29c8.125.391 11.094-.077 11.094 7.344v11.875c0 7.344-6.525 6.309-11.562 5.938-5.164-.381-11.016.938-10.937-8.125V224.29c0-7.656 7.347-5.195 11.406-5z" class="B D L"/></g><path d="m247.914 223.665 4.346.331c.726 5.652 3.611 15.17 3.611 16.321-1.394.089-1.64.275-3.034 0l-1.174-5.402c-1.553 0-3.632-.312-3.632-.312-.484 2.418-.82 2.813-1.289 5.391-.937-.235-2.343.004-3.281-.314 1.695-6.113 2.515-10.414 4.452-16.015zm2.031 3.048c-.702 2.265-1.289 5.313-1.289 5.313s.751.206 2.5.272c0 0-.43-3.085-1.211-5.585" class="I J"/><path d="M405.088 370.116c7.905.8 5.871.777 16.426.771" class="B C D F G"/><path d="M240.42 456.981c0 3.125-2.896 2.778-2.896 5.278s8.438 7.5 8.438 10.938.313 5.938.313 7.188c0 3.438 3.594 3.945 3.594 3.945s.994-3.164 5.469-3.164c6.875 0 7.5 10.781 0 10.781-3.75 0-5.781-2.187-5.781-6.25-4.062-2.187-7.969-.312-9.219-9.062s-6.875-2.187-11.562-7.187-2.26-1.996-4.135-8.559c0-.312-.3 4.887-3.99 6.996-4.375 2.5-4.389 5.281-.937 6.875 2.031.938 2.5 5 5.625 8.125 1.875-2.5 9.063-2.812 9.063 5.313 0 5.938-12.384 5.897-9.571-4.259-.625-5.312-3.877-2.849-10.741-3.866-4.219-.625-4.844-2.656-4.844-7.656s5.781-5.636 5.781-11.094c0-1.503-.416-3.004-.984-4.351l26.38.011" class="H"/><path d="M240.42 456.981c0 3.125-2.896 2.778-2.896 5.278s8.438 7.5 8.438 10.938.313 5.938.313 7.188c0 3.438 3.594 3.945 3.594 3.945s.994-3.164 5.469-3.164c6.875 0 7.5 10.781 0 10.781-3.75 0-5.781-2.187-5.781-6.25-4.062-2.187-7.969-.312-9.219-9.062s-6.875-2.187-11.562-7.187-2.26-1.996-4.135-8.559c0-.312-.3 4.887-3.99 6.996-4.375 2.5-4.389 5.281-.937 6.875 2.031.938 2.5 5 5.625 8.125 1.875-2.5 9.063-2.812 9.063 5.313 0 5.938-12.384 5.897-9.571-4.259-.625-5.312-3.877-2.849-10.741-3.866-4.219-.625-4.844-2.656-4.844-7.656s5.781-5.636 5.781-11.094c0-1.503-.416-3.004-.984-4.351l26.38.011z" class="B D F G L"/><path d="M193.93 419.055s-7.031 1.485-7.031 12.111c0 7.969 4.249 11.093 7.813 11.093.923 0 1.145-.156 1.822-.356v7.149c-1.726 1.13-3.502 1.803-6.666 1.803-6.094 0-14.531-3.595-14.531-15.158 0-2.561 2.344-11.641 18.594-16.641" class="H I"/><path d="M193.93 419.055s-7.031 1.485-7.031 12.111c0 7.969 4.249 11.093 7.813 11.093.923 0 1.145-.156 1.822-.356v7.149c-1.726 1.13-3.502 1.803-6.666 1.803-6.094 0-14.531-3.595-14.531-15.158 0-2.561 2.344-11.641 18.594-16.641z" class="B D F G"/><path d="M405.336 461.946c.567 5.479 1.516 10.259.469 13.438-2.42 7.336-9.194 8.928-10.937 10.781-2.08 2.209-7.485 9.44-15.781 12.344-6.25 2.188-4.092 7.686-16.875 10.313-22.812 4.687-34.062-.625-39.062-.312-16.969 1.06-23.375-11.681-34.687-14.375-6.562-1.562-9.687-15.625-18.75-20.937-9.123-5.348-13.125-17.187-15-27.187s-20.469-29.531-42.344-29.531c-14.219 0-33.365 4.471-37.115 18.534-.312-11.876 15.084-19.615 15.084-29.626 0-6.251-2.187-4.219-2.187-7.814 0-8.281 22.236-13.396 24.688-12.811 6.563 1.561 14.96-3.985 21.21.389 8.096 5.668 9.415 2.735 21.915 9.61s16.695 15.675 26.25 22.5c8.75 6.25 4.063 22.814 16.875 30.938 15.666 9.935 6.875 15.313 23.125 19.688s10.625 8.75 30 6.875c8.254-.799 8.504-5.176 12.656-7.5 5.594-3.131 13.594-4.711 13.594-9.375 0-8.125-.312-10.625-.312-10.625 7.188 0 26.254 5.674 27.188 14.688" class="H"/><path d="M405.336 461.946c.567 5.479 1.516 10.259.469 13.438-2.42 7.336-9.194 8.928-10.937 10.781-2.08 2.209-7.485 9.44-15.781 12.344-6.25 2.188-4.092 7.686-16.875 10.313-22.812 4.687-34.062-.625-39.062-.312-16.969 1.06-23.375-11.681-34.687-14.375-6.562-1.562-9.687-15.625-18.75-20.937-9.123-5.348-13.125-17.187-15-27.187s-20.469-29.531-42.344-29.531c-14.219 0-33.365 4.471-37.115 18.534-.312-11.876 15.084-19.615 15.084-29.626 0-6.251-2.187-4.219-2.187-7.814 0-8.281 22.236-13.396 24.688-12.811 6.563 1.561 14.96-3.985 21.21.389 8.096 5.668 9.415 2.735 21.915 9.61s16.695 15.675 26.25 22.5c8.75 6.25 4.063 22.814 16.875 30.938 15.666 9.935 6.875 15.313 23.125 19.688s10.625 8.75 30 6.875c8.254-.799 8.504-5.176 12.656-7.5 5.594-3.131 13.594-4.711 13.594-9.375 0-8.125-.312-10.625-.312-10.625 7.188 0 26.254 5.674 27.188 14.688z" class="B D F G"/><path d="M405.199 460.696c-.625-4.375-9.394-10.937-21.738-12.812-15.644-2.376-32.187-3.437-32.187-23.437 0-4.744 5.038-7.546 10.306-8.931 6.777-1.781 15.522-1.06 22.115 1.665 0 0-6.171 2.267-6.171 10.705 0 11.874 27.675 15.409 27.675 32.811" class="H"/><path d="M405.199 460.696c-.625-4.375-9.394-10.937-21.738-12.812-15.644-2.376-32.187-3.437-32.187-23.437 0-4.744 5.038-7.546 10.306-8.931 6.777-1.781 15.522-1.06 22.115 1.665 0 0-6.171 2.267-6.171 10.705 0 11.874 27.675 15.409 27.675 32.811z" class="B D F G"/><path d="M482.368 364.915c3.994-1.902 7.059-2.655 10.469-2.655 12.5 0 16.25 3.75 18.125 18.75s-14.062 39.999-20.625 45.624c-13.886 11.902-30.553 3.629-57.5 7.188-8.281 1.095-17.104-11.875-27.969-11.875-14.062 0-23.281-7.655-32.5-7.344-6.248.212-18.906.313-21.094 9.844.234-6.64 16.875-12.951 16.875-28.905 0-7.189-5.937-5.783-5.937-7.658 0-4.375 3.75-8.749 16.875-8.749 13.567 0 16.25 1.249 23.75 4.999s9.688-1.875 18.75 4.376c22.691 15.647 26.875 3.75 39.375 6.249 4.524.905 12.188 2.813 15 2.189 3.066-.683 16.25-5.939 16.25-15.937 0-12.501-9.844-16.095-9.844-16.095" class="H"/><path d="M482.368 364.915c3.994-1.902 7.059-2.655 10.469-2.655 12.5 0 16.25 3.75 18.125 18.75s-14.062 39.999-20.625 45.624c-13.886 11.902-30.553 3.629-57.5 7.188-8.281 1.095-17.104-11.875-27.969-11.875-14.062 0-23.281-7.655-32.5-7.344-6.248.212-18.906.313-21.094 9.844.234-6.64 16.875-12.951 16.875-28.905 0-7.189-5.937-5.783-5.937-7.658 0-4.375 3.75-8.749 16.875-8.749 13.567 0 16.25 1.249 23.75 4.999s9.688-1.875 18.75 4.376c22.691 15.647 26.875 3.75 39.375 6.249 4.524.905 12.188 2.813 15 2.189 3.066-.683 16.25-5.939 16.25-15.937 0-12.501-9.844-16.095-9.844-16.095z" class="B D F G"/><path d="M497.524 362.571s-12.266-5.156-19.687-6.562c-7.846-1.486-20 6.251-31.875 6.251-4.512 0-10-1.564-13.125-3.281 4.375 7.811-4.375 13.28-4.375 15.78 0 2.813 4.063 8.126 22.5 8.126 16.563 0 22.813-22.814 46.563-20.314" class="H"/><path d="M497.524 362.571s-12.266-5.156-19.687-6.562c-7.846-1.486-20 6.251-31.875 6.251-4.512 0-10-1.564-13.125-3.281 4.375 7.811-4.375 13.28-4.375 15.78 0 2.813 4.063 8.126 22.5 8.126 16.563 0 22.813-22.814 46.563-20.314z" class="B D F G"/><path d="M461.039 309.72c-.625 9.726 1.798 12.851 1.798 12.851 7.711 1.371 1.876 5.938 11.25 5.938 4.063 0 11.738-3.685 11.25-9.375-.311-3.642-4.28-1.396-5.625-7.5-.928-4.202.096-5.288 1.467-9.354.132-.394 1.555-1.725 1.11-1.896-3.437-1.327-5.702-1.214-5.702-6.562 0-7.812 10.938-7.187 10.938-.312 0 6.25-3.829 6.719-5.079 6.875-1.382.173 2.735.86 2.735 3.984 0 1.659-.937 2.816-.937 4.141 0 3.125 6.719-1.875 6.719 9.688 0 5.039 2.5 3.75 5.938.625 2.985-2.715 9.274-2.599 10.874-6.21.241-.545 1.265-3.386.533-3.478-1.875-.234-5.156 0-5.156-6.562s10-6.562 10.313 0c.301 6.313-2.685 5.717-4.375 6.563-1.562.781 3.438.625 3.438 7.5 0 .938-2.187 4.688-9.375 7.5s-12.812 19.063-22.812 19.063c-4.56 0-8.159-5.027-19.687-5.937-2.317-.959-3.788-1.885-4.687-2.969-.937-3.906-1.56-6.486-11.562-6.719-6.03-.14-14.026 8.524-13.75 18.125.224 7.813 1.563 15 17.188 16.564-18.437.311-29.375-13.889-29.375-21.251 0-11.875 10.625-11.875 10.625-20s5.938-13.515 8.75-13.515c3.705 0 2.5 2.577 17.5 1.952 3.137-.13 5.702-1.914 5.702.274" class="H I"/><g class="B D F G"><path d="M461.039 309.72c-.625 9.726 1.798 12.851 1.798 12.851 7.711 1.371 1.876 5.938 11.25 5.938 4.063 0 11.738-3.685 11.25-9.375-.311-3.642-4.28-1.396-5.625-7.5-.928-4.202.096-5.288 1.467-9.354.132-.394 1.555-1.725 1.11-1.896-3.437-1.327-5.702-1.214-5.702-6.562 0-7.812 10.938-7.187 10.938-.312 0 6.25-3.829 6.719-5.079 6.875-1.382.173 2.735.86 2.735 3.984 0 1.659-.937 2.816-.937 4.141 0 3.125 6.719-1.875 6.719 9.688 0 5.039 2.5 3.75 5.938.625 2.985-2.715 9.274-2.599 10.874-6.21.241-.545 1.265-3.386.533-3.478-1.875-.234-5.156 0-5.156-6.562s10-6.562 10.313 0c.301 6.313-2.685 5.717-4.375 6.563-1.562.781 3.438.625 3.438 7.5 0 .938-2.187 4.688-9.375 7.5s-12.812 19.063-22.812 19.063c-4.56 0-8.159-5.027-19.687-5.937-2.317-.959-3.788-1.885-4.687-2.969-.937-3.906-1.56-6.486-11.562-6.719-6.03-.14-14.026 8.524-13.75 18.125.224 7.813 1.563 15 17.188 16.564-18.437.311-29.375-13.889-29.375-21.251 0-11.875 10.625-11.875 10.625-20s5.938-13.515 8.75-13.515c3.705 0 2.5 2.577 17.5 1.952 3.137-.13 5.702-1.914 5.702.274z"/><path d="M460.336 309.134c0 2.5-6.25 6.25-10.625 6.25s-5.781 7.031 6.25 6.875c2.814-.036 4.884-.02 6.425.254m-15.488-3.223c2.969 7.266 8.671 7.5 8.75 13.906" class="C"/></g><path d="m333.858 176.377 24.101 17.476-9.611-29.123 25.822-18.569-31.406.038-8.906-29.097-9.375 29.097-30.937-.038 25.824 18.569-9.613 29.123 24.101-17.476" class="H"/><path d="M331.514 159.012 294.326 146.2h29.531l7.656 12.813m2.188-41.251v40.469l8.827-12.266-8.827-28.202m-1.25 42.812-22.407 32.991 9.516-28.46 12.891-4.531m1.484.312 23.594 32.577-23.594-17.734v-14.844m39.61-14.765-38.906 13.673 13.125 4.609 25.781-18.281" class="J"/><path stroke-width="3.6" d="m333.848 176.334 24.101 17.476-9.613-29.123 25.824-18.569-31.407.038-8.905-29.097-9.375 29.097-30.937-.038 25.822 18.569-9.611 29.123 24.101-17.476z" class="F G K L"/><path d="M362.803 477.639c1.471-.66 3.811-3.618 6.596-5.224 3.325-1.918 6.679-2.47 8.99.504 1.892 2.436 1.642 4.066 1.229 5.306.565-.037 3.058-.206 4.553 2.271 2.734 4.531 1.415 5.949-.553 8.09-2.656 2.891-6.649 3.281-9.24 6.189-1.596-3.61-2.931-6.726-4.509-9.094-2.481-3.721-5.225-7.284-7.066-8.043" class="J"/><path d="m368.545 477.527 2.813 3.985c3.984-2.579 6.211-3.405 4.219-6.25-1.641-2.344-4.298-.079-7.031 2.265m4.764 6.954 2.813 5.234c3.281-1.875 7.619-3.793 5-7.109-2.344-2.969-5.156-.156-7.812 1.875" class="H"/><g class="J"><path d="M424.354 399.044c-1.277 1.636-6.678 19.108-6.071 20.358-2.12-.988-1.495-1.456-4.62-1.964 3.125-1.875 6.647-19.484 6.875-20.469 2.142 2.142 3.816 2.075 3.816 2.075m-19.464-8.035c-3.033 4.85-4.241 16.608-5.179 19.108 4.219-.201 9.12 1.466 10.469 1.363.151.303-.826 1.673-1.361 3.995-1.139-2.277-9.576-.871-14.465-2.68 3.108-2.575 6.06-22.175 5.514-23.191 2.169.881 3.365 1.044 5.022 1.406"/><path d="M333.93 487.102c-.85 3.705-1.562 5.469-4.621 6.179.875 5.338 1.471 7.461 2.548 10.195-2.44-.633-1.8-.495-4.565-.748.449-.571.436-1.995.223-2.76-.945-3.37-1.142-3.673-1.631-7.026-1.353-.35-2.741-.626-4.835-1.459-1.616 2.825-3.225 6.824-3.136 8.648 0 0-1.94.519-4.691-1.299 2.214-.704 5.496-12.576 7.822-18.409.322-.811.48-1.958-.105-2.585 8.113 1.614 14.467 2.826 12.993 9.264zm-11.57 1.083c2.548.847 6.889 3.455 8.132-1.083 1.134-4.139-3.158-4.021-6.462-4.894-.686 2.25-1.294 3.866-1.67 5.976" class="I"/><path d="M226.508 389.759c-1.25 2.813-4.748 16.243-4.609 16.952 3.202-.077 9.121 3.491 9.844 3.048-.486 1.634-.784 2.059-.86 4.101-4.714-1.716-7.344-3.868-13.515-3.632.313-.821 5.116-19.219 4.844-20 1.796-.546 3.281-.625 4.296-.469m7.578 25.47c3.935 1.021 9.219 4.374 12.344 7.108 0 0 1.406-2.415 1.875-4.219-2.891-.118-5.79-3.022-10-4.609 1.015-2.344 1.406-2.891 2.344-4.687 3.438 1.054 3.202 1.094 5.156 2.265.489-1.343.625-1.875 1.484-3.358-1.094-.08-1.327-.314-5.156-2.11.625-1.406 1.641-2.891 2.266-4.845 2.74.502 6.835 2.695 8.281 4.063 0 0 .313-1.406.938-3.905-3.829-2.501-7.344-3.984-10.625-4.533.17.623-7.577 15.602-8.906 18.83m28.046-7.893c-1.515.91-1.562.781-3.75 1.095 2.085 1.894 2.579 2.265 4.219 4.296-2.618 2.772-11.796 11.484-13.437 11.719 2.684 2.086 2.423 1.875 3.75 3.439-.077-1.173 7.735-8.751 12.11-12.58 1.819 2.275 2.821 2.375 4.609 4.923 0 0 .415-2.05 1.173-3.906-5.001-4.546-4.429-4.134-8.673-8.985m20.194 30.508c-1.835.077-2.812-.234-4.794-.194 1.06 2.651 2.021 3.866 3.271 6.405-5.988 2.463-15.86 6.952-17.214 6.629 1.478 2.007.924 3.721 2.683 5.011.82-2.382 12.387-6.496 16.327-8.124.834 1.704 3.516 4.826 3.516 5.545 1.515-.605 1.88-2.365 3.32-3.085-2.879-2.085-6.844-9.005-7.11-12.187m10.713 15.029c1.288 2.197 2.892 2.012 4.484 3.604-3.637 1.44-6.379 3.444-8.804 5.869 1.364 1.364 1.832 3.02 3.804 4.99 2.765-1.364 7.538-6.266 7.5-6.796 1.515 2.274.821 3.396 2.413 4.912-1.97-.226-17.429 13.11-17.429 14.853-1.365-1.819-3.187-4.452-3.187-4.452 2.88-1.591 4.863-2.915 7.969-6.25-.909-1.213-2.206-2.786-4.024-5.361-1.668.605-7.881 4.28-7.881 6.515-1.819-1.439-2.235-2.248-4.579-3.498 5.456-2.729 19.166-11.733 19.735-14.385m12.647 15.555c.076.683-11.074 15.566-14.219 18.711 3.125 1.406 12.18 5.833 14.452 8.711 1.516-1.364 3.354-4.029 3.354-4.029-.645.189-8.942-3.789-11.519-6.062 1.515-2.122 2.094-2.709 4.064-4.831 2.274 1.819 3.949 1.716 5.314 4.141.303-.455 1.815-1.844 2.421-3.36-2.729-1.515-3.985-2.187-5.702-3.906.454-1.061 1.746-2.955 3.149-4.169 4.169 2.766 5.757 3.154 8.491 6.279.757-1.817.469-1.875 1.563-4.298-5.156-2.187-6.094-2.89-11.368-7.187m32.031 14.219 14.805-1.171 1.171 4.179c-1.015-.702-6.796-.39-11.327.196l.234 5c2.525.32 5.391-.274 6.406-.625l.469 3.671c-1.796-.508-3.632.391-6.796.391l-.079 6.406c2.916 0 9.923.156 11.563-2.187l-.702 5s-7.187 2.188-15.391.351c1.245-.746 1.195-9.12 1.054-10.899-.32-4.088.391-6.914-1.405-10.312m46.678-23.203c1.719.469 2.466.934 3.716 1.011-1.406 3.594-1.368 4.375-3.555 6.563 1.358.95 2.579 2.539 3.36 3.32 1.796-1.719 2.305-3.281 2.618-4.375 1.094 1.016 1.679 1.875 2.772 2.11-.702 2.5-1.171 3.281-2.969 4.844 1.406 1.875 1.603 1.952 2.891 3.281 3.281-1.485 4.649-6.758 4.649-6.758l2.299 3.598c-1.329 4.375-4.844 6.25-7.812 8.281-3.437-5-11.186-13.92-13.594-13.75 4.063-3.437 4.609-3.829 5.625-8.125m52.905-56.594c-4.519-.935-11.08 1.859-12.136 10.088-.796 6.212 3.329 12.183 7.686 13.004 7.305 1.376 8.744-5.298 9.168-9.745.075-.773.882-1.005.887-1.704-.844-.011-5.959-1.607-7.706-1.842-.166 1.494-.085 1.561-.825 3.254 2.234.174 2.964.558 4.173 1.189.02.641-.216 6.51-4.616 5.267-3.723-1.051-5.596-3.635-5.056-9.304.45-4.731 3.895-7.886 7.656-7.18 2.61.491 4.043 1.592 4.043 3.233 1.845-.901 3.171-1.94 3.171-1.94-1.873-2.795-2.289-3.457-6.444-4.319m14.476.968c-.274 2.97.091 6.548.469 8.515 3.036-1.07 5.14-1.506 8.354-.792 0 0-.741-8.665-1.517-8.934.909-.53 4.609.625 4.609.625-.351.586-.546 1.368-.512 1.835.392 5.542 1.69 19.165 2.935 19.416-.455.226-2.255-.325-4.219.389.379-.529-.905-7.72-1.094-9.844-2.859-1.564-6.451.085-8.382.496 0 1.251.022 8.959 1.234 9.114-2.386.947-2.637.396-5.176.586 0-.455.691-1.2.759-1.971.16-1.817-1.123-17.836-2.145-18.34 0 0 3.711-.392 4.688-1.095m16.544.424c4.915-.116 7.379.194 11.25-2.265 1.368 1.914 1.563 2.305 2.774 3.555-1.705-.114-4.649.938-6.173 1.484 1.967 8.386 4.141 15.664 4.805 15.976-1.895.569-2.635.727-4.452 1.485-.196-4.493-3.048-13.36-3.829-16.954-2.812.391-3.789.548-5.82 1.524-.115-.34.904-4.025 1.445-4.805"/></g></svg>