<svg xmlns="http://www.w3.org/2000/svg" width="1000" height="1000"><style>.B{fill:none}.C{fill:#daaa00}.D{stroke:#daaa00}.E{stroke-width:2.6}.F{fill:#fff}.G{stroke-width:1.43}</style><path fill="rgba(255,255,255,0)" d="M0 0h1000v1000H0z"/><g transform="translate(499.644 500.644) scale(4.882)"><circle r="100" class="F"/><g class="C"><circle cy="100" r="2.1"/><circle r="2.1" transform="rotate(2.86 -2002.761 -49.994)"/><circle r="2.1" transform="rotate(5.711 -1002.532 -49.992)"/><circle r="2.1" transform="rotate(8.569 -667.394 -50.01)"/><circle r="2.1" transform="rotate(11.431 -499.538 -49.987)"/><circle r="2.1" transform="rotate(14.288 -398.918 -50.014)"/><circle r="2.1" transform="rotate(17.138 -331.793 -50.014)"/><circle r="2.1" transform="rotate(19.999 -283.58 -50.006)"/><circle r="2.1" transform="rotate(22.86 -247.292 -49.998)"/><circle r="2.1" transform="rotate(25.71 -219.11 -50)"/><circle r="2.1" transform="rotate(28.569 -196.386 -50.005)"/><circle r="2.1" transform="rotate(31.431 -177.687 -49.993)"/><circle r="2.1" transform="rotate(34.29 -162.07 -50.001)"/><circle r="2.1" transform="rotate(37.14 -148.821 -49.997)"/><circle r="2.1" transform="rotate(40.002 -137.371 -49.996)"/><circle r="2.1" transform="rotate(42.862 -127.39 -49.997)"/><circle r="2.1" transform="rotate(45.709 -118.629 -50.002)"/><circle r="2.1" transform="rotate(48.57 -110.81 -50)"/><circle r="2.1" transform="rotate(51.428 -103.829 -50.004)"/><circle r="2.1" transform="rotate(54.289 -97.517 -50.002)"/><circle r="2.1" transform="rotate(57.139 -91.82 -50.001)"/><circle r="2.1" transform="rotate(60 -86.605 -50)"/><circle r="2.1" transform="rotate(62.858 -81.816 -50.003)"/><circle r="2.1" transform="rotate(65.708 -77.42 -50)"/><circle r="2.1" transform="rotate(68.569 -73.336 -50)"/><circle r="2.1" transform="rotate(71.428 -69.547 -50.003)"/><circle r="2.1" transform="rotate(74.288 -66.007 -50.005)"/><circle r="2.1" transform="rotate(77.138 -62.702 -50.002)"/><circle r="2.1" transform="rotate(80.003 -59.588 -49.997)"/><circle r="2.1" transform="rotate(82.859 -56.657 -50.003)"/><circle r="2.1" transform="rotate(85.71 -53.891 -50)"/><circle r="2.1" transform="rotate(88.567 -51.263 -50.002)"/><circle r="2.1" transform="rotate(91.433 -48.767 -49.998)"/><circle r="2.1" transform="rotate(94.29 -46.39 -50)"/><circle r="2.1" transform="scale(-1) rotate(-82.859 56.657 -50.003)"/><circle r="2.1" transform="rotate(99.997 -41.955 -50.002)"/><circle r="2.1" transform="rotate(102.862 -39.872 -49.999)"/><circle r="2.1" transform="scale(-1) rotate(-74.288 66.007 -50.005)"/><circle r="2.1" transform="rotate(108.572 -35.95 -49.999)"/><circle r="2.1" transform="scale(-1) rotate(-68.569 73.336 -50)"/><circle r="2.1" transform="scale(-1) rotate(-65.708 77.42 -50)"/><circle r="2.1" transform="rotate(117.142 -30.556 -49.999)"/><circle r="2.1" transform="rotate(120 -28.868 -50)"/><circle r="2.1" transform="rotate(122.861 -27.227 -50)"/><circle r="2.1" transform="rotate(125.711 -25.635 -50)"/><circle r="2.1" transform="rotate(128.572 -24.081 -50)"/><circle r="2.1" transform="rotate(131.43 -22.56 -50)"/><circle r="2.1" transform="rotate(134.291 -21.075 -50)"/><circle r="2.1" transform="rotate(137.138 -19.625 -50)"/><circle r="2.1" transform="scale(-1) rotate(-40.002 137.371 -49.996)"/><circle r="2.1" transform="scale(-1) rotate(-37.14 148.82 -49.997)"/><circle r="2.1" transform="rotate(145.71 -15.425 -50)"/><circle r="2.1" transform="scale(-1) rotate(-31.431 177.687 -49.993)"/><circle r="2.1" transform="scale(-1) rotate(-28.569 196.386 -50.005)"/><circle r="2.1" transform="rotate(154.29 -11.41 -50)"/><circle r="2.1" transform="scale(-1) rotate(-22.86 247.291 -49.997)"/><circle r="2.1" transform="rotate(160.001 -8.817 -50)"/><circle r="2.1" transform="rotate(162.862 -7.535 -50)"/><circle r="2.1" transform="scale(-1) rotate(-14.288 398.918 -50.014)"/><circle r="2.1" transform="scale(-1) rotate(-11.431 499.538 -49.987)"/><circle r="2.1" transform="scale(-1) rotate(-8.569 667.394 -50.01)"/><circle r="2.1" transform="scale(-1) rotate(-5.711 1002.532 -49.992)"/><circle r="2.1" transform="scale(-1) rotate(-2.86 2002.76 -49.994)"/><circle r="2.1" transform="rotate(180 0 -50)"/><circle r="2.1" transform="scale(-1) rotate(2.86 -2002.761 -49.994)"/><circle r="2.1" transform="scale(-1) rotate(5.711 -1002.532 -49.992)"/><circle r="2.1" transform="scale(-1) rotate(8.569 -667.394 -50.01)"/><circle r="2.1" transform="scale(-1) rotate(11.431 -499.538 -49.987)"/><circle r="2.1" transform="scale(-1) rotate(14.288 -398.918 -50.014)"/><circle r="2.1" transform="rotate(-162.862 7.535 -50)"/><circle r="2.1" transform="rotate(-160.001 8.817 -50)"/><circle r="2.1" transform="scale(-1) rotate(22.86 -247.292 -49.998)"/><circle r="2.1" transform="rotate(-154.29 11.41 -50)"/><circle r="2.1" transform="scale(-1) rotate(28.569 -196.386 -50.005)"/><circle r="2.1" transform="scale(-1) rotate(31.431 -177.687 -49.993)"/><circle r="2.1" transform="rotate(-145.71 15.425 -50)"/><circle r="2.1" transform="scale(-1) rotate(37.14 -148.821 -49.997)"/><circle r="2.1" transform="scale(-1) rotate(40.002 -137.371 -49.996)"/><circle r="2.1" transform="rotate(-137.138 19.625 -50)"/><circle r="2.1" transform="rotate(-134.291 21.075 -50)"/><circle r="2.1" transform="rotate(-131.43 22.56 -50)"/><circle r="2.1" transform="rotate(-128.572 24.081 -50)"/><circle r="2.1" transform="rotate(-125.711 25.635 -50)"/><circle r="2.1" transform="rotate(-122.861 27.227 -50)"/><circle r="2.1" transform="rotate(-120 28.868 -50)"/><circle r="2.1" transform="rotate(-117.142 30.556 -49.999)"/><circle r="2.1" transform="scale(-1) rotate(65.708 -77.42 -50)"/><circle r="2.1" transform="scale(-1) rotate(68.569 -73.336 -50)"/><circle r="2.1" transform="rotate(-108.572 35.95 -49.999)"/><circle r="2.1" transform="scale(-1) rotate(74.288 -66.007 -50.005)"/><circle r="2.1" transform="rotate(-102.862 39.872 -49.999)"/><circle r="2.1" transform="rotate(-99.997 41.955 -50.002)"/><circle r="2.1" transform="scale(-1) rotate(82.859 -56.657 -50.003)"/><circle r="2.1" transform="rotate(-94.29 46.39 -50)"/><circle r="2.1" transform="rotate(-91.433 48.767 -49.998)"/><circle r="2.1" transform="rotate(-88.567 51.263 -50.002)"/><circle r="2.1" transform="rotate(-85.71 53.891 -50)"/><circle r="2.1" transform="rotate(-82.859 56.657 -50.003)"/><circle r="2.1" transform="rotate(-80.003 59.588 -49.997)"/><circle r="2.1" transform="rotate(-77.138 62.702 -50.002)"/><circle r="2.1" transform="rotate(-74.288 66.007 -50.005)"/><circle r="2.1" transform="rotate(-71.428 69.547 -50.003)"/><circle r="2.1" transform="rotate(-68.569 73.336 -50)"/><circle r="2.1" transform="rotate(-65.708 77.42 -50)"/><circle r="2.1" transform="rotate(-62.858 81.816 -50.003)"/><circle r="2.1" transform="rotate(-60 86.605 -50)"/><circle r="2.1" transform="rotate(-57.139 91.82 -50.001)"/><circle r="2.1" transform="rotate(-54.289 97.517 -50.002)"/><circle r="2.1" transform="rotate(-51.428 103.829 -50.004)"/><circle r="2.1" transform="rotate(-48.57 110.81 -50)"/><circle r="2.1" transform="rotate(-45.709 118.629 -50.002)"/><circle r="2.1" transform="rotate(-42.862 127.39 -49.997)"/><circle r="2.1" transform="rotate(-40.002 137.371 -49.996)"/><circle r="2.1" transform="rotate(-37.14 148.82 -49.997)"/><circle r="2.1" transform="rotate(-34.29 162.07 -50.001)"/><circle r="2.1" transform="rotate(-31.431 177.687 -49.993)"/><circle r="2.1" transform="rotate(-28.569 196.386 -50.005)"/><circle r="2.1" transform="rotate(-25.71 219.11 -50)"/><circle r="2.1" transform="rotate(-22.86 247.291 -49.997)"/><circle r="2.1" transform="rotate(-19.999 283.58 -50.006)"/><circle r="2.1" transform="rotate(-17.138 331.793 -50.014)"/><circle r="2.1" transform="rotate(-14.288 398.918 -50.014)"/><circle r="2.1" transform="rotate(-11.431 499.538 -49.987)"/><circle r="2.1" transform="rotate(-8.569 667.394 -50.01)"/><circle r="2.1" transform="rotate(-5.711 1002.532 -49.992)"/><circle r="2.1" transform="rotate(-2.86 2002.76 -49.994)"/></g><g class="D"><path d="m-15-63-17 .5m19 1.5-37 11m39-9-53 36m54-33L-70-1.5m60-50L-67 13m59-62-54.5 79M-7-45-46 55M-3.5-49-35 62M-1-50.5-23 60m14-5-2 15.5M13.5-61 32-59.5M12-59l42 17M12-56l54 33M12-53 69-6M10-50l58 64M14-40l51 67M24-20l34 59M6-50 47 53M1.5-50.5l30 109m-16-3.5.5 12.5M2 55l.5 16"/><g class="F"><path d="M-52 28c-3 3-5.5 4-5.5 9s5.5 5 6.5 5 5-1 5 4.5 8 7 8 12.5c.5 3 1-5-1-7 1-1 .5-1 1.5-3 1 1 8 7 9 7 3 0 1.5-6.5-2-3-1.5-1.5-1.5-4.5-3.5-4.5s-2-2-2-4 0-8.5-14-8.5c-3 0-3 0-3-2s1-4 1-5z"/><path d="M-47.5-45.5H-6c3 0 5 4 6 5 1-1 3-5 6-5h41.5v89H4c0 2-8 2-8 0h-43.5z"/></g><g class="B"><path d="M-35.5-45.5v82H-6c3 0 5 4 6 5 1-1 3-5 6-5h29.5v-82"/><path d="M-38.5-45.5v83.75H-6c3 0 5 4 6 5 1-1 3-5 6-5h32.5V-45.5"/><path d="M-41.5-45.5V40H-6c3 0 5 2.5 6 3.5 1-1 3-3.5 6-3.5h35.5v-85.5"/><path d="M-44.5-45.5v87.25H-6c3 0 5 .75 6 1.75 1-1 3-1.75 6-1.75h38.5V-45.5"/></g><path d="M0-40.5v82"/><path d="M-4 43.5c0-6 8-6 8 0 0 2-8 2-8 0z" class="F"/><path d="M6-41.35h3m3 0h2m1 0h3m3 0h7m1 0h4m-27 3.2h1m1 0h13m3 0h9m-27 3.2h4m1 0h3m3 0h7m1 0h4m1 0h3m-27 3.2h27m-27 3.2h1m1 0h9m1 0h5m1 0h9m-27 3.2h5m1 0h7m1 0h7m3 0h3m-27 3.2h1m3 0h5m1 0h3m3 0h7m1 0h3m-27 3.2h4m3 0h6m1 0h4m3 0h6m-27 3.2h1m1 0h9m1 0h5m1 0h9m-27 3.2h2m1 0h3m3 0h1m1 0h3m3 0h1m1 0h3m3 0h2M6-9.35h2m1 0h5m1 0h3m3 0h6m1 0h5M6-6.15h10m1 0h16M6-2.95h2m1 0h12m3 0h9M6 .25h4m1 0h5m3 0h7m1 0h6M6 3.45h27M6 6.65h9m3 0h15M6 9.85h3m1 0h2m1 0h6m1 0h4m1 0h8m-27 3.2h10m1 0h16m-27 3.2h27m-27 3.2h9m3 0h15m-27 3.2h1.5m1 0h19.2m3 0h.6m1 0h.7m-27 3.2h.5m1 0H33m-27 3.2h1.2m1 0H33m-27 3.2h27m-66-73.6h3m3 0h4m1 0h5m1 0h5m1 0h4m-27 3.2h18m1 0h8m-27 3.2h15m1 0h5m3 0h3m-27 3.2h18m3 0h6m-27 3.2h27m-27.1 3.2h3m3 0h4m1 0h4m3 0h7m1 0h1m-27 3.2h5m1 0h15m3 0h3m-27 3.2h4m1 0h3m3 0h7m1 0h5m1 0h2m-27 3.2h2m1 0h3m3 0h1.5m1 0h3m3 0h1m1 0h4m3 0h.5m-27 3.2h27m-27 3.2h6m3 0h8m3 0h5m1 0h1m-27 3.2h2m3 0h7m3 0h6m3 0h3m-27 3.2h27m-27 3.2h5m1 0h9m1 0h8m1 0h2m-27 3.2h11m3 0h13m-27 3.2h10m1 0h8m3 0h5m-27 3.2h5m3 0h17m1 0h1m-27 3.2h2m1 0h5m1 0h3m3 0h8m1 0h3m-27 3.2h3m3 0h8m3 0h5m3 0h2m-27 3.2h7m1 0h5m3 0h7m1 0h3m-27 3.2h9m3 0h5m1 0h7m1 0h1m-27 3.2h9.5m1 0h1m3 0h1m1 0h1m3 0h1m1 0h1m3 0h.5m-27 3.2h27m-27 3.2h27m-.5-73.6h.5c3 0 5 4 6 5 1-1 3-5 6-5h.5m-13 3.2h.5c3 0 5 4 6 5 1-1 3-5 6-5h.5m-13 3.2h.5c3 0 5 4 6 5 1-1 3-5 6-5h.5m-13 3.2h.5c3 0 5 4 6 5 1-1 3-5 6-5h.5m-13 3.2h.5c3 0 5 4 6 5 1-1 3-5 6-5h.5m-13 3.2h.5c3 0 5 4 6 5 1-1 3-5 6-5h.5m-13 3.2h.5c3 0 5 4 6 5 1-1 3-5 6-5h.5m-13 3.2h.5c3 0 5 4 6 5 1-1 3-5 6-5h.5m-13 3.2h.5c3 0 5 4 6 5 1-1 3-5 6-5h.5m-13 3.2h.5c3 0 5 4 6 5 1-1 3-5 6-5h.5m-13 3.2h.5c3 0 5 4 6 5 1-1 3-5 6-5h.5m-13 3.2h.5c3 0 5 4 6 5 1-1 3-5 6-5h.5m-13 3.2h.5c3 0 5 4 6 5 1-1 3-5 6-5h.5m-13 3.2h.5c3 0 5 4 6 5 1-1 3-5 6-5h.5m-13 3.2h.5c3 0 5 4 6 5 1-1 3-5 6-5h.5m-13 3.2h.5c3 0 5 4 6 5 1-1 3-5 6-5h.5m-13 3.2h.5c3 0 5 4 6 5 1-1 3-5 6-5h.5m-13 3.2h.5c3 0 5 4 6 5 1-1 3-5 6-5h.5m-13 3.2h.5c3 0 5 4 6 5 1-1 3-5 6-5h.5m-13 3.2h.5c3 0 5 4 6 5 1-1 3-5 6-5h.5m-13 3.2h.5c3 0 5 4 6 5 1-1 3-5 6-5h.5m-13 3.2h.5c3 0 5 4 6 5 1-1 3-5 6-5h.5m-13 3.2h.5c3 0 5 4 6 5 1-1 3-5 6-5h.5m-13 3.2h.5c3 0 5 4 6 5 1-1 3-5 6-5h.5m-13 3.2" class="B"/></g><path d="M-32.5-38.15v9.6h9.6v-9.6z" stroke="#fff" stroke-width="4" class="F"/><g class="D"><path d="M-32.5-38.15v9.6h9.6v-9.6zm1.5 8.5 3.3-6.6 3.3 6.6m-4.95-3.3h3.3" class="B"/><g class="F"><path d="M21 45c-7-5-6-12 1-13l-7-2c-15 6-9 14.5 4 15z"/><path d="M-37 19c5 0 7 3 10 6s3.5 2.5 7 5 4.5 6 9 12 13 7 15 7 8 .5 10-1 2-4.5 5.5-4.5 4.5 5 4.5 7-2 14-22 13.5-25-13-28.5-18-2-16-27-16c0-2 .5-3 .5-5s0-4 7-5 4-1 9-1zm46.5 9c0 2 1 3 1 4s3 .5 4 1.5 20 6 30 6 13-4 17.5-14c1.1-2.5 0-5.5-3-9S53.5 11 51 11s-9 2-10 2.5-10 3-11-3.5 7.5-7 10-5 5.5 3 8.5 3 6-2.5 8-4.5S63 .5 63-3s-2-4-2-7c-1-2 1 5.5-3 6.5s-3.5 2-3.5 2c-.5-3 2-7.5-4.5-9.5 4-5-5-5-3 0l2.5 3c.5 1 1 1 1.5 4.5-1.5 1-1.5 1.5-2.5 3.5s-7-.5-10 1-3-3 .5-3.5 2.5 0 3.5-1.5-3 0-4-1-3 .5-4 1-7.5 5-7 12 1.5 13.5 10 13S49 12 54 17c1.5 1.5 0 9.5-4 9.5-25 0-20-5-35-5-6 0-5.5 3-5.5 5z"/></g><path d="m59 16.5-5 .5"/><g fill="#002855"><path d="M-35.14 68.46c4.31-13.21 4.89-11.29 7.83-7.65 1.52 1.89 4.51-.38 4.42 1.67-.14 3.2-2.86 4.64-3.64 13.55-4.87 2.56-8.01.52-8.62-7.57zm68.96 9.01c-22.43 5.28-10.21-.22-10.89-4.35-2.43-14.83-.88-10.35 4.48-12.64 2.8-1.19 5.88-2.37 6.56-.48 5.58 21.88 5.97 16.15-.16 17.47z"/><path d="M-34.24 81.01c-25.29-5.73 4.13-11.49 3.34-14.84-2.6-11.03 1.35-8.99 3.59-6.41 1.59 1.84 4.51.68 4.42 2.73-.14 3.2-5.24.63-4.7 4.35 1.08 12.63 6.27 18.25-6.65 14.17zm69.3-.53c-22.43 5.28-4.47-9.65-10.1-13.96-6.35-4.86-2.29-5.19 2.7-6.41 2.95-.72 5.63-2 6.31-.11.92 2.55-2.05 1.49-3.48 5.32-1.02 2.72 29.49 7.13 4.56 15.16z"/><path d="M-33.14 81.84c.03-3.32 5.67-9.86 5.2-10.75-2.94-5.62 1.75-3.55 7.17-2.67 3.46.56 15.3 3.95 20.84 3.53 1.4-.11 5.09.62 9.69-1.69 8.33-4.16 8.98-.32 13.6-2.78 5.21-2.78 5.02.51 5.15 3.1.17 3.66-.56.16.61 4.67.63 2.42 4.5 3.19 3.88 7.37-.64 4.39-4.15 5.1-14.89 7.29-9.62 1.96-6.09 2.7-17.38 2.76-8.81.05-6-2.53-23.36-2.74-7.05-.08-10.56-2.8-10.5-8.08zM70.44-55.07c1.57 4.27 4.57 4.97 7.17 8.62 2.61 3.65 5.64 12.14 6.85 15.99 2.58 8.22 5.97 12.8 5.96 20.64-.02 9.25.47 20.47-.66 23.78s-4.17 11.47-5.63 20.85c-1.36 8.73-8.95 15.95-10.02 17.18s-4.2 9.73-12.41 16.15c-3.62 2.83-8.8 6.32-13.23 9.54-3.99 2.9-5.88 5.68-8.22 5.35s-3.94-3.18-4.4-6.78c-.29-2.25-.73-3.91-3.82-7.58-2.67-3.17-3.39-4.15 2.39-4.82 4.14-.48 9.9-8.72 13.28-9.78s10.22-11.4 16.58-25.1c4.62-9.98 7.28-23.95 4.66-42.19-2.47-17.2-5.83-18.57-11.29-26.84-4.41-6.68-7.52-11.62-13.5-14.8-.94-.5-3.62-1.14-6.98-4.27-1.94-1.81-4.82-2.95-7.35-4.41S9.97-71.38.5-71.65c-7.81-.22-19.21 1.43-37.15 11.16-6.11 3.32-11.99 8.28-19.6 16.88-3.14 3.55-4.09 7.93-5.88 11.74-.99 2.12-2.86 3.82-4.05 5.69-4.52 7.12-5.43 20.02-5.44 25.85-.03 9.8 3.61 16.83 3.71 21.52.16 7.17 4.23 12.06 9.27 20.65 2.99 5.1 9.2 10.91 12.73 13.27 3.73 2.48 5.55 5.63 10.61 8.05 8.41 4.02 1.87 5.24.49 9.46-.76 2.33-1.57 13.24-8.02 9.13-3.14-2-8.42-4.63-13.35-8.69-1.49-1.23-9.6-6.39-12.87-13.36-.99-2.11-5.77-7.14-9.95-13.68-3.75-5.86-5.74-12.05-8.85-19.54C-91 18.88-90.78 7.49-91.51-.3c-1.63-17.56 4.62-23.34 4.62-24.78 0-5 4.95-17.01 6.62-19.25 1.67-2.25 2.62-4.85 7.52-11.86 1.12-1.6 10.72-10.05 15.24-14.36 7.21-6.87 29.22-16.96 33.52-17.02 6.79-.1 11.18-3.15 21.49-3.72 6.68-.37 22.3 4.02 29.61 5.51 13.3 2.71 12.02 5.79 23.95 12.28C63-67.02 67.97-61.74 70.44-55.04z"/></g><path d="m0-77 4.408 8.932 9.858 1.432-7.133 6.953 1.684 9.818L0-54.5l-8.817 4.635 1.684-9.818-7.133-6.953 9.858-1.432z" stroke-width=".75" class="F"/></g><g class="C"><path d="M0-62v-15l4.408 8.932zM0-62l14.266-4.635-3.567 3.477zM0-62l7.133 2.318 1.684 9.818zM0-62v7.5l-8.817 4.635zM0-62l-14.266-4.635 9.858-1.432z"/><circle r="2.1" transform="rotate(37.5 -119.302 -40.497)"/><circle r="2.1" transform="rotate(-37.5 119.302 -40.497)"/><circle r="2.1" transform="rotate(82.501 -46.183 -40.501)"/><circle r="2.1" transform="scale(-1) rotate(35 -128.444 -40.499)"/><circle r="2.1" transform="scale(-1) rotate(3.497 -1326.63 -40.564)"/><path d="m-57.173 49.327.551.192.154-.128-2.304-2.766-.154.128.09.576-6.838 5.697-2.368-2.843.192-.551-.128-.154-2.382 1.984 7.041 8.451 2.382-1.984-.128-.154-.576.09-2.368-2.843zm-5.976-7.582.506.289.174-.098-1.762-3.14-.174.098-.017.583-9.593 5.383-.506-.289-.174.098 1.762 3.14.174-.098.017-.583zm-5.383-9.593.017-.583.174-.098 1.762 3.14-.174.098-.506-.289-9.593 5.383-.017.583-.174.098-1.762-3.14.174-.098.506.289z"/><path d="m-69.324 44.637 2.267-1.272-4.894-8.721-2.267 1.272zm-.993-16.781.441.381.19-.062-2.967-9.025-2.945.968.062.19.569.129 1.843 5.605-1.995.656-1.374-4.18-2.47.812 1.374 4.18-1.995.656-1.843-5.605.381-.441-.062-.19-2.945.968 2.967 9.025.19-.062.129-.569z"/></g><path d="m-87.101.097 5.993.283c6.293.297 6.689-8.094.396-8.391l-5.993-.283" class="B D E"/><g class="C"><path d="m-86.663 1.419-.323.485-.2-.009.17-3.596.2.009.276.514zm.518-10.988-.276-.514-.2-.009-.17 3.596.2.009.323-.485zm11.448-2.708.175.556.194.047.724-3.014-11.669-2.801-.724 3.014.194.047.408-.416zm2.567-10.696.408-.416.194.047-.724 3.014-11.669-2.801.724-3.014.194.047.175.556z"/><path d="m-85.88-14.961 13.629-5.367.607-2.528-13.629 5.367zm15.297-11.87.093.576.186.074 1.337-3.343-.186-.074-.464.353-10.213-4.085-.093-.576-.186-.074-1.337 3.343.186.074.464-.353zm-8.649-9.779 13.253.925 1.276-2.265-7.656-10.857-1.276 2.265 7.656 10.857 1.276-2.265-13.253-.925zm18.503-8.473-.092.576.153.129 6.106-7.277-2.375-1.993-.129.153.19.551-3.792 4.52-1.609-1.35 2.828-3.371-1.992-1.671-2.828 3.371-1.609-1.35 3.792-4.52.576.092.129-.153-2.375-1.993-6.106 7.277.153.129.551-.19z"/></g><path d="m-51.426-54.754-6.878-8.196 3.217-2.7c4.213-3.535 7.234.065 3.021 3.6l-3.217 2.7m2.834-2.378 6.238.9" class="B D E"/><g class="C"><circle r="1.3" transform="rotate(-40.002 -106.664 33.064)"/><path d="m-52.744-54.301-.19.551.129.153 2.758-2.314-.129-.153-.576.092z"/></g><path d="M-42.283-65.293s-.419 1.864 3.902-.651 1.957-6.577-2.364-4.062-6.686-1.547-2.364-4.062 3.902-.651 3.902-.651" class="B D E"/><g class="C"><circle r="1.3" transform="rotate(-30.197 -142.14 45.714)"/><circle r="1.3" transform="rotate(-30.197 -158.071 35.301)"/><path d="m-30.697-68.99-.343.472.078.184 3.314-1.407-.078-.184-.577-.081-4.298-10.126.343-.472-.078-.184-3.314 1.407.078.184.577.081zm9.015-3.341-.4.424.054.193 3.466-.974-.054-.193-.563-.154-2.408-8.568 3.562-1.001.424.4.193-.054-.839-2.984-10.59 2.977.839 2.984.193-.054.154-.563 3.562-1.001zm6.621-13.565.021.199 1.057.492-.581-.743 4.961 7.02 2.586-.272-4.961-7.02.052.497.466-.351-.021-.199z"/><path d="m-3.127-87.15.021.199-.932.701.414-.848-3.393 7.898-2.586.272 3.393-7.898.052.497-.529-.246-.021-.199z"/><path d="m-9.613-79.028.428 4.077-.466.351.021.199 3.58-.376-.021-.199-.529-.246-.428-4.077z"/></g><circle r="4.7" transform="rotate(14.396 320.578 40.522)" class="B D E"/><path d="m28.075-70.23-.58.059-.085.181 3.257 1.533.085-.181-.325-.484 1.575-3.348 4.886 2.299 1.107-2.353-4.886-2.299 1.107-2.353 5.338 2.512.059.58.181.085 1.32-2.805-8.596-4.045-.085.181.325.484z" class="C"/><circle r="4.7" transform="rotate(45.396 96.822 40.506)" class="B D E"/><path d="m59.098-58.279 4.564 4.628-2.848 2.809-4.564-4.628z" fill="#002855"/><g class="C"><path d="m58.576-47.221.943-.038-1.059-.488-.165.113 2.029 2.974.165-.113-.068-1.164-.379.864 3.233-1.116 1.465 2.148 2.148-1.465-.864-1.266 6.185-1.758-1.747-2.561-.165.113.068 1.164.379-.864z"/><path d="m65.338-37.308.379-.864.068 1.164-.165.113-2.029-2.974.165-.113 1.059.488-.943.038 2.219-2.603-1.465-2.148 2.148-1.465.864 1.266 3.894-5.117 1.747 2.561-.165.113-1.059-.488.943-.038zm2.087 2.97-.473-.341-.184.079 4.136 9.651 2.849-1.221-.079-.184-.578-.079-2.718-6.342 8.64-3.703-1.221-2.849-.184.079-.079.578zm4.675 11.9-.428-.396-.192.056 1.01 3.455.192-.056.148-.564 10.558-3.087.428.396.192-.056-1.01-3.455-.192.056-.148.564zm1.906 6.828-.371-.45-.198.03.532 3.56.198-.03.223-.539 3.659-.547.798 5.341 2.571-.384-.798-5.341 2.571-.384.872 5.835-.45.371.03.198 3.066-.458-1.404-9.396-.198.03-.223.539z"/></g><g class="B D E"><circle r="4.7" transform="rotate(91.198 39.66 40.502)"/><path d="m74.067 12.521 10.434 2.37-.93 4.095c-1.218 5.363-5.801 4.322-4.583-1.041l.93-4.095m-.82 3.608-5.513 3.054"/></g><g class="C"><circle r="1.3" transform="scale(-1) rotate(-77.202 -49.642 35.833)"/><path d="m74.842 11.364-.182-.554-.195-.044-.797 3.51.195.044.403-.421zm-3.905 15.064-.065-.579-.182-.083-1.291 2.819 10.91 4.996 1.291-2.819-.182-.083-.481.33zM66.358 36.43l-.481.33-.182-.083 1.291-2.819 10.91 4.996-1.291 2.819-.182-.083-.065-.579z"/><path d="m81.393 31.216-14.407 2.642-1.082 2.364 14.407-2.642zM64.028 40.03l.021-.583-.168-.109-1.961 3.019.168.109.524-.256 9.225 5.991-.021.583.168.109 1.961-3.019-.168-.109-.524.256zm-3.645 4.857.273.903.207-1.148-.15-.132-2.371 2.709.15.132 1.11-.357-.931-.151 1.89 2.851-1.713 1.956 1.956 1.713 1.01-1.153 3.251 5.548 2.042-2.332-.15-.132-1.11.357.931.151z"/><path d="m52.479 53.916.931.151-1.11.357-.15-.132 2.371-2.709.15.132-.207 1.148-.273-.903 3.076 1.497L58.98 51.5l1.956 1.713-1.01 1.153 5.929 2.488-2.042 2.332-.15-.132.207-1.148.273.903z"/></g><path d="m-24.762 76.187.958-3.574 4.057 1.087c5.312 1.423 2.88 10.503-2.433 9.079l-4.057-1.087.958-3.574z" class="B D E"/><g class="C"><path d="m-27.7 82.129-.561.16-.052.193.966.259zm2.847-10.625-.405-.419.052-.193.966.259zm8.295 14.116.594-.733-1.066.474-.024.198 3.573.439.024-.198-.919-.717.399.855 1.296-3.166 2.581.317.317-2.581-1.522-.187 2.761-5.806-3.077-.378-.024.198.919.717-.399-.855z"/><path d="m-4.648 87.082-.399-.855.919.717-.024.198-3.573-.439.024-.198 1.066-.474-.594.733-.491-3.385-2.581-.317.317-2.581 1.522.187-1.274-6.302 3.077.378-.024.198-1.066.474.594-.733zm-.386-11.924L.978 87.004l2.599-.068 5.384-12.145-2.599.068L.978 87.004l2.599-.068-6.012-11.847zm17.282 10.48-.447.375.031.198 3.556-.563-.031-.198-.541-.218-1.721-10.865.447-.375-.031-.198-3.556.563.031.198.541.218z"/></g><path d="M18.245 82.385s-.893 1.689 3.936.395 3.613-5.834-1.216-4.54-6.046-3.246-1.216-4.54 3.936.395 3.936.395" class="B D E"/><g class="C"><circle r="1.3" transform="rotate(-14.999 322.035 -28.102)"/><circle r="1.3" transform="rotate(-14.999 293.266 -52.908)"/><path d="m-40.213 27.71-.318.044-.043.101 5.316 2.256.666-1.569-.101-.043-.259.189-3.493-1.483 2.02-4.759-1.569-.666-.043.101.189.259zm5.916 2.516-.319-.034-.066.088 4.173 3.144 1.026-1.362-.088-.066-.297.12-2.592-1.953.695-.922 1.933 1.456.861-1.142-1.933-1.456.695-.922 2.592 1.953-.034.319.088.066 1.026-1.362-4.173-3.144-.066.088.12.297zm5.429 4.974-.295-.125-.089.065 1.164 1.602.089-.065-.028-.319 3.96-2.877 1.196 1.646-.125.295.065.089 1.379-1.002-3.556-4.895-1.379 1.002.065.089.319-.028 1.196 1.646zm5.48 8.449-.293-.131-.09.063 1.136 1.622.09-.063-.023-.32 4.01-2.808 1.167 1.667-.131.293.063.09 1.397-.978-3.47-4.956-1.397.978.063.09.32-.023 1.167 1.667zm2.627 4.178-.303-.105-.084.071 1.273 1.517.084-.071-.05-.317 4.634-3.889.303.105.084-.071-1.273-1.517-.084.071.05.317zm3.889 4.634.05.317-.084.071-1.273-1.517.084-.071.303.105 4.634-3.889-.05-.317.084-.071 1.273 1.517-.084.071-.303-.105z"/><path d="m-17.72 45.634-1.095.919 3.535 4.213 1.095-.919zm3.318 8.92-.321-.006-.058.093 4.431 2.769.904-1.446-.093-.058-.286.146-2.752-1.72.612-.979 2.052 1.282.758-1.213-2.052-1.282.612-.979 2.752 1.72-.006.321.093.058.904-1.446-4.431-2.769-.058.093.146.286z"/></g><path d="m-7.086 58.59 1.524-5.685 2.231.598C-.408 54.286-1.078 56.783-4 56l-2.231-.598m1.966.527 1.562 3.095" class="B D G"/><g class="C"><circle r="1.3" transform="scale(.55) rotate(15.004 -409.884 34.992)"/><path d="m-7.705 58.139-.308.088-.028.106 1.913.513.028-.106-.223-.231zm7.476 1.659-.288.14-.01.11 5.205.455.149-1.699-.11-.01-.188.26-3.233-.283.101-1.151 2.411.211.125-1.425-2.411-.211.101-1.151 3.233.283.14.288.11.01.149-1.699-5.205-.455-.01.11.26.188z"/></g><path d="m10.026 57.028-1.236-3.06 2.142-.865c2.805-1.133 3.773 1.264.968 2.397l-2.142.865m-.268-.663 1.236 3.06 2.142-.865c2.805-1.133 1.837-3.53-.968-2.397l-2.142.865" class="B D G"/><path d="m10.228 59.438-.193.256.041.102.918-.371zm-2.266-5.61-.317-.05-.041-.102.918-.371zm9.542 2.349-.146.286.058.093 4.431-2.769-.904-1.446-.093.058.006.321-2.752 1.72-.612-.979 2.052-1.282-.758-1.213-2.052 1.282-.612-.979 2.752-1.72.286.146.093-.058-.904-1.446-4.431 2.769.058.093.321-.006zm4.352-23.564-.295.125-.015.109 5.719.804.237-1.688-.109-.015-.202.249-3.758-.528.72-5.12-1.688-.237-.015.109.249.202zm6.915.942-.299.115-.019.108 1.95.344.019-.108-.242-.21 1.051-5.958.299-.115.019-.108-1.95-.344-.019.108.242.21z" class="C"/><path d="M37.846 30.7c-3.391-3.53-6.618 3.624-2.806 4.16l1.907.267.36-2.56" class="B D E"/><g class="C"><path d="m36.56 32.741-.249-.202.015-.109 1.961.275-.015.109-.295.125zm3.715 3.284L40 36.19v.11h1.98v-.11l-.275-.165v-6.05l.275-.165v-.11H40v.11l.275.165zm6.05 0 .275.165v.11h-1.98v-.11l.275-.165v-6.05l-.275-.165v-.11h1.98v.11l-.275.165z"/><path d="M40.55 32.285v1.43h5.5v-1.43zm9.501 3.291-.26.188.01.11 1.972-.173-.01-.11-.288-.14-.427-4.876 2.027-.177.188.26.11-.01-.149-1.699-6.027.527.149 1.699.11-.01.14-.288 2.027-.177z"/></g></g></svg>