<svg xmlns="http://www.w3.org/2000/svg" height="249.74" viewBox="0 0 197 249.738" width="197"><path d="M195.9 144.185 195.893 5.86C84.77-4.854.905 5.86.905 5.86v138.35c8.855 93.765 96.676 104.779 97.51 104.631 15.686-2.831 89.311-17.637 97.49-104.652" fill="maroon"/><path d="M79.746 13.757c-4.996-.02-10.96.864-17.737 3.478-6.38 2.46-21.906.4-21.906.4v59.837c13.615.925 31.35-6.087 40.13-5.503 9.08.603 16.815 4.8 16.815 4.8v-58.55s-6.31-4.419-17.302-4.462m38.814.058c-9.6.305-18.777 4.609-18.777 4.609.017 2.028 0 58.39 0 58.39s6.007-4.845 18.417-4.845c6.02 0 29.69 6.495 41.1 5.716V18.142s-16.8 2.378-31.33-2.99c-2.97-1.096-6.21-1.438-9.41-1.337m-97.31 14.43c-8.3 0-8.475 12.712 0 12.712 8.341 0 8.341-12.712 0-12.712m140.38 2.332v11.334c2.94.869 11-3.729 14.21-5.135 2.3-1.001 5.55-.347 5.71.785.1.728.17 1.244.22 1.579-.04-.335-.11-.851-.21-1.579 0 0-.36-6.676-7.52-6.676-2.33 0-5.16 2.837-12.41-.308M29.95 31.65v7.27h7.389v-7.27zm-8.7 21.99c-8.67 0-8.67 12.707 0 12.707 8.394 0 8.343-12.707 0-12.707m140.181.332v11.334s6.33-.05 13.35-4.572c2.11-1.359 5.22-.804 6.77.427h.01s-.95-7.421-7.23-6.501c-11.57 1.687-12.9-.688-12.9-.688m-131.48 3.003v7.27h7.389v-7.27zm68.675 27.251q-.477-.001-.97.069c-1.873.21-4.15 1.315-4.716 3.295-1.142 1.125-1.089-1.894-3.407-.57-.988 1.341 1.587 4.296.977 4.477-2.527.768-2.212-3.79-3.65-3.907-2.075.735-7.304 5.515-2.165 9.299-.159-2.554 4.678-5.335 6.278.306 4.85-.37 6.487 2.57 7.085 4.232 7.145 1.28 5.095 6.01 4.885 6.01-.67-1.02-3.75-5.76-8.785-2.48-1.165.75-3.184 1.49-4.18.5.1 1.59 2.103 3.02 3.473 2.64 4.474-1.22 5.607 2.95 2.18 4.08.734 1.14 2.143 1.07 3.438.28 1.924-1.17 2.154-2.21 2.854-2.92 1.21 5.83-6.172 6.4-8.528 6.75.36 1.24 1.155 1.51 2.644 1.94-7.791.27-9.321 7.58-8.863 11.8 1.759.13 4.463-3.69 4.23-1.5-5.518 5.86-7.383 13.7-4.476 18.69 1.383-.57 1.81-2.09 2.3-3.34.211-.14 3.044 1.12-1.484 6.55-.316 1.41-1.908 5.67 1.584 6.69 1.333-1.56 1.138-2.94 1.428-4.54 1.012-.41 1.683 2.87 1.29 3.87-4.553 1.88-3.988 15.85 1.287 23.35-2.442-5.45-2.115-12.45 0-18.04 1.628-4.32 5.205-14.02 5.3-13.91 2.028 2.49 4.598 13.19 4.598 17.62 2.84-2.48 3.4-5.18 5.73-7.01 1.1 3.89 1.55 6.45 2.43 9.89 1.13-3.35 4.12-7.14-.15-18 .88-.8 2.5 3.76 3.01 3.54.39-.15.97-2.43-.48-6.67-3-2.81-3.67-6.92-3.2-7.23.38-.25 1.73 4.27 3.33 4.49.32-3.5 1.17-7.08.91-9.81-.06-.71-1.23-4.33-4.55-7.32-1.92-1.73-2.66-5.35-2.49-6.08 1.86 1.71 1.45 2.97 3.03 3.66.66-1.48.2-6.93-1.71-9.32-1.09-1.81-.57-1.56.74-.46 1.71 2.03.89 1.87 2.36 2.72 3.24-7.64.3-9.12.53-9.66.2-.49 2.5 3.56 4.45 2-3.18-1.68-3.1-4.24-3.46-7-.27-2.18-1.68-3-1.14-3.533 3.18 2.394 4.05-.259 4.15-.791-.61.347-3.44.725-3.78-3.675-.14-1.733-2.8-2.498-2.8-2.498 1.64-.312 6.88-.604 5.63-5.805-.64 1.225-2.19 3.163-5.45 2.401-.01.002 2.09-.565 1.71-2.825-4.72 2.649-8.61-2.246-13.405-2.255m-38.537 3.7a11.5 11.5 0 0 0-2.532.318c-3.558.817-13.473 6.034-14.846.362-3.572 6.329 3.496 5.223 5.628 5.093-.84.585-1.905 1.532-4.538.966-5.583 3.678-25.984 16.643-31.875 19.903 7.907 3.68 20.077-3.99 20.25-3.99l.146.14c-.028 5.71-16.065 13.89-22.94 17.58 10.624 3.66 20.676-6.19 19.47-3.8-1.441 2.8-14.41 13.99-20.063 19.97 4.403 1.21 8.447-2.34 11.638-5.06 3.482-2.96 9.312-10.42 8.425-6.72-9.426 11.63-16.846 35.8-12.275 37.35 2.617-5.48 13.46-33.4 14.141-33.27.718.14-.85 7.37-1.09 12.16-.532 10.52-.605 15.5 1.675 25.86 1.17-1.6 2.299-1.57 4.151-1.44.229-1.01.16-.75-1.003-2.29-3.014-3.98.447-9.42-1-12.74-1.208-2.78-1.89-.56-2.437-3.44.847-.77 3.088-1.01 4.01-1.15.984-10.81 4.6-16.31 3.253-9.49-.691 3.45-1.744 9.18-1.245 9.35.501.17.546.16.977.39.198.11 18.159-29.44 8.2-8.96-1.305 2.68-6.607 9.91-6.607 9.91 1.4 1.44 2.715 3.11 2.885 4.13.045.27 24.069-31.62 7.705-5.92-1.001 1.57-5.913 6.84-7.168 8.37-.166.2.454 5.97.454 5.97 2.496-1.73 6.069-5.22 7.734-7.44-.22-3.26.541-2.83.721-6.02.763-.49 1.755.87 2.959 1.95.57.51 16.491-27.21 6.505-6.42-1.603 3.34-5.149 7.3-5.313 7.62.673.72 1.672 3 2.815 5.65.045.11 21.293-30.65 8.382-7.41-1.018 1.83-7.415 9.53-7.334 9.73a251 251 0 0 1 2.944 7.59c-.39-3-1-8.91 5.217-13.78.808 5.33 2.239 5.55 4.093 7.19.812.72 2.332 3.76 2.512 1.17.529-7.58-1.934-7.39-3.769-10.61-.437-.78-.357-2.51-.015-2.41 15.303.46 14.795 14.79 17.35 14.78-1.163-3.65-1.48-7.24-.102-10.18-4.1-2.91-3.074-7.88-2.29-10.03-4.608-4.77-1.963-14.9.237-17.04-2.962-4.31.693-7.25-.093-9.9-1.247-9.36-9.592-6.57-11.462-15.47-1.305 1.58-3.716 6.97-2.586 8.77 1.298 2.05 4.08 2.23 4.248 3.74.07.64.277 2.43-.183 2.81-1.581.28-2.655-1.17-4.275-1.81-3.241-1.28-11.086 4.09-11.561-.65-.3-2.99 1.025-.84.88-3.6-.131-2.85-1.569-.84-1.588-4.52-.016-2.69 3.233-3.54 3.468-4.62.58-2.67 5.43 3.93 8.274-3.07-1.652.23-5.007-.93-4.69-2.56.766-3.968.896-13.044-6.467-13.013m83.543.05c-.78.024-1.47.136-2.05.361-1.78.703-2.12.598-4.03 2.08-.84-.352-3.17-1.843-6.47 2.132-1.02 1.23-2.24 2.663-2.3 3.72-.15 2.66.05.136.71 2.66.26 1.06-.94 2.998-5.79 4.628-1.88.63-1.41 2.48-1.41 2.48.93-.44 2.4-1.49 4.67-.42 4.44 2.08 5.31-1.21 8.07-3.55 0 0-.76 2.95 0 3.11 3.44.71 2.29 3.29 1.86 3.68-4.35 3.88-2.53 5.35-4.08 7.74-1.46 2.26-3.72 3.12-7.09 3.01-4.63-.15 6.08-7.16-4.17-10.07 1.61 2.68 2.26 4.84-1.33 6.92-2.25 1.31-1.11 7.98-6.9 4.89 0 .01-.47 4.94-1.14 5.15 7.87 6.89 3.47 10.65 3.87 20.5 2.46 6.26-.24 9.25-.86 9.59.39 4.25.79 6.58 3.44 10.03 1.93 2.51-.17 6.36 1.79 9.04 1.81-6.39 3.74-3.73 4.26-12.62.72-1.49 3.71-4.13 5.41-4.3-.02 5.37 1.95 10.25 1.53 12.51 0 0 4.52-.83 5.92-.33 1.11.38 1.97 1.84 2 2.73-1.54.96-1.54.59-3.86 2.29-4.06 2.95-5.93 8.98-5.93 8.99-.01 0 9.54-7.61 10.22-8.99.55-1.09 1.07-2.76 1.57-4.49.06-.19-4.92-3.09-6.29-5.75-4.26-8.3 6.62 4.91 6.87 3.76.64-2.87 2.64-5.57 2.64-5.57-.69-.82-2.4-1.32-5-5.91-5.95-10.47 6.9 4.48 6.9 4.48 3.4-1.95 3.42.65 3.85 3.41.04.26 5.78 4.49 6.06 4.76 1.62-1.51 2.8-3.56 3.46-4.96.08-.19-10.37-9.46-12.16-12.53-14.41-24.71 11.66 10.97 12.89 9.99.69-1.94.93-4.59.85-8.2 0-.08-4.9-3.47-8.04-8.65-12.11-19.99 7.94 5.97 7.94 5.78-.24-4.28-3.75-22.85-1.32-17.27 1.24 2.86 5.14 14.73 4.42 26.81 1.35-2.19 6.94-4.43 9.06-4.98-.48-17.93-11.48-37.82-8.48-34.13 7.49 9.26 9.89 29.32 15.03 46.61 0-.01 3.3 1.68 2.6-20.24-.15-4.45-1.96-10.35-4.16-14.47-4.35-8.14-13.17-21.87-12.91-21.96 2.12-1.74 7.3 10.1 11.8 14.76 2.92 3.01 11.02 5.96 11.58 5.57-6.5-12.6-22.24-24.47-20.6-25.94 11.6 10.86 15.26 11.39 15.74 10.81l-10.44-10.14c-2.95-3.96-6.86-7-6.31-6.87 4.66 1.03-2.43-3.875-7.9-5.372-.99-.265-2.57-.354-2.62-.848-.09-.842 1.28-.482 2.43-.842.75-.218 1.51-.795 1.53-1.874-2.09.46-4.23-.025-6.02-.838-3-1.393-7.93-2.968-11.31-2.867M78.97 95.149s-3.4 2.52-1.85 5.157c3.534 6.04 13.39-1.452 18.723 2.23-.493-1.1-1.33-2.15-2.52-2.694-4.96-2.363-14.458 2.734-14.354-4.693m20.15 57.787c-10.315 16.19-1.662 35.09-2.306 34.85-4.481-7-7.744-7.28-8.72-12.66-.529-2.92-5.846-18.94-15.608-19.23 4.922 4.24 3.733 4.83 4.059 11.77-3.137 17.39 21.188 19.19 19.559 28.21-3.335-5.35-8.421-7.6-16.088-11.77-3.398-2.7-7.227-3.88-7.436-8.09.408-3.06.583-2.43.059-6.41-.379-2.84-3.171-1.12-5.225-7.05-4.391 3.97-2.783 8.47-2.425 11.04.104.72.604 3.42-.073 5-1.565-1.07-2.645-3.29-4.388-5.52-3.152-4.03-3.115-8.92-4.695-12.32-.73-1.58-1.778-3.72-2.393-3.75l-.114.06c-.768 6.32-.393 11.84 2.472 16.58 0 0-.79 1.36-1.43 1.71-2.72-.72-6.593-3.02-8.165-7.46-3.388 2.85-.985 6.53-1.145 6.47-7.615-3.9.085-19.02-10.757-18.58 2.672 2.91.983 6.65.75 10.15-.061 5.66 7.14 10.07 7.14 10.07-8.03-2.71-9.683 1.05-9.587 1.05 0 0 11.835 5.14 30.517 7.08 2.4.26 5.828 3.07 5.26 3.07-2.395-.18-7.146-3.27-13.996 2.81 4.025.11 6.791 6.67 13.35 2.9 16.906-4.79 23.171 3.61 25.923 5.76-.59 1.06-12.99-7.79-22.835-1.92-5.238 3.12-13.64.29-20.227-4.63 2.662 6.79 13.984 14.43 17.718 14.44 4.594.01 10.454-5.99 17.114-5.66 10.662.53 12.146 10.05 10.965 9.31 0 .01-8.388-13.87-19.17.95 5.037-2.31 11.777-1.72 17.677 1.08.796.38-1.446 2.86-3.031 4.66-1.036 1.17-5.534 7.84-10.398 1.28-.727-.98-3.046-7.07-18.258-5.78 5.745 2.59 12.087 9.39 15.22 12.49 7.966 7.89 20.015-9.57 20.475-7.62 0 3.92 2.015 5.83 3.075 7.95 2.67 5.34-3.392 4.45-6.675 3.07 0 0 6.285 9.8 11.555 4.35 5.83-6.04-7.635-10.6-3.36-15.41 2.41-2.7 10.87 6.05 14.7 6.08 10.34 1.15 9.8-8.67 15.26-8.38-5.14-5.21-10.6-2.37-11.74-1.04-3.44 4.02-7.44 1.32-10.2-.84-1.52-1.99-4.05-2.3-6.31-1.7-1.07.09 2.17-3.79 6.39-2.97 9.51 1.84 19.04-1.57 21.39-2.88 3.82-2.16 5.97-5.8 10.25-9.87-1.34.25-9.25 4.65-11.79 5.93-7.62 3.84-12.39-1.13-13.24-1.11-1.47.04-1.09-1.11 1.21-1.85 7.81-1.74 13.21-8.64 20.67-11.35 8.22-3.68 18.66-1.19 25.62-8.07 2.23-1.88 3.51-5.08 6.38-6.03-2.17-1.98-4.29 1.97-5.4.61 1.99-3.16 3.26-5.55 3.47-9.48.11-2.13 2.57-4.1 3.15-5.27-2.36.35-8.69 4.07-9.96 6.22-4.25 5.62-4.03 10.88-21.8 18.72-.89 0 3.28-3.03 4.47-6.54.56-1.64 2.9-9.26 1.29-12.94-3.68 3.73-2.92 4.95-3.96 7.72-2.65 7.26-4.1 7.95-10.73 12.43-.88.6-5.97 8.46-12.56 8.83.66-.18.28-1.82 2.51-3.28 7.39-4.83 4.57-15.28 14.22-17.02-4.81-1.7-8.1 2.97-8.98 2.5 3.88-5.38.47-9.93 1.03-14.33-1.29.69-2.59 2.26-2.71 3.56-.73 7.83-4.38 9.2-4.75 12.57.77 5.58-3.71 9.93-7 13.85-.64-3.25.22-6.14 4.31-8.83 2.26-1.48-.21-5.94-.21-5.94-.92 4.88-3.66 6.37-5.37 6.61-1.48.21 5.23-6.82 4.45-13.25-.35-2.86-1.16-1.59-1.62-4.8-5.8 6.43-1.56 10.42-7.49 17.84-2.81 3.51-3.87 9.7-4.24 9.85.06-9.2.36-6.51 4.45-13.99 3.37-6.15-.19-11.89-.64-15.6-7.37 5.07-6.76 14.86-6.95 12.74-.18-2.08-1.103-5.75-.11-9.08 1.64-5.51-1.842-13.92-1.842-13.92m-47.672 10.3c-2.775 2.77-3.741 2.84-3.588 4.04.628 1.7 1.847 2.89 3.15 4.34 1.64 1.34 2.243 2.54 1.039-1.36-.74-2.59-.561-4.47-.601-7.02m98.895 4.43c-.03.59-.05.51-.15 1.21-.24 1.62-.24 2.89-.75 4.73-.05.18 1.82.94 2.67 1.67 1.2-1.12 2.28-1.68 3.54-3.26-.28-.17-5.3-4.54-5.31-4.35m-1.3 7.46c-.06-.01-.1 0-.11.03a33 33 0 0 1-1.3 2.92c-.5 1.01 1.01.29 3.33-1.75 0 0-1.48-1.11-1.92-1.2m19.64 3.02c-1.81 2.37-4.48 4.43-7.15 5.5-1.88 5.95-.99 12.1 1.19 8.93 3.12-4.46 4.9-9.25 5.96-14.43m-136.47.56c1.247 4.21 2.167 7.89 4.504 12.33 1.332 2.53 3.65-3.57 1.276-9.78-1.915-.82-4.005-1.35-5.78-2.55" fill="#fff"/><path d="m125.49 18.68-1.38 1.175.03 1.66.86.85h.85l1.03-.895v-1.44zm-5.23 1.837a35 35 0 0 0-3.47.294c-.94.144-.94.603-.15.699.78.079.93.241 1.34 1.295.38 1.057-1.51 5.86-1.97 6.99-.56-.824-2.55-5.215-2.55-5.813 0-.425.88-.853 1.26-.956.73-.226.72-.734.16-.845-1.56-.22-7.06-.704-8.03-.825-.71-.061-1.03.753-.17.753.88.023 1.79-.238 2.76 1.173 1.11 1.597 4.59 9.092 5.43 12.243.41-.663 3.89-10.75 4.09-11.816.24-1.045.98-2.067 2-2.369 1.06-.284.96-.731.18-.804a7 7 0 0 0-.88-.017m15.1.887c-.13.015-.28.135-.37.391-.23.67-2.12 3.27-4.07 4.11-1.01.395 1.22 1.32 1.07 1.278-.01 2.506.35 6.262.88 7.766.33.898 1.35 2.355 2.05 1.91.46-.285 1.44-2.234 1.75-2.481.54-.443.01-1.194-.44-.74-.5.437-.93-.25-1.07-.705-.17-.446-.63-5.956-.39-6.063 0 0 4.44-.54 4.89-.54.3 0 .31-.972 0-.972-.57 0-4.33.077-4.42-.134-.28-.807-.35-1.787.3-3.15.2-.424.03-.694-.18-.67m-61.844.84c-1.356.038-4.513 1.571-5.067 5.585-.531 3.849 3.084 5.931 5.947 6.046.957 0 2.149-1.235 2.742-1.525 1.267-.623.795-1.24-.652-.908-3.158.797-4.637-1.738-4.955-2.414 1.278-1.306 3.45-3.441 4.774-4.528-.872-.806-1.236-2.14-2.789-2.256m11.067.95c-2.125-.085-4.523 1.835-5.304 3.043-1.035 1.597.234 2.997 1.586 4.035-.862.74-2.064 1.881-3.175 2.922.443.483 2.878 1.635 4.243 1.601 2.062-.046 3.97-1.11 5.147-2.055 2.148-1.7 1.403-3.505-.781-4.778-.209-.125-.41-.164-.616-.203 1.355-1.075 2.537-2.034 2.842-2.41-.875-.6-1.829-2.06-3.942-2.155m-12.183.355c.359.885 1.271 1.521 1.783 1.829-.9.876-2.298 2.461-2.88 2.89-.8-2.568-.497-3.45 1.097-4.719m-7.025.038c-.517.431-1.709 1.146-2.372 1.515-.52-.593-1.16-.594-2.2-1.408-.575.44-1.85 1.375-2.538 2.206 1.21.354 2.123.425 2.2 1.46.044.847-.09 6.048-.02 7 .648.143 1.44.078 2.36.032.073-.747.039-7.272.039-7.993.347-.195.704-.385.875-.544.381.292 1.137 1.393 1.746 1.753.468-.348 1.669-1.108 2.183-1.625.542-.53-.034-.915-.513-.454-.359-.429-1.272-1.367-1.76-1.942m59.245.207-.64.07-2.94 2.584c-.3.45.49.45.88-.086l2.14 1.225.09 5.733c.16.687.73 1.35 1.58 2.198h1.71l1.84-2.388c-1.34-.23-1.88-.476-2.82-1.536l.04-5.925zm-68.862.431c-.168-.013-.34.07-.348.285-.037.792-.505.86-1.111.667-1.258-.375-4.044-.975-5.666-.043-1.425.838-3.61 2.801-3.572 5.275.042 4.069 1.58 4.41 3.363 5.505 1.67.983 3.977.348 6.087-.262.838-.228.942.3 1.344.893.681.913 1.231.33.745-.41-.187-.238-.542-.62-.557-1.103 0-.317.04-3.647.04-4.058 0-.395-.785-.352-.785 0-.035.59.05 1.595-.478 2.413-1.461 2.258-4.24 3.188-6.192.421-.667-.92-.824-2.313-.907-3.305-.132-1.326.872-3.043.929-3.2 2.488-3.256 5.938-.838 6.218.487.185.884.382 1.967.382 2.534-.022.378.794.34.809-.052 0-.405.024-5.41.024-5.762.006-.162-.157-.27-.325-.285m26.615.845c.665.092 2.13.877 3.005 1.693l-1.317 1.06a3.5 3.5 0 0 1-1.055.052c-1.08-.153-1.6-.966-2.1-1.62-.513-.686.814-1.252 1.467-1.185m63.267 1.53c-.26-.03-.48-.023-.68.002-1.44.217-2.92 2.075-3.4 2.697-.34.493-.25 1.11 0 1.343.29.233.67.47 1.06.707a1.3 1.3 0 0 0-.2-.109c-.67.638-1.66 2.477-1.63 3.722.01 1.252 1.14 3.068 1.9 3.747.84-.646 2.08-1.735 3.9-2.085.2.876.62 1.406 1.32 1.904l2.38-2.6s-1.06-.83-1.69-1.6c0-.544 0-5.75.23-6.03-1.34-1.196-2.41-1.609-3.19-1.698m-1.89 1.567c.36 0 2.71 1.256 2.64 1.917.08.469.09 1.456.08 2.445-1.17-.417-3.48-1.502-4.31-2.196-.23-.176-.25-.279.02-.715.54-.793 1.14-1.484 1.57-1.451m-53.177.458c-.498-.027-1.275 1.345 1.728 1.233.47-.019.818-1.086-1.728-1.233m-7.47 1.17c.716.324 1.446.648 2.243 1.118 1.15.65.559 1.89-.682 2.462-1.261.58-3.52-1.048-3.871-1.718.462-.4 1.332-1.09 2.31-1.863m7.435.635c-.517-.032-1.3.913 1.715 1.221.467.054 1.095-1.05-1.715-1.22m52.442 1.125c1.13.633 2.45 1.187 3.49 1.52-.01.893-.04 1.698-.04 1.992 0 .378.03.687.06.987-.61.033-1.14.195-1.92.57-.64-.522-2.3-2.53-1.08-4.775-.17-.102-.34-.19-.51-.294M78.173 35.75c-.132-.018-.26.125-.282.436-.043.63-.812.437-1.391.437-.587-.013-2.304-.272-3.782.55-.943.545-3.098 2.233-1.892 4.257.705 1.18 4.843 2.141 5.872 2.822 1.033.675 1.266 2.413.277 3.209-1.23.975-4.575.151-5.09-.44-.679-.75-.937-1.368-1.08-2.236-.142-.889-.891-.814-.891 0 0 .81.192 3.591.34 4.243.135.68.812.454.877-.062.075-.476.392-.615.838-.653.952-.076 2.49.495 4.195.354 2.027-.145 3.619-3.287 2.742-5.731-.815-2.323-3.402-1.914-5.143-2.469-1.603-.437-2.265-1.445-.52-2.592 2.056-1.325 4.605.802 4.85 1.25.376.677.69.666.69-.215.055-1.922-.124-.834-.313-2.644-.034-.324-.167-.5-.297-.516m-11.738.558c-.062.024-.127.107-.187.268-.265.656-2.148 3.575-3.363 4.055-.992.406-.88.636-.24.799.506.097 1.031.703.935.697-.1 2.42-.339 5.41.414 6.68.479.8 1.794 1.629 2.389 1.105.695-.555 1.207-1.491 1.49-1.712.535-.442.095-.892-.357-.468-.358.354-1.305-.469-1.346-.524-.307-.36-.756-5.08-.547-5.187 0 0 3.003-.37 3.397-.363.298.02.338-.937.018-.953-.488 0-2.78.317-2.863.093-.125-.5-.434-2.182.319-3.626.265-.474.125-.935-.06-.862m23.425.041-1.296 1.167.025 1.605.792.813h.805l.964-.869v-1.38zm27.25 1.396c-.16-.015-.31.069-.31.295 0 .311-.69.491-1.36.311-1.33-.42-5.21.18-6.94 1.127-1.54.878-3.9 2.902-3.87 5.443.05 4.195 1.72 4.552 3.62 5.648 1.81 1.021 4.84.816 7.12.217.86-.25 1.33-.305 1.3.44 0 .465.65.365.65.02 0-.343.04-3.86.04-4.25 0-.438-.64-.376-.64 0 0 .587 0 .762-.58 1.6-1.56 2.315-5.48 2.22-7.58-.61-.72-.966-1.37-2.255-.54-2.5.83-.252 3.35.27 5.01.41 1 .065 3.31.302 3.6.468.25.192.64.432.64-.068.02-.492.02-2.11.02-2.61 0-.485-.37-.252-.65-.08-.29.198-2.74.608-3.73.782-.99.183-4.04.43-4.84.158-.82-.275-.55-1.92.18-2.862 2.13-2.811 6.42-2.615 7.97-.278.53.815.53 1.008.53 1.618 0 .367.62.411.62 0 .03-.398.05-4.644.05-4.984 0-.166-.16-.28-.31-.295m-66.979.748c-1.552.558-3.832 1.95-4.807 3.395-1.407 2.153-2.18 5.55.26 7.538 1.15.96 2.1 1.708 4.443 1.292.465-.932.673-1.24 1.494-2.313-1.614.261-2.859-.03-4.039-.922-2.428-1.882-1.676-4.915-.962-5.953 1.311-1.944 3.175.836 3.507 1.213a14 14 0 0 1 1.91-1.83c-.723-.957-1.315-1.843-1.806-2.42m77.799.151c-.43.347-1.83 1.875-2.61 2.357-.18-.84-1.47-1.745-2.52-1.932-.33.362-2.79 2.237-3.91 2.784-.35.163-.22.916.27.725.45-.199 1.21-.774 2.09-1.192 1.02.395 2.17 1.43 2.27 3.555.1 2.35-1.12 4.815-2.45 5.93 2.3-.595 2.6-1.968 3.85-3.58.7 1.027 1.99 2.27 2.93 2.805.67-.44 2.55-2.553 2.96-2.987-1.36-.363-3.98-1.748-4.63-3.21-.51-1.085-.39-1.596.12-2.45.46.6 3.65 2.065 5.08-.378-1.57-.57-2.98-1.6-3.45-2.427m-70.258.817c-1.372.125-3.356 1.73-3.947 3.113-.239.552.1 2.542.352 2.761.18.159.32.266.478.389-.903.837-1.748 1.552-1.721 2.796.038 1.2.99 2.268 2.223 2.826.66-1.002 1.688-1.617 2.79-1.876.09.958.313 1.656.942 2.138.45-.499 2.256-2.057 2.606-2.41.381-.36.096-.792-.35-.362-.265.247-.909-.118-1.1-.43 0-.526 0-6.042.231-6.295-.816-.883-1.592-2.75-2.504-2.65m27.005.205c-.895.57-2.273 1.745-2.87 2.238-.745.63-2.27 2.804-1.428 5.134.843 2.39 2.823 3.141 4.3 3.258a24 24 0 0 1 1.702-2.637c.664-.883-.012-1.414-.477-.396-.36.782-2.275-.073-2.968-.742-.934-.868-1.515-3.147-.772-3.948.75-.808 1.83-.439 3.218-.478.915-.047 1.11-.89 1.268-1.321-.443-.208-1.105-.583-1.973-1.108m53.183 1.05c-.91.503-4.85 2.55-5.18 4.913-.48 3.487.62 4.182 2.15 6.1.86 1.086 2.3 1.136 2.96.967.71-.487 3.29-2.94 3.57-3.248.26-.3-.11-.575-.43-.269-.32.294-.2.419-.63.482-.43.072-2.19.367-3.21-.166-1.28-.671-2.94-2.245-2.56-4.175.28-1.424 1.28-2.005 1.74-2.434.65.72 1.3 1.535 2.28 1.535.95.007 1.95-.437 2.25-.83-.79-.635-2.58-2.52-2.94-2.875m-81.68.44c.344.025 1.577 1.524 1.492 2.177.063.362.09 1.028.107 1.728-1.53.994-2.018.96-3.072-.228-.523-.607-.475-1.753-.235-2.187.475-.745 1.31-1.496 1.708-1.49m34.475.125-.581.077-2.508 2.312c-.675.606-.069.893.681.225l1.294.79.049 5.426c.132.65.7.875 1.5 1.7l1.404-1.21 1.112-1.198c-1.247-.237-1.247-.154-1.911-.752l.05-5.762zm57.095.5c-3.3 1.175-5.35 3.788-5.44 6.875-.06 1.805 1.48 5.53 4.65 5.55.98-.94 2.01-1.937 3.04-2.615.65-1.175 1.61-3.075 1.54-4.522-.08-1.779-1.18-4.419-3.79-5.289m-1.9 2.268c1.48.545 3.21 2 3.36 3.336.21 1.731-.29 3.787-1.22 4.91-.61-.298-2.85-2.023-3.36-3.343-.67-1.78-.67-3.75 1.22-4.903m-88.055 1.7c.005.898 0 1.75 0 2.075-.009.298 0 .551.006.821-.296.075-.629.144-1.044.352-.56-.476-3.22-1.345-1.478-2.75 1.068.63 1.482.14 2.516-.5m95.525.72c-.55 0-.84.775-.16.955a10.3 10.3 0 0 0 2.01.302c.53.047.36-.779-.03-.94-.41-.158-1.27-.317-1.82-.317m-.03 1.852c-.57 0-.84.742-.17.947.43.128 1.21.244 2 .303.51.062.34-.775-.04-.935a7 7 0 0 0-1.79-.315m-76.593 2.666c-.371.731-.971 1.4-2.062 1.9.664.58 1.53 1.324 2.1 1.7.657-.731 1.261-1.408 2.017-2.121-.75-.148-1.616-.525-2.055-1.479m-6.085 1.356c-.092.02-.193.145-.266.398-.211.662-1.785 3.567-2.711 4.242-.788.591.927 1.415.772 1.37.063 2.428-.29 4.925.535 6.16.527.765 2.154 1.325 2.438.591.272-.74 1.509-2.246 1.786-2.5.514-.456.06-.87-.371-.423-.893.945-1.393.508-2.05-.118-.318-.36-.439-3.757-.21-3.86 0 0 1.639-.237 2.032-.237.305 0 .28-.944-.04-.944-.492 0-1.955.015-2.04-.216-.182-.47.293-2.758.374-3.785.043-.454-.092-.713-.249-.678m34.758.025c.05 1.193.49 11.453.36 12.879-.08.814 1.01 1.676 2 2.356.49-.585 1.54-2.121 2.41-2.766.52-.423.16-.696-.23-.541-.79.366-1.58.08-1.66-.83-.07-.908-.07-9.738 0-11.013-.6 0-2.31-.031-2.88-.085m21.61.26c-.13.009-.28.123-.37.37-.26.705-1.88 2.413-3.54 3.228-.94.467 1.26 1.335 1.11 1.296-.03 2.484-.53 6.545.32 7.834.53.787 1.73 1.307 2.53 1 .77-.31 1.76-1.853 2.05-2.105.58-.429.09-.885-.39-.442-.47.443-1.76.125-1.93-.32-.13-.466-.3-5.888-.07-5.996 0 0 1.54-.035 1.96-.021.32 0 .34-.985.02-.985-.56-.009-1.81-.12-1.88-.344-.18-.51.04-2.16.37-2.831.2-.425.03-.7-.18-.684m-74.984 1.421c-1.179.792-5.076 2.43-5.669 6.455-.52 3.874 3.133 6.178 4.885 6.925.443-.892 1.338-2.337 2.22-3.348.667-.78-.07-.987-.668-.388-.81.885-3.222.045-3.863-1.12 1.166-.879 4.206-3.42 5.529-4.505-.873-.816-2.223-2.851-2.434-4.019m35.248.36c-1.347.137-3.36 2.062-3.793 2.694-.329.47.096 2.748.354 2.963.072.052.105.071.17.132-.903.929-1.573 1.955-1.561 3.248.043 1.23.455 2.452 1.705 3.007 1.108-.815 2.533-1.806 3.908-2.065.674.81 1.707 1.346 2.328 1.835.43-.517 1.8-1.63 2.18-1.976.361-.369 0-.885-.379-.4-.292.445-1.257.122-1.534-.33 0-.525-.5-6.056-.278-6.311-.8-.89-2.173-2.898-3.1-2.798m29.826.353c-1.45.12-3.29 2.65-3.75 3.306-.36.474.02 2.285.29 2.512.1.09.14.098.23.175-.68.643-1.9 2.312-1.87 3.542.02 1.258.62 2.467 1.35 3.147 1.25-.869 2.02-2.065 4.09-2.862.26.966.94 1.113 1.75 1.722.48-.525 2.24-2.687 2.63-3.066.39-.37.17-.75-.39-.369-.55.37-.93.141-1.86-.854.03-.54-.06-4.953.15-5.2-.84-.907-1.62-2.146-2.62-2.053m-58.986.142c-.758.715-1.355 1.368-2.463 2.243.514.591 1.388 1.336 1.465 2.352.066 1.028.029 5.794.094 6.988.81 0 .666.083 2.057.031-.137-.81-.02-6.995-.02-7.881.52-.498.595-.575 1.195-1.023.43.379 1.44.6 1.44 1.265s.197 3.601-.037 4.688c-.291 1.322-.163 2.272.552 3.608.542-.605 2.568-2.02 3.008-2.375.432-.375.207-.657-.354-.503-.6.128-.707.243-.707-.135 0-.714-.282-3.935-.325-5.993-.075-2.062-1.08-2.667-1.66-2.952-.59.656-1.908 1.485-2.7 2.153-.592-.437-.885-1.423-1.545-2.466m19.912.138-.604.082L74.9 57.45c-.66.576-.078.855.69.216l1.65.854.039 5.271c.138.651.717.8 1.52 1.628l1.037-1.058 1.088-1.202c-1.223-.225-.654-.215-1.3-.81l-.038-4.978zm-27.899 1.268c.354.898 1.475 2.604 1.983 2.904-.873.875-3.014 2.326-3.618 2.75-1.095-1.375-1.687-3.62 1.635-5.654m82.503.144c-.58.593-1.6 1.275-2.55 2.333.79.056 1.45.225 1.83.981.38.749.05 3.914.11 5.131.06 1.185.78 1.438 1.72 2.416.93-.236 3.55-1.33 4.43-1.935-.08.974 1.15 2.065 1.87 2.278.49-.531 1.02-.82 1.74-1.484-.7-.466-.61-.532-.87-1.457-.21-.893.05-4.273.07-5.723a10.9 10.9 0 0 0-2.39-2.54 46 46 0 0 0-2.58 2.493c.78-.105 2.3.205 2.37.853.04.838.17 2.672 0 4.094-.18 1.434-4.03.778-4.09-.19-.08-.992.2-3.849.22-5.2-.55-.837-.87-1.299-1.88-2.05m-47.336.093c.328 0 2.375 1.236 2.267 1.896.078.471.04 1.36-.012 2.231-1.02.021-1.892-.291-3-1.266-.213-.178-.41-1.441-.17-1.851.488-.778.488-1.018.915-1.01m30.206.343c.38.025 1.85 1.034 1.78 1.717.07.442.09 1.367.08 2.308-1.1.134-1.88.26-3.11-.782-.23-.184-.29-1.86-.03-2.279.53-.807.86-.962 1.28-.962m30.56 1.06c-.65.442-2.52 2.15-3.31 2.6 1.14.028 2.83.405 2.9 1.465.04.858-.07 6.215 0 7.195.69.148 1.52.077 2.53.02.05-.759.03-6.935.05-7.684.34-.191.74-.381.94-.555.39.292 1.58 1.662 2.27 2.031.47-.36 1.71-1.444 2.26-1.957.57-.569-.05-.933-.55-.472-.39-.462-1.45-1.34-2.4-2.012-.54.45-1.66 1.262-2.38 1.635-.53-.6-1.24-1.43-2.31-2.266m-61.204 2.906c.934.629 1.466.55 2.643.434-.048.636-.094 1.22-.094 1.481 0 .282.116.507.195.746-.608.216-1.381.345-1.978.644-.54-.478-2.53-1.836-.766-3.305m30.024.635c.81.452 1.22.175 2.47.037 0 .792-.02 1.504-.03 1.885-.55.395-1.23.742-2.01 1.13-.62-.513-1.53-.95-.43-3.052M99.376 88.08c-2.256-.025-4.232 1.469-4.232 1.75 0 .762.8 1.15 3.085-.288-1.788 2.072.245 3.76.245 3.76-.744-.112-1.806-.363-2.485-.75-.138.748.891 1.02 1.382 1.344 3.788 1.558 6.278-2.086 9.608-2.729v-.14c-2.23-.32-3.98-1.883-6.02-2.655a4.6 4.6 0 0 0-1.583-.292m1.233 1.316c.85.248 2.88 1.391 3.61 1.87l-3.62 1.828s1.01-1.092 1-1.869c0-1.058-.99-1.829-.99-1.829" fill="maroon"/></svg>