<svg xmlns="http://www.w3.org/2000/svg" height="249.99" viewBox="0 0 250 249.995" width="250"><path d="M124.888 1.082C56.51 1.082.89 56.71.89 125.08c0 68.376 55.621 123.997 123.998 123.997S248.89 193.457 248.89 125.08c0-68.371-55.626-123.998-124.002-123.998" fill="#000e2f"/><path d="M124.888 246.743c-67.08 0-121.655-54.574-121.655-121.658S57.809 3.43 124.888 3.43s121.653 54.574 121.653 121.655-54.571 121.658-121.653 121.658" fill="#fff"/><path d="M124.888 6.97C59.65 6.97 6.77 59.854 6.77 125.09s52.881 118.12 118.118 118.12 118.12-52.886 118.12-118.12S190.124 6.97 124.888 6.97" fill="#000e2f"/><g fill="#fff"><path d="m120.265 16.206-14.28 1.523.09.889c2.33-.08 2.35.062 2.81 4.105l1.02 9.62.18 2.716c-.07.942-.64 1.169-2.1 1.465l.1.891 3.98-.512 3.88-.322-.09-.897c-1.46.046-2.2.035-2.62-.734-.31-.531-.56-2.875-.65-3.767l-.43-3.96 2.1-.22c2.51-.185 3.14.168 3.97 2.957l.7-.072a68 68 0 0 1-.43-3.338l-.4-4.416-.69.075c-.35 3.339-.98 3.431-4 3.755l-1.37.142-.85-8.031 3.48-.371c3.58-.351 3.98.025 7.83 3.539l.49-.447zm22.16 1.203c-4.53.115-8.76 3.259-9.71 8.874-1.02 6.115 2.72 10.777 8.19 11.698 3.65.613 6.61-.566 9.03-3.316l-.72-.631c-1.15 1.167-3.29 3.34-6.94 2.725-4.94-.833-6.84-6.154-6.03-10.994.96-5.667 5.01-7.775 8.41-7.204 1.99.334 3.86 1.587 4.93 3.985.57 1.207.7 2.109.85 3.129l.58.039.89-5.793-1.61.953c-.99-1.048-2.69-2.784-5.92-3.328a10 10 0 0 0-1.95-.137m-47.854 3.384a10.4 10.4 0 0 0-3.962.616c-4.691 1.716-7.963 6.862-6 12.832 1.9 5.784 7.697 8.422 12.917 6.709 4.659-1.531 8.369-6.614 6.299-12.902-1.51-4.597-5.281-7.088-9.254-7.255m-1.897 1.035c3.889-.163 6.829 4.11 7.831 7.165 1.32 4.02 1.25 9.716-3.125 11.15s-8.06-2.7-9.527-7.173c-1.218-3.705-1.288-9.14 3.1-10.787a5.6 5.6 0 0 1 1.72-.355m70.662 1.646c-3.72.012-7.47 2.079-9.29 6.424-2.35 5.615.29 11.408 5.36 13.537 4.53 1.898 10.66.485 13.21-5.617 2.5-5.95-.49-11.71-5.63-13.68a10.3 10.3 0 0 0-3.65-.663m1.8 1.121q.783.05 1.61.353c4.73 1.771 4.17 8.016 2.75 11.405-1.64 3.906-5.43 8.151-9.67 6.375s-4.32-7.318-2.5-11.665c1.32-3.145 4.17-6.719 7.81-6.468m-95.81 6.589a53 53 0 0 1-2.545 1.936 65 65 0 0 1-2.732 1.873l.54.749c.965-.63 1.885-1.222 2.495-.382.275.388.323.84.437 1.86l.654 6.998-6.674-2.83c-.485-.238-1.3-.654-1.509-.948-.543-.75.042-1.24 1.81-2.662l-.553-.77a132 132 0 0 1-7.505 5.412l.537.75c1.6-.946 1.885-.941 4.203-.022l9.11 3.67 1.706 2.365c.691.954 1.681 2.381 1.772 2.935.122.741-.375 1.209-1.687 2.362l.529.728a111 111 0 0 1 3.458-2.635 116 116 0 0 1 3.678-2.515l-.521-.73c-1.77 1.14-2.42 1.437-3.255.515-.53-.585-.97-1.2-2.36-3.075l-1.72-2.385-.505-6.169c-.273-4.025-.25-4.9 1.176-6.277zm111.89.084-.53.724c.9.906 1.2 1.44 1.51 2.757l-7.43 10.463c-1.49 1.968-1.75 2.298-2.21 2.466-.66.22-1.39-.25-2.11-.745l-.51.745a109 109 0 0 1 2.88 1.91l2.99 2.13.51-.743c-1.84-1.433-2.39-2.055-1.53-3.566.76-1.354 6.36-9.531 7.65-11.275l.72 21.515.36.284 10.57-12.803c1.55-1.812 1.95-1.633 3.52-.647l.53-.718-2.74-1.953-2.76-2.115-.54.725c2.44 1.9 2.51 1.996.58 4.546-.82 1.07-1.85 2.405-6.81 8.527l-.48-14.691c-.12-2.246-.06-3.041 0-4.454l-2.1-1.487c-.7-.519-1.39-1.058-2.07-1.595M50.915 45.15 39.828 57.09c1.292 2.159 1.592 2.7 2.72 4.938l.63-.26c-.685-4.082-.733-4.237-.718-4.794-.002-1.19.44-1.705 1.106-2.463l1.599-1.725 10.173 9.444c.662.61 1.627 1.55 2.007 2.088.358.485.653.95-1.221 3.043l.662.613 3.087-3.449c1.027-1.112 2.08-2.162 3.13-3.256l-.655-.606c-1.555 1.425-2.06 1.803-2.827 1.43-.468-.237-1.57-1.23-2.291-1.9L47.053 50.75c1.947-2.136 2.346-2.567 3.173-2.834.898-.275 3.827.035 5.603.223l.211-.638c-2.254-.947-2.8-1.188-5.125-2.35m151.09 2.229-.69.575c.65 1.095.82 1.688.81 3.038l-9.71 8.392c-1.92 1.553-2.25 1.813-2.73 1.86-.7.063-1.3-.57-1.88-1.22l-.67.595 2.33 2.544c.82.919 1.6 1.841 2.4 2.782l.67-.595c-1.44-1.835-1.83-2.573-.63-3.833 1.06-1.13 8.46-7.734 10.11-9.117l-4.42 21.063.27.356 13.33-9.906c1.94-1.388 2.28-1.119 3.57.215l.69-.575-2.19-2.55a120 120 0 0 1-2.19-2.709l-.69.574c1.91 2.426 1.96 2.536-.53 4.555-1.04.841-2.36 1.89-8.64 6.651l3.03-14.382c.43-2.212.68-2.965 1.08-4.325a85 85 0 0 1-1.7-1.943c-.55-.67-1.09-1.359-1.62-2.045M37.225 60.947a41 41 0 0 1-1.934 3.2 45 45 0 0 1-2.316 3.07l.74.5c1.1-1.32 1.458-1.552 2.571-.995.607.305 1.295.742 4.17 2.658l4.244 2.877 2.746 1.9c2.047 1.427 2.247 1.627 1.167 3.674l.74.504 2.11-3.313c.678-1 1.39-1.94 2.143-2.953l-.743-.504c-1.507 1.822-1.777 1.672-4.61-.25l-8.282-5.623c-2.922-1.983-3.13-2.125-2.003-4.24zm87.673 2.688c-.6 3.367-.7 15.077-.71 19.182 0 .782-.37 1.11-1.41.3-2.89-2.228-4.68-4.042-6.9-7.612a124 124 0 0 0-1.86-2.879c0 .01.5 2.175 1.49 3.785 2.69 4.385 5.4 6.856 7.22 8.293.33.261 1.34.759 1.37 1.781.04 1.293 0 8.178-.04 10.95l-.1 5.64c.02 1.07-.64 1.18-1.31.75-1.3-.85-2.19-1.31-3.47-2.17-3.74-2.527-6.61-5-10.69-7.881.55 1.202 3.79 4.084 4.53 4.709 2.41 2.032 4.97 3.962 7.53 5.782.26.19 1.4 1.05 2.35 1.6.9.54 1.08 1.18 1.05 1.93.07 1.32-.01 4.65.03 7.18l.07 12.2c.04.69-.48 1.05-1.36.48-2.72-1.78-4.49-2.79-7.11-4.73-3.78-2.78-7.09-5.49-7.09-5.52 0-.02.92 1.97 3.35 3.95 2.54 2.07 5.12 4.13 7.83 6.05a49 49 0 0 0 3.74 2.41 1.74 1.74 0 0 1 .71 1.25c.03 5.62.25 13.11.8 16.89.55-3.78.77-11.27.79-16.89a1.76 1.76 0 0 1 .72-1.25c1.27-.75 2.56-1.57 3.74-2.41 2.71-1.92 5.29-3.98 7.82-6.05 2.44-1.98 3.36-3.97 3.36-3.95.01.03-3.32 2.74-7.09 5.52-2.63 1.94-4.4 2.95-7.12 4.73-.87.57-1.38.21-1.35-.48l.07-12.2.03-7.18c-.03-.75.14-1.39 1.05-1.93.94-.55 2.08-1.41 2.35-1.6 2.56-1.82 5.12-3.75 7.52-5.783.75-.625 3.99-3.506 4.54-4.708-4.08 2.88-6.95 5.353-10.7 7.881-1.27.86-2.17 1.32-3.47 2.17-.66.43-1.32.32-1.3-.75.01-1.86-.07-2.95-.1-5.639l-.04-10.951c.02-1.023 1.03-1.52 1.37-1.781 1.82-1.438 4.52-3.908 7.22-8.293.99-1.609 1.48-3.775 1.48-3.785a192 192 0 0 0-1.85 2.879c-2.22 3.57-4.02 5.384-6.9 7.612-1.05.81-1.42.482-1.42-.3-.01-4.105-.14-15.815-.74-19.18m93.33 4.513-.8.407c.46 1.272.63 1.788.09 2.343-.36.441-2.92 1.744-3.69 2.139l-4.7 2.4-4.93 2.425c-1.16.562-1.69.702-2.81-1.122l-.79.408 7.17 14.044c2.39-.499 2.99-.618 5.47-1.003l.02-.702c-5.78-.89-6-1.318-7.08-3.38l-.67-1.322c-1.71-3.446-1.61-3.498 1.8-5.27l4.25-2.168.98 1.922c1.42 2.775 1.55 3.4-1.01 5.428l.33.65q1.665-.939 3.39-1.825a95 95 0 0 1 3.61-1.75l-.33-.645c-2.87.74-3.48.515-4.65-1.845l-1.27-2.47 7.17-3.663 1.31 2.575c1.43 2.923 1.65 3.85 1.2 5.43-.17.653-.17.653-1.39 3.823l.6.299c1.38-1.844 1.8-2.337 3.35-4.167zm-188.38 4.391.262 1.413c-.987.67-2.062 1.392-2.87 3.026-1.544 3.115-.377 6.32 2.465 7.727 3.395 1.68 5.743-.666 6.868-1.797 1.76-1.789 2.132-2.166 2.985-2.621 1.43-.73 2.683-.485 3.535-.063 2.537 1.255 2.425 3.95 1.692 5.434s-2.319 2.67-4.202 2.929c-1.238.166-2.21-.088-3.235-.349l-.274.676c2.262.931 2.875 1.206 5.48 2.461l-.221-1.83c.833-.493 2.176-1.237 3.255-3.426 1.596-3.219.84-6.937-2.43-8.555-3.77-1.867-6.18.663-7.6 2.15-1.49 1.55-2.188 2.267-3.328 2.61-.925.294-1.892.157-2.725-.253-1.505-.744-2.442-2.584-1.375-4.744 1.594-3.221 5.598-2.459 6.996-2.173l.162-.644zm191.63 17.689a11.9 11.9 0 0 0-3.39.425c-5.98 1.611-8.67 6.95-7.23 12.311.97 3.58 3.27 5.77 6.78 6.83l.28-.92c-1.55-.57-4.41-1.6-5.38-5.17-1.3-4.847 2.75-8.782 7.49-10.064 5.55-1.497 9.15 1.31 10.05 4.64.53 1.954.16 4.164-1.57 6.144-.86 1.01-1.62 1.51-2.49 2.07l.21.55 5.63-1.61-1.54-1.06c.55-1.34 1.42-3.61.56-6.775-1.11-4.136-4.71-7.255-9.4-7.371m-196.42 1.746c-1.374.02-2.77.625-3.673 1.903-.746 1.017-1.247 2.737-1.619 4.095l-.922 3.442-.988 3.5.859.24c.539-1.19.788-1.79 1.569-1.78.874.01 3.734.8 4.492 1l7.788 2.15c3.886 1.1 3.992 1.15 3.706 3.47l.879.2.76-3.97c.296-1.34.65-2.67 1.002-4l-.877-.19c-.776 2.35-.825 2.75-2.796 2.29-.874-.21-2.18-.54-5.588-1.48.105-.38.225-.72.335-1.1l.556-2.135 6.129-1.287c1.9-.367 2.595-.663 3.713-.91l.617-2.04c.243-.747.509-1.458.788-2.194l-.848-.281c-.625 1.33-.971 1.956-2.752 2.326l-7.77 1.629c-.123-.613-.202-1.969-1.68-3.365a5.6 5.6 0 0 0-2.335-1.34 5 5 0 0 0-1.345-.173m-.89 2.873a5.5 5.5 0 0 1 1.87.196c1.38.379 2.337 1.137 2.885 2.097.447.798.826 1.857.158 4.294-.102.38-.238.75-.375 1.15l-8.627-2.38.441-1.591c.493-1.695.743-2.589 1.984-3.295a4.1 4.1 0 0 1 1.662-.471m203.75 14.767-.24.63c3.4 2.35 3.55 2.43 3.93 2.83.86.83.93 1.5 1.01 2.5l.12 2.36-13.86.73c-.9.05-2.24.09-2.89-.02-.6-.08-1.14-.2-1.34-2.99l-.9.05.33 4.61c.08 1.51.1 3 .15 4.52l.9-.05c.06-2.11.13-2.73.94-3.03.49-.16 1.98-.27 2.96-.32l13.86-.73c.18 2.88.21 3.47-.17 4.25-.43.84-2.69 2.73-4.07 3.86l.32.61c2.25-.96 2.8-1.19 5.25-2.05l-.85-16.27a60 60 0 0 1-5.45-1.49m-196.41 1.09-.375.59c4.54 3.69 4.51 4.16 4.405 6.49l-.085 1.49c-.273 3.83-.39 3.82-4.228 3.63l-4.76-.27.127-2.16c.18-3.11.381-3.71 3.61-4.18l.043-.72a100 100 0 0 1-3.84-.14 103 103 0 0 1-4-.31l-.043.72c2.849.81 3.265 1.31 3.088 3.95l-.157 2.77-8.04-.46.169-2.89c.241-3.24.518-4.15 1.706-5.29.477-.48.478-.48 3.132-2.61l-.365-.55c-2.133.89-2.73 1.11-4.994 1.91l-.836 14.53.893.05c.249-1.33.363-1.86 1.109-2.07.541-.19 3.391-.03 4.265.02l5.264.3c2.796.16 4.139.27 5.482.4 1.283.1 1.81.24 1.855 2.38l.899.05.906-15.73a89 89 0 0 1-5.23-1.9m182.55 19.35a75 75 0 0 1-.27 3.92c-.11 1.2-.29 2.37-.46 3.62l.89.09c.45-2.32.77-2.32 4.17-1.99l9.97.98c3.51.34 3.76.36 3.78 2.76l.9.08c.01-1.26.04-2.5.16-3.73.13-1.28.34-2.56.57-3.8l-.89-.09c-.33 1.69-.54 2.06-1.78 2.11-.68.02-1.5-.03-4.93-.34l-5.11-.5-3.32-.35c-2.48-.27-2.75-.35-2.78-2.67zm-197.06.73-.917.13c.204 1.07.389 2.15.541 3.26.154 1.09.278 2.14.369 3.24l.92-.13c-.123-1.06-.26-2.63 1.075-2.81.502-.08 1.989.23 2.657.36 3.15.63 6.603 1.45 11.707 2.66-2.214 1.02-2.422 1.13-4.513 2.22-1.231.65-7.861 4.1-8.662 4.22-1.138.16-1.32-.75-1.675-2.46l-.917.13a105 105 0 0 1 .669 4.18 95 95 0 0 1 .491 4.1l.918-.13c-.031-1.81.437-2.33 2.57-3.48l15.347-8.1-.085-.61-15.248-3.69c-4.013-.97-4.6-1.08-5.247-3.09m202.63 10.32c-4.49.13-7.99 3.13-9.14 7.49-.94 3.58-.03 6.64 2.49 9.29l.7-.65c-1.06-1.27-3.03-3.59-2.09-7.16 1.27-4.86 6.74-6.26 11.49-5.02 5.56 1.46 7.29 5.69 6.41 9.02-.5 1.96-1.92 3.7-4.4 4.55-1.26.46-2.17.51-3.2.56l-.09.59 5.69 1.4-.8-1.69c1.13-.89 3.01-2.42 3.84-5.6 1.34-5.1-1.36-10.73-7.65-12.39a11.6 11.6 0 0 0-3.25-.39m-181.2 6.03-.862.26c.464 2.32.171 2.44-3.109 3.41l-9.589 2.86c-3.391 1.01-3.627 1.08-4.553-1.13l-.86.26c.468 1.18.903 2.33 1.25 3.52.375 1.24.658 2.5.915 3.74l.858-.26c-.331-1.69-.278-2.11.858-2.63.617-.26 1.39-.53 4.69-1.54l4.916-1.47 3.206-.92c2.402-.69 2.68-.72 3.585 1.41l.855-.25a91 91 0 0 1-1.225-3.73c-.346-1.16-.63-2.3-.935-3.53m3.83 11.45-15.207 6.66c-2.209.92-2.475.58-3.435-1.01l-.798.4 1.563 2.98c.532 1.05 1.02 2.09 1.516 3.13l.8-.4c-1.315-2.79-1.334-2.91 1.538-4.32 1.213-.59 2.733-1.31 9.922-4.54l-6.19 13.34c-.912 2.06-1.32 2.73-2.021 3.96l1.209 2.28c.392.78.757 1.57 1.127 2.36l.798-.41c-.39-1.21-.418-1.82-.107-3.14l11.348-5.99c2.225-1.08 2.605-1.26 3.084-1.2.698.1 1.137.85 1.55 1.61l.793-.43a143 143 0 0 1-1.703-3c-.592-1.08-1.142-2.15-1.712-3.25l-.787.43c.994 2.11 1.211 2.92-.25 3.87-1.288.87-9.975 5.64-11.908 6.61l9.06-19.52zm167.71 3.36a6 6 0 0 0-1.94.32c-1.67.57-3.33 1.91-4.43 4-1.16 2.17-1.85 5.52.47 8.4 1.16 1.4 2.48 2.2 7.62 5.18.3.16 1.24.66 2.84 1.66.9.58 1.07.73 1.27.96.55.64.28 1.33-.17 2.3l.79.42a107 107 0 0 1 3.02-5.7l-.79-.42c-1.52 2.4-1.65 2.33-5.81.12-6.57-3.48-8.21-4.76-8.99-7.05-.53-1.51-.36-3.04.35-4.38.81-1.51 2.7-3.36 5.63-3.08 1.63.17 3.09.94 4.4 1.64l4.99 2.64c3.38 1.82 3.53 1.9 2.49 4.33l.79.42 1.78-3.53c.61-1.14 1.27-2.28 1.86-3.33l-.79-.42c-1.18 1.75-1.48 1.82-3.67.69l-7.06-3.75c-1.26-.64-2.81-1.44-4.65-1.42m-13.96 17.16-2.93 3.58c-.98 1.15-1.99 2.25-2.99 3.38l.68.59c1.49-1.5 1.98-1.9 2.76-1.56.48.22 1.63 1.16 2.38 1.79l10.58 8.99c-1.85 2.22-2.23 2.66-3.04 2.97-.89.31-3.83.13-5.61.02l-.19.66c2.3.84 2.86 1.05 5.23 2.11l10.55-12.42c-1.38-2.1-1.71-2.63-2.94-4.82l-.62.3c.87 4.04.92 4.2.93 4.75.06 1.19-.35 1.73-.99 2.51l-1.52 1.8-10.58-8.98c-.69-.59-1.7-1.48-2.1-2-.38-.47-.69-.92 1.08-3.1zm-144.41.35c-.61.01-1.25.11-1.912.32-1.738.54-2.973 1.48-7.658 5.14-.253.22-1.07.91-2.592 2.02-.87.62-1.075.72-1.365.82-.795.27-1.325-.24-2.063-1.01l-.685.58 2.019 2.29c.724.86 1.448 1.76 2.149 2.63l.681-.58c-1.652-2.3-1.545-2.39 2.045-5.44 5.678-4.8 7.475-5.84 9.896-5.72 1.6.08 2.955.81 3.932 1.96 1.106 1.31 2.116 3.76.762 6.38-.761 1.44-2.019 2.51-3.159 3.47l-4.3 3.64c-2.953 2.46-3.08 2.57-4.957.7l-.683.58 2.617 2.97c.832.98 1.643 2.03 2.398 2.96l.684-.57c-1.184-1.76-1.14-2.05.721-3.67l6.105-5.16c1.419-1.23 3.307-2.87 3.485-5.7.088-1.76-.537-3.8-2.062-5.6-1.293-1.53-3.413-3.07-6.058-3.01m95.833 30.76c-1.19 3.17-3.81 4.33-5.09 4.89l.22.86c3.33-.9 3.38-.67 4.42 3.42l1.79 7.34c.83 3.5.86 3.65-2.56 4.67l.23.93a126 126 0 0 1 4.45-1.19 166 166 0 0 1 5.2-1.18l-.23-.92c-3.45.69-3.47.57-4.54-3.64l-1.84-7.54c-.96-3.9-1.09-4.85-1.54-7.53zm-41.51.86c-2.5 2.28-5.37 2.12-6.753 2.03l-.208.87c3.38.71 3.32.94 2.37 5.06l-1.75 7.35c-.86 3.49-.9 3.64-4.413 2.98l-.219.93 4.504.98c1.799.42 3.439.85 5.159 1.32l.22-.92c-3.38-.96-3.35-1.08-2.37-5.31l1.8-7.55c.93-3.91 1.24-4.81 2.06-7.4zm26.88 2.03a6 6 0 0 0-.58.03c-2.81.23-5.19 2.46-4.93 5.6.25 3.05 2.62 4.29 3.75 4.88-.8.49-1.65.97-2.33 1.78-.82.99-1.32 2.44-1.2 3.95.28 3.35 3.4 5.35 6.36 5.11 3.65-.3 5.94-3.62 5.68-6.8-.28-3.35-3.19-4.93-4.47-5.66.88-.57 3.15-2.02 2.93-4.69-.19-2.28-2.37-4.18-5.21-4.2m-14.9.06c-2.82-.22-5.52 1.6-5.77 4.74-.23 3.06 1.91 4.66 2.93 5.42-.86.35-1.79.7-2.59 1.38a5.63 5.63 0 0 0-1.8 3.71c-.26 3.35 2.5 5.83 5.46 6.06 3.66.28 6.45-2.64 6.69-5.81.26-3.35-2.36-5.38-3.52-6.3.96-.43 3.43-1.49 3.64-4.16.18-2.43-1.93-4.8-5.04-5.04m14.46.82c1.78-.14 3.29 1.16 3.47 3.32.13 1.61-.3 3.25-1.36 4.48-2.42-1.03-4.52-1.93-4.72-4.36-.15-1.81.94-3.3 2.61-3.44m-14.47.04c1.78.14 3.06 1.67 2.9 3.83-.13 1.61-.81 3.16-2.05 4.2-2.22-1.4-4.16-2.62-3.97-5.05.14-1.81 1.46-3.11 3.12-2.98m-2.18 9.68c3.08 1.91 4.87 3.53 4.65 6.26-.2 2.59-2.13 3.74-3.88 3.61-1.84-.14-3.57-1.73-3.32-4.97.15-1.92.98-3.77 2.55-4.9m16.04.18c3.33 1.4 5.35 2.72 5.58 5.45.21 2.58-1.51 4.03-3.26 4.18-1.84.15-3.8-1.15-4.07-4.38-.16-1.92.36-3.88 1.75-5.25"/><path d="M124.888 206.098c-44.742 0-81.01-36.273-81.01-81.01 0-44.744 36.268-81.01 81.01-81.01s81.007 36.266 81.007 81.01c0 44.738-36.264 81.01-81.007 81.01"/></g><path d="M124.888 47.545c-42.763 0-77.547 34.789-77.547 77.546s34.784 77.547 77.547 77.547 77.548-34.787 77.548-77.547-34.786-77.546-77.548-77.546" fill="#000e2f"/><path d="M124.888 200.291c-41.472 0-75.2-33.736-75.2-75.206s33.728-75.202 75.2-75.202 75.205 33.733 75.205 75.202-33.737 75.206-75.205 75.206" fill="#fff"/><path d="M124.915 52.585c-.14 0-.4.021-.4.021-2.81.436-4.75 3.73-5.6 6.08-.24.663-.93 4.464-4.17 4.555-4.28.121-3.99-3.854-6.84-3.732-1.78.073-3.1 2.272-3.26 4.418-.33 4.388 1.18 7.213 2.51 10.015.7 1.48 4.16 7.43.63 9.715-4.45 2.888-6.66-5.13-12.85-3.72-2.277.52-3.02 2.953-2.767 5.185 1.012 8.81 18.627 18.573 14.297 23.003-2.91 2.98-9.175-5.6-11.83-1.4-.442.69-.671 1.5-.385 2.58.513 1.95 1.775 3.55 2.733 5.09 2.43 3.9 5.292 7.29 8.112 10.85 2 2.51-3.31.64-4.32 2.58-.65 1.24-.33 2.76.23 3.79 1.86 3.42 5.45 5.42 8.65 7.51 4.78 3.13 10.26 8.86 11.61 15.33.56 2.69 1.01 8.95 1.04 12.04-1.73-1.84-3.66-5.21-6.77-7.82-.68-.58.02-1.62.56-2.61 1.25-2.31 2.01-4.87.12-6.25-1.1-.81-1.67-.81-2.39-.89-.87 4.86-7.96 10.67-10.97 10.94.08.66.08.97.68 1.88.67 1.03 2.42 1.65 5.57.54.61-.21 1.95-1.21 2.51-1.36.57-.16 1.66-.09 2.02.19 5.39 4.29 9.08 13.31 6.5 14.54-1.51.6-4.3-.73-6.67-1.81-5.43-2.46-10.68-6.69-15.512-12.23-.51-.59-1.11-1.17-3.945-1.22-.853-.01-1.704-.05-2.263-.1 0 0-7.711-.61-9.527-1.83 4.66.36 7.306.92 11.315.69 1.046-.01 1.74-.45 1.112-1.29-2.095-2.79-5.942-9.48-6.847-11.41-.524-1.11-1.21-1.52-1.735-1.68l-4.842-1.61c-4.003-1.41-9.523-4.17-10.953-6.16 4.433 2.06 8.43 4.05 13.56 5.42 0 0 2.176.59 1.38-1.15-2.157-4.75-3.862-9.53-5.532-14.9-.341-1.09-1.17-1.6-1.676-1.89-.771-.45-3.911-2.31-5.541-3.38-3.126-2.05-5.174-3.36-5.754-4.74-.005-.01 2.136 1.43 3.048 1.95 2.097 1.2 4.627 2.79 7.433 4.21.697.35 1.549.19 1.273-.9-1.298-5.2-1.904-9.55-2.496-15.17-.078-.7-.574-1.52-.967-1.88-.627-.58-6.448-5.465-7.306-7.563 2.07 1.62 5.7 5.073 6.788 5.773.337.21 1.145.46 1.1-.58l-.174-6.569c-.263-7.161.481-7.989.481-7.989l.125 2.73c.6 23.018 6.018 41.948 13.58 56.248.319.59.708.16.55-.68-.456-2.29.146-7.32-1.852-7.54-1.325-.14-2.08-4.59-1.98-7.61.093-3.01.28-7.25-1.41-7.25-1.7 0-2.732-3.76-.195-10.17 2.547-6.4-.658-6.68-1.788-6.3-3.96 1.32-.939-6.97.383-9.984 1.8-4.12.376-5.701-1.98-4.9-2.405.824-2.623-6.722-3.013-9.86-.902-7.349-6.156-1.484-6.156-1.484-2.791 3.372-3.796 9.052-5.444 10.395-1.437 1.175-3.825-1.487-5.314.607-3.191 4.493 5.4 10.746 4.25 15.486-.338 1.4-1.615 1.86-3.378 1.66-.625-.07-1.73-.68-2.81-.76-1.745-.13-2.99 1.14-3.295 2.36-1.013 4.06 5.695 11.02 7.665 13.36.912 1.09 2.118 1.99 2.892 3.27.435.73.966 1.93.208 3.07-.9 1.37-2.942.22-4.483.47-1.589.26-2.935 2.08-2.715 4.34.304 3.2 5.478 8.19 9.333 10.85.45.32 3.965 2.33 4.705 3.42 1.748 2.57-3.155 3.55-4.327 4.4-.843.62-1.976 1.95-1.498 4.06.858 3.73 7.987 7.74 12.425 9.22 2.68.9 7.592 3.04 7.592 3.04 1.998 1.04-1.175 4.53 1.593 6.98.035.03.035.12.075.15 1.362.84 3.476.94 5.237 1.29 6.805 1.35 16.245.04 21.495 3.22 6.65 4.02 4.39 12.71 3.98 13.97-.12.38.04.89.25.98 1.02.49 2.2 1.29 3.99 1.33h.68c1.78-.04 2.97-.84 3.99-1.33.2-.09.36-.6.25-.98-.41-1.26-2.67-9.95 3.98-13.97 5.25-3.18 14.68-1.87 21.49-3.22 1.76-.35 3.88-.45 5.24-1.29.04-.03.04-.12.08-.15 2.76-2.45-.41-5.94 1.59-6.98 0 0 4.91-2.14 7.59-3.04 4.43-1.48 11.57-5.49 12.42-9.22.49-2.11-.65-3.44-1.5-4.06-1.16-.85-6.06-1.83-4.32-4.4.73-1.09 4.25-3.1 4.7-3.42 3.86-2.66 9.04-7.65 9.34-10.85.21-2.26-1.13-4.08-2.71-4.34-1.55-.25-3.59.9-4.5-.47-.75-1.14-.22-2.34.21-3.07.78-1.28 1.99-2.18 2.9-3.27 1.96-2.34 8.68-9.3 7.66-13.36-.3-1.22-1.54-2.49-3.29-2.36-1.08.08-2.19.69-2.81.76-1.76.2-3.04-.26-3.38-1.66-1.15-4.74 7.44-10.993 4.25-15.486-1.49-2.093-3.87.568-5.31-.607-1.65-1.343-2.66-7.023-5.45-10.395 0 0-5.25-5.865-6.16 1.484-.38 3.138-.6 10.684-3 9.861-2.36-.802-3.79.78-1.98 4.9 1.31 3.013 4.34 11.303.38 9.983-1.14-.38-4.34-.1-1.8 6.3 2.55 6.41 1.51 10.17-.18 10.17-1.7 0-1.51 4.24-1.42 7.25.1 3.02-.65 7.47-1.97 7.61-2 .22-1.4 5.25-1.86 7.54-.16.84.23 1.27.55.68 7.56-14.3 12.99-33.23 13.58-56.25l.12-2.728s.75.828.5 7.988c-.07 1.744 0 2.167-.19 6.57-.04 1.04.77.79 1.11.58 1.08-.7 4.71-4.153 6.78-5.773-.85 2.098-6.68 6.983-7.3 7.563-.4.36-.89 1.18-.97 1.88-.59 5.62-1.21 9.97-2.5 15.17-.27 1.09.58 1.25 1.28.9 2.8-1.42 5.33-3.01 7.44-4.21.91-.52 3.04-1.96 3.04-1.95-.58 1.38-2.64 2.69-5.76 4.74-1.63 1.07-4.77 2.93-5.54 3.38-.51.29-1.33.8-1.67 1.89-1.67 5.37-3.38 10.15-5.54 14.9-.79 1.74 1.39 1.15 1.39 1.15 5.13-1.37 9.12-3.36 13.55-5.42-1.43 1.99-6.95 4.75-10.96 6.16a273 273 0 0 1-4.83 1.61c-.53.16-1.21.57-1.74 1.68-.9 1.93-4.75 8.62-6.84 11.41-.64.84.06 1.28 1.11 1.29 4.01.23 6.65-.33 11.32-.69-1.83 1.22-9.53 1.83-9.53 1.83a33 33 0 0 1-2.27.1c-2.83.05-3.43.63-3.94 1.22-4.83 5.54-10.08 9.77-15.51 12.23-2.37 1.08-5.16 2.41-6.67 1.81-2.59-1.23 1.11-10.25 6.49-14.54.37-.28 1.46-.35 2.03-.19.56.15 1.89 1.15 2.5 1.36 3.16 1.11 4.9.49 5.57-.54.6-.91.6-1.22.69-1.88-3.01-.27-10.1-6.08-10.97-10.94-.72.08-1.3.08-2.39.89-1.89 1.38-1.13 3.94.12 6.25.54.99 1.23 2.03.55 2.61-3.11 2.61-5.03 5.98-6.76 7.82.03-3.09.48-9.35 1.03-12.04 1.36-6.47 6.84-12.2 11.62-15.33 3.2-2.09 6.78-4.09 8.64-7.51.56-1.03.89-2.55.24-3.79-1.02-1.94-6.33-.07-4.33-2.58 2.82-3.56 5.69-6.95 8.12-10.85.95-1.54 2.22-3.14 2.73-5.09a3.07 3.07 0 0 0-.38-2.58c-2.66-4.2-8.93 4.38-11.84 1.4-4.32-4.43 13.29-14.193 14.31-23.003.25-2.232-.5-4.665-2.77-5.185-6.19-1.412-8.4 6.607-12.86 3.72-3.52-2.285-.06-8.235.64-9.715 1.32-2.803 2.83-5.628 2.51-10.015-.16-2.146-1.49-4.345-3.26-4.418-2.85-.122-2.57 3.853-6.84 3.732-3.25-.091-3.94-3.892-4.18-4.555-.84-2.35-2.78-5.644-5.6-6.08 0 0-.25-.021-.39-.021m-.02 11.05c.6 3.369.73 15.079.74 19.18 0 .782.36 1.112 1.42.302 2.88-2.228 4.68-4.045 6.9-7.612l1.85-2.879c.01.006-.49 2.175-1.48 3.783-2.7 4.387-5.4 6.86-7.22 8.297-.34.258-1.35.759-1.37 1.781-.04 1.293 0 8.178.04 10.95l.1 5.648c-.02 1.06.64 1.17 1.3.74 1.3-.85 2.2-1.31 3.47-2.17 3.75-2.528 6.62-5 10.7-7.881-.56 1.202-3.8 4.083-4.54 4.708-2.41 2.033-4.96 3.963-7.52 5.783-.27.19-1.41 1.05-2.35 1.6-.91.53-1.08 1.18-1.05 1.93-.08 1.32.01 4.65-.03 7.18l-.07 12.2c-.03.7.48 1.05 1.35.48 2.72-1.78 4.49-2.79 7.11-4.73 3.78-2.78 7.1-5.49 7.1-5.53 0-.01-.92 1.98-3.36 3.96-2.53 2.07-5.11 4.12-7.82 6.05a54 54 0 0 1-3.74 2.41 1.75 1.75 0 0 0-.72 1.25c-.02 5.62-.24 13.12-.79 16.88-.55-3.76-.77-11.26-.8-16.88 0-.28-.19-.89-.71-1.25a49 49 0 0 1-3.74-2.41c-2.71-1.93-5.29-3.98-7.83-6.05-2.43-1.98-3.35-3.97-3.36-3.96 0 .04 3.33 2.75 7.1 5.53 2.62 1.94 4.39 2.95 7.11 4.73.88.57 1.39.22 1.36-.48l-.07-12.2-.03-7.18c.03-.75-.15-1.4-1.05-1.93-.95-.55-2.09-1.41-2.35-1.6-2.56-1.82-5.12-3.75-7.53-5.783-.74-.625-3.98-3.506-4.54-4.708 4.09 2.88 6.96 5.353 10.7 7.881 1.28.86 2.18 1.32 3.48 2.17.66.43 1.32.32 1.3-.74-.02-1.87.06-2.95.1-5.648l.04-10.95c-.03-1.022-1.04-1.523-1.37-1.78-1.82-1.438-4.53-3.91-7.22-8.298-.99-1.607-1.49-3.775-1.49-3.783a124 124 0 0 1 1.86 2.879c2.22 3.567 4.01 5.384 6.9 7.612 1.04.81 1.41.48 1.41-.302.01-4.1.11-15.811.71-19.181m-23.36 79.94c-1 .06-1.906.39-2.64 1.12-4.76 4.67 4 13.92 4.22 13.85 3.48-1.09 8.53-6.21 9.46-9.36-.7-.94-6.71-5.86-11.04-5.61m46.75 0c-4.32-.25-10.34 4.67-11.03 5.61.93 3.15 5.98 8.27 9.46 9.36.22.07 8.97-9.18 4.22-13.85-.74-.72-1.65-1.06-2.65-1.12" fill="#000e2f"/></svg>