<svg height="100" viewBox="0 0 100 100" width="100" xmlns="http://www.w3.org/2000/svg">
  <path fill="#1D3F65" d="M4.825 31.381a1.13 1.13 0 0 0-1.466.614 1.15 1.15 0 0 0 .662 1.513 1.2 1.2 0 0 0 1.466-.662c.237-.614-.094-1.275-.662-1.465m1.04-2.362c-.567-.237-1.23 0-1.513.566-.236.568 0 1.277.568 1.513.567.283 1.277 0 1.513-.568.285-.567 0-1.228-.568-1.511m1.136-2.269c-.52-.284-1.23-.048-1.514.473a1.173 1.173 0 0 0 .521 1.56c.52.283 1.23.046 1.513-.521.284-.566.048-1.229-.52-1.512m1.277-2.221c-.52-.33-1.23-.142-1.56.425-.285.52-.095 1.229.425 1.56.568.283 1.278.141 1.561-.426.332-.566.142-1.228-.426-1.56m1.42-2.126c-.52-.378-1.23-.19-1.609.33-.331.52-.19 1.23.379 1.56.52.33 1.23.189 1.56-.33.331-.52.19-1.23-.33-1.56m1.514-2.08c-.521-.378-1.231-.284-1.61.237-.378.52-.283 1.228.237 1.606s1.23.237 1.61-.236c.377-.52.236-1.229-.237-1.607m1.608-1.984c-.52-.426-1.23-.331-1.608.142-.427.52-.332 1.228.141 1.606.473.425 1.23.331 1.608-.142.379-.52.332-1.228-.141-1.606m1.703-1.89c-.474-.426-1.183-.426-1.609.046-.426.473-.426 1.182.047 1.608.474.424 1.23.378 1.608-.048.427-.473.427-1.229-.046-1.607m1.797-1.843c-.473-.426-1.183-.426-1.609 0-.472.471-.472 1.18 0 1.606.426.473 1.136.473 1.61 0 .425-.426.425-1.135 0-1.606m1.892-1.702a1.13 1.13 0 0 0-1.608-.094 1.13 1.13 0 0 0-.095 1.606c.426.473 1.136.52 1.609.095s.52-1.134.094-1.607m1.987-1.607c-.38-.473-1.136-.566-1.608-.189-.473.425-.568 1.134-.19 1.607.426.52 1.135.567 1.609.19a1.14 1.14 0 0 0 .19-1.608m2.081-1.512c-.378-.52-1.088-.614-1.608-.236-.52.331-.615 1.087-.236 1.56.33.519 1.088.66 1.56.283.521-.378.663-1.087.284-1.607m2.129-1.418c-.33-.52-1.04-.66-1.56-.33-.569.378-.71 1.087-.332 1.607.331.52 1.04.66 1.561.33s.662-1.04.33-1.607m2.224-1.275c-.332-.52-1.042-.71-1.562-.378a1.06 1.06 0 0 0-.426 1.512c.332.567.994.756 1.561.425.52-.284.71-.993.427-1.56m2.27-1.135c-.284-.566-.994-.803-1.514-.52a1.17 1.17 0 0 0-.52 1.56c.284.52.993.756 1.513.473.568-.283.805-.946.52-1.513m2.317-1.039a1.13 1.13 0 0 0-1.466-.614c-.615.283-.852.944-.615 1.511.284.568.946.851 1.514.615.567-.283.852-.946.567-1.512m2.413-.945a1.2 1.2 0 0 0-1.467-.662c-.614.236-.898.898-.661 1.465.236.615.851.898 1.466.662.568-.19.898-.851.662-1.465m2.412-.804c-.188-.566-.851-.897-1.418-.708-.616.188-.946.85-.758 1.417.19.614.852.945 1.467.757.568-.19.899-.852.71-1.466m2.46-.661c-.142-.614-.757-.945-1.372-.804-.614.19-.993.804-.803 1.418.142.614.756.945 1.371.804.615-.19.994-.804.804-1.418m2.507-.52c-.094-.615-.71-.993-1.324-.898-.615.141-1.04.756-.899 1.371.142.613.757.992 1.372.897a1.14 1.14 0 0 0 .851-1.37m2.555-.425c-.095-.615-.71-1.04-1.325-.946-.615.142-1.04.71-.945 1.323.094.615.662 1.04 1.323.946.615-.095 1.042-.661.947-1.323m2.507-.237C46.027.666 45.46.24 44.844.287c-.615.094-1.088.661-.993 1.276.047.614.615 1.086 1.23.992.615-.047 1.088-.615.993-1.229m7.71-.047c0-.614-.473-1.134-1.088-1.181-.662-.047-1.182.472-1.23 1.087 0 .614.473 1.181 1.088 1.181.663.047 1.183-.426 1.23-1.087m2.508.284c.094-.615-.379-1.182-.994-1.229-.615-.095-1.182.378-1.277.992-.047.614.426 1.182 1.04 1.229.616.094 1.184-.378 1.23-.992m2.554.377A1.12 1.12 0 0 0 57.9.665c-.615-.095-1.23.33-1.324.944a1.12 1.12 0 0 0 .945 1.277c.615.141 1.23-.283 1.325-.946m2.507.568c.142-.614-.283-1.229-.898-1.371s-1.23.236-1.325.898c-.142.614.237 1.182.852 1.323a1.14 1.14 0 0 0 1.371-.85m2.46.614c.142-.567-.189-1.228-.805-1.37-.615-.19-1.23.188-1.418.803-.142.614.236 1.228.803 1.418.615.141 1.278-.237 1.42-.85m2.412.804c.237-.615-.094-1.23-.71-1.418a1.13 1.13 0 0 0-1.418.709c-.19.614.094 1.228.71 1.465a1.12 1.12 0 0 0 1.418-.756m2.413.897c.237-.567-.047-1.228-.663-1.465-.567-.236-1.23.095-1.466.662-.237.615.048 1.228.663 1.464.567.237 1.23-.046 1.466-.66m2.318 1.04c.283-.567 0-1.228-.568-1.512-.567-.237-1.23.047-1.513.614-.237.567 0 1.228.615 1.513a1.133 1.133 0 0 0 1.466-.616m2.318 1.181a1.17 1.17 0 0 0-.52-1.56c-.568-.283-1.23-.046-1.515.52-.283.567-.094 1.23.473 1.513.568.283 1.278.094 1.562-.473m2.223 1.276c.284-.567.094-1.276-.426-1.56-.568-.33-1.276-.14-1.56.427-.332.52-.143 1.228.425 1.558.52.284 1.23.095 1.56-.425m2.129 1.37c.331-.519.19-1.228-.332-1.56-.52-.377-1.23-.188-1.56.332a1.06 1.06 0 0 0 .33 1.56c.52.33 1.23.188 1.562-.331m2.08 1.513c.38-.52.237-1.23-.236-1.607-.52-.378-1.23-.236-1.608.236-.378.52-.283 1.229.237 1.608.52.377 1.23.283 1.608-.237m1.987 1.607c.38-.52.332-1.229-.188-1.607-.473-.426-1.183-.33-1.608.142-.379.52-.285 1.228.188 1.606.473.426 1.23.331 1.608-.141m1.893 1.7a1.13 1.13 0 0 0-.094-1.606c-.426-.425-1.183-.379-1.609.094a1.13 1.13 0 0 0 .095 1.608 1.13 1.13 0 0 0 1.608-.095m1.798 1.797a1.127 1.127 0 0 0 .047-1.608 1.234 1.234 0 0 0-1.655 0c-.427.426-.427 1.182 0 1.608.473.472 1.181.472 1.608 0m1.75 1.89c.473-.425.473-1.134.094-1.607-.425-.473-1.183-.52-1.608-.095-.473.426-.52 1.182-.095 1.608a1.13 1.13 0 0 0 1.608.093m1.608 1.985c.474-.38.567-1.087.142-1.607-.378-.472-1.088-.567-1.56-.142-.521.378-.569 1.087-.19 1.606.379.473 1.135.568 1.608.143m1.514 2.079c.52-.378.615-1.087.236-1.607-.378-.52-1.088-.615-1.608-.236-.473.378-.615 1.087-.236 1.607.378.472 1.088.614 1.608.236m1.371 2.126c.521-.33.71-1.04.332-1.559-.332-.52-1.041-.709-1.562-.33-.52.33-.661 1.038-.33 1.559.33.52 1.04.661 1.56.33m1.278 2.222c.568-.331.757-.993.426-1.56-.284-.52-.994-.709-1.561-.426-.521.331-.71 1.04-.426 1.56.331.567 1.04.756 1.56.426m1.183 2.267c.567-.283.803-.944.52-1.512a1.173 1.173 0 0 0-1.561-.52c-.567.284-.757.993-.473 1.56.284.52.946.756 1.514.472m1.04 2.363c.568-.283.851-.945.568-1.512-.237-.567-.9-.85-1.467-.614-.614.284-.851.945-.614 1.512.283.567.946.85 1.513.614m.946 2.363c.568-.237.852-.898.663-1.465a1.15 1.15 0 0 0-1.514-.661 1.13 1.13 0 0 0-.615 1.465c.188.614.851.897 1.466.66m.757 2.41c.616-.188.946-.803.757-1.417-.19-.615-.851-.945-1.419-.709a1.117 1.117 0 0 0-.758 1.417c.19.614.853.945 1.42.709m.71 2.505c.567-.19.946-.804.804-1.418a1.184 1.184 0 0 0-1.42-.803c-.614.142-.946.803-.804 1.417.143.568.805.945 1.42.804m.52 2.457c.615-.095.994-.71.851-1.323-.094-.615-.709-.993-1.324-.898-.615.142-.994.756-.899 1.37a1.14 1.14 0 0 0 1.373.85m.379 2.552a1.167 1.167 0 0 0 .993-1.324c-.143-.614-.71-1.039-1.325-.944-.614.094-1.04.71-.946 1.322.095.615.663 1.04 1.278.946m.283 2.551a1.19 1.19 0 0 0 1.04-1.275c-.093-.614-.661-1.087-1.276-.992-.615.047-1.088.614-.993 1.228.046.615.614 1.087 1.23 1.04m.142 2.552c.615-.047 1.135-.566 1.088-1.228-.048-.615-.568-1.087-1.183-1.04a1.09 1.09 0 0 0-1.087 1.181 1.184 1.184 0 0 0 1.182 1.087m0 2.553a1.135 1.135 0 1 0 0-2.27 1.135 1.135 0 0 0 0 2.27M12.867 81.756c-.474.378-.52 1.134-.095 1.607a1.174 1.174 0 0 0 1.609.048c.473-.38.52-1.135.094-1.608-.426-.472-1.135-.472-1.608-.047m-1.608-1.985c-.474.378-.568 1.087-.142 1.56.378.52 1.088.567 1.56.19.521-.38.568-1.088.19-1.607-.379-.473-1.135-.568-1.608-.143m-1.514-2.079c-.52.378-.615 1.087-.236 1.56.378.52 1.087.662 1.608.283.473-.378.615-1.086.236-1.607-.378-.52-1.088-.614-1.608-.236m-1.372-2.126c-.52.33-.71 1.039-.332 1.559.332.52 1.041.662 1.562.33.52-.33.662-1.04.33-1.559a1.062 1.062 0 0 0-1.56-.33m-1.277-2.222c-.568.284-.758.993-.426 1.56.284.52.993.709 1.561.378.52-.283.71-.992.426-1.512-.331-.567-1.04-.756-1.56-.426m-1.183-2.267c-.568.283-.804.944-.473 1.511.284.568.946.804 1.514.52.567-.283.804-.992.472-1.56-.283-.566-.945-.756-1.513-.471m-1.04-2.364c-.568.285-.852.946-.568 1.513.237.566.899.85 1.513.566.568-.236.805-.897.568-1.511a1.18 1.18 0 0 0-1.514-.568m-.9-2.362c-.614.189-.899.85-.662 1.465.19.566.852.897 1.467.661a1.2 1.2 0 0 0 .662-1.465c-.236-.614-.898-.897-1.466-.66M14.57 83.647c-.425.425-.425 1.134 0 1.606.474.425 1.183.425 1.61 0 .472-.472.472-1.181 0-1.606-.427-.473-1.136-.473-1.61 0m1.846 1.795a1.17 1.17 0 0 0 .047 1.606c.473.426 1.23.38 1.608-.093.426-.473.426-1.182-.047-1.608a1.13 1.13 0 0 0-1.608.095m32.403 13.373c-.048.614.425 1.135 1.087 1.182.616.047 1.136-.425 1.183-1.087.048-.614-.425-1.134-1.088-1.18-.615-.049-1.135.424-1.182 1.085m-.19-97.63c0-.615-.567-1.134-1.182-1.087a1.185 1.185 0 0 0-1.088 1.181c.048.661.568 1.134 1.23 1.087.614-.048 1.087-.567 1.04-1.181m2.603-.095c0-.614-.568-1.134-1.183-1.087a1.185 1.185 0 0 0-1.088 1.182c.047.66.567 1.133 1.23 1.087.615-.047 1.088-.568 1.04-1.182m47.492 52.69c.615.048 1.182-.425 1.182-1.04a1.126 1.126 0 0 0-1.04-1.228c-.662 0-1.182.473-1.23 1.087 0 .614.473 1.182 1.088 1.182m-.283 2.552a1.105 1.105 0 0 0 1.277-.992c.046-.614-.379-1.181-.994-1.276-.661-.047-1.23.378-1.276 1.04-.048.614.378 1.182.993 1.228m-.378 2.552c.614.095 1.181-.33 1.323-.945.095-.661-.33-1.229-.945-1.323-.663-.094-1.23.33-1.325.945-.095.614.332 1.228.947 1.323m-.522 2.505c.615.094 1.23-.284 1.325-.898a1.14 1.14 0 0 0-.851-1.37c-.615-.095-1.23.283-1.372.898-.142.614.284 1.229.898 1.37m-.661 2.457c.615.142 1.23-.19 1.371-.804.19-.614-.188-1.228-.803-1.417-.616-.142-1.231.189-1.373.803-.19.614.19 1.229.805 1.418m-.805 2.41a1.13 1.13 0 0 0 1.42-.709 1.107 1.107 0 0 0-.71-1.465 1.12 1.12 0 0 0-1.42.756c-.19.568.095 1.229.71 1.418m-.9 2.41a1.2 1.2 0 0 0 1.468-.662c.237-.614-.048-1.275-.663-1.464a1.13 1.13 0 0 0-1.466.614 1.15 1.15 0 0 0 .662 1.512m-1.04 2.316c.569.236 1.23 0 1.514-.567.236-.567 0-1.276-.615-1.512-.567-.237-1.23 0-1.465.567-.285.567 0 1.276.567 1.512m-1.181 2.269c.567.283 1.276.093 1.56-.473a1.17 1.17 0 0 0-.52-1.56c-.568-.284-1.23-.048-1.513.52-.285.567-.095 1.228.473 1.513m-1.278 2.22c.568.331 1.278.142 1.561-.426.332-.52.142-1.228-.426-1.558-.52-.284-1.23-.095-1.561.425a1.196 1.196 0 0 0 .426 1.56m-1.372 2.126a1.06 1.06 0 0 0 1.56-.33c.332-.52.19-1.23-.33-1.56s-1.23-.189-1.56.33c-.332.521-.19 1.23.33 1.56m-1.514 2.08c.52.378 1.23.284 1.608-.236s.237-1.229-.283-1.607c-.473-.378-1.183-.237-1.561.284-.378.472-.284 1.181.236 1.56m-1.608 1.985c.473.425 1.23.33 1.608-.142.379-.52.332-1.228-.188-1.606-.473-.426-1.183-.331-1.561.141-.427.52-.332 1.229.141 1.607m-1.703 1.89c.473.425 1.182.425 1.608-.048a1.127 1.127 0 0 0-.094-1.606 1.173 1.173 0 0 0-1.608.047c-.427.473-.379 1.23.094 1.607m-1.797 1.843c.426.425 1.135.425 1.608 0 .425-.473.425-1.182 0-1.606-.473-.473-1.182-.473-1.608 0-.473.424-.473 1.133 0 1.606m-1.893 1.701c.378.473 1.136.52 1.61.095a1.17 1.17 0 0 0 .046-1.607c-.378-.473-1.135-.52-1.608-.095s-.473 1.135-.048 1.607m-1.986 1.607c.378.472 1.088.567 1.56.19a1.14 1.14 0 0 0 .19-1.608c-.379-.52-1.088-.567-1.609-.189-.473.378-.566 1.134-.141 1.607m-2.081 1.511c.378.521 1.088.615 1.56.237.52-.378.662-1.087.284-1.559-.378-.52-1.088-.662-1.608-.284s-.615 1.087-.236 1.606m-2.177 1.372c.379.52 1.089.709 1.609.33.52-.33.662-1.04.331-1.559-.331-.52-1.041-.662-1.561-.331a1.107 1.107 0 0 0-.379 1.56m-2.176 1.276c.284.566.994.756 1.562.425.52-.283.71-.992.378-1.56-.284-.52-.993-.709-1.513-.426-.568.331-.758 1.04-.427 1.561m-2.27 1.18a1.12 1.12 0 0 0 1.514.52c.567-.33.803-.992.52-1.558-.331-.568-.993-.804-1.561-.473-.568.283-.805.945-.473 1.512m-2.365 1.04c.283.567.946.851 1.513.567.568-.236.852-.897.568-1.512-.236-.567-.898-.803-1.513-.567a1.18 1.18 0 0 0-.568 1.512m-2.366.898c.19.614.852.899 1.467.662.568-.19.851-.851.662-1.466-.236-.566-.899-.897-1.467-.66-.614.236-.898.897-.662 1.464m-2.46.804c.19.614.852.945 1.467.756.568-.189.898-.85.71-1.465a1.15 1.15 0 0 0-1.42-.71 1.117 1.117 0 0 0-.756 1.419m-2.459.661c.142.614.804.992 1.419.804.568-.142.946-.756.804-1.37-.19-.616-.804-.994-1.42-.804-.614.141-.946.756-.803 1.37m-2.507.52c.141.615.756 1.04 1.372.898.614-.142.992-.709.85-1.37-.093-.614-.708-.993-1.323-.85-.616.14-1.041.708-.9 1.323m-2.508.425c.095.615.663 1.04 1.278.946s1.04-.662.946-1.324a1.12 1.12 0 0 0-1.277-.945c-.615.095-1.04.71-.947 1.323m-2.554.284c.048.614.615 1.086 1.23.992.662-.047 1.088-.615 1.04-1.229-.046-.66-.614-1.086-1.276-1.039-.616.095-1.041.614-.994 1.276m-2.554.141c.047.614.568 1.087 1.182 1.04.662 0 1.135-.567 1.088-1.181a1.185 1.185 0 0 0-1.182-1.086c-.615.046-1.135.566-1.088 1.227m-5.11-.141c-.046.614.427 1.133 1.089 1.181.615.047 1.135-.426 1.183-1.087.047-.614-.426-1.134-1.088-1.18-.615-.048-1.135.424-1.183 1.086m-2.553-.284a1.19 1.19 0 0 0 1.04 1.276c.616.048 1.182-.378 1.23-1.04.047-.614-.378-1.181-.993-1.228-.663-.095-1.183.378-1.277.992m-2.508-.378c-.094.615.331 1.181.946 1.276s1.183-.283 1.278-.945a1.12 1.12 0 0 0-.946-1.276 1.12 1.12 0 0 0-1.278.945m-2.506-.52c-.143.615.236 1.182.851 1.323a1.14 1.14 0 0 0 1.372-.85c.141-.614-.284-1.229-.899-1.37s-1.183.284-1.324.898m-2.46-.661c-.19.567.189 1.228.804 1.37.568.19 1.23-.189 1.371-.803a1.08 1.08 0 0 0-.803-1.371 1.08 1.08 0 0 0-1.373.804m-2.46-.804c-.19.615.141 1.23.756 1.418.568.19 1.231-.094 1.42-.709a1.13 1.13 0 0 0-.71-1.418 1.11 1.11 0 0 0-1.466.709m-2.365-.897a1.13 1.13 0 0 0 .615 1.464c.615.237 1.276-.094 1.513-.66a1.197 1.197 0 0 0-.662-1.466c-.615-.236-1.277.047-1.466.662m-2.366-1.04a1.18 1.18 0 0 0 .568 1.512c.615.237 1.277-.048 1.513-.614.285-.567 0-1.229-.567-1.512-.568-.236-1.23.047-1.514.614m-2.27-1.181c-.284.567-.048 1.275.472 1.56a1.175 1.175 0 0 0 1.562-.521 1.12 1.12 0 0 0-.52-1.512 1.116 1.116 0 0 0-1.515.473m-2.224-1.277c-.331.568-.141 1.23.427 1.56.52.331 1.23.142 1.56-.425.331-.52.143-1.23-.425-1.56-.52-.284-1.23-.094-1.562.425m-2.128-1.37c-.379.52-.19 1.229.33 1.56.522.331 1.23.188 1.562-.331.331-.52.19-1.229-.332-1.56-.52-.378-1.23-.188-1.56.331m-2.082-1.511c-.378.52-.283 1.227.237 1.606.52.378 1.23.235 1.609-.284.378-.473.236-1.18-.237-1.559-.52-.378-1.23-.284-1.609.237m-1.986-1.608c-.379.473-.332 1.23.141 1.608.521.378 1.23.33 1.609-.19.426-.472.33-1.181-.142-1.606-.52-.38-1.23-.284-1.608.188M3.169 63.893c-.615.19-.945.852-.756 1.466.19.566.851.897 1.466.708.568-.189.9-.85.71-1.417-.189-.614-.852-.945-1.42-.757m-.662-2.457c-.614.19-.993.804-.804 1.418.142.566.758.945 1.371.803.616-.189.995-.803.805-1.417-.142-.615-.757-.946-1.372-.804m-.568-2.505a1.14 1.14 0 0 0-.851 1.371c.142.614.71.992 1.325.85a1.1 1.1 0 0 0 .898-1.322c-.142-.615-.757-1.04-1.372-.899m-.378-2.504a1.12 1.12 0 0 0-.946 1.276c.095.662.663 1.086 1.278.945.661-.095 1.088-.662.946-1.277a1.12 1.12 0 0 0-1.278-.944m-.283-2.552a1.105 1.105 0 0 0-.994 1.276c.047.614.614 1.04 1.23.992.615-.047 1.088-.613 1.04-1.275-.093-.615-.661-1.04-1.276-.993m-.143-2.551a1.183 1.183 0 0 0-1.087 1.18c.047.662.567 1.135 1.23 1.087a1.185 1.185 0 0 0 1.088-1.18c-.048-.615-.568-1.135-1.231-1.087m0-.285A1.134 1.134 0 1 0 0 49.906c0 .627.508 1.133 1.135 1.133m.143-4.819a1.09 1.09 0 0 0-1.183 1.086c-.047.614.425 1.135 1.04 1.182.663.048 1.183-.425 1.23-1.087.048-.615-.472-1.134-1.087-1.18m.283-2.553c-.663-.047-1.23.38-1.277 1.04-.047.615.379 1.182 1.04 1.229.615.048 1.183-.378 1.23-.992.048-.661-.378-1.182-.993-1.277m.378-2.504c-.614-.094-1.23.331-1.324.946a1.12 1.12 0 0 0 .946 1.275c.663.095 1.23-.331 1.325-.945a1.12 1.12 0 0 0-.947-1.276m.522-2.505c-.616-.141-1.231.237-1.326.851a1.14 1.14 0 0 0 .852 1.37c.615.143 1.23-.283 1.372-.897a1.16 1.16 0 0 0-.898-1.324m.661-2.457a1.077 1.077 0 0 0-1.371.804c-.19.567.188 1.229.803 1.37.568.189 1.23-.19 1.373-.803a1.077 1.077 0 0 0-.805-1.37m.805-2.458c-.616-.188-1.278.143-1.466.757-.19.568.141 1.229.756 1.417.567.19 1.23-.141 1.419-.756.19-.566-.142-1.228-.71-1.418M53.311 18.98h3.074v-.143h-3.074zm3.074-.073H53.31zm.52-1.771h1.325v-.143h-1.325zm1.325-.071h-1.325zm-1.561.355h1.324v-.142H56.67zm1.324-.072H56.67zm-1.844.402h1.42v-.142h-1.42zm1.418-.071H56.15zm-3.593.45h3.074v-.142h-3.074zm3.073-.072h-3.074zm-4.21.497h3.832v-.143h-3.832zm3.832-.071h-3.831zm-1.513 1.511-3.69-1.511 4.351 6.851zm-1.302-3.841-2.298 2.25-.13-6.235zm.239.029-2.871-4.711.153 7.374zm-2.77-4.363.142 6.805 2.508-2.457zm.103.35 2.466 4.047.023.038 4.346.64-3.126 2.99-3.576-1.466zm7.246 4.594-4.642-.683-2.808-4.61.15 7.076 3.747 1.536.057.024zm-7.134 2.009 3.995 6.289-4.3-2.473zm-.144-.58-.358 4.5 5.068 2.916zm-.086.346-4.33 5.915.614-4.301-3.302-3.477zm.316-.112-7.931-2.106 3.699 3.896-.71 4.96zm-7.632-1.929 7.473 1.986-2.317-2.458zm7.143 6.144.33-4.158-4.635 6.332zm.146-10.635.135 6.355-2.21-2.344zm.09-.187-.003-.186-2.277 4.4 2.425 2.57zm12.867 81.706h.005zm-16.553 1.7c-1.953-.047-4.264-.23-4.62-.444-.711-.456-2.02-.427-2.353-.408-2.06-.398-4.461-.989-4.774-1.241l-.092-.113-1.572-.47c-1.394-.372-2.275-.797-3.722-1.61l-.107-.06h-.026a82 82 0 0 1-2.123-1.083l-.111-.062c-1.62-.675-3.138-1.861-3.177-1.89-1.261-.872-4.698-3.325-5.454-4.231-.794-.867-1.107-1.031-1.408-1.144-.023-.008-.046-.014-.05-.017-.14-.093-.573-.566-.922-.98-.01-.01-.97-.97-1.36-1.536-.131-.196-.449-.571-.889-1.09-.942-1.111-2.367-2.792-3.066-4.03-1.037-1.837-1.603-2.688-1.624-2.72-.013-.02-1.305-2.014-2.083-4.21-.64-1.668-.952-2.25-1.109-2.472-.418-1.218-1.075-3.205-1.138-3.58l-.058-.39c-.173-1.189-.286-1.693-.537-1.939-.23-.525-.817-3.959-.817-5.061l.003-.594c.008-1.145.003-1.734-.186-2.063-.053-.313.002-1.585.023-2.075.01-.244.018-.432.018-.513 0-.257.068-1.222.095-1.607 0-1.722.113-3.79.27-4.096.486-.59.465-2.268.442-2.86.436-2.125 1.055-4.6 1.305-4.932.519-.612.612-1.368.628-1.63.858-2.366 1.991-5.086 2.345-5.404.636-.543.733-1.138.738-1.432.403-.761.902-1.62 1.08-1.822.183-.095.311-.302.819-1.137.649-1.07 1.736-2.863 2.59-3.48 1.193-.895 1.453-1.506 1.592-1.834l.032-.075c.372-.442 3.29-3.609 4.345-4.137.926-.427 1.055-.497 1.327-.904.058-.088.134-.201.273-.375.468-.624 5.613-3.862 6.901-4.34a13 13 0 0 0 2.03-1.057c1.863-.802 6.856-2.827 8.24-2.827 1.475 0 2.077-.314 2.4-.484l.072-.037c.12-.01.393-.042 1.148-.135 1.538-.189 6.217-.767 6.81-.602l.096.035.101-.005c.029-.002 2.822-.18 4.24.22 1.034.288 1.219.293 1.502.188.04-.016.079-.03.235-.03.64 0 2.211.277 2.468.431.417.298.986.26 1.193.234.502.034 1.033.123 1.227.205.222.498.767.443.98.42.06-.006.123-.014.187-.014.36 0 2.511.307 3.535 1.124 1.913 1.536 3.214 1.675 3.913 1.749.124.014.28.03.317.045.225.125.387.15.534.163.017.002.035 0 .053.007 0 0 .075.025.301.27.562.562 1.409.836 1.661.909a101 101 0 0 1 2.29 1.385l.023.022c.07.071.132.1.313.182.269.125.9.416 1.2.716.078.077.163.121.39.237.676.35 2.475 1.276 3.615 3.04l.067.103.108.058c.223.119.478.326.51.398l.015.07c.125.439.565.652.939.71.414.195 3.008 1.514 3.65 4.159.118.417.687.862.98 1.07.243.299 1.51 1.893 1.868 2.882.402 1.118 1.328 2.278 1.551 2.548.21.482 1.478 3.38 2.258 4.387.705.9.66 1.575.659 1.595l-.018.165.09.14c.016.027 1.662 2.643 1.487 4.968a3.2 3.2 0 0 0 .44 1.744c.056.525.301 2.745.514 3.853q.065.326.104.55l-.018.525c-.004.113-.092 2.808.239 5.218.086.766.005 1.285.004 1.288l-.006.055c-.052 1.088-.243 4.097-.5 4.942-.223.731-.281 1.114-.267 1.338-.141.5-.773 2.775-1.396 5.353-.097.407-.326.598-.567.799-.239.197-.534.442-.534.862-.023.222-.51 1.04-.902 1.698-.388.65-.825 1.386-1.234 2.182-.354.796-1.746 4.107-1.964 4.624-.183.232-.813 1.092-1.678 2.985-.178.399-.484.748-.78 1.085-.282.319-.548.62-.725.974-.083.161-.653.531-1.03.776-.845.547-1.715 1.112-1.842 1.813-.197.175-.772.563-1.256.858l-.066.048c-.113.1-2.794 2.462-4.542 4.634-.233.275-.394.34-.581.418a1.6 1.6 0 0 0-.575.356c-.276.266-3.439 2.258-4.404 2.58-1.026.341-2.03.912-2.056.927-.01.005-1.002.517-3.255 1.298l-1.392.51c-1.133.266-1.616.479-1.804.584-1.877.538-5.056 1.354-5.797 1.288-.943-.04-1.21-.03-1.56.23-.698.12-5.08.272-5.865.105a7 7 0 0 0-.97-.083c-.202 0-.337.016-.42.03m7.714.785.087-.065c.025-.02.044-.039.067-.052.101-.04.686-.015.886-.008 1.143.104 5.668-1.19 6.18-1.34l.13-.058c.013-.009.35-.21 1.597-.502l1.466-.533c2.325-.806 3.333-1.33 3.391-1.36.01-.005.967-.548 1.901-.86 1.067-.354 4.395-2.429 4.774-2.808.066-.066.13-.093.267-.15.236-.099.562-.232.95-.69 1.607-1.997 4.107-4.233 4.408-4.5 1.657-1.017 1.657-1.236 1.657-1.468 0-.27.999-.918 1.426-1.194.723-.47 1.177-.776 1.362-1.146.122-.244.349-.501.587-.773.328-.372.7-.793.934-1.322.941-2.058 1.576-2.808 1.581-2.815l.05-.058.03-.07c.016-.038 1.61-3.832 1.971-4.646.383-.745.814-1.467 1.194-2.105.699-1.174 1.035-1.757 1.024-2.131.022-.037.126-.123.203-.188.284-.235.712-.591.882-1.303.7-2.887 1.408-5.392 1.415-5.417l.06-.21-.051-.075c.012-.112.055-.38.225-.935.334-1.097.52-4.782.538-5.148a6.3 6.3 0 0 0-.002-1.528c-.234-1.704-.25-3.6-.242-4.515.228-.204.138-.663-.093-1.841-.23-1.196-.512-3.857-.514-3.883l-.014-.125-.072-.1c-.004-.007-.376-.548-.338-1.25.176-2.35-1.207-4.823-1.558-5.409-.008-.352-.118-1.153-.858-2.099-.759-.98-2.15-4.212-2.163-4.244l-.075-.12c-.01-.013-1.037-1.224-1.428-2.311-.449-1.245-2-3.133-2.067-3.212l-.097-.09c-.294-.201-.62-.495-.66-.572-.804-3.311-4.108-4.753-4.247-4.812l-.143-.036c-.06-.006-.19-.04-.2-.038-.103-.465-.612-.82-.883-.982-1.278-1.91-3.186-2.893-3.913-3.267-.08-.042-.144-.074-.184-.097-.423-.404-1.108-.72-1.441-.874l-.13-.06-.002.004c-.35-.27-1.07-.696-2.463-1.522l-.126-.052c-.009-.002-.832-.218-1.28-.665-.406-.44-.638-.534-.948-.564a.3.3 0 0 1-.164-.048c-.191-.107-.405-.13-.676-.159-.644-.068-1.724-.183-3.42-1.546-1.337-1.068-3.822-1.332-4.128-1.332-.096 0-.192.01-.283.018l-.067.007c-.113-.22-.482-.545-2.034-.639l-.054-.003-.052.01c-.134.02-.433.02-.546-.061-.483-.345-2.39-.608-3.019-.608-.303 0-.447.044-.562.092-.064.018-.267-.033-.918-.216-1.452-.408-4-.285-4.483-.258-.653-.137-2.61.027-7.136.583a70 70 0 0 1-1.092.13c-.179 0-.318.072-.453.144-.251.13-.718.376-1.96.376-1.842 0-7.963 2.622-8.655 2.92l-.08.046c-.007.004-.738.5-1.884.985-1.247.462-6.624 3.736-7.3 4.637a6 6 0 0 0-.312.43c-.132.198-.135.202-.95.578-1.336.667-4.524 4.21-4.698 4.427l-.037.052a2 2 0 0 0-.102.215c-.113.264-.3.705-1.283 1.441-1.003.726-2.107 2.546-2.839 3.751-.195.324-.414.684-.514.819-.214.136-.574.589-1.472 2.303l-.064.14.014.14c.002.015.032.387-.406.762-.702.602-2.202 4.645-2.644 5.87l-.028.078v.082c0 .007-.012.643-.41 1.116-.511.61-1.293 4.292-1.52 5.405l-.012.058.002.058c.046 1.012-.058 2.077-.24 2.3-.409.56-.47 3.17-.468 4.638-.01.133-.096 1.303-.096 1.642 0 .074-.008.248-.018.473-.082 1.93-.05 2.331.09 2.564.082.178.077.97.072 1.606l-.002.602c0 .23.44 5.068 1.128 5.75l-.004.006a.2.2 0 0 1-.052-.054c.11.184.237 1.06.292 1.435.022.155.043.295.062.408.098.588 1.089 3.48 1.201 3.808l.045.13.066.053c.063.096.337.558.98 2.231.813 2.295 2.121 4.316 2.18 4.406.006.008.572.861 1.59 2.663.744 1.316 2.203 3.038 3.169 4.178.387.457.721.851.828 1.01.444.642 1.431 1.63 1.444 1.64.177.212.778.919 1.113 1.143.077.046.148.074.226.103.126.048.336.127 1.026.88.977 1.17 5.44 4.256 5.606 4.37.065.051 1.631 1.277 3.374 2.002l.005-.012c.445.247 1.72.94 2.268 1.16l-.005.01c1.518.852 2.448 1.3 3.928 1.694l1.332.4c.72.506 3.202 1.063 5.242 1.454l.06.011.06-.004c.506-.032 1.456.009 1.855.265.757.455 4.135.564 5.152.588l.125-.014c.002-.001.303-.063 1.066.05.22.047 1.026.071 2.001.071 1.802 0 4.18-.084 4.489-.27m30.198-50.452a7.5 7.5 0 0 1-.356-2.03l-.005-.07c-.05-.332-.502-3.275-1.035-4.292-.446-.936-.769-2.215-.783-2.263-.124-.369-1.24-3.62-2.11-4.54-.755-.711-1.244-2.112-1.25-2.125l-.07-.133c-.016-.023-1.686-2.21-3.191-3.855-1.445-1.63-2.443-2.814-2.48-2.856-.106-.106-1.046-1.04-1.595-1.388-.234-.15-.547-.258-.878-.371-.238-.082-.625-.216-.755-.315-.153-.902-2.398-2.874-4.516-3.344-1.981-.484-3.063-1.362-3.104-1.393-.247-.173-2.445-1.676-3.81-1.295-.983.288-2.032-.151-2.285-.499-.447-.573-4.249-.966-4.68-1.008a33 33 0 0 0-1.33-.105l.02.942c2.263.143 4.765.559 5.287.808.555.668 1.984 1.14 3.247.77.703-.195 2.217.608 2.977 1.137.049.042 1.244 1.022 3.463 1.564 1.848.41 3.634 2.097 3.794 2.55.026.613.746.862 1.384 1.082.264.09.537.185.679.274.39.248 1.167.993 1.406 1.23.01.01 1.013 1.204 2.472 2.85 1.346 1.47 2.827 3.383 3.099 3.736.122.332.642 1.654 1.447 2.412.602.635 1.563 3.23 1.873 4.137.013.057.348 1.381.843 2.421.391.746.807 3.093.94 3.978a8.3 8.3 0 0 0 .397 2.267c.253.867.209 3.046.17 3.827l-.044 1.997-.324 3.367c-.137.298-.525 1.245-.335 2.049.073.44-.532 2.27-1.14 3.727-.278.473-1.453 2.497-1.592 3.154-.157.55-1.05 2.914-1.433 3.923l-.17.452c-.097.292-.595.828-1.078 1.347-.264.284-.546.587-.826.915-.758.934-1.651 2.068-2.531 3.386-.213.312-.892.767-1.492 1.17-1.021.684-1.987 1.331-2.126 2.06-.15.419-1.553 1.87-2.013 2.093-.787-.084-2.424 1.347-2.711 1.841-.194.331-.566.519-.698.576-.445.041-2.648.287-4.072 1.22l-2.417.82c-.77.143-2.004.271-2.426.104-.971-.326-3.194.6-3.739.964-.294.214-2.007.33-3.578-.075-1.494-.386-8.208-1.045-10.636-1.244-1.073-.067-2.445-.29-2.9-.971l-.055-.081-2.115-1.376h-.001c-.386-.279-2.007-1.273-3.268-1.75-.901-.322-3.56-2.686-5.128-4.197l-.133-.09c-.036-.018-.92-.487-3.85-4.026-2.993-3.67-3.538-6.742-3.543-6.773l-.087-.522-.349.1c-.126-.15-.448-.684-.745-2.41-.443-2.785-1.758-7.512-1.972-8.274.042-.33.123-1.344-.157-3.023-.3-1.796.393-6.163.467-6.613.085-.256.557-1.69.992-3.691.196-.821.47-1.052.757-1.295.533-.452.912-.893.912-2.453 0-2.493 3.686-6.979 3.7-6.997.052-.054 1.281-1.335 1.785-2.29.296-.592 1.225-1.357 1.903-1.916.418-.345.749-.617.91-.815.052-.058.114-.087.284-.162.52-.23 1.393-.617 3.446-2.809 2.75-2.928 7.31-3.674 7.318-3.677l.05.002c1.671.058 2.243-.606 2.433-1.176.116-.345 1.718-.732 3.323-.808.481.14 2.777.728 4.154-.449.328-.282 1.203-.392 2.288-.395l.482-.931c-1.454-.025-2.807.11-3.387.61-1.105.945-3.307.247-3.33.24l-.082-.027-.084.004c-1.15.047-3.869.281-4.26 1.457-.127.378-.65.56-1.501.53l-.085-.003c-.043 0-4.966.736-8.009 3.977-1.922 2.052-2.714 2.402-3.14 2.59-.213.096-.413.184-.617.412-.118.143-.447.414-.795.701-.785.647-1.762 1.451-2.143 2.213-.436.827-1.613 2.054-1.65 2.093-.16.194-3.94 4.795-3.94 7.626 0 1.243-.241 1.448-.577 1.731-.354.301-.796.674-1.068 1.807-.46 2.118-.972 3.618-.977 3.633l-.02.076c-.033.2-.813 4.92-.473 6.959.31 1.855.146 2.805.144 2.812l-.02.11.03.107c.014.053 1.51 5.347 1.975 8.268.303 1.763.706 2.78 1.23 3.11l.01.005c.205.878 1.02 3.665 3.687 6.936 2.68 3.238 3.76 4.045 4.105 4.243.591.567 4.081 3.882 5.41 4.356 1.255.475 2.818 1.474 3.028 1.618l2.01 1.311c.57.765 1.739 1.193 3.56 1.306 2.318.19 9.05.85 10.468 1.216a10.8 10.8 0 0 0 2.492.297c.792 0 1.507-.103 1.863-.362.568-.379 2.43-1.006 2.872-.852.8.319 2.607-.002 2.962-.07l2.57-.867.113-.056c1.342-.909 3.72-1.1 3.744-1.101l.123-.026c.084-.03.837-.315 1.243-1.011.234-.4 1.405-1.269 1.776-1.376a.72.72 0 0 0 .453-.055c.68-.29 2.427-2.07 2.608-2.8.05-.333 1.098-1.036 1.724-1.456.735-.492 1.43-.959 1.749-1.425.862-1.29 1.738-2.402 2.473-3.31.264-.307.538-.6.793-.875.627-.675 1.121-1.207 1.278-1.676l.163-.433c.45-1.191 1.288-3.41 1.464-4.029.092-.428.973-2.024 1.507-2.93l.03-.058c.229-.55 1.368-3.34 1.205-4.307-.122-.518.171-1.276.295-1.524l.039-.08.34-3.57.048-2.02c.006-.118.142-2.928-.211-4.136m2.994 14.338c.068-.218.077-.244.236-.084l.653.626c.259.262.4.387.436.437l-.006.019c-.061.03-.204.045-.603.087l-.913.129c-.181.021-.183-.019-.102-.272zm-.635.966c-.079.253-.087.28-.295.314l-1.033.14c-.322.028-.353-.012-.276-.347l.043-.205c-.022-.067-.143-.096-.2-.034-.094.321-.206.725-.33 1.113-.15.472-.262.805-.393 1.172.012.071.125.108.194.05l.063-.13c.206-.442.267-.474.776-.541l3.18-.426c.343-.05.69-.07 1.034-.12.045-.025.078-.064.102-.137.006-.017-.17-.403-.117-.734-.12-.009-.253-.14-.427-.325l-1.957-1.988c-.297-.304-.528-.537-.666-.7-.174-.205-.202-.323-.145-.594l.053-.283c-.04-.083-.141-.105-.194-.051-.088.32-.17.603-.265.902-.124.37-.22.669-.324.955.003.08.119.127.185.078l.117-.253c.14-.324.17-.353.502-.05l.676.624c.152.14.155.13.08.365zm3.079-4.915c.725.115.732.202.704.65l-.013.21c.037.072.162.083.201.012a39 39 0 0 1 .401-2.516c-.016-.079-.138-.108-.195-.05l-.054.203c-.112.435-.146.516-.871.402l-2.545-.403c-.726-.115-.733-.202-.704-.65l.013-.209c-.038-.074-.162-.084-.201-.014a39 39 0 0 1-.401 2.516c.016.08.137.11.195.05l.053-.202c.113-.435.146-.516.871-.402zm-.407-4.385c.549-.017 1.152-.036 1.37.09.113.063.146.223.173.403l.042.218c.05.074.167.052.2-.026a23 23 0 0 1-.052-.995c-.011-.37-.015-.721-.013-1.092-.024-.096-.156-.102-.202-.014l-.013.219c-.022.238-.058.391-.159.48-.203.178-.84.207-1.361.223l-1.352.042c-.112.004-.147.005-.169-.023.039-.096.747-1.003 1.053-1.412l.72-.972c.254-.34 1.096-1.404 1.389-1.574a11 11 0 0 1-.042-.654c-.007-.237-.03-.76-.014-1.122-.023-.094-.163-.1-.202-.031l-.017.142c-.016.134-.063.402-.122.508-.192.33-.303.323-.844.34l-1.644.052c-.548.016-1.151.036-1.37-.081-.114-.064-.146-.234-.173-.413l-.042-.208c-.05-.075-.168-.052-.2.025a27 27 0 0 1 .065 2.071c.024.094.156.099.202.012l.014-.21c.02-.237.057-.4.158-.49.203-.167.842-.197 1.362-.212l1.352-.043c.368-.012.444-.014.445.014-.1.166-.353.478-.84 1.11l-1.783 2.28c-.548.702-.775.985-.916 1.142-.003.113.029.246.107.32.159-.034 1.012-.06 1.22-.067zm-.064-11.729c.312-.062.335-.056.432.428.162.81-.213 1.379-.75 1.485-.647.128-1.058-.226-1.24-1.14-.09-.446-.076-.45.142-.492zm-3.143-.5c-.722.142-.759.063-.887-.367l-.062-.201c-.064-.074-.181-.022-.194.058a40 40 0 0 1 .5 2.497c.042.069.166.053.2-.02l-.02-.21c-.047-.446-.043-.534.679-.677l.87-.172c.144-.029.152-.02.208.258.063.308.055.415-.115.624-.221.276-.544.61-.78.92-.518.693-.688 1.23-.509 2.124.066.327.122.5.165.607.039.021.114.007.132-.045a1.5 1.5 0 0 1 .083-.685c.178-.49.662-1.071 1.433-1.998.033-.046.084-.075.115-.023.228.43.673 1.03 1.3.905.489-.098.74-.505.83-1.017.08-.442.022-1.09-.124-1.816a34 34 0 0 0-.489-2.13c-.049-.068-.158-.047-.192.028l.028.247c.054.444-.026.47-.68.6zm1.176-6.531c.55 1.404-.347 2.445-1.323 2.825-1.298.506-2.165-.093-2.558-1.1-.59-1.51.421-2.504 1.312-2.852 1.376-.535 2.225.243 2.569 1.127m.303.014c-.725-1.855-2.21-2.783-3.528-2.269-1.15.448-1.728 1.996-.948 3.993.696 1.785 2.163 2.74 3.436 2.244 1.176-.458 1.838-1.927 1.04-3.968m-3.996-7.193c-.231-.348-.46-.709-.632-.993-.065-.048-.175.013-.178.095l.056.11c.205.399.235.482-.377.886l-2.151 1.419c-.613.404-.678.345-.958-.005l-.133-.162c-.077-.03-.176.048-.156.126q.378.534.723 1.058c.23.347.46.708.783 1.222.065.049.175-.013.179-.095l-.192-.351c-.223-.388-.252-.47.361-.874l.81-.534c.144-.096.16-.095.281.087l.309.466c.454.69.527.824.331 1.055l-.183.212c-.01.074.09.225.163.234.174-.127.371-.28.585-.42.214-.142.44-.267.594-.359.02-.07-.079-.22-.15-.24l-.24.066c-.29.09-.385-.03-.84-.72l-.309-.466c-.12-.182-.114-.198.03-.293l1.036-.683c.323-.214.335-.222.555.111l.267.404c.167.254.292.456.393.696.141.339.056.576-.226.876.017.103.123.237.19.238.261-.194.695-.48.823-.564-.122-.16-.42-.599-.756-1.106zm-3.597-2.949c.565-.467.636-.414.951-.097l.149.149c.08.02.17-.067.143-.143a40 40 0 0 1-1.62-1.963c-.069-.04-.17.033-.165.115l.117.173c.251.372.29.45-.276.917l-1.984 1.64c-.566.467-.636.413-.952.096l-.149-.148c-.08-.02-.169.067-.143.143a39 39 0 0 1 1.62 1.96c.07.042.171-.03.166-.111l-.117-.175c-.252-.37-.29-.45.276-.916zm-4.828-4.63c.486-.535.563-.492.926-.227l.172.12c.08.026.166-.083.122-.161a43 43 0 0 1-1.92-1.758c-.082-.034-.176.07-.15.14l.177.199c.297.337.346.41-.14.943l-1.736 1.907c-.487.533-.564.491-.921.22l-.234-.165c-.086-.032-.158.089-.121.161.304.259.659.573 1.016.9l.73.666a85 85 0 0 1 1.667 1.552c.21-.061.719-.31.971-.474.003-.074-.095-.19-.188-.23-.804.234-.94.157-1.717-.554-.561-.511-.635-.655-.655-.804-.025-.183.129-.38.363-.637zm-8.035-3.266c-.198-.11-.223-.125-.035-.25l.744-.514c.308-.201.459-.317.515-.34l.017.009c.019.065.004.208-.033.608l-.056.92c-.015.183-.055.176-.287.047zm.822.813c.231.129.257.143.249.353l-.069 1.04c-.036.32-.08.343-.393.2l-.194-.082c-.07.009-.122.122-.072.19.294.154.665.346 1.023.544.432.24.736.417 1.07.618.075.002.133-.1.09-.18l-.115-.087c-.393-.29-.411-.356-.376-.867l.216-3.204c.018-.345.07-.69.088-1.037a.22.22 0 0 0-.115-.127c-.016-.008-.429.087-.743-.032-.033.117-.188.22-.404.355l-2.339 1.524c-.355.23-.63.41-.818.513-.235.13-.358.133-.612.024l-.266-.108c-.089.022-.13.118-.09.18.299.15.56.287.833.439.338.195.612.348.87.508.08.012.15-.092.116-.167l-.225-.164c-.29-.202-.314-.238.052-.503l.745-.537c.166-.123.157-.127.373-.007zm-2.997-4.9c-.076-.041-.136-.07-.236-.128a10 10 0 0 0-1.495-.703c-.902-.327-1.873-.463-2.667-.337-.794.132-1.475.557-1.75 1.32-.31.853.021 1.643.62 2.25.531.54 1.244.945 2.13 1.265a7.6 7.6 0 0 0 1.45.347c.105.017.221.03.334.055.17-.08.566-.422.787-.836-.023-.075-.157-.152-.259-.123-.403.333-1.093.703-2.219.296-1.153-.417-2.096-1.525-1.593-2.912.484-1.337 1.84-1.51 2.976-1.1 1.179.427 1.386 1.113 1.388 1.578.047.069.209.12.291.091.085-.515.206-.906.243-1.062M50.297 7.32c-.418.004-.845 0-1.178-.01-.076.028-.084.153-.017.2l.124.014c.447.044.533.065.54.8l.023 2.58c.008.736-.078.757-.524.802l-.21.023c-.065.05-.054.173.022.2q.655-.026 1.282-.03c.418-.004.845 0 1.453.008.077-.028.084-.153.017-.2l-.399-.032c-.447-.024-.532-.044-.538-.78l-.01-.971c-.002-.173.008-.188.226-.19l.56-.003c.827-.008.98.004 1.067.295l.078.27c.058.048.239.047.286-.009-.012-.216-.032-.465-.035-.721-.003-.257.013-.514.021-.694-.048-.055-.228-.054-.284-.005l-.074.237c-.083.292-.234.307-1.061.314l-.561.005c-.218 0-.228-.013-.23-.186l-.01-1.242c-.005-.387-.005-.402.394-.405l.485-.004a4 4 0 0 1 .798.049c.362.066.516.265.615.668.094.04.265.025.304-.03-.023-.327-.028-.847-.03-1-.2.016-.73.027-1.339.033zm-6.46.586c1.5-.184 2.29.94 2.418 1.98.172 1.383-.624 2.074-1.698 2.206-1.612.2-2.328-1.026-2.446-1.976-.18-1.465.784-2.093 1.726-2.21m.09-.29c-1.98.244-3.247 1.454-3.073 2.858.152 1.224 1.512 2.168 3.643 1.905 1.904-.234 3.193-1.42 3.025-2.775-.155-1.252-1.418-2.256-3.596-1.988m42.64 60.626c.473-.189.661-.71.473-1.182-.19-.425-.71-.614-1.136-.425a.85.85 0 0 0-.473 1.134.85.85 0 0 0 1.135.473m-71.95.236c.426-.236.567-.756.379-1.182-.237-.424-.805-.614-1.23-.378a.86.86 0 0 0-.331 1.182c.19.426.756.614 1.182.378m23.037-56.282c.473-.236.662-.755.473-1.181-.19-.473-.71-.662-1.182-.473-.426.236-.663.756-.426 1.182a.85.85 0 0 0 1.135.472m19.679-1.181c.425-.19.615-.71.425-1.182-.19-.425-.71-.614-1.182-.425-.426.189-.615.71-.426 1.134.19.473.71.662 1.183.473M47.01 88.594c.02-.277.049-.289.522-.256.588.039 1.187.322 1.146.93-.042.621-.467.85-1.358.79-.379-.026-.407-.035-.394-.215zm-.127 1.878c.01-.138.03-.178.447-.15 1.053.071 1.688.538 1.64 1.249-.042.615-.642.887-1.296.843-.825-.056-.902-.319-.859-.948zm-1.177 1.065c-.05.732-.136.748-.585.759l-.21.006c-.07.044-.069.17.006.202.417.014.864.038 1.28.066.361.024.757.072 1.174.1 1.08.074 1.714-.001 2.177-.24.454-.227.62-.562.642-.88.052-.78-.73-1.174-1.445-1.306-.056-.018-.074-.032-.074-.046.001-.014.022-.033.061-.038.674-.114 1.103-.398 1.13-.805.03-.435-.179-.726-.602-.942-.415-.21-1.046-.308-1.842-.362a33 33 0 0 0-2.165-.084c-.078.03-.085.14-.023.194l.246.037c.443.064.447.148.402.811zm37.142-17.23c-.131.185-.148.208-.251.007l-.434-.791c-.169-.326-.266-.487-.284-.547l.012-.016c.066-.01.207.019.599.098l.91.152c.18.034.17.073.016.29zm.894-.73c.154-.216.17-.239.378-.21l1.027.177c.314.072.331.119.157.414l-.102.182c0 .07.108.134.18.092.186-.276.415-.625.65-.959.284-.403.491-.686.727-.995.01-.073-.086-.142-.17-.108l-.098.105c-.33.36-.397.371-.902.282l-3.16-.552c-.344-.054-.681-.141-1.023-.196a.22.22 0 0 0-.138.1c-.012.016.04.434-.111.733.113.045.199.21.31.439l1.268 2.478c.192.378.343.67.424.866.105.247.096.369-.04.61l-.135.252c.012.09.103.142.17.107.179-.28.343-.523.523-.78.23-.313.41-.569.597-.809.02-.078-.076-.157-.154-.13l-.187.204c-.23.268-.269.287-.495-.103l-.455-.796c-.104-.178-.11-.17.033-.371zm-7.15 4.539c-.225-.225-.233-.246.116-.595.583-.584 1.264-.59 1.65-.204.467.463.4 1-.257 1.658-.323.321-.333.313-.489.156zm1.329 2.878c.519.517.473.593.188.937l-.133.162c-.027.094.082.162.155.128a41 41 0 0 1 1.799-1.799c.034-.073-.047-.168-.128-.155l-.164.133c-.344.286-.419.332-.938-.185l-.629-.626c-.101-.102-.1-.113.101-.315.222-.22.315-.275.583-.25.353.03.81.11 1.197.134.865.045 1.405-.114 2.05-.759.235-.234.348-.377.414-.472-.004-.045-.059-.098-.112-.085-.085.077-.31.242-.615.312-.506.126-1.259.046-2.457-.075-.057-.003-.11-.029-.083-.083.23-.427.48-1.128.03-1.577-.353-.352-.83-.333-1.306-.123-.413.178-.918.586-1.442 1.11-.55.55-1.106 1.136-1.5 1.588-.029.078.05.156.13.143l.19-.16c.34-.29.406-.24.876.23zM72.69 83.89c-.187.131-.21.148-.24-.077l-.14-.89c-.047-.366-.085-.551-.081-.613l.014-.01c.067.012.189.087.532.294l.805.45c.157.092.134.126-.084.279zm1.087-.385c.217-.152.24-.168.425-.07l.906.514c.273.172.274.222.01.441l-.158.138c-.023.066.057.162.139.147.268-.197.6-.448.934-.683.404-.283.695-.48 1.02-.693.035-.066-.032-.162-.122-.158l-.128.065c-.432.227-.499.215-.945-.038l-2.787-1.586c-.302-.167-.59-.363-.894-.53a.23.23 0 0 0-.164.047c-.015.01-.108.423-.351.655.09.079.116.263.142.516l.356 2.763c.053.42.095.745.106.958.014.268-.034.38-.244.56l-.213.193c-.017.089.05.168.124.158.263-.202.5-.377.756-.557.323-.218.579-.398.835-.562.046-.067-.018-.173-.1-.175l-.245.13c-.307.174-.35.179-.43-.265l-.16-.902c-.038-.202-.046-.197.156-.339zm-7.34 1.702c-.107-.256-.085-.28.352-.463.542-.228 1.206-.241 1.44.321.24.575-.037.97-.86 1.315-.35.146-.38.15-.449-.016zm.727 1.739c-.054-.128-.052-.174.333-.335.972-.406 1.747-.273 2.022.386.238.569-.176 1.08-.78 1.333-.76.32-.948.119-1.19-.463zm-.575 1.48c.283.678.212.73-.184.94l-.184.1c-.042.07.014.183.094.18.38-.176.79-.353 1.174-.515.333-.14.71-.274 1.094-.435.998-.417 1.531-.769 1.838-1.19.304-.405.302-.78.179-1.074-.302-.722-1.177-.724-1.874-.523-.058.009-.081.004-.086-.009-.006-.013.004-.039.036-.06.552-.404.809-.85.65-1.226-.168-.403-.485-.571-.96-.575-.463-.002-1.071.192-1.806.5-.963.403-1.589.703-1.972.892-.058.062-.015.164.066.184l.235-.076c.424-.14.465-.068.723.546zm-6.72-.89c-.089-.307-.085-.33.39-.466.793-.229 1.39.097 1.542.623.18.633-.137 1.071-1.031 1.33-.438.125-.442.112-.504-.101zm-.236 3.17c.202.707.126.75-.29.914l-.196.078c-.068.07-.007.182.073.188a39 39 0 0 1 2.446-.706c.066-.048.04-.17-.037-.198l-.206.038c-.441.083-.53.087-.732-.619l-.245-.853c-.04-.14-.033-.149.24-.228.302-.087.41-.09.632.063.293.197.654.49.98.699.735.459 1.284.582 2.16.329.319-.092.487-.162.59-.214.019-.041-.002-.114-.056-.127a1.5 1.5 0 0 1-.688-.025c-.504-.137-1.123-.572-2.111-1.26-.048-.03-.081-.077-.032-.113.408-.263.969-.756.793-1.37-.138-.48-.566-.695-1.083-.74-.447-.045-1.088.068-1.798.273-.748.216-1.518.46-2.082.666-.063.053-.033.16.044.19l.244-.05c.438-.09.47-.012.654.627zm-6.338-.12c-.226.024-.255.027-.172-.184l.311-.85c.135-.34.193-.521.225-.574l.02-.002c.051.043.122.168.321.517l.486.784c.093.157.057.176-.208.204zm1.14.191c.263-.027.291-.03.406.146l.544.89c.155.283.131.327-.206.392l-.206.042c-.052.048-.03.17.05.197.33-.043.744-.1 1.15-.144a32 32 0 0 1 1.231-.11c.063-.042.05-.16-.03-.2l-.145-.005c-.488-.01-.54-.054-.807-.492l-1.67-2.743c-.184-.294-.341-.605-.526-.899a.2.2 0 0 0-.166-.038c-.019.002-.3.317-.626.401.041.115-.026.289-.126.523l-1.032 2.593c-.159.392-.279.698-.373.89-.117.243-.215.315-.487.372l-.278.065c-.06.07-.04.172.03.2.33-.05.622-.089.933-.122.389-.034.7-.067 1.004-.086.072-.036.07-.161-.002-.202l-.279-.005c-.353.003-.393-.015-.247-.44l.299-.87c.065-.195.056-.194.301-.22zM26.711 18.54c.425.599.367.665.02.946l-.305.258c-.034.068.054.175.132.154.487-.363.847-.626 1.187-.868.34-.24.693-.483 1.15-.79.046-.066-.019-.173-.101-.174l-.295.174c-.384.23-.466.263-.89-.337l-1.734-2.442c-.17-.237-.17-.254.032-.396l.441-.314c.828-.587 1.05-.584 1.464-.214.098-.01.222-.114.228-.187-.151-.164-.435-.695-.522-.98-.027-.008-.074.009-.12.042a.4.4 0 0 0-.077.088c0 .196-.105.295-.483.565l-3.158 2.239c-.526.373-.638.443-.777.33-.028-.006-.062.01-.094.032-.038.027-.065.055-.07.083.088.236.22.67.306 1.068.07.035.245-.064.276-.136-.04-.661.125-.871.837-1.376l.433-.308c.202-.142.217-.137.386.1zm-5.054.888c-.508-.53-.46-.605-.166-.943l.136-.16c.014-.08-.079-.165-.152-.132a39 39 0 0 1-1.84 1.757c-.036.075.043.171.125.16l.165-.13c.351-.278.428-.322.935.21l1.78 1.864c.508.531.46.605.166.943l-.137.16c-.014.08.079.164.153.132a40 40 0 0 1 1.84-1.759c.036-.072-.044-.169-.125-.158l-.166.13c-.352.277-.427.322-.934-.21zm-1.403 6.802c.888-1.054.99-2.05.385-2.559-.536-.451-1.305-.205-1.884.115l-.554.304c-.59.323-1.006.333-1.229.145-.28-.237-.355-.71.135-1.291.52-.618 1.09-.573 1.458-.45.092-.034.197-.169.18-.245-.25-.21-.661-.432-.845-.451-.335.3-.632.523-.95.901-.894 1.062-.901 1.975-.376 2.417.477.404 1.205.197 1.887-.16l.39-.206c.682-.357 1.092-.348 1.394-.094.324.273.305.791-.16 1.344-.6.712-1.499.626-1.879.53-.086.026-.185.154-.17.243.324.284.77.498.991.46.186-.091.664-.334 1.227-1.003m-7.505 3.95c-.277-.157-.291-.176-.047-.606.408-.718 1.063-.904 1.539-.634.574.325.653.861.194 1.67-.225.397-.238.39-.43.28zm2.051 2.428c.64.362.616.447.432.856l-.085.192c0 .098.123.135.185.083a40 40 0 0 1 1.255-2.215c.014-.08-.09-.15-.165-.116l-.121.171c-.257.368-.317.433-.957.07l-.773-.437c-.127-.072-.128-.083.013-.33.155-.274.23-.352.496-.397.348-.066.81-.109 1.19-.189.847-.185 1.326-.482 1.776-1.275a3.5 3.5 0 0 0 .273-.567c-.016-.04-.083-.079-.13-.051a1.5 1.5 0 0 1-.51.464c-.455.255-1.203.378-2.393.578-.055.012-.112.002-.102-.059.109-.473.164-1.217-.392-1.531-.434-.246-.89-.1-1.293.228-.35.281-.73.809-1.095 1.453a34 34 0 0 0-1.023 1.932c-.007.083.09.138.164.104l.14-.205c.25-.37.328-.338.907-.01zm-2.297 5.956c.697.23.69.317.583.75l-.085.343c.026.078.147.108.198.044.121-.409.296-.96.428-1.356l.34-1.025c.35-1.054.613-1.826.759-2.217-.137-.185-.571-.548-.83-.693-.083.033-.155.18-.135.276.43.49.554.75.161 1.89-.25.755-.355.891-.483.968-.156.099-.398.038-.735-.072l-.836-.275c-.164-.055-.175-.069-.105-.275l.143-.432c.26-.783.324-.932.621-.904l.285.025c.062-.06.12-.23.089-.291-.214-.063-.45-.12-.701-.203-.244-.08-.474-.176-.65-.244-.067.03-.123.2-.1.287l.201.138c.262.156.218.312-.042 1.094l-.143.432c-.069.208-.078.213-.25.158l-1.112-.367c-.375-.125-.388-.128-.26-.515l.2-.604a4 4 0 0 1 .299-.7c.148-.27.357-.351.787-.369.064-.06.11-.243.069-.297-.3-.039-.839-.157-.962-.157-.026.121-.193.645-.384 1.22l-.571 1.72c-.131.396-.279.817-.405 1.154.002.08.117.129.185.08l.06-.139c.187-.407.234-.482.932-.252zm-2.205 3.294c-.637-.52-1.06-.857-1.353-1.166-.177-.188-.197-.402-.202-.622v-.24c-.05-.055-.158-.08-.203-.01a18 18 0 0 1-.107.916c-.04.301-.093.62-.16 1.005.024.08.133.104.197.045l.087-.265c.087-.276.145-.297.4-.108.866.628 1.736 1.325 2.533 1.953-.17.072-.613.27-.945.396l-1.319.508c-.756.289-.917.343-.978.335-.056-.008-.08-.088-.085-.3l-.01-.241c-.035-.091-.147-.097-.2-.018-.055.5-.093.822-.152 1.244-.051.368-.114.772-.178 1.137.008.097.13.113.189.055l.065-.222c.108-.368.215-.44.713-.64l3.124-1.246a7 7 0 0 1 .962-.307.5.5 0 0 0 .059-.174c.01-.067.005-.144-.012-.165-.329-.21-1.073-.763-1.646-1.226zm-.944 10.677c-.544.065-1.145.138-1.374.032-.119-.052-.165-.21-.207-.386l-.062-.213c-.057-.07-.172-.037-.198.043.055.337.092.581.142.986.044.369.08.718.11 1.087.033.094.165.087.203-.004l-.006-.218c0-.24.023-.396.116-.493.185-.195.819-.282 1.336-.344l1.344-.163c.11-.014.145-.018.168.008-.03.1-.653 1.065-.922 1.5l-.63 1.034c-.221.361-.965 1.495-1.242 1.691.041.224.076.45.1.648.028.236.099.754.115 1.116.032.092.171.084.205.013l.003-.144c.004-.135.027-.405.077-.517.161-.344.273-.348.81-.414l1.634-.198c.544-.066 1.143-.139 1.372-.042.118.053.166.219.21.396l.059.203c.058.07.172.037.197-.043a21 21 0 0 1-.14-.979 28 28 0 0 1-.11-1.078c-.032-.09-.164-.085-.201.006l.004.21c0 .24-.02.404-.114.503-.187.184-.82.271-1.337.334l-1.344.163c-.366.044-.442.054-.445.024.084-.172.309-.506.738-1.18l1.571-2.43c.483-.747.684-1.049.81-1.218-.006-.114-.05-.243-.134-.31-.156.048-1.003.151-1.21.176zm3.732 12.551c.673-.197 1.085-.525 1.25-1.02.172-.504.13-1.145-.12-2.002-.184-.629-.51-1.275-1.023-1.64-.512-.364-1.11-.328-1.717-.15l-.793.233c-.526.155-1.114.326-1.351.257-.125-.032-.2-.19-.277-.354l-.092-.19c-.068-.06-.17-.01-.182.072.113.332.191.577.302.96.105.355.199.704.276 1.017.047.087.17.06.193-.035l-.034-.189c-.04-.235-.036-.394.04-.506.146-.221.763-.412 1.264-.558l.833-.244c1.014-.297 1.818 0 2.167 1.195.37 1.267-.292 1.876-1.212 2.147l-1.527.447c-.707.207-.751.13-.923-.284l-.078-.195c-.066-.05-.176-.007-.182.074a38 38 0 0 1 .7 2.396c.048.066.165.041.192-.036l-.025-.161c-.078-.442-.082-.53.624-.737zM31.859 15.36c.342.65.275.708-.104.945l-.256.166c-.037.073.03.18.11.169a48 48 0 0 1 2.491-1.302c.055-.06.005-.175-.077-.187l-.333.143c-.428.185-.513.206-.855-.444l-.194-.367c-.22-.417-.228-.577-.143-1.028.08-.48.154-.948.257-1.447.153-.769.194-.938.546-1.185l.225-.164c.033-.08-.018-.177-.11-.169-.263.154-.53.301-.79.437-.253.132-.517.263-.894.443-.068.074-.012.179.069.19l.275-.088c.124-.05.21-.07.242-.009.035.067.022.246-.012.53-.086.63-.17 1.222-.27 1.868-.573-.271-1.137-.609-1.751-.96-.225-.141-.294-.19-.32-.24-.025-.05.007-.09.135-.173l.236-.162c.045-.078-.03-.18-.11-.169a26 26 0 0 1-1.067.582q-.518.272-1.07.536c-.059.053-.014.178.059.195l.238-.077c.408-.144.514-.105.838.061l1.774.926c.407.201.49.275.67.618zM8.325 48.253c-.735 0-.756-.086-.797-.533l-.02-.209c-.048-.066-.173-.057-.2.019a39 39 0 0 1-.007 2.548c.028.075.153.084.202.019l.02-.21c.043-.446.064-.532.8-.531l2.58.003c.735 0 .756.086.796.533l.02.209c.049.066.174.057.202-.02a37 37 0 0 1 .006-2.546c-.028-.076-.152-.085-.201-.019l-.022.209c-.043.446-.063.532-.798.531zm5.652 25.195c.756 1.15 1.679 1.532 2.34 1.1.584-.385.568-1.192.427-1.837l-.132-.617c-.141-.656-.032-1.057.212-1.217.307-.202.78-.136 1.197.498.443.673.238 1.207.014 1.523.007.098.106.237.185.242.271-.179.602-.509.672-.68-.192-.407-.32-.753-.592-1.166-.76-1.158-1.633-1.425-2.207-1.05-.522.342-.531 1.097-.384 1.852l.085.433c.148.754.022 1.143-.309 1.36-.353.232-.844.065-1.24-.538-.51-.777-.172-1.612.03-1.948-.002-.091-.096-.222-.185-.232-.364.229-.697.594-.725.816.035.205.132.73.612 1.46m5.162 3.021c-.152-.17-.17-.191.05-.247l.87-.238c.357-.089.537-.147.599-.15l.012.014c-.004.068-.065.197-.232.56l-.358.85c-.074.167-.11.148-.285-.05zm.504 1.037c.176.199.196.221.118.415l-.408.958c-.141.29-.191.296-.44.06l-.154-.144c-.068-.014-.155.076-.13.156.225.243.513.547.783.851.329.37.557.636.804.937.07.026.158-.052.145-.14l-.08-.12c-.274-.404-.27-.472-.067-.943l1.264-2.946c.132-.32.294-.629.426-.948a.22.22 0 0 0-.065-.158c-.013-.014-.433-.06-.69-.275-.069.098-.25.145-.498.2l-2.708.663c-.413.1-.731.178-.941.212-.266.046-.382.009-.586-.179l-.215-.19c-.09-.008-.161.068-.144.141.232.24.432.454.64.688.253.296.461.53.653.766.07.04.17-.037.162-.119l-.156-.228c-.208-.286-.218-.328.215-.457l.88-.26c.196-.06.19-.068.354.117zm8.4 6.064c.322-.443.676-.93.91-1.025.119-.051.265.021.424.11l.196.1c.09.006.144-.1.103-.172a22 22 0 0 1-.819-.57 28 28 0 0 1-.87-.659c-.09-.04-.175.06-.134.15l.165.146c.175.162.273.285.281.419.017.268-.35.79-.656 1.21l-.793 1.093c-.065.09-.086.117-.12.117-.053-.089-.336-1.203-.47-1.695l-.33-1.165c-.114-.408-.438-1.723-.393-2.06a10 10 0 0 1-.543-.366c-.191-.14-.618-.442-.893-.677-.09-.04-.178.067-.149.14l.103.1c.095.095.277.296.325.408.143.353.07.437-.247.874l-.965 1.329c-.322.441-.675.928-.902 1.03-.119.05-.273-.028-.431-.117l-.19-.095c-.09-.006-.144.1-.103.174.278.184.49.329.812.563.291.213.587.437.863.655.089.039.174-.062.134-.152l-.158-.14c-.175-.162-.281-.29-.289-.424-.009-.263.358-.784.664-1.204l.794-1.093c.215-.297.26-.359.283-.342.07.179.16.571.363 1.343l.71 2.804c.218.86.303 1.213.34 1.42.089.074.213.13.318.113.07-.146.572-.835.694-1.003zm3.295 3.857c-.33.657-.416.637-.828.461l-.371-.148c-.075 0-.129.129-.073.187.55.262.95.456 1.323.644.374.187.752.387 1.238.646.08.01.145-.097.107-.17l-.293-.18c-.383-.23-.45-.287-.12-.945l1.348-2.675c.131-.261.146-.269.367-.158l.482.244c.909.457 1.01.656.877 1.194.054.082.205.142.272.113.074-.21.41-.709.624-.92-.008-.027-.044-.061-.095-.087-.034-.017-.074-.021-.114-.026-.173.092-.31.046-.726-.163l-3.46-1.742c-.577-.29-.692-.357-.657-.532-.008-.028-.038-.051-.073-.068-.042-.021-.079-.032-.105-.022a9 9 0 0 1-.802.768c.003.08.171.188.25.18.566-.343.83-.296 1.61.097l.475.239c.22.11.223.127.092.388zm5.942 1.448c-.219-.065-.246-.072-.09-.236l.611-.666c.255-.265.376-.41.426-.446l.019.005c.032.06.05.203.103.6l.15.91c.025.18-.015.183-.27.109zm.98.609c.256.074.283.082.321.29l.165 1.027c.036.32-.004.353-.34.284l-.206-.038c-.067.024-.093.146-.03.2.322.086.727.19 1.12.303.474.14.81.244 1.18.366.073-.015.106-.128.047-.196l-.131-.06c-.448-.195-.48-.254-.56-.76l-.5-3.169c-.059-.342-.086-.687-.145-1.03a.22.22 0 0 0-.138-.098c-.019-.006-.4.18-.733.133-.005.121-.134.257-.314.436l-1.942 2.002c-.297.303-.524.54-.684.681-.2.18-.319.211-.59.16l-.284-.046c-.082.041-.102.144-.048.196.324.079.608.155.91.242.372.116.673.203.961.302.08-.006.124-.123.074-.188l-.255-.11c-.327-.132-.358-.162-.061-.501l.607-.69c.135-.155.125-.158.362-.089zM73 67.884c-.015.491-.05.505-.24.524l-.17.022c-.029.024-.027.116.004.135.257-.009.446-.014.622-.014.177 0 .358.005.59.014.033-.019.04-.103.012-.135l-.144-.018c-.187-.023-.223-.037-.208-.529l.063-2.003c.006-.194.01-.204.114-.204h.229c.43 0 .502.088.543.45.036.033.105.023.126-.014a4 4 0 0 1 .083-.737q-.014-.022-.052-.023a.1.1 0 0 0-.049.019c-.05.106-.111.12-.308.12h-1.638c-.272 0-.329-.005-.345-.12q-.014-.02-.04-.019-.03-.001-.045.019c-.033.162-.101.45-.177.7.014.046.097.06.127.032.16-.375.27-.427.639-.427h.225c.104 0 .108.01.101.204zm-2.946-.974c.199.01.21.02.206.144l-.024.683c-.016.492-.051.505-.236.523l-.087.011c-.029.031-.027.114.003.135a10 10 0 0 1 1.047.048c.032-.017.039-.1.012-.134l-.085-.018c-.182-.036-.217-.052-.2-.545l.059-1.726c.017-.492.052-.505.236-.525l.072-.01c.028-.022.027-.115-.004-.135a10 10 0 0 1-1.03-.048c-.032.018-.04.11-.013.135l.086.017c.182.036.217.052.199.544l-.019.563c-.004.13-.016.138-.216.129l-.913-.042c-.199-.01-.21-.02-.206-.149l.02-.562c.016-.492.051-.505.236-.524l.067-.011c.028-.022.027-.115-.003-.135a8 8 0 0 1-.5-.009 11 11 0 0 1-.528-.038c-.03.017-.039.11-.011.134l.085.018c.182.035.218.051.2.544l-.059 1.728c-.017.492-.052.504-.237.528l-.055.007c-.028.031-.027.115.003.135.149-.002.325 0 .497.008.172.01.348.021.55.04.031-.017.038-.1.012-.134l-.117-.025c-.182-.03-.217-.047-.2-.539l.023-.682c.004-.125.016-.134.216-.125zm-3.034.277c.036-.28.064-.315.2-.31h.067c.037-.026.044-.105.01-.135a9 9 0 0 1-1.006-.214c-.03.018-.041.096-.02.134l.127.054c.235.103.236.131.193.456l-.021.165c-.022.165-.044.246-.07.283q-.078.091-.337.037a.95.95 0 0 1-.646-.537c-.158-.335-.171-.744-.122-1.11.101-.78.484-1.298 1.12-1.163.359.075.586.35.608.812.013.045.093.057.117.015.029-.361.033-.6.048-.739a1.3 1.3 0 0 1-.226-.09 2.3 2.3 0 0 0-.472-.17c-.502-.107-.923.007-1.224.296-.267.251-.423.623-.474 1.008-.05.386.005.792.182 1.117.224.415.614.649 1.048.74.205.044.485.041.717.025a.6.6 0 0 1 .178 0c.017-.01.022-.047.013-.068-.064-.055-.066-.18-.045-.34zm-2.84-2.514c.097-.482.141-.487.36-.471l.104.006c.038-.025.05-.107.017-.133a14 14 0 0 1-1.22-.247c-.04.01-.062.091-.036.13l.098.034c.208.07.246.092.148.575l-.344 1.692c-.098.483-.141.488-.361.471l-.103-.006c-.038.025-.05.109-.017.134a15 15 0 0 1 1.221.247c.039-.01.06-.092.035-.13l-.098-.034c-.208-.07-.246-.093-.149-.574zm-2.94-.575c.071-.477.115-.485.336-.485l.104-.003c.04-.017.05-.11.012-.135q-.31-.035-.614-.08a16 16 0 0 1-.647-.111c-.043.014-.058.106-.029.133l.126.039c.211.064.25.084.178.562l-.258 1.708c-.071.478-.115.485-.335.481l-.142.001c-.045.017-.045.112-.01.135.194.02.425.05.66.085l.477.073c.515.077.91.142 1.102.18a4.4 4.4 0 0 0 .293-.638c-.017-.04-.089-.064-.139-.048-.282.441-.36.453-.87.376-.367-.055-.436-.103-.48-.176-.058-.088-.043-.255-.007-.485zm-4.193 14.126c.266.415.238.45.068.586l-.135.109c-.011.044.039.113.08.108.171-.12.408-.276.579-.387l.445-.285c.459-.293.798-.504.975-.606a3 3 0 0 0-.198-.672c-.05-.024-.124.007-.141.056.066.405.053.573-.45.883-.328.21-.414.22-.496.196-.102-.029-.2-.165-.328-.364l-.318-.496c-.062-.098-.064-.107.027-.165l.187-.12c.34-.218.412-.253.545-.106l.127.14c.047.002.121-.046.123-.085-.084-.123-.18-.255-.275-.404-.092-.145-.175-.29-.239-.398-.04-.018-.113.03-.127.077l.058.15c.08.186.016.232-.324.45l-.189.12c-.09.058-.095.056-.161-.046l-.422-.66c-.144-.222-.149-.23.02-.339l.261-.167c.106-.067.228-.134.336-.166.145-.048.266.012.475.2.046.002.119-.056.114-.097-.13-.152-.352-.446-.41-.503-.046.04-.27.19-.52.35l-.747.478c-.173.11-.36.223-.514.31-.02.037.02.109.066.119l.067-.032c.202-.09.245-.101.51.313zm-3.15-1.175c-.04-.18-.029-.193.199-.242.281-.061.61.033.698.433.089.408-.07.618-.497.71-.18.04-.196.039-.222-.08zm.27 1.235c-.021-.091-.017-.12.182-.163.504-.11.882.096.984.564.088.404-.145.668-.458.736-.395.086-.477-.072-.567-.484zm-.365.862c.105.482.067.504-.14.577l-.097.035c-.025.04-.003.12.037.13.198-.052.41-.103.61-.147.173-.037.367-.065.566-.109.518-.112.8-.254.976-.478a.76.76 0 0 0 .145-.663c-.112-.513-.546-.65-.903-.63-.029-.003-.04-.01-.042-.02s.004-.024.022-.033c.294-.174.446-.42.387-.687-.063-.286-.211-.444-.447-.52-.23-.074-.542-.045-.924.038-.498.109-.826.204-1.025.267-.031.03-.016.102.022.128l.122-.013c.218-.023.234.03.329.465zm-5.45-.137c-.043.49-.086.5-.306.504l-.172.003c-.035.03-.038.113-.003.136.21.009.492.03.695.048l.528.046c.54.049.938.088 1.14.116.077-.12.21-.462.255-.653-.024-.05-.1-.07-.146-.041-.194.36-.309.485-.895.423-.388-.034-.465-.079-.515-.148-.061-.084-.056-.252-.035-.487l.052-.587c.01-.116.016-.125.122-.116l.222.02c.403.036.481.052.496.249l.015.188c.036.03.124.039.15.008.008-.148.013-.31.028-.486.016-.17.04-.337.056-.46-.02-.04-.108-.048-.148-.019l-.046.155c-.05.195-.13.193-.532.157l-.222-.02c-.107-.01-.11-.014-.1-.134l.07-.78c.023-.265.024-.274.222-.256l.31.027c.125.012.263.033.367.075.145.05.204.171.254.446.034.032.128.03.15-.005-.01-.202-.005-.569-.017-.649-.06.004-.33-.016-.626-.042l-.883-.078c-.204-.019-.42-.042-.596-.067-.039.015-.05.098-.021.133l.073.016c.214.052.255.07.211.559zm-1.98-2.774c.068-.202.077-.214.306-.139.383.128.508.507.391.855-.139.419-.407.564-.84.42-.212-.07-.208-.078-.162-.22zm-1.141 1.726c-.156.465-.2.466-.416.423l-.1-.018c-.05.017-.064.101-.035.13a15 15 0 0 1 1.182.392c.041-.006.072-.084.052-.125l-.093-.045c-.198-.095-.234-.122-.078-.589l.187-.563c.03-.093.037-.096.169-.052.145.048.188.082.223.24.05.207.092.49.15.715.132.5.305.747.728.888.155.052.243.066.3.07.02-.017.037-.066.02-.09a.6.6 0 0 1-.258-.239c-.15-.24-.246-.688-.402-1.4-.009-.031-.006-.07.026-.074.245-.017.625-.116.76-.52a.73.73 0 0 0-.174-.773c-.16-.17-.445-.314-.788-.428-.362-.12-.74-.23-1.028-.297-.042.01-.066.081-.045.122l.11.05c.2.092.187.146.046.57zm-2.914-1.778c-.256.42-.299.41-.497.317l-.157-.075c-.044.011-.084.084-.061.12.183.101.427.245.601.35l.452.276c.463.283.802.495.971.608.122-.072.392-.32.517-.472 0-.055-.06-.107-.112-.101-.334.236-.492.297-.99-.017-.333-.203-.381-.275-.395-.36-.018-.104.061-.251.185-.453l.307-.502c.06-.1.069-.105.16-.05l.19.116c.345.21.407.259.334.442l-.07.176c.018.042.093.089.13.073.073-.13.15-.273.242-.423.089-.147.184-.285.253-.39 0-.042-.075-.088-.124-.08l-.11.118c-.132.153-.2.116-.546-.094l-.19-.116c-.092-.056-.093-.061-.03-.164l.409-.67c.138-.226.142-.233.312-.129l.266.161c.107.066.221.146.296.229.107.11.106.245.029.512.018.044.102.084.137.062.08-.185.247-.512.273-.589a8 8 0 0 1-.543-.314l-.757-.461a12 12 0 0 1-.504-.323c-.041-.004-.089.065-.078.109l.058.047c.17.141.199.175-.058.594zm-1.21-2.517c.149.183.15.2.053.279l-.529.431c-.382.311-.42.288-.579.136l-.075-.07c-.046-.005-.107.052-.099.093a13 13 0 0 1 .787.964c.038.016.106-.033.11-.079l-.053-.087c-.116-.187-.132-.229.25-.54l1.34-1.091c.382-.31.419-.287.578-.136l.064.057c.039.01.108-.053.099-.093a13 13 0 0 1-.776-.95c-.038-.017-.113.038-.11.078l.054.088c.116.186.132.227-.25.539l-.436.355c-.101.082-.117.076-.267-.106l-.687-.843c-.15-.183-.151-.2-.05-.281l.435-.356c.382-.311.419-.288.58-.137l.06.053c.038.011.107-.052.098-.092a15 15 0 0 1-.773-.946c-.037-.017-.112.037-.11.077l.054.09c.117.186.132.227-.25.537l-1.339 1.092c-.382.312-.42.288-.583.139l-.048-.044c-.045-.005-.108.052-.098.093.118.13.254.289.383.447s.258.323.404.516c.038.017.105-.032.11-.078l-.074-.119c-.12-.183-.135-.225.246-.536l.53-.432c.097-.079.113-.074.263.11zm-2.966-3.479c-.452.193-.482.161-.585-.032l-.098-.171c-.034-.02-.118.02-.12.062a19 19 0 0 1 .553 1.29c.032.026.11-.002.128-.045l-.049-.162c-.065-.21-.068-.253.384-.448l1.846-.79c.18-.077.19-.077.238.034l.104.243c.197.457.15.574-.16.772-.013.05.027.12.07.127.131-.072.513-.195.707-.228.01-.014.009-.039-.002-.065q-.013-.025-.04-.043c-.12-.009-.16-.067-.25-.277l-.748-1.742c-.124-.29-.146-.351-.048-.419q.011-.023-.001-.05-.014-.032-.038-.04a8 8 0 0 1-.717.111c-.035.035-.01.13.03.15.413.008.51.104.678.496l.103.24c.048.111.04.119-.138.195zm-2.39-4.096c-.398.292-.433.267-.578.1l-.134-.142c-.038-.012-.11.046-.103.087a19 19 0 0 1 .83 1.133c.038.016.108-.03.115-.075l-.084-.146c-.11-.19-.124-.231.273-.522l1.619-1.187c.156-.115.167-.117.238-.02l.158.214c.294.4.274.523.018.786-.002.054.053.111.096.107a3.3 3.3 0 0 1 .637-.38c.006-.015 0-.04-.016-.062a.2.2 0 0 0-.05-.034c-.117.018-.17-.03-.305-.213l-1.122-1.528c-.187-.253-.222-.308-.142-.396q.007-.024-.013-.049-.02-.029-.045-.03c-.15.07-.423.184-.672.27-.027.042.02.128.061.138.405-.084.521-.013.773.331l.155.21c.071.097.066.107-.091.222zm-2.502-2.646c-.342.356-.382.337-.556.203l-.136-.106c-.046 0-.101.065-.087.104.158.138.366.331.514.473l.383.366c.394.376.68.656.821.805.134-.046.454-.23.61-.353.01-.053-.037-.117-.09-.123-.378.16-.545.186-.967-.229-.282-.27-.313-.352-.309-.437.004-.106.114-.233.278-.404l.409-.427c.08-.084.09-.088.168-.014l.161.154c.292.28.343.342.232.506l-.106.157c.008.045.072.106.112.1.1-.111.205-.235.327-.363.12-.124.242-.238.332-.326.01-.044-.055-.105-.104-.107l-.133.092c-.162.122-.223.07-.515-.209l-.162-.155c-.077-.073-.077-.08.006-.167l.545-.569c.183-.191.19-.198.334-.06l.226.216c.09.087.185.19.24.288.082.129.051.262-.082.508.008.046.082.103.12.09.119-.165.353-.45.395-.52a9 9 0 0 1-.464-.423l-.642-.614a12 12 0 0 1-.424-.426c-.04-.012-.102.045-.101.092l.048.057c.135.175.156.214-.186.57zm-1.406-2.678c.225-.428.268-.42.477-.348l.099.032c.044-.004.083-.088.054-.124a13 13 0 0 1-.554-.274c-.189-.1-.371-.2-.573-.316-.046-.003-.089.079-.071.114l.106.077c.178.13.21.161-.015.589l-.803 1.528c-.225.43-.268.421-.474.345l-.135-.045c-.048.002-.078.09-.054.124.177.082.386.186.595.296l.428.225c.46.24.812.43.98.529.109-.085.363-.35.486-.506-.003-.043-.062-.09-.114-.09-.412.324-.488.309-.945.07-.329-.172-.378-.24-.396-.324-.026-.102.044-.254.151-.46zm38.446-11.548.088.04c.203.059.387-.022.538-.14l.054.97c-.671.056-.743.081-.963.182-.077.035-.175.08-.339.139a1.1 1.1 0 0 0-.44.223c-.108-.457-.24-1.107-.248-1.3.376-.496.852-.35 1.31-.114m-1.014 2.153c.107-.055.123-.16.131-.217.015-.095.038-.239.391-.34.194-.07.303-.12.386-.157.18-.082.212-.097 1.027-.163l.206-.016-.144-2.615-.358.611c-.1.173-.297.404-.383.39l-.048-.024c-.301-.155-1.213-.622-1.856.252l-.05.033-.018.108c-.034.206.307 1.956.449 2.097l.17.091zm-38.06 19.534c.153.184.597.808.597 1.824 0 .21.204.246.4.28.23.04.611.107.798.343.12.121.287.348.478.611.551.756 1.238 1.697 2.015 1.813.294.031.473.166.492.371a.335.335 0 0 1-.224.357c-.326.146-1.159-.105-1.287-.33-.144-.339-.53-1.24-1.502-1.295-.763-.04-1.73-.65-1.903-.898a.5.5 0 0 0-.026-.217l-.073-.14-.153.022q-.16.025-.195.234a.4.4 0 0 0 .017.176c-.025.208-.113.57-.343.798-.48.528.092 1.048.398 1.326.088.08.21.19.238.246.06.107.17.246.297.407.162.207.543.691.528.817-.14.167-.155.39-.157.571a5 5 0 0 0-.19-.103c-.31-.166-.663-.354-.807-.698-.29-.696-.786-1.205-1.35-1.392-.325-.125-.36-.32-.411-.865a8 8 0 0 0-.073-.592 15 15 0 0 1-.075-.34c-.143-.674-.29-1.37-1.037-1.568q-.172-.034-.305-.055c-.402-.067-.402-.067-.376-.43.036-.49-.41-1.122-.748-1.525zm.662 7.823c.161-.084.16-.264.16-.437-.002-.126-.003-.298.056-.37.28-.335-.126-.851-.52-1.351-.111-.142-.216-.275-.256-.344-.059-.117-.183-.23-.327-.36-.437-.398-.52-.56-.376-.718.186-.186.307-.433.378-.667.468.387 1.318.789 1.967.823.707.04.995.714 1.152 1.075.248.434 1.327.737 1.806.524.325-.098.536-.432.502-.796-.03-.323-.275-.691-.862-.753-.593-.089-1.247-.986-1.725-1.642-.202-.277-.376-.516-.503-.641-.271-.347-.755-.43-1.043-.48l-.051-.01c-.049-1.3-.74-2.003-.77-2.035l-.057-.057-6.215-.316.39.39c.394.395 1.008 1.174.98 1.584-.053.717.213.795.728.88.086.015.183.03.28.05.457.122.566.53.717 1.243.024.114.048.23.074.335.033.201.05.384.066.549.05.533.094.995.691 1.224.457.152.858.573 1.101 1.156.202.484.645.72 1.001.909.114.06.22.116.301.175q.127.09.236.09.063 0 .12-.03m-8.106-14.055q-.017.157-.044.31c-.125.788-.255 1.603 1.839 2.723l-.042 2.5c-1.24-.058-3.092-1.64-3.669-3.186-.224-.602-.335-1.43.41-1.964.784-.579 1.472-.885 2.061-1.04-.311.163-.524.376-.555.657m1.982 5.952.19-.017.052-3.157-.116-.06c-1.943-1.01-1.845-1.627-1.731-2.34.017-.11.035-.22.046-.333.013-.123.216-.543 2.272-.781.16-.018.341-.04.33-.242-.012-.204-.217-.204-.306-.204-.1 0-.22-.01-.352-.02-.827-.064-2.211-.17-4.123 1.241-.75.537-.949 1.41-.559 2.456.59 1.585 2.613 3.464 4.138 3.464q.08 0 .159-.007m34.424 7.83c.137-.171.29-.366.324-.391.133-.026.253-.129.378-.323.518-.808 1.262-3.5 1.035-4.452-.236-.995-1.298-2.49-2.832-2.544-.355 0-.75.096-.766.101l-.049.018c-.007.004-.721.358-1.238.401l-1.148.097 1.863.619c.248.44-.07.75-1.362 1.743-1.467 1.15-3.372.892-5.578.593q-.45-.062-.916-.121c-2.685-.335-4.807-1.768-5.82-3.925-.615-1.395-2.96-6.214-7.357-9.684-3.43-2.665-4.472-2.617-6.992-2.505-.351.017-.732.034-1.154.045-3.009.081-3.778.994-4.34 1.662-.105.124-.202.24-.295.328-.504.402-.428 1.29-.353 2.15.042.485.09 1.036-.02 1.2-.386.516-.865.782-.87.785l.227.415c.022-.013.57-.315 1.03-.927.207-.312.16-.87.104-1.514-.058-.666-.13-1.495.19-1.752.125-.114.233-.244.348-.38.532-.633 1.195-1.419 3.992-1.494.425-.012.81-.03 1.162-.045 2.467-.111 3.388-.152 6.68 2.404 4.309 3.4 6.611 8.133 7.216 9.508 1.087 2.312 3.344 3.842 6.193 4.199q.464.058.911.119c2.313.313 4.31.584 5.933-.687 1.26-.969 2.02-1.553 1.424-2.445l-.045-.068-.157-.051c.269-.098.486-.2.559-.235.083-.02.373-.082.62-.082 1.225.043 2.169 1.295 2.38 2.181.22.922-.721 3.983-1.042 4.202-.187.034-.327.21-.605.562-.936 1.178-3.125 3.934-8.927 3.264-7.42-.86-9.902-2.664-12.658-6.38-1.465-1.976-1.913-3.36-2.309-4.582-.363-1.123-.678-2.092-1.68-3.187-3.2-3.48-6.783-3.852-7.526-3.805v-.006.006a.4.4 0 0 0-.137.02l-.117.267.26.172v.004l.006-.001.007.006v-.006c.243-.013 3.838.052 7.158 3.662.934 1.019 1.218 1.899 1.58 3.015.406 1.255.867 2.678 2.378 4.717 2.783 3.752 5.435 5.692 12.983 6.568q.932.106 1.753.105c4.785 0 6.792-2.529 7.6-3.545m7.433-21.013c1.07-.064 2.357-.414 3.6-.753 1.532-.418 3.115-.85 4.009-.622.422.085 1.802 1.194 2.846 2.22-.785-.513-1.796-.986-2.898-1.032-.817-.042-1.397.166-1.567.353l-.02.023c-.517.092-1.427.492-2.325 1.84-.806 1.152-2.72 1.13-3.75 1.123-.281-.004-.484-.006-.608.018-.1.013-.504-.118-1.037-.526-.329-.253-1.407-1.167-1.503-2.338 0-.13-.052-.345-.124-.644-.107-.443-.254-1.05-.257-1.56l-.074-.5c.958 1.087 2.569 2.468 3.708 2.398m-.637 3.588c.085-.016.29-.013.527-.011 1.109.016 3.17.033 4.106-1.309.91-1.364 1.784-1.62 2.114-1.669q.052.015.122.015.248 0 .285-.183l.015-.09c.2-.065.517-.124.925-.109v.004q.108.003.216.01c.296.028.63.094.999.216l.003-.013c1.733.558 3.058 2.015 3.075 2.032l.588.656-.224-.852c-.254-.963-3.586-3.91-4.41-4.074-.991-.257-2.557.173-4.216.625-1.222.334-2.487.678-3.517.739-1.11.08-3.09-1.806-3.832-2.842l-.513-.718.317 2.119c0 .529.153 1.164.266 1.628.055.228.112.464.113.562.11 1.362 1.305 2.378 1.669 2.657.4.307.928.615 1.281.615a.5.5 0 0 0 .091-.008m-7.084.214a.2.2 0 0 1 .003-.044zm.467.044.002-.015q0 .008-.002.015m-.259 6.811c-.447.05-1.165-.033-2.058-.712a2.5 2.5 0 0 1-.708-.774c-.245-.377-.475-.734-1.39-1.007-.443-.149-.77-.19-1.08-.123.112-.754.074-1.924.039-2.978-.014-.423-.027-.811-.027-1.117q0-.199.35-.34c1.221-.498 4.237-.04 4.662.247l-.002.044.057.082c.253.37 2.384.935 12.204 2.61 1.435.258 2.587.089 3.423-.505 1.149-.815 1.369-2.21 1.44-2.663.096-.526.215-1.517.02-2.562.507.206.942.469 1.35.815 2.693 2.125 1.936 4.359 1.53 5.56l-.049.145c-.3 1.068-2.31 3.169-3.014 3.82-.51.509-2.29 1.35-4.483 1.537-2.276.144-6.656-.942-7.085-1.326-.54-.393-3.995-.766-4.96-.766-.103 0-.179.004-.219.013m12.298 2.55c2.342-.2 4.207-1.1 4.776-1.668.574-.528 2.786-2.763 3.14-4.022l.044-.132c.413-1.217 1.27-3.75-1.677-6.078a5.5 5.5 0 0 0-1.876-1.035l-.311-.104v.328l.007.152c.268 1.074.142 2.146.043 2.694-.113.712-.364 1.73-1.248 2.357-.729.518-1.76.66-3.067.424-2.757-.47-11.047-1.884-11.873-2.4a.4.4 0 0 0-.162-.23c-.606-.454-4.027-.89-5.269-.27-.432.215-.522.512-.522.723 0 .31.013.704.026 1.133.04 1.179.087 2.645-.11 3.234l-.055.31h.383l.05-.024c.32-.16.588-.156 1.104.015.755.227.914.473 1.135.814.163.25.366.564.824.896 1.012.77 1.856.861 2.417.799.417-.093 4.379.346 4.805.653.55.495 4.638 1.445 6.98 1.445q.23 0 .436-.014M58.31 71.713c.12-.073.372-.224.44-.235v-.426c-.158 0-.364.118-.66.298-.085.05-.16.099-.209.122-.764-.116-3.287-.668-4.002-1.2-.01-.005-.974-.495-1.187-1.305-.102-.39-.01-.8.29-1.246l.055-.116c.046-.105.545-.754 1.307-1.42.579-.47 1.35-.19 1.809-.022.061.022.116.043.146.051.367.162.66.59.689.677.018.054.205.287.4.49-.355.159-.8.525-.93 1.297-.206 1.242 2.754 2.46 3.35 2.69l.155-.395c-1.347-.524-3.194-1.56-3.083-2.224.15-.907.805-1.035.912-1.05h.005l.147.008.114-.271-.166-.164h-.005c-.149-.139-.455-.441-.496-.516-.071-.214-.45-.722-.938-.938l-.155-.055c-.508-.185-1.455-.53-2.23.097-.7.613-1.356 1.38-1.422 1.577l-.032.07c-.356.527-.468 1.055-.333 1.568.26.994 1.36 1.554 1.375 1.557.815.61 3.58 1.18 4.243 1.27.093 0 .18-.048.411-.189m11.765-22.594c.238.073.532.165.808.03l.058.91c-.466.04-1.28.182-1.718.544-.1-.448-.213-1.056-.22-1.256.395-.44.695-.346 1.072-.228m1.116 1.4h.253l-.001-.009.137-.008c.795-.047 1.226-.016 1.288.114a.45.45 0 0 0 .295.261c.333.088.753-.177 1.268-.54.073-.051.142-.1.187-.13q.273-.152.344-.655c.086-.617-.067-1.621-.386-1.94-.075-.075-.046-.164.15-.48a2.2 2.2 0 0 0 .23-.438c.183-.412-.143-1.202-.807-2.516l-.097-.19c-.13-.258-.01-.559.072-.715.161-.305.4-.492.465-.503.058.01.266.167.444.486.09.162.285.577.143.956-.214.683.382 1.21.91 1.674.197.175.402.356.561.541.343.37.292 2.025.213 2.778a.6.6 0 0 0-.087.323c0 .1 0 .286.184.338l.177.044.094-.153c.026-.044.056-.173.083-.358.206-.195.861-.278 1.241-.326.48-.06.716-.096.833-.214.328-.274.471-1.123.508-1.377l.014-.097-.058-.077c-.22-.297-.82-1.138-.96-1.446-.073-.221.13-.798.264-1.181.073-.212.137-.395.159-.51.066-.084.406-.147.669-.163-.085.363-.041.984.068 1.918.02.168.035.293.035.34 0 .14.088.269.34.62.37.516.99 1.38.849 1.975-.16.704-.229.77-1.373 1.873-.402.387-.933.9-1.638 1.603-2.664 2.662-4.167 2.38-6.33 1.599-1.842-.654-2.456-2.51-2.536-2.78.051-.37 1.194-.636 1.795-.636m-1.663-2.832c.24.052.43.092.587.092h.001c.567-.03.638.244.694.7l.016.1c-.154.23-.295.185-.611.088-.397-.125-.998-.31-1.602.41-.197.195.083 1.367.235 1.937-.385.12-1.193.455-2.696 1.382-1.083.639-1.405 2-1.64 2.995l-.037.172-.123 2.073c-.295-1.25-.514-3.208-.594-4.1-.002-.007-.154-.715.416-2.03.281-.704.993-1.292 1.68-1.861.64-.528 1.243-1.027 1.525-1.611.21-.387.61-.5 1.046-.5.376 0 .778.085 1.103.153m-4.587 7.944.031-.132c.228-.962.511-2.16 1.425-2.699 1.509-.93 2.284-1.238 2.6-1.337.21.606.937 2.265 2.776 2.917 2.268.82 3.968 1.145 6.823-1.709.703-.7 1.231-1.21 1.633-1.597 1.164-1.122 1.314-1.267 1.505-2.106.191-.803-.48-1.738-.925-2.357a10 10 0 0 0-.252-.344c0-.056-.015-.201-.038-.397-.123-1.044-.142-1.656-.06-1.818a.26.26 0 0 0 .143-.28c-.044-.226-.314-.234-.444-.238-.048-.001-1.164-.027-1.298.508a5 5 0 0 1-.154.483c-.183.521-.39 1.113-.256 1.508.168.378.768 1.212.96 1.475-.07.417-.21.889-.329.99-.068.04-.368.078-.588.106-.36.046-.787.1-1.125.23.065-.936.03-2.292-.368-2.721a6 6 0 0 0-.602-.58c-.54-.477-.885-.817-.775-1.167.249-.665-.163-1.338-.295-1.529-.088-.126-.4-.54-.73-.54-.297 0-.63.322-.827.642-.272.438-.323.897-.142 1.26l.097.192c.229.452.924 1.825.79 2.132a2 2 0 0 1-.192.36c-.185.297-.44.706-.083 1.063.147.147.326.932.257 1.51-.03.239-.09.326-.127.348l-.213.148c-.193.135-.702.494-.841.494l-.008-.001c-.172-.51-1.052-.46-1.758-.414l-.138.007-.083-1.305-.05-.31c-.043-.351-.136-1.169-1.177-1.117-.093 0-.28-.04-.477-.081-.787-.167-2.104-.447-2.668.594-.24.502-.806.967-1.404 1.463-.734.606-1.493 1.233-1.817 2.042-.639 1.472-.447 2.289-.444 2.288.039.452.403 4.438 1.037 5.316l.389.537zm-38.306-23.02.01-.4-9.565 6.262.182.277zm-.129 5.717-11.573 10.13.218.25 11.345-9.93zm-.152 6.71-10.44 11.416.245.224L26.343 45.54zM48.82 25.225l-.288-.164-1.21 2.124q.138.089.276.185zM26.158 53.684 18.55 64.317l.27.192 7.325-10.237zm16.984-27.007.432.02 2.528-2.765-.245-.224zm2.68.096.624-.872-.27-.192-.763 1.066q.24.004.409-.002m-2.147-8.79-.026-.329-8.326.662.026.329zm-8.526 9.055 10.26-6.718-.182-.277-10.707 7.01c.225-.007.44-.014.629-.015m4.917-.288q.098-.032.234-.054l5.789-5.067-.218-.249-6.277 5.494c.177-.038.337-.079.472-.124m4.637-7.45-.096-.316-18.638 5.67.097.317zM23.312 69.343l-1.128 1.983.288.163 1.1-1.934a8 8 0 0 1-.26-.212m53.332-.247 1.165 2.384.297-.146-1.192-2.439a3 3 0 0 1-.27.201m2.105-16.908 5.227 6.656.26-.204-5.25-6.687zm-8.116 20.09 1.68 4.667.313-.112-1.638-4.544zm9.595-26.9c.018.184.038.356.055.501l4.894 4.526.224-.243zm.197 18.366.892 1.419.28-.176-1.086-1.73a6 6 0 0 1-.086.487M62.79 72.019l2.186 10.197.323-.069-2.168-10.114zm-24.039 4.096-1.59 7.213.323.07 1.535-6.96zm5.557 4.128-.433 4.1.235.025.427-4.041q-.116-.041-.23-.084m12.265.788.31 3.151.33-.032-.321-3.263q-.156.075-.319.144m-6.669.51-.022 3.664.236.002.023-3.633zm-20.717-5.314c-.017-.006-.027-.015-.042-.021l-.588 1.441.22.09.585-1.437a2 2 0 0 0-.175-.073m21.031-7.364a4 4 0 0 0-.237-.033v.01q.119.017.237.037zm24.874-14.235q-.18.038-.355.057l.818 1.303c.182.1.41.25.669.442zm-18.23-28.404.623.992q.194.003.396.01l-.739-1.178zm-.31-2.287.042.04 2.622 3.34q.244.03.475.069l-1.57-2 2.385 2.206c.224.08.418.175.564.292.147.127.344.226.568.304l-4.856-4.49zm-.565 47.77-.335-.02.258 2.62a4 4 0 0 0 .315-.182zm-10.71-.64-.123 1.162q.106.105.217.206l.143-1.358zm26.83-12.015-.028.697 2.007 4.109q.174-.03.332-.072zm-22.16 15.39.237.031.013-2.219q-.12.017-.236.029zM25.89 65.486l.015-.697-1.208 2.12q.124.096.27.194zm23.98-35.748.009.013.002-.012zm.575-5.126-.324-.07-.926 4.201q.128.172.26.363zM31.709 70.547l-.252-.01-.09.22c.04.047.097.118.165.224zm24.85-43.331-.402-.821-.298.144.333.68zm-1.746.17-.352-.975-.311.112.34.944q.164-.043.323-.08m-3.046 1.53-.419-4.262-.33.034.44 4.47q.17-.125.31-.242m14.592-.805-9.927-6.743-.185.274 9.672 6.568a5 5 0 0 0 .44-.1m-12.727-.388-.49-2.283-.323.069.499 2.325a10 10 0 0 1 .314-.111M67 20.679l-9.65-1.04-.035.329 9.65 1.039zm5.933 17.954-.017.435 6.007 5.554c.043-.123.085-.24.117-.342zm1.814 7.923-2.03-2.583-.02.509 1.895 2.414c.06-.099.115-.198.148-.298.005-.01.003-.03.007-.042m9.311-6.427-10.886-7.392-.016.388 10.716 7.278zm-6.807 17.938a6 6 0 0 0-.546-.248l.092.146q.256.089.523.211zm-3.883-30.183-.013.34 6.19 2.742.135-.303-23.274-10.302-.134.302 16.614 7.355c.288-.069.482-.134.482-.134m-35.43 13.54h2.65v-.143h-2.65zm3.367 4.894c-.352-.453-1.577-.272-1.628-.263l.022.14c.33-.051 1.243-.112 1.494.21zm-1.878-9.199.993-.33-.045-.135-.993.33zm1.815-2.311-1.845.188.015.142 1.845-.19zm-.655-3.166H42.1v-.143h-1.513zm-.01 11.434 1.181.189.023-.14-1.183-.19zm1.68-1.604-.85-.189-.031.138.851.19zm-2.001-8.035h.804v-.143h-.804zM46.91 54.51c.018.004 1.731.385 2.416 1.389l.118-.08c-.718-1.051-2.43-1.432-2.504-1.448zm-.278 1.466c.02.003 2.011.294 2.788 1.481l.12-.078c-.813-1.24-2.804-1.531-2.888-1.543zm2.906-1.528c-.81-1.143-2.478-1.57-2.548-1.587l-.034.136c.017.005 1.687.433 2.466 1.533zm-7.544 2.57.024.14c1.955-.338 6.654 1.373 7.403 2.474l.118-.08c-.832-1.223-5.7-2.854-7.545-2.534m-1.657-3.594 2.128.425.028-.139-2.129-.425zm-6.231-11.812h2.46v-.143h-2.46zm-.514 9.072c2.013-.154 2.012-.166 2.009-.256-.003-.075-.074-.075-.17-.075v.026c-.275.036-1.236.116-1.851.163zm.23-3.071h.947v-.143h-.947zm5.308 1.973.076-.119c-.674-.432-4.15-.255-4.3-.247l.008.14c.037-.001 3.58-.183 4.216.226m-4.882-11.14h1.183v-.143h-1.183zm5.762 18.286.71.095.018-.14-.71-.095zm2.33 6.948-.007.14c.028.003 2.863.151 3.545.969l.11-.091c-.722-.866-3.529-1.013-3.647-1.018m-1.715-5.132.113-.086c-.353-.453-1.621-.272-1.676-.263l.022.14c.343-.052 1.291-.112 1.541.21m1.275 6.692.022.14c.027-.006 2.63-.405 3.866.831l.1-.1c-1.288-1.286-3.88-.889-3.988-.871m-1.89-15.878.018.14c.455-.057 1.147-.073 1.26.069l.111-.088c-.204-.255-1.192-.146-1.389-.121m1.997 5.717c.029 0 2.97.01 4.12.837l.083-.115c-1.188-.853-4.081-.864-4.203-.864zm3.883 7.217.083-.116c-1.191-.857-4.046-.455-4.167-.437l.02.14c.03-.004 2.918-.412 4.064.413m.21-1.366.138-.03c-.1-.448-2.705-.95-3.226-1.047l-.026.14c1.489.274 3.06.7 3.114.937m-4.73-2.585-.053.132c.062.024.2.03.51.043.886.035 2.73.107 3.631.935l.096-.104c-.938-.863-2.818-.938-3.722-.973-.216-.008-.42-.016-.462-.033m-4.52-6.338h1.325v-.142H36.85zm2.829 3.072.018.141c.455-.057 1.147-.073 1.26.068l.111-.087c-.204-.255-1.193-.147-1.389-.122m-.33-3.308.016.141c.33-.038 1.248-.075 1.499.212l.107-.092c-.352-.403-1.572-.267-1.622-.261m.138-1.087.023-.14a5 5 0 0 0-.758-.055c-.39-.012-.925-.027-1.846-.135l-.017.14c.928.11 1.466.125 1.86.136.29.008.502.014.738.054m1.918 9.265-1.324-.285-.03.14 1.325.282zm-1.244 4.014h1.088v-.142h-1.09zm.504-2.26.127-.063c-.156-.314-1.192-.165-1.398-.133l.022.14c.457-.072 1.17-.107 1.25.057m.352-11.444-.756-.047-.01.14.756.049zM39.404 40.1h.852v-.143h-.852zm2.826 10.492.025.139c1.945-.328 6.615 1.362 7.452 2.478l.097-.073v-.03c-.887-1.138-5.595-2.849-7.574-2.514m11.74 14.593.008-.037-.006-.003a.1.1 0 0 0-.001.04m-4.214.81.004-.18c.3-.218 1.084-.734 1.89-.81.301-.03.56-.067.787-.1.514-.074.886-.13 1.232.01.418.16.46.197.439.27-.02.075-.116.059-.146.054l.007-.041a3 3 0 0 0-.352-.152c-.312-.125-.65-.074-1.16 0-.23.033-.49.07-.794.099-.855.081-1.72.707-1.907.85m.025 1.708c.006-.012.598-1.206 3.947-1.232l.104-.1v-.044c-2.98 0-3.882.886-4.11 1.206l-.004.141zm-2.8-17.584-.016.14c.02.003 2.01.248 2.787 1.48l.084-.053.002-.07c-.832-1.247-2.774-1.488-2.857-1.497m4.064 19.222c-.488-.228-1.04-.303-1.47-.32a3.2 3.2 0 0 0-.75.084c-.632.155-.958.48-1.086.61l-.041.032c-.14.095-.564.837-.705 1.199q-.027.101-.036.156.015.038.039.074c.081.087.203.202.376.325.635.367 1.78.591 2.297.591 1.026-.047 2.15-.397 2.452-.675l.057-.067.022-.07a2.4 2.4 0 0 0-.104-.775 2.2 2.2 0 0 0-.303-.544c-.16-.21-.401-.44-.748-.62m-1.347-.737v-.002q.13.003.254.014c.153-.267.594-.92 1.279-.92.307 0 .59-.019.838-.037.35-.026.575-.041.697.01-.026.04-.045.08-.069.12-.1-.026-.383-.006-.619.011-.238.018-.534.04-.847.04-.556 0-.951.516-1.12.788.4.048.733.152 1.014.282q.04.016.078.035l.058.028q.17.083.32.182.436-.383.868-.644-.015.146-.002.282a6 6 0 0 0-.67.506q.11.09.205.189a2 2 0 0 1 .508-.466q.02.071.047.14a1.7 1.7 0 0 0-.458.434q.307.363.444.844c.092.268.131.52.122.723l1.507-.489c.06.029.128.057.195.085l-1.479.48c.672.105 2.26.216 4.336.324l.075.016.62.206q.085.128.124.247c-2.714-.14-4.76-.298-5.493-.468-.131.193-.383.356-.695.487-.311.168-.754.312-1.397.38a7 7 0 0 1-.76.086c-.54 0-2.62-.313-3.082-1.186l-2.247-.086a7 7 0 0 1-.27-.436l2.488.096c.03-.112.076-.266.147-.44l-2.167-.736-1.01-.04-.07-.14 1.116.042 2.188.744.016-.035c-.323-.628-1.463-1.05-1.578-1.09l-1.96-.095-.073-.143 2.07.1c.055.02 1.2.419 1.619 1.075.095-.178.217-.363.369-.543-.232-.298-.873-.665-1.32-.867l-2.965-.19-.078-.143 3.09.198c.124.056 1.021.47 1.37.892a2.7 2.7 0 0 1 1.045-.694l-.047-.024a.24.24 0 0 0 .001-.215c-.186-.404-1.328-.762-1.752-.865l-4.219-.176-.088-.145 4.326.181c.08.018 1.608.397 1.862.945.041.087.04.174.016.261q.09-.028.186-.05.045-.015.092-.025a3 3 0 0 1 .277-.05l.112-.017q.153-.016.32-.019v.001q.055-.005.113-.007c.042.002.08.006.123.009m.34-21.114c-.028-.038-.07-.079-.106-.118l-.094 4.245.033.046-.035.023-.032 1.42.016.018-.016.012-.343 15.465c.038 0 .074-.006.114-.006.043 0 .08.006.123.007l.02-.928-.066-.029a1 1 0 0 1 .07-.112l.034-1.537-.042.032-.09-.11c.008-.007.061-.048.136-.102l.024-1.1-.024-.022.025-.024.028-1.307-.106-.078c.007-.01.047-.064.112-.142l.033-1.535-.051.031-.074-.122.13-.077.036-1.679-.036.028-.09-.109c.007-.007.059-.047.13-.099l.055-2.459-.104-.076c.007-.01.045-.06.109-.136l.034-1.537-.05.029-.07-.124.123-.07.035-1.583-.075-.088c.006-.004.036-.03.08-.063l.055-2.533-.052-.036.055-.075.034-1.58-.067-.114.071-.043.036-1.617-.042-.049zm-7.476-2.616.023.139c1.917-.327 6.321 1.242 7.347 2.36l.004-.207c-1.28-1.199-5.62-2.595-7.374-2.292m5.2-8.736-.064.127c.647.323 2.325 1.272 2.325 1.78h.115l.003-.135c-.24-.686-2.149-1.657-2.38-1.772m2.362 11.29.028-.021c-.007-.011-.021-.023-.03-.035l-.026.022zm-.263 17.366c.012-.011 1.17-1.16 1.89-1.16.146 0 .31-.004.48-.008.552-.01 1.474-.032 1.534.148l.134-.045c-.087-.259-.718-.264-1.671-.244-.17.004-.332.007-.477.007-.727 0-1.79 1.007-1.966 1.178l-.001.046zm.292-13.808c.01-.013.89-1.245 1.834-1.245.51 0 .961-.038 1.36-.072.6-.05 1.073-.09 1.459.022l.039-.137c-.41-.117-.897-.077-1.51-.026-.395.033-.843.07-1.348.07-.888 0-1.683.954-1.895 1.232l-.003.11zm.544 3.99-.07-.123-.633.355-.003.165zm-.651-1.33c.01-.009.987-.836 1.948-.882.305-.028.564-.066.794-.1.511-.074.85-.123 1.16.001l.339.133-.004.01c.067.022.13.044.154-.024.027-.073.027-.073-.437-.25-.345-.14-.717-.084-1.233-.01-.227.033-.484.071-.784.1-.86.04-1.699.652-1.95.85l-.004.151zm-.225 9.723c.009-.012.89-1.2 1.835-1.2.54 0 1.012-.05 1.427-.095.571-.06 1.02-.108 1.391-.003l.04-.136c-.398-.113-.86-.064-1.446-.002-.412.044-.88.094-1.412.094-.822 0-1.563.786-1.837 1.116l-.006.22zm.142-6.239c.009-.011.89-1.199 1.883-1.199.542 0 1.005-.05 1.414-.096.551-.06.987-.107 1.357-.002l.04-.135c-.398-.115-.846-.066-1.412-.003-.405.044-.865.093-1.4.093-.864 0-1.615.794-1.888 1.122l-.005.212zm1.89 1.778c.304-.03.564-.067.792-.1.512-.074.85-.125 1.16 0 .273.114.337.152.35.162l-.005.031q.106.02.13-.05c.022-.073-.012-.104-.422-.275-.346-.138-.72-.084-1.233-.009-.227.034-.485.07-.786.1-.848.076-1.643.597-1.942.814l-.004.18c.174-.133 1.051-.771 1.96-.853m-1.344 2.305-.072-.122-.58.349-.005.168zm-.05-30.496a.2.2 0 0 1-.158-.027l-.16 7.22q.024.07.025.134h-.028l-.18 8.069q.01.02.016.04l-.016.005-.022 1.008c.075.07.133.139.186.206l.047-.037.058-2.588-.047-.034.049-.063.035-1.59-.059-.117.062-.03.137-6.159-.027.022-.092-.109c.008-.006.056-.046.123-.097l.025-1.166-.009-.01.01-.009.03-1.33-.095-.07c.006-.008.042-.055.098-.124l.034-1.541-.042.022-.066-.126.112-.06.03-1.314-.022.018a.4.4 0 0 1-.055-.143M29.616 58.325l.143-.006.255-31.238h-.143zm4.939-23.376h3.737v-4.773h-3.737zm-.237.237h4.21V29.94h-4.21zM29.54 67.693l4.983.317c-.036-.049-.067-.097-.106-.147l-4.734-.303.026-3.193-.142-.055-.026 3.314zm18.147-36.254c.508.364 1.86 1.4 2.009 1.81l.133-.049c-.194-.534-1.983-1.822-2.059-1.877zm.757-1.429-.105.096c.677.733 1.683 1.941 1.683 2.267h.143c0-.486-1.545-2.173-1.721-2.363m1.508 4.626-1.656-1.465-.094.107 1.655 1.464zm-2.242-.02c.017.004 1.814.53 2.316 2.126l.136-.042c-.526-1.67-2.396-2.215-2.414-2.221zm-9.777-6.283-2.507.142.007.141 2.508-.141zm-1.375 4.189-.162-.56c-.065-.247-.089-.335-.107-.368h-.008c-.016.033-.047.15-.116.368l-.162.545c-.042.136-.03.136.062.136h.4c.108 0 .124-.01.093-.121m1.089 1.35c.03.033.03.112.004.135a8 8 0 0 0-.501-.014c-.165 0-.334.01-.47.014-.03-.023-.034-.107-.01-.135l.084-.013c.138-.019.15-.047.1-.247l-.181-.634c-.038-.126-.05-.126-.157-.126h-.513c-.1 0-.095 0-.13.126l-.158.56c-.077.274-.062.287.081.31l.112.024c.026.033.022.117-.008.135-.123-.009-.25-.009-.408-.014a6 6 0 0 0-.381.014c-.027-.023-.03-.093-.004-.135l.115-.023c.113-.019.155-.06.212-.214.046-.121.108-.317.19-.568l.526-1.659c.05-.149.084-.261.073-.34.134-.033.261-.224.27-.224q.043.002.065.038c.061.209.111.428.173.638l.554 1.952c.088.311.107.345.304.387zm28.354 9.819c.113-.02 1.117-.2 1.362-.446l-.1-.1c-.181.18-.99.354-1.287.406zm1.36-1.967c-.704.616-1.174.337-1.193.324l-.038.06-.038.06a.8.8 0 0 0 .393.095c.24 0 .575-.088.97-.432zM26.256 58.689l.726-31.977c.233-.074.741-.203 1.183-.09l-.494 31.8.142-.013.494-31.765c.204.033.413.052.615.065l.096.008-.394 31.646.142-.005.393-31.63c.41.035.794.095 1.125.33.143.113.394.182.721.225l-.258 31h.143l.257-30.98c.659.066 1.606.037 2.749-.01.861-.038 1.672-.072 1.971-.002.897.15 3.253-.002 4.266-.34.554-.185 2.346-.095 3.786-.024 1.18.059 1.92.09 2.213.027.435-.13 1.43.644 2.026 1.103.164.127.314.241.432.325.316.248.795.994 1.145 1.54.301.467.446.689.565.768l.007-.304.236.006v.024a.5.5 0 0 0-.075.138.33.33 0 0 0-.01.163l.048-.015c.013-.005.02-.013.03-.02l-.002.16.088-.072s-.038-.057-.023-.144a.24.24 0 0 0 .038-.098c.095-.156.39-.399 1.273-.638l-.037-.137q-.915.248-1.243.564c-.05-.25.46-.626.837-.902.383-.281.715-.523.817-.803.16-.332 2.61-1.176 3.628-1.176.11 0 .249-.002.406-.004 1.139-.015 3.793-.048 4.612.614 1.14.977 4.413.51 4.998.379.694-.116 1.872-.553 2.346-.735l-.321 10.792c-.573.492-2.574.906-2.595.91l.03.14c.08-.017 1.864-.385 2.56-.866l-.176 5.893-.08-.095c-.594.503-2.644.926-2.664.93l.028.139c.085-.017 2.081-.43 2.715-.95l-.085 2.856q.114-.054.24-.084l.587-19.74a5 5 0 0 1 .383-.016l-.489 19.698q.072 0 .143.004l.488-19.7c.151.005.31.012.472.033l-.389 19.732.142.026.389-19.735c.361.059.709.17.916.377.11.11.249.181.4.237l-.478 19.313c.05.014.1.03.14.05l.48-19.313c.136.037.282.055.432.064l-.398 21.133.047.766.08-.003.414-21.894c.544.005 1.115-.12 1.458-.213l-.893 22.069q.232.002.424.039l.918-22.697-.292.098c-.483.161-1.967.515-2.431.05-.726-.724-2.422-.54-2.492-.533l-.056.014c-.015.007-1.644.654-2.474.794-1.006.223-3.772.458-4.644-.289-.944-.763-3.513-.731-4.89-.713q-.236.004-.4.004c-.852 0-3.834.8-4.032 1.463-.056.151-.38.39-.666.6-.368.27-.77.564-.937.904l-.184-.285c-.387-.603-.87-1.353-1.249-1.65-.122-.087-.267-.199-.427-.322-.785-.605-1.762-1.356-2.389-1.178-.241.053-1.139.007-2.089-.04-1.552-.077-3.31-.164-3.942.046-.946.316-3.228.463-4.046.326-.343-.08-1.144-.047-2.074-.008-1.19.051-2.988.127-3.338-.147-.502-.357-1.054-.397-1.588-.434a6 6 0 0 1-.655-.07c-.724-.207-1.569.135-1.605.15l-.129.053-.736 32.423q.196-.081.43-.152m41.385-18.19c-.158.158-1.332.274-2.035.31l.007.141c.192-.01 1.88-.102 2.129-.351zm-15.27 16.747a21 21 0 0 1-.48.007c-.778 0-1.896 1.155-1.943 1.204l.103.098c.01-.012 1.122-1.16 1.84-1.16.146 0 .311-.003.483-.007.524-.01 1.501-.031 1.528.137l.141-.023c-.046-.27-.663-.278-1.672-.256m.392-12.288c-.193.005-.379.01-.54.01-.777 0-1.896 1.108-1.942 1.154l.1.101c.011-.012 1.122-1.113 1.842-1.113.162 0 .349-.005.542-.01.497-.01 1.42-.032 1.47.094l.139-.028c-.044-.22-.549-.231-1.611-.208m-.205 6.146c-.169.003-.332.007-.477.007-.777 0-1.941 1.153-1.99 1.202l.1.1c.012-.011 1.17-1.16 1.89-1.16.146 0 .31-.004.48-.008.55-.011 1.474-.032 1.534.148l.135-.045c-.087-.259-.72-.265-1.672-.244M35.214 69.225l-7.564-.296.08-5.133-.141-.023-.082 5.224v.069l7.77.302q-.03-.072-.063-.143M35.2 55.08c.03-.001 2.964-.182 3.6.226l.076-.12c-.674-.43-3.562-.254-3.685-.246zm1.367-16.632h4.163v-.143h-4.163zm-.994-1.513H38.6v-.143h-3.028zm-1.655 3.024h.993v-.142h-.993zm.189-3.024h.662v-.143h-.662zm-.96 12.049.994.19.027-.14-.994-.189zm.43-4.866c.066.01 1.616.237 1.855.237v-.143c-.23 0-1.819-.233-1.835-.235zm-.392 1.819h.142c0-.004 0-.014.017-.027.276-.225 2.238.044 2.973.19l.028-.138c-.027-.006-2.68-.499-3.09-.163a.17.17 0 0 0-.07.138m.592-2.859h1.466v-.142h-1.466zm5.166-12.807.993-.142-.02-.14-.994.141zm2.41 14.272-.756-.093-.018.14.757.094zm2.869-5.955c1.023.126 2.684.454 2.778.799l.137-.037c-.15-.55-2.617-.868-2.898-.902zm-1.647-3.448c.505 0 1.814.324 1.828.328l.034-.138c-.055-.013-1.34-.333-1.862-.333zm.174-5.012 1.466.331.031-.138-1.466-.331zm-3.162-1.982.015.141 1.324-.142-.014-.142zm1.143 1.984h1.37v-.142h-1.37zm1.508-1.984.011.141 1.845-.142-.011-.142zm-.144 5.292 1.656.19.015-.142-1.656-.19zm-9.24 18.265h.141c0-.005 0-.014.016-.027.246-.215 1.964.012 2.611.098.165.021.294.039.37.047l.014-.142-.364-.046c-1.176-.156-2.453-.303-2.725-.063a.18.18 0 0 0-.063.133m15.052-11.934c.017.004 1.617.337 1.932 1.462l.137-.038c-.339-1.21-1.972-1.55-2.04-1.563zM33.242 54.984l.993.19.026-.14-.993-.189zm16.73-10.439c.204-.51-1.191-1.487-1.35-1.597l-.081.117c.567.39 1.42 1.122 1.299 1.428zm-24.239 25.87a1 1 0 0 1-.168.004l-.002.106.285.01zm45.702 0-.069 1.671a758 758 0 0 1-10.664-.36c.148.138.285.29.405.447 3.258.136 6.996.251 10.459.345l.209.005.085-2.098a11 11 0 0 1-.425-.01m-40.076.332 4.454.17-.141-.43-9.674-.371.143-6.3-.427.084-.082 3.598.15.082-.049 2.835 5.582.283zM49.87 48.732c-.81-1.19-2.48-1.573-2.55-1.59l-.032.139c.017.004 1.686.387 2.465 1.53zm-.362-6.174.133-.049c-.198-.546-1.64-1.016-1.7-1.035l-.044.135c.4.129 1.466.55 1.611.949m.469-2.86c0-.695-1.487-1.539-1.55-1.574l-.07.124c.411.23 1.478.942 1.478 1.45zM33.008 56.262c.064.009 1.568.236 1.808.236v-.141c-.23 0-1.772-.234-1.787-.235zm-.392 1.82h.142c0-.004 0-.014.017-.029.253-.209 1.917 0 2.974.194l.026-.14c-.45-.081-2.716-.475-3.09-.163a.18.18 0 0 0-.069.137m.875-4.749h.946v-.142h-.946zm-2.797 11.49-.017 2.142-.001.069 3.121.13-.145-.148-2.833-.118.017-2zm-2.14-.843-.053 4.355-.001.069 6.471.312-.081-.144-6.247-.303.053-4.249zm3.23-5.66q.093.008.188.02l.526-30.784-.19-.003zm15.456-9.574c.017.005 1.735.432 2.468 1.393l.112-.086c-.763-1-2.474-1.426-2.546-1.443zM31.645 66.394l1.41.06a11 11 0 0 0-.233-.199l-.985-.042.012-.697-.187-.126-.016.912zM43.074 31.78l1.135.33.04-.135-1.135-.331zm3.976 35.278c.143.048 1.578.54 1.578 1.277h.19c0-.909-1.652-1.438-1.722-1.46l-5.284-.229.124.192zm-9.673-5.605c.444.028.91.103 1.185.279l.077-.12c-.34-.217-.927-.291-1.437-.312zm-2.13-1.695c1.02-.077 2.51-.067 2.626.195l.13-.058c-.2-.448-2.34-.31-2.767-.278zm13.929 7.983.136-.04c-.244-.828-2.23-1.575-2.314-1.606l-.05.133c.02.008 2.004.753 2.228 1.513m-12.61-9.353h1.372v-.142h-1.372zm10.055 2.501c.02.007 2.06.67 2.702 1.95l.126-.064c-.668-1.334-2.7-1.993-2.785-2.02zm2.68-.015c-.856-1.188-2.478-1.616-2.546-1.633l-.036.137c.016.004 1.64.433 2.467 1.58zM46.377 62.4c.02.009 2.072.904 2.903 2.148l.118-.079c-.855-1.278-2.878-2.162-2.964-2.199zm-10.8-8.831c1.576-.07 3.255 0 3.334.235l.135-.045c-.147-.441-2.698-.366-3.477-.332zm.516-10.632h3.831v-.143h-3.83zm1.61 1.585c.764.022 1.632.048 2.012.16l.04-.136c-.398-.117-1.275-.143-2.049-.166-.592-.017-1.33-.04-1.416-.11.01.009.016.033.006.05l-.122-.074a.1.1 0 0 0-.003.101c.063.115.384.14 1.531.175m-2.134-4.564 2.838.143.007-.142-2.838-.141zm1.612 6.287h1.325v-.142H37.18zm12.95 3.013.71-.425-.073-.122-.638.383-.004.156zm-14.268-1.643c1.61-.134 3.398-.136 3.474.093l.135-.046c-.149-.442-2.809-.255-3.621-.189zm13.59 19.19c-.67-2.34-2.79-2.367-2.81-2.367v.142s.515.004 1.097.285c.778.376 1.309 1.042 1.577 1.978zM37.4 56.641c.434.075.882.153 1.242.188l.013-.142c-.354-.033-.8-.11-1.23-.186-.835-.144-1.557-.27-1.792-.135l.07.122c.189-.108.99.031 1.697.153m4.513-18.194h.993v-.143h-.993zm5.215 2.726c-.343-.54-2.781-1.006-2.885-1.024l-.026.138c.689.13 2.534.556 2.792.961zm-2.382-4.05.01.142c.02-.001 2.144-.127 2.917.962l.116-.082c-.817-1.153-2.951-1.029-3.043-1.022m-.858 4.63c1.339.198 3.508.632 3.635.948l.132-.052c-.195-.486-3.155-.949-3.745-1.035zm1.743-6.608-.058.129 1.466.66.059-.128zm2.029 9.231h.142c0-.691-3.64-1.007-4.37-1.062l-.01.141c1.759.135 4.238.511 4.238.921M44.875 30.27c.41.102 1.51.448 1.653.808l.133-.052c-.198-.493-1.594-.855-1.752-.894zm.518-1.797c.012.004 1.178.334 1.823.793l.082-.115c-.665-.475-1.818-.8-1.867-.814zm.318 3.823 1.324.661.065-.126-1.325-.66zm.828 17.741c-1.186-.806-4.08-.816-4.202-.816v.143c.03 0 2.972.008 4.123.79zm-3.715-2.09-2.128-.425-.029.139 2.13.425zm-1.23 4.016-.027.14c.043.008.133.01.315.015.778.02 2.845.07 3.813.96l.096-.105c-1.007-.926-3.113-.977-3.906-.997a3 3 0 0 1-.291-.013m1.656 1.465-.028.14c1.49.298 3.062.73 3.114.94l.138-.035c-.098-.39-2.493-.898-3.224-1.045M41.77 40.29h1.466v-.142H41.77zm2.964-6.523 2.318.52.031-.138-2.318-.52zm1.934 15.02.138-.03c-.1-.448-2.705-.951-3.226-1.047l-.026.14c1.489.274 3.06.7 3.114.937m-3.094-11.805-1.987-.189-.014.142 1.987.188zm-1.636 9.22-.053.131c.062.025.2.032.51.043.885.036 2.73.109 3.631.937l.096-.105c-.938-.862-2.818-.937-3.722-.973-.217-.008-.42-.017-.462-.033m6.338-1.749-.052.132c.012.006 1.296.52 1.614 1.609l.12-.035v-.045c-.354-1.126-1.628-1.639-1.682-1.66m13.973-.57-1.846.094.008.14 1.845-.094zm-.19 6.142-1.845.095.008.14 1.844-.094zm1.555 4.408.016.145q.053.002.125.002h.034l-.111-.143zm-5.48-6.156c.443.012 1.648.079 1.907.226l.07-.123c-.342-.196-1.906-.243-1.972-.246zm5.373 4.866c-.637.14-1.527.143-1.539.143v.141c.046 0 .89-.003 1.534-.139 0-.042.003-.094.005-.145m-3.833-9.163-1.23-.425-.047.134 1.23.425zm-2.105 1.603h1.088v-.142H57.57zm.118-4.635c.094.035.783.287 1.214.287a.5.5 0 0 0 .268-.059l-.078-.118c-.186.122-.93-.084-1.355-.243zm.166-1.319h1.088v-.142h-1.088zm.829-1.942 1.228.426.047-.134-1.23-.426zm3.618 13.99v.142c.126 0 1.153-.005 1.545-.12q.022-.06.048-.122l-.018-.035c-.22.11-1.212.135-1.575.135m2.356 4.254-.836.104.021.14.832-.104zm-5.314.333-1.23-.425-.045.134 1.23.425zM58.21 49.83l1.23.426.045-.134-1.23-.425zm1.255 3.55-.006.14c.014 0 .11.005.256.005.382 0 1.096-.026 1.48-.2l-.06-.13c-.5.227-1.66.184-1.67.184m-1.473 1.038c.535.033 1.615.122 1.868.23l.056-.13c-.339-.145-1.852-.237-1.916-.241zm8.852 7.399-.1-.1c-.18.179-.988.32-1.284.358l.019.14c.114-.014 1.119-.152 1.365-.398M65.7 60.622l-.082.116a.7.7 0 0 0 .373.096c.13 0 .293-.036.48-.124a3 3 0 0 1-.167-.08c-.373.135-.592 0-.604-.008m-1.232 1.547-.752.094q.216.045.437.088l.332-.042zm-7.23-4.254h1.089v-.142h-1.088zm3.774 1.55-.073-.122c-.448.269-1.601.18-1.613.18l-.012.14c.02.002.205.016.454.016.394 0 .946-.035 1.244-.215m.17-10.999-.033.138c.024.006.365.085.824.085a3.2 3.2 0 0 0 1.109-.182l-.05-.133c-.867.32-1.84.094-1.85.092m.542-13.753-1.513.19.017.14 1.513-.19zm.765 10.822v.141c.138 0 1.352-.004 1.598-.151l-.073-.122c-.161.096-1 .132-1.525.132m1.624 1.33c-.545.273-1.94.276-1.954.276v.142c.059 0 1.442-.003 2.019-.291zm-6.732 4.907h1.088v-.143H57.38zm3.945-9.495-.038.135a3.7 3.7 0 0 0 .943.118c.316 0 .68-.04 1.04-.165l-.049-.134c-.912.32-1.886.049-1.896.046m-.63-4.161 1.844-.095-.007-.142-1.844.095zm-.909-1.513c.022.002.25.02.546.02.388 0 .891-.03 1.193-.168l-.06-.13c-.497.227-1.655.138-1.667.136zm2.514-.237v.143c.058 0 1.439-.003 2.06-.242l-.052-.132c-.596.229-1.995.231-2.008.231m.473 3.167v.142c.137 0 1.35-.005 1.597-.152l-.073-.121c-.16.095-1 .13-1.524.13m2.5-1.89-1.514.141.014.142 1.513-.142zm-.873 3.265c-.547.229-1.945.232-1.959.232v.142c.059 0 1.44-.003 2.014-.242zm-4.683 19.978.056-.13c-.339-.144-1.898-.238-1.963-.24l-.008.12q.315.025.612.065c.532.044 1.126.11 1.303.185m-1.53 6.892a5 5 0 0 1-.287-.198l-.026-.02-.414.023a1.3 1.3 0 0 0-.37.256zm-.973-14.687c.16.058.823.287 1.227.287.113 0 .205-.017.26-.062l-.088-.11c-.142.114-.875-.077-1.35-.249zm-.19 6.144c.16.056.825.287 1.229.287.111 0 .204-.019.26-.063l-.09-.11c-.141.114-.874-.077-1.35-.248zm9.908-3.756c-.18.18-.987.32-1.283.358l.018.14c.114-.015 1.12-.151 1.366-.398zm1.878 7.736q.07.014.142.026L69 60.752l-.143.014zm-1.779-9.157c-.705.615-1.174.337-1.194.324l-.076.12c.012.007.156.095.395.095s.574-.088.968-.432zm.138-1.414c-.109.108-.697.196-1.284.253q-.074.075-.142.156c.573-.05 1.362-.145 1.526-.308zm.848 10.43q.071.015.142.026l.057-2.296-.142.003zm-.79-.142.235.043.065-2.168h-.237zm-3.943-13 .014.142 1.513-.142-.013-.142zm-8.118 2.742-.023.14 1.088.188.023-.138zm1.82 1.382.122-.072c-.154-.256-1.286-.164-1.629-.13l.014.142c.66-.067 1.42-.062 1.493.06m13.276 2.67.142-.037.084-3.356-.14-.133zm.749-.2.142-.04.05-2.627q-.072-.042-.14-.085zM56.245 32.68h.993v-.143h-.993zm15.763 23.574q.216-.057.43-.11l.071-1.764q-.207-.066-.42-.14zM55.475 35.94l1.088.19.025-.14-1.088-.19zm.864 1.513h1.042v-.142h-1.042zm.84 10.46.118-.079c-.204-.304-1.433-.158-1.677-.125l.019.14c.57-.075 1.427-.105 1.54.063m-1.869-1.385-.023.14 1.088.189.023-.14zm10.833-13.565c.114-.02 1.118-.2 1.363-.444l-.1-.1c-.181.18-.99.353-1.287.404zm-10.326-4.016.003-.141c-1.89-.045-3.278.52-3.292.525l.054.131c.013-.006 1.273-.517 3.015-.517zm-3.34 41.073c.068-.14.182-.267.324-.38q-.044-.057-.083-.115a1.3 1.3 0 0 0-.369.433zm-.22-38.575c.019-.01 1.926-.977 3.022-.658l.039-.135c-1.15-.337-3.047.626-3.126.666zm2.89 3.078 1.655.236.02-.14-1.656-.236zm12.655-5.756-.126-.064c-.305.608-.99.53-1.016.529l-.017.14s.038.005.1.005c.226 0 .785-.06 1.06-.61m-.15 8.473-.109-.091c-.18.215-.984.361-1.28.4l.02.14c.114-.015 1.121-.154 1.369-.45m-1.373-5.8c.011.007.144.095.374.095.226 0 .55-.087.944-.431l-.094-.107c-.7.613-1.125.337-1.143.325zm-1.034 3.319c.086-.016 2.108-.388 2.684-.915l-.095-.104c-.547.5-2.594.875-2.614.88zm2.25.972c-.156.188-1.327.287-2.028.304l.004.143c.191-.005 1.884-.057 2.134-.356zM55.29 39.296l1.655.237.02-.141-1.656-.236zm6.869 18.714c.138 0 1.356-.006 1.605-.205l-.089-.11c-.158.126-1.014.173-1.516.173zm-2.406.047 1.466-.142-.013-.141-1.467.141zm3.715-3.498c.005.001.055.01.15.017l-.021-.145-.099-.01zm-1.597 1.608-1.797.094.007.142 1.797-.094zm1.29.094.66-.083-.018-.14-.66.083zm-2.168-1.651-.034.137c.024.006.366.084.835.084.34 0 .744-.04 1.145-.18l-.047-.134c-.914.32-1.89.095-1.9.093m-1.098-2.697 1.513-.141-.013-.142-1.514.142zm-.25-4.583c.022.001.25.019.541.019.383 0 .877-.03 1.153-.168l-.064-.127c-.45.225-1.607.136-1.618.135zm2.182 12.097v.143c.06 0 1.44-.003 2.014-.242l-.055-.131c-.548.228-1.945.23-1.959.23m2.965 1.09c-1.052.228-1.479.143-1.483.142l-.03.137c.008.002.097.02.287.02.242 0 .647-.03 1.257-.161zm-3.974.468c.023.006.364.085.824.085a3.2 3.2 0 0 0 1.108-.182l-.049-.133c-.868.32-1.84.094-1.85.092zm-4.134-20.27-1.04-.188-.026.138 1.04.19zm13.069 16.139.083-4.278a5 5 0 0 1-.138-.208l-.09 4.521q.073-.016.145-.035M58.33 41.943l-.008.141c.43.027 1.601.127 1.861.275l.07-.123c-.342-.195-1.858-.29-1.923-.293m8.843 5.925c-.702.613-1.125.337-1.143.326l-.081.116c.01.007.143.097.372.097.184 0 .432-.066.729-.269q.069-.107.122-.218l.02-.03zm-9.854-6.148.122-.073c-.154-.256-1.287-.128-1.631-.081l.018.14c.663-.088 1.42-.103 1.491.014m12.556 8.8-.143.058-.001.035.143-.054zm-8.007-11.033-1.515.141.013.14 1.514-.14zm-.316 6.094-.019-.14-1.466.19.018.139zm3.585 23.463a.7.7 0 0 0-.14-.072l-8.274.086q.026.07.067.14l8.451-.086a1 1 0 0 1-.104-.068m4.486-5.686.054-2.719q-.072.016-.143.028l-.052 2.666zm-9.686-22.123-.006.14c.014.001.111.005.257.005.38 0 1.083-.026 1.433-.201l-.063-.126c-.452.225-1.61.18-1.621.182m11.193 9.053.062-.004-.062.002zM50.269 43.07l.756-.378-.063-.127-.695.347-.003.148zm.202-1.568c.01-.009 1.034-.837 1.996-.883.305-.029.564-.066.793-.1.511-.074.85-.123 1.16 0 .193.08.287.12.333.14l-.001.003c.053.02.113.045.14-.02.015-.037.022-.054-.046-.09l.002-.005-.043-.016a7 7 0 0 0-.332-.143c-.346-.137-.717-.084-1.233-.009-.227.033-.485.07-.783.1-1.005.047-2.033.878-2.076.913zm4.667.013.037-.137c-1.192-.333-3.048.626-3.126.667l.065.126c.02-.01 1.88-.974 3.024-.656m-4.616-6.019c.013-.01 1.171-1.114 1.89-1.114.165 0 .35-.005.541-.009.496-.012 1.42-.034 1.475.106l.132-.053c-.086-.216-.664-.215-1.61-.194-.19.004-.375.008-.537.008-.763 0-1.893 1.063-1.979 1.145v.019zm10.03-2.106 1.845-.095-.006-.141-1.845.094zm-8.23 2.457c.354-.017.644-.057.899-.093.461-.062.765-.104 1.059.041.192.074.29.112.337.133l-.003.01c.068.022.13.043.155-.025.025-.072.025-.072-.432-.248-.326-.163-.665-.116-1.135-.05-.253.035-.54.074-.891.09-.818.078-1.612.639-1.903.865l-.004.184c.128-.105 1.027-.822 1.918-.907m6.142-4.49c.443.027 1.649.127 1.908.275l.07-.123c-.34-.195-1.903-.289-1.97-.293zm-7.98 2.713c.009-.012.89-1.2 1.835-1.2.54 0 1.01-.05 1.425-.094.57-.062 1.023-.11 1.393-.003l.04-.137c-.399-.112-.861-.063-1.448-.002-.411.044-.878.094-1.41.094-.837 0-1.589.813-1.852 1.133l-.004.194zm8.504-4.934v.143c.502 0 1.862.087 2.116.486l.12-.075c-.348-.547-2.16-.554-2.236-.554m-2.415-.33.005.141c.504-.017 1.363-.01 1.522.085l.073-.122c-.247-.147-1.462-.109-1.6-.104m-.555 2.173c.552-.076 1.382-.12 1.495.021l.111-.089c-.203-.254-1.39-.104-1.626-.073zm-2.21 6.404c-.395.033-.843.07-1.347.07-1.018 0-1.958 1.251-1.997 1.305l.114.084c.009-.012.935-1.247 1.883-1.247.51 0 .96-.037 1.358-.07.6-.05 1.074-.09 1.46.02l.039-.136c-.41-.117-.897-.077-1.51-.026m3.903-2.528h1.088v-.143h-1.088zm-4.725 4.103c-.17.004-.334.007-.479.007-.73 0-1.892 1.153-1.942 1.202l.1.102c.012-.013 1.17-1.161 1.842-1.161.146 0 .311-.004.482-.008.525-.01 1.502-.031 1.53.138l.14-.024c-.045-.27-.663-.275-1.673-.256m1.64 18.625 1.704.237.02-.14-1.704-.236zm-.142 6.239.212.03v-.144l-.191-.027zm-2.955-3.205.065.126c.019-.01 1.926-.976 3.023-.657l.04-.135c-1.15-.334-3.047.625-3.128.666m.331-12.428.065.126c.02-.01 1.927-.975 3.022-.656l.04-.136c-1.15-.34-3.047.625-3.127.666m2.955 3.252 1.655.236.021-.14-1.656-.237zm-3.097 2.938.065.125c.02-.008 1.88-.973 3.024-.655l.037-.137c-1.194-.33-3.048.626-3.126.667m19.166 16.488.01-.49-.143-.015-.007.356-12.91-.578q.122.08.248.153l12.728.57zm1.457-12.335a5 5 0 0 0-.444.448l-.191 4.737.423.073zm-1.396 1.557-.066 3.487q.072.011.142.024l.069-3.637c-.048.043-.094.088-.145.126M50.19 47.502c.008-.008.987-.837 1.99-.928.355-.017.645-.057.901-.092.462-.064.766-.106 1.056.04l.332.138v.003c.053.02.114.046.14-.02.016-.036.023-.053-.046-.09l.001-.004-.04-.016a8 8 0 0 0-.327-.14c-.327-.163-.666-.116-1.135-.052a10 10 0 0 1-.89.091c-.906.083-1.756.708-2.002.903l-.003.14zm4.766-2.252 1.704.284.023-.14-1.703-.284zM51.17 31.964l-.066-.126-.598.318-.004.164zm2.3 38.304-.13-.095c-.313.134-.524.292-.524.478h.142c0-.137.2-.266.511-.383m5.07-37.308 1.23.426.047-.134-1.23-.426zm2.937-1.274c.026.007.419.116.932.116.309 0 .662-.04 1.004-.165l-.049-.133c-.868.317-1.839.048-1.848.045zm6.172 38.161a27 27 0 0 1-.625-.148l-9.906-.102q.076.072.163.143zm1.542-18.694.002-.13a.4.4 0 0 0-.034.159c.02.009.027-.005.032-.03m.602-3.653q.075.015.141.025l.385-19.64-.142-.002zm-.701 1.458q.073-.049.143-.083l.001-.018a1 1 0 0 0-.143.079zm1.079 11.534-.073 2.949.141.024.076-3.025zm-11.224 7.676a3 3 0 0 1-.294-.125l-1.779.093a1 1 0 0 0-.074.145zm3.948.384a31 31 0 0 0-.983-.117l-5.201.128c-.012.049-.028.09-.038.143zM57.356 46.9c.167.06.898.314 1.289.314.08 0 .147-.01.19-.036l-.072-.122c-.141.087-.881-.117-1.359-.29zm-1.3-3.446h.993v-.142h-.993zm7.553-13.57-.064-.127c-.9.45-1.676.008-1.682.002l-.073.123c.023.013.385.22.91.22.268 0 .58-.054.909-.218m-8.317 30.204.013.142c.574-.058 1.432-.075 1.547.068l.11-.089c-.203-.254-1.428-.145-1.67-.12m.621-10.49h.993v-.143h-.993zm-.955 9.402 1.088.143.019-.14-1.088-.143zm.767-3.258h.993V55.6h-.993zm1.82-19.569c.168.06.9.315 1.288.315a.4.4 0 0 0 .192-.038l-.074-.122c-.141.09-.88-.117-1.358-.29zM63.63 33.2l1.513-.141-.013-.142-1.514.142zm2.124-3.764c-.447.358-1.505.362-1.516.362v.143c.045 0 1.118-.005 1.605-.395zm-15.46 15.361c.008-.013.888-1.2 1.881-1.2.56 0 1.043-.045 1.468-.084.543-.05.972-.09 1.307-.013l.033-.137c-.36-.084-.798-.043-1.352.008-.424.04-.903.084-1.456.084-.938 0-1.744.937-1.947 1.195l-.002.097zm13.675-13.39-.03.138c.007.001.08.017.236.017.233 0 .654-.035 1.31-.206l-.036-.138c-1.052.274-1.477.19-1.48.188m-1.34 3.542c.138 0 1.355-.005 1.648-.2l-.078-.119c-.219.146-1.207.177-1.57.177zm4.777 21.902-.042-.055a2.5 2.5 0 0 1-.55.284c.07.028.136.048.203.069a2.3 2.3 0 0 0 .386-.21l-.007.286q.102.01.2.005l.036-.003.163-5.497-.24.127zM65.31 41.945c-1.052.274-1.477.19-1.48.19l-.03.137c.006.002.08.017.234.017.234 0 .654-.036 1.312-.207zm3.765 15.066.113-5.73-.029-.099c0 .045-.01.04-.024.003l-.087.018-.116 5.836q.072-.013.143-.028m-5.434-8.734-.031.138c.007.002.097.02.289.02.241 0 .646-.028 1.255-.161l-.031-.139c-1.052.229-1.478.143-1.482.142m1.685-1.514.004.142c.187-.005 1.834-.057 2.13-.352l-.1-.1c-.194.194-1.323.291-2.034.31m-1.85-2.977.013.141 1.515-.142-.014-.14zm4.83 7.697.143-.064-.141 5.73-.143.022z"/>
</svg>
