<svg xmlns="http://www.w3.org/2000/svg" height="158.47" viewBox="0 0 157.625 158.466" width="157.62"><path d="M23.945 24.051C9.251 38.832 1.156 58.476 1.156 79.374s8.095 40.551 22.789 55.319c14.696 14.779 34.24 22.915 55.023 22.915s40.324-8.136 55.026-22.915c14.696-14.768 22.787-34.421 22.787-55.319s-8.091-40.542-22.787-55.324C119.291 9.276 99.754 1.142 78.967 1.142S38.641 9.276 23.945 24.051" fill="#c69214"/><path d="M25.257 133.326C10.903 118.899 2.997 99.71 2.997 79.302s7.906-39.582 22.26-54.014S58.699 2.907 79.005 2.907s39.394 7.945 53.745 22.381 22.254 33.606 22.254 54.014-7.9 39.596-22.254 54.024c-14.351 14.433-33.439 22.381-53.745 22.381s-39.394-7.949-53.747-22.381" fill="#182b49"/><path d="m80.407 18.901-.38-.386c-.354-.541-.472-1.559-1.101-1.793-.475.587-.76 1.434-1.076 2.176-32.635.589-59.002 27.485-59.002 60.469 0 33.344 26.964 60.48 60.101 60.48s60.099-27.136 60.099-60.48c0-32.859-26.17-59.678-58.64-60.466" stroke="#c79100" fill="#c69214" stroke-width="1.081"/><path d="M76.007 20.951c-.465.279-1.375-.005-1.944.12-1.731.403-3.444.201-5.049.618l-3.406.804-.911.124-7.907 2.596c-.451.175-1.024.514-1.46.733-.581.295-1.13.396-1.702.68l-2.004 1.11c-.315.165-.606.185-.912.37l-3.589 2.34-2.8 1.793c-1.394.996-2.669 2.2-4.015 3.265-.376.305-.645.809-1.031 1.109-1.434 1.106-2.816 2.55-3.894 4.004l-.79.749-1.459 1.972c-.364.595-.999 1.085-1.398 1.665l-2.861 4.315c-.364.55-.525 1.124-.849 1.729l-1.582 2.771c-.86 1.785-1.562 3.654-2.311 5.499-.181.438-.177.89-.364 1.349-.474 1.129-.925 2.585-1.276 3.817-.334 1.156-.455 2.403-.795 3.45-.145.464.009.816-.12 1.302-.27 1.024-.347 2.316-.545 3.39-.155.812-.071 1.569-.245 2.344-.11.479.03 1.14-.063 1.542-.084.361.003.879-.065 1.17l.065 1.479c-.182.876-.115 3.176.125 4.075v.854c.099.449.136 1.209.241 1.601.064.255-.082.56 0 .931.175.759.151 1.637.364 2.469.704 2.719 1.065 5.367 2.007 7.769.136.334.04.636.184.986l2.189 5.547c.068.164.285.348.366.494.276.529.433.956.73 1.415.517.823.784 1.805 1.275 2.655.328.575.833 1.158 1.156 1.724.087.16.029.276.121.43l.549.558 1.4 2.285.304.183.119.436c.269.413.757.755 1.032 1.175l.975 1.474c.189.277.593.459.788.741 1 1.385 2.264 2.769 3.592 3.82l.24.429 2.801 2.407c.14.134.202.376.366.499l5.53 4.126c2.329 1.559 4.762 2.789 7.42 4.004.248.121.531.379.791.487.531.254 1.049.324 1.58.571.14.058.289.241.43.307.41.178.795.184 1.214.359 1.528.665 3.315 1.245 4.926 1.794.329.117.553.021.854.126 1.689.563 3.665.839 5.471 1.294.689.166 1.407.139 2.009.307h.789c.999.224 2.42.131 3.47.373.369.078.805-.102 1.094-.069.72.109 1.961.185 2.559.069l.727.06c.33-.072 1.101-.197 1.461-.129.074.024.311.101.489.069.838-.189 1.966-.19 2.793-.373l.37.058c.266-.019.93-.03 1.279-.116 1.185-.299 2.63-.424 3.764-.74h.613l4.984-1.363a54.8 54.8 0 0 0 8.946-3.762c.174-.09.299-.04.487-.12.139-.063.284-.255.42-.314h.306l.362-.356.486-.13c.48-.279 1.04-.687 1.465-1.048.461-.405 1.131-.516 1.637-.863.224-.16.439-.487.671-.621 1.567-.915 2.89-1.904 4.316-2.96l.789-.805c.386-.265.816-.47 1.157-.799l.795-.734c.095-.134.116-.284.239-.377a12.65 12.65 0 0 0 2.435-2.4c.061-.082.155-.062.239-.125l.733-.8c.195-.149.385-.26.55-.433.266-.28.394-.709.669-.984.86-.889 1.579-1.816 2.306-2.836l.428-.375c3.041-4.209 5.607-8.841 7.726-13.99 1.184-2.893 1.887-6.147 2.796-9.317a32.4 32.4 0 0 0 .058-.865l.309-1.29c.405-1.58.212-3.544.666-5.059v-1.173c.316-1.454.13-3.167.125-5.055l-.062-1.105c.078-.931-.071-2.504-.305-3.519l-.061-1.416c-.165-.657-.265-1.43-.423-2.094l-.065-.865c-.535-2.006-.969-4.145-1.577-5.98-.155-.461-.09-.759-.246-1.171-.831-2.256-1.605-4.484-2.551-6.658-.229-.534-.632-1.121-.911-1.604-.209-.37-.233-.735-.43-1.115-.629-1.206-1.459-2.452-2.19-3.575-.144-.225-.108-.429-.24-.675-.078-.066-.161-.127-.245-.191-.161-.234-.212-.491-.361-.741-.125-.116-.248-.244-.368-.366-.114-.176-.105-.406-.248-.555-.583-.641-.941-1.252-1.456-1.975l-.607-.55c-3.52-4.911-8.071-8.867-12.956-12.396-.281-.2-.609-.234-.913-.436-.284-.185-.559-.539-.849-.735-.687-.464-1.437-.71-2.13-1.175-.545-.372-1.231-.847-1.824-1.17-.28-.148-.587-.14-.854-.312a19.03 19.03 0 0 0-2.31-1.229c-.294-.129-.561-.112-.849-.246-1.959-.896-4.198-1.622-6.328-2.406-.629-.225-1.234-.211-1.887-.426-3.52-1.195-8.206-2.048-12.404-1.981-.04.112-.014.063-.066.13.224.973.852 1.689 1.284 2.464.146.265.235.598.484.744.501.282 1.317.134 1.822.24 1.82.371 3.927.662 5.659 1.114v.369c-.525.316-.861.87-1.211 1.36-.791 1.046-1.825 1.891-2.621 2.954-.374.506-1.152.881-1.341 1.549-.189.692.189 1.482.306 1.967.218.872.111 1.636.364 2.466.28.909.569 2.034.609 3.147a1 1 0 0 1-.364.059c-.479-.415-1.339-.529-1.944-.796-.391-.183-.836-.502-1.22-.681-.869-.404-1.619-.659-2.496-1.049-.384-.174-1.384-1.019-1.941-.865-.673.185-1.28.79-1.89 1.051-1.804.768-3.27 1.722-5.17 2.405v-.124c-.221-.367-.021-1.356.061-1.726.207-.946.108-1.944.302-2.837v-1.11c.089-.408.279-.896.124-1.357-.208-.628-.784-1.072-1.094-1.605-.826-1.411-1.919-2.556-2.799-3.944-.325-.51-.865-.846-1.035-1.544.175-.093.302-.121.609-.12.501-.301 1.333-.046 1.946-.187 1.713-.389 3.706-.25 5.35-.675.405-.68 1.36-2.49 1.4-3.397h-.119c-.155-.138-.424-.126-.734-.12" fill="#fff"/><path d="M53.257 113.138c.036.707 1.267 2.365 1.64 2.959.443.69.579 1.489.914 2.284.678 1.621 1.901 5.041 1.523 7.202h-.309c-.917-1.366-2.394-2.668-3.528-3.871-.381-.416-.711-1.155-1.397-1.239-.214.485-.295 1.22-.424 1.786v.803c-.317 1.293-.667 2.897-.794 4.32-.182.111-.23.171-.547.183l-2.428-4.436c-.729-1.116-1.616-2.097-2.373-3.209-.21-.3-.645-.449-.854-.736-.961-1.334-2.259-2.484-3.405-3.641l-2.373-2.16c-.184-.153-.322-.437-.489-.611-.21-.226-.529-.38-.726-.62-.069-.075-.045-.187-.12-.246-.97-.772-1.989-1.745-2.496-2.961-.326-.789-.254-1.548-.429-2.529-.12-.691.361-2.178.611-2.956.17-.519.072-.999.241-1.542.576-1.848.685-4.046 1.703-5.427.562-.758 1.816-1.229 2.682-1.659l.054-4.445c0-.803.063-1.711-.054-2.288-.056-.24.033-.575.054-.739.102-.671.024-2.139-.054-2.524l.054-.985c-.074-1.086.097-2.2-.116-3.336h-.306c-.085.196-.388.621-.546.746-.084.063-.233.049-.304.119-.105.114-.1.322-.186.434-.117.169-.361.276-.485.436-.149.194-.216.406-.363.61-.374.52-.966.916-1.339 1.42l-3.042 3.819-.545.499-1.947 2.466c-.331.49-.924.829-1.279 1.295l-1.521 2.04-.548.487c-.255.356-.404.825-.97.866-.216-.297-.834-1.345-.666-1.724.148-.499.598-.716.909-1.054.119-.129.14-.351.245-.493.461-.637 1.196-1.136 1.639-1.79.616-.902 1.309-1.641 1.945-2.525l.487-.425c1.704-2.366 3.71-4.419 5.477-6.73.154-.206.446-.346.606-.549l1.763-2.351c.292-.408.857-.702 1.039-1.225.182-.574-.071-1.059 0-1.666.063-.591.153-2.11 0-2.839-.087-.393.109-.798.054-1.111-.075-.476.059-.962 0-1.6-.07-.829-.054-1.55-.054-2.466 0-.69.169-1.937-.125-2.406-.065-.046-.059-.036-.181-.064-.2.207-.44.264-.671.431-.495.373-.912.939-1.396 1.298-.244.179-.491.252-.73.431-.231.171-.399.48-.61.68-.512.474-1.13.817-1.702 1.236-.67.48-1.227 1.22-1.885 1.721l-2.737 2.159c-.184.144-.304.42-.486.561l-1.704 1.291c-1.071.955-2.131 2.038-3.344 2.833-.415.277-.599.795-1.218.863-.108-.201-.127-.445-.12-.797-.165-.249-.04-.905 0-1.169.374-.251.626-.665.974-.926l1.211-.865c.365-.276.671-.713 1.037-.988 2.748-2.091 5.211-4.469 7.968-6.539.464-.351.87-.881 1.335-1.232a35.974 35.974 0 0 0 3.285-2.773c.319-.305.961-.515 1.038-1.049.159-.396.097-1.479 0-2.036l.063-.864c-.02-.124-.109-.344-.062-.553.116-.598-.095-1.53 0-2.099.199-1.306.032-3.216 0-4.56-.128-.067-.115-.09-.306-.127-.49.381-1.108.535-1.644.87-1.716 1.059-3.579 2.075-5.289 3.14-.391.244-.829.301-1.217.558-.591.379-1.261.898-1.886 1.226-.53.285-1.025.43-1.521.746-.429.269-.867.704-1.459.799-.101-.19-.124-.403-.123-.741.111-.17.254-.964.306-1.169.451-.131.844-.51 1.214-.741.971-.586 1.959-1.04 2.861-1.666.132-.094.294-.036.426-.126.498-.301 1.035-.543 1.579-.86a77.21 77.21 0 0 0 3.954-2.403c.625-.408 2.769-1.243 2.98-1.847.426-.624.079-1.783.125-2.591.084-1.661-.031-3.366 0-4.998.084-.054.171-.109.24-.183 1.002 0 2.149.145 2.92.063.13-.243.255-.486.426-.674.931-.041 1.884.161 2.736 0 .086-.506.216-.653.85-.625.495.319 1.564.154 2.249.307.987.226 3.324.544 4.623.249h.731c.456-.126.746-.428 1.094-.613 1.14-.626 2.243-1.19 3.284-1.854.46-.288.931-.384 1.399-.676.553-.34 1.189-.832 1.767-1.114.181-.034.364-.078.55-.123l.301-.37c.134-.091.28-.039.425-.124.618-.356 1.271-.911 1.885-1.294.905-.56 1.795-.947 2.738-1.477.404-.233 1.259-.926 1.7-1.048.404-.11 1.178.769 1.217 1.114-1.349.84-2.821 1.538-4.194 2.401-1.305.817-2.729 1.795-4.073 2.525-.891.477-1.706.886-2.496 1.419-.315.211-.776.29-.915.676h.063c.111.085.344.072.548.064.371-.224 1.32-.064 1.826-.183.941-.226 2.225-.138 3.282-.369l1.34-.069c.293-.094.455-.378.669-.554a30.3 30.3 0 0 1 1.761-1.349c.409-.295.571-.798 1.222-.869.186.553.59.722.605 1.541-.421.27-1.107.725-1.155 1.355h.119c.175.132.434.101.67.189.755.281 1.651.45 2.431.799 1.328.599 2.736 1.389 3.89 2.215.63.461 1.977 2.015 2.8 2.041.351-.528.957-.861 1.46-1.235l.67-.675c.513-.376 1.056-.491 1.644-.801.463-.249 1.024-.62 1.584-.803 1.249-.415 2.842-.201 4.134-.185.074-.139.1-.139.125-.368l-.734-.746c.066-.421.192-1.168.306-1.658.105-.049.059-.019.123-.066.616.168.869.616 1.276.989.64.575 1.301 1.084 2.005 1.599l.486.495c.299.179.676.03 1.095.122 1.346.296 3.132.085 4.317-.183v-.185c-.886-.515-1.827-1.148-2.675-1.734-.249-.164-.52-.145-.786-.301-.195-.111-.42-.371-.613-.497-.381-.234-.754-.318-1.156-.554-.785-.465-1.589-.995-2.369-1.477-.628-.393-2.396-1.06-2.676-1.671-.295-.335-.263-1.319-.179-1.716a.75.75 0 0 1 .301-.067c.615.461 1.328.714 2.01 1.11l5.836 3.394c.475.271.995.683 1.457.983.701.469 1.456.684 2.194 1.114.523.305 1.091.849 1.698 1.051.63.204 1.559-.127 2.005-.255.846-.224 1.484-.189 2.319-.428.575-.164 1.084-.36 1.826-.369a2.65 2.65 0 0 0 .058.186c.104.15.14.471.179.675.268.097.739.074 1.097.069.399-.271 1.573-.202 2.309-.192.206.35.386.509.974.496.454-.294 2.009-.19 2.615-.183.335.599.243 1.754.243 2.709v5.12c3.85 2.447 7.998 4.619 11.859 7.089 1.048.665 2.213 1.18 3.224 1.849.279.186.584.186.734.496.215.274.385 1.39.175 1.664-.064.046-.094.043-.24.059-.176-.139-.39-.121-.608-.245l-.301-.37c-.204-.116-.428-.07-.611-.185-.327-.206-.699-.553-1.03-.736-.209-.115-.424-.071-.614-.186l-5.161-3.144c-.679-.419-1.371-.76-2.014-1.17-.251-.168-.62-.175-.849-.369-.81-.696-1.864-1.09-2.797-1.671-.445-.271-.924-.696-1.581-.734l-.066.181c-.224.37-.061.944-.058 1.415.006 1.091-.176 1.87 0 2.715.067.35-.009.923-.061 1.172l.061 2.276c0 .468-.123 1.063 0 1.359.231.559 1.779 1.645 2.31 2.036l.789.805c1.058.793 1.99 1.669 3.045 2.465.458.341.829.891 1.283 1.228.396.317.811.567 1.211.868.36.277.581.749 1.156.809l1.154-1.92c.021.024.04.039.056.063.165.146.138.489.125.802-.192.281-.153 2.005-.06 2.405.49.25.805.774 1.214 1.109.935.761 1.917 1.477 2.739 2.345.396.409.993.514 1.094 1.229-.316.392-.229 1.139-.907 1.175-.13-.134-.268-.138-.426-.243-.1-.149-.204-.288-.305-.434-.873-.694-1.663-1.427-2.554-2.099-.418-.316-.743-.848-1.341-.801-.148 1.391-.526 2.634-.541 4.132.06.017.121.039.178.061.479.341 1.655.061 2.309.061.844 0 1.764-.087 2.315-.181.399-.071 1.068.072 1.579-.065.544-.131 1.265-.502 1.764-.433v.124c-.407.423-.718.966-1.089 1.42-.5.601-1.201 1.126-1.824 1.602l-.611.675c-1.295.973-2.553 2.063-3.895 2.954-.656.453-1.296.896-1.945 1.301-.404.25-.965.276-1.031.863 2.029 1.394 2.574 5.036 3.647 7.466.224.504.729.806 1.031 1.23.228.313.377.611.611.925.088.123.263.142.363.25.236.235.319.613.546.86.466.495.861.985 1.284 1.544.049.067.179.061.236.12.285.3.379.761.67 1.046-.01.813-.277 1.311-.67 1.734-.103-.046-.058-.014-.118-.069-.377-.139-.511-.501-.73-.801-.189-.254-1.401-1.58-1.645-1.668v.06c-.17.303 0 .641-.058.929-.071.33-.275.618-.366.866v.304c-.137.31-.449.677-.61.99-.591 1.165-1.045 2.24-1.764 3.269-.581.834-2.674 2.291-2.735 3.389.381.435.549 1.111.794 1.665.37.864 1.37 1.893 1.399 2.961-.42.334-.522.924-1.221.981-.58-.989-1.224-2.05-1.764-3.079-.257-.496-.566-1.509-1.032-1.725-.175-.093-.876.296-1.095.433-.947.591-2.115 1.039-3.282 1.416-.489.153-1.153-.012-1.403.375-.266.411-.011 2.014-.12 2.65-1.127.486-3.426.123-4.744.123-.6 0-1.819-.114-2.005.249-.225.431.57 2.09.728 2.458.103.245.025.408.123.681.066.186.289.45.364.624.278.611.256 1.185.486 1.844.192.553.534 1.184.727 1.729.175.463.199.836.368 1.295.157.401.851 1.944.733 2.286-.136.462-1.058.974-1.585 1.043-.684-1.205-.981-2.646-1.46-4.072-.306-.924-.77-2.07-1.151-2.953-.173-.394-.095-.704-.243-1.112-.064-.185-.301-.394-.37-.56v-.425c-.212-.662-.586-1.409-.85-2.04-.114-.281-.091-.549-.239-.796-.15-.105-.294-.214-.43-.311l-2.498.063c-.394-.015-1-.095-1.396 0-.828.189-2.161-.036-2.74.06-.649.114-1.161-.115-1.756 0-.076.134-.103.134-.126.365.173.176.252.47.428.62.745.651 1.39 1.255 2.009 2.04l.489.366c.144.215.156.466.303.681l.364.366c.278.516.605 1.519.302 2.219-.169.382-.63.606-.854.923-.361.534-.659 1.086-1.089 1.541-.286.304-.594.464-.678.99-.034.256.305 1.62.37 1.911v.61c.14.615.286 1.405.424 2.044v.683c.188.686.514 1.751.369 2.586-.377.238-1.351 1.095-1.831.739-.334-.413-.153-1.029-.296-1.666-.256-1.084-.395-2.321-.674-3.395-.186-.735.182-1.808-.606-1.909-.465.44-1.017.632-1.585.988-2.204 1.361-4.845 2.107-8.024 2.527-.148.027-.328-.114-.541-.058-.564.13-1.509-.056-2.194.124-.191.051-.366.12-.67.116-.667-.002-1.235-.116-1.83 0-.017.063-.042.125-.059.192-.176.286-.021.838-.06 1.104-.21 1.444.161 3.212-.12 4.384-.471.145-.981.125-1.71.125-.139-.235-.186-.38-.179-.806-.124-.26.059-1.129 0-1.605-.144-1.074.201-2.874-.184-3.886-.944-.331-2.241-.484-3.165-.731-.517-.15-.926-.016-1.399-.194-.965-.346-2.056-.543-3.037-.915-.739-.29-1.421-.705-2.191-.99s-1.409-.667-2.066-.984c-.187-.096-.775-.376-.851-.314-.585.237-.381 1.298-.553 1.97-.347 1.418-.431 3.116-.727 4.564-.13.649-.106 1.498-.364 2.163-.153.063-.195.097-.428.11-.447-.279-1.091-.059-1.339-.54-.205-.34.172-2.096.306-2.592.201-.77.063-1.434.24-2.221.338-1.444.78-3.771.493-5.18-.731-.204-1.736-1.424-2.131-2.035-.051-.081-.169-.054-.244-.121a30.733 30.733 0 0 1-.67-.738l-.424-.986c-1.259-1.68-2.059-3.743-3.47-5.244-1.074-.002-1.925-.006-2.855.06" fill="#c69214"/><path d="M78.557 21.144c-.411 1.406-1.676 2.961-1.822 4.564.534.584 1.33 2.368 2.125 2.525v-.123c.286-.401-.012-1.185.064-1.664a6.03 6.03 0 0 0-.064-2.098v-1.232a15.93 15.93 0 0 0-.119-1.973h-.184zm4.107 4.699c-.28-.019-.54-.002-.695.107-.397.146-.564.605-.791.924-.466.657-1.422 1.255-1.463 2.281.764.438 1.665.571 2.561.924.665.275 1.435.674 2.184.811.435-.469 1.534-1.24 1.707-1.852.014-.059.05-.024 0-.061-.078-.151.027-.046-.123-.129-.344-.212-.996.026-1.394 0-.646-.03-1.498.066-2.312.066.019-.128.012-.121.057-.187.257-.227.632-.227.979-.371l2.248-1.047c.422-.185 1.18-.303 1.338-.74-.059-.015-.121-.043-.186-.062-.502-.363-2.713-.473-3.285-.557l-.822-.107zm-12.257 1.029a1.137 1.137 0 0 0-.057.369c.154.181.225.43.363.621.308.434.757.816 1.092 1.232.376.464.627 1.002.979 1.48.354.496 1.039 1.031 1.213 1.668.101.384-.153.581-.119.928.084.886-.231 2.244-.246 3.324a.288.288 0 0 0 .061.064h.123c.485-.774 1.126-1.53 1.641-2.277.593-.86 1.037-1.771 1.584-2.656.405-.665 1.18-1.304 1.215-2.285-.524-.109-1.049-.416-1.519-.613-.801-.335-1.612-.366-2.436-.678-1.174-.45-2.524-.983-3.893-1.178zm9.008 3.15c-.078.141-.103.141-.129.371-.209.33.007 1.114 0 1.477-.011.851-.071 1.997.129 2.9.574.35 1.205.833 1.826 1.113l1.522.609c.644.334 1.379.87 2.246.924l.064-.184c-.616-.432-1.186-1.573-1.644-2.217l-.365-.307-1.703-2.467-.609-.554c-.394-.549-.735-1.341-1.336-1.666zM66.643 41.986c-.269.159-.956.05-1.34.055l-2.613.131c-1.653.299-3.855.18-5.6.619h-.975c-.627.091-1.43.001-1.943.117h-1.037a14.19 14.19 0 0 1-2.613-.242l-.365.061c-.422-.079-.969-.201-1.397-.127-.076.144-.104.146-.125.373-.322.541.083 1.72-.061 2.402-.071.373-.108 1.019-.057 1.603l.057.428c-.14.735-.057 1.762-.057 2.59 0 1.206-.088 2.517.057 3.395.114.663-.209 1.639-.057 2.408l.057 16.893v1.299c0 1.415-.207 3.21.061 4.373l-.061 1.484c.256 1.224-.211 3.094.061 4.313l-.061 1.482c.076.347-.064.882 0 1.228.08.395-.017.878 0 1.299l.127 2.647c.165 1.035-.185 2.06.119 2.834.731.4 1.791.326 2.678.617.499.176 1.026.468 1.459.68.255.132.477.059.729.191l1.887.986c.197.091.357.061.543.184 1.845 1.156 3.611 2.427 4.99 4.068.273.325.706.538.975.865l3.223 3.76 2.125-.187c1.377.295 3.088.2 4.504.613.975.297 2.065.571 2.978.99.282.131.568.416.85.561.429.211 2.332 1.364 2.375.182.155-.257-.017-.761.061-1.111.172-.787-.145-1.424 0-2.277.103-.641 0-1.34 0-2.156 0-.51.066-1.079 0-1.42l.061-.865c-.064-.287-.128-1.233-.061-1.535.153-.696.081-1.74.061-2.541l-.061-.42c.07-.485.194-1.564.123-2.039-.066-.426-.078-1.2-.123-1.482l.061-.432c-.03-.181-.152-.661-.121-.859.045-.325.195-1.414.121-1.795-.039-.201-.124-.678-.061-.984.066-.3.081-.936.061-1.178-.052-.516-.192-1.467-.061-2.09.134-.649-.204-1.612 0-2.529a6.19 6.19 0 0 0 0-2.092c-.091-.415.08-.853 0-1.24-.155-.676.013-1.786-.061-2.215l.061-1.416v-3.947c0-.755.079-1.36-.061-2.031-.114-.53.162-1.635.061-2.162-.049-.256.021-.816 0-1.047-.112-1.141-.228-2.559 0-3.572l-.061-.932a7.97 7.97 0 0 0-.059-1.971c-.036-.172.042-.281.059-.371a5.21 5.21 0 0 0-.059-1.543c-.126-.586.035-1.13.059-1.539.031-.615.036-1.168-.059-1.6-.142-.649.071-1.369 0-1.795-.142-.829.097-1.505-.062-2.219-.205-.909.283-2.274-.182-2.897-.106-.138-.351-.201-.488-.312l-.367-.555c-.566-.447-1.139-.757-1.764-1.164-2.229-1.479-4.908-2.839-8.57-2.84zm37.346.859c-.556.361-2.369.356-3.16.559-1.589.391-4.513.916-6.147.555l-1.641-.062c-.677-.161-1.722-.203-2.375-.365h-1.152c-.484-.109-1.479-.279-2.125-.127-.638.145-1.394.164-2.016.369-1.474.489-2.585 1.422-3.711 2.279-.394.305-1.544 1.554-1.699 2.043-.109.341.016 1.031.063 1.287l-.062.494c-.022.626.004 1.387.063 1.914.011.136-.1.492-.062.742.186 1.197-.119 2.971.063 4.066l-.062.799v4.197c.111.514-.084 1.355 0 1.848.255 1.546-.06 3.562.121 5.123.056.463-.149 1.094-.059 1.596.049.285.111.852.059 1.234-.01.075-.096.327-.059.502.093.431.067 1.513 0 1.9-.134.734-.074 1.963.059 2.598l-.059 2.281c.036.243.134.759.059 1.107-.186.899 0 2.247 0 3.326 0 1.811-.187 3.91.064 5.619.054.38-.046 1.691-.123 2.086l.123 2.344-.064.984c-.022.64.104 1.456.064 1.981-.05.584-.12 1.356 0 1.908l-.064 2.098c.391 1.866-.24 4.796.182 6.848h.182c.941-.713 2.625-.856 3.709-1.428-.004-1.281.286-2.579.305-3.936h-.061c-.379.254-2.391.401-2.92.303a3.86 3.86 0 0 1-.117-.992c.858-.405 2.405-.499 3.402-.236.399-1.78 1.148-3.508 1.887-4.936.204-.388.328-.957.668-1.17.521-.328 1.71-.717 2.617-.496.131.031.434.144.607.121 1.015-.13 2.975.356 4.018.678.646.201 1.276.107 1.881.309l4.625 1.606c1.009.373 2.409 1.171 3.709.924a1.2 1.2 0 0 0 .059-.436c.189-.284-.001-.862-.059-1.107-1.455-.326-3.445.088-4.562-1.041-.805-.826-.746-3.15-1.459-3.951-.5.829-3.083.138-3.83-.061-.414-.112-.994-.003-1.281-.248-.27-.224.01-.927.244-1.039.251-.159.944.083 1.277.117l3.465.428c-.002-1.541-.318-3.259-.609-4.691l.123-1.346c-.151-1.746.958-3.839 1.709-4.937.745-1.089 2.126-1.831 3.16-2.648.366-.295 1.599-.607 1.764-.988.386-.53.028-1.187.182-1.912.094-.457.118-1.46 0-1.965l.059-3.332-.059-1.732c.101-.472-.065-1.273 0-1.721.154-1.024.059-1.967.059-3.088 0-.364.096-.904.064-1.17-.067-.629-.176-1.648-.123-2.406.088-1.299.112-3.248 0-4.625-.091-1.114.163-2.446-.061-3.451a19.51 19.51 0 0 1 .061-.619c.04-.761.013-1.597-.061-1.975l.061-1.174c.013-1.134.027-2.735-.182-3.76h-.789zm-58.512.248c-.066.091-.066.054-.125.182-.226.279-.177.934-.18 1.42l-.062 2.1.063.795c-.071.51-.144 1.846 0 2.537.047.222-.042.477-.062.613-.03.212.046.502.063.621.055.396-.055.63-.062 1.107-.01.541.061.959 0 1.299v2.645c.015.1.096.247.063.434-.141.73-.071 1.645 0 2.213.044.376-.163 1.011-.062 1.488.08.377-.095.782 0 1.234.148.711.063 1.322.063 2.221v4.563c0 .769-.067 1.727.057 2.4l-.057 1.236c0 1.409-.112 2.97.057 4.131.042.282-.129.73-.057 1.111.185.929-.108 2.423.119 3.512L45.233 82c.07.457.136 1.787 0 2.406-.165.78.061 1.937-.057 2.465-.038.176.047.333.057.43.11.761-.055 1.573.063 2.1.06.257-.02.914-.062 1.17-.057.361.056 1.251.123 1.6.074.388-.063 1.01-.061 1.481.251.203.347.266.854.248.114-.07.32-.096.426-.174.278-.457.066-2.262.061-2.908-.004-1.555-.193-3.55.061-4.805a37.86 37.86 0 0 0 0-2.098c-.02-.089-.097-.315-.061-.494.139-.707.115-2.643 0-3.512l.061-1.353c-.135-.642-.206-1.929-.061-2.656.055-.28-.08-.854 0-1.295.157-.871 0-2.165 0-3.33 0-.323-.094-.75-.061-.988.084-.565.101-1.273.061-2.037l-.061-.551c.08-.478-.002-1.129 0-1.857V46.178c.006-.645-.025-2.923-.365-3.086h-.729zm62.465.061c-.15.104-.585.111-.789.121-.02.05-.042.089-.061.129-.355.475 0 1.323-.125 1.908-.09.46-.091 1.226-.059 1.912l.059.436c-.126.76-.172 2.226-.059 2.955.081.541-.125 1.51 0 2.16.064.34-.088 1.052.059 1.725l-.059.678c.226 1.179.096 3.258.125 4.26.019.885-.194 2.2 0 3.08.03.154-.053.321-.066.373-.099.45.018 1.235.066 1.473.058.341-.028.813-.066 1.055-.123.808-.115 3.888.066 4.688.079.37-.023.948-.066 1.225l.066.992c-.082.725-.099 1.703.059 2.525l.178.059c.186.105 1.356-.199 1.465-.424v-.869c.274-.45-.058-1.597 0-2.217.155-1.754-.1-3.337.059-4.992.097-.998 0-2.05 0-3.272 0-1.171.085-2.555-.059-3.451-.109-.63.093-1.33 0-1.789-.104-.494.004-1.272.059-1.662.067-.455-.032-2.3-.123-2.773-.118-.666.223-1.977.064-2.783-.094-.465-.006-1.108 0-1.658l-.064-3.027c-.047-.718.043-2.033-.121-2.775h-.121c-.1-.065-.296-.059-.486-.059zm3.643.189c-.132.096-.459.114-.66.119-.13.21-.191.291-.186.678-.18.422.091 1.345 0 1.975-.151 1.072-.061 2.459-.061 3.639 0 .911-.088 2.038.061 2.838.104.549-.176 1.587-.061 2.166.205 1.001.149 3.044 0 4.244-.08.667.235 2.132.121 2.779-.086.441-.174 1.364-.061 1.904.011.061.091.229.061.377-.244 1.272-.061 3.238-.061 4.928 0 2.377-.514 7.737 1.092 8.324.146.097.31.045.428-.062.291-.336.188-1.679.188-2.344l.057-5.547v-3.144l.061-.738c-.164-.921-.061-1.825-.061-2.961 0-.795-.062-1.773.061-2.469l-.061-1.047v-3.514l-.057-.93c.2-.953-.186-1.831 0-2.895.138-.788.065-2.856-.062-3.76-.044-.292.067-.949.063-1.357a70.15 70.15 0 0 0-.125-3.016 1.091 1.091 0 0 1-.244-.187h-.492zm-69.455.188c-.094.09-.107.045-.182.178-.395.474.058 1.689-.064 2.279-.142.74-.074 1.81-.057 2.658l.057.553c-.166 1.001-.117 2.212 0 3.147.112.82-.213 1.753-.057 2.65.035.208-.093.562-.062.863.065.627.049 1.612.063 2.291l-.062.729c.097.494.133 1.807 0 2.402-.056.275.094.422.119.561.026.13.013.998 0 1.172-.06 1.141-.148 3.503 0 4.436l-.057.74c.178 1.058-.116 2.513.057 3.324.131.591.037 1.615-.057 2.098-.069.338.057 1.483.057 1.986 0 1.386-.216 3.168.064 4.436l-.064 1.537c0 1.149-.078 2.021.064 2.894.064.388-.057 1.002 0 1.295.086.453.013 1.196-.064 1.541l.064.746c-.028.789-.071 1.599.064 2.275l-.064.371c-.059.699-.058 1.328.064 1.85.104.448-.243 1.478.18 1.725.26.191.744 0 .973-.059.091-.16.121-.261.121-.559.154-.255-.049-.549 0-.92.051-.381-.019-1.287.123-1.914.071-.319-.096-.62-.061-.857.109-.76.025-1.981 0-2.84V84.9c-.093-.567.173-1.129.061-1.66-.131-.647-.197-2.906-.061-3.643.11-.61-.164-1.896-.062-2.59.148-.976.101-2.334 0-3.018-.045-.339.148-.713.123-.988-.068-.733-.277-1.828-.123-2.717.068-.403.013-1.401.063-2.096l-.062-.613c.164-.897 0-1.803 0-2.959 0-1.449.126-3.435-.059-4.568v-8.94l-.062-1.478c.085-.828.184-2.198 0-3.025-.081-.361.086-.529.063-.732-.075-.601-.032-1.474-.187-2.223-.251-.096-.53-.119-.91-.119zm72.498 19.725c-.147.468-.045.923-.057 1.418v2.404l-.062 2.535.063 1.297c-.086.959-.199 2.493 0 3.445.145.679-.293 2.305.057 2.775.434.384 2.448-.344 2.805-.553 1.925-1.141 3.197-2.54 4.502-4.314.394-.54 1.198-1.01 1.213-1.916-.216-.142-.289-.405-.486-.555-.297-.229-.609-.387-.914-.617l-.486-.557-3.828-3.141c-.661-.505-1.981-2.058-2.805-2.223zm8.033 11.467c-.312.412-.742.624-1.158.934l-.605.676c-1.104.816-2.434 2.014-3.838 2.465-.859.276-1.849.286-2.793.492-.444.101-1.024-.11-1.217.246-.119.23.246.661.365.861.46.729.991 1.868 1.334 2.66.169.365.06.764.428.918.353.313 2.299.124 2.926.244.56.109 1.95-.753 2.428-1.039.885-.56 1.803-.905 2.678-1.492.804-.529 1.585-1.217 2.309-1.84.43-.373 1.142-.585 1.336-1.17.026-.021.044-.044.063-.062h-.117c-.319-.218-.842-.059-1.336-.059l-2.924-.07c-.104-.169-.153-.157-.18-.432.165-.244.026-.555.121-.924.181-.683.375-1.569.367-2.34l-.186-.068zm-14.416 1.674c-.214.155-.561.073-.85.182l-1.578.553c-1.361.609-4.112 2.315-4.809 3.514-.659 1.13-.649 2.04 0 3.143.214.375.167.706.73.742.25-.422.639-.693 1.031-.988.489-.361 1.054-.938 1.639-1.174.341-.13.634-.068.982-.182.186-.062.414-.246.602-.311.725-.226 1.541-.222 2.131-.369.205-.046.498.039.611.064l1.519.063c.435.119.88.299 1.455.307a.95.95 0 0 0 .063-.369c-.456-.6-.593-1.421-.971-2.094-.338-.603-.847-1.265-1.217-1.848-.296-.474-.634-1.197-1.34-1.232zm.115 6.652c-.148-.024-.334-.005-.543.008-.07.041-.286.073-.361.123-.302.089-.38.248-.363.674-.111.165-.057 1.053-.057 1.348.336.278.45.273 1.088.258.093-.065.246-.064.426-.064.078-.142.102-.144.121-.375.13-.185.115-1.554 0-1.723a.35.35 0 0 0-.311-.248zm2.564.555c-.101.43-.101.754 0 1.172h.182c.184.097.724-.063.971-.119.052-.091.11-.18.182-.25-.04-.106-.008-.056-.064-.125-.131-.386-.787-.659-1.269-.678zm-6.393.803c-.169.263-.362.35-.42.742-.046.093-.013.002 0 .188.188.051.206.104.484.123v.059c.017-.025.044-.04.059-.059l.18-.187c.021-.37.095-.603-.057-.807-.071-.047-.102-.047-.246-.059zm-4.487 1.544c-.365 1.726.595 4.954 1.098 6.353.175.481.296 1.307.729 1.477.892.749 3.809.107 4.621-.131l.852-.059c.991-.25 2.112-.397 3.041-.797.944-.405 1.935-1.031 2.861-1.42.466-.198.961-.253 1.394-.494.684-.371 1.412-.865 2.252-1.111.412-.12 1.156-.129 1.461-.059.554.121.873-.17 1.4 0 1.125.347 2.216.796 3.103 1.42.397.276.625.824 1.15.986v-.373c-.192-.323-.164-.662-.297-1.051-.094-.244-.33-.563-.432-.799-.421-1-.68-2.204-1.457-2.84-.45-.36-1.485-.428-2.131-.609-2.756-.815-7.427.036-9.672.797l-.848.059-2.193.441c-.351.076-.827-.053-1.09-.064-1.435-.061-3.198-.56-4.439-1.111-.454-.204-.797-.564-1.404-.615zm18.068 5.545c-.23.138-.562.031-.854.121-.659.219-2.35.709-2.553 1.295-.181.293-.026.843-.066 1.119-.18 1.286-.101 2.852 0 4.248.321.192.794.192 1.342.184.241-.162.628-.125.91-.238.407-.183.813-.592 1.158-.873 1.205-.98 1.421-3.943.73-5.674-.169-.061-.472-.109-.668-.182zm2.857.936c-.103.584.085 1.157 0 1.713-.289 1.755-.744 3.1-1.584 4.262-.207.281-.611.473-.91.678-.341.246-.603.612-1.031.797-1.099.472-2.274.453-3.59.68-.654-.237-1.599.078-2.496-.123a5.074 5.074 0 0 0-1.34-.123 7.11 7.11 0 0 1-1.518-.117h-1.16c-.86-.198-1.85-.249-2.674-.436l-.912-.064c-1.819-.494-3.744-1.21-5.414-1.902-.416-.189-.78-.158-1.215-.32l-1.275-.482-.791-.066c-1.741-.552-4.283-1.345-6.564-.861-.132.205-.383.402-.494.617l-.115.609c-.39.91-.608 1.909-.973 2.906-.291.769-.737 1.798-.551 2.828h.303c.484.285 1.682.158 2.314.305l4.678 1.051c3.218 1.086 6.574 2.041 9.857 3.082h.543c2.114.586 5.061 1.074 7.488.682.261-.037.672.143 1.031.064 1.185-.266 2.606.014 3.647-.373.57-.207 1.274-.419 1.766-.736l.244-.254c.689-.326 1.358-.554 1.945-.977.071-.055.066-.199.123-.26.112-.093.296-.092.424-.182l.975-.98c.246-.189.554-.367.727-.621.091-.129.076-.309.186-.428.078-.086.239-.091.303-.184.022-.121.039-.245.063-.369.1-.086.202-.165.301-.25.245-.326.372-.698.605-1.049a8.32 8.32 0 0 0 .246-.184c.024-.12.04-.245.063-.369.089-.156.332-.332.43-.488l.178-.562c.254-.39 1.063-1.465.91-2.148-.351-1.618-1.14-2.586-2.131-3.527-.695-.659-1.331-1.801-2.609-1.836zm-9.186 1.656c-.218.246-.694.18-.848.496-.19.243-.125.803-.125 1.236 0 .849-.195 1.875.059 2.643.382.058.956.192 1.217.063.176-.064.112-.013.184-.187.185-.293.022-.815.063-1.106.124-.86.123-2.164-.062-3.088a1.607 1.607 0 0 0-.486-.057zm-3.527 1.289c-.455.28-1.124.022-1.152.748-.243.369-.039 1.487 0 1.908.175.1.348.129.668.123.19.136.647.047.846 0 .025-.059.046-.122.064-.184.241-.384.078-2.178 0-2.537h-.119c-.08-.049-.153-.049-.307-.059zm-61.674.316c-.367.228-1.472.197-1.947.309-.187.035-.531-.082-.609-.068-.061.069-.119.13-.182.191-.251.066-.556-.111-.912 0-.693.206-1.737.318-2.435.617-.51.21-1.326.547-1.639.982-.819 1.131-1.121 3.133-1.52 4.627l-.062.922c-.279 1.058-.625 2.56-.365 3.826.329.112.91.061 1.34.061.224-.144.544-.048.852-.123 1.101-.263 2.464-.112 3.59-.439 1.244-.341 3.381-.828 4.684-.672.439.056.813-.089 1.211-.057a7.65 7.65 0 0 1 1.582.307c2.371.729 5.426 2.845 6.693 4.682.291.418.801.742 1.094 1.17.964 1.455 1.628 3.068 2.557 4.564.185.311.525.572.729.867.349.501.613.997.973 1.477l.488.43a4.95 4.95 0 0 0 .063.252c.066.071.215.058.303.125l.545.609c.222.181.434.266.666.436.567.419 1.098 1.02 1.705 1.418a13.6 13.6 0 0 1 .611.188l2.428 1.352c.279.15.566.105.854.246.382.194.925.468 1.34.619l.486.063c4.293 1.796 11.302 2.707 16.363 1.291.813-.225 1.614-.23 2.369-.551 1.841-.779 3.203-1.853 4.686-2.963l1.336-1.357c.185-.132.453-.204.609-.371.021-.074.039-.158.061-.244.28-.403.691-.882 1.031-1.234.026-1.609-1.195-2.35-2.066-3.076-.324-.275-.555-.743-.912-.99-.165-.109-.343-.11-.484-.244-.192-.19-1.369-1.19-1.519-1.06-.845.246-1.329 1.49-2.008 1.977-1.41.995-2.817 1.743-4.744 2.281h-.668c-.909.198-2.206.126-3.162.123-4.524-.05-8.157-1.52-10.949-3.512-2.734-1.961-4.259-4.117-6.201-6.859l-.611-.611-1.701-2.279-.49-.369c-3.354-4.489-8.521-8.923-16.053-8.939zm40.445 9.432c-.089.066-.243.064-.424.064-.034.138-.045.159-.121.236.846 2.14 2.684 3.478 4.496 4.637.546.339 1.035.895 1.83.982.016-.028.04-.044.059-.062.011-1.096.177-2.182.547-2.965.257-.535.973-.824 1.035-1.533-.02-.029-.04-.046-.059-.066-.866-.046-1.509-.371-2.191-.551-.65-.176-1.161-.081-1.826-.256-1.065-.256-2.135-.461-3.346-.486zm-19.16 1.598c-.144.101-.616.103-.791.125-.058.12-.078.111-.125.252.216.27.25.665.611.793.424.264 2.459-.007 3.281.191.884.21 2.142.386 2.92.736.486.215 1.01.64 1.643.68.183-.187.315-.211.365-.553-.386-.229-.812-.302-1.275-.496-.325-.134-.728-.468-1.031-.615-.877-.418-1.869-.666-2.857-.92-.961-.26-1.957-.09-2.74-.193zm16.67.742c-.373.235-.889.061-1.338.252-.315.126-1.35.674-1.459.98h.059c.201.326.574.558 1.094.561.455-.426 1.969-.888 2.674-1.049.037-.105.054-.197.066-.373-.139-.097-.128-.175-.307-.242-.151-.106-.613-.068-.789-.129zm13.379.061c-.595.349-1.46-.09-1.758.559-.123.162-.091.176-.068.367l3.592.066c.369.049.817-.01.971-.182-.02-.021-.039-.05-.064-.068-.434-.021-.7-.257-1.025-.375-.564-.19-1.04-.236-1.647-.367zm-50.115.068c-.541.324-1.54-.007-2.008.369-.053.075-.047.106-.064.246h.121c.264.183.402.002.732.059.53.103 3.148.18 3.469-.059.017-.022.037-.04.059-.064-.599-.323-1.409-.541-2.309-.551zm-5.051.551c-.575.624-.383 1.471-.365 2.652.954.498 2.544-.003 3.832.248.477.09 1.732.115 2.248 0 .175-.044.409.045.486.059.225.039 1.627-.024 1.824-.059 1.114-.19 2.337.116 3.225-.061.036-.095.042-.104.063-.252-.233-.16-.375-.442-.67-.547-.521-.198-1.918-.024-2.557 0-.958.02-1.842-.07-2.914-.07-.227 0-.531-.077-.672-.055-.914.125-2.555.216-3.709 0l-.061-.187c-.237-.393-.012-1.267-.184-1.664l-.547-.064zm-3.176.373c-.538 0-1.436.155-1.568.248-.119.081-.116.213-.123.432.366.39.651.857.973 1.295.271.362.72.598 1.039.922h.18c.111-.921.153-2.124 0-2.838h-.125c-.058-.043-.196-.059-.375-.059zm30.605 1.113c-.192.123-.741.15-.973.18-.041.111-.012.055-.064.123.111.464.565 1.094.975 1.236.345.108.7-.039.977 0 .757.108 2.141.145 2.797-.125.017-.061.039-.124.059-.187h-.059c-.221-.586-1.996-1.033-2.736-1.172-.355-.055-.642.06-.975-.055zm8.389.055c-.171.153-.457.124-.664.248-.441.272-1.14.864-1.219 1.481 1.112.744 2.716 1.298 4.385.613.43-.172.847-.117.912-.672-.237-.161-.331-.451-.549-.623-.812-.625-1.367-1.047-2.865-1.047zm8.281 0c-.546.397-2.074.339-2.312.986-.1.147-.037.262 0 .434 1.491.375 2.851.126 4.441.121.034-.091.04-.095.057-.244-.546-.53-1.16-1.297-2.186-1.297zm8.881.623c-.096.064-.256.061-.428.061-.065.129-.088.109-.125.303-.039.095-.006.015 0 .188l.184.063c.345.216 1.263.11 1.643.063.295-.046.571.095.791.119.465.059 1.311-.059 1.887-.059.948 0 2.254-.156 3.219.059.526.123.917-.103 1.34 0 .221.056.544-.036.67-.059.325-.076 1.625.045 1.705.059.567.123 1.593-.112 2.131 0 .594.123 1.287-.054 1.76-.119.603-.082 1.475.33 1.701-.312-.037-.046-.08-.133-.119-.18-.331-.214-.99-.083-1.459-.123-.686-.06-2.012.1-3.039 0-.698-.078-2.055.061-2.801-.061l-.549.061c-.944-.134-1.609 0-2.615 0-2.139 0-3.933.017-5.894-.061zm-52.719 2.695a7 7 0 0 0-1.115.137.78.78 0 0 0-.059.244l3.711 3.949c.545.555 1.095 1.046 1.582 1.662l.361.246c.367.567.641 1.111 1.037 1.668.278.388.701.684.971 1.103a.209.209 0 0 0 .061-.055c.292-.272.183-.772.305-1.238.222-.84.156-2.131.303-3.08.056-.346.173-.792.182-1.234h.127c.072-.058.146-.057.299-.057.188.259.477.36.734.553s.411.557.666.738c.344.256.672.508.971.807.304.293.464.712.977.795-.008-1.566-1.689-3.528-2.373-4.562-.366-.551-.928-1.369-1.582-1.598-.351-.124-.656.022-.971 0a33.478 33.478 0 0 0-2.127-.062c-.866 0-1.721.07-2.315 0-.206.025-.406.041-.609.063a4.985 4.985 0 0 0-1.135-.078zm42.438.078c-.494.295-1.403-.038-1.949.18-.136.051-.351.294-.484.375-.931.487-2.098.761-3.16.924-.859.129-2.956-.411-3.533-.678-.355-.161-.797-.553-1.156-.68h-2.07c-.016.021-.037.039-.057.059v.123c3.009 1.936 7.868 4.002 12.654 2.84.901-.214 1.589-.126 2.307-.498.226-.114.734-.388.979-.551l.547-.615c.436-.329 1.112-.585 1.275-1.176h.059a.18.18 0 0 0-.059-.055c-.332-.305-1.272-.198-1.891-.189-1.25.01-2.341.064-3.461-.059z" fill="#fff"/><path d="M54.47 47.351c.804-.006 1.494-.066 2.13.055.373.074.851-.076 1.216 0 .545.127 1.169-.038 1.58.127.296.685.065 2.029.059 2.899l.063 5.551c-.113.078-.106.119-.245.184-.383.326-1.553-.06-2.251.064-1.217.21-3.529.306-4.743 0v-5.92c.162-.326-.063-2.034.061-2.721l.181-.056c.554-.338 1.407.157 1.949-.183" fill="#c69214"/><path d="M57.332 48.826c-.448.281-2.474.042-3.226.187-.495.851-.284 4.403-.06 5.544.678.259 2.899.255 3.831.069.051-.159.064-.382.061-.621-.153-.386.135-1.109.058-1.599-.139-.906-.051-2.281-.119-3.333-.126-.081-.139-.124-.305-.186-.072-.044-.103-.044-.24-.061" fill="#fff"/><path d="m82.553 5.98-.008.066-1.451 9.85 1.703.254.652-4.426 5.578.844.193-1.283-5.58-.854.43-2.898 6.443.969.188-1.289-8.148-1.232zm-10.894.246c-1.816.145-3.346.832-4.311 1.957-.834.988-1.225 2.292-1.119 3.758a4.79 4.79 0 0 0 1.627 3.289c1.149 1.002 2.718 1.466 4.537 1.332 3.466-.251 5.645-2.501 5.428-5.576-.222-3.101-2.695-5.005-6.162-4.76zm.107 1.254c1.203-.098 2.288.231 3.057.902.73.644 1.142 1.564 1.228 2.736.084 1.152-.197 2.114-.822 2.846-.666.779-1.708 1.258-2.939 1.348-1.216.089-2.312-.236-3.09-.912-.71-.623-1.126-1.513-1.201-2.56-.084-1.155.144-2.161.639-2.826.62-.871 1.786-1.438 3.129-1.533zm-17.764 2.941-.121.059-1.703.797-.928 3.666-.449 2.055h-.004l-1.728-.955-3.41-1.721-1.904.889 6.668 3.269 1.746 3.836 1.563-.725-1.746-3.842 2.018-7.328zm52.951 1.771c-.792-.026-1.54.105-2.209.396-1.138.492-1.983 1.421-2.508 2.748-.266.68-.8 2.452.037 4.244.532 1.157 1.658 2.089 3.346 2.775 1.388.56 3.997 1.147 5.9-1.227l.039-.057-1.451-.971-.035.049c-.565.764-1.845 1.913-4.121.986-1.028-.409-1.838-1.133-2.211-1.971-.535-1.166-.075-2.611.15-3.176.424-1.076 1.76-3.431 5.061-2.096 1.948.783 2.178 2.127 2.178 3.072v.051l1.686.326.004-.078c.081-1.971-1.156-3.622-3.398-4.529-.84-.336-1.675-.519-2.467-.545zm-66.078 4.373-.047.041-7.83 5.602.744 1.063 3.219-2.303 4.961 7.125 1.408-1.01-4.963-7.131 3.254-2.32-.749-1.067zm80.395 2.848-.041.021-9.643 5.147 1.459 1.105 2.844-1.598 3.953 3.008c-.013.084-.66 3.271-.66 3.271l1.553 1.186 1.967-11.047-1.432-1.094zm-.059 1.541c-.251.75-.392 1.39-.516 2.01l-.6 2.869-3.106-2.363 2.701-1.48a9.055 9.055 0 0 0 1.519-1.035zM29.403 25.32l-.049.043-1.232 1.121 6.59 7.475 1.285-1.162-6.594-7.477zm100.69 1.307-.047.045-7.397 6.563 5.525 6.404.973-.861-4.289-4.965 6.479-5.748-1.244-1.437zm-62.242 2.469c-.407.266-1.203.119-1.703.246-1.066.267-2.297.375-3.344.617h-.73c-2.409.579-4.991.628-7.299 1.174-.862.207-1.614.103-2.434.305l-1.273.064-1.645.309c-.529.148-1.045-.057-1.518.117-.596.229-.963 1.007-1.398 1.426.009.159.027.21.059.303 1.354 0 2.529-.182 3.529-.484h.664c1.501-.367 3.256-.42 4.625-.744.511-.122.834.001 1.338-.121 1.904-.47 4.269-.505 6.025-.93 1.4-.335 3.142-.255 4.619-.617.47-.117.976.031 1.334-.184l.189-.057c.004-.695-.443-1.348-1.039-1.424zm20.863.984-1.031.992c.007.156.008.23.061.305.454.358 1.3.136 1.951.313.868.234 1.974.345 2.853.555l1.398.123c3.831.926 7.871.96 11.742 1.914h.543c.859.205 1.894.343 2.736.549.749.188 1.504.018 2.072.369a.91.91 0 0 0 .303-.059c-.032-.544-.32-.558-.549-.859-.241-.33-.566-.843-.973-.988h-.605c-.606-.149-1.41-.294-2.012-.436-.567-.135-.968.007-1.516-.123-2-.464-4.602-.615-6.756-1.168h-.666c-.662-.159-1.395-.122-2.125-.311-.985-.246-2.257-.366-3.228-.623h-.605c-1.069-.247-2.351-.571-3.594-.553zm-63.635 1.393c-1.277-.101-2.642.77-3.836 2.508-.899 1.295-1.294 2.592-1.107 3.652.116.63.433 1.155.926 1.504 1.641 1.155 3.382-.563 4.533-1.703 1.759-1.725 2.639-2.594 3.541-1.949a1.17 1.17 0 0 1 .49.793c.119.675-.189 1.608-.846 2.56-.326.471-1.47 1.992-2.82 1.934a2.22 2.22 0 0 1-.971-.305l-.055-.031-.836 1.43.076.047c.23.14.578.354 1.156.439 1.602.206 3.09-.711 4.539-2.818 1.519-2.209 1.575-4.464.139-5.48-1.81-1.279-3.715.647-5.238 2.195-1.613 1.624-2.196 1.927-2.836 1.48a1.038 1.038 0 0 1-.428-.682c-.146-.843.531-1.944.828-2.383 1.36-1.972 2.432-1.699 3.123-1.33l.051.031.857-1.432-.049-.033a2.67 2.67 0 0 0-1.238-.428zm113.02 4.713-.051.033-8.135 5.574.965 1.453 8.188-5.613-.967-1.447zm-120.36 5.901c-.677-.001-1.359.281-1.906.82-.586.581-.958 1.229-1.391 2.027l-2.57 4.793 8.684 4.793.826-1.533-3.785-2.088c.056-.101.844-1.578.844-1.578.634-1.169.985-1.595 3.684-2.055l2.559-.432 1.031-1.924-3.467.602c-1.386.246-2.044.664-2.531 1.057.284-.733.426-1.405.426-1.982 0-.998-.409-1.753-1.219-2.19a2.423 2.423 0 0 0-1.184-.311zm123.92.172-.057.025-8.769 4.494.777 1.555 3.941-2.018c.054.117 2.545 5.105 2.545 5.105l1.15-.588-2.549-5.102a688.5 688.5 0 0 0 2.586-1.326c.06.112 2.939 5.895 2.939 5.895l1.152-.596-3.717-7.445zM17.309 43.82a1.26 1.26 0 0 1 .768.152c.438.235.713.757.713 1.291 0 .079-.006.159-.018.236-.108.685-.36 1.154-.705 1.793l-1.598 2.978c-.104-.053-2.607-1.434-2.711-1.49.055-.119 1.775-3.322 1.775-3.322.344-.636.635-1.014 1.012-1.31a1.48 1.48 0 0 1 .764-.328zm48.898 2.543c-.153.093-.575.029-.732.121-.384-.002-.697.38-.422.738.056.145.1.136.18.25.329-.013 1.102.127 1.402-.068.38.013.455-.045.666-.182.028-.286.091-.418-.064-.619-.176-.216-.618-.258-1.029-.24zm2.68.059c-.116.085-.324.102-.432.182-.138.068-.129.113-.246.189 0 .255.006.516.066.68.362.08 1.474.125 1.764.305.174-.006.26-.028.361-.061.036-.079.071-.185.125-.244v-.553c-.095-.196-1.346-.444-1.639-.498zm-5.904.121c-.269.175-.83.024-1.094.188-.273.011-.333.038-.488.125-.03.13-.052.22-.121.309.008.309.069.39.121.613.514.111 2.322-.04 2.557-.246.061-.02.116-.04.18-.059.021-.25.106-.448 0-.617-.055-.171-.105-.181-.18-.312h-.975zm8.33.494c-.076.116-.116.107-.178.246-.103.135-.165.406-.062.559.188.52 1.127.531 1.641.738.871.35 3.307 1.34 3.769 1.977.519-.005.673-.691.365-1.049-.308-.453-1.03-.595-1.522-.863-1.119-.615-2.44-1.522-4.014-1.607zm31.209.186c-.642.465-2.434.413-3.342.619-.385.086-.941-.117-1.221.061-.49.051-.346.364-.545.678.005.281.037.337.113.494 1.839.12 3.901-.12 5.234-.736.052-.138.097-.328.182-.436v-.553c-.183-.049-.214-.097-.422-.127zm-15.82.555a1.065 1.065 0 0 1-.238.189c-.017.242-.093.406 0 .555.026.274.077.26.182.432.511.047 1.739.339 2.066.121.274-.099.271-.293.436-.494-.007-.163-.009-.279-.066-.369-.047-.139-.066-.138-.121-.244-.683-.146-1.405-.202-2.258-.189zm8.883.191c-.131.083-1.406.164-1.582.186-.106.209-.437.625-.242.918v.125c.475.101 1.761.209 2.127-.125.179-.109.136-.267.25-.43 0-.392-.053-.468-.189-.674h-.363zm-11.855.061c-.186.125-.562.047-.791.125-.59.188-1.11.548-1.701.672-.039.174-.112.396 0 .555.021.25.06.245.117.43.728.16 1.177-.23 1.826-.43.634-.195 1.384-.136 1.887-.428a2.46 2.46 0 0 0-.125-.799 4.691 4.691 0 0 0-1.213-.125zm6.506 0c-.108.171-.236.39-.365.551 0 .205.016.369.061.494.571.133 2.201.544 2.742.123.134-.117.176-.301.303-.428v-.561c-.795-.16-1.85-.187-2.74-.18zm-27.49.672c-.172.111-.788.158-.977.248-.04.144-.042.16-.123.246 0 .367.058.42.182.613.369.021.622.109.855-.059.358.006.828.028 1.092-.059.041-.185.116-.508 0-.68-.046-.146-.066-.142-.123-.244a4.31 4.31 0 0 0-.906-.066zm2.549.066a2.6 2.6 0 0 1-.363.244c-.004.256.005.512.061.68.691.179 3.124.533 3.588.301.005-.211.017-.487-.062-.613-.2-.399-2.465-.64-3.223-.611zm4.258.611c-.095.212-.133.448-.119.807a1.19 1.19 0 0 1 .184.244c.654.138 1.931.401 2.43.738.176.002.331.002.426-.062.109-.125.182-.443.061-.615-.183-.541-2.182-1.13-2.981-1.111zm-13.986.066c-.686.585-.976 2.714-1.279 3.758-.112.379-.033.562-.242.801a1.23 1.23 0 0 0 .059.371c.336.089.426.136.791.121l.365-.363.061-.369c.105-.164.353-.234.488-.377.275-.004.464.008.609.131.171.144.317.533.426.736.123.028.28.056.361.121.339-.005.363-.065.549-.184-.053-.719-.417-1.324-.605-1.914-.329-1.014-.371-2.051-.854-2.832h-.729zm46.588.305c-.394.255-1.138.067-1.643.186-1.091.254-2.421.265-3.404.494-.573.135-1.372-.165-1.764.125-.222.112-.212.372-.367.551.037.241.094.276.184.436 1.591.354 4.237-.069 5.662-.436.671-.169 1.448-.087 2.061-.311.034-.075.075-.181.125-.24.005-.264 0-.566-.062-.746l-.791-.059zm-16.605.186c-.359.237-.877-.018-1.273.057l-2.981.619c-.061.325-.039.728 0 1.049.022.025.04.039.063.066.86.153 2.037-.29 2.859-.496.384-.094.917-.05 1.275-.125.543-.11 1.324.216 1.764-.125.186-.134.172-.296.305-.492a1.106 1.106 0 0 0-.066-.367 7.616 7.616 0 0 0-1.945-.186zm3.6.25c-.064.055-.112.079-.187.121-.041.186-.086.421-.184.555.171.483.632.287 1.154.432 1.004.279 2.9.499 3.83.066.035-.081.074-.193.121-.254.005-.325-.025-.495-.121-.678h-2.674a9.57 9.57 0 0 0-1.939-.242zm-15.338.609c-.088.163-.219.581-.064.811.136.345.604.378.914.551.341.186 1.423.838 1.644 1.105.18.014.169.054.24 0 .21-.099.229-.451.123-.613-.032-.66-2.124-1.855-2.857-1.853zm-10.26.896c-.352-.001-.73.03-.994.035-.14.095-.412.084-.547.182-.139.065-.129.102-.24.184-.028 1.056.65.74 1.518.74.316 0 .896.077 1.1-.061h.121c.067-.318.076-.721-.121-.926-.155-.119-.482-.151-.835-.152zm2.35.154c-.052.032-.218.014-.303.063-.236.141-.074.786.061.924v.123l2.131.377c.261.002.555 0 .729-.07.036-.163.091-.282 0-.43 0-.365-.056-.413-.18-.615l-1.035-.248c-.476-.109-.986.007-1.402-.123zm18.984.496c-.101.076-.315.141-.43.188-.089.221-.126.443-.117.803.069.066.125.154.182.24.59.01 2.519.292 2.795.121.274-.005.335-.032.486-.121.059-.209.218-.519.066-.74-.239-.468-2.472-.343-2.982-.49zm-15.695.063c-.067.199-.069.515-.064.799.075.071.132.156.186.25.286.068 1.158.216 1.398.365.304.005.437-.029.605-.125.007-.451-.034-.671-.178-.922-.578-.136-1.278-.348-1.947-.367zm13.568.182c-.213.136-.62-.011-.914.063-.459.111-.982.289-1.34.494-.02.218-.075.298 0 .43.013.314.074.314.184.496.575.006 2.388-.278 2.555-.553.11-.093.217-.259.127-.373-.01-.347-.074-.363-.187-.557h-.424zm19.65.23c-.25-.008-.524.011-.742.016-.123.076-.475.042-.605.123-.446.042-.409.287-.607.561 0 .295.036.385.117.551.405.017 1.79.046 2.139-.184.263-.101.25-.305.42-.496-.005-.239-.014-.312-.121-.432-.123-.097-.349-.131-.6-.139zm-29.992.14c-.078.068-.21.133-.305.188-.022 1.197.678 1.072 1.461 1.412.859.384 1.733.883 2.494 1.363.195.124.391.109.545.246.341-.006.36-.07.549-.184.021-1.069-.639-1.093-1.275-1.484-.978-.591-2.099-1.394-3.469-1.541zm16.795 0c-.056.087-.113.176-.189.248v.74c1.522.396 5.353 1.05 6.387-.061v-.551c-.981-.201-2.129.05-3.164-.129a18.605 18.605 0 0 0-3.033-.248zm9.238.121c-.427.269-1.227-.086-1.582.127-.286 0-.384.036-.541.129-.011.352.012.594.117.799 1.044.209 2.026.068 3.045-.062.065-.174.17-.449.063-.615-.025-.234-.055-.233-.125-.377h-.977zm-88.326.489-.018.066-2.361 8.547 9.518 2.707 2.46-8.891-1.238-.351-1.998 7.209a812.08 812.08 0 0 0-3.051-.869c.037-.121 1.795-6.488 1.795-6.488l-1.242-.355-1.793 6.492c-.116-.03-2.633-.751-2.748-.779l1.916-6.934-1.24-.354zm134.11.677c-.845-.029-1.733.17-2.623.615a4.797 4.797 0 0 0-2.434 2.807c-.469 1.403-.313 2.971.451 4.537 1.49 3.05 4.32 4.174 7.053 2.809 2.74-1.375 3.591-4.343 2.107-7.393-1.041-2.133-2.696-3.31-4.555-3.375zm-80.514.254c-.523.334-1.685-.126-2.187.186-.061.025-.125.044-.184.072a2.814 2.814 0 0 0-.061.916c.021.024.039.036.061.063.803.175 1.648.004 2.734 0a1.63 1.63 0 0 1 .309-.248c.036-.795-.102-.807-.672-.988zm2.188.439c-.06.049-.009.022-.119.057-.081.319-.19.715.063.988.304.249.757.12 1.215.246.925.245 1.952.328 2.926.615.26.081.965.371 1.213.248.138-.044.132-.062.238-.127.011-.3.014-.525-.121-.674-.169-.475-.846-.448-1.33-.619a15.53 15.53 0 0 0-4.084-.734zm16.984.414c-.225-.01-.474.004-.678.012-.235.157-.678.096-.914.248-.29.106-.216.27-.365.492.005.235.027.388.059.555.263.025 2.098-.298 2.381-.492h.115c.044-.274.115-.492-.059-.68-.112-.091-.314-.125-.539-.135zm2.061.012c-.116.18-.193.342-.244.619.088.083.177.197.244.309 1.25.111 2.346.475 3.711.553.638.038 2.07.131 1.518-.74-.016-.055-.041-.121-.061-.184-1.594-.334-3.486-.58-5.168-.557zm16.662 0c-.14.094-.416.089-.545.189-.041.013-.079.037-.119.059-.013.383.007.701.119.924.311.011.819.119 1.092-.061.536.01.981-.001 1.281-.184.014-.261.091-.467 0-.619l-.066-.186c-.509-.111-1.113-.138-1.762-.123zm-2.246.189c-.316.199-1.902.182-2.619.182-.265 0-.678-.045-.852.063h-.121c-.04.222-.076.49.063.678.096.391.909.543 1.459.43.877-.18 1.82-.062 2.555-.555.004-.417-.048-.561-.182-.797h-.303zm-7.055.119c-.237.153-.881.079-1.096.186-.006.379.05.617.121.863.662.136 2.895.161 3.344-.246.045-.049.079-.14.121-.184-.011-.3-.065-.357-.121-.557-.71-.071-1.677.174-2.369-.062zm52.217.188a2.74 2.74 0 0 1 .629.082c1.014.229 1.956 1.069 2.533 2.246.5 1.039.606 2.122.295 3.057s-1.006 1.68-2.066 2.205c-1.053.531-2.047.639-2.959.326-.928-.326-1.721-1.075-2.236-2.137s-.619-2.131-.303-3.086c.305-.919.967-1.647 1.922-2.127.771-.384 1.524-.579 2.185-.566zm-72.232.432c-.08.392.006.7.059 1.049 1.281.374 2.519 1.066 3.709 1.6.059-.061.111-.084.186-.121.063-.281.122-.723-.061-.928-.134-.374-.621-.458-.975-.615-.806-.361-1.832-.989-2.918-.984zm-8.941.984c-.108.076-.384.132-.484.18-.006.374.02.646.119.871.936.23 2.285.18 3.162.428.361.105.955.182 1.156 0h.119a6.03 6.03 0 0 0 0-.736 1.66 1.66 0 0 1-.24-.312c-.888-.017-1.83-.383-2.674-.365-.309.001-.854.032-1.158-.064zm-3.162.18c-.584.366-1.911-.23-2.496.129-.335.004-.359.063-.543.178-.011.336-.024.646.121.811.359.275 2.932-.014 3.461.063.326.042.536.051.734-.127h.119a3.22 3.22 0 0 0 0-.863c-.385-.13-.993-.058-1.397-.189zm41.915.307c-.055.046-.192.085-.248.129-.179.078-.174.149-.309.258 0 .318.036.472.123.67.194.041.556.12.734 0 .27-.029.257-.086.426-.186.04-.761-.115-.782-.727-.871zm-47.203.078c-.463-.004-.967.041-1.279.051-.318.21-.716.016-.971.188h-.125a4.13 4.13 0 0 0 0 .861h.061c.381.301 3.054.023 3.41-.186.053-.246.091-.493-.064-.676-.146-.183-.568-.235-1.031-.238zm28.953.107a6.208 6.208 0 0 0-.547.004c-.201.133-.571-.005-.85.068-.385.094-.833.221-1.16.363-.039.108-.014.063-.057.125-.007.354.012.6.119.813.623-.104 1.36-.297 2.014-.443.405-.091 1.022.124 1.332-.059a1.67 1.67 0 0 1 .184-.064c.041-.109.012-.055.061-.119-.019-.524-.541-.664-1.096-.687zm16.176.072c-.456.007-.922.074-1.037.182h-.115a3.06 3.06 0 0 0 0 .855c.365.053 1.236.215 1.641-.055.399-.039.371-.207.549-.432-.006-.166-.007-.28-.061-.369-.074-.135-.521-.189-.977-.182zm-13.625.061c-.069.165-.185.427-.057.617.156.466.533.355 1.039.49.721.189 2.913.629 3.459.184.064-.04.119-.083.186-.123.046-.191.115-.505 0-.678v-.121l-2.371-.066c-.69-.153-1.412-.306-2.256-.303zm-17.578.121c-.061.053-.014.027-.123.059-.001.401.047.675.123.928.674.163 2.318.832 2.799.609.035-.101.013-.056.064-.117v-.559c-.177-.404-2.154-.94-2.863-.92zm28.469.125c-.33.208-.95.047-1.4.123-.845.145-2.891-.194-3.584.186-.006.413.046.571.184.801 1.31.271 4.197.289 5.221-.314.015-.201.021-.441-.057-.551-.08-.199-.168-.175-.363-.244zM72.85 59.37c-.104.258-.183.625 0 .861.177.38.71.39 1.094.559.097.044.223.202.305.244.626.326 1.442.411 1.947.865.172-.008.259-.023.361-.061.031-.13.056-.225.123-.305-.046-.675-.479-.719-.914-.99-.666-.426-1.956-1.129-2.916-1.174zm-11.296.641c-.894.023-1.803.098-2.451.035-.286.199-1.035.079-1.217.186-.311-.004-.692-.017-.916.063-.041.22-.069.503-.059.803a1.38 1.38 0 0 1 .182.238c1.416-.016 3.583-.364 4.867-.119.249.05.65-.025.732 0 .516.014.919-.002 1.213-.182.015-.331.035-.435 0-.74-.581-.276-1.458-.306-2.352-.283zm3.81.221c-.067.079-.154.133-.244.193.006.429.101.569.186.854 1.733.386 3.472.659 4.988 1.174.672.24 1.415.191 1.943.559.189-.004.312-.024.426-.062.056-.256.095-.555-.062-.742-.355-.545-1.32-.571-2.002-.799-1.514-.494-3.483-1.179-5.234-1.176zm18.861 0c-.224.155-.66-.005-.975.063-.532.126-1.174.177-1.647.373-.045.19-.117.303-.057.428.005.279.036.343.117.5.711-.005 1.245-.119 1.826-.26 1.061-.231 2.582.019 3.527.26.41.1.865-.02 1.16.184.249-.013.278-.041.422-.127.024-.306.031-.394 0-.682-1.353-.329-2.805-.723-4.375-.738zm-29.258.129c-.34.219-1.07-.04-1.522.066-.494.104-1.114.201-1.522.303-.025.129-.059.276-.121.365.023.252.07.289.121.498.414.106 2.307.167 2.734-.125.411.005.715-.052.975-.133.005-.361-.008-.643-.119-.855-.185-.036-.368-.079-.547-.119zm46.773 0c-.38.242-2.279.209-2.982.369-.551.129-1.274-.132-1.703.123-.229.02-.222.047-.363.119-.044.108-.017.062-.062.123 0 .321.025.502.121.684 1.347.019 2.728.013 4.022-.311.433-.114 1.051.095 1.391-.133.309-.03.302-.114.488-.24 0-.437-.087-.497-.242-.734h-.668zm-7.728.611c-.236.155-.705-.009-1.027.063-.925.203-2.611.085-3.348 0a.86.86 0 0 1-.248.301c.004.292.042.348.127.504 1.525.305 4.348.465 5.596-.121.041-.106.009-.06.057-.125 0-.301-.032-.391-.119-.559-.341-.056-.752.029-1.037-.062zm-20.316 1.299c-.15.244-.359.609-.121.924.153.318.377.23.729.365.606.24 1.917.763 2.373 1.174h.367c.076-.28.213-.656 0-.922-.153-.437-.688-.495-1.098-.68-.666-.294-1.409-.781-2.25-.861zm27.855.057c-.549.359-1.338-.048-1.82.311-.353.182-.083.698.064.922.771.151 2.737-.211 3.287-.551a1.173 1.173 0 0 0-.129-.559c-.338-.141-.892-.133-1.402-.123zm-16.686.264c-.543-.02-1.157.038-1.555.047-.19.15-2.113.605-2.436.682-.088.432-.001.642.186.922 1.14-.049 1.978-.414 3.098-.494.317-.019.999-.187 1.281 0 .203.006.433.02.549-.062a.57.57 0 0 0 0-.674c-.108-.301-.58-.4-1.123-.42zm-25.219.113c-.494.305-2.444-.04-2.918.242-.062.025-.12.039-.182.063-.01.455.029.674.182.928.688.002 1.206.016 1.582-.062s.683.063.971 0c.6-.138 1.206.145 1.58-.125h.123c.115-.504.116-.694-.123-1.045h-1.215zm2.801.061c-.069.044-.059.038-.184.061-.071.295-.174.566 0 .795v.129c.494.109 1.31.055 1.764.125.982.146 2.134.316 2.98.551.692.199 1.595.13 2.066.559.19-.034.178-.055.303-.121.034-.335.13-.691-.059-.926-.371-.479-1.227-.364-1.889-.559-1.414-.42-3.371-.64-4.982-.613zm24.754 0a1.04 1.04 0 0 1-.24.182c.01 1.113.768.937 1.703 1.113 1.131.208 3.627.425 4.682.242 1.124-.194 1.607.105 2.43-.428.011-.221.025-.497-.057-.621a1.59 1.59 0 0 1-.057-.182c-1.25-.269-2.741.439-4.203.121-.435-.093-.989.085-1.58-.062-.829-.208-1.715-.365-2.678-.365zm10.584 0c-.164.119-.595.124-.85.123a1.3 1.3 0 0 1-.244.184 3.38 3.38 0 0 0 0 .803h.059c.172.133 1.58.111 1.883-.125.066-.02.126-.043.188-.066.007-.208.019-.489-.062-.611-.127-.329-.504-.329-.973-.307zm-44.401.182c-.184.123-.709.124-.973.121a.94.94 0 0 1-.244.184c-.009.45.024.637.182.871.945.065 2.495.054 3.166-.312.005-.195.01-.393-.062-.492v-.25c-.529-.136-1.358-.128-2.068-.121zm17.588 1.172c-.257-.02-.496.011-.678.121-.013.313-.06.794.117.922.354.272 1.577.349 2.07.557l2.492 1.049c.591.271 1.106.758 1.947.742.052-.324.234-.731 0-.986-.168-.42-.984-.555-1.402-.74-1.228-.544-2.527-1.012-3.766-1.482a3.021 3.021 0 0 0-.781-.182zm30.16.426c-.103.074-.333.141-.428.188-.047.22-.136.722 0 .926v.125c.895.169 1.697-.02 2.555-.125.059-.116.084-.173.186-.244.001-.41-.055-.578-.186-.801-.614-.031-1.613.022-2.127-.068zm-93.84.404-.014.1-.221 1.658 6.615 4.268a21.77 21.77 0 0 0 1.379.779 9.17 9.17 0 0 0-1.324.314l-.037.01c-.004 0-.174.066-.174.066l-7.489 2.17-.248 1.867 10.436-3.377.23-1.723-9.154-6.133zm78.145.027c-.347-.003-.669.007-.908.006-.373.236-1.107.022-1.578.127-.594.134-1.449.23-1.955.486-.02.23-.109.448 0 .619.022.235.051.228.121.365.835.157 2.074-.278 2.861-.486.574-.156 1.411.024 1.707 0 .611-.062 1.376.398 1.818.061.172-.065.142-.089.248-.186.006-.862-1.272-.984-2.314-.992zm13.084.006c-.189.134-.551.11-.734.246-.043.022-.081.04-.123.063v.678c.514.132 1.085.069 1.768.063a.943.943 0 0 1 .242-.195c.011-.506.012-.537-.18-.854-.439 0-.636.021-.973 0zm-36.743.247c-.337.213-2.181.123-2.738.123-1.4.005-2.967.264-4.074.063-.641-.12-1.311.072-1.703-.123-.362-.009-.642.008-.852.123-.016.144-.014.172-.062.246-.005.41.045.522.182.742 2.361.186 5.107.304 7.787-.064.776-.11 2.61.457 3.223.064h.121a3.7 3.7 0 0 0 .061-.742c-.056-.055-.078-.108-.119-.186-.53-.22-1.298-.087-1.824-.246zm27.613.123c-.086.063-.269.134-.365.184-.001.285-.002.615.064.803 1.11.281 3.929.603 5.045.369.759-.159 1.685.066 2.129-.246.356-.017.344-.107.547-.246-.024-.246-.038-.495-.061-.74-.019-.02-.035-.041-.059-.061-.461-.089-.949.162-1.34.121-1.954-.2-4.358.355-5.961-.184zm-24.271.184c-.46 1.332.583.908 1.398 1.109.866.218 2.716.341 3.346.801.25.007.507.001.672-.057.025-.129.059-.341.121-.437-.024-.278-.083-.315-.186-.49a14.08 14.08 0 0 0-5.352-.926zm36.988 1.232c-.314.19-.966.031-1.336.125-.826.196-1.858.3-2.68.494-.588.139-1.116-.161-1.582.123-.254.011-.281.041-.43.121 0 .464.088.599.248.871 1.665.101 3.318-.223 4.803-.568.795-.175 1.717.085 2.311-.24 0-.249-.008-.514-.064-.682-.361-.097-.785-.234-1.269-.244zm-30.297.125c-.095.155-.302.476-.119.738.156.444.672.373 1.096.555.904.392 1.909.751 2.731 1.172.21.106.395.059.549.189.441.025.841-.345.547-.74-.161-.483-.878-.613-1.334-.803-.996-.425-2.119-1.146-3.469-1.111zm14.387.543c-.349-.004-.718.005-1.121.01-.285.186-.91.028-1.162.064-.854.121-1.924.209-2.551.553-.04.104-.014.055-.062.121-.004.34.022.556.123.74.51.031 1.182-.115 1.703-.236.719-.176 2.286-.2 2.736-.125.545.086 1.428-.108 1.887 0 .556.115 2.386.22 2.674 0 .044-.022.082-.045.123-.062 0-.344-.031-.541-.123-.748-.421-.168-.891-.055-1.455-.18-.546-.123-1.284.011-1.768-.062a6.824 6.824 0 0 0-1.004-.074zm-26.49.01c-.604.388-2.041-.116-2.678.307-.224.029-.223.052-.363.127-.019.431-.073.813.244.93.117.051 1.016.056 1.34 0 .586-.116 2.793.093 3.223-.121.278-.02.294-.071.486-.125.021-.236.114-.454 0-.629-.024-.221-.049-.22-.123-.361-.773-.007-1.333-.098-2.129-.127zm3.465.127c-.057.049-.014.021-.115.059l-.184.555c.028.229.065.375.184.5.352.244 1.315-.017 1.943.123 1.025.226 2.046.363 2.978.613.38.099.717 0 .977.188a.367.367 0 0 0 .301-.437c-.002-.886-.673-.774-1.338-.986-1.081-.332-2.799-.337-3.709-.555l-1.037-.059zm-10.765.06c-.072.21-.301.531-.123.801.148.317 2.794.744 3.346.375h.121c.083-.41.051-.522 0-.93-.958-.211-2.191-.261-3.344-.246zm41.602 0c-.41.267-1.484-.116-1.887.119a1.33 1.33 0 0 0-.357.064c-.067.157-.121.252-.064.367.002.279.038.34.127.504 1.043.214 2.753.271 3.58-.254.025-.229.106-.396 0-.555-.041-.144-.063-.137-.119-.246h-1.279zm57.164.26-9.785.869.145 1.672 4.289-.383.152 1.719a7.99 7.99 0 0 1 .027.592c0 .9-.322 1.526-1.996 3.035l-1.894 1.728.182 2.094 2.56-2.352c1.034-.946 1.359-1.639 1.549-2.221.44 2.01 1.474 3.046 2.924 2.918 1.136-.101 2.042-.916 2.303-2.082.18-.779.135-1.503.057-2.373l-.453-5.217h-.059zm-80.645.972c-.08.106-.152.271-.244.371.001.434.093.504.244.74a36.14 36.14 0 0 1 4.438 1.416c.517.203 1.2.759 1.768.504.043-.198.119-.57 0-.75-.196-.559-.959-.59-1.525-.803a71.27 71.27 0 0 0-3.406-1.172c-.402-.121-.718-.312-1.273-.307zm31.447.557c-.301.188-.936-.005-1.342.066-.596.097-2.834.021-3.406.363-.3 0-.438.036-.605.125 0 .266.001.564.063.74.77.313 3.572.006 4.561-.187.427-.086 1.019.281 1.467 0 .264-.015.285-.071.479-.121.009-.239.023-.417.119-.557-.03-.276-.078-.26-.18-.43h-1.154zm48.203.244.309 3.615c.016.205.029.387.029.559 0 .403-.051.721-.154 1.033-.191.547-.657.92-1.193.969-.56.049-1.153-.3-1.404-.852-.285-.601-.33-1.105-.389-1.807l-.279-3.244c.119-.007 2.963-.263 3.082-.273zm-89.627.123c-.437.278-2.093.019-2.734.121-.604.104-1.65.092-2.434.127-.182.021-.365.037-.549.064-.235-.054-.919-.14-1.154-.125-.094.004-.247.098-.426.061-.443-.097-.851-.167-1.279-.127v.066c-.134.165-.133.473-.117.801.07.071.126.158.18.244l1.277.305c.474.112 1.322.021 1.703-.059.751-.161 1.246.124 1.826 0 .6-.123 1.252-.178 2.006-.18.862-.006 2.425-.358 2.978-.129.445.011.947.025 1.221-.117.019-.225.086-.351 0-.498v-.307c-.756-.199-1.434-.263-2.498-.248zm3.957.188c-.071.051-.285.09-.369.125-.067.155-.141.283-.064.428.03.98 1.204.541 2.014.738 1.351.336 2.722.576 3.951.992.541.18 1.273.176 1.705.49.233-.039.268-.094.422-.186.013-.255.071-.49 0-.615-.186-.556-.81-.462-1.34-.682-1.502-.627-4.28-1.314-6.318-1.291zm29.742 0c-.226.142-.662-.014-.977.061-1.335.304-2.724.064-4.125.064-.604-.005-1.474-.176-1.834.057-.124.15-.135.435 0 .619.282.594.928.258 1.647.432 1.145.285 5.313.232 6.5-.301.045-.115.015-.065.068-.131 0-.25-.005-.517-.068-.676-.347-.147-.828-.116-1.211-.125zm-9.428.061c-.252.171-.599.034-.977.121-.544.129-2.261.2-2.607.5-.23.026-.185.034-.309.119-.039.191-.145.638.057.861.022.065.043.127.066.188.814-.015 1.597-.256 2.25-.434.621-.165 1.586-.165 2.006-.246.325-.058.803.096 1.035-.059.275-.191.094-.544.057-.865-.114-.064-.161-.084-.238-.186-.521 0-.957.015-1.34 0zm16.094 1.637-.949.029c-.285.192-.774.036-1.156.123-1.269.305-2.966.343-4.379.492-.02.021-.04.041-.059.063-.009.399-.004.754.115.99.466.069 1.273-.015 1.768-.121l1.519-.064c1.051-.24 2.216-.234 3.285-.309.705-.056 1.412.432 2.07.059l.178-.555c-.065-.653-1.326-.725-2.393-.707zm-28.018.221c-.097.154-.264.45-.119.67.25.716 2.719 1.065 3.344 1.664.272-.026.258-.079.422-.182.039-.108.014-.06.061-.121v-.74c-.105-.244-.439-.237-.668-.371-.681-.407-2.004-.961-3.039-.92zm-11.676.236c-.584.37-1.837-.177-2.435.188-.059.021-.122.041-.182.061-.045.2-.127.618 0 .807.04.104.011.065.061.121.355.264 1.511.002 2.065 0 1.541-.013 2.939-.11 4.201.184.543.121 1.134-.024 1.518.24h.371c.061-.29.108-.763-.064-.98-.729-.907-4.371-.515-5.533-.619zm-9.428.068c-.061.049-.015.022-.121.061l-.121.736c.657.638 2.627.971 3.891.678.641-.146 1.035.232 1.461-.064.44.03.916-.29.666-.674-.004-.28-.038-.334-.125-.494-1.594 0-2.97.125-4.437.066-.39-.019-.763-.259-1.213-.309zm36.377.182c-.183.12-.694.071-.979.061a.916.916 0 0 1-.24.186c-.015.297-.138.652 0 .863.064.14.102.131.176.24 1.045 0 1.643-.09 2.441-.18.067-.162.087-.583.123-.674-.03-.235-.052-.235-.123-.369-.365-.074-1.05-.011-1.398-.127zm4.375 0c-.404.257-1.36-.127-1.764.127a2.39 2.39 0 0 0-.186.057c-.034.35-.172.555 0 .805.16.271 2.133.237 2.379.061h.119c.153-.638.136-.945-.549-1.049zm-7.357.061c-.407.256-1.246-.072-1.766.066-.63.16-1.767.183-2.314.49-.013.213-.052.264 0 .371.016.251.048.279.129.428.862.172 4.36-.149 4.924-.49.007-.361-.014-.573-.184-.742-.166-.138-.472-.137-.789-.123zm-17.096.436c-.066.047-.059.035-.182.059-.02.024-.04.039-.062.061-.034.172-.094.453-.121.494.061.924 1.482.751 2.256.988 1.451.44 2.933.805 4.252 1.356.665.276 1.362.28 1.889.68.287 0 .383-.034.543-.121.007-.309.016-.541-.123-.686-.209-.46-1.585-.777-2.129-.988a90.43 90.43 0 0 0-3.707-1.289l-.725-.059c-.544-.174-1.289-.307-1.891-.494zm30.838 1.109c-.757.431-1.329-.44-1.707.613-.037.12-.097.231-.059.305v.191c.165.055.327.123.488.189.192-.015.725-.109.916-.135.41-.05.884.119 1.397 0 .305-.061 1.002-.152 1.398-.055.563.127 1.365.411 1.885.189.054-.138.096-.334.186-.441a1.119 1.119 0 0 0-.066-.365c-1.4-.315-2.679-.512-4.431-.493zm-38.98.241a3.15 3.15 0 0 1-1.035.184c-.041-.004-.229-.101-.365-.061-.619.192-1.414.33-2.187.494-.282.059-.76-.019-1.098.059-.633.151-1.3-.096-1.822 0-.727.138-1.258-.347-1.885 0-.005.209-.013.444.063.563.226.556 1.297.328 1.94.486.71.18 2.166.218 2.803.066.081-.021.329-.178.424-.186.12-.015.449.111.664.061 1.13-.28 2.363-.301 3.654-.301.069-.075.155-.137.244-.193.019-.284.129-.596 0-.801-.07-.183-.142-.174-.244-.307l-1.154-.064zm32.781.064c-.206.132-.771.059-1.094.059-.772 0-1.526.046-2.125.189-.013.373-.047.786.186.926.28.166 1.005 0 1.451 0 1.188-.01 2.387.112 3.287-.066.612-.116 1.304.13 1.709-.182.154-.118.343-.504.18-.74v-.127c-.573-.11-1.391-.051-1.947.061l-1.647-.119zm-30.109.186a1.1 1.1 0 0 1-.242.186c-.006.364.009.65.123.861.666.139 1.594.125 2.125.182.951.112 2.122.411 2.988.686.434.134 1.46.455 1.758.246h.121c.044-.192.125-.57 0-.744-.293-.586-1.57-.527-2.309-.744-1.373-.386-2.937-.694-4.565-.672zm24.576 0c-.397.25-1.178-.017-1.578.063-.76.142-3.134.075-3.715.43-.27.024-.261.073-.426.18-.002.304 0 .527.121.684a1.5 1.5 0 0 1 .061.186c.966.028 2.198-.032 3.103-.246.699-.169 1.556.01 2.135-.121.639-.156 1.043.124 1.453-.186.041-.028.085-.046.129-.066.021-.228.1-.398 0-.557-.046-.14-.068-.135-.129-.244l-1.154-.121zm-16.484 1.603c-.118.239-.294.613-.061.863.252.505 1.413.505 2.004.738a68.12 68.12 0 0 1 2.375.99c.362.155.756.184 1.031.42.204 0 .365-.01.486-.053.015-.282.106-.567 0-.746-.061-.644-.835-.704-1.336-.922a24.081 24.081 0 0 0-1.522-.553c-.332-.115-.654-.039-.973-.184-.591-.274-1.076-.591-2.006-.555zm28.211.162c-.449-.001-.918.056-1.443.025-.334.21-1.255.048-1.586.182-.055.229-.305.686-.121.922.157.209.668.061.973.125.77.171 2.458-.237 3.164.186.978.051.985-.692.605-1.232-.404-.017-.787-.134-1.15-.182a3.5 3.5 0 0 0-.441-.025zm-9.66.268c-.3.191-1.014.05-1.393.125-1.205.209-3.301.121-4.443.309-.511.081-1.29-.073-1.643.182-.187.15-.168.409-.307.615.024.26.074.293.121.494 1.07.224 2.75-.12 3.836-.367h1.213c.569 0 1.092-.044 1.525-.127.138.021.282.049.422.064.459-.071 1.261-.037 1.644-.182.035-.082.073-.187.117-.252-.006-.515-.155-.593-.365-.861-.334.013-.402.02-.729 0zm4.078.063c-.244.153-.848-.025-1.1.121-.329 0-.452.061-.664.125-.043.405-.147.536 0 .863 1.025.201 2.054-.081 2.982.059a1.68 1.68 0 0 1 .361-.244.484.484 0 0 1 .123-.25c0-.39-.055-.465-.182-.674h-1.522zm-31.813.185c-.294.188-.672.001-.975.061-.619.125-2.327.133-2.797.428-.404-.001-.515.048-.732.191-.03.304-.102.571.063.797.379.293 1.244.066 1.766.061.481-.005.843-.127 1.213-.187.519-.07 1.416.069 2.012-.059.611-.125.763.173 1.273-.119.063-.16.089-.525.184-.684-.036-.264-.072-.21-.184-.365l-1.822-.123zm-9.551.061a.629.629 0 0 1-.18.123c-.015.407-.12.755.063.988.419.509 3.434.685 4.197.303.039-.108.01-.056.055-.125a2.718 2.718 0 0 0-.117-.861l-2.617-.18c-.425-.124-.799-.251-1.4-.248zm12.775 0c-.049.046-.138.084-.186.123-.209.101-.46.685-.24.988.019.059.039.12.061.178.691.147 1.382.063 2.125.25.823.214 1.764.551 2.559.803.616.198 1.369.166 1.883.496.332-.009.311-.061.484-.184.011-.317.02-.591-.121-.742-.189-.389-.986-.447-1.397-.623-.636-.26-1.383-.366-2.129-.611-.894-.301-1.874-.698-3.039-.678zm23.842 2.039c-.484.31-1.412-.102-1.887.301-.19.111-.123.314-.238.498 0 .293.031.385.117.557.817.035 1.536.12 2.377-.068.585-.125 1.186.124 1.512-.117.146-.054.142-.064.252-.125.006-.53.013-.633-.186-.994-.811 0-1.278-.013-1.947-.051zm6.084 0c-.591.366-1.933-.186-2.494.182h-.121c-.043.252-.184.6-.059.803.254.629 1.094.16 1.76.303.535.125 1.339-.069 1.949.068.43.086 1.795.268 2.305.119.301-.085.377-.283.555-.49 0-.222-.015-.424-.059-.559-1.147-.259-2.545-.366-3.836-.426zm-10.4.115c-.579.384-1.727.004-2.311.377-.064.016-.122.039-.184.059-.054.24-.16.82-.059.982v.119c.999.198 3.292-.143 3.953-.543.026-.339.126-.65-.061-.875-.219-.159-.954-.102-1.34-.119zm-11.803.119c-.196.436-.081.787.119 1.121.689.25 1.323.562 1.949.795.521.195 1.136.279 1.584.557.272-.03.257-.083.42-.189.009-.261.047-.698-.061-.865-.149-.369-.597-.329-.975-.482-.87-.373-1.868-.947-3.037-.936zm-20.678.129c-.124.224-.19.638 0 .865.224.446.85.358 1.397.492.678.169 1.903.242 2.615.061.54-.132 1.299.039 1.764-.061s1.029.059 1.34-.189c.435-.157.311-.737.121-1.039l-1.34-.066c-.873.189-1.799.237-2.855.248-.185.015-.366.039-.549.061-.829-.12-1.572-.371-2.492-.371zm10.096.129c-.227.144-.807-.024-1.037.121-.252.006-.272.035-.42.121-.025.279-.148.642 0 .867.22.434 1.45.36 2.123.301.699-.054 3.618 0 4.199.371.489.013.549-.062.789-.244.028-1.32-.95-.893-1.945-1.172-1.15-.316-2.434-.349-3.709-.365zm-46.342.148-9.812.35.055 1.746 9.887-.355-.062-1.74h-.066zm53.15.834c-.206.389-.125.77 0 1.232 1.916.531 3.781 1.232 5.473 1.908.474.186.966.159 1.34.436.204 0 .363-.019.486-.061.04-.103.011-.065.063-.125.032-1.316-.965-1.11-1.824-1.478a48.106 48.106 0 0 0-4.014-1.545c-.478-.161-.856-.385-1.523-.367zm18.861.736c-.475.301-1.322-.02-1.945.125-1.358.325-3.218.088-4.379.74v.922a1.24 1.24 0 0 1 .18.25c1.11-.014 2.219-.262 3.166-.492.49-.125 1.034-.028 1.457-.125.625-.139 1.643.105 2.068-.244.063-.025.119-.036.178-.064.013-.435.069-.64-.059-.924l-.666-.187zm2.43.188c-.081.059-.335.064-.42.119-.18.074-.118.012-.187.189-.11.233.125.724.246.924.366.006.921.144 1.098.064 1.071.041 1.632 0 1.512-.988-.672-.177-1.602-.085-2.248-.309zm3.955.242c-.236.256-.236.4-.428.682.014.254.045.286.121.434.653.149 1.63.206 2.311.365.235.058.511-.035.672.072.466-.007.4-.145.604-.383.009-.263 0-.558-.059-.734-.97-.226-2.019-.454-3.221-.436zm48.701.021-.01.064-.219 1.582 7.51 1.094-8.397 5.144-.25 1.732 9.791 1.428.229-1.65-7.506-1.096 8.393-5.137.246-1.734-9.787-1.428zm-90.549.232c-.057.055-.109.08-.182.117-.014.296-.121.616 0 .799.216.451 1.648.506 2.188.506.307 0 .838.067 1.033-.068.239-.084.475-.616.246-.928v-.117c-.841-.2-2.528-.305-3.285-.309zm7.81.076-1.547.041c-.344.228-.92.046-1.34.189-.112.037-.255.185-.363.244-.013.286-.104.572 0 .748v.123c.881.192 4.019.21 4.807-.258.013-.302.135-.652 0-.857v-.125c-.484-.096-1.022-.113-1.557-.105zm3.199.23a.594.594 0 0 1-.184.121l-.178.555c.01.263.036.288.117.439.759.168 1.727.05 2.557.24.862.201 1.828.343 2.672.555.346.091 1.526.415 1.705.307.275-.095.436-.566.365-.803-.184-.468-.896-.44-1.398-.617-1.551-.525-3.565-.857-5.656-.797zm24.148 1.664c-.319.207-1.061.024-1.455.125-.944.22-3.701.13-4.443.611h-.119c-.093.419-.146.83 0 1.176.567.214 1.448-.137 2.004-.305.855-.269 1.905-.198 2.736-.375.495-.109 1.321.211 1.705 0 .691.022.958-.615.725-1.107a4.309 4.309 0 0 0-1.152-.125zm-15.391.057c-.256.275-.346.451-.486.871.746.731 1.961.748 3.037 1.172.311.112.721.366 1.033.492.286.115 1.325.453 1.463.369h.123c.036-.11.007-.062.059-.123v-.738c-.175-.435-.965-.547-1.4-.75-1.211-.524-2.438-.863-3.828-1.293zm17.764.129a.92.92 0 0 1-.182.123c-.047.209-.132.668 0 .863.215.536 1.365.326 2.066.371 1.302.07 2.631.009 3.889.309.329.074 1.265.267 1.459.18.231-.04.221-.088.365-.18.01-.211.023-.501-.061-.617-.052-.17-.103-.185-.18-.309-.636-.034-1.239-.227-1.885-.373h-1.098c-1.364-.321-2.889-.096-4.375-.367zm-38.076.18c-.148.255-.197.476-.184.926.053.059.078.107.123.182.873.384 2.347.494 3.221.07.076-.186.219-.582.063-.807v-.115c-.929-.196-2.169-.257-3.223-.256zm7.658.188c-.615.407-2.915-.026-3.705.311-.085.21-.142.536-.186.801a.67.67 0 0 1 .121.188c.951.179 2.435.213 3.408 0h.85c.322-.078 1.477-.144 1.703 0 .708.017.731-.09 1.037-.432v-.557c-.215-.457-2.601-.251-3.228-.311zm4.625.311-.244.246c-.006.412-.005.804.121 1.049.941.07 2.293.218 3.162.494h.609c.302.093 1.103.457 1.519.186.377-.218.251-.944-.057-1.107-.392-.216-.823-.124-1.283-.258-1.103-.295-2.497-.642-3.828-.609zm-47.734.533-.064.012-9.684 1.639.268 1.641 7.484-1.262c-.166.183-6.465 7.486-6.465 7.486l.285 1.715 9.754-1.647-.27-1.639-7.488 1.264c.166-.185 6.465-7.484 6.465-7.484l-.285-1.725zm54.121.703c-.055.051-.105.077-.182.123-.061.267-.13.673-.184.98.073.078.13.164.184.25 1.741.391 3.6.827 5.107 1.475.453.205 1.03.219 1.397.502.278-.032.263-.086.426-.189.028-.236.13-.546 0-.742-.185-.515-1.126-.649-1.643-.865-1.544-.609-3.358-1.211-5.106-1.533zm16.48.428c-.424.28-.966.001-1.457.123-1.192.281-2.764.215-3.707.74-.05.207-.134.67 0 .861l.057.189c.826.036 1.991-.231 2.859-.426 1.021-.241 1.968-.033 2.801-.191 1.241-.237 2.309.35 3.402-.129.084-.183.215-.446.125-.611-.177-.34-.488-.207-.912-.309-.916-.221-2.303-.238-3.168-.248zm5.117.371c-.069.047-.055.037-.187.063-.05.123-.102.377-.18.492.007.321.06.404.121.615.672.085 1.242.278 1.943.186.09-.192.294-.621.123-.863-.121-.308-1.415-.476-1.82-.492zm-40.391.369c-.163.287-.184.825.063 1.051.454.356 1.152.2 1.822.369 1.337.329 3.308.201 4.502-.129.039-.177.111-.449 0-.611-.03-.28-.081-.266-.186-.434h-2.25c-.171.01-.415.115-.666.059-.6-.127-1.434-.049-1.947-.119-.417-.062-.847-.186-1.338-.186zm43.488.123a.88.88 0 0 1-.242.182c-.025.127-.058.342-.119.443.019.225.052.268.119.426.343.147 1.986.616 2.311.305.141-.069.133-.11.238-.187.011-.536-.104-.621-.297-.928l-2.01-.24zm-34.367.063c-.312.204-1.211.057-1.52.18-.034.074-.074.191-.121.254-.01.52.061.648.24.924 1.116.005 2.097-.058 3.045.117.221-.015.445-.038.67-.057.212.056.345.183.666.186.494.019 1.682.287 1.945.123.153-.074.141-.134.242-.252l-.059-.611a2.22 2.22 0 0 1-.24-.303c-.574-.037-1.16-.248-1.645-.381h-.611c-.881-.196-1.721-.092-2.613-.18zm6.815.74c-.065.055-.017.023-.127.061-.044.349-.127.596-.119 1.051.091.078.18.195.246.307.787.014 1.475.185 2.125.371.782.215 1.484.204 2.254.434.694.206 1.448.587 2.066.859.166.024.324.041.486.061.51.214 1.721.673 2.129.988.226-.029.225-.052.367-.121.005-.155.004-.231.057-.314.026-1.317-1.059-1.284-1.945-1.658-2.121-.899-4.685-2.001-7.539-2.037zm17.77 1.111c-.394.251-1.06.002-1.59.125-.89.194-1.722.195-2.371.553-.044.106-.011.058-.066.129-.005.38.008.695.129.916.69.109 2.295-.25 3.037-.434.526-.12 1.214-.058 1.584-.115.597-.099 1.426.17 1.826-.062.211-.05.163-.088.299-.186-.016-.146-.009-.173-.061-.248-.004-.344-.062-.366-.18-.553-.814-.049-1.674-.134-2.607-.125zm3.947.182c-.081.07-.219.138-.307.186-.011.153-.01.226-.062.309-.006.244.01.471.063.615.436.127.847.256 1.463.246.073-.075.151-.134.234-.184.045-.169.087-.316.186-.428 0-.198-.018-.321-.061-.439-.44-.119-.979-.271-1.516-.305zm2.369.432c-.097.125-.189.316-.307.43 0 .236.009.467.066.617.32.127.934.124 1.158.254.416.021.87-.321.666-.625-.026-.726-1.045-.681-1.584-.676zm-32.541.064c-.061.037-.243.075-.305.131-.362.2-.216.904-.061 1.164.396.013 1.126.131 1.34 0 .599.029.933-.594.549-1.047-.218-.261-1.077-.267-1.523-.248zm-6.935.059c-.062.047-.055.044-.18.072a.306.306 0 0 0-.062.053c-.041.109-.011.064-.059.127-.016.672.102.713.363 1.043 1.454.019 4.734.503 5.717-.117l.123-.684a1.178 1.178 0 0 1-.186-.242c-.88-.037-1.607.049-2.492 0l-.729.057c-.776-.14-1.586-.307-2.496-.309zm9.672 0c-.065.08-.154.134-.244.189-.006.293-.056.797.063.988.191.153 2.117.335 2.432.117.186-.097.294-.689.123-.92v-.123a9.34 9.34 0 0 0-2.373-.252zm3.951.125c-.125.089-.477.052-.605.127-.061.02-.125.038-.184.057-.03.14-.052.226-.121.309-.01.35.015.608.121.803.79.05 1.717.428 2.25.123.022-.229.118-.445 0-.619-.02-.653-.846-.779-1.461-.799zm2.373.738a.56.56 0 0 1-.18.123c-.046.237-.064.55-.061.861.09.089.175.198.24.314 1.706.151 3.519.977 5.051 1.541.459.169.835.119 1.275.309.326.134 1.966.931 2.188.803.061-.019.121-.046.184-.064.02-.289.132-.6 0-.795-.236-.662-1.226-.685-1.826-.996a18.55 18.55 0 0 0-2.369-.984 9.75 9.75 0 0 1-.547-.066c-1.032-.415-2.591-1.089-3.955-1.045zm19.719.889-.561.035c-.043.047-.128.082-.176.121-.179.144-.173.373-.307.566.01.336.062.362.186.551.341.024 1.208.206 1.518 0 .358-.132.299-.447.486-.744-.023-.533-.575-.561-1.147-.529zm1.939.035c-.144.181-.224.429-.369.615.007.373.059.424.188.623 1.279.055 2.474.375 3.465.553.419.08 1.112.455 1.519.188.056-.019.125-.039.188-.062.046-.234.179-.606.057-.805-.17-.278-.818-.32-1.158-.424-1.1-.361-2.545-.694-3.889-.687zm-4.869.061c-.141.091-.386.018-.609.061-1.18.264-3.094-.226-3.098 1.234a1.31 1.31 0 0 1 .24.32l4.256-.437c.309-.025.308-.073.488-.187.01-.153.011-.229.063-.303 0-.304-.034-.398-.121-.561-.392-.091-.809-.086-1.219-.127zm-32.844.434c-.062.051-.014.026-.121.066-.005.384.016.683.121.924.869.37 2.257.334 3.043.797.117.123.348-.136.484-.187.867-.27 1.016.105.912-1.043a1.11 1.11 0 0 1-.184-.248c-.932-.071-1.917.107-2.918-.115-.414-.103-.817-.193-1.338-.193zm6.934.119c-.211.144-.611-.002-.912.074a2.75 2.75 0 0 0-.916.363c0 .37.061.554.127.803.816.183 1.71.092 2.611.123.441.015.936.159 1.219-.061.141-.045.133-.062.242-.125.008-.386-.001-.702-.121-.916a10.515 10.515 0 0 0-2.25-.262zm3.285.314c-.101.222-.387.681-.184.988.179.404 1.054.194 1.52.309 1.009.239 2.093.178 3.105.484.265.091.77.46 1.09.254l.184-.062c.041-.109.011-.056.063-.121.035-1.569-.892-1.039-2.012-1.359a12.208 12.208 0 0 0-3.766-.492zm33.814.123c-.078.078-.106.088-.238.123-.026.126-.056.284-.125.371.005.335.06.457.125.68.721.159 1.737.504 2.428.184.069-.263.13-.443.125-.805a1.16 1.16 0 0 1-.18-.248c-.743-.056-1.462-.22-2.135-.305zm-26.76 1.117c-.07.066-.153.121-.242.174-.009.501.035.769.178 1.049 1.653.405 3.177 1.023 4.686 1.606.668.257 1.787.297 2.314.68.214.004.405-.014.543-.059.039-.17.094-.285 0-.432.002-.85-.813-.801-1.397-1.051-1.18-.511-2.49-.825-3.772-1.291-.681-.257-1.448-.676-2.311-.676zm15.994.461c-.159.003-.321.015-.48.023-.647.425-2.72.025-3.348.5-.062.017-.118.041-.182.059-.031.304-.131.596.063.801.338.26 2.954-.042 3.344-.133.422-.084.873.091 1.15-.115.164-.059.186-.109.309-.182.014-.204.029-.372.123-.498-.077-.407-.502-.465-.979-.455zm55.307.605-.016.059-.414 1.625 9.565 2.522.438-1.687-9.572-2.518zm-81.762.156c-.047.047-.136.088-.184.125-.061.026-.126.043-.184.066-.005.304-.048.726.121.863.538.409 2.997.137 3.773.369.286.073 1.039.168 1.154.119.211-.08.226-.17.365-.309-.01-.325-.068-.449-.123-.674-1.496-.406-3.076-.589-4.924-.561zm5.836.621a.837.837 0 0 1-.18.123c-.055.209-.2.475-.059.682v.18c.51.147 1.267.447 1.82.189.082-.209.128-.368.123-.678a1.258 1.258 0 0 1-.18-.244c-.544-.036-.95-.233-1.525-.252zm2.674.252a.48.48 0 0 1-.18.113c-.04.185-.075.635-.182.809.071.391 1.515.809 1.822.547.064-.058.123-.116.189-.178.005-.316.005-.58-.125-.74-.153-.377-1.05-.513-1.525-.551zm2.68.67a1.085 1.085 0 0 1-.186.129c-.03 1.395.849 1.21 1.826 1.537 1.105.368 2.208.872 3.225 1.291.504.209 1.075.296 1.4.684.321 0 .489-.025.666-.119.01-.37.035-.793-.117-.986-.365-.475-1.439-.811-2.072-1.053-.214-.081-.512-.286-.729-.371-.79-.3-1.488-.401-2.311-.676-.495-.171-1.064-.436-1.703-.436zm13.928 0c-.611.404-1.821-.024-2.43.373-.18.073-.169.139-.309.248 0 .186-.007.384.066.49.009.175.025.265.063.371 1.183.228 2.906-.111 3.955-.371.055-.185.117-.368.176-.555v-.428c-.424-.103-.948-.136-1.522-.129zm-22.076 1.111c-.242.16-.735.036-.975.193h-.123c-.036.097-.014.055-.059.115.064.404.271.562.424.859.836.239 2.155.303 3.164.314.364.007.869.19 1.094.059.701-.006.462-.763.244-1.109-.631-.144-1.455-.204-2.19-.375-.585-.126-1.051.118-1.58-.057zm33.262.445-1.234 5.203 3.625.883.217-.943-2.547-.621 1.014-4.258-1.074-.264zm-27.729.109c-.094.066-.253.066-.428.066-.219.235-.314.29-.299.801.073.066.126.155.18.242 2.296.064 5.333.853 7.176 1.66.358.159 2.067 1.056 2.373.867.153-.075.131-.062.18-.246.058-.114-.01-.428-.117-.555-.407-.545-1.231-.754-1.889-1.049-.177-.081-1.223-.674-1.336-.678-.457-.021-.978-.232-1.459-.367l-1.035-.129c-.955-.249-2.258-.558-3.346-.613zm-17.791.283-1.734 5.055 3.522 1.236.314-.912-2.48-.869 1.42-4.15-1.041-.359zm34.584.115c-.238.007-.476.035-.613.035-.511.37-1.529-.033-2.127.369-.235.086-.472.611-.246.924v.129c.76.154 1.991-.058 2.859-.252.339-.076.582.036.791-.127.151-.11.314-.414.186-.607-.019-.281-.025-.307-.242-.373-.132-.091-.37-.105-.607-.098zm-67.508.561c-.76.048-1.43.328-1.865.51l-5.283 2.191.65 1.613 5.269-2.184c.951-.394 1.725-.597 2.414-.309.635.273 1.17.966 1.633 2.103.396.984.467 1.808.207 2.439-.361.875-1.266 1.243-1.93 1.516l-5.266 2.191.65 1.619 5.281-2.193c1.058-.448 2.098-1.004 2.568-2.143.425-1.022.299-2.381-.371-4.049-.648-1.605-1.495-2.637-2.523-3.074a3.12 3.12 0 0 0-1.436-.232zm122.73.006-.051.094-.762 1.561 2.076 2.537c-.039.076-2.157 4.416-2.19 4.486-.084 0-3.289-.055-3.289-.055l-.859 1.766 11.061-.066.799-1.635-6.785-8.687zm-39.928.174-1.236 5.195 1.074.273 1.236-5.211-1.074-.258zm3.672.957c-1.371-.051-2.251.982-2.541 2.228-.442 1.824.472 2.998 1.703 3.297.941.233 1.442-.154 1.791-.4l-.047.676.715.182.666-2.805-2.148-.52-.205.869 1.193.295c-.47.995-1.281.898-1.514.842-.73-.176-1.406-.739-1.068-2.156.32-1.332 1.154-1.702 1.92-1.508.755.189.956.924.916 1.135l1.07.252c.114-.733-.26-1.914-1.834-2.297a3.035 3.035 0 0 0-.617-.09zm-38.801.125c-.07.05-.294.076-.365.127-.061.016-.12.038-.184.057-.005.194-.01.391.063.49v.496c.156.324 2.032.249 2.496.184.02-.015.034-.041.059-.053l.119-.684c-.08-.085-.131-.2-.178-.305-.526-.22-1.325-.246-2.01-.312zm-9.523.037-2.898 4.475 3.346 2.231.514-.789-2.441-1.627.752-1.16 2.147 1.436.516-.797-2.15-1.434.611-.936 2.336 1.561.514-.793-3.244-2.166zm12.627.275a1.14 1.14 0 0 1-.246.176c-.007.231-.029.549.063.682.017.07.038.132.057.184.526.111 2.267.328 2.617.563h.367c.058-.211.27-.575.178-.869-.165-.543-2.174-.774-3.035-.734zm39.08.381-.639 5.314 1.092.135.285-2.385 2.049.256-.289 2.383 1.094.129.639-5.303-1.094-.137-.244 2.01-2.041-.258.24-2.004-1.092-.141zm-34.93.363c-.084.196-.227.686-.064.928.171.463.846.461 1.342.617.969.297 2.212.599 2.975 1.166.255-.009.282-.035.43-.121v-.799c-.13-.142-.209-.386-.365-.498-.67-.459-3.22-1.312-4.316-1.293zm39.807.408-.01.939 1.596.019-.051 4.408 1.102.014.051-4.404 1.594.022.014-.947-4.295-.051zM58.99 103.13l-.666.664 1.113 1.156-3.107 3.072.77.803 3.105-3.08 1.117 1.164.668-.668-3-3.111zm82.414 1.17 1.93 2.418a9.14 9.14 0 0 0 1.283 1.326 14.482 14.482 0 0 0-2.047-.137l-2.889-.078 1.723-3.529zm-77.527 4.879-.67.664 1.111 1.154-3.105 3.07.768.809 3.111-3.078 1.113 1.154.668-.664-2.996-3.109zm3.133 3.957-3.518 3.994.826.742 1.572-1.785 1.539 1.387-1.574 1.781.824.756 3.51-3.994-.822-.744-1.332 1.508-1.537-1.385 1.332-1.518-.82-.742zm3.381 3.16-2.473 4.721 3.535 1.908.438-.844-2.582-1.387.637-1.219 2.277 1.219.434-.834-2.272-1.228.521-.986 2.473 1.324.438-.834-3.426-1.84zm22.314.232-3.227 2.188 2.932 4.451 3.334-2.26-.523-.787-2.432 1.654-.754-1.15 2.133-1.459-.521-.781-2.133 1.451-.621-.936 2.326-1.582-.514-.789zm-18.467 1.85-1.687 5.059 1.023.352.66-1.977 1.08.369c.771.261.724.545.494 1.238-.172.517-.22.797-.229 1.064l1.158.395.041-.135c-.199-.162-.133-.344.113-1.09.316-.936.144-1.179-.205-1.5.55 0 .988-.378 1.176-.941.145-.434.232-1.518-1.1-1.973l-2.525-.861zm-48.682.85-2.277 1.609 1.785 2.459 2.172-1.602-1.68-2.467zm62.576.061a2.48 2.48 0 0 0-.434.084l-2.477.68 1.394 5.17 2.15-.605c1.044-.286 1.274-.54 1.484-.91.199-.341.262-.776.152-1.187-.135-.505-.435-.961-1.119-1.035.18-.16.538-.479.338-1.221-.127-.469-.554-1.066-1.49-.975zm43.971.234-1.963 2.238 2.084 1.857 1.926-2.34-2.047-1.756zm-57.133.078 1.303.443c.614.207.595.651.508.92-.165.501-.493.6-1.035.41l-1.227-.42.451-1.353zm3.318.195-.281 5.34 4.002.215.047-.947-2.916-.152.068-1.385 2.572.143.053-.951-2.572-.139.055-1.123 2.801.148.051-.936-3.879-.213zm9.75.465c.302-.024.512.083.596.404.109.405-.178.662-.598.779l-1.252.348-.297-1.127 1.219-.34a1.79 1.79 0 0 1 .332-.064zm.627 1.988c.289-.006.555.113.645.453.145.519-.088.835-.609.979l-1.301.361-.377-1.385 1.352-.365a1.22 1.22 0 0 1 .291-.043zm-52.633 4.09c-.892-.04-1.641.275-2.121.955-1.155 1.655.522 3.433 1.635 4.615 1.684 1.801 2.525 2.705 1.889 3.607a1.152 1.152 0 0 1-.783.488c-.666.11-1.59-.205-2.527-.887-.455-.327-1.936-1.501-1.871-2.875.021-.435.2-.798.309-.973l.033-.049-1.404-.875-.047.086c-.141.226-.36.575-.447 1.16-.226 1.625.666 3.142 2.736 4.633 1.32.95 2.668 1.366 3.793 1.174.685-.115 1.245-.455 1.613-.98 1.279-1.829-.601-3.772-2.113-5.336-1.593-1.65-1.887-2.241-1.432-2.889.752-1.074 2.498.066 3.016.438 1.93 1.39 1.653 2.475 1.279 3.176l-.031.057 1.402.879.039-.049c1.017-1.597.27-3.534-1.996-5.17-1.045-.748-2.079-1.145-2.971-1.186zm85.863.615c-1.109.007-2.268.376-3.357 1.082-1.472.95-2.455 2.262-2.76 3.678-.28 1.273.001 2.619.799 3.885a4.75 4.75 0 0 0 3.01 2.129c1.438.33 2.975-.011 4.445-.969 1.46-.935 2.436-2.254 2.74-3.691.282-1.26.025-2.547-.721-3.742-.752-1.192-1.813-1.978-3.068-2.258a4.84 4.84 0 0 0-1.088-.113zm-.42 1.4c.251-.001.498.025.74.078.945.212 1.75.835 2.379 1.838.634 1 .843 1.976.643 2.934-.22.982-.884 1.876-1.877 2.516-1.981 1.282-4.106.865-5.314-1.041-.614-.979-.895-1.967-.787-2.783.126-1.054.852-2.097 1.953-2.811.735-.481 1.512-.727 2.264-.73zm-73.168 5.523-.033.019-8.861 6.432 1.59.889 2.602-1.975 4.316 2.438c-.008.077-.215 3.328-.215 3.328l1.691.961.477-11.211-1.566-.881zm62.736.613c-.819-.035-1.852.183-3.137.896-1.69.936-2.759 2.133-3.164 3.549-.51 1.77.17 3.306.48 3.898.651 1.186 1.627 2.017 2.824 2.365 1.45.431 3.18.144 4.871-.791 2.275-1.268 3.194-3.119 3.498-3.728l.018-.031-1.789-3.289-4.416 2.455.621 1.139 2.998-1.67.826 1.519a6.39 6.39 0 0 1-2.437 2.496c-1.12.623-2.326.846-3.301.596-.925-.243-1.657-.891-2.246-1.975-.311-.577-.781-1.719-.424-2.963.281-.984 1.035-1.811 2.228-2.482 2.27-1.262 3.405-.221 3.885.232l.037.031.051-.025 1.106-1.016-.059-.053c-.337-.336-1.106-1.096-2.471-1.154zm-62.582.914a16.317 16.317 0 0 0-.25 2.066l-.209 2.92a611.83 611.83 0 0 1-3.389-1.914c.148-.114 2.473-1.832 2.473-1.832a9.17 9.17 0 0 0 1.375-1.24zm7.143 2.477-.018.064-2.844 9.537 1.566.48 2.197-7.361 3.758 9.193 1.647.496 2.863-9.586-1.565-.484-2.197 7.363c-.099-.23-3.756-9.191-3.756-9.191l-1.652-.512zm46.053.607-.066.019-8.412 2.482 2.769 9.633 8.74-2.598-.355-1.25-7.092 2.103-.891-3.086c.124-.045 6.387-1.894 6.387-1.894l-.363-1.248-6.385 1.885a507.58 507.58 0 0 0-.795-2.781l6.816-2.016-.354-1.25zm-11.57 3.397-.066.008-1.643.238 1.383 9.922 1.705-.238-1.379-9.93zm-13.744.375v10.029h4.4c1.748 0 3.061-.335 3.926-1.006 1.126-.889 1.75-2.33 1.75-4.053 0-2.105-.846-3.144-1.484-3.748-1.275-1.222-2.993-1.223-4.377-1.223h-4.214zm1.727 1.31h2.457c1.045 0 2.026 0 2.85.607.849.616 1.272 1.561 1.272 2.91v.105c0 1.295-.313 2.264-.93 2.887-.888.901-2.222.906-3.109.906h-2.539v-7.416z" fill="#c69214"/></svg>