<svg class="main-footer__brand-svg" aria-labelledby="udg-brand" xmlns="http://www.w3.org/2000/svg" width="130" height="88.8" viewBox="0 0 130 88.8" xml:space="preserve"><path d="M5.4 32.9c0 2.9 1.4 4.5 4.1 4.5 2.9 0 4.6-1.2 4.6-4.7v-7.8c0-1.4-.8-1.7-2.4-1.7V22H18v1.2c-1.6 0-2.3.3-2.3 1.7v8.3c0 4.1-3 6-6.6 6-4.3 0-6.9-1.9-6.9-6v-8.3c0-1.4-.7-1.7-2.3-1.7V22h7.6v1.2c-1.6 0-2.3.3-2.3 1.7v8h.2zM29.1 30c0-1.5-.6-2.1-2-2.1-1.1 0-2.3.5-3.2 1v7.6c0 1.1.6 1.2 1.7 1.4V39h-6.4v-1.1c1.1-.1 1.7-.3 1.7-1.4v-7.9l-1.6-1V27l3.9-1.3h.7v2.5c1.1-1.2 2.6-2.4 4.6-2.4 2.2 0 3.5 1.2 3.5 4v6.8c0 1.1.7 1.2 1.7 1.4v1h-6.4v-1.1c1.1-.1 1.7-.3 1.7-1.4V30h.1zM40 36.6c0 1.1.7 1.2 1.7 1.4v1h-6.4v-1.1c1.1-.1 1.7-.3 1.7-1.4v-7.9l-1.6-1V27l3.9-1.2h.7v10.8zm-3.5-14c0-1 .8-1.8 1.9-1.8 1.1 0 1.8.8 1.8 1.8s-.8 1.8-1.8 1.8c-1.1 0-1.9-.8-1.9-1.8zm19.3 4.5c-1 .4-1.2.4-1.4 1l-4.9 11.1h-.8l-5.1-11.1c-.2-.5-.4-.6-1.4-1V26h6.4v1.1c-1.3.2-1.7.3-1.7.9 0 .2 0 .4.2.7l2.7 6.6 2.8-6.6c.1-.3.2-.5.2-.7 0-.6-.5-.7-1.7-.9V26h4.8v1.1h-.1zm11.4 4.2v.8h-8.4c0 2.9 1.6 4.9 4.2 4.9 1.7 0 2.9-.8 3.7-2l.5.3c-.6 2.3-2.4 4-5.3 4-3.6 0-5.8-2.7-5.8-6.3 0-4.3 2.6-7.1 6-7.1 3.4-.1 5.1 2.2 5.1 5.4zm-8.4-.5h5.6c0-2.2-.9-3.7-2.7-3.7-1.6.1-2.7 1.8-2.9 3.7zm14.9-1.1c1.4-3 2.1-3.9 3.7-3.9.4 0 .8.1.9.3v2.7h-.5c-1.5 0-2.6.2-4.1 1.7v6c0 1.2.6 1.2 2.2 1.4V39H69v-1.1c1.1-.1 1.7-.3 1.7-1.4v-7.9l-1.6-1V27l3.8-1.3h.7v4h.1zm6.1 8.3-.1-3.1H81c.5 2 1.6 3.1 3.5 3.1 1.4 0 2.3-.7 2.3-1.8 0-1.4-1-1.9-3.1-2.5-2.4-.7-3.9-1.7-3.9-4 0-2.4 1.7-3.9 4.5-3.9 1.7 0 3 .4 4.1 1v2.9h-1.2c-.4-1.8-1.3-2.7-3-2.7-1.3 0-2 .7-2 1.7 0 1.2.8 1.8 2.8 2.3 2.5.7 4.2 1.5 4.2 4.1 0 2.4-1.8 4-4.8 4-1.8.2-3.5-.2-4.6-1.1zm15.8-1.4c0 1.1.7 1.2 1.7 1.4v1H91v-1.1c1.1-.1 1.7-.3 1.7-1.4v-7.9l-1.6-1V27l3.9-1.2h.7v10.8h-.1zm-3.4-14c0-1 .8-1.8 1.9-1.8 1.1 0 1.8.8 1.8 1.8s-.8 1.8-1.8 1.8c-1.1 0-1.9-.8-1.9-1.8zm10.9 3.5h3.6v1.5h-3.6v8.2c0 1.3.6 1.7 1.8 1.7.7 0 1.5-.2 2.1-.5l.3.8c-.9 1-2.2 1.6-3.9 1.6-1.9 0-3.2-.9-3.2-3.1v-8.6h-1.7v-.9c1.4-.7 2.7-1.8 3.8-3.4h.9v2.7h-.1zm15.4 9.8c0 1 .3 1.5 1 1.5.2 0 .7 0 1.1-.1l.1.8c-.8.8-1.7 1.3-2.8 1.3-1.3 0-2-.9-2.3-2.2-.8 1-2.2 2.2-4 2.2-2.2 0-3.3-1.5-3.3-3.3 0-2.2 1.7-3 3.3-3.6l3.8-1.4v-1.3c0-1.6-.5-2.6-2.1-2.6-1.2 0-1.8.6-1.8 1.7 0 .5 0 .9.2 1.4l-2.1.3c-.5-.3-.7-.8-.7-1.4 0-2.1 2.1-3.2 4.8-3.2 3 0 4.6 1.3 4.6 4.4.3.4.2 4.7.2 5.5zm-2.9.5v-4.2l-2.8 1.1c-.9.3-1.4 1-1.4 1.9 0 1.3.7 2.1 1.8 2.1 1 0 1.6-.3 2.4-.9zm10.2-10.3h3.6v1.5h-3.6v8.2c0 1.3.6 1.7 1.8 1.7.7 0 1.5-.2 2.1-.5l.3.8c-.9 1-2.2 1.6-3.9 1.6-1.9 0-3.2-.9-3.2-3.1v-8.6h-1.7v-.9c1.4-.7 2.7-1.8 3.8-3.4h.9v2.7h-.1zM9.7 62.9c-.9 1.3-2.1 2.2-4 2.2C2.5 65.1.6 62.5.6 59c0-4.5 2.8-7.3 6.3-7.3 1.2 0 2.3.4 2.8 1.1v-3.6l-1.6-1v-.6l3.9-1.1h.7V62c0 .8.2 1.1 1.2 1.2h.6v1.1l-4.2.8h-.6v-2.2zM3.6 58c0 2.8 1.2 5.1 3.5 5.1 1 0 2-.4 2.6-.9v-6.1C9.7 54 8.7 53 7 53c-2.1 0-3.4 2-3.4 5zm23.5-.9v.8h-8.4c0 2.9 1.6 4.9 4.2 4.9 1.7 0 2.9-.8 3.7-2l.5.3c-.6 2.3-2.4 4-5.3 4-3.6 0-5.8-2.7-5.8-6.3 0-4.3 2.6-7.1 6-7.1s5.1 2.3 5.1 5.4zm-8.4-.4h5.6c0-2.2-.9-3.7-2.7-3.7-1.7 0-2.7 1.7-2.9 3.7zm24.1-9c2.5 0 4.3.7 5.5 1.6V53H47c-.7-2.7-2.2-4-4.3-4-3.6 0-5.2 3.2-5.2 7 0 4.4 1.7 7.6 5.4 7.6 1.3 0 2-.2 2.8-.8v-3.3c0-1.4-.7-1.6-2.2-1.7v-1.1h7.2v1.1c-1.5.1-2.1.3-2.1 1.7v3.8c-1.5 1.1-3.6 1.7-6 1.7-5.3 0-8.4-3.5-8.4-8.4 0-5.5 3.9-8.9 8.6-8.9zm14 14.7c0 1.1.7 1.2 1.7 1.4v1.1h-6.4v-1.1c1.1-.1 1.7-.3 1.7-1.4v-7.9l-1.6-1v-.6l3.9-1.2h.7v10.7zm-3.4-14c0-1 .8-1.8 1.9-1.8 1.1 0 1.8.8 1.8 1.8s-.8 1.8-1.8 1.8c-1.1 0-1.9-.8-1.9-1.8zm11.5 7.2c1.4-3 2.1-3.9 3.7-3.9.4 0 .8.1.9.3v2.7H69c-1.5 0-2.6.2-4.1 1.7v6c0 1.2.6 1.2 2.2 1.4v1.1h-6.9v-1.1c1.1-.1 1.7-.3 1.7-1.4v-7.9l-1.6-1v-.6l3.8-1.3h.7v4h.1zm5.9 3.1c0-4.2 2.8-7 6.3-7 3.7 0 6.1 2.8 6.1 6.5 0 4.2-2.8 7-6.4 7-3.6-.1-6-2.8-6-6.5zm9.4.1c0-3.1-1.3-5.7-3.4-5.7-2 0-3 2-3 5 0 3.1 1.2 5.7 3.4 5.7 2-.1 3-2.1 3-5zM95 55.9c0-1.5-.6-2.1-2-2.1-1.1 0-2.3.5-3.2 1v7.6c0 1.1.6 1.2 1.7 1.4v1.1h-6.4v-1.1c1.1-.1 1.7-.3 1.7-1.4v-7.9l-1.6-1v-.6l3.9-1.3h.7v2.5c1.1-1.2 2.6-2.4 4.6-2.4 2.2 0 3.5 1.2 3.5 4v6.8c0 1.1.7 1.2 1.7 1.4V65h-6.4v-1.1c1.1-.1 1.7-.3 1.7-1.4v-6.6h.1zm16.2 5.8c0 1 .3 1.5 1 1.5.2 0 .7 0 1.1-.1l.1.8c-.8.8-1.7 1.3-2.8 1.3-1.3 0-2-.9-2.3-2.2-.8 1-2.2 2.2-4 2.2-2.2 0-3.3-1.5-3.3-3.3 0-2.2 1.7-3 3.3-3.6l3.8-1.4v-1.3c0-1.6-.5-2.6-2.1-2.6-1.2 0-1.8.6-1.8 1.7 0 .5 0 .9.2 1.4l-2.1.3c-.5-.3-.7-.8-.7-1.4 0-2.1 2.1-3.2 4.8-3.2 3 0 4.6 1.3 4.6 4.4.3.5.2 4.8.2 5.5zm-2.8.6V58l-2.8 1.1c-.9.3-1.4 1-1.4 1.9 0 1.3.7 2.1 1.8 2.1.9 0 1.5-.2 2.4-.8zM26.2 0c.6 2.7 2 4.6 5.6 4.6h12.4c4.4 0 7.2 3.8 7.2 9.1h-1.2c-.3-3.2-1.7-5.1-5.5-5.1H32.1c-3.8 0-5.1-1.9-6.3-5.6-1.1 3.7-2.5 5.6-6.3 5.6H7.1c-3.7 0-5.1 1.9-5.5 5.1H.5c0-5.3 2.7-9.1 7.2-9.1H20c3.6 0 5-2 5.6-4.6h.6zm-.6 88.8c-.6-2.7-2-4.6-5.6-4.6H7.6c-4.4 0-7.2-3.8-7.2-9.1h1.2c.3 3.2 1.7 5.1 5.5 5.1h12.5c3.8 0 5.1 1.9 6.3 5.6 1.1-3.7 2.5-5.6 6.3-5.6h12.5c3.7 0 5.1-1.9 5.5-5.1h1.2c0 5.3-2.7 9.1-7.2 9.1H31.7c-3.6 0-5 2-5.6 4.6h-.5z" fill="#001688"/></svg>