<svg xmlns="http://www.w3.org/2000/svg" width="846.16" height="846.16"><style>.B{fill-rule:evenodd}.C{stroke-miterlimit:10}.D{stroke-width:.532}.E{fill:#004097}.F{stroke:#004097}</style><g class="B C D E F"><path d="M422.781.611C189.923.611 0 190.534 0 423.391c0 232.856 189.924 422.78 422.781 422.78 232.858 0 422.78-189.924 422.78-422.78 0-232.858-189.922-422.78-422.78-422.78zm65.647 110.649c.826-1.651 1.651-.826 3.302-.826 1.652-.825 4.955 0 8.258-1.651 3.302-1.652 4.129-4.129 9.082-9.909 4.13-5.781 2.479-12.387 1.653-14.863-.826-2.477-2.479-2.477-2.479-4.129 0-1.652 4.13-.826 6.607 0 1.651.826 3.304.826 4.129 0 1.651-1.652 4.129-8.258 6.606-11.561 1.651-3.303 5.78-4.954 5.78-4.954s.826-.826 3.304 2.477c2.476 3.303 2.476 4.129 2.476 5.779-.825 2.478-1.65 4.955-3.302 7.432-1.651 3.303-4.953 5.781-7.432 7.432-2.476 1.652-4.953 4.129-4.953 5.78 0 1.652 2.477 1.652 2.477 1.652s4.955-2.477 6.605-4.955c1.652-1.651 4.956-2.477 9.085-3.303 3.302 0 5.78.825 7.432 0 1.65 0 4.127 0 4.127-.825.826-1.652 2.477-7.432 3.302-9.084.826-2.477 2.479-6.606 3.304-8.257.826-1.652 2.477-4.129 2.477-4.129s1.651-.826 2.477 0c.826.825 1.651 1.651 1.651 4.954 0 2.478-.825 4.129-1.651 6.606-.826 2.478-2.477 7.432-2.477 8.258.826.826 1.651.826 3.304 1.652 1.65.825 3.302 0 4.953-1.652.826-.826 5.781-2.477 6.606-4.129.826-.826 2.477-.826 2.477-.826s.826.826.826 1.652 0 2.477-.826 4.129c-1.651 2.477-3.302 5.78-5.78 8.257-2.477 2.478-6.607 1.652-10.735 2.478-3.304.826-5.781 1.651-6.607 2.477V99.7c0 .826.826 1.652 1.652 1.652 1.651 0 4.955-.825 5.78-.825 1.652.825 2.477 0 2.477 1.652.825.825.825 2.477.825 4.128-.825 1.652-1.65 5.781-3.302 9.084-.825 4.128-3.302 9.909-4.953 9.909-.826.826-1.653 2.477-1.653 2.477s2.477 4.129 4.955 7.432c2.477 3.302 7.432 10.735 10.735 13.212 2.477 1.651 4.955 4.129 7.432 4.954 2.477 1.652-.826 2.477-3.304 2.477-1.651.826-4.953 0-9.083-.825-3.302-.826-13.212-3.302-14.863-4.129-2.477-1.651-4.953-2.477-5.78-5.781-.826-3.302-1.652-4.953-1.652-6.606 0-.825-.825-.825-2.476-1.651-.826-.825-2.477-.825-5.78-.825-2.479.825-8.258-.826-11.561-1.652-3.304-.825-9.91-4.128-11.561-5.78-.825-1.651.826-5.78 2.477-9.083.825-3.303 3.304-6.606 4.129-8.257 0-.826 3.304-2.477 3.304-2.477s.825.826 0 2.477c0 1.652 0 4.954.825 7.432.826 2.477 2.477 4.129 3.302 5.78.826.826 5.781 1.652 7.432.826 1.652-1.651.826-3.303-.826-4.955-1.651-1.651-4.127-4.954-6.606-6.606-2.476-2.477 0-4.954 0-4.954l1.653-6.606s-1.653 1.651-4.955 3.303c-3.304 1.651-2.477.825-4.129 2.477-2.477 1.652-4.955 4.129-4.955 4.129s-.825 4.129-1.651 5.78c-.825 2.477-2.477 7.432-4.13 8.258-1.65.826-2.476.826-4.127-.826-1.652-.826-3.304-3.303-3.304-3.303s-2.477.826-4.953.826c-1.653 0-3.304 1.651-5.781-.826-3.302-2.477-2.477-9.083-1.651-10.735zM295.203 64.193c1.651-1.651 8.257-4.128 8.257-4.128l1.652-3.303-7.432-18.166s.826-2.478 3.304-1.652l7.431 2.478s.826 1.651.826 3.303c.826 1.651 4.129 8.257 5.78 10.735.826 2.477 3.304 4.128 4.955 6.605 2.477 2.477 6.606 4.954 8.257 7.432 2.477 3.303 2.477 3.303 3.302 5.78.826 1.651.826 3.303 0 5.78-.825 2.478-1.65 6.606-1.65 9.084 0 2.477 2.476 5.78 2.476 6.606 0 .826 3.304 8.257 3.304 8.257v1.652c-.825 1.651-1.651 3.303-1.651 5.78-.826 2.478.826 6.606 1.651 9.083 0 2.477 3.302 12.386 3.302 13.212.826.826 1.652 4.129.826 4.129s-.826-.825-2.477-1.651c-2.476-1.651-4.955-5.78-7.431-9.909-2.477-3.303-5.781-10.735-7.432-14.038-.826-2.477-4.129-6.606-5.78-8.258-.826-2.477-8.258 2.478-9.91 2.478-1.651.825-4.129 3.303-7.431-.826-3.304-4.955 0-6.606 0-9.083 0-1.652 2.476-7.432 1.651-9.084-.826-2.477-4.13 0-5.781-2.477-1.651-2.477-1.651-7.432-1.651-9.084 0-1.651-1.651-4.954-1.651-6.606 0-2.477.825-3.303 3.302-4.129zm-42.112 41.288c1.651-4.129 5.78-9.909 8.257-11.561 1.651-2.477 4.955-5.78 4.955-5.78s.825-1.652 0-4.129c-.826-2.477-1.653-5.781-3.304-9.084-.826-3.303-.826-8.257 0-13.212 0-1.651.826-5.78 2.477-8.257 2.477-4.129 6.606-5.781 7.431 1.651.826 2.477.826 5.78-.825 8.258-1.651 2.477-4.129 9.909-4.129 11.56-.826 1.651 2.477 8.258 2.477 9.084 0 .826.825 3.303 1.651 3.303 1.651.826 3.302 4.129 3.302 5.78.826.826.826 1.652.826 3.303-.826 1.652 0 3.303 0 3.303s.826.826 2.477.826c1.651.825 3.302 0 4.129-.826.826-.825 1.651-4.128 1.651-5.78.826-2.477 1.651-7.432 2.477-9.909 0-2.477 1.652-3.303 1.652-3.303a8.24 8.24 0 0 0 .825 3.303c.826 1.651 0 4.129 0 5.78 0 2.477 0 4.129-.825 8.257-.826 4.129-3.304 12.386-3.304 12.386s.825 2.478 2.477 5.78c1.651 2.477 2.477 4.954 3.302 7.432 1.651 2.477 4.955 9.909 4.955 10.734.825.826 0 2.477-.826 3.304 0 .825.826 1.651-1.651 2.477-1.651 1.651-4.129 0-5.78-.826-1.652-1.651-3.304-2.477-3.304-2.477h1.651c0-.825 0-1.651.826-2.477.826-.825 1.652-.825 1.652-1.651 0-.826-2.479-5.78-2.479-6.605-.825-1.652-2.476-4.129-4.129-4.129-.825.826-2.477 1.652-3.302 3.303 0 1.652-1.651 3.303-2.477 5.78-.826 2.478-2.477 5.78-2.477 5.78s-1.651.826-2.477.826c-.825.825-1.651-.826-2.477-1.651 0-.826-2.476-4.129-3.302-5.78-.826-2.478 0-9.084 0-11.561 0-2.477 1.651-10.735.826-12.387-.826-1.651-4.13 0-5.78 2.478-.826 2.477-1.652 4.129-4.955 4.954-2.477.826-3.304-3.303-2.477-8.257zM116.843 442.383c-3.303 4.13-15.689 4.13-21.469 3.304-5.78-.826-4.129 3.302-8.257 6.605-3.304 3.304-2.478 6.607-9.084 5.781-6.606-.826-23.121-9.083-23.121-9.083s0-1.651 2.477-1.651 7.432.825 9.909 0c3.303 0 3.303-1.651 4.129-4.955.826-2.477-4.129-4.955-7.432-7.431-4.129-1.653-6.606.825-9.909 1.651-3.303.825-9.084-5.781-9.084-5.781s-.825-.826-3.303-4.955c-1.651-3.302-5.78-7.431-9.083-10.735-3.303-3.302-9.909-8.256-12.387-9.082-2.477-.826-9.909 0-9.909 0s1.652-2.477 6.606-5.78c5.781-3.304 9.084-1.652 14.038-1.652 4.955.826 9.91 2.477 9.91 2.477s5.78-1.651 11.56-5.78c5.781-4.955 13.212-6.606 14.864-6.606 2.477 0 3.303 3.302 5.781 8.257 1.651 5.78 3.303 6.606 7.431 10.735 4.955 4.129 13.212 6.606 15.689 7.431 3.303.826 2.477 5.781 2.477 10.735.826 4.129 0 7.432 2.478 9.085.825.825 2.477.825 4.128.825 4.129 0 6.607-6.606 6.607-11.559 0-4.956.825-17.341 5.78-18.167 4.955-.826 6.606 2.476 7.432 10.735.826 7.432-4.129 21.469-8.258 25.598zm25.598-184.966c-3.302 1.651-7.432 1.651-8.257 0-1.651-.825-.826-6.607-.826-6.607l6.607-14.862s-4.956-.826-8.258-3.304c-4.129-2.477-5.78-5.78-10.735-8.257-4.129-3.302-10.735-7.432-12.386-8.257-.825-.826-.825-.826-3.303 1.651-2.477 1.651-6.606 3.304-6.606 3.304s0-.826-.825-2.479c0-1.651-2.478-8.256-2.478-8.256s2.478-5.781 4.955-6.606c2.477-1.652 5.78-4.129 9.909-3.304 3.303 1.651 7.432 4.129 9.909 6.606 2.478 2.477 8.258 9.908 10.735 12.386 2.477 2.477 6.605 4.129 8.258 3.304 1.651 0 3.302-4.13 4.953-6.606 1.652-2.477 3.304-6.606 4.955-8.257 1.652-1.653 4.955-4.129 7.432-5.781 3.302-.826 4.129-1.651 4.129-1.651s2.477 2.477 1.651 4.129c-.825 1.651-2.477 5.781-2.477 8.257-.826 2.477.826 4.955 4.13 5.78 3.302 1.653 9.908 5.781 12.384 8.258 2.479 3.302 4.13 9.908 1.652 15.689-2.477 6.606-7.432 14.863-9.908 16.514-2.479 1.651-2.479 4.129-2.479 4.129l-14.037-6.605c-1.651 0-6.606 0-9.083.825zm170.102 534.201 29.726-43.764-5.78-7.432 26.424-3.302-35.507 54.499zm68.537-3.304c-14.038 4.955-19.818 3.304-23.948-1.651-1.651-2.477-.825-5.78.826-8.257 1.651-1.652 3.304-1.652 4.955-.826 4.129 0 .826 2.477 1.651 5.78.826 4.13 11.561.826 16.516-3.302 4.953-4.129 7.431-9.908 7.431-9.908s-12.386-3.304-14.037-9.91c-2.477-6.606 0-19.818 11.559-22.295 11.561-2.476 23.947 4.13 24.773 17.341.826 14.038-14.863 28.901-29.726 33.03zm85.051-31.377-3.304-8.258-14.037-.825-6.606 8.257s6.606 0 11.561 1.651c4.953 1.652 7.431 7.432 7.431 13.212 0 5.78-1.651 11.561-7.431 17.34-5.781 5.78-20.646 7.431-28.076 2.477-7.431-4.129-6.606-15.689-3.304-20.643 2.479-4.955 9.083-3.304 12.387-2.477 3.304 1.651 1.652 5.78.826 9.082-.826 2.477-3.304 2.477-3.304 2.477s-1.651-5.78-2.477-2.477c-.825 4.13 3.302 6.606 7.432 7.432 4.129.826 9.083-1.651 10.735-5.78 1.651-4.955 1.651-9.083-2.477-13.212-4.129-4.13-18.167-1.651-18.167-1.651l17.341-23.948 37.985 1.652s-5.78 2.476-9.91 4.955c-3.302 3.302-6.605 10.735-6.605 10.735zm59.452 0c-7.431.825-5.78-5.781-5.78-5.781h3.304s1.651-2.477.825-4.953c-.825-1.652-4.129-1.652-11.559 0-7.432 2.476-14.038 12.386-14.038 12.386s4.129-1.651 11.561.826c12.386 5.78 10.735 28.075-8.258 31.377-20.643 4.129-24.771-9.908-20.643-24.773 4.955-14.863 24.771-23.945 24.771-23.945 7.432-6.606 26.424-5.781 27.25 4.953 0 4.955 0 9.083-7.432 9.91zm82.095-148.646c-101.843 101.839-267.959 101.839-369.794 0-101.839-101.838-101.839-267.961-.004-369.797 101.839-101.839 267.955-101.839 369.801 0 101.837 101.835 101.837 267.959-.003 369.797zm103.7-329.405c-.826 3.302-4.955 9.908-6.606 10.735-1.652 1.652-2.477 0-4.129-2.477-1.651-1.651-5.78-4.129-4.955-6.606v-9.908c.826-3.302 0-4.955 0-4.955s-1.651-3.302-.825-4.955c0-2.477 0-4.127.825-4.127.826-.826 3.304-1.652 3.304-1.652s7.431 6.606 9.083 10.735c1.651 3.304 4.129 9.083 3.302 13.212zm1.651-33.855c-3.302 1.65-9.083 5.778-16.514 6.605-6.606 0-15.689-3.302-20.644-5.778-4.953-3.304-9.082-7.432-9.082-9.085 0-1.651 3.302-4.953 4.129-5.78 1.651-.826 4.127-.826 7.431-.826 4.129.826 5.781 1.652 7.432.826 1.651 0 2.477.826 2.477-.826 0-2.476-.826-5.78-2.477-8.257-1.651-2.477-3.304-6.606-4.13-9.908 0-3.304 2.479-4.955 6.607-5.781 3.302-.826 7.431 1.653 7.431 1.653s8.257 9.908 9.083 11.559c1.651 1.653 6.606 2.477 9.908.826 3.304-2.477 15.691-12.386 18.167-14.038 2.477-1.651 4.129-4.129 9.083-4.129 4.955 0 8.257.826 8.257 4.129 0 2.477-.826 9.91-1.651 10.735-.826 1.651 0 2.477-.826 3.304 0 .826-6.605 4.955-9.908 6.606-3.302 1.651-8.257 5.78-9.91 7.432-1.651 1.651 0 3.302 2.479 3.302 2.476.826 5.78 0 9.908 2.477 4.129 3.302 6.606 8.257 7.431 11.559 1.651 3.304.826 5.781-3.302 5.781-4.129 0-7.432-2.477-9.908-4.955-1.653-2.476-6.607-5.781-9.085-7.431-2.476-.826-6.605-2.477-8.257-2.477-.825 0-1.651 0-4.129 2.477zm85.053 189.921c-.826 2.476-3.304 4.953-4.955 6.605-1.653.826-6.606-.826-7.432-3.302-1.651-2.477-5.78-2.477-8.257-3.302-2.477 0-5.781 1.651-7.432 0-2.477-.826-4.129-2.477-7.431-3.304-3.304-.826-7.432 0-8.258.826-.825.825 0 3.302 1.651 4.953 2.479 1.652 3.304 3.302 3.304 5.78.826 2.479.826 2.479-.825 4.13-1.652 2.477-3.304 4.953-5.781 7.431-1.651 2.477-2.477 1.652-3.304 0-1.651-.825-2.476-4.953-3.302-7.431 0-2.477 0-4.955-1.651-7.432-1.651-3.302-4.955-3.302-7.432-3.302-3.302 0-6.605 0-10.735-1.651-3.302-1.653-2.476-4.13-4.129-9.91-.826-5.781-1.651-10.735-.826-12.386.826-2.477 5.781-4.13 9.085-5.78 3.302-1.653 4.129-4.955 5.78-5.781 1.651-.825 4.955-7.431 8.257-8.257 2.477-.826 4.953 1.651 4.953 1.651s-1.651 5.781-.825 9.083c0 4.129 0 8.257 1.651 10.735 1.652 1.651 6.606 6.606 9.083 8.257 2.477 1.653 6.606 3.302 10.735 2.477 3.304-.825 2.477-4.129.826-4.955l-4.955-4.955-6.606-3.302c-1.651 0-1.651-2.477-.825-3.304.825-1.65 4.129-2.476 7.431-2.476 4.129.826 6.606 2.476 9.083 5.78 3.302 2.477 7.431 11.561 9.083 13.212.825.825 2.477.825 3.304-.825 0-2.477 0-4.13-2.479-8.258-2.477-3.302-2.477-3.302-4.129-6.606-1.651-3.302-3.302-2.476-5.78-6.606-1.651-4.129-2.477-7.431-2.477-7.431s-3.302-1.651-5.781-2.477c-2.476-.826-3.302-4.129-3.302-6.606-.825-1.653 2.477-4.955 6.606-4.955s8.257.826 11.561 1.651c3.302 0 5.781 3.304 7.431 6.607l7.432 18.99c1.653 4.13 3.304 10.735 3.304 16.516.825 5.78 0 7.432-1.651 9.91zm2.476-33.856c0-1.651 0-1.651 1.651-3.304 2.479-1.651 1.652-4.127 4.955-6.606 3.304-2.476 7.432-4.129 10.735-3.302 2.477.826 5.78 3.302 5.78 6.606 0 3.302-4.953 6.606-7.431 7.432-3.304 0-13.212 3.302-13.212 3.302s-2.477-2.477-2.477-4.129zm22.295 9.083s0 .826-.825 2.477c-.826 1.651-.826 3.302-2.479 5.78-.825 1.651-2.476 2.477-2.476 2.477s-1.651.826-2.477 0c-.826-.826-2.477-.826-3.304-2.477-.825-.825-.825-4.129-.825-5.78 0-2.477 4.129-4.13 5.78-3.304 1.651 0 6.606.826 6.606.826zm7.431 39.636c-2.476 3.302-5.78 4.129-9.082 4.129-2.477-.826-4.955-6.606-4.955-7.431-.825-1.652-2.477-9.91-2.477-9.91s-1.651-.826-2.477-2.477c-1.651-2.477-1.651-5.78-1.651-5.78s4.129.825 6.606 2.476c3.302.826 9.083 4.955 11.561 4.955 1.651.826 7.431 2.477 7.431 2.477s0 3.302-.825 5.78c-.826 2.479-1.651 2.479-4.13 5.781zM78.033 420.088c-1.651.826-.826 0-1.651.826-1.652.826-.826.826-.826 1.651 0 .826.826.826.826 1.653.457 0 .904.252 1.081.478.631-.867 2.222-3.119 2.222-3.782-.826-.826 0-1.652-1.652-.826zm320.386 327.765c-5.78-4.955-15.688-3.304-17.339 4.955-.727 5.078 3.009 6.331 3.365 6.561.623-.438 5.867-4.085 8.195-4.085 2.477 0 4.13 1.652 4.13 4.13 0 1.65 1.65 1.65 2.476.825 2.477-1.651 4.129-9.083-.826-12.386zM167.214 242.554c-.826-3.304-2.477-5.781-4.129-6.606-.826-1.651-2.477-2.477-4.13-4.129-1.65-.826-3.302-.826-4.953-1.652-.825-.825-1.651 1.652-2.477 2.477-1.651.826-2.477 3.304-4.129 5.781l-1.651 8.256s.825 2.479 2.476 2.479c.826.826 2.479 1.65 4.956 1.65 2.476 0 5.778-.824 9.082-1.65 2.477-1.652 4.955-3.302 4.955-6.606z"/><path d="m77.462 424.696-.255.347c.368 0 .397-.165.255-.347zm470.42-304.353c1.651 0 3.302-2.477 4.129-3.303.825-1.651.825-3.303 1.651-4.954 0-1.652-.826-.826-3.302-.826l-3.302 1.652s-.826.825-.826 1.651c-.826.826-1.652 2.477-.826 3.302 0 .826.826 1.652 2.477 2.477zM63.169 401.922c-4.129-3.304-4.954-3.304-9.083-2.477-3.303.826-2.477 1.651-5.78 3.302-2.478.826-1.652 4.13-1.652 4.13l3.303 3.302c1.652 1.651 9.909 4.129 14.038 5.78 4.955.826 5.78 1.652 7.432-2.477.826-4.129-4.129-9.082-8.258-11.559zm472.327-300.571c0 .826 2.476 1.651 3.302.826.826-.826 2.477-3.303 2.477-4.129 0-.826 0-1.652-.826-1.652 0-.825-1.651-.825-1.651-1.651-.826-1.652-.826 0-1.652-1.652-.825-.826-1.65-.826-1.65-.826s-.826 1.652-1.652 2.478c-1.651.826-.826.826-1.651 2.477-.826.826-1.652 2.477-.826 3.303.826 0 3.304 0 4.13.825zM306.764 88.14s-.825 3.303.825 4.954c1.652 2.478 4.13 0 4.956-.826.825-.825 1.65-2.477.825-4.128 0-1.652 0-1.652-1.651-2.478-3.304-1.651-4.13 0-4.955 2.478zm-.825-10.735c4.953-1.652 2.476-7.432-.826-5.781-2.477 0-3.304 1.652-3.304 1.652s-.825 1.651.826 3.303c1.651.826 2.477 1.651 3.304.826zm-221.3 345.986v1.651c.826-.825 0 1.651 2.478.825s.825-.825.825-1.65c-.825-.826-.825-.826-1.651-.826h-1.652zm411.218 347.583c0-3.302-4.129-1.651-4.129-1.651s-2.477 1.651-1.651 5.78c0 4.955 1.651 6.606 5.78 8.257 7.432 2.477 18.167-6.606 12.386-14.863-2.477-3.302-4.953-.825-4.953 1.653 0 2.476-1.652 4.953-1.652 4.953s-4.955-.825-5.78-4.128zm245.249-354.189c-1.652-1.653-3.304-5.78-3.304-5.78s-1.651 0-3.302 1.651c-1.653.825-1.653 3.302-1.653 4.955.826 2.476 0 3.302 1.653 5.78 1.651 2.476 2.476 1.651 3.302 1.651 1.651 0 3.304.825 4.129-1.651 1.651-2.477 1.651-4.955-.825-6.606zm-375.741-67.171c89.135-89.138 194.981-128.698 235.615-88.063 22.119 22.119 20.466 63.557 0 111.107h-19.698c25.704-47.036 32.596-86.991 14.089-105.498-32.039-32.036-128.351 12.014-214.399 98.064l-1.447 1.459a67.253 67.253 0 0 0-21.801-9.255l7.641-7.815zm169.172 124.511a499.3 499.3 0 0 1-21.623 23.038c-89.14 89.145-194.985 128.704-235.618 88.07-24.556-24.558-19.813-72.941 7.459-127.053a68.54 68.54 0 0 0 12.59 15.305c-25.991 47.31-33.027 87.547-14.439 106.138 32.039 32.039 128.348-12.016 214.401-98.067l7.293-7.431z"/></g><path d="M460.452 547.591c59.333 39.798 112.65 54.296 134.914 32.031 18.508-18.507 11.622-58.463-14.082-105.498h19.698c20.466 47.548 22.113 88.991-.005 111.107-29.224 29.227-92.185 16.965-158.399-25.39a405.097 405.097 0 0 0 17.873-12.25zm-.324-243.737c17.827 13.272 35.619 28.594 52.789 45.762a501.947 501.947 0 0 1 21.622 23.042h-29.936l-7.297-7.431c-18.094-18.094-36.646-34.324-54.955-48.383a502.214 502.214 0 0 1 17.776-12.99z" fill="#ef8200" stroke="#ef8200" class="B C D"/><path d="M248.232 385.34h23.067v44.588c0 4.423-.697 8.584-2.072 12.52a27.143 27.143 0 0 1-6.476 10.307c-2.944 2.941-6.025 4.996-9.263 6.197-4.49 1.652-9.872 2.488-16.174 2.488-3.64 0-7.608-.242-11.909-.764-4.301-.506-7.887-1.514-10.777-3.03-2.889-1.513-5.535-3.673-7.94-6.459-2.402-2.786-4.037-5.658-4.927-8.62-1.425-4.753-2.141-8.965-2.141-12.639V385.34h23.068v45.651c0 4.091 1.132 7.278 3.378 9.558 2.265 2.297 5.397 3.447 9.419 3.447 3.969 0 7.105-1.132 9.366-3.393 2.246-2.246 3.379-5.47 3.379-9.612z" class="B C D E F"/><path d="M357.796 402.637c-3.929-4.75-9.033-7.137-15.28-7.137-5.666 0-10.436 1.896-14.297 5.684-3.863 3.791-5.992 8.868-6.412 15.212h40.647c-.539-6.107-2.105-10.72-4.657-13.759zm23.176 78.922-7.493-7.635c17.031-10.41 28.436-29.182 28.436-50.531 0-32.602-26.591-59.189-59.189-59.189-15.938 0-30.437 6.355-41.097 16.659-29.461-50.562-38.296-94.128-18.723-113.702 22.263-22.259 75.556-7.772 134.879 32.006a403.297 403.297 0 0 1 17.88-12.244c-66.205-42.339-129.148-54.596-158.368-25.372-25.912 25.914-19.204 78.346 12.173 136.054a58.758 58.758 0 0 0-5.934 25.788c0 32.599 26.587 59.187 59.191 59.187 2.752 0 5.46-.195 8.115-.561a501.763 501.763 0 0 0 14.522 15.15c17.159 17.156 34.932 32.467 52.744 45.733a500.336 500.336 0 0 0 17.774-12.99c-18.296-14.054-36.826-30.271-54.908-48.353zm-17.068-26.271c-5.452 4.094-12.4 6.152-20.85 6.152-10.647 0-19.094-3.273-25.32-9.827-6.249-6.55-9.36-15.749-9.36-27.588 0-12.262 3.159-21.763 9.453-28.525 6.319-6.764 14.487-10.157 24.548-10.157 9.737 0 17.691 3.322 23.844 9.943 6.178 6.622 9.267 15.962 9.267 27.966 0 .749-.021 1.848-.069 3.298h-54.29c.446 8.006 2.718 14.137 6.788 18.371 4.073 4.259 9.126 6.389 15.208 6.389 4.516 0 8.381-1.196 11.585-3.583 3.205-2.363 5.733-6.156 7.605-11.374l12.754 1.57c-2.012 7.464-5.732 13.245-11.162 17.363z" fill="#ef8200" stroke="#ef8200" class="B C D"/><path d="m414.137 435.841 21.643-1.354c.461 3.512 1.42 6.188 2.86 8.035 2.33 2.984 5.691 4.457 10.042 4.457 3.239 0 5.739-.755 7.504-2.278 1.748-1.526 2.624-3.289 2.624-5.296 0-1.902-.824-3.615-2.501-5.122-1.68-1.509-5.553-2.932-11.654-4.268-9.973-2.246-17.085-5.207-21.335-8.928-4.283-3.717-6.424-8.446-6.424-14.206 0-3.786 1.096-7.368 3.289-10.727 2.196-3.357 5.484-5.999 9.89-7.934 4.402-1.92 10.436-2.877 18.094-2.877 9.408 0 16.587 1.745 21.522 5.24 4.936 3.496 7.865 9.066 8.81 16.692l-21.44 1.249c-.566-3.306-1.764-5.72-3.597-7.229-1.817-1.492-4.336-2.244-7.538-2.244-2.657 0-4.645.547-5.982 1.676-1.336 1.115-2.006 2.487-2.006 4.098 0 1.165.55 2.21 1.647 3.154 1.077.976 3.614 1.865 7.641 2.705 9.94 2.145 17.051 4.319 21.352 6.512 4.301 2.196 7.436 4.903 9.389 8.159 1.953 3.237 2.948 6.872 2.948 10.897 0 4.713-1.318 9.066-3.924 13.041-2.602 3.992-6.254 7.008-10.95 9.066-4.679 2.055-10.588 3.084-17.716 3.084-12.511 0-21.182-2.399-25.995-7.233-4.834-4.813-7.56-10.932-8.192-18.369zm75.898-50.501h71.476v18.799h-23.992v57.301h-23.508v-57.301h-23.976zm118.649.003c17.368 0 32.081 11.737 36.61 27.687h-19.409c-3.525-5.826-9.919-9.732-17.201-9.732-11.067 0-20.094 9.028-20.094 20.094 0 11.064 9.028 20.092 20.094 20.092 7.278 0 13.673-3.909 17.198-9.73h19.409c-4.532 15.948-19.241 27.689-36.607 27.689-20.958 0-38.05-17.092-38.05-38.05 0-20.96 17.092-38.05 38.05-38.05z" class="E F B C D"/></svg>