<svg xmlns="http://www.w3.org/2000/svg" width="1000" height="1000"><path fill="rgba(255,255,255,0)" d="M0 0h1000v1000H0z"/><g vector-effect="non-scaling-stroke" transform="matrix(4.4889 0 0 4.4889 499.9937 499.9977)"><path d="M-107.811-6.548v-21.426c0-1.983-1.623-2.568-3.329-2.744v-1.877h13.052v1.872c-1.639.16-3.028.696-3.028 2.586v21.191c0 7.179 4.447 10.057 10.452 10.057 10.9 0 10.9-8.493 10.9-16.287v-9.192c0-6.636-.56-8.081-3.955-8.36v-1.868h10.979v1.856c-2.006.199-3.43 1.165-3.43 5.406v15.819c0 8.966-4.29 15.819-15.662 15.819-9.979.002-15.979-3.814-15.979-12.852zm56.8 7.447v-28.256c0-2.357-1.343-3.136-3.733-3.36v-2.06l13.078.123 16.452-.169.222 6.171h-2.081c-1.111-3.189-3.173-3.668-8.898-3.668h-8.339v14.732h7.325c3.169 0 4.897-.055 5.425-2.621h1.574v7.51h-1.639c-.518-2.112-1.965-2.39-5.36-2.39h-7.325V-.656c0 3.888 1.519 4.879 4.761 4.974l.028 1.833h-15.223V4.255c2.39-.221 3.733-.996 3.733-3.356zm159.413-6.194v2.508l-.027 7.387c-3.869 1.037-9.031 2.258-14.625 2.258-12.543 0-21.354-8.809-21.354-19.713 0-12.472 9.67-20.34 21.893-20.34 2.043 0 3.67.231 7.338.696 1.006.162 6.078 1.093 7.162 1.329l.494 7.177h-2.559c-1.777-3.543-4.234-6.71-11.023-6.71-8.494 0-15.67 5.143-15.67 17.608 0 7.253 4.053 17.463 16.447 17.463 1.947 0 3.746-.467 5.531-1.248 0-.693.156-4.986.156-6 0-3.446-.389-4.898-3.199-5.355v-1.935h12.172v1.813c-2.169.196-2.736.912-2.736 3.062z" fill="#1a171b" fill-rule="evenodd"/><g fill="#c80019"><path d="M55.598-5.304C54.33-3.95 49.768.014 48.252.014c-.598 0-1.365-.337-1.365-1.015 0-.927.768-2.621 1.191-3.962l6.752-19.755c.42-1.188.85-2.788.85-4.133 0-1.865-.762-3.458-3.381-3.458-8.02 0-20.684 14.173-25.24 19.915h-.17l4.053-12.581c.516-1.514.926-3.206.926-4.549 0-1.611-1.186-2.785-3.795-2.785-7.506 0-20.004 13.921-24.047 19.749h-.168l4.379-12.75c.338-1.015.934-2.612.934-4.052 0-1.597-.842-2.947-2.871-2.947-5.577 0-11.482 6.749-14.684 10.708 0 0-.827 1.005-.168 1.563.744.638 1.44-.037 1.44-.037l2.274-2.531c1.519-1.521 3.127-2.954 4.893-2.954 1.018 0 1.35.753 1.35 1.688 0 .753-.25 1.597-.332 2.105L-7.716 4.782c-.192.957 1.599 1.481 2.45 1.481 2.138 0 3.121-.636 3.37-1.32L-.368.517C1.911-5.9 5.538-11.719 10.188-16.705c2.699-2.949 7.762-8.855 12.32-8.855 1.178 0 1.6.934 1.6 2.106 0 2.196-1.176 5.399-1.439 6.248L15.292 4.815c-.162.691.582 1.657 2.873 1.662 2.113.009 2.699-.737 2.949-1.503l1.395-3.453c2.352-6.072 4.725-10.457 8.688-15.345 2.705-3.3 10.387-11.815 14.777-11.815.914 0 1.936.666 1.936 2.015 0 .839-.512 2.274-.92 3.465L40.158-.575c-.605 1.685-1.025 3.03-1.025 3.968 0 2.187 1.525 2.861 3.125 2.861 4.631 0 8.607-3.8 11.908-7.421l2.611-2.877s.73-.758.004-1.362c-.621-.513-1.183.102-1.183.102z" fill-rule="evenodd"/><path d="M-7.204 17.277h58.366v14.069H-7.204z"/></g></g></svg>