<svg xmlns="http://www.w3.org/2000/svg" width="1000" height="1000" xmlns:v="https://vecta.io/nano"><style><![CDATA[.B{fill:#fa2730}.C{fill:#1f191a}.D{fill:#fcf6f0}.E{fill:#fa2830}.F{fill:#fac706}.G{fill:#0180cf}.H{fill:#fbf4ed}.I{fill:#fcf5ee}.J{fill:#fefbfa}.K{fill:#fcc904}.L{fill:#eac1a9}.M{fill:#fbc805}.N{fill:#fcf5ef}.O{fill:#fcf7f2}]]></style><path fill="rgba(255,255,255,0)" d="M0 0h1000v1000H0z"/><g vector-effect="non-scaling-stroke" transform="matrix(.511 0 0 .511 499.9298 499.9605)" fill-rule="evenodd"><path d="M-260.5-969.5c7.53-.573 14.87.261 22 2.5a369 369 0 0 1 6 18l-1 1.5c-12.31-7.715-24.64-7.882-37-.5q-14.235 16.507 6 25c13.66 3.581 27 8.081 40 13.5q22.965 18.363 10.5 45c-3.17 4.5-7 8.333-11.5 11.5a47.7 47.7 0 0 0-14.5 5.5c-4.74-.264-9.57-.431-14.5-.5a48.3 48.3 0 0 1-14-3.5 232 232 0 0 1-7-20l1-1q19.65 14.476 42 4.5c8.84-8.141 9.17-16.141 1-24l-5-3a599 599 0 0 1-45-16c-16.96-18.878-15.62-36.211 4-52 5.56-2.793 11.22-4.959 17-6.5m257 1c10.4-.888 17.57 3.445 21.5 13 2.03 13.971-3.81 22.304-17.5 25-16.6-3.912-21.76-13.912-15.5-30 3.11-3.798 6.95-6.464 11.5-8m256 3c26.11-1.024 48.45 7.476 67 25.5a185 185 0 0 0-4.5 14.5c-1.11 1.211-2.28 1.211-3.5 0-9.4-10.231-20.73-17.397-34-21.5-23.86-5.379-42.03 2.455-54.5 23.5-7.88 22.327-3.04 41.16 14.5 56.5l16 7c8.59 2.257 17.25 2.757 26 1.5q2.985-11.472 6-23-11.07-1.191-21-6 .675-8.016 4.5-15a230.7 230.7 0 0 0 38.5 11 693 693 0 0 0-12.5 45c-.27 1.829-1.11 3.329-2.5 4.5-24.42 3.25-47.09-1.417-68-14q-28.395-23.161-22.5-59.5c1.39-5.77 3.06-11.437 5-17a120.3 120.3 0 0 1 16.5-20.5c9.11-5.64 18.77-9.807 29-12.5m190 69c1.59.648 3.25 1.148 5 1.5a634 634 0 0 0 29 17c18.18 16.241 19.51 33.741 4 52.5q-10.575 7.859-24 8a80 80 0 0 1 3.5 14c1.37 18.268 3.21 36.434 5.5 54.5l-19-8.5a1621 1621 0 0 0-4.5-54 54 54 0 0 0-4-9 124 124 0 0 0-12-9 1472 1472 0 0 0-26 45 220 220 0 0 0-15.5-9l58-103m8 21a241.75 241.75 0 0 0 16 9.5c8.96 8.976 9.29 18.309 1 28-12.57 5.147-23.9 3.147-34-6a289 289 0 0 0 17-31.5m-912-13l104 80.5a50.2 50.2 0 0 0-15.5 8.5 480 480 0 0 1-29.5-22.5q-6.45.2-12 4a235.5 235.5 0 0 1-32.5 18.5c.62 12.543 1.45 25.043 2.5 37.5a208 208 0 0 1-15 8.5 2223 2223 0 0 1-12-129c3.64-1.665 6.97-3.665 10-6m8 28a430 430 0 0 1 30 24c.93 1.141 1.76 1.141 2.5 0l2.5 2.5a467 467 0 0 1-30.5 17.5 985 985 0 0 1-4.5-44m-147 61q7.74 4.075 10.5 12a625 625 0 0 0-22.5 20.5 30.3 30.3 0 0 1-8 5l66.5 77.5q1.005 1 0 2c-3.93 4.03-8.09 7.696-12.5 11l-67.5-78a1131 1131 0 0 1-30.5 26 7.3 7.3 0 0 1-3-2 26.3 26.3 0 0 0-7-10l74-64" class="C"/><path d="M-6.5-720.5l-2-17c-5.34.166-10.68-.001-16-.5q-1.995-7 0-14c5.32-.499 10.66-.666 16-.5v-16h15v16c5.34-.166 10.68.001 16 .5.97 4.737 1.3 9.57 1 14.5h-17v17z" class="F"/><path d="M649.5-754.5a136 136 0 0 0 11 7.5l-41 124.5a60 60 0 0 0-12.5-10l-.5-3.5 11-34.5a1130 1130 0 0 0-29-27.5 21.6 21.6 0 0 1-6-5c-1.67-.667-3.33-.667-5 0L547-688.5c-5.41-3.405-10.24-7.572-14.5-12.5l117-53.5m-14 24c1.1 1.101 1.26 2.434.5 4a517 517 0 0 1-13.5 38 793 793 0 0 1-25-22.5 559 559 0 0 0 38-19.5" class="C"/><path d="M-8.5-737.5l2 17c-1.95-5.235-2.62-10.902-2-17" fill="#c18d23"/><path d="M-24.5-713.5c2.44 1.726 5.11 3.226 8 4.5q8.235 5.738 10.5 15.5a780 780 0 0 1 0 56c-.61 4.097-2.78 6.764-6.5 8-6.38.906-13.05.572-20-1-4.66-1.756-8.83-4.423-12.5-8a517 517 0 0 1-15-40c-1.57-8.527-.24-16.527 4-24 3.36-2.531 6.52-5.198 9.5-8 6.87-3.889 14.2-4.889 22-3" class="E"/><path d="M22.5-713.5c-5.43 2.808-10.26 6.474-14.5 11a32.5 32.5 0 0 0-4 10q-1.005 27 0 54c.74 4.174 2.9 7.174 6.5 9h-23c3.72-1.236 5.89-3.903 6.5-8a780 780 0 0 0 0-56q-2.265-9.762-10.5-15.5c-2.89-1.274-5.56-2.774-8-4.5a280 280 0 0 1 47 0" class="F"/><path d="M44.5-710.5q18.84 11.208 13.5 33c-4.45 15.042-10.61 29.208-18.5 42.5l-9 4.5a51 51 0 0 0-7.5 2 51.65 51.65 0 0 0-12.5-1c-3.6-1.826-5.76-4.826-6.5-9q-1.005-27 0-54a32.5 32.5 0 0 1 4-10c4.24-4.526 9.07-8.192 14.5-11 7.82-1.989 15.15-.989 22 3" class="E"/><path d="M-46.5-710.5a114 114 0 0 1-9.5 8c-4.24 7.473-5.57 15.473-4 24a517 517 0 0 0 15 40c3.67 3.577 7.84 6.244 12.5 8h-20a443 443 0 0 0-20.5-60 47.2 47.2 0 0 1-2.5-12c9.54-3.066 19.2-5.733 29-8" class="F"/><path d="M44.5-710.5a497 497 0 0 1 30 8q-12.3 35.906-24 72a687.15 687.15 0 0 1-20 0l9-4.5c7.89-13.292 14.05-27.458 18.5-42.5q5.34-21.792-13.5-33" fill="#f8c508"/><path d="M-75.5-702.5a47.2 47.2 0 0 0 2.5 12 443 443 0 0 1 20.5 60h-13c-2.67-1.333-5.33-1.333-8 0-11.11-1.024-21.44-3.691-31-8a139 139 0 0 1-7.5-7q-14.895-29.425 10.5-51.5c7.97-5.498 16.64-7.332 26-5.5m148 71q-4.815-.465-9 1h-13q11.7-36.094 24-72 15.105-2.849 27 7c14.9 13.982 18.07 30.315 9.5 49-3.39 4.132-7.06 7.132-11 9-8.92 4.264-18.09 6.264-27.5 6" fill="#f92b30"/><path d="M-762.5-639.5a4.94 4.94 0 0 1 3 .5 2184 2184 0 0 0 88 70l3 3a80.5 80.5 0 0 1-11 13c-.67.667-1.33.667-2 0l-88-70c-2.08-1.884-2.41-4.051-1-6.5a57.5 57.5 0 0 0 8-10" class="C"/><path d="M-73.5-630.5c2.67-1.333 5.33-1.333 8 0h-8" fill="#a27824"/><path d="M72.5-631.5c-1.03.749-2.2 1.415-3.5 2a30.6 30.6 0 0 1-5.5-1q4.185-1.465 9-1" fill="#956e24"/><path d="M775.5-621.5a126.61 126.61 0 0 1 8.5 10l.5 2.5-26.5 99.5c-1.65 4.565-2.31 9.231-2 14a355 355 0 0 0 26.5-16.5l18-14 28.5-18.5a71.7 71.7 0 0 1 9.5 13 2527 2527 0 0 1-97 67q-5.985-5.23-9-12.5l29-112-1-1.5-72 50q-6.555-5.35-9-13.5a190.5 190.5 0 0 1 27-19 1558 1558 0 0 1 69-48.5m-731 93a159 159 0 0 0 21 11.5q27.915 7.859 48-13a298 298 0 0 1-22-25 698 698 0 0 1 32.5.5q14.295-.021 28.5-1.5a503 503 0 0 0 27-13q58.185-22.294 117-1c5.6 2.295 10.27 5.795 14 10.5a77.5 77.5 0 0 1 26 8.5c6.96 5.951 12.79 12.785 17.5 20.5 4.87 14.702 4.04 29.035-2.5 43-3.68-5.01-8.34-8.843-14-11.5-37.7-11.529-75.04-11.196-112 1-14.41 6.615-23.25 17.781-26.5 33.5q1.17 28.038-6 2c-1.58-6.977-1.92-13.977-1-21-41.32 22.658-70.65 55.992-88 100q-5.16 15.154-6 31c1.36 9.429 5.02 17.762 11 25 8.39 7.617 18.23 12.784 29.5 15.5-16.43 2.938-31.6-.562-45.5-10.5-1.47 24.002 3.2 46.669 14 68 16.32 24.237 39.15 34.404 68.5 30.5 27.23-5.224 46.06-20.724 56.5-46.5 7.54-23.377 4.2-45.043-10-65-4.15-12.891-2.48-24.891 5-36 4.65-5.413 10.49-8.913 17.5-10.5l32-3q27.675-9.669 37.5-37.5a311.98 311.98 0 0 0 4-15c1.16 1.785 1.83 3.785 2 6q1.005 10.5 0 21a48.6 48.6 0 0 1-4.5 14.5q1.5 1 3 0 67.995-30.99 94.5-100.5c9.61-30.654 10.94-61.654 4-93q-.45-26.054 25.5-24.5c7.83 2.5 13 7.667 15.5 15.5 6.5 34.15 5.83 68.15-2 102-12.84 42.043-35.51 77.71-68 107a67.7 67.7 0 0 0-6.5 17 206 206 0 0 0 18-7.5q96.39-58.064 94.5-171.5c1.9-3.455 4.24-3.788 7-1 5.7 80.091-24.14 142.924-89.5 188.5a512 512 0 0 1-27 14l-1 1a34.6 34.6 0 0 0 3.5 8.5q90.51-23.998 123-112 1.995-13.326 10.5-23.5c14.43-7.517 25.26-4.017 32.5 10.5q1.005 6 0 12Q521.545-343.358 413.5-305a107.83 107.83 0 0 0-14 2.5 128 128 0 0 1 2 11q108.375-5.746 160.5-100a204 204 0 0 1 9-21q2.595-3.153 6-1a12.44 12.44 0 0 1 0 7c-23.31 65.312-68.15 108.145-134.5 128.5a278 278 0 0 1-36 6 40.8 40.8 0 0 1 2.5 9.5q67.05 6.977 121.5-32.5a230.4 230.4 0 0 0 26.5-24.5 31.6 31.6 0 0 0 7-11q18.63-24.657 39-2c2.73 5.539 3.07 11.206 1 17l-16 23a513 513 0 0 1-27.5 26.5q-38.94 29.89-87 41-21.75 4.023-43.5 6.5-2.76-.248-6-2c-2.95.178-6.12.178-9.5 0a25.82 25.82 0 0 0 1 10q46.11 14.48 93 2.5c40.76-10.156 74.09-31.489 100-64q9.165-1.077 4.5 7.5-47.16 60.92-123 76c-25.23 4.211-50.4 3.878-75.5-1-.29 3.606.04 7.106 1 10.5q76.845 30.257 150-8a152 152 0 0 0 17-12c11.95-9.201 23.12-8.367 33.5 2.5 4.82 8.104 4.65 16.104-.5 24-28.17 23.747-60.5 38.914-97 45.5-10.3.45-20.47 1.617-30.5 3.5l-41.5-3.5a170 170 0 0 1-33-9.5c-2.08 3.369-2.41 6.869-1 10.5 45 28.287 93.33 35.62 145 22 8.6-3.201 17.27-6.201 26-9l28.5-15.5c4.08 1.307 4.92 3.474 2.5 6.5-60.69 42.26-125.36 49.93-194 23l-13-6.5q-1.305 4.56-3 9c5.5 4.66 11.17 9.16 17 13.5 49.85 28.22 101.52 31.88 155 11 21.67-1.33 29.84 8.5 24.5 29.5-3.11 3.98-6.94 7.15-11.5 9.5-8.46 3.56-17.13 6.56-26 9-18.9 3.71-37.73 6.21-56.5 7.5a413 413 0 0 1-57.5-9.5c-19.75-6.38-38.25-15.21-55.5-26.5-.77.14-1.44.48-2 1-.73 2.37-1.57 4.7-2.5 7q67.575 70.605 165 55.5L583 4.5c4.5.66 5.34 2.66 2.5 6-12.19 5.83-25.19 9.5-39 11-51.42 9.63-99.25-.37-143.5-30l-1 1-19-16c-.77.14-1.44.48-2 1a77 77 0 0 0-3.5 7.5c40.29 49.79 92.62 71.62 157 65.5 19.19-.31 27.02 9.03 23.5 28-3.17 4.5-7 8.33-11.5 11.5-62.6 9.06-118.6-5.77-168-44.5l-22-21a50.4 50.4 0 0 1-5 8.5c3.47 7.76 8.3 14.6 14.5 20.5 1.77 2.1 3.1 4.43 4 7q10.755 8.745 19.5 19.5c6.59 4.25 12.93 8.92 19 14 37.2 23.47 77.87 33.47 122 30 2.06 1.49 2.39 3.33 1 5.5-33.53 5.73-66.2 3.23-98-7.5-29.63-11.43-55.8-28.6-78.5-51.5l-12-14a15.3 15.3 0 0 1-3-6c-2.3 3.1-4.46 6.26-6.5 9.5 22.41 47.41 58.75 78.74 109 94 10.25 2.18 20.58 3.85 31 5q20.1 4.92 16.5 25.5c-1.51 8.18-6.35 13.01-14.5 14.5-18.96.87-37.29-2.13-55-9-50.22-17.55-88.72-49.38-115.5-95.5-3.61 1.94-6.11 4.77-7.5 8.5 9.74 31.16 26.07 58.16 49 81l4 2a48.8 48.8 0 0 0 8.5 8.5c1.95 4.4.45 6.23-4.5 5.5-30.82-21.48-53.15-49.64-67-84.5-.5-1.02-1.17-1.19-2-.5-10.9 13.3-19.07 28.13-24.5 44.5q-11.49 95.49-79.5 162a654.78 654.78 0 0 1 26 24.5q10.275 5.76 18 15a30.4 30.4 0 0 1 8 5 587.4 587.4 0 0 0 95 69 92 92 0 0 1 18 5q18 4.905 36 0c18.18-6.38 36.84-10.21 56-11.5 18.91.98 37.24 4.64 55 11v24c-12.6-5.29-25.6-9.46-39-12.5-10-.42-19.83-.59-29.5-.5-15.02 3.9-29.69 8.56-44 14a2288.12 2288.12 0 0 0-31 0c-14.25-4.3-28.75-9.14-43.5-14.5a1008.09 1008.09 0 0 1-85-42 316 316 0 0 1-30-15c-10.74-4.8-21.41-9.8-32-15a88.7 88.7 0 0 1-17.5-5.5c-1.41 1.42-2.58 1.26-3.5-.5-22.71-2.3-40.87 5.53-54.5 23.5q-22.17 35.49 3 69c19.65 20.47 42.48 24.97 68.5 13.5a34.39 34.39 0 0 0 7.5-6.5c16.03-16.74 15.19-32.57-2.5-47.5-.67-.67-1.33-.67-2 0 3.28 3.45 4.95 7.62 5 12.5q.18 8.25-6 13.5c-8.38 4.38-16.21 3.88-23.5-1.5-7.4-16.83-2.57-28.33 14.5-34.5q16.785-1.74 28.5 10.5 19.155 24.36 3 51c-3.08 5.09-6.92 9.59-11.5 13.5 15.48 1.9 30.82 4.56 46 8 12.17 4.08 23.5 9.75 34 17l16.5 16.5c22.08 33.83 19.92 65.99-6.5 96.5a40.2 40.2 0 0 0-8 7c-20.14 12.46-39.47 10.96-58-4.5-13.56-15.46-13.23-30.62 1-45.5 20.52-6.79 29.68.37 27.5 21.5-1.1 3.44-3.27 5.94-6.5 7.5l-11.5 2.5c-13.21-7.08-14.05-5.24-2.5 5.5l10 6a90.05 90.05 0 0 0 19 0c8.96-3.62 16.13-9.46 21.5-17.5 14.49-30.84 7.66-55.68-20.5-74.5-18.23-9.9-37.39-13.4-57.5-10.5a11.37 11.37 0 0 0-3.5-1.5l-40-1c-8.62-.33-17.12-1.49-25.5-3.5l-1.5 1c16.79 12.18 31.62 26.51 44.5 43 5.1 7.86 9.43 16.19 13 25 5.11 18.16 5.78 36.49 2 55-11.16 29.16-31.83 47.83-62 56-23.78 2.44-42.45-6.22-56-26a88.7 88.7 0 0 1-5.5-22 51.46 51.46 0 0 1 6.5-21c6.51-6.51 14.34-10.17 23.5-11q27.465 3.255 19.5 30c-8.95 10.07-18.28 10.73-28 2-2.92-5.06-3.92-10.4-3-16-6.37 6.23-8.03 13.56-5 22 6.02 15.33 17.36 24 34 26 31.85-5.52 50.85-24.18 57-56 2.15-26.18-7.01-47.35-27.5-63.5-22.48-14.28-46.14-15.78-71-4.5-13.94 9.46-24.11 22.13-30.5 38a690 690 0 0 0-15 94 852 852 0 0 0-9-69c-2.28-26.53-14.11-47.36-35.5-62.5-25.07-12.17-49.4-10.5-73 5q-36.375 30.645-22.5 76.5c9.46 24.65 27.29 38.65 53.5 42 16.05-1.93 27.22-10.26 33.5-25 3.25-9.11 1.58-17.11-5-24 1.3 19.03-7.2 25.87-25.5 20.5-7.52-7.8-8.85-16.63-4-26.5 11.18-11.1 23.18-11.93 36-2.5q11.775 9.825 12 25.5c-3.55 29.47-20.21 45.47-50 48-35.85-3.02-60.01-21.35-72.5-55-7.56-32.98-.9-62.64 20-89 7.5-8.83 15.67-17 24.5-24.5 5.18-3.42 10.18-7.09 15-11q-13.38 1.77-27 3-37.545.375-75 3c-15.94 3.2-29.78 10.36-41.5 21.5-19.45 27.13-17.29 52.29 6.5 75.5a20.05 20.05 0 0 0 9 5 90.05 90.05 0 0 0 19 0c6.95-2.94 12.79-7.44 17.5-13.5q1.005-1.5 0-3c-2.04 2.1-4.54 3.27-7.5 3.5-16.53 1.46-23.37-6.04-20.5-22.5 1.1-3.44 3.27-5.94 6.5-7.5a93.12 93.12 0 0 1 10.5-2.5 93.12 93.12 0 0 1 10.5 2.5c14.33 14.85 14.67 30.02 1 45.5-15.64 13.79-33.3 16.29-53 7.5a94 94 0 0 0-13-10c-21.24-23.27-26.41-49.77-15.5-79.5l10-18a231 231 0 0 0 18.5-17.5 272.78 272.78 0 0 1 28-14 394.67 394.67 0 0 1 49-9c-12.18-11.49-18.34-25.33-18.5-41.5 2.93-19.57 14.09-30.9 33.5-34 20.73 2.84 27.56 14.18 20.5 34q-13.5 10.005-27 0c-3.45-7.61-3.29-15.11.5-22.5-6.49 3.18-10.99 8.34-13.5 15.5-2 7.7-1 15.03 3 22l11.5 13.5q32.325 18.015 63-3c25.69-24.2 28.86-51.03 9.5-80.5-15.49-17.05-34.65-23.55-57.5-19.5a78.2 78.2 0 0 1-16 5l-144 71a280 280 0 0 1-51 15 95.9 95.9 0 0 1-39-4c-33.2-13.64-65.87-12.47-98 3.5q-1.995-12 0-24c20.82-8.6 42.48-12.1 65-10.5a352 352 0 0 1 44 11q18 4.905 36 0a267 267 0 0 1 18-5 701 701 0 0 0 31-18 978 978 0 0 1 35-26c27.74-22.42 55.07-45.42 82-69q-67.74-65.745-79.5-160.5c-5.55-17.77-14.22-33.77-26-48-10.85 25.82-26.01 48.65-45.5 68.5-6.07 5.55-12.4 10.88-19 16a31.2 31.2 0 0 0-6 2.5c-2.75-.6-3.58-2.26-2.5-5 10-8.67 19.33-18 28-28 6.69-9.04 13.03-18.37 19-28a260.6 260.6 0 0 0 15.5-37.5l-6-6c-1.44-.78-2.78-.61-4 .5q-37.71 64.965-108 91.5a241 241 0 0 1-36 10q-15.045 2.34-30 0c-5.5-2.84-8.67-7.34-9.5-13.5q-3.255-20.235 16.5-25.5c57.57-6.28 101.73-33.78 132.5-82.5a74 74 0 0 1 7.5-16.5 38.2 38.2 0 0 0-5.5-8.5c-49.03 62.13-112.87 88.29-191.5 78.5q-3.795-3.12 0-6c53.12 3.66 100.12-11.01 141-44 14.95-13.79 27.62-29.29 38-46.5a84 84 0 0 1-5-9c-22.58 23.62-48.91 41.79-79 54.5-23.46 7.95-46.96 13.11-70.5 15.5l-35.5-3.5c-14.88-4.85-20.04-14.68-15.5-29.5q3.75-6.75 10.5-10.5c53.21 7.12 100.88-5.55 143-38a129.5 129.5 0 0 0 26-28q-1.65-3.69-3-7.5c-.86-1.08-1.86-1.25-3-.5-37.05 31.85-80.05 48.02-129 48.5a545.86 545.86 0 0 1-41-4.5 163 163 0 0 1-32-10.5c-1.13-1.57-1.3-3.24-.5-5 .89-.58 1.89-.91 3-1 65.45 19.42 124.95 8.25 178.5-33.5 5.38-5.04 10.38-10.38 15-16-.97-2.11-1.81-4.28-2.5-6.5-.56-.52-1.23-.86-2-1-25.59 17.07-53.43 27.73-83.5 32-8.29.95-16.46 2.28-24.5 4-19.65-.79-39.82-3.29-60.5-7.5-12.7-2.9-24.53-7.73-35.5-14.5-4.43-6.14-5.76-12.8-4-20q2.895-10.575 13.5-13.5 6-1.005 12 0c55.71 21.49 109.04 16.83 160-14q6.255-5.014 12-10.5a38.2 38.2 0 0 0-3-9c-39.75 20.042-81.58 26.71-125.5 20L-577.5-99a380 380 0 0 1-39-23c-1.68-3.114-.85-5.281 2.5-6.5a291 291 0 0 1 24.5 13.5q83.52 36.777 165-4 6.27-3.882 12-8.5a47 47 0 0 1-1.5-8 3.6 3.6 0 0 0-1.5-1c-21.9 8.834-44.73 12.834-68.5 12-19.35.291-38.52-2.209-57.5-7.5l-28-10a1004 1004 0 0 1-37-21 85.3 85.3 0 0 0-11.5-10.5q-9.345-20.309 10.5-30.5l7.5-1.5c5.23.866 10.06 2.7 14.5 5.5 29.59 22.919 63.25 34.419 101 34.5q35.19-.588 67.5-14c.82-3.382.66-6.716-.5-10-62.02 11.165-117.69-3.002-167-42.5a259 259 0 0 1-31.5-34.5c-1.5-5.167.33-7 5.5-5.5q55.68 67.215 144 69.5c16.67-.334 33-2.834 49-7.5.96-3.394 1.29-6.894 1-10.5-5.3-.218-10.13.449-14.5 2q-35.895-2.943-70.5-13.5c-29.42-11.112-55.25-27.612-77.5-49.5a218 218 0 0 0-14-15 84 84 0 0 0-11-15q-9.39-20.196 10.5-30.5 11.61-3.967 21 4c34.58 49.302 82.25 75.135 143 77.5a332.46 332.46 0 0 1 19-1c.28-3.41.95-6.743 2-10-66.97-8.032-118.14-40.365-153.5-97a337 337 0 0 1-17-39q-2.775-9.23 6-6 31.815 83.327 115.5 112.5 26.22 9.054 54 9.5a128 128 0 0 0 2-11 95.4 95.4 0 0 1-22-5.5c-68.1-27.095-111.93-75.928-131.5-146.5q-2.055-17.154 13.5-24.5c13.03-2.992 21.86 1.841 26.5 14.5 18.88 65.048 61.05 106.382 126.5 124a42 42 0 0 0 3-8.5c-75.05-37.154-114.72-97.321-119-180.5q.555-11.013 1.5-22c1.63-3.072 3.79-3.572 6.5-1.5-1.27 62.081 21.06 113.415 67 154a175.73 175.73 0 0 0 46 26.5q-1.995-10.246-7.5-19c-23.07-20.001-40.91-43.501-53.5-70.5-10.45-22.236-17.11-45.569-20-70-.42-16.469.42-32.969 2.5-49.5-1.06-11.848 2.78-21.681 11.5-29.5q22.245-10.25 31.5 12.5a851 851 0 0 0-4.5 47c2.74 70.034 35.07 120.867 97 152.5q4.245 2.748 9 3c-5.5-13.557-6.34-27.39-2.5-41.5a119.4 119.4 0 0 0 9 27q21.375 30.061 58.5 27.5c19.53 2.695 29.86 13.861 31 33.5a79.5 79.5 0 0 1-2.5 15q-21.675 30.519-9 66c15.81 34.167 42.65 49 80.5 44.5 18.37-3.42 32.53-12.92 42.5-28.5q17.895-32.595 15-70c-13.29 9.87-28.12 13.37-44.5 10.5q53.07-15.832 34.5-68.5c-17.13-45.456-46.79-80.123-89-104q1.935 15.303-3 30a19 19 0 0 1-3 5c1.27-17.296-4.56-31.796-17.5-43.5-14.82-7.158-30.48-11.491-47-13-12.88.436-26.22.436-40 0-14.29.99-27.96 4.323-41 10a102 102 0 0 0-6 7.5c-.5 1.021-1.17 1.188-2 .5-11.95-29.249-4.28-51.582 23-67a178 178 0 0 1 18-4.5c3.94-4.43 8.6-7.93 14-10.5 38.42-13.792 76.76-13.792 115 0a577 577 0 0 0 29 14q14.205 1.479 28.5 1.5a692 692 0 0 1 33.5-.5l-23 25c22.98 20.49 46.14 20.657 69.5.5q1.005 1 0 2L-61.5-512q-7.515 1.881-13.5 6.5l-1-1a58.4 58.4 0 0 1-9.5 3c35.19 35.434 63.36 76.101 84.5 122 21.05-45.835 49.22-86.502 84.5-122q-25.125-4.006-39-25" class="C"/><path d="M-81.5-614.5a60.93 60.93 0 0 1 11 .5 25.6 25.6 0 0 1 4 4.5c1.91-4.074 5.07-5.741 9.5-5 4.42-.591 7.76 1.076 10 5a30 30 0 0 1 2.5-4.5q6-1 12 0a12.1 12.1 0 0 1 3.5 4.5 11.5 11.5 0 0 1 3.5-4.5c3.67-.667 7.33-.667 11 0q3.075 1.395 4.5 4.5 2.34-6.333 9-5c5.09-.794 8.42 1.206 10 6a15.8 15.8 0 0 1 3.5-5.5q6-1 12 0a15.8 15.8 0 0 1 3.5 5.5c.16-2.176 1-4.009 2.5-5.5a28.7 28.7 0 0 1 13 .5l2.5 5q1.035-3.836 4.5-5.5c3.67-.667 7.33-.667 11 0a11.5 11.5 0 0 1 3.5 4.5c2.07-4.037 5.41-5.704 10-5q12.165.772 9 13c-6.33 8-12.67 8-19 0-6.77 7.965-13.1 7.632-19-1-3.63 6.766-8.8 8.266-15.5 4.5-1.39-1.171-2.23-2.671-2.5-4.5-6.43 9.16-12.77 9.16-19 0-5.86 8.756-12.19 9.089-19 1-6.34 7.775-12.67 7.775-19 0q-9.15 11.92-18 0c-6.43 7.827-12.76 7.827-19 0-3.88 4.964-8.72 6.464-14.5 4.5-6.27-5.427-6.61-11.26-1-17.5" fill="#f8c607"/><path d="M-288.5-555.5c9.93-1.892 14.76 2.108 14.5 12-4.11 6.872-9.27 8.372-15.5 4.5-3.71-2.558-4.88-6.058-3.5-10.5q1.995-3.24 4.5-6" class="D"/><path d="M276.5-555.5c11.15-2.342 15.98 1.992 14.5 13q-8.295 11.39-18 1c-1.99-4.983-.82-9.65 3.5-14" fill="#fcf6f1"/><path d="M44.5-528.5q-1.005-2 0 0" fill="#261f1a"/><path d="M-844.5-511.5a76.5 76.5 0 0 1 19 10q-18.06 4.81-25.5 22c-3.95 11.101-.28 18.101 11 21 2.14-.627 4.3-1.127 6.5-1.5a227 227 0 0 0 32-18q25.44-9.814 43.5 10.5 11.52 22.369-3 43c-6.23 7.242-13.56 12.909-22 17a525 525 0 0 1-18.5-11 78 78 0 0 1 15-4.5q12.06-6.553 16.5-19.5c1.65-17.942-6.18-24.109-23.5-18.5a682 682 0 0 1-38 19c-22.04 2.246-34.37-7.921-37-30.5q3.24-25.011 24-39m1628 127q61.515 1.866 123 4.5 4.245.068 7.5 2.5l3.5 9-92 92a89.6 89.6 0 0 1-8-16q13.83-14.079 27-28.5l-17-44.5a446 446 0 0 0-39-2c-.99-4.461-2.65-8.627-5-12.5q1.365-2.121 0-4.5m61 19q8.52-.606 16.5 2c8.92-.942 18.09-1.109 27.5-.5-10.3 10.801-20.96 20.968-32 30.5q-5.985-15.984-12-32m-1760 47q30.405-.322 37.5 29a56.44 56.44 0 0 1 18.5-10.5 226 226 0 0 0 45.5-14.5 120 120 0 0 1-5.5 21 230 230 0 0 0-54.5 19l-4 4-5.5 12.5a618 618 0 0 0 50 15.5 257 257 0 0 1-5 15l-2 1a345.27 345.27 0 0 0-21.5-6l-1 1-89.5-28.5a177 177 0 0 1 15-43.5 120 120 0 0 1 9-9.5q6.325-3.677 13-5.5m-1 19c8.96-.605 16.13 2.729 21.5 10 1.61 9.265.44 18.265-3.5 27l-1 1a650 650 0 0 0-34-10q1.89-18.357 17-28m1874 67l17 96c-.32 1.147-.98 1.981-2 2.5l-14 2.5-6-40a1409 1409 0 0 0-90 14.5 73.5 73.5 0 0 0-11.5 1.5c-1.75-4.624-2.91-9.458-3.5-14.5.09-1.107.42-2.107 1-3a3119 3119 0 0 1 100-16.5 373 373 0 0 0-6-41q7.875.297 15-2" class="C"/><path d="M-208.5-175.5h415l-.5 315C194.89 212.75 156.05 266.91 89.5 302a370 370 0 0 1-34 13c-38.2 9.33-76.87 9-116-1-83.4-29.71-132.73-88.05-148-175z" class="K"/><path d="M-103.5-166.5v116h-96l-.5-115 3-2c2.67 1.333 5.33 1.333 8 0q3 4 6 0c1.85 2.281 3.52 2.281 5 0q3 4 6 0 3 4 6 0c1.53.388 3.19.388 5 0q3 4 6 0c1.85 2.281 3.52 2.281 5 0q1.035 3.586 3 0 3.27-.912 6 2 3-4 6 0c1.48-2.281 3.15-2.281 5 0q3-4 6 0c1.85-2.281 3.52-2.281 5 0q3-4 6 0l3-2c2.07-.242 4.24.091 6.5 1m129 164a73.14 73.14 0 0 1-11-20l1-144c3.5-.503 7.16-.503 11 0l-1 164m22 28a101.67 101.67 0 0 1-11-13l.5-179q4.935-.572 10.5 0zm22 19l-11-8 .5-203q4.935-.572 10.5 0zm21 13l-11-6 .5-218q4.935-.572 10.5 0zm32-174l-11-26q1.8-11.798 0-22.5a20.7 20.7 0 0 1 3.5-2.5l7 1c.5 16.663.67 33.33.5 50" class="B"/><path d="M144.5-64.5a577 577 0 0 1-12-26q1.845-38.582 0-74.5a9.3 9.3 0 0 0 1.5-2.5c3.41.568 6.74.902 10 1l.5 102" fill="#fb2730"/><path d="M165.5-90.5c-2.18 8.876-5.51 17.21-10 25l-1-99.5a20.7 20.7 0 0 1 3.5-2.5l7 1 .5 76m22-51a164 164 0 0 1-10 22 1258.17 1258.17 0 0 1-1-45.5 20.7 20.7 0 0 1 3.5-2.5l7 1c.5 8.327.67 16.66.5 25" class="B"/><path d="M-6.5-166.5l.5 115q.765-1.545 1.5-3a322.47 322.47 0 0 0 3.5-25c2.23 19.93 7.4 38.93 15.5 57a73.14 73.14 0 0 0 11 20 40.91 40.91 0 0 0 11 15 101.67 101.67 0 0 0 11 13 85.31 85.31 0 0 0 11 11l11 8a26.41 26.41 0 0 0 10 7l11 6q4.86 3.405 10.5 6l1.5-83q5.1-12.87 13.5-24c-1.71 9.69-3.87 19.36-6.5 29 2.29 6.38 6.62 8.21 13 5.5 1.89-2.92 2.39-6.08 1.5-9.5a208 208 0 0 1-5-25 398.89 398.89 0 0 1 12.5 21 28.44 28.44 0 0 1 1.5 4c.5-4.32.67-8.65.5-13-.39-13.86-.39-28.03 0-42.5q-1.155-3.615-1.5-7.5a30.1 30.1 0 0 1-6.5 6.5c1.89 2.92 2.39 6.08 1.5 9.5-1.34 3.09-3.5 4.09-6.5 3l-1-6.5c.69-4.39.69-8.72 0-13-2.35-2.804-5.02-3.137-8-1l2.5 2.5c1.18 5.69 1.68 11.02 1.5 16q-3.6 5.91-7.5 0a21.12 21.12 0 0 1 .5-10.5 72.5 72.5 0 0 1-7-7.5l.5-83a177 177 0 0 0 9.5 23l11 26 10 26q5.745 13.296 12 26c1.78 4.57 3.28 9.23 4.5 14a60.21 60.21 0 0 0 6.5-15c4.49-7.79 7.82-16.124 10-25q7.74-13.682 12-29a164 164 0 0 0 10-22q3.915-12.468 10.5-24a1159.69 1159.69 0 0 1-.5 83 74 74 0 0 0-7 7.5c1.13 3.74 1.29 7.58.5 11.5-1.67 1.78-3.5 2.11-5.5 1a34.9 34.9 0 0 1 0-16q-1.5-8.723-9-4.5 2.4 7.23 3 15c-1.12 1.23-1.12 2.4 0 3.5-2.05 3.91-4.22 3.91-6.5 0-.75-3.39-.59-6.73.5-10a86 86 0 0 0-7.5-8q-1.005 31.5 0 63l14-24c-1.44 9.67-3.27 19.34-5.5 29 2.16 6.74 6.49 8.58 13 5.5.63-.75 1.13-1.58 1.5-2.5-1.28-10.74-2.95-21.4-5-32 5.2 7.18 9.36 14.84 12.5 23 0 .67.33 1 1 1 .33 28.17 0 56.17-1 84l-9-22c-2.81-7.61-6.14-14.94-10-22 .16-1.7-.01-3.37-.5-5l-11.5-25c-2.18-8.89-5.51-17.23-10-25-1.78-4.74-3.95-9.74-6.5-15a60.4 60.4 0 0 1-4.5 14q-7.125 12.825-12 27c-3.06 8.45-6.39 16.78-10 25-3.42 8.71-7.09 17.38-11 26-3.12 6.75-6.12 13.58-9 20.5.41.95 1.07 1.61 2 2 3.43.56 6.77 1.39 10 2.5 17.87 6.98 36.54 10.31 56 10v20h-28v-20h-27v20h-28v-20h-28v20h-28v-20c-9.18-.33-18.18.01-27 1-3.23-.91-6.56-1.25-10-1h-151q6.66-1.185 13.5-3l1 1a31.04 31.04 0 0 0 8-3l1 1a71.2 71.2 0 0 0 16.5-6.5c-27.45-.39-54.61-.23-81.5.5a9.2 9.2 0 0 0-2.5-1.5c-.33-38.67 0-77.5 1-116.5h96v-116a1176.92 1176.92 0 0 1 97 0" fill="#fefcfa"/><path d="M-6.5-166.5l2 112q-.735 1.455-1.5 3l-.5-115" class="L"/><path d="M-61.5-154.5l2.5 3 3-3 3 3c2.28-3.912 4.45-3.912 6.5 0q-2.325 5.176-6 1l-3 2q-3.09-3.717-6 0-3.96-3.053 0-6" class="B"/><path d="M-158.5-152.5h3v3h3v-3h3c.55 3.956 1.39 3.956 2.5 0 .67 1.333 1.33 1.333 2 0 .5 8.66.67 17.327.5 26h7v-16c1.64-.02 2.98.647 4 2 1.76-2.523 3.59-2.523 5.5 0l3-2 1.5 1q-.465 7.464 0 15h4v9h-64v-9h5a65 65 0 0 1 1-16c1.76 2.523 3.59 2.523 5.5 0l3 2q1.95-1.81 4.5-2v16h6z" class="M"/><path d="M-59.5-144.5c7.63-.268 13.47 2.732 17.5 9q10.845 21.98-10.5 34.5a531 531 0 0 1-26 2.5c-1.57 2.593-3.9 3.593-7 3v-4h-4v-4h-4c.43-7.224 4.1-9.391 11-6.5q3.435 5.073 9 2.5c-1.57-9.949 2.77-15.449 13-16.5a30 30 0 0 0-9-2q5.865-3.238 0-6.5-4.065 4.233-6-1.5a230 230 0 0 1 16-10.5" class="B"/><path d="M-153.5-141.5h4v6h-4zm-20 5c1.32-.17 2.49.163 3.5 1a18.37 18.37 0 0 1 .5 6h-5c-.2-2.45.13-4.783 1-7m41 0q5.625 1.209 3 6.5a8.4 8.4 0 0 1-4 .5c-.2-2.45.13-4.783 1-7" class="G"/><path d="M-89.5-130.5q15.675.403 10.5 15c-1.7.906-3.53 1.239-5.5 1v-4h-5v-5h-4a8.4 8.4 0 0 1 .5-4c1.52-.663 2.69-1.663 3.5-3" class="B"/><path d="M-976.5-126.5q7.377 1.171 15 1.5a617 617 0 0 1-3 50.5l36 2a1355 1355 0 0 1 3-48l16 1a1670 1670 0 0 0-3 49 1138.85 1138.85 0 0 1 36 2l2-52c5.31.598 10.65.931 16 1l-4 68c-39.7-.64-79.362-2.81-119-6.5l5-68.5" class="C"/><path d="M-20.5-125.5c1.81.271 3.48.938 5 2 1.92 3.579 3.08 7.246 3.5 11l-3 3a7.35 7.35 0 0 0-2-3 88 88 0 0 0-.5-8c-2.14-1.453-3.98-1.12-5.5 1l-1 25c-1.83 2.919-4.49 4.585-8 5q.54 10.686-4.5 20c1.49 3.04.66 5.37-2.5 7-1.72-3.23-3.72-3.56-6-1-2.28-2.56-4.28-2.23-6 1-4.53-4.19-4.03-8.02 1.5-11.5 2.93-.78 5.76-.61 8.5.5 2.15-2.72 1.98-5.22-.5-7.5-9.92-4.764-11.25-11.098-4-19q4.695-1.185 9 1a75 75 0 0 1 6 5.5 7.2 7.2 0 0 0 2.5-2l1-24c1.44-2.942 3.6-4.942 6.5-6" class="B"/><path d="M-145.5-81.5a60.2 60.2 0 0 0-1-14.5q-5.61-7.111-10.5.5-.33 7.125-1.5 14c-8.5.467-16.84-.033-25-1.5 2.1-9.434 3.77-19.267 5-29.5h55l4 31z" fill="#fbc804"/><path d="M-170.5-101.5q4.86 2.556 1.5 7a11.3 11.3 0 0 0-3.5-1.5l2-5.5" fill="#1c78be"/><path d="M-134.5-101.5q3.615 1.77 3 6-5.535-1.03-3-6" fill="#167ac3"/><path d="M-145.5-81.5h-13q1.17-6.875 1.5-14 4.89-7.611 10.5-.5a60.2 60.2 0 0 1 1 14.5" fill="#087fcb"/><path d="M-58.5-97.5h4q-2.685 10.38 6 16.5c-4.74 2.08-8.9 4.92-12.5 8.5-2.12-2.58-4.29-2.58-6.5 0l-3-2c-2.98 2.86-4.98 2.19-6-2q.945-7.756 9-8 4.065.771 7.5 3a9.4 9.4 0 0 1 2.5-1.5q-3.675-2.727-3-7.5c-.18-2.663.49-4.997 2-7" class="B"/><path d="M133.5-31.5l-2 9a398.89 398.89 0 0 0-12.5-21c1.14 8.37 2.81 16.7 5 25 .89 3.42.39 6.58-1.5 9.5-6.38 2.71-10.71.88-13-5.5 2.63-9.64 4.79-19.31 6.5-29q-8.4 11.13-13.5 24c-1-20.83-1.33-41.83-1-63 2.12 2.63 4.46 5.13 7 7.5a21.12 21.12 0 0 0-.5 10.5q3.9 5.91 7.5 0c.18-4.98-.32-10.31-1.5-16l-2.5-2.5c2.98-2.137 5.65-1.804 8 1 .69 4.28.69 8.61 0 13l1 6.5c3 1.09 5.16.09 6.5-3 .89-3.42.39-6.58-1.5-9.5 2.53-1.86 4.69-4.03 6.5-6.5q.345 3.885 1.5 7.5c-.39 14.47-.39 28.64 0 42.5m64-51a815.42 815.42 0 0 0 1 54.5 139.79 139.79 0 0 1-2 7.5c-3.14-8.16-7.3-15.82-12.5-23 2.05 10.6 3.72 21.26 5 32-.37.92-.87 1.75-1.5 2.5-6.51 3.08-10.84 1.24-13-5.5 2.23-9.66 4.06-19.33 5.5-29l-14 24q-1.005-31.5 0-63a86 86 0 0 1 7.5 8c-1.09 3.27-1.25 6.61-.5 10 2.28 3.91 4.45 3.91 6.5 0-1.12-1.1-1.12-2.27 0-3.5q-.6-7.77-3-15 7.5-4.223 9 4.5a34.9 34.9 0 0 0 0 16c2 1.11 3.83.78 5.5-1 .79-3.92.63-7.76-.5-11.5 2.17-2.67 4.5-5.171 7-7.5" class="C"/><path d="M-188.5-75.5c24.16-1 48.49-1.33 73-1v9c-24 .17-48 0-72-.5a33.88 33.88 0 0 0-1-7.5" fill="#fecb01"/><path d="M-22.5-9.5h-5v-16c-1.64-.02-2.98.65-4 2 .01-.94-.49-1.61-1.5-2l-3 2c-1.3-1.21-2.8-1.87-4.5-2v16c-1.97-.24-3.8.09-5.5 1l-1.5-1.5c.7-7.97 1.03-16.31 1-25-.95-.48-1.95-.65-3-.5v3h-3v-3h-3v3h-3c.22-1.18-.11-2.18-1-3-1 8.64-1.33 17.31-1 26-2.69.16-5.35 0-8-.5.06-5.14.4-9.97 1-14.5l-1.5-1c-1.91 2.52-3.74 2.52-5.5 0a9.3 9.3 0 0 1-2.5 2c-1.3-1.21-2.8-1.87-4.5-2v16h-5v9h58a29.7 29.7 0 0 0-3 5h-50c-2.2 10.42-3.7 20.75-4.5 31a153.72 153.72 0 0 0 24.5 1c-1 1.67-2.33 3-4 4h-25v9c4.06.46 8.06.79 12 1a132.88 132.88 0 0 0-19 10.5q-2.91 1.215-6 1.5l.5-112c32.09-1 64.26-1.33 96.5-1a215.3 215.3 0 0 1-16 41" class="B"/><path d="M-238.5-38.5c8.97.48 12.47 5.15 10.5 14q-9 10.005-18 0c-2.43-7.39.07-12.05 7.5-14" class="D"/><path d="M-160.5-37.5c1.59.42 3.09 1.09 4.5 2 1.29-.45 2.45-1.12 3.5-2 1.55 2.42 3.21 2.42 5 0 3.69 1.94 3.52 3.94-.5 6a7.4 7.4 0 0 1-2-3l-3 3-3-3-3 3q-5.04-2.55-1.5-6" class="B"/><path d="M234.5-38.5c6.82-.18 10.49 3.15 11 10-3.6 9.54-9.6 11.38-18 5.5-3.97-8.21-1.64-13.38 7-15.5" fill="#fcf4ee"/><path d="M-22.5-9.5l-6 9h-58v-9h5v-16c1.7.13 3.2.79 4.5 2a9.3 9.3 0 0 0 2.5-2c1.76 2.52 3.59 2.52 5.5 0l1.5 1c-.6 4.53-.94 9.36-1 14.5 2.65.5 5.31.66 8 .5-.33-8.69 0-17.36 1-26 .89.82 1.22 1.82 1 3h3v-3h3v3h3v-3c1.05-.15 2.05.02 3 .5.03 8.69-.3 17.03-1 25l1.5 1.5c1.7-.91 3.53-1.24 5.5-1v-16c1.7.13 3.2.79 4.5 2l3-2c1.01.39 1.51 1.06 1.5 2 1.02-1.35 2.36-2.02 4-2v16z" class="F"/><path d="M144.5-35.5l-.5 102-9 1a11.5 11.5 0 0 1-2.5-2c.96-24.15.96-48.81 0-74q4.875-14.175 12-27" fill="#fb2730"/><path d="M155.5-34.5c4.49 7.77 7.82 16.11 10 25l-.5 76-9 1a4.5 4.5 0 0 1-1.5-2l1-100" class="B"/><path d="M133.5-31.5c.17 4.35 0 8.68-.5 13a28.44 28.44 0 0 0-1.5-4l2-9" fill="#b38324"/><path d="M-157.5-27.5c13.99.16 21.33 7.32 22 21.5-.57 10.25-5.57 17.58-15 22a644 644 0 0 1-26 2.5q-1.815 3.63-6 3v-4h-5v-4c-5.25-.14-6.25-2.31-3-6.5a30.35 30.35 0 0 1 11 0c2.1 3.53 5.1 4.36 9 2.5-2.08-9.33 1.59-15.17 11-17.5l-8-1c3.54-.33 4.71-2.16 3.5-5.5-2.27-1.43-4.27-1.1-6 1-1.08-1.17-1.92-2.5-2.5-4l15-10" class="B"/><path d="M-56.5-24.5c5.06.44 5.89 2.44 2.5 6-.67-1.33-1.33-1.33-2 0-.5-1.97-.66-3.97-.5-6" fill="#2373b5"/><path d="M861.5-23.5l118 4-2 69c-5.01-.25-10.01-.58-15-1v-50c-11.32-.72-22.65-1.05-34-1l-2 48h-16l2-49c-3.94-.29-7.77.04-11.5 1q-2.1-1.095-4.5-1.5c-6.66-.5-13.33-.67-20-.5l-2 52c-1.97-.24-3.8.09-5.5 1-3-1.37-6.16-2.03-9.5-2a891.6 891.6 0 0 1 2-70" class="C"/><path d="M-75.5-19.5c3.09 1 3.76 3 2 6-.82.89-1.82 1.22-3 1-.2-2.45.13-4.78 1-7" class="G"/><path d="M-35.5-19.5h4c-.17 1.32.16 2.49 1 3.5a11.37 11.37 0 0 0-1.5 3.5c-.74-1.14-1.57-1.14-2.5 0-.97-2.24-1.31-4.58-1-7" fill="#107dc8"/><path d="M197.5-19.5a906 906 0 0 1 0 85c-.61-.12-.94-.46-1-1 1-27.83 1.33-55.83 1-84" fill="#e8bea8"/><path d="M-187.5-13.5c5.31-.76 9.15 1.24 11.5 6 1.51 6.01-.65 9.35-6.5 10v-5h-4v-4h-5c-.37-3.43.96-5.77 4-7m68 5q3.225-.195 6 1.5c2.04 2.8 3.71 5.8 5 9-2.64 7.32-5.31 7.32-8 0 3.33-5.08 2.16-6.91-3.5-5.5l-1 25c-1.7 4.38-4.87 6.04-9.5 5 .8 6.43-.36 12.43-3.5 18l-1 8c-1.68 1.1-3.18.77-4.5-1l-3 2c-2.21-2.58-4.38-2.58-6.5 0q-4.98-5.865 1.5-10.5c3.25-1.64 6.58-1.81 10-.5-.08-1.43.25-2.76 1-4-3.22-2.2-6.38-4.53-9.5-7q-7.275-12.975 7.5-15l4 1q2.505 3.495 6 6c1.25-.54 2.41-1.21 3.5-2l1-25c1.02-2.19 2.52-3.85 4.5-5" class="B"/><path d="M2.5 45.5h-6c-18.36-6.41-23.2-18.41-14.5-36a21.8 21.8 0 0 1 7.5-6c.74-1.49 1.41-2.99 2-4.5-1.84-6.74-.67-7.24 3.5-1.5 2.78-3.76 5.45-3.76 8 0l4-4a52.74 52.74 0 0 0 1.5 10c12.27 7.47 15.43 17.8 9.5 31-3.98 5.5-9.15 9.17-15.5 11" fill="#fecb02"/><path d="M-239.5-4.5q15.645.375 10.5 15c-8.44 7.38-14.6 5.72-18.5-5 .92-4.9 3.58-8.23 8-10" class="N"/><path d="M232.5-4.5c11.09.57 14.59 5.9 10.5 16-5.67 5.42-11 5.09-16-1-2.66-6.67-.83-11.67 5.5-15" class="H"/><path d="M-31.5 4.5a121 121 0 0 1-17 20c.24-3.93-1.59-6.26-5.5-7-2.51.61-4.51 1.94-6 4a112.14 112.14 0 0 0-.5 15h-1a153.72 153.72 0 0 1-24.5-1c.8-10.25 2.3-20.58 4.5-31z" class="K"/><path d="M-1.5 9.5c7.79 8.76 7.96 17.76.5 27-3.07-3.98-4.91-8.48-5.5-13.5.99-4.81 2.66-9.31 5-13.5" class="B"/><path d="M-74.5 15.5c3.57.26 4.9 2.26 4 6-1.79.29-3.45-.05-5-1-.11-1.61.22-3.28 1-5" class="G"/><path d="M122.5 16.5c.17 16.67 0 33.34-.5 50-2.47.11-4.97.44-7.5 1-1.14-.97-2.14-2.14-3-3.5.25-6.54.25-13.71 0-21.5 3.91-8.62 7.58-17.29 11-26" class="B"/><path d="M-48.5 24.5q-5.505 6.495-12 12a112.14 112.14 0 0 1 .5-15c1.49-2.06 3.49-3.39 6-4 3.91.74 5.74 3.07 5.5 7" class="G"/><path d="M-153.5 19.5c1-.03 1.66.47 2 1.5-1.34 5.66-.01 10.66 4 15-4.1 2.47-7.93 5.3-11.5 8.5l-3-3q-2.73 5.685-6 0c-2.72 3.73-4.89 3.23-6.5-1.5 4.18-8.27 9.85-9.44 17-3.5 2.62-2.06 2.45-4.06-.5-6a16.17 16.17 0 0 1 0-8q2.475-1.35 4.5-3m331 1c3.86 7.06 7.19 14.39 10 22a286.7 286.7 0 0 1-.5 24l-9 1-1.5-1.5c.62-15.14.96-30.31 1-45.5" class="B"/><path d="M-238.5 29.5c8.32 1.14 11.82 5.81 10.5 14-3.39 5.97-8.23 7.47-14.5 4.5-7.28-7.96-5.94-14.13 4-18.5" class="D"/><path d="M234.5 29.5c12.48 3.74 14.15 10.24 5 19.5-11.27 1.28-15.44-3.55-12.5-14.5 2.17-2.32 4.67-3.99 7.5-5" fill="#fbf4ec"/><path d="M-65.5 40.5l-13 10c-3.94-.21-7.94-.54-12-1v-9z" class="K"/><path d="M111.5 42.5c.25 7.79.25 14.96 0 21.5.86 1.36 1.86 2.53 3 3.5a61 61 0 0 0-10-2.5c-.93-.39-1.59-1.05-2-2 2.88-6.92 5.88-13.75 9-20.5" fill="#f8c509"/><path d="M-3.5 45.5h6v5c9.82-4.56 19.15-3.72 28 2.5-8.94 8.87-18.61 9.7-29 2.5-1.06 5.89-4.23 10.22-9.5 13-1.76-.62-2.92-1.79-3.5-3.5 1.08-2.16 2.41-4.16 4-6-7.2 2.45-14.2 1.78-21-2-3.95-2.33-3.95-4.5 0-6.5 3.65-1.72 7.48-2.72 11.5-3q6.87 1.035 13.5 3z" fill="#00a838"/><path d="M-239.5 64.5c9.38-.57 13.21 3.76 11.5 13q-6.63 9.87-16.5 3a20.6 20.6 0 0 1-3-5.5c.33-2.32 1.16-4.82 2.5-7.5 1.72-1.37 3.55-2.37 5.5-3" class="I"/><path d="M232.5 64.5c10.86-.31 14.69 4.69 11.5 15-6.75 5.64-12.75 4.98-18-2-1.51-6.32.66-10.65 6.5-13" class="H"/><path d="M-978.5 69.5l125 32.5c1.26 1.81 1.26 3.65 0 5.5a206.15 206.15 0 0 0-23 14.5 77 77 0 0 1-9 4 1143 1143 0 0 1-77 47.5 87 87 0 0 1-3-16.5l75-47a1373 1373 0 0 0-86-22.5 416 416 0 0 0-2-18" class="C"/><path d="M-156.5 77.5h151c.29 10.7-.05 21.54-1 32.5-14 .5-28 .67-42 .5h-151q-.855-16.29 0-33h43" class="E"/><path d="M31.5 97.5h-27v-19c8.82-.99 17.82-1.33 27-1zm56 0h-28v-20h28zm55 0h-27v-20h27zm28-20h27v20h-27z" class="B"/><path d="M4.5 97.5h27v13c-9.34.17-18.67 0-28-.5-.32-4.02.02-8.19 1-12.5" fill="#fefefe"/><path d="M31.5 97.5h139v59h-124c.8-15.28 1.14-30.45 1-45.5-5.32-.5-10.66-.67-16-.5z" fill="#0380cd"/><path d="M170.5 97.5h27c.9 6.55.9 13.22 0 20h-27z" class="J"/><path d="M-240.5 98.5c9.49-.68 13.65 3.65 12.5 13-5.51 7.59-11.51 7.93-18 1-2.12-6.17-.29-10.84 5.5-14" class="O"/><path d="M231.5 98.5q13.905-1.71 13.5 12c-4.14 7.65-9.81 8.98-17 4-3.86-6.52-2.7-11.85 3.5-16" class="H"/><path d="M-199.5 110.5h151v33h-149c-1.82-10.87-2.48-21.87-2-33" fill="#fefefe"/><path d="M65.5 109.5c2.21.52 3.71 1.86 4.5 4 1.66 2.93 1.99 5.93 1 9 4.5-2.51 7.67-1.18 9.5 4q-.09 1.86-1.5 3c-2.28-3.54-4.95-3.87-8-1 .42 1.56 1.26 3.06 2.5 4.5q-2.055 4.515 3 6c-1.72.35-3.38.85-5 1.5-.59-.21-1.09-.54-1.5-1-.69 2.05-1.85 3.72-3.5 5l-4.5-5c-7.46.78-7.96-.38-1.5-3.5-.56-.72-.89-1.56-1-2.5 3.15-3.37 2.49-5.7-2-7q-2.64.945-4.5 3c-1.85-4.95-.01-7.95 5.5-9l2 1c.22-4.72 1.89-8.72 5-12" fill="#f3c00e"/><path d="M100.5 109.5c3.99 2.45 5.32 5.95 4 10.5a4.5 4.5 0 0 0 2 1.5c6.46-1.95 9.29.72 8.5 8-3.74-4.15-7.24-3.98-10.5.5 2.97 1.22 3.64 3.22 2 6 6.42 3.13 5.92 4.29-1.5 3.5l-3.5 5a32.6 32.6 0 0 1-3-4.5c-1.63.43-3.13.6-4.5.5a11.37 11.37 0 0 0-3.5-1.5l5-3.5c-1.61-2.66-.95-4.49 2-5.5-2.34-3.8-5.17-4.3-8.5-1.5a3.43 3.43 0 0 1-1.5-2.5 11.17 11.17 0 0 0 1-4.5c2.1-.5 3.93-.83 5.5-1l3 2c-.92-4.48.24-8.81 3.5-13" fill="#f4c10e"/><path d="M135.5 109.5c2.21.52 3.71 1.86 4.5 4l1 9c4.47-2.93 7.64-1.76 9.5 3.5a16 16 0 0 1-1.5 3.5c-2.19-3.63-4.86-3.97-8-1 .42 1.56 1.26 3.06 2.5 4.5-.24.87-.57 1.71-1 2.5l5 3.5q-2.4.405-4.5 1.5l-3-1c-2.33 6.67-4.67 6.67-7 0-2.44.79-4.94.62-7.5-.5a12.74 12.74 0 0 1 6-3c-.56-.72-.89-1.56-1-2.5 3.17-3.66 2.34-6-2.5-7-1.98.49-3.65 1.49-5 3q-2.655-4.275 1.5-7.5c2.04-.93 3.88-1.43 5.5-1.5l2 2 1-10c.7-1.19 1.53-2.19 2.5-3" fill="#f4c10d"/><path d="M170.5 117.5h27v20h-27z" class="B"/><path d="M-.5 120.5h38c.17 19.67 0 39.34-.5 59q-7.305 29.55-37.5 33z" class="J"/><path d="M5.5 183.5a352.5 352.5 0 0 1 0-53 54 54 0 0 0 6 6.5c-2.43 3.01-2.59 6.18-.5 9.5 1.36.88 2.86 1.21 4.5 1a97.67 97.67 0 0 0-.5-14c-.47-1.43-1.3-2.6-2.5-3.5 2.28-3.06 4.78-3.23 7.5-.5.5 5.99.67 11.99.5 18 2.22.32 4.06-.34 5.5-2 .73-2.73.56-5.4-.5-8l5.5-7q1.005 27 0 54c-12.55-28.66-14.72-27.83-6.5 2.5-1.02 6.17-4.35 8.17-10 6a9.2 9.2 0 0 1-1.5-2.5q.03-13.74 3-27c-3.77 6.53-7.27 13.2-10.5 20" class="B"/><path d="M5.5 130.5a352.5 352.5 0 0 0 0 53c-.06.54-.39.88-1 1a379.6 379.6 0 0 1 0-55c.61.12.94.46 1 1" class="L"/><path d="M-240.5 132.5c10.88-.3 14.71 4.7 11.5 15-4.93 5.74-10.09 6.08-15.5 1-4.09-6.53-2.76-11.87 4-16" class="N"/><path d="M232.5 132.5c11.11.58 14.61 5.91 10.5 16-6.55 6.3-12.22 5.3-17-3-.99-6.02 1.18-10.36 6.5-13" class="H"/><path d="M-30.5 150.5a21 21 0 0 1 7-4.5l-5-1q3.84-2.22 0-4.5c-1.63 1.42-2.13 1.09-1.5-1 8.87-8.87 15.87-7.54 21 4 1.14 8.54-2.36 14.38-10.5 17.5l-11 1c-1.27 2.76-2.94 3.09-5 1l1-1-4-1c.46-.41.79-.91 1-1.5-1.23-.78-2.56-1.28-4-1.5 1.68-3.3 4.35-4.3 8-3 1.17.5 2 1.33 2.5 2.5.5-2.31.66-4.64.5-7" class="C"/><path d="M170.5 138.5v-1h27c.17.99-.16 1.66-1 2-8.48-.99-17.15-1.33-26-1" class="L"/><path d="M170.5 138.5c8.85-.33 17.52.01 26 1q-.72 9.135-3 18a138.67 138.67 0 0 0-23-1z" fill="#fefefd"/><path d="M-30.5 150.5c-1.57.97-3.23 1.14-5 .5l1-1-3-1c-1.33-.67-1.33-1.33 0-2-.95-.48-1.95-.65-3-.5v-4c7.05-2.08 10.38.58 10 8" fill="#20191a"/><path d="M846.5 141.5l116 30.5a74.2 74.2 0 0 1-5 14l-106 54q43.71 10.56 87 22.5c-1.36 5.43-3.02 10.77-5 16l-113.5-30c.6-4.92 1.77-9.75 3.5-14.5l106-53-84-22c-1.02-.52-1.68-1.35-2-2.5q1.08-7.605 3-15" class="C"/><path d="M-197.5 143.5h149v33h-142a766 766 0 0 0-8-32.5c.23-.4.56-.57 1-.5" class="B"/><path d="M-5.5 154.5q2.43.435 3 3a51.57 51.57 0 0 0-3 11 6.8 6.8 0 0 1-4 1c.16 2.36 0 4.69-.5 7a20.6 20.6 0 0 0-3 8c-2.52.78-5.19 1.11-8 1a9.2 9.2 0 0 0-2.5-1.5c2.04-4.28 4.88-5.78 8.5-4.5l.5-2a61.3 61.3 0 0 0-6-9.5c2.96-6.96 6.62-7.3 11-1q1.5 1.005 3 0c-.07-2.18.26-4.18 1-6-2.43-2.11-2.43-4.27 0-6.5" fill="#20191a"/><path d="M46.5 156.5h13v20h-13z" fill="#fcf5f1"/><path d="M59.5 156.5h28v20h-28z" class="E"/><path d="M87.5 156.5h28v20h-28z" fill="#fefaf9"/><path d="M115.5 156.5h27v20h-27z" class="E"/><path d="M142.5 156.5h28v20h-28z" class="J"/><path d="M170.5 156.5a138.67 138.67 0 0 1 23 1c-1.3 6.06-2.97 12.06-5 18-5.96 1-11.96 1.33-18 1z" class="B"/><path d="M-235.5 165.5c10.66-1.17 14.83 3.49 12.5 14a11.4 11.4 0 0 1-3.5 4.5q-16.5 3.345-13.5-13.5c1.06-2.16 2.56-3.83 4.5-5" fill="#fdf8f4"/><path d="M-25.5 165.5c1.43 3.11 3.1 6.27 5 9.5-2.77 1.47-5.27 3.3-7.5 5.5q-1.965-3.585-3 0c-1.33-2.67-2.67-2.67-4 0q-4.005-4.005 1.5-7.5c2.85-.91 5.02-.08 6.5 2.5l1-1c-.11-1.68-.61-3.34-1.5-5 .25-1.57.92-2.91 2-4" fill="#201a1a"/><path d="M225.5 165.5c7.67-1.51 12.34 1.49 14 9-.78 8.89-5.44 12.06-14 9.5-1.43-.47-2.6-1.3-3.5-2.5-2.88-6.44-1.71-11.77 3.5-16" class="D"/><path d="M-47.5 206.5h-88c-6.01-.17-12.01 0-18 .5 21.85 34.93 52.18 59.43 91 73.5q2.595.93 4.5 3l1-1c8.92 3.78 18.59 6.11 29 7 1.38-.18 2.21-.85 2.5-2v-72c6.48 2.6 13.15 4.6 20 6v90c-73.53-3.63-129.7-36.96-168.5-100a816 816 0 0 0-11.5-24.5l135.5-.5 3.5 1c1.39 7.55 5.06 13.72 11 18.5-3.99.5-7.99.67-12 .5" class="B"/><path d="M47.5 186.5a2741.36 2741.36 0 0 0 134.5 0c-.84 5.17-2.5 10.17-5 15-31.15 58.52-79.15 93.85-144 106q-5.97 1.665-12 3l-1-1c-5.53.97-10.53 1.63-15 2l-.5-90c15.6-2.22 27.77-9.89 36.5-23 1.94-3.43 3.11-7.09 3.5-11 1.29.24 2.29-.1 3-1" class="C"/><path d="M-222.5 196.5c9.02.52 12.52 5.19 10.5 14-3.03 4.42-7.19 5.92-12.5 4.5-2.56-.69-4.39-2.19-5.5-4.5q-1.005-4.5 0-9c2.17-2.32 4.67-3.99 7.5-5" class="O"/><path d="M218.5 196.5c9.37 1.43 12.53 6.43 9.5 15-4.69 4.36-9.86 5.03-15.5 2-5.43-8.48-3.43-14.14 6-17" class="I"/><path d="M70.5 198.5q7.485.24 15 0c-.62 5.18-2.45 5.85-5.5 2-1.67 2.67-3.33 2.67-5 0-2.08 3.28-3.58 2.61-4.5-2" fill="#e5b118"/><path d="M73.5 205.5c9.73-.11 15.9 4.56 18.5 14 1.36 10.45-2.48 18.28-11.5 23.5-7.33.5-14.66.67-22 .5-.26 3.57-2.26 4.9-6 4v-4q-4.32-1.335-7.5-3c-1.02-4.44.81-6.77 5.5-7 3.37.29 6.03 1.79 8 4.5 1.44.78 2.78.61 4-.5-1.91-7.64 1.09-12.47 9-14.5q-3.12-.285-6-1.5c3.54-1.66 3.71-3.33.5-5-.95.41-1.61 1.07-2 2-1.53-1.23-2.7-2.73-3.5-4.5 5.12-1.87 9.45-4.71 13-8.5" fill="#f9c608"/><path d="M-135.5 206.5q.735 1.455 1.5 3c24.34 23.17 48.17 46.84 71.5 71-38.82-14.07-69.15-38.57-91-73.5 5.99-.5 11.99-.67 18-.5" class="M"/><path d="M-135.5 206.5h29a2746 2746 0 0 0 74 74c1.38 3.38 3.71 5.71 7 7-.29 1.15-1.12 1.82-2.5 2-10.41-.89-20.08-3.22-29-7l-1 1a11.15 11.15 0 0 0-4.5-3 2394 2394 0 0 0-71.5-71q-.765-1.545-1.5-3" fill="#0580cd"/><path d="M-106.5 206.5h30c1.31 3.45 3.64 5.95 7 7.5 14.01 13.87 27.68 28.03 41 42.5.92.63 1.92.96 3 1v30c-3.29-1.29-5.62-3.62-7-7a2746 2746 0 0 1-74-74" class="M"/><path d="M-76.5 206.5h29c1 1.18 1.84 2.52 2.5 4a510 510 0 0 1 19.5 18v29a5.6 5.6 0 0 1-3-1 1273 1273 0 0 0-41-42.5c-3.36-1.55-5.69-4.05-7-7.5" fill="#077fcc"/><path d="M47.5 217.5c10.64-.26 13.97 4.24 10 13.5l-2 .5q-2.325-2.82-6-3v-4h-4c-.33-2.69.33-5.02 2-7" fill="#f4c10d"/><path d="M105.5 222.5c6.41.24 9.58 3.58 9.5 10q-3 7.995-6 0c-.65-1.74-.48-3.4.5-5q-2.265-1.875-4.5 0l-1 21c-1.27 2.72-3.44 4.06-6.5 4 .72 6.02-.61 11.52-4 16.5 1.45 2.49.78 4.33-2 5.5q-2.4-3.705-4.5 0c-1.92-2.47-3.76-2.47-5.5 0-4.05-3.39-3.71-6.56 1-9.5 10.33-.91 10.66-4.08 1-9.5-3.41-10.42.25-14.26 11-11.5a14 14 0 0 1 3 4c1.28.68 2.45.52 3.5-.5q.45-12.045 1.5-24c1.29.24 2.29-.1 3-1" fill="#efbc11"/><path d="M-208.5 226.5q15.195 0 10.5 15c-6.77 5.76-12.77 5.09-18-2-1.59-6.83.91-11.16 7.5-13" class="I"/><path d="M203.5 226.5c10.31 1.3 13.31 6.63 9 16-8.31 5.24-14.31 3.4-18-5.5.33-2.32 1.16-4.82 2.5-7.5a68 68 0 0 0 6.5-3" class="D"/><path d="M77.5 244.5c.88-.13 1.54.2 2 1-2.09 5.64-.76 10.14 4 13.5-2.33 2.17-5 3.83-8 5-1.2.9-2.03 2.07-2.5 3.5l-3-3c-1.55 2.5-3.22 2.5-5 0-2.57 3.89-4.41 3.39-5.5-1.5.66-4.81 3.5-6.97 8.5-6.5q4.05-.465 6 3 .33-3.915-1.5-7.5c.75-1.73 1.25-3.57 1.5-5.5 1.3-.58 2.47-1.25 3.5-2" fill="#f2bf0f"/><path d="M-192.5 254.5c5.27-.93 9.77.4 13.5 4 2.32 12.01-2.51 16.51-14.5 13.5-3.7-3.4-4.87-7.56-3.5-12.5 1.63-1.56 3.13-3.23 4.5-5" fill="#fdf9f5"/><path d="M182.5 254.5c9.64-.79 13.8 3.55 12.5 13a11.4 11.4 0 0 1-3.5 4.5c-12.52 2.64-16.86-2.19-13-14.5l4-3" class="J"/><path d="M-822.5 257.5c2.29-.26 4.46.08 6.5 1q2.715 7.395 4.5 15l-110 39a3.6 3.6 0 0 1-1.5-1 95 95 0 0 0-5.5-14.5l1-1.5 79-27.5c8.92-3.24 17.59-6.74 26-10.5m1139 12h9l.5 94c.93 5.62 4.1 8.12 9.5 7.5 2.12-1.73 3.62-3.9 4.5-6.5l.5-95h10a1617.65 1617.65 0 0 1-1.5 95c-4.08 13.26-12.58 17.09-25.5 11.5a25.11 25.11 0 0 1-6.5-12.5l-.5-94m44 0h9v101c6.22 1.1 12.39 1.1 18.5 0 .5 2.31.66 4.64.5 7h-28zm20 0h34c.35 2.57-.15 4.91-1.5 7-3.33-1.33-6.67-1.33-10 0l-.5 101h-9l-.5-101c-3.49-.68-7.33-1.01-11.5-1a9.83 9.83 0 0 1-1-6m40 0c22.19-1.81 33.19 8.52 33 31 .19 14.44-5.14 26.28-16 35.5 8.66 12.49 13.66 26.32 15 41.5h-9c-.49-13.3-4.65-25.3-12.5-36a645.09 645.09 0 0 0-.5 36c-3.28.28-6.44-.05-9.5-1l-.5-107m10 7c7.28 1.16 11.45 5.49 12.5 13 .88 9.06.55 18.06-1 27q-3.255 8.985-10.5 15a758.46 758.46 0 0 1-1-55m43-7c1.97-.24 3.8.09 5.5 1a2772.12 2772.12 0 0 1 16.5 107 21.15 21.15 0 0 1-9-1c-1.32-6.28-2.32-12.61-3-19-5.04-.33-10.04.01-15 1-1.46 6.25-2.46 12.59-3 19h-8l16-108m1 36c2.89 14.36 5.56 28.86 8 43.5-4.32.5-8.65.67-13 .5 2.76-14.54 4.42-29.2 5-44m-965-35c7.14-.32 14.14.51 21 2.5 6.37 4.05 9.87 9.88 10.5 17.5 1.06 10.46.39 20.79-2 31-4.26 7.92-10.26 14.26-18 19a681.27 681.27 0 0 0-.5 37h-11zm11 7c5.55 1.04 9.05 4.38 10.5 10 3.23 13.68 1.56 26.68-5 39a12.34 12.34 0 0 1-4.5 5 731.25 731.25 0 0 1-1-54m36-7h10v101h18v6h-28zm39 0h9l.5 91c-.06 4.9 2.11 8.23 6.5 10 3.52-1.02 5.69-3.35 6.5-7l.5-94h10l-.5 94c-1.6 8.93-6.93 13.6-16 14-4.28-.54-8.28-1.87-12-4-1.62-4.25-2.96-8.58-4-13l-.5-91m63-1c3.91.48 7.58 1.65 11 3.5a47 47 0 0 1-3.5 5.5q-10.89-5.295-15 6a16.17 16.17 0 0 0 0 8c2.23 6.55 4.9 12.88 8 19 10.21 11.75 15.37 25.42 15.5 41-.46 20.63-10.8 28.8-31 24.5-1.66-.73-2.16-1.89-1.5-3.5l2-4q17.88 7.305 21-12c.67-3.33.67-6.67 0-10-1.75-6.93-4.09-13.59-7-20l-13-21c-4.52-10.72-4.52-21.39 0-32 4.3-2.41 8.8-4.08 13.5-5" class="C"/><path d="M-168.5 278.5c10.93.53 14.27 5.86 10 16-6.2 5.66-11.7 5-16.5-2-1.81-6.7.36-11.37 6.5-14" class="I"/><path d="M161.5 278.5c7.23-.44 11.56 2.9 13 10-2.12 8.06-7.12 10.89-15 8.5-7.01-7.07-6.35-13.24 2-18.5" fill="#fbf3ec"/><path d="M-144.5 300.5c10.16-1.34 14.33 2.99 12.5 13-4.86 6.92-10.53 7.58-17 2q-1.005-6 0-12 2.475-1.35 4.5-3" fill="#fdf8f4"/><path d="M134.5 300.5c4.58-.58 8.75.42 12.5 3q2.67 7.155-1.5 13.5c-5.06 3.04-9.9 2.54-14.5-1.5-2.79-6.09-1.63-11.09 3.5-15m-252 17c8.77-2.22 13.77 1.11 15 10-1.68 7.68-6.35 10.51-14 8.5-4.65-2.9-6.15-7.06-4.5-12.5.93-2.19 2.09-4.19 3.5-6" class="O"/><path d="M106.5 317.5c3.02-.16 6.02 0 9 .5 6.18 5.71 6.51 11.37 1 17-11.07 3.89-15.9.06-14.5-11.5q.9-4.125 4.5-6" fill="#fcf7f3"/><path d="M-87.5 331.5c8.93-2.63 13.93.54 15 9.5-1.3 6.66-5.13 9.83-11.5 9.5-8.63-4.87-9.79-11.2-3.5-19" class="D"/><path d="M74.5 331.5c11.61-2.82 16.45 1.52 14.5 13-2.26 4.26-5.6 6.26-10 6-8.88-4.51-10.38-10.84-4.5-19" fill="#fcf8f3"/><path d="M-54.5 340.5q14.58-1.5 13.5 12c-2.25 6.61-6.75 8.77-13.5 6.5-7.96-6.25-7.96-12.41 0-18.5" fill="#fbf3ec"/><path d="M44.5 340.5c9.99-1.17 14.49 3.16 13.5 13-2.92 5.52-7.42 7.36-13.5 5.5-7.89-6.16-7.89-12.32 0-18.5" fill="#fcf8f3"/><path d="M-21.5 345.5q15.18-3.045 13.5 12c-4.76 6.74-10.6 7.74-17.5 3-3.43-6.48-2.1-11.48 4-15" class="N"/><path d="M11.5 345.5c12.59-1.26 16.59 3.91 12 15.5q-8.835 5.445-16.5-1.5c-2.39-5.98-.89-10.65 4.5-14" fill="#fcf6f1"/><path d="M788.5 345.5c7.72 1.55 14.72 4.72 21 9.5a94.5 94.5 0 0 0-24.5 12.5 86.7 86.7 0 0 0-7 14c-1.01 10.82 3.82 17.15 14.5 19 2.37-.34 4.7-.84 7-1.5 10.53-4.73 20.53-10.4 30-17 15.31-8.67 29.14-6.84 41.5 5.5 8.31 13.77 8.64 27.77 1 42a97 97 0 0 1-16.5 16.5c-1.33.67-2.67.67-4 0a258 258 0 0 1-16-9c10.05-2.7 17.89-8.54 23.5-17.5q4.785-10.56 0-21c-4.17-3.69-9.01-4.86-14.5-3.5-11.57 6.86-23.24 13.52-35 20-16.66 6.4-30.83 2.9-42.5-10.5-5.99-9.85-6.99-20.18-3-31 4.51-12.67 12.68-22 24.5-28" class="C"/><path d="M-2.5 374.5c10.01.99 13.17 6.33 9.5 16-6.39 4.47-12.06 3.8-17-2-1.9-7.21.6-11.88 7.5-14" fill="#f9c508"/><path d="M-767.5 379.5c1.52.01 2.68.68 3.5 2l6.5 11q-14.16 43.53-28.5 87c-2.17 8.82-4.5 17.49-7 26 24.75-15.96 49.92-31.29 75.5-46q5.04 6.315 9 13.5c-33.37 21.44-67.2 42.28-101.5 62.5l-6-10a16.17 16.17 0 0 1 0-8l29-88 5-21a1298 1298 0 0 1-76.5 47l-8-14a753 753 0 0 1 63-38.5l36-23.5" class="C"/><path d="M-2.5 405.5c9.32.13 14.99 4.97 17 14.5-.08 3.38-.92 7.21-2.5 11.5-8.41 7.44-17.08 7.44-26 0-.99-2.81-1.83-5.64-2.5-8.5-.18-9.35 4.48-15.18 14-17.5" fill="#fbc706"/><path d="M-7.5 451.5c4.13-.98 8.47-1.32 13-1 .19 3.95.85 7.78 2 11.5-.6 1.63-.26 3.29 1 5-.02 2.97-.19 6.14-.5 9.5-6.45 6.71-12.45 6.38-18-1-.71-4.01-.21-7.84 1.5-11.5l-1-1 3-11c-.23-.4-.56-.57-1-.5" fill="#f9c508"/><path d="M-14.5 451.5c.65.77.98 1.77 1 3-1.21 5.28-2.04 10.62-2.5 16a49.6 49.6 0 0 0-10.5-10q5.505-5.25 12-9" fill="#f1be10"/><path d="M11.5 451.5c18.03 8.16 26.7 21.99 26 41.5a81.4 81.4 0 0 0-12 18l1 1a27 27 0 0 0-1.5 6.5 47 47 0 0 0-5.5 3.5l3 5c-3.56 2.95-7.56 5.11-12 6.5-1.15-.32-1.98-.98-2.5-2-.83-15.34-.67-30.68.5-46q6.09-4.35 6-12c-.84-7.37-1.84-14.7-3-22" fill="#fac607"/><path d="M-45.5 463.5c10.31-1.97 18.14 1.37 23.5 10 3.19 17.14-3.64 23.64-20.5 19.5-2.39-2.31-3.39-5.14-3-8.5-.48-3.08.52-5.41 3-7-.75 4.09.58 7.59 4 10.5 6.07 1.6 9.4-.73 10-7-1.4-7.93-6.07-10.93-14-9-11.08 8.07-11.75 16.91-2 26.5 2.25 1.19 4.58 2.19 7 3 1.48 4.36 1.15 8.53-1 12.5a11.37 11.37 0 0 0-3.5 1.5c-7.68-4.68-13.68-11.02-18-19-2.07-7.45-1.74-14.78 1-22 3.24-5.43 7.74-9.1 13.5-11" fill="#f7c30b"/><path d="M-451.5 476.5c23.12-.7 45.45 3.13 67 11.5q18 4.995 36 0l21-6.5a263.41 263.41 0 0 1-.5 23c-9.26 4.03-18.76 6.2-28.5 6.5a122.4 122.4 0 0 1-39-3c-14.22-6.1-29.06-9.6-44.5-10.5a132.1 132.1 0 0 0-20.5 2.5 333 333 0 0 0-33 10.5 66.8 66.8 0 0 1 0-23c13.48-6.17 27.48-9.84 42-11m879 0c22.79-.71 44.79 2.96 66 11v23l-35-10.5q-19.5-4.935-39 0l-29 9q-32.97 6.57-64.5-4.5a263.41 263.41 0 0 1-.5-23l21 6.5c10.59 2.8 21.26 3.14 32 1 8.8-2.27 17.47-4.93 26-8 7.83-1.33 15.5-2.83 23-4.5" class="C"/><path d="M-15.5 479.5c1.6 2.1 3.43 4.1 5.5 6q1.005 16.5 0 33a47 47 0 0 0-5.5 3.5c1.95 2.17 2.62 4.5 2 7-3.97 2.6-8.31 4.1-13 4.5a163.8 163.8 0 0 1 0-35c7.55-4.11 11.22-10.44 11-19" fill="#f8c508"/><path d="M696.5 483.5c12.08 7 23.41 15.16 34 24.5 20.38 14.19 40.38 28.85 60 44a7.24 7.24 0 0 1 2 2.5 65.8 65.8 0 0 0-9.5 14L690.5 500a15 15 0 0 1-3-3.5c3.76-3.87 6.76-8.21 9-13m-1155 41a645.09 645.09 0 0 1 36 .5q21.165 5.385 42 12c11.07 2.15 22.07 1.82 33-1 6.65-2.27 13.32-4.44 20-6.5v24a111.8 111.8 0 0 0-24.5 6c-8.39.01-16.89-.16-25.5-.5-15.13-3.08-29.79-6.74-44-11q-19.485-4.785-39 0l-34 10.5c-.33-7.7 0-15.36 1-23 11.47-4.71 23.13-8.38 35-11m879 0a681.27 681.27 0 0 1 37 .5q18.36 4.2 36 10.5c.33 7.7 0 15.36-1 23-16.87-7.03-34.87-11.36-54-13a118.11 118.11 0 0 0-19 2.5 524.75 524.75 0 0 1-44 11q-10.5 1.005-21 0l-29-5.5v-24q18.765 7.56 39 9a92.92 92.92 0 0 0 19-2.5c12.28-4.37 24.61-8.21 37-11.5m-1062 54a63.7 63.7 0 0 1 26 5.5c13.15 8.13 23.32 18.96 30.5 32.5q6.855 16.53 0 33a100.6 100.6 0 0 1-9 14 1239 1239 0 0 0-50.5 52c-3.7 1.69-6.53.69-8.5-3a30.1 30.1 0 0 0-6-7c-.67-.67-.67-1.33 0-2l50-50c2.57-4.91 5.57-9.58 9-14 1.92-6.09 1.59-12.09-1-18-5.68-12.01-14.85-20.18-27.5-24.5a41.82 41.82 0 0 0-20 2 1238 1238 0 0 0-57 58c-.92.37-1.75.87-2.5 1.5l-12.5-12.5c18.97-19.97 38.3-39.64 58-59 6.6-3.97 13.6-6.81 21-8.5m1265 4c2.82-.25 5.49.25 8 1.5l12 14c-6.86-.09-13.86.24-21 1-11.16 3.65-17.82 11.15-20 22.5.46 4.63 2.46 8.47 6 11.5 6.79 2.45 13.79 3.11 21 2 12.1-3.69 24.43-5.69 37-6 21.75 6.33 29.91 20.5 24.5 42.5-3.13 5.43-6.63 10.59-10.5 15.5q-7.47 4.455-15 9c-3.88 1.64-7.88 2.31-12 2-2.93-5.26-6.93-9.6-12-13 12.49-.67 22.99-5.5 31.5-14.5 7.72-13.16 4.06-21.16-11-24-2.53.07-4.86.73-7 2-.41-.46-.91-.79-1.5-1-7.74 1.81-15.24 4.14-22.5 7-6.78.41-13.61-.09-20.5-1.5-17.65-6.8-25.49-19.64-23.5-38.5 6.44-17.28 18.61-27.94 36.5-32m-1068 191c16.97-.04 24.14 8.29 21.5 25-8.2 13.01-18.7 15.17-31.5 6.5-7.24-9.54-6.57-18.87 2-28 2.81-1.09 5.48-2.26 8-3.5m873 2c14.37-2.3 23.04 3.7 26 18-.77 3.01-1.6 6.01-2.5 9-11.72 13.61-23.05 13.28-34-1-3.39-11.53.11-20.2 10.5-26m-662 29q9.495.525 18 4.5L-246 921.5c-.39.93-1.05 1.59-2 2a59.27 59.27 0 0 0-15.5-4l30-115m455 1c3.21-.49 6.04.18 8.5 2L259.5 918c-5.34 3.67-11.34 5.51-18 5.5l-5.5-26-24.5-88.5c3.55-.88 6.89-2.04 10-3.5m-324 25l53 4c-.25 5.01-.58 10.01-1 15a285.34 285.34 0 0 1-38-2c-.65 9.65-.98 19.32-1 29 23.75 1.08 36.75 13.42 39 37q-4.905 42.75-48 37.5c-3.85-.59-7.51-1.76-11-3.5-.59.21-1.09.54-1.5 1l-9-7c-.2-6.01.13-12.01 1-18q13.59 11.925 31.5 10.5c16.41-4.69 21.58-14.85 15.5-30.5-4.64-7.56-11.48-11.39-20.5-11.5-4.72-.78-9.39-.61-14 .5l-1-4 5-58m166 1c30.28-2.55 43.78 11.12 40.5 41-1.93 6.28-5.77 11.11-11.5 14.5 10.35 3.37 16.52 10.53 18.5 21.5 3.07 20.03-4.43 34.19-22.5 42.5-12.51 3.8-24.67 2.97-36.5-2.5a135 135 0 0 1-2.5-19q6.12 1.8 12 4.5c7.34 1.95 14.68 1.95 22 0 11.54-8.53 13.04-18.69 4.5-30.5-1.93-1.6-4.1-2.77-6.5-3.5-4.66-.67-9.32-1.17-14-1.5a314 314 0 0 0-2-15c5.68-1.73 11.34-3.56 17-5.5 8.2-9.29 7.87-18.29-1-27-12.34-4.39-24.17-2.89-35.5 4.5-1.04-6.03-1.21-12.03-.5-18q8.97-3.57 18-6" class="C"/></g></svg>