<svg xmlns="http://www.w3.org/2000/svg" width="1000" height="1000"><path fill="#f5f5f5" d="M0 0h1000v1000H0z"/><g vector-effect="non-scaling-stroke" transform="matrix(1.9385 0 0 1.9385 500.0147 500.0104)"><g fill="#010202"><path d="M-164.395 18.17V55.3c0 8.41-.41 16.82-6.96 23.39-5.52 5.54-14.12 7.38-21.89 7.38-7.78 0-16.37-1.85-21.89-7.38-6.55-6.36-6.96-14.77-6.96-23.39V18.17h17.19v34.87c0 8.62.61 18.05 11.66 18.05s11.66-9.44 11.66-18.05V18.17h17.19zm52.79 25.44V18.17h17.19v66.05h-17.19V57.14h-24.76v27.08h-17.19V18.17h17.19v25.44h24.76zm57.08-5.13l-7.16 21.13h14.32l-7.16-21.13zm-11.87 34.26l-4.5 11.49h-18.21l25.37-66.05h18.62l24.76 66.05h-18.21l-4.3-11.49h-23.53zm87.57-37.54c-3.07-2.67-7.16-4.31-11.46-4.31-3.07 0-7.37 1.85-7.37 5.54 0 3.9 4.71 5.33 7.57 6.36l4.3 1.23c9.21 2.67 16.37 7.39 16.37 18.05 0 6.56-1.64 13.33-6.75 17.85-5.12 4.31-12.07 6.15-18.62 6.15-8.39 0-16.37-2.87-23.12-7.59l7.37-13.95c4.3 3.69 9.41 6.77 15.14 6.77 4.09 0 8.39-2.05 8.39-6.56 0-4.92-6.75-6.56-10.43-7.59-10.84-3.08-17.8-5.95-17.8-18.67 0-13.33 9.62-22.15 22.71-22.15 6.55 0 14.73 2.05 20.66 5.33l-6.96 13.54zm54.02 0c-3.07-2.67-7.16-4.31-11.46-4.31-3.07 0-7.37 1.85-7.37 5.54 0 3.9 4.7 5.33 7.57 6.36l4.3 1.23c9.21 2.67 16.37 7.39 16.37 18.05 0 6.56-1.64 13.33-6.75 17.85-5.11 4.31-12.07 6.15-18.62 6.15-8.39 0-16.37-2.87-23.12-7.59l7.37-13.95c4.3 3.69 9.41 6.77 15.14 6.77 4.09 0 8.39-2.05 8.39-6.56 0-4.92-6.75-6.56-10.44-7.59-10.84-3.08-17.8-5.95-17.8-18.67 0-13.33 9.62-22.15 22.71-22.15 6.55 0 14.73 2.05 20.67 5.33l-6.96 13.54zm34.78-2.46v11.08h19.23v14.36h-19.23v11.49h20.46v14.56h-37.65V18.18h37.65v14.56h-20.46zm48.08 36.92h20.46v14.56h-37.65V18.17h17.19v51.49zm52.38 14.57h-17.18V32.74h-14.12V18.18h45.42v14.56h-14.12v51.49zm-454.83 31.79h488.59V-16.7h-488.59v132.72zm502.1 13.54h-515.4v-159.8h515.4v159.8z"/><path d="M-244.395-30.45h142.2v-142.57h-142.2v142.57zm155.7 13.54h-169v-169.44h169v169.44zm339.64 141.14h-355.6v54.36h355.6v-54.36z"/><path d="M-97.905 171.82h342.3v-41.03h-342.3v41.03zm355.61 13.54h-369.11v-67.7h369.11v67.7zm-473.25-314.48l41.13 25.64-41.13 25.44v-51.08zm50.13 0l41.13 25.64-41.13 25.44v-51.08z"/></g><path d="M-77.235 144.33h6.14l-7.57 9.03 8.18 10.05h-6.34l-6.55-8.21v8.21h-4.91v-19.08h4.91v7.8l6.14-7.8zm8.18 0h4.91l9.21 11.69v-11.69h4.91v19.08h-4.91l-9.21-11.69v11.69h-4.91v-19.08zm26.6 9.23c0 3.28 2.46 5.74 5.32 5.74 3.07 0 5.32-2.46 5.32-5.74 0-2.67-2.46-5.13-5.32-5.13-2.86.01-5.32 2.47-5.32 5.13zm15.96 0c0 6.15-4.5 10.67-10.64 10.67s-10.64-4.31-10.64-10.67c0-5.74 5.11-9.85 10.64-9.85 5.53.01 10.64 3.9 10.64 9.85zm8.8 3.08l4.09-12.31h3.89l3.89 12.31 3.68-12.31h5.11l-6.14 19.08h-5.12l-3.27-11.08-3.89 11.08h-4.91l-5.73-19.08h5.12l3.28 12.31zm26.8 2.67h6.14v4.1H4.195v-19.08h4.91v14.98zm12.69-10.87v3.28h5.52v4.31h-5.52v3.28h5.93v4.1h-10.84v-19.08h10.84v4.1h-5.93zm13.91 10.87h1.02c3.07 0 5.52-1.64 5.52-5.34 0-3.49-2.25-5.33-5.52-5.33h-1.23v10.67h.21zm-4.91-14.98h7.16c5.32 0 9.82 4.31 9.82 9.64 0 5.34-4.5 9.64-9.82 9.64h-7.16v-19.28zm38.26 8.41c0 2.87-.21 5.13-2.05 7.59-1.84 2.67-4.71 3.69-7.98 3.69-5.93 0-10.23-4.1-10.23-10.05 0-6.15 4.3-10.26 10.44-10.26 3.89 0 6.96 1.85 8.59 5.34l-4.71 2.05c-.61-1.85-2.05-3.08-4.09-3.08-3.27 0-4.91 3.08-4.91 6.16s1.84 5.95 5.12 5.95c2.25 0 3.89-1.02 4.09-3.28h-4.09v-3.9h9.82v-.21zm7.16-4.3v3.28h5.73v4.31h-5.73v3.28h5.93v4.1h-10.84v-19.08h10.84v4.1h-5.93zm22.71-4.11h-4.91v19.29h4.91v-19.29zm3.28 0h4.91l9.21 11.69v-11.69h5.11v19.08h-5.11l-9-11.69h-.21v11.69h-4.91v-19.08zm39.48 5.95l-2.05 6.15h4.09l-2.04-6.15zm-3.48 9.85l-1.23 3.28h-5.32l7.37-19.28h5.53l7.16 19.28h-5.32l-1.23-3.28h-6.96zm28.65-9.44c-1.02-1.43-2.66-2.05-4.3-2.05-3.07 0-5.11 2.26-5.11 5.34s2.05 5.13 5.11 5.13c1.64 0 3.27-.82 4.3-2.05v5.95c-1.64.41-2.86.82-4.5.82-2.66 0-5.12-1.02-7.16-2.87s-3.07-4.51-3.07-7.18c0-2.66 1.02-5.13 2.86-6.98s4.5-3.08 7.37-3.08c1.64 0 3.07.41 4.5 1.03v5.94zm10.64 12.72h-4.91v-14.97h-4.09v-4.1h13.09v4.1h-4.09v14.97zm10.85-19.08h-4.91v19.29h4.91v-19.29zm7.56 9.23c0 3.28 2.46 5.74 5.32 5.74s5.32-2.46 5.32-5.74c0-2.67-2.46-5.13-5.32-5.13s-5.32 2.47-5.32 5.13zm15.96 0c0 6.15-4.5 10.67-10.64 10.67s-10.64-4.31-10.64-10.67c0-5.74 5.12-9.85 10.64-9.85 5.53.01 10.64 3.9 10.64 9.85zm2.26-9.23h5.11l9 11.69h.21v-11.69h4.91v19.08h-4.91l-9.21-11.69v11.69h-5.11v-19.08z" fill="#fff"/></g></svg>