<svg xmlns="http://www.w3.org/2000/svg" viewBox="0 0 165 91.3" fill="#041e42"><path d="M73.7 51.8c-1.3 1.1-3.1 1.7-5.3 1.7-2.3 0-4.1-.6-5.4-1.7s-1.9-2.8-1.9-5.2V36h3.8v10.6c0 .5 0 .9.1 1.4.1.4.2.8.5 1.2.3.3.6.6 1.1.8s1.1.3 1.8.3c1.3 0 2.3-.3 2.8-.9s.8-1.5.8-2.8V36h3.7v10.6c0 2.3-.7 4.1-2 5.2zm7-15.8v17h-3.4V36h3.4zm4.9 14a.9.9 0 0 0 .6.6c.2.2.5.3.8.4s.6.1 1 .1c.2 0 .5 0 .8-.1s.5-.1.7-.3c.2-.1.4-.3.5-.5s.2-.4.2-.8c0-.5-.3-.9-1-1.1-.7-.3-1.6-.5-2.8-.8-.5-.1-1-.2-1.4-.4-.5-.1-.9-.3-1.3-.6-.4-.2-.7-.6-.9-.9-.2-.4-.3-.8-.3-1.4 0-.8.2-1.4.5-2 .3-.5.7-.9 1.2-1.2s1.1-.5 1.7-.6 1.3-.2 2-.2 1.3.1 1.9.2 1.2.3 1.7.6.9.7 1.2 1.2.5 1.1.6 1.9H90c0-.7-.3-1.1-.7-1.3s-1-.3-1.6-.3h-.6c-.2 0-.4.1-.6.2s-.3.2-.5.3c-.1.2-.2.4-.2.6 0 .3.1.5.3.7s.5.3.9.5l1.2.3 1.4.3c.5.1 1 .2 1.4.4.5.2.9.4 1.3.6.4.3.7.6.9 1s.3.9.3 1.4c0 .8-.2 1.5-.5 2-.3.6-.8 1-1.3 1.3s-1.1.6-1.8.7l-2.1.2c-.7 0-1.4-.1-2.1-.2s-1.3-.4-1.8-.7a4.04 4.04 0 0 1-1.3-1.3c-.3-.5-.5-1.2-.6-2.1h3.2c.1.7.2 1.1.4 1.3zm9.1-13H98v3.7h2.5V43H98v6.1c0 .6.1 1 .3 1.1.2.2.6.3 1.1.3h.5c.2 0 .3 0 .5-.1V53c-.3 0-.6.1-1 .1h-1c-.5 0-1 0-1.5-.1s-.9-.2-1.2-.4c-.4-.2-.6-.5-.8-.9s-.3-.9-.3-1.5l.1-13.2zM105 50.1c.5.5 1.2.7 2.2.7.7 0 1.3-.2 1.8-.5s.8-.7.9-1.1h3c-.5 1.5-1.2 2.5-2.2 3.2-1 .6-2.2 1-3.6 1-1 0-1.8-.2-2.6-.5s-1.4-.8-2-1.3c-.5-.6-1-1.3-1.3-2.1s-.4-1.7-.4-2.6.2-1.8.5-2.6.7-1.5 1.3-2.1 1.2-1 2-1.4c.8-.3 1.6-.5 2.6-.5s2 .2 2.7.6c.8.4 1.4.9 1.9 1.6s.9 1.5 1.1 2.3c.2.9.3 1.8.2 2.7h-8.9c0 1.3.3 2.1.8 2.6zm3.8-6.5c-.4-.4-1-.7-1.8-.7-.5 0-1 .1-1.3.3-.4.2-.6.4-.9.7-.2.3-.4.6-.5.9s-.1.6-.2.8h5.5c-.1-.9-.4-1.5-.8-2zm8.6-2.9V43l.6-1.1c.3-.3.6-.6.9-.8.4-.2.7-.4 1.1-.5s.8-.2 1.2-.2c.2 0 .5 0 .7.1v3.2c-.2 0-.3-.1-.6-.1h-.6c-.6 0-1.1.1-1.6.3-.4.2-.8.5-1 .8-.3.4-.4.8-.6 1.3-.1.5-.2 1-.2 1.6v5.6h-3.4V40.7h3.5zM73.7 71c-1.3 1.1-3.1 1.7-5.3 1.7-2.3 0-4.1-.6-5.4-1.7s-1.9-2.8-1.9-5.2V55.3h3.8v10.6c0 .5 0 .9.1 1.4.1.4.2.8.5 1.2.3.3.6.6 1.1.8s1.1.3 1.8.3c1.3 0 2.3-.3 2.8-.9s.8-1.5.8-2.8V55.3h3.7v10.6c0 2.3-.7 4-2 5.1zm6.8-11v1.7h.1c.4-.7 1-1.2 1.7-1.6.7-.3 1.4-.5 2.1-.5.9 0 1.7.1 2.2.4.6.2 1 .6 1.4 1 .3.4.6 1 .7 1.6s.2 1.3.2 2.1v7.6h-3.4v-7c0-1-.2-1.8-.5-2.3s-.9-.8-1.7-.8c-.9 0-1.6.3-2 .8s-.6 1.4-.6 2.7v6.5h-3.4V60h3.2zm10-1.9v-2.8h3.4v2.8h-3.4zm3.4 1.9v12.3h-3.4V60h3.4zm5 12.3L94.7 60h3.6l2.6 8.4 2.6-8.4h3.4l-4.2 12.3h-3.8zm11.6-2.9c.5.5 1.2.7 2.2.7.7 0 1.3-.2 1.8-.5s.8-.7.9-1.1h3c-.5 1.5-1.2 2.5-2.2 3.2-1 .6-2.2 1-3.6 1-1 0-1.8-.2-2.6-.5s-1.4-.8-2-1.3c-.5-.6-1-1.3-1.3-2-.3-.8-.4-1.7-.4-2.6s.1-1.8.5-2.6c.3-.8.7-1.5 1.3-2.1s1.2-1 2-1.4c.8-.3 1.6-.5 2.6-.5s2 .2 2.7.6c.8.4 1.4.9 1.9 1.6s.9 1.5 1.1 2.3c.2.9.3 1.8.2 2.7h-8.9c0 1.2.3 2 .8 2.5zm3.8-6.5c-.4-.4-1-.7-1.9-.7-.5 0-1 .1-1.3.3-.4.2-.6.4-.9.7-.2.3-.4.6-.5.9s-.1.6-.2.8h5.5c0-.9-.3-1.6-.7-2zm8.3-2.9v2.3l.6-1.1c.3-.3.6-.6.9-.8.4-.2.7-.4 1.1-.5s.8-.2 1.2-.2c.2 0 .5 0 .7.1V63c-.2 0-.3-.1-.6-.1h-.6c-.6 0-1.1.1-1.6.3-.4.2-.8.5-1 .8-.3.4-.5.8-.6 1.3s-.2 1-.2 1.6v5.6h-3.4V60h3.5zm8.7 9.3a.9.9 0 0 0 .6.6c.2.2.5.3.8.4s.6.1 1 .1c.2 0 .5 0 .8-.1s.5-.1.7-.3c.2-.1.4-.3.5-.5s.2-.4.2-.8c0-.5-.3-.9-1-1.1-.7-.3-1.6-.5-2.8-.8-.5-.1-1-.2-1.4-.4-.5-.1-.9-.3-1.3-.6-.4-.2-.7-.6-.9-.9-.2-.4-.3-.8-.3-1.4 0-.8.2-1.4.5-2 .3-.5.7-.9 1.2-1.2s1.1-.5 1.7-.6 1.3-.2 2-.2 1.3.1 1.9.2 1.2.3 1.7.6.9.7 1.2 1.2.5 1.1.6 1.9h-3.2c0-.7-.3-1.1-.7-1.3s-1-.3-1.6-.3h-.6c-.2 0-.4.1-.6.2s-.3.2-.5.3c-.1.2-.2.4-.2.6 0 .3.1.6.3.7.2.2.5.3.9.5l1.2.3 1.4.3c.5.1 1 .2 1.4.4.5.2.9.4 1.3.6.4.3.7.6.9 1s.3.9.3 1.4c0 .8-.2 1.5-.5 2-.3.6-.8 1-1.3 1.3s-1.1.6-1.8.7l-2.1.2c-.7 0-1.4-.1-2.1-.2s-1.3-.4-1.8-.7a4.04 4.04 0 0 1-1.3-1.3c-.3-.5-.5-1.2-.6-2.1h3.2c.1.7.2 1 .3 1.3zm9.1-11.2v-2.8h3.4v2.8h-3.4zm3.4 1.9v12.3h-3.4V60h3.4zm1.6-3.7h3.4V60h2.5v2.3h-2.5v6.1c0 .6.1 1 .3 1.1.2.2.6.3 1.1.3h.5c.2 0 .3 0 .5-.1v2.6c-.3 0-.6.1-1 .1h-1c-.5 0-1 0-1.5-.1s-.9-.2-1.2-.4c-.4-.2-.6-.5-.8-.9s-.3-.9-.3-1.5V56.3zM157.5 76c-.7.4-1.6.6-2.7.6h-1c-.3 0-.7-.1-1-.1v-2.8c.3 0 .6.1 1 .1h1c.4 0 .8-.2 1-.5a1.69 1.69 0 0 0 .3-1c0-.3 0-.5-.1-.8L151.6 60h3.6l2.8 8.4 2.7-8.4h3.5L159 73.9c-.3 1-.8 1.7-1.5 2.1zM61.1.9h-7.5s8 .9 13.1 11.3h7.5C69.1 1.8 61.1.9 61.1.9zm13.2 11.3C76.2 7.8 77.7 2.4 85.4.9h-9.1c-1.9.3-3.5 1.1-4.8 1.9-.2.1-.4.3-.6.4 0 0 3.8 3.2 3.4 9zm-41.6 6.2v53.8c0 4.3 1.3 7.8 3.7 10.1 2.9 2.5 8.9 4.2 14.7 4.2 3.8 0 7.3-.5 10.2-1.5 2.7-.9 4.9-2.3 6.6-4 0 0 .1-.1.2-.1v.2c-.7.9-2.4 2.9-6.6 5.2-5.7 3.2-11.4 4.6-19.3 4.6C28.5 90.8 15.9 86 10 78.5c-2.3-3-3.3-5.8-3.3-11.6V9.1c0-3.7-2.3-6.8-5.5-8.2h17.2c4.5 0 14.3 4 14.3 17.5z"/></svg>