<svg xmlns="http://www.w3.org/2000/svg" width="797.48" height="544.252" viewBox="0 0 211 144"><path d="M15.054 13.101h41.33v41.33h-41.33zm47.809.188h41.33v41.33h-41.33zm47.366-.06h41.33v41.33h-41.33zm48.067-.442h41.33v41.33h-41.33z" paint-order="stroke fill markers" fill="#fff" stroke="#000" stroke-width=".013"/><path d="M13.892 33.741V12.11h43.262v43.262H13.892zm23.057 13.766 2.557-.398c.183-.035.382-.1.443-.145s.249-.115.418-.155c1.127-.269 2.811-1.349 3.99-2.557.548-.562 1.512-1.932 1.512-2.149 0-.065.04-.119.088-.119s.154-.187.234-.415l.282-.747c.639-1.557.648-1.709.689-11.26l.037-8.826-3.182.029-3.182.029-.059 8.354-.183 8.741c-.386 1.211-.75 1.835-1.5 2.57-1.389 1.363-4.753 1.57-6.468.399-.872-.595-1.391-1.294-1.918-2.582-.229-.56-.258-1.384-.319-9.183l-.065-8.298h-6.418l-.029 8.077c-.029 8.115.038 9.907.409 10.843.048.122.18.52.293.885.217.701.707 1.745.848 1.807.046.02.084.089.084.152 0 .197 1.081 1.585 1.586 2.037 1.157 1.036 2.589 1.903 3.614 2.191.152.043.376.119.498.169.502.208 1.202.345 2.339.459.661.066 1.223.141 1.248.165.085.083 1.135.046 2.154-.075zM61.69 33.741V12.11h43.262v43.262H61.69zm14.136 5.706.028-7.461.523.711c.288.391.586.777.663.857s.14.18.14.221.125.22.277.397.276.354.276.394.089.169.198.287.718.936 1.353 1.819l1.296 1.751c.078.08.141.183.141.228s.089.178.197.296.663.862 1.232 1.653l1.12 1.533c.047.052.447-.396.889-.996l1.449-1.942c.355-.469.645-.9.645-.959s.041-.124.092-.144.558-.684 1.127-1.475l1.402-1.892c.201-.25.366-.507.366-.572s.037-.134.083-.155.394-.457.775-.97l.692-.933.002 7.295.091 7.435c.069.109.792.133 3.235.111l3.146-.029.028-13.084.028-13.084h-6.17l-.648.968-2.413 3.513-2.007 2.932-1.216 1.77-1.121 1.644-.388.592-.214-.352a6 6 0 0 0-.322-.482c-.149-.179-1.434-2.024-2.249-3.228l-.762-1.106a102 102 0 0 1-1.075-1.549l-1.218-1.77-1.133-1.632-.902-1.3h-6.044v13.038l.075 13.113c.041.041 1.473.062 3.181.046l3.106-.029zm33.663-5.706V12.11h43.262v43.262h-43.262zm23.809 13.76a1.2 1.2 0 0 1 .466-.096c.343 0 1.143-.256 1.923-.616.321-.148.632-.269.692-.269s.108-.038.108-.084.15-.15.334-.232.396-.206.47-.277.391-.33.703-.576c1.575-1.24 2.777-3.263 3.248-5.47.24-1.124.054-3.741-.342-4.813-.863-2.336-2.441-4.05-4.694-5.098-.982-.457-1.203-.525-2.7-.833-.575-.118-1.063-.233-1.085-.255-.051-.051 1.1-1.879 1.214-1.928.047-.02.085-.09.085-.156s.116-.273.258-.461.401-.591.576-.896.345-.578.378-.609.156-.23.274-.443.242-.412.277-.443.113-.139.174-.242a112 112 0 0 1 .865-1.366c.415-.649.728-1.249.695-1.335-.049-.128-.65-.155-3.493-.155-3.141 0-3.45.017-3.63.196-.108.108-1.241 1.851-2.517 3.872l-2.739 4.312c-.23.35-.447.724-.483.83s-.104.194-.15.194-.114.087-.15.194c-.066.197-.299.591-.408.692-.166.152-1.757 2.797-2.03 3.375l-.42.869c-.188.362-.335 2.303-.266 3.508.063 1.093.267 2.192.502 2.704l.297.664c.107.243.223.467.256.498s.156.226.273.435c.492.883 1.865 2.238 2.956 2.918a9.66 9.66 0 0 0 4.633 1.511c1.11.088 3.185.015 3.45-.121zm-2.897-5.704c-.687-.058-1.761-.588-2.197-1.084-.363-.414-.658-.985-.888-1.724-.357-1.142.159-2.76 1.16-3.638.761-.668 1.291-.835 2.653-.835 1.128 0 1.275.025 1.85.316.713.361 1.395 1.048 1.732 1.746.181.376.233.699.237 1.496.005.891-.032 1.094-.298 1.636-.788 1.609-2.125 2.266-4.249 2.088zm26.776-8.056V12.11h43.262v43.262h-43.262zm16.929 9.521v-3.59l3.679-.048c2.023-.026 3.953-.099 4.287-.162.813-.151 1.555-.337 1.826-.456l.659-.291c.661-.292 1.485-.845 2.154-1.447s1.889-2.097 1.889-2.316c0-.078.041-.158.092-.179.128-.052.628-1.144.827-1.807.35-1.167.426-1.786.379-3.098-.057-1.59-.183-2.217-.688-3.43-.375-.902-.448-1.051-.514-1.051-.039 0-.1-.087-.136-.194-.065-.193-.296-.587-.406-.692-.032-.03-.223-.267-.424-.526s-.428-.47-.503-.47-.258-.129-.406-.286c-.428-.456-1.649-1.306-2.37-1.65-.9-.429-.99-.46-1.903-.658-.674-.146-1.867-.173-7.773-.173h-6.976V46.85h6.306zm0-13.172v-3.707l3.292.002c2.383.001 3.399.041 3.679.142 1.038.377 1.633.904 2.158 1.91.302.579.332.733.332 1.706 0 .956-.033 1.136-.316 1.694-.349.69-.705 1.092-1.289 1.455-.741.46-1.145.505-4.577.505h-3.279z" fill="#d84b2b"/><path d="M45.19 129.617c0-.039.403-.982.895-2.096l.895-2.275c0-.21-3.237-7.241-4.323-9.39l-.339-.671h1.716l1.873 4.105c1.03 2.258 1.915 4.066 1.965 4.017s.86-1.876 1.799-4.061l1.707-3.972.83-.054.83-.054-1.697 3.903-3.147 7.26-1.45 3.357h-.779c-.428 0-.779-.032-.779-.071zm-16.241-4.581c-3.125-1.579-3.915-5.777-1.577-8.377 1.127-1.253 2.28-1.737 4.121-1.73 1.707.006 2.743.403 3.793 1.453 1.15 1.15 1.4 1.848 1.399 3.906-.001 1.953-.149 2.399-1.191 3.585-1.027 1.17-1.981 1.585-3.813 1.659-1.526.062-1.685.033-2.733-.496zm4.514-1.34c2.255-1.32 2.562-4.74.581-6.479-.844-.741-1.733-1.014-3-.923-2.456.178-4.082 2.63-3.387 5.109.304 1.084 1.588 2.42 2.595 2.698.975.269 2.358.095 3.212-.405zm24.702 1.683a2.9 2.9 0 0 1-.96-.546c-.806-.75-.915-1.345-.915-4.987v-3.408h-2.148v-1.254h2.148v-3.58h1.432v3.58h3.58v1.254H57.7l.056 3.418.056 3.418.502.432c.535.46 1.371.562 2.158.262.399-.152.465-.112.638.385.281.805.277.811-.711 1.023-1.041.223-1.478.224-2.235.004zm7.505-.099c-1.032-.366-2.147-1.378-2.711-2.461-.414-.795-.48-1.139-.484-2.531-.004-1.343.066-1.756.422-2.481.961-1.957 2.489-2.883 4.763-2.887 1.209-.002 1.591.075 2.453.498 1.623.797 2.65 2.558 2.65 4.545v.773h-8.914l.132.582c.439 1.94 1.84 3.002 3.948 2.994 1.053-.004 2.099-.493 2.827-1.322.563-.641.61-.659 1.207-.462.342.113.621.268.621.345s-.339.525-.754.997c-1.086 1.234-2.191 1.7-3.99 1.684-.788-.007-1.764-.13-2.169-.274zm5.554-5.77c.186-.301-.284-1.485-.84-2.118-.726-.827-1.467-1.132-2.751-1.132-1.411 0-2.459.531-3.126 1.583-.284.448-.517 1.041-.517 1.317v.502h3.57c1.964 0 3.612-.068 3.664-.151zm6.284 5.642c-1.865-.907-2.976-2.663-3.003-4.749-.03-2.314.97-4.048 2.874-4.983.875-.429 1.235-.501 2.457-.491.889.008 1.679.12 2.084.296.807.352 2.059 1.465 2.409 2.143.252.487.244.515-.202.685-.745.283-1.045.199-1.426-.4-.761-1.197-2.963-1.768-4.437-1.151-.755.316-1.819 1.509-2.097 2.35-.354 1.073-.157 2.612.464 3.616a3.76 3.76 0 0 0 5.129 1.26c.467-.274.969-.729 1.114-1.011.252-.487.299-.504.965-.335.542.138.681.249.616.497-.147.561-1.128 1.603-1.983 2.103-.703.412-1.075.495-2.449.546-1.424.053-1.729.008-2.515-.375zm41.043.161c-1.161-.414-2.143-1.302-2.789-2.519-.417-.787-.475-1.101-.475-2.596 0-1.93.289-2.695 1.461-3.867 2.105-2.105 6.172-1.883 7.882.429.613.83.592 1.153-.089 1.353-.553.162-.628.13-1.136-.487-.76-.922-1.712-1.366-2.927-1.366-2.671 0-4.413 2.521-3.649 5.282.277 1 1.624 2.315 2.665 2.601 1.496.411 3.624-.371 4.15-1.525.169-.371.247-.393.838-.231.833.227.814.198.501.795-.393.75-1.351 1.603-2.266 2.017-.957.433-3.109.493-4.164.116zm-104.693-7.189v-7.266l3.894.061c3.579.056 3.952.093 4.61.447 2.837 1.527 3.464 5.205 1.27 7.462-1.132 1.165-1.93 1.37-5.331 1.37H15.47v5.192h-1.612zm8.295.051c1.62-1.237 1.765-3.233.349-4.8-.822-.91-1.428-1.052-4.482-1.053l-2.551-.001v6.47l3.014-.057c2.986-.056 3.019-.061 3.671-.558zm16.949-.304v-7.52h1.612v15.04h-1.612zm47.625 0v-7.52h1.612v6.39l.719-.684c1.928-1.835 5.194-1.516 6.524.636l.544.881.057 3.909.057 3.909h-1.424l-.063-3.536c-.069-3.834-.167-4.267-1.147-5.037-1.018-.8-2.913-.705-3.942.198-1.207 1.059-1.325 1.518-1.325 5.145v3.23h-1.612zm12.354 2.417v-5.103h1.432v1.684l.671-.643c1.083-1.038 1.746-1.302 3.282-1.306 1.199-.003 1.458.059 2.228.535a3.37 3.37 0 0 1 1.329 1.427c.442.857.459 1.019.515 4.698l.058 3.81h-1.42l-.07-3.447c-.077-3.822-.229-4.441-1.272-5.183-1.301-.926-3.539-.481-4.486.893-.664.963-.826 1.939-.83 5.007l-.004 2.73h-1.432zm12.354 0v-5.103h1.432v10.206h-1.432zm-.077-7.533c-.659-.659-.053-1.768.906-1.657.319.037.599.23.766.53.236.423.232.521-.043.94-.356.543-1.178.637-1.629.187m-77.757-9.325c-1.084-.384-2.427-1.661-2.929-2.787-.32-.718-.422-1.268-.423-2.288-.003-2.198.943-3.79 2.855-4.804.777-.412 1.108-.475 2.507-.475s1.729.063 2.507.475c1.91 1.013 2.848 2.596 2.845 4.804-.001 1.012-.104 1.575-.418 2.288-.512 1.162-1.844 2.405-2.997 2.798-1.032.352-2.937.346-3.946-.011zm4.268-1.766a4.6 4.6 0 0 0 1.188-1.34c.368-.689.421-1.004.371-2.176-.052-1.204-.127-1.465-.622-2.148-.854-1.178-1.83-1.625-3.391-1.551-.991.047-1.414.158-1.928.506-2.508 1.698-2.357 5.63.268 6.962.636.323 1.018.385 2.067.339 1.087-.048 1.405-.14 2.045-.591zm20.748 1.895c-1.423-.433-2.819-1.782-3.298-3.187-.368-1.08-.359-2.979.018-4.087.198-.582.615-1.196 1.23-1.81 1.14-1.14 2.399-1.583 4.105-1.446 1.276.102 2.07.461 3.004 1.355l.671.643v-1.864h1.432v10.384h-1.432v-1.824l-.877.788c-.482.434-1.197.884-1.587 1.001-.782.234-2.564.259-3.266.046zm3.609-1.639c.813-.412 1.714-1.483 1.945-2.311.759-2.729-1.056-5.192-3.826-5.192-3.499 0-5.183 4.166-2.733 6.76 1.208 1.279 2.991 1.566 4.614.744zm47.007 1.559c-1.807-.672-2.982-2.015-3.361-3.84-.707-3.408 1.387-6.379 4.663-6.613 3.142-.225 5.295 1.593 5.516 4.658l.087 1.209h-8.868l.106.652c.245 1.508 1.579 2.664 3.31 2.869 1.286.152 2.319-.21 3.246-1.136.723-.723.855-.787 1.332-.651.291.084.561.247.6.364.105.316-1.353 1.817-2.183 2.247-.93.482-3.437.618-4.448.242zm5.397-5.931c.118-.118-.377-1.426-.728-1.927-.915-1.304-3.306-1.691-4.851-.786-.89.522-1.734 1.719-1.734 2.462v.432l3.625-.059c1.994-.032 3.653-.087 3.688-.122m6.83 6.012c-1.248-.38-2.482-1.448-3.153-2.731-.469-.895-.549-3.263-.152-4.46.444-1.336 1.838-2.716 3.133-3.1 1.944-.577 3.782-.216 5.052.992.401.382.757.694.79.694s.06-1.45.06-3.223v-3.223h1.432v15.04h-1.432v-.895c0-.492-.046-.895-.101-.895s-.314.253-.575.563c-.734.872-2.056 1.406-3.442 1.39-.64-.008-1.366-.075-1.613-.15zm3.605-1.635c3.386-1.728 2.392-7.159-1.369-7.471-1.411-.117-2.084.067-2.947.806-2.105 1.802-1.879 5.082.455 6.612 1.009.661 2.624.684 3.86.053zM13.858 96.296v-7.251h1.562l2.666 3.841c1.466 2.113 2.706 3.844 2.755 3.847s1.289-1.725 2.755-3.841l2.665-3.847h1.562v14.502h-1.606l-.047-5.834-.047-5.834-2.594 3.686c-1.427 2.027-2.635 3.683-2.686 3.679s-1.26-1.668-2.688-3.697l-2.596-3.69-.047 5.846-.047 5.846h-1.606zm29.542-.269v-7.52h1.432v6.488l.723-.723c2.106-2.106 5.67-1.567 6.87 1.039.33.716.378 1.221.433 4.521l.062 3.715h-1.642v-3.453c0-3.229-.026-3.504-.403-4.239-.558-1.088-1.332-1.479-2.768-1.397-.916.052-1.23.159-1.778.602-1.256 1.016-1.4 1.53-1.463 5.219l-.056 3.268H43.4zm25.245 2.328v-5.192h1.612v1.612l.676-.676c1.578-1.578 4.573-1.433 5.708.277l.389.586.388-.545c1.125-1.58 4.364-1.899 5.927-.583 1.152.969 1.313 1.66 1.382 5.91l.062 3.805h-1.642v-3.497c0-3.775-.096-4.285-.956-5.078-.563-.519-1.995-.712-2.803-.378-.727.301-1.551 1.273-1.781 2.099-.103.372-.188 2.066-.189 3.765l-.001 3.088h-1.4l-.063-3.626c-.053-3.062-.113-3.717-.383-4.215-.846-1.559-3.078-1.746-4.367-.365-.824.883-.949 1.535-.949 4.977v3.229h-1.612zm18.978 0v-5.192h1.432v1.692l.534-.584c1.539-1.685 4.471-1.691 5.787-.01l.473.604.515-.563c.712-.779 1.527-1.161 2.702-1.267 1.468-.132 2.475.201 3.345 1.105 1.012 1.053 1.147 1.744 1.147 5.906v3.502h-1.394l-.064-3.536c-.057-3.142-.105-3.614-.431-4.236-.446-.852-1.331-1.359-2.369-1.359-1.426 0-2.532.961-2.889 2.51-.102.441-.187 2.111-.189 3.712l-.004 2.909h-1.432v-3.336c0-3.667-.136-4.441-.913-5.185-1.021-.978-3.059-.726-3.963.49-.745 1.002-.854 1.632-.854 4.925v3.107h-1.432zm53.794 4.53c-.62-1.462-5.325-13.232-5.408-13.527-.074-.265.038-.313.725-.313h.812l2.452 6.193c1.348 3.406 2.514 6.125 2.589 6.043s1.211-2.869 2.522-6.193l2.385-6.043h1.696l-2.902 7.206-2.902 7.206-.84.054c-.821.053-.847.038-1.129-.627zm9.407-6.589v-7.251h1.612v14.502h-1.612zM99.798 85.901c0-.055.403-1.025.895-2.156s.895-2.154.895-2.274-1.047-2.429-2.328-5.132l-2.328-4.977c0-.034.376-.038.836-.008l.836.055 1.876 4.083c1.032 2.245 1.94 4.018 2.018 3.939s.9-1.916 1.826-4.083l1.685-3.939.835-.055.835-.055-.416.95-3.18 7.35-2.764 6.4-.761.001c-.419.001-.761-.044-.761-.099zm-82.09-4.258c-2.18-.721-3.366-2.022-3.827-4.2-.119-.563-.201-2.84-.201-5.595v-4.646h1.612v4.712c0 5.538.11 6.15 1.325 7.365.57.57 1.004.822 1.71.991 1.778.427 3.79-.092 4.663-1.201.925-1.176.963-1.424 1.036-6.809l.068-5.058h1.422l-.054 5.416-.054 5.416-.476.895c-1.026 1.928-2.54 2.807-4.984 2.896-.93.034-1.801-.037-2.238-.182zm40.895-.038c-1-.308-2.365-1.472-2.901-2.474-.336-.628-.395-1.023-.395-2.619 0-2.107.176-2.616 1.318-3.82 1.125-1.185 1.839-1.461 3.785-1.461 1.541 0 1.789.048 2.633.516 1.43.792 2.295 2.248 2.408 4.049l.061.985-4.431.048-4.431.048.004.4c.013 1.341 1.433 2.86 2.973 3.179 1.574.327 2.731-.023 3.817-1.153.666-.693.812-.737 1.534-.462l.474.18-.556.756c-.642.872-1.745 1.666-2.676 1.925-.903.251-2.641.204-3.617-.096zm5.388-6.173c0-.644-.467-1.507-1.132-2.091a3.694 3.694 0 0 0-4.899.001c-.604.531-1.297 1.713-1.306 2.23-.003.172.847.224 3.666.224 3.57 0 3.67-.01 3.67-.364zm13.248 6.293c-1.325-.429-2.502-1.311-2.984-2.235-.303-.58-.199-.745.568-.902.47-.096.587-.032.939.514.718 1.114 2.523 1.742 3.924 1.365 1.72-.463 2.264-2.116.924-2.808-.289-.15-1.338-.513-2.331-.808-2.281-.678-3.109-1.101-3.452-1.764-.991-1.917.755-3.933 3.416-3.942 1.723-.006 3.046.601 3.935 1.806l.442.6-.668.231c-.646.224-.682.214-1.081-.295-.938-1.199-3.32-1.449-4.355-.457-1.134 1.086-.524 1.792 2.246 2.601 3.356.98 4.028 1.497 4.028 3.103 0 1.839-1.463 3.015-3.849 3.096-.689.023-1.455-.023-1.702-.103zM28.36 76.512V71.32h1.612v1.682l.582-.562c1.745-1.686 4.731-1.739 6.257-.113.945 1.008 1.039 1.515 1.039 5.612v3.766h-1.406l-.058-3.626c-.054-3.402-.083-3.666-.464-4.278q-.762-1.228-2.54-1.228c-1.036 0-1.664.268-2.372 1.014-.915.963-1.039 1.559-1.039 4.979v3.139h-1.612zm12.354 0V71.32h1.612v10.384h-1.612zm6.084 1.388-2.258-5.202-.599-1.397.834.054.834.054 1.803 4.244c.992 2.334 1.857 4.187 1.921 4.118s.907-1.999 1.872-4.288l1.755-4.163h.788c.674 0 .772.045.675.313-.062.172-1.057 2.507-2.212 5.188l-2.1 4.875-.828.004-.828.004zm21.13-1.388V71.32h1.432v1.626l.671-.704a3.58 3.58 0 0 1 2.596-1.101c.455-.001.492.053.492.715 0 .7-.014.716-.632.716-1.393 0-2.525.933-2.93 2.417-.108.394-.196 2.066-.197 3.715l-.001 2.999h-1.432zm17.188 0V71.32h1.612v10.384h-1.612zm6.875 4.937c-.305-.133-.748-.553-.985-.933-.409-.658-.433-.86-.491-4.227l-.061-3.536h-1.938v-1.432h1.97v-3.58h1.612v3.58h3.403v1.432h-3.402v6.742l.458.43c.472.443 1.282.551 2.244.299.412-.108.484-.053.651.491.18.587.165.62-.356.802-.75.261-2.435.226-3.104-.066zM40.927 69.228c-.434-.173-.607-.959-.311-1.41.373-.569.922-.705 1.451-.358 1.088.713.091 2.26-1.139 1.768zm44.283-.169c-.441-.441-.284-1.342.29-1.662.422-.236.521-.231.94.043.85.557.484 1.91-.516 1.91a1.16 1.16 0 0 1-.713-.291z" fill="#484849"/></svg>