<svg xmlns="http://www.w3.org/2000/svg" height="187" width="187"><path d="M57.515 8.248c-11.017 4.66-20.908 11.329-29.403 19.828s-15.16 18.382-19.82 29.399C3.463 68.88 1.02 80.99 1.02 93.48s2.443 24.6 7.272 36.004c4.66 11.017 11.326 20.912 19.821 29.404s18.386 15.165 29.403 19.824c11.404 4.822 23.516 7.268 36.005 7.268s24.6-2.446 36.005-7.268c11.017-4.66 20.908-11.329 29.403-19.824s15.165-18.386 19.824-29.404c4.82-11.41 7.265-23.52 7.265-36.01s-2.445-24.6-7.27-36.005a92.2 92.2 0 0 0-19.82-29.399c-8.495-8.499-18.39-15.168-29.405-19.828C118.117 3.422 106.007.975 93.517.975s-24.6 2.447-36.005 7.268"/><path fill="#fff" d="M57.73 178.205c-10.949-4.63-20.781-11.26-29.227-19.71C20.057 150.05 13.425 140.22 8.8 129.27c-4.795-11.335-7.226-23.375-7.226-35.79S4.005 69.025 8.8 57.69c4.625-10.949 11.258-20.781 19.704-29.227S46.781 13.385 57.73 8.76c11.335-4.795 23.375-7.226 35.79-7.226s24.457 2.432 35.791 7.227c10.948 4.625 20.78 11.262 29.226 19.704s15.074 18.277 19.708 29.227c4.795 11.337 7.226 23.377 7.226 35.791s-2.431 24.454-7.226 35.79a91.7 91.7 0 0 1-19.708 29.226c-8.447 8.447-18.278 15.078-29.226 19.708-11.333 4.795-23.378 7.226-35.791 7.226s-24.453-2.431-35.79-7.226"/><path d="M58.27 10.043C47.488 14.601 37.808 21.135 29.49 29.45S14.645 47.452 10.083 58.23C5.359 69.395 2.966 81.255 2.966 93.48s2.394 24.081 7.117 35.248c4.562 10.783 11.089 20.464 19.407 28.782s17.999 14.848 28.782 19.406c11.167 4.72 23.027 7.117 35.248 7.117s24.085-2.398 35.249-7.117c10.78-4.558 20.468-11.089 28.781-19.406s14.848-17.999 19.406-28.782c4.724-11.168 7.121-23.023 7.121-35.248s-2.398-24.084-7.121-35.249c-4.555-10.778-11.085-20.467-19.405-28.78s-18-14.848-28.78-19.406c-11.165-4.723-23.025-7.113-35.25-7.113s-24.081 2.39-35.248 7.114"/><path fill="#fff" d="M58.38 176.665c-10.748-4.55-20.403-11.055-28.698-19.345-8.288-8.295-14.799-17.95-19.346-28.7-4.709-11.13-7.091-22.95-7.091-35.14 0-12.183 2.383-24.01 7.091-35.139 4.547-10.749 11.058-20.404 19.346-28.695 8.296-8.291 17.95-14.799 28.699-19.35C69.511 5.59 81.333 3.2 93.52 3.2s24.01 2.39 35.143 7.095a90 90 0 0 1 28.691 19.35c8.292 8.291 14.799 17.946 19.35 28.696 4.708 11.13 7.095 22.956 7.095 35.139s-2.386 24.01-7.095 35.139c-4.551 10.75-11.058 20.404-19.35 28.7s-17.946 14.796-28.692 19.346c-11.134 4.708-22.956 7.095-35.143 7.095s-24.01-2.386-35.139-7.094"/><path d="M68.4 34.012a64.3 64.3 0 0 0-20.516 13.832 64.3 64.3 0 0 0-13.832 20.513c-3.365 7.96-5.07 16.41-5.07 25.127 0 8.71 1.705 17.16 5.07 25.12a64.3 64.3 0 0 0 13.832 20.512A64.3 64.3 0 0 0 68.4 152.948c7.957 3.364 16.411 5.07 25.12 5.07s17.167-1.705 25.12-5.07a64.3 64.3 0 0 0 20.517-13.832 64.34 64.34 0 0 0 18.906-45.632c0-8.717-1.708-17.166-5.073-25.127a64.3 64.3 0 0 0-13.833-20.513 64.4 64.4 0 0 0-20.52-13.83c-7.955-3.365-16.405-5.07-25.12-5.07-8.71 0-17.163 1.705-25.12 5.07"/><path fill="#fff" d="M68.505 152.69c-7.655-3.235-14.525-7.87-20.426-13.77s-10.538-12.775-13.776-20.425c-3.35-7.925-5.047-16.335-5.047-25.01s1.698-17.095 5.047-25.018c3.237-7.652 7.874-14.525 13.776-20.427S60.85 37.505 68.506 34.268c7.919-3.353 16.338-5.051 25.015-5.051s17.091 1.698 25.015 5.051c7.652 3.237 14.525 7.87 20.427 13.772s10.535 12.775 13.775 20.427c3.35 7.923 5.048 16.339 5.048 25.018 0 8.672-1.697 17.088-5.048 25.011a64.1 64.1 0 0 1-13.775 20.426 64.1 64.1 0 0 1-20.427 13.772c-7.923 3.353-16.339 5.054-25.014 5.054s-17.095-1.701-25.014-5.054"/><path d="M68.97 35.363a62.9 62.9 0 0 0-20.05 13.516 62.9 62.9 0 0 0-13.516 20.05c-3.29 7.78-4.957 16.037-4.957 24.552s1.668 16.772 4.957 24.552a62.9 62.9 0 0 0 13.516 20.05 62.8 62.8 0 0 0 20.05 13.516c7.776 3.29 16.038 4.957 24.552 4.957a62.7 62.7 0 0 0 24.552-4.957 62.9 62.9 0 0 0 20.051-13.516 62.9 62.9 0 0 0 13.516-20.05 62.75 62.75 0 0 0 4.957-24.552 62.75 62.75 0 0 0-4.957-24.552 62.8 62.8 0 0 0-13.516-20.05A62.9 62.9 0 0 0 118.07 35.36a62.7 62.7 0 0 0-24.55-4.957c-8.514 0-16.776 1.671-24.552 4.957"/><path fill="#fff" d="M69.185 151.09a62.4 62.4 0 0 1-19.875-13.4 62.3 62.3 0 0 1-13.4-19.875c-3.26-7.705-4.912-15.895-4.912-24.335s1.653-16.629 4.912-24.337c3.151-7.445 7.656-14.134 13.4-19.873s12.428-10.249 19.873-13.4c7.709-3.259 15.894-4.911 24.337-4.911s16.629 1.652 24.337 4.911a62.4 62.4 0 0 1 19.873 13.4 62.4 62.4 0 0 1 13.399 19.873c3.26 7.709 4.911 15.895 4.911 24.337s-1.653 16.632-4.911 24.337a62.4 62.4 0 0 1-13.399 19.873 62.4 62.4 0 0 1-19.873 13.399c-7.709 3.26-15.895 4.912-24.337 4.912s-16.629-1.652-24.337-4.912"/><path fill="#ffd520" d="M93.395 34.515c-31.612 0-58.22 25.809-58.825 57.845l.019.056c.026.094.324.681 1.559 1.46 1.246.782 3.083 1.611 5.502 2.232 2.996.768 6.139 1.396 9.071 1.897l.056.011c8.924 1.52 16.169 2.134 26.828 2.571 5.017.21 10.061.399 15.037.388l.113-36.668.072-6.609zm59.06 57.665c0 .263-1.047 1.141-2.168 1.822a1 1 0 0 0-.079.049c-1.524.828-3.677 1.603-6.364 2.308-2.748.722-6.143 1.385-9.873 1.954-3.738.576-7.897 1.001-12.38 1.404a326 326 0 0 1-13.922.956c-4.859.2-9.906.308-15.033.305l.004 1.95.045 13.132c.113 22.635.147 22.616.828 36.385 32.557 0 58.955-26.392 58.955-58.955a119 119 0 0 1-.012-1.311"/><path fill="#c8102e" d="m93.395 34.515.026.05c1.34 1.965 4.031 3.127 4.614 3.301-.165.715-.044 2.141 2.443 3.937.384.282.76.501 1.114.678 3.832 2.002 4.678.444 4.858-.181.019-.019.046-.034.068-.049 1.166.858 3.444 2.691 5.962 5.54l3.846 4.78-8.615.798c-.173-3.757-2.887-5.634-4.596-6.27-3.734-1.389-4.961 3.011-3.343 6.102-2.959-1.599-6.455-.177-6.948 4.494 11.679-.072 19.685-.588 28.557-1.849-7.509-11.465-13.434-15.635-21.048-18.642l-6.94-2.687zm27.989 21.33h.003l-.003-.004zM95.529 34.564c2.974.264 4.987 1.057 5.469 1.223.376.128.678.335.858.493l.029-.007c.591.064 1.269.18 2.105.421.915.267 2.439.824 3.79 1.464s3.368 2.078 3.376 2.88c-.308.192-.406.248-1.32 0 3.489 2.492 8.491 7.173 11.445 10.621 2.032-.384 5.058-.821 6.451-1.291-.09.099-4.61-3.284-5.615-5.2-.031-.053-.06-.26-.026-.418.037-.151.169-.278.169-.278s.06-.15.286-.278c.602-.346 2.379-.524 7.314 2.886-10.223-8.04-21.229-11.348-30.567-12.259-1.321-.154-3.764-.256-3.764-.256zm38.648 16.279c0 2.228-7.653 4.066-11.029 4.687l-1.626.278-.03.008q-.024.002-.049.007l-.06.026h.003c9.421 15.462 11.846 28.156 12.583 42.462 4.46-1.395 5.213-7.774 2.864-12.121 2.94 1.028 4.382-1.833 4.25-5.048-.23-5.465-4.875-11.126-7.845-8.073-1.709-4.749-4.088-9.655-6.579-13.765.251-.049.704-.154.948-.203 2.119-.41 4.668-1.517 6.203-2.003.591 1.148 1.58 3.923 4.61 5.289.094.045.181.074.271.108.847.38 1.652.35 1.754-.914.03-.418-.132-1.272-.399-2.014-.237-.663-.406-1.08-.67-1.535-2.202-4.181-5.201-7.19-5.201-7.19zm-.207 47.468c-.301.023-.69.032-.98-.006-3.071-.406-5.642-5.597-4.29-10.874-4.314 2.985-9.176-3.15-8.469-8.823.38-3.007 2.348-5.677 5.781-4.442-1.392-4.795-3.142-9.338-5.186-13.516-3.049.388-6.391.712-9.94.96 3.154 4.761.06 9.188-4.332 8.484-3.188-.511-6.162-3.854-5.334-7.836-2.582 1.792-7.885 1.087-8.385-4.562l-.196 43.277c15.668.154 34.021-1.517 41.331-2.661zm-83.19-.295c4.569 1.55 5.821 8.351 4.644 12.126 4.381-1.694 9.888 5.88 7.961 10.947-.888 2.334-3.192 2.981-5.612 1.581 1.306 4.422 3 8.457 5.024 12.044 3.097.425 6.579.794 10.385 1.076-3.056-3.761-.603-6.846 3.478-6.639 3.5.18 8.137 3.094 7.147 7.072 3.15-1.423 8.48-.26 9.124 3.851l-.282-37.145-.008-1.949c-4.976.011-10.019-.181-15.036-.388-10.656-.441-17.907-1.054-26.824-2.574zm-.005.003c-4.532-.011-5.039 6.485-3.161 10.814-2.492-1.885-3.467-.143-3.772.692-1.487 4.103 3.203 13.817 6.88 11.962 1.566 4.468 3.592 8.563 6.011 12.21-2.571-.519-4.709-1.095-6.346-1.705-.045-.076-4.181-7.309-6.827-8.19-.245-.079-.636-.053-.655-.079.161.248 1.69 2.903 3.5 5.247 2.496 3.237 5.326 6.146 5.371 6.15.075.015.181.018.505.184 1.935.994 4.84 1.754 9.895 2.669-9.334-13.271-11.295-25.627-11.401-39.953zm11.404 39.957c7.599 9.952 15.16 12.426 19.504 13.28.96.192 1.378.283 3.091.546 0 0 .474.075.474.067-2.254-.798-4.411-1.859-6.673-2.649-1.766-.621-2.315-.655-2.673-.508-2.978-1.743-5.733-4.092-8.209-6.968 2.604.358 5.532.671 8.739.915.237 2.085 3.317 4.17 5.906 4.641 3.332.599 4.972-1.558 3.083-4.058 4.049 1.652 6.914-.297 7.422-2.341.057-.244.063-.58.09-.824-12.692-.083-21.6-.693-30.754-2.101"/><path d="M99.36 10.311c-1.839.001-3.252 1.073-3.375 2.611-.271 3.466 6.014 4.833 5.796 7.681-.124 1.566-1.593 2.229-2.917 2.123-1.543-.12-2.849-1.257-3.128-3.052l-.376-.031.181 3.045.335.026a.47.47 0 0 1 .418-.187c.278.023 1.618.663 2.71.749 2.314.18 4.151-1.13 4.302-3.072.282-3.64-6.011-4.889-5.789-7.704.083-1.102 1.05-1.788 2.36-1.686 1.367.109 2.559 1.117 3.003 2.585l.339.026-.143-2.54-.316-.026c-.132.15-.211.184-.369.169-.692-.053-.989-.573-2.656-.704zm-17.043.718a11 11 0 0 0-1.282.085l-2.477.354-2.473.41.045.377.434-.053c1.141-.132 1.525.185 1.667 1.404l.986 8.303c.158 1.317-.219 1.682-1.382 1.821l-.335.037.042.381 5.585-.668-.041-.377-.455.057c-1.103.128-1.612-.109-1.755-1.291l-.395-3.334 1.009-.079 1.336-.199c.511.26 1.268.749 2.239 1.517l1.456 1.145c1.965 1.547 2.944 2.19 6.372 1.622l-.037-.354c-1.535.079-2.823-.508-4.125-1.531l-1.742-1.374-2.492-1.784c1.558-.666 2.42-2.025 2.243-3.504-.211-1.759-1.626-2.979-4.42-2.964zm-.625.447c2.226.038 3.014 1.251 3.205 2.855.282 2.364-1.047 3.462-3.237 3.726-.456.052-.75.11-1.228.103l-.768-6.467c.35-.079.602-.109.982-.158s.727-.063 1.045-.058zm27.23.313-.083.369c1.076.294 1.381.666 1.155 1.716l-1.8 8.261c-.282 1.302-.603 1.559-1.818 1.352l-.079.373 4.713 1.023.079-.369c-1.336-.29-1.562-.746-1.314-1.894l1.791-8.223c.282-1.299.772-1.479 1.995-1.216l.075-.364-4.712-1.028zm-38.629 1.799-9.01 3.105.12.354.414-.14c1.257-.437 1.657-.068 2.022.982l2.732 7.924c.388 1.129.267 1.629-1.234 2.148l-.527.181.12.354 9.971-3.436-.662-2.897-.339.116c.09 1.777-.132 2.421-1.445 2.872l-2.895.998c-.692.237-1.073.18-1.366-.686l-1.382-3.997 3.178-1.095c.768-.267 1.175-.242 1.784 1.042l.357-.124-1.231-3.568-.357.124c.282 1.122.075 1.555-.599 1.784l-3.361 1.159-1.592-4.614 3.959-1.37c.677-.229 1.262-.056 2.056 1.453l.339-.117-1.05-2.552zm48.584.231-1.483 2.875.335.132c.922-1.517 1.419-1.811 2.16-1.518l3.215 1.272-3.621 9.12c-.391.997-.862 1.22-1.991.771l-.685-.271-.136.351 5.816 2.307.14-.354-.686-.268c-1.126-.448-1.322-.93-.923-1.928l3.614-9.118 3.21 1.272c.742.294.908.851.539 2.586l.335.131.888-3.112-.35-.136c-.128.207-.426.155-.686.05l-8.879-3.52a1.3 1.3 0 0 1-.346-.203c-.099-.082-.144-.181-.113-.302l-.354-.139zm-61.59 4.583-3.978 2.33.192.323c1.163-.685 1.717-.729 2.018-.214.139.241.237.643.331 1.234l1.438 8.66-7.58-5.867c-.787-.595-.622-1.179.929-2.135l-.187-.327-4.709 2.763.188.323c1.046-.61 1.403-.478 2.461.354l9.151 7.092.858-.501-1.826-11.201c-.207-1.302.011-1.988.903-2.511l-.187-.323zm76.46 2.028-.207.313c1.05.753 1.275 1.235 1.234 3.049l-.128 6.553-1.555 2.326c-.546.809-1.094.994-2.114.309l-.316-.211-.211.316 4.543 3.033.207-.312-.211-.146c-1.012-.67-1.091-1.23-.504-2.103l1.656-2.474 5.838-2.811c.979-.466 1.758-.595 2.936.079l.211-.315-3.73-2.496-.216.316c1.061.704 1.186 1.193.053 1.75l-4.976 2.409.079-5.844c.015-1.091.304-1.351 1.595-.493l.207-.312-4.392-2.933zm-91.415 7.555-3.711 3.083.24.29c.892-.663 1.375-.674 2.06.15l5.404 6.511c.85 1.02.855 1.434-.056 2.262l.24.294 3.716-3.086-.241-.286c-1.058.873-1.554.768-2.3-.132l-5.377-6.477c-.846-1.024-.689-1.517.274-2.318l-.244-.29zm-7.392 6.071-2.996 3.553.29.244c1.054-1.19 1.452-1.321 2.378-.542l6.045 5.093-13.482.87-2.01 2.386.285.241c.463-.516.919-.81 1.457-.956l7.471 6.297c.7.587.76 1.163-.034 2.101l-.049.063.29.241 2.966-3.523-.286-.24c-1.088 1.291-1.52 1.339-2.615.417l-6.507-5.489 14.856-.934.332-.392-8.468-7.14c-.595-.501-.586-.911.373-2.048l-.29-.244zm58.45.458c-5.881 3.323-11.024 17.783-13.874 36.093l-.006.042c4.238 5.389 7.347 8.803 13.142 14.881l.052-9.519.129-18.315zc-4.757.011-8.969.512-13.775 1.664-6.854 1.645-9.316 3.919-13.641 7.039 8.138-4.878 17.483-8.277 27.416-8.703M79.51 70.65l.006-.042c-4.317-5.88-5.687-8.677-7.377-13.615-3.704 7.818-6.478 17.174-8.002 27.231 3.602 5.36 5.83 8.492 13.011 16.344.079-10.523.935-20.73 2.361-29.918zm-7.371-13.656c5.498-11.596 12.984-20.255 21.246-22.476-6.359.362-9.512 1.739-12.8 3.066 3.997-1.474 8.489-2.677 12.795-3.065-7.553 1.184-14.647 5.398-20.797 11.063-1.618 4.19-1.528 6.644-.467 11.458l.022-.045zm8.447-19.41c-8.6 3.368-16.343 9.142-22.613 16.339-1.712 5.363-1.708 8.352-.847 14.08 3.828-8.939 9.165-16.682 15.484-22.47 1.946-3.373 3.162-5.386 7.975-7.949zm73.385 2.403c-1.311.047-2.62.508-3.797 1.405-2.954 2.255-2.959 6.372-.599 9.47 2.337 3.064 6.53 3.91 9.722 1.48 2.838-2.168 2.927-6.278.65-9.263-1.602-2.103-3.793-3.171-5.977-3.092zm1.462 1.166c1.36-.052 2.748.424 3.808 1.813 1.988 2.608 1.336 6.048-1.6 8.288-2.243 1.712-5.457 2.213-7.418-.361-1.939-2.541-1.386-6.135 1.569-8.385.948-.723 2.28-1.302 3.641-1.353zm-89.51 2.097C48.657 53.614 36.801 72.539 36.15 93.875c1.245.783 3.045 1.63 5.503 2.232.441-16.083 6.624-31.052 16.313-42.178 2.059-4.893 3.873-7.057 7.956-10.678zm-43.479 6.519-2.073 4.182.339.166c.805-1.441 1.239-1.555 2.947-.708l4.147 2.056c3.023 1.502 2.841 3.959 1.844 5.972-1.314 2.646-3.451 3.343-5.852 2.145l-4.946-2.45c-1.031-.512-1.087-1.073-.602-2.052l.083-.157-.339-.17-2.273 4.573.343.169c.614-1.205.952-1.434 2.093-.869L23.35 65.2c2.544 1.264 5.348.482 7.034-2.917 1.916-3.858.245-6.44-1.965-7.531l-4.799-2.386c-1.137-.56-1.408-1.227-.836-2.428zm144.2 3.982-.343.162c.579 1.264.101 1.6-1.043 2.149l-7.026 3.35c-1.453.693-1.781.609-2.384-.471l-.338.162 2.077 4.355.343-.162c-.644-1.343-.369-1.735.636-2.213l3.926-1.874 1.581 3.315c.41.858.267 1.389-.757 1.924l.146.302 3.155-1.507-.144-.301c-.798.313-1.332.169-1.645-.493l-1.693-3.549 4.211-2.011 1.626 3.407c.527 1.111.271 1.675-.764 2.187l.147.305 2.114-1.009-3.827-8.029zM57.128 68.002c-3.873 9.078-6.108 19.323-6.346 30.011a161 161 0 0 0 12.044 1.622c.079-5.243.523-10.41 1.28-15.406-4.208-7.064-5.48-10.271-6.978-16.228zM11.499 88.536c-.441.636-1.998 2.044-3.086 2.774l.15.264c.693-.32 1.743-1.013 2.345-1.54v9.358c0 .561-.112.73-.715.73H9.181v.343h4.712v-.343h-1.05c-.584 0-.696-.15-.696-.711V88.536zm8.935.004c-1.855 0-3.406 1.39-3.406 3.034 0 1.276.802 2.232 2.56 3.019-1.837.727-2.732 1.761-2.732 3.071 0 1.705 1.604 3.075 3.64 3.075 2.089 0 3.699-1.499 3.699-3.452 0-1.442-.843-2.435-2.819-3.315 1.653-.655 2.444-1.535 2.444-2.732 0-1.501-1.51-2.699-3.385-2.699zm-.007.339c1.31 0 2.258.99 2.258 2.341q-.001 1.598-1.565 2.586c-2.428-1.035-2.988-1.781-2.988-2.811 0-1.178 1.005-2.115 2.296-2.115zm147.665.761c-.09.165-.203.241-.542.241h-4.437l-.26 5.965.184.128a3.12 3.12 0 0 1 1.984-.745c1.611 0 2.793 1.287 2.793 3.011 0 1.709-1.182 3.158-2.564 3.158-1.185 0-1.54-1.314-2.549-1.314-.339 0-.621.264-.621.584 0 .655 1.239 1.178 2.737 1.178 2.507 0 4.399-1.728 4.399-3.997a3.88 3.88 0 0 0-3.839-3.865c-.768 0-1.442.15-2.022.466l.15-3.36h4.735l.211-1.449h-.361zm9.401.003c-3.918 1.106-6.281 3.859-6.281 7.325 0 2.876 1.611 4.878 3.918 4.878 2.01 0 3.658-1.721 3.658-3.787 0-1.916-1.483-3.451-3.32-3.451-.918 0-1.652.293-2.664 1.084.414-2.737 1.972-4.573 4.893-5.778l-.203-.271zm-25.037 2.537c-.32.569-1.264 1.299-2.246 1.867l.033 1.958c.029 20.002-9.341 36.778-24.182 46.581-.389.295-1.205.815-2.107 1.364l-.201.152c7.483-4.603 16.942-12.368 22.96-25.225 6.447-12.68 5.743-26.698 5.743-26.698zm-28.502 51.77.217-.164a53 53 0 0 0 1.891-1.2c.028-.021.093-.062.115-.08 2.341-1.893 3.072-3.315 4.039-5.461-1.952 2.197-12.799 11.077-20.735 13.215 1.284-.364 2.447-.662 3.696-1.178 4.479-1.841 5.13-1.894 8.457-3.761a91 91 0 0 0 2.32-1.371m6.25-6.893c8.499-9.628 13.697-23.227 13.671-38.749l-.026-1.949c-2.748.727-6.147 1.381-9.877 1.949.053.655.075 1.324.075 1.976.015 10.091-1.701 19.26-4.814 27.01 1.755 4.498 1.78 6.383.971 9.763M19.944 94.782c2.183.993 3.048 1.78 3.048 3.037 0 1.46-1.068 2.586-2.483 2.586-1.427 0-2.48-1.183-2.48-2.77 0-1.224.64-2.16 1.916-2.853zm155.245.275c1.254-.001 2.194 1.166 2.194 3.176 0 2.123-.899 3.309-2.213 3.309-1.182 0-2.549-1.035-2.549-4.189 0-.64.034-.903.091-1.166 1.144-.918 1.991-1.129 2.477-1.129zm-53.595 4.659a327 327 0 0 1-13.919.959c8.081 8.401 9.797 10.37 13.211 14.283.481-4.171.734-8.593.73-13.218zm-13.919.96c-5.969.237-9.906.304-15.033.301l.004 1.953.045 13.128 13.384 12.895c1.043-7.483 1.626-16.422 1.611-26.324zm13.211 14.287c.011-.087-3.394 17.708-6.606 24.057 1.848 3.564 1.931 4.988 1.186 7.321 5.725-4.344 10.441-10.896 13.69-19.01-2.086-4.243-3.498-6.504-8.27-12.368M31.821 125.81l-.368.268c.839 1.336.5 1.644-.915 2.544l-8.347 5.303c-1.942 1.253-2.406 1.306-3.497-.192l-.388.282 3.098 4.275.396-.285c-.632-.952-.97-1.897.121-2.594l9.647-6.155.029.042-7.151 13.18.343.475 14.66-2.831.029.038-8.77 7.272c-1.027.873-1.983.121-2.68-.843l-.396.281 3.832 5.281.387-.282c-1.084-1.502-1.205-1.663.595-3.161l8.83-7.407c.666-.546.971-.17 1.784.775l.365-.268-2.187-3.019-13.93 2.582 6.76-12.462-2.247-3.102zm126 .87c-2.487.13-5.084 1.702-7.357 5.219a129 129 0 0 0-2.251 3.617l-1.814 3.094.403.257.274-.422c.813-1.257 1.393-1.401 2.774-.509l9.168 5.925c1.231.798 1.209 1.539.464 2.691l-.234.357.403.264 4.411-6.822c3.485-5.389 1.238-10.377-1.98-12.458-1.318-.851-2.77-1.292-4.262-1.214zm-.838 2.049c1.521.051 2.965.626 4.147 1.394 2.19 1.419 3.203 3.455 3.459 4.739.467 2.179.102 3.635-1.746 6.492-1.084 1.679-1.43 1.551-2.3.986l-11.382-7.355c.147-.271.451-.885 1.016-1.762 1.927-2.981 3.652-4.012 5.266-4.358a6.3 6.3 0 0 1 1.54-.137zm-50.915.257c-2.006 14.359-5.582 23.197-9.981 23.385l1.317-.071 1.509-.116c6.101-.55 11.352-5.228 15.368-13.159-2.062-3.361-3.945-5.555-8.213-10.038zm38.93 11.338-4.58 3.782.309.373c1.6-1.257 2.13-1.329 3.116-.14l6.433 7.787-17.153-1.987-3.067 2.533.305.373c.701-.546 1.34-.81 2.048-.87l7.952 9.624c.742.899.69 1.634-.522 2.639l-.079.063.309.369 4.538-3.749-.304-.368c-1.667 1.369-2.222 1.335-3.385-.072l-6.936-8.389 18.894 2.228.509-.421-9.018-10.915c-.632-.764-.528-1.275.94-2.487zm-29.521 5.961c-3.885 2.924-8.039 4.716-12.68 5.442l1.208-.203c1.284-.226 1.212-.249 3.587-.783l1.415-.406c4.351-1.355 5.115-2.036 6.469-4.05zm-63.595 1.626-.146.58-11.194 7.429c-1.961 1.295-2.353 1.355-3.696.395l-.286.392 4.724 3.47.286-.388-.327-.24c-1.126-.824-1.51-1.423-1.1-1.972.207-.286.922-.704 1.355-.986l3.541-2.342 4.239 3.117-1.37 4.724c-.068.267-.151.677-.392 1.005-.422.572-.941.38-2.108-.479l-.531-.392-.285.388 5.623 4.137.282-.388c-1.02-.753-1.299-1.272-.907-2.657l4.069-14.488-1.776-1.306zm-.592 2.213-1.701 6.083-3.541-2.602zm10.06 5.066-.162.455.523.185c1.389.493 1.645 1.069 1.118 2.552l-3.572 10.069c-.572 1.6-1.205 1.807-2.616 1.307l-.41-.144-.161.451 6.77 2.402.158-.452-.546-.199c-1.34-.474-1.788-1.034-1.279-2.469l1.435-4.043c.373.158.677.294 1.2.482.647.226 1.039.338 1.648.526.433.587 1.028 1.577 1.705 3.004l1.02 2.138c1.374 2.883 2.126 4.174 6.38 5.465l.151-.425c-1.799-.775-2.943-2.179-3.855-4.092l-1.216-2.56c-.727-1.52-1.209-2.447-1.849-3.451 2.168.117 3.923-.952 4.559-2.747.865-2.439-.474-4.961-4.9-6.53-1.555-.554-2.045-.697-3.038-.998zm59.355 1.208-2.036.855.426.426.598 13.418c.102 2.349-.049 2.718-1.558 3.376l.185.44 5.408-2.259-.188-.44-.373.154c-1.287.538-1.99.557-2.258-.075-.139-.327-.128-1.155-.147-1.667l-.177-4.245 4.845-2.025 3.35 3.605c.189.192.5.479.658.855.275.655-.162 1.001-1.494 1.554l-.609.256.188.448 6.436-2.691-.185-.444c-1.171.486-1.761.459-2.747-.588l-10.321-10.952zm-55.15.606c.448.106.76.218 1.216.38 3.681 1.302 4.073 3.384 3.286 5.605-1.02 2.868-3.162 3.373-5.819 2.436-.545-.196-.914-.298-1.464-.576l2.781-7.844zm54.705 1.893 4.34 4.592-4.05 1.694zm-14.13 2.338-7.381 1.245.083.475.35-.057c1.578-.267 2.071.215 2.289 1.544l1.874 11.084c.215 1.276-.146 1.72-1.294 1.916l-.828.143.079.471 11.186-1.886 1.31-3.978-.451.072c-1.204 2.446-1.559 3.098-3.038 3.346l-3.681.62c-.722.125-1.039-.079-1.155-.756l-1.955-11.54c-.263-1.55.136-1.799 1.762-2.074l.926-.154-.083-.478zm-27.531.128-.042.479c1.641.192 2.191.59 3.264 2.645l3.899 7.411-.302 3.564c-.106 1.242-.61 1.784-2.176 1.648l-.481-.037-.042.481 6.952.587.041-.478-.327-.03c-1.54-.131-1.977-.7-1.864-2.044l.324-3.79 4.799-6.745c.813-1.129 1.604-1.75 3.331-1.731l.041-.478-5.713-.49-.038.482c1.618.139 2.059.61 1.133 1.931l-4.082 5.762-3.516-6.587c-.659-1.23-.493-1.701 1.483-1.531l.041-.482-6.725-.568z"/></svg>