<svg xmlns="http://www.w3.org/2000/svg" width="1000" height="1000"><path fill="rgba(255,255,255,0)" d="M0 0h1000v1000H0z"/><path d="M821.344 471.26s30.899 17.552 43.514 53.739c6.34 20.993 3.026 41.018-3.885 55.535a97.45 97.45 0 0 1-4.937 9.078c-7.67 12.46-17.99 22.78-27.648 29.98-14.051 11.358-27.274 16.377-42.637 21.647-8.31 2.866-15.577 4.475-26.236 8.127 3.455-8.2 10.398-17.808 15.719-24.271 2.989-3.634 6.358-6.943 9.571-10.385 8.383-9.005 15.98-19.024 20.783-26.698 8.945-14.668 17.077-30.017 21.506-56.568 1.216-6.614 1.454-15.276 1.115-21.904-.722-21.057-6.865-38.28-6.865-38.28zm-80.711 227.35c-6.92-7.455-16.071-19.147-21.382-29.042-7.4-13.827-13.233-30.113-15.436-47.523-1.975-15.481-1.01-32.037 3.364-45.69 9.375-29.472 34.45-47.116 49.36-73.923 6.043-11.185 10.275-23.947 11.578-36.887 1.207-12.36-1.02-26.487-6.801-38.829-2.144-4.474-4.525-9.365-7.606-13.954 0 0 9.489 4.155 18.969 12.24a112.272 112.272 0 0 1 12.935 12.666c1.947 2.244 19.65 23.928 25.245 53.428 1.33 7.396 2.088 14.298 2.38 20.738.6 31.045-10.649 56.632-19.978 70.02-4.09 5.869-8.282 11.619-13.086 16.944-8.936 9.896-18.919 18.585-32.745 41.42-1.536 2.706-3.785 7.36-4.59 9.864-1.76 5.545-3.464 10.746-4.232 15.422-1.59 9.65-.882 17.319-.215 22.895.8 6.65 2.24 10.202 2.24 10.211z" fill="#ff671f"/><path d="M993.65 486.22c0 65.481-24.203 119.449-72.713 162.021-31.845 27.868-68.105 43.994-108.849 48.346-12.29 1.444-27.425 1.672-38.354 1.59l-15.426-.338s-3.437-5.288-3.606-17.707c.411-13.155 3.51-20.116 3.51-20.116a47.902 47.902 0 0 0 6.294.233c20.953-.978 68.046-17.785 92.98-34.853 43.902-30.268 65.837-74.554 65.837-132.708 0-31.219-6.792-60.371-20.463-87.517-27.923-55.787-78.828-83.664-152.83-83.664-17.588 0-51.7 3.972-73.329 8.693l-.055 391.622c-33.815-11.464-63.278-33.883-88.463-67.333l-214.76-272.954v237c0 28.906 2.387 48.945 7.172 60.28 3.908 9.078 11.14 16.419 21.675 21.922h-91.155v-44.533c-9.498 12.08-20.272 21.862-32.348 29.399-27.868 17.026-59.352 25.487-94.391 25.487-38.77 0-71.428-9.434-97.884-28.408-24.317-17.46-40.059-41.622-47.24-72.42-2.742-12.684-4.1-33.764-4.1-63.218V360.33c0-28.846-2.39-48.94-7.107-60.207-3.981-9.132-11.212-16.413-21.688-21.94h121.67c-11.286 5.883-18.992 14.216-23.16 24.87-3.735 11.697-5.64 30.817-5.64 57.272V547.04c0 22.548 1.658 39.154 5.022 49.863 6.56 21.14 19.12 37.805 37.682 49.813 17.822 11.518 38.404 17.218 61.752 17.218 27.932 0 52.244-8.081 73.014-24.312 13.835-10.906 23.228-23.17 28.174-36.823 3.008-8.273 4.475-19.535 4.475-33.82V360.332c0-28.846-2.382-48.94-7.099-60.207-3.99-9.132-11.207-16.413-21.693-21.935l96.362.302c1.773 4.356 6.93 12.263 15.43 23.713l220.222 281.379V354.028c-.251-23.512-2.848-48.487-8.963-57.89-6.358-9.721-8.712-10.727-19.632-17.652l170.779-.301c41.79 0 76.213 5.087 103.282 15.371 43.546 16.857 77.374 42.756 101.504 77.804 22.785 33.44 34.111 71.735 34.111 114.86z" fill="#009a44"/></svg>