<svg width="216.4" height="198.6" fill="none" viewBox="0 0 216.4 198.6" xmlns="http://www.w3.org/2000/svg"><g fill="#1c355d"><path d="M77.2 92.3V59h-1.8v34.7zm7.7-25.8h-1.8v10.9h1.8zm7.7 14V59h-1.8v22.9zM64.7 61.1l8.9 6.8v-2.3l-8.3-6.4c-.3-.3-.8-.2-1.1 0l-9.9 8.3V59h-1.8v52.5l1.7-1.3c.1 0 .1-.1.2-.1V77.3h19.4v-1.8H54.4v-5.7zm-2.3 85.3V137c0-4.3-3.5-7.9-7.9-7.9-4.3 0-7.9 3.5-7.9 7.9v9.4h1.9V137c0-3.3 2.7-6 6-6s6 2.7 6 6v9.4zm29.5-13.7v-22.5c0-6.4-5.5-9.4-7.9-10.4l-.2-.1h-.4l-.2.1c-2.4 1-7.9 4.1-7.9 10.4v36.2h1.9v-36.2c0-5 4.2-7.5 6.4-8.6 2.2 1 6.4 3.6 6.4 8.6v22.5z"/><path d="M63.4 93v15.9l1.8-1.4V93zm29.2-50.2h8.2c0-.2-.1-.5-.1-.8v-.1c0-.3 0-.7.1-1h-8.3v1.9zm9.6 3.4c-.2-.3-.3-.5-.5-.8l-3.3 2.5v2.6l4.5-3.4c-.2-.2-.4-.4-.5-.6-.1-.1-.2-.2-.2-.3m-3.8-10.3 3.4 2.6c.1-.3.3-.5.5-.7.1-.1.2-.3.3-.4l.5-.5-4.7-3.5zm-24.9 91.7-18.3-14c-.2-.1-.4-.2-.6-.2s-.4 0-.6.2l-20.3 15.5v17.3h1.8V130l19.1-14.5 18.9 14.4zm9.8-80-9.1 7v2.6l9.8-7.5 9.8 7.5v-2.6l-9.2-7c-.4-.3-.9-.3-1.3 0m56 11.4v33.3l1.8 1.4V59zm-5.9 7.5h-1.8v10.9h1.8zm-9.5-7.5v21.5l1.8 1.4V59zm-10.2 46.1c0-3-2.4-5.4-5.4-5.4s-5.4 2.4-5.4 5.4 2.4 5.4 5.4 5.4c2.9 0 5.4-2.4 5.4-5.4m-9.2 0c0-2 1.7-3.7 3.7-3.7s3.7 1.7 3.7 3.7-1.7 3.7-3.7 3.7-3.7-1.7-3.7-3.7m-94.1 45.6H206c.3-.6.5-1.2.8-1.8H9.7c.2.6.5 1.2.7 1.8"/><path d="M141.1 99.7v-2.3l-32.3-24.7c-.2-.1-.4-.2-.6-.2s-.4 0-.6.2L75.3 97.4v2.3l32.8-25zm1.9-24.1v1.8h19.4v32.8c.1 0 .1 0 .2.1l1.7 1.3V59.1h-1.8v8.5l-9.9-8.3c-.3-.3-.8-.3-1.1 0l-8.3 6.4V68l8.9-6.8 10.5 8.8v5.7H143zm26.8 70.8V137c0-4.3-3.5-7.9-7.9-7.9-4.3 0-7.9 3.5-7.9 7.9v9.4h1.9V137c0-3.3 2.7-6 6-6s6 2.7 6 6v9.4zm-53.7 0v-11.7c0-4.3-3.5-7.9-7.9-7.9s-7.9 3.5-7.9 7.9v11.6h1.9v-11.6c0-3.3 2.7-6 6-6s6 2.7 6 6v11.6h1.9zm25 0v-36.2c0-6.4-5.5-9.4-7.9-10.4l-.2-.1h-.4l-.2.1c-2.4 1-7.9 4.1-7.9 10.4v22.5h1.9v-22.5c0-5 4.2-7.5 6.4-8.6 2.2 1 6.4 3.6 6.4 8.6v36.2z"/><path d="M153.1 108.9V93h-1.8v14.5z"/><path d="M22.6 79.6c-.2.4-.3.9-.4 1.3-.1.3-.2.7-.3 1-.2.7-.4 1.3-.6 2s-.4 1.3-.5 2c-.1.5-.2.9-.3 1.4-.2.7-.3 1.3-.5 2l-.3 1.5c-.1.7-.3 1.5-.4 2.2-.1.4-.1.7-.2 1.1-.2 1-.3 1.9-.4 2.9 0 .3-.1.5-.1.8l-.3 2.7c0 .2 0 .4-.1.6-.1 1-.1 2.1-.2 3.1v.7c0 1.1-.1 2.2-.1 3.3s0 2.2.1 3.3v.7c0 1.1.1 2.1.2 3.1 0 .2 0 .4.1.6l.3 2.7c0 .3.1.5.1.8.1 1 .3 1.9.4 2.9.1.3.1.7.2 1 .1.8.3 1.5.4 2.3.1.5.2.9.3 1.4.1.7.3 1.4.5 2.1.1.5.2.9.3 1.4l.6 2.1c.2.6.4 1.2.5 1.9.1.4.2.7.3 1.1.1.2.2.5.2.7h2c-.2-.5-.4-1.1-.5-1.6 0-.1-.1-.3-.1-.4-.4-1.2-.7-2.4-1-3.7 0-.1-.1-.3-.1-.4-.7-2.7-1.3-5.5-1.7-8.3 0-.3-.1-.6-.1-.9-.2-1-.3-2.1-.4-3.2 0-.4-.1-.9-.1-1.3-.1-1-.2-2-.2-3 0-.4-.1-.8-.1-1.2-.1-1.4-.1-2.8-.1-4.2s0-2.8.1-4.2c0-.4 0-.8.1-1.2.1-1 .1-2 .2-3 0-.4.1-.8.1-1.3.1-1.1.3-2.1.4-3.2 0-.3.1-.6.1-.9.4-2.8 1-5.6 1.7-8.3 0-.1.1-.3.1-.4.3-1.3.7-2.5 1.1-3.7 0-.1.1-.3.1-.4 6.5-20.6 20.3-38 38.4-49 .1-.1.2-.1.3-.2 1-.6 2.1-1.2 3.1-1.8.3-.1.5-.3.8-.4.9-.5 1.7-.9 2.6-1.3.4-.2.9-.4 1.3-.6l2.1-.9c.6-.3 1.2-.5 1.8-.8.4-.2.8-.3 1.1-.4 3.2-1.3 6.4-2.4 9.7-3.3.1 0 .1 0 .2-.1 1-.3 2-.5 3.1-.8.3-.1.6-.1.9-.2.9-.2 1.8-.4 2.8-.6.4-.1.9-.2 1.3-.2.8-.1 1.7-.3 2.5-.4.6-.1 1.2-.2 1.8-.2.7-.1 1.5-.2 2.2-.2.8-.1 1.6-.1 2.4-.2.6 0 1.2-.1 1.7-.1 1.4-.1 2.8-.1 4.2-.1s2.8 0 4.2.1c.6 0 1.2.1 1.7.1.8.1 1.6.1 2.4.2.7.1 1.5.2 2.2.2.6.1 1.2.1 1.8.2.8.1 1.7.2 2.5.4.4.1.9.2 1.3.2.9.2 1.8.4 2.8.6.3.1.6.1.9.2 1 .2 2 .5 3.1.8.1 0 .1 0 .2.1 3.3.9 6.5 2 9.7 3.3.4.2.8.3 1.1.4.6.3 1.2.5 1.8.8l2.1.9c.4.2.9.4 1.3.6.9.4 1.8.9 2.6 1.3.3.1.5.3.8.4 1.1.6 2.1 1.2 3.1 1.8.1.1.2.1.3.2 18.1 11.1 32 28.4 38.4 49 0 .1.1.3.1.4.4 1.2.7 2.5 1.1 3.7 0 .1.1.3.1.4.7 2.7 1.3 5.5 1.7 8.3 0 .3.1.6.1.9.2 1.1.3 2.1.4 3.2 0 .4.1.8.1 1.3.1 1 .2 2 .2 3 0 .4.1.8.1 1.2.1 1.4.1 2.8.1 4.2s0 2.8-.1 4.2c0 .4 0 .8-.1 1.2-.1 1-.1 2-.2 3 0 .4-.1.9-.1 1.3-.1 1.1-.3 2.1-.4 3.2 0 .3-.1.6-.1.9-.4 2.8-1 5.5-1.7 8.3 0 .1-.1.3-.1.4-.3 1.2-.7 2.5-1 3.7 0 .1-.1.3-.1.4-.2.5-.4 1.1-.5 1.6h2c.1-.2.1-.5.2-.7.1-.4.2-.7.3-1.1.2-.6.4-1.2.5-1.9l.6-2.1c.1-.5.2-.9.3-1.4.2-.7.3-1.4.5-2.1.1-.5.2-.9.3-1.4.1-.8.3-1.5.4-2.3.1-.3.1-.7.2-1 .2-1 .3-1.9.4-2.9 0-.3.1-.5.1-.8l.3-2.7c0-.2 0-.4.1-.6.1-1 .1-2.1.2-3.1v-.7c0-1.1.1-2.2.1-3.3s0-2.2-.1-3.3v-.7c0-1-.1-2.1-.2-3.1 0-.2 0-.4-.1-.6l-.3-2.7c0-.3-.1-.5-.1-.8-.1-1-.3-1.9-.4-2.9-.1-.4-.1-.7-.2-1.1-.1-.7-.3-1.5-.4-2.2l-.3-1.5c-.1-.7-.3-1.3-.5-2-.1-.5-.2-.9-.3-1.4-.2-.7-.4-1.3-.5-2-.2-.7-.4-1.3-.6-2-.1-.3-.2-.7-.3-1-.1-.4-.3-.9-.4-1.3-5.3-15.9-15-29.9-27.6-40.5-3.5-2.9-7.2-5.6-11-7.9-.2-.1-.3-.2-.5-.3-.8-.5-1.7-1-2.5-1.5-.5-.3-1.1-.6-1.6-.9-.4-.2-.7-.4-1.1-.6-.9-.5-1.9-1-2.9-1.4-.2-.1-.3-.2-.5-.2-9.2-4.3-19.3-7.1-29.9-8h-.2c-1.2-.1-2.5-.2-3.7-.2h-.4c-1.2 0-2.4-.1-3.7-.1s-2.5 0-3.7.1h-.4c-1.2.1-2.5.1-3.7.2h-.2c-10.6.9-20.7 3.7-29.9 8-.2.1-.3.2-.5.2-1 .5-1.9.9-2.9 1.4-.4.2-.7.4-1.1.6-.5.3-1.1.6-1.6.9-.8.5-1.7 1-2.5 1.5-.2.1-.3.2-.5.3-3.9 2.3-7.6 5-11 7.9C37.6 49.7 28 63.7 22.6 79.6m155 75.9c-8.9 0-16.2 7.2-16.3 16.1h-2c-.2-8.9-7.4-16.1-16.3-16.1s-16.2 7.2-16.3 16.1h-2c-.2-8.9-7.4-16.1-16.3-16.1s-16.2 7.2-16.3 16.1h-2c-.2-8.9-7.4-16.1-16.3-16.1s-16.2 7.2-16.3 16.1h-2c-.2-8.9-7.4-16.1-16.3-16.1-8.7 0-15.8 6.9-16.3 15.5l1.8 2.4v-1.5c0-8 6.5-14.5 14.5-14.5 7.9 0 14.3 6.3 14.5 14.2H52v1.9h1.7v4.1c-1.7-1.3-3.3-2.7-4.8-4.1h-2.8c1.4 1.4 2.9 2.7 4.4 4 3.5 2.9 7.2 5.6 11 7.9.2.1.3.2.5.3.8.5 1.7 1 2.5 1.5.5.3 1.1.6 1.6.9.4.2.7.4 1.1.6.9.5 1.9 1 2.9 1.4.2.1.3.2.5.2 9.2 4.3 19.3 7.1 29.9 8h.2c1.2.1 2.5.2 3.7.2h.4c1.2 0 2.4.1 3.7.1s2.5 0 3.7-.1h.4c1.2-.1 2.5-.1 3.7-.2h.2c10.6-.9 20.7-3.7 29.9-8 .2-.1.3-.2.5-.2 1-.5 1.9-.9 2.9-1.4.4-.2.7-.4 1.1-.6.5-.3 1.1-.6 1.6-.9.8-.5 1.7-1 2.5-1.5.2-.1.3-.2.5-.3 3.9-2.3 7.5-5 11-7.9 1.5-1.3 3-2.6 4.4-4h-2.8c-1.6 1.4-3.2 2.8-4.8 4.1v-4.1h1.7v-1.9h-1.7c.2-7.8 6.6-14.2 14.5-14.2 8 0 14.5 6.5 14.5 14.5v1.5l1.8-2.4c-.7-8.6-7.8-15.5-16.5-15.5M57.2 180.4c-.6-.5-1.3-.9-1.9-1.4v-5.6h1.9zm30.9 13.9c-.9-.2-1.8-.4-2.7-.7-.1 0-.1 0-.2-.1-3.3-.9-6.6-2-9.7-3.3-.4-.2-.8-.3-1.1-.4-.6-.3-1.2-.5-1.8-.8l-2.1-.9c-.4-.2-.9-.4-1.3-.6-.9-.4-1.7-.9-2.6-1.3-.3-.1-.5-.3-.8-.4-1.1-.6-2.1-1.2-3.1-1.8-.1-.1-.2-.1-.3-.2l-3.3-2.1h.1v-8.2h1.7v-1.9h-1.7c.2-7.8 6.6-14.2 14.5-14.2s14.3 6.3 14.5 14.2h-1.7v1.9h1.7v20.8zm3.8.8c-.6-.1-1.3-.3-1.9-.4v-21.3h1.9zm30.8.4c-.7.1-1.5.2-2.2.3-.6.1-1.2.2-1.8.2-.7.1-1.5.2-2.2.2-.8.1-1.6.1-2.4.2-.6 0-1.2.1-1.7.1-1.4.1-2.8.1-4.2.1s-2.8 0-4.2-.1c-.6 0-1.2-.1-1.7-.1-.8-.1-1.6-.1-2.4-.2-.7-.1-1.5-.2-2.2-.2-.6-.1-1.2-.1-1.8-.2-.7-.1-1.5-.2-2.2-.3v-22h1.7v-1.9h-1.7c.2-7.8 6.6-14.2 14.5-14.2s14.3 6.3 14.5 14.2H121v1.9h1.7zm3.9-.8c-.6.1-1.3.3-1.9.4v-21.7h1.9zm27.6-10.9c-.1.1-.2.1-.3.2-1 .6-2.1 1.2-3.1 1.8-.3.1-.5.3-.8.4-.9.5-1.7.9-2.6 1.3-.4.2-.9.4-1.3.6l-2.1.9c-.6.3-1.2.6-1.8.8-.4.2-.8.3-1.1.4-3.2 1.3-6.4 2.4-9.7 3.3-.1 0-.1 0-.2.1-.9.2-1.8.5-2.7.7v-20.9h1.7v-1.9h-1.7c.2-7.8 6.6-14.2 14.5-14.2s14.3 6.3 14.5 14.2h-1.7v1.9h1.7v8.2h.1c-1.2.8-2.3 1.5-3.4 2.2m7-4.8c-.6.5-1.3.9-1.9 1.4v-7h1.9z"/><path d="M123.8 41h-8.3c.1.3.1.7.1 1v.1c0 .3 0 .5-.1.8h8.2V41zm-15.5 8.3h-.3c-.3 0-.5 0-.8-.1v8.2h2v-8.2c-.3.1-.5.1-.9.1q.15 0 0 0m-.2-14.6h.2c.3 0 .6 0 .8.1v-8.4h-2v8.4c.5-.1.7-.1 1-.1m6.2 11.5c-.1.1-.1.2-.2.3-.2.2-.3.4-.5.6l4.5 3.4v-2.6l-3.3-2.5c-.2.3-.3.6-.5.8m-.4-8.9c.1.1.2.2.3.4.2.2.3.5.5.7l3.4-2.6v-2.6l-4.7 3.5c.2.3.3.4.5.6m-7.2-.5c-.2.1-.4.1-.6.2s-.3.1-.5.2c-.1.1-.3.1-.4.2-.2.1-.3.2-.5.3-.1.1-.2.1-.2.2l-.6.6c-.1.1-.2.2-.2.3-.1.2-.3.4-.4.6 0 .1-.1.1-.1.2s-.1.1-.1.2-.1.2-.1.3c-.1.3-.2.5-.2.8v.2c-.1.3-.1.6-.1.9s0 .6.1.9v.2c.1.3.1.5.3.8 0 .1.1.2.1.2 0 .1.1.1.1.2.1.2.2.5.4.7 0 .1.1.1.2.2.2.2.3.4.5.6l.2.2c.2.2.4.3.6.4.1.1.2.1.3.2l.6.3c.1.1.3.1.5.1.2.1.3.1.5.2.3.1.7.1 1 .1h.4c.3 0 .7 0 1-.1.2 0 .4-.1.5-.2.2 0 .3-.1.5-.1l.6-.3c.1-.1.2-.1.3-.2.2-.1.4-.3.6-.4l.2-.2c.2-.2.4-.4.5-.6l.2-.2c.2-.2.3-.5.4-.7 0-.1.1-.1.1-.2s.1-.2.1-.2c.1-.3.2-.5.3-.8v-.2c.1-.3.1-.6.1-.9s0-.6-.1-.9v-.2c-.1-.3-.1-.5-.2-.8 0-.1-.1-.2-.1-.3s0-.1-.1-.2c0-.1-.1-.1-.1-.2-.1-.2-.2-.4-.4-.6-.1-.1-.2-.2-.2-.3-.1-.2-.3-.3-.5-.5l-.1-.1c-.1-.1-.2-.1-.2-.2-.1-.1-.3-.2-.5-.3-.1-.1-.3-.2-.4-.2-.2-.1-.3-.2-.5-.2-.2-.1-.4-.1-.6-.2-.1 0-.3-.1-.4-.1-.3-.1-.7-.1-1-.1h-.2c-.4 0-.7 0-1 .1-.3 0-.5.1-.6.1m1.4 1.5h.2c.8 0 1.5.3 2.1.7s1 1 1.3 1.6c.2.4.3.9.3 1.4 0 .4-.1.8-.2 1.1-.2.7-.6 1.3-1.2 1.7-.6.5-1.4.8-2.3.8h-.2c-.9 0-1.7-.3-2.3-.8-.5-.4-1-1-1.2-1.7-.1-.4-.2-.7-.2-1.1 0-.5.1-.9.3-1.4.3-.7.7-1.2 1.3-1.6s1.3-.7 2.1-.7m74.7 108.1v-17.3l-20.3-15.5c-.2-.1-.4-.2-.6-.2s-.4 0-.6.2l-18.3 14v2.3l18.9-14.4L181 130v16.4zm-40.5-91.8-9.1-7c-.4-.3-.9-.3-1.3 0l-9.2 7v2.6l9.8-7.5 9.8 7.5zM8.8 129.3c-.2-.2-.4-.4-.7-.5s-.6-.1-.9 0-.5.2-.8.4c-.2.2-.4.4-.5.7s-.1.6 0 .8c.1.3.2.5.4.8.2.2.4.4.7.5s.6.1.9 0 .5-.2.8-.4c.2-.2.4-.4.5-.7s.1-.6 0-.9c0-.3-.2-.5-.4-.7m-1-11.1c.4-.3.8-.7 1-1.2s.3-1.1.3-1.7-.2-1.2-.5-1.7-.7-.8-1.1-1.1c-.5-.2-1-.3-1.6-.3l-5.7.4c-.1 0-.2.1-.2.2l.1 1.4c0 .1.1.2.2.2L6 114c.4 0 .8.1 1.1.3.3.3.5.6.5 1s-.1.8-.3 1.1c-.3.3-.6.5-1.1.5l-5.7.4c-.1 0-.2.1-.2.2l.1 1.4c0 .1.1.2.2.2l5.7-.4c.6 0 1.1-.2 1.5-.5m.7-10.6c.1 0 .2-.1.2-.2l.1-1.3c0-.1-.1-.2-.2-.2l-5.2-.2h-.1v-.1l5.4-3c.1-.1.2-.1.2-.2l.1-1.3c0-.1-.1-.2-.2-.2l-8.4-.4c-.1 0-.2.1-.2.2L.1 102c0 .1.1.2.2.2l5.2.2h.1v.1l-5.4 2.9c-.1.1-.1.1-.1.2l-.1 1.3c0 .1.1.2.2.2zm1-13.1-8.4-1.1c-.1 0-.2 0-.2.2l-.2 1.3c0 .1 0 .2.2.2l8.3 1.1c.1 0 .2 0 .2-.2l.2-1.3c.1-.1 0-.2-.1-.2m-7.7-5.9 8.9-.7c.1 0 .2-.1.2-.2l.3-1.4c0-.1 0-.2-.1-.3l-7.7-4.4h-.2c-.1 0-.1.1-.1.1l-.3 1.4c0 .1 0 .2.1.3l5.6 2.9v.1h-.1l-6.3.3c-.1 0-.2.1-.2.2l-.3 1.4c0 .2.1.3.2.3m10.9-9c.1 0 .2 0 .3-.1l1.8-5.4c0-.1 0-.2-.1-.3l-1-.3c-.1 0-.2 0-.3.1l-1.3 3.9s0 .1-.1 0l-1.9-.6s-.1 0 0-.1l.8-2.5c0-.1 0-.2-.1-.3l-1-.3c-.1 0-.2 0-.3.1l-.8 2.5s0 .1-.1 0l-1.8-.6s-.1 0 0-.1l1.3-3.9c0-.1 0-.2-.1-.3l-1-.3c-.1 0-.2 0-.3.1l-1.8 5.4c0 .1 0 .2.1.3zm3.5-9.8c.1.1.2 0 .3-.1l.6-1.2c.1-.1 0-.2-.1-.3l-3.1-1.4s-.1-.1 0-.1l.5-1s0-.1.1-.1h3.8c.1 0 .2-.1.3-.2l.6-1.3V64s0-.1-.1-.1H19l-3.9.1H15v-.1c.1-.5 0-1-.3-1.4s-.6-.8-1.2-1c-.5-.2-.9-.3-1.4-.3s-.9.2-1.3.5-.7.7-.9 1.2l-1.5 3.2c-.1.1 0 .2.1.3zm-5-6.1c.1-.3.4-.5.7-.7q.45-.15.9 0c.45.15.5.4.6.6.1.3.1.6-.1.9l-.7 1.5s-.1.1-.1 0l-1.9-.9s-.1-.1 0-.1zm4.2-6.5c.4.3.9.4 1.3.3s.8-.2 1.2-.4.8-.5 1.2-.9c.4-.3.7-.6.9-.7l.6-.3c.2 0 .4 0 .5.1.2.1.4.4.4.6.1.3 0 .6-.3 1s-.6.7-.9.9c-.4.1-.7.1-1 0l-.2-.1c-.1-.1-.2 0-.3.1l-.7 1.1c-.1.1 0 .2.1.3l.2.1c.5.3.9.4 1.4.4s.9-.2 1.4-.5c.4-.3.8-.8 1.2-1.3.3-.6.5-1.1.6-1.6s0-1-.2-1.4-.5-.8-1-1c-.5-.3-.9-.4-1.3-.3s-.8.2-1.1.4-.7.5-1.2.9c-.4.4-.8.6-1 .8s-.4.3-.6.3-.4 0-.6-.1c-.3-.2-.4-.4-.4-.6q0-.45.3-.9c.3-.4.6-.7.9-.8.4-.1.7-.1 1 .1l.1.1c.1 0 .1 0 .2-.1l.7-1.1c.1-.1 0-.2-.1-.3l-.1-.1c-.5-.3-.9-.4-1.4-.4s-1 .2-1.4.5c-.5.3-.8.8-1.2 1.3q-.45.75-.6 1.5c-.15.75 0 1 .2 1.4.5.1.8.4 1.2.7m11.1-5.9c.1.1.2.1.3-.1l.8-1.1q.15-.15 0-.3l-6.9-4.9q-.15-.15-.3 0l-.8 1.1c-.1.1-.1.2.1.3zm-2.1-9.5q.15.15.3 0l1.4-1.6h.1l5.4 4.5q.15.15.3 0l.9-1q.15-.15 0-.3l-5.4-4.5v-.1l1.4-1.7q.15-.15 0-.3l-.8-.7q-.15-.15-.3 0l-4 4.8q-.15.15 0 .3zm11.9-2.5c0 .1.1.1.1.1.1 0 .1 0 .2-.1l1.1-1c.1-.1.1-.2.1-.3l-.6-1.1v-.1l2.2-2.1h.1l1.1.6c.1.1.2 0 .3 0l1.1-1 .1-.1v-.1H42l-8-4.4c-.1-.1-.2 0-.3 0L32.4 31c-.1.1-.1.2-.1.3zm-1.8-7.4 3.6 2s.1.1 0 .1l-1.6 1.6h-.1zm7.2-4.3c.4.1.9.1 1.3 0s.9-.2 1.5-.4c.5-.2.9-.3 1.1-.3.2-.1.5-.1.7 0 .2 0 .4.1.5.3.2.2.2.5.2.8-.1.3-.3.6-.6.8-.4.3-.8.5-1.2.5s-.7-.1-.9-.4l-.1-.1q-.15-.15-.3 0l-1 .8q-.15.15 0 .3l.1.2c.3.4.7.7 1.2.8s.9.2 1.5 0c.5-.1 1.1-.4 1.6-.8s.9-.8 1.2-1.3.4-.9.3-1.4c0-.5-.2-.9-.5-1.3s-.7-.7-1.1-.8-.8-.1-1.2 0-.9.2-1.5.4c-.5.2-.9.3-1.2.4s-.5.1-.7 0c-.2 0-.3-.1-.5-.3s-.2-.5-.2-.7c.1-.3.3-.5.6-.8.4-.3.8-.5 1.2-.4.4 0 .7.2.9.4l.1.1c.1.1.1.1.2 0l1-.8q.15-.15 0-.3l-.1-.1q-.45-.6-1.2-.9c-.5-.1-1-.2-1.5 0-.5.1-1.1.4-1.6.8s-.8.8-1.1 1.2c-.2.4-.4.9-.3 1.4 0 .5.2.9.5 1.3.3.3.6.5 1.1.6m18.9-12.4q.6.3 1.2.3c.6 0 1 0 1.6-.1.5-.1.9-.1 1.2-.1s.5 0 .6.1.3.2.4.4.1.5 0 .8-.4.5-.8.7-.9.3-1.2.2c-.4-.1-.6-.3-.8-.6l-.1-.2c0-.1-.1-.1-.3-.1l-1.2.6c-.1.1-.2.2-.1.3l.1.2c.2.5.6.8 1 1.1.4.2.9.4 1.4.3.5 0 1.1-.2 1.7-.5s1.1-.6 1.4-1 .6-.8.6-1.3c.1-.5 0-.9-.2-1.4s-.5-.8-.9-1-.8-.3-1.2-.3-.9 0-1.5.1-1 .1-1.3.1-.5 0-.7-.1-.3-.2-.4-.4c-.1-.3-.1-.5 0-.8.1-.2.4-.5.7-.6.5-.2.9-.3 1.2-.2.4.1.6.3.8.6l.1.1c0 .1.1.1.2 0l1.2-.6c.1-.1.2-.2.1-.3l-.1-.1c-.2-.5-.6-.9-1-1.1s-.9-.4-1.5-.4-1.1.2-1.7.4c-.5.3-1 .6-1.3 1s-.5.8-.6 1.3 0 .9.2 1.4c.5.7.8 1 1.2 1.2m8.6-6.5c0 .1.1.2.3.1l2-.7h.1l2.4 6.6c0 .1.1.2.3.1l1.3-.5c.1 0 .2-.1.1-.3l-2.4-6.6v-.1l2.1-.7c.1 0 .2-.1.1-.3l-.4-1c0-.1-.1-.2-.3-.1l-5.9 2.1c-.1 0-.2.1-.1.3zM81.9 11c.4.4.8.6 1.4.8q.75.15 1.8 0c.6-.2 1.2-.4 1.6-.8s.7-.8.9-1.3.2-1.1 0-1.6l-1.3-5.5c0-.1-.1-.2-.3-.2l-1.3.3c-.1 0-.2.1-.2.3l1.3 5.6c.1.4.1.8-.1 1.1s-.5.5-1 .7c-.4.1-.8.1-1.1-.1s-.5-.5-.6-1l-1.3-5.6c0-.1-.1-.2-.3-.2l-1.3.3c-.1 0-.2.1-.2.3l1.3 5.5c.1.6.4 1 .7 1.4m10.8-.9 3.1-.4c.6-.1 1.2-.3 1.6-.5.4-.3.8-.6 1-1.1.2-.4.3-.9.2-1.4l-.4-3.5c-.1-.5-.3-1-.6-1.3-.3-.4-.7-.6-1.2-.8S95.3.9 94.7 1l-3.1.4c-.1 0-.2.1-.2.2l1 8.4c.1.1.2.1.3.1m.8-7.5 1.5-.2c.4 0 .7 0 1 .3.3.2.4.6.5 1l.4 2.9c0 .4 0 .8-.2 1.1s-.5.5-.9.5l-1.5.2c-.1 0-.1 0-.1-.1zc-.1 0-.1.1 0 0m10 6.5 1.4-.1c.1 0 .2-.1.2-.2l-.3-8.4c0-.1-.1-.2-.2-.2l-1.4.1c-.1 0-.2.1-.2.2l.3 8.4c0 .1.1.2.2.2m7.5-.4c.5.3 1.1.5 1.7.5q1.05 0 1.8-.3c.75-.3.9-.6 1.2-1.1s.5-1 .5-1.7l.1-2.7c0-.6-.1-1.2-.3-1.7-.3-.5-.6-.9-1.1-1.2s-1.1-.4-1.7-.5c-.7 0-1.2.1-1.8.3-.5.2-.9.6-1.2 1.1s-.5 1-.5 1.6l-.1 2.7c0 .6.1 1.2.3 1.7.3.6.6 1 1.1 1.3m.5-5.5c0-.5.2-.9.5-1.2s.7-.4 1.1-.4c.5 0 .8.2 1.1.5s.4.7.4 1.2l-.1 2.8c0 .5-.2.9-.5 1.2s-.7.4-1.1.4c-.5 0-.8-.2-1.1-.5s-.4-.7-.4-1.2zm9.1 6.5 1.3.2c.1 0 .2 0 .2-.2l.5-3.3c0-.1 0-.1.1-.1l1.1.2s.1 0 .1.1l1 3.6c0 .1.1.2.2.2l1.4.2h.1l.1-.1v-.1l-1.1-3.7v-.1h.1c.5-.1 1-.3 1.3-.7s.6-.8.7-1.4c.1-.5 0-1-.1-1.4-.2-.4-.4-.8-.8-1.1s-.8-.5-1.4-.5l-3.5-.5c-.1 0-.2 0-.2.2l-1.3 8.3c0 .1 0 .2.2.2m2.6-6.9q.15-.15 0 0l1.7.2c.4.1.6.2.8.4s.3.5.2.9c-.1.3-.2.6-.5.8s-.6.2-.9.2l-1.6-.3c-.1 0-.1 0-.1-.1zm9.2 8.9c.4.4.9.6 1.6.8.6.2 1.2.2 1.8.1.5-.1 1-.4 1.4-.7.4-.4.7-.8.8-1.4l1.5-5.5c0-.1 0-.2-.2-.3l-1.3-.4c-.1 0-.2 0-.3.2l-1.5 5.5c-.1.4-.3.7-.7.9-.3.2-.7.2-1.2.1-.4-.1-.7-.3-.9-.7-.2-.3-.2-.7-.1-1.2l1.5-5.5c0-.1 0-.2-.2-.3l-1.3-.4c-.1 0-.2 0-.3.2l-1.5 5.5c-.2.6-.2 1.1 0 1.6q.3.9.9 1.5m10.4 3.5c.1.1.2 0 .3-.1l2-5.1h.1c.1 0 0 0 0 .1l.4 2.4c0 .1.1.2.2.2l.6.2h.3l2-1.5h.1v.1l-2 5.1c-.1.1 0 .2.1.3l1.3.5c.1.1.2 0 .3-.1l3.1-7.8c.1-.1 0-.2-.1-.3l-1.3-.5h-.3l-2.8 2.1h-.1v-.1l-.6-3.4c0-.1-.1-.2-.2-.2l-1.3-.5c-.1-.1-.2 0-.3.1l-3.1 7.8c-.1.1 0 .2.1.3zm22 11.5c.7.5 1.5.8 2.2.7.7 0 1.3-.4 1.7-1 .6-.8.6-1.6.2-2.4v-.1h.1c.8.1 1.4-.2 1.9-.9.9-1.3.6-2.6-1.1-3.7l-2.6-1.8c-.1-.1-.2-.1-.3.1l-4.8 6.9c-.1.1-.1.2.1.3zm2.8-6.9h.1l1.2.8c.3.2.5.5.6.8s0 .6-.2.8c-.2.3-.4.4-.7.4s-.6-.1-.9-.3l-1.2-.8v-.1zm-2 2.9h.1l1.3.9c.3.2.5.5.6.8s0 .6-.2.9-.4.4-.7.5q-.45 0-.9-.3l-1.3-.9v-.1zm5.3 8.5 4.3 3.7q.15.15.3 0l.7-.8q.15-.15 0-.3l-3.1-2.7V31l1.3-1.5h.1l2 1.7q.15.15.3 0l.7-.8q.15-.15 0-.3l-2-1.7v-.1l1.3-1.5h.1l3.1 2.7q.15.15.3 0l.7-.8q.15-.15 0-.3l-4.3-3.7q-.15-.15-.3 0l-5.5 6.4c-.1-.1-.1 0 0 .1m7.7 7 .9 1q.15.15.3 0l2.5-2.3h.1l.8.8v.1l-1.4 3.5c0 .1 0 .2.1.3l1.1 1.1h.1l.1-.1 1.4-3.6h.1c.5.3 1 .3 1.5.3.5-.1 1-.3 1.4-.7s.6-.8.8-1.2c.1-.4.2-.9 0-1.3-.1-.5-.4-.9-.7-1.3l-2.4-2.6q-.15-.15-.3 0l-6.1 5.8c-.4-.1-.4 0-.3.2m4.8-2.4 1.5-1.5h.1l1.1 1.2c.2.3.4.5.4.9 0 .3-.1.6-.4.8-.2.2-.5.3-.8.3s-.6-.2-.8-.4l-1.1-1.2c-.1 0-.1-.1 0-.1m3.4 9.5c-.2.5-.3 1-.2 1.6s.3 1.1.7 1.6.8.9 1.3 1.1 1 .3 1.6.3c.5-.1 1.1-.3 1.6-.7l1.3-1q.15-.15 0-.3l-1.8-2.4q-.15-.15-.3 0l-.8.6q-.15.15 0 .3l.8 1.1v.1l-.4.3c-.3.2-.7.3-1 .3q-.45-.15-.9-.6c-.3-.4-.4-.7-.3-1.2 0-.4.3-.7.6-1l2.3-1.8c.4-.3.7-.4 1.1-.3.4 0 .7.3 1 .6.3.4.4.7.3 1.1 0 .4-.2.7-.5.9l-.1.1v.1s0 .1.1.1l.8 1.1q.15.15.3 0 .6-.45.9-1.2c.3-.75.2-1 .1-1.5s-.3-1.1-.7-1.6-.8-.9-1.3-1.1-1-.3-1.6-.3c-.5.1-1.1.3-1.5.7l-2.3 1.7c-.5.4-.9.8-1.1 1.3m6.3 8.7c-.3.5-.4 1-.4 1.6s.2 1.1.5 1.7.8 1 1.2 1.3c.5.3 1 .4 1.6.4s1.1-.2 1.7-.5l2.3-1.4q.75-.45 1.2-1.2c.45-.75.4-1 .4-1.6s-.2-1.1-.6-1.7c-.3-.6-.8-1-1.2-1.3-.5-.3-1-.4-1.6-.4s-1.1.2-1.6.5l-2.3 1.4c-.5.3-.9.8-1.2 1.2m1.3 1.3c.1-.4.4-.7.8-1l2.4-1.4c.4-.3.8-.3 1.2-.2s.7.3 1 .7c.2.4.3.8.2 1.2s-.4.7-.8 1l-2.4 1.4c-.4.3-.8.3-1.2.2s-.7-.3-1-.7c-.2-.4-.3-.8-.2-1.2m2.9 8.8.6 1.2c.1.1.2.2.3.1l5-2.3h.1v.1l-1.4 2q-.15.15 0 .3l.3.6c0 .1.1.2.2.2l2.4.3h.1v.1l-5 2.3c-.1.1-.2.2-.1.3l.6 1.2c.1.1.2.2.3.1l7.7-3.5c.1-.1.2-.2.1-.3l-.6-1.2c0-.1-.1-.2-.2-.2l-3.5-.5h-.1v-.1l1.9-2.9q.15-.15 0-.3l-.6-1.2c-.1-.1-.2-.2-.3-.1l-7.7 3.5c-.1.1-.2.2-.1.3m4.6 10.9 1.8 5.4c0 .1.1.2.3.1l1-.3c.1 0 .2-.1.1-.3l-1.3-3.9v-.1l1.9-.6h.1l.8 2.5c0 .1.1.2.3.1l1-.3c.1 0 .2-.1.1-.3l-.8-2.5v-.1l1.8-.6h.1l1.3 3.9c0 .1.1.2.3.1l1-.3c.1 0 .2-.1.1-.3l-1.8-5.4c0-.1-.1-.2-.3-.1l-8 2.6c.2.2.2.3.2.4m2.9 9.9.3 1.3c0 .1.1.2.3.2l5.1-1.1h.1v.1l-4.6 4.2c-.1.1-.1.2-.1.3l.3 1.3c0 .1.1.2.3.2l8.2-1.7c.1 0 .2-.1.2-.3l-.3-1.3c0-.1-.1-.2-.3-.2l-5.1 1.1h-.1v-.1l4.5-4.2c.1-.1.1-.2.1-.3l-.3-1.3c0-.1-.1-.2-.3-.2l-8.1 1.8c-.1 0-.2.1-.2.2m3.7 16.6c.4.2.9.3 1.4.3.5-.1.9-.2 1.3-.5.3-.3.5-.6.7-1 .1-.4.3-.8.4-1.4s.2-1 .3-1.2q.15-.45.3-.6c.15-.15.3-.2.5-.2.3 0 .5.1.7.3s.3.5.3.9c0 .5 0 .9-.3 1.2-.2.3-.5.5-.9.5h-.1c-.1 0-.1.1-.1.2l.1 1.3c0 .1.1.2.2.2h.1c.5-.1 1-.2 1.4-.6.4-.3.7-.7.8-1.3.2-.5.2-1.1.2-1.7-.1-.6-.2-1.1-.5-1.6-.2-.4-.6-.8-1-1s-.9-.3-1.4-.3-.9.2-1.2.5-.6.7-.7 1.1c-.2.4-.3.9-.5 1.5-.1.5-.2.9-.3 1.1l-.3.6c-.1.1-.3.2-.5.2-.3 0-.5-.1-.7-.3s-.3-.5-.4-1c0-.5 0-.9.2-1.2s.5-.5.8-.5h.2c.1 0 .2-.1.1-.2l-.1-1.3c0-.1-.1-.2-.2-.2h-.2c-.5.1-1 .2-1.3.5-.4.3-.6.7-.8 1.2s-.2 1.1-.2 1.7c.1.7.2 1.2.5 1.7.5.5.8.8 1.2 1.1m7.9 4.8c0-.1-.1-.2-.2-.2l-8.4.1c-.1 0-.2.1-.2.2v1.4c0 .1.1.2.2.2l8.4-.1c.1 0 .2-.1.2-.2zm-1.1 6.9c-.4-.3-.8-.4-1.3-.5-.5 0-1 .1-1.3.3-.4.2-.7.6-.9.9-.2.4-.5.8-.7 1.4-.2.5-.4.8-.5 1.1-.1.2-.3.4-.4.5s-.3.2-.5.2c-.3 0-.5-.1-.7-.4-.2-.2-.2-.6-.2-1 0-.5.2-.9.4-1.2.3-.3.5-.4.9-.4h.2c.1 0 .2-.1.2-.2l.1-1.3c0-.1-.1-.2-.2-.2h-.2c-.5 0-1 .1-1.4.3s-.7.6-1 1.1-.4 1-.5 1.7c0 .7 0 1.2.2 1.7s.4.9.8 1.2.8.5 1.3.5 1-.1 1.3-.3c.4-.2.6-.5.8-.9.2-.3.4-.8.7-1.4.2-.5.4-.9.5-1.2.1-.2.3-.4.4-.5.2-.1.3-.2.5-.2.3 0 .5.1.7.4.2.2.2.5.2.9 0 .5-.2.9-.5 1.2s-.6.4-.9.4h-.1c-.1 0-.1.1-.1.2l-.1 1.3c0 .1.1.2.2.2h.1c.5 0 1-.1 1.4-.3.4-.3.8-.6 1-1.1.3-.5.4-1.1.5-1.7 0-.6 0-1.1-.2-1.6-.1-.4-.4-.8-.7-1.1m-5.5 16c-.2-.2-.5-.3-.8-.4s-.6-.1-.9 0-.5.2-.7.5c-.2.2-.3.5-.4.8s-.1.6 0 .8c.1.3.2.5.5.7.2.2.5.3.8.4s.6 0 .8 0c.3-.1.5-.2.7-.5.2-.2.3-.5.4-.8s.1-.6 0-.8c0-.3-.2-.5-.4-.7"/></g></svg>