<svg xmlns="http://www.w3.org/2000/svg" width="266.667" height="266.667" viewBox="0 0 200 200"><path d="M0 0h200v200H0z" fill="#fff"/><path d="M32.335 81.723c-3.75 4.713-8.203 8.376-14.306 8.376-4.104 0-7.767-1.394-7.767-6.285 0-1.218.525-4.012 1.134-6.805l4.447-20.585H8.957l.608-2.178h8.027c2.705 0 5.321-.35 8.021-.35L20.298 76.49c-.703 3.142-1.312 6.106-1.312 7.241 0 2.268 2.009 2.788 3.75 2.788 1.483 0 3.316-1.134 4.537-1.92 3.928-2.529 5.758-7.324 6.804-11.689l4.449-18.663h9.071l-5.842 25.556c-.613 2.617-.963 4.625-.874 5.233.09.875.964 1.4 1.741 1.4 3.145 0 6.983-7.242 8.117-9.775l1.92 1.052C50.391 83.554 45.595 90.1 38.871 90.1c-5.232 0-6.625-3.313-6.537-8.376M55.415 52.44l3.113-23.005h2.9l-1.268 8.914.063.063c1.236-1.234 2.237-1.665 3.645-1.665 3.135 0 5.277 2.806 5.277 6.842 0 4.011-2.205 9.085-9.757 9.085-1.432 0-3.104-.101-3.974-.233zm4.379-11.321-1.305 9.217h1.571c3.941 0 6.176-2.768 6.176-6.81 0-2.738-1.233-4.309-3.235-4.309-.938 0-3.011.634-3.207 1.901" fill="#161413"/><path d="M9.166 126.383h181.022" fill="none" stroke="#161413" stroke-width="1.799"/><path d="m9.509 141.147 1.046-7.76h.981l-.43 3.008.025.025c.411-.417.753-.564 1.221-.564 1.06 0 1.782.944 1.782 2.305s-.742 3.068-3.288 3.068c-.482 0-1.047-.04-1.337-.082m1.468-3.813-.437 3.104h.533c1.325 0 2.085-.932 2.085-2.295 0-.923-.42-1.455-1.098-1.455-.315 0-1.013.211-1.084.646" fill="#161413"/><path d="M9.787 152.163v-4.877h2.097v4.529c0 1.039.28 1.914 1.35 1.914s1.349-.875 1.349-1.914v-4.529h2.099v4.877c0 2.154-1.394 3.125-3.447 3.125s-3.446-.971-3.446-3.125m14.329 2.985-2.75-5.372c-.018 0 .046 5.372.046 5.372h-1.928v-7.862h2.674l2.654 5.342h.026l-.032-5.342h1.913v7.862zm5.728 0v-7.862h2.092v7.862zm6.895 0-2.636-7.862h2.23l1.741 6.169h.025l1.756-6.169h2.153l-2.68 7.862zm7.387 0v-7.862h5.543v1.488h-3.447v1.623h3.258v1.487h-3.258v1.773h3.575v1.491zm12.721 0-.455-1.419c-.424-1.35-.697-1.692-1.476-1.692h-.438v3.111h-2.092v-7.862h3.74c1.393 0 2.533.633 2.533 1.982 0 1.045-.501 1.749-1.514 1.984v.023c.677.18.722.774 1.114 1.731l.767 2.142zm-2.369-4.593h.552c.678 0 1.533-.027 1.533-.912 0-.737-.73-.869-1.533-.869h-.552zm6.741 4.388.186-1.733c.537.297 1.291.519 2.159.519.665 0 1.291-.133 1.291-.765 0-1.467-3.711-.54-3.711-3.402 0-1.889 1.844-2.411 3.42-2.411.754 0 1.495.117 2.028.291l-.133 1.623a4.3 4.3 0 0 0-1.75-.361c-.525 0-1.405.046-1.405.736 0 1.274 3.712.417 3.712 3.254 0 2.037-1.71 2.594-3.452 2.594-.735 0-1.648-.114-2.345-.345m8.465.205v-7.862h2.097v7.862zm5.987 0v-6.302h-1.939v-1.56h5.969v1.56h-1.939v6.302h-2.09m11.231 0-.582-1.677h-2.954l-.621 1.677H80.62l2.985-7.862h2.564l3.035 7.862zm-3.053-3.162h1.97l-.932-3.08h-.025zm1.545-5.111v-1.622h1.622v1.622zm-2.571 0v-1.622h1.626v1.622zm9.262 8.273v-6.302h-1.939v-1.56h5.974v1.56h-1.938v6.302zM9.845 169.226v-7.864h3.616c1.464 0 2.554.648 2.554 1.998 0 .994-.506 1.544-1.387 1.835v.021c1.053.216 1.59.777 1.59 1.734 0 1.884-1.652 2.276-3.06 2.276zm2.096-1.485h.616c.766 0 1.565-.113 1.565-.912 0-.854-.817-.935-1.541-.935h-.64zm0-3.266h.584c.685 0 1.395-.171 1.395-.831 0-.722-.673-.792-1.37-.792h-.608zm6.64 4.751v-7.864h5.544v1.49h-3.447v1.623h3.249v1.488h-3.249v1.778h3.567v1.485zm12.867 0-.449-1.419c-.432-1.35-.703-1.688-1.477-1.688h-.442v3.107h-2.092v-7.864h3.738c1.393 0 2.534.635 2.534 1.985 0 1.051-.494 1.749-1.509 1.98v.028c.673.176.718.773 1.116 1.736l.767 2.135zm-2.368-4.592h.55c.679 0 1.534-.021 1.534-.915 0-.734-.729-.867-1.534-.867h-.55zm11.511 4.592-2.751-5.372c-.017 0 .053 5.372.053 5.372h-1.927v-7.864h2.666l2.656 5.342h.026l-.034-5.342h1.914v7.864z" fill="#e3003a"/></svg>