<svg xmlns="http://www.w3.org/2000/svg" width="1000" height="1000" viewBox="0 0 1000 1000" xml:space="preserve"><rect width="100%" height="100%" fill="rgba(255,255,255,0)"/><path style="stroke:none;stroke-width:1;stroke-dasharray:none;stroke-linecap:butt;stroke-dashoffset:0;stroke-linejoin:miter;stroke-miterlimit:4;is-custom-font:none;font-file-url:none;fill:#d6ce9f;fill-rule:evenodd;opacity:1" vector-effect="non-scaling-stroke" transform="translate(-1682.884 -208.808)scale(10.0021)" d="M168.303 22.919c7.767 12.236 18.98 11.972 32.372 15.66 10.37 2.856 19.889 7.533 27.573 15.22 7.534 7.538 12.578 17.385 14.706 30.237 1.273-2.218 2.43-3.866 3.596-5.273 2.229-2.688 4.681-5.303 8.368-5.673 3.879-.389 7.785 1.762 9 5.988l3.917 3.026-5.055.312c-2.54.157-4.822 1.932-5.227 5.109-.258 2.017.641 3.668.98 5.63 1.264 7.297-1.567 13.962-7.679 19.208-4.544 3.901-9.212 5.926-15.205 6.37-12.296.913-22.701-6.077-32.65-14.978 11.95 10.488 24.544 9.782 25.551-1.883-9.763 4.074-16.42 2.12-21.712-2.666-2.984-2.698-4.39-5.887-6.788-9.012-5-6.519-11.688-10.508-19.509-12.797 7.139-1.72 14.015-2.296 20.451-.606 5.579 1.465 10.83 4.93 15.333 8.454 4.597 3.598 8.627 7.776 12.09 12.324-.595-10.167-9.572-19.746-23.988-28.944-8.33-5.314-16.746-8.945-23.333-16.678-6.764-7.942-10.7-17.845-12.79-29.029"/></svg>