<svg xmlns="http://www.w3.org/2000/svg" width="1000" height="1000"><path fill="rgba(255,255,255,0)" d="M0 0h1000v1000H0z"/><g vector-effect="non-scaling-stroke" transform="matrix(4.0502 0 0 4.0502 500.1997 500.0013)"><path d="M-122.464-31.972v17.144h9.797v29.389h-9.797v17.145h44.084V14.562h-9.797v-29.39h9.797v-17.144zm225.42 2.335c-3.181 0-5.491 2.4-5.491 5.331v.029c0 2.93 2.281 5.301 5.462 5.301s5.491-2.4 5.491-5.329v-.03c0-2.929-2.281-5.301-5.462-5.301zm-60.544.03c-2.106 0-3.607 1.237-3.607 3.106v.03c0 2.046 1.339 2.621 3.415 3.151 1.722.442 2.076.736 2.076 1.309v.031c0 .604-.559.971-1.487.971-1.177 0-2.149-.485-3.077-1.251l-1.339 1.604a6.56 6.56 0 0 0 4.372 1.65c2.224 0 3.785-1.15 3.785-3.196v-.029c0-1.797-1.18-2.547-3.269-3.092-1.783-.457-2.224-.677-2.224-1.355v-.03c0-.501.457-.898 1.324-.898s1.768.383 2.681 1.016l1.179-1.709c-1.046-.839-2.329-1.309-3.829-1.309zm-87.107.147v5.89c0 3.034 1.693 4.579 4.462 4.579s4.52-1.531 4.52-4.652v-5.817h-2.267v5.904c0 1.634-.84 2.474-2.223 2.474s-2.223-.869-2.223-2.548v-5.83zm15.481 0v10.307h2.238v-6.552l4.991 6.552h1.929V-29.46h-2.238v6.347l-4.829-6.347zm15.823 0v10.307h2.268V-29.46zm7.859 0l4.165 10.38H.635l4.168-10.38H2.357l-2.693 7.259-2.695-7.259zm15.905 0v10.307h7.848v-2.016h-5.595v-2.165h4.859v-2.017h-4.859v-2.091h5.521v-2.018zm14.067 0v10.307h2.267v-3.297h1.78l2.21 3.297h2.65l-2.519-3.68c1.311-.487 2.209-1.532 2.209-3.195v-.03c0-2.12-1.456-3.402-3.886-3.402zm28.232 0v10.307h2.267V-29.46zm7.935 0v2.091h3.136v8.215h2.267v-8.215h3.135v-2.091zm13.627 0l3.96 6.243v4.064h2.267v-4.109l3.96-6.199h-2.577l-2.503 4.138-2.459-4.138zm40.265 0v10.307h2.267v-3.989h4.917v-2.062h-4.917v-2.194h5.58v-2.062zm-11.569 1.915c1.827 0 3.121 1.472 3.121 3.239v.029c0 1.767-1.266 3.21-3.091 3.21s-3.121-1.472-3.121-3.239v-.03c0-1.766 1.266-3.209 3.091-3.209zm-76.223.132h2.251c1.105 0 1.783.501 1.783 1.472v.03c0 .868-.634 1.457-1.738 1.457h-2.297zm44.515 15.477c-8.147 0-14.068 6.148-14.068 13.653v.076c0 7.506 5.847 13.579 13.994 13.579S85.216 9.224 85.216 1.717v-.074c0-7.506-5.846-13.579-13.994-13.579zm40.708.075c-5.393 0-9.241 3.169-9.241 7.959v.075c0 5.243 3.431 6.714 8.751 8.072 4.413 1.132 5.319 1.885 5.319 3.357v.075c0 1.547-1.434 2.49-3.81 2.49-3.017 0-5.506-1.245-7.882-3.205l-3.433 4.111c3.168 2.83 7.205 4.224 11.203 4.224 5.695 0 9.694-2.942 9.694-8.184v-.075c0-4.602-3.018-6.526-8.374-7.922-4.565-1.169-5.697-1.735-5.697-3.47v-.075c0-1.282 1.169-2.302 3.394-2.302s4.527.982 6.865 2.603l3.019-4.375c-2.678-2.15-5.96-3.357-9.808-3.357zm-155.735.377v26.405h5.809v-26.405zm12.71 0v26.405h18.971V9.639h-13.163v-21.123zm23.228 0v26.405h18.973V9.639H-2.06v-21.123zm23.355 0v26.405h5.808v-26.405zm12.709 0v26.405h5.734V-1.865l12.786 16.786h4.942v-26.405h-5.734V4.772L33.554-11.484zm62.641 0v26.405h5.81v-26.405zM71.147-6.582c4.678 0 7.996 3.774 7.996 8.299v.076c0 4.526-3.244 8.222-7.922 8.222s-7.996-3.772-7.996-8.299v-.074c0-4.527 3.244-8.225 7.922-8.225zM33.869 22.486c-2.043 0-3.469 1.549-3.469 3.44v.019c0 1.911 1.454 3.421 3.412 3.421 1.282 0 2.044-.456 2.728-1.188l-.933-.941c-.522.475-.987.779-1.747.779-1.141 0-1.929-.949-1.929-2.09v-.019c0-1.14.808-2.073 1.929-2.073.664 0 1.188.287 1.701.752l.931-1.074c-.618-.608-1.369-1.027-2.623-1.027zm74.063 0c-2.015 0-3.488 1.549-3.488 3.44v.019c0 1.968 1.426 3.421 3.498 3.421 1.043.004 2.053-.371 2.841-1.054v-2.889h-2.889v1.264h1.474v.949c-.37.266-.846.399-1.379.399-1.179 0-2.014-.893-2.014-2.11v-.019c0-1.131.845-2.073 1.909-2.073.77 0 1.226.248 1.74.676l.922-1.113c-.694-.589-1.415-.912-2.613-.912zm-116.593.067l-2.851 6.7h1.493l.608-1.492h2.813l.608 1.492h1.53l-2.85-6.7zm22.92 0l-2.85 6.7h1.492l.608-1.492h2.813l.608 1.492h1.53l-2.851-6.7zm40.86 0l-2.851 6.7h1.493l.608-1.492h2.813l.608 1.492h1.53l-2.851-6.7zm33.297 0l-2.851 6.7h1.493l.608-1.492h2.813l.608 1.492h1.529l-2.85-6.7zm-132.24.047v3.802c0 1.958 1.093 2.956 2.88 2.956s2.917-.989 2.917-3.004V22.6h-1.463v3.811c0 1.055-.542 1.597-1.436 1.597s-1.435-.561-1.435-1.644V22.6zm11.241 0v6.653h1.464v-2.127h1.15l1.426 2.127h1.71l-1.625-2.376c.846-.314 1.426-.989 1.426-2.062v-.019c0-.627-.2-1.15-.57-1.52-.437-.437-1.093-.676-1.939-.676zm10.823 0v6.653h3.165c1.501 0 2.491-.608 2.491-1.825v-.019c0-.894-.476-1.339-1.246-1.634.475-.266.874-.685.874-1.436v-.019c0-.456-.152-.827-.456-1.131-.38-.381-.979-.59-1.74-.59zm22.275 0v6.653h1.444v-4.229l3.222 4.229h1.245V22.6H4.982v4.097L1.865 22.6zm41.146 0v6.653h1.463v-2.67h2.7v2.67h1.463V22.6h-1.463v2.633h-2.7V22.6zm22.635 0v6.653h1.435v-4.314l1.854 2.813h.037l1.872-2.842v4.343h1.454V22.6h-1.576l-1.749 2.814-1.748-2.814zm12.202 0v6.653h1.463v-1.995h1.111c1.492 0 2.69-.799 2.69-2.339V24.9c0-1.359-.961-2.3-2.547-2.3zm21.162 0v6.653h1.463V22.6zm18.481 0v6.653h1.444v-4.229l3.222 4.229h1.245V22.6h-1.445v4.097L117.49 22.6zm-136.473 1.283h1.444c.618 0 .96.248.96.686v.019c0 .494-.408.702-1.054.702h-1.35zm-10.785.038h1.454c.712 0 1.151.323 1.151.95v.019c0 .561-.41.942-1.122.942h-1.482zm109.079 0h1.131c.733 0 1.188.352 1.188 1.008v.019c0 .57-.426 1.008-1.159 1.008h-1.159zm-85.967.39l.885 2.157h-1.769zm22.92 0l.884 2.157h-1.767zm40.86 0l.885 2.157h-1.767zm33.297 0l.884 2.157h-1.767zm-66.147 1.302v1.388h2.928v-1.388zm-43.255.893h1.692c.75 0 1.084.276 1.084.723v.019c0 .494-.391.721-1.037.721h-1.739z" fill="#13294b"/><path d="M-88.176-17.277h7.347v-12.246h-39.187v12.245h7.348a2.45 2.45 0 0 1 2.449 2.449v29.391a2.45 2.45 0 0 1-2.449 2.449h-7.348v12.245h39.187V17.011h-7.347a2.45 2.45 0 0 1-2.45-2.449v-29.39a2.45 2.45 0 0 1 2.45-2.449" fill="#ff5f05"/></g></svg>