<svg xmlns="http://www.w3.org/2000/svg" width="1000" height="1000" xmlns:v="https://vecta.io/nano"><path fill="rgba(255,255,255,0)" d="M0 0h1000v1000H0z"/><path vector-effect="non-scaling-stroke" transform="matrix(10.0124 0 0 10.0124 .5 1.50122)" d="M53.7 64.8s-3.3.3-4.5-.2l-.9 2.1c.7.7.5 2 .5 2l.5 1.1s-3.1 1.4-5.8 1.7c-2.2.2-5.3-.8-5.3-.8 0 .9-.2 1.9-.8 2.2a2.2 2.2 0 0 0-1 1.8v1.5H32l.6-1.6c.3-.7 1.4-1.3 2-1.9.7-.8 1.3-2.6 1.3-2.6s-1.2-1.1-4-4.1c-3-3.1-4.1-7.1-4.3-7.6l-3.5-1.2c-.5-.2-.9 0-1 0 .1.3.3 1.4.5 2.2.1.5.6 1 1 1.4s.8.7.8.7l-.4.8 1.8 1.1-1.1 3.5s-1.2-.9-2.4-2.5c-.8-1.1-1.7-3.3-2.7-7.9-.3-1.3-.1-2.5.8-2.4.4 0 4.1.6 4.1.6L28 51c.8-1.2-.6-5.8-1.6-5.8-.3 0-.4.4-.3.9.4.1.7.5.7.9 0 .5-.4.9-.9.9 0 0 .2 1.6 0 1.8-.2.3-1.6.7-2.2.7-.8 0-1.6-1.7-2-2.6-.3-.9-1.5-5.1-1.8-6.6-.2-1.1.3-2.6.7-3.1l-.5-2.9 1.9 1.3-1-2.2 3 1.7q.9-.3 1.8-.3c.5 0 .9 0 1.5.1 1 .1 2.2.4 3.9 1.1l.1-.1s.1.1.1.2l1.9 1c.3.1.5.3.8.4s.5.3.7.4l2.1 1.3c.4.3.8.5 1.2.7.6.4 2.2.9 2.8 1.1.2.1.4.1.6.2 0 0 1.2.4 1.4 0 .2-.5.3-.9.3-1.5s-.5-3-.5-3c-.1 0-1.2-.4-1.4-.5-.1 0-.2-.1-.2-.1-.2-.2-.1-1.9.1-2.3s.6-.5 1.1-.4l-1.2-5.9c-.4-.1-.8-.3-1-1-.1-.6.2-1.2.5-1.4-.2-.6-.8-1.1-1.5-1.1h-.3c-.8.2-1.4 1-1.2 1.8.1.4.3.7.7 1 .3.3.2.6.1.7s-.2.2-.3.2H38c-.7 0-1.3-1.2-1.4-1.8-.3-1.4.7-2.8 2.1-3 .7-.1 1.4 0 1.9.4l-.4-2.2s.8-.2 1.1 1.8l.3 1.9c.4.1 1 .4 1 1.3 0 .5-.1.7-.5 1.1l1.3 6.4 1 .4c.4-1.4 1.6-4.3 2.9-6l.1-1.6s.4-.1.4-.4c0-.2-.5-.4-.5-.4v-.7l-.7-.2.7-2.2-.3-.2s-.2-1.5.3-5l.8-4.4 1.6 4.6 1.4-4.7 1.6 11.1c1.5.5 2.2 1.7 2.4 2.9.1 1.1-.4 1.8-.6 2.1l2 16s.1.5.6.7c.4.1 8.3 1.2 9.1 1.4 2.3.3 3.8 3.2 5.5 3.4 1.6.2 2.5-.3 3.7-2.1s3.2-3.7 5.4-2.9c1.9.7 3 2.8 2.2 4-4.6 6.6 1 5.2 1 5.2s-1.1 1.4-3 1.1c-3.3-.7-1.4-4.1-2.8-4.8-1.7-.8-3.3 2.6-7.1.9 1.9 3.3-1.7 6.3.4 11.6l2.5 6.8h-2.8v.6c0 .6-.3 1.1-.9 1.4-.5.3-1 1.6-1 1.6v1.7h-4.4l.1-.1s.3-1 .9-1.7c.8-1 2.1-1.8 2.7-3.5h-7.3v.6c0 .6-.3 1-.9 1.4-.7.5-1 1.6-1 1.6v1.7H55l.1-.1s.2-.6.6-1.2 1.4-1.6 1.9-2c.5-.3.9-1.2 1-2l-4.9 1.1.2-1.2s-1-.4-1.1-.8c-.3-1.3 1.7-1.8.9-5.4M22.7 90c-.2.2-.2.3 0 .5l.3.2v.1l-.1.1h-.1c-.1 0-.3-.3-.9-.7q-.75-.6-.9-.6v-.1l.1-.2h.1l.3.2c.2.1.4.1.5 0s.3-.4.6-.8l.5-.7c.2-.3.5-.7.7-.9q.3-.45.3-.9c0-.4-.3-.8-.5-1a1.93 1.93 0 0 0-1-.3c-.4.1-.8.3-1.1.8l-.8 1.1a7.96 7.96 0 0 0-.8 1.2c-.1.2-.1.3.1.4l.2.2v.1l-.1.2H20c-.1 0-.3-.3-.7-.6s-.6-.4-.6-.4c-.1 0 0-.1 0-.1l.1-.1h.1l.2.2c.2.2.4 0 .4-.1.1-.1.7-.9.7-1 .1-.1.8-1.1 1-1.3.4-.5.8-.7 1.4-.8.4 0 .9.1 1.4.4.3.2.6.5.8.8.2.4.3.9.1 1.3-.1.3-.4.7-1 1.5zM18 84.7c.9-.9 1.6-1.7 1.7-1.9.2-.3.3-.5.1-.7l-.1-.1v-.1l.1-.1h.1l.6.6c.1.1.5.5.6.5v.1l-.1.1h-.1l-.2-.1c-.1-.1-.3-.1-.7.2-.1.1-.9.8-1.7 1.7l-.7.7c-.3.3-.4.7-.1 1l.2.2v.1l-.1.1h-.1l-.2-.2-.5-.5-.2-.2c-.1-.1-.1-.1-.2-.1-.1-.1-.1-.1-.1-.2s.2-2.4.3-2.7c0-.2.2-2 .2-2.2l-.5.6-1 1c-.2.2-.7.8-.7.9-.1.2 0 .4.1.5l.2.2v.1l-.1.1h-.1l-.6-.6c-.3-.3-.5-.4-.5-.5v-.1l.1-.1h.1l.2.1c.1.1.2.1.5-.1.4-.3 1.3-1.2 1.8-1.7l1.4-1.4c.1-.1.1-.2.2-.1s.1.2.1.3 0 .7-.1 1.4c-.1.8-.1 1.7-.2 1.9 0 .1-.2 2.1-.2 2.2zm-4.3-5.9c.1 0 1.4-1.2 1.4-1.2.2-.2.1-.3 0-.4l-.2-.2v-.1l.1-.1h.1c.1.1.2.3.7.9s.7.8.8.9v.1l-.2.1h-.1l-.2-.2c-.1-.1-.2-.2-.4-.1-.1.1-1.3 1.1-1.6 1.3l-.4.2c-.1.1-1.2 1-1.2 1.1-.1.1-.1.2 0 .4l.2.3v.1l-.1.1h-.1c-.1-.1-.3-.4-.8-.9-.5-.6-.6-.7-.7-.8v-.1l.1-.1h.1l.2.2c.1.1.2.2.3.1.1 0 1.3-1.1 1.4-1.1zm-5.4-2.6s-.1 0 0 0c-.1-.1-.3-.4-.6-.8-.4-.5-.5-.7-.5-.7v-.1l.2-.1h.1l.1.1c.1.3.2.4.6.4.5 0 1.7-.3 2.2-.4.4-.1 2.7-.5 2.8-.6.1 0 .1 0 .2.1s0 .2-.1.2c-.4.6-1.5 2-1.9 2.6-.3.5-.9 1.3-1.1 1.5-.1.1-.1.3 0 .4l.1.1v.1l-.1.1h-.1c0-.1-.2-.3-.6-.9l-.6-.9v-.1l.1-.1h.1l.2.3c.1.2.2.2.3.2l.2-.2c.2-.2.8-.9 1-1.3.2-.2.9-1.2 1.2-1.6-.4.1-1.7.4-2 .4-.4.1-1.6.3-1.8.5-.1.1-.1.2 0 .4l.2.2v.1zm.4-5.4c.4-.2 1-.5 1.1-.6.3-.2.4-.4.4-.5s-.1-.3-.2-.5c0-.2-.2-.5-.3-.6s-.3-.3-.5-.4-.8-.2-1-.3c0 0-.1 0-.1-.1v-.1h.1l1.2-.2c.1 0 .1 0 .2.1l.3.6c.2.4.6 1.1 1.1 2.2l.3.6c.1.1.1.2.2.3v.1l-.2.1h-.1l-.2-.4c-.2-.3-.2-.3-.5-.2L8.3 72c-.5.3-1.4.7-1.5.8-.2.1-.2.2-.1.4l.1.3v.1l-.2.1h-.1c-.1-.1-.2-.4-.5-.9l-.1-.2c-.1-.3-.9-1.8-1.1-2.1-.1-.1-.1-.2-.1-.3v-.1c.1-.1.9-.8.9-.8H6v.1s-.4.9-.4 1.1 0 .4.1.6l.5 1 1.9-1c-.1-.2-.4-.7-.4-.7-.1-.1-.2-.2-.4-.2-.1 0-.3 0-.4.1h-.1l-.1-.2V70c.1 0 .6-.3.7-.4.3-.1.6-.3.7-.4h.1l.1.1v.1l-.3.3c-.1.1-.1.3-.1.5.1.3.2.6.3.8zm-2-5.1c.4-.2 1.2-.4 1.3-.5s.2-.2.2-.3l-.2-.3v-.1l.2-.1s.1 0 .1.1.1.2.3 1c.3.7.4.8.4.9v.1l-.2.1h-.1l-.1-.2c-.1-.2-.1-.3-.3-.2-.7.2-1.4.5-2 .7l-1.9.7c-.2.1-.3.2-.3.4l.1.3v.1l-.2.1h-.1s-.1-.3-.3-1c-.1-.4-.4-1-.5-1.2-.2-.6-.2-1.1 0-1.4a1.21 1.21 0 0 1 .7-.7c.9-.3 1.4.1 1.8.8 0-.2.1-.4.2-.5.2-.5.7-1.1.7-1.2a7.02 7.02 0 0 0 .6-.9c.1-.2 0-.4 0-.5v-.1l.1-.1h.1c0 .1.1.2.2.7.1.2.2.5.2.6s-.2.3-.3.5c-.2.2-.6.7-.6.8-.1.1-.4.4-.5.6-.2.3-.3.5-.2.8 0 0 .1.1.1.2zm-.7.2c0-.1 0-.2-.1-.3-.4-1.1-1.4-1-1.7-.9a1.41 1.41 0 0 0-.7.6c-.1.3-.1.7 0 1 0 .1.1.2.1.2h.2zm-.5-4.8c.3-.1.5-.2.8-.5s.4-.7.3-1.1-.5-.9-1.1-.7c-.7.2-.8.5-.9 1.4a2.13 2.13 0 0 1-.4 1.2c-.2.3-.5.5-1 .6-.4.1-.8 0-1.1-.3-.3-.2-.5-.5-.6-1s-.1-.8 0-1c0-.1 0-.1-.1-.1l-.1-.1s-.1 0-.1-.1c0 0 0-.1.1-.1s1.1-.4 1.2-.4h.1l.1.1v.1c-.2.1-.5.3-.7.6-.2.2-.2.5-.1.8.1.6.7.7.9.6s.5-.1.6-.4c.1-.2.2-.7.2-1 0-.5.1-.8.3-1.2.2-.3.5-.5 1-.6.9-.2 1.8.2 2 1.2.1.6.1 1-.1 1.3 0 .1-.1.2 0 .2 0 0 .1.1.2.1 0 .3 0 .3.1.3 0 .1 0 .1-.1.1s-1.3.2-1.4.2h-.1zm-1.9-5.5c.1 0 1.8-.3 1.9-.3.2 0 .2-.2.2-.3v-.4h.2s.1 0 .1.1 0 .4.1 1.1.2 1.1.2 1.1v.1h-.2l-.1-.1v-.3c0-.1-.1-.3-.3-.3a26.21 26.21 0 0 0-2.1.3l-.5.1c-.2 0-1.5.2-1.6.3-.2 0-.2.1-.2.3l.1.4v.1h-.3c0-.1 0-.5-.1-1.2s-.2-.9-.2-1c0 0 0-.1.1-.1h.2s.1 0 .1.1v.3c0 .2.1.3.2.3s1.7-.2 1.8-.2zM.7 51.9v.2c0 .2 0 .8.1 1.1.1.2.6.5.9.6 0 0 .1 0 .1.1v.2h-.1l-1.4-.3c-.1 0-.1-.1-.1-.1s0-.1.1-.1c.1-.2.2-.3.2-.5v-1.9c0-.8-.1-1.1-.1-1.5 0-.1-.1-.4-.2-.5-.2 0-.2-.1-.2-.1s0-.1.1-.1 1.1-.2 1.4-.3h.1l.1.1-.1.1c-.2.1-.7.4-.8.6s-.1.9-.1 1.2v.2l4-.2c.6 0 .7-.1.7-.3V50h.3s.1 0 .1.1v1.1c0 .8.1 1.1.1 1.2 0 0 0 .1-.1.1h-.3v-.4c0-.1-.1-.2-.2-.2-.2 0-2.5.1-2.6.1zm2.9-4.6c.2.1 1.2.5 1.4.6h.2c.1 0 .2-.1.2-.3v-.4h.2s.1 0 .1.1-.1.4-.1.9v.8h-.3v-.2a.55.55 0 0 0-.3-.5c-.1-.1-1.4-.7-2-1l-1.9-.9c-.1 0-.2-.1-.3 0H.7s-.1 0-.1-.1c0-.2-.2-.7-.3-.8l-.1-.1.1-.1c.5-.1 2.2-.6 2.7-.7.6-.1 2-.5 2.2-.6.3-.1.4-.3.4-.5v-.2s0-.1.1-.1h.2s.1 0 .1.1 0 .3-.1 1.1c0 .6 0 .9-.1 1 0 .1-.1.1-.1.1h-.1s-.1 0-.1-.1v-.2c0-.2-.1-.3-.3-.2-.3 0-1.2.3-1.5.3zm-.1-1.7c-.2.1-2 .4-2.1.5-.1 0-.1 0-.1.1 0 0 0 .1.1.1s1.9.8 2.1.9zm1.1-3.5c.3 0 .6 0 1-.2a1.27 1.27 0 0 0 .7-.9c.1-.4-.1-1-.7-1.1-.7-.1-1 .1-1.4.9-.1.2-.4.7-.8 1-.4.2-.7.3-1.2.2a1.27 1.27 0 0 1-.9-.7c-.2-.3-.2-.7-.2-1.1.1-.5.3-.8.4-.9v-.2l-.1-.1v-.1s.1-.1.1 0a57.98 57.98 0 0 1 1.2.1v.2s0 .1-.1.1q-.3 0-.9.3c-.2.2-.4.4-.5.7-.1.6.3.9.6 1 .2 0 .5.1.7-.1s.5-.5.6-.8c.2-.4.4-.7.8-.9.3-.2.6-.3 1.1-.2.9.2 1.5.9 1.3 1.9.2.4 0 .8-.3 1-.1.1-.1.1-.1.2 0 0 0 .1.1.1v.2c0 .1-.1.1-.1.1-.1 0-1.3-.4-1.3-.4s-.1 0-.1-.1zm1.7-7.2c.3 0 .6.1 1 0s.7-.4.8-.7c.1-.4.1-1-.5-1.2s-1 0-1.5.6c-.2.2-.5.6-1 .8-.3.2-.7.1-1.1 0s-.7-.4-.8-.9c-.1-.4-.1-.7 0-1.1.2-.5.4-.7.5-.8s.1-.1 0-.2l-.1-.1v-.1h.1c.1 0 1.1.3 1.2.3v.2s0 .1-.1.1c-.2 0-.5 0-.9.2-.3.1-.4.3-.6.6-.2.6.2 1 .4 1 .2.1.5.1.7 0s.6-.4.7-.7c.3-.4.5-.6.9-.8.7-.1 1-.1 1.5 0 .9.3 1.4 1.1 1 2.1-.2.6-.5.9-.8 1.1l-.1.1s0 .1.1.2.1.1 0 .2c0 .1-.1.1-.1 0-.1 0-1.2-.6-1.3-.6 0 0-.1 0 0-.1zm-.6-7l-.1.2c-.1.2-.3.7-.4 1 0 .3.3.7.5 1v.1l-.1.1h-.1l-1.1-.9-.1-.1.1-.1a.78.78 0 0 0 .4-.4c.2-.4.4-.6.7-1.3l.2-.4c.4-.7.5-1 .6-1.3.1-.1.1-.4.1-.6V25h.1c.1 0 1 .3 1.4.4 0 0 .1 0 0 .1v.2h-.1c-.2 0-.8 0-1 .2-.2.1-.5.7-.6 1l-.1.1 3.6 1.8c.5.3.7.3.8.1l.2-.4h.1l.1.1s.1 0 0 .1c0 .1-.2.3-.5 1s-.5 1-.5 1.1h-.1l-.2-.1v-.1l.2-.4c.1-.1 0-.3-.1-.3-.2-.1-2.2-1.1-2.3-1.2zm2.6-4.2c-.2-.1-.3-.2-.5 0l-.1.3h-.1l-.1-.1v-.1c0-.1.3-.3.7-.9.2-.6.4-.9.5-.9h.2v.1l-.2.3c-.1.2-.1.4 0 .5s.4.3.8.6l.8.5a13.12 13.12 0 0 0 1 .6q.45.3.9.3c.4 0 .8-.3 1-.6a1.93 1.93 0 0 0 .3-1c-.1-.4-.3-.8-.8-1.1l-1.1-.8c-.5-.3-1.1-.7-1.2-.7-.2-.1-.4-.1-.4.1l-.3.2h-.1l-.2-.1v-.1c0-.1.3-.3.5-.7.3-.4.4-.6.4-.6 0-.1.1 0 .1 0l.1.1s.1 0 0 .1l-.2.2c-.2.2 0 .4.1.4.1.1.9.7 1 .7.1.1 1.2.8 1.4 1 .5.4.8.8.8 1.3.1.4-.1.9-.4 1.4-.2.3-.5.6-.8.8-.4.3-.8.3-1.3.2-.3-.1-.8-.4-1.6-.9zm4.8-4.7c-.1-.1-.9-.8-1-.9s-.2-.1-.3.1l-.3.3h-.1l-.1-.1v-.1c.1-.2.4-.4.8-.8.3-.3.5-.6.7-.8.7-.7 1.3-1.3 2.2-1.4.6-.1 1.3.1 2 .7.6.6.9 1.1 1 1.9.1 1.1-.7 1.9-1 2.3-.2.2-.7.8-1 1-.4.5-.6.7-.7.8h-.1l-.2-.2v-.1l.3-.3q.15-.15 0-.3l-1.7-1.7zm1.2-.2a25.58 25.58 0 0 0 1.4 1.2c.1.1.2.2.4.2s.4-.1.6-.3c.4-.4.6-1 .5-1.7-.1-.5-.4-1.1-.9-1.5-.4-.4-1.1-.6-1.6-.7-.6 0-1.2.3-1.6.8-.1.1-.2.3-.3.4 0 .1 0 .2.2.3l1 1zm5.1-4.6c0 .1 1.2 1.3 1.3 1.4.2.2.3.1.4 0l.2-.2h.1l.1.1v.1c-.1.1-.3.2-.8.7-.6.5-.8.7-.8.8h-.1l-.3-.1v-.1l.2-.2c.1-.1.2-.2.1-.4-.1-.1-1.1-1.3-1.4-1.6l-.3-.4c-.1-.1-1-1.1-1.1-1.2s-.2-.1-.4 0l-.3.3h-.1l-.1-.1v-.1c.1-.1.4-.3.9-.8s.7-.6.8-.7h.1l.1.1v.1l-.2.2c-.1.1-.2.2-.1.3 0 .1 1.1 1.3 1.2 1.4zm3.8-5.9c.7.1 1.5.4 2.1 1.2.3.5.5 1 .5 1.7 0 .8-.3 1.5-1.2 2.2-.4.3-1 .5-1.7.6-.6 0-1.5-.3-2.2-1.2-.3-.4-.6-1-.5-1.9.1-1 .7-1.6 1.2-2 .5-.3 1-.6 1.8-.6m-2.3 1.8c-.1.6.1 1.4.5 1.9 1.1 1.6 2.5 1.5 3 1.1 1.2-.9.5-2.4.1-2.9-.9-1.3-2.4-1.5-3-1.1 0 .1-.4.3-.6 1m7.2-1.3c.2.4.6 1.1.7 1.2s.2.2.3.2l.3-.2h.1l.1.2v.1c-.1 0-.2.1-.9.4s-.8.4-.9.5h-.1l-.1-.2v-.1l.2-.1c.1-.1.2-.2.1-.3-.3-.7-.6-1.3-1-1.9L26 6.8c-.1-.2-.3-.3-.4-.2l-.3.1h-.1l-.1-.2v-.1s.3-.1.9-.4l1.2-.6c.5-.3 1-.3 1.4-.2.3.1.6.3.7.6.7.8.4 1.4-.3 1.9.2 0 .4 0 .6.1.1.1.9.5 1 .5s.8.4 1 .5c.2 0 .4 0 .5-.1h.1l.1.1v.1c-.1 0-.2.1-.7.3l-.6.3c-.1 0-.3-.1-.5-.2s-.7-.5-.8-.6-.5-.3-.7-.4c-.3-.1-.5-.3-.8-.1 0 0-.1.1-.2.1zm-.2-.6c.1 0 .2-.1.3-.1 1-.5.8-1.5.7-1.8-.2-.3-.4-.5-.7-.6s-.7 0-1 .2c-.2 0-.3.1-.3.1v.2zm3.6-4c-.1-.2-.2-.3-.4-.2l-.3.1h-.1l-.1-.2s0-.1.1-.1.4-.1 1.1-.4c.6-.2.9-.4 1-.4h.1l.1.3v.1l-.3.1c-.2.1-.3.2-.2.4 0 .1.2.5.3.9l.2.8a6.6 6.6 0 0 0 .4 1.1c.1.3.3.6.6.8.4.2.8.2 1.1.1s.7-.4.8-.7c.2-.4.2-.8 0-1.3l-.4-1.3c-.3-.6-.5-1.2-.6-1.3-.1-.2-.2-.3-.4-.2l-.3.1h-.1l-.1-.2v-.1q.15 0 .9-.3c.4-.2.7-.3.7-.3h.1l.1.2v.1l-.3.1c-.3.1-.2.3-.2.4s.4 1.1.4 1.2.5 1.3.5 1.6c.2.6.1 1.1-.1 1.6-.1.3-.5.6-1 .8-.3.1-.8.2-1.1.2q-.75 0-1.2-.6c-.2-.3-.4-.7-.7-1.7zm11.3-1c0-.2-.4-2-.4-2.1 0 .1-.6 2.4-.6 2.6a33.29 33.29 0 0 0-.5 2.3c0 .1-.1.2-.1.2s-.1 0-.1-.1l-1.5-2.3-1.3-1.9c0 .1.3 2 .3 2.1s.2 1.3.4 1.8c.1.3.2.6.5.6l.3-.1h.1v.2s0 .1-.1.1-.3 0-.8.1c-.6.1-.9.2-1 .2s-.1 0-.1-.1v-.3l.3-.1c.2 0 .3-.3.3-.6 0-.5-.3-2.3-.3-2.5L38 2c0-.3-.1-.4-.4-.4l-.3.1h-.1v-.2l.1-.1c.1 0 .3 0 1-.2.4-.1.6-.1.6-.1.1 0 .1 0 .2.1.4.6 1.9 2.9 2.2 3.5 0-.1.3-1.5.4-1.9a30.32 30.32 0 0 0 .5-2.1c0-.1.1-.1.3-.1 1.1-.2 1.3-.3 1.4-.3l.1.1v.3l-.3.1c-.2 0-.2.2-.2.3 0 .2.3 1.6.3 1.8l.1.5c.1.4.3 1.5.3 1.6.1.3.1.4.3.4l.4-.1h.1v.3c-.1 0-.4.1-1.1.2-.9.1-1.2.2-1.3.2 0 0-.1 0-.1-.1v-.3h.5c.1 0 .2-.1.2-.3 0-.1-.2-1.1-.3-1.7zm11-.3c0-.2.1-2.1.1-2.1-.1.1-1.1 2.2-1.2 2.4l-1 2c0 .1-.1.2-.2.2 0 0-.1 0-.1-.1l-.9-2.5c-.1-.4-.7-2.1-.8-2.2 0 .1-.1 2-.1 2.1s-.1 1.4-.1 1.8c0 .3.1.6.3.6h.3s.1 0 .1.1v.2s0 .1-.1.1-.3 0-.8-.1h-1c-.1 0-.1 0-.1-.1v-.2h.3c.3 0 .3-.3.4-.5.2-.6.3-2.4.3-2.6l.1-1.3c0-.3 0-.4-.3-.5h-.3s-.1 0-.1-.1v-.2h.1c.1 0 .3 0 1.1.1h.7c.1 0 .1 0 .2.1.2.7 1.2 3.2 1.4 3.9.1-.1.7-1.3.9-1.8.1-.3.9-1.8.9-2 0-.1.1-.1.3-.1 1.1.1 1.3 0 1.4 0v.3s0 .1-.1.1h-.3c-.2 0-.2.1-.2.3s-.1 1.7-.1 1.9v.5c0 .4-.1 1.5-.1 1.7 0 .3.1.4.2.4h.4v.3s0 .1-.1.1-.4 0-1.1-.1h-1.1s-.1 0-.1-.1v-.2s0-.1.1-.1h.5c.1 0 .2 0 .2-.3 0-.1.1-1.1.1-1.7zm3.6-1.5c.1-.2 0-.4-.2-.4l-.3-.1s-.1 0 0-.1V.6s0-.1.1 0c.1 0 .4.1 1.1.3.6.1 1 .1 1.1.1 0 0 .1 0 0 .1v.2s0 .1-.1 0l-.3-.1c-.2 0-.4.1-.4.2s-.1.5-.2.9l-.2 1c-.1.4-.2.9-.2 1.1 0 .3-.1.7.1 1 .1.4.5.6.8.7s.8 0 1.1-.1c.3-.2.6-.6.7-1.2l.3-1.3c.1-.6.2-1.2.2-1.4s-.1-.4-.2-.4l-.3-.1s-.1 0 0-.1v-.2s0-.1.1 0c.1 0 .4.1.9.2s.7.1.8.1.1 0 .1.1v.2s0 .1-.1.1l-.3-.1c-.3-.1-.3.1-.4.2 0 .1-.2 1.1-.3 1.2 0 .1-.3 1.4-.4 1.7-.2.6-.4 1-.9 1.3-.4.2-.9.3-1.4.2-.4-.1-.8-.2-1-.4-.4-.3-.6-.7-.7-1.2 0-.3 0-.8.2-1.8zm8.1 1.7l-.2-.1c-.2-.1-.7-.3-1.1-.3-.3 0-.7.4-.9.6h-.1l-.1-.1v-.1l.8-1.1c0-.1.1-.1.1-.1l.1.1a.78.78 0 0 0 .4.4c.4.1.7.3 1.3.5l.4.1c.8.3 1.1.4 1.4.5h.8v.1c0 .1-.2 1.1-.3 1.4 0 0 0 .1-.1.1h-.2V5c0-.2-.1-.8-.3-1s-.8-.4-1-.5l-.2-.1L65 7.2c-.2.5-.2.7 0 .8l.4.1v.1l-.1.1s0 .1-.1 0c-.1 0-.3-.1-1-.4s-1-.3-1.1-.4c0 0-.1 0 0-.1l.1-.2h.1l.4.1c.1.1.3 0 .3-.1s.8-2.2.9-2.4zM70 7.7c0 .1-.8 1.6-.8 1.7-.1.2 0 .3.2.4l.3.1v.1l-.1.2h-.1c-.1 0-.3-.2-1-.5s-1-.4-1-.5V9h.1l.3.1c.1.1.3.1.4 0s.8-1.5.9-1.9l.2-.5c.1-.2.6-1.4.7-1.5.1-.2 0-.3-.2-.4l-.4-.2v-.1l.1-.2h.1c.1 0 .4.2 1.1.5.6.3.9.4 1 .4v.1l-.1.2h-.1l-.3-.1c-.1-.1-.3-.1-.3.1 0 .1-.8 1.5-.8 1.6zm3 .5c-.7 1.1-1.2 2-1.3 2.2-.2.3-.2.5 0 .7l.2.1c.1 0 0 .1 0 .1l-.1.1s0 .1-.1 0c-.1 0-.4-.3-.7-.4-.2-.1-.6-.4-.7-.4v-.1l.1-.2h.1l.2.1c.2.1.3 0 .6-.4.1-.1.7-1 1.3-2l.5-.8c.2-.4.2-.8-.1-1l-.2-.1V6h.3s.1.1.2.1c.1.1.3.2.6.4.1.1.2.1.3.2s.1.1.2.1.1.1.1.2.3 2.4.3 2.7c0 .2.3 2 .3 2.2l.4-.7c.3-.6.5-.9.7-1.2.1-.2.5-.9.5-1 .1-.2 0-.4-.2-.5l-.2-.1v-.1l.1-.1s0-.1.1 0c.1 0 .3.2.7.5.4.2.5.3.6.4.1 0 0 .1 0 .1l-.1.1s-.1.1-.1 0l-.1-.3c-.1-.1-.3 0-.4.2-.3.4-1 1.4-1.4 2.1l-1 1.7c-.1.1-.1.2-.2.1s-.1-.2-.2-.2c0-.1-.1-.7-.2-1.4-.1-.8-.2-1.7-.2-1.9 0-.1-.3-2-.3-2.2zm5.4 5.1c-.3.3-.7.9-.8 1-.2.3-.2.5-.1.6l.4.4c.1.1.4.3.5.4s.4.2.6.2.8-.1 1-.2h.1v.2l-1 .6h-.2s-.2-.1-.5-.4c-.4-.3-1-.8-1.9-1.6-.2-.2-.4-.3-.5-.4s-.2-.1-.3-.2v-.1l.1-.1h.1l.2.2c.3.2.3.2.5 0l1.6-1.9c.4-.5 1-1.2 1-1.3.1-.2.1-.3-.1-.4l-.1-.2V10l.1-.2h.1a8.78 8.78 0 0 0 .8.7l.2.1c.3.2 1.6 1.3 1.8 1.5l.2.2v.1c0 .1-.5 1.1-.5 1.1s0 .1-.1 0h-.1v-.1c0-.1 0-1-.1-1.2s-.2-.4-.3-.5l-.9-.7-1.4 1.7c.2.1.6.5.7.5.1.1.3.1.4 0a.76.76 0 0 0 .4-.2h.1l.1.1v.1c-.1.1-.4.5-.5.6a3.04 3.04 0 0 0-.5.7h-.1l-.1-.1v-.1c.1-.1.1-.3.1-.4 0-.2 0-.3-.1-.4-.2-.2-.5-.4-.6-.6zm4.5 2.4c-.9.9-1.7 1.6-1.8 1.8-.3.3-.3.5-.1.7l.1.1v.1l-.1.1h-.1c-.1-.1-.3-.4-.5-.6-.1-.1-.5-.5-.5-.6v-.1l.1-.1h.1l.2.2c.1.1.3.1.7-.2.1-.1.9-.8 1.8-1.6l.7-.7c.3-.3.4-.7.2-1l-.2-.2v-.1l.1-.1h.1s.1.1.1.2c.1.1.2.3.4.5l.2.2.1.1c.1.1.1.1.1.2s-.3 2.4-.4 2.7c0 .2-.3 2-.3 2.2l.6-.5c.5-.5.8-.7 1-1l.8-.8c.1-.2.1-.4-.1-.5l-.2-.2v-.1l.1-.1h.1c.1.1.2.3.6.6l.5.5v.1l-.1.1h-.1l-.1.1c-.1-.1-.2-.1-.5.1-.4.3-1.4 1.1-1.9 1.6l-1.4 1.4c-.1.1-.2.1-.2.1-.1-.1-.1-.2-.1-.3s.1-.7.2-1.4c.1-.8.2-1.7.3-1.9 0-.1.3-2 .3-2.2zm2.8 5.7c-.2.2-.4.4-.5.8-.2.4-.2.8.1 1.1.2.3.8.6 1.3.3.6-.4.6-.8.3-1.6-.1-.2-.2-.8-.1-1.3 0-.3.3-.7.6-.9s.7-.3 1.2-.2q.6.15.9.6c.3.4.4.7.4.9 0 .1.1.1.1.1h.1s.1 0 .1.1c0 0 0 .1-.1.1-.1.1-.9.8-.9.8H89v-.1c.1-.2.3-.5.4-.8s0-.5-.2-.8c-.4-.5-.9-.4-1.1-.2s-.4.3-.4.6.1.7.2 1c.1.4.2.8.2 1.2-.1.3-.2.6-.6.9-.7.5-1.7.5-2.3-.3-.4-.5-.5-.9-.5-1.2v-.2h-.2c-.1 0-.1 0-.2-.1v-.1c.1 0 1.1-.7 1.2-.7zm3.8 4.4c-.1 0-1.5.9-1.6 1-.2.1-.2.2-.1.4l.2.3v.1l-.2.1h-.1c0-.1-.2-.3-.5-.9-.4-.6-.6-.9-.6-1v-.1l.2-.1h.1l.2.3c.1.1.2.3.4.2.1 0 1.5-.9 1.8-1.1l.4-.3c.2-.1 1.3-.8 1.4-.9s.2-.2.1-.4l-.3-.4v-.1l.2-.1h.1c0 .1.2.4.6 1s.5.8.6.9v.1l-.3.2H92l-.1-.2c-.1-.1-.2-.2-.3-.1-.1 0-1.5.9-1.6.9zm.5 2.3c-.2.2-.5.4-.7.7-.2.4-.2.8 0 1.1.2.4.7.8 1.2.5.6-.3.7-.7.6-1.5 0-.3-.1-.8.1-1.3.1-.3.4-.6.8-.8s.8-.2 1.2 0a1.56 1.56 0 0 1 .8.8c.2.4.2.8.3.9 0 .1 0 .1.1.1h.1s.1 0 .1.1c0 0 0 .1-.1.1-.1.1-1 .6-1.1.7h-.1l-.1-.1v-.1c.2-.2.4-.4.5-.8a.78.78 0 0 0-.1-.8c-.3-.5-.8-.5-1-.4s-.4.2-.5.5-.1.7 0 1c.1.4.1.8-.1 1.2-.1.3-.3.6-.8.8-.8.4-1.8.2-2.2-.7-.3-.5-.3-.9-.2-1.3v-.2h-.2c-.1 0-.1 0-.1-.1s0-.1.1-.1 1.2-.5 1.3-.5h.1zm3.7 7.8c-.4.1-1.1.3-1.2.4-.4.1-.5.3-.5.5a1.76 1.76 0 0 0 .1.6c0 .1.1.5.2.6s.2.4.4.5.7.4 1 .4c0 0 .1 0 .1.1v.1h-1.3c-.1 0-.1 0-.2-.1 0 0 0-.2-.2-.6-.1-.5-.3-1.2-.7-2.4-.1-.3-.1-.5-.2-.6 0-.1-.1-.2-.1-.3V35l.2-.1s.1 0 .1.1l.1.2c.1.3.1.3.4.3l2.4-.7c.6-.2 1.5-.4 1.6-.5.2-.1.2-.2.2-.4l-.1-.3v-.1l.2-.1h.1c0 .2.1.4.3 1l.1.2c.1.3.6 2 .7 2.3 0 .1.1.2.1.3v.1c-.1.1-1 .6-1 .7h-.1l-.1-.1v-.1s.5-.8.6-1c0-.2.1-.4 0-.6l-.3-1.1-2.1.6c.1.2.2.7.3.8a1.38 1.38 0 0 0 .4.3h.5v.3c-.1 0-.6.2-.8.2-.3.1-.6.2-.8.3H94l-.1-.1v-.1c.1-.1.2-.2.3-.2a.76.76 0 0 0 .2-.4c0-.3-.1-.6-.2-.8zm4.2 5.4v-.2c0-.2-.1-.8-.3-1.1-.1-.2-.7-.4-.9-.5 0 0-.1 0-.1-.1v-.2h.1l1.4.1c.1 0 .1 0 .1.1 0 0 0 .1-.1.1-.1.2-.1.4-.1.6 0 .4.1.7.2 1.4l.1.4c.1.8.2 1.1.3 1.5 0 .1.2.4.3.5l.1.1s0 .1-.1.1-1 .3-1.4.4h-.1l-.1-.1v-.1a2.34 2.34 0 0 0 .7-.7c.1-.2 0-.9 0-1.2v-.2l-3.9.6c-.6.1-.7.2-.7.4l.1.4-.1.1h-.2s-.1 0-.1-.1 0-.3-.2-1.1c-.1-.8-.2-1.1-.2-1.2 0 0 0-.1.1-.1h.3l.1.4c0 .1.1.2.2.2.2 0 2.5-.4 2.6-.4zm-2.4 8.8h-1.4c-.2 0-.3.1-.3.2v.4s0 .1-.1.1h-.2c-.1 0-.1 0-.1-.1s0-.2.1-1v-1s0-.1.1-.1h.3v.3c0 .2 0 .3.2.3.7 0 1.4.1 2.2.1l2 .1c.3 0 .4-.1.4-.2v-.4h.2s.1 0 .1.1 0 .3-.1 1v1.3c0 .6-.2 1.1-.5 1.3-.2.3-.6.4-.9.4-.9 0-1.3-.6-1.4-1.4a.78.78 0 0 1-.4.4c-.1.1-.8.5-.9.6-.1 0-.8.5-.9.6s-.2.3-.2.5c0 0 0 .1-.1.1h-.2c-.1 0-.1 0-.1-.1v-1.4c.1-.1.3-.2.4-.3.2-.1.8-.4.9-.5s.5-.3.7-.4c.3-.2.5-.3.5-.7v-.2zm.7.1v.3c0 1.2.9 1.4 1.2 1.4s.7-.1.8-.3c.2-.3.3-.6.4-1v-.3c0-.1-.1-.1-.2-.1zm-.9 5.8c-.4-.1-1.1-.2-1.3-.2-.4-.1-.6 0-.6.2 0 .1-.1.3-.1.6 0 .1-.1.5-.1.6s0 .4.2.6c.1.2.5.6.7.8v.1l-.1.1h-.1l-1.1-.5c-.1 0-.1-.1-.1-.2 0 0 0-.2.1-.7s.2-1.2.4-2.5c0-.3.1-.5.1-.6V54s0-.1.1 0h.2s.1 0 0 .1v.3c-.1.3 0 .4.3.4l2.5.4c.6.1 1.5.2 1.6.2q.3 0 .3-.3v-.3h.3s.1 0 0 .1c0 .2-.1.4-.2 1v.2c-.1.3-.3 2-.4 2.3v.3l-.1.1c-.1 0-1.1.1-1.2.2h-.1v-.2s.8-.5 1-.7c.1-.1.2-.3.3-.5l.2-1.1-2.1-.4c0 .2-.1.8-.1.8 0 .2 0 .3.2.4a.76.76 0 0 0 .4.2s.1 0 0 .1v.2h-.1c-.1 0-.6-.1-.8-.1-.3 0-.7-.1-.8-.1v-.3l.1-.1c.1 0 .3 0 .4-.1.2 0 .3-.2.3-.3.1-.3.1-.6.2-.8zm-3.6 8.5h-.2c-.1 0-.1-.1-.1-.1-.1-.7-.1-1.3.1-2.2.2-.7.7-1.5 1.4-1.8.6-.3 1.3-.3 2.1-.1.7.2 1.3.7 1.6 1.4s.3 1.4.1 2.2c-.2.7-.6 1.2-.8 1.3-.1.1-.1.1 0 .2l.1.1c0 .1.1.1 0 .1 0 .1-.1.1-.1.1l-1.5-.4c-.1 0-.1 0-.1-.1V65s0-.1.1-.1c.3 0 .8-.1 1.2-.3.3-.2.7-.5.9-1 .1-.4.1-.9-.2-1.4s-.8-.9-1.4-1.1c-.8-.3-1.6-.2-2.2 0-.4.2-.7.5-.8 1s-.2.7-.1 1c0 .2.2.3.6.4l.5.2c.3.1.4 0 .4-.2l.1-.3h.3s.1 0 0 .1c0 .1-.2.4-.3 1-.2.6-.2.9-.3.9 0 .1 0 .1-.1.1l-.2-.1s-.1 0 0-.1l.1-.2c0-.1 0-.2-.2-.3zm.4 3.6c-.1 0-1.7-.7-1.7-.7-.2-.1-.3 0-.4.2l-.1.3h-.1l-.2-.1v-.1c0-.1.2-.3.4-1 .3-.7.4-1 .4-1.1h.1l.2.1v.1l-.1.2c-.1.1-.1.3.1.4.1.1 1.6.7 1.9.9l.5.2c.2.1 1.4.6 1.5.6.2 0 .3 0 .4-.2l.2-.4h.1l.2.1v.1c0 .1-.2.4-.5 1.1s-.4.9-.4 1h-.1l-.2-.1v-.1l.1-.3c.1-.2.1-.3-.1-.3-.1 0-1.6-.7-1.7-.7zm-1.8 3c-.4-.2-1-.5-1.1-.6-.3-.2-.5-.1-.7 0-.1.1-.2.2-.3.5-.1.1-.2.4-.3.6-.1.1-.1.4-.1.7 0 .2.3.8.4 1v.1l-.1.1H88l-.8-.9c0-.1-.1-.1 0-.2l.3-.6c.2-.4.6-1.1 1.2-2.2l.3-.6c.1-.1.1-.2.1-.3h.1l.2.1v.1l-.1.2c-.2.3-.1.3.1.5l2.2 1.2c.5.3 1.4.7 1.5.8.2.1.3 0 .4-.2l.1-.2h.1l.2.1v.1c-.1.1-.2.4-.5.9l-.1.2c-.2.3-1 1.8-1.1 2.1-.2-.1-.2.1-.2.1h-.1c-.1 0-1.1-.3-1.2-.3 0 0-.1 0-.1-.1v-.1h.1c.1 0 1-.2 1.1-.3a.78.78 0 0 0 .4-.4l.6-1-1.8-1.1c-.1.2-.4.7-.4.8-.1.2 0 .3.1.4l.3.3v.1l-.1.2h-.1c-.1-.1-.5-.3-.7-.4-.3-.1-.6-.3-.7-.4v-.1l.1-.2h.1c.1 0 .3.1.4.1.2 0 .3-.1.4-.2.2-.2.3-.5.5-.7zM88.8 76c-1-.8-1.9-1.3-2.1-1.4-.3-.2-.5-.2-.7 0l-.1.2h-.1l-.1-.1v-.1c0-.1.3-.4.5-.6.1-.2.4-.6.4-.6h.1l.2.1v.1l-.2.2c-.1.2 0 .3.3.6.1.1.9.7 1.9 1.4l.8.6c.4.3.8.3 1 0l.1-.2h.1l.2.1v.1s-.1.1-.1.2c-.1.1-.2.3-.4.5-.1.1-.1.2-.2.3s-.1.1-.1.2c-.1.1-.1.1-.2.1s-2.5.1-2.7.1-2 .1-2.2.1l.6.5c.5.4.8.6 1.1.8.2.2.8.6 1 .6.2.1.4 0 .5-.2l.1-.2h.1l.1.1v.1c-.1.1-.2.3-.5.7s-.4.5-.4.6h-.1l-.1-.1s-.1-.1 0-.1l.1-.2c.1-.1 0-.3-.2-.4a69.54 69.54 0 0 1-2-1.6l-1.6-1.2c-.1-.1-.2-.1-.1-.2s.2-.1.2-.1c.1 0 .7-.1 1.4-.1.8 0 1.7-.1 1.9-.1.1 0 2.1-.1 2.2-.1zm-5.1 3.8a2.47 2.47 0 0 0-.9-.4c-.4-.1-.8.1-1.1.3-.3.3-.5.9 0 1.3.5.5.9.4 1.6 0a5.48 5.48 0 0 1 1.2-.4c.3 0 .7.1 1 .5.3.3.4.6.4 1.1 0 .4-.2.7-.5 1-.3.4-.6.5-.8.6-.1 0-.1.1-.1.1v.2h-.1c-.1-.1-.9-.7-1-.8v-.1l.1-.1h.1c.2.1.5.2.9.2.3 0 .5-.1.8-.4.4-.4.2-.9 0-1.1s-.4-.3-.6-.3c-.3 0-.7.2-1 .3-.4.2-.7.4-1.2.4-.3 0-.7-.1-1-.5-.7-.6-.8-1.6-.1-2.3.4-.4.8-.6 1.1-.7.1 0 .2 0 .2-.1v-.4h.1c.1.1.9 1 .9 1.1zm-3.6 4.6c0-.1-1.2-1.3-1.3-1.4-.2-.2-.3-.1-.4 0l-.2.2h-.1l-.1-.1V83c.1-.1.3-.2.8-.7.6-.5.8-.7.8-.8h.1l.1.2v.1l-.2.2c-.1.1-.2.2-.1.4.1.1 1.1 1.3 1.4 1.6l.3.4c.1.1 1 1.1 1.1 1.2s.2.1.4 0l.3-.3h.1l.1.1v.1c-.1.1-.4.3-.9.8s-.7.7-.8.7h-.1l-.1-.1v-.1l.2-.2c.1-.1.2-.2.1-.3 0-.1-1.1-1.3-1.2-1.4zm-2.2.8c-.2-.2-.4-.4-.8-.5-.4-.2-.8-.1-1.1.2-.3.2-.6.8-.3 1.3.4.6.8.5 1.6.3.2-.1.8-.2 1.2-.2.3 0 .7.3.9.6.3.3.3.7.2 1.2q-.15.6-.6.9c-.4.3-.7.4-.9.4-.1 0-.1.1-.1.1v.1s0 .1-.1.1c0 0-.1 0-.1-.1-.1-.1-.8-.9-.8-.9v-.1l.1-.1h.1c.2.1.5.3.8.4s.5 0 .8-.2c.5-.4.4-.9.2-1.1s-.3-.4-.6-.4-.7.1-1 .2c-.4.2-.8.2-1.2.2-.3-.1-.6-.2-.9-.6-.5-.7-.5-1.7.3-2.3.5-.4.9-.5 1.2-.5h.2V84c0-.1 0-.1.1-.2h.1c0 .1.7 1.1.7 1.2zm-35.5 9v-.9c0-.3-.1-.4-.5-.4h-.5v-.3s0-.1.1-.1h2.6c.1 0 .1 0 .1.1v.3c0 .1 0 .1-.1.1h-.5c-.3 0-.4.1-.4.4v2.9c0 .3.2.5.6.5h.4s.1 0 .1.1v.1c0 .1 0 .1-.1.1h-2.7c-.1 0-.1 0-.1-.1v-.3c0-.1 0-.1.1-.1h.3c.3 0 .5-.1.6-.4zm4.1 0v-.9c0-.3-.1-.4-.5-.4h-.5v-.3s0-.1.1-.1h2.6c.1 0 .1 0 .1.1v.3c0 .1 0 .1-.1.1h-.5c-.3 0-.4.1-.4.4v2.9c0 .3.2.5.6.5h.4s.1 0 .1.1v.1c0 .1 0 .1-.1.1h-2.7c-.1 0-.1 0-.1-.1v-.3c0-.1 0-.1.1-.1h.3c.3 0 .5-.1.6-.4zm3.3 5.5c0-.2.2-.6.3-.8l2.8-5.5h-2.1c-.6 0-.9.3-1.1.6h-.1c-.1 0-.2-.1-.1-.2.2-.3.8-1.5.8-1.6s.1-.1.1-.1.2 0 .2.1 0 .1-.1.2c0 .2.1.2.4.2h2.7c.1 0 .2.1.1.2a108.5 108.5 0 0 0-1.6 3c-.1.2-1.3 2.7-1.5 3.4-.2.6-.3.8-.5.8s-.3-.1-.3-.3m4.4-.7q0-.3.3-.3c.3 0 .4.2.4.2.1.1.3.2.7.2.7 0 1.2-.6 1.2-1.6 0-1.5-1-1.8-2-2l.5-2.8c0-.1.1-.1.2-.1h1.4c.5 0 .6-.3.7-.5h.1v.1l-.3 1c0 .2-.2.2-.3.2h-1.5l-.3 1.4c1.1.2 2.2.9 2.2 2.4 0 1.4-1.1 2.4-2.1 2.4-.6-.1-1.2-.2-1.2-.6" fill="#58595b"/></svg>