<svg xmlns="http://www.w3.org/2000/svg" width="1000" height="1000"><path fill="rgba(255,255,255,0)" d="M0 0h1000v1000H0z"/><g vector-effect="non-scaling-stroke" transform="matrix(22.2033 0 0 22.2033 1487.7593 499.5742)"><path d="M-23.373-16.082v10.454c0 12.673-8.633 25.69-21.067 28.128C-56.437 20.225-65.5 7.042-65.5-5.627v-14.06s10.507-2.808 21.067-2.808c12.261 0 21.067 2.808 21.067 2.808z" fill="#febf2c"/><path d="M-44.436 19.201c10.099-.011 17.934-9.381 17.934-19.695v-17.723l-.265-.076s-9.101-2.831-17.673-2.831-17.658 2.823-17.673 2.827l-.265.079V-.495c.004 10.318 7.877 19.692 17.938 19.695" fill="#fff"/><path d="M-40.362 17.904v-6.992h7.975a1.39 1.39 0 0 1 1.141.59c1.906-2.587 3.183-5.583 3.73-8.75h-12.839v-6.713l-4.082-.113-4.067.113v6.716h-12.851a20.16 20.16 0 0 0 3.742 8.761c.272-.379.713-.599 1.179-.59h7.971v6.985a15.24 15.24 0 0 0 4.071.556v.06h.008v-.06a15.24 15.24 0 0 0 4.078-.556" fill="#005f99"/><path d="M-31.3 9.222l-1.741-.788-.618 1.804-.646-1.811-1.713.835.788-1.741-1.804-.618 1.811-.65-.835-1.717 1.741.788.618-1.8.646 1.811 1.713-.835-.788 1.744 1.804.622-1.811.646zm-26.285 0l1.741-.788.618 1.804.646-1.811 1.713.835-.788-1.741 1.8-.618-1.811-.65.835-1.717-1.733.788-.618-1.8-.646 1.811-1.713-.835.788 1.744-1.804.622 1.811.646zm15.504 6.844l-1.733-.788-.618 1.811-.646-1.819-1.713.839.788-1.741-1.804-.622 1.811-.646-.835-1.713 1.733.788.622-1.804.646 1.811 1.709-.835-.788 1.741 1.804.618-1.811.65zm.004-13.216l-1.733-.788-.622 1.804-.646-1.811-1.709.835.787-1.74-1.804-.619 1.811-.646-.835-1.713 1.733.788.618-1.804.646 1.811 1.713-.835-.788 1.741 1.804.622-1.811.646zm3.307 1.249h.756v.551h-.756zm0 1.481h.756v.551h-.756zm0 1.484h.756v.551h-.756zm0 1.477h.756v.551h-.756z" fill="#febf2c"/><path d="M-39.924 5.371h-3.318v-.503h3.318zm0 1.38h-3.318v-.506h3.318zm0 1.376h-3.318v-.503h3.318zm-2.608-4.362c-.068-.008-.144 0-.208 0A1.34 1.34 0 0 0-44.1 5.11v4.479a1.38 1.38 0 0 1 1.047-.48h3.882V3.765z" fill="#fff"/><path d="M-50.112 4.099h-.756v.551h.756zm0 1.481h-.756v.551h.756zm0 1.484h-.756v.551h.756zm0 1.477h-.756v.551h.756z" fill="#febf2c"/><path d="M-48.961 4.861h3.326v.503h-3.326zm0 1.376h3.326v.506h-3.326zm0 1.38h3.326v.499h-3.326zm-.79-3.859v5.341h3.885c.42 0 .794.185 1.047.48V5.103a1.34 1.34 0 0 0-1.361-1.346c-.064 0-.14-.008-.204 0z" fill="#fff"/><path d="M-44.44-4.819c7.484 0 15.288 1.191 17.193 1.497v-14.381l-1.274-.397-4.021-.96c-3.311-.695-7.688-1.395-11.894-1.395-6.312 0-12.987 1.576-15.923 2.355l-1.27.397v14.381c1.897-.31 9.751-1.497 17.193-1.497" fill="#e92843"/><path d="M-46.685-16.603a1.93 1.93 0 0 1 .423.544c.011.023.057.049.079.023.132-.108.183-.287.126-.448s-.209-.269-.379-.27c-.088-.003-.175.024-.246.076m-2.937 3.587c0-.189-.336-.975-.465-1.191-.276-.472.132-1.852.779-2.022.14-.03.212-.234.102-.344-.276-.268-.582-.605-.994-.605-.505 0-.915.41-.915.915 0 .578.45.669.416.828-.185.54-.185 1.123.057 1.535.166.287.295.748.393 1.073.064.34.265.627.552.786.14.076.076.197.132.314.03.057.079.094.113.129.06.045.015.057-.038.049-.427-.053-1.089-.234-1.361-.805-.144-.31-.605.775-.884.257-.259-.473-.445-.983-.552-1.512-.068-.31-.265.215-.34.03a3.03 3.03 0 0 1-.227-1.1c0-1.353.994-2.495 2.336-2.804.261-.064-.302-.491.068-.472.234.015 1.02.015 1.614.306.117.049.181-.166.404-.314.023-.008.076-.03.121 0 .234.147.314.393.431.306.593-.283 1.372-.283 1.603-.299.378-.023-.197.408.068.472 1.338.314 2.336 1.451 2.336 2.804a3.03 3.03 0 0 1-.234 1.096c-.076.189-.265-.336-.333-.03a5.75 5.75 0 0 1-.556 1.516c-.276.514-.737-.567-.881-.257-.265.54-.869.729-1.293.794-.053.008-.094 0-.038-.053a.52.52 0 0 0 .155-.317c0-.019-.008-.049.038-.072a1.14 1.14 0 0 0 .631-.809c.102-.333.238-.809.401-1.104.363-.643-.076-1.429.038-1.606.259-.167.416-.455.416-.763-.001-.379-.236-.719-.591-.853s-.756-.035-1.008.248l-.026.026-.238.276c-.076.106-.06.299.079.34.631.151 1.032 1.572.779 2.026-.113.204-.457.96-.457 1.179a.51.51 0 0 1-.514.518c-.213-.001-.402-.136-.472-.336.189-.129.567-.352.567-.59l-.076-.767a.51.51 0 0 0 .491-.506l.083-.057c.102-.094.17-.393-.053-.317-.314.06-.669.049-1.02.144-.046.015-.082.052-.094.098l.238 1.206c-.166.026-.416.015-.48.015l-.454.023.219-1.179c.008-.039 0-.08-.023-.113-.068-.083-.975-.163-1.096-.189-.052-.01-.104.013-.132.057-.091.125.064.268.166.333a.51.51 0 0 0 .491.491c0 .068-.079.779-.079.786 0 .246.374.454.563.567-.064.223-.238.389-.446.389a.51.51 0 0 1-.51-.514m-.291-3.545a.4.4 0 0 0-.692.287.4.4 0 0 0 .151.317c.03.023.076.008.087-.004.119-.199.273-.376.454-.522.015-.015.03-.068 0-.091m2.306 4.656c-.102.253-.465.17-.661.329-.019.019-.076.019-.094.004-.197-.166-.552-.087-.669-.367-.008-.019-.008-.068.038-.076a1.02 1.02 0 0 0 .65-.34c.019-.015.057-.026.094.011.151.17.355.287.593.325.026.011.068.03.038.11m8.451-4.078s.786-.026 1.3-.48c0 0 .552-.189.866.102.038.034.038.117-.038.129-.135.025-.264.077-.378.155-.272.189-1.398.65-1.75.094m-14.979 3.481c-.268-.234.314-1.572-.975-1.901-.204-.011.087.238.015.302-.374.314-.276.431-.295.62-.008.091-.106.076-.155.068-.276-.189-.96-.552-1.576.03-.117.113.234.129.227.197-.076.435.197.669.408.786.068.034.068.121.026.17-.068.072-.238.181-.276.363-.026.117-.461.076-.329.215.665.703 1.342.295 1.618.087.185-.189.983.03.854.393-.159.514-.121.767.015.68.204-.132.314-.223.597-.223.057 0 .208.034.147.159-.098.234-.197.454-.106.786.038.144.136.113.189.057.314-.442 1.005-.393 1.338-.215.48.314 1.852.786 3.647-.971.053-.049.053-.246-.102-.189-.491.197-1.043.238-1.95-.227a5.04 5.04 0 0 0-.522-.178c-1.123-.246-2.309-.59-2.804-1.02m22.553 1.561c.964 0 .019.794-.03 1.02-.038.17.117.317.276.408.117.064.117.132.03.212s-.219.151-.548.159c-.144 0-.14.091-.129.151.019.151.189.265.416.287.125.038.144.113.038.234-.189.197-.45.197-.877.185-.412-.015-.737.48-.499.688.159.14.491.446.208 1.285-.091.253-.246-.238-.378-.159-.333.197-.627-.049-.786-.234-.068-.079-.125-.079-.17 0-.136.234-.491.654-1.209.265-.159-.079-.476.204-.499.106-.106-.409.062-.839.416-1.07.026-.019.113-.144-.038-.14-.246-.011-.544-.091-.574-.393 0-.064-.314-.049-.295-.136.076-.408.975-.707 1.599-.295.525.355 1.191-.839.711-1.398-.344-.401-2.358.718-3.043-.737-.276-.59.072-1.089-.212-1.13s-1.542-.314-2.952.816c-1.577 1.295-3.793 1.473-5.556.446-.094-.026-.189.045-.144.14a.68.68 0 0 1-.064.65c-.242.378-1.104.756-1.251.801-1.002.295-.9 1.062-.786 1.398.03.106-.011.166-.121.151-.306-.057-.922-.246-1.164-.847-.026-.072-.094-.072-.181-.011-.37.265-.238.65-.151.82.034.072.019.132-.076.144-.34.038-.586-.352-.881-.329-.197.041-.382.128-.54.253-.057.038-.064.132-.03.242.378 1.111-.234 1.141-.276 1.126s-.019-.208-.197-.234c-.605.03-.771-.355-.809-.65-.011-.094-.045-.129-.11-.079-.234.159-.786.472-1.179.011-.053-.068-.219.004-.31.038s-.076-.091-.076-.125c.024-.446.297-.841.707-1.02.087-.042.098-.091.026-.14-.189-.144-.522-.454-.416-.782.015-.06-.283-.181-.208-.234.688-.499 1.576.329 1.693.42s.786.121 2.351-.786c1.02-.571 1.55-1.047 1.841-1.406.038-.038.113-.117.215-.117.643-.023 1.285-.117 1.784-.559.076-.087.166-.038.204-.008.918.639 1.391-.771 1.576-1.417.023-.132.049-.238.189-.249l9.766.136s.839.068.797-.454c-.068-.843-3.553-.82-6.161-.465-.945.132-2.321.208-3.13-.113-.314-.11-.581-.325-.756-.609-.163-.34-.121-.552-.094-.763a1.9 1.9 0 0 1 .227-.499c.673-1.032 2.215-1.111 2.691-1.111.094 0 .151-.038.159-.102.045-.238.227-.79.873-.79a1.38 1.38 0 0 0 .484-.132c.079-.03.129-.015.113.053s-.06.2-.159.276c-.454.397-.386.567-.336.62.034.026.079.011.106-.019 1.38-1.198 2.173-.408 2.423-.147.038.049.053.117-.026.14-.934.208-1.3 1.043-3.205.907-.238-.019-1.792-.098-2.287.612-.283.408-.083.794.756.983.643.144 2.135-.076 2.835-.132s3.696-.393 5.273.023c.669.189 1.629.726 1.436 1.735a1.3 1.3 0 0 1-.737.884s-1.731 1.221 1.372 1.232m-5.257 1.852a1.89 1.89 0 0 1-1.357.416c-.287-.011-.431.072-.499.159-.029.046-.055.094-.076.144-.042.144.008.295.087.416s.038.17-.072.197-.257.03-.548-.113c-.132-.06-.166.023-.181.083-.049.14.038.314.234.442.098.087.079.17-.072.227-.257.091-.488-.03-.866-.238-.219-.117-.393-.14-.544.038-.083.098-.076.189-.026.238.151.147.238.435-.132.9-.121.151-.253-.268-.363-.223-.376.176-.824.057-1.062-.283-.034-.038-.106-.053-.189 0-.253.17-.79.446-.998-.038-.03-.072-.329.113-.321-.03.011-.801.707-.945 1.002-.979.091-.008.113-.053.064-.125-.117-.174-.261-.382-.181-.624.049-.178-.401-.215-.215-.314.915-.457 1.429.416 1.587.51.265.159 1.463-.234 1.614-.884.03-.125-.276-.189-.593-.261-.053-.015-.087-.087.019-.166.722-.537 1.304-1.24 2.615-1.376.054-.006.109.009.151.043s.07.084.075.138c.026.204.083.403.17.59.146.328.369.616.65.839.11.087.098.212.038.265" fill="#ffdfa1" fill-rule="evenodd"/><path d="M-44.44-4.819c-7.484 0-15.296 1.191-17.197 1.497v-14.385l1.274-.397c2.933-.786 9.612-2.362 15.923-2.355 4.207 0 8.583.699 11.891 1.398l4.025.96 1.274.397v14.385c-1.905-.31-9.751-1.497-17.197-1.497m17.677-13.516s-9.097-2.82-17.677-2.823-17.658 2.82-17.673 2.823l-.265.076V-.529c0 10.315 7.877 19.688 17.938 19.692v-.745c-4.811 0-9.097-2.245-12.201-5.737s-4.997-8.24-4.989-13.221v-2.071l5.269-.729c3.318-.393 7.699-.786 11.925-.786s8.602.393 11.932.786l5.265.729V-.54c-.008 4.866-1.782 9.564-4.993 13.221-3.099 3.496-7.389 5.737-12.197 5.737v.748c10.095-.011 17.93-9.381 17.934-19.699v-17.719z" fill="#fff"/></g></svg>