<svg xmlns="http://www.w3.org/2000/svg" viewBox="-408.8 247.4 232.9 95.2" height="95.2" width="232.9"><path d="m-262.3 316.6-2.3.2v23.6c.9.1 1.5.2 2.7.2 4.6 0 6.1-2.5 7.9-7l1.1.4-1.6 8.5c-1.8-.5-2-.5-4-.5h-11.2v-1.4l2-.3v-23.5l-2-.2v-1.4h7.5l-.1 1.4zm14 23.7 1.6.3v1.3h-5.9v-1.3l1.7-.3v-13.1c0-.9-.3-1.4-.9-1.4-.3 0-.5.1-.8.2v-1.2l4.3-1.6v17.1zm-1.4-21.2c-1 0-1.8-.9-1.8-2.1s.8-2.1 1.9-2.1c1 0 1.7 1 1.7 2.2 0 1.1-.8 2-1.8 2zm8.4 7c1-1.7 2.8-2.8 4.5-2.8 3.7 0 4.9 3.2 4.9 7v10l1.6.3v1.3h-5.9v-1.3l1.7-.3v-10c0-3.4-1-5.2-3-5.2-1.5 0-3 1-3.8 2.6v12.6l1.7.3v1.3h-6v-1.3l1.7-.3V329c0-2.5-.3-3.2-1.2-3.2-.1 0-.3 0-.5.1v-1.3l3.2-1.6c.6.9 1 1.8 1.1 3.1zm18.2 16.5c-4 0-6.7-3.6-6.7-8.9 0-5.8 3.3-10.4 7.4-10.4 2.4 0 4.4 1.4 4.4 3.2 0 1.2-.8 2.1-1.7 2.1s-1.7-.9-1.9-2.1c-.3-1.5-.4-1.6-1.4-1.6-2.4 0-4.2 3.1-4.2 7.2 0 4.6 2.3 8.1 5.4 8.1 1.5 0 2.4-.8 3.7-2.9l.8.7c-1.4 3-3.4 4.6-5.8 4.6zm17.2-9.9c0 5.4-1.4 8.4-3.9 8.4-2.8 0-4-2.7-4-8.5 0-5 1.6-8 4.2-8 2.2 0 3.7 3.1 3.7 8.1zm3.1.4c0-5.5-3-9.8-6.8-9.8-4 0-7.3 4.4-7.3 9.5 0 5.4 3.1 9.8 7.1 9.8 3.7 0 7-4.5 7-9.5zm4.4 7.2 1.7.3v1.3h-6v-1.3l1.7-.3v-21.4c0-1.8-.3-2.4-1-2.4-.2 0-.2 0-.7.1v-1.4l4.3-2v27.1zm7.1-14.2c1-1.7 2.8-2.8 4.5-2.8 3.7 0 4.9 3.2 4.9 7v10l1.6.3v1.3h-5.8v-1.3l1.7-.3v-10c0-3.4-1-5.2-3-5.2-1.5 0-3 1-3.8 2.6v12.6l1.7.3v1.3h-6v-1.3l1.7-.3V329c0-2.5-.3-3.2-1.2-3.2-.1 0-.3 0-.5.1v-1.3l3.2-1.6c.6.9.9 1.8 1 3.1zm-130.6-73.7v7.5c0 1.8.1 2.3.4 2.9.4.8 1.2 1.2 2.2 1.2 1.1 0 2-.6 2.3-1.5.2-.5.3-1.1.3-2.6v-7.5h1.4v7.5c0 2-.1 2.7-.6 3.5-.7 1.2-1.8 1.8-3.4 1.8-1.8 0-3.1-.8-3.6-2.2-.3-.7-.4-1.4-.4-3.1v-7.5h1.4zm10.1 12.6h-1.3v-12.6h1.3l5.8 10.3v-10.3h1.4V265h-1.4l-5.8-10.2zm9.7-12.6h1.4V265h-1.4zm4.6 0 3.1 10.1 3.6-10.1h1.3L-294 265h-.9l-4-12.6zm15 6.8h-3.8v4.6h4.3v1.2h-5.7v-12.6h5.2v1.2h-3.8v4.4h3.8zm3.9-1.1v-4.5h1.4c1.1 0 1.6.6 1.6 2 0 .9-.3 1.7-.7 2.1-.4.3-.7.4-1.4.4h-.9zm-1.4 6.9h1.4v-5.8h1.2l3 5.8h1.5l-3.2-5.9c.6-.3.9-.4 1.2-.8.5-.7.9-1.7.9-2.7 0-1.3-.5-2.3-1.3-2.8-.4-.3-1-.4-2.1-.4h-2.6V265zm12.8-10.1c-.4-1.1-.9-1.5-1.7-1.5-.9 0-1.5.8-1.5 1.9 0 1 .3 1.5 1.8 2.5 1 .7 1.4 1.1 1.8 1.5.5.5.7 1.3.7 2.2 0 2.2-1.3 3.7-3.3 3.7-1.3 0-2.3-.6-2.9-1.9l.9-1.2c.4 1.2 1.1 1.9 2 1.9 1.1 0 1.8-.9 1.8-2.3 0-.7-.2-1.2-.6-1.6-.3-.3-.3-.3-1.3-1-1.8-1.3-2.4-2.2-2.4-3.6 0-1.9 1.2-3.3 2.9-3.3 1.2 0 2 .5 2.6 1.7l-.8 1zm3.3-2.5h1.4V265h-1.4zm11.1 0v1.2h-2.9V265h-1.4v-11.4h-3v-1.2zm5 7-3.5-7h1.4l2.8 5.5 2.8-5.5h1.3l-3.4 7v5.6h-1.4zm28.8-6c2.1 0 3.4 2 3.4 5.3s-1.3 5.4-3.4 5.4c-2.2 0-3.5-2-3.5-5.4 0-3.3 1.3-5.3 3.5-5.3zm0-1.2c-3.1 0-5 2.4-5 6.4 0 2.4.5 3.9 1.5 5.1.9 1 2 1.5 3.5 1.5 1.4 0 2.6-.5 3.5-1.5 1-1.2 1.5-2.8 1.5-5-.1-4.1-1.9-6.5-5-6.5zm8.9 12.8h-1.4v-12.6h5v1.2h-3.6v4.5h3.3v1.2h-3.3z"/><path d="M-378.5 251.4v1.6l1 .2c4.5.9 5.2 1 5.2 6.4v32.2c-1.3-2.1-24.2-40.4-24.2-40.4h-12.3v1.7l1.2.1c4.7.4 5.3.4 5.3 5.8v40.2c0 4.9-.8 5-4.8 5.6l-1.7.2v1.9h17V305l-1.9-.3c-4.1-.6-4.8-.7-4.8-5.5v-34l26.4 41.7h3.6v-47.6c0-4.8.7-5 4.3-6l.8-.2v-1.7h-15.1zm58.5 18.1c-3.9 0-6.7 1.5-9.2 4.7v-26.8l-.5.2-10.2 3.8v1.9l.5-.1c.8-.2 1.1-.2 1.4-.2 1.6 0 2.2.7 2.2 4.5v34.8c0 7.4-.4 10.1-2.1 14.6l-.1.3 2 1.1 4.6-5.4c2.2 3.7 5.5 5.6 9.7 5.6 8.5 0 15.1-8.9 15.1-20.3 0-11.2-5.4-18.7-13.4-18.7zm-2.4 34.8c-5.3 0-6.8-2.9-6.8-12.9v-12.8c2.2-2.6 4.1-3.6 6.3-3.6 5.6 0 9.8 6.8 9.8 15.8 0 8.2-3.6 13.5-9.3 13.5zm144-3.5-.2.3c-1.1 1.4-1.5 1.6-2.1 1.6-.8 0-1.4-1.4-1.4-3.4v-16.9c0-4.6-.8-6.7-3.1-8.6-6.4-5.2-13.2-5.2-15.4-5.1-6.6-.3-22.9 9-27.2 19.8v-40.9l-10.3 3.9v2l.5-.1c.5-.1 1-.2 1.5-.2 1.3 0 1.8.5 1.8 3.8v47.8c-.5.1-3.8.5-3.8.5v2.2h14.1v-2.2s-3.3-.5-3.8-.5c0-8.1.4-10.2 5-16.7.5 1 8.4 15.8 8.9 16.7l-3.6.5v2.2h15.5c1.3.5 2.7.8 4.1.8 4.1 0 7.9-2.4 10-6.2.3 3.9 2.2 6.2 5.3 6.2 1.7 0 4.1-1.9 6.5-5.1l.2-.3-2.5-2.1zm-29.8-2.6c0 2.4.8 4.7 2.2 6.4-.4-.1-.8-.1-.9-.1-.2-.3-11.9-21.6-12.2-22.1 2.1-2.8 7.8-7.4 12.1-7.9 1.2-.1 2-.2 2.2 0 .8 1.2 2.7 1.1 2.7 1.1.4 0 2.7.3 4.7-3 0 0 .1-.5 1.3-.5 5.1 0 7.1 5.9 7.2 9.8-7.3 2.5-19.3 6.4-19.3 16.3zm19.3.3c-2.2 2.6-4.6 4-6.7 4-3.3 0-5.6-2.7-5.6-6.3 0-6.8 6.8-9.1 12.2-10.9h.1v13.2zm-150.9-2-.2.3c-2.9 4.2-5.3 5.9-8.7 5.9-5.5 0-9.9-4.9-11.1-12.1.6-.2 22.2-6 22.2-6v-.3c-1.1-9.3-6.2-14.8-13.8-14.8-8.4 0-15.3 9.3-15.3 20.7 0 10.4 6.6 18 15.7 18 5.9 0 10.2-3.1 13.3-9.6l.1-.3-2.2-1.8zm-11.7-23.5c3.5 0 5.8 2.7 5.8 6.7 0 2.1-.7 3.3-4.6 4.3l-10 2.5c.2-8.3 3.5-13.5 8.8-13.5zm106.1 12c-8.1-3.5-8.7-4-8.7-7.2 0-2.5 2.3-4.6 5.1-4.6 0 0 2.4-.1 2.7 1 .1.4 1.1 3.6 4.9 2.8 1.7-.3 2.3-1.9 2.3-3.1.1-2.2-2.6-4.4-6.6-4.4-8.2 0-14.3 4.8-14.3 11.1 0 5.9 4.9 8.2 9.6 10.3 4.1 1.9 8 3.6 8 7.8 0 3.3-2.9 5.9-6.4 5.9-3.6 0-4.8-1.8-5.1-4.4s-2.4-3.3-4.2-3.3c-2-.1-3.5 1.4-3.7 3.8 0 .5 0 .6.2 1-.8.9-1.2 1.1-1.7 1.1-.8 0-1.4-1.4-1.4-3.4v-16.9c0-4.6-.8-6.7-3.1-8.6-3.9-3.5-11.8-6.3-18.3-5-3.6.8-9.5 5.2-12.3 12.6-.2-5.8-.8-8.1-2.8-12l-.2-.3-7.2 3.4v1.5l.8-.2.4-.1c2.2 0 3.2 2.8 3.2 9v21.8c-.5.1-3.9.6-3.9.6v1.9h14.5v-1.9s-3.5-.5-4.1-.5l.1-8.4c1-17.7 4.9-19.6 6.6-20.6 1.4-.9 3.5-1 3.6-.8.8 1.2 2.7 1.1 2.7 1.1.5 0 2.8.2 4.7-3 0 0 .1-.5 1.3-.5 5.1 0 7.1 5.9 7.2 9.8h.1c-7.3 2.4-19.3 6.3-19.3 16.2 0 5.8 4.1 9.9 10 9.9 4.1 0 7.9-2.4 10-6.2.3 3.9 2.2 6.2 5.3 6.2 1.4 0 3.3-1.3 5.3-3.6 2.1 2.2 5.8 3.6 10.5 3.6 7.3 0 13.1-5 13.1-11.5.2-5.1-3.2-9.5-8.9-11.9zm-25.8 13.7c-2.2 2.6-4.6 4-6.7 4-3.3 0-5.6-2.7-5.6-6.3 0-6.8 6.8-9.1 12.2-10.9h.1v13.2z" fill="#d00000"/></svg>