<svg xmlns="http://www.w3.org/2000/svg" width="768" height="768" viewBox="-3.484 -3.484 123.108 123.108" fill="#104871"><path d="M3.659 39.641a2.206 2.206 0 0 0 1.363-4.195 2.2 2.2 0 0 0-2.776 1.417 2.204 2.204 0 0 0 1.414 2.778M2.547 66.884a2.205 2.205 0 1 0-.69-4.353 2.2 2.2 0 1 0 .69 4.354m11.38 24.779a2.21 2.21 0 0 0 .491-3.08 2.21 2.21 0 0 0-3.084-.486 2.202 2.202 0 0 0-.484 3.079 2.2 2.2 0 0 0 3.076.487m21.388 16.913a2.206 2.206 0 0 0-.959-2.968 2.21 2.21 0 0 0-2.97.965 2.207 2.207 0 0 0 .97 2.966 2.2 2.2 0 0 0 2.959-.964m26.737 5.36a2.2 2.2 0 0 0-2.201-2.205 2.205 2.205 0 0 0-2.209 2.205 2.2 2.2 0 1 0 4.41 0M26.892 7.987l-.969.824 4.189 4.917c1.176 1.379 1.445 2.689.867 4.181a5.07 5.07 0 0 1-1.421 1.967c-1.87 1.595-4.306 1.531-5.746-.161l-4.498-5.277-.967.824-.406-.477 3.071-2.615.407.479-.969.824 4.156 4.879c1.33 1.56 3.115 1.799 4.547.58 1.471-1.252 1.574-3.145.255-4.695l-4.145-4.864-.967.824-.406-.477 2.594-2.209.407.478zm15.036 3.845-3.388 1.793-.292-.555 1.125-.592-2.325-4.39c-.421-.796-1.086-1.076-1.746-.729-.644.343-.869.824-1.378 3.012l2.061 3.898 1.139-.604.294.555-3.403 1.8-.294-.554 1.138-.603-2.854-5.395-1.304.69-.213-.404 1.846-1.727.271-.144.887 1.68c.434-1.899.866-2.645 1.823-3.152 1.111-.586 2.181-.232 2.79.924l2.404 4.539 1.122-.595.295.554zM40.816.051a.882.882 0 0 1 1.136.544.885.885 0 0 1-.559 1.141.878.878 0 0 1-1.125-.565.873.873 0 0 1 .547-1.12m5.67 10.37-3.64 1.248-.205-.592 1.22-.419-1.98-5.775-1.395.482-.15-.434 2.096-1.419.289-.098 2.344 6.829 1.218-.415.204.592zm6.223-8.595-.699.144-1.261 7.678-.332.067-4.35-6.524-.701.125-.125-.614 3.224-.654.124.614-1.163.236L50.396 7.4l.866-5.279-1.111.226-.125-.616 2.557-.52.125.615zm7.958 5.304c-.924.651-1.375.838-2.054.866-1.608.065-2.786-1.361-2.874-3.479l-.008-.187 5.338-.219-.02-.458C60.973 1.822 59.668.62 57.839.696c-2.1.088-3.572 1.879-3.472 4.251.095 2.336 1.688 3.936 3.84 3.844.981-.04 1.566-.266 2.806-1.046l-.346-.615zm-4.947-3.476c.1-1.33.93-2.195 2.165-2.245.984-.042 1.707.659 1.751 1.675l.016.406-3.932.164zm10.518 5.298-4.165-.428.064-.625 1.281.131.625-6.07-1.469-.151.047-.457 2.496-.406.302.033-.194 1.889c1.375-1.427 1.849-1.754 2.457-1.693.204.023.366.09.459.201l.473.51-1.098 1.079c-.305-.355-.526-.53-.692-.55-.308-.03-.638.228-1.68 1.263l-.461 4.485 1.618.168-.064.623zm2.74.595-.659-.159.567-2.341.758.184-.109.446c-.171.707.601 1.557 1.624 1.806.904.219 1.695-.095 1.855-.754s-.211-1.133-1.78-2.231c-1.433-.991-1.846-1.737-1.594-2.774.313-1.286 1.563-1.906 3.079-1.54.725.175 1.241.493 1.61.982l.242-.569.709.171-.974 2.278-.706-.173a1.79 1.79 0 0 0 .231-.518c.157-.645-.457-1.351-1.347-1.566-.855-.209-1.529.117-1.701.826s-.078.82 1.721 2.109c1.461 1.035 1.839 1.702 1.582 2.759-.321 1.318-1.566 1.99-3.031 1.636-.924-.224-1.564-.605-1.934-1.166l-.144.592zM80.569.672a.88.88 0 0 1 .53 1.142.885.885 0 0 1-1.159.525.883.883 0 0 1-.508-1.154.877.877 0 0 1 1.136-.514m-2.243 11.604-3.602-1.359.224-.587 1.205.456 2.156-5.711-1.38-.522.16-.425 2.519.243.286.107-2.553 6.757 1.204.454-.219.588zm5.078 1.702c-1.12.235-1.493.219-2.056-.061-.877-.44-1.134-1.252-.672-2.175l2.341-4.689-1.317-.657.203-.41 1.486.326 1.045-2.093 1.095.545-1.071 2.138 1.881.941-.349.696-1.88-.939-2.275 4.549c-.286.575-.195.885.304 1.139.319.156.547.196 1.212.149l.054.541zm4.746 1.958c-.987.124-1.489.067-1.934-.239-.587-.403-.705-1.039-.302-1.626l.481-.699 2.772 1.084-1.017 1.48zm3.156-7.89c.269-.393.183-.924-.209-1.193s-.918-.159-1.189.232a.85.85 0 0 0 .219 1.179.85.85 0 0 0 1.179-.219m-1.53 10.075-1.078-.74 2.957-4.302c.633-.924.245-2.094-.985-2.94-1.271-.872-2.621-.916-3.177-.105a.76.76 0 0 0-.157.47l1.494.489.463-.67c.537.081.748.165 1.026.356.561.386.701 1.079.319 1.637l-1.086 1.579-2.763-1.095c-.778-.309-1.644-.037-2.131.676-.642.936-.392 2.096.573 2.759.743.508 1.475.579 2.561.256l-.099.14c-.355.515-.315.996.119 1.295.113.076.339.169.558.239l1.139.346.269-.39zm4.005-8.376a.854.854 0 0 0-.21-1.191.854.854 0 0 0-1.189.23.85.85 0 0 0 .219 1.179.85.85 0 0 0 1.18-.217m-.282 11.899c-1.142-.068-1.499-.179-1.966-.598-.733-.656-.767-1.506-.08-2.276l3.491-3.909-1.103-.982.306-.343 1.349.706 1.561-1.745.907.813-1.593 1.782 1.567 1.401-.519.581-1.566-1.399-3.391 3.793c-.43.48-.421.804-.004 1.176.262.239.474.334 1.13.465l-.091.534zm-79.74 43.283-.81-4.11.615-.121.246 1.249 9.748-1.921-.245-1.248.615-.121.94 4.756c.378 1.93-.657 3.519-2.52 3.884s-3.621-.926-4.027-2.989c-.064-.317-.081-.504-.084-.952l.581-.114a1.74 1.74 0 0 0 .04.458c.28 1.431 1.711 2.376 3.191 2.084 1.331-.261 2.221-1.354 2.006-2.45l-.357-1.815-9.596 1.892.276 1.414-.619.105zm2.917 9.842c.836 1.873 3.172 2.649 5.214 1.739s3.025-3.168 2.189-5.043-3.171-2.65-5.214-1.739-3.025 3.167-2.189 5.042m6.75-3.012c.52 1.161-.404 2.669-2.121 3.435s-3.459.448-3.976-.715.426-2.659 2.13-3.419c1.719-.766 3.45-.464 3.968.699m-.295 12.132c-1.096-.336-1.415-.528-1.771-1.045-.558-.81-.394-1.644.457-2.23l4.315-2.974-.836-1.216.374-.26 1.145 1.002 1.929-1.328.693 1.005-1.969 1.358 1.193 1.731-.641.441-1.194-1.731-4.187 2.89c-.529.364-.601.68-.283 1.143.201.29.383.434.989.716l-.212.498zm1.413 3.015-.474-.487 1.731-1.674.541.559-.326.319c-.525.508-.329 1.638.402 2.392.649.672 1.484.83 1.974.358s.424-1.073-.315-2.834c-.68-1.608-.629-2.458.137-3.2.954-.919 2.341-.776 3.425.346.518.536.784 1.079.834 1.692l.511-.352.506.525-2.039 1.405-.506-.525a1.79 1.79 0 0 0 .473-.316c.476-.459.336-1.385-.3-2.043-.613-.633-1.358-.72-1.879-.213s-.504.65.326 2.704c.679 1.654.641 2.42-.139 3.176-.975.944-2.389.847-3.437-.239-.659-.68-.996-1.347-1.009-2.017l-.437.424zm13.098 9.255-1.223-.828 6.476-9.56-.266-.18-2.392-.824-.259.38 1.221.826-2.196 3.244c-.343-.641-.549-.884-1.028-1.206-1.836-1.245-4.38-.696-5.691 1.242-1.218 1.795-1.026 3.991.432 4.983.714.486 1.379.565 2.672.315l-.665.983.266.181 2.385.836.266-.392zm-2.42-2.233c-.749.045-1.016-.012-1.453-.309-1.15-.779-1.203-2.187-.135-3.759 1.094-1.612 2.737-2.076 4.099-1.155.828.561.907 1.047.319 1.919l-2.205 3.256-.625.047m10.79 5.88-1.214-.484 1.934-4.85c.414-1.04-.222-2.097-1.608-2.65-1.432-.57-2.759-.315-3.125.599-.067.174-.082.259-.047.491l1.565.15.302-.756c.543-.039.768-.004 1.083.121.629.25.919.897.669 1.526l-.711 1.781-2.937-.462c-.825-.127-1.607.326-1.927 1.131-.422 1.054.081 2.131 1.166 2.565.835.333 1.567.24 2.555-.316l-.064.159c-.231.581-.087 1.043.401 1.238a2.56 2.56 0 0 0 .595.108l1.186.091.178-.441zm-2.07-1.774c-.935.339-1.432.396-1.937.194-.661-.263-.916-.858-.654-1.52l.315-.786 2.945.444-.669 1.669zm18.356 4.998-3.812-.37.061-.625 1.284.124.481-4.944c.09-.911-.316-1.48-1.059-1.552-.557-.054-1.019.155-1.82.862l-.99.874-.427 4.388 1.266.124-.062.626-3.812-.374.06-.625 1.265.124.486-4.944c.087-.895-.315-1.496-1.059-1.567-.725-.072-1.179.206-2.812 1.751l-.428 4.388 1.284.125-.062.625-3.829-.374.06-.625 1.281.125.594-6.075-1.468-.144.046-.455 2.491-.42.305.03-.185 1.888c1.409-1.343 2.181-1.726 3.26-1.624 1.197.12 1.794.809 1.836 2.124 1.409-1.345 2.179-1.729 3.241-1.626 1.25.124 1.946 1.007 1.821 2.291l-.501 5.128 1.265.126-.061.623zm19.418-51.594h-2.219v13.882h2.219V51.433zm5.944 0h-4.246v13.882h4.246V51.433zm-8.476 23.18h12.709v-7.431h-12.71v7.431zm-7.743-3.697c0 1.544 2.544 2.909 6.397 3.694v-7.388c-3.429.701-6.397 1.996-6.397 3.694m-4.979-19.494h-2.221v13.903h2.221V51.422zm2.336 13.901h2.219V51.421h-2.219v13.903zm4.537 0h2.221V51.421h-2.221v13.903zm4.502 11.101v4.64c-6.095-.904-10.457-2.85-11.376-5.184h-4.56V48.222h15.935V65.32c-6.661.944-11.327 3.116-11.3 5.58.036 2.799 5.794 4.77 11.301 5.525m13.738-24.991h-2.221v13.882h2.221V51.433zm8.055 19.483c0-1.698-2.972-2.993-6.399-3.694v7.388c3.852-.785 6.399-2.15 6.399-3.694m-4.119-5.593h2.222V51.421h-2.222v13.903zm4.539 0h2.221V51.421h-2.221v13.903zm4.556 0h2.221V51.421h-2.221v13.903zm-11.37-17.102h15.93v27.659h-4.558c-.921 2.334-5.281 4.28-11.376 5.184v-4.64c5.507-.755 11.268-2.726 11.299-5.525.028-2.464-4.641-4.636-11.295-5.58V48.222zm-31.334-3.111a2.953 2.953 0 0 1-.149-.958c0-.727.199-1.316.446-1.316s.444.589.444 1.316c0 .381-.059.725-.146.964h3.447a3.037 3.037 0 0 1-.141-.964c0-.727.201-1.316.444-1.316s.445.589.445 1.316c0 .381-.055.725-.141.964h3.418c-.088-.239-.14-.582-.14-.964 0-.727.2-1.316.444-1.316s.444.589.444 1.316c0 .381-.055.725-.143.964h3.411c-.086-.239-.14-.582-.14-.964 0-.727.198-1.316.441-1.316s.446.589.446 1.316c0 .381-.055.725-.142.964h3.247v-4.881h1.1c.125-.336.325-.941.302-1.629-.11-3.527 1.793-6.441 5.966-6.593a3.1 3.1 0 0 1-.121-.905c0-.729.205-1.318.45-1.318s.451.589.451 1.318a3.06 3.06 0 0 1-.125.905c4.175.151 6.078 3.065 5.97 6.593-.024.688.175 1.292.306 1.629h1.099v4.881h3.245c-.088-.239-.141-.582-.141-.964 0-.727.195-1.316.442-1.316s.445.589.445 1.316c0 .381-.055.725-.142.964h3.41a3.015 3.015 0 0 1-.139-.964c0-.727.195-1.316.446-1.316.24 0 .441.589.441 1.316 0 .381-.056.725-.144.964h3.42c-.089-.239-.144-.582-.144-.964 0-.727.199-1.316.445-1.316s.446.589.446 1.316c0 .381-.058.725-.145.964h3.449c-.09-.239-.144-.582-.144-.964 0-.727.199-1.316.446-1.316s.441.589.441 1.316c0 .381-.061.718-.151.958v1.831H93.236V48.2H77.837v-1.258h15.395l-7.698-4.127-7.698 4.127H61.902v-1.831z"/></svg>