<svg xmlns="http://www.w3.org/2000/svg" width="200" height="200"><style>.B{fill:#004f8d}</style><defs><clipPath id="A"><path d="M178 115.078h10v8.73h-10zm0 0"/></clipPath><clipPath id="B"><path d="M24 50h10.922v10.316H24zm0 0"/></clipPath><clipPath id="C"><path d="M18.254 57.145H30V67.46H18.254zm0 0"/></clipPath><clipPath id="D"><path d="M-1576.344-1219.61V955.329h3866.54"/></clipPath><clipPath id="E"><path d="M17 65.078h9.191v5.559H17zm0 0"/></clipPath><clipPath id="F"><path d="M231.25 2109.457 1776.422 579.176-944.043-2167.797"/></clipPath><clipPath id="G"><path d="M15.078 71h10.32v8h-10.32zm0 0"/></clipPath><clipPath id="H"><path d="M-1576.344-1219.61V955.329h3866.54"/></clipPath><clipPath id="I"><path d="M12 77h11v8.715H12zm0 0"/></clipPath><clipPath id="J"><path d="M-1576.344-1219.61V955.329h3866.54"/></clipPath><clipPath id="K"><path d="M11 85h9.637v8.652H11zm0 0"/></clipPath><clipPath id="L"><path d="M-1576.344-1219.61V955.329h3866.54"/></clipPath><clipPath id="M"><path d="M10.316 94h9.524v7.586h-9.524zm0 0"/></clipPath><clipPath id="N"><path d="M-1576.344-1219.61V955.329h3866.54"/></clipPath><clipPath id="O"><path d="M10.316 102.383h9.524V105h-9.524zm0 0"/></clipPath><clipPath id="P"><path d="m-1664.266-1106.004 150.829 2169.691L2343.82 795.493"/></clipPath><clipPath id="Q"><path d="M11.11 105h9.527v7.7h-9.528zm0 0"/></clipPath><clipPath id="R"><path d="M-1576.344-1219.61V955.329h3866.54"/></clipPath><clipPath id="S"><path d="M12 112h10v8.637H12zm0 0"/></clipPath><clipPath id="T"><path d="M-1576.344-1219.61V955.329h3866.54"/></clipPath><clipPath id="U"><path d="M16.668 127.777H26v8.73h-9.332zm0 0"/></clipPath><clipPath id="V"><path d="M-1576.344-1219.61V955.329h3866.54"/></clipPath><clipPath id="W"><path d="M19.047 135H30v7.855H19.047zm0 0"/></clipPath><clipPath id="X"><path d="M-1576.344-1219.61V955.329h3866.54"/></clipPath><clipPath id="Y"><path d="M28 148h9.3v9H28zm0 0"/></clipPath><clipPath id="Z"><path d="M-1576.344-1219.61V955.329h3866.54"/></clipPath><clipPath id="a"><path d="M34 154h8.855v9.492H34zm0 0"/></clipPath><clipPath id="b"><path d="M-1576.344-1219.61V955.329h3866.54"/></clipPath><clipPath id="c"><path d="M39 159h7.824v8H39zm0 0"/></clipPath><clipPath id="d"><path d="M-1576.344-1219.61V955.329h3866.54"/></clipPath><clipPath id="e"><path d="M41.27 161.11h11.113V173H41.27zm0 0"/></clipPath><clipPath id="f"><path d="M-1576.344-1219.61V955.329h3866.54"/></clipPath><clipPath id="g"><path d="M48.414 166h11.11v11.777h-11.11zm0 0"/></clipPath><clipPath id="h"><path d="M-1576.344-1219.61V955.329h3866.54"/></clipPath><clipPath id="i"><path d="M57.145 171.43h8.726v9.523h-8.726zm0 0"/></clipPath><clipPath id="j"><path d="M-1576.344-1219.61V955.329h3866.54"/></clipPath><clipPath id="k"><path d="M64.285 174h9.524v10.922h-9.524zm0 0"/></clipPath><clipPath id="l"><path d="M-1576.344-1219.61V955.329h3866.54"/></clipPath><clipPath id="m"><path d="M84.129 178h5.555v11.684h-5.555zm0 0"/></clipPath><clipPath id="n"><path d="M-1576.344-1219.61V955.329h3866.54"/></clipPath><clipPath id="o"><path d="M91.27 179H99v11h-7.73zm0 0"/></clipPath><clipPath id="p"><path d="M-1576.344-1219.61V955.329h3866.54"/></clipPath><clipPath id="q"><path d="M99.207 179.363H107v11.114h-7.793zm0 0"/></clipPath><clipPath id="r"><path d="M-1576.344-1219.61V955.329h3866.54"/></clipPath><clipPath id="s"><path d="M107.145 178.57h8.726V190h-8.726zm0 0"/></clipPath><clipPath id="t"><path d="M-1576.344-1219.61V955.329h3866.54"/></clipPath><clipPath id="u"><path d="M123.809 176.191h8.73V187h-8.73zm0 0"/></clipPath><clipPath id="v"><path d="M-1576.344-1219.61V955.329h3866.54"/></clipPath><clipPath id="w"><path d="M129.363 172.223h10.32V184h-10.32zm0 0"/></clipPath><clipPath id="x"><path d="M-1576.344-1219.61V955.329h3866.54"/></clipPath><clipPath id="y"><path d="M137.3 169.047h9.524V180h-9.523zm0 0"/></clipPath><clipPath id="z"><path d="M-1576.344-1219.61V955.329h3866.54"/></clipPath><clipPath id="AA"><path d="M146.824 162H156v10h-9.176zm0 0"/></clipPath><clipPath id="AB"><path d="M-1576.344-1219.61V955.329h3866.54"/></clipPath><clipPath id="AC"><path d="M152.383 157.145h11.11V168h-11.11zm0 0"/></clipPath><clipPath id="AD"><path d="M-1576.344-1219.61V955.329h3866.54"/></clipPath><clipPath id="AE"><path d="M159.523 152h8.73v9h-8.73zm0 0"/></clipPath><clipPath id="AF"><path d="M-1576.344-1219.61V955.329h3866.54"/></clipPath><clipPath id="AG"><path d="M163.492 144.445h11.11v11.11h-11.11zm0 0"/></clipPath><clipPath id="AH"><path d="M-1576.344-1219.61V955.329h3866.54"/></clipPath><clipPath id="AI"><path d="M168.254 137.3h11.11V148h-11.11zm0 0"/></clipPath><clipPath id="AJ"><path d="M-1576.344-1219.61V955.329h3866.54"/></clipPath><clipPath id="AK"><path d="M173.016 130.16h9.523v9.524h-9.523zm0 0"/></clipPath><clipPath id="AL"><path d="M-1576.344-1219.61V955.329h3866.54"/></clipPath><clipPath id="AM"><path d="M175.398 125H186v6.746h-10.602zm0 0"/></clipPath><clipPath id="AN"><path d="M-1576.344-1219.61V955.329h3866.54"/></clipPath><clipPath id="AO"><path d="M-1576.344-1219.61V955.329h3866.54"/></clipPath><clipPath id="AP"><path d="M-1576.344-1219.61V955.329h3866.54"/></clipPath><clipPath id="AQ"><path d="M179.363 106H189v9h-9.637zm0 0"/></clipPath><clipPath id="AR"><path d="M-1576.344-1219.61V955.329h3866.54"/></clipPath><clipPath id="AS"><path d="M180.16 97.617h9.524V106h-9.524zm0 0"/></clipPath><clipPath id="AT"><path d="M-1576.344-1219.61V955.329h3866.54"/></clipPath><clipPath id="AU"><path d="M179.363 86h10.32v8.445h-10.32zm0 0"/></clipPath><clipPath id="AV"><path d="M-1576.344-1219.61V955.329h3866.54"/></clipPath><clipPath id="AW"><path d="M178 78h10v8.508h-10zm0 0"/></clipPath><clipPath id="AX"><path d="M-1576.344-1219.61V955.329h3866.54"/></clipPath><clipPath id="AY"><path d="M177 75h9v4.363h-9zm0 0"/></clipPath><clipPath id="AZ"><path d="M-1576.344-1219.61V955.329h3866.54"/></clipPath><clipPath id="Aa"><path d="M175 69.047h9.922v6.351H175zm0 0"/></clipPath><clipPath id="Ab"><path d="M-1576.344-1219.61V955.329h3866.54"/></clipPath><clipPath id="Ac"><path d="M174 65.078h9V71h-9zm0 0"/></clipPath><clipPath id="Ad"><path d="m-1973.21 397.121 1536.948 1538.867 2735.75-2732.375"/></clipPath><clipPath id="Ae"><path d="M170.637 58h11.11v10.254h-11.11zm0 0"/></clipPath><clipPath id="Af"><path d="M-1576.344-1219.61V955.329h3866.54"/></clipPath><clipPath id="Ag"><path d="M167 50h9.984v10H167zm0 0"/></clipPath><clipPath id="Ah"><path d="M-1576.344-1219.61V955.329h3866.54"/></clipPath><clipPath id="Ai"><path d="M76.191 180.953H80V184h-3.809zm0 0"/></clipPath><clipPath id="Aj"><path d="M-1576.344-1219.61V955.329h3866.54"/></clipPath><clipPath id="Ak"><path d="M118.254 181H121v3h-2.746zm0 0"/></clipPath><clipPath id="Al"><path d="M-1576.344-1219.61V955.329h3866.54"/></clipPath><clipPath id="Am"><path d="M37.3 27.777h17.462V45H37.3zm0 0"/></clipPath><clipPath id="An"><path d="M-1576.344-1219.61V955.329h3866.54"/></clipPath><clipPath id="Ao"><path d="M57.145 15H71.43v16.746H57.145zm0 0"/></clipPath><clipPath id="Ap"><path d="M-1576.344-1219.61V955.329h3866.54"/></clipPath><clipPath id="Aq"><path d="M86.508 7.145h7.144V26.19h-7.144zm0 0"/></clipPath><clipPath id="Ar"><path d="M-1576.344-1219.61V955.329h3866.54"/></clipPath><clipPath id="As"><path d="M78.57 9.523h8.73V23h-8.73zm0 0"/></clipPath><clipPath id="At"><path d="M-1576.344-1219.61V955.329h3866.54"/></clipPath><clipPath id="Au"><path d="M104.762 8.73h9.523v15.08h-9.523zm0 0"/></clipPath><clipPath id="Av"><path d="M-1576.344-1219.61V955.329h3866.54"/></clipPath><clipPath id="Aw"><path d="M109.523 8.73h11.114v18.254h-11.114zm0 0"/></clipPath><clipPath id="Ax"><path d="M-1576.344-1219.61V955.329h3866.54"/></clipPath><clipPath id="Ay"><path d="M131 16.668h11V32h-11zm0 0"/></clipPath><clipPath id="Az"><path d="M-1576.344-1219.61V955.329h3866.54"/></clipPath><clipPath id="BA"><path d="M149 29.363h16.871v15.082H149zm0 0"/></clipPath><clipPath id="BB"><path d="M-1576.344-1219.61V955.329h3866.54"/></clipPath><clipPath id="BC"><path d="M62 91.27h17.363v28.57H62zm0 0"/></clipPath><clipPath id="BD"><path d="M-1576.344-1219.61V955.329h3866.54"/></clipPath><clipPath id="BE"><path d="M82.54 103.176h11.905v16.664H82.54zm0 0"/></clipPath><clipPath id="BF"><path d="M-1576.344-1219.61V955.329h3866.54"/></clipPath><clipPath id="BG"><path d="M78.57 91h19.844v28.84H78.57zm0 0"/></clipPath><clipPath id="BH"><path d="M-1576.344-1219.61V955.329h3866.54"/></clipPath><clipPath id="BI"><path d="M116.668 95.238h11.902v24.602h-11.902zm0 0"/></clipPath><clipPath id="BJ"><path d="M-1576.344-1219.61V955.329h3866.54"/></clipPath><clipPath id="BK"><path d="M131 100.793h5.508v18.254H131zm0 0"/></clipPath><clipPath id="BL"><path d="M-1576.344-1219.61V955.329h3866.54"/></clipPath><clipPath id="BM"><path d="M117.46 92.063h9.524V94h-9.523zm0 0"/></clipPath><clipPath id="BN"><path d="M-1576.344-1219.61V955.329h3866.54"/></clipPath><clipPath id="BO"><path d="M128 91.27h8v28.57h-8zm0 0"/></clipPath><clipPath id="BP"><path d="M-1576.344-1219.61V955.329h3866.54"/></clipPath><clipPath id="BQ"><path d="M101.586 91.27h11.113v13.492h-11.113zm0 0"/></clipPath><clipPath id="BR"><path d="M-1576.344-1219.61V955.329h3866.54"/></clipPath><clipPath id="BS"><path d="M108 91.27h8v28.57h-8zm0 0"/></clipPath><clipPath id="BT"><path d="M-1576.344-1219.61V955.329h3866.54"/></clipPath><clipPath id="BU"><path d="M98.414 91.27H107v28.57h-8.586zm0 0"/></clipPath><clipPath id="BV"><path d="M-1576.344-1219.61V955.329h3866.54"/></clipPath><clipPath id="BW"><path d="M66 78h67.332v4H66zm0 0"/></clipPath><clipPath id="BX"><path d="M-1576.344-1219.61V955.329h3866.54"/></clipPath><clipPath id="BY"><path d="M48 52.383h103.586v107.14H48zm0 0"/></clipPath><clipPath id="BZ"><path d="M-1576.344-1219.61V955.329h3866.54"/></clipPath><clipPath id="Ba"><path d="M26.191 26.191H173.81V173.81H26.19zm0 0"/></clipPath><clipPath id="Bb"><path d="M-1576.344-1219.61V955.329h3866.54"/></clipPath><clipPath id="Bc"><path d="M-1576.344-1219.61V955.329h3866.54"/></clipPath></defs><g clip-path="url(#B)" class="B"><g clip-path="url(#AO)"><path d="m34.14 54.348-.933 1.449-3.922-2.516c-.64-.426-1.023-.64-1.281-.722a1.291 1.291 0 0 0-.98 0c-.34.125-.637.382-.895.765-.254.426-.383.77-.34 1.11.043.296.168.554.383.765s.598.473 1.195.852l4.008 2.601-.941 1.453-3.793-2.433-1.79-1.277a3.006 3.006 0 0 1-.64-1.024c-.129-.383-.129-.766-.043-1.234.086-.43.297-.985.684-1.535.468-.684.851-1.153 1.238-1.454a2.48 2.48 0 0 1 1.191-.421c.383-.043.723 0 1.063.125.472.171 1.11.511 1.922 1.023zm0 0"/></g></g><g clip-path="url(#C)" class="B"><g clip-path="url(#D)"><path d="m22.035 57.46 7.676 3.876-.766 1.535-6.695.512 5.117 2.601-.765 1.45-7.633-3.88.765-1.574 6.567-.554-4.988-2.516zm0 0"/></g></g><g clip-path="url(#E)" class="B"><g clip-path="url(#F)"><path d="m17.41 67.242.672-1.61 7.945 3.313-.672 1.614zm0 0"/></g></g><g clip-path="url(#G)" class="B"><g clip-path="url(#H)"><path d="m15.86 71.27 9.163-.168-.601 1.832h-6.73l5.328 4.046-.598 1.707-7.164-5.667zm0 0"/></g></g><g clip-path="url(#I)" class="B"><g clip-path="url(#J)"><path d="m13.98 77.281 8.356 1.961-1.45 6.223-1.448-.344 1.109-4.516-1.879-.425-.977 4.175-1.41-.34.98-4.175-2.3-.512-1.106 4.645-1.406-.34zm0 0"/></g></g><g clip-path="url(#K)" class="B"><g clip-path="url(#L)"><path d="m12.105 85.594 8.528 1.105-.473 3.625c-.125.895-.297 1.578-.512 1.961s-.511.68-.937.895-.895.257-1.406.215c-.637-.086-1.149-.344-1.535-.77-.38-.426-.551-1.023-.551-1.79-.258.34-.555.595-.852.81s-.77.468-1.496.808l-1.789.813.254-2.047 2.047-1.024 1.363-.722c.172-.13.344-.297.43-.47s.172-.472.215-.85l.039-.344-3.54-.47zm4.688 2.344-.168 1.277c-.086.812-.129 1.363-.086 1.578a.8.8 0 0 0 .297.512c.172.125.344.215.598.257.3.04.554 0 .722-.132.215-.125.344-.34.43-.594.039-.129.082-.555.21-1.281l.173-1.32zm0 0"/></g></g><g clip-path="url(#M)" class="B"><g clip-path="url(#N)"><path d="m13.855 94.328.125 1.707c-.554.086-.976.3-1.277.555-.3.297-.426.726-.426 1.238-.043.555.082.977.297 1.277s.469.47.809.47c.215 0 .387-.044.512-.169.128-.133.3-.3.386-.601.086-.211.211-.637.426-1.364.254-.933.55-1.578.895-1.918.511-.511 1.066-.765 1.746-.722.425 0 .855.172 1.195.426.383.257.637.636.852 1.109.171.469.253 1.023.253 1.703-.039 1.066-.296 1.879-.765 2.43s-1.149.77-1.918.808l-.043-1.746c.469-.086.77-.215.98-.426.211-.253.301-.64.344-1.109 0-.512-.09-.894-.258-1.191-.129-.172-.297-.297-.511-.297a.597.597 0 0 0-.512.254c-.215.21-.426.722-.64 1.578-.212.808-.466 1.445-.68 1.832-.254.422-.512.68-.899.933a2.366 2.366 0 0 1-1.363.301c-.512 0-.934-.168-1.363-.469s-.723-.683-.938-1.19c-.168-.513-.258-1.153-.258-1.876.047-1.11.344-1.922.856-2.476.468-.68 1.191-.977 2.175-1.067"/></g></g><g clip-path="url(#O)" class="B"><g clip-path="url(#P)"><path d="m10.926 103.09 8.605-.297.063 1.746-8.606.3zm0 0"/></g></g><g clip-path="url(#Q)" class="B"><g clip-path="url(#R)"><path d="m11.254 108.91 7.117-.726-.258-2.559 1.453-.125.68 6.777-1.45.172-.253-2.515-7.117.68zm0 0"/></g></g><g clip-path="url(#S)" class="B"><g clip-path="url(#T)"><path d="m12.36 116.965 3.581-.684 4.262-4.047.387 2-2.945 2.645 3.753 1.277.34 1.965-5.496-2.176-3.582.723zm0 0"/></g></g><g clip-path="url(#U)" class="B"><g clip-path="url(#V)"><path d="M19.61 128.262c.808-.297 1.535-.469 2.214-.43.469 0 .938.09 1.367.3.465.173.852.427 1.149.723.426.43.726.942 1.023 1.579.469 1.195.469 2.261.043 3.242-.472 1.023-1.324 1.746-2.644 2.258-1.278.511-2.43.55-3.453.171-1.024-.43-1.747-1.195-2.22-2.386-.464-1.196-.464-2.262-.038-3.242.426-.938 1.277-1.704 2.558-2.215m.723 1.66c-.895.387-1.492.855-1.789 1.453a2.08 2.08 0 0 0-.043 1.875c.258.637.68 1.063 1.32 1.32.64.211 1.407.172 2.348-.215.89-.382 1.531-.851 1.832-1.445.297-.601.297-1.195.043-1.879s-.727-1.11-1.324-1.32c-.684-.258-1.492-.172-2.387.21"/></g></g><g clip-path="url(#W)" class="B"><g clip-path="url(#X)"><path d="m19.61 139.215 7.628-3.961 2.727 5.242-1.277.68-1.961-3.707-1.793.937 1.668 3.196-1.282.683-1.664-3.2-3.238 1.708zm0 0"/></g></g><g clip-path="url(#Y)" class="B"><g clip-path="url(#Z)"><path d="m29.41 150.469 1.152 1.238c-.382.422-.597.852-.597 1.234 0 .426.129.809.469 1.235s.683.683 1.066.812c.344.04.684 0 .898-.172a.833.833 0 0 0 .297-.468c.043-.172 0-.426-.086-.723l-.554-1.363c-.383-.856-.555-1.535-.512-2.047.043-.684.344-1.281.895-1.664a2.27 2.27 0 0 1 1.195-.469c.465-.043.894.043 1.363.3s.852.638 1.281 1.15c.68.85.977 1.616.934 2.386-.043.723-.383 1.32-.98 1.832l-1.11-1.32c.3-.34.473-.64.473-.98 0-.302-.172-.684-.473-1.024-.297-.383-.637-.64-.98-.766-.211-.043-.422-.043-.594.086a.599.599 0 0 0-.258.508c0 .3.172.812.512 1.621s.597 1.406.64 1.875c.086.469.043.898-.086 1.277-.167.43-.468.813-.851 1.11a2.66 2.66 0 0 1-1.363.511 2.415 2.415 0 0 1-1.493-.34c-.468-.257-.937-.683-1.406-1.28-.64-.852-.98-1.66-.937-2.426.039-.727.425-1.454 1.105-2.133"/></g></g><g clip-path="url(#a)" class="B"><g clip-path="url(#b)"><path d="m38.832 161.04.766 1.577c-.852.426-1.66.598-2.43.512-.723-.125-1.402-.555-2.047-1.191-.766-.813-1.148-1.793-1.105-2.856s.593-2.047 1.578-2.988c1.023-.977 2.086-1.489 3.195-1.489 1.066 0 2.047.422 2.856 1.32.726.766 1.066 1.622 1.066 2.512 0 .555-.172 1.11-.555 1.75l-1.492-.98c.254-.383.387-.77.344-1.148-.043-.43-.215-.77-.555-1.157-.426-.464-.937-.68-1.535-.636s-1.277.382-2.047 1.109c-.809.723-1.238 1.406-1.277 2.004-.086.594.125 1.105.55 1.578.301.34.684.55 1.11.594.512-.043 1.023-.215 1.578-.512"/></g></g><g clip-path="url(#c)" class="B"><g clip-path="url(#d)"><path d="m39.086 165.688 5.844-6.31 1.277 1.15-5.84 6.35zm0 0"/></g></g><g clip-path="url(#e)" class="B"><g clip-path="url(#f)"><path d="m41.984 168.328 5.375-6.734 4.985 3.965-.895 1.152-3.664-2.899-1.195 1.489 3.367 2.73-.895 1.106-3.367-2.684-1.492 1.793 3.793 3.024-.894 1.152zm0 0"/></g></g><g clip-path="url(#g)" class="B"><g clip-path="url(#h)"><path d="m48.68 173.57 4.687-7.246 1.406.938-.168 6.738 3.153-4.82 1.363.898-4.687 7.203-1.493-.98.172-6.567-3.07 4.688zm0 0"/></g></g><g clip-path="url(#i)" class="B"><g clip-path="url(#j)"><path d="m62.79 178.133 1.276 1.234c-.683.684-1.363 1.153-2.129 1.281s-1.535 0-2.343-.468c-1.024-.512-1.668-1.282-1.965-2.301-.297-1.024-.125-2.133.469-3.324.64-1.282 1.496-2.09 2.515-2.477 1.024-.383 2.09-.254 3.157.3.937.47 1.578 1.153 1.875 2.005.168.512.214 1.105.043 1.789l-1.708-.426c.13-.469.086-.894-.085-1.234-.172-.387-.47-.64-.891-.899-.555-.254-1.156-.297-1.707-.082s-1.067.766-1.535 1.703c-.512.98-.68 1.746-.555 2.344a1.73 1.73 0 0 0 1.023 1.277c.426.215.852.301 1.278.172s.851-.425 1.281-.894"/></g></g><g clip-path="url(#k)" class="B"><g clip-path="url(#l)"><path d="m64.664 182.48 3.152-7.968 5.926 2.297-.512 1.367-4.347-1.707-.68 1.793 4.004 1.535-.512 1.363-4.05-1.578-.852 2.172 4.52 1.793-.555 1.32zm0 0"/></g></g><g clip-path="url(#m)" class="B"><g clip-path="url(#n)"><path d="m87.852 189.043-1.961-.297 1.195-7.371c-.809.55-1.75.89-2.773 1.063l.296-1.79c.555-.085 1.157-.296 1.793-.683.684-.34 1.196-.852 1.493-1.45l1.578.258zm0 0"/></g></g><g clip-path="url(#o)" class="B"><g clip-path="url(#p)"><path d="m91.563 187.129 1.957-.086c0 .426.128.68.296.894.215.172.43.297.77.34.426.043.766-.125 1.066-.511.297-.34.555-1.11.684-2.301-.512.555-1.195.765-1.918.722-.813-.042-1.492-.421-2.004-1.066-.555-.637-.812-1.488-.727-2.512.086-1.066.426-1.879 1.11-2.472.64-.598 1.492-.895 2.43-.809 1.023.082 1.875.512 2.472 1.363s.895 2.22.766 4.051c-.125 1.875-.555 3.238-1.32 4.004-.77.809-1.704 1.149-2.817 1.066-.808-.042-1.445-.296-1.914-.769-.512-.379-.77-1.063-.852-1.914m4.731-4.008c.043-.64-.086-1.11-.344-1.492-.297-.387-.597-.555-.976-.598-.387-.043-.684.086-.942.383-.254.258-.426.727-.469 1.363-.042.684.043 1.196.301 1.536.254.296.555.511.938.511s.722-.125.98-.383c.34-.3.469-.722.512-1.32"/></g></g><g clip-path="url(#q)" class="B"><g clip-path="url(#r)"><path d="m99.918 187.34 1.957-.254c.086.422.254.809.555 1.066a1.18 1.18 0 0 0 .98.34c.426 0 .766-.172 1.024-.554.296-.34.425-.852.382-1.536-.043-.636-.168-1.109-.468-1.406s-.684-.426-1.153-.426c-.554 0-1.066.297-1.488.766l-1.625-.172.856-5.41 5.246-.172.039 1.875-3.75.129-.258 1.746a2.671 2.671 0 0 1 1.367-.383c.852-.039 1.617.301 2.258.895.64.64.98 1.449.98 2.472 0 .852-.215 1.621-.683 2.305-.637.934-1.578 1.406-2.77 1.445-.937.043-1.75-.21-2.344-.722-.597-.469-.98-1.153-1.105-2.004"/></g></g><g clip-path="url(#s)" class="B"><g clip-path="url(#t)"><path d="m114.96 186.996.216 1.793-6.906.899c0-.727.128-1.368.425-2.047s.938-1.578 1.918-2.73l1.407-1.876c.214-.426.3-.851.257-1.238-.043-.422-.215-.766-.468-.934-.258-.215-.598-.3-1.024-.258-.383.043-.726.215-.937.512s-.301.68-.254 1.281l-2.008.04c0-1.106.258-1.918.812-2.473.551-.512 1.278-.852 2.215-.977 1.024-.09 1.836.082 2.516.512a2.607 2.607 0 0 1 1.105 1.914c.047.473.047.895-.082 1.324-.086.426-.297.895-.597 1.403-.211.343-.551.812-1.106 1.453l-1.023 1.277a2.136 2.136 0 0 0-.344.598zm0 0"/></g></g><g clip-path="url(#u)" class="B"><g clip-path="url(#v)"><path d="m132.055 183.93-1.79.597-1.32-1.617-3.285 1.063-.043 2.09-1.746.554.469-9.207 1.75-.555zm-4.09-2.215-2.133-2.688-.086 3.371zm0 0"/></g></g><g clip-path="url(#w)" class="B"><g clip-path="url(#x)"><path d="m133.418 183.375-3.578-7.84 1.574-.726 5.582 3.793-2.387-5.243 1.496-.64 3.536 7.844-1.578.726-5.497-3.71 2.301 5.116zm0 0"/></g></g><g clip-path="url(#y)" class="B"><g clip-path="url(#z)"><path d="m137.383 172.035 2.726-1.574c.641-.34 1.153-.598 1.493-.684.511-.129 1.023-.086 1.535.043.511.168.937.426 1.406.813.43.379.852.933 1.281 1.617.34.64.594 1.148.684 1.707a4.215 4.215 0 0 1-.047 1.79 3 3 0 0 1-.723 1.194c-.254.297-.683.594-1.238.938l-2.855 1.621zm2.258.43 2.855 4.945 1.11-.64c.425-.258.722-.47.855-.598a1.66 1.66 0 0 0 .422-.684c.09-.254.09-.554-.043-.933-.082-.43-.297-.899-.637-1.453s-.64-.98-.937-1.235-.555-.426-.852-.469c-.3-.085-.598-.043-.894.043-.258.043-.684.297-1.282.637zm0 0"/></g></g><g clip-path="url(#AA)" class="B"><g clip-path="url(#AB)"><path d="m154.219 171.441-4.39-5.629-2 1.579-.9-1.149 5.372-4.222.894 1.152-2 1.535 4.43 5.668zm0 0"/></g></g><g clip-path="url(#AC)" class="B"><g clip-path="url(#AD)"><path d="m158.695 167.86-5.882-6.266 4.648-4.348 1.02 1.024-3.41 3.199 1.28 1.363 3.196-2.941.98 1.066-3.152 2.938 1.574 1.75 3.543-3.325.977 1.063zm0 0"/></g></g><g clip-path="url(#AE)" class="B"><g clip-path="url(#AF)"><path d="m165.984 155.883 1.493-.895c.511.809.77 1.575.726 2.344s-.387 1.492-.98 2.172c-.77.855-1.664 1.32-2.73 1.367-1.067 0-2.134-.426-3.157-1.324-1.063-.938-1.66-1.961-1.742-3.024-.09-1.109.254-2.09 1.02-2.984.683-.766 1.491-1.238 2.429-1.324.512-.043 1.11.086 1.793.387l-.856 1.574c-.425-.211-.808-.297-1.234-.211s-.766.297-1.066.594c-.426.511-.598 1.023-.512 1.625.086.593.512 1.23 1.281 1.914.809.726 1.531 1.066 2.13 1.066a1.98 1.98 0 0 0 1.534-.684c.301-.34.469-.722.426-1.19 0-.388-.172-.852-.555-1.407"/></g></g><g clip-path="url(#AG)" class="B"><g clip-path="url(#AH)"><path d="m170.59 155.285-6.992-4.988.98-1.402 2.77 1.957 2.004-2.77-2.77-1.96 1.02-1.407 6.992 5.031-1.024 1.402-3.023-2.214-2.004 2.773 3.07 2.172zm0 0"/></g></g><g clip-path="url(#AI)" class="B"><g clip-path="url(#AJ)"><path d="m175.746 147.953-7.46-4.262.812-1.492 6.777-.168-4.988-2.855.77-1.41 7.5 4.265-.895 1.531-6.606.215 4.899 2.77zm0 0"/></g></g><g clip-path="url(#AK)" class="B"><g clip-path="url(#AL)"><path d="M176.09 138.746a7.38 7.38 0 0 1-1.88-1.238c-.339-.34-.554-.766-.765-1.23a3.636 3.636 0 0 1-.254-1.325c0-.555.168-1.195.422-1.832.512-1.152 1.282-1.918 2.305-2.3s2.172-.301 3.45.296c1.28.555 2.132 1.32 2.519 2.344.422 1.023.34 2.09-.172 3.238s-1.281 1.922-2.305 2.305c-.933.383-2.043.297-3.32-.258m.68-1.66c.894.383 1.664.512 2.3.254.64-.211 1.11-.598 1.407-1.235s.3-1.238 0-1.875c-.297-.597-.852-1.109-1.79-1.492-.894-.383-1.664-.472-2.3-.3-.64.214-1.067.597-1.364 1.28a2.31 2.31 0 0 0-.046 1.915c.3.554.898 1.023 1.793 1.453"/></g></g><g clip-path="url(#AM)" class="B"><g clip-path="url(#AN)"><path d="m183.93 131.203-8.14-2.644.554-1.66 6.734 2.214 1.363-4.09 1.364.422zm0 0"/></g></g><g clip-path="url(#A)" class="B"><g clip-path="url(#AP)"><path d="M182.012 123.398c-.852-.168-1.535-.464-2.09-.851a4.324 4.324 0 0 1-.977-1.024c-.257-.378-.468-.808-.511-1.234-.13-.555-.09-1.191.082-1.875.257-1.234.894-2.133 1.836-2.727.937-.554 2.085-.683 3.449-.386s2.344.898 2.941 1.836c.598.894.766 1.96.469 3.195-.297 1.281-.895 2.176-1.79 2.727-.937.511-2.046.64-3.41.34m.344-1.786c.934.211 1.743.168 2.297-.172.602-.34.98-.808 1.114-1.492.168-.68.039-1.281-.344-1.836-.426-.55-1.067-.89-2.047-1.148-.977-.215-1.746-.172-2.3.172-.555.297-.938.808-1.063 1.531-.172.684-.047 1.32.34 1.832.378.512 1.023.898 2.003 1.113"/></g></g><g clip-path="url(#AQ)" class="B"><g clip-path="url(#AR)"><path d="m185.55 110.23-1.452-.171.43-3.707 3.41.382c.296.383.554.98.765 1.664.172.723.258 1.45.172 2.13-.086.898-.383 1.663-.813 2.261a3.668 3.668 0 0 1-1.785 1.32c-.726.258-1.535.34-2.347.258-.895-.133-1.664-.387-2.301-.851-.64-.43-1.11-1.067-1.406-1.836-.211-.555-.301-1.278-.211-2.086.125-1.067.465-1.836.933-2.39.512-.556 1.153-.852 1.965-.938l.125 1.75a1.63 1.63 0 0 0-1.066.554c-.297.297-.426.723-.512 1.192-.082.765.086 1.363.512 1.875s1.11.812 2.047.937c1.023.086 1.789-.043 2.343-.426.555-.425.895-.98.98-1.703.044-.34 0-.726-.085-1.11s-.211-.726-.426-.98l-1.062-.128zm0 0"/></g></g><g clip-path="url(#AS)" class="B"><g clip-path="url(#AT)"><path d="M189.215 102.684h-3.621l-4.989 3.199v-2.047l3.41-2.047-3.41-1.96v-2l4.989 3.151h3.62zm0 0"/></g></g><g clip-path="url(#AU)" class="B"><g clip-path="url(#AV)"><path d="m180.434 94.246-.422-3.41c-.09-.684-.133-1.195-.09-1.535 0-.34.09-.637.258-.938.129-.3.34-.511.64-.722s.594-.344.977-.387.77 0 1.152.172c.34.172.637.426.852.765.086-.55.297-.98.64-1.32s.766-.512 1.235-.555a2.69 2.69 0 0 1 1.152.13c.383.128.723.34.98.64.301.297.47.68.555 1.105l.301 2.09.34 2.899zm1.195-1.875 1.957-.258-.125-1.148-.172-1.238c-.082-.297-.21-.512-.379-.641-.215-.168-.43-.211-.726-.168-.258.043-.47.125-.598.297a1.17 1.17 0 0 0-.211.68c0 .171.04.644.168 1.453zm3.41-.43 2.3-.296-.21-1.618-.215-1.195a1.195 1.195 0 0 0-.43-.598c-.168-.171-.422-.171-.765-.171-.254.046-.465.128-.637.3a.91.91 0 0 0-.34.598c-.09.254-.043.766.082 1.535zm0 0"/></g></g><g clip-path="url(#AW)" class="B"><g clip-path="url(#AX)"><path d="m187.852 84.61-8.442 1.874-1.363-6.261 1.453-.301.977 4.52 1.878-.426-.94-4.176 1.405-.34.938 4.258 2.262-.508-1.024-4.691 1.45-.34zm0 0"/></g></g><g clip-path="url(#AY)" class="B"><g clip-path="url(#AZ)"><path d="m185.977 76.855-8.27 2.387-.469-1.664 8.27-2.387zm0 0"/></g></g><g clip-path="url(#Aa)" class="B"><g clip-path="url(#Ab)"><path d="m175.918 73.531-.598-1.664 5.114-1.789c.683-.215 1.238-.344 1.62-.344.512 0 1.024.13 1.45.47s.766.808 1.023 1.491c.297.813.254 1.496-.043 2.09s-.851 1.024-1.746 1.32l-.726-1.492c.468-.168.765-.34.898-.554.211-.297.297-.594.168-.98s-.34-.595-.598-.68c-.253-.087-.726 0-1.363.214zm0 0"/></g></g><g clip-path="url(#Ac)" class="B"><g clip-path="url(#Ad)"><path d="m174.2 69.098 7.956-3.293.668 1.617-7.953 3.289zm0 0"/></g></g><g clip-path="url(#Ae)" class="B"><g clip-path="url(#Af)"><path d="m181.457 64.234-7.672 3.84-.765-1.535 3.582-5.715-5.16 2.559-.727-1.403 7.719-3.84.765 1.536-3.453 5.625 5.031-2.512zm0 0"/></g></g><g clip-path="url(#Ag)" class="B"><g clip-path="url(#Ah)"><path d="m172.719 54.816-1.235.766-2.004-3.152 2.899-1.836c.512.133 1.02.43 1.664.855a6.33 6.33 0 0 1 1.445 1.578c.469.766.727 1.532.77 2.301s-.13 1.492-.555 2.133c-.426.68-.98 1.191-1.703 1.66a5.518 5.518 0 0 1-2.305.813 3.906 3.906 0 0 1-2.257-.555c-.555-.344-1.024-.809-1.45-1.535-.597-.895-.808-1.707-.765-2.473.039-.723.379-1.406.933-1.96l1.196 1.276c-.297.301-.47.684-.47 1.11s.087.851.388 1.238c.378.637.933 1.024 1.574 1.149s1.363-.043 2.176-.598c.851-.55 1.402-1.148 1.574-1.79.215-.636.086-1.28-.297-1.917-.215-.297-.469-.598-.766-.809a6.342 6.342 0 0 0-.941-.511l-.934.593zm0 0"/></g></g><g clip-path="url(#Ai)" class="B"><g clip-path="url(#Aj)"><path d="M79.41 182.266c0 .683-.594 1.238-1.277 1.238s-1.235-.594-1.235-1.277.555-1.239 1.278-1.239 1.277.598 1.234 1.278"/></g></g><g clip-path="url(#Ak)" class="B"><g clip-path="url(#Al)"><path d="M120.844 182.695c0 .68-.598 1.235-1.278 1.235s-1.238-.598-1.238-1.278.598-1.277 1.281-1.238c.723 0 1.278.555 1.235 1.281"/></g></g><g clip-path="url(#Am)" class="B"><g clip-path="url(#An)"><path d="M51.195 35.254c-.558-.258-.98-.941-1.578-1.668-.383-1.02.465-2.211 0-3.492-.937-.512-1.535.172-2.004-.043-.34-.172-.726-.938-1.363-1.746-.898-.473-2.219-.383-2.773-.086-.809.851 3.75 3.367 3.03 4.558-1.495 2.43-1.366 5.075-1.624 5.715-.082.172-.125.383-.211.551l-.598-2.215c-1.066-.383-1.32-.55-2.172-2.129-.984-.98-1.918-.898-4.351 0 0 .168.047.422.3.809.301.383.641-.727 3.239 2.43.043.593-.895.98-1.235 1.492-.128.511-.042.511.426 1.066.895.082 1.621.125 2.559-.3 1.234 1.663.68 2.984 2.133 4.687l1.023-.043.55-.34c.087-2.047-.85-7.332-.128-8.906.344-.512 1.281-.555 2.004-.77.851 1.196 1.578 2.09 2.816 2.602-.984 1.832-.683 2.261-1.023 3.41.039.215.082.894.469 1.066.34.211.34-2.687 3.023-5.5.086-.636-.215.043.98-1.62-.039-.13-.082-.766-.171-.81-.852-.128-2.086-.511-3.32 1.282"/></g></g><g clip-path="url(#Ao)" class="B"><g clip-path="url(#Ap)"><path d="M68.414 18.328c.426.086.344-.851.344-1.066-.473-.34-1.024-.594-1.578-.68-.766.254-1.535 1.02-2.133.852-.3-1.067-.938-.723-2.645-2.43-.254 0-.636.215-.851.426.043.812 2.047 3.027.941 3.965-2.219.98-2.816 3.41-3.883 3.664-.98 0-1.32.64-1.32 1.109.383.809.77 1.195 1.32 1.535 1.407.297 2.77-3.75 4.563-5.285l.766-.215.042.129c-.554 1.406-1.363 2.387-1.109 4.305l2.047 1.875c-.594.386-1.574 2.386-.938 3.922l1.75.77c.47-.13.383-.34.551-.513-.125-1.238-.511-1.449-.422-2.214.082-.133.082-.172.125-.258.809-.512-.043 1.32 2.301 2.558.813-1.277-1.277-2.132-1.023-4.347.258-.13.34-.387.726-.34l.297.125c.426.851.215 1.238 1.195 2.387.938.386 1.192.253 1.79-.555-.383-1.66-2.387-2.727-3.625-2.344-.082-.086-.082-.215-.125-.297.214-.215.34-.258.554-.472-.043-.512-.172-.766-.34-.852-.3-.125-.43.129-.726 0 0-.937.594-1.492 1.363-1.96.043-.298.426-.298.172-.938-.512-.512-.809-.895-1.918-.809-1.79.555-1.879 1.492-3.11 2.215l-.046-.125c1.324-2.73 3.922-4.309 4.945-4.137m-4.133 5.457 1.32-1.664.383-.125.043.125c-.468.684-.77 1.836-1.363 2.09-.086 0-.215-.043-.297-.043zm0 0"/></g></g><g clip-path="url(#Aq)" class="B"><g clip-path="url(#Ar)"><path d="M91.645 13.684c-.637-2.133.043-4.989-.555-5.371-.637-.387-1.149-.938-1.403-1.024-.214-.086-.984 0-1.113.215-.21.465.301.594.727 1.957.511 1.496.98 3.883 1.023 5.16-.043.125-.636.125-2.304 1.918.043-.894.898-2.172 1.535-2.684.043-.132.086-.257.172-.43-.47-.468-.938-.765-1.79-.636-.042-.129-.042-.258-.085-.387.3-.68.68-1.105 1.449-1.488 0-.09.043-.172.043-.3-.043-.13-.13-.212-.215-.34-.938-.383-1.703-.34-2.598.296l.168.512c.13 0 .297.043.469.043.34.813-.172 1.535.086 2.176l.937.851c-.468 1.067-2.3 3.282-1.363 4.73.3.34.215.298.68.388.855-1.114 1.453-2.688 3.031-3.286.55 3.07.637 7.586 1.914 10.059.086 0 .172-.043.258-.043.043 0 .086 0 .129-.043.258-2.559-1.278-10.656-1.195-10.738.296-.086.64-.13.94-.215.126-.043 1.15 0 .853-.598-.258-.683-.852-.98-1.793-.722"/></g></g><g clip-path="url(#As)" class="B"><g clip-path="url(#At)"><path d="M87.297 15.39c-.895.34-.766.934-1.531 1.36.082-.426-.047-.848.125-1.36 1.238-1.066.043-1.195.129-2.898.296-.172.382.04.597-.344s-.086-.425-.086-.425c-.172-.215-.765-1.961-1.535-1.918-.683.043-.426.722-.898 1.152-1.914 1.234-3.32 2-4.813 5.625 1.79-1.234 2.559-3.156 5.242-3.836-.043 2.258-2.515 3.41-4.093 4.774-.809.683-1.149-.043-1.704 1.105-.171.344.34.984.598 1.066s3.45-.593 3.75-1.066c.086-.082.469-.766.598-.89.043.038.082.081.125.124l-.89 4.094c.421.34.593.594 1.23.727.511-.602.558-1.367 1.066-2.18l.3 1.75c.638.383.598.555 1.235.297l-.808-3.067 1.363-4.09"/></g></g><g clip-path="url(#Au)" class="B"><g clip-path="url(#Av)"><path d="M113.938 15.688c.042 0 .085-.13 0-.215a.236.236 0 0 0-.215-.125c-.38.043-.934.125-2.172.593.086-.171.172-.34.297-.511.386-.383.43-.13 1.023-.211.473-.813-.082-.938-.039-1.535.04-1.45 1.063-1.579 1.277-3.028-.214-.98-.64-1.363-1.578-1.918-.039 0-.55.211-.383.512.512.98-.554 2.813-1.023 4.305-1.664.511-3.2.597-5.883.937 0 .172-.426.215-.172.856 4.477 2.043 3.457.68 5.035.554-.94 3.664-3.5 2.684-4.734 5.243.168.34.043.808.555 1.148 2.043-.637 1.62.426 3.066 1.32.344.086.555 0 .602-.383.125-1.492.21-2.515.765-3.921 1.407-1.832 2.09-2.473 3.579-3.622m-6.051 6.137-.813-.3c-.082 0 .043 0-.039-.04l.168-.683c.344-.168.426-.383.766-.555.511.043-.082 1.024-.082 1.578"/></g></g><g clip-path="url(#Aw)" class="B"><g clip-path="url(#Ax)"><path d="M113.426 15.176c.172.254.258.34.386.297.555-.125.981.172 1.618.386-.211 1.02-1.364 1.66-1.235 2.938 0 .172.172.34.47.426.554-.168.765-.34 1.362-.555.043 0 .254.129.297.129-.254.64-.422 1.152-.851 2.004l-.082.3c-1.621-.769-1.454-2.988-4.567-3.027-.422.551 1.625.98 2.305 1.66.387.598.894 1.024 1.45 1.88l-.13.421c-1.277.899-2.683.645-3.367.43-.723.043-1.277.254-1.363.68.511.386 1.105.726 1.617.855s2.602-.555 3.797-1.281c.808 1.238.937 2.215 1.746 2.816.555.383 3.496 1.32 3.668.637.086-.383-.559-1.067-1.664-2.129-2.004-.645-2.64-1.281-2.98-2.262.593-.68 1.187-1.832 1.617-2.984l-.727-.98-.934-.426c.852-1.832 2.426-1.407 3.153-3.11-.301-.683-.254-.683-.387-1.324 1.75-4.387-.68-4.176-.766-4.133-.125.086-.296.426-.257.598s.257 1.832-.04 2.515c-.937 2.297-2.214 1.833-4.046 1.833-.09.554-.133.68-.258.976 0 .133.086.3.168.43"/></g></g><g clip-path="url(#Ay)" class="B"><g clip-path="url(#Az)"><path d="M136.656 24.297c.043-.043.215-.254.258-.297 1.066-.64 3.324.297 4.305-.77 1.023-2.683-.766-1.918-.13-3.07.852-1.492-.21-3.492-.382-3.492-.68.082-2.043 2.684-4.133 3.578-1.707-.168-3.496-.937-3.922-.512-.343.512.98 1.707 1.446 2.559-.766 1.406-1.278.809-2.766 3.027.211.723.082 1.067 1.023 2 1.489.473 2.215-1.742 3.11-2.554.168-.086.469-.598.98-.254 2.813 2.683-1.535 4.304-.382 7.203.214.082.554.082.765.172 4.602-1.196 1.664-6.61-.172-7.59"/></g></g><g clip-path="url(#BA)" class="B"><g clip-path="url(#BB)"><path d="m163.004 40.152.125-.257c.086-1.618-1.918-3.11-1.703-3.32l.082-.09c1.195-.04 2.008.769 3.496-.465.172-.899.254-1.45-.383-2.434-1.277-.766-2.047-.676-2.344-.89l-.683-1.239c-.598-.297-1.875.555-1.961.129-.04-.426.937-.297 1.281-1.406 0-.086-.215-.47-.215-.555-1.617-.172-4.73 2.344-3.027 4.008 0 .426 1.11-.215 1.277-.723.43-.898.77-.133 1.664-.898.086-.043.383-.125.469.043-1.621 1.53-.809 1.578-1.023 2.941-.598.383-1.746-.898-3.621-1.238-2.22-.723-3.325-.254-3.497-.508-.086-.129 1.024-.387 1.196-.941.168-.594-2.942.64-4.352 1.195l-.722 1.492c0 .426.085.637.253.938l.387.254c.852-.512 1.402-1.235 2.215-1.618 1.234-.64 3.793-.043 4.605.723-.726.555-1.453-.297-2.816.895-.043.343-.215.769-.168 1.152.68 1.324.598-1.278 4.477.512.125.382-.899.086-1.067-.211-.129-.258-.172.125-.387.297-.167.124-.296-.258-.55.042-.172.211.082.47.425.938-.128.125-.214.297-.343.426-2.09-.938-3.707-1.703-4.344-2.516-.344-.383-.77-.043-.898 0-.086 4.305 2.855 1.918 4.308 3.879-.344.344-1.453 1.406-2.18 1.79-.976.3-1.66-.556-2.765-1.278-.598-.34-1.024-.34-1.195-.043.343 1.152 1.152 1.832 1.664 3.027 1.488.809 3.492-1.406 5.242-2.941 0 0 1.023.851 1.234 1.363.344.215.254 0 .344.043.594-.637.68-.809.723-1.406-.086-1.11-1.536-1.32-1.024-1.832s1.492.043 2.344-.47c.64.216 1.238 1.15 1.789 1.876.172.426 1.113-.215 1.668-.684m-.602-6.902c.684-.129.899.254 1.536.426.214.168.386.297.511.511.043.465.172.211-.215.637-1.062.258-2.214.43-3.195.215 0-.086-.043-.172-.043-.297.43-.554.684-1.238 1.406-1.492m-2.554 4.473c-1.88-1.239-2.516-1.493-3.325-1.535 1.192-1.067 3.325-.043 3.582.257l1.575 1.875c-.086.426-.555-.21-1.832-.597"/></g></g><g clip-path="url(#BC)" class="B"><g clip-path="url(#BD)"><path d="M63.215 100.727c1.531.55 3.922.68 7.16.378v1.325c-1.195 0-2.344.597-3.285 1.406-1.445 1.152-2.895 2.43-3.79 4.262-.085.382 0 .726.169.894.172.09.64-.043.937-.383.258-.254.473-.722 1.11-1.449 2.687-3.195 3.964-3.11 4.687-3.195v2.937c-.98.172-2.344 1.368-3.324 2.559-1.11 1.621-1.406 2.219-1.875 3.2-.168.468-.809 2.94-.809 3.026-.086.254-.043.938.13 1.024a.95.95 0 0 0 .808-.129c.637-.812.808-2.215 1.148-3.113.469-1.192.77-2.043 2.133-3.453.555-.555 1.152-.934 1.875-1.067v3.371l.129 6.778c.172.34.426.468.684.382s.593-.171.722-.511c.172-1.535.086-3.88.086-6.864v-3.238c.555.168 2.047 1.067 3.578 3.88.387.722.942 3.112 1.024 3.323.258.344.511.47.683.383.297-.086.426-.297.426-.594.086-1.066-.34-2.816-1.234-4.265-.555-1.192-1.453-3.024-4.434-4.559v-3.113c.895.082 2.344.98 3.324 1.789 1.278 1.11 2.09 2.004 2.555 2.644.258.254.684.512.984.34.34-.168.47-.68.254-.937-.808-.895-2.43-2.856-3.836-3.836-1.152-.895-2.43-1.45-3.238-1.492v-1.578c.254 0 .469-.086.684-.125 3.363-.555 4.129-1.622 4.855-3.157.258-1.363-.512-2.77-2.3-4.218-1.536-1.067-3.497-1.665-5.965-1.832-.645 0-.942.21-.942.593.086.727.598 1.196 1.492 1.325 1.961 0 3.54.468 4.735 1.445 1.445 1.113 1.66 2.219.68 3.285-.641.555-1.665.98-3.114 1.195v-.601c.3-1.446-.168-3.153-1.363-3.621-1.363-.641-5.2-.852-7.543-.766-.426 0-.723.297-.813.852 0 .468.215.722.684.722 1.45-.086 4.86.047 6.309.512.726.172 1.023 1.664.937 3.027h-.129c-2.98.172-5.156.086-6.48-.254-.551-.086-.891.04-1.063.383-.086.465.086.852.555 1.11"/></g></g><g clip-path="url(#BE)" class="B"><g clip-path="url(#BF)"><path d="M92.328 103.922c-2.387-.43-4.86-.43-7.375 0-1.234.172-1.789.426-1.96 1.703-.173 2.004-.13 3.54.214 5.754.043.469.852.77 2.086.898v.254l-.594 2.77c-.09.469-.43 1.238-1.023 2.3-.301.555-.64.985-.64 1.157-.087.379.128.512.296.68.172.085.64.085 1.023-.215 1.45-1.703 2.262-4.004 2.43-6.903h3.367c.555 2.813 1.153 4.86 2.262 6.778.254.468.766.468.98.468.083 0 .34-.043.555-.171.254-.172-.172-.98-.472-1.407-.98-2.086-1.618-3.836-1.832-5.797 1.62-.171 1.96-.382 2.09-1.449.34-2.898.214-4.39 0-5.457-.044-.808-.512-1.234-1.407-1.363m-6.95 1.066c.642-.129 4.65-.43 6.438.04.809.214.598.683.809 1.238l-4.73-.215a31.03 31.03 0 0 0-3.454.215c.086-.684.301-1.149.938-1.278m6.308 5.836c-2.257.215-5.796.09-6.648-.039-.555 0-.34-.937-.512-.851.34-.215.555-.13 1.618-.215.472-.086 1.578-.086 1.875-.086.644 0 1.156-.086 2.347 0l2.086.086c.043.172.086.937-.512 1.105zm.899-2.129c-3.07-.168-5.969-.257-8.273 0 0 0-.254-1.191.042-1.234a36.864 36.864 0 0 1 3.153-.3c1.453-.044 4.394 0 5.078.343.039-.043 0 1.023 0 1.191"/></g></g><g clip-path="url(#BG)" class="B"><g clip-path="url(#BH)"><path d="M79.2 119.055c.382 0 .722-.297 1.023-.98.297-.895.507-2.173.765-3.54.344-1.96.344-2.344.64-5.543.259-3.238.169-5.965.044-8.863h.043c.297-.086.937-.129 1.105-.129.215.727.13 1.492.64 2.047.47.726.81.555 2.56.726l4.52-.09c1.491-.081 2.3-.296 2.683-.933.382-.645.511-1.156.593-1.879h.602c.297.086.465.129.594.129-.297 6.395.383 12.32 2.047 17.816.168.47.468.684.851.598.383-.168.512-.512.43-1.066-1.067-5.028-1.707-8.778-1.88-11.254-.296-4.047-.085-7.2.599-9.461 0 0 .68-1.45 0-1.961-.254-.211-.766-.344-1.746-.684a35.733 35.733 0 0 0-5.5-.98c-.297 0-.47-.082-.598-.254 0-.555-.211-1.024-.723-1.324-.3-.254-.555-.297-.851-.254-.301.086-.387.297-.301.597 0 .723-.426 1.153-1.278 1.325-2.09.082-4.05.422-5.753 1.105-1.153.297-1.454 1.067-.856 2.172.3.645.559 1.453.727 2.43.382 2.433.425 5.199.129 8.355-.172 2.813-.641 6.395-1.282 10.656-.21.727-.082 1.153.172 1.239m8.227-17.266h-.727c-.933 0-1.617 0-1.875-.469-.215-.254-.383-1.066-.383-1.402h3.028c0 .465.039 1.277-.043 1.871m-3.285-3.238v-.723c0-.469-.043-.855.64-1.066.301 0 1.067-.043 1.535-.13h1.024c.086.47.168 1.278.168 1.919H84.14zm7.761 2.386c0 .258-.215.598-1.152.723h-1.746v-1.875h3.027c-.047.387.082.387-.129 1.153m.426-2.387h-3.285v-1.875h1.152c.47.086 1.278.043 1.493.043.597.086.683.168.683.894zm-4.308-4.39c2.09-.087 4.222.257 5.968.722 1.325.3 1.496 1.152 1.282 2.137-.086.168-.297 1.53-.297 1.703-.387 0-.77-.043-1.157-.13 0-.468.133-1.706.133-1.831 0-.64-.984-.899-2.133-1.067-3.07-.254-5.586-.21-7.504.13-.98.171-1.746.21-1.874.937-.083.465.128 1.406.128 1.96h-1.023s-.383-2.214-.383-2.558c-.086-.469.215-.598.512-.812 0-.04 2.64-1.063 6.348-1.192"/></g></g><g clip-path="url(#BI)" class="B"><g clip-path="url(#BJ)"><path d="M118.457 97.188h.766c0 1.277.554 2.683 1.109 3.406.555.812 1.11.941 1.664 1.195v2.133c-.3 0-.43.082-1.195-.215-1.406-.555-1.961-2-2.813-4.344-.086-.258-.215-.386-.425-.386-.301 0-.13 0-.383.171-.47.297 0 1.832.082 2 .851 1.88 1.449 2.989 3.156 3.625.297.172 1.277.387 1.578.387v1.063h-2.133l-1.707.043c-.554 0-1.105.086-1.105.296-.172.473 0 .813.21.942.43.254.641.043 1.837.082l2.898-.04v1.106c-.77.086-1.836.77-2.43 1.407-.683.64-1.664 1.879-2.046 3.496s-.383 1.793-.47 3.238c-.085.387.087.941.47.941.554 0 .683-.554.765-.984.215-1.703.086-2.004.684-3.45.597-1.452 1.492-2.386 1.96-2.73.298-.257.766-.511 1.024-.554v2.898l.125 5.586c.043.637.3.98.555.98.3 0 .469-.343.597-.98.086-.64.13-1.75.13-3.281.085-1.067.085-3.965 0-5.114.382.082 1.574 0 2.855 3.364.469 1.277.851 3.367.64 2.433-.085-.726.254 1.278.254 1.36.086.258.301.383.598.383s.297-.082.383-.297c.172-.637.254-.809.043-1.79-.301-1.788-.938-4.132-1.79-5.113-.683-.898-2.175-1.664-2.945-1.75v-1.11c.684-.081 2.09-.124 3.329-.124.765-.086 1.195-.086 1.277-.512 0-.386-.04-.937-1.832-.812l-2.813.086v-1.063s1.45-.344 1.832-.683c1.918-1.282 2.387-3.157 2.344-4.903 0-.3-.254-.469-.555-.469-.378 0-.468.168-.55.47-.172 2.175-1.11 3.577-2.262 4.05-.297.168-.77.254-.977.254v-2.129c0-.09.68-.043 1.403-1.367.3-.555.726-1.703.894-3.238h.172c.172-.086.895-.043 1.024-.043.296 0 .808.043.98-.043.215-.13.215-.426.258-.641 0-.297-.09-.637-.3-.723-.13-.086-.47 0-.68 0l-7.633.043c-.684 0-1.32-.086-1.664-.043-.508 0-.852-.129-.852.13l-.125.593c0 .258.125.43.21.602.384.378.599.207 1.579.168m5.711 0c0 1.277-.297 2.343-.852 3.152-.214.344-.382.469-.597.469-.172 0-.766-.043-1.063-.34-.855-.895-1.023-2.086-1.11-3.281zm0 0"/></g></g><g clip-path="url(#BK)" class="B"><g clip-path="url(#BL)"><path d="M136.02 104.816c.257.301-.043.895-.301 1.067-.34.086-.555-.086-.766-.344-.383-.422-.512-.594-1.32-1.617-.215-.258-.512-.598-.598-.598l-.125.34c-.09.941.04 2.898.38 6.863.17 1.024.343 2.22 1.023 4.606l.511 1.578c.086.34.172.21.34.809l.344.894c.086.297-.043.512-.387.598-.34 0-.851-.766-1.023-1.196-1.02-2.3-1.489-3.707-1.79-5.582-.253-1.707-.593-3.964-.722-8.058v-2.856c0-.215.086-.382.258-.468s.34-.043.511.128c.68.555 2.172 2.133 3.665 3.836"/></g></g><g clip-path="url(#BM)" class="B"><g clip-path="url(#BN)"><path d="M117.902 93.734c.043.254 2.086.215 2.473.215l5.113-.043c.684 0 1.067-.258 1.153-.726 0-.426-.34-.64-.98-.727h-6.864c-.55-.082-.938.555-.938.555-.168.344.043.726.043.726"/></g></g><g clip-path="url(#BO)" class="B"><g clip-path="url(#BP)"><path d="M128.344 94.543c-.04 1.11 1.535.941 2.09.898.64-.046 1.238 0 3.199 0 .808 0 .765-.343.894 1.149.125.98-.214 2.09-1.152 2.133-2.727.129-3.621-.215-4.176.129-.722.464-.3 2.554-.21 3.277.167 1.11.378 14.195.378 14.285 0 .125.172 2.555.344 2.684.555.425.723-.301.723-.555.343-1.961-.125-9.676-.168-17.18 0-.554.086-1.234.425-1.32.512-.172 1.235-.215 2.13-.125h.257c.938-.09 2.043.039 2.3-.43.642-.726.388-2.941.34-3.922-.085-1.148-.679-1.406-1.62-1.406-2.766 0-1.914.086-3.493 0-.382 0-.726-.043-.98-.254-.172-.258-.043-.898 0-1.832 0-.344-1.023-.386-1.238.04-.211.64 0 1.702-.043 2.429"/></g></g><g clip-path="url(#BQ)" class="B"><g clip-path="url(#BR)"><path d="M105.625 104.262h3.54c1.362-.086 2.644-.383 3.026-1.875.641-2.047.34-5.754.211-7.887-.082-1.617-1.066-2.172-1.832-2.172-1.918-.598-3.836-.64-5.922-.215-1.367.086-2.261.64-2.476 2.215-.465 2.262-.211 6.524.215 8.313.297 1.066 1.707 1.453 3.238 1.62m.086-1.234c-2.344-.215-1.746-2.558-1.746-2.73l6.992-.043s.211 2.387-1.281 2.644c0 0-1.75.297-3.965.13m-2.129-7.419c.254-1.535.512-1.703 1.79-2.132 1.362-.254 2.644-.297 4.007 0 .808.257 1.32.257 1.492 1.496v.765l-7.246.125zm0 1.618c2.258-.168 4.856-.207 7.375-.125v1.62l-7.375.04zm0 0"/></g></g><g clip-path="url(#BS)" class="B"><g clip-path="url(#BT)"><path d="m110.445 105.797-2.261-.086.086 3.668.257 9.59c.082.722.297.597.68.554.387-.085.555-.468.555-1.195l-.168-8.437c1.531-.086 2.98.765 3.277 2.129.645 2.046.555 3.882.684 5.968.043.723.468.98.812.809.254.086.551-.172.551-1.024 0-2.425-.125-4.472-.684-6.093-.55-2.133-2.511-3.243-4.687-3.243l-.043-1.363 2.09-.172c1.789 0 3.453-.55 3.879-2.765.172-1.496.386-7.461.386-8.953 0-.938.082-2.473-.09-2.813-.082-.258-.593-.387-.765-.387-.168.09-.469.258-.555.43s-.082.684-.082 1.45c0 2.769-.215 9.843-.472 10.57-.47 1.277-2.426 1.148-3.45 1.363"/></g></g><g clip-path="url(#BU)" class="B"><g clip-path="url(#BV)"><path d="m104.219 105.797 2.261-.086-.085 3.668-.13 9.289c-.081.727-.425.898-.808.855-.34-.085-.555-.468-.555-1.195l.168-8.437c-1.53-.086-2.98.765-3.28 2.129-.642 2.046-.552 3.882-.685 5.968-.039.723-.468.98-.808.809-.254.086-.55-.172-.55-1.024 0-2.425.124-4.472.679-6.093.554-2.133 2.515-3.243 4.691-3.243l.043-1.363h-1.496c-1.832 0-4.004-.722-4.473-2.937-.171-1.496-.386-7.418-.386-8.953 0-.938-.082-2.473.09-2.77.082-.258.593-.43.765-.43.168.09.512.047.594.172.086.172.086.64.086 1.45 0 2.73.215 9.847.469 10.57.468 1.363 2.515 1.793 3.41 1.62"/></g></g><g clip-path="url(#BW)" class="B"><g clip-path="url(#BX)"><path d="m66.324 81.754 66.668-.168.34-3.11H66.07zm0 0"/></g></g><g clip-path="url(#BY)" class="B"><g clip-path="url(#BZ)"><path d="m147.871 81.754 3.535-24.55s-2.984-4.43-9.422-4.43c-5.199 0-7.16 1.617-9.547 4.94l-2.214 13.942s5.41 2.254 6.945-4.18c.473-1.917 1.918-8.949 1.918-8.949s.512-.898 2.133-.77c1.918.13 2.644.895 2.644.895l-1.62 11.551h-84.83l-1.574-11.55s.722-.727 2.64-.852c1.625-.13 2.09.77 2.09.77l1.922 9.288c1.278 6.524 6.946 4.176 6.946 4.176l-2.215-14.234c-2.344-3.285-4.309-4.946-9.508-4.946-6.438 0-9.422 4.434-9.422 4.434l3.496 24.555 7.887.043.297 3.707-7.758-.043 2.855 39.383c.512 4.433 4.309 5.246 5.801 5.418h2.215v2.214h-5.84l.043 7.973c0 4.473 4.09 4.813 5.715 4.813l-.047 9.675c0 4.223 3.54 4.352 3.54 4.352l17.944.043.043-26.004c0-1.191 1.407-4.176 6.18-4.176h18.328c4.778 0 6.184 2.985 6.184 4.176l.043 26.004 17.945-.043s3.535-.129 3.535-4.352l-.043-9.675c1.621 0 5.715-.34 5.758-4.813-.043-2.601.04-7.973.04-7.973h-5.88c0-1.789-.043-2.214-.043-2.214h1.79c1.492-.172 5.753-.985 6.265-5.418.766-6.477 2.855-39.383 2.855-39.383l-7.754.043.254-3.707zm-69.055 72.082-6.738.043s-1.488.043-1.488-1.32v-24.426h8.226zm50.297-1.32c0 1.363-1.492 1.32-1.492 1.32l-6.691-.043V128.09h8.183v24.426m11.168-63.727-1.875 31.2c-.426 3.41-5.37 3.624-6.82 3.624H68.074c-1.492 0-6.394-.215-6.82-3.625s-1.875-31.199-1.875-31.199zm-4.773-10.312-.426 6.988h-70.46l-.427-6.988h-5.5l-.468-3.07h83.293l-.258 3.07zm0 0"/></g></g><g clip-path="url(#Ba)" class="B"><g clip-path="url(#Bb)"><path d="M100 173.742c-40.664 0-73.7-33.078-73.7-73.742S59.38 26.258 100 26.258c40.664 0 73.742 33.078 73.742 73.742-.043 40.664-33.078 73.742-73.742 73.742m0-145.738c-39.688 0-71.953 32.308-71.953 71.996S60.313 171.953 100 171.953s71.953-32.266 71.953-71.953S139.687 28.004 100 28.004"/></g></g><g clip-path="url(#Bc)" class="B"><path d="M101.832 0C46.632-1.023 1.066 42.883.043 98.125c-1.023 55.2 42.883 100.809 98.082 101.832s100.77-42.922 101.793-98.125C200.98 46.632 157.074 1.023 101.832 0m-3.707 195.781c-52.855-.98-94.844-44.633-93.906-97.441.98-52.856 44.586-94.887 97.398-93.906 52.817.98 94.844 44.629 93.867 97.441-.941 52.855-44.547 94.887-97.359 93.906"/></g></svg>