<svg xmlns="http://www.w3.org/2000/svg" width="189.024" height="189.024" viewBox="0 0 141.732 141.732" color-interpolation-filters="sRGB" fill="#034ea1" fill-rule="evenodd" overflow="visible" stroke-linecap="square" stroke-miterlimit="3"><path d="M70.868 30.371c22.36 0 40.49 18.13 40.49 40.49s-18.13 40.5-40.49 40.5-40.5-18.14-40.5-40.5 18.14-40.49 40.5-40.49zm29.01 80.41c-8.72 6.34-19.74 7.25-29.01 3.36-9.27 3.89-20.28 2.98-29.01-3.35-8.72-6.34-12.99-16.54-12.15-26.55-6.57-7.62-9.11-18.37-5.78-28.63 3.34-10.25 11.71-17.46 21.5-19.77 5.21-8.59 14.65-14.33 25.44-14.33 10.78 0 20.22 5.74 25.44 14.33 9.78 2.3 18.16 9.51 21.5 19.77 3.33 10.25.78 21.01-5.78 28.62.84 10.02-3.43 20.22-12.15 26.55zM64.591 65.763c0 .42.11.74.33.98.204.233.5.365.81.36s.57-.12.78-.35c.21-.22.31-.55.31-.98a1.28 1.28 0 0 0-.31-.9 1.04 1.04 0 0 0-.8-.34c-.38 0-.66.13-.84.38-.19.27-.28.54-.28.85zm.14-3.43a.957.957 0 0 0 .258.714.94.94 0 0 0 .692.258.95.95 0 0 0 .699-.258.97.97 0 0 0 .258-.718.93.93 0 0 0-.941-.948.96.96 0 0 0-.705.258.94.94 0 0 0-.261.694zm-.31 1.55a1.78 1.78 0 0 1-.87-.69 1.8 1.8 0 0 1-.26-.97c0-.59.2-1.08.62-1.47.41-.39 1-.59 1.77-.59.76 0 1.35.2 1.77.59.42.38.63.88.63 1.47a1.77 1.77 0 0 1-.29.99c-.199.297-.481.53-.81.67.44.17.78.43 1.01.77.23.35.35.74.35 1.19 0 .73-.24 1.33-.71 1.79-.47.47-1.1.7-1.88.7-.73 0-1.33-.19-1.81-.57-.57-.46-.86-1.08-.86-1.86a2.33 2.33 0 0 1 .32-1.19c.22-.36.56-.64 1.02-.84v.01zm-8.12 2.25 1.52-.16c.028.311.166.602.39.82a1.04 1.04 0 0 0 .793.305c.296-.016.571-.155.757-.385.22-.26.34-.65.34-1.18 0-.49-.11-.85-.34-1.1a1.095 1.095 0 0 0-.85-.37c-.44 0-.83.2-1.18.59l-1.25-.19.79-4.16h4.05v1.44h-2.89l-.24 1.36a2.3 2.3 0 0 1 1.05-.26 2.29 2.29 0 0 1 1.72.74c.48.5.71 1.14.71 1.93 0 .66-.19 1.24-.57 1.76-.52.71-1.24 1.05-2.16 1.05-.74 0-1.34-.19-1.81-.58a2.44 2.44 0 0 1-.83-1.61zm-3.35-3.13c0-.5-.11-.88-.34-1.15-.23-.28-.49-.41-.79-.41a.88.88 0 0 0-.709.331c-.181.229-.281.599-.281 1.099 0 .52.1.9.3 1.14.21.24.46.36.77.36a.955.955 0 0 0 .745-.35c.205-.23.305-.57.305-1.02zm-3.47 3.35 1.48-.17c.04.3.13.53.29.67a.847.847 0 0 0 .604.215c.316.005.576-.145.806-.435.22-.29.36-.89.42-1.81a1.82 1.82 0 0 1-1.44.67c-.63 0-1.18-.24-1.63-.72-.46-.49-.68-1.12-.68-1.9 0-.81.23-1.46.72-1.96.48-.5 1.09-.74 1.84-.74.81 0 1.47.31 1.99.94.52.62.79 1.65.79 3.09 0 1.46-.28 2.51-.81 3.16-.55.65-1.26.97-2.12.97-.63 0-1.13-.16-1.52-.49-.38-.34-.63-.84-.74-1.5v.01zm-2.94 1.84h-1.53v-5.78a5.243 5.243 0 0 1-1.98 1.16v-1.39a4.437 4.437 0 0 0 1.3-.74c.47-.37.79-.79.97-1.28h1.24v8.03zM70.87 2.53c24.69 0 46.33 13.1 58.34 32.74a67.996 67.996 0 0 1 9.99 35.59c0 37.74-30.6 68.34-68.33 68.34-37.74 0-68.34-30.6-68.34-68.34 0-37.73 30.6-68.33 68.34-68.33zm0-2.53c39.13 0 70.86 31.73 70.86 70.86S110 141.73 70.87 141.73C31.73 141.73 0 109.99 0 70.86S31.73 0 70.87 0z"/><path d="m131.233 72.844-1.61-.03c.16.48.29.81.41.99.2.31.46.48.78.49.51 0 .77-.22.77-.67.01-.22-.11-.49-.35-.78zm.46-1.47.3.37c.11.15.16.3.16.44-.01.37-.24.58-.71.63a3.6 3.6 0 0 1 .48.7c.13.26.2.46.2.62a.991.991 0 0 1-.287.69.845.845 0 0 1-.652.287c-.541-.017-.961-.327-1.251-.937a10.4 10.4 0 0 1-.54-1.36h-.34c-.66-.02-1 .18-1.01.58-.01.46.12.69.38.7.053 0 .107-.003.16-.01a1.61 1.61 0 0 1 .2-.01c.12 0 .22.04.31.12a.37.37 0 0 1 .129.298.427.427 0 0 1-.105.295.33.33 0 0 1-.248.105c-.335-.008-.595-.178-.795-.518a1.854 1.854 0 0 1-.24-.98c.01-.49.11-.84.31-1.04.22-.23.59-.33 1.12-.32l2.02.03c.24 0 .36-.07.36-.21.01-.11-.06-.26-.18-.45l.23-.03zm.22 4.57-.24 1.93-.13-.02c.05-.38-.12-.6-.51-.64l-2.3-.29c-.22-.02-.4.02-.53.14a.73.73 0 0 0-.234.468c-.046.332.094.692.404 1.062l2.45.3c.39.05.61-.12.66-.5l.13.02-.24 1.92-.13-.01c.05-.39-.12-.6-.51-.65l-2.47-.31c-.2-.02-.33 0-.39.08-.06.07-.1.22-.12.44l-.13-.01-.26-1.4.75.09c-.45-.48-.64-.98-.58-1.51.09-.7.59-.99 1.51-.88l2.08.26c.39.04.61-.12.66-.5l.13.01zm-.76 5.07-.38 2.14-.13-.02c.08-.46-.07-.72-.45-.79l-2.43-.42c-.31-.06-.49.03-.53.26-.014.116-.011.235.01.35l-.14-.02-.22-1.54 3.44.61c.39.06.62-.13.7-.59l.13.02zm-5.82-.32a.44.44 0 0 1 .302.197c.058.103.088.223.058.353-.018.121-.084.23-.184.3s-.206.1-.346.07a.474.474 0 0 1-.313-.184.43.43 0 0 1-.077-.35.474.474 0 0 1 .552-.392l.008.006zm5.28 3.27-.5 1.88-.12-.04c.1-.37-.04-.61-.42-.71l-2.08-.55c-.55-.15-.88 0-1 .44-.1.35-.01.72.26 1.11l2.38.64c.38.1.61-.03.72-.4l.12.03-.5 1.87-.13-.03c.1-.37-.03-.61-.41-.71l-4.39-1.18c-.2-.06-.34-.05-.4.02-.04.03-.09.18-.16.43l-.16-.05-.04-1.41 2.7.72c-.37-.53-.5-1.02-.38-1.48.2-.74.75-.99 1.65-.75l2.02.54c.38.11.62-.03.72-.4l.13.03h-.01zm-2.18 4.68c.46.91.52 1.81.17 2.72-.34.88-.9 1.48-1.68 1.79-.75.29-1.54.27-2.38-.05a3.15 3.15 0 0 1-1.79-1.62 2.91 2.91 0 0 1-.07-2.38 4 4 0 0 1 .55-.98c.25-.3.38-.48.39-.52.07-.15 0-.3-.19-.45l.07-.19 1.97.67-.08.22a2.142 2.142 0 0 0-1.41.21c-.42.23-.72.58-.9 1.06-.25.64-.19 1.24.18 1.79.34.51.9.92 1.67 1.21.74.29 1.43.34 2.05.16s1.05-.58 1.29-1.2c.2-.52.26-1.03.18-1.52a3.7 3.7 0 0 0-.26-.84l.24-.09v.01zm-5.86 11.16c-.53-.3-1.02-.46-1.45-.48-.54-.03-.92.16-1.15.57a.85.85 0 0 0 .018.884c.152.276.422.516.802.726.51.28 1 .44 1.47.47.54.04.91-.13 1.12-.5.18-.33.16-.66-.06-1a2.06 2.06 0 0 0-.75-.67zm.09-.92c.53.33.89.78 1.05 1.32.17.55.1 1.07-.19 1.58a1.82 1.82 0 0 1-1.22.89 2.18 2.18 0 0 1-1.6-.25c-.54-.3-.9-.7-1.07-1.2-.19-.52-.13-1.06.18-1.61.3-.55.71-.89 1.25-1.02.53-.14 1.06-.04 1.6.29zm-4.87 4.39c-.05.07-.06.19-.01.37.037.133.09.261.16.38l2.2 3.65c.53.87.61 1.53.26 1.98-.28.36-.57.41-.88.17-.08-.06-.12-.16-.1-.29a.58.58 0 0 1 .121-.289 1.47 1.47 0 0 1 .329-.241.678.678 0 0 0 .202-.175c.178-.225-.012-.735-.582-1.525l-3.47-.8a1.63 1.63 0 0 0-.47-.07c-.11 0-.23.07-.36.18l-.1-.08 1.16-1.49.11.07c-.23.29-.28.48-.15.59.07.05.16.09.28.12l2.56.61-1.32-2.06a1.78 1.78 0 0 0-.25-.33c-.04-.03-.11-.04-.19-.01a.605.605 0 0 0-.258.212l-.102-.072.76-.98.11.08h-.01zm.19 7.11c-.18-.15-.42-.11-.7.12-.14.11-.38.37-.71.76a5.29 5.29 0 0 1-.75.75c.05.43.15.72.32.85.33.29.79.08 1.37-.61.36-.42.57-.81.63-1.18.06-.32.01-.55-.16-.69zm-3-1.26a2.11 2.11 0 0 0-.9-.46c-.37-.07-.64 0-.83.22-.15.19-.2.38-.14.58a1.07 1.07 0 0 0 .4.55c.3.23.6.39.89.45.35.07.62-.01.82-.24.29-.35.21-.72-.24-1.11v.01zm.01-1.68-.49.58c.23.04.46.16.69.35.33.28.51.61.53.99s-.11.74-.4 1.09c-.11.13-.23.24-.36.34-.06.39-.02.63.12.75s.46-.11.95-.69c.47-.56.85-.9 1.14-1 .27-.09.56-.01.86.24.31.27.42.7.32 1.29a3.19 3.19 0 0 1-.72 1.53c-.31.38-.66.61-1.05.68-.31.07-.54.04-.7-.09-.13-.12-.2-.31-.2-.59l-.02-.79a.868.868 0 0 1-.363.14c-.137.02-.237 0-.297-.06-.15-.12-.23-.31-.26-.58a4.54 4.54 0 0 1 .02-.7c-.56.28-1.07.24-1.51-.14a1.375 1.375 0 0 1-.51-1.01c-.03-.42.12-.82.44-1.2.14-.17.35-.33.64-.49s.47-.3.56-.41l.34-.46.27.23zm-2.41 5.44c-.43-.43-.85-.73-1.26-.88-.5-.19-.92-.12-1.26.21a.837.837 0 0 0-.243.847c.073.313.253.623.553.933.41.42.84.72 1.27.88.51.19.92.14 1.22-.16.27-.25.35-.58.24-.97a2.1 2.1 0 0 0-.52-.86zm.35-.85a2.3 2.3 0 0 1 .62 1.57c0 .57-.21 1.06-.64 1.45a1.83 1.83 0 0 1-1.44.5c-.55-.04-1.03-.28-1.45-.71-.43-.45-.66-.93-.68-1.46-.02-.55.19-1.05.65-1.49.44-.43.94-.64 1.49-.61s1.03.27 1.45.75zm-2.25 4.77-1.66 1.44-.08-.1c.36-.32.41-.62.15-.91l-3.01-3.46c-.11-.12-.2-.19-.29-.2-.08-.01-.17.03-.29.13l-.22.22-.09-.1a28 28 0 0 0 .84-1.3l3.65 4.2c.26.29.56.29.91-.02l.09.1zm-4.03 1.17c-.36-.5-.73-.84-1.11-1.05-.47-.25-.9-.24-1.28.03a.85.85 0 0 0-.359.806c.019.314.159.654.419 1.004.35.47.72.83 1.14 1.05.47.26.88.26 1.22.01.31-.22.43-.52.38-.92a2.066 2.066 0 0 0-.41-.93zm.47-.8c.35.54.48 1.08.4 1.65-.08.56-.36 1.01-.84 1.34a1.83 1.83 0 0 1-1.49.3 2.21 2.21 0 0 1-1.34-.91c-.36-.5-.52-1.01-.47-1.53.06-.55.33-1.02.85-1.39.5-.36 1.02-.5 1.56-.4s.99.42 1.33.94zm-2.7 4.54-1.67.97-.07-.11c.34-.2.41-.46.21-.8l-1.16-2.01c-.11-.19-.25-.31-.42-.34a.71.71 0 0 0-.515.092c-.295.168-.495.488-.605.968l1.23 2.14c.2.34.46.41.79.22l.07.11-1.68.97-.06-.11c.33-.19.4-.46.2-.8l-1.24-2.15c-.1-.18-.2-.26-.29-.27-.1-.01-.24.05-.43.17l-.07-.11.96-1.05.38.65c.11-.64.4-1.1.85-1.36.61-.35 1.15-.13 1.61.68l1.05 1.82c.2.33.46.41.8.22l.06.11v-.01zm-4.42 2.53-1.71.91-.06-.12c.34-.18.42-.44.23-.78l-1-1.9c-.27-.51-.61-.65-1.01-.43-.32.16-.54.49-.64.95l1.15 2.17c.19.35.45.43.79.25l.06.11-1.71.91-.06-.11c.34-.19.42-.45.24-.79l-2.14-4.01c-.1-.19-.19-.28-.28-.28-.06 0-.21.05-.43.17l-.08-.14 1.01-1 1.31 2.47c.14-.64.41-1.06.83-1.29.68-.36 1.23-.13 1.67.7l.98 1.84c.19.35.45.44.79.26l.06.11zm-5.24 1c-.04.51-.13.91-.26 1.18a1.53 1.53 0 0 1-.85.83 1.583 1.583 0 0 1-1.34-.05c-.48-.23-.84-.64-1.08-1.23-.23-.59-.26-1.15-.07-1.68s.58-.91 1.16-1.14c.311-.137.657-.175.99-.11.32.08.52.22.61.44a.38.38 0 0 1-.006.307.4.4 0 0 1-.23.221.369.369 0 0 1-.324-.009.39.39 0 0 1-.214-.208.62.62 0 0 0-.339-.355.67.67 0 0 0-.503.011 1.08 1.08 0 0 0-.706.923c-.04.34.01.68.15 1.02.18.45.47.79.85 1.01.38.24.75.28 1.12.13.46-.19.76-.62.89-1.31l.15.02zm-5.57.57c-.29-.64-.68-.88-1.18-.71-.56.19-.77.64-.63 1.33l1.8-.62h.01zm1.49.94c.03.44-.08.87-.33 1.27a1.81 1.81 0 0 1-.95.81c-.44.157-.926.113-1.33-.12-.48-.25-.82-.69-1.04-1.32-.2-.59-.21-1.14-.01-1.64a1.673 1.673 0 0 1 1.07-1.02c.47-.16.89-.14 1.27.07.39.21.66.54.81.98l-2.69.93c.18.54.47.95.87 1.22.39.27.78.34 1.17.2a1.37 1.37 0 0 0 .7-.58 1.67 1.67 0 0 0 .3-.81l.16.01zm-4.86-1.71-.21.05c-.22-.43-.37-.67-.44-.74-.21-.2-.51-.25-.92-.16l-.82.19 1.1 4.78c.09.4.43.54 1.01.4l.05.17-2.67.62-.04-.17c.58-.14.83-.41.74-.81l-1.11-4.78-.71.17c-.47.1-.75.29-.86.55-.05.12-.08.41-.07.87l-.21.05-.3-1.54 5.06-1.16.4 1.51zm-8.08 5.25-.17-1.96a1.04 1.04 0 0 0-.32-.72.85.85 0 0 0-.668-.221c-.382.031-.672.241-.852.621a2.22 2.22 0 0 0-.17 1.18c.04.53.19.97.43 1.3.24.36.54.52.9.48.24-.01.42-.07.55-.17a1.08 1.08 0 0 0 .31-.51h-.01zm1.44.4c-.44.17-.88.39-1.34.65l-.06-.66c-.248.449-.708.74-1.22.77a1.41 1.41 0 0 1-1.06-.36c-.41-.35-.64-.86-.71-1.55a2.44 2.44 0 0 1 .43-1.63c.34-.48.78-.75 1.33-.8.4-.03.72.07.95.31l-.13-1.47c-.02-.21-.08-.33-.17-.35a2.46 2.46 0 0 0-.46.01l-.02-.18c.28-.08.72-.26 1.34-.52l.46 5.31c.02.19.08.3.17.33.06.03.22.03.48 0l.01.14zm-5.01.74-1.94.07v-.13c.39-.01.57-.22.56-.6l-.08-2.32c-.01-.23-.08-.39-.22-.51a.71.71 0 0 0-.497-.155c-.333.015-.663.205-.993.575l.09 2.47c.01.39.21.57.6.56v.13l-1.93.07-.01-.13c.39-.01.57-.22.56-.61l-.09-2.49c0-.19-.05-.32-.13-.37s-.24-.07-.46-.05l-.01-.13 1.35-.47.02.75c.41-.52.87-.79 1.4-.81.7-.02 1.07.43 1.11 1.37l.07 2.09c.01.39.21.58.6.57v.12zm-6.37-.8.13-1.6c-.347.08-.685.194-1.01.34-.33.18-.51.43-.54.74-.04.51.16.79.6.82.23.02.51-.08.81-.3h.01zm1.43.57-.39.27a.7.7 0 0 1-.442.129c-.378-.029-.578-.279-.588-.749-.22.16-.46.31-.73.43a1.463 1.463 0 0 1-.63.15 1.01 1.01 0 0 1-.67-.33.87.87 0 0 1-.239-.674c.049-.536.389-.926 1.019-1.176.42-.18.89-.32 1.39-.44l.03-.34c.06-.67-.11-1.02-.51-1.05-.46-.04-.7.06-.72.32a1.02 1.02 0 0 0 0 .16c.004.07 0 .14-.01.21a.44.44 0 0 1-.144.295.39.39 0 0 1-.307.11.42.42 0 0 1-.283-.125.341.341 0 0 1-.092-.258c.026-.332.216-.582.576-.762.3-.14.63-.2.99-.17.49.04.83.17 1.02.38.2.24.28.62.24 1.14l-.18 2.02c-.02.24.04.36.19.37.11.01.26-.04.46-.15l.02.23v.01zm-7.13-3.15c.07-.7-.15-1.1-.67-1.2-.58-.12-.98.16-1.21.84l1.88.36zm.81 1.56c-.19.4-.49.71-.91.94a1.8 1.8 0 0 1-1.23.22 1.59 1.59 0 0 1-1.09-.76c-.29-.46-.37-1.01-.24-1.67.12-.61.39-1.08.81-1.42.4-.333.932-.462 1.44-.35.48.1.84.33 1.06.7.23.37.3.79.21 1.25l-2.8-.54c-.11.56-.06 1.06.15 1.49s.51.69.91.77c.29.05.59 0 .9-.16a1.64 1.64 0 0 0 .66-.55l.13.09v-.01zm-4.51-.79c-.34.39-.64.67-.9.82-.37.22-.75.29-1.17.19a1.57 1.57 0 0 1-1.07-.81c-.26-.46-.32-1-.17-1.62.14-.62.44-1.1.9-1.42.45-.32.99-.41 1.61-.27a1.62 1.62 0 0 1 .86.49c.22.24.3.47.25.7-.022.106-.088.197-.18.252s-.206.076-.313.05-.207-.094-.261-.193a.401.401 0 0 1-.05-.295.61.61 0 0 0-.077-.484.643.643 0 0 0-.416-.283 1.08 1.08 0 0 0-1.112.353c-.22.25-.38.56-.46.92-.11.47-.07.91.11 1.32.18.4.47.65.85.74.49.11.98-.08 1.49-.56l.1.1h.01zm-4.52.38-1.83-.63.04-.12c.37.12.61 0 .74-.37l.75-2.19c.08-.21.07-.4-.01-.55a.71.71 0 0 0-.41-.322c-.32-.118-.7-.058-1.13.172l-.81 2.34c-.13.36-.01.61.36.74l-.04.12-1.84-.63.04-.12c.37.12.62 0 .74-.37l.81-2.35c.07-.19.07-.32.01-.4-.05-.07-.19-.15-.41-.21l.04-.12 1.43.03-.25.72c.57-.34 1.1-.42 1.6-.25.66.23.84.78.54 1.66l-.68 1.98c-.13.38-.01.63.36.75l-.05.12zm-4.9-4.8c.21-.68.07-1.11-.42-1.31-.55-.22-1-.03-1.35.59l1.77.72zm.5 1.69c-.26.35-.62.59-1.07.74-.405.145-.85.138-1.25-.02a1.585 1.585 0 0 1-.93-.95c-.19-.51-.16-1.07.09-1.69.23-.58.58-.99 1.06-1.24a1.688 1.688 0 0 1 1.48-.07c.46.19.76.48.92.89a1.7 1.7 0 0 1-.04 1.27l-2.64-1.07c-.22.54-.27 1.04-.14 1.5.12.46.37.77.75.92.27.11.57.12.91.02a1.64 1.64 0 0 0 .75-.42l.11.12zm-4.66-.36-1.92-1.02.06-.12c.41.22.7.15.89-.19l1.15-2.17c.15-.29.12-.48-.08-.59a1.07 1.07 0 0 0-.34-.1l.06-.12 1.54.26-1.64 3.09c-.18.35-.07.63.34.84l-.06.12zm2.1-5.44a.42.42 0 0 1-.276.23.483.483 0 0 1-.359-.046.441.441 0 0 1-.192-.62.47.47 0 0 1 .276-.239.43.43 0 0 1 .355.029.487.487 0 0 1 .239.28.49.49 0 0 1-.044.366zm-4.23 2.83c-.44.27-.8.45-1.1.52-.4.107-.826.045-1.18-.17a1.57 1.57 0 0 1-.78-1.08c-.11-.52-.01-1.05.31-1.6.32-.56.74-.92 1.27-1.09s1.07-.1 1.62.21c.32.18.55.42.68.72.14.29.15.54.04.74a.378.378 0 0 1-.248.184.395.395 0 0 1-.313-.042.394.394 0 0 1-.195-.263.42.42 0 0 1 .037-.295c.09-.145.115-.322.068-.486s-.163-.308-.317-.39a1.075 1.075 0 0 0-1.162.012 2.044 2.044 0 0 0-.71.75 2.027 2.027 0 0 0-.28 1.29c.06.44.25.76.59.96.44.25.97.22 1.59-.1l.08.12v.01zm-3.9-2.62c-.33.46-.76.71-1.28.73-.46.03-.9-.12-1.35-.44-.18-.13-.37-.33-.56-.59a2.748 2.748 0 0 0-.41-.49c-.12-.09-.25-.06-.4.09l-.16-.12.94-1.76.16.12c-.32 1.1-.13 1.91.58 2.43a1.14 1.14 0 0 0 .74.23.91.91 0 0 0 .744-.401c.296-.419.306-.959.006-1.629l-.41-.93c-.34-.78-.34-1.42.02-1.91.28-.38.63-.6 1.05-.66a1.64 1.64 0 0 1 1.21.34c.22.16.4.36.56.59.14.23.26.38.34.44.11.08.24.05.41-.08l.16.11-.99 1.71-.17-.13c.34-1.05.18-1.82-.47-2.3a.95.95 0 0 0-.663-.191.793.793 0 0 0-.598.368c-.139.193-.189.443-.139.753.04.17.14.46.3.85l.39.97c.33.8.33 1.44-.02 1.9h.01zm-2.39-6.72a.387.387 0 0 1-.25.129.315.315 0 0 1-.269-.064c-.141-.114-.191-.244-.161-.394l.07-.43a.389.389 0 0 0-.153-.289c-.257-.231-.547-.161-.867.199l-.77.89.84.72-.19.23-.84-.73-2.04 2.34c-.25.3-.17.63.27 1.01l-.08.1-1.81-1.58.08-.1c.38.34.7.35.95.06l2.04-2.35-.57-.49.19-.22.57.49.19-.21c.38-.45.81-.69 1.25-.75.436-.048.871.099 1.19.4.22.19.35.39.41.61.04.19.02.33-.06.43h.01zm-6.4-.29c.42-.44.71-.87.84-1.28.17-.52.09-.93-.25-1.26a.86.86 0 0 0-.856-.214c-.314.084-.614.274-.914.584a3.52 3.52 0 0 0-.84 1.31c-.17.51-.11.91.2 1.2.27.27.59.34.97.21.3-.1.58-.28.85-.55zm.86.32a2.3 2.3 0 0 1-1.54.67 1.899 1.899 0 0 1-1.48-.59 1.82 1.82 0 0 1-.54-1.41c.02-.55.24-1.05.65-1.48.43-.44.91-.69 1.43-.73.55-.04 1.06.16 1.52.59.44.44.67.93.66 1.48s-.24 1.03-.7 1.47zm-3.01-5.76c-.05-.07-.17-.1-.35-.1a1.9 1.9 0 0 0-.41.07l-4.08 1.25c-.96.29-1.62.22-1.98-.23-.27-.36-.26-.65.05-.89.08-.07.19-.08.31-.04.1.04.18.11.25.19.07.118.12.246.15.38a.9.9 0 0 0 .12.24c.18.23.73.17 1.63-.2l1.61-3.17c.12-.22.18-.37.19-.44.02-.11-.02-.24-.09-.4l.1-.08 1.16 1.49-.1.09c-.22-.29-.4-.38-.53-.28a.81.81 0 0 0-.188.239l-1.212 2.331 2.32-.78a1.51 1.51 0 0 0 .38-.16c.05-.03.07-.1.05-.18a.572.572 0 0 0-.142-.304l.112-.086.76.98-.1.08h-.01zm-5.58-1.73a2.783 2.783 0 0 1-.74-.14 1.186 1.186 0 0 1-.53-.43c-.28-.39-.14-.77.4-1.15l2.4-1.68-.28-.39c-.02-.03-.01-.05.02-.08s.06-.03.08-.03c.31.15.87.24 1.67.27h.19l-1 .7.52.75-.23.16-.53-.74-2.19 1.53c-.42.29-.55.55-.39.77.1.15.31.25.62.3l-.01.15v.01zm-2.35-2.3-1.16-1.84.11-.07c.25.4.54.49.87.28l2.09-1.31c.27-.16.34-.34.22-.54a1.164 1.164 0 0 0-.25-.26l.12-.07 1.2.99-2.96 1.85c-.34.21-.38.51-.13.91l-.11.06zm4.54-3.65a.44.44 0 0 1-.357.055.48.48 0 0 1-.287-.217.456.456 0 0 1-.068-.35.46.46 0 0 1 .212-.285c.111-.073.231-.093.351-.073s.22.09.29.2a.47.47 0 0 1-.147.663l.007.007zm-5.31.4c-.33.19-.66.21-.99.07a1.49 1.49 0 0 1-.71-.68 1.866 1.866 0 0 1-.17-.52 1.9 1.9 0 0 0-.16-.48c-.06-.12-.13-.16-.21-.12l-.06-.11 1.25-.69.07.14c-.67.56-.85 1.11-.56 1.63a.865.865 0 0 0 .392.383.55.55 0 0 0 .538-.013c.26-.14.39-.49.4-1.02l.02-.74c.01-.58.22-.98.61-1.19.26-.143.568-.172.85-.08.31.09.55.3.73.62.09.17.15.34.18.53.02.19.05.31.09.37.03.06.09.09.17.07l.06.1-1.09.61-.07-.13c.56-.52.73-1 .49-1.42a.79.79 0 0 0-.381-.35.515.515 0 0 0-.479.028c-.23.122-.36.452-.38.992l-.02.75c-.02.64-.21 1.06-.56 1.25h-.01zm.69-4.19c-.27.11-.46.06-.56-.16a.475.475 0 0 1 .006-.387c.054-.133.074-.243.034-.313-.04-.09-.16-.17-.38-.23a.81.81 0 0 0-.561.018l-1.969.882c-.36.15-.44.44-.26.87l-.11.05-.88-1.98.11-.05c.19.42.47.55.82.39l2.16-.96c.32-.14.45-.33.37-.56a.89.89 0 0 0-.202-.272l.122-.048 1.07 1.13-.77.34c.66.11 1.06.33 1.21.65.054.115.062.247.022.368s-.122.212-.236.258l.004.004zm-2.76-3.85c.64-.32.87-.72.68-1.21-.22-.55-.67-.74-1.36-.58l.68 1.79zm-.89 1.52a2.117 2.117 0 0 1-1.27-.29 1.784 1.784 0 0 1-.84-.92 1.595 1.595 0 0 1 .07-1.33c.23-.48.66-.85 1.29-1.09.58-.22 1.12-.24 1.63-.06a1.68 1.68 0 0 1 1.05 1.03c.18.46.17.89-.02 1.28a1.72 1.72 0 0 1-.95.84l-1.02-2.66c-.54.21-.94.51-1.19.91-.26.41-.31.8-.17 1.18a1.39 1.39 0 0 0 .61.68 1.64 1.64 0 0 0 .82.27v.16h-.01zm.76-4.83c-.05-.19-.28-.31-.7-.37l-3.54-.44c-.13-.01-.2-.04-.22-.08s.03-.1.15-.2l2.83-2.23c.32-.26.45-.51.39-.75l.12-.03.47 1.74-.13.03c-.07-.26-.19-.37-.35-.33a.92.92 0 0 0-.295.147l-1.985 1.513 2.3.23a1.67 1.67 0 0 0 .46-.01c.18-.05.24-.2.17-.46l.12-.04.33 1.24-.12.03v.01zm-5.19-3.74-.45-2.13.13-.02c.09.45.33.64.71.56l2.42-.51c.31-.07.44-.22.39-.44a1.12 1.12 0 0 0-.15-.33l.14-.03.79 1.34-3.42.73c-.39.08-.53.35-.43.81l-.13.02zm5.52-1.88a.433.433 0 0 1-.353-.066.49.49 0 0 1-.197-.307.44.44 0 0 1 .35-.545.463.463 0 0 1 .361.055.44.44 0 0 1 .206.295.48.48 0 0 1-.066.364.468.468 0 0 1-.302.202l.002.002zm-6.24-.97-.34-1.91.13-.02c.07.38.29.53.68.47l2.28-.4c.22-.04.38-.14.47-.29a.72.72 0 0 0 .087-.515c-.057-.325-.297-.635-.697-.905l-2.44.43c-.38.07-.54.29-.48.68l-.13.02-.33-1.91.13-.03c.07.38.29.54.68.47l2.45-.43c.19-.03.31-.1.35-.18.04-.09.03-.24-.02-.47l.13-.02.66 1.26-.74.13c.57.33.9.76.99 1.27.12.7-.28 1.12-1.19 1.29l-2.07.36c-.38.07-.54.29-.47.67l-.13.03zm5.08-5.46c-.03-.57-.25-.84-.63-.82l-3.29.23c-.78.05-1.37-.17-1.78-.68-.32-.4-.5-.91-.54-1.55-.05-.66.07-1.2.35-1.61.35-.49.93-.76 1.74-.82l3.19-.22c.39-.03.56-.31.52-.85l.18-.01.18 2.55-.18.01c-.04-.53-.24-.79-.61-.76l-3.32.23c-.54.03-.94.17-1.2.39-.33.28-.47.72-.43 1.31.08 1.15.72 1.69 1.89 1.6l3.24-.22c.4-.03.58-.33.54-.91l.18-.01.14 2.13-.17.01zm105.24 16.16a.4.4 0 0 1 .184.214.312.312 0 0 1 .006.276c-.08.15-.2.24-.35.25l-.43.03a.394.394 0 0 0-.247.215c-.163.305-.023.575.407.795l1.04.53.5-1 .27.14-.51.99 2.77 1.41c.35.18.65.01.91-.5l.12.06-1.09 2.13-.11-.05c.22-.45.16-.77-.19-.94l-2.76-1.41-.35.67-.26-.14.34-.67-.25-.12c-.52-.27-.86-.62-1.03-1.04a1.497 1.497 0 0 1 .1-1.25 1.25 1.25 0 0 1 .5-.55c.17-.08.32-.1.43-.04zM93.952 85.824c9.81-22.55 1.01-36.79-18.12-44.35 11.46 4.64 9.04 18.84 4.47 26.03s-12.35 13.02-24.62 18.54c13.14-5.14 21.35-11.92 25.18-18.26s4.53-11.85 3.49-18.04c5.94 12.68.93 23.85-10.73 34.93 13.52-11.64 17.9-24.17 10.26-37.14 11.36 12.47 8.29 25.81.46 37.7 9.64-13.36 11.3-27.48-1.48-39.62 15.37 9.41 17.55 22.27 11.09 40.21zm-21.52-43.19c-2.73-2.82-5.01-4.54-8.55-6.34 5.04.07 11.07 1.27 14.97 2.36-4.09-.47-5.91-.06-6.83.57-.91.63-.57 1.66.41 3.41zm.475 51.003c.08-1.86.27-3.09 2.93-3.73s5.59-.56 10.49.23c4.89.79 8.81 1.14 13.64.68-1.63-1.07-2.13-1.58-2.78-2.81-4.22.09-7.02-.2-10.54-1.28-3.53-1.08-7.68-2.19-10.37-1.9-2.7.28-4.47 1.78-5.41 5.08-.95-3.3-2.71-4.8-5.41-5.08-2.7-.29-6.85.83-10.37 1.9s-6.32 1.37-10.54 1.28c-.65 1.23-1.15 1.74-2.79 2.8 4.83.46 8.76.11 13.65-.68 4.9-.79 7.83-.87 10.49-.23 2.66.65 2.85 1.87 2.93 3.74h4.08zm-2.044-59.474c20.27 0 36.7 16.43 36.7 36.7 0 20.26-16.43 36.7-36.7 36.7-20.26 0-36.69-16.44-36.69-36.7 0-20.27 16.43-36.7 36.7-36.7h-.01zm.01-1.26c20.96 0 37.95 16.99 37.95 37.96 0 20.96-16.99 37.96-37.96 37.96-20.96 0-37.96-17-37.96-37.96 0-20.97 17-37.96 37.96-37.96h.01zm48.847-4.742c.24.31.53.64.55.92.05.66-1.62 1.91-2.5 2.56-.29.22-.91.34-1 .67.48.37.97.92 1.56 1.12l.23-.11c.12-.25.11-.5.23-.73l.31-.23.12.16c-.17.7.27 1.45.77 2.11.12.16.07.32.22.54-.08.1-.07.07-.03.19l-.44.34c-.17-.05-.37.02-.52-.04l-.75-.73c-1.22-.64-2.43-1.63-3.72-1.85-1.07.76-3.35 1.38-4.32 1.04-.76-.26-1.68-1.73-.88-2.31.01-.01.02-.01.02-.02.24.09.52.09.76.17l.93.78c.45.25 1.97.01 2.48-.23l.08-.17c-.63-1.39-1.7-1.18-1.18-2.86.04-.12.11-.62.45-.61.09.01.14.07.21.19.14.43.35 1.02.71 1.28l.39.48c.3.2.84.68 1.18.7.45.01 2.88-1.84 3.13-2.33.15-.28.15-.92.64-1.07l.37.04zm-5.48 7.18c.79 1.17.31 3.63-.81 4.37-.27-.17-1.5-.04-1.64-.7-.12-.79.58-1.17.89-1.92.28-.7.15-1.52.37-2.12.01.01.02.03.03.04.45-.15.75.12 1.16.33zm17.93 7.01.16.29c-.6.67-2.39 2.57-3.55 2.32-.74-.72.26-1.86 1.12-2.33.5.33 1.56-.24 2.27-.28zm-1.06 2.88c.44.84-.32 1.62.23 2.36.14.03.1.13.24.25.49.43 1.82.9 1.83 1.89 0 .54-.99 1.45-1.63 1.16-.14-.11-1.08-1.22-1.1-1.34-.68-.51-1.46-.85-2.17-1.24-.01.02-.02.04-.03.05.01.02.02.04.03.05.1.33.57.76.61 1.24.1 1.23.3 2.56-1.05 3.28-.15-.1-.4-.13-.56-.25-.35-.25-.94-1.17-1.3-1.03-.49 1-2.16.31-3.01.34-.14.17-.24.32-.22.52l.42.73c.28.22 1.54 1.15 1.6 1.76.07.71-.82 1.1-1.41.88-.38-.72-.54-1.44-1.38-1.96-.27-.16-.24-.38-.52-.44-.5.28-.8.59-1.4.94-1.63-.77-2.95-1.96-2.43-4 .1-.41.22-.91.61-1.23.3.54.09 1.21.15 1.76l.31.6c.64 1.11 1.42 1.32 2.3 1.52.06-.05.11-.08.16-.13l.08-.24-.42-.73a6.81 6.81 0 0 0-.82-.69c-.48-.33-1.48-2.3-1.3-2.77.06-.18.24-.29.42-.38l.36.12c.59.4.67 1.49 1.25 2.09.33.36 1.09.69 1.3 1.26l.3.08c.62-.66 1.01-.55 1.73-.54.14 0 .6-.08.62-.17.08-.37-.7-.74-.91-.96l-.28-.48c1.03-.71 1.43.31 2.18 1.04.31.3.79.48 1.13.67.32.17.94.52 1.23 0 .13-.23-.01-.45-.03-.73-.08-1.49-1.95-2.47-3.01-2.86-.39-.14-1.19-.58-1.65.11 0 .15-.19.63-.19.63-.42.44-.9.35-1.26.44-.14-.16-.21-.14-.34-.36a1.73 1.73 0 0 0 .09-.57c-.2-.09-.33-.19-.44-.49.08-.35 1.62-2.22 2.01-2.23.86.57 1.65.71 2.52 1.07l.96.75c.69.3 1.48.4 2.21.59.91.23 1.55 1.04 2.46 1.11.01-.03.03-.06.04-.09l-.01-.02c-.6-.21-1.99-.89-1.81-1.84.1-.52.85-.78.72-1.39l.38-.18a.44.44 0 0 0 .191.05h.009zm-25.07-28.96c.73.55 1.49.94 1.91 1.74.05.1.33.82.27.81-.3 1.27-1.62 1.12-2.24.35.12-.26.16-.48.03-.66l-.26-.22c.36-.72-.31-1.5.29-2.02zm-2.09-1.09.35.24c-.06.56-.48 2.19-.9 2.68-.28.32-1.2 1.07-1.23 1.46v.1c.61.35 1.3.35 1.7-.03.23-.21.05-.43.26-.56.29.24 1.47 1.15 1.5 1.39.01.19-.2.4-.28.48-1.19-.57-2.17-.26-3.3-.12-.36.05-.57-.34-.89-.13-.49.32-1.21 1.72-1.48 2.06.02.05.05.1.07.14.82.33 1.58-.77 2.27.89.21.5-.31.86-.5 1.49-.14.46.17 1.13.06 1.69-.24 1.19-1.97.78-2.47.02-.35-.67.62-2.06.2-2.92l-.25-.08c-1.19.73-1.3 2.46-2.15 3.39l-.06-.01c-.71-.59-.42-1.71-.01-2.62.2-.43.64-.45.66-.92-.28-.27-.89-.53-1.27-.44-.34.08-.54.49-.85.7-.57.39-1.43.83-2.1.89a1.933 1.933 0 0 1-.57-.64c.29-.55.18-.68.1-1.18.43-.42.99-.96 1.23-1.68 1.38-.19 2.69-1.03 4.11-.96.52.02.85.95 1.41.59l.16-.27-.07-.39c-.29-.11-.51.03-.78-.04-1.11-.31-1.08-1.53-.46-2.17l.02.01c.34.6 1.4 1.12 2.13 1.13a4.97 4.97 0 0 0 .75-.73l.62-1.03 1.12-1.04c.15-.13.56-1.11.75-1.41a.77.77 0 0 0 .15.02zm-5.53 6c-.33.09-1.51.8-1.51 1.26a.097.097 0 0 1 .024.015c1.216.765 1.956-.125 1.636-1.195-.05-.02-.1-.05-.15-.08zM56.04 6.371c.13.02.16.06.26.14.06.39.9 1.68 1.24 1.72.05.65.31.81-.18 1.31-1.38.11-1.69-.56-1.75-2.06-.02-.41-.22-.59-.15-.85l.57-.26h.01zm6.4-.94c.74-.14 1.6.16 2.12.33.01.13.1.31.02.43-.37.93-2.14 1.12-2.65 1.98.43.42.82.12 1.37.28.81.25 2.65 2.08 1.84 3.25-.22.32-.75.53-1.03.8-.36.34-1.12-.09-1.26.61l.13.8c-.17.55-.62.9-.7 1.53.18.18.4.16.68.18.21-.18.19-.3.24-.55.62-.16 1.86-.15 2.33 0 .22.07.45.6.55.85-.1.13-.15.38-.34.51-.71.52-1.49-.57-2.14.1-.44.47.57 1.46.4 2.16-.4 1.6-3.35 1.2-4.34.74l.03-.09c1.09-.73 2.77-.81 2.99-2.1-.05-.04-.04-.03-.1-.06-.81-.11-1.46.65-2.24.65-.29 0-.81.09-1.07-.04l-.42-.3.04-.18c.64-.14 2.97-.92 3.06-1.22l-.04-.16c-.24-.21-.28-.09-.5-.4 0-.3-.09-.53-.02-.8.12-.45.41-.92.31-1.49a.33.33 0 0 0-.136-.085c-.594-.205-1.314 1.105-1.844 1.365a.335.335 0 0 0-.011-.055c-.189-.235-.129-.585-.089-.875.14-1.11 1.27-1.71 2.31-1.18.62-.13.87-.5 1.2-.8.26-.25.65-.5.78-.82.44-1.02-1.12-1.66-1.76-1.71-1.05-.1-1.72 1.17-2.05 1.66-.38.57-.75 1.28-1.19 1.78-.36.41-.7.73-.89 1.23-.29.73-.2 1.77-.37 2.56-1.42.37-2.01-.86-2.12-2.01 0-.05.68-.75.81-.96l.74-1.5c.35-.55.95-1.07 1.39-1.54.64-.7 2.06-1.54 2.47-2.32l-.01-.03c-.66-.1-1.58-.19-2.01-.7l.02-.06c1.67-.07 2.69-1.03 3.5-1.75v-.01zm-.78 1.34c-.02.04-.04.07-.06.1l.1.21.2-.13-.03-.14-.04-.05c-.06 0-.11.01-.17.01zm-.05.39-.17.15c.03.02.05.05.07.07l.16-.07.03-.12-.04-.05c-.01.01-.04.01-.05.02zm22.41-1.55c.88.14 1.34.54 1.25 1.32-.03.26-.29.52-.14.83.33.68 1.45 1.12 2.38 1.38l-.02.4c-.47.63-1.53.75-2.19 1.15-.21.13-.33.44-.57.53-.69.23-1.34-.02-1.55.89.38.55 1.53.53 1.75 1.19.12.32 0 1.64-.21 2.07-.11.23-.5.86-.41 1.21.17.43.81.52 1.17.83.51.44.9.85 1 1.62.08.73-.89 1.42-1.7 1.1-.49-.19-.72-.81-1.05-1.2-.12-.16-.41-.25-.58-.36-.21-.13-1.07.12-1.17.14l-.5-.06c-.7.09-1.49.14-2.25-.16-.04-.49-.38-1.09-.69-1.4l-.11-.02-.07.04c-.07.44.25 2.1-.15 2.19-.22.06-.57-.29-.65-.39-.28-.35-.21-.93-.36-1.34l-.71-1.01c-.09-.27.09-.56-.09-.75-.23-.24-1.86.37-2.54.04-.39-.19-1.06-1.06-.53-1.54l.74-.47c.17-.23-.01-.71.16-.94.31.02.84.28 1.32.26.5-.03 2.56-.43 2.8-.74l.51-1.79c.2-.39.57-.53.67-1.08-.08-.06-.08-.08-.12-.16l-1.74-.3c-.08-.18-.25-.31-.34-.49.03-.18.02-.22.09-.33.07-.09-.01-.03.09-.07.35-.02.4.29.73.24.44-.06 1.88-.41 2.17-.67.61-.56.57-1.66 1.31-2.02.52.08.79.23 1.16.34.01.08-.04.09.1.13-.28.83-1.13 1.07-1.57 1.67-.54.72-.67 1.79-1.02 2.75-.06.18-.38.68-.35.88.71.19.63-.78 1.16-.94.54-.04 1.21.14 1.52-.22.33-.4.15-.98.39-1.47.28-.55.67-1.2.85-1.78.21-.66-.57-.88.06-1.5zm.96 2.52c-.31.48-.83 1.29-.86 1.85l.05.03c.42.08 1.44-.21 1.72-.41.1-.6-.46-1.09-.75-1.44l-.16-.03zm-3.32 3.35c-.73.23-1.04.78-1.53 1.33-.67.75-2.17 2.05-1.49 3.53.32.71 1.33 1.57 2.45 1.25.28-.08.33.02.52-.17-.31-.6-.64-2.18-1.13-2.56.01-.02.03-.03.04-.05l.94.17c.35.2 1.55 1 1.86.89.22-.76.77-1.8.4-2.43l-.29-.02c-.32.18-.51.73-.83.87-.31.14-.42-.43-.46-.61-.17-.74.04-1.18.04-2.08l-.52-.11v-.01zM8.32 48.751c.17-.57 2.15-2.22 2.6-2.32.71 0 1.32.77 2.07.61.52-.84.42-2.01.52-3.02.06-.69.49-1.56 1.01-1.5.7.72 1.07 1.72 1.34 2.68.15.51.15 1.37.73 1.61l.17-.1c.43-.18.59-1.3.87-1.73.18-.05.51-.24.79-.03.46.44.08 1.07.02 1.75-.07.79.54 1.49.74 2.23.09.34-.05.57.04.94.18.76 1.69.53 2.28 1.01.23.2.2.54.38.74.33.38.92.33 1.33.68l.47.53-.01.03c-.84-.21-1.87.13-2.6.26-.46.08-1.1-.34-1.59-.22l-.22.72c-.6.1-1.41.06-1.76.6-.2.3.07.55-.17.86-.19.02-.55.01-.75.09-.38.13-.62.56-1.04.64-.48.1-.86-.5-1.19-.02l-.16-.05c-.16-.52-1.32-.59-1.96-.81.25-.51.73-.48.93-.89.23-.43-.18-.78-.25-1.08-.22-.87-.13-1.92-.42-2.66l-.93-.31-1.16-.25c-.24-.14-.44-.37-.66-.47-.53-.24-1.07-.12-1.41-.46l-.01-.07v.01zm6.07-3.17c.16 1.47-1.14 2.31.92 2.83.3.07.49.04.69-.05v-.03c-.57-1.02-.6-2.13-1.38-3.15-.1.01-.04-.01-.1.03l-.13.37zm.27 5.94c.11.69.34 1.07.67 1.62.48.14.52-.12.8-.19l.77.18c.07 0 .01.03.09 0 .22-.04.34-.36.36-.69-.4-.44-1.21-1.16-2.08-1.02-.33.05-.37-.14-.61.1zm7.33-25.19c.74-.75 1.48-1.47 2.22-1.58 1.77-.27 3.54 1.71 5.2 3.37l1.68 1.68c.92 1.18 2.73 2.07 3.05 3.41.14.56-.34 3.14-1.4 3.38-.52.12-1.73-.21-2.16.54-.13.22-.17.5-.24.75-.05.18-1.31 1.87-1.63 2.03-.38.18-.7.07-1.06.12-.14.37.08.65-.28 1.03l-.02.01-1.21-.29c-.13-.04-.91-.8-.98-.98-.25-.72-.86-1.52-1.34-2.25-.41-.62-1.05-.98-1.39-1.19l-1.03-.83c-.25-.17-.78-.46-1.01-.86-1.09-1.89-.67-2.72-.4-4.59.09-.61.52-1.2.68-1.79l.19-.19.6-1.15.53-.62zm1.08.04-1.29 1.65c-.69 1.26-.6 2.72-.28 4 .07.27.37 1.27.73 1.41l.1.01c.46-.63.11-3.59 1.64-3.5.78-.26 1.22 1.45 1.57 1.84.51-.05 1.38-.07 1.8-.61-.07-.16-.07-.26.1-.42.64-.1 1.17-.52 1.79-.28l.47.48c-.02.49-.14 1-.22 1.56-.16 1.23-.12 2.47-.79 3.73-.22.42-.58.59-.87.87-.48-.18-.79-.23-1.34-.79l.03-1.07-.14-.1c-.16-.03-.16.33-.37.41-.49.21-1.12.45-1.55-.15-.06-.09-.24-.19-.24-.32-.09-.53 1.21-3.03.02-3.11l-.03-.04c-.28.53-1.33 1.91-1.21 2.39.02.33.56.56.71.99.33.98 1.68 2.42 2.7 3.21.35.28.26.59.61.7.3-.28.57-.11.87-.24.39-.17 1.3-1.55 1.59-2.02l-.08-.08c-.14.03-.23-.07-.32-.12l-.02-.06c.37-.34.98-.14 1.21-.69.12-.29-.07-.55.06-.86.49-.19 1.35-.16 1.66-.83.7-1.49-2.07-4.56-3.72-5.63-.26-.16-.79-.82-1.15-.99l-.68-.63c-.83-.51-1.6-1.26-2.43-1.49-.27.18-.61.44-.93.77v.01zm2.83 6.39c.02.12.05.24.08.36.11.11.13.12.24.12l.02-.1-.02-.21a.636.636 0 0 0-.28-.199l-.04.029zm-.75 1.27c-.1.39-.14.56-.04.96.01-.02.02-.03.04-.04l.13-.03c.1-.28.08-.51.12-.79l-.12-.12-.13.02zm2.39-2.2c.03.16.08.33.2.48.24.08.48.21.72.24l.01-.02-.05-.34c-.27-.31-.34-.48-.66-.53l-.22.18v-.01zm12.81-19.68c.78-.52 2.68.58 3.29 1.18.35.35.17.84.57 1.07.53.29 1.14.29 1.67.55.32.15.55.54.88.62.46.12 1.02-.19 1.45.06.15.08.21.24.22.39-.48.81-1.91 1.86-1.81 2.8.09.82.8 1.31 1.04 2.14l.82 2.17c.05.16.07.7.23.79.04.32.02.7.05 1.01.03.32.37.67.31.87l-.03-.05c-.87-.1-1.61-.89-2.28-1.72-.55-.68-.92-1.83-1.49-2.17h-.07c-1.08.78-1.25 1.91-2.69 2.54-.36-.36-1.25-1.22-1.15-1.79.08-.39.42-.74.42-1.15l-.13-.51c-.02-.3.08-.65.11-.95.03-.26-.41-1.58-.77-1.47-.31.09-.3 1.1-.29 1.33.01.6.23 1.21.25 1.82.05 1.21-.54 1.47.09 2.89.29.65 1.94 1.79 1.88 2.09l-.02.18c-.19.14-.24.18-.4.2-.38-.15-.83-.32-1.17-.61-.31-.26-.47-.59-.8-.75l-.08.02c-.56 1.03-.33 2.15-1.99 2.96l-.23-.05c-.26-.38-1.08-1.2-1.07-1.68l.28-1.16.2-2.85-.1-.1-.063.007c-.327.463-1.147 1.593-1.807 1.693-.88-1.32.03-2.63.32-3.74.17-.63.63-2.99.52-3.56-.1-.44-.41-.66-.49-1.09.41-.46.89-.45 1.38-.6.42.74.12 1.25.06 1.97-.12 1.46-.7 2.97-1.09 4.37-.1.4-.3.76-.34 1.17l.14.11c.18-.16 2.16-2.08 2.19-2.18.32-.91-1.07-3.11.72-3.39.3.16 1.14.55 1.46.58l.07-.05c.27-.98-.05-1.09-.84-1.63a2.26 2.26 0 0 1 .5-1.23c.45.27.83.38 1.29.33.41-.85-1.51-2.42-1.22-3.43h.01zm-1.23 6.71c-.11.29-.32.81-.01 1.11l.18-.08c.16-.35.24-.59.2-.97-.15-.19-.23-.1-.37-.06zm3.16-1.47c-.04.11-.08.15-.06.27.02.05.03.11.05.17l.22.09.13-.16c-.09-.21-.05-.32-.21-.43l-.13.06zm-2.58 2.97c-.3.51-.59 1.55.26 2.01l.08-.09c.21-.54.46-1.68.21-2.22a2.36 2.36 0 0 0-.55.3zm5.78-3.41c-.01.13-.01.22.05.37l.06.04.19-.26-.05-.14-.13-.08-.12.07zm-7.12 4.73-.28.24.09.18c.19-.02.34 0 .52-.14l.04-.23-.19-.14-.18.08v.01zm5.13-2.01c-.08.47-.39.88-.43 1.36a.71.71 0 0 1 .1.14h.1c.39-.27 1.06-1.22.55-1.47-.16-.07-.13-.12-.32-.02v-.01zM39 23.511c0 .45-.2 1.68-.02 2.02l.05-.03.18-.12c.02-.63.82-1.24.1-1.91l-.2-.04-.11.08z"/></svg>