<svg xmlns="http://www.w3.org/2000/svg" width="1000" height="1000"><path fill="rgba(255,255,255,0)" d="M0 0h1000v1000H0z"/><g vector-effect="non-scaling-stroke" transform="matrix(2.6382 0 0 2.6382 500.258 499.9982)"><path d="M-187.818 58.63h2.067v5.583l.077 1.723a1.68 1.68 0 0 0 .632 1.016c.331.255.789.384 1.367.384.586 0 1.029-.12 1.328-.362a1.42 1.42 0 0 0 .536-.888c.059-.35.091-.937.091-1.753v-5.704h2.067v5.415c0 1.239-.055 2.113-.167 2.624s-.317.941-.618 1.294-.703.631-1.204.84-1.161.312-1.971.312c-.978 0-1.719-.113-2.224-.341s-.904-.523-1.196-.886-.487-.744-.58-1.142c-.135-.591-.203-1.462-.203-2.617zm10.364 10.31V58.63h2.011l4.191 6.884V58.63h1.921v10.31h-2.076l-4.127-6.724v6.724zm10.246 0V58.63h2.067v10.31zm6.649 0l-3.659-10.31h2.243l2.589 7.631 2.508-7.631h2.193l-3.667 10.31zm6.93 0V58.63h7.59v1.745h-5.523v2.285h5.14v1.736h-5.14v2.806h5.719v1.738zm9.545 0V58.63h4.354c1.094 0 1.887.093 2.383.278s.894.514 1.193.986.445 1.016.445 1.625c0 .773-.226 1.414-.677 1.918s-1.128.821-2.027.951c.448.264.818.552 1.108.866s.682.871 1.175 1.673l1.252 2.011h-2.472l-1.495-2.244-1.089-1.515c-.196-.209-.404-.351-.623-.43s-.565-.116-1.041-.116h-.417v4.304zm2.07-5.951h1.528c.992 0 1.612-.041 1.86-.125a1.12 1.12 0 0 0 .579-.437c.139-.206.21-.463.21-.773 0-.348-.093-.626-.277-.84s-.443-.348-.78-.405c-.167-.022-.67-.034-1.509-.034h-1.611zm7.731 2.597l2.011-.199c.119.681.365 1.181.737 1.501s.867.477 1.497.477c.665 0 1.168-.142 1.504-.427s.508-.615.508-.994a.93.93 0 0 0-.215-.621c-.141-.173-.389-.322-.744-.446-.241-.087-.794-.236-1.655-.452-1.108-.276-1.885-.617-2.331-1.021-.63-.567-.944-1.257-.944-2.074 0-.526.148-1.015.444-1.474s.722-.804 1.278-1.044 1.228-.357 2.015-.357c1.287 0 2.253.283 2.904.849s.989 1.325 1.022 2.273l-2.067.091c-.088-.531-.279-.912-.569-1.143s-.728-.348-1.309-.348c-.601 0-1.072.122-1.411.372a.75.75 0 0 0-.329.638c0 .245.103.454.307.627.26.221.894.452 1.9.689s1.75.488 2.231.742a2.89 2.89 0 0 1 1.133 1.049c.274.444.408.992.408 1.642 0 .591-.162 1.145-.489 1.659s-.787.9-1.383 1.15-1.34.377-2.229.377c-1.295 0-2.289-.301-2.982-.903s-1.108-1.481-1.242-2.633zm10 3.354V58.63h2.067v10.31zm4.031-10.31h3.779c.851 0 1.5.065 1.948.196.601.178 1.116.494 1.542.951s.756 1.01.98 1.668.334 1.472.334 2.439c0 .847-.105 1.58-.315 2.195-.255.748-.62 1.356-1.096 1.819-.358.353-.842.627-1.452.823-.455.146-1.066.218-1.831.218h-3.889zm2.067 1.745v6.827h1.542c.577 0 .995-.031 1.251-.098.334-.084.613-.225.834-.427s.401-.535.541-.997.21-1.092.21-1.889-.071-1.407-.21-1.834-.336-.761-.587-.999-.572-.401-.958-.485c-.289-.067-.854-.098-1.698-.098zm17.503 8.565h-2.251l-.894-2.343h-4.093l-.844 2.343h-2.193l3.989-10.31h2.186zm-3.807-4.079l-1.411-3.826-1.383 3.826zm4.896-6.231h3.779c.851 0 1.5.065 1.948.196a3.39 3.39 0 0 1 1.543.951c.429.453.755 1.01.979 1.668s.334 1.472.334 2.439c0 .847-.105 1.58-.315 2.195-.255.748-.62 1.356-1.096 1.819-.357.353-.842.627-1.452.823-.455.146-1.066.218-1.83.218h-3.889zm2.067 1.745v6.827h1.542c.577 0 .995-.031 1.252-.098.334-.084.612-.225.834-.427s.4-.535.541-.997.21-1.092.21-1.889-.071-1.407-.21-1.834-.336-.761-.586-.999-.572-.401-.958-.485c-.289-.067-.854-.098-1.698-.098zm8.27 8.565V58.63h7.591v1.745h-5.524v2.285h5.14v1.736h-5.14v2.806h5.72v1.738zm15.818 0v-8.565h-3.037V58.63h8.136v1.745h-3.03v8.565zm6.434 0V58.63h7.591v1.745h-5.524v2.285h5.14v1.736h-5.14v2.806h5.72v1.738zm16.092-3.791l2.003.639c-.308 1.126-.819 1.961-1.533 2.509s-1.621.819-2.72.819c-1.359 0-2.477-.468-3.352-1.402s-1.314-2.216-1.314-3.836c0-1.716.441-3.048 1.321-3.999s2.036-1.423 3.471-1.423c1.252 0 2.271.372 3.052 1.119.467.439.816 1.073 1.049 1.898l-2.048.492c-.119-.535-.372-.957-.759-1.267s-.851-.464-1.399-.464c-.759 0-1.376.273-1.847.823s-.709 1.435-.709 2.665c0 1.304.232 2.233.699 2.785s1.071.83 1.813.83a2.05 2.05 0 0 0 1.419-.528c.396-.351.68-.905.855-1.659zm3.797 3.791V58.63h2.012l4.191 6.884V58.63h1.921v10.31h-2.076l-4.127-6.724v6.724zm9.891-5.092c0-1.051.155-1.932.467-2.645a4.88 4.88 0 0 1 .955-1.414c.403-.415.843-.725 1.323-.927.639-.273 1.373-.408 2.207-.408 1.509 0 2.716.47 3.621 1.414s1.359 2.251 1.359 3.929c0 1.666-.449 2.968-1.348 3.908s-2.101 1.409-3.603 1.409c-1.523 0-2.735-.468-3.633-1.402s-1.347-2.226-1.347-3.865zm2.129-.07c0 1.167.268 2.053.803 2.655s1.216.903 2.04.903 1.5-.298 2.029-.898.792-1.493.792-2.689c0-1.181-.257-2.062-.771-2.645s-1.199-.871-2.051-.871-1.54.295-2.061.883-.781 1.474-.781 2.662zm9.471 5.161V58.712h2.067v8.489h5.14v1.738zm8.263-5.092c0-1.051.156-1.932.468-2.645a4.91 4.91 0 0 1 .953-1.414c.402-.418.844-.725 1.324-.927.637-.273 1.372-.408 2.207-.408 1.509 0 2.715.47 3.621 1.414s1.359 2.251 1.359 3.929c0 1.666-.451 2.968-1.349 3.908s-2.1 1.409-3.603 1.409c-1.523 0-2.735-.468-3.633-1.402s-1.347-2.226-1.347-3.865zm2.129-.07c0 1.167.269 2.053.804 2.655s1.216.903 2.04.903 1.5-.298 2.028-.898.792-1.493.792-2.689c0-1.181-.257-2.062-.769-2.645s-1.199-.871-2.051-.871-1.54.295-2.061.883-.783 1.474-.783 2.662zm1.567-5.74l.963-2.103h2.2l-1.921 2.103zm12.613 7.11v-1.738h4.455v4.107c-.433.422-1.06.794-1.883 1.116a6.79 6.79 0 0 1-2.496.481c-1.071 0-2.004-.226-2.801-.678a4.3 4.3 0 0 1-1.795-1.941 6.31 6.31 0 0 1-.601-2.747c0-1.073.224-2.028.671-2.864s1.101-1.474 1.964-1.919c.656-.343 1.473-.513 2.451-.513 1.271 0 2.265.269 2.979.804s1.175 1.28 1.379 2.228l-2.052.387c-.145-.507-.417-.907-.815-1.201s-.895-.439-1.491-.439c-.903 0-1.621.288-2.155.864s-.799 1.433-.799 2.568c0 1.222.269 2.142.811 2.754s1.247.917 2.121.917c.433 0 .868-.086 1.304-.257s.808-.379 1.12-.622v-1.308zm6.299 3.791v-10.31h2.067v10.31zm10.589-3.791l2.003.639c-.308 1.126-.817 1.961-1.533 2.509s-1.62.819-2.72.819c-1.359 0-2.476-.468-3.352-1.402s-1.313-2.216-1.313-3.836c0-1.716.441-3.048 1.32-3.999s2.036-1.423 3.472-1.423c1.252 0 2.269.372 3.052 1.119.467.439.815 1.073 1.048 1.898l-2.047.492c-.12-.535-.372-.957-.759-1.267s-.851-.464-1.4-.464c-.757 0-1.375.273-1.847.823s-.708 1.435-.708 2.665c0 1.304.231 2.233.699 2.785s1.071.83 1.813.83c.551 0 1.023-.175 1.419-.528s.679-.905.853-1.659zm13.012 3.791h-2.251l-.895-2.343h-4.093l-.843 2.343h-2.193l3.988-10.31h2.187zm-3.808-4.079l-1.411-3.826-1.383 3.826zm8.359 4.079v-10.31h7.02v1.745h-4.951v2.439h4.273v1.745h-4.273v4.381zm8.725 0v-10.31h7.591v1.745h-5.524v2.285h5.14v1.736h-5.14V67.2h5.719v1.738zm9.533-10.31h3.779c.851 0 1.5.065 1.948.196a3.4 3.4 0 0 1 1.543.951c.428.453.755 1.01.979 1.668s.335 1.472.335 2.439c0 .847-.105 1.58-.316 2.195-.255.748-.619 1.356-1.096 1.819-.357.353-.841.627-1.452.823-.455.146-1.065.218-1.831.218h-3.888zm2.067 1.745V67.2h1.543c.576 0 .993-.031 1.252-.098.333-.084.612-.225.833-.427s.4-.535.541-.997.211-1.092.211-1.889-.072-1.407-.211-1.834-.336-.761-.587-.999-.572-.401-.959-.485c-.288-.067-.853-.098-1.696-.098zm8.269 8.565v-10.31h7.591v1.745H64.06v2.285h5.14v1.736h-5.14V67.2h5.72v1.738zm9.545 0v-10.31h4.353c1.093 0 1.888.093 2.384.278a2.36 2.36 0 0 1 1.192.986c.299.476.445 1.016.445 1.625 0 .773-.225 1.414-.676 1.918s-1.128.821-2.027.951c.448.264.817.552 1.108.866s.683.871 1.176 1.673l1.251 2.011h-2.472l-1.495-2.244-1.089-1.515c-.196-.209-.403-.351-.623-.43s-.564-.116-1.041-.116h-.416v4.304zm2.071-5.951h1.527c.992 0 1.612-.041 1.86-.125a1.11 1.11 0 0 0 .58-.437c.141-.207.209-.463.209-.773 0-.348-.093-.626-.276-.84s-.444-.348-.78-.405c-.168-.022-.671-.034-1.509-.034h-1.611zm17.488 5.951h-2.251l-.895-2.343h-4.093l-.844 2.343h-2.193l3.989-10.31h2.185zm-3.808-4.079l-1.411-3.826-1.383 3.826zm4.959 4.079V58.711h2.067V67.2h5.14v1.738zm12.392-10.31h3.779c.851 0 1.5.065 1.948.196a3.4 3.4 0 0 1 1.543.951c.429.453.755 1.01.979 1.668s.335 1.472.335 2.439c0 .847-.105 1.58-.316 2.195-.255.748-.619 1.356-1.096 1.819-.357.353-.841.627-1.452.823-.455.146-1.065.218-1.831.218h-3.888zm2.067 1.745V67.2h1.543c.577 0 .995-.031 1.252-.098.333-.084.612-.225.835-.427s.4-.535.54-.997.211-1.092.211-1.889-.072-1.407-.211-1.834-.336-.761-.587-.999-.572-.401-.957-.485c-.289-.067-.853-.098-1.699-.098zm7.851 3.473c0-1.051.155-1.932.467-2.645a4.88 4.88 0 0 1 .955-1.414 4.03 4.03 0 0 1 1.321-.927c.64-.273 1.375-.408 2.208-.408 1.509 0 2.716.47 3.621 1.414s1.359 2.251 1.359 3.929c0 1.666-.449 2.968-1.348 3.908s-2.101 1.409-3.603 1.409c-1.523 0-2.735-.468-3.633-1.402s-1.347-2.226-1.347-3.865zm2.129-.07c0 1.167.268 2.053.803 2.655s1.216.903 2.04.903 1.5-.298 2.029-.898.792-1.493.792-2.689c0-1.181-.257-2.062-.771-2.645s-1.199-.871-2.051-.871-1.54.295-2.061.883-.781 1.474-.781 2.662zm13.389 5.161v-10.31h3.317c1.256 0 2.076.052 2.457.156.587.153 1.08.49 1.476 1.008s.593 1.188.593 2.007c0 .633-.115 1.167-.344 1.596s-.516.771-.869 1.018-.708.408-1.071.487c-.493.098-1.208.148-2.145.148h-1.348v3.889zm2.067-8.565v2.924h1.131c.816 0 1.361-.053 1.636-.161s.488-.276.645-.507.233-.496.233-.802c0-.374-.109-.684-.328-.929s-.496-.396-.831-.456c-.247-.048-.743-.069-1.487-.069zm15.647 8.565h-2.251l-.893-2.343h-4.093l-.844 2.343h-2.193l3.988-10.31h2.187zm-3.807-4.079l-1.412-3.826-1.383 3.826zm4.908 4.079v-10.31h4.353c1.095 0 1.888.093 2.384.278a2.36 2.36 0 0 1 1.192.986c.297.476.445 1.016.445 1.625 0 .773-.227 1.414-.677 1.918s-1.127.821-2.027.951c.449.264.819.552 1.109.866s.681.871 1.175 1.673l1.252 2.011h-2.472l-1.495-2.244-1.089-1.515c-.196-.209-.403-.351-.623-.43s-.564-.116-1.041-.116h-.417v4.304zm2.069-5.951h1.528c.992 0 1.612-.041 1.86-.125a1.12 1.12 0 0 0 .579-.437c.139-.206.211-.463.211-.773 0-.348-.093-.626-.277-.84s-.443-.348-.779-.405c-.168-.022-.671-.034-1.509-.034h-1.612zm17.489 5.951h-2.252l-.893-2.343h-4.093l-.844 2.343h-2.193l3.989-10.31h2.185zm-3.808-4.079l-1.411-3.826-1.383 3.826zm4.923 4.079v-10.31h2.012l4.191 6.884v-6.884h1.921v10.31h-2.076l-4.127-6.724v6.724zm19.544 0h-2.251l-.895-2.343h-4.093l-.843 2.343h-2.193l3.988-10.31h2.185zm-3.808-4.079l-1.411-3.826-1.383 3.826zm-2.597-6.822l.963-2.103h2.2l-1.921 2.103h-1.241" fill="#231f20"/><path d="M-34.196 50.084v-95.677h89.71v18.838h-65.747v76.839h-23.964" fill="#f6c212" fill-rule="evenodd"/><path d="M124.546 49.815v-71.192h30.267c7.608 0 13.128.646 16.576 1.923s6.216 3.547 8.287 6.813c2.073 3.282 3.1 7.011 3.1 11.222 0 5.337-1.575 9.763-4.707 13.244-3.133 3.464-7.841 5.669-14.089 6.564 3.116 1.823 5.685 3.812 7.708 5.984s4.74 6.017 8.171 11.553l8.703 13.89h-17.189L160.98 34.318c-3.696-5.536-6.215-9.017-7.575-10.459s-2.801-2.42-4.325-2.967c-1.525-.53-3.928-.796-7.244-.796h-2.901v29.72zm-239.688-119.2V-.473c0 20.348-6.502 33.685-24.798 33.685s-24.793-13.337-24.793-33.685v-68.912h-23.94V6.879c0 31.972 18.122 45.146 48.733 45.146s48.731-13.174 48.731-45.146v-57.456h27.667V49.972h23.94V-50.577h95.261v-18.808zM-4.96-21.127v71.211h22.52V-2.3h37.955v-18.827zm70.736 70.942v-71.192h23.057c8.735 0 14.436.365 17.088 1.077 4.079 1.061 7.509 3.382 10.261 6.963s4.127 8.204 4.127 13.857c0 4.376-.795 8.056-2.387 11.023-1.591 2.983-3.596 5.321-6.049 7.028-2.437 1.691-4.923 2.818-7.443 3.365-3.431.68-8.404 1.028-14.919 1.028h-9.364v26.852zM80.148-9.327v20.189h7.856c5.669 0 9.465-.365 11.371-1.11s3.397-1.906 4.492-3.498c1.077-1.591 1.625-3.431 1.625-5.536 0-2.586-.763-4.725-2.288-6.415-1.509-1.674-3.448-2.735-5.768-3.149-1.724-.332-5.172-.481-10.344-.481zm58.785 18.05h10.625c6.896 0 11.205-.282 12.929-.862 1.707-.58 3.049-1.592 4.028-3.017.961-1.426 1.459-3.199 1.459-5.337 0-2.404-.647-4.326-1.923-5.802s-3.083-2.404-5.421-2.801c-1.159-.149-4.657-.232-10.492-.232h-11.205V8.723" fill="#231f20"/></g></svg>