<svg xmlns="http://www.w3.org/2000/svg" width="248" height="397.333" viewBox="0 0 186 298"><path d="M3 107v107.1l2.4 4.7c1.7 3.2 12.5 14.7 34.8 36.9 38.3 38.1 37.9 37.8 53.8 37.8 17.2 0 17.1 0 56.1-39.2 28.8-29 32.8-33.4 34.3-37.7 1.4-4.5 1.6-15.2 1.6-110.8V0H3zm113-71.5C116 36.8 95.8 57 94.5 57c-.5 0-5.8-4.8-11.7-10.7L72 35.5l11.2-11.2L94.5 13l10.7 10.7c6 5.9 10.8 11.2 10.8 11.8M94 63h27.4l5.6-5.5 5.5-5.5 11.3 11.3L155 74.5l-11.3 11.3L132.5 97l-5.5-5.5-5.4-5.5H106v31.8l-3.7-1.4c-4.9-1.7-10.8-1.7-15.8.1l-4.2 1.5c-.2 0-.3-7.2-.3-16V86H66.4L61 91.5 55.6 97 44.8 86.3C38.8 80.4 34 75.1 34 74.5c0-.5 4.8-5.8 10.7-11.7L55.5 52l5.5 5.5 5.6 5.5zm7.7 59.5c3.7 1.6 21.3 18 21.3 20 0 .6-3.6 4.6-8 9l-8 8-6.2-6.3-6.3-6.2-27.2 27.2L40 201.5l-8.5-8.5-8.5-8.5 30.2-30.2c16.7-16.7 31.6-30.9 33.3-31.8 3.9-1.9 10.6-1.9 15.2 0m-53.5 28.7-8.2 8.3-8.5-8.5-8.5-8.5 8.2-8.2 8.3-8.3 8.5 8.5 8.5 8.5zm86.3 22.7c-33.8 33.7-34.2 34-43.7 32.5-3.7-.6-5.7-2.1-15.1-11.3l-10.8-10.5 8.3-8.3 8.3-8.3 6.2 6.2 6.3 6.3 27.3-27.3 27.2-27.2 8.5 8.5 8.5 8.5zm22.7 1.8c4.3 4.3 7.8 8.2 7.8 8.8s-3.6 4.6-8 9l-8 8-8.5-8.5-8.5-8.5 8.2-8.2c4.6-4.6 8.5-8.3 8.8-8.3.2 0 4 3.5 8.2 7.7M54.5 208l5.9 6 6.1-6c3.3-3.3 6.5-6 7.1-6 .5 0 4.5 3.6 8.9 8l8 8-9.5 9.5C70.5 238.1 67.3 240 60.5 240c-6.5 0-9.7-2-20.2-12.3l-9.3-9.2 8.2-8.2c4.6-4.6 8.5-8.3 8.8-8.3s3.2 2.7 6.5 6m67.2.2 6.3 6.2 6.5-6.4 6.5-6.5 8.2 8.3 8.3 8.2-9.5 9.6c-5.2 5.2-10.7 10.2-12.2 11-3.5 1.8-12.1 1.8-15.6 0-1.5-.8-7-5.8-12.2-11l-9.5-9.6 8-8c4.4-4.4 8.2-8 8.4-8 .3 0 3.4 2.8 6.8 6.2M101 241.5l6.5-6.5 8.3 8.3 8.3 8.3-10.9 10.6c-9.9 9.7-11.3 10.7-15.6 11.3-8.2 1.3-11.7-.5-23-11.5l-10.1-9.9 8.5-8.6 8.5-8.5 6.5 6.5 6.5 6.5z"/></svg>