<svg xmlns="http://www.w3.org/2000/svg" viewBox="0 0 652 652"><path d="M45.4 525.5l-13.7 38.1-13.8-38.1H9.3l17.5 46.1h9.5l17.5-46.1zm16.1 0v46.1h28.6v-7H69.3v-12.9h18.8v-6.8H69.3v-12.4h20.3v-7zm73.2 11.2c-3.2-3-7.6-4.8-12.7-4.8-9.1 0-15.6 6.7-15.6 16.7 0 10.1 6.8 16.7 15.8 16.7 5.2 0 9.4-1.5 13-4.7v8.4c-4 2.4-8.5 3.4-13.2 3.4-14.2 0-23.7-9.8-23.7-23.8 0-14.1 10-23.8 23.7-23.8 4.7 0 9 1 12.7 3.3v8.6zm6.2-11.2v7h14.6v39.1h7.9v-39.1h14.5v-7zm66.6 6.4c-8.8 0-15.7 6.6-15.7 16.7s6.9 16.7 15.7 16.7 15.7-6.6 15.7-16.7-6.9-16.7-15.7-16.7m0-7.1c13.2 0 23.9 9.7 23.9 23.8s-10.6 23.8-23.9 23.8-23.9-9.7-23.9-23.8 10.5-23.8 23.9-23.8m42 23.9h3.9c6.3 0 10.3-2.7 10.3-8.7 0-5.3-3.6-8.4-10.6-8.4a43.42 43.42 0 0 0-3.6.2v16.9zm0 22.9h-7.9v-45.9c2.8-.5 7.7-.8 11.5-.8 12.1 0 18.7 5.3 18.7 15 0 6.7-3.8 11.6-9.1 13.6l13.9 18.1h-9.5l-12.2-16.3h-5.2v16.3zm58.3-46.1h7.9v46h-7.9zm48.2 0v34.1l-23.2-34.1h-8v46.1h7.7v-33.7l23.6 33.7h7.6v-46.1zm18 35.4c3.6 2.7 7.3 4.7 12.2 4.7 4.6 0 8.5-1.8 8.5-6.4 0-4.3-3.3-5.9-8.4-7.4-8.8-2.8-12.9-6.3-12.9-14 0-8.4 6.7-12.9 14.6-12.9 5 0 8.7 1.4 11.8 3.5v7.9c-3.6-2.9-7.1-4.6-11.5-4.6s-7.1 2.4-7.1 6c0 3.7 2.6 5.3 8.4 7.1 9 2.7 12.9 6.5 12.9 14.3 0 9.2-7.3 13.4-16.2 13.4-5 0-9.3-1.4-12.2-3.4v-8.2zm33.9-35.4v7h14.5v39.1h7.9v-39.1h14.5v-7zm45.4 0h7.9v46h-7.9zm16.3 0v7h14.6v39.1h7.9v-39.1h14.5v-7zm44.5.1h7.9v28.9c0 8.8 4.6 11.2 11.5 11.2 3.6 0 6.4-.3 9.1-.8v-39.3h7.9v44.7c-4.3 1.2-11.5 2.1-17 2.1-10.5 0-19.4-3.7-19.4-16.5v-30.3zm44.8-.1v7h14.6v39.1h7.9v-39.1h14.5v-7zm43.8 0v46.1h28.6v-7h-20.7v-12.9h18.8v-6.8h-18.8v-12.4h20.3v-7zM344.9 345.1l-83.5-219.4h41.5V98.2h-144v27.5h41.6L309.4 411l13.4 31.2 29.4-79z" fill="#1e191a"/><path d="M454.2 72.3l-79.8 35-14.4 33.5 63.5-26.4-42.4 104.8-.5 1 14.2 35.4L447.4 124l27.7 62.9 14.1-33z" fill="#e4007f"/></svg>