<svg xmlns="http://www.w3.org/2000/svg" height="43.93" width="225.12" viewBox="0 0 225.116 43.93"><path fill="#8b1f41" d="M50.895 1.137a15.38 15.38 0 0 0-13.527 8.062l-3.309 6.116-.385.711-.373.689-9.994 18.473L6.991 4.693h7.257l5.843 10.864 3.066 5.701 3.165-5.646 6.121-10.919h5.291c1.278-1.423 2.772-2.62 4.417-3.555h-11.79l-7.14 12.735-6.85-12.735H1.057l22.232 41.553 12.375-22.873 2.052-3.792.385-.711 2.38-4.398a12.16 12.16 0 0 1 .411-.702c1.588-2.51 4.044-4.308 6.853-5.089.766-.213 1.558-.35 2.366-.405l.813-.028h32.397L80.05 10.79H65.06l-1.003 1.885-13.871 26.06h-7.355l12.165-22.593 2.822-5.241H43.219l-2.027 3.555h10.673L36.879 42.291h15.442l14.874-27.946h14.983l7.086-13.207H50.895z"/><path fill="#f60" d="M155.371.943a9.32 9.32 0 0 0-2.506.336c-.803.224-1.556.539-2.256.947s-1.337.901-1.912 1.477-1.07 1.21-1.482 1.906a9.21 9.21 0 0 0-.953 2.248 9.34 9.34 0 0 0-.336 2.508c0 1.306.247 2.531.74 3.674s1.172 2.138 2.031 2.988 1.859 1.524 3.002 2.018a9.15 9.15 0 0 0 3.672.74 19.18 19.18 0 0 0 1.939-.098 9.99 9.99 0 0 0 1.85-.359c.593-.176 1.16-.416 1.701-.717a6.79 6.79 0 0 0 1.508-1.146V9.721h-6.291v1.031c0 .601.081 1.054.244 1.359s.381.521.652.65.579.197.926.201l1.064.018v2.603c-.335.206-.705.365-1.109.477s-.78.195-1.133.246c-.412.06-.821.096-1.225.104-.824 0-1.612-.155-2.363-.465a6.24 6.24 0 0 1-1.978-1.281 6.23 6.23 0 0 1-1.353-1.92c-.336-.735-.502-1.529-.502-2.379a5.75 5.75 0 0 1 .482-2.346c.322-.73.76-1.368 1.309-1.914a6.18 6.18 0 0 1 1.934-1.295 5.87 5.87 0 0 1 2.346-.477c.644 0 1.251.094 1.822.283a6.33 6.33 0 0 1 1.592.785c.395.275.834.412 1.316.412.36 0 .68-.06.959-.18s.539-.304.779-.553l.773-.787c-.481-.516-1.001-.981-1.559-1.393a10.8 10.8 0 0 0-1.752-1.057c-.61-.292-1.247-.515-1.908-.67a8.84 8.84 0 0 0-2.023-.232zm-56.354.195l8.055 18.467h3.066l8.055-18.467h-2.1c-.481 0-.922.128-1.322.381s-.693.599-.883 1.037l-2.506 5.721L108.888 14l-.287.654-.293-.67-4.986-11.43c-.086-.206-.207-.394-.361-.566a2.67 2.67 0 0 0-.529-.451 2.48 2.48 0 0 0-.639-.297 2.38 2.38 0 0 0-.687-.102h-2.088zm22.012 0v18.465h3.387V1.139h-3.387zm8.965 0v18.465h3.373v-6.648h2.527l3.363 4.535c.267.386.539.714.818.98a5.4 5.4 0 0 0 .813.65c.261.167.513.29.754.367s.451.115.631.115h2.641l-2.705-3.639-2.691-3.654c.532-.266 1.003-.59 1.416-.973s.762-.801 1.045-1.256.498-.939.645-1.455a5.83 5.83 0 0 0 .219-1.586 5.79 5.79 0 0 0-.426-2.178c-.284-.705-.681-1.335-1.197-1.889s-1.138-.999-1.863-1.334-1.535-.502-2.428-.502h-6.934zm37.83 0v18.465h3.391V1.139h-3.391zm8.967 0v18.467h3.375V5.792l9.885 13.812h3.131V1.139h-3.377v12.346l-8.207-11.611c-.18-.249-.428-.435-.742-.555s-.675-.18-1.088-.18h-2.977zm21.969 0v18.465h3.389V1.139h-3.389zm14.291 0l-8.066 18.465h2.1a2.36 2.36 0 0 0 .689-.102 2.62 2.62 0 0 0 .639-.291c.198-.124.372-.273.527-.445a1.98 1.98 0 0 0 .361-.566l1.084-2.5h.002l1.953-4.496h.016l2.223-5.158 2.701 6.264h-1.533a2.88 2.88 0 0 0-2.643 1.734l-.719 1.654h6.389l1.096 2.5c.198.438.495.782.891 1.031s.833.375 1.314.375h2.1l-8.068-18.465h-3.055zm-79.68 3.389h3.658a2.21 2.21 0 0 1 .936.207c.297.138.553.323.773.555a2.66 2.66 0 0 1 .521.805c.129.305.193.624.193.959a2.41 2.41 0 0 1-.193.947 2.68 2.68 0 0 1-.521.807c-.219.232-.475.416-.773.553a2.21 2.21 0 0 1-.936.207h-3.658V4.527zm8.744 19.504c-.868 0-1.706.113-2.514.336s-1.561.539-2.262.947a9.42 9.42 0 0 0-1.912 1.477c-.576.576-1.069 1.21-1.482 1.906a9.25 9.25 0 0 0-.953 2.248 9.3 9.3 0 0 0-.336 2.508 9.16 9.16 0 0 0 .74 3.674c.494 1.142 1.172 2.138 2.031 2.988s1.861 1.524 3.008 2.018 2.374.74 3.68.74c.687 0 1.359-.077 2.016-.232s1.292-.378 1.906-.67a10.73 10.73 0 0 0 1.76-1.057 11.39 11.39 0 0 0 1.559-1.393l-.785-.785c-.232-.223-.484-.397-.754-.521s-.6-.187-.986-.187a2.28 2.28 0 0 0-.689.104c-.22.068-.422.163-.611.283a6.52 6.52 0 0 1-1.592.791c-.571.193-1.18.291-1.824.291a5.85 5.85 0 0 1-2.352-.479 6.28 6.28 0 0 1-1.934-1.295c-.555-.545-.992-1.185-1.314-1.92s-.482-1.519-.482-2.352a5.72 5.72 0 0 1 .482-2.342 6.14 6.14 0 0 1 1.314-1.914 6.3 6.3 0 0 1 1.934-1.295 5.85 5.85 0 0 1 2.352-.477 5.74 5.74 0 0 1 1.813.283c.57.189 1.105.45 1.603.785.395.275.828.412 1.301.412.361 0 .685-.065.973-.199s.544-.312.768-.535l.785-.787c-.481-.516-1.001-.981-1.559-1.393s-1.145-.765-1.76-1.057a9.51 9.51 0 0 0-1.906-.67c-.657-.155-1.329-.232-2.016-.232zm-40.637.182v3.26h5.439v15.219h3.389V27.473h5.426v-3.26h-14.254zm17.09.012v18.467h11.855v-3.236h-8.48v-4.459h6.881v-3.234h-6.881v-4.303h8.48v-3.234h-11.855zm34.504 0v18.467h3.377v-7.654h9.072v7.654h3.389V24.225h-3.389v7.576h-9.072v-7.576h-3.377z"/></svg>