<svg xmlns="http://www.w3.org/2000/svg" width="200" height="200" viewBox="0 0 150 150" fill="#00803D"><path d="M75.07 150C33.805 149.992.039 116.238.039 75.012S33.828 0 75.137 0c41.156 0 74.895 33.844 74.824 75.086S116.215 150 75.07 150M3.984 74.996c-.066 38.84 32 70.855 71.012 70.938 38.855.082 70.938-31.867 70.996-70.699.07-39.16-31.68-71.211-70.801-71.258S4.105 35.789 3.984 74.996M51 101.523a14.96 14.96 0 0 1 8.203-4.164 31.7 31.7 0 0 1 5.594-.629l50.777-.09 21.469-.062h1.191l-1.379 3.844h-73.3c-4.906 0-8.988 1.691-11.984 5.676a2.85 2.85 0 0 0-.5 1.543c-.07 1.789 0 3.582 0 5.422.172-.051.273-.051.328-.098 2.672-2.629 6.035-3.742 9.625-4.172a76 76 0 0 1 8.41-.363l62.547-.07h1.117c-.84 1.305-1.566 2.488-2.375 3.617-.129.188-.598.18-.914.18H64.047a18 18 0 0 0-5.832.816 13.5 13.5 0 0 0-6.742 4.965 2.5 2.5 0 0 0-.426 1.305c-.047 1.648 0 3.297 0 5.02q.193-.034.367-.129c2.516-2.449 5.652-3.535 8.984-4.059a33 33 0 0 1 4.793-.398l58.5-.148h1.219l-3.57 3.742c-.187.18-.621.145-.937.145H79.16c-5.543 0-11.082-.09-16.625 0a13.18 13.18 0 0 0-11.43 6.336c-.809 1.309-1.152 2.883-1.715 4.305l-.441 1.199c-.336-1.137-.586-2.121-.906-3.07-2.059-5.992-6.965-9.273-13.301-8.883-1.73.105-3.477.09-5.242.113a1.2 1.2 0 0 1-.75-.234l-3.641-3.316.242-.312h5.773c2.484.059 4.98.059 7.445.289a10.68 10.68 0 0 1 8.387 5.035l.238.367a4.5 4.5 0 0 0 .16-.75c0-1.109-.07-2.246 0-3.316a5.7 5.7 0 0 0-1.004-3.551 11.17 11.17 0 0 0-9.738-5.578c-5.242-.078-10.543.059-15.809.172a1.82 1.82 0 0 1-1.902-1.074c-.426-.816-.957-1.562-1.496-2.441h7.668l10.777.137a15.57 15.57 0 0 1 9.352 3.191c.75.59 1.426 1.258 2.129 1.887q.042-.375.043-.75c0-1.316-.059-2.645 0-3.953a5.58 5.58 0 0 0-.906-3.32c-2.066-3.504-5.129-5.594-9.172-5.75-5.086-.195-10.18-.043-15.266 0l-7.906.074a.99.99 0 0 1-1.124-.75c-.352-.984-.785-1.934-1.258-3.074h1.133l22.375.055c4.531.113 8.75 1.398 11.707 5.242a3 3 0 0 0 .383.254v-1.332l.051-84.109c0-.984.211-1.605 1.16-2a22 22 0 0 0 2.414-1.297zm8.859-17.242-1.184-.109v-1.949l1.133-.148v-5.289c2.637.121 5.168 0 7.609.414s3.543 2.289 3.82 4.566a11.6 11.6 0 0 1-.195 4c-.531 2.293-2.023 3.855-4.496 4.043-2.191.172-4.41 0-6.738 0zm2.832 3.34c1.887-.148 3.895.547 5.242-1.391.965-1.402.906-4.492-.156-5.805-1.363-1.672-3.258-1.219-5.055-1.215v2.938h2.809v2.059h-2.84zm34.129.699 1.57 1.496-1.227 1.348-1.07-.98a1.325 1.325 0 0 0-1.641-.352c-3.648 1.273-7.758-.262-8.566-4.664a10.2 10.2 0 0 1 .207-4.242c.809-3.055 3.598-4.715 6.855-4.344a6.23 6.23 0 0 1 5.512 5.805 7.7 7.7 0 0 1-1.641 5.934zm-2.008-1.859c1.273-1.496 1.199-4.812-.098-6.41a3.5 3.5 0 0 0-4.934-.301 3 3 0 0 0-.227.219c-1.453 1.672-1.496 5.242 0 6.867a3.17 3.17 0 0 0 3.656.801l-1.051-1.113 1.215-1.297zm43.086 3.5a23 23 0 0 1-2.441 0c-.277 0-.57-.383-.75-.652l-4.41-7.094a2.5 2.5 0 0 0-.75-.809v8.465h-2.562V76.906h2.531c.211 0 .438.367.586.605l4.492 7.234a1.75 1.75 0 0 0 .75.699v-8.496h2.539zm0 0"/><path d="M111.313 81.121h-2.039a.75.75 0 0 1-.555-.426c-.695-2.32-4.191-2.246-5.449-.473a6.26 6.26 0 0 0 0 6.375 3.38 3.38 0 0 0 3.594 1.273 2.53 2.53 0 0 0 2.195-1.969 6.5 6.5 0 0 0 .133-.906h-2.883v-1.98h5.363v6.93h-1.664l-.32-1.133a12.7 12.7 0 0 1-2.855 1.336 6.06 6.06 0 0 1-7.086-4.789 6.5 6.5 0 0 1-.102-1 10.3 10.3 0 0 1 .367-3.527 6.2 6.2 0 0 1 3.953-3.98 6.22 6.22 0 0 1 5.551.832 3.96 3.96 0 0 1 1.797 3.438zm-30.086-4.183h2.785v12.969h-2.695v-5.578H75.86v5.578h-2.797V76.973h2.734v4.891h5.43zm32.562.011h2.684v4.945h5.406v-4.93h2.777v12.949h-2.727v-5.602h-5.391v5.559h-2.75zm0 0"/></svg>