<svg xmlns="http://www.w3.org/2000/svg" width="1000" height="1000"><path fill="rgba(255,255,255,0)" d="M0 0h1000v1000H0z"/><path d="M974.323 544.337v-32.983h-14.058v-5.406h35.686v5.406h-13.518v32.983z" fill="#0089cf"/><path d="M69.208 615.167 2.703 434.577h40.011L94.62 574.075l50.285-139.498h26.493l-64.342 180.59zm124.359-180.59h37.307v110.841c0 20.005 3.245 32.982 10.273 40.011 7.03 6.488 15.68 9.732 26.494 9.732s18.924-3.244 25.413-9.732 9.191-18.924 9.191-37.308V434.577h32.442v110.841c0 21.087-2.704 35.685-8.11 44.877s-12.977 16.22-22.71 21.628-22.708 7.57-37.848 7.57-27.575-2.163-38.389-7.03-19.465-11.895-25.412-21.627c-6.488-9.733-9.192-24.872-9.192-45.418V434.577z"/><path d="M386.593 570.83v4.867l1.622-1.082c-.54-1.081-.54-2.703-1.081-3.785h-.54z" fill="#fff"/><path d="M410.383 517.843c0-.54.541-1.622 1.623-1.622.54 0 1.622.54 1.622 1.622 0 .54-.541 1.622-1.622 1.622s-1.623-.54-1.623-1.622m89.214 43.796c-2.162-5.948-8.11-9.733-15.68-9.192-4.325-8.11-11.354-4.326-13.517-2.163 2.163 2.163 3.785 2.704 6.488 3.244v1.622c-4.866 0-6.488-2.162-9.732-5.947-1.622 11.895 12.436 16.22 16.761 6.488 6.489 0 10.814 2.704 11.895 7.029 1.623 4.326 0 8.651-2.162 10.814-3.785 4.866-10.273 4.866-16.221 1.622-3.785-1.622-7.57-5.407-10.814-9.192-4.866-5.407-7.57-8.11-11.354-9.732-2.163-1.082-4.326-1.622-5.948-1.622-1.081 0-2.163-.541-3.785-.541-1.081 0-2.162 0-3.244.54-8.65 1.082-17.302 4.867-27.575 5.948h-5.407c-3.244 3.244-6.488 5.948-9.192 8.11l-6.488 5.408c-2.703 2.703-4.325 3.784-4.325 3.784l1.08 14.599v8.651c0 2.163-.54 3.785-1.08 5.407s-1.623 2.703-3.785 2.703c-1.622.541-5.948-2.703-7.57-.54-1.081 1.622 0 5.407 1.622 6.488h11.895c1.622-2.703 2.163-4.866 2.704-6.488 1.081-1.622 1.622-3.785 2.703-4.867 1.082-1.622 1.622-3.244 2.163-4.866 0-1.622.54-2.703 1.081-3.785l2.704-5.406c0-.541.54-.541.54-1.082a4.11 4.11 0 0 1 1.082 2.163c2.703 4.325 5.407 7.57 9.192 9.192 1.622.54 2.703 1.622 3.244 2.162s.54 2.163.54 3.785-.54 3.244-2.162 3.785c-2.704 1.081-6.489-2.703-8.11-.54-1.623 1.621 0 4.325 1.621 6.488h10.814c2.704-4.326 3.785-9.733 3.785-14.599s0-5.948-3.244-7.57c-1.082-.54-2.163-3.244-2.704-5.407v-1.622c4.867-1.622 10.814-4.866 16.762-9.191v2.703c1.081 7.03 1.622 12.977 7.029 17.843 1.622 1.622 2.703 2.703 2.703 3.785 0 .54-.54 2.703-1.622 3.785-1.081 2.703-3.785 4.866-5.947 4.866-2.704.54-5.407-3.244-7.57-1.082-1.622 1.622.54 5.407 1.622 6.489h10.814c3.785-6.489 8.65-11.896 10.273-15.68 1.081-2.704 1.081-3.785-1.081-4.326-3.785-2.163-3.245-6.488-2.163-11.354 0-1.082.54-1.622 1.081-2.704 2.704 7.57 6.488 14.599 14.599 16.762 1.622 0 3.244 1.081 3.785 1.622v3.244c-.541 2.163-1.622 5.407-3.785 6.488-2.163 1.622-7.03-3.785-8.651-.54-1.082 2.162 1.081 5.406 1.622 6.488h10.814l6.488-16.762c.54-4.866.54-7.029-3.244-7.57-2.163 0-3.785-1.08-4.326-3.784-1.622-4.866-1.081-13.517-4.866-18.924 4.326 4.866 8.651 8.65 12.977 10.813 9.191 4.867 18.924 3.245 23.25-3.244 2.703-5.407 2.703-10.814 1.621-14.598m91.377-125.981c-8.11-1.081-26.494 1.081-42.715 4.325l16.221-8.11c1.081-.54 1.622-2.163 1.622-4.325s-2.163-2.704-4.866-2.163c-2.703 0-8.11 2.163-15.14 4.325-13.517 5.407-32.981 14.599-56.231 30.279-20.546 14.058-34.064 25.953-48.662 40.552-3.785 3.785-8.11 8.65-12.977 14.058-.54-1.082-1.081-1.622-2.703-1.082 5.407-11.895 5.947-12.436 8.65-18.924 1.082-3.244.542-5.407-.54-7.029-1.622-2.703-3.785-1.081-5.407 0l-7.57 9.192c5.948-20.006 9.192-21.628 14.6-32.982.54-1.622.54-3.785 0-5.407s-1.623-2.163-2.704-1.622c-2.163 1.081-2.704 2.163-7.03 7.029 5.948-11.355 14.059-24.872 15.14-27.035s2.163-2.703 0-6.488c-2.163-3.244-3.785-.54-5.407.54-1.081.541-3.785 3.245-7.57 8.111 8.652-16.22 16.762-23.79 18.384-26.494 2.163-3.244 2.163-3.785.54-7.57-1.621-3.244-4.325-1.622-5.406 0-5.948 5.948-5.948 4.326-16.22 16.762 5.406-14.058 14.598-24.872 17.842-30.279 1.622-2.162 1.622-3.244 0-8.11-.54-2.163-2.704-3.244-4.866-3.244-2.704 1.081-5.407 2.703-10.814 7.57-11.355 10.273-26.494 24.871-38.93 51.365-11.895 24.872-14.598 48.121-14.598 64.342 0 24.872 6.488 46.5 12.435 60.557v-1.622c-.54-6.488.541-14.598 2.163-18.383a67.208 67.208 0 0 1 8.651-19.465L392 517.843l6.488 2.163-3.785-8.652s4.867.541 8.651 5.407a8.76 8.76 0 0 1 11.355-.54c3.244 0 4.866.54 6.488 1.081 3.244 2.163 2.704 5.407 2.704 6.488-1.622-1.622-7.03-4.866-11.895-.54l9.732 3.244-12.436 1.081v12.977l-15.14 13.517v4.866l10.274-9.192v4.867l-17.843 16.22v4.867l22.71-20.547 5.947-4.866c3.244-2.703 4.866-4.325 7.029-5.407 2.162-1.622 2.703 0 3.244 2.704.54 2.162 3.244 4.325 8.65-.541 15.68-14.599 32.442-22.168 50.285-30.82-9.732 6.489-27.035 16.221-32.982 22.71-2.704 3.244 0 10.273 4.325 7.029 7.57-4.867 17.303-5.948 22.71-5.407 2.162 0 4.866-1.622 6.488-3.785 1.622-1.622 1.622-3.785-1.622-3.785 16.22-4.866 20.546-6.488 34.063-7.57 3.785 0 5.948-2.162 6.488-5.406.541-2.704-.54-3.785-4.325-3.785-3.785-.541-10.814.54-17.843 1.622 15.68-6.489 34.604-10.273 49.744-14.599 4.866-1.622 5.406-2.703 5.406-5.407.541-3.244-1.622-3.244-7.029-3.244-10.813.54-27.034 1.622-51.906 8.651 23.25-11.895 36.767-17.302 57.854-22.709 5.948-1.622 6.488-3.244 7.029-5.947 1.081-3.245-1.622-3.245-3.785-3.245-3.244 0-10.273 0-24.872 4.326 14.058-5.948 29.738-13.517 40.552-16.761 2.163-1.082 3.785-2.163 3.785-4.867 0-2.162-.54-2.162-2.703-2.162-4.867 0-12.436 1.622-21.628 4.325 18.924-8.11 24.872-10.814 37.848-12.976 4.326-1.082 4.867-2.163 5.407-4.867-1.622-2.703-3.785-2.703-6.488-2.703M401.192 500.54c0-1.622-1.082-2.704-2.163-3.244 2.703-7.03 5.407-11.896 10.814-19.465-4.866 9.732-7.03 18.383-8.651 22.709m-17.302-5.948c3.784-40.552 22.168-70.29 34.604-84.348-17.843 27.035-28.116 64.343-34.604 84.348m67.586 11.895c23.79-22.709 56.232-46.5 97.324-56.231-34.604 11.895-82.185 44.336-97.324 56.231m191.404-32.441-14.058-38.93h8.651l10.814 30.279 10.814-30.279h5.947l-14.057 38.93zm34.604-21.087h1.622c3.245 0 5.407-.54 7.03-2.163 1.08-1.622 2.162-3.244 2.162-4.866s-.54-2.703-1.622-3.785-3.244-1.622-6.488-1.622h-2.704v12.436zm-7.57 21.087v-38.39h14.6c2.703 0 5.406.542 6.488 1.082 1.622.541 2.703 1.622 3.784 3.244s1.082 3.245 1.082 4.867a10.381 10.381 0 0 1-2.163 6.488c-1.081 2.163-3.244 3.785-5.407 4.866l12.436 17.843h-9.732l-9.733-15.68h-4.325v15.68h-7.03zm36.768-38.93h8.11v38.39h-8.11zm11.354 45.418v-5.947c2.163 1.08 4.326 1.08 6.488 1.08 1.082 0 1.622 0 2.704-.54l1.622-1.622c.54-.54.54-2.163.54-4.866v-34.063h8.11v32.982c0 3.784-.54 6.488-1.08 8.11-1.082 1.622-2.163 3.244-3.785 3.785-1.622 1.081-4.326 1.622-7.03 1.622-3.243.54-5.406.54-7.569-.54m28.657-6.49v-38.929h24.871v5.407h-16.761v10.814h14.058v5.407h-14.058v11.895h17.843v5.407zm-114.086 31.902h8.11v23.79c0 4.325.541 7.029 2.163 8.651s3.244 2.163 5.407 2.163 4.326-.54 5.407-2.163 2.163-3.785 2.163-8.11v-24.331h7.029v23.79c0 4.325-.541 7.57-1.622 9.732s-2.704 3.245-4.867 4.326-4.866 1.622-8.11 1.622-5.948-.54-8.11-1.622-4.326-2.704-5.407-4.866-2.163-5.407-2.163-9.733v-23.25zm40.011 38.389v-38.39h7.03l17.842 26.494v-26.493h6.488v38.389h-7.029l-17.843-25.954v25.954zm41.633-38.39h8.11v38.39h-8.11zm27.575 38.39-14.058-38.39h8.652l10.813 29.739 10.814-29.738h5.948l-14.058 38.389zm26.494 0v-38.39h24.331v5.407h-16.22v10.814h13.517v4.866H776.43v11.896h17.842v5.407zm40.011-21.087h1.622c3.245 0 5.407-.541 7.03-2.163 1.08-1.622 2.162-3.244 2.162-4.866s-.54-2.704-1.622-3.785-3.244-1.622-6.488-1.622h-2.704v12.436zm-7.57 21.087v-38.39h14.6c2.703 0 5.406.541 6.488 1.082 1.622.54 2.703 1.622 3.784 3.244s1.082 3.244 1.082 4.866a10.381 10.381 0 0 1-2.163 6.489 8.597 8.597 0 0 1-5.407 4.325l12.436 17.843h-9.732l-9.733-15.68h-4.325v15.68h-7.03zm33.523 0v-6.489c3.245 1.082 5.407 2.163 7.03 2.163s2.703.54 4.325.54c2.163 0 3.785-.54 4.866-1.621s1.622-2.163 1.622-3.785c0-1.082-.54-2.163-1.081-2.704-.54-1.081-2.163-2.162-4.326-3.244l-2.703-1.622c-3.785-2.163-6.488-3.785-7.57-5.947-1.081-1.622-2.163-3.785-2.163-5.948 0-2.703 1.082-5.407 3.245-7.57s5.406-3.244 9.732-3.244c3.244 0 6.488.54 10.273 1.082v5.947c-3.785-1.622-7.029-2.163-9.732-2.163-2.163 0-3.244.541-4.326 1.082-1.081 1.081-1.622 1.622-1.622 3.244 0 1.081.54 1.622 1.081 2.703.541.541 2.163 1.622 4.326 3.245l2.703 1.622c4.326 2.162 7.03 4.325 8.11 5.947s1.623 3.785 1.623 5.948c0 3.244-1.082 5.947-3.785 8.11-2.163 2.163-6.488 3.244-11.354 3.244-2.163.541-5.948 0-10.274-.54m32.983-38.39h8.11v38.39h-8.11zm24.871 38.39v-32.983H878.08v-5.406h35.686v5.406h-14.058v32.983zm24.872 0v-38.39h24.331v5.407H924.58v10.814h14.058v4.866H924.58v11.896h18.383v5.407zm32.441-38.39h8.11v38.39h-8.11zm-308.734 93.54h11.896l-5.948-15.14-5.948 15.14zm-11.895 15.68 15.14-38.389h8.11l15.14 38.389H659.1l-3.785-10.273h-16.22l-3.786 10.273h-6.488zm43.255 0v-38.93h10.274l9.732 27.575 9.192-27.575h9.732v38.93h-7.57V585.97l-9.732 26.494h-6.488l-9.192-27.035v29.738zm46.5-.54v-6.489c3.244 1.081 5.407 2.163 6.488 2.163 1.622 0 2.703.54 4.326.54 2.162 0 3.784-.54 4.866-1.622s1.622-2.162 1.622-3.784c0-1.082-.54-2.163-1.082-2.704-.54-1.081-2.162-2.163-4.325-3.244l-2.704-1.622c-3.784-2.163-6.488-3.785-7.57-5.948-1.08-1.622-2.162-3.785-2.162-5.947 0-2.704 1.081-5.407 3.244-7.57s5.407-3.244 9.733-3.244c3.244 0 6.488.54 10.273 1.081v5.948c-3.785-1.622-7.03-2.163-9.733-2.163-2.162 0-3.244.54-4.325 1.081-1.082 1.082-1.622 1.623-1.622 3.245 0 1.081.54 1.622 1.081 2.703.54.54 2.163 1.622 4.326 3.244l2.703 1.622c4.326 2.163 7.029 4.326 8.11 6.489 1.082 1.622 1.622 3.784 1.622 5.947 0 3.244-1.08 5.948-3.784 8.11-2.163 2.163-6.489 3.245-11.355 3.245-1.622 0-5.407 0-9.732-1.082m39.47.541v-33.523H744.53v-5.407h35.685v5.407h-14.058v33.523zm25.413 0v-38.93h24.33v5.407h-16.22v10.814h13.517v5.407H791.57v11.895h17.843v5.407zm39.47-21.087h1.622c3.244 0 5.407-.54 7.029-2.163 1.081-1.622 1.622-3.244 1.622-4.866s-.54-2.703-1.622-3.785-3.244-1.622-6.488-1.622h-2.704v12.436zm-7.57 21.087v-38.389h14.599a24.007 24.007 0 0 1 7.029 1.081c1.622.541 2.703 1.622 3.785 3.245s1.622 3.244 1.622 4.866a10.381 10.381 0 0 1-2.163 6.488c-1.081 2.163-3.244 3.785-5.407 4.866l12.436 17.843h-9.732l-9.733-15.68h-4.325v15.68h-8.11zm43.796-5.407h5.948c3.244 0 5.407-.54 7.029-1.622s2.703-2.703 3.785-4.866 1.622-4.866 1.622-7.57-.541-5.407-1.622-7.029c-1.082-2.163-2.163-3.785-3.785-4.866s-4.326-1.622-8.651-1.622h-4.867v27.575zm-8.11 5.407v-38.389h16.761c4.326 0 8.11.54 10.273 2.163 2.704 1.622 4.326 3.785 5.948 6.488s2.163 5.948 2.163 10.273c0 3.785-.541 7.03-2.163 10.273s-3.244 5.407-5.948 7.03-6.488 2.703-10.813 2.703h-16.221zm47.58-15.68h11.896l-5.948-15.14-5.947 15.14zm-11.895 15.68 15.14-38.389h8.11l15.14 38.389h-8.111l-3.785-10.273h-16.22l-3.785 10.273h-6.489zm42.174 0v-38.93h10.814l9.192 27.575 9.732-27.575h9.192v38.93h-7.57V585.97l-9.192 26.494h-6.488l-9.192-27.035v29.738z" fill="#0089cf"/></svg>