<svg xmlns="http://www.w3.org/2000/svg" width="1000" height="1000"><path fill="rgba(255,255,255,0)" d="M0 0h1000v1000H0z"/><path vector-effect="non-scaling-stroke" transform="matrix(1.9307 0 0 1.9307 -20.017328 953.970162)" d="M53.029-181.133l-13.714-32.799c-.192-.523.279-.56 7.154-.56 6.712 0 7.379.049 7.58.56.121.308 2.882 7.826 6.136 16.707l6.167 16.595c.165.295.705-.795 1.58-3.187l6.216-17.075 4.886-13.44 7.422-.086 7.422-.086-1.052 2.486-13.51 32.804-12.618 30.319c-.088 0-6.239-14.507-13.668-32.238zm55.259 31.942c-4.527-.618-9.156-3.152-11.828-6.476-1.634-2.032-3.635-6.082-4.322-8.744-.841-3.259-1.156-7.585-.789-10.825.748-6.607 2.616-10.912 6.353-14.648 3.815-3.812 7.727-5.407 13.263-5.407 4.516 0 8.216 1.348 10.987 4.003.822.788 1.53 1.398 1.571 1.355s.197-1.086.345-2.318l.269-2.24 5.84-.087 5.84-.087v22.414 22.414l-5.84-.087-5.84-.087-.271-2.324-.271-2.324-1.73 1.581c-3.369 3.08-8.576 4.57-13.577 3.888zm10.236-12.364c.984-.535 2.248-1.601 2.948-2.486l1.225-1.549v-6.58-6.58l-1.013-1.319c-2.252-2.933-5.215-4.266-8.679-3.904-3.898.407-6.647 2.839-7.948 7.03-.569 1.834-.656 2.75-.537 5.653.128 3.098.252 3.685 1.173 5.558 1.864 3.786 4.522 5.379 8.696 5.211 1.945-.078 2.746-.278 4.135-1.034zm73.777 12.322c-4.513-.498-10.302-2.498-12.589-4.35l-.743-.602 2.453-4.554c1.349-2.504 2.522-4.554 2.605-4.554s.611.344 1.171.764c2.939 2.205 6.747 3.417 10.828 3.446 3.218.023 4.804-.41 5.706-1.556.706-.898.866-2.922.314-3.955-.485-.907-2.915-2.025-6.54-3.01-9.271-2.519-12.858-4.902-14.286-9.49-1.463-4.7-.081-10.079 3.447-13.416 3.322-3.141 8.392-4.785 14.737-4.777 5.539.007 12.237 1.77 14.93 3.93l.916.735-2.371 4.522-2.371 4.522-1.586-.992c-4.802-3.005-12.087-3.689-14.422-1.353-.556.556-.763 1.119-.763 2.073 0 1.833 1.035 2.694 4.454 3.703 10.296 3.039 12.79 4.247 15.117 7.323 4.038 5.337 2.232 14.281-3.675 18.202-4.258 2.826-10.815 4.109-17.332 3.39zm91.211-.006c-3.856-.579-6.95-2.048-9.729-4.622-4.934-4.568-7.348-11.359-6.992-19.671.302-7.044 2.374-12.317 6.466-16.458 3.585-3.627 7.678-5.302 12.96-5.302 4.688 0 8.088 1.197 11.027 3.884 1.934 1.767 1.886 1.797 2.251-1.411l.21-1.847 5.816.087 5.816.087.082 22.32.082 22.32h-5.903-5.903l-.2-1.52c-.11-.836-.277-1.929-.372-2.43l-.171-.91-.848.979c-2.913 3.364-9.205 5.301-14.593 4.493zm9.19-11.677c1.664-.567 4.021-2.496 5.014-4.103.608-.984.66-1.563.66-7.339v-6.27l-1.36-1.659c-2.644-3.225-6.457-4.462-10.304-3.344-4.94 1.436-7.78 7.636-6.601 14.408.769 4.418 3.145 7.417 6.743 8.511 1.386.422 4.309.319 5.847-.205zm46.369 9.464l-10.612-22.56-9.509-20.246c-.133-.323 1.303-.388 6.979-.32l7.147.086 4.08 10.4 4.215 10.72c.075.176 2.55-4.576 5.502-10.56l5.367-10.88 5.354 10.88c5.193 10.551 5.366 10.851 5.726 9.92l4.274-10.72 3.902-9.76 6.96-.086c5.083-.063 6.96.013 6.96.282 0 .385-20.737 44.73-21.131 45.187-.124.144-2.816-4.583-5.981-10.505s-5.882-10.775-6.039-10.784-2.704 4.502-5.662 10.025l-5.82 10.841c-.435.787-.462.757-1.713-1.92zm63.149 2.206c-4.473-.471-10.29-2.475-12.592-4.339l-.746-.604 2.306-4.311c1.269-2.371 2.42-4.436 2.56-4.588s.733.084 1.32.524c3.055 2.293 6.821 3.491 10.979 3.491 3.222 0 4.898-.514 5.779-1.771.543-.776.619-2.848.137-3.749-.485-.907-2.915-2.025-6.54-3.01-10.729-2.916-14.298-5.859-14.795-12.203-.586-7.474 4.376-13.296 12.774-14.988 3.361-.677 8.684-.631 12.259.107 3.207.662 7.188 2.205 8.591 3.331l.916.735-2.378 4.536c-2.326 4.435-2.394 4.525-3.067 4.053-4.101-2.872-10.833-4.176-14.041-2.719-1.54.699-2.026 1.432-2.026 3.054 0 1.663 1.139 2.571 4.454 3.549 10.296 3.039 12.79 4.247 15.117 7.323 2.96 3.912 2.875 10.274-.198 14.736-2.677 3.887-7.334 6.187-13.887 6.858-1.823.187-3.551.32-3.84.297a254.61 254.61 0 0 1-3.082-.312zm97.931.007c-7.793-1.169-13.437-6.549-15.918-15.173-.632-2.198-.736-3.285-.733-7.68.004-6.026.419-8.026 2.613-12.604 3.252-6.785 9.275-10.596 16.743-10.596 4.613 0 8.319 1.336 11.213 4.044l1.528 1.43.168-.897c.093-.493.259-1.581.369-2.417l.2-1.52h5.74 5.74v22.4 22.4h-5.735-5.735l-.165-.88c-.091-.484-.257-1.575-.369-2.425l-.204-1.545-1.155 1.189c-3.289 3.386-8.948 5.077-14.304 4.274zm9.19-11.677c1.664-.567 4.021-2.496 5.014-4.103.607-.982.66-1.564.66-7.213v-6.145l-.969-1.408c-2.444-3.552-6.584-5.041-10.695-3.846-2.462.716-4.872 3.058-5.955 5.788-.647 1.631-.759 2.471-.764 5.75-.006 3.533.065 3.992.881 5.746 1.314 2.821 2.235 3.85 4.429 4.946 2.301 1.15 4.937 1.322 7.399.483zm-479.27-4.227l-12.843-32.309-6.779-17.04h7.105 7.105l10.62 27.12 12.665 32.32 2.046 5.2-6.927-.011-6.927-.011zm118.302-7.029l.082-22.32h5.76 5.76l.261 2.08c.479 3.816.319 3.703 2.299 1.627.968-1.015 2.455-2.224 3.304-2.686 1.81-.985 4.805-1.821 6.523-1.821h1.213v6.354 6.354l-2.302.193c-2.99.251-5.795 1.611-8.124 3.94l-1.734 1.734v13.433 13.433h-6.562-6.562zm73.616 21.92c.089-.22 4.269-7.744 9.287-16.72l9.124-16.32-8.612-.085-8.612-.085v-5.595-5.595h18.4c14.507 0 18.4.085 18.4.4 0 .22-4.099 7.744-9.108 16.72l-9.108 16.32 9.108.085 9.108.085v5.595 5.595h-19.074c-15.133 0-19.041-.083-18.911-.4zm213.346-33.04v-33.44h6.56 6.56v22.789c0 19.551.064 22.722.448 22.32.247-.258 3.651-5.365 7.565-11.349l7.489-11.286c.284-.31 2.083-.386 7.626-.32l7.254.086-6.711 9.109-6.709 9.28c0 .094 3.309 6.003 7.352 13.131l7.349 12.96-7.271.086c-6.297.075-7.32.019-7.638-.415-.202-.276-2.2-3.673-4.441-7.549s-4.176-6.93-4.3-6.785-2.589 3.539-5.479 7.543l-5.253 7.28h-5.2-5.2zM87.989-253.866c-5.393-.846-9.496-2.887-13.14-6.535-2.838-2.841-4.391-5.442-5.643-9.451-.632-2.024-.749-3.077-.744-6.72.006-5.064.46-7.136 2.451-11.2 1.88-3.836 5.691-7.635 9.544-9.515 4.233-2.066 6.135-2.473 11.52-2.468 4.362.004 4.813.065 7.536 1.006 3.49 1.207 6.085 2.693 8.526 4.882 4.819 4.321 7.692 11.786 7.203 18.715-.588 8.337-4.769 14.997-11.748 18.716-4.095 2.183-10.844 3.301-15.505 2.57zm7.302-11.699c2.181-.743 4.703-3.178 5.834-5.633.845-1.834.928-2.328.93-5.533.002-3.168-.086-3.707-.873-5.387-1.347-2.876-2.586-4.225-4.951-5.389-1.773-.873-2.472-1.039-4.382-1.044-2.777-.006-4.219.467-6.207 2.038-2.876 2.274-4.488 6.657-4.107 11.172.402 4.769 2.957 8.448 6.825 9.827 1.667.595 5.109.569 6.931-.052zm94.766 11.576c-4.494-.889-6.934-2.141-9.375-4.812-.891-.975-1.989-2.553-2.441-3.508-1.595-3.371-1.775-4.968-1.78-15.783l-.005-10h-4-4v-5.44-5.44h4 4v-7.52-7.52h6.394 6.394l.086 7.44.086 7.44 6.32.087 6.32.087v5.433 5.433h-6.4-6.4l.014 8.4c.015 8.944.186 10.694 1.179 12.035 1.291 1.744 2.528 2.287 5.175 2.271 1.338-.008 3.009-.227 3.713-.488s1.409-.507 1.566-.546 1.011 2.198 1.896 4.972c1.881 5.894 2.019 5.459-2.158 6.804-3.162 1.018-7.417 1.281-10.585.654zm37.44.131c-9.746-1.483-16.871-8.04-18.896-17.394-.868-4.008-.54-9.705.784-13.623 2.462-7.283 7.143-11.872 14.432-14.148 2.056-.642 3.042-.747 6.88-.729 3.968.018 4.776.118 7.065.876 8.757 2.901 13.575 11.126 13.575 23.175v2.328h-15.04-15.04l.003 1.04c.004 1.419 1.289 4.023 2.598 5.264 2.054 1.948 3.817 2.498 7.959 2.483 3.271-.012 3.88-.106 5.48-.845.99-.457 2.375-1.351 3.079-1.987s1.375-1.155 1.493-1.155 1.966 1.332 4.107 2.96l4.227 3.209c.205.153-.614 1.155-2.112 2.585-2.813 2.686-5.808 4.327-9.733 5.331-2.941.752-8.089 1.05-10.861.629zm10.874-28.874c-.551-3.372-2.558-6.096-5.152-6.992-1.979-.683-5.164-.538-6.927.316-1.988.962-3.954 3.232-4.556 5.261-.899 3.026-1.638 2.775 8.19 2.775h8.668zm39.143 28.876c-2.68-.425-6.542-1.802-8.734-3.115-2.982-1.786-6.194-5.267-7.784-8.436-1.889-3.764-2.619-6.92-2.619-11.325 0-6.858 2.118-12.255 6.533-16.644 4.277-4.253 8.806-6.176 15.235-6.47 4.267-.195 7.621.464 11.144 2.19 2.205 1.08 5.925 4.368 7.451 6.586l.938 1.364-4.332 3.207c-2.382 1.764-4.451 3.207-4.596 3.207s-.711-.621-1.256-1.381c-3.285-4.575-10.157-5.414-14.321-1.749-.852.75-1.828 2.088-2.461 3.374-.949 1.928-1.06 2.457-1.167 5.567-.139 4.062.372 6.105 2.171 8.683.896 1.284 1.654 1.916 3.307 2.759 1.873.955 2.446 1.093 4.53 1.093 2.033 0 2.69-.15 4.45-1.016 1.893-.932 3.808-2.616 4.616-4.06.29-.518.749-.27 4.44 2.397l4.415 3.247c.444.407-1.871 3.583-4.046 5.551-2.133 1.931-5.583 3.776-8.412 4.5-2.409.617-7.11.849-9.503.47zm222.364-.01c-6.914-1.162-12.323-5.76-14.799-12.58-2.203-6.069-2.354-13.298-.406-19.406 2.787-8.739 9.677-14.071 18.184-14.071 4.605 0 8.392 1.384 11.205 4.095l1.577 1.52.19-1.452a54.6 54.6 0 0 1 .355-2.332l.165-.88h5.735 5.735v22.24 22.24h-5.735-5.735l-.165-.88c-.091-.484-.253-1.553-.361-2.376l-.197-1.496-1.44 1.44c-3.173 3.173-9.119 4.809-14.307 3.938zm9.131-11.521c1.521-.422 3.616-2.019 4.959-3.78l1.049-1.376v-6.252-6.252l-1.13-1.539c-3.637-4.955-10.656-5.454-14.546-1.035-1.744 1.981-2.604 4.417-2.801 7.929-.336 6.005 2.064 10.695 6.236 12.183 1.446.516 4.592.578 6.233.122zM15.817-286.812v-32.32h6.72 6.72v32.32 32.32h-6.72-6.72zm108.16-1.12v-33.44h6.56 6.56v33.44 33.44h-6.56-6.56zm24.64 11.2v-22.24h6.4 6.4v22.24 22.24h-6.4-6.4zm158.72-11.2v-33.44h6.4 6.4v12.96l.189 12.96c.104 0 .777-.503 1.496-1.118 2.568-2.198 6.138-3.362 10.315-3.362 8.216 0 13.619 4.296 15.898 12.64.663 2.427.706 3.343.825 17.68l.126 15.12h-6.572-6.572l-.093-14c-.091-13.705-.107-14.028-.794-15.31-1.502-2.806-4.002-4.169-7.129-3.885-2.39.217-3.97 1.064-6.012 3.223l-1.678 1.774v14.099 14.099h-6.4-6.4zm52.48 11.2v-22.24h5.74 5.74l.197 1.52c.431 3.325.329 3.245 2.021 1.59 2.707-2.648 6.586-4.07 11.101-4.07 4.749 0 8.587 1.457 11.492 4.362 2.035 2.035 3.393 4.586 4.407 8.278.669 2.435.709 3.3.824 17.68l.121 15.12h-6.57-6.57l-.093-14c-.091-13.705-.107-14.028-.794-15.31-1.513-2.827-3.998-4.169-7.186-3.88-2.326.211-4.167 1.245-6.156 3.457l-1.477 1.643v14.045 14.045h-6.4-6.4zm52.48 0v-22.24h6.4 6.4v22.24 22.24h-6.4-6.4zm24.32-11.2v-33.44h6.558 6.558l.082 22.865.082 22.865 7.67-11.665 7.67-11.665h7.29c4.01 0 7.29.067 7.29.15s-2.893 4.065-6.429 8.85l-6.573 9.076c-.079.206 3.16 6.196 7.198 13.31l7.342 12.935-7.081.086c-3.895.048-7.239.026-7.431-.048s-2.27-3.463-4.617-7.532l-4.267-7.398-2.048 2.806-5.447 7.526-3.399 4.72h-5.224-5.224zm-396.48 5.748v-5.908h1.086c1.742 0 5.052-1.177 6.365-2.263.666-.551 1.597-1.743 2.068-2.649.75-1.442.859-2.028.869-4.688.011-2.702-.085-3.223-.857-4.688-1.458-2.765-4.204-4.496-8.011-5.05l-1.52-.221v-5.789-5.789l3.12.193c3.605.223 7.926 1.372 10.791 2.872 2.756 1.442 6.786 5.564 8.076 8.26 3.585 7.494 2.846 16.854-1.818 23.047-3.811 5.061-9.65 7.79-18.01 8.419l-2.16.162zm111.52-24.115c-5.869-2.717-5.344-12.235.775-14.068 1.808-.542 4.48-.435 5.963.238 2.462 1.118 4.302 4.112 4.302 7s-1.943 5.855-4.55 6.941c-1.641.684-4.894.628-6.49-.111zm263.601-.067c-2.6-1.287-3.998-3.699-3.999-6.903-.003-4.582 3.023-7.476 7.796-7.457 6.218.025 9.519 7.27 5.68 12.463-1.781 2.408-6.524 3.358-9.476 1.896z" fill="#2d3843"/></svg>