<svg xmlns="http://www.w3.org/2000/svg" width="1000" height="1000"><g vector-effect="non-scaling-stroke" transform="matrix(1.3783 0 0 1.3783 499.976 499.9831)"><g fill="#381350"><path d="M339.4 206.5h-3.5v35.2h3.5V223h.1l17.6 18.7h5.3l-18.7-19.2 17.7-16h-5.1l-16.7 15.8h-.1zm-13.7 27.7c-1.1 1.7-2.7 3.1-4.6 4-1.8.8-3.8 1.3-5.8 1.3-2.1 0-4.2-.4-6.1-1.3-1.7-.8-3.3-1.9-4.6-3.3s-2.3-3.1-2.9-4.9a16.82 16.82 0 0 1 0-11.7c.6-1.8 1.6-3.5 2.9-4.9 2.7-3 6.6-4.7 10.7-4.6 1.1 0 2.1.1 3.1.4.9.2 1.8.6 2.7 1 .8.4 1.5.9 2.2 1.5.6.5 1.1 1.1 1.5 1.7l3-2.2c-.6-.9-1.4-1.7-2.2-2.3-.9-.7-1.9-1.3-3-1.7-1.1-.5-2.3-.9-3.5-1.2-1.3-.2-2.5-.4-3.8-.4-2.5 0-5 .5-7.3 1.4-2.2.9-4.2 2.2-5.8 3.8-3.4 3.5-5.3 8.3-5.2 13.2 0 2.5.5 5 1.4 7.4.9 2.2 2.1 4.2 3.8 5.8s3.6 3 5.8 3.9c2.3.9 4.8 1.4 7.3 1.4 1.5 0 3-.2 4.4-.5 1.3-.3 2.5-.8 3.7-1.5q1.65-.9 3-2.1a26.22 26.22 0 0 0 2.2-2.5zM289 206.5h-3.5v35.2h3.5zm-53.2 0H232l10.4 35.2h4.2l8.8-30.2h.1l8.8 30.2h4.2l10.4-35.2h-3.8l-8.6 30.2h-.2l-8.8-30.2h-4.3l-8.8 30.2h-.1zm-27.9 3.1h6.3c1.2 0 2.4.1 3.6.4 1 .2 1.9.6 2.8 1.1.8.5 1.4 1.1 1.8 1.9.5.9.7 2 .7 3 .1 1.9-.8 3.7-2.3 4.7-2 1.2-4.3 1.7-6.6 1.6H208zm0 15.6h6l9.8 16.4h4.3l-10.3-16.7c1.2-.1 2.4-.4 3.5-.9 1.1-.4 2-1.1 2.8-1.9s1.4-1.7 1.9-2.8.7-2.3.7-3.5c.1-1.5-.3-3-.9-4.3-.6-1.2-1.4-2.2-2.5-2.9-1.2-.8-2.4-1.3-3.8-1.6-1.6-.3-3.2-.5-4.8-.5h-10.3v35.2h3.5zm-26.1-14.7l7.8 18.7h-15.5zm-9.1 21.9h18.2l3.8 9.2h4l-15.1-35.2h-3.5l-15.2 35.2h3.9zm-49-25.9h-3.8l10.4 35.2h4.1l8.8-30.2h.1l8.8 30.2h4.2l10.3-35.2h-3.7l-8.6 30.2-8.8-30.2h-4.3l-8.8 30.2h-.1zm-37 18.5h16.4v-3.2H86.7v-12.1h17.6v-3.2H83.1v35.2h3.5zm-16.3 5c-.6 1.8-1.6 3.5-2.9 4.9-2.7 3-6.6 4.6-10.7 4.6-2.1 0-4.2-.4-6.1-1.3-3.5-1.6-6.2-4.5-7.5-8.2-1.3-3.8-1.3-7.9 0-11.7 1.3-3.6 4-6.6 7.5-8.2 1.9-.9 4-1.3 6.1-1.2 2.1 0 4.2.4 6.1 1.2 1.7.8 3.3 1.9 4.6 3.4 1.3 1.4 2.3 3.1 2.9 4.9 1.4 3.7 1.4 7.8 0 11.6m3.4-13.3c-.9-2.2-2.2-4.2-3.8-5.8-1.7-1.7-3.7-3-5.9-3.8-2.3-.9-4.8-1.4-7.3-1.4s-5 .5-7.3 1.4c-2.2.9-4.1 2.2-5.8 3.8-1.7 1.7-3 3.7-3.8 5.8-.9 2.4-1.4 4.9-1.4 7.4s.5 5 1.4 7.4c.9 2.2 2.2 4.2 3.8 5.8 1.7 1.6 3.6 2.9 5.8 3.9a20.41 20.41 0 0 0 14.6 0c2.2-.9 4.2-2.2 5.9-3.9s3-3.7 3.8-5.8c1.8-4.7 1.8-10 0-14.8m-63.4 9.8l13.1-20h-4.2l-10.7 17-10.6-17h-4.5l13.2 20v15.2h3.6zm-32.6-16.8h11.8v-3.2h-27.1v3.2h11.8v32h3.5zm-20.3-3.1H-46v35.1h3.5zm-11.5 3.3c-1-1.3-2.3-2.3-3.8-3-1.9-.9-4-1.3-6.1-1.3-1.3 0-2.6.2-3.9.5q-1.95.6-3.6 1.8c-1.1.8-2 1.8-2.6 3-.7 1.4-1 2.9-1 4.4 0 1.4.3 2.7.8 4 .5 1.1 1.3 2 2.2 2.8q1.35 1.05 3 1.8c1.1.5 2.3.9 3.4 1.3s2.2.7 3.2 1.1c1 .3 1.9.8 2.7 1.4.8.5 1.4 1.2 1.9 2 1 1.9 1 4.1 0 6-.5.8-1.1 1.5-1.9 2.1-.7.6-1.6 1.1-2.5 1.3-.9.3-1.8.4-2.7.4-1.7 0-3.4-.4-4.8-1.3-1.3-.8-2.4-1.8-3.2-3.1l-3.1 2.3c.6.8 1.4 1.6 2.2 2.3s1.7 1.2 2.7 1.6c1 .5 2 .8 3 1s2.1.3 3.2.3q2.1 0 4.2-.6c1.3-.4 2.6-1 3.7-1.9 1.1-.8 2-1.9 2.6-3.1.7-1.4 1-3 1-4.5.1-2.8-1.1-5.5-3.4-7.2-1-.7-2.2-1.3-3.4-1.8s-2.5-.9-3.7-1.3c-1-.4-1.9-.7-2.8-1s-1.7-.7-2.4-1.3c-.7-.5-1.3-1.1-1.7-1.9-.5-.8-.7-1.8-.7-2.8s.2-2 .7-3c.4-.8 1-1.5 1.8-2 .7-.5 1.5-1 2.4-1.2s1.8-.4 2.6-.4c1.5-.1 3 .3 4.3 1 1.2.6 2.2 1.5 3 2.5zm-46.5-.3h6.4c1.2 0 2.4.1 3.6.4 1 .2 1.9.6 2.8 1.1.8.5 1.4 1.1 1.8 1.9.5.9.7 2 .7 3 .1 1.9-.8 3.7-2.4 4.7-2 1.2-4.3 1.7-6.6 1.6h-6.2zm0 15.6h6l9.8 16.4h4.4l-10.3-16.7c1.2-.1 2.4-.4 3.5-.9 1.1-.4 2-1.1 2.8-1.9s1.5-1.7 1.9-2.8c.5-1.1.7-2.3.7-3.5.1-1.5-.3-3-.9-4.3-.6-1.2-1.4-2.1-2.5-2.9-1.2-.8-2.5-1.3-3.9-1.6-1.6-.3-3.2-.5-4.8-.5h-10.3v35.2h3.5v-16.5zm-29.8-.3h17v-3.2h-17v-12h18.1v-3.2H-134v35.2h22.4v-3.2h-18.8zm-35.7-18.4h-3.9l13.4 35.2h3.8l13.4-35.2h-3.9l-11.4 30.5h-.1zm-9.9 0h-3.5v35.2h3.5zm-36 0h-4.5v35.2h3.6v-30.2h.1l20.5 30.2h4.4v-35.2h-3.6v29.9h-.1zm-19.4 34.7a11.02 11.02 0 0 0 4-3.4c1-1.4 1.7-2.9 2-4.5.3-1.5.5-3.1.5-4.6v-22h-3.5v21.7c0 1.4-.1 2.8-.5 4.2-.3 1.3-.9 2.5-1.6 3.6-.8 1.1-1.8 1.9-3 2.5-1.4.7-2.9 1-4.5 1-1.6.1-3.1-.3-4.5-1-1.2-.6-2.2-1.5-3-2.5-.7-1.1-1.3-2.3-1.6-3.6-.4-1.4-.5-2.8-.5-4.2v-21.7h-3.6v22c0 1.6.2 3.1.5 4.6.4 1.6 1 3.2 2 4.5 1.1 1.4 2.4 2.6 4 3.4 2 1 4.3 1.5 6.5 1.4 2.3.1 4.5-.4 6.5-1.4m-58.3-16.3h17v-3.2h-17v-12h18.2v-3.2h-21.8v35.2h22.4v-3.2h-18.8zm-39 16.7h3.5v-16.7h19.2v16.6h3.6v-35.1h-3.6v15.3h-19.2v-15.2h-3.5zm-18.2-31.9h11.7v-3.2h-27.1v3.2h11.7v32h3.5zm95.2-38.4l32.1-109.5h-10.8l-27.8 97-25.8-87.7h-13.3l-26.2 87.7-27.8-97h-10.8l32.1 109.5h12.8l26.5-88.1 26.1 88.1zm381.3 0h10.5V61.8h-10.5zm0 0h10.5V61.8h-10.5zm0 0h10.5V61.8h-10.5zm218 0h15l-57.8-54.7 54.7-54.7h-14.4L289 116.6zM272.8 61.8h10.5v109.5h-10.5zm-445.3 0h-9.8l-48.9 109.5h10.9l12.6-29.1h60.5l12.6 29.1h10.9zm-31 71.2l26.1-60 26.1 60z"/><path d="M-172.5 61.8h-9.8l-48.9 109.5h10.9l12.6-29.1h60.5l12.6 29.1h10.9zm-31 71.2l26.1-60 26.1 60zm283.2 38.3l32.1-109.5h-10.7l-27.8 97L48 71.1H33.7L7.9 158.8l-27.8-97h-10.8L1.5 171.3h12.8l26.6-88.2 26 88.2zm136.5-6.5c-29.3 0-47.5-21-47.5-48.3 0-27.2 18.2-48.5 47.5-48.5 11.3 0 25.2 5.2 33 17l8.5-6.3c-10.6-14.2-25.2-19.9-41.6-19.9-34.2 0-57.9 24.4-57.9 57.8s23.7 57.6 57.9 57.6c16.4 0 31-5.7 41.6-20l-8.5-6.3c-7.8 11.6-21.7 16.9-33 16.9m-285-44.5c12.2-2.1 27.5-8.5 27.5-28.8 0-28.8-29.1-29.7-37.9-29.7h-31.4v109.5h10.4V71.1h22.4c22 0 26.1 12.9 26.1 20.5s-4.3 20.5-26.1 20.5h-11.9v9.3h10.5l30 50h11.9z"/></g><path d="M-252.9-242.8l142 250L.6-190l112 197.2 141.3-250z" fill="#381350"/></g></svg>
