<svg xmlns="http://www.w3.org/2000/svg" height="150" width="150"><path d="M75.049.414C33.97.414.547 33.838.547 74.916s33.423 74.502 74.502 74.502 74.502-33.423 74.502-74.502S116.128.414 75.049.414m0 2.247c39.842 0 72.252 32.413 72.252 72.255s-32.41 72.255-72.252 72.255S2.794 114.759 2.794 74.917 35.207 2.662 75.049 2.662zm0 2.167C36.411 4.828 4.978 36.263 4.978 74.9c0 38.658 31.435 70.108 70.072 70.108s70.068-31.45 70.068-70.108c0-38.638-31.432-70.072-70.068-70.072z" fill="#a51417"/><path d="M75.049 2.833C35.3 2.833 2.963 35.17 2.963 74.916S35.3 147 75.049 147s72.083-32.334 72.083-72.083S114.795 2.833 75.049 2.833m0 2.27c38.496 0 69.813 31.319 69.813 69.813s-31.316 69.817-69.813 69.817S5.233 113.414 5.233 74.917 36.551 5.103 75.049 5.103m4.149 2.474c-.36-.046-.431.035-.449.184a.32.32 0 0 0 .268.401c.617.17 1.09.504.977 1.387l-.857 6.729c-.062.495-.315 1.039-.922 1.145-.155.027-.418.067-.449.307s.195.267.404.294c.598.077 1.209.033 1.808.11s1.184.269 1.782.346c.689.087.876.068.899-.126.031-.24-.076-.362-.268-.401-.623-.124-1.096-.457-.941-1.685l.323-2.542c.023-.195.141-.257.53-.207.553.07.743.475.938.97l1.342 3.421c.252.642.739 1.01 1.174 1.064.495.064 2.268.197 2.351-.446.021-.163-.026-.278-.204-.301-.137-.017-.305.01-.469-.013-.135-.017-.244-.12-.372-.304-.627-.917-1.924-4.12-1.895-4.346.019-.149.465-.184.786-.31.658-.281 1.231-.741 1.361-1.759.315-2.467-1.715-3.105-3.719-3.36-.658-.085-1.781-.107-2.59-.21-1.062-.135-1.45-.304-1.808-.349zm-3.683.006c-1.159.05-2.315.219-3.476.268-1.161.035-2.319.132-3.486.032-.3.014-.557.026-.546.268s.332.36.802.401c.635.048.761 1.175.792 1.914l.246 5.678c.037.859-.038 1.228-.524 1.491-.265.147-.562.262-.55.504s.237.232.705.213c1.008-.046 2.014-.209 3.023-.252s2.023.031 3.033-.013c.708-.031 1.353-.799 1.523-1.41.093-.306.189-.898.175-1.2-.006-.151-.072-.283-.252-.275-.242.01-.373.526-.863 1.048s-1.343 1.041-2.926 1.109c-.799.035-1-.123-1.048-1.238l-.113-2.577c-.017-.377.11-.578.834-.611.873-.037 1.317.037 1.72.637.195.294.211.746.437.737.288-.012.277-.225.268-.437-.021-.453-.099-.902-.12-1.355s.022-.907.003-1.358c-.01-.211-.02-.421-.246-.411-.151.006-.207.051-.356.482-.211.658-.864.946-1.74.983-.602.027-.859-.039-.87-.281l-.116-2.635c-.025-.588.073-.728.495-.747l.98-.042c1.763-.077 2.217.298 2.364 1.242.021.135.078.405.32.394.226-.01.265-.133.259-.301-.017-.331-.091-.662-.103-.993s.031-.665.016-.996c-.014-.3-.312-.286-.66-.272zm-8.576.394c-.074-.015-.159.005-.226.019-.501.106-.98.331-1.481.437s-1.029.093-1.529.2c-.147.029-.325.066-.275.304.035.161.151.212.398.285.428.124.865.079 1.145.236.157.089.252.239.31.521.048.221-.007.54-.1.977l-1.028 4.902c-.062.292-.114.424-.2.443-.075.017-.161-.104-.488-.559l-3.02-4.155c-.174-.24-.4-.514-.456-.779-.072-.339-.094-.645.327-.844.224-.108.447-.217.398-.453s-.314-.178-.417-.155c-.664.141-1.304.398-1.966.537s-1.353.163-2.018.304c-.207.043-.354.075-.304.31s.213.2.443.275c.284.095.741.155 1.196.783l5.432 7.389c.325.441.464.581.686.534.161-.033.332-.1.521-.957l1.759-7.926c.211-.971.292-1.403.563-1.798.236-.344.546-.411.495-.647-.025-.118-.087-.166-.162-.181zm15.932.692q.19-.022.485.016c1.287.163 1.795 1.291 1.659 2.367-.19 1.496-.823 2.054-2.17 1.882-.956-.122-.912-.463-.889-.643l.375-2.949c.051-.404.156-.628.54-.673m10.645 1.423c-1.461-.09-2.721.86-3.072 2.173-1.062 3.978 4.649 4.271 4.016 6.645-.286 1.064-1.282 1.47-2.302 1.196-1.37-.366-2.145-1.667-2.377-2.962-.043-.246-.012-.659-.304-.737-.248-.066-.335.038-.362.139-.035.132-.016.356-.023.495l-.032 2.16c.004.221.235.297.372.365.842.412 1.576.935 2.509 1.183 2.171.582 3.76-.93 4.139-2.341 1.072-4.023-4.685-4.158-4.023-6.635.221-.83 1.131-1.134 2.021-.896 1.105.296 2.089 1.587 2.141 2.742.019.395.015.644.278.715.203.054.325-.052.375-.243.043-.159.163-1.549.414-2.37.052-.19.03-.29-.158-.34-.132-.035-.505.082-.666.039-.48-.128-1.074-.894-2.312-1.226a3.2 3.2 0 0 0-.634-.103zm-38.748.385c-.088.003-.189.045-.288.084-.561.221-1.075.553-1.636.776s-1.166.333-1.727.556c-.406.161-.813.323-.724.546s.241.28.427.22c.606-.19 1.183-.129 1.526.741l2.503 6.309c.184.464.296 1.035-.184 1.42-.124.097-.335.262-.246.485s.299.141.566.036c.559-.221 1.079-.558 1.639-.779s1.163-.333 1.597-.504c.408-.161.813-.323.724-.546s-.239-.278-.427-.22c-.319.095-1.194.132-1.539-.737l-2.503-6.304c-.182-.461-.367-1.006.113-1.39.124-.097.474-.32.385-.543a.2.2 0 0 0-.207-.146zm44.223 1.565a.17.17 0 0 0-.123.1c-.093.221-.027.364.149.453.565.29.93.742.566 1.601l-2.651 6.248c-.195.459-.516.942-1.129.88-.157-.017-.421-.047-.514.175s.116.312.378.424c.555.236 1.154.359 1.711.595s1.063.584 1.494.766c.404.17.804.341.899.12s.025-.368-.149-.459c-.294-.157-.946-.743-.582-1.604l2.652-6.248c.194-.457.447-.971 1.06-.909.155.019.558.105.653-.116s-.113-.308-.307-.391c-.555-.236-1.159-.362-1.714-.598s-1.061-.582-1.616-.818c-.303-.127-.604-.255-.776-.217zm-49.701.624c-.068.002-.137.041-.204.078-.466.244-.876.596-1.342.844s-.989.389-1.455.637c-.24.13-.492.265-.378.479s.52.115.909.01c.925-.252 1.411.532 1.879 1.41l1.607 3.023c.099.186.188.379.081.437-.079.041-.358-.033-.643-.12l-7.993-2.597c-.19-.068-.304-.06-.598.097-.399.209-.771.476-1.171.689s-.826.369-1.226.582c-.093.054-.175.094-.061.307s.321.153.873.133c.621-.021 1.212.604 1.481 1.109l2.668 5.022c.389.733.385 1.232-.11 1.972-.143.213-.267.366-.155.579s.262.132.394.061c.468-.248.873-.602 1.339-.85s.989-.389 1.455-.637c.24-.126.558-.296.417-.563-.135-.252-.558.008-.947.081-.745.139-1.234-.234-1.581-.886l-2.528-4.752c-.172-.321-.15-.379-.084-.414s.48.067.909.197l8.821 2.807c.511.155 1.03.305 1.177.226.159-.085.131-.274-.181-.86l-3.415-6.419c-.389-.731-.396-1.222.097-1.963.145-.213.269-.366.155-.579-.057-.107-.12-.141-.188-.139zm55.33 1.636c-.084.013-.148.075-.23.184l-.905 1.251c-.097.137-.229.304-.297.42-.046.079-.04.187.142.294q.214.123.301.016c1.08-1.099 1.701-.873 2.949-.142.627.364.878.649.605 1.119l-3.528 6.044c-.6 1.029-1.477.499-2.021.443-.182-.019-.381-.189-.546.097-.122.209.033.3.191.391.768.449 1.621.81 2.416 1.274s1.529 1.029 2.299 1.478c.155.091.31.184.43-.023.168-.288-.076-.378-.181-.527-.315-.447-1.207-.95-.605-1.979l3.525-6.04c.252-.43.558-.447 1.274-.029 1.25.731 1.751 1.162 1.323 2.642-.033.085.01.164.165.255.106.06.265.082.31.003a3 3 0 0 0 .142-.301l.649-1.402c.217-.466.199-.527-.126-.718-1.302-.764-2.702-1.442-4.029-2.218s-2.587-1.646-3.916-2.422c-.149-.086-.249-.123-.333-.11zm-66.767 4.614c-.062.002-.139.044-.255.139-.352.284-.667.617-1.019.902s-.741.52-1.093.805c-.294.24-.395.401-.281.54.151.188.396.128.605-.023.673-.486 1.281-.356 1.766.243l2.422 2.985c1.053 1.3 1.896 3.394-.2 5.093-1.44 1.169-3.154.927-4.265-.443l-2.952-3.646c-.341-.42-.46-.928-.226-1.429.112-.244.237-.425.123-.566-.095-.118-.21-.14-.492.087-.468.379-.861.853-1.329 1.232s-1.013.667-1.481 1.048c-.575.468-.632.609-.498.773.122.153.29.173.443.049.493-.399 1.09-.477 1.678.249l2.994 3.69c1.805 2.227 3.786 2.114 5.93.375 2.647-2.146 2.924-4.561.815-7.162l-2.024-2.496c-.826-1.02-.901-1.305-.676-1.723.132-.242.332-.423.181-.611-.057-.07-.103-.111-.165-.11zm76.154.967a.2.2 0 0 0-.123.078c-.153.186.028.416.255.686.273.306.369.759.162 1.804l-.97 4.734a.7.7 0 0 1-.158.378l-1.209 1.445c-.484.577-1.004.85-1.675.43-.294-.188-.546-.381-.74-.149-.203.242.12.511.443.783.522.437 1.12.78 1.513 1.109.555.466.998.991 1.52 1.426.325.271.648.545.85.301.195-.232-.04-.446-.278-.705-.532-.584-.358-1.144.126-1.723l1.517-1.814c.174-.209.448-.279.802-.394l3.554-1.216c1.049-.362 1.385-.437 1.869-.288.265.085.378.162.534-.023s.013-.302-.113-.407c-.406-.339-.888-.585-1.293-.925s-.731-.77-1.135-1.109c-.139-.116-.265-.22-.42-.036s-.11.318 0 .469c.404.553.669 1.035.398 1.358-.126.151-.314.304-.647.42l-2.409.857c-.279.101-.627.186-.673.149-.068-.058-.075-.242.023-.711l.582-2.836c.066-.337.148-.621.314-.818.077-.093.252-.088.469-.042.25.052.572.323.728.139s-.042-.351-.249-.527c-.522-.435-1.12-.776-1.639-1.213s-.963-.96-1.484-1.397c-.157-.13-.309-.256-.44-.233zM75.05 20.896c-29.781 0-54.011 24.225-54.011 54.007 0 29.794 24.231 54.037 54.011 54.037s54.007-24.241 54.007-54.037c0-29.783-24.228-54.007-54.007-54.007M22.905 32.55c-.059.033-.103.099-.146.162-.296.435-.493.938-.789 1.374s-.69.808-.986 1.245c-.153.226-.315.464-.116.598s.516-.144.812-.417c.697-.656 1.495-.19 2.319.369l2.836 1.918c.174.12.34.253.272.352-.05.075-.33.138-.624.194L18.2 39.79c-.201.027-.296.087-.482.362-.255.375-.457.783-.711 1.158s-.557.715-.812 1.09c-.058.087-.11.161.091.297s.354-.014.834-.291c.538-.31 1.353-.03 1.827.291l4.708 3.185c.687.466.914.912.825 1.798-.027.257-.066.445.133.582s.293 0 .378-.126c.296-.437.49-.944.786-1.381s.694-.805.989-1.242c.151-.224.352-.526.103-.695-.238-.161-.492.27-.802.514-.594.472-1.198.374-1.811-.042L19.8 42.273c-.3-.203-.315-.268-.272-.33s.455-.164.896-.249l9.112-1.646c.524-.099 1.055-.214 1.148-.352.101-.149-.015-.3-.566-.673L24.1 34.949c-.687-.466-.922-.896-.831-1.782.027-.257.065-.449-.136-.585-.099-.067-.171-.065-.23-.032zm106.372 2.694a.16.16 0 0 0-.155.013c-.203.13-.229.287-.136.459.304.559.352 1.138-.437 1.643l-5.714 3.657c-.42.269-.962.491-1.429.094-.12-.101-.321-.279-.524-.149s-.081.323.074.563c.325.509.752.949 1.077 1.458s.548 1.081.799 1.475c.236.368.473.738.676.608s.229-.291.136-.462c-.153-.296-.362-1.151.427-1.656l5.717-3.657c.418-.269.914-.553 1.384-.155.12.103.405.405.608.275s.081-.32-.032-.498c-.325-.507-.755-.951-1.08-1.458s-.548-1.082-.873-1.591c-.177-.276-.354-.552-.517-.618zm3.958 5.992c-.042-.02-.107-.017-.217.032-.221.099-.173.312-.188.867-.017.619-.681 1.167-1.203 1.403l-5.177 2.348c-.755.344-1.255.304-1.963-.236-.203-.157-.347-.29-.566-.191s-.153.248-.091.385c.217.482.546.914.763 1.394s.327 1.014.546 1.494c.112.248.258.577.534.453.261-.118.029-.561-.016-.954-.093-.753.31-1.216.983-1.52l4.902-2.221c.329-.149.389-.127.42-.058s-.098.472-.255.892l-3.36 8.627c-.188.499-.369 1.01-.301 1.161.075.166.266.147.87-.126l6.619-3.001c.755-.341 1.249-.317 1.956.223.203.157.347.29.566.191s.153-.253.091-.391c-.217-.48-.549-.908-.766-1.39s-.324-1.014-.543-1.494c-.112-.246-.23-.507-.449-.407s-.147.513-.068.909c.192.94-.62 1.375-1.526 1.785l-3.122 1.414c-.19.087-.387.161-.437.052-.037-.083.053-.358.158-.637l3.098-7.812c.083-.186.08-.299-.058-.601-.186-.412-.428-.801-.614-1.213s-.318-.847-.504-1.261c-.022-.048-.042-.093-.084-.113zM18.161 44.944c-2.085.01-3.884 1.353-4.795 3.486-1.233 2.885-.159 6.512 2.823 7.786 2.815 1.202 5.602-.099 6.816-2.942 1.233-2.885.434-6.539-2.687-7.874a5.4 5.4 0 0 0-2.157-.456m-.631 2.487c.946.029 1.882.241 2.59.543 1.983.846 3.241 2.744 2.542 4.382-.948 2.219-4.475 2.059-6.36 1.251-1.985-.846-3.238-2.744-2.538-4.382.592-1.387 2.191-1.843 3.767-1.795zm-6.147 7.786c-.511-.07-.564-.035-.647.333-.335 1.471-.564 3.011-.905 4.511s-.801 2.958-1.145 4.456c-.077.337-.019.43.239.521l1.465.488c.159.052.359.126.492.155.087.021.191-.018.236-.223q.056-.243-.071-.294c-1.372-.702-1.345-1.36-1.022-2.771.159-.706.356-1.029.886-.909l6.823 1.559c1.161.265.919 1.259 1.028 1.795.035.178-.066.417.259.492.234.054.274-.12.314-.297.199-.867.287-1.791.492-2.687s.526-1.766.724-2.635c.039-.176.079-.35-.155-.404-.325-.075-.337.182-.446.327-.331.435-.544 1.439-1.707 1.174l-6.821-1.56c-.486-.109-.588-.396-.404-1.202.323-1.411.585-2.018 2.124-2.053.091.006.149-.057.191-.233.027-.118.002-.277-.087-.297a3 3 0 0 0-.33-.045l-1.533-.197zm127.172 5.817a3 3 0 0 0-.576.032c-4.064.648-2.006 5.984-4.433 6.373-1.086.172-1.865-.571-2.031-1.614-.224-1.399.648-2.64 1.736-3.379.207-.139.597-.278.55-.576-.039-.255-.169-.295-.275-.278-.135.021-.331.129-.459.181l-1.985.85c-.199.095-.175.335-.181.488-.033.937-.215 1.822-.061 2.774.354 2.219 2.383 3.055 3.825 2.823 4.11-.656 1.886-5.965 4.417-6.37.851-.135 1.498.569 1.643 1.478.182 1.132-.6 2.555-1.633 3.072-.354.178-.581.274-.54.543.033.207.184.277.378.246.163-.025 1.479-.48 2.331-.585.195-.031.277-.092.246-.285-.023-.135-.282-.428-.307-.592-.079-.493.381-1.343.178-2.61-.244-1.537-1.488-2.517-2.823-2.574zm-124.65 5.217c-.151-.008-.247.096-.262.427-.029.6.03 1.209.003 1.811s-.149 1.199-.178 1.801c-.029.633-.011.878.2.886.24.012.352-.105.375-.268.091-.631.376-1.206 1.31-1.161l.902.045c1.43.068 1.881.751 1.817 2.092-.122 2.574-3.013 3.043-5.196 2.939-2.411-.114-4.314-1.021-4.194-3.521.054-1.144.345-2.201 2.713-3.418.11-.056.477-.203.485-.385.008-.149-.124-.232-.349-.243-.122-.006-.469.036-.711.055l-2.137.142c-.077.01-.167.05-.171.155-.021.451.45.341.433.718-.01.209-.87 1.48-.957 3.289-.143 2.997 2.23 5.525 5.452 5.678 3.057.145 5.153-2.005 5.3-5.093.091-1.941-.838-4.625-1.08-4.637l-2.199-.103c-.497-.025-1.063-.187-1.216-.783-.037-.153-.099-.416-.34-.427zm125.751 2.069c-.091 0-.179.061-.175.272q.004.25.139.268c1.5.352 1.631 1.001 1.656 2.448.012.724-.102 1.088-.647 1.096l-6.994.116c-1.192.021-1.195-1.008-1.429-1.5-.079-.166-.035-.421-.369-.417-.24.004-.24.185-.236.365.015.892.148 1.811.165 2.732s-.091 1.839-.074 2.729c.002.178.007.363.249.359.331-.006.28-.262.352-.43.219-.501.185-1.527 1.378-1.546l6.998-.116c.497-.008.668.244.682 1.074.023 1.447-.087 2.098-1.575 2.5-.089.017-.133.095-.129.275.002.12.064.27.155.268.106-.002.224-.019.33-.036l1.536-.178c.511-.054.556-.099.55-.475-.025-1.505-.17-3.055-.197-4.595s.07-3.064.045-4.601c-.006-.348-.083-.421-.356-.446l-1.539-.126c-.166-.012-.38-.04-.514-.036zM8.085 77.905c-.238.031-.218.197-.197.346.072.522.264 1.029.336 1.552s.023 1.064.094 1.588c.037.269.076.55.314.517s.288-.449.323-.851c.083-.954.987-1.136 1.972-1.27l3.392-.466c.209-.029.42-.04.437.078.012.091-.151.325-.333.563l-5.203 6.6c-.13.155-.162.266-.116.595.06.449.182.888.243 1.335s.066.906.126 1.355c.014.103.027.195.265.162s.255-.25.427-.776c.192-.59.985-.924 1.552-1.002l5.63-.77c.822-.112 1.29.069 1.814.789.149.209.248.374.488.343s.216-.197.197-.346c-.072-.524-.264-1.029-.336-1.552s-.023-1.061-.094-1.584c-.037-.269-.087-.627-.385-.585-.284.037-.184.526-.252.915-.126.747-.647 1.078-1.378 1.177l-5.336.728c-.358.048-.407.013-.417-.061s.23-.43.501-.786l5.681-7.305c.323-.424.644-.865.621-1.028-.025-.18-.212-.215-.87-.126l-7.198.983c-.822.112-1.287-.049-1.811-.77-.149-.207-.248-.379-.488-.346zm124.862.116c-.377-.031-1.45.91-1.481 1.287-.029.36.88 1.431 1.255 1.462.362.031 1.465-.878 1.494-1.238.031-.375-.907-1.481-1.268-1.51zm-2.422 9.481c-.232-.068-.315.204-.414.537-.159.534-.203 1.103-.362 1.639-.288.969-.99 2.915-1.277 3.884-.335 1.128.25 2.545 1.436 2.897.319.095.616.041.676-.162.108-.36-.32-.66-.653-1.293s-.545-1.611-.094-3.13c.219-.737.401-.87 1.5-.543l6.26 1.859c.478.141.975.478.983 1.093 0 .157-.002.424.23.495s.296-.15.356-.352c.163-.548.255-1.278.466-1.985.205-.695.532-1.368.737-2.063a.26.26 0 0 0-.184-.336c-.203-.06-.352.022-.407.21-.18.608-.63 1.007-1.526.741l-6.26-1.859c-.476-.141-.992-.359-1.164-.944-.11-.379-.069-.617-.301-.686zm-110.789 1.6c-.23.075-.291.22-.246.411.075.325.056 1.204-.834 1.494l-6.454 2.092c-.474.155-1.027.302-1.381-.2-.089-.13-.29-.495-.517-.42s-.16.291-.094.492c.186.575.486 1.111.673 1.685s.257 1.186.443 1.759c.135.416.271.831.501.757s.293-.22.246-.411c-.151-.619-.052-1.19.838-1.478l6.454-2.099c.474-.153 1.053-.227 1.407.278.089.128.239.349.469.275s.16-.289.071-.563c-.186-.573-.486-1.109-.673-1.685s-.258-1.185-.401-1.63c-.137-.416-.271-.831-.501-.757zm1.714 5.381c-.217.106-.257.261-.184.443.24.59.221 1.171-.618 1.584l-6.086 2.997c-.528.261-1.136.224-1.465-.136-.108-.114-.287-.309-.504-.204s-.116.308-.023.498c.267.542.642 1.031.909 1.572s.425 1.136.692 1.678c.195.389.387.78.605.673a.31.31 0 0 0 .181-.443c-.24-.588-.223-1.167.618-1.581l1.866-.919c.31-.153.507-.031.741.443l1.439 2.92c.174.352.1.574-.171.708l-1.869.918c-.445.219-1.036.311-1.458-.136-.108-.114-.292-.309-.508-.204s-.118.31-.023.498c.265.542.644 1.031.909 1.572s.425 1.135.692 1.675c.192.391.386.783.601.676s.259-.261.184-.443c-.238-.588-.221-1.167.618-1.581l6.091-3.003c.445-.219 1.039-.308 1.462.139.108.116.289.311.504.204s.118-.308.023-.498c-.265-.54-.641-1.028-.905-1.568s-.428-1.138-.695-1.678c-.192-.393-.386-.787-.601-.679s-.259.261-.184.443c.238.59.221 1.171-.618 1.584l-2.622 1.293c-.19.093-.455.172-.569-.058l-1.633-3.315c-.195-.391-.213-.498.22-.711l2.597-1.284c.447-.219 1.043-.308 1.465.139.108.116.287.311.504.204s.116-.308.023-.498c-.267-.54-.642-1.028-.909-1.568s-.425-1.138-.692-1.678c-.192-.393-.386-.787-.601-.679zm108.811 3.127c-2.023-.151-3.902.987-4.96 3.049-1.434 2.792-.895 6.492 2.124 8.042 2.843 1.459 5.739.215 7.153-2.535 1.432-2.79.613-6.479-2.27-7.961a5.4 5.4 0 0 0-2.047-.595m-1.736 2.435a7.46 7.46 0 0 1 3.486.753c1.919.985 3.035 2.967 2.221 4.55-1.101 2.146-4.602 1.739-6.425.802-1.919-.985-3.038-2.967-2.225-4.55.552-1.073 1.701-1.506 2.942-1.555zm-102.528 5.953c-.862.022-1.667.375-2.205.87-3.063 2.815 1.719 6.013-.168 7.748-.633.582-1.562.35-2.183-.327-.776-.844-.912-2.46-.336-3.46.197-.346.333-.552.149-.75-.143-.155-.303-.132-.446 0-.122.112-.971 1.218-1.623 1.778-.145.13-.181.227-.049.372.091.099.474.201.585.323.337.366.423 1.33 1.29 2.273 1.202 1.31 3.092 1.294 4.236.243 3.03-2.783-1.631-6.099.178-7.761.811-.745 1.87-.549 2.584.23.96 1.043.918 2.557.417 3.774-.093.23-.344.559-.139.783.174.188.3.15.378.078.099-.091.206-.287.285-.401l1.187-1.808c.114-.186-.039-.375-.12-.508-.488-.799-.824-1.635-1.478-2.344-.76-.827-1.679-1.134-2.542-1.112zm97.012 1.785c-1.26-.081-2.409.643-3.476 1.998-2.107 2.68-1.837 5.099.795 7.169l2.522 1.985c1.033.811 1.173 1.074 1.044 1.529-.077.267-.232.488-.042.637.141.114.218.113.404-.123.279-.356.51-.747.789-1.103s.61-.676.889-1.032c.234-.296.298-.475.155-.589-.19-.149-.412-.034-.582.158-.548.623-1.171.631-1.775.155l-3.023-2.376c-1.316-1.035-2.603-2.889-.935-5.012 1.149-1.457 2.87-1.6 4.259-.508l3.686 2.901c.426.335.655.8.537 1.342-.054.263-.136.467.006.579.118.093.236.092.459-.194.373-.474.653-1.023 1.025-1.497s.84-.874 1.213-1.348c.457-.582.482-.733.317-.863a.29.29 0 0 0-.446.052c-.391.497-.956.703-1.691.126l-3.735-2.936c-.845-.664-1.64-1.003-2.396-1.051zm-92.202 2.69c-.069-.027-.137-.01-.223.074-.172.17-.046.359.155.734.286.524-.079 1.182-.294 1.778l-3.179 8.456c-.064.19-.095.348-.052.391.095.097.244.056.66-.081l9.273-3.132c.255-.085.456-.117.766-.061.255.043.585.247.757.078s.046-.298-.103-.449c-.362-.364-.808-.641-1.171-1.006s-.636-.813-.996-1.177c-.17-.172-.287-.293-.459-.123s.138.653.349 1.038c.159.288.218.759.058.918-.461.457-1.838 1.227-2.38.679l-1.626-1.639c-.519-.524-.678-.77-.676-1.048.002-.321.604-1.552.873-1.817.277-.277.694-.348 1.025-.123.17.151.383.172.511.045.064-.064.075-.203-.074-.352-.509-.515-1.104-.944-1.572-1.416s-.889-1.071-1.4-1.584c-.085-.086-.154-.154-.223-.181zm84.979 4.071c-.126-.02-.259.103-.414.252-.435.416-.786.924-1.222 1.342s-.953.745-1.29 1.07c-.315.302-.633.603-.466.779s.327.166.479.042c.261-.209 1.06-.574 1.707.1l4.695 4.896c.346.36.72.794.42 1.332-.077.137-.316.475-.149.647s.329.018.482-.129c.435-.416.786-.921 1.222-1.339s.953-.748 1.387-1.164c.315-.302.633-.605.466-.779s-.327-.168-.479-.042c-.488.406-1.047.565-1.694-.11l-4.698-4.899c-.344-.358-.665-.848-.365-1.384.077-.139.21-.369.042-.543a.2.2 0 0 0-.123-.071m-84.595 2.551c.041-.045.19.063.53.407l1.148 1.158c.265.269.414.484.317.579-.031.033-.194.103-.417.178l-2.17.747c-.075.031-.384.168-.446.103-.075-.075-.044-.191.023-.404l.747-2.183c.087-.257.202-.521.268-.585m80.707 1.575c-.09.026-.176.077-.246.11-.84.418-1.701.68-2.467 1.268-1.782 1.368-1.553 3.55-.663 4.711 2.533 3.301 6.145-1.184 7.706.85.524.681.213 1.588-.517 2.147-.909.697-2.53.688-3.476.026-.325-.226-.522-.379-.737-.213-.168.128-.159.291-.039.446.101.132 1.129 1.073 1.63 1.772.118.155.207.201.362.081.11-.083.245-.452.375-.553.395-.304 1.364-.303 2.38-1.083 1.411-1.084 1.563-2.967.618-4.2-2.506-3.266-6.219 1.083-7.715-.867-.671-.873-.382-1.908.456-2.551 1.124-.863 2.629-.687 3.796-.081.221.114.528.391.766.207.203-.157.177-.287.113-.372-.083-.108-.27-.228-.375-.317l-1.694-1.342c-.088-.066-.182-.065-.272-.039zm-71.86.401c-.128-.014-.348.076-.889.427l-6.551 4.31c-.915.608-1.102.769-1.675.844-.412.058-.671-.125-.812.071s.036.319.146.398c.418.298.901.494 1.319.792s.768.695 1.183.993c.124.087.27.193.411-.003.079-.11.027-.297-.097-.589-.147-.366-.87-.784-.485-1.326.192-.269.484-.545.85-.802l3.404-2.391c.252-.172.476-.325.563-.265.05.035.019.127-.032.33l-1.306 4.641c-.072.281-.188.832-.327 1.028-.114.159-.316.367-.74.233-.228-.07-.448-.174-.589.023s-.031.275.178.424c.478.339 1.027.583 1.507.925s.89.781 1.368 1.122c.159.116.318.229.459.032s0-.313-.074-.495c-.093-.234-.248-.512-.084-1.025l.724-2.448 3.163-1.837c.137-.089.305-.169.33-.152.037.027-.004.161-.045.297l-1.462 5.015c-.159.536-.203.854-.281.964-.166.234-.373.422-.795.288-.228-.07-.451-.174-.592.023s-.028.275.181.424c.478.339 1.027.583 1.507.925s.887.781 1.365 1.122c.159.116.321.227.459.032s.003-.313-.071-.495c-.093-.234-.238-.501-.087-1.025l2.399-8.773c.176-.635.166-.75.006-.863-.147-.106-.284-.093-.973.304l-4.343 2.48c-.306.17-.442.258-.492.223-.037-.027-.013-.193.061-.456l1.374-4.889c.166-.567.098-.708-.049-.812a.2.2 0 0 0-.107-.045zm26.667 11.023-.624.31a4.6 4.6 0 0 1-1.022.414 2 2 0 0 0-.362.052c-.081.015-.167.033-.275.045-.673.112-1.046.309-1.106.634 0 .054.018.099.032.133v.058l.068.065c.056.058.136.098.217.139l.045.026h.055c.043 0 .109-.013.204-.029.062-.012.142-.022.278-.045a.7.7 0 0 1 .394-.026c.058.01.197.043.226.113.021.085.026.335-.003.631l-1.038 5.856c-.093.555-.247.928-.346 1.077s-.298.199-.407.213l-.061.019c-.033.01-.149.011-.243.013-.215.021-.662.065-.741.479 0 .116.074.201.158.288l.068.068h.052a.6.6 0 0 0 .22.058c.077.023.18.032.362.042l.343.026c.354 0 .649.026.97.091.513.081 1.05.211 1.762.42a.7.7 0 0 0 .255.084q.073.017.165.016c.092-.001.118-.006.168-.01l.103-.003.045-.026c.07-.035.232-.113.252-.291.037-.166-.043-.394-.572-.605-.329-.097-.485-.187-.537-.22a.56.56 0 0 1-.246-.352l-.013-.049c-.006-.017-.062-.185.074-.915l1.132-6.516.036-.184c.052-.292.107-.603.181-.928.056-.205.11-.364.146-.466s.052-.142.052-.194c0-.075.001-.179-.055-.291a.4.4 0 0 0-.362-.22h-.052zm19.26.026a3 3 0 0 0-.501.042c-.366.093-.72.195-1.022.398q-.508.255-.918.718l-.103.113c-.163.184-.316.359-.401.559-.116.23-.152.426-.116.601a.33.33 0 0 0 .094.23l.068.068h.317l.065-.068s.194-.19.55-.579c.302-.358.626-.559.993-.614.344-.052.667.024.915.194.271.244.438.569.498.989.081.319.06.683-.058 1.006-.118.358-.363.737-.698 1.077-.037.056-.166.164-.398.33-.252.211-.362.381-.362.553l.01.107.065.068c.031.041.087.11.178.155l.084.029h.055c.083.01.169.013.239-.01.039-.008.078-.024.12-.039l.055-.019a1 1 0 0 0 .136-.019c.035-.006.07-.012.142-.016.49-.081.917-.005 1.242.21.315.236.515.642.637 1.277.143.778.035 1.487-.317 2.102a2.25 2.25 0 0 1-1.572 1.032c-.387.06-.797.02-1.255-.152-.418-.12-.635-.21-.637-.21l-.087-.019c-.159 0-.273.114-.32.162l-.068.065.003.252c.052.418.518.646.973.818q.478.159 1.032.158.327 0 .686-.055c.619-.11 1.138-.375 1.546-.611.327-.244.798-.625 1.119-1.086.333-.455.574-.958.76-1.591.128-.511.139-1.048.036-1.636-.132-.799-.499-1.455-1.025-1.84-.381-.304-.859-.454-1.462-.462a4.8 4.8 0 0 0 .702-1.022c.219-.439.289-.915.21-1.462-.108-.644-.43-1.135-.912-1.41-.364-.259-.799-.391-1.293-.391zm13.051.123-.407 2.183-.197.724c.898.418 1.772.894 2.584 1.455l.404-2.121.204-.783-.621-.301-.973-.534-.993-.624zm-17.493.133q-.243.002-.446.259a1.1 1.1 0 0 0-.213.243 1 1 0 0 1-.223.1 4 4 0 0 0-.382.039l-2.513.084c-.292 0-.548.076-.666.194l-.042.058c-.023.05-.109.234-.149.517l-.462 3.858a.6.6 0 0 0-.019.343.5.5 0 0 0-.023.139c0 .188.064.33.171.388.081.06.189.091.307.091a1 1 0 0 0 .129-.013 11 11 0 0 1 .401-.055c.228-.058.459-.087.676-.087.65-.029 1.196.131 1.575.449.387.333.584.771.611 1.378.031.793-.197 1.488-.663 2.011-.484.542-1.077.806-1.875.838-.226.029-.502-.003-.86-.094-.292-.031-.443-.058-.495-.065a.6.6 0 0 0-.352.103c-.079.05-.154.149-.129.346 0 .331.348.5.708.631a4.6 4.6 0 0 0 1.135.139 5 5 0 0 0 .288-.006 5 5 0 0 0 1.704-.394c.573-.213 1.016-.608 1.384-.977q.635-.741.85-1.403c.211-.453.307-.942.307-1.588-.035-.993-.388-1.8-1.015-2.328-.569-.536-1.383-.821-2.357-.821l-.178.003c-.406.031-.826.062-1.203.162l-.003-.129.155-1.455c.077-.348.128-.42.126-.42.019-.017.115-.061.32-.061l2.225-.094c.41 0 .635-.002.799-.11.18-.135.264-.314.33-.482l.346-.977.019-.116a1 1 0 0 0 .019-.091c.033-.079.036-.137.036-.184s0-.193-.097-.288c-.046-.048-.13-.133-.259-.133zm-26.245.359-1.918 1.116-.679.323c.271.954.482 1.926.585 2.907l1.872-1.08.721-.356-.175-.666-.233-1.086-.175-1.158zm16.722.116c-.921-.066-1.709.185-2.331.744-.685.555-1.052 1.266-1.122 2.176q-.055.83.268 1.423c.126.304.364.616.673.889a2.77 2.77 0 0 0-1.151.97 3.3 3.3 0 0 0-.608 1.72c-.07.944.224 1.758.847 2.348.637.668 1.482 1.043 2.513 1.109a5 5 0 0 0 .314.01c.948 0 1.766-.274 2.422-.812.766-.592 1.187-1.392 1.251-2.367.066-.722-.12-1.442-.511-1.976a4 4 0 0 0-1.313-1.174 3.3 3.3 0 0 0 1.074-.65 2.7 2.7 0 0 0 .66-1.5c.035-.832-.216-1.484-.76-1.995-.542-.54-1.291-.849-2.225-.915zm-.401 1.019c.05 0 .101-.002.142 0 .602.06 1.072.273 1.368.621.335.364.467.781.411 1.313a1.68 1.68 0 0 1-.462 1.074c-.277.25-.571.385-.85.385-.027 0-.054-.004-.097-.006q-.168 0-.55-.142c-.153-.058-.305-.164-.479-.288-.075-.05-.148-.106-.233-.162a2.3 2.3 0 0 1-.679-.673 1.5 1.5 0 0 1-.194-.744c.056-.457.228-.78.54-1.041.308-.232.651-.336 1.083-.336zm-1.222 4.841c1.291.604 2.071 1.078 2.454 1.487.401.401.59.88.563 1.416-.058.532-.261.938-.598 1.196a2.02 2.02 0 0 1-1.203.378 2 2 0 0 1-.259-.013c-.6-.027-1.141-.316-1.565-.831-.391-.474-.544-1.062-.482-1.853.031-.466.151-.851.378-1.167.135-.246.386-.461.711-.614z" fill="#fff"/><path d="M111.928 35.561a156 156 0 0 1-14.724 2.835c-7.032.954-14.549 1.455-22.158 1.465-8.166-.01-16.223-.586-23.692-1.68a156 156 0 0 1-13.191-2.614v60.318l.041 2.928.002.05.002.052c.178 3.661 1.521 6.37 4.321 8.64q.448.365.948.716c1.803 1.262 4.16 2.448 7.351 3.791 2.192.969 4.76 1.999 7.773 3.11l2.37.82 2.868 1.064 10.068 3.76 1.107.443 1.161-.439 10.076-3.764 2.957-1.097 2.279-.786c2.908-1.074 5.401-2.074 7.541-3.011 3.309-1.384 5.739-2.597 7.585-3.891a17 17 0 0 0 1.045-.795c2.732-2.256 4.048-4.942 4.224-8.562l.002-.052.002-.05.041-3.059V35.561" fill="#007360"/><path d="M75.046 94.128v-.101zM41.365 90.32l5.147 1.053 1.076.197a161 161 0 0 0 27.402 2.527h.114c9.346-.06 18.576-.94 27.402-2.527 2.094-.379 4.168-.795 6.213-1.25h.002l.017-.004.008-.002v.004l-.004-35.072-2.299.59c-9.677 2.368-19.977 3.437-30.314 3.423a94 94 0 0 1-1.08-.006l-1.082.006c-10.343.014-20.649-1.058-30.331-3.427l-2.281-.586-.006 35.068.01.002z" fill="#a51417"/><path d="M41.344 39.576v3.709q.002.052 0 .103v.12l.006 9.775v1.956l2.28.585 5.336 1.164c8.092 1.56 16.529 2.276 24.996 2.264l1.08-.006 1.08.006c8.477.012 16.929-.705 25.028-2.27a110 110 0 0 0 5.287-1.154l2.299-.589v-1.956l.003-7.98.01-1.012v-4.715l-.01.006h-.006q-3.068.686-6.212 1.251a161 161 0 0 1-27.408 2.525h-.123a161 161 0 0 1-27.408-2.525 151 151 0 0 1-6.212-1.251l-.016-.006zm.003 27.304v11.528c5.252 1.219 7.879 1.869 11.816 2.247h.003v-11.44c-3.868-.385-7.122-1.035-11.816-2.335zm67.395 0c-4.694 1.3-7.948 1.95-11.816 2.335v11.441h.006c3.936-.379 6.56-1.028 11.812-2.247V66.88h-.003zM41.354 90.303v.546l-.003.178-.006.585v.602l.01 1.798v1.006l.049 3.725c.29 5.95 4.168 8.035 17.93 13.209l15.712 5.866.003-.003h.006v.003l15.715-5.866c13.762-5.174 17.64-7.259 17.93-13.209l.049-3.725v-4.715l-.01.006-.016.003a154 154 0 0 1-6.212 1.248 161 161 0 0 1-27.402 2.525h-.116a161 161 0 0 1-27.402-2.525l-1.077-.197a153 153 0 0 1-5.145-1.051h-.003l-.006-.003z" fill="#e1c4ac"/><path d="m53.584 44.053-1.361 4.048-4.275.045 3.434 2.545-1.284 4.074 3.486-2.477 3.486 2.477-1.287-4.074 3.441-2.545-4.278-.045-1.361-4.048zm42.926 0-1.358 4.048-4.275.045 3.434 2.545-1.284 4.074 3.483-2.477 3.486 2.477-1.284-4.074 3.434-2.545-4.275-.045zm-21.462 1.69-1.465 4.375-4.608.039 3.699 2.742-1.381 4.398 3.754-2.674 3.754 2.674-1.381-4.398 3.699-2.742-4.605-.039-1.469-4.376zM53.581 94.495l-1.077 1.08v2.92l.643 1.552v2.513h.874v-2.513l.643-1.552v-2.92l-1.077-1.08-.003.01zm42.926 0-1.077 1.08v2.92l.643 1.552v2.513h.877v-2.513l.643-1.552v-2.92l-1.077-1.08-.003.01zm-21.465 2.066-1.478 1.475v4.013l.883 2.121v3.444h1.202v-3.444l.88-2.121v-4.013l-1.478-1.475-.003.006zm-26.784 2.086v1.387l.838.844 1.3-.844 1.077.999v1.497h.918v-2.348l-1.222-1.536h-2.91zm7.741 0-1.222 1.536v2.348h.918v-1.497l1.077-.999 1.3.844.841-.844v-1.387h-2.914zm35.185 0v1.387l.838.844 1.303-.844 1.074.999v1.497h.922v-2.348l-1.222-1.536h-2.914zm7.744 0-1.226 1.536v2.348h.918v-1.497l1.077-.999 1.3.844.838-.844v-1.387h-2.907zm-31.188 3.605v1.905l1.154 1.154 1.782-1.154 1.471 1.371v2.053h1.264v-3.224l-1.675-2.105h-3.997zm10.619 0-1.675 2.105v3.224h1.258v-2.053l1.478-1.371 1.785 1.154 1.151-1.154v-1.905H78.36zm-25.213 1.158v1.232l-.724 1.151 1.041 1.281.084.107.036.042.032-.042.087-.107 1.041-1.281-.724-1.151v-1.232h-.874zm1.639 0v1.083l.621.766 1.222-.996v-.854zm41.287 0v1.232l-.721 1.151 1.041 1.281.084.107.036.042.032-.042.084-.107 1.041-1.281-.721-1.151v-1.232h-.877zm1.643 0v1.083l.618.766 1.222-.996v-.854zm-47.178.003v.85l1.222.993.618-.763v-1.08zm42.93 0v.85l1.222.993.618-.763v-1.08zm-22.592 5.377v1.167l1.675 1.365.847-1.048v-1.484zm3.573 0v1.685l-.986 1.588 1.423 1.753.12.139.045.055.045-.055.116-.139 1.426-1.753-.986-1.588v-1.685h-1.202zm2.257 0v1.481l.844 1.054 1.675-1.368v-1.167z" fill="#007360"/><path d="M60.977 63.023v19.695H73.08l1.953 2.06.016-.013.016.013 1.95-2.06h12.103V63.023H76.924l-1.335 1.348-.54.514-.543-.514-1.335-1.348zm-2.393 1.714-1.875 1.387-1.032.757v21.274h16.226l2.82 2.428.307.294.016-.013.019.013.307-.294 2.82-2.428h16.226V66.88l-1.62-1.193-1.29-.951V85.25h-14.05l-1.455 1.368-.957.873-.954-.873-1.455-1.368H58.584z" fill="#fff"/><path d="M73.384 66.183c-.106 0-.229.015-.372.029l-.747.039a7 7 0 0 1-.508-.019l-.281-.013c-.072 0-.184.129-.184.181 0 .093.098.109.294.129.143.012.21.191.21.307v2.888c0 .182-.109.298-.171.31-.043.01-.135.028-.146.094-.004.017-.011.024-.026.039s-.042.04-.042.087c0 .087.093.087.149.087.075 0 .147-.007.23-.013l.388-.019.411.016.281.016c.095 0 .116-.021.149-.081.002-.004.013-.009.019-.013.021-.017.055-.042.055-.087 0-.128-.16-.129-.278-.129-.153 0-.317-.096-.317-.307v-1.242l.065.006c.143.021.289.042.492.042.82 0 1.432-.717 1.432-1.355 0-.602-.432-.993-1.103-.993zm-.446.417q.028-.002.052 0c.536.004.799.244.799.731 0 .401-.178.834-.673.834-.213 0-.618-.08-.618-.204v-1.335zm4.815.498c-.023 0-.037.014-.074.045-.075.058-.214.168-.382.168h-.201c-.072 0-.133-.002-.152.045a.4.4 0 0 1-.045.055c-.023.025-.049.05-.049.094 0 .077.06.083.133.094l.149.023c.037.008.1.02.1.314v1.711c0 .296-.045.345-.142.388l-.087.039c-.081.031-.115.045-.129.107-.004.021-.01.033-.016.045s-.016.031-.016.052.007.065.094.065q.088 0 .204-.013l.427-.019.372.016.333.016c.07 0 .094-.038.116-.094 0-.004.007-.01.013-.016a.12.12 0 0 0 .039-.087c0-.081-.077-.085-.139-.087-.05-.002-.116-.002-.2-.023-.112-.029-.236-.087-.236-.398v-1.255c0-.341.207-.737.472-.737.048 0 .103.061.142.107s.074.081.113.081c.103 0 .362-.418.362-.482 0-.128-.231-.252-.411-.252-.224 0-.307.09-.501.307l-.191.21c.004-.178.024-.259.039-.317.008-.033.016-.061.016-.094 0-.075-.131-.107-.152-.107zm-2.06.003c-.861 0-1.439.852-1.439 1.649 0 1.016.488 1.649 1.274 1.649.706 0 1.206-.637 1.206-.763q0-.053.01-.087c.01-.034.006-.035.006-.052 0-.085-.059-.097-.084-.097-.058 0-.107.056-.181.139-.132.147-.328.369-.676.369-.78 0-.915-.836-.922-1.368h1.491c.292 0 .372-.066.372-.31 0-.654-.445-1.129-1.057-1.129m-.184.365c.375 0 .508.311.508.605 0 .143.001.158-.537.158a5 5 0 0 1-.563-.026c.085-.517.263-.737.592-.737m-3.641 3.652c-.139 0-.466.32-.466.424s.081.195.146.265q.051.06.087.11c.054.075.099.139.207.139.025 0 .102-.002.288-.223.075-.085.162-.198.162-.262 0-.155-.302-.453-.424-.453m-8.369.323c-.068 0-.091.045-.103.068a.2.2 0 0 1-.032.032.1.1 0 0 0-.055.097c0 .083.063.091.107.097a.3.3 0 0 1 .061.016c.228.079.284.235.983 2.141l.433 1.171.097.288c.06.186.083.272.155.272.054 0 .107-.05.2-.139l.213-.194a.35.35 0 0 0 .149-.233l.042-.133.003-.01c.981-2.79 1.063-3.02 1.332-3.169.062-.033.123-.071.129-.123.012-.012.039-.036.039-.078 0-.06-.05-.103-.116-.103a.3.3 0 0 0-.052.006c-.062.008-.173.029-.411.029-.12 0-.266-.011-.394-.019l-.275-.016a.32.32 0 0 0-.194.197c0 .116.167.113.223.113.163 0 .262.102.262.272 0 .292-.356 1.263-.614 1.972l-.246.686-.171-.498-.702-2.189c0-.166.094-.214.255-.243.108-.017.13-.052.155-.103.002-.004.014-.01.023-.016.019-.012.049-.033.049-.074 0-.072-.063-.116-.123-.116l-.078.006c-.081.01-.209.029-.534.029a8 8 0 0 1-.634-.026l-.178-.01zm10.027.2c-.039 0-.07.025-.091.042l-.023.013c-.068 0-.106.095-.123.149-.153.399-.372.512-.534.595-.11.058-.207.109-.207.233 0 .106.135.103.207.103l.103-.003.061-.006v2.167c0 .639.453.689.592.689.209 0 .415-.083.663-.272.267-.213.301-.295.301-.343a.4.4 0 0 1 .006-.084l.003-.042c0-.068-.044-.094-.087-.094-.064 0-.122.058-.194.133-.093.095-.209.213-.356.213q-.293-.001-.294-.304v-2.053h.437c.145 0 .224-.044.301-.181a.2.2 0 0 1 .052-.058c.037-.037.078-.08.078-.142s-.051-.1-.097-.1-.089.022-.133.045a.5.5 0 0 1-.268.071h-.369v-.184c0-.186.028-.294.049-.375.01-.043.019-.077.019-.11 0-.06-.039-.1-.097-.1zm4.957 0c-.039 0-.068.024-.091.039l-.019.016c-.066 0-.11.094-.126.146a.98.98 0 0 1-.53.598c-.112.058-.207.109-.207.233 0 .106.131.107.204.107a1 1 0 0 0 .107-.006q.031-.005.061-.006v2.163c0 .642.453.692.592.692.211 0 .41-.081.663-.272.267-.213.297-.295.297-.343s.004-.065.006-.084.006-.025.006-.042c0-.068-.044-.094-.087-.094-.064 0-.122.058-.194.133-.093.095-.212.213-.359.213q-.29-.001-.291-.304v-2.05h.437c.145 0 .224-.048.301-.184a.3.3 0 0 1 .049-.058c.037-.037.078-.08.078-.142s-.048-.1-.094-.1-.089.022-.133.045a.5.5 0 0 1-.268.071h-.369v-.184c0-.186.028-.294.049-.375.01-.043.019-.077.019-.11 0-.06-.04-.1-.1-.1zm4.475.679c-.025 0-.047.016-.084.039a1.1 1.1 0 0 1-.614.165c-.075 0-.121.024-.152.078l-.01.006c-.023.019-.045.048-.045.11 0 .068.056.078.133.091l.123.026c.033.006.113.034.113.146v1.888c0 .201-.063.344-.168.391l-.078.036c-.054.025-.071.034-.094.084l-.019.019c-.014.01-.039.028-.039.078 0 .087.084.087.113.087.093 0 .176-.005.259-.013l.369-.019a4 4 0 0 1 .394.023l.191.01c.05 0 .087-.012.116-.091l.016-.019c.017-.014.039-.036.039-.065 0-.085-.062-.097-.171-.113l-.12-.019c-.093-.017-.178-.075-.178-.375v-1.4c0-.317.273-.669.66-.669.163 0 .34.126.34.407v1.649c0 .226-.031.345-.103.394-.027.019-.044.027-.058.036-.037.023-.054.033-.074.081l-.016.019c-.017.012-.042.028-.042.078 0 .087.087.087.116.087q.057 0 .136-.01c.087-.01.206-.023.388-.023a5 5 0 0 1 .398.023l.188.01c.052 0 .091-.012.12-.091 0-.004.01-.013.016-.019.014-.014.036-.036.036-.065 0-.085-.061-.097-.158-.113l-.11-.019c-.128-.027-.2-.16-.2-.375v-1.4c0-.317.273-.669.66-.669.166 0 .343.126.343.407v1.649c0 .236-.032.347-.107.394l-.055.036c-.039.023-.057.033-.078.081l-.016.019c-.017.01-.039.028-.039.078 0 .087.084.087.113.087q.057 0 .136-.01a3 3 0 0 1 .388-.023c.139 0 .284.012.398.023l.188.01c.052 0 .091-.012.12-.091l.016-.019c.014-.014.039-.036.039-.065 0-.085-.062-.097-.162-.113l-.11-.019c-.128-.027-.2-.16-.2-.375v-1.756c0-.532-.241-.805-.721-.805-.209 0-.335.092-.527.226l-.42.268c-.085-.331-.304-.495-.673-.495-.267 0-.415.114-.618.265l-.297.21c.008-.095.023-.177.036-.239a1 1 0 0 0 .016-.123c0-.083-.143-.113-.155-.113zm-14.988.003c-.859 0-1.436.852-1.436 1.649 0 1.016.488 1.649 1.274 1.649.706 0 1.206-.637 1.206-.763q0-.051.006-.084c.006-.033.01-.038.01-.055 0-.085-.059-.094-.084-.094-.06 0-.107.053-.181.136-.132.147-.328.372-.676.372-.78 0-.915-.839-.922-1.371h1.491c.292 0 .372-.066.372-.31 0-.654-.446-1.129-1.061-1.129zm1.953 0c-.021 0-.038.011-.078.042-.075.058-.212.168-.382.168h-.197c-.072 0-.135.001-.155.049-.017.025-.033.039-.045.052-.023.025-.045.05-.045.094 0 .075.062.082.133.091a1 1 0 0 1 .149.026c.037.006.097.018.097.314v1.714c0 .296-.043.345-.142.388-.035.017-.065.025-.087.036-.079.031-.112.045-.126.107-.004.021-.01.033-.016.045s-.019.031-.019.052.007.068.094.068c.058 0 .128-.007.207-.013l.424-.023.372.016.336.019c.07 0 .092-.041.113-.097.029-.032.055-.058.055-.103 0-.079-.077-.082-.139-.084a1 1 0 0 1-.2-.026c-.114-.029-.236-.085-.236-.398v-1.255c0-.339.206-.737.469-.737.048 0 .104.061.146.107s.071.084.11.084c.103 0 .362-.423.362-.485 0-.128-.231-.249-.411-.249-.224 0-.303.087-.498.304l-.194.207c.006-.176.026-.255.039-.31.008-.035.016-.064.016-.097 0-.075-.126-.103-.149-.103zm2.15 0c-.029 0-.052.013-.087.036a1.2 1.2 0 0 1-.223.123c-.07.031-.125.042-.427.042-.081 0-.191.124-.191.194s.063.071.116.071c.224 0 .262.051.262.356v1.72c0 .232-.067.368-.129.394-.153.068-.178.083-.2.139l-.013.016c-.019.014-.036.033-.036.081 0 .07.081.071.139.071q.04-.002.123-.01l.456-.026c.132 0 .287.012.411.023l.213.013c.064 0 .088-.033.107-.091q.007-.008.013-.019a.14.14 0 0 0 .029-.081c0-.052-.048-.06-.116-.074-.046-.008-.105-.02-.188-.045s-.175-.088-.175-.382v-1.73a3 3 0 0 1 .052-.618l.01-.078c0-.064-.106-.126-.146-.126zm3.088 0c-.033 0-.052.023-.065.042l-.016.019c-.028.015-.068.033-.068.097 0 .416-.08.595-.12.682-.014.035-.026.059-.026.084 0 .058.042.1.1.1.027 0 .047-.016.074-.032.05-.009.092-.019.129-.087.143-.269.461-.54.799-.54s.498.18.498.553v.336c-.877.103-1.762.333-1.762 1.229 0 .534.462.815.922.815.25 0 .48-.192.702-.378l.171-.142c.033.238.201.521.456.521.091 0 .213-.068.333-.142l.023-.013c.052-.031.102-.053.139-.071.083-.035.146-.063.146-.146a.1.1 0 0 1 .01-.036.2.2 0 0 0 .016-.065c0-.014-.001-.078-.084-.078-.017 0-.032.006-.065.016s-.079.029-.103.029c-.13-.014-.268-.057-.268-.359v-1.669c0-.495-.293-.766-.825-.766-.122 0-.234.019-.352.042a2.6 2.6 0 0 1-.446.045c-.143 0-.204-.037-.246-.061-.025-.014-.046-.026-.071-.026zm5.785 0c-.859 0-1.439.852-1.439 1.649 0 1.018.491 1.649 1.277 1.649.706 0 1.203-.635 1.203-.763q.002-.05.01-.087c.008-.037.006-.035.006-.052 0-.085-.056-.094-.081-.094-.06 0-.11.056-.184.139-.13.147-.33.369-.676.369-.78 0-.915-.838-.922-1.368h1.491c.292 0 .372-.068.372-.31 0-.656-.443-1.132-1.057-1.132m-13.158.365c.375 0 .508.314.508.608 0 .141-.001.158-.537.158-.25 0-.399-.01-.563-.029.085-.517.263-.737.592-.737m12.973 0c.377 0 .508.314.508.608 0 .143-.001.158-.537.158-.252 0-.399-.01-.563-.029.083-.515.263-.737.592-.737m-4.294 1.174v.462c0 .29-.222.808-.656.808a.4.4 0 0 1-.407-.407c0-.579.452-.699.928-.828zm-.812 2.483c-.137 0-.466.32-.466.424s.083.194.146.262a1 1 0 0 1 .087.11c.054.075.101.139.207.139.025 0 .099-.002.288-.223.072-.083.162-.196.162-.262 0-.155-.299-.449-.424-.449zm-4.398.32c-.068 0-.094.045-.107.068-.018.021-.024.028-.032.032-.023.017-.055.039-.055.097 0 .083.063.091.107.097q.027.005.061.016c.228.079.287.235.986 2.141l.43 1.171.097.288c.06.186.083.272.155.272.054 0 .107-.048.2-.139l.213-.194a.35.35 0 0 0 .152-.233l.039-.129.006-.016c.981-2.788 1.06-3.016 1.329-3.163.064-.037.125-.071.129-.123.012-.012.039-.036.039-.078 0-.06-.05-.107-.116-.107l-.052.006c-.06.01-.173.029-.411.029-.12 0-.266-.009-.394-.019l-.275-.016c-.064 0-.194.143-.194.197 0 .116.167.113.223.113.163 0 .262.104.262.272 0 .292-.356 1.264-.614 1.976l-.243.682-.178-.498-.695-2.189c0-.166.091-.216.252-.243.108-.017.13-.049.155-.1l.019-.016c.021-.012.052-.034.052-.078 0-.072-.062-.116-.12-.116q-.033.002-.078.01c-.081.008-.212.026-.537.026-.288 0-.494-.014-.631-.023l-.178-.013zm4.605.883c-.029 0-.051.016-.084.039a2 2 0 0 1-.23.12c-.07.031-.121.042-.424.042-.081 0-.191.124-.191.194s.063.071.116.071c.224 0 .262.055.262.359v1.717c0 .232-.067.366-.129.394-.147.064-.179.081-.204.139-.028.033-.045.052-.045.097 0 .072.079.071.139.071q.04 0 .123-.01l.456-.023.411.019.213.013c.07 0 .09-.04.107-.087l.013-.023c.012-.019.029-.044.029-.078 0-.052-.05-.062-.116-.074a2 2 0 0 1-.188-.045c-.083-.025-.175-.091-.175-.385v-1.727a3 3 0 0 1 .052-.618l.01-.081c0-.064-.106-.126-.146-.126zm1.992 0c-.602 0-1.255.379-1.255.996 0 .577.495.734.931.873.375.118.698.218.698.543 0 .31-.196.521-.488.521-.505 0-.826-.225-.863-.601-.012-.112-.028-.23-.123-.23-.025 0-.055.015-.129.081-.05.05-.058.121-.058.262q0 .101.01.175c.004.037.013.074.013.107 0 .075-.013.153-.026.23s-.026.154-.026.233c0 .072.044.11.087.11.037 0 .07-.021.103-.042s.07-.045.113-.045c.058 0 .141.014.236.032.139.025.309.055.491.055.89 0 1.29-.635 1.29-1.086 0-.573-.495-.734-.931-.876-.373-.122-.695-.23-.695-.546 0-.263.23-.424.443-.424.418 0 .698.199.731.517v.029c.004.066.007.155.107.155.077 0 .181-.129.181-.204l-.006-.142-.006-.21c0-.147.014-.222.023-.285.006-.039.013-.074.013-.12q0-.106-.094-.107a.1.1 0 0 0-.061.023c-.031.019-.072.045-.178.045-.068 0-.143-.015-.22-.029-.093-.017-.197-.039-.31-.039z"/></svg>