<svg xmlns="http://www.w3.org/2000/svg" width="252" height="252"><style>.B{fill:#fff}.C{fill:#115740}</style><path d="M126.035 0C56.43 0 0 56.43 0 126.035s56.43 126.039 126.035 126.039c69.613 0 126.039-56.434 126.039-126.039S195.648 0 126.035 0" class="C"/><path d="M126.035 209.715c-46.215 0-83.676-37.461-83.676-83.672s37.461-83.676 83.676-83.676 83.672 37.461 83.672 83.676-37.461 83.672-83.672 83.672" class="B"/><path d="M104.109 197.316v-4.559l.043-2.254-.199-.16-3.371.609v.762l.184-.02c.328-.027 1.227-.086 1.477.078.281.184.332.738.34.816v4.727l-.031 2.434-2.191.004-.008.875h5.914l.008-.883-2.137.004-.027-2.434m14.088 2.869c-1.187 0-1.945-.805-1.945-2.102 0-1.027.445-1.629 1.363-2.258 1.855.875 2.414 1.543 2.414 2.484 0 1.117-.691 1.875-1.832 1.875m-1.68-7.824c0-1.004.785-1.633 1.68-1.633 1.004 0 1.563.805 1.563 1.855 0 .875-.289 1.523-1.117 2.215-1.699-.805-2.125-1.586-2.125-2.437m3.086 2.906c-.066-.066-.18-.156-.199-.246-.023-.156.199-.336.223-.355 1.051-.672 1.43-1.434 1.43-2.148 0-1.34-1.027-2.367-2.84-2.367-1.699 0-3.039 1.027-3.039 2.66 0 1.027.492 1.898 1.609 2.594.066.043.156.133.133.223s-.156.199-.176.223c-1.23.605-1.879 1.363-1.879 2.438 0 1.543 1.23 2.438 3.242 2.438 2.035 0 3.398-1.098 3.398-2.707 0-1.207-.605-2.012-1.902-2.75m15.472-.428s0 .113-.066.246c-.047.137-.18.246-.246.316a2.43 2.43 0 0 1-1.277.332c-1.207 0-2.078-.824-2.078-2.523 0-1.656.852-2.484 1.832-2.484 1.098 0 1.859 1.051 1.859 3.645l-.023.469m-1.812-4.695c-1.922 0-3.398 1.254-3.418 3.266 0 1.945 1.34 3.086 3.082 3.086.516 0 .965-.09 1.363-.27.07-.02.246-.066.359 0 .133.09.113.359.09.516l-.023.09c-.559 1.633-1.809 2.773-4.047 3.531l.09.449c3.98-.895 5.926-3.422 5.926-6.484 0-2.57-1.273-4.184-3.422-4.184m15.831 5.03c1.555-.414 2.313-1.359 2.313-2.543 0-1.457-1.113-2.488-3.043-2.488-1.5 0-3.309 1.043-3.012 2.117.141.371.43.5.742.5.484 0 .758-.258.898-.914l.105-.395s.168-.301.391-.469c.289-.223.75-.23.859-.227.973.129 1.531.809 1.531 1.918 0 1.441-.887 2.215-2.258 2.215h-.586v.625h.703c1.582 0 2.398.828 2.398 2.316 0 1.395-.719 2.223-2.086 2.32l.023-.004s-.418.008-.758-.125c-.273-.109-.48-.512-.516-.578l-.105-.441c-.187-.773-.398-1.187-.914-1.207-.359-.016-.746.145-.746.664.121 1.648 1.387 2.27 3.102 2.27 2.172 0 3.586-1.242 3.586-2.957 0-1.328-.785-2.297-2.629-2.598" class="C"/><g class="B"><path d="M174.645 209.004c-.043.164-.129.359-.375.453s-.398.012-.441-.016-.133-.109.008-.301.398-.375.527-.398.324.102.281.262m-.883 2.645c-.09.266-.234.668-.559.754s-.512-.012-.555-.184a1.17 1.17 0 0 1 .516-1.07c.355-.223.691.234.598.5m2.098-5.344c-.582-.316-1.27-.578-1.488-.414s-.324.152-.555.527-.582 1.227-.965.73-.699-1.297-1.02-1.5-.758-.23-1.109-.187-.676-.023-.691.223.156 1.199.348 1.738.457 1.145.227 1.453-1.422.406-1.57.602-.473.586-.145.813.914.52.926.805-.215.996-.004 1.313.809.59 1.105.047.809-.488.75-.031-.023.844-.602 1.352-1.523.73-.898 1.117 1.113.555 1.168 1.02-.004.684-.125.848-.148.348.203.445c.359.102.566 0 .797-.109s.559-.262.66.063.168.539.109.664c-.027.051-.535.395-.828 1.047-.41.91-.992 2.203-1.812 3.059-1.371 1.426-1.445 1.66-1.879 1.805-.352.113-.422.059-.52.141s-.156.352-.078.473.441 1.051 1.266 1.012 1.719-.312 2.223-1.023 3.074-7.621 3.445-8.078 1.027-.504 1.082-.277.133.781-.258 1.449-.805 1.074-.816 1.227c-.004.152.289.617.453 1.078.152.422.086.629.328.918l.527.602c.012.066-.293.887-.867 1.984s-.727 1.297-1.004 1.551-.613.422-.594.594.273.523.691.551.754-.027.949-.254.43-.984.863-1.746.527-1.09.668-1.199.719-.027.953.426.328.93-.016 1.48-.984.887-1.012 1.016.117.664.973.66 1.148-.262 1.508-.449.793-.109 1.051-.367.5-1.16.09-2-.637-1.215-.957-1.605-1.066-1.25-.605-1.75.641-.633.852-.715.707-.621.555-1-.625-.723-.863-.562-.488.91-.816 1.25-.812.805-1.273.457-.84-.781-.891-.969.395-.738.715-1.539.898-2.602.582-3.492-.746-.977-.957-.891-1.121.719-1.434.32-.289-.855.09-1.715.488-1.5.492-1.773-.027-.543.27-.812.961-.578.734-1.137-.418-.937-1-1.258m-8.603 13.746c-.027-.039 0-.199.148-.312s.418-.863-.141-1.516l-1.383-1.477c-.059-.168-.086-.398.34-.629s.68-.426.609-.734-.199-.375-.09-.559.328-.422 1.133-.156 1.32.852 1.453 1.035.293.434.102 1.031-.637 1.227-.574 1.539.313.5.332.672.047 1.176-.223 1.508-.793.277-1.137.051-.469-.32-.57-.453m-84.523-2.207c-.289.699-.555 1.164-.711 1.289-.16.117-.359-.289-.41-.609-.051-.293-.152-.547.012-1.117.172-.566.43-.91.648-1.02s.57-.012.652.145.094.617-.191 1.313m-1.945-.984c-.047.383-.594 1.152-.848 1.246-.184.074-.367.082-.992-.402-.613-.488-.777-1.246-.641-1.363s.34-.227.84-.203c.527.02.992.102 1.32.238.32.129.355.184.32.484m8.371-7.668c.395-.691.512-.801.355-1.184-.16-.406-.652-.937-.984-1.273s-.652-.426-.988-.512a.34.34 0 0 0-.445.266c-.02.109-.109.867-.531 2.168-.406 1.293-1.953 4.695-2.238 5.227-.266.543-.383.563-.629.719-.219.137-4.785-.109-7.109-.227-2.328-.086-2.93-.219-3.777-.441-.867-.25-.895-.336-1.117-.406-.203-.039-.383.383-.383.383l.18.492c.156.309.758.852.918 1.156.176.316.422.77.539.828.109.07.512-.176 1.41-.285.887-.109 2.102-.07 2.543.066s.473.27.445.406c-.039.129-.176.176-.801 1.023s-.758 1.902-.738 2.121c.02.227.379.316.445.336.047.027.316 0 .848-.129.52-.156 1.281-.809 1.527-.918.219-.137.758-.027.918 0 .148.02.355.109.332.246 0 .152-.383 1.047-.805 1.539-.445.496-1.973.672-5.344 1.027-3.355.363-5.453-.621-5.68-.711-.246-.09-.266-.266-.289-.293-.047-.023-.184.047-.293.137-.09.066-.316.422-.109 1.141.219.691.691 1.184 1.074 1.363.375.176 3.422.422 5.453.285 2.012-.148 6.391-1.539 6.664-1.586.266-.062.535-.062.602-.02.043.047.316 1.23.379 2.324.066 1.117-.023 3.711 0 3.848s.402.266.492.313c.117.043.293.07.559-.047.246-.09.828-.535.984-.672.16-.129.336-.312.406-.465.09-.156.426-1.031 1.113-2.504.715-1.496 1.59-2.84 1.629-2.996.07-.156-.039-.246-.148-.609-.117-.355-.117-.555-.187-.73-.059-.207-.195.02-.219.039 0 .047 0 .02-.312.719-.316.691-1.164 2.055-1.391 2.301-.199.246-.602.402-.711.156-.109-.219-.18-1.34-.066-2.574.109-1.223.867-3.551 1.113-4.133.246-.602.648-.402.875-.383.246 0 1.117.07 1.41-.062.27-.137.426-.246.465-.766.07-.512-.492-.512-.691-.512-.195.027-.805-.129-.895-.398-.109-.246-.062-.336.785-1.988s1.992-3.109 2.418-3.805m-17.777 9.924c.09-.223.512-.176.715-.199.199 0 .715-.137 1.184-.426.492-.27.672-.738.828-.648.133.09.18.938.156 1.766 0 .805-.805.715-1.004.738-.227 0-1.859.023-2.059-.133-.199-.18.113-.871.18-1.098"/><path d="M78.805 210.922c.023-.113.113-.137.18-.156s.289.176.961.336a8.43 8.43 0 0 0 2.324.109c.469-.09 1.094-.133 1.59.156.488.313.242 1.434.086 1.746s-.602.246-1.273.266l-1.945.156c-.312-.02-.895-.332-1.43-1.047s-.535-1.477-.492-1.566m13.124 4.383c-.492 1.383-2.035 1.207-2.395 1.184-.379-.023-.492-.18-.492-.223s.672-1.117.961-1.836c.293-.734.16-2.031.16-2.031s.535.199.914.445c.359.27 1.344 1.074.852 2.461m17.215 11.914c-.473.492-.715 1.543-1.32 3.398-.625 1.879-1.027 4.293-1.254 5.23s-.488 1.633-1.25 1.523c-.738-.113-1.41-1.387-1.5-1.812s.156-.762.426-1.117c.246-.359.715-1.656 1.074-2.75.336-1.074.336-2.906.648-3.645.133-.312.648-1.32.781-2.234.137-.941.27-1.992.426-2.172a.56.56 0 0 1 .379-.176c.156 0 .383.109.672.492.313.379.445.758.602 1.117.16.379.27.625.539.648.27.043.445-.203.469-.203.043 0 .203.113.203.449 0 .355-.402.738-.895 1.25m-1.344-10.615c.09-.18.336-.562.559-.516.246.066.582.895.852 1.652.313.852.402 1.746.133 2.305-.246.559-.848.984-1.164 1.477-.312.512-.332.758-.578.895-.227.156-.383.223-.449.109-.066-.09.023-1.855.137-2.48.156-.738.469-1.117.469-1.902l.043-1.539m10.865 20.049c-.312.047-1.273-.512-1.566-.602-.289-.066-.469-.133-.426-.246.023-.09.156-.27.426-.469s.559-.539.605-.805c.066-.246-.402-1.008-.449-1.273a2.32 2.32 0 0 1 .113-.738c.023-.066.066-.113.289-.09.223 0 .449.18.852.535.422.379.602 1.184.914 1.723s.426.469.402.871c-.043.379-.848 1.051-1.16 1.094"/><path d="M115.938 226.398c-.211.137-.684.246-.922.074-.238-.164-.18-.359-.18-.359.063-.328.664-.629 1-.406s.309.547.102.691m-1.484 1.793c-.594-.008-.609-.199-.641-.309-.035-.102.102-.437.438-.547s.613-.035.746.043c.129.066.477.383.477.383s-.422.438-1.02.43m-.312-5.082c.145-.187.391-.297.801-.301.41-.016.695.047.813.383.125.336-.039.52-.668.559s-1.09-.457-.945-.641m6.648-4.586c.563-.672.672-1.211.605-1.586-.062-.383-.336-.719-.734-.965-.43-.246-.945.156-.965.293-.066.199 0 .336-.137 1.027-.129.719-.398 1.027-1.027 1.25-.648.246-1.047-.937-1.23-1.113-.148-.18-.246.219-.266.535-.043.332.066 1.695-.18 1.762-.227.07-.719-.914-1.004-1.133-.109-.07-.289.02-.473.219s-.18.559-.246 1.121c-.043.555-.09.711-.711 1.313-.605.609-3.086 1.211-3.195 1.254-.051.027-.09.066-.09.117 0 .066.039.246.336.578a2.13 2.13 0 0 0 1.133.645c.387.07.633.117.789.492.148.406.02 1.457-.027 1.949-.043.516-.492.961-1.117 1.402-.629.453-.875 1.035-.875 1.461-.02.441 1.012.914 1.527.828.492-.09 1.027-.543 1.16-.652.133-.137.336-.176.426-.109s.336.375.375.871c.023.492-.758 1.004-1.094 1.16s-.691.07-.895.023c-.199-.023-.246.066-.289.156-.02.09.09.355.289.512.184.18.965.07 1.074.16.086.066.293.332.246.875-.02.531-1.074 1.313-1.43 1.785-.379.445.266.473.629.336.375-.156 1.223-.672 1.832-1.32.625-.625 1.027-1.992 1.027-1.992a6.32 6.32 0 0 0 1.23.047c.625-.066 1.227-.383 1.922-.867.715-.52 1.227-1.055 1.297-1.254.066-.184-.109-.449-.652-.668-.512-.227-1.164-.297-1.539-.297-.402-.02-.336.516-.402.828-.047.289-.336.625-.957.828-.633.199-.434-.492-.25-.719.219-.285.605-.668 1.316-1.539.695-.895.648-1.387.473-1.746s-.355-1.074-.227-1.25c.137-.199.246-.156.914-.582s.672-.719.426-1.34c-.219-.629-1.5-.762-1.742-1.027-.223-.273-.09-.855.184-1.41.266-.582 1.961-1.609 2.543-2.258m29.312 11.34c-.91.195-1.473-.223-1.523-.465-.047-.27-.145-.566-.391-.738-.27-.195-1.078-.242-1.422-.27s-.395.344-.492.637c-.074.297-1.324 2.406-1.766 2.922-.441.539-1.227.516-1.594.098-.367-.395-.121-.934.734-1.891.883-.957 1.523-2.328 1.523-2.621s-.125-.715-.199-.738c-.07-.047-.195 0-.414.125-.246.098-.859.613-1.105.906-.27.293-.59.539-.832.637-.27.098-.539.074-.715-.074a2.783 2.783 0 0 1-.586-.613c-.148-.242-.098-.516.145-.906.223-.367.785-.344.887-.344.121.023.414-.023 1.125-.32.688-.27.91-.414 1.055-.562.125-.121.344-.441.516-1.031.172-.562-.098-1.691-.293-2.23-.172-.516-.613-.859-.711-.98-.098-.098-.051-.223-.051-.566 0-.316-.074-.586-.098-.785s.293-.367.465-.391.641.246.785.367c.148.098.344.023.539-.023.199-.023.371.074.738.293s.418.418.418.641c-.027.219-.469 1.102-.441 1.324.047.242.344 1.102.465 1.125.148.027.172-.27.344-.441.145-.195.66-.344 1.199-.219.543.148.738.488.738.711.023.219-.148.539-.957 1.227-.809.711-1.176 1.004-1.348 1.473s0 .734.344.98c.367.219 1.469-.027 1.91-.125.469-.121 1.105.125 1.668.566s.664 1.25.641 1.496c0 .219-.395.586-1.301.809M214.367 173v-35.172c9.148-4.445 10.039-22.066 10.648-24.035-.809.492-7.355 7.582-15.52 7.668H42.574c-8.164-.086-14.711-7.176-15.52-7.668.609 1.969 1.496 19.59 10.645 24.035V173H25.07l15.934 15.98h170.059L227 173zM126.039 8.766C61.375 8.766 8.766 61.375 8.766 126.039s52.609 117.27 117.273 117.27 117.273-52.605 117.273-117.27S190.703 8.766 126.039 8.766m0 237.965c-66.551 0-120.695-54.141-120.695-120.691S59.488 5.344 126.039 5.344 246.73 59.488 246.73 126.039 192.59 246.73 126.039 246.73"/></g><g fill="#002554"><path d="m181.77 118 2.488-3.133H67.816L70.324 118zm-58.434-49.406h.832c-.73 1.223-1.637 5.684.066 9.43h.004c-.203 0-.371.168-.371.371s.168.371.371.371h3.602c.203 0 .371-.168.371-.371s-.168-.371-.371-.371h.004c1.699-3.746.797-8.207.063-9.43h.836a.48.48 0 0 0 .477-.477.48.48 0 0 0-.477-.477h-.055v-.105a1.49 1.49 0 0 0-1.133-1.441 1.04 1.04 0 0 0 .34-.766v-.34a.373.373 0 0 0 .316-.367.37.37 0 0 0-.371-.371h-.371v-.066a.804.804 0 0 0-.75-.801h-1.359a.803.803 0 0 0-.75.801v.066h-.371a.37.37 0 0 0-.371.371.37.37 0 0 0 .313.363l.004.188v.156a1.04 1.04 0 0 0 .34.766 1.49 1.49 0 0 0-1.133 1.441v.105h-.055a.48.48 0 0 0-.477.477.48.48 0 0 0 .477.477m6.651 37.242h-7.867v2.801h7.867zm-30.48.762v3.086l-5.883 2.863v-3.109zm53.062 0v3.086l5.879 2.863v-3.109zm-12.511-.762h-7.871v2.801h7.871zm10.082 0h-7.867v2.801h7.867zm-40.336 0h-7.867v2.801h7.867zm10.086 0h-7.871v2.801h7.871zm-77.446 79.957h167.188l4.004-4.012H38.441zm-5.105-5.09h177.398l3.988-3.996H33.352zm48.703-10.098h79.992l-.629-1.879H86.672zm-1.172 3.524h82.332l-.625-1.875H85.5zm2.988-8.93-.645 1.879h77.648l-.648-1.879zm-1.988-43.023v-1.801h-4.273v3.004a15.49 15.49 0 0 0 4.273-1.203"/><path d="M75.352 122.543c.98.625 2.137.898 3.438.965v-3.133h-4.254v1.605c.27.211.543.387.816.563m101.468 0a9.16 9.16 0 0 0 .723-.496v-1.672h-4.254v3.133c1.332-.051 2.52-.324 3.531-.965m-6.34.82v-2.988h-4.258v1.766a15.08 15.08 0 0 0 4.258 1.223M41.633 134.023h168.813c5.156 0 8.293-9.949 8.293-9.949s-8.133 4.895-14.363.965-13.023-15.988-13.023-15.988-6.789 12.055-13.02 15.988-14.363-.965-14.363-.965 1.109 3.902 3.297 6.82h-3.617c-.48-.965-1.098-2.555-1.48-3.598-.902-2.426-1.543-4.914-1.992-6.922h-.98v10.52h-2.73v-10.527h-4.223v10.527h-2.859v-10.527h-4.223v10.527h-2.859v-10.527h-4.223v10.527h-2.859v-10.527h-4.223v10.527h-2.84v-10.527h-4.266v10.527h-2.836v-10.527h-4.223v10.527h-2.859v-10.527h-4.223v10.527h-2.859v-10.527h-4.223v10.527h-2.859v-10.527h-4.223v10.527h-2.719v-10.52h-.98c-.449 2.008-1.09 4.496-1.988 6.922-.387 1.043-.879 2.633-1.363 3.598h-3.602c2.184-2.918 3.176-6.82 3.176-6.82s-8.133 4.898-14.363.965-13.02-15.988-13.02-15.988-6.793 12.055-13.023 15.988-14.363-.965-14.363-.965 3.137 9.949 8.293 9.949m47.317-26.218 10.938-5.309h52.297l10.938 5.309c8.398-1.312 11.422-10.977 11.422-10.977-5.797 6.105-18.793 4.086-16.598-1.977 1.91-4.965.977-8.203.977-8.203-2.543 4.629-6.937 6.082-9.809 6.164-3.363.098-5.945-1.953-5.945-1.953v-5.762l1.504-1.062v-5.32h-4.687v2.5h-11.066v-1.242h-5.871v1.242h-11.039v-2.5h-4.609v5.32l1.504 1.063v5.762s-2.582 2.051-5.945 1.953c-2.871-.082-7.266-1.535-9.809-6.164 0 0-.937 3.238.977 8.203 2.195 6.063-10.801 8.082-16.598 1.977 0 0 3.02 9.664 11.422 10.977m-16.44 42.924H66.57v-5.945h5.945zm-8.762 0h-5.949v-5.945h5.949zm-8.742 0h-5.949v-5.945h5.949zm-13.215 23.41h37.961v-36.777H41.797zm161.238-23.41h-5.945v-5.945h5.945zm-8.762 0h-5.949v-5.945h5.949zm-8.766 0h-5.945v-5.945h5.945zm-13.191 23.41h37.965v-36.777h-37.965zm-8.035-13.417h-2.258v-16.027h2.258zm-4.227-18.086H145.5v-2.258h14.555zm0 18.043H145.5v-14.152l2.863-1.832h8.695l2.996 1.922zm-16.52-18.086h-2.281v-2.281h2.281zm0 18.086h-2.281v-15.984h2.281zm-4.25-18.043-10.465-.02v-2.262l10.465.023zm0 18.086h-5.926v-11.848h-14.531v11.848h-5.879v-14.082l2.973-1.945h20.098l3.266 1.945zm-6.93 0h-.984v-9.969h-10.44v9.969h-.984v-10.707h12.41zm-21.465-18.086h-2.211v-2.258h2.211zm0 18.086h-2.211v-16.027h2.211zm-4.203-18.086H92.133v-2.258h14.555zm0 18.043H92.133v-14.016l2.996-1.969h8.766l2.793 1.969zm-16.609.043h-2.215v-16.051h2.215zm23.027-20.344h10.129v2.258h-10.129zm15.715-3.129v-1.922l-5.586.02v1.902H84.777l-.043 25.957h82.563l.047-25.957zm0 0"/></g><path d="m28.738 80.695-1.363-.461-1.82 5.367 1.359.465.941-1.824 8.492 5.641-10.32-.301.445-2.199-1.367-.465-2.148 6.332 1.371.465.359-.75a1.15 1.15 0 0 1 1.711-.426l7.156 5.262-10.082-.762.406-2.004-1.371-.465-2.152 6.344 1.371.465.289-.609a1.92 1.92 0 0 1 1.836-1.082l14.129.813.434-1.273-9.953-7.102 12.293.207.438-1.293-12.797-8.398zm16.5-11.593-6.762-4.145.793-1.828-1.23-.75-3.113 5.082 1.23.75.648-.785a1.53 1.53 0 0 1 1.98-.332l5.09 3.121c1.723 1.055 2.766 2.051 3.184 3.043.391.918.262 1.852-.402 2.934-.852 1.395-2.324 2.691-6.172.332l-1.598-.977-4.992-3.109.977-2.117-1.234-.758-3.621 5.91 1.23.758.344-.434a1.53 1.53 0 0 1 1.984-.363l3.926 2.375 2.188 1.34c1.473.902 2.855 1.352 4.109 1.352 1.828 0 3.383-.957 4.539-2.848.906-1.477 1.148-2.93.727-4.324-.469-1.539-1.758-2.961-3.824-4.227m16.663-11.704-4.371-3.992-.855-.797-4.309-4.059 1.238-1.703-1.062-.98-4.703 5.07 1.059.984.582-.496a1.535 1.535 0 0 1 2.02.035l3.066 2.813-4.656 5.02-4.004-3.777 1.234-1.699-1.059-.984-4.707 5.07 1.063.984.586-.496a1.53 1.53 0 0 1 2.016.031l3.371 3.098.859.793 3.336 3.129c.555.531.637 1.391.184 2.012l-.449.621 1.059.984 4.707-5.07-1.062-.984-1.605 1.363-4.344-3.977 4.656-5.02 3.32 3.105c.559.527.637 1.387.184 2.008l-.453.625 1.063.98 4.703-5.07-1.059-.984zm7.653-12.566-3.129 2.27-1.941-5.988zm5.563.852-11.66-8.457-1.445 1.051 4.391 13.699a1.9 1.9 0 0 1-.473 1.926l-.586.586.844 1.164 4.625-3.359-.844-1.164-1.91 1.004-1.105-3.414 3.969-2.883 2.922 2.145-1.582 1.48.848 1.168 5.414-3.934-.848-1.164-.516.281a1.9 1.9 0 0 1-2.043-.129M87.758 25.59l-.613-1.301-5.422 2.555.613 1.309 1.184-.383a1.342 1.342 0 0 1 1.625.703l3.539 7.512-11.867-6.828-3.523 1.664.617 1.305.277-.07a1.916 1.916 0 0 1 2.195 1.039l4.324 9.18a1.322 1.322 0 0 1-.461 1.668l-.676.453.613 1.301 5.422-2.555-.613-1.305-2.309.727-4.461-9.461 13.164 7.488 1.066-.504-6.316-13.398zm43.445-6.735 1.063.172a1.53 1.53 0 0 1 1.285 1.559l-.246 8.133-7.48-11.469-3.891-.117-.047 1.441.281.066a1.91 1.91 0 0 1 1.484 1.922l-.309 10.141a1.32 1.32 0 0 1-1.168 1.277l-.809.098-.043 1.438 5.992.184.043-1.445-2.387-.395.316-10.457 8.336 12.645 1.18.035.449-14.805 1.941-.246.043-1.434-5.992-.184zm11.024 1.047 1.215.375a.96.96 0 0 1 .66 1.074l-.891 5.004-.215 1.148-.918 4.828a1.14 1.14 0 0 1-1.195.918l-1.105-.07-.262 1.422 6.813 1.258.262-1.422-1.055-.328a1.145 1.145 0 0 1-.789-1.289l.859-4.836.215-1.148.949-4.992a.956.956 0 0 1 1-.766l1.27.082.262-1.422-6.812-1.262zm25.937 7.125.469-1.363-5.43-1.863-.508 1.473 1.75.82-6.539 8.707.074-10.945 2.035.5.508-1.477-6.352-2.184-.469 1.367.563.273a1.92 1.92 0 0 1 1.082 1.703l.152 14.621 1.273.438 8.66-11.508a1.9 1.9 0 0 1 1.875-.727zm5.734 18.028-3.527-1.961 2.816-5.141 1.805 1.004a.956.956 0 0 1 .426 1.188l-.52 1.313 1.324.738 2.965-5.336-1.324-.738-.863 1.156a.954.954 0 0 1-1.23.262l-1.797-1 2.719-4.801 3.125 1.734a1.53 1.53 0 0 1 .695 1.852l-.594 1.668 1.563.867 2.141-4.219-10.324-5.738-.703 1.266.621.449c.621.449.816 1.293.449 1.965l-2.203 4.016-.566 1.02-2.246 3.988a1.523 1.523 0 0 1-1.906.656l-.715-.289-.699 1.262 10.719 5.961 2.453-4.043-1.559-.867-1.105 1.383a1.526 1.526 0 0 1-1.937.387m15.204 1.806-1.176-.949 3.703-4.52 1.332 1.074c.84.68 1.309 1.371 1.398 2.059.09.664-.156 1.348-.754 2.086-1.207 1.496-2.852 1.59-4.504.25m6.652 1.469c.859-1.066 1.152-2.285.844-3.523-.305-1.211-1.191-2.437-2.562-3.547l-5.145-4.156-.91 1.125.539.551c.535.551.578 1.414.102 2.02l-2.855 3.57-.734.91-2.887 3.535a1.552 1.552 0 0 1-2.012.324l-.641-.406-.91 1.125 5.387 4.355.91-1.125-1.477-1.52 3.523-4.418.672.543c1.379 1.113 1.727 1.797.941 3.414l-1.691 3.531c-.547 1.148-.285 1.98.941 2.973.523.418 1.023.719 1.535.91l.172.063.863-1.07-.551-.566a1.536 1.536 0 0 1-.305-1.676l.977-2.242c.629-1.461.715-2.574.246-3.57 1.953.758 3.824.355 5.027-1.129m6.378 10.222-.328-.914c-.617-1.707-.477-2.797.465-3.641.563-.504 1.207-.719 1.867-.617.637.102 1.262.48 1.816 1.098a.07.07 0 0 1 .016.02c.598.672.586 1.691.031 2.398l-.992 1.258 1.242 1.387 2.691-2.203-.012-.129c-.102-1.418-.648-2.687-1.621-3.773-1.004-1.121-2.234-1.84-3.465-2.023-1.309-.195-2.551.191-3.59 1.125-1.691 1.512-2.012 3.543-1.012 6.387l.309.891c.738 2.074.668 2.969-.293 3.828-.605.543-1.281.75-2.004.629s-1.457-.586-2.121-1.328a6.33 6.33 0 0 1-.465-.586c-.465-.684-.398-1.598.121-2.242l1.125-1.387-1.246-1.391-2.871 2.371.02.141c.215 1.441 1.016 3.082 2.086 4.277 1.09 1.215 2.348 1.965 3.645 2.164a4.19 4.19 0 0 0 .691.055c1.086 0 2.113-.406 2.996-1.199 1.75-1.566 2.012-3.48.898-6.594m6.532 11.525.961-.664 4.199-2.863a.96.96 0 0 1 1.25.16l.844.957 1.188-.824-3.937-5.699-1.191.82.594 1.129a.96.96 0 0 1-.289 1.227l-4.164 2.91-.961.664-4.059 2.77a1.15 1.15 0 0 1-1.5-.191l-.734-.828-1.191.82 3.941 5.699 1.191-.82-.52-.98a1.15 1.15 0 0 1 .352-1.469l4.027-2.816m6.886 11.986 1.043-.527 5.305-2.613.766 1.527a1.53 1.53 0 0 1-.461 1.922l-1.445 1.063.801 1.594 4.152-2.305-5.812-11.578-4.328 1.953.801 1.598 1.715-.527a1.54 1.54 0 0 1 1.816.777l.766 1.527-5.262 2.691-1.047.527-4.387 2.172a1.15 1.15 0 0 1-1.461-.41l-.723-1.109-1.293.648 3.313 6.602 1.293-.652-.812-2.187 5.262-2.691m14.513 13.412-1.379.418.293 1.922-6.891-.914 5.27-4.527.828 1.887 1.383-.418-2.008-6.629-1.383.418.145.816a1.92 1.92 0 0 1-.602 1.754l-5.129 4.629a5.8 5.8 0 0 1-2.207 1.238l-2.395.707a.955.955 0 0 1-1.145-.543l-.594-1.383-1.387.418 2.141 7.066 1.387-.418-.43-2.309 4.539-1.406 7.918 1.117a1.89 1.89 0 0 1 1.445 1.055l.477.98 1.375-.418zm-114.222-68.16-1.293-7.824 1.898-.594-.234-1.422-5.883.973.238 1.422 1.016-.027a1.53 1.53 0 0 1 1.547 1.281l.977 5.891c.328 1.992.258 3.434-.219 4.402-.437.895-1.227 1.406-2.48 1.613-1.609.266-3.559.004-4.293-4.449l-.305-1.848-.918-5.805 2.238-.652-.234-1.426-6.84 1.129.238 1.426.547-.023a1.53 1.53 0 0 1 1.574 1.258l.773 4.527.422 2.531c.281 1.703.844 3.043 1.664 3.988 1.199 1.383 2.938 1.934 5.125 1.57 1.711-.281 2.969-1.051 3.746-2.281.855-1.363 1.09-3.266.695-5.66" class="B"/></svg>