<svg xmlns="http://www.w3.org/2000/svg" width="88" height="88" fill="none"><g fill-rule="evenodd"><path d="M87.73 43.731c.149 24.152-19.309 43.851-43.461 44S.419 68.422.27 44.27 19.579.419 43.731.27s43.85 19.309 43.999 43.461" fill="#00489b"/><path d="M73.746 43.816c.102 16.426-13.133 29.824-29.558 29.924S14.364 60.607 14.264 44.182s13.133-29.824 29.558-29.924 29.824 13.133 29.924 29.558" fill="#fbc642"/></g><path d="m10.642 44.027-.115-.004c.001-.111-.016-.195-.053-.265s-.108-.136-.213-.202q-.106-.067-.508-.21l-3.344-1.267.005-.12 2.702-.878-2.648-1.024.003-.11 3.512-1.149.467-.161a.4.4 0 0 0 .181-.163.7.7 0 0 0 .063-.288l.116.001-.047 1.553-.113-.004-.001-.075c.006-.11-.014-.19-.066-.252q-.072-.09-.176-.089c-.104.001-.238.038-.501.12l-2.372.756 1.975.755.356-.112.283-.09q.16-.063.281-.144a.4.4 0 0 0 .098-.092.6.6 0 0 0 .087-.155.6.6 0 0 0 .02-.181h.117l-.048 1.631-.115-.001.002-.116q.005-.169-.064-.253c-.069-.084-.116-.082-.199-.087-.106-.001-.291.039-.554.128l-2.303.736 2.286.86q.379.146.528.155a.23.23 0 0 0 .133-.043.24.24 0 0 0 .091-.11.9.9 0 0 0 .053-.305l.112.002-.034 1.251zm.181 2.924.112-.01.113 1.484-.113.009-.013-.159a.44.44 0 0 0-.233-.367c-.071-.034-.215-.048-.45-.03l-1.698.13q-.627.052-.981-.05c-.241-.063-.448-.214-.635-.442-.18-.234-.29-.557-.325-.977q-.048-.678.162-1.056a1.3 1.3 0 0 1 .598-.549q.265-.122 1.023-.18l1.632-.122q.384-.03.498-.147c.073-.071.104-.191.093-.349l-.013-.155.116-.011.137 1.804-.117.014-.01-.165q-.022-.258-.19-.358-.12-.068-.469-.037l-1.824.135a4 4 0 0 0-.553.086 1.2 1.2 0 0 0-.475.202.9.9 0 0 0-.268.359 1.2 1.2 0 0 0-.069.547q.032.41.234.724.204.306.49.403c.286.097.509.082.955.05l1.692-.131q.389-.03.479-.123c.089-.088.123-.208.111-.364l-.01-.163zm-1.35 3.028.319 1.918 1.185-.194c.214-.038.348-.071.409-.111.049-.029.083-.078.112-.15a.53.53 0 0 0 .023-.288l-.021-.144.112-.022.292 1.772-.115.015-.024-.149a.55.55 0 0 0-.115-.266.26.26 0 0 0-.17-.105q-.104-.018-.408.032l-2.667.438c-.21.033-.348.072-.409.107-.047.025-.084.078-.112.146a.6.6 0 0 0-.026.295l.021.144-.111.021-.292-1.769.116-.021.023.147c.028.166.101.286.212.345q.107.061.48-.004l1.26-.204-.315-1.926-1.261.212q-.314.049-.406.112c-.052.023-.084.074-.111.144a.6.6 0 0 0-.03.29l.025.155-.112.015-.291-1.771.113-.02.023.15q.044.249.212.348.108.055.48-.004l2.668-.441c.21-.037.353-.071.413-.108a.3.3 0 0 0 .111-.149.53.53 0 0 0 .024-.292l-.024-.146.115-.019.291 1.771-.112.02-.025-.147a.56.56 0 0 0-.115-.268.26.26 0 0 0-.169-.106q-.106-.023-.409.029zm.655 6.238-.43-1.563-.712-.097q-.265-.04-.379-.006c-.062.019-.106.063-.14.132-.028.076-.024.207.018.402l-.113.036-.35-1.272.111-.034c.079.16.145.263.205.296q.185.113.676.178l3.712.508.031.103-2.977 2.333q-.36.277-.442.453c-.082.176-.063.255-.031.421l-.107.028-.438-1.59.108-.033q.081.239.17.304c.066.045.126.059.193.045.088-.029.213-.106.384-.238zm.2-.144 1.444-1.131-1.826-.254.383 1.386zm2.542.403.543.998-1.548 3.746 2.125-1.148c.229-.122.353-.222.383-.304q.058-.166-.057-.375l-.069-.13.099-.055.694 1.281-.101.057-.073-.135q-.124-.23-.319-.254-.12-.01-.428.155l-3.108 1.677-.055-.097 1.659-4.033-2.272 1.228c-.226.118-.354.223-.382.301q-.058.163.055.378l.071.133-.102.053-.692-1.285.102-.052.069.126q.125.24.322.257c.076.01.22-.045.428-.154l2.566-1.381c.067-.18.106-.303.113-.38s.004-.179-.019-.304a1 1 0 0 0-.107-.251l.101-.053zm5.166 8.892.087-.078.979 1.115-.087.076-.106-.12a.43.43 0 0 0-.403-.15q-.114.016-.38.247l-1.273 1.122q-.473.416-.814.549c-.341.133-.489.101-.775.028s-.568-.27-.845-.583c-.301-.348-.47-.654-.509-.941a1.28 1.28 0 0 1 .147-.796q.144-.26.709-.759l1.229-1.08q.29-.258.31-.419c.02-.161-.032-.217-.141-.334l-.098-.12.079-.076 1.201 1.357-.084.078-.108-.118q-.17-.195-.368-.175-.132.02-.399.251l-1.366 1.207a3.6 3.6 0 0 0-.394.401c-.139.166-.224.312-.263.448s-.034.287.008.45q.058.237.272.475c.181.21.39.351.62.437a.97.97 0 0 0 .639.03q.292-.093.79-.533l1.272-1.126c.198-.167.302-.301.31-.388.018-.12-.03-.239-.135-.361l-.102-.112zm.763 1.063.839.77-.244 4.049 1.639-1.777q.257-.284.263-.413c-.001-.111-.063-.23-.179-.34l-.108-.102.078-.079 1.076.983-.082.089-.107-.103q-.198-.18-.388-.136-.115.03-.354.285l-2.396 2.6-.082-.077.257-4.355-1.747 1.9q-.264.282-.267.414c-.001.11.058.227.18.336l.107.099-.078.084-1.069-.989.074-.082.108.095c.134.125.259.169.388.144.078-.018.198-.116.354-.283l1.976-2.149a2 2 0 0 0-.014-.393 1 1 0 0 0-.116-.28 1 1 0 0 0-.181-.205l.073-.083zm2.41 7.543-.067.093-1.445-1.073.071-.091.117.089q.213.152.394.106c.077-.026.195-.139.343-.338l1.62-2.173q.186-.259.215-.359a.3.3 0 0 0-.02-.184.6.6 0 0 0-.185-.229l-.12-.088.068-.096 1.441 1.073-.069.093-.121-.092c-.14-.103-.266-.134-.389-.101-.083.021-.195.133-.345.332l-1.615 2.173c-.131.171-.201.292-.22.363a.28.28 0 0 0 .025.186.6.6 0 0 0 .179.227l.123.087zm6.133-.814-.058.096a.7.7 0 0 0-.363-.053 1.4 1.4 0 0 0-.482.256l-3.077 2.322-.097-.059.49-3.905.026-.377a.5.5 0 0 0-.084-.229.9.9 0 0 0-.229-.214l.059-.103 1.475.875-.062.098q-.265-.125-.374-.106c-.109.019-.13.052-.169.113-.049.086-.089.251-.12.485l-.335 2.658 2.085-1.583q.306-.234.38-.356c.033-.044.032-.115.01-.192a.6.6 0 0 0-.202-.252l-.04-.038.057-.098zm1.028.833-.688 1.5.838.392c.219.089.374.132.479.101q.204-.061.372-.382l.106.045-.61 1.328-.103-.053q.087-.29.086-.388-.01-.124-.097-.232c-.087-.108-.169-.144-.329-.219l-.834-.382-.576 1.257a1.2 1.2 0 0 0-.121.316.2.2 0 0 0 .04.125.6.6 0 0 0 .198.129l.645.296c.213.097.378.157.49.171a.8.8 0 0 0 .364-.05 2.4 2.4 0 0 0 .593-.362l.115.055-.766.805-2.935-1.349.048-.105.132.063a.6.6 0 0 0 .287.049.25.25 0 0 0 .181-.073 1.3 1.3 0 0 0 .203-.359l1.136-2.468q.167-.367.132-.483-.049-.158-.286-.269l-.134-.061.045-.107 2.938 1.348-.343.853-.108-.053c.052-.213.07-.375.058-.467a.5.5 0 0 0-.136-.271c-.058-.06-.184-.139-.374-.218l-1.047-.484zm4.919 6.169-1.056-.36-.722-2.311-.244-.073a.3.3 0 0 1-.081-.034c-.031-.006-.059-.02-.092-.028l-.388 1.149q-.127.373-.073.493c.045.113.137.189.288.241l.154.054-.034.111-1.699-.576.035-.108.149.05q.25.083.414-.047.094-.066.205-.408l.869-2.56c.083-.251.11-.422.073-.498q-.071-.168-.295-.242l-.151-.053.038-.105 1.447.485c.425.142.722.28.901.408s.312.302.398.513a.96.96 0 0 1 .006.656.98.98 0 0 1-.455.559c-.222.124-.508.166-.867.129l.437 1.412c.097.332.2.558.305.689s.264.244.471.343l-.035.111zm-2.13-2.994c.037.008.069.021.098.03s.049.023.064.028q.567.19.94.045a.84.84 0 0 0 .501-.534.87.87 0 0 0-.029-.68c-.102-.208-.285-.355-.539-.445a3 3 0 0 0-.479-.098l-.557 1.654zm6.233-.428-.343 1.411-.106-.028c.024-.281.015-.515-.039-.695a1.1 1.1 0 0 0-.305-.48 1.15 1.15 0 0 0-.503-.266.74.74 0 0 0-.563.064.58.58 0 0 0-.307.383.54.54 0 0 0 .047.373c.086.176.336.451.739.81l.664.664a1.1 1.1 0 0 1 .229.463q.058.247-.002.49-.108.464-.549.714c-.441.25-.63.201-1.005.104a1.7 1.7 0 0 1-.329-.104c-.055-.023-.178-.095-.356-.203s-.298-.171-.349-.188-.092-.004-.127.016q-.057.04-.112.173l-.111-.026.339-1.401.108.032q-.023.458.054.705c.077.247.156.321.315.465a1.34 1.34 0 0 0 .563.285q.372.089.64-.053c.268-.142.286-.233.33-.416a.7.7 0 0 0-.006-.324 1 1 0 0 0-.189-.35 9 9 0 0 0-.545-.534l-.631-.649a1.4 1.4 0 0 1-.241-.463.9.9 0 0 1-.001-.487c.072-.299.242-.52.518-.678s.587-.193.932-.11a1.7 1.7 0 0 1 .651.328c.099.079.174.12.218.133a.18.18 0 0 0 .141-.016.4.4 0 0 0 .122-.174zm1.804 4.426-.013.113-1.78-.239.015-.113.147.023q.257.03.394-.102c.057-.058.106-.214.137-.462l.36-2.683q.038-.313.015-.424a.3.3 0 0 0-.107-.146.56.56 0 0 0-.275-.108l-.146-.02.016-.115 1.779.236-.019.118-.147-.02q-.255-.034-.388.099-.091.09-.14.459l-.362 2.683a1.6 1.6 0 0 0-.019.424.3.3 0 0 0 .116.145.5.5 0 0 0 .267.112l.147.021zm4.298-3.735.001.984-.117-.006a1.1 1.1 0 0 0-.078-.373.56.56 0 0 0-.238-.273.8.8 0 0 0-.417-.106l-.588-.028-.147 3.195q-.02.39.059.486c.074.09.192.142.357.147l.147.009-.009.115-1.774-.082.004-.117.149.008c.176.006.306-.039.384-.144.049-.064.078-.209.091-.447l.15-3.198-.506-.024a1.6 1.6 0 0 0-.421.025.6.6 0 0 0-.287.212.94.94 0 0 0-.152.447l-.118-.008.096-.981 3.416.16zm3.08-.127 1.46-.063.004.113-.079.004a.7.7 0 0 0-.229.082 1 1 0 0 0-.276.215 3 3 0 0 0-.295.446l-.942 1.629.042 1.054c.014.256.045.416.107.477.079.084.209.122.375.11l.136-.001.005.111-1.776.074-.008-.112.15-.005q.264-.013.372-.178.061-.099.045-.455l-.042-.993-1.218-1.698-.294-.382a1.2 1.2 0 0 0-.307-.175.4.4 0 0 0-.178-.019l-.009-.12 1.794-.072.002.113-.093.007a.5.5 0 0 0-.262.077.22.22 0 0 0-.115.21q.003.11.203.393l.93 1.316.77-1.326c.113-.198.171-.346.165-.442a.23.23 0 0 0-.05-.151.3.3 0 0 0-.128-.101.6.6 0 0 0-.255-.028l-.004-.113zm5.884-1.074c.528-.127 1.034-.031 1.519.275s.796.768.94 1.367c.145.624.073 1.18-.224 1.687a1.95 1.95 0 0 1-1.271.949 1.94 1.94 0 0 1-1.556-.262c-.477-.31-.786-.781-.937-1.416q-.231-.97.28-1.74a2 2 0 0 1 1.25-.859zm-.003.234a1.08 1.08 0 0 0-.782.614c-.198.403-.215.925-.06 1.578.155.668.421 1.142.79 1.433.284.218.603.29.964.202a1.23 1.23 0 0 0 .843-.67q.266-.542.036-1.503-.247-1.047-.78-1.465-.43-.328-1.01-.189zm3.381-.993.519 1.563.723-.238c.17-.058.273-.135.331-.234q.074-.147.009-.488l.108-.035.445 1.344-.108.039q-.083-.231-.175-.32c-.092-.089-.127-.094-.209-.11s-.185.001-.321.044l-.723.239.416 1.253q.1.301.169.383c.039.044.093.07.165.087a.6.6 0 0 0 .292-.018l.144-.048.042.108-1.712.564-.033-.107.139-.045q.246-.084.309-.262.043-.12-.078-.479l-.85-2.568q-.102-.307-.173-.387a.3.3 0 0 0-.163-.084.6.6 0 0 0-.292.015l-.14.049-.034-.105 2.958-.984.325.859-.102.033a1.4 1.4 0 0 0-.312-.352c-.096-.059-.2-.098-.31-.105s-.273.028-.477.098l-.879.287zm7.078-3.802.537.824-.102.058c-.107-.136-.193-.227-.271-.271a.58.58 0 0 0-.348-.096.8.8 0 0 0-.404.136l-.51.293 1.616 2.762q.197.336.316.375c.113.037.241.006.377-.068l.127-.077.057.099-1.528.898-.062-.097.125-.077c.155-.092.236-.199.247-.33.004-.081-.049-.218-.168-.423l-1.619-2.76-.433.253q-.254.148-.343.247a.6.6 0 0 0-.12.336.9.9 0 0 0 .108.456l-.098.058-.453-.869 2.949-1.73zm1.182-.746.979 1.335.743-.545q.29-.215.317-.377c.035-.136-.018-.304-.15-.504l.092-.069.867 1.177-.093.062c-.145-.14-.242-.231-.303-.262-.072-.03-.154-.047-.246-.026s-.212.074-.348.179l-.745.545.817 1.115c.112.149.186.233.221.26.039.021.079.025.128.023s.117-.043.209-.111l.569-.419a2 2 0 0 0 .389-.344.8.8 0 0 0 .134-.346 2.4 2.4 0 0 0-.028-.693l.101-.072.331 1.061-2.6 1.912-.067-.093.117-.087a.56.56 0 0 0 .183-.223.3.3 0 0 0 .024-.201c-.02-.068-.091-.179-.217-.348l-1.61-2.189q-.237-.325-.355-.352-.16-.036-.372.122l-.118.088-.069-.094 2.601-1.911.577.71-.094.073q-.247-.231-.382-.283a.47.47 0 0 0-.302-.013c-.084.023-.213.1-.379.218l-.922.684zm4.356-4.308 1.048.971-.068.064c-.388-.225-.728-.321-1.03-.293a1.33 1.33 0 0 0-.812.378c-.2.193-.336.415-.399.674-.073.257-.045.542.074.854s.338.637.653.971q.389.413.809.591a1.37 1.37 0 0 0 .836.092 1.57 1.57 0 0 0 .762-.416q.294-.278.403-.62c.109-.342.078-.554.023-.975l.115-.024q.153.625.026 1.103c-.127.478-.267.608-.549.877-.504.474-1.075.654-1.704.543a2.23 2.23 0 0 1-1.24-.691 2.5 2.5 0 0 1-.588-1.032 2 2 0 0 1 .006-1.125 2.1 2.1 0 0 1 .586-.947 2.05 2.05 0 0 1 .804-.459.4.4 0 0 0 .18-.072.2.2 0 0 0 .066-.144.5.5 0 0 0-.073-.251l.074-.07zm2.413.262 1.109-1.601-.989-.683q-.263-.181-.37-.204c-.057-.018-.116-.001-.183.028a.6.6 0 0 0-.223.194l-.083.118-.093-.067 1.022-1.473.092.064-.084.122a.6.6 0 0 0-.099.271.27.27 0 0 0 .043.195c.041.059.15.15.32.261l2.223 1.541q.263.18.369.208a.33.33 0 0 0 .179-.03.66.66 0 0 0 .227-.195l.083-.116.091.059-1.017 1.478-.092-.066.082-.121c.096-.138.129-.273.088-.397-.025-.082-.141-.188-.348-.332l-1.052-.724-1.107 1.601 1.052.728c.172.116.296.185.368.199a.24.24 0 0 0 .183-.028.53.53 0 0 0 .223-.192l.084-.125.096.068-1.02 1.474-.096-.062.083-.12q.152-.216.091-.398c-.024-.081-.142-.189-.348-.335l-2.224-1.535c-.175-.12-.3-.193-.372-.208a.28.28 0 0 0-.18.029.65.65 0 0 0-.226.19l-.084.123-.095-.067 1.024-1.475.091.063-.087.13a.6.6 0 0 0-.099.271.27.27 0 0 0 .047.193 1.5 1.5 0 0 0 .317.263l.986.681zm.352-3.719.529-1.006 3.973-.809-2.14-1.125q-.343-.177-.465-.149c-.113.03-.207.12-.287.261l-.064.129-.103-.052.676-1.291.103.053-.071.131q-.125.236-.029.412c.033.069.159.157.365.267l3.128 1.636-.052.1-4.269.882 2.285 1.194c.226.123.386.176.464.155q.169-.047.285-.263l.067-.128.102.053-.676 1.291-.102-.054.069-.126c.084-.159.094-.299.031-.411q-.052-.108-.364-.271l-2.584-1.353a1.8 1.8 0 0 0-.379.115 1.1 1.1 0 0 0-.241.185 1 1 0 0 0-.146.228l-.106-.053zm2.857-6.113c.203-.508.566-.868 1.098-1.088.531-.213 1.086-.213 1.656.016.595.234 1.011.62 1.253 1.146s.26 1.057.048 1.587a1.92 1.92 0 0 1-1.111 1.121c-.523.219-1.087.203-1.69-.039-.622-.244-1.041-.656-1.265-1.232a2 2 0 0 1 .01-1.512zm.19.136c-.14.348-.117.679.054.994.217.387.632.707 1.257.957s1.179.304 1.626.165c.346-.099.588-.324.722-.665q.218-.552-.069-1.078c-.287-.526-.591-.649-1.208-.896-.666-.261-1.211-.329-1.645-.191q-.518.153-.737.714m4.531-4.778.048-.091.999.653-.874 3.121-.111-.029.04-.15c.05-.171.024-.312-.06-.415-.053-.058-.198-.121-.423-.188l-2.605-.731q-.38-.103-.496-.044-.164.072-.228.305l-.043.151-.11-.033.508-1.823.113.026c-.062.218-.083.368-.067.47s.053.174.108.222.204.11.441.171l2.537.715q.247.064.354.044a.2.2 0 0 0 .118-.079c.031-.042.09-.199.161-.46l.082-.294c.087-.309.125-.538.117-.671s-.061-.275-.146-.409-.246-.291-.464-.464zm-2.611-3.186q.134-.809.849-1.292c.715-.483 1.01-.435 1.621-.33.631.106 1.115.394 1.462.86s.475.983.378 1.542c-.097.567-.378 1.017-.849 1.331s-1.027.423-1.669.315c-.654-.11-1.149-.43-1.49-.946a2 2 0 0 1-.302-1.48m.214.093a1.08 1.08 0 0 0 .259.959c.295.338.768.561 1.427.673q1.012.175 1.63-.167a1.1 1.1 0 0 0 .567-.806 1.23 1.23 0 0 0-.295-1.037c-.257-.306-.715-.511-1.367-.626q-1.061-.176-1.651.151-.474.265-.571.854zm.369-6.059 1.328-.021-.009.107q-.503.131-.77.373c-.253.232-.399.55-.419.936a1.36 1.36 0 0 0 .553 1.256q.51.381 1.246.432a2.6 2.6 0 0 0 1.107-.164q.51-.2.762-.559c.252-.359.261-.493.282-.756a1.8 1.8 0 0 0-.031-.448 1.6 1.6 0 0 0-.15-.427l-1.208-.079q-.309-.02-.412.024a.28.28 0 0 0-.156.136c-.042.064-.064.181-.077.35l-.116-.009.103-1.619.116.009-.004.077c-.011.161.039.273.139.34q.111.07.447.091l1.279.078a3 3 0 0 1 .236.724 3 3 0 0 1 .044.768c-.057.807-.353 1.406-.899 1.794a2.07 2.07 0 0 1-1.373.384 2.2 2.2 0 0 1-1.04-.329 2.27 2.27 0 0 1-.87-.928q-.242-.474-.197-1.098a2 2 0 0 1 .062-.416 4 4 0 0 1 .195-.515.8.8 0 0 0 .081-.227q.005-.058-.045-.106c-.05-.048-.105-.05-.21-.06l.009-.117zm.101-3.576-.035-1.464.117-.001v.077q.006.084.081.237a.9.9 0 0 0 .209.275q.137.127.438.304l1.614.97 1.051-.021c.258-.006.419-.042.484-.099.084-.079.12-.205.12-.372l-.004-.14.115-.001.04 1.779-.112.003-.001-.149c-.006-.173-.063-.302-.174-.372-.066-.047-.219-.062-.448-.058l-.995.023-1.724 1.192a3 3 0 0 0-.38.285 1.1 1.1 0 0 0-.181.306.5.5 0 0 0-.024.181l-.111.001-.049-1.791.116-.002.005.093a.5.5 0 0 0 .073.263.21.21 0 0 0 .207.117c.072 0 .207-.066.394-.198l1.333-.903-1.314-.792c-.195-.117-.336-.181-.436-.175a.26.26 0 0 0-.152.049.3.3 0 0 0-.103.13.7.7 0 0 0-.034.255l-.116.001zM43.752 3.656C32.611 3.725 22.55 8.3 15.297 15.648S3.584 33.106 3.654 44.253c.068 11.137 4.647 21.2 11.993 28.453A40.2 40.2 0 0 0 44.25 84.349c11.143-.068 21.201-4.645 28.456-11.993a40.22 40.22 0 0 0 11.642-28.6c-.069-11.147-4.647-21.204-11.993-28.459s-17.46-11.71-28.602-11.64zM14.075 14.442c7.563-7.66 18.052-12.434 29.666-12.505S65.902 6.51 73.563 14.074c7.654 7.566 12.427 18.053 12.497 29.67s-4.571 22.16-12.13 29.817c-7.568 7.656-18.053 12.429-29.67 12.501S22.099 81.49 14.441 73.928A41.93 41.93 0 0 1 1.939 44.263a41.94 41.94 0 0 1 12.136-29.821m29.744.856c-7.926.049-15.08 3.309-20.243 8.534s-8.329 12.42-8.281 20.347a28.62 28.62 0 0 0 8.53 20.241 28.6 28.6 0 0 0 20.347 8.278c7.921-.049 15.081-3.303 20.244-8.528s8.328-12.423 8.279-20.346a28.63 28.63 0 0 0-8.529-20.244 28.62 28.62 0 0 0-20.347-8.284zM22.77 23.034a29.76 29.76 0 0 1 21.042-8.86c8.238-.052 15.714 3.241 21.148 8.601 5.428 5.37 8.815 12.804 8.865 21.045a29.74 29.74 0 0 1-8.606 21.145c-5.367 5.427-12.803 8.815-21.041 8.867a29.77 29.77 0 0 1-21.149-8.606c-5.425-5.366-8.81-12.802-8.862-21.037a29.78 29.78 0 0 1 8.602-21.153z" fill="#fff"/><g fill-rule="evenodd"><path d="m33.593 26.411-1.441.656-1.343.758-1.137.664-1.348.961-1.02.858-.924.779-.888.862-.932.952-.7.828-.665.828-.612.87-.482.922-.622.965-.488 1.061-.54 1.234-.4 1.105-.312 1.11-.27 1.294-.226 1.158-.186 1.474-.139 1.204-.011 1.524.045 1.126.219 1.35.273 1.086.447 1.233.496 1.179.588 1.013.685.877.82.883.957.757 1.007.664 1.19.583 1.15.398 1.155.231 1.116.168 1.255.005 1.17-.091 1.396-.078 1.038-.188 1.219-.222 1.043-.275 1.04-.276 1.182-.402 1.139-.452 1.093-.452 1.141-.499 1.332-.801-1.26.041-1.258.045-1.386-.099-1.52-.101L36.432 56l-.891-.261-1.195-.403-.923-.483-.965-.572-.959-.843-.817-.792-.6-.788-.506-.826-.503-.959-.455-1.1-.402-1.223-.181-1.172-.135-1.129-.044-1.208-.043-1.215.045-1.211.186-1.383.276-1.334.316-1.247.414-1.553.407-1.286.503-1.368.447-1.153.586-1.276.436-.88 1.19-2.271zm21.447-5.59-1.614.545-1.765.621-1.694.613-1.541.626-1.547.775-1.78.919-1.635 1.076-1.717 1.3-1.331 1.246L39 29.848l-1.344 1.391-1.35 1.62-1.271 1.542-1.045 1.556-.971 1.631-.903 1.789-.586 1.499-.354 1.347-.202 1.285-.204 1.357.016 1.591.106 1.219.331 1.302.486 1.229.492 1.01.715 1.086.731.788.732.708 1.035.641 1.047.421 1.272.508 1.277.276 1.51.209 1.363.05 1.367.053 1.52-.097 1.446-.175 1.297-.179 1.378-.326 1.223-.258 1.304-.402 1.382-.48 1.309-.484 1.151-.411.931-.495.775-.427-.913.043-.989.112-1.365.023-1.212-.043-1.358-.281-1.275-.35-1.346-.506-1.412-.812-1.101-.951-.867-1.096-.576-.858-.567-1.08-.406-1.381-.331-1.227-.171-1.45-.107-1.291.059-1.515.209-1.433.367-1.656.437-1.572.514-1.58.666-1.565.736-1.415.886-1.408.884-1.333 1.033-1.174 1.027-1.169 1.024-.954.942-.874 1.015-.796.785-.651 1.484-1.159zM43.564 44.197l.484-.499.865-.618 1-.567.91-.619.952-.521.723-.534.757-.391.855-.483.904-.524.999-.476.993-.475.952-.477.95-.433.951-.431.942-.379 1.002-.476 1.134-.423.802-.299.945-.29.892-.195.893-.204.891-.15.938-.11 1.022.09 1.062.227.689.354.681.442.587.582.486.719.346.661.388.761.297.805.246.849.107.845.107.937c.393 3.759-.718 7.786-1.826 11.351l-.67 1.745-.307.782-.306.639-.353.692-.442.632-.35.548-.482.539-.481.353-.529.403-.804.299.028-.651.157-.607.12-.649.164-.549.312-.922-.34.315-.203.457-.202.459-.358-.437-.118.562-.208.645-.256.64-.256.598-.307.733-.443.59-.483.496-.292.315-.325-.06-.422.127-.267-.383-.392.544-.491.68-.307.596-.436.538-.44.547-.392.496-.069-.705-.282.037-.202.465-.374.445-.257.243-.03-.292.264-.406.183-.457.316-.573.183-.539.232-.449.14-.412.141-.455-.298.157-.223.408-.228.451-.266.45-.228.453-.266.406-.136.374-.185.368-.352.491.071-.792-.3.194-.224.411-.27.448-.261.325-.351.445-.346.363-.436.486-.476.361-.426.234-.251-.01.05-.291.184-.369.094-.331.224-.324.14-.412.054-.294-.3.197-.306.324-.389.316-.348.368-.433.403-.474.398-.476.399-.305.324-.392.402.059-.374.171-.203-.333-.008-.38.11-.383.113-.419.106.312-.448.382-.277.479-.442.392-.406.561-.479.569-.645.606-.649.615-.732.567-.645.441-.608.437-.571.401-.571.485-.694.447-.693.392-.569.363-.613.359-.739.362-.612.321-.787.318-.736.237-.745.2-.829.156-.826.109-.587.062-.621.025-.627.021-.625-.057-.756-.141-.592-.061-.671-.188-.59-.263-.722-.225-.635-.351-.726-.396-.598-.396-.603-.52-.557-.527-.486-.569-.354-.578-.353-.612-.275-.618-.273-.663-.194-.746-.112-.709-.108-.833-.033-.752-.031-.671.059-.71.057-.76.099-.714.141-.676.181-.629.145-.632.102z" fill="#00489b"/><path d="M12.351 22.947c.077-.086.14-.203.225-.266.102-.073.496-.043.615-.003.035.019.074.029.113.044a.8.8 0 0 1 .239.213l.089.151c-.018.054.021.305.021.305l-.023.03c.044.151-.074.549-.268.469-.009-.008-.041-.019-.034-.031-.034-.016-.072-.053-.107-.086-.045-.04-.199-.255-.176-.28l-.229-.145-.423-.108c-.016 0-.077-.013-.067-.029-.01-.059-.01-.186.027-.234q0-.006.005-.02zm66.033 2.997.069.319c.011.122-.028.209-.036.335l.005.238c-.002.197-.166.232-.286.22-.097-.01-.239-.126-.334-.055.077.141.151.159.248.238.149.12.291.238.418.378l.13.135c.062.052.201.055.234.132-.003.009.011.015 0 .024.016.01.02.018.023.024s.002.025.018.015c.029.024.063.045.089.034l.059.195.063.256.002.139c.018.001.032.005.05.008-.021.06-.052.175-.029.219.009.044-.001.072-.035.093a.1.1 0 0 1 .02.023c0 .026-.006.026 0 .044-.024.004-.049.004-.076.014.005.015.018.082.009.089.02.034.02.06.016.083-.026.122-.461.446-.573.48-.063.013-.171-.049-.204-.123-.014 0-.452-.355-.467-.388-.062-.013-.17-.076-.203-.149-.098.028-.474-.218-.548-.088-.03.058-.073.418-.073.418-.005.053-.072.345-.088.316-.241.242-.622-.316-.782-.197-.053-.076-.293-.189-.287-.011.006.127.102.27.146.393.091.229.058.417.025.649-.014.086.033.16-.019.241a.3.3 0 0 1-.137.095h-.059c-.073.006-.358-.276-.387-.259-.03 0-.052-.027-.069-.068-.031-.021-.066-.043-.092-.068-.068-.113-.209-.157-.202-.315.002-.021.013-.044.019-.066l.19-.15.069-.087a.4.4 0 0 0-.011-.218.4.4 0 0 0-.047-.076c-.013.009-.018.009-.025.014-.087-.128-.291-.05-.388.054-.02.035-.034.071-.053.106q-.015.005-.027.005l-.015.037c-.084.03-.214.135-.283.2l-.073.099-.402.29c-.028.096-.253.214-.319.287-.033.038-.055.115-.082.14-.058.01-.241.141-.198.236a.2.2 0 0 0-.056-.003l-.188.226c-.04.013-.077.028-.12.045-.149.063-.244.144-.384.047-.023-.023-.043-.044-.069-.063l-.096-.144c-.001-.013-.013-.018-.001-.026-.094-.055-.069-.178-.111-.27-.019-.038-.088-.205-.049-.229-.02 0-.025.003-.03.003-.006-.011-.013-.015 0-.025 0-.01.01-.07.016-.053q.002-.032-.008-.066c-.023-.147-.038-.283-.081-.435-.005-.019.008-.029.006-.042-.015-.004-.019-.014-.028-.024.002-.155-.097-.295-.068-.451 0-.005 0-.032.011-.015-.001-.013-.008-.047.001-.059.006-.004.043-.006.031-.023.029-.001.041-.008.055-.013l.073.229c.018.047.029.097.045.142.016.015.135.173.113.188.004.005.006.016.013.02.023.021.06.088.049.096.016.019.014.019.025.009 0 .021 0 .024.005.025q.012.017.02.035c.025.018.054.073.077.054.02.014.02.026.03.019.005.013.008.023-.006.035.014.014.011.033.024.02-.01.016-.019.032-.01.045l.005-.003c.054-.063.26.029.333-.026.14-.117.295-.227.447-.328l.224-.174c.013-.009.067-.062.074-.049.04-.089.165-.128.227-.204.027.008.029.021.038.008.004 0 .166-.235.185-.185l.19-.223.11-.079c.006-.03.018-.063.025-.095-.002-.006-.002-.012-.009-.02-.05-.026-.098-.062-.146-.093l-.44-.237-.12-.028a6 6 0 0 0-.804-.272l-.436-.156c-.018-.005-.011-.039-.025-.026-.018-.038-.068-.068-.093-.111-.107-.195-.103-.353-.12-.558-.005-.014-.013-.087-.024-.077.002-.045-.024-.33 0-.348v.021c-.003-.107.053-.25.01-.357.008-.112.076-.125.11-.184.014-.023.021-.034.025-.016.013.02.01.02.018.013 0-.008 0-.043.009-.02.005.013.024.013.011.019.019-.013.013-.015.019 0 .008.004.011.009.018.015s.01.016 0 .023a.2.2 0 0 0 .047.034c0 .02.009.035 0 .044q.057.029.102.071c0 .011.015.019.004.029.019.015.014.011.023.006 0 .02 0 .02.005.028s.028.034.019.04c.024.004.02.01.019 0q.01.028.026.057l.073.057c-.011.005-.02.027-.01.016 0 .02.01.02.005.01l.068.066q.005-.016.014-.025c.001 0 .016 0 .021.006-.001.021 0 .044.016.034q.003.015.009.029c.011-.008.016-.016.023 0l.014.031c.018.001.031.001.04.013 0 .021.005.034.005.047h.021l.364.299c.045.044.207.16.231.214.023.013.043.024.063.043a2 2 0 0 0 .213.174c.016.011.02.009.009.018a.7.7 0 0 1 .265.17c.009-.009.018-.014.032-.024.011.024.011.047.024.039.013.019.034.035.049.057-.005.02-.007.019 0 .014.033.011.048.028.063.037l.008-.008c0 .013-.008.045.005.039.016.016.036.024.049.044.011.003.045.004.029.015.026.018.093.094.081.107.011-.003.026-.013.034.004a.1.1 0 0 1 .011.032c.015-.006.04-.011.048.006.008-.013.011-.024.011-.011l.071.058.195.128q.001.01.006.021h-.006l.128.111c.016.024.234.034.242.024.023-.002.171.015.169.004l.076-.015c0-.004.014-.016.019-.001l.082-.032c.005.008.019.011.005.019l.019-.008c.063-.013.123-.018.186-.026.061-.033.212-.063.154-.184-.005-.016-.052-.078-.045-.084-.083-.102-.191-.128-.291-.19l-.125-.102-.109-.068c-.014-.013-.056-.067-.077-.053a.1.1 0 0 1-.024.032c-.088-.18-.334-.163-.435-.383q-.042-.038-.087-.073l-.076-.268q.002-.019.002-.042c-.041-.096-.067-.234-.004-.315.019.024.016.024.026.015a.9.9 0 0 1 .254.084c.01.025.066.147.058.15.026.02.048.029.068.042.05.04.264.227.301.204.015.009.014.015.011.016.014.024.043.071.057.064.009.025.015.031.006.037l.247.2c.005.018.005.021 0 .025l.412.307.27.223c.018.01.02.016.023.023.028.025.134.145.159.125.12.037.406.096.503.026 0 .009-.005.032.009.018s.025-.011.031-.02c.023.002.108-.016.122.009q.014-.022.033-.04c.016.013.13.063.117.035.011-.005.045-.026.05-.009.014-.015.029-.013.02-.028a1 1 0 0 0 .127.053q.04-.023.083-.054l.106.042.092-.011c.014-.005.053-.019.067.008.009-.016.021-.025.026-.009.088-.049.186-.073.223-.184a.44.44 0 0 0-.026-.227 2.7 2.7 0 0 0-.54-.528c-.04-.018-.108-.016-.145.011-.021.039-.034.069-.067.087-.074.174-.174.403-.31.515q-.056.027-.12.049c-.016.005-.068.025-.062.037l-.259-.043c-.071-.021-.252-.15-.302-.118l-.094-.193c-.16-.178-.239-.651-.118-.872.049-.087.147-.146.222-.199.018.001.018-.004.025.006.025-.028.138-.082.147-.063.013-.019.055-.018.05-.039.026 0 .081-.021.087-.008.02-.008.026-.028.033-.011.019-.004.02-.024.03-.004.011-.006.011-.021.018-.005.019-.016.031-.011.021-.028.057.011.13.031.184-.009-.014-.043-.059-.134-.059-.134l-.071-.044-.237-.083-.161-.086-.062.026-.188.237c.002.047-.043.108-.074.132l-.041.116c-.059.156-.21.369-.375.344-.011-.003-.03.011-.04-.011-.263-.199.016-.697-.162-.878-.01-.01-.029-.026-.04-.02l-.067.106c-.108.035-.254.272-.335.089-.112-.154.008-.306.053-.45.016-.04.026-.082.04-.128.005-.008.087-.208.105-.165l.069-.17.011-.04.137-.27c.054-.092.13-.185.165-.286.005-.01.024-.067.03-.049.049-.146.194-.756.359-.389l.01.139c.004-.019 0-.013.013-.02h.021c.007.053-.053.321-.05.327.004.016.004.018.01.024s.041.001.047.016c-.004.058-.023.111-.039.165.02.091-.084.234-.044.325l.014.001q.028-.005.049-.006c.002 0 .013.005.02 0a.4.4 0 0 1 .107-.16c0-.053.023-.111.062-.136l.023-.14c.083-.076.112-.267.159-.301 0-.061.06-.45.094-.475-.001-.174.063-.428.224-.411.003 0 .033 0 .015.01.049.05.04.603.083.693l-.006.018-.04.003a.5.5 0 0 1 .031.229c-.015.061-.086.135-.053.203q.014-.007.033-.013v.013c-.033.067-.034.203-.044.208a2 2 0 0 0-.113.33l-.023.166c-.02.059-.058.086-.066.159a.4.4 0 0 0 .02.136c.049-.008.188.005.222.069h.016c.073-.005.15.058.222.048.011-.001.019-.01.025.005.006-.009.013-.016.02 0 .009-.011.04-.025.032-.044l.024-.234c.008-.098-.048-.335.047-.403.037-.054.101-.047.141-.079.024.092.064.197.103.277l.063.076c.01.159.066.359.193.402.019.006.081-.003.092.028.01-.013.01-.003.006-.02.026-.001.088-.006.101.02q.007-.008.011-.023c.005.004.048.021.04 0 .011-.005.059-.006.05-.023a2 2 0 0 0 .166-.095c.026-.006.039-.018.054-.024l.126.023zm-1.343 1.245a3 3 0 0 0-.228.096c-.105.001-.16.2-.112.309l.035-.006.12.015c.021-.001.021-.001.028-.004.086-.126.21-.213.157-.409zM66.04 17.952c.038.135.19.407.077.54l.009.058-.074.38.014.289c-.034.23-.07.463-.059.71l.066.237c.006.063.006.118.008.18-.024.014-.025.044-.039.026.009.05.04.202.008.242q.01 0 .027.005c.02.006.067.034.057.048q.023.018.03.021l-.021.028a.5.5 0 0 0-.037.099c.016 0 .023.006.03.019s.008.033.008.049c.018.016.048.074.06.063.014.04.029.083.057.12 0 .029.057.18.057.18.018.009.029 0 .042-.006q.008.017.021.033c-.021.062.014.103.047.151a.2.2 0 0 1 .009.05q.014.013.029.019v.01c.021.155.158.267.219.404.018.049.034.204.034.204-.059.055-.17.011-.194.04-.107-.07-.185-.095-.283-.228-.144-.013-.397-.209-.539-.306-.192-.132-.43-.186-.595-.418-.007-.059-.087-.33-.044-.382-.037-.142.047-.471.062-.453.185-.461.262-.993.434-1.468.039-.102.101-.343.168-.419-.011-.068.057-.396.097-.438.01.011.01.023.021.008.028-.088.137-.096.198-.096zm2.129-4.124c.048.077.133.175.131.266l-.005.179.063.212c-.021.011-.04.019-.053.008-.002.023-.004.023-.008.025l.052.224c.015.149-.013.379.066.496-.011.002-.09.02-.071.047a.77.77 0 0 1-.034.442c-.006.011-.024.068-.035.054q-.045.078-.101.145c-.11.013-.358.227-.455.325-.014.01-.045.02-.035.037l-.135.142c-.152.033-.316.266-.441.383-.014.011-.043.029-.037.042-.006 0-.053-.013-.039.005-.054.062-.087.159-.033.238.005.01.014.015.004.028.039.015.722.165.722.165.009.01.014.016.006.03.026.008.041 0 .062 0l.013-.035q.017.007.026.009l.137.236.084.116c.019.018.038.044.061.064.166.102.06.433.123.52l-.122.179c-.062-.035-.131-.01-.184-.088-.009-.006-.021-.006-.035-.016-.004-.011-.006-.025-.014-.038-.073-.015-.368-.14-.413-.203l-.176-.043a.1.1 0 0 0 .028-.006l-.028-.011-.237-.126c-.115-.059-.491-.049-.571-.158-.098.015-.169-.092-.259-.101-.139-.011-.26.103-.386.141-.013.004-.048.015-.039.033-.145.028-.232.154-.365.239l-.228.062c-.011.003-.064.023-.053.045-.011.002-.071.025-.056.043-.144.03-.267.101-.413.121-.01 0-.035-.006-.025.009a.1.1 0 0 1-.024.029c-.087.015-.407.193-.48.086-.01.016-.01.006 0 .023l-.147.041c-.008.006-.016.019-.025.024a.4.4 0 0 1-.069.028c-.042-.044-.132-.081-.174-.025-.198-.015-.339-.096-.501-.174l-.165-.043-.224-.145-.074-.049c-.068-.122-.223-.157-.31-.248-.053-.063-.106-.166-.176-.193-.004-.009-.055-.009-.039-.025a.7.7 0 0 1-.154-.2l-.037-.111-.229-.334c-.005-.009-.005-.021-.018-.004.002-.023.024-.067.016-.079.025-.004.044 0 .034-.021-.005-.01-.003-.02.008-.004.008-.004.037-.01.023.009q.075.015.137.049c0 .011.018.015.009.028.025.018.018.018.029.001 0 .011.005.021.005.033.011.018.015.034.023.049.038 0 .077.019.118.038q.021.003.02.009.022-.005.037-.006l.237.135c.032.013.125.021.139.037q.01.008.025.011c.029.029.054.074.077.111.018-.024.034-.043.052-.073l.026.083a.3.3 0 0 1 .129.097c.125-.038.233-.008.355-.01l.023.001.102-.003.077-.016c.009.008.016.008.024.014s.005.014.013.019l.072-.004c.021.014.035.024.03.042.062-.013.441-.059.477-.013q.01-.022.023-.045a2 2 0 0 1 .15-.001c.042.008.076.024.113.037.001-.01.021-.067.04-.045.015-.021.058-.082.072-.067.018-.026.052-.05.041-.064.023-.014.016-.015.028 0 .058-.023.108-.034.158-.05 0-.005 0-.02.004-.008a.27.27 0 0 0-.132-.12c-.093-.035-.829-.213-.868-.17-.009-.01-.02-.032-.03-.043-.12-.004-.236-.116-.304-.251-.008-.01-.014-.04-.025-.023-.002-.021-.05-.101-.039-.112 0 0-.009-.039 0-.023 0-.016-.038-.123-.048-.111-.004-.013-.014-.079-.03-.061.015-.125-.077-.993-.145-1.086l.091-.164a.32.32 0 0 1 .225.132c0 .018.003.038.008.048.014.014.023.014.014.006.029-.014.139.01.115.037.011.006.013 0 .02 0 .004.006.006.016.011.02l.137.165q.012.007.035.016c.013-.004.015.003.025.009l.072.063c.009-.002.023-.011.032 0 .008.026.021.039.034.054.005.025 0 .025.011.008.018.016.016.043.028.024l.016.021c.009 0 .011.01.013.019.028-.003.042-.009.048.006.034.003.225.096.212.108.13.111.344.128.428.246l.175.058c.001.01.009.018.011.023.011.02.026.026.039.034l.316.11c.04.015.168.102.186.081.035.032.181.09.181.09.087-.016.153.016.218-.018.013-.005.016-.01.028 0 .006-.01.011-.02.02-.01a.3.3 0 0 0 .026-.044c.014 0 .019-.011.029 0 .087-.166.291-.244.398-.369.006-.011.055-.047.067-.039.004-.008.009-.018.02-.005l.126-.233c.023-.03.094-.068.089-.059a4 4 0 0 0 .568-.641l.096-.195.3-.404c.047-.082.05-.203.111-.276.077-.093.186-.133.273-.237.015-.019.1-.084.092-.094a1 1 0 0 0 .086-.044zM55.034 8.382c.17.179 1.106.891.999 1.194-.123.358-.796.409-1.064.542l-.382.223-.195.135c-.038.034-.144.115-.198.082-.038.195-.911.533-1.018.839-.021.013.021.134.037.147.021-.009.033-.031.047-.024l.071-.002c.038.009.057.009.079.013s.028.026.036.004c.006.009.015.01.019.013.026-.004.102.025.11 0 .019.003.025.009.03.019l.029.019a.2.2 0 0 1 .044-.023q.017.015.025 0c.011.002.029.023.033.002.034 0 .054.006.073.006.041-.039.189-.073.223-.048l-.005.004c.011.005.029-.005.023.016q.02-.005.023-.003.034 0 .045.013c.009.023.005.023.011.006.029-.009.064-.014.058.003.019 0 .025 0 .019.013.029 0 .058.013.066-.006.044.006.2.016.215-.032l.025-.001c.19-.059.375-.026.554.144.062.054.098.125.178.18.021.013.091.053.084.079l-.01.024c-.016.001-.052.008-.055.027-.009.019-.009.021-.01.025.061.039.102.077.15.116-.011.016-.011.026-.026.016-.004.084-.02.15-.026.215-.034.156-.18.305-.31.319l-.159-.062-.16.01c-.092-.009-.179-.054-.267-.049-.02 0-.127.004-.116-.02-.073.04-.568-.029-.659-.083a.3.3 0 0 1-.032.043c-.094-.076-.186-.025-.254-.063-.036-.039-.173-.026-.173-.026-.013-.005-.058-.01-.05-.028-.023-.001-.199-.02-.19-.047-.064.048-.53.096-.601.053l-.072-.025-.203.02c-.035-.031-.379-.034-.433-.019l-.179.076c-.014.001-.068.024-.06.009-.16-.044-1.226.112-1.291.299-.011-.018-.032-.01-.025-.031-.083.121-.33-.044-.359.024-.02-.021-.04-.05-.059-.074-.026-.016-.238-.297-.229-.315v-.016l-.079-.21c-.05-.1-.161-.39-.154-.491 0-.022.011-.064 0-.071 0-.021 0-.038-.01-.054 0-.008 0-.047.016-.037.001-.011.001-.076.021-.064a.3.3 0 0 0 .009-.054q.021-.02.047-.038l.002-.04c.014-.016.019-.068.033-.058.006-.028.023-.174.033-.168.016.006.018.009.02.013l.039.037h.032c.008-.005.019-.018.033-.011.064-.021.144.054.209.093.045-.016.086-.016.125-.02.004.006.009.019.01.006.044.006.081.015.127.025l.164.002c.011-.01.015-.01.019-.01a.8.8 0 0 0 .199-.052l.118.084.044.008c.031.002.05 0 .074-.002.025.042.058.067.087.095.02-.013.04-.021.024-.03l.06-.043c.021.002.026 0 .021.013l-.008.025c.01 0 .02.005.032.005.011-.005.016.019.025 0 .029-.001.029-.009.023.008.024-.02.093 0 .106-.026.027.018.083.037.074.058.018-.013.014-.011.025 0 .014-.011.02-.008.026-.005.006-.006.018-.018.029-.016a.1.1 0 0 1 .049.033c.009.001.024.004.035.004a.4.4 0 0 0 .079.011l.165.008.023-.02c.086-.063.355-.15.393-.263.009-.004.028-.01.02.009a.03.03 0 0 0 .008-.023c.026-.016.165-.088.154-.096.019 0 .045.008.058-.016 0-.013.01-.023.021-.03q.036-.02.072-.034l.038-.04c-.009-.009.011-.035.005-.01.05-.025.146-.054.173-.117q.034.011.038-.01.03-.028.058-.06c.014.006.018.023.023-.001.015-.02.069-.066.097-.054a.1.1 0 0 1 .024-.044c.049-.029.339-.222.36-.208a.3.3 0 0 1 .066-.083q.02.014.032.013c.012-.001.014-.002.019-.018.028-.081.223-.082.236-.122.006-.016.044-.068.026-.079.02-.004.033.009.047.011.014-.038.048-.001.059-.028q.02.01.04.024a.1.1 0 0 0 .026-.044c.016-.01.016-.024.03-.018-.003-.008-.011-.03.006-.024.013-.019.006-.043.026-.033.001-.013.004-.028.019-.015.039-.06.471-.343.509-.322l.02-.019a2 2 0 0 1 .234-.233c.028 0 .034.013.04-.009l.111-.107c.026-.06.059-.176.003-.214-.126-.026-.278-.066-.399-.058l-.241.047c-.011-.005-.074.003-.063-.019-.142.06-.258.02-.398.034l-.142.045-.198-.005c-.36.009-.397-.175-.607-.504-.071-.098-.078-.29-.135-.368l-.079-.399c-.011 0-.023-.008-.029-.014l.001-.024c-.008-.123-.035-.199.028-.324.066-.054.165-.044.237-.013.117.044.197.159.29.225l.656.363c.021.014.142.089.145.073.015.005.028.015.041.02.02.015.018.016.025 0 .015-.005.02-.001.021-.001.043.03.228.073.224.1l.159.018.302.011c.014 0 .031.014.038-.008.106.079.253.006.301.037 0 .009.003.063.011.038.03.02.205.097.214.074q.031-.005.066-.006zm-20.467-.697c.159-.033.264-.028.391.058.018.015.05.023.057.045.023-.023.015-.015.013-.032s-.005-.031.009-.034c.021.009.05.034.079.05.106.069.253.118.325.229.048.086-.004.317-.004.317-.001.168-.042.456-.042.456 0 .053.018.299-.021.309.002.029.01.057.015.082l.02.035-.033.259.032.304-.008.134a.3.3 0 0 1 .014.098c.02.034.029.082.039.132.043.013.063.185.064.185.356.113.058.37.104.617.011.076-.078.386.03.354.002-.015.01-.033.014-.048-.004-.014-.004-.021-.009-.026.009-.02.009-.071.023-.077-.002-.019-.005-.018.009-.019-.014-.029-.024-.093-.008-.098.029-.038.094-.102.082-.168.008-.004.011-.01.018-.02l.059.016.008-.023v-.013c-.009-.014-.033-.074-.014-.081.01-.005.026-.02.024-.038s0-.03-.014-.024c.006-.014.052-.074.031-.067.039-.118.175-.05.234-.069-.004.071.038.295-.041.318-.013 0-.019.014-.025-.005.006.008.005.008.006.028l.004.142c.016.107-.033.2-.016.292-.116.142-.081.374-.108.557l-.058.193v.011l-.002.034-.001.025c-.001.014-.02.375.024.36-.021.058-.092.326-.063.319 0 .024.006.188.024.185l.024.151c.005.011.015.021.019.038-.054.052-.015.236.013.312-.01.034-.029.068-.01.062 0 .082-.029.142-.039.22-.102.495-.526.358-.852.45-.01.01-.016.025-.029.035-.098-.009-.254.042-.281-.135l.042-.243c0-.029 0-.044.013-.05v-.008a.06.06 0 0 1 .048.011c.014-.005.018-.005.021-.009.003-.083-.012-.355.077-.38l-.001-.073.083-.281c.006-.006.018-.033.02-.006q-.005-.047-.016-.094c.022-.093.077-.261.059-.365l.018-.191c-.003-.02-.005-.014.013-.018-.008-.096.006-.19-.014-.3.013-.029.02-.055.03-.081l-.02-.181c-.008-.005-.025-.016-.023.006-.088.024-.131.112-.179.195-.188.257-.316.219-.554.073-.045-.028-.165-.073-.181-.152-.215-.178.44-.626.416-.766a1.2 1.2 0 0 0 .333-.515c0-.013.024-.049.003-.043a4 4 0 0 0-.118-.86c-.004-.014-.027-.077-.006-.087 0-.021.008-.087.026-.092l-.105-.574c-.005-.02 0-.042-.019-.038-.17.135-.275.339-.409.534-.18.265-.538.102-.745.033l-.224-.107-.064-.156c.01-.064.029-.208.081-.223l.15-.17c0-.005.006-.04.01-.014.028-.02.093-.047.097-.034.008 0 .013-.004.024-.006l.241-.282c.034-.06.127-.202.183-.217.005-.019.058-.121.06-.101.004-.006.01-.018-.002-.014.036-.062.139-.209.195-.229 0-.035.006-.06.006-.084l.078.048.011-.004c.041-.077.107-.205.184-.223a.4.4 0 0 1 .033-.067zM37.96 4.98l.43-.113c.179-.005.751.17.795.413.011.013.013.042.014.069a.5.5 0 0 1 .001.295c-.063.152-.194.27-.281.39l-.108.251-.141.224c-.082.149-.27.7-.235.872-.009.02-.028.11-.015.11-.004.011-.009.047.008.042l-.03.249c-.015.137-.079.273-.086.417l.037.29c0 .031.008.142.02.142l-.088.219c-.064.121-.166.207-.251.305-.064.079-.113.194-.169.287l-.118.146c-.057.136-.04.581.009.753.005.025.018.112.038.11l.01-.004c.019-.003.113-.004.107-.016a.2.2 0 0 0 .037-.036c.011.009.023-.014.024.009.048-.062.079-.043.126-.055.237-.121.406.278.469.259-.006-.028 0-.057.008-.063.016.013.016.019.011-.004.005.029.011.13-.01.133.141.082.011.345.041.338l-.121.242c-.125.225-.286.421-.301.717-.003.03.016.121-.014.13.01.013.042.045.026.05 0 .078-.005.194.01.257l.111.06.155-.068c.02.014.018.019.014 0 .018-.02.03-.02.039-.025v-.01a.6.6 0 0 0 .098-.121h.014c.018.006.108.03.102.013l.174-.094.419-.106c.06-.013.125.044.146.035.029-.04.091.074.111.071.048.042.285.191.291.229h.013c.01-.035.015-.06.033-.066l.009-.014v.012c-.005.241.165.111.179.176.003.411-.436.399-.67.462l-.425.145c-.052.037-.106.061-.164.101-.111-.023-.203.096-.286.146l-.079.098c-.028.001-.108.048-.109.031-.207.13-.622.435-.853.251-.077-.059-.11-.176-.171-.259-.071-.098-.181-.185-.209-.336s.073-.27.054-.373c.112-.199.132-.623-.023-.802-.097-.101-.237-.1-.278-.276-.038-.157.123-.256.099-.396.009-.001.014-.008.019-.008l.073.025c.005-.048-.018-.254-.001-.26.004-.025-.001-.034-.005-.041.01-.001.023.002.016-.018-.006-.034-.009-.026.006-.034-.023-.16-.011-.372-.092-.492-.001-.009-.02-.02-.001-.025-.01-.019-.048-.102-.034-.107-.184-.112-.149-.334-.186-.537a.3.3 0 0 1 .011-.121l-.001-.029c.026-.076.067-.17.054-.244l-.016-.14.016-.096-.042-.244-.126-.064c.002.006.004.02.008.024l.002.195-.05.34c0 .04-.082.181-.088.155-.016.004-.045.004-.038.023-.17-.062-.263-.267-.383-.416-.09-.118-.194-.208-.263-.343-.057-.107-.082-.31-.102-.443.004-.014.007-.045.019-.05l-.135-.666c-.034-.127-.107-.259-.107-.413a.12.12 0 0 1 .071-.112c.123-.058.149.086.222.156l.122.101c.18.188.617.816.671 1.103.018.005.044.005.049.028.013-.018.016-.02.02-.02.139-.258.276-.328.319-.664.002-.038.009-.071.014-.108-.008-.013-.011-.026-.022-.035l.044-.169-.023-.04c.006-.015.004-.028.015-.034-.009-.028-.011-.038-.02-.052.011-.028.04-.168.028-.164-.002-.028-.011-.054-.016-.084-.005-.023-.015-.112-.031-.105V7.05h-.014c-.02.025-.029.038-.045.052s-.028.034-.044.052-.025.021-.039.037l-.033.048c-.011.013-.02.019-.032.039-.118.134-.299.183-.475.231-.015.001-.049.001-.043.021-.227-.336.174-.406.134-.631.011-.018.011-.018.016-.021.086.006.356-.355.411-.442l.11-.194c.009-.001.02.003.015-.016.024-.069.275-.401.319-.409.025-.047.13-.144.125-.164.116-.131.215-.268.32-.407.077-.091.164-.136.215-.263zm-.285 1.103c-.116.127-.2.282-.299.43l-.132.17c-.005.018-.038.081-.021.077l.014.127.184.263.044.317c-.011.164.008.338.042.525.042-.026.175-.194.146-.188l-.013-.126h.01c-.001-.019-.005-.032.004-.032-.003-.008-.021-.025-.003-.029-.003-.023-.004-.013.01-.02-.031-.312.04-.658.096-.955.025-.152.092-.224.091-.409-.002-.016-.009-.052.006-.057-.006-.014-.014-.025.003-.03-.005-.024-.016-.097-.04-.091-.047.011-.093.016-.141.026zm-18.402 8.466c.132-.145.348-.135.456.025.047.073.151.092.215.127l.127.098c.006.016.013.016.006.01.179.137.28.397.295.641.004.059-.01.214.021.258-.025.197.223.791.142.879-.126-.015-.252-.125-.343-.259a3 3 0 0 1-.282-.518l-.163-.387c-.077-.229-.281-.452-.414-.651-.008-.009-.047-.062-.037-.068l-.025-.156zm2.385-3.506c.348-.212.508-.057.751.305.013.149.103.277.118.432.038.362-.139 1.081.057 1.373.021.07.084.215.15.238l.125-.008c.016-.054.043-.108.064-.152.062-.072.162-.098.241-.107.06-.013.147-.044.209-.015.159.07.19.445.195.616.005.142-.146.28-.115.409.047.185.254.166.338.287.364.265.31.678.383 1.088l.034.218c.01.076.02.176.055.243.106.2.197-.122.197-.122-.005-.013-.011-.019-.015-.028.014-.057.049-.189.01-.244-.011-.038-.173-.315-.185-.3-.005-.015-.014-.05-.005-.063-.014-.018-.03-.043-.044-.064.054-.04.106-.053.163-.107.183-.164.275-.37.498-.327.015.001.074.008.066.02.14.162.132.396.075.603l-.018.115-.003.227a1.3 1.3 0 0 1-.073.31c-.002.011-.008.078-.018.064-.035.058-.111.238-.142.271-.009.006-.015.011-.026.015l-.089.194c-.093.19-.12.438.011.624-.006.023.029.331.029.331a3.8 3.8 0 0 1-.015.928.53.53 0 0 1-.134.223c-.043.035-.17.001-.149-.024-.049-.207.021-.602-.091-.763.013-.011.021-.011.01-.028-.01 0-.03-.084-.024-.089-.006-.011-.013-.018-.004-.03-.009 0-.028-.003-.014-.016-.008-.016-.024-.093-.033-.082-.125-.158-.271-.066-.389.067-.014.018-.069.071-.062.082-.021-.003-.116-.011-.106-.023l-.131-.172c.01-.054.018-.17.055-.205 0-.019.009-.03.015-.035.011-.004.025-.004.037-.008l.121-.201c.023-.099.121-.312.058-.407.004-.069-.123-.218-.112-.227-.011.001-.02.011-.033 0-.02-.013-.202-.019-.171.024-.229.144-.016.345-.059.392-.006.01-.013.016-.019.029a.1.1 0 0 1 .025.033c-.016.031-.13.295-.141.276-.139.199-.556.091-.626-.166 0-.01.005-.024.005-.037l-.016-.133.001-.301-.004-.025c-.003-.099-.019-.238-.072-.317l-.035-.128c-.048-.137-.126-.261-.186-.398-.001-.011-.003-.034-.015-.016-.008-.035-.067-.257-.057-.275-.086-.062-.251-.233-.346-.115-.047.055-.067.135-.127.174-.106.078-.268.083-.389.093-.019 0-.112-.028-.105-.034-.058-.091-.02-.262.045-.332.018-.021.018-.013.011-.028.003-.02.006-.023.006-.023.01-.009.014-.019.025-.025.014-.016.024-.039.035-.061-.004-.011-.004-.013 0-.02.02-.015.02-.009.009-.021l.097-.242c.016-.016.016-.013.008-.024l.028-.116a.4.4 0 0 1 .034-.136c.009-.016.011-.025.016-.016l.008-.027.067-.457q-.002-.01-.009-.028l-.02-.089-.101-.222c-.019-.033-.029-.057-.041-.084-.009-.019-.03-.057-.019-.067l-.145-.209-.07-.184c0-.011-.011-.092.004-.071-.004-.006-.006-.014-.015-.021.122-.2.384-.033.52.066h.013a.1.1 0 0 1 .025-.025c.009-.095-.069-.234-.144-.297q-.04-.015-.077-.026a1 1 0 0 0-.098-.145c-.066-.054-.151-.092-.184-.196-.003-.015-.015-.029-.003-.047.088-.055.175-.132.276-.112.107.02.232.27.343.15.004-.01.004-.004.015-.018-.011-.037.044-.383.003-.335-.078-.256-.228-.491-.336-.736-.004-.011-.026-.082-.04-.068a.8.8 0 0 1 .018-.215zm1.66 4.642c-.053.159-.097.343-.197.456.018 0 .011-.001.021.008.016.066.076.112.108.164.045-.054.181-.282.144-.34.006-.008.006-.019.01-.028a.6.6 0 0 0 .008-.262c-.001-.01-.001-.044-.013-.033-.008-.028-.008-.023.001-.035-.034.023-.058.052-.083.071zm-.261-.736c-.058.146-.273.361-.159.535l.09.118c.018-.011.072-.055.082-.039l.005-.001.048-.144c.025-.004.025-.003.018-.015.008-.021.03-.019.014-.037.006-.001.011-.01.015-.014l.072-.26c-.005-.008-.005-.016-.008-.028-.014-.033-.023-.071-.043-.1-.053-.021-.083-.037-.134-.018zm-.886-.558.001.02v.04a.8.8 0 0 0-.066.241c-.011.013-.014.013-.018.016.024.082-.038.228.013.3.132-.073.523-.189.481-.455l-.019-.097a.3.3 0 0 0-.047-.031c.002-.008.005-.014.005-.03-.117-.043-.233-.096-.351-.004zm2.61 2.217.137-.113c.099-.053.233-.058.325-.159l.535.199c.01.003.055.014.044.034a1 1 0 0 1 .185.103c.05.018.1.068.136.122.001.009-.001.05.011.037-.005.01-.026.02-.018.037.023.04.1.17.083.19.009.089.025.265-.033.338-.033.016-.136.101-.136.101l-.175.123a.4.4 0 0 1-.059.044c-.019.063-.203.315-.218.292l-.049.159a.2.2 0 0 0-.063-.019c-.001-.021 0-.098-.015-.081l-.016-.098a.1.1 0 0 1 .026-.025c-.014-.014-.014-.006 0-.024-.005-.083.008-.165.02-.249a.64.64 0 0 0-.029-.359c-.006-.01-.019-.024-.009-.037l-.123-.199-.239-.146-.113-.112c-.066-.062-.128-.039-.208-.157zm-4.069.204c.214-.209.58-.008.785.126.013.011.043.04.057.029.115.005.074-.2.13-.262.03-.013.097-.058.094-.055l.02.01.005.048c.011.009.016.016.026.021a.5.5 0 0 0 .086.259c.024.164.137.3.118.482l.049.091c-.006.305.144.493.268.752.014.023.03.09.039.081q.006.015.019.03l.117.304c.006.029.02.053.029.086q0 .022.004.042c.029.043.026.093.052.13-.006 0-.043-.004-.034.015s.028.028.037.031a.7.7 0 0 0 .068.139l.108.333c.008.008.009.019.02.008.005.03.107.215.121.202 0 .096.048.154.088.236l.092.227.195.312c.01.019.038.088.044.076a.34.34 0 0 0 .048.168c.01.006.018.012.032.019.014.073.033.142.054.215.043.183-.038.326-.149.452l-.086.04-.13-.009c-.116-.023-.341-.087-.437-.174-.013-.008-.049-.033-.043-.045-.069-.077-.093-.195-.144-.272l-.027-.02c-.004-.074-.02-.26-.058-.319-.018-.05-.029-.103-.042-.157l-.045-.183c-.01-.033-.023-.11-.032-.094l-.161-.323-.039-.111c-.019-.019-.118-.15-.101-.17l-.062-.164-.147-.254c-.009-.011-.023-.026-.011-.039-.024-.023-.055-.137-.066-.132l-.133-.248-.064-.178c-.006-.01-.013-.018-.004-.032-.039-.079-.028-.19-.066-.241-.006-.013-.018-.019-.025-.026a.66.66 0 0 0-.123-.31l-.009-.038c-.003-.012.004-.025.006-.028-.13-.29-.364-.583-.54-.819-.013-.02-.064-.086-.053-.093-.004-.024.004-.15.015-.133l.009-.025zm-10.668 6.816.213-.185c.089-.079.137-.171.239-.209a.75.75 0 0 1 .513.064c.093.053.176.155.265.232.184.176.396.341.543.528l.214.333c.215.244.492.438.724.596.066.047.173.083.228.008 0-.145.076-.578.27-.54.059.013.115.073.169.122.222.218.074.358.029.602-.018.076-.077.215-.016.285l.227.154c.448.33.906.556 1.393.671l.445.093a1.3 1.3 0 0 0 .292.03c-.057-.181-.344-.414-.486-.547l-.218-.247-.254-.248c-.037-.044-.048-.107-.011-.152.049-.05.161-.03.222-.03.558.015.927.466 1.316.919l.373.365c.067.068.09.141.142.204l.152.151c.042.063.088.113.131.174.077.072.166.144.205.238.03.075.004.197-.011.276-.082.475-.564.252-.828.13-.163-.074-.365-.136-.539-.188s-.354-.024-.521-.076c-.108-.033-.311-.14-.416-.067-.009.015-.024.037-.03.057-.048.136.037.475.063.624l.064.642a4 4 0 0 1-.024.728l-.068.266.025.537-.034.505-.019.668-.093.43c-.033.164-.069.346-.179.489-.045.058-.213.048-.338.105-.041.019-.115.084-.154.102-.174.073-.284.117-.355.03-.016-.023-.103-.018-.073-.073.078-.149.179-.373.165-.417l-.004-.02c-.015-.23.154-.457.202-.684.047-.213.063-.656.171-.83a2 2 0 0 1 .024-.346l.055-.271.029-.475c.009-.067.004-.375.034-.412-.076-.262.118-.77-.093-.991-.118-.122-.286-.202-.42-.278l-.142-.064c-.005.01-.03.035-.016.047-.005.19.016.394.068.588.032.132.11.222.153.354.094.265-.038.649-.292.7a.35.35 0 0 1-.324-.112 1.5 1.5 0 0 1-.268-.442c-.113-.142-.353-.435-.492-.195-.06.105-.057.222-.139.33-.05-.013-.079-.042-.123-.082.011-.01.011-.01 0-.02-.009.01-.01.014-.012.02.004.054.014.101.021.155.034.079.088.145.11.234.035.156-.028.315-.032.467-.001.086.057.152.04.231-.02.098-.086.206-.118.305l-.146.053-.127.055c-.111-.07-.355.203-.47.21-.092.005-.127-.038-.168-.066-.06-.04.246-.509.189-.559a4 4 0 0 0 .057-.374l.091-.302c.028-.266.122-.537.191-.782l.111-.515c.021-.079.011-.193.064-.268l.097-.282c.043-.149.04-.336.135-.464l.053-.13c.044-.247.217-.669.142-.917-.044-.154-.224-.242-.341-.345l-.598-.5-.312-.292-.119-.053-.257-.183-.31-.146-.32-.222c-.1-.057-.267-.098-.344-.212-.05-.076-.009-.205-.003-.291zm3.07 2.648c-.01.078-.047.299-.002.367s.142.047.201.086l.312.242c.137.073.612.161.695-.045.023-.061-.025-.101-.063-.141-.135-.136-.876-.564-1.027-.576-.045-.006-.084.032-.117.068zm-.117.886c.001.142-.04.285-.068.422-.026.131-.178.372-.064.508s.52-.29.597-.397c.023-.088.068-.147.038-.242-.037-.126-.402-.354-.503-.291m.01 2.571c.069-.052.15-.082.223-.018.014-.001.028.004.039.004.06.083.368.026.442.093.005.015.01.023.018.037.081-.021.213.193.213.193l.023.026c0 .015-.004.105.013.086q-.001.011-.006.024c.014.105-.013.291-.076.378a.2.2 0 0 0-.003.047c-.093.097-.058.277-.152.375-.128.136-.334-.173-.356-.276-.016-.084-.032-.203-.081-.266v-.016c-.014-.028-.027-.039-.035-.049 0-.028-.005-.127.005-.123l-.203-.341-.063-.172zm-1.666-4.061c.181-.174.285-.258.521-.149l.136.064c.121.234.102.393.077.653l-.03.181c.013.138-.068.53-.155.634-.033.048-.072.052-.108.079-.154.122-.285.226-.456.306l-.228.12c-.009-.02-.006-.026-.002-.035l-.086-.064c.015-.084.095-.498.135-.555 0-.023-.004-.023.009-.01l.096-.307c-.009-.006-.023-.029-.015-.045l.06-.116q-.008-.015-.002-.02c.015-.049.021-.126.055-.171-.001-.073.004-.126.006-.185-.001-.033.002-.044.005-.063a.9.9 0 0 0-.018-.315z" fill="#fff"/></g></svg>