<svg xmlns="http://www.w3.org/2000/svg" viewBox="0 0 170.2 170.2" width="85.1" height="85.1" fill-rule="evenodd"><path d="M85.1 25c33.6 0 60.9 26.3 60.9 58.8 0 32.4-27.3 58.8-60.9 58.8s-60.9-26.3-60.9-58.8S51.5 25 85.1 25" fill="#fff"/><path d="M85.1 0c46.9 0 85.1 38.2 85.1 85.1s-38.2 85.1-85.1 85.1S0 132 0 85.1 38.2 0 85.1 0m0 25c33.5 0 60.9 26.4 60.9 58.8s-27.3 58.8-60.9 58.8-60.9-26.4-60.9-58.8S51.6 25 85.1 25" fill="#84b71e"/><path d="m54.7 93.2-15.7.3-5.8.4c-1.3-.3-1.9-.8-1.9-1.6 0-.5.5-1.1 1.5-1.6s9.3-.8 25.1-.9l17.8.1c4.1.1 6.5.3 7 .7.6.4.8.8.8 1.3-.1.4-.5.8-1.1 1.2-.6.3-2.4.5-5.4.4-.7 0-2.9-.1-6.5-.2-3.6-.2-7.4-.2-11.3-.2-.2 1-.2 1.8-.1 2.4.1.7.4 1.1.7 1.2.3.2 1.2.4 2.6.7s2.6.7 3.6 1.4 1.8 1.5 2.5 2.4 1 2.1 1.1 3.7c.1 1.5-.1 2.9-.6 4.1-1.1 2.7-3.2 5-6.3 6.6s-6.1 2.8-9 3.6c-2.4.6-11.3 2.2-15.1 2.6 11.2 12.7 27.8 20.7 46.3 20.7 20.1 0 37.9-9.4 49-23.9-.8-.8-1.5-2.1-2.2-3.9-1-2.7-1.8-5.6-2.5-8.6s-1-6.3-1.1-10a112 112 0 0 1 .1-8.6c0-.4.1-1.8.2-4.3.2-2.4.2-4.2.2-5.1-.1-2.6-1-4.4-2.4-5.4-1.5-1-5-1.5-10.5-1.4-1.1 0-3.1.2-5.9.3-2.8.2-5.6.3-8.3.4-2.4.1-4.1 0-5.3-.3s-2.2-.9-3-1.8c-.9-.9-1.2-2-1.2-3.3q.15-2.55 2.1-3.9c1.3-1 3.1-1.6 5.2-1.9 2.2-.3 4.4-.6 6.7-.7 2.2-.2 5-.2 8.1-.2h5.6c4.5-.1 7.1-.3 7.7-.7s.9-1 .8-1.7c-.1-.5-.5-1.1-1.2-1.7s-4-1-9.7-1.1c-1.6 0-3.3 0-5.3.1l-6.7.3c-2.5-.1-4.3-.1-5.4-.1-2.3 0-4.1-.2-5.6-.5-1.4-.3-2.5-.7-3.1-1.1s-1.2-.8-1.5-1.4c-.4-.7-.6-1-1-1.8-.7-1.5-1-6.2.5-7.7 1-1.1 2.6-.3 2.6.9l.2 2.4.3 2.6c.3.9.7 2.1 2.1 2.8 1.4.8 2.7.9 4.7.9 1.2 0 3.9-.1 7.9-.3l11-.4q6.6-.15 10.5 1.2c2.7.8 4 2.1 4 3.8s-.2 2.9-.7 3.7a6.6 6.6 0 0 1-2.3 2.1c-1 .4-2.2.7-3.7.8s-3.3.1-5.4.1l-6.6-.1c-9.5-.1-14.8.3-16 1.3-1.1.9-1.6 1.8-1.4 2.6.1.5.3.9.7 1.2s1.2.5 2.5.6c1 .1 3.2 0 6.7-.3s7.1-.4 10.8-.4c4.8 0 8.4.5 10.7 1.6 2.3 1 3.8 2.6 4.3 4.7s.8 4.2.9 6.3c0 1-.1 3.1-.2 6.3-.1 3.1-.2 5.7-.1 7.7.1 2.8.3 5.5.7 8.2.4 2.6.9 5 1.6 7.2.6 2.1 1.2 3.8 1.7 5.1 5.9-9 9.3-19.7 9.3-31.1 0-32.3-27.3-58.6-60.9-58.6-20.2 0-38.1 9.6-49.2 24.2.2.2.3.4.4.7l.5 2.7c.2.8.7 1.4 1.4 2 .7.5 2.1.8 4.1.7 0-2.1 0-3.6-.1-4.5 0-.9 0-1.5.1-1.8.1-.5.3-.9.8-1.2.4-.3.8-.5 1.2-.5.9 0 1.3.4 1.4 1.1s.2 1.9.2 3.5v3.4c1.4-.1 2.7-.5 3.6-1.3.9-.7 1.4-1.6 1.5-2.5v-2c.1-.4.4-.8 1-1.2.5-.4 1.1-.4 1.7 0s.9 1.2.9 2.2c0 1.1-.3 2.2-.9 3.4s-1.6 2.2-2.9 3c-1.4.8-2.9 1.3-4.8 1.4l-.3 1.7c-.1.5-.5.9-.9 1.2a1.36 1.36 0 0 1-1.5 0c-.5-.3-.7-.6-.7-1l-.2-1.8c-1.1 0-2.2-.1-3.1-.2a13 13 0 0 1-3.1-1.1c-1.1-.6-1.9-1.2-2.5-1.9-.4-.5-.7-1-.8-1.6-5.4 8.8-8.5 18.9-8.5 29.8 0 13.1 4.5 25.3 12.2 35.1.3-.2.7-.3 1.1-.5.6-.2 11.8-2.3 14.8-2.9 3.1-.6 6.1-1.7 9-3.5s4.5-3.8 4.5-5.9c.1-2.1-.4-3.7-1.5-4.6-.9-.7-1.9-1.1-3.3-1.3l-1.8-.2c-1.8-.3-3-1.1-3.5-2.3s-.8-1.8-.8-1.9z" fill="#007a38"/><g fill="#fff"><path d="M144.4 119.5c0 .3.1.4.3.5s.4.3.7.5c.2.1.3.2.4.1.1 0 .1-.2 0-.5-.1-.2-.2-.4-.2-.7a.55.55 0 0 0-.3-.5q-.3-.15-.6 0c-.2.3-.3.4-.3.6m4.9 3.9.1.1 1.3 2.1c.1.1.2.2.3.1.1 0 .1-.2.1-.3q-.3-.9-.9-2.1c.7-.1 1.3-.2 2-.5.4-.2.7-.4.8-.7.2-.5.2-.9 0-1.3-.1-.2-.3-.2-.5 0-.5.6-1.2 1-2.1 1.4-.3.1-.5.2-.7.2l-.5-1.2c-.1-.3-.3-.5-.8-.4s-.6.4-.3.8c.2.2.4.5.7 1-.3 0-.6.1-.9 0-.5 0-1-.1-1.5-.2.2-.5.5-1.1.9-1.7.2-.3.2-.5 0-.7-.1-.1-.3-.2-.4-.1q-.3.15-.6.9c-.3.75-.5.9-.7 1.4q-.9-.3-1.5-.9c-.4-.3-.7-.5-.9-.3a.78.78 0 0 0-.4.4c0 .1 0 .2.1.4.2.2.7.4 1.5.7l.9.3c-.2.3-.3.6-.5.9s-.2.5-.3.7c-.3.1-.5.3-.5.6 0 .2.2.3.5.3.5.1.9.3 1.3.4.5.2.9.4 1.1.6q.6.3 1.2.9c.2.2.5.4.8.5a.55.55 0 0 0 .5-.3q0-.3-.3-1.5c-.2-.7-.4-1.1-.5-1.2-.1-.2-.2-.2-.3-.2s-.1.2-.1.4c0 .4.1.8.1 1.2 0 .2 0 .2-.2.2-.5-.2-1-.5-1.7-.9-.5-.3-.9-.5-1.1-.7 0-.1 0-.2.1-.3.1-.3.3-.8.6-1.4.3.1.6.2.9.2.8.2 1.7.3 2.4.2"/><path d="m149.6 130.3 2.7-3.1c.7-.7 1.6-1.5 2.9-2.6.7-.4 1-.9 1-1.5 0-.5-.1-1-.2-1.5-.1-.3-.2-.3-.4-.1-1 1.5-1.9 2.6-2.5 3.3l-2.7 3.3-2.1 2.7c-.1-.1-.3-.2-.5-.3l-.8-.4c.1-.2.2-.3.2-.6.2-.3.3-.6.4-.8.2-.2.3-.4.2-.7 0-.2-.2-.3-.3-.5q-.15-.15-.3 0c-.15.15-.2.3-.3.5s-.2.6-.4 1c-.1.3-.2.4-.2.6 0 0-.1 0-.1-.1q-.45-.3-.9-.3c-.45 0-.4.2-.5.5-.1.2.1.4.4.6l.9.3c.3.1.6.3 1 .5.3.2.5.3.7.3-.1.1-.2.2-.2.3l-.8 1.1c-.2-.3-.5-.6-.7-.9-.3-.3-.6-.5-.9-.5-.2 0-.3.1-.4.3 0 .2 0 .3.2.4.5.3.8.7 1.2 1.3l.8 2.1c.2.4.3.7.5.8s.3 0 .5-.2q.15-.3 0-1.2c-.1-.2-.2-.5-.3-.8 0 0 .1-.1.1-.2 0-.4.2-.9.5-1.5.1-.4.6-1.1 1.3-2.1m-4.2-2.2c.2-.3.3-.6.3-.8-.1-.4-.2-.7-.3-.8s-.3.1-.5.4l-.9 1.9c-.1-.1-.2-.1-.4-.2-.3-.2-.7-.3-1.3-.6.2-.3.3-.7.6-1.1.2-.3.2-.5 0-.7-.1-.1-.3-.2-.4-.1q-.3.15-.6.9c-.1.2-.2.5-.3.7-.1 0-.1-.1-.2-.1l-.8-.5a1.93 1.93 0 0 0-1-.3c-.3 0-.5.2-.6.5 0 .3.1.5.5.7.6.2 1.1.4 1.6.7l-.6 1.2c-.2.5-.3.9-.3 1.1.1.2.2.3.4.3.3 0 .5-.2.6-.7.1-.4.3-.9.6-1.4 0 0 0-.1.1-.1.3.1.6.3.9.5s.5.3.7.4l-.6 1.2c-.1.3-.2.5-.3.5-.2.3-.3.7-.5 1-.1.3 0 .7.1.9.2.2.3.3.6.3.2 0 .3-.4.5-1 .1-.5.4-1.2.7-2.2.6-1.3 1-2.1 1.4-2.6m-116-5.9c.7 0 1.1-.1 1.2-.1h.4c.1 0 .2.1.2.2s0 .2-.1.4-.2.3-.2.3-.2.1-.3.1-.3-.1-.6-.2l-.7-.2c-.2 0-.3-.1-.3-.2s0-.2.1-.2c.1-.1.2-.1.3-.1m-4.7 9.2c-.3-.1-.6-.2-1-.5s-.6-.5-.7-.7c-.1-.1-.1-.3-.1-.5s0-.7.2-1.5l.2-2.2c0-.7 0-1.2-.1-1.5s-.1-.5-.2-.7c0-.2-.1-.2-.1-.3s.1-.1.2-.2.2-.1.3 0 .2.1.2.2l.2.3s0 .1.1.1h.3c.1 0 .6.2 1.4.6l1.5.8c.2.1.3.2.2.4 0 .2-.2.3-.3.4a.45.45 0 0 1-.5 0c-.2 0-.3-.1-.4-.2-.2-.1-.5-.4-1.1-.9s-.9-.8-.9-.9-.1-.1-.2 0c0 0 0 .1-.1.2 0 .2 0 .6.1 1.4l.3 1.9c0 .5.2 1.2.3 2.1l.3 1.6q.15.3 0 .3c0-.2-.1-.2-.1-.2m-3-13.2c.2.3.3.6.5.9l.5.7c.2.3.3.5.2.6s-.2.1-.3.1-.2-.1-.3-.2l-.5-.7c-.2-.3-.5-.6-.9-1s-.6-.7-.7-.9c-.2-.2-.2-.3 0-.5.1-.1.3-.1.4-.1.3.2.8.5 1.1 1.1"/><path d="M25.6 117.9c.7 1.1 1.1 1.6 1.2 1.6s.2 0 .3-.1c.2-.2.4-.3.6-.4l.8-.5c.6-.4 1-.4 1.2-.1.1.1.1.3 0 .4-.1.2-.2.3-.2.4l-.3.3c-.2.1-.3.2-.5.3-.1.1-.3.1-.5.2s-.4.2-.5.2c-.1.1-.2.1-.2.2s.1.2.4.6l.9 1.2.9 1.2.8 1.4c.1.2.1.4-.1.5s-.3 0-.5-.1c-.2-.2-.4-.5-.7-1s-.5-.8-.7-1l-1.7-2.3c-.1 0-.3 0-.6.2l-1.5 1-1.2.8-1.5 1-1.4.9c-.4.3-.8.5-.9.7-.4.2-.8.3-1 .3s-.4-.1-.5-.2a.45.45 0 0 1 0-.5c.2-.2.3-.3.5-.4s.4-.2.7-.4l2.5-1.5 1.6-1c.6-.3 1.1-.7 1.5-.9q.6-.45.9-.6l.2-.2s0-.1-.1-.2-.4-.6-1-1.4l-1.4-1.9c-.3-.4-.5-.6-.5-.7-.1-.2-.1-.4.1-.5h.5c.3 0 .5.3.9.7.1.1.2.3.4.7 0 .2.3.7.6 1.1m-6.5 3.1c-.2-.1-.5-.3-1.2-.6s-1-.6-1-.9.1-.4.2-.5.3-.1.5-.1c.3 0 .7.2 1 .6q.6.45 1.2 1.2c.4.4.8.7 1 .9s.3.3.3.4 0 0-.1 0c-.2 0-.5 0-.7-.3l-.5-.4c-.3-.1-.5-.2-.7-.3m48.4-66.1-.1-4.5c0-.9 0-1.5.1-1.8.1-.5.4-.9.8-1.2a1.92 1.92 0 0 1 1.2-.4c.9 0 1.3.4 1.4 1.1s.2 1.9.2 3.4v3.4c1.4-.2 2.6-.6 3.6-1.3.9-.7 1.5-1.5 1.5-2.5v-1.9c.1-.4.4-.9 1-1.2s1.1-.4 1.7 0 .9 1.2.9 2.2-.2 2.1-.8 3.1c-.5 1-1 1.7-1.4 2.1-.4.3-1.1.9-2.2 1.5-1.1.7-2.5 1-4.3 1.1l-.3 1.7c-.2.5-.5.9-1 1.2a1.36 1.36 0 0 1-1.5 0c-.5-.3-.8-.7-.7-1l-.2-1.9c-1.1 0-2.1-.1-3.1-.2s-1.9-.5-3.1-1.1c-1.1-.6-2-1.2-2.5-1.9s-.9-1.5-.9-2.4a6 6 0 0 1 .4-2.9c.3-1 .9-1.4 1.5-1.4s1 .2 1.3.3.4.4.6.9l.5 2.7c.2.8.6 1.4 1.3 2s2.1.9 4.1.9M54.8 67.8l.2-4.1c.2-1 .5-1.8.9-2.3s1.2-1.3 2.3-2.2 2.2-1.4 3.1-1.6c1-.2 1.5.1 1.7.8s-.2 1.3-.9 2l-1.5 1.2c-.7.7-1.2 1.3-1.4 1.9s-.3 1.3-.3 2.1v3c.6-.3 1.1-.5 1.4-.6s1.2-.3 2.5-.6 2.4-.7 3.1-1.1 1.2-.9 1.4-1.3l.2-1.2q.15-1.05.9-1.5c.75-.45.9-.5 1.3-.4s.8.4 1 .9l.2 1.2c.4 1.5 2.1 2.3 5.2 2.6l4.8.3c1.1.2 1.7.4 1.9.8.2.3.2.7.2.9-.2.8-1 1.2-2.7 1.3a22 22 0 0 1-5.1-.3c-1.7-.3-2.9-.6-3.4-1.1L69.5 67c-1.1.8-1.9 1.4-2.6 1.7-.6.3-1.7.7-3.4 1.3-1.7.5-2.7.7-3.3.5l-1.4-.4v7.5c.3-.2.6-.3.8-.4s.8-.3 1.6-.5 1.7-.5 2.5-.9c.9-.3 1.7-.9 2.4-1.7.7-.7 1.1-1.3 1.3-1.7l.3-.9c.2-.6.5-1 1-1.4.5-.3.9-.5 1.4-.5.3 0 .5.2.7.3l.5.5.3 1.4c.5 1.7 2.2 2.6 5.1 2.9q4.5.45 5.4.9c.9.45.8.7.6 1.3a1.63 1.63 0 0 1-1.3 1.1c-.7.2-1.5.2-2.6.1l-5.2-.7c-1.5-.3-2.4-.6-2.5-.7l-1.9-1.2c-2 1.6-3.8 2.7-5.5 3.3-1.6.6-3.3.7-5 .2v4.1l9.2-.1c3.5 0 5.5.2 5.8.6s.5.8.5 1.1c-.2 1-1.5 1.5-3.8 1.6H59.3c-6.8 0-11.6.1-14.5.4s-4.3.2-4.5-.5c-.2-.6-.1-1.1.1-1.4.3-.4.7-.7 1.4-.9.6-.2 1.3-.3 2.2-.3l4.9-.3 5.4-.2.2-4.1c-1 .1-1.8.2-2.5.2s-1.8-.2-3.4-.5-2.5-.6-2.8-.8l-2.6-1.3c-1.4.9-2.5 1.5-3.3 1.9-.9.4-2.2.9-4 1.4-1.9.5-3.1.7-3.8.6s-1-.4-1.1-.9 0-.9.3-1.2.8-.6 1.6-.9l4.5-1.2c1.9-.6 2.9-1.2 3.3-2.1.1-.3.2-.8.1-1.4 0-.7 0-1.1.1-1.2.1-.3.4-.6.8-.9q.6-.3 1.2-.3c.3 0 .6.1.8.2s.4.3.5.5l.7 2.1c.1.4.4.7.8 1.2.3.4 1 .7 2 .9s3.2.6 6.6 1.2l.1-6.5q-1.2.45-2.1.6c-.6 0-1.9-.1-3.8-.3s-3.3-.7-3.9-1.3l-1.2-1c-2.1 1.1-4.5 2.1-7.2 3.1s-4.3 1.1-4.8.4-.4-1.4.2-2.1c.2-.2.4-.3.7-.5s1.4-.4 3.3-.8 3.3-.9 4.3-1.4c.9-.5 1.5-1.1 1.7-1.7l.3-1.7c.3-.7.9-1.1 1.8-1.1a1.93 1.93 0 0 1 1 .3c.3.2.5.7.6 1.3.1.7.2 1.2.3 1.4s.6.7 1.5 1.2c1 .6 3.5 1.1 7.7 1.4m17.1 63.1c.8.2 1 .4.9.7l-1.2 4c-.1.5-.6.7-1.5.4l-.1.3 3.4.8.1-.3c-.9-.2-1.3-.5-1-1l1.6-5.3-.3-.1c-.5.3-1.1.3-1.9.2zm14.4 3.5c0-.5-.1-1.1 0-1.7.1-.9.6-1.4 1.4-1.5.5 0 .8 0 1 .2h-.2a.47.47 0 0 0-.5.5c.1.3.3.5.7.5s.6-.3.6-.6q-.15-.9-1.5-.9c-1.7.3-2.6 1.7-2.4 3.9.3 1.9 1.2 2.7 2.7 2.7q2.1-.3 2.1-2.4c-.3-1.2-1-1.8-2.2-1.8-.9 0-1.4.4-1.7 1.1m1.4-.7c.9-.1 1.4.5 1.5 1.7s-.3 1.8-1.2 1.9c-.9 0-1.3-.5-1.5-1.7 0-1.2.4-1.8 1.2-1.9m-6.7 1.2v.5c-.2 1.5-.9 2.2-2 2.2-.6-.1-1-.3-1.2-.7.1 0 .2 0 .3.1a.47.47 0 0 0 .5-.5q0-.45-.6-.6c-.4 0-.6.2-.7.7 0 .7.5 1.2 1.6 1.3 1.8 0 2.9-1.2 3.2-3.4 0-1.9-.7-2.9-2.1-3.1-1.4 0-2.2.7-2.5 2.1 0 1.2.7 1.9 1.9 2.1.7.1 1.2-.1 1.6-.7m-1.3.4c-.9 0-1.3-.7-1.2-2 .1-1.2.6-1.7 1.5-1.7s1.2.7 1.1 1.9c-.1 1.3-.6 1.9-1.4 1.8m13.8-5c-1.4.5-1.8 1.7-1.3 3.8.7 2 1.7 2.8 3.2 2.6 1.4-.5 1.8-1.7 1.3-3.7-.6-2-1.7-2.9-3.2-2.7m1.9 6.2c-.8.3-1.5-.6-2.1-2.6-.7-2-.5-3.1.3-3.2.8-.3 1.5.6 2.1 2.6s.5 3-.3 3.2M15.8 50.4l1.9-3.1.5.3-.1.2c-.2.2-.2.4-.3.6 0 .1 0 .3.1.4s.2.2.5.4l2.2 1.4 2.5-4.1-2.1-1.4-.5-.3h-.4l-.4.4-.2.3-.5-.3 1.9-3.1.5.3-.2.3c-.1.2-.2.4-.2.5s0 .2.1.3.2.2.5.4l5.5 3.4q.45.3.6.3c.15 0 .2 0 .3-.1.1 0 .2-.3.5-.7l.5.3-1.9 3.1-.5-.2.2-.2q.3-.45.3-.6c0-.15 0-.2-.1-.3 0-.1-.2-.2-.6-.4l-2.5-1.6-2.5 4.1 2.6 1.6q.45.3.6.3c.15 0 .2 0 .3-.1s.2-.3.5-.7l.5.3-1.9 3.1-.5-.3.1-.2q.3-.45.3-.6c0-.15 0-.2-.1-.3s-.2-.2-.5-.4l-5.5-3.5c-.2-.2-.4-.2-.5-.3H17c-.1 0-.2.2-.3.4l-.2.3zm8.9-13.7 2.4-2.6.4.4-.2.2c-.2.2-.3.4-.3.5v.3c0 .1.2.3.4.5l3.1 2.9c.5.5 1 .9 1.4 1s.8.1 1.3 0c.5-.2.9-.4 1.2-.8s.6-.8.7-1.4c.1-.5.1-1 0-1.4-.1-.3-.4-.8-1-1.3l-3-2.8c-.2-.2-.4-.3-.5-.4h-.4c-.1 0-.3.2-.4.3l-.2.2-.4-.4 2.1-2.3.4.4-.2.2c-.2.3-.3.5-.3.7s.2.4.4.7l3.2 3c.6.5 1 1.1 1.2 1.7s.2 1.2 0 1.8-.5 1.2-1 1.7-1 .9-1.7 1.1c-.6.2-1.2.3-1.7.1-.5-.1-1-.4-1.6-.9l-3.4-3.2c-.2-.2-.4-.3-.5-.4h-.3c-.1 0-.2.2-.4.3l-.4.2zM8.2 74.2l.8-3.5.5.1v.3c0 .3-.1.4 0 .5 0 .1.1.1.2.2h.2c.1 0 .2-.1.4-.2l2.7-1.2-2.1-2.4-.4-.4c-.1 0-.1 0-.2.1 0 .1-.1.2-.2.4l-.1.3-.5-.1.6-3 .5.1c-.1.3-.1.6 0 .8 0 .2.2.4.5.8l2.4 3.1 4.3-2q.45-.15.6-.3l.3-.3c.1-.1.1-.3.2-.5l.5.1-.7 3.5-.5-.1.1-.3c.1-.3.1-.5 0-.5 0-.1-.1-.1-.2-.2h-.2c-.1 0-.2.1-.4.2l-3.3 1.5 2.4 3c.2.2.2.3.3.3l.1.1c.1 0 .2 0 .2-.1s.1-.2.2-.5l.1-.3.5.1-.6 3-.5-.1c0-.3.1-.5.1-.6 0-.2 0-.3-.1-.4-.1-.2-.2-.3-.4-.6l-2.7-3.6-3.8 1.7c-.4.2-.6.3-.7.5-.2.1-.3.3-.4.6zm3.9-14.8 1.3-3.4.5.2-.1.3c-.1.2-.1.4-.1.6s.1.3.2.3c.1.1.3.2.7.3l5.6 2.3c.3.1.5.2.6.2.2 0 .3 0 .3-.1.1-.1.2-.2.3-.5l.1-.3.5.2-1.2 3.5-.5-.2.1-.3c.1-.2.2-.4.1-.5 0-.1-.1-.2-.2-.3s-.3-.2-.6-.3L14 59c-.3-.1-.5-.2-.7-.2-.1 0-.2 0-.3.1s-.2.2-.3.5l-.1.3zm49.7-47.8 3.5-.8.1.5h-.2c-.3.1-.5.2-.6.2s-.2.2-.2.3 0 .3.1.7l.9 4.1c.2.7.4 1.3.7 1.6s.6.5 1.1.7.9.2 1.4 0c.5-.1.9-.3 1.3-.7.4-.3.6-.7.7-1.1s0-1-.1-1.7l-.9-4c-.1-.3-.2-.5-.2-.6-.1-.1-.2-.2-.3-.2h-.6l-.3.1-.1-.5 3.1-.7.1.5h-.2c-.3.1-.6.2-.7.3-.1.2-.1.4 0 .8l1 4.2c.2.8.2 1.4 0 2.1-.2.6-.5 1.1-1 1.5s-1.1.7-1.8.9-1.4.2-2 0q-1.05-.3-1.5-.9c-.4-.4-.7-.9-.8-1.6l-1-4.5c-.1-.3-.2-.5-.2-.6-.1-.1-.2-.2-.3-.2h-.5l-.3.1zm16.4-3.3H81l4.3 7.1V10c0-.3 0-.5-.1-.7s-.2-.2-.3-.3-.3-.1-.5-.1h-.2v-.6h3.1v.6h-.2c-.3 0-.5 0-.6.1-.2.1-.2.2-.3.3-.1.2-.1.4-.1.7v7.7h-.8l-5.1-8.5v7.5c0 .1.1.2.2.3s.2.2.3.2h.7v.6h-3.2v-.6h.2c.3 0 .5 0 .7-.1l.3-.3c.1-.2.1-.4.1-.8V9.3c0-.2-.1-.3-.2-.3-.1-.1-.3-.1-.7-.1h-.2zm15.1.3 3.6.5-.1.6h-.9c-.1 0-.2.2-.3.3s-.1.4-.2.8l-.9 6v.7c0 .1.1.2.2.3s.3.1.5.2h.3l-.1.5L92 18l.1-.6h.9c.1 0 .2-.1.3-.2s.1-.3.2-.7l.9-6.2v-.7c0-.1-.1-.2-.2-.3s-.3-.1-.5-.2h-.3zm9.1 1.5 3.3 1-.2.5-.2-.1c-.2-.1-.4-.1-.5-.1s-.2 0-.2.1c-.1 0-.1.1-.1.2v.5l.6 7 4.2-5.6c.2-.2.2-.3.3-.5s0-.2 0-.3c-.1-.1-.2-.2-.5-.2l-.3-.1.2-.5 2.8.8-.2.5c-.2-.1-.4-.1-.5-.1s-.2 0-.3.1l-.5.5-5.2 6.8-.9-.3-.9-8.5c0-.3 0-.5-.1-.5 0-.1-.1-.2-.2-.3l-.2-.2c-.1-.1-.2-.1-.4-.2zm14.9 5.2 6.8 3.5-.3 2.6-.6-.1v-1.1c0-.3-.2-.5-.3-.8-.2-.3-.3-.5-.5-.6-.2-.2-.6-.4-1.2-.7l-2-1-1.5 3.1 1 .5c.4.2.7.3.9.2q.45 0 .6-.3c.1-.1.3-.3.5-.7l.1-.2.6.3-1.9 3.7-.6-.3.2-.3c.2-.3.2-.5.2-.7v-.5c0-.2-.2-.3-.2-.4-.1-.1-.3-.2-.6-.4l-1-.5-1.4 2.7c-.2.3-.2.5-.2.5s0 .2.1.2c0 .1.2.2.5.3l1.2.7q1.05.45 1.8.6c.5 0 1 0 1.4-.2s.8-.4 1.3-.8l.4.4-2.2 2.2-7-3.6.3-.5.2.1c.3.2.5.2.5.2.1 0 .3 0 .4-.1s.2-.2.3-.5L118 17c.1-.3.2-.5.2-.6s-.1-.2-.2-.3c0-.1-.3-.2-.7-.4zM146 38.1l.3.3-1.7 2.5-.5-.3c.3-.9.5-1.7.4-2.5-.1-.7-.3-1.2-.8-1.7-.3-.3-.5-.5-.9-.7-.3-.2-.6-.2-.9-.2s-.5.1-.7.3-.3.3-.3.5c-.1.2-.1.5 0 .8 0 .3.2.7.5 1.2l.8 1.7q.15.3.3.9c.2.4.2.8.2 1.1s-.1.6-.2.9-.3.5-.6.8q-.75.75-2.1.6c-1.35-.15-1.6-.5-2.3-1.3-.3-.4-.6-.8-.8-1.2s-.3-.9-.3-1.6l-.9.4-.3-.3 2.1-2.7.5.4c-.3.6-.5 1.2-.6 1.7-.1.6 0 1.1.1 1.6.2.5.4.9.7 1.3.4.5 1 .8 1.5.9s.9 0 1.3-.3c.3-.3.5-.6.5-1s-.2-1-.5-1.7l-.8-1.6c-.4-.9-.6-1.6-.5-2.2s.3-1 .7-1.4c.3-.3.7-.5 1.1-.5s.9 0 1.5.2c.5.2 1 .6 1.4 1 .3.4.6.8.8 1.3.1.3.2.7.2 1zm4.8 6.9 1.8 3.1-.5.3-.2-.2c-.1-.2-.3-.4-.4-.4-.1-.1-.2-.1-.4-.1s-.4.1-.7.3l-5.2 3.1c-.3.2-.4.3-.5.4s-.1.2-.1.3.1.3.2.5l.2.2-.5.3-1.8-3.1.5-.3.2.3c.1.2.2.4.3.4.1.1.2.1.3.1s.3-.1.6-.3l5.3-3.1.6-.4c.1-.1.1-.2.1-.3s-.1-.3-.2-.5l-.2-.3zm5 8.5.2.4-.3.2 2.2 5.3.3-.1.2.5-2.2 2-.4-.5c.5-.5.9-1.1 1-1.5.1-.5 0-1-.2-1.6l-.2-.4h-.2s-.2 0-.4.2l-6 2.6c-.3.1-.5.2-.5.3l-.2.2v.3c0 .1.1.3.2.7l-.5.2-1.4-3.4.5-.2c.2.4.3.6.3.7.1.1.2.2.3.2.2 0 .3 0 .7-.2l6.1-2.6c.2-.1.3-.2.3-.2v-.2c0-.1 0-.2-.1-.3-.2-.5-.4-.8-.6-1s-.5-.4-.9-.5-.8-.2-1.3-.2v-.7zm4.1 12.4.9 3.4-.5.2-.1-.4c-.1-.2-.1-.4-.2-.4s-.2-.1-.2 0c-.1 0-.2.1-.3.2l-.1.1-2.8 2.6 3.9 1.1c.2 0 .3.1.3.1h.1c.1 0 .1 0 .2-.1v-.2s0-.2-.1-.4l-.1-.3.5-.2.7 2.8-.5.2c0-.2-.1-.4-.2-.5s-.2-.2-.2-.3c-.1 0-.3-.1-.5-.2l-4.7-1.4-2.3.6c-.3.1-.5.2-.6.2-.1.1-.2.2-.2.3s0 .4.2.9l-.5.2-.9-3.6.5-.2.1.3c.1.3.2.5.2.6.1.1.2.2.3.2s.3 0 .6-.1l2.1-.5 3.7-3.5c.3-.3.5-.5.5-.7s0-.4-.1-.7zm-29.3-42.7 3.8 3q1.05.9 1.5 1.5c.45.6.3.9.3 1.3s-.2.9-.5 1.2c-.3.4-.7.7-1.1.8-.4.2-.9.2-1.4 0-.5-.1-1-.4-1.7-.9l.1 3.9v.6c0 .2.1.4.2.5a.78.78 0 0 0 .4.4l.1.1-.3.5-1.7-1.3v-5.7l-.9-.7-1.8 2.3c-.2.3-.3.4-.3.5 0 .2-.1.3 0 .4 0 .1.2.3.5.5l.2.2-.3.5-2.8-2.2.3-.5.3.2c.2.2.3.2.4.3h.3c.1 0 .2-.1.3-.2 0 0 .2-.2.4-.5l3.8-4.9c.2-.2.3-.4.3-.5v-.3c0-.1-.2-.2-.3-.4l-.3-.2zm1.4 2.1-2.2 2.8 1.5 1.2c.5.4.9.7 1.2.8.3.2.7.2 1 .1s.7-.3.9-.7c.2-.3.3-.6.4-.9 0-.3 0-.6-.2-.9q-.15-.45-.9-.9zm-93.1-2.1.9-.7 7 4.7c.3.2.6.4.8.4s.4 0 .6-.2l.1-.1.3.5-2.6 2-.3-.5.2-.2q.3-.15.3-.3v-.4c0-.1-.2-.2-.6-.5L44 26.8l-2.7 2 .6 2.1c.1.2.1.3.2.4l.2.2h.2c.1 0 .2-.1.3-.2s.2-.1.2-.2l.3.5-2.2 1.6-.3-.5.4-.4c.1-.1.1-.2.1-.4s0-.4-.2-.8zm2.2 4.9 2.3-1.7-3.5-2.4zm1 115.8c.1-.1.2-.4.5-.8l.4-.6c.1-.2.2-.3.1-.5-.1-.1-.5-.4-1.1-.8-1.4-.9-2.4-1.5-3-1.7-.6-.3-1-.4-1-.5-.2-.1-.2-.2-.2-.3s.1-.2.3-.2c.3-.1.6 0 1 0s.7.2.9.4l.5.4c.2.2.9.6 1.9 1.3l5.6 3.5 1.5.9.2.2s0 .1-.1.1c-.4.3-.9.3-1.2 0-.1 0-.3-.2-.8-.5l-1.7-1.2-1.1-.8c-.2-.1-.2-.1-.3-.1s-.1 0-.2.1l-.3.3c-.1.1-.3.3-.3.4v.3s.3.3 1 .7c.6.5 1 .7 1.1.8s.1.2 0 .4-.3.2-.7-.1l-1.3-1c-.2-.2-.4-.3-.5-.2-.1 0-.2.1-.3.2s-.2.2-.3.4-.2.3-.2.3c0 .3.3.7 1 1.4l2.4 2.3c.9.9 1.5 1.4 1.7 1.5.2.2.3.2.3.3 0 0-.1.1-.2.1-.4 0-.9 0-1.4-.1s-.9-.2-1.1-.3c-.1-.1-.3-.2-.4-.4s-.4-.5-.7-.9-.6-1-1.1-1.7c-.4-.7-1.1-1.7-2.1-2.9l-1.5-1.9h-.3c-.1 0-.7 0-1.7.2-1 .1-1.7.1-2 .1s-.6-.1-.8-.2-.3-.3-.2-.4c0-.1.1-.2.1-.3s.1-.1.2-.2h.2c.1 0 .7 0 1.7.2q1.65.15 2.7 0 1.2-.15 1.5-.3c.3-.15.4-.1.4 0s0 .2-.1.3-.2.2-.3.2c-.1.1-.3.1-.5.2-.2 0-.4.1-.4.1 0 .1 0 .3.3.5.2.2.4.5.7.8.2.3.3.4.5.5.1 0 .2.1.2.1.1 0 .2-.1.2-.2.1 0 .2-.2.3-.4m1-7.4c.2-.3.3-.5.4-.7s.2-.3.3-.3c.1-.1.2-.1.4-.1s.3 0 .5.2a1.4 1.4 0 0 0 .3.2l.3.3c.1.1.6.4 1.5 1l2.1 1.4c.4.3.7.6.6.8 0 .2-.1.3-.2.5-.1.1-.3.3-.5.6s-.5.5-.8.9-.6.6-.9.9c-.3.2-.6.2-1 0-.1 0-.2-.1-.3-.2s-.7-.5-1.7-1.3c-.4-.3-.7-.5-1-.6-.2-.1-.5-.2-.8-.3s-.5-.2-.6-.3c-.3-.2-.3-.5-.2-.9 0-.1.1-.3.3-.5.4-.2.7-.8 1.3-1.6m4.6 1.8c-1.8-1.3-2.8-1.9-3-1.9s-.3 0-.4.1c-.1 0-.2.2-.2.3-.1.1-.1.2-.1.2 0 .2.1.3.3.4l3.8 2.3h.3l.2-.2c.1-.1.1-.2.1-.3-.1-.2-.5-.5-1-.9m-4.3 1c.2.2.7.5 1.4.9l1.2.8c.4.2.7.3.8.3.1-.1.3-.2.4-.3.2-.2.2-.2.2-.3.1-.2.1-.3-.1-.5s-.8-.6-2-1.3l-1.9-1h-.3c-.1 0-.2.1-.2.3-.2.3-.3.6-.3.7.2 0 .4.2.8.4M69 150.7q-.15.3-.3.9l-.3 1.5c0 .2-.1.4-.2.6-.2.6-.7.9-1.3.7l-1.2-.4c-.2-.1-.5-.1-.7-.2-.3-.1-.6-.1-.9-.1s-.7 0-1 .2c-.4.1-.6.1-.7-.1s-.1-.4 0-.7l.4-1.5c.1-.4.2-1 .3-1.7s.2-1.3.3-1.5c0-.2.1-.4.1-.5.2-.5.5-.7.9-.5l.3.2a5.3 5.3 0 0 0 1.5.5s.3 0 .8.2c.5.1.9.2 1.2.2.5.1.9.3.9.5.1.2.2.3.1.5 0 .1-.1.2-.2.4-.1.1-.1.3-.2.5zm-.8-.3v-.2c.1-.3.1-.4.1-.5 0-.2-.1-.3-.2-.4s-.4-.3-.9-.4l-2.6-.4c-.1.1-.2.3-.3.7-.1.3-.1.5-.1.5v.4c0 .1.2.1.3.2.1 0 .3.1.6.1s.8.1 1.5.3 1.1.2 1.3.2c.1-.1.2-.3.3-.5m-.7 2.3c0-.1.1-.2.2-.5s.1-.5.1-.5q-.15-.3-.6-.3l-2.6-.4c-.3 0-.6 0-.7.1s-.1.2-.2.3c0 .2-.1.4-.2.7 0 .3-.1.5-.1.6s.2.2.4.3c.5.1.9.2 1.2.2s.7.1 1.2.2.7.1.9 0c.2-.2.3-.4.4-.7m9.3.2c-.1.2-.2.7-.4 1.6l-.6 2.7c-.2.7-.3 1.4-.3 1.8-.1.4-.1.7-.2.9l-.3.6c-.2.2-.3.3-.5.3h-.2s-.1-.1-.1-.2v-.3c0-.2 0-.4.1-.7l.5-2 .3-1.4v-.3c0-.1-.2-.1-.4-.2l-3.1-.6h-.7c-.1 0-.3.3-.8.7s-.9.8-1.3 1.2c-.4.3-1 .7-1.9 1.1s-1.4.5-1.7.4-.4-.2-.4-.3c0-.2.1-.3.1-.3.1-.2.3-.3.4-.5.2-.1.5-.2 1-.4l1.5-.6c.5-.2 1-.7 1.6-1.2.6-.6 1-1.2 1.2-1.7l.5-1.6c.2-.5.2-.8.3-1l.1-.5c0-.3.1-.5.1-.5l.1-.5c0-.2.1-.4.2-.6.2-.3.5-.5.9-.4.1 0 .3.1.5.2s.5.2.7.2.6.2 1.3.3c.6.2 1 .2 1.2.3.5.2.9.3 1 .5.2.2.3.4.2.6 0 .2-.1.3-.2.5-.2.3-.3.5-.3.7-.1.2-.1.3-.2.7zm-1.3 1.4.3-.9v-.3c-.1-.2-.7-.4-1.8-.7l-1.8-.3c-.2 0-.2.1-.3.2-.1.2-.1.3-.2.5s-.2.4-.2.6c-.1.2-.1.3-.1.4s.2.2.4.3l3.2.7c.2 0 .2 0 .3-.1s.1-.2.2-.4m.7-2.5.3-1.2c0-.2.1-.3 0-.4 0-.2-.1-.3-.2-.4s-.7-.3-1.7-.6l-1.7-.3-.2.2q0 .15-.3.9l-.2.7c0 .2-.1.3 0 .3 0 .1.2.2.3.2l1.7.4 1.4.4h.4c.2.1.2 0 .2-.2m26.9 6.2.1-.3.1-.5v-.4c0-.4.1-.6.1-.7s.2-.1.3 0a1.4 1.4 0 0 1 .4.3c.1.2.2.3.2.4s-.1.2-.2.4c-.2.2-.3.5-.5.8s-.3.5-.4.5c-.2-.2-.2-.3-.1-.5m-2.4-.2c0-.7.1-1.1.1-1.3v-.3l.2-.2c.1 0 .2 0 .4.1s.2.2.3.3v.3c0 .1-.1.3-.3.7l-.2.4q-.15.3-.3.3c-.2.1-.3 0-.2-.3m-2.9 2c.2-.6.3-1.2.4-1.7s.2-.8.4-.8c.1 0 .3 0 .4.2l.3.3c.9.8 2.1 1.2 3.6 1 1-.1 1.9-.3 2.4-.7l1-.6q.15 0 0 .3c-.1.3-.3.7-.8 1.2s-1 .9-1.7.9h-.9l-1.3-.4-1.7-.6c-.5-.2-.9-.3-1-.3s-.3.3-.5.7c-.2.5-.4.7-.5.7h-.2c.1-.1.1-.2.1-.2m.8-4.5 3.6-.7 2.1-.4h.4s.1.1 0 .2c0 .1-.1.3-.2.5s-.2.3-.4.3h-.9q-.75 0-2.4.3c-.7.2-1.3.3-1.7.3l-1 .3c-.3.1-.6.2-1 .4s-.6.2-.7.2c-.1-.1-.1-.1-.1-.2v-.2c0-.3.2-.5.4-.6.5-.2 1.1-.3 1.9-.4m-2.7 3.9c0-.2.1-.4.1-.7s.1-.5.2-.6.2-.2.4-.2a.9.9 0 0 1 .5.1c.2.1.2.2.2.4a.76.76 0 0 1-.2.4c-.1.2-.4.5-.7 1.1s-.6.9-.7.8-.1-.2-.1-.3 0-.2.1-.4.2-.4.2-.6m-4.5-9.7.5.2c.2.1.3.1.4.2.1 0 .4.1.9.2s.7.2.7.3c0 .2-.2.2-.5.2-.1 0-.5 0-1.3.1h-1.4c-.2 0-.3-.1-.3-.2v-.3c0-.2.2-.3.3-.5s.4-.3.7-.2m.6 10.4 1.1-1.7c.2-.4.3-.9.4-1.4v-1.2c0-.2-.1-.4-.2-.7s-.2-.5-.3-.6-.2-.1-.3-.2c-.1 0-.3 0-.7.2l-1.1.2c-.3.1-.5.2-.5.2-.3 0-.4 0-.5-.2v-.5c.2-.5.4-.7.9-.7 0 0 .2 0 .5.2.3.1.6.1.9.1s.7 0 1-.1c.3 0 .6-.1.7 0 .1 0 .2.1.2.2.1.1.1.2.1.3v.3l-.1.3c0 .2-.1.3-.1.4v.5l.2.9v1.2c0 .3-.1.6-.2 1.3-.2.6-.4 1.2-.8 1.7-.3.5-.7.9-1 1.2s-.6.5-.8.5c-.3.1-.5 0-.5-.2v-.4c0-.1.1-.2.1-.3l.3-.3c.3-.7.5-.9.7-1.2m9.3-6.2-2 .4-1.5.4c-.2.1-.3.1-.4.1-.3 0-.5 0-.6-.2s-.2-.3-.2-.5l-.3-.9c-.1-.3-.2-.5-.2-.6 0-.3 0-.6.3-.8.2-.2.7-.3 1.5-.5.7-.2 1.1-.2 1.1-.3v-.3l-.1-.4c0-.1-.1-.2-.1-.2h-.3c-1 .2-1.8.4-2.2.6s-.6.2-.6.2c-.1 0-.2 0-.3-.1-.1 0-.1-.1-.2-.2 0-.1 0-.2.1-.3.2-.3.5-.5.9-.5.2 0 .6-.1 1.4-.2l1.1-.2v-.3l-.2-.7q0-.45.3-.6c.1 0 .2 0 .3.1s.2.2.3.2c.1.1.1.2.2.2v.7c0 .1 0 .2.1.2h.4c.1 0 .3-.1.7-.1.4-.1 1-.2 1.7-.3.7-.2 1.1-.2 1.2-.2s.1.1.1.2 0 .3-.2.5c-.1.2-.4.3-.8.3l-2.8.3c-.1 0-.2.1-.2.1v.8s.5 0 1.5-.2 1.6-.2 1.8 0c.2.1.4.3.5.4.1.2.1.2.1.3v1.2c0 .4 0 .7-.1.8l-.3.3c-.2.1-.3.1-.6.1zm.1-1c0 .2 0 .2.1.3h.3c.6-.1.9-.2 1-.3.1-.2.1-.3.1-.5s0-.4-.1-.5c0-.1-.1-.2-.1-.3s-.3-.2-.9-.1c-.2 0-.3.2-.3.3v.7zm-1 .4c.1 0 .2 0 .2-.1v-.3c0-.1 0-.3-.1-.5 0-.2-.1-.5-.1-.7 0-.1-.1-.2-.1-.2h-.3l-.8.2v.2l.2.9c0 .2 0 .3.1.4 0 .2.3.2.9.1m-3.1.1c0 .2.1.3.2.3h.6c.3 0 .5-.1.5-.2 0 0 0-.3-.1-.9l-.1-.5v-.2c0-.1-.1-.2-.3-.2-.6.1-.9.2-.9.5v.6zm32-7.9c.3.5.5 1 .8 1.5.3.6.7 1.1 1.1 1.4.2.1.3.2.5.1.1-.1.2-.2.2-.4 0-.3-.1-.6-.3-1l-1.3-2.1c1.4-.8 2.6-1.4 3.6-1.7l2.1-.7c.4-.1.7-.2.9-.5a1.08 1.08 0 0 0 .3-.7c.1-.6.1-.9 0-1s-.3 0-.7.1c-.3.3-1.1.7-2.4 1.4l-4.4 2.4q-.3-.3-.3-.6c-.1-.2-.2-.4-.3-.7l1.9-1.1c.4-.2.7-.4.9-.7.1-.3 0-.6-.3-1.1-.5-.7-.8-1.5-1.1-2.2-.2-.3-.3-.5-.6-.6q-.45 0-1.2.3c-.8.4-1.7 1-2.8 1.7l-.7-1.3c.3-.3.8-.6 1.4-.9l1.4-.7c.3-.1.5-.2.6-.5.1-.2.1-.3 0-.6 0-.2-.2-.2-.3-.2s-.3.1-.6.2c-.4.3-1 .6-1.7 1l-1 .6c-.1 0-.1.1-.2.2 0-.1-.1-.2-.1-.3-.1-.3-.3-.6-.6-.6s-.6.1-.9.3c-.2.2-.1.4.1.6.4.4.7.8 1 1.2.2.4.5.9.8 1.4h-.1l-2.1 1.2c-.2.2-.4.3-.4.5-.1.2 0 .5.2.8.1.1.2.3.3.4.2.4.5.8.7 1.2s.5.7.6 1c.2.4.5.6.8.6.2 0 .5-.2.9-.5.4-.4 1.1-.9 1.9-1.3.2.1.3.4.5.7.1.2.2.3.2.5l-3.2 1.9-2.1 1.3c-.3.2-.5.5-.7.9q-.15.6 0 .9c.15.3.3.2.5.2s.5-.2 1-.8c.7-.7 1.5-1.4 2.6-2.2a15 15 0 0 0 2.6-1.5m-2-4.4-3.1 1.7c-.3-.5-.5-.9-.4-.9.1-.2.9-.8 2.3-1.7 1.9-1.2 2.9-1.7 3.2-1.7.2 0 .4.3.7.9zm.3.6c1.5-.9 2.4-1.4 2.9-1.5q.3.6.3.9a1.54 1.54 0 0 1-.7.7c-.7.3-1.5.8-2.4 1.4-.7.4-1.2.7-1.5 1s-.6.3-.8.3c-.1 0-.3-.3-.7-.7.4-.6 1.3-1.2 2.9-2.1m-36.4-48q-.15-2.25 0-3.6l.7-4.5c.4-2.1 1-3.7 1.8-4.9s1.9-2.1 3.3-2.4 3.3-.7 5.8-.9 5.3-.2 8.6-.2c4.5.2 7.4.8 8.8 2s2.2 2.6 2.3 4.2l.3 6 .1 4.3-.2 4c-.1 2.6-.4 5.1-.8 7.4s-2 3.9-4.7 4.8c-2.7 1-6 1.4-9.8 1.2-3.8-.1-6.8-.5-9-1.1s-3.7-1.8-4.5-3.5c-.9-1.7-1.4-3.4-1.8-5.1-.5-1.5-.8-4.1-.9-7.7m27.4-3.4-6.2 6.3 2.9 3.9 2 3.1.5-1.6c.2-.5.3-1.8.5-3.9l.3-3.4zm0-5.1c0-.3 0-.9-.1-1.7 0-.8-.8-1.7-2.2-2.9l-9.5 8.3 3.3 4.6zm-9.1 14-8.9 7.5c.7.3 1.5.5 2.4.8.8.2 2.5.3 5 .3s4.8-.4 6.9-1.2l-2.1-3.1zm2.1-18.9c-3.1-.3-6.9-.1-11.3.5q2.25 2.85 4.5 5.4zM104 91.5l-8.4 7.3.3 2.6c.1.9.5 1.7 1 2.2l.9 1 9.5-8.5c-1-1.6-2.1-3.1-3.3-4.6m-2.1-3-5.1-6c-.4.7-.7 1.4-1 2-.3.7-.5 2-.8 4-.2 2-.3 3.4-.2 4.1l.2 2.5z"/></g></svg>