<svg xmlns="http://www.w3.org/2000/svg" height="266.667" width="266.667"><defs><clipPath id="a"><path d="M0 200h200V0H0z"/></clipPath></defs><g clip-path="url(#a)" transform="matrix(1.33333 0 0 -1.33333 0 266.667)" fill="#c00220" fill-rule="evenodd"><path d="M99.999 183.443c45.956 0 83.441-37.485 83.441-83.442s-37.485-83.443-83.441-83.443-83.438 37.485-83.438 83.443 37.481 83.442 83.438 83.442m0-2.3c-44.689 0-81.137-36.453-81.137-81.142S55.31 18.863 99.999 18.863s81.139 36.449 81.139 81.138-36.447 81.142-81.139 81.142"/><path d="M79.075 11.46a49.2 49.2 0 0 1-11.231 7.031l-.087.042h-.007a49 49 0 0 1-2.318.967 49.3 49.3 0 0 1-20.283 3.222h-.031c-6.165 0-11.761 2.51-15.816 6.557a22.3 22.3 0 0 0-6.57 15.802v.032a50 50 0 0 1 .07 2.39h-.004v.666q.001.083-.004.169a49.2 49.2 0 0 1-2.012 13.339 48 48 0 0 1-2.149 5.843 49.2 49.2 0 0 1-12.06 16.623l-.023.02C2.187 88.523.003 94.254 0 99.986c-.004 5.725 2.172 11.457 6.528 15.812l.029.029c.589.53 1.171 1.077 1.736 1.638h-.004l.461.465.128.128a49.2 49.2 0 0 1 9.595 14.056q.01.023.022.045.015.04.038.086v.004a49 49 0 0 1 .966 2.319 49.2 49.2 0 0 1 3.223 20.282v.035c0 6.164 2.508 11.761 6.56 15.812 3.559 3.566 8.31 5.94 13.591 6.463 1.597.156 3.035.049 4.629.042q.984-.005 1.969.031a49 49 0 0 1 9.394 1.244 48.6 48.6 0 0 1 8.656 2.89 49.2 49.2 0 0 1 16.62 12.059l.021.029c4.363 4.359 10.094 6.542 15.822 6.545s11.457-2.173 15.816-6.528l.024-.024a51 51 0 0 1 1.639-1.736h.004l.471-.472.118-.117.187-.182.083-.079a49.4 49.4 0 0 1 11.699-8.331 49 49 0 0 1 4.543-2.03 49.2 49.2 0 0 1 20.279-3.22h.035c6.165 0 11.761-2.508 15.815-6.559s6.567-9.641 6.567-15.799v-.035a50 50 0 0 1 .094-6.535 49.2 49.2 0 0 1 2.536-12.143c.024-.073.053-.146.077-.218l.062-.181q.021-.056.041-.118l.018-.038a49.2 49.2 0 0 1 13.334-19.793l.024-.025c4.36-4.36 6.546-10.091 6.55-15.823.003-5.725-2.173-11.453-6.532-15.813l-.024-.023a49 49 0 0 1-1.736-1.643h.003l-.426-.426a49.2 49.2 0 0 1-8.192-11.069 48 48 0 0 1-2.592-5.607 49.2 49.2 0 0 1-3.223-20.282v-.031c0-6.166-2.509-11.762-6.56-15.817s-9.637-6.57-15.798-6.57h-.035a49 49 0 0 1-2.388.065c-.332.004-.669 0-.998-.006h-.158l-.073-.003q-.1.001-.194-.004-.032 0-.056-.003l-.184-.004c-.044-.003-.093-.003-.138-.003a49.4 49.4 0 0 1-14.541-2.693l-.038-.011a2 2 0 0 0-.128-.045l-.02-.01a49 49 0 0 1-3.49-1.383 49.2 49.2 0 0 1-16.62-12.059l-.021-.028A22.34 22.34 0 0 0 100.015 0c-5.412-.004-10.829 1.941-15.088 5.832-2.005 1.837-3.732 3.861-5.852 5.628m72.875 163.676h-.011a49.4 49.4 0 0 0-18.029 3.289 50 50 0 0 0-5.156 2.322 49.4 49.4 0 0 0-10.82 7.627q-.05.047-.1.091l-.017.016a52 52 0 0 0-3.102 3.154c-4.061 4.047-9.394 6.068-14.731 6.065a20.8 20.8 0 0 1-14.755-6.106l.021.024a47 47 0 0 0-1.657-1.75l.007-.007a49.4 49.4 0 0 0-17.004-11.235l-.076-.031-.028-.01a49 49 0 0 0-7.544-2.302 50 50 0 0 0-9.426-1.132c-2.134-.056-4.237.156-6.366-.098a20.78 20.78 0 0 1-12.249-5.974c-3.77-3.778-6.109-8.989-6.117-14.728q.062-1.202.067-2.405h.01a49.5 49.5 0 0 0-4.242-20.334l-.481-1.054c-.007-.014-.014-.024-.018-.038l-.055-.115a49.4 49.4 0 0 0-8.667-12.707q-.053-.054-.1-.107l-.035-.035c-.055-.062-.114-.122-.169-.18l-.029-.029-.12-.124a50 50 0 0 0-2.582-2.505c-4.051-4.062-6.071-9.395-6.068-14.732.004-5.343 2.04-10.691 6.106-14.759l-.025.025a52 52 0 0 0 1.751-1.656l.007.006a49.5 49.5 0 0 0 11.234-17.005l.031-.076a49.4 49.4 0 0 0 3.434-16.54 4 4 0 0 0 .007-.215v-.045l.007-.183a49 49 0 0 0-.052-3.923 20.76 20.76 0 0 1 6.123-14.707 20.8 20.8 0 0 1 14.728-6.117q1.2.062 2.401.066v.007a49.45 49.45 0 0 0 20.338-4.238l1.053-.482.035-.017q.057-.03.114-.056a49.2 49.2 0 0 0 10.386-6.619 50 50 0 0 0 5.302-5.083 20.8 20.8 0 0 1 14.731-6.068c5.347.004 10.691 2.038 14.759 6.106l-.021-.024a50 50 0 0 0 1.653 1.75l-.007.007a49.5 49.5 0 0 0 17.379 11.384l.142.051.08.032c.031.01.058.024.089.035a49.4 49.4 0 0 0 16.045 3.198l.145.007.184.003a2 2 0 0 0 .152.004c.06.003.115.003.174.003a50 50 0 0 0 3.596-.055c5.739.007 10.944 2.35 14.711 6.124a20.82 20.82 0 0 1 6.116 14.727q-.063 1.2-.065 2.401h-.011a49.5 49.5 0 0 0 4.238 20.339 51 51 0 0 0 2.252 4.466 49.4 49.4 0 0 0 6.91 9.381l.059.063c.035.035.066.069.101.107a51 51 0 0 0 2.939 2.873c4.047 4.061 6.067 9.398 6.067 14.734a20.82 20.82 0 0 1-6.109 14.756l.024-.02a51 51 0 0 0-1.75 1.652l-.007-.007a49.5 49.5 0 0 0-11.234 17.005l-.032.076-.006.02a49.4 49.4 0 0 0-3.289 14.133 51 51 0 0 0-.097 6.757c-.011 5.739-2.349 10.94-6.123 14.708s-8.986 6.109-14.728 6.116c-.8-.042-1.598-.07-2.398-.073zm-78.032-23.605c3.479 0 6.317-2.842 6.317-6.321a6.33 6.33 0 0 0-6.317-6.317c-3.483 0-6.321 2.838-6.321 6.317s2.838 6.321 6.321 6.321m-13.258-.511c-.027-.18.004-.28.107-.444.097.015.191.025.281.084l.041.125c0 .087-.093.294-.197.311-.072.011-.163-.034-.232-.076m5.739 5.829.128.055c.1.018.194-.093.145-.183-.035-.069-.173-.09-.225-.017zm-4.966-2.886c-.062-.16-.173-.306-.222-.468l-.038-.301-.16-.431-.246-.374-.114-.218-.142-.132-.122-.18c-.038-.052-.156-.19-.062-.246.118-.07.277.056.395.101.146.051.367.069.5.173.114.096.276.835.263.991-.011.097-.125.256-.118.339.01.119.121.195.169.291l.039.222c0 .022.021.316-.059.264zm4.515 3.261c.111.013.211-.118.1-.191-.045.024-.111.052-.134.09zm-7.901-3.854c-.024-.129-.243-.534-.194-.648.093-.225.502.055.648.149.025.038.201.121.187.145.014.029.056.167.014.139-.069.035-.149.024-.225.042-.094.024-.271.124-.329.211zm1.084 2.069c-.041-.24-.311-.769-.083-.971a.2.2 0 0 1 .125-.048.21.21 0 0 1 .16.097l.089.426c.035.149.191.309.146.485-.055.198-.311.087-.437.011m-.651 4.297c-.065-.267-.18-.323-.409-.474l.028-.084q.01.008.021.013c.083.007.194.073.266.011.187-.16-.135-.374-.273-.395-.027-.003-.184.028-.138.055-.004.042.009.14.048.164q-.015.016-.024.034c-.091-.058-.264-.169-.167-.28l.101-.073c.017-.018.066-.056.038-.076l-.163-.171a2 2 0 0 1-.024-.176l-.122-.24c-.087-.2-.079-.488-.287-.623.086-.163.429.025.527.121.051.053.035.17.104.211.325-.041.371.638.433.843.052.17.19.415.197.593 0 .1-.09.18-.107.28-.01.066.024.131.041.187.007.021.011.07.035.084l-.021.038-.02-.014zm-.79 5.925c.187.122.378.247.565.298a3 3 0 0 0 .769-.034c.111-.062.26-.291.26-.415 0-.07-.038-.136-.058-.202-.133-.405-.444-.662-.673-1.008-.094-.146-.156-.308-.239-.461l-.135-.177-.202-.361-.284-.571-.325-.465-.194-.387c-.104-.177-.471-.524-.368-.749.011-.024.028-.031 0-.049q.005-.01.015-.017c-.022-.014-.031-.034-.049-.007-.042-.01-.125-.034-.156-.076-.191-.229-.683-1.234-.6-1.518.063-.211.295-.135.396-.215.069-.056.149-.329.173-.412.017-.053 0-.104-.011-.16-.038-.228-.173-.467-.024-.689.027-.042.073-.097.114-.107.08-.021.177.048.212.114l.322.655.26.405.048.138.333.642.312.45.1.204.126.146c.079.129.149.288.294.382l.097.09c.049.066.194.128.27.177.07.041.159.107.226.121.158.035.609-.018.744-.114.263-.188.399-.58.371-.867-.021-.222-.218-.444-.308-.648l-.118-.343-.309-.745-.145-.253c-.153-.374-.191-.794-.447-1.109-.104-.125-.226-.278-.368-.378-.169-.118-.585-.329-.675-.485-.028-.042-.028-.1-.028-.146-.004-.256.225-.218.34-.405.069-.115.038-.233.038-.35-.004-.024.024-.125.065-.097.108.038.157.136.198.218.167.333.246.718.711.77.152.017.311-.063.464-.07.201-.013.458.063.641-.055.069-.042.142-.318.135-.381-.035-.246-.208-.461-.287-.686-.07-.187-.101-.409-.153-.604l-.121-.225-.039-.176-.093-.219-.02-.02c.107-.305-.205-.51-.305-.745-.053-.122-.022-.212-.042-.316l-.122-.457-.1-.167-.142-.263-.104-.336c-.007-.073.01-.142.003-.219-.013-.138-.089-.287-.003-.416l.052.036c.038.01.343.547.378.613l.374.613.097.201.274.298.177.329.256.406.16.194.103.235.122.184c.131.18.218.44.426.576.094.194.43.356.63.398.087.02.184-.004.271-.011.34-.024.804-.076.838-.523.011-.152-.034-.288-.055-.437-.024-.156-.007-.307-.072-.46-.049-.118-.167-.24-.185-.367-.013-.132-.017-.274-.01-.402s.077-.323.021-.454l-.118-.184c-.048-.083-.069-.177-.108-.264l-.124-.243c-.021-.082.014-.162.017-.242l-.069-.256c-.024-.066-.069-.115-.104-.17a.75.75 0 0 1-.114-.405c0-.149.138-.434.236-.579.058-.093.228-.368.304-.406.177-.096.329-.003.499.028l.198.025.142.072c.1.028.208.017.308.062l.274.167c.049.077.211.135.288.187l.152.125c.056.09.17.097.246.134l.305.198c.042.091.17.164.263.226.07.107.267.173.378.245.08.178.361.313.541.431.052.093.18.169.281.235a.6.6 0 0 0 .2.208c.056.132.24.288.371.371l.167.249c.062.101.079.25.09.364.007.087-.055.156-.07.243l-.031.381-.069.198-.063.276c-.069.171-.218.34-.287.503-.077.184-.111.384-.187.575-.045.104-.139.16-.188.257-.038.076-.024.156-.076.236l-.28.305-.264.367c-.107.121-.267.239-.374.371-.062.076-.308.513-.28.592.023.073.121.132.187.08.055-.041.089-.128.127-.19l.267-.382c.073-.069.198-.045.267-.1.09-.073.111-.233.208-.302l.236-.027c.271-.025.378-.153.523-.389.014-.02.017-.013-.007-.031l.015-.018c-.067-.024-.244-.027-.278-.103-.042-.086.198-.486.343-.392-.007.087.028.309.173.257.1-.035.129-.36.194-.451.052-.069.163-.069.222-.138.122-.142.195-.33.288-.479l.138-.166.174-.246c.069-.097.166-.118.239-.187l.107-.177c.031-.059.18-.19.17-.198.017-.089.059-.221.135-.291.038-.034.083-.038.122-.083.117-.149.072-.409-.007-.562-.101-.18-.326-.297-.503-.443l-.343-.384c-.087-.08-.222-.142-.323-.208l-.166-.143-.409-.276-.242-.219-.236-.145-.461-.354-.322-.298-.191-.1c-.082-.063-.124-.164-.231-.229l-.33-.132-.832-.45c-.076-.035-.111-.115-.18-.156l-.336-.149-.499-.15c-.114-.047-.208-.149-.322-.211a2 2 0 0 0-.479-.083c-.134.011-.447.114-.533.215l-.236.354-.19.183c-.004.07-.188.344-.246.399-.084.072-.156.201-.253.249-.111.049-.198 0-.309-.031l-.26-.052c-.125-.032-.27-.118-.398-.087-.361.091-.232.669-.309.929-.014.042-.062.073-.107.052-.122-.055-.177-.457-.169-.575q.015-.092.038-.184c-.007-.111-.084-.198-.087-.305-.014-.444.118-.98-.471-1.14-.133-.035-.302-.062-.434.004-.076.034-.142.138-.197.214-.083.115-.187.278-.218.413-.063.246-.032.485-.014.741l-.018.142.028.164.007.311.045.312c.01.243 0 .495-.007.738-.003.104.055.378.01.461-.138.239-1.116-.689-1.4-.045a.8.8 0 0 0-.069.308c.018.156.111.32.17.462l.197.509a.6.6 0 0 0 .16.173c.069.16.242.336.273.503.014.073-.027.142-.041.215-.048.273-.07.668-.371.834a.28.28 0 0 1-.277-.003c-.191-.124-.225-.61-.28-.828l-.118-.298-.129-.565-.128-.284c-.056-.16-.094-.326-.17-.475a2.4 2.4 0 0 0-.402-.437c-.093-.075-.242-.131-.346-.177-.215-.093-.423-.228-.638-.315-.107-.041-.214-.038-.325-.055l-.403-.052c-.19-.018-.422-.014-.551.155-.02.029-.079.102-.058.115-.046.302.471.874.727 1.043l.125.153.069.176c.038.077.125.125.177.191a12 12 0 0 1 .696 1.06c.108.187.156.44.236.645l.177.326.205.585.193.489c.028.062.105.114.09.191-.027.163-.214.198-.294.308l-.146.288-.363.558c-.087.121-.229.191-.309.336a.4.4 0 0 0-.045.239c.007.18.361.579.472.738a2 2 0 0 1 .193.333l.08.308c.052.201.229.555.069.755-.086.107-.426.118-.547.091l-.413-.142c-.114-.028-.249.003-.367-.035l-.242-.136-.191-.065c-.201-.08-.378-.187-.585-.093-.042.02-.094.031-.118.079-.035.066.02.163.045.225.211.552.679.981 1.116 1.404.131.132.193.312.367.426l.097.125c.076.115.118.246.249.333l.153.152.225.326.211.253c.167.222.302.471.489.682.09.105.243.191.336.298.26.305.468.697.831.936z"/><path d="m48.459 136.789.187-.316.128-.118q.011.005.018.014c-.101.132-.198.319-.333.42m-2.814.766c-.024-.087-.093-.153-.135-.236l-.167-.406-.047-.183c-.06-.135-.229-.437-.212-.586.024-.198.145-.274.232-.454l.052-.191.104-.215c.066-.118.555-.71.644-.755.042-.021.101.004.136.032.024.047.222.169.256.121.121.193.353.357.555.516.055.146.225.239.36.339.02.018.02.011.003.032-.079.388-.405.842-.7 1.171l-.183.233c-.098.086-.24.048-.375.176-.163.153-.28.468-.523.406m-3.867 3.86c.007-.021-.003-.153.004-.173-.004-.017.027-.108.044-.094.004-.007.07-.007.073-.01.003.1-.035.176-.121.277m1.078 4.061c-.059-.097-.191-.163-.25-.263-.086-.145-.097-.343-.142-.51l-.124-.253-.053-.28-.094-.402c-.041-.125-.104-.274-.082-.416.024-.16.193-.309.294-.443.083-.108.156-.24.235-.361l.167-.363c.062-.115.163-.216.239-.33l.312-.523c.02.006.024.004.028-.003l.017.013c-.003.007-.007.01-.014.018a.04.04 0 0 1 .018.014l.097.173.017.187.108.169a2 2 0 0 1 .134.527c.021.16-.152.322-.1.482.024.087.135.162.215.225-.122.201-.125.464-.069.693l.045.135c.01.107-.007.229-.004.34.004.09.052.184.048.281-.006.295-.197.61-.398.877-.225.291-.357.225-.644.013m-3.757.298q.005-.01.014-.017c-.114-.225 0-.53.045-.745.041-.208.024-.437.079-.642.042-.169.136-.346.209-.509l.121-.402.135-.242.371-.725c.131-.207.311-.409.46-.592.022.018.022.007.004.027q.007.01.018.015l-.018.245.056.163c.011.129-.028.191.093.295.021.021.073.045.052.073-.007.045-.031.1-.017.149.034.138.156.205.104.363-.035.104-.139.202-.201.299l-.309.523c-.082.138-.107.28-.173.413-.173.339-.423.682-.669 1.005l-.166.245c-.059.059-.132.07-.208.059m-.582.773c.169.125.509.308.693.295l.163-.056.159-.027c.07-.022.132-.077.191-.108l.294-.156.305-.36.24-.222c.079-.08.142-.19.197-.281.056-.086.066-.193.107-.277l.191-.281c.042-.076.034-.159.066-.232l.108-.152.1-.171.111-.127c.024.017.013.017.031-.004.02.017.02.007.003.031l.017.011c.022.142-.013.322.038.451.046.117.209.18.291.269.056.063.063.14.098.205a.6.6 0 0 0 .184.211l.103.111c.066.125.275.222.382.313l.547.418c.059.125.226.073.329.08l.173.024a2.3 2.3 0 0 0 .604-.145c.201-.097.707-.672.783-.894.049-.143.059-.298.083-.443l.045-.167c.014-.093-.017-.191-.017-.284l.031-.295-.055-.759c-.011-.2.01-.402.006-.599-.003-.146-.058-.295-.086-.434-.021-.086.007-.162-.028-.249-.031-.073-.125-.135-.156-.207l-.017-.188-.128-.194-.052-.211-.135-.191-.073-.152c-.067-.087-.174-.156-.247-.243-.058-.063-.089-.156-.156-.225-.051-.059-.148-.108-.18-.174a8 8 0 0 1-.055-.751c.021-.091.093-.187.097-.278 0-.1-.09-.163-.084-.26.008-.089.074-.166.105-.253s.021-.169.042-.252l.086-.191.232-.648.055-.177q.018.016.036.028l.19.069-.035.25.149.353c.021.08.021.152.066.225l.201.215c.045.101.024.236.084.33l.176.169.062.208.153.177c.087.139.021.266.187.399l.163.187.021.142c.017.087.097.19.176.253.014.031.083.069.06.1-.008.049-.025.104-.018.152.025.139.277.247.381.326-.045.191.104.354.253.474.062.105.236.213.343.296.035.073.166.159.239.215-.042.107 0 .19.094.267.048.1.149.197.246.273.069.149.381.287.509.395l.187.181c.098.18.489.353.634.169l.018.014c.035.069.235.184.302.101q-.009-.005-.018-.015c-.118-.245-.378-.429-.547-.654-.136-.18-.164-.416-.309-.586-.197-.225-.502-.347-.731-.561-.246-.236-.278-.573-.451-.835-.065-.101-.207-.156-.26-.264-.065-.132-.076-.312-.152-.457l-.277-.392-.114-.329-.094-.167-.108-.467c-.027-.094-.111-.163-.145-.25-.062-.159-.052-.37-.201-.492.017-.021.017-.01-.003-.031l.024-.032c.225.063.512-.013.721-.096l.131-.077.233-.055.194-.101.159-.031.225-.097.211-.052c.108-.062.187-.204.305-.235l.395.028c.111-.022.336-.073.423-.133.1-.065.195-.166.309-.204.169-.052.357-.003.513-.107a.76.76 0 0 0 .322-.62c-.017-.503-1.002-.853-1.258-1.279-.055-.09-.09-.302-.084-.409l.049-.239-.024-.316.007-.429c-.017-.091-.059-.191-.076-.284-.018-.08-.007-.16-.035-.236l-.128-.191c-.038-.083-.028-.18-.073-.263l-.329-.377q-.038-.062-.076-.118l-.177-.18c-.045-.073-.069-.153-.136-.226-.114-.136-.432-.347-.595-.454-.094-.062-.201-.073-.295-.118l-.163-.093-.17-.069c-.079.058-.135.173-.197.252l.284.299.135.072a2.4 2.4 0 0 1 .454.357l.132.18.066.18c.034.06.118.122.18.17l.083.121c.066.122.055.236.188.336.009.077-.004.156.006.229.01.084.073.132.097.208l.049.277-.028.195c-.014.12.056.322-.028.426-.096-.094-.225-.173-.336-.267l-.347-.291c-.079-.052-.166-.059-.246-.104-.107-.059-.207-.164-.318-.184-.26-.045-.436.042-.662.153-.132.062-.274.096-.392.198l-.291.342c-.062.066-.138.118-.2.198-.157.204-.323.45-.438.669-.044.087-.058.2-.124.284-.142-.163-.16-.346-.253-.527-.073-.142-.194-.242-.281-.381l-.107-.278-.16-.211-.051-.135-.091-.166-.044-.226-.156-.194-.08-.193-.167-.253-.097-.281-.156-.298-.076-.197c-.076-.143-.197-.264-.277-.403-.083-.149-.042-.353-.136-.499l-.262-.388c-.036-.062-.049-.142-.094-.204-.077-.108-.195-.198-.236-.319l-.038-.343c-.01-.035-.083-.129-.07-.149.042-.066.133-.153.136-.233.007-.245-.319-.478-.503-.651-.093-.09-.242-.329-.398-.208-.218.166-.371.457-.288.71.024.087.09.149.118.236s-.028.201.014.284c.056.115.277.229.159.382l.24.242c.037.059.003.139.017.201s.083.124.135.17l.038.101c.01.058-.004.124.021.18.028.076.093.149.128.222l.021.152.118.18c.031.086 0 .201.035.281.031.069.089.128.131.194l.094.218.128.204.111.389.017.162.101.205c.058.17.065.298.232.429l-.059.146c.065.105.256.302.145.44l.132.149.142.094q-.004.012-.014.017c-.007.256.101.243.187.443l.087.298.218.222c.042.07-.007.164.031.236l.195.208c.045.066.034.152.065.225.049.111.153.171.253.25-.003.007-.007.01-.013.017l-.045.129c.027.051.076.104.062.169-.077.34-.267.693-.437 1.009l-.09.263-.281.565c-.034.083-.003.183-.031.263l-.197.347-.021.131-.094.306-.162.252-.108.215c-.111.17-.423.167-.599.209-.025.003-.08.009-.101.034l-.01-.256c-.011-.077-.049-.146-.042-.226l.035-.253a2 2 0 0 1-.024-.145l.041-.222-.066-.981c.003-.1.014-.229.031-.325l.042-.177c.007-.18-.115-.336-.121-.52-.007-.176.117-.419.152-.593l-.021-.159-.024-.624.024-.294c-.007-.08-.072-.146-.096-.222-.039-.125-.039-.271-.094-.391s-.142-.257-.195-.385-.044-.271-.204-.337l-.457-.062-.406.062c-.155-.014-.256-.221-.433-.107-.156.1-.284.322-.336.489l-.038.145-.187.308c-.055.111-.073.247-.118.354-.055.139-.142.257-.226.391-.051.087-.089.191-.145.295-.083.156-.104.343-.173.499l-.18.433c-.059.132-.149.243-.198.375-.066.176-.035.363-.059.547-.014.083-.09.167-.114.249l-.014.222-.166.656c-.028.155.045.304.038.467l-.035.149-.003.267-.049.239a.23.23 0 0 0 .069.17c.087.08.191.132.285.062.242-.18.402-.62.516-.849s.26-.419.392-.645l.094-.228c.069-.114.186-.197.262-.284.16-.177.264-.371.33-.565.01-.031.111-.312.17-.288l.02.063.083.17-.02.132.006.238c-.006.101-.044.202-.055.302l-.01.287.069.191.063.711.073.678c0 .084-.049.164-.028.247.01.059.069.1.107.149a.5.5 0 0 1 .09.229q.001.017-.004.035c-.034.134-.551.647-.668.734-.07.052-.166.062-.228.128-.074.076-.077.18-.122.26l-.326.537-.104.277c-.101.194-.308.358-.357.558l-.027.18-.098.354-.013.222-.091.218-.051.211-.06.173.015.129-.032.204.008.319-.035.177c0 .09.048.16.035.253-.004.024 0 .041-.018.062.104.107.1.212.167.326zm91.106 9.983a.1.1 0 0 0 .014-.028c.004.028-.021.004-.014.028m2.152-1.473c-.125 0-1.043-.072-1.088-.131.041-.145.063-.35.194-.451-.02-.145.066-.301.184-.391.038.024.187.097.221.073.062.169.229.294.344.44.072.017.183.055.232.118.073.253.031.138-.087.342m9.484-3.198c-.1 0-.197.131-.291.177-.055.031-.363.065-.405.014a.3.3 0 0 1-.17.082c-.072.015-.145-.003-.218-.003-.087.003-.194.07-.274.035l-.131-.118c.034-.09.149-.256.073-.357.11-.073.127-.242.165-.346l.115-.198.318-.256.26.121c.038.007.271.062.285.048l.048.129c.045.007.16.065.194.038.014.09.06.111.115.184-.021.076-.007.163-.017.242zm-2.252 7.592a.73.73 0 0 1-.437-.28c-.045-.062-.065-.146-.118-.211l.018-.014a.04.04 0 0 0-.014-.017q.011-.005.018-.014.01.009.013.016l.139-.006c.024.004.426.135.426.135.053.066 0 .322-.045.395zm5.025-.945c.017-.021.101-.184.139-.135.017-.032.079-.281.104-.247.027-.027-.007-.048.024-.076.017-.017.031-.041.048-.059.024-.058.004-.138.007-.194.01-.128.063-.218.059-.357 0-.027-.007-.045.014-.062-.018-.003-.087-.014-.059-.038q-.006-.005-.01-.018c.038-.01.1-.007.079-.034 0-.1-.02-.131-.083-.208.014-.166-.426-.537-.502-.714-.011-.018-.004-.062-.035-.038-.021-.007-.1-.031-.069-.056-.011-.027-.031-.058-.007-.075-.017-.025-.007-.022-.031-.004a.4.4 0 0 1-.108-.107c-.058 0-.305-.073-.34-.115.046-.063.091-.128.16-.18l.149-.09c.093.058.229.065.343.08l.361.034.152.066a1 1 0 0 1 .128.018c.129.034.229.124.322.249l.122.152.069-.09c.059-.153-.014-1.067-.09-1.185-.038-.059-.516-.322-.585-.343-.046-.01-.34-.045-.378-.032-.049.018-.062.067-.101.098l-.142-.153c-.01-.003-.226-.107-.226-.107-.124-.014-.221-.098-.339-.122-.221-.045-.401.222-.592-.02q-.009.009-.018.013c-.055.004-.215.007-.253-.045-.163.156-.703.073-.883-.02-.024-.015-.011-.015-.031.003-.029-.031-.156-.096-.177-.083l-.011-.017-.038.059-.014-.017c-.107-.187-.36-.209-.523-.289-.069-.034-.108-.076-.184-.096q-.119-.001-.239-.007c-.086-.028-.138-.118-.211-.173l-.156-.098c-.263.17-.547-.197-.34-.36.166.038.322.045.468-.069.104.017.596-.108.648-.046.021-.016.021-.007.004-.027a.36.36 0 0 1 .117-.16c.132-.086.988-.311 1.085-.187l.018-.013c.065-.163.325-.153.443-.209l.177-.117.187-.105c.051-.027.162-.031.204-.078l.031-.115c.029-.149.045-.232.174-.333a.6.6 0 0 0-.153-.37l-.072-.16c-.156-.18-.395-.305-.576-.454l-.253-.26c-.107-.08-.253-.139-.342-.253a.2.2 0 0 1-.133.003c-.121-.052-.443-.325-.543-.429-.025-.021-.028-.034-.053-.014l-.19.038-.014-.018c.007-.027.014-.051-.003-.075a.07.07 0 0 1-.056-.049c-.013-.056.031-.114.038-.167.011-.082-.044-.256.035-.318a.04.04 0 0 0 .014.017c.02-.017.01-.017.027.003.07-.142.06-.318.132-.457q-.004-.012-.014-.017l.08-.077.017-.162c.067-.142.059-.278.08-.427l.08-.418.065-.531c.011-.073.011-.16.035-.225 0-.024.011-.035.021-.046l.014.018c.121-.094.086-.27.132-.395.017-.052.076-.104.08-.159.003-.076-.025-.167 0-.243s.141-.132.19-.204c.114-.171.004-.382.228-.558-.009-.115-.062-.222-.069-.329-.003-.115.06-.284.025-.386l-.149-.228c-.018-.028-.056-.093-.031-.111.034-.014.079-.069.073-.104-.022-.111-.552-.762-.652-.859l-.104-.066-.135-.128c-.021-.021-.101-.063-.076-.084a.04.04 0 0 0 .013.018l.018-.01c.024.01.065.013.086.038a.3.3 0 0 0-.101-.098c-.096-.034-.533.042-.567.16-.022.062.002.138.013.201.021.184.063.377.042.568l-.059.42c-.028.09-.097.176-.107.28l.01.184-.024.208.045.544c-.011.207-.063.42-.101.616l-.048.299-.18.454-.045.391-.111.523c-.018.07-.007.171-.053.229-.013.024-.041.038-.02.069.02-.016.027-.038.049-.01q-.012.004-.018.014c-.038.062-.125.256-.097.295-.007.003-.01.007-.018.01.07.084.108.271-.014.322-.013.007-.031.007-.013.028l-.069.208c-.025.09-.014.211-.069.284-.042.06-.149.146-.216.163s-.142-.028-.208-.034l-.471-.022c-.097 0-.197.056-.301.056-.069.004-.364 0-.416.038-.132-.132-.475-.086-.641-.101-.108-.009-.215-.055-.319-.034-.122.021-.235.128-.36.152-.077.018-.173-.02-.25.011-.246.093-1.528.828-1.251 1.182-.031.118-.079.28-.048.401.017.07.076.115.08.188l-.015.27c.015.097.122.184.164.273.048.111.055.257.082.375.014.065.084.145.122.211.076.145.176.52.412.336.097-.02.049-.304.055-.36.021-.211.021-.429.076-.631l.111-.284.105-.346.107-.142.062-.153.579-.478c.069.014.325.066.381.049q.038-.031.08-.056c.184.052.395-.017.582-.007.132.01.191.139.316.159l.453.053c.066.007.14-.015.202.031.045.031.065.111.076.163.013.079-.007.131-.076.184.038.013.055.002.072.024-.18.131-.121.242-.18.419-.041.124-.18.249-.291.336.01.094.024.163-.014.239-.176.336-1.223.856-1.237 1.158 0 .02-.017.12.017.093.108.121.315.482.444.544.107.059.232.045.353.07l.208.044.146.014c.066.031.124.108.18.166a.7.7 0 0 0 .336.178c.038.007.233.058.204.079a1 1 0 0 0 .091.15c-.049.082-.125.093-.205.131l-.257.152c-.086.028-.173.008-.262.008l-.312.034-.146-.018-.336.073c-.211.025-.458-.024-.669.011l-.215.121c-.038.014-.166-.025-.166-.025-.035 0-.108.004-.135-.031-.16.129-.333.015-.502.073-.063.021-.122.08-.188.08-.139.004-.277-.066-.416-.049l-.405.042-.163.027c-.124 0-.281-.082-.395.007-.107-.145-.277-.031-.402-.076-.09-.034-.138-.162-.218-.214-.139-.09-.329-.097-.469-.195-.107-.076-.204-.253-.276-.353l-.631-.79c-.16-.204-.326-.457-.527-.62-.1-.077-.422-.219-.482-.306a.2.2 0 0 0-.017-.041c-.01-.031-.021-.093.01-.117-.02-.025-.01-.022-.031-.004-.055-.025-.225-.152-.124-.229-.018-.024-.011-.021-.031-.003l-.163-.094c-.046-.014-.097-.01-.135-.038l-.125-.118c-.122-.059-.309.017-.426.039-.076.016-.149-.025-.222-.022-.16.014-.309.111-.443.218-.011.111-.14.195-.126.302.011.125.097.291.173.398l.084.129c.031.087 0 .173.014.26.017.111.086.191.131.302.028.069 0 .156.024.235l.087.143.08.218.097.138.101.242.082.316c.004.028-.013.093.004.115-.131.051-.28.065-.419.1-.094.024-.181.08-.274.1-.024.007-.018.007-.031-.01-.011.024-.014.066-.042.086-.218-.031-.315.14-.474.264.017.014.038.024.058.007l.015.017c-.098.07-.115.177-.181.263l-.322.382c-.042.062-.045.138-.073.201l-.17.301-.121.194c-.014.045-.007.156.025.198.107.017.169.083.276 0l.053.069c.155-.149.332-.169.513-.225.221-.069.502-.163.699-.319.118.073.346.01.486.028l.405.038c.042 0 .083-.042.118-.069.006.007.01.01.013.017.084-.007.157.031.24.031l.27-.041c.021 0 .024-.007.041.013l.018-.01c0-.024.004-.028-.011-.048.149.027.988-.028 1.051.048.024-.017.058-.031.038-.055.02-.018.013-.021.031.003.08-.024.153-.049.235-.052.042 0 .16.038.181.025q.003.007.013.016c.091-.065.534-.047.628.011.076.049.128.153.183.225.066-.007.389.048.409.032l.042.11c.027.046.18.181.169.191l.063.115c.028 0 .052 0 .073.024.011.121.135.245.124.398-.006.101-.211.215-.298.243l-.142.013-.183.063c-.135.014-.284-.007-.416.035-.108.031-.149.097-.274.1l.014.018c-.034.062-.087.128-.101.204-.02.096.063.263-.041.343.032.055.055.1.052.159l-.135.538c.017.02.007.02.031.003.156.097.271.066.44.048.069-.003.139.021.204-.003l.292-.121c.066-.018.135.013.201.02a.5.5 0 0 0 .367-.118l.191-.044.165.007.202-.028.287.021c.101-.007.205-.073.305-.084.122-.014.291.063.399-.023-.004-.008-.01-.011-.014-.018l.017-.014c.049.032.32.076.36.045l.053.097c.111.014.211.132.298.204s.222.073.309.146c.162.132.249.35.409.482.149.128.384.125.533.245.221.184.169.409.512.462.046.007.087.024.126-.007.01.021.027.087.055.065.128.069.208.219.339.298.062.038.129.031.198.049a.48.48 0 0 1 .353.267q.007-.01.018-.014c.062-.004.18-.02.222-.083.048-.073.013-.208.01-.288-.014-.239-.111-.793.11-.967q-.008-.005-.013-.017c-.066-.017-.149-.118-.194-.173a.45.45 0 0 1 .125-.156l-.014-.018c0-.058-.055-.28-.007-.318.038-.004.028-.004.045.017.01-.006.021-.017.034-.024q-.01-.011-.013-.018c.006-.089-.042-.186.028-.242l-.084-.069c.024-.014.087-.028.069-.056.015-.038.011-.117.046-.146l-.084-.072a.37.37 0 0 1 .129-.153c-.038-.277-.174-.544-.465-.633-.048-.015-.187-.018-.218-.06l-.055.069-.035-.079c-.111.062-.298.014-.343.052-.031-.066-.091-.177-.156-.215-.09-.052-.589-.104-.673-.038-.082-.08-.443-.111-.564-.114-.032 0-.152.038-.16.027-.007.004-.01.011-.017.014-.163-.211-.506-.294-.755-.322-.24-.025-.531.006-.697-.205a.4.4 0 0 1-.298-.041c-.072-.039-.395-.392-.433-.468-.021-.045-.014-.097 0-.142.059-.152.385.024.479-.052a.23.23 0 0 1 .075-.111c.056.011.423.076.451.052l.103-.076.071-.087q.005.009.013.018c.1-.011.513.034.568-.011.008-.018.011-.056.031-.024.104.028.631-.034.686.035.022-.018.038-.022.022-.042q.014-.017.034-.027c.191.131.291.047.478-.015.049-.014.108-.014.156-.048.08.065.26-.01.353-.007l.209.038c.09.007.426-.059.488.017.239-.228.516.004.621-.079l.055-.07c.187.091.544-.072.662.08.094.038.152.159.218.239.087.014.149.087.208.163.184-.011.384.142.506.288l.073.134.049-.04c.096.269.363.487.533.731.014.02.041.048.014.069.045.031.256.291.256.291.028.027.09.149.108.135.056.052.294.395.339.361.104.111.246.072.378.124l.149.073.083-.048c.003.006.007.009.014.017.02-.017.011-.017.028.003zm8.601-25.928c.013-.024.09-.177.128-.146.038-.069.09-.1.142-.158-.007-.056 0-.042.041-.087.022.007.022-.08.042-.069l.073-.063c.142-.086.135-.114.291-.277.08-.135.222-.277.329-.395l.097-.118c.021-.018.01-.018.032 0 .016-.018.034-.027.013-.045.076-.226.132-.156.246-.346-.021-.004.08-.153.191-.271.006-.007.01-.01.014-.017.014-.039.128-.208.156-.236.017-.021.079-.145.103-.121.102-.198.031-.16.118-.257a.7.7 0 0 1 .042-.245c.08-.042.028-.305.049-.368l.082-.128c-.024-.024-.076-.073-.051-.1a.3.3 0 0 1 .059-.035l-.021-.129-.101-.145c-.028-.045-.024-.139-.073-.177l-.142-.056-.089-.078c-.098.078-.219.086-.323.148-.079.052-.132.163-.19.228q-.007-.009-.018-.013c-.024-.003-.038-.052-.062-.028-.087.038-.111.094-.174.163-.28-.058-.568.073-.831.122-.024.003-.056.007-.073-.011-.08.111-.236.093-.325.173l-.133.153c-.016.034.004.083-.02.11.052.025.1.08.16.104.149.063.329.073.398.254.055.135-.021.27-.059.395a2 2 0 0 0-.059.291c-.024.149-.024.301-.045.454l-.045.159-.014.19-.142.406c-.041.101-.135.191-.208.274a.2.2 0 0 1 .031.028c.018-.021.021-.039.045-.017q-.01.004-.013.017c.003.021-.056.034-.029.062.008.024.042.048.018.072-.018.007-.104.022-.073.053-.01.02-.034.052-.01.076-.028.007-.066.007-.09.035l.017.014.007.207c.062.191.371-.031.489-.052m5.95 1.699c-.028-.004-.178.002-.153-.021.021.007.024 0 .031-.004zm3.832 5.509.069-.138q.007.004.015.014a.8.8 0 0 0 .131-.298 3 3 0 0 0-.038-.722l-.232-.471c-.108-.152-.443-.44-.599-.547-.091-.062-.191-.059-.285-.083l-.326-.142-.187-.129c-.076-.035-.159-.037-.232-.086l-.149-.146c-.045-.03-.274-.083-.298-.055-.021-.017-.021-.01-.003-.031-.018-.052-.025-.139-.069-.177-.184.083-.371-.16-.503-.278-.024.022-.062.06-.09.035s-.083-.069-.107-.041c-.014-.032-.14-.198-.178-.156-.114.007-.169-.035-.249-.107l-.069-.046-.076-.114c-.104.014-.15-.049-.219-.111-.169-.153-.083-.291.053-.444.127.011.189-.065.297-.1.066-.021.146 0 .212-.003s.18-.087.242-.028c.069-.059.16-.083.191-.118.065.055.142-.017.201.035q.009-.009.013-.018.022-.037.042-.076c.069 0 .392-.052.427-.024.017-.021.017-.011-.004-.031l.045-.049.239-.024c.257-.004.502.073.738.16.028.006.104.044.125.017.097.09.346.02.368.041.086.132.332.122.46.104.031-.003.098-.038.122-.013.02-.022.02-.011 0-.032.014-.111.02-.211-.049-.304s-.218-.153-.308-.202l-.312-.222c-.229-.127-.468-.211-.697-.325-.128-.066-.249-.16-.381-.211-.163-.063-.364-.032-.53-.098-.101-.042-.205-.149-.309-.184-.141-.038-.291-.003-.436-.02-.263-.028-.52-.156-.797-.111-.15.024-.299.124-.451.142-.104.011-.197-.038-.295-.052-.135-.017-.481.045-.592.118-.021.018-.069.076-.093.056-.035-.004-.173-.07-.188-.053-.024.004-.055.055-.079.066l-.039.007c-.047.007-.076-.028-.12-.049l-.233-.02c-.128.007-.932.121-1.001.062-.045.042-.187.09-.24.042-.006.007-.01.01-.013.017-.004.035-.042.111-.011.139q-.011.015-.027.031c-.018-.018-.038-.055-.063-.028l-.017-.014a.18.18 0 0 1-.104.066c-.014 0-.378-.038-.381-.038-.093.11-.357.045-.406.097-.076-.101-.194-.063-.263-.121.003-.038-.031-.125-.007-.153-.093-.045-.191-.142-.27-.215-.132.035-.267-.034-.399-.038-.146 0-.246.118-.388.111-.149-.003-.309-.058-.454-.087-.051.004-.107.004-.159.004l-.374-.059c-.067-.021-.122-.1-.174-.142-.038.014-.128-.017-.135-.01-.09.003-.16-.046-.239-.07h-.187l-.205-.048c-.1-.008-.18.024-.274.041l-.211.021c-.173.028-.381.021-.558.041-.104.015-.187.071-.287.091l-.236.02a2 2 0 0 0-.371.26l-.017-.017a1.3 1.3 0 0 0-.16-.174c-.007.008-.01.011-.013.018q-.011-.01-.018-.014l-.041.076c-.055-.031-.09-.044-.153-.034l-.128.094c-.09.055-.187.045-.274.166-.055.076-.042.183-.118.27.115.142.045.385.163.493.17-.025.33.055.493.062.214.01.422-.049.634-.024.093.01.173.096.266.1.066.007.212-.059.257-.018.024.042.243.187.305.243.08-.045.243-.08.318-.003.018.017.011.02.032 0 .035 0 .142.003.162-.024.011.024.042.117.066.089l.732.097c.086.018.155.122.246.136.142.02.436.007.551.093.041.031.103.101.121.146s.017.128.059.163c.021.014.087.034.065.058l.032.029-.232.224a.27.27 0 0 1-.031.178c-.153.214-.361.149-.43.453-.007.025-.024.059 0 .08l-.25.18c.004.025-.003.056.022.076-.022.021-.011.021-.032.004l-.142.052c-.084.051-.139.142-.204.215l-.215.211c-.063.063-.143.059-.201.111a5 5 0 0 0-.424.426c-.062.07-.082.139-.149.212.018.156-.058.291-.086.433-.014.069.017.152.017.225l-.031.142a1 1 0 0 0 .025.388c.006.024.01.014-.007.035.02.018.01.02.027-.004.198.049.433.066.589-.107q.058-.042.115-.09c.066-.039.163-.028.225-.097.049-.024.115-.184.08-.215.017-.021.01-.021.031-.003a.5.5 0 0 0 .222-.118c.267.065.384-.333.578-.486l.035-.02.267-.083.107-.015c.056-.027.111-.093.16-.124.024-.014.035-.027.058-.007.022 0 .011.02.032-.003a2 2 0 0 1 .298-.212l.156-.076.072-.104q.007.005.015.014l.2-.226q.009.01.018.014c.204-.01.329-.096.485-.256l.118-.149c.083-.076.184-.073.273-.114.243-.104.465-.093.714-.011.052.021.239-.02.268.003.149-.204.29-.131.487-.082.136.037.216.052.337.159.221-.031.243.138.43.222.038.017.155.014.162.021-.003.02.007.024.022.027.165.049.336.08.471.233.014.017.02.038.041.013l.073-.013c.069-.004.187.076.246.01.156.215.478.142.669.315.041.011.09.049.128.084.045 0 .159.044.184.02.09.104.153.073.235.108.059.027.101.072.16.09.072.02.183.02.245.086.018.018.011.018.029 0 .027.004.065 0 .093.025.011.155.201.18.315.228l.097.083c.239-.048.333.156.527.282.063.04.506.18.53.149.067.096.319.329.434.335l.238-.017c.046.007.16.042.198 0 .021.014.042.02.017.042.056.076.156.138.225.204l.084.101c.083-.035.166-.025.256-.032m5.309-32.612c-.031-.256.052-.579-.038-.807a.95.95 0 0 0-.422-.441.8.8 0 0 0-.538.014c-.069.031-.117.097-.162.153l-.177.163-.205.249-.322.322-.187.229-.215.166-.118.145-.367.382-.34.436c-.08.108-.142.236-.232.34l-.194.211-.159.26c-.163.225-.392.434-.482.7-.024.07.08.198.083.149.184-.128.337-.346.488-.502l.295-.26.212-.263.222-.122c.044-.031.12-.117.183-.113.024.009.035.062.031.086-.007.087-.405.447-.481.527-.129.134-.242.298-.368.436l-.252.236-.188.229-.166.107-.253.218c-.201.146-.391-.114-.568-.072-.025.007-.042.017-.042-.014s-.197-.094-.232-.101l-.229-.045c-.093-.031-.176-.093-.28-.122l-1.106-.242c-.243-.056-.492-.038-.748-.076-.087-.014-.16-.076-.253-.097l-.531-.08c-.107-.021-.207-.059-.301-.083-.084-.024-.173-.011-.253-.024-.184-.028-.357-.097-.555-.125-.065-.007-.118-.055-.173-.069a1 1 0 0 0-.294-.018c-.247.025-.447.198-.638.34-.111.087-.284.201-.309.35-.017.135.167.524.271.617l.118.066c.011.003.011.01.011.024l.36.808.107.145.111.242c.045.125.049.271.093.402l.076.167.063.256.083.201c.049.149.063.316.097.475.045.19.146.353.197.537l.029.205.298.557c.041.08.055.17.117.243.042.055.121.128.201.111.09-.018.035-.187.028-.246l-.073-.308c-.027-.142-.031-.306-.058-.458l-.084-.453c-.024-.275.042-.551.055-.815l-.017-.347.028-.34v-.325c.003-.087.069-.149.076-.233l.021.004a.34.34 0 0 1-.056-.177c.111-.118.091-.356.25-.443.101-.052.696.045.866.062l1.075.018.329-.053c.156-.007.298.035.447.004.169-.035 1.005-.055 1.06.138a.4.4 0 0 1 .004.069l-.104.198-.256.52c-.032.066-.095.122-.118.195l-.084.377.021.236c-.007.107-.028.236-.014.346.011.118.08.204.104.312.049.205.066.835.36.849l.32-.228.276-.371.105-.212c.073-.1.186-.149.263-.246.205-.249.367-.527.534-.796l.267-.337.083-.163.471-.651.093-.174.302-.446.152-.302.198-.267c.073-.111.09-.246.152-.36.073-.132.187-.26.25-.396l.042-.131.162-.17.118-.263.278-.392.131-.142.062-.173.108-.17c.034-.052.125-.124.128-.194.014-.01.021-.021 0-.021.093-.118.246-.18.257-.353zm2.63 1.58c.011-.208-.045-.305-.2-.409-.056-.035-.125-.069-.153-.129-.09-.19-.392-.36-.614-.28-.169.062-.342.225-.464.364l-.121.163-.308.271-.52.512-.381.343c-.108.114-.167.256-.281.371-.083.079-.135.19-.201.281-.097.131-.343.287-.274.491a.09.09 0 0 0 .076.06c.06-.056.136-.08.198-.122l.28-.191.195-.169.211-.107.697-.447.471-.226c.017-.007.277-.118.273-.018.042.213-1.147 1.616-1.358 1.851-.131.149-.249.326-.371.478l-.291.264c-.149.166-.267.354-.412.52l-.451.43-.187.222c-.075.076-.173.145-.249.221l-.239.305-.215.236-.108.156-.231.152-.251.266-.294.236-.146.16-1.153.967-.198.277c-.18.187-.322.364-.44.589-.045.083-.132.156-.176.243-.045.097-.053.222-.094.326s-.135.183-.173.284l-.122.398.024.215-.002.208c.044.229.242.513.44.651.165.122.453.233.647.104l.056-.066.059-.235.207-.399.084-.184.163-.256.118-.128.128-.236.107-.118.18-.287.267-.309.069-.135.187-.238c.094-.149.18-.32.291-.458l.222-.202.16-.207c.055-.059.131-.104.18-.163l.114-.197.108-.101.627-.783.243-.205.349-.478.479-.596.243-.398.183-.198.35-.526.7-1.02.121-.152.204-.346.222-.289.101-.238.135-.198.184-.429c.09-.177.214-.33.229-.555zm8.681 1.462c-.024-.104-.115-.184-.187-.263-.104-.114-.274-.26-.433-.277-.253-.031-.513.096-.724.18-.565.218-1.096.499-1.625.787-.094.051-.846.488-.846.536-.032-.003-.025.004-.021-.024-.107-.103-.104-.236-.146-.367-.051-.184-.18-.436-.391-.471-.034-.007-.087.004-.087-.031h-.02q.004-.046.003-.087c.125-.111.215-.26.315-.381l.315-.346c.091-.118.16-.26.236-.385l.205-.24.159-.231.114-.219c.097-.128.274-.305.282-.481h.02c-.014-.018-.02-.018-.018-.042h.022l.1-.153c.065-.142.156-.748.052-.883-.027-.038-.076-.049-.111-.066l-.118-.083c-.104-.049-.298-.053-.416-.053-.145 0-.256.066-.381.094l-.339.073c-.399.115-.773.308-1.158.468l-.569.305c-.176.076-.374.1-.547.184l-.238.156c-.184.114-.406.162-.597.266l-.166.128c-.128.077-.27.094-.388.191a2.43 2.43 0 0 0-.801 1.182c-.035.104-.086.222-.086.343.007.484.547-.177.62-.257a.8.8 0 0 1 .246-.17c.197-.079.443.039.623-.093.094-.072.046-.166.049-.26l.167-.007.311-.059.527.073.177.055c.118-.173 0-.419-.066-.578-.007-.021-.018-.028.011-.028.1-.166.616-.257.627-.461h.02c.195.118.389-.094.548-.16.177-.072.361-.117.537-.187.084-.031.153-.1.233-.142.089-.048.2-.055.3-.079l.18-.066c.046 0 .112.02.14.052.055.059.048.194.02.27-.051.145-.166.26-.249.385l-.444.689-.218.305-.125.212-.149.145-.159.212-.208.197-.319.371-.256.17-.174.059-.197.121-.198.073-.433.211-.214.135-.229.101c-.229.1-.447.257-.711.291-.042.007-.111-.014-.135-.042-.09-.1-.103-.256-.166-.367-.157-.27-.631-.918-.998-.648-.149.111-.27.385-.184.572l.163.232a3 3 0 0 0 .187.357c.086.135.211.249.201.426h-.021l-.1.072-.09.08c-.059.056-.122.07-.188.111l-.183.132-.249.097-.229.194c-.149.118-.482.357-.5.569-.006.086.025.193.129.201.1-.087.207-.191.322-.246l.485-.226.225-.166c.07-.028.15-.024.226-.045l.343-.156a.24.24 0 0 0 .107-.17c.014.011.021.021.021.042.1.038.274.204.239.332-.031.122-.166.198-.252.285l-.188.204-.159.122-.278.329c-.107.124-.301.242-.311.422h-.022a.3.3 0 0 0-.189.018c-.178.08-.26.187-.396.308l-.315.197-.173.14c-.163.089-.374.086-.503.238a.66.66 0 0 0-.153.406l.039.198c.135.027.17.11.274.18l.267.127c.135.063.329.063.488.08l.197.035h.298l.531.163c.142.069.28.208.46.211.042.004.104-.013.122-.051.073-.136-.198-.462-.284-.555l-.216-.156-.127-.145a2 2 0 0 0-.253-.205c-.073-.055-.243-.097-.264-.195-.038-.176.157-.231.25-.322l.156-.19.225-.18c.093-.108.398-.468.548-.457.183.006.086.599.29.724.077.048.16 0 .229-.039a.55.55 0 0 1 .326-.052c.149.036.201.108.318.156l.676.333c.091.052.153.136.257.177.063.024.201.094.263.024.018-.014.014-.024.042-.024-.024-.159-.125-.339-.204-.475l-.156-.197a5.3 5.3 0 0 0-.589-.825c-.091-.1-.171-.232-.285-.305-.146-.097-.395-.111-.582-.122.004-.027.011-.02-.02-.02a1.3 1.3 0 0 1 .291-.402l.412-.429.329-.251c.111-.093.159-.229.264-.318.155-.139.363-.205.554-.278l.184-.104.544-.158.149.013c.007.094-.056.184-.104.253-.063.097-.108.201-.194.284-.111.108-.244.174-.361.257l-.156.166c-.076.065-.17.104-.249.176-.105.098-.18.212-.274.313-.062.069-.17.103-.201.197-.014.045.007.097.003.15.285-.022.998-.78 1.252-.677.076.032.031 1.013.166 1.158.014.014.083.069.083.024a.7.7 0 0 0 .215-.374l.003-.087.111-.225.156-.263c.038-.087.059-.184.097-.267.056-.118.138-.233.145-.382l.097-.238c.052-.063.147-.07.216-.105l.218-.121.44-.125c.16-.058.336-.159.482-.249.02-.011.08-.024.08-.049.027 0 .02.007.023-.02.135.013.275-.122.385-.174l.419-.184c.16-.079.496-.284.69-.273.184-.145.672-.381.922-.357.028.003.107.032.107 0 .08-.035.118-.117.163-.184m-63.522 56.444c-.073-.024-.295-.062-.316-.159l-.073-.201c-.013-.038-.151-.191-.114-.201l.007.021c.118.076.225.156.374.125q-.001.01.004.02.01 0 .021-.003c.021.027.297.336.222.354l.003.02-.124.024zm-3.861 4.138c.132-.035.178-.111.264-.19.056-.049.121-.08.167-.143q.036-.094.079-.184l.066-.111c.027-.096-.014-.245-.035-.353-.059-.308-.11-.363-.336-.54-.065-.049-.111-.114-.191-.149-.076-.028-.145-.021-.225-.038l-.166-.08c-.104-.021-.232.038-.332.011l-.16-.084-.295-.107-.107-.083-.125-.063-.16-.114-.1-.184-.093-.097-.067-.135-.18-.318a2.7 2.7 0 0 1-.131-.545c-.007-.035.014-.135-.018-.128l-.173-.194c-.069-.122-.09-.284-.114-.43l-.184-.859c-.011-.038-.02-.173-.045-.17-.013-.025-.021-.059-.055-.052.02-.198-.129-.249-.153-.409-.01-.083.028-.149.031-.222.015-.229-.014-.665-.156-.852-.024-.031-.062-.093-.111-.084-.003-.007-.003-.017-.006-.02.021-.091-.042-.225-.059-.319v-.108c-.135-.364-.128-.758-.242-1.15-.053-.177-.157-.291-.209-.45l-.218-1.071-.1-.503-.063-.405c-.01-.024-.034-.063-.003-.07.027-.131.082-.256.055-.401a1.3 1.3 0 0 1-.211-.333l-.031-.236c-.167-.004-.295-.128-.454-.159-.128-.021-.26.044-.399.055-.149.011-.287-.024-.458.007q.026.063.046.125c-.028.031-.087.17-.118.173.09.142.236.242.301.406.073.187.024.387.077.572.034.117.127.186.159.301l.187.97c.007.056.048.274.111.26-.059.167.014.496.094.658.041.091.118.177.145.281.097.343.153.697.24 1.046l.078.205.039.302c.035.131.146.218.19.336l.035.211.087.312.007.149c.059.087.049.25.069.361.028.017.073.034.08.069-.056.193-.083.118-.247.086-.055-.01-.36-.27-.387-.322l-.094-.222c-.041-.062-.114-.089-.142-.162s-.024-.184-.035-.254l-.076-.225c-.042-.104-.142-.142-.18-.232-.066-.138-.059-.332-.1-.481-.039-.139-.133-.236-.181-.361-.086-.219-.107-.527-.156-.776-.007-.028 0-.025-.027-.017-.094-.055-.129-.146-.209-.212l-.284-.201c-.194-.166-.318-.287-.581-.346-.108-.025-.451.041-.538.1s-.204.298-.266.395l-.385.582c-.055.094-.142.201-.167.305l.052.357.049.101c-.014.02-.069.124-.021.114l.042.104c.156.177.37.364.603.454.069.028.142.006.207.024l.18.077c.219.058.434.107.635.214l.274.219.273.134.267.202.382.229c.176.127.363.329.578.384l.063.01c.035.004.107-.013.114.031.052.073.094.16.166.219.128.101.274.17.388.288.087.086.125.2.177.315.01.024.048.1.08.094-.01.162.069.193.09.333l.094.415c.02.045.135.174.19.163-.006.16.174.651.083.749-.034.038-.114.051-.166.044-.212-.035-.374-.186-.631-.166-.028.004-.079.021-.086-.01-.132-.097-.406-.215-.586-.188l-.287.091c-.06.184-.178.371-.073.582l.111.145.145.039.121.076.496.176.214.14c.108.051.215.082.326.145l.319.197.364.107c.066.011.128.004.184.032.107.055.263.166.34.259.165.209.242.527.547.593.298.063.309-.242.485-.326.084-.038.18.022.273.004.018.011.07.027.094.024.063.25.344.43.575.482m6.546 2.63c.233-.044.503-.149.593-.364.025-.062.007-.138.018-.204l.055-.177a1.5 1.5 0 0 0-.128-.71c-.038-.087-.122-.142-.156-.239l-.097-.392c-.045-.107-.132-.187-.17-.298-.062-.183-.077-.394-.132-.585-.024-.087-.11-.143-.139-.219l-.062-.27-.114-.329-.128-.697-.167-.707c-.031-.087-.114-.125-.152-.201-.09-.187-.15-.489.118-.54.183.124.401.149.55.329.011.014.018.02.039.017.17.097.832.551.863.728l.02.107c.212.09.174.333.24.544.031.104.169.146.218.309.02.073.034.184.02.249l-.044.173c-.004.167.041.34.038.51l-.098.415c-.02.063-.096.14-.083.216.122.035.254.017.392-.011l.346-.087c.122-.065.187-.263.233-.377l.045-.159c.042-.084.187-.289.194-.371.01-.153-.066-.347-.09-.5l-.146-.738c-.024-.138-.027-.291-.069-.425s-.142-.171-.215-.268a.7.7 0 0 1-.065-.27c.002-.024.006-.024-.022-.017l-.138-.087-.146-.173-.128-.052c-.066-.031-.124-.087-.184-.132l-.159-.173c-.118-.09-.274-.125-.399-.201l-.124-.16-.125-.02-.187-.087-.163-.045c-.177-.073-.336-.235-.496-.343l-.249-.142-.18-.197c-.021-.022-.028-.053-.063-.046-.017-.166-.176-.252-.225-.394-.108-.313-.115-.683-.211-1.006-.049-.156-.177-.274-.204-.443-.022-.1.051-.201.051-.298 0-.142-.058-.288-.042-.42l.06-.169.031-.24.083-.19c.024-.121-.072-.357-.083-.495-.007-.077.034-.142.017-.226-.055-.239-.388-.249-.541-.391s-.045-.281-.02-.409l-.011-.16c-.021-.103-.11-.187-.103-.284.017-.281.329-.19.37-.354.017-.076-.059-.131-.079-.19l-.084-.239c-.058-.114-.256-.066-.36-.094-.011-.004-.076-.024-.031-.031.024-.166-.007-.26-.042-.429.052-.031.142-.07.197-.025.067.056.184.458.33.215a.17.17 0 0 0 .021-.101l-.087-.225-.139-.627c-.034-.086-.121-.139-.152-.235a.54.54 0 0 1-.024-.267l.038-.153c-.007-.138-.111-.229-.083-.391.017-.122.125-.205.114-.336a1.6 1.6 0 0 0-.093-.437c-.036-.09-.094-.194-.101-.312-.004-.142.107-.229.125-.336a.6.6 0 0 0-.042-.243l-.131-.163c-.056-.08-.076-.187-.149-.249-.115-.091-.247-.08-.367-.138l-.195-.143-.434-.163-.436-.034c-.107.01-.444.111-.495.187s-.031.246-.014.34c.021.013.045.034.073.027-.011.013-.017.028-.039.031.004.118.011.302.077.416.038.073.118.125.135.222.021.121-.041.26-.028.398l.236 1.269c.013.111-.031.193-.035.294-.007.115.035.274.062.399.018.089.046.191.084.263s.089.135.104.226c.014.069-.021.142-.021.204l.038.232.021.235c.02.115.083.202.107.309.018.083.004.187.031.278.028.082.094.145.122.238l.052.274.075.226c.036.155.025.346.067.512.031.139.121.226.162.343.066.177.046.381.077.555.021.104.125.159.142.257l-.097.284.135.692.183.275c.025.069.004.149.007.214.004.222.084.384-.027.575-.132.225-.898-.353-1.022-.447l-.295-.184c-.079-.062-.125-.138-.219-.193-.044-.029-.111-.018-.166-.025-.038-.004-.176-.017-.183-.059-.084-.058-.108-.19-.191-.259-.118-.094-.229-.073-.353-.129-.291-.135-.718-.478-.994-.083a.46.46 0 0 0-.036.423c.07.167.236.201.378.274.066.031.125.083.194.107.087.028.173.028.25.069l.201.111c.131.094.253.226.378.329.093.08.311.153.426.202.201.089.374.266.554.391.122.087.267.142.357.249a.4.4 0 0 1 .07.178l-.021.006c-.233-.031-.472.056-.548.274-.024.069-.076.111-.073.198.011.246.239.391.094.64-.094.164-.388.087-.537.16-.129.062-.177.211-.284.302-.153.127-.232.072-.34.291l-.041.156c.01.097.062.18.083.267l.107.502c.08.163.201.16.25.391.017.091.055.226.031.302-.055.18-.212.245-.222.461a.7.7 0 0 0 .125.374l.107.09.084.142c.138.174.418.34.654.295.108.069.233.11.368.083.464.163.772-.291.918-.648.027-.072.104-.187.087-.267a.53.53 0 0 1-.205-.205c-.045-.096-.062-.207-.135-.28-.264-.263-.655-.389-.971-.589-.089-.056-.149-.17-.214-.253-.049-.059-.125-.128-.104-.229.035-.138.315-.243.447-.232l.222.073.267-.014.474.132c.184 0 .472-.236.628-.146.409.249.342.887.481 1.331l.073.18.118.16c.086.235.104.519.173.769l.097.204-.007.174a.7.7 0 0 0 .104.298c.028.048.07.089.094.145.017.042 0 .173.031.17.01.024.024.059.055.055-.01.039-.028.083-.021.135.076.094.087.433.111.569.049.052-.031.444.018.433.038.052.083.093.118.153l.048.127c.076.094.343.229.45.267.101.035.195.011.291.066m-5.007 1.383c.173-.076.385-.475.423-.641a.6.6 0 0 0-.048-.385c-.035-.066-.108-.107-.146-.166l-.104-.195c-.045-.051-.117-.096-.142-.162l-.08-.194c-.028-.038-.073-.08-.097-.128-.034-.076-.038-.143-.09-.201-.059-.062-.142-.104-.208-.153-.125-.083-.236-.194-.367-.271-.097-.055-.208-.082-.309-.124-.187-.072-.349-.222-.526-.319l-.596-.239-.24-.107-.166-.129c-.104-.062-.197-.045-.301-.082l-.098-.06-.193-.052-.184-.066a1.2 1.2 0 0 1-.485-.235l-.194-.177a1.1 1.1 0 0 0-.385-.135c-.028-.004-.128.011-.132-.02l-.103-.174c-.104-.111-.773-.738-.922-.627-.045.034-.06.076-.052.135.017.201.197.19.305.305.041.041.062.125.069.187.003.025-.004.069.024.063l.215.221c.048.055.079.128.139.181l.215.134.429.455c.222.197.503.356.732.544.072.059.1.138.155.214l.205.202c.194.149.416.236.585.405.018.017.015.014.035.011 0 .2.35.387.506.474l.121.055.142.146.212.149.131.135c.184.135.417.159.468.419l.021-.003.1.041c.111.073.177.222.291.302s.26.135.385.191c.042.017.097.062.146.052.035.006.083-.035.09.006q.01-.004.021-.003zm-24.75-1.751c.16.021.305.007.451.028.169.021.37.066.53.038.336-.066.516-.468.495-.808a1 1 0 0 0-.135-.394c-.135-.257-.37-.399-.54-.617-.174-.225-.288-.516-.496-.707-.114-.104-.242-.187-.36-.287-.17-.143-.34-.289-.527-.403l-.218-.09-.187-.135-.167-.066c-.107-.069-.19-.218-.297-.298-.067-.048-.153-.066-.226-.111l-.208-.17-.204-.27c-.132-.097-.354-.117-.413-.298l-.138-.384.003-.274c-.014-.201-.076-.417-.076-.621 0-.485.08-.991.135-1.476.014-.149-.042-.35.024-.485.049-.107.181-.16.294-.145a.5.5 0 0 0 .209.069c.086.08.246.096.378.114.211.17.513.278.769.388.211.09.409.236.662.27.104.056.294.056.422.077.111.021.181.069.267.114.028.014.083.024.08.059h.02l.195.024.187.048c.45.251.883-.543.787-.918-.031-.128-.153-.187-.233-.28l-.18-.302c-.073-.096-.166-.169-.253-.249-.103-.104-.205-.278-.339-.336a.3.3 0 0 0-.17-.014c-.049.014-.08.079-.083.132-.007.069-.011.166.024.218.087.153.766.603.343.762-.076.028-.169-.031-.24-.055-.089-.031-.145-.118-.224-.16l-.368-.197-.211-.066-.195-.138-.189-.084a3 3 0 0 1-.26-.162c-.101-.06-.118-.191-.222-.254-.274-.155-.943-.315-1.058-.631-.023-.062-.003-.158 0-.235.011-.173 0-.381.039-.558.038-.163.128-.309.174-.454.037-.131.078-.329.075-.464 0-.107-.038-.236-.017-.35l.093-.357.098-.614.051-.107c.038-.117.063-.319.06-.444l-.077-.377-.003-.174c-.007-.152-.087-.277-.191-.38s-.336-.188-.506-.198l-.305.003c-.194-.025-.426-.111-.613-.072-.208.038-.374.187-.579.232l-.315.006c-.059.014-.118.06-.167.094l-.096.08c-.022.042-.024.117.003.155.097.122.714.424.891.444a.4.4 0 0 0 .183.07l.132.111c.065.073.097.152.145.228.035.052.087.107.098.167.02.111-.032.218-.042.336-.042.509-.066 1.081-.18 1.58l-.052.294c-.035.108-.115.195-.164.291-.038.084-.065.226-.193.209q.005-.01.004-.021c.027.003.02.01.024-.021.016-.018.09-.097.055-.101-.236-.246-.537-.426-.808-.62-.076-.051-.142-.16-.218-.208-.135-.083-.294-.103-.443-.176-.048-.025-.073-.091-.115-.125a1.4 1.4 0 0 0-.453-.242l-.33-.074-.208-.124c-.111-.035-.225-.022-.315-.091-.021-.013-.056-.024-.052-.055-.115.048-.18.191-.305.242-.242.104-.506-.072-.721.171-.329.374.565 1.039.828 1.171.059.027.139.031.209.041.103.153.318.205.471.295.076.042.125.128.19.187a.8.8 0 0 0 .444.177c.114.09.253.159.381.229.17.093.284.183.492.238l.253.018c.038.011.128.052.121.087.031.003.021.01.024-.018.014 0 .032.004.045.004.06.065.291.232.382.242.031.16.076.319.087.489l-.025.277.038.246-.031.34c-.007.197.049.346.038.547-.003.042-.027.215-.01.215.021.09.045.167.045.267l-.021.34c.014.211.055.443.083.647l.003.188.042.204v.228l.122.292c.069.166.107.346.207.499.16.246.416.416.611.62l.235.298.614.7.263.333c.249.274.582.474.804.78.049.069.218.468.207.558-.031.218-.495.152-.52.083-.038-.107.198-.167.236-.233.031-.058.024-.138-.038-.169-.128-.066-.613.093-.765.107-.018 0-.063.011-.06-.021l-.02-.004c.003-.096.017-.214-.024-.29-.087-.146-.267-.166-.409-.239-.177-.083-.336-.215-.51-.309l-.295-.128-.149-.083c-.079-.027-.176-.031-.242-.073-.125-.08-.239-.19-.356-.281l-.417-.256-.27-.208c-.156-.111-.367-.156-.524-.267-.207-.142-.342-.381-.523-.558l-.297-.235c-.146-.107-.264-.25-.43-.326-.188-.086-.392-.139-.593-.208l-.267-.083c-.076-.028-.162-.09-.253-.094l-.18.028-.738.1-.267.108c-.124.038-.298.073-.381.197-.034.046-.041.129-.052.195-.049.346.16.53.433.661l.329.08c.143.062.243.166.42.187l.118.063c.173.11.325.19.561.218l.388.176c.111.06.173.143.263.198.149.1.347.135.527.201.166.063.326.181.52.205a.7.7 0 0 0 .308.125c.122.089.389.2.534.256l.225.076.61.305c.08.038.163.101.27.114l.24.105c.239.117.45.262.748.3.205.191.461.213.77.251.128.118.318.169.516.197l.186.045c.102.062.282.045.403.08.069.024.146.076.228.087q.043.014.084.031-.005.01-.004.02m-57.492-58.456c.01-.066-.018-.118-.031-.191l-.018-.229-.049-.225.008-.169-.024-.191.02-.129c-.004-.069-.035-.138-.038-.211l.025-.246c-.004-.118-.015-.249 0-.367l.076-.256.003-.278c.038-.169.166-.468.288-.593l.124-.103c.066-.063.146-.167.233-.204l.149-.029c.02-.058.221-.336.211-.371.021.004.08.035.065-.003l.247-.308.197-.139.174-.215.118-.031c.051-.169.145-.256.266-.367l.111-.132.136-.083c.11-.122.107-.232.291-.298a1.5 1.5 0 0 1 .429-.523l.225-.073q-.006-.01-.007-.021c.038-.128.132-.239.201-.361.039-.065.055-.142.104-.197s.129-.09.184-.142l.17-.225c.062-.069.142-.107.222-.167.093-.065.075-.118.222-.169.037-.138.124-.198.193-.295l.084-.19.145-.157.122-.232.183-.117.139-.184c.079-.087.18-.156.249-.25.066-.086.056-.28.177-.325a.12.12 0 0 1 .101.01c.038.024.047.084.069.124.027.06.065.153.076.219l-.049.253-.017.18-.118.395c-.055.156-.118.271-.055.447.149.056.353.257.44.375s.139.329.277.378c.073.024.128 0 .202-.004s.145.038.221.01l.19-.263a1 1 0 0 0 .142-.403c.007-.031.038-.086.025-.12.177-.007.253.089.333.238l.096.133c-.01.034.053.118.022.127.009.029.013.018-.015.029l.094.128c-.01.055.038.103.055.159a.04.04 0 0 1-.02.007c-.007.142-.111.211-.181.319l-.124.242c-.06.073-.132.125-.194.198-.035.041-.073.131-.132.152-.038.008-.072.011-.111.017-.055.174-.177.181-.326.278-.073.045-.114.107-.208.138-.045.115-.142.111-.232.18-.051.042-.079.122-.104.184-.01.021-.038.063-.027.087-.111.024-.17.138-.257.191-.103.065-.229.065-.336.124-.097.052-.149.16-.27.222-.028.014-.101.028-.09.052-.163.132-.298.336-.516.413-.022.048-.178.273-.171.287-.187.024-.391.167-.505.287l-.133.181c-.1.104-.221.187-.331.281-.025.017-.118.045-.109.069l-.141.184-.291.19c-.097.08-.34.388-.448.42-.024.006-.024 0-.013.027l-.205.27-.138.094-.108.122c-.149.12-.329.245-.461.384l-.1.176-.129.132c-.017.021-.027.059-.058.07-.146.003-.61.496-.749.582a1 1 0 0 1-.246.083c-.121.031-.176.031-.249-.062m-3.268-4.883.031-.294.052-.132.052-.246.003-.208.077-.298-.135-.742.014-.416c-.025-.156-.091-.322-.007-.461.058-.104.349-.145.467-.193.069-.031.094-.091.146-.133l.176-.114c.164-.1.396-.128.555-.169l.083-.028.139-.003.145-.042c.042-.007.153-.08.136-.129l.194.022c.097-.015.19-.063.287-.077.084-.01.173.007.264-.021.024-.01.055-.038.069-.006.028.017.066.044.1.031l.015.041-.022.008c-.01.079-.024.259-.12.294.009.021.062.069.027.079-.007.076.017.16.028.24l-.004.238c0 .022-.007.042.021.032-.028.097-.146.346-.149.426-.01.114.055.249.052.364-.004.027.01.087-.021.097.01.024 0 .021.028.014.003.01.011.024.014.038a.46.46 0 0 0 .017.246c-.055.197-.08.408-.007.617l-.021.007-.021.551c.004.1-.034.187.007.298-.038.107.025.561-.083.602.066.146.07.33.125.479-.069.063-.122.183-.222.215a.04.04 0 0 1 .007.021c-.034.038-.076.118-.132.138-.069.034-.44.364-.419.423l-.107.017c-.066.08-.198.114-.285.177s-.249.115-.294-.034l-.021-.184c-.056-.229-.017-.288 0-.489l-.041-.308.041-.201.046-.316c.02-.211-.031-.426 0-.634l.124-.295.003-.259-.031-.17.028-.27c.018-.101.059-.191.063-.295l-.014-.146-.066-.156c-.014-.009-.028-.024-.042-.034-.041-.021-.131.01-.167.041-.12.115-.155.299-.249.43l-.173.163a7 7 0 0 0-.191.305l-.038.204c-.058.146-.083.298-.135.44l-.107.198c-.049.107-.056.236-.191.284a.04.04 0 0 0-.007-.02l-.02.007zm-.084.922.022-.007c0-.135 0-.367.118-.461.013-.01.044-.045.055-.014l.021-.007.066.184q-.022.004-.042.014c-.02.01-.024.01-.038.013l-.097.309a.24.24 0 0 1-.105-.031m-1.447 5.465c.044.134.089.332.169.429l.115.091c.131.125.259.256.432.329.077.031.153.014.229.024l.267.059c.097.011.35-.076.416-.149.045-.052.055-.142.076-.205.034-.104-.076-.561-.131-.682-.035-.073-.094-.107-.122-.187-.035-.101-.01-.195-.051-.302l-.105-.184c-.038-.211-.024-.443-.013-.654l.013-.198c-.013-.156-.079-.298-.1-.461s-.007-.339-.014-.503l-.017-.218.045-.322-.049-.256.045-.267.059-.804c.01-.073.09-.18.066-.256q.016-.008.039-.014c.158.245.082.547.18.824 0 .115.283.44.353.503l.211.142c.052.052.087.125.145.166s.16.07.222.062c.028-.003.073-.034.087-.003l.194.042.166-.007.209.017c.089-.017.187-.111.263-.149.114-.063.246-.097.346-.163l.111-.111c.027-.02.263-.169.271-.173.086-.007.156.049.183.128-.049.121-.076.357-.031.489-.034.111.042.648-.034.676l.009.02c.087.094.063.298.08.409l.06.218-.004.198.083.28.007.184a.8.8 0 0 0 .149.267c.114.167.166.225.378.191.11-.017.19.056.346 0 .277-.1.43-.284.669-.371a1 1 0 0 1 .188-.246q.04-.038.086-.072c.166-.066.267-.167.374-.282.083-.089.176-.3.316-.322q.016 0 .027-.003c.024-.052.298-.378.298-.378.194-.038.284-.211.399-.326.069-.073.169-.128.256-.183l.229-.229c.18-.156.395-.288.638-.375.031-.089.1-.127.193-.159a.3.3 0 0 1 .098-.159c.08-.08.19-.128.273-.201.174-.156.354-.326.551-.454l.343-.16c.125-.089.236-.214.357-.305.159-.117.336-.197.499-.311.073-.056.122-.122.222-.156.055-.125.166-.156.284-.226l.27-.211.201-.118c.125-.118.247-.26.361-.385l.093-.069.129-.155.263-.25.093-.187.101-.135.048-.18c.031-.056.087-.084.122-.135l.062-.132c.163-.281.236-.489.291-.804.028-.16.066-.267.056-.44-.035-.496-.409-1.047-.842-1.213-.076-.028-.167-.011-.247-.028s-.242-.09-.332-.139c-.049-.024-.149-.2-.177-.19q-.006-.011-.007-.021c.011-.018.024-.031.038-.049.035-.087.024-.183.035-.27.025-.194.083-.374.09-.568l-.021-.229.035-.333.094-.28.01-.396.132-.336.048-.18c.052-.111.115-.218.135-.336q.001-.026.007-.052c-.01-.118-.079-.267-.121-.381l-.274-.773c-.035-.087-.059-.214-.117-.287-.102-.122-.274-.029-.409-.018l-.243-.027c-.159 0-.27.263-.226.391-.117.034-.228.014-.339.066-.087.038-.308.381-.284.479.034.151.18.193.208.266l-.021.007c-.035.354-.353.499-.53.78l-.132.267c-.062.093-.149.159-.211.256l-.16.309-.26.249-.072.166-.115.149-.159.254-.132.103-.051.101-.143.156c-.062.093-.093.211-.159.301-.087.118-.187.194-.288.298-.163.166-.239.437-.419.596l-.302.256-.094.149c-.072.108-.186.243-.273.354-.073.09-.173.16-.239.26l-.197.343c-.038.003-.233.048-.229.059l-.194.295c-.028.069.007.221-.046.263-.027.024-.096.007-.128.003-.014 0-.055-.017-.041.017l-.16.291-.1.094-.177.219a2 2 0 0 1-.08.142 1.2 1.2 0 0 1-.305.298c-.069.038-.121-.024-.176-.004-.011-.024-.014-.017.014-.027.041-.267.19-.524.295-.78l.02-.202.083-.155.077-.232c.045-.153-.011-.344.034-.509.028-.111.146-.177.177-.295.024-.098-.035-.215-.007-.316.052-.211.145-.422.197-.638.032-.131.008-.273.049-.405.017-.055.069-.09.086-.152.022-.076-.034-.163 0-.239.053-.118.354-.166.475-.222l.263-.16.24-.086c.024-.014.069-.069.08-.041.051.01.111.023.166.013.301-.055.949-.551 1.046-.814.049-.132-.021-.257-.024-.399-.003-.062.028-.187-.007-.246-.069-.114-.17-.132-.277-.205l-.077-.1a.7.7 0 0 0-.311-.184c-.083-.02-.153-.003-.243-.01q-.067-.006-.138-.017c-.091 0-.157.027-.246 0-.021-.003-.163-.062-.115-.08.021-.222.226-.426.232-.655 0-.024-.003-.038.018-.048.128-.084.156-.274.218-.402s.163-.233.26-.333c.031-.034.08-.087.131-.097.029-.003.08.007.067-.024l.245-.281.149-.069q.074-.056.153-.107c.107-.063.225-.098.329-.156l.315-.212.222-.062.128-.121a.8.8 0 0 1 .233-.094 2 2 0 0 1 .342-.042c.094 0 .385.052.465.004.073-.046.215-.399.208-.482-.014-.146-.27-.187-.353-.273-.066-.07-.115-.156-.191-.219-.135-.104-.291-.142-.447-.222-.115-.059-.24-.142-.367-.18-.097-.028-.212.01-.313-.021l-.211-.076-.166-.014-.198-.052c-.11-.007-.242.045-.356.038-.212-.01-.427-.048-.642-.066l-.156-.02-.134.055-.253.052-.14.011-.158.045c-.091.017-.188.017-.285.048-.194.066-.346.17-.53.236-.041.089-.128.127-.187.201-.056.066-.136.124-.187.193-.132.171-.211.462-.135.673-.004.076.069.218.097.287.087.195.256.545.505.371.018-.013.015-.013.025.011l.232.065c.056.008.111-.023.167-.013.072.01.173.062.245.038-.02.09-.443.454-.551.492-.072.205-.245.325-.363.485l-.274.558-.166.177-.129.204c-.042.077-.038.146-.066.222l-.118.194c-.093.205-.127.45-.305.589-.155.125-.405.149-.592.239l-.201.149c-.121.055-.27.042-.391.115s-.24.225-.354.284l-.218.038a6 6 0 0 0-.707.253c-.17.069-.319.183-.457.291-.067.052-.153.163-.26.159q-.01 0-.021-.003c-.09-.035-.042-.226-.066-.302-.062-.193-.208-.339-.298-.509-.062-.118-.129-.288-.24-.357-.051-.034-.158-.076-.221-.062-.031.013-.059.031-.09.044-.229-.196-.52.142-.725.216 0 .02-.002.024-.01.024.014.09-.114.225-.138.322a2 2 0 0 1-.032.191l-.076.173c-.045.243-.031.496-.059.738-.017.156-.114.288-.052.461l-.035.208-.096.347c-.004.041.02.096.038.138a2 2 0 0 0-.122.398l.049.108a.16.16 0 0 0-.004.114.04.04 0 0 1-.02.007l.006.022.022-.008c-.025.042-.062.115-.115.132.042.17 0 .336.024.499l.06.111c-.022.044 0 .1 0 .149l-.025.166c0 .066.021.125.014.187l-.049.389.066.284c0 .072-.086.27-.073.308q.01-.006.021-.007c.021.17-.007.34.011.502l.041.278.052.093a.04.04 0 0 1-.02.007c-.032.142-.007.284-.007.43 0 .125-.053.239-.004.374l-.021.007.014.295.1.211.025.128.042.326c.003.187-.004.367.069.572l.013.333-.024.222.042.204.051.347.008.142.041.183-.003.235.08.305c.01.115-.008.247.01.368.028.19.16.347.122.527m73.849 37.866c29.728 0 53.971-24.245 53.971-53.973a53.6 53.6 0 0 0-3.156-18.159l-3.067.783a50.5 50.5 0 0 1 3.071 17.376c0 27.992-22.827 50.819-50.819 50.819a50.4 50.4 0 0 1-16.672-2.821 9.8 9.8 0 0 1-1.386 2.852 53.6 53.6 0 0 0 18.058 3.123m41.41-88.52c-9.914-11.858-24.805-19.423-41.41-19.423-29.726 0-53.969 24.244-53.969 53.97 0 4.408.533 8.697 1.542 12.804l2.609-2.782a50.6 50.6 0 0 1-.998-10.022c0-27.99 22.827-50.816 50.816-50.816 14.672 0 27.919 6.272 37.21 16.269zm-90.594 56.732a54.4 54.4 0 0 0 14.219 18.869 9.9 9.9 0 0 1 1.788-2.613 51.2 51.2 0 0 1-12.68-16.575zM90.94 27.668l-.08-.399v-.004l-.087-.367h-.003l-.093-.335-.111-.32v.004a4 4 0 0 0-.133-.305l-.151-.288a5 5 0 0 0-.399-.554 4 4 0 0 0-.322-.337 4 4 0 0 0-.368-.291 4 4 0 0 0-.426-.256h-.003a4 4 0 0 0-.476-.201 4 4 0 0 0-.536-.139 5 5 0 0 0-.582-.069 5 5 0 0 0-.642.011 6 6 0 0 0-.682.1 6 6 0 0 0-.672.167 4.5 4.5 0 0 0-1.113.516q-.24.151-.443.329v.004a4 4 0 0 0-.368.364 4 4 0 0 0-.301.398 4 4 0 0 0-.229.409 4 4 0 0 0-.173.429 4.4 4.4 0 0 0-.156.666 4 4 0 0 0-.042.655l.014.336.042.346.059.371v.004l.072.402 1.407 7.18.053.273.273-.051 1.58-.309.274-.055-.055-.27-1.449-7.399a4.2 4.2 0 0 1-.076-1.151 2.5 2.5 0 0 1 .246-.914c.132-.26.312-.475.537-.635a2.2 2.2 0 0 1 .852-.349q.996-.194 1.661.387.341.299.574.753.24.468.364 1.094l1.449 7.396.052.274.273-.053 1.578-.308.273-.055-.051-.271z"/><path d="M95.303 34.931h.28l1.993.003h.17l.079-.156 4.321-8.58-.006 8.46v.28h2.096v-.28l.007-11.585v-.281l-.277.003-1.996-.003h-.17l-.076.152-4.325 8.522.007-8.4v-.277H95.59l-.281-.004v.281l-.006 11.588zm11.92.392.278.038 1.596.201.275.034.034-.273 1.46-11.495.034-.277-.278-.035-1.597-.201-.274-.038-.034.277-1.456 11.495zm4.668.482.374.107 1.691.475.194.055.115-.173 4.965-7.613.416 9.131.011.204.194.052 1.549.437.374.107-.021-.391-.718-12.236-.009-.202-.195-.051-1.549-.438-.19-.055-.115.167-6.868 10.105zm12.375 3.909.253.118 5.386 2.515.249.118.118-.253.533-1.143.118-.253-.253-.115-3.673-1.718 1.323-2.832 3.494 1.629.252.118.118-.253.534-1.143.118-.251-.253-.117-3.493-1.632 1.507-3.226 3.892 1.819.249.118.118-.254.537-1.143.115-.253-.25-.118-5.6-2.616-.253-.118-.118.254-4.903 10.499zm8.66 4.15.229.16 2.685 1.871q.436.303.815.503a4 4 0 0 0 .727.301 3.4 3.4 0 0 0 .662.128 3 3 0 0 0 .645-.004 3 3 0 0 0 .679-.149q.327-.113.613-.304a3.7 3.7 0 0 0 .517-.416 3.6 3.6 0 0 0 .88-1.4q.166-.489.121-1.016a3 3 0 0 0-.094-.529 3.3 3.3 0 0 0-.197-.538 3 3 0 0 0-.25-.443c.083.003.167.003.243-.007a1.8 1.8 0 0 0 .485-.125 3 3 0 0 0 .489-.256v-.004l4.127-2.79.336-.225-.332-.232-1.425-.995-.159-.111-.16.111-3.437 2.378a2.8 2.8 0 0 1-.548.291 1.3 1.3 0 0 1-.461.094 1.2 1.2 0 0 1-.475-.104 3.2 3.2 0 0 1-.623-.351l-.375-.259 2.842-4.076.156-.228-.225-.16-1.32-.918-.229-.159-.16.228-6.621 9.506zm4.719-2.983.791.551a3.3 3.3 0 0 1 .429.35 2.2 2.2 0 0 1 .496.707q.073.168.1.336c.027.168.028.222.021.333v.003a1.2 1.2 0 0 1-.052.315 1.6 1.6 0 0 1-.114.315 2 2 0 0 1-.167.289 1.8 1.8 0 0 1-.533.526 1.2 1.2 0 0 1-.593.17 1.9 1.9 0 0 1-.714-.122 3.3 3.3 0 0 1-.783-.416l-.821-.574zm9.488 11.162-.457-.118a4 4 0 0 1-.468-.159 5 5 0 0 1-.475-.236 5 5 0 0 1-.46-.294v-.004a5 5 0 0 1-.42-.349 2.4 2.4 0 0 1-.457-.58V50.3a1.5 1.5 0 0 1-.174-.589q-.024-.307.07-.568c.094-.261.166-.336.312-.489.051-.059.111-.111.169-.156s.115-.083.177-.114a1 1 0 0 1 .191-.07q.108-.031.259-.038a3 3 0 0 1 .337.004 4 4 0 0 1 .426.055 15 15 0 0 1 1.224.298l.772.191.707.11a5 5 0 0 0 .641.032 3.5 3.5 0 0 0 1.105-.197h-.003q.25-.086.472-.212c.142-.079.287-.177.422-.284a3.5 3.5 0 0 0 .388-.357c.17-.18.323-.371.451-.569a3.5 3.5 0 0 0 .322-.623 3.3 3.3 0 0 0 .187-.666 3.3 3.3 0 0 0 .035-.689 3.2 3.2 0 0 0-.118-.707 4.5 4.5 0 0 0-.274-.707 4.3 4.3 0 0 0-.44-.7 6 6 0 0 0-.613-.669l-.586-.509-.606-.433-.606-.347a5 5 0 0 0-.583-.246l-.17-.059-.125.132-1.036 1.098-.322.337.454.121.586.186h.003-.003.003l.6.251a4 4 0 0 1 .544.294c.16.1.301.215.426.333s.229.231.323.349h-.004a2 2 0 0 1 .225.347 1.75 1.75 0 0 1 .197.995c-.011.097-.034.201-.065.301s-.073.188-.122.271h-.003a1 1 0 0 1-.17.224c-.066.07-.135.14-.211.202a2 2 0 0 1-.208.163.8.8 0 0 1-.204.1 1.2 1.2 0 0 1-.257.066 3 3 0 0 1-.329.018l-.42-.032a8 8 0 0 1-1.15-.239l-.891-.215-.762-.132a6 6 0 0 0-.655-.051 4 4 0 0 0-.582.034 2.6 2.6 0 0 0-.984.34 3.4 3.4 0 0 0-.42.301 5 5 0 0 0-.409.388 3.3 3.3 0 0 0-.446.586 2.7 2.7 0 0 0-.281.638c-.059.218-.1.436-.111.654a2.8 2.8 0 0 0 .034.662q.06.324.173.642a4 4 0 0 0 .306.623 5 5 0 0 0 .409.589c.152.188.325.371.509.548l.496.43c.166.135.347.263.53.388l.52.315a4 4 0 0 0 .475.225l.176.074.131-.14.971-1.025zm.288 3.87.184.212 1.042 1.223.181.215.215-.184 8.815-7.516.212-.184-.181-.211-1.046-1.223-.18-.212-.212.18-8.815 7.516zm6.647 5.421-1.459-2.211-.156-.232-.232.152-1.05.697-.233.152.153.233 4.11 6.227.152.232.233-.153 1.053-.696.232-.153-.152-.232-1.459-2.211 8.383-5.534.235-.152-.155-.233-.884-1.341-.156-.235-.233.156zM35.429 71.505l3.459 5.225.277.416.212-.457.783-1.729.066-.142-.087-.128-2.53-3.816 4.491-.512.16-.018.065-.146.731-1.614.212-.469-.506.077-6.286.956-3.892-5.842-.277-.416-.207.453-.787 1.734-.062.138.082.131 2.905 4.347-5.13.567-.159.018-.062.142-.759 1.667-.208.46.503-.069zm9.045-5.185.142-.24.838-1.371.142-.24-.235-.145-9.897-6.019-.239-.146-.146.235-.834 1.376-.147.24.24.145 9.896 6.02zm3.06-4.671.169-.218 1.713-2.191.683-.973a6 6 0 0 0 .44-.876l-.004.002c.104-.266.187-.526.249-.769.059-.249.104-.489.125-.72l.024-.547a6 6 0 0 0-.041-.593 4.4 4.4 0 0 0-.124-.638 6 6 0 0 0-.22-.652 6 6 0 0 0-.325-.665h-.004a6 6 0 0 0-.436-.662 6 6 0 0 0-.571-.658 8 8 0 0 0-.725-.631 9 9 0 0 0-1.046-.704 7.6 7.6 0 0 0-1.096-.512 5.5 5.5 0 0 0-1.14-.281 5 5 0 0 0-1.167-.01c-.392.041-.791.134-1.185.28s-.787.336-1.182.579a7 7 0 0 0-1.172.915 11 11 0 0 0-1.14 1.265l-1.227 1.569-.169.222.218.17 9.135 7.129zm-6.806-8.057.423-.544c.413-.53.853-.936 1.313-1.209.447-.271.925-.42 1.425-.447h.003-.003.003a3.8 3.8 0 0 1 1.555.26c.542.204 1.096.53 1.664.97q.345.27.631.561v.004q.293.295.512.606a3.4 3.4 0 0 1 .59 1.317q.072.339.052.714a3.7 3.7 0 0 1-.128.773 4 4 0 0 1-.336.814 6 6 0 0 1-.576.87l-.422.544zm14.208-.548.193-.201 1.123-1.154.195-.201-.202-.194-8.313-8.067-.2-.194-.195.198-1.119 1.156-.194.198.197.194 8.317 8.071zm7.786-6.442-.055-.187-3.493-11.806-.115-.382-.318.236-1.356.995-.162.118.062.191.901 2.851-3.601 2.641-2.446-1.716-.166-.114-.16.118-1.296.952-.322.236.333.222 10.305 6.806.164.108.156-.115 1.413-1.04zm-3.95-6.158 1.494 4.724-4.094-2.818zm8.649 2.977.249-.124 1.789-.88.156-.077v-.17l.079-9.609 3.739 7.586.122.249.252-.121 1.376-.679.253-.125-.125-.25-5.121-10.392-.122-.25-.249.122-1.789.883-.155.077-.003.169-.104 9.554-3.712-7.534-.125-.249-.249.125-1.376.679-.253.121.125.249 5.121 10.393zm97.084 25.626-7.616-.811-.475-.051.19.44.731 1.673.067.152.162.015 5.323.488-3.261 4.245-.1.132.065.149.707 1.629.191.436.287-.381 4.592-6.131 4.394-1.912.253-.111-.111-.256-.641-1.473-.11-.257-.257.111zm-77.72-15.275v.853q.708.012.963.19c.255.178.253.34.253.655v3.539c0 .342-.073.564-.211.669s-.475.162-1.005.173v.8c.478.01.905.045 1.276.114s.703.171.994.305h.61v-5.6q0-.472.263-.655c.263-.183.509-.183 1.005-.19v-.853zm10.431 3.077a3.1 3.1 0 0 0-.839-.454 2.9 2.9 0 0 0-.915-.145q-1.085 0-1.771.665c-.686.665-.686 1.016-.686 1.719 0 .759.267 1.38.808 1.851.536.471 1.243.711 2.117.711q1.438-.001 2.222-.943c.784-.942.782-1.522.782-2.679q0-1.866-.862-2.901c-.862-1.035-1.387-1.032-2.426-1.032q-1.013 0-1.664.416c-.651.416-.651.613-.651 1.008 0 .25.069.443.211.589s.333.221.572.221q.56 0 .787-.82l.045-.149c.041-.153.103-.253.194-.309.083-.052.232-.08.436-.08q.766.002 1.203.62c.437.618.437.985.437 1.712m-.087 1.858q0 .705-.302 1.088c-.302.383-.482.388-.845.388q-.571 0-.884-.381c-.313-.381-.315-.613-.315-1.074q0-.673.302-1.064c.302-.391.478-.388.824-.388q.599-.001.908.367c.309.368.312.597.312 1.064m7.575-.949q.75-.218 1.109-.641c.359-.423.364-.652.364-1.102q0-1.04-.884-1.705c-.884-.665-1.362-.669-2.311-.669q-1.179 0-1.92.53c-.741.53-.748.797-.748 1.334q0 .413.236.659c.236.246.363.249.627.249q.342-.001.567-.236c.225-.235.229-.35.229-.578a.8.8 0 0 0-.045-.25l-.041-.17q0-.218.301-.374c.301-.156.454-.156.763-.156q.603-.002.932.339c.329.341.326.552.326.974 0 .447-.122.78-.367.988s-.635.316-1.162.316h-.221l-.146-.011v.97l.222-.017.135-.003q.622-.001.96.284c.338.285.336.46.336.814q.001.452-.253.69c-.254.238-.409.243-.724.243q-.395 0-.662-.167c-.267-.167-.27-.236-.27-.378 0-.038.027-.121.072-.249a.9.9 0 0 0 .073-.329.66.66 0 0 0-.222-.513.83.83 0 0 0-.568-.202c-.277 0-.492.077-.634.226-.149.152-.219.374-.219.662 0 .541.247.988.742 1.352s1.123.543 1.885.543c.78 0 1.418-.183 1.906-.55s.731-.842.731-1.425c0-.319-.093-.606-.287-.855s-.471-.451-.832-.593m3.944-3.986v.853q.708.012.96.19c.252.178.253.34.253.655v3.539q.001.512-.211.669c-.212.157-.472.162-1.002.173v.8c.478.01.904.045 1.275.114s.703.171.994.305h.607v-5.6q.002-.472.264-.655c.262-.183.509-.183 1.004-.19v-.853zm1.275 55.838 1.276 3.039 25.65.478-5.192-5.908h-3.506v.873l2.71.613 2.602 2.967-21.225-.478-1.455-1.965zM99.191 67.149h2.048l-6.401 7.287 1.318 1.137 7.703-8.424h3.617l-5.901 6.296c-5.083 5.42-1.805 12.039-1.794 12.06l1.514-.787c-.007-.017-2.568-5.447 1.531-10.053l7.115-7.516h2.467c-1.438 1.164-3.75 3.424-5.153 6.088-1.446 2.748-1.924 6.054.53 9.43l.042.051 8.882 10.082-12.552-.188-1.123-1.49-.748.357.991 2.321 17.028.482-11.117-12.655c-1.826-2.519-1.587-5.046-.547-7.242 1.767-3.74 5.992-6.706 9.072-9.464H98.72l-7.038 7.024v-.004l-7.007-7.02H66.139c2.8 2.869 6.938 5.922 8.615 9.464 1.036 2.196 1.275 4.723-.548 7.242l-11.12 12.655 17.029-.482.994-2.321-.752-.357-1.119 1.49-12.555.188 8.882-10.082.044-.055c2.454-3.372 1.976-6.678.527-9.426-1.4-2.664-3.714-4.924-5.149-6.088h2.464l7.117 7.516c4.096 4.606 1.539 10.036 1.529 10.053l1.514.787c.011-.021 3.289-6.64-1.792-12.06l-5.905-6.296h3.622l7.7 8.424 1.316-1.137-6.348-7.287H84.2l7.482 7.218zm38.163 49.1 5.299 6.052-3.691-.354-20.933-2.011c-10.344-1.933-14.045-15.659-26.365-15.452v1.865c11.609-.413 14.978 13.765 26.416 15.334l28.658 2.723-8.708-9.927h-4.966v.661zm-30.186-13.185 1.092 2.599 22.399.412-4.442-5.06h-3.102v.749l2.218.524 2.149 2.488-18.394-.412-1.147-1.626zm-2.381-5.649.915 2.162 19.576.368-3.971-4.516h-2.769v.666l1.85.471 1.837 2.114-15.785-.368-.925-1.212zM73.471 109.61l-1.278 3.039-25.65.478 5.19-5.908h3.511v.873l-2.713.613-2.599 2.967 21.221-.478 1.456-1.965zm-27.435 6.639-5.294 6.052 3.687-.354 20.934-2.011c10.347-1.933 13.989-15.659 26.308-15.452v1.865c-11.605-.413-14.921 13.765-26.357 15.334l-28.662 2.723 8.709-9.927h4.965l.004.661zm30.191-13.185-1.092 2.599-22.404.412 4.447-5.06h3.101v.749l-2.218.524-2.152 2.488 18.394-.412 1.147-1.626zm2.376-5.649-.911 2.162-19.575.368 3.967-4.516h2.769v.666l-1.85.471-1.833 2.114 15.781-.368.925-1.212zm43.487-22.071h27.05c1.057.007 1.019-1.796 0-1.792h-27.05a12 12 0 0 1 0 1.792"/><path d="M144.999 83.976c4.641-.066 7.762-2.086 9.222-5.187.637-1.356.956-2.852.959-4.346s-.319-2.991-.956-4.342c-1.459-3.098-4.432-5.222-9.225-5.181h-31.471c2.068 2.52 3.326 6.005 3.274 9.541-.062 4.123-1.136 6.944-3.885 9.515zm-28.003-17.288h28.471c3.739.01 5.86 1.33 7.003 3.867.527 1.175.791 2.492.791 3.819s-.264 2.647-.791 3.822c-1.143 2.54-3.285 3.929-7.003 4.016h-28.471c2.318-3.635 2.353-11.865.004-15.524z"/></g></svg>