<svg xmlns="http://www.w3.org/2000/svg" width="1000" height="1000"><style>.B{fill:#010544}.C{fill-rule:evenodd}</style><path fill="rgba(255,255,255,0)" d="M0 0h1000v1000H0z"/><g transform="translate(502.496 499.403)scale(26.8239)" clip-path="url(#A)"><clipPath id="A"><path d="M-14.893-18.505h204v37h-204z"/></clipPath><path d="M-14.386-18.505s-.496 3.335-.496 7.982c0 6.728 1.05 16.194 6.195 22.198 2.942 3.439 8.664 6.82 8.687 6.831.023-.011 5.734-3.38 8.687-6.831 5.146-6.004 6.195-15.47 6.195-22.198-.011-4.647-.507-7.982-.507-7.982z" fill="#fff"/></g><g transform="translate(507.297 491.678)scale(26.8239)" clip-path="url(#B)"><clipPath id="B"><path d="M-15.072-18.218h204v37h-204z"/></clipPath><path d="M-10.48-14.744c-.011.023-.057.057-.127.057s-.115-.011-.115-.069q-.017 0-.025-.003c-.01-.002-.019-.004-.056.003-.021.004-.07.02-.125.037a1 1 0 0 1-.21.055s.393-.207.485-.207c.067 0 .13.02.183.036q.045.014.083.022a2 2 0 0 0 .23.057c.012.012-.011.023-.057.023a.7.7 0 0 1-.266-.011m1.42 5.6c0-.08-.047-.16-.104-.23l-.047-.068-.057-.058-.012-.011q-.05-.053-.115-.104l.334.08zm4.89-5.566c-.833.619-2.341.735-3.151.797l-.505.054c-.358.092-.243.345-.243.345-.496 1.277-1.372.644-1.372.644-.67-.414-.554.023-.289.54-1.05-.126-.184-1.575.185-1.862.392-.3.83-1.128.83-1.128-.126.15-.507.414-1.534.207a.93.93 0 0 0-.761.184c-1.985-.172-1.477.69-1.477.69.208-.333.796-.183.796-.183 0 .126.058.184.138.218-.011.138-.046.31-.103.483-.038-.005-.095-.023-.152-.04-.065-.02-.129-.04-.16-.04-.077.011-.111.077-.148.148s-.073.14-.152.174c.012.034.092.092.173.103-.074.074-.07.196-.07.234l.001.008c0 .04.016.06.029.078q.016.016.017.037v.092l.031-.017c.036-.02.07-.038.096-.03a.3.3 0 0 0 .185-.034.32.32 0 0 0 .127-.16l.017.01q.009.004.017.012a.4.4 0 0 1 .06.092l.02.035c.013 0 .018-.021.026-.047a.2.2 0 0 1 .033-.08 1.2 1.2 0 0 0 .127-.241.2.2 0 0 0-.035-.173l-.062-.055-.042-.037a2.2 2.2 0 0 0 .115-.506s.012-.15.012-.23-.046-.103-.046-.103c.07-.058.127.057.127.057v.265c.104-.012.184-.035.184-.035s.635-.069.727.092.058.575-.507 1.587c-.612 1.127.046 2.209.957 2.68.312.219.946.794.865 1.541 0 0-1.165.242-1.211.76 0 0 .38-.265.704-.288.599-.046.922-.012 1.784.08h.004s-.473-.276-.98-.368c0 0-.232-.85.092-1.506.011 0 .023 0 .034-.012.392-.08 1.061.3 1.061.3l-.15-.403c.716.103 1.062.943 1.062.943-.023-.713-.496-1.426-1.038-2.025l.115.018.115.017c.196.011.381 0 .566-.023l-.254-.966.496.92c.496-.138.9-.437 1.223-.817l-.52-.517.658.356a5.2 5.2 0 0 0 .635-1.115l-.693-.3.762.116c.335-.84.45-1.576.45-1.576m1.765 21.289a.21.21 0 0 1-.162.08c-.08 0-.138-.023-.138-.08l-.028-.003a.13.13 0 0 0-.064.003c-.029.005-.117.033-.202.06l-.19.055s.472-.253.588-.253c.076 0 .144.02.207.04q.061.02.116.029l.277.069q.017.017-.07.034c-.08 0-.23 0-.334-.034m1.719 6.797c0-.092-.058-.195-.127-.288q0-.004-.002-.006l-.004-.005q-.005-.004-.006-.012a.2.2 0 0 0-.046-.057l-.069-.069-.012-.012-.138-.126.404.104zm5.93-6.751c-1.024.76-2.886.901-3.863.975a5 5 0 0 0-.579.06c-.427.115-.288.414-.288.414-.6 1.553-1.662.782-1.662.782-.819-.506-.669.034-.346.656-1.269-.161-.219-1.91.23-2.255C-.789 6.901-.258 5.9-.258 5.9c-.15.173-.612.495-1.858.23a1.13 1.13 0 0 0-.934.23c-2.4-.207-1.777.828-1.777.828.254-.402.97-.207.97-.207 0 .15.08.23.172.265-.023.172-.057.38-.138.586l-.109-.032c-.096-.03-.212-.068-.26-.06-.094.012-.134.088-.178.171s-.089.17-.192.209a.32.32 0 0 0 .208.127c-.087.097-.082.256-.08.283v.004c0 .049.02.076.037.098q.018.02.02.04 0 .025-.003.048c-.002.028-.004.052.003.067l.049-.021a.3.3 0 0 1 .113-.037.4.4 0 0 0 .219-.034.4.4 0 0 0 .161-.195.2.2 0 0 0 .035.023.6.6 0 0 1 .092.149c.012 0 .021-.028.032-.061s.02-.066.037-.088a2.4 2.4 0 0 0 .15-.3c.035-.115-.023-.195-.046-.207l-.037-.034a.4.4 0 0 1-.067-.07c.07-.183.116-.39.139-.609l.011-.276c0-.103-.057-.126-.057-.126.092-.07.161.069.161.069v.322c.127-.012.22-.046.22-.046s.772-.08.888.115.069.69-.612 1.932c-.75 1.357.046 2.657 1.154 3.232.37.276 1.142.955 1.05 1.875 0 0-1.42.287-1.477.92 0 0 .461-.31.854-.345.724-.068 1.115-.025 2.119.085l.061.007s-.577-.334-1.188-.449c0 0-.277-1.023.115-1.828.012 0 .023 0 .046-.012.473-.092 1.293.357 1.293.357l-.185-.484c.865.127 1.292 1.15 1.292 1.15-.023-.862-.6-1.725-1.257-2.45l.276.035c.243.023.473 0 .681-.023l-.3-1.184.6 1.115c.6-.172 1.085-.529 1.488-.989l-.634-.632.796.437a6 6 0 0 0 .773-1.346l-.83-.368.934.138c.346-1.012.473-1.91.473-1.91m.863-21.312c.07 0 .116-.034.127-.057a.8.8 0 0 0 .277.011c.046 0 .07-.023.058-.023-.005 0-.03-.007-.065-.016l-.166-.041-.082-.022a.6.6 0 0 0-.183-.036c-.092 0-.485.207-.485.207.015 0 .121-.032.209-.058l.114-.034c.037-.007.046-.005.056-.003l.025.003c0 .058.046.07.115.07m1.546 5.472v-.308l-.334-.08c.046.034.08.069.115.103l.012.012.024.021q.022.016.033.036a.1.1 0 0 1 .046.046.5.5 0 0 1 .104.17m1.781-4.696c.82-.068 2.291-.19 3.11-.799 0 0-.103.736-.438 1.576l-.761-.115.692.31a5.3 5.3 0 0 1-.634 1.105l-.658-.357.52.518c-.324.38-.728.678-1.224.816l-.496-.92.231.955c-.185.023-.37.034-.565.023l-.231-.035c.554.598 1.015 1.311 1.038 2.024 0 0-.346-.84-1.061-.943l.15.403s-.67-.38-1.061-.3c-.012.012-.024.012-.035.012-.323.656-.092 1.507-.092 1.507.507.092.98.368.98.368l-.208-.022c-.714-.077-1.03-.111-1.58-.058-.323.023-.704.287-.704.287.035-.518 1.212-.759 1.212-.759.08-.748-.554-1.311-.866-1.541-.91-.472-1.569-1.553-.957-2.669.565-1.023.6-1.426.508-1.587s-.727-.092-.727-.092-.081.023-.185.035v-.265s-.058-.115-.127-.057c0 0 .046.023.046.103l-.011.23a2.2 2.2 0 0 1-.115.506.4.4 0 0 0 .066.069l.026.023c.011.012.069.08.034.173a1.2 1.2 0 0 1-.127.241c-.017.023-.025.054-.032.08s-.014.047-.025.047a.4.4 0 0 0-.07-.127l-.017-.011-.017-.012a.32.32 0 0 1-.127.161.25.25 0 0 1-.173.035q-.03.002-.067.022-.03.016-.06.024c-.007-.007-.005-.023-.003-.045l.003-.047q-.002-.02-.017-.037a.12.12 0 0 1-.029-.078c0-.023 0-.161.07-.242a.3.3 0 0 1-.185-.103c.08-.029.117-.099.152-.166s.072-.133.148-.145a.6.6 0 0 1 .195.047l.116.034a2.2 2.2 0 0 0 .104-.483c-.08-.035-.139-.092-.139-.219 0 0-.588-.16-.796.173 0 0-.496-.851 1.477-.679 0 0 .323-.287.773-.195 1.027.207 1.407-.058 1.534-.196 0 0-.426.817-.83 1.116-.37.287-1.235 1.737-.185 1.863-.265-.518-.38-.955.289-.54 0 0 .876.632 1.372-.645 0 0-.115-.241.243-.333.084-.025.281-.042.546-.064" class="B C"/></g><g transform="translate(502.496 238.997)scale(26.8239)" clip-path="url(#C)"><clipPath id="C"><path d="M-14.893-8.798h204v37h-204z"/></clipPath><path d="M-.023-.011C-.011 0 0 .011.023.011c-.023 0-.034 0-.045-.022" class="B"/></g><g transform="translate(502.55 380.949)scale(26.8239)" clip-path="url(#D)"><clipPath id="D"><path d="M-14.894-14.09h204v37h-204z"/></clipPath><path d="m5.56.438.715-.07.012-.724-.727-.08-.058-.575.658-.253-.185-.725-.715.127c-.092-.322-.07-.23-.22-.53l.578-.414-.37-.644-.646.3c-.069-.104-.138-.242-.357-.45l.45-.551c-.046-.035-.473-.472-.52-.518l-.576.426c-.208-.196-.346-.276-.439-.368l.289-.621-.646-.38-.404.587c-.277-.184-.542-.23-.542-.23l.115-.702-.715-.184-.254.656s-.22-.046-.577-.07l-.069-.678-.738-.023-.07.713h-.08c-.312.023-.197-.011-.485.07l-.265-.668-.716.207.116.679s-.22.08-.52.23l-.45-.552-.61.356.276.633a4 4 0 0 0-.461.368l-.542-.449-.52.506.45.54c-.161.162-.115.127-.369.472l-.634-.299-.358.644.565.403c-.046.104-.173.31-.242.552l-.692-.104-.185.69c-.011 0 .658.254.658.254-.058.241-.046.46-.07.575l-.703.057v.76l.704.045c-.012.184.057.437.069.598l-.658.253.196.713.681-.115c-.035-.091.08.219.22.518l-.554.437.369.633.646-.276.346.448-.439.54.508.518.542-.437c.092.092.254.207.45.334l-.265.644c.127.069.519.31.6.023l.415-.575c.323.494.52.23.52.23l-.082-.046.704.184.23.08c.324.08.278.403.624.426l.07.701h.749l.08-.701c.335-.023.254 0 .566-.08l.254-.3.438-.046.254.046c.162-.046.265-.034.45-.126l.427.564.623-.369-.289-.632c.208-.138.381-.265.473-.357l.543.437.519-.517-.462-.552c.242-.242.162-.196.358-.46l.646.299.37-.644-.566-.414c.138-.288.127-.23.219-.553l.692.138.208-.713-.658-.253c0-.092.035-.345.058-.586M-.07 5.027c-1.2 0-2.307-.414-3.172-1.127h6.345A4.98 4.98 0 0 1-.07 5.027m3.484-1.392h-6.956A5 5 0 0 1-5.112.001 5.04 5.04 0 0 1-.07-5.025 5.03 5.03 0 0 1 4.972 0c.011 1.426-.6 2.714-1.558 3.634" class="B"/></g><g transform="translate(536.24 312.977)scale(26.8239)" clip-path="url(#E)"><clipPath id="E"><path d="M-16.15-11.556h204v37h-204z"/></clipPath><path d="m.924 1.36.38-.253L.093-.756s-.289-.035-.381.276L.923 1.36m-2.227-.173h.542l-.011-2.45s-.289-.218-.53 0z" class="B"/></g><g transform="translate(483.96 313.111)scale(26.8239)" clip-path="url(#F)"><clipPath id="F"><path d="M-14.202-11.561h204v37h-204z"/></clipPath><path d="M1.258 1.183h.45v-2.277s-.208-.207-.439.011c-.023.368-.012 2.266-.012 2.266M.518-.773C.322-.98.172-.876.161-.865c0 .012-.139.104-.139.104s-.738 0-.992.057l-.623.115c-.011 0 .035.012-.011.104l-.104.207s.634-.184.911-.207l.68-.023c0 .011-.715.08-.715.08l.081.08 1.038.012c.012.012.381-.08.231-.437m-.173.242c-.138.115-.161.057-.161.057 0-.011.069-.057.104-.092s0-.057-.047-.103C.195-.704.253-.715.253-.715c.057.011 0 0 .092.023s0 .16 0 .16" class="B"/></g><g transform="translate(457.03 381.539)scale(26.8239)" clip-path="url(#G)"><clipPath id="G"><path d="M-13.198-14.112h204v37h-204z"/></clipPath><path d="M-.242-2.392h1.776v-.46H-.242zm1.603-.058h-.023v-.345h.023zM-.242-1.345h1.776v-.46H-.242zm1.603-.058h-.023v-.356h.023zm-1.603-.459h1.776v-.46H-.242zm1.603-.058h-.023v-.345h.023zm-2.894 4.692.196.08L.059-.954l-.197-.07z" class="B"/></g><g transform="translate(501.771 412.708)scale(26.8239)" clip-path="url(#H)"><clipPath id="H"><path d="M-14.865-15.274h204v37h-204z"/></clipPath><path d="m-2.613 1.783-.889-.368a.23.23 0 0 1-.127.034c-.034 0-.057 0-.08-.011l-.197.483c.058.034.104.08.104.15l.923.379c.046-.035.104-.035.162-.012l.196-.494a.25.25 0 0 1-.093-.162M-1.69.667l.45-.276s.75-1.15-.566-1.576l.254-.885s.035-.138-.092-.173c-.127-.046-.173 0-.22.07l-.345.885-.37-.046s-.38-.023-.357-.449l-.035-.667h4.568l.116.138v1.162s-.773.172-.588.828c.173.69.357.77.519.863l.184.115zm.012.08s-.185-.046-.173.127v.253l.138.011s.012-.034.104-.034l3.426-.012s-.011-.011.058.023h.104V.828s.034-.092-.196-.092zm5.342-2.691v-.16l.242-.254H3.64a.26.26 0 0 0-.197-.092s-.196.012-.196.092c-1.396 0-1.453-.011-1.453-.011l.011 1.15s.727.023 1.58-.644l.012.011v.38a.18.18 0 0 0-.184.184v.437c0 .103.08.184.184.184v.253a.18.18 0 0 0-.184.184v.437a.18.18 0 0 0 .184.184h.116c.103 0 .173-.08.173-.184V-.23a.186.186 0 0 0-.173-.184v-.253c.092-.012.173-.08.173-.184v-.437a.186.186 0 0 0-.173-.184v-.322c.08 0 .15-.07.15-.15M3.57-.161v.31c0 .07-.046.127-.092.127h-.07c-.057 0-.091-.058-.091-.127v-.31c0-.057.034-.104.069-.127v.07c0 .011.011.023.011.023h.092c.012 0 .012-.012.012-.024v-.069c.046.023.07.081.07.127m0-1.058v.31c0 .058-.023.104-.057.115v-.08c0-.012-.012-.023-.012-.023H3.41c-.012 0-.012.011-.012.023v.092c-.046-.012-.069-.07-.069-.127v-.31c0-.058.035-.104.07-.127v.092l.103.012.012-.104c.034.023.057.07.057.127m-.982 2.404h-5.077v1.127h5.076z" class="B"/></g><g transform="translate(502.683 554.446)scale(26.8239)" clip-path="url(#I)"><clipPath id="I"><path d="M-14.9-20.558h204v37h-204z"/></clipPath><path d="M6.64-.166h.31l.45-.011V1.64s-1.418 1.023-3.31-.23S.86-.27.006 2.02l.013-.348-.025.348C-.859-.27-2.197.156-4.09 1.41s-3.31.23-3.31.23V-.177l.75.023v-.863l.842.633c.276.207.634.253.992.069.474-.252.863-.536 1.322-.872l.858-.612C-1.275-2.73-.109-.442-.109-.442v-.011h.207s1.165-2.29 2.527-1.358l.802.575 1.378.91c.358.195.704.137.992-.07l.842-.633z" class="B C"/></g><g transform="translate(494.636 550.905)scale(26.8239)" clip-path="url(#J)"><clipPath id="J"><path d="M-14.6-20.426h204v37h-204z"/></clipPath><path d="m-1.476-1.006.005.017.08.368c.024.161.07.265.15.334.07.069.162.092.254.104.104.011.197 0 .243-.058.057-.069.057-.173.046-.3L-.71-.609l-.011-.07c-.023-.103-.035-.206-.023-.23s.023-.022.057-.01h.023c.012-.012 0-.035-.011-.047-.023-.015-.057-.03-.09-.046l-.049-.023-.032-.017c-.049-.026-.113-.06-.14-.052 0 0 0 .023.01.046.012 0 .024 0 .036.012l.024.015c.025.015.048.028.056.054a1 1 0 0 1 .058.253l.011.08.012.08c.023.185-.011.323-.173.3-.196-.023-.242-.207-.265-.38l-.058-.333c-.023-.126-.011-.138.046-.138h.035c.011-.012 0-.046-.012-.046-.028-.014-.072-.015-.118-.017l-.09-.006a.7.7 0 0 0-.207-.012c-.012 0 0 .035.011.046s.024.012.035.012c.066.01.07.022.1.133m-.422.581a.26.26 0 0 0 .058.138c.023.023.046.023.138.012.116-.023.139-.046.196-.196 0-.011.046-.011.046 0 .024.058 0 .23-.011.242a.5.5 0 0 1-.096.011l-.192.023a1 1 0 0 0-.173.046q-.027.011-.059.028a.4.4 0 0 1-.15.053c-.01 0-.022-.035-.01-.046a.1.1 0 0 0 .022-.018q.008-.008.023-.017c.058-.034.058-.046.035-.184l-.09-.37-.037-.159c-.034-.127-.046-.127-.104-.104-.011.012-.023.012-.046.012-.011 0-.023-.035-.011-.046a1 1 0 0 1 .172-.07l.035-.01.064-.025c.05-.02.1-.041.132-.033.012 0 .024.035.012.046l-.035.012c-.057.023-.057.034-.023.16zm-1.086-.138c.035-.023.035-.023.047.012l.219.598c.046.138.046.15-.012.195-.023.023-.034.035-.057.046-.012.012 0 .046.011.046a.6.6 0 0 0 .143-.093q.043-.036.076-.056a1 1 0 0 1 .1-.059c.041-.022.083-.043.108-.068.011-.011 0-.046-.012-.046l-.029.012q-.012.003-.028.011c-.07.035-.081.023-.116-.103l-.153-.51-.031-.1q-.01-.023-.006-.032c.002-.008.01-.013.029-.025s.046-.023.08-.046c.1-.05.14-.006.178.037l.019.02s.046-.023.046-.034l-.012-.063a1 1 0 0 0-.034-.156c0-.011-.012-.011-.023 0l-.012.012a.7.7 0 0 1-.127.092l-.344.217-.175.116c-.09.05-.102.048-.111.047h-.004q-.008 0-.012.005t-.011.006q0 .007-.006.011-.005.004-.006.012c0 .023.012.16.035.218 0 0 .046-.011.046-.023q.009-.03.013-.063c.01-.062.022-.127.09-.178l.041-.03zm-.519.494c-.034-.115-.046-.115-.103-.092-.012.011-.024.011-.046.011-.012 0-.024-.034-.012-.034.027-.027.066-.046.102-.064l.071-.04.044-.035a.4.4 0 0 1 .117-.08c.012 0 .024.023.012.035l-.023.023c-.046.046-.046.046-.012.172l.066.196.096.299a1 1 0 0 1 .058.276c0 .127-.07.253-.243.345-.046.023-.115.046-.127.012a.2.2 0 0 1 .024-.08l.034-.035c.023-.012.046-.012.08-.012h.07c.035-.011.023-.069.012-.115a1.6 1.6 0 0 0-.07-.264l-.125-.435zm-.852 1.209a.5.5 0 0 0 .139-.196c.02-.04.044-.108.07-.18l.056-.154c.012-.023.012-.046.012-.057S-4.088.531-4.1.519l-.208-.195c-.034-.023-.057-.023-.104 0-.011.011-.011.011-.023.011s-.011-.034 0-.046a1 1 0 0 1 .174-.103l.072-.046c.047-.03.076-.05.1-.058.012 0 .024.023.012.035L-4.1.14c-.023.011-.035.034-.035.046s.012.023.023.034l.139.127c.016 0 .039-.093.058-.176l.023-.089c.008-.024.004-.031.002-.037l-.002-.009s-.012-.011-.023 0l-.035.012c-.012 0-.012-.035 0-.046a.2.2 0 0 1 .053-.03q.036-.013.074-.04.035-.021.062-.04.036-.028.065-.04c.011 0 .023.023.011.035l-.017.011-.017.012c-.02.01-.03.027-.047.052l-.011.017-.043.112-.084.221c-.011.023-.011.058-.011.058 0 .011.011.023.023.034q.19.155.276.242c.07.046.104.046.15.023.024-.012.024-.012.047-.012.011 0 .023.035.011.046-.024.019-.055.03-.096.046l-.135.058-.12.067a1 1 0 0 1-.11.06c-.012 0-.023-.024-.012-.047l.018-.011.017-.011C-3.812.842-3.8.83-3.8.819s-.012-.023-.058-.058a2 2 0 0 0-.173-.15c-.015 0-.047.111-.076.215l-.04.13c-.01.023-.01.035-.01.035 0 .011.01.011.045 0 .012-.012.024-.012.035-.012s.012.035 0 .047a.5.5 0 0 1-.098.05q-.046.019-.086.041l-.084.053-.043.028c-.012 0-.012-.023-.012-.035a.1.1 0 0 0 .034-.017q.005-.005.012-.006m6.54-1.484c.101.01.115 0 .169-.043l.004-.003c.011-.012.046 0 .046.023 0 .069-.07.195-.092.195-.013.006-.043-.001-.083-.011q-.05-.014-.113-.023c-.093-.012-.139-.012-.231-.012a.4.4 0 0 0-.162.023c-.011 0-.023-.011-.023-.023A1 1 0 0 1 1.787-.3c.05-.042.11-.096.168-.16.116-.114.22-.24.242-.414.012-.103-.046-.195-.161-.183-.092.011-.173.103-.23.172-.012.023-.059.011-.059 0 .023-.138.266-.299.416-.288a.24.24 0 0 1 .254.288c-.012.115-.07.196-.266.345l-.04.029-.04.029c-.07.057-.081.08-.081.092s0 .023.023.023l.091.012zm.588.32c.22.081.3-.114.323-.379.024-.241-.023-.54-.23-.61-.196-.068-.323.162-.358.403-.034.253.058.506.265.587m.142-.387c-.022.153-.05.36-.142.33s-.092-.31-.069-.46l.003-.015c.024-.143.07-.42.159-.387s.069.333.057.471zm.828.354c-.035.265-.127.448-.335.322s-.265-.38-.242-.633.115-.471.312-.368c.184.092.288.426.265.679m-.208-.1V-.16c.012-.15.012-.46-.08-.506s-.128.242-.139.391v.039c-.001.139-.003.382.08.445.104.056.127-.226.139-.365m.9-.084a.38.38 0 0 0-.404-.058c-.116.058-.208.207-.231.414-.023.253.058.483.242.61.162.115.312.069.335-.15.011-.16-.047-.368-.197-.471C4.135.07 4.055.07 4.043.093c-.011 0-.011.023 0 .035.012 0 .023 0 .035.011.092.07.115.288.104.403-.012.08-.047.16-.116.115-.08-.058-.104-.288-.08-.46.023-.15.069-.3.15-.357.058-.05.14-.04.217-.03l.082.007c.012 0 .012-.046 0-.057" fill="#fff" class="C"/></g></svg>