<svg xmlns="http://www.w3.org/2000/svg" width="88" height="88" fill="#c92b2f"><path d="m12.278 42.674-.064.614a7 7 0 0 0 .022.603l-.761.348-.939.453.769.51.865.561-.055.337a1.2 1.2 0 0 0 .03.34l-.044-.001-.876-.674-.367-.278-.368-.278-.367-.278-.164.09-.634.323-.619.318-.625.308-.641.296.027-.293.026-.295-.005-.301-.007-.293.754-.35 1.012-.488-.962-.667-.509-.304a1 1 0 0 1-.121-.079 1 1 0 0 0-.106-.067l.044-.306a2 2 0 0 0-.02-.349l.934.676 1.183.847 2.588-1.32zm-.782 6.344-.643.02-.698.029-.739.072-.683.071-.507.06-.501.063-.003-.273-.004-.269a6 6 0 0 0-.075-.607l2.53-.082.367-.026.48-.04.396-.034.926-.116-.003.561q.01.156.082.556zm.776 2.3a.5.5 0 0 1-.045-.13.55.55 0 0 1 .075-.368.48.48 0 0 1 .34-.213q.355-.062.517.192a.8.8 0 0 1 .101.271.51.51 0 0 1-.168.513.86.86 0 0 1-.359.149 1.4 1.4 0 0 1-.978-.172 1.16 1.16 0 0 1-.488-.592l.28-.049q.074.184.34.329a.54.54 0 0 0 .386.069zm-3.679 2.867 1.274.119 3.783.273.016.083.016.097.019.083a1 1 0 0 0 .049.113l.059.117-.093.086-3.712 3.098-.056.06-.061.022-.074-.286-.079-.285a5 5 0 0 0-.207-.535l1.191-.889-.106-.364-.108-.367-.278-.786-.101-.001-.709-.02a7 7 0 0 0-.672.014 1.6 1.6 0 0 0-.199-.614l.049-.016zm2.082.679.39 1.199 1.337-1.082-1.662-.115-.066-.003zm.246 5.554a2 2 0 0 0-.1-.254 1.5 1.5 0 0 0-.168-.27l1.424-.584 1.57-.735.496-.248.498-.248.291-.154a2 2 0 0 0 .095.295 2 2 0 0 0 .177.265l-.413 1.053-.417 1.089-.397 1.027-.382.94 2.053-1.001.379-.206.342-.194.12-.072.097.295a1 1 0 0 0 .085.142l.084.13-.353.149-.803.331-.321.145-.3.13-.323.146-.246.114-1.929.94a.2.2 0 0 0-.023-.071 1.4 1.4 0 0 0-.075-.176 1.6 1.6 0 0 0-.147-.255l1.284-3.137.378-1.009-.835.382-.572.28-1.559.81-.011-.045zm3.049 6.842q.383.326.827.027l.934-.678.491-.378.48-.37.368-.28.374-.285.266-.214.262-.213.326-.28.323-.281.318.476q.114.148.385.423l-.733.507-.666.507a2 2 0 0 0-.207.146l-.584.472-.653.524-.331.259q-.538.42-.94.466-.785.098-1.425-.552l.185-.278zm6.556.697-.486.422-.525.462-.529.521-.486.484-.357.367-.351.364-.172-.211-.173-.206a6 6 0 0 0-.441-.426l1.915-1.655.269-.251.348-.333.287-.276.648-.674.349.438a7 7 0 0 0 .413.381zm-1.431 3.949 1.124-.615 3.288-1.888q.029.023.061.06c.032.037.044.048.067.071l.063.057a.6.6 0 0 0 .104.067l.115.063-.029.126-1.345 4.643-.012.082-.041.052-.221-.195-.225-.194a5 5 0 0 0-.469-.327l.49-1.404-.292-.241-.296-.243-.67-.498-.083.055-.6.38-.55.387a1.7 1.7 0 0 0-.239-.228 1.6 1.6 0 0 0-.27-.169zm2.106-.6.993.775.505-1.644-1.442.834zm6.529 6.055q-.983.161-1.956-.423-1.017-.61-1.252-1.555-.243-.907.33-1.862.587-.978 1.649-1.159.987-.147 1.948.431.813.487 1.13 1.222.262.613.177 1.144a2.9 2.9 0 0 1-.38 1.044 2.5 2.5 0 0 1-.7.757 2.4 2.4 0 0 1-.945.401zm-.252-.795q.542-.324.986-1.061a2.8 2.8 0 0 0 .338-.861 1.6 1.6 0 0 0-.044-.868 1.22 1.22 0 0 0-.555-.662q-.387-.232-.782-.198c-.395.034-.498.099-.709.239q-.506.328-.985 1.125a2.6 2.6 0 0 0-.333.844 1.5 1.5 0 0 0 .057.829q.145.393.562.645.674.404 1.464-.034zm5.582-.524-.333.792-.329.79-.158.404-.162.415-.191.516-.191.517-.243-.117-.266-.123-.259-.09-.27-.09.205-.446.198-.441.917-2.153.31-.821-.57-.207-.645-.181a.9.9 0 0 0 .136-.252l.082-.231q0-.011.005-.042l.007-.044.473.213 1.148.488.659.266.486.175.52.187a1.2 1.2 0 0 0-.131.244 2 2 0 0 0-.098.325 8 8 0 0 0-1.094-.544l-.205.452zm5.703 4.703q-.87.488-1.985.273-1.162-.226-1.708-1.034-.54-.77-.326-1.863.217-1.118 1.153-1.652.877-.477 1.978-.263.931.18 1.479.764.456.486.558 1.013.113.534 0 1.112a2.5 2.5 0 0 1-.4.951q-.3.433-.749.7zm-.51-.662q.4-.487.563-1.334a2.8 2.8 0 0 0 .023-.925q-.065-.461-.337-.801c-.272-.34-.428-.368-.748-.43a1.27 1.27 0 0 0-.803.081 1.5 1.5 0 0 0-.584.466q-.363.482-.54 1.396-.092.467-.025.906a1.53 1.53 0 0 0 .337.761q.27.32.749.413.771.15 1.364-.533zm3.766 1.466a2 2 0 0 0-.27-.03 1.6 1.6 0 0 0-.318.02l.153-1.532.087-1.731.015-.554.014-.558.001-.327a2 2 0 0 0 .304.053q.092.003.318-.031l.735.859.765.879.72.833.651.779.053-1.511.026-.772-.004-.431-.011-.393-.005-.141q.223.051.306.053.069.002.164-.008l.154-.014-.034.381-.085.866-.022.349-.027.326-.023.353-.014.272-.075 2.146a.2.2 0 0 0-.074-.014 2 2 0 0 0-.191-.018q-.19-.006-.295.012l-2.168-2.607-.715-.809-.053.918-.022.636-.016 1.757-.045-.012zm9.057-4.384q-.595-.574-1.458-.406-.83.162-1.192.973-.264.629-.101 1.466.083.425.316.81c.233.385.348.445.574.569q.214.113.349.142a2.4 2.4 0 0 0 .4.046 2 2 0 0 0 .361-.027q.182-.034.447-.141a.7.7 0 0 0 .142-.056.3.3 0 0 0 .114-.07q.004-.006.004-.035c0-.029 0-.031.004-.033l-.099-.517-.248-1.041a4 4 0 0 0 .514-.068 4 4 0 0 0 .535-.135 11 11 0 0 0 .164 1.11l.168.754q-1 .495-1.706.634-.544.105-1.059.061a2.7 2.7 0 0 1-.948-.254 2.04 2.04 0 0 1-.73-.6 2.26 2.26 0 0 1-.407-.959 2.7 2.7 0 0 1 .001-1.118 2.2 2.2 0 0 1 .442-.907 2.6 2.6 0 0 1 .797-.649 3.8 3.8 0 0 1 1.064-.37 3.3 3.3 0 0 1 1.698.089l-.053.712zm7.418-2.547.121.317.123.317.132.356.132.356q.278.747.333 1.191c.055.444-.053.606-.266.929q-.331.522-1.072.821a3.2 3.2 0 0 1-.827.218 1.8 1.8 0 0 1-.79-.074 1.36 1.36 0 0 1-.651-.473 1.7 1.7 0 0 1-.195-.319 4 4 0 0 1-.198-.433l-.177-.423-.151-.359-.325-.805-.151-.36-.153-.361-.057-.132-.063-.139.546-.175q.158-.063.495-.246.017.05.049.16l.048.168.555 1.51.524 1.191q.175.258.296.382c.121.124.198.151.341.206q.401.157.84-.02c.439-.177.505-.274.633-.465s.194-.445.196-.761q-.007-.33-.427-1.367l-.828-1.903a2 2 0 0 0 .337-.091q.097-.038.311-.169a3 3 0 0 0 .056.196l.089.263.083.235.09.26zm3.875 2.047a2 2 0 0 0-.239.13 1.6 1.6 0 0 0-.248.199l-.753-1.342-.922-1.469-.305-.461-.308-.464-.187-.27a2 2 0 0 0 .28-.131 2 2 0 0 0 .242-.209l1.095.282 1.131.281 1.068.269.981.266-1.245-1.917-.251-.351-.233-.316-.086-.111.281-.132a1 1 0 0 0 .13-.101l.119-.101.19.334.427.756.184.3.164.282.184.303.145.231 1.169 1.801a.15.15 0 0 0-.068.031 1 1 0 0 0-.166.094q-.157.104-.235.179l-3.271-.892-1.049-.252.483.782.346.535.995 1.449-.044.016zm3.144-6.874.415.495.45.532.513.539.476.494.36.363.357.357-.213.169-.21.169-.433.432-1.622-1.942-.246-.274-.326-.353-.272-.292-.663-.659.445-.342q.115-.104.389-.407l.578.719zm5.668-.236-.115.098-.119.106a1.5 1.5 0 0 0-.187.246l-2.281-.934-2.417-.93.443-.413q.121-.13.379-.469l1.009.468 1.183.494 1.151.476-1.626-3.279.04-.026.025-.015.362-.415.697 1.548.769 1.67.686 1.376zm-1.649-5.544.319-.415.338-.452.461-.686.405-.608.412.3a.3.3 0 0 1 .076.04l-.97 1.237.584.423.308.222.307.221.858-1.314a1.6 1.6 0 0 0 .236.217q.076.054.24.117l-.749.977-.098.132-.102.139.719.505.708.495q.366-.52.838-1.356l.408.3a.2.2 0 0 1 .076.04l-.375.495-.37.497-.229.341-.222.338-.334.514-.157-.124-.151-.121-.509-.376-.531-.386-.42-.3-.424-.304-.659-.461-.456-.297-.46-.295-.078-.055zm5.419-3.009-.401.029q-.05.004-.063.03c-.013.026-.001.035.025.046l.551.258.551.257.171.083.672.267-.141.246-.135.244q-.038.08-.11.259l-.106.258-.108-.065-.15-.081-.12-.068-.127-.078a21 21 0 0 0-1.203-.622l-.562-.269-.565-.269-1.387-.631.225-.419.206-.445.209-.449q.361-.741.612-.936.578-.392 1.168-.104.44.214.603.611c.163.397.12.563.041.891.362-.019 1.119-.098 2.271-.246l.46-.044-.153.273-.15.273-.244.574-1.612.096zm-1.667-.517.486.237.443.228q.247-.506.139-.84c-.108-.334-.255-.409-.554-.555a2 2 0 0 0-.327-.124.7.7 0 0 0-.342-.01.5.5 0 0 0-.236.139 1.2 1.2 0 0 0-.179.261l-.162.308zm1.947-5.533q-.625.03-.801.574-.106.325.003.578c.109.253.206.28.389.34q.233.072.462-.071c.229-.143.353-.266.596-.506a7 7 0 0 1 .621-.552 1 1 0 0 1 .542-.22 1.4 1.4 0 0 1 .617.079 1.5 1.5 0 0 1 .566.348q.341.33.408.902.056.42-.115.941-.198.61-.615.967a6 6 0 0 0-.765-.458l.04-.123q.354.032.617-.151c.263-.183.3-.297.374-.525a.9.9 0 0 0 .005-.599.61.61 0 0 0-.411-.38q-.276-.09-.582.08a5 5 0 0 0-.651.6 4 4 0 0 1-.271.236l-.221.181a.9.9 0 0 1-.521.195 1.6 1.6 0 0 1-.61-.071 1.31 1.31 0 0 1-.865-.829 1.4 1.4 0 0 1-.105-.539 2 2 0 0 1 .113-.58q.183-.568.577-.894.019-.001.059-.035l.578.411-.033.101zm.821-3.158.622.168.675.177.728.147.674.131.503.091.498.087-.078.261-.075.258a6 6 0 0 0-.106.604l-2.442-.663-.36-.082-.469-.104-.389-.082-.921-.16.167-.536q.035-.151.084-.556zm.66-3.645.855.101.848.1.432.04.442.041.55.042.548.041-.045.267-.045.288a3 3 0 0 0-.014.274l-.014.285-.484-.074-.479-.068-2.322-.288-.876-.072-.042.604.006.671a1 1 0 0 0-.281-.061l-.244-.015a.2.2 0 0 1-.042.007l-.044.005.074-.514.153-1.239.074-.707.034-.514.037-.551a1.3 1.3 0 0 0 .272.059 2 2 0 0 0 .338.004 8 8 0 0 0-.221 1.2zm-.775-2.672a7 7 0 0 0-.064-.61l.297-.156.297-.151.636-.34.589-.307.218-.146q-.019.004-.142-.112a2 2 0 0 0-.216-.106q-.225-.117-.827-.377a7 7 0 0 0-.572-.232l-.201-.081-.154-.066q.006-.011.011-.037l.008-.038a1.3 1.3 0 0 0 .004-.224 2 2 0 0 0-.045-.346l1.247.638 1.415.698.794-.008q.333-.01 1.299-.121l-.008.296-.004.3.053.581a15 15 0 0 0-1.569-.022 6 6 0 0 0-.39.003l-.638.393-.663.387-.735.415-.662.383.02-.617z"/><path fill-rule="evenodd" d="M44 0c24.296 0 44 19.704 44 44S68.296 88 44 88 0 68.296 0 44 19.703 0 44 0m0 1.655c23.383 0 42.345 18.962 42.345 42.345S67.383 86.345 44 86.345 1.655 67.383 1.655 44 20.617 1.655 44 1.655"/><path d="M44 2.769c11.383 0 21.692 4.616 29.153 12.078S85.231 32.617 85.231 44s-4.616 21.692-12.078 29.153S55.383 85.231 44 85.231s-21.692-4.616-29.153-12.078S2.769 55.383 2.769 44s4.616-21.692 12.078-29.153S32.617 2.769 44 2.769m28.545 12.686C65.239 8.149 55.146 3.63 44 3.63S22.761 8.149 15.455 15.455 3.628 32.854 3.628 44s4.521 21.239 11.827 28.545S32.854 84.372 44 84.372s21.239-4.521 28.545-11.827S84.37 55.146 84.37 44s-4.519-21.239-11.825-28.545"/><g fill-rule="evenodd"><path d="m45.656 15.708.327 3.143a25 25 0 0 1 2.608.344l1.132-2.953a28 28 0 0 1 3.199.861l-.496 3.122a26 26 0 0 1 2.425 1.009l1.855-2.556q1.487.753 2.867 1.664l-1.288 2.886a26 26 0 0 1 2.078 1.599l2.453-1.989a29 29 0 0 1 2.346 2.346l-1.989 2.453a26 26 0 0 1 1.599 2.078l2.885-1.288a28 28 0 0 1 1.664 2.867l-2.556 1.855a26 26 0 0 1 1.011 2.425l3.122-.496a28 28 0 0 1 .861 3.199l-2.953 1.131a25 25 0 0 1 .344 2.609l3.143.327.049 1.656-.049 1.656-3.143.329q-.105 1.325-.344 2.608l2.953 1.131a28 28 0 0 1-.861 3.199l-3.124-.496a25 25 0 0 1-1.009 2.425l2.556 1.855a28 28 0 0 1-1.664 2.867l-2.885-1.288a26 26 0 0 1-1.6 2.078l1.99 2.453a29 29 0 0 1-2.346 2.346l-2.453-1.989a26 26 0 0 1-2.078 1.599l1.288 2.886a29 29 0 0 1-2.867 1.664l-1.855-2.556a25 25 0 0 1-2.425 1.009l.496 3.122a28 28 0 0 1-3.199.861l-1.132-2.953a25 25 0 0 1-2.608.344l-.327 3.143-1.656.049a28 28 0 0 1-1.657-.049l-.327-3.143a25 25 0 0 1-2.608-.344l-1.131 2.953a28 28 0 0 1-3.199-.861l.496-3.122a26 26 0 0 1-2.425-1.009l-1.855 2.556a29 29 0 0 1-2.867-1.664l1.288-2.886a26 26 0 0 1-2.079-1.599l-2.453 1.989a29 29 0 0 1-2.345-2.346l1.989-2.453a26 26 0 0 1-1.599-2.078l-2.886 1.288a28 28 0 0 1-1.664-2.867l2.556-1.855a25 25 0 0 1-1.009-2.425l-3.122.496a28 28 0 0 1-.862-3.199l2.953-1.131a25 25 0 0 1-.342-2.608l-3.143-.329-.05-1.656.05-1.656 3.143-.327a25 25 0 0 1 .342-2.609l-2.953-1.131a29 29 0 0 1 .862-3.199l3.122.496a26 26 0 0 1 1.009-2.425l-2.556-1.855a28 28 0 0 1 1.664-2.867l2.886 1.288a26 26 0 0 1 1.599-2.078l-1.989-2.453a28 28 0 0 1 2.345-2.346l2.453 1.989a26 26 0 0 1 2.077-1.599l-1.286-2.886a29 29 0 0 1 2.867-1.664l1.855 2.556a25 25 0 0 1 2.425-1.009l-.496-3.122a28 28 0 0 1 3.199-.861l1.131 2.953q1.284-.24 2.608-.344l.327-3.143 1.657-.05 1.656.049zM44 21.366c12.466 0 22.634 10.168 22.634 22.634S56.466 66.634 44 66.634 21.366 56.466 21.366 44 31.534 21.366 44 21.366M30.67 38.279h20.603l.473.6v5.205c-1.605.49-2.732.765-2.957 2.562-.181 1.884 1.037 3.064 2.153 4.343.39.447.915.79 1.297 1.285.008.012.018.01 0 .01-4.077-.035-11.659-.006-15.733.003-.173-.173 1.701-1.048 2-1.404.723-1.271 1.214-3.217.595-4.541-.085-.18-.532-.861-.703-1.019-.805-.527-1.603-1.127-2.521-1.457.056-.407.207-.865.312-1.244.327-1.19.533-1.603.865-2.796.176-.52-1.123-1.339-1.48-.293-.495 1.447-.958 2.409-1.484 3.939-.735-.153-.895-.239-1.671-.254-.151-.003-.566-.131-.704-.19-.366-.15-.572-.254-.734-.618-.031-.072-.113-.274-.115-.349-.019-1.2-.206-2.413-.196-3.783zm21.483.276h6.503l.015-.044c.044-.134.072-.15.209-.215.12-.056.423-.169.551-.171a3.2 3.2 0 0 1 .745.093c.112.031.164.254.236.337h1.28v.004c-.108.31-.125.338-.48.64-.096.081-.278.168-.439.24-.079.035-.116.019-.206.09-.005.004-.007.034-.008.07l-.001.588c.04.491-.263.918-.709 1.005v1.45l.304.026c.33.181.404.361.445.625.086.55.039 1.255.079 1.799a1.02 1.02 0 0 1-.576.923 1 1 0 0 1-.243.026v1.435c.288.015.492.075.633.371.21.446.176 1.863.072 2.405-.057.303-.286.487-.531.578a3.3 3.3 0 0 1-.854.027c-.233-.067-.383-.154-.481-.288-.387-.526-.342-2.391-.015-2.832a.56.56 0 0 1 .393-.236l.232-.022V46.04a1 1 0 0 1-.198-.018c-.235-.066-.383-.153-.482-.288a.9.9 0 0 1-.184-.566v-1.675c.089-.458.135-.64.555-.817l.301-.03v-1.555l-.03-.016c-.031-.019.011-.127-.019-.149a.2.2 0 0 0-.084-.022c-.016 0-.145-.02-.145-.019-.004.059.024.124-.023.166l-.029.02c-.093.04-.325.165-.606.512l-.086.057c-.85.556-1.758 1-2.582 1.308a6 6 0 0 1-.584.171l-2.339.535c-.318.074-.543.067-.618.072v-5.173zm7.703 9.38v.158c0 .276-.551.263-.551.014v-.157c-.07.006-.132-.009-.18-.004-.307.023-.364 1.996-.109 2.371.162.18 1.038.248 1.139-.096.135-.456.184-2.067-.102-2.274a2 2 0 0 0-.196-.012zm-.01-4.833v.054c-.033.244-.574.235-.548.014v-.053c-.091-.018-.247-.014-.269.015-.25.172-.16 1.428-.164 1.704-.003.151.014.574.079.648.053.057.192.104.36.128 0-.364.551-.423.551-.016.179-.019.301-.089.335-.209.048-.161.098-.371.085-.588l-.022-.906c-.02-.273.033-.61-.202-.779a2 2 0 0 0-.206-.012zm-23.732 9.465H52.35c.37.046.419.214.532.359v1.359l-.262.001c-.127.001-.299-.134-.426-.134l-15.581.033c-.086 0-.4.169-.486.169l-.402.001c-.007-.269-.168-1.788.389-1.788m-.66-16.713h8.007v1.998h-8.007zm7.051.224h.205v1.551h-.205zm-7.051-2.565h8.007v1.998h-8.007zm7.051.224h.205v1.55h-.205zm-7.051-2.565h8.007v1.997h-8.007zm7.051.224h.205v1.551h-.205zm3.866-4.592v11.012h-2.384V26.851c0-.516 2.163-.618 2.384-.046zm2.328.732v10.281h-1.982V27.578c0-.48 1.799-.577 1.982-.042"/><path d="m50.335 29.069 5.419 8.41-1.82 1.175-5.398-8.375c-.254-.393 1.348-1.537 1.798-1.209zm-23.584 31.21h34.326l-.443.627-.269.363-.068.09-.171.222H27.701l-.13-.169-.153-.202-.207-.281zm15.548-29.302c-.787 0-1.575-.03-2.363-.041h-2.228c-.192-.145-.3-.214-.361-.371-.014-.037-.024-.031.016-.034l3.278-.337c-2.094-.068-3.975.139-5.93.791-.417.097-.852.221-1.286.211.194-.572.473-.667.525-1.369 2.369-.495 4.634-.887 7.118-.728.874-1.391 3.264-.48 2.232 1.346-.327.383-.518.402-1.001.532m-.528-.552c.087-.162.303-.263.404-.435l.173-.024c-.057-.491-.082-.434-.255-.817.966.179.801.746.258 1.098-.248.161-.346.127-.58.179zM29.666 56.61l6.338-17.287.722.326s.06-.035-.124.558l-2.159 6.097-3.811 10.671-.964-.366z"/><path d="m30.763 56.698 1.503.599.019.172c.059.1.067.213.156.274.146.104.363.135.315.252l-.862 2.131c-.037.094-.244-.018-.431-.044-.086-.011-.151.033-.224.057l-.161.098-4.124-1.641-.019-.151c-.025-.057-.029-.156-.07-.194-.176-.168-.487-.139-.412-.326l.854-2.109c.04-.1.236-.011.427.018.086.012.173-.025.24-.031.05-.038.119-.106.169-.146l1.66.662.959.379zm2.554-2.149h21.948v5.158H33.317zm6.263.782h-.778q-.157.797-1.069.797v.719h.816v2.041h1.031V55.33zm3.088 2.877q-.565.075-.603-.409 0-.446.487-.446.446.019.467.446 0 .37-.351.409m-.135-1.419q-.429-.02-.447-.371.019-.367.466-.387.41.02.427.387-.019.351-.446.371m-.934.272q-.602.233-.582.777.04 1.05 1.536 1.089 1.438-.039 1.495-1.089 0-.565-.582-.817.466-.174.466-.719-.078-.912-1.36-.971-1.379.058-1.438.992-.02.505.465.738m4.51-.04q-.409-.018-.428-.467.02-.466.447-.484.428.038.466.446 0 .467-.486.505zm-1.38 1.012q.174.893 1.419.893 1.476-.039 1.535-1.769 0-1.826-1.631-1.826-1.38.04-1.419 1.244.098 1.068 1.185 1.127a1.3 1.3 0 0 0 .835-.251q0 .794-.543.795-.332 0-.428-.273l-.952.06zm5.13-.759q.427.02.447.465-.02.467-.467.487a.46.46 0 0 1-.466-.467q.019-.487.486-.486zm1.379-1.011q-.175-.933-1.417-.933-1.478.059-1.536 1.807 0 1.788 1.652 1.788 1.36-.039 1.398-1.206-.097-1.068-1.185-1.127a1.2 1.2 0 0 0-.816.252q-.019-.796.525-.816.33 0 .427.292l.952-.059zm7.864-48.38c-.568-.231-1.239-.4-1.629.116-.4.636-.591 1.225-.366 1.42.134.15.783.495 1.571.872l-.146.322-.401-.192c-1.035-.321-1.926.265-2.97 1.408-.672.312-1.663-.196-1.204-.773.558-.123.855-.338 1.018-.765.149-.758.213-1.51.637-1.761 1.529-.528 1.273-1.485.555-2.128-.614-.456-1.221-.521-1.12.061.191.572.529 1.254-.367 1.155l-2.517-.752C51.45 6.619 51 7.6 51.928 8.02c.505.196 1.074.226 1.521.296.632.053.587.66-.166.54l-1.821-.157c-.628-.035-.974.899.308 1.005.561.045 1.166-.091 1.739-.235.498-.005.559.386.215.636-.365.203-.861.237-1.432.241-.708-.038-1.275.143-1.209.872l-.57 1.518c-.349.921-.026 1.383.562 1.281l1.667.389c3.435.615 5.409 1.622 6.7 3.877.398.621 1.35.742 1.303-.127-.109-.402-.331-.772-.655-1.153.641-.945 1.181-1.972 1.491-2.986.452-1.446-.548-2.042-1.072-2.461l-.529-.252.16-.346 1.908.753c.475.106.651-.402.933-1.217.222-.648-.415-.978-1.431-1.511L59.1 7.884zm.496 4.017c-.191-.134-.278.016-.333.255-.029.213.42.465.641.529.281-.261-.089-.588-.308-.784m-1.873-.717c-.136.014-.301.012-.248.316.064.177.535.322.619.126.104-.262-.091-.392-.371-.442m1.229 2.177c-.027-.357.561-.14.827.097.147.147.445.4.383.593-.245.492-1.109-.075-1.21-.69m-2.097-1.226c-.158-.021-.296.078-.322.39.022.221.735.52 1.007.364.521-.375-.427-.7-.685-.754m1.49 2.258c-.392-.146-.84.263-.733.879.13.363.883.561 1.266.764.349.049.667-.462.608-.813-.173-.248-.735-.537-1.142-.829zm-2.866-.891c-.341.319-.214.611.115.915.255.2.644.303.978.214.265-.15.411-.629.295-.866-.161-.321-.955-.653-1.387-.263zm-1.585-.734c-.329-.048-.537.154-.554.479-.003.329.36.546.698.374.318-.252.392-.676-.145-.852zm-1.881-.934-.442 1.164c.068.359.567.34.659.102l.447-1.155c-.015-.424-.465-.465-.664-.111m6.749-3.12c-.345-.094-.501.243-.392.551.135.205 1.994.928 2.965 1.342.576-.076.333-.58-.19-.817zm-34.453 3.279c-1.603.548-1.484 2.119.396.971l3.178-1.805-.001.003c.255.112.376.338.404.578-1.509 1.254-3.255 3.094-3.744 6.249-.13.911 1.149 1.712 1.431.24.138-2.547 1.435-4.338 2.428-5.34.764-.581 1.825-1.249 3.368-1.042 1.805.057 2.755 1.082 4.128 2.069.72.281 1.446-.495.396-1.536-1.421-1.303-4.18-2.032-6.706-1.419 0 0-.239-.314-.084-.551H29.5c1.131-.476 2.244-.839 3.304-1.038 1.379-.098 1.616-1.39.016-1.335-1.147.001-3.963 2.414-4.514.878-.461-1.275-2.057-.96-1.003.602.78 1.114-1.63 1.672-2.993 2.476zM7.657 27.119c.076-.222.405-.878.606-.959.295-.1.64.05.246.644-.666 1.041-.055 1.941.25 1.008.213-1.153 1.014-1.551.858-.436-.145.641.052.986.307.659.142-.108.244-.707.475-.87.662-.32.656.707.149 1.535-.375.813-1.248.873-2.303.371-.929-.497-.827-1.14-.587-1.951zm8.76-1.884c-.05-1.536 1.372-.355 1.211.299a7.2 7.2 0 0 1-1.057 2.447c.43.558.629 1.218.387 1.904-.378.835-1.172.967-1.082.355.367-.902-.149-1.161-.626-.733-.334.338-.679 1.235-1.466 1.2-.979-.131-.108-1.065.183-1.453l.151-.123c-.173.091-.417.113-.791-.029-.672-.344-.304-1.368.123-2.238.468-.948.836-1.664 1.319-1.772 1.075-.011 1.145.855.829 1.608.301 1.237.955-.55.818-1.466zm-2.106 3.742.003-.003c.547.019 1.071-.817.554-.888l-.355.596c-.056.089-.117.199-.202.295m-.33-1.889c-.125.344-.278.7-.129.842.337.265.742-.43 1.015-1.17.18-1.114-.477-.589-.885.329zm-1.795 5.666c.939.874 1.356-.18.521-1.005-1.449-2.046-.423-3.868.401-5.47.945-1.578 2.35-3.173 4.199-2.759 1.569.355 1.618-1.284.282-1.303-2.009-.273-3.114.958-4.428 2.851l-.284-.187.719-1.188c.216-.591.378-1.352-.573-2.27-.588-.516-1.243-.881-1.81-.436-.488.54-.798 1.218-1.05 1.884q0 .113.03.168l-.199.113c-.155.127-.447.281-.479.633.056.28.183.412.11.777l-.457.619c-.291.368-.205.795.214.692.351-.155.542-.102.682.015l.117.458c.053.337.183.487.664.16.273-.078.753.132 1.035.532-1.101 2-1.397 4.039.304 5.717zm.551-7.069-.332.491-.252.394c-.701-.694.151-1.176.584-.885m-.332-1.113c-.226.258-.792.42-.934-.086.053-.709-.361-.872-.646-.315-.172.218-.577.076-.488-.402l.303-.825.454-.293c.393-.827 1.123-.993.843-.067-.217.531.022 1.191.416.713.383-.492.767-.37.615.135-.292.486-.411.795-.562 1.14zm66.125 1.322c1.39-.651.749-1.972-.786-1.361-.788.035-3.05-1.873-3.952-2.702-.649-.787-1.619-.274-.857.599 1.043 1.098 2.504 2.199 3.934 2.798.46.202.76.851.636 1.364-.229 1.465.106 4.2.355 5.049.179.656 1.368.813 1.099-.061-.52-1.851-.506-5.234-.43-5.684z"/><path d="M75.185 24.52c-.93-.265-1.596-.584-2.431-1.364-.677-.569-1.425-.157-.629.84.932.971 2.289 1.43 3.263 1.607.689-.023.667-.835-.203-1.083m2.054 3.677c-.299.919-.402 1.651-.218 2.779.097.877-.662 1.271-1.049.055-.288-1.315.087-2.697.48-3.605.401-.559 1.065-.09.787.772z"/><path d="M75.015 25.525c-.839 1.496.274 2.545 1.25 2.375l-.329 1.294c-.311-.401-.936-1.159-1.146.051-.072 1.45-.202 3.435-.741 4.324-.61.791-1.51.389-1.203-.514.428-1.419.881-2.765.861-4.452-.052-.541-.135-1.189-1.094-1.683l-3.428-1.461c-1.134-.54-.473-1.496.226-1.255a11.4 11.4 0 0 1 3.229 1.72c.99.731 1.022-.199 1.12-.817zm.562-1.049c-.109.119-.285.081-.514.008l-.048 1.041.525.057a1.16 1.16 0 0 0 .749-.625l-.712-.482zm1.905 2.526c-.235.12-.768.019-1.03.423l.735.934c.145-.218.147-.392.311-.483z"/></g></svg>