<svg xmlns="http://www.w3.org/2000/svg" width="35vw" viewBox="0 0 88 88" fill="#2c3563" fill-rule="evenodd"><path d="m11.262 34.425.961 2.446 2.408-1.05-1.047 2.408 2.443.961-2.443.961 1.047 2.405-2.408-1.047-.961 2.443-.957-2.443-2.412 1.047 1.05-2.408L6.5 39.19l2.443-.961-1.05-2.408 2.412 1.05zm65.604 0 .961 2.446 2.408-1.05-1.05 2.408 2.443.961-2.443.961 1.05 2.405-2.408-1.047-.961 2.443-.96-2.443-2.405 1.047 1.047-2.408-2.446-.957 2.446-.961-1.047-2.408 2.405 1.05zm-4.393-14.958a2.4 2.4 0 0 0-.045-.543c-.021-.18-.076-.301-.173-.356s-.183-.024-.249.09c-.031.09-.08.194-.159.304q-.059.154-.273.294l-.688.432c-.601.373-1.189.698-1.766.964a11 11 0 0 1-1.658.629 10 10 0 0 1-2.08.345l-1.106.086a.6.6 0 0 0-.183.021q-.117.046-.028.145.081.084.346.128a3 3 0 0 0 .556.048c.598.083 1.258.062 1.99-.072a10.7 10.7 0 0 0 1.945-.56 15.6 15.6 0 0 0 2.09-1.012l.746-.415a3 3 0 0 1 .425-.197.6.6 0 0 0 .124-.035l.079.211q.124.284.408.525l2.457 2.277q.58.518.736.553c.086.024.149 0 .176-.062q.069-.15-.055-.446a1.2 1.2 0 0 0-.425-.505l-1.513-1.171a19 19 0 0 1-1.621-1.648.08.08 0 0 0-.059-.031zM50.846 10.57a1 1 0 0 0 .107.021q.434.01 1.351.197a.5.5 0 0 0 .052.183c.1.29.263.356.48.187a.85.85 0 0 0 .335-.411l.463-1.247c.142-.377.332-.67.56-.885q.219-.167.1-.39a3.6 3.6 0 0 0-.47-.532.48.48 0 0 0-.37-.097 9 9 0 0 1-1.703-.017l-.038-.052a1.75 1.75 0 0 0-.525-.518q-.11-.072-.228.021-.062.058-.01.214a3.2 3.2 0 0 1 .007.871q-.011.352-.162.923-.52 1.971-.971 3.041a8.8 8.8 0 0 1-1.019 1.98 1.1 1.1 0 0 0-.228.574q-.006.467.083.674c.073.149.159.173.273.079.152-.086.29-.249.415-.498a9.4 9.4 0 0 0 .684-1.614l.646-2.121.169-.581zm1.455-.256c-.1-.086-.273-.135-.511-.135l-.819.003.276-.822 1.068.114c.187.003.249-.048.197-.159q-.07-.185-.359-.308-.253-.088-.75-.062-.012.01-.024.014l.411-1.026q.047.002.114-.007l.791.038q.473.02.608.162c.055.066.048.218-.031.449l-.646 1.807a.5.5 0 0 1-.117.183 1.3 1.3 0 0 0-.207-.252zm3.141 1.012a1.2 1.2 0 0 0 .228.062c.377.035.967.156 1.759.366l-1.437 4.696c-.066.211-.145.352-.225.432q-.093.052-.301-.073l-.591-.339q-.225-.15-.245-.031c.332.539.577.992.746 1.365.048.19.142.325.263.394q.105.082.235-.007c.135-.09.311-.238.525-.453q.25-.282.335-.677l1.762-6.758c.131-.484.283-.815.456-1.005.145-.121.183-.242.104-.363-.128-.2-.332-.411-.611-.625a.53.53 0 0 0-.411-.117 4.6 4.6 0 0 1-.85.111c-.232-.007-.57-.041-1.005-.1a1.7 1.7 0 0 0-.46-.487q-.058-.058-.131-.028-.094.025-.059.2a2.9 2.9 0 0 1-.028.988 15 15 0 0 1-.432 1.534 2 2 0 0 0-.083.771c.021.19.066.325.131.394q.167.134.307-.193l.017-.055zm1.938-.079c-.1-.118-.283-.18-.539-.197l-1.271-.121.062-.342.18-.615.066.021 1.261.2c.18.017.256-.028.218-.142-.052-.128-.162-.231-.342-.318q-.25-.11-.743-.114l-.373.048.325-1.043c.055.01.128.01.214.014l1.292.079q.274.027.294.173c.017.211-.003.463-.052.764l-.459 1.755-.131-.162zm-25.219 2.077c.266.242.833.705 1.707 1.375q1.438 1.077 2.419 1.624c.304.19.57.245.788.173l1.752-.736q.352-.135.321-.228-.02-.107-.47-.162l-1.216-.086q-.76-.026-1.247-.197-.66-.204-1.914-.916l-2.222-1.351-.076-.48q1.063-.576 2.868-1.303l.532-.197c.162-.066.259-.142.27-.232-.003-.114-.097-.207-.273-.273q-.477-.124-.791-.104a1 1 0 0 0-.501.169l-2.218 1.375-.259-.936-.204-.736a4.3 4.3 0 0 1-.18-1.24q.02-.174-.152-.245c-.214-.093-.511-.142-.885-.166-.221-.007-.397.038-.535.149q-.243.202.072.352c.352.173.581.397.674.677l.777 2.557-2.432 1.358q-.264.136.028.276.238.082.498.076a1.2 1.2 0 0 0 .473-.18c.456-.349.978-.681 1.551-1.002l.041.235c.169.833.201 1.589.08 2.274a4.5 4.5 0 0 1-.487 1.506q-.337.742-1.285 1.883c-.093.097-.152.166-.159.214-.028.066.038.086.197.048q.187-.062.815-.622c.297-.256.636-.667 1.005-1.227a4.3 4.3 0 0 0 .581-1.375c.131-.542.169-1.185.107-1.918l-.048-.411zm-18.544 9.232.567-.266a.6.6 0 0 0 .214-.142q.024-.044-.017-.128-.052-.089-.363-.121a.5.5 0 0 0-.301.066.5.5 0 0 0-.149.097l-.093-.435a1 1 0 0 1-.066-.37.17.17 0 0 0-.124-.149q-.084-.035-.359-.003c-.155.052-.27.107-.335.169q-.094.124.076.18a.36.36 0 0 1 .211.159c.128.232.232.477.321.733l-.079.052-.622.573q-.052.059.017.086a.19.19 0 0 0 .166-.014l.629-.342q.091.286.155.629-.004.099.028.145c.028.059.066.055.104-.007q.047-.072.048-.332a5 5 0 0 0-.028-.581zm1.555.891.619-.235a.43.43 0 0 0 .228-.135q.026-.042-.01-.124-.037-.109-.349-.138a.48.48 0 0 0-.308.031.8.8 0 0 0-.283.155.5.5 0 0 1-.055-.173 1.2 1.2 0 0 1-.076-.366q-.025-.108-.114-.128c-.052-.024-.166-.017-.339.01-.142.038-.238.097-.29.169q-.078.1.072.162a.32.32 0 0 1 .218.145l.232.446a6 6 0 0 0-.601.459q-.032.038.024.086.076.046.173.003l.536-.242q.001.02.017.045a8 8 0 0 1 .256.909q-.001.099.035.135.046.068.097-.014c.028-.052.038-.148.024-.301a3 3 0 0 0-.052-.629 2 2 0 0 1-.052-.273zm-.553 3.856q.411-.155.542-.539.28-.955.663-1.893l1.227-2.657q.472-.983.663-1.185.198-.11.266-.055.048.015.138.155l.377.591q.094.159.173.121.083-.048.09-.294.022-.766.211-1.289c.09-.29.107-.453.041-.48q-.109-.053-1.151.328a.73.73 0 0 0-.432.37l-.442.992q-1.405-1.393-1.769-2.18-.031-.16-.166-.2-.197-.032-.819.325a.52.52 0 0 0-.225.27l-.508 1.237q-.124.203.048.207.172-.042.349-.166a.63.63 0 0 0 .235-.363l.2-.546c.017-.045.041-.069.059-.076.083-.038.2-.004.352.114a6 6 0 0 1 .401.387c-.072.01-.149.059-.228.138-.107.114-.218.311-.321.598l-.128.473c-.048.093.01.121.183.079q.067-.015.138-.135l.556-.96.501.511a.6.6 0 0 0-.169.138c-.107.121-.197.321-.287.608l-.104.501c-.035.104.028.128.18.062.045-.007.086-.059.131-.145l.466-.933.653.688a4 4 0 0 0-.228.498l-1.396 3.054a.15.15 0 0 0-.028.083l-.995-.363.007-.003.39-.95q.079-.226-.086-.214-.174.042-.349.235-.13.196-.225.636-.013.119-.007.197l-.397-.155a1.6 1.6 0 0 1-.276-.114l.356-1.082c.048-.145.024-.211-.086-.197q-.16.032-.311.228c-.09.128-.149.328-.187.598l-.035.339-.29-.145a.35.35 0 0 0-.218-.066l-.017-.47-.017-.401a1.3 1.3 0 0 1-.024-.463c.021-.142-.038-.214-.169-.218q-.2.021-.442.176-.227.139-.252.252c-.038.076-.01.117.076.135.107.031.19.124.256.27.083.114.152.249.211.39l.155.384a1.4 1.4 0 0 0-.466.383c-.076.08-.104.155-.083.235s.09.114.214.1a4.3 4.3 0 0 1 .943.041c.29.062 1.002.283 2.128.663l-.459.919q-.024.038-.017.076-.014.005-.048-.017-.295-.036-.456.041c-.159.055-.162.145 0 .259a1 1 0 0 1 .155.079.74.74 0 0 1 .27.311 5 5 0 0 1 .276.76q.052.162.283.245c.207.09.38.135.529.135q.348.024.193-.346-.135-.298-.435-.639l-.539-.677zm4.637-2.17c.377-.733.874-1.579 1.482-2.536l.373-.584q.145-.216.083-.328c-.062-.104-.187-.124-.366-.062a4 4 0 0 0-.681.352 1 1 0 0 0-.304.435l-1.061 2.595-.114-.028a1 1 0 0 0-.401.034l-.059-.992c-.031-.377-.014-.667.059-.878.035-.159-.003-.256-.135-.283q-.185-.069-.978.346a.6.6 0 0 0-.283.39l-.535 1.904q-.084.31-.505.878-.15.224.093.276a.84.84 0 0 0 .408-.1q.385-.201.397-.656l.428-1.748a.35.35 0 0 1 .19-.232.16.16 0 0 1 .245.062l.48 1.116a1 1 0 0 0-.27.183q-.209.177-.2.328-.009.18.221.117a1.5 1.5 0 0 1 .674-.111l-1.762 3.718q-.13.237.176.194a1 1 0 0 0 .439-.225.86.86 0 0 0 .273-.401c.263-.86.618-1.734 1.068-2.633l.256-.536a5 5 0 0 1 .926.494c.311.214.535.432.663.646.121.2.086.411-.097.636l-.491.57q-.113.104.045.114.097.002.349-.121.618-.233.971-.218.256.009.325-.18c.052-.093.031-.297-.052-.608q-.099-.423-.466-.795c-.29-.301-.688-.58-1.185-.833a7 7 0 0 0-.681-.304zm50.152-1.406a2 2 0 0 0 .173.218l1.544 1.631c-.097.18-.128.294-.079.339q.092.11.439.038.294-.033.432-.169c.29-.27.677-.58 1.171-.947a.9.9 0 0 1 .48-.183q.214-.023.235-.149c.017-.266-.024-.577-.114-.933q-.062-.152-.28-.314a5.5 5.5 0 0 1-.957-.615l-.432-.377.1.01.456.059a2 2 0 0 1 .269.048q.155.063.2-.038.035-.07.066-.169l.784.712.905.898q.063.103.225.097.103-.063.052-.328a1.3 1.3 0 0 0-.069-.256.6.6 0 0 0-.242-.328l-1.019-.822a12 12 0 0 1-1.095-.988l-.726-.732q-.214-.211-.225.086l.021.335q.031.176.228.311l.764.667q-.272.077-.729.159a.4.4 0 0 0-.2.038 1 1 0 0 0-.093-.1 1.4 1.4 0 0 0-.086-.401c-.031-.052-.069-.072-.128-.069q-.047.02-.09.117l-.142.232a1 1 0 0 1-.214.211 7 7 0 0 1-.781.643c-.18.131-.39.249-.615.345a.74.74 0 0 0-.332.225c-.114.162-.18.297-.194.397-.024.093.01.142.114.142a.8.8 0 0 0 .183-.038zm1.942 1.465c-.083-.156-.235-.328-.463-.529L69.688 23.6a3 3 0 0 0 .425-.256l.117-.09a.5.5 0 0 0 .138.214l1.123 1.043c.111.107.187.111.218.01q.048-.17-.079-.394-.114-.202-.466-.459l-.774-.539.301-.238.183-.142a.5.5 0 0 0 .138.197l1.092.964q.176.152.228.004a.5.5 0 0 0-.086-.387q-.135-.186-.487-.446l-.715-.463q.348-.276.504-.349l.107.114.76.643c.477.37.719.639.733.798-.048.104-.187.256-.415.466l-1.303.971q-.016-.004-.059.017c.003-.01-.007-.041-.021-.086m-3.362 1.126a4.4 4.4 0 0 1-1.082-.325 9.3 9.3 0 0 1-1.558-1.012q-.105-.117-.128.052.01.088.352.487c.301.328.694.629 1.195.902q.574.326 1.206.428l-.01 2.097q-.01.395.29.722a6.7 6.7 0 0 0 1.254 1.13q.17.14.225.114c.048-.031.048-.1 0-.218l-.608-1.399a8 8 0 0 1-.494-1.627l-.145-.788q.555-.012 1.275-.131c.218-.042.432-.031.629.028.176.055.283.021.315-.111q.05-.187-.035-.567c-.045-.176-.166-.325-.356-.439a6 6 0 0 1-.594-.422l-.498-.463a.4.4 0 0 0 .09-.18.9.9 0 0 0 .021-.38.7.7 0 0 0-.107-.314c-.034-.045-.09-.038-.155.014a1 1 0 0 1-.318.155 3.7 3.7 0 0 1-.95.041 4.3 4.3 0 0 1-.968-.142q-.466-.108-1.434-.466-.077-.045-.055.045c.024.048.107.114.231.197a4.4 4.4 0 0 0 .622.401q.424.234 1.019.39l.874.162a.1.1 0 0 0-.007.048l-.097 1.569zm1.272-.96.546.397c.069.142.021.235-.131.283a3.8 3.8 0 0 1-1.258.283 4 4 0 0 1-.038-.612l-.024-.974a1.8 1.8 0 0 1 .439.059q.124.279.467.563z"/><path d="m73.657 66.148-4.979-3.624.916-1.265 2.443.885.829.314.881.37-.805-.473-.881-.605-1.845-1.344.791-1.095 4.982 3.624-.885 1.22-2.612-.912-.833-.314-.867-.387 1.106.691.94.643 1.614 1.175-.795 1.099zm4.367-13.935.238-1.361.494.09c.204.035.359.024.473-.031s.183-.159.211-.307q.035-.207-.079-.356c-.114-.149-.187-.159-.332-.187a.73.73 0 0 0-.404.048 1.4 1.4 0 0 0-.435.287 6 6 0 0 0-.297.27l-.947.784a1.7 1.7 0 0 1-.625.259 2 2 0 0 1-.722-.003c-.508-.093-.871-.318-1.102-.681s-.294-.826-.194-1.386.297-.961.605-1.199.719-.311 1.237-.221l.498.086-.228 1.299-.418-.072q-.29-.051-.446.028c-.156.079-.169.156-.193.304a.36.36 0 0 0 .072.311q.1.134.304.169.337.059 1.237-.712l.041-.031.1-.09q.805-.678 1.116-.784a1.8 1.8 0 0 1 .453-.079 2 2 0 0 1 .504.031q.782.138 1.133.701c.351.563.301.86.197 1.444-.1.577-.325.995-.674 1.244s-.802.325-1.361.225zm1.147 3.676-5.856-1.904.432-1.323 5.853 1.904-.428 1.323zm-4.081 4.264.56-1.265.456.204q.29.13.47.086.182-.037.276-.245a.45.45 0 0 0 .01-.366.52.52 0 0 0-.276-.263.74.74 0 0 0-.404-.048 1.5 1.5 0 0 0-.494.173l-.356.187-1.102.532a1.6 1.6 0 0 1-.667.1 2 2 0 0 1-.701-.18c-.47-.207-.774-.518-.909-.923q-.203-.615.149-1.396.343-.778.878-1.012c.535-.234.774-.131 1.251.083l.463.207-.536 1.202-.387-.169q-.273-.125-.442-.083c-.169.042-.197.107-.259.245a.37.37 0 0 0-.007.321.47.47 0 0 0 .256.238q.317.139 1.375-.39l.045-.021.121-.062q.938-.462 1.275-.491a1.8 1.8 0 0 1 .456.031c.159.031.314.083.477.156q.73.321.936.954c.206.633.083.905-.159 1.448s-.556.888-.954 1.043-.857.121-1.379-.111l-.422-.187zm-4.81 9.93-4.426-4.284 2.163-2.242.857.826-1.195 1.244.878.85 1.057-1.095.843.815-1.054 1.099.992.957 1.234-1.282.853.833-2.201 2.28zm-2.609 2.363-4.118-4.582 1.033-.933 4.119 4.578zm-6.264-1.109 1.669 2.481q.17.248.328.304c.158.056.221.014.346-.069s.187-.183.19-.294-.045-.252-.155-.418l-1.672-2.481q-.166-.248-.332-.304c-.166-.056-.221-.014-.346.069s-.183.18-.19.294.052.252.162.418m-1.043.978c-.349-.525-.487-1.002-.411-1.441s.37-.826.874-1.164.974-.47 1.403-.377.822.401 1.175.926l1.413 2.101q.536.792.418 1.444-.11.65-.867 1.168-.752.509-1.406.37c-.654-.139-.829-.404-1.182-.926zm-4.426 6.755-2.356-5.694 1.976-.819 1.009 1.697.377.681.394.788-.294-.912-.18-.618-.477-1.98 1.966-.815 2.356 5.694-1.234.515-.864-2.084-.549-1.351-.563-1.437.318 1.323.162.684.743 3.175-.809.335-1.662-2.643-.622-1.019-.508-.871.581 1.303.605 1.434.867 2.104zm-6.057 1.306.18-6.268 1.849-.287 2.052 5.919-1.465.228-.308-1.075-.95.145.031 1.12zm1.348-2.464.66-.104-.498-1.824-.107-.397-.159-.636.028.518.021.553zm-8.455.833 1.372.073-.024.498q-.02.31.086.47c.106.16.176.162.328.169a.44.44 0 0 0 .346-.121.53.53 0 0 0 .145-.356.74.74 0 0 0-.097-.39 1.6 1.6 0 0 0-.339-.404l-.301-.263-.895-.84c-.152-.173-.259-.37-.332-.591s-.097-.463-.083-.719c.028-.518.207-.909.536-1.182s.784-.39 1.351-.363.988.183 1.261.46.397.677.37 1.199l-.024.508-1.316-.069.024-.425q.016-.295-.086-.439-.094-.144-.318-.159a.38.38 0 0 0-.304.111c-.083.079-.121.186-.128.325q-.02.344.857 1.144l.031.035.104.093c.511.477.815.812.909 1.016q.098.202.138.439a2.2 2.2 0 0 1 .028.501q-.04.797-.556 1.216c-.516.419-.812.404-1.403.37q-.88-.042-1.316-.518c-.436-.476-.418-.757-.387-1.327l.024-.46zm-5.601 1.676 1.645-6.047 1.862.156.608 6.237-1.479-.124-.048-1.113-.957-.083-.228 1.095zm1.886-2.073.667.055-.059-1.893-.007-.408-.003-.657-.093.511-.111.542zm-5.487 1.171 1.026-4.868-.888-.19.249-1.164 3.134.667-.245 1.168-.888-.19-1.03 4.865-1.358-.287zm-4.195-1.51 2.343-5.701 1.289.532-2.346 5.698-1.285-.529zm-3.929-4.506 1.168.729-.263.425c-.114.176-.159.328-.152.453s.076.228.207.311q.176.11.359.059c.183-.051.218-.114.297-.238q.104-.167.104-.39c0-.223-.035-.325-.1-.515l-.135-.38-.373-1.168a1.55 1.55 0 0 1-.007-.677 2.2 2.2 0 0 1 .273-.674q.41-.653 1.043-.767c.633-.114.871.034 1.358.335.48.304.77.643.878 1.019s.021.781-.259 1.227l-.266.432-1.116-.698.221-.363c.111-.166.155-.308.145-.425s-.079-.214-.207-.294q-.157-.099-.318-.052c-.161.047-.197.104-.27.221-.121.194-.059.667.197 1.417l.01.048.045.128c.221.667.321 1.113.308 1.334a2 2 0 0 1-.09.449 2.4 2.4 0 0 1-.221.453q-.418.678-1.075.791c-.657.113-.905-.038-1.41-.356q-.748-.468-.898-1.092c-.15-.624 0-.867.304-1.351l.242-.39zm-2.329-3.469q.367.284.57.294c.203.01.263-.062.387-.218l.221-.269c.128-.159.18-.304.148-.428s-.159-.283-.384-.46l-.038-.034zm-3.379 1.994 3.87-4.792 1.548 1.258q.6.489.698.988c.098.499-.045.67-.321 1.012l-.038.045-.218.276q-.305.373-.618.477c-.204.066-.449.059-.719-.035.155.235.225.46.2.677s-.138.453-.346.712l-.895 1.109q-.157.192-.225.328a.6.6 0 0 0-.083.263l-1.095-.888a.8.8 0 0 1 .104-.245q.079-.134.266-.366l.746-.922q.314-.393.287-.605c-.027-.212-.152-.318-.397-.522l-1.7 2.101zm-3.718-3.725 4.464-4.243 2.142 2.26-.86.822-1.185-1.254-.888.843 1.047 1.106-.853.812-1.043-1.106-.999.95 1.22 1.289-.86.822-2.184-2.301zm-2.913-3.991 4.551-4.26.822 1.216-1.959 1.614-.601.47-1.054.808 1.61-.884.235-.124 2.232-1.192.805 1.192-5.66 2.623-.981-1.462zm-2.263-3.922 5.532-2.702.612 1.254-5.532 2.702zm-2.225-5.594 5.815-2.014.511 1.479-2.121 1.499-.729.501-.812.511.847-.39 1.002-.377 2.156-.746.442 1.279-5.815 2.014-.494-1.423 2.242-1.624.732-.505.819-.491-1.202.515-1.061.401-1.89.653zm5.062-5.224-4.544.515q-.3.031-.425.145c-.076.072-.111.183-.093.325q.024.224.173.308c.149.084.245.076.439.052l4.544-.511.155 1.389-4.315.484c-.629.069-1.119-.024-1.468-.294s-.56-.698-.629-1.303q-.1-.892.328-1.396c.428-.504.739-.542 1.368-.615l4.312-.484.155 1.386zM44.002 0C68.236 0 88 19.764 88 43.998S68.236 88 44.002 88 0 68.236 0 43.998 19.764 0 44.002 0m0 3.79c22.144 0 40.208 18.064 40.208 40.208S66.146 84.21 44.002 84.21 3.79 66.146 3.79 43.998 21.854 3.79 44.002 3.79m0 .891c21.654 0 39.316 17.663 39.316 39.317S65.655 83.315 44.002 83.315 4.685 65.655 4.685 43.998 22.345 4.682 44.002 4.682zm0 12.048c15.02 0 27.268 12.252 27.268 27.268 0 15.023-12.249 27.268-27.268 27.268S16.73 59.021 16.73 43.998c0-15.016 12.249-27.268 27.272-27.268zm0 .77c14.595 0 26.498 11.906 26.498 26.498S58.596 70.496 44.002 70.496 17.501 58.593 17.501 43.998 29.404 17.5 44.002 17.5zm0-15.493c23.126 0 41.991 18.865 41.991 41.991S67.127 85.993 44.002 85.993 2.007 67.127 2.007 43.998 20.873 2.007 44.002 2.007z"/><path d="M48.815 34.196h1.365v-1.268h.684v1.268h1.365v-1.268h.719v1.931h-5.394v-1.064h.511v-.867h.75zm-4.685 3.103c.245.017.487.066.708.145l.283-.77a3.7 3.7 0 0 0-.929-.183h-.062zm1.023.276q.307.152.567.377l.598-.598a3.6 3.6 0 0 0-.881-.556zm.809.611c.104.114.2.235.28.366l.874-.235a3.5 3.5 0 0 0-.553-.732zm.453.674c.079.173.145.359.19.549h.833v-.415h-.017a3 3 0 0 0-.145-.366zm-.066.743h-.024a2.3 2.3 0 0 0-.218-.66h-.003l-.024-.059a2.5 2.5 0 0 0-.515-.657l-.073-.052.007-.007a2.4 2.4 0 0 0-1.548-.563 2.41 2.41 0 0 0-2.374 1.997h-.024v3.749h4.796zm-5.051-.194a2.7 2.7 0 0 1 .187-.542l-.864-.232-.142.359h-.014v.169h-.003v.245h.836zm.356-.85c.083-.124.169-.245.266-.356l-.601-.601c-.207.218-.39.463-.539.726zm.511-.594q.25-.22.553-.377l-.28-.777a3.8 3.8 0 0 0-.871.556zm.867-.511a2.6 2.6 0 0 1 .757-.155v-.809h-.083a3.5 3.5 0 0 0-.954.194zm2.512-.964a4.05 4.05 0 0 1 1.52 1.168V36.49zm1.838 1.634c.128.221.242.456.325.701h.764v-.702h-1.088zm-7.19.701q.133-.368.328-.702h-1.082v.702zm.625-1.14a4 4 0 0 1 1.541-1.195h-1.541zm5.87 2.712h.75v-.646h-.75zm0 .985h.75v-.646h-.75zm0 .985h.75v-.646h-.75zm0 .985h.75v-.646h-.75zm-5.477-3.6h-.75v.373h.003v.269h.746v-.643zm-.75 1.631h.75v-.646h-.75zm.75.339h-.746v.273h-.003v.373h.75zm-.75 1.631h.75v-.646h-.75zm-1.275-1.697h.936v-1.192h-.936zm-1.586 0h1.251v-1.192h-1.251zm.954 1.697h1.569v-1.358h-1.569zm-.957 0h.615v-1.358h-.615zm.957-3.227h1.569v-.957h-1.569zm-.957-.004h.615v-.957h-.615zm0-1.296h1.5v-.702h-1.5zm.954-1.04h1.925V36.49H38.55zm-2.118 0h1.779V36.49h-1.779zm-1.386 0h1.047V36.49h-1.047zm16.74 0h1.161V36.49h-1.161zm-2.121 0h1.783V36.49h-1.783zm-2.263 0h1.925V36.49h-1.925zm-12.356-1.638h.719v-.95h-.719zm1.061 0h1.299v-.95h-1.299zm1.634 0h1.092v-.95h-1.092zm1.434 0h2.322v-.95h-2.322zm2.66 0h1.952v-.95h-1.952zm2.294 0h1.949v-.95h-1.949zm2.291 0h2.308v-.95H46.42zm2.65 0h1.092v-.95H49.07zm1.434 0H51.8v-.95h-1.296zm1.634 0h.805v-.95h-.805zm1.147 1.976h-2.612v5.566H37.261v-5.566h-2.557v-5.539h1.403v1.272h.681v-1.272h1.365v1.272h.684v-1.272h1.019v-2.861h1.462v1.313h.784v-1.313h1.465v1.313h.781v-1.313h1.465v1.313h.788v-1.313h1.465v2.861h1.092v1.272h.681v-1.272h1.365v1.272h.684v-1.272h1.399v5.539zm-4.474.702h1.524v-.702h-1.524zm-8.956-5.898h-.681v1.268h-1.361v-1.268h-.684v1.268h-1.365v-1.268h-.719v1.931h5.318v-1.064h-.508zm.85 1.931v-1.064h1.942v1.064zm2.28 0v-1.064h1.945v1.064zm2.284 0v-1.064h1.942v1.064H45.27zm2.508 8.493h1.579v-1.358h-1.579zm1.918 0h.639v-1.358h-.639zm-1.973-13.289v1.735h-7.529v-1.735h.784v1.268h.007v.048h1.434v-.048h.024v-1.268h.781v1.316h1.434v-.048h.031v-1.268h.788v1.316h1.434v-.048h.024v-1.268zm-7.529 3.393h1.503v-1.32h-1.503zm1.842 0h1.814v-1.32h-1.814zm2.156 0h1.81v-1.32h-1.81zm2.156 0h1.375v-1.32h-1.375zm2.712 8.199h1.275v-1.192H49.06v1.192zm.636-1.534h.639v-.957h-.639zm-1.918 1.534h.94v-1.192h-.94zm1.579-2.491v.961h-1.579v-.961z"/><path d="M30.398 31.241h9.457v-.525h-9.457zm17.666 0h9.502v-.525h-9.502zm-17.293 5.608h4.046v-.525h-4.046zm22.445 0h3.973v-.525h-3.973zm-22.158 4.374h6.202v-.525h-6.202zm10.493 0h4.796v-.525h-4.796zm9.125 0h6.23v-.525h-6.23zm-18.526 4.8h6.237l2.422-2.422h.739l-2.419 2.422h9.422l-2.564-2.564h.359v.142h.525l2.419 2.422h6.52v.522H32.15z"/><path d="m34.293 22.665-7.035 6.116c1.952.225 3.258 2.349 3.265 4.191l.01 4.246c.01 3.794.145 10.511 4.278 12.179.746.297 4.582 1.199 6.43 2.111 2.229 1.099 2.477 2.205 2.768 2.274.418-.373.822-1.282 2.429-2.101 2.028-1.026 5.573-1.814 6.748-2.284 4.136-1.669 4.267-8.386 4.278-12.18l.01-4.029c.007-1.938 1.158-4.167 3.265-4.409l-7.035-6.116c-3.334 2.073-5.57 3.013-9.63 3.027-4.122.017-6.399-.926-9.782-3.027zm.104.922-5.777 4.91c.131-.024 1.603.746 2.298 2.882.28.86.304 1.931.29 3.006l.01 2.892c.052 3.528.076 9.802 3.866 11.482.705.28 4.36 1.109 6.102 1.966 2.104 1.033 2.564 1.793 2.823 1.887.394-.352.826-.902 2.339-1.669 1.914-.971 5.432-1.759 6.541-2.204 3.714-1.572 3.763-7.94 3.887-11.52l-.017-2.674c.004-1.154-.107-2.056.287-3.158.422-1.195 1.168-2.339 2.349-2.878l-5.791-4.996c-3.21 1.994-5.629 2.826-9.574 2.84-3.763.014-6.475-.805-9.633-2.764z"/><path d="m53.386 25.111.753 1.565 1.721.235-1.254 1.202.307 1.707-1.527-.822-1.531.822.307-1.707-1.254-1.202 1.721-.235zm-9.46 21.664.753 1.565 1.724.235-1.258 1.199.307 1.71-1.527-.822-1.531.822.307-1.71-1.251-1.199 1.717-.235.757-1.565zm0 1.085.435.898.988.135-.722.691.18.981-.881-.473-.881.473.18-.981-.719-.691.985-.135zm-9.339-22.749.753 1.565 1.721.235-1.254 1.202.311 1.707-1.531-.822-1.531.822.311-1.707-1.254-1.202 1.721-.235zm0 1.085.435.898.988.135-.719.691.173.981-.878-.47-.878.47.173-.981-.719-.691.992-.135zm18.8 0 .432.898.988.135-.719.691.176.981-.878-.47-.881.47.176-.981-.719-.691.988-.135.435-.898zM35.883 57.448q-.113.01-.086.124a.3.3 0 0 1-.021.173 1 1 0 0 0-.072.104l-.245.27c-.059.069-.079.104-.069.104.014.014.072-.014.169-.072a2.5 2.5 0 0 1 .311-.18l.221-.135c.021-.017.072-.038.148-.073.097-.045.135-.086.104-.121q-.227-.193-.46-.194m6.074-.304a.2.2 0 0 0-.062.021c-.349.138-.971.252-1.849.339q-.357.042-.055.124a2.1 2.1 0 0 0 .643-.014q.11.157-.055.463c-.207.359-.439.587-.687.677a.2.2 0 0 0-.076.048.43.43 0 0 0-.028.28c.017.079.055.121.107.117l.18-.052 1.838-.518.041.041q.26.264.352.218.214-.208-.045-.536-.172-.172-.577-.294-.388-.098-.242.052l.366.404-1.593.283a11 11 0 0 0 .764-.781.5.5 0 0 1 .093-.086c.197-.117.162-.235-.097-.356l1.213-.204c.131-.038.169-.09.111-.166q-.082-.078-.342-.062zm5.815-.062q-.1.012-.024.117.091.108-.024.463-.33 1.264-.836 1.783-.175.192.055.062c.401-.287.722-.77.961-1.458.086.124.235.39.439.788l.204.352q.067.304.667.235l.104.007q.201-.011.263-.048c.062-.037.024-.052-.059-.083q-.948-.57-1.244-1.068l-.304-.339a2 2 0 0 1 .183-.47.4.4 0 0 0 .028-.1q-.076-.123-.411-.242zm5.155 2.578a3 3 0 0 0 .601.028l.363.024q.238.025.252-.093 0-.16-.218-.207a3 3 0 0 0-.508.024l-.47.045q.078-.675.176-.988l.066-.214.035-.117c-.052-.142-.245-.245-.57-.311q-.125.03-.028.221a1 1 0 0 1 .073.249q.047.637-.294 2.895l-.764-.028.01-.484.072-.961a2 2 0 0 1 .045-.197q.03-.076.014-.121-.141-.176-.491-.28-.139-.013-.024.2c.055.104.09.18.093.232q.052.416-.021 1.593a5 5 0 0 1-.926-.028q-.243-.005-.19.062a1.5 1.5 0 0 0 .408.145l1.994.031.957.11.871.142q.337.058.28-.149-.13-.24-.449-.294a7 7 0 0 0-.587.01l-.992.007.221-1.548zm-6.876-2.329q.322.437.556.491c.204-.059.232-.18.083-.373-.459-.225-.667-.266-.639-.117zm.739.864c-.028-.004-.121.014-.283.045a7 7 0 0 1-1.655.173q-.145.016-.024.1a.73.73 0 0 0 .328.197q.063.005.712-.162.057.83-1.161 1.866-.17.112-.003.079a1 1 0 0 0 .328-.162c.47-.307.802-.694.985-1.154l.08.028q.253.11.273.152.03.144-.131.577c-.107.276-.197.428-.266.466q-.021.002-.176-.048-.294-.119-.221-.031a1.1 1.1 0 0 1 .218.432q-.002.04.017.038.159.07.37-.117.171-.193.29-.567.145-.476.28-.688l.021-.079a.5.5 0 0 0-.245-.256.3.3 0 0 1-.1-.024l-.297-.035a.5.5 0 0 1 .083-.135q.068-.102.048-.142c.017-.024-.076-.097-.269-.214.366-.062.674-.09.926-.093q.205.014.169-.111c-.048-.083-.149-.131-.294-.135zm.736 1.303a1 1 0 0 1 .055.083q.338.42.442.404c.187-.083.225-.214.1-.394-.432-.187-.636-.214-.598-.093zm-.166.857c.283.401.529.65.722.739q.312-.124.069-.477a2.7 2.7 0 0 0-.591-.294q-.274-.078-.2.031zm-5.964-.511q.296-.036.632-.114.3-.036.294-.135-.024-.119-.307-.104a1 1 0 0 0-.176.028 2.6 2.6 0 0 0-.439.083 1 1 0 0 1 .041-.325.13.13 0 0 0-.003-.1q-.349-.18-.532-.169c-.055.003-.052.052.01.159q.13.255.149.515l-.48.083-.356.062q-.298.072.107.135.32.02.739-.062l.059.681-1.558.2a.8.8 0 0 1-.176.031q-.284.036-.221.093a3 3 0 0 0 .428.076q.02 0 .138-.028a14.2 14.2 0 0 1 3.438-.28c.228 0 .304-.062.231-.194-.104-.128-.276-.197-.535-.214a2 2 0 0 0-.214.035l-1.237.225zm-6.983-2.018c-.066-.007-.079.028-.048.1a1 1 0 0 0 .235.27q.104.105.197.059c.093-.046.086-.09.079-.18q-.08-.243-.463-.249m1.047 1.22c.332-.041.549-.086.66-.135q.163-.128-.218-.117a2 2 0 0 0-.232.041.7.7 0 0 1-.204.055.3.3 0 0 1 .028-.117.3.3 0 0 0 .01-.097q-.004-.056-.107-.128l.888-.19q.115-.051.048-.138-.087-.053-.256-.038l-.131.031a10 10 0 0 1-1.624.332q-.17.034-.031.1c.076.031.197.038.349.028q.15-.011.318-.048.11.087.166.335l-.567.104q-.11.07.121.107a2 2 0 0 0 .477-.062l.031.325-.954.138c-.097.038-.093.072.01.114q.118.032.408.007l.397-.055a1 1 0 0 1 .152-.031l.038.708a1 1 0 0 0-.166.035l-1.734.204c-.09.007-.107.038-.052.083a.9.9 0 0 0 .325.166l.152-.035c.342-.145 1.171-.297 2.477-.459.332-.031.733-.038 1.209-.031q.058-.001.059-.003.207-.034.021-.214a.6.6 0 0 0-.432-.114 5 5 0 0 0-.515.1l-.453.097.373-.377q.068-.084-.052-.131a.54.54 0 0 0-.349-.045q-.076.004-.028.097a.35.35 0 0 1 .031.169 1.4 1.4 0 0 1-.183.342l-.415.076-.021-.691.456-.076.567-.107q.15-.053.066-.121-.099-.052-.332-.031l-.245.041-.529.083-.01-.325zm-.636.919c-.069-.069-.19-.111-.373-.121q-.098.005.017.19c.1.155.187.238.249.249.138-.066.173-.169.107-.318m1.348.653a5 5 0 0 0-.415.093l-.999.242q-.146-.104-.276-.072-.094.026.014.131c.041.062.09.19.149.394l.107.356q.072.166.169.176c.045-.017.062-.083.038-.193l.456-.059 1.123-.155q.078-.027.01-.079a.35.35 0 0 0-.176-.1q.123-.296.325-.411c.062-.041.031-.107-.09-.183a1 1 0 0 0-.435-.138zm-1.368.446.249-.041a7 7 0 0 1 1.026-.162q.072-.01.072.183a.76.76 0 0 1-.104.356l-1.116.228zm21.575-4.307c.581-.636.757-1.189.76-1.703.007-.605-.307-.933-.608-1.289-.321-.38-.632-.781-.812-1.247-.138-.356-.083-.933.1-1.513.356-1.154 1.493-1.931 2.567-1.931h2.678l.014-1.392c.021-.84-.428-1.565-.75-2.336a4.4 4.4 0 0 1-.359-1.786l.059-3.338h.024l.909 1.451c.383-.625 1.351-1.071 2.477-1.071 1.462 0 2.654.75 2.654 1.665 0 .505-.363.957-.929 1.261v3.486a8 8 0 0 1 .643.885c.404.653.618 1.42.473 2.204-.363 1.987-3.714 3.939-3.752 5.998l-.028 2.094c-.014.332-.01.615-.097.777-.159.311-.467.373-.777.308-.667-.138-1.548-1.075-2.156-.912-.535.142-.698.663-.784 1.178-.135.781-.349 1.551-.705 2.284a7.2 7.2 0 0 1-1.054 1.593c-.232.263-.435.401-.681.477s-.525.09-.888-.014c-7.18-2.049-15.531-2.049-22.711 0-.363.104-.646.09-.888.014s-.449-.214-.677-.477a7 7 0 0 1-1.054-1.593 8.4 8.4 0 0 1-.705-2.284c-.09-.515-.252-1.037-.788-1.178-.608-.162-1.489.774-2.153.912-.314.066-.622.003-.781-.308-.086-.162-.083-.446-.1-.777-.041-.722-.014-1.679-.024-2.094-.038-2.059-3.386-4.011-3.749-5.998-.145-.784.066-1.551.47-2.204.19-.307.411-.601.643-.885v-3.486c-.567-.304-.93-.757-.93-1.261 0-.916 1.192-1.665 2.654-1.665 1.13 0 2.094.446 2.477 1.071l.912-1.451h.024l.055 3.338a4.4 4.4 0 0 1-.359 1.786c-.318.771-.771 1.496-.75 2.336l.014 1.392h2.678a2.8 2.8 0 0 1 2.571 1.931c.18.58.235 1.157.097 1.513-.18.466-.491.867-.812 1.247-.297.356-.612.684-.608 1.289.003.515.187 1.081.77 1.721 8.869-1.925 15.776-1.931 24.746-.017zm-1.088 6.551c.245.076.511.09.622-.304.515-1.427-.093-3.22-.038-4.647.01-.383.073-.739.218-1.057-8.289-1.873-15.866-1.873-24.183 0 .145.318.207.674.221 1.057.055 1.427-.556 3.22-.041 4.647.11.394.377.38.622.304 7.19-1.97 15.389-1.966 22.58 0zm-23.644-.069c-.342-.684-.328-1.652-.242-2.619.093-1.002.256-2.004.124-2.692-.097-.48-.325-.663-.584-1.033-.636-.909-1.005-2.108-.283-3.03.47-.605 1.13-1.123 1.133-1.735.003-.694-.18-2.121-1.748-2.446l-3.334-.017c-.135.601-.276 2.104.042 2.64.501.864 1.144 1.931 1.213 3.213l.062 2.391c.035-.01.062-.021.097-.031 0 0 .943-.356 1.413.618.314.65.328 1.496.56 2.204.2.622.532 1.299.929 1.817.128.173.48.66.619.719zm-5.279-13.69.052-2.249c.031-.681.449-1.316.736-1.976.211-.484.301-.981.349-1.52.059-.636.038-1.327.038-2.073 0 0-.988 1.648-2.419 3.455-.736.929-1.866 1.918-2.467 2.882-.352.57-.757 1.624-.269 2.522.145.259.318.511.508.757l-.01-.024s2.101.017 3.483-1.773zm-3.051 2.301c1.109 1.265 2.526 2.488 2.667 4.26.003.308-.08 2.37.1 2.56.086.083.249.173.504.035 0 0 .466-.335.971-.591l-.09-2.46a5.34 5.34 0 0 0-.884-2.602c-.466-.681-.601-1.614-.515-2.405 0 0-1.372.967-2.754 1.202zm.076-5.47c.553-.605 1.137-1.188 1.624-1.807q.353-.447.681-.905h-2.305zm2.709-3.286a37 37 0 0 0 .605-.905c-.069-.629-1.047-1.13-2.142-1.13-1.137 0-2.149.542-2.149 1.206 0 .311.228.598.587.816a1.3 1.3 0 0 0 .39.097h2.519c.076 0 .121-.045.19-.083zm30.257 20.144c.342-.684.325-1.652.238-2.619-.09-1.002-.256-2.004-.121-2.692.093-.48.321-.663.584-1.033.636-.909 1.002-2.108.28-3.03-.47-.605-1.13-1.123-1.133-1.735-.003-.694.183-2.121 1.752-2.446l3.331-.017c.138.601.276 2.104-.038 2.64-.505.864-1.147 1.931-1.216 3.213l-.062 2.391-.097-.031s-.94-.356-1.41.618c-.318.65-.328 1.496-.563 2.204a6.3 6.3 0 0 1-.926 1.817c-.131.173-.484.66-.618.719zm5.276-13.69-.048-2.249c-.035-.681-.453-1.316-.739-1.976-.207-.484-.297-.981-.349-1.52-.059-.636-.038-1.327-.038-2.073 0 0 .988 1.648 2.419 3.455.736.929 1.869 1.918 2.47 2.882.349.57.753 1.624.266 2.522a6 6 0 0 1-.508.757l.01-.024s-2.101.017-3.483-1.773zm3.051 2.301c-1.106 1.265-2.526 2.488-2.668 4.26-.003.308.079 2.37-.1 2.56-.086.083-.249.173-.504.035 0 0-.466-.335-.971-.591l.093-2.46c.038-.84.366-1.849.881-2.602.47-.681.601-1.614.515-2.405 0 0 1.372.967 2.754 1.202zm-.076-5.47c-.549-.605-1.137-1.188-1.624-1.807a24 24 0 0 1-.681-.905h2.305zm-2.71-3.284-.605-.905c.069-.629 1.05-1.13 2.142-1.13 1.14 0 2.149.542 2.149 1.206 0 .311-.225.598-.587.816a1.3 1.3 0 0 1-.391.097h-2.515c-.079 0-.124-.045-.194-.083z"/></svg>