<svg xmlns="http://www.w3.org/2000/svg" width="250" height="250"><path d="m249.11 137.31-.01-.22c-.04-.81-.12-2.34-.84-4.02 1.06-2.33 1.68-4.91 1.73-7.52.02-.75-.21-1.92-.42-2.64l.13.46-.04-.21c-.13-.79-.4-2.29-1.28-3.88a19.17 19.17 0 0 0 .88-7.69c-.07-.75-.42-1.87-.7-2.57l.18.43-.06-.21c-.22-.77-.65-2.24-1.71-3.71.52-2.51.55-5.17.02-7.74-.15-.73-.62-1.81-.98-2.46l.23.41-.09-.2c-.3-.74-.9-2.16-2.11-3.5a19.14 19.14 0 0 0-.84-7.68c-.23-.72-.83-1.75-1.27-2.37l.28.39-.11-.19c-.39-.71-1.13-2.04-2.49-3.24a19.35 19.35 0 0 0-1.7-7.55c-.31-.68-1-1.62-1.5-2.18l.31.35-.13-.18c-.46-.66-1.35-1.9-2.84-2.95-.34-2.54-1.19-5.06-2.53-7.32-.39-.64-1.18-1.5-1.74-2l.34.31-.15-.16c-.53-.6-1.55-1.74-3.15-2.61-.62-2.49-1.74-4.9-3.33-6.99-.46-.6-1.35-1.36-1.96-1.8l.38.27-.17-.15c-.59-.54-1.74-1.55-3.41-2.24-.89-2.4-2.28-4.67-4.09-6.57-.52-.55-1.5-1.21-2.16-1.58l.42.23-.18-.12c-.65-.47-1.9-1.34-3.64-1.84a19.124 19.124 0 0 0-4.79-6.07c-.57-.48-1.61-1.03-2.3-1.32l.42.18-.19-.11c-.7-.39-2.04-1.13-3.83-1.42a19.16 19.16 0 0 0-5.45-5.5c-.62-.41-1.71-.84-2.43-1.05l.45.13-.2-.08c-.74-.31-2.16-.9-3.97-.99a19.326 19.326 0 0 0-6.03-4.86c-.67-.34-1.8-.64-2.54-.78l.46.08-.21-.06c-.77-.23-2.24-.66-4.06-.55-1.84-1.77-4.07-3.22-6.52-4.14-.7-.27-1.87-.44-2.62-.49l.47.03-.21-.04c-.79-.14-2.29-.4-4.09-.09-2.03-1.56-4.41-2.75-6.94-3.39-.73-.19-1.9-.23-2.65-.2l.47-.02-.22-.01c-.8-.05-2.33-.14-4.08.37-2.19-1.32-4.68-2.24-7.28-2.6-.74-.1-1.91-.01-2.64.1l.46-.07-.22.01c-.8.04-2.34.11-4.02.82-2.32-1.07-4.9-1.7-7.52-1.77-.75-.02-1.89.2-2.61.4l.44-.12-.21.04c-.79.13-2.3.39-3.89 1.27-2.43-.81-5.08-1.14-7.69-.92-.75.06-1.87.41-2.57.69l.43-.18-.21.06c-.77.22-2.24.64-3.72 1.69a19.21 19.21 0 0 0-7.74-.05c-.74.15-1.81.62-2.47.97l.41-.22-.2.08c-.74.3-2.15.89-3.51 2.1-2.55-.25-5.2.01-7.7.81-.71.23-1.73.82-2.35 1.24l.39-.27-.19.11c-.71.38-2.04 1.12-3.25 2.47-2.56.04-5.17.59-7.56 1.67-.68.31-1.62 1-2.19 1.49l.35-.3-.18.12c-.66.46-1.91 1.34-2.96 2.83-2.54.32-5.07 1.16-7.33 2.5-.65.38-1.51 1.18-2.02 1.74l.32-.35-.15.15c-.6.53-1.74 1.55-2.62 3.13a19.16 19.16 0 0 0-7 3.3c-.6.46-1.38 1.35-1.82 1.96l.27-.39-.15.16c-.54.59-1.55 1.73-2.25 3.4-2.41.88-4.68 2.26-6.59 4.06-.54.51-1.2 1.48-1.58 2.13l.23-.4-.13.18c-.47.65-1.36 1.9-1.86 3.64a19.175 19.175 0 0 0-6.1 4.78c-.48.57-1.03 1.59-1.32 2.27l.18-.42-.11.19c-.4.7-1.14 2.04-1.45 3.83-2.15 1.39-4.07 3.24-5.52 5.43-.42.62-.85 1.71-1.07 2.43l.14-.45-.08.2c-.32.74-.9 2.15-1.01 3.96a19.13 19.13 0 0 0-4.88 6c-.35.67-.66 1.8-.79 2.54l.09-.46-.06.21c-.23.77-.67 2.24-.57 4.06a19.222 19.222 0 0 0-4.17 6.5c-.27.71-.45 1.87-.5 2.63l.03-.47-.04.21c-.13.79-.41 2.3-.1 4.09-1.57 2.02-2.76 4.4-3.42 6.93-.19.72-.24 1.89-.21 2.64l-.02-.47-.01.21c-.06.81-.16 2.34.35 4.09a19.25 19.25 0 0 0-2.63 7.27c-.11.74-.02 1.91.09 2.65l-.07-.46.01.22c.04.81.11 2.34.8 4.02a19.267 19.267 0 0 0-1.8 7.51c-.02.75.19 1.9.39 2.62l-.12-.45.03.21c.12.79.38 2.3 1.25 3.9a19.11 19.11 0 0 0-.95 7.68c.06.75.4 1.87.68 2.56l-.17-.43.06.21c.21.77.63 2.24 1.68 3.73-.54 2.5-.6 5.16-.09 7.74.15.74.61 1.82.96 2.48l-.22-.41.08.2c.3.74.88 2.16 2.08 3.51-.26 2.55-.02 5.2.77 7.7.23.72.81 1.75 1.24 2.37l-.27-.39.1.19c.38.71 1.11 2.04 2.46 3.26.03 2.56.56 5.17 1.63 7.57.31.69 1 1.65 1.5 2.21l-.31-.36.12.18c.46.66 1.33 1.9 2.8 2.96a19.34 19.34 0 0 0 2.46 7.34c.38.65 1.17 1.51 1.72 2.02l-.34-.31.14.17c.56.64 1.65 1.88 3.4 2.78a19.16 19.16 0 0 0 3.38 7.37c.45.6 1.34 1.37 1.94 1.81l-.38-.28.16.15c.59.54 1.73 1.56 3.41 2.25.88 2.41 2.26 4.68 4.06 6.59.52.54 1.48 1.21 2.14 1.58l-.41-.23.18.12c.68.49 1.99 1.42 3.84 1.91a19.25 19.25 0 0 0 4.91 6.31c.58.48 1.61 1.03 2.3 1.32l-.42-.18.19.11c.71.4 2.07 1.14 3.9 1.43 1.41 2.18 3.28 4.11 5.5 5.57.62.41 1.72.84 2.44 1.05l-.45-.13.2.08c.78.33 2.29.95 4.23.99a19.42 19.42 0 0 0 6.24 5.08c.68.34 1.82.64 2.57.77l-.47-.08.21.06c.8.23 2.35.68 4.25.51 1.9 1.86 4.22 3.37 6.78 4.31.71.26 1.87.42 2.61.46l-.46-.03.21.04c.79.13 2.3.38 4.1.05 2.04 1.54 4.43 2.71 6.98 3.33.73.17 1.91.21 2.66.17l-.48.03.22.01c.8.04 2.33.12 4.08-.4 2.2 1.3 4.7 2.19 7.3 2.53.75.1 1.92 0 2.66-.12l-.46.08.22-.01c.81-.05 2.34-.14 4.01-.86 2.33 1.05 4.92 1.66 7.54 1.7.75.01 1.9-.22 2.62-.42l-.44.12.21-.04c.79-.14 2.29-.41 3.87-1.3 2.44.79 5.08 1.1 7.7.85.75-.07 1.87-.43 2.56-.71l-.44.18.21-.06c.77-.22 2.24-.66 3.7-1.72 2.51.51 5.18.52 7.75-.02.72-.15 1.78-.62 2.43-.98l-.4.22.2-.08c.74-.31 2.16-.91 3.5-2.13a19.06 19.06 0 0 0 7.69-.88c.71-.23 1.73-.83 2.34-1.26l-.39.27.19-.11c.71-.39 2.03-1.14 3.23-2.51 2.57-.06 5.16-.63 7.55-1.73.68-.31 1.62-1.02 2.18-1.52l-.35.31.17-.12c.66-.47 1.9-1.36 2.94-2.85 2.54-.34 5.06-1.21 7.3-2.56.65-.39 1.5-1.19 2-1.75l-.31.34.16-.15c.6-.53 1.73-1.56 2.59-3.16 2.48-.63 4.89-1.76 6.97-3.36.6-.46 1.37-1.37 1.81-1.99l-.28.39.14-.16c.53-.6 1.54-1.74 2.21-3.42a19.24 19.24 0 0 0 6.56-4.12c.54-.52 1.19-1.48 1.55-2.12l-.22.39.13-.18c.47-.65 1.34-1.91 1.83-3.66 2.29-1.17 4.38-2.81 6.06-4.83.48-.58 1.03-1.63 1.32-2.32l-.19.45.1-.19c.39-.7 1.12-2.05 1.41-3.84a19.22 19.22 0 0 0 5.47-5.46c.42-.63.85-1.75 1.06-2.48l-.13.47.08-.2c.31-.74.88-2.15.97-3.96a19.11 19.11 0 0 0 4.83-6.04c.34-.67.64-1.8.76-2.54l-.08.46.06-.21c.22-.77.65-2.25.53-4.07 1.77-1.85 3.2-4.09 4.12-6.54.26-.7.43-1.87.48-2.61l-.03.47.04-.21c.14-.79.4-2.3.08-4.1a19.11 19.11 0 0 0 3.36-6.95c.18-.73.22-1.91.18-2.67l.02.47.01-.22c.05-.8.13-2.33-.39-4.07 1.32-2.19 2.22-4.69 2.56-7.29.1-.74.01-1.92-.11-2.66l.11.45z" fill="#fff"/><path d="m246.71 137.54-.02-.31c-.05-.87-.14-2.52-1.15-4.14 1.33-2.48 1.99-5.23 2.04-7.58.01-.54-.13-1.29-.28-1.8l.05.16-.05-.31c-.14-.85-.43-2.48-1.6-3.98 1.04-2.62 1.39-5.43 1.18-7.76-.05-.53-.27-1.25-.48-1.75l.06.15-.09-.3c-.24-.83-.7-2.42-2.03-3.78.74-2.72.78-5.55.3-7.85-.11-.53-.41-1.21-.67-1.68l.08.14-.12-.29c-.33-.8-.97-2.33-2.45-3.53.43-2.78.15-5.59-.57-7.82-.17-.52-.55-1.17-.86-1.61l.1.14-.15-.29c-.42-.76-1.22-2.2-2.82-3.23.12-2.82-.47-5.58-1.45-7.72-.22-.48-.66-1.09-1.02-1.48l.11.12-.18-.25c-.5-.71-1.46-2.06-3.17-2.91-.2-2.81-1.09-5.49-2.29-7.51-.28-.46-.78-1.01-1.19-1.36l.12.1-.21-.23c-.57-.65-1.68-1.88-3.47-2.53-.51-2.77-1.7-5.34-3.12-7.2-.33-.43-.89-.92-1.33-1.23l.12.08-.23-.21c-.64-.58-1.88-1.68-3.73-2.12-.81-2.7-2.28-5.12-3.91-6.81-.37-.39-1-.82-1.47-1.08l.15.08-.26-.18c-.7-.5-2.05-1.45-3.94-1.69-1.11-2.59-2.84-4.83-4.64-6.33a6.6 6.6 0 0 0-1.57-.9l.15.06-.27-.15c-.76-.43-2.2-1.22-4.11-1.25-1.39-2.45-3.36-4.48-5.32-5.78-.45-.29-1.14-.57-1.65-.72l.15.04-.29-.12c-.8-.34-2.33-.97-4.23-.78-1.66-2.28-3.84-4.07-5.93-5.14-.48-.25-1.2-.44-1.73-.53l.16.03-.3-.08c-.83-.25-2.42-.71-4.28-.3-1.9-2.08-4.27-3.62-6.46-4.45-.5-.19-1.25-.31-1.79-.34l.16.01-.31-.05c-.85-.15-2.48-.43-4.29.18-2.12-1.86-4.65-3.12-6.93-3.7-.52-.13-1.27-.17-1.81-.13l.16-.01-.31-.02c-.86-.05-2.51-.15-4.24.66-2.32-1.61-4.97-2.58-7.29-2.9-.53-.08-1.28-.02-1.81.07l.16-.03-.31.02c-.87.04-2.52.13-4.14 1.13-2.48-1.34-5.23-2.01-7.57-2.07-.53-.01-1.27.12-1.78.27l.15-.04-.31.05c-.85.14-2.48.41-3.99 1.58-2.61-1.06-5.42-1.42-7.76-1.22-.53.05-1.26.27-1.75.47l.15-.06-.3.09c-.84.23-2.42.69-3.79 2.02-2.72-.75-5.54-.8-7.85-.34-.53.11-1.22.4-1.68.66l.14-.08-.29.12c-.8.33-2.33.96-3.54 2.43-2.78-.45-5.6-.18-7.83.54-.51.16-1.16.53-1.6.85l.13-.09-.27.15c-.76.41-2.21 1.21-3.25 2.81-2.82-.13-5.58.45-7.73 1.41-.49.22-1.09.66-1.49 1.01l.12-.11-.26.18c-.71.49-2.06 1.45-2.92 3.15-2.81.18-5.5 1.07-7.52 2.26-.46.27-1.02.78-1.38 1.18l.11-.12-.23.21c-.65.57-1.89 1.67-2.54 3.46-2.78.49-5.34 1.67-7.22 3.08-.43.33-.93.9-1.24 1.34l.1-.14-.21.23c-.58.64-1.68 1.87-2.13 3.72-2.7.8-5.12 2.26-6.83 3.87-.39.37-.82.98-1.07 1.45l.08-.14-.18.26c-.51.7-1.47 2.05-1.71 3.94-2.6 1.1-4.84 2.82-6.36 4.62-.34.41-.69 1.06-.9 1.55l.06-.15-.15.28c-.43.75-1.24 2.2-1.27 4.11-2.46 1.38-4.49 3.34-5.8 5.3-.3.45-.58 1.14-.73 1.66l.04-.16-.12.29c-.34.8-.98 2.32-.79 4.22-2.29 1.65-4.09 3.82-5.17 5.91-.25.48-.45 1.2-.54 1.73l.02-.16-.09.3c-.25.83-.71 2.42-.32 4.28-2.09 1.89-3.64 4.26-4.48 6.45-.19.5-.31 1.25-.34 1.79l.01-.17-.05.31c-.15.85-.44 2.47.16 4.28-1.87 2.12-3.14 4.64-3.73 6.91-.13.52-.17 1.27-.14 1.8l-.01-.16-.02.31c-.06.87-.16 2.51.64 4.25-1.62 2.31-2.61 4.96-2.94 7.28-.07.53-.03 1.28.06 1.81l-.03-.16.02.31c.04.87.12 2.52 1.11 4.15-1.35 2.48-2.03 5.22-2.1 7.56-.02.54.11 1.27.26 1.79l-.05-.15.05.31c.13.86.4 2.49 1.57 4-1.06 2.61-1.44 5.41-1.25 7.75.04.53.25 1.25.46 1.75l-.06-.15.09.3c.23.84.68 2.43 2 3.8-.76 2.71-.83 5.54-.37 7.84.1.53.4 1.22.65 1.69l-.08-.14.12.29c.32.8.94 2.33 2.41 3.55-.46 2.78-.2 5.59.5 7.83.16.51.53 1.17.85 1.61l-.09-.13.15.27c.41.76 1.2 2.21 2.79 3.25-.15 2.82.42 5.59 1.37 7.73.22.49.66 1.11 1.02 1.51l-.11-.12.18.26c.49.71 1.44 2.06 3.14 2.92.17 2.81 1.04 5.5 2.23 7.53.27.46.78 1.02 1.17 1.38l-.12-.11.21.24c.6.69 1.77 2.03 3.73 2.66.45 2.93 1.68 5.65 3.16 7.62.32.43.89.92 1.33 1.23l-.13-.09.23.21c.64.58 1.87 1.69 3.72 2.14.81 2.7 2.27 5.12 3.88 6.83.37.39.98.82 1.45 1.07l-.14-.08.25.18c.73.53 2.13 1.54 4.13 1.73 1.1 2.7 2.89 5.03 4.75 6.59a6.6 6.6 0 0 0 1.57.9l-.15-.06.28.15c.76.43 2.23 1.24 4.17 1.25 1.4 2.49 3.39 4.54 5.37 5.85.45.3 1.14.57 1.66.72l-.15-.05.29.12c.84.35 2.46 1.03 4.48.75 1.69 2.41 3.98 4.29 6.15 5.39.48.24 1.22.44 1.75.52l-.16-.02.3.08c.86.25 2.52.73 4.46.24 1.96 2.18 4.44 3.79 6.73 4.63.5.18 1.25.29 1.78.31l-.16-.01.31.05c.85.14 2.48.4 4.29-.22 2.14 1.84 4.68 3.08 6.96 3.64.52.12 1.28.15 1.81.11l-.17.01.31.01c.86.05 2.51.12 4.23-.7 2.33 1.59 4.99 2.54 7.32 2.84.53.07 1.29.01 1.81-.09l-.16.03.31-.02c.87-.05 2.51-.16 4.13-1.17 2.49 1.32 5.25 1.97 7.59 2.01.54.01 1.27-.13 1.78-.28l-.15.04.31-.06c.85-.14 2.48-.43 3.97-1.62 2.63 1.03 5.43 1.37 7.77 1.14.53-.05 1.25-.28 1.75-.49l-.15.07.3-.09c.83-.24 2.41-.71 3.77-2.05 2.73.73 5.56.75 7.85.27.52-.11 1.2-.41 1.66-.67l-.14.08.29-.12c.81-.33 2.33-.98 3.53-2.47 2.79.42 5.6.13 7.82-.61.51-.17 1.17-.55 1.6-.86l-.13.1.27-.15c.76-.42 2.2-1.23 3.22-2.84 2.82.11 5.59-.5 7.72-1.48.49-.23 1.09-.67 1.49-1.03l-.12.11.25-.18c.71-.5 2.05-1.47 2.89-3.18 2.81-.21 5.49-1.12 7.5-2.33.46-.28 1.01-.79 1.36-1.19l-.11.12.23-.21c.65-.58 1.87-1.69 2.51-3.48 2.77-.52 5.32-1.72 7.19-3.15.43-.33.93-.91 1.23-1.36l-.09.14.21-.23c.58-.65 1.66-1.88 2.1-3.73 2.7-.83 5.11-2.31 6.8-3.94.38-.37.8-.98 1.05-1.45l-.07.14.18-.26c.5-.71 1.45-2.06 1.68-3.96 2.59-1.12 4.82-2.86 6.31-4.67.34-.41.7-1.09.9-1.58l-.06.16.15-.28c.42-.76 1.21-2.21 1.22-4.11 2.44-1.4 4.46-3.38 5.75-5.34.3-.46.58-1.17.72-1.7l-.04.16.12-.29c.33-.8.95-2.32.75-4.21 2.27-1.67 4.06-3.86 5.12-5.95.24-.48.44-1.2.52-1.73l-.02.15.08-.3c.24-.83.69-2.43.28-4.29 2.07-1.91 3.6-4.29 4.42-6.49.19-.51.3-1.25.32-1.78l-.01.16.05-.31c.15-.85.42-2.48-.2-4.29 1.85-2.13 3.1-4.66 3.67-6.94.13-.52.16-1.28.12-1.82l.01.16.02-.31c.05-.86.13-2.51-.68-4.23 1.6-2.32 2.56-4.98 2.87-7.3.07-.53.01-1.28-.08-1.81l.08.22z"/><path d="M89.43 235.91c-.95.52-2.02 0-3.02 0-2.93-1.08-5.94-3.79-6.72-6.93 1.2-.35 2.54.43 3.7.82 2.99.46 5.48 3.27 6.04 6.11m12.61 3.27c-.88-2.76-3.67-5.27-6.68-5.41-1.2-.25-2.61-.88-3.77-.4 1.12 3.04 4.42 5.4 7.45 6.14.99-.1 2.12.29 3-.33m12.89 1.85c-1.17-2.65-4.23-4.82-7.23-4.62-1.22-.12-2.7-.58-3.79.02 1.45 2.89 5 4.87 8.09 5.27.96-.22 2.13.04 2.93-.67m13.02.4c-1.46-2.5-4.75-4.32-7.71-3.79-1.23.02-2.74-.27-3.77.45 1.77 2.71 5.51 4.28 8.63 4.33.94-.33 2.13-.19 2.85-.99m12.99-1.06c-1.74-2.32-5.2-3.77-8.08-2.91-1.22.15-2.76.03-3.69.87 2.05 2.5 5.95 3.64 9.06 3.34.88-.43 2.08-.43 2.71-1.3m12.78-2.51c-1.98-2.11-5.59-3.16-8.35-1.98-1.2.29-2.74.34-3.58 1.27 2.33 2.25 6.32 2.95 9.37 2.31.84-.52 2.03-.65 2.56-1.6m12.42-3.91c-2.21-1.88-5.9-2.52-8.52-1.04-1.15.42-2.68.65-3.42 1.66 2.57 1.98 6.62 2.23 9.58 1.25.78-.61 1.94-.88 2.36-1.87m11.91-5.28c-2.41-1.62-6.15-1.84-8.59-.08-1.1.55-2.59.94-3.2 2.03 2.77 1.68 6.82 1.48 9.65.17.71-.69 1.84-1.08 2.14-2.12m11.25-6.57c-2.57-1.34-6.32-1.14-8.55.88-1.03.66-2.47 1.22-2.95 2.38 2.94 1.36 6.94.71 9.62-.91.61-.77 1.68-1.28 1.88-2.35m10.43-7.79c-2.7-1.04-6.4-.43-8.39 1.83-.95.78-2.32 1.49-2.67 2.69 3.07 1.03 6.97-.07 9.45-1.97.53-.84 1.55-1.47 1.61-2.55m9.51-8.9c-2.8-.74-6.41.29-8.14 2.75-.86.88-2.13 1.74-2.35 2.98 3.17.67 6.93-.85 9.17-3.02.44-.89 1.37-1.63 1.32-2.71m8.45-9.91c-2.86-.42-6.34 1-7.77 3.64-.75.97-1.93 1.97-2.01 3.22 3.22.32 6.79-1.62 8.78-4.02.33-.93 1.18-1.77 1-2.84m7.3-10.79c-2.89-.1-6.18 1.7-7.32 4.49-.64 1.05-1.7 2.17-1.64 3.43 3.24-.05 6.56-2.37 8.28-4.98.22-.97.97-1.9.68-2.94m6.04-11.54c-2.89.23-5.96 2.38-6.78 5.28-.52 1.11-1.44 2.35-1.24 3.58 3.21-.4 6.26-3.08 7.67-5.87.12-.97.75-1.98.35-2.99m4.72-12.13c-2.85.55-5.66 3.03-6.15 6-.39 1.16-1.17 2.49-.84 3.7 3.15-.76 5.88-3.77 6.97-6.69 0-.99.53-2.07.02-3.01m3.33-12.6c-2.77.86-5.28 3.65-5.43 6.65-.26 1.2-.89 2.61-.42 3.77 3.04-1.11 5.42-4.39 6.18-7.42-.12-.98.28-2.11-.33-3m1.9-12.88c-2.66 1.17-4.84 4.21-4.66 7.22-.12 1.22-.59 2.69.01 3.79 2.9-1.44 4.89-4.97 5.31-8.06-.22-.98.06-2.14-.66-2.95m.46-13.02c-2.51 1.45-4.34 4.73-3.82 7.69.01 1.23-.28 2.74.43 3.77 2.72-1.76 4.3-5.49 4.37-8.61-.33-.93-.18-2.12-.98-2.85m-1-12.98c-2.33 1.73-3.78 5.18-2.94 8.07.15 1.22.02 2.76.85 3.7 2.51-2.05 3.67-5.94 3.39-9.04-.44-.9-.43-2.1-1.3-2.73m-2.45-12.8c-2.12 1.97-3.18 5.57-2.02 8.35.28 1.19.33 2.73 1.26 3.58 2.27-2.31 2.98-6.31 2.35-9.36-.53-.85-.65-2.03-1.59-2.57m-3.86-12.43c-1.89 2.2-2.54 5.89-1.08 8.52.42 1.15.63 2.68 1.65 3.42 1.99-2.55 2.26-6.6 1.29-9.56-.61-.79-.87-1.96-1.86-2.38m-5.22-11.93c-1.63 2.4-1.87 6.14-.12 8.59.54 1.1.93 2.59 2.02 3.21 1.7-2.76 1.51-6.81.22-9.65-.7-.71-1.09-1.84-2.12-2.15m-6.53-11.28c-1.35 2.56-1.17 6.31.84 8.54.66 1.04 1.21 2.48 2.37 2.97 1.37-2.93.74-6.94-.86-9.62-.77-.62-1.29-1.69-2.35-1.89m-7.74-10.47c-1.06 2.7-.46 6.4 1.79 8.4.77.95 1.48 2.32 2.68 2.68 1.04-3.06-.04-6.97-1.93-9.46-.83-.53-1.46-1.55-2.54-1.62m-8.86-9.54c-.75 2.8.26 6.41 2.72 8.14.87.86 1.73 2.15 2.96 2.37.69-3.17-.82-6.93-2.98-9.18-.88-.44-1.62-1.38-2.7-1.33m-9.87-8.5c-.43 2.86.98 6.34 3.61 7.79.96.76 1.96 1.94 3.21 2.02.34-3.22-1.59-6.8-3.98-8.8-.93-.33-1.77-1.18-2.84-1.01m-10.76-7.34c-.11 2.89 1.68 6.2 4.46 7.34 1.04.65 2.16 1.71 3.42 1.65-.03-3.24-2.34-6.57-4.94-8.3-.97-.22-1.9-.97-2.94-.69m-11.51-6.09c.21 2.89 2.35 5.97 5.25 6.8 1.11.53 2.34 1.46 3.58 1.26-.39-3.21-3.06-6.27-5.83-7.69-.99-.13-2-.77-3-.37m-12.12-4.77c.54 2.85 3.01 5.67 5.98 6.17 1.16.4 2.49 1.19 3.69.85-.75-3.15-3.74-5.89-6.66-6.99-.99-.01-2.05-.54-3.01-.03m-12.57-3.39c.85 2.77 3.62 5.3 6.63 5.46 1.2.27 2.6.9 3.77.43-1.1-3.05-4.38-5.44-7.4-6.21-.99.11-2.12-.29-3 .32m-12.88-1.96c1.15 2.66 4.19 4.86 7.2 4.69 1.22.13 2.69.6 3.79.01-1.43-2.91-4.95-4.92-8.04-5.34-.97.21-2.13-.07-2.95.64m-13.01-.51c1.44 2.51 4.71 4.36 7.67 3.86 1.22-.01 2.73.3 3.77-.42-1.74-2.73-5.47-4.33-8.59-4.41-.94.32-2.12.17-2.85.97m-12.99.94c1.71 2.34 5.16 3.81 8.05 2.97 1.22-.14 2.76-.01 3.7-.83-2.04-2.52-5.92-3.69-9.03-3.43-.89.43-2.08.42-2.72 1.29m-12.81 2.39c1.96 2.13 5.56 3.21 8.34 2.06 1.19-.28 2.74-.32 3.58-1.24-2.31-2.28-6.29-3.01-9.35-2.39-.84.51-2.03.63-2.57 1.57m-12.45 3.8c2.19 1.9 5.88 2.57 8.52 1.11 1.15-.41 2.68-.62 3.42-1.64-2.54-2-6.59-2.29-9.56-1.33-.79.62-1.95.87-2.38 1.86m-11.96 5.17c2.39 1.64 6.13 1.9 8.59.16 1.1-.54 2.6-.92 3.22-2-2.75-1.71-6.81-1.54-9.65-.26-.71.69-1.84 1.07-2.16 2.1m-11.3 6.47c2.55 1.36 6.3 1.2 8.55-.8 1.04-.65 2.48-1.2 2.98-2.35-2.93-1.39-6.93-.77-9.62.82-.63.77-1.71 1.27-1.91 2.33m-10.51 7.69c2.69 1.07 6.4.49 8.41-1.75.95-.77 2.33-1.47 2.69-2.67-3.06-1.06-6.98.01-9.47 1.89-.53.83-1.55 1.46-1.63 2.53m-9.58 8.82c2.8.76 6.41-.23 8.16-2.68.87-.87 2.15-1.72 2.38-2.95-3.16-.7-6.93.79-9.2 2.94-.44.88-1.38 1.61-1.34 2.69m-8.54 9.84c2.86.45 6.35-.94 7.81-3.57.76-.96 1.94-1.95 2.03-3.2-3.22-.34-6.8 1.56-8.81 3.95-.34.91-1.19 1.75-1.03 2.82m-7.39 10.72c2.89.12 6.2-1.65 7.36-4.42.65-1.04 1.71-2.16 1.66-3.41-3.24.02-6.58 2.31-8.32 4.9-.22.96-.98 1.89-.7 2.93m-6.14 11.48c2.89-.2 5.98-2.33 6.82-5.22.53-1.1 1.47-2.33 1.27-3.57-3.21.38-6.28 3.03-7.72 5.8-.12.98-.77 1.99-.37 2.99m-4.83 12.1c2.85-.52 5.68-2.98 6.2-5.95.4-1.16 1.2-2.48.87-3.69-3.15.74-5.91 3.71-7.02 6.63-.02.99-.55 2.06-.05 3.01m-3.44 12.56c2.77-.84 5.31-3.6 5.49-6.6.27-1.19.91-2.6.45-3.77-3.06 1.08-5.46 4.35-6.24 7.37.1.99-.31 2.11.3 3M9.1 113.39c2.66-1.14 4.88-4.17 4.72-7.17.14-1.22.62-2.69.03-3.79-2.91 1.41-4.94 4.93-5.38 8.02.21.96-.07 2.12.63 2.94m-.57 13.01c2.52-1.43 4.38-4.69 3.89-7.65 0-1.23.31-2.74-.4-3.77-2.74 1.73-4.35 5.45-4.45 8.57.32.93.17 2.12.96 2.85m.89 13c2.34-1.7 3.83-5.15 3.01-8.04-.14-1.22.01-2.75-.81-3.71-2.53 2.03-3.72 5.9-3.46 9.01.41.9.39 2.09 1.26 2.74m2.33 12.81c2.14-1.96 3.23-5.54 2.1-8.32-.27-1.2-.31-2.74-1.23-3.59-2.28 2.29-3.04 6.28-2.44 9.34.52.84.64 2.02 1.57 2.57m3.75 12.47c1.9-2.18 2.59-5.87 1.15-8.51-.41-1.16-.61-2.69-1.62-3.43-2.01 2.54-2.32 6.58-1.38 9.56.61.78.86 1.95 1.85 2.38m5.11 11.97c1.65-2.38 1.92-6.12.19-8.58-.53-1.1-.9-2.6-1.99-3.23-1.71 2.74-1.57 6.8-.3 9.65.69.71 1.07 1.84 2.1 2.16m6.43 11.34c1.38-2.55 1.23-6.3-.76-8.56-.65-1.04-1.19-2.48-2.34-2.99-1.4 2.92-.8 6.93.78 9.62.75.64 1.26 1.72 2.32 1.93m8.02 10.99c1.07-2.69.48-6.4-1.76-8.4-.77-.96-1.47-2.33-2.67-2.7-1.05 3.06.01 6.97 1.89 9.46.84.55 1.47 1.57 2.54 1.64m8.83 9.58c.76-2.79-.23-6.41-2.69-8.15-.87-.86-1.72-2.15-2.95-2.38-.7 3.16.79 6.93 2.94 9.2.88.43 1.62 1.37 2.7 1.33m10.15 8.78c.43-2.87-.97-6.34-3.61-7.79-.96-.76-1.96-1.94-3.21-2.02-.34 3.22 1.58 6.79 3.98 8.8.94.32 1.77 1.17 2.84 1.01m10.87 7.41c.11-2.9-1.68-6.2-4.46-7.34-1.04-.65-2.16-1.7-3.42-1.65.03 3.24 2.34 6.57 4.95 8.29.96.24 1.89.99 2.93.7m11.97 6.29c-.23-2.89-2.39-5.95-5.28-6.77-1.11-.52-2.34-1.44-3.58-1.24.41 3.21 3.09 6.26 5.87 7.66.98.12 1.99.75 2.99.35m48.11 4.57c61.09 0 110.62-49.53 110.62-110.62S186.08 14.37 124.99 14.37c-61.1 0-110.63 49.53-110.63 110.62s49.53 110.62 110.63 110.62" fill="#fff"/><path d="M159.01 222.82c-1.25.39-2.93.3-3.49-1.42-.3-.99.9-2.25 2.63-2.57.95.13 2.19.46 2.54 1.67.43 1.29-.77 2.02-1.68 2.32m-5.81-11.46c-.39-1.16.43-1.86 1.29-2.16 1.21-.39 2.63-.04 3.11 1.51.3.91-.62 1.74-2.11 2.11-.87-.12-1.95-.34-2.29-1.46m12.49 6.42c-.78-2.5-2.41-3.66-4.61-4.22 1.12-1.55 1.64-2.97.95-5.13-1.29-4.18-5.51-4.48-8.53-3.53-1.77.56-3.41 1.51-4.44 3.19-.99 1.55-1.21 3.7-.6 5.64.65 2.03 1.94 2.35 3.88 2.82-1.55 1.42-2.2 4.59-1.47 6.87.69 2.11 2.2 3.49 4.05 3.96 1.68.43 3.58.13 5.12-.34 3.75-1.2 7.29-4.18 5.65-9.26m-27.31 9.09c-.73.08-2.11.13-2.89-6.33-.9-7.32.65-7.15 1.25-7.23s2.07-.6 2.97 6.72c.78 6.45-.6 6.75-1.33 6.84m-2.19-18.22c-5.73.69-6.94 6.89-6.24 12.53.65 5.51 3.49 11.02 9 10.38s6.98-6.68 6.33-12.19c-.69-5.64-3.37-11.41-9.09-10.72m-18.1 7.79c-.17 1.55-1.05 2.65-2.47 2.49-1.29-.12-1.78-1.51-1.66-2.88.11-1.46.92-2.74 2.3-2.58 1.33.12 1.94 1.51 1.83 2.97m-.35 6.67c-.26 1.84-.97 4.14-2.86 3.95-1.03-.07-1.61-1.07-1.63-2.24l-5.05.5c.17 4.01 2.67 6.26 6.02 6.55 2.84.28 5.19-.66 6.88-3.38 1.47-2.29 2.22-5.08 2.45-7.83.52-5.93-1.14-11.23-6.85-11.74-4.04-.39-7.71 1.99-8.16 6.97-.35 4.17 1.86 7.32 5.48 7.66 1.57.12 1.92.25 3.72-.44m-18.97-17.59-5.65 22.13 5.38 1.29 5.73-21.97-4.09-1.08-1.37-.37zm81.22-15.99-4.12 3.26 6.08 7.56 4 13.8 3.69-2.95-2.43-7.71 7.14 3.92 4.62-3.74-12.91-6.57-6.07-7.57zm23.39 1.03-13.1-11.54-3.36 3.87 13.1 11.54-2.41 2.72 4.18 3.62 8.23-9.39-4.18-3.62-2.46 2.8zm-9.18-16.67 19.21 12.58 3.02-4.57-19.21-12.58-3.02 4.57zm27.18-29.46.39-1.98 4.31.86-.43 2.16c-.08.52-.22 1.07-.6 1.46-.47.47-1.25.65-2.02.47-1.95-.34-1.86-1.8-1.65-2.97m-13.05-4.65 8.61 1.72-.3 1.68-9.13.82-1.21 5.9 10.47-1.17c.78 2.28 2.37 3.66 5.34 4.22 2.2.43 4.31.22 5.81-1.03 1.38-1.07 1.94-2.71 2.24-4.22l1.76-8.83-22.53-4.48-1.06 5.39zm1.34-8.83 5.51-.09-.08-7.97 3.7-.05.08 6.42 5.13-.09-.08-6.42 3.31-.04.09 7.97 5.3-.05-.17-13.26-22.96.3.17 13.28zm-1.46-21.36 23.56.3-.95-4.35-12.8.04h-2.24l2.11-1.03 11.5-5.43-1.25-5.56-21.14 10.6 1.21 5.43zm-3.75-13.61 21.28-8.62-2.07-5.04-21.28 8.61 2.07 5.05zm-9.22-18.05 9.13-5.64c1.33-.86 1.98-1.34 3.1-2.32l.17-.21h.09l-2.72 3.53-6.46 9.99 2.33 3.79 19.55-12.1-2.33-3.75-5.47 3.36-5.17 3.66h-.04l7.75-11.8-2.67-4.35-19.56 12.1 2.3 3.74zm-5.13-9.56c2.45 0 4.13-1.33 6.03-3.23l10.55-10.34-2.97-3.02-10.03 9.86c-.78.74-1.55 1.64-2.59 1.64-.69.08-1.42-.3-1.85-.73-.47-.52-.82-1.29-.6-2.11.26-.78.99-1.46 1.55-2.02l10.21-10.04-3.83-3.92-10.82 10.6c-1.93 1.94-3.23 3.7-3.1 6.16.12 1.81 1.29 3.66 2.41 4.82 1.3 1.3 2.89 2.33 5.04 2.33m-19.54-34.84 7.07 3.62 2.38-4.71-11.78-6.05-10.45 20.46 11.78 6.05 2.51-4.93-7.06-3.62 1.68-3.27 5.72 2.92 2.34-4.58-5.71-2.92 1.52-2.97zm-8.93-9.74-11.93-3.55-1.6 5.29 3.56 1.04-4.99 16.7 4.91 1.48 4.98-16.7 3.47 1.04 1.6-5.3zm-27.18 7.63 2.22-6.43.68 6.75-2.9-.32zm.76-13.42-8.26 22.08 4.37.54 1.66-4.35 4.67.53.41 4.64 5.49.65-2.67-23.42-5.67-.67zm-9.32-.59-12.48.56.26 5.51 3.7-.17.85 17.43 5.17-.21-.85-17.43 3.61-.17-.26-5.52zm-56.77 15.7 3.47 5.37 3.81 5.09v.08l-11.97-7.53-4.32 2.78 12.5 19.28 3.73-2.41-5.83-9.01c-.88-1.34-1.38-1.92-2.42-3l-.18-.25v-.04l3.56 2.6 10.11 6.32 3.73-2.41-12.5-19.28-3.69 2.41zM60.7 70.02 52.83 59.8l.04-.05 11.03 6.67 3.08-3.37L53.1 44.19l-2.8 3.05 8.14 10.73.01.04-11.56-6.99-2.83 3.18 8.18 10.64-.04.04-11.43-7.09-3.46 3.82 20.18 11.91 3.21-3.5zm-25.71 5.47c1.13-2.09 5.17-.2 7.12.89 1.95 1.05 5.56 3.28 4.38 5.45-1.22 2.17-4.99.24-6.95-.81-1.95-1.08-5.73-3.44-4.55-5.53m1.79 10.62c5.69 3.11 11.72 2.94 14.32-1.75 2.56-4.69-.49-9.94-6.17-13.05-6.04-3.31-11.89-3.06-14.49 1.67-2.61 4.72.3 9.81 6.34 13.13m-9.57 9.4 16.58 5.47 1.59-4.87-16.58-5.47 1.16-3.45-5.21-1.76-3.92 11.84 5.21 1.77 1.17-3.53zm-2.84 23.98c5.43-.17 6.39-3.27 7.69-6.42.26-.82 1.4-1.89 2.78-1.72 1.25.18 1.62 1.79 1.53 2.48-.22 1.55-.75 1.5-2.13 2.09l.52 5.13c5.38-1.94 5.71-2.15 6.5-6.5.66-3.59-1.16-8.05-6.63-8.79-2.45-.3-4.18.35-5.56 1.85-1.25 1.42-1.86 3.14-2.5 4.74-.26.65-1.25 1.85-2.45 1.72-1.16-.17-1.29-1.21-1.2-1.94.21-1.33 0-1.53 1.83-2.39l-2.67-4.05c-3.79 2.22-3.68 2.87-4.2 5.58-.33 1.7-.04 3.62 1.07 5.25 1.15 1.55 3.17 3.04 5.42 2.97m5.94 22.49c6.24-.56 11.11-3.79 10.68-8.91-.17-1.81-.89-4.76-2.96-5.67-3.88-2.64-7.56-1.64-9.96-1.4l.65 7.13 3.88-.34-.17-2.09c1.81-.13 2.97.77 3.1 2.15.09 1.12-.69 2.07-1.98 2.63-1.16.47-2.8.73-4.13.86-2.32.22-6.83.65-6.89-2.07-.04-1.83.63-2.22 2.44-2.56l-1.16-5.17c-5.17 1.25-6.37 3.87-6.35 8.12.01 2.6 1.33 4.61 4.22 6.03 2.47 1.24 5.62 1.55 8.63 1.29m15.16 12.4-10.16 3.36c-1.51.47-2.24.86-3.53 1.51l-.26.13h-.09l3.44-2.76 8.66-8.18-1.38-4.22-21.8 7.15 1.33 4.18 6.07-1.98 5.94-2.37.05.08-10.29 9.56 1.59 4.91 21.8-7.15-1.37-4.22zm8.27 19.21c.3-1.76-.39-3.79-1.21-5.17-.95-1.59-2.24-3.01-4.31-3.53-2.45-.56-4.35.34-6.67 1.72l-12.67 7.54 2.15 3.62 12.06-7.19c.95-.52 1.94-1.21 2.97-.99.69.13 1.25.65 1.59 1.21.34.6.52 1.46.13 2.15-.43.69-1.33 1.21-1.98 1.59l-12.32 7.32 2.8 4.74 13.01-7.71c2.34-1.42 4.07-2.84 4.45-5.3m3.37 19.56c-1.64 1.55-5.04 4.44-6.72 2.72-1.63-1.77 1.42-5 3.06-6.55 1.59-1.51 4.83-4.31 6.5-2.5 1.72 1.76-1.25 4.82-2.84 6.33m6.63-9.95c-3.66-3.88-9.61-2.54-14.34 1.98-4.95 4.7-6.46 10.33-2.76 14.25 3.7 3.88 9.43 2.67 14.39-2.03 4.73-4.51 6.41-10.33 2.71-14.2m4.34 17.37-12.19 7.54 3.84 2.78 6.85-4.46-1.91 7.96 4.86 3.42 2.81-14.18 5.65-7.94-4.27-3.05-5.64 7.93zm40.05-171.59c-1.76-.68-3.59-.65-5.31-.71-.69-.02-2.17-.53-2.46-1.7-.24-1.15.69-1.63 1.4-1.8 1.33-.26 1.43-.53 2.87.89l2.88-3.91c-3.39-2.79-3.96-2.46-6.69-2.01a6.958 6.958 0 0 0-4.56 2.83c-1.05 1.63-1.76 4.03-.91 6.12 2.04 5.03 5.28 4.87 8.68 4.99.86-.04 2.26.66 2.58 2.01.27 1.23-1.12 2.13-1.8 2.29-1.53.34-1.68-.18-2.7-1.28l-4.63 2.26c3.68 4.38 3.99 4.61 8.35 3.85 3.6-.62 7.15-3.88 5.95-9.26-.55-2.4-1.76-3.8-3.65-4.57m111.7 130.05c-5.25-1.39-7.07 1.31-9.2 3.95-.48.71-1.89 1.42-3.15.85-1.15-.52-1.04-2.17-.76-2.81.65-1.42 1.15-1.23 2.64-1.39l.97-5.06c-5.71.32-6.08.43-8.09 4.38-1.65 3.25-1.19 8.05 3.85 10.32 2.26.99 4.1.86 5.85-.18 1.6-1.01 2.67-2.49 3.75-3.83.43-.55 1.73-1.42 2.85-.95 1.07.5.9 1.53.6 2.2-.59 1.22-.44 1.46-2.44 1.77l1.4 4.64c4.27-1.04 4.35-1.69 5.62-4.14.8-1.54 1.07-3.45.47-5.34-.68-1.83-2.18-3.84-4.36-4.41"/><path d="M124.99 206.58c45.06 0 81.59-36.53 81.59-81.59S170.05 43.4 124.99 43.4c-45.07 0-81.6 36.53-81.6 81.59s36.53 81.59 81.6 81.59" fill="#c8102e"/><path d="M201.49 134.08c.3 2.02-.35 3.92-1.68 5.38-.73-.56-2.37-.9-2.03-2.02.74-.74 1.25-1.73.99-2.71-.26-.35-.73-.69-1.12-.39-.86 1.59-1.64 4.44-4.13 4.14-1.55-.09-2.93-.95-3.44-2.46-.43-1.81.13-3.58 1.03-5 .82.14 1.47.78 2.2 1.17.34.78-.65 1.04-.65 1.68-.21.56-.26 1.51.52 1.76 1.6-.86.86-3.27 2.8-4.09 1.08-.26 2.41-.65 3.44 0 .94.51 1.94 1.46 2.07 2.54m-12.19 5.9c0 1.08-.99 1.89-.65 2.97l6.68 1.89 1.03 1.03c.13.82-.13 1.81-.78 2.46-2.84.13-5.34-1.38-8.06-1.94-.52.91-.6 1.98-.91 2.97 3.15.86 6.21 2.71 9.61 2.15 2.2-.99 2.63-3.36 3.06-5.38-.38-5.33-6.54-4.73-9.98-6.15m-1.9 14.51.65-1.16c.78-1.55-1.38-1.21-2.07-1.81l-3.06 6.68c.56.43 1.42.78 2.15 1.16l1.03-1.94 7.54 3.45c.39-.99 1.38-1.85 1.16-2.93-2.45-1.16-5.12-2.11-7.4-3.45m-2.92 11.32c2.18-1.63-.94-1.59-1.79-2.04l1.79 2.04m7.4-2.87c.56 1.07-.86 1.94-1.29 2.92-.6.13-1.38-.17-2.07-.25l-1.9 2.84c-.17 1.04 1.81 1.46.78 2.54-.56.65-.95 1.72-1.68 1.93l-6.68-9.09c.18-1.16.87-2.11 1.68-2.97l11.16 2.08zm-14.86 10.5c.43-.39.77-.78.65-1.42-.39-.95-1.81-.95-2.2 0 .38.52.9 1.21 1.55 1.42m3.57-.25 4.87.52c-.04 1.12-1.72 1.85-2.54 2.8-1.47-.04-2.76-.9-4.14-.78.74.91 2.03 1.6 2.2 2.72l-2.07 1.94-7.54-7.84.26-.78c2.24-1.85 5.12-5.73 8.05-2.54.78.99 1.21 2.45.65 3.7l.26.26zm-8.95 9.86-.39-.39c-1.03-1.29 1.29-1.68 1.89-2.54-.08-.91-.91-1.64-1.51-2.2-.99.43-1.94 2.15-2.97 1.29-1.04-1.46 1.51-1.55 2.07-2.72-.08-.86-.73-1.72-1.55-2.02l-4.73 3.45-.13.39c2.07 3.02 4.31 6.03 6.55 8.83l5-3.7c-.13-.95-.69-1.42-1.29-2.2-1.22.09-1.87 1.46-2.94 1.81m-8.49 5.77c.47-.17 1.25-.65 1.03-1.29-.26-.95-1.59-.6-2.15 0 .34.43.3 1.38 1.12 1.29m-2.15-3.7c.3-.17.78-.52.78-.9-.13-.99-1.12-.73-1.68-.39.29.43.33 1.16.9 1.29m3.31-.65a2.93 2.93 0 0 1 2.32.91c.6.95.99 2.11.65 3.31-1.42 2.11-3.88 2.8-5.9 3.96l-.78-.9c-1.29-3.06-3.32-5.86-4.48-8.96 2.33-.65 4.87-3.62 7.28-1.42.91.69 1 2.07.91 3.1m-13.44 1.51 4.74 9.52c.86-.26 1.59-.77 2.41-1.16-.95-3.49-3.1-6.46-4.48-9.74-.99.17-2.15.56-2.67 1.38m-2.45 8.87c-.82-2.5-1.42-5.04-2.41-7.45-.9.3-1.89.43-2.71.9l2.71 9.35.52.78 5.73-1.81c-.22-.74-.04-1.68-.6-2.28-1.09.17-2.17.73-3.24.51m-94.2-51.77c-.22 2.71 1.81.34 2.71 0h-2.71m6.16-2.71c.34 1.08.99 1.98.9 3.23-3.1 2.33-6.08 5-9.22 7.15-.3-1.55-1.81-3.66.64-4.48l-1.03-3.32-2.2-.26c-.22-.95-.95-2.02-.52-2.97l11.43.65m6.29 15.76c-1.94.73-3.83 1.59-5.64 2.59.86-2.46 2.37-4.91 3.31-7.45l-1.25-2.54c-3.36 1.42-6.59 3.1-9.86 4.61.13 1.07.78 2.11 1.25 2.93l5.25-2.67h.39c-.77 3.19-5.56 6.5-2.15 9.73l9.73-4.48c-.13-1-.73-1.82-1.03-2.72m3.05 6.03-9.48 5c.09.95.78 1.98 1.42 2.84l9.35-5.12c-.04-1.08-.85-1.82-1.29-2.72m3.36 12.32c.99-1.73 1.59-3.58 2.28-5.38-.65-.9-1.34-1.51-2.28-1.94-2.8 2.37-5.94 4.26-8.61 6.67.64.56 1.38 1.55 2.19 1.9l4.22-3.32c-.21 1.29-1.03 2.63-1.55 3.97-.3.77-1.07 2.06.26 2.58a41.27 41.27 0 0 0 5.51-2.46l.13.13c-.91 1.59-2.24 3.01-3.19 4.61.65.78 1.38 1.81 2.33 2.07 1.89-3.14 4.35-6.03 6.11-9.21-1.88-4.32-5.03.42-7.4.38m15.77 6.11c-1.68 1.98-2.93 4.44-4.87 6.29-.6.39-1.68-.13-1.68-.39l-.13.13c-.6-.44-.82-.99-.91-1.64l4.35-6.55c-.47-.86-1.51-1.46-2.41-1.81-1.68 2.88-4.83 5.3-5 8.61.21 1.86 1.85 3.62 3.58 4.35 4.82 2.15 6.63-4.22 9.09-6.68.43-1.19-1.33-1.53-2.02-2.31m5.9 3.75c-1.29.26-2.28 1.38-2.71 2.54-.09.78-.39 1.94.26 2.59.47 1.25 3.18 1.9 1.81 3.32-1.38.04-2.45-1.38-3.1-2.28l-2.02 1.51c.78 2.15 3.06 3.49 5.25 3.62.95-.3 2.02-.39 2.67-1.42.77-.86.82-2.02.77-3.23-.39-1.25-1.59-1.98-2.54-2.93-.26-.3-.13-.82.21-1.03 1.16-.04 1.98.95 2.71 1.68.65-.6 1.9-.86 1.94-1.81-1.5-1.52-2.97-2.73-5.25-2.56m37.77-137.39c-.43 2.84-1.68 5.3-2.54 7.97-1.99-.13-1.21-3.4-3.62-3.83-1.68-.65-4.14-1.12-5.6.34-.26.34-.82.6-.78 1.03.82.52 1.85.91 2.15 1.94.6 1.64-.86 2.89-1.77 3.97h-.26c-1.38-3.75-2.5-7.63-3.49-11.54.69-.52 1.98-.04 2.84-.39 4.2.55 8.9-.05 13.07.51m-19.46.26c-5.9.6-11.2 2.72-16.54 4.61l-.65.65c5.9 4.22 11.33 9.52 17.32 13.48.73-2.33 3.06-3.88 4.87-5.51-1.47-4.49-3.15-8.88-5-13.23m43.2 5.64c-6.29-2.76-13.14-4.65-20.24-5.64-1.55 3.53-3.19 7.06-4.27 10.77.86.9 1.9 1.72 2.2 2.84-.56 2.67 2.41 3.53 2.67 5.9 6.63-4.22 13.01-9 19.51-13.48l.13-.39m-40.75 16.8c-7.84-5.34-16.02-10.38-24.12-15.38-6.72 3.36-13.4 7.76-19.21 13.31v.39l33.21 4.35h2.02c1.81-2.8 5.09-2.54 8.1-2.67m44.71-14.86c-7.37 4.7-14.95 9-22.31 13.7v.26c1.99.34 4.22 1.34 4.87 3.44l29.64-4.22 5.47-.9v-.27c-3.36-3.14-7.02-6.16-10.86-8.44l-.13-.65v.39c-1.9-1.04-4.05-2.15-6.03-3.32h-.65zm22.05 16.28-39.75 3.19c-1.55 2.24-3.88 3.14-6.25 2.58-.43.82-.3 2.54-.12 3.32l3.18.13 45.36 2.16 6.42.13c-1.72-3.4-4.52-6.55-7.19-9.34l.13-.13-1.78-2.04zm-114.31.99c-3.62 4.05-7.28 8.27-9.48 12.97h.26l32.39-3.32 21.41-2.19c1.55.52 1.16-1.25 1.42-2.07-2.41-.26-5.51-.17-6.94-2.67l-39.06-2.72zm15.64 69.21h-7.71l-.26 1.03c0 2.54 2.89 4.05 4.74 5l16.67.12-.13-.39a13.35 13.35 0 0 1-3.96-3.96c-.39-.6-.22-1.64-1.03-1.81l-6.94.13-1.38-.12zm113.28-42.03c-1.29-.74-2.67-1.25-4.35-1.03-1.03.56-2.45.73-2.97 2.07-.56 1.12-.13 2.45.65 3.31-3.53.3-7.67 0-10.9.26-.78 2.02-2.37 3.87-4.09 5.25-.26.6-.56 1.55-.26 2.06l19.6-.51c1.85-.82 3.66-2.76 4.22-4.61.64-2.63-.36-4.99-1.9-6.8m-137.66 3.61c-.39-1.16-1.64-1.42-2.54-1.94-1.59-.52-3.06.17-4.09 1.42-1.12 1.51-1.64 3.58-1.04 5.51 1.38 2.63 3.88 5 6.81 5.6 6.42-.17 12.1-.13 18.31-.47-2.76-2.02-4.78-5-6.55-7.71l-6.37-.39c-1.52-.68-5.18 1.13-4.53-2.02m103.07 1.25-.9-.26c-4.78.47-10.17.17-15.25.26-.86.47-.95 1.46-1.42 2.2-1.2 2.76 1.98 3.53 3.19 5.25l9.74-.13 4.64-7.32zm-56.56.78c-5.43-.39-12.36.21-18.18 0l-1.55.26v.39c2.46 2.24 3.96 4.87 5.9 7.32 2.97-.3 6.5 0 9.61-.26.73-1.77 2.84-2.59 4.09-4.26.82-1 .69-2.37.13-3.45m88.56 7.96-20.24.39-1.29 3.44c-.65 1.46-2.11 2.63-2.8 4.09h12.71c3.75-.78 8.18 1.33 10.73-2.32 1.12-1.33 1.77-3.01 1.29-4.87l-.4-.73zm-38.68.61c-2.03.04-4.44-.09-6.55.13.34 2.54-.09 5.21-.39 7.45h2.59c1.46-2.32 2.67-4.78 4.35-7.06v-.52zm-54.23.9c-2.63-.09-5.47.17-8.19.26 1.55 2.5 3.19 4.91 4.61 7.45l4.35-.13c.39-1.64-1.04-2.54-1.55-3.84-.68-1.5.74-2.57.78-3.74m-24.59.39c-6.5.3-12.58 0-19.21.26-.65.82-.95 1.9-.65 2.97.86 1.89 2.63 3.96 4.74 4.48 6.5-.09 13.14.17 19.47-.26-1.85-2.33-3.32-4.78-4.35-7.45m73.7 7.84c-1.03.09-2.33.3-3.1.26.13 2.11.04 4.22-.13 5.98l3.49-5.98-.26-.26zm38.16.64c-6.46-.13-13.83.17-20.5.26-1.38 2.63-5 4.39-5.25 7.53l15.12-.39c2.24-.52 5.51.69 7.45-1.03 2.4-1.33 3.35-3.74 3.18-6.37m-85.59.74c-1.03-.22-2.71-.09-3.83-.13 1.21 2.59 3.1 4.96 4.48 7.32-.04-2.33-.99-4.52-.65-7.19m-20.11.39-20.37.26-.26.26c-.21 2.85 2.02 5.21 4.35 6.42l21.93.12c-1.91-2.37-4.06-4.57-5.65-7.06m99.71 8.09c-6.85.26-14.08-.04-20.29.26-.47.69-.56 1.51-.86 2.28-.6 1.38-1.94 2.58-2.07 4l18.44-.39 1.55-.65c2.03-1.23 3.23-3.21 3.23-5.5m-94.07.91c-7.02.22-13.09-.52-18.87.13-.6.73-.26 1.42-.39 2.41.65 1.85 2.37 2.84 4.01 3.57l17.14.13v-.26c-1.72-1.42-2.15-3.79-1.89-5.98m28.3 11.88c-3.4-1.2-6.5-3.83-9.09-6.5 1.2 3.06 2.84 5.94 4.48 8.83l4.74-.13c.17-.82.3-1.46-.13-2.2m57.42-4.47c-5.56.26-10.81.08-16.02.13-.95 1.77-2.33 3.53-4.09 4.74-.05.52-.65 1.21-.13 1.55l16.28-.26 1.68-1.16c1.72-1.17 2.49-3.11 2.28-5m-35.37 1.55c-1.98 1.12-3.87 2.58-5.9 3.31.04.69-.69 1.25-.26 1.94l3.83-.26c.57-1.77 1.47-3.35 2.33-4.99m28.56 6.41c-5.04.26-9.39-.05-14.47.26-.65 1.55-1.21 3.15-2.16 4.61l12.27.13 2.07-.78c1.43-.9 2.46-2.58 2.29-4.22m-84.55.39c-.86.78-.56 1.85-.26 2.8.47 1.12 1.64 1.59 2.67 1.81l14.52-.39c-.77-1.25-1.59-2.5-1.42-4.09l-15.51-.13zm36.14 1.64c-.6-2.93-4.05-.86-6.29-1.29.56 1.51 1.51 2.8 2.45 4.13l5.73-.26V151l-1.89-.25m13.56-1.38-1.29 1.89h-1.89c-.3.73-.56 1.64-.26 2.46l4.35-.13c.56-1.42 1.38-2.71 1.68-4.22h-2.59zm-16.02-42.94c-1.25.3-2.45 1.12-3.32 2.15-2.07 1.03-4.01 3.23-5 5.25l1.94.78c1.6-2.59 3.71-5.34 6.38-7.15v-1.03zm25.5 6.89c-2.15-3.02-5.21-5.56-8.44-6.89l-.12 1.89c1.98 1.72 3.87 3.7 4.99 5.9.74 1.6 2.41-.21 3.58-.39v-.51m-25.25-4.09c-2.07 1.25-3.49 3.4-4.87 5.25v.78l3.1.9c.78-2.24 3.28-4.22 1.77-6.93m20.63 6.03c-.82-1.94-2.54-3.62-4.09-5.13-.47 2.11-.78 4.44.78 6.16 1.2-.13 2.45-.43 3.31-1.03m5.64 0c-1.16.26-2.15 1.03-3.31 1.29.52 2.15 1.38 4.18 1.42 6.55.26 2.5 2.24.56 4.22 1.12.13-3.19-.86-6.25-2.33-8.96m-33.81.9c-.74-.26-1.33-.78-2.2-.78-1.25 2.89-2.37 6.03-2.15 9.35h2.54c.22-3.01.99-5.77 1.81-8.57m5 1.55c-1.16-.22-2.24-.6-3.36-.9-1.29 2.32-1.68 5.21-1.64 7.92 1.33-.08 2.89.22 4.09-.26.13-2.32.74-4.6.91-6.76m23.95-.64c-1.12.21-2.24.56-3.31.9.6 2.07.9 4.22 1.29 6.37 1.16-.04 2.46.13 3.58-.13.17-1.81-.26-3.4-.65-5l-.91-2.14zm-20.38 1.37-2.07-.21c-.47 2.02-1.16 4.18-.86 6.37 1.16-.04 2.45.13 3.58-.13l-.65-6.03zm16.29 1.55c-.3-.6-.43-2.63-1.68-1.55-.17 1.9-.13 3.88-.52 5.64l.26.26c.86-.04 1.81.13 2.58-.13-.13-1.42-.22-2.88-.64-4.22m11.28 5.91c-1.16-.13-2.54.09-4.09 0l-.78 4.35c-.09 1.38-1.42 2.45-1.03 3.71 1.12.26 2.24 1.07 3.31 1.03.95-1.72 1.86-3.49 2.2-5.51l-.26-.26c.78-.74.61-2.29.65-3.32m-5.64 0c-1.46-.08-2.45.17-3.58.13-.04 2.41-.99 4.44-1.16 6.8.95.26 2.11.39 2.93.52 1.07-2.29 1.72-4.74 1.81-7.45m-7.84.13c-.6 1.85-.43 4.01-.65 6.03.65.34 1.64.43 2.2.26.73-1.98 1.25-4.14 1.16-6.29h-2.71zm-13.31.12c-1.16.22-2.5.09-3.71.13.17 2.2.52 4.35 1.38 6.29 1.03-.09 2.02-.3 2.97-.65l-.64-5.77zm-9.35.26c-.05 2.8.86 5.3 2.15 7.45l3.23-.91.13-.52c-.73-1.94-1.25-3.92-1.42-6.03h-4.09zm-1.55.26c-.78-.47-1.89-.17-2.8-.26.08 3.1.77 6.42 2.67 8.82l2.07-.9c-1.03-2.36-1.68-4.95-1.94-7.66m24.98 6.81c-.35-.3-.91 0-1.29-.26-.47.99-.6 2.8-.34 3.83.69-1.16 1.76-2.28 1.63-3.57m-13.44-.13c-.77.17-1.63.13-2.32.52.39 1.59 1.64 2.93 2.84 4.22.08-1.33-.17-2.85-.26-4.22l-.26-.52zm17.79 1.12c-1.16-.13-3.53-1.55-3.44.9-.73 2.11-3.79 3.45-3.06 6.03 2.58-1.38 4.95-3.92 6.5-6.42v-.51zm-21.62-.39c-1.12.3-2.32.43-3.36.9 1.81 3.23 4.82 6.24 8.23 7.19-.04-.6.09-1.29-.13-1.81-1.85-1.85-3.7-3.96-4.74-6.28m26.36 1.94-3.19-1.03c-1.86 3.4-5.34 6.33-8.31 8.36.04.39-.43.99.13 1.12 4.35-1.2 8.48-3.79 11.37-7.79v-.66zm-21.23 8.22c-3.88-1.85-7.71-5.12-10.25-8.74-.69.34-1.64.3-2.07 1.03 2.15 3.4 5.51 5.73 9.09 7.06v-.39c.09-.09.13-.18.26-.13.05 1.64 1.98 1.03 2.97 1.51v-.34m6.5 32c-1.85-.17-1.59-2.93-3.96-1.89.78 2.71-2.45.6-3.32 1.76 0 .65.39 1.12.91 1.55 3.01 1.51 7.06 2.07 10.25.52-.04-.73.08-1.55-.13-2.2-1.16.31-2.5.57-3.75.26m-6.89 2.07c-3.14-3.18-2.03 2.67-2.45 4.22.73.39 1.42 1.16 2.19 1.03.09-1.76.35-3.57.26-5.25m12.15.52c-.39.13-.82.21-1.12.52-.17 1.51-.73 3.06-.52 4.61l1.25-.65c.21-1.55.69-3.01.39-4.48m-10.51.52v5.25c.91.39 1.89.39 2.97.39.09-1.64.35-3.36.26-4.87l-3.23-.77zm7.84.51c-.95-.13-1.64.74-2.59.26-.6 1.34-.43 2.97-.65 4.48.39 1.2 1.68-.13 2.59 0 .34-1.55.56-3.27.65-4.74m-10 5.65c-1.2-.22-2.15-2.29-3.49-1.04-3.58 2.89-5.94 6.94-5.86 11.41 1.2 4.57 6.37 5 10.25 5.86 6.97.05 15.16.86 19.08-5.64.65-4.69-3.14-8.44-6.42-11.63-2.89 1.85-6.72 2.67-10.25 1.9l-3.31-.86zm47.3-77.32c2.67-4.65 7.75-8.27 9.22-13.44-5.9 6.55-10.47 13.52-15.64 20.5l-16.28 26.79c-3.57 6.63-6.81 13.44-9.61 20.37.52-.08.95-.3 1.42-.52 7.71-18.94 18.61-36.68 30.89-53.7m-.91-5.34c5.6-6.24 11.59-11.84 18.05-16.54-.73 5.47-3.36 10.47-5.64 15.51-2.97 6.07-9.39 10.68-14.99 13.95 3.19-.04 6.16-1.59 8.49-3.83-2.67 8.79-10.47 17.36-19 21.28 2.8.47 5.13-.9 7.32-2.2-.6 5.78-4.82 10.38-8.96 14.86-2.46 2.28-5.26 4.35-8.1 5.64 2.5.78 5-.69 7.19-1.81-1.12 4.18-4.26 7.49-7.45 10.77-3.36 2.63-6.42 5.43-9.74 7.97l-.52.26-3.19 6.03c-.65.56-1.51.26-2.2 0-.52-.47-.13-1.16 0-1.68 9.58-24.81 21.17-48.76 38.74-70.21m-54.36 54.31c-3.71-9.13-7.97-18-13.18-26.53-7.58-11.88-15.46-23.9-26.01-34.33 15.16 19.25 29.55 38.85 37.82 60.99.43-.04.99.09 1.37-.13m-47.29-69.6c13.31 8.96 23.78 21.67 32.17 34.76 10.25 16.63 18.18 34.24 24.73 52.42h-2.03c-1.46-3.4-2.63-6.93-4.61-10.12-6.07-1.51-12.32-7.41-13.35-13.74 1.29 1.07 2.63 2.93 4.61 2.2-6.37-5.08-12.4-11.93-14.73-19.47.73.09 1.42 1.08 2.19 1.38 1.34.91 3.02 1.03 4.61 1.29l.26-.26c-9.13-4.18-15.94-13.83-19.86-22.44 1.64 1.51 3.66 2.41 6.03 1.81l.99-.52c-2.33-.86-4.87-1.77-7.02-3.32-7.23-5.55-10.2-13.95-13.47-21.66-.18-.78-.74-1.55-.52-2.33"/><path d="M122.36 189.12c-.95 1.94-.82 6.11-4.09 5.77-1.72-.13-3.32-.65-4.74-1.55.13-2.24 2.07-4.05 3.19-6.03 1.64 1.21 3.49 1.94 5.64 1.81" fill="#fff"/><path d="m132.52 92.95-3.7 53.32c.86.43 1.81-.69 2.45-.13l-1.03 3.32-2.2.26-.65 1.94h-3.71l-.39-1.94-2.93-.13c-.13-1.03-.39-2.07-.39-3.19.82-.26 1.55.52 2.54.26v-2.42l-3.83-42.29c-.17-4.57-1.2-8.92-1.03-13.48h14.99l-.12 4.48zm-5.9-40.36c-.74-.69-2.37-1.21-3.06-.26l.91 1.42c.56 2.76-1.98 4.78-3.96 6.42v.25c2.63-.73 5.77-2.32 6.63-5.12.21-.9.26-2.02-.52-2.71m2.46 7.71c.21-1.2.26-2.8-.9-3.49-3.06 5.6-11.98 5.17-12.19 12.71 1.42.47 3.19.17 4.78.26-.48-5.22 5.72-6.33 8.31-9.48m2.41 2.41c-.22-.39-.26-1.07-.73-1.16-1.98 2.93-5.51 3.19-7.32 6.16-.22.6-.65 1.46-.13 2.07l11.54-.13c-.25-1.51 0-3.23-1.16-4.35-1.08 1.21-2.62 2.67-4.35 2.41l1.68-1.64c.69-.9.73-2.24.47-3.36m8.23 9.74c-5.56-.65-11.5-.34-16.92-.26-3.88-.13-7.58-.3-11.42.13-.56.56-1.55.91-1.25 1.94.39.56 1.12.95 1.77 1.16h25.5c.99-.09 2.02-.26 2.58-1.16.08-.52.38-1.43-.26-1.81m-6.16 4.73c-6.12.3-10.73 0-17.19.26-.17 1.29-.17 2.97 0 4.13h17.19l.26-4.01-.26-.38zm3.83 5.77c-9.3.09-16.58-.13-25.11.26-.39.52-.39 1.16-.39 1.81.08.69.77 1.03 1.29 1.42h22.83l1.38-1.29c0-.73.6-1.55 0-2.2" fill="#ffc72c"/></svg>