<svg xmlns="http://www.w3.org/2000/svg" width="1000" height="1000"><path fill="rgba(255,255,255,0)" d="M0 0h1000v1000H0z"/><g vector-effect="non-scaling-stroke" transform="matrix(5.5844 0 0 5.5844 1564.4946 1538.3633)" fill-rule="evenodd"><path d="M-255.02-270.286s30.333 12.666 61.665-1.333c0 0 29.778 14.333 66.442-2.001l.223 119.553s-3.777 2.444-2.445 6.888c0 0-10.22 31.555-35.11 34.444 0 0-19.777 3.555-25.554 15.777 0 0-6.889-13.556-30.666-16 0 0-18.666-1.111-32.443-32.221 0 0 1.777-2.668-2-7.112z" fill="#e30016"/><path d="M-234.241-228.065h85.553v69.554s-1.333 1.555-1.111 4.888c0 0-4.667 12.666-18.222 18.444 0 0-19.11 2.889-22.666 10.445 0 0-2.221-6.667-21.777-10 0 0-12.222-2-20.222-18.445 0 0 1.112-1.777-1.555-3.777z" fill="#fff"/><g fill="#e30016"><path d="M-187.354-175.176h6.223s3.111 4.888 4.223 5.777c0 0-5.333 1.555-10.445-5.777m.889 6.444l3.777 2.888 2.667.223s-.223 12-1.556 13.11c0 0-4 4.445-7.777 2.445 0 0 4-1.777 2.889-18.666m-17.11-4l-2.667 2.223 2.444 1.555zm-9.557 1.555s-10.222-10.666 1.556-20.889c0 0-3.556-7.554 4-10.666 0 0-5.556-9.556 8.666-9.556 0 0 7.332-12.746 15.554-1.111 0 0 14 1.417 8.222 8.041 0 0 11.556 6.403 5.333 12.181 0 0 11.333 7.333 2.667 20 0 0 20.889-6.223 3.333-20.222 0 0 9.333-4.221-3.777-11.333 0 0 6.444-5.777-9.112-9.333 0 0-1.777-8.221-18.444-6 0 0-5.333.889-9.556 6.666 0 0-13.556 4.888-9.333 10.221 0 0-12 6.445-3.777 11.333 0 0-17.333 12.222 4.667 20.666"/><path d="M-207.131-199.843s6.889 4.221 10.222 1.333c0 0 10.444-2.223 10.221 8.888 0 0 .444 2.667 2.667.889l3.333-13.556 2-1.777v2.221s-.888 15.778-12.444 23.333c0 0 4.333-8.333 2-11.11 0 0-3.889-5.444-10.11-4.221 0 0-4 1-6.112.221 0 0 0-1.444 1.556-2.221 0 0-2.777-1.779-3.333-4m7.444 24.443h5.445v18.333s.555 3.555 2.667 4.221c0 0-4 3.889-7.889-2.333z"/></g><g fill="#fff"><path d="M-243.721-152.29l4.203-3.637.489 1.617-2.907 2.307 3.708.339.417 1.376-5.505-.661-2.331.707-.407-1.34zm3.884 9.046l2.615-2.063-.013-.033-3.333.339zm-4.213-2.721l7.861-.665.648 1.557-6.036 5.044-.553-1.327 1.269-1.073-1.009-2.42-1.655.143zm6.244 11.168l3.619-5.72-.055-.007-5.076 3.583-.767-1.087 6.137-4.332 1.223 1.733-3.392 5.475.053.004 4.809-3.395.765 1.085-6.136 4.332zm6.67 3.901l.957-.816 1.751 2.049-2.873 2.452c-.431-.256-.817-.582-1.141-.964-.372-.339-.72-.705-1.041-1.093q-1.828-2.453.873-4.856 2.859-2.345 5.027-.18 2.027 2.379.153 3.932l-.981-1.147q.959-.819.096-1.828-1.223-1.369-3.313.371-2.016 1.767-.857 3.188.349.409.941.851-.056-.001.045.053l1.205-1.027zm2.803 4.579l5.869-1.196-2.187-2.184.889-.889 3.407 3.403-.891.889-5.843 1.224 2.364 2.36-.889.892-3.609-3.607zm5.987 5.877l4.385-6.1 1.136.819-1.729 2.407 2.04 1.467 1.731-2.407 1.167.84-4.384 6.099-1.137-.816 1.92-2.671-2.072-1.489-1.92 2.669zm10.114 1.204q-1.321 2.377.153 3.197 1.444.805 2.767-1.572 1.344-2.413-.103-3.219-1.475-.82-2.817 1.593m-1.317-.733q1.968-3.32 4.707-1.889 2.629 1.557.851 4.98-1.912 3.213-4.62 1.799-2.693-1.592-.937-4.889m14.586 1.792l-1.249 4.541q-.848 2.673-3.537 2.017-2.713-.831-2.041-3.552l1.249-4.541 1.387.381-1.088 3.955q-.391 1.281-.208 1.837.196.645.992.863.8.22 1.26-.243.44-.384.761-1.685l1.088-3.955zm20.201-3.248l1.02 4.599q.504 2.76-2.18 3.437-2.788.536-3.467-2.183l-1.02-4.6 1.403-.311.889 4.004q.256 1.316.676 1.72.475.48 1.28.3.807-.18 1-.804.211-.547-.115-1.848l-.889-4.003zm7.294 5.349l-4.44-5.108-.021.051 1.973 5.889-1.26.424-2.387-7.124 2.009-.673 4.271 4.821.02-.051-1.872-5.581 1.261-.423 2.387 7.122zm4.68-2.015l-1.324.556-2.911-6.925 1.324-.556zm-1.864-7.236l1.4-.651 4.061 4.653.032-.016-.931-6.103 1.271-.591.947 7.844-1.403.649zm6.816-3.723l3.595-2.631.744 1.016-2.436 1.781 1.031 1.409 2.261-1.653.744 1.013-2.261 1.656 1.176 1.607 2.52-1.845.744 1.016-3.683 2.693zm8.493-2.695l.933-.729q.792-.621.141-1.453-.601-.767-1.369-.115l-.932.731zm2.629 3.357l-1.132.887-4.632-5.915 2.235-1.751q1.807-1.364 3.012.117.873 1.173.051 2.28l.027.033q.9-.656 1.96.577c.064.052.124.109.177.172q.915.987 1.384 1.184l-1.215.952c-.527-.436-1.012-.919-1.449-1.444q-.659-.724-1.083-.389l-1.187.931zm3.159-10.366q-.819-.792-1.567-.067-.692.784-.095 1.451.541.663 1.612-.093c.049-.037.102-.068.157-.095q2.044-1.247 3.093-.113 1.613 1.716-.341 3.724-1.859 1.8-3.557-.001l1.032-1.001q.905.933 1.76.216.903-.929.276-1.624-.536-.555-1.636.116c-.073.05-.153.089-.237.116q-1.971 1.12-3.016.04-1.531-1.739.261-3.707 1.635-1.411 3.236.089zm7.074-.631l-.883 1.133-5.933-4.605.881-1.135zm-4.936-5.997l2.873-4.559 1.064.671-1.053 1.672 5.292 3.333-.767 1.217-5.292-3.333-1.052 1.671zm8.849-5.62l-5.553-.208.745-1.515 3.699.297-2.48-2.78.635-1.289 3.573 4.237 2.187 1.075-.619 1.257zm-72.197-97.126s-1.084.629-.453 2.903c0 0 .419 1.259 1.188.979 0 0 .804.596.525-2.587 0 0 .253-1.087-.533-.953 0 0-.133.077-.343-.027 0 0 .097-.211-.384-.316m2.273-2.492s.629-.76.972-.76c0 0 .733.393.68.709 0 0 .289 1.652.107 3.383 0 0 .524.263.708-.105 0 0 .551-.577.628-.551 0 0 .291.236.16.236 0 0 .131 1.548-.053 1.6 0 0-.053.971-1.312.579 0 0-.184.077-.289.077 0 0 .027 1.941.157 2.467 0 0 .316 2.387-.315 2.387 0 0 0 .236-.629.236 0 0-.393.027-.735-.813l.184-8.341s-.42-.395-.261-1.101m4.327-.735s.393-.211.815.445c0 0 .392 1.784.315 2.099 0 0-.053.84.787.917 0 0 .971.184 1.232-.42 0 0 .184.604 0 1.26 0 0 .368 1.18-.996 1.496 0 0-.552.236-.787-.525 0 0-.447-.027-.499.341 0 0 .472 3.488.34 4.013 0 0-.367.681-.655.787 0 0-.499.157-.499-.077 0 0-.027.129-.315-.264l.131-7.869c.052-.236-.025-.971-.105-1.023s-.289-.787.236-1.18m3.712-1.613s-.056-.897 1.177-1.569c0 0 1.177.28.952 1.907 0 0 .507 17.32-.112 17.32 0 0-.783.897-1.456 1.009l-.056-18.05c-.056 0-.505-.616-.505-.616m-37.492 5.761s.687-1.483 1.109-1.747 1.164-1.005 1.536-1.429c0 0 .035-2.435.088-2.84s.688-.971.741-1.165 1.324 1.076 1.287 1.429-.033 1.588-.016 1.393c0 0 .053.196.477.512 0 0 .421.459.351.813l-.775.933s-.053.319-.143.248-.033 1.357-.033 1.357-.053.371.139.387c0 0 .337-.051.441-.051 0 0 .671-.829 1.129-1.219l.477-.404c.088-.071.387-.476.371-.777a85.53 85.53 0 0 1 .336-4.235c.052-.3.459-1.676 1.447-1.411 0 0 .493.669.44 1.059 0 0-.185 2.276-.072 2.171.009-.007.017.013.027.048l.017.085a4.18 4.18 0 0 1 .041.304c.06.624.133 1.701.393 1.785h1.059s.372-1.324.283-2.436h-.583s.017.495-.071.512-.415 0-.415 0v-.881l-.344-.292s.052-.08.291-.661c0 0 .053-.317.371-.397 0 0 .531.925.688.715 0 0 .344.133.424-.107 0 0 .187-2.593-.344-2.911 0 0-.107-.423-1.456-.159 0 0-.768.16-.663-.449 0 0-.107-.689 1.747-.741 0 0 1.085.107 1.351 1.271 0 0 .741 1.111.424 3.044s-.795 5.213-1.721 5.609c0 0-.211.16-1.507.292 0 0-.477.821-.637.901 0 0 0 .556 1.06 0 0 0 2.091-.953 2.805-.664 0 0 1.112.531-.608 1.483 0 0-.823.583-1.245.927 0 0-.635.609.132.503 0 0 2.568-.636 4.261 1.271 0 0 2.752 1.88-.9 6.033 0 0-.952 1.8-4.023 2.648 0 0-.344.503-1.297-.292 0 0-.027-.369-1.403.027 0 0-.845-.715-.105-1.403 0 0 1.192-.873 1.508-1.667 0 0 1.8-2.012 1.429-2.117 0 0 .16-.397-.317-.213 0 0-.027-.052-.344.133 0 0-2.171 2.753-2.515 2.753 0 0-.316.556-.873.025 0 0-.211-.688-.187-.925l3.257-3.627c.132-.239.609-.741.979-.635s.347 1.269.319 1.244c0 0 .793.212.845-.133 0 0 .319-.371.611-.661 0 0 .847.768.899 1.139 0 0-.239.952-1.72 2.54 0 0-1.323 1.589-1.613 2.092 0 0-.452 0-.08.476 0 0 .264.688 2.515-1.191 0 0 1.853-1.853 2.064-2.779l.476-.795s.187-2.013.053-2.117c0 0-.317-1.376-3.627-1.007 0 0-1.191-.369-1.64.267 0 0-.504 0-1.059 1.004 0 0-.688 1.007-.875 1.033 0 0-.317 1.191-.768 1.191 0 0-.528.476-1.084 0 0 0-.476-.105.16-.9 0 0 3.147-3.493 3.915-4.129 0 0 .213-.503-.396-.556 0 0-1.059.635-2.381 1.827 0 0-.583.396-1.165-.187 0 0-.451-.74.344-1.32 0 0 1.456-1.671 2.04-2.12l-.053-.503s-.444.08-1.033-.397-1.403 1.431-1.456 1.324c0 0-.583.98-.688 1.297s-.317 1.747-.317 1.587c0 0-.08 4.077.027 4.288 0 0 .105 1.483-.848 1.853 0 0-.635.397-1.269-.211 0 0-.9-.399-.953-1.245 0 0 .397-.371.713-.157 0 0 .028-.053.08-.24s.053-2.276.107-2.54c0 0-.08-.423-.556-.16 0 0-.371.583-.556.821 0 0 .053 1.324-.107 1.324 0 0-.264.529-.687.264 0 0-.821-.317-.663-.82 0 0 .371-1.112 1.217-1.747 0 0 1.059-1.059 1.192-1.588 0 0 .212-1.589.08-2.408 0 0-.399.105-.477 0 0 0-.477.397-.635.157 0 0-.479.265-1.035-.132z"/><path d="M-227.037-252.482s.832-.245.943-.795.027-.008.027-.008l.804.22s.035 1.757-1.079 2.584zm49.372 6.952s-.245 0-.528.177l-1.872.563s-1.869-.281-.281-1.623c0 0 1.976-.107 3.495-1.165 0 0 .987-.6 1.303-6.209 0 0 .531-.636.777-.777 0 0 1.093.495.671 1.624l-.811 3.635s-.141.777 0 .917.212.211 1.659.105c0 0 2.328.493 0 1.624 0 0-1.129.107-2.296.387 0 0-.069.071-.387.495 0 0-.353.743-.071 1.236 0 0 .917.917 1.236 1.8 0 0 1.269 2.893 3.071 3.916l2.187 2.331s.46.917-2.4 1.093c.001 0-1.057-.176-1.552-1.093 0 0-2.507-2.719-3.071-5.576 0 0-.212-.671-.564-.46 0 0-.459.037-.6.565 0 0-.071.847-.883 1.905 0 0-.176.176-.775.884 0 0-1.272 1.304-2.26 1.621 0 0-.917.107.707-1.271 0 0 1.588-1.093 2.68-3.952l.707-2.4s.035-.317-.141-.352m21.246-4.909s0-.529 1.093-2.083c0 0 1.129-1.093 1.095.988 0 0 .072 1.695.459 1.624 0 0 .531.493.493-1.341 0 0-.423-1.2.529-2.081 0 0 .777-.564 1.236.493 0 0-.212 1.447.387 1.447 0 0 .248.248.707-.847 0 0 .107.248.141-.847 0 0-.493-.493-.141-.741 0 0 .741-.6 1.165-1.129l.14-.317s-.069-1.235.036-1.269.317-.741 1.2 0l.071.88.141.284s2.153.565-.493 2.152l-.036.707.14.176s1.165.317 1.236.671c0 0 .353.176-1.693 1.235l-.213.388.037 1.483s1.093.493-.177 1.271v.457l.036.107s3.033-.316 3.176-.107c0 0 3.811 1.165-.283 3.248 0 0-1.695.317.424-1.588 0 0 .811-1.059-1.588-.776 0 0-3.529.247-4.024.6l-3.457 1.587s-1.024.424-.247-.671c0 0 2.399-1.023 3.421-1.8 0 0 .388-.211 1.413-1.235 0 0 .211-.352.071-.705 0 0-.107-.671-.072-1.023 0 0-1.093-.565-1.589-.141 0 0 .319 1.94-1.023 1.976 0 0-.457.176-.987-.389l-.424-.035s-.883 2.576-2.081-.387c0 0-.46-1.165-.32-2.26m.425 8.962s.247-.74-.177-1.2l-.069-1.2c0-.105-.107-1.659-1.131 0 0 0-.6.92-.635 1.2l-.036 1.307s.353 1.695 2.048-.107m3.741-1.906s3.247-2.541 3.636.387c0 0 .035.848-1.272 2.189l-.071.669s.353.776.425 1.376l.211.177s1.624-.248 2.364-.141c0 0 .953 0 1.093.528 0 0-.035.425-.847.955 0 0-.705.283-1.059-.036 0 0-1.2-.211-1.481 0 0 0-.495-.069-.671.847l-.107.247s-.14 1.871-1.447 3.213c0 0-1.2.775-1.976-.6 0-.001-.317-.424.883-.355 0 0 .317.107.847-.845 0 0 .741-1.165.6-2.224 0 0 .035-.212-.671-.176 0 0-2.223.281-2.963.705 0 0-2.26-.319-.213-1.448 0 0 1.341-.035 3.528-.421 0 0 .988-.072.46-1.307 0 0-.953-1.023 0-1.624 0 0 .317-.352.671-1.164 0 0 .177-.669-.565-.353 0 0-1.657.955-1.376-.6"/></g><path d="M-192.242-184.788c0 2.6-1.387 5.002-3.639 6.302s-5.026 1.3-7.277 0-3.639-3.702-3.639-6.302a7.28 7.28 0 0 1 7.277-7.277 7.28 7.28 0 0 1 7.277 7.277" fill="#e30016"/><g fill="#fff"><path d="M-202.02-191.816s-4.111 4.487-.888 13.694l1.777.944s-4.223-9.089 1.111-15.11zm2.889-.361s5.555 6.982 1.111 14.778l2.112-.932s3.111-6.632-1.556-13.613zm-.111 15.222h-.779v-15.556h.779z"/><path d="M-192.354-188.288h-13.889v-1h13.889zm1.667 3.668h-17.666v-1.335h17.666zm-.444 3.777h-15.889v-1.112h15.889z"/></g></g></svg>