<svg xmlns="http://www.w3.org/2000/svg" height="143.709" viewBox="0 0 26.034 5.245" width="695.852" fill-rule="evenodd"><path d="M11.427 1.29c-.189-.105-.47-.157-.859-.157-.532.001-1.027.113-1.213.183-.042.014-.087.051-.088.114v.014l.053.269.001.005a.11.11 0 0 0 .102.079h.001q.019-.002.033-.006l.089-.021c.232-.058.583-.148.974-.148.238 0 .397.021.504.067.174.067.175.181.176.37v.282h-.105a6 6 0 0 0-.939.069c-.566.088-1.034.226-1.031 1.017 0 1.005.918 1.006 1.359 1.008a4 4 0 0 0 .756-.083c.411-.097.517-.23.511-.645V2.035c0-.255.001-.572-.323-.746zm-.226 2.58a2.3 2.3 0 0 1-.713.108v.024-.024c-.406-.003-.802-.05-.802-.575.003-.418.222-.468.5-.53l.019-.004c.247-.054.868-.063.996-.065zm5.136-1.835v1.671c.005.415-.1.548-.511.645-.18.038-.456.083-.756.083-.441-.001-1.359-.003-1.359-1.007-.003-.791.465-.929 1.03-1.017.37-.06.748-.07.939-.07l.106.001v-.282c-.002-.189-.003-.302-.177-.369-.107-.046-.267-.067-.504-.067-.392 0-.742.089-.974.148l-.088.021a.106.106 0 0 1-.135-.074l-.001-.005-.053-.269V1.43a.12.12 0 0 1 .088-.114c.187-.071.681-.183 1.214-.183.389 0 .67.052.859.157.324.174.323.491.322.746zm-.548.768c-.129.001-.749.011-.996.065l-.02.004c-.278.063-.497.112-.5.53.001.525.397.573.803.575v.024-.024q.383 0 .713-.108zm8.857-1.671c-1.278.002-1.386.855-1.388 1.654s.11 1.646 1.388 1.648 1.386-.849 1.388-1.648c-.001-.836-.11-1.652-1.388-1.654m0 2.835c-.775-.004-.814-.407-.819-1.181.005-.777.044-1.183.819-1.187.775.003.814.41.82 1.187-.005.774-.044 1.177-.819 1.181zm-2.294.349-.033.008a3 3 0 0 1-.852.109h-.001c-1.183-.002-1.415-.608-1.416-1.654.001-1.199.376-1.646 1.381-1.647a3 3 0 0 1 .775.09l-.001-.966c-.001-.042.017-.098.116-.117l.314-.081h.017c.072.002.098.067.098.123v3.63c.005.23-.022.426-.398.506zm-.147-2.629a3 3 0 0 0-.728-.094c-.605.006-.86.173-.866 1.193.007 1.121.335 1.181.871 1.187v.024-.024c.333 0 .62-.071.722-.099zm-2.823 2.67h-.28a.13.13 0 0 1-.132-.134V2.07c-.005-.364-.113-.466-.499-.471a4.2 4.2 0 0 0-1.026.152v2.473c0 .078-.053.134-.126.134h-.287a.13.13 0 0 1-.132-.134V1.808c-.004-.223.016-.378.33-.481.3-.105.873-.194 1.253-.194.722.001 1.031.266 1.032.885v2.206a.13.13 0 0 1-.132.134zm-6.364.058c.162-.003.281-.035.328-.089q.024-.03.022-.062c-.002-.032-.001-.018-.045-.229l-.001-.005c-.01-.055-.048-.08-.08-.08h-.005l-.081-.001c-.115-.004-.211-.021-.213-.192V.18c0-.059-.035-.12-.103-.122h-.02l-.315.082c-.053.005-.11.044-.107.116V3.77c.001.416.221.646.62.646zm-4.444-.058H6.319a.13.13 0 0 1-.132-.134v-.279c-.001-.069.02-.099.062-.151l1.795-2.118H6.285a.13.13 0 0 1-.132-.134v-.198a.13.13 0 0 1 .132-.134h2.278a.13.13 0 0 1 .132.134v.285a.2.2 0 0 1-.057.141l-1.8 2.122h1.736a.13.13 0 0 1 .132.134v.198a.13.13 0 0 1-.132.134" fill="#1d1d1b"/><path d="M1.045 5.245a.7.7 0 0 1-.355-.079c-.079-.046-.223-.163-.353-.51C.129 4.101.005 3.422 0 2.625v-.003C.005 1.823.129 1.144.337.588.466.242.611.124.691.079A.66.66 0 0 1 1.044 0a2 2 0 0 1 .258.023c.578.095 1.219.326 1.902.72l.002.001c.678.404 1.195.851 1.566 1.312.231.288.258.474.258.566s-.028.278-.258.566c-.37.461-.888.909-1.566 1.312l-.003.002c-.683.394-1.323.625-1.902.72q-.15.024-.258.023" fill="#ff6900"/></svg>