<svg xmlns="http://www.w3.org/2000/svg" width="1000" height="1000"><path fill="rgba(255,255,255,0)" d="M0 0h1000v1000H0z"/><g fill="#004ea2"><path d="M499.999.62c275.05 0 499.379 224.328 499.379 499.372S775.05 999.37 499.999 999.37.62 775.043.62 499.992 224.955.62 500 .62zm0 19.9c-264.086 0-479.478 215.386-479.478 479.472S235.913 979.47 499.999 979.47s479.485-215.385 479.485-479.478S764.092 20.521 500 20.521zM324.597 712.827a278.067 278.067 0 0 1-74.308-95.448 273.98 273.98 0 0 1-26.3-117.386c0-152.007 123.99-275.995 276.01-275.995s276.002 123.988 276.002 275.995c0 41.907-9.443 81.722-26.299 117.386a277.884 277.884 0 0 1-74.308 95.448l-6.328-7.652a268.3 268.3 0 0 0 71.666-92.032 264.114 264.114 0 0 0 25.326-113.157c0-146.531-119.514-266.052-266.052-266.052s-266.059 119.52-266.059 266.052c0 40.434 9.09 78.804 25.326 113.157a268.413 268.413 0 0 0 71.66 92.032l-6.336 7.652z"/><path d="m501.67 754.875-56.523-86.246c17.356-8.935 15.207-36.798.338-39.117-16.553-2.593-29.73-3.39-41.344-29.413h26.926l-8.266-22.571c-30.808 2.706-37.094-5.856-51.702-29.92l38.483-1.319-7.78-19.639c-41.936 1.945-53-8.336-63.47-32.232l48.862-1.712-10.577-23.368c-50.04 1.396-60.631-.02-78.981-33.86l62.16-.303-8.766-22.26c-56.657 2.445-70.807-3.1-86.845-31.436l127.35-3.22c18.56-.473 39.75 12.176 47.559 29.011l15.312 33.043 16.116-55.614c8.308-28.652 70.926-18.265 91.08.804l-37.876 13.699 18.533 45.127c13.43-31.428 29.885-66.085 65.288-66.085H732.48c-9.612 27.603-32.817 41.365-83.258 32.437l-8.865 23.367 62.3-.19c-14.91 34.762-31.456 39.13-77.796 33.86l-9.675 23.367 49.595 1.614c-9.541 22.028-26.813 35.198-65.098 30.618l-8.062 22.754 39.49-.183c-11.316 27.68-18.624 33.86-54.619 32.239l-8.252 22.564 28.448.105c-11.958 24.093-15.503 26.954-41.026 29.216-15.172 1.346-21.937 25.637-1.734 40.033l-52.259 84.83zM72.363 666.684l-18.83-50.526 10.29-3.58 86.308 13.164-13.205-35.438 10.288-3.58 17.237 46.27-10.282 3.586-86.309-13.142 14.784 39.666-10.281 3.58zm32.866 68.904-5.2-10.098 40.596-20.88-12.874-25.037-40.597 20.872-5.2-10.084 86.781-44.634 5.2 10.098-36.551 18.787 12.881 25.044 36.552-18.8 5.187 10.104-86.775 44.628zm41.16 54.972-30.83-43.056 81.391-50.547 29.33 40.956-9.042 5.616-22.38-31.252-25.242 15.679 20.562 28.709-9.034 5.616-20.562-28.716-29.04 18.04 23.889 33.352-9.041 5.603zm69.165 67.677-10.33-8.717 59.904-73.596 10.338 8.723-59.912 73.59zm46.396 32.422 12.276-26.094-14.876-10.774-22.148 21.563-10.112-7.815 70.22-69.39 14.087 8.59-37.404 90.7-12.043-6.78zm17.941-38.856 14.643-33.627-1.353-1.106-25.319 25.756 12.03 8.977zm52.45 72.878-12.685-5.898 7.4-67.712-27.737 56.924-12.656-5.821 44.014-87.162 11.43 5.3-5.313 64.33 28.61-53.12 10.648 4.426-43.711 88.733zm65.535 19.548-8.182-2.67.754-7.667c-1.91 1.642-4.453 2.691-7.61 3.164s-6.328.197-9.541-.846c-6.765-2.199-11.762-7.505-14.989-15.919s-2.6-19.991 1.938-34.733c4.968-16.095 11.07-27.307 18.329-33.62s18.265-9.81 28.01-6.688c10.493 3.347 17.3 16.25 14.284 34.106l-12.529-1.028c2.164-7.646 1.064-19.576-6.405-22.008-6.053-1.966-12.84-.105-17.152 4.715s-8.52 13.91-12.642 27.285c-3.904 12.677-4.99 21.93-3.263 27.778s4.7 9.45 8.865 10.81 7.97.81 11.388-1.67 6.18-7.138 8.287-13.974l1.747-5.658-14.939-4.87 3.01-9.76 24.578 8.02-13.938 45.233zm129.823-21.5c-.282 8.788-2.636 15.673-7.033 20.648s-11.197 7.272-20.365 6.927-15.792-3.15-19.858-8.442-5.976-12.34-5.687-21.127l2.15-66.486 11.711.437-2.149 66.486c-.204 6.23 1.015 10.86 3.636 13.89s6.138 4.643 10.542 4.82 8.02-1.184 10.831-4.01 4.32-7.343 4.524-13.58l2.157-66.486 11.704.437-2.163 66.486zm66.62 17.751-10.443 1.579-32.923-63.45 5.032 68.122-12.41 1.776-7.286-95.52 14.284-1.324 27.151 44.507-5.038-47.904 10.366-1.776 11.267 93.99zm35.678-10.006-12.247 3.714-25.46-90.41 12.247-3.715 25.46 90.41zM663.034 815.9l15.482 99.818-12.079 5.954-52.872-84.723 11.634-4.898 36.75 57.77-10.19-69.016 11.275-4.905zm98.197 56.579L716.61 896.6l-48.581-83.42 42.436-22.93 5.398 9.26-32.38 17.496 15.066 25.87 29.744-16.075 5.398 9.26-29.759 16.08 17.336 29.76 34.571-18.682 5.39 9.26zm50.836-35.643-9.817 8.386-34.578-28.646-8.943 8.097 23.367 31.781-9.809 10.275-57.234-80.348 18.244-13.065c5.835-4.186 13.502-7.173 20.408-6.349 17.821 2.121 25.439 14.129 24.621 28.089-.253 4.404-.507 8.695-2.233 13.064l35.974 28.716zm-61.674-56.6c-7.265-1.98-12.987 3.636-18.216 7.723l19.02 25.115c5.813-4.186 8.519-5.095 12.916-12.677 1.903-9.119-2.17-17.004-13.72-20.16zm92.546-20.978c19.95 11.986 15.298 45.994-10.923 49.969-7.054 1.064-15.348-1.064-18.914-3.32l4.482-10.175c4.32.965 8.696 2.523 12.84 1.74 16.99-3.234 16.242-20.886 6.335-28.2-3.453-2.552-8.393-2.876-12.48-2.425-11.466 1.283-18.808 9.838-31.563 10.634-13.946.88-23.656-7.625-25.932-21.197a28.11 28.11 0 0 1 4.087-19.773c7.378-11.55 23.036-13.114 34.445-6.385l-4.44 10.493c-6.166-3.277-17.116-3.263-21.239 3.185-2.15 3.376-2.896 6.829-2.248 10.345 1.43 7.66 6.667 12.106 14.045 11.218 12.38-1.508 20.752-11.69 32.936-11.296 5.807.198 12.692 1.656 18.569 5.187zm42.083-12.396-7.188 8.816-82.257-51.575 7.188-8.816 82.257 51.575zm-41.52-104.046-9.104 16.87 77.69 45.685-5.235 9.703-77.684-45.691-9.104 16.87-9.704-5.708L833.8 637.11l9.703 5.707zm14.249-64.175 47.383 42.352 31.64 13.544-3.855 10.668-29.315-11.345-67.487-1.564 3.242-10.81 47.094.76-33.346-30.68 4.644-12.925zM208.297 815.738c-8.379 8.343-16.208 12.656-23.466 12.896s-13.826-2.636-19.738-8.661c-5.384-5.475-8.048-11.86-7.984-19.16.028-3.7 1.106-7.505 3.213-11.416l10.669 6.518a12.784 12.784 0 0 0-1.43 5.3c-.106 3.974 1.12 7.286 3.678 9.9 3.6 3.665 7.378 5.314 11.331 4.982s8.773-3.312 14.46-8.963l47.432-46.96 8.851 9.013-47.016 46.55zM369.69 799.29l-33.254-20.633 3.016-5.222 12.346 7.674 19.78-34.43-12.36-7.675 2.692-4.672c4.679 2.897 8.4 4.545 11.19 4.898s5.11-.74 6.998-3.354l7.089 4.383-26.567 46.29 12.072 7.484-3.002 5.257zm99.162-21.02c.529-2.643-.387-5.032-2.762-7.196s-6.025-3.544-10.895-4.22c-4.467-.614-8.251-.325-11.415.866s-5.032 3.094-5.581 5.8c-.402 1.966 0 3.706 1.176 5.256s3.094 3.066 5.772 4.546L450.58 786l6.708 2.833c3.918-1.254 6.688-2.77 8.35-4.411 1.65-1.705 2.728-3.763 3.214-6.152zm-4.32 29.786c.5-2.452.148-4.447-1.014-6.089-1.205-1.641-3.742-3.48-7.653-5.545a66.733 66.733 0 0 0-5.208-2.382l-7.399-3.157c-3.671 1-6.638 2.417-8.865 4.284a11.839 11.839 0 0 0-4.171 6.9c-.726 3.579.352 6.7 3.206 9.512s6.8 4.553 11.831 5.222c5.145.74 9.464.289 12.96-1.261s5.623-4.066 6.313-7.484zm-20.611 14.636c-4.532-.648-8.576-1.642-12.12-3.03s-6.449-3.065-8.739-5.095c-2.24-1.93-3.805-4.066-4.693-6.448a12.966 12.966 0 0 1-.6-7.194c.663-3.193 2.566-5.934 5.758-8.252s7.427-3.904 12.776-4.806l.05-.226c-4.158-2.318-7.104-4.608-8.88-6.927a9.513 9.513 0 0 1-1.705-7.963c.902-4.481 4.256-7.8 10.028-10.027s12.684-2.805 20.647-1.705c8.322 1.155 14.685 3.48 19.104 7.025 4.432 3.481 6.2 7.449 5.32 11.797-.536 2.65-2.255 5.101-5.172 7.35s-6.786 3.805-11.592 4.608l-.036.26c4.982 2.354 8.626 4.863 10.895 7.54a10.5 10.5 0 0 1 2.304 9.415c-1.029 5.06-4.707 8.9-11.07 11.508s-13.784 3.368-22.275 2.17zm115.032-36.46c0-4.059-.564-7.385-1.67-9.929s-2.678-4.517-4.658-5.898c-1.741-1.297-3.53-2.199-5.335-2.678s-3.791-.712-5.969-.712c-4.932 0-8.864 1.191-11.782 3.545s-4.404 5.736-4.404 10.218c0 2.544.465 4.573 1.437 6.222s2.523 3.065 4.722 4.228a16.137 16.137 0 0 0 5.158 1.677 41.647 41.647 0 0 0 6.187.423c2.558 0 5.356-.324 8.301-.909a39.04 39.04 0 0 0 7.773-2.382l.162-1.613a22.69 22.69 0 0 0 .078-2.192zm-46.03-5.123c0-3.094.754-5.898 2.234-8.414a21.14 21.14 0 0 1 6.194-6.61c2.466-1.776 5.51-3.122 9.125-4.13s7.216-1.48 10.93-1.48c4.122 0 7.864.452 11.204 1.382s6.25 2.255 8.696 3.996c3.094 2.198 5.483 5.066 7.195 8.61s2.558 8.062 2.558 13.51c0 4.932-.832 9.64-2.509 14.05-1.656 4.454-4.094 8.126-7.35 11.022-3.445 3.094-7.589 5.482-12.43 7.096s-10.817 2.452-17.927 2.452c-1.593 0-3.305-.035-5.11-.155a39.673 39.673 0 0 1-5.066-.683v-7.674h.613c1.008.395 2.565.775 4.708 1.1a39.462 39.462 0 0 0 6.483.514c7.864 0 14.051-1.713 18.54-5.159s7.04-8.413 7.639-14.826a49.687 49.687 0 0 1-9.161 3.192 42.14 42.14 0 0 1-9.492 1c-3.34 0-6.35-.253-9.09-.74s-5.483-1.416-8.238-2.797c-3.228-1.642-5.645-3.706-7.287-6.194s-2.46-5.518-2.46-9.062zm130.366-51.096-2.192 61.638-9.45 5.969.839-58.284-36.01 17.469-3.17-6.927 45.275-23.502 4.708 3.637zm45.275-471.396c-6.652-4.468-1.409-5.039-.07-11.726 1.148-5.743-1.614-12.952.12-16.87 4.686-10.563 18.18-4.404 25.143 2.34 1.24 1.197 2.093 4.15 2.74 6.976 1.608 7.033 2.918 16.828-5.432 20.527-7.202 3.2-16.715 2.643-22.5-1.247zm-78.381-44.24-.6-.578 1.1-2.255c2.614.043 27.588-4.996 27.764-5.546 7.611-2.276 14.82-5.334 19.421-12.078-16.06-1.036-33.634 3.953-48.777-.824-6.152-4.412-9.337-9.971-13.29-13.946l.26-.824c-5.736-8.182-3.848-15.003 5.849-14.418 13.487 9.203 40.37 7.674 56.424 7.928 3.678-.141 13.966.246 17.546-1.614 11.078-18.223 16.757-38.673 25.369-56.896 10.168-11.613 15.658 1.755 20.576 11.042.627 1.184 1.55 3.355 2.22 6.56.24.078 2.093 10.282-5.51 13.348a77.346 77.346 0 0 0-17.005 27.933c10.747 2.607 20.45-3.82 32.296.698.655 6.581-1.55 11.084-8.576 13.558l-32.493 1.19c-6.215 8.957-14.96 19.47-25.1 24.72-1.48.769-8.372 3.433-9.866 3.658-7.773 1.149-15.221 3.354-22.91 2.516-21.203-2.312-21.083-3.291-24.698-4.172zm-249.978 34.508c-8.745-1.571-18.287-9.132-24.03-13.903l.655-6.744c14.777-18.575 29.64-36.129 41.992-56.91 3.016-9.083 7.484-18.913 10.895-28.004.197-.19.669-1.134.592-1.367 3.748-4.89 5.475-6.37 11.028-1.41 1.628 4.948-6.462 12.58-7.604 18.167-1.987 9.795-7.23 34.466-10.88 43.853-2.332 5.99-12.304 39.257-18.364 44.648a51.817 51.817 0 0 0-4.284 1.67zm91.664-92.848c-11.458 2.473-16.574-3.947-24.48-8.922-.973-2.945.373-5.214.063-7.335 2.67-1.396 10.493-5.018 15.56-6.68 6.13-3.193 19.836-19.07 26.728-15.588 4.46 13.558-6.899 31.393-17.87 38.525zm-92.764 1.021c-5.327-2.691-10.746-19.963-12.536-25.39.67-10.668 10.408-13.614 20.274-9.414 8.801 6.9 14.164 9.31 9.957 21.14-5.99 8.767-9.33 10.127-17.695 13.664zm81.778-30.435c-2.572-5.031 1.797-18.35-1.021-20.555-2.636 1.127-5.187 2.882-8.02 3.812-7.68-1.522-17.342-7.871-16.299-15.01 3.559-7.046 1.98-5.094 9.76-7.645l20.027-15.729c12.1-5.687 19.766-.24 23.797 12.015-.148 8.66-3.869 16.419-7.47 24.135-5.785 5.433-10.83 11.134-15.911 16.722l-4.863 2.255zm-79.008-17.877c-3.291-1.656-2.495-3.22-1.706-5.97-1.705-5.178-5.968-8.61-7.596-13.564-.712-9.69-3.361-12.6 3.136-19.048 6.624 1.086 30.139 6.279 28.243 19.175-3.798 8.688-14.1 16.257-22.077 19.407zm-159.942 349.12c-10.034 7.518-30.019 2.733-33.134-10.825-2.198-9.576-14.354-36.551-19.547-51.11-2.615-4.538-5.652-8.033-3.968-13.185 3.369-.993 7.343 2.594 10.352 5.363 1.515-.437 3.862-4.2 3.678-6.75l-3.05-32.74-8.09-6.674c-1.798 5.384-7.872 22.98-14.207 13.875 1.367-7.173 1.903-19.026-2.347-26.002-5.355-5.461-12.888-9.006-15.397-15.038.698-8.52 13.657-11.057 21.437-7.949 6.208.275 5.616-11.345 13.381 7.582.275 3.115 3.376 4.947 6.871 6.575l1.579-2.114-.635-25.77c-7.948-7.449-14.615-13.629-19.505-22.79-.345-8.949 9.619-14.53 18.336-17.546 2.67-4.897 2.543-9.07 2.1-15.242.514-1.98.514-1.98 2.515-5.13 3.052.105 5.624 1.085 9.105 2.988 7.342 8.808-6.265 37.136 7.667 38.792 2.614-4.792-1.438-9.541-3.742-13.346.521-6.913 10.838-15.99 18.209-18.893 11.098-1.43 10.654 4.827 11.084 14.383l1.755 3.784 34.565 22.106c6.243 5.376 6.92 14.283 7.554 16.975.401 1.706 3.312 14.383-3.22 15.482l-48.842-31.16a2.417 2.417 0 0 0-.26.986c7.215 6.2 17.193 23.649 17.835 33.613-3.566 6.532-10.55 9.506-17.047 7.942-1.219-1.656-.831-3.136-1.148-5.144-5.039-8.118-19.097-15.503-26.264-19.978-2.473 5.574 3.672 21.5 5.603 28.06l1.303 11.592 15.56 16.546 6.363 9.83-.416.761c2.544 4.92 8.245 19.33-1.318 19.774l-2.663-1.6c-3.284-7.448-9.387-15.425-15.842-19.66-1.881 7.596 1.086 15.65-2.34 21.894-2.092 3.826-6.207 5.743-9.132 6.962-3.1 1.297-5.066 1.966-5.27 3.122l8.737 10.133 32.035 41.774c.902 3.847.754 4.897-.24 7.751zm-70.291-61.512c-4.06.183-6.272-4.553-9.471-6.723-11.226-2.734-19.647-4.644-23.762-15.496a30.513 30.513 0 0 1 1.494-3.002c5.694-2.41 16.412-4.193 23.649-4.763 13.896 2.494 9.887 19.942 8.09 29.984zm-30.295-31.5c-2.29 1.86-2.776 1.452-3.882 1.41-1.572-2.551-2.227-4.46-4.8-5.44-12.275.225-25.34-8.45-23.557-21.042 2.15-2.643 4.588-1.17 9.323 0 10.246-2.466 25.404-9.534 26.722 7.033-.888 6.074-2.488 12.261-3.806 18.04zm700.868-30.787c-5.257-9.83 8.477-20.9 14.72-24.678 9.014 1.917 9.056 16.426 3.038 23.346-8.477 5.786-9.457 6.906-17.758 1.332zm-15.658 97.979c-.127-.43-.148-.775-.247-1.036-10.302-8.95-18.645-18.998-24.297-30.654.36-1.17.36-1.17 1.41-2.389 8.061 2.072 14.509 9.979 23.712 8.45 4.764-3.587 8.766-6.674 11.916-10.676-10.204-8.872-22.042-7.167-32.401-11.895-6.92-6.018-12.713-23.375-9.513-30.457 8.294-8.407 6.307-2.903 15.848 5.398 12.557 8.618 29.308 12.987 44.12 18.639 3.82.521 3.82.521 5.539 1.19 9.168-4.678 12-4.347 20.668 1.368 4.228 1.374 4.228 1.374 17.462 4.503l3.129-1.713c-14.037-10.894-34.24-10.71-50.906-13.854-6.314-3.516-9.267-8.061-11.198-13.022-2.501-1.853-17.187-11.987-6.222-11 5.165 2.191 10.627 2.332 16.313 4.489 15.68 2.952 31.958 8.23 47.905 12.395 1.465-1.684 1.712-3.108 1.846-3.826 2.142-2.086 3.587-2.798 5.792-3.834-2.544-1.226-2.945-1.91-4.714-.81-8.668-3.263-16.638-.331-15.99-11.106-6.581 3.974-13.966 3.967-19.582-.916-2.671-8.076 6.095-17.215 9.252-22.367.113-.88 2.805-5.123 5.32-10.654 2.474-7.385 3.446-17.392 10.895-18.963 6.166 1.416 8.59 2.036 6.708 10.436.698 4.87 1.367 14.171.487 18.35-1.417 6.723-3.87 16.341-10.084 21.789 4.474 1.092 11.733 1.818 13.184-3.82-2.17-7.152 4.75-8.865 9.605-7.265 2.192 2.396 2.192 2.396 5.447 5.074 1.057-1.22.966-1.304 1.05-2.537-2.558-5.18-.902-5.391 3.256-7.52-2.89-6.13.091-12.578 5.158-14.248l24.523 13.756c9.154-1.071 27.384-10.704 32.768-.261-.416 5.39-3.56 12.029-8.872 16.44-3.087 1.092-6.23 1.494-8.908 3.439.839.733 1.607 1.557 2.361 2.382 8.188 2.685 13.946 1.924 9.112 13.346 2.494 8.083 5.13 9.225-4.496 14.996l-35.84 11.74a5.92 5.92 0 0 0-1.163.958l2.276 3.622c-2.882 4.073-7.06 8.499-11.338 12.663-8.146 1.621-12.304-2.48-18.244-6.983l-28.758-8.9c-1.234 1.233-2.657 2.297-3.644 4.56l9.894 9.42c1.29 5.892-5.482 12.17-11.521 13.82-4.18-3.136-6.85-4.8-11.155-6.075l-6.364 4.49c-6.567 7.222-19.562 27.644-31.499 19.068zm105.385-65.824a6.935 6.935 0 0 0-.331-.945c5.715-5.06 7.42-7.025 1.508-11.183-1.642.38-4.757 1.127-4.82-.895-.07-2.177 10.415-4.594 12.015-5.496 2.995 2.6 7.385 7.568 7.744 12.649-4.15 4.763-9.619 5.764-16.116 5.87z" fill-rule="evenodd"/></g></svg>