<svg xmlns="http://www.w3.org/2000/svg" width="1000" height="1000" xml:space="preserve"><rect width="100%" height="100%" fill="rgba(255,255,255,0)"/><g><path style="stroke:none;stroke-width:1;stroke-dasharray:none;stroke-linecap:butt;stroke-dashoffset:0;stroke-linejoin:miter;stroke-miterlimit:4;is-custom-font:none;font-file-url:none;fill:#000;fill-rule:evenodd;opacity:1" transform="translate(0 291.22) scale(.9756)" d="M273.346 71.521h-39.609c2.034-12.576 9.001-19.036 20.229-19.036 11.217 0 18.871 7.643 19.38 19.036m26.348 12.411c0-31.116-17.509-50.662-45.563-50.662-27.706 0-46.411 19.546-46.411 48.448 0 30.267 18.36 49.645 47.263 49.645 22.955 0 38.761-10.884 44.546-30.939h-27.034c-2.72 7.311-8.508 11.051-17.002 11.051-12.92 0-20.905-7.821-21.591-21.425h65.627c.165-2.723.165-5.102.165-6.118M117.531 128.642h25.496V83.08c0-19.888 5.62-29.413 17.344-29.413 10.71 0 14.791 5.953 14.791 21.084v53.891h25.496V72.031c0-14.282-2.036-21.594-7.477-27.875-5.443-6.295-14.789-10.376-23.972-10.376-9.855 0-19.545 4.933-26.182 13.262V.793h-25.496v127.849"/><path style="stroke:none;stroke-width:1;stroke-dasharray:none;stroke-linecap:butt;stroke-dashoffset:0;stroke-linejoin:miter;stroke-miterlimit:4;is-custom-font:none;font-file-url:none;fill:#000;fill-rule:evenodd;opacity:1" d="M-.002-63.918h-54.825v22.446h41.48v105.39h26.858v-105.39h41.317v-22.446H-.002" transform="translate(54.289 354.354) scale(.9756)"/><path style="stroke:none;stroke-width:1;stroke-dasharray:none;stroke-linecap:butt;stroke-dashoffset:0;stroke-linejoin:miter;stroke-miterlimit:4;is-custom-font:none;font-file-url:none;fill:#000;fill-rule:evenodd;opacity:1" transform="translate(164.876 436.584) scale(.9756)" d="M831.16 79.656c0 14.789-7.47 24.644-18.525 24.644-11.049 0-18.185-10.021-18.185-25.496 0-15.133 7.478-25.496 18.364-25.496 11.216 0 18.346 10.198 18.346 26.348m24.66 29.068V35.289h-22.95v11.559c-6.97-9.69-14.792-13.772-25.841-13.772-22.776 0-38.761 19.036-38.761 45.894 0 27.199 14.954 45.232 37.4 45.232 11.903 0 19.382-3.751 26.182-12.921v9.691c0 16.822-5.61 24.134-18.364 24.134-9.18 0-15.461-4.591-15.982-11.724h-25.331c1.704 18.694 17.002 29.743 40.972 29.743 22.275 0 36.045-9.004 40.805-26.857 1.7-6.637 1.87-9.181 1.87-27.544M701.193 35.283H676.88v92.649h25.509V79.994c0-18.529 5.43-27.202 17.168-27.202 5.44 0 10.032 2.557 12.576 6.625 1.703 3.065 2.213 6.13 2.213 14.117v54.398h25.496v-52.53c0-16.492-1.017-22.445-4.757-28.395-5.609-8.839-15.134-13.758-26.858-13.758-11.393 0-21.083 4.919-27.034 13.592V35.283M637.104 24.567h25.497V.088h-25.497v24.479zm0 103.371h25.497V35.285h-25.497v92.653zM569.69 127.936h25.496V86.965c0-22.776 6.805-31.626 24.148-31.626 2.721 0 4.413.176 7.133.852V34.09c-2.378-.852-3.903-1.017-6.791-1.017-11.57 0-20.75 5.099-25.672 14.279V35.286H569.69v92.65M532.476 127.936h24.313v-92.65H531.28v47.939c0 10.034-.838 15.133-3.396 19.215-3.062 5.098-8.163 7.984-13.772 7.984-5.44 0-10.032-2.376-12.576-6.626-1.703-3.061-2.213-6.126-2.213-14.113V35.286h-25.496v52.53c0 16.492 1.02 22.443 4.757 28.396 5.609 8.838 15.299 13.758 26.858 13.758 11.228 0 20.918-4.92 27.034-13.593v11.559"/><path style="stroke:none;stroke-width:1;stroke-dasharray:none;stroke-linecap:butt;stroke-dashoffset:0;stroke-linejoin:miter;stroke-miterlimit:4;is-custom-font:none;font-file-url:none;fill:#000;fill-rule:evenodd;opacity:1" d="M-13.345 63.925h26.858V-41.48h41.313v-22.445H-54.826v22.445h41.481V63.925" transform="translate(593.375 499.033) scale(.9756)"/><path style="stroke:none;stroke-width:1;stroke-dasharray:none;stroke-linecap:butt;stroke-dashoffset:0;stroke-linejoin:miter;stroke-miterlimit:4;is-custom-font:none;font-file-url:none;fill:#000;fill-rule:evenodd;opacity:1" transform="translate(164.876 436.584) scale(.9756)" d="M287.694 35.283H263.38v92.649h25.51V79.994c0-18.529 5.429-27.202 17.167-27.202 5.441 0 10.032 2.557 12.576 6.625 1.703 3.065 2.213 6.13 2.213 14.117v54.398h25.496v-52.53c0-16.492-1.017-22.445-4.757-28.395-5.608-8.839-15.133-13.758-26.857-13.758-11.394 0-21.084 4.919-27.034 13.592V35.283M226.718 85.77c0 16.658-7.478 26.182-20.574 26.182-8.153 0-13.938-4.588-13.938-10.872 0-7.146 6.295-10.718 22.266-13.262l8.85-1.362c.331-.176 1.527-.341 3.396-.686m23.969 1.703c.165-6.802.165-10.883.165-12.92 0-17.165-2.034-24.476-9.001-31.281-6.805-6.967-17.512-10.707-30.939-10.707-24.824 0-40.464 11.903-41.658 31.791h26.182c.508-9.181 5.785-13.772 15.983-13.772 10.542 0 15.133 5.608 15.299 18.694-11.218.686-26.348 2.899-34.677 5.11-17.688 4.247-26.361 13.43-26.361 27.532 0 16.493 13.771 28.051 33.673 28.051 14.954 0 24.3-4.922 31.104-16.315v3.74c0 3.571.166 5.443.852 10.541h21.935c-1.871-7.821-2.557-17.002-2.557-31.79v-8.674"/><path style="stroke:none;stroke-width:1;stroke-dasharray:none;stroke-linecap:butt;stroke-dashoffset:0;stroke-linejoin:miter;stroke-miterlimit:4;is-custom-font:none;font-file-url:none;fill:#000;fill-rule:evenodd;opacity:1" d="M-12.748 63.925h25.496v-127.85h-25.496z" transform="translate(305.057 499.034) scale(.9756)"/><path style="stroke:none;stroke-width:1;stroke-dasharray:none;stroke-linecap:butt;stroke-dashoffset:0;stroke-linejoin:miter;stroke-miterlimit:4;is-custom-font:none;font-file-url:none;fill:#000;fill-rule:evenodd;opacity:1" transform="translate(164.876 436.584) scale(.9756)" d="M79.347 73.37H45.508L62.51 20.319 79.347 73.37zm45.728 54.567L80.529.087H45.343L.976 127.937h27.365l10.2-31.626h48.118l10.365 31.626h28.051z"/><path style="stroke:none;stroke-width:1;stroke-dasharray:none;stroke-linecap:butt;stroke-dashoffset:0;stroke-linejoin:miter;stroke-miterlimit:4;is-custom-font:none;font-file-url:none;fill:#000;fill-rule:evenodd;opacity:1" transform="translate(23.414 580.973) scale(.9756)" d="M592.476 71.073h-39.61c2.034-12.576 9.002-19.036 20.23-19.036 11.217 0 18.87 7.643 19.38 19.036m26.348 12.411c0-31.116-17.509-50.662-45.563-50.662-27.709 0-46.412 19.546-46.412 48.451 0 30.264 18.361 49.642 47.264 49.642 22.955 0 38.761-10.884 44.546-30.939h-27.034c-2.723 7.314-8.508 11.052-17.002 11.052-12.921 0-20.905-7.822-21.591-21.426h65.627c.165-2.723.165-5.101.165-6.118M521.303 35.543h-14.955V13.1h-25.509v22.443h-13.593v19.215h13.593v42.498c0 12.245 1.019 17.509 4.591 22.773 4.757 7.146 11.738 10.211 23.118 10.211 5.278 0 7.998-.342 12.755-1.538v-19.036c-3.065.342-4.082.507-5.264.507-6.981 0-9.691-3.902-9.691-13.937V54.758h14.955V35.543M434.281 128.196h24.314v-92.65h-25.51v47.939c0 10.035-.838 15.133-3.395 19.215-3.065 5.099-8.163 7.984-13.772 7.984-5.44 0-10.032-2.376-12.576-6.623-1.703-3.064-2.213-6.129-2.213-14.116V35.546h-25.496v52.53c0 16.492 1.017 22.443 4.757 28.396 5.608 8.838 15.299 13.758 26.857 13.758 11.229 0 20.916-4.92 27.034-13.593v11.559M364.433 35.543h-14.954V13.1h-25.51v22.443h-13.593v19.215h13.593v42.498c0 12.245 1.02 17.509 4.591 22.773 4.757 7.146 11.738 10.211 23.118 10.211 5.278 0 7.998-.342 12.755-1.538v-19.036c-3.065.342-4.082.507-5.264.507-6.981 0-9.69-3.902-9.69-13.937V54.758h14.954V35.543M288.764.347h-12.755v24.476h25.51V.347h-12.755zm0 35.186h-12.755v92.664h25.51V35.533h-12.755zM265.918 35.543h-14.954V13.1h-25.51v22.443h-13.592v19.215h13.592v42.498c0 12.245 1.02 17.509 4.592 22.773 4.757 7.146 11.738 10.211 23.118 10.211 5.277 0 7.998-.342 12.754-1.538v-19.036c-3.064.342-4.081.507-5.264.507-6.981 0-9.69-3.902-9.69-13.937V54.758h14.954V35.543M207.476 65.123c.165-20.232-14.282-32.298-39.103-32.298-23.969 0-39.268 11.559-39.268 29.413 0 6.791 2.886 13.592 7.987 18.184 5.785 5.275 11.901 7.654 28.903 11.228 12.575 2.709 17.167 5.771 17.167 11.559 0 5.429-5.609 9.004-14.103 9.004-10.718 0-16.327-5.102-16.15-14.957h-26.017c.344 21.593 15.475 33.662 41.991 33.662 25.165 0 40.806-11.561 40.806-30.088 0-14.116-8.329-22.621-26.692-27.378l-18.364-4.754c-6.967-1.872-10.032-4.426-10.032-8.508 0-5.609 4.768-9.004 12.755-9.004 10.363 0 14.624 3.905 15.131 13.937h24.989M61.442 35.543H37.128v92.649h25.51V80.254c0-18.529 5.43-27.199 17.168-27.199 5.44 0 10.032 2.554 12.575 6.625 1.704 3.062 2.213 6.127 2.213 14.114v54.398h25.497v-52.53c0-16.492-1.017-22.442-4.757-28.395-5.609-8.839-15.134-13.758-26.858-13.758-11.393 0-21.084 4.919-27.034 13.593V35.543"/><path style="stroke:none;stroke-width:1;stroke-dasharray:none;stroke-linecap:butt;stroke-dashoffset:0;stroke-linejoin:miter;stroke-miterlimit:4;is-custom-font:none;font-file-url:none;fill:#000;fill-rule:evenodd;opacity:1" d="M0-63.925h-12.741v127.85h25.482v-127.85H0" transform="translate(36.593 643.676) scale(.9756)"/></g></svg>