<?xml version="1.0" encoding="UTF-8"?>
<svg xmlns="http://www.w3.org/2000/svg" xmlns:xlink="http://www.w3.org/1999/xlink" width="200px" height="200px" viewBox="0 0 200 200" version="1.1">
<g id="surface1">
<path style=" stroke:none;fill-rule:nonzero;fill:rgb(12.156863%,25.098039%,47.843137%);fill-opacity:1;" d="M 124.847656 94.171875 L 127.976562 94.171875 L 127.976562 94.234375 L 123.773438 115.183594 L 120.734375 115.183594 L 120.734375 115.121094 L 121.136719 112.945312 C 119.632812 114.601562 117.578125 115.429688 115 115.429688 C 111.503906 115.429688 109.140625 113.035156 109.140625 109.480469 C 109.140625 108.742188 109.234375 108.191406 109.355469 107.578125 L 109.386719 107.394531 L 112.054688 94.171875 L 115.121094 94.171875 L 115.121094 94.234375 L 112.515625 107.117188 C 112.394531 107.820312 112.300781 108.527344 112.300781 109.050781 C 112.300781 111.320312 113.710938 112.699219 116.105469 112.699219 C 116.933594 112.699219 121.164062 112.421875 122.269531 106.992188 Z M 143.3125 93.894531 C 140.921875 93.894531 138.835938 94.847656 137.484375 96.5625 L 137.976562 94.203125 L 137.976562 94.140625 L 134.9375 94.140625 L 130.734375 115.09375 L 130.734375 115.152344 L 133.835938 115.152344 L 136.410156 102.300781 C 137.054688 99.019531 139.632812 96.625 142.484375 96.625 C 143.710938 96.625 144.691406 97.117188 145.429688 98.097656 L 145.460938 98.128906 L 147.976562 95.890625 L 147.945312 95.859375 C 146.75 94.539062 145.246094 93.894531 143.3125 93.894531 M 92.332031 96.808594 L 92.332031 96.871094 L 102.851562 96.871094 L 88.835938 112.578125 L 88.3125 115.152344 L 103.25 115.152344 L 103.773438 112.421875 L 92.605469 112.421875 L 106.65625 96.71875 L 107.179688 94.140625 L 92.851562 94.140625 Z M 148.3125 115.09375 L 148.3125 115.152344 L 151.378906 115.152344 L 155.582031 94.171875 L 152.546875 94.171875 Z M 190.121094 93.894531 C 187.578125 93.894531 185.613281 94.664062 184.078125 96.257812 L 186.472656 84.570312 L 183.375 84.570312 L 177.179688 115.152344 L 180.246094 115.152344 L 182.820312 102.300781 C 183.925781 96.871094 188.191406 96.59375 189.019531 96.59375 C 191.378906 96.59375 192.792969 97.945312 192.792969 100.246094 C 192.792969 100.765625 192.699219 101.472656 192.578125 102.179688 L 189.96875 115.121094 L 193.035156 115.121094 L 195.734375 101.902344 C 195.859375 101.195312 195.949219 100.613281 195.949219 99.816406 C 195.980469 96.289062 193.621094 93.894531 190.121094 93.894531 M 169.691406 93.894531 C 164.109375 93.894531 160.183594 97.792969 158.925781 104.632812 C 158.710938 105.765625 158.621094 107.054688 158.621094 107.851562 C 158.621094 112.515625 161.472656 115.398438 166.074219 115.398438 C 168.742188 115.398438 171.164062 114.386719 173.128906 112.453125 L 173.160156 112.421875 L 171.378906 110.277344 L 171.351562 110.246094 L 171.320312 110.277344 C 169.691406 111.992188 168.222656 112.667969 166.257812 112.667969 C 164.078125 112.667969 161.71875 111.378906 161.71875 107.761719 C 161.71875 106.625 161.839844 105.675781 162.054688 104.632812 C 162.394531 102.851562 163.128906 100.367188 164.785156 98.648438 C 166.105469 97.300781 167.667969 96.625 169.417969 96.625 C 171.257812 96.625 172.421875 97.269531 173.527344 98.925781 L 173.558594 98.957031 L 175.828125 97.054688 L 175.859375 97.023438 L 175.828125 96.992188 C 174.234375 94.847656 172.363281 93.894531 169.691406 93.894531 M 153.710938 88.40625 L 156.808594 88.40625 L 157.578125 84.570312 L 154.507812 84.570312 Z M 123.742188 88.40625 L 126.839844 88.40625 L 127.605469 84.570312 L 124.539062 84.570312 Z M 115.519531 88.40625 L 118.621094 88.40625 L 119.386719 84.570312 L 116.320312 84.570312 Z M 74.324219 96.410156 L 67.394531 96.410156 L 69.816406 84.570312 L 10.890625 84.570312 L 4.691406 115.152344 L 28.191406 115.152344 L 29.722656 107.515625 L 15.859375 107.515625 L 16.6875 103.3125 L 30.550781 103.3125 L 31.964844 96.441406 L 18.097656 96.441406 L 18.925781 92.238281 L 40.921875 92.238281 L 36.289062 115.183594 L 45.921875 115.183594 L 50.550781 92.238281 L 58.648438 92.238281 L 54.019531 115.183594 L 63.648438 115.183594 L 66.011719 103.34375 L 72.945312 103.34375 L 70.550781 115.183594 L 80.183594 115.183594 L 86.378906 84.601562 L 76.75 84.601562 Z M 74.324219 96.410156 "/>
</g>
</svg>
