<svg xmlns="http://www.w3.org/2000/svg" width="1000" height="1000" viewBox="0 0 1000 1000" xml:space="preserve"><rect width="100%" height="100%" fill="rgba(255,255,255,0)"/><path style="stroke:none;stroke-width:1;stroke-dasharray:none;stroke-linecap:butt;stroke-dashoffset:0;stroke-linejoin:miter;stroke-miterlimit:4;is-custom-font:none;font-file-url:none;fill:#a68137;fill-rule:nonzero;opacity:1" transform="translate(204.552 45.461) scale(1.51508)" d="M275.387 125.75c2.789-3.484 3.751-9.706 3.751-9.706h-167.11s2.062 6.893 3.806 9.706h159.553z"/><path style="stroke:none;stroke-width:1;stroke-dasharray:none;stroke-linecap:butt;stroke-dashoffset:0;stroke-linejoin:miter;stroke-miterlimit:4;is-custom-font:none;font-file-url:none;fill:#a68137;fill-rule:nonzero;opacity:1" transform="translate(204.549 45.46) scale(1.51508)" d="M265.683 139.927c3.103-2.763 6.272-8.312 6.272-8.312H118.92s1.718 4.156 5.549 8.312h141.214z"/><path style="stroke:none;stroke-width:1;stroke-dasharray:none;stroke-linecap:butt;stroke-dashoffset:0;stroke-linejoin:miter;stroke-miterlimit:4;is-custom-font:none;font-file-url:none;fill:#a68137;fill-rule:nonzero;opacity:1" transform="translate(204.55 45.46) scale(1.51508)" d="M253.604 152.752c3.782-2.065 6.903-6.255 6.903-6.255H129.672s3.11 3.484 6.196 6.255h117.736z"/><path style="stroke:none;stroke-width:1;stroke-dasharray:none;stroke-linecap:butt;stroke-dashoffset:0;stroke-linejoin:miter;stroke-miterlimit:4;is-custom-font:none;font-file-url:none;fill:#a68137;fill-rule:nonzero;opacity:1" transform="translate(204.551 45.462) scale(1.51508)" d="M238.324 164.864c3.781-1.418 7.964-4.87 7.964-4.87H144.23s0 .747 7.241 4.87h86.853z"/><path style="stroke:none;stroke-width:1;stroke-dasharray:none;stroke-linecap:butt;stroke-dashoffset:0;stroke-linejoin:miter;stroke-miterlimit:4;is-custom-font:none;font-file-url:none;fill:#a68137;fill-rule:nonzero;opacity:1" transform="translate(204.552 45.462) scale(1.51508)" d="M163.219 172.454s10.752 6.28 31.854 6.28c21.134 0 34.59-6.28 34.59-6.28h-66.444z"/><path style="stroke:none;stroke-width:1;stroke-dasharray:none;stroke-linecap:butt;stroke-dashoffset:0;stroke-linejoin:miter;stroke-miterlimit:4;is-custom-font:none;font-file-url:none;fill:#003974;fill-rule:nonzero;opacity:1" transform="translate(204.545 45.464) scale(1.51508)" d="M161.502 186.665s12.816.672 20.382 6.553c7.293 6.264 12.842 16.616 12.842 16.616s4.504-9.979 11.791-15.198c7.252-5.582 19.049-7.971 19.049-7.971h131.867l25.965 38.424H264.984s-8.293.333-20.755 7.649c-6.603 3.749-11.48 10.345-11.48 10.345s-.963 3.119-2.389 4.812c-1.395 1.767-2.439 3.177-4.133 3.824-1.758.747-1.393.332-1.393.332h-61.616s-2.488-.979-3.784-3.111c-1.392-2.065-.372-1.352-1.741-3.045-1.045-1.716-3.483-6.262-12.817-12.484-9.68-6.296-19.039-6.927-19.039-6.927H5.436l26.23-39.819h129.836z"/><path style="stroke:none;stroke-width:1;stroke-dasharray:none;stroke-linecap:butt;stroke-dashoffset:0;stroke-linejoin:miter;stroke-miterlimit:4;is-custom-font:none;font-file-url:none;fill:#003974;fill-rule:nonzero;opacity:1" transform="translate(204.55 45.466) scale(1.51508)" d="M68.35 240.993v196.59s.696 17.37 15.256 40.863c14.533 23.544 35.613 34.294 35.613 34.294l16.649-25.957s-14.509-8.685-25.607-25.309c-10.703-16.574-10.703-30.812-10.703-30.812v-189.67H68.35z"/><path style="stroke:none;stroke-width:1;stroke-dasharray:none;stroke-linecap:butt;stroke-dashoffset:0;stroke-linejoin:miter;stroke-miterlimit:4;is-custom-font:none;font-file-url:none;fill:#003974;fill-rule:nonzero;opacity:1" transform="translate(204.558 45.465) scale(1.51508)" d="M291.282 240.32v189.647s-2.405 19.062-11.415 32.552c-9.008 13.837-23.923 24.937-23.923 24.937l16.011 25.584s24.189-17.621 35.936-36.335c11.797-18.665 14.601-46.737 14.601-46.737V240.32h-31.21z"/><path style="stroke:none;stroke-width:1;stroke-dasharray:none;stroke-linecap:butt;stroke-dashoffset:0;stroke-linejoin:miter;stroke-miterlimit:4;is-custom-font:none;font-file-url:none;fill:#003974;fill-rule:nonzero;opacity:1" transform="translate(204.546 45.467) scale(1.51508)" d="M18.925 240.993v197.311s2.041 30.487 21.054 62.318c19.113 31.804 53.656 53.979 53.656 53.979l16.301-25.932s-22.174-11.771-39.794-38.823c-18.068-27.326-19.038-52.263-19.038-52.263v-196.59H18.925z"/><path style="stroke:none;stroke-width:1;stroke-dasharray:none;stroke-linecap:butt;stroke-dashoffset:0;stroke-linejoin:miter;stroke-miterlimit:4;is-custom-font:none;font-file-url:none;fill:#a68137;fill-rule:nonzero;opacity:1" transform="translate(204.549 45.466) scale(1.51508)" d="M161.502 261.756v208.378s-.771.722-1.021 3.783c-.374 3.161-2.438 5.251-2.438 5.251L88.483 594.42h213.234l-69.616-117.715-2.058-5.227-.696-5.5V262.13h-25.966v211.539s0 3.036 1.046 5.5c.647 2.438 2.089 6.197 2.089 6.197l42.891 70.604H140.721l42.208-70.255s1.395-2.415 2.439-5.873c.722-3.137 1.02-6.173 1.02-6.173V261.756h-24.886z"/><path style="stroke:none;stroke-width:1;stroke-dasharray:none;stroke-linecap:butt;stroke-dashoffset:0;stroke-linejoin:miter;stroke-miterlimit:4;is-custom-font:none;font-file-url:none;fill:#003974;fill-rule:nonzero;opacity:1" transform="translate(204.558 45.464) scale(1.51508)" d="M339.396 240.32v193.853s-.299 24.912-18.665 53.632c-18.35 28.77-39.471 40.864-39.471 40.864l15.596 26.28s31.806-20.085 51.914-51.914c19.744-31.855 22.15-68.862 22.15-68.862V240.32h-31.524z"/><path style="stroke:none;stroke-width:1;stroke-dasharray:none;stroke-linecap:butt;stroke-dashoffset:0;stroke-linejoin:miter;stroke-miterlimit:4;is-custom-font:none;font-file-url:none;fill:#a68137;fill-rule:nonzero;opacity:1" transform="translate(204.551 45.454) scale(1.51508)" d="M110.956 110.494s-10.701-58.459 32.203-87.585c0 0 19.387-17.968 50.845-17.968 33.618 0 52.964 17.628 52.964 17.628 46.738 34.236 32.899 87.926 32.899 87.926H110.956z"/></svg>