<svg xmlns="http://www.w3.org/2000/svg" width="1000" height="1000" xml:space="preserve"><rect width="100%" height="100%" fill="rgba(255,255,255,0)"/><g><path style="stroke:none;stroke-width:1;stroke-dasharray:none;stroke-linecap:butt;stroke-dashoffset:0;stroke-linejoin:miter;stroke-miterlimit:4;is-custom-font:none;font-file-url:none;fill:#4c5156;fill-rule:nonzero;opacity:1" transform="translate(45.455 243.182) scale(4.5455)" d="M.785 103.023H.22c-.114 0-.184.098-.184.2v7.472c0 .118.082.215.184.215h.566c.113 0 .184-.105.184-.215v-7.472c0-.114-.082-.2-.184-.2zm6.41 0H2.262c-.11 0-.203.086-.203.192v.465c0 .117.093.172.203.172h2v6.843c0 .118.082.215.183.215h.567c.113 0 .183-.105.183-.215v-6.843h2c.114 0 .196-.067.196-.172v-.465c0-.117-.082-.192-.196-.192zm6.242 3.672-.945-.582c-.777-.492-1.117-.789-1.117-1.285 0-.777.453-1.008 1.508-1.008.594 0 1.312.032 1.762.063h.023c.102 0 .172-.063.172-.172v-.453c0-.106-.07-.16-.172-.184-.39-.062-1.18-.125-1.785-.125-1.559 0-2.45.594-2.45 1.88 0 .847.473 1.39 1.415 1.984l.996.624c.933.594 1.23.895 1.23 1.422 0 .743-.328 1.254-1.558 1.254-.473 0-1.223-.02-1.692-.062h-.031c-.094 0-.176.05-.176.168v.426c0 .117.024.16.195.19.454.075.985.15 1.704.15 2.02 0 2.53-1.106 2.53-2.126 0-.847-.421-1.433-1.608-2.164zm6.551-1.625h-.574a.209.209 0 0 0-.195.16l-1.25 4.852h-.164c-.075 0-.145-.02-.196-.234l-1.21-4.606c-.02-.086-.09-.172-.172-.172h-.567c-.12 0-.183.075-.183.18 0 .023 0 .055.011.074l1.364 4.852c.183.66.449.734.757.734h.145l-.106.434c-.171.742-.43.902-1.011.902-.227 0-.688-.043-.914-.062h-.032c-.113 0-.195.05-.195.168v.394c0 .106.094.137.215.168.215.055.574.098.863.098 1.18 0 1.559-.426 1.875-1.57l1.692-6.118c.011-.02.011-.05.011-.074 0-.105-.062-.18-.164-.18zm3.512 2.774-1.016-.63c-.468-.284-.707-.487-.707-.804 0-.543.38-.617.953-.617.575 0 1.23.055 1.59.086h.032c.101 0 .175-.055.175-.18v-.351c0-.118-.062-.192-.195-.211a9.222 9.222 0 0 0-1.602-.14c-1.054 0-1.855.308-1.855 1.413 0 .668.422 1.125 1.047 1.516l1.035.636c.586.36.77.563.77.883 0 .57-.348.754-1.016.754-.367 0-1.117-.054-1.61-.117h-.038c-.106 0-.188.063-.188.16v.371c0 .117.082.18.219.211.5.13 1.238.16 1.617.16 1.148 0 1.918-.457 1.918-1.539 0-.629-.277-1.082-1.129-1.601zm4.758 2.386h-.574c-.41 0-.555-.085-.555-.668v-3.707h1.11a.206.206 0 0 0 .202-.21v-.364c0-.113-.09-.21-.203-.21h-1.11v-1.157c0-.105-.07-.18-.151-.18h-.032l-.535.086a.214.214 0 0 0-.183.211v1.04h-.993c-.113 0-.195.074-.195.19v.29c0 .113.082.18.195.191l.993.113v3.707c0 1.168.453 1.422 1.394 1.422.195 0 .461-.023.668-.054.133-.02.184-.086.184-.18v-.371c0-.106-.07-.149-.215-.149zm3.02-5.234c-1.465 0-2.278.965-2.278 2.484v.957c0 1.973 1.148 2.547 2.328 2.547.688 0 1.25-.062 1.836-.18.164-.03.203-.109.203-.245v-.36c0-.105-.082-.148-.164-.148h-.05c-.473.074-1.231.117-1.825.117-.941 0-1.426-.469-1.426-1.73v-.149h3.434c.125 0 .195-.098.195-.234v-.575c0-1.507-.758-2.484-2.254-2.484zm1.343 2.582h-2.719v-.098c0-1.148.493-1.668 1.375-1.668.903 0 1.344.47 1.344 1.668zm7.063-2.594c-.532 0-1.137.16-1.7.438-.257-.309-.586-.438-1.027-.438-.562 0-1.086.235-1.496.5v-.203c0-.113-.082-.21-.195-.21h-.512c-.113 0-.195.097-.195.21v5.414c0 .118.074.215.175.215h.543c.114 0 .184-.105.184-.215v-4.476c.434-.227.883-.414 1.254-.414.531 0 .789.187.789 1.113v3.777c0 .118.07.215.172.215h.543c.113 0 .183-.105.183-.215v-3.777c0-.316-.03-.594-.09-.828.399-.16.829-.285 1.2-.285.531 0 .933.242.933 1.136v3.754c0 .118.09.215.203.215h.493a.213.213 0 0 0 .207-.215v-3.754c0-1.476-.739-1.957-1.664-1.957zm5.254 2.86-1.016-.63c-.473-.284-.707-.487-.707-.804 0-.543.379-.617.953-.617s1.23.055 1.586.086h.031c.106 0 .176-.055.176-.18v-.351c0-.118-.063-.192-.195-.211a9.141 9.141 0 0 0-1.598-.14c-1.055 0-1.855.308-1.855 1.413 0 .668.417 1.125 1.046 1.516l1.036.636c.582.36.765.563.765.883 0 .57-.347.754-1.012.754-.37 0-1.117-.054-1.609-.117h-.043c-.101 0-.184.063-.184.16v.371c0 .117.083.18.215.211.504.13 1.239.16 1.621.16 1.145 0 1.914-.457 1.914-1.539 0-.629-.277-1.082-1.124-1.601zm8.792-4.832c-.43-.043-1.394-.063-2-.063-1.433 0-2.183.563-2.183 1.973v4.09c0 1.41.75 1.972 2.183 1.972.606 0 1.61-.011 2-.054.063-.008.102-.086.102-.149v-.539c0-.074-.039-.129-.113-.129h-1.977c-1.086 0-1.262-.297-1.262-1.101v-1.785h3.149c.113 0 .203-.094.203-.215v-.403c0-.117-.09-.21-.203-.21H50.48v-1.477c0-.805.176-1.102 1.262-1.102h1.977c.074 0 .113-.054.113-.129v-.53c0-.063-.039-.138-.102-.15zm3.676 1.984c-.605 0-1.066.16-1.629.488v-.203c0-.113-.086-.21-.195-.21h-.512c-.113 0-.195.097-.195.21v5.414c0 .118.09.215.195.215h.5c.114 0 .207-.105.207-.215v-4.476c.47-.246.953-.414 1.383-.414.778 0 1.13.328 1.13 1.398v3.492c0 .118.089.215.202.215h.492c.114 0 .203-.097.203-.215v-3.492c0-1.41-.55-2.207-1.78-2.207zm7.39.074h-2.241c-1.766 0-2.278.934-2.278 1.88v.085c0 .543.157.926.473 1.23a.88.88 0 0 0-.422.766v.012c0 .328.145.68.473.824l.07.035c-.336.266-.644.75-.644 1.348v.094c0 1.039.738 1.687 2.355 1.687 1.684 0 2.34-.625 2.34-1.644v-.086c0-.996-.965-1.293-1.969-1.559l-1.527-.402c-.235-.067-.317-.16-.317-.34 0-.16.082-.277.254-.363.297.129.649.215 1.192.215 1.578 0 2.273-.649 2.273-1.817v-.086c0-.574-.164-.89-.348-1.094l.368-.074c.113-.02.187-.062.187-.199v-.277a.241.241 0 0 0-.238-.235zm-3.187 5.098 1.16.305c.922.246 1.25.418 1.25.828v.086c0 .586-.265.925-1.437.925-1.137 0-1.473-.374-1.473-.968v-.094c0-.555.203-.816.5-1.082zm2.328-3.133c0 .637-.277 1.082-1.382 1.082-1.18 0-1.387-.613-1.387-1.082v-.086c0-.594.238-1.136 1.387-1.136 1.105 0 1.383.5 1.383 1.136zm2.797-1.965h-.492a.212.212 0 0 0-.207.211v5.414c0 .118.094.215.207.215h.492c.11 0 .204-.097.204-.215v-5.414a.211.211 0 0 0-.204-.21zm.02-2.207h-.524a.212.212 0 0 0-.207.211v.852c0 .117.094.21.207.21h.524a.206.206 0 0 0 .203-.21v-.852c0-.113-.09-.21-.203-.21zm4.055 2.133c-.606 0-1.067.16-1.63.488v-.203c0-.113-.081-.21-.195-.21h-.511c-.114 0-.196.097-.196.21v5.414c0 .118.094.215.196.215h.5c.113 0 .207-.105.207-.215v-4.476c.472-.246.953-.414 1.382-.414.782 0 1.13.328 1.13 1.398v3.492c0 .118.09.215.203.215h.492a.213.213 0 0 0 .207-.215v-3.492c0-1.41-.555-2.207-1.785-2.207zm5.144 0c-1.469 0-2.277.965-2.277 2.484v.957c0 1.973 1.148 2.547 2.328 2.547.687 0 1.25-.062 1.836-.18.164-.03.203-.109.203-.245v-.36c0-.105-.082-.148-.164-.148h-.05c-.474.074-1.231.117-1.825.117-.945 0-1.426-.469-1.426-1.73v-.149h3.434c.125 0 .195-.098.195-.234v-.575c0-1.507-.758-2.484-2.254-2.484zm1.34 2.582h-2.715v-.098c0-1.148.492-1.668 1.375-1.668.902 0 1.34.47 1.34 1.668zm4.125-2.582c-1.465 0-2.273.965-2.273 2.484v.957c0 1.973 1.144 2.547 2.324 2.547.687 0 1.25-.062 1.836-.18.164-.03.207-.109.207-.245v-.36c0-.105-.086-.148-.164-.148h-.055c-.469.074-1.227.117-1.824.117-.942 0-1.422-.469-1.422-1.73v-.149h3.433c.122 0 .192-.098.192-.234v-.575c0-1.507-.758-2.484-2.254-2.484zm1.344 2.582h-2.715v-.098c0-1.148.492-1.668 1.371-1.668.902 0 1.344.47 1.344 1.668zm4.308-2.582c-.46 0-.933.14-1.445.512v-.227c0-.113-.082-.21-.195-.21h-.48c-.114 0-.196.097-.196.21v5.414c0 .118.09.215.195.215h.5c.114 0 .207-.105.207-.215v-4.445c.512-.32.942-.445 1.414-.445.145 0 .215-.063.215-.184v-.433c0-.126-.07-.192-.215-.192zm1.868.074h-.493a.208.208 0 0 0-.203.211v5.414c0 .118.09.215.203.215h.493a.213.213 0 0 0 .207-.215v-5.414a.212.212 0 0 0-.207-.21zm.019-2.207h-.52a.212.212 0 0 0-.207.211v.852c0 .117.094.21.207.21h.52a.21.21 0 0 0 .207-.21v-.852a.212.212 0 0 0-.207-.21zm4.055 2.133c-.602 0-1.063.16-1.63.488v-.203c0-.113-.081-.21-.19-.21h-.516c-.114 0-.196.097-.196.21v5.414c0 .118.094.215.196.215h.504c.113 0 .203-.105.203-.215v-4.476c.472-.246.953-.414 1.387-.414.777 0 1.125.328 1.125 1.398v3.492c0 .118.093.215.207.215h.492c.113 0 .203-.097.203-.215v-3.492c0-1.41-.55-2.207-1.785-2.207zm7.394.074H98.16c-1.762 0-2.273.934-2.273 1.88v.085c0 .543.152.926.472 1.23a.88.88 0 0 0-.421.766v.012c0 .328.144.68.472.824l.07.035a1.73 1.73 0 0 0-.644 1.348v.094c0 1.039.738 1.687 2.355 1.687 1.684 0 2.34-.625 2.34-1.644v-.086c0-.996-.965-1.293-1.969-1.559l-1.527-.402c-.234-.067-.32-.16-.32-.34 0-.16.086-.277.258-.363.297.129.644.215 1.187.215 1.582 0 2.278-.649 2.278-1.817v-.086c0-.574-.165-.89-.348-1.094l.367-.074c.113-.02.188-.062.188-.199v-.277a.241.241 0 0 0-.239-.235zm-3.187 5.098 1.16.305c.922.246 1.25.418 1.25.828v.086c0 .586-.266.925-1.438.925-1.136 0-1.476-.374-1.476-.968v-.094c0-.555.207-.816.504-1.082zm2.328-3.133c0 .637-.277 1.082-1.387 1.082-1.176 0-1.383-.613-1.383-1.082v-.086c0-.594.239-1.136 1.383-1.136 1.11 0 1.387.5 1.387 1.136zm5.187-4.012h-.535c-.101 0-.195.098-.195.2v9.543c0 .105.094.203.195.203h.535c.102 0 .184-.098.184-.203v-9.543c0-.102-.082-.2-.184-.2zm9 0h-.554a.2.2 0 0 0-.196.2v4.82c0 1.379-.41 2.113-1.683 2.113-1.27 0-1.68-.742-1.68-2.113v-4.82c0-.114-.09-.2-.191-.2h-.555a.2.2 0 0 0-.195.2v4.82c0 2.027.96 2.941 2.62 2.941 1.665 0 2.626-.914 2.626-2.941v-4.82c0-.114-.09-.2-.192-.2zm4.114 1.973c-.606 0-1.067.16-1.633.488v-.203c0-.113-.078-.21-.192-.21h-.511c-.114 0-.196.097-.196.21v5.414c0 .118.09.215.196.215h.5c.113 0 .203-.105.203-.215v-4.476c.472-.246.957-.414 1.387-.414.777 0 1.125.328 1.125 1.398v3.492c0 .118.093.215.207.215h.492c.113 0 .203-.097.203-.215v-3.492c0-1.41-.55-2.207-1.781-2.207zm3.87-2.133h-.523a.212.212 0 0 0-.207.211v.852c0 .117.094.21.207.21h.524a.206.206 0 0 0 .203-.21v-.852c0-.113-.09-.21-.203-.21zm-.019 2.207h-.492a.212.212 0 0 0-.207.211v5.414c0 .118.094.215.207.215h.492c.11 0 .203-.097.203-.215v-5.414a.211.211 0 0 0-.203-.21zm5.746 0h-.562c-.082 0-.156.067-.195.203l-1.18 4.63c-.063.253-.125.308-.215.308-.106 0-.156-.055-.215-.309l-1.18-4.629c-.043-.136-.113-.203-.195-.203h-.562c-.106 0-.164.075-.164.18 0 .023 0 .043.007.074l1.387 5.055c.133.476.48.605.922.605.437 0 .789-.129.922-.605l1.383-5.055c.011-.031.011-.05.011-.074 0-.105-.062-.18-.164-.18zm3.051-.074c-1.465 0-2.277.965-2.277 2.484v.957c0 1.973 1.148 2.547 2.328 2.547.687 0 1.25-.062 1.836-.18.16-.03.203-.109.203-.245v-.36c0-.105-.082-.148-.164-.148h-.05c-.474.074-1.231.117-1.825.117-.945 0-1.426-.469-1.426-1.73v-.149h3.434c.125 0 .195-.098.195-.234v-.575c0-1.507-.758-2.484-2.254-2.484zm1.344 2.582h-2.719v-.098c0-1.148.492-1.668 1.375-1.668.902 0 1.344.47 1.344 1.668zm4.254-2.582c-.461 0-.93.14-1.446.512v-.227c0-.113-.082-.21-.195-.21h-.48c-.114 0-.196.097-.196.21v5.414c0 .118.094.215.196.215h.504c.113 0 .203-.105.203-.215v-4.445c.511-.32.945-.445 1.414-.445.144 0 .219-.063.219-.184v-.433c0-.126-.075-.192-.22-.192zm3.406 2.848-1.016-.63c-.472-.284-.707-.487-.707-.804 0-.543.38-.617.953-.617.575 0 1.23.055 1.59.086h.028c.105 0 .175-.055.175-.18v-.351c0-.118-.062-.192-.195-.211a9.141 9.141 0 0 0-1.598-.14c-1.054 0-1.855.308-1.855 1.413 0 .668.418 1.125 1.043 1.516l1.039.636c.582.36.766.563.766.883 0 .57-.348.754-1.016.754-.367 0-1.113-.054-1.605-.117h-.043c-.102 0-.184.063-.184.16v.371c0 .117.082.18.215.211.504.13 1.238.16 1.617.16 1.148 0 1.918-.457 1.918-1.539 0-.629-.277-1.082-1.125-1.601zm2.844-2.774h-.492a.208.208 0 0 0-.204.211v5.414c0 .118.09.215.204.215h.492a.213.213 0 0 0 .207-.215v-5.414a.212.212 0 0 0-.207-.21zm.02-2.207h-.52a.212.212 0 0 0-.207.211v.852c0 .117.093.21.207.21h.52a.21.21 0 0 0 .206-.21v-.852a.212.212 0 0 0-.207-.21zm4.304 7.367h-.574c-.41 0-.555-.085-.555-.668v-3.707h1.11a.206.206 0 0 0 .203-.21v-.364c0-.113-.09-.21-.204-.21h-1.109v-1.157c0-.105-.07-.18-.152-.18h-.032l-.53.086c-.114.02-.188.106-.188.211v1.04h-.992c-.114 0-.196.074-.196.19v.29c0 .113.082.18.196.191l.992.113v3.707c0 1.168.453 1.422 1.394 1.422.196 0 .461-.023.668-.054.133-.02.184-.086.184-.18v-.371c0-.106-.07-.149-.215-.149zm1.953-6.125h.399c.101 0 .207-.085.207-.203v-.859c0-.106-.106-.211-.207-.211h-.399c-.101 0-.207.106-.207.211v.86c0 .117.106.202.207.202zm1.793 0h.402a.207.207 0 0 0 .204-.203v-.859c0-.106-.102-.211-.204-.211h-.402c-.101 0-.203.106-.203.211v.86c0 .117.101.202.203.202zm-.746.891c-.7 0-1.172.067-1.59.14-.144.02-.215.083-.215.2v.371c0 .14.09.172.184.172h.05c.41-.043.903-.086 1.571-.086.797 0 1.094.309 1.094 1.2v.425h-.758c-1.824 0-2.469.574-2.469 1.719v.125c0 1.328.797 1.722 1.668 1.722.574 0 1.09-.222 1.578-.52v.231c0 .118.094.215.207.215h.473c.113 0 .203-.097.203-.215v-3.703c0-1.25-.574-1.996-1.996-1.996zm1.094 4.797c-.492.277-.91.426-1.383.426-.594 0-.941-.203-.941-.965v-.129c0-.754.328-1.04 1.566-1.04h.758zm4.832.437h-.574c-.41 0-.555-.085-.555-.668v-3.707h1.105a.21.21 0 0 0 .207-.21v-.364a.212.212 0 0 0-.207-.21h-1.105v-1.157c0-.105-.074-.18-.153-.18h-.03l-.536.086a.21.21 0 0 0-.184.211v1.04h-.996c-.113 0-.191.074-.191.19v.29c0 .113.078.18.191.191l.996.113v3.707c0 1.168.45 1.422 1.395 1.422.195 0 .461-.023.664-.054.133-.02.188-.086.188-.18v-.371c0-.106-.075-.149-.215-.149zm5.543-7.28c-.594 0-1.258.03-1.7.081-.156.024-.246.121-.246.27v7.394c0 .118.082.215.184.215h.555c.113 0 .183-.105.183-.215v-2.98c.266.02.696.05 1.024.05 1.66 0 2.87-.6 2.87-2.374v-.141c0-1.707-1.21-2.3-2.87-2.3zm1.937 2.44c0 1.102-.531 1.57-1.937 1.57-.266 0-.79-.03-1.024-.042v-3.11c.246-.023.707-.042 1.024-.042 1.324 0 1.937.414 1.937 1.484zm3.961-.394c-1.508 0-2.273 1.031-2.273 2.59v.809c0 1.558.765 2.59 2.273 2.59s2.285-1.032 2.285-2.59v-.81c0-1.558-.777-2.589-2.285-2.589zm1.387 3.399c0 1.093-.43 1.773-1.387 1.773-.96 0-1.37-.691-1.37-1.773v-.81c0-1.093.417-1.772 1.37-1.772.965 0 1.387.69 1.387 1.773zm4.613 1.835h-.574c-.41 0-.555-.085-.555-.668v-3.707h1.106a.21.21 0 0 0 .207-.21v-.364a.212.212 0 0 0-.207-.21h-1.106v-1.157c0-.105-.07-.18-.152-.18h-.031l-.536.086a.214.214 0 0 0-.183.211v1.04h-.992c-.114 0-.196.074-.196.19v.29c0 .113.082.18.196.191l.992.113v3.707c0 1.168.453 1.422 1.394 1.422.196 0 .461-.023.668-.054.133-.02.184-.086.184-.18v-.371c0-.106-.07-.149-.215-.149zm3.586-2.386-1.012-.63c-.472-.284-.707-.487-.707-.804 0-.543.38-.617.953-.617.575 0 1.23.055 1.59.086h.028c.105 0 .175-.055.175-.18v-.351c0-.118-.062-.192-.195-.211a9.141 9.141 0 0 0-1.598-.14c-1.058 0-1.859.308-1.859 1.413 0 .668.422 1.125 1.05 1.516l1.032.636c.586.36.77.563.77.883 0 .57-.348.754-1.016.754-.367 0-1.117-.054-1.61-.117h-.038c-.102 0-.188.063-.188.16v.371c0 .117.086.18.219.211.5.13 1.238.16 1.617.16 1.148 0 1.918-.457 1.918-1.539 0-.629-.277-1.082-1.129-1.601zm6.125-4.914h-.523a.197.197 0 0 0-.196.199v1.973a7.675 7.675 0 0 0-1.199-.106c-1.496 0-2.234.934-2.234 2.602v.765c0 1.59.707 2.621 2.234 2.621.625 0 1.25-.054 1.887-.18.183-.03.215-.109.215-.245v-7.43c0-.117-.082-.2-.184-.2zm-.719 7.172c-.347.03-.851.066-1.199.066-1.016 0-1.332-.648-1.332-1.805v-.765c0-1.137.328-1.785 1.332-1.785.328 0 .86.011 1.2.074zm4.094-5.106c-.7 0-1.168.067-1.59.14-.144.02-.215.083-.215.2v.371c0 .14.09.172.184.172h.05c.41-.043.903-.086 1.571-.086.8 0 1.098.309 1.098 1.2v.425h-.758c-1.828 0-2.473.574-2.473 1.719v.125c0 1.328.801 1.722 1.672 1.722.574 0 1.086-.222 1.578-.52v.231c0 .118.094.215.203.215h.473a.213.213 0 0 0 .207-.215v-3.703c0-1.25-.578-1.996-2-1.996zm1.098 4.797c-.492.277-.914.426-1.387.426-.594 0-.941-.203-.941-.965v-.129c0-.754.328-1.04 1.57-1.04h.758zm7.344-4.809c-.532 0-1.137.16-1.7.438-.258-.309-.586-.438-1.027-.438-.563 0-1.086.235-1.496.5v-.203c0-.113-.082-.21-.195-.21h-.512c-.113 0-.196.097-.196.21v5.414c0 .118.075.215.176.215h.543c.114 0 .184-.105.184-.215v-4.476c.43-.227.883-.414 1.25-.414.535 0 .789.187.789 1.113v3.777c0 .118.074.215.176.215h.543c.113 0 .183-.105.183-.215v-3.777c0-.316-.031-.594-.09-.828.399-.16.829-.285 1.2-.285.53 0 .93.242.93 1.136v3.754c0 .118.093.215.206.215h.493c.113 0 .203-.097.203-.215v-3.754c0-1.476-.735-1.957-1.66-1.957"/><path style="stroke:none;stroke-width:1;stroke-dasharray:none;stroke-linecap:butt;stroke-dashoffset:0;stroke-linejoin:miter;stroke-miterlimit:4;is-custom-font:none;font-file-url:none;fill:#4c5156;fill-rule:nonzero;opacity:1" transform="translate(45.455 243.181) scale(4.5455)" d="M102.094 40.36h2.656a.54.54 0 0 0 .54-.54v-8.242h7.616v8.242c0 .297.242.54.535.54h2.657a.54.54 0 0 0 .539-.54V20.855c0-.3-.242-.515-.54-.515h-2.656c-.293 0-.535.215-.535.515v7.434h-7.617v-7.434c0-.3-.242-.515-.539-.515h-2.656c-.293 0-.535.215-.535.515V39.82c0 .297.242.54.535.54zm22.375.214c1.285 0 2.547-.43 3.781-1.183v.43c0 .296.242.538.535.538h2.281a.537.537 0 0 0 .536-.539v-9.699c0-3.45-2.09-5.144-5.899-5.144-1.851 0-3.41.214-4.48.43-.352.081-.512.269-.512.566v1.722c0 .38.215.461.484.461h.133c.887-.11 2.656-.215 4.375-.215 1.582 0 2.36.43 2.36 2.18v1.188h-1.688c-4.672 0-6.547 1.59-6.547 4.66v.105c0 3.64 2.414 4.5 4.64 4.5zm-1.074-4.605c0-1.508.535-2.29 2.98-2.29h1.688v3.313c-.778.434-1.77.754-2.735.754-1.344 0-1.933-.351-1.933-1.672zm13.414-3.235L140.484 35c.856.54 1.18.86 1.18 1.371 0 .73-.242 1.293-1.906 1.293-.805 0-3.219-.133-4.508-.293h-.105a.45.45 0 0 0-.458.43v1.617c0 .324.192.539.512.621 1.5.402 3.754.535 4.801.535 3.516 0 5.258-1.855 5.258-4.203 0-1.371-.32-2.719-2.574-4.094l-3.516-2.156c-.672-.402-1.074-.672-1.074-1.105 0-.836.566-1.13 1.851-1.13 1.532 0 3.676.216 4.426.325h.11c.269 0 .43-.191.43-.516v-1.562c0-.324-.161-.54-.485-.617-1.367-.297-2.602-.54-4.774-.54-3.406 0-5.097 1.348-5.097 4.04 0 1.566.937 2.91 2.254 3.718zm18.992-.457-3.516-2.156c-.668-.402-1.07-.672-1.07-1.105 0-.836.562-1.13 1.847-1.13 1.532 0 3.676.216 4.43.325h.106c.27 0 .43-.191.43-.516v-1.562c0-.324-.16-.54-.485-.617-1.367-.297-2.602-.54-4.773-.54-3.407 0-5.098 1.348-5.098 4.04 0 1.566.937 2.91 2.254 3.718L153.602 35c.859.54 1.18.86 1.18 1.371 0 .73-.243 1.293-1.907 1.293-.805 0-3.219-.133-4.504-.293h-.11a.448.448 0 0 0-.456.43v1.617c0 .324.187.539.511.621 1.5.402 3.754.535 4.801.535 3.516 0 5.258-1.855 5.258-4.203 0-1.371-.32-2.719-2.574-4.094zm11.48 8.297c4.211 0 6.41-2.855 6.41-6.707v-2.183c0-3.852-2.199-6.707-6.41-6.707-4.21 0-6.41 2.855-6.41 6.707v2.183c0 3.852 2.2 6.707 6.41 6.707zm-2.87-8.89c0-2.207.991-3.637 2.87-3.637 1.88 0 2.871 1.43 2.871 3.637v2.183c0 2.207-.992 3.637-2.87 3.637-1.88 0-2.872-1.43-2.872-3.637zm-49.009 21.035v-.242c0-4.77-3.597-6.223-7.726-6.223-1.961 0-3.864.133-5.258.351-.535.079-.86.266-.86.805v18.54c0 .296.243.538.536.538h2.683c.297 0 .512-.242.512-.539v-7.035c.617.027 1.688.11 2.387.11 4.129 0 7.726-1.536 7.726-6.305zm-3.703 0c0 2.156-1.129 3.234-4.023 3.234-.457 0-1.961-.055-2.387-.082v-6.41c.48-.055 1.82-.11 2.387-.11 2.68 0 4.023.864 4.023 3.126zm6.867 13.77h2.496c.293 0 .508-.27.508-.567V46.523c0-.296-.215-.539-.507-.539h-2.497a.537.537 0 0 0-.535.54v19.398c0 .297.239.566.535.566zm14.297-.973v.433c0 .297.242.54.54.54h2.277a.54.54 0 0 0 .539-.54V56.25c0-3.45-2.094-5.148-5.903-5.148-1.851 0-3.406.218-4.48.433-.348.078-.508.27-.508.567v1.722c0 .375.211.457.48.457h.133c.887-.105 2.657-.215 4.375-.215 1.582 0 2.36.43 2.36 2.184v1.184h-1.688c-4.668 0-6.547 1.59-6.547 4.664v.105c0 3.637 2.414 4.5 4.641 4.5 1.29 0 2.547-.43 3.781-1.183zm-4.855-3.313v-.105c0-1.512.539-2.293 2.98-2.293h1.688v3.312c-.778.434-1.77.758-2.735.758-1.343 0-1.933-.352-1.933-1.672zm12.875.215c0 3.613 1.238 4.285 4.265 4.285.594 0 1.18-.082 1.825-.187.351-.055.511-.215.511-.485v-1.699c0-.27-.214-.406-.562-.406H145.5c-.969 0-1.047-.16-1.047-1.508v-8.461h1.64a.54.54 0 0 0 .54-.535v-1.59a.54.54 0 0 0-.54-.539h-1.64v-2.777c0-.27-.187-.403-.43-.403h-.105l-2.496.43c-.297.055-.54.242-.54.539v2.211h-2.519a.537.537 0 0 0-.535.539v1.211c0 .297.238.484.535.539l2.52.375zm15.965 1.508h-1.422c-.969 0-1.047-.16-1.047-1.508v-8.461h2.414a.536.536 0 0 0 .535-.535v-1.59a.537.537 0 0 0-.535-.539h-2.414v-2.777c0-.27-.188-.403-.43-.403h-.105l-2.496.43c-.297.055-.536.242-.536.539v2.211h-1.746a.54.54 0 0 0-.539.539v1.211c0 .297.243.484.54.539l1.745.375v8.461c0 3.613 1.231 4.285 4.262 4.285.594 0 1.184-.082 1.824-.187.352-.055.512-.215.512-.485v-1.699c0-.27-.215-.406-.562-.406zm15.851 1.996v-8.785c0-3.422-.777-6.035-4.64-6.035-1.77 0-2.79.296-4.344 1.293v-.563a.54.54 0 0 0-.54-.539h-2.331a.537.537 0 0 0-.535.539v14.09c0 .297.238.566.535.566h2.469c.292 0 .535-.27.535-.566V55.09c1.129-.594 2.12-.969 3.03-.969 2.067 0 2.282.672 2.282 3.016v8.785c0 .297.242.566.535.566h2.47c.296 0 .534-.27.534-.566zm15.13-5.793c.378 0 .538-.242.538-.676v-1.508c0-4.011-2.254-6.843-6.383-6.843-4.105 0-6.441 2.64-6.441 6.843v1.996c0 5.305 3.809 6.762 6.492 6.762 2.414 0 3.461-.133 5.207-.457.48-.082.563-.27.563-.703v-1.777c0-.27-.215-.407-.485-.407h-.078c-1.129.11-2.98.274-4.937.274-2.578 0-3.22-1.86-3.22-3.426v-.078zm-8.716-2.64c0-2.13 1.207-3.313 2.871-3.313 1.66 0 2.817 1.21 2.817 3.312v.11h-5.688zm19.34-6.387c-1.074 0-2.523.27-3.836 1.293v-.563a.54.54 0 0 0-.535-.539h-2.336a.54.54 0 0 0-.535.539v14.09c0 .297.242.566.535.566h2.469c.293 0 .535-.27.535-.566V55.09c1.129-.594 2.254-.969 3.703-.969.293 0 .54-.242.54-.539v-1.941a.543.543 0 0 0-.54-.54zM104.81 72.594h-2.684c-.297 0-.543.219-.543.511v18.97c0 .296.246.538.543.538h2.684a.54.54 0 0 0 .539-.539V73.105c0-.293-.243-.511-.54-.511zm12.976 4.636c-1.789 0-2.816.297-4.39 1.293v-.566a.54.54 0 0 0-.54-.539h-2.359a.544.544 0 0 0-.543.539v14.09c0 .297.246.566.543.566h2.492c.301 0 .543-.27.543-.566V81.219c1.137-.594 2.14-.973 3.063-.973 2.086 0 2.3.676 2.3 3.02v8.78c0 .298.247.567.543.567h2.493c.297 0 .543-.27.543-.566v-8.781c0-3.422-.785-6.036-4.688-6.036zm16.692 7.301-3.551-2.156c-.68-.402-1.086-.672-1.086-1.105 0-.832.57-1.13 1.87-1.13 1.548 0 3.712.215 4.474.325h.105c.274 0 .434-.192.434-.516v-1.562c0-.32-.16-.54-.489-.617-1.382-.297-2.629-.54-4.82-.54-3.441 0-5.148 1.348-5.148 4.04 0 1.566.949 2.91 2.277 3.718l3.71 2.266c.868.539 1.192.86 1.192 1.375 0 .726-.246 1.293-1.925 1.293-.81 0-3.25-.137-4.551-.297h-.11a.448.448 0 0 0-.457.43v1.617c0 .324.188.539.512.617 1.52.406 3.797.54 4.852.54 3.55 0 5.308-1.86 5.308-4.2 0-1.375-.324-2.723-2.597-4.098zm14.085 5.524h-1.433c-.977 0-1.059-.16-1.059-1.508v-8.461h2.438c.3 0 .543-.242.543-.54v-1.589a.541.541 0 0 0-.543-.539h-2.438v-2.777c0-.266-.187-.403-.433-.403h-.106l-2.52.43c-.3.055-.542.242-.542.539v2.211h-2.547a.544.544 0 0 0-.543.539v1.211c0 .297.246.488.543.539l2.547.379v8.46c0 3.61 1.246 4.282 4.308 4.282.594 0 1.192-.078 1.84-.187.352-.055.516-.215.516-.485v-1.699c0-.27-.219-.402-.57-.402zm6.938-12.637h-2.492c-.301 0-.543.242-.543.539v14.09c0 .297.242.566.543.566h2.492c.297 0 .543-.27.543-.566v-14.09a.544.544 0 0 0-.543-.539zm.082-5.469h-2.629c-.297 0-.57.242-.57.54v2.37c0 .297.273.54.57.54h2.629a.54.54 0 0 0 .54-.54v-2.37a.54.54 0 0 0-.54-.54zm12.84 18.106h-1.434c-.976 0-1.058-.16-1.058-1.508v-8.461h2.441a.54.54 0 0 0 .54-.54v-1.589a.54.54 0 0 0-.54-.539h-2.441v-2.777c0-.266-.188-.403-.434-.403h-.105l-2.524.43c-.297.055-.539.242-.539.539v2.211h-2.547c-.3 0-.543.242-.543.539v1.211c0 .297.242.488.543.539l2.547.379v8.46c0 3.61 1.246 4.282 4.309 4.282.593 0 1.191-.078 1.843-.187.348-.055.512-.215.512-.485v-1.699c0-.27-.215-.402-.57-.402zm15.797-12.637h-2.492c-.297 0-.543.27-.543.566v10.778c-.758.402-2.059 1.078-3.059 1.078-.844 0-1.305-.164-1.684-.485-.511-.46-.62-1.242-.62-2.585v-8.786c0-.296-.247-.566-.544-.566h-2.492c-.297 0-.543.27-.543.566v8.786c0 2.234.356 3.906 1.356 4.902.785.781 1.976 1.129 3.332 1.129 1.734 0 2.847-.43 4.254-1.344v.617c0 .297.246.54.543.54h2.492a.544.544 0 0 0 .543-.54v-14.09c0-.296-.246-.566-.543-.566zm12.844 12.637h-1.438c-.977 0-1.055-.16-1.055-1.508v-8.461h2.438a.544.544 0 0 0 .543-.54v-1.589a.543.543 0 0 0-.543-.539h-2.438v-2.777c0-.266-.191-.403-.433-.403h-.11l-2.52.43c-.296.055-.542.242-.542.539v2.211h-2.547a.54.54 0 0 0-.54.539v1.211c0 .297.243.488.54.539l2.547.379v8.46c0 3.61 1.246 4.282 4.308 4.282.598 0 1.192-.078 1.844-.187.352-.055.516-.215.516-.485v-1.699c0-.27-.219-.402-.57-.402"/><path style="stroke:none;stroke-width:1;stroke-dasharray:none;stroke-linecap:butt;stroke-dashoffset:0;stroke-linejoin:miter;stroke-miterlimit:4;is-custom-font:none;font-file-url:none;fill:#af0a35;fill-rule:nonzero;opacity:1" transform="translate(45.455 243.182) scale(4.5455)" d="M-.004 92.574h80.652V11.57H-.004zm0 0"/><path style="stroke:none;stroke-width:1;stroke-dasharray:none;stroke-linecap:butt;stroke-dashoffset:0;stroke-linejoin:miter;stroke-miterlimit:4;is-custom-font:none;font-file-url:none;fill:#f79b0c;fill-rule:nonzero;opacity:1" transform="translate(45.455 243.182) scale(4.5455)" d="M23.043 69.43h69.129V0H23.043zm0 0"/><path style="stroke:none;stroke-width:1;stroke-dasharray:none;stroke-linecap:butt;stroke-dashoffset:0;stroke-linejoin:miter;stroke-miterlimit:4;is-custom-font:none;font-file-url:none;fill:#e05416;fill-rule:nonzero;opacity:1" transform="translate(45.455 243.182) scale(4.5455)" d="M23.043 69.43h57.605V11.57H23.043zm0 0"/><path style="stroke:none;stroke-width:1;stroke-dasharray:none;stroke-linecap:butt;stroke-dashoffset:0;stroke-linejoin:miter;stroke-miterlimit:4;is-custom-font:none;font-file-url:none;fill:#fff;fill-rule:nonzero;opacity:1" transform="translate(45.455 243.182) scale(4.5455)" d="M46.473 20.559h-2.657a.52.52 0 0 0-.535.515v7.434h-7.617v-7.434c0-.297-.242-.515-.539-.515h-2.656a.52.52 0 0 0-.535.515V40.04c0 .297.242.54.535.54h2.656a.54.54 0 0 0 .54-.54v-8.242h7.616v8.242c0 .297.242.54.535.54h2.657a.54.54 0 0 0 .539-.54V21.074c0-.297-.242-.515-.54-.515zm10.722-.215c-1.957 0-3.863.136-5.258.351-.539.082-.859.27-.859.809v18.535c0 .297.242.54.54.54h2.679c.297 0 .512-.243.512-.54v-7.031c.617.027 1.687.11 2.386.11 4.133 0 7.727-1.536 7.727-6.306v-.242c0-4.77-3.594-6.226-7.727-6.226zm4.024 6.468c0 2.157-1.125 3.235-4.024 3.235-.457 0-1.957-.055-2.386-.082V23.55c.48-.055 1.824-.106 2.386-.106 2.684 0 4.024.86 4.024 3.125zm10-6.253h-2.656a.52.52 0 0 0-.536.515V40.04c0 .297.243.54.535.54h2.657a.54.54 0 0 0 .539-.54V21.074c0-.297-.242-.515-.54-.515"/></g></svg>