<svg xmlns="http://www.w3.org/2000/svg" width="200" height="200" viewBox="0 0 200 200"><path style="stroke:none;fill-rule:nonzero;fill:#00509e;fill-opacity:1" d="M16.164 91.594h16.719v16.719H16.164Zm16.75-8.371h-16.75a8.364 8.364 0 0 0-8.371 8.37v16.72c0 4.601 3.742 8.374 8.371 8.374h16.719a8.366 8.366 0 0 0 8.375-8.374v-16.72c0-4.628-3.742-8.37-8.344-8.37"/><path style="stroke:none;fill-rule:nonzero;fill:#00509e;fill-opacity:1" d="M24.48 93.035a6.864 6.864 0 0 0-6.875 6.871 6.862 6.862 0 0 0 6.875 6.871 6.861 6.861 0 0 0 6.872-6.87 6.863 6.863 0 0 0-6.872-6.872"/><path style="stroke:none;fill-rule:nonzero;fill:#000;fill-opacity:1" d="m64.664 83.281 16.285 23.684V88.742l-.027-4.355h-4.91V83.28h10.523v1.106h-4.082l-.031 4.355v28.192l-.766.246-21.84-31.782v25.524l.063 4.445h5.027v1.137H54.02v-1.137h4.355l.031-4.445v-22.18l-.031-4.355H54.02V83.28Zm54.356 0v10.645h-1.415c-.152-1.656-.335-3.711-1.777-6.164-1.687-2.883-3.988-3.008-6.258-3.098h-2.636l-.063 4.23v21.72l.063 4.816h5.09v1.132h-15.43v-1.132h5.094l.062-4.817V88.895l-.063-4.23h-2.18c-2.73.026-4.816.026-6.777 3.187-1.566 2.484-1.687 4.48-1.78 6.074h-1.348V83.28h29.418m13.375.001 16.285 23.684V88.742l-.059-4.355h-4.879V83.28h10.492v1.106h-4.05l-.063 4.355v28.192l-.734.246-21.84-31.782v25.524l.031 4.445h5.027v1.137H121.75v-1.137h4.324l.063-4.445v-22.18l-.063-4.355h-4.324V83.28Zm40.121 0v1.137h-4.664l-.059 3.988v17.973c.059 4.664.152 9.082 8.894 9.082 8.864 0 9.418-3.867 9.57-8.04V88.407l-.03-3.988h-4.754v-1.137h10.398v1.137h-4.11l-.03 3.988v17.145c-.063 6.168-.094 11.441-12.301 11.441-1.75 0-5.89-.183-8.528-1.258-4.203-1.777-4.297-5.457-4.324-9.968v-17.33l-.031-3.988h-4.05v-1.136h14.019"/></svg>