<?xml version="1.0" encoding="UTF-8"?>
<svg xmlns="http://www.w3.org/2000/svg" xmlns:xlink="http://www.w3.org/1999/xlink" width="200px" height="200px" viewBox="0 0 200 200" version="1.1">
<g id="surface1">
<path style=" stroke:none;fill-rule:nonzero;fill:rgb(0%,31.372549%,61.960784%);fill-opacity:1;" d="M 16.164062 91.59375 L 32.882812 91.59375 L 32.882812 108.3125 L 16.164062 108.3125 Z M 32.914062 83.222656 L 16.164062 83.222656 C 11.535156 83.222656 7.792969 86.964844 7.792969 91.59375 L 7.792969 108.3125 C 7.792969 112.914062 11.535156 116.6875 16.164062 116.6875 L 32.882812 116.6875 C 37.515625 116.6875 41.257812 112.945312 41.257812 108.3125 L 41.257812 91.59375 C 41.257812 86.964844 37.515625 83.222656 32.914062 83.222656 "/>
<path style=" stroke:none;fill-rule:nonzero;fill:rgb(0%,31.372549%,61.960784%);fill-opacity:1;" d="M 24.480469 93.035156 C 20.675781 93.035156 17.605469 96.105469 17.605469 99.90625 C 17.605469 103.710938 20.675781 106.777344 24.480469 106.777344 C 28.28125 106.777344 31.351562 103.710938 31.351562 99.90625 C 31.351562 96.105469 28.28125 93.035156 24.480469 93.035156 "/>
<path style=" stroke:none;fill-rule:nonzero;fill:rgb(0%,0%,0%);fill-opacity:1;" d="M 64.664062 83.28125 L 80.949219 106.964844 L 80.949219 88.742188 L 80.921875 84.386719 L 76.011719 84.386719 L 76.011719 83.28125 L 86.535156 83.28125 L 86.535156 84.386719 L 82.453125 84.386719 L 82.421875 88.742188 L 82.421875 116.933594 L 81.65625 117.179688 L 59.816406 85.398438 L 59.816406 110.921875 L 59.878906 115.367188 L 64.90625 115.367188 L 64.90625 116.503906 L 54.019531 116.503906 L 54.019531 115.367188 L 58.375 115.367188 L 58.40625 110.921875 L 58.40625 88.742188 L 58.375 84.386719 L 54.019531 84.386719 L 54.019531 83.28125 Z M 64.664062 83.28125 "/>
<path style=" stroke:none;fill-rule:nonzero;fill:rgb(0%,0%,0%);fill-opacity:1;" d="M 119.019531 83.28125 L 119.019531 93.925781 L 117.605469 93.925781 C 117.453125 92.269531 117.269531 90.214844 115.828125 87.761719 C 114.140625 84.878906 111.839844 84.753906 109.570312 84.664062 L 106.933594 84.664062 L 106.871094 88.894531 L 106.871094 110.613281 L 106.933594 115.429688 L 112.023438 115.429688 L 112.023438 116.5625 L 96.59375 116.5625 L 96.59375 115.429688 L 101.6875 115.429688 L 101.75 110.613281 L 101.75 88.894531 L 101.6875 84.664062 L 99.507812 84.664062 C 96.777344 84.691406 94.691406 84.691406 92.730469 87.851562 C 91.164062 90.335938 91.042969 92.332031 90.949219 93.925781 L 89.601562 93.925781 L 89.601562 83.28125 L 119.019531 83.28125 "/>
<path style=" stroke:none;fill-rule:nonzero;fill:rgb(0%,0%,0%);fill-opacity:1;" d="M 132.394531 83.28125 L 148.679688 106.964844 L 148.679688 88.742188 L 148.621094 84.386719 L 143.742188 84.386719 L 143.742188 83.28125 L 154.234375 83.28125 L 154.234375 84.386719 L 150.183594 84.386719 L 150.121094 88.742188 L 150.121094 116.933594 L 149.386719 117.179688 L 127.546875 85.398438 L 127.546875 110.921875 L 127.578125 115.367188 L 132.605469 115.367188 L 132.605469 116.503906 L 121.75 116.503906 L 121.75 115.367188 L 126.074219 115.367188 L 126.136719 110.921875 L 126.136719 88.742188 L 126.074219 84.386719 L 121.75 84.386719 L 121.75 83.28125 Z M 132.394531 83.28125 "/>
<path style=" stroke:none;fill-rule:nonzero;fill:rgb(0%,0%,0%);fill-opacity:1;" d="M 172.515625 83.28125 L 172.515625 84.417969 L 167.851562 84.417969 L 167.792969 88.40625 L 167.792969 106.378906 C 167.851562 111.042969 167.945312 115.460938 176.6875 115.460938 C 185.550781 115.460938 186.105469 111.59375 186.257812 107.421875 L 186.257812 88.40625 L 186.226562 84.417969 L 181.472656 84.417969 L 181.472656 83.28125 L 191.871094 83.28125 L 191.871094 84.417969 L 187.761719 84.417969 L 187.730469 88.40625 L 187.730469 105.550781 C 187.667969 111.71875 187.636719 116.992188 175.429688 116.992188 C 173.679688 116.992188 169.539062 116.808594 166.902344 115.734375 C 162.699219 113.957031 162.605469 110.277344 162.578125 105.765625 L 162.578125 88.4375 L 162.546875 84.449219 L 158.496094 84.449219 L 158.496094 83.3125 L 172.515625 83.3125 "/>
</g>
</svg>
