<svg xmlns="http://www.w3.org/2000/svg" width="200" height="200"><path style="stroke:none;fill-rule:nonzero;fill:#af182a;fill-opacity:1" d="M100 0C44.855 0 0 44.855 0 100s44.855 100 100 100 100-44.855 100-100S155.145 0 100 0zm97.547 100c0 53.777-43.77 97.547-97.547 97.547-53.777 0-97.547-43.73-97.547-97.547 0-53.777 43.77-97.547 97.547-97.547 53.816 0 97.547 43.77 97.547 97.547zm0 0"/><path style="stroke:none;fill-rule:nonzero;fill:#af182a;fill-opacity:1" d="M100 3.738C46.906 3.738 3.738 46.906 3.738 100S46.945 196.262 100 196.262c53.094 0 96.262-43.207 96.262-96.262 0-53.094-43.168-96.262-96.262-96.262zM195.379 100c0 52.574-42.766 95.379-95.379 95.379-52.613 0-95.336-42.805-95.336-95.379C4.664 47.426 47.426 4.664 100 4.664S195.379 47.426 195.379 100zm0 0"/><path style="stroke:none;fill-rule:evenodd;fill:#af182a;fill-opacity:1" d="M69.613 14.027c-.12 3.578 3.215 1.688 5.305 1.528.766-.04 7.477-2.692 6.512.082-.602 1.726-2.774 1.164-4.14 1.285-1.645.2-3.454.762-4.942 1.445-1.45.684-.364 1.61.804 1.328 1.086-.28 2.09-.363 3.176-.324 2.652.164 5.426.926 7.594 2.453 1.125.805 4.262 3.938 2.293 4.863-1.207.563-2.856-1.125-3.738-1.847-1.407-1.207-2.293-2.293-4.141-2.856-3.297-1.043-6.633-.402-9.246 1.852-2.371 2.047-4.137 4.418-4.66 7.516-.243 1.285-.805 5.906-2.895 4.378-2.332-1.687 1.004-7.195 1.61-8.156.32-.484.882-1.129 1.527-1.812a128.19 128.19 0 0 0 2.008-2.328c.363-.442 1.61-1.61 2.129-2.012.726-.563 1.046-1.606-.32-1.567-1.286.04-1.848.805-3.415 1.489-1.57.683-5.629 4.379-6.39 2.168-.965-2.73 5.101-3.817 6.71-4.461.36-.16.883-.32 1.286-.48.32-.122.765-.403.804-.485.32-.441.563-1.086.442-1.406-.32-.805-.926-1.809-.926-2.653.645-.48 1.89-.523 2.613 0zM64.27 124.438l-7.075-3.778-2.332 4.098c1.688 1.168 2.492 2.894 2.735 4.945l12.62 6.75 3.856-6.75-6.308-3.375L87.3 89.992c.078-.16.039-.281-.121-.402l-2.977-1.61c-.2-.078-.32-.039-.441.122zm0 0"/><path style="stroke:none;fill-rule:evenodd;fill:#af182a;fill-opacity:1" d="M75.926 127.29h51.246c1.043 0 1.887.847 1.887 1.89v11.777a1.885 1.885 0 0 1-1.887 1.887H75.926a1.886 1.886 0 0 1-1.89-1.887V129.18a1.89 1.89 0 0 1 1.89-1.89zm.64 1.647h49.84c.563 0 1.047.485 1.047 1.047v10.207c0 .563-.484 1.047-1.047 1.047H76.81a1.068 1.068 0 0 1-1.047-1.047v-10.449c0-.441.363-.804.804-.804zM72.508 72.71H89.91v-3.78H72.508zM72.508 78.496H89.91V74.72H72.508zM72.508 84.285H89.91v-3.777H72.508zM139.43 105.867h1.086c.32 0 .562.203.562.442v1.246c.563-.32.922-.883.922-1.567v-5.183c0-.684-.36-1.246-.922-1.567v1.004c0 .238-.242.442-.562.442h-1.086c-.282 0-.563-.204-.563-.442v-1.004c-.562.32-.926.883-.926 1.567v5.183c0 .684.364 1.246.926 1.567v-1.246c0-.239.242-.442.563-.442zM68.89 90.875c-.6 0-1.206.043-1.527.523-.925 1.489-.722 5.586-.722 7.235H62.18l-1.125-1.086v-7.473c1.082-1.77 3.816-3.054 8.84-3.054h10.894c.32 0 .48.28.36.48L75.16 98.633h-6.27zm15.516 9.77h15.875c.524 0 .965.44.965.964v1.004a.977.977 0 0 1-.965.965H83.2c.883.723 1.848 2.211 2.332 3.133h1.324s2.493 1.45 2.172 3.379c-.28 1.887-.882 2.328-2.613 3.816-1.727 1.489-4.941 4.703-6.27 6.43-1.328 1.77-1.328 4.383.16 4.383h42.122c.203 0 .363-.04.523-.16.926-.563.766-2.735-.36-4.262-1.327-1.77-4.503-4.984-6.273-6.43-1.765-1.449-2.328-1.89-2.609-3.82-.121-.762.2-1.484.64-2.008l.044-.039s0-.043.039-.043l.039-.039.039-.04.043-.042.039-.04.039-.038.043-.04.039-.042c.602-.602 1.207-.965 1.207-.965h1.324c.723-1.648 1.89-3.012 3.055-4.059 1.687-1.488 3.336-2.25 3.336-2.25h3.777c3.176-3.617 7.278-4.863 11.535-5.586v2.211c-1.484.118-2.652 1.407-2.652 2.934v6.953c0 1.527 1.168 2.773 2.652 2.934v3.859c-1.484.121-2.652 1.406-2.652 2.934v6.75a2.953 2.953 0 0 0 2.934 2.937h1.648a2.95 2.95 0 0 0 2.934-2.937v-6.79c0-1.527-1.164-2.773-2.653-2.937v-3.855c1.489-.121 2.653-1.41 2.653-2.938v-6.953c0-1.527-1.164-2.773-2.653-2.934v-2.57c.524-.082 1.047-.203 1.57-.281 5.465-.926 5.465-2.934 5.465-2.774v-4.34h-60.21l2.492 1.286c.203.078.324.32.164.601zm56.672 15.23v.965c0 .242-.242.441-.562.441h-1.086c-.282 0-.563-.199-.563-.441v-.965c-.562.324-.926.887-.926 1.57v5.063c0 1.004.805 1.808 1.809 1.808h.441c.965 0 1.809-.804 1.809-1.808v-5.063c0-.683-.36-1.289-.922-1.57zm-54.625 2.816h29.543c.524 0 .965.442.965.965v1.004a.977.977 0 0 1-.965.965H86.453a.976.976 0 0 1-.96-.965v-1.004c-.044-.523.398-.965.96-.965zm5.188-6.39h19.171c.524 0 .965.441.965.96v1.009a.98.98 0 0 1-.965.964H91.642a.98.98 0 0 1-.965-.964v-1.008c-.04-.52.402-.961.965-.961zm.722-5.992h17.684a.98.98 0 0 1 .965.964v1.008a.98.98 0 0 1-.965.965H92.363a.98.98 0 0 1-.965-.965v-1.008c0-.562.442-.964.965-.964zm15.356-5.664h7.918a.98.98 0 0 1 .965.964v1.004a.98.98 0 0 1-.965.965h-7.918a.977.977 0 0 1-.965-.965v-1.004c0-.523.441-.964.965-.964zM91.316 72.71h3.016v-3.78h-3.016zM74.758 65.434c5.305-.282 11.094-2.09 16.117-4.621l1.57 3.457c-5.507 2.652-11.738 4.421-16.761 4.66zM94.895 58.883l-2.692 1.328 1.527 3.414 2.774-1.324zM91.316 78.496h3.016V74.72h-3.016zM91.316 84.285h3.016v-3.777h-3.016zM112.54 63.344l5.507-3.055 11.574 21.02-5.504 3.015zm3.495 2.894 2.492-1.367.684 1.164-2.492 1.367zm1.41 2.532 2.493-1.368.68 1.168-2.49 1.368zm0 0"/><path style="stroke:none;fill-rule:evenodd;fill:#af182a;fill-opacity:1" d="M106.07 57.598h6.63v26.765h-6.63zm-9.605-2.493h7.394v29.22h-7.394zm2.289 3.778h2.855v1.328h-2.855zm0 2.894h2.855v1.325h-2.855zm0 2.895h2.855v1.324h-2.855zm0 2.89h2.855v1.329h-2.855zm9.203-5.785h2.856v1.325h-2.856zm0 2.895h2.856v1.324h-2.856zm0 2.89h2.856v1.329h-2.856zm0 0"/><path style="stroke:none;fill-rule:evenodd;fill:#af182a;fill-opacity:1" d="M100 156.914c-31.352 0-56.871-25.523-56.871-56.832 0-31.352 25.52-56.875 56.871-56.875 31.352 0 56.914 25.523 56.914 56.875-.043 31.27-25.605 56.832-56.914 56.832zm69.254-58.762-5.426-.726c-.203-.04-.363-.117-.484-.281l-.121-2.61a.56.56 0 0 1 .441-.324l5.309-1.406c.078-.04.16-.078.16-.282-.082-.441-.121-1.003-.203-1.566v-.082c-.078-.563-.16-1.086-.2-1.566-.039-.2-.12-.2-.242-.2h-5.465c-.203 0-.402-.082-.484-.203-.16-.844-.36-1.687-.52-2.57a.603.603 0 0 1 .399-.363l5.066-2.13c.078-.042.16-.081.121-.28-.12-.446-.203-.965-.402-1.528v-.082c-.16-.562-.32-1.086-.441-1.566-.082-.16-.16-.16-.282-.16l-5.425.722a.612.612 0 0 1-.524-.12 25.925 25.925 0 0 0-.844-2.454c.079-.2.16-.36.36-.441l4.785-2.735c.078-.039.16-.117.078-.281-.12-.441-.36-.965-.562-1.484l-.04-.043v-.04c-.242-.562-.44-1.003-.644-1.488-.078-.16-.16-.16-.281-.16l-5.305 1.45a.503.503 0 0 1-.562-.122 36.6 36.6 0 0 0-1.125-2.25c0-.242.12-.402.28-.523l4.34-3.297c.083-.078.122-.16.083-.32-.242-.442-.485-.887-.766-1.368 0 0 0-.039-.039-.039v-.043c-.32-.52-.562-1.004-.805-1.363-.12-.164-.199-.164-.32-.121l-5.062 2.129c-.204.121-.403.082-.606-.04-.441-.722-.922-1.366-1.367-2.05-.078-.242 0-.441.16-.601l3.902-3.86c.079-.082.16-.16.04-.32-.282-.363-.602-.766-.965-1.29h-.04v-.038h-.042c-.36-.48-.684-.883-.965-1.285-.16-.16-.239-.122-.32-.043l-4.743 2.734a.548.548 0 0 1-.644.039c-.52-.602-1.043-1.246-1.606-1.848a.55.55 0 0 1 .121-.601l3.336-4.344c.078-.078.117-.16-.043-.32-.32-.36-.683-.723-1.082-1.125v-.04h-.12v-.042h-.044a13.463 13.463 0 0 0-1.125-1.082c-.16-.16-.238-.082-.32-.043l-4.34 3.336c-.16.12-.402.164-.605.12-.602-.519-1.246-1.085-1.848-1.566-.121-.242-.121-.441.039-.644l2.734-4.742c.04-.078.082-.16-.082-.282-.398-.32-.761-.64-1.285-1.004v-.039h.04v-.043c-.481-.359-.923-.683-1.286-.964-.16-.118-.242-.04-.32.043l-3.899 3.898c-.16.16-.363.242-.562.2-.723-.481-1.367-.966-2.09-1.407-.121-.16-.121-.402-.043-.602l2.172-4.945c.039-.121.082-.2-.121-.32-.403-.242-.844-.485-1.367-.805h-.04s0-.039-.038-.039c-.485-.281-.965-.523-1.368-.766-.16-.078-.242 0-.32.082l-3.336 4.34c-.164.203-.281.282-.523.282-.723-.403-1.489-.762-2.25-1.125-.164-.16-.164-.364-.121-.563l1.445-5.305c0-.082.039-.203-.16-.28-.442-.161-.926-.403-1.489-.645h-.078c-.523-.243-1.008-.403-1.488-.602-.16-.082-.242.04-.281.121l-2.735 4.742c-.12.2-.238.32-.441.36a25.55 25.55 0 0 0-2.453-.844.605.605 0 0 1-.117-.52l.722-5.425c0-.121 0-.204-.16-.243-.445-.16-1.008-.28-1.57-.441v-.043h-.078c-.563-.16-1.047-.281-1.528-.402-.203-.04-.242.043-.28.164l-2.134 5.062c-.078.2-.16.32-.36.403-.886-.16-1.73-.364-2.573-.524a.662.662 0 0 1-.2-.48v-5.547c0-.082 0-.203-.203-.203-.441-.121-1.004-.16-1.566-.239h-.078c-.606-.082-1.13-.12-1.61-.164-.199-.039-.242.082-.242.121l-1.445 5.305c-.04.203-.121.363-.324.445-.844-.082-1.727-.12-2.61-.16a.582.582 0 0 1-.242-.484l-.722-5.426c-.043-.082-.082-.16-.243-.16-.242-.04-.48-.04-.765-.04h-.36.078-.843.043-.606c-.281 0-.52 0-.761.04-.16 0-.204.121-.204.16l-.722 5.426c-.04.2-.121.402-.282.484-.882.04-1.726.117-2.613.16-.12-.12-.238-.242-.281-.445l-1.406-5.305c-.04-.078-.078-.16-.243-.12-.48.042-1.003.12-1.605.163h-.082c-.602.079-1.125.16-1.605.239-.16 0-.204.16-.204.203v5.465c.043.203-.039.402-.16.484-.883.16-1.726.36-2.57.52-.203-.079-.324-.16-.402-.403l-2.09-5.062c-.043-.121-.121-.16-.281-.16-.446.12-1.008.242-1.57.402h-.04c-.039 0-.039 0-.039.039-.562.121-1.086.281-1.527.441-.203.04-.16.121-.16.243l.722 5.425c.04.2 0 .403-.16.524-.805.238-1.648.523-2.453.844-.16-.04-.32-.16-.441-.364l-2.696-4.66c-.039-.082-.117-.16-.281-.121-.441.16-.922.36-1.484.602h-.082c-.524.242-1.004.441-1.446.644-.16.078-.16.2-.12.281l1.405 5.305a.56.56 0 0 1-.082.563c-.761.363-1.566.722-2.289 1.125a.58.58 0 0 1-.523-.282L67 39.148c-.078-.082-.117-.16-.32-.082-.403.243-.883.485-1.368.766v.04h-.078c-.484.32-.964.562-1.367.804-.16.12-.12.199-.082.32l2.09 5.024c.121.203.121.445-.04.605-.683.441-1.366.922-2.05 1.406a.659.659 0 0 1-.601-.203l-3.86-3.898c-.078-.078-.16-.121-.32-.04-.402.282-.805.602-1.285.965l-.043.04h-.04v.042c-.44.36-.882.68-1.245 1.004-.16.121-.121.2-.082.282l2.734 4.742c.121.2.16.402.039.644-.64.48-1.246 1.043-1.848 1.567a.64.64 0 0 1-.644-.121l-4.34-3.336c-.078-.04-.16-.121-.32.039-.364.324-.723.683-1.125 1.086l-.043.039s0 .043-.04.043c-.402.402-.761.761-1.085 1.125-.16.16-.078.238-.04.32l3.337 4.34c.16.16.16.402.12.605-.523.602-1.046 1.246-1.609 1.848-.238.121-.441.121-.64-.039l-4.785-2.734c-.079-.082-.16-.121-.282.039-.32.402-.64.765-1.004 1.289h-.039v.039c-.402.48-.722.926-.965 1.285-.12.16-.082.242 0 .32l3.899 3.86a.66.66 0 0 1 .2.605c-.481.68-.966 1.324-1.407 2.047a.549.549 0 0 1-.602.043l-5.066-2.133c-.078-.039-.16-.078-.281.121-.239.403-.52.844-.801 1.367h-.043v.082c-.32.48-.563.961-.762 1.364-.12.164-.039.242.04.324l4.382 3.293c.16.164.238.281.238.523-.398.723-.722 1.489-1.125 2.25-.16.164-.359.164-.562.121l-5.305-1.445c-.082 0-.16-.039-.281.16-.16.442-.402.926-.602 1.489h-.043v.078A15.244 15.244 0 0 0 35.008 75c-.082.16.039.242.12.281l4.743 2.735c.203.12.32.238.363.441-.324.805-.562 1.606-.843 2.453-.164.117-.325.16-.524.117l-5.426-.722c-.082 0-.203 0-.242.16-.12.445-.281 1.008-.441 1.57h-.04v.078c-.163.563-.28 1.047-.402 1.528-.043.203.079.242.16.28l5.063 2.134c.203.078.324.16.402.36-.16.886-.359 1.73-.48 2.573-.16.16-.324.2-.523.2H31.59c-.078 0-.16 0-.2.203-.081.441-.16 1.004-.242 1.566v.078c-.078.606-.16 1.13-.16 1.57-.039.2.082.239.16.282l5.305 1.406c.203.039.363.121.445.32-.082.844-.12 1.73-.16 2.614-.12.16-.242.242-.484.28l-5.426.723c-.082 0-.16.043-.16.204-.04.48-.04 1.004-.04 1.566v.121c0 .563 0 1.086.04 1.567 0 .16.121.203.16.203l5.426.722c.242.04.402.121.484.282.04.882.117 1.726.16 2.613-.12.16-.242.281-.445.32l-5.305 1.406c-.078.04-.16.082-.16.282.04.441.121 1.004.16 1.566v.121c.082.563.122 1.086.243 1.57 0 .2.16.2.199.2h5.469c.199 0 .402.039.523.16.117.887.32 1.73.48 2.613-.082.16-.16.281-.402.363l-5.023 2.047c-.121.043-.16.082-.16.281.12.446.242.965.402 1.528v.082h.039c.16.562.281 1.086.441 1.566.04.16.16.16.243.16l5.425-.722c.2-.04.403 0 .524.16.238.844.523 1.648.844 2.453-.04.2-.16.363-.364.441l-4.742 2.735c-.078.039-.16.12-.121.281.16.442.363.965.605 1.488v.079c.239.562.442 1.003.641 1.488.082.16.203.16.281.12L42 126.892a.494.494 0 0 1 .563.117c.363.726.726 1.527 1.128 2.254 0 .238-.082.402-.28.52l-4.345 3.296c-.078.082-.16.121-.078.32.239.446.48.887.762 1.368.04 0 .04.043.04.043v.039h.042c.281.523.563 1.004.805 1.367.078.16.16.16.281.12l5.062-2.132c.204-.121.403-.078.602.043.445.723.926 1.363 1.41 2.047a.673.673 0 0 1-.203.605l-3.898 3.899c-.082.078-.121.121 0 .32.242.363.562.766.925 1.285h.04v.043h.039c.363.48.683.883 1.003 1.285.122.16.204.122.286.04l4.78-2.735c.2-.117.403-.117.645-.039.52.606 1.043 1.246 1.606 1.848a.563.563 0 0 1-.121.605l-3.336 4.34c-.04.082-.121.16.043.32.32.364.68.727 1.082 1.13 0 0 0 .038.043.038v.04h.039c.441.44.762.765 1.125 1.085.16.16.242.078.32.04l4.344-3.337c.16-.16.402-.16.601-.12l1.848 1.609c.121.242.121.441-.039.644l-2.734 4.742c-.078.079-.121.16.043.32.398.282.8.602 1.285.966v.039h.039v.039c.484.363.926.683 1.285.965.164.12.203.043.281-.04l3.899-3.898a.664.664 0 0 1 .605-.2c.684.481 1.324.966 2.051 1.407.117.16.117.402.039.602l-2.129 5.023c-.043.121-.043.203.117.324.403.239.844.48 1.367.801h.043c0 .043.04.043.04.043.48.281.964.52 1.367.762.16.082.238 0 .32-.078l3.297-4.344c.16-.2.281-.281.52-.281.726.402 1.527.765 2.253 1.125.16.164.16.363.121.562l-1.41 5.266c-.039.12-.039.203.121.281.442.164.887.402 1.45.645h.039c.039 0 .039 0 .039.039.523.203 1.008.402 1.488.562.16.082.242 0 .281-.12l2.692-4.821c.082-.203.203-.324.445-.364.8.32 1.605.606 2.45.844.16.121.16.324.16.524l-.723 5.386c0 .121 0 .2.16.243.445.117 1.008.28 1.57.441h.078c.563.16 1.086.281 1.528.402.203.078.242-.043.28-.12l2.134-5.067c.078-.16.16-.281.36-.36.886.16 1.73.36 2.612.48.16.122.16.282.16.485v5.547c0 .117 0 .2.204.238.441.082 1.004.16 1.566.204h.121c.563.12 1.086.16 1.567.199.199 0 .242-.121.28-.16l1.407-5.305a.69.69 0 0 1 .281-.441c.844.078 1.73.117 2.614.117.16.164.242.285.28.484l.723 5.426c0 .082.043.16.204.2h3.457c.16-.04.199-.118.238-.2l.726-5.426c0-.2.118-.363.239-.484.886-.04 1.77-.078 2.613-.117.16.078.281.199.363.44l1.407 5.306c0 .082.078.16.242.16.441-.078 1.004-.121 1.605-.2h.082c.602-.081 1.086-.16 1.606-.203.16-.039.16-.16.16-.238v-5.469c0-.199.082-.402.203-.48.844-.16 1.727-.324 2.57-.484.164.082.325.16.403.363l2.09 5.062c.042.082.12.16.28.121.446-.12.966-.199 1.571-.402h.078c.563-.16 1.047-.32 1.528-.441.16-.04.16-.121.16-.243l-.723-5.382a.727.727 0 0 1 .121-.524 25.925 25.925 0 0 0 2.453-.844c.2.04.36.122.442.36l2.734 4.703c.078.121.16.16.32.121.442-.16.926-.363 1.489-.562v-.04h.039c.562-.242 1.043-.44 1.488-.644.16-.078.16-.16.16-.281l-1.45-5.266c-.038-.2-.038-.402.122-.562.766-.36 1.527-.723 2.293-1.125.2 0 .402.082.48.28l3.336 4.34c.04.083.16.16.282.083.441-.242.886-.485 1.406-.766v-.039h.043c.52-.32 1.004-.562 1.363-.805.164-.12.164-.199.121-.32l-2.09-5.023c-.12-.203-.12-.442 0-.606.727-.441 1.407-.922 2.09-1.406.203-.04.403.043.563.203l3.898 3.898c.082.079.121.122.324.04.403-.282.805-.602 1.286-.965v-.16h.039s0-.04.043-.04c.441-.363.882-.683 1.246-.964.117-.16.117-.243.078-.325l-2.735-4.742c-.117-.16-.117-.402-.039-.64.645-.485 1.246-1.047 1.852-1.61a.632.632 0 0 1 .64.121l4.34 3.336c.082.04.121.121.282-.039.363-.324.726-.683 1.168-1.086v-.039h.039c.441-.402.804-.765 1.125-1.125.12-.12.082-.242 0-.324l-3.336-4.34a.565.565 0 0 1-.121-.601c.562-.606 1.086-1.247 1.609-1.852.2-.121.402-.121.645.043l4.742 2.73c.078.082.16.122.32-.039.281-.402.602-.765 1.004-1.285v-.043h.043c.36-.48.68-.922.96-1.285.122-.16.044-.242-.038-.32l-3.899-3.899c-.16-.16-.199-.363-.16-.605.442-.68.926-1.324 1.367-2.047.2-.121.403-.16.602-.043l5.066 2.133c.078.039.16.039.282-.121.238-.403.48-.844.8-1.367v-.04h.043v-.042c.282-.48.563-.961.762-1.364.121-.164 0-.242-.078-.324l-4.344-3.293c-.16-.164-.281-.281-.281-.523.402-.723.766-1.528 1.125-2.25.164-.164.363-.164.562-.121l5.309 1.406c.121.039.2.039.281-.121.2-.442.442-.926.64-1.489v.043l.044-.043c.2-.52.441-1.004.562-1.484.078-.164 0-.242-.082-.281l-4.78-2.735a.567.567 0 0 1-.325-.441c.281-.805.562-1.61.805-2.453.16-.16.32-.16.523-.16l5.023.761c.122 0 .204 0 .282-.16.12-.441.242-1.004.441-1.566v-.082c.16-.563.281-1.082.402-1.528.082-.199-.039-.238-.12-.28l-5.063-2.13c-.203-.082-.32-.16-.403-.363.2-.883.364-1.727.524-2.61.121-.12.281-.163.48-.163h5.47c.116 0 .198 0 .237-.2.082-.441.122-1.004.204-1.566v-.121c.12-.563.12-1.086.199-1.567 0-.203-.121-.242-.16-.28l-5.305-1.41c-.203-.04-.363-.118-.441-.321.078-.883.117-1.727.117-2.614.12-.16.285-.238.484-.28l5.426-.723c.082 0 .16-.04.2-.2v-3.218c.081-.2-.04-.239-.118-.239zm0 0"/><path style="stroke:none;fill-rule:evenodd;fill:#af182a;fill-opacity:1" d="M94.895 137.18c0 .238-.239.48-.524.48h-4.98c-.282 0-.524-.2-.524-.48v-1.008c0-.238.242-.442.524-.442h4.98c.285 0 .524.204.524.442zm-5.95-4.301c0-.242.243-.441.524-.441h4.824c.281 0 .523.199.523.44v.966c0 .238-.242.441-.523.441h-4.824c-.281 0-.524-.203-.524-.441zm7.559 2.129-.082-.04-.16-.081.16-.078.082-.043c.402-.2.64-.602.64-1.082v-1.45c0-.644-.562-1.164-1.246-1.164h-8.156c-.644 0-1.168.52-1.168 1.164v1.489c0 .48.242.882.645 1.086l.082.039.16.078-.16.082-.082.039a1.198 1.198 0 0 0-.766 1.125v1.73c0 .645.484 1.164 1.086 1.164h8.602c.605 0 1.086-.52 1.086-1.164v-1.73c.039-.563-.282-1.004-.723-1.164zM83.281 139.027h-2.535V133c0-.242-.2-.242-.281-.242-.121 0-.281.039-.403.078l-1.886.445v-1.449l1.969-.523c.082-.04.16-.04.28-.079.321-.082.684-.203 1.005-.203h1.527c.203 0 .324.121.324.325zM25.805 58.36c-.606-.684.64-2.653 1.285-1.446.082.844-.723 1.648-1.285 1.445zm13.183-9.243c-1.086.04-4.906.602-5.707 1.043-1.93 1.047-2.695 2.05-3.898 3.86-.485.722-1.008 1.726-1.852.964-.601-.562-1.246.282-1.93.078-.761-.238-.761-.921-1.042-1.527-.442-.844-1.45.082-2.012.164-.442-.324-.16-1.61-.602-1.93-1.488-.042-1.808.922-1.488 2.13.363 1.285-.844 2.011-.762 3.257.403.399 1.004.282 1.446 0 .562.239.765.883.964 1.407.282.882.684.402 1.407.359 3.539-.16 1.086 4.223.605 5.95-.242.925-.605 2.25-.082 3.175.32.562 1.207 2.25 1.367 2.613.805 1.367 4.782 3.336 3.414.281-.921-1.968-2.73-3.136-2.37-5.507.402-2.774.925-4.782 2.05-7.317.965-2.09 2.934-3.855 4.664-5.222.883-.684 1.766-1.247 2.895-1.247 1.125 0 2.37.403 3.453-.082.445-.683 0-1.93-.52-2.449zM33 62.582c-.121 1.527-1.488 1.605-1.61 1.082-.12-.36.684-2.047 1.446-1.605.082.039.203.28.203.359v.121c-.039 0-.039 0-.039.043zm-2.773-.766c-.727-1.043.562-2.332.843-3.375.121-.16.2-.402.48-.441.282 0 .04-.043.563.281.563.36-1.164 4.582-1.886 3.535zm5.382-7.433c-.078 0-.199.16-.199.199-.523 1.164.602 4.902-1.285 4.945-.645-1.047.48-3.175-1.047-3.859-1.164-.523-1.969.2-2.531 1.164-1.164 2.012-2.531 4.34-2.293 6.914.363.684 1.367.602 1.77 1.246-.282.805-1.325 1.043-1.004 2.29 0 .042.16.202.199.241 3.136 1.247 3.097-2.894 5.347-2.57.403.32-.16 1.649.442 2.129 1.77.2 2.691-2.371 1.89-3.7-1.207-2.007-.242-2.609.36-4.581.16-1.364 1.57-2.61.402-4.059-.242-.402-1.605-.441-2.05-.36zm-12.5-3.621c.446-.32.606-.282.844-.801.242-.523.606-.926 1.207-.926.723.883-.805 2.293.363 3.055 1.165.082.723-1.043 1.887-.965.926 1.246-.883 1.648-.32 3.137 1.848.601 2.41-2.012 2.332-3.297-.04-.883-.242-2.13-.926-2.735-.723-.64-1.77-1.484-2.691-1.847-1.328-.524-2.133.441-2.653 1.488-.523 1.004-1.527 1.93-1.488 3.176.082.8 1.125-.082 1.445-.285zm.325 9.566c-.043-.078-.403-.16-.485-.16-1.203.242-1.285 2.531-1.93 2.05-.64-.44.403-1.929-.32-2.69-2.21-.524-.883 2.21-2.332 3.011-.36-.121-.601-.121-.683-.441-.079-.32 1.488-2.934.964-3.215-1.406-.926-1.527.523-1.605 1.566-.043.442-.324 1.168-.363 1.246-.805 1.407.28 2.25 1.648 2.774 1.086.441 3.375 1.125 4.18.039.722-.961 1.77-2.973.926-4.18zM137.46 20.7c-.042 0-.16-.122-.202-.16-.965-1.126-3.012-1.93-4.54-2.013a.983.983 0 0 1-.323-.078l-.079-.082c-.324-.32-.804-1.687.32-1.324 1.208.402 1.208.48 2.09.8.805.286 2.13.727 2.856 1.048.04 0 .04.039.078.039.04.043.121.043.16.082.121.078.243.16.364.242.882.844.562 1.766-.723 1.445zm-3.417 3.214c.242-1.445 2.09.121 1.648 1.086-.039.04-.16.121-.199.121a1.614 1.614 0 0 1-.605-.402c-.282-.282-.844-.766-.844-.805zm2.25 4.18c-.32.886-2.691-.684-2.652-1.809 0-.039.043-.16.082-.16.722-.078 2.851 1.047 2.57 1.969zm-1.848 3.898c-.039.043-.242.164-.32.203-1.29.04-3.258-.605-3.297-2.09 0-.843.645-1.328 1.406-1.449.282-.039.524.043.723.16.363.204.727.325 1.047.567.078.039.16.117.2.16.886.64.886 1.566.241 2.45zm-4.543-6.148c-.359-.16-1.687-.883-1.527-1.407.16-.44.887-.722 2.371.282.043.039.164.32.164.402-.082.563-.164 1.086-1.008.723zM127.29 29.3c-.8-.485-1.363-1.367-1.203-1.77.805-1.367 3.656-1.164 3.695.684 0 1.125-1.726 1.566-2.492 1.086zm3.137-6.754c.281-.762 1.406-.32 1.566.324 0 .04-.078.16-.16.2-.523.081-.922.12-1.406-.321 0-.04-.04-.16 0-.203zm-7.836 3.258c.281-.282.762-.606 1.605.12.043.04.16.24.16.282.325 2.492-3.574 1.406-1.765-.402zm-3.82 1.406c-.805-.363.402-4.863 1.89-3.86 1.445 1.004-1.125 4.18-1.89 3.86zm21.746-8.723c-2.817-1.605-5.707-2.812-8.883-3.375-1.57-.281-3.055 3.094-1.488 4.02.644.36 3.054.238 2.972 1.285-.117.645-2.488-.602-4.379.48-.12.082-.203.122-.242.165-.562.359-1.043 1.042-1.566 1.527-.524.48-1.328 1.605-2.172 1.484-.684-.12-1.848-1.246-1.766-1.363.32-.606 1.164-.242 1.727-.926.965-1.246.761-2.734 1.328-4.14.601-1.489 3.012-1.086 3.012-3.215 0-.883-.805-1.367-1.407-1.97l-.722-.523c-.364-.199-1.809-.199-1.567.883.117.524 1.082 2.012.117 2.254-1.285.32-3.132-.242-4.378-.566-.204-.04-1.809-.602-2.051-.563-.2.043-.36.082-.48.203-.524.524-.485 1.489-.044 2.008l.043.043c.04.04.078.078.121.078.282.082 1.325.121 1.325.121.601 0 1.648.243 2.41.563.847.402 1.289.684.363.965h-.039c-1.285.441-3.617-.684-4.945-.04-.04.04-.121.079-.16.122-.122.199-.48.922-.04 1.164.403.2.965.32 1.286.363.242.04 1.89 0 2.652-.043.242 0 .523-.078.602-.12a.832.832 0 0 1 .445-.118c.562-.082 1.004.039.762.683-.32.844-3.375 1.688-4.18 1.485-.805-.2-1.688.887-1.727 1.047-.164.722-.082 1.566-.402 2.332-.441 1.043-1.406 2.488-.887 3.656.121.36 2.492.48 5.227.883.199.043.363.043.562.082 1.727.281 3.535.64 4.946 1.246.562.242 1.004.441 1.406.562 1.969 1.004 4.02 2.29 4.34 2.653 1.566 1.808 4.02 4.824 4.945 3.535-.082-1.285-.805-2.207-1.328-3.293-.242-.484.402-.684.644-.965.922-1.168 1.165-2.976 1.446-4.383.242-1.164.441-2.37.722-3.535.364-1.328-1.484-2.25-2.652-2.613-.16-.04-.441-.363-.402-.442.203-.964 1.968-.203 3.054.524.403.281 1.489.2 1.73-.164.321-.563.563-1.324.845-1.766.601-1.246-.243-1.77-1.125-2.293zm0 0"/><path style="stroke:none;fill-rule:nonzero;fill:#af182a;fill-opacity:1" d="M12.418 105.227c-.04-.606 0-2.012 0-2.977a14.13 14.13 0 0 0 1.973.121v.082c-.606.762-.965 1.766-.926 2.89.082.966.562 1.571 1.406 1.528.602-.039.965-.32 1.328-.883.563-.843.922-1.847 1.606-2.812.765-1.047 1.566-1.285 2.53-1.367.966-.082 2.817.363 3.056 3.898.043.684.082 1.73.043 2.613-.485-.12-1.207-.203-1.891-.28v-.083c.523-.48.883-1.043.805-2.289-.082-1.168-.766-1.73-1.45-1.688-.843.04-1.324.2-2.289 2.29-1.207 2.574-2.007 2.695-2.972 2.773-1.207.039-3.016-.48-3.219-3.816zM19.855 119.21c-1.246.204-4.058.806-5.226 1.247-.078-.64-.121-.844-.2-1.324-.081-.363-.12-.684-.32-1.488 1.485-.16 3.735-.48 4.903-.723-.121-.766-.16-1.168-.282-1.77a39.722 39.722 0 0 0-.402-1.808c-1.726.32-3.215.644-4.824 1.125-.078-.602-.16-1.043-.2-1.324-.081-.364-.12-.684-.324-1.45 1.489-.12 4.102-.523 5.266-.722 1.125-.2 4.906-.805 5.227-1.407h.082c.078.645.16 1.043.238 1.528.082.48.203.965.324 1.445-1.086 0-2.613.281-4.582.645.121.843.16 1.207.281 1.808.122.602.16.883.36 1.77 2.37-.446 3.496-.645 4.422-1.246h.039c.043.52.12.921.242 1.527.082.441.203 1.043.32 1.445-1.363.04-3.937.442-5.344.723zM24.637 124.195v-.078c-1.364-.043-2.57 0-3.856.04.078.402.2.722.32 1.085.16.52.243.723.403 1.125a63.234 63.234 0 0 0 3.133-2.172zm-6.91 6.11c-.165-.48-.325-.922-.524-1.446 1.086-.402 2.652-1.406 3.375-1.89-.121-.524-.281-.965-.441-1.446-.16-.441-.364-.964-.48-1.285-.887 0-2.817.16-3.782.64-.16-.562-.2-.804-.36-1.206-.12-.442-.28-.8-.44-1.246.679.12 1.847.242 2.37.285 1.043.078 2.492.117 3.657.16 1.043.04 2.691.04 3.98.04.36 0 .965 0 1.285-.2l.078-.043c.164.523.325.887.446 1.207.16.441.359.883.562 1.367-.324.16-.844.48-1.328.805-.965.64-2.172 1.445-3.055 2.09a55.665 55.665 0 0 0-3.093 2.25c-.32.242-1.086.883-1.73 1.566-.24-.723-.36-1.207-.52-1.648zM27.172 138.945c-.645.325-3.418 1.61-4.543 2.293a10.036 10.036 0 0 0-.965-1.73c.805-1.285 2.41-3.617 3.137-4.621l2.168-3.055-.04-.039-2.812 1.324c-.523.242-3.336 1.809-4.222 2.535-.16-.363-.282-.683-.442-1.047-.16-.32-.363-.683-.523-1.003 1.57-.32 5.347-2.09 6.07-2.41.563-.282 2.855-1.29 3.617-2.133l.082-.04c.16.442.403.926.602 1.407.242.484.48.965.683 1.328-.562.64-1.73 2.129-2.332 2.973-1.125 1.648-1.808 2.652-2.453 3.578l.043.039 1.848-.883c1.086-.524 3.82-2.012 4.34-2.613.12.28.28.722.441 1.043.203.445.242.484.524.964-1.325.325-4.461 1.73-5.223 2.09zM31.07 150c-.363.2-1.086.684-1.808 1.246-1.086-1.125-1.688-1.89-2.453-3.094-1.891-2.894-1.567-5.144 1.77-7.355 2.05-1.367 5.023-2.211 7.636 1.726.722 1.086 1.484 2.372 1.808 3.016-.722.2-1.328.441-2.011.762l-.078-.078c.238-.887.078-2.09-.684-3.258-1.207-1.809-3.137-1.485-5.305-.078-3.015 2.008-3.015 3.414-1.89 5.105.523.762.965.563 1.367.32l.965-.644c.441-.281.965-.64 1.324-1.324l.082-.043c.242.402.523.844.762 1.289.363.52.445.683.804 1.164-.523.2-1.605.805-2.289 1.246zM40.555 156.793c-.965.805-3.055 2.734-3.86 3.738-.402-.523-.523-.683-.843-1.047-.243-.28-.48-.52-1.043-1.086 1.203-.882 2.972-2.328 3.855-3.093-.48-.602-.723-.922-1.125-1.368-.402-.44-.8-.882-1.246-1.363-1.324 1.164-2.45 2.207-3.574 3.414-.364-.48-.684-.843-.848-1.043-.238-.28-.48-.523-1.004-1.086 1.207-.843 3.258-2.53 4.14-3.336.884-.765 3.778-3.214 3.778-3.898l.043-.043c.399.523.68.844.961 1.207.324.363.645.723 1.008 1.086-.926.523-2.09 1.566-3.617 2.895.52.683.761.921 1.164 1.406.402.441.601.683 1.246 1.324 1.808-1.605 2.691-2.328 3.176-3.336h.039c.324.445.562.727.965 1.207.32.363.722.805 1.003 1.086-1.125.723-3.093 2.371-4.218 3.336zM47.266 158.64l-.04-.038c-1.206.683-2.21 1.324-3.296 2.007.28.282.523.524.804.766.403.363.602.523.926.762a84.696 84.696 0 0 0 1.606-3.496zm-2.813 8.762c-.402-.32-.723-.64-1.164-.964.723-.922 1.566-2.57 1.93-3.336-.364-.36-.727-.723-1.086-1.043-.363-.32-.805-.645-1.086-.887-.766.484-2.371 1.57-2.934 2.492-.402-.402-.605-.601-.925-.844-.32-.28-.641-.562-1.004-.843.644-.239 1.726-.723 2.171-.965a109.784 109.784 0 0 0 6.672-3.738c.32-.2.844-.481 1.004-.844l.078-.078c.403.359.727.601 1.008.804.36.32.762.602 1.164.883-.199.281-.48.844-.722 1.367a78.525 78.525 0 0 0-1.567 3.336 89.097 89.097 0 0 0-1.527 3.535 11.095 11.095 0 0 0-.684 2.211 15.484 15.484 0 0 1-1.328-1.086zM48.473 170.457c-.403-.281-.684-.48-1.285-.844 1.285-1.367 2.613-3.175 3.335-4.218 1.043-1.45 2.57-3.418 2.774-4.622l.039-.043c.402.325.766.606 1.125.887.402.281.844.563 1.328.883-1.008 1.004-2.734 3.418-3.098 3.938-.601.804-2.289 3.136-3.132 4.863-.563-.48-.844-.684-1.086-.844zM61.055 171.863a205.813 205.813 0 0 0-1.809 3.297c-.887 1.567-2.293 2.293-5.789.844l.32-.965c1.407.606 2.25.563 3.176-.8.32-.524 1.086-1.852 1.649-2.856.964-1.727 2.53-4.301 2.53-5.465l.04-.082c.484.32.926.562 1.328.805.402.242.805.441 1.328.683-1.008 1.246-2.21 3.496-2.773 4.54zM63.828 179.34c-.644-.32-.965-.48-1.207-.64-.441-.204-.766-.325-1.406-.606 1.004-1.567 1.969-3.617 2.492-4.742.762-1.649 1.887-3.86 1.848-5.063v-.043c.441.242.843.445 1.285.645.441.199.926.402 1.488.644-.805 1.164-2.05 3.899-2.332 4.418-.402.926-1.605 3.54-2.168 5.387zM72.71 173.715l-.081-.043c-.844 1.086-1.567 2.05-2.332 3.055.402.164.683.28 1.047.402.52.203.761.242 1.125.363.12-1.207.199-2.531.242-3.777zm.603 9.203c-.485-.16-.926-.32-1.45-.48.364-1.13.524-2.938.563-3.82-.48-.2-.922-.403-1.406-.563-.442-.16-.965-.32-1.325-.403-.523.723-1.61 2.332-1.808 3.375-.524-.199-.766-.32-1.168-.48-.442-.16-.801-.281-1.246-.402.523-.442 1.328-1.329 1.648-1.688a95.48 95.48 0 0 0 2.371-2.773c.645-.805 1.692-2.09 2.453-3.137.243-.281.602-.762.645-1.164l.039-.082c.523.164.883.324 1.207.402.441.16.922.281 1.406.402-.082.32-.12.965-.203 1.567-.078 1.168-.16 2.574-.238 3.7-.082 1.847-.121 2.894-.121 3.82 0 .398 0 1.406.16 2.328-.645-.239-1.086-.442-1.528-.602zM79.781 179.34c-.52 2.453-.238 4.3 1.649 4.703 2.172.484 3.015-1.606 3.496-3.7.445-2.007.566-4.378-1.567-4.863-2.129-.48-3.054 1.528-3.578 3.86zm7.637 1.488c-.52 2.41-1.848 5.184-6.188 4.262-2.652-.563-4.863-1.852-3.898-6.313.563-2.613 1.848-5.343 6.188-4.379 3.738.801 4.625 3.012 3.898 6.43zM100.965 177.773h-.082c-.36-.199-1.485-.441-2.89-.484 0 .324-.122 2.492-.243 4.785-.082 2.25.04 4.582.121 4.946-.683-.043-.844-.083-1.45-.083-.48 0-.882-.039-1.484 0 .282-1.406.442-4.34.481-5.425.039-1.125.082-3.215.121-4.262-1.168-.04-2.695.04-3.137.281h-.12c.12-.441.241-1.125.241-1.527 1.567.16 2.813.203 4.223.281 1.527.043 3.012.121 4.54.043-.079.281-.2.883-.321 1.445zM104.059 181.672c.203 2.492 1.046 4.18 2.933 4.02 2.211-.2 2.414-2.41 2.254-4.544-.164-2.007-.726-4.378-2.894-4.18-2.172.122-2.493 2.333-2.293 4.704zm7.718-.805c.2 2.492-.242 5.508-4.703 5.871-2.691.239-5.183-.363-5.547-4.906-.242-2.652.243-5.625 4.664-6.027 3.817-.282 5.305 1.566 5.586 5.062zM121.906 178.938c.16.726.805 3.66 1.203 4.945a9.66 9.66 0 0 0-1.925.562c-1.086-1.086-2.977-3.175-3.82-4.101l-2.493-2.813h-.039l.684 3.016c.12.562 1.004 3.656 1.527 4.703-.402.04-.727.121-1.086.2-.363.081-.766.202-1.086.28.04-1.605-.805-5.667-1.004-6.468-.12-.606-.605-3.098-1.246-4.02v-.082c.48-.078 1.004-.16 1.527-.281a28.976 28.976 0 0 0 1.446-.36c.484.68 1.687 2.168 2.37 2.934 1.368 1.445 2.212 2.371 2.977 3.176h.04l-.442-2.012c-.242-1.164-1.086-4.18-1.566-4.824.28-.04.761-.121 1.125-.2.48-.12.52-.12 1.043-.28-.04 1.445.605 4.824.765 5.625zM133.563 177.734c.12.403.402 1.246.8 2.047-1.324.805-2.207 1.207-3.574 1.692-3.215 1.164-5.387.359-6.754-3.418-.844-2.332-1.004-5.426 3.457-7.035a49.968 49.968 0 0 1 3.375-1.083c.043.762.121 1.407.281 2.13l-.12.038c-.801-.44-2.008-.562-3.337-.078-2.046.762-2.168 2.692-1.285 5.145 1.246 3.414 2.653 3.738 4.543 3.012.844-.32.805-.801.602-1.286l-.403-1.085c-.16-.481-.402-1.086-1.003-1.567v-.082a9.496 9.496 0 0 0 1.406-.48c.605-.204.765-.282 1.285-.524.121.602.445 1.77.726 2.574zM145.016 165.996c.601 1.047 1.285 2.332 1.93 3.375 1.046 1.73 1.046 3.5-1.81 5.188-3.015 1.808-4.382 1.086-5.507-.844-.281-.485-1.043-1.809-1.566-2.695-.364-.641-1.61-2.891-2.454-3.336l-.039-.04c.403-.199.883-.48 1.285-.722.446-.242.766-.442 1.329-.844.441 1.324 1.93 3.777 2.289 4.422.964 1.605 1.57 2.61 2.011 2.973.563.48 1.446.562 2.29.082 1.972-1.168 1.41-2.414.163-4.504-1.73-2.895-2.332-4.02-3.457-4.942.32-.164.602-.324 1.083-.605.445-.281.683-.441 1.007-.64.403 1.363 1.086 2.491 1.446 3.132zM154.664 161.336c.441.562 2.328 2.973 3.254 3.937-.563.442-1.047.883-1.488 1.329a161.309 161.309 0 0 1-5.223-2.012l-3.496-1.406-.043.039 1.93 2.414c.363.441 2.492 2.851 3.418 3.574-.325.242-.606.402-.926.644-.281.243-.602.48-.844.762-.644-1.445-3.215-4.742-3.738-5.383-.403-.484-1.93-2.492-2.895-3.054l-.039-.082c.403-.282.805-.602 1.246-.926.442-.36.844-.68 1.125-.961.723.398 2.453 1.203 3.418 1.566 1.848.723 3.012 1.164 4.059 1.567l.039-.04-1.285-1.609c-.723-.922-2.813-3.297-3.54-3.656.243-.16.645-.441.927-.684.402-.32.44-.363.804-.722.723 1.285 2.774 4.02 3.297 4.703zM161.254 162.059c-.363.359-.602.601-1.086 1.086-1.125-1.489-2.691-3.137-3.578-4.02-1.246-1.29-2.934-3.137-4.059-3.54l-.039-.038c.403-.32.723-.645 1.043-.965.363-.32.727-.723 1.13-1.164.8 1.164 2.89 3.293 3.335 3.738.684.723 2.691 2.77 4.219 3.938-.524.523-.766.722-.965.965zM162.5 147.59c.523.883 1.328 2.21 2.05 3.414.723 1.168 2.13 3.539 2.731 4.543-.398.441-.8.965-1.125 1.488a152.32 152.32 0 0 0-5.265-2.21c-1.407-.563-2.73-1.126-3.657-1.45-.562-.2-1.367-.441-1.77-.441l-.038-.04c.363-.32.722-.765 1.086-1.167.36-.442.722-.844 1.004-1.247.32.282.925.645 1.367.887.683.36 1.969.922 3.297 1.488 1.004.399 1.726.723 2.57 1.043l.04-.039c-.442-.765-1.364-2.172-1.81-2.855-1.164-1.649-2.046-2.895-2.933-3.414.281-.281.523-.563.805-.887.28-.32.484-.562.765-.922.2.602.563 1.285.883 1.809zM174.8 145.336c-.964 1.289-1.488 2.133-2.09 3.016-.644.925-.847 1.207-1.812 2.734-1.242-1.125-2.53-2.012-4.257-3.176-1.77-1.207-3.942-2.773-4.703-2.734l-.04-.04a84.42 84.42 0 0 0 2.047-2.933c.403-.562 1.086-1.61 1.93-2.933.203.32.766.804 1.086 1.042l-.04.043c-.722.52-1.608 1.645-2.53 3.012.8.684 2.25 1.649 2.933 2.09.602-.883 1.043-1.566 1.485-2.57.324.32.765.683 1.129.965-.848.722-1.329 1.484-1.77 2.128l1.566 1.047c1.489 1.004 1.848.965 2.371.16.723-1.046 1.286-2.171 1.407-3.097l.043-.078c.441.644.843.965 1.246 1.324zM169.254 135.168c-.242.441-.363.766-.484 1.086.644.402 1.449.844 1.687.965.606.32.965.523 1.527.804.203-.363.325-.562.442-.804.484-.965.445-1.848-1.043-2.614-1.207-.64-1.848-.039-2.13.563zm10.207 1.45c-.242.44-.402.8-.645 1.362-.843-.28-1.726-.44-2.77-.64-1.007-.16-1.769-.281-2.171-.082-.402.203-.602.644-.926 1.246.805.363 3.418 1.73 4.543 2.012-.242.402-.484.843-.722 1.285-.243.441-.442.883-.606 1.285-1.246-.922-3.898-2.25-4.742-2.691-1.406-.723-4.02-2.133-4.863-2.133l-.04-.04 1.126-2.128c.44-.883.765-1.528 1.285-2.453 1.007-1.93 2.293-2.008 3.457-1.368 1.207.645 1.89 1.891 1.328 3.5h.039c.441-.765 1.047-1.007 1.77-.925.48.039.64.078 1.527.199 1.125.164 2.492.363 3.176.164l.078.039c-.442.602-.64 1.004-.844 1.367zM181.832 131.23c-.2.563-.805 1.848-1.203 2.692-.484-.281-1.129-.602-1.73-.922l.038-.082a4.188 4.188 0 0 0 2.051-2.25c.364-.926.121-1.688-.644-1.969-.563-.203-1.004-.12-1.606.238-.883.524-1.61 1.329-2.613 1.891-1.125.602-1.969.524-2.852.2-.886-.321-2.414-1.485-1.128-4.821.242-.644.644-1.61 1.046-2.371.403.32 1.047.684 1.61 1.043l-.043.082c-.684.238-1.246.562-1.688 1.727-.441 1.124-.039 1.89.645 2.128.805.286 1.285.364 3.012-1.125 2.171-1.847 2.937-1.605 3.859-1.285 1.047.442 2.453 1.73 1.246 4.824zM184.246 123.754c-.121.484-.203.805-.402 1.488-1.688-.722-3.899-1.406-5.106-1.73-1.73-.48-4.101-1.246-5.265-1.043h-.04c.16-.485.32-.887.442-1.367.121-.485.242-1.004.402-1.567 1.246.602 4.141 1.445 4.743 1.606.964.28 3.699 1.086 5.625 1.328-.2.683-.32 1.004-.399 1.285zM177.691 110.773l-.039.079c-.242.32-.683 1.406-.964 2.773.32.082 2.453.523 4.703.965 2.21.441 4.5.683 4.902.683-.16.645-.2.844-.32 1.407-.082.484-.16.843-.243 1.449-1.324-.484-4.218-1.129-5.265-1.328-1.125-.242-3.176-.602-4.219-.805-.242 1.168-.402 2.652-.2 3.137v.078c-.444-.2-1.046-.402-1.448-.48.402-1.489.644-2.735.925-4.141.282-1.488.602-2.973.762-4.461.281.242.887.48 1.406.644zm0 0"/><path style="stroke:none;fill-rule:nonzero;fill:#af182a;fill-opacity:1" d="M178.254 102.172c.848.64 1.691 1.285 4.746 3.254 1.043.082 1.605.12 2.371.16.723 0 1.606 0 2.129-.078a27.921 27.921 0 0 0-.16 1.445c-.04.484-.04.723-.082 1.488-.48-.16-1.485-.363-2.047-.402-.766-.082-1.328-.16-2.375-.242a75.647 75.647 0 0 0-5.305 2.414c-.36.16-1.004.562-1.246.844h-.078c.078-.563.16-1.13.2-1.692.038-.562.081-1.164.12-1.765.403 0 .805-.082 1.164-.203.844-.282 2.051-.641 3.899-1.446v-.039a29.88 29.88 0 0 0-3.336-1.808c-.399-.204-1.004-.364-1.406-.364a8.22 8.22 0 0 0 .16-1.285c.043-.445.082-.844.043-1.246.402.36.965.8 1.203.965zm0 0"/><path style="stroke:none;fill-rule:evenodd;fill:#af182a;fill-opacity:1" d="M177.574 57.516c-.082 1.527-1.73 2.574-3.015 3.297-1.246.683-2.934-.965-3.215-2.012-.121-.52-.281-2.13.16-2.492.523-.399 1.285-.079 1.809-.52.039-.043.12-.281.078-.324-.2-1.528 2.132-.563 3.336.402.402.281.847 1.367.847 1.649zm3.094 9.886c-.082-.441-.402-1.605-.441-2.37-.043-2.009-.524-3.739-.805-5.708-.121-.844-.563-4.02.922-4.02.082 0 .363-.32.363-.44.121-1.567-.883-2.173-2.289-1.61-.766.324-1.207.402-1.973-.078-.16-.121-1.644-.965-3.054-1.89-.883-.563-3.536-2.614-3.536-2.614-1.207-.723-2.41-2.57-3.136-.48.926 1.89 3.015 2.53 4.465 3.859.722.601 1.203 1.969-.243 1.484-1.406-.52-3.015-2.25-3.898-2.73-.805-.485-2.695-.645-2.05.843a3.94 3.94 0 0 0 1.968 2.051c.484.239 2.172.762 2.293 1.164.281.563.16 1.89-.242 2.371-.645.766-2.332-.441-3.137-1.086-.04-.039-.402-.28-.883-.562-.523-.32-1.687-.883-2.492-1.246-.402-.16-1.246-.48-1.488-.563-.844-.242-3.575-.922-3.055 1.004 0 .043.082.121.16.203.281.2.926.645 1.692 1.043.722.403 3.976 1.41 5.183 2.051 1.125.606 2.41.926 3.375 1.809.403.363.563.722.645 1.047.078.359.523 2.449.523 3.214 0 1.887-.484 4.18-.926 5.586-.441 1.489-1.77 3.938.645 4.059 2.41.082 2.328-7.836 2.45-9.566.042-.52.241-2.891 1.288-2.047 1.727 1.445 1.285 3.816 1.485 5.785.043.562.562.726 1.046.844.16.043.805.043.844-.079.403-.644.442-1.449.403-2.171-.083-1.286-.684-3.055-.16-4.301.359-.723.882-.965 1.163-.078 0 .039.04.078.04.078.082.281.203 1.086.16 1.289-.04 1.445.523 5.223.605 5.305.563.761 1.606 1.164 2.332.16.238-.203-.164-1.168-.242-1.61zM108.684 134.043c0 .242-.243.441-.524.441h-4.945c-.281 0-.524-.199-.524-.441v-1.125c0-.242.243-.441.524-.441h4.945c.281 0 .524.199.524.441zm1.324-3.016h-8.602c-.601 0-1.086.524-1.086 1.207v2.532c0 .644.485 1.168 1.086 1.168h6.754c.281 0 .524.199.524.441v.805c0 .238-.243.441-.524.441h-4.945c-.2 0-.36-.121-.442-.242h-2.492v.484c0 .64.48 1.164 1.086 1.164h8.602c.601 0 1.086-.523 1.086-1.164v-5.629c.039-.644-.446-1.207-1.047-1.207zM116.602 136.055c0-.243.238-.446.52-.446h4.944c.282 0 .524.203.524.446v1.125c0 .238-.242.441-.524.441h-4.945c-.281 0-.52-.203-.52-.441zm-1.368 2.972h8.602c.602 0 1.082-.523 1.082-1.164v-2.535c0-.64-.48-1.164-1.082-1.164h-6.754c-.281 0-.523-.2-.523-.441v-.805c0-.242.242-.441.523-.441h4.945c.2 0 .36.12.442.242h2.492v-.485c0-.644-.484-1.164-1.086-1.164h-8.602c-.601 0-1.085.52-1.085 1.164v5.63c-.04.64.44 1.163 1.046 1.163zm0 0"/></svg>