<svg xmlns="http://www.w3.org/2000/svg" width="1000" height="1000" viewBox="0 0 1000 1000" xml:space="preserve"><rect width="100%" height="100%" fill="rgba(255,255,255,0)"/><path style="stroke:none;stroke-width:1;stroke-dasharray:none;stroke-linecap:butt;stroke-dashoffset:0;stroke-linejoin:miter;stroke-miterlimit:4;is-custom-font:none;font-file-url:none;fill:#aadc14;fill-rule:nonzero;opacity:1" transform="translate(7.373 377.284) scale(3.4763)" d="M80.498 30a5.385 5.385 0 1 1 0 10.77 10.32 10.32 0 0 1-1.27-.15 4.68 4.68 0 0 0-2.41 0 3.29 3.29 0 0 0-2 3 3.43 3.43 0 0 0 2 3 11.94 11.94 0 1 0-5-19.52s-21.09 21.67-26.07 26a24.21 24.21 0 0 1-16.07 6.2 24 24 0 1 1-2.19-47.94h2.19a33.75 33.75 0 0 1 5 .51 2.87 2.87 0 0 0 3-2.74v-.1a2.9 2.9 0 0 0-2.34-2.83 30.94 30.94 0 0 0-5.62-.54 29.67 29.67 0 1 0 20.43 51.14l26.54-25.17a5.13 5.13 0 0 1 3.81-1.63zm0 22.48a34.56 34.56 0 0 1-4.78-.56 3.28 3.28 0 0 0-1 6.39 22.53 22.53 0 0 0 5.83.69 23.66 23.66 0 1 0-17-40.08L39.668 45.4a14.18 14.18 0 1 1-10-24.23 28.24 28.24 0 0 1 3.19.39 2.84 2.84 0 0 0 2.77-2.85 2.91 2.91 0 0 0-2.22-2.84 19.88 19.88 0 1 0 11 32.78L67.698 24a17.09 17.09 0 1 1 12.8 28.41zm25-42.1a35.14 35.14 0 0 0-25-10.38 35.52 35.52 0 0 0-28.56 14.56S34.048 37 33.138 38.09a4.39 4.39 0 1 1-3.47-7.09h1.17a2.84 2.84 0 0 0 2.79-2.84c0-1.18-.82-3-3.61-3a10.12 10.12 0 0 0-.88 20.22h.53a10.08 10.08 0 0 0 7.44-3.28l20.64-24.38a28.8 28.8 0 1 1 22.74 46.44c-4.5 0-6-.82-7.09-.82a3.32 3.32 0 0 0-3.35 3.28 3.28 3.28 0 0 0 2.14 3.07 35.36 35.36 0 0 0 33.33-59.37z"/><path style="stroke:none;stroke-width:1;stroke-dasharray:none;stroke-linecap:butt;stroke-dashoffset:0;stroke-linejoin:miter;stroke-miterlimit:4;is-custom-font:none;font-file-url:none;fill:#030f40;fill-rule:nonzero;opacity:1" transform="translate(7.377 377.284) scale(3.4763)" d="m155.478 34.75-18.75-6.87a2.5 2.5 0 0 1 .89-4.84h20.35v-7.35h-20.56a9.86 9.86 0 0 0-3.56 19.07l18.75 6.87a2.5 2.5 0 0 1-.89 4.84h-24.19v7.35h24.44a9.81 9.81 0 0 0 3.52-19.07zm103.73 11.71a2.5 2.5 0 0 1-.89-4.84l18.73-6.87a9.86 9.86 0 0 0-3.52-19.07h-20.54V23h20.35a2.5 2.5 0 0 1 .89 4.84l-18.75 6.87a9.81 9.81 0 0 0 3.52 19.07h24.43v-7.32zm-66.46-8c0 5.78-3.48 8.76-8.84 8.76-5.36 0-8.86-3-8.84-8.76V15.69h-8V39c0 8.52 6.17 15.33 16.85 15.33 10.68 0 16.82-6.77 16.82-15.33V15.69h-8v22.76zm33.74-23.27a19.57 19.57 0 1 0-.88 39.13h.88a20.65 20.65 0 0 0 16.36-7.62l-6.12-4.36c-2.79 3.24-6.16 5.07-10.23 5.07a12.09 12.09 0 0 1-11.65-9.91h30.7a21.27 21.27 0 0 0 .2-2.75 19.21 19.21 0 0 0-18.85-19.55h-.4zm-11.44 16a11.69 11.69 0 0 1 22.82 0z"/></svg>