<svg xmlns="http://www.w3.org/2000/svg" width="200" height="200"><style>.B{fill:none}.C{fill:#3284bf}.D{stroke:#3284bf}.E{fill:#fff}.F{stroke-width:2.549}.G{stroke-width:1.402}</style><path d="M198.105 100.098c0 54.144-43.89 98.039-98.039 98.039s-98.039-43.895-98.039-98.04 43.895-98.038 98.04-98.038 98.038 43.894 98.038 98.039zm0 0" class="E"/><path d="M102.125 198.137a2.059 2.059 0 1 1-4.118 0 2.059 2.059 0 0 1 4.118 0zm-4.895-.02a2.055 2.055 0 0 1-2.156 1.953 2.06 2.06 0 0 1 .203-4.113 2.058 2.058 0 0 1 1.953 2.16zm-4.867-.262a2.06 2.06 0 1 1-4.098-.411 2.06 2.06 0 0 1 4.098.411zm-4.871-.507a2.057 2.057 0 1 1-1.727-2.34 2.053 2.053 0 0 1 1.727 2.34zm-4.836-.746a2.057 2.057 0 1 1-4.035-.817 2.06 2.06 0 0 1 4.035.817zm-4.793-.989a2.058 2.058 0 1 1-3.988-1.02 2.052 2.052 0 0 1 2.5-1.484 2.057 2.057 0 0 1 1.488 2.504zm-4.723-1.223a2.059 2.059 0 1 1-3.933-1.215 2.059 2.059 0 0 1 3.934 1.216zm-4.667-1.46a2.064 2.064 0 0 1-2.641 1.23 2.058 2.058 0 0 1-1.23-2.64 2.064 2.064 0 0 1 2.64-1.23 2.064 2.064 0 0 1 1.23 2.64zm-4.594-1.692a2.059 2.059 0 1 1-3.793-1.602 2.058 2.058 0 1 1 3.793 1.602zm-4.489-1.914a2.055 2.055 0 1 1-.96-2.746 2.055 2.055 0 0 1 .96 2.746zm-4.402-2.14a2.058 2.058 0 1 1-3.612-1.968 2.058 2.058 0 0 1 3.612 1.968zm-4.288-2.356a2.055 2.055 0 0 1-2.829.68 2.058 2.058 0 1 1 2.828-.68zm-4.165-2.57a2.059 2.059 0 0 1-3.402-2.32 2.059 2.059 0 0 1 3.402 2.32zm-4.019-2.762a2.056 2.056 0 1 1-3.282-2.488 2.057 2.057 0 0 1 2.883-.399 2.06 2.06 0 0 1 .399 2.887zm-3.891-2.973a2.057 2.057 0 1 1-3.152-2.644 2.053 2.053 0 0 1 2.898-.254c.871.73.984 2.027.254 2.898zm-3.735-3.16a2.06 2.06 0 0 1-2.91.11 2.057 2.057 0 0 1-.109-2.91 2.06 2.06 0 0 1 2.91-.11 2.06 2.06 0 0 1 .11 2.91zm-3.562-3.332a2.064 2.064 0 0 1-2.914-.035 2.056 2.056 0 0 1 .04-2.91 2.052 2.052 0 0 1 2.91.035 2.06 2.06 0 0 1-.036 2.91zm-3.406-3.515a2.059 2.059 0 1 1-2.723-3.09 2.059 2.059 0 0 1 2.723 3.09zm-3.222-3.684a2.06 2.06 0 1 1 .327-2.894 2.06 2.06 0 0 1-.328 2.894zm-3.036-3.84a2.061 2.061 0 0 1-2.875-.469 2.062 2.062 0 0 1 .469-2.875 2.062 2.062 0 0 1 2.875.473 2.057 2.057 0 0 1-.469 2.871zm-2.832-3.969a2.06 2.06 0 0 1-2.848-.613 2.058 2.058 0 0 1 .614-2.847 2.062 2.062 0 0 1 2.847.613 2.06 2.06 0 0 1-.613 2.847zm-2.641-4.121a2.062 2.062 0 0 1-2.812-.754 2.06 2.06 0 0 1 .754-2.812 2.054 2.054 0 0 1 2.812.754 2.06 2.06 0 0 1-.754 2.812zm-2.429-4.25a2.056 2.056 0 1 1-1.88-3.664 2.062 2.062 0 0 1 2.774.895 2.06 2.06 0 0 1-.894 2.77zm-2.207-4.347a2.062 2.062 0 0 1-2.723-1.032 2.058 2.058 0 1 1 3.75-1.691 2.058 2.058 0 0 1-1.027 2.723zm-1.996-4.469A2.06 2.06 0 0 1 8.055 134a2.058 2.058 0 0 1 2.668 1.164 2.064 2.064 0 0 1-1.164 2.672zm-1.769-4.563a2.064 2.064 0 0 1-2.61-1.296 2.064 2.064 0 0 1 1.297-2.61 2.064 2.064 0 0 1 2.609 1.297 2.064 2.064 0 0 1-1.297 2.61zm-1.54-4.648a2.06 2.06 0 0 1-2.543-1.422 2.066 2.066 0 0 1 1.426-2.543 2.063 2.063 0 0 1 2.539 1.426 2.058 2.058 0 0 1-1.422 2.539zm-1.305-4.699a2.06 2.06 0 0 1-.918-4.016 2.065 2.065 0 0 1 2.47 1.55 2.061 2.061 0 0 1-1.552 2.466zm-1.07-4.778a2.057 2.057 0 0 1-2.387-1.668 2.063 2.063 0 0 1 1.672-2.386 2.059 2.059 0 1 1 .715 4.055zm-.832-4.82a2.06 2.06 0 1 1 1.789-2.3 2.064 2.064 0 0 1-1.789 2.3zm-.586-4.844a2.06 2.06 0 0 1-.309-4.105 2.06 2.06 0 0 1 .309 4.105zm-.347-4.882A2.054 2.054 0 0 1 0 102.598a2.06 2.06 0 0 1 4.117-.106 2.06 2.06 0 0 1-2.008 2.11zm-.102-4.892a2.06 2.06 0 1 1 .102-4.117 2.06 2.06 0 0 1-.102 4.118zm.14-4.894a2.06 2.06 0 0 1 .309-4.105 2.06 2.06 0 0 1-.309 4.105zm.383-4.859a2.064 2.064 0 0 1-1.785-2.3 2.054 2.054 0 0 1 2.297-1.786 2.058 2.058 0 1 1-.512 4.086zm.629-4.855a2.063 2.063 0 0 1-1.672-2.387 2.06 2.06 0 0 1 4.059.715 2.063 2.063 0 0 1-2.387 1.672zm.867-4.817A2.059 2.059 0 0 1 2.48 77.82a2.058 2.058 0 1 1 4.016.914 2.062 2.062 0 0 1-2.469 1.551zm1.106-4.75a2.06 2.06 0 1 1 1.114-3.966 2.06 2.06 0 0 1-1.114 3.966zm1.344-4.707a2.064 2.064 0 0 1-1.297-2.61 2.062 2.062 0 0 1 2.61-1.292 2.058 2.058 0 1 1-1.313 3.902zm1.578-4.633a2.057 2.057 0 0 1-1.164-2.668 2.058 2.058 0 1 1 1.164 2.668zm1.805-4.55a2.057 2.057 0 0 1-1.028-2.723 2.062 2.062 0 0 1 2.723-1.031 2.061 2.061 0 0 1 1.027 2.726 2.055 2.055 0 0 1-2.723 1.028zm2.023-4.438a2.056 2.056 0 1 1 1.879-3.664 2.065 2.065 0 0 1 .894 2.773 2.06 2.06 0 0 1-2.773.891zm2.25-4.344a2.062 2.062 0 0 1-.754-2.812 2.055 2.055 0 0 1 2.812-.754 2.057 2.057 0 0 1 .754 2.812 2.06 2.06 0 0 1-2.812.754zm2.465-4.23a2.058 2.058 0 0 1-.614-2.848 2.065 2.065 0 0 1 2.848-.613 2.059 2.059 0 1 1-2.234 3.46zm2.66-4.086a2.061 2.061 0 0 1-.469-2.875 2.061 2.061 0 0 1 2.875-.469 2.057 2.057 0 1 1-2.406 3.344zm2.875-3.965a2.056 2.056 0 0 1-.328-2.89 2.06 2.06 0 0 1 3.222 2.566 2.06 2.06 0 0 1-2.894.324zM25.2 36.77a2.063 2.063 0 0 1-.184-2.907 2.059 2.059 0 1 1 .184 2.906zm3.253-3.657a2.06 2.06 0 0 1-.039-2.914 2.06 2.06 0 1 1 .04 2.914zm3.418-3.48a2.057 2.057 0 0 1 .11-2.91 2.06 2.06 0 0 1 2.91.109 2.06 2.06 0 0 1-.11 2.91 2.057 2.057 0 0 1-2.91-.11zm3.602-3.313a2.061 2.061 0 0 1 .254-2.902 2.057 2.057 0 0 1 2.898.254 2.06 2.06 0 0 1-.254 2.902 2.057 2.057 0 0 1-2.898-.254zm3.761-3.132a2.056 2.056 0 0 1 3.282-2.485 2.057 2.057 0 1 1-3.282 2.485zm3.899-2.93a2.056 2.056 0 0 1 .543-2.86 2.059 2.059 0 1 1-.543 2.86zm4.055-2.742a2.057 2.057 0 1 1 3.511-2.145 2.057 2.057 0 0 1-3.511 2.145zm4.187-2.536a2.06 2.06 0 0 1 .824-2.793 2.055 2.055 0 0 1 2.79.825 2.057 2.057 0 1 1-3.614 1.968zm4.305-2.324a2.056 2.056 0 0 1 .965-2.746 2.058 2.058 0 1 1-.965 2.746zm4.406-2.097a2.058 2.058 0 1 1 3.792-1.6 2.058 2.058 0 0 1-3.792 1.6zm4.516-1.883a2.057 2.057 0 0 1 1.23-2.64 2.064 2.064 0 0 1 2.64 1.23 2.064 2.064 0 0 1-1.23 2.64 2.064 2.064 0 0 1-2.64-1.23zm4.605-1.656a2.059 2.059 0 1 1 3.934-1.215 2.059 2.059 0 0 1-3.934 1.215zm4.668-1.418a2.058 2.058 0 1 1 2.5 1.484 2.052 2.052 0 0 1-2.5-1.484zm4.746-1.192a2.06 2.06 0 1 1 4.038-.815 2.06 2.06 0 0 1-4.038.815zm4.801-.95a2.06 2.06 0 0 1 1.73-2.343 2.057 2.057 0 0 1 2.34 1.73 2.051 2.051 0 0 1-1.726 2.34 2.055 2.055 0 0 1-2.344-1.726zm4.844-.71A2.057 2.057 0 0 1 90.109.496a2.06 2.06 0 1 1-1.844 2.254zm4.855-.465a2.056 2.056 0 0 1 1.953-2.16 2.055 2.055 0 0 1 2.156 1.953 2.058 2.058 0 1 1-4.109.207zm4.887-.226a2.059 2.059 0 1 1 4.118 0 2.059 2.059 0 0 1-4.118 0zm4.894.019a2.058 2.058 0 1 1 4.111.205 2.058 2.058 0 0 1-4.11-.205zm4.871.262a2.06 2.06 0 1 1 4.1.412 2.06 2.06 0 0 1-4.1-.412zm4.867.508a2.06 2.06 0 0 1 4.074.613 2.057 2.057 0 0 1-4.073-.614zm4.837.746a2.062 2.062 0 0 1 2.425-1.61 2.062 2.062 0 0 1 1.614 2.426 2.056 2.056 0 0 1-2.426 1.61 2.058 2.058 0 0 1-1.613-2.426zm4.793.992a2.06 2.06 0 0 1 3.992 1.016 2.058 2.058 0 1 1-3.992-1.016zm4.722 1.219a2.059 2.059 0 0 1 2.574-1.36 2.064 2.064 0 0 1 1.364 2.575 2.059 2.059 0 0 1-2.575 1.359 2.054 2.054 0 0 1-1.363-2.574zm4.672 1.461a2.064 2.064 0 0 1 2.64-1.23 2.064 2.064 0 0 1 1.231 2.64 2.064 2.064 0 0 1-2.64 1.23 2.061 2.061 0 0 1-1.23-2.64zm4.594 1.694a2.058 2.058 0 1 1 3.792 1.598 2.058 2.058 0 0 1-3.792-1.597zm4.484 1.911a2.058 2.058 0 1 1 3.71 1.785 2.056 2.056 0 0 1-2.745.965 2.062 2.062 0 0 1-.965-2.75zm4.403 2.141a2.058 2.058 0 1 1 3.617 1.968 2.058 2.058 0 1 1-3.617-1.968zm4.289 2.359a2.058 2.058 0 0 1 2.832-.684 2.059 2.059 0 1 1-2.832.684zm4.168 2.567A2.059 2.059 0 1 1 157 20.26a2.059 2.059 0 0 1-3.4-2.323zm4.015 2.765a2.06 2.06 0 1 1 3.284 2.485 2.06 2.06 0 0 1-3.284-2.485zm3.891 2.969a2.061 2.061 0 0 1 3.156 2.648 2.061 2.061 0 0 1-3.156-2.648zm3.738 3.16a2.06 2.06 0 0 1 2.91-.11 2.06 2.06 0 0 1 .11 2.91 2.057 2.057 0 1 1-3.02-2.8zm3.563 3.332a2.06 2.06 0 0 1 2.875 2.95 2.056 2.056 0 0 1-2.91-.04 2.052 2.052 0 0 1 .035-2.91zm3.401 3.516a2.063 2.063 0 0 1 2.907.183 2.059 2.059 0 1 1-3.086 2.723 2.059 2.059 0 0 1 .18-2.906zm3.228 3.683a2.056 2.056 0 0 1 2.89.328 2.056 2.056 0 0 1-.324 2.891 2.06 2.06 0 0 1-2.895-.324 2.06 2.06 0 0 1 .328-2.895zm3.035 3.84a2.057 2.057 0 0 1 2.87.469 2.059 2.059 0 1 1-2.871-.469zm2.832 3.969a2.06 2.06 0 0 1 2.234 3.46 2.059 2.059 0 1 1-2.234-3.46zm2.636 4.125a2.054 2.054 0 0 1 2.813.754 2.058 2.058 0 1 1-2.813-.754zm2.43 4.246a2.062 2.062 0 0 1 2.774.895 2.057 2.057 0 0 1-.895 2.769 2.06 2.06 0 0 1-1.879-3.664zm2.211 4.347a2.063 2.063 0 0 1 2.723 1.032 2.055 2.055 0 0 1-1.032 2.723 2.058 2.058 0 1 1-1.691-3.754zm1.996 4.473a2.057 2.057 0 0 1 2.668 1.164 2.058 2.058 0 1 1-2.668-1.164zm1.77 4.563a2.056 2.056 0 0 1 2.605 1.293 2.058 2.058 0 1 1-2.605-1.293zm1.539 4.644a2.057 2.057 0 0 1 2.539 1.426 2.06 2.06 0 0 1-3.965 1.113 2.063 2.063 0 0 1 1.426-2.539zm1.301 4.7a2.062 2.062 0 0 1 2.468 1.55 2.058 2.058 0 1 1-4.016.914 2.06 2.06 0 0 1 1.548-2.464zm1.074 4.777a2.06 2.06 0 0 1 .715 4.055 2.063 2.063 0 0 1-2.387-1.672 2.056 2.056 0 0 1 1.672-2.383zm.828 4.824a2.059 2.059 0 1 1-1.785 2.297 2.055 2.055 0 0 1 1.785-2.297zm.59 4.839a2.06 2.06 0 1 1-1.903 2.209 2.063 2.063 0 0 1 1.903-2.208zm.343 4.884a2.06 2.06 0 0 1 .106 4.117 2.06 2.06 0 0 1-.106-4.117zm.106 4.894a2.054 2.054 0 0 1-.106 4.114 2.054 2.054 0 1 1 .106-4.114zm-.145 4.891a2.063 2.063 0 0 1 1.903 2.207 2.06 2.06 0 1 1-1.903-2.207zm-.382 4.863a2.058 2.058 0 1 1-2.297 1.785 2.052 2.052 0 0 1 2.297-1.785zm-.625 4.852a2.06 2.06 0 0 1 1.668 2.386 2.053 2.053 0 0 1-2.383 1.668 2.056 2.056 0 0 1-1.672-2.382 2.063 2.063 0 0 1 2.387-1.672zm-.872 4.816a2.063 2.063 0 0 1 1.551 2.465 2.059 2.059 0 1 1-1.55-2.465zM195 124.66a2.06 2.06 0 1 1-1.112 3.966A2.06 2.06 0 0 1 195 124.66zm-1.344 4.707a2.06 2.06 0 0 1-1.308 3.906 2.06 2.06 0 0 1 1.308-3.906zM192.082 134a2.06 2.06 0 1 1-1.506 3.836 2.06 2.06 0 0 1 1.506-3.836zm-1.809 4.55a2.056 2.056 0 0 1 1.032 2.723 2.063 2.063 0 0 1-2.723 1.032 2.056 2.056 0 0 1 1.691-3.754zm-2.023 4.438a2.057 2.057 0 0 1 .895 2.77 2.062 2.062 0 0 1-2.774.894 2.056 2.056 0 1 1 1.879-3.664zm-2.25 4.348a2.057 2.057 0 0 1 .754 2.812 2.06 2.06 0 0 1-2.813.754 2.062 2.062 0 0 1-.754-2.812 2.055 2.055 0 0 1 2.813-.754zm-2.46 4.227a2.06 2.06 0 0 1-2.235 3.46 2.058 2.058 0 0 1-.614-2.847 2.062 2.062 0 0 1 2.848-.613zm-2.665 4.085a2.062 2.062 0 0 1 .469 2.875 2.058 2.058 0 1 1-.469-2.875zm-2.871 3.965a2.06 2.06 0 1 1-2.895.325 2.06 2.06 0 0 1 2.895-.325zm-3.066 3.813a2.061 2.061 0 1 1-2.907.183 2.062 2.062 0 0 1 2.906-.183zm-3.254 3.66a2.06 2.06 0 0 1 .035 2.91 2.06 2.06 0 0 1-2.91.035 2.052 2.052 0 1 1 2.874-2.945zm-3.418 3.477a2.06 2.06 0 0 1-.11 2.91 2.06 2.06 0 0 1-2.91-.11 2.057 2.057 0 0 1 .11-2.91 2.06 2.06 0 0 1 2.91.11zm-3.602 3.316c.73.871.617 2.168-.254 2.898a2.061 2.061 0 0 1-2.902-.254 2.057 2.057 0 1 1 3.156-2.644zm-3.762 3.129a2.06 2.06 0 1 1-3.286 2.484 2.06 2.06 0 0 1 3.286-2.484zm-3.898 2.93a2.059 2.059 0 0 1-3.402 2.32 2.058 2.058 0 1 1 3.402-2.32zm-4.054 2.742a2.06 2.06 0 0 1-3.516 2.148 2.061 2.061 0 0 1 3.515-2.148zm-4.188 2.535a2.058 2.058 0 1 1-3.617 1.969 2.058 2.058 0 1 1 3.617-1.97zm-4.309 2.325a2.058 2.058 0 1 1-3.709 1.784 2.058 2.058 0 0 1 3.71-1.785zm-4.403 2.097a2.058 2.058 0 1 1-3.793 1.602 2.058 2.058 0 1 1 3.794-1.602zm-4.515 1.883a2.064 2.064 0 0 1-1.23 2.64 2.064 2.064 0 0 1-2.64-1.23 2.061 2.061 0 0 1 1.23-2.64 2.064 2.064 0 0 1 2.64 1.23zm-4.605 1.656a2.064 2.064 0 0 1-1.364 2.574 2.059 2.059 0 1 1-1.21-3.934 2.059 2.059 0 0 1 2.574 1.36zm-4.668 1.418a2.059 2.059 0 0 1-1.489 2.504 2.058 2.058 0 0 1-2.503-1.485 2.064 2.064 0 0 1 1.488-2.504 2.058 2.058 0 0 1 2.504 1.485zm-4.746 1.191a2.06 2.06 0 0 1-4.04.816 2.06 2.06 0 0 1 4.04-.816zm-4.801.949a2.06 2.06 0 0 1-4.074.614 2.06 2.06 0 0 1 4.074-.613zm-4.844.711a2.06 2.06 0 1 1-4.1.408 2.06 2.06 0 0 1 4.1-.408zm-4.855.469a2.058 2.058 0 1 1-4.116.202 2.058 2.058 0 0 1 4.116-.202zm0 0" class="C"/><g stroke-width=".98" class="D"><path d="m85.364 38.332-16.669.491m18.63 1.47L51.047 51.077m38.235-8.824L37.324 77.551m52.938-32.355L31.441 98.627m58.821-49.018-55.879 63.234m57.84-60.785-53.43 77.454m54.41-73.532L54.97 154.02M96.637 52.058 65.754 160.883M99.087 50.59 77.519 158.922m13.724-4.902-1.961 15.196m24.024-128.924 18.137 1.473m-19.61.488 41.177 16.668m-41.177-13.726 52.942 32.355m-52.942-29.414 55.883 46.079m-57.844-43.138 56.863 62.746m-52.942-52.942 50 65.689m-40.196-46.083 33.334 57.844M105.95 51.078l40.194 100.981M101.54 50.59l29.41 106.86m-15.687-3.429.492 12.254m-13.727-12.254.492 15.686"/><g class="E"><path d="M49.086 127.551c-2.941 2.937-5.391 3.918-5.391 8.821s5.391 4.902 6.372 4.902 4.902-.98 4.902 4.414 7.843 6.863 7.843 12.255c.494 2.94.981-4.903-.979-6.864.98-.98.493-.98 1.474-2.941.976.98 7.84 6.863 8.821 6.863 2.941 0 1.473-6.372-1.961-2.941-1.471-1.469-1.471-4.412-3.431-4.412s-1.961-1.961-1.961-3.922 0-8.336-13.727-8.336c-2.941 0-2.941 0-2.941-1.961s.98-3.918.98-4.898zm0 0"/><path d="M53.5 55.488h40.684c2.941 0 4.902 3.922 5.882 4.902.981-.98 2.942-4.902 5.883-4.902h40.689v87.259h-42.649c0 1.961-7.843 1.961-7.843 0H53.499zm0 0"/></g><g class="B"><path d="M65.262 55.488v80.395h28.922c2.941 0 4.902 3.922 5.882 4.902.982-.98 2.943-4.902 5.884-4.902h28.922V55.488"/><path d="M62.325 55.488v82.11h31.859c2.941 0 4.902 3.922 5.882 4.902.981-.98 2.942-4.902 5.883-4.902h31.863v-82.11"/><path d="M59.383 55.488v83.824h34.8c2.941 0 4.902 2.454 5.882 3.434.982-.98 2.943-3.433 5.884-3.433h34.804V55.488"/><path d="M56.441 55.488v85.544h37.742c2.941 0 4.902.734 5.882 1.715.982-.98 2.943-1.716 5.884-1.716h37.745V55.488m-43.629 4.902v80.396"/></g><path d="M96.145 142.746c0-5.882 7.843-5.882 7.843 0 0 1.961-7.843 1.961-7.843 0zm0 0" class="E"/><path d="M105.95 59.558h2.941m2.941 0h1.961m.98 0h2.941m2.941 0h6.864m.98 0h3.922m-26.472 3.137h.98m.98 0h12.747m2.941 0h8.824m-26.473 3.135h3.922m.98 0h2.941m2.941 0h6.863m.98 0h3.923m.98 0h2.941m-26.472 3.138h26.473m-26.473 3.139h.98m.98 0h8.824m.98 0h4.902m.98 0h8.825m-26.472 3.136h4.902m.98 0h6.863m.98 0h6.864m2.941 0h2.941m-26.472 3.138h.98m2.941 0h4.902m.98 0h2.941m2.941 0h6.864m.98 0h2.941m-26.472 3.136h3.922m2.941 0h5.882m.98 0h3.922m2.942 0h5.882m-26.472 3.137h.98m.98 0h8.824m.98 0h4.902m.98 0h8.825m-26.472 3.135h1.961m.98 0h2.941m2.942 0h.98m.98 0h2.941m2.941 0h.98m.98 0h2.942m2.941 0h1.961M105.95 90.93h1.961m.98 0h4.902m.98 0h2.941m2.941 0h5.883m.98 0h4.902m-26.47 3.14h9.804m.98 0h15.687m-26.472 3.138h1.961m.98 0h11.767m2.941 0h8.824m-26.473 3.135h3.922m.98 0h4.902m2.941 0h6.863m.981 0h5.882m-26.472 3.137h26.473m-26.473 3.137h8.824m2.941 0h14.707m-26.472 3.136h2.941m.98 0h1.961m.98 0h5.882m.98 0h3.922m.98 0h7.844m-26.472 3.137h9.804m.98 0h15.687m-26.472 3.139h26.473m-26.473 3.138h8.824m2.941 0h14.707m-26.472 3.135h1.473m.98 0h18.821m2.941 0h.59m.98 0h.687m-26.473 3.137h.492m.98 0h25m-26.473 3.137h1.176m.98 0h24.314m-26.471 3.137h26.473M67.717 59.558h2.941m2.941 0h3.922m.98 0h4.902m.98 0h4.899m.98 0h3.922m-26.47 3.137h17.649m.98 0h7.839M67.713 65.83H82.42m.98 0h4.902m2.938 0h2.941m-26.469 3.138h17.649m2.941 0h5.878m-26.469 3.139H94.18m-26.566 3.136h2.941m2.941 0h3.922m.98 0h3.922m2.938 0h6.863m.98 0h.98M67.613 78.38h4.902m.98 0h14.703m2.941 0h2.941m-26.468 3.136h3.922m.98 0h2.941m2.941 0h6.86m.98 0h4.902m.98 0h1.961m-26.468 3.137h1.961m.98 0H73.5m2.941 0h1.47m.98 0h2.941m2.941 0h.98m.98 0h3.922m2.941 0h.489m-26.47 3.136h26.469m-26.469 3.137h5.882m2.941 0h7.84m2.941 0h4.902m.98 0h.98m-26.468 3.14h1.961m2.941 0h6.863m2.941 0h5.879m2.941 0h2.941m-26.468 3.137h26.469m-26.469 3.136h4.902m.98 0h8.824m.98 0h7.843m.98 0h1.961m-26.471 3.137h10.784m2.941 0h12.745m-26.471 3.137h9.804m.98 0h7.84m2.941 0h4.902m-26.468 3.136h4.902m2.941 0h16.667m.98 0h.98m-26.469 3.137h1.961m.98 0h4.902m.98 0h2.941m2.941 0h7.84m.98 0h2.941m-26.468 3.14h2.941m2.941 0h7.843m2.938 0h4.902m2.941 0h1.961m-26.468 3.137h6.863m.98 0h4.902m2.941 0h6.86m.98 0h2.941m-26.468 3.136h8.824m2.941 0h4.899m.98 0h6.863m.98 0h.98m-26.468 3.137h9.312m.98 0h.98m2.941 0h.98m.981 0h.98m2.941 0h.98m.98 0h.98m2.941 0h.489m-26.471 3.136h26.469m-26.469 3.137h26.469m-.488-72.157h.488c2.941 0 4.902 3.922 5.882 4.902.98-.98 2.941-4.902 5.882-4.902h.493m-12.746 3.137h.488c2.941 0 4.902 3.922 5.882 4.902.98-.98 2.941-4.902 5.882-4.902h.493m-12.746 3.135h.488c2.941 0 4.902 3.922 5.882 4.902.98-.98 2.941-4.902 5.882-4.902h.493m-12.746 3.137h.488c2.941 0 4.902 3.922 5.882 4.902.98-.98 2.941-4.902 5.882-4.902h.493m-12.746 3.14h.488c2.941 0 4.902 3.922 5.882 4.902.98-.98 2.941-4.902 5.882-4.902h.493m-12.746 3.136h.488c2.941 0 4.902 3.922 5.882 4.902.98-.98 2.941-4.902 5.882-4.902h.493m-12.746 3.137h.488c2.941 0 4.902 3.922 5.882 4.902.98-.98 2.941-4.902 5.882-4.902h.493m-12.746 3.137h.488c2.941 0 4.902 3.922 5.882 4.902.98-.98 2.941-4.902 5.882-4.902h.493m-12.746 3.137h.488c2.941 0 4.902 3.922 5.882 4.902.98-.98 2.941-4.902 5.882-4.902h.493m-12.746 3.135h.488c2.941 0 4.902 3.922 5.882 4.902.98-.98 2.941-4.902 5.882-4.902h.493M93.597 90.93h.488c2.941 0 4.902 3.922 5.882 4.902.98-.98 2.941-4.902 5.882-4.902h.493m-12.745 3.14h.488c2.941 0 4.902 3.918 5.882 4.898.98-.98 2.941-4.898 5.882-4.898h.493m-12.746 3.138h.488c2.941 0 4.902 3.922 5.882 4.902.98-.98 2.941-4.902 5.882-4.902h.493m-12.746 3.135h.488c2.941 0 4.902 3.922 5.882 4.902.98-.98 2.941-4.902 5.882-4.902h.493m-12.746 3.137h.488c2.941 0 4.902 3.922 5.882 4.902.98-.98 2.941-4.902 5.882-4.902h.493m-12.746 3.137h.488c2.941 0 4.902 3.922 5.882 4.902.98-.98 2.941-4.902 5.882-4.902h.493m-12.746 3.136h.488c2.941 0 4.902 3.922 5.882 4.902.98-.98 2.941-4.902 5.882-4.902h.493m-12.746 3.137h.488c2.941 0 4.902 3.922 5.882 4.902.98-.98 2.941-4.902 5.882-4.902h.493m-12.746 3.139h.488c2.941 0 4.902 3.918 5.882 4.898.98-.98 2.941-4.898 5.882-4.898h.493m-12.746 3.137h.488c2.941 0 4.902 3.922 5.882 4.902.98-.98 2.941-4.902 5.882-4.902h.493m-12.746 3.136h.488c2.941 0 4.902 3.922 5.882 4.902.98-.98 2.941-4.902 5.882-4.902h.493m-12.746 3.137h.488c2.941 0 4.902 3.922 5.882 4.902.98-.98 2.941-4.902 5.882-4.902h.493m-12.746 3.137h.488c2.941 0 4.902 3.922 5.882 4.902.98-.98 2.941-4.902 5.882-4.902h.493m-12.746 3.137h.488c2.941 0 4.902 3.922 5.882 4.902.98-.98 2.941-4.902 5.882-4.902h.493m-12.746 3.135" class="B"/></g><path d="M68.203 62.696v9.414h9.415v-9.415zm0 0" stroke="#fff" stroke-width="3.922" class="E"/><g class="D"><g stroke-width=".98"><path d="M68.203 62.696v9.414h9.415v-9.415zm1.473 8.334 3.235-6.473 3.234 6.473m-4.852-3.238h3.234" class="B"/><g class="E"><path d="M120.656 144.216c-6.863-4.903-5.882-11.767.98-12.747l-6.863-1.957c-14.706 5.878-8.824 14.216 3.922 14.703zm0 0"/><path d="M63.793 118.727c4.902 0 6.863 2.941 9.804 5.882s3.43 2.45 6.864 4.903 4.411 5.878 8.821 11.762 12.746 6.863 14.707 6.863 7.843.492 9.805-.98 1.961-4.41 5.39-4.41 4.415 4.902 4.415 6.863-1.962 13.725-21.571 13.236S77.52 150.1 74.087 145.197s-1.961-15.683-26.469-15.683c0-1.961.488-2.941.488-4.902s0-3.922 6.863-4.902 3.922-.98 8.825-.98zm45.591 8.825c0 1.961.98 2.937.98 3.918s2.941.492 3.918 1.473 19.61 5.882 29.414 5.882 12.746-3.922 17.157-13.726c1.078-2.451 0-5.392-2.941-8.825s-5.392-5.391-7.844-5.391-8.824 1.961-9.804 2.45-9.803 2.941-10.783-3.43 7.352-6.863 9.801-4.902 5.395 2.941 8.337 2.941 5.882-2.453 7.843-4.41 6.372-2.941 6.372-6.376-1.961-3.922-1.961-6.863c-.98-1.961.98 5.394-2.941 6.375s-3.43 1.961-3.43 1.961c-.491-2.941 1.961-7.354-4.413-9.315 3.922-4.902-4.902-4.902-2.941 0l2.453 2.941c.488.98.98.98 1.469 4.414-1.471.979-1.471 1.469-2.451 3.429s-6.863-.488-9.805.98-2.941-2.941.492-3.43 2.45 0 3.43-1.472-2.941 0-3.922-.98-2.941.492-3.922.98-7.353 4.902-6.864 11.765 1.473 13.235 9.804 12.746 11.275-8.824 16.177-3.922c1.473 1.469 0 9.313-3.922 9.313-24.509 0-19.607-4.902-34.313-4.902-5.882 0-5.39 2.941-5.39 4.902zm0 0"/></g><path d="m157.912 116.274-4.902.491"/><g class="E"><path d="M65.617 167.216c4.227-12.951 4.794-11.068 7.677-7.5 1.488 1.855 4.422-.373 4.332 1.636-.137 3.136-2.801 4.55-3.567 13.284-4.777 2.512-7.856.512-8.453-7.422zm67.606 8.835c-21.988 5.177-10.008-.219-10.676-4.266-2.382-14.539-.863-10.149 4.394-12.395 2.742-1.164 5.762-2.32 6.43-.469 5.473 21.45 5.851 15.832-.157 17.13zm0 0"/><path d="M66.5 179.52c-24.797-5.618 4.047-11.266 3.274-14.551-2.551-10.813 1.324-8.813 3.52-6.281 1.559 1.801 4.422.665 4.332 2.676-.137 3.136-5.137.618-4.606 4.265 1.059 12.383 6.144 17.891-6.52 13.891zm67.942-.52c-21.992 5.177-4.382-9.461-9.902-13.687-6.227-4.762-2.246-5.086 2.644-6.281 2.895-.707 5.52-1.961 6.188-.11.902 2.5-2.008 1.461-3.411 5.216-1 2.667 28.911 6.991 4.469 14.863zm0 0"/><path d="M67.578 180.333c.028-3.255 5.559-9.665 5.098-10.539-2.882-5.508 1.716-3.48 7.028-2.618 3.395.551 15 3.876 20.434 3.461 1.371-.105 4.988.61 9.5-1.656 8.167-4.078 8.804-.313 13.331-2.726 5.11-2.723 4.922.5 5.051 3.039.164 3.589-.551.157.598 4.578.618 2.375 4.41 3.128 3.804 7.226-.628 4.305-4.07 5-14.598 7.149-9.432 1.922-5.972 2.644-17.042 2.703-8.637.051-5.878-2.48-22.898-2.683-6.915-.078-10.356-2.746-10.297-7.922zM169.126 46.109c1.539 4.183 4.48 4.871 7.031 8.449 2.559 3.578 5.527 11.902 6.715 15.677 2.531 8.058 5.851 12.549 5.843 20.233-.02 9.071.461 20.071-.648 23.317s-4.086 11.245-5.52 20.441c-1.332 8.559-8.774 15.637-9.824 16.843s-4.118 9.539-12.165 15.833c-3.551 2.773-8.629 6.195-12.973 9.351-3.911 2.843-5.762 5.571-8.059 5.246s-3.863-3.118-4.313-6.648c-.284-2.204-.715-3.833-3.745-7.43-2.618-3.109-3.325-4.07 2.343-4.726 4.059-.47 9.707-8.548 13.02-9.586s10.02-11.18 16.254-24.61c4.531-9.784 7.137-23.481 4.571-41.363-2.422-16.864-5.716-18.208-11.071-26.314-4.324-6.55-7.372-11.394-13.235-14.511-.922-.488-3.546-1.118-6.843-4.184-1.902-1.776-4.727-2.894-7.203-4.324s-19.461-7.687-28.747-7.953c-7.657-.216-18.836 1.402-36.422 10.941-5.992 3.258-11.755 8.118-19.216 16.551-3.078 3.48-4.011 7.774-5.765 11.508-.974 2.078-2.805 3.745-3.974 5.578-4.429 6.98-5.32 19.628-5.331 25.343-.027 9.609 3.539 16.5 3.637 21.098.156 7.03 4.147 11.824 9.088 20.245 2.931 5 9.02 10.696 12.48 13.012 3.657 2.43 5.442 5.52 10.403 7.891 8.242 3.941 1.832 5.137.48 9.274-.745 2.284-1.539 12.98-7.863 8.953-3.078-1.961-8.255-4.539-13.09-8.52-1.461-1.207-9.41-6.265-12.618-13.098-.968-2.07-5.656-7-9.753-13.414-3.677-5.745-5.629-11.813-8.677-19.157-3.088-7.447-2.873-18.617-3.588-26.252C8.75 82.587 14.879 76.92 14.879 75.51c0-4.902 4.851-16.68 6.488-18.876 1.637-2.206 2.57-4.754 7.371-11.625 1.102-1.571 10.512-9.856 14.941-14.082 7.071-6.734 28.649-16.626 32.865-16.684 6.657-.098 10.961-3.09 21.071-3.648 6.546-.363 21.863 3.941 29.028 5.402 13.039 2.657 11.784 5.677 23.481 12.039 11.706 6.351 16.579 11.531 19 18.098zm0 0"/></g></g><path d="m95.744 33.358 4.324-8.75 4.324 8.75 9.662 1.412-6.985 6.824 1.647 9.618-8.647-4.544-8.647 4.559 1.647-9.618-6.971-6.853zm0 0" stroke-width=".735" class="E"/></g><g class="C"><path d="M100.066 39.313V24.608l4.325 8.754zm0 0 13.989-4.543-3.496 3.406zm0 0 6.996 2.273 1.649 9.625zm0 0v7.355l-8.644 4.543zm0 0L86.082 34.77l9.664-1.407zM53.36 164.352a2.06 2.06 0 0 1-3.27-2.504 2.06 2.06 0 0 1 3.27 2.504zm96.683-2.504a2.06 2.06 0 1 1-2.887-.384 2.06 2.06 0 0 1 2.887.384zM21.605 112.504a2.06 2.06 0 1 1-.539-4.082 2.058 2.058 0 0 1 .54 4.082zM143.93 33.867a2.06 2.06 0 1 1 .504 2.867 2.06 2.06 0 0 1-.504-2.867zm-41.07-13.16a2.059 2.059 0 1 1 1.929 2.184 2.065 2.065 0 0 1-1.93-2.184zM33.422 148.61l-2.336 1.945 6.902 8.285 2.336-1.945-.125-.153-.566.086-2.32-2.785 6.703-5.586.539.188.152-.125-2.262-2.711-.148.125.086.566-6.703 5.586-2.32-2.79.187-.538zm-4.859-1.641.171-.094.016-.574 9.406-5.278.496.286.172-.098-1.726-3.078-.172.097-.016.57-9.406 5.278-.496-.281-.172.094zm-5.758-10.259.172-.097.496.285 9.406-5.277.016-.574.171-.094 1.727 3.078-.172.094-.496-.281-9.402 5.277-.02.57-.168.098zm0 0"/><path d="m34.324 142.613-4.797-8.55-2.222 1.246 4.797 8.55zm-9.25-20.437-2.422.797L24 127.07l-1.957.64-1.805-5.491.371-.434-.058-.187-2.887.949 2.906 8.848.188-.063.125-.555 10.246-3.37.433.374.184-.062-2.906-8.848-2.887.95.059.187.558.125 1.805 5.496-1.953.644zm0 0"/></g><path d="m14.676 100.191 5.874.277c6.168.294 6.557-7.933.388-8.222l-5.876-.277" class="B D F"/><g class="C"><path d="m14.758 98.43.195.011.27.5-.118 2.547-.32.477-.195-.008zm.222-4.7.196.008.316-.476.121-2.543-.273-.504-.195-.012zm12.024-5.125.191.047.711-2.953-11.441-2.75-.707 2.957.191.047.399-.41 10.488 2.52zm2.75-11.437.187.047-.707 2.953-11.441-2.746.71-2.957.192.047.172.547 10.485 2.515zm0 0"/><path d="m29.234 80.168.594-2.477-13.363 5.258-.594 2.48zm-9.015-10.105.18.07.456-.344 10.012 4.004.094.562.18.075 1.312-3.278-.183-.07-.454.344-10.015-4.004-.09-.567-.184-.07zm15.164-4.95 1.25-2.222-7.504-10.645-1.254 2.223 7.508 10.644 1.25-2.222-12.992-.907-1.25 2.223zm6.402-17.117-1.953-1.64-2.77 3.304-1.578-1.324 3.72-4.43.562.09.125-.148-2.328-1.957-5.985 7.136.149.125.543-.187 8.261 6.933-.09.567.149.125 5.988-7.137L44.25 47.5l-.129.152.188.54-3.72 4.43-1.577-1.321zm0 0"/></g><path d="m49.65 46.418-6.743-8.036 3.155-2.647c4.13-3.465 7.09.066 2.962 3.531l-3.156 2.645m2.781-2.329 6.113.883" class="B D F"/><path d="M55.738 39.645a1.275 1.275 0 0 1-.156 1.796 1.28 1.28 0 0 1-1.797-.16 1.275 1.275 0 0 1 1.953-1.636zM51 45.285l-.125-.152-.563.09-1.953 1.64-.187.54.125.148zm0 0" class="C"/><path d="M58.614 36.086s-.411 1.828 3.828-.64 1.918-6.446-2.32-3.981-6.554-1.517-2.317-3.984 3.824-.637 3.824-.637" class="B D F"/><g class="C"><path d="M59.715 35.445a1.273 1.273 0 0 1-.461 1.742 1.275 1.275 0 1 1 .46-1.742zm3.015-9.242a1.273 1.273 0 1 1-2.203 1.281 1.276 1.276 0 0 1 2.203-1.28zm2.387-3.93.074.18.567.082 4.215 9.926-.336.46.074.18 3.25-1.378-.074-.18-.567-.078-4.215-9.926.336-.465-.078-.18zM83 19.453l-.82-2.926-10.383 2.918.82 2.926.192-.055.148-.55 3.492-.98 2.364 8.398-.395.418.055.187 3.398-.953-.055-.191-.55-.149-2.364-8.402 3.493-.98.418.394zm5.813-3.937-3.512.37.02.196 1.038.48-.57-.726 4.863 6.883 2.535-.27-4.863-6.879.051.485.457-.344zm0 0"/><path d="m93.492 15.023 3.512-.367.02.196-.915.687.407-.832-3.329 7.742-2.535.27 3.328-7.746.051.488-.52-.242zm0 0"/><path d="m91.063 26.617-.458.344.02.195 3.512-.37-.02-.192-.52-.242-.421-4-2.531.27zm0 0"/></g><path d="M124.281 24.328a4.61 4.61 0 1 1-8.93-2.293 4.61 4.61 0 1 1 8.93 2.293zm0 0" class="B D F"/><path d="m132.527 26.742 1.086-2.308 5.235 2.464.058.567.176.086 1.293-2.75-8.426-3.965-.086.176.32.476-4.593 9.758-.567.055-.085.18 3.195 1.5.082-.176-.317-.477 1.543-3.281 4.793 2.254 1.082-2.305zm0 0" class="C"/><path d="M159.847 47.621a4.61 4.61 0 0 1-6.474-6.562 4.61 4.61 0 0 1 6.474 6.562zm0 0" class="B D F"/><path d="m158.008 42.96 4.472 4.54-2.792 2.754-4.473-4.54zm0 0" class="E"/><g class="C"><path d="m163.54 56.922 2.105-1.438-.848-1.242 6.062-1.722-1.71-2.512-.165.11.067 1.14.375-.844-11.93 3.39.922-.038-1.035-.477-.164.11 1.988 2.913.164-.109-.066-1.14-.375.847 3.172-1.097zm0 0"/><path d="m163.426 56.758 2.105-1.438.848 1.242 3.82-5.015 1.711 2.512-.164.109-1.035-.48.922-.036-7.508 9.871.371-.847.066 1.14-.16.11-1.988-2.914.16-.11 1.04.477-.927.035 2.176-2.55zm12.914 4.782-.18.077-.078.567-9.91 4.25-.465-.336-.18.078 4.055 9.46 2.793-1.195-.078-.18-.567-.077-2.664-6.22 8.473-3.628zm5.098 12.925-.188.055-.145.554-10.351 3.028-.418-.391-.191.055.992 3.39.187-.058.145-.551 10.351-3.027.422.386.188-.054zm-2.333 11.937 2.524-.379.855 5.723-.441.363.027.196 3.008-.45-1.379-9.21-.191.027-.219.527-10.668 1.594-.363-.441-.192.03.52 3.49.195-.028.219-.528 3.586-.539.781 5.239 2.524-.38zm0 0"/></g><path d="M179.367 106.367a4.61 4.61 0 0 1-4.512-4.703 4.612 4.612 0 0 1 4.703-4.513 4.61 4.61 0 0 1 3.847 6.994 4.61 4.61 0 0 1-4.038 2.221zm-6.684 6.008 10.227 2.319-.91 4.016c-1.195 5.258-5.687 4.239-4.496-1.019l.914-4.015m-.804 3.539-5.407 2.991" class="B D F"/><g class="C"><path d="M171.926 121.45a1.27 1.27 0 0 1-.961-1.524 1.276 1.276 0 1 1 .961 1.523zm.364-7.356.19.043.399-.414.562-2.485-.175-.543-.192-.043zm-2.74 11.347-.179-.082-1.266 2.762 10.7 4.899 1.265-2.762-.18-.082-.472.32-9.805-4.488zm-4.898 10.696-.18-.082 1.266-2.762 10.7 4.894-1.266 2.766-.18-.082-.062-.566-9.805-4.493zm0 0"/><path d="m165.738 133.293-1.058 2.316 14.125-2.59 1.058-2.316zm6.825 11.781-.165-.11-.515.25-9.043-5.87.02-.57-.165-.11-1.922 2.961.165.105.515-.25 9.043 5.875-.02.57.165.106zm-14.801 5.66 1.918 1.68.988-1.129 3.187 5.438 2.004-2.286-.148-.128-1.09.347.914.149-6.27-10.7.27.887.203-1.125-.148-.133-2.324 2.657.148.129 1.086-.348-.914-.149 1.855 2.793zm0 0"/><path d="m157.89 150.59 1.919 1.676-.989 1.132 5.813 2.438-2.004 2.289-.149-.129.204-1.125.27.883-11.438-4.797.914.148-1.086.348-.149-.129 2.325-2.652.148.129-.203 1.125-.27-.887 3.016 1.469zm0 0"/></g><path d="m77.057 170.056-1.523 5.683c-1.598 5.964 6.359 8.097 7.957 2.132l1.522-5.682" class="B D F"/><path d="m78.766 170.512-.051.191-.55.156-2.462-.66-.398-.41.05-.191zm4.543 1.218-.051.192.398.41 2.461.66.551-.16.05-.187zm0 0" class="C"/><path d="M97.718 179.574a4.61 4.61 0 0 1-4.992 4.188 4.61 4.61 0 0 1-3.429-7.256 4.61 4.61 0 0 1 4.23-1.924 4.61 4.61 0 0 1 4.189 4.992zm0 0" class="B D F"/><path d="m93.316 177.254 6.348.555-.34 3.906-6.347-.555zm0 0" class="E"/><g class="C"><path d="m101.105 173.816.016.196.516.25.937 10.746-.46.336.015.195 10.254-.898-.262-3.028-.195.016-.25.516-6.742.59-.801-9.184zm20.297 5.52-.66-2.461-1.453.387.379-6.293-2.938.789.051.187 1.098.317-.676-.633-.742 12.379.27-.883-.793.82.05.192 3.41-.914-.05-.192-1.102-.312.676.629.016-3.352zm0 0"/><path d="m121.21 179.387-.66-2.461 1.454-.39-3.473-5.263 2.934-.785.05.188-.792.824.27-.887 6.831 10.352-.676-.633 1.098.316.05.188-3.405.914-.051-.188.793-.824-.27.887-1.691-2.898zm-58.394-57.934-.043.098.188.254-2.316 5.46-.313.044-.043.097 5.211 2.215.652-1.539-.097-.043-.254.184-3.426-1.453 1.98-4.665zm8.004 8.742.844-1.12-1.894-1.427.68-.906 2.542 1.914-.035.313.086.066 1.008-1.336-4.09-3.082-.066.086.117.293-3.57 4.734-.313-.03-.063.085 4.09 3.082 1.008-1.336-.086-.062-.293.117-2.543-1.914.684-.906zm6.766 4.715 1.352-.98-3.485-4.801-1.355.984.066.086.313-.027 1.171 1.613-3.882 2.824-.29-.125-.085.063 1.14 1.57.086-.062-.027-.313 3.883-2.82 1.172 1.613-.122.29zm5.367 8.387 1.367-.957-3.402-4.86-1.367.958.058.09.317-.024 1.144 1.637-3.933 2.75-.285-.13-.09.063 1.113 1.59.09-.059-.024-.316 3.934-2.75 1.145 1.633-.13.285zm1.337-.5-.083.066.05.313-4.546 3.812-.297-.101-.082.066 1.25 1.488.082-.07-.05-.309 4.542-3.812.297.102.086-.07zm4.16 4.953-.083.07-.297-.101-4.543 3.812.047.309-.082.07-1.246-1.484.082-.07.297.101 4.543-3.812-.05-.31.085-.07zm0 0"/><path d="m81.621 145.738 3.465 4.13 1.074-.9-3.465-4.132zm8.727 7.922.746-1.187-2.016-1.258.602-.961 2.699 1.687-.008.313.094.059.883-1.418-4.344-2.715-.055.093.14.278-3.14 5.031-.316-.004-.055.09 4.344 2.715.883-1.418-.09-.059-.281.145-2.696-1.688.598-.957zm0 0"/></g><path d="m93.121 157.539 1.492-5.573 2.188.586c2.867.768 2.21 3.213-.656 2.448l-2.188-.586m1.93.515 1.531 3.036" class="B D G"/><path d="M98.094 158.145a.7.7 0 0 1-.86.496.705.705 0 0 1-.496-.86.701.701 0 0 1 .86-.492.696.696 0 0 1 .496.856zm-4.035-.355.027-.102-.219-.227-1.351-.363-.305.086-.027.105zm9.741-.993.122-1.399-2.363-.207.097-1.125 3.172.278.137.281.105.008.149-1.664-5.106-.446-.008.106.254.187-.515 5.907-.285.136-.008.11 5.101.445.149-1.664-.11-.008-.183.254-3.168-.277.097-1.13zm0 0" class="C"/><path d="m109.898 156.008-1.215-3 2.102-.848c2.75-1.109 3.699 1.239.949 2.352l-2.102.848m-.261-.653 1.211 3 2.101-.847c2.75-1.11 1.801-3.461-.949-2.348l-2.102.848" class="B D G"/><path d="m109.906 158.621.04.102.902-.364-.754.012zm-2.343-5.801-.04-.097.899-.364-.547.512zm11.667-1.566-.746-1.191-2.011 1.257-.598-.96 2.695-1.684.282.14.093-.054-.886-1.418-4.344 2.715.055.09.316-.004 3.14 5.027-.14.281.059.094 4.343-2.715-.886-1.418-.094.055.008.316-2.7 1.684-.597-.957zm2.86-25.359-.016.105.246.2-.824 5.87-.289.125-.016.106 5.606.789.234-1.656-.11-.016-.194.246-3.688-.52.707-5.019zm6.996.945-.02.11.239.202-1.032 5.844-.293.113-.02.106 1.915.336.016-.106-.235-.207 1.028-5.84.293-.113.02-.105zm0 0" class="C"/><path d="M137.173 130.197c-3.324-3.461-6.488 3.555-2.75 4.078l1.867.262.351-2.508" class="B D G"/><g class="C"><path d="m137.602 132.164-.012.106-.29.12-1.39-.195-.242-.195.012-.11zm1.679-2.949v.11l.274.16v5.933l-.274.16v.11h1.942v-.11l-.27-.16v-5.934l.27-.16v-.11zm6.473 0v.11l-.27.16v5.933l.27.16v.11h-1.941v-.11l.269-.16v-5.934l-.27-.16v-.11zm0 0"/><path d="M139.824 133.152h5.39v-1.402h-5.39zm12.571-3.007-.145-1.665-5.91.516.148 1.664.106-.008.136-.28 1.989-.177.418 4.782-.254.183.008.11 1.937-.172-.012-.106-.28-.137-.419-4.78 1.985-.177.187.254zm0 0"/></g></svg>