<svg xmlns="http://www.w3.org/2000/svg" width="200" height="200"><path style="stroke:none;fill-rule:nonzero;fill:#fff;fill-opacity:1" d="M198.105 100.098c0 54.144-43.89 98.039-98.039 98.039-54.144 0-98.039-43.895-98.039-98.04 0-54.144 43.895-98.038 98.04-98.038 54.148 0 98.038 43.894 98.038 98.039zm0 0"/><path style="stroke:none;fill-rule:nonzero;fill:#3284bf;fill-opacity:1" d="M102.125 198.137a2.059 2.059 0 1 1-4.118 0 2.059 2.059 0 0 1 4.118 0zM97.23 198.117a2.055 2.055 0 0 1-2.156 1.953 2.06 2.06 0 0 1 .203-4.113 2.058 2.058 0 0 1 1.953 2.16zM92.363 197.855a2.06 2.06 0 1 1-4.098-.411 2.06 2.06 0 0 1 4.098.411zM87.492 197.348a2.057 2.057 0 0 1-2.34 1.73 2.058 2.058 0 1 1 .613-4.07 2.053 2.053 0 0 1 1.727 2.34zM82.656 196.602a2.057 2.057 0 1 1-4.035-.817 2.06 2.06 0 0 1 4.035.817zM77.863 195.613a2.058 2.058 0 1 1-3.988-1.02 2.052 2.052 0 0 1 2.5-1.484 2.057 2.057 0 0 1 1.488 2.504zM73.14 194.39a2.059 2.059 0 1 1-3.933-1.215 2.059 2.059 0 0 1 3.934 1.216zM68.473 192.93a2.064 2.064 0 0 1-2.641 1.23 2.058 2.058 0 0 1-1.23-2.64 2.064 2.064 0 0 1 2.64-1.23 2.064 2.064 0 0 1 1.23 2.64zM63.879 191.238a2.059 2.059 0 1 1-3.793-1.602 2.058 2.058 0 1 1 3.793 1.602zM59.39 189.324a2.055 2.055 0 0 1-2.745.961 2.056 2.056 0 1 1 1.785-3.707 2.055 2.055 0 0 1 .96 2.746zM54.988 187.184a2.058 2.058 0 1 1-3.612-1.968 2.058 2.058 0 0 1 3.612 1.968zM50.7 184.828a2.055 2.055 0 0 1-2.829.68 2.058 2.058 0 1 1 2.828-.68zM46.535 182.258a2.059 2.059 0 0 1-3.402-2.32 2.059 2.059 0 0 1 3.402 2.32zM42.516 179.496a2.056 2.056 0 0 1-2.883.395 2.056 2.056 0 0 1-.399-2.883 2.057 2.057 0 0 1 2.883-.399 2.06 2.06 0 0 1 .399 2.887zM38.625 176.523a2.057 2.057 0 1 1-3.152-2.644 2.053 2.053 0 0 1 2.898-.254c.871.73.984 2.027.254 2.898zM34.89 173.363a2.06 2.06 0 0 1-2.91.11 2.057 2.057 0 0 1-.109-2.91 2.06 2.06 0 0 1 2.91-.11 2.06 2.06 0 0 1 .11 2.91zM31.328 170.031a2.064 2.064 0 0 1-2.914-.035 2.056 2.056 0 0 1 .04-2.91 2.052 2.052 0 0 1 2.91.035 2.06 2.06 0 0 1-.036 2.91zM27.922 166.516a2.059 2.059 0 1 1-2.723-3.09 2.059 2.059 0 0 1 2.723 3.09zM24.7 162.832a2.06 2.06 0 0 1-2.895-.324 2.06 2.06 0 0 1 3.222-2.57 2.06 2.06 0 0 1-.328 2.894zM21.664 158.992a2.061 2.061 0 0 1-2.875-.469 2.062 2.062 0 0 1 .469-2.875 2.062 2.062 0 0 1 2.875.473 2.057 2.057 0 0 1-.469 2.871zM18.832 155.023c-.957.618-2.23.34-2.848-.613a2.058 2.058 0 0 1 .614-2.847 2.062 2.062 0 0 1 2.847.613c.617.957.34 2.23-.613 2.847zM16.191 150.902a2.062 2.062 0 0 1-2.812-.754 2.06 2.06 0 0 1 .754-2.812 2.054 2.054 0 0 1 2.812.754c.57.984.23 2.242-.754 2.812zM13.762 146.652a2.056 2.056 0 0 1-2.77-.894 2.056 2.056 0 0 1 .89-2.77 2.062 2.062 0 0 1 2.774.895 2.06 2.06 0 0 1-.894 2.77zM11.555 142.305a2.062 2.062 0 0 1-2.723-1.032 2.058 2.058 0 1 1 3.75-1.691 2.058 2.058 0 0 1-1.027 2.723zM9.559 137.836A2.06 2.06 0 0 1 8.055 134a2.058 2.058 0 0 1 2.668 1.164 2.064 2.064 0 0 1-1.164 2.672zM7.79 133.273a2.064 2.064 0 0 1-2.61-1.296 2.064 2.064 0 0 1 1.297-2.61 2.064 2.064 0 0 1 2.609 1.297 2.064 2.064 0 0 1-1.297 2.61zM6.25 128.625a2.06 2.06 0 0 1-2.543-1.422 2.066 2.066 0 0 1 1.426-2.543 2.063 2.063 0 0 1 2.539 1.426 2.058 2.058 0 0 1-1.422 2.539zM4.945 123.926a2.06 2.06 0 0 1-.918-4.016 2.065 2.065 0 0 1 2.47 1.55 2.061 2.061 0 0 1-1.552 2.466zM3.875 119.148a2.057 2.057 0 0 1-2.387-1.668 2.063 2.063 0 0 1 1.672-2.386 2.059 2.059 0 1 1 .715 4.055zM3.043 114.328a2.06 2.06 0 1 1 1.789-2.3 2.064 2.064 0 0 1-1.789 2.3zM2.457 109.484a2.06 2.06 0 0 1-.309-4.105 2.06 2.06 0 0 1 .309 4.105zM2.11 104.602A2.054 2.054 0 0 1 0 102.598a2.06 2.06 0 0 1 4.117-.106 2.06 2.06 0 0 1-2.008 2.11zM2.008 99.71a2.06 2.06 0 1 1 .102-4.117 2.06 2.06 0 0 1-.102 4.118zM2.148 94.816a2.06 2.06 0 0 1 .309-4.105 2.06 2.06 0 0 1-.309 4.105zM2.531 89.957a2.064 2.064 0 0 1-1.785-2.3 2.054 2.054 0 0 1 2.297-1.786 2.058 2.058 0 1 1-.512 4.086zM3.16 85.102a2.063 2.063 0 0 1-1.672-2.387 2.06 2.06 0 0 1 4.059.715 2.063 2.063 0 0 1-2.387 1.672zM4.027 80.285A2.059 2.059 0 0 1 2.48 77.82a2.058 2.058 0 1 1 4.016.914 2.062 2.062 0 0 1-2.469 1.551zM5.133 75.535a2.06 2.06 0 1 1 1.114-3.966 2.06 2.06 0 0 1-1.114 3.966zM6.477 70.828a2.064 2.064 0 0 1-1.297-2.61 2.062 2.062 0 0 1 2.61-1.292 2.058 2.058 0 1 1-1.313 3.902zM8.055 66.195a2.057 2.057 0 0 1-1.164-2.668 2.058 2.058 0 1 1 1.164 2.668zM9.86 61.645a2.057 2.057 0 0 1-1.028-2.723 2.062 2.062 0 0 1 2.723-1.031 2.061 2.061 0 0 1 1.027 2.726 2.055 2.055 0 0 1-2.723 1.028zM11.883 57.207a2.056 2.056 0 0 1-.89-2.77 2.056 2.056 0 0 1 2.769-.894 2.065 2.065 0 0 1 .894 2.773 2.06 2.06 0 0 1-2.773.891zM14.133 52.863a2.062 2.062 0 0 1-.754-2.812 2.055 2.055 0 0 1 2.812-.754 2.057 2.057 0 0 1 .754 2.812 2.06 2.06 0 0 1-2.812.754zM16.598 48.633a2.058 2.058 0 0 1-.614-2.848 2.065 2.065 0 0 1 2.848-.613 2.059 2.059 0 1 1-2.234 3.46zM19.258 44.547a2.061 2.061 0 0 1-.469-2.875 2.061 2.061 0 0 1 2.875-.469 2.057 2.057 0 0 1 .469 2.871 2.058 2.058 0 0 1-2.875.473zM22.133 40.582a2.056 2.056 0 0 1-.328-2.89 2.06 2.06 0 0 1 3.222 2.566 2.06 2.06 0 0 1-2.894.324zM25.2 36.77a2.063 2.063 0 0 1-.184-2.907 2.059 2.059 0 1 1 .184 2.906zM28.453 33.113a2.06 2.06 0 0 1-.039-2.914 2.06 2.06 0 1 1 .04 2.914zM31.871 29.633a2.057 2.057 0 0 1 .11-2.91 2.06 2.06 0 0 1 2.91.109 2.06 2.06 0 0 1-.11 2.91 2.057 2.057 0 0 1-2.91-.11zM35.473 26.32a2.061 2.061 0 0 1 .254-2.902 2.057 2.057 0 0 1 2.898.254c.73.871.617 2.172-.254 2.902a2.057 2.057 0 0 1-2.898-.254zM39.234 23.188a2.056 2.056 0 0 1 .399-2.883 2.057 2.057 0 0 1 2.883.398 2.057 2.057 0 0 1-.399 2.883 2.057 2.057 0 0 1-2.883-.398zM43.133 20.258a2.056 2.056 0 0 1 .543-2.86 2.059 2.059 0 1 1-.543 2.86zM47.188 17.516a2.057 2.057 0 1 1 3.511-2.145 2.057 2.057 0 0 1-3.511 2.145zM51.375 14.98a2.06 2.06 0 0 1 .824-2.793 2.055 2.055 0 0 1 2.79.825 2.057 2.057 0 1 1-3.614 1.968zM55.68 12.656a2.056 2.056 0 0 1 .965-2.746 2.058 2.058 0 1 1-.965 2.746zM60.086 10.559a2.058 2.058 0 1 1 3.792-1.6 2.058 2.058 0 0 1-3.792 1.6zM64.602 8.676c-.391-1.07.16-2.25 1.23-2.64a2.064 2.064 0 0 1 2.64 1.23 2.064 2.064 0 0 1-1.23 2.64 2.064 2.064 0 0 1-2.64-1.23zM69.207 7.02a2.059 2.059 0 1 1 3.934-1.215 2.059 2.059 0 0 1-3.934 1.215zM73.875 5.602a2.058 2.058 0 1 1 2.5 1.484 2.052 2.052 0 0 1-2.5-1.484zM78.621 4.41a2.06 2.06 0 1 1 4.038-.815 2.06 2.06 0 0 1-4.038.815zM83.422 3.46a2.06 2.06 0 0 1 1.73-2.343 2.057 2.057 0 0 1 2.34 1.73 2.051 2.051 0 0 1-1.726 2.34 2.055 2.055 0 0 1-2.344-1.726zM88.266 2.75A2.057 2.057 0 0 1 90.109.496a2.06 2.06 0 1 1-1.844 2.254zM93.121 2.285a2.056 2.056 0 0 1 1.953-2.16 2.055 2.055 0 0 1 2.156 1.953 2.058 2.058 0 1 1-4.109.207zM98.008 2.059a2.059 2.059 0 1 1 4.118 0 2.059 2.059 0 0 1-4.118 0zM102.902 2.078a2.058 2.058 0 1 1 4.111.205 2.058 2.058 0 0 1-4.11-.205zM107.773 2.34a2.06 2.06 0 1 1 4.1.412 2.06 2.06 0 0 1-4.1-.412zM112.64 2.848a2.06 2.06 0 0 1 4.074.613 2.057 2.057 0 0 1-2.343 1.726 2.057 2.057 0 0 1-1.73-2.34zM117.477 3.594a2.062 2.062 0 0 1 2.425-1.61 2.062 2.062 0 0 1 1.614 2.426 2.056 2.056 0 0 1-2.426 1.61 2.058 2.058 0 0 1-1.613-2.426zM122.27 4.586a2.06 2.06 0 0 1 3.992 1.016 2.058 2.058 0 0 1-2.504 1.484 2.058 2.058 0 0 1-1.488-2.5zM126.992 5.805a2.059 2.059 0 0 1 2.574-1.36 2.064 2.064 0 0 1 1.364 2.575 2.059 2.059 0 0 1-2.575 1.359 2.054 2.054 0 0 1-1.363-2.574zM131.664 7.266a2.064 2.064 0 0 1 2.64-1.23 2.064 2.064 0 0 1 1.231 2.64 2.064 2.064 0 0 1-2.64 1.23 2.061 2.061 0 0 1-1.23-2.64zM136.258 8.96a2.058 2.058 0 1 1 3.792 1.598 2.058 2.058 0 0 1-3.792-1.597zM140.742 10.871a2.058 2.058 0 1 1 3.71 1.785 2.056 2.056 0 0 1-2.745.965 2.062 2.062 0 0 1-.965-2.75zM145.145 13.012a2.058 2.058 0 1 1 3.617 1.968 2.058 2.058 0 1 1-3.617-1.968zM149.434 15.371a2.058 2.058 0 0 1 2.832-.684 2.059 2.059 0 1 1-2.832.684zM153.602 17.938A2.059 2.059 0 1 1 157 20.26a2.059 2.059 0 0 1-3.4-2.323zM157.617 20.703a2.06 2.06 0 1 1 3.284 2.485 2.06 2.06 0 0 1-3.284-2.485zM161.508 23.672a2.061 2.061 0 0 1 3.156 2.648 2.061 2.061 0 0 1-3.156-2.648zM165.246 26.832a2.06 2.06 0 0 1 2.91-.11 2.06 2.06 0 0 1 .11 2.91 2.057 2.057 0 0 1-2.91.11 2.057 2.057 0 0 1-.11-2.91zM168.809 30.164a2.06 2.06 0 0 1 2.875 2.95 2.056 2.056 0 0 1-2.91-.04 2.052 2.052 0 0 1 .035-2.91zM172.21 33.68a2.063 2.063 0 0 1 2.907.183 2.059 2.059 0 1 1-3.086 2.723 2.059 2.059 0 0 1 .18-2.906zM175.438 37.363a2.056 2.056 0 0 1 2.89.328c.711.887.563 2.184-.324 2.891a2.06 2.06 0 0 1-2.895-.324 2.06 2.06 0 0 1 .328-2.895zM178.473 41.203a2.057 2.057 0 0 1 2.87.469 2.059 2.059 0 1 1-2.871-.469zM181.305 45.172a2.06 2.06 0 0 1 2.234 3.46 2.059 2.059 0 1 1-2.234-3.46zM183.941 49.297a2.054 2.054 0 0 1 2.813.754 2.058 2.058 0 1 1-2.813-.754zM186.371 53.543a2.062 2.062 0 0 1 2.774.895 2.057 2.057 0 0 1-.895 2.769 2.06 2.06 0 0 1-1.879-3.664zM188.582 57.89a2.063 2.063 0 0 1 2.723 1.032 2.055 2.055 0 0 1-1.032 2.723 2.058 2.058 0 1 1-1.691-3.754zM190.578 62.363a2.057 2.057 0 0 1 2.668 1.164 2.058 2.058 0 1 1-2.668-1.164zM192.348 66.926a2.056 2.056 0 0 1 2.605 1.293 2.058 2.058 0 1 1-2.605-1.293zM193.887 71.57a2.057 2.057 0 0 1 2.539 1.426 2.06 2.06 0 0 1-3.965 1.113 2.063 2.063 0 0 1 1.426-2.539zM195.188 76.27a2.062 2.062 0 0 1 2.468 1.55 2.058 2.058 0 1 1-4.016.914 2.06 2.06 0 0 1 1.548-2.464zM196.262 81.047a2.06 2.06 0 0 1 .715 4.055 2.063 2.063 0 0 1-2.387-1.672 2.056 2.056 0 0 1 1.672-2.383zM197.09 85.871a2.058 2.058 0 1 1 .512 4.086 2.058 2.058 0 0 1-2.297-1.789 2.055 2.055 0 0 1 1.785-2.297zM197.68 90.71a2.06 2.06 0 0 1 2.207 1.9 2.06 2.06 0 0 1-4.11.309 2.063 2.063 0 0 1 1.903-2.208zM198.023 95.594a2.06 2.06 0 0 1 .106 4.117 2.06 2.06 0 0 1-.106-4.117zM198.129 100.488a2.054 2.054 0 0 1 2.004 2.11 2.054 2.054 0 0 1-2.11 2.004 2.054 2.054 0 0 1-2.003-2.11 2.054 2.054 0 0 1 2.109-2.004zM197.984 105.379a2.063 2.063 0 0 1 1.903 2.207 2.06 2.06 0 1 1-1.903-2.207zM197.602 110.242a2.058 2.058 0 1 1-2.297 1.785 2.052 2.052 0 0 1 2.297-1.785zM196.977 115.094a2.06 2.06 0 0 1 1.668 2.386 2.053 2.053 0 0 1-2.383 1.668 2.056 2.056 0 0 1-1.672-2.382 2.063 2.063 0 0 1 2.387-1.672zM196.105 119.91c1.11.254 1.801 1.36 1.551 2.465a2.059 2.059 0 1 1-1.55-2.465zM195 124.66a2.06 2.06 0 1 1-1.112 3.966A2.06 2.06 0 0 1 195 124.66zM193.656 129.367a2.06 2.06 0 0 1-1.308 3.906 2.06 2.06 0 0 1 1.308-3.906zM192.082 134a2.06 2.06 0 1 1-1.506 3.836 2.06 2.06 0 0 1 1.506-3.836zM190.273 138.55a2.056 2.056 0 0 1 1.032 2.723 2.063 2.063 0 0 1-2.723 1.032 2.056 2.056 0 0 1-1.031-2.723 2.056 2.056 0 0 1 2.722-1.031zM188.25 142.988a2.057 2.057 0 0 1 .895 2.77 2.062 2.062 0 0 1-2.774.894 2.056 2.056 0 0 1-.89-2.77 2.057 2.057 0 0 1 2.769-.894zM186 147.336a2.057 2.057 0 0 1 .754 2.812 2.06 2.06 0 0 1-2.813.754 2.062 2.062 0 0 1-.754-2.812 2.055 2.055 0 0 1 2.813-.754zM183.54 151.563a2.06 2.06 0 0 1-2.235 3.46 2.058 2.058 0 0 1-.614-2.847 2.062 2.062 0 0 1 2.848-.613zM180.875 155.648a2.062 2.062 0 0 1 .469 2.875 2.058 2.058 0 1 1-.469-2.875zM178.004 159.613a2.06 2.06 0 0 1 .324 2.895 2.06 2.06 0 0 1-3.219-2.57 2.06 2.06 0 0 1 2.895-.325zM174.938 163.426a2.059 2.059 0 0 1-2.727 3.09 2.059 2.059 0 0 1-.18-2.907 2.062 2.062 0 0 1 2.906-.183zM171.684 167.086a2.06 2.06 0 0 1 .035 2.91 2.06 2.06 0 0 1-2.91.035 2.052 2.052 0 0 1-.036-2.91 2.052 2.052 0 0 1 2.91-.035zM168.266 170.563a2.06 2.06 0 0 1-.11 2.91 2.06 2.06 0 0 1-2.91-.11 2.057 2.057 0 0 1 .11-2.91 2.06 2.06 0 0 1 2.91.11zM164.664 173.879c.73.871.617 2.168-.254 2.898a2.061 2.061 0 0 1-2.902-.254 2.057 2.057 0 0 1 .254-2.898 2.058 2.058 0 0 1 2.902.254zM160.902 177.008a2.06 2.06 0 1 1-3.286 2.484 2.06 2.06 0 0 1 3.286-2.484zM157.004 179.938a2.059 2.059 0 0 1-3.402 2.32 2.058 2.058 0 1 1 3.402-2.32zM152.95 182.68a2.06 2.06 0 0 1-3.516 2.148 2.061 2.061 0 0 1 3.515-2.148zM148.762 185.215a2.058 2.058 0 1 1-3.617 1.969 2.058 2.058 0 1 1 3.617-1.97zM144.453 187.54a2.058 2.058 0 1 1-3.709 1.784 2.058 2.058 0 0 1 3.71-1.785zM140.05 189.637a2.058 2.058 0 1 1-3.793 1.602 2.058 2.058 0 1 1 3.794-1.602zM135.535 191.52a2.064 2.064 0 0 1-1.23 2.64 2.064 2.064 0 0 1-2.64-1.23 2.061 2.061 0 0 1 1.23-2.64 2.064 2.064 0 0 1 2.64 1.23zM130.93 193.176a2.064 2.064 0 0 1-1.364 2.574 2.059 2.059 0 1 1-1.21-3.934 2.059 2.059 0 0 1 2.574 1.36zM126.262 194.594a2.059 2.059 0 0 1-1.489 2.504 2.058 2.058 0 0 1-2.503-1.485 2.064 2.064 0 0 1 1.488-2.504 2.058 2.058 0 0 1 2.504 1.485zM121.516 195.785a2.06 2.06 0 0 1-4.04.816 2.06 2.06 0 0 1 4.04-.816zM116.715 196.734a2.06 2.06 0 0 1-4.074.614 2.06 2.06 0 0 1 4.074-.613zM111.871 197.445a2.06 2.06 0 1 1-4.1.408 2.06 2.06 0 0 1 4.1-.408zM107.016 197.914a2.058 2.058 0 1 1-4.116.202 2.058 2.058 0 0 1 4.116-.202zm0 0"/><path style="fill-rule:nonzero;fill:#000;fill-opacity:1;stroke-width:1;stroke-linecap:butt;stroke-linejoin:miter;stroke:#3284bf;stroke-opacity:1;stroke-miterlimit:4" d="M-14.998-63.001-32-62.5M-12.998-61.001l-37.003 11M-11.002-59.001l-52.996 36.003M-10.002-56-69.999-1.5M-10.002-51.498-66.998 13M-8.002-49-62.5 30.002M-7.002-45-46 55M-3.5-49-35 62M-1.001-50.498-23 60M-9.002 55l-2 15.5M13.502-61.001l18.5 1.502M12-59.001 54-42M12-56l54 33.002M12-53 69-6M10-50l58 64M14-40l51 67.002M24-20.002l34 59M6-50 46.998 53M1.501-50.498 31.499 58.498M15.498 55 16 67.499M1.999 55 2.501 71" transform="matrix(.9804 0 0 .9804 100.068 100.098)"/><path style="fill-rule:nonzero;fill:#fff;fill-opacity:1;stroke-width:1;stroke-linecap:butt;stroke-linejoin:miter;stroke:#3284bf;stroke-opacity:1;stroke-miterlimit:4" d="M-52.001 28.002c-3 2.996-5.499 3.996-5.499 8.997 0 5 5.499 5 6.499 5s5-1 5 4.502c0 5.499 8 7 8 12.5C-37.497 62-37 54-39 52c1-1 .503-1 1.503-3 .996 1 7.997 7 8.997 7 3 0 1.502-6.499-2-3C-32 51.502-32 48.5-34 48.5s-2-2-2-4 0-8.503-14.001-8.503c-3 0-3 0-3-2s1-3.996 1-4.996zm0 0" transform="matrix(.9804 0 0 .9804 100.068 100.098)"/><path style="fill-rule:nonzero;fill:#fff;fill-opacity:1;stroke-width:1;stroke-linecap:butt;stroke-linejoin:miter;stroke:#3284bf;stroke-opacity:1;stroke-miterlimit:4" d="M-47.499-45.502h41.497c3 0 5 4 6 5 1.001-1 3.001-5 6.001-5h41.502v89.003H3.999c0 2-8 2-8 0H-47.5zm0 0" transform="matrix(.9804 0 0 .9804 100.068 100.098)"/><path style="fill:none;stroke-width:1;stroke-linecap:butt;stroke-linejoin:miter;stroke:#3284bf;stroke-opacity:1;stroke-miterlimit:4" d="M-35.502-45.502V36.5h29.5c3 0 5 4 6 5C1 40.5 3 36.5 6 36.5h29.5v-82.002" transform="matrix(.9804 0 0 .9804 100.068 100.098)"/><path style="fill:none;stroke-width:1;stroke-linecap:butt;stroke-linejoin:miter;stroke:#3284bf;stroke-opacity:1;stroke-miterlimit:4" d="M-38.498-45.502V38.25h32.496c3 0 5 4 6 5 1.001-1 3.001-5 6.001-5h32.5v-83.752" transform="matrix(.9804 0 0 .9804 100.068 100.098)"/><path style="fill:none;stroke-width:1;stroke-linecap:butt;stroke-linejoin:miter;stroke:#3284bf;stroke-opacity:1;stroke-miterlimit:4" d="M-41.498-45.502v85.5h35.496c3 0 5 2.503 6 3.503C1 42.501 3 39.999 6 39.999H41.5v-85.501" transform="matrix(.9804 0 0 .9804 100.068 100.098)"/><path style="fill:none;stroke-width:1;stroke-linecap:butt;stroke-linejoin:miter;stroke:#3284bf;stroke-opacity:1;stroke-miterlimit:4" d="M-44.499-45.502v87.254h38.497c3 0 5 .749 6 1.749C1 42.501 3 41.751 6 41.751H44.5v-87.253M-.001-40.502v82.003" transform="matrix(.9804 0 0 .9804 100.068 100.098)"/><path style="fill-rule:nonzero;fill:#fff;fill-opacity:1;stroke-width:1;stroke-linecap:butt;stroke-linejoin:miter;stroke:#3284bf;stroke-opacity:1;stroke-miterlimit:4" d="M-4.001 43.501c0-6 8-6 8 0 0 2-8 2-8 0zm0 0" transform="matrix(.9804 0 0 .9804 100.068 100.098)"/><path style="fill:none;stroke-width:1;stroke-linecap:butt;stroke-linejoin:miter;stroke:#3284bf;stroke-opacity:1;stroke-miterlimit:4" d="M6-41.35h3m3 0h2m1 0h3m3 0h7.001m1 0h4M6-38.15h1m1 0h13.002m3 0h9M6-34.952h4m1 0H14m3 0h7m1 0h4.001m1 0h3M6-31.751h27.002M6-28.549h1m1 0H17m1 0h5m1 0h9.001M6-25.35h5m1 0H19m1 0h7.001m3 0h3M6-22.149h1m3 0H15m1 0h3m3 0h7.001m1 0h3M6-18.95h4m3 0H19m1 0h4m3.001 0h6M6-15.75h1m1 0H17m1 0h5m1 0h9.001M6-12.552h2m1 0h3m3.001 0h1m1 0h3m3 0h1m1 0h3.001m3 0h2M6-9.351h2m1 0H14m1 0h3m3 0h6.001m1 0h5M6-6.149H16m1 0h16.001M6-2.948h2m1 0h12.002m3 0h9M6 .25h4m1 0H16m3 0h7m1.001 0h6M6 3.45h27.002M6 6.65H15m3 0h15.001M6 9.849h3m1 0h2m1 0H19m1 0h4m1 0h8.001M6 13.049H16m1 0h16.001M6 16.251h27.002M6 19.452H15m3 0h15.001M6 22.65h1.502m1 0h19.197m3 0h.602m1 0h.701M6 25.85h.502m1 0h25.5M6 29.05h1.2m1 0H33M6 32.25h27.002m-66-73.6h3m3 0h4m1 0h5m1 0h4.997m1 0h4M-33-38.15h18.002m1 0h7.996M-33-34.952h15.001m1 0h5m2.997 0h3M-33-31.751h18.002m3 0h5.996M-33-28.549h26.998m-27.097 3.199h3m3 0h4m1 0h4m2.997 0h7m1 0h1m-26.997 3.2h5m1 0h14.997m3 0h3m-26.997 3.199h4m1 0h3m3 0h6.997m1 0h5m1 0h2m-26.997 3.2h2m1 0h3m3 0h1.499m1 0h3m3 0h1m1 0h4m3 0h.499M-33.1-12.552h26.998m-26.998 3.2h6m3 0h7.997m3 0h5m1 0h1m-26.997 3.203h2m3 0h7m3 0h5.997m3 0h3m-26.997 3.2h26.998M-33.1.25h5m1 0h9m1 0H-9.1m1 0h2M-33.1 3.45h11m3 0H-6.1M-33.1 6.65h10m1 0h7.997m3 0h5m-26.997 3.199h5m3 0H-8.1m1 0h1m-26.998 3.2h2m1 0h5m1 0h3m3 0h7.997m1 0h3m-26.997 3.203h3m3 0h8m2.997 0h5m3 0h2m-26.997 3.2h7m1 0h5m3 0h6.997m1 0h3m-26.997 3.199h9m3 0h4.997m1 0h7m1 0h1m-26.997 3.2h9.498m1 0h1m3 0h1m1.001 0h1m3 0h1m1 0h1m3 0h.499M-33.1 29.05h26.998m-26.998 3.2h26.998m-.498-73.6h.498c3 0 5 4 6 5 1-1 3-5 6-5h.503M-6.6-38.15h.498c3 0 5 4 6 5 1-1 3-5 6-5h.503M-6.6-34.952h.498c3 0 5 4 6 5 1-1 3-5 6-5h.503m-13.001 3.2h.498c3 0 5 4 6 5 1-1 3-5 6-5h.503M-6.6-28.549h.498c3 0 5 4 6 5 1-1 3-5 6-5h.503M-6.6-25.35h.498c3 0 5 4 6 5 1-1 3-5 6-5h.503m-13.001 3.2h.498c3 0 5 4 6 5 1-1 3-5 6-5h.503M-6.6-18.95h.498c3 0 5 4 6 5 1-1 3-5 6-5h.503M-6.6-15.75h.498c3 0 5 4 6 5 1-1 3-5 6-5h.503M-6.6-12.552h.498c3 0 5 4 6 5 1-1 3-5 6-5h.503M-6.6-9.351h.498c3 0 5 4 6 5 1-1 3-5 6-5h.503M-6.6-6.149h.498c3 0 5 3.996 6 4.996 1-1 3-4.996 6-4.996h.503M-6.6-2.948h.498c3 0 5 4 6 5 1-1 3-5 6-5h.503M-6.6.25h.498c3 0 5 4 6 5 1-1 3-5 6-5h.503M-6.6 3.45h.498c3 0 5 4 6 5 1-1 3-5 6-5h.503M-6.6 6.65h.498c3 0 5 4 6 5 1-1 3-5 6-5h.503M-6.6 9.849h.498c3 0 5 4 6 5 1-1 3-5 6-5h.503m-13.001 3.2h.498c3 0 5 4 6 5 1-1 3-5 6-5h.503M-6.6 16.251h.498c3 0 5 3.996 6 4.996 1-1 3-4.996 6-4.996h.503m-13.001 3.2h.498c3 0 5 4 6 5 1-1 3-5 6-5h.503M-6.6 22.65h.498c3 0 5 4 6 5 1-1 3-5 6-5h.503M-6.6 25.85h.498c3 0 5 4 6 5 1-1 3-5 6-5h.503M-6.6 29.05h.498c3 0 5 4 6 5 1-1 3-5 6-5h.503M-6.6 32.25h.498c3 0 5 4 6 5 1-1 3-5 6-5h.503M-6.6 35.448" transform="matrix(.9804 0 0 .9804 100.068 100.098)"/><path style="fill-rule:nonzero;fill:#fff;fill-opacity:1;stroke-width:4;stroke-linecap:butt;stroke-linejoin:miter;stroke:#fff;stroke-opacity:1;stroke-miterlimit:4" d="M-32.502-38.15v9.602h9.603v-9.603zm0 0" transform="matrix(.9804 0 0 .9804 100.068 100.098)"/><path style="fill:none;stroke-width:1;stroke-linecap:butt;stroke-linejoin:miter;stroke:#3284bf;stroke-opacity:1;stroke-miterlimit:4" d="M-32.502-38.15v9.602h9.603v-9.603zM-31-29.649l3.3-6.602 3.299 6.602m-4.949-3.303h3.299" transform="matrix(.9804 0 0 .9804 100.068 100.098)"/><path style="fill-rule:nonzero;fill:#fff;fill-opacity:1;stroke-width:1;stroke-linecap:butt;stroke-linejoin:miter;stroke:#3284bf;stroke-opacity:1;stroke-miterlimit:4" d="M21 45c-7-5.001-6-12.002 1-13.002l-7-1.996C0 35.998 6 44.502 19 44.999zm0 0" transform="matrix(.9804 0 0 .9804 100.068 100.098)"/><path style="fill-rule:nonzero;fill:#fff;fill-opacity:1;stroke-width:1;stroke-linecap:butt;stroke-linejoin:miter;stroke:#3284bf;stroke-opacity:1;stroke-miterlimit:4" d="M-37 19.001c5 0 7 3 10 6 3.001 3 3.499 2.499 7.001 5.001 3.499 2.498 4.499 5.996 8.997 11.997 4.502 6 13.001 7 15.001 7s8 .502 10.001-1c2-1.498 2-4.498 5.498-4.498 3.503 0 4.503 5 4.503 7S22 64.5 1.999 64.002c-19.998-.502-24.998-13.001-28.5-18.002-3.498-5-2-15.997-26.998-15.997 0-2 .498-3 .498-5s0-4 7-5 4-1 9.001-1zM9.502 28.002c0 2 1 2.996 1 3.996s3 .502 3.996 1.502c1 1 20.002 6 30.002 6 10.001 0 13.001-4 17.5-14C63.1 23 62 20 59 16.499 56 13 53.5 11 50.999 11c-2.498 0-9 2-10 2.499C39.997 14 31 16.499 30 10c-1-6.498 7.499-7 9.997-5C42.5 7 45.5 8 48.501 8c3 0 6-2.502 8-4.498 2-2 6.499-3 6.499-6.503 0-3.498-2-4-2-7-1-2 1 5.502-3 6.502s-3.499 2-3.499 2C54-4.499 56.501-9 50-11c4-5-5-5-3 0l2.502 3c.498 1 1 1 1.498 4.502C49.5-2.499 49.5-2 48.5 0c-1 2-7-.498-10.001 1-3 1.502-3-3 .502-3.499C42.5-3 41.5-2.499 42.5-4c1-1.498-3 0-4-1s-3 .502-4 1C33.5-3.499 27 1 27.499 8c.502 7 1.502 13.5 10 13.001 8.5-.502 11.5-9 16.5-4 1.502 1.498 0 9.499-4 9.499C25 26.5 30 21.5 15 21.5c-6 0-5.498 3-5.498 5zm0 0" transform="matrix(.9804 0 0 .9804 100.068 100.098)"/><path style="fill-rule:nonzero;fill:#000;fill-opacity:1;stroke-width:1;stroke-linecap:butt;stroke-linejoin:miter;stroke:#3284bf;stroke-opacity:1;stroke-miterlimit:4" d="M59 16.499 54 17" transform="matrix(.9804 0 0 .9804 100.068 100.098)"/><path style="fill-rule:nonzero;fill:#fff;fill-opacity:1;stroke-width:1;stroke-linecap:butt;stroke-linejoin:miter;stroke:#3284bf;stroke-opacity:1;stroke-miterlimit:4" d="M-35.14 68.46c4.312-13.21 4.89-11.289 7.83-7.65 1.518 1.892 4.51-.38 4.419 1.669-.14 3.199-2.857 4.641-3.638 13.55-4.873 2.562-8.013.522-8.622-7.57zM33.818 77.472c-22.428 5.28-10.208-.223-10.889-4.351-2.43-14.83-.88-10.352 4.482-12.643 2.797-1.187 5.877-2.366 6.559-.478 5.582 21.879 5.968 16.149-.16 17.472zm0 0" transform="matrix(.9804 0 0 .9804 100.068 100.098)"/><path style="fill-rule:nonzero;fill:#fff;fill-opacity:1;stroke-width:1;stroke-linecap:butt;stroke-linejoin:miter;stroke:#3284bf;stroke-opacity:1;stroke-miterlimit:4" d="M-34.239 81.01c-25.293-5.73 4.128-11.491 3.339-14.842-2.602-11.029 1.35-8.989 3.59-6.407 1.59 1.837 4.51.678 4.419 2.73-.14 3.199-5.24.63-4.698 4.35 1.08 12.631 6.267 18.249-6.65 14.169zM35.061 80.48c-22.432 5.28-4.47-9.65-10.1-13.961-6.351-4.857-2.291-5.188 2.697-6.407 2.953-.721 5.63-2 6.312-.112.92 2.55-2.048 1.49-3.479 5.32-1.02 2.72 29.489 7.131 4.558 15.16zm0 0" transform="matrix(.9804 0 0 .9804 100.068 100.098)"/><path style="fill-rule:nonzero;fill:#fff;fill-opacity:1;stroke-width:1;stroke-linecap:butt;stroke-linejoin:miter;stroke:#3284bf;stroke-opacity:1;stroke-miterlimit:4" d="M-33.14 81.839c.029-3.32 5.67-9.858 5.2-10.75-2.94-5.618 1.75-3.55 7.168-2.67 3.463.562 15.3 3.953 20.843 3.53 1.398-.107 5.088.622 9.69-1.689 8.33-4.16 8.98-.319 13.598-2.781 5.212-2.777 5.02.51 5.152 3.1.167 3.661-.562.16.61 4.67.63 2.422 4.498 3.191 3.88 7.37-.641 4.391-4.151 5.1-14.89 7.292-9.621 1.96-6.091 2.697-17.383 2.757-8.81.052-5.996-2.53-23.356-2.737-7.053-.08-10.563-2.801-10.503-8.08zm0 0" transform="matrix(.9804 0 0 .9804 100.068 100.098)"/><path style="fill-rule:nonzero;fill:#fff;fill-opacity:1;stroke-width:1;stroke-linecap:butt;stroke-linejoin:miter;stroke:#3284bf;stroke-opacity:1;stroke-miterlimit:4" d="M70.439-55.068c1.57 4.267 4.57 4.968 7.172 8.618 2.61 3.65 5.637 12.14 6.849 15.99 2.582 8.219 5.968 12.8 5.96 20.638-.02 9.252.47 20.472-.661 23.783-1.128 3.31-4.168 11.47-5.63 20.85-1.359 8.73-8.949 15.95-10.02 17.18-1.069 1.228-4.2 9.73-12.408 16.15-3.622 2.828-8.802 6.319-13.232 9.538-3.989 2.9-5.877 5.682-8.22 5.351-2.339-.33-3.94-3.18-4.399-6.781-.29-2.248-.729-3.91-3.82-7.579-2.67-3.171-3.391-4.151 2.39-4.82 4.14-.479 9.901-8.719 13.28-9.778 3.379-1.06 10.22-11.404 16.579-25.102 4.622-9.98 7.28-23.95 4.662-42.19-2.47-17.201-5.83-18.572-11.292-26.84-4.41-6.681-7.519-11.622-13.5-14.801-.94-.498-3.617-1.14-6.98-4.268-1.94-1.812-4.821-2.952-7.347-4.41C27.292-65.001 9.972-71.38.5-71.651c-7.81-.22-19.213 1.43-37.15 11.16-6.112 3.323-11.99 8.28-19.6 16.882-3.14 3.55-4.091 7.929-5.88 11.738-.993 2.12-2.861 3.82-4.053 5.69-4.518 7.12-5.426 20.02-5.438 25.85-.028 9.801 3.61 16.83 3.71 21.52.159 7.171 4.23 12.06 9.27 20.65 2.99 5.1 9.2 10.91 12.73 13.272 3.73 2.479 5.551 5.63 10.611 8.049 8.407 4.02 1.869 5.24.49 9.459-.76 2.33-1.57 13.24-8.02 9.132-3.14-2-8.42-4.63-13.352-8.69-1.49-1.231-9.598-6.39-12.87-13.36-.987-2.111-5.769-7.14-9.948-13.682-3.75-5.86-5.742-12.049-8.85-19.54C-91 18.883-90.78 7.49-91.51-.298c-1.63-17.56 4.622-23.34 4.622-24.779 0-5 4.948-17.013 6.618-19.253 1.67-2.25 2.621-4.849 7.518-11.857 1.124-1.602 10.722-10.053 15.24-14.364C-50.3-77.42-28.29-87.509-23.99-87.569c6.79-.1 11.18-3.152 21.492-3.721 6.677-.37 22.3 4.02 29.608 5.51 13.3 2.71 12.02 5.79 23.95 12.28 11.94 6.478 16.91 11.762 19.38 18.46zm0 0" transform="matrix(.9804 0 0 .9804 100.068 100.098)"/><path style="fill-rule:nonzero;fill:#fff;fill-opacity:1;stroke-width:.05;stroke-linecap:butt;stroke-linejoin:miter;stroke:#3284bf;stroke-opacity:1;stroke-miterlimit:4" d="M-.294-.405 0-1l.294.595.657.096-.475.464.112.654L0 .5-.588.81l.112-.654L-.95-.31zm0 0" transform="translate(100.068 39.314) scale(14.70588)"/><path style="stroke:none;fill-rule:nonzero;fill:#3284bf;fill-opacity:1" d="M100.066 39.313V24.608l4.325 8.754zM100.066 39.313l13.989-4.543-3.496 3.406zM100.066 39.313l6.996 2.273 1.649 9.625zM100.066 39.313v7.355l-8.644 4.543zM100.066 39.313 86.082 34.77l9.664-1.407zM53.36 164.352a2.06 2.06 0 0 1-3.27-2.504 2.06 2.06 0 0 1 3.27 2.504zM150.043 161.848a2.06 2.06 0 0 1-.379 2.886 2.06 2.06 0 0 1-2.508-3.27 2.06 2.06 0 0 1 2.887.384zM21.605 112.504a2.06 2.06 0 1 1-.539-4.082 2.058 2.058 0 0 1 .54 4.082zM143.93 33.867a2.06 2.06 0 0 1 2.867-.508 2.06 2.06 0 0 1-2.363 3.375 2.06 2.06 0 0 1-.504-2.867zM102.86 20.707a2.059 2.059 0 0 1 2.183-1.926 2.059 2.059 0 0 1-.254 4.11 2.065 2.065 0 0 1-1.93-2.184zM33.422 148.61l-2.336 1.945 6.902 8.285 2.336-1.945-.125-.153-.566.086-2.32-2.785 6.703-5.586.539.188.152-.125-2.262-2.711-.148.125.086.566-6.703 5.586-2.32-2.79.187-.538zM28.563 146.969l.171-.094.016-.574 9.406-5.278.496.286.172-.098-1.726-3.078-.172.097-.016.57-9.406 5.278-.496-.281-.172.094zM22.805 136.71l.172-.097.496.285 9.406-5.277.016-.574.171-.094 1.727 3.078-.172.094-.496-.281-9.402 5.277-.02.57-.168.098zm0 0"/><path style="stroke:none;fill-rule:nonzero;fill:#3284bf;fill-opacity:1" d="m34.324 142.613-4.797-8.55-2.222 1.246 4.797 8.55zM25.074 122.176l-2.422.797L24 127.07l-1.957.64-1.805-5.491.371-.434-.058-.187-2.887.949 2.906 8.848.188-.063.125-.555 10.246-3.37.433.374.184-.062-2.906-8.848-2.887.95.059.187.558.125 1.805 5.496-1.953.644zm0 0"/><path style="fill:none;stroke-width:2.6;stroke-linecap:butt;stroke-linejoin:miter;stroke:#3284bf;stroke-opacity:1;stroke-miterlimit:4" d="M-4.198-5.998V0C-4.201 6.299 4.2 6.3 4.198 0v-6" transform="rotate(-87.3 60.876 37.306) scale(.98039)"/><path style="stroke:none;fill-rule:nonzero;fill:#3284bf;fill-opacity:1" d="m14.758 98.43.195.011.27.5-.118 2.547-.32.477-.195-.008zM14.98 93.73l.196.008.316-.476.121-2.543-.273-.504-.195-.012zM27.004 88.605l.191.047.711-2.953-11.441-2.75-.707 2.957.191.047.399-.41 10.488 2.52zM29.754 77.168l.187.047-.707 2.953-11.441-2.746.71-2.957.192.047.172.547 10.485 2.515zm0 0"/><path style="stroke:none;fill-rule:nonzero;fill:#3284bf;fill-opacity:1" d="m29.234 80.168.594-2.477-13.363 5.258-.594 2.48zM20.219 70.063l.18.07.456-.344 10.012 4.004.094.562.18.075 1.312-3.278-.183-.07-.454.344-10.015-4.004-.09-.567-.184-.07zM35.383 65.113l1.25-2.222-7.504-10.645-1.254 2.223 7.508 10.644 1.25-2.222-12.992-.907-1.25 2.223zM41.785 47.996l-1.953-1.64-2.77 3.304-1.578-1.324 3.72-4.43.562.09.125-.148-2.328-1.957-5.985 7.136.149.125.543-.187 8.261 6.933-.09.567.149.125 5.988-7.137L44.25 47.5l-.129.152.188.54-3.72 4.43-1.577-1.321zm0 0"/><path style="fill:none;stroke-width:2.6;stroke-linecap:butt;stroke-linejoin:miter;stroke:#3284bf;stroke-opacity:1;stroke-miterlimit:4" d="M-4.2 6V-4.7H.001C5.5-4.7 5.498 0 0 .001l-4.2-.003m3.7.004L3.698 4.7" transform="rotate(-40 78.451 -47.712) scale(.98039)"/><path style="stroke:none;fill-rule:nonzero;fill:#3284bf;fill-opacity:1" d="M55.738 39.645c.453.539.383 1.343-.156 1.796a1.28 1.28 0 0 1-1.797-.16 1.275 1.275 0 0 1 1.953-1.636zM51 45.285l-.125-.152-.563.09-1.953 1.64-.187.54.125.148zm0 0"/><path style="fill:none;stroke-width:2.6;stroke-linecap:butt;stroke-linejoin:miter;stroke:#3284bf;stroke-opacity:1;stroke-miterlimit:4" d="M-3.701 3.3s-1.3 1.401 3.703 1.4C5 4.7 5 .002 0 0c-4.997 0-5-4.7.002-4.701 4.998 0 3.698 1.4 3.698 1.4" transform="rotate(-30.2 88.367 -95.679) scale(.98039)"/><path style="stroke:none;fill-rule:nonzero;fill:#3284bf;fill-opacity:1" d="M59.715 35.445a1.273 1.273 0 0 1-.461 1.742 1.275 1.275 0 1 1 .46-1.742zM62.73 26.203a1.273 1.273 0 1 1-2.203 1.281 1.276 1.276 0 0 1 2.203-1.28zM65.117 22.273l.074.18.567.082 4.215 9.926-.336.46.074.18 3.25-1.378-.074-.18-.567-.078-4.215-9.926.336-.465-.078-.18zM83 19.453l-.82-2.926-10.383 2.918.82 2.926.192-.055.148-.55 3.492-.98 2.364 8.398-.395.418.055.187 3.398-.953-.055-.191-.55-.149-2.364-8.402 3.493-.98.418.394zM88.813 15.516l-3.512.37.02.196 1.038.48-.57-.726 4.863 6.883 2.535-.27-4.863-6.879.051.485.457-.344zm0 0"/><path style="stroke:none;fill-rule:nonzero;fill:#3284bf;fill-opacity:1" d="m93.492 15.023 3.512-.367.02.196-.915.687.407-.832-3.329 7.742-2.535.27 3.328-7.746.051.488-.52-.242zm0 0"/><path style="stroke:none;fill-rule:nonzero;fill:#3284bf;fill-opacity:1" d="m91.063 26.617-.458.344.02.195 3.512-.37-.02-.192-.52-.242-.421-4-2.531.27zm0 0"/><path style="fill:none;stroke-width:2.6;stroke-linecap:butt;stroke-linejoin:miter;stroke:#3284bf;stroke-opacity:1;stroke-miterlimit:4" d="M4.702 0a4.702 4.702 0 0 1-9.404 0 4.702 4.702 0 0 1 9.404 0zm0 0" transform="rotate(14.4 -31.844 485.811) scale(.98039)"/><path style="stroke:none;fill-rule:nonzero;fill:#3284bf;fill-opacity:1" d="m132.527 26.742 1.086-2.308 5.235 2.464.058.567.176.086 1.293-2.75-8.426-3.965-.086.176.32.476-4.593 9.758-.567.055-.085.18 3.195 1.5.082-.176-.317-.477 1.543-3.281 4.793 2.254 1.082-2.305zm0 0"/><path style="fill:none;stroke-width:2.6;stroke-linecap:butt;stroke-linejoin:miter;stroke:#3284bf;stroke-opacity:1;stroke-miterlimit:4" d="M4.702 0A4.7 4.7 0 1 1-4.7.002 4.7 4.7 0 0 1 4.702 0zm0 0" transform="rotate(45.4 25.307 209.364) scale(.98039)"/><path style="stroke:none;fill-rule:nonzero;fill:#fff;fill-opacity:1" d="m158.008 42.96 4.472 4.54-2.792 2.754-4.473-4.54zm0 0"/><path style="stroke:none;fill-rule:nonzero;fill:#3284bf;fill-opacity:1" d="m163.54 56.922 2.105-1.438-.848-1.242 6.062-1.722-1.71-2.512-.165.11.067 1.14.375-.844-11.93 3.39.922-.038-1.035-.477-.164.11 1.988 2.913.164-.109-.066-1.14-.375.847 3.172-1.097zm0 0"/><path style="stroke:none;fill-rule:nonzero;fill:#3284bf;fill-opacity:1" d="m163.426 56.758 2.105-1.438.848 1.242 3.82-5.015 1.711 2.512-.164.109-1.035-.48.922-.036-7.508 9.871.371-.847.066 1.14-.16.11-1.988-2.914.16-.11 1.04.477-.927.035 2.176-2.55zM176.34 61.54l-.18.077-.078.567-9.91 4.25-.465-.336-.18.078 4.055 9.46 2.793-1.195-.078-.18-.567-.077-2.664-6.22 8.473-3.628zM181.438 74.465l-.188.055-.145.554-10.351 3.028-.418-.391-.191.055.992 3.39.187-.058.145-.551 10.351-3.027.422.386.188-.054zM179.105 86.402l2.524-.379.855 5.723-.441.363.027.196 3.008-.45-1.379-9.21-.191.027-.219.527-10.668 1.594-.363-.441-.192.03.52 3.49.195-.028.219-.528 3.586-.539.781 5.239 2.524-.38zm0 0"/><path style="fill:none;stroke-width:2.6;stroke-linecap:butt;stroke-linejoin:miter;stroke:#3284bf;stroke-opacity:1;stroke-miterlimit:4" d="M4.7-.002A4.698 4.698 0 0 1 0 4.7 4.705 4.705 0 0 1-4.703 0a4.7 4.7 0 1 1 9.401-.002zm0 0" transform="rotate(91.2 39.905 138.751) scale(.98039)"/><path style="fill:none;stroke-width:2.6;stroke-linecap:butt;stroke-linejoin:miter;stroke:#3284bf;stroke-opacity:1;stroke-miterlimit:4" d="m-4.198 5.998-.004-10.696 4.2-.002C5.498-4.7 5.5-.001 0 .002L-4.2 0m3.702 0 4.197 4.702" transform="rotate(102.8 41.777 129.696) scale(.98039)"/><path style="stroke:none;fill-rule:nonzero;fill:#3284bf;fill-opacity:1" d="M171.926 121.45a1.27 1.27 0 0 1-.961-1.524 1.276 1.276 0 1 1 2.488.566 1.276 1.276 0 0 1-1.527.957zM172.29 114.094l.19.043.399-.414.562-2.485-.175-.543-.192-.043zM169.55 125.441l-.179-.082-1.266 2.762 10.7 4.899 1.265-2.762-.18-.082-.472.32-9.805-4.488zM164.652 136.137l-.18-.082 1.266-2.762 10.7 4.894-1.266 2.766-.18-.082-.062-.566-9.805-4.493zm0 0"/><path style="stroke:none;fill-rule:nonzero;fill:#3284bf;fill-opacity:1" d="m165.738 133.293-1.058 2.316 14.125-2.59 1.058-2.316zM172.563 145.074l-.165-.11-.515.25-9.043-5.87.02-.57-.165-.11-1.922 2.961.165.105.515-.25 9.043 5.875-.02.57.165.106zM157.762 150.734l1.918 1.68.988-1.129 3.187 5.438 2.004-2.286-.148-.128-1.09.347.914.149-6.27-10.7.27.887.203-1.125-.148-.133-2.324 2.657.148.129 1.086-.348-.914-.149 1.855 2.793zm0 0"/><path style="stroke:none;fill-rule:nonzero;fill:#3284bf;fill-opacity:1" d="m157.89 150.59 1.919 1.676-.989 1.132 5.813 2.438-2.004 2.289-.149-.129.204-1.125.27.883-11.438-4.797.914.148-1.086.348-.149-.129 2.325-2.652.148.129-.203 1.125-.27-.887 3.016 1.469zm0 0"/><path style="fill:none;stroke-width:2.6;stroke-linecap:butt;stroke-linejoin:miter;stroke:#3284bf;stroke-opacity:1;stroke-miterlimit:4" d="M-4.201-6.001V0c0 6.298 8.403 6.299 8.402 0V-6" transform="rotate(15 -631.725 390.382) scale(.98039)"/><path style="stroke:none;fill-rule:nonzero;fill:#3284bf;fill-opacity:1" d="m78.766 170.512-.051.191-.55.156-2.462-.66-.398-.41.05-.191zM83.309 171.73l-.051.192.398.41 2.461.66.551-.16.05-.187zm0 0"/><path style="fill:none;stroke-width:2.6;stroke-linecap:butt;stroke-linejoin:miter;stroke:#3284bf;stroke-opacity:1;stroke-miterlimit:4" d="M4.702 0a4.7 4.7 0 0 1-4.7 4.699A4.7 4.7 0 1 1 0-4.7C2.594-4.7 4.698-2.595 4.7 0zm0 0" transform="rotate(4.999 -2005.712 1156.263) scale(.98039)"/><path style="stroke:none;fill-rule:nonzero;fill:#fff;fill-opacity:1" d="m93.316 177.254 6.348.555-.34 3.906-6.347-.555zm0 0"/><path style="stroke:none;fill-rule:nonzero;fill:#3284bf;fill-opacity:1" d="m101.105 173.816.016.196.516.25.937 10.746-.46.336.015.195 10.254-.898-.262-3.028-.195.016-.25.516-6.742.59-.801-9.184zM121.402 179.336l-.66-2.461-1.453.387.379-6.293-2.938.789.051.187 1.098.317-.676-.633-.742 12.379.27-.883-.793.82.05.192 3.41-.914-.05-.192-1.102-.312.676.629.016-3.352zm0 0"/><path style="stroke:none;fill-rule:nonzero;fill:#3284bf;fill-opacity:1" d="m121.21 179.387-.66-2.461 1.454-.39-3.473-5.263 2.934-.785.05.188-.792.824.27-.887 6.831 10.352-.676-.633 1.098.316.05.188-3.405.914-.051-.188.793-.824-.27.887-1.691-2.898zM62.816 121.453l-.043.098.188.254-2.316 5.46-.313.044-.043.097 5.211 2.215.652-1.539-.097-.043-.254.184-3.426-1.453 1.98-4.665zM70.82 130.195l.844-1.12-1.894-1.427.68-.906 2.542 1.914-.035.313.086.066 1.008-1.336-4.09-3.082-.066.086.117.293-3.57 4.734-.313-.03-.063.085 4.09 3.082 1.008-1.336-.086-.062-.293.117-2.543-1.914.684-.906zM77.586 134.91l1.352-.98-3.485-4.801-1.355.984.066.086.313-.027 1.171 1.613-3.882 2.824-.29-.125-.085.063 1.14 1.57.086-.062-.027-.313 3.883-2.82 1.172 1.613-.122.29zM82.953 143.297l1.367-.957-3.402-4.86-1.367.958.058.09.317-.024 1.144 1.637-3.933 2.75-.285-.13-.09.063 1.113 1.59.09-.059-.024-.316 3.934-2.75 1.145 1.633-.13.285zM84.29 142.797l-.083.066.05.313-4.546 3.812-.297-.101-.082.066 1.25 1.488.082-.07-.05-.309 4.542-3.812.297.102.086-.07zM88.45 147.75l-.083.07-.297-.101-4.543 3.812.047.309-.082.07-1.246-1.484.082-.07.297.101 4.543-3.812-.05-.31.085-.07zm0 0"/><path style="stroke:none;fill-rule:nonzero;fill:#3284bf;fill-opacity:1" d="m81.621 145.738 3.465 4.13 1.074-.9-3.465-4.132zM90.348 153.66l.746-1.187-2.016-1.258.602-.961 2.699 1.687-.008.313.094.059.883-1.418-4.344-2.715-.055.093.14.278-3.14 5.031-.316-.004-.055.09 4.344 2.715.883-1.418-.09-.059-.281.145-2.696-1.688.598-.957zm0 0"/><path style="fill:none;stroke-width:2.6;stroke-linecap:butt;stroke-linejoin:miter;stroke:#3284bf;stroke-opacity:1;stroke-miterlimit:4" d="M-4.2 6-4.202-4.7h4.2C5.502-4.7 5.5-.005-.003 0h-4.2m3.704-.003 4.2 4.703" transform="matrix(.52084 .13956 -.13956 .52084 96.146 155)"/><path style="stroke:none;fill-rule:nonzero;fill:#3284bf;fill-opacity:1" d="M98.094 158.145a.7.7 0 0 1-.86.496.705.705 0 0 1-.496-.86.701.701 0 0 1 .86-.492.696.696 0 0 1 .496.856zM94.059 157.79l.027-.102-.219-.227-1.351-.363-.305.086-.027.105zM103.8 156.797l.122-1.399-2.363-.207.097-1.125 3.172.278.137.281.105.008.149-1.664-5.106-.446-.008.106.254.187-.515 5.907-.285.136-.008.11 5.101.445.149-1.664-.11-.008-.183.254-3.168-.277.097-1.13zm0 0"/><path style="fill:none;stroke-width:2.6;stroke-linecap:butt;stroke-linejoin:miter;stroke:#3284bf;stroke-opacity:1;stroke-miterlimit:4" d="m-4.197 1.3-.005-6.002L.001-4.7C5.5-4.697 5.5 0-.001.003L-4.204.001m.004-1.304-.002 6L0 4.7C5.5 4.703 5.501 0 0 .003L-4.204.001" transform="matrix(.49995 -.202 .202 .49995 111.734 154.51)"/><path style="stroke:none;fill-rule:nonzero;fill:#3284bf;fill-opacity:1" d="m109.906 158.621.04.102.902-.364-.754.012zM107.563 152.82l-.04-.097.899-.364-.547.512zM119.23 151.254l-.746-1.191-2.011 1.257-.598-.96 2.695-1.684.282.14.093-.054-.886-1.418-4.344 2.715.055.09.316-.004 3.14 5.027-.14.281.059.094 4.343-2.715-.886-1.418-.094.055.008.316-2.7 1.684-.597-.957zM122.09 125.895l-.016.105.246.2-.824 5.87-.289.125-.016.106 5.606.789.234-1.656-.11-.016-.194.246-3.688-.52.707-5.019zM129.086 126.84l-.02.11.239.202-1.032 5.844-.293.113-.02.106 1.915.336.016-.106-.235-.207 1.028-5.84.293-.113.02-.105zm0 0"/><path style="fill:none;stroke-width:2.6;stroke-linecap:butt;stroke-linejoin:miter;stroke:#3284bf;stroke-opacity:1;stroke-miterlimit:4" d="M4-3.501C-2.998-9-6.998 4.702.002 4.698l3.497-.001L3.497 0" transform="scale(.53922) rotate(8 -1622.31 1909.36)"/><path style="stroke:none;fill-rule:nonzero;fill:#3284bf;fill-opacity:1" d="m137.602 132.164-.012.106-.29.12-1.39-.195-.242-.195.012-.11zM139.281 129.215v.11l.274.16v5.933l-.274.16v.11h1.942v-.11l-.27-.16v-5.934l.27-.16v-.11zM145.754 129.215v.11l-.27.16v5.933l.27.16v.11h-1.941v-.11l.269-.16v-5.934l-.27-.16v-.11zm0 0"/><path style="stroke:none;fill-rule:nonzero;fill:#3284bf;fill-opacity:1" d="M139.824 133.152h5.39v-1.402h-5.39zM152.395 130.145l-.145-1.665-5.91.516.148 1.664.106-.008.136-.28 1.989-.177.418 4.782-.254.183.008.11 1.937-.172-.012-.106-.28-.137-.419-4.78 1.985-.177.187.254zm0 0"/></svg>