<svg xmlns="http://www.w3.org/2000/svg" width="160" height="160" fill="#004ea2"><path d="M80 9.134c39.032 0 70.866 31.834 70.866 70.865S119.032 150.865 80 150.865 9.134 119.031 9.134 79.999 40.969 9.134 80 9.134zm0 2.824c-37.476 0-68.042 30.565-68.042 68.041S42.524 148.041 80 148.041s68.043-30.565 68.043-68.042S117.477 11.958 80 11.958zm-24.891 98.244a39.46 39.46 0 0 1-10.545-13.545 38.88 38.88 0 0 1-3.732-16.658c0-21.571 17.595-39.166 39.168-39.166s39.167 17.595 39.167 39.166c0 5.947-1.34 11.597-3.732 16.658a39.436 39.436 0 0 1-10.545 13.545l-.898-1.086a38.084 38.084 0 0 0 10.17-13.06 37.484 37.484 0 0 0 3.594-16.058c0-20.794-16.96-37.755-37.755-37.755S42.245 59.204 42.245 79.998c0 5.738 1.29 11.183 3.594 16.058a38.088 38.088 0 0 0 10.169 13.06l-.899 1.086z"/><path d="m80.237 116.169-8.021-12.239c2.463-1.268 2.158-5.222.048-5.551-2.349-.368-4.219-.481-5.867-4.174h3.821l-1.173-3.203c-4.372.384-5.264-.831-7.337-4.246l5.461-.187-1.104-2.787c-5.951.276-7.521-1.183-9.007-4.574l6.934-.243-1.501-3.316c-7.101.198-8.604-.003-11.208-4.805l8.821-.043-1.244-3.159c-8.04.347-10.048-.44-12.324-4.461l18.072-.457c2.634-.067 5.641 1.728 6.749 4.117l2.173 4.689 2.287-7.892c1.179-4.066 10.065-2.592 12.925.114l-5.375 1.944 2.63 6.404c1.906-4.46 4.241-9.378 9.265-9.378h17.729c-1.364 3.917-4.657 5.87-11.815 4.603l-1.258 3.316 8.841-.027c-2.116 4.933-4.464 5.553-11.04 4.805l-1.373 3.316 7.038.229c-1.354 3.126-3.805 4.995-9.238 4.345l-1.144 3.229 5.604-.026c-1.606 3.928-2.643 4.805-7.751 4.575l-1.171 3.202 4.037.015c-1.697 3.419-2.2 3.825-5.822 4.146-2.153.191-3.113 3.638-.246 5.681l-7.416 12.038zm-60.922-12.515-2.672-7.17 1.46-.508 12.248 1.868-1.874-5.029 1.46-.508 2.446 6.566-1.459.509-12.248-1.865 2.098 5.629-1.459.508zm4.664 9.778-.738-1.433 5.761-2.963-1.827-3.553-5.761 2.962-.738-1.431 12.315-6.334.738 1.433-5.187 2.666 1.828 3.554 5.187-2.668.736 1.434-12.314 6.333zm5.841 7.801-4.375-6.11 11.55-7.173 4.162 5.812-1.283.797-3.176-4.435-3.582 2.225 2.918 4.074-1.282.797-2.918-4.075-4.121 2.56 3.39 4.733-1.283.795zm9.815 9.604-1.466-1.237 8.501-10.444 1.467 1.238-8.502 10.443zm6.584 4.601 1.742-3.703-2.111-1.529-3.143 3.06-1.435-1.109 9.965-9.847 1.999 1.219-5.308 12.871-1.709-.962zm2.546-5.514 2.078-4.772-.192-.157-3.593 3.655 1.707 1.274zm7.443 10.342-1.8-.837 1.05-9.609-3.936 8.078-1.796-.826 6.246-12.369 1.622.752-.754 9.129 4.06-7.538 1.511.628-6.203 12.592zm9.3 2.774-1.161-.379.107-1.088c-.271.233-.632.382-1.08.449s-.898.028-1.354-.12c-.96-.312-1.669-1.065-2.127-2.259s-.369-2.837.275-4.929c.705-2.284 1.571-3.875 2.601-4.771s2.592-1.392 3.975-.949c1.489.475 2.455 2.306 2.027 4.84l-1.778-.146c.307-1.085.151-2.778-.909-3.123-.859-.279-1.822-.015-2.434.669s-1.209 1.974-1.794 3.872c-.554 1.799-.708 3.112-.463 3.942s.667 1.341 1.258 1.534 1.131.115 1.616-.237.877-1.013 1.176-1.983l.248-.803-2.12-.691.427-1.385 3.488 1.138-1.978 6.419zm18.423-3.051c-.04 1.247-.374 2.224-.998 2.93s-1.589 1.032-2.89.983-2.241-.447-2.818-1.198-.848-1.751-.807-2.998l.305-9.435 1.662.062-.305 9.435c-.029.884.144 1.541.516 1.971s.871.659 1.496.684 1.138-.168 1.537-.569.613-1.042.642-1.927l.306-9.435 1.661.062-.307 9.435zm9.454 2.519-1.482.224-4.672-9.004.714 9.667-1.761.252-1.034-13.555 2.027-.188 3.853 6.316-.715-6.798 1.471-.252 1.599 13.338zm5.063-1.42-1.738.527-3.613-12.83 1.738-.527 3.613 12.83zm4.688-16.259 2.197 14.165-1.714.845-7.503-12.023 1.651-.695 5.215 8.198-1.446-9.794 1.6-.696zm13.935 8.029-6.332 3.423-6.894-11.838 6.022-3.254.766 1.314-4.595 2.483 2.138 3.671 4.221-2.281.766 1.314-4.223 2.282 2.46 4.223 4.906-2.651.765 1.314zm7.214-5.058-1.393 1.19-4.907-4.065-1.269 1.149 3.316 4.51-1.392 1.458-8.122-11.402 2.589-1.854c.828-.594 1.916-1.018 2.896-.901 2.529.301 3.61 2.005 3.494 3.986-.036.625-.072 1.234-.317 1.854l5.105 4.075zm-8.752-8.032c-1.031-.281-1.843.516-2.585 1.096l2.699 3.564c.825-.594 1.209-.723 1.833-1.799.27-1.294-.308-2.413-1.947-2.861zm13.133-2.977c2.831 1.701 2.171 6.527-1.55 7.091-1.001.151-2.178-.151-2.684-.471l.636-1.444c.613.137 1.234.358 1.822.247 2.411-.459 2.305-2.964.899-4.002-.49-.362-1.191-.408-1.771-.344-1.627.182-2.669 1.396-4.479 1.509-1.979.125-3.357-1.082-3.68-3.008a3.987 3.987 0 0 1 .58-2.806c1.047-1.639 3.269-1.861 4.888-.906l-.63 1.489c-.875-.465-2.429-.463-3.014.452-.305.479-.411.969-.319 1.468.203 1.087.946 1.718 1.993 1.592 1.757-.214 2.945-1.659 4.674-1.603.824.028 1.801.235 2.635.736zm5.972-1.759-1.02 1.251-11.673-7.319 1.02-1.251 11.673 7.319zm-5.892-14.765-1.292 2.394 11.025 6.483-.743 1.377-11.024-6.484-1.292 2.394-1.377-.81 3.326-6.164 1.377.81zm2.022-9.107 6.724 6.01 4.49 1.922-.547 1.514-4.16-1.61-9.577-.222.46-1.534 6.683.108-4.732-4.354.659-1.834zm-92.163 33.646c-1.189 1.184-2.3 1.796-3.33 1.83s-1.962-.374-2.801-1.229c-.764-.777-1.142-1.683-1.133-2.719.004-.525.157-1.065.456-1.62l1.514.925a1.814 1.814 0 0 0-.203.752c-.015.564.159 1.034.522 1.405.511.52 1.047.754 1.608.707s1.245-.47 2.052-1.272l6.731-6.664 1.256 1.279-6.672 6.606zm22.903-2.334-4.719-2.928.428-.741 1.752 1.089 2.807-4.886-1.754-1.089.382-.663c.664.411 1.192.645 1.588.695s.725-.105.993-.476l1.006.622-3.77 6.569 1.713 1.062-.426.746zm14.072-2.983c.075-.375-.055-.714-.392-1.021s-.855-.503-1.546-.599c-.634-.087-1.171-.046-1.62.123s-.714.439-.792.823c-.057.279 0 .526.167.746s.439.435.819.645l.771.38.952.402c.556-.178.949-.393 1.185-.626.234-.242.387-.534.456-.873zm-.613 4.227c.071-.348.021-.631-.144-.864-.171-.233-.531-.494-1.086-.787a9.317 9.317 0 0 0-.739-.338l-1.05-.448c-.521.142-.942.343-1.258.608a1.68 1.68 0 0 0-.592.979c-.103.508.05.951.455 1.35s.965.646 1.679.741c.73.105 1.343.041 1.839-.179s.798-.577.896-1.062zm-2.925 2.077c-.643-.092-1.217-.233-1.72-.43s-.915-.435-1.24-.723c-.318-.274-.54-.577-.666-.915a1.84 1.84 0 0 1-.085-1.021c.094-.453.364-.842.817-1.171s1.054-.554 1.813-.682l.007-.032c-.59-.329-1.008-.654-1.26-.983a1.349 1.349 0 0 1-.242-1.13c.128-.636.604-1.107 1.423-1.423s1.8-.398 2.93-.242c1.181.164 2.084.494 2.711.997.629.494.88 1.057.755 1.674-.076.376-.32.724-.734 1.043s-.963.54-1.645.654l-.005.037c.707.334 1.224.69 1.546 1.07a1.49 1.49 0 0 1 .327 1.336c-.146.718-.668 1.263-1.571 1.633s-1.956.478-3.161.308zm16.324-5.174c0-.576-.08-1.048-.237-1.409s-.38-.641-.661-.837c-.247-.184-.501-.312-.757-.38s-.538-.101-.847-.101c-.7 0-1.258.169-1.672.503s-.625.814-.625 1.45c0 .361.066.649.204.883s.358.435.67.6a2.29 2.29 0 0 0 .732.238 5.91 5.91 0 0 0 .878.06c.363 0 .76-.046 1.178-.129a5.54 5.54 0 0 0 1.103-.338l.023-.229a3.22 3.22 0 0 0 .011-.311zm-6.532-.727c0-.439.107-.837.317-1.194a3 3 0 0 1 .879-.938c.35-.252.782-.443 1.295-.586s1.024-.21 1.551-.21c.585 0 1.116.064 1.59.196s.887.32 1.234.567c.439.312.778.719 1.021 1.222s.363 1.144.363 1.917c0 .7-.118 1.368-.356 1.994-.235.632-.581 1.153-1.043 1.564-.489.439-1.077.778-1.764 1.007s-1.535.348-2.544.348c-.226 0-.469-.005-.725-.022a5.63 5.63 0 0 1-.719-.097v-1.089h.087c.143.056.364.11.668.156a5.6 5.6 0 0 0 .92.073c1.116 0 1.994-.243 2.631-.732s.999-1.194 1.084-2.104a7.045 7.045 0 0 1-1.3.453 5.98 5.98 0 0 1-1.347.142c-.474 0-.901-.036-1.29-.105s-.778-.201-1.169-.397c-.458-.233-.801-.526-1.034-.879s-.349-.783-.349-1.286zm18.5-7.251-.311 8.747-1.341.847.119-8.271-5.11 2.479-.45-.983 6.425-3.335.668.516zm6.425-66.895c-.944-.634-.2-.715-.01-1.664.163-.815-.229-1.838.017-2.394.665-1.499 2.58-.625 3.568.332.176.17.297.589.389.99.228.998.414 2.388-.771 2.913-1.022.454-2.372.375-3.193-.177zm-11.123-6.278-.085-.082.156-.32c.371.006 3.915-.709 3.94-.787 1.08-.323 2.103-.757 2.756-1.714-2.279-.147-4.773.561-6.922-.117-.873-.626-1.325-1.415-1.886-1.979l.037-.117c-.814-1.161-.546-2.129.83-2.046 1.914 1.306 5.729 1.089 8.007 1.125.522-.02 1.982.035 2.49-.229 1.572-2.586 2.378-5.488 3.6-8.074 1.443-1.648 2.222.249 2.92 1.567.089.168.22.476.315.931.034.011.297 1.459-.782 1.894a10.973 10.973 0 0 0-2.413 3.964c1.525.37 2.902-.542 4.583.099.093.934-.22 1.573-1.217 1.924l-4.611.169c-.882 1.271-2.123 2.763-3.562 3.508-.21.109-1.188.487-1.4.519-1.103.163-2.16.476-3.251.357-3.009-.328-2.992-.467-3.505-.592zm-35.474 4.897c-1.241-.223-2.595-1.296-3.41-1.973l.093-.957c2.097-2.636 4.206-5.127 5.959-8.076.428-1.289 1.062-2.684 1.546-3.974.028-.027.095-.161.084-.194.532-.694.777-.904 1.565-.2.231.702-.917 1.785-1.079 2.578-.282 1.39-1.026 4.891-1.544 6.223-.331.85-1.746 5.571-2.606 6.336a7.135 7.135 0 0 0-.608.237zM73.17 31.189c-1.626.351-2.352-.56-3.474-1.266-.138-.418.053-.74.009-1.041.379-.198 1.489-.712 2.208-.948.87-.453 2.815-2.706 3.793-2.212.633 1.924-.979 4.455-2.536 5.467zm-13.164.145c-.756-.382-1.525-2.833-1.779-3.603.095-1.514 1.477-1.932 2.877-1.336 1.249.979 2.01 1.321 1.413 3-.85 1.244-1.324 1.437-2.511 1.939zm11.605-4.319c-.365-.714.255-2.604-.145-2.917-.374.16-.736.409-1.138.541-1.09-.216-2.461-1.117-2.313-2.13.505-1 .281-.723 1.385-1.085l2.842-2.232c1.717-.807 2.805-.034 3.377 1.705-.021 1.229-.549 2.33-1.06 3.425-.821.771-1.537 1.58-2.258 2.373l-.69.32zm-11.212-2.537c-.467-.235-.354-.457-.242-.847-.242-.735-.847-1.222-1.078-1.925-.101-1.375-.477-1.788.445-2.703.94.154 4.277.891 4.008 2.721-.539 1.233-2.001 2.307-3.133 2.754zM37.702 74.021c-1.424 1.067-4.26.388-4.702-1.536-.312-1.359-2.037-5.187-2.774-7.253-.371-.644-.802-1.14-.563-1.871.478-.141 1.042.368 1.469.761.215-.062.548-.596.522-.958l-.433-4.646-1.148-.947c-.255.764-1.117 3.261-2.016 1.969.194-1.018.27-2.7-.333-3.69-.76-.775-1.829-1.278-2.185-2.134.099-1.209 1.938-1.569 3.042-1.128.881.039.797-1.61 1.899 1.076.039.442.479.702.975.933l.224-.3-.09-3.657c-1.128-1.057-2.074-1.934-2.768-3.234-.049-1.27 1.365-2.062 2.602-2.49.379-.695.361-1.287.298-2.163.073-.281.073-.281.357-.728.433.015.798.154 1.292.424 1.042 1.25-.889 5.27 1.088 5.505.371-.68-.204-1.354-.531-1.894.074-.981 1.538-2.269 2.584-2.681 1.575-.203 1.512.685 1.573 2.041l.249.537 4.905 3.137c.886.763.982 2.027 1.072 2.409.057.242.47 2.041-.457 2.197l-6.931-4.422a.344.344 0 0 0-.037.14c1.024.88 2.44 3.356 2.531 4.77-.506.927-1.497 1.349-2.419 1.127-.173-.235-.118-.445-.163-.73-.715-1.152-2.71-2.2-3.727-2.835-.351.791.521 3.051.795 3.982l.185 1.645 2.208 2.348.903 1.395-.059.108c.361.698 1.17 2.743-.187 2.806l-.378-.227c-.466-1.057-1.332-2.189-2.248-2.79-.267 1.078.154 2.221-.332 3.107-.297.543-.881.815-1.296.988-.44.184-.719.279-.748.443l1.24 1.438 4.546 5.928c.128.546.107.695-.034 1.1zm-9.975-8.729c-.576.026-.89-.646-1.344-.954-1.593-.388-2.788-.659-3.372-2.199a4.33 4.33 0 0 1 .212-.426c.808-.342 2.329-.595 3.356-.676 1.972.354 1.403 2.83 1.148 4.255zm-4.299-4.47c-.325.264-.394.206-.551.2-.223-.362-.316-.633-.681-.772-1.742.032-3.596-1.199-3.343-2.986.305-.375.651-.166 1.323 0 1.454-.35 3.605-1.353 3.792.998-.126.862-.353 1.74-.54 2.56zm99.459-4.369c-.746-1.395 1.203-2.966 2.089-3.502 1.279.272 1.285 2.331.431 3.313-1.203.821-1.342.98-2.52.189zm-2.222 13.904c-.018-.061-.021-.11-.035-.147-1.462-1.27-2.646-2.696-3.448-4.35.051-.166.051-.166.2-.339 1.144.294 2.059 1.416 3.365 1.199.676-.509 1.244-.947 1.691-1.515-1.448-1.259-3.128-1.017-4.598-1.688-.982-.854-1.804-3.317-1.35-4.322 1.177-1.193.895-.412 2.249.766 1.782 1.223 4.159 1.843 6.261 2.645.542.074.542.074.786.169 1.301-.664 1.703-.617 2.933.194.6.195.6.195 2.478.639l.444-.243c-1.992-1.546-4.859-1.52-7.224-1.966-.896-.499-1.315-1.144-1.589-1.848-.355-.263-2.439-1.701-.883-1.561.733.311 1.508.331 2.315.637 2.225.419 4.535 1.168 6.798 1.759.208-.239.243-.441.262-.543.304-.296.509-.397.822-.544-.361-.174-.418-.271-.669-.115-1.23-.463-2.361-.047-2.269-1.576-.934.564-1.982.563-2.779-.13-.379-1.146.865-2.443 1.313-3.174.016-.125.398-.727.755-1.512.351-1.048.489-2.468 1.546-2.691.875.201 1.219.289.952 1.481.099.691.194 2.011.069 2.604-.201.954-.549 2.319-1.431 3.092.635.155 1.665.258 1.871-.542-.308-1.015.674-1.258 1.363-1.031.311.34.311.34.773.72.15-.173.137-.185.149-.36-.363-.735-.128-.765.462-1.067-.41-.87.013-1.785.732-2.022l3.48 1.952c1.299-.152 3.886-1.519 4.65-.037-.059.765-.505 1.707-1.259 2.333-.438.155-.884.212-1.264.488.119.104.228.221.335.338 1.162.381 1.979.273 1.293 1.894.354 1.147.728 1.309-.638 2.128l-5.086 1.666a.842.842 0 0 0-.165.136l.323.514c-.409.578-1.002 1.206-1.609 1.797-1.156.23-1.746-.352-2.589-.991l-4.081-1.263c-.175.175-.377.326-.517.647l1.404 1.337c.183.836-.778 1.727-1.635 1.961-.593-.445-.972-.681-1.583-.862l-.903.637c-.932 1.025-2.776 3.923-4.47 2.706zm14.955-9.341c-.017-.062-.032-.098-.047-.134.811-.718 1.053-.997.214-1.587-.233.054-.675.16-.684-.127-.01-.309 1.478-.652 1.705-.78.425.369 1.048 1.074 1.099 1.795-.589.676-1.365.818-2.287.833z" fill-rule="evenodd"/></svg>